<?xml version="1.0" encoding="utf-8"?>
<!-- Generator: Adobe Illustrator 17.1.0, SVG Export Plug-In . SVG Version: 6.00 Build 0)  -->
<!DOCTYPE svg PUBLIC "-//W3C//DTD SVG 1.1//EN" "http://www.w3.org/Graphics/SVG/1.1/DTD/svg11.dtd">
<svg version="1.1" id="flag-icon-css-ad" xmlns="http://www.w3.org/2000/svg" xmlns:xlink="http://www.w3.org/1999/xlink" x="0px"
	 y="0px" viewBox="0 0 640 480" enable-background="new 0 0 640 480" xml:space="preserve">
<g>
	<polygon fill="none" points="212.3,480 219.7,482.1 225.6,480 	"/>
	<path fill="#D0103A" d="M435.6,397.5c1.4-3.3,2.1-4.1,4.4-5.5c3.1-1.8,3.1-1.3,0.1-7.8l-1.6-3.7l1.1-2.7c0.6-1.5,1.9-6.8,3-11.7
		c2.7-13.1,3.2-15.1,3.7-15.7c0.2-0.2,9.6-1.5,20.9-2.6l20.5-2.2l8.6,6.5l8.7,6.5l2.1-1.8c1.2-1,6.2-5.6,11.1-10.3
		c4.9-4.6,11.6-10.7,14.9-13.4c4.8-3.9,6.2-5.3,6.6-6.9c0.3-1.1,0.6-6.3,0.6-11.5v-9.5l-2.5-3.1c-1.4-1.7-2.5-3.2-2.5-3.4
		c0-0.2,1.4-0.8,3.1-1.4l3.1-1l3.9-7.7c3.6-7.3,3.9-8.1,4.8-14.6c1-6.7,1-7,0-11l-1-4.1l2.1-5.3l2.1-5.2l-1-7.3l-1-7.3l3.8-7
		c3.5-6.5,4.1-7.4,9.5-12.3c10-9.3,9.1-8.8,17.3-11.1l7.4-2.1l6.5,0.6l6.6,0.6l6-3.2c7.3-3.9,21.6-14.9,21.2-16.4
		c-0.8-2.7-5-16.1-5.1-16.3c-0.1-0.2-6,0.7-13.1,1.8l-13,2.2l-9.6-3.2c-6.9-2.3-12-4.4-18.2-7.7c-7.9-4.1-9.2-4.6-14.5-5.5
		c-3.2-0.6-7.6-1-9.6-1c-3.2,0-4.2-0.2-6.6-1.7c-2.2-1.4-2.7-2-2.5-2.9c0.2-0.7,0.9-5.1,1.7-9.8l1.4-8.6l3.4-4.5
		c2.2-3,3.4-5,3.4-6.1c0-1.2,0.6-2,2.6-3.6c1.5-1.1,4.1-3.7,5.9-5.9l3.3-3.9l-1.7-3.2c-0.9-1.8-1.8-4.7-2-6.5
		c-0.2-1.7-0.6-3.2-0.8-3.2c-0.2,0-1.6,1.1-3.1,2.3c-1.5,1.3-3.1,2.7-3.6,3.1c-0.8,0.7-2.2,0.6-9.2-0.3c-4.5-0.7-10.2-1.2-12.6-1.2
		c-3.6,0-5.4-0.3-10.1-2.1c-5.3-1.9-6.2-2.5-11-6.6c-6.8-6-9.8-7.3-21.3-8.7l-8.6-1.1l-5.7,3.4l-5.7,3.4l-5.9,0.1
		c-3.2,0-7,0.2-8.6,0.4c-3.5,0.6-7.5-0.3-11.1-2.4c-1.4-0.8-2-1.2-2.4-1.9v316.9L435.6,397.5z"/>
	<path fill="#FEDF00" d="M228.7,478.9l9.1-3.2l15.9-1c8.8-0.6,17.2-1,18.8-1l2.9-0.1l0.4-2.7c0.2-1.5,0.5-5.9,0.7-10l0.3-7.4
		l4.8-1.6c2.6-0.9,4.8-1.8,4.8-2.1s-0.2-4.6-0.5-9.6c-0.4-8.9-0.4-9.1,1.1-13.6c1.2-3.5,1.7-4.5,2.7-4.8c1.7-0.4,9.4-2,9.6-2
		c0.1,0,2.4,2.9,5,6.4c4.3,5.8,5.2,6.6,7.9,7.8c4.9,2.1,4.6,2.3,7.2-3.8c1.8-4.3,3.5-7,7.6-12.4l5.3-6.9l7.6-4.3l7.6-4.4l5.1,2.6
		l5,2.7l9.5-1c11.6-1.1,12.9-1.1,21,0.1l6.6,0.9l3.2-2.8c1.8-1.5,3.5-2.9,3.9-3.1c0.3-0.2,2.1,0.3,3.8,1.1l3.1,1.6l5.1-2.7l5-2.7
		l2.7,2.7l2.7,2.7l4.8-1.6l4.8-1.6l1.3-2.9V81.6c-0.3-0.6-0.4-1.3-0.6-2.7c-0.2-2-0.7-3.2-1.3-3.5c-1.3-0.7-21-5.1-26.6-5.9
		l-4.5-0.7l-5.5,2.7l-5.5,2.7l-4.3-0.6c-2.9-0.4-5-0.4-6.2,0c-2.6,0.7-8.9,0.1-13.8-1.5c-4.8-1.5-6.8-1.2-10.4,1.5
		c-1.8,1.3-2.8,1.6-5.5,1.6h-3.2L344,68c-2.1-4-4-7.6-4.3-7.7c-0.3-0.2-1.6-0.6-2.9-0.7c-2.3-0.4-19.4-4.1-21.1-4.6
		c-0.9-0.3-1-1.1-1-5.8v-5.5l-2.5-1c-1.3-0.6-2.6-1.4-2.7-1.9c-0.1-0.5-0.4-3.2-0.6-6.1l-0.4-5.1l-4-0.2l-4-0.2l-3.5-5
		c-1.9-2.7-3.6-5.1-3.7-5.2c-0.2-0.2-2.2,0.4-4.7,1.2l-4.4,1.6l-6.4-4.8c-3.6-2.7-6.6-4.9-6.7-4.9s-2.9,1.6-6.1,3.5
		c-3.2,2-8.3,4.9-11.4,6.5l-5.5,3l-3.2-1.1c-3.1-1.1-3.4-1.1-7.5-0.2c-2.3,0.6-4.6,1.1-5.1,1.3c-0.4,0.2-2,2.5-3.5,5.1
		s-3,4.8-3.2,4.8c-0.3,0-4.7,0.5-9.7,1.1l-9.1,1.1l-1.8-0.6v441.1l2.2,0.7l5.3,1.5h13.3L228.7,478.9z M224.1,210.2
		c0.6-5,1.5-8,4.6-11.9c1.8-2.3,3-3.7,5.8-4.9c2.3-1,3.7-1.7,6.2-1.7l2,0.1c1,0.1,1.9,0.3,2.8,0.8c0.4,0.2,1.1,0.9,1.1,0.4
		s-0.3-0.8-0.3-1.3c0-2,1.5-4,3.6-4c1.5,0,2.1,1.4,2.9,2.7c0.4-0.8,0.7-1.4,0.7-2.3c0-3.4-1.9-5.2-4-7.9c-4.7-5.8-10.5-8.5-10.5-16
		c0-2.2,1-3.7,3-4.9c0.5-0.3,1.3,0,1.8-0.3c0.5-0.3,0.4-1,0.7-1.4c0.5-0.7,1-1,1.6-1.6c1-1,2-0.6,3.1-1.5c0.6-0.4,0.8-1,1.2-1.4
		c1.3-1.6,2.5-2.4,4.6-2.4c1,0,1.6,0,2.5,0.4l1,0.5c0.3-0.2,0.8-0.8,1.5-1.1c0.7-0.4,1.4-0.6,2.2-0.6c1.1,0,1.8,0.6,3,0.6
		c0.3,0,0.4-0.4,0.8-0.6c1-0.7,1.5-1,2.7-1s1.8,0.3,2.8,1c1,0.5,1,1.3,2,1.8c0.5,0.3,1,0.2,1.5,0.4c2.6,0.9,4.5,2.6,4.5,5.3
		c0,1.5-0.3,2.5-1.4,3.5c-0.9,0.7-1.7,0.6-2.8,1c3.2,2.6,7.2,3.8,11.3,3.5c4.2,0,9.3-1.7,9.3-5.9c0-2-1-3-1.8-4.8
		c-1.4-2.6-2.1-5.5-2.1-8.5c0-2.8,0.3-4.5,1.9-6.7c1.6-2.3,3.6-2.9,6.5-2.9l0,0c7.7,0,10.9,6.6,18.6,6.6c4.7,0,7.5-1.5,11.7-3.9
		c2.9-1.6,4.7-2.5,8-2.5c3.4,0,5.5,1,7.3,4c1,1.6,1.8,4.9,1.3,6.7c-0.6,2.9-1.5,5.6-2.7,8.3c-0.7,1.6-1.3,2.5-1.3,4.2
		c0,4.1,5.6,5.5,9.4,5.6c0.8,0,7.7,0,12-4.2c-2.3-0.1-4.9-2-4.9-4.3c0-2.6,1.8-4.3,4.3-5.1c0.5-0.1,1.3,0.3,1.7,0
		c0.7-0.3,0.4-1,1-1.4c1.2-1,2-1.6,3.6-1.6c1,0,1.6,0.1,2.5,0.7c0.4,0.4,0.6,0.8,1,0.8c1.2,0,1.8-0.8,3-0.8c0.9,0,1.4,0.2,2.3,0.6
		c0.6,0.3,0.6,1.5,1.4,1.5c0.4,0,2.4-0.9,3.5-0.9c2.2,0,3.4,0.8,4.8,2.5c0.4,0.5,0.6,1.4,1,1.4c2,0.2,3.8,1.3,4.8,3
		c0.3,0.4,0.7,1.4,1.1,1.5c0.6,0.3,1,0.2,1.7,0.7c1.7,1,2.7,2.8,2.8,4.8c0,0.7-0.3,1.6-0.5,2.2c-1.8,6.5-6.3,8.6-10.8,14.3
		c-2,2.4-3.5,4.3-3.5,7.4c0,0.7,1,2.1,1.3,2.7c-0.2-1.4,0.5-3.2,2-3.3c2,0,3.7,1.5,4,3.6c0,0.6-0.1,1.2-0.3,1.8
		c1.2-0.8,2.6-1.2,4-1.4h1.9c3.3,0,7,1.9,9.3,3.8c4.9,4.2,7.6,10.4,7.3,16.8c-0.8,5.2-0.3,14.8-13.8,18.6c2.5,1,4.2,3,4.2,5.2
		c0.1,2.5-1.8,4.6-4.3,4.7c0,0-0.1,0-0.1,0c-1.3,0.1-2.6-0.4-3.5-1.4c-2.8,2.8-3.3,5.7-3.3,9.7c0,2.4,0.4,3.8,1.4,6
		c1,2.2,1.8,3.5,3.7,5.1c1-1.5,2.1-2.6,4-2.6c1.7,0,3.2,0.6,3.9,2.2c0.2,0.5,0,0.9,0.3,1.4c0.3,0.6,0.8,0.7,1.1,1.3
		c0.5,1,0,1.8,0.5,2.7c0.3,0.7,0.9,0.8,1.2,1.4c0.4,1,0.5,1.6,0.5,2.7c0,3-2.7,5.2-5.7,5.2c-1,0-1.4-0.4-2.3-0.3
		c1.7,1.7,3,2.5,4.3,4.5c2,3,3.1,6.6,3,10.3c0,4.5-0.8,7.2-2.8,11.2c-1.5,3.4-3.9,6.4-7,8.5c-5.5,4-9.5,5.1-16,6.4
		c-3.6,0.7-7.3,1.2-11,1.4l-14.1,0.8c-7.2,0.4-12.2,1.5-17.3,6.6c2.4,1.7,4,3.5,4,6.4c0,3-1.8,5.3-4.7,6.2c-0.7,0.2-1.2,0-1.9,0.4
		c-0.7,0.4-0.7,1.3-1.4,1.7c-1.1,0.7-2.5,1.1-3.8,1c-2.7,0-4.5-0.6-6.4-2.5c-2.2,1.8-3,3.4-5.5,4.9c-0.8,0.4-1.2,1-2.1,1
		c-1.5,0-2.2-1-3.4-1.8c-1.6-1.1-3.1-2.5-4.4-4c-2.3,1.3-3.6,2.4-6.3,2.4c-1.6,0-2.6-0.2-4-1c-0.6-0.5-0.8-1.2-1.5-1.6
		c-0.7-0.5-1.3-0.3-2.1-0.7c-3-1.3-5-3.5-5-6.8c0-2.9,1.8-4.7,4.4-6c-5-5-10-5.8-17-6.2l-14-0.8c-4.4-0.3-6.8-0.7-11-1.4
		c-3.3-0.5-5.2-0.7-8.2-2.1c-10.2-4.8-16.8-11.3-18-22.5c-0.2-1-0.2-1.5-0.2-2.5c0-5.8,2.3-9.4,6.4-13.5c-1-0.3-1.7,0-2.8-0.3
		c-2.5-1-4.4-2.7-4.4-5.5c0-1,0-1.7,0.5-2.6c0.4-0.6,1-0.7,1.2-1.4c0.2-1,0-1.6,0.4-2.5c0.3-0.5,0.8-0.6,1-1.2c1-1.9,2-3.4,4.1-3.4
		c1.8,0,3,1,3.8,2.5c1.8-0.8,2.2-2.1,3.2-3.7c2.5-4,3-8.9,1.4-13.3c-0.4-1.5-0.6-2.5-1.8-3.7c-1,1-2,1.4-3.4,1.4c-2.9,0-5-2.5-5-5.3
		c-0.1-2,1.1-3.8,3-4.6c-1.6-1.4-3-1.5-4.7-2.6c-2.6-1.6-3.5-3.4-5.2-6c-1.2-1.6-1.5-2.8-2-4.7C224.2,215.5,223.9,212.8,224.1,210.2
		z"/>
	<path fill="#0018A8" d="M201.3,35.6c-2.9-0.8-5.5-1.7-5.7-1.8c-0.2-0.1-2.6-3-5.4-6.4c-3.9-4.8-5.4-6.2-6.4-6.2
		c-0.8-0.1-5.8,0.6-11.2,1.5l-9.8,1.5l-1.6,5.3c-1.3,4.5-1.5,5.9-1.2,9.6l0.4,4.3l-6.4,6.7l-6.4,6.7l-0.1,5.7V68l2.1,0.5l2.1,0.5
		l0.3,4.4c0.3,3.9,0.7,5.3,3.2,10.6c2.2,4.5,3.2,7.5,4,11.6c0.6,3,1.1,5.9,1.1,6.5c0,0.6-1.8,2.2-4.8,4l-4.8,3.1v3.4v3.4l-5.5,1.6
		c-3.8,1.1-7,2.6-10.9,4.9l-5.5,3.2l-3.7-1.6c-2.7-1.2-5.4-1.8-9.6-2.2c-3.2-0.3-6-0.4-6.2-0.3c-0.2,0.1-0.6,2.2-0.8,4.6
		c-0.2,2.4-0.6,7.2-1,10.6c-0.7,7-0.1,6.4-6.5,7.2l-2.9,0.4l-3.7,5.8l-3.7,5.9l-2.9-0.2l-2.9-0.2l-0.4,4.3l-0.5,4.2l3.4,6.7
		c2.3,4.6,4.5,8,7.1,11l3.7,4.3l4,0.4c7.3,0.6,6.9,0.4,8.5,5.4c0.8,2.4,1.4,4.6,1.3,5c-0.1,0.3-3.5,3.4-7.6,6.9
		c-6.9,5.9-8.1,6.7-15.1,9.8c-4.2,2-7.9,3.8-8.3,4.1c-0.3,0.4-3.4,7.5-6.8,15.8c-3.4,8.3-7.4,17.9-9,21.2c-1.6,3.4-2.7,6.4-2.6,6.7
		c0.2,0.3,0.9,1,1.7,1.4c1.4,0.7,1.7,0.6,6.8-3.5l5.3-4.3h4.3c4,0,5.3-0.3,14.4-3.7c5.6-2,10.4-3.7,10.7-3.7
		c0.4,0,14.6,9.1,16.4,10.5c0.1,0.1-0.1,1.8-0.4,3.8c-0.6,3.5-0.5,3.8,1.9,10.5c1.3,3.8,2.6,7.4,2.9,7.9c0.3,0.7,1.3,1.1,3.1,1.3
		c1.5,0.2,3,0.5,3.3,0.7c0.6,0.3,13.9,28.5,14.2,29.9c0.1,0.3-2.8,2.8-6.3,5.5c-3.5,2.7-9.1,7.4-12.4,10.3c-5.8,5.1-6,5.4-6.4,8.1
		c-0.2,1.5-0.7,3.1-1,3.5c-0.3,0.4-4.5,2.6-9.2,4.8l-8.6,4l-11,0.1c-6,0-13.5,0.3-16.6,0.7l-5.6,0.7l-3.2,4.8
		c-3,4.4-3.5,4.9-6.3,5.9c-1.7,0.6-3.2,1.3-3.4,1.5c-0.3,0.3,0.2,1.9,1.6,6c0.2,0.5,1.2,0.3,4-0.7c2-0.8,4-1.4,4.5-1.4
		c0.4,0,1.2,1.4,1.7,3.1l1,3.1l4.8-0.3c2.6-0.2,7.3-0.4,10.3-0.6l5.6-0.3l8.1,8.1l8.1,8.2l-2.1,4.1l-2.1,4l1.6,7.5l1.7,7.5l2.7,2.3
		c1.5,1.3,3.4,3,4.4,3.7l1.6,1.5l-4.4,4.9l-4.4,4.8l1.8,6c1,3.2,3.2,8.6,4.9,11.9l3,6l-3.7-1.4c-2.1-0.8-4-1.6-4.3-1.8
		c-1.1-0.7,2,3.1,6.8,8.2l4.9,5.2l10.9,1.6c10.3,1.6,11.7,2,25.5,6.7l14.7,5h12.1h12.1l10.3,3V36.7L201.3,35.6z"/>
	<path fill="#C7B37F" d="M370.9,293.6c-1.7,0.5-1.7,2.3-1.1,4v-0.1c0.6,1.7,2,3.8,3.8,3.2c1.7-0.6,1.8-2.4,1.2-4.2
		C373.9,294,372.2,293.1,370.9,293.6z"/>
	<path fill="#C7B37F" d="M352.9,298.6c-0.4,0.1-0.7,0.2-0.6,0.9h0.1l0.5,2.3c0.1,0.3,0.5,0.2,0.8,0.2c1.6-0.4,1.5-1.1,1.3-1.8
		C354.7,299.1,353.9,298.4,352.9,298.6z"/>
	<path fill="#C7B37F" d="M227.1,222.7c1.7,2.6,2.6,4.4,5.2,6c1.7,1.1,3.1,1.2,4.7,2.6c-1.9,0.8-3.1,2.6-3,4.6c0,2.8,2.1,5.3,5,5.3
		c1.4,0,2.4-0.4,3.4-1.4c1.2,1.2,1.4,2.2,1.8,3.7c1.6,4.4,1.1,9.3-1.4,13.3c-1,1.6-1.4,2.9-3.2,3.7c-0.8-1.5-2-2.5-3.8-2.5
		c-2.1,0-3.1,1.5-4.1,3.4c-0.2,0.6-0.7,0.7-1,1.2c-0.4,0.9-0.2,1.5-0.4,2.5c-0.2,0.7-0.8,0.8-1.2,1.4c-0.5,0.9-0.5,1.6-0.5,2.6
		c0,2.8,1.9,4.5,4.4,5.5c1.1,0.3,1.8,0,2.8,0.3c-4.1,4.1-6.4,7.7-6.4,13.5c0,1,0,1.5,0.2,2.5c1.2,11.2,7.8,17.7,18,22.5
		c3,1.4,4.9,1.6,8.2,2.1c4.2,0.7,6.6,1.1,11,1.4l14,0.8c7,0.4,12,1.2,17,6.2c-2.6,1.3-4.4,3.1-4.4,6c0,3.3,2,5.5,5,6.8
		c0.8,0.4,1.4,0.2,2.1,0.7c0.7,0.4,0.9,1.1,1.5,1.6c1.4,0.8,2.4,1,4,1c2.7,0,4-1.1,6.3-2.4c1.3,1.5,2.8,2.9,4.4,4
		c1.2,0.8,1.9,1.8,3.4,1.8c0.9,0,1.3-0.6,2.1-1c2.5-1.5,3.3-3.1,5.5-4.9c1.9,1.9,3.7,2.5,6.4,2.5c1.3,0.1,2.7-0.3,3.8-1
		c0.7-0.4,0.7-1.3,1.4-1.7c0.7-0.4,1.2-0.2,1.9-0.4c2.9-0.9,4.7-3.2,4.7-6.2c0-2.9-1.6-4.7-4-6.4c5.1-5.1,10.1-6.2,17.3-6.6
		l14.1-0.8c3.7-0.2,7.4-0.7,11-1.4c6.5-1.3,10.5-2.4,16-6.4c3.1-2.1,5.5-5.1,7-8.5c2-4,2.8-6.7,2.8-11.2c0.1-3.7-1-7.3-3-10.3
		c-1.3-2-2.6-2.8-4.3-4.5c0.9-0.1,1.3,0.3,2.3,0.3c3,0,5.7-2.2,5.7-5.2c0-1.1-0.1-1.7-0.5-2.7c-0.3-0.6-0.9-0.7-1.2-1.4
		c-0.5-0.9,0-1.7-0.5-2.7c-0.3-0.6-0.8-0.7-1.1-1.3c-0.3-0.5-0.1-0.9-0.3-1.4c-0.7-1.6-2.2-2.2-3.9-2.2c-1.9,0-3,1.1-4,2.6
		c-1.9-1.6-2.7-2.9-3.7-5.1c-1-2.2-1.4-3.6-1.4-6c0-4,0.5-6.9,3.3-9.7c0.9,1,2.2,1.5,3.5,1.4c0,0,0.1,0,0.1,0
		c2.5-0.1,4.4-2.2,4.3-4.7c0-2.2-1.7-4.2-4.2-5.2c13.5-3.8,13-13.4,13.8-18.6c0.3-6.4-2.4-12.6-7.3-16.8c-2.3-1.9-6-3.8-9.3-3.8
		h-1.9c-1.4,0.2-2.8,0.6-4,1.4c0.2-0.6,0.3-1.2,0.3-1.8c-0.3-2.1-2-3.6-4-3.6c-1.5,0.1-2.2,1.9-2,3.3c-0.3-0.6-1.3-2-1.3-2.7
		c0-3.1,1.5-5,3.5-7.4c4.5-5.7,9-7.8,10.8-14.3c0.2-0.6,0.5-1.5,0.5-2.2c-0.1-2-1.1-3.8-2.8-4.8c-0.7-0.5-1.1-0.4-1.7-0.7
		c-0.4-0.1-0.8-1.1-1.1-1.5c-1-1.7-2.8-2.8-4.8-3c-0.4,0-0.6-0.9-1-1.4c-1.4-1.7-2.6-2.5-4.8-2.5c-1.1,0-3.1,0.9-3.5,0.9
		c-0.8,0-0.8-1.2-1.4-1.5c-0.9-0.4-1.4-0.6-2.3-0.6c-1.2,0-1.8,0.8-3,0.8c-0.4,0-0.6-0.4-1-0.8c-0.9-0.6-1.5-0.7-2.5-0.7
		c-1.6,0-2.4,0.6-3.6,1.6c-0.6,0.4-0.3,1.1-1,1.4c-0.4,0.3-1.2-0.1-1.7,0c-2.5,0.8-4.3,2.5-4.3,5.1c0,2.3,2.6,4.2,4.9,4.3
		c-4.3,4.2-11.2,4.2-12,4.2c-3.8-0.1-9.4-1.5-9.4-5.6c0-1.7,0.6-2.6,1.3-4.2c1.2-2.7,2.1-5.4,2.7-8.3c0.5-1.8-0.3-5.1-1.3-6.7
		c-1.8-3-3.9-4-7.3-4c-3.3,0-5.1,0.9-8,2.5c-4.2,2.4-7,3.9-11.7,3.9c-7.7,0-10.9-6.6-18.6-6.6l0,0c-2.9,0-4.9,0.6-6.5,2.9
		c-1.6,2.2-1.9,3.9-1.9,6.7c0,3,0.7,5.9,2.1,8.5c0.8,1.8,1.8,2.8,1.8,4.8c0,4.2-5.1,5.9-9.3,5.9c-4.1,0.3-8.1-0.9-11.3-3.5
		c1.1-0.4,1.9-0.3,2.8-1c1.1-1,1.4-2,1.4-3.5c0-2.7-1.9-4.4-4.5-5.3c-0.5-0.2-1-0.1-1.5-0.4c-1-0.5-1-1.3-2-1.8c-1-0.7-1.6-1-2.8-1
		s-1.7,0.3-2.7,1c-0.4,0.2-0.5,0.6-0.8,0.6c-1.2,0-1.9-0.6-3-0.6c-0.8,0-1.5,0.2-2.2,0.6c-0.7,0.3-1.2,0.9-1.5,1.1l-1-0.5
		c-0.9-0.4-1.5-0.4-2.5-0.4c-2.1,0-3.3,0.8-4.6,2.4c-0.4,0.4-0.6,1-1.2,1.4c-1.1,0.9-2.1,0.5-3.1,1.5c-0.6,0.6-1.1,0.9-1.6,1.6
		c-0.3,0.4-0.2,1.1-0.7,1.4c-0.5,0.3-1.3,0-1.8,0.3c-2,1.2-3,2.7-3,4.9c0,7.5,5.8,10.2,10.5,16c2.1,2.7,4,4.5,4,7.9
		c0,0.9-0.3,1.5-0.7,2.3c-0.8-1.3-1.4-2.7-2.9-2.7c-2.1,0-3.6,2-3.6,4c0,0.5,0.3,0.8,0.3,1.3s-0.7-0.2-1.1-0.4
		c-0.9-0.5-1.8-0.7-2.8-0.8l-2-0.1c-2.5,0-3.9,0.7-6.2,1.7c-2.8,1.2-4,2.6-5.8,4.9c-3.1,3.9-4,6.9-4.6,11.9c-0.2,2.6,0.1,5.3,1,7.8
		C225.6,219.9,225.9,221.1,227.1,222.7z M234.3,270.2c-1,0-1.8-1-1.8-2.2c0-1.3,0.8-2.3,1.8-2.3s1.7,1,1.7,2.3
		C236,269.2,235.2,270.2,234.3,270.2z M266.5,302.3h-0.3l-1.6-0.5l-1.2-0.4v-0.1c0.1-0.4,0.8,0,1.1-1l1.7-5.5c0.3-1-0.9-1-0.8-1.5
		c0.1-0.1,0.4,0,0.4,0c0.4,0.1,0.8,0.4,1.2,0.4l1.3,0.4c0.2,0.1,0.3,0.1,0.2,0.3c0,0.4-0.7-0.3-1,0.8l-1.7,5.4
		C265.3,302,266.7,301.9,266.5,302.3z M274.5,298.3c-0.1,0.6-0.5,1-1,1.3c-0.4,0.1-0.8,0.1-0.8,0.3l0.7,3.6c0,0.3,0.3,0.3,0.3,0.3
		h0.3l0.2,0.2c-0.2,0.4-0.9,0.4-1.4,0.4c-0.7-0.3-0.8-1.1-1-2l-0.3-2c-0.1-0.5-0.2-0.7-0.8-0.8c-0.5-0.2-0.5-0.1-0.6,0.3l-0.6,2
		c-0.3,1.2,0.8,1,0.7,1.5h-0.4l-0.8-0.3l-1.6-0.4c-0.1-0.1-0.3-0.1-0.3-0.3c0.1-0.4,0.8,0.2,1.3-1.2h-0.1l1.5-5
		c0.4-1.3-0.8-1.2-0.7-1.7h0.3l1.2,0.4l2.1,0.5C274.9,296.1,274.6,297.8,274.5,298.3z M282.3,298.3l-0.1,1c0,0.2,0,0.6-0.2,0.6
		c-0.5-0.1,0.1-1.3-1-1.6l-1-0.2c-0.4-0.1-0.6-0.1-0.6,0.5l-1.3,5.2c-0.3,1.5,1,1.5,1,1.8c-0.1,0.3-0.3,0.1-0.6,0.1l-1.4-0.4
		l-1.5-0.3c-0.2,0-0.3-0.1-0.3-0.3c0.1-0.5,1.1,0.4,1.5-1v0l1.3-5.4c0.1-0.6,0-0.7-0.4-0.8l-0.9-0.2c-1.2-0.3-1.2,1.3-1.7,1.2
		c-0.2,0-0.1-0.3,0-0.4l0.5-1.5c0-0.2,0.1-0.2,0.2-0.2l3.2,0.8l3.3,0.7V298.3z M289.5,300.4l-4.2,6.6c-0.2,0.3-0.3,0.3-0.4,0.3
		c-0.1,0-0.2-0.2-0.3-0.7l-1.3-7.3c-0.1-0.5-0.2-0.7-0.7-0.9l-0.1-0.2c0.1-0.2,0.4-0.1,0.6-0.1c0.3,0.1,0.6,0.3,1,0.3l1.1,0.1
		c0.4,0.1,0.4,0.1,0.4,0.3c0,0.3-0.7,0-0.7,0.5c-0.1,0.6,0,1.2,0.1,1.8l0.7,4v0.2l0.3-0.2l2-3.3c0.5-0.7,0.6-1.1,0.6-1.3
		c0.2-1.1-0.9-0.9-0.8-1.3c0-0.2,0.3-0.1,0.4-0.1l0.9,0.3h0.9c0.2,0.1,0.4,0.1,0.4,0.3C290.3,299.9,289.9,299.8,289.5,300.4z
		 M295.4,300.9l-0.2,1.6c0,0.3,0,0.4-0.3,0.4c-0.2,0,0-2.3-1.8-2.6c-0.7,0-1.3,0.3-1.4,1c-0.1,0.9,0.4,1.1,1.7,2
		c1.1,0.8,1.7,1.4,1.4,2.9c-0.2,1.5-1.4,2.4-2.8,2.2c-0.7-0.1-1.1-0.5-1.7-0.7c-0.2-0.2-0.2-0.2-0.2-0.5H290v-1.7
		c0-0.2,0-0.5,0.2-0.5s0.2,0.1,0.2,0.3c0.2,1.2,0.6,2.4,1.8,2.6c0.8,0.1,1.6-0.3,1.7-1.3c0.2-1-0.4-1.3-2-2.4
		c-0.8-0.6-1.4-1.2-1.2-2.4c0.2-1.3,1.3-2.2,2.5-2c0.9,0.2,1.2,0.7,1.6,0.7h0.6V300.9z M314,303.2v6.7l-0.2,0.3l-0.3-0.1l-5.1-6.3
		l-0.2-0.1l-0.1,0.1v4.2c0,2.2,1.4,1.4,1.4,2l-0.4,0.1h-2.2c-0.2,0-0.3,0.1-0.3-0.1c0-0.5,1-0.3,1-1.5v-4.6c0-1.8-0.8-1.7-1.1-1.9
		c-0.2,0.1-0.4,0.2-0.6,0.7l0-0.1l-3.5,7c-0.1,0.4-0.2,0.4-0.3,0.4l-0.4-0.7l-2.1-7.1c-0.1-0.5-0.3-0.6-0.7-0.8l-0.2-0.2
		c0.1-0.2,0.4-0.1,0.6-0.1l1,0.2h1.2c0.4,0,0.4,0,0.4,0.2c0,0.3-0.7,0.1-0.7,0.6c0,0.5,0.1,1.1,0.3,1.6l1.1,4l0.1,0.3l0.1-0.3
		l1.8-3.5c0.4-0.8,0.5-1.2,0.5-1.4c0-1.1-1-0.7-1-1.1c0-0.2,0.3-0.2,0.4-0.2l0.9,0.1h0.9c0.2,0.1,0.3,0,0.4,0.1h1.7
		c0.3,0,0.2,0,0.4,0.3l4.2,5.3l0.4,0.3l0.1-0.4v-4c0-1.1-1.3-0.9-1.3-1.3c0-0.1,0-0.2,0.2-0.2h2.3c0.3,0,0.3,0.2,0.3,0.2
		C315,302.2,314,301.9,314,303.2z M318.8,310.2H316c-0.2,0-0.2-0.2-0.2-0.2c0-0.4,0.8-0.1,0.8-1.2v-5.7c0-1.2-1.1-0.8-1.1-1.2
		c0-0.2,0.3-0.2,0.3-0.2h2.6c0.4,0,0.4,0.1,0.4,0.2c0,0.4-0.8,0-0.8,1.1l-0.1,5.7c0,1.5,1.2,0.9,1.2,1.3
		C319.1,310.2,319,310.2,318.8,310.2z M325.3,302.4h-1c-0.5,0-0.5,0-0.5,0.6v5.4c0,1.4,1.4,1.1,1.4,1.4s-0.2,0.3-0.5,0.3h-3
		c-0.2,0-0.4,0-0.4-0.2c0-0.4,1.2,0.1,1.2-1.4V303c-0.1-0.6-0.2-0.6-0.6-0.6H321c-1.2,0-0.9,1.6-1.4,1.6l-0.1-0.4l0.1-1.6l0.2-0.3
		h3.3l3.3-0.1c0.2,0,0.2,0.2,0.2,0.4l0.1,1c0,0.2,0.1,0.6-0.1,0.6C326.1,303.6,326.5,302.3,325.3,302.4z M333.8,309.5l-1.3,0.1h-1.2
		c-0.2,0.1-0.4,0.1-0.4,0c0-0.4,0.7-0.3,0.7-1l-0.2-0.8c-0.4-0.9-0.5-1-0.7-1l-2.1,0.2c-0.2,0-0.4,0-0.6,0.8l-0.2,1
		c0.1,0.9,1.3,0.6,1.3,0.9s-0.3,0.2-0.5,0.3h-2.3c-0.1-0.3,0.5-0.3,0.7-1l2.2-7.4c0.1-0.2,0.1-0.4,0.3-0.4l0.3,0.4l3.4,7
		c0.4,0.7,1,0.3,1,0.7C334.2,309.5,334.1,309.5,333.8,309.5z M342.1,302c-0.6,0.1,0-1.4-2-1.2c-1.2,0.2-1.3,0.2-1.2,1v0l0.2,1.7
		c0.1,0.5,0.1,0.6,0.6,0.5l0.7-0.1c0.9-0.1,0.7-1.2,1-1.2c0,0,0.2,0,0.2,0.3l0.3,2.1c0.1,0.1,0.2,0.5-0.1,0.5
		c-0.3,0.1-0.2-1.2-1.3-1h-0.8c-0.4,0.1-0.4,0.3-0.3,1l0.2,1.7c0.2,1.3,1.4,0.9,1.4,1.2s-0.2,0.3-0.5,0.3l-1.2,0.1l-1.4,0.1
		c-0.2,0.1-0.2,0-0.2,0c-0.1-0.5,0.8,0,0.6-1.5l-0.7-5.5c-0.1-1-1.3-0.5-1.4-1c0-0.2,0.1-0.2,0.3-0.2l2.8-0.4
		c0.7-0.1,1.4-0.3,2.4-0.3c0.2,0,0.3,0.1,0.3,0.2l0.1,1.1C342.1,301.6,342.3,302,342.1,302z M347.1,307.9c-2.1,0.4-3.8-1-4.2-3.3h0
		c-0.5-2.6,0.5-4.8,3-5.3c2.1-0.4,3.9,0.8,4.4,3.3C350.6,304.3,350.5,307.2,347.1,307.9z M357.8,305.6c-0.8,0.2-1.3-0.5-1.8-1.1
		l-1.3-1.6c-0.4-0.4-0.6-0.5-1.1-0.3c-0.6,0.1-0.4,0.1-0.4,0.5l0.5,2c0.3,1.3,1.3,0.6,1.3,1c0,0.1,0,0.2-0.2,0.2l-1,0.2
		c-0.6,0.1-1,0.4-1.6,0.4c-0.1,0.1-0.3,0.2-0.4-0.1c0-0.3,0.9-0.2,0.5-1.6v0l-1.2-5.2c-0.3-1.2-1.4-0.5-1.4-1
		c-0.1-0.1,0-0.2,0.2-0.2l1.2-0.2l2.1-0.6c2.3-0.5,2.9,1.1,3,1.6c0.2,0.7,0,1.2-0.2,1.6l-0.5,0.6l2.4,2.9c0.1,0.1,0.4,0,0.4,0
		l0.3-0.1l0.2,0.1C358.8,305.1,358.3,305.5,357.8,305.6z M363.5,304.2l-1.5,0.3l-1.4,0.5c-0.2,0-0.5,0.1-0.5-0.2
		c-0.1-0.4,1.2-0.2,0.9-1.6h0l-1.4-5.3c-0.1-0.5-0.3-0.6-0.7-0.5l-0.8,0.2c-1.3,0.3-0.5,1.8-1,1.9c-0.3,0-0.3-0.2-0.3-0.4l-0.1-1.6
		v-0.3l3.2-0.7l3.2-0.9c0.2-0.1,0.2,0.2,0.2,0.2l0.4,1c0,0.2,0.3,0.7,0,0.7c-0.4,0.1-0.4-1.3-1.5-0.9l-1,0.2
		c-0.3,0.1-0.5,0.2-0.3,0.7l1.3,5.3c0.4,1.4,1.7,0.7,1.7,1C364,304.2,363.8,304.2,363.5,304.2z M369.2,302.6l-1.6,0.4l-1.1,0.3
		c-0.2,0.1-0.2,0-0.2-0.1c-0.1-0.3,0.7-0.3,0.5-1.3l-1.6-5.6c-0.3-1-1.4-0.4-1.5-0.8c0-0.2,0.3-0.2,0.3-0.2l1.2-0.3l1.4-0.4h0.3
		c0.2,0.4-0.7,0.3-0.4,1.3v0l1.5,5.5c0.4,1.4,1.4,0.6,1.5,0.9C369.5,302.5,369.5,302.6,369.2,302.6z M373.5,301.3
		c-2.1,0.7-4-0.4-4.7-2.7c-0.9-2.5-0.1-4.8,2.3-5.7c2-0.6,4,0.3,4.8,2.7C376.5,297.2,376.7,300.2,373.5,301.3z M378.1,290.5
		c2.1-0.8,3,0.6,3.1,1.2c0.2,0.5,0.2,1.1,0,1.6l-0.4,0.7l2.8,2.5h0.5l0.2-0.2l0.2,0.1c0.2,0.3-0.4,0.8-0.7,1c-0.9,0.3-1.5-0.3-2-0.8
		l-1.6-1.4c-0.4-0.4-0.6-0.5-1.1-0.3s-0.5,0.3-0.3,0.7l0.8,1.9c0.4,1.2,1.2,0.4,1.4,0.8c0,0.1,0,0.2-0.2,0.3l-0.9,0.2l-1.5,0.7
		c-0.2,0-0.4,0.2-0.4-0.1c-0.2-0.3,0.8-0.3,0.2-1.7l0.1,0.1l-2-5c-0.5-1.2-1.4-0.4-1.6-0.8l0.2-0.2l1.2-0.4L378.1,290.5z M374.9,271
		l-0.2,2.4l0,0.1c-0.2,1.5-0.7,2.9-1.4,4.2c-1,1.5-0.6,1.5-2.8,3.8c-2.3,2.3-5.2,3.8-8.3,4.5c-4.2,1.1-7.1,1.2-10.6,1
		c-2.8-0.1-4.8-0.4-6.6-0.6c-2.4-0.4-4.3-0.6-7-0.6c-1.3-0.1-2.6-0.1-4,0c-4,0.5-7.9,1.4-11.7,2.7v-54.9h52.6V271z M344.7,175.5h7.8
		h7.2h7.9h7.3V228h-7.3h-7.9h-7.2h-7.8h-7.2h-7.8h-7.4v-52.5h7.4h7.8H344.7z M308.3,149.8c1.9,0,2.3,1.1,4.6,2.3c2,1.3,4.3,2,6.7,2
		c2.4,0,4.7-0.7,6.7-2c2.3-1.2,2.8-2.3,4.6-2.3c0.7,0,2.4,0.1,2.4,1.8l0,0.1c0,0.6-0.2,0.7-0.2,1l-0.2-0.1v-0.9
		c-0.3-0.6-0.7-1-1.3-1c-1.8,0-2.5,1.3-4.8,2.5c-2,1.3-4.4,2-6.8,2c-2.5-0.1-3.7-0.4-6.7-2c-2.3-1.2-3-2.4-4.8-2.4
		c-0.6,0-1.2,0.3-1.6,0.8c-0.4,0.5-0.5,0.9-0.5,1.7l-0.3-0.2v-0.9c0,0,0,0,0,0C306,150.9,307,149.9,308.3,149.8z M271.9,157.9
		l0.1-0.1c0.1-0.9,0.5-1.8,1.4-1.8c0.2,0,0.3,0,0.5,0l2.8-2.7l0.7,0.5l0.8,0.8l0.5,1l0.2,0.8v1.9l-0.2,0.8l-0.5,0.6l-0.6,0.6
		l-0.9,0.5l-1,0.2l-1,0.2l-1-0.5l-0.9-0.6l-0.5-0.8l-0.4-1V157.9z M264.1,175.6h52.5V228h-52.5V175.6z M264.1,233.7h6.3v-0.1h5.9
		v0.1h5.8v-0.1h5.8v0.1h5.9v-0.1h5.8v0.1h5.9v-0.1h5.8v0.1h5.4v54.7c0,0-3.5-1.3-7-2c-1.7-0.3-3.2-0.6-4.7-0.6
		c-3.7-0.1-7.4,0.1-11,0.6c-1.8,0.3-3.9,0.6-6.6,0.7c-1.6,0.1-3.2,0.1-4.7-0.1c-0.2,0-0.4,0-0.6,0v0c-3.3-0.3-6.6-1.2-9.7-2.5
		c-1.5-0.7-2.8-1.7-4-2.9c-2.1-2.4-1.7-2.3-2.7-3.8c-0.9-1.7-1.3-3.3-1.4-4.3l0-0.1l-0.2-2.4V233.7z M258.5,290.6l1,0.5
		c0.6,0.3,0.9,0.3,1.1,0.3c0.3,0.1,0.3,0.2,0.3,0.3c-0.1,0.4-0.7,0-0.9,0.4l-0.1,1.8v4.3l0.2-0.1l2.6-3c0.3-0.3,0.6-0.8,0.8-1.2
		c0.4-1-0.7-1-0.6-1.4c0.1-0.2,0.4,0,0.5,0l0.8,0.4l0.9,0.2c0.3,0.1,0.3,0.1,0.3,0.3c-0.1,0.3-0.5,0.1-1,0.6v0l-5.3,5.7
		c-0.2,0.3-0.3,0.3-0.4,0.3c-0.1-0.1-0.2-0.2-0.2-0.7v-7.4c0-0.6-0.1-0.8-0.5-1l-0.1-0.3C258,290.4,258.3,290.6,258.5,290.6z
		 M250.5,283.1c1.4,0,2.5,1.1,2.5,2.5c0,1.4-1.1,2.5-2.5,2.5c-1.4,0-2.5-1.1-2.5-2.5C248,284.2,249.1,283.1,250.5,283.1z M243,221.8
		c1,0,1.7,0.8,1.7,1.8s-0.7,1.8-1.7,1.8s-1.7-0.8-1.7-1.8S242.1,221.8,243,221.8z"/>
	<path fill="#C7B37F" d="M378.3,294.4c0.1,0.2,0.5,0,0.8,0c1.5-0.6,1.3-1.3,1.1-1.9c-0.4-1.1-1.4-1.7-2.4-1.4
		c-0.4,0.2-0.6,0.3-0.4,1L378.3,294.4z"/>
	<path fill="#C7B37F" d="M272.1,295.8c-0.4-0.1-0.7-0.2-0.9,0.4v0.1l-0.7,2.3c-0.1,0.3,0.3,0.4,0.6,0.5c1.6,0.4,1.8-0.2,2-0.8
		C273.5,297.1,273.1,296.1,272.1,295.8z"/>
	<path fill="#C7B37F" d="M345.7,299.9c-1.7,0.3-2,2.1-1.7,3.7v0.1c0.3,1.6,1.4,4,3.3,3.6c1.8-0.4,2.1-2,1.8-4
		C348.7,300.7,347.1,299.6,345.7,299.9z"/>
	<path fill="#C7B37F" d="M330.4,305.6l-1-2.1l-0.2-0.1v0.2l-0.7,2.2l-0.1,0.5h0.4l0-0.1h1.4c0.2,0,0.4,0,0.4-0.2L330.4,305.6z"/>
	<path fill="#C7B37F" d="M272.8,160.1l0.9,0.6l1,0.5l1-0.2l1-0.2l0.9-0.5l0.6-0.6l0.5-0.6l0.2-0.8v-1.9l-0.2-0.8l-0.5-1l-0.8-0.8
		l-0.7-0.5l-2.8,2.7c0.7,0.1,1.3,0.7,1.3,1.6c0,1-0.5,2-1.4,2c-0.9,0.1-1.6-0.6-1.8-1.6c0-0.1,0-0.1,0-0.2l-0.1,0.1v0.4l0.4,1
		L272.8,160.1z"/>
	<circle fill="#C7B37F" cx="250.5" cy="285.6" r="2.5"/>
	<path fill="#C7B37F" d="M234.3,265.7c-1,0-1.8,1-1.8,2.3c0,1.2,0.8,2.2,1.8,2.2c0.9,0,1.7-1,1.7-2.2
		C236,266.7,235.3,265.7,234.3,265.7z"/>
	<path fill="#C7B37F" d="M243,225.4c1,0,1.7-0.8,1.7-1.8s-0.7-1.8-1.7-1.8c-0.9,0-1.7,0.8-1.7,1.8S242,225.4,243,225.4z"/>
	<path fill="#C7B37F" d="M273.8,159.6c0.9,0,1.4-1,1.4-2c-0.1-0.8-0.6-1.4-1.3-1.6c-0.1,0-0.3,0-0.5,0c-0.8,0-1.3,0.9-1.4,1.8
		c0,0.1,0,0.1,0,0.2C272.2,159,272.9,159.7,273.8,159.6z"/>
	<path fill="#703D29" d="M306.1,153.1l0.3,0.2c0-0.8,0.1-1.2,0.5-1.7c0.4-0.5,1-0.8,1.6-0.8c1.8,0,2.5,1.2,4.8,2.4
		c3,1.6,4.2,1.9,6.7,2c2.4,0,4.8-0.7,6.8-2c2.3-1.2,3-2.5,4.8-2.5c0.6,0,1,0.4,1.3,1v0.9l0.2,0.1c0-0.3,0.2-0.4,0.2-1l0-0.1
		c0-1.7-1.7-1.8-2.4-1.8c-1.8,0-2.3,1.1-4.6,2.3c-2,1.3-4.3,2-6.7,2c-2.4,0-4.7-0.7-6.7-2c-2.3-1.2-2.7-2.3-4.6-2.3
		c-1.3,0.1-2.3,1.1-2.2,2.4c0,0,0,0,0,0V153.1z"/>
	<path fill="#703D29" d="M258.5,291.9v7.4c0,0.5,0.1,0.6,0.2,0.7c0.1,0,0.2,0,0.4-0.3l5.3-5.7v0c0.5-0.5,0.9-0.3,1-0.6
		c0-0.2,0-0.2-0.3-0.3l-0.9-0.2l-0.8-0.4c-0.1,0-0.4-0.2-0.5,0c-0.1,0.4,1,0.4,0.6,1.4c-0.2,0.4-0.5,0.9-0.8,1.2l-2.6,3l-0.2,0.1
		v-4.3l0.1-1.8c0.2-0.4,0.8,0,0.9-0.4c0-0.1,0-0.2-0.3-0.3c-0.2,0-0.5,0-1.1-0.3l-1-0.5c-0.2,0-0.5-0.2-0.6,0l0.1,0.3
		C258.4,291.1,258.5,291.3,258.5,291.9z"/>
	<path fill="#703D29" d="M267.5,295.2c0.3-1.1,1-0.4,1-0.8c0.1-0.2,0-0.2-0.2-0.3l-1.3-0.4c-0.4,0-0.8-0.3-1.2-0.4
		c0,0-0.3-0.1-0.4,0c-0.1,0.5,1.1,0.5,0.8,1.5l-1.7,5.5c-0.3,1-1,0.6-1.1,1v0.1l1.2,0.4l1.6,0.5h0.3c0.2-0.4-1.2-0.3-0.7-1.7
		L267.5,295.2z"/>
	<path fill="#703D29" d="M272.7,295.4l-2.1-0.5l-1.2-0.4h-0.3c-0.1,0.5,1.1,0.4,0.7,1.7l-1.5,5h0.1c-0.5,1.4-1.2,0.8-1.3,1.2
		c0,0.2,0.2,0.2,0.3,0.3l1.6,0.4l0.8,0.3h0.4c0.1-0.5-1-0.3-0.7-1.5l0.6-2c0.1-0.4,0.1-0.5,0.6-0.3c0.6,0.1,0.7,0.3,0.8,0.8l0.3,2
		c0.2,0.9,0.3,1.7,1,2c0.5,0,1.2,0,1.4-0.4l-0.2-0.2h-0.3c0,0-0.3,0-0.3-0.3l-0.7-3.6c0-0.2,0.4-0.2,0.8-0.3c0.5-0.3,0.9-0.7,1-1.3
		C274.6,297.8,274.9,296.1,272.7,295.4z M273.1,298.3c-0.2,0.6-0.4,1.2-2,0.8c-0.3-0.1-0.7-0.2-0.6-0.5l0.7-2.3v-0.1
		c0.2-0.6,0.5-0.5,0.9-0.4C273.1,296.1,273.5,297.1,273.1,298.3z"/>
	<path fill="#703D29" d="M306.4,301.8l0.2-0.1h0.1c0-0.1-0.2,0-0.4-0.1h-0.9l-0.9-0.1c-0.1,0-0.4,0-0.4,0.2c0,0.4,1,0,1,1.1
		c0,0.2-0.1,0.6-0.5,1.4l-1.8,3.5l-0.1,0.3l-0.1-0.3l-1.1-4c-0.2-0.5-0.3-1.1-0.3-1.6c0-0.5,0.7-0.3,0.7-0.6c0-0.2,0-0.2-0.4-0.2
		h-1.2l-1-0.2c-0.2,0-0.5-0.1-0.6,0.1l0.2,0.2c0.4,0.2,0.6,0.3,0.7,0.8l2.1,7.1l0.4,0.7c0.1,0,0.2,0,0.3-0.4l3.5-7l0,0.1
		c0.2-0.4,0.5-0.6,0.6-0.7C306.5,302,306.4,301.9,306.4,301.8z"/>
	<path fill="#703D29" d="M290.4,299.7c0-0.2-0.2-0.2-0.4-0.3h-0.9l-0.9-0.3c-0.1,0-0.4-0.1-0.4,0.1c-0.1,0.4,1,0.2,0.8,1.3
		c0,0.2-0.1,0.6-0.6,1.3l-2,3.3l-0.3,0.2v-0.2l-0.7-4c-0.1-0.6-0.2-1.2-0.1-1.8c0-0.5,0.7-0.2,0.7-0.5c0-0.2,0-0.2-0.4-0.3l-1.1-0.1
		c-0.4,0-0.7-0.2-1-0.3c-0.2,0-0.5-0.1-0.6,0.1l0.1,0.2c0.5,0.2,0.6,0.4,0.7,0.9l1.3,7.3c0.1,0.5,0.2,0.7,0.3,0.7
		c0.1,0,0.2,0,0.4-0.3l4.2-6.6C289.9,299.8,290.3,299.9,290.4,299.7z"/>
	<path fill="#703D29" d="M275.8,296.4c-0.1,0-0.2,0-0.2,0.2l-0.5,1.5c-0.1,0.1-0.2,0.4,0,0.4c0.5,0.1,0.5-1.5,1.7-1.2l0.9,0.2
		c0.4,0.1,0.5,0.2,0.4,0.8l-1.3,5.4v0c-0.4,1.4-1.4,0.5-1.5,1c0,0.2,0.1,0.3,0.3,0.3l1.5,0.3l1.4,0.4c0.3,0,0.5,0.2,0.6-0.1
		c0-0.3-1.3-0.3-1-1.8l1.3-5.2c0-0.6,0.2-0.6,0.6-0.5l1,0.2c1.1,0.3,0.5,1.5,1,1.6c0.2,0,0.2-0.4,0.2-0.6l0.1-1v-0.4l-3.3-0.7
		L275.8,296.4z"/>
	<path fill="#703D29" d="M293.2,299.8c-1.2-0.2-2.3,0.7-2.5,2c-0.2,1.2,0.4,1.8,1.2,2.4c1.6,1.1,2.2,1.4,2,2.4
		c-0.1,1-0.9,1.4-1.7,1.3c-1.2-0.2-1.6-1.4-1.8-2.6c0-0.2,0-0.3-0.2-0.3s-0.2,0.3-0.2,0.5v1.7h0.1c0,0.3,0,0.3,0.2,0.5
		c0.6,0.2,1,0.6,1.7,0.7c1.4,0.2,2.6-0.7,2.8-2.2c0.3-1.5-0.3-2.1-1.4-2.9c-1.3-0.9-1.8-1.1-1.7-2c0.1-0.7,0.7-1,1.4-1
		c1.8,0.3,1.6,2.6,1.8,2.6c0.3,0,0.3-0.1,0.3-0.4l0.2-1.6v-0.4h-0.6C294.4,300.5,294.1,300,293.2,299.8z"/>
	<path fill="#703D29" d="M333.2,308.6l-3.4-7l-0.3-0.4c-0.2,0-0.2,0.2-0.3,0.4L327,309c-0.2,0.7-0.8,0.7-0.7,1h2.3
		c0.2-0.1,0.5,0,0.5-0.3s-1.2,0-1.3-0.9l0.2-1c0.2-0.8,0.4-0.8,0.6-0.8l2.1-0.2c0.2,0,0.3,0.1,0.7,1l0.2,0.8c0,0.7-0.7,0.6-0.7,1
		c0,0.1,0.2,0.1,0.4,0h1.2l1.3-0.1c0.3,0,0.4,0,0.4-0.2C334.2,308.9,333.6,309.3,333.2,308.6z M330.2,306.2h-1.4l0,0.1h-0.4l0.1-0.5
		l0.7-2.2v-0.2l0.2,0.1l1,2.1l0.2,0.4C330.6,306.2,330.4,306.2,330.2,306.2z"/>
	<path fill="#703D29" d="M314.7,301.7h-2.3c-0.2,0-0.2,0.1-0.2,0.2c0,0.4,1.3,0.2,1.3,1.3v4l-0.1,0.4l-0.4-0.3l-4.2-5.3
		c-0.2-0.3-0.1-0.3-0.4-0.3h-1.7h-0.1l-0.2,0.1c0,0.1,0.1,0.2,0.1,0.2c0.3,0.2,1.1,0,1.1,1.9v4.6c0,1.2-1,1-1,1.5
		c0,0.2,0.1,0.1,0.3,0.1h2.2l0.4-0.1c0-0.6-1.4,0.2-1.4-2v-4.2l0.1-0.1l0.2,0.1l5.1,6.3l0.3,0.1l0.2-0.3v-6.7c0-1.3,1-1,1-1.3
		C315,301.9,315,301.7,314.7,301.7z"/>
	<path fill="#703D29" d="M374.7,292c0.2,0.4,1.1-0.4,1.6,0.8l2,5l-0.1-0.1c0.6,1.4-0.4,1.4-0.2,1.7c0,0.3,0.2,0.1,0.4,0.1l1.5-0.7
		l0.9-0.2c0.2-0.1,0.2-0.2,0.2-0.3c-0.2-0.4-1,0.4-1.4-0.8l-0.8-1.9c-0.2-0.4-0.2-0.5,0.3-0.7s0.7-0.1,1.1,0.3l1.6,1.4
		c0.5,0.5,1.1,1.1,2,0.8c0.3-0.2,0.9-0.7,0.7-1l-0.2-0.1l-0.2,0.2h-0.5l-2.8-2.5l0.4-0.7c0.2-0.5,0.2-1.1,0-1.6
		c-0.1-0.6-1-2-3.1-1.2l-2,0.9l-1.2,0.4L374.7,292z M377.8,291.1c1-0.3,2,0.3,2.4,1.4c0.2,0.6,0.4,1.3-1.1,1.9c-0.3,0-0.7,0.2-0.8,0
		l-0.9-2.3C377.2,291.4,377.4,291.3,377.8,291.1z"/>
	<path fill="#703D29" d="M317.9,308.7l0.1-5.7c0-1.1,0.8-0.7,0.8-1.1c0-0.1,0-0.2-0.4-0.2h-2.6c0,0-0.3,0-0.3,0.2
		c0,0.4,1.1,0,1.1,1.2v5.7c0,1.1-0.8,0.8-0.8,1.2c0,0,0,0.2,0.2,0.2h2.8c0.2,0,0.3,0,0.3-0.2C319.1,309.6,317.9,310.2,317.9,308.7z"
		/>
	<path fill="#703D29" d="M342,300.3c0-0.1-0.1-0.2-0.3-0.2c-1,0-1.7,0.2-2.4,0.3l-2.8,0.4c-0.2,0-0.3,0-0.3,0.2c0.1,0.5,1.3,0,1.4,1
		l0.7,5.5c0.2,1.5-0.7,1-0.6,1.5c0,0,0,0.1,0.2,0l1.4-0.1l1.2-0.1c0.3,0,0.5,0,0.5-0.3s-1.2,0.1-1.4-1.2l-0.2-1.7
		c-0.1-0.7-0.1-0.9,0.3-1h0.8c1.1-0.2,1,1.1,1.3,1c0.3,0,0.2-0.4,0.1-0.5l-0.3-2.1c0-0.3-0.2-0.3-0.2-0.3c-0.3,0-0.1,1.1-1,1.2
		l-0.7,0.1c-0.5,0.1-0.5,0-0.6-0.5l-0.2-1.7v0c-0.1-0.8,0-0.8,1.2-1c2-0.2,1.4,1.3,2,1.2c0.2,0,0-0.4,0-0.6L342,300.3z"/>
	<path fill="#703D29" d="M326.6,303.6c0.2,0,0.1-0.4,0.1-0.6l-0.1-1c0-0.2,0-0.4-0.2-0.4l-3.3,0.1h-3.3l-0.2,0.3l-0.1,1.6l0.1,0.4
		c0.5,0,0.2-1.6,1.4-1.6h0.9c0.4,0,0.5,0,0.6,0.6v5.5c0,1.5-1.2,1-1.2,1.4c0,0.2,0.2,0.2,0.4,0.2h3c0.3,0,0.5,0,0.5-0.3
		s-1.4,0-1.4-1.4V303c0-0.6,0-0.6,0.5-0.6h1C326.5,302.3,326.1,303.6,326.6,303.6z"/>
	<path fill="#703D29" d="M368,301.4l-1.5-5.5v0c-0.3-1,0.6-0.9,0.4-1.3h-0.3l-1.4,0.4l-1.2,0.3c0,0-0.3,0-0.3,0.2
		c0.1,0.4,1.2-0.2,1.5,0.8l1.6,5.6c0.2,1-0.6,1-0.5,1.3c0,0.1,0,0.2,0.2,0.1l1.1-0.3l1.6-0.4c0.3,0,0.3-0.1,0.3-0.3
		C369.4,302,368.4,302.8,368,301.4z"/>
	<path fill="#703D29" d="M371.1,292.9c-2.4,0.9-3.2,3.2-2.3,5.7c0.7,2.3,2.6,3.4,4.7,2.7c3.2-1.1,3-4.1,2.4-5.7
		C375.1,293.2,373.1,292.3,371.1,292.9z M373.6,300.7c-1.8,0.6-3.2-1.5-3.8-3.2v0.1c-0.6-1.7-0.6-3.5,1.1-4c1.3-0.5,3,0.4,3.9,2.9
		C375.4,298.3,375.3,300.1,373.6,300.7z"/>
	<path fill="#703D29" d="M362.2,302.8l-1.3-5.3c-0.2-0.5,0-0.6,0.3-0.7l1-0.2c1.1-0.4,1.1,1,1.5,0.9c0.3,0,0-0.5,0-0.7l-0.4-1
		c0,0,0-0.3-0.2-0.2l-3.2,0.9l-3.2,0.7v0.3l0.1,1.6c0,0.2,0,0.4,0.3,0.4c0.5-0.1-0.3-1.6,1-1.9l0.8-0.2c0.4-0.1,0.6,0,0.7,0.5
		l1.4,5.3h0c0.3,1.4-1,1.2-0.9,1.6c0,0.3,0.3,0.2,0.5,0.2l1.4-0.5l1.5-0.3c0.3,0,0.5,0,0.4-0.4C363.9,303.5,362.6,304.2,362.2,302.8
		z"/>
	<path fill="#703D29" d="M345.9,299.3c-2.5,0.5-3.5,2.7-3,5.3h0c0.4,2.3,2.1,3.7,4.2,3.3c3.4-0.7,3.5-3.6,3.2-5.3
		C349.8,300.1,348,298.9,345.9,299.3z M347.3,307.3c-1.9,0.4-3-2-3.3-3.6v-0.1c-0.3-1.6,0-3.4,1.7-3.7c1.4-0.3,3,0.8,3.4,3.4
		C349.4,305.3,349.1,306.9,347.3,307.3z"/>
	<path fill="#703D29" d="M358.3,304.7c0,0-0.3,0.1-0.4,0l-2.4-2.9l0.5-0.6c0.2-0.4,0.4-0.9,0.2-1.6c-0.1-0.5-0.7-2.1-3-1.6l-2.1,0.6
		l-1.2,0.2c-0.2,0-0.3,0.1-0.2,0.2c0,0.5,1.1-0.2,1.4,1l1.2,5.2v0c0.4,1.4-0.5,1.3-0.5,1.6c0.1,0.3,0.3,0.2,0.4,0.1
		c0.6,0,1-0.3,1.6-0.4l1-0.2c0.2,0,0.2-0.1,0.2-0.2c0-0.4-1,0.3-1.3-1l-0.5-2c0-0.4-0.2-0.4,0.4-0.5c0.5-0.2,0.7-0.1,1.1,0.3
		l1.3,1.6c0.5,0.6,1,1.3,1.8,1.1c0.5-0.1,1-0.5,1-0.9l-0.2-0.1L358.3,304.7z M353.7,302c-0.3,0-0.7,0.1-0.8-0.2l-0.5-2.3h-0.1
		c-0.1-0.7,0.2-0.8,0.6-0.9c1-0.2,1.8,0.5,2.1,1.6C355.2,300.9,355.3,301.6,353.7,302z"/>
	<path fill="#D52B1E" d="M281.6,222.8c2.2-0.4,3.2-3.6,3.2-5c-0.7,0.2-1.5,0.5-2.3,0.8c-0.7-1.5-1.3-2.9-1.8-4.2l-3.9,4.2
		C277.7,221,278.8,223.3,281.6,222.8z"/>
	<path fill="#D52B1E" d="M316.7,175.6h-52.5V228h52.5V175.6z M314.9,217.7c-0.8,4.2-4.8,4.7-4.8,4.7l-1.9-2.4c0,0,1.8-0.6,2.6-1.8
		c0.7-1.2,0.7-2.3-0.2-2.9c-1.6-1.3-4,0.6-4.8,3.8c-0.8,3.1-2.4,6.9-5.9,7.2c-1.3,0.1-2.6-0.3-3.8-1c-1-0.7-1.8-1.5-2.4-2.6
		c-0.6-0.8-0.6-0.8-1.2-2.6c-0.5-1.5-0.5-3.3-0.5-3.4c-0.5,0-1-0.1-1.6-0.1c-0.6,0-1.1,0-1.7,0.1c0,0.1,0,1.9-0.5,3.4
		c-0.6,1.7-0.6,1.7-1.2,2.6c-0.6,1-1.5,1.9-2.4,2.6c-1.3,0.8-2.6,1.2-3.8,1c-3.1-0.2-4.7-3.3-5.6-6.1l-5.7,6.1l-2-1.9l2.1-2.3
		c-1.3-0.5-3.2-1.6-3.7-4.4c-0.3-1.6,0.4-4.5,3.1-5.4c3.4-1.2,5.5,1.3,6.6,3.3c0,0,0,0,0,0l3.9-4.2c-3.5-8.8-4.6-14.3-4.6-14.3h-0.1
		l15.6-19.8l9.4,12.1l2.1-2.3c0,0,1-0.8,1-2.2l-1.4,0.3l-0.3-0.8l-0.1-0.7l1.9-0.4v-0.8l0.2-0.8l-2,0.1l0.2-0.9l0.3-0.6l1.2-0.3h1.2
		c1.2-2.2,5.9-4.1,9.2-0.6c2.4,2.6,1.9,7.2-1.3,8.4c-1.5,0.6-3.2,0.4-4.4-0.7l1.3-2.6c1.7,1.1,3.2-0.2,3.1-1.5
		c-0.1-1.7-1.3-2.8-2.8-2.9c-1.5-0.1-2.6,0.6-3.2,1.9c-0.4,0.8-0.2,1.4-0.3,2.3c-0.1,1,0,1.5-0.3,2.4c-0.3,0.9-0.8,1.7-1.5,2.3
		l-2.4,2.6l4.3,5.5c-1.8,7.4-4.3,14.6-7.6,21.4c-0.9-0.3-1.6-0.6-2.3-0.9l0,0c0,1.5,1,4.6,3.2,5.1c4,0.8,4.6-4.4,6-7.2
		c1.1-2,3.2-4.5,6.6-3.3C314.5,213.2,315.3,216.1,314.9,217.7z"/>
	<path fill="#D52B1E" d="M270.1,215.4c-0.9,0.6-0.9,1.8-0.2,2.9c0.5,0.7,1.3,1.2,1.9,1.5l2.3-2.5C273,215.3,271.3,214.4,270.1,215.4
		z"/>
	<path fill="#FFFFFF" d="M269.9,218.3c-0.7-1.2-0.7-2.3,0.2-2.9c1.2-1,2.9-0.1,4,1.9l1.5-1.6c0,0,0,0,0,0c-1.1-2-3.2-4.5-6.6-3.3
		c-2.7,0.9-3.5,3.8-3.1,5.4c0.5,2.8,2.5,4,3.7,4.4l2.2-2.4C271.2,219.5,270.4,219,269.9,218.3z"/>
	<path fill="#FFFFFF" d="M281.6,222.8c-2.8,0.5-3.9-1.8-4.8-4.2l-1.6,1.7c0.9,2.8,2.5,5.9,5.6,6.1c1.3,0.1,2.6-0.3,3.8-1
		c1-0.7,1.8-1.5,2.4-2.6c0.6-0.8,0.6-0.8,1.2-2.6c0.5-1.4,0.5-3.3,0.5-3.4c-1.4,0.1-2.6,0.4-4,0.9
		C284.8,219.2,283.8,222.3,281.6,222.8z"/>
	<path fill="#FFFFFF" d="M311.8,212.3c-3.4-1.2-5.5,1.3-6.6,3.3c-1.4,2.8-2,7.9-6,7.2c-2.2-0.4-3.2-3.6-3.2-5.1l0,0
		c-1.3-0.4-2.5-0.7-3.9-0.9c0,0,0,1.9,0.5,3.4c0.6,1.7,0.6,1.7,1.2,2.6c0.6,1,1.5,1.9,2.4,2.6c1.3,0.8,2.6,1.2,3.8,1
		c3.5-0.3,5.1-4.1,5.9-7.2c0.8-3.3,3.2-5.1,4.8-3.8c0.9,0.6,0.9,1.8,0.2,2.9c-0.8,1.2-2.6,1.8-2.6,1.8l1.9,2.4c0,0,4-0.5,4.8-4.7
		C315.3,216.1,314.5,213.2,311.8,212.3z"/>
	<path fill="#FEDF00" d="M304.1,189c0.7-0.6,1.2-1.4,1.5-2.3c0.3-1,0.2-1.5,0.3-2.4c0.1-0.9-0.1-1.5,0.3-2.3c0.6-1.3,1.7-2,3.2-1.9
		c1.5,0.1,2.6,1.2,2.8,2.9c0.1,1.3-1.3,2.6-3.1,1.5l-1.3,2.6c1.2,1.1,2.9,1.4,4.4,0.7c3.2-1.3,3.7-5.9,1.3-8.4
		c-3.3-3.5-8.1-1.5-9.2,0.6H303l-1.2,0.3l-0.3,0.6l-0.2,0.9l2-0.1l-0.2,0.8v0.8l-1.9,0.4l0.1,0.7l0.3,0.8l1.4-0.3c0,1.3-1,2.2-1,2.2
		l-2.1,2.3l1.8,2.3L304.1,189z"/>
	<path fill="#FEDF00" d="M280.6,214.3c-0.4-1-0.8-2-1.2-2.9l-3.9,4.2l-1.5,1.6l-2.3,2.5l-2.2,2.4l-2.1,2.3l2,1.9l5.7-6.1l1.6-1.7
		L280.6,214.3z"/>
	<path fill="#FFFFFF" d="M298.3,218.6c3.3-6.9,5.8-14,7.6-21.4l-4.3-5.5l-1.8-2.3l-9.4-12.1l-15.6,19.8h0.1c0,0,1.1,5.5,4.6,14.3
		c0.4,0.9,0.8,1.9,1.2,2.9c0.6,1.3,1.2,2.8,1.8,4.2c0.9-0.3,1.6-0.6,2.3-0.8c1.3-0.4,2.5-0.8,4-0.9c0.5,0,1.1-0.1,1.7-0.1
		c0.6,0,1.1,0,1.6,0.1c1.4,0.1,2.6,0.4,3.9,0.9C296.7,217.9,297.4,218.2,298.3,218.6z M283.9,214.7c-4.4-10.1-5.8-16.8-5.8-16.8
		l10.8-13.9v29.9C287.1,214,285.6,214.3,283.9,214.7z M291.9,183.9l10.8,13.9c0,0-1.4,6.7-5.8,16.8c-1.7-0.4-3.2-0.7-5-0.8V183.9z"
		/>
	<path fill="#FEDF00" d="M302.7,197.8l-10.8-13.9v29.9c1.8,0.1,3.3,0.4,5,0.8C301.2,204.5,302.7,197.8,302.7,197.8z"/>
	<path fill="#FEDF00" d="M288.9,183.9l-10.8,13.9c0,0,1.4,6.7,5.8,16.8c1.7-0.4,3.2-0.7,5-0.8V183.9z"/>
	<rect x="337.5" y="175.5" fill="#FEDF00" width="7.2" height="52.5"/>
	<rect x="322.3" y="175.5" fill="#FEDF00" width="7.4" height="52.5"/>
	<rect x="352.5" y="175.5" fill="#FEDF00" width="7.2" height="52.5"/>
	<rect x="367.6" y="175.5" fill="#FEDF00" width="7.3" height="52.5"/>
	<rect x="359.7" y="175.5" fill="#D52B1E" width="7.9" height="52.5"/>
	<rect x="344.7" y="175.5" fill="#D52B1E" width="7.8" height="52.5"/>
	<rect x="329.7" y="175.5" fill="#D52B1E" width="7.8" height="52.5"/>
	<path fill="#FEDF00" d="M282.7,287c1.6,0.1,3.1,0.2,4.7,0.1c2.7-0.1,4.8-0.4,6.6-0.7c3.6-0.5,7.3-0.7,11-0.6c1.5,0,3,0.3,4.7,0.6
		c3.5,0.7,7,2,7,2v-54.7h-5.4v0v53c-2-0.4-3.9-0.8-5.8-1v-52h-5.9v51.8v0.2l-5.8,0.7v-52.7h-5.9V287
		C287.9,287,284.7,287.2,282.7,287z"/>
	<path fill="#FEDF00" d="M264.3,273.5c0.1,1,0.5,2.6,1.4,4.3c1,1.5,0.6,1.4,2.7,3.8c1.2,1.2,2.5,2.2,4,2.9c3.1,1.3,6.4,2.2,9.7,2.5
		v-53.3h-5.8v52.1l-3.4-1.2l-2.5-1.5v-49.4h-6.3V271l0.2,2.4L264.3,273.5z"/>
	<path fill="#D52B1E" d="M282.1,287c0.2,0,0.4,0,0.6,0c2.1,0.1,5.2,0,5.2,0v-53.3v-0.1h-5.8v0.1V287L282.1,287z"/>
	<polygon fill="#D52B1E" points="299.6,285.7 299.6,285.5 299.6,233.7 299.6,233.6 293.8,233.6 293.8,233.7 293.8,286.4 	"/>
	<polygon fill="#D52B1E" points="272.9,284.6 276.3,285.8 276.3,233.7 276.3,233.6 270.4,233.6 270.4,233.7 270.4,283.1 	"/>
	<path fill="#D52B1E" d="M311.3,286.7v-53v0v-0.1h-5.8v0.1v52C307.4,285.9,309.3,286.3,311.3,286.7z"/>
	<path fill="#FEDF00" d="M322.3,288.5c3.8-1.3,7.7-2.2,11.7-2.7c1.3-0.1,2.6-0.1,4,0c2.8,0.1,4.6,0.3,7,0.6c1.8,0.2,3.8,0.5,6.6,0.6
		c3.5,0.1,6.5,0.1,10.6-1c3.1-0.7,6-2.2,8.3-4.5c2.1-2.4,1.8-2.4,2.8-3.8c0.7-1.3,1.2-2.7,1.4-4.2l0-0.1l0.2-2.4v-37.4h-52.6V288.5z
		 M335.9,273.5c-0.2,0-0.4-0.1-0.4-0.3c0,0,0,0,0,0c0,0,0,0,0,0v-0.1c0,0,0,0,0,0c0-0.2,0.1-0.4,0.3-0.4c0.2,0,0.4,0.1,0.4,0.3
		C336.2,273.2,336.1,273.4,335.9,273.5z M337.2,272.1c0,0.3,0.1,0.4,0.3,0.6l-1.3-0.3l-0.1,0l-1.3-0.6c0.3-0.1,0.4-0.1,0.6-0.3
		c0.2-0.3,0.2-0.5,0.3-0.8c0.1-0.3,0.1-0.6,0.4-0.9c0.2-0.1,0.5-0.1,0.7-0.1c0.3,0,0.5,0.3,0.6,0.4c0,0.4-0.1,0.6-0.2,1
		C337.3,271.6,337.1,271.8,337.2,272.1z M331.1,242.2h0.4l0.2-0.1l0.8-0.6c0.2-0.3,0.4-0.4,0.6-0.6c0.2-0.3,0.3-0.4,0.4-0.6
		c0.2-0.3,0-0.4,0.2-0.6l0.4-0.3c0.1,0,0.2-0.1,0.2-0.1h-0.1c-0.3-0.3-0.3-0.5-0.4-0.8c-0.1-0.2-0.2-0.5-0.2-0.8v-0.6v-0.6
		c0-0.2,0-0.4-0.1-0.6c0-0.1-0.3-0.2-0.2-0.3c0-0.1,0.2,0,0.3,0c0.3,0,0.4,0.1,0.6,0.3c0.2,0.2,0.3,0.4,0.4,0.6l0.3,1l0.2,0.5
		l0.3,0.4l0.4-0.1l0-0.1c0.9,0.1,1.2,0.3,1.9,0.6c0.1,0,0.1-0.1,0.2-0.1c0.1-0.2,0.1-0.3,0-0.5l-0.1-0.6l-0.1-0.6c0-0.4,0-0.6,0.3-1
		c0.1-0.2,0.4-0.4,0.5-0.4c0.1,0.1,0,0.3,0,0.5c0,0.3,0.1,0.4,0.2,0.8l0.4,0.8c0.1,0.4,0.3,0.5,0.3,0.9c0,0.3,0,0.4-0.1,0.8
		c0,0.1-0.1,0.2-0.2,0.3l0.1,0l0.5-0.4c0.2-0.1,0.5-0.2,0.8-0.2h0.6c0.2,0,0.4,0.1,0.6,0.3l-0.4,0.6c-0.3,0.3-0.2,0.4-0.4,0.7
		c-0.3,0.3-0.4,0.4-1,0.6h0.3l1.2,0.3c0,0,0,0.1,0,0.1l0,0c0.8,0,1.6-0.1,2.4-0.1c2.4-0.2,2.4-0.6,4-0.7c0.9-0.1,2.2,0.3,3.7,0.3
		l3.1-0.3c1.3-0.2,2-0.4,3.3-0.4c1.1-0.1,1.7-0.1,2.8,0c1,0.1,1.6,0,2.6,0.3c0.6,0.3,1.3,0.3,1.7,1c0.2,0.1,0.3,0.3,0.4,0.5l0.3,0.6
		v0.6c0,0.3-0.1,0.7-0.2,1c-0.4,1-0.8,1.2-1.5,1.6l-0.3,0.1c0,0.6,0,1.2,0,1.8v1.9c0,0.3,0.1,0.5,0.4,1c0.5,0.8,1.1,1,0.6,2.3
		l-0.3,1.1l-0.3,1.2l-0.4,2.9v0.4c-0.1,0.2-0.3,0.1-0.5,0.2c-0.3,0-0.1,0.6-0.3,1.1l0,0v0.3l-1,0.1c-0.3,0-0.6,0-0.8,0h-0.6
		l-0.4-0.3c0.3-0.4,0.5-1,0.9-1.2h0.1l0,0l0.3-0.3c0.3-0.3,0.6-0.6,0.7-1c0.3-0.4,0.3-0.8,0.3-1.3c0.1-0.6,0.3-0.9,0.2-1.5
		c0-0.5-0.3-0.7-0.3-1.2c-0.1-0.4,0.1-0.7-0.1-1.1c-0.1-0.4,0.2-0.4-0.8-0.9l0.1,0.6l0.1,0.4c0,0.3-0.2,0.4-0.3,0.6l-1.1,0.9
		c-0.8,0.7-1.4,1.5-1.9,2.5c-0.2,0.3-0.2,0.8-0.4,1c-0.1,0.1-0.4,0.1-0.6,0.1c-0.2,0.1-0.3,0.1-0.4,0.3c-0.2,0.1-0.2,0.3-0.2,0.5
		c0,0.1,0.1,0.2,0,0.2c-0.6,0.2-1.1,0.2-1.7,0.2l-0.6-0.1l-0.4-0.2c0.4-0.4,0.6-1.1,1-1.2l0.1,0l0,0c0.5-0.4,0.8-0.2,1.3-0.6
		l0.6-0.6l0.4-0.6l0.4-0.4c0.3-0.3,0.4-0.6,0.6-1c0.2-0.4,0.4-0.5,0.5-0.9l0.2-0.6c0-0.2,0-0.4,0-0.6l-0.6,0.3v0.4
		c-0.1,0.3,0,0.5-0.2,0.6c-0.1,0.1-0.3,0.1-0.4,0c-0.1,0-0.3-0.1-0.3-0.3v-0.7H356v0.4c0,0.2,0,0.3-0.1,0.4
		c-0.1,0.1-0.3,0.1-0.4,0.1l-0.2-0.2c-0.1-0.2-0.1-0.3-0.1-0.4v-0.6c-0.6-0.3-1.2-0.6-1.7-1c-2.1,0.6-4.3,0.7-6.5,0.4
		c-0.1,0.6-0.1,1-0.3,1.6c-0.1,0.5-0.3,0.8-0.4,1.4c-0.1,0.3-0.1,0.6-0.1,1c0,0.6,0,1.2,0.1,1.8c0.1,0.4,0.2,0.6,0.2,1
		c0,0.3,0.1,0.3,0,0.5c-0.1,0.1-0.3-0.1-0.6,0.1l-0.3,0.3l-0.1,0.4l0,0l0,0v0.3c-0.6,0.1-1.2,0.2-1.8,0.1H343l-0.4-0.3
		c0.3-0.4,0.5-0.9,0.8-1.1v0c0.3-0.2,0.5-0.2,0.6-0.4c0.2-0.2,0.3-0.4,0.3-0.6l0.1-1.1v-1.3l-0.1-0.4l-0.2-0.4
		c-0.2-0.3-0.1-1.6-0.1-2.2l-0.1-0.4h-0.3c-0.2,0-0.4,0.1-0.8,0l-0.8-0.3c-0.3,0.1-0.5,0-0.6-0.1l-1.3,1.2c-0.3,0.2-0.3,0.3-0.3,0.4
		c0.1,0.6,0.6,0.8,1,1.2c0.2,0.2,0.6,0.4,0.4,0.7c-0.1,0.2-0.4,0.1-0.4,0.4c-0.1,0.2,0,0.4,0.1,0.4v0.1l0.1-0.1h0.3
		c0,0.6-0.1,1.2-0.3,1.8l-0.3,0.6l-0.3,0.3c-0.3-0.5-0.7-0.8-0.8-1.2l-0.1,0c0-0.5-0.1-0.8-0.2-1.3c-0.1-0.5-0.3-0.8-0.5-1.3l-1-1.5
		c-0.6-1-0.3-1,0.2-1.8c0.3-0.5,0.7-0.8,1.1-1.2l0.2-0.2c-0.2-0.4-0.3-0.8-0.7-1c-0.2-0.1-0.6-0.8-1-2c-0.1-0.1,0-0.3,0.1-0.5
		c0-0.1,0-0.2,0.1-0.3l-0.6-0.3l-0.7-0.3h0l0.1,0v-0.1h-1.2c-0.3-0.1-0.5-0.1-0.8-0.3l-1-0.5c-0.4-0.2-0.8-0.2-1.3-0.3
		c-0.3,0.1-0.5,0.1-0.8-0.1c-0.2-0.1-0.2-0.3-0.3-0.5l-0.5-0.9l-0.2-0.4C330.8,242.6,330.9,242.3,331.1,242.2z M337.2,248.7
		c0,0.3,0.1,0.4,0.3,0.6l-1.3-0.3h-0.1l-1.3-0.6c0.3-0.1,0.4-0.1,0.6-0.3c0.2-0.3,0.2-0.5,0.3-0.8c0.1-0.3,0.1-0.6,0.4-0.9
		c0.2-0.1,0.5-0.1,0.7-0.1c0.3,0,0.5,0.3,0.6,0.4c0,0.4-0.1,0.6-0.2,1C337.3,248.2,337.1,248.4,337.2,248.7z M336.2,249.6
		c0,0.2-0.1,0.4-0.3,0.4c-0.2,0-0.4-0.1-0.4-0.3c0,0,0,0,0,0c0,0,0,0,0,0v-0.1c0,0,0,0,0,0c0-0.2,0.1-0.4,0.3-0.4
		C336,249.3,336.2,249.4,336.2,249.6z M331.1,265.6h0.4l0.2-0.1l0.8-0.6c0.2-0.3,0.4-0.4,0.6-0.6c0.2-0.3,0.3-0.4,0.4-0.6
		c0.2-0.3,0-0.4,0.2-0.6l0.4-0.3c0.1,0,0.2-0.1,0.2-0.1h-0.1c-0.3-0.3-0.3-0.5-0.4-0.8c-0.1-0.2-0.2-0.5-0.2-0.8v-0.6v-0.6
		c0-0.2,0-0.4-0.1-0.6c0-0.1-0.3-0.2-0.2-0.3c0-0.1,0.2,0,0.3,0c0.3,0,0.4,0.1,0.6,0.3c0.2,0.2,0.3,0.4,0.4,0.6l0.3,1l0.2,0.5
		l0.3,0.4l0.4-0.1l0-0.1c0.9,0.1,1.2,0.3,1.9,0.6c0.1,0,0.1-0.1,0.2-0.1c0.1-0.2,0.1-0.3,0-0.5l-0.1-0.6l-0.1-0.6c0-0.4,0-0.6,0.3-1
		c0.1-0.2,0.4-0.4,0.5-0.4c0.1,0.1,0,0.3,0,0.5c0,0.3,0.1,0.4,0.2,0.8l0.4,0.8c0.1,0.4,0.3,0.5,0.3,0.9c0,0.3,0,0.4-0.1,0.8
		c0,0.1-0.1,0.2-0.2,0.3l0.1,0l0.5-0.4c0.2-0.1,0.5-0.2,0.8-0.2h0.6c0.2,0,0.4,0.1,0.6,0.3l-0.4,0.6c-0.3,0.3-0.2,0.4-0.4,0.7
		c-0.3,0.3-0.4,0.4-1,0.6h0.3l1.2,0.3c0,0,0,0.1,0,0.1l0,0c0.8,0,1.6-0.1,2.4-0.1c2.4-0.2,2.4-0.6,4-0.7c0.9-0.1,2.2,0.3,3.7,0.3
		l3.1-0.3c1.3-0.2,2-0.4,3.3-0.4c1.1-0.1,1.7-0.1,2.8,0c1,0.1,1.6,0,2.6,0.3c0.6,0.3,1.3,0.3,1.7,1c0.2,0.1,0.3,0.3,0.4,0.5l0.3,0.6
		v0.6c0,0.3-0.1,0.7-0.2,1c-0.4,1-0.8,1.2-1.5,1.6l-0.3,0.1c0,0.6,0,1.2,0,1.8v1.9c0,0.3,0.1,0.5,0.4,1c0.5,0.8,1.1,1,0.6,2.3
		l-0.3,1.1l-0.3,1.2l-0.4,2.9v0.4c-0.1,0.2-0.3,0.1-0.5,0.2c-0.3,0-0.1,0.6-0.3,1.1l0,0v0.3l-1,0.1c-0.3,0-0.6,0-0.8,0h-0.6
		l-0.4-0.3c0.3-0.4,0.5-1,0.9-1.2h0.1l0,0l0.3-0.3c0.3-0.3,0.6-0.6,0.7-1c0.3-0.4,0.3-0.8,0.3-1.3c0.1-0.6,0.3-0.9,0.2-1.5
		c0-0.5-0.3-0.7-0.3-1.2c-0.1-0.4,0.1-0.7-0.1-1.1c-0.1-0.4,0.2-0.4-0.8-0.9l0.1,0.6l0.1,0.4c0,0.3-0.2,0.4-0.3,0.6l-1.1,0.9
		c-0.8,0.7-1.4,1.5-1.9,2.5c-0.2,0.3-0.2,0.8-0.4,1c-0.1,0.1-0.4,0.1-0.6,0.1c-0.2,0.1-0.3,0.1-0.4,0.3c-0.2,0.1-0.2,0.3-0.2,0.5
		c0,0.1,0.1,0.2,0,0.2c-0.6,0.2-1.1,0.2-1.7,0.2l-0.6-0.1l-0.4-0.2c0.4-0.4,0.6-1.1,1-1.2l0.1,0l0,0c0.5-0.4,0.8-0.2,1.3-0.6
		l0.6-0.6l0.4-0.6l0.4-0.4c0.3-0.3,0.4-0.6,0.6-1c0.2-0.4,0.4-0.5,0.5-0.9l0.2-0.6c0-0.2,0-0.4,0-0.6l-0.6,0.3v0.4
		c-0.1,0.3,0,0.5-0.2,0.6c-0.1,0.1-0.3,0.1-0.4,0c-0.1,0-0.3-0.1-0.3-0.3V276H356v0.4c0,0.2,0,0.3-0.1,0.4s-0.3,0.1-0.4,0.1
		l-0.2-0.2c-0.1-0.2-0.1-0.3-0.1-0.4v-0.6c-0.6-0.3-1.2-0.6-1.7-1c-2.1,0.6-4.3,0.7-6.5,0.4c-0.1,0.6-0.1,1-0.3,1.6
		c-0.1,0.5-0.3,0.8-0.4,1.4c-0.1,0.3-0.1,0.6-0.1,1c0,0.6,0,1.2,0.1,1.8c0.1,0.4,0.2,0.6,0.2,1c0,0.3,0.1,0.3,0,0.5
		c-0.1,0.1-0.3-0.1-0.6,0.1l-0.3,0.3l-0.1,0.4l0,0l0,0v0.3c-0.6,0.1-1.2,0.2-1.8,0.1H343l-0.4-0.3c0.3-0.4,0.5-0.9,0.8-1.1v0
		c0.3-0.2,0.5-0.2,0.6-0.4c0.2-0.2,0.3-0.4,0.3-0.6l0.1-1.1v-1.3l-0.1-0.4l-0.2-0.4c-0.2-0.3-0.1-1.6-0.1-2.2l-0.1-0.4h-0.3
		c-0.2,0-0.4,0.1-0.8,0l-0.8-0.3c-0.3,0.1-0.5,0-0.6-0.1l-1.3,1.2c-0.3,0.2-0.3,0.3-0.3,0.4c0.1,0.6,0.6,0.8,1,1.2
		c0.2,0.2,0.6,0.4,0.4,0.7c-0.1,0.2-0.4,0.1-0.4,0.4c-0.1,0.2,0,0.4,0.1,0.4v0.1l0.1-0.1h0.3c0,0.6-0.1,1.2-0.3,1.8l-0.3,0.6
		l-0.3,0.3c-0.3-0.5-0.7-0.8-0.8-1.2l-0.1,0c0-0.5-0.1-0.8-0.2-1.3c-0.1-0.5-0.3-0.8-0.5-1.3l-1-1.5c-0.6-1-0.3-1,0.2-1.8
		c0.3-0.5,0.7-0.8,1.1-1.2l0.2-0.2c-0.2-0.4-0.3-0.8-0.7-1c-0.2-0.1-0.6-0.8-1-2c-0.1-0.1,0-0.3,0.1-0.5c0-0.1,0-0.2,0.1-0.3
		l-0.6-0.3l-0.7-0.3h0l0.1,0v-0.1h-1.2c-0.3-0.1-0.5-0.1-0.8-0.3l-1-0.5c-0.4-0.2-0.8-0.2-1.3-0.3c-0.3,0.1-0.5,0.1-0.8-0.1
		c-0.2-0.1-0.2-0.3-0.3-0.5l-0.5-0.9l-0.2-0.4C330.8,266,330.9,265.7,331.1,265.6z"/>
	<path fill="#D52B1E" d="M331.3,244c0.1,0.2,0.1,0.4,0.3,0.5c0.3,0.1,0.6,0.1,0.8,0.1c0.5,0.1,0.8,0.1,1.3,0.3l1,0.5
		c0.3,0.2,0.5,0.3,0.8,0.3h1.2v0.1l0.4-0.3c0.6-0.4,1.2-1.1,1.7-1.9c0.6-1,0.7-1.5,1-2.7h0c0.6-0.2,0.7-0.3,1-0.6
		c0.2-0.3,0.1-0.4,0.4-0.7l0.4-0.6c-0.2-0.1-0.4-0.2-0.6-0.3h-0.6c-0.3,0-0.5,0.1-0.8,0.2l-0.5,0.4l-0.1,0c-0.1,0.1-0.1,0.2-0.2,0.2
		c-0.1,0.1-0.3,0.2-0.5,0.3c-0.1,0-0.3,0-0.4,0l-0.1-0.1c-0.4-0.2-0.6-0.6-0.4-1c0-0.1,0.1-0.1,0.2-0.2c-0.7-0.3-1-0.4-1.9-0.6
		l0,0.1l-0.4,0.1l-0.4,0.5l-0.6,0.4h0c-0.1,0-0.1,0.1-0.2,0.1l-0.4,0.3c-0.2,0.2,0,0.4-0.2,0.6c-0.1,0.3-0.2,0.4-0.4,0.6
		c-0.3,0.3-0.4,0.3-0.6,0.6l-0.8,0.6l-0.2,0.1h-0.4c-0.3,0.1-0.3,0.4-0.5,0.5l0.2,0.4L331.3,244z M335,240.6
		c0.3-0.2,0.5-0.2,0.8-0.2h0.1c0,0.3-0.1,0.5-0.3,0.8c-0.2,0.2-0.3,0.3-0.5,0.3c-0.3,0.1-0.4-0.1-0.8-0.2
		C334.7,241,334.7,240.8,335,240.6z M331.8,242.9l0.5-0.1c0.2,0,0.3,0,0.4,0.1c0.1,0,0.1,0.1,0.2,0.2c0,0.1,0.1,0.2,0.1,0.3
		c0,0.1-0.2,0.3-0.4,0.3c-0.1,0-0.3,0-0.3-0.2c0-0.1,0-0.2,0-0.3c-0.2,0.1-0.4,0.1-0.6,0c-0.2-0.1-0.3-0.2-0.4-0.3H331.8z"/>
	<path fill="#D52B1E" d="M338,246.5l-0.7-0.3L338,246.5c-0.1,0.1-0.1,0.2-0.1,0.3c-0.1,0.2-0.1,0.4-0.1,0.5c0.4,1.2,0.8,1.9,1,2
		c0.4,0.1,0.5,0.6,0.7,1l-0.2,0.2c-0.4,0.4-0.8,0.6-1.1,1.2c-0.4,0.8-0.8,0.8-0.2,1.8l1,1.5c0.3,0.4,0.4,0.8,0.5,1.3
		c0.1,0.4,0.2,0.8,0.2,1.3l0.1,0c0,0,0-0.1,0-0.1l0.1,0.1l0.5-0.8l0.8-0.7v-0.1c-0.1-0.1-0.2-0.3-0.1-0.4c0-0.3,0.3-0.2,0.4-0.4
		c0.2-0.3-0.3-0.5-0.4-0.7c-0.4-0.4-0.9-0.6-1-1.2c0-0.1,0-0.3,0.3-0.4l1.3-1.2c0.1,0.1,0.4,0.1,0.6,0.1l0.8,0.3
		c0.4,0.1,0.6,0,0.8,0h0.3l0.1,0.4c0.1,0.6-0.1,1.9,0.1,2.2l0.2,0.4l0.1,0.4v1.3l-0.1,1.1c0,0.3-0.1,0.4-0.3,0.6
		c-0.1,0.3-0.4,0.3-0.6,0.4v0c0,0,0,0,0.1,0h0h0l0,0l1,0.3l1,0.6l0,0l0.1-0.4l0.3-0.3c0.3-0.1,0.5,0,0.6-0.1c0.1-0.2,0-0.3,0-0.5
		c0-0.4-0.1-0.6-0.2-1c-0.1-0.6-0.1-1.2-0.1-1.8c0-0.4,0-0.6,0.1-1c0.1-0.6,0.3-0.9,0.4-1.4c0.2-0.6,0.2-1,0.3-1.6
		c2.2,0.3,4.4,0.2,6.5-0.4c0.5,0.4,1.1,0.8,1.7,1v0.6c0,0.2,0,0.3,0.1,0.4l0.2,0.2c0.2,0,0.3,0,0.4-0.1c0.1-0.1,0.1-0.3,0.1-0.4
		v-0.4h1.2v0.7c0.1,0.2,0.2,0.3,0.3,0.3c0.1,0.1,0.3,0.1,0.4,0c0.2-0.1,0.1-0.4,0.2-0.6v-0.4l0.6-0.3c0,0.2,0,0.4,0,0.6l-0.2,0.6
		c-0.1,0.4-0.3,0.5-0.5,0.9c-0.3,0.4-0.3,0.6-0.6,1l-0.4,0.4l-0.4,0.6l-0.6,0.6c-0.4,0.4-0.8,0.1-1.3,0.6l0,0l0.8,0.3l1,0.6
		c0,0,0,0,0,0c0-0.2,0-0.3,0.2-0.5c0.1-0.2,0.3-0.2,0.4-0.3c0.3,0,0.5,0,0.6-0.1c0.3-0.2,0.3-0.6,0.4-1c0.5-0.9,1.1-1.8,1.9-2.5
		l1.1-0.9c0.1-0.3,0.3-0.3,0.3-0.6l-0.1-0.4l-0.1-0.6c1,0.4,0.6,0.4,0.8,0.9c0.2,0.4,0,0.6,0.1,1.1c0.1,0.5,0.3,0.7,0.3,1.2
		c0.1,0.6-0.1,0.9-0.2,1.5c-0.1,0.5-0.1,0.8-0.3,1.3c-0.2,0.4-0.4,0.7-0.7,1l-0.3,0.3l0.9,0.4l1,0.6v0.1l0,0c0.1-0.4,0-1.1,0.3-1.1
		c0.3-0.1,0.4,0,0.5-0.2V258l0.4-2.9l0.3-1.2l0.3-1.1c0.4-1.3-0.1-1.5-0.6-2.3c-0.3-0.4-0.4-0.6-0.4-1v-1.9c0-0.6,0-1.2,0-1.8
		l0.3-0.1c0.8-0.4,1.1-0.6,1.5-1.6c0.1-0.3,0.2-0.6,0.2-1v-0.6l-0.3-0.6c-0.1-0.2-0.2-0.4-0.4-0.5c-0.4-0.6-1.1-0.7-1.7-1
		c-1-0.3-1.6-0.3-2.6-0.3c-1.2-0.1-1.7-0.1-2.8,0c-1.3,0-2,0.3-3.3,0.4l-3.1,0.3c-1.5,0-2.8-0.3-3.7-0.3c-1.5,0.1-1.6,0.5-4,0.7
		c-0.8,0.1-1.6,0.1-2.4,0.1l0,0c-0.2,1-0.3,1.6-0.9,2.7C339.8,245.1,339,245.9,338,246.5z"/>
	<path fill="#FCD900" d="M335.2,241.5c0.3,0,0.3-0.1,0.5-0.3c0.2-0.3,0.3-0.4,0.3-0.8h-0.1c-0.3,0-0.6,0-0.8,0.2
		c-0.3,0.2-0.4,0.4-0.6,0.7C334.7,241.3,334.9,241.5,335.2,241.5z"/>
	<path fill="#FCD900" d="M331.7,243.2c0.2,0.1,0.4,0.1,0.6,0c0,0.1,0,0.2,0,0.3c0.1,0.2,0.2,0.2,0.3,0.2c0.2,0,0.4-0.1,0.4-0.3
		c0.1-0.1-0.1-0.2-0.1-0.3c-0.1-0.1-0.1-0.2-0.2-0.2c-0.1-0.1-0.3-0.1-0.4-0.1l-0.5,0.1h-0.4C331.4,243,331.5,243.1,331.7,243.2z"/>
	<path fill="#0065BD" d="M335.7,249.3c-0.2,0-0.3,0.2-0.3,0.4c0,0,0,0,0,0c0,0.2,0.2,0.3,0.4,0.3c0.2,0,0.3-0.2,0.3-0.4
		C336.2,249.4,336,249.3,335.7,249.3z"/>
	<path fill="#0065BD" d="M335.4,249.7C335.4,249.7,335.4,249.7,335.4,249.7C335.4,249.7,335.4,249.7,335.4,249.7L335.4,249.7z"/>
	<path fill="#0065BD" d="M337.5,246.8c-0.1-0.2-0.3-0.4-0.6-0.4c-0.2-0.1-0.5-0.1-0.7,0.1c-0.3,0.3-0.3,0.6-0.4,0.9
		c-0.1,0.3-0.1,0.6-0.3,0.8c-0.2,0.2-0.4,0.2-0.6,0.3l1.3,0.6h0.1l1.3,0.3c-0.1-0.3-0.3-0.4-0.3-0.6c-0.1-0.3,0.1-0.5,0.1-0.9
		C337.3,247.5,337.5,247.2,337.5,246.8z"/>
	<path fill="#0065BD" d="M339.8,257.5L339.8,257.5C339.8,257.5,339.8,257.5,339.8,257.5c0,0.4,0.5,0.7,0.8,1.2l0.3-0.3l0.3-0.6
		c0.2-0.6,0.3-1.2,0.3-1.8h-0.3l-0.1,0.1l-0.8,0.7L339.8,257.5z"/>
	<polygon fill="#0065BD" points="343.6,258.8 343.6,258.8 343.6,258.8 	"/>
	<path fill="#0065BD" d="M338.8,243.6c-0.5,0.8-1.1,1.5-1.7,1.9l-0.4,0.3l-0.1,0h0l0.7,0.3l0.7,0.3c1-0.6,1.7-1.4,2.2-2.4
		c0.6-1.1,0.6-1.7,0.9-2.7c0,0,0-0.1,0-0.1L340,241h-0.3h0C339.5,242.1,339.3,242.7,338.8,243.6z"/>
	<path fill="#0065BD" d="M337.8,239.7L337.8,239.7c0.2,0.1,0.3,0.1,0.4,0.1c0.2,0,0.4-0.1,0.5-0.3c0.1-0.1,0.2-0.2,0.2-0.2
		c0.1-0.1,0.1-0.2,0.2-0.3c0.1-0.3,0.1-0.4,0.1-0.8c0-0.4-0.1-0.5-0.3-0.9l-0.4-0.8c-0.1-0.3-0.2-0.4-0.2-0.8c0-0.2,0.1-0.4,0-0.5
		c-0.1,0-0.4,0.2-0.5,0.4c-0.3,0.4-0.3,0.6-0.3,1l0.1,0.6l0.1,0.6c0.1,0.2,0.1,0.3,0,0.5c-0.1,0.1-0.1,0.1-0.2,0.1
		c-0.1,0-0.2,0.1-0.2,0.2C337.2,239,337.4,239.5,337.8,239.7z"/>
	<path fill="#0065BD" d="M343.6,258.8C343.5,258.8,343.5,258.8,343.6,258.8c-0.4,0.2-0.6,0.7-0.9,1.2l0.4,0.3h0.6
		c0.6,0.1,1.2,0,1.8-0.1v-0.3l0,0l-1-0.6L343.6,258.8z"/>
	<path fill="#0065BD" d="M361.9,259.1l-0.9-0.4l0,0h-0.1c-0.4,0.1-0.6,0.7-0.9,1.2l0.4,0.3h0.6c0.3,0,0.6,0,0.8,0l1-0.1v-0.3v-0.1
		L361.9,259.1z"/>
	<path fill="#0065BD" d="M355.6,257.7l-0.8-0.3l-0.1,0c-0.4,0.1-0.6,0.7-1,1.2l0.4,0.2l0.6,0.1c0.6,0,1.2,0,1.7-0.2
		c0.1-0.1,0-0.2,0-0.2c0,0,0,0,0,0L355.6,257.7z"/>
	<path fill="#0065BD" d="M334.9,238.7l0.4-0.5l-0.3-0.4l-0.2-0.5l-0.3-1c-0.1-0.3-0.2-0.4-0.4-0.6c-0.3-0.2-0.4-0.3-0.6-0.3
		c-0.1,0-0.3-0.1-0.3,0c-0.1,0.1,0.2,0.1,0.2,0.3c0.1,0.2,0.1,0.4,0.1,0.6v0.6v0.6c0,0.3,0.1,0.5,0.2,0.8c0.1,0.3,0.1,0.5,0.4,0.8
		h0.1h0L334.9,238.7z"/>
	<path fill="#D52B1E" d="M338,270l-0.7-0.3L338,270c-0.1,0.1-0.1,0.2-0.1,0.3c-0.1,0.2-0.1,0.4-0.1,0.5c0.4,1.2,0.8,1.9,1,2
		c0.4,0.1,0.5,0.6,0.7,1l-0.2,0.2c-0.4,0.4-0.8,0.6-1.1,1.2c-0.4,0.8-0.8,0.8-0.2,1.8l1,1.5c0.3,0.4,0.4,0.8,0.5,1.3
		c0.1,0.4,0.2,0.8,0.2,1.3l0.1,0c0,0,0-0.1,0-0.1l0.1,0.1l0.5-0.8l0.8-0.7v-0.1c-0.1-0.1-0.2-0.3-0.1-0.4c0-0.3,0.3-0.2,0.4-0.4
		c0.2-0.3-0.3-0.5-0.4-0.7c-0.4-0.4-0.9-0.6-1-1.2c0-0.1,0-0.3,0.3-0.4l1.3-1.2c0.1,0.1,0.4,0.1,0.6,0.1l0.8,0.3
		c0.4,0.1,0.6,0,0.8,0h0.3l0.1,0.4c0.1,0.6-0.1,1.9,0.1,2.2l0.2,0.4l0.1,0.4v1.3l-0.1,1.1c0,0.3-0.1,0.4-0.3,0.6
		c-0.1,0.3-0.4,0.3-0.6,0.4v0c0,0,0,0,0.1,0l0,0l1,0.3l1,0.6l0,0l0.1-0.4l0.3-0.3c0.3-0.1,0.5,0,0.6-0.1c0.1-0.2,0-0.3,0-0.5
		c0-0.4-0.1-0.6-0.2-1c-0.1-0.6-0.1-1.2-0.1-1.8c0-0.4,0-0.6,0.1-1c0.1-0.6,0.3-0.9,0.4-1.4c0.2-0.6,0.2-1,0.3-1.6
		c2.2,0.3,4.4,0.2,6.5-0.4c0.5,0.4,1.1,0.8,1.7,1v0.6c0,0.2,0,0.3,0.1,0.4l0.2,0.2c0.2,0,0.3,0,0.4-0.1s0.1-0.3,0.1-0.4V276h1.2v0.7
		c0.1,0.2,0.2,0.3,0.3,0.3c0.1,0.1,0.3,0.1,0.4,0c0.2-0.1,0.1-0.4,0.2-0.6v-0.4l0.6-0.3c0,0.2,0,0.4,0,0.6l-0.2,0.6
		c-0.1,0.4-0.3,0.5-0.5,0.9c-0.3,0.4-0.3,0.6-0.6,1L357,279l-0.4,0.6l-0.6,0.6c-0.4,0.4-0.8,0.1-1.3,0.6l0,0l0.8,0.3l1,0.6
		c0,0,0,0,0,0c0-0.2,0-0.3,0.2-0.5c0.1-0.2,0.3-0.2,0.4-0.3c0.3,0,0.5,0,0.6-0.1c0.3-0.2,0.3-0.6,0.4-1c0.5-0.9,1.1-1.8,1.9-2.5
		l1.1-0.9c0.1-0.3,0.3-0.3,0.3-0.6l-0.1-0.4l-0.1-0.6c1,0.4,0.6,0.4,0.8,0.9c0.2,0.4,0,0.6,0.1,1.1c0.1,0.5,0.3,0.7,0.3,1.2
		c0.1,0.6-0.1,0.9-0.2,1.5c-0.1,0.5-0.1,0.8-0.3,1.3c-0.2,0.4-0.4,0.7-0.7,1l-0.3,0.3l0.9,0.4l1,0.6v0.1l0,0c0.1-0.4,0-1.1,0.3-1.1
		c0.3-0.1,0.4,0,0.5-0.2v-0.4l0.4-2.9l0.3-1.2l0.3-1.1c0.4-1.3-0.1-1.5-0.6-2.3c-0.3-0.4-0.4-0.6-0.4-1v-1.9c0-0.6,0-1.2,0-1.8
		l0.3-0.1c0.8-0.4,1.1-0.6,1.5-1.6c0.1-0.3,0.2-0.6,0.2-1V266l-0.3-0.6c-0.1-0.2-0.2-0.4-0.4-0.5c-0.4-0.6-1.1-0.7-1.7-1
		c-1-0.3-1.6-0.3-2.6-0.3c-1.2-0.1-1.7-0.1-2.8,0c-1.3,0-2,0.3-3.3,0.4l-3.1,0.3c-1.5,0-2.8-0.3-3.7-0.3c-1.5,0.1-1.6,0.5-4,0.7
		c-0.8,0.1-1.6,0.1-2.4,0.1l0,0c-0.2,1-0.3,1.6-0.9,2.7C339.8,268.5,339,269.4,338,270z"/>
	<path fill="#D52B1E" d="M331.3,267.4c0.1,0.2,0.1,0.4,0.3,0.5c0.3,0.1,0.6,0.1,0.8,0.1c0.5,0.1,0.8,0.1,1.3,0.3l1,0.5
		c0.3,0.2,0.5,0.3,0.8,0.3h1.2v0.1l0.4-0.3c0.6-0.4,1.2-1.1,1.7-1.9c0.6-1,0.7-1.5,1-2.7h0c0.6-0.2,0.7-0.3,1-0.6
		c0.2-0.3,0.1-0.4,0.4-0.7l0.4-0.6c-0.2-0.1-0.4-0.2-0.6-0.3h-0.6c-0.3,0-0.5,0.1-0.8,0.2l-0.5,0.4l-0.1,0c-0.1,0.1-0.1,0.2-0.2,0.2
		c-0.1,0.1-0.3,0.2-0.5,0.3c-0.1,0-0.3,0-0.4,0l-0.1-0.1c-0.4-0.2-0.6-0.6-0.4-1c0-0.1,0.1-0.1,0.2-0.2c-0.7-0.3-1-0.4-1.9-0.6
		l0,0.1l-0.4,0.1l-0.4,0.5l-0.6,0.4h0c-0.1,0-0.1,0.1-0.2,0.1l-0.4,0.3c-0.2,0.2,0,0.4-0.2,0.6c-0.1,0.3-0.2,0.4-0.4,0.6
		c-0.3,0.3-0.4,0.3-0.6,0.6l-0.8,0.6l-0.2,0.1h-0.4c-0.3,0.1-0.3,0.4-0.5,0.5l0.2,0.4L331.3,267.4z M335,264
		c0.3-0.2,0.5-0.2,0.8-0.2h0.1c0,0.3-0.1,0.5-0.3,0.8c-0.2,0.2-0.3,0.3-0.5,0.3c-0.3,0.1-0.4-0.1-0.8-0.2
		C334.7,264.4,334.7,264.2,335,264z M331.8,266.3l0.5-0.1c0.2,0,0.3,0,0.4,0.1c0.1,0,0.1,0.1,0.2,0.2c0,0.1,0.1,0.2,0.1,0.3
		c0,0.1-0.2,0.3-0.4,0.3c-0.1,0-0.3,0-0.3-0.2c0-0.1,0-0.2,0-0.3c-0.2,0.1-0.4,0.1-0.6,0c-0.2-0.1-0.3-0.2-0.4-0.3H331.8z"/>
	<path fill="#FCD900" d="M335.2,264.9c0.3,0,0.3-0.1,0.5-0.3c0.2-0.3,0.3-0.4,0.3-0.8h-0.1c-0.3,0-0.6,0-0.8,0.2
		c-0.3,0.2-0.4,0.4-0.6,0.7C334.7,264.8,334.9,265,335.2,264.9z"/>
	<path fill="#FCD900" d="M331.7,266.6c0.2,0.1,0.4,0.1,0.6,0c0,0.1,0,0.2,0,0.3c0.1,0.2,0.2,0.2,0.3,0.2c0.2,0,0.4-0.1,0.4-0.3
		c0.1-0.1-0.1-0.2-0.1-0.3c-0.1-0.1-0.1-0.2-0.2-0.2c-0.1-0.1-0.3-0.1-0.4-0.1l-0.5,0.1h-0.4C331.4,266.5,331.5,266.6,331.7,266.6z"
		/>
	<path fill="#0065BD" d="M337.5,270.3c-0.1-0.2-0.3-0.4-0.6-0.4c-0.2-0.1-0.5-0.1-0.7,0.1c-0.3,0.3-0.3,0.6-0.4,0.9
		c-0.1,0.3-0.1,0.6-0.3,0.8c-0.2,0.2-0.4,0.2-0.6,0.3l1.3,0.6l0.1,0l1.3,0.3c-0.1-0.3-0.3-0.4-0.3-0.6c-0.1-0.3,0.1-0.5,0.1-0.9
		C337.3,270.9,337.5,270.7,337.5,270.3z"/>
	<path fill="#0065BD" d="M335.7,272.7c-0.2,0-0.3,0.2-0.3,0.4c0,0,0,0,0,0c0,0.2,0.2,0.3,0.4,0.3c0.2,0,0.3-0.2,0.3-0.4
		C336.2,272.8,336,272.7,335.7,272.7z"/>
	<path fill="#0065BD" d="M335.4,273.2C335.4,273.1,335.4,273.1,335.4,273.2C335.4,273.1,335.4,273.1,335.4,273.2L335.4,273.2z"/>
	<path fill="#0065BD" d="M334.9,262.1l0.4-0.5l-0.3-0.4l-0.2-0.5l-0.3-1c-0.1-0.3-0.2-0.4-0.4-0.6c-0.3-0.2-0.4-0.3-0.6-0.3
		c-0.1,0-0.3-0.1-0.3,0c-0.1,0.1,0.2,0.1,0.2,0.3c0.1,0.2,0.1,0.4,0.1,0.6v0.6v0.6c0,0.3,0.1,0.5,0.2,0.8c0.1,0.3,0.1,0.5,0.4,0.8
		h0.1h0L334.9,262.1z"/>
	<path fill="#0065BD" d="M337.8,263.1L337.8,263.1c0.2,0.1,0.3,0.1,0.4,0.1c0.2,0,0.4-0.1,0.5-0.3c0.1-0.1,0.2-0.2,0.2-0.2
		c0.1-0.1,0.1-0.2,0.2-0.3c0.1-0.3,0.1-0.4,0.1-0.8c0-0.4-0.1-0.5-0.3-0.9l-0.4-0.8c-0.1-0.3-0.2-0.4-0.2-0.8c0-0.2,0.1-0.4,0-0.5
		c-0.1,0-0.4,0.2-0.5,0.4c-0.3,0.4-0.3,0.6-0.3,1l0.1,0.6l0.1,0.6c0.1,0.2,0.1,0.3,0,0.5c-0.1,0.1-0.1,0.1-0.2,0.1
		c-0.1,0-0.2,0.1-0.2,0.2C337.2,262.5,337.4,262.9,337.8,263.1z"/>
	<path fill="#0065BD" d="M355.6,281.2l-0.8-0.3l-0.1,0c-0.4,0.1-0.6,0.7-1,1.2l0.4,0.2l0.6,0.1c0.6,0,1.2,0,1.7-0.2
		c0.1-0.1,0-0.2,0-0.2c0,0,0,0,0,0L355.6,281.2z"/>
	<path fill="#0065BD" d="M339.8,281L339.8,281C339.8,280.9,339.8,281,339.8,281c0,0.4,0.5,0.7,0.8,1.2l0.3-0.3l0.3-0.6
		c0.2-0.6,0.3-1.2,0.3-1.8h-0.3l-0.1,0.1l-0.8,0.7L339.8,281z"/>
	<path fill="#0065BD" d="M343.6,282.2L343.6,282.2C343.5,282.2,343.5,282.2,343.6,282.2c-0.4,0.2-0.6,0.7-0.9,1.2l0.4,0.3h0.6
		c0.6,0.1,1.2,0,1.8-0.1v-0.3l0,0l-1-0.6L343.6,282.2z"/>
	<path fill="#0065BD" d="M361.9,282.5l-0.9-0.4l0,0h-0.1c-0.4,0.1-0.6,0.7-0.9,1.2l0.4,0.3h0.6c0.3,0,0.6,0,0.8,0l1-0.1v-0.3v-0.1
		L361.9,282.5z"/>
	<path fill="#0065BD" d="M338.8,267.1c-0.5,0.8-1.1,1.5-1.7,1.9l-0.4,0.3l-0.1,0h0l0.7,0.3l0.7,0.3c1-0.6,1.7-1.4,2.2-2.4
		c0.6-1.1,0.6-1.7,0.9-2.7c0,0,0-0.1,0-0.1l-1.2-0.3h-0.3h0C339.5,265.5,339.3,266.1,338.8,267.1z"/>
</g>
</svg>
