<?xml version="1.0" encoding="utf-8"?>
<!-- Generator: Adobe Illustrator 17.1.0, SVG Export Plug-In . SVG Version: 6.00 Build 0)  -->
<!DOCTYPE svg PUBLIC "-//W3C//DTD SVG 1.1//EN" "http://www.w3.org/Graphics/SVG/1.1/DTD/svg11.dtd">
<svg version="1.1" id="flag-icon-css-af" xmlns="http://www.w3.org/2000/svg" xmlns:xlink="http://www.w3.org/1999/xlink" x="0px"
	 y="0px" viewBox="0 0 640 480" enable-background="new 0 0 640 480" xml:space="preserve">
<g>
	<path d="M212.4,83.2l-0.4,4.2c-0.3,3.6-0.8,5.1-3.4,9.8c-2.8,5.3-3,5.8-3,10.2c0,4.5-0.1,4.9-2.8,9.7c-2.5,4.4-3.4,5.4-8,8.8
		l-5.2,3.9l-3.2-0.4l-3.3-0.4l-2,3.7l-2,3.7l-2.4-0.5c-1.3-0.2-4.7-0.5-7.5-0.4c-4.3,0.1-5.8,0.4-9.5,1.9c-2.4,1-7.6,2.5-11.7,3.4
		c-4.1,0.9-7.5,1.7-7.6,1.8c-0.1,0.1,0.5,2,1.4,4.1l1.7,4l-1.8,1.5c-1.5,1.3-1.9,2.2-2.4,5.6c-0.4,2.2-0.7,4.1-0.8,4.2
		c-0.1,0.1-5.3,2.7-11.7,5.9c-11.1,5.6-11.6,5.7-13.1,4.9c-1.4-0.9-1.7-0.8-4.7,1.1c-1.8,1.1-3.4,2-3.6,2c-0.2,0-0.2-1.1,0.1-2.4
		c0.5-2.4,0.4-2.4-4.8-8.5l-5.3-6.2l-3.9,1.3c-3.8,1.3-4.1,1.3-10.8,0.5l-6.9-0.9l-3.4-5.2c-3-4.6-3.6-5.3-5.1-5.3
		c-3.8,0-4.4,0.6-6.2,7.2c-0.9,3.4-2.3,7.7-3.1,9.5c-0.8,1.9-1.4,4.4-1.4,5.7c0,1.3-0.7,4.1-1.4,6.3c-1.2,3.4-1.4,4.6-1.1,9.4
		l0.4,5.6l-3.1,4.1c-2.8,3.7-3.6,4.3-7.2,5.7c-2.2,0.9-4,1.8-4,2c0,1.1,2.5,4.3,4.9,6.3c2.3,1.9,2.6,2.4,2.3,3.8
		c-0.4,1.5-0.5,1.6-5.9,1.9l-5.6,0.3l-2.5,3c-2.9,3.3-3,3.7-2,12.1c0.5,4.1,0.4,5.6-0.4,8.4c-0.9,3.3-0.9,3.5,0.4,6.6l1.4,3.3
		L36,252c4.9,1.4,7.5,2.9,7.5,4.5c0,0.3-1.5,1.7-3.5,3.3c-2.5,2-3.7,3.5-4.4,5.2c-0.5,1.4-2.3,3.8-3.9,5.4c-2.6,2.5-3,3.2-3,5.3
		c0,1.3,2.3,11.8,5.1,23.4c5.4,22.6,5.3,22,3.4,30.6l-1,4.2l1.8,3.3l1.8,3.3l-1.7,1.6c-1.7,1.6-1.7,1.8-1.7,7.9v6.3l15.8,4.9
		c17.5,5.4,21,7.2,21.8,10.8c0.2,1,1.2,3.1,2.1,4.6l1.7,2.7l-0.9,6.5c-0.8,6-1.1,6.6-3.1,8.9c-1.2,1.4-7.4,8.2-13.7,15.3l-11.5,12.9
		l-1.2,4.7c-1.1,4.4-1.4,4.9-5.3,8.8c-2.3,2.3-4,4.2-3.8,4.4c0.1,0.1,14.6,6,32,13.1l31.8,12.9l17.1-0.7c9.4-0.4,19.5-0.9,22.4-1.3
		c4.9-0.7,6.2-0.6,16,0.9c9.7,1.5,10.8,1.8,12.6,3.4c1.8,1.7,4.2,2.8,5.4,2.8c0.3,0,0.5-0.9,0.5-2c0-1.5,0.6-2.6,2.5-4.7
		c2.7-2.8,5.9-4.3,13.4-5.9l3.7-0.8l11.3,3.1l6.3,1.8V82.7L212.4,83.2z"/>
	<path fill="#009900" d="M625.4,65.2c-1.2,0.7-1.6,0.5-3.4-0.8c-1.7-1.3-2.6-1.5-6-1.5c-3.5,0-4.3,0.2-5.6,1.4
		c-0.9,0.8-3.5,1.9-6.6,2.7c-2.8,0.7-7.1,2.1-9.7,3c-5.6,2.1-6.3,2.1-4.7,0.4c1.1-1.2,1.2-1.7,0.7-3.3c-0.6-1.7-0.9-1.9-3-1.9
		c-1.2,0-3.4-0.4-4.6-0.9c-2.3-0.9-2.7-0.9-9.1,0.7c-3.7,0.8-7.2,1.7-7.7,1.8c-0.5,0.2-1.4,1.4-1.8,2.8l-0.8,2.5l-3.9,0.5
		c-3.7,0.5-3.8,0.6-5.9,3.5c-1.1,1.7-3.6,4.7-5.4,6.7l-3.4,3.7l-4.9,0.7c-2.7,0.4-5.4,0.9-6,1.2c-0.7,0.2-5.3,3.8-10.4,8
		c-10.9,9-10.6,8.8-15,9.8l-3.4,0.7l-2.7-2.6c-3.2-3.1-7.2-10-9.4-15.7c-1.5-4.1-1.5-4.5-0.9-9.2c0.4-2.7,1.4-6.8,2.3-8.9l1.6-4
		l-1.2-2.5c-1.7-3.7-1.2-9.7,1.1-13.4c1.2-1.9,1.7-3.4,1.7-5.3c0-2.4-0.1-2.5-1.3-2.1c-0.8,0.2-2.1,0.8-3,1.2
		c-0.9,0.5-3,0.8-4.6,0.8c-2.8,0-3-0.1-3.5-2c-0.4-1.4-0.3-3.4,0.2-6.4c0.4-2.4,0.8-6,0.8-8l0.1-3.6l-4.4-2.5
		c-2.5-1.4-6.4-4-8.7-5.7c-2.3-1.8-4.4-3.2-4.6-3.2c-0.2,0-2.4,0.9-4.8,2l-4.4,2l-2.5,4.7c-1.4,2.6-2.5,5.4-2.5,6.2
		c-0.1,1.1-0.9,2.2-3,3.8c-2.1,1.7-3.1,3-3.6,4.7c-0.5,1.8-1.4,2.7-3.8,4.3c-3.7,2.3-3.9,3.5-2,8.6c0.7,1.8,1.2,4.6,1.2,6.5
		c0,3.1-0.1,3.3-2,4.3c-1.4,0.7-2.1,1.5-2.4,2.7c-0.2,1-0.6,1.8-0.8,1.8s-2-1.1-3.8-2.3l-3.3-2.4l-3.6,0.3v224.7
		c2.4-0.5,5-1.1,7.4-1.7l8.4-2.2l2.4-4.9c1.4-2.7,2.4-5.1,2.4-5.3s-1.6-2-3.6-4c-4.1-4.3-4.7-6.6-2.5-9.7c1.7-2.4,1.7-2.5-0.6-2.5
		c-1.1,0-3.7-0.8-5.7-1.7l-3.8-1.6l-1.7-4.4c-1.8-4.7-1.8-5.4,0.3-7.8c1.1-1.3,2-1.6,4.3-1.7c2.5-0.1,3.7,0.4,9.2,3.4l6.4,3.5
		l7.5-0.8c6.5-0.7,18-3.1,19.5-4.3c0.3-0.2,1.8-2.3,3.6-4.5c2.5-3.4,3.1-4.9,3.7-8.2l0.7-4.1l-2.4-3.2c-2.1-2.7-2.4-3.6-2.4-6.2
		c0-2.6,0.3-3.4,2-5.5c1.2-1.5,2.5-4.1,3.3-6.8c0.7-2.4,1.4-4.4,1.4-4.6c0.1-0.1,3.7-1.9,8.1-4c4.3-2.1,7.8-4.1,7.8-4.4
		c-0.1-0.2-0.3-1.5-0.5-2.9c-0.4-2.3-0.4-2.6,1.2-4.1l1.7-1.7l-1.6-1.7c-1.5-1.6-1.5-1.7-0.8-4.8c0.7-3.1,0.7-3.5-1.1-8.8
		c-1.1-3.4-2-7.5-2.3-10.7l-0.4-5.2l-3.4-2.4c-1.8-1.2-4.7-3.8-6.5-5.6l-3.1-3.3l7.2-10c3.9-5.5,7.6-10.4,8.2-11
		c1-0.9,1.5-0.8,6.6,0.8c3.1,0.9,5.7,1.7,5.7,1.5c0.1-0.1,0.8-2.4,1.6-5c0.8-2.7,1.6-5,1.8-5.2s2.4-0.7,5-0.9
		c5.4-0.8,6.4-1.3,13.5-8.2l5.3-5.2l16.6-0.9c9.1-0.5,17.7-0.7,19-0.5c1.9,0.4,3.3,0.1,6.8-1.1l4.4-1.6l8.7,3l8.6,3l2.5-2
		c1.9-1.5,3.7-2.3,7.5-3.1c5.2-1.1,9.1-3,9.1-4.4c0-0.4-0.8-3-1.8-5.7c-1.3-3.4-1.7-5.5-1.5-6.8c0.4-2.4,1-2.7,3-1.8
		c1.4,0.6,1.7,0.5,3.4-1.1l1.9-1.8l2.3,1.1l2.2,1.2l0.7-1.5c0.6-1.3,0.5-1.7-0.7-2.9C631.6,65.4,627.3,64.2,625.4,65.2z"/>
	<polygon fill="#BF0000" points="308.4,260.9 308.4,265.8 314.1,265.8 313,260.9 	"/>
	<polygon fill="#BF0000" points="325.9,265.8 321.5,265.8 324.5,270.7 324.6,270.7 324.6,270.7 330.8,270.7 	"/>
	<path fill="#BF0000" d="M321.8,291.2c-0.2,0-0.4,0-0.6,0.1c-0.2,0.1-0.2,0.2-0.2,0.3c0,0.3,0.3,0.5,1,0.5l0.6-0.1
		C322.6,291.4,322.3,291.2,321.8,291.2z"/>
	<path fill="#BF0000" d="M334.7,333.7c-2.2,1.8,0.1,3.7,2,2.9c4.6-2.2,9.8-2.6,14.7-1.2c-0.9-1-1.1-2-1.1-3.3
		C345,332.6,337.9,331.2,334.7,333.7z"/>
	<path fill="#BF0000" d="M293.8,148.3c-0.2,0-0.3,1.4,0,1.7c0.3,0.3,1.6,0.5,1.6,0.3C295.5,149.8,294.3,148.3,293.8,148.3z"/>
	<polygon fill="#BF0000" points="321.5,265.8 318.5,260.9 316.2,260.9 317.8,265.8 321.5,265.8 	"/>
	<polygon fill="#BF0000" points="317.8,265.8 314.1,265.8 315.1,270.7 315.1,270.7 315.1,270.7 319.4,270.7 	"/>
	<path fill="#BF0000" d="M424.7,61.1c-3,0.3-7.2,0.6-9.2,0.6h-3.7l-3.3,4.7l-3.4,4.7l0.9,4l0.9,4l-2,2l-2,2l-5.2-3.3
		c-2.8-1.9-5.4-3.4-5.8-3.4c-0.4,0.1-3.4,0.5-6.8,1.1c-4.9,0.8-6.5,1.4-8.3,2.8c-2.8,2.3-4.5,3.1-11.3,5.5c-3.1,1.1-7.1,3-9.1,4.3
		c-2,1.2-3.7,2.3-4,2.3c-0.2,0-2.8-1.4-5.6-3.1c-3.9-2.4-5.6-3.7-6.5-5.5c-1.1-1.8-2.3-2.8-6.2-4.9l-4.9-2.5l-6.4,1.2l-6.3,1.2
		l-3.6-3.7l-3.6-3.7l-6.5-0.8c-6-0.8-7-0.7-15.7,0.5c-8.7,1.2-9.4,1.3-12.4,0.4c-2.5-0.8-3.7-1.5-5.4-3.6c-2.1-2.5-2.4-2.7-5.4-2.7
		c-2.3,0-4.5-0.5-7.5-1.8c-2.4-1-4.3-1.7-4.4-1.6c-0.1,0.1-1.7,3.1-3.4,6.8c-1.8,3.6-3.7,6.8-4.3,7c-0.5,0.2-5.1,0.4-10.1,0.4h-9.1
		l-6.5,3.7l-5.5,3.2v380.9l5,1.4l26.6-8.4l26.7-8.4l1.5-2.5l1.5-2.5l-2.7-3.2l-2.7-3.1l2.4-7.9c1.3-4.3,2.4-8.2,2.4-8.5
		c0-0.4-0.7-1.5-1.5-2.5s-1.5-2.3-1.5-2.7s1.4-4.8,3-9.7l3-9l3.5-0.9c3.1-0.9,3.6-1.2,4.1-3c0.4-1.1,1.1-2.3,1.6-2.8
		c0.5-0.4,2-2.1,3.2-3.8c3.1-4.2,10.1-8.5,13.7-8.5h2.7l0.7,2.7c0.7,2.5,0.8,2.7,2.3,2.4c0.9-0.2,4.9-0.8,9-1.2
		c7.3-0.9,18.6-3.9,20-5.2c0.4-0.4,0.8-1.2,0.9-1.9c0.2-1-0.4-1.2-4.1-1.8c-4.3-0.7-5.4-1.3-5.4-3.3c0-0.9,7.5-4.4,13.4-6.2
		c3-0.9,9.1-6.9,9.9-9.8c0.4-1.6,0.7-1.7,3.4-1.7c2.5,0,3.1,0.2,4.2,1.7c0.9,1.2,2.3,2,4.9,2.7c2,0.5,4,1.1,4.4,1.3
		c0.6,0.2,0.8-0.2,0.7-1.6c-0.2-1.8,0-2,2.1-2.7l2.3-0.8l2.1,2.5c1.2,1.4,3.2,3.7,4.5,5.1l2.4,2.5l4.2-0.4l4.1-0.4l5.7-10.3
		l5.7-10.3v-11.7v-11.8l4.7-4.4l4.7-4.4l-1.4-2.4l-1.4-2.5l2-2.5l2-2.5l-1.1-4.3l-1.1-4.2l2.8-1.5c2-1.1,4-1.6,7.2-1.8
		c1.2-0.1,3.1-0.4,5.3-0.8V60.9L424.7,61.1z M416.8,225.2c-3.9,5.6-3.6,13.5-8.5,12.7C407.2,234.8,413.4,229.5,416.8,225.2z
		 M415.5,244.7c0.4-0.5,1.5,0,1.3,1.2c-0.3,1.6-2.7,9.8-6.7,12.5c-0.7,0.5-2,1.1-3.8,1.6c0.5,1.9,0.6,3.1-1.2,4.4
		c-1.3-1.4-1.5-2.4-1.2-3.7c-0.3,0.1-0.6,0.2-0.9,0.3c-0.1,4.3,0.9,7.6-1,8c-3.8,0.2-0.8-3.9,0.6-7.9c-5.7,1.6-13.2,3.2-17.4,4.2
		c-0.5,0.1-1.1,0.2-1.6,0.4c0.1,4.3-0.6,7.3-3.9,7.2c-3.1-0.6,0-3.1,3.7-7.1c-2.7,0.8-4.9,2.3-6.9,4.4c0.9,3.4,3.4,4.9,1.5,7
		c-2.1,1.5-4.4-3.9-1.8-9.1c0,0.4,0,0.7,0.1,1c0.8-2.9,1.7-5.7,2.7-8.5c1.2-3.1,4.5-6.4,7.9-6.7c-2.7-1.3-3.2-5.5-3.2-6.8
		c2,0.4,5.4,3.6,5.1,6.7c6.3-0.3,14-1,19.8-3.4c2.8-1.2,5.3-3.1,7.1-5.6H415.5z M389.4,290.6c-3.2,0.1-1.1-6.5,1.7-10.2
		C390.7,285.2,392.1,290,389.4,290.6z M389.8,277.9c-0.3,3.3-1.4,6.7-3.5,7.2c1.4-2.1,1.8-4.7,2.1-7.6c0.3-2.9,2-5.6,4.5-7
		c0,0,0-0.1,0-0.1h0.1c-0.1,0-0.1,0.1-0.1,0.1C391.9,273.1,390.1,274.5,389.8,277.9z M383.4,280.3c-1.1,3.3-7.4,9.4-8.5,6.2v-0.1
		C374.2,283.7,379.5,284.2,383.4,280.3z M368.7,251.8c0,0,0,0.1-0.1,0.1l-0.2-0.9c-0.9-2.9-0.7-6.3-2.8-9h0.1c0,0,0,0,0-0.1
		c-0.2-0.3-0.4-0.5-0.7-0.8c-1.5-1.6-4.7-3.1-5.9-4.1l-10,17v4.7h-8.5v-9.3h8.5v2.2l16.6-28c-0.3-0.4-0.5-0.8-0.5-1.4
		c0-1.2,1-2.1,2.1-2.1c1.2,0,2.1,1,2.1,2.1c0,1.2-1,2.1-2.1,2.1c-0.2,0-0.4,0-0.6-0.1l-0.5,0.9c1.2,0.2,3,4,7.2,7c0,0,0-0.1,0-0.1
		l0.3,0.3c0.2,0.1,0.3,0.2,0.5,0.4c0.3,0.3,0.6,0.6,0.8,0.9c0.5,0.7,1,1.4,1.4,2.3c0.4,0.8,0.8,1.7,1,2.6c0.3,1.1,0.5,2.2,0.5,3.1
		c0,0.8,0,1.6,0,2.4c0,0.1,0,0.1-0.1,0.2c0,1.2-0.1,2.4,0.1,3.5c0.1,1.2,1.5,4,0.5,4.8c-2.3,1.7-5.4,5.7-6.8,7.1
		C370.5,260.7,369.5,254.9,368.7,251.8z M370,286.5c-1.7,1.1-2.8-2.4-0.7-5.5C369.8,284.3,371.5,285.2,370,286.5z M323.8,294.5
		c0,0.3,0.3,0.6,0.8,1l-0.5,2.1c-0.4,0-0.6-0.3-0.8-0.7l-0.4-1.3c-0.1-0.6-0.1-1.1-0.1-1.7c-0.3,0.1-0.7,0.2-1,0.2
		c-0.5,0-0.9-0.1-1.3-0.4c-0.3-0.2-0.5-0.6-0.5-1c0-0.9,0.3-1.7,0.7-2.3c0.5-0.7,1-1,1.5-1.1c0.5,0,0.8,0.1,1,0.4
		c0.2,0.3,0.3,0.6,0.3,0.9v2C323.5,293.5,323.6,294.1,323.8,294.5z M325.7,301.1v2.2c0,0.9,0,0.9-0.4,1.1c-0.7,0-1.9,0-2.7,0.6
		c-0.5,0.3-1.1,0-1.2-0.6l-0.1-2.2c0-0.6,0.2-1.2,0.6-1.3c0.8-0.3,1.7-0.5,2.6-0.4C325.6,300.5,325.7,300.7,325.7,301.1z
		 M328.5,307.9h0.1c-2.8,2.8-4.3,4.3-8.1,3.8C321.1,309.2,324.6,309.6,328.5,307.9z M325.7,297.7v-2.5c0.6-0.7,0.9-1.1,1-1.5
		c0.3-0.5,0.6-1.1,0.8-1.7l0.5-2.7h0.4l0.9,2.7c0.2,0.6,0.5,1.2,0.9,1.6l1,1.4h0.1l-0.3,2.6c-0.5-0.4-1-1-1.4-2
		c-0.5-1.3-1-2.7-1.3-4.1c-0.5,1.9-1.1,3.7-1.8,5.5C326.3,297.3,326,297.5,325.7,297.7z M331.7,307.3c-1.1,1.9-2.1,4.8-4.3,4.3
		C327.5,310.2,329.7,309.1,331.7,307.3z M330.7,304.9c-0.7-0.5-1.8-0.6-2.6-0.7c-0.5-0.1-0.7-0.2-0.7-1V301c0-0.5,0.6-1.3,1.7-1
		c0.9,0.2,1.9,0.5,2.8,0.9c0.5,0.2,0.8,0.7,0.7,1.3l-0.3,2.1C331.9,305,331.3,305.3,330.7,304.9z M335.8,302.8
		c0.9-3.3,3.6-6.1,6.6-8.4l0,0.1c-2,3-3.9,5.3-4.7,8.5c-1,3.3-2.1,6.3-5.3,8.3C334.4,308.3,334.9,305.9,335.8,302.8z M340.4,302.6
		c0.8-3.2,2.7-6.1,5.3-8.2l0,0.1c-1.8,2.9-2.8,5.3-3.5,8.5c-0.9,3.2-2.9,6-5.6,7.9C338.2,308.2,339.5,305.7,340.4,302.6z
		 M275.1,285.5h-0.1l8-6.5h73.8l8,6.5H275.1z M302.4,303.1c-0.7-3.2-2.7-5.5-4.7-8.5v-0.1c3,2.3,5.7,5.1,6.6,8.4
		c0.9,3.1,1.4,5.4,3.4,8.5C304.5,309.3,303.3,306.4,302.4,303.1z M303.6,310.9c-2.8-1.9-4.8-4.7-5.6-7.9c-0.7-3.2-1.7-5.6-3.5-8.5
		v-0.1c2.6,2.1,4.5,4.9,5.3,8.2C300.6,305.7,301.9,308.2,303.6,310.9z M307.5,302.2c-0.1-0.5,0.2-1.1,0.7-1.3
		c0.9-0.3,1.8-0.6,2.8-0.9c1.1-0.3,1.7,0.4,1.7,1v2.1c0,0.7-0.2,0.9-0.7,1c-0.7,0.1-1.8,0.2-2.6,0.7c-0.6,0.4-1.3,0.1-1.6-0.5
		L307.5,302.2z M308.5,291.5l0.8-2.2c0.7,0.7,1.2,1.5,1.5,2.4c0.4,1,0.5,2.1,0.5,3.2v0.1l-0.3,2.6h-0.4l-0.1-1.8
		c-0.1-0.5-0.3-1.1-0.5-1.6c-0.1-0.4-0.3-0.9-0.5-1.3L308.5,291.5z M312.6,311.6c-2.1,0.5-3.2-2.3-4.3-4.3
		C310.4,309.1,312.6,310.2,312.6,311.6z M311.4,307.9h0.1c3.9,1.7,7.4,1.3,8,3.8C315.7,312.2,314.2,310.7,311.4,307.9z M318.3,290.7
		c0,0.7-0.2,1.2-0.5,1.5c-0.2,0.3-0.6,0.6-1.3,0.7l0.4,1.5c0.1,0.7,0.1,1.3,0,2c0,0.4-0.1,0.9-0.1,1.3h-0.4c0-0.4,0-0.9-0.1-1.3
		c0-0.3-0.1-0.7-0.2-1l-0.4-1c-0.2-0.5-0.4-1-0.7-1.4l-1-1.7l0.6-2l1,1c0.3,0.2,0.6,0.3,1,0.3c0.8,0,1.2-0.4,1.2-1.3h0.4
		L318.3,290.7L318.3,290.7z M318.8,302.2l-0.1,2.2c-0.1,0.6-0.6,1-1.2,0.6c-0.7-0.6-1.9-0.6-2.7-0.6c-0.4-0.2-0.4-0.2-0.4-1.1v-2.2
		c0-0.4,0.1-0.6,1.2-0.6c0.9-0.1,1.7,0.1,2.6,0.4C318.5,301,318.8,301.6,318.8,302.2z M287.9,299.8c1.5,1.5,2.3,4,2.4,6
		c0.5-0.7,1.3-1.5,1.9-1.7c1.1-0.1,1.7,1.7,0.9,4.1c-0.6,1.4-1.4-0.7-2.4-1c-0.2,0-0.3,0-0.4-0.1c-0.2,1.5-0.9,2.5-2.1,2.2l-0.1-0.1
		C285.8,308.7,289.3,304.4,287.9,299.8z M274.3,242h0.1c-2,2.8-1.9,6.2-2.8,9l-0.2,0.9c0,0,0-0.1-0.1-0.1c-0.8,3.1-1.8,8.9-3,7.9
		c-1.4-1.4-4.5-5.4-6.8-7.1c-1-0.7,0.4-3.6,0.5-4.8c0.1-1.2,0.1-2.4,0.1-3.5c0-0.1,0-0.1-0.1-0.2c0-0.8,0-1.6,0-2.4c0,0,0,0,0,0
		c0-1.1,0.3-2.5,0.7-3.8c0.1-0.4,0.3-0.9,0.5-1.3c0.6-1.3,1.3-2.5,2.2-3.4c0.3-0.3,0.6-0.6,0.9-0.8c0,0,0,0,0,0l0.3-0.3
		c0,0,0,0.1,0,0.1c4.2-3,6-6.7,7.2-7l-0.5-0.9c-0.2,0.1-0.4,0.1-0.6,0.1c-1.2,0-2.1-1-2.1-2.1c0-1.2,1-2.1,2.1-2.1s2.1,1,2.1,2.1
		c0,0.5-0.2,1-0.5,1.4l16.6,28v-2.2h8.5v9.3h-8.5V254l-10-17c-1.2,1-4.4,2.5-5.9,4.1C274.7,241.4,274.5,241.7,274.3,242
		C274.3,242,274.3,242,274.3,242z M270.1,286.5c-1.5-1.3,0.2-2.1,0.7-5.5C272.8,284,271.8,287.5,270.1,286.5z M268.1,278.6
		c1.9,3.7,1,8.9-1.8,7.6V286C264.2,284.9,268.4,283.4,268.1,278.6z M249,280.4c2.8,3.7,4.9,10.3,1.7,10.2
		C247.9,290,249.4,285.2,249,280.4z M250.3,277.9c-0.3-3.4-2.1-4.8-3.1-7.3c-0.1,0-0.1-0.1-0.1-0.1h0.1c0,0,0,0.1,0,0.1
		c2.6,1.5,4.2,4.1,4.5,7c0.3,2.9,0.7,5.4,2.1,7.6C251.7,284.6,250.6,281.1,250.3,277.9z M236.1,260.8c0.3,1.3,0.1,2.3-1.2,3.7
		c-1.8-1.3-1.7-2.5-1.2-4.4c-1.8-0.6-3.1-1.1-3.8-1.6c-4-2.8-6.4-11-6.7-12.5c-0.2-1.2,0.9-1.7,1.3-1.2h-0.1
		c1.8,2.5,4.3,4.4,7.1,5.6c5.8,2.5,13.5,3.1,19.8,3.4c-0.3-3.1,3.1-6.3,5.1-6.7c0,1.3-0.5,5.5-3.2,6.8c3.5,0.3,6.7,3.6,7.9,6.7
		c1,2.8,1.9,5.6,2.7,8.5c0-0.3,0.1-0.7,0.1-1c2.6,5.2,0.3,10.6-1.8,9.1c-1.9-2.1,0.6-3.6,1.5-7c-2-2.1-4.2-3.5-6.9-4.4
		c3.7,4,6.8,6.4,3.7,7.1c-3.4,0.1-4-2.9-3.9-7.2c-0.5-0.2-1-0.3-1.6-0.4c-4.2-0.9-11.7-2.5-17.4-4.2c1.4,4,4.4,8.1,0.6,7.9
		c-1.9-0.4-0.9-3.7-1-8C236.7,261,236.4,260.9,236.1,260.8z M232.8,249.5c-3.6,1-4.8-5.3-7.4-10.7
		C228.8,244.4,234.2,245.2,232.8,249.5z M224.1,231.8c4.6,7.8,9.3,8.2,7.7,11.7C228.6,243.9,225.9,237.9,224.1,231.8z M232.9,242.5
		c-1.3-2.7,3.2-3.9,4-7.3C237.5,240.1,237.1,243.3,232.9,242.5z M237.6,240.6c0.5,5.1,0,8.8-4,7.8v0.1
		C232,245.5,236.5,244.6,237.6,240.6z M232.9,237.5c0,0,0,0.1,0,0.1L232.9,237.5C232.9,237.5,232.9,237.5,232.9,237.5
		c-1.2-3.3,3-5.4,4-7.8C237.1,232.1,236.7,237.7,232.9,237.5z M232.7,232.1c-0.6-4.6,1.7-3.6,3.1-8.1
		C236.5,228.4,237,231.2,232.7,232.1z M238.7,232.7c1.5,5.2,5.3,6.1,4.3,10.4V243C238.2,242.4,238.9,236.5,238.7,232.7z
		 M243.5,247.8c-3.2,0.3-4.7-2.8-5.3-7.4C241,244.7,243.6,243.3,243.5,247.8z M243.7,252.4c-3.1,1.2-5-3.9-5.3-6.9
		C240.9,248.1,244.9,248.8,243.7,252.4z M248.6,245.4c0.5,4.9,0.1,8.1-4,7.4v-0.1C243.3,250.2,247.7,248.8,248.6,245.4z
		 M244.5,247.4c-1.3-3.2,1.9-4.3,3.2-7.4C247.7,243.4,248.5,248,244.5,247.4z M255.7,225c1.3-1.6,3.2-3,3.2-4.7
		c0.2-2.1,1.4-5.3,2.6-6.5s2.6,0.4,1.3,1.3c-1.4,0.9-2.3,4.7-2.2,6.2c-0.1,2.1-2.1,3.7-3.3,5.3C256.1,228,254.1,227,255.7,225z
		 M254,224.1c-1.1,1.5-2.6,0.5-1.7-1.8c0.7-1.6,0.9-3.7,1.7-4.9c1.3-1.8,3.2-3.3,4.4-4.5c1.3-1.1,2.1,0,1.1,1.1
		c-1.3,1.3-2.5,2.7-3.5,4.3C254.4,220.6,255.1,222.6,254,224.1z M249.5,198.6c0.5-4.1,4.6-2.8,7.2-4.6
		C256.4,197.6,252.5,199.6,249.5,198.6z M254,199.5c-1.2,3.9-5.3,5.7-7.7,4.7C247,199.5,249.7,201.3,254,199.5z M261.3,198.8
		c-3.9-0.4-2.3-7.1,0.5-10.7C260.7,193.2,264,196.7,261.3,198.8z M252.3,193.8c0.2-3.9,4.1-2.9,6.9-5
		C258.7,191,257.1,194.4,252.3,193.8z M258.4,193.5c-0.6,4.4,3,7.7,0,10.8v0.1C253.9,202.3,256.8,196.8,258.4,193.5z M259.2,203.8
		C259.2,203.8,259.2,203.9,259.2,203.8c1-2.8,4-2.3,7.9-5.5C266.1,203,261.6,207,259.2,203.8c0,0.1,0,0.1,0,0.1V203.8z M275.9,185.3
		c-3.6,5.2-5.4,9.1-10.6,8.4c0,0,0,0.1,0,0.1v-0.1c0,0,0,0,0,0C265.2,189.6,270.9,188.9,275.9,185.3z M273.6,180.5
		c-0.6,5.2-2.8,8.2-5.8,7.7C266.9,185,269.4,182.9,273.6,180.5z M265.8,181.8c-0.4,5.4,1.4,8.5-2.1,11.4
		C260.9,189.8,263.7,185.4,265.8,181.8z M264,173.4c0.1-0.3,1.8-0.3,2,0c0.2,0.5-0.2,1.9-0.9,1.9C264.5,175.2,263.9,174,264,173.4z
		 M270.5,192.9c-1,1.9-2.1,7.1-8,6h0.1C262.2,195.4,267.9,194.7,270.5,192.9z M255.3,270.3c-1.5,1.3-5-3.2-4.5-5.6
		c3.2,3.6,5.7,4.3,4.4,5.6H255.3z M260.7,276.5c-1.3,3.7-9.9-6.2-12.4-9.7C252.5,270.6,261.7,273.8,260.7,276.5z M262.3,281.4v0.1
		c-1.3,3.2-9.3-5.3-11.1-9.3C255.2,276.1,263.1,279.1,262.3,281.4z M240.1,274.2c-0.6,3-9.6-3.7-11.7-6.9
		C232.2,271,240.7,270.7,240.1,274.2z M240.5,263.3c2.3,5,3.1,9.1,0.2,9.8C238,271.8,241,268.7,240.5,263.3z M243.3,269.1
		c1.4,5,0.4,11.9-2,10.7l-0.1-0.1C238.3,278.5,243.3,274.4,243.3,269.1z M244.9,273.7c2.7,5,3.5,12.5,0.5,11.7
		C242.4,283.3,244.5,278.7,244.9,273.7z M252.4,276.7c1.8,3.3,4.3,4.6,4.5,7c0.2,2.9,0.4,3,1.2,5.7c-2.1-0.5-2.7-0.7-3.2-5
		C254.5,281.5,252.1,279.4,252.4,276.7z M256.7,280.3c3.9,3.9,9.3,3.4,8.5,6.1v0.1C264.1,289.7,257.7,283.6,256.7,280.3z
		 M264.1,282.1c-2.7-1.3,2.2-3.9,1.9-8.3C267.8,277.9,267,283,264.1,282.1z M298.8,161c-0.5,0.3-1.6-1.4-0.9-1.9v0.1
		C298.6,158.7,299.4,160.6,298.8,161z M298.8,155.2c1-1.4,2.3-2.6,3.8-3.5c0.4-0.2,1.1,0.4,0.9,0.7c-1.1,1.3-2.4,2.3-3.9,3
		C299.2,155.7,298.7,155.4,298.8,155.2z M306.4,174.1l-4.3-3.6l6,3l-4.7-5.5l7.4,4.8l-2.3-4l4.3,3.6l-1.6-6l4.7,5.5v-4.1l2.1,4
		l1.5-6l1.6,6l2.1-4v4.1l4.6-5.5l-1.6,5.8l4.3-3.5l-2.3,4l7.4-4.8l-4.6,5.5l5.8-3l-4.3,3.6l9.6-3.6l-9.4,4.6
		c-3.4-1.7-8.1-2.8-13.3-2.8c-4.6-0.1-9.2,0.9-13.4,2.8l-9.3-4.6L306.4,174.1z M341.4,198.4v-1.7h7.7v1.7H341.4z M349.1,200v14.7
		h-7.7V200H349.1z M341,194.7c-0.2-2.9,2.7-6,4.3-6c1.7,0.1,4.4,3.2,4.3,6H341z M314.8,179.4c-0.6-0.1-1.1-1-0.4-1.4
		c1.2-0.7,1.8-0.6,2.6-0.4c0.3,0.1,0.4,0.5,0.2,0.7c-0.3,0.3-1.1,0.3-1.2,0.7c-0.3,1.5,0,2.3-0.3,3.8c-0.3,1.5-1.4,1.5-1.3,0.3
		C314.4,181.7,315.8,179.5,314.8,179.4z M316.3,176.3v-0.1c-1.5,1.5-3,2-4.4,3.7c-0.6,0.6-0.5,1.6-1,2.6c-0.3,1-1.5,1.1-1.8,1
		c-0.5-0.4-0.4-2.1-1.1-1.3c-0.6,1-1,2.1-1.8,2.1c-0.7,0-2.1-1.6-1.4-1.6c2.4-0.3,2.3-2.1,3.2-2.3c1.1-0.1,1.1,1.6,1.8,1.3
		c0.4-0.2,0.7-2.2,1.3-2.8c1.6-1.7,2.9-2.6,4.6-3.8C316.5,174.4,317.2,175.5,316.3,176.3z M317,190.2c1-0.1,1.8-0.9,2.1-1.7
		c0.4-1.5,0.3-2.6,0.7-2.6c0.6-0.1,0.5,1.1,1.1,2.8c0.2,0.7,1.2,1.4,2,1.4c5.5,0.2,11.2,4,11.2,11.9c0,2.7-1,7.4-3.7,8.9h-21
		c-3-2.1-3.5-4.7-3.6-8.9C305.7,195.5,310.1,190.5,317,190.2z M326.3,180c0.2-0.2,0.5-0.2,0.7,0c0.4,0.5-0.2,2.4,0.2,2.6
		c0.9,0.1,1.4-0.9,1.4-1.7c0-1,0.9-1.1,1.1-0.7c0.6,1.3,0.3,1.9-0.4,2.9c-1,1.3-3.2,0-4.3,1.1c-1.6,1.7-1.7-2.8-1.9-2
		c-0.3,1.8-1.3,1.7-1.8,1.4c-0.4-0.1-0.6-1.7,0.6-1.9v-0.1c0.7-0.1,0.9-1.2,2.7-0.3c0.4,0.2-0.2,1.7,1.1,1.5
		C326.6,182.4,326,180.4,326.3,180z M326,178.1c0-0.7,0-1.5,0.2-2.4c0.1-0.2,0.6,0,0.9,0.1c0.2,0.3,0,1.6,0,2.4
		C327.1,178.3,326,178.6,326,178.1z M332.8,179.3c-0.4,1-0.2,3.2-0.4,4c0,0.4-0.9,0.4-0.9,0c-0.2-1.1,0.1-2.1,0-3.5
		c0-0.4-0.5-1.2,0-1.4v-0.1c1-0.2,0.6-0.2,2.1-1.4c0.5-0.4,0.6,0.9,0.5,1.4C334.2,179.1,333.1,178.5,332.8,179.3z M299.1,194.7h-8.5
		c-0.1-2.8,2.6-5.8,4.3-6C296.4,188.7,299.3,191.8,299.1,194.7z M291,198.4v-1.7h7.7v1.7H291z M298.7,200v14.7H291V200H298.7z
		 M300.6,217.1l7-5.4h24.5l7.4,5.3l15.5,0.3l-4.9,5.3l-60.6-0.2l-4.9-5.3H300.6z M348.6,243h-7.4l-1.5-2.6h10.2L348.6,243z
		 M349,245.1v2.6h-8.2v-2.6H349z M336.2,276.6h-7.8l-3.8-5.8h-0.1l0,0h-4.9l2.2,5.7h-5.3l-1.4-5.7l0,0v0h-6.6v6.2h-23.6h-0.1
		c3.3-3.1,5.4-5.6,5.4-9.4h8.1c0,2.1,0.7,3.3,1.9,3.2h8.2v-4.8h-6v-26.3c-0.2-9.4,11.3-14.7,16-14.7h-28v-0.9h58.8v0.9h-28.2
		c8.4,0,16.5,8,16.6,14.7v7.4h-1.1l-0.1-7.3c0-7.3-9.3-14.1-16.7-13.9c-6.4,0.1-16.4,6.3-16.3,13.8v2.3l15.2,0.1l-0.1,2.7l2.3,1.5
		l4.8,1.5v4l3.4,1v3.9l4,1.8v4l2.7,1.6l-0.1,4.1l3.5,2.4H331L336.2,276.6z M298.9,243h-7.4l-1.3-2.6h10.2L298.9,243z M299.3,245.1
		v2.6h-8.2v-2.6H299.3z M290.6,238.3v-11.7h8.5v11.7H290.6z M290.3,265.8v-5.2h9.3v5.2H290.3z M301.4,233.8l0.1-6.4h5.1
		C304.4,229.2,302.7,231.3,301.4,233.8z M349.5,226.6v11.7H341v-11.7H349.5z M338.6,233.8c-1.2-2.5-3-4.7-5.2-6.4h5.1L338.6,233.8z
		 M337.5,250.9v7.6h-1.1v-7.6H337.5z M340.8,267.4h8.8c0,3.4,2.1,7,4.8,9h-17C340,274.1,340.8,271.2,340.8,267.4z M349.8,265.8h-9.3
		v-5.2h9.3V265.8z M374.8,193.7C374.8,193.7,374.8,193.7,374.8,193.7l0,0.1C374.8,193.8,374.8,193.8,374.8,193.7
		c-5.2,0.7-7-3.2-10.6-8.4C369.1,188.9,374.9,189.6,374.8,193.7z M366.5,180.5c4.1,2.3,6.7,4.5,5.8,7.7
		C369.3,188.7,367.1,185.8,366.5,180.5z M374.3,181.8c2.1,3.6,4.9,8,2.1,11.4C372.9,190.3,374.7,187.2,374.3,181.8z M378.2,188.1
		c2.9,3.6,4.5,10.3,0.5,10.7C376.1,196.7,379.4,193.2,378.2,188.1z M383.3,194.1c2.7,1.8,6.7,0.4,7.2,4.6
		C387.6,199.6,383.6,197.6,383.3,194.1z M393.7,204.2c-2.3,1.1-6.5-0.7-7.7-4.7C390.3,201.3,393.1,199.5,393.7,204.2z M381.7,193.5
		c1.6,3.3,4.5,8.8,0,11v-0.1C378.7,201.2,382.4,197.9,381.7,193.5z M380.9,188.8c2.8,2.1,6.7,1.1,6.9,5
		C383,194.4,381.4,191,380.9,188.8z M380.8,203.9C380.8,203.9,380.9,203.8,380.8,203.9L380.8,203.9
		C380.9,203.9,380.8,203.9,380.8,203.9c-2.3,3.1-6.9-0.9-7.8-5.6C376.9,201.6,379.9,201.1,380.8,203.9z M381.2,220.3
		c0,1.7,1.9,3.1,3.2,4.7c1.6,2-0.4,3-1.5,1.6c-1.2-1.6-3.2-3.2-3.3-5.3c0.1-1.5-0.9-5.3-2.2-6.2c-1.3-0.9,0.1-2.4,1.3-1.3
		S381,218.2,381.2,220.3z M381.7,213c1.2,1.2,3.1,2.7,4.4,4.5c0.9,1.2,1,3.3,1.7,4.9c0.9,2.3-0.6,3.3-1.7,1.8
		c-1.1-1.6-0.4-3.5-1.9-5.8c-1-1.5-2.2-3-3.5-4.3C379.6,213,380.4,211.9,381.7,213z M369.6,192.9c2.6,1.8,8.3,2.6,7.9,6h0.1
		C371.7,200,370.6,194.8,369.6,192.9z M371.9,278.6c-0.2,4.8,3.9,6.3,1.8,7.4v0.1C371,287.5,370,282.3,371.9,278.6z M374.1,273.8
		c-0.3,4.4,4.6,7,1.9,8.3C373.1,283,372.3,277.9,374.1,273.8z M389.3,264.7c0.5,2.4-3,6.9-4.5,5.6h0.1
		C383.5,268.9,386.1,268.3,389.3,264.7z M391.8,266.8c-2.6,3.5-11.2,13.4-12.4,9.7C378.4,273.8,387.6,270.6,391.8,266.8z
		 M388.8,272.2c-1.8,3.9-9.8,12.4-11.1,9.3v-0.1C376.9,279.1,384.9,276.1,388.8,272.2z M383.2,283.7c0.2-2.4,2.7-3.7,4.5-7
		c0.3,2.8-2.1,4.8-2.4,7.8c-0.5,4.3-1.1,4.5-3.2,5C382.8,286.7,383,286.6,383.2,283.7z M395.2,273.7c0.3,5,2.4,9.6-0.5,11.7
		C391.7,286.3,392.6,278.7,395.2,273.7z M396.8,269.1c0,5.3,5,9.4,2.1,10.6l-0.1,0.1C396.4,281,395.4,274.1,396.8,269.1z
		 M399.4,273.1c-2.9-0.6-2.1-4.8,0.2-9.8C399.1,268.7,402,271.8,399.4,273.1z M411.7,267.3c-2.1,3.2-11.1,9.9-11.7,6.9
		C399.4,270.7,407.9,271,411.7,267.3z M395.5,252.8v0.1c-4.1,0.6-4.6-2.6-4-7.4C392.4,248.8,396.8,250.2,395.5,252.8z M392.4,240
		c1.3,3.2,4.5,4.3,3.2,7.4C391.6,248,392.4,243.4,392.4,240z M401.9,240.3c-0.6,4.7-2.1,7.8-5.3,7.4
		C396.5,243.3,399.1,244.7,401.9,240.3z M401.4,232.7c-0.2,3.8,0.5,9.8-4.3,10.3v0.1C396.1,238.7,399.9,237.9,401.4,232.7z
		 M401.7,245.5c-0.3,3-2.2,8.1-5.3,6.9C395.2,248.8,399.2,248.1,401.7,245.5z M407.2,237.5C407.2,237.5,407.2,237.5,407.2,237.5
		l0,0.1C407.2,237.6,407.2,237.6,407.2,237.5c-3.8,0.1-4.2-5.4-4-7.8C404.1,232.1,408.4,234.2,407.2,237.5z M404.3,224
		c1.4,4.5,3.7,3.5,3.1,8.1C403.1,231.2,403.6,228.4,404.3,224z M407.1,242.5c-4.1,0.7-4.6-2.4-4-7.3
		C403.9,238.6,408.4,239.9,407.1,242.5z M406.5,248.5v-0.1c-4,1.1-4.6-2.7-4-7.8C403.6,244.6,408.1,245.5,406.5,248.5z M407.2,249.5
		c-1.4-4.3,4-5.1,7.4-10.7C412,244.1,410.9,250.4,407.2,249.5z M408.3,243.5c-1.6-3.5,3.1-3.9,7.7-11.7
		C414.2,237.9,411.5,243.9,408.3,243.5z M408.3,232.3h-0.1c-0.5-5.2,6-8,7.3-13.2C415.3,223,412.7,232.7,408.3,232.3z M414,214.6
		c-0.5,3.8-1.6,12.5-5.8,12v0.1C407.7,222,412.6,219.8,414,214.6z M408.6,210.9c1.1,3.8,2.7,8.9-0.4,10.8
		C405.8,219.1,407.9,214.9,408.6,210.9z M406,200.6c0.4-1.1,1.9-0.4,1.3,0.4c-0.6,1-0.7,3-0.2,3.9c0.6,1.4,0.4,3.2,0.2,4.6
		c-0.2,1.3-1.8,1.4-1.3-0.4c0.4-1.2,0.4-2.4,0-3.6C405.5,203.9,405.5,202.2,406,200.6z M405.2,220.7c1.5,1.9,2.6,2.7,2.1,5.9
		c-2-1.1-2.4-3-2.7-4.9c-0.1,0.1-0.1,0.2-0.2,0.3v-0.1c-1.8,1.7-4.2,4.6-6.5,7.7c1,3.2,1.9,6.5-0.9,7.8c-1.6-1.1-1.8-2.7-1.5-4.6
		c-0.6,0.9-1.2,1.7-1.8,2.6c1.6,2.3,2.9,3.5,2.6,6.9c-2.7-0.1-3.5-2.4-3.7-5.2c-1,1.5-1.8,2.9-2.3,3.8c-1.6,3.1-2.9,5.5-2.9,9.1
		c-3.6-4.3-4.7-10.6-3.6-14.7c1.3-4.4,3.5-8.9,6-13.1c-3-7.2-7.4-9.2-11.9-12.9c-1.7-1.3,0-2.8,1.1-1.9c1.4,1.1,3,3.2,3.5,3.2
		c1-0.1,0.1-2.2-0.3-3.7c-0.4-1.7,1-1.4,2-1.1c1.6,0.6,1.7,3.7,2.1,5.5c0.5,1.7,1.6-2.8,2.7-4.4c0.7-1,1.8,0.6,1.5,1.3
		c-1.7,3.2-0.5,8.3,0.2,12.6c1.3-2.2,2.6-4.3,3.9-6.3c1.4-1.9,1.9-0.7,2.1,0.2c0.5,1.4,0,4.6,1.1,5.3c1.2,1,4.1-0.1,5.6-0.1
		c0.4,0,0.7,0.1,1,0.1c-0.1-0.3-0.1-0.6-0.2-0.9c0.2,0.4,0.4,0.7,0.7,1C405.1,220.2,405.3,220.4,405.2,220.7z M402.3,205.1
		c-0.9-2.3-0.9-6.7-0.4-8.9c0.4-2.3,2.1-0.9,1.4,1c-0.6,2.1,0.1,6,0.6,8c1.6,5.7-1.3,8.5-1.1,11.4h-0.1c0.1,2.1-1.6,2.6-1.5-0.4
		C401.3,212.9,403.6,209.9,402.3,205.1z M398.1,191.5c-0.6-1.3,1-2.2,1.5-0.5c0.4,1.6,0.6,5.4,0,7.7c-0.4,1.8-0.4,3.5,0,5.6
		c0.5,2.7-1.2,2.6-1.4,0.5v0.1c-0.3-2-0.4-5,0.2-7.1C398.9,195.7,398.8,193.5,398.1,191.5z M398.8,211.8c-2.6,0.6-5.3-2.2-4.4-6.6
		C397.5,205.9,398.7,208.6,398.8,211.8z M395,204.6c-2.9-2.4,0.6-10.8,1.9-20C396.9,194.4,398.4,204.9,395,204.6z M393.9,180.7
		c-0.2,5.1,1.9,17.4-1.7,18.5C389.5,198,392.9,185.1,393.9,180.7z M389.8,177.1c0.7,4.6,2.9,16.1-0.7,17
		C386.5,192.6,389.1,181.9,389.8,177.1z M386.2,171.4c1.1,4.6,3.1,15.4,0.3,16.8C384.1,185.5,385.4,177.2,386.2,171.4z M385.4,188.7
		h0.1c-4.7,1.6-8.5-3.4-9.7-9.3C379.7,184.8,386,184.8,385.4,188.7z M384.2,183.7c-3.1,0.5-5-2.8-4.6-8.6
		C383.1,178.3,385,180.5,384.2,183.7z M377.8,164.8c1.1-4.3,3.8,0.6,1.4,3c-3.6,3.6-4.8,10.5-10.6,11.6c-1.5,0.3-4.3-0.7-5.1-1.4
		c-0.3-0.2,0.2-1.7,1.2-1c1.4,1.1,4.4,1.4,6,0.1C374,173.8,376.5,169.5,377.8,164.8z M366,157.9c-0.7-0.5,0.6-3.2,1.6-2.1
		c0.9,1.1,1.6,3.1,2.3,5.5c0.5-0.9,0.9-1.7,1.4-2.4c0.5-1.2,2.1-0.1,1.1,1.4c-0.7,0.9-1.3,2-2,3.2c0.3,1.4,0.5,2.9,0.8,4.5
		c1.7-3,3.3-6,3.8-7.1c0.4-1.1,2.1,1.9,0.4,3.5c-0.8,0.7-2.4,3.1-3.9,5.6c0.2,1.8,0.4,3.7,0.6,5.4c0,0-1.1,1-1.1,0.7
		c0-1-0.1-2.7-0.4-4.7c-0.9,1.6-1.7,3.1-2,4c-0.4,1.1-1.5,0.5-1.1-0.9c0.2-0.5,1.4-2.7,2.7-5.1c-0.2-1.4-0.5-2.8-0.9-4.2
		c-1.4,2.7-2.8,5.6-4.5,7.8c-1.1,1.4-3.2,2.9-4.3,2.6c-2-0.6-0.7-6.6-2.3-5.2c-1.6,1.4-7.2,2.7-7.4-1.4c-0.2-2.3,1.2-1.1,1.4-0.2h0
		c0.3,1.5,1.1,1.5,1.8,1.5c1.4,0.1,2.8-0.4,3.9-1.3c1.4-1.2,2.4,0.1,2.6,1c0.1,1.3-0.7,5.1,1.9,3.4c2.3-1.5,4.5-6,6.4-10
		C368.1,160.9,367.1,158.9,366,157.9z M364.1,166.9l-4.1,0.2c-0.9-0.1-0.5-1.2-0.2-1.2v0.1c1.1-0.3,2.7,0,3.9,0
		C364.7,166,364.5,166.9,364.1,166.9z M362.3,163.1c-0.1,0-1.2-0.2-1.2-1.1c-0.1-1.1,1-1.1,1.1-0.8c0,0,0-0.1,0-0.1v0.1c0,0,0,0,0,0
		C362,162.4,363.8,161.9,362.3,163.1z M362.5,153.5c-2.2,4.4-4.4,8.7-6.7,13.1c-0.9,1.5-1.5,0.7-0.9-0.4c0.7-1.5,5.2-12.8,5.4-13.1
		C361.2,151.8,363.3,151.7,362.5,153.5z M356.7,151.7c0.9,2.3-0.2,2.2-1.1,3.8c-0.7,1.4-1.5,5.1-2.9,9c-1.1,3.3-4.8,4.5-8.1,3.8
		c-2.6-0.5-1.7-1.6-1.3-1.6c4,0.4,6.7-0.6,8-3.4c0.7-1.4,3-9.6,3.5-12C355.1,150.4,356.2,149.9,356.7,151.7z M351,150.7
		c0.9-0.5,2.6-0.5,3.6-0.5c0.3,0,0.4,0.5,0.2,0.7c-1.1,0.6-2.3,0.9-3.5,0.9C351,151.8,350.8,150.9,351,150.7z M350.2,153.9l0,0.1
		c0.3,0.7,0.9,0.9,1.4,0c0.4-1,1.2-0.2,1.2,0.6c0,1.2-1.6,1.1-2.3,1.1c-0.6,0-1.2-0.4-1.3-1.1C349,153.9,349.8,153.1,350.2,153.9z
		 M341.2,146.2c1.7,2.1,3.4,6.9,4.7,7.3c0.7,0.2,0.6-3.6,1.2-5.3c0.4-1.4,1.9-1,1.7,0.7c-0.1,0.5-2.1,6.8-1.9,7
		c1.4,2.7,2.6,5.4,3.5,8.3c0.3,1.3-1.2,0.4-1.4,0.2c-1-1.5-2.6-6.9-2.6-6.6l-1.8,8.2c-0.2,1.1-1.8,0.9-1.4-1.1
		c0.3-1.5,2.4-8.8,2.3-9.1c-1.2-2.6-3-4.9-5.3-6.7h0C338.4,148.1,340.2,145.2,341.2,146.2z M334.3,144.7c1,0,1.1,1.7,0.2,1.9
		C333.9,146.8,333.4,144.8,334.3,144.7z M332.9,149.7c0.3,0.4,0.3,1.2,0.9,0.6c0.9-0.9,0.6-0.7,1.1-0.2c0.5,0.6,0.7-0.9,0.9-1.7
		c0.3-1,1.1,0.3,1.1,1.7c0,1.3-1.2,1.3-2.6,1.3c-1.4,0.1-2.1,0.2-2.1-1.3c0,0,0,0,0,0l0-0.1c0,0,0,0.1,0,0.1
		C332.1,149.9,332.7,149.4,332.9,149.7z M329.7,163.4c0.4,0.6,3.2-0.6,3.6-1.6c0.9-1.8,0.1-5.1,0.4-7.1c0.1-1.3,1.4-1.6,1.3-0.3
		c-0.2,2.7-0.2,5.3-0.1,8c0,1.1,3.1,2.6,3.5-0.6c0.2-1.9,1.3-3.9,0-6.1c-0.9-1.4,1.2-1.3,2.2,0.6c0.7,1.3-0.6,3.4-0.5,5
		c0,2.6-1.9,4-3.3,4c-1.3,0-2.1-1.6-3.2-1.6s-2.3,1.8-3.2,1.7c-3.8-0.2-1.8-5.6-3-5.7c-1.3,0-2.7,5.3-4.3,5.2
		c-1.5-0.2-3.2-4.5-2.4-6.2c0.5-1.7,1.6-2.1,1.5-1.1h0c-0.3,2,0,4.8,1,4.8c1.3,0,3.8-4.3,5.1-6.6c0.7-1.3,1.9-1.5,1.4-0.1
		C329,157.8,329.1,162.1,329.7,163.4z M329,145.2c0.3-0.3,1,0,0.9,0.9c-0.1,0.7-1.1,1.3-1.6,1.8c-0.5,0.3-1.1-0.4-0.7-0.7h-0.1
		C328,146.6,328.4,145.8,329,145.2z M317.5,145.1c0.6-1.4,1.5-2.7,2.7-3.6c0.5-0.3,1.4,0,1.2,0.4c-0.3,1.1-2,2.8-3.1,3.5
		C317.9,145.8,317.4,145.5,317.5,145.1z M312.9,144.9v-0.1c0.3-0.6,2.2-1.4,2.8-1.8c0.4-0.5,0.6,0.4,0.4,0.7c-0.3,0.7-2,1.8-2.8,1.9
		C313,145.7,312.7,145.2,312.9,144.9z M315.8,148.9c-0.5,0.2-1.5,0.2-2.1,0c-0.2-0.1-0.4-0.6-0.1-0.9c0.6-0.2,1.1,0,1.7-0.9
		C316.1,145.8,316.4,148.4,315.8,148.9z M305.6,161.8c1.9,0,6-2.6,6.8-4.7c0.9-2.1-2-6.3-2.9-8.5l0,0.1c-0.9-1.9,1.2-2.6,1.5-1.3
		c0.9,4,2.6,7.3,4.4,10.3c0.8-1.2,1.8-2.4,3-2.9c0.9-0.3-2.6-0.4-3.6-0.7c-0.9-0.2-0.6-1.4-0.3-2c0.4-0.9,3.6-4.1,5-4
		c1.2,0,2.4-0.3,2.6-1.1c0.1-1.1-1.7,0-1.7-1.4c0-0.7,2-1.3,2.9-0.4c1.4,1.5,0.3,3.9-2.1,4.1c-1.9,0-5.3,2.9-4.8,3.4
		c0.5,0.7,5.7,1.2,8.8,0.7c1.9-0.3,1.5,1.4-0.4,1.6c-1.9,0.2-3.4,0-5.1,0.6c-1.7,0.4-2.5,2.1-3.4,3.4c0.8,1.2,1.5,2.3,2.2,3.5
		c0.7,1.3,0,2.1-1.8,0.9c-1.3-0.9-2.7-4.1-3.2-4.3c-1.3-0.2-4,5.3-9.7,3.7c-0.2,0-0.3-0.1-0.4-0.3c-1.3,1.6-2.7,3.1-3.8,4.2
		c-0.7,0.7-1.4-1.1-0.4-2c1.3-1.1,2.5-2.3,3.6-3.5c-0.4-1.6-0.4-3.8-0.4-5.1c0-1,1.1-1.1,1.1,0c0,1,0,2.6,0.4,3.9
		c0.9-1.1,1.7-2.2,2.5-3.4c0.4-0.5,0.7-1.7-0.4-2.7c-1.4-1.1,0.4-2.6,1.8-1.5c1.8,1.3-0.4,5.2-3.2,8.8
		C304.7,161.6,305.1,161.8,305.6,161.8z M293.6,163.6c0.1-1.4-0.6-3.1-1.5-4.8c-1,0.6-2,1.2-2.9,1.8c-0.9,0.5-2.1-0.6-1.1-1.3
		c1.1-0.5,2.2-1.2,3.3-1.9c-1.6-3-3.5-6-3.6-8.3c0-1.5,2.1-1.6,1.9,0.4c-0.2,1.4,1.5,4.2,3,7c1.8-1.4,3.3-3,3.6-4.7
		c0.3-0.9-3.6,0.1-3.9-1.3c-0.2-0.9-0.3-3.4,1.1-3.7c2.6-0.5,2.2,2.7,3.4,2.7c1,0,2.6-1.5,2.8-2.6c0.6-3,1.2-0.7,2.1,0.3
		c1.2,1.6,1.5,0.3,2.2-1.1c0.2-0.3,0.6-0.2,0.9-0.2c0.6,0.3,0.4,0.9,0.6,1.1c0.4,0.2,0.9,0,1.1-0.2c0.1-0.4-0.1-1.1,0.1-1.7
		c0.5-1.4,1.3-1.2,1.3-0.3c0,1.5,0.3,2.2-0.3,3.6c-0.5,1.2-2.8-0.6-3.4,0.4c-1.1,2-2.8-0.5-3.8,0c-1.2,0.4-2.3,2.4-2.7,3.7
		c-0.6,2.3-2.4,3.9-4.3,5.3c0.8,1.6,1.4,3.1,1.6,4.4c0.3,2.7-1.6,4.9-3.4,6.4c-2.1,1.5-4.9,1.7-7.2,0.5c-1-0.9-1.8-3.5-1.1-4.6
		c0.2-0.3,1.4,3.9,3.9,3.9C290.7,168.6,293.6,166,293.6,163.6z M282.9,153.7c0.3-1.1,0.9-1.7,1.4-2.8c0.3-0.4-1.6-0.1-0.5-1.5
		c0.2-0.3,1.4-0.3,1.8,0.7c0.5,1.1-1.4,3.2-2.3,4.3C283,154.7,282.8,154.1,282.9,153.7z M279.5,153.9c0.5,1.4,5.8,8.4,6.9,10.7
		c0.9,1.6,0,2.2-1,1.1c-2.7-3.4-4.9-7.7-7.8-11.3v0C276.9,153.3,278.8,151.6,279.5,153.9z M274.7,154.7c0.3-0.2,0.5,0.3,0.5,0.6
		c-0.2,0.8-0.6,1.5-1.3,2c-0.2,0.1-0.5-0.3-0.5-0.5C273.6,156,274.1,155.2,274.7,154.7z M269.8,165c0.3-0.3,0-1.6,0.4-1.6
		c0.9-0.2,1.3,0.7,2,0.1c0.5-0.6-1.1-1.6-1.6-1.8c-0.7-0.4,0.4-1,0.9-1c0.8,0.4,1.4,1,1.8,1.8c1,2.6-2.8,1.6-2.4,2.6
		c0.5,1.6-1.7,1.2-2.6,0.7c-0.5-0.3,0.3-1.1,0.5-1.1v-0.1C269.1,164.6,269.8,165.2,269.8,165z M269.1,162c-0.6,1.2-1.5-1.5-1.5-1.5
		S269.5,161.3,269.1,162z M267.5,178.6c0.6,0.6,1.8,0.5,1.6-1.2c-0.3-1.7-0.7-4.6-0.5-5.8c0.2-1,1.4-1,1.8-0.4
		c0.7,1.4,3,4.3,3.9,4.3c0.9,0,2-2.3,1.9-3.4c-0.1-1.3-2.7-3-3.3-4.1c-0.4-1.1,0.6-1.6,1.1-1.4c1.3,0.7,2.6,4.1,4,5
		c0.6,0.3,2.2-1,2.1-1.6c-0.3-1.3-2.6-3.3-3.8-4.4c-1-0.6-0.2-3,1.3-1.7c1.2,1.1,3.7,3.3,3.9,4.9c0.3,1.7,0.1,4.3-1.9,4
		c-3.2-0.4-2.4,4.9-5.3,4.5c-1.3-0.2-3.7-3.7-4.3-3.2c-0.7,0.5,0.9,5.1,0,6.4c-0.5,1-2.7,0.3-3.2-0.2
		C265.8,179.4,267.1,178.2,267.5,178.6z M263,166c0.4-0.7,2.9,0.7,3.2,1.4c0.3,0.7-1.5,2.8-1.9,3.2c-0.2,0.2-1.5-0.6-1.1-1.1
		c0.5-0.6,1.4-1.3,1.6-1.4C265.4,167.8,262.3,167.1,263,166z M260.5,175.1c0.4,5.8-1.5,9.1-4.6,8.6
		C255.1,180.5,257,178.3,260.5,175.1z M264.2,179.5c-1.2,5.8-5,10.8-9.7,9.3h0.1C254.1,184.8,260.4,184.8,264.2,179.5z M253.9,171.4
		c0.7,5.8,2.1,14.1-0.3,16.8C250.8,186.8,252.8,176,253.9,171.4z M250.3,177.1c0.7,4.8,3.3,15.4,0.7,17
		C247.4,193.2,249.5,181.7,250.3,177.1z M246.1,180.7c1.1,4.5,4.5,17.3,1.7,18.5C244.2,198.1,246.3,185.8,246.1,180.7z M243.1,184.6
		c1.3,9.1,4.8,17.5,1.9,20C241.7,204.9,243.1,194.4,243.1,184.6z M241.2,211.8c0.1-3.2,1.4-6,4.4-6.6
		C246.6,209.6,243.8,212.4,241.2,211.8z M240.5,191c0.5-1.7,2.1-0.7,1.5,0.5c-0.7,2-0.9,4.2-0.3,6.3c0.6,2.1,0.5,5.1,0.2,7.1l0-0.1
		c-0.2,2-1.9,2.1-1.4-0.5c0.4-2.1,0.4-3.8,0-5.6C239.9,196.4,240.1,192.6,240.5,191z M236.1,205.1c0.5-2,1.3-5.8,0.6-8
		c-0.7-1.8,1-3.3,1.4-1c0.4,2.2,0.4,6.6-0.4,8.9c-1.3,4.8,1.1,7.8,1.1,11c0.1,3-1.6,2.6-1.5,0.4h-0.1
		C237.4,213.6,234.5,210.9,236.1,205.1z M235.3,220.1c0.2-0.3,0.4-0.6,0.7-1c-0.1,0.3-0.2,0.6-0.2,0.9c0.3-0.1,0.6-0.1,1-0.1
		c1.5,0,4.5,1.1,5.6,0.1c1.1-0.7,0.5-3.9,1.1-5.3c0.2-1,0.7-2.1,2.1-0.2c1.2,2,2.6,4.1,3.9,6.3c0.7-4.3,1.9-9.4,0.2-12.6
		c-0.3-0.6,0.7-2.2,1.5-1.3c1.1,1.6,2.1,6.1,2.7,4.4c0.4-1.8,0.5-4.9,2.1-5.5c1.1-0.3,2.4-0.6,2,1.1c-0.4,1.5-1.3,3.6-0.3,3.7
		c0.5,0,2.1-2.1,3.5-3.2c1.1-0.9,2.8,0.6,1.1,1.9c-4.5,3.7-8.9,5.8-11.9,12.9c2.4,4.2,4.7,8.7,6,13.1c1.1,4,0,10.4-3.6,14.7
		c0-3.6-1.3-6.1-2.9-9.1c-0.5-0.9-1.3-2.3-2.3-3.8c-0.3,2.8-1,5.1-3.7,5.2c-0.3-3.4,1.1-4.6,2.6-6.9c-0.6-0.8-1.2-1.7-1.8-2.6
		c0.3,1.8,0.1,3.4-1.5,4.6c-2.8-1.3-1.9-4.6-0.9-7.8c-2.3-3.1-4.6-6-6.5-7.7v0.1c-0.1-0.1-0.1-0.2-0.2-0.3c-0.3,1.9-0.6,3.8-2.7,4.9
		c-0.5-3.2,0.6-4.1,2.1-5.9C234.8,220.4,235,220.2,235.3,220.1z M232.8,201.1c-0.6-0.9,0.9-1.5,1.3-0.4c0.5,1.6,0.5,3.3,0,4.9
		c-0.4,1.2-0.4,2.4,0,3.6c0.5,1.8-1.1,1.7-1.3,0.4c-0.2-1.4-0.4-3.2,0.2-4.6C233.6,204,233.5,202,232.8,201.1z M231.5,210.9
		c0.7,4,2.9,8.3,0.4,10.8C228.8,219.8,230.4,214.7,231.5,210.9z M231.9,226.7v-0.1c-4.3,0.5-5.3-8.2-5.8-12
		C227.5,219.8,232.4,222,231.9,226.7z M231.9,232.3h-0.1c-4.4,0.3-7-9.4-7.2-13.2C225.9,224.4,232.4,227.1,231.9,232.3z
		 M231.8,237.9c-4.9,0.9-4.6-7-8.5-12.7C226.7,229.5,232.8,234.8,231.8,237.9z M223.7,237.4c0.7,1,0.6,1.7,1.3,3.2
		c0.6,1.3,0.3,1.5,1.4,2.6c1.1,1.4-0.2,2-1.1,1.1c-0.9-1-0.5-1.8-1.6-3.4c-0.4-1-0.2-1.6-1.1-2.7C222,237.4,222.9,236.4,223.7,237.4
		z M233.7,264.9c-3.5,2.1-9.1-6.4-10.6-9.9C226.1,259,234.3,262.6,233.7,264.9z M236.8,269.8c-2,2.1-8.2-3.7-10.3-6.7
		C229.6,265.9,237.6,266.3,236.8,269.8z M238.8,277.5h-0.1c-1.4,2.7-8.7-4-10.5-7.4C232.7,273.9,239.9,274.9,238.8,277.5z M229,274
		c4.3,3.6,11.4,4.8,10.6,7.2C238.6,284.4,230.3,277,229,274z M232.1,279.3c5.2,4.3,13.2,3.8,12.5,7
		C243.5,289.5,234.7,283,232.1,279.3z M249.7,291.6c-1.4,4.6-10.5-2.8-13.2-6.4C242.3,289.7,250.4,288.4,249.7,291.6z M244.9,293.4
		c-1.1,1.7-3.4-1.4-7.4-3.7C241,290.7,245.3,291.8,244.9,293.4z M239.1,294.7c-0.7-1,0-0.6,0.6-0.6v0.1c3.5,0.7,7.1,0.7,10.5,0
		c6.5-1.6,11.9-5.7,18.3-6.8c4.7-0.8,9.5,0.2,13.5,2.9c1.6,1.2,3,2.9,4.3,4c1.3,1.3,0.2,1.3-1.5,0.7c-1-0.3-2-0.5-3-0.6
		c1.4,2.9,1.8,6.5-0.5,5.9h0.1c-1.8-0.3-1-2.6-1-6c-0.8,0-1.5,0-2.3,0.1c0.9,1.1,1,2.5,0,3.2c-1.5,0.9-2.6-0.6-3.3-2.4
		c-0.7,0.2-1.3,0.5-1.9,0.8c-6.3,3.5-8.4,6-17.2,7.1C246.9,304.2,245.2,302.1,239.1,294.7z M264.4,303.5c3.8,3.5,7.4,6,5.3,7.8
		C266.7,313.2,266.9,307.4,264.4,303.5z M264.3,308.5v0.1c-2.1,1.3-4.9-3.7-5.3-6C262.3,303.5,266.3,307.1,264.3,308.5z
		 M269.8,312.9c1.1,2.9-8.8,2.1-12.3,0.5C263.1,313.5,269,310.9,269.8,312.9z M274.4,315.1c1.1,2.6-8.1,2.6-12.5,1.1
		C267.8,316.1,273.4,312.5,274.4,315.1z M268.2,303.3c3.8,4.3,9.4,8.2,7,10v0.1C272.7,315.6,270.6,307.7,268.2,303.3z M271.7,302.7
		c3.5,4.1,12.5,10.6,10.8,12.8C280.4,318,274,308.1,271.7,302.7z M271.7,297.8c5.1,1.6,7.8-0.3,8.1,2.4
		C280.1,303.7,274,301.1,271.7,297.8z M283.1,304.3v0.1c0.3,3.3-7.4,0.3-9.9-2.2C278.5,303.9,282.8,301.7,283.1,304.3z M276.2,306.1
		c5.1,2.2,10.4,0.4,10.6,3.2C287.1,312.7,278.4,308.9,276.2,306.1z M284.1,295.5c3,2.6,3.5,10.1,0.4,9.4
		C282.2,304.1,285.6,300.5,284.1,295.5z M247.1,303.5c5,1.7,11.2,0.9,11.5,3.6C258.9,310.5,249.4,306.7,247.1,303.5z M265,310.9
		c0.2,3.1-10.1,1.4-12.8-1.5C261,311,264.6,308.3,265,310.9z M366.2,324.2c1.2,2.9-3,6-13,7.4c-1.1,0.1-1.9,0.5-0.9,2.7
		c0.4,0.9,0.3,1.5,1.2,2.6c0.6,0.7-0.3,1.5-1.4,0.7c-2.7-1.9-9-1.9-13.3,0c-2.2,1-5.3,0.7-6.2-0.2c-1.2-1.2-1.4-4.6-3.5-4.3
		c-3.7,0.4-16.1,0.3-18.6-0.1c-1,0.1-2.6,1.6-2.6,3.7c0,2-2.6,2.1-4,1.7c-6.1-1.9-12.4-4.1-16.3-0.7c-1.1,0.9-2.2-0.3-1.1-1.4
		c1.1-1,0.6-1.4,1.2-2.4c0.3-0.5,0.3-2.4-1.1-2.4c-3.2,0-8.2-1.9-8.5-2.1c-5-1.8-5.5-3.6-4.7-5c-5-0.5-14.9-5.6-16.3-8.6
		c8.1,4.2,16.7,4,18.7,6.2c1.3-1,2.6-2.1,4-3.3c-2.5,1-7.9,0.8-10-0.3c5.5-0.7,9.8-4.3,11.2-1.8c0.2,0.4,0.2,0.7,0.2,1
		c1.3-1.1,2.7-2.3,4-3.5c-1.4-0.6-2.7-1.5-3.5-2.6c2.1,0.4,4.2,0.4,6,0.3c0.4-0.4,0.8-0.8,1.3-1.2c1.4-1.5,2.9-2,4.3-1.5l0,0.1
		c5,2.1,17.2,6.2,26.2,6.2c9.3-0.3,18.4-2.4,26.9-6.3c0.4-0.2,0.7-0.3,1-0.4c-0.1-0.1-0.2-0.2-0.3-0.4c-0.9-2.4-0.2-4.3,0.9-4.1
		c0.6,0.2,1.4,0.9,1.9,1.7c0.1-2.1,0.9-4.5,2.4-6c-1.4,4.7,2.1,8.9-0.1,9.6l-0.1,0.1c-1.2,0.3-1.9-0.7-2.1-2.2
		c-0.1,0-0.2,0.1-0.4,0.1c-0.6,0.1-1.1,0.8-1.5,1.2c1.2-0.2,2,0.3,2.9,1.3c0.6,0.7,1.2,1.3,1.9,1.9c1.7,0,3.6,0,5.6-0.3
		c-0.8,1-2,1.8-3.3,2.5c1.2,1.2,2.5,2.3,3.8,3.4c0-0.2,0-0.5,0.2-0.8c1.4-2.4,5.6,1.1,11.2,1.8c-2.1,1-7.3,1.2-9.8,0.3
		c1.3,1.1,2.6,2.2,3.9,3.3c1.9-2.3,10.6-2,18.8-6.3C381.4,318.7,371.1,324,366.2,324.2z M355.6,304.9c-3.1,0.7-2.6-6.8,0.4-9.4
		C354.5,300.5,357.9,304.1,355.6,304.9z M363.9,306.1c-2.1,2.8-10.8,6.6-10.6,3.2C353.4,306.6,358.7,308.4,363.9,306.1z
		 M381.1,302.6c-0.4,2.2-3.2,7.2-5.3,6v-0.1C373.7,307.1,377.8,303.5,381.1,302.6z M370.3,311.2c-2.1-1.8,1.5-4.3,5.3-7.8
		C373.2,307.4,373.4,313.2,370.3,311.2z M370.2,312.9c0.9-2,6.7,0.5,12.3,0.5C379.1,315.1,369.2,315.8,370.2,312.9z M378.2,316.1
		c-4.5,1.5-13.6,1.5-12.5-1.1C366.7,312.5,372.3,316.1,378.2,316.1z M364.8,313.4v-0.1c-2.3-1.8,3.2-5.7,7-10
		C369.5,307.7,367.4,315.6,364.8,313.4z M357.6,315.5c-1.7-2.1,7.3-8.6,10.8-12.8C366.1,308.1,359.7,318,357.6,315.5z M360.3,300.3
		c0.3-2.8,3-0.9,8.1-2.4C366.1,301.1,360,303.7,360.3,300.3z M366.8,302.2c-2.4,2.6-10.2,5.5-9.9,2.2v-0.1
		C357.3,301.7,361.6,303.9,366.8,302.2z M375.1,310.9c0.3-2.7,3.9,0.1,12.8-1.5C385.2,312.3,374.9,314,375.1,310.9z M381.5,307.1
		c0.3-2.8,6.5-1.9,11.5-3.6C390.7,306.7,381.2,310.5,381.5,307.1z M401,294.7c-6.1,7.4-7.8,9.6-16.6,8.5c-8.8-1.2-11-3.6-17.2-7.1
		c-0.6-0.3-1.3-0.6-1.9-0.8c-0.7,1.8-1.7,3.4-3.3,2.4c-1-0.7-0.9-2.1,0-3.2c-0.8-0.1-1.5-0.2-2.3-0.1c0.1,3.5,0.8,5.8-1,6h0.1
		c-2.3,0.6-1.9-3.1-0.5-5.9c-1,0.1-2,0.3-3,0.6c-1.7,0.5-2.8,0.5-1.5-0.7c1.3-1.2,2.7-2.9,4.3-4c4-2.7,8.8-3.7,13.5-2.9
		c6.4,1.1,11.8,5.2,18.3,6.8c3.5,0.7,7.1,0.7,10.5,0V294C401,294,401.7,293.7,401,294.7z M395.2,293.4c-0.4-1.6,3.8-2.7,7.4-3.7
		C398.6,292,396.3,295.1,395.2,293.4z M390.3,291.6c-0.6-3.2,7.4-1.9,13.2-6.4C400.9,288.8,391.7,296.1,390.3,291.6z M395.4,286.4
		c-0.6-3.2,7.3-2.8,12.5-7C405.3,283,396.6,289.5,395.4,286.4z M400.4,281.3c-0.7-2.4,6.4-3.6,10.6-7.2
		C409.8,277,401.5,284.4,400.4,281.3z M401.4,277.5h-0.1c-1.1-2.7,6.1-3.6,10.6-7.4C410.1,273.5,402.8,280.2,401.4,277.5z
		 M403.3,269.8c-0.9-3.5,7.1-3.8,10.3-6.7C411.5,266,405.3,271.9,403.3,269.8z M406.4,264.9c-0.6-2.2,7.6-5.8,10.6-9.9
		C415.5,258.5,409.9,267,406.4,264.9z M417.5,238.2c-0.9,1.1-0.6,1.7-1.1,2.7c-1.1,1.6-0.7,2.4-1.6,3.4s-2.1,0.3-1.1-1.1
		c1.1-1.1,0.7-1.3,1.4-2.6c0.6-1.5,0.5-2.2,1.3-3.2C417.1,236.4,418.1,237.4,417.5,238.2z"/>
	<path fill="#FFFFFF" d="M349.6,267.4h-8.8c0,3.7-0.7,6.7-3.4,9h17C351.7,274.4,349.6,270.8,349.6,267.4z"/>
	<polygon fill="#FFFFFF" points="289.5,222.4 350.1,222.7 355,217.3 339.5,217 332.1,211.7 307.6,211.7 300.6,217.1 284.6,217.1 	
		"/>
	<path fill="#FFFFFF" d="M309.2,205.6c0.2,0.1,0.2,0,0.2,0c0.1-0.2,0.2-0.4,0.2-0.6c-0.2-2-0.1-4,0.3-6c0.5-2,1.7-3.7,3.3-4.9
		c0.3-0.2,0.3-0.3,0.3-0.4l-0.1-0.2c-0.2-0.1-0.6-0.3-1.1-0.1h-0.1c-1.3,0.6-2.4,2.3-3.2,4.3c-0.7,2.1-1.1,4.5-0.7,6.4
		c0.1,0.4,0.2,0.9,0.4,1.3C309,205.6,309.2,205.6,309.2,205.6z"/>
	<path fill="#FFFFFF" d="M326.6,201c0.3,1.9,0.1,3.9-0.2,5.5c-0.1,0.4,0,0.6,0,0.9l0.5,0.1c0.3,0,1.1-0.5,1.3-1.8
		c0.3-1.8,0.2-4.1-0.3-6.1c-0.5-1.9-1.6-3.5-3-4c-0.4-0.2-0.9-0.1-1.1,0l-0.1,0.3l0.3,0.4C325.5,197.4,326.4,199.1,326.6,201z"/>
	<path fill="#FFFFFF" d="M326.8,194.2c1.6,1.2,2.8,2.9,3.3,4.9c0.4,2,0.5,4,0.3,6c0,0.2,0.1,0.5,0.2,0.6c0,0,0,0.1,0.2,0
		c0,0,0.2,0,0.4-0.3c0.2-0.4,0.4-0.8,0.4-1.3c0.3-1.9,0-4.3-0.7-6.4c-0.7-1.9-1.9-3.6-3.2-4.3h-0.1c-0.4-0.2-0.9,0-1.1,0.1l-0.1,0.2
		C326.5,193.8,326.5,193.9,326.8,194.2z"/>
	<path fill="#FFFFFF" d="M312.2,199.6c-0.5,1.9-0.6,4.3-0.3,6.1c0.2,1.3,1,1.8,1.3,1.8l0.5-0.1c0-0.2,0.1-0.4,0-0.9
		c-0.3-1.6-0.5-3.6-0.2-5.5c0.2-1.8,1.1-3.5,2.6-4.7l0.3-0.4l-0.1-0.3c-0.2-0.1-0.6-0.2-1.1,0C313.8,196.1,312.7,197.7,312.2,199.6z
		"/>
	<path fill="#FFFFFF" d="M309.4,211h21c2.8-1.5,3.7-6.3,3.7-8.9c0-7.9-5.6-11.7-11.2-11.9c-0.9,0-1.8-0.6-2-1.4
		c-0.5-1.7-0.4-2.9-1.1-2.8c-0.4,0-0.3,1.1-0.7,2.6c-0.3,0.9-1.2,1.6-2.1,1.7c-6.8,0.3-11.3,5.3-11.2,11.8
		C305.9,206.3,306.4,208.8,309.4,211z M326.3,193.1c0.4-0.3,1.1-0.4,1.6-0.1c1.6,0.6,2.9,2.4,3.6,4.6c0.7,2.1,1.1,4.6,0.6,6.5
		c0,0.7-0.3,1.2-0.5,1.6c-0.2,0.3-0.4,0.5-0.6,0.5c-0.3,0-0.6,0-0.7-0.3L330,205c0.1-2.1,0.1-4-0.3-5.7c-0.5-1.9-1.6-3.5-3.2-4.7
		c-0.3-0.2-0.4-0.5-0.5-0.7C326,193.5,326.1,193.3,326.3,193.1z M323.5,195.2c0.4-0.3,1.1-0.4,1.6-0.2c1.6,0.7,2.7,2.4,3.2,4.5
		c0.6,2,0.7,4.2,0.3,6.3c-0.2,1.4-1.1,2.1-1.7,2.1c-0.3,0.1-0.6,0-0.9-0.3c-0.2-0.3-0.3-0.6-0.2-1.1c0.4-1.7,0.5-3.6,0.3-5.4
		c-0.3-1.8-1.1-3.4-2.3-4.4c-0.3-0.3-0.5-0.5-0.5-0.9C323.3,195.6,323.4,195.4,323.5,195.2z M316.5,195.2c0.2,0.2,0.2,0.4,0.2,0.6
		c0,0.3-0.2,0.5-0.5,0.9c-1.3,1-2,2.6-2.3,4.4c-0.2,1.8-0.1,3.7,0.3,5.4c0.1,0.4,0,0.7-0.2,1.1s-0.5,0.4-0.9,0.3
		c-0.6,0-1.5-0.7-1.7-2.1c-0.4-2.1-0.2-4.2,0.3-6.3c0.5-2,1.6-3.7,3.2-4.5C315.5,194.8,316.1,194.9,316.5,195.2z M308.6,197.6
		c0.7-2.1,2-3.9,3.6-4.6h0c0.5-0.3,1.2-0.2,1.6,0.1c0.2,0.2,0.3,0.4,0.3,0.7c-0.1,0.2-0.2,0.5-0.5,0.7c-1.6,1.1-2.7,2.8-3.2,4.7
		c-0.4,1.7-0.4,3.6-0.3,5.7l-0.2,0.9c-0.1,0.3-0.4,0.3-0.7,0.3c-0.2,0-0.4-0.2-0.6-0.5c-0.2-0.4-0.5-0.9-0.5-1.6
		C307.5,202.1,307.8,199.7,308.6,197.6z"/>
	<polygon fill="#FFFFFF" points="356.7,279 282.9,279 274.9,285.5 275.1,285.5 364.7,285.5 	"/>
	<rect x="324.6" y="270.7" fill="#FFFFFF" width="0" height="0.1"/>
	<polygon fill="#FFFFFF" points="321.5,265.8 317.8,265.8 319.4,270.7 315.1,270.7 316.5,276.5 321.8,276.5 319.6,270.7 
		324.5,270.7 321.5,265.8 	"/>
	<rect x="315.1" y="270.7" fill="#FFFFFF" width="0" height="0"/>
	<path fill="#FFFFFF" d="M335.8,268.3l0.1-4.1l-2.7-1.6v-4l-4-1.8v-3.9l-3.4-1v-4l-4.8-1.5l-2.3-1.5l0.1-2.7l-15.2-0.1v-2.3
		c-0.1-7.6,9.9-13.7,16.3-13.8c7.4-0.2,16.7,6.6,16.7,13.9l0.1,7.3h1.1v-7.4c-0.1-6.7-8.2-14.7-16.6-14.7h28.2v-0.9h-58.8v0.9h28
		c-4.7,0-16.2,5.3-16,14.7v26.3h6v4.8h-8.2c-1.2,0.1-1.9-1.1-1.9-3.2h-8.1c0,3.7-2.1,6.3-5.4,9.4h0.1h23.6v-6.2h6.6l-1.1-4.9h-5.6
		v-4.9h4.6l1.1,4.9h3.7l-1.6-4.9h2.3l3,4.9h4.4l4.9,4.9h-6.2l3.8,5.8h7.8l-5.2-5.8h8.3L335.8,268.3z"/>
	<rect x="336.4" y="250.9" fill="#FFFFFF" width="1.1" height="7.6"/>
	<path fill="#FFFFFF" d="M280.9,237l-7-11.9c-1.2,0.2-3,4-7.2,7c-0.1,0.7-0.1,1.4,0,2c0.2,0.6,0.4,1.1,0.9,1.6
		c0.7,0.8,1.6,1.3,2.6,1.6c1,0.4,1.9,1.1,2.6,1.9c0.7,0.8,1.3,1.7,1.7,2.7c0.2-0.3,0.4-0.5,0.7-0.8C276.4,239.5,279.6,238,280.9,237
		z"/>
	<path fill="#FFFFFF" d="M262.8,237.8c-0.4,1.3-0.7,2.7-0.7,3.8c0,0,0,0,0,0c0,0,0,0,0,0C262.1,240.5,262.3,239.1,262.8,237.8z"/>
	<path fill="#FFFFFF" d="M266.8,247l-2.9-0.7l-1.2-0.9c-0.3-0.3-0.4-0.7-0.6-1.2c0,1.2,0.1,2.4-0.1,3.5c-0.1,1.2-1.5,4-0.5,4.8
		c2.3,1.7,5.4,5.7,6.8,7.1c1.2,1,2.2-4.8,3-7.9c-0.5-1-1.1-1.9-1.8-2.6C268.8,248.2,267.8,247.5,266.8,247z"/>
	<path fill="#FFFFFF" d="M263.3,236.5c0.6-1.3,1.3-2.5,2.2-3.4C264.6,234,263.9,235.2,263.3,236.5z"/>
	<path fill="#FFFFFF" d="M266.3,232.3C266.3,232.3,266.3,232.3,266.3,232.3c-0.3,0.2-0.6,0.5-0.9,0.8
		C265.7,232.8,266,232.5,266.3,232.3L266.3,232.3z"/>
	<path fill="#BF0000" d="M270.1,237.3c-1-0.3-1.9-0.8-2.6-1.6c-0.4-0.5-0.7-1-0.9-1.6c-0.1-0.7-0.1-1.4,0-2c0,0,0-0.1,0-0.1
		l-0.3,0.3l0,0c-0.3,0.2-0.6,0.5-0.9,0.8c-0.9,0.9-1.6,2.1-2.2,3.4c-0.2,0.4-0.4,0.9-0.5,1.3c-0.4,1.3-0.7,2.7-0.7,3.8c0,0,0,0,0,0
		c0,0.8,0,1.6,0,2.4c0,0.1,0,0.1,0.1,0.2c0.2,0.5,0.3,0.9,0.6,1.2l1.2,0.9l2.9,0.7c1.1,0.5,2,1.2,2.8,2.1c0.7,0.8,1.4,1.7,1.8,2.6
		c0,0,0,0.1,0.1,0.1l0.2-0.9c0.9-2.9,0.7-6.3,2.8-9h-0.1c0,0,0,0,0-0.1c-0.4-1-1-1.9-1.7-2.7C271.9,238.4,271.1,237.7,270.1,237.3z"
		/>
	<path fill="#FFFFFF" d="M290.9,254v-2.4l-16.6-28c-0.3,0.3-0.6,0.5-1,0.6l0.5,0.9l7,11.9L290.9,254z"/>
	<rect x="291" y="196.7" fill="#FFFFFF" width="7.7" height="1.7"/>
	<rect x="291" y="200" fill="#FFFFFF" width="7.7" height="14.7"/>
	<path fill="#FFFFFF" d="M290.6,194.7h8.5c0.2-2.9-2.7-6-4.3-6C293.1,188.8,290.5,191.9,290.6,194.7z"/>
	<path fill="#FFFFFF" d="M274.3,223.6c0.3-0.4,0.5-0.8,0.5-1.4c0-1.2-1-2.1-2.1-2.1s-2.1,1-2.1,2.1c0,1.2,1,2.1,2.1,2.1
		c0.2,0,0.4,0,0.6-0.1C273.7,224.1,274.1,223.9,274.3,223.6z"/>
	<path fill="#BD6B00" d="M309.1,206.2c0.3,0,0.6,0,0.7-0.3l0.2-0.9c-0.1-2.1-0.1-4,0.3-5.7c0.5-1.9,1.6-3.5,3.2-4.7
		c0.3-0.2,0.4-0.5,0.5-0.7c0-0.3-0.1-0.5-0.3-0.7c-0.4-0.3-1.1-0.4-1.6-0.1h0c-1.6,0.6-2.9,2.4-3.6,4.6c-0.7,2.1-1.1,4.6-0.6,6.5
		c0,0.7,0.3,1.2,0.5,1.6C308.7,206,308.9,206.2,309.1,206.2z M309.1,197.7c0.7-1.9,1.9-3.6,3.2-4.3h0.1c0.4-0.2,0.9,0,1.1,0.1
		l0.1,0.2c0,0.1,0,0.2-0.3,0.4c-1.6,1.2-2.8,2.9-3.3,4.9c-0.4,2-0.5,4-0.3,6c0,0.2-0.1,0.5-0.2,0.6c0,0,0,0.1-0.2,0
		c0,0-0.2,0-0.4-0.3c-0.2-0.4-0.4-0.8-0.4-1.3C308,202.1,308.3,199.8,309.1,197.7z"/>
	<path fill="#BD6B00" d="M311.7,199.5c-0.6,2-0.7,4.2-0.3,6.3c0.2,1.4,1.1,2.1,1.7,2.1c0.3,0.1,0.6,0,0.9-0.3s0.3-0.6,0.2-1.1
		c-0.4-1.7-0.5-3.6-0.3-5.4c0.3-1.8,1.1-3.4,2.3-4.4c0.3-0.3,0.5-0.5,0.5-0.9c0-0.2-0.1-0.5-0.2-0.6c-0.4-0.3-1.1-0.4-1.6-0.2
		C313.3,195.8,312.3,197.5,311.7,199.5z M315.1,195.5c0.4-0.2,0.9-0.1,1.1,0l0.1,0.3l-0.3,0.4c-1.4,1.2-2.4,2.8-2.6,4.7
		c-0.3,1.9-0.1,3.9,0.2,5.5c0.1,0.4,0,0.6,0,0.9l-0.5,0.1c-0.3,0-1.1-0.5-1.3-1.8c-0.3-1.8-0.2-4.1,0.3-6.1
		C312.7,197.7,313.8,196.1,315.1,195.5z"/>
	<path fill="#FFFFFF" d="M290.9,258.7h8.5v-9.3h-8.5v2.2v2.4V258.7z M294.2,253.8v-3.2h1.6v3.2h2.1v1.1h-2.1v3.3h-1.6v-3.3h-2.1
		v-1.1H294.2z"/>
	<polygon fill="#FFFFFF" points="290.2,240.4 291.4,243 298.9,243 300.4,240.4 	"/>
	<rect x="291.1" y="245.1" fill="#FFFFFF" width="8.2" height="2.6"/>
	<rect x="294.2" y="253.8" fill="#FFFFFF" width="1.6" height="1.1"/>
	<rect x="290.6" y="226.6" fill="#FFFFFF" width="8.5" height="11.7"/>
	<path fill="#FFFFFF" d="M306.6,227.4h-5.1l-0.1,6.4C302.7,231.3,304.4,229.2,306.6,227.4z"/>
	<rect x="290.3" y="260.6" fill="#FFFFFF" width="9.3" height="5.2"/>
	<path fill="#FFFFFF" d="M253.6,188.2c2.4-2.7,1.1-11,0.3-16.8C252.8,176,250.8,186.8,253.6,188.2z"/>
	<path fill="#FFFFFF" d="M260.5,175.1c-3.5,3.2-5.4,5.4-4.6,8.6C259,184.3,260.9,181,260.5,175.1z"/>
	<rect x="295.8" y="253.8" fill="#FFFFFF" width="2.1" height="1.1"/>
	<rect x="294.2" y="254.9" fill="#FFFFFF" width="1.6" height="3.3"/>
	<rect x="294.2" y="250.6" fill="#FFFFFF" width="1.6" height="3.2"/>
	<rect x="292.1" y="253.8" fill="#FFFFFF" width="2.1" height="1.1"/>
	<path fill="#FFFFFF" d="M252.3,193.8c4.8,0.5,6.4-2.9,6.9-5C256.4,191,252.5,189.9,252.3,193.8z"/>
	<path fill="#FFFFFF" d="M247.8,199.2c2.8-1.2-0.6-14-1.7-18.5C246.3,185.8,244.2,198.1,247.8,199.2z"/>
	<path fill="#FFFFFF" d="M254.6,188.7h-0.1c4.7,1.6,8.5-3.4,9.7-9.3C260.4,184.8,254.1,184.8,254.6,188.7z"/>
	<path fill="#FFFFFF" d="M251,194.2c2.6-1.6,0-12.2-0.7-17C249.5,181.7,247.4,193.2,251,194.2z"/>
	<path fill="#FFFFFF" d="M256.8,194.1c-2.7,1.8-6.7,0.4-7.2,4.6C252.5,199.6,256.4,197.6,256.8,194.1z"/>
	<path fill="#FFFFFF" d="M245.1,204.6c2.9-2.4-0.6-10.8-1.9-20C243.1,194.4,241.7,204.9,245.1,204.6z"/>
	<path fill="#FFFFFF" d="M265.3,193.7c5.2,0.7,7-3.2,10.6-8.4C270.9,188.9,265.2,189.6,265.3,193.7z"/>
	<path fill="#FFFFFF" d="M246.3,204.2c2.3,1.1,6.5-0.7,7.7-4.7C249.7,201.3,247,199.5,246.3,204.2z"/>
	<path fill="#FFFFFF" d="M265.3,193.8c0,0,0-0.1,0-0.1c0,0,0,0,0,0V193.8z"/>
	<path fill="#FFFFFF" d="M273.6,180.5c-4.1,2.3-6.7,4.5-5.8,7.7C270.8,188.7,272.9,185.8,273.6,180.5z"/>
	<path fill="#FFFFFF" d="M270.5,192.9c-2.6,1.8-8.3,2.6-7.9,6h-0.1C268.4,200,269.5,194.8,270.5,192.9z"/>
	<path fill="#FFFFFF" d="M263.7,193.2c3.5-2.9,1.7-6,2.1-11.4C263.7,185.4,260.9,189.8,263.7,193.2z"/>
	<path fill="#FFFFFF" d="M261.3,198.8c2.7-2.1-0.6-5.6,0.5-10.7C259,191.7,257.4,198.4,261.3,198.8z"/>
	<path fill="#FFFFFF" d="M258.4,204.5v-0.1c3-3.2-0.6-6.5,0-10.8C256.8,196.8,253.9,202.3,258.4,204.5z"/>
	<path fill="#FFFFFF" d="M290.2,307.2c0.1,0,0.2,0.1,0.4,0.1c1.1,0.2,1.8,2.3,2.4,1c0.9-2.4,0.2-4.3-0.9-4.1
		c-0.6,0.2-1.4,0.9-1.9,1.7C290.3,306.3,290.3,306.8,290.2,307.2z"/>
	<path fill="#FFFFFF" d="M267.1,198.3c-3.9,3.3-6.9,2.8-7.8,5.6C261.6,207,266.1,203,267.1,198.3z"/>
	<path fill="#FFFFFF" d="M262.1,209.3c1.7-1.3,0-2.8-1.1-1.9c-1.4,1.1-3,3.2-3.5,3.2c-1-0.1-0.1-2.2,0.3-3.7c0.4-1.7-1-1.4-2-1.1
		c-1.6,0.6-1.7,3.7-2.1,5.5c-0.5,1.7-1.6-2.8-2.7-4.4c-0.7-1-1.8,0.6-1.5,1.3c1.7,3.2,0.5,8.3-0.2,12.6c0.3,0.5,0.5,0.9,0.8,1.4
		C253.2,215,257.6,213,262.1,209.3z"/>
	<path fill="#FFFFFF" d="M259.2,203.8v0.1C259.2,203.9,259.2,203.9,259.2,203.8C259.2,203.9,259.2,203.8,259.2,203.8z"/>
	<path fill="#FFFFFF" d="M255.7,303.2c8.8-1.2,11-3.6,17.2-7.1c0.6-0.3,1.3-0.6,1.9-0.8c-0.3-0.8-0.5-1.7-0.7-2.5
		c1.8-0.1,3.2,0.7,4,1.7c0.8-0.1,1.5-0.2,2.3-0.1c0-0.7,0-1.5-0.1-2.3c0.5,0.6,1,1.4,1.5,2.3c1,0.1,2,0.3,3,0.6
		c1.7,0.5,2.8,0.5,1.5-0.7c-1.3-1.2-2.7-2.9-4.3-4c-4-2.7-8.8-3.7-13.5-2.9c-6.4,1.1-11.8,5.2-18.3,6.8c-3.5,0.7-7.1,0.7-10.5,0V294
		c-0.6,0-1.4-0.3-0.6,0.6C245.2,302.1,246.9,304.2,255.7,303.2z"/>
	<path fill="#FFFFFF" d="M235.3,220.1c-0.3,0.1-0.4,0.3-0.4,0.5C235,220.5,235.1,220.3,235.3,220.1z"/>
	<path fill="#FFFFFF" d="M235.6,221.9v-0.1c1.8,1.7,4.2,4.6,6.5,7.7c0.3-1,0.6-1.9,0.9-2.8c0.4,2.1,1.2,4.2,1.5,6.1
		c0.6,0.9,1.2,1.7,1.8,2.6c0.4-0.6,0.9-1.4,1.3-2.3c-0.1,1.4-0.1,2.7-0.2,3.9c1,1.5,1.8,2.9,2.3,3.8c1.6,3.1,2.9,5.5,2.9,9.1
		c3.6-4.3,4.7-10.6,3.6-14.7c-1.3-4.4-3.5-8.9-6-13.1c-0.3-0.5-0.5-0.9-0.8-1.4c-1.3-2.2-2.6-4.3-3.9-6.3c-1.4-1.9-1.9-0.7-2.1,0.2
		c-0.5,1.4,0,4.6-1.1,5.3c-1.2,1-4.1-0.1-5.6-0.1c-0.4,0-0.7,0.1-1,0.1c-0.1,0.5-0.2,1.1-0.3,1.7
		C235.5,221.7,235.5,221.8,235.6,221.9z"/>
	<path fill="#FFFFFF" d="M284.5,304.9c3.1,0.7,2.6-6.8-0.4-9.4C285.6,300.5,282.2,304.1,284.5,304.9z"/>
	<path fill="#FFFFFF" d="M281.8,311.4c0.8,1.1,2.1,1.9,3.5,2.6c0.8-0.7,1.6-1.5,2.4-2.2C285.9,311.7,283.9,311.8,281.8,311.4z"/>
	<path fill="#FFFFFF" d="M259,302.6c0.4,2.2,3.2,7.2,5.3,6v-0.1C266.3,307.1,262.3,303.5,259,302.6z"/>
	<path fill="#FFFFFF" d="M286.9,309.3c-0.2-2.8-5.5-1-10.6-3.2C278.4,308.9,287.1,312.7,286.9,309.3z"/>
	<path fill="#FFFFFF" d="M253.2,253.8c2.7-1.3,3.2-5.5,3.2-6.8c-2,0.4-5.4,3.6-5.1,6.7c0.5,0,1,0.1,1.5,0.1
		C253,253.8,253.1,253.8,253.2,253.8z"/>
	<path fill="#FFFFFF" d="M273.2,302.2c2.4,2.6,10.2,5.5,9.9,2.2v-0.1C282.8,301.7,278.5,303.9,273.2,302.2z"/>
	<path fill="#FFFFFF" d="M288,309.3l0.1,0.1c1.2,0.3,1.9-0.7,2.1-2.2c0.1-0.4,0.1-0.9,0.1-1.4c-0.1-2.1-0.9-4.5-2.4-6
		C289.3,304.4,285.8,308.7,288,309.3z"/>
	<path fill="#FFFFFF" d="M265,310.9c-0.3-2.7-3.9,0.1-12.8-1.5C254.8,312.3,265.2,314,265,310.9z"/>
	<path fill="#FFFFFF" d="M258.6,307.1c-0.3-2.8-6.5-1.9-11.5-3.6C249.4,306.7,258.9,310.5,258.6,307.1z"/>
	<path fill="#FFFFFF" d="M271.7,297.8c2.3,3.3,8.4,5.8,8.1,2.4C279.4,297.5,276.8,299.4,271.7,297.8z"/>
	<path fill="#FFFFFF" d="M274.2,292.7c0.1,0.7,0.4,1.6,0.7,2.5c0.7,1.8,1.7,3.4,3.3,2.4c1-0.7,0.9-2.1,0-3.2
		C277.4,293.4,276,292.6,274.2,292.7z"/>
	<path fill="#FFFFFF" d="M280.4,294.3c-0.1,3.5-0.8,5.8,1,6h-0.1c2.3,0.6,1.9-3.1,0.5-5.9c-0.4-0.9-0.9-1.7-1.5-2.3
		C280.4,292.8,280.5,293.5,280.4,294.3z"/>
	<path fill="#FFFFFF" d="M269.8,312.9c-0.9-2-6.7,0.5-12.3,0.5C261,315.1,270.9,315.8,269.8,312.9z"/>
	<path fill="#FFFFFF" d="M281.1,316.5c-1.4-2.4-5.6,1.1-11.2,1.8c2.1,1,7.4,1.2,10,0.3c0.4-0.4,0.9-0.7,1.3-1.1
		C281.3,317.1,281.3,316.8,281.1,316.5z"/>
	<path fill="#FFFFFF" d="M274.4,315.1c-1.1-2.6-6.6,1.1-12.5,1.1C266.3,317.6,275.5,317.6,274.4,315.1z"/>
	<path fill="#FFFFFF" d="M269.7,311.2c2.1-1.8-1.5-4.3-5.3-7.8C266.9,307.4,266.7,313.2,269.7,311.2z"/>
	<path fill="#FFFFFF" d="M274.6,322.8c0.4-0.3,0.8-0.7,1.3-1c-2-2.2-10.6-2-18.7-6.2c1.5,3,11.3,8.1,16.3,8.6
		C273.8,323.7,274.2,323.2,274.6,322.8z"/>
	<path fill="#FFFFFF" d="M237.4,261.1c5.7,1.6,13.2,3.2,17.4,4.2c0.5,0.1,1.1,0.2,1.6,0.4c0-0.1,0-0.1,0-0.2
		c0.1,0.1,0.2,0.2,0.3,0.3c2.7,0.8,4.9,2.3,6.9,4.4c0.1-0.4,0.2-0.7,0.2-1.1c-0.8-2.9-1.7-5.7-2.7-8.5c-1.2-3.1-4.5-6.4-7.9-6.7
		c-0.1,0-0.2,0-0.4,0c-0.5,0-1-0.1-1.5-0.1c-6.3-0.3-14-1-19.8-3.4c-2.8-1.2-5.3-3.1-7.1-5.6h0.1c-0.4-0.5-1.5,0-1.3,1.2
		c0.3,1.6,2.7,9.8,6.7,12.5c0.7,0.5,2,1.1,3.8,1.6c0.2-0.8,0.5-1.8,0.8-3c0.7,1.6,1.3,2.8,1.6,3.8c0.3,0.1,0.6,0.2,0.9,0.3
		c0-0.4,0-0.8-0.1-1.3C237.1,260.2,237.2,260.7,237.4,261.1z"/>
	<path fill="#FFFFFF" d="M282.5,315.5c1.7-2.1-7.3-8.6-10.8-12.8C274,308.1,280.4,318,282.5,315.5z"/>
	<path fill="#FFFFFF" d="M275.3,313.3c2.3-1.8-3.2-5.7-7-10c2.3,4.5,4.5,12.3,7,10.1V313.3z"/>
	<path fill="#FFFFFF" d="M262.1,277.1c2.1,1.5,4.4-3.9,1.8-9.1c0,0.4,0,0.7-0.1,1c-0.1,0.4-0.1,0.8-0.2,1.1
		C262.7,273.5,260.2,275.1,262.1,277.1z"/>
	<path fill="#FFFFFF" d="M266,273.8c0.3,4.4-4.6,7-1.9,8.3C267,283,267.8,277.9,266,273.8z"/>
	<path fill="#FFFFFF" d="M268.1,278.6c0.2,4.8-3.9,6.3-1.8,7.4v0.1C269.1,287.5,270.1,282.3,268.1,278.6z"/>
	<path fill="#FFFFFF" d="M265.2,286.5v-0.1c0.7-2.7-4.6-2.1-8.5-6.1C257.7,283.6,264.1,289.7,265.2,286.5z"/>
	<path fill="#FFFFFF" d="M262.3,281.5v-0.1c0.9-2.2-7.1-5.2-11.1-9.1C253,276.1,261,284.7,262.3,281.5z"/>
	<path fill="#FFFFFF" d="M260.7,276.5c1-2.7-8.2-5.8-12.4-9.7C250.8,270.3,259.4,280.2,260.7,276.5z"/>
	<path fill="#FFFFFF" d="M256.4,265.7c-0.1,4.3,0.6,7.3,3.9,7.2c3.1-0.6,0-3.1-3.7-7.1c-0.1-0.1-0.2-0.2-0.3-0.3
		C256.4,265.6,256.4,265.6,256.4,265.7z"/>
	<path fill="#FFFFFF" d="M233.7,264.9c0.6-2.2-7.6-5.8-10.6-9.9C224.5,258.5,230.2,267,233.7,264.9z"/>
	<path fill="#FFFFFF" d="M250.8,264.7c-0.5,2.4,3,6.9,4.5,5.6h-0.1C256.5,268.9,254,268.3,250.8,264.7z"/>
	<path fill="#FFFFFF" d="M270.1,286.5c1.7,1.1,2.8-2.4,0.7-5.5C270.3,284.3,268.6,285.2,270.1,286.5z"/>
	<path fill="#FFFFFF" d="M236.8,269.8c0.9-3.5-7.1-3.8-10.3-6.7C228.6,266,234.7,271.9,236.8,269.8z"/>
	<path fill="#FFFFFF" d="M240.1,274.2c0.6-3.5-7.9-3.2-11.7-6.9C230.5,270.5,239.4,277.2,240.1,274.2z"/>
	<path fill="#FFFFFF" d="M238,269c3.8,0.2,0.8-3.9-0.6-7.9c-0.2-0.5-0.3-0.9-0.4-1.4c0,0.4,0.1,0.9,0.1,1.3
		C237.2,265.3,236.1,268.6,238,269z"/>
	<path fill="#FFFFFF" d="M238.7,277.5h0.1c1.1-2.7-6.1-3.6-10.6-7.4C230,273.5,237.3,280.2,238.7,277.5z"/>
	<path fill="#FFFFFF" d="M233.7,260c-0.5,1.9-0.6,3.1,1.2,4.4c1.3-1.4,1.5-2.4,1.2-3.7c-0.3-1-0.9-2.1-1.6-3.8
		C234.3,258.2,234,259.2,233.7,260z"/>
	<path fill="#FFFFFF" d="M240.5,263.3c0.5,5.4-2.4,8.5,0.2,9.8C243.6,272.4,242.8,268.3,240.5,263.3z"/>
	<path fill="#FFFFFF" d="M239.6,281.3c0.7-2.4-6.4-3.6-10.6-7.2C230.3,277,238.6,284.4,239.6,281.3z"/>
	<path fill="#FFFFFF" d="M244.6,286.4c0.6-3.2-7.3-2.8-12.5-7C234.7,283,243.5,289.5,244.6,286.4z"/>
	<path fill="#FFFFFF" d="M249.7,291.6c0.6-3.2-7.4-1.9-13.2-6.4C239.2,288.8,248.4,296.1,249.7,291.6z"/>
	<path fill="#FFFFFF" d="M241.1,279.8l0.1,0.1c2.4,1.2,3.4-5.7,2-10.7C243.3,274.4,238.3,278.5,241.1,279.8z"/>
	<path fill="#FFFFFF" d="M250.7,290.6c3.2,0.1,1.1-6.5-1.7-10.2C249.4,285.2,247.9,290,250.7,290.6z"/>
	<path fill="#FFFFFF" d="M238.7,232.7c0.2,3.8-0.5,9.8,4.3,10.3v0.1C244,238.7,240.2,237.9,238.7,232.7z"/>
	<path fill="#FFFFFF" d="M245.4,285.4c3,0.9,2.1-6.7-0.5-11.7C244.5,278.7,242.4,283.3,245.4,285.4z"/>
	<path fill="#FFFFFF" d="M244.9,293.4c0.4-1.6-3.8-2.7-7.4-3.7C241.4,292,243.8,295.1,244.9,293.4z"/>
	<path fill="#FFFFFF" d="M246.2,235.3c-1.6,2.3-2.9,3.5-2.6,6.9c2.7-0.1,3.5-2.4,3.7-5.2c0.1-1.2,0.1-2.6,0.2-3.9
		C247.1,234,246.6,234.7,246.2,235.3z"/>
	<path fill="#FFFFFF" d="M242.1,229.5c-1,3.2-1.9,6.5,0.9,7.8c1.6-1.1,1.8-2.7,1.5-4.6c-0.3-1.9-1.1-4-1.5-6.1
		C242.7,227.6,242.4,228.5,242.1,229.5z"/>
	<path fill="#FFFFFF" d="M243.5,247.8c0.1-4.5-2.4-3.1-5.3-7.4C238.8,245,240.3,248.1,243.5,247.8z"/>
	<path fill="#FFFFFF" d="M244.5,247.4c3.9,0.5,3.2-4,3.2-7.4C246.4,243.2,243.3,244.2,244.5,247.4z"/>
	<path fill="#FFFFFF" d="M238.4,245.5c0.3,3,2.2,8.1,5.3,6.9C244.9,248.8,240.9,248.1,238.4,245.5z"/>
	<path fill="#FFFFFF" d="M231.9,221.7c2.4-2.6,0.3-6.8-0.4-10.8C230.4,214.7,228.8,219.8,231.9,221.7z"/>
	<path fill="#FFFFFF" d="M248.6,245.4c-0.9,3.4-5.3,4.8-4,7.3v0.1C248.7,253.5,249.1,250.3,248.6,245.4z"/>
	<path fill="#FFFFFF" d="M231.9,226.6v0.1c0.5-4.7-4.4-6.9-5.8-12.1C226.6,218.4,227.6,227.1,231.9,226.6z"/>
	<path fill="#FFFFFF" d="M232.7,226.6c2-1.1,2.4-3,2.7-4.9c0.1-0.6,0.2-1.1,0.3-1.7c0.1-0.3,0.1-0.6,0.2-0.9c-0.2,0.4-0.4,0.7-0.7,1
		c-0.1,0.2-0.3,0.4-0.4,0.5C233.4,222.5,232.2,223.4,232.7,226.6z"/>
	<path fill="#FFFFFF" d="M232.7,232.1c4.3-1,3.7-3.7,3.1-8.1C234.4,228.5,232.1,227.5,232.7,232.1z"/>
	<path fill="#FFFFFF" d="M231.8,232.3h0.1c0.5-5.2-6-8-7.3-13.2C224.8,223,227.4,232.7,231.8,232.3z"/>
	<path fill="#FFFFFF" d="M231.8,237.9c1.1-3.1-5.1-8.4-8.5-12.7C227.2,230.8,226.9,238.7,231.8,237.9z"/>
	<path fill="#FFFFFF" d="M232.9,237.5c3.8,0.1,4.2-5.4,4-7.8C235.9,232.1,231.7,234.2,232.9,237.5z"/>
	<path fill="#FFFFFF" d="M232.9,237.7c0,0,0-0.1,0-0.1c0,0,0,0-0.1,0L232.9,237.7z"/>
	<path fill="#FFFFFF" d="M231.8,243.5c1.6-3.5-3.1-3.9-7.7-11.7C225.9,237.9,228.6,243.9,231.8,243.5z"/>
	<path fill="#FFFFFF" d="M232.8,249.5c1.4-4.3-4-5.1-7.4-10.7C228,244.1,229.2,250.4,232.8,249.5z"/>
	<path fill="#FFFFFF" d="M232.9,242.5c4.1,0.7,4.6-2.4,4-7.3C236.1,238.6,231.7,239.9,232.9,242.5z"/>
	<path fill="#FFFFFF" d="M253.8,285.1c-1.4-2.1-1.8-4.7-2.1-7.6c-0.3-2.9-2-5.6-4.5-7c1.1,2.6,2.8,4,3.1,7.3
		C250.6,281.1,251.7,284.6,253.8,285.1z"/>
	<path fill="#FFFFFF" d="M247,270.4c0.1,0,0.1,0.1,0.1,0.1c0,0,0-0.1,0-0.1H247z"/>
	<path fill="#FFFFFF" d="M259.4,214c1.1-1.1,0.2-2.1-1.1-1.1c-1.2,1.2-3.1,2.7-4.4,4.5c-0.9,1.2-1,3.3-1.7,4.9
		c-0.9,2.3,0.6,3.3,1.7,1.8c1.1-1.6,0.4-3.5,1.9-5.8C256.9,216.8,258.1,215.3,259.4,214z"/>
	<path fill="#FFFFFF" d="M257.2,226.6c1.2-1.6,3.2-3.2,3.3-5.3c-0.1-1.5,0.9-5.3,2.2-6.2c1.3-0.9-0.1-2.4-1.3-1.3s-2.3,4.4-2.6,6.5
		c0,1.7-1.9,3.1-3.2,4.7C254.1,227,256.1,228,257.2,226.6z"/>
	<path fill="#FFFFFF" d="M237.2,216.5h0.1c-0.1,2.1,1.6,2.6,1.5-0.4c0-3.2-2.3-6.2-1.1-11c0.9-2.3,0.9-6.7,0.4-8.9
		c-0.4-2.3-2.1-0.9-1.4,1c0.6,2.1-0.1,6-0.6,8C234.5,210.9,237.4,213.6,237.2,216.5z"/>
	<path fill="#FFFFFF" d="M232.8,209.6c0.2,1.3,1.8,1.4,1.3-0.4c-0.4-1.2-0.4-2.4,0-3.6c0.5-1.6,0.5-3.3,0-4.9
		c-0.4-1.1-1.9-0.4-1.3,0.4c0.6,1,0.7,3,0.2,3.9C232.4,206.4,232.6,208.2,232.8,209.6z"/>
	<path fill="#FFFFFF" d="M233.6,248.5v-0.1c4,1.1,4.6-2.7,4-7.8C236.5,244.6,232,245.5,233.6,248.5z"/>
	<path fill="#FFFFFF" d="M240.5,204.3c-0.5,2.7,1.2,2.6,1.4,0.5l0,0.1c0.3-2,0.4-5-0.2-7.1c-0.5-2.1-0.4-4.3,0.3-6.3
		c0.6-1.3-1-2.2-1.5-0.5c-0.4,1.6-0.6,5.4,0,7.7C240.9,200.4,240.9,202.1,240.5,204.3z"/>
	<path fill="#FFFFFF" d="M225.3,244.2c0.9,1,2.1,0.3,1.1-1.1c-1.1-1.1-0.7-1.3-1.4-2.6c-0.6-1.5-0.5-2.2-1.3-3.2
		c-0.7-1.1-1.7,0-1.1,0.7c0.9,1.1,0.6,1.7,1.1,2.7C224.8,242.4,224.4,243.3,225.3,244.2z"/>
	<path fill="#FFFFFF" d="M241.2,211.8c2.6,0.6,5.3-2.2,4.4-6.6C242.6,205.9,241.3,208.6,241.2,211.8z"/>
	<path fill="#FFFFFF" d="M258,289.4c-0.7-2.8-1-2.9-1.2-5.7c-0.2-2.4-2.7-3.7-4.5-7c-0.3,2.8,2.1,4.8,2.4,7.8
		C255.4,288.7,255.9,288.9,258,289.4z"/>
	<path fill="#FFFFFF" d="M315.6,300.5c-1.1,0-1.2,0.2-1.2,0.6v2.2c0,0.9,0,0.9,0.4,1.1c0.7,0,1.9,0,2.7,0.6c0.5,0.3,1.1,0,1.2-0.6
		l0.1-2.2c0-0.6-0.2-1.2-0.6-1.3C317.3,300.6,316.4,300.4,315.6,300.5z"/>
	<path fill="#FFFFFF" d="M309.4,304.9c0.7-0.5,1.8-0.6,2.6-0.7c0.5-0.1,0.7-0.2,0.7-1V301c0-0.5-0.6-1.3-1.7-1
		c-0.9,0.2-1.9,0.5-2.8,0.9c-0.5,0.2-0.8,0.7-0.7,1.3l0.3,2.1C308.1,305,308.8,305.3,309.4,304.9z"/>
	<path fill="#FFFFFF" d="M294.4,294.4v0.1c1.8,2.9,2.8,5.3,3.5,8.5c0.9,3.2,2.9,6,5.6,7.9c-1.7-2.8-3-5.2-3.8-8.3
		C298.9,299.4,297.1,296.5,294.4,294.4z"/>
	<path fill="#FFFFFF" d="M307.7,311.4c-2-3.1-2.6-5.4-3.4-8.5c-0.9-3.3-3.6-6.1-6.6-8.4v0.1c2,3,3.9,5.3,4.7,8.5
		C303.3,306.4,304.5,309.3,307.7,311.4z"/>
	<path fill="#FFFFFF" d="M312.6,311.6c0-1.4-2.2-2.4-4.3-4.3C309.4,309.2,310.5,312.1,312.6,311.6z"/>
	<path fill="#FFFFFF" d="M319.5,311.8c-0.5-2.6-4-2.1-8-3.8h-0.1C314.2,310.7,315.7,312.2,319.5,311.8z"/>
	<path fill="#FFFFFF" d="M370,237.3c1-0.3,1.9-0.8,2.6-1.6c0.4-0.5,0.7-1,0.9-1.6c0.1-0.7,0.1-1.4,0-2c-4.2-3-6-6.7-7.2-7l-7,11.9
		c1.2,1,4.4,2.5,5.9,4.1c0.2,0.3,0.5,0.5,0.7,0.8c0.4-1,1-1.9,1.7-2.7C368.1,238.4,369,237.7,370,237.3z"/>
	<path fill="#FFFFFF" d="M371.7,259.7c1.4-1.4,4.5-5.4,6.8-7.1c1-0.7-0.4-3.6-0.5-4.8c-0.1-1.2-0.1-2.4-0.1-3.5
		c-0.2,0.5-0.3,0.9-0.6,1.2l-1.2,0.9l-2.9,0.7c-1.1,0.5-2,1.2-2.8,2.1c-0.7,0.8-1.4,1.7-1.8,2.6
		C369.5,254.9,370.5,260.7,371.7,259.7z"/>
	<path fill="#FFFFFF" d="M376.5,235.8c0.4,0.8,0.8,1.7,1,2.6C377.2,237.6,376.9,236.7,376.5,235.8z"/>
	<path fill="#FFFFFF" d="M375,233.6c-0.3-0.3-0.6-0.6-0.8-0.9C374.5,232.9,374.8,233.2,375,233.6z"/>
	<path fill="#BF0000" d="M373.3,247l2.9-0.7l1.2-0.9c0.3-0.3,0.4-0.7,0.6-1.2c0-0.1,0-0.1,0.1-0.2c0-0.8,0-1.6,0-2.4
		c0-0.9-0.2-2-0.5-3.1c-0.3-0.9-0.6-1.8-1-2.6c-0.4-0.8-0.9-1.6-1.4-2.3c-0.3-0.3-0.6-0.6-0.8-0.9c-0.1-0.1-0.3-0.2-0.5-0.4
		l-0.3-0.3c0,0,0,0.1,0,0.1c0.1,0.7,0.1,1.4,0,2c-0.2,0.6-0.4,1.1-0.9,1.6c-0.7,0.8-1.6,1.3-2.6,1.6c-1,0.4-1.9,1.1-2.6,1.9
		c-0.7,0.8-1.3,1.7-1.7,2.7c0,0,0,0,0,0.1h-0.1c2,2.8,1.9,6.2,2.8,9l0.2,0.9c0,0,0-0.1,0.1-0.1c0.5-1,1.1-1.9,1.8-2.6
		C371.3,248.2,372.2,247.5,373.3,247z"/>
	<path fill="#FFFFFF" d="M366.8,224.3c-0.4-0.1-0.7-0.3-1-0.6l-16.6,28v2.4l10-17l7-11.9L366.8,224.3z"/>
	<rect x="341.4" y="200" fill="#FFFFFF" width="7.7" height="14.7"/>
	<rect x="341.4" y="196.7" fill="#FFFFFF" width="7.7" height="1.7"/>
	<path fill="#FFFFFF" d="M345.2,188.7c-1.6,0-4.5,3.1-4.3,6h8.5C349.6,191.9,346.9,188.8,345.2,188.7z"/>
	<path fill="#FFFFFF" d="M366.8,224.3c0.2,0.1,0.4,0.1,0.6,0.1c1.2,0,2.1-1,2.1-2.1c0-1.2-1-2.1-2.1-2.1c-1.2,0-2.1,1-2.1,2.1
		c0,0.5,0.2,1,0.5,1.4C366,223.9,366.4,224.1,366.8,224.3z"/>
	<path fill="#BD6B00" d="M326.5,194.6c1.6,1.1,2.7,2.8,3.2,4.7c0.4,1.7,0.4,3.6,0.3,5.7l0.2,0.9c0.1,0.3,0.4,0.3,0.7,0.3
		c0.2,0,0.4-0.2,0.6-0.5c0.2-0.4,0.5-0.9,0.5-1.6c0.4-1.9,0.1-4.4-0.6-6.5c-0.7-2.1-2-3.9-3.6-4.6c-0.5-0.3-1.2-0.2-1.6,0.1
		c-0.2,0.2-0.3,0.4-0.3,0.7C326.1,194.1,326.2,194.4,326.5,194.6z M326.6,193.5c0.2-0.1,0.6-0.3,1.1-0.1h0.1
		c1.3,0.6,2.4,2.3,3.2,4.3c0.7,2.1,1.1,4.5,0.7,6.4c-0.1,0.4-0.2,0.9-0.4,1.3c-0.2,0.3-0.4,0.3-0.4,0.3c-0.2,0.1-0.2,0-0.2,0
		c-0.1-0.2-0.2-0.4-0.2-0.6c0.2-2,0.1-4-0.3-6c-0.5-2-1.7-3.7-3.3-4.9c-0.3-0.2-0.3-0.3-0.3-0.4L326.6,193.5z"/>
	<path fill="#BD6B00" d="M326.2,201.1c0.2,1.8,0.1,3.7-0.3,5.4c-0.1,0.4,0,0.7,0.2,1.1c0.2,0.3,0.5,0.4,0.9,0.3
		c0.6,0,1.5-0.7,1.7-2.1c0.4-2.1,0.2-4.2-0.3-6.3c-0.5-2-1.6-3.7-3.2-4.5c-0.5-0.2-1.2-0.1-1.6,0.2c-0.2,0.2-0.2,0.4-0.2,0.6
		c0,0.3,0.2,0.5,0.5,0.9C325.1,197.7,325.9,199.3,326.2,201.1z M323.9,195.5c0.2-0.1,0.6-0.2,1.1,0c1.4,0.5,2.4,2.1,3,4
		c0.5,1.9,0.6,4.3,0.3,6.1c-0.2,1.3-1,1.8-1.3,1.8l-0.5-0.1c0-0.2-0.1-0.4,0-0.9c0.3-1.6,0.5-3.6,0.2-5.5c-0.2-1.8-1.1-3.5-2.6-4.7
		l-0.3-0.4L323.9,195.5z"/>
	<rect x="340.8" y="245.1" fill="#FFFFFF" width="8.2" height="2.6"/>
	<polygon fill="#FFFFFF" points="339.7,240.4 341.2,243 348.6,243 349.9,240.4 	"/>
	<rect x="341" y="226.6" fill="#FFFFFF" width="8.5" height="11.7"/>
	<path fill="#FFFFFF" d="M338.6,233.8l-0.1-6.4h-5.1C335.6,229.2,337.4,231.3,338.6,233.8z"/>
	<rect x="340.6" y="260.6" fill="#FFFFFF" width="9.3" height="5.2"/>
	<rect x="344.3" y="253.8" fill="#FFFFFF" width="1.6" height="1.1"/>
	<path fill="#FFFFFF" d="M349.2,249.5h-8.5v9.3h8.5V254v-2.4V249.5z M345.9,258.2h-1.6v-3.3h-2.1v-1.1h2.1v-3.2h1.6v3.2h2.1v1.1
		h-2.1V258.2z"/>
	<path fill="#FFFFFF" d="M384.2,183.7c0.9-3.2-1.1-5.4-4.6-8.6C379.2,181,381.1,184.3,384.2,183.7z"/>
	<path fill="#FFFFFF" d="M386.2,171.4c-0.7,5.8-2.1,14.1,0.3,16.8C389.3,186.8,387.2,176,386.2,171.4z"/>
	<rect x="342.2" y="253.8" fill="#FFFFFF" width="2.1" height="1.1"/>
	<rect x="344.3" y="250.6" fill="#FFFFFF" width="1.6" height="3.2"/>
	<rect x="344.3" y="254.9" fill="#FFFFFF" width="1.6" height="3.3"/>
	<rect x="345.9" y="253.8" fill="#FFFFFF" width="2.1" height="1.1"/>
	<path fill="#FFFFFF" d="M375.9,179.5c1.2,5.8,5,10.8,9.7,9.3h-0.1C386,184.8,379.7,184.8,375.9,179.5z"/>
	<path fill="#FFFFFF" d="M389.1,194.2c3.6-1,1.5-12.4,0.7-17C389.1,181.9,386.5,192.6,389.1,194.2z"/>
	<path fill="#FFFFFF" d="M392.2,199.2c3.6-1.1,1.5-13.4,1.7-18.5C392.9,185.1,389.5,198,392.2,199.2z"/>
	<path fill="#FFFFFF" d="M380.9,188.8c0.5,2.1,2.1,5.5,6.9,5C387.6,189.9,383.6,191,380.9,188.8z"/>
	<path fill="#FFFFFF" d="M383.3,194.1c0.3,3.5,4.3,5.5,7.2,4.6C390,194.5,386,195.9,383.3,194.1z"/>
	<path fill="#FFFFFF" d="M395,204.6c3.4,0.3,1.9-10.2,1.9-20C395.7,193.7,392.1,202.1,395,204.6z"/>
	<path fill="#FFFFFF" d="M393.7,204.2c-0.6-4.7-3.4-2.9-7.7-4.7C387.2,203.4,391.4,205.2,393.7,204.2z"/>
	<path fill="#FFFFFF" d="M372.4,188.2c0.9-3.2-1.7-5.3-5.8-7.7C367.1,185.8,369.3,188.7,372.4,188.2z"/>
	<path fill="#FFFFFF" d="M374.8,193.7c0.1-4.2-5.7-4.8-10.6-8.4C367.8,190.5,369.6,194.5,374.8,193.7z"/>
	<path fill="#FFFFFF" d="M374.8,193.7C374.8,193.7,374.8,193.7,374.8,193.7c0,0,0,0.1,0,0.1V193.7z"/>
	<path fill="#FFFFFF" d="M376.4,193.2c2.8-3.4,0-7.8-2.1-11.4C374.7,187.2,372.9,190.3,376.4,193.2z"/>
	<path fill="#FFFFFF" d="M369.6,192.9c1,1.9,2.1,7.1,8,6h-0.1C377.9,195.4,372.1,194.7,369.6,192.9z"/>
	<path fill="#FFFFFF" d="M378.7,198.8c3.9-0.4,2.3-7.1-0.5-10.7C379.4,193.2,376.1,196.7,378.7,198.8z"/>
	<path fill="#FFFFFF" d="M381.7,193.5c0.6,4.4-3,7.7,0,10.8v0.1C386.2,202.3,383.3,196.8,381.7,193.5z"/>
	<path fill="#FFFFFF" d="M349.5,307.3c0.2,0,0.3,0,0.4-0.1c-0.1-0.4-0.1-0.9-0.1-1.4c-0.5-0.7-1.3-1.5-1.9-1.7
		c-1.1-0.1-1.7,1.7-0.9,4.1c0.1,0.2,0.2,0.3,0.3,0.4c0.2-0.1,0.5-0.1,0.7-0.2C348.4,308.1,348.9,307.4,349.5,307.3z"/>
	<path fill="#FFFFFF" d="M380.8,203.9c-1-2.8-3.9-2.3-7.8-5.6C374,203,378.5,207,380.8,203.9z"/>
	<path fill="#FFFFFF" d="M380.9,203.8C380.9,203.8,380.8,203.9,380.9,203.8c0,0.1,0,0.1,0,0.1V203.8z"/>
	<path fill="#FFFFFF" d="M400.3,294v0.1c-3.5,0.7-7.1,0.7-10.5,0c-6.5-1.6-11.9-5.7-18.3-6.8c-4.7-0.8-9.5,0.2-13.5,2.9
		c-1.6,1.2-3,2.9-4.3,4c-1.3,1.3-0.2,1.3,1.5,0.7c1-0.3,2-0.5,3-0.6c0.4-0.9,0.9-1.7,1.5-2.3c-0.1,0.8-0.1,1.6-0.1,2.3
		c0.8,0,1.5,0,2.3,0.1c0.8-1,2.2-1.8,4-1.7c-0.1,0.7-0.4,1.6-0.7,2.5c0.7,0.2,1.3,0.5,1.9,0.8c6.3,3.5,8.4,6,17.2,7.1
		c8.8,1.1,10.5-1.1,16.6-8.5C401.7,293.7,401,294,400.3,294z"/>
	<path fill="#FFFFFF" d="M390.5,208.2c0.3-0.6-0.7-2.2-1.5-1.3c-1.1,1.6-2.1,6.1-2.7,4.4c-0.4-1.8-0.5-4.9-2.1-5.5
		c-1.1-0.3-2.4-0.6-2,1.1c0.4,1.5,1.3,3.6,0.3,3.7c-0.5,0-2.1-2.1-3.5-3.2c-1.1-0.9-2.8,0.6-1.1,1.9c4.5,3.7,8.9,5.8,11.9,12.9
		c0.3-0.5,0.5-0.9,0.8-1.4C390,216.5,388.8,211.4,390.5,208.2z"/>
	<path fill="#FFFFFF" d="M403.4,219.9c-1.5,0-4.5,1.1-5.6,0.1c-1.1-0.7-0.5-3.9-1.1-5.3c-0.2-1-0.7-2.1-2.1-0.2
		c-1.2,2-2.6,4.1-3.9,6.3c-0.3,0.5-0.5,0.9-0.8,1.4c-2.4,4.2-4.7,8.7-6,13.1c-1.1,4,0,10.4,3.6,14.7c0-3.6,1.3-6.1,2.9-9.1
		c0.5-0.9,1.3-2.3,2.3-3.8c-0.1-1.2-0.1-2.6-0.2-3.9c0.4,0.9,0.9,1.6,1.3,2.3c0.6-0.8,1.2-1.7,1.8-2.6c0.3-1.9,1.1-4,1.5-6.1
		c0.2,0.9,0.6,1.8,0.9,2.8c2.3-3.1,4.6-6,6.5-7.7v0.1c0.1-0.1,0.1-0.2,0.2-0.3c-0.1-0.6-0.2-1.1-0.3-1.7
		C404.1,220,403.8,219.9,403.4,219.9z"/>
	<path fill="#FFFFFF" d="M405.2,220.7c0-0.2-0.1-0.4-0.4-0.5C405,220.3,405.1,220.5,405.2,220.7z"/>
	<path fill="#FFFFFF" d="M360.3,300.3c-0.3,3.4,5.7,0.9,8.1-2.4C363.3,299.4,360.7,297.5,360.3,300.3z"/>
	<path fill="#FFFFFF" d="M375.1,310.9c-0.2,3.1,10.1,1.4,12.8-1.5C379.1,311,375.4,308.3,375.1,310.9z"/>
	<path fill="#FFFFFF" d="M358.3,311.4c-1.9,0.4-3.9,0.4-5.6,0.3c0.7,0.7,1.5,1.4,2.2,2.1C356.3,313.2,357.6,312.4,358.3,311.4z"/>
	<path fill="#FFFFFF" d="M381.5,307.1c-0.3,3.4,9.1-0.4,11.5-3.6C388,305.2,381.8,304.3,381.5,307.1z"/>
	<path fill="#FFFFFF" d="M381.1,302.6c-3.3,0.9-7.3,4.5-5.3,5.8v0.1C377.9,309.9,380.7,304.9,381.1,302.6z"/>
	<path fill="#FFFFFF" d="M355.6,304.9c2.3-0.7-1.1-4.4,0.4-9.4C353,298.1,352.5,305.6,355.6,304.9z"/>
	<path fill="#FFFFFF" d="M363.9,306.1c-5.1,2.2-10.4,0.4-10.6,3.2C353,312.7,361.7,308.9,363.9,306.1z"/>
	<path fill="#FFFFFF" d="M388.7,253.7c0.3-3.1-3.1-6.3-5.1-6.7c0,1.3,0.5,5.5,3.2,6.8c0.1,0,0.2,0,0.4,0
		C387.7,253.8,388.2,253.8,388.7,253.7z"/>
	<path fill="#FFFFFF" d="M356.9,304.3v0.1c-0.3,3.3,7.4,0.3,9.9-2.2C361.6,303.9,357.3,301.7,356.9,304.3z"/>
	<path fill="#FFFFFF" d="M349.9,307.2c0.2,1.5,0.9,2.5,2.1,2.2l0.1-0.1c2.2-0.6-1.3-4.9,0.1-9.6c-1.5,1.5-2.3,4-2.4,6
		C349.8,306.3,349.8,306.8,349.9,307.2z"/>
	<path fill="#FFFFFF" d="M361.9,294.4c-0.9,1.1-1,2.5,0,3.2c1.5,0.9,2.6-0.6,3.3-2.4c0.3-0.8,0.5-1.7,0.7-2.5
		C364.1,292.6,362.7,293.4,361.9,294.4z"/>
	<path fill="#FFFFFF" d="M359.7,292c-0.5,0.6-1,1.4-1.5,2.3c-1.4,2.9-1.8,6.5,0.5,5.9h-0.1c1.8-0.3,1-2.6,1-6
		C359.6,293.5,359.6,292.8,359.7,292z"/>
	<path fill="#FFFFFF" d="M370.2,312.9c-1.1,2.9,8.8,2.1,12.3,0.5C376.9,313.5,371.1,310.9,370.2,312.9z"/>
	<path fill="#FFFFFF" d="M370.1,318.3c-5.5-0.7-9.8-4.3-11.2-1.8c-0.2,0.3-0.2,0.6-0.2,0.8c0.5,0.4,1,0.9,1.5,1.3
		C362.9,319.5,368,319.3,370.1,318.3z"/>
	<path fill="#FFFFFF" d="M370.3,311.2c3.1,1.9,2.9-3.8,5.3-7.8C371.8,307,368.2,309.4,370.3,311.2z"/>
	<path fill="#FFFFFF" d="M365.7,315.1c-1.1,2.6,8.1,2.6,12.5,1.1C372.3,316.1,366.7,312.5,365.7,315.1z"/>
	<path fill="#FFFFFF" d="M408.5,250.3c-5.8,2.5-13.5,3.1-19.8,3.4c-0.5,0-1,0.1-1.5,0.1c-0.1,0-0.2,0-0.4,0
		c-3.5,0.3-6.7,3.6-7.9,6.7c-1,2.8-1.9,5.6-2.7,8.5c0.1,0.4,0.1,0.8,0.2,1.1c2-2.1,4.2-3.5,6.9-4.4c0.1-0.1,0.2-0.2,0.3-0.3
		c0,0.1,0,0.1,0,0.2c0.5-0.2,1-0.3,1.6-0.4c4.2-0.9,11.7-2.5,17.4-4.2c0.2-0.5,0.3-0.9,0.4-1.4c0,0.4-0.1,0.9-0.1,1.3
		c0.3-0.1,0.6-0.2,0.9-0.3c0.3-1,0.9-2.1,1.6-3.8c0.3,1.2,0.6,2.2,0.8,3c1.8-0.6,3.1-1.1,3.8-1.6c4-2.8,6.4-11,6.7-12.5
		c0.2-1.2-0.9-1.7-1.3-1.2h0.1C413.8,247.2,411.4,249.1,408.5,250.3z"/>
	<path fill="#FFFFFF" d="M364.1,321.9c0.3,0.3,0.7,0.6,1,0.9c0.5,0.5,0.9,1,1.1,1.5c4.9-0.2,15.2-5.5,16.7-8.6
		C374.7,319.9,366.1,319.6,364.1,321.9z"/>
	<path fill="#FFFFFF" d="M364.8,313.3v0.1c2.6,2.2,4.7-5.6,7-10.1C368,307.5,362.5,311.5,364.8,313.3z"/>
	<path fill="#FFFFFF" d="M357.6,315.5c2.1,2.6,8.5-7.4,10.8-12.8C364.9,306.9,355.9,313.4,357.6,315.5z"/>
	<path fill="#FFFFFF" d="M376.2,268c-2.6,5.2-0.3,10.6,1.8,9.1c1.9-2.1-0.6-3.6-1.5-7c-0.1-0.4-0.2-0.7-0.2-1.1
		C376.2,268.7,376.2,268.3,376.2,268z"/>
	<path fill="#FFFFFF" d="M376,282.1c2.7-1.3-2.2-3.9-1.9-8.3C372.3,277.9,373.1,283,376,282.1z"/>
	<path fill="#FFFFFF" d="M373.7,286.1V286c2.1-1.2-2-2.7-1.8-7.4C370,282.3,371,287.5,373.7,286.1z"/>
	<path fill="#FFFFFF" d="M383.4,280.3c-3.9,3.9-9.3,3.4-8.5,6.1v0.1C376,289.7,382.4,283.6,383.4,280.3z"/>
	<path fill="#FFFFFF" d="M377.8,281.4v0.1c1.3,3.2,9.3-5.3,11.1-9.3C384.9,276.1,376.9,279.1,377.8,281.4z"/>
	<path fill="#FFFFFF" d="M379.4,276.5c1.3,3.7,9.9-6.2,12.4-9.7C387.6,270.6,378.4,273.8,379.4,276.5z"/>
	<path fill="#FFFFFF" d="M383.4,265.8c-3.7,4-6.8,6.4-3.7,7.1c3.4,0.1,4-2.9,3.9-7.2c0-0.1,0-0.1,0-0.2
		C383.5,265.6,383.5,265.7,383.4,265.8z"/>
	<path fill="#FFFFFF" d="M389.3,264.7c-3.2,3.6-5.7,4.3-4.4,5.6h-0.1C386.3,271.6,389.8,267.1,389.3,264.7z"/>
	<path fill="#FFFFFF" d="M406.4,264.9c3.5,2.1,9.1-6.4,10.6-9.9C413.9,259,405.8,262.6,406.4,264.9z"/>
	<path fill="#FFFFFF" d="M370,286.5c1.5-1.3-0.2-2.1-0.7-5.5C367.3,284,368.3,287.5,370,286.5z"/>
	<path fill="#FFFFFF" d="M403.3,269.8c2,2.1,8.2-3.7,10.3-6.7C410.4,265.9,402.5,266.3,403.3,269.8z"/>
	<path fill="#FFFFFF" d="M411.7,267.3c-3.8,3.7-12.3,3.4-11.7,6.9C400.6,277.2,409.6,270.5,411.7,267.3z"/>
	<path fill="#FFFFFF" d="M401.3,277.5h0.1c1.4,2.7,8.7-4,10.5-7.4C407.3,273.9,400.2,274.9,401.3,277.5z"/>
	<path fill="#FFFFFF" d="M402.7,261.1c-1.4,4-4.4,8.1-0.6,7.9c1.9-0.4,0.9-3.7,1-8c0-0.4,0-0.8,0.1-1.3
		C403,260.2,402.8,260.7,402.7,261.1z"/>
	<path fill="#FFFFFF" d="M404,260.8c-0.3,1.3-0.1,2.3,1.2,3.7c1.8-1.3,1.7-2.5,1.2-4.4c-0.2-0.8-0.5-1.8-0.8-3
		C404.8,258.7,404.2,259.8,404,260.8z"/>
	<path fill="#FFFFFF" d="M400.4,281.3c1.1,3.2,9.4-4.3,10.6-7.2C406.8,277.6,399.7,278.8,400.4,281.3z"/>
	<path fill="#FFFFFF" d="M399.6,263.3c-2.3,5-3.1,9.1-0.2,9.8C402,271.8,399.1,268.7,399.6,263.3z"/>
	<path fill="#FFFFFF" d="M395.4,286.4c1.2,3.2,9.9-3.4,12.5-7C402.8,283.6,394.8,283.2,395.4,286.4z"/>
	<path fill="#FFFFFF" d="M390.3,291.6c1.4,4.6,10.5-2.8,13.2-6.4C397.8,289.7,389.7,288.4,390.3,291.6z"/>
	<path fill="#FFFFFF" d="M398.8,279.9l0.1-0.1c2.9-1.3-2.1-5.3-2.1-10.6C395.4,274.1,396.4,281,398.8,279.9z"/>
	<path fill="#FFFFFF" d="M401.4,232.7c-1.5,5.2-5.3,6.1-4.3,10.4V243C401.9,242.4,401.2,236.5,401.4,232.7z"/>
	<path fill="#FFFFFF" d="M394.7,285.4c3-2.1,0.9-6.7,0.5-11.7C392.6,278.7,391.7,286.3,394.7,285.4z"/>
	<path fill="#FFFFFF" d="M395.2,293.4c1.1,1.7,3.4-1.4,7.4-3.7C399.1,290.7,394.8,291.8,395.2,293.4z"/>
	<path fill="#FFFFFF" d="M389.4,290.6c2.8-0.6,1.3-5.4,1.7-10.2C388.3,284.1,386.2,290.7,389.4,290.6z"/>
	<path fill="#FFFFFF" d="M395.6,232.8c-0.3,1.8-0.1,3.4,1.5,4.6c2.8-1.3,1.9-4.6,0.9-7.8c-0.3-1-0.6-1.9-0.9-2.8
		C396.8,228.8,395.9,230.9,395.6,232.8z"/>
	<path fill="#FFFFFF" d="M392.8,237c0.3,2.8,1,5.1,3.7,5.2c0.3-3.4-1.1-4.6-2.6-6.9c-0.4-0.6-0.9-1.4-1.3-2.3
		C392.6,234.4,392.7,235.8,392.8,237z"/>
	<path fill="#FFFFFF" d="M401.9,240.3c-2.9,4.4-5.4,3-5.3,7.4C399.8,248.1,401.3,245,401.9,240.3z"/>
	<path fill="#FFFFFF" d="M395.5,247.4c1.3-3.2-1.9-4.3-3.2-7.4C392.4,243.4,391.6,248,395.5,247.4z"/>
	<path fill="#FFFFFF" d="M396.4,252.4c3.1,1.2,5-3.9,5.3-6.9C399.2,248.1,395.2,248.8,396.4,252.4z"/>
	<path fill="#FFFFFF" d="M408.2,226.7v-0.1c4.3,0.5,5.3-8.2,5.8-12C412.6,219.8,407.7,222,408.2,226.7z"/>
	<path fill="#FFFFFF" d="M404.2,219.1c0.1,0.3,0.2,0.6,0.2,0.9c0.1,0.5,0.2,1.1,0.3,1.7c0.3,1.9,0.6,3.8,2.7,4.9
		c0.5-3.2-0.6-4.1-2.1-5.9c-0.1-0.2-0.3-0.3-0.4-0.5C404.6,219.8,404.4,219.5,404.2,219.1z"/>
	<path fill="#FFFFFF" d="M395.5,252.9v-0.1c1.3-2.6-3.2-3.9-4-7.3C391,250.3,391.4,253.5,395.5,252.9z"/>
	<path fill="#FFFFFF" d="M408.2,221.7c3.1-1.9,1.5-7,0.4-10.8C407.9,214.9,405.8,219.1,408.2,221.7z"/>
	<path fill="#FFFFFF" d="M404.3,224c-0.6,4.4-1.2,7.1,3.1,8.1C408,227.5,405.6,228.5,404.3,224z"/>
	<path fill="#FFFFFF" d="M408.2,232.3h0.1c4.4,0.3,7-9.4,7.2-13.2C414.2,224.4,407.7,227.1,408.2,232.3z"/>
	<path fill="#FFFFFF" d="M407.2,237.5C407.2,237.5,407.2,237.5,407.2,237.5c-0.1,0-0.1,0.1-0.1,0.1L407.2,237.5z"/>
	<path fill="#FFFFFF" d="M407.2,237.5c1.2-3.3-3-5.4-4-7.8C403,232.1,403.4,237.7,407.2,237.5z"/>
	<path fill="#FFFFFF" d="M408.3,237.9c4.9,0.9,4.6-7,8.5-12.7C413.4,229.5,407.2,234.8,408.3,237.9z"/>
	<path fill="#FFFFFF" d="M408.3,243.5c3.2,0.4,5.8-5.6,7.7-11.7C411.4,239.6,406.7,240,408.3,243.5z"/>
	<path fill="#FFFFFF" d="M407.2,249.5c3.6,1,4.8-5.3,7.4-10.7C411.3,244.4,405.9,245.2,407.2,249.5z"/>
	<path fill="#FFFFFF" d="M407.1,242.5c1.3-2.7-3.2-3.9-4-7.3C402.6,240.1,403,243.3,407.1,242.5z"/>
	<path fill="#FFFFFF" d="M406.5,248.4v0.1c1.6-3-2.9-3.9-4-7.9C401.9,245.7,402.5,249.5,406.5,248.4z"/>
	<path fill="#FFFFFF" d="M402.8,216.5h0.1c-0.2-2.9,2.7-5.6,1.1-11.4c-0.5-2-1.3-5.8-0.6-8c0.7-1.8-1-3.3-1.4-1
		c-0.4,2.2-0.4,6.6,0.4,8.9c1.3,4.8-1.1,7.8-1.1,11C401.2,219,402.9,218.6,402.8,216.5z"/>
	<path fill="#FFFFFF" d="M386.1,224.1c1.1,1.5,2.6,0.5,1.7-1.8c-0.7-1.6-0.9-3.7-1.7-4.9c-1.3-1.8-3.2-3.3-4.4-4.5
		c-1.3-1.1-2.1,0-1.1,1.1c1.3,1.3,2.5,2.7,3.5,4.3C385.7,220.6,385,222.6,386.1,224.1z"/>
	<path fill="#FFFFFF" d="M398.2,204.9v-0.1c0.2,2,1.9,2.1,1.4-0.5c-0.4-2.1-0.4-3.8,0-5.6c0.6-2.2,0.4-6.1,0-7.7
		c-0.5-1.7-2.1-0.7-1.5,0.5c0.7,2,0.9,4.2,0.3,6.3C397.8,199.9,397.9,202.9,398.2,204.9z"/>
	<path fill="#FFFFFF" d="M394.5,205.2c-1,4.4,1.8,7.2,4.4,6.6C398.7,208.6,397.5,205.9,394.5,205.2z"/>
	<path fill="#FFFFFF" d="M416.4,237.4c-0.7,1-0.6,1.7-1.3,3.2c-0.6,1.3-0.3,1.5-1.4,2.6c-1.1,1.4,0.2,2,1.1,1.1s0.5-1.8,1.6-3.4
		c0.4-1,0.2-1.6,1.1-2.7C418.1,237.4,417.1,236.4,416.4,237.4z"/>
	<path fill="#FFFFFF" d="M388.4,277.5c-0.3,2.9-0.7,5.4-2.1,7.6c2.1-0.5,3.2-3.9,3.5-7.2c0.3-3.4,2.1-4.8,3.1-7.3
		C390.4,272,388.7,274.6,388.4,277.5z"/>
	<path fill="#FFFFFF" d="M393,270.4C393,270.4,393,270.5,393,270.4c0,0.1,0.1,0,0.1,0H393z"/>
	<path fill="#FFFFFF" d="M406,209.2c-0.5,1.8,1.1,1.7,1.3,0.4c0.2-1.4,0.4-3.2-0.2-4.6c-0.5-1-0.4-3,0.2-3.9
		c0.6-0.9-0.9-1.5-1.3-0.4c-0.5,1.6-0.5,3.3,0,4.9C406.4,206.7,406.4,208,406,209.2z"/>
	<path fill="#FFFFFF" d="M385.2,284.4c0.3-3,2.8-5,2.4-7.8c-1.8,3.3-4.3,4.6-4.5,7c-0.2,2.9-0.4,3-1.2,5.7
		C384.2,288.9,384.7,288.7,385.2,284.4z"/>
	<path fill="#FFFFFF" d="M377.4,215.1c1.4,0.9,2.3,4.7,2.2,6.2c0.1,2.1,2.1,3.7,3.3,5.3c1.1,1.4,3.1,0.4,1.5-1.6
		c-1.3-1.6-3.2-3-3.2-4.7c-0.2-2.1-1.4-5.3-2.6-6.5S376.1,214.3,377.4,215.1z"/>
	<path fill="#FFFFFF" d="M342.2,303.1c0.7-3.2,1.7-5.6,3.5-8.5l0-0.1c-2.6,2.1-4.5,4.9-5.3,8.2c-0.9,3.1-2.1,5.5-3.8,8.3
		C339.3,309.1,341.3,306.3,342.2,303.1z"/>
	<path fill="#FFFFFF" d="M337.7,303.1c0.7-3.2,2.7-5.5,4.7-8.5l0-0.1c-3,2.3-5.7,5.1-6.6,8.4c-0.9,3.1-1.4,5.4-3.4,8.5
		C335.6,309.3,336.7,306.4,337.7,303.1z"/>
	<path fill="#FFFFFF" d="M332.3,304.3l0.3-2.1c0.1-0.5-0.2-1.1-0.7-1.3c-0.9-0.3-1.8-0.6-2.8-0.9c-1.1-0.3-1.7,0.4-1.7,1v2.1
		c0,0.7,0.2,0.9,0.7,1c0.7,0.1,1.8,0.2,2.6,0.7C331.3,305.3,331.9,305,332.3,304.3z"/>
	<path fill="#FFFFFF" d="M331.7,307.3c-2,1.8-4.3,2.9-4.3,4.3C329.6,312.1,330.7,309.2,331.7,307.3z"/>
	<path fill="#FFFFFF" d="M322,300.9c-0.4,0.1-0.6,0.6-0.6,1.3l0.1,2.2c0.1,0.6,0.6,1,1.2,0.6c0.7-0.6,1.9-0.6,2.7-0.6
		c0.4-0.2,0.4-0.2,0.4-1.1v-2.2c0-0.4-0.1-0.6-1.2-0.6C323.6,300.4,322.8,300.6,322,300.9z"/>
	<path fill="#FFFFFF" d="M328.7,307.9h-0.1c-3.9,1.7-7.4,1.3-8,3.8C324.4,312.2,325.9,310.7,328.7,307.9z"/>
	<path fill="#FFFFFF" d="M362.2,321.7c-4.5-3.7-9.5-6.6-12.7-11.2c-0.1-0.3-0.6-0.3-1.1-0.3c-0.5,0.1-1.1,0.2-1.6,0.4
		c-9.6,3.3-18.4,5.6-27.6,5.6c-9.2-0.3-18.2-2.3-26.6-6h-1.3c-0.4,0.1-0.8,0.3-1.2,0.6c-3.8,3.8-8.1,7.7-12.5,11.1
		c-0.3,0.2-0.4,1.1,0.4,1.5c8.8,3.2,17.3,9,42,8.8c24.8-0.2,33.4-6,41.5-8.7c0.4-0.1,1-0.4,1.1-0.7c0.1-0.1,0.1-0.3,0-0.4
		L362.2,321.7z M338.3,313.6h3l-0.2,2H338L338.3,313.6z M332.7,316.6l3.1,0.3h0.1l-0.5,2l-3.2-0.3L332.7,316.6z M307.9,318.7
		l1.5,0.8l1.5-1l1.8,1v0.1l-2,1.3l-1.3-0.9l-1.4,1l-1.9-1L307.9,318.7z M298.1,317.2l1.6,1.6l0.1,0l0,0.1l-0.1-0.1l-2.4,1.1
		l-1.8-1.7L298.1,317.2z M298.8,325.5c-0.5,0.5-1,1-1.6,1.4c-0.5,0.3-1.1,0.5-1.7,0.6l-2.4-0.1c-1-0.1-1.9-0.4-2.8-0.7
		c-1.3-0.4-2.5-1-3.4-2c-0.6-0.8-0.6-1.5,0-2.2c0.6-0.7,1.2-1.2,2-1.6c0.8-0.5,2-1,3.8-1.6l0.4,0.5l-2.8,1.2c-0.5,0.3-1,0.6-1.3,1
		c-0.4,0.4-0.3,1,0.2,1.6c1.8,1.4,4,2.2,6.3,2.2c1.2,0,2-0.3,2.3-0.7c0.3-0.3,0.4-0.6,0.5-1l0.2-1.6l2.5-1.5c0,0.5,0,1-0.1,1.5
		c-0.2,0.6-0.6,1.1-1,1.6l-1.2,1.4H298.8z M324,328.3c-0.7,0-1.5-0.1-2.2-0.2c-0.6-0.1-1.1-0.3-1.7-0.5c-0.4,0.2-0.9,0.3-1.3,0.4
		c-0.6,0-1.1,0-1.7,0h-2c-0.4,0-0.8-0.1-1.2-0.3c-0.3-0.2-0.5-0.5-0.8-1c-0.4,0.4-0.9,0.8-1.5,1l-1.7,0.1h-1.7l0-0.3l-4.6-0.8
		l-0.1,0.1v-0.1l-0.1,0l-1.1-0.2l0,0l-0.4-0.1c-0.9-0.2-1.4-0.6-1.5-1.2c-0.2-0.6,0.1-1.5,0.8-2.8l1.2-2c0.3-0.5,0.4-0.9,0.3-1.2
		c-0.1-0.2-0.2-0.5-0.3-0.7l2.2-1.6c0.3,0.5,0.3,1,0.3,1.4c0,0.5-0.3,1.1-0.7,1.8l-0.8,1.4c-0.4,0.7-0.8,1.4-0.9,2.2
		c0,0.4,0.2,0.6,0.5,0.7l0.9,0.2l5.4,0.9c0-0.4,0-0.7-0.2-1c-0.1-0.3-0.3-0.5-0.5-0.8l1.6-1.7c0.4,0.6,0.6,1,0.7,1.6
		c0,0.5-0.2,1.2-0.5,2.1c0.6,0,1.2-0.1,1.7-0.4c0.8-0.3,1.3-1,1.3-1.8l0.7,0.1c0,0.4-0.1,0.9-0.1,1.3c0,0.3,0,0.5,0.3,0.7
		s0.6,0.3,1,0.3h1.5c1,0,1.6,0,2-0.2c0.6-0.2,0.9-0.5,1-1.1l0.1-0.4c0,0,0.3,0,0.5-0.2l0.5-0.2v0.4c0,0.1,0,0.2,0,0.3l-0.3,1.1
		c0.5,0.2,1,0.3,1.5,0.4l0.6-0.1c0-0.1-0.1-0.3-0.1-0.5l-0.3-0.6c0-0.1,0-0.2,0.1-0.3l0.3-0.2l1-0.9l0.5,1v1l0,0.4l4.1-0.5
		c-0.1-0.3-0.3-0.6-0.6-0.8c-0.3-0.2-0.7-0.4-1-0.6l0.5-2c0.7,0.4,1.2,0.9,1.6,1.3c0.3,0.5,0.6,1.2,0.8,2.1l0.4,2l-6,0.6L324,328.3
		L324,328.3z M343.2,324.6l0.1,0l-1.7,0.4c-0.6,0.1-1.1,0.1-1.7,0c-0.5,0-1-0.2-1.5-0.4c-0.3,0.5-0.8,1-1.5,1.2
		c-0.5,0.3-1,0.5-1.6,0.6l-1.2,0.3l0-0.1l-0.5,0.1c-0.8,0.2-1.5,0-2.2-0.4c-0.8-0.7-1.4-1.6-1.7-2.6l-0.8-2.2
		c-0.2-0.5-0.5-0.8-0.8-1c-0.2-0.1-0.4-0.2-0.6-0.3l-0.3,0.6l-3-0.7l1-1.9l2.4,0.5l0.2-0.8c0.6,0.3,1,0.6,1.4,1l1,1.7l0.5,1.5
		l1.1,2.2c0.3,0.3,0.7,0.4,1,0.3l1.2-0.1l0.2-0.1c0.4-0.1,0.9-0.2,1.3-0.4l0.9-0.5l-1-0.5h-0.7c-0.1,0-0.1,0-0.2,0
		c-0.1,0.1-0.2,0.2-0.2,0.3h-0.5c-0.5-0.8-0.6-1.5-0.3-2c0.3-0.5,0.9-0.8,2-1c0.8-0.2,1.7-0.3,2.6-0.2c0.8,0.1,1.3,0.4,1.5,0.9
		c0.2,0.2,0.2,0.5,0.2,0.7l-0.4,1.2h0.5c0.2,0,0.4,0,0.6,0l0.3-0.1l0,0l6.5-2l-0.7-0.8c-0.3-0.3-0.6-0.5-0.9-0.6
		c0,0.4-0.1,0.7-0.4,1c-0.3,0.3-0.6,0.5-1,0.6c-0.6,0.2-1.2,0.2-1.8,0c-0.5-0.1-1-0.3-1.3-0.7c-0.4-0.6-0.7-1.4-0.7-2.2
		c0-1,0.3-1.6,0.9-1.8c0.7-0.2,1.8,0,3,0.7c1.2,0.5,2.2,1.4,3,2.4l2.3,3.1l-6.6,2L343.2,324.6z M351.1,322.3c-0.3-0.5-0.6-1-1-1.5
		c-0.3-0.4-0.7-0.8-1.1-1.2c-0.6-0.5-1.1-1-1.7-1.5c-0.6-0.6-1.3-1.2-2-1.7c-0.4-0.2-0.6-0.4-0.6-0.5c-0.2-0.2-0.3-0.5-0.3-0.8
		c-0.1-0.5-0.2-1.1-0.2-1.6l2.7,2.2c0.9,0.7,1.7,1.4,2.5,2.2l1.4,1.5v0c0.4,0.4,0.6,0.8,0.7,1.2l0.4,1.6L351.1,322.3z"/>
	<path fill="#FFFFFF" d="M342.5,318.2c-0.2,0-0.4,0.1-0.5,0.3c-0.1,0.2-0.1,0.4,0,0.6l0.5,0.2h0.6l0.4-0.3l0.4-0.5v0
		c-0.3-0.1-0.5-0.2-0.8-0.3C342.9,318.1,342.7,318.1,342.5,318.2z"/>
	<path fill="#FFFFFF" d="M364.1,321.9c-1.3-1.1-2.6-2.2-3.9-3.3c-0.5-0.4-1-0.9-1.5-1.3c-1.3-1.1-2.5-2.3-3.8-3.4
		c-0.7-0.7-1.5-1.4-2.2-2.1c-0.6-0.6-1.3-1.3-1.9-1.9c-0.9-0.9-1.6-1.4-2.9-1.3c-0.2,0-0.4,0.1-0.7,0.2c-0.3,0.1-0.6,0.2-1,0.4
		c-8.5,3.8-17.6,6-26.9,6.3c-8.9,0-21.2-4-26.2-6.2l0-0.1c-1.4-0.5-2.9,0-4.3,1.5c-0.4,0.4-0.8,0.8-1.3,1.2
		c-0.8,0.8-1.6,1.5-2.4,2.2c-1.3,1.2-2.7,2.3-4,3.5c-0.4,0.4-0.9,0.8-1.3,1.1c-1.4,1.2-2.7,2.3-4,3.3c-0.4,0.3-0.8,0.7-1.3,1
		c-0.4,0.4-0.9,0.8-1.1,1.3c-0.7,1.4-0.2,3.2,4.7,5c0.3,0.2,5.3,2.1,8.5,2.1c1.4,0,1.4,1.9,1.1,2.4c-0.5,1.1-0.1,1.5-1.2,2.4
		c-1.2,1.1,0,2.2,1.1,1.4c3.8-3.4,10.2-1.2,16.3,0.7c1.5,0.4,4,0.3,4-1.7c0-2.1,1.6-3.6,2.6-3.7c2.6,0.4,14.9,0.5,18.6,0.1
		c2.1-0.3,2.3,3.1,3.5,4.3c0.9,1,3.9,1.2,6.2,0.2c4.3-1.9,10.6-1.9,13.3,0c1.1,0.7,2,0,1.4-0.7c-0.9-1.1-0.7-1.7-1.2-2.6
		c-1.1-2.1-0.2-2.6,0.9-2.7c10-1.4,14.2-4.4,13-7.4c-0.2-0.5-0.6-1-1.1-1.5C364.8,322.4,364.5,322.2,364.1,321.9z M336.7,336.6
		c-1.9,0.9-4.3-1.1-2-2.9c3.2-2.4,10.3-1.1,15.6-1.6c0,1.3,0.2,2.3,1.1,3.3C346.5,333.9,341.3,334.3,336.7,336.6z M363,323
		c-0.3,0.5-0.9,0.9-1.4,1.1c-7.9,2.7-16.7,8.4-41.7,8.6c-24.7,0.2-33.3-5.6-42.1-8.8c-1.2-0.4-1.3-1.8-0.5-2.3
		c4.4-3.4,8.6-7,12.5-11c0.3-0.3,0.9-0.6,1.4-0.7c0.5-0.2,1.1-0.2,1.6,0c8.4,3.4,17.7,6,26.5,6c9,0,17.8-2.3,27.3-5.7l1.7-0.4v0.1
		c0.6-0.1,1.3,0,1.6,0.5c3.2,4.4,8,7.3,12.5,11.1c0.3,0.2,0.5,0.5,0.6,0.9C363.2,322.5,363.2,322.8,363,323z"/>
	<path fill="#BD6B00" d="M362.5,321.3c-4.6-3.7-9.4-6.7-12.5-11.1c-0.3-0.5-1-0.6-1.6-0.5v-0.1l-1.7,0.4c-9.6,3.4-18.3,5.7-27.3,5.7
		c-8.8,0-18.1-2.6-26.5-6c-0.5-0.2-1.1-0.2-1.6,0c-0.5,0.1-1.1,0.4-1.4,0.7c-3.9,3.9-8.1,7.6-12.5,11c-0.7,0.5-0.6,1.9,0.5,2.3
		c8.8,3.2,17.4,9,42.1,8.8c25-0.2,33.8-6,41.7-8.6c0.5-0.2,1.1-0.5,1.4-1.1c0.2-0.3,0.2-0.6,0.1-0.9
		C363,321.9,362.8,321.6,362.5,321.3z M362.6,322.8c-0.1,0.3-0.6,0.6-1.1,0.7c-8.1,2.8-16.7,8.5-41.5,8.7c-24.7,0.2-33.2-5.6-42-8.8
		c-0.9-0.4-0.7-1.3-0.4-1.5c4.5-3.4,8.7-7.2,12.5-11.1c0.3-0.3,0.7-0.5,1.2-0.6h1.3c8.4,3.7,17.4,5.7,26.6,6
		c9.3,0,18.1-2.3,27.6-5.6c0.5-0.2,1-0.3,1.6-0.4c0.5,0,1,0,1.1,0.3c3.2,4.6,8.2,7.4,12.7,11.2l0.4,0.7
		C362.6,322.5,362.6,322.7,362.6,322.8z"/>
	<path fill="#FFFFFF" d="M298.8,161c0.6-0.4-0.2-2.2-0.9-1.8v-0.1C297.2,159.6,298.2,161.3,298.8,161z"/>
	<path fill="#FFFFFF" d="M299.5,155.4c1.5-0.7,2.8-1.7,3.9-3c0.2-0.3-0.4-1-0.9-0.7c-1.5,0.9-2.8,2.1-3.8,3.5
		C298.7,155.4,299.2,155.7,299.5,155.4z"/>
	<path fill="#FFFFFF" d="M340.2,149.2L340.2,149.2c2.3,1.8,4.1,4.1,5.3,6.7c0.1,0.3-2,7.7-2.3,9.1c-0.4,1.9,1.2,2.1,1.4,1.1l1.8-8.2
		c0-0.3,1.6,5.1,2.6,6.6c0.2,0.2,1.7,1.1,1.4-0.2c-0.9-2.9-2.1-5.6-3.5-8.3c-0.2-0.2,1.8-6.5,1.9-7c0.2-1.7-1.3-2.1-1.7-0.7
		c-0.5,1.7-0.4,5.5-1.2,5.3c-1.3-0.4-3-5.2-4.7-7.3C340.2,145.2,338.4,148.1,340.2,149.2z"/>
	<path fill="#FFFFFF" d="M307.6,152.5c-1.4-1.1-3.2,0.4-1.8,1.5c1.2,1,0.9,2.1,0.4,2.7c-0.8,1.2-1.6,2.3-2.5,3.4
		c0.2,0.5,0.4,0.9,0.7,1.3C307.2,157.6,309.4,153.8,307.6,152.5z"/>
	<path fill="#FFFFFF" d="M302.7,161.2c-1.1,1.3-2.3,2.4-3.6,3.5c-1,1-0.3,2.8,0.4,2c1.1-1.1,2.5-2.6,3.8-4.2
		C303.1,162.2,302.9,161.8,302.7,161.2z"/>
	<path fill="#FFFFFF" d="M334.5,146.6c0.9-0.2,0.7-1.9-0.2-1.9C333.4,144.8,333.9,146.8,334.5,146.6z"/>
	<path fill="#FFFFFF" d="M332.1,150.1C332.1,150.1,332.1,150.1,332.1,150.1c0-0.1,0-0.1,0-0.1L332.1,150.1z"/>
	<path fill="#FFFFFF" d="M334.2,151.4c1.4,0,2.6,0,2.6-1.3c0-1.4-0.7-2.7-1.1-1.7c-0.1,0.9-0.3,2.3-0.9,1.7
		c-0.4-0.5-0.2-0.6-1.1,0.2c-0.5,0.5-0.5-0.2-0.9-0.6c-0.2-0.3-0.8,0.2-0.8,0.4C332.1,151.6,332.8,151.5,334.2,151.4z"/>
	<path fill="#FFFFFF" d="M283.2,164.7c-0.7,1.1,0.1,3.7,1.1,4.6c2.3,1.2,5.1,1,7.2-0.5c1.8-1.5,3.7-3.7,3.4-6.4
		c-0.1-1.3-0.8-2.8-1.6-4.4c-0.4,0.3-0.9,0.6-1.3,0.9c0.9,1.8,1.5,3.4,1.5,4.8c0,2.3-2.9,5-6.4,5
		C284.6,168.6,283.5,164.4,283.2,164.7z"/>
	<path fill="#FFFFFF" d="M289.7,149.6c0.2-2-1.9-1.9-1.9-0.4c0.1,2.3,2,5.4,3.6,8.3c0.4-0.3,0.9-0.6,1.3-0.9
		C291.2,153.8,289.5,151,289.7,149.6z"/>
	<path fill="#FFFFFF" d="M313.3,145.7c0.7-0.1,2.4-1.2,2.8-1.9c0.2-0.3,0-1.3-0.4-0.7c-0.5,0.4-2.4,1.2-2.8,1.8v0.1
		C312.7,145.2,313,145.7,313.3,145.7z"/>
	<path fill="#FFFFFF" d="M315.3,147.2c-0.6,0.9-1.1,0.6-1.7,0.9c-0.3,0.2-0.1,0.7,0.1,0.9c0.6,0.2,1.6,0.2,2.1,0
		C316.4,148.4,316.1,145.8,315.3,147.2z"/>
	<path fill="#FFFFFF" d="M318.2,145.5c1.1-0.7,2.8-2.4,3.1-3.5c0.2-0.4-0.6-0.7-1.2-0.4c-1.2,1-2.1,2.2-2.7,3.6
		C317.4,145.5,317.9,145.8,318.2,145.5z"/>
	<path fill="#FFFFFF" d="M328.2,147.9c0.5-0.5,1.5-1.1,1.6-1.8c0.1-0.9-0.5-1.2-0.9-0.9c-0.5,0.5-1,1.4-1.6,1.9h0.1
		C327.2,147.5,327.7,148.2,328.2,147.9z"/>
	<path fill="#FFFFFF" d="M319.6,155.7c1.7-0.6,3.2-0.4,5.1-0.6c1.9-0.2,2.3-1.9,0.4-1.6c-3.1,0.4-8.3,0-8.8-0.7
		c-0.5-0.5,2.9-3.4,4.8-3.4c2.4-0.2,3.5-2.7,2.1-4.1c-0.9-0.9-2.9-0.3-2.9,0.4c0,1.4,1.8,0.3,1.7,1.4c-0.1,0.7-1.4,1.1-2.6,1.1
		c-1.4-0.1-4.6,3.2-5,4c-0.3,0.6-0.5,1.8,0.3,2c1.1,0.3,4.5,0.4,3.6,0.7c-1.2,0.5-2.2,1.8-3,2.9c0.3,0.4,0.5,0.8,0.8,1.3
		C317.1,157.8,318,156.1,319.6,155.7z"/>
	<path fill="#FFFFFF" d="M328.3,155.9c-1.3,2.3-3.8,6.6-5.1,6.6c-1,0-1.3-2.8-1-4.8h0c0.1-1.1-1-0.6-1.5,1.1c-0.7,1.7,1,6,2.4,6.2
		c1.6,0.1,3-5.2,4.3-5.2c1.2,0.1-0.9,5.5,3,5.7c0.9,0.1,2.1-1.7,3.2-1.7s1.9,1.6,3.2,1.6c1.4,0,3.3-1.5,3.3-4
		c-0.1-1.6,1.3-3.7,0.5-5c-1.1-1.9-3.1-2-2.2-0.6c1.3,2.1,0.2,4.1,0,6.1c-0.4,3.2-3.5,1.7-3.5,0.6c-0.1-2.7-0.1-5.3,0.1-8
		c0.1-1.3-1.2-1-1.3,0.3c-0.3,2,0.4,5.3-0.4,7.1c-0.4,1-3.2,2.2-3.6,1.6c-0.6-1.3-0.7-5.6,0-7.7
		C330.2,154.4,329.1,154.6,328.3,155.9z"/>
	<path fill="#FFFFFF" d="M343.4,166.8c-0.4,0-1.3,1.1,1.3,1.6c3.3,0.6,7-0.5,8.1-3.8c1.4-3.9,2.1-7.7,2.9-9c0.9-1.6,1.9-1.5,1.1-3.8
		c-0.5-1.8-1.6-1.3-1.8-0.3c-0.5,2.4-2.8,10.6-3.5,12C350.1,166.2,347.5,167.3,343.4,166.8z"/>
	<path fill="#FFFFFF" d="M351.3,151.7c1.2,0,2.4-0.3,3.5-0.9c0.2-0.2,0.1-0.7-0.2-0.7c-1.1,0-2.8,0-3.6,0.5
		C350.8,150.9,351,151.8,351.3,151.7z"/>
	<path fill="#FFFFFF" d="M355.8,166.6c2.3-4.3,4.5-8.7,6.7-13.1c0.9-1.8-1.3-1.7-2.1-0.4c-0.2,0.3-4.7,11.6-5.4,13.1
		C354.3,167.4,354.9,168.1,355.8,166.6z"/>
	<path fill="#FFFFFF" d="M350.5,155.7c0.7,0,2.3,0.1,2.3-1.1c0-0.9-0.7-1.6-1.2-0.6c-0.5,0.9-1.1,0.7-1.4,0l0-0.1
		c-0.4-0.7-1.3,0-1.1,0.7C349.3,155.2,349.8,155.7,350.5,155.7z"/>
	<path fill="#FFFFFF" d="M372.3,160.2c1.1-1.5-0.5-2.6-1.1-1.4c-0.4,0.7-0.9,1.5-1.4,2.4c0.2,0.7,0.3,1.4,0.5,2.1
		C370.9,162.3,371.6,161.2,372.3,160.2z"/>
	<path fill="#FFFFFF" d="M362.4,173.3c-2.7,1.7-1.8-2.1-1.9-3.4c-0.1-0.9-1.2-2.1-2.6-1c-1.1,0.9-2.5,1.3-3.9,1.3
		c-0.7,0-1.5,0-1.8-1.5h0c-0.2-0.9-1.6-2.1-1.4,0.2c0.2,4,5.8,2.8,7.4,1.4c1.6-1.4,0.3,4.6,2.3,5.2c1.1,0.3,3.2-1.2,4.3-2.6
		c1.7-2.2,3.1-5.1,4.5-7.8c-0.2-0.6-0.3-1.3-0.5-1.9C366.8,167.3,364.7,171.8,362.4,173.3z"/>
	<path fill="#FFFFFF" d="M264.8,168.1c-0.2,0.1-1.1,0.7-1.6,1.4c-0.4,0.4,0.9,1.3,1.1,1.1c0.4-0.4,2.2-2.4,1.9-3.2
		c-0.3-0.6-2.8-2.1-3.2-1.4C262.3,167.1,265.4,167.8,264.8,168.1z"/>
	<path fill="#FFFFFF" d="M359.7,166.1V166c-0.3,0-0.6,1.1,0.2,1.2l4.1-0.2c0.4,0,0.6-1-0.4-0.9C362.4,166.1,360.8,165.8,359.7,166.1
		z"/>
	<path fill="#FFFFFF" d="M362.1,161.3c0-0.3-1.2-0.4-1.1,0.8c0,0.9,1.1,1.1,1.2,1.1C363.8,161.9,362,162.4,362.1,161.3z"/>
	<path fill="#FFFFFF" d="M270.1,180.4c0.9-1.3-0.7-5.8,0-6.4c0.5-0.5,3,3,4.3,3.2c2.9,0.4,2.1-4.9,5.3-4.5c2,0.2,2.2-2.3,1.9-4
		c-0.2-1.6-2.8-3.8-3.9-4.9c-1.5-1.3-2.2,1.1-1.3,1.7c1.3,1.1,3.5,3.1,3.8,4.4c0.1,0.6-1.5,1.9-2.1,1.6c-1.5-0.9-2.8-4.3-4-5
		c-0.4-0.2-1.5,0.3-1.1,1.4c0.6,1.2,3.2,2.9,3.3,4.1c0.1,1.1-1.1,3.4-1.9,3.4c-1,0-3.2-2.9-3.9-4.3c-0.4-0.5-1.6-0.5-1.8,0.4
		c-0.2,1.3,0.2,4.1,0.5,5.8c0.2,1.7-1,1.8-1.6,1.2c-0.4-0.4-1.7,0.7-0.6,1.6C267.4,180.8,269.5,181.4,270.1,180.4z"/>
	<path fill="#FFFFFF" d="M362.2,161.2C362.1,161.2,362.1,161.3,362.2,161.2c0,0.1,0,0.1,0,0.1V161.2z"/>
	<path fill="#FFFFFF" d="M370.2,169.4c0.3-0.5,0.6-1,0.8-1.5c-0.2-1.5-0.5-3.1-0.8-4.5c-0.1-0.7-0.3-1.4-0.5-2.1
		c-0.6-2.4-1.3-4.4-2.3-5.5c-1-1.1-2.3,1.6-1.6,2.1c1.1,1,2.1,3,2.8,5.4c0.2,0.6,0.4,1.2,0.5,1.9C369.7,166.6,370,168,370.2,169.4z"
		/>
	<path fill="#FFFFFF" d="M303.3,156.1c0-1.1-1.1-1-1.1,0c0.1,1.2,0.1,3.5,0.4,5.1c0.1,0.6,0.3,1.1,0.6,1.3c0.1,0.1,0.3,0.2,0.4,0.3
		c5.6,1.6,8.4-3.9,9.7-3.7c0.5,0.1,1.9,3.4,3.2,4.3c1.8,1.3,2.6,0.4,1.8-0.9c-0.7-1.1-1.5-2.3-2.2-3.5c-0.3-0.4-0.5-0.8-0.8-1.3
		c-1.8-3-3.5-6.3-4.4-10.3c-0.3-1.3-2.3-0.6-1.5,1.3l0-0.1c0.9,2.2,3.7,6.4,2.9,8.5c-0.9,2.1-4.9,4.7-6.8,4.7
		c-0.5,0-0.9-0.3-1.2-0.6c-0.3-0.3-0.5-0.8-0.7-1.3C303.3,158.7,303.3,157.1,303.3,156.1z"/>
	<path fill="#FFFFFF" d="M269.1,162c0.4-0.7-1.5-1.5-1.5-1.5S268.5,163.2,269.1,162z"/>
	<path fill="#FFFFFF" d="M283.2,154.5c1-1.1,2.9-3.2,2.3-4.3c-0.4-1.1-1.6-1.1-1.8-0.7c-1.1,1.4,0.9,1.1,0.5,1.5
		c-0.5,1.1-1.1,1.7-1.4,2.8C282.8,154.1,283,154.7,283.2,154.5z"/>
	<path fill="#FFFFFF" d="M297.7,152.7c0.3-1.3,1.5-3.3,2.7-3.7c1.1-0.5,2.8,2,3.8,0c0.6-1.1,2.9,0.7,3.4-0.4
		c0.6-1.4,0.3-2.1,0.3-3.6c0-0.9-0.7-1.1-1.3,0.3c-0.2,0.6,0,1.3-0.1,1.7c-0.2,0.2-0.6,0.4-1.1,0.2c-0.2-0.2,0-0.7-0.6-1.1
		c-0.2,0-0.6-0.1-0.9,0.2c-0.7,1.4-1.1,2.7-2.2,1.1c-1-1.1-1.5-3.3-2.1-0.3c-0.2,1.1-1.8,2.6-2.8,2.6c-1.2,0-0.9-3.2-3.4-2.7
		c-1.4,0.3-1.3,2.9-1.1,3.7c0.3,1.4,4.3,0.4,3.9,1.3c-0.4,1.6-1.8,3.2-3.6,4.7c-0.4,0.3-0.8,0.6-1.3,0.9c-1.1,0.7-2.2,1.3-3.3,1.9
		c-1.1,0.6,0.2,1.8,1.1,1.3c0.9-0.6,1.9-1.2,2.9-1.8c0.4-0.3,0.9-0.6,1.3-0.9C295.3,156.6,297.1,155,297.7,152.7z M293.8,150
		c-0.3-0.3-0.2-1.7,0-1.7c0.5,0,1.7,1.5,1.6,2C295.4,150.6,294.1,150.3,293.8,150z"/>
	<path fill="#FFFFFF" d="M274,157.4c0.7-0.5,1.1-1.2,1.3-2c0-0.3-0.2-0.9-0.5-0.6c-0.7,0.5-1.1,1.3-1.3,2.1
		C273.5,157,273.8,157.5,274,157.4z"/>
	<path fill="#FFFFFF" d="M266,173.4c-0.2-0.3-1.9-0.3-2,0c-0.1,0.5,0.5,1.8,1.2,1.9C265.8,175.3,266.2,174,266,173.4z"/>
	<path fill="#FFFFFF" d="M277.7,154.4c2.9,3.6,5.1,7.9,7.8,11.3c1,1.2,1.8,0.5,1-1.1c-1.1-2.3-6.4-9.4-6.9-10.7
		C278.8,151.6,276.9,153.3,277.7,154.4L277.7,154.4z"/>
	<path fill="#FFFFFF" d="M268.9,164.7v0.1c-0.2,0-1.1,0.7-0.5,1.1c0.9,0.4,3.1,0.9,2.6-0.7c-0.3-1,3.4,0,2.4-2.6
		c-0.4-0.8-1-1.4-1.8-1.8c-0.4,0-1.6,0.5-0.9,1c0.5,0.2,2.1,1.2,1.6,1.8c-0.7,0.6-1.2-0.3-2-0.1c-0.4,0-0.1,1.3-0.4,1.6
		C269.8,165.2,269.1,164.6,268.9,164.7z"/>
	<path fill="#FFFFFF" d="M370.9,176c0,0.2,1.1-0.7,1.1-0.7c-0.2-1.7-0.4-3.5-0.6-5.4c-0.3,0.5-0.6,1-0.8,1.4
		C370.7,173.2,370.9,174.9,370.9,176z"/>
	<path fill="#FFFFFF" d="M367.5,174.5c-0.4,1.4,0.6,1.9,1.1,0.9c0.3-0.9,1.1-2.4,2-4c0.3-0.5,0.5-1,0.8-1.4c1.5-2.5,3.1-4.9,3.9-5.6
		c1.7-1.6,0-4.6-0.4-3.5c-0.4,1.1-2.1,4.1-3.8,7.1c-0.3,0.5-0.6,1-0.8,1.5C368.8,171.8,367.6,173.9,367.5,174.5z"/>
	<path fill="#FFFFFF" d="M315.7,182.9c0.3-1.5,0-2.3,0.3-3.8c0.1-0.4,0.9-0.4,1.2-0.7c0.2-0.2,0.1-0.6-0.2-0.7
		c-0.7-0.2-1.4-0.3-2.6,0.4c-0.6,0.4-0.2,1.3,0.4,1.4c1,0.1-0.4,2.3-0.4,3.8C314.3,184.4,315.4,184.4,315.7,182.9z"/>
	<path fill="#FFFFFF" d="M364.6,177c-1-0.7-1.5,0.7-1.2,1c0.9,0.6,3.6,1.7,5.1,1.4c5.8-1.1,7-8,10.6-11.6c2.4-2.3-0.3-7.2-1.4-3
		c-1.3,4.7-3.8,8.9-7.2,12.3C369,178.4,366,178.1,364.6,177z"/>
	<path fill="#FFFFFF" d="M333.7,176.9c-1.5,1.2-1.2,1.2-2.1,1.4v0.1c-0.5,0.2,0,1,0,1.4c0.1,1.4-0.2,2.4,0,3.5c0,0.4,0.9,0.4,0.9,0
		c0.2-0.9,0-3.1,0.4-4c0.3-0.7,1.4-0.2,1.4-1C334.3,177.8,334.2,176.5,333.7,176.9z"/>
	<path fill="#FFFFFF" d="M315.8,175c-1.7,1.3-3,2.1-4.6,3.8c-0.5,0.5-0.9,2.6-1.3,2.8c-0.7,0.3-0.7-1.4-1.8-1.3
		c-0.9,0.2-0.7,2-3.2,2.3c-0.7,0,0.6,1.6,1.4,1.6c0.9,0,1.2-1.2,1.8-2.1c0.6-0.9,0.5,0.9,1.1,1.3c0.3,0.1,1.5,0,1.8-1
		c0.4-1,0.3-1.9,1-2.6c1.4-1.7,2.9-2.2,4.4-3.7v0.1C317.2,175.5,316.5,174.4,315.8,175z"/>
	<path fill="#FFFFFF" d="M327.1,178.2c0-0.9,0.2-2.1,0-2.4c-0.2-0.1-0.7-0.3-0.9-0.1c-0.2,1-0.2,1.7-0.2,2.4
		C326,178.6,327.1,178.3,327.1,178.2z"/>
	<path fill="#FFFFFF" d="M325.7,182.6c-1.3,0.2-0.6-1.3-1.1-1.5c-1.8-0.9-1.9,0.2-2.7,0.3v0.1c-1.3,0.2-1.1,1.8-0.6,1.9
		c0.5,0.3,1.5,0.4,1.8-1.4c0.2-0.7,0.3,3.7,1.9,2c1.1-1.1,3.3,0.2,4.3-1.1c0.7-1,1.1-1.6,0.4-2.9c-0.2-0.3-1.1-0.2-1.1,0.7
		c0,0.9-0.5,1.8-1.4,1.7c-0.4-0.1,0.2-2-0.2-2.6c-0.2-0.2-0.5-0.2-0.7,0C326,180.4,326.6,182.4,325.7,182.6z"/>
	<path fill="#FFFFFF" d="M306.1,175c4.2-1.9,8.8-2.9,13.4-2.8c5.2,0,9.9,1.1,13.3,2.8l9.4-4.6l-9.6,3.6l4.3-3.6l-5.8,3l4.6-5.5
		l-7.4,4.8l2.3-4l-4.3,3.5l1.6-5.8l-4.6,5.5v-4.1l-2.1,4l-1.6-6l-1.5,6l-2.1-4v4.1l-4.7-5.5l1.6,6l-4.3-3.6l2.3,4l-7.4-4.8l4.7,5.5
		l-6-3l4.3,3.6l-9.6-3.6L306.1,175z"/>
	<path fill="#FFFFFF" d="M310.5,295.8l0.1,1.8h0.4l0.3-2.6v-0.1c0-1.1-0.1-2.2-0.5-3.2c-0.3-0.9-0.8-1.7-1.5-2.4l-0.8,2.2l1,1.4
		c0.2,0.4,0.4,0.9,0.5,1.3C310.2,294.7,310.4,295.3,310.5,295.8z"/>
	<path fill="#FFFFFF" d="M317.8,289.3c0,0.9-0.4,1.3-1.2,1.3c-0.4,0-0.7-0.1-1-0.3l-1-1l-0.6,2l1,1.7c0.3,0.4,0.5,0.9,0.7,1.4l0.4,1
		c0.1,0.3,0.2,0.7,0.2,1c0.1,0.4,0.1,0.9,0.1,1.3h0.4c0-0.4,0.1-0.9,0.1-1.3c0.1-0.7,0.1-1.3,0-2l-0.4-1.5c0.7-0.1,1.1-0.4,1.3-0.7
		c0.3-0.3,0.5-0.8,0.5-1.5h-0.1v-1.4H317.8z"/>
	<path fill="#FFFFFF" d="M323.2,289.7c-0.2-0.3-0.5-0.4-1-0.4c-0.5,0.1-1,0.4-1.5,1.1c-0.4,0.6-0.7,1.4-0.7,2.3c0,0.4,0.2,0.8,0.5,1
		c0.4,0.3,0.8,0.4,1.3,0.4c0.3,0,0.7-0.1,1-0.2c0,0.6,0,1.1,0.1,1.7l0.4,1.3c0.2,0.4,0.4,0.7,0.8,0.7l0.5-2.1
		c-0.5-0.4-0.8-0.7-0.8-1c-0.2-0.4-0.3-1-0.3-1.9v-2C323.5,290.3,323.4,290,323.2,289.7z M322,292.1c-0.7,0-1-0.2-1-0.5
		c0-0.1,0-0.2,0.2-0.3c0.2-0.1,0.4-0.1,0.6-0.1c0.5,0,0.8,0.2,0.8,0.8L322,292.1z"/>
	<path fill="#FFFFFF" d="M328.3,291.5c0.3,1.4,0.8,2.8,1.3,4.1c0.4,1,0.9,1.6,1.4,2l0.3-2.6h-0.1l-1-1.4c-0.4-0.4-0.7-1-0.9-1.6
		l-0.9-2.7H328l-0.5,2.7c-0.2,0.6-0.5,1.2-0.8,1.7c-0.1,0.4-0.4,0.8-1,1.5v2.5c0.3-0.2,0.6-0.4,0.8-0.7
		C327.2,295.2,327.8,293.4,328.3,291.5z"/>
	<path fill="#BF0000" d="M347.4,319.4c-0.8-1-1.8-1.9-3-2.4c-1.2-0.7-2.3-0.9-3-0.7c-0.6,0.2-0.9,0.8-0.9,1.8c0,0.8,0.3,1.6,0.7,2.2
		c0.3,0.4,0.8,0.6,1.3,0.7c0.6,0.2,1.2,0.2,1.8,0c0.4-0.1,0.7-0.3,1-0.6c0.3-0.3,0.4-0.6,0.4-1c0.3,0.1,0.6,0.3,0.9,0.6l0.7,0.8
		l-6.5,2l0,0l-0.3,0.1c-0.2,0-0.4,0-0.6,0h-0.5l0.4-1.2c0-0.2,0-0.5-0.2-0.7c-0.2-0.5-0.7-0.8-1.5-0.9c-0.9-0.1-1.8,0-2.6,0.2
		c-1.1,0.2-1.7,0.5-2,1c-0.3,0.5-0.2,1.2,0.3,2h0.5c0-0.1,0.1-0.2,0.2-0.3c0.1,0,0.1,0,0.2,0h0.7l1,0.5l-0.9,0.5
		c-0.4,0.2-0.9,0.3-1.3,0.4l-0.2,0.1l-1.2,0.1c-0.3,0.1-0.7,0-1-0.3l-1.1-2.2l-0.5-1.5l-1-1.7c-0.4-0.4-0.8-0.7-1.4-1l-0.2,0.8
		l-2.4-0.5l-1,1.9l3,0.7l0.3-0.6c0.2,0.1,0.4,0.2,0.6,0.3c0.3,0.2,0.6,0.5,0.8,1l0.8,2.2c0.3,1,0.9,1.9,1.7,2.6
		c0.7,0.4,1.4,0.6,2.2,0.4l0.5-0.1l0,0.1l1.2-0.3c0.6-0.1,1.1-0.3,1.6-0.6c0.7-0.2,1.2-0.7,1.5-1.2c0.5,0.2,1,0.4,1.5,0.4
		c0.6,0.1,1.1,0.1,1.7,0l1.7-0.4l-0.1,0l-0.1-0.1l6.6-2L347.4,319.4z M343.9,318.5l-0.4,0.5l-0.4,0.3h-0.6l-0.5-0.2
		c-0.1-0.2-0.1-0.4,0-0.6c0.1-0.2,0.3-0.3,0.5-0.3c0.2-0.1,0.4-0.1,0.6,0C343.4,318.3,343.6,318.4,343.9,318.5L343.9,318.5z"/>
	<polygon fill="#BF0000" points="309.4,320 310.7,320.9 312.7,319.6 312.7,319.5 310.9,318.5 309.4,319.5 307.9,318.7 306.1,320 
		308,321 	"/>
	<polygon fill="#BF0000" points="335.9,316.9 335.8,316.9 332.7,316.6 332.2,318.6 335.4,318.9 	"/>
	<polygon fill="#BF0000" points="341.3,313.6 338.3,313.6 338,315.6 341.1,315.6 	"/>
	<polygon fill="#BF0000" points="299.7,318.8 298.1,317.2 295.5,318.2 297.3,319.9 	"/>
	<path fill="#BF0000" d="M300.9,322.5c0.1-0.5,0.1-1,0.1-1.5l-2.5,1.5l-0.2,1.6c-0.1,0.4-0.2,0.7-0.5,1c-0.3,0.4-1.1,0.7-2.3,0.7
		c-2.3,0-4.5-0.8-6.3-2.2c-0.5-0.6-0.6-1.2-0.2-1.6c0.3-0.4,0.8-0.7,1.3-1l2.8-1.2l-0.4-0.5c-1.8,0.6-3,1.1-3.8,1.6
		c-0.8,0.4-1.4,0.9-2,1.6c-0.6,0.7-0.6,1.4,0,2.2c0.9,1,2.1,1.6,3.4,2c0.9,0.3,1.8,0.6,2.8,0.7l2.4,0.1c0.6-0.1,1.2-0.3,1.7-0.6
		c0.6-0.4,1.1-0.9,1.6-1.4h-0.1l1.2-1.4C300.3,323.6,300.7,323.1,300.9,322.5z"/>
	<path fill="#BF0000" d="M350.8,319.4L350.8,319.4l-1.4-1.5c-0.8-0.8-1.6-1.5-2.5-2.2l-2.7-2.2c0,0.5,0.1,1.1,0.2,1.6
		c0,0.3,0.1,0.6,0.3,0.8c0,0.1,0.2,0.3,0.6,0.5c0.7,0.5,1.4,1.1,2,1.7c0.6,0.5,1.1,1,1.7,1.5c0.4,0.4,0.8,0.8,1.1,1.2
		c0.4,0.5,0.7,1,1,1.5l0.8-0.1l-0.4-1.6C351.4,320.2,351.2,319.8,350.8,319.4z"/>
	<path fill="#BF0000" d="M330,327.3l-0.4-2c-0.2-0.9-0.5-1.6-0.8-2.1c-0.4-0.4-0.9-0.9-1.6-1.3l-0.5,2c0.3,0.2,0.7,0.4,1,0.6
		c0.3,0.2,0.5,0.5,0.6,0.8l-4.1,0.5l0-0.4v-1l-0.5-1l-1,0.9l-0.3,0.2c-0.1,0.1-0.1,0.2-0.1,0.3l0.3,0.6c0.1,0.2,0.1,0.4,0.1,0.5
		l-0.6,0.1c-0.5-0.1-1-0.2-1.5-0.4l0.3-1.1c0-0.1,0-0.2,0-0.3v-0.4l-0.5,0.2c-0.2,0.2-0.5,0.2-0.5,0.2l-0.1,0.4
		c-0.1,0.6-0.4,0.9-1,1.1c-0.4,0.2-1,0.2-2,0.2h-1.5c-0.4,0-0.7-0.1-1-0.3s-0.3-0.4-0.3-0.7c0-0.4,0.1-0.9,0.1-1.3l-0.7-0.1
		c0,0.8-0.5,1.5-1.3,1.8c-0.5,0.3-1.1,0.4-1.7,0.4c0.3-0.9,0.5-1.6,0.5-2.1c-0.1-0.6-0.3-1-0.7-1.6l-1.6,1.7
		c0.2,0.3,0.4,0.5,0.5,0.8c0.2,0.3,0.2,0.6,0.2,1l-5.4-0.9l-0.9-0.2c-0.3-0.1-0.5-0.3-0.5-0.7c0.1-0.8,0.5-1.5,0.9-2.2l0.8-1.4
		c0.4-0.7,0.7-1.3,0.7-1.8c0-0.4,0-0.9-0.3-1.4l-2.2,1.6c0.1,0.2,0.2,0.5,0.3,0.7c0.1,0.3,0,0.7-0.3,1.2l-1.2,2
		c-0.7,1.3-1,2.2-0.8,2.8c0.1,0.6,0.6,1,1.5,1.2l0.4,0.1l0,0l1.1,0.2l0.1,0v0.1l0.1-0.1l4.6,0.8l0,0.3h1.7l1.7-0.1
		c0.6-0.2,1.1-0.6,1.5-1c0.3,0.5,0.5,0.8,0.8,1c0.4,0.2,0.8,0.3,1.2,0.3h2c0.6,0,1.1,0,1.7,0c0.4-0.1,0.9-0.2,1.3-0.4
		c0.6,0.2,1.1,0.4,1.7,0.5c0.7,0.1,1.5,0.2,2.2,0.2l0,0l0-0.4L330,327.3z"/>
	<polygon fill="#BF0000" points="299.8,318.8 299.7,318.8 299.8,318.9 	"/>
</g>
</svg>
