<?xml version="1.0" encoding="utf-8"?>
<!-- Generator: Adobe Illustrator 17.1.0, SVG Export Plug-In . SVG Version: 6.00 Build 0)  -->
<!DOCTYPE svg PUBLIC "-//W3C//DTD SVG 1.1//EN" "http://www.w3.org/Graphics/SVG/1.1/DTD/svg11.dtd">
<svg version="1.1" id="flag-icon-css-ag" xmlns="http://www.w3.org/2000/svg" xmlns:xlink="http://www.w3.org/1999/xlink" x="0px"
	 y="0px" viewBox="0 0 640 480" enable-background="new 0 0 640 480" xml:space="preserve">
<g>
	<path fill="none" d="M211.9,441.2c0.4,0.1,0.5-0.1,0.3-0.7c-0.2-0.5-0.6-0.9-0.9-0.9C210.6,439.6,211.1,440.9,211.9,441.2z"/>
	<path fill="#FFFFFF" d="M238.4,299c-0.3,0.9-0.2,1.3,0.3,1.3c0.4,0,1.1,0.4,1.7,0.9c1,0.9,1.3,0.8,6-1.6c2.3-1.1,4-1.9,5.6-2.3
		h-13.3C238.7,297.9,238.6,298.6,238.4,299z"/>
	<path fill="#FFFFFF" d="M320.9,394.4c0.8-0.4,1.4-0.4,1.7-0.1c0.3,0.3,1.2,0.4,2.2,0.1c1.4-0.4,1.5-0.4,1.2,0.7
		c-0.7,2.2,0.9,2.1,3.9-0.3c3-2.5,3.4-3.5,1.2-3.2c-1.7,0.2-3.6-2.2-2.5-3c0.7-0.4,3.1-5,3.1-5.7c0-0.2-0.7-0.4-1.5-0.5
		c-1.3-0.2-1.5-0.5-1.9-2.3c-0.2-1.2-0.8-2.8-1.3-3.7c-0.8-1.3-0.8-1.5-0.1-1.5c1.4,0,1-2.7-0.5-4.7c-1.4-1.9-1.7-2.9-0.9-2.9
		c0.3,0,1.2-0.3,2-0.5c1.2-0.4,1.4-0.7,0.8-1.4c-0.4-0.5-1.2-0.7-2.2-0.4c-1.2,0.2-1.6,0.1-1.6-0.5c0-0.4,0.5-0.9,1.1-1.1
		c1.5-0.4,1.5-3.9,0.1-4.7c-1.3-0.7-2.3,0.2-2.3,2c0,0.9-0.3,1.3-1.1,1.3c-0.6,0-1.1,0.2-1.1,0.5c0,0.3-1,0.6-2.3,0.7
		c-2.2,0.2-2.3,0.3-2.5,1.9c-0.2,1.9-0.9,2.3-1.4,1c-0.3-0.9-2.6-1.1-3.4-0.3c-0.3,0.3-1.4,0.4-2.7,0.2l-2.1-0.4l1.5-1.8l1.5-1.8
		l-2.9,0.2c-2.6,0.2-2.9,0.3-3.1,1.4c-0.2,0.9-0.4,1.2-1,1c-0.4-0.2-0.9-0.3-0.9-0.3c-0.1,0-0.1-0.6,0.1-1.4c0.2-1,0-1.4-1.1-1.7
		c-1-0.2-1.4-0.7-1.4-1.6c0-0.7,0.3-1.4,0.6-1.5s-0.5-0.8-1.7-1.5c-2.1-1.2-2.3-1.3-2.9-0.4c-0.4,0.5-1.2,0.9-1.9,0.9
		c-0.9,0-1.4,0.5-1.9,1.6c-0.5,1.3-1.3,1.9-4.3,3l-3.6,1.4l-2-1.5l-1.9-1.5l1.7-0.4c1.1-0.3,2-0.2,2.5,0.2c0.6,0.5,1.3,0.2,3.4-1.8
		c1.4-1.4,3.2-2.8,4-3.4c1.8-1.2,2.4-3.4,1.3-4.7s-0.2-2,3.8-2.8c2.5-0.5,3.2-0.5,3.5,0.1c0.3,0.5,0.9,0.3,2.5-1
		c1.1-1,2.5-1.7,3-1.7c0.5,0,1.2-0.4,1.6-0.8c0.9-1,0.3-2.7-0.8-2.2c-2.3,0.9-2.6,0.8-0.9-0.6c1.3-1.1,1.7-2,1.7-3.3
		c0-0.9,0.2-1.7,0.5-1.7c0.7,0,2.2,2.5,2.2,3.5c0,0.5,0.7,1.2,1.5,1.6l1.5,0.8l-1.2,0.7c-0.7,0.3-1.2,1-1.2,1.5
		c0,1.2,1.5,1.5,2.7,0.5c1.2-1.1,1.7-1.1,4.1,0.1c2.3,1.1,2.9,0.6,1.8-1.4c-1.4-2.3-0.7-5.9,1.3-7c1.1-0.5,1.6-1.2,1.6-2.1
		c0-2.9-1.3-4-2.2-1.9c-0.3,0.9-0.5,1-0.5,0.3c-0.1-0.5-0.6-1-1.3-1.1c-0.7-0.1-1.3-0.6-1.4-1.1c-0.2-0.8,0.3-0.9,2.8-0.9
		c3.3,0,4.1-0.7,4.1-3.5c0-1,0.2-1.3,0.8-1.1c0.5,0.2,0.8,0,0.8-0.7c0-0.6,0.5-1.5,1.1-2.1c1.4-1.2,1.4-1.5,0-2.3
		c-1.5-1-2.7-0.3-2.7,1.5c0,1-0.3,1.6-0.7,1.6s-1.2,0.5-1.7,1.1s-1.6,1.1-2.3,1.1c-0.7,0-1.8,0.3-2.4,0.5c-1.6,0.9-2.2,0.2-1.3-1.3
		c0.5-0.8,1.6-1.5,2.7-1.7c1.9-0.3,3.6-2.5,2.8-3.3c-0.7-0.7-7,1.7-7.8,2.9c-1,1.5-4,1.8-4,0.4c0-1.1-1.6-1-2.8,0.1
		c-1.1,1-2.1,0.6-2.1-0.8c-0.1-1.2-4.6-3.9-6.4-3.9c-0.8,0-2-0.1-2.6-0.3c-0.9-0.3-1.3-0.1-1.5,0.9c-0.2,0.8-1,1.6-1.7,2.1
		c-0.8,0.4-1.4,0.9-1.4,1.1c0,0.7,2.1,1.1,3.3,0.8c0.6-0.2,1.1-0.1,1.1,0.2c0,0.8-1.9,1.7-3.8,1.7h-1.6l0.9,1.4
		c0.8,1.2,0.8,1.5,0.2,1.9c-1.4,0.9-3.1,0.5-3.5-0.6c-0.7-2.1-1.7-1.1-2.4,2.2c-0.6,3-0.8,3.3-1.5,2.6c-0.7-0.8-0.7-1.1,0.3-3.4
		c1.4-3.1,1.4-3,0.2-3c-0.5,0-1.7,1-2.6,2.2c-1,1.3-2.1,2.2-2.8,2.2c-0.6,0-1.6,0.4-2.2,0.8c-1,0.7-1.3,0.7-2.3-0.1
		c-1.6-1.1-1.5-2.8,0.2-3.3c0.7-0.2,1.5-0.8,1.6-1.4c0.2-0.5,0.9-1.2,1.7-1.4c1-0.3,1.3-0.7,1.3-1.8c-0.1-1.4-0.1-1.4-0.8-0.4
		c-0.4,0.6-1.1,0.9-1.6,0.7c-0.5-0.2-1.3,0.1-1.8,0.7c-0.7,0.7-2.6,1.3-6.1,2c-7.1,1.4-7.2,1.4-8.3,4.5c-0.5,1.5-1.7,3.4-2.7,4.3
		l-1.7,1.6l0.4-1.9c0.2-1,0.5-3.8,0.5-6c0.2-3.6,0.3-4.2,1.6-5.2c0.8-0.7,1.4-1.7,1.4-2.5c0-3,0.5-3.7,3-4.1c2-0.3,2.4-0.5,2.4-1.5
		c0-1.3-3.2-4.2-4.6-4.2c-0.6,0-0.8-0.4-0.7-1.3c0.1-1,0.4-1.1,1.8-1c1.5,0.2,1.6,0.1,0.7-0.8c-0.8-0.8-1.3-0.9-3-0.3
		c-1.7,0.5-2.2,0.5-3.3-0.2c-1.2-0.8-1.4-0.8-2.3,0.1c-0.8,0.7-1.9,0.8-5.1,0.7c-2.3-0.1-4.5-0.5-4.8-0.8c-0.4-0.4-1.1-0.7-1.6-0.7
		c-0.5,0-1.2-0.7-1.5-1.7c-1-2.9-2.1-3.7-4-3.1c-1,0.3-1.8,0.5-1.9,0.5c-0.4,0-1.3-2.7-1.6-4.7h-11.6c0,0.4,0,0.9,0,1.4
		c0,2.3-0.2,4.9-0.5,5.7c-0.7,1.7-2.5,1.9-3,0.3c-0.3-1-0.4-1-1.3-0.3c-0.5,0.5-1.4,0.9-1.8,0.9c-0.5,0-1.1,0.4-1.5,0.8
		c-0.4,0.5-1.6,0.8-2.8,0.8c-2,0-2.1-0.1-1.5-1.1c0.4-0.6,1.5-1.5,2.5-1.9c2.6-1,2.7-1.7,0.8-2.7l-1.7-0.9l-2.3,2.2
		c-1.7,1.7-2.7,2.2-4.1,2.2c-1,0-2.2,0.4-2.6,0.9c-1,1-1.4,0.5-2.1-2.3c-0.3-1.5-0.1-2.1,1.7-4.2l1.3-1.7h-18.3l77.1,103.4
		c0.8,0.4,1.8,1.1,2.4,1.8c1,1.1,2.6,2,4.1,2.5c1.4,0.3,3.3,1.5,4.4,2.5c1.1,1,3.9,2.6,6.6,3.7l4.8,1.9l11.3-0.4
		c11.1-0.4,11.3-0.4,12.6,0.7c1.2,1.1,1.3,1.1,2.2,0.2c0.7-0.8,0.8-1.1,0.3-1.3c-0.4-0.2-0.7-0.7-0.7-1.3c0-0.8,0.2-0.9,1.3-0.5
		c1,0.4,1.5,0.3,2-0.3c0.5-0.6,1.2-0.8,2.5-0.5c2,0.4,4-0.4,4-1.6c0-0.5-0.5-0.7-2-0.4c-1.1,0.2-2.2,0.4-2.3,0.5
		c-0.4,0.3-2.2-2.7-2.2-3.6c0-1.1,1.7-2.7,2.9-2.7c0.5,0,0.9,0.4,0.9,0.8c0,1.3,0.7,1,2.7-1c1.6-1.7,1.7-2.1,1.4-4
		C319.8,395.4,319.9,395,320.9,394.4z"/>
	<path d="M536.4,190.5l44.3-59.4c-0.5-0.5-1.1-1.7-1.3-2.5c-1-4.9-1.5-5.9-3.1-6.5c-0.9-0.3-1.6-0.9-1.6-1.3c0-0.4-0.6-1.5-1.3-2.3
		c-0.8-0.9-1.3-2-1.1-2.6c0.3-1-2.5-3.9-8.9-8.9c-1.3-1-2.3-2-2.3-2.3c0-0.3-1.6-2.4-3.7-4.8c-3-3.6-4.6-4.9-9.4-7.7
		c-6.4-3.8-7.1-4.4-7.1-6.8c0-1.4-0.4-1.9-2.9-3.4c-4.1-2.4-9.6-10.3-9.6-13.8c0-1.8-0.4-2.2-4.1-4.2c-2.6-1.4-3.4-2.1-3.6-3.2
		c-0.2-0.9-1.1-2-2.3-2.7c-1.5-1-1.9-1.5-1.9-3c0-2.5-3.4-5.8-6-5.9c-1,0-2.3,0.2-2.9,0.5c-0.6,0.3-1.9,0.4-2.8,0.3
		c-2.1-0.3-4,0.6-4,2c0,0.9-1,1.7-2.2,1.7c-0.3,0-0.5-0.4-0.5-0.8c0-0.4-1.4-1.9-3-3.2c-1.6-1.3-3-2.7-3-3.2c0-0.4-0.3-1.1-0.7-1.5
		c-0.8-0.8-3.5-0.9-4-0.1c-0.2,0.4-1.4,0.5-3.5,0.3c-2.9-0.3-3.2-0.3-3.2,0.7c0,0.6,0.3,1.3,0.5,1.4c0.3,0.2,0.5,0.9,0.5,1.6
		c0,0.9,0.5,1.5,1.6,2c1.4,0.6,1.6,1,1.6,2.7c0,3.5-0.5,4.4-2.8,5.1c-2,0.6-5.9,4.2-5.9,5.4c0,0.2,0.8,0.4,1.6,0.4
		c1.3,0,1.8-0.3,2.2-1.4c0.4-1,0.9-1.4,2.1-1.4c1,0,2.6-0.8,4.7-2.5c3.3-2.6,3.8-2.8,4.1-1.9c0.3,1,3.5-0.9,3.9-2.3l0.3-1.3l1.1,1.4
		c0.6,0.8,1.1,1.6,1.1,1.9c0,1-3.2,4.1-4.2,4.1c-0.6,0-1.9,0.6-2.9,1.4c-1,0.8-2.2,1.4-2.6,1.4s-1,1.1-1.3,2.5
		c-0.7,2.8-1.9,3.3-2.5,0.9c-0.5-2.6-0.7-2.8-1.9-2.8c-1,0-1.1,0.3-0.9,1.4c0.3,1.9-1.1,2.4-7.6,2.4c-4.6,0-5.7-0.2-9.1-1.6
		c-2.2-0.9-4.7-2.3-5.6-3.2c-2.4-2.1-5.2-7.8-5.8-12.1c-0.3-2-0.7-4.4-0.8-5.3c-0.3-1.7-0.2-1.8,1.1-1.4c0.9,0.2,2.4,0,3.8-0.5
		c3.2-1.2,5.1-4,5.7-8.3l0.4-3.2L465,35c1.3,2,1.6,3,1.6,6c0.1,2.5,0.4,4,1,5.1l1,1.5l-1.9,0.9c-1.8,0.9-1.9,1-1.4,2.9
		c0.3,1.1,0.3,2.4,0.2,3c-0.3,0.9-0.1,1,2.3,0.7c1.5-0.2,3.9-1,5.4-1.7c1.5-0.7,3.6-1.7,4.8-2.2l2.1-0.9l-1.4-1.4
		c-0.8-0.8-2-2.7-2.7-4.2c-0.8-1.5-2.3-3.5-3.4-4.5c-1-1-3.4-4.1-5.1-7c-1.8-2.9-4-5.9-4.8-6.5c-1-0.7-1.8-2-2-3
		c-0.3-1.2-2-3.4-5.7-7.1c-4.9-5-5.3-5.3-7.4-5.3c-1.2,0-3.5,0.5-5,1c-5.6,2-7.6,4-5.3,5.3c0.7,0.4,0.8,0.8,0.3,2.6
		c-0.8,2.7-0.8,2.9,0.2,2.9c0.4,0,0.9-0.7,1.1-1.5l0.4-1.5l0.6,1.4c0.8,1.9,0.9,2,1.5,1.1c0.4-0.6,0.6-0.6,1.3-0.1
		c0.4,0.4,1.1,0.5,1.4,0.3c0.8-0.4,0.7-1.7-0.1-2c-0.5-0.2-0.4-0.6,0.1-1.5c0.4-0.8,0.8-2.3,1-3.5c0.3-1.9,0.5-2.2,1.9-2.3
		s1.5,0,1.5,1.4c0,0.8-0.5,2.2-1.1,3.2c-0.7,1.1-1.1,2.6-1.1,4.5v2.8l-2.5,0.9c-2.1,0.7-2.7,0.7-4,0.1c-1.5-0.8-5.1-0.3-5.4,0.7
		c-0.1,0.4-1.8,0.6-4.2,0.6c-3.4,0-4,0.2-4.2,1c-0.1,0.5,0,1.4,0.3,1.9c0.4,0.7,0.2,1.3-0.8,2.5c-1.3,1.5-1.3,1.7-0.7,5.3
		c0.5,2.7,1.3,4.7,2.9,7.4l2.3,3.6l-1.7,3l-1.7,3.1l1.7,1.7c1.7,1.7,1.9,1.8,4.1,1.3c2.4-0.5,2.5-0.5,5.6,1.9c1.7,1.4,3.2,3,3.3,3.6
		c0.1,0.6,0.9,1.6,1.7,2.2c0.9,0.6,2.1,2,2.8,3.1c1.2,2,1.3,2,1.8,0.8c0.4-0.8,0.3-3-0.1-6.7c-0.3-3-0.5-5.8-0.3-6.3
		c0.4-1.1,3.9,2.3,7.2,7.2c1.4,2.1,4,5,5.7,6.4c2.8,2.5,3.2,2.6,4.7,2.1c1.5-0.5,1.6-0.5,2.4,2c1,2.8,1.1,6.4,0.3,6.9
		c-0.3,0.2-0.5-0.1-0.5-0.5c0-1-0.4-1.1-1.6-0.3c-0.7,0.4-0.7,0.9,0.1,3.6c0.8,3.1,0.8,3.3-0.5,7.4c-1.2,3.5-1.7,4.4-3.4,5.6
		l-2.1,1.4l-2.2-2.9c-2-2.6-3.8-3.9-3.8-2.6c0,0.2,1.3,2.8,2.9,5.8c1.6,3,3.3,6.4,3.6,7.6c0.4,1.3,1.3,2.3,2,2.7
		c1,0.5,1.3,1,1.3,2.7c0,1.5,0.3,2.2,1.1,2.7c0.7,0.3,1.4,1.2,1.6,1.9c0.4,1,0.8,1.3,1.4,1c0.8-0.3,0.9-0.1,0.5,1.1
		c-0.3,1.1,0,1.9,1,3.3c1.7,2.2,1.7,3.3,0.2,4.8c-0.3,0.2-0.6,0.7-1,1.2l8.8-1.3l-15.5,11.7c-0.3,0.8-0.6,1.6-1,2
		c-1,1.3-1,1.3,0.3,1.9c2.5,1.1,2.8,2.6,3.2,11.1c0.2,6.3,0.1,8.2-0.5,9c-0.4,0.5-0.8,1.6-0.8,2.3c0,0.9-0.7,1.9-1.8,2.8
		c-1.7,1.3-2,1.4-4.4,0.8l-2.6-0.6l-2.6,2.6l-2.6,2.5l-3.8-0.4l-3.8-0.4l-1.6-2.6l-1.6-2.6l0.7-4.8c0.5-3.3,1.2-5.6,2.3-7.7
		c0.2-0.3,0.4-0.6,0.5-0.9l-3.5,2.6c-0.6,3-1.5,6.8-3.2,13.2c-0.7,2.7-1.3,5.3-1.9,7.6l54.4,13.7H536.4z"/>
	<path d="M440,128.7c-3.3-14.9-3.5-18.2-1.4-20.9c1-1.3,1-1.3-0.3-1.9c-1.5-0.7-4.4-4.1-6.9-8.2c-1.7-2.8-1.8-3.1-1.5-7l0.1-1
		l-5.8,9.8c0.5,0.5,1.1,1,1.8,1.5c5.5,4.6,7.4,8.1,9.2,17c1.2,5.9,1.4,8.2,1.2,12.2c0,0.8-0.1,1.4-0.1,2l4.2-0.6
		C440.4,130.8,440.2,129.8,440,128.7z"/>
	<path d="M424.8,80.5c1.4-0.8,1.4-0.8,0.4-2c-1.3-1.4-3.5-1.5-3.5-0.2c0,0.5-1.3-1.3-2.9-3.9c-2.7-4.4-2.9-5.1-2.7-7.1
		c0.3-2.2,0.3-2.2-1.5-2.6c-1-0.1-2.1-0.1-2.3,0.2c-0.8,0.7-1.5,0.6-2.9-0.5c-1-0.9-1.4-2.1-2.1-7.1c-0.5-3.3-0.7-6.3-0.5-6.6
		c0.2-0.3,0.8-0.5,1.4-0.5c0.6,0,1.2-0.6,1.5-1.6c0.4-1,1-1.7,1.9-1.8c1.7-0.2,2.1-2.9,0.5-3.4c-0.8-0.2-1.1-0.8-1.1-1.7
		c0-2,1.9-1.7,3.6,0.6c0.9,1.3,1.9,1.9,2.7,1.9c1,0,1.4,0.4,1.7,1.7l0.4,1.8l-3,0.3c-3.4,0.3-4.4,0.8-4.4,2c0,0.6,0.8,0.8,3.5,0.8
		c3.3,0,3.5,0.1,3.9,1.3c0.2,0.8,0.2,1.9-0.1,2.5c-0.3,1.1-0.4,1.1-3-0.2c-2.6-1.4-3.6-1.1-1.8,0.3c0.6,0.5,0.8,1.3,0.6,2.5
		c-0.2,1.4,0,2,1.3,3.3c1.3,1.2,1.6,2,1.6,4c0,1.4,0.5,4,1.2,5.7c1.1,3.2,1.3,3.3,4.5,4.5c2.2,0.9,3.6,1.1,4.5,0.8
		c1.2-0.4,1-0.7-3.1-4.4l-4.4-4v-4.7c0-3.4,0.2-4.9,0.8-5.6c0.4-0.5,1.7-3,2.7-5.5l1.9-4.6l-1.6-1.6c-0.9-0.9-1.6-1.9-1.6-2.2
		c0-0.3-0.2-0.9-0.5-1.3c-0.4-0.7-0.8-0.6-2.1,0.1c-1.9,0.9-2.3,0.7-2.3-1c0-1,0.4-1.3,2.2-1.5c1.2-0.2,2.3-0.4,2.4-0.5
		c0.1-0.1,0.3-1.6,0.5-3.3l0.4-3l-3.2-2.2l-3.2-2.2l-3.3,3.4c-2.4,2.5-3.8,4.6-5.4,8c-1.1,2.6-2.3,5-2.6,5.3s-2.6,1.9-5.1,3.4
		c-3.4,2.1-4.8,3.3-5.6,4.8c-0.6,1.2-1.1,2.3-1.1,2.6c0,0.3,2.8,2.1,6.2,4.1c7.2,4.3,8.8,5.9,13.6,13.5c2.9,4.6,4.5,7.8,5.4,11.3
		l5.2-3C424.2,81,424.4,80.8,424.8,80.5z"/>
	<path fill="#0061FF" d="M232.7,295.9c0-2-0.2-2.2-1.4-2.2c-0.9,0-1.6-0.5-2.2-1.6c-0.8-1.5-0.8-1.6,0.3-2.2
		c0.6-0.3,1.1-0.9,1.1-1.4c0-0.4,0.4-0.9,1-1.1c1.6-0.5,5.6-4,5.6-4.8c0-0.5,0.6-0.8,1.6-0.8c1.6,0,1.7-0.1,1.3-2.1
		c-0.5-2.6-0.6-2.8-1.9-2.8c-0.5,0-1.2-0.3-1.4-0.5c-0.2-0.3,0.1-0.5,0.6-0.5c0.7,0,0.8-0.3,0.5-1.3c-0.2-0.7-0.3-1.6-0.3-2.2
		s-0.4-0.9-1.1-0.9c-0.7,0-1.1,0.4-1.1,0.9c0,0.7-0.4,0.8-1.9,0.6c-2.5-0.4-2.8,0.1-1.1,1.6c0.8,0.7,1.4,1.7,1.4,2.2
		c-0.1,0.6-2.2,2.6-5.6,5.1c-3,2.2-6.7,5.1-8.2,6.4c-1.4,1.3-2.8,2.3-3,2.3c-0.2,0-0.8,0.3-1.2,0.5c-0.7,0.4-0.7,0.6,0.3,1.3
		c0.8,0.6,1.3,0.7,2.1,0.2c0.8-0.5,1.2-0.4,2.1,0.7c0.7,0.8,1,1.8,1,4.1h11.6C232.7,296.7,232.7,296.2,232.7,295.9z"/>
	<path fill="#0061FF" d="M224.7,254.2c2.1-1.9,2.8-1.7,3.9,0.9l1,2.3l0.4-1.7c0.5-2.4,0.8-2.7,3.2-3.5c1.3-0.4,2.6-1.1,3.1-1.7
		c0.6-0.6,1.7-1,3-1c1.1,0,2.1-0.2,2.1-0.4c0-0.2-0.5-1.4-1.3-2.6c-1.1-2-1.4-2.2-3.9-2.3c-2-0.1-2.9-0.5-3.6-1.4l-0.9-1.1l-1,1.3
		c-1.4,1.7-2.7,1.3-4.9-1.6l-1.7-2.2l-0.4,2.1c-0.2,1.1-1,2.6-1.7,3.2c-1.2,1-1.3,1.4-0.8,2.9c0.4,1.4,0.4,1.8-0.3,2.3
		c-0.4,0.4-1,1.4-1.4,2.1c-0.4,1.2-0.3,1.6,1,2.6C222.5,255.9,222.9,255.9,224.7,254.2z"/>
	<path fill="#0061FF" d="M271.9,281.6c-2.2,0.3-3.3-0.7-3.3-2.9c0-2.2-1.4-2.6-1.9-0.5c-0.2,0.8-1,1.9-1.9,2.5
		c-1.1,0.8-1.6,1.7-1.9,3.3c-0.3,2-0.5,2.2-2,2.2c-1.1,0-1.6,0.3-1.6,0.8c0,1.1-1.5,1.6-2.4,0.9c-0.6-0.5-1.3-0.1-3.1,2.1l-2.3,2.7
		h-3.6c-2.6,0-3.9,0.2-4.4,0.8c-0.9,1.1-2.2,1-2.2-0.1c0-0.5-0.4-0.8-1.2-0.7c-1.1,0.2-1.3,0.5-1.3,2.6c0,0.6-0.1,1.3-0.1,1.9h13.3
		c1-0.3,1.9-0.5,2.9-0.6c2-0.2,3.9-0.7,4.2-1.1c0.7-0.7,1-0.6,2.1,0.1c1.6,1.1,2.4,0.1,1-1.5c-0.8-0.9-0.8-1-0.1-1
		c0.5,0,1,0.2,1.2,0.5c0.7,1,1.3,0.5,1.6-1.4c0.3-1.5,0.7-2,1.9-2.2c0.8-0.2,2.1-0.8,2.8-1.4c0.7-0.5,1.8-1,2.5-1
		c2.7-0.1,4.1-2.7,2.6-4.8C273.8,281.7,273.3,281.4,271.9,281.6z"/>
	<path fill="#0061FF" d="M218,259.5c0-0.2-0.5-1-1.1-1.7l-1.1-1.4l0.1,2.7c0.1,4.4,0.6,6,2,6.2c1,0.2,1.2-0.1,1.2-1.4
		c0-0.9,0.4-2.1,0.9-2.8c0.8-1.1,0.8-1.2-0.5-1.2C218.6,259.9,218,259.8,218,259.5z"/>
	<path fill="#0061FF" d="M202.2,297.2l0.7-0.8l-1.7-1.7c-1.3-1.4-1.7-2.3-1.7-3.8c0-1.7-0.2-2-1.1-2c-1.6,0-7,3.1-8.5,4.8
		c-1,1.1-1.2,1.2-1.3,0.5c0-0.5,0.3-1.1,0.5-1.3c1-0.6,0.6-1.4-0.6-1.2c-1,0.1-1.4-0.4-2.2-2.7l-1-2.9l2.2-1.9
		c1.7-1.5,2.8-1.9,4.4-1.9c2.2,0,3.2-1.1,2.1-2.3c-0.8-1,0.3-2,2-2c0.8,0,1.3-0.3,1.3-0.8c0-0.4-0.5-0.8-1.1-0.8
		c-1.6,0-2.1-1.6-0.8-2.5c0.9-0.7,1.2-0.7,2.1,0.1c2.8,2.1,3.4,2.1,5.4,0.5c1.8-1.4,2-1.7,2-4.3c0-2.8,0-2.8-2.7-4.3
		c-1.5-0.8-3.4-1.5-4.3-1.5c-0.9,0-1.9-0.3-2-0.5c-0.2-0.3-0.9-0.5-1.6-0.5c-0.8,0-1.7-0.6-2.5-1.6c-0.7-0.9-2-2-3-2.4
		c-2.2-0.9-2.8-2.5-1.7-4.6c1-1.9,0.5-2.5-1.5-1.9c-1.2,0.3-1.4,0.1-1.9-2.1c-0.3-1.6-0.3-2.7,0.1-3.4c0.3-0.6,0.5-1.8,0.4-2.7
		c-0.2-1.5-0.2-1.5-3-1.2l-2.8,0.4l-3.2-3.6c-3-3.5-4.1-5.7-4.1-8.5c0-0.8-0.5-1.9-1.1-2.4c-1-0.9-1.3-0.9-7.2,0
		c-3.4,0.5-6.7,1.1-7.4,1.4c-0.7,0.3-1.8,0.5-2.5,0.5c-0.7,0-2.4,0.4-3.8,0.9c-2.5,0.9-2.6,0.9-6.4-0.7c-2.6-1-4-2-4.3-2.7
		c-0.3-0.8-1.1-1.3-2.5-1.5c-1.1-0.2-2.8-0.9-3.7-1.5c-1.5-0.9-2-1.1-2.5-0.8l54.1,72.5H202.2z"/>
	<path fill="#0061FF" d="M536.4,190.5h-49.2l0.4,0.1h-0.1h-57.9c-0.3,0.7-0.7,1.5-1.2,2.4c-2.5,4.9-2.5,5-2.1,8.8
		c0.3,3.2,0.8,4.5,2.2,6.7l1.9,2.8l2.3-0.5c1.3-0.3,2.3-0.5,2.3-0.6c0-0.1,0.8-1.5,1.7-3.1c2.3-4.1,4.6-5.8,14.2-10.6
		c7.8-3.9,8.5-4.1,11.8-4.1c2.8,0,4.4,0.3,7.2,1.6c2.7,1.2,4.4,1.6,6.8,1.6c2.7,0,3.3,0.2,4.1,1.3c0.5,0.7,4,2.9,7.7,5
		c7.5,4,12.7,8,16.1,12.4c1.4,1.9,3.6,3.8,5.9,5.1l2.9,1.7L536.4,190.5z"/>
	<path fill="#E20000" d="M587,206.4c1.7-1,2.4-2.8,2.4-6.6c0-0.9,0.7-2.5,1.5-3.5l1.4-1.9l-0.1-10.5c-0.1-9.5-0.2-10.7-1.1-12
		c-0.9-1.2-1.1-2.8-1.4-8c-0.3-5.5-0.5-6.9-1.6-8.7c-1.6-2.7-3.6-9.7-3.6-12.6c-0.1-1.3-0.5-3-1.4-4.3c-0.8-1.3-1.4-3-1.4-4.1
		c0-1.2-0.4-2.3-1-2.9c0,0,0-0.1-0.1-0.1l-44.3,59.4l-22.8,30.6l0.8,0.5l4.3-0.4c4.2-0.4,4.4-0.4,7.5,1.3c1.7,1,5.2,3.2,7.7,5
		c4.7,3.4,6.3,5.3,11.2,13.9c3.2,5.6,3.5,8.1,2.2,14.2c-0.5,2.5-0.8,4.6-0.6,4.8c0.9,0.9,4.6-3.9,6.2-7.9c1.5-4.1,1.5-4.1,5-5.7
		c2.8-1.3,3.9-1.5,6-1.3c5.4,0.7,10.4,2.1,15.7,4.5c5.2,2.3,5.6,2.7,7.6,5.7c1.7,2.7,2.4,3.2,3.6,3.2c1.7,0,2.1-1.1,0.7-2.3
		c-4.2-3.4-4.6-3.9-4.6-8.1c0-2.1,0.3-4.4,0.6-5c0.5-0.9,0.3-1.4-0.8-2.6c-2.1-2.1-2.7-4.2-2.3-7.7c0.3-2.8,0.5-3.1,2.1-3.8
		c2.6-1.1,2.5-3-0.2-10c-2.2-5.7-2.2-5.9-1.6-8.9C585.2,208,585.6,207.3,587,206.4z"/>
	<path fill="#E20000" d="M129.9,224.7c-0.2,0.1-0.4,0.3-0.7,0.6c-0.4,0.4-1.1,0.8-1.7,0.8s-1.3,0.5-1.5,1c-0.7,1.3-5.8,3.9-7.5,3.9
		c-0.7,0-1.3,0.4-1.5,0.8c-0.2,0.5-1,0.8-1.9,0.8s-2,0.5-2.6,1.1c-0.9,0.9-0.9,1.3-0.1,3.4l0.8,2.3l-2.3,3.1
		c-1.2,1.7-3.4,3.8-4.8,4.7c-1.4,0.9-2.5,1.9-2.3,2.2c0.2,0.4,0.7,0.4,1.4,0c1.8-1,2-0.6,2.3,3.7c0.3,5.5-0.1,9.4-1,9.4
		c-0.4,0-1.7,0.5-2.9,1.1c-1.2,0.6-3.2,1.3-4.5,1.4l-2.3,0.3l1.3-1.5c0.8-0.8,1.9-1.4,2.6-1.4c1.4,0,2.5-1.1,1.4-1.5
		c-0.4-0.1-0.7-0.5-0.7-0.9c0-1.1,2.5-3.2,3.6-2.9c0.8,0.1,1.1-0.2,1.2-1.6c0.2-1.4-0.2-2-1.5-2.9c-0.9-0.7-1.7-1.6-1.9-2.2
		c-0.3-1.2-1.9-2-2.6-1.2c-0.3,0.3-0.1,1,0.7,1.7c1.7,1.9,1,4.7-2.8,10.2c-3.2,4.5-3.3,4.7-3.2,8.1c0.1,1.9-0.1,3.9-0.3,4.5
		c-0.2,0.8,0,1.5,0.8,2.1c0.7,0.6,1.1,1.3,1.1,1.5c0,0.9-2.1,0.4-3.2-0.7l-1.1-1.1l-1,1.3c-0.6,0.7-1.4,1.5-1.9,1.6
		c-0.7,0.3-0.8,0.8-0.7,1.7c0.3,1.7,1.2,1.8,3,0.3c1.6-1.3,2.6-1.4,3.5-0.4c0.4,0.4,2.1,0.7,4,0.8c2.8,0.1,3.3,0,3.1-0.8
		c-0.1-0.5-1-1.1-2.2-1.4c-1.5-0.4-2-0.8-1.9-1.4c0.3-1.4,2.9-1.4,4.6-0.1c0.8,0.7,1.9,1.1,2.5,1.1c0.7,0,1.3,0.7,1.8,1.7
		c0.8,2,0.3,3.2-1.4,2.8c-0.7-0.2-1.2,0.1-1.6,0.9c-0.5,0.9-1.1,1.1-3.6,1.1c-2.6,0-3,0.2-3,1c0,1.4,4.2,2.6,6.5,1.8
		c1.4-0.5,1.7-0.4,1.7,0.1c0,0.4,1.3,1.5,2.7,2.5c1.6,1,2.7,2.1,2.7,2.7c0,0.6,0.9,1.5,2.2,2.2c2.5,1.4,2.6,1.6,1.3,3
		c-0.8,0.7-1.6,0.9-4.6,0.6c-5.4-0.4-7.1-1.4-8.6-4.7l-1.4-2.8l-1.3,1.2c-0.9,0.9-2.1,1.3-4.4,1.4c-7.1,0.3-8.2,0.1-10.3-3
		c-1.9-2.7-5.1-3.8-8.3-2.8c-1.1,0.3-2.2,0.6-2.3,0.6c-0.1,0-0.8-1.3-1.5-2.7c-1.4-2.9-1.7-3.2-2.7-2c-0.8,1-2,0.6-3.8-1.1
		c-0.8-0.7-2-1.4-2.7-1.4c-2-0.2-7.8,1.7-7.2,2.2c0.2,0.3,1.9,0.5,3.7,0.7l3.3,0.2l0.2,2l0.2,2.1h-2.2c-1.5,0-2.7,0.4-3.7,1.3
		c-0.8,0.7-2.6,1.9-3.8,2.6c-3.5,2-3,2.9,0.7,1.4c1.5-0.7,1.9-0.7,1.9-0.1c0,1.1-1.8,2.5-3.7,2.8c-1.4,0.3-1.9,0.1-3-1.2
		c-0.7-0.9-1.5-1.4-1.7-1.2c-0.2,0.2-0.4,2.2-0.4,4.5c-0.1,2.4-0.3,4.1-0.7,4.1c-0.3,0-1,0.9-1.6,2c-0.6,1.1-1.9,3-2.8,4.2
		c-2.1,2.6-2.2,3.1-0.7,4.4s1.4,2.3-0.3,3.1c-0.8,0.3-1.5,1.1-1.7,1.9c-0.2,0.8-0.6,1.1-1.4,0.9c-1.2-0.3-1.3-0.2-0.5,1.7
		c0.3,0.8,0.9,1.4,1.4,1.4c0.4,0,0.8,0.4,0.8,0.9c0,0.7,0.3,0.8,1.3,0.5c0.7-0.2,1.7-0.3,2.3-0.3c0.8,0,1.7-0.8,2.6-2.2
		c1.9-2.9,3.8-3.6,6.3-2.5c1.7,0.8,1.9,0.8,3-0.3c0.7-0.6,2-1.1,2.9-1.1s2.7-0.4,4-0.8c1.4-0.5,3.1-0.7,4.1-0.5
		c1.4,0.3,2.2,0.1,3.3-0.8c0.8-0.7,2-1.1,2.6-1.1c1.4,0.1,3,1.2,3,2.2c0,0.4,0.4,1.2,0.9,1.7c0.8,0.9,0.8,1.3,0.2,2.8
		c-0.4,1-0.8,2.2-0.8,2.9c-0.2,1.4-1.4,3.2-2.6,3.6c-0.5,0.2-1,0.9-1,1.5c0,0.7-0.6,2-1.4,2.9c-0.8,1-1.4,2.3-1.4,2.9
		c0,1.4-2.2,3.4-3.6,3.4c-0.6,0-2.2-0.4-3.4-0.8c-1.3-0.4-3.4-0.8-4.7-0.8c-2.1,0-2.7,0.3-5,2.5c-2.8,2.6-4,2.9-6,1.6
		c-1-0.8-1.5-0.8-2.7-0.2c-0.8,0.4-2,0.7-2.6,0.8c-1.6,0.1-5.7,4.7-5.7,6.5c0,0.8,0.4,1.5,0.9,1.7c1,0.4,1,0.4,1.7-1.1
		c0.5-0.9,1.4-1.3,3.9-1.6c3.2-0.4,3.4-0.3,5.2,1.4c1.4,1.2,2.2,1.5,2.6,1.1c0.8-0.8,4.2-0.7,5.4,0.2c1.5,1.1,1.3,5.4-0.3,6.4
		c-0.9,0.6-1.5,0.7-2.2,0.3c-0.7-0.5-1.2-0.4-2,0.4c-2.1,1.9-1.2,3.5,1.3,2.5c3.2-1.5,5,1.6,6.1,10.3c0.3,2.5,0.2,3-0.8,4.1
		c-0.8,0.9-1.3,2.2-1.5,4.3c-0.3,2.5-0.5,3.1-1.6,3.6c-0.8,0.3-1.4,0.4-1.6,0.1c-0.6-1-2.3-0.5-2.9,0.8c-0.3,0.7-1.4,1.7-2.3,2.2
		c-1.7,0.9-2.1,2.1-0.9,2.6c0.4,0.2,1.2,1,1.7,1.7c0.8,1.1,0.8,1.6,0.3,2.8c-0.5,1.2-0.5,1.4,0.4,1.7c1.3,0.3,3.4,9.9,2.3,10.5
		c-0.5,0.3-0.1,1.3,1.7,3.9c2.7,3.8,3.9,7,3.2,8.8c-0.4,1,0,1.6,1.7,3.5c2,2.1,2.4,2.3,4.1,2c1.4-0.3,2-0.2,2.6,0.6s1.1,0.9,2.5,0.5
		c5-1.2,15.5,0.2,20.5,2.6c2.2,1.1,2.4,1.1,2.9,0.2c0.7-1.1,3-1.2,5.1-0.3c1,0.5,1.5,1.2,1.7,2.9c0.3,2,0.5,2.4,1.7,2.6
		c0.8,0.2,2.3,0.1,3.4-0.3c1.5-0.4,2.5-0.3,4.5,0.3c1.4,0.5,3.7,0.9,5.1,0.9c3.9,0,6,1.9,3.6,3.2c-1.6,0.9-0.2,1.9,1.7,1.1
		c2.1-0.8,2.9-0.7,4,0.5c0.9,1,1,1,2.8,0.1c1.1-0.5,2-1.5,2.2-2.3c0.4-1.9,1.7-2,3.3-0.3c1.1,1.1,1.2,1.5,0.7,2.7
		c-0.4,0.8-0.7,2.9-0.7,4.6s-0.3,3.9-0.7,4.6c-0.7,1.6-0.7,1.7,1.4,2.2c1.3,0.3,1.5,0.2,1.5-0.8c0-0.9,0.3-1.1,1.9-1.1
		c1,0,2.1-0.4,2.5-0.8c0.5-0.6,1.7-0.8,4.3-0.8c3.2,0,3.6-0.1,4.1-1.2c0.5-1.3,0.9-1.4,5-0.7c2,0.3,2.3,0.3,2.5-0.7
		c0.4-1.4,3-2,3.6-0.8c0.3,0.5,0.9,0.7,2,0.4c1.4-0.4,1.5-0.5,1.2-2.8c-0.2-1.3-0.4-2.7-0.5-3c-0.1-0.4,0.7-0.9,1.6-1.2
		c1.4-0.4,2-0.4,2.9,0.5c0.9,0.8,1.3,0.9,2,0.4c0.5-0.3,2.2-0.8,3.8-1c2.5-0.3,2.8-0.2,3.1,0.7c0.7,2,2.2,2.8,6,3.2
		c3.4,0.3,4,0.5,6,2.4c3,2.8,5.2,4.4,6,4.4c1.2,0,0.9-0.9-0.9-2.9c-0.9-1-1.6-2.4-1.6-3c0-1.9,1-3.9,1.9-3.9c0.5,0,0.8-0.3,0.8-0.7
		c-0.2-1.4,0.1-2,1-2.1c0.6-0.1,0.9-0.7,0.9-1.7c0-1.5,0.5-2.1,2.6-2.7c0.5-0.2,0.9-0.8,0.9-1.4c0-1.8,2.9-3,5.2-2.2
		c1,0.3,2.7,0.5,3.6,0.5c2.6-0.2,5.8,0.6,6.4,1.7c0.3,0.7,0.2,1.9-0.6,3.9c-1,2.7-1.1,3-0.3,4.7c0.8,1.7,0.8,1.9-0.4,2.3
		c-0.7,0.3-3,0.8-5.1,1.1c-3.6,0.6-4,0.8-4,1.9c0,0.9-0.4,1.4-1.4,1.6c-2.6,0.7-0.9,4.1,2.1,4.1c2.6,0,3.2,0.7,3,3
		c-0.2,2.2-0.3,2.1,4.1,3.2c1.4,0.3,1.5,0.2,1.5-1.2c0-1.3,0.4-1.7,3-3c1.7-0.8,3.5-1.5,4-1.5c1.4,0,1.7-0.5,0.9-1.4
		c-0.4-0.4-0.6-1.2-0.4-1.8c0.2-0.7-0.1-1.1-1-1.3c-1-0.3-1.3-0.7-1.3-2.3c-0.1-2.5,0.7-2.4,3.3,0.3c1.9,2,2,2.2,0.9,2.2
		c-1.9,0-1.4,0.9,1.3,2.6c2,1.3,2.4,1.8,2.5,3.3c0,1.6-0.2,1.8-1.6,1.8c-1,0-1.6,0.3-1.6,0.7c0,1.1,1.2,2,2.7,2c1.6,0,5,1.9,5,2.7
		c0,0.3,0.6,0.5,1.4,0.5s1.4-0.3,1.4-0.5c0-0.3,0.5-0.5,1-0.5c0.6,0,1.3-0.3,1.4-0.6c0.2-0.3,0.8-0.4,1.2-0.3
		c0.5,0.2,1.2,0.1,1.6-0.3c0.6-0.5,0.8-0.4,1.1,0.3c0.6,1.6,3.4,0.5,6.1-2.2c1.5-1.6,2.8-2.5,3.6-2.5c0.8,0,1.6-0.5,1.9-1.1
		c0.5-0.9,0.4-1.1-0.8-1.4c-0.8-0.2-1.6-0.2-1.7,0c-0.7,0.7-1.8-0.9-1.8-2.6v-1.6l1.4,1.3c0.8,0.7,1.4,1,1.4,0.7
		c0-0.4,0.6-0.7,1.3-0.7c2,0,4.1,3,3.8,5.3c-0.3,1.7-0.2,1.8,1.3,1.5c0.9-0.2,1.9-0.4,2.3-0.6c0.4-0.1,0.7-1.3,0.7-3.4
		c0-3.1-0.1-3.4-3-6.9c-2.5-3-3-4-3-5.7c0-2.2,0.7-2.7,4.2-2.7c1.7,0,1.7,0.1,1.4,1.7c-0.2,1-0.3,1.9-0.3,2.1
		c0.1,2.4,0.1,2.4,1.5,1.1c0.8-0.7,1.4-1.9,1.4-2.6c0-0.7,0.5-1.7,1.1-2.3c0.7-0.7,1.1-1.8,1.1-3c0-1.6-0.5-2.5-2.7-4.6
		c-1.5-1.5-2.9-2.7-3.2-2.7c-0.3,0-0.7-0.4-0.9-0.8c-0.2-0.5-1-0.8-1.9-0.8c-3.1,0-3.3-0.3-3.3-4.6c0-3.6-0.1-4.1-1.4-5
		c-0.9-0.7-1.5-1.8-1.9-3.5c-0.2-1.4-1.1-3.3-1.9-4.3c-0.9-1.1-1.4-2.1-1.1-2.6c0.2-0.5,0.7-1.5,0.9-2.4c0.7-1.7,0.9-1.8,3.8-0.3
		c2.2,1.1,2.2,1.1,3.4,0.1c0.6-0.6,1.5-1.2,2-1.3c1.7-0.3,4.2,0.7,5.7,2.2c0.8,0.9,2.3,1.7,3.2,2c0.3,0.1,0.6,0.2,0.9,0.4
		l-77.1-103.4L129.9,224.7z M211.3,439.6c0.3,0,0.7,0.4,0.9,0.9c0.2,0.5,0.1,0.8-0.3,0.7C211.1,440.9,210.6,439.6,211.3,439.6z"/>
	<path fill="#FFD600" d="M430.3,86.7l-1.5,0.2c-1.2,0.2-1.7-0.3-3.2-2.8c-0.8-1.3-1.2-2.1-1.3-2.5l-5.2,3c0.4,1.6,0.7,3.4,1,5.3
		c0.6,5,1.3,7,4.2,9.7l5.8-9.8L430.3,86.7z"/>
	<path fill="#FFD600" d="M442.7,146.9c0.2-3.5-0.1-5.6-2.1-15.2l-4.2,0.6c-0.1,2.8,0.2,3.5,1.3,5.7c1.5,2.7,1.5,2.8,1.1,9.6
		c-0.2,3-0.4,5.2-1,8.3l3.5-2.6C442.3,151.5,442.6,150,442.7,146.9z"/>
	<path fill="#FFD600" d="M468,127.8c-0.6,0.9-1.3,2.1-1.9,3.2c-1.1,2.3-2,3.4-2.8,3.5c-0.9,0.1-1.3,0.7-1.5,2.3
		c-0.1,0.4-0.2,0.9-0.4,1.4l15.5-11.7L468,127.8z"/>
	<path fill="#FFD600" d="M487.6,190.6l-0.4-0.1l-54.4-13.7c-1.1,4.7-1.9,8.4-1.9,9.2c0,1.1-0.4,2.6-1.3,4.7H487.6L487.6,190.6z"/>
</g>
</svg>
