<?xml version="1.0" encoding="utf-8"?>
<!-- Generator: Adobe Illustrator 17.1.0, SVG Export Plug-In . SVG Version: 6.00 Build 0)  -->
<!DOCTYPE svg PUBLIC "-//W3C//DTD SVG 1.1//EN" "http://www.w3.org/Graphics/SVG/1.1/DTD/svg11.dtd">
<svg version="1.1" id="flag-icon-css-ai" xmlns="http://www.w3.org/2000/svg" xmlns:xlink="http://www.w3.org/1999/xlink" x="0px"
	 y="0px" viewBox="0 0 640 480" enable-background="new 0 0 640 480" xml:space="preserve">
<g>
	<path fill="none" d="M0.5,444.1v-18.5c-0.1,0-0.2,0.1-0.3,0.1c-2.6,1.3-3.6,2.2-3.6,3.2c0,2.1-1.2,3.8-3.4,5
		c-1.1,0.6-2.8,2.2-3.7,3.7c-1.4,2.1-2.1,2.7-3.6,2.7c-2.4,0-6.1,1.3-6.1,2.1c0,0.3-1.2,2.3-2.8,4.5l-2.7,3.9l4.7,0.2
		c3,0.1,5.9-0.2,7.8-0.9c1.7-0.5,4.1-1,5.2-1C-6,449.1-3.2,447.5,0.5,444.1z"/>
	<path fill="none" d="M642,90c2.6-1.9,4.5-5.1,5.1-8.7l0.5-2.8h5.7c3.4,0,5.7-0.3,5.7-0.7s0.7-1,1.7-1.4c2-0.7,2.3-2.7,0.5-2.7
		c-0.7,0-1.9-0.5-2.8-1.1c-1.4-0.9-1.5-1.5-1.1-4.1c0.3-2.1,0.2-3-0.4-3c-0.6,0-0.7-1.1-0.4-4.3c0.4-3.7,0.7-4.5,2.8-6.2
		c1.3-1.1,2.6-3,2.8-4.1c0.3-1.1,1.2-3,2.1-4.1c0.8-1.1,1.6-2.4,1.6-2.8c0-0.9-0.3-0.9-5.1-1.1c-1.8-0.1-4.3-0.4-5.5-0.7
		c-1.8-0.4-2.2-0.2-3.3,1.5c-0.7,1-1.3,2.6-1.3,3.6c-0.1,1.1-0.5,1.8-1.4,1.9c-0.7,0.1-2.2,1-3.1,2c-1.6,1.4-1.9,2.5-2.3,6.7l-0.5,5
		h-2.5c-0.3,0-0.6,0-0.8,0v29C640.6,91.2,641.2,90.5,642,90z"/>
	<path fill="#FFFFFF" d="M400.5,240.2l0-0.9l-85.6-51.1c-1.5,1.1-3.4,1.7-5.4,1.7c-1.6,0-2.9,0.3-2.9,0.6c0,0.3-0.7,1.6-1.7,2.6
		l-1.7,2l2.8,1.8c1.5,1,5.1,4.1,8,6.9l5.3,5l0.1,5.1c0,1.1,0,2,0.1,2.9l38.9,22.9L400.5,240.2z"/>
	<path fill="#FFFFFF" d="M399.3,214l-68.1-44.3c-1.1,0.3-1.9,0.7-2.4,1.1c-1.5,1.1-1.7,1.7-1.5,4.4c0,0.6,0,1.1,0,1.5l72.3,45.5
		L399.3,214z"/>
	<path fill="#FFFFFF" d="M400.1,147h-34.7c-0.6,0.4-1.2,0.8-1.8,1.2c-3,2.1-4.2,3.4-4.6,5c-0.4,1.6-0.9,2.2-2,2.2
		c-1.5,0-6.4,2.3-8.2,3.8c-0.6,0.5-2.7,1.8-4.7,2.8c-0.3,0.1-0.6,0.3-0.8,0.4h56.7V147z"/>
	<path fill="#CC0000" d="M400.1,129.2l-3,0.4l-6.1,5.5c-5.6,5-6.3,5.5-9,5.5c-3.3,0-11.2,3.1-16.6,6.5h34.7V129.2z"/>
	<path fill="#000066" d="M1,443.6c2.9-2.7,7.8-3.4,9.5-1.4c1.8,2,2.8,1.8,4-0.9c1.6-3.2,5.9-6,10.5-6.5c3.4-0.4,4.1-0.2,8.2,2
		c3.2,1.7,4.8,3.1,5.7,4.8c1.2,2.2,1.6,2.4,4.9,2.6c2.5,0.1,3.5,0.5,3.5,1.2c0,1.6,3.4,1.1,5.9-0.8c1.5-1.1,2.2-2.2,2.2-3.5
		c0.1-1.4,1.1-2.8,4.4-5.7c4.8-4.3,7.8-5.2,13.2-4.1l3,0.6l-0.3,5.7c-0.2,5.6-0.1,5.7,1.5,6.5c1.7,0.8,1.8,0.7,2.8-2.8
		c2.3-7.8,4.1-10.6,12-18.4c4.2-4.1,8.3-7.9,9.2-8.3c1.3-0.7,2.9-0.7,7.7,0l6.1,0.8l2,3c1.1,1.6,2.4,2.8,2.8,2.7
		c0.3-0.2,2.4-0.9,4.5-1.6c3.5-1.1,3.9-1.4,4.3-3.4c0.4-2.1,0.6-2.2,3-2.2c2.2,0,2.8-0.3,3.2-1.6c0.7-1.6,8.2-6.8,14.7-10.1
		c2.4-1.1,4.6-3.1,6.8-5.8c2.9-3.6,3.7-4.3,7.6-5.5c3.2-1.1,6.8-1.6,13-1.8l8.6-0.3l7.8,4.3l7.8,4.2v3c0,2.2,0.5,3.6,1.7,5.3
		c2,2.7,2.2,6,0.3,8.4c-1.6,2-1.7,4.5-0.3,6.1c1,1.1,1.4,1,7.4-1.9c6.3-3,6.5-3.1,13.6-3.2l7.2-0.1l2.9-3c2.8-3,2.9-3,8-3.2
		c5.1-0.3,5.1-0.3,7.8,2.2c1.5,1.4,3.1,2.4,3.6,2.4c1.4,0,3.2-2.2,3.2-3.8c0-0.8,0.4-1.6,0.9-1.8c0.5-0.2,1.1-1.1,1.2-2
		c0.2-1.4,0.7-1.6,5.4-2c5.9-0.5,9.3-2,9.3-3.8c0-0.9,0.7-1.5,2.1-1.8c1.1-0.3,2.2-0.9,2.4-1.4c0.3-0.6,2.1-1.1,4.9-1.4
		c6.1-0.6,8.2-1.4,7.8-3c-0.3-1,0.5-1.8,3-3.4c3.7-2.3,5.9-6,6.7-11.5c0.5-4,3.5-9.5,5.5-10.2c2.8-1.1,7.5-4.9,8.5-7.2
		c0.6-1.1,1.3-4.7,1.6-7.9l0.5-5.8h2.8c2.6,0,4.9,1.3,4.1,2.2c-0.5,0.5-0.6,6.5-0.1,7.1c1.4,1.4,9-4.5,10.4-8c1.2-3.1,3.2-3.5,5.3-1
		c1.1,1.3,2.2,1.7,5.8,2l4.5,0.4l1.7-3.9l1.8-4l7.4,0.4l7.4,0.3l3-2.4c2.2-1.6,4.4-2.6,7.2-3.2c4-0.8,4.1-0.9,4.8-3.4
		c0.3-1.5,1-3.9,1.4-5.4c0.6-2.2,1-2.7,2.4-2.7c2.5,0,4.1-2.1,4.7-5.9c0.4-3.2,0.5-3.4,3.3-4.4c2.8-0.9,3.1-0.9,7.9,0.9
		c4.5,1.8,5.1,1.8,6.1,0.9c0.7-0.7,2.6-1,5.2-1c3.4,0,4.9-0.4,8.6-2.4c2.5-1.4,5.1-2.3,5.8-2.1c3.1,0.8,5.7-9,2.6-10
		c-1.7-0.5-1.8-2.3-0.1-5c1.4-2.6,4.6-3.8,7.2-2.8c2.9,1.1,11.1,0.1,11.9-1.4c0.4-0.8,1.4-1.3,2.7-1.3c1.2,0,3-0.8,5.8-2.7
		c0.1-10.9,0.3-21.7,0.3-32.3c0.1,0,0.1,0,0.2,0.1l-1.7-1.7l1.7,1.7c4.7,1.6,8.5,3,12.2,4.2l-1.7-1.7l-2-2l2,2l1.7,1.7
		c6.8,2.1,13.3,3.2,24.9,2.7c2.1-0.1,4-0.2,5.9-0.4l-2-2l2,2c0.6-0.1,1.2-0.1,1.8-0.2L501,260l1.8,1.8c0.6-0.1,1.2-0.2,1.7-0.3
		L503,260l1.5,1.5c1-0.2,1.9-0.3,2.8-0.5c-0.1-0.4-0.2-0.8-0.4-1.2l-1.4-1.3c-0.3-0.2-0.6-0.3-0.9-0.4c-2.7-0.9-2.8-1.3-0.9-3.7
		c1.3-1.7,1.4-1.8,0.1-2.2c-1.9-0.7-2.2-1.6-1.1-3.3c0.8-1.2,1.4-1.5,3.2-1.1c2.1,0.3,2.4,0.2,3.4-2c1-2.1,1.5-2.4,4.4-2.8
		c3.2-0.4,3.3-0.5,3.3-2.6c0-1.4,0.6-2.6,1.8-3.7c1.5-1.4,1.7-2.1,1.6-4.8c-0.1-1.8,0.1-4.2,0.3-5.4c0.5-2.1,0.7-2.2,3.8-2.2
		c3.1,0,3.4,0.1,5,2.7c0.9,1.5,2.2,2.7,2.8,2.7c0.6,0,2.6,1.2,4.3,2.7c3.6,3,4.7,3.2,14.2,2c6.5-0.9,9.1-2.6,9.9-6.5
		c0.2-1.2,1.1-2.7,1.8-3.2c2-1.4,6.5-1.3,8.9,0.3c2.7,1.8,5.5,1.8,6.1,0c0.5-1.4,3.6-3.4,5.3-3.4c2,0,1.9-3.2-0.3-7l-2-3.7l1.4-2
		c1.3-1.7,2.1-2,5.5-2.4c3.8-0.3,4.2-0.3,5.4,1.3c1.5,2,3.4,2.2,4.7,0.6c1.4-1.8,1.6-15.1,0.1-16.6c-0.9-1-0.9-1.6-0.3-4
		c0.5-1.5,0.9-5,1.1-7.7c0.1-2.8,0.4-5.3,0.6-5.7c0.2-0.3,1.6-0.8,2.9-1.1c1.4-0.2,3.6-1.1,5-2c1.6-1,2.7-1.4,3.4-0.9
		c1.7,1.1,2,0.7,2-2.6c0-2.5,0.3-3.4,1.4-4.1c0.7-0.5,1.8-1.9,2.4-3.2c0.9-2.2,0.8-2.6-0.9-6.2c-1-2.2-2.4-4-3-4.1
		c-0.6-0.1-2.1,0.7-3.2,1.8c-1.1,1.1-2.2,2.1-2.4,2.1c-0.2,0-2.2-1.4-4.5-3.2c-2.3-1.8-4.9-3.6-5.9-4.3c-1.4-0.9-1.7-1.7-1.9-5.7
		c-0.2-3.6,0.1-5.4,1.1-7.8c1.6-3.6,3.2-4.7,7.6-5.3l3-0.3l0.5-3.4c0.3-2.5,0.9-3.6,2.2-4.6c1-0.7,1.8-1.8,1.8-2.4
		c0-1.6,3.2-4.9,4.6-4.9c0.6,0,2.2-0.6,3.4-1.4c1.3-0.7,4.1-1.6,6.1-1.8c2.1-0.2,4.3-0.7,4.8-1.3c0.5-0.5,1.8-1.1,2.9-1.3
		c1.4-0.3,1.8-0.9,1.8-2c0-2.8,1.2-4.9,3-5.3c1.5-0.3,1.7-0.7,1.4-2c-0.3-1.5,0.4-3.5,1.7-5.1v-29c-1.5,0.1-2,0.5-2.5,1.7
		c-0.5,0.9-1.4,1.7-2.1,1.7c-0.7,0-1.5,0.3-1.8,0.6c-0.2,0.3-1.4,0.9-2.6,1.1c-2.4,0.5-8.7,4.6-12.8,8.2c-2.7,2.4-3.6,5.9-1.6,6.6
		c0.8,0.3,0.9,0.7,0.3,2c-1,2.2-4.3,2.7-10.9,1.7c-3.4-0.5-8-0.7-13.1-0.3l-7.8,0.5l-6.3,4.9c-5.4,4.3-6.8,5-9,5
		c-1.4,0-3,0.4-3.4,0.9c-0.5,0.5-2.8,1.6-5.3,2.4c-2.4,0.8-5.4,2.3-6.5,3.3c-1.1,1-3.9,2.6-6.1,3.4c-3.5,1.4-4.2,1.5-7,0.7
		c-4.3-1.1-6.8-4.1-6.1-7.4c0.3-1.4,0.9-3.2,1.4-4.3c1.2-2.6,0.2-3.5-2.4-2.2c-1.3,0.7-2.8,0.9-4.7,0.6c-3-0.4-11.2,1.7-13.1,3.4
		c-1.4,1.3-5.3,2.8-9.2,3.7c-6.4,1.4-8.3,2.1-8.3,2.9c0,0.9-8.6,5.7-14.2,7.9c-2,0.8-5.1,2.4-6.8,3.4c-1.8,1.1-4,2-5.3,2
		c-2.5,0-6.1-2.4-6.1-4.1c0-0.7-1.2-2.6-2.7-4.3c-1.5-1.7-2.7-3.8-2.7-4.7c0-2.2-0.8-2.7-1.6-1.1c-0.4,0.7-3.4,3.6-6.8,6.4
		c-7.2,6.2-14.9,10.1-23.7,11.9c-3.3,0.7-8.8,2.4-12.2,3.7c-4.3,1.8-8.2,2.8-13,3.4l-3.9,0.5V147v15.5h-56.7c-2.3,1.3-2.8,1.9-3,3.5
		c-0.2,2-0.3,2.1-5,2.8c-1.5,0.2-3,0.6-4.2,1l68.1,44.3l0.4,8.2l0,0l0.8,17.1l0,0l0,0.9l-42.3-0.6l-38.9-22.9c0.2,1.8,0.5,3.1,1,3.8
		c1.4,2,1.4,3.4,0.1,4c-1.5,0.5-1.2,1.6,1,4.3c1.8,2.1,2,2.7,2,7c0,4.7-0.1,4.7-3.4,9c-3,3.6-5.1,5.3-13.5,10.5
		c-5.5,3.4-10.1,6.5-10.1,7.1c0,1.4-2.5,2.6-6.8,3.6c-2.1,0.4-4.8,1.6-6.1,2.4c-1.4,1.1-3.1,1.7-4.6,1.7c-1.4,0-4.1,0.7-6,1.7
		c-5.3,2.4-10.1,3.7-14,3.7c-5.3,0-11.1,3.7-21.3,13.6l-8.4,8.1l7.5-0.3l7.6-0.3l0.7,2.5c1.8,5.9-0.3,19.8-3.2,22.1
		c-7.1,5.5-9.9,6.1-20.7,4.1c-8.9-1.6-14.9-1.4-21.3,1.1c-2.4,0.9-6.8,2-9.8,2.4c-4.1,0.6-7.2,1.6-12.5,4.2
		c-8.1,3.9-8.2,3.9-26.6,2.2l-10.2-0.9l-2.1,2l-2.1,2l-9.7-0.2l-9.7-0.1l-5.1,2.6c-2.8,1.4-6.8,3.8-8.9,5.3
		c-3.8,2.6-3.9,2.6-3.9,5.9c0,2.5-0.7,4.5-2.8,8.6c-2.4,4.6-3.9,6.4-10.9,13l-8.2,7.6l-5.5-0.3c-3.8-0.2-5.9-0.1-7.1,0.6
		c-0.9,0.5-2.3,0.9-3.1,0.9c-1.2,0-1.7,0.6-2.3,3c-0.7,2.7-1.5,3.6-7.9,8.8c-4,3.2-7.7,5.8-8.3,5.8c-1.7,0-6.7,3.6-11.1,8
		c-3.6,3.7-4.3,4.1-6.8,4.1c-2,0-3.2-0.4-4.4-1.6c-1.4-1.4-2-1.6-4.4-1.1c-1.5,0.3-4.4,1.4-6.3,2.5c-3.7,2-3.7,2-4.1,5.7
		c-0.4,4.6-1.4,6-5.6,8.2v18.5C0.7,443.9,0.8,443.8,1,443.6z M505,260l-2-2L505,260z M488.8,262l-2-2L488.8,262z M486.8,262l-2-2
		L486.8,262z M484.7,262l-2-2L484.7,262z M482.7,262l-2-2L482.7,262z M478,260.6l1.4,0.7L478,260.6z M478.6,260l-2-2L478.6,260z
		 M476.6,260l-2-2L476.6,260z M474.6,260l-2-2L474.6,260z M472.6,260l-2-2L472.6,260z M470.5,258l-2-2L470.5,258z M466.5,258l-2-2
		L466.5,258z M462.4,255.9l-2-2L462.4,255.9z M460.4,255.9l-2-2L460.4,255.9z M456.3,253.9l-2-2L456.3,253.9z"/>
	<path fill="#000066" d="M505.8,258.7l1.1,1.1C506.6,259.4,506.3,259,505.8,258.7z"/>
	<path fill="#CC0000" d="M400.5,239.3l-0.8-17.1l0,0l-72.3-45.5c-0.2,2.4-1.3,2.9-3.4,1.4c-2.2-1.6-3.8-0.3-5.1,4.1
		c-0.7,2.6-2.2,4.7-4.1,6L400.5,239.3L400.5,239.3z"/>
	
		<line fill="none" stroke="#0E0E6E" stroke-width="0" stroke-linecap="round" stroke-linejoin="round" x1="454.3" y1="251.9" x2="456.3" y2="253.9"/>
	<path fill="#CCCC33" d="M505,262l-0.5-0.5c-0.6,0.1-1.1,0.2-1.7,0.3l0.2,0.2l-0.2-0.2c-0.6,0.1-1.2,0.2-1.8,0.2l0,0l0,0
		c-1.8,0.2-3.8,0.4-5.9,0.4c-11.6,0.5-18.1-0.6-24.9-2.7l0.3,0.3l-0.3-0.3c-3.7-1.1-7.5-2.6-12.2-4.2l0.3,0.3l-0.3-0.3
		c-0.1,0-0.1,0-0.2-0.1c0,10.6-0.2,21.4-0.3,32.3c0.8-0.5,1.6-1.1,2.5-1.7c0.5-0.4,1-0.7,1.5-1c0-1.2,0-2.3,0-3.5l-1.2-1.2l1.2,1.2
		c0-6.8,0.1-13.5,0.4-19.9l-1.6-1.6l1.6,1.6c0-0.1,0-0.3,0-0.4h0c1,0.5,2,0.9,3,1.3l-0.5-0.5l0.5,0.5c1.1,0.5,2.2,0.9,3.2,1.2
		l-1.7-1.7l1.7,1.7c2,0.7,3.9,1.3,5.8,1.7l-1.4-1.4l1.4,1.4c0.9,0.2,1.7,0.4,2.5,0.5l-1.9-1.9l1.9,1.9c2.3,0.4,4.6,0.7,6.8,0.8
		l-0.6-0.6V266l0.7,0.7c0.7,0,1.4,0.1,2.1,0.1l-0.7-0.7V266l0.8,0.8c0.7,0,1.3,0,2,0l-0.7-0.7V266l0.8,0.8c3.6,0,7.2-0.2,11-0.4
		c0.2,0,0.4,0,0.7,0l-0.3-0.3V266l0.3,0.4c2.1-0.1,3.9-0.2,5.6-0.4L503,264l1.9,1.9c0.3,0,0.5-0.1,0.8-0.1c0.1-0.2,0.2-0.5,0.4-0.8
		L505,264h0.1l1,1c0.1-0.1,0.1-0.2,0.2-0.3c0.8-1.5,1.1-2.7,0.9-3.7c-0.9,0.2-1.8,0.4-2.8,0.5L505,262z M462.4,260l2,2L462.4,260z
		 M468.5,262l2,2L468.5,262z M476.6,264l2,2L476.6,264z M478.7,264l2,2L478.7,264z"/>
	
		<line fill="none" stroke="#A4A43D" stroke-width="0" stroke-linecap="round" stroke-linejoin="round" x1="458.4" y1="255.9" x2="458.1" y2="255.6"/>
	
		<line fill="none" stroke="#A4A43D" stroke-width="0" stroke-linecap="round" stroke-linejoin="round" x1="456.4" y1="253.9" x2="458.1" y2="255.6"/>
	
		<line fill="none" stroke="#6E6C70" stroke-width="0" stroke-linecap="round" stroke-linejoin="round" x1="458.4" y1="253.9" x2="460.4" y2="255.9"/>
	
		<line fill="none" stroke="#3A3A7C" stroke-width="0" stroke-linecap="round" stroke-linejoin="round" x1="460.4" y1="253.9" x2="462.4" y2="255.9"/>
	
		<line fill="none" stroke="#737370" stroke-width="0" stroke-linecap="round" stroke-linejoin="round" x1="464.5" y1="256" x2="466.5" y2="258"/>
	
		<line fill="none" stroke="#53527C" stroke-width="0" stroke-linecap="round" stroke-linejoin="round" x1="468.5" y1="258" x2="466.5" y2="256"/>
	
		<line fill="none" stroke="#1B1B74" stroke-width="0" stroke-linecap="round" stroke-linejoin="round" x1="468.5" y1="256" x2="470.5" y2="258"/>
	<path fill="#FFFFFF" d="M505,266L505,266c-1.7,0.1-3.6,0.3-5.7,0.4l1.7,1.7l-1.7-1.7c-0.2,0-0.4,0-0.7,0c-3.8,0.2-7.4,0.4-11,0.4
		l1.2,1.3l-1.3-1.3c-0.7,0-1.3,0-2,0l1.2,1.3l-1.3-1.3c-0.7,0-1.4,0-2.1-0.1l1.3,1.4l-1.4-1.4c-2.2-0.1-4.5-0.4-6.8-0.8l0.1,0.1
		l-0.1-0.1c-0.8-0.1-1.7-0.3-2.5-0.5l0.6,0.6l-0.6-0.6c-1.9-0.4-3.8-1-5.8-1.7l0.3,0.3l-0.3-0.3c-1-0.4-2.1-0.8-3.2-1.2l1.5,1.5
		l-1.5-1.5c-1-0.4-2-0.8-3-1.3h0c0,0.1,0,0.3,0,0.4l0.4,0.4l-0.4-0.4c-0.2,6.5-0.4,13.1-0.4,19.9l0.8,0.8l-0.8-0.8
		c0,1.2,0,2.3,0,3.5c4.4-3,5.5-3.4,9.4-3.8c4.3-0.5,4.9-0.7,8.4-3.8c3.6-3.1,3.9-3.2,8-3.2c3.2,0,5-0.4,8-2c2.9-1.4,4.3-1.8,5.7-1.4
		c1.2,0.3,2.5,0.1,3.8-0.5c0.1,0,0.1-0.1,0.2-0.1l-0.2-0.2h0.1l0.2,0.2c0.6-0.3,1-0.5,1.3-0.7l-1.5-1.4h0.1l1.4,1.4
		c0.7-0.5,0.5-0.9-0.5-1.6c-0.7-0.5-0.8-0.9-0.3-2C505.5,265.9,505.2,265.9,505,266L505,266z M496.3,266.7l1.3,0.7L496.3,266.7z"/>
	
		<line fill="none" stroke="#A4A43D" stroke-width="0" stroke-linecap="round" stroke-linejoin="round" x1="470.2" y1="259.7" x2="470.5" y2="260"/>
	
		<line fill="none" stroke="#A4A43D" stroke-width="0" stroke-linecap="round" stroke-linejoin="round" x1="470.2" y1="259.7" x2="468.5" y2="258"/>
	
		<line fill="none" stroke="#99994E" stroke-width="0" stroke-linecap="round" stroke-linejoin="round" x1="470.6" y1="258" x2="472.6" y2="260"/>
	
		<line fill="none" stroke="#6E6C70" stroke-width="0" stroke-linecap="round" stroke-linejoin="round" x1="472.6" y1="258" x2="474.6" y2="260"/>
	
		<line fill="none" stroke="#49497D" stroke-width="0" stroke-linecap="round" stroke-linejoin="round" x1="474.6" y1="258" x2="476.6" y2="260"/>
	
		<line fill="none" stroke="#1B1B74" stroke-width="0" stroke-linecap="round" stroke-linejoin="round" x1="503" y1="258" x2="505" y2="260"/>
	
		<line fill="none" stroke="#1B1B74" stroke-width="0" stroke-linecap="round" stroke-linejoin="round" x1="476.6" y1="258" x2="478.6" y2="260"/>
	<path fill="#53527C" d="M506.9,259.8l-1.1-1.1c-0.1-0.1-0.2-0.1-0.2-0.2L506.9,259.8C506.9,259.8,506.9,259.8,506.9,259.8z"/>
	
		<line fill="none" stroke="#DDDC7A" stroke-width="0" stroke-linecap="round" stroke-linejoin="round" x1="462" y1="261.6" x2="462.4" y2="262"/>
	
		<line fill="none" stroke="#DDDC7A" stroke-width="0" stroke-linecap="round" stroke-linejoin="round" x1="460.4" y1="260" x2="462" y2="261.6"/>
	
		<line fill="none" stroke="#D0D045" stroke-width="0" stroke-linecap="round" stroke-linejoin="round" x1="462.4" y1="260" x2="464.4" y2="262"/>
	
		<line fill="none" stroke="#A4A43D" stroke-width="0" stroke-linecap="round" stroke-linejoin="round" x1="478" y1="260.6" x2="479.4" y2="261.3"/>
	
		<line fill="none" stroke="#808067" stroke-width="0" stroke-linecap="round" stroke-linejoin="round" x1="480.7" y1="260" x2="482.7" y2="262"/>
	
		<line fill="none" stroke="#666677" stroke-width="0" stroke-linecap="round" stroke-linejoin="round" x1="482.7" y1="260" x2="484.7" y2="262"/>
	
		<line fill="none" stroke="#58587B" stroke-width="0" stroke-linecap="round" stroke-linejoin="round" x1="484.8" y1="260" x2="486.8" y2="262"/>
	
		<line fill="none" stroke="#49497D" stroke-width="0" stroke-linecap="round" stroke-linejoin="round" x1="486.8" y1="260" x2="488.8" y2="262"/>
	
		<line fill="none" stroke="#737370" stroke-width="0" stroke-linecap="round" stroke-linejoin="round" x1="501" y1="262" x2="499" y2="260"/>
	
		<line fill="none" stroke="#737370" stroke-width="0" stroke-linecap="round" stroke-linejoin="round" x1="501" y1="262" x2="501" y2="262"/>
	
		<line fill="none" stroke="#99994E" stroke-width="0" stroke-linecap="round" stroke-linejoin="round" x1="503" y1="262" x2="502.8" y2="261.8"/>
	
		<line fill="none" stroke="#99994E" stroke-width="0" stroke-linecap="round" stroke-linejoin="round" x1="502.8" y1="261.8" x2="501" y2="260"/>
	
		<line fill="none" stroke="#A4A43D" stroke-width="0" stroke-linecap="round" stroke-linejoin="round" x1="504.5" y1="261.5" x2="503" y2="260"/>
	
		<line fill="none" stroke="#A4A43D" stroke-width="0" stroke-linecap="round" stroke-linejoin="round" x1="504.5" y1="261.5" x2="505" y2="262"/>
	
		<line fill="none" stroke="#F2F1D7" stroke-width="0" stroke-linecap="round" stroke-linejoin="round" x1="465" y1="262.5" x2="466.5" y2="264"/>
	
		<line fill="none" stroke="#F2F1D7" stroke-width="0" stroke-linecap="round" stroke-linejoin="round" x1="464.5" y1="262" x2="465" y2="262.5"/>
	
		<line fill="none" stroke="#E0DEA1" stroke-width="0" stroke-linecap="round" stroke-linejoin="round" x1="468.2" y1="263.7" x2="468.5" y2="264"/>
	
		<line fill="none" stroke="#E0DEA1" stroke-width="0" stroke-linecap="round" stroke-linejoin="round" x1="466.5" y1="262" x2="468.2" y2="263.7"/>
	
		<line fill="none" stroke="#DDDC7A" stroke-width="0" stroke-linecap="round" stroke-linejoin="round" x1="468.5" y1="262" x2="470.5" y2="264"/>
	
		<line fill="none" stroke="#F2F1D2" stroke-width="0" stroke-linecap="round" stroke-linejoin="round" x1="472.6" y1="264" x2="474" y2="265.4"/>
	
		<line fill="none" stroke="#F2F1D2" stroke-width="0" stroke-linecap="round" stroke-linejoin="round" x1="474" y1="265.4" x2="474.6" y2="266"/>
	
		<line fill="none" stroke="#E0DEA1" stroke-width="0" stroke-linecap="round" stroke-linejoin="round" x1="476.5" y1="265.9" x2="476.6" y2="266"/>
	
		<line fill="none" stroke="#E0DEA1" stroke-width="0" stroke-linecap="round" stroke-linejoin="round" x1="474.6" y1="264" x2="476.5" y2="265.9"/>
	
		<line fill="none" stroke="#DDDC7A" stroke-width="0" stroke-linecap="round" stroke-linejoin="round" x1="476.6" y1="264" x2="478.6" y2="266"/>
	
		<line fill="none" stroke="#D0D045" stroke-width="0" stroke-linecap="round" stroke-linejoin="round" x1="478.7" y1="264" x2="480.7" y2="266"/>
	
		<line fill="none" stroke="#DDDC7A" stroke-width="0" stroke-linecap="round" stroke-linejoin="round" x1="504.9" y1="265.9" x2="505" y2="266"/>
	
		<line fill="none" stroke="#DDDC7A" stroke-width="0" stroke-linecap="round" stroke-linejoin="round" x1="504.9" y1="265.9" x2="503" y2="264"/>
	<path fill="#E5E3AF" d="M505,264l1.1,1.1c0,0,0,0,0,0l-1-1H505z"/>
	<polygon fill="#F2F1D7" points="483.4,266.7 482.7,266 482.7,266.1 483.3,266.7 484.7,268.1 	"/>
	<polygon fill="#F2F1D2" points="485.6,266.8 484.8,266 484.8,266.1 485.5,266.8 486.8,268.1 	"/>
	<polygon fill="#EEEDC1" points="487.6,266.8 486.8,266 486.8,266.1 487.5,266.8 488.8,268.1 	"/>
	
		<line fill="none" stroke="#F2F1D2" stroke-width="0" stroke-linecap="round" stroke-linejoin="round" x1="497.6" y1="267.4" x2="496.3" y2="266.7"/>
	<polygon fill="#FBFAF2" points="499.3,266.4 499,266 499,266.1 499.3,266.4 501,268.1 	"/>
	<path fill="#FEF8F1" d="M505,268.1l1.5,1.4c0,0,0,0,0,0l-1.4-1.4H505z"/>
	<path fill="#FBC477" d="M505,270.1l0.2,0.2c0,0,0,0,0.1,0l-0.2-0.2H505z"/>
	
		<line fill="none" stroke="#F6F6E4" stroke-width="0" stroke-linecap="round" stroke-linejoin="round" x1="461.6" y1="281.5" x2="462.4" y2="282.3"/>
	
		<line fill="none" stroke="#F6F6E4" stroke-width="0" stroke-linecap="round" stroke-linejoin="round" x1="460.4" y1="280.3" x2="461.6" y2="281.5"/>
</g>
</svg>
