<?xml version="1.0" encoding="utf-8"?>
<!-- Generator: Adobe Illustrator 17.1.0, SVG Export Plug-In . SVG Version: 6.00 Build 0)  -->
<!DOCTYPE svg PUBLIC "-//W3C//DTD SVG 1.1//EN" "http://www.w3.org/Graphics/SVG/1.1/DTD/svg11.dtd">
<svg version="1.1" id="flag-icon-css-al" xmlns="http://www.w3.org/2000/svg" xmlns:xlink="http://www.w3.org/1999/xlink" x="0px"
	 y="0px" viewBox="0 0 640 480" enable-background="new 0 0 640 480" xml:space="preserve">
<g>
	<path fill="none" d="M330.6,480c5.4,3.1,10.8,4.6,14,3.7c0.9-0.2,1.1-0.5,0.8-1.5c-0.1-0.9,0-1.5,0.7-2.2c0,0,0,0,0.1,0L330.6,480
		C330.6,480,330.6,480,330.6,480z"/>
	<path fill="none" d="M349.1,480c0.4,0.2,0.8,0.3,1.4,0.6c0.5,0.2,0.7,0.1,0.8-0.6H349.1z"/>
	<path fill="#E41E20" d="M389.4,248.7C389.4,248.7,389.4,248.7,389.4,248.7l0.7-1.8l-3.8-5.8l-0.8-1.2c0.1,0.7,0.2,1.4,0.3,2.2
		C386.4,244.3,387.5,246.6,389.4,248.7z"/>
	<path fill="#E41E20" d="M253.5,279.4c0,0.1,0.1,0,0.2-0.1l-0.2-0.2C253.6,279.2,253.5,279.3,253.5,279.4z"/>
	<path fill="#E41E20" d="M427.3,285.9c-3.3,2.7-5,4.9-8.4,7.7l16.7-0.5c0.4-0.5,0.9-0.9,1.3-1.3v-6.8
		C434.3,287.1,430.8,287,427.3,285.9z"/>
	<path fill="#E41E20" d="M419.1,297.3c2.2,2,5.2,3,7.5,4.8c4.3-1.2,7.6-1.1,10.1,0.2c0.1-1.2,0.2-3,0.2-5.9
		c-0.1-0.1-0.2-0.2-0.3-0.2L419.1,297.3z"/>
	<path fill="#E41E20" d="M398.4,254.8H398c0.1,0.1,0.3,0.1,0.4,0.2L398.4,254.8z"/>
	<path fill="#E41E20" d="M252.8,245.4c-1.1,0.3-2,0.8-2,0.9c0,0.1,0.3,0.7,0.8,1.3c0.5-0.7,1-1.5,1.4-2.3
		C252.9,245.3,252.8,245.4,252.8,245.4z"/>
	<path fill="#E41E20" d="M379.6,108.7c4.2,1,7.6,0.5,10.9,0c-0.5-2.1-1.1-4-1.6-5.5c-1.4,0-2.9,0.6-4.4,1.5
		C382.6,105.7,381,107.1,379.6,108.7z"/>
	<path fill="#E41E20" d="M361.6,124.3c-4.2,2.3-7.9,5.5-10.9,9.2c-4.7,5.5-5,9.8-5.2,10.8c-1,8.8,2.1,13.8,7.9,15.4
		c2.8,0.7,8-0.7,9.8-2.9c2-2.2,3.7-6,3.2-12c-0.5-2.2-3.1-8.3-0.9-9.5c7.4-4.1,15-7.8,22.8-11.2c0-1.6,0.4-2.3,2-4.2
		c1.3-1.5,2-2.8,1.9-3.4c-0.1-0.6-0.2-1.2-0.3-1.8c-1.5,1.2-3.9,2.3-7.4,3C374.8,119.8,366.9,121.4,361.6,124.3z"/>
	<path fill="#E41E20" d="M260.4,108.7c-1.4-1.6-3-3-4.8-4.1c-1.9-1.1-3.7-1.7-5.4-1.4c-1.2,0.1-2.7,1.2-3.9,3.1
		c-0.8-4.8,0.5-10.1,13.5-8c-0.1-3.5,7.6-5,12.2-5h0.1c4.2,0.5,8.2,1.6,12,3.4c6.3,2,12.9,3.3,19.5,3.8c-4.2,3.5-5,3.7-9.2,6.7
		c5.4,2,10.1,5.6,13.5,10.2c-5.6,0.2-7.4-0.2-9.3,0.6c7.7,2.2,11.3,3.5,15.3,7.6c-1.5,0.2-3.6,0.6-4.5,1c-0.9,0.4-0.6,0.8,0.1,1.4
		c1.7,1.2,8.5,9.2,10.5,11c2-1.8,8.8-9.8,10.5-11c0.7-0.6,1-1,0.1-1.4c-0.9-0.4-3-0.8-4.5-1c4-4.1,7.6-5.4,15.3-7.6
		c-1.9-0.8-3.7-0.4-9.3-0.6c3.4-4.6,8.1-8.2,13.5-10.2c-4.2-3-5-3.2-9.2-6.7c6.6-0.5,13.2-1.8,19.5-3.8c3.8-1.8,7.8-2.9,12-3.4h0.1
		c4.6,0,12.3,1.5,12.2,5c2.4-0.4,4.5-0.5,6.1-0.5c-1-1.8-0.9-2.4-0.7-5c0.3-3.3,0.3-3.3-2.2-8.4c-1.8-3.5-2.6-5.7-2.6-6.8
		c0-1.5-0.6-2.5-3.7-6.5c-3.5-4.4-3.9-4.8-7.3-6.3c-5.9-2.7-8.5-4.3-9.1-5.8c-0.3-0.7-0.8-1.2-1.1-1.1c-0.3,0.1-1.7,0.3-3.1,0.5
		c-2,0.2-3.2,0-5.8-0.8l-3.3-1.1l-0.1-3.2c-0.1-2.9-0.2-3.3-1.5-4.4c-1.3-1.1-1.4-1.3-0.9-2.9c0.4-1.6,0.3-2.2-0.8-4.9
		c-0.7-1.7-2.4-5.1-3.8-7.6c-2.5-4.4-2.5-4.5-5.1-5.4c-1.7-0.6-3.7-1.8-5.5-3.2c-5.2-4.4-4.7-4.2-7.1-3.2c-1.7,0.7-2.3,1.3-3.5,3.5
		l-1.5,2.7h-3.7c-3.7,0-3.7,0-5.9,2c-1.6,1.5-3.4,2.4-6.3,3.4l-4.1,1.4l-2.7-2.1c-2.4-1.8-2.9-2.5-4.2-5.8c-0.8-2.1-1.6-4.7-1.8-5.8
		c-0.3-1.9-0.2-2.2,1.1-3.1l1.4-1.1l-0.6-3.4c-0.8-4.6-1.2-5.6-3.1-7.1c-0.9-0.7-1.8-1.3-1.9-1.3c-0.1,0-1.9,1.2-3.9,2.7
		c-2.4,1.8-4.6,4-6.5,6.5c-2.6,3.5-2.8,3.9-3.3,7.4c-0.5,3.6-0.5,3.7-1.8,3.9c-1.5,0.2-2.5,1.8-4.3,7.7c-1.2,3.9-1.5,4.3-3.8,6.1
		c-1.4,1-3.4,3.1-4.4,4.6c-1,1.5-2.8,3.4-3.9,4.2c-2.6,1.8-3.5,3.8-3.5,7.8c0,2.7-0.1,3-1.4,3.9c-0.9,0.7-2.3,2.8-4,6.1
		c-1.9,3.7-3.5,6.2-6.3,9.3c-2.1,2.3-3.8,4.7-4,5.2c-0.4,1.1-0.3,1.1,10.8,11.3l1.9,1.7l-1.3,2.6c-1.1,2.3-1.3,3.2-1.3,6.8
		c0,1.7,0.1,3.4,0.2,4.4c1.2,0.6,2.4,1,3.7,1.3C252.2,109.1,255.8,109.8,260.4,108.7z"/>
	<path fill="#E41E20" d="M367.2,101.7c-3.8,0-6.1,1.3-6.1,2.9c0,1.6,2.3,2.9,6.1,2.9c3.8,0,6.2-1.5,6.2-3
		C373.4,102.9,371,101.7,367.2,101.7z"/>
	<path fill="#E41E20" d="M377.4,111.7c1.3,0.8,2.8,2.3,5.8,2.8c2.3,0.5,5.6-0.9,8.2-1.8c-0.1-0.4-0.2-0.9-0.3-1.3
		c-1.2,0.1-2.5,0.2-3.9,0.2C383.6,111.7,379.6,111.2,377.4,111.7z"/>
	<path fill="#E41E20" d="M384.6,256.9c-5.4-6.2-5.8-10.3-8.8-19.9c-2.8-4.6-7.9-2.4-7.9,2.4c2.5,9.6,4.5,11.3,9.5,15.2
		c4.7,4.5-3.3,6-6,4.1c-7.8-5.2-10.6-12-13.2-18.2c-2-4.4-7.4-2.3-4.8,5c6,17.4,16,24.2,33.3,27.8c1.7,0.3,2.8,1.3,2.2,3.3l-7,7
		c10.7,3.2,19.4,5,30.2,8l14.8-9.8c0.1-0.1,0.1-0.3,0.2-0.5c-1.2-0.1-2.1-0.4-3.9-1.2c-1.7-0.7-3.3-1.4-3.4-1.4s-1,1.3-2,2.8
		l-1.9,2.8l-4.6-1.2l-4.6-1.2l-4.2-13.5l-1.5-5c-1.2,0.8-2.6,1.3-4.1,1.4C394.2,264.7,388.8,261.5,384.6,256.9z"/>
	<path fill="#E41E20" d="M286.6,245.5c2.6-7.3-2.8-9.4-4.8-5c-2.6,6.2-5.4,13-13.2,18.2c-2.7,1.9-10.7,0.4-6-4.1
		c5-3.9,7-5.6,9.5-15.2c0-4.8-5.1-7-7.9-2.4c-3,9.6-3.4,13.7-8.8,19.9c-0.9,1-1.9,2-2.9,2.8c-0.3,2.4-0.5,4.3-0.7,4.9
		c-0.7,2.2-0.7,2.7,0.4,3c0.5,0.1,1.4,1.2,2,2.3c0.7,1.4,0.9,1.8,0.8,3C271.2,269.3,280.8,262.4,286.6,245.5z"/>
	<path fill="#E41E20" d="M272.8,101.7c-3.8,0-6.2,1.2-6.2,2.8c0,1.5,2.4,3,6.2,3c3.8,0,6.1-1.3,6.1-2.9
		C278.9,103,276.6,101.7,272.8,101.7z"/>
	<path fill="#E41E20" d="M250.7,282.4l-1.5-1.9l-1.2,0.9c-0.7,0.5-1.6,0.9-2.2,1c-0.5,0-1.4,0.2-1.8,0.4c-0.8,0.3-0.8,0.4,0.1,1.6
		c0.5,0.6,0.9,1.5,1.3,2.6c2.1-0.5,4.2-1.1,6.3-1.7C252.1,284.3,251.9,283.9,250.7,282.4z"/>
	<path fill="#E41E20" d="M351.3,479.1c0-1.6,0.4-2.2,3.3-5.1l3.3-3.4l-1.2-2c-0.9-1.6-1.2-2.9-1.4-6.2l-0.2-4.1h1.6
		c1.1,0,2.9,0.7,5.1,1.7l3.4,1.8l1.6-1.6c1.6-1.5,1.7-1.8,1.7-4.5c0-2.7-0.2-3.2-3.1-8.4c-1.7-3-3.6-5.8-4.2-6.2
		c-1-0.7-1.1-1-0.8-2.4c0.2-1-0.1-3.3-0.7-5.7c-0.5-2.2-0.8-4-0.7-4.1s1.2,0,2.4,0.3c2.2,0.5,2.3,0.4,4.2-1.1
		c1.5-1.3,2.1-2.2,2.7-4.3c0.4-1.5,0.8-3,1-3.4c0.1-0.4,1.2-1.7,2.4-2.9l2.2-2.2l1.6,1.1l1.6,1.1l2.2-1.1l2.2-1.1l2.7,1.6
		c2.5,1.5,2.8,1.6,4.1,1c0.8-0.4,3.6-1.6,6.4-2.8l4.9-2.2l1.4-4.3c1.4-4.2,1.4-4.4,0.7-7.4l-0.7-3.1l2.3-2.7l2.3-2.7l0.3-4.9
		c0.3-6.1,0.9-7.9,2.9-9.3c1.2-0.8,1.6-1.4,1.6-2.5c0-0.9,0.5-2.1,1.5-3.2c1.4-1.7,1.5-2.2,2.2-7.8l0.7-6l2-1.1
		c1.4-0.8,2.4-1.9,3.4-3.6c0.8-1.4,1.6-2.5,1.9-2.5s2,0.4,3.9,1c1.9,0.5,4.4,0.9,5.4,0.8l2-0.1l1-3.7c1.5-5.5,4.3-9.4,8-10.9
		c1.5-0.6,1.5-0.6,2.2-7c0.7-5.5,0.7-7,0.2-10.4l-0.6-4l-1.4-1.4c0.1,1.3,0,2.5-0.1,3.8c-0.8-3-2.3-5.5-4.9-7c-8,2-11-1.3-11.5-6.1
		c-4-3.2-9.8-3.9-13.7-7.1c-4.6,1.4-6.8,2.3-11.4,3.8c-1.6,5-5.3,6.9-11.3,5.6c-7,0.2-5.8,3.2-6.4,5.5c-2-3.3-1.9-6.6,2.5-9.6
		c1.6-4.3,5.2-6.3,9.8-3.8c4.4-1.2,5.5-3,9.9-4.3c-11-3.5-18.8-4.3-29.8-7.8l-7.7,6.8c-1.5,0.9-2.9,1.1-3.8,0
		c-6.9-10-10-18.7-16.3-25.3c-2.5-2.8-5.6-6.4-9-7.3c-1.7-0.5-3.8-0.2-5.2,1.3c-1.3,1.4-2.4,4.1-2,8.2c0.7,5.7,2.1,7.6,3.7,11
		c1.7,3.5,3.6,5.6,5.7,8.3c4,5.3,9.4,8.4,12.6,10.5c6.4,4.1,9,2.3,14,2c6.4,0.7,8,3.8,2.8,8.1c-4.8,2.6-9.2,2.9-12.8,2.2
		c-3-0.6-6.6-4.5-9.2-6.6c-2.8-3.3-7.6,0.6-4.3,4.5c5.9,7,11.7,11.6,19,11.5c7.7,1,6.2,5.3,1.2,7.4c-9.2,3.7-17.4-3.3-21.6-8
		c-3.2-3.5-5.5-3.6-5,1.9c3.3,9.9,7.6,13.7,14.8,14.2c5.8-0.6,5.9,4,1.6,7c-9.6,6.6-16.6-4.8-19.9-11.6c-2.3-6.2-5.9-3.3-6.3,1.8
		c0,6.9,3,12.4,11.3,19.4c-6.3,10.1-13.7,20.4-20,30.5l0,0l0,0c-6.3-10.1-13.7-20.4-20-30.5c8.3-7,11.3-12.5,11.3-19.4
		c-0.4-5.1-4-8-6.3-1.8c-3.3,6.8-10.3,18.2-19.9,11.6c-4.3-3-4.2-7.6,1.6-7c7.2-0.5,11.5-4.3,14.8-14.2c0.5-5.5-1.8-5.4-5-1.9
		c-4.2,4.7-12.4,11.7-21.6,8c-5-2.1-6.5-6.4,1.2-7.4c7.3,0.1,13.1-4.5,19-11.5c3.3-3.9-1.5-7.8-4.3-4.5c-2.6,2.1-6.2,6-9.2,6.6
		c-3.6,0.7-8,0.4-12.8-2.2c-5.2-4.3-3.6-7.4,2.8-8.1c5,0.3,7.6,2.1,14-2c3.2-2.1,8.6-5.2,12.6-10.5c2.1-2.7,4-4.8,5.7-8.3
		c1.6-3.4,3-5.3,3.7-11c0.4-4.1-0.7-6.8-2-8.2c-1.4-1.5-3.5-1.8-5.2-1.3c-3.4,0.9-6.5,4.5-9,7.3c-6.3,6.6-9.4,15.3-16.3,25.3
		c-0.9,1.1-2.3,0.9-3.8,0l-7.7-6.8c-6.2,2-11.4,3.1-16.7,4.3c0.1,0.5,0.1,1.1,0.1,1.6l0.1,3.5l-2.2,1.5c-0.6,0.4-1.1,0.8-1.5,1.1
		c0,0,0.1,0,0.1,0c4.6-2.5,8.2-0.5,9.8,3.8c4.4,3,4.5,6.3,2.5,9.6c-0.6-2.3,0.6-5.3-6.4-5.5c-3.1,0.7-5.6,0.5-7.5-0.5
		c0,0.4,0,0.8-0.1,1.2l-0.3,5.8l-3.7,4.4c-2.1,2.4-3.7,4.5-3.7,4.6c0,0.4,2.2,4.4,6.2,11.1c3.5,5.9,3.6,5.9,4.3,2l0.3-1.8l1.5,0.9
		c0.8,0.5,2.5,1.5,3.7,2.2l2.2,1.3l-0.1,4.1c-0.1,3.9-0.2,4-1.3,4.2c-0.8,0.1-2-0.6-4.1-2.2c-1.6-1.3-3-2.3-3.1-2.3
		c-0.5,0,7.2,9.6,9.3,11.7l2.2,2.1v7v7l-1.7,2c-1.4,1.8-1.9,2.1-3.5,2.1c-1.8,0-2.3-0.5-2.3-2.3c0-1.5-3.3-7.2-5.5-9.5
		c-1.2-1.3-3.1-2.9-4.2-3.7l-2-1.4l-1.9,1.5c-1.9,1.5-1.9,1.5-1,2.5c0.5,0.5,1.6,1.8,2.5,2.9c2.2,2.6,5.8,9.2,6.9,13
		c1.1,3.6,3.6,6.9,10.4,14.1c3.8,4,4.3,4.3,11.5,7.9c4.1,2.1,9.4,4.9,11.7,6.3c2.3,1.4,6,3.2,8.2,4.2c3.8,1.6,4,1.7,5.3,4.2
		c1.3,2.4,1.5,2.6,4.2,3.6c1.6,0.5,3.9,1.5,5.1,2.3c2.1,1.2,2.6,1.9,6,8.3c2.1,3.8,3.9,7.8,4.2,8.7c0.4,1.6,0.3,1.9-1,3.7l-1.5,2
		l1.5,0.6c0.8,0.3,3,1.6,4.9,2.9c2.2,1.5,3.9,2.3,4.9,2.3c3.2,0,3.6,5.9,0.7,8.7l-1.5,1.4l0.9,1.5c1,1.6,0.7,3.5-0.9,4.3
		c-0.5,0.3-1.2,1.2-1.5,2c-0.5,1.5-0.5,1.5,0.9,1.3l1.4-0.2l-0.3,2.1c-0.1,1.2-0.6,3.2-0.9,4.5c-0.3,1.3-0.5,2.4-0.4,2.5
		s1.4,0,2.9-0.3c3.6-0.6,6.6,0.1,11.2,2.9h15.7c0.7-0.7,1-0.8,2.9,0h2.1C351.3,479.8,351.3,479.5,351.3,479.1z"/>
	<path fill="#E41E20" d="M274.5,135.3c2.2,1.2-0.4,7.3-0.9,9.5c-0.5,6,1.2,9.8,3.2,12c1.8,2.2,7,3.6,9.8,2.9
		c5.8-1.6,8.9-6.6,7.9-15.4c-0.2-1-0.5-5.3-5.2-10.8c-3-3.7-6.7-6.9-10.9-9.2c-5.3-2.9-13.2-4.5-22.8-6.5c-5.8-1.2-8.8-3.4-9.1-5.7
		c2.8,0.6,7.3,3,10.3,2.4c3-0.5,4.5-2,5.8-2.8c-2.2-0.5-6.2,0-9.8,0c-3,0-5.6-0.5-7.7-0.8c0,0.4-0.1,0.7-0.1,1.1
		c-0.4,2.6-0.6,2.9-1.7,3c-1,0.1-1.2,0.4-1.4,1.8c-0.1,0.9,0,2.3,0.3,3.4c0,0,0,0,0,0C253.3,124.5,264.1,129.6,274.5,135.3z"/>
	<path d="M271.3,295.7c1.5,0.9,2.9,1.1,3.8,0c6.9-10,10-18.7,16.3-25.3c2.5-2.8,5.6-6.4,9-7.3c1.7-0.5,3.8-0.2,5.2,1.3
		c1.3,1.4,2.4,4.1,2,8.2c-0.7,5.7-2.1,7.6-3.7,11c-1.7,3.5-3.6,5.6-5.7,8.3c-4,5.3-9.4,8.4-12.6,10.5c-6.4,4.1-9,2.3-14,2
		c-6.4,0.7-8,3.8-2.8,8.1c4.8,2.6,9.2,2.9,12.8,2.2c3-0.6,6.6-4.5,9.2-6.6c2.8-3.3,7.6,0.6,4.3,4.5c-5.9,7-11.7,11.6-19,11.5
		c-7.7,1-6.2,5.3-1.2,7.4c9.2,3.7,17.4-3.3,21.6-8c3.2-3.5,5.5-3.6,5,1.9c-3.3,9.9-7.6,13.7-14.8,14.2c-5.8-0.6-5.9,4-1.6,7
		c9.6,6.6,16.6-4.8,19.9-11.6c2.3-6.2,5.9-3.3,6.3,1.8c0,6.9-3,12.4-11.3,19.4c6.3,10.1,13.7,20.4,20,30.5l0,0l-19.2-214L320,139
		c-2-1.8-8.8-9.8-10.5-11c-0.7-0.6-1-1-0.1-1.4c0.9-0.4,3-0.8,4.5-1c-4-4.1-7.6-5.4-15.3-7.6c1.9-0.8,3.7-0.4,9.3-0.6
		c-3.4-4.6-8.1-8.2-13.5-10.2c4.2-3,5-3.2,9.2-6.7c-6.6-0.5-13.2-1.8-19.5-3.8c-3.8-1.8-7.8-2.9-12-3.4H272c-4.6,0-12.3,1.5-12.2,5
		c-13-2.1-14.3,3.2-13.5,8c1.2-1.9,2.7-3,3.9-3.1c1.7-0.3,3.5,0.3,5.4,1.4c1.8,1.1,3.4,2.5,4.8,4.1c-4.6,1.1-8.2,0.4-11.8-0.2
		c-1.3-0.3-2.5-0.7-3.7-1.3c0.1,0.4,0.1,0.7,0.2,0.8c0.2,0.5,0.2,1.6,0.1,2.9c2,0.3,4.7,0.8,7.7,0.8c3.6,0,7.6-0.5,9.8,0
		c-1.3,0.8-2.8,2.3-5.8,2.8c-3,0.6-7.5-1.8-10.3-2.4c0.3,2.3,3.3,4.5,9.1,5.7c9.6,2,17.5,3.6,22.8,6.5c4.2,2.3,7.9,5.5,10.9,9.2
		c4.7,5.5,5,9.8,5.2,10.8c1,8.8-2.1,13.8-7.9,15.4c-2.8,0.7-8-0.7-9.8-2.9c-2-2.2-3.7-6-3.2-12c0.5-2.2,3.1-8.3,0.9-9.5
		c-10.4-5.7-21.2-10.8-32.3-15.1c0,0,0,0,0,0c0,0,0,0.1,0,0.1c0.3,1.6,0.2,2.1-0.7,3.4l-1.1,1.5l2,1.4l2.1,1.4l-0.3,2.9
		c-0.3,3.1-0.2,3.2,2.3,2.3c1.1-0.4,2.6-0.4,5.4,0c3.5,0.5,4.5,0.8,10.4,4.1c3.6,1.9,7,3.5,7.6,3.5c1,0,1,0.1,0.7,2.7
		c-0.2,1.7-0.7,3.4-1.5,4.5c-1.2,1.8-1.2,1.9-0.6,5.2c0.6,3.3,0.6,3.4-0.7,5.1c-1,1.5-1.2,2.4-1.2,4.6c0,2.3,0.3,3.3,1.7,5.8l1.7,3
		l-1.1,2.3c-1,2.2-1.3,2.3-4.8,3.7l-3.7,1.5l-4.2-1.4c-2.2-0.7-4.1-1.2-4.1-1c0,0.8,1.6,5,2,5.3c0.3,0.1,1.4,0.4,2.4,0.6
		c1.8,0.3,2,0.5,2.7,2.5c1,2.9,1,2.9-0.7,7.4c-1.4,3.7-1.6,4-4,5.4c-2.3,1.4-2.5,1.6-2.5,3.4c0,1.6-0.3,2.2-1.9,3.7l-1.9,1.8v4.5
		c0,3.5,0.2,5.1,0.9,6.7l0.9,2.2h2.8c2.6,0,2.8,0.1,4.6,2c1.6,1.6,2.1,2.6,2.5,4.9l0.6,2.9l-2.7,5.3c-1.6,3.1-2.9,6.2-3,7.4
		c-0.2,1.9-0.4,2.1-2,2.7c-0.4,0.8-0.8,1.5-1.4,2.3c0.2,0.2,0.3,0.4,0.5,0.6l1.3,1.5l-0.5,6.6c-0.1,1.1-0.2,2.3-0.3,3.4
		c1-0.9,2-1.8,2.9-2.8c5.4-6.2,5.8-10.3,8.8-19.9c2.8-4.6,7.9-2.4,7.9,2.4c-2.5,9.6-4.5,11.3-9.5,15.2c-4.7,4.5,3.3,6,6,4.1
		c7.8-5.2,10.6-12,13.2-18.2c2-4.4,7.4-2.3,4.8,5c-5.8,16.9-15.4,23.8-31.7,27.5c-0.1,0.6-0.3,1.4-0.5,2.6c-0.4,1.5-0.7,3-0.8,3.6
		l0.2,0.2c0.4-0.3,1.3-1.1,2.3-2.2c1.4-1.5,2.8-2.6,3-2.6c0.4,0,2,6.7,2,8.3c0,0.6-9.3,5.5-9.7,5.1c-0.1-0.1,0-1,0.3-1.9
		c0.1-0.2,0.1-0.4,0.2-0.6c-2.1,0.6-4.2,1.1-6.3,1.7c0.7,1.7,1.2,4,1.4,6.2c5.3-1.2,10.5-2.3,16.7-4.3L271.3,295.7z M272.8,107.5
		c-3.8,0-6.2-1.5-6.2-3c0-1.6,2.4-2.8,6.2-2.8s6.1,1.3,6.1,2.9C278.9,106.2,276.6,107.5,272.8,107.5z"/>
	<path d="M249.6,308.9c7,0.2,5.8,3.2,6.4,5.5c2-3.3,1.9-6.6-2.5-9.6c-1.6-4.3-5.2-6.3-9.8-3.8c0,0-0.1,0-0.1,0c-1,1-1.2,2.4-1.5,7.4
		C244,309.4,246.5,309.6,249.6,308.9z"/>
	<path d="M380.2,98.3c0.1-3.5-7.6-5-12.2-5h-0.1c-4.2,0.5-8.2,1.6-12,3.4c-6.3,2-12.9,3.3-19.5,3.8c4.2,3.5,5,3.7,9.2,6.7
		c-5.4,2-10.1,5.6-13.5,10.2c5.6,0.2,7.4-0.2,9.3,0.6c-7.7,2.2-11.3,3.5-15.3,7.6c1.5,0.2,3.6,0.6,4.5,1c0.9,0.4,0.6,0.8-0.1,1.4
		c-1.7,1.2-8.5,9.2-10.5,11l-19.2,33.7l19.2,214l0,0c6.3-10.1,13.7-20.4,20-30.5c-8.3-7-11.3-12.5-11.3-19.4c0.4-5.1,4-8,6.3-1.8
		c3.3,6.8,10.3,18.2,19.9,11.6c4.3-3,4.2-7.6-1.6-7c-7.2-0.5-11.5-4.3-14.8-14.2c-0.5-5.5,1.8-5.4,5-1.9c4.2,4.7,12.4,11.7,21.6,8
		c5-2.1,6.5-6.4-1.2-7.4c-7.3,0.1-13.1-4.5-19-11.5c-3.3-3.9,1.5-7.8,4.3-4.5c2.6,2.1,6.2,6,9.2,6.6c3.6,0.7,8,0.4,12.8-2.2
		c5.2-4.3,3.6-7.4-2.8-8.1c-5,0.3-7.6,2.1-14-2c-3.2-2.1-8.6-5.2-12.6-10.5c-2.1-2.7-4-4.8-5.7-8.3c-1.6-3.4-3-5.3-3.7-11
		c-0.4-4.1,0.7-6.8,2-8.2c1.4-1.5,3.5-1.8,5.2-1.3c3.4,0.9,6.5,4.5,9,7.3c6.3,6.6,9.4,15.3,16.3,25.3c0.9,1.1,2.3,0.9,3.8,0l7.7-6.8
		c11,3.5,18.8,4.3,29.8,7.8c-4.4,1.3-5.5,3.1-9.9,4.3c-4.6-2.5-8.2-0.5-9.8,3.8c-4.4,3-4.5,6.3-2.5,9.6c0.6-2.3-0.6-5.3,6.4-5.5
		c6,1.3,9.7-0.6,11.3-5.6c4.6-1.5,6.8-2.4,11.4-3.8c3.9,3.2,9.7,3.9,13.7,7.1c0.5,4.8,3.5,8.1,11.5,6.1c2.6,1.5,4.1,4,4.9,7
		c0.2-1.3,0.2-2.5,0.1-3.8l-2.9-2.8c-3.8-3.7-4.4-4.4-4.6-6.1c-0.1-1.1,0-2.3,0.4-3c0.2-0.3,0.3-0.8,0.4-1.6
		c-2.5-1.3-5.8-1.5-10.1-0.2c-2.3-1.8-5.3-2.8-7.5-4.8l17.5-1.1c0.1,0.1,0.2,0.2,0.3,0.2c0-0.8,0-1.6,0-2.5v-2.1
		c-0.4,0.4-0.8,0.8-1.3,1.3l-16.7,0.5c3.4-2.8,5.1-5,8.4-7.7c3.5,1.1,7,1.2,9.6-0.8V285l-1.8-2.1l-1.9-2.1l-3.5,0.3
		c-1.2,0.1-2,0.2-2.6,0.1c-0.1,0.2-0.1,0.3-0.2,0.5l-14.8,9.8c-10.8-3-19.5-4.8-30.2-8l7-7c0.6-2-0.5-3-2.2-3.3
		c-17.3-3.6-27.3-10.4-33.3-27.8c-2.6-7.3,2.8-9.4,4.8-5c2.6,6.2,5.4,13,13.2,18.2c2.7,1.9,10.7,0.4,6-4.1c-5-3.9-7-5.6-9.5-15.2
		c0-4.8,5.1-7,7.9-2.4c3,9.6,3.4,13.7,8.8,19.9c4.2,4.6,9.6,7.8,12.3,7.8c1.5-0.1,2.9-0.6,4.1-1.4l-2.6-8.3
		c-0.1-0.1-0.3-0.1-0.4-0.2h-3.2h-3.5l-1.3-2.2c-1.3-2.1-1.3-2.2-0.7-3.9c-1.9-2.2-2.9-4.4-3.6-6.6c-0.1-0.8-0.3-1.5-0.3-2.2l-3-4.5
		l-2.2-10.5c-1.2-5.8-2.2-10.7-2.2-10.9c0-0.2,0.7-0.3,1.6-0.3c1.5,0,1.5,0,3.7-5.2l2.1-5.1l-3.4-2.5c-3.5-2.6-4-3.4-4-7.3
		c0-1-0.4-1.6-1.9-2.5c-1.3-0.8-2.2-1.9-2.8-3.3l-0.9-2.1l1.3-2.4c1.2-2.2,1.7-2.6,6.4-4.9c2.8-1.4,5-2.8,5-3.2s-1.1-3-2.4-5.9
		l-2.3-5.3l0.7-2.7c0.7-2.6,0.7-2.9-0.2-5.5l-0.9-2.8l1-3.1c0.7-2.2,1.6-3.8,2.9-5.1l1.8-1.9v-5.6c0-5.4,0.1-5.7,1.4-8
		c1-1.7,1.4-2.9,1.4-4.6c0-0.2,0-0.3,0-0.5c-7.8,3.4-15.4,7.1-22.8,11.2c-2.2,1.2,0.4,7.3,0.9,9.5c0.5,6-1.2,9.8-3.2,12
		c-1.8,2.2-7,3.6-9.8,2.9c-5.8-1.6-8.9-6.6-7.9-15.4c0.2-1,0.5-5.3,5.2-10.8c3-3.7,6.7-6.9,10.9-9.2c5.3-2.9,13.2-4.5,22.8-6.5
		c3.5-0.7,5.9-1.8,7.4-3c-0.1-0.7-0.3-1.4-0.4-2c-2.6,0.9-5.9,2.2-8.2,1.8c-3-0.5-4.5-2-5.8-2.8c2.2-0.5,6.2,0,9.8,0
		c1.4,0,2.7-0.1,3.9-0.2c-0.2-1-0.4-1.9-0.7-2.8c-3.3,0.6-6.7,1-10.9,0c1.4-1.6,3-3,4.8-4.1c1.5-0.9,3-1.4,4.4-1.5
		c-0.5-1.5-1.1-2.8-1.6-3.8c-0.4-0.6-0.6-1.1-0.9-1.5C384.7,97.8,382.6,97.9,380.2,98.3z M367.2,107.5c-3.8,0-6.1-1.3-6.1-2.9
		c0-1.6,2.3-2.9,6.1-2.9c3.8,0,6.2,1.2,6.2,2.8C373.4,106,371,107.5,367.2,107.5z"/>
</g>
</svg>
