<?xml version="1.0" encoding="utf-8"?>
<!-- Generator: Adobe Illustrator 17.1.0, SVG Export Plug-In . SVG Version: 6.00 Build 0)  -->
<!DOCTYPE svg PUBLIC "-//W3C//DTD SVG 1.1//EN" "http://www.w3.org/Graphics/SVG/1.1/DTD/svg11.dtd">
<svg version="1.1" id="flag-icon-css-am" xmlns="http://www.w3.org/2000/svg" xmlns:xlink="http://www.w3.org/1999/xlink" x="0px"
	 y="0px" viewBox="0 0 640 480" enable-background="new 0 0 640 480" xml:space="preserve">
<g>
	<path fill="#FF0000" d="M392.4,145c1,0.5,1.3,0.4,3.5-1.4c1.4-1.1,2.8-2.2,3.1-2.4c0.4-0.3,0.6-1.4,0.6-3c0-2.1-0.2-2.8-1.2-4.1
		c-1.2-1.6-3.3-2.8-4.8-2.8c-0.4,0-1.5,0.5-2.2,1.1c-1.4,1.1-1.5,1.3-1.5,3.8c0,2.3,0.1,2.8,0.9,3.3c0.8,0.5,0.9,0.9,0.7,2.7
		C391.4,144.2,391.5,144.5,392.4,145z"/>
	<path fill="#FF0000" d="M404.4,90.3c-0.8,0.1-1.2-0.1-1.2-0.5c0-0.4-0.6-0.7-1.5-0.9c-0.8-0.1-2.2-0.3-3.1-0.5
		c-1.2-0.2-1.7-0.5-2.3-1.8c-0.6-1.3-1-1.5-2.2-1.5c-1.3,0-1.5-0.1-1.5-1.3c0-0.9-0.4-1.7-1.5-2.6c-1.1-0.9-1.6-1.9-1.8-3
		c-0.5-3-2.3-4.1-3.9-2.3c-1.1,1.2-1.3,1.1-2.4-0.7l-1-1.5l1.4-2.5l1.4-2.4l-2.5-1.1c-3-1.4-3.3-1.4-3.3,0c0,1.1-0.7,1.6-2.2,1.6
		c-0.4,0-1.3,0.4-1.9,0.9c-1,0.7-1.5,0.8-4,0.6l-2.9-0.3l-1.6-2.7c-0.9-1.5-1.6-2.7-1.7-2.8c0,0-1.2,0.3-2.6,0.8
		c-1.6,0.6-2.5,1.2-2.5,1.7c0,1.6-0.7,1.9-2.9,1.4c-1.7-0.4-2.3-0.8-3-1.9c-0.4-0.8-1.5-2.2-2.3-3.1c-1.4-1.5-1.8-1.6-3.6-1.6h-2.1
		l-0.3-2.6c-0.1-1.4-0.4-3.3-0.5-4.2l-0.3-1.7L342,54c-2.2,0.1-2.7,0.3-2.9,0.9c-0.1,0.4,0.2,1.2,0.6,1.6c0.8,0.9,0.7,2.3-0.3,3.6
		c-0.4,0.6-1.5,0.9-4,1.1l-3.4,0.3l0.3-4c0.4-5,1-5.9,4.5-7c2.1-0.6,3.1-0.7,5.2-0.4c2.4,0.4,2.9,0.3,6.3-1l3.6-1.3v-4v-4l-1.4,0.3
		c-1,0.2-1.7,0-2.6-0.6c-0.7-0.5-1.8-0.9-2.5-1c-1.1-0.1-1.3-0.4-1.5-1.6c-0.2-1.5-0.3-1.7-3.3-3.8l-1.6-1.1l-2.7,2l-2.7,2l-4.5-0.2
		c-2.5-0.1-4.5-0.3-4.5-0.3c0,0-0.2-0.7-0.3-1.4c-0.3-1.3-0.1-1.5,2.3-3.2c2.1-1.5,2.6-2.1,2.9-3.4c0.3-1.5,0.1-1.8-2-3.9
		c-2.2-2.2-2.2-2.4-2.1-4.4l0.1-2.2l-1.8-0.1c-1.6-0.1-2.2,0.1-4.9,2.2c-1.9,1.4-3.3,2.8-3.5,3.6c-0.4,1-0.7,1.2-1.5,1
		c-3.9-0.9-5.4-1-6-0.4c-0.5,0.5-0.9,0.4-2.2-0.8c-1.1-1.1-2.3-1.6-4.2-2c-2.4-0.4-2.7-0.7-3.6-2.2c-0.5-1-1.1-1.8-1.1-1.8
		s-0.7,0.6-1.3,1.4c-1,1.3-1,1.5-0.5,2.6c0.5,1,0.5,1.3-0.2,2.2c-0.8,1-0.7,1.1,1,3.5c2.3,3.2,2.3,3.2,6.9,4.8c3.8,1.4,4,1.5,4,2.8
		c0,1-0.2,1.3-0.7,1.1c-2.4-1-10.9-3.3-12.6-3.6c-1.8-0.3-5.7,0.6-9.9,2.2c-0.4,0.1-0.6-0.3-0.7-1.1c-0.1-1.2-0.2-1.2-2.8-1.1
		c-2.5,0.1-2.7,0.1-3.3-1c-0.6-1-0.8-1.1-3.7-1c-1.7,0-3.5-0.1-4-0.3c-0.8-0.3-0.9-0.1-1.4,3.1c-0.3,1.9-0.8,3.6-1.1,3.8
		c-0.8,0.5-1.6,0.4-1.6-0.2c0-0.3-0.3-0.9-0.6-1.4c-0.5-0.7-0.7-0.7-2.5,0.8c-2.6,2.1-3.5,1.6-3.5-1.8c0-1.4-0.2-2.4-0.4-2.3
		c-0.2,0-1.5,1.5-2.8,3.2l-2.4,3.1l-3.1,0.1c-2.1,0.1-4.1-0.2-6.2-0.7c-2.9-0.8-3.5-1.2-7.1-4.7c-3.1-2.9-4.2-3.7-5.2-3.7
		c-1.3,0-1.8,0.8-1.8,3.2c0,1.7-0.6,1.8-2.9,0.8c-1.8-0.8-2.6-0.9-5.5-0.7l-3.4,0.3v-1.5c0-1.1-0.3-1.8-1.1-2.4
		c-1.1-0.8-1.2-0.8-2.7-0.3c-2.1,0.9-2.9,0.8-3.9-0.2c-0.7-0.8-0.8-0.8-1.6-0.2c-0.6,0.6-0.8,1.4-0.8,3.2c0,2.2-0.2,2.7-1.6,4.5
		c-1.3,1.6-1.9,2-2.6,1.8c-0.5-0.1-2.8-0.3-5.1-0.3c-5.6-0.1-14.2,2-17.7,4.4c-2.2,1.4-2.6,1.5-3.9,1.1c-0.8-0.3-4.6-0.5-8.4-0.7
		l-6.9-0.2l-5.2,3.3c-2.9,1.8-6.2,4.3-7.4,5.5l-2.2,2.1l-5-2.6l-4.9-2.6l-1.9,0.9c-1,0.5-2.7,1-3.8,1.2c-1.9,0.4-2.1,0.3-4.8-1.8
		c-2.7-2.1-2.9-2.2-5.8-2.2c-2.5,0-3.5,0.2-5.7,1.3c-1.8,0.9-3.1,1.3-4.2,1.2c-1.5-0.1-1.7,0-3.8,3c-2.2,3.1-2.2,3.2-1.6,4.8
		c0.3,1,1.1,2.3,1.8,3l1.2,1.3l-0.6,2.9c-0.4,1.6-0.5,3-0.3,3.1c0.2,0.1,1.2,0.6,2.3,1.1c1.1,0.4,3.9,1.9,6.2,3.2
		c3.3,1.8,4.6,2.3,6.2,2.3c1.9,0,2.2,0.2,8.5,5.5c3.6,3.1,6.6,5.6,6.6,5.6c0.1,0-0.1,0.8-0.3,1.6c-0.4,1.3-0.3,1.6,0.5,2.5l0.9,1
		l-1.1,2.6c-0.9,2.2-1.1,2.9-0.7,4.1c0.2,0.8,0.4,2.3,0.4,3.4c0,1.8,0.2,2.2,2.4,4.4c2.1,2.1,2.8,3.3,5.4,9.1l2.9,6.7l-1.2,3l-1.2,3
		l1.1,0.9c1,0.8,1.1,1.1,0.9,2.6c-0.1,1-1,3.3-1.9,5.1c-0.9,1.8-2.8,5.8-4.1,8.9c-2.9,6.8-5.5,10.2-7.3,9.8
		c-1.1-0.3-1.2-0.1-1.5,1.4c-0.1,0.9-0.3,2.3-0.3,3.1c0,1.7-0.7,2.3-1.3,0.9c-0.4-0.9-0.4-0.8-1.6,1.3c-0.2,0.4-0.4,0.8-0.6,1.1
		h255.9l-0.1-0.1l0.6-2.3c0.3-1.3,0.4-3,0.3-3.9c-0.2-1.2,0-2,0.9-3.6l1.2-2.1l-2.6-2.6c-2.5-2.5-2.7-2.6-4.4-2.4
		c-2.5,0.3-4.1-1.3-4.1-3.9c0-1.1-0.4-2.3-1.3-3.6c-1.9-2.9-1.6-4.4,2.2-8.2c2.8-2.8,3.2-3.4,3.6-5.7c0.5-2.4,0.6-2.6,2.5-3.3
		c1.1-0.4,6.3-4,11.7-7.9l9.7-7.1l1.6-4.4l1.6-4.4l-0.7-2.1C405.7,90.4,405.5,90.2,404.4,90.3z"/>
	<path fill="#0000FF" d="M124.7,162c-2.2,0.6-2.8,1.1-4,2.7c-0.9,1.2-1.5,2.6-1.6,3.7l-0.2,1.8l2,0.4c2.6,0.6,4.8,2.6,6.3,5.5
		c1.2,2.3,1.5,5.9,0.7,6.5c-0.8,0.5-2,3.9-2.3,6.7c-0.3,2.7-0.3,2.9,2.3,7.9c1.4,2.8,2.5,5.4,2.4,5.7c-0.1,0.3,0.1,1.1,0.5,1.6
		c0.6,0.9,1.1,1.1,2.6,1.1c1.3,0,2.3,0.3,3.1,0.9c1.1,0.8,1.1,1.1,1.1,4.1v3.2l-1.6-0.4c-1.9-0.5-2.1-0.4-1.7,1.3
		c0.2,1,0.9,1.8,2.6,2.9c2.3,1.5,4.6,4.8,4.6,6.6c0,0.8-1.3,1.4-4,1.8c-3.1,0.4-4.5,2.1-4.7,5.6l-0.2,2.8l3,1.2
		c1.7,0.7,4.4,2.1,6.1,3c2.8,1.6,3.2,1.8,5.2,1.5c2-0.3,2.6-0.1,6.2,1.8c2.2,1.1,5.2,2.9,6.7,3.9c1.5,1,4,2.6,5.5,3.5l2.9,1.6h6.2
		h6.3l3.1-1.8l3.1-1.8l3.9,0.6c2.2,0.3,5.2,0.9,6.9,1.2c1.6,0.4,3.8,0.7,4.8,0.7c1.1,0,2.2,0.4,2.8,0.9c1,0.9,1,0.9,3-1.1l2.1-2
		l5.5-0.2c5-0.3,5.6-0.2,6.8,0.6c0.8,0.5,2.1,0.9,3.3,0.9c1.8,0,2.3,0.3,5.3,2.9l3.3,2.9l3.5,0h3.5l3.7,2.8c3,2.2,4.2,3.5,6.4,6.6
		c2.3,3.3,2.9,4,4.6,4.6c2.4,0.9,4.2,3.3,4.7,6.2c0.2,1.3,0.7,2.5,1.8,3.6c1.8,2,2.1,2.7,2.8,5.5c0.4,1.8,0.7,2.3,1.3,2.1
		c0.4-0.1,1.1-0.3,1.7-0.5c0.8-0.2,1-0.1,1.2,1c0.4,1.8,7.7,6.9,9.2,6.5c0.9-0.2,1.1-0.1,1.1,0.8c0,0.6,0.1,1.7,0.3,2.5
		c0.3,1.2,0.4,1.4,1.8,1.4c1.4,0,1.5,0.1,1.5,1.3c0,1.1,0.3,1.5,1.5,2.2c1.1,0.7,1.6,1.3,1.8,2.5c0.5,2.9,0.6,3.2,1.6,3
		c0.5-0.1,4.4-0.8,8.7-1.6c4.2-0.7,8.6-1.6,9.7-1.8c1.9-0.4,2-0.4,3.3,1.1l1.3,1.5l3.6-0.4l3.6-0.4l3.2-2.8c1.8-1.5,4.6-3.9,6.3-5.3
		l3.2-2.5l3.2,0.3c3.1,0.3,3.2,0.3,4.5,2.3c0.7,1.1,3.4,4.7,5.9,8.1l4.5,6.1l-0.5,4c-0.3,2-0.4,3.2-0.3,4.7h138
		c-0.7-0.9-1.8-1.7-3.7-3.2c-4.4-3.4-4.4-3.5-6.4-3.2c-1.9,0.2-2,0.2-3-1.3c-0.8-1.3-0.9-1.7-0.5-2.5c0.3-0.5,0.3-1.1,0.1-1.2
		c-0.2-0.2-1.2-1-2.2-1.8c-2-1.5-5.3-6-7.3-9.9l-1.1-2.2l-8.1-3.3c-4.4-1.8-9.5-3.7-11.2-4.1c-3.5-0.8-3.3-0.4-3.8-6.1
		c-0.2-1.8-0.8-3.6-1.8-5.6c-1.4-2.8-1.5-3.1-0.8-3.8c0.4-0.5,0.7-1.6,0.7-3v-2.3l-3.4-2.2c-3.4-2.2-3.5-2.2-7-2.2
		c-2.8,0-4.7-0.4-8.7-1.5c-2.8-0.8-5.8-1.5-6.8-1.5c-1.4,0-2-0.3-3.3-1.7l-1.6-1.7l1-2.2l0.9-2.2l4.9-0.9c9.6-1.8,21.5-1.4,23,0.7
		c0.3,0.5,1.5,1.8,2.6,2.9l2.1,2.1l0.9-1.8c0.8-1.6,1.2-1.9,4-3l3.1-1.1l0.1-2.9c0.1-2.5,0.4-3.1,1.7-4.8c1.8-2.3,1.8-2.5,0.6-4.2
		c-0.5-0.7-0.9-1.5-0.9-1.8c0-0.6,3.5-2.5,6.5-3.5c1.2-0.4,2.3-0.7,2.3-0.8c0,0-0.3-1.1-0.6-2.4c-0.6-2.2-0.6-2.3,0.6-3.4
		c1.1-1,1.3-1.7,1.7-5.5c0.7-6.8,0.9-6.5-2.6-9.1c-3.8-2.9-4.7-5.1-1.4-3.4c1.2,0.6,1.3,0.6,1.5-0.7c0.6-2.9,0.4-3.4-1.5-4.1
		c-1.2-0.5-1.9-1.1-2.3-2.1c-0.3-0.8-0.6-1.5-0.7-1.5s-0.6,0.1-1.1,0.5c-0.5,0.4-1.7,0.8-2.6,1c-1.4,0.3-1.8,0.1-4-1.7
		c-1.4-1.1-2.9-2-3.3-2c-1.1,0-8.1-2.9-17.2-7.2c-6.9-3.2-7.3-3.3-10.4-3.3h-3.3l-5.2-5.5c-4.4-4.7-5.4-6-6.8-9.1
		c-2.2-5-2.2-5-4.6-5.3c-1.1-0.1-3.6-0.8-5.3-1.4c-2.6-1-3.5-1.5-5-3.3l-1.7-2H127.9C127.2,161.2,126.6,161.5,124.7,162z"/>
	<path fill="#FFA500" d="M349.3,324.7c0.4,2.9,0.9,5.4,1.1,5.4c0.1,0,1,0.2,1.9,0.4l1.6,0.4l2.1-3c1.2-1.8,2.4-3,2.8-3
		c0.4,0,2.1,0.5,3.8,1.2l3.1,1.2l1.8,3.5c1,1.9,2.2,3.7,2.6,4c1.3,0.9,11.5,4.5,12.7,4.5c0.7,0,1.5,0.7,3.1,2.9l2.1,2.9l2.5-0.3
		c1.4-0.1,2.8-0.4,3.1-0.5c0.4-0.1,1.9-1.8,3.5-3.9l2.9-3.7l4.6-1.5c2.6-0.8,6.1-2,7.9-2.5c2.9-0.9,3.6-1.3,5.9-3.8l2.7-2.8l2.3,1.6
		c1.8,1.1,3.2,1.7,5.9,2.2c1.9,0.4,3.6,0.7,3.6,0.7c0,0.1,1.3,1.7,2.7,3.6l2.6,3.6l0.2,4.4c0.1,3.3,0.4,5,1.2,6.8l1,2.4l-2.2,4
		c-1.2,2.2-2.8,5.4-3.4,7.1l-1.1,3.1l1.4,2.2c0.7,1.2,1.7,2.3,2.1,2.4c0.4,0.1,2.3,0.5,4.3,1c3.2,0.7,4.4,1.3,12.9,6.5l9.4,5.8
		l-0.3,1.5c-0.2,0.8-0.4,5.4-0.5,10l-0.3,8.5l1.3,0.7l1.3,0.7l-1,1.9l-0.9,1.9l1.7,1.3l1.6,1.3v4c0,2.2,0.2,4.3,0.4,4.7
		c0.2,0.4,1.8,1.5,3.5,2.2c3,1.5,3.1,1.5,3.6,3.6c0.2,1.2,0.4,2.4,0.4,2.7c0,0.3,0.7,1.5,1.5,2.7c1.3,1.8,1.5,2.5,1.5,4.6
		c0,1.8,0.7,4.7,3.1,11.8l3.2,9.5l-0.8,4.1c-0.4,2.2-0.7,4.4-0.5,4.7c0.2,0.5,1,0.7,3.4,0.7c4,0,5.8-0.5,7.6-2.2
		c0.7-0.7,1.8-1.4,2.5-1.6c0.6-0.2,2.7-1.5,4.6-2.9c2.9-2.2,3.8-2.6,5.3-2.6c1.3,0,2.5-0.4,4.6-1.8l2.8-1.8l5.1,2.6
		c4.7,2.3,5.1,2.5,6.5,2c1.2-0.5,1.6-0.4,2.6,0.2c1,0.7,1.8,0.7,5.3,0.5l4-0.3l0.3,1.1c0.1,0.6,0.4,1.1,0.7,1.1
		c0.8,0,1.9-1.9,2.1-3.7c0.2-1.8,0-2.4-1.6-5.1c-1-1.8-2.1-4.1-2.4-5.3c-0.5-2-0.5-2.2,0.5-3.1c1.1-1.1,1.3-2.2,0.6-3.5
		c-0.4-0.7,0-2.1,1.5-6.6c1.1-3.2,2-5.8,2-5.9c0-0.1-0.6-0.3-1.3-0.4c-0.8-0.2-1.6-0.7-1.9-1.5c-0.6-1.1-0.5-1.3,0.3-2.4l0.9-1.3
		l-1.8-1.8c-1.4-1.5-1.8-2.2-1.8-3.4c0-1.1-0.4-1.9-1.3-2.8c-1.1-1.1-1.3-1.5-1.1-2.7c0.3-1.4,0.2-1.5-1-1.2c-0.9,0.2-1.5,0-1.8-0.4
		c-0.4-0.4-1.3-0.7-2.3-0.7c-1.9,0-1.9,0-2.4-4.7c-0.2-2.2-0.1-2.8,0.4-3c1.3-0.5,2.2-0.3,4.2,1l2,1.3l2.2-2.4
		c1.2-1.3,2.7-2.5,3.3-2.6l1.1-0.3l0.4,4.1l0.4,4.1l3.7-4.1c2.1-2.3,4-4.3,4.4-4.5s1.7-0.8,2.9-1.4l2.2-1.1l-2-0.1
		c-3.3-0.2-3.8-0.4-5-2.5c-1-1.6-1.4-2-2.9-2.2c-1.7-0.3-1.8-0.4-3.6-3.8l-1.8-3.5l1.2-1.5l1.1-1.5l-2.7-3.1
		c-1.5-1.7-2.8-3.1-2.9-3.1c-0.1,0-0.9,0.5-1.8,1.1c-1.8,1.2-1.3,1.5-6.6-2.8l-3.6-2.9l-2.1-5.2c-2-5.1-2-5.2-1.3-6.6
		c0.4-0.8,0.9-2.2,1.1-3.3c0.4-1.6,0.6-1.8,1.5-1.7c0.5,0.1,2.6,0.4,4.5,0.5l3.6,0.3l1-2.4c0.8-2,1.2-2.5,2.3-2.6
		c0.9-0.1,1.4,0,1.7,0.5c0.4,0.7,5.6,2.5,6,2c0.1-0.1-1.1-1.6-2.7-3.4c-2.2-2.6-2.9-3.6-2.9-4.6c0-1.1,0.3-1.5,1.4-2
		c0.8-0.3,2.2-1.2,3-2c1-0.9,2.2-1.5,3.4-1.7c1-0.2,1.8-0.4,1.8-0.4c0,0-0.3-0.8-0.7-1.7c-0.5-1.3-1.4-1.9-4.8-3.8
		c-3.4-1.8-4.6-2.2-6.3-2.2c-1.6,0-2.4,0.2-2.9,0.9c-0.5,0.6-1.1,0.7-2,0.6c-0.7-0.2-1.6,0-2.1,0.2c-0.7,0.4-0.9,0.3-1.1-1.2
		c-0.1-0.9-0.3-2.4-0.3-3.3c0-1.1-0.4-2-1-2.8l-1.1-1.2l-1.4,1c-1.2,0.9-1.5,1-2.5,0.5c-0.6-0.3-1.6-1.3-2.3-2.3
		c-1.2-1.7-1.3-1.8-3-1.5c-1,0.2-5.3,2-9.5,4.2c-6.5,3.3-8.2,3.9-9.9,3.9c-1.2,0-2.6,0.3-3.2,0.7c-0.6,0.4-1.2,0.6-1.4,0.7
		c-0.2,0-0.4-1.5-0.6-3.2c-0.4-4.1-0.5-5.5-1.5-6.9h-138C348.9,321.2,349,322.6,349.3,324.7z"/>
</g>
</svg>
