<?xml version="1.0" encoding="utf-8"?>
<!-- Generator: Adobe Illustrator 17.1.0, SVG Export Plug-In . SVG Version: 6.00 Build 0)  -->
<!DOCTYPE svg PUBLIC "-//W3C//DTD SVG 1.1//EN" "http://www.w3.org/Graphics/SVG/1.1/DTD/svg11.dtd">
<svg version="1.1" id="flag-icon-css-ao" xmlns="http://www.w3.org/2000/svg" xmlns:xlink="http://www.w3.org/1999/xlink" x="0px"
	 y="0px" viewBox="0 0 640 480" enable-background="new 0 0 640 480" xml:space="preserve">
<g>
	<path fill="#FF0000" d="M352.9,144.8c6,3.1,11.5,6.7,16.6,10.7l9.3-9.2l16.9,17l-9.2,9.2c4,5.1,7.5,10.6,10.5,16.2l13.1-5l8.7,22.3
		l-12.9,5c1.8,6.6,3.1,13.4,3.7,20.2h13.9v5.1h58.5c-0.2-1.2-0.4-2.5-0.7-3.5c-0.5-1.9-0.9-3.5-0.8-3.6c0,0,1-0.6,2-1.1l1.9-1
		l-0.2-4.4c-0.1-2.6,0-5.4,0.3-7c0.6-2.6,0.6-2.7-2-10.5l-2.6-7.9l-4.3-3.9l-4.3-4l-2.2-5.7l-2.2-5.7l1.7-3.3
		c1.6-3.1,1.6-3.4,1.2-5.3c-0.5-1.8-0.3-3.1,1.5-11.7l2.1-9.7l-1.5-7.6c-1.4-7.2-1.6-7.6-3.2-9.3l-1.7-1.7l0.3-4
		c0.2-3.4,0.5-4.4,2.2-7.6l2-3.8l-0.9-4.4l-0.9-4.4l-21.7,0.1l-21.7,0.1l-0.3-3.6c-0.3-3.2-0.2-3.9,0.8-6.1c2.2-4.9,2.4-4.6-3-4.3
		c-4.3,0.2-4.8,0.3-5.6,1.3l-0.9,1.1h-13.1c-7.2,0-13.1,0.1-13.1,0.2c0,0.1,0.4,0.9,0.9,1.7l0.9,1.5l-1.4,1.9l-1.3,1.9l0.4,4.8
		l0.4,4.8l-1.3,1.9c-0.9,1.3-1.8,2-2.8,2.2c-2.3,0.5-2.3,0.6-0.7,3l1.5,2.3l-1.7,3.1c-1.3,2.4-1.6,3.5-1.4,4.7l0.3,1.6l-9.9-0.3
		c-10.5-0.3-10.1-0.2-11.7-2.8c-0.7-1.2-7-0.5-8.3,1c-0.9,1-1.4,1.1-5.1,1.1c-0.2,0-0.4,0-0.6,0l8.9,3.3L352.9,144.8z"/>
	<path fill="#FF0000" d="M155.6,20.8c2.3-3.5,2-3.4,8.3-4.5l1.8-0.3l-1.6-1.9c-0.8-1-2.5-3.2-3.6-4.9c-1.8-2.6-2.5-3.1-4.6-3.9
		c-1.3-0.5-2.6-1-2.8-1.1c-0.2-0.1-1.2,1.5-2.2,3.5c-1.8,3.6-1.9,3.7-4.4,4.7c-1.4,0.5-3,1.1-3.7,1.2c-0.9,0.2-1.4,0.9-2.2,3
		c-1,2.6-1.1,2.7-2.4,2.5c-0.7-0.1-1.7-0.4-2.1-0.6c-0.6-0.2-0.8,0.2-1.1,2.4c-0.3,2.5-0.5,2.9-3.4,5.8c-2.5,2.6-3,3.2-2.6,3.9
		c0.3,0.4,1.8,3.3,3.5,6.4l3.1,5.5l-1.1,2.8c-1.1,2.7-1.1,2.8-0.4,5.9l0.7,3.1l2.3-0.3c1.2-0.2,3.7-0.4,5.4-0.6
		c1.7-0.1,3.1-0.4,3.1-0.6c0-0.1,0.2-4.8,0.5-10.4l0.4-10.1l-1.2-0.9l-1.2-1l2.6-0.8C149.7,28.8,151.9,26.7,155.6,20.8z"/>
	<path fill="#FF0000" d="M309,148.1L309,148.1l1.3-15.6c7.1,0.7,13.9,2,20.3,3.7l1.5-4h-1.2h-9l-4.3-7.3c-2.4-4.1-6.2-9.6-8.8-12.8
		c-2.4-3-5.4-7-6.6-8.8l-2.2-3.2v-4.5v-4.5l-4.6-8.8l-4.6-8.7l1-3.7l0.9-3.7l-2.2-1.8c-2.1-1.8-2.1-1.8-2.1-4.7v-2.9l-3.1-0.3
		c-3.7-0.4-25.2-0.4-25.6-0.1c-0.1,0.1-18.7,0.3-41.4,0.4c-30,0.1-41.7,0.3-43.3,0.7c-1.6,0.5-3.1,0.5-6.8,0l-4.7-0.6l-4.5,2.4
		c-5.9,3.2-13.5,5.5-17.7,5.5c-1.8,0-3.2,0.1-3.2,0.2s0.9,1.9,2.1,3.9s2.6,5.2,3.2,7c1.6,4.6,6,11.3,10.8,16.2l3.9,4l1.3,5.7
		c1.2,5.3,1.8,6.7,10.7,25l9.4,19.3l-2.5,5.8c-2.4,5.7-2.5,5.8-6.8,9.9L166,166v3.2v3.3l2.3,2.3c1.4,1.4,3,3.7,4.2,6
		c1.8,3.5,1.8,3.7,1.6,7c-0.3,3.1-0.2,3.5,0.9,5.2c0.7,1.1,2.4,4.5,3.9,7.5c1.5,3.1,3.8,7.6,5.1,9.9c1.4,2.6,2.3,4.9,2.3,5.8
		c0,1.3,0.5,1.9,4,4.7c2.2,1.8,4.1,3.5,4.4,3.8c0.3,0.4,0,1.2-0.8,2.7c-0.7,1.2-1.2,2.2-1.1,2.3c0.1,0,1.1,0.8,2.2,1.6l1.9,1.5v3.6
		h196.5C391.8,199.6,367.2,163.4,309,148.1z M328.2,226.7L328.2,226.7L328.2,226.7l-20.3-15l-20.3,14.6l8-23l-20.3-15h24.5l8.5-22.6
		l7.8,22.7l24.7-0.3l-19.6,15.3L328.2,226.7L328.2,226.7z"/>
	<path fill="#FF0000" d="M529.6,235.5l-7.5-2.2l-2.5,1.9c-0.5,0.4-1,0.7-1.4,1h14.2C531.6,236.1,530.6,235.8,529.6,235.5z"/>
	<path fill="#FF0000" d="M539.3,234.7c-0.3,0.6-0.6,1.1-0.9,1.6h2.5l-0.2-4.4L539.3,234.7z"/>
	<path d="M537.5,237.6c-0.1,0-2.2-0.6-5-1.3h-14.2c-2.1,1.5-3.4,1.7-7.6,2c-3,0.2-4.4,0.1-6-0.5c-2.1-0.7-2.2-0.7-3.5,0.2l-1.4,1
		l-4.2-1.1c-2.3-0.6-4.3-1.2-4.4-1.2c-0.1,0-0.3,0.6-0.4,1.3c-0.2,1.2-0.7,1.5-4,2.8c-2.1,0.8-3.9,1.5-4.2,1.5c-0.2,0-0.4-1.3-0.4-3
		c0-0.8-0.1-1.8-0.2-2.9h-58.5v18.9h-14c-0.7,6.3-1.8,12.5-3.5,18.5l12.8,5.1l-9,22.2l-12.8-5.1c-3.2,5.8-7,11.5-11.3,16.7l9.8,8.8
		l-6.4,7.1c8.4,5.6,16.9,11.2,25.4,17c-3.4,5.8-6,12.3-9.5,18v0.1c-15.3-8.7-30.9-17.7-46.5-26.7c-1.9,1.2-3.8,2.3-5.7,3.4l5.3,12.3
		l-22,9.4l-5.4-12.5c-6.3,1.9-12.9,3.1-19.6,3.8v13.4h-24v-13.8c-6.1-0.8-12.3-2.2-18.6-4.1l-6.5,13.8l-21.7-10.2l6-12.8
		c-5.7-3-11.5-6.6-17.2-10.7l8.8-13.6c38.7,26.2,75.2,26,103.2,11.5c-22.2-12.8-44.4-25.7-66.1-38c-18.7-11.7-19.6-33.4-7-49.9
		c1.2-2.3,2.8-1.8,3.4-0.5c1.5,8,6,16.3,11.4,21.5c27.1,17.2,53.6,34.1,80,51.3c20.2-19.3,32-47.2,30.7-74.9H196.9v0.8
		c0,2.5-0.4,6.4-0.9,8.8c-0.7,3.7-0.7,5.5-0.4,12.4l0.4,8.1l-2.8,5.8c-1.5,3.2-4.4,8.3-6.5,11.4l-3.7,5.6l-2.6,0.5
		c-1.4,0.3-2.9,0.6-3.4,0.7c-0.4,0.1-2.4,1.9-4.5,4.1l-3.8,3.9v3.4v3.4l-4.6,4.1c-3.8,3.4-4.7,4.4-5.1,6c-0.4,1.6-0.8,2.1-2.8,3.2
		l-2.3,1.2l0.2,4.1c0.1,2.2,0.4,5.6,0.5,7.5l0.2,3.5l-2.8,4.2l-2.8,4.2l-0.3,7.5l-0.3,7.5l-3.4,12.2c-1.9,6.7-4.7,16.4-6.3,21.4
		l-2.8,9.3l-2.4,0.9c-1.4,0.6-2.3,1.2-2.3,1.6c0,0.4,1.1,7.1,2.2,15l2.1,14.3l-0.7,9.1c-0.4,5-0.6,9.6-0.6,10.2
		c0.1,1.1,0.3,1,4.4-1.6c2.3-1.5,4.5-2.8,4.7-2.8c0.3,0,1.9,0.9,3.6,2.1l3.1,2.1l2.1-0.7c2-0.6,2.3-0.6,3.9,0.2l1.8,0.9l4.1-2.1
		c2.3-1.2,5.5-3.1,7.2-4.3c2.7-1.9,3.6-2.3,8-3.3c4.4-0.9,5.3-1,8-0.6c2.7,0.5,3.3,0.8,5.4,2.8c1.3,1.2,4.4,3.5,7,4.9
		c3.3,1.9,5.4,3.5,7.5,5.7l2.8,3l2.7-0.6c1.5-0.4,3.7-1.1,5-1.7l2.3-1l67.2-0.6c57.4-0.5,67.3-0.5,67.7,0c0.3,0.4,3,3.5,6.1,7.1
		l5.6,6.5l3.2,0.6c3.2,0.6,3.3,0.6,6.6-0.8l3.4-1.4l5.9,1.6c3.3,0.9,6.9,1.6,8,1.6c1.8,0,2.2,0.2,2.9,1.4l0.8,1.4l2.4-1.8l2.4-1.8
		l3.3,1.4l3.3,1.5l3.5-0.7l3.6-0.7l8.4,2.8l8.3,2.8l4.4-1.8l4.4-1.8l4.9,1.6c2.7,0.9,5.2,1.6,5.7,1.6c1.3,0,65.2-10.1,66.1-10.5
		c0.7-0.3-0.3-1-4.5-3.3c-5.3-2.9-5.3-3-7.7-6.7c-1.8-2.8-5.7-7-16.1-17.6l-13.7-13.8l-1.4-4.1l-1.4-4.1l0.3-55.9l0.3-55.8h1.2
		c0.6,0,15.4,0.4,32.8,0.9c17.4,0.5,32.2,0.9,32.8,0.9c1.3,0,1.3,0-1.2-2.9l-2.6-2.9V296v-3.6l2.4-2.8c3.9-4.6,3.7-4,2.9-7.5
		c-0.8-3.9-1.2-9.5-1.2-17.5c0-6,0-6,1.9-10.8l1.9-4.8l-1.1-2.1c-0.9-1.8-1.1-3-1.3-8.5l-0.1-2h-2.5
		C537.9,237.1,537.6,237.6,537.5,237.6z M453.1,378.7c-3.6,4-6.4,5-6.4,5c-3.1,2.3-7.4,2-10.2-0.7c-5.8-8.3-12.6-12.7-26.2-17.5
		l-3.7-1c3.5-5.8,8.5-17.8,9.7-18.2l0,0c12.5,7.3,24.4,13.3,35.4,21.3C455.3,370.7,456.1,374.2,453.1,378.7z"/>
	<path fill="#FFEC00" d="M352.6,340.3c1.9-1.1,3.8-2.2,5.7-3.4c-3.2-1.8-6.4-3.7-9.6-5.5L352.6,340.3z"/>
	<path fill="#FFEC00" d="M347.9,330.8c-2.3-1.3-4.6-2.7-6.9-4c-28,14.5-64.5,14.7-103.2-11.5l-8.8,13.6c5.8,4.1,11.5,7.6,17.2,10.7
		l4.2-8.9l21.7,10.1l-3.7,8c6.3,1.9,12.5,3.3,18.6,4.1v-10.2h24v10.6c6.8-0.6,13.3-1.9,19.6-3.8l-4.1-9.6L347.9,330.8z"/>
	<path fill="#FFEC00" d="M399.3,231.2h10.1c-0.7-6.8-1.9-13.5-3.7-20.2l-9.4,3.7l-8.7-22.4l9.2-3.6c-3-5.7-6.5-11.1-10.5-16.2
		l-7.8,7.7l-17-17l7.8-7.7c-5-4-10.6-7.6-16.6-10.7l-3.6,9.4l-22.4-8.4l3.7-9.6c-6.4-1.7-13.1-3-20.3-3.7l-1.3,15.6h0
		c58.2,15.3,82.7,51.5,84.4,88.2c1.2,27.7-10.6,55.6-30.7,74.9c2,1.3,4.1,2.6,6.1,4l8.8-9.8l8,7.2c4.3-5.3,8.1-10.9,11.3-16.7
		l-9.4-3.8l8.9-22.2l9.5,3.8c1.7-6,2.9-12.2,3.5-18.5h-10V231.2z"/>
	<polygon fill="#FFEC00" points="409.4,231.2 399.3,231.2 399.3,255.2 409.3,255.2 423.3,255.2 423.3,236.3 423.3,231.2 	"/>
	<polygon fill="#FFEC00" points="328.2,226.7 328.2,226.7 328.2,226.8 	"/>
	<polygon fill="#FFEC00" points="340.8,188.1 316.1,188.4 308.3,165.7 299.8,188.3 275.3,188.3 295.6,203.3 287.6,226.3 
		307.9,211.7 328.2,226.7 321.2,203.4 	"/>
	<polygon fill="#FFEC00" points="396.3,214.7 405.7,211 418.6,206 409.9,183.7 396.9,188.7 387.6,192.3 	"/>
	<path fill="#FFEC00" d="M326.9,145.8l22.4,8.4l3.6-9.4l4.9-13l-8.9-3.3c-3.4,0-3.7,0.1-6.2,1.8l-2.8,1.8h-7.8l-1.5,4L326.9,145.8z"
		/>
	<polygon fill="#FFEC00" points="378.6,180.2 386.4,172.5 395.6,163.3 378.7,146.3 369.5,155.5 361.6,163.2 	"/>
	<polygon fill="#FFEC00" points="250.3,330.7 246.2,339.6 240.1,352.4 261.8,362.6 268.3,348.8 272,340.8 	"/>
	<polygon fill="#FFEC00" points="286.9,342.7 286.9,352.9 286.9,366.7 310.9,366.7 310.9,353.3 310.9,342.7 	"/>
	<polygon fill="#FFEC00" points="387.4,292.1 396.8,295.8 409.6,301 418.6,278.8 405.8,273.7 396.3,269.9 	"/>
	<path fill="#FFEC00" d="M347.9,330.8l-21.5,9.1l4.1,9.6l5.4,12.5l22-9.4l-5.3-12.3l-3.9-8.9C348.4,331.2,348.2,331,347.9,330.8z"/>
	<path fill="#FFEE00" d="M451.7,367.6c-11-8-22.9-14-35.4-21.3l0,0c-1.2,0.4-6.2,12.4-9.7,18.2l3.7,1c13.6,4.8,20.4,9.2,26.2,17.5
		c2.8,2.7,7.1,3,10.2,0.7c0,0,2.8-1,6.4-5C456.1,374.2,455.3,370.7,451.7,367.6z M419.9,363.4c-2.4,0-4.3-1.9-4.3-4.4
		c0-2.4,1.9-4.3,4.3-4.3c2.4,0,4.4,1.9,4.4,4.3C424.2,361.5,422.3,363.4,419.9,363.4z M430.8,370.4c-2.4,0-4.4-1.9-4.4-4.4
		c0-2.4,1.9-4.3,4.4-4.3c2.4,0,4.3,1.9,4.3,4.3C435.1,368.5,433.2,370.4,430.8,370.4z M441.3,377c-2.4,0-4.4-1.9-4.4-4.3
		c0-2.4,1.9-4.3,4.3-4.3c2.4,0,4.3,1.9,4.3,4.3h0.1C445.6,375.1,443.7,377,441.3,377z"/>
	<circle cx="419.9" cy="359.1" r="4.4"/>
	<path d="M441.2,368.4c-2.4,0-4.3,1.9-4.3,4.3c0,2.4,1.9,4.3,4.4,4.3c2.4,0,4.3-1.9,4.3-4.3h-0.1
		C445.5,370.3,443.6,368.4,441.2,368.4z"/>
	<circle cx="430.8" cy="366.1" r="4.4"/>
	<path fill="#FFEE00" d="M361.5,323.2l7.2-8c-2-1.3-4.1-2.7-6.1-4c-26.5-17.2-52.9-34.1-80-51.3c-5.4-5.2-9.9-13.5-11.4-21.5
		c-0.6-1.3-2.2-1.8-3.4,0.5c-12.6,16.5-11.7,38.2,7,49.9c21.7,12.3,43.9,25.2,66.1,38c2.3,1.3,4.6,2.7,6.9,4
		c0.3,0.2,0.6,0.3,0.9,0.5c3.2,1.8,6.4,3.7,9.6,5.5c15.6,9,31.2,18,46.5,26.7v-0.1c3.5-5.7,6.1-12.2,9.5-18
		c-8.5-5.8-16.9-11.4-25.4-17l-9.6,10.7L361.5,323.2z"/>
	<polygon fill="#FFEC00" points="368.7,315.2 361.5,323.2 379.3,339.2 388.9,328.5 395.3,321.4 385.5,312.6 377.5,305.4 	"/>
</g>
</svg>
