<?xml version="1.0" encoding="utf-8"?>
<!-- Generator: Adobe Illustrator 17.1.0, SVG Export Plug-In . SVG Version: 6.00 Build 0)  -->
<!DOCTYPE svg PUBLIC "-//W3C//DTD SVG 1.1//EN" "http://www.w3.org/Graphics/SVG/1.1/DTD/svg11.dtd">
<svg version="1.1" id="flag-icon-css-aq" xmlns="http://www.w3.org/2000/svg" xmlns:xlink="http://www.w3.org/1999/xlink" x="0px"
	 y="0px" viewBox="0 0 640 480" enable-background="new 0 0 640 480" xml:space="preserve">
<path fill="none" stroke="#FFFFFF" stroke-width="2.1" stroke-linecap="round" stroke-linejoin="round" d="M574.6,284.3
	c-0.5,0.9-0.5,1.9,0,2.8C575.6,285.8,574.8,285.2,574.6,284.3z"/>
<path fill="none" stroke="#FFFFFF" stroke-width="2" stroke-linejoin="round" d="M203.3,167.8c0,0-2.4-0.3-1.9,1.8
	C202.2,167.9,203.2,167.9,203.3,167.8z M203.8,162.8c-1.3,0-3-0.2-2.4,2C202.2,163.1,203.8,162.9,203.8,162.8z M212.9,191.1
	c0,0,2.1-0.1,1.6,2C213.7,191.5,213,191.2,212.9,191.1z"/>
<g>
	<path fill="#3A7DCE" d="M188,275c0.2,0.4,0.5,0.7,0.8,0.9C188.7,275.6,188.4,275.3,188,275z"/>
	<path fill="#3A7DCE" d="M584.4,303.9c-0.8,0-1.1-0.4-1.1-1.7c0-1,0.2-1.9,0.3-2.1c0.2-0.2,0.4-3.2,0.5-6.7l0.2-6.3h-1.3
		c-0.7,0-2.1,0.4-2.9,0.8l-1.6,0.8l0.3-3.7c0.4-4.1-0.3-6.7-1.6-6.2c-0.4,0.2-1.7,0.4-2.9,0.6l-2.2,0.3l1.7-1.9c0.9-1,1.8-2.6,2-3.5
		c0.3-1.5,0.1-1.9-2.1-4.2c-1.7-1.7-3.3-2.7-4.8-3.2l-2.3-0.6l0.3-3.1l0.3-3.1l-3.6-0.1c-2-0.1-3.2-0.2-2.7-0.3
		c1.2-0.3,1.2-4,0.1-5.9c-0.4-0.7-0.7-1.9-0.8-2.7c0-0.9-0.5-1.7-1.4-2.4l-1.4-1l1.1-2.1c1.4-2.6,1.4-3.1-0.1-3.9
		c-1.1-0.5-1.6-0.5-3.3,0.2c-1.8,0.7-4.5,1.2-4.5,0.6c0-0.1,0.6-1.3,1.4-2.6c1-1.8,1.3-2.8,1-3.9c-0.3-1.4-0.2-1.7,1.8-2.7
		c1.2-0.6,2.4-1.7,2.7-2.4c0.8-1.8-0.3-4.2-2.3-5c-1.4-0.6-1.5-0.9-1.5-3.2c0-3-0.9-5.2-2.1-5.2c-0.5,0.1-2.2,0.4-3.9,0.8l-3.1,0.7
		l0.4-3.3c0.2-1.8,0.4-3.5,0.4-3.8c0.1-0.3-0.6-0.6-1.6-0.7c-1.6-0.2-1.7-0.3-2.3-3.9c-0.4-2.6-1.2-4.8-2.6-7.3
		c-1.9-3.2-2.3-3.6-4.3-3.9l-2.2-0.4l-0.9-4.5c-0.5-2.5-0.9-6.1-0.9-8.1c0-5-1.3-7.3-4.6-8.6c-1.4-0.5-3.5-1.8-4.6-2.8
		c-1.3-1.2-3.2-2.2-4.7-2.6c-1.5-0.4-3.4-1.4-4.2-2.2c-1.4-1.3-2.1-1.5-4.5-1.5c-2.7,0-3-0.1-4.5-2c-1.2-1.5-2.5-2.4-5-3.3
		c-1.8-0.6-5.4-2.2-7.9-3.5c-3.5-1.8-4.8-2.7-5.5-4c-0.5-0.9-1.7-2.7-2.8-3.8c-1.8-2-2-2.4-2.3-6.2c-0.2-2.8-0.1-4.8,0.4-6.2
		c1-2.7,0.2-4.2-2.2-4.2c-1.4,0-1.9,0.4-3.6,2.7l-2,2.7l-0.7-2.4c-0.4-1.3-1.6-3.5-2.8-4.8c-1.8-2.2-2.4-2.5-4.2-2.5h-2l0.3-2.1
		c0.3-1.8,0.1-2.2-1.6-3.4c-1.1-0.8-2-2.1-2.2-2.9c-0.3-1.1-0.7-1.6-1.9-1.8c-1.2-0.3-1.5-0.6-1.5-1.7c0-0.8-0.6-2.3-1.3-3.4
		c-1.1-1.5-1.7-1.9-2.9-1.9c-1.4,0-1.5-0.2-1.9-2.5c-0.7-4.6-0.8-4.7-3.7-4.3c-4.1,0.7-4.3,0.6-5.4-1.6c-0.9-1.9-1.2-2.1-2.1-1.5
		c-0.6,0.4-1.1,1.2-1.1,1.9c0,1.5-0.9,3.3-1.6,3.3c-0.3,0-0.5-0.6-0.5-1.3c0-2.5-1.2-2.6-4.5-0.2c-2.2,1.6-3.8,2.3-5.7,2.5
		c-1.9,0.3-2.4,0.2-1.8-0.2c0.5-0.3,1.9-1.4,3.3-2.3c2.7-1.9,3.1-3.3,1.7-6.5c-0.4-1-0.9-2.9-1.1-4.3c-0.3-2.2-0.7-2.7-2.4-3.8
		c-1.1-0.7-2.2-1.7-2.5-2.2c-0.5-0.8-0.8-0.8-6.6,0.1c-5.7,0.9-6.2,0.9-8.4,0.1c-1.3-0.5-2.7-1.5-3.3-2.3c-0.5-0.8-2.5-5.8-4.3-11.1
		c-1.8-5.3-3.6-9.9-4.1-10.3c-0.5-0.4-1.1-1.3-1.4-2.1c-0.6-1.6-3.3-2.5-4.5-1.5c-0.4,0.3-1.3,2.2-2.2,4.1c-1.3,3.1-3.9,6.5-5.1,6.5
		c-0.2,0-0.6-1.4-0.8-3c-0.3-2.3-0.7-3.4-1.9-4.6c-1.4-1.4-1.8-1.5-4-1.2c-1.4,0.2-3.1,0.5-3.7,0.7c-1.2,0.4-1.2,0.3-0.8-1.4
		c0.8-3.2,0.3-12.9-0.9-15.8c-0.6-1.5-0.9-3-0.8-3.4s0-3.6-0.3-7.3c-0.6-6.3-0.7-6.6-1.8-6.9c-0.7-0.2-1.5-0.1-1.9,0.3
		c-1.1,0.9-3.3-0.2-6.5-3.2c-2.4-2.2-3.1-2.6-4.5-2.5c-1.6,0.2-1.7,0.2-1.8,2.9c-0.1,1.5-0.4,2.8-0.6,2.8c-0.3,0-1.1-1.4-1.8-3
		c-2-4.4-3.2-5.5-5.5-5.1c-1.7,0.3-2,0.2-2.9-1.4c-0.5-0.9-1.9-2.8-3.2-4.2c-1.2-1.4-2.6-3.1-3.1-3.7c-0.7-0.9-1.4-1.1-3.2-1
		c-2.2,0.2-2.2,0.2-3.2,3.1c-0.6,1.8-1.1,5.2-1.3,8.9c-0.4,6.8-1.1,8.7-3.9,10.4c-1,0.6-2.5,1.5-3.3,2c-1.2,0.7-0.9,0.3,1-1.7
		c2.5-2.6,3.5-4.8,3.5-8.2c0-0.9-1.2-3.3-3.4-6.6c-5.2-7.7-5.9-8.5-8.7-8.8c-4.3-0.5-4.6-0.6-5-2.3c-0.3-1.2-1.1-1.9-3.5-3.4
		c-1.8-1.1-3.4-1.9-3.5-1.8c-0.2,0.1-1.1,0.3-2,0.6c-1.1,0.4-1.9,1.1-2.3,2.1c-0.7,1.8-0.8,1.8-2.1,0.7c-0.6-0.6-1.4-0.7-2.3-0.5
		c-1.2,0.3-1.3,0.6-1.3,2.4c0,1.9-0.1,2.1-1.2,1.8c-1-0.3-1.5,0.1-2.6,1.8c-0.7,1.2-1.7,3.2-2,4.5c-0.7,2.9-1.8,3.2-4.9,1.1
		c-1.9-1.3-2.1-1.4-3.7-0.6c-1.5,0.7-1.7,1-1.5,2.7c0.2,1.6-0.1,2.3-1.9,4.6l-2.2,2.7l1.5,0.7c1.6,0.8,2.8,2.1,2.8,3
		c0,0.3-0.8,1-1.8,1.5c-2.1,1-2.3,1.4-0.8,2.7c0.9,0.9,3.2,5.9,3.2,7.2c0,0.4-1-0.4-2.3-1.6c-1.9-1.9-2.6-2.2-4.6-2.3
		c-3-0.2-3.6,0.3-3.6,2.2c0,1.2,0.4,1.7,1.3,2.2c0.7,0.3,1.3,0.7,1.3,0.9c0,0.7-2.6,2.1-3.9,2.1c-2.5,0-3.4,0.9-3.4,3.2
		c0,1.9-0.2,2.2-1.9,3c-1.1,0.5-3.4,0.9-5,0.9c-2.5,0.1-3.4,0.3-4.8,1.5c-1.6,1.3-2.3,1.5-5.1,1.5c-2.8,0-3.5,0.3-5.9,1.8
		c-1.5,1-2.9,1.8-3.1,1.8c-0.3,0-0.4-0.7-0.4-1.5s-0.2-2.3-0.3-3.2l-0.4-1.7l-2.7,0.3c-1.5,0.2-3.1,0.5-3.6,0.6
		c-0.7,0.2-1-0.2-1.3-1.2c-0.2-0.8-0.8-2.1-1.4-2.9l-1-1.4l-1.9,2.2c-1,1.2-2.2,3.1-2.6,4.2c-0.7,1.9-0.9,2-3,2
		c-1.8,0-2.5-0.3-4-1.8c-2-2.1-2.6-1.7-2.6,1.2v1.7h-3.5c-2.7,0-3.8,0.3-5.1,1.1c-1.4,1.1-1.8,1.1-4.2,0.5c-1.4-0.3-3.4-0.6-4.4-0.6
		c-2.4,0-5.4,2.2-5.6,4.1c-0.2,1.2-0.6,1.6-4,2.7l-3.8,1.3l0.2,2.2c0.2,2.2,0.2,2.2,2.6,2.6l2.5,0.5l0.4,3.6c0.2,2,0.5,3.6,0.7,3.6
		c2.1,0,17.7,3.3,18,3.8c1.2,1.9-0.7,4.8-6.5,10.3c-5.6,5.2-7.4,6.1-9.9,4.6c-1.3-0.8-1.5-1.4-2.4-6.2c-0.6-3.6-1.3-5.7-2.1-6.6
		l-1.1-1.3l-6.1,1.9l-6.1,1.9l0.3,1.6c0.3,2.2-1.5,4.1-4.2,4.5c-1.9,0.3-2,0.4-2,2.4c0,1.1,0.5,3.3,1.1,4.8c0.7,1.9,1,3.4,0.8,4.7
		c-0.2,1.4,0.1,2.7,0.9,4.7c2.3,5.1,2.3,5.4-0.6,6.7c-2.6,1.2-2.6,1.3-3.3,4.5c-0.7,3.7-0.7,8.4,0.1,9.8c0.3,0.6,1.1,1,1.8,1
		c1.1,0,1.3-0.2,0.9-1.3c-0.4-1.5,0.3-1.7,1.5-0.4c1.3,1.4,1.1,2.2-0.9,4.3c-2.1,2.2-3.2,6.2-2.3,8.2c0.5,1,1,1.3,2.5,1.3
		c1.1,0,4,0.8,6.6,1.8c4.4,1.6,4.6,1.7,2.9,2.1c-0.9,0.2-2.4,0.3-3.3,0.3s-2.7,0.4-3.9,0.8c-2.3,0.9-2.3,0.9-1.9,3.1
		c0.3,1.8,0.8,2.6,3.5,5.1l3.2,2.9l-1.7,0.3c-0.9,0.2-2.9,0.4-4.5,0.4c-2.5,0-2.9,0.2-4,1.6l3.1,1.4c5.8,3,7.3,6,11.6,8.9l13,4.4
		c5.8,4.4,8.7,10.3,13,11.8c4.7,0,5.6-2.7,7.1-3c8.5-0.4,12.8-1.5,14.5-4c1.7-2.2,5.8,1.1,17.4-3.3l-1.5-6c0,0,3.1-2.5,7.3-1.4
		c-0.2-2.7-0.4-9.9,3.7-13.1c-2.5-2.7-0.9-4.6-0.9-4.6s2.3-2.3,2.6-3.5c-1.2-6.5,1-6.6,1.6-8.5c0.6-1.9-2-1.2-1.3-3.9
		c0.7-2.6,4.9-3.2,5.5-5.4c0.5-2.2-1.2-3.3-1.1-3.8c0.9-2,0.1-7,0-8.9c7.7-2,10.3-8.5,13-5.9c1.4-8.8,2.8-11.8,11.5-11.8
		c1.2-2.7-3.1-5-1.4-5.9c2.9-0.3,5-0.2,8.5,4.3c1,1.4,1.2-2,2.3-2.4c1-0.4,3.7-0.4,4-2.2c0.5-1.8,1-4.1,2.5-7
		c1.2-2.5,2.2,0.9,3.2,5.6c6.1,0.2,19.9,1.6,25.7,3.2c4.3,1.1,7.2-1.2,11.3-1.6c3.1,3.1,6,0.8,7.6,7.5c2.3,3.6,6,0.3,6.9,1.3
		c4.8,13.6,21.4,4.5,22.7,4.7c2,0,4.7,6,6.3,6c2.8-0.5,2-2.4,4.4-1.7c-0.7,5.2,4.6,11,4.6,14.9c0,0,1.3,0.6,2.5-0.5
		c1.2-1.1,2.3-4,3.3-4l6.5,1.2c7.8,2.8,11.8,3.4,14.8,4.8c1.5,2.6,2.8,4,5.7,3.5c2.4,1.6,0.6,3.8,2,3.9c3-1.5,3.9-3.1,6.8-1.6
		c3.1,1.7,5.6,4.3,7.2,7.4c0,1.4-1.5,7.3,0,16.2c0.7,3,1,5.3,4.1,10.3c-0.8,5.3,4,14,4,16.2c0,3-2.4,4.5-3.8,7.5
		c5.8,4.4,0,11.8-2.9,16.2c21.7,4.4,11.6,13.3,28.9,8.8c-4.3,10.4-2.8,9.5,1.5,19.9c-8.6,5.9-0.2,7.7-6,15c-0.3,0.5,3.5,6.5,8.8,6.5
		c-1.4,11.8-5.8,7.4-4.3,25c-11.4-0.2-6.8,13.3-14.4,11.9c0.4,8.4,4.3,9.2,2.8,17.7c-5.7,1.5-5.7,1.5-8.6,5.9l-4.4-1.5
		c-1.4,7.4-4.3,8.9,0,16.3H439c-0.1,2.5,2.5,3.2,3,5.9c-0.3,1-8.3,5.7-14.5,5.9c-1.6,3.6,4.3,7.5,4,9.3c-6.8,1.4-9.8,9.9-9.8,9.9
		s3.5,1.4,2.9,3c-1.9-1.5-2.9-1.6-5.8-1.6c-1.4,0.4-5,0-8.3,5.8c-3.7,1.2-5.5,0.8-8.3,4.6c-1.2-3.7-3,0-5.2,1.4
		c-2.2,1.4-5.1,4.9-5.5,4.7c0-1,1.3-4.7,1.3-4.7l-7.2,1.5l-0.9,0.1c-0.5,0-0.4-4.3-1.8-4.1c-1.3,0.1-5.2,5.5-6.6,5.6
		c-1.3,0.2-1.7-1.7-2.9-1.5c-1.1,0.2-3.4,5.6-4.2,5.8c-0.8,0.1-4-3.4-6.8-2.9c-14.2,5.1-16.4-10-18.7-1.5c-3-1.6-2.4-0.7-5.4,0.1
		c-2,0.5-2.1-2.6-3.9-2.5c-3.4,0-3.2,3.4-5.1,2.4c-1.5-7-10.8-5.7-11.7-8.6c-0.7-3.1,4-3,5.6-5.2c1.1-3-1.3-4.1,3.5-7
		c6.2-4.3,2.6-6,3.7-9.2c2-4.6,2-5.8,0.4-9.9c0,0-4.9-13.2-5.8-13.2c-3-0.9-3,4.9-7.2,6.4c-8.6,3-24-7.5-26.6-7.5
		c-2.4,0-13.7,2.8-13.3-3c-1.6,5.6-7.8,1.3-8.2,1.3c-5.8,0-3.6,4.6-7.5,4.4c-1.7-0.6-19.5-1.6-19.5-1.6v3l-11.6-6l-10-3
		c-8.7-2.9-4.4-10.3-18.8-5.8v-9H195c3-17.6,0-8.8-1.4-25l-5.8,1.5c-3-4.3-0.6-5.8,0.5-7.2c-0.7-0.1-1.6-0.3-2.5-0.5
		c-6.4-1.2-11.3-4.1-13.1-7.6c-0.1-0.3-0.3-0.6-0.5-0.9c-1.7-1.1-2.9-2.6-3.6-4.7c-0.1-0.2-0.3-0.3-0.4-0.5
		c-4.3-4.8-4.8-6.2-3.6-8.4c0.6-0.9,1-2.3,1-3c0-1.2-0.3-1.5-2.1-1.9c-2.6-0.7-3.2-1.5-1.7-2.5c1.5-1,1.5-1.8-0.6-10.1
		c-1.9-7.9-1.9-7.8-10.4-16.2c-4.5-4.5-5.6-5.1-9.1-5.5l-2.5-0.3l-3.9,4.3c-4.1,4.4-4.5,5.3-3.2,6.1c0.7,0.4,0.7,0.6-0.3,1.4
		c-0.9,0.8-1.3,0.8-2.4,0.3c-0.8-0.3-1.4-0.5-1.5-0.5c-0.1,0.1-0.5,1.1-1,2.1c-0.6,1.5-1.2,2-2.1,2c-2.4,0-3.5,0.6-4.6,2.7
		c-0.6,1.1-1.4,2.1-1.7,2.1c-0.3,0-0.5,0.7-0.5,1.6c0,1.4-0.1,1.6-1,1.1c-1.4-0.7-1.6-0.7-2.1,0.7c-0.3,0.8-1.2,1.4-3,1.8
		c-2.5,0.6-2.6,0.7-3.5,3.6l-0.9,2.9l1.7,1.8c2.3,2.3,1.5,2.2-1.9-0.3c-3.9-2.9-5.5-2.3-5.6,2c0,1.2-0.2,1.2-2.5,0.9
		c-1.4-0.2-2.8-0.4-3.2-0.5c-0.4-0.1-1,0.7-1.4,1.9l-0.7,2.1l2.7,4.1c1.5,2.3,2.6,4.3,2.4,4.5c-0.2,0.2-2.1-1.4-4.2-3.5l-3.9-3.9
		l-2.4,0.4c-1.6,0.3-2.8,0.8-3.7,1.8c-0.8,0.8-2.4,1.9-3.5,2.4c-2.4,1.1-3,2.7-1.8,5.1c1.1,2.1,0.6,2.5-1.2,1.3
		c-1.6-1.1-4.5-0.8-6,0.5c-1.5,1.4-0.4,4.2,2.4,5.8c2.1,1.2,2.2,1.4,1.7,2.8c-0.7,1.9-3.2,2.7-8.3,2.7c-3.6,0-3.8,0.1-5.4,1.8
		c-0.9,1-2,1.8-2.4,1.8c-0.4,0-0.7,0.2-0.7,0.3c0,1.3,2,2.7,8.2,6.1c3.9,2.1,7,3.9,6.9,3.9c-0.1,0.1-2.1-0.3-4.3-0.9
		c-2.9-0.7-5.7-1.9-9-3.9c-6.3-3.8-7.9-4.3-10.3-2.8c-0.9,0.6-2.3,1.1-3,1.1c-1.3,0-1.3,0.1-0.9,4.1c0.3,3.8,0.5,4.2,2.2,5.7
		c2.1,1.8,2.3,2.3,1.1,2.3c-0.9,0-3.4,2.4-3.4,3.3c0,0.3,0.8,0.9,1.8,1.5c2.7,1.6,3,4,0.8,6.7c-1,1.3-1.6,2.6-1.6,3.6v1.5l4.7,0.3
		c4.3,0.3,4.9,0.4,6.8,2c1.5,1.1,2.2,2.1,2.2,2.9c0,1.2-0.2,1.3-2.4,1.3c-2.1,0-2.8-0.3-5.3-2.4c-1.7-1.4-3.4-2.4-4.2-2.4h-1.4
		l0.4,4.9c0.3,4.2,0.3,5.1-0.5,6.3c-0.8,1.3-0.8,1.6,0.3,6.4l1.2,5l-1.7,1.8c-1.6,1.6-1.7,2-1.4,3.9c0.2,1.3,0.9,2.6,1.9,3.6
		c0.8,0.8,2.3,2.5,3.1,3.6c1.4,2.1,1.6,2.2,6.5,3.2c2.8,0.5,5.1,1.1,5.1,1.3s-1.6,0.6-3.6,1l-3.7,0.7l0.3,4.6
		c0.3,4.5,0.3,4.7-1.4,7.7c-1.3,2.3-1.6,3.4-1.3,4.6c1.4,6.9,1.7,9.8,1.4,14.3c-0.4,4.6-0.3,4.9,1.3,8.7c1.6,3.9,1.7,3.9,4,4.3
		c1.7,0.3,2.7,0.9,4.2,2.5l1.8,2.2l2.6-1.8c1.5-1,4.5-2.8,6.8-4.1c4.9-2.7,4.7-2.2-1.7,3.9c-3.3,3.2-3.9,4-4.2,5.9l-0.4,2.2h3.7
		c4.2,0,4-0.2,4.6,4.5c0.3,2.6,0.4,2.7,2.2,2.9c1.2,0.2,2.3-0.1,3-0.7c1.2-0.9,1.3-0.9,3.2,1.1l2.1,2.1h-1.6c-2.6,0-3.2,0.4-2.9,2.3
		c0.5,3.9,0.5,3.9,3.2,4.3c5.4,0.7,5.2,0.6,7.2,4.8c1.6,3.5,2,3.9,3.1,3.7c7.5-1.7,11-1.5,14.7,0.8c1.4,0.8,2.7,1.4,3.1,1.2
		c0.3-0.2,0.9-1.1,1.4-2c0.5-0.9,1.9-2.9,3.2-4.5l2.3-2.7l4.6-0.1h4.5l2-2.7c1.1-1.5,1.9-3.1,1.9-3.6c0-0.5-0.8-1.4-1.8-1.9
		c-1-0.6-2.3-2-2.9-3.2l-1.1-2.1l1.4-7.5l1.5-7.5l1.9,2.1c2.8,3.2,3.2,4.1,2.8,7.2c-0.3,2.2-0.1,3.3,0.8,5.6
		c0.8,2.1,1.1,3.8,1.1,6.3c-0.1,3.1,0.1,3.6,1.2,4.7c0.7,0.7,1.7,1.1,2.1,0.9c1.3-0.5,15.7,1.2,26.5,3c5.6,0.9,10.3,1.6,10.4,1.5
		c0.2-0.2,0.3-0.8,0.3-1.5c0-1.6,0.7-3,3.2-6c2.1-2.5,2.5-4.4,1.5-6.3c-0.5-0.9-1.7-1.5-6.2-2.6c-2.1-0.5-2.3-0.7-2.3-2.3
		c0-1.7,0.1-1.7,1.7-1.4c1.2,0.2,2.4,1.1,3.5,2.3c1.7,1.9,1.8,2,4.9,1.8l3.2-0.2l1.8-4.4c1.5-3.7,2.2-4.7,4.6-6.6
		c2.8-2.2,3.4-3.2,3.4-5.6c0-0.9,0.6-1.7,1.8-2.6c1.3-0.9,1.8-1.7,1.8-2.8c0-0.9,0.5-2,1.3-2.7c1.8-1.6,1.7-2.8-0.1-2.4
		c-0.9,0.2-2.6-0.4-5-1.5c-3.1-1.5-3.6-2-3.9-3.4c-0.2-0.9-0.5-2.1-0.6-2.6c-0.2-0.8,0.6-0.5,4.2,1.5c3.2,1.7,5.1,2.4,6.5,2.4
		c1.8,0,2.1-0.2,2.5-1.7c0.4-1.3,0.8-1.7,1.9-1.8c2.1-0.3,3.7-3.1,3.3-5.6c-0.3-1.6-0.2-1.8,0.8-1.8c0.9,0,2.8-0.7,3.6-1.3
		c0.1-0.1-0.7-1.5-1.8-3.2l-1.9-2.9l1.4-6.4c2.1-9,2.4-15.4,0.9-20.2c-0.6-2.1-1.1-3.9-1.1-4.2c0-0.2,1.1,1.1,2.4,2.9
		c2.6,3.6,3.3,5.6,3.4,9.7c0,2,0.4,3.3,1.6,5.2l1.6,2.6l9.9-0.2l9.9-0.2l2.9-2.2c3.5-2.7,7.7-8.8,9.3-13.6c0.6-1.8,1.5-3.4,1.9-3.6
		c1.6-0.6,12-0.9,13.4-0.4c1.5,0.6,1.7,0.5-8.1,1.6c-2.5,0.3-4.8,0.7-5.1,0.8c-0.3,0.2-0.5,1.9-0.5,3.9c0,2.3-0.4,4.8-1.2,7.2
		c-1.2,3.4-1.4,3.6-3.1,3.9c-1.5,0.2-1.8,0.5-1.9,1.9c-0.2,2.3,1.3,3.9,4,4.3c1.9,0.3,2.4,0.6,3.2,2.1c0.5,1.1,1.2,1.8,1.8,1.8
		c0.8,0,0.9,0.3,0.7,1.4c-0.9,3.6-0.9,4.8,0,9.2c1.2,5.8,2.4,7.1,6.7,6.8l2.6-0.1l-1.1,1.6c-1.4,2-3.6,3.7-4.7,3.7
		c-0.5,0-1.7,0.3-2.8,0.6c-2.7,0.7-2.6,2,0.5,4.5c1.4,1.1,2.7,2.2,3,2.4c0.3,0.2-1.1,1.4-3.1,2.6c-1.9,1.2-3.5,2.4-3.5,2.7
		c0,0.3,0.3,1.6,0.6,2.8c0.5,1.8,0.5,3.1,0,5.1c-1.1,5.2-1.1,5.8,0.8,6.3c1.3,0.4,2.5,0.2,5-0.6c1.8-0.6,4.5-1.2,5.9-1.4
		c1.4-0.2,3.6-0.8,4.9-1.4c2.4-1,2.4-1,3.9,0.1c1.9,1.3,1.9,1.5,0.1,2.1c-1.4,0.4-1.6,0.9-2.7,5.8c-0.7,2.9-1.3,6.7-1.5,8.3
		c-0.3,3.7,0.8,7.2,2.3,7.1c3.3-0.4,7.7-0.2,9.9,0.4l2.6,0.7l-6.2,0.3c-7.8,0.4-8.4,0.8-7.9,5.3l0.3,3.1h3.8c2.1,0,5.1-0.3,6.6-0.5
		c2.7-0.5,2.9-0.5,4.3,0.9c0.9,0.8,1.5,1.9,1.5,2.8c0,1.8,1.8,3.3,10.9,8.6c5.8,3.5,7.1,4,8,3.5c1.6-0.9,2.3-0.7,2,0.5
		c-0.3,0.9,0.6,1.5,6,4.2l6.3,3.2v2.1c0,2.1,0.1,2.1,1.8,2.1c1.5,0,2-0.3,2.4-1.3c0.5-1.1,1.2-1.6,3.8-2.8c0.2-0.1,0.4,1,0.4,2.5
		c0,4.4,0.6,5.1,4.7,5.8c3.5,0.6,6.6,0.4,7.2-0.5c0.2-0.3,0.1-1.3-0.2-2.3c-0.5-1.7-0.4-1.9,1.4-3.7l1.9-1.9l0.6,2.4
		c0.6,2.1,0.8,2.4,2.6,2.7c2.6,0.5,4.1-0.4,6.6-4c1.9-2.8,2.1-2.9,4.1-2.7c1.6,0.2,2.6-0.2,4.2-1.2c1.2-0.7,2.2-1.4,2.3-1.4
		c0.1,0,0.4,0.7,0.6,1.6c0.3,1.5,0.5,1.6,2.9,1.6c2.1,0,2.9-0.3,4.4-1.5c1.2-1.1,2.6-1.7,4.4-1.9c2.6-0.3,2.8-0.3,5.1,1.6l2.4,1.9
		l3-0.5c1.7-0.3,3.1-0.6,3.2-0.6c0.6,0,1.8-4.9,1.8-7.6v-3.4l1.4,0.5c0.7,0.3,2.4,0.5,3.7,0.5c2.2,0,2.3,0.1,2.3,1.6
		c0,0.9,0.3,1.6,0.7,1.6c1.3,0,6.3-1.5,7.4-2.3c1.1-0.6,1.8-0.7,5-0.2l3.8,0.6l2.1-1.7c1.5-1.2,2.6-1.6,4.1-1.6
		c2.3,0,2.9-0.4,3.5-1.8c0.4-0.9,0.6-0.8,1.5,1.2c0.6,1.3,1.4,2.3,1.6,2.3c0.3,0,1.7-0.4,3.1-0.9c2-0.7,3.3-0.9,6.1-0.6
		c3.2,0.4,3.8,0.3,5.8-0.8c1.2-0.7,3.1-1.5,4.2-1.8c2.6-0.8,4.4-2.5,4.4-4.1c0-1.2,0-1.2,1.7-0.4c1.9,1,1.6,1.3,5.2-4.4
		c2-3.1,2.2-3.3,4.2-3.3c2.1,0,8.3-2.6,9-3.9c0.2-0.3,0.5-1.9,0.7-3.5c0.5-4.4,0.7-4.7,1.9-3.2c0.9,1.1,1.3,1.2,3.3,0.9
		c1.8-0.3,2.9-1.1,6.7-4.7l4.5-4.4l3.6,0.3c3.2,0.3,3.7,0.2,5.1-0.9c1.5-1.2,1.6-1.2,4.4-0.3c3.7,1.2,8.3,0.4,9.3-1.6
		c0.6-1.1,1.1-1.3,3.2-1.3c2,0,7.8-1.6,8.8-2.4c0.1-0.1-0.4-1.4-1.2-2.8c-1.6-3.3-1.7-3.8-0.2-6.8c0.7-1.6,1.2-3.4,1.2-5.5l0.1-3.1
		l3.7-1.3c2.6-0.8,4.1-1.7,5.1-2.9c1.3-1.6,1.4-1.9,1.1-6.3l-0.3-4.6l3.1-0.4c2.9-0.4,3.3-0.5,5.5-3.2c2.2-2.6,2.4-3,2.4-5.8v-3.1
		l3.8-1.1c3.7-1,3.8-1.1,3.8-2.7v-1.7l2.1,1.4c1.9,1.3,2.2,1.3,3.6,0.6c2.3-1.2,6.5-5.9,6.5-7.3c0-0.7-0.5-1.7-1.1-2.3
		c-1-1.1-1.1-1.4-0.4-4.3c0.7-3.1,0.7-3.1,2.9-3.6c1.2-0.3,2.4-0.7,2.6-0.9c0.2-0.2,0.7-2.2,1.1-4.5c0.7-4.1,0.7-4.1-0.6-5.4
		l-1.3-1.4l1.5-2.2c1.3-1.7,2.1-2.2,3.8-2.6c2.1-0.4,2.3-0.6,3.2-3.1c0.5-1.5,0.9-3.3,0.9-4c0.1-0.9,0.5-1.7,1.4-2.3
		c1.2-0.8,1.3-1.2,1.1-3.1c-0.2-1.2-0.4-2.8-0.6-3.6c-0.3-1.3-0.2-1.5,0.7-1.5c1.1,0,1.1-0.3,1.1-4.7
		C585.5,304.3,585.4,303.9,584.4,303.9z"/>
	<path fill="#3A7DCE" d="M180.5,225.8c1.2-0.4,4.4-0.5,4.4-0.5l-0.1,0c-2.9-5.9-2.9-5.9-2.9-11.8c-1.4,0-1.7,0.3-2.5,0
		c-0.8-0.2-1.2,5.5-3.9,4.4c-0.4-0.6,2-4.7-0.6-6.4c-0.8-0.5,0.2-3.9-0.2-5.4c0,0-3.3,1.8-5.7-4.4c-1.3-1.6-3,1.5-3,1.5
		s0.8,1.9-0.5,2.3c-1.9-1.4-3.2-0.6-5.6-2.5c-2.3-2,0.5-4.1-4-5.7c3-7.4,3-6,10.2-8.9c-4.4-3-4.4-3-7.3-7.4
		c-2.4-0.8-3.9-1.6-5.5-2.7c-0.7,0.1-0.8,0.5-1,1.6c-0.4,2.4-0.5,12.3-0.1,12.9c0.2,0.3-0.2,4-0.8,8.3l-1.2,7.7l1.6,3.2
		c1.4,2.9,2.1,3.5,5.5,5.6c2.9,1.8,5.2,2.7,9.2,3.6l5.3,1.3l1.6,4.3c1.3,3.5,1.8,4.3,2.8,4.4c1.2,0.2,1.2,0.2-0.3,1.4
		c-1,0.8-1.4,1-1.4,3C176.6,233.3,181.9,229.5,180.5,225.8z"/>
	<path fill="#FFFFFF" d="M187.8,284.4l5.8-1.5c1.4,16.2,4.4,7.4,1.4,25h7.3v9c14.4-4.5,10.1,2.9,18.8,5.8l10,3l11.6,6v-3
		c0,0,17.8,1,19.5,1.6c3.9,0.2,1.7-4.4,7.5-4.4c0.4,0,6.6,4.3,8.2-1.3c-0.4,5.8,10.9,3,13.3,3c2.6,0,18,10.5,26.6,7.5
		c4.2-1.5,4.2-7.3,7.2-6.4c0.9,0,5.8,13.2,5.8,13.2c1.6,4.1,1.6,5.3-0.4,9.9c-1.1,3.2,2.5,4.9-3.7,9.2c-4.8,2.9-2.4,4-3.5,7
		c-1.6,2.2-6.3,2.1-5.6,5.2c0.9,2.9,10.2,1.6,11.7,8.6c1.9,1,1.7-2.4,5.1-2.4c1.8-0.1,1.9,3,3.9,2.5c3-0.8,2.4-1.7,5.4-0.1
		c2.3-8.5,4.5,6.6,18.7,1.5c2.8-0.5,6,3,6.8,2.9c0.8-0.2,3.1-5.6,4.2-5.8c1.2-0.2,1.6,1.7,2.9,1.5c1.4-0.1,5.3-5.5,6.6-5.6
		c1.4-0.2,1.3,4.1,1.8,4.1l0.9-0.1l7.2-1.5c0,0-1.3,3.7-1.3,4.7c0.4,0.2,3.3-3.3,5.5-4.7c2.2-1.4,4-5.1,5.2-1.4
		c2.8-3.8,4.6-3.4,8.3-4.6c3.3-5.8,6.9-5.4,8.3-5.8c2.9,0,3.9,0.1,5.8,1.6c0.6-1.6-2.9-3-2.9-3s3-8.5,9.8-9.9c0.3-1.8-5.6-5.7-4-9.3
		c6.2-0.2,14.2-4.9,14.5-5.9c-0.5-2.7-3.1-3.4-3-5.9h7.1c-4.3-7.4-1.4-8.9,0-16.3l4.4,1.5c2.9-4.4,2.9-4.4,8.6-5.9
		c1.5-8.5-2.4-9.3-2.8-17.7c7.6,1.4,3-12.1,14.4-11.9c-1.5-17.6,2.9-13.2,4.3-25c-5.3,0-9.1-6-8.8-6.5c5.8-7.3-2.6-9.1,6-15
		c-4.3-10.4-5.8-9.5-1.5-19.9c-17.3,4.5-7.2-4.4-28.9-8.8c2.9-4.4,8.7-11.8,2.9-16.2c1.4-3,3.8-4.5,3.8-7.5c0-2.2-4.8-10.9-4-16.2
		c-3.1-5-3.4-7.3-4.1-10.3c-1.5-8.9,0-14.8,0-16.2c-1.6-3.1-4.1-5.7-7.2-7.4c-2.9-1.5-3.8,0.1-6.8,1.6c-1.4-0.1,0.4-2.3-2-3.9
		c-2.9,0.5-4.2-0.9-5.7-3.5c-3-1.4-7-2-14.8-4.8l-6.5-1.2c-1,0-2.1,2.9-3.3,4c-1.2,1.1-2.5,0.5-2.5,0.5c0-3.9-5.3-9.7-4.6-14.9
		c-2.4-0.7-1.6,1.2-4.4,1.7c-1.6,0-4.3-6-6.3-6c-1.3-0.2-17.9,8.9-22.7-4.7c-0.9-1-4.6,2.3-6.9-1.3c-1.6-6.7-4.5-4.4-7.6-7.5
		c-4.1,0.4-7,2.7-11.3,1.6c-5.8-1.6-19.6-3-25.7-3.2c-1-4.7-2-8.1-3.2-5.6c-1.5,2.9-2,5.2-2.5,7c-0.3,1.8-3,1.8-4,2.2
		c-1.1,0.4-1.3,3.8-2.3,2.4c-3.5-4.5-5.6-4.6-8.5-4.3c-1.7,0.9,2.6,3.2,1.4,5.9c-8.7,0-10.1,3-11.5,11.8c-2.7-2.6-5.3,3.9-13,5.9
		c0.1,1.9,0.9,6.9,0,8.9c-0.1,0.5,1.6,1.6,1.1,3.8c-0.6,2.2-4.8,2.8-5.5,5.4c-0.7,2.7,1.9,2,1.3,3.9c-0.6,1.9-2.8,2-1.6,8.5
		c-0.3,1.2-2.6,3.5-2.6,3.5s-1.6,1.9,0.9,4.6c-4.1,3.2-3.9,10.4-3.7,13.1c-4.2-1.1-7.3,1.4-7.3,1.4l1.5,6
		c-11.6,4.4-15.7,1.1-17.4,3.3c-1.7,2.5-6,3.6-14.5,4c-1.5,0.3-2.4,3-7.1,3c-4.3-1.5-7.2-7.4-13-11.8l-13-4.4
		c-4.3-2.9-5.8-5.9-11.6-8.9l-3.1-1.4c0,0,0,0.1-0.1,0.1c-0.7,0.9-1.5,2.8-1.7,4.2c-0.3,2.1-0.6,2.5-1.9,3.1
		c-1.4,0.5-1.5,0.8-1.4,2.5c0.2,1.8,0.3,1.9,3.2,2.7c2.1,0.5,3,1,3,1.6c-0.1,2.2-2.5,3.3-5.6,2.6c-1.2-0.2-2.9-0.5-3.9-0.5
		c-0.5,0-0.9,0-1.2,0.1c1.6,1.1,3.1,1.9,5.5,2.7c2.9,4.4,2.9,4.4,7.3,7.4c-7.2,2.9-7.2,1.5-10.2,8.9c4.5,1.6,1.7,3.7,4,5.7
		c2.4,1.9,3.7,1.1,5.6,2.5c1.3-0.4,0.5-2.3,0.5-2.3s1.7-3.1,3-1.5c2.4,6.2,5.7,4.4,5.7,4.4c0.4,1.5-0.6,4.9,0.2,5.4
		c2.6,1.7,0.2,5.8,0.6,6.4c2.7,1.1,3.1-4.6,3.9-4.4c0.8,0.3,1.1,0,2.5,0c0,5.9,0,5.9,2.9,11.8l0.1,0c0,0-3.2,0.1-4.4,0.5
		c1.4,3.7-3.9,7.5-6.1,9.9c0,1.2,0.1,3.1,0.2,6.2c0.2,3.6,2.8,7.9,4.8,7.9c1.3,0,1.9,0.9,1.9,2.9c0,0.7,1.3,4.6,2.9,8.6
		c1.6,4.1,2.9,8.1,2.9,8.9c0,2.3,0.2,3.8,0.8,4.8c0.4,0.3,0.7,0.6,0.8,0.9c0.2,0.2,0.4,0.3,0.6,0.4c0.9,0.5,1.5,0.9,1.3,1.1
		c-0.1,0.1-1,0-2.4-0.2C187.2,278.6,184.8,280.1,187.8,284.4z"/>
	<path fill="#FFFFFF" d="M172.2,268.3c-0.9-1.3-2.2-3.2-3.6-4.7C169.3,265.6,170.5,267.1,172.2,268.3z"/>
</g>
</svg>
