<?xml version="1.0" encoding="utf-8"?>
<!-- Generator: Adobe Illustrator 17.1.0, SVG Export Plug-In . SVG Version: 6.00 Build 0)  -->
<!DOCTYPE svg PUBLIC "-//W3C//DTD SVG 1.1//EN" "http://www.w3.org/Graphics/SVG/1.1/DTD/svg11.dtd">
<svg version="1.1" id="flag-icon-css-ar" xmlns="http://www.w3.org/2000/svg" xmlns:xlink="http://www.w3.org/1999/xlink" x="0px"
	 y="0px" viewBox="0 0 640 480" enable-background="new 0 0 640 480" xml:space="preserve">
<g>
	<path fill="#74ACDF" d="M468.6,60.3l-2.1-1.9l-2.2,0.6c-1.2,0.3-2.6,0.7-3,0.7c-0.6,0.2-0.8,1.1-1.1,5.2c-0.2,3.8-0.6,5.6-1.5,7.6
		c-1,2.3-1.6,2.9-4.9,5.1c-2.1,1.4-4.2,2.7-4.7,3c-0.5,0.3-1.1,1.1-1.4,1.9c-0.7,2-0.8,2.1-3.4,1.3c-1.3-0.4-2.5-0.7-2.8-0.7
		s-1.2,0.9-2,2.1l-1.5,2.1l-1.3-0.9c-1.2-0.8-1.4-0.9-2.3-0.2c-0.9,0.6-1.3,0.6-3.9-0.1c-1.6-0.4-3.8-1.4-4.9-2.1
		c-1.9-1.3-2.2-1.3-7.8-1.4c-3.2,0-5.9-0.2-6.1-0.4c-0.2-0.2,0.6-1.5,1.8-3c1.6-2.1,2.2-3.4,2.7-5.8c0.7-3,3-7.9,5.1-10.5
		c0.6-0.7,1.5-2,2.1-3l1-1.7l-2-2.8c-2.7-3.6-7.4-6.6-12.6-8.1c-4.4-1.2-4.3-1.1-10.4-6.2l-4.8-4h-2.8c-2.7,0-2.9-0.1-7.3-3.2
		c-2.5-1.8-5-3.8-5.7-4.5c-0.7-0.7-3-2.7-5.4-4.4c-4.2-3.1-4.2-3.2-5.1-6.3c-0.8-3-1-3.3-3.4-4.8c-1.4-0.8-3.2-2.5-4.2-3.7
		c-2.4-3-3.9-3.5-9.9-3.4c-2.7,0-5.3,0-5.6-0.1c-0.4-0.2-0.9,0.7-1.7,2.8c-0.6,1.7-1.4,3.7-1.8,4.5c-0.4,0.8-0.7,2.5-0.7,3.7v2.2
		l-2.8-4.8c-3.5-5.9-3.9-6.1-10.4-6.1h-4.8l-1.4-1.5c-0.8-0.8-2.2-2.6-3.2-4c-1-1.3-1.8-2.4-1.9-2.4s-0.6,1.6-1.2,3.7
		c-0.9,3.1-1.4,3.9-3,5.3c-1.1,0.9-3.1,3.3-4.6,5.4l-2.6,3.8l1.2,1.7l1.2,1.7l-2.3,7.1l-2.3,7.1l-6.7,3.5c-5.9,3.1-6.8,3.7-7.8,5.5
		c-0.6,1.1-1.1,2.1-1.1,2.2s0.7,0.9,1.4,1.8c1.2,1.4,1.4,1.7,0.7,1.9c-0.6,0.2-0.7,0.7-0.4,1.7c0.2,1.2,0.1,1.5-1,2.4l-1.3,1l2,4.8
		l2,4.8l-1.5,1.4c-2.3,2-2.4,4-0.3,6.8c2,2.7,2.1,4.5,0.7,5.3c-0.6,0.3-1.3,0.8-1.4,1.2c-0.3,0.5-0.6,0.5-1.5,0.1
		c-1.7-0.8-2.8,0.6-4.1,5.3c-0.8,3.2-1.6,4.7-3.6,7.4c-1.4,1.9-3.1,4.1-3.9,4.9c-1.2,1.3-1.4,1.7-1.2,3.5c0.2,1.7-0.1,2.7-1.6,5.7
		l-1.9,3.7l0.6,3.8c0.4,2.9,0.4,4.1,0,5c-0.4,0.9-0.4,1.5,0,2.4c0.7,1.6-0.7,4.8-2.3,5c-1,0.1-1.1,0.5-1.5,4.1
		c-0.3,2.2-0.8,4.4-1.2,4.9c-0.4,0.5-0.7,1-0.8,1.1c0,0.1-0.4-0.1-0.8-0.4c-0.7-0.6-0.8-0.4-1.4,2.7c-0.4,2.1,1.8,8.8,3.2,9.4l1,0.4
		l-1,0.3l-1,0.3l0.9,2.1c0.9,2,1.7,4.6,2.3,7h148.8c0-1.6,0.1-3,0.3-3.5c0.4-0.7,0.3-1.5-0.3-3.1c-0.7-2-0.7-2.2,0.2-4.8
		c0.6-1.5,1.2-3.5,1.4-4.5c0.2-1,0.6-2,0.8-2.3c0.8-1,1.5-8.7,0.9-10.2c-0.6-1.6-0.2-2.3,3.8-6.3c1.6-1.6,3.2-3.7,3.5-4.5
		c0.4-0.8,1.1-1.8,1.7-2.1c2.5-1.4,5-4.2,6-7c0.7-1.7,1.4-2.9,1.9-3c0.5-0.2,1.2-1,1.6-1.8c0.4-0.8,2.1-2.7,3.7-4.3
		c1.7-1.5,4-4.3,5.2-6.1c2-2.9,2.4-3.4,4.7-4.1c1.4-0.4,3.3-1.5,4.2-2.3c0.9-0.8,4-2.7,6.7-4.1l5-2.6l2-3.4c1.6-2.9,1.9-3.7,1.6-5.1
		c-0.1-0.9,0-2.4,0.3-3.2c0.4-1.3,0.3-2.1-0.7-5.6C470.9,62.4,470.6,61.9,468.6,60.3z"/>
	<path fill="#74ACDF" d="M318.6,471.6c-4.6-0.9-5.3-1.2-7.7-3.1c-1.4-1.1-4.8-3-7.3-4.2c-4.3-2.1-4.9-2.5-7.8-6
		c-2.7-3.3-3.4-3.9-5-4.1c-1.5-0.2-1.8-0.5-2-1.5c-0.1-0.7,0.2-1.6,0.7-2.2c0.9-1,0.9-1,0-2.4c-2.5-3.4-2.4-3.9-2.4,12.7v15.1
		l4.3-0.2c5-0.3,11.1,0.3,17.7,1.8l4.7,1l3.1-0.9c2.1-0.7,4.2-0.9,6.8-0.8l3.8,0.1l1.2-1.8l1.2-1.8l-3.1-0.3
		C325.1,472.7,321.4,472.1,318.6,471.6z"/>
	<path fill="#74ACDF" d="M248.1,320.5c0.1,0.7-0.1,2.4-0.5,3.6s-0.6,2.5-0.5,2.9c0.2,0.4,1.4,0.7,3.8,1c1.9,0.1,3.7,0.6,4,0.9
		c0.3,0.3,0.4,1.3,0.2,2.1c-0.2,1.2-0.5,1.4-1.5,1.4c-0.7,0-1.4-0.2-1.7-0.4c-0.3-0.2-2-0.2-3.8,0.1c-3.1,0.5-3.4,0.6-3.4,1.6
		c0,1,0.2,1.1,2.7,1.1l2.7,0l1.6,2.3c1.4,2.1,1.5,2.4,1,3.7c-0.4,0.9-1.1,1.5-2.2,1.9c-0.9,0.3-1.7,0.7-1.8,1.1
		c-0.1,0.3,0.2,1.7,0.7,3.2l0.9,2.7l-2.1,1l-2.1,1l1.4,0.5c1.1,0.5,1.4,1,2,3.7l0.8,3.2l-2.1,0.9L246,361l0.2,2.4
		c0.1,1.3,0.4,2.7,0.6,3.1c0.2,0.6-0.2,1.1-2,2.2c-3.2,2.1-4.1,3.3-4.7,6.2c-0.5,2.4-0.4,2.9,0.6,5.3l1.1,2.6l-2.5,4.1
		c-1.4,2.2-3.1,4.5-3.8,5c-0.7,0.7-2.7,1.4-4.8,1.9l-3.6,0.7l-0.4,1.9c-0.2,1.1-0.2,3,0,4.3c0.2,1.6,0.1,3.8-0.3,6.5l-0.7,4.1l2.9,3
		l2.8,3l2.5-0.3c1.3-0.1,3.5-0.4,4.9-0.6c2.3-0.3,2.5-0.2,3,0.8c0.7,1.5,0.2,3.5-0.9,4.3c-0.9,0.7-0.9,0.7-0.1,1.6
		c0.8,0.9,0.8,1.1,0.1,3.9l-0.7,2.9l2.2,2.2l2.2,2.2l12.8,0.5c11.8,0.4,13.1,0.5,16.3,1.6c1.9,0.7,4.2,1.2,5.2,1.2
		c0.9,0,2.8,0.4,4.2,0.9c2.9,1,6.9,1.7,6.9,1.2c0-0.2-1.2-2-2.7-4.1c-4.6-6.3-6.6-11.1-6.6-15.9c0-2.5,0.2-3.2,1.5-5.1
		c1.3-1.8,2.1-2.5,5.2-3.8c2-0.9,4.7-2,5.9-2.4c1.2-0.4,2.6-1.3,3.1-1.9c1.4-1.8,2.5-5.7,2.2-7.6c-0.3-1.3,0-2.1,0.9-3.8
		c0.7-1.2,1.8-2.6,2.6-3.2c0.7-0.6,1.9-2,2.5-3c0.9-1.4,1.5-2,2.4-2c1.4,0,7.3-2.9,9.8-4.9c1-0.8,2.3-1.6,2.9-1.8
		c0.6-0.2,1-0.7,1-1.3c0-0.5,0.3-1,0.7-1.2c0.5-0.2,0.6-0.5,0.1-1.1c-0.4-0.7-0.3-1.5,0.3-3.9c1-3.5,0.7-5.5-0.8-6.5
		c-0.6-0.4-2.9-0.8-5.3-1l-4.2-0.3l-4.6-3.6c-2.5-2-5.1-4.5-5.9-5.6c-1.3-2-1.3-2.1-0.7-4.4c0.4-1.3,1.3-3.2,2-4.2
		c0.7-1,1.9-2.9,2.6-4.3c1.1-2.1,1.4-2.5,3.2-2.9c4.7-1.2,5.4-1.4,5.7-2.3c0.4-1.1,2.5-1.6,7.2-1.6c3,0,3.5-0.1,3.6-0.8
		c0.1-0.5-0.2-1.3-0.7-1.8c-0.8-0.8-0.7-0.9,0.2-2c0.6-0.7,1.7-1.4,2.4-1.7c2.2-0.9,2.6-2.7,1.9-9.6h-80.5
		C248.1,320.2,248.1,320.3,248.1,320.5z"/>
	<path fill="#FFFFFF" d="M345.6,247.6c0,0.1-0.1,0.3-0.1,0.4l23.3,10.7c0.1-1.2-0.1-1.6-1-2.7c-1.5-2-2.1-3-2.3-4.6
		c-0.7-0.3-1.4-0.6-2.2-1C357.4,247.4,351.9,249,345.6,247.6z"/>
	<path fill="#FFFFFF" d="M342,296.5c0.1,0,0.3,0,0.4,0l-0.3-0.6C341.1,296.3,341.1,296.5,342,296.5z"/>
	<path fill="#FFFFFF" d="M331.4,305.3c-1-0.5,1.2-2.3,0.3-5.5c-1.2-3.2-5.6-7.7-4.8-15.8c0.5-6.6-3-11.1-4.2-17.4
		c-0.1,0-0.3,0-0.4,0l-1.5,38.9c0,0,0,1.2-0.8,1.2c-0.8,0-0.8-1.3-0.8-1.3l-1.5-38.8c-0.2,0-0.4,0-0.6-0.1c-2,5.8-0.1,9.8-3.9,17.3
		c-4.5,8.8-1.9,11.4-3,15.7c-1.2,4.4-3.9,6-4.6,5.1c-0.7-0.8,2-1.7,2.4-4.9c0.1-3.4-2.2-9.2,1.6-16.5c3-5.9,1.4-11.4,2.8-17.7
		c-0.1,0-0.3-0.1-0.4-0.1l-16.2,35.4c0,0-0.4,1.1-1.2,0.8c-0.7-0.3-0.3-1.5-0.3-1.5l13.5-36.4c-0.2-0.1-0.4-0.2-0.6-0.3
		c-4.1,4.6-3.8,9-10.2,14.5c-7.5,6.4-6.1,9.8-8.8,13.4c-2.8,3.6-5.9,4-6.2,3c-0.3-1,2.5-0.7,4.1-3.7c1.4-3.1,1.5-9.4,7.8-14.6
		c5-4.3,5.7-10,9.4-15.3c-0.1-0.1-0.2-0.2-0.3-0.3l-28.6,26.5c0,0-0.8,0.8-1.4,0.3c-0.6-0.6,0.3-1.5,0.3-1.5l26.4-28.5
		c-0.1-0.2-0.3-0.3-0.4-0.5c-5.5,2.7-7,6.9-15,9.5c-9.4,3.1-9.4,6.7-13.2,9c-3.9,2.3-7,1.4-6.9,0.4c0.1-1.1,2.6,0.3,5.2-1.8
		c2.5-2.3,5-8.1,12.8-10.5c6.3-2,9.1-7,14.5-10.5c-0.1-0.1-0.1-0.3-0.2-0.4l-36.5,13.5c0,0-1.1,0.5-1.4-0.3
		c-0.3-0.8,0.9-1.2,0.9-1.2l35.3-16.2c-0.1-0.2-0.1-0.4-0.2-0.6c-6.1,0.3-9.1,3.7-17.5,3c-9.9-0.8-11.2,2.6-15.6,3.3
		c-4.5,0.6-7-1.3-6.5-2.3s2.3,1.2,5.5,0.3c3.2-1.2,7.7-5.6,15.8-4.8c6.6,0.5,11.1-3,17.4-4.2c0-0.1,0-0.3,0-0.4l-35.8-1.4
		c0.2,1.1,0.6,2.2,0.9,2.6c1.2,1.3,0.3,2.4-2.9,3.8l-3,1.4v2.7c0,3.4-1.5,7.5-2.7,7c-0.6-0.3-0.7,0.1-0.4,2.7
		c0.3,2.6,0.2,3.1-0.6,3.7c-1.1,0.8-1.8,3.3-1,3.3c0.9,0,0.6,2.1-0.7,4.4c-0.9,1.8-1.1,2.4-0.7,3.4c0.3,0.8,0.4,3.1,0.2,6.2
		c-0.3,4.5-0.3,5,0.7,6.6c0.7,1.3,1,2.3,0.9,4c-0.1,2.2-0.1,2.2-2.1,2.7c-1.7,0.3-2,0.6-2,1.5c0,0.6,0.2,1.5,0.5,2
		c0.4,0.7,0.3,1-0.5,1.4c-0.7,0.4-0.9,1-0.9,2.6c0,2.6,1.1,4.5,3.4,5.9c2,1.3,2.1,1.5,0.8,2.7c-0.6,0.6-0.9,1.5-0.9,2.5
		c0,1.4,0.2,1.6,2.2,2.5l2.2,0.9l-1.5,0.9c-1.1,0.7-1.4,1-1.4,1.8h80.5c-0.1-0.8-0.2-1.6-0.3-2.5c-0.2-2-0.2-2.1,1.2-2.9
		c0.8-0.5,1.4-1.2,1.4-1.8c0-0.7,1-1.4,4.7-3.1c2.6-1.2,4.7-2.3,4.7-2.5c0-0.2-0.8-0.6-1.8-0.8c-2.2-0.7-4.3-1.6-5.4-2.3
		C332.5,305.1,331.9,305.5,331.4,305.3z"/>
	<path fill="#FFFFFF" d="M269.3,165c0,2.9,0.5,4.8,1,3.9c0.3-0.5,0.6-0.5,1.6,0.2c1.4,0.9,1.5,1.8,0.5,2.6c-0.9,0.7-0.9,6.3,0,7.9
		c1,1.8,0.8,2.5-0.8,3.4c-3.8,2.1-4.5,3.1-5.4,7.8c-0.5,2.4-1.1,4.5-1.4,4.6c-0.2,0-0.8,0.4-1.3,0.8c-0.8,0.7-0.8,0.7,0.2,1.6
		c0.9,0.7,1.1,1.5,1.4,4.6c0.3,4.1-0.1,7.1-0.9,7.1c-0.3,0-1.5,0.9-2.7,2s-2.5,2.2-2.9,2.5c-0.4,0.2-1.2,1.1-1.7,1.9
		c-0.8,1.2-1,2.1-1.1,6.3c0,1.2,0,2.5,0.1,3.5c0.7,0.5,1.8,2.1,4.3,2.3c3.4,0.1,9.2-2.2,16.5,1.6c5.9,3,11.4,1.4,17.7,2.8
		c0-0.1,0.1-0.3,0.1-0.4l-35.4-16.2c0,0-1.1-0.4-0.8-1.2c0.3-0.7,1.5-0.3,1.5-0.3l36.4,13.5c0.1-0.2,0.2-0.4,0.3-0.6
		c-4.6-4.1-9-3.8-14.5-10.2c-6.4-7.5-9.8-6.1-13.4-8.8c-3.6-2.8-4-5.9-3-6.2c1-0.3,0.7,2.5,3.7,4.1c3.1,1.4,9.4,1.5,14.6,7.8
		c4.3,5,10,5.7,15.3,9.4c0.1-0.1,0.2-0.2,0.3-0.3l-26.5-28.6c0,0-0.8-0.8-0.3-1.4c0.6-0.6,1.5,0.3,1.5,0.3l28.5,26.4
		c0.2-0.1,0.3-0.3,0.5-0.4c-2.7-5.5-6.9-7-9.5-15c-3.1-9.4-6.7-9.4-9-13.2c-2.3-3.9-1.4-7-0.4-6.9c1.1,0.1-0.3,2.6,1.8,5.2
		c2.3,2.5,8.1,5,10.5,12.8c2,6.3,7,9.1,10.5,14.5c0.1-0.1,0.3-0.1,0.4-0.2l-13.5-36.5c0,0-0.5-1.1,0.3-1.4c0.8-0.3,1.2,0.9,1.2,0.9
		l16.2,35.3c0.2-0.1,0.4-0.1,0.6-0.2c-0.3-6.1-3.7-9.1-3-17.5c0.8-9.9-2.6-11.2-3.3-15.6c-0.6-4.5,1.3-7,2.3-6.5
		c1,0.5-1.2,2.3-0.3,5.5c1.2,3.2,5.6,7.7,4.8,15.8c-0.5,6.6,3,11.1,4.2,17.4c0.1,0,0.3,0,0.4,0l1.5-38.9c0,0,0-1.2,0.8-1.2
		c0.8,0,0.8,1.3,0.8,1.3l1.5,38.8c0.2,0,0.4,0,0.6,0.1c2-5.8,0.1-9.8,3.9-17.3c4.5-8.8,1.9-11.4,3-15.7c1.2-4.4,3.9-6,4.6-5.1
		s-2,1.7-2.4,4.9c-0.1,3.4,2.2,9.2-1.6,16.5c-3,5.9-1.4,11.4-2.8,17.7c0.1,0,0.3,0.1,0.4,0.1l16.2-35.4c0,0,0.4-1.1,1.2-0.8
		c0.7,0.3,0.3,1.5,0.3,1.5l-13.5,36.4c0.2,0.1,0.4,0.2,0.6,0.3c4.1-4.6,3.8-9,10.2-14.5c7.5-6.4,6.1-9.8,8.8-13.4
		c2.8-3.6,5.9-4,6.2-3c0.3,1-2.5,0.7-4.1,3.7c-1.4,3.1-1.5,9.4-7.8,14.6c-5,4.3-5.7,10-9.4,15.3c0.1,0.1,0.2,0.2,0.3,0.3l28.6-26.5
		c0,0,0.8-0.8,1.4-0.3c0.6,0.6-0.3,1.5-0.3,1.5l-26.4,28.5c0.1,0.2,0.3,0.3,0.4,0.5c5.5-2.7,7-6.9,15-9.5c9.4-3.1,9.4-6.7,13.2-9
		c3.9-2.3,7-1.4,6.9-0.4s-2.6-0.3-5.2,1.8c-2.5,2.3-5,8.1-12.8,10.5c-6.3,2-9.1,7-14.5,10.5c0.1,0.1,0.1,0.3,0.2,0.4l36.5-13.5
		c0,0,1.1-0.5,1.4,0.3c0.3,0.8-0.9,1.2-0.9,1.2l-35.3,16.2c0.1,0.2,0.1,0.4,0.2,0.6c6.1-0.3,9.1-3.7,17.5-3
		c9.9,0.8,11.2-2.6,15.6-3.3c4.5-0.6,7,1.3,6.5,2.3c-0.5,1-2.3-1.2-5.5-0.3c-3.2,1.2-7.7,5.6-15.8,4.8c-6.6-0.5-11.1,3-17.4,4.2
		c0,0.1,0,0.3,0,0.4l38.9,1.5c0,0,1.2,0,1.2,0.8c0,0.8-1.3,0.8-1.3,0.8l-38.8,1.5c0,0.2,0,0.4-0.1,0.6c5.8,2,9.8,0.1,17.3,3.9
		c0.6,0.3,1.2,0.6,1.8,0.8c0.3-0.9,1-0.6,2.2,0.6c0.2,0.1,0.4,0.3,0.6,0.5c5.3,1.7,7.7,0.2,11.1,1.1c0.4,0.1,0.9,0.3,1.2,0.4
		c7.9-0.6,18.7-2.7,28.9-5.6c7.1-2,14-6.1,14.9-8.6c0.3-0.9,1.5-2.8,2.7-4.2c1.2-1.4,3.4-4.2,4.9-6.3c2.3-3.1,2.8-4.1,3-6.1
		c0.4-3.2-0.6-6.7-1.9-6.7c-0.5,0-2-0.6-3.3-1.3c-1.9-1-2.4-1.6-2.8-3.1c-0.6-2.1-0.2-4.6,1-6.6c1.2-2,1.1-2.4-1-5.1
		c-1.5-1.9-2.8-2.9-7.5-5.4c-7-3.7-7.6-4.5-6.7-8.8c0.5-2.5,0.5-2.9-0.3-4.2c-1-1.7-1.1-2.4-0.3-6.3c0.5-2.7,0.7-3.1,2.8-4.7
		l2.3-1.8l-0.2-3.9c0-0.5-0.1-1-0.1-1.5H268.5C269,162,269.3,163.9,269.3,165z"/>
	<path fill="#FFFFFF" d="M327.4,265.6c0.2,4.3,2,7.1,2.7,11.3c0.1-0.4,0.4-0.6,0.9-0.9c0.5-0.3,0.9-0.4,1.7-0.3l-4.7-10.3
		C327.9,265.5,327.6,265.6,327.4,265.6z"/>
	<path fill="#FFFFFF" d="M343.4,252.9c4.6,4.1,9,3.8,14.5,10.2c2.4,2.8,4.4,4.4,6.2,5.4c0.1-0.5,0.2-0.9,0.4-1.1
		c0.3-0.1,0.5-0.9,0.5-1.7c0-2.1,0.8-3.4,2-3c0.8,0.2,1,0.1,1.3-1.3l-24.6-9.1C343.6,252.5,343.5,252.7,343.4,252.9z"/>
	<path fill="#FFFFFF" d="M336.7,260.8c2.7,5.5,6.9,7,9.5,15c0.7,2.3,1.5,4,2.3,5.4l3-0.2c3.3-0.2,4.7-0.4,6.7-1.1l-20.9-19.4
		C337,260.6,336.9,260.7,336.7,260.8z"/>
	<path fill="#FFFFFF" d="M293.5,237.1c-5.8-2-9.8-0.1-17.3-3.9c-8.8-4.5-11.4-1.9-15.7-3c-2-0.5-3.4-1.4-4.3-2.3
		c0,0.1,0.1,0.3,0.1,0.4c0.3,1.1,0.3,1.6-0.5,2.4c-0.8,0.9-0.8,1,0.2,4c0.5,1.3,1,3,1.3,4.4l36.1-1.4
		C293.4,237.5,293.4,237.3,293.5,237.1z"/>
	<path fill="#FFFFFF" d="M332.7,263.5c-0.1,0.1-0.3,0.1-0.4,0.2l4.9,13.2c0,0,0,0,0.1,0c2.4,0.7,5,1.8,6.5,2.6
		c-0.2-0.5-0.4-1-0.5-1.5C341.2,271.7,336.2,268.9,332.7,263.5z"/>
	<path fill="#FFFFFF" d="M333.7,298.8c0.2,1.3,0.1,2.4,0,3.4c1.3-0.7,3.3-1.4,4.6-1.4c2,0,2.9,0.7,2.9,2.1s2,2,5.2,1.5
		c1.4-0.2,2.6-0.5,2.7-0.6c0.7-0.7,0.9-3.9,0.3-5.8c-1.1-3.8-1.3-4-5.2-2.7l1.8,4.9c0,0,0.5,1.1-0.3,1.4c-0.8,0.3-1.2-0.9-1.2-0.9
		l-1.2-2.6c-0.7,0.5-2.1,0.7-4.1,0.4c-1.5-0.2-1.9-0.4-1.7-1.1c0.2-0.7-0.3-0.9-2.2-1.4c-2.1-0.5-2.5-0.8-3.1-2.1
		c-0.4-0.9-0.7-3.2-0.7-5.5c0-2.2-0.2-4.4-0.4-5c-0.1-0.3-0.3-1-0.4-1.9c0,0.5,0,1-0.1,1.6C329.7,293,333.1,294.3,333.7,298.8z"/>
	<path fill="#FFFFFF" d="M356,266.2c-4.3-5-10-5.7-15.3-9.4c-0.1,0.1-0.2,0.2-0.3,0.3l20.1,21.7c2.1-0.9,4.2-2,4.7-2.4
		c1-0.7,1-0.8,0.3-2.9c-0.2-0.5-0.3-0.9-0.5-1.3C362.2,271.3,358.9,269.7,356,266.2z"/>
	<path fill="#F6B40E" d="M345.5,301.6c0.8-0.4,0.3-1.4,0.3-1.4l-1.8-4.9c0,0-0.1,0-0.1,0c-0.8,0.3-1.4,0.5-1.9,0.6l0.3,0.6
		c0.8,0.1,1.1,0.3,1.1,0.9c0,0.3-0.1,0.5-0.4,0.7l1.2,2.6C344.3,300.8,344.8,301.9,345.5,301.6z"/>
	<path fill="#F6B40E" d="M330.8,264.4l4.4,11.9c0.6,0.2,1.2,0.4,2,0.6l-4.9-13.2C331.8,263.9,331.3,264.2,330.8,264.4z"/>
	<path fill="#F6B40E" d="M328.1,265.5l4.7,10.3c0.5,0.1,1.1,0.2,1.9,0.4l-5.2-11.3C329.1,265.1,328.6,265.3,328.1,265.5z"/>
	<path fill="#F6B40E" d="M325.9,266c0.6,7.6,4.5,12.2,2.6,17.8c0.8-7-2.8-10.8-4.1-17.6c-0.6,0.1-1.2,0.2-1.7,0.2
		c1.1,6.3,4.7,10.8,4.2,17.4c-0.8,8.2,3.6,12.7,4.8,15.8c1,3.2-1.2,5-0.3,5.5c0.4,0.2,1.1-0.2,1.6-1.1c-0.5-0.3-0.7-0.6-0.7-0.8
		c0-0.3,0.6-0.8,1.4-1.2c0.2-0.9,0.2-2.1,0-3.4c-0.7-4.4-4-5.8-3.3-15.6c0-0.5,0.1-1.1,0.1-1.6c-0.1-0.6-0.2-1.4-0.3-2.1
		c-0.1-1.4-0.2-2.1-0.1-2.6c-0.8-4.2-2.5-6.9-2.7-11.3C326.9,265.8,326.4,265.9,325.9,266z"/>
	<path fill="#F6B40E" d="M320,285l-0.7-18.3c-0.5,0-1.1,0-1.6-0.1l1.5,38.8c0,0,0,1.2,0.8,1.3c0.9-0.1,0.8-1.2,0.8-1.2l1.5-38.9
		c-0.5,0-1.1,0.1-1.7,0.1L320,285z"/>
	<path fill="#F6B40E" d="M311.1,283.8c3.5-6.2,1.5-11.1,3-17.8c-0.6-0.1-1.1-0.3-1.7-0.4c-1.4,6.3,0.2,11.8-2.8,17.7
		c-3.8,7.2-1.5,13.1-1.6,16.5c-0.3,3.3-3.1,4.1-2.4,4.9c0.7,0.8,3.4-0.8,4.6-5.1c1.1-4.3-1.5-6.9,3-15.7c3.8-7.5,1.9-11.5,3.9-17.3
		c-0.5-0.1-1-0.1-1.6-0.2C313.1,273.6,315,279.3,311.1,283.8z"/>
	<path fill="#F6B40E" d="M302.8,281.5l6.4-17.2c-0.5-0.2-1-0.4-1.4-0.7l-13.5,36.4c0,0-0.5,1.2,0.3,1.5c0.8,0.3,1.2-0.8,1.2-0.8
		l16.2-35.4c-0.5-0.2-1-0.4-1.6-0.6L302.8,281.5z"/>
	<path fill="#F6B40E" d="M295,277.1c5.6-4.4,5.6-9.7,9.5-15.3c-0.5-0.3-0.9-0.7-1.4-1.1c-3.7,5.3-4.3,11-9.4,15.3
		c-6.3,5.2-6.4,11.5-7.8,14.6c-1.6,2.9-4.4,2.6-4.1,3.7c0.3,1,3.5,0.6,6.2-3c2.6-3.6,1.2-6.9,8.8-13.4c6.4-5.5,6.1-9.9,10.2-14.5
		c-0.5-0.3-0.9-0.5-1.4-0.8C300.8,268.4,300.4,274.4,295,277.1z"/>
	<path fill="#F6B40E" d="M288.2,271.8l12.5-13.4c-0.4-0.4-0.7-0.8-1.1-1.2l-26.4,28.5c0,0-0.9,0.9-0.3,1.5c0.6,0.6,1.4-0.3,1.4-0.3
		l28.6-26.5c-0.4-0.4-0.8-0.7-1.2-1.1L288.2,271.8z"/>
	<path fill="#F6B40E" d="M282.7,264.7c6.8-1.9,8.9-6.8,14.7-10.5c-0.3-0.5-0.6-1-0.9-1.5c-5.4,3.5-8.2,8.5-14.5,10.5
		c-7.8,2.4-10.3,8.2-12.8,10.5c-2.6,2.1-5.1,0.8-5.2,1.8c-0.1,1.1,3,1.9,6.9-0.4c3.8-2.3,3.8-5.9,13.2-9c8-2.6,9.4-6.8,15-9.5
		c-0.3-0.4-0.6-0.8-0.9-1.3C291.4,258.9,288.7,264.3,282.7,264.7z"/>
	<path fill="#85340A" d="M329.6,264.9l5.2,11.3c0.2,0,0.3,0.1,0.5,0.1l-4.4-11.9C330.4,264.6,330,264.8,329.6,264.9z"/>
	<path fill="#85340A" d="M328.5,283.9c1.9-5.6-2.1-10.2-2.6-17.8c-0.5,0.1-1,0.2-1.4,0.3C325.7,273,329.4,276.9,328.5,283.9z"/>
	<path fill="#85340A" d="M315.5,266.3c-0.5-0.1-1-0.2-1.4-0.3c-1.4,6.7,0.5,11.6-3,17.8C315,279.3,313.1,273.6,315.5,266.3z"/>
	<path fill="#85340A" d="M320.6,266.7c-0.2,0-0.4,0-0.6,0c-0.2,0-0.5,0-0.7,0L320,285L320.6,266.7z"/>
	<path fill="#85340A" d="M295,277.1c5.3-2.6,5.8-8.7,10.8-14.5c-0.4-0.3-0.8-0.5-1.2-0.8C300.7,267.4,300.6,272.7,295,277.1z"/>
	<path fill="#85340A" d="M310.4,264.9c-0.4-0.2-0.8-0.3-1.2-0.5l-6.4,17.2L310.4,264.9z"/>
	<path fill="#85340A" d="M298.2,255.4c-0.3-0.4-0.6-0.8-0.8-1.2c-5.7,3.7-7.9,8.6-14.7,10.5C288.7,264.3,291.4,258.9,298.2,255.4z"
		/>
	<path fill="#85340A" d="M301.6,259.3c-0.3-0.3-0.6-0.6-1-1l-12.5,13.4L301.6,259.3z"/>
	<path fill="#F6B40E" d="M276.1,248.5c7,0.8,10.8-2.8,17.6-4.1c-0.1-0.6-0.2-1.2-0.2-1.7c-6.3,1.1-10.8,4.7-17.4,4.2
		c-8.2-0.8-12.7,3.6-15.8,4.8c-3.2,1-5-1.2-5.5-0.3s2,2.9,6.5,2.3c4.4-0.7,5.8-4,15.6-3.3c8.4,0.7,11.3-2.7,17.5-3
		c-0.1-0.5-0.3-1-0.4-1.5C286.3,246.5,281.8,250.5,276.1,248.5z"/>
	<path fill="#F6B40E" d="M278.4,257.2l16.6-7.6c-0.2-0.5-0.4-1-0.5-1.5l-35.3,16.2c0,0-1.2,0.5-0.9,1.2c0.4,0.8,1.4,0.3,1.4,0.3
		l36.5-13.5c-0.3-0.5-0.5-1-0.7-1.5L278.4,257.2z"/>
	<path fill="#F6B40E" d="M293.3,240.6L275,240l18.3-0.7c0-0.5,0-1.1,0.1-1.6l-36.1,1.4c0.1,0.4,0.1,0.8,0.2,1.1
		c0,0.3,0.1,0.5,0.1,0.8l35.8,1.4C293.4,241.8,293.3,241.2,293.3,240.6z"/>
	<path fill="#F6B40E" d="M260.5,230.2c4.3,1.1,6.9-1.5,15.7,3c7.5,3.8,11.5,1.9,17.3,3.9c0.1-0.5,0.1-1,0.2-1.6
		c-7.3-2.4-13-0.5-17.5-4.4c6.2,3.5,11.1,1.5,17.8,3c0.1-0.6,0.3-1.1,0.4-1.7c-6.3-1.4-11.8,0.2-17.7-2.8
		c-7.2-3.8-13.1-1.5-16.5-1.6c-2.5-0.2-3.6-1.9-4.3-2.3c0,1,0.1,1.8,0.2,2.3C257,228.8,258.5,229.7,260.5,230.2z"/>
	<path fill="#F6B40E" d="M282.9,215c4.4,5.6,9.7,5.6,15.3,9.5c0.3-0.5,0.7-0.9,1.1-1.4c-5.3-3.7-11-4.3-15.3-9.4
		c-5.2-6.3-11.5-6.4-14.6-7.8c-2.9-1.6-2.6-4.4-3.7-4.1c-1,0.3-0.6,3.5,3,6.2c3.6,2.6,6.9,1.2,13.4,8.8c5.5,6.4,9.9,6.1,14.5,10.2
		c0.3-0.5,0.5-0.9,0.8-1.4C291.6,220.8,285.6,220.4,282.9,215z"/>
	<path fill="#F6B40E" d="M278.5,222.8l17.2,6.4c0.2-0.5,0.4-1,0.7-1.4l-36.4-13.5c0,0-1.2-0.5-1.5,0.3c-0.3,0.8,0.8,1.2,0.8,1.2
		l35.4,16.2c0.2-0.5,0.4-1,0.6-1.6L278.5,222.8z"/>
	<path fill="#F6B40E" d="M288.2,208.2l13.4,12.5c0.4-0.4,0.8-0.7,1.2-1.1l-28.5-26.4c0,0-0.9-0.9-1.5-0.3c-0.6,0.6,0.3,1.4,0.3,1.4
		l26.5,28.6c0.4-0.4,0.7-0.8,1.1-1.2L288.2,208.2z"/>
	<path fill="#F6B40E" d="M295.3,202.7c1.9,6.8,6.8,8.9,10.5,14.7c0.5-0.3,1-0.6,1.5-0.9c-3.5-5.4-8.5-8.2-10.5-14.5
		c-2.4-7.8-8.2-10.3-10.5-12.8c-2.1-2.6-0.8-5.1-1.8-5.2c-1.1-0.1-1.9,3,0.4,6.9c2.3,3.8,5.9,3.8,9,13.2c2.6,8,6.8,9.4,9.5,15
		c0.4-0.3,0.8-0.6,1.3-0.9C301.1,211.4,295.7,208.7,295.3,202.7z"/>
	<path fill="#85340A" d="M295.6,250.8c-0.2-0.4-0.4-0.8-0.5-1.2l-16.6,7.6L295.6,250.8z"/>
	<path fill="#85340A" d="M276.1,248.5c5.6,1.9,10.2-2.1,17.8-2.6c-0.1-0.5-0.2-1-0.3-1.4C287,245.7,283.1,249.4,276.1,248.5z"/>
	<path fill="#85340A" d="M276.2,231.1c4.5,3.9,10.2,2,17.5,4.4c0.1-0.5,0.2-1,0.3-1.4C287.3,232.6,282.4,234.6,276.2,231.1z"/>
	<path fill="#85340A" d="M293.3,239.3L275,240l18.3,0.7c0-0.2,0-0.4,0-0.6C293.3,239.8,293.3,239.5,293.3,239.3z"/>
	<path fill="#85340A" d="M295.1,230.4c0.2-0.4,0.3-0.8,0.5-1.2l-17.2-6.4L295.1,230.4z"/>
	<path fill="#85340A" d="M282.9,215c2.6,5.3,8.7,5.8,14.5,10.8c0.3-0.4,0.5-0.8,0.8-1.2C292.6,220.7,287.3,220.6,282.9,215z"/>
	<path fill="#85340A" d="M300.7,221.6c0.3-0.3,0.6-0.6,1-1l-13.4-12.5L300.7,221.6z"/>
	<path fill="#85340A" d="M304.6,218.2c0.4-0.3,0.8-0.6,1.2-0.8c-3.7-5.7-8.6-7.9-10.5-14.7C295.7,208.7,301.1,211.4,304.6,218.2z"/>
	<path fill="#F6B40E" d="M302.8,198.4l7.6,16.6c0.5-0.2,1-0.4,1.5-0.5l-16.2-35.3c0,0-0.5-1.2-1.2-0.9c-0.8,0.4-0.3,1.4-0.3,1.4
		l13.5,36.5c0.5-0.3,1-0.5,1.5-0.7L302.8,198.4z"/>
	<path fill="#F6B40E" d="M311.5,196.1c-0.8,7,2.8,10.8,4.1,17.6c0.6-0.1,1.2-0.2,1.7-0.2c-1.1-6.3-4.7-10.8-4.2-17.4
		c0.8-8.2-3.6-12.7-4.8-15.8c-1-3.2,1.2-5,0.3-5.5c-1-0.5-2.9,2-2.3,6.5c0.7,4.4,4,5.8,3.3,15.6c-0.7,8.4,2.7,11.3,3,17.5
		c0.5-0.1,1-0.3,1.5-0.4C313.5,206.3,309.5,201.8,311.5,196.1z"/>
	<path fill="#F6B40E" d="M320,195l0.7,18.3c0.5,0,1.1,0,1.6,0.1l-1.5-38.8c0,0,0-1.2-0.8-1.3c-0.9,0.1-0.8,1.2-0.8,1.2l-1.5,38.9
		c0.5,0,1.1-0.1,1.7-0.1L320,195z"/>
	<path fill="#F6B40E" d="M328.9,196.2c-3.5,6.2-1.5,11.1-3,17.8c0.6,0.1,1.1,0.3,1.7,0.4c1.4-6.3-0.2-11.8,2.8-17.7
		c3.8-7.2,1.5-13.1,1.6-16.5c0.3-3.3,3.1-4.1,2.4-4.9s-3.4,0.8-4.6,5.1c-1.1,4.3,1.5,6.9-3,15.7c-3.8,7.5-1.9,11.5-3.9,17.3
		c0.5,0.1,1,0.1,1.6,0.2C326.9,206.4,325,200.7,328.9,196.2z"/>
	<path fill="#F6B40E" d="M337.2,198.5l-6.4,17.2c0.5,0.2,1,0.4,1.4,0.7l13.5-36.4c0,0,0.5-1.2-0.3-1.5c-0.8-0.3-1.2,0.8-1.2,0.8
		l-16.2,35.4c0.5,0.2,1,0.4,1.6,0.6L337.2,198.5z"/>
	<path fill="#F6B40E" d="M345,202.9c-5.6,4.4-5.6,9.7-9.5,15.3c0.5,0.3,0.9,0.7,1.4,1.1c3.7-5.3,4.3-11,9.4-15.3
		c6.3-5.2,6.4-11.5,7.8-14.6c1.6-2.9,4.4-2.6,4.1-3.7c-0.3-1-3.5-0.6-6.2,3c-2.6,3.6-1.2,6.9-8.8,13.4c-6.4,5.5-6.1,9.9-10.2,14.5
		c0.5,0.3,0.9,0.5,1.4,0.8C339.2,211.6,339.6,205.6,345,202.9z"/>
	<path fill="#F6B40E" d="M351.8,208.2l-12.5,13.4c0.4,0.4,0.7,0.8,1.1,1.2l26.4-28.5c0,0,0.9-0.9,0.3-1.5c-0.6-0.6-1.4,0.3-1.4,0.3
		l-28.6,26.5c0.4,0.4,0.8,0.7,1.2,1.1L351.8,208.2z"/>
	<path fill="#F6B40E" d="M357.3,215.3c-6.8,1.9-8.9,6.8-14.7,10.5c0.3,0.5,0.6,1,0.9,1.5c5.4-3.5,8.2-8.5,14.5-10.5
		c7.8-2.4,10.3-8.2,12.8-10.5c2.6-2.1,5.1-0.8,5.2-1.8s-3-1.9-6.9,0.4c-3.8,2.3-3.8,5.9-13.2,9c-8,2.6-9.4,6.8-15,9.5
		c0.3,0.4,0.6,0.8,0.9,1.3C348.6,221.1,351.3,215.7,357.3,215.3z"/>
	<path fill="#85340A" d="M311.5,196.1c-1.9,5.6,2.1,10.2,2.6,17.8c0.5-0.1,1-0.2,1.4-0.3C314.3,207,310.6,203.1,311.5,196.1z"/>
	<path fill="#85340A" d="M309.2,215.6c0.4-0.2,0.8-0.4,1.2-0.5l-7.6-16.6L309.2,215.6z"/>
	<path fill="#85340A" d="M319.4,213.3c0.2,0,0.4,0,0.6,0c0.2,0,0.5,0,0.7,0L320,195L319.4,213.3z"/>
	<path fill="#85340A" d="M324.5,213.7c0.5,0.1,1,0.2,1.4,0.3c1.4-6.7-0.5-11.6,3-17.8C325,200.7,326.9,206.4,324.5,213.7z"/>
	<path fill="#85340A" d="M329.6,215.1c0.4,0.2,0.8,0.3,1.2,0.5l6.4-17.2L329.6,215.1z"/>
	<path fill="#85340A" d="M345,202.9c-5.3,2.6-5.8,8.7-10.8,14.5c0.4,0.3,0.8,0.5,1.2,0.8C339.3,212.6,339.4,207.3,345,202.9z"/>
	<path fill="#85340A" d="M338.4,220.7c0.3,0.3,0.6,0.6,1,1l12.5-13.4L338.4,220.7z"/>
	<path fill="#85340A" d="M341.8,224.6c0.3,0.4,0.6,0.8,0.8,1.2c5.7-3.7,7.9-8.6,14.7-10.5C351.3,215.7,348.6,221.1,341.8,224.6z"/>
	<path fill="#F6B40E" d="M363.9,231.5c-7-0.8-10.8,2.8-17.6,4.1c0.1,0.6,0.2,1.2,0.2,1.7c6.3-1.1,10.8-4.7,17.4-4.2
		c8.2,0.8,12.7-3.6,15.8-4.8c3.2-1,5,1.2,5.5,0.3c0.5-1-2-2.9-6.5-2.3c-4.4,0.7-5.8,4-15.6,3.3c-8.4-0.7-11.3,2.7-17.5,3
		c0.1,0.5,0.3,1,0.4,1.5C353.7,233.5,358.2,229.5,363.9,231.5z"/>
	<path fill="#F6B40E" d="M361.6,222.8l-16.6,7.6c0.2,0.5,0.4,1,0.5,1.5l35.3-16.2c0,0,1.2-0.5,0.9-1.2c-0.4-0.8-1.4-0.3-1.4-0.3
		l-36.5,13.5c0.3,0.5,0.5,1,0.7,1.5L361.6,222.8z"/>
	<path fill="#F6B40E" d="M346.5,242.9c-0.1,0.5-0.1,1-0.2,1.6c7.3,2.4,13,0.5,17.5,4.4c-6.2-3.5-11.1-1.5-17.8-3
		c-0.1,0.6-0.3,1.1-0.4,1.7c6.3,1.4,11.8-0.2,17.7,2.8c0.7,0.4,1.5,0.7,2.2,1c-0.1-0.5-0.1-1-0.1-1.6c0-1,0.1-1.7,0.2-2.1
		c-0.6-0.2-1.1-0.5-1.8-0.8C356.3,243,352.3,245,346.5,242.9z"/>
	<path fill="#F6B40E" d="M365,240l-18.3,0.7c0,0.5,0,1.1-0.1,1.6l38.8-1.5c0,0,1.2,0,1.3-0.8c-0.1-0.9-1.2-0.8-1.2-0.8l-38.9-1.5
		c0,0.5,0.1,1.1,0.1,1.7L365,240z"/>
	<path fill="#F6B40E" d="M368.4,248.7c0.7,0.5,1.6,1,2.4,1.2c2.1,0.6,5.6,0.7,10,0.3c-0.4-0.1-0.8-0.3-1.2-0.4
		C376.1,248.9,373.7,250.4,368.4,248.7z"/>
	<path fill="#F6B40E" d="M344.9,249.6l16.6,7.6l-17.2-6.4c-0.2,0.5-0.4,1-0.7,1.4l24.6,9.1c0.1-0.3,0.1-0.7,0.2-1.1
		c0.1-0.7,0.2-1.2,0.2-1.6l-23.3-10.7C345.3,248.6,345.1,249.1,344.9,249.6z"/>
	<path fill="#F6B40E" d="M357.9,263.1c-5.5-6.4-9.9-6.1-14.5-10.2c-0.3,0.5-0.5,0.9-0.8,1.4c5.8,5,11.8,5.4,14.5,10.8
		c-4.4-5.6-9.7-5.6-15.3-9.5c-0.3,0.5-0.7,0.9-1.1,1.4c5.3,3.7,11,4.3,15.3,9.4c2.9,3.5,6.2,5.1,9,6.1c-0.3-0.6-0.5-1-0.7-1.2
		c-0.4-0.2-0.5-1.6-0.3-2.6C362.3,267.5,360.3,265.9,357.9,263.1z"/>
	<path fill="#F6B40E" d="M339.3,258.4l12.5,13.4l-13.4-12.5c-0.4,0.4-0.8,0.7-1.2,1.1l20.9,19.4c0.6-0.2,1.3-0.5,2.2-0.9
		c0.1,0,0.1-0.1,0.2-0.1l-20.1-21.7C340.1,257.6,339.7,258,339.3,258.4z"/>
	<path fill="#F6B40E" d="M336.7,260.8c-0.4,0.3-0.8,0.6-1.3,0.9c3.4,6.8,8.9,9.5,9.3,15.5c-1.9-6.8-6.8-8.9-10.5-14.7
		c-0.5,0.3-1,0.6-1.5,0.9c3.5,5.4,8.5,8.2,10.5,14.5c0.2,0.5,0.3,1,0.5,1.5c0.2,0.1,0.5,0.3,0.6,0.4l2,1.4l2-0.1
		c-0.8-1.4-1.6-3.1-2.3-5.4C343.6,267.8,339.3,266.4,336.7,260.8z"/>
	<path fill="#85340A" d="M363.9,231.5c-5.6-1.9-10.2,2.1-17.8,2.6c0.1,0.5,0.2,1,0.3,1.4C353,234.3,356.9,230.6,363.9,231.5z"/>
	<path fill="#85340A" d="M344.4,229.2c0.2,0.4,0.4,0.8,0.5,1.2l16.6-7.6L344.4,229.2z"/>
	<path fill="#85340A" d="M363.8,248.9c-4.5-3.9-10.2-2-17.5-4.4c-0.1,0.5-0.2,1-0.3,1.4C352.7,247.4,357.6,245.4,363.8,248.9z"/>
	<path fill="#85340A" d="M346.7,239.4c0,0.2,0,0.4,0,0.6c0,0.2,0,0.5,0,0.7L365,240L346.7,239.4z"/>
	<path fill="#85340A" d="M361.5,257.2l-16.6-7.6c-0.2,0.4-0.3,0.8-0.5,1.2L361.5,257.2z"/>
	<path fill="#85340A" d="M357.1,265c-2.6-5.3-8.7-5.8-14.5-10.8c-0.3,0.4-0.5,0.8-0.8,1.2C347.4,259.3,352.7,259.4,357.1,265z"/>
	<path fill="#85340A" d="M338.4,259.4l13.4,12.5l-12.5-13.4C339,258.7,338.7,259.1,338.4,259.4z"/>
	<path fill="#85340A" d="M344.7,277.3c-0.4-5.9-5.8-8.6-9.3-15.5c-0.4,0.3-0.8,0.6-1.2,0.8C337.9,268.3,342.8,270.5,344.7,277.3z"/>
	<path fill="#F6B40E" d="M320,252.7c-1.7,0-2.5-1.3-6.2-0.5h0.2c3.6,0,2.5,2.3,6,2.3c3.4,0,2.5-2.3,5.9-2.3
		C322.4,251.5,321.6,252.7,320,252.7z"/>
	<path fill="#F6B40E" d="M313.8,252.2c1.6-0.4,2.6-0.6,3.4-0.6l0,0c1.4-0.1,2,0.2,2.8,0.2c1.2,0,2.1-0.8,6,0.4c0.3,0,0.5,0,0.8,0
		c-1-0.4-1.9-1.2-3.3-2c-1.5-0.8-2.7,0.2-3.5,0.2s-2.1-1-3.5-0.2c-1.4,0.8-2.3,1.6-3.3,2H313.8z"/>
	<path fill="#F6B40E" d="M309,236.3c0-0.6,0.3-1.2,0.8-1.5c-1.2,0.2-2.2,0.9-2.9,1.9c0.9,0.7,1.9,1.1,3,1.2
		C309.4,237.6,309,237,309,236.3z"/>
	<path fill="#F6B40E" d="M312.8,236.3c0,0.6-0.3,1.1-0.7,1.4c0.8-0.3,1.5-0.7,2.2-1.4c-0.1-0.6-1-1.1-2.1-1.4
		C312.6,235.2,312.8,235.7,312.8,236.3z"/>
	<path fill="#F6B40E" d="M293.7,235.5c-0.1,0.5-0.2,1-0.2,1.6c0,0.2,0,0.4-0.1,0.6c0,0.5-0.1,1.1-0.1,1.6c0,0.2,0,0.5,0,0.7
		c0,0.2,0,0.4,0,0.6c0,0.6,0,1.1,0.1,1.7c0,0.1,0,0.3,0,0.4c0.1,0.6,0.1,1.2,0.2,1.7c0.1,0.5,0.2,1,0.3,1.4c0.1,0.5,0.2,1,0.4,1.5
		c0.1,0.2,0.1,0.4,0.2,0.6c0.2,0.5,0.3,1,0.5,1.5c0.2,0.4,0.3,0.8,0.5,1.2c0.2,0.5,0.5,1,0.7,1.5c0.1,0.1,0.1,0.3,0.2,0.4
		c0.3,0.5,0.6,1,0.9,1.5c0.3,0.4,0.5,0.8,0.8,1.2c0.3,0.4,0.6,0.8,0.9,1.3c0.1,0.2,0.3,0.3,0.4,0.5c0.3,0.4,0.7,0.8,1.1,1.2
		c0.3,0.3,0.6,0.6,1,1c0.4,0.4,0.8,0.8,1.2,1.1c0.1,0.1,0.2,0.2,0.3,0.3c0.5,0.4,0.9,0.7,1.4,1.1c0.4,0.3,0.8,0.6,1.2,0.8
		c0.4,0.3,0.9,0.5,1.4,0.8c0.2,0.1,0.4,0.2,0.6,0.3c0.5,0.2,1,0.5,1.4,0.7c0.4,0.2,0.8,0.4,1.2,0.5c0.5,0.2,1,0.4,1.6,0.6
		c0.1,0,0.3,0.1,0.4,0.1c0.6,0.2,1.1,0.3,1.7,0.4c0.5,0.1,1,0.2,1.4,0.3c0.5,0.1,1,0.2,1.6,0.2c0.2,0,0.4,0,0.6,0.1
		c0.5,0,1.1,0.1,1.6,0.1c0.2,0,0.5,0,0.7,0c0.2,0,0.4,0,0.6,0c0.6,0,1.1,0,1.7-0.1c0.1,0,0.3,0,0.4,0c0.6-0.1,1.2-0.1,1.7-0.2
		c0.5-0.1,1-0.2,1.4-0.3c0.5-0.1,1-0.2,1.5-0.4c0.2-0.1,0.4-0.1,0.6-0.2c0.5-0.2,1-0.3,1.5-0.5c0.4-0.2,0.8-0.3,1.2-0.5
		c0.5-0.2,1-0.5,1.5-0.7c0.1-0.1,0.3-0.1,0.4-0.2c0.5-0.3,1-0.6,1.5-0.9c0.4-0.3,0.8-0.5,1.2-0.8c0.4-0.3,0.8-0.6,1.3-0.9
		c0.2-0.1,0.3-0.3,0.5-0.4c0.4-0.3,0.8-0.7,1.2-1.1c0.3-0.3,0.6-0.6,1-1c0.4-0.4,0.8-0.8,1.1-1.2c0.1-0.1,0.2-0.2,0.3-0.3
		c0.4-0.5,0.7-0.9,1.1-1.4c0.3-0.4,0.6-0.8,0.8-1.2c0.3-0.4,0.5-0.9,0.8-1.4c0.1-0.2,0.2-0.4,0.3-0.6c0.2-0.5,0.5-1,0.7-1.4
		c0.2-0.4,0.4-0.8,0.5-1.2c0.2-0.5,0.4-1,0.6-1.6c0-0.1,0.1-0.3,0.1-0.4c0.2-0.6,0.3-1.1,0.4-1.7c0.1-0.5,0.2-1,0.3-1.4
		c0.1-0.5,0.2-1,0.2-1.6c0-0.2,0-0.4,0.1-0.6c0-0.5,0.1-1.1,0.1-1.6c0-0.2,0-0.5,0-0.7c0-0.2,0-0.4,0-0.6c0-0.6,0-1.1-0.1-1.7
		c0-0.1,0-0.3,0-0.4c-0.1-0.6-0.1-1.2-0.2-1.7c-0.1-0.5-0.2-1-0.3-1.4c-0.1-0.5-0.2-1-0.4-1.5c-0.1-0.2-0.1-0.4-0.2-0.6
		c-0.2-0.5-0.3-1-0.5-1.5c-0.2-0.4-0.3-0.8-0.5-1.2c-0.2-0.5-0.5-1-0.7-1.5c-0.1-0.1-0.1-0.3-0.2-0.4c-0.3-0.5-0.6-1-0.9-1.5
		c-0.3-0.4-0.5-0.8-0.8-1.2c-0.3-0.4-0.6-0.8-0.9-1.3c-0.1-0.2-0.3-0.3-0.4-0.5c-0.3-0.4-0.7-0.8-1.1-1.2c-0.3-0.3-0.6-0.6-1-1
		c-0.4-0.4-0.8-0.8-1.2-1.1c-0.1-0.1-0.2-0.2-0.3-0.3c-0.5-0.4-0.9-0.7-1.4-1.1c-0.4-0.3-0.8-0.6-1.2-0.8c-0.4-0.3-0.9-0.5-1.4-0.8
		c-0.2-0.1-0.4-0.2-0.6-0.3c-0.5-0.2-1-0.5-1.4-0.7c-0.4-0.2-0.8-0.4-1.2-0.5c-0.5-0.2-1-0.4-1.6-0.6c-0.1,0-0.3-0.1-0.4-0.1
		c-0.6-0.2-1.1-0.3-1.7-0.4c-0.5-0.1-1-0.2-1.4-0.3c-0.5-0.1-1-0.2-1.6-0.2c-0.2,0-0.4,0-0.6-0.1c-0.5,0-1.1-0.1-1.6-0.1
		c-0.2,0-0.5,0-0.7,0c-0.2,0-0.4,0-0.6,0c-0.6,0-1.1,0-1.7,0.1c-0.1,0-0.3,0-0.4,0c-0.6,0.1-1.2,0.1-1.7,0.2c-0.5,0.1-1,0.2-1.4,0.3
		c-0.5,0.1-1,0.2-1.5,0.4c-0.2,0.1-0.4,0.1-0.6,0.2c-0.5,0.2-1,0.3-1.5,0.5c-0.4,0.2-0.8,0.3-1.2,0.5c-0.5,0.2-1,0.5-1.5,0.7
		c-0.1,0.1-0.3,0.1-0.4,0.2c-0.5,0.3-1,0.6-1.5,0.9c-0.4,0.3-0.8,0.5-1.2,0.8c-0.4,0.3-0.8,0.6-1.3,0.9c-0.2,0.1-0.3,0.3-0.5,0.4
		c-0.4,0.3-0.8,0.7-1.2,1.1c-0.3,0.3-0.6,0.6-1,1c-0.4,0.4-0.8,0.8-1.1,1.2c-0.1,0.1-0.2,0.2-0.3,0.3c-0.4,0.5-0.7,0.9-1.1,1.4
		c-0.3,0.4-0.6,0.8-0.8,1.2c-0.3,0.4-0.5,0.9-0.8,1.4c-0.1,0.2-0.2,0.4-0.3,0.6c-0.2,0.5-0.5,1-0.7,1.4c-0.2,0.4-0.4,0.8-0.5,1.2
		c-0.2,0.5-0.4,1-0.6,1.6c0,0.1-0.1,0.3-0.1,0.4c-0.2,0.6-0.3,1.1-0.4,1.7C293.9,234.5,293.8,235,293.7,235.5z M310.8,233
		c2.7,0,3.3,0.7,4.5,1.7s1.9,0.8,2,1c0.3,0.2,0,0.8-0.3,0.6c-0.5-0.2-1.3-0.6-2.5-1.6s-2.5-1-3.7-1c-3.7,0-5.7,3-6.2,2.8
		C304.3,236.3,306.7,233,310.8,233z M315.1,244.9c0,0.6,0.6,1.2,1.2,1.2c0,0,0.1,0,0.1,0c0.7,0,1.2-0.5,1.2-1.2
		c0.5,1,1.4,1.6,2.5,1.7c1.1,0,2.1-0.7,2.6-1.7c0,0,0,0,0,0c0,0.7,0.5,1.2,1.2,1.2c0.7,0,1.2-0.6,1.2-1.2c0-0.6-0.3-1-0.8-1.3
		c0.5,0.1,1,0.3,1.3,0.8c0.6,0.8,0.4,2-0.4,2.7c-0.8,0.6-2,0.4-2.7-0.4c-0.7,0.4-1.5,0.6-2.3,0.6H320c-0.8,0-1.5-0.2-2.2-0.6
		c-0.3,0.5-0.8,0.8-1.4,0.9c-1,0.1-2-0.7-2.1-1.7c-0.1-1,0.6-1.9,1.5-2c0,0,0,0,0.1,0h0.1c-0.1,0-0.1,0-0.2,0
		C315.4,243.9,315.1,244.3,315.1,244.9z M329.4,233c4.1,0,6.5,3.3,6.2,3.5c-0.5,0.2-2.5-2.8-6.2-2.8c-1.2,0-2.5,0-3.7,1
		s-2,1.4-2.5,1.6c-0.3,0.2-0.6-0.4-0.3-0.6c0.1-0.2,0.8,0,2-1S326.7,233,329.4,233z M324.5,236.7c1-1.6,2.8-2.4,4.6-2.4
		c1.9,0,3.8,0.8,5.1,2.2c-1.4,1-3,1.5-4.7,1.6c-0.2,0.1-0.4,0.1-0.5,0.1c-0.2,0-0.3,0-0.5-0.1C326.9,238.1,325.4,237.6,324.5,236.7z
		 M310.9,238.2c-0.2,0-0.3,0-0.5-0.1c-1.7,0-3.4-0.5-4.3-1.4c1-1.6,2.8-2.4,4.6-2.4c1.9,0,3.8,0.8,5.1,2.2c-1.2,0.9-2.7,1.4-4.2,1.6
		C311.4,238.1,311.1,238.2,310.9,238.2z M305.9,237.5c4.1,1.7,6.5,1.7,8.2,0.9c1.6-0.9,2-1.3,2.4-1.3c0.4,0,0.4,0.4-1.6,1.7
		C312.9,240,309.4,240.2,305.9,237.5z M320.9,256.1c-2-0.5-4.1,0.8-4.6,2.8c0-2,1.7-3.7,3.7-3.7c2,0,3.7,1.7,3.7,3.7
		C323.4,257.5,322.3,256.4,320.9,256.1z M320,255.2c-4.5,0-2.5-2.5-6.8-3c1.8-1.2,2.7-3,4.8-3v-0.1c0.7,0.1,1.4,0.3,2,0.7
		c0.6-0.3,1.3-0.5,2-0.6c2.1,0,2.9,1.8,4.8,3C322.5,252.7,324.5,255.2,320,255.2z M325.3,238.8c-2-1.3-2-1.7-1.6-1.7
		c0.4,0,0.8,0.4,2.4,1.3c1.7,0.8,4.1,0.8,8.2-0.9C330.8,240.2,327.3,240,325.3,238.8z M336.8,234.2L336.8,234.2
		c-4.7-4-10.7-4.7-14-1.6c-0.8,1-1.3,2.2-1.5,3.5c-0.4,2.3,0.3,4.8,2.1,7.4l-0.8,0.4c-1.6-2.9-2.1-6.2-1.6-9.4
		c0.1-0.8,0.3-1.6,0.6-2.3C326.1,228.5,332.3,228.2,336.8,234.2z M318.6,232.2c0.3,0.7,0.5,1.5,0.6,2.3c0.5,3.2,0,6.5-1.6,9.4
		l-0.8-0.4c1.8-2.6,2.5-5.1,2.1-7.4c-0.2-1.3-0.7-2.5-1.5-3.5c-3.3-3.1-9.3-2.4-14,1.7l0-0.1C307.9,228.2,314.1,228.5,318.6,232.2z"
		/>
	<path fill="#F6B40E" d="M332.7,236.3c-0.2-0.6-1.3-1.3-2.5-1.5c0.4,0.3,0.7,0.9,0.7,1.5c0,0.6-0.3,1.2-0.8,1.5
		C331.1,237.6,332,237.1,332.7,236.3z"/>
	<path fill="#F6B40E" d="M325.3,236.7c0.8,0.6,1.7,1,2.6,1.2c-0.5-0.3-0.8-0.9-0.8-1.6c0-0.6,0.3-1.1,0.7-1.4
		C326.8,235.2,325.9,235.8,325.3,236.7z"/>
	<path fill="#843511" d="M327.9,237.9c-0.9-0.2-1.9-0.6-2.6-1.2c0.6-0.9,1.5-1.5,2.5-1.8c0.3-0.3,0.8-0.5,1.2-0.5
		c0.4,0,0.8,0.2,1.2,0.4c1.3,0.2,2.4,0.9,2.5,1.5c-0.7,0.8-1.6,1.3-2.6,1.5c-0.2,0.1-0.4,0.2-0.6,0.3c1.6-0.1,3.3-0.6,4.7-1.6
		c-1.3-1.4-3.2-2.2-5.1-2.2c-1.8,0-3.6,0.8-4.6,2.4c0.9,0.9,2.4,1.4,4,1.4C328.3,238.1,328.1,238,327.9,237.9z"/>
	<path fill="#85340A" d="M324.9,234.7c-1.2,1-1.9,0.8-2,1c-0.3,0.2,0,0.8,0.3,0.6c0.5-0.2,1.3-0.6,2.5-1.6s2.5-1,3.7-1
		c3.7,0,5.7,3,6.2,2.8c0.3-0.2-2.1-3.5-6.2-3.5C326.7,233,326.1,233.7,324.9,234.7z"/>
	<path fill="#85340A" d="M321.6,232.2c-0.3,0.7-0.5,1.5-0.6,2.3c-0.5,3.2,0,6.5,1.6,9.4l0.8-0.4c-1.8-2.6-2.5-5.1-2.1-7.4
		c0.2-1.3,0.7-2.5,1.5-3.5c3.3-3.1,9.3-2.4,14,1.7v-0.1C332.3,228.2,326.1,228.5,321.6,232.2z"/>
	<path fill="#85340A" d="M329.5,238.1c0.2-0.1,0.4-0.1,0.6-0.3c0.5-0.3,0.8-0.9,0.8-1.5c0-0.6-0.3-1.1-0.7-1.5
		c-0.3-0.3-0.7-0.4-1.2-0.4c-0.5,0-0.9,0.2-1.2,0.5c-0.4,0.3-0.7,0.9-0.7,1.4c0,0.6,0.3,1.2,0.8,1.6c0.2,0.1,0.4,0.2,0.6,0.3
		c0.2,0,0.3,0.1,0.5,0.1C329.2,238.2,329.4,238.2,329.5,238.1z"/>
	<path fill="#85340A" d="M326.1,238.4c-1.6-0.9-2-1.3-2.4-1.3c-0.4,0-0.4,0.4,1.6,1.7c2,1.2,5.5,1.4,9-1.3
		C330.2,239.2,327.8,239.2,326.1,238.4z"/>
	<path fill="#85340A" d="M316.5,250.2c1.4-0.8,2.7,0.2,3.5,0.2s2-1,3.5-0.2c1.4,0.8,2.3,1.6,3.3,2c-1.9-1.2-2.7-3-4.8-3
		c-0.7,0.1-1.4,0.3-2,0.6c-0.6-0.4-1.3-0.6-2-0.7v0.1c-2.1,0-3,1.8-4.8,3C314.2,251.8,315.1,251,316.5,250.2z"/>
	<path fill="#85340A" d="M315.9,243.7C315.9,243.7,315.9,243.7,315.9,243.7c0,0,0,0,0.1,0H315.9z"/>
	<path fill="#85340A" d="M314.3,245.8c0.1,1,1,1.8,2.1,1.7c0.6-0.1,1.1-0.4,1.4-0.9c0.7,0.4,1.4,0.6,2.2,0.6h0.2
		c0.8,0,1.6-0.2,2.3-0.6c0.6,0.8,1.8,1,2.7,0.4c0.8-0.6,1-1.8,0.4-2.7c-0.3-0.4-0.8-0.7-1.3-0.8c0.5,0.3,0.8,0.7,0.8,1.3
		c0,0.6-0.5,1.2-1.2,1.2c-0.7,0-1.2-0.5-1.2-1.2c0,0,0,0,0,0c-0.5,1-1.5,1.7-2.6,1.7c-1.1-0.1-2-0.7-2.5-1.7c0,0.7-0.5,1.2-1.2,1.2
		c0,0-0.1,0-0.1,0c-0.6,0-1.2-0.6-1.2-1.2c0-0.6,0.3-1,0.7-1.2C314.9,243.9,314.2,244.8,314.3,245.8z"/>
	<path fill="#85340A" d="M320,251.8c-0.8,0-1.4-0.3-2.8-0.2l0,0c-0.8,0-1.8,0.2-3.4,0.6c3.7-0.8,4.5,0.5,6.2,0.5
		c1.6,0,2.4-1.2,5.9-0.5c0,0,0,0,0.1,0C322.1,251,321.2,251.8,320,251.8z"/>
	<path fill="#85340A" d="M323.7,258.9c0-2-1.7-3.7-3.7-3.7c-2,0-3.7,1.7-3.7,3.7c0.5-2,2.5-3.3,4.6-2.8
		C322.3,256.4,323.4,257.5,323.7,258.9z"/>
	<path fill="#85340A" d="M326,252.2C325.9,252.2,325.9,252.2,326,252.2c-3.5,0-2.5,2.3-6,2.3c-3.5,0-2.4-2.3-6-2.3h-0.2h-0.6
		c4.3,0.5,2.3,3,6.8,3s2.5-2.5,6.8-3C326.5,252.2,326.2,252.2,326,252.2z"/>
	<path fill="#85340A" d="M303.4,234.3c4.7-4.1,10.7-4.8,14-1.7c0.8,1,1.3,2.2,1.5,3.5c0.4,2.3-0.3,4.8-2.1,7.4l0.8,0.4
		c1.6-2.9,2.1-6.2,1.6-9.4c-0.1-0.8-0.3-1.6-0.6-2.3C314.1,228.5,307.9,228.2,303.4,234.3L303.4,234.3z"/>
	<path fill="#85340A" d="M310.8,233.7c1.2,0,2.5,0,3.7,1s2,1.4,2.5,1.6c0.3,0.2,0.6-0.4,0.3-0.6c-0.1-0.2-0.8,0-2-1
		s-1.8-1.7-4.5-1.7c-4.1,0-6.5,3.3-6.2,3.5C305.1,236.7,307.1,233.7,310.8,233.7z"/>
	<path fill="#843511" d="M315.8,236.5c-1.3-1.4-3.2-2.2-5.1-2.2c-1.8,0-3.6,0.8-4.6,2.4c1,0.9,2.6,1.4,4.3,1.4
		c-0.2,0-0.4-0.1-0.5-0.2c-1.1-0.1-2.2-0.6-3-1.2c0.7-1,1.7-1.7,2.9-1.9c0.3-0.2,0.7-0.4,1.1-0.4c0.5,0,0.9,0.2,1.3,0.5
		c1.1,0.3,2,0.8,2.1,1.4c-0.6,0.7-1.4,1.2-2.2,1.4c-0.2,0.1-0.3,0.3-0.6,0.3C313.1,237.9,314.6,237.4,315.8,236.5z"/>
	<path fill="#85340A" d="M312.1,237.7c0.4-0.3,0.7-0.9,0.7-1.4c0-0.6-0.2-1.1-0.6-1.4c-0.3-0.3-0.8-0.5-1.3-0.5
		c-0.4,0-0.8,0.1-1.1,0.4c-0.5,0.3-0.8,0.9-0.8,1.5c0,0.7,0.4,1.3,0.9,1.6c0.2,0.1,0.3,0.2,0.5,0.2c0.2,0,0.3,0.1,0.5,0.1
		c0.2,0,0.5-0.1,0.7-0.1C311.8,238,312,237.9,312.1,237.7z"/>
	<path fill="#85340A" d="M314.9,238.8c2-1.3,2-1.7,1.6-1.7c-0.4,0-0.8,0.4-2.4,1.3c-1.7,0.8-4.1,0.8-8.2-0.9
		C309.4,240.2,312.9,240,314.9,238.8z"/>
</g>
</svg>
