<?xml version="1.0" encoding="utf-8"?>
<!-- Generator: Adobe Illustrator 17.1.0, SVG Export Plug-In . SVG Version: 6.00 Build 0)  -->
<!DOCTYPE svg PUBLIC "-//W3C//DTD SVG 1.1//EN" "http://www.w3.org/Graphics/SVG/1.1/DTD/svg11.dtd">
<svg version="1.1" id="flag-icon-css-as" xmlns="http://www.w3.org/2000/svg" xmlns:xlink="http://www.w3.org/1999/xlink" x="0px"
	 y="0px" viewBox="0 0 640 480" enable-background="new 0 0 640 480" xml:space="preserve">
<g>
	<path fill="none" d="M641.4,163.1c0-2-0.2-2.7-1.4-3.9v8.3C641.1,166,641.4,165,641.4,163.1z"/>
	<path fill="none" d="M640,131.5v2.8c0.4-0.4,0.8-0.8,1.1-1.1C642.4,132.1,642.4,131.8,640,131.5z"/>
	<path fill="#000066" d="M135.8,370.7c0.9,3.6,1.4,4.6,3.1,5.6c2,1.3,2.1,1.4,2.1,5.9c0,3-0.4,5.4-1,6.7c-1,2.1-1,2.2,0.4,3.7
		c2.2,2.4,9.2,6.9,13,8.4c1.9,0.7,4.4,2.1,5.7,3.2c1.7,1.4,2.9,1.8,5.1,1.8c1.6,0,3.1,0.4,3.5,0.9c0.4,0.5,1.9,1.2,3.4,1.5
		c1.9,0.5,2.9,1.2,3.8,2.7l1.2,2l1.3-1.6c0.7-0.9,2.7-2.6,4.4-3.8c2.9-2.1,3.4-2.2,7.8-2.2c3.6,0,5.2,0.3,6.7,1.2
		c1.8,1.1,1.9,1.4,1.6,3.6c-0.4,2.7-1.6,4.2-4.1,5.6c-2.2,1.1-2.2,2.9-0.2,5.5c0.9,1.2,1.6,3.2,1.9,5.4c0.7,5.8,0.7,5.8,3.2,4.2
		c1.7-1.1,2.2-1.8,2.2-3.3c0-1.6,0.4-2.1,1.7-2.7c0.9-0.4,2.8-1.8,4.2-3.1c2.2-1.9,2.7-3.1,3.7-6.9c1.1-4.4,1.1-4.7,0.1-6.4
		c-1.5-2.6-1.4-3.4,0.8-4.9c1.6-1.1,1.9-1.7,1.9-3.8c0-2.3,0.7-3.2,1.6-1.8c0.2,0.3,1.9,0.6,3.7,0.6c3.6,0,5,1,6.5,4.5
		c0.4,1,1,1.7,1.3,1.7c0.2,0,0.7,0.8,0.9,1.8c0.4,2.1,5.1,5.2,8.7,5.9c3.2,0.5,4.9-1.1,7.9-7.2c2.4-5,4-7.3,6.8-9l-115.6-28.9
		C135.3,368.4,135.5,369.6,135.8,370.7z"/>
	<path fill="#BD1021" d="M94.5,333.6c1.8,1.1,2.7,1.2,5.4,0.9c4.1-0.5,6.4,0.3,7.9,2.7l1.1,1.9l2.5-1.6c1.3-0.9,2.7-2,3.2-2.6
		c0.1-0.1,0.2-0.1,0.2-0.2L91.5,329C92,331.7,92.6,332.5,94.5,333.6z"/>
	<path fill="#BD1021" d="M7.6,310c-1,0.9-2.4,1.9-3.3,2.4l-1.6,0.8l2.2,0.8c3.2,1.2,4.4,1.1,4.4-0.4c0-1.7,2-1.6,4.9,0.3
		c1.2,0.9,3.2,1.6,4.2,1.6c1.2,0,2.4,0.6,3.4,1.6c1.5,1.6,1.6,1.6,8.2,1.2l6.7-0.4l2.6,2.1c2.5,2,2.5,2.1,2.5,6.2
		c0,2.3,0.2,4.3,0.4,4.6c0.2,0.2,2.2-0.3,4.4-1.2c2.2-0.8,4.6-1.5,5.4-1.5c0.7,0,2.9,1.2,4.7,2.6c3,2.3,3.6,2.6,5.8,2.2
		c1.9-0.3,3-0.1,4.9,1l2.4,1.4l2.9-2.8c1.6-1.6,3.8-4.2,5-6c0.2-0.3,0.3-0.5,0.5-0.8l-68.1-17C9.2,308.7,8.5,309.2,7.6,310z"/>
	<path fill="#BD1021" d="M118.3,336.2c-0.2,0.7,0.1,2.2,0.6,3.3c0.9,1.9,1.1,2,3.1,1.4c2.6-0.7,7.4-0.4,7.3,0.4
		c-0.1,0.3-0.2,1.5-0.4,2.6l-0.4,2l4.4-0.1c3.1-0.1,4.5,0.1,4.7,0.6c0.2,0.5-0.2,0.8-0.9,0.8c-2.6,0.1-2.7,0.9-0.4,3.6
		c2.2,2.6,2.2,2.6,1,3.7c-1.3,1.1-2.6,6-2.6,9.7c0,0.6,0.1,1.7,0.4,2.9l115.6,28.9c0.6-0.4,1.4-0.8,2.2-1.1c2.9-1.3,3.5-1.9,4.2-4.1
		c0.4-1.4,2.2-4.6,4-6.9c1.7-2.3,4.2-6.1,5.6-8.3l1.6-2.6l-149.9-37.5C118.4,335.8,118.3,336,118.3,336.2z"/>
	<path fill="#FFFFFF" d="M380.1,164.9c0.3-0.3,20.6-10.8,23.5-17.7c-0.1-2.6-1.7-4.9-2.7-7.8c-1.2,1-2.4,2.2-3,3.1
		c-1.1,1.8-1.6,2.1-3,1.9c-0.9-0.2-2.8-0.5-4.2-0.7l-2.7-0.4v-3.2c0-3.1,0.2-3.5,4.1-8.5c4.4-5.5,5.2-7.6,5.2-13
		c0-3.7-0.5-3.9-4.2-2.3c-1.2,0.5-5.2,3.7-8.9,7.2c-7.3,6.7-9.2,7.6-11.5,5c-0.6-0.7-1.4-1.2-1.6-1.2c-0.8,0-2.6,3.9-2.7,5.6
		c-0.1,1.6-0.2,1.6-5.1,1.6c-4.6,0-5.2,0.2-7.3,1.7c-2.7,2.1-2.9,3.4-0.8,5.9c0.9,1.1,1.6,2.9,1.7,4.7l0.4,3h-2.2
		c-1.7,0-3.1-0.7-5.8-2.8c-3.8-3-5.2-3.1-5.8-0.6c-0.5,1.9-4.2,3.6-9.2,4.2c-5.1,0.6-5.5,0.9-5.5,3.6c0,1.9-0.4,2.7-1.9,3.9
		c-1.2,1.1-1.9,2.2-1.9,3.2c0,1.4-1.4,3.8-5.7,10c-0.3,0.4-1.4-0.5-2.9-2.2l-2.4-2.7l-4.5,0.9c-3.8,0.8-4.7,1.2-5.6,2.7
		c-0.9,1.4-0.9,1.9-0.2,2.9c1.1,1.9,0.9,3.1-0.8,3.9c-0.9,0.4-1.6,1.2-1.6,1.8c0,0.7-0.6,1.3-1.7,1.6c-2.3,0.6-3.3,1.4-3.3,2.7
		c0,0.7-0.6,1.2-1.6,1.5c-1,0.2-1.5,0.8-1.4,1.5c0.3,1.9-0.7,3.7-3,5.5c-1.8,1.4-2.9,1.7-4.9,1.6c-4.2-0.2-4.9,1.3-4.8,10.9
		c0.1,4.2-0.2,7.9-0.5,8.1c-0.3,0.2-1,1.2-1.6,2.2c-0.9,1.7-0.9,1.9,0.1,3.1c0.6,0.6,1.4,1.2,1.8,1.2c0.4,0,1.5,0.8,2.4,1.7
		c1.6,1.6,1.7,2.1,1.3,4.5c-0.6,3.3-4.1,7.7-6.1,7.4c-1-0.1-1.4-0.8-1.8-3.3c-0.2-1.7-0.8-3.4-1.2-3.9c-0.3-0.4-2.5-1.6-4.8-2.7
		c-2.2-1.1-4.9-2.9-6-4.1l-1.9-2.2l-2,1.9c-1.1,1-2.1,2.2-2.1,2.7c0,0.5-1.1,1.3-2.3,1.9c-5.5,2.4-10,4.9-11.5,6.5
		c-1.9,1.7-2.4,4.5-0.8,4.5c1,0,1.2,1.7,0.6,4.2c-0.4,1.7-4,2.5-5.9,1.3c-1-0.6-1.5-0.6-2.5,0c-0.7,0.4-2.1,0.7-3.2,0.7
		c-1.1,0-2.5,0.5-3.1,1.1c-1.1,0.9-1.2,0.9-2.9-0.6c-1-0.9-2.5-1.7-3.4-1.7c-1.2,0-1.7,0.5-2.6,2.5c-0.5,1.4-1.5,2.7-2.1,2.9
		c-2.2,0.7-2.8,1.2-3.6,3.6c-1,2.9-1.1,3.1-2.2,2.6c-1.5-0.6-2.7-3-3.1-6.2l-0.3-3.1l-3.4-1.2c-3.2-1.2-3.5-1.2-5.2-0.2
		c-2.4,1.4-4.7,0.8-5.6-1.3c-0.5-1.2-0.4-1.8,0.7-3c1.1-1.1,1.2-1.6,0.6-2.7c-0.6-1-1.3-1.3-3.5-1.3c-2.4,0-2.9,0.2-4.1,2.2
		c-1.4,2.2-1.4,2.2-4.4,1.9c-2.3-0.3-3.9,0-6.9,1.2c-2.2,0.9-4.2,2-4.6,2.5s-1.1,0.9-1.4,0.9c-0.4,0-1.8,0.6-3.2,1.2
		c-3.1,1.6-3.6,1.6-4.5-0.3c-0.8-1.9-2-2-3.1-0.4c-0.5,0.6-1.6,1.3-2.4,1.4c-1.1,0.1-1.9,0.9-2.9,3c-1,2-1.9,2.9-3.1,3.2
		c-1,0.2-1.9,0.2-2.2,0c-0.2-0.2-0.7-3.1-1.2-6.4c-0.6-4.6-1.1-6.3-2.2-7.7c-0.8-1-1.5-2.1-1.5-2.4c0-1.6-2.3-0.1-6.3,3.8
		c-2.4,2.4-4.8,4.4-5.2,4.4c-0.9,0-2.6-1.4-2.9-2.6c-0.2-0.5-0.9-0.6-2.3-0.2c-1.9,0.4-1.9,0.5-1.1,1.5c0.9,0.9,0.7,1.2-1.2,2.7
		c-2.1,1.6-2.3,1.7-4.8,1c-1.5-0.4-3.1-1.2-3.6-1.8c-0.6-0.6-1.7-1.2-2.6-1.4c-1-0.2-1.7-1-2-2c-0.6-2.5-2.3-1.9-5.7,2.2
		c-3.3,3.9-5,4.8-6.6,3.6c-0.6-0.5-1.7-0.7-2.8-0.4c-3,0.6-9.7,3.9-9.7,4.9c0,1.3-2.7,2.2-4.3,1.4c-1.9-1.1-1.7,0.6,0.2,2.9
		c0.9,1.1,1.6,2.2,1.6,2.6c0,0.9-2.1,1.9-4,1.9c-1.1,0-2.1,0.7-3.3,2.2c-1.2,1.6-2.2,2.2-3.4,2.2c-2.2,0-3.7,2.2-3.2,4.7
		c0.2,1.4,0.1,2.1-0.7,2.7c-0.9,0.8-1.4,0.5-4.7-3c-2.1-2.1-4.1-3.9-4.6-3.9c-0.6,0-1.7,1.2-2.6,2.7c-1.2,1.9-2.2,2.9-3.4,3.1
		c-1.2,0.2-2.1,0.9-2.7,2.4c-1.4,3.4-5.7,7.8-9.8,10c-2.1,1.1-4.7,3.1-6,4.4c-1.2,1.3-2.6,2.4-3.1,2.4c-1.1,0-1.8,1.9-2.3,6.6
		c-0.2,2.4-0.9,4.2-1.6,5c-0.7,0.8-1.2,2.2-1.2,3.5c0,2-0.2,2.3-2.8,3.6c-1.6,0.7-3.6,1.4-4.4,1.4c-0.8,0-2.9,0.7-4.7,1.6
		c-2.2,1.1-4,1.5-5.6,1.4c-0.6-0.1-1.1-0.1-1.6,0l68.1,17c1.3-1.7,3-3.4,4.8-4.5l3.2-2.1l2.2,1.3c2.1,1.2,2.2,1.5,2.7,5.4
		c0.1,1.3,0.3,2.4,0.4,3.3l23.3,5.8c0.5-0.4,1.2-0.5,2.2-0.3c1,0.2,1.4,0.5,1.4,1.2l149.9,37.5l0.9-1.5h3.5c3.1,0,3.6-0.2,4.3-1.5
		c0.4-0.8,2.3-2.6,4.1-3.9c1.8-1.3,3.4-2.6,3.4-2.9c0-0.3-0.6-1.3-1.2-2.2c-1.2-1.6-1.2-1.9-0.2-5.2c0.6-1.9,1.4-3.6,1.8-3.6
		c0.4,0,1.6-0.7,2.6-1.6c1.1-0.9,2.6-1.6,3.6-1.6c1.1,0,2.7-0.9,4.4-2.5c1.7-1.6,3.3-2.5,4.4-2.5c1.8,0,4.5-1.9,5.5-3.9
		c0.8-1.6,5.8-3.4,6.7-2.5c0.5,0.5,1.2,0.4,2.5-0.2c1.5-0.8,1.7-1.1,1.1-1.9c-0.4-0.5-0.6-1-0.5-1.1c0.1-0.1,3.6-2.2,7.7-4.7
		c8.7-5.2,9.4-5.8,8.7-7c-0.3-0.4-0.4-1.4-0.3-2c0.1-0.6-0.2-1.8-0.6-2.6l-0.7-1.4l-2.1,1.2c-1.7,1-3.6,1.3-9.8,1.6
		c-11.9,0.5-15-0.9-16.1-7.2c-0.6-3.1-0.9-3.8-2.6-4.7c-3.9-2.3-6.2-4.8-5.7-6.2c0.2-0.7,0.4-1.4,0.5-1.4c0.1-0.1,1.5,0.2,3.2,0.7
		c1.7,0.6,3.6,0.8,4.2,0.6c1-0.3,0.9-0.4-0.4-1.7c-1-0.9-1.7-2.4-1.9-4.2l-0.4-2.8l3.1,3.2c3.3,3.6,3.7,3.7,5.4,2.5
		c1.1-0.8,1.1-0.9,0.1-2.8c-1.6-3.2-1.4-3.9,1.7-3.9c3.6,0,6.9-1.9,7.2-3.9l0.2-1.6l2.3,1.5c1.2,0.8,3.1,1.7,4,1.9
		c-8.1-5.4-15.4-9.4-15.4-9.6h0l0,0l0,0c0.5,0,32.1-0.5,46.6-8.8c0,0.1,0.1,0.1,0.1,0.2c0.4-0.3,0.6-0.5,0.8-0.8
		c0.4-0.6,0.7-1.9,0.7-3.1c0-1.6,0.4-2.2,1.9-3c1-0.5,2.9-0.9,4.2-0.9c2.5,0,3.9-0.9,3.9-2.4c0-0.6,0.4-1.4,0.9-2.1
		c-8.4,2.5-16.2-0.3-16.2-0.3s-1.6,1-2.6,8.3c-21.7-10.9,0-29.5,0-29.5c0.3,1.4,1.1,2.5,2.2,3.5c-0.8-1.8-1.4-3.3-1.5-3.4l0,0
		c0,0,2.9-2.9,3.8-6.4c0.8-3.4-1.2-7.2,2.3-10.4c1.3-1.2,8.4-4.6,17-8.6c-0.1-0.4-0.1-0.7-0.1-1.1c-0.3-3.4-0.2-3.7,1.7-5.5l2.1-1.9
		l-2.1-0.3c-7.2-1.1-10-0.9-14.1,0.9l-4.1,1.8l-3-2.8c-2.4-2.3-3.4-2.8-5.4-2.8c-1.3,0-4.2-0.8-6.4-1.8c-2.2-1-4.4-1.7-4.8-1.5
		c-0.5,0.2-1.7-0.6-2.7-1.6l-1.8-1.9l1.5-0.4c0.9-0.2,2-1.2,2.5-2.2c0.6-1.1,1.2-1.7,1.5-1.6c0.3,0.2,2.7,0.6,5.4,1
		c3.3,0.4,5.4,1.1,6.2,1.9c1.1,1.1,1.7,1.1,4.6,0.6c1.8-0.3,5.1-0.6,7.2-0.6c3.5,0,3.9-0.1,4.6-1.5c0.8-1.7,4.1-4.4,6.4-5.1
		c0.5-0.1,1.3-0.5,2.1-0.8C365.7,176.6,379.7,165.2,380.1,164.9z"/>
	<path fill="#FFFFFF" d="M415.3,194.1c0-0.1,0-0.1,0-0.2c-0.1,0.1-0.3,0.2-0.4,0.3C415,194.2,415.2,194.1,415.3,194.1z"/>
	<path fill="#FFFFFF" d="M379.2,249.5C379.3,249.5,379.3,249.6,379.2,249.5c-2.1,3.3-4.6,5.6-7.1,7.2c0.6,0.2,1.2,0.6,2,1.5l1.7,1.8
		l1.8-1.7c1-1,2.9-3.1,4.3-4.7l2.5-3l-1.5-1.9c-0.2-0.3-0.5-0.7-0.9-1.2c-1.6,1.2-2.6,1.9-2.6,1.9S379.4,249.5,379.2,249.5z"/>
	<path fill="#FFFFFF" d="M638.4,131.3c-3.1-0.3-3.4-0.2-4.5,1.4c-0.7,1.1-2.1,1.9-3.4,2.1c-1.3,0.2-2.2,0.8-2.2,1.3
		c0,0.6-0.6,0.9-1.6,0.9c-0.8,0-2.2,0.3-3,0.7c-2.7,1.2-14.2-1.6-14.2-3.5c0-0.7-0.7-0.9-2.4-0.9c-2.1,0-2.5,0.2-2.9,1.7
		c-0.2,0.9-1.5,2.7-2.9,3.9c-1.4,1.1-3.2,3.2-4,4.5c-0.8,1.4-1.8,2.4-2.2,2.4s-1.4-0.8-2.3-1.9l-1.6-1.8l-2.7,5
		c-2.2,4.3-2.7,5.6-2.7,8.6c0,2.8,0.2,3.9,1.2,4.7c1.8,1.6,1.6,4.7-0.4,7.1c-1.4,1.7-2,1.9-5,1.9c-1.9,0-4.2-0.4-5.2-0.9
		c-1.6-0.8-1.9-1.4-1.9-3.3c0-3.3-0.6-5.1-1.7-5.1c-0.5,0-2.9-0.6-5.4-1.3c-3-0.9-4.9-1.8-5.8-2.9c-1.2-1.6-1.4-1.6-2.5-0.6
		c-1,0.9-2.1,1.1-3.2,0.9c-10.9,6.7-21.1,12.9-21.1,12.8c0-0.3,30.8,5.5,32.9,6.6c0.1,0.1,0.4,0.2,0.7,0.4c0,0-0.1-0.1-0.1-0.1
		c18.6-0.5,45.1-7.8,45.1-7.8s12.7,2.3,11,9.3c6.3,0.9,4.3,9.6,4.3,9.6s2,1.2,2.8,3.1c0.1,0,0.2,0,0.3,0c2,0,2,0,2-3.1
		c0-2,0.3-3.2,0.9-3.4c0.7-0.3,1.1-1.9,2.1-9.8c0.2-1.9,1-3.6,2.4-5.4c0.3-0.3,0.5-0.6,0.7-0.9v-8.3c-0.4-0.4-0.9-0.8-1.5-1.3
		l-2.8-2.4V151c0-2.4,0.3-5.2,0.7-6.1c0.6-1.3,0.6-2.1-0.3-4.2c-1.2-3.2-1.2-3.1,0.2-3.1c0.7,0,1.7-0.7,2.3-1.7
		c0.3-0.5,0.8-1.1,1.3-1.6v-2.8C639.5,131.4,639,131.4,638.4,131.3z"/>
	<path fill="#FFFFFF" d="M548,220.8l2.6,1.7l1.9-1.7c0.4-0.4,0.8-0.7,1.2-1c-2.8-0.2-5.5-0.3-7.5-0.4
		C546.8,219.9,547.4,220.4,548,220.8z"/>
	<path fill="#FFFFFF" d="M325.3,291.8c1.2,2.3,1.4,6,0.4,7.2c-0.5,0.6-1.2,2.7-1.6,4.9l-0.7,3.8l-3,1l-3.1,1.1l1.2,1.4
		c1.1,1.3,1.6,1.4,4.1,1.1c2.7-0.4,2.9-0.6,3.6-2.8c0.3-1.2,1.3-3,2.2-3.8c0.9-0.8,1.6-2,1.6-2.6c0-0.6,0.9-3.2,2.2-6.3
		c-2.3-1.9-4.8-3.7-7.3-5.4C325.1,291.4,325.2,291.6,325.3,291.8z"/>
	<path fill="#FFFFFF" d="M419.9,181.1c0.1-0.2,0.1-0.3,0.2-0.5c-4.9-0.9-10.4-2.3-16,1.7c-2.4,1.8-6.9,4.6-11.9,6.3
		c1.6,0.4,3.3,0.7,5.8,1c4.9,0.6,6.9,1.1,9.4,2.6c0.7,0.4,1.3,0.7,1.7,1c3.9-4.1,9.4-10.7,10.2-12.2
		C419.5,180.6,419.7,180.7,419.9,181.1z"/>
	<path fill="#FFFFFF" d="M449.5,228.5l-19.4,0.6c0-0.2-0.1-0.3-0.1-0.5c-0.9,0.4-2,0.8-3.1,1.1c-3.6,0.9-10,2.2-16.4,3.8
		c0,0.1,0,0.2,0,0.3c0,1.4,0.4,1.9,1.9,2.4c1.6,0.6,2.3,0.4,5-1.3l3.1-1.9l3.7,1.2c4.1,1.4,6.2,1.2,10.9-1.2c1.9-1,2.7-1.1,4.1-0.5
		c1.4,0.6,2.4,0.4,5.7-0.6c2.2-0.7,4.4-1.7,4.9-2.2c0.1-0.1,0.3-0.2,0.6-0.3C449.8,228.8,449.5,228.5,449.5,228.5z"/>
	<path fill="#9C3900" d="M564,200.4c6.5-2.1,4.1-5.2,5.5-8.2c1.5-2.9-3.4-6.3-3.4-6.3s8.2-3.9,2.4-9.9c-0.3-0.2-0.6-0.3-0.7-0.4
		c-2.1-1.1-32.9-6.9-32.9-6.6c0,0.1,10.3-6.1,21.1-12.8c-0.8-0.2-1.6-0.6-2.4-1.3c-0.9-0.8-2.5-1.7-3.4-1.9c-0.9-0.2-2.1-1-2.4-1.7
		L547,150l-0.9,1.5c-0.4,0.8-0.9,3.4-0.9,5.9c-0.1,6.1-0.7,6.9-3.4,3.8c-1.4-1.6-2.2-3.1-2.2-4.2c0-1.2-0.4-1.9-1.4-2.2
		c-0.8-0.2-1.7-0.9-2.1-1.4c-0.5-0.7-0.9-0.7-2-0.2c-1,0.6-2.1,0.6-3.9,0.1c-3.2-0.9-4.1-2.6-3.2-5.8c0.4-1.3,0.5-2.3,0.4-2.3
		c-0.9,0-4,2.1-5.8,3.9c-1.6,1.7-2.7,2.3-5.2,2.6c-2.6,0.4-3.7,1-6.4,3.4c-2.7,2.5-3.9,3.1-7.8,4c-5,1.1-6.6,1.2-10.9,0.6
		c-2.6-0.4-2.9-0.6-3.5-2.7c-0.3-1.2-0.6-3.2-0.6-4.5c0-2.6,0.8-3.1,5.1-3.1c2.1,0,2.4-0.2,3.5-2.7c1.4-3.1,1-4.2-2.4-6.2
		c-2.9-1.7-4.3-1.1-4.3,1.7c0,1.2-0.3,2.2-0.7,2.2c-1.3,0-4.9-2.6-5.2-3.7c-0.2-0.6-1.4-2.1-2.6-3.1l-2.2-1.9l-1.2,1.9
		c-0.9,1.4-1.5,1.9-2.4,1.6c-0.7-0.2-1.3,0-1.5,0.6c-0.5,1.4-3.5,0.2-5.7-2.1c-1-1.1-2-1.9-2.3-1.9c-0.2,0-0.5,2.2-0.5,4.9
		c0,4.7-0.1,4.9-1.9,6.2c-2.1,1.6-2.4,1.6-4,0.4c-1.2-0.9-1.2-0.9,0.2-2.4l1.4-1.4l-2.2-2c-1.4-1.2-2.9-1.9-4.1-1.9
		c-1.7,0-1.9,0.2-1.9,1.9c0,1.1,0.5,3.4,1.1,5.2c1.4,4.1,1.1,5.6-1.2,7.6c-2.3,1.9-4.7,2.1-5.1,0.3c-0.2-0.9-0.9-1.2-2.2-1.2
		c-1.8,0-1.9,0.1-1.9,2.2c0,4.7-2.5,7-5.7,5.2c-1.2-0.7-1.2-1-0.9-7.9c0.2-3.9,0.7-7.7,1.1-8.3c0.3-0.6,0.6-2,0.6-3.1
		c0-2.6-1.6-3.1-3.3-1.1c-1.8,2.1-3.6,2.9-6.3,2.9c-2.1,0-2.2,0.1-2.2,1.9c0,1.6-0.2,1.9-1.5,1.9c-0.9,0-1.7-0.2-1.9-0.6
		c-0.6-0.9-2.2-10.7-2.2-13.3c0-2.5-0.8-3-1.8-1.1c-0.9,1.7-6.1,4.1-7.1,3.3c-0.4-0.3-1.8-0.9-3.1-1.2c-2.2-0.6-2.3-0.6-2.7,0.8
		c-0.2,0.9-1.6,2.3-3.4,3.4c-0.5,0.3-0.9,0.7-1.4,1c0.9,3,2.5,5.3,2.7,7.8c-2.9,6.9-23.2,17.4-23.5,17.7
		c-0.4,0.3-14.4,11.7-7.5,20.3c0.5-0.2,1-0.5,1.4-0.7c1.7-1,2.4-1.1,5.9-0.4c2.2,0.4,5.7,1.7,7.9,2.7c1.5,0.8,2.8,1.3,4.3,1.7
		c5-1.7,9.5-4.5,11.9-6.3c5.6-4,11.1-2.6,16-1.7c-0.1,0.2-0.1,0.3-0.2,0.5c0.9,1.7,1.4,9-4.6,12.8c0,0.1,0,0.1,0,0.2
		c8.3-2.3,13.7-4.8,17.1-3.6c-2.5,3.5-8.1,8.7-12.6,11.4c8.3-2.9,15.3-5,17.5-3.3c2.2,1.7-8.5,9.4-15.5,12
		c9.7-2.5,20.9-5.5,22.5-1.5c-5.5,1.7-3.8,3.2-15.1,9.6c-0.4,0.1-0.8,0.2-1.2,0.4c6.9-1,13.5-1.6,14.3,3c-5.6,2.2-8.4,4.8-12.3,6.5
		c0,0.2,0.1,0.3,0.1,0.5l19.4-0.6c0,0,0.3,0.3,0.9,0.9c2-0.9,7.6-1.8,11.5-1.8c2.6,0,3.2-0.3,4.8-2.1c1.8-1.9,1.9-2.1,1.5-6.4
		c-0.4-4.9,0.4-6.4,3-5.7c4.9,1.2,7.5,1.9,11,3.1l4,1.3l2.9-2.9c2.4-2.4,3.2-3.8,4.5-7.7c1.2-3.8,1.7-4.8,3.1-5.2
		c3.5-1.2,4.6-2.2,5.2-4.6c0.6-2.1,1.1-2.6,3.5-3.5c1.6-0.6,5-1.3,7.6-1.6c4.6-0.4,4.8-0.5,5.2-2.2c0.4-2.1,3-3.8,7-4.8
		c2.9-0.7,3.1-0.6,4.7,2.7l1,2l2.9-1c2.8-0.9,2.9-0.9,4.2,0.4c1.3,1.4,1.3,1.4,0.1,2.3c-1.4,1.1-1.4,1.1,3.7,3.7
		c2.1,1,2.8,2,4.2,5.3l1.7,4.1l-4.5,4.1l-4.4,4.1l1.8,1.7c1,0.9,2.5,2.2,3.4,3c0.5,0.5,1.2,1.1,2.1,1.7c2.1,0,4.7,0.2,7.5,0.4
		c2.2-1.8,4.1-2.8,5.4-2.8c1.6,0,5-1.7,5-2.4c0-0.3,1.2-0.7,2.7-0.9c0.1,0,0.2,0,0.2,0c-1.9-1.8-3.8-3.1-3.8-3.1
		S572.4,204.1,564,200.4z"/>
	<polygon fill="#FFC221" points="307.3,280.1 307.3,280.1 307.3,280.1 	"/>
	<path fill="#FFC221" d="M307.3,280.1c0,0.2,7.3,4.2,15.4,9.6c0,0,0,0,0,0c0.8,0.2,1.7,0.8,2.2,1.5c2.5,1.7,4.9,3.5,7.3,5.4
		c0.2-0.5,0.4-1,0.7-1.6c2.3-5.4,3.3-7.1,5.6-9c1.5-1.3,2.7-2.7,2.7-3.1c0-0.4,0.7-2.4,1.7-4.3c1.4-2.9,2-3.6,3.4-3.6
		c1.6-0.1,5.8-2,7.7-3.5c0-0.1-0.1-0.1-0.1-0.2C339.4,279.6,307.8,280.1,307.3,280.1z"/>
	<path fill="#FFC221" d="M379.3,249.6C379.3,249.6,379.3,249.5,379.3,249.6c-2.8,0-25.7,0.7-25.7,0.4c0-0.2-2.2-5.3-3.7-8.8
		c-1.1-0.9-1.9-2.1-2.2-3.5c0,0-21.7,18.6,0,29.5c1-7.3,2.6-8.3,2.6-8.3s7.8,2.9,16.2,0.3c1-1.2,2.5-2.4,3.8-2.6
		c0.7-0.1,1.3-0.2,1.8,0C374.6,255.1,377.1,252.8,379.3,249.6z"/>
	<path fill="#FFFFFF" d="M430,228.6c3.9-1.7,6.7-4.3,12.3-6.5c-0.9-4.7-7.5-4.1-14.3-3c0.4-0.1,0.8-0.2,1.2-0.4
		c11.3-6.4,9.6-7.9,15.1-9.6c-1.6-4-12.8-1-22.5,1.5c7-2.6,17.7-10.3,15.5-12c-2.2-1.8-9.2,0.3-17.5,3.3c4.6-2.6,10.1-7.8,12.6-11.4
		c-3.4-1.2-8.8,1.3-17.1,3.6c-0.1,0-0.3,0.1-0.4,0.1c0.2-0.1,0.3-0.2,0.4-0.3c5.9-3.8,5.4-11.1,4.6-12.8c-0.2-0.4-0.4-0.5-0.6-0.2
		c-0.8,1.5-6.3,8.1-10.2,12.2c1.5,0.9,1.5,1.4,1.2,3.1c-0.2,1.2-0.8,3.6-1.4,5.2c-1,2.8-1,3,0.1,4.7c1.1,1.5,1.2,2.8,1.1,8.9
		c-0.1,6.1,0.2,7.7,1.4,11.2l1.5,4.1l-1.3,0.9c-0.7,0.5-1.2,1.3-1.3,2.3c6.3-1.7,12.7-3,16.4-3.8C428,229.4,429,229,430,228.6z"/>
	<path fill="#FFFFFF" d="M352.2,231.4c-0.9,3.5-3.8,6.4-3.8,6.4l0,0c0.1,0.1,0.7,1.5,1.5,3.4c1.5,3.5,3.7,8.6,3.7,8.8
		c0,0.3,22.9-0.4,25.6-0.5c0.2,0,0.3,0,0.3,0s1-0.8,2.6-1.9c-0.7-0.9-1.5-1.9-2-2.6c-0.8-1.1-2.1-1.9-2.7-1.9
		c-1.1,0-2.7-0.6-8.5-3.5c-0.4-0.2,2.3-4.1,3.4-4.9c0.6-0.4,2.6-1,4.2-1.3c4.9-0.7,10.4-5.9,9.4-8.9c-0.5-1.5-5.7-4.4-8.7-4.8
		c-3.2-0.5-5-2.9-5.7-7.3c-8.6,4-15.7,7.4-17,8.6C351,224.2,353,228,352.2,231.4z"/>
	<path fill="#FFFFFF" d="M628.8,187c0,0,2-8.7-4.3-9.6c1.7-7-11-9.3-11-9.3s-26.5,7.3-45.1,7.8c0,0,0.1,0.1,0.1,0.1
		c5.8,6-2.4,9.9-2.4,9.9s4.9,3.4,3.4,6.3c-1.4,3,1,6.1-5.5,8.2c8.4,3.7-0.9,10.1-0.9,10.1s1.9,1.3,3.8,3.1c6.4-0.8,8.3-1.7,9.9-4.5
		c0.9-1.7,1.5-2.1,3.2-2.1c3.2,0,4.7-1.1,4.3-2.9c-0.5-1.9,0.6-4,2.1-4c0.6,0,1.6-0.6,2.3-1.3c1-1.1,1.6-1.2,3.9-0.9
		c1.5,0.2,3.5,0.7,4.4,1.3c0.9,0.5,2.8,1.2,4.1,1.5c2.9,0.7,4.4-0.1,9.3-5.1l3.1-3.1l5.6,0.4c5.1,0.3,5.8,0.2,8.2-1.2
		c1.3-0.7,3.2-1.4,4.4-1.5C630.8,188.2,628.8,187,628.8,187z"/>
</g>
</svg>
