<?xml version="1.0" encoding="utf-8"?>
<!-- Generator: Adobe Illustrator 17.1.0, SVG Export Plug-In . SVG Version: 6.00 Build 0)  -->
<!DOCTYPE svg PUBLIC "-//W3C//DTD SVG 1.1//EN" "http://www.w3.org/Graphics/SVG/1.1/DTD/svg11.dtd">
<svg version="1.1" id="flag-icon-css-at" xmlns="http://www.w3.org/2000/svg" xmlns:xlink="http://www.w3.org/1999/xlink" x="0px"
	 y="0px" viewBox="0 0 640 480" enable-background="new 0 0 640 480" xml:space="preserve">
<g>
	<polygon fill="#FFFFFF" points="354.3,161.9 350.5,160.8 349.9,160.1 332.8,160.1 333,162.7 332.5,167.2 332.5,171.3 329.2,179.9 
		324.7,184.9 318.1,188.9 309.1,189.4 306.7,191.6 297.5,194.3 293.3,199.1 289.9,200.5 286,201 284.5,205.5 281.3,207.2 
		277.8,210.1 276.3,210.8 277.4,216.8 284.1,224 284.7,228.1 285.4,230.1 287.8,230.7 290.4,233 293.4,239.3 296.3,242.4 
		296.8,245.5 291.1,252 291.1,254.6 287.5,259.1 288.3,262.5 294.8,262 297.3,261 304.2,266.1 304,271.3 301.7,273.7 301.5,276.3 
		299.6,278.2 300.5,281.2 298.1,284.7 300.7,288.2 296.4,291.4 294.9,290.2 291.5,291.1 283.4,281.7 279.5,281.6 278.5,279.4 
		278.7,276.5 280.4,273.2 276.8,269 274.4,266.2 263.5,265.7 259.2,269.9 254.3,272 249.6,266.7 249.6,263.5 245.8,264.2 239.8,263 
		233.3,264.1 234.2,259.4 227.4,262.8 228.1,271.3 228.9,274.1 211.9,272.9 200.9,274.3 199.1,277.5 194,276 185.7,276.4 182.8,275 
		177.2,279.2 176.7,284.2 165.4,285.1 161.7,289.6 163.4,291.7 158,291.7 152.6,298.1 147.2,298.3 148.7,294.6 143.8,294.2 
		137.9,298.5 125.2,298.1 126.9,293.2 122.4,287.2 117.6,286.7 120.6,282.8 119.8,280.2 111.9,282.5 109.1,282.8 108.5,280.1 
		105.2,279.2 104,277.3 100.1,277.7 97,276.8 92.5,280.8 86.2,278.5 86.2,274.5 80.6,275.7 82.7,278.5 81.3,282 84.7,288.3 
		85.2,291.9 81.5,296.3 77.8,299.5 76.5,302.2 64.1,312.1 58.6,312.3 58.8,309.8 61.3,307.4 61.3,304.1 63.2,299.7 63.2,297.8 
		57.4,298.8 52,299.8 51.9,296.2 50.9,293.9 53.2,292.7 53.4,289.6 49.9,288.1 48,285.1 44.6,284.7 44,281.6 41.8,279.6 39.1,276.9 
		34.8,277.6 32.4,276.3 31,275.3 30.2,272.2 27.9,272.2 23.8,276.2 21.2,279.8 17.3,281.3 13.7,280.7 10.2,282.2 11.1,284.9 
		15.9,287.1 16.4,290.1 18.6,295.6 16.1,297.8 12.2,297 11,302.9 4.7,309.3 9,311.9 5.8,314.3 7.9,316.3 8.6,320 583.9,320 
		583.2,317.5 584.5,316 584.6,313.1 587.7,311.4 587.4,308 587.2,305.6 585.9,302 583.1,300.4 584.7,296.8 585.1,292 588.6,294.3 
		590.1,293 595,293 596.3,290.7 599,287.8 601.6,284.9 601.4,281 603.3,280 604.7,277.9 604.7,276.4 601.4,272.8 601,267.7 
		597.8,265.6 594.8,266.2 589.5,263.7 585.3,264.7 581.3,262 582.1,259.5 585.2,258.6 588.4,255 590.2,253.7 591.7,251.4 
		594.5,251.1 597.5,250.5 599.6,251.6 602.3,252.2 605.7,253.5 607.5,258.6 613.2,258.9 617.2,255.7 619.4,256.9 623.1,256.8 
		631.6,254.1 635,253.2 633.5,250 633.5,247.5 632.9,244.3 632.4,243.2 632.6,240.9 631.6,238.2 629.9,234.6 632.2,233.4 
		634.9,231.1 634.6,227.7 635.8,223 636.1,221 639.3,217.4 638.3,214.5 633.5,214.1 633.3,209.2 633.3,205.7 630.8,202.6 
		626.1,198.2 623.1,196.8 622.3,193.1 620.8,188.4 620.3,185 617,182.2 615.9,178.2 612.2,174.1 611.2,171.5 611.5,168.1 
		611.3,165.2 612.2,161.8 613.1,160.1 355.2,160.1 	"/>
	<polygon fill="#DF0000" points="617.7,144 615.2,133.5 613.2,130.2 608.9,129.5 604.2,129.7 600.3,128.3 596.5,128.3 596.2,125.9 
		593.7,123.5 590.6,124 583.3,120.4 581.2,121.2 576.3,121.1 574.8,127.9 569.7,129.2 565.6,129.6 547.4,129.6 527,114.8 
		523.3,114.1 521.3,116.9 513.4,116.4 510.2,112.2 505.5,111.6 499.8,109.1 497.6,105.7 492.7,105.9 487,102.4 483,102.6 
		481.8,100.9 480.1,106.1 477,106.1 472.2,107.5 470.7,104.1 470.2,100.3 458.9,99.3 456.3,104.3 458.2,112.5 455.1,120.6 
		455,129.5 445.1,128.2 442.5,134.7 436.9,137.1 435.7,140.1 435.2,152.6 432.8,153 431.2,149.7 428.7,149.4 427,147.9 423,149.5 
		419.5,147.9 415.2,145.7 412.7,152.9 410,152.7 406.3,156.9 396,152.2 383.2,151.8 378.6,148.1 380,143.1 378,140.2 376.9,138.2 
		373.7,136 369.7,133.5 364.2,132.1 361.1,137.1 363.5,139.8 362.4,141.1 363.4,149.6 361.4,151.7 360.7,155 358.9,156.6 
		356.7,157.4 355.2,160.1 613.1,160.1 614.8,157.1 619,151.6 618.9,149.2 	"/>
	<polygon fill="#DF0000" points="348.2,158.2 346.5,156.6 342.5,155.8 338,154 332.6,157.5 332.8,160.1 349.9,160.1 	"/>
	<polygon fill="#DF0000" points="9,322 13.2,326.2 11.3,336.4 16.2,335.4 22.5,338.2 25.7,338.6 29.8,341.5 32.6,341.7 34.2,344.5 
		34.2,346 32.8,349.8 33.6,352.7 37.1,354.6 40.1,355.1 43.1,356.5 45.8,359.5 48.7,362 53,363.3 60.4,360.1 62.4,357.6 63.4,354.4 
		66.1,354.4 68.5,352.7 73.5,345.6 76.1,346.9 77.6,348.1 80.8,351 84.1,354 81.5,359 83.7,363.7 90.6,364.9 96.2,363 100,362.5 
		102.9,366.9 107,366.5 104,371.5 107.1,371.2 110.8,373.5 115.6,374.9 119.4,374.7 125.4,374.7 128.2,375.1 131.8,369.5 133,366.4 
		134.9,362.6 135.1,359 138.9,355.7 142.4,352.1 156.3,349.2 163.2,352.3 168.2,346.6 171.9,350 177.9,348.1 180.2,349 185.4,349.6 
		189.7,352.1 191.7,352.8 192.6,349.8 197.6,349.1 202.8,347.2 206.2,344.2 211.4,343.4 216.5,341.9 221.9,339.2 229.2,338.5 
		230.8,340.2 228.9,345.6 222.6,346.3 223.1,354.1 224.9,356.8 223.8,360.1 227.8,361.9 229.8,364.6 233.5,362.8 237.4,369.7 
		235.8,371.6 235.8,374 236.6,376.2 239.2,377.6 242.4,379 244.4,383.2 246,386 250,388.6 255.9,389.9 259.3,392.2 269.4,391.6 
		273.4,395 276,392.9 279.8,394.9 281.8,398.1 295.5,398.7 305.3,399.2 309.4,401.2 315.6,403.5 319.7,404.5 323.3,404.4 
		329.2,402.4 332.2,404.1 336.9,404.1 341.2,404.3 343.5,405.5 347.8,405.1 352.5,407.9 359,407.9 363.6,410.1 368.6,410.1 
		373.5,408.8 380.5,413 383.9,412.7 388.7,412.9 394.5,418 407.6,419 416.3,417.1 417.6,419 422.4,419.8 424.7,419.7 427.7,423 
		429.8,423.8 431.9,420.8 432.1,418.6 435.4,417.3 438.9,414.8 442.5,411.1 449.5,408.2 451.4,402.3 453.4,397.2 458.9,395.2 
		461.7,393.6 464.6,395.6 468,391.4 470.6,391.2 476.6,390.4 481.3,390.9 485.9,391.9 489.4,390.6 494.6,390.9 500.5,389.8 
		502.8,390.9 505.5,393.2 507.4,392.2 511.5,391.3 511.5,388.2 513.6,386.6 518.6,385.4 522.1,383.2 524.4,383.6 527.8,383.6 
		530.7,382.1 533.9,381 538.9,380 543.7,381.6 547,383.3 549.4,384.2 553.3,387.4 553,383.1 551.8,381.1 550,380.1 548.8,378 
		549,366.3 552.3,366.1 556.3,362.9 560,359.7 565.1,354.5 569.7,348 574.3,344.2 587.9,344 589.8,342.6 587.4,341 587.4,339.3 
		591.8,337.4 591.9,335.2 589,335.2 587.6,332.6 587.9,330.6 590.4,329.6 591.7,327.3 590.6,324.3 586.1,326.9 585.6,322.9 
		584,320.5 583.9,320 8.6,320 	"/>
</g>
</svg>
