<?xml version="1.0" encoding="utf-8"?>
<!-- Generator: Adobe Illustrator 17.1.0, SVG Export Plug-In . SVG Version: 6.00 Build 0)  -->
<!DOCTYPE svg PUBLIC "-//W3C//DTD SVG 1.1//EN" "http://www.w3.org/Graphics/SVG/1.1/DTD/svg11.dtd">
<svg version="1.1" id="flag-icon-css-au" xmlns="http://www.w3.org/2000/svg" xmlns:xlink="http://www.w3.org/1999/xlink" x="0px"
	 y="0px" viewBox="0 0 640 480" enable-background="new 0 0 640 480" xml:space="preserve">
<g>
	<path fill="#000066" d="M502.6,452l-2.9-3.1l-13.2,13.9l2.6-18.9l-19-1.6l15.7-9.3c-0.4,0.1-0.7,0.2-0.9,0.4
		c-0.7,0.4-2.5,1.1-4,1.5l-2.7,0.6l-5.9-2.7c-5.5-2.5-10.7-4.1-13.2-4.2c-0.9,0-1,0.3-0.8,6l0.1,6.1l2.7,3.6
		c2.8,3.8,3.4,4.9,5.4,9.3l1.2,2.8l-1.4-0.7c-0.8-0.4-1.5-0.7-1.7-0.7c-0.1,0,0.7,2.7,1.9,6c1.8,5.3,2.4,6.3,4.6,8.6
		c1.4,1.4,3.1,3.7,3.8,5l1.2,2.4l3.2-0.1c1.7,0,3.9,0.1,4.7,0.4c1.2,0.3,1.7,0.2,2.2-0.2c0.4-0.3,1.6-1,2.7-1.3c1.4-0.5,2-1,2.1-1.8
		c0.1-0.9,0-1-1.2-0.7l-1.4,0.3l1.5-1.3c0.8-0.7,1.7-1.2,2-1.3c0.3,0,0.4-0.6,0.3-1.5c-0.1-1.1,0-1.7,0.8-2.2c0.5-0.4,1-1.2,1-1.7
		c0-1.1,0.2-1.1,1.7-0.1c1.1,0.7,1.1,0.8,0.3,2.2c-0.8,1.4-0.8,1.5,0.4,2.7l1.2,1.3l0.9-1.1c0.7-0.9,0.9-1.6,0.6-3.3
		c-0.4-2.7,0.5-10,1.5-12.9C501.4,452.5,501.8,452.1,502.6,452z"/>
	<path fill="#000066" d="M243.2,46.1c-2.2-1.9-3.8-3.1-4.6-3.3c-0.9-0.3-2.2-1-2.8-1.6c-1.6-1.5-3.2-0.9-2.9,1c0.2,1.1,0,1.5-1,2.2
		c-1.6,1.1-1.8,1-1.8-0.1c0-1.6-2.4-1.3-3,0.3c-0.4,0.9-0.6,1.1-0.8,0.6c-0.1-0.4-0.3-1-0.4-1.4c-0.1-0.5-0.4-0.5-1.2-0.1
		c-0.8,0.4-0.9,0.7-0.5,1.2c0.4,0.5,0.3,0.8-0.2,1.3c-0.4,0.3-0.6,1-0.4,1.7c0.1,0.5,0,1.4-0.4,1.9c-0.6,0.9-0.7,0.8-2.2-0.8
		c-0.8-1-1.6-1.8-1.8-1.8c-0.1,0-0.3,0.7-0.5,1.6c-0.2,1.4-0.6,1.8-2.3,2.3c-1.3,0.4-2.2,1-2.7,2c-0.6,1.2-0.6,1.5,0.2,2.3
		c0.5,0.5,1,1.4,1.2,2.1c0.3,1,0.2,1-1,0.6c-2.7-1-5.2,0-5.2,2.1c0,0.4-0.2,0.8-0.5,0.8s-1.6,0.5-3,1.1l-2.5,1.1l0.3,4
		c0.2,2.6,0.1,4.6-0.2,5.8c-0.5,1.4-0.7,2-1.1,1.8v1.3L243.2,46.1z"/>
	<path fill="#000066" d="M269.2,83.3h76.5V100v50v16.7h-76.5l76.5,55.3v9.4V250H307l-105.4-76.2V250H190h-34.4H144v-76.1l-71.2,51.5
		c0.5,1.2,0.6,2.5,0.9,5c0.5,4.9,0.5,4.9,2.8,7.3c2.4,2.5,3.9,6.1,2.5,6.1c-1,0-0.9,0.3,2.1,4.1l2.8,3.6l-0.3,5.6
		c-0.2,5.5-0.2,5.7,1.7,12c1.4,4.4,2.9,8.1,5,11.8c3.4,6.1,3.9,8.5,3,15.9c-0.3,3.4-0.5,3.8-0.9,2.7c-0.4-0.9-0.5,0.6-0.4,6
		c0,7.9-0.5,10.9-2.2,10.9c-0.4,0-1.8-0.3-3-0.7c-1.1-0.4-2.2-0.7-2.4-0.7c-0.2,0,0.3,8.3,0.7,10.4c0.2,1.2,0.6,1.4,2.5,1.7
		c2.7,0.4,6.1,2.7,8.8,5.9c1,1.2,2.1,2.3,2.4,2.3c0.3,0,2.1,0.7,4.1,1.5c3.2,1.4,3.9,1.5,7.1,1.3c2-0.1,4.5,0,5.7,0.2
		c1.3,0.3,2.3,0.3,2.6,0c0.2-0.2,1-0.3,2,0c1,0.2,1.7,0.2,2,0s1.1-0.5,1.9-0.5c0.8,0,1.5-0.3,1.7-0.7c0.2-0.4,0.9-0.7,1.7-0.7
		c1.3,0,1.4-0.1,0.9-0.9c-0.8-1.5-0.6-1.9,1-2.6c0.9-0.3,2.2-1.2,3.1-1.9c1.1-0.9,2.1-1.3,3.8-1.3c3.2-0.1,6.2-1.6,5.8-2.9
		c-0.1-0.5,0.1-1.4,0.7-2c0.5-0.6,1.4-1.6,1.9-2.3c0.9-1.1,1-1.2,3.5-0.6c3.7,0.8,5.7,0.7,7.2-0.4c0.9-0.7,2-1,3.9-1
		c1.5,0,2.9-0.2,3.3-0.6c0.4-0.4,1.4-0.4,4.1,0c1.9,0.3,4.3,0.5,5.3,0.3c1.3-0.2,1.8-0.1,2,0.4c0.2,0.6,0.6,0.7,1.3,0.5
		c0.5-0.2,3.3-0.4,6-0.5c4.1-0.2,5.1-0.1,5.5,0.5c0.4,0.6,0.8,0.6,1.9,0.2c0.7-0.2,1.8-0.5,2.5-0.5c2,0,5.1-3.2,6.5-6.9
		c2-5.2,2.8-6.3,5.6-7.3c1.3-0.4,3.2-1.2,4.2-1.8c3.9-2.1,9.7-5,10.1-5c0.3,0,1.1-0.8,1.8-1.7c1.9-2.6,3.9-3.1,9.3-1.9l4.4,0.9
		l8.5-2.3c6-1.6,9.8-3,13.4-4.8l5-2.5l5.2,0c3.3,0,6.1-0.3,7.7-0.8c1.9-0.5,3.6-0.7,7-0.4c3.8,0.2,4.8,0.2,5.7-0.5
		c0.6-0.4,2.1-0.8,3.3-0.8c1.9,0,2.6,0.3,5.7,2.9c6,4.8,5.9,4.8,9.4,3.8l2.9-0.8l3.5,2.2l3.4,2.2l2.5-0.8l2.5-0.8l1.5,1.5
		c1.2,1.2,1.5,1.7,1.3,3.3c-0.1,1-0.1,1.9,0,1.9c0.1,0,0.9-0.4,1.8-1c1.3-0.8,1.7-0.9,1.9-0.3c0.1,0.3,0.4,1.4,0.7,2.3
		c0.5,1.5,0.4,1.6-0.5,1.4s-1-0.1-0.7,1.2c0.1,0.8,0.3,1.8,0.3,2.2c0,0.3,2,2.3,4.5,4.3c3.6,2.9,4.5,3.8,4.3,4.7
		c-0.1,0.8,0.5,1.8,2.7,4c2.5,2.5,2.9,3.1,2.6,4.2c-0.2,0.8,0,1.8,0.4,2.5c0.4,0.6,0.8,1.9,0.8,2.8c0,1.4-0.1,1.7-1,1.4
		c-1.2-0.3-0.9,0.2,2.1,3.7c2.2,2.4,2.4,2.6,3.7,2.1c1.2-0.4,1.4-0.7,1.4-2.9c0-2.6,1.3-4.3,2.6-3.2c0.5,0.4,0.7,0.3,1.1-0.6
		c2.1-5.5,4-7.6,9.2-9.9c3.2-1.4,4-2,4.2-3c0-0.7,0.9-2.1,1.8-3.1c0.9-1,1.7-2.3,1.7-2.8c0-0.5,0.2-1.1,0.5-1.3
		c0.3-0.2,1.1-1.2,1.9-2.3c1.1-1.5,1.3-2.3,1.1-3.7c-0.2-1-0.1-1.7,0.2-1.7c0.8,0,1.7,1.9,1.3,2.9c-0.1,0.5,0,1.7,0.5,2.7
		c0.9,2.2,0.9,2.2-0.2,2.5c-1.1,0.3-1.2,0.9-0.5,4.3l0.4,2.2l-2.6,2.6l-2.7,2.7l-0.6,7c-0.5,5.6-0.8,7-1.3,6.9
		c-0.4-0.1-1.5,0-2.5,0.1c-1.4,0.2-2,0.6-2.6,2c-1.3,2.7-1.1,3.3,0.8,2.9c0.8-0.2,3.2-0.3,5.2-0.3l3.6,0.1v-1.3c0-0.7,0.5-2.1,1.2-3
		c0.9-1.1,1.3-2.5,1.6-4.6c0.1-1.7,0.4-3,0.6-3c0.2,0,0.5-0.8,0.7-1.7c0.2-0.9,0.5-1.7,0.8-1.7c1,0,3.7,5.8,4.5,9.8l0.8,4.2L379,341
		c-2.2,3.2-3.4,5.5-2.7,5.5c0.3,0,1.2,0.7,1.9,1.5c1.3,1.4,1.5,1.4,2.2,0.7c0.4-0.4,0.8-1.2,0.8-1.7c0-1.4,1.3-1.7,4.2-0.8
		c3.2,1,5.9,3.7,8.8,8.8c1.7,3.1,2.1,4.3,2.4,7.1c0.1,2.1,0,3.9-0.4,4.8c-0.5,1.4-0.4,1.8,1.5,5.4c1.9,3.6,7.1,10.9,8.2,11.7
		c0.3,0.2,2,0.7,3.8,1.2c3.8,1,7.5,3.3,7.5,4.7c0,1.5,2.4,1.3,3-0.2c0.4-1,0.7-1.2,2.1-0.9c0.9,0.1,2.3,0.7,3.1,1.3
		c1,0.7,2.1,1,3.5,0.9c1.8,0,2.3,0.1,3.3,1.3c0.9,1.1,1.8,1.5,3.6,1.8c1.7,0.3,2.7,0.7,3.3,1.6c0.5,0.6,1.3,1.2,1.7,1.2
		c0.4,0,1.4,0.4,2.2,0.8c1.5,0.9,1.8,0.8,2.5-0.9c0.4-0.8,9.8-7.5,11.1-7.8c1.8-0.5,2.5-2.6,0.8-2.6c-0.5,0-1.1-0.1-1.2-0.3
		c-0.5-0.5,3.2-2.6,4.7-2.6c1.1,0,1.4,0.3,1.8,2l0.5,2l-2.2,1.6c-2.5,1.7-2.5,1.7,1.7,3.1c2.8,1,3.5,0.8,2.7-0.6s-0.1-3.1,1.2-3.1
		c1.4,0,2,1,1.3,2.3c-0.7,1.3,0.4,3.2,2.8,4.5c1.1,0.6,2,1.4,2,1.7s0.3,1,0.8,1.4c0.6,0.7,1,0.8,1.7,0.4c1-0.5,1.9-0.2,1.9,0.7
		c0,0.3,0.4,1.1,1,1.8c1,1.2,1,1.2,1.7,0.3c0.4-0.5,0.7-1.7,0.7-2.5c0-2.2,1-3.4,4.6-5.4c1.7-1,5.8-4.1,9-7c5.8-5.1,6-5.2,8.9-5.5
		c4.3-0.4,9.3-0.4,11.1,0.1c2.6,0.7,7.2-1.5,9.1-4.4c1.8-2.6,2.1-4.8,1.2-8.8c-0.5-2.2-0.4-2.6,0.4-3.2c0.7-0.6,1.1-2,1.7-7
		c0.8-7,2.7-12.6,5.4-16.4c1.9-2.7,2.8-5,2.8-7.5c0-2.7,1.2-5.8,3.3-8.2c1.2-1.4,2.2-3.4,2.7-5.3l-9.2,5.8l2.9-11.9l-9.3-7.8l12.1-1
		l4.6-11.2l4.7,11.3l1.2,0.1c0.5-0.6,1.1-1.1,1.7-1.6c3-2.4,9.1-10.6,9.1-12.4c0-0.6,0.5-1.6,1.2-2.2c0.9-0.8,1.2-1.6,1.2-2.9
		c0-1,0.2-2,0.4-2.2c0.8-0.8,2.1-8.9,1.5-9.4c-0.7-0.7-0.5-4.4,0.2-5.5c0.4-0.5,0.7-1.5,0.7-2.1c0-0.6,0.7-3.2,1.5-5.8
		c0.9-2.8,1.5-5.8,1.5-7.3c0-2.8,0.5-4.7,1.8-7.6l-4.9-0.4l6.6-3.8c0,0,0,0,0,0c-0.2,0-0.5-0.7-0.5-1.6c0-2.4-2.9-12.8-4-14.2
		c-0.5-0.7-0.9-1.4-0.9-1.7c0-0.2-0.5-0.9-1.1-1.4c-0.9-0.7-1-1-0.5-1.5c0.7-0.8,0.9-19.1,0.1-18.6c-0.4,0.2-1.5-2.6-1.5-4
		c0-0.3-0.2-1.3-0.5-2.4c-0.3-1.3-0.7-1.8-1.5-1.8c-0.6,0-1.7-0.4-2.5-1c-1.2-0.9-1.4-1.5-1.7-4c-0.2-2.3-0.5-3-1.1-3
		c-1.2,0-4.8-4-5.5-6.1c-0.7-2.2-2.8-4-4.2-3.7c-1.1,0.3-6-3.2-8.2-6.1c-1.4-1.8-1.5-2.2-1.9-8.1c-0.2-5.2-0.5-6.3-1.3-7.3
		c-1.3-1.4-1.8-1.4-1.8,0.1c0,0.7-0.1,1.2-0.3,1.2c-1,0-3.6-2.2-4.6-3.9c-0.8-1.5-1.3-1.9-2.1-1.7c-0.8,0.2-1,0.7-1,2.5v2.3
		l-2.7-2.7c-2.6-2.6-2.7-2.8-2.7-5.5c0-1.8-0.4-3.8-1-5.5l-4.8,7.2l16.4,9.8l-19,1.6l2.6,18.9l-13-13.8l-13.2,13.7l2.6-18.8l-19-1.6
		l16.4-9.8L476,134.6l17.8,6.7l5.8-18.1l5.8,18.1l9-3.4c-0.1-0.1-0.1-0.2-0.2-0.4c-0.5-1-2-2.8-3.3-4c-2.7-2.3-3.2-3.8-1.1-3.4
		c0.7,0.1,1.2,0,1.2-0.1c0-0.7-2-4.3-2.4-4.3c-0.2,0-1.1-0.6-2-1.3c-1.2-1-1.5-1.1-1.5-0.5c0,1.3-1.7,0.9-2.5-0.6
		c-0.6-1-1.3-1.5-2.6-1.7c-1.3-0.2-2-0.7-2.4-1.5c-0.4-0.8-0.7-1.1-1.1-0.7s-0.9-0.2-1.6-1.7c-1-2-1.2-2.2-2.8-2.2
		c-1.4,0-2.1-0.3-3.3-1.6l-1.4-1.6v1.4v1.4l-2.3-1.7c-1.3-0.9-2.9-1.8-3.5-2c-1.6-0.5-2.8-2.7-2.7-5.1c0.1-1.8-0.1-2.4-1.7-4
		c-1.9-2.2-2.1-3.2-1.2-8.3c0.4-2.6,0.3-3.3-0.7-6c-0.7-1.7-1.2-3.7-1.2-4.4c0-1-0.3-1.2-1.3-1.4c-1-0.1-1.4-0.4-1.5-1.2
		c-0.1-0.6-0.7-1.6-1.4-2.2c-0.8-0.7-1.2-1.6-1.2-2.9c0-2.2-0.9-7.1-1.8-10c-0.4-1.2-0.7-2.9-0.7-3.8c0-0.8-0.2-1.7-0.5-1.9
		c-0.3-0.2-0.2-0.7,0.2-1.5c0.9-1.3,1-1.9,0.3-1.4c-0.2,0.1-1.6-0.8-3-2.2c-1.3-1.3-3.1-2.5-3.8-2.7c-0.7-0.2-1.4-0.7-1.6-1.2
		c-1.4-3.9-1.6-4.3-2.5-3.4c-0.5,0.5-1.3,0.7-1.9,0.5c-0.8-0.2-1.3,0-1.9,1c-0.6,0.9-1.3,1.3-2.3,1.3c-1.6,0-2.4-1.2-3.4-5.1
		c-0.3-1.3-0.9-2.9-1.3-3.5c-0.6-0.9-0.6-1.4-0.1-2.6c0.4-1.2,0.4-1.9,0-2.7c-0.3-0.6-0.7-2.4-0.8-3.9c-0.1-1.5-0.5-2.8-0.8-2.9
		c-0.3-0.1-0.5-0.8-0.5-1.6c0-0.9-0.5-1.9-1.7-3.1c-2.2-2.2-2.6-3.6-1.5-4.9c1.1-1.2,0.4-2.7-1.2-2.6c-1.1,0.1-1.6-0.9-2.8-5.8
		c-1.6-6.6-1.7-6.9-2.8-7.2c-0.7-0.2-0.8-0.5-0.5-0.9c0.7-0.8,0.2-1.3-1.3-1.3c-0.8,0-1.1,0.3-1.1,0.9c0,0.6-0.7,1.2-2,1.7
		c-1.7,0.6-2,1-1.7,1.8c0.1,0.5,0,2.9-0.3,5.1c-0.4,3-0.8,4.5-1.7,5.4c-1.8,1.9-4.2,6.2-4.2,7.4c0,0.6,0.3,1,0.9,1
		c1,0,2.8,1.3,2.2,1.5c-0.2,0.1-1.1,1.1-2,2.3c-1.6,2.1-1.7,2.1-0.9,4.2c0.6,2,0.6,2.2-0.3,3.5c-1.4,2-1.9,6-1,8.2
		c0.5,1.2,0.7,3.2,0.6,5.9c0,2.2,0.2,4.7,0.5,5.5c0.5,1.2,0.3,2-0.7,5.1c-0.8,2.5-1.2,4.8-1.2,7c0,4.5-1.5,8.7-4.3,11.5
		c-1.6,1.6-2.2,2.8-2.5,4.4c-0.5,3-2.7,6.3-5.2,7.6c-2.8,1.4-5.7,1-9.4-1.2c-1.5-0.9-3.4-1.9-4.3-2.3c-1-0.4-1.8-1.2-2.3-2.5
		c-1.2-2.8-5.8-5.5-9-5.5c-2.7,0-4.1-0.8-7.9-4.6c-4.3-4.3-9-7.4-12.1-7.7c-1.7-0.2-2.3-0.5-2.6-1.3c-0.2-0.7-1-1.2-1.9-1.4
		c-1.1-0.2-1.8-0.8-2.3-2c-0.6-1.3-1.7-2.1-5.5-4c-2.6-1.3-4.9-2.8-5.2-3.3c-0.7-1.4,0.2-3.7,4-9.4c3.5-5.5,4.4-7.8,2.5-7.2
		c-1.5,0.4-2.2-1.3-1.4-3.4c0.7-1.8,2.3-3,4.5-3.5c1.2-0.3,1.3-0.2,1.3,0.9c0,1.8,1.3,1.5,1.8-0.4c0.2-0.8,0.3-2,0.2-2.5
		c0-0.4,0.5-1.7,1.3-2.7c0.8-1,1.9-2.8,2.5-3.9c1-2.1,1-2.1,0.1-2.6c-0.5-0.2-1.3-0.5-1.8-0.5c-0.4,0-1.5-0.5-2.4-1.2l-1.6-1.2
		l-1.6,1c-1.6,0.9-1.6,1-0.8,1.9c0.9,1,0.7,2.5-0.4,2.5c-0.8,0-2-1.3-2.5-2.6c-0.2-0.7-0.5-0.8-1.6-0.4c-0.4,0.1-0.7,0.3-1,0.3V28
		L269.2,83.3z M370.3,249.2l17.8,6.7l5.8-18.1l5.9,18.1l17.8-6.7L407,265l16.4,9.7l-19,1.7l2.7,18.9l-13.2-13.9l-13,13.9l2.5-18.9
		l-19-1.6l16.4-9.8L370.3,249.2z"/>
	<path fill="#000066" d="M69.7,166.7c0,0.2,0,0.3,0,0.5c-0.2,2.7-0.3,3.7-1.2,5.3l8-5.8H69.7z"/>
	<path fill="#FFFFFF" d="M201.6,83.3h3.1l44.1-31.9l-2.9-2.8c-1-0.9-1.9-1.8-2.7-2.5l-41.6,30.1V83.3z"/>
	<path fill="#FFFFFF" d="M269.2,83.3L345.7,28v-6.8c-1.1,0.3-1.2,0.1-0.8-0.8c0.2-0.5,0.5-1.1,0.5-1.3c0-0.7-4.3,0.4-5.1,1.3
		c-1,1.2-2.3,1.2-3.7-0.1c-0.9-0.8-2-1.1-5-1.4c-2.4-0.2-5.3-0.9-8-1.9c-0.3-0.1-0.7-0.3-1-0.4L268.2,56c0.1,0.4,0.3,0.9,0.5,1.5
		c0.3,0.8,0.3,0.8-1.1,0c-0.2-0.1-0.5-0.3-0.7-0.5l-36.4,26.3H269.2z"/>
	<path fill="#FFFFFF" d="M76.5,166.7l-8,5.8c-0.4,0.6-0.8,1.4-1.5,2.4c-1.7,2.5-2.4,4-2.4,5.2c0,3.4,3.4,11.8,7.1,18.1l43.6-31.5
		H76.5z"/>
	<polygon fill="#FFFFFF" points="201.6,166.7 201.6,173.8 307,250 345.7,250 230.5,166.7 	"/>
	<path fill="#FFFFFF" d="M144,166.7h-3l-72.1,52.2c0.6,0.8,1.1,1.7,1.6,2.4c1.2,1.9,1.9,3,2.3,4.1l71.2-51.5V166.7z"/>
	<path fill="#FFFFFF" d="M287,20.5c-0.8,0.3-1.2,0.9-1.2,1.7c0,0.8-0.2,1-1,0.8c-0.5-0.1-1.8-0.1-2.7,0c-1.7,0.3-1.7,0.4-1.7,2.5
		c0,2-0.1,2.2-1.5,2.5c-0.8,0.2-1.5,0.5-1.5,0.7c0,0.2-0.5,0.9-1.1,1.5c-0.8,0.7-1,0.9-0.7,1.7l15.4-11.1
		C289.8,19.8,288.8,19.6,287,20.5z"/>
	<polygon fill="#FFFFFF" points="345.7,231.4 345.7,222 269.2,166.7 256.2,166.7 	"/>
	<path fill="#FFFFFF" d="M66.8,200.3c-1.4-1.2-1.8-1.1-1.8,0.4c0,0.7,0.1,1.4,0.2,2.1l2.4-1.7C67.3,200.8,67.1,200.5,66.8,200.3z"/>
	<polygon fill="#FFFFFF" points="201.6,173.8 201.6,166.7 230.5,166.7 256.2,166.7 269.2,166.7 345.7,166.7 345.7,150 190,150 
		190,250 201.6,250 	"/>
	<path fill="#FFFFFF" d="M345.7,100V83.3h-76.5h-38.7h-25.8h-3.1v-7.1v-1.3c-0.2-0.1-0.6-0.4-1.2-0.8c-1.6-1.2-2.6-1.3-3-0.2
		c-0.2,0.6-0.4,0.6-1.4-0.3c-0.9-0.8-1.5-1-2.7-0.7c-1.6,0.3-1.9,0.9-1,1.5c0.3,0.2,0.4,1,0.2,2c-0.2,1.5,0,2,1.4,3.8
		c1.8,2.1,2.3,3.4,1.1,3.4c-0.4,0-1.2,0.5-1.8,1.2c-0.8,0.9-1,1.5-0.8,2.7c0.2,0.8,0.2,1.5,0.1,1.5c-0.2,0-1.3-1.7-2.6-3.8V100
		H345.7z"/>
	<path fill="#FFFFFF" d="M115.2,166.7H141h3v7.2V250h11.6V150H79c-0.4,0.7-0.7,1.6-1.1,2.7c-1,2.9-1.4,3.5-2.3,3.5
		c-0.8,0-1.1-0.4-1.4-2c-0.2-1-0.2-2.8,0-4.1h-3.4c-0.2,0.3-0.3,0.7-0.5,1.2c-2.4,5.4-2.5,6.2-1.3,9.3c0.8,2.1,1,3.2,0.8,6.2h6.8
		H115.2z"/>
	<path fill="#CC0000" d="M68,207.5c1.8,1.5,2,1.9,1.8,3.6c-0.2,3.2-1.6,2.8-3.4-0.9c-1.7-3.4-3.4-5.1-3.4-3.4c0,0.5-0.3,1-0.6,1.2
		c-0.5,0.2-0.5,0.3,0,0.9c0.3,0.3,0.6,1,0.6,1.5c0,0.5,1,2.2,2.4,3.8c0.9,1.1,2.2,2.9,3.5,4.7l72.1-52.2h-25.8l-43.6,31.5
		c1.1,2,2.3,3.7,3.4,5.1c1.3,1.6,1.3,1.7,0.7,3.5c-0.4,1-1,2.5-1.3,3.2l-0.6,1.3l-1.2-2.5c-0.9-1.9-1.4-2.4-2.1-2.3
		c-0.7,0.2-0.9,0-0.9-0.9c0-1.3-0.8-3.2-1.9-4.4l-2.4,1.7C65.6,204.7,66.5,206.3,68,207.5z"/>
	<polygon fill="#CC0000" points="230.5,166.7 345.7,250 345.7,231.4 256.2,166.7 	"/>
	<path fill="#CC0000" d="M316.6,15.4c-1.7,0-3.1-0.2-3.4-0.6c-0.3-0.3-1.1-1.3-1.8-2.2c-1.6-2-3.9-2.2-5.7-0.3
		c-1.1,1.2-1.1,1.3-0.3,2.7c0.4,0.8,0.8,2,0.8,2.7c0,1.7-3.1,3.6-7,4.2c-5.3,0.8-6.8,0.6-8-0.7c-0.1-0.1-0.1-0.1-0.2-0.2l-15.4,11.1
		c0.1,0.3,0.3,0.6,0.5,1c0.4,1,0.8,1.8,0.7,1.9c-1.8,1.3-2.8,1.7-3.6,1.7c-0.8,0-1.3,0.6-2.2,2.8c-0.6,1.5-1.9,3.8-2.8,5
		c-2.1,2.7-2.1,4.4-0.2,6.7c1.6,1.9,1.9,3,0.7,3c-0.6,0-0.7,0.5-0.4,1.8l54.5-39.4C320.2,15.8,318.4,15.4,316.6,15.4z"/>
	<path fill="#CC0000" d="M230.5,83.3L266.9,57c-0.7-0.5-1.5-1.2-2.1-1.7l-1.4-1.3v1.4c0,1.1-0.1,1.3-0.7,0.8c-1-0.8-5.8-2.2-7.5-2.1
		c-1.6,0.1-3.7,1.8-3.7,3c0,0.8-0.9,2-1.6,2c-0.2,0,0-1.2,0.6-2.6l1-2.6l-2.7-2.6l-44.1,31.9H230.5z"/>
	<path fill="#CC0000" d="M74.2,149.6c0.3-2.3,0.3-2.4-0.9-2.4c-1,0-1.4,0.4-2.5,2.8h3.4C74.2,149.9,74.2,149.7,74.2,149.6z"/>
	<path fill="#CC0000" d="M155.6,150v100H190V150h155.7v-50H190V85.2c-1.5-2.4-3.2-5.4-3.8-6.9c-0.8-1.7-1.5-2.8-1.8-2.5
		c-0.2,0.2-1.2,1.4-2.2,2.6c-1,1.2-2.6,2.8-3.7,3.5c-2.9,2.1-4.2,6.7-3.2,12.1c0.2,1.3,0.5,1.8,0.9,1.6c0.4-0.1,0.9,0.1,1.2,0.6
		c0.4,0.8-0.2,1.4-4.3,4.6c-4.6,3.6-4.8,3.8-6.3,7.6c-2,4.9-4.1,7-10.5,10.4c-5.8,3.2-8.7,3.9-14.9,3.7c-5-0.1-8.6,1-8,2.5
		c0.4,1.1-0.6,1.6-3.4,1.6c-2.9,0-5.1,0.8-8.1,3.2c-3.1,2.3-6.5,2.8-8.9,1.3c-1.6-1-1.8-1-2.8-0.3c-1.5,1-1.9,1-1.9-0.3
		c0-1-0.2-0.9-1.7,0.7c-1.2,1.2-2.4,2-3.8,2.3c-1.3,0.3-2.8,1.2-4.3,2.7c-5,4.8-9.3,7.8-13,9c-3.5,1.2-5.1,2.2-6.3,4.6H155.6z"/>
	<path fill="#FFFFFF" d="M499.6,123.2l-5.8,18.1l-17.8-6.7l10.5,15.8l-16.4,9.8l19,1.6l-2.6,18.8l13.2-13.7l13,13.8l-2.6-18.9
		l19-1.6l-16.4-9.8l4.8-7.2c-0.4-1.1-0.9-2.1-1.4-2.7c-0.4-0.5-1.1-1.6-1.6-2.6l-9,3.4L499.6,123.2z"/>
	<path fill="#FFFFFF" d="M489.1,443.9l-2.6,18.9l13.2-13.9l2.9,3.1c0.1,0,0.2,0,0.3,0h1.2l-0.3-9.3l-0.3-9.3l-1.8-1.9
		c-1-1-2-1.8-2.4-1.8c-0.3,0-2,0.6-3.8,1.5c-2.5,1.1-4,1.5-6.3,1.5c-1.4,0-2.5,0.2-3.4,0.4l-15.7,9.3L489.1,443.9z"/>
	<path fill="#FFFFFF" d="M542,294.6l-4.6,11.2l-12.1,1l9.3,7.8l-2.9,11.9l9.2-5.8c0.2-0.9,0.4-1.9,0.4-2.7c0-0.6,1.3-3.5,2.9-6.4
		c1.5-2.7,2.5-4.3,3.7-5.6l-1.2-0.1L542,294.6z"/>
	<polygon fill="#FFFFFF" points="383.4,276.4 380.9,295.3 393.9,281.4 407.1,295.3 404.4,276.4 423.4,274.7 407,265 417.6,249.2 
		399.8,255.9 393.9,237.8 388.1,255.9 370.3,249.2 380.8,265 364.4,274.8 	"/>
	<path fill="#FFFFFF" d="M569,246.9c0.2-0.5,0.4-0.9,0.7-1.5c0.8-1.5,1.2-2.8,1-2.8l-6.6,3.8L569,246.9z"/>
</g>
</svg>
