<?xml version="1.0" encoding="utf-8"?>
<!-- Generator: Adobe Illustrator 17.1.0, SVG Export Plug-In . SVG Version: 6.00 Build 0)  -->
<!DOCTYPE svg PUBLIC "-//W3C//DTD SVG 1.1//EN" "http://www.w3.org/Graphics/SVG/1.1/DTD/svg11.dtd">
<svg version="1.1" id="flag-icon-css-aw" xmlns="http://www.w3.org/2000/svg" xmlns:xlink="http://www.w3.org/1999/xlink" x="0px"
	 y="0px" viewBox="0 0 640 480" enable-background="new 0 0 640 480" xml:space="preserve">
<g>
	<polygon fill="none" points="496.4,480 496.4,480 496.4,480 	"/>
	<path fill="#3399CC" d="M483,318.6l-3.4,0.1c-4,0.1-8.1-0.8-11.8-2.8c-2.3-1.2-3-2-5.7-6c-1.7-2.6-3.8-5.1-4.7-5.6
		c-1.2-0.8-1.7-1.5-1.9-2.8c-0.2-1.3-0.8-2.2-2.4-3.5c-1.7-1.5-2.1-2-2.1-3.5c0-1.4-0.3-1.9-1.6-2.9c-0.9-0.7-1.7-1.6-1.9-2.1
		c-0.1-0.5-1.4-1.7-2.8-2.6c-1.4-1-3.6-2.9-5-4.4c-1.4-1.4-3.8-3.8-5.5-5.3c-2.6-2.3-3.2-2.6-4.3-2.3c-1.1,0.3-1.5,0.1-3.3-1.7
		c-3.1-3.2-6-4.8-8.4-4.8h-2l0.3-3l0.3-2.9l-2.6-1.7c-1.4-0.9-3.8-3.2-5.4-5.1c-2.4-2.9-3.1-3.5-4.7-3.7c-1.8-0.3-1.9-0.3-1.9-2.1
		v-1.9l-2.8-0.7c-2.7-0.7-2.8-0.8-2.4-2.1c0.5-1.7-0.7-3.9-2.2-4.3c-0.7-0.2-1.4-1-2.2-2.7c-0.9-2.1-1-2.9-0.8-6.7
		c0.2-3.5,0.1-4.5-0.5-5.5c-0.4-0.7-1.1-1.2-1.5-1.2c-0.4,0-2.3-0.8-4.2-1.9l-3.5-1.9l-0.8,1c-1.5,1.9-3.4-0.2-2.8-3.2
		c0.2-1.2,0.1-1.4-1.7-2.2c-1.1-0.5-2.6-1.4-3.3-2.1c-1-0.8-1.8-1.1-3.2-1l-1.8,0.1l0.3-2.1c0.3-2,0.2-2.1-3.3-5.9
		c-3.7-4-7.1-6.4-8.3-5.9c-0.6,0.2-0.9-0.2-1.3-1.8c-0.3-1.1-0.9-2.4-1.4-2.9c-0.5-0.5-1.3-1.9-1.9-3l-1-2.1l-1.4,1.6
		c-0.7,0.9-1.4,1.7-1.4,1.9c0,0.1-0.8,0.4-1.9,0.6c-1.4,0.2-1.9,0.5-1.9,1.2s-0.2,0.8-1.1,0.6c-0.6-0.1-2.7,0-4.7,0.3
		c-3.5,0.5-5.4,0.3-7.9-1c-0.6-0.3-1-0.3-1.4,0c-0.8,0.8-1.3,0.6-1.3-0.6c0-0.7-0.2-1.7-0.5-2.4c-0.4-1.1-0.3-1.4,0.7-2.5l1.2-1.3
		l-1.2-1.7c-0.7-1-1.1-2.1-1-2.6c0.2-1.4-1-2.4-3-2.4c-1.4,0-2.3-0.4-3.8-1.6c-1.1-0.9-3.5-2.6-5.5-3.7c-2.5-1.5-3.7-2.6-4.2-3.5
		c-0.5-1.2-0.8-1.4-2.3-1.4c-1.3,0-2.6-0.6-4.9-2.1c-3.2-2.1-4.6-2.5-5.2-1.6c-0.6,0.9-1.1,0.4-1.4-1.4c-0.4-2.5-1.9-3.4-4.7-2.9
		c-2.4,0.4-2.6,0.3-2.6-1.3c0-1-0.8-1.7-4.7-4.2c-2.6-1.7-4.9-3-5-2.9s-0.7,0.2-1.1,0.4c-0.7,0.3-0.8,0.1-0.8-0.9
		c0-1.9-2.3-2.9-5.3-2.1c-3.3,0.7-5.6,0.1-9.3-2.6c-2.6-1.9-3.2-2.6-3.6-4.3c-0.4-1.4-1.1-2.4-2.3-3.5c-1.3-1.1-2.1-2.3-3-4.7
		c-1-2.6-1.5-3.4-2.8-4c-0.9-0.4-2.3-1.8-3.3-3c-0.9-1.3-3.7-3.8-6.3-5.7c-2.5-1.9-5.9-4.6-7.5-6.1c-2.2-1.9-3.4-2.6-4.6-2.7
		c-1.6-0.1-1.6-0.2-2.8-3.9l-1.2-3.7l-9.4-8.9c-5.2-4.9-10-9.7-10.8-10.7c-3.1-4.4-8.9-14.5-11.8-20.8c-1.7-3.7-4.1-8.2-5.2-9.9
		c-1.1-1.7-2.8-4.3-3.8-5.9c-1.7-2.8-1.8-2.8-4.9-3.5c-2.8-0.7-3.5-1.2-5.4-3l-2.2-2.2l-2.6,0.7l-2.5,0.7l-1.7-2.1
		c-1-1.1-3.4-3.8-5.4-5.9c-3.1-3.2-4-3.9-5.9-4.3c-2.5-0.6-8.9-4.9-15.5-10.6c-4.5-3.8-7.2-7.7-6.7-9.6c0.3-1.2,0.3-1.2-5.5-3.6
		c-1.8-0.7-4.9-2.5-6.9-3.9c-2-1.4-3.8-2.6-4-2.5c-0.2,0-1.4,0.4-2.8,1c-2.1,0.8-2.6,1.3-3.7,3.3c-0.7,1.4-2.1,3.4-3,4.5
		s-2.1,3-2.5,4.2l-0.8,2.1l6.5,6.5l6.5,6.5l1.5,6.5c0.8,3.6,1.9,8,2.4,9.8c0.5,1.8,0.9,4.2,0.9,5.3c0,1.3,0.4,2.7,1.1,4
		c1.2,2,3.2,9.1,3.7,12.8c0.1,0.7,0.6,2.3,1.3,4.1l2.7,2.7l-2.7-2.7c0.4,1.1,1,2.4,1.5,3.5c0.3,0.7,0.6,1.3,0.8,1.8l0.1,0.1
		l3.1-11.6l-2.9-2.9l2.9,2.9l2.5-9.4l-2.3-2.3l2.3,2.3l0.6-2.3l-3-3l3,3l1.8-7l-1.9-1.9l1.9,1.9l0.6-2.4l-2.5-2.5l2.5,2.5l1.8-7
		l-1.4-1.3v-0.1l1.4,1.4l0.6-2.3l-2-2l2,2l0.4-1.7l0-0.1l0.1-0.2l-0.1,0.3l2.9,10.9l0.5,0.6l-0.5-0.5l1.1,4l2.5,2.5l-2.5-2.5
		l3.8,14.1l0.6,1.2l-0.6-1.2l13.2,49.3l6.8,1.8l-0.7-0.7l0.7,0.7l4.1,1.1l-1.8-1.8l1.8,1.8l8,2.1l-1.1-1.1l1.1,1.1l8,2.1l-0.2-0.2
		l0.2,0.2l51.4,13.7l-6.5,1.7l2.1,2.1l-2.1-2.1l-71.9,19.3L145.6,220l3,3l-3-3l-1.9,7l1.8,1.9l-1.8-1.8l-1.6,5.8l-8.2-30.5l-0.2-0.2
		l0.2,0.2l-3.2-12l0,0l0,0l-2.2-8.1l-0.8-0.8l0.8,0.8l-2.2-8.1l-1.6-1.6h0.1l1.5,1.5l-2.1-8l-2.3-2.3l2.3,2.3l-1.1-4L122,161v-0.1
		l1.2,1.2l-2-7.6l-7.5-2c0,0.4,0,0.8,0.1,1.2l0.2,2.1l2.2,2.2l-2.2-2.2l0.2,2.2l-1.2,2.6l0.3,0.3l-0.3-0.3l-2.1,4.4
		c-2.9,6-3.8,7.4-6.3,9.9c-1.5,1.6-3.5,4.1-4.4,5.6c-0.9,1.5-1.9,3.2-2.2,3.7c-0.3,0.5-1.6,1.4-2.8,1.8c-1.2,0.5-2.4,1-2.6,1.1
		c-0.5,0.5,2.7,7.6,3.7,8.3c0.4,0.3,1.9,0.9,3.2,1.4c1.3,0.4,3.6,1.4,5.2,2.1l2.8,1.4l1.6,4.7c0.9,2.6,1.8,4.9,2.1,5.1
		c0.3,0.2,1.8,0.9,3.4,1.5c2.6,1,3.2,1.4,6.1,5.1c1.9,2.4,3.5,5,3.9,6.3c0.7,2.1,0.7,2.1,3.6,2.9c3.2,0.9,5,2.2,5.9,4.4
		c0.5,1.2,0.8,1.4,2.7,1.4c2.8,0.1,3.6,0.7,2.2,1.4c-1.1,0.6-1,0.6,0.8,0.9c2,0.3,2.7,1.2,1.1,1.2c-0.1,0-0.3,0-0.4,0l2.4,2.4
		l-2.4-2.4c-0.4,0.1-0.7,0.2-0.8,0.3c-0.2,0.3,7.8,6.2,8.1,5.9c0.1,0-0.3-0.7-0.8-1.4c-0.8-1-0.9-1.4-0.4-1.7c1.2-0.7,1.9-0.4,4.4,2
		c1.4,1.3,2.7,2.3,2.9,2.3c0.2,0,1.1,0.9,1.9,2.1s1.8,2.1,2.1,2.1c0.4,0,2.2,0.9,4,2l3.2,2l2.6,5.5c2.2,4.9,2.5,5.6,2.1,7
		c-0.8,2.8-0.5,5,0.7,6.1c0.7,0.7,1.2,1.7,1.3,2.7c0.1,1.6,0.2,1.6,4.8,3.1c8.1,2.6,10.7,3.8,11.7,5.3c0.9,1.3,1.1,1.4,3,1.1
		c1.8-0.2,2.5,0,4.9,1.3c4.9,2.8,5.2,3.1,7,6.9l1.7,3.6l3.6,1.7c2.3,1.1,4.1,2.2,4.8,3.2c1.1,1.4,1.1,1.6,0.6,4.8
		c-0.3,1.8-0.5,3.3-0.5,3.3c1.6,0.9,8,5.7,8.5,6.5c0.4,0.6,1.3,1.3,2.1,1.4c0.7,0.2,1.9,0.7,2.5,1.2c0.9,0.7,1.4,0.8,2.9,0.5
		c1-0.2,2.5-0.5,3.3-0.5h1.5l-0.2,2.4c-0.1,0.9-0.1,1.5-0.1,2h250.1L483,318.6z M130.9,72.4l-3-3L130.9,72.4z M130.8,60.5l3,3
		L130.8,60.5z M169.3,101.9l-3-2.9v-0.1L169.3,101.9z M163.4,87.2l-3-3L163.4,87.2z M160.4,81.2l3,3L160.4,81.2z M163.3,93l3,3
		L163.3,93z M163.3,90l3,3L163.3,90z M163.4,81.2l-3-2.9l-3-3l3,3v-0.1L163.4,81.2z M154.5,63.5l3,3L154.5,63.5z M157.4,72.3l3,3
		L157.4,72.3z M157.4,69.4l3,3L157.4,69.4z M157.5,63.5l-3-3L157.5,63.5z M151.5,54.6l3,3L151.5,54.6z M151.5,51.7l3,3L151.5,51.7z
		 M151.5,45.8l-3-3h0.1L151.5,45.8z M142.6,28h0.1l2.9,3L142.6,28z M148.6,37l-3-3L148.6,37z M148.6,39.9l-3-3L148.6,39.9z
		 M148.5,45.8L148.5,45.8l3,3L148.5,45.8z M148.5,57.6L148.5,57.6l3,3L148.5,57.6z M154.5,69.4l-3-3L154.5,69.4z M157.5,81.2l-3-3
		L157.5,81.2z M155.4,83.2l1,2L155.4,83.2z M160.4,90.1l-3-3L160.4,90.1z M158.4,92l1,2L158.4,92z M161.3,100.9l1,2L161.3,100.9z
		 M160.4,96l3,3L160.4,96z M163.3,107.8l3,3L163.3,107.8z M163.3,104.8l3,3L163.3,104.8z M166.3,101.9l3,3L166.3,101.9z
		 M169.2,107.8l3,3L169.2,107.8z M175.1,110.7h0.1l2.9,3L175.1,110.7z M178,110.7l3,3L178,110.7z M184,113.7l3,3L184,113.7z
		 M186.9,113.7L186.9,113.7l3,3L186.9,113.7z M192.8,116.6l3,3L192.8,116.6z M195.8,116.6l3,3L195.8,116.6z M201.7,119.6l-3-3
		L201.7,119.6l3,3L201.7,119.6z M204.6,119.6l3,3L204.6,119.6z M207.6,119.6l3,3L207.6,119.6z M213.5,122.5l3,3L213.5,122.5z
		 M216.4,122.5l3,3L216.4,122.5z M222.3,125.5l3,3L222.3,125.5z M225.3,125.5l3,3L225.3,125.5z M231.2,128.4l3,3L231.2,128.4z
		 M234.2,128.4l3,3L234.2,128.4z M240,131.4l3,3L240,131.4z M217.5,142.2l-2-1L217.5,142.2z M196.8,148.1l-2-1L196.8,148.1z
		 M187.9,151l-2-1L187.9,151z M179.1,154l-2-1L179.1,154z M166.3,163.9l-3-3L166.3,163.9z M166.3,166.9l-3-3L166.3,166.9z
		 M162.3,170.8l-1-2L162.3,170.8z M163.4,175.7l-3-3L163.4,175.7z M159.4,179.6l-1-2L159.4,179.6z M160.4,184.6l-3-3L160.4,184.6z
		 M156.4,188.5l-1-2L156.4,188.5z M157.5,193.4l-3-3L157.5,193.4z M150.5,209.2l-1-2L150.5,209.2z M148.6,211.1l2.9,3L148.6,211.1
		L148.6,211.1z M136.8,217l-3-3L136.8,217z M139.7,225.9l-3-3L139.7,225.9z M124.9,184.5L124.9,184.5l3,3L124.9,184.5z M127.9,190.5
		l-3-3h0.1L127.9,190.5z M125,178.7l-3-3L125,178.7z M122,169.8l-3-3L122,169.8z M116,155l3,3L116,155z M116,161v-0.1l3,3L116,161z
		 M119,169.8l3,3L119,169.8z M122,178.6l3,3L122,178.6z M124.9,190.4L124.9,190.4l3,3l3,3l-3-3L124.9,190.4z M133.8,208.2l-3-3
		L133.8,208.2z M130.9,199.3l-3-3L130.9,199.3z M127.9,199.3l3,3L127.9,199.3z M130.8,208.2v-0.1l3,3L130.8,208.2z M133.8,217l3,3
		L133.8,217z M136.7,225.9l3,3L136.7,225.9z M139.7,231.8l3,3L139.7,231.8z M145.6,234.7l3,3L145.6,234.7z M145.6,231.8l3,3
		L145.6,231.8z M148.5,225.9h0.1l2.9,3L148.5,225.9z M148.5,222.9L148.5,222.9l3,3L148.5,222.9z M151.5,217l3,3L151.5,217z
		 M151.5,214l3,3L151.5,214z M154.5,208.1l3,3L154.5,208.1z M154.5,205.2l-3-3L154.5,205.2l3,3L154.5,205.2z M157.4,199.3l3,3
		L157.4,199.3z M157.4,196.3l3,3L157.4,196.3z M157.4,193.4l3,3L157.4,193.4z M160.4,190.4l3,3L160.4,190.4z M160.4,187.5l3,3
		L160.4,187.5z M160.4,184.5l3,3L160.4,184.5z M163.3,178.6l3,3L163.3,178.6z M163.3,175.7l3,3L163.3,175.7z M166.3,169.8l3,3
		L166.3,169.8z M166.3,166.8l3,3L166.3,166.8z M169.2,161v-0.1l3,3L169.2,161z M169.2,155l3,3L169.2,155z M175.1,158h0.1l-3-3l3,3
		l2.9,3L175.1,158z M178,158l3,3L178,158z M184,155l-3-3L184,155l3,3L184,155z M186.9,155L186.9,155l3,3L186.9,155z M189.9,149.1
		l3,3L189.9,149.1z M192.8,152l3,3L192.8,152z M195.8,152l3,3L195.8,152z M198.7,152l3,3L198.7,152z M201.7,149.1l-3-2.9v-0.1
		L201.7,149.1l3,3L201.7,149.1z M204.6,149.1l3,3L204.6,149.1z M207.6,149.1l3,3L207.6,149.1z M213.5,146.2l-3-3h0.1L213.5,146.2
		v-0.1l3,3L213.5,146.2z M216.4,146.2v-0.1l3,3L216.4,146.2z M219.4,140.3L219.4,140.3l3,2.9L219.4,140.3z M222.3,143.2l3,3
		L222.3,143.2z M225.3,143.2l3,3L225.3,143.2z M231.2,140.3L231.2,140.3l-2.9-3L231.2,140.3L231.2,140.3l3,2.9L231.2,140.3z
		 M234.2,140.3L234.2,140.3l3,2.9L234.2,140.3z M240,137.3l3,3L240,137.3z M243,137.3l3,3L243,137.3z M243,131.4l3,3L243,131.4z
		 M248.9,134.3L248.9,134.3l3,3L248.9,134.3z"/>
	<path fill="#3399CC" d="M502.8,373c-1.8-3.2-4-6.8-4.8-8c-1.5-2.1-1.5-2.1-1-5.1c0.5-2.9,0.4-3.3-1.9-12.1
		c-0.1-0.4-0.2-0.8-0.3-1.2H287.6c-0.2,0.9-0.1,1.7,0.2,3.1c0.5,2,1,2.7,3.8,5.3c2.3,2,4.2,3.2,6.3,4c2.8,1,2.9,1.2,2.9,2.6
		c0,1,0.5,2.1,1.3,3c1,1.3,1.4,1.4,2.7,1.2c1.1-0.2,1.7,0,2.3,0.6c0.5,0.5,1.6,1,2.6,1.2c1.4,0.2,2.5,1.1,5.6,4.2
		c0.5,0.5,1,1,1.5,1.4H503C503,373.2,502.9,373.1,502.8,373z"/>
	<path fill="#3399CC" d="M496.7,478.2c0.5-2.9,0.5-2.9,3-2.9c1.9,0,2.4,0.2,2.9,1c0.5,0.9,0.3,1.2-0.8,2.1l-1.4,1.1l7.1,0h7.1v-1.1
		c0-2.2,8.5-4.9,13.6-4.2l2.6,0.3l0.3-3.2c0.2-2.5,0.6-3.5,1.5-4.4l1.1-1.2l-1.9-1.5c-1-0.8-3.1-3.3-4.6-5.6l-2.7-4.1l-1.3-8.3
		c-1.2-7.7-1.4-8.4-2.7-9.6l-1.3-1.3l1.2-1.2l1.2-1.3l-0.7-3.2c-1.6-6.8-1.5-6.7-3.6-7.6c-1.1-0.5-2.3-1.3-2.8-1.8
		c-0.8-0.9-0.8-1.2-0.3-4.5c0.3-2,0.7-3.5,0.9-3.5s0.7-0.3,1.1-0.6c0.7-0.5,0.5-1.3-2.9-9.8c-0.3-0.6-0.5-1.2-0.7-1.8H348.8
		c0.5,0.5,1.1,1,1.7,1.8c2.7,2.8,3.9,3.7,6.6,4.9c2.1,0.9,4.2,1.4,5.4,1.4c1.9,0,2.1,0.1,2.6,1.3c0.4,1.1,0.9,1.4,4.3,2.4
		c2.1,0.6,5.2,1.7,6.7,2.4c2.8,1.3,7.6,2.5,12.5,3c2,0.2,2.8,0.1,3.6-0.4c0.9-0.7,1.3-0.5,5,1.6c2.2,1.3,4.2,2.5,4.5,2.8
		c0.7,0.6-0.5,4.1-1.5,4.6c-0.7,0.4-1,0.2-1.8-0.8c-0.8-1.1-1.4-1.4-3.9-1.6c-1.6-0.1-4-0.7-5.3-1.2c-1.3-0.5-4-1.5-6.1-2.3
		c-2.1-0.8-5.9-2-8.6-2.7c-7.2-1.8-8.9-2.5-10.6-4.1c-1-1-1.5-1.2-1.5-0.7c0,1.4,2.6,3.2,6.9,4.6c2.4,0.8,4.9,1.4,5.4,1.4
		c0.6,0,2.6,0.9,4.5,1.9c2.8,1.6,4.7,2.1,9.8,3.2l6.3,1.3l1.2,2.2c1.1,2,1.6,2.4,4,3.4c1.8,0.7,3.4,1.8,4.7,3.2
		c3.8,4.1,8.3,5,15.2,3.1c4.7-1.3,13.7-1.4,17-0.1c2.1,0.8,2.4,1.1,3.2,3.2c0.8,2.3,0.9,2.4,4.2,3.6c2.6,1,3.6,1.6,4.2,2.7
		c0.5,0.8,1.2,1.4,1.8,1.4c0.5,0,3.1,2.1,6,4.7l5,4.7h4.6c3.5,0,4.7-0.2,5.4-0.7c0.7-0.7,0.9-0.7,2,0c1,0.7,1.4,0.7,2.7,0.3
		c1.7-0.6,1.5-0.7,5.6,2.4c6.7,5.2,10.3,9.6,10.3,12.8c0,0.7-0.5,1.8-1,2.4l-1.1,1.1l1.9,1.6c1,0.9,2.4,2.1,3.1,2.5l1.3,0.9h0
		L496.7,478.2z"/>
	<path fill="#3399CC" d="M284.9,348.9c0.7,0.7,1.4,1.3,1.6,1.3c0.1,0,0-1.6-0.3-3.5h-2.6C283.7,347.5,284.1,348.2,284.9,348.9z"/>
	<path fill="#3399CC" d="M130.5,77.9c0,0,0,0.1,0.1,0.1L130.5,77.9L130.5,77.9z"/>
	<path fill="#FFFF00" d="M485.9,323.4l-2.1-3.4H233.7c0.1,0.8,0.6,1.3,1.7,2.5c1,1.1,2.1,2,2.4,2s0.4,0.4,0.3,1
		c-0.2,0.9,0.1,1.3,2.8,2.8c1.7,1,3.2,1.7,3.5,1.5c0.2-0.1,0.8-1.4,1.4-2.8l1-2.6l2.4,0.9c1.8,0.7,3.2,0.9,5.1,0.8
		c2.5-0.2,2.7-0.1,2.7,0.9c0,0.7,0.6,1.4,2,2.3c1.1,0.7,2.9,2.1,4.1,3c1.4,1.2,2.7,1.8,4.1,2c2.6,0.3,4.2,1.2,10.8,5.9
		c5.3,3.8,5.6,4.1,5.6,5.6c0,0.2,0,0.4,0.1,0.7h2.6c0-0.1,0-0.1,0-0.1c-0.8-4.9-0.1-8.2,1.9-9.5c1.2-0.7,1.7-1.7,3.1-6.1
		c1.2-3.7,1.5-5.4,1.2-6c-0.7-1.3-0.5-1.8,0.7-1.8c0.9,0,1.2,0.4,1.7,2.1c0.6,1.9,0.5,2.1-0.4,2.9c-0.6,0.5-1.3,2.3-1.9,4.7
		c-0.6,2.4-1.4,4.4-2.1,5.3c-0.7,0.8-1.3,2.3-1.5,3.6c-0.2,1.2-0.6,3-0.9,4c-0.1,0.4-0.2,0.7-0.3,1h207.1
		C491.6,335.1,489.2,328.9,485.9,323.4z"/>
	<path fill="#FFFF00" d="M507.8,385.7c-1.5-6-2-7.4-4.8-12.4H316.8c1.7,1.6,2.9,2.5,3.5,2.5c1.2,0,3.9,3.1,5,5.8
		c0.6,1.4,0.9,1.7,1.7,1.5c0.6-0.1,1.2,0.1,1.5,0.7c0.4,0.5,1.4,1.1,2.2,1.4c2.3,0.8,2.7,1.2,3,3.7c0.1,1.2,0.4,2.4,0.6,2.6
		c0.8,1.2,4,3,8.2,4.8c3.2,1.4,4.5,2,6.2,3.7h163.7C510.4,394.6,508.8,389.8,507.8,385.7z"/>
	
		<line fill="none" stroke="#99CCCC" stroke-width="0" stroke-linecap="round" stroke-linejoin="round" x1="141.7" y1="36" x2="139.7" y2="34"/>
	
		<line fill="none" stroke="#99CCCC" stroke-width="0" stroke-linecap="round" stroke-linejoin="round" x1="145.6" y1="34" x2="148.6" y2="37"/>
	<polygon fill="#99CCCC" points="142.7,28 142.6,28 145.6,31 	"/>
	
		<line fill="none" stroke="#CCCCFF" stroke-width="0" stroke-linecap="round" stroke-linejoin="round" x1="145.6" y1="36.9" x2="148.6" y2="39.9"/>
	<polygon fill="#CCCCFF" points="139.7,36.9 139.7,37 141.1,38.3 141.1,38.3 	"/>
	
		<line fill="none" stroke="#66CCCC" stroke-width="0" stroke-linecap="round" stroke-linejoin="round" x1="139.2" y1="45.3" x2="136.7" y2="42.8"/>
	<polygon fill="#CC6666" points="145.6,45.8 145.1,45.2 145.1,45.3 	"/>
	<polygon fill="#66CCCC" points="151.5,45.8 148.6,42.8 148.5,42.8 	"/>
	
		<line fill="none" stroke="#CCCCFF" stroke-width="0" stroke-linecap="round" stroke-linejoin="round" x1="138.6" y1="47.7" x2="136.7" y2="45.8"/>
	<polygon fill="#CCCCFF" points="148.6,45.8 148.5,45.8 151.5,48.8 	"/>
	
		<line fill="none" stroke="#FFCCCC" stroke-width="0" stroke-linecap="round" stroke-linejoin="round" x1="148.6" y1="51.7" x2="146.1" y2="49.2"/>
	
		<line fill="none" stroke="#66CCCC" stroke-width="0" stroke-linecap="round" stroke-linejoin="round" x1="136.8" y1="54.7" x2="133.8" y2="51.7"/>
	<polygon fill="#CC0000" points="142.1,34.2 142.1,34.3 142.2,34 	"/>
	<path fill="#CC0000" d="M123.2,162.1l1.8,1.8L123.2,162.1l1.1,4.1l0.7,0.7l-0.7-0.7l2.1,8l1.4,1.5l-1.4-1.4l2.2,8.1l2.2,2.2
		l-2.2-2.2l2.2,8.1l3,3l-3-3l3.2,12l2.8,2.8l-2.8-2.8l8.2,30.5l1.6-5.8l-1.2-1.2h0.1l1.1,1.1l1.9-7l0,0l0,0l17.5-65.5l71.9-19.3
		l-0.9-0.9l0.9,0.9l6.5-1.7l-51.4-13.7l2.8,2.8l-2.8-2.8l-8-2.1l1.9,1.9l-1.9-1.9l-8-2.1l1.2,1.2l-1.2-1.2l-4.1-1.1l2.3,2.3
		l-2.3-2.3l-6.8-1.8l-13.2-49.3l-0.4-0.8l0.4,0.8l-3.8-14.1l-1.1-4l0,0l-2.9-10.9l-0.4,1.7l-0.6,2.3l0,0l-1.8,7l-0.6,2.4l-1.8,7
		l-0.6,2.3l0.7,0.7l-0.7-0.7l-2.5,9.4l0.1,0.1l-0.1-0.1L130.6,78l0.3,0.3l-0.3-0.3l0,0.1c1.3,3,1.6,4.1,1.7,6.1l0.5,1.1l-0.5-1.1
		c0,0.3,0,0.7,0,1c0,3.1,0.1,3.5,1.1,4c1.7,0.9,3.1,6.9,3.1,13.1c0,4.3-0.1,4.9-1.2,6.3c-0.8,1.1-1.2,2.1-1.2,3.5
		c0,2.4-1.8,8.3-3.8,12.8c-1.1,2.3-2.1,3.7-3.2,4.4c-3.7,2.6-7.6,6.7-9.2,9.9c-1.3,2.6-1.8,3.2-2.7,3.2c-1.1,0-1.2,0.2-1.4,3.5
		c-0.2,1.6-0.2,4.4-0.1,6.7l7.5,2L123.2,162.1z M231.3,134.4l-3-3L231.3,134.4z M222.4,131.4l-3-3L222.4,131.4z M217.5,130.4l-2-1
		L217.5,130.4z M210.6,125.5l2.9,3l-3-3H210.6z M201.7,125.5l-3-3L201.7,125.5z M196.8,124.5l-2-1L196.8,124.5z M187.9,121.6l-2-1
		L187.9,121.6z M179.1,118.6l-2-1L179.1,118.6z M130.8,78.3L130.8,78.3l3,2.9L130.8,78.3z M139.7,214.1l-3-3L139.7,214.1z
		 M138.7,209.2l-1-2L138.7,209.2z M137.7,62.5l1,2L137.7,62.5z M139.7,220l3,3L139.7,220z M139.7,60.6l-3-3L139.7,60.6z M133.8,66.4
		l3,3L133.8,66.4z M132.8,188.5l-1-2L132.8,188.5z M129.9,179.6l-1-2L129.9,179.6z M126,168.8l0.9,2L126,168.8L126,168.8z"/>
	
		<line fill="none" stroke="#66CCCC" stroke-width="0" stroke-linecap="round" stroke-linejoin="round" x1="151.5" y1="51.7" x2="154.5" y2="54.7"/>
	
		<line fill="none" stroke="#99CCFF" stroke-width="0" stroke-linecap="round" stroke-linejoin="round" x1="154.5" y1="57.6" x2="151.5" y2="54.6"/>
	
		<line fill="none" stroke="#99CCFF" stroke-width="0" stroke-linecap="round" stroke-linejoin="round" x1="136.8" y1="57.6" x2="136.1" y2="56.9"/>
	
		<line fill="none" stroke="#99CCFF" stroke-width="0" stroke-linecap="round" stroke-linejoin="round" x1="136.1" y1="56.9" x2="133.8" y2="54.6"/>
	
		<line fill="none" stroke="#FFCCCC" stroke-width="0" stroke-linecap="round" stroke-linejoin="round" x1="136.7" y1="57.6" x2="139.7" y2="60.6"/>
	<polygon fill="#FFCCCC" points="148.6,57.6 148.5,57.6 151.5,60.6 	"/>
	
		<line fill="none" stroke="#6699CC" stroke-width="0" stroke-linecap="round" stroke-linejoin="round" x1="130.8" y1="60.5" x2="133.8" y2="63.5"/>
	
		<line fill="none" stroke="#CC3333" stroke-width="0" stroke-linecap="round" stroke-linejoin="round" x1="137.7" y1="62.5" x2="138.7" y2="64.5"/>
	
		<line fill="none" stroke="#CC3333" stroke-width="0" stroke-linecap="round" stroke-linejoin="round" x1="149.5" y1="62.5" x2="149.9" y2="63.3"/>
	
		<line fill="none" stroke="#CC3333" stroke-width="0" stroke-linecap="round" stroke-linejoin="round" x1="150.5" y1="64.5" x2="149.9" y2="63.3"/>
	
		<line fill="none" stroke="#6699CC" stroke-width="0" stroke-linecap="round" stroke-linejoin="round" x1="154.5" y1="60.5" x2="157.5" y2="63.5"/>
	
		<line fill="none" stroke="#99CCFF" stroke-width="0" stroke-linecap="round" stroke-linejoin="round" x1="154.5" y1="63.5" x2="157.5" y2="66.5"/>
	
		<line fill="none" stroke="#99CCFF" stroke-width="0" stroke-linecap="round" stroke-linejoin="round" x1="133.7" y1="66.4" x2="130.8" y2="63.5"/>
	
		<line fill="none" stroke="#99CCFF" stroke-width="0" stroke-linecap="round" stroke-linejoin="round" x1="133.7" y1="66.4" x2="133.8" y2="66.5"/>
	
		<line fill="none" stroke="#FFCCCC" stroke-width="0" stroke-linecap="round" stroke-linejoin="round" x1="133.8" y1="66.4" x2="136.8" y2="69.4"/>
	
		<line fill="none" stroke="#FFCCCC" stroke-width="0" stroke-linecap="round" stroke-linejoin="round" x1="151.5" y1="66.4" x2="154.5" y2="69.4"/>
	
		<line fill="none" stroke="#6699CC" stroke-width="0" stroke-linecap="round" stroke-linejoin="round" x1="130.9" y1="72.4" x2="127.9" y2="69.4"/>
	
		<line fill="none" stroke="#6699CC" stroke-width="0" stroke-linecap="round" stroke-linejoin="round" x1="157.4" y1="69.4" x2="160.4" y2="72.4"/>
	
		<line fill="none" stroke="#99CCCC" stroke-width="0" stroke-linecap="round" stroke-linejoin="round" x1="160.4" y1="75.3" x2="157.4" y2="72.3"/>
	
		<line fill="none" stroke="#99CCCC" stroke-width="0" stroke-linecap="round" stroke-linejoin="round" x1="128.2" y1="72.6" x2="130.9" y2="75.3"/>
	
		<line fill="none" stroke="#CCFFFF" stroke-width="0" stroke-linecap="round" stroke-linejoin="round" x1="157.4" y1="75.3" x2="160.4" y2="78.3"/>
	
		<line fill="none" stroke="#CCFFFF" stroke-width="0" stroke-linecap="round" stroke-linejoin="round" x1="130.9" y1="78.3" x2="130.6" y2="78"/>
	
		<line fill="none" stroke="#CCFFFF" stroke-width="0" stroke-linecap="round" stroke-linejoin="round" x1="130.6" y1="78" x2="130.5" y2="77.9"/>
	
		<line fill="none" stroke="#FFCCCC" stroke-width="0" stroke-linecap="round" stroke-linejoin="round" x1="157.5" y1="81.2" x2="154.5" y2="78.2"/>
	<polygon fill="#FFCCCC" points="130.8,78.3 133.8,81.2 130.8,78.2 	"/>
	<polygon fill="#6699CC" points="160.4,78.3 163.4,81.2 160.4,78.2 	"/>
	
		<line fill="none" stroke="#CC3333" stroke-width="0" stroke-linecap="round" stroke-linejoin="round" x1="132.8" y1="85.2" x2="132.3" y2="84.1"/>
	
		<line fill="none" stroke="#CC3333" stroke-width="0" stroke-linecap="round" stroke-linejoin="round" x1="156.4" y1="85.2" x2="155.4" y2="83.2"/>
	
		<line fill="none" stroke="#99CCCC" stroke-width="0" stroke-linecap="round" stroke-linejoin="round" x1="163.4" y1="84.2" x2="160.4" y2="81.2"/>
	
		<line fill="none" stroke="#CCFFFF" stroke-width="0" stroke-linecap="round" stroke-linejoin="round" x1="160.4" y1="84.2" x2="163.4" y2="87.2"/>
	
		<line fill="none" stroke="#FFCCCC" stroke-width="0" stroke-linecap="round" stroke-linejoin="round" x1="160.4" y1="90.1" x2="157.4" y2="87.1"/>
	
		<line fill="none" stroke="#CC3333" stroke-width="0" stroke-linecap="round" stroke-linejoin="round" x1="159.4" y1="94" x2="158.4" y2="92"/>
	
		<line fill="none" stroke="#99CCCC" stroke-width="0" stroke-linecap="round" stroke-linejoin="round" x1="163.3" y1="90" x2="166.3" y2="93"/>
	
		<line fill="none" stroke="#CCCCFF" stroke-width="0" stroke-linecap="round" stroke-linejoin="round" x1="163.3" y1="93" x2="166.3" y2="96"/>
	
		<line fill="none" stroke="#FFCCCC" stroke-width="0" stroke-linecap="round" stroke-linejoin="round" x1="163.4" y1="99" x2="160.4" y2="96"/>
	
		<line fill="none" stroke="#CC3333" stroke-width="0" stroke-linecap="round" stroke-linejoin="round" x1="162.3" y1="102.9" x2="161.3" y2="100.9"/>
	<polygon fill="#99CCCC" points="166.3,99 169.3,101.9 166.3,98.9 	"/>
	
		<line fill="none" stroke="#CCCCFF" stroke-width="0" stroke-linecap="round" stroke-linejoin="round" x1="166.3" y1="101.9" x2="169.3" y2="104.9"/>
	
		<line fill="none" stroke="#FFCCCC" stroke-width="0" stroke-linecap="round" stroke-linejoin="round" x1="163.3" y1="104.8" x2="166.3" y2="107.8"/>
	
		<line fill="none" stroke="#CC3333" stroke-width="0" stroke-linecap="round" stroke-linejoin="round" x1="166.3" y1="110.8" x2="163.3" y2="107.8"/>
	
		<line fill="none" stroke="#99CCCC" stroke-width="0" stroke-linecap="round" stroke-linejoin="round" x1="169.2" y1="107.8" x2="172.2" y2="110.8"/>
	<polygon fill="#CCCCFF" points="175.1,110.7 178.1,113.7 175.2,110.7 	"/>
	
		<line fill="none" stroke="#99CCCC" stroke-width="0" stroke-linecap="round" stroke-linejoin="round" x1="178" y1="110.7" x2="181" y2="113.7"/>
	
		<line fill="none" stroke="#CC3333" stroke-width="0" stroke-linecap="round" stroke-linejoin="round" x1="169.9" y1="114.4" x2="169.2" y2="113.7"/>
	
		<line fill="none" stroke="#CC3333" stroke-width="0" stroke-linecap="round" stroke-linejoin="round" x1="172.2" y1="116.7" x2="169.9" y2="114.4"/>
	
		<line fill="none" stroke="#FFCCCC" stroke-width="0" stroke-linecap="round" stroke-linejoin="round" x1="175.2" y1="116.7" x2="174" y2="115.5"/>
	
		<line fill="none" stroke="#FFCCCC" stroke-width="0" stroke-linecap="round" stroke-linejoin="round" x1="174" y1="115.5" x2="172.2" y2="113.7"/>
	
		<line fill="none" stroke="#CCCCFF" stroke-width="0" stroke-linecap="round" stroke-linejoin="round" x1="187" y1="116.7" x2="184" y2="113.7"/>
	<polygon fill="#99CCCC" points="186.9,113.7 189.9,116.7 187,113.7 	"/>
	
		<line fill="none" stroke="#CC3333" stroke-width="0" stroke-linecap="round" stroke-linejoin="round" x1="179.1" y1="118.6" x2="177.1" y2="117.6"/>
	
		<line fill="none" stroke="#FFCCCC" stroke-width="0" stroke-linecap="round" stroke-linejoin="round" x1="184" y1="119.6" x2="182.1" y2="117.7"/>
	
		<line fill="none" stroke="#FFCCCC" stroke-width="0" stroke-linecap="round" stroke-linejoin="round" x1="182.1" y1="117.7" x2="181" y2="116.6"/>
	
		<line fill="none" stroke="#CCFFFF" stroke-width="0" stroke-linecap="round" stroke-linejoin="round" x1="192.8" y1="116.6" x2="195.8" y2="119.6"/>
	
		<line fill="none" stroke="#99CCCC" stroke-width="0" stroke-linecap="round" stroke-linejoin="round" x1="198.8" y1="119.6" x2="195.8" y2="116.6"/>
	
		<line fill="none" stroke="#6699CC" stroke-width="0" stroke-linecap="round" stroke-linejoin="round" x1="198.7" y1="116.6" x2="201.7" y2="119.6"/>
	
		<line fill="none" stroke="#CC3333" stroke-width="0" stroke-linecap="round" stroke-linejoin="round" x1="187.9" y1="121.6" x2="185.9" y2="120.6"/>
	
		<line fill="none" stroke="#FFCCCC" stroke-width="0" stroke-linecap="round" stroke-linejoin="round" x1="190.1" y1="119.8" x2="189.9" y2="119.6"/>
	
		<line fill="none" stroke="#FFCCCC" stroke-width="0" stroke-linecap="round" stroke-linejoin="round" x1="192.9" y1="122.6" x2="190.1" y2="119.8"/>
	
		<line fill="none" stroke="#CCFFFF" stroke-width="0" stroke-linecap="round" stroke-linejoin="round" x1="204.7" y1="122.6" x2="201.7" y2="119.6"/>
	
		<line fill="none" stroke="#99CCCC" stroke-width="0" stroke-linecap="round" stroke-linejoin="round" x1="204.6" y1="119.6" x2="207.6" y2="122.6"/>
	
		<line fill="none" stroke="#6699CC" stroke-width="0" stroke-linecap="round" stroke-linejoin="round" x1="207.6" y1="119.6" x2="210.6" y2="122.6"/>
	
		<line fill="none" stroke="#CC3333" stroke-width="0" stroke-linecap="round" stroke-linejoin="round" x1="196.8" y1="124.5" x2="194.8" y2="123.5"/>
	
		<line fill="none" stroke="#FFCCCC" stroke-width="0" stroke-linecap="round" stroke-linejoin="round" x1="201.7" y1="125.5" x2="198.7" y2="122.5"/>
	
		<line fill="none" stroke="#99CCFF" stroke-width="0" stroke-linecap="round" stroke-linejoin="round" x1="216.5" y1="125.5" x2="213.5" y2="122.5"/>
	
		<line fill="none" stroke="#6699CC" stroke-width="0" stroke-linecap="round" stroke-linejoin="round" x1="216.4" y1="122.5" x2="219.4" y2="125.5"/>
	<polygon fill="#FFCCCC" points="210.6,125.5 210.5,125.5 213.5,128.5 	"/>
	
		<line fill="none" stroke="#99CCFF" stroke-width="0" stroke-linecap="round" stroke-linejoin="round" x1="222.3" y1="125.5" x2="225.3" y2="128.5"/>
	
		<line fill="none" stroke="#66CCCC" stroke-width="0" stroke-linecap="round" stroke-linejoin="round" x1="225.3" y1="125.5" x2="228.3" y2="128.5"/>
	
		<line fill="none" stroke="#CC3333" stroke-width="0" stroke-linecap="round" stroke-linejoin="round" x1="217.5" y1="130.4" x2="215.5" y2="129.4"/>
	
		<line fill="none" stroke="#FFCCCC" stroke-width="0" stroke-linecap="round" stroke-linejoin="round" x1="222.4" y1="131.4" x2="219.4" y2="128.4"/>
	
		<line fill="none" stroke="#CCCCFF" stroke-width="0" stroke-linecap="round" stroke-linejoin="round" x1="231.2" y1="128.4" x2="234.2" y2="131.4"/>
	
		<line fill="none" stroke="#66CCCC" stroke-width="0" stroke-linecap="round" stroke-linejoin="round" x1="234.2" y1="128.4" x2="237.2" y2="131.4"/>
	
		<line fill="none" stroke="#FFCCCC" stroke-width="0" stroke-linecap="round" stroke-linejoin="round" x1="231.3" y1="134.4" x2="228.3" y2="131.4"/>
	
		<line fill="none" stroke="#CCCCFF" stroke-width="0" stroke-linecap="round" stroke-linejoin="round" x1="240" y1="131.4" x2="243" y2="134.4"/>
	
		<line fill="none" stroke="#99CCCC" stroke-width="0" stroke-linecap="round" stroke-linejoin="round" x1="243" y1="131.4" x2="246" y2="134.4"/>
	
		<line fill="none" stroke="#CC6666" stroke-width="0" stroke-linecap="round" stroke-linejoin="round" x1="235" y1="135.2" x2="234.1" y2="134.3"/>
	
		<line fill="none" stroke="#CC6666" stroke-width="0" stroke-linecap="round" stroke-linejoin="round" x1="235" y1="135.2" x2="237.1" y2="137.3"/>
	<polygon fill="#99CCCC" points="248.9,134.3 251.9,137.3 249,134.3 	"/>
	
		<line fill="none" stroke="#FFCCCC" stroke-width="0" stroke-linecap="round" stroke-linejoin="round" x1="231.2" y1="140.2" x2="228.3" y2="137.3"/>
	
		<line fill="none" stroke="#CCCCFF" stroke-width="0" stroke-linecap="round" stroke-linejoin="round" x1="243" y1="140.3" x2="240" y2="137.3"/>
	
		<line fill="none" stroke="#99CCCC" stroke-width="0" stroke-linecap="round" stroke-linejoin="round" x1="246" y1="140.3" x2="243" y2="137.3"/>
	
		<line fill="none" stroke="#CC3333" stroke-width="0" stroke-linecap="round" stroke-linejoin="round" x1="215.5" y1="141.2" x2="217.5" y2="142.2"/>
	<polygon fill="#FFCCCC" points="219.4,140.2 219.4,140.3 222.4,143.2 	"/>
	<polygon fill="#CCCCFF" points="231.2,140.2 231.2,140.3 234.2,143.2 231.3,140.3 	"/>
	<polygon fill="#66CCCC" points="234.2,140.3 237.2,143.2 234.2,140.2 	"/>
	<polygon fill="#FFCCCC" points="210.5,143.2 213.5,146.2 210.6,143.2 	"/>
	
		<line fill="none" stroke="#99CCFF" stroke-width="0" stroke-linecap="round" stroke-linejoin="round" x1="225.3" y1="146.2" x2="222.3" y2="143.2"/>
	
		<line fill="none" stroke="#66CCCC" stroke-width="0" stroke-linecap="round" stroke-linejoin="round" x1="228.3" y1="146.2" x2="225.3" y2="143.2"/>
	
		<line fill="none" stroke="#CC3333" stroke-width="0" stroke-linecap="round" stroke-linejoin="round" x1="194.8" y1="147.1" x2="196.8" y2="148.1"/>
	<polygon fill="#FFCCCC" points="198.7,146.2 201.7,149.1 198.7,146.1 	"/>
	<polygon fill="#99CCFF" points="213.5,146.2 216.5,149.1 213.5,146.1 	"/>
	<polygon fill="#6699CC" points="216.4,146.2 219.4,149.1 216.4,146.1 	"/>
	
		<line fill="none" stroke="#CC3333" stroke-width="0" stroke-linecap="round" stroke-linejoin="round" x1="185.9" y1="150" x2="187.9" y2="151"/>
	
		<line fill="none" stroke="#FFCCCC" stroke-width="0" stroke-linecap="round" stroke-linejoin="round" x1="192.9" y1="152.1" x2="189.9" y2="149.1"/>
	
		<line fill="none" stroke="#CCFFFF" stroke-width="0" stroke-linecap="round" stroke-linejoin="round" x1="204.7" y1="152.1" x2="201.7" y2="149.1"/>
	
		<line fill="none" stroke="#99CCCC" stroke-width="0" stroke-linecap="round" stroke-linejoin="round" x1="204.6" y1="149.1" x2="207.6" y2="152.1"/>
	
		<line fill="none" stroke="#6699CC" stroke-width="0" stroke-linecap="round" stroke-linejoin="round" x1="210.6" y1="152.1" x2="207.6" y2="149.1"/>
	
		<line fill="none" stroke="#CC3333" stroke-width="0" stroke-linecap="round" stroke-linejoin="round" x1="177.1" y1="153" x2="179.1" y2="154"/>
	
		<line fill="none" stroke="#FFCCCC" stroke-width="0" stroke-linecap="round" stroke-linejoin="round" x1="184" y1="155" x2="181" y2="152"/>
	
		<line fill="none" stroke="#CCFFFF" stroke-width="0" stroke-linecap="round" stroke-linejoin="round" x1="195.8" y1="155" x2="192.8" y2="152"/>
	
		<line fill="none" stroke="#99CCCC" stroke-width="0" stroke-linecap="round" stroke-linejoin="round" x1="198.8" y1="155" x2="195.8" y2="152"/>
	
		<line fill="none" stroke="#6699CC" stroke-width="0" stroke-linecap="round" stroke-linejoin="round" x1="198.7" y1="152" x2="201.7" y2="155"/>
	
		<line fill="none" stroke="#FFCCCC" stroke-width="0" stroke-linecap="round" stroke-linejoin="round" x1="116.1" y1="158" x2="113.9" y2="155.8"/>
	
		<line fill="none" stroke="#CC3333" stroke-width="0" stroke-linecap="round" stroke-linejoin="round" x1="116" y1="155" x2="119" y2="158"/>
	
		<line fill="none" stroke="#CC3333" stroke-width="0" stroke-linecap="round" stroke-linejoin="round" x1="169.2" y1="155" x2="172.2" y2="158"/>
	
		<line fill="none" stroke="#FFCCCC" stroke-width="0" stroke-linecap="round" stroke-linejoin="round" x1="175.2" y1="158" x2="172.2" y2="155"/>
	
		<line fill="none" stroke="#CCCCFF" stroke-width="0" stroke-linecap="round" stroke-linejoin="round" x1="187" y1="158" x2="184" y2="155"/>
	<polygon fill="#99CCCC" points="186.9,155 189.9,158 187,155 	"/>
	
		<line fill="none" stroke="#CCCCFF" stroke-width="0" stroke-linecap="round" stroke-linejoin="round" x1="112.9" y1="160.7" x2="113.2" y2="161"/>
	<polygon fill="#CCCCFF" points="175.1,158 178.1,161 175.2,158 	"/>
	
		<line fill="none" stroke="#99CCCC" stroke-width="0" stroke-linecap="round" stroke-linejoin="round" x1="181" y1="161" x2="178" y2="158"/>
	<polygon fill="#99CCCC" points="116,160.9 116,161 119,163.9 	"/>
	
		<line fill="none" stroke="#CC3333" stroke-width="0" stroke-linecap="round" stroke-linejoin="round" x1="163.3" y1="160.9" x2="166.3" y2="163.9"/>
	<polygon fill="#CC3333" points="123.2,162.1 122,160.9 122,161 123.3,162.2 125,163.9 	"/>
	<polygon fill="#99CCCC" points="169.2,161 172.2,163.9 169.2,160.9 	"/>
	
		<line fill="none" stroke="#FFCCCC" stroke-width="0" stroke-linecap="round" stroke-linejoin="round" x1="163.3" y1="163.9" x2="166.3" y2="166.9"/>
	
		<line fill="none" stroke="#FFCCCC" stroke-width="0" stroke-linecap="round" stroke-linejoin="round" x1="124.3" y1="166.2" x2="122" y2="163.9"/>
	
		<line fill="none" stroke="#FFCCCC" stroke-width="0" stroke-linecap="round" stroke-linejoin="round" x1="124.3" y1="166.2" x2="125" y2="166.9"/>
	
		<line fill="none" stroke="#CCCCFF" stroke-width="0" stroke-linecap="round" stroke-linejoin="round" x1="119" y1="166.8" x2="122" y2="169.8"/>
	
		<line fill="none" stroke="#CC3333" stroke-width="0" stroke-linecap="round" stroke-linejoin="round" x1="161.3" y1="168.8" x2="162.3" y2="170.8"/>
	<polygon fill="#CC3333" points="126,168.8 125.9,168.8 126.9,170.8 	"/>
	
		<line fill="none" stroke="#CCCCFF" stroke-width="0" stroke-linecap="round" stroke-linejoin="round" x1="166.3" y1="166.8" x2="169.3" y2="169.8"/>
	
		<line fill="none" stroke="#99CCCC" stroke-width="0" stroke-linecap="round" stroke-linejoin="round" x1="169.3" y1="172.8" x2="166.3" y2="169.8"/>
	
		<line fill="none" stroke="#99CCCC" stroke-width="0" stroke-linecap="round" stroke-linejoin="round" x1="122" y1="172.8" x2="119" y2="169.8"/>
	
		<line fill="none" stroke="#FFCCCC" stroke-width="0" stroke-linecap="round" stroke-linejoin="round" x1="163.4" y1="175.7" x2="160.4" y2="172.7"/>
	<polygon fill="#FFCCCC" points="126.5,174.2 125,172.7 124.9,172.7 126.5,174.3 127.9,175.7 	"/>
	
		<line fill="none" stroke="#CCCCFF" stroke-width="0" stroke-linecap="round" stroke-linejoin="round" x1="125" y1="178.7" x2="122" y2="175.7"/>
	
		<line fill="none" stroke="#CC3333" stroke-width="0" stroke-linecap="round" stroke-linejoin="round" x1="158.4" y1="177.6" x2="159.4" y2="179.6"/>
	
		<line fill="none" stroke="#CC3333" stroke-width="0" stroke-linecap="round" stroke-linejoin="round" x1="128.9" y1="177.6" x2="129.9" y2="179.6"/>
	
		<line fill="none" stroke="#CCCCFF" stroke-width="0" stroke-linecap="round" stroke-linejoin="round" x1="163.3" y1="175.7" x2="166.3" y2="178.7"/>
	
		<line fill="none" stroke="#99CCCC" stroke-width="0" stroke-linecap="round" stroke-linejoin="round" x1="163.3" y1="178.6" x2="166.3" y2="181.6"/>
	
		<line fill="none" stroke="#99CCCC" stroke-width="0" stroke-linecap="round" stroke-linejoin="round" x1="125" y1="181.6" x2="122" y2="178.6"/>
	
		<line fill="none" stroke="#FFCCCC" stroke-width="0" stroke-linecap="round" stroke-linejoin="round" x1="157.4" y1="181.6" x2="160.4" y2="184.6"/>
	
		<line fill="none" stroke="#FFCCCC" stroke-width="0" stroke-linecap="round" stroke-linejoin="round" x1="127.9" y1="181.6" x2="128.7" y2="182.4"/>
	
		<line fill="none" stroke="#FFCCCC" stroke-width="0" stroke-linecap="round" stroke-linejoin="round" x1="128.7" y1="182.4" x2="130.9" y2="184.6"/>
	<polygon fill="#CCFFFF" points="125,184.5 124.9,184.5 127.9,187.5 	"/>
	
		<line fill="none" stroke="#CC3333" stroke-width="0" stroke-linecap="round" stroke-linejoin="round" x1="155.4" y1="186.5" x2="156.4" y2="188.5"/>
	
		<line fill="none" stroke="#CC3333" stroke-width="0" stroke-linecap="round" stroke-linejoin="round" x1="131.8" y1="186.5" x2="132.8" y2="188.5"/>
	
		<line fill="none" stroke="#CCFFFF" stroke-width="0" stroke-linecap="round" stroke-linejoin="round" x1="160.4" y1="184.5" x2="163.4" y2="187.5"/>
	
		<line fill="none" stroke="#99CCCC" stroke-width="0" stroke-linecap="round" stroke-linejoin="round" x1="160.4" y1="187.5" x2="163.4" y2="190.5"/>
	<polygon fill="#99CCCC" points="127.9,190.5 125,187.5 124.9,187.5 	"/>
	<polygon fill="#6699CC" points="125,190.4 124.9,190.4 127.9,193.4 	"/>
	
		<line fill="none" stroke="#FFCCCC" stroke-width="0" stroke-linecap="round" stroke-linejoin="round" x1="133.8" y1="193.4" x2="130.8" y2="190.4"/>
	
		<line fill="none" stroke="#FFCCCC" stroke-width="0" stroke-linecap="round" stroke-linejoin="round" x1="157.5" y1="193.4" x2="154.5" y2="190.4"/>
	
		<line fill="none" stroke="#FFCCCC" stroke-width="0" stroke-linecap="round" stroke-linejoin="round" x1="130.8" y1="190.4" x2="130.8" y2="190.4"/>
	
		<line fill="none" stroke="#6699CC" stroke-width="0" stroke-linecap="round" stroke-linejoin="round" x1="163.4" y1="193.4" x2="160.4" y2="190.4"/>
	
		<line fill="none" stroke="#CCFFFF" stroke-width="0" stroke-linecap="round" stroke-linejoin="round" x1="157.4" y1="193.4" x2="160.4" y2="196.4"/>
	
		<line fill="none" stroke="#CCFFFF" stroke-width="0" stroke-linecap="round" stroke-linejoin="round" x1="127.9" y1="193.4" x2="130.9" y2="196.4"/>
	
		<line fill="none" stroke="#99CCCC" stroke-width="0" stroke-linecap="round" stroke-linejoin="round" x1="157.4" y1="196.3" x2="160.4" y2="199.3"/>
	
		<line fill="none" stroke="#99CCCC" stroke-width="0" stroke-linecap="round" stroke-linejoin="round" x1="127.9" y1="196.3" x2="130.9" y2="199.3"/>
	
		<line fill="none" stroke="#6699CC" stroke-width="0" stroke-linecap="round" stroke-linejoin="round" x1="130.9" y1="202.3" x2="127.9" y2="199.3"/>
	
		<line fill="none" stroke="#6699CC" stroke-width="0" stroke-linecap="round" stroke-linejoin="round" x1="157.4" y1="199.3" x2="160.4" y2="202.3"/>
	
		<line fill="none" stroke="#FFCCCC" stroke-width="0" stroke-linecap="round" stroke-linejoin="round" x1="136.8" y1="205.2" x2="134" y2="202.4"/>
	
		<line fill="none" stroke="#FFCCCC" stroke-width="0" stroke-linecap="round" stroke-linejoin="round" x1="133.8" y1="202.2" x2="134" y2="202.4"/>
	
		<line fill="none" stroke="#FFCCCC" stroke-width="0" stroke-linecap="round" stroke-linejoin="round" x1="151.5" y1="202.2" x2="154.5" y2="205.2"/>
	
		<line fill="none" stroke="#99CCFF" stroke-width="0" stroke-linecap="round" stroke-linejoin="round" x1="130.8" y1="205.2" x2="133.8" y2="208.2"/>
	
		<line fill="none" stroke="#CC3333" stroke-width="0" stroke-linecap="round" stroke-linejoin="round" x1="149.5" y1="207.2" x2="150.5" y2="209.2"/>
	
		<line fill="none" stroke="#CC3333" stroke-width="0" stroke-linecap="round" stroke-linejoin="round" x1="138.7" y1="209.2" x2="137.7" y2="207.2"/>
	
		<line fill="none" stroke="#99CCFF" stroke-width="0" stroke-linecap="round" stroke-linejoin="round" x1="154.5" y1="205.2" x2="157.5" y2="208.2"/>
	
		<line fill="none" stroke="#6699CC" stroke-width="0" stroke-linecap="round" stroke-linejoin="round" x1="157.5" y1="211.1" x2="154.5" y2="208.1"/>
	<polygon fill="#6699CC" points="130.8,208.1 130.8,208.2 133.8,211.1 	"/>
	
		<line fill="none" stroke="#FFCCCC" stroke-width="0" stroke-linecap="round" stroke-linejoin="round" x1="136.7" y1="211.1" x2="139.7" y2="214.1"/>
	<polygon fill="#FFCCCC" points="148.6,211.1 148.5,211.1 151.5,214.1 	"/>
	
		<line fill="none" stroke="#99CCFF" stroke-width="0" stroke-linecap="round" stroke-linejoin="round" x1="136.8" y1="217" x2="133.8" y2="214"/>
	
		<line fill="none" stroke="#99CCFF" stroke-width="0" stroke-linecap="round" stroke-linejoin="round" x1="151.5" y1="214" x2="154.5" y2="217"/>
	
		<line fill="none" stroke="#66CCCC" stroke-width="0" stroke-linecap="round" stroke-linejoin="round" x1="154.5" y1="220" x2="151.5" y2="217"/>
	
		<line fill="none" stroke="#66CCCC" stroke-width="0" stroke-linecap="round" stroke-linejoin="round" x1="136.8" y1="220" x2="133.8" y2="217"/>
	
		<line fill="none" stroke="#FFCCCC" stroke-width="0" stroke-linecap="round" stroke-linejoin="round" x1="142.7" y1="223" x2="139.7" y2="220"/>
	
		<line fill="none" stroke="#FFCCCC" stroke-width="0" stroke-linecap="round" stroke-linejoin="round" x1="145.6" y1="220" x2="145.6" y2="220"/>
	
		<line fill="none" stroke="#FFCCCC" stroke-width="0" stroke-linecap="round" stroke-linejoin="round" x1="148.6" y1="223" x2="145.6" y2="220"/>
	
		<line fill="none" stroke="#CCCCFF" stroke-width="0" stroke-linecap="round" stroke-linejoin="round" x1="139.7" y1="225.9" x2="136.7" y2="222.9"/>
	<polygon fill="#CCCCFF" points="148.5,222.9 151.5,225.9 148.6,222.9 	"/>
	
		<line fill="none" stroke="#66CCCC" stroke-width="0" stroke-linecap="round" stroke-linejoin="round" x1="139.7" y1="228.9" x2="136.7" y2="225.9"/>
	<polygon fill="#CC6666" points="142.6,225.9 143.8,227.1 145.6,228.9 143.8,227 142.7,225.9 	"/>
	<polygon fill="#66CCCC" points="148.5,225.9 151.5,228.9 148.6,225.9 	"/>
	
		<line fill="none" stroke="#CCCCFF" stroke-width="0" stroke-linecap="round" stroke-linejoin="round" x1="142.7" y1="234.8" x2="139.7" y2="231.8"/>
	
		<line fill="none" stroke="#CCCCFF" stroke-width="0" stroke-linecap="round" stroke-linejoin="round" x1="148.6" y1="234.8" x2="145.6" y2="231.8"/>
	
		<line fill="none" stroke="#99CCCC" stroke-width="0" stroke-linecap="round" stroke-linejoin="round" x1="148.6" y1="237.7" x2="145.6" y2="234.7"/>
	
		<line fill="none" stroke="#99CCCC" stroke-width="0" stroke-linecap="round" stroke-linejoin="round" x1="140.3" y1="235.3" x2="142.7" y2="237.7"/>
</g>
</svg>
