<?xml version="1.0" encoding="utf-8"?>
<!-- Generator: Adobe Illustrator 17.1.0, SVG Export Plug-In . SVG Version: 6.00 Build 0)  -->
<!DOCTYPE svg PUBLIC "-//W3C//DTD SVG 1.1//EN" "http://www.w3.org/Graphics/SVG/1.1/DTD/svg11.dtd">
<svg version="1.1" id="flag-icon-css-ax" xmlns="http://www.w3.org/2000/svg" xmlns:xlink="http://www.w3.org/1999/xlink" x="0px"
	 y="0px" viewBox="0 0 640 480" enable-background="new 0 0 640 480" xml:space="preserve">
<g>
	<path fill="none" d="M0,46.9c-0.1,0.1-0.2,0.3-0.3,0.4l-1.9,1.9L0,52.5V46.9z"/>
	<path fill="#0053A5" d="M0.4,53C2.7,56.4,3,57.2,3,60.5v3.7l6.8,3.1l6.8,3.2l1.8,6c1,3.3,1.9,6,1.9,6c0.6,0,15.1-5.8,15.5-6.3
		c0.3-0.3,0.3-2.3-0.1-4.4c-0.6-3.9-0.6-4.1,1-5.8c1.4-1.4,2.1-1.7,4.9-1.7h3.3l2.4-6.1c1.3-3.3,2.8-6.3,3.3-6.5
		c0.5-0.3,3.1-1,5.7-1.5l4.8-1l3.7-4.8c4.9-6.4,4.8-6.1,4.3-10.2l-0.4-3.7l-3.9-1.3c-3.3-1.1-4.6-2-9.4-6.9
		c-3.1-3.1-5.8-5.6-5.9-5.6c-0.2,0.1-4.5,0.6-9.7,1.3c-5.1,0.6-9.9,1.1-10.6,1.1c-1.6,0.1-15.7,11.8-18.1,15
		c-1.3,1.8-2.7,2.8-4.9,3.6C2.9,39,2.8,39.2,2,43.1c-0.2,1.1-1.1,2.7-2,3.8v5.5L0.4,53z"/>
	<path fill="#0053A5" d="M125.3,310.6l-1.9,0.9l-5.5,10.5l-5.4,10.5l3,7.3c2.7,6.5,3.8,8.1,9.2,14.8c3.4,4.1,6.4,7.4,6.6,7.4
		c0.2,0,3.2-0.8,6.8-1.8l6.4-1.8v3.6v3.6l-3.4,1.1c-1.9,0.6-3.4,1.3-3.4,1.4s2.4,3.1,5.3,6.3s8.3,10.3,11.9,15.6
		c3.7,5.3,6.8,9.8,6.9,9.9c0,0.1,1.7-0.2,4.3-0.7v-88.9H125.3z"/>
	<path fill="#0053A5" d="M372.4,169.3c-6.7-4.5-13.8-8.2-19.3-10c-4.4-1.4-8.1-2-14.9-2.5l-9.1-0.7l-3.8-3.6l-3.8-3.7l-9,1.9
		c-2.3,0.5-4.1,0.8-5.5,1v17.6H372.4z"/>
	<path fill="#0053A5" d="M550.8,315.5v-3.2v-1.7H307.1v16.6l1.3,0.4l3.6,1.3l1.9-3.1l1.9-3l5.4-0.4c3-0.2,6.5-0.5,7.8-0.7l2.3-0.4
		v3.8v3.8l-5.9,1.1c-3.3,0.6-5.9,1.3-5.9,1.4s1.4,5,3.1,10.7l3,10.3l1.7-2.6c0.9-1.4,1.8-2.6,1.9-2.6s0.7,6.1,1.3,13.6l1.1,13.6
		l2.8,5.3c1.6,2.9,3.7,6.1,4.7,7.2c1,1,2.3,2.9,2.8,4.1c0.6,1.2,2.4,3.9,4.3,6c2.7,3.1,5.9,5.4,16.4,11.9
		c17.3,10.9,21.4,13.3,22.1,13.3c0.3,0,1.6-1.6,2.9-3.5c1.8-2.8,2.6-3.4,3.6-3.1c2.3,0.5,13.7,2.8,16,3.1c1.9,0.3,2.7-0.1,5.9-2.7
		c4.3-3.6,2.8-3.9,13.6,3.1c5.7,3.7,7.4,5.1,7.9,6.6c0.4,1,1.8,5.5,3.2,10l2.6,8.1l3.7,3l3.7,3l3.8-2.6l3.8-2.6l-2.5-4.9l-2.5-5
		l5.3-3.4c2.9-1.9,5.8-3.4,6.4-3.4c0.7,0,2.8,1.1,4.6,2.4c2.6,1.9,5.5,5.4,12.9,15.6c5.3,7.3,9.8,13.2,9.9,13.2
		c0.6,0,9.5-19.3,10.8-23.3c0.8-2.3,1.8-4.2,2.1-4.2c0.4,0,4.3,1.3,8.6,2.9c7.3,2.6,8.1,3.1,11.6,6.6l3.8,3.8l3.7-1.9l3.7-1.9
		l0.8-6.1c0.7-5.9,0.8-6.2,3.1-8.2c1.3-1.1,2.6-2,2.9-2.1c0.3,0,0.4,3.4,0.4,7.5v7.5h9.9h9.9l3.3-2.6c6-4.9,5.2-4.8,9.1-1.4
		c6.6,5.8,5.9,5.5,10.7,4.1c2.3-0.6,6.6-1.5,9.6-1.9c6.5-0.9,9.1-1.5,8.9-2.3c-0.1-0.3-2-2.9-4.2-5.7c-3.3-4.1-4.1-5.6-4.1-7.4v-2.2
		h4.1c2.5,0,7-0.8,11.6-1.9c4.1-1.1,7.6-1.9,7.7-1.8c0.1,0.1,0.9,1.4,1.8,2.8c0.9,1.5,2,2.7,2.4,2.7c2.3-0.1,6.2-2.8,9.4-6.5
		l3.6-4.1l1.9-13.9l1.9-13.9l-1.1-6.1c-0.6-3.3-1.3-6.3-1.4-6.6c-0.2-0.3-2.5-1.1-5.1-1.8l-4.6-1.2l-2.5-5.4l-2.4-5.4l3-7.9
		c2.9-7.8,3-7.9,2.4-12.3l-0.6-4.5l-5.7-1.3c-3.1-0.8-9.3-2.7-13.6-4.4c-5.1-1.9-8.1-2.8-8.4-2.4c-0.3,0.4-2.5,3.8-5,7.6l-4.6,6.9
		l2.2,4.4c1.3,2.4,2.3,4.5,2.3,4.7c0,0.3-2.7,0.7-8.2,1.3l-3.5,0.4l-3,6.6c-1.6,3.6-3.3,6.5-3.6,6.5c-0.3,0-3-1.3-6-2.8
		c-5.4-2.7-10.1-6.8-10.1-8.8c0-0.5-0.2-1.3-0.4-1.8c-0.3-0.8,0.5-1,3.6-1.4l3.8-0.4l-5.8-5.9l-5.9-5.9h-4.8h-4.8l-3,3.8l-3,3.8
		l-1.6-1.4c-1.9-1.9-2.4-2.8-2.9-5.8l-0.4-2.5l8.4-9.1L550.8,315.5z"/>
	<path fill="#0053A5" d="M76.8,167.3c-4.6-2-8.5-3.6-8.5-3.7c-0.1,0-0.3-3.1-0.6-6.8l-0.4-6.6l2.9-0.4c2.9-0.4,3-0.6,3.8-4.6
		c0.4-1.9,0.1-2.4-3.9-6.6l-4.3-4.5l-1.1-7.8c-1.4-9.9-3.6-15.3-8-19.8l-3.1-3.3l1.3-5.4c1.4-6,1.4-6-3-4.4
		c-1.4,0.5-2.9,0.9-3.1,0.9c-0.2,0-1.1-1.4-1.9-3.2s-1.7-3.3-2-3.4c-0.3-0.2-6.2,2.4-13.2,5.8l-12.8,6l-1.1,4.8
		c-0.9,4.1-2.1,6.4-8.6,16.6l-7.5,11.8l0.5,3.2c0.6,2.9,0.7,3.1,2.6,3.3c1.5,0.1,2.6,0.8,3.8,2.4l1.7,2.2L9,154.1
		C8.3,159.8,8,164.6,8.2,165c0.3,0.3,2.7,1.8,5.4,3.3c0.7,0.4,1.3,0.7,1.8,1h66.3C80.5,168.8,78.9,168.2,76.8,167.3z"/>
	<path fill="#0053A5" d="M165.9,73.7c-5.9-1.4-13.7-2.4-17.2-2.3c-0.9,0-4.6,0.9-8.4,1.8l-6.8,1.8l-5.1,5l-5.1,5.1l3.1,3.1l3,3
		l-4.2,1.1c-3.3,0.9-5.9,2.4-12.4,6.9c-4.6,3.1-9.5,6.4-11.1,7.4l-2.9,1.6l-5.6-3.7l-5.6-3.7l-2.1,1.2c-1.1,0.7-3.1,1.8-4.2,2.5
		l-2.2,1.3l-2.5-1.3l-2.6-1.3l-3.8,1.9l-3.7,1.9l1.1,2.6c0.6,1.5,2.1,4.6,3.1,7l1.9,4.3l2.8-2.3c1.6-1.3,3.1-2.3,3.4-2.3
		c0.4,0,2.8,1.6,5.4,3.5c4,3,4.6,3.8,5,5.9c0.4,2.3,0.6,2.4,3,2.8c4.9,0.8,4.9,0.8,4.5,3.6c-0.3,1.4-0.8,2.8-1.1,3
		c-0.4,0.3-3.4,0.6-6.8,0.9c-3.4,0.2-6.2,0.6-6.2,0.7c0,0.6,7.1,10.9,7.5,10.9c0.2,0,2.9-0.8,5.9-1.9c4.9-1.6,6.4-2.6,16.3-10.3
		l10.8-8.4l14.9-0.7c18-0.8,17.1-0.8,17.1-0.1c0,0.3-1.6,2.7-3.6,5.3l-3.5,4.8h-5.6h-5.5l-19.9,9.9l-19.9,9.9l-2.4,6.6
		c-1,3-2.1,5.5-2.6,6.5h73.2V73.7z"/>
	<path fill="#FFCE00" d="M165.9,310.6v88.9c2.2-0.4,5-0.9,8-1.6c6.8-1.4,12.4-2.3,12.5-2.1c0.1,0.2,1.5,4.4,3.1,9.3l2.9,8.8l2.3,0.6
		c1.8,0.4,2.8,1.3,4.7,3.9c1.3,1.9,2.7,3.4,3,3.4s2.4-1.5,4.6-3.4l1.1-0.9V310.6H165.9z"/>
	<path fill="#FFCE00" d="M264.7,310.6v22.7c2.8,1,11.8,7,15.1,10.2l3.8,3.8l3.2-1.1l3.1-1.2l3-7.3l3-7.4l4.4-1.9l4.4-1.9l2.4,0.8
		v-16.6H264.7z"/>
	<path fill="#FFCE00" d="M208.2,169.3V98.8l-4.7-4.2l-9.2,2.6c-5,1.4-10.4,2.8-12.1,3.1l-3,0.4v-3.4v-3.5h6.6h6.6l1.9-4.2
		c1.6-3.5,1.8-4.8,1.7-8.3l-0.2-4l-6.5-1.8l-6.5-1.8l-3.8,1.3l-3.7,1.3l-6.7-1.8c-0.9-0.2-1.8-0.5-2.9-0.7v95.7H208.2z"/>
	<path fill="#FFCE00" d="M307.1,169.3v-17.6c-3.7,0.6-5.3,0.6-8.6,0.2c-2.8-0.3-5.3-0.6-5.7-0.6c-0.4,0-1.8,1.8-3,4.1
		c-1.3,2.3-2.5,4.1-2.7,4.1c-0.1,0-2.4-1.6-4.9-3.4l-4.6-3.5l1.8-6.1l1.9-6.1l-3.6-7.8c-3.7-8.1-6.2-11.6-13-18.4v55.2H307.1z"/>
	<path fill="#FFCE00" d="M264.7,169.3v42.4h185.4c-3.5-2.7-7-5.3-10-7.5l-13.4-9.8l-6.3,0.4c-3.4,0.2-7.6,0.5-9.2,0.7l-2.9,0.4
		l-2-3.3c-1.8-3-2.5-3.4-10.7-7.6c-6.8-3.4-10.3-5.6-15.4-9.9c-2.4-2-5.1-4-7.8-5.8h-65.3H264.7z"/>
	<path fill="#FFCE00" d="M208.2,310.6v-42.4H33.8c0,0.3,0,0.4,0,0.4c0.1,0.1,7,0.4,15.3,0.7l15.1,0.4l13.6,13.6L91.4,297l2.6-2.6
		c2.3-2.2,3.1-2.6,6.9-3.2l4.3-0.6l4.9-5.6l4.9-5.6h4.9h4.9l0.4,3.2c0.3,1.8,1.6,6.5,2.9,10.4c1.8,5.3,2.4,8.3,2.4,11.1v3.8
		l-3.6,1.8l-1.6,0.8h40.6H208.2z"/>
	<path fill="#FFCE00" d="M264.7,268.2v42.4h42.4h243.7V309l4.4-1.1l4.4-1.1l1.9-3.8l1.9-3.8l-2.3-3.9c-1.3-2.1-2.3-4.1-2.3-4.4
		s1.3-1.1,2.8-1.8l2.8-1.2l-10.6-9.3c-3.7-3.2-8.4-7.2-12.6-10.5H264.7z"/>
	<path fill="#FFCE00" d="M208.2,211.7v-42.4h-42.4H92.6c-0.1,0.2-0.2,0.4-0.3,0.4c-0.3,0.1-2,0.4-3.9,0.7c-2.3,0.3-3.3,0.2-6.7-1.1
		H15.5c2.8,1.6,3,2,2.7,3.2c-0.6,2.3-0.6,2.7,2.6,12.7c2.8,8.8,2.9,9.5,2.3,12.8l-0.6,3.6l8.4,8.4c0.5,0.5,1.1,1.1,1.6,1.6H208.2z"
		/>
	<path fill="#D21034" d="M208.2,211.7h56.5v-42.4v-55.2c0,0,0,0,0,0c-7.7-7.6-8.6-8.1-18.7-10.9l-9.2-2.5l-4.9,3.1l-4.9,3.1
		l-5.5-1.1c-6.4-1.2-6.4-1.3-12.9-6.9l-0.2-0.2v70.6V211.7z"/>
	<path fill="#D21034" d="M264.7,268.2h-41.9c-0.1,0.9-0.2,2.2-0.4,3.6c-0.5,4.7-0.4,5.6,2.6,18.6c1.8,8.3,3.1,15.2,3.1,17.5v3.8
		l6.6,3.4c6.6,3.4,6.6,3.4,10.9,9.5c2.4,3.3,4.3,6.3,4.3,6.5s-1.3,2.5-2.8,5c-2.6,4.1-2.8,4.9-2.8,8.3c0,2.1,0.1,3.8,0.3,3.8
		c0.1,0,1.8-0.8,3.7-1.6c2.6-1.3,3.8-2.4,5.1-4.8c1.8-2.9,8.8-8.8,10.6-8.8c0.1,0,0.4,0.1,0.7,0.2v-22.7V268.2z"/>
	<path fill="#D21034" d="M208.2,310.6v106.9l3-2.5v-9.8c0-7.9-0.3-10.6-1.3-14.1c-0.9-3.4-1.1-4.4-0.4-4.8c0.4-0.3,2.9-1.7,5.5-3.1
		c4.6-2.6,4.8-2.8,7.3-7.6c1.4-2.8,3.3-6.4,4.3-8l1.7-3l-1.1-2.5l-1.1-2.5l1.8-2.5l1.8-2.5l-1.8-12.7c-1.6-11.8-1.9-13.1-4.8-20.1
		c-1.7-4.1-4.8-10.1-6.8-13.2l-3.8-5.7l2.4-6.2l2.5-6.2l-1.9-2.4l-1.9-2.4l4.6-9.6c1.6-3.3,3-6.2,3.8-7.9h-13.7V310.6z"/>
	<path fill="#D21034" d="M541.4,268.2c-2.4-1.9-4.6-3.6-6.3-4.8c-6.9-5-9.4-6.3-15.2-8.4c-6.3-2.3-7.5-3.1-13.8-8.2
		c-3.8-3.1-9.4-8.1-12.6-11.2c-5.5-5.3-5.9-5.6-10.5-6.8c-4.8-1.2-4.8-1.2-7.2,0.1l-2.5,1.3l-9.9-8.1c-3.2-2.6-8.2-6.5-13.3-10.3
		H264.7h-56.5H32.4c3.9,4,6.8,7.3,6.8,7.6c0,0.4-1.8,4.4-4.1,8.9l-4.1,8.1l2.4,6.8L36,250l-1.3,9.2c-0.6,4.2-1,7.8-1,9h174.5H222
		c0.5-1,0.8-1.6,0.9-1.6c0.1,0.1,0,0.7,0,1.6h41.9H541.4z"/>
</g>
</svg>
