<?xml version="1.0" encoding="utf-8"?>
<!-- Generator: Adobe Illustrator 17.1.0, SVG Export Plug-In . SVG Version: 6.00 Build 0)  -->
<!DOCTYPE svg PUBLIC "-//W3C//DTD SVG 1.1//EN" "http://www.w3.org/Graphics/SVG/1.1/DTD/svg11.dtd">
<svg version="1.1" id="flag-icon-css-ba" xmlns="http://www.w3.org/2000/svg" xmlns:xlink="http://www.w3.org/1999/xlink" x="0px"
	 y="0px" viewBox="0 0 640 480" enable-background="new 0 0 640 480" xml:space="preserve">
<g>
	<polygon fill="none" points="414.1,480 414.4,480.2 415,480 	"/>
	<path fill="#000099" d="M104.9,13.6c-0.3-0.6-0.6-1.2-0.7-1.7c-0.7-2.8-1.8-5.7-2.6-6.7c-0.6-0.9-0.8-0.9-4.6-0.1
		c-2.2,0.5-5.8,0.8-8.1,0.8h-4.1l-4.1,3.4c-2.6,2.2-4,3.7-3.9,4.2c0.1,0.4,0.6,2.4,1,4.4c0.8,3.6,0.8,3.7-0.1,4.5
		c-0.9,0.8-0.9,1.2-0.6,4.9c0.2,3,0.1,4.5-0.4,5.8c-0.5,1.2-0.5,1.9-0.2,2.4c0.5,0.6,0.7,3.1,0.6,5.3h18.8L104.9,13.6z"/>
	<path fill="#000099" d="M421.3,477.2c6.7-2.9,6.8-3,6.4-4.1c-0.2-0.6-0.4-1.9-0.4-2.8c0-1.6,0-1.6,2.6-2.1c1.4-0.3,2.6-0.7,2.6-0.8
		c0-0.1-0.6-2.3-1.2-4.8c-1.2-4.7-1.2-5.3,0.7-5.4c0.8,0,0.8,0.4-1.5-8.4l-2-7.7l-4.8-5.3c-2.7-3-4.9-5.9-5-6.7
		c-0.2-1.2,0-1.5,1.8-2.9c1.1-0.8,2.1-1.6,2.3-1.9c0.1-0.2-0.2-2.1-0.9-4.4l-1.1-4l1.1-1.4c0.6-0.8,3-3.8,5.3-6.7l2.1-2.7l-6.2-4.5
		h15.7c0.4-0.1,0.7-0.2,0.9-0.2l1.8-0.5l0-7.9c0-6.7,0.1-8.3,0.8-9.7c0.7-1.4,0.7-2,0.3-3.3c-0.5-1.6-0.3-1.8,2.8-6.1l3.2-4.5l0-5.5
		l0-5.5l7.3-6.7c4-3.8,8-7.1,8.9-7.6c1.6-0.8,1.7-0.8,4.9,1.2l3.3,2l0.6,3.6l0.6,3.6l3.9,1.8c3.2,1.5,4.6,1.8,7.5,1.9
		c1.8,0.1,3,0.1,4,0.1l-330.1-331c-2,1.6-2.7,3-4.4,6.5c-1.7,3.5-2.7,6.2-2.9,7.9c-0.1,1.5-0.8,3.8-1.5,5.3l-1.1,2.6l-3.2,0.8
		c-1.8,0.4-5.1,0.9-7.6,1l-3.7,0.2l-12.5,9.3l9.7,30.9l-26.1-19.1l-26.9,19L89.8,60l-10.2-7.3c-0.3,0.8-0.5,1.7-0.8,2.6L77.4,60
		l-4.2,0.3c-4.9,0.4-4.8-0.1-1.8,6.4c1,2.2,1.9,4,1.9,4.1s-1,0.2-2.1,0.2S69,71.2,69,71.3c0,0.1,0.7,1.9,1.5,3.8c1,2.5,1.4,4,1.2,5
		c-0.2,1,0,2,0.7,3.3c0.9,1.6,0.9,2,0.3,2.9c-0.3,0.6-0.8,2.1-0.9,3.5c-0.2,2.3-0.1,2.7,2.7,7.8c2.4,4.3,3.3,5.5,4.7,6.3l1.8,1
		l2.3-1.1c2.3-1.1,2.5-1.1,8.2-0.5c8.7,0.9,7.9,0.4,10.5,5.4c3.3,6.1,7,11.4,10.3,14.2c2.7,2.3,2.8,2.6,3.8,6.6
		c1,3.8,1.2,4.2,2.9,5.3c2,1.2,2,1.4,0.6,5.3l-0.9,2.3l1.4,1.4c1.5,1.6,1.5,1.5-0.5,6.8l-0.9,2.2l3.9,3.8c2.1,2,3.9,4.1,3.9,4.5
		c0,0.4-0.5,1.7-1.2,2.8c-1.6,2.7-1.1,4.4,1.3,4.7l1.6,0.1l0.5,4.8c0.3,2.8,0.3,5.2,0.1,5.9c-0.3,0.8-0.2,3.8,0.3,8.1l0.7,6.9l8,11
		l8,11l2.9,0c1.7,0,3.2-0.3,3.8-0.7c0.5-0.3,1.2-0.6,1.6-0.5c0.4,0.1,1.5,0.3,2.5,0.4c1.8,0.2,1.8,0.3,2.3,3.5
		c0.3,1.8,1.2,4.5,2,6.1c1.6,3.1,2.2,3.5,6.3,3.5c3.8,0,5,0.5,5,1.9c0,0.7,0.8,3.5,1.8,6.2l1.8,5l2.4,0.4c2.3,0.4,2.4,0.5,2.9,2.1
		l0.4,1.8l3.8,0.6c3.5,0.5,3.9,0.7,6,2.8l2.2,2.2l0.3,6.1c0.2,3.3,0.5,7,0.6,8.3l0.3,2.2l9.6,6.7l9.6,6.7l3.3,7.2l3.3,7.2l13.4,12.3
		l13.4,12.3h2.5c1.4,0,2.7-0.2,2.9-0.4c0.1-0.2,1.2-0.8,2.3-1.2c1.8-0.7,2.5-0.7,4.7-0.3c2.3,0.5,2.8,0.8,4.6,3.1l2,2.6l-2,2.4
		c-1.9,2.3-1.9,2.4-1.2,3.6c0.6,0.9,1.2,1.2,2.4,1.2c1.4,0,1.7,0.1,1.7,1.1c0,0.6-1.1,2.4-2.4,4c-2.4,2.9-2.4,3-1.7,4.1
		c0.6,0.9,1.2,1.2,2.4,1.2h1.6l1.7,9.1c1,5,1.9,9.7,2,10.4c0.1,0.7,0.8,1.9,1.4,2.8l1.1,1.6l1.1-2.3l1.1-2.2l2.9,0.3
		c2.6,0.2,3,0.5,4.3,2c1.3,1.6,1.6,2.3,2,6.8c0.3,2.8,0.7,5.7,0.9,6.5l0.2,1.5l4.3,0.3l4.3,0.3l10.8,9.2
		c10.4,8.8,10.8,9.3,11.6,11.8c0.5,1.4,0.8,2.8,0.6,2.9c-0.1,0.1-2.4,1-4.9,1.9c-4.4,1.6-4.8,1.7-7.3,1.2c-1.4-0.3-2.7-0.4-2.8-0.3
		s2.2,1.6,5.2,3.3l5.3,3.2l2.9-0.7c2.8-0.7,5.4-0.4,4.8,0.6c-0.1,0.2-3.1,1.4-6.7,2.7c-6.1,2.1-6.5,2.2-8.9,1.7
		c-1.3-0.3-2.6-0.5-2.7-0.4s2.2,1.6,5.2,3.4l5.3,3.2l2.9-0.7c2.9-0.7,2.9-0.7,7.4,0.9l4.5,1.6l4.3-1.2c2.4-0.7,4.4-1.2,4.6-1.2
		c0.7,0,3.8,5.8,4.5,8.6c0.6,2,1.4,3.6,3.3,5.8c4.2,4.8,4.8,5.4,9.2,9.2c4.2,3.6,4.3,3.6,7,3.6h2.8l11.4,8.7
		c11.1,8.6,11.4,8.8,13.9,12.8c1.4,2.2,2.8,4.1,3.1,4.1c0.2,0,2.8-0.6,5.6-1.2l5.1-1.2l5.9,3.8l5.6,3.7h0.9L421.3,477.2z
		 M166.3,132.2l-26.8,18.9l10.2-31.1l-26.6-19.1h32.8l10.2-31.2l9.9,31.3h32.8l-26.2,19.4l9.7,30.9L166.3,132.2z M226.1,192.2
		l-26.8,18.9l10.1-31.1l-26.5-19.2h32.7l10.2-31.1l10,31.2l32.8,0.1l-26.3,19.3h0.1l9.8,30.9L226.1,192.2z M286.4,252.3l-26.8,19
		l10.1-31.2L243.3,221h32.8l10.1-31.1l9.9,31.3H329l-26.1,19.3l9.8,30.9L286.4,252.3z M346.1,312.1L319.3,331l10.1-31.1l-26.4-19.2
		h32.7l10.2-31.1l10,31.2l32.8,0.1l-26.3,19.3l9.8,30.9L346.1,312.1z M379.5,391.5l10.1-31.2l-26.4-19.2l32.8,0.1l10.1-31.1l10,31.1
		l32.8,0.1l-26.2,19.4l9.8,30.9l-26.3-19.1L379.5,391.5z"/>
	<path fill="#000099" d="M128.1,41c-1.6-1.8-3-2.8-6.9-5.3c-3.2-2-6.1-3.8-6.5-4c-0.5-0.3-0.5-1-0.1-3.5l0.6-3l-3.1-2.9
		c-1-0.9-1.9-1.8-2.8-2.8l6.8,21.4H128.1z"/>
	<path fill="#FFCC00" d="M492.8,354.7c0.5-2.7,0.5-2.9-0.7-5.2c-0.9-1.8-1-2.4-0.5-2.4c0.4,0,0.9-1,1.2-2.8l0.6-2.9l-2.3-4.7
		c-1.7-3.4-2.4-5.4-2.6-7.6c-0.3-2.6-2.3-9.2-3.2-10.4c-0.2-0.3-2.6-1.2-5.4-2.1l-5-1.6v-1.8v-1.7l4-0.9c2.2-0.5,4.2-0.8,4.3-0.6
		c0.1,0.1,0.4,1.6,0.5,3.1c0.1,1.6,0.4,2.9,0.6,2.9c0.1,0,1.7-0.3,3.4-0.7c1.7-0.4,4.1-0.7,5.5-0.7c1.9,0,2.5-0.2,3.4-1.3l1-1.3
		l4.2,0.5c3.4,0.4,4.9,0.3,7.5-0.2l3.2-0.7l-0.3-1.7c-1-5.5-1.1-4.9,2.1-8c3.5-3.2,3.8-3.4,3.8-2c0,1.1,0.1,1.1,4.6-0.7
		c1.5-0.6,2.8-1,2.9-1c0,0,0,2-0.2,4.3l-0.4,4.2l1.4,0.9c1.9,1.1,2.5,1.1,2.9,0c0.1-0.4,1.2-1.8,2.3-3c1.8-2,2.4-2.3,5.5-3
		c3.7-0.8,6.7-2.3,6.7-3.3c0-0.3-0.3-1.7-0.7-2.9c-0.9-3-0.9-4.7,0-6.1c0.6-0.9,0.7-1.9,0.5-4.6c-0.3-4.4-0.3-5.1,0-9.1
		c0.2-2.8,0.1-3.7-1-6.5l-1.3-3.3l-3-0.6l-3-0.6l-0.3-2.7c-0.1-1.5-0.5-4-0.9-5.7l-0.6-3.1l-5.4-1.9c-6.2-2.2-5.7-1.7-10.6-12.4
		c-3.1-6.7-3.3-8.1-0.8-6.3c0.9,0.7,2.3,1.3,3.2,1.5c0.9,0.1,5.2,1.1,9.6,2.2c7.9,1.9,8,1.9,12,1.3c4.6-0.7,4.3-0.2,3.6-6.1
		c-0.3-2.6-0.3-3.7,0.1-3.9c0.3-0.2,2.6-0.5,5.2-0.7c2.6-0.2,4.8-0.5,4.9-0.8c0.1-0.2,0.1-2.4-0.1-4.8l-0.3-4.3l-5.3,0.3
		c-6.4,0.3-5.8-0.4,0.8-0.9c2.6-0.2,4.8-0.5,4.9-0.8c0.1-0.2,0.1-2.4-0.1-4.8l-0.3-4.3l-5.7,0.3l-5.8,0.3l-4.5-4.1
		c-2.5-2.2-4.5-4.4-4.5-4.8c0-0.4,0.1-1.9,0.3-3.3l0.3-2.5h-3.6h-3.6l-4.6-4.2l-4.6-4.2l-0.9-4.9c-0.8-4.7-1-5-2.4-5.9
		c-2.9-1.7-9.4-3.5-12.7-3.5h-3.1l-3.6-3c-4.8-3.9-5.3-6.2-2-8.5c1.4-1,1.7-1.4,2.1-4.4c0.4-2.3,0.4-4.2,0.1-6
		c-0.3-1.7-0.2-3.5,0.1-5.2c0.4-2.1,0.7-2.6,1.8-3c0.9-0.3,1.8-1.3,2.6-2.6l1.2-2.1l-1.4-1.8l-1.4-1.8l2.7-0.4l2.7-0.4l0.9-3.3
		c0.8-2.8,1.2-3.6,2.5-4.5l1.6-1.1v-5.5v-5.5l1.7-1.8c1.6-1.7,1.8-2.1,2.2-6.1c0.4-3.2,0.4-4.6,0-5.2c-0.9-1.3,0.1-7.7,1.4-8.6
		c0.6-0.5,1.2-1.8,1.6-3.7c0.5-2.6,0.5-3.3,0-5c-0.6-1.7-0.6-2.4,0-5.2c0.6-3,0.6-3.4-0.4-6.7l-1.1-3.4l-5.2-1.9
		c-2.8-1-5.8-2.3-6.7-2.7c-2.1-1.1-5.4-0.7-13,1.6c-3.3,1-7.3,2.2-9,2.7c-2.2,0.6-4.4,1.7-7.6,4c-2.5,1.7-4.8,3.3-5.1,3.5
		c-0.3,0.2-2,0.5-3.8,0.8l-3.2,0.4l-3.2-3c-3.6-3.3-4.7-3.9-7.4-3.9c-1,0-2.1-0.3-2.5-0.6c-2-1.6-3.1-5.1-1.6-5.1
		c0.4,0,0.9-0.8,1.3-1.9c0.5-1.9,0.5-2.1-0.8-4.5c-1.1-2-1.3-2.8-1-4.2c0.2-1,0.2-2.4,0-3.2l-0.3-1.4l-4.2,0.3l-4.2,0.3l0.4-1.7
		c0.3-1.4,0.2-1.8-0.5-2.2c-1.5-0.8-3.4-5-3-6.7c0.5-2.3-0.2-6.2-1.4-7.7l-1-1.3l-1.4,3.5c-0.8,1.9-1.7,4.2-2,5.1l-0.7,1.6l-0.9-1.5
		c-0.8-1.3-1.2-1.5-3.9-1.8c-2.7-0.3-3.3-0.2-6.3,1.2c-3.2,1.5-3.4,1.5-6.2,0.9c-2-0.4-3.3-1-4.8-2.3c-4.6-4.1-5-4.3-9.9-4.3
		c-4.3,0-4.6,0-6.3-1.5c-1-0.8-3.6-2.4-5.8-3.6l-4-2.2l-1.9,1.9l-1.9,1.9l0.8,2.8c0.5,2.1,0.6,3.1,0.2,4.3c-0.5,1.5-0.6,1.6-4.2,2.1
		c-2,0.3-5.6,0.6-8,0.6c-4.2,0-4.4,0-5.4-1.3c-0.7-0.9-0.9-1.6-0.7-2.3c0.1-0.5,0.4-1.7,0.5-2.7c0.2-1.6,0-1.8-1.4-2.8
		c-1.5-1-1.8-1-3.4-0.3c-1.3,0.6-2.5,0.7-4.6,0.4c-2.7-0.3-2.9-0.2-4.9,1.4c-2.5,2-3.9,4.9-4.4,9.2c-0.3,2.9-0.4,3-2,3.5
		c-2.4,0.7-2.7,0.6-6.6-0.5c-2.7-0.8-4.5-1.8-8.5-4.8c-2.8-2.1-5.3-4.3-5.6-4.9c-0.6-1.4-3.1-3.1-4.5-3.1c-0.5,0-3.3,0.7-6.2,1.5
		l-5.3,1.5l-1.4-1c-0.8-0.5-2.4-1.2-3.7-1.6l-2.2-0.6l-1.8,2.1c-1,1.2-1.9,2-2,1.9c-0.1-0.1-1-1.1-1.9-2.2l-1.7-2l-1.4,2.1
		c-1.6,2.4-2.4,2.3-2.8-0.5c-0.5-3.2-0.5-3.2-2.6-1.8c-1.9,1.2-2,1.2-5.1,0.7c-3.1-0.5-3.2-0.6-6.7-4.3c-4.2-4.6-5-4.8-7.8-1.9
		l-1.9,2l-5.2-0.1l-5.2-0.1l-4.8-4.4c-5.8-5.3-10.4-8.9-12.4-9.6c-1.1-0.4-2-0.3-3.6,0.1c-1.1,0.3-2.3,0.6-2.5,0.6s-1-1.1-1.7-2.5
		c-1.3-2.4-1.4-2.5-3.7-2.6c-1.9,0-2.9,0.2-4.7,1.2l-2.3,1.3l-0.1,4c-0.1,2.2-0.4,4.2-0.7,4.5c-0.3,0.3-4.2,0.5-11.6,0.4
		c-12.1-0.1-12.5-0.2-15.7-2.9c-0.8-0.8-2.6-1.5-4.1-1.9c-2.6-0.6-2.8-0.6-5.4,0.9c-1.5,0.8-3.8,2.2-4.9,3c-1.9,1.5-2.2,1.9-2.8,4.6
		c-0.5,2.3-0.9,3.1-1.9,3.7c-2.9,1.7-4.7,2.8-5.9,3.8l330.1,331C492.4,357.6,492.3,357.1,492.8,354.7z"/>
	<path fill="#FFFFFF" d="M79.4,91.2l26.9-19l26.1,19.1l-9.7-30.9l12.5-9.3l-0.7,0l-0.8-1.8c-0.4-1-2.1-3.6-3.8-5.9
		c-0.8-1-1.4-1.8-2-2.5h-12l-6.8-21.4c-2-2.1-3.6-4.2-4.4-5.9l-8.9,27.3H77.1c-0.1,1.2-0.2,2.4-0.5,3l-0.7,1.6l2.5,2.2
		c1.4,1.2,2.3,2.4,2.1,2.5c-0.2,0.1-0.6,1.1-1,2.4L89.8,60L79.4,91.2z"/>
	<polygon fill="#FFFFFF" points="302.9,240.5 329,221.2 296.2,221.2 286.3,189.8 276.1,221 243.3,221 269.8,240.1 259.6,271.3 
		286.4,252.3 312.7,271.4 	"/>
	<polygon fill="#FFFFFF" points="362.5,300.2 388.7,280.9 355.9,280.8 345.9,249.6 335.7,280.7 302.9,280.7 329.4,299.9 319.3,331 
		346.1,312.1 372.2,331.1 	"/>
	<path fill="#FFFFFF" d="M429.3,405.5l2-2.6l3.3-0.9c1.4-0.4,3.1-0.8,4.2-1.1h-15.7L429.3,405.5z"/>
	<polygon fill="#FFFFFF" points="422.8,360.7 449,341.3 416.2,341.2 406.2,310 396,341.2 363.2,341.1 389.7,360.3 379.5,391.5 
		406.3,372.5 432.6,391.6 	"/>
	<polygon fill="#FFFFFF" points="242.5,180.3 242.4,180.3 268.6,161 235.8,160.9 225.8,129.7 215.6,160.8 182.8,160.8 209.4,180 
		199.3,211.1 226.1,192.2 252.2,211.2 	"/>
	<polygon fill="#FFFFFF" points="182.8,120.4 208.9,101 176.1,101 166.2,69.7 155.9,100.9 123.1,100.9 149.8,120 139.5,151.1 
		166.3,132.2 192.4,151.3 	"/>
</g>
</svg>
