<?xml version="1.0" encoding="utf-8"?>
<!-- Generator: Adobe Illustrator 17.1.0, SVG Export Plug-In . SVG Version: 6.00 Build 0)  -->
<!DOCTYPE svg PUBLIC "-//W3C//DTD SVG 1.1//EN" "http://www.w3.org/Graphics/SVG/1.1/DTD/svg11.dtd">
<svg version="1.1" id="flag-icon-css-bb" xmlns="http://www.w3.org/2000/svg" xmlns:xlink="http://www.w3.org/1999/xlink" x="0px"
	 y="0px" viewBox="0 0 640 480" enable-background="new 0 0 640 480" xml:space="preserve">
<g>
	<polygon fill="none" points="368.6,480 370.1,481.8 375.4,481.8 380.6,481.8 382,480 	"/>
	<path fill="#00267F" d="M428.1,436.3l4.2,1.1c2.4,0.6,4.4,1.1,4.5,1.1c0.2,0,0.6-0.9,0.9-2.1c0.7-2.4,1.7-3.9,6.1-8.6l2.9-3.1
		l5-0.6c3.1-0.3,5.1-0.8,5.3-1.2c0.2-0.3,1.8-3.1,3.6-6.2l3.2-5.6l3.9-1.6c4.4-1.8,9.2-5.4,13.5-10.3c2.7-3.1,2.7-3.1,8.2-4.9
		l5.5-1.8l1.5-3.8c1-2.5,1.5-4.6,1.6-6.3c0-2.4,0.2-2.8,2-4.8c1.3-1.4,2.6-2.3,3.7-2.5c2.8-0.6,3.2-1,3.2-3c0-1.2,0.7-3,2.2-5.8
		c2.1-3.9,2.4-4.1,8-8.2l5.7-4.2l2.4-9.6c2.3-9.4,2.3-9.6,1.7-12.5c-0.9-4.5-0.9-4.5,1.4-4.7l2-0.1l0.1-2.9c0.1-2.9,0.1-2.9,2.8-5.2
		c2.6-2.3,2.7-2.5,4.5-8l1.8-5.6l-1-8.1l-1-8.1l-3.9-4.3c-2.1-2.4-4.4-4.9-5-5.6c-0.6-0.7-1.3-2.3-1.6-3.5c-0.4-1.9-0.9-2.7-3.6-5.4
		c-1.7-1.8-3.4-3.2-3.7-3.2c-0.3,0-1.2,1.4-2,3l-1.5,3l-3,0.3c-2.9,0.3-3.1,0.2-7.2-1.8c-8-4-12.3-6.8-13.2-8.5
		c-0.5-0.9-4.8-5.1-9.6-9.4c-8.2-7.3-8.9-7.9-11.9-8.8l-3.2-1l-2.5,2.1l-2.5,2.2h-3.8h-3.8l-7-5.6c-6.6-5.3-7.2-5.6-10.7-6.6
		c-2.1-0.6-5-1.4-6.6-1.8l-2.8-0.8l-1.9-3.2v206.8L428.1,436.3z"/>
	<path fill="#00267F" d="M209.8,8.7C201.4,2.1,198.3,0,197.4,0c-0.7,0-2.7,0.3-4.5,0.5c-3,0.4-3.6,0.8-6.6,3c-2.5,1.9-4.5,3-8.4,4.3
		l-5.1,1.8l-2.8,4.8l-2.9,4.8h-5.6H156l-4.8,9.7c-2.6,5.4-7.1,14-9.8,19.2l-4.9,9.3l1.7,7.6l1.7,7.6l-1.2,2.9l-1.2,2.9l0.9,4
		c0.7,2.9,0.8,4.8,0.6,7.2l-0.3,3.3l4.2,10.8l4.3,10.8l2.8,1.6c3.1,1.8,3.2,1.8,3.6,8c0.2,3.3,0.1,4-1.4,8.4l-1.6,4.8l1.1,5.1
		c1.7,8.4,1.8,13.6,0.5,24.8l-1.2,9.7l0.9,11.2c0.6,6.1,1.1,11.6,1.2,12.1c0.1,0.5,1.4,3.4,2.9,6.4l2.6,5.5l-1.7,6.9l-1.7,6.9
		l1.9,6.3l2,6.3l4.8,4l4.8,4.1l-0.9,3.2c-0.5,1.7-1.5,5.7-2.4,8.9l-1.5,5.7l2.3,4.2l2.3,4.2l0.6,8.2c0.3,4.5,0.7,9.4,0.8,10.8
		l0.2,2.6l-2.8,3.2l-2.9,3.1v6v6l3.4,11.1l3.3,11.1l-0.6,4.2c-0.3,2.4-0.7,4.5-0.8,4.8c-0.1,0.3,2.6,2,6.1,3.9l6.3,3.3l1.8,4.5
		c2.2,5.6,6,17.6,6.1,19c0,0.5-0.9,3.7-2,7.1l-2,6.2l1.9,3.7l1.8,3.7l11.7,0.2l11.6,0.2v-384C212.2,10.5,211,9.6,209.8,8.7z"/>
	<path fill="#FFC726" d="M383.6,478.1c2.9-3.6,3-3.7,6.6-4.7l3.6-1l4.9-6.1l4.8-6l2.5,1.1c1.4,0.6,2.6,1.1,2.7,1.1
		c0.8,0,3.8-5.3,4.9-8.5c0.8-2.2,2.4-6,3.5-8.5l2.1-4.5l4.4-2.3l3-1.6V230.3l-1.2-1.9l-3.1-5.1l-2.5-0.6l-2.5-0.7l-2.6,2.3
		c-1.4,1.2-2.8,2.4-3.2,2.7c-0.4,0.3-2.8-0.8-7.3-3.3l-6.8-3.7l-2.3-3.6l-2.3-3.6l-5.5-1.3c-0.3-0.1-0.6-0.1-0.9-0.2
		c-10.4,24.1-17.3,50.6-17.2,80c-8.8,0-30-5.2-38.7-5.2v56.1H320h-0.5h-10.7v-56.1c-8.7,0-29.9,5.2-38.7,5.2
		c0.2-48.5-18.7-89.4-41.1-124c-1.4-1.7-0.5-2.5,1-2.2c17.6,2.9,33.8,11.3,46.4,24c1.3,1.7-7.4-1.9-8.2-1.9c-6.6-2,1.9,9.1,2.4,12
		c6.8,21.5,12.6,42.3,14.8,67c0,1.7,0.2,3,1,3l22.4-3.3v-79.5c-5.2-0.2-13.5,1.2-18.2,2.8c10.3-10.2,16.8-22.5,22.2-35.3
		c-0.8-0.8-1.4-1.2-2-1.6l-2.4-1.4l0-3.6c0-2-0.2-5.1-0.4-7l-0.3-3.3l-6-5.2c-5.7-5-6.2-5.6-12.8-15.2l-6.9-10l0.8-6.4
		c0.4-3.5,0.8-6.5,0.8-6.6s-1.5-0.8-3.3-1.6c-3.3-1.3-3.3-1.4-5-4.7c-0.9-1.8-3.7-8.1-6.1-14.1c-4.2-10.3-4.4-10.9-4.4-14.3
		c0-2.6-0.4-4.9-1.7-9.5c-0.9-3.2-1.8-6-1.8-6.1c-0.1-0.1-1,0.2-2.2,0.6c-2,0.8-2.1,0.7-9.1-1.3l-7.1-2.1l-5.4-7.9
		c-5.2-7.5-5.6-7.9-8.5-9.5c-1.7-0.9-4.1-2.6-5.4-3.7c-1-0.9-5.3-4.2-10.1-8v384l0.1,0l1.8,4.5c0.9,2.4,2.3,6.5,2.8,8.9l1.1,4.5
		l-1.7,3.5c-1,1.9-1.6,3.6-1.4,3.8c0.2,0.2,3.2,2.4,6.5,4.8l6.1,4.4l6.8,1.3l6.8,1.3l5.8-2.4c3.2-1.3,6.2-2.4,6.6-2.4
		c1.8,0,16,6.6,23,10.7l7.7,4.5l6.9,0.6c7.4,0.6,7.5,0.6,23.2-2.9l3.5-0.8l5.9,3.5c3.2,2,11,7.1,17.2,11.5l11.3,7.9l8.4,9.5l6.8,7.7
		H382L383.6,478.1z"/>
	<path fill="#FFC726" d="M330.7,186.4v79.5l22.4,3.3c0.8,0,1-1.3,1-3c2-22.7,7.1-42.1,13.2-61.9l-13.7-5.5l-0.6-2.9
		c-0.3-1.6-0.8-3.3-1.1-3.7c-0.2-0.3-2.8-1.9-6.4-4C340.9,187.1,334.8,186.2,330.7,186.4z"/>
	<path d="M308.8,186.4v79.5l-22.4,3.3c-0.8,0-1-1.3-1-3c-2.2-24.7-8-45.5-14.8-67c-0.5-2.9-9-14-2.4-12c0.8,0,9.5,3.6,8.2,1.9
		c-12.6-12.7-28.8-21.1-46.4-24c-1.5-0.3-2.4,0.5-1,2.2c22.4,34.6,41.3,75.5,41.1,124c8.8,0,30-5.2,38.7-5.2v56.1h10.7L317,185.5
		l1.3-24.4c-2.9-4-4.4-6-5.6-7.2c-5.3,12.8-11.9,25.1-22.2,35.3C295.3,187.6,303.6,186.2,308.8,186.4z"/>
	<path d="M319.5,342.2h0.5h10.7v-56.1c8.7,0,29.9,5.2,38.7,5.2c-0.1-29.4,6.8-55.9,17.2-80c-3.9-1-9.5-3-18.8-6.7l-0.5-0.2
		c-6.1,19.7-11.2,39.1-13.2,61.9c0,1.7-0.2,3-1,3l-22.4-3.3v-79.5c4.1-0.2,10.2,0.7,14.8,1.8c-1.2-0.7-2.4-1.4-3.8-2.1l-9.6-5.4
		l-9.5-13.6c-1.7-2.4-3.1-4.4-4.3-6.1l-1.3,24.4L319.5,342.2z"/>
</g>
</svg>
