<?xml version="1.0" encoding="utf-8"?>
<!-- Generator: Adobe Illustrator 17.1.0, SVG Export Plug-In . SVG Version: 6.00 Build 0)  -->
<!DOCTYPE svg PUBLIC "-//W3C//DTD SVG 1.1//EN" "http://www.w3.org/Graphics/SVG/1.1/DTD/svg11.dtd">
<svg version="1.1" id="flag-icon-css-be" xmlns="http://www.w3.org/2000/svg" xmlns:xlink="http://www.w3.org/1999/xlink" x="0px"
	 y="0px" viewBox="0 0 640 480" enable-background="new 0 0 640 480" xml:space="preserve">
<g>
	<path fill="none" d="M368.4,0c-0.7-0.1-1.4-0.3-1.7-0.4c-0.5-0.1-1.1-0.1-1.4,0c-0.1,0.1-0.6,0.2-1.2,0.4H368.4z"/>
	<path d="M207,54.1c-1.1-0.2-3.7-1.3-5.6-2.6c-2.1-1.4-4.9-2.6-6.8-3c-1.8-0.3-4.1-1.3-5.1-1.9l-1.9-1.3l-5.5,2.6
		c-3,1.4-5.8,2.9-6,3.2c-0.2,0.3-0.3,2.1-0.1,3.8c0.2,1.7,0.1,3.4-0.2,3.8c-0.8,1.2-6.2,1.4-11.4,0.5c-4.7-0.9-5.1-1.1-7-3.3
		c-2.9-3.3-3.4-4.4-3.4-7.4c0-1.5-0.4-3.6-0.9-4.7c-0.9-1.8-0.9-2.3-0.2-5.3c0.9-3.6,0.8-9.9-0.1-9.9c-0.3,0-2.5,1.1-5,2.6
		c-3,1.7-6.2,3-10.1,3.9c-3.1,0.8-7.3,2.1-9.3,2.9c-2,0.7-6.4,1.8-9.7,2.3c-3.4,0.5-6.7,1.1-7.3,1.4c-0.7,0.2-6.2,4.1-12.3,8.6
		c-8.1,6-17.3,11.9-33.8,21.7c-12.4,7.4-25.9,15.3-29.9,17.3L28,93.2v3.2c0,1.8,0.7,6.9,1.5,11.4l1.5,8.2l2.5,0.4
		c2.3,0.3,2.6,0.6,5,4.6c1.4,2.3,2.6,4.5,2.6,4.7c0,0.2-1.3,1.7-2.9,3.3l-2.9,2.9l0.3,7.2c0.3,6.3,0.2,7.5-0.8,9.7l-1.1,2.5l1.7,1.8
		c1,1,2,3,2.4,4.5c0.3,1.5,0.9,2.8,1.1,3c0.2,0.2,2.3-0.4,4.6-1.3l4.2-1.5l1.9,2.2c1,1.1,2.5,3.7,3.4,5.7c1.2,2.8,1.9,3.7,3.3,4.2
		c1.6,0.6,1.7,0.7,1.3,2.9l-0.4,2.3l2.3,0.4c2.3,0.3,2.3,0.5,2.3,2.6s0.1,2.2,3,3c1.7,0.5,4.3,1.1,5.8,1.5c1.8,0.5,3.9,1.7,6.2,3.5
		c1.9,1.6,3.5,2.7,3.5,2.6c1.4-1.7,4.3-8.2,4.6-10.2l0.4-2.6l5.7-1c3.2-0.6,7.3-1.8,9.4-2.7c2.6-1.1,4.2-1.6,5.4-1.3
		c1.3,0.2,2.6-0.2,5.5-1.8l3.9-2.2l1.8,2.1c1,1.1,3.3,5.1,5.1,8.9l3.4,6.8l3.1,0.8c4.1,1,4.2,1.5,3.7,13.8c-0.4,9.6-0.4,9.6,1,11.7
		c2.2,3.4,3.3,7.4,3.3,12.2v4.3l6.5,6.1l6.5,6.1h3c3.5,0,7.3-1.8,12.4-5.8c4.4-3.4,5.7-3.6,6.2-0.7c0.2,1.1,0.1,3.2-0.2,4.6
		c-0.3,1.4-0.5,2.6-0.3,2.8s2.7,0.3,5.6,0.3c6.5,0,12.3,1.8,16.3,5.2c2.3,1.9,2.7,2.6,3.3,5.4c0.9,4.5,0.8,11.9-0.2,15.7
		c-1.4,5.3-1.1,8.4,0.9,10.9c1,1.3,2.1,3.4,2.5,4.7c0.4,1.3,1.1,2.5,1.6,2.6c1.4,0.3,4.9-3.3,6.8-6.9l1.7-3.3h3.9V55.7
		C211,55,208.2,54.3,207,54.1z"/>
	<path fill="#FFD90C" d="M362.2,0.5c-2.2,0.6-2.7,1.1-5,4.5c-1.5,2.4-3.4,4.3-4.8,5.3c-2.9,1.8-5.4,5.2-5,6.8c0.6,2-0.9,2.5-4.6,1.7
		c-1.8-0.5-4.2-1.3-5.1-1.8c-3-1.5-5.1-1.2-6.2,0.8l-0.9,1.8l-1.4-1.7c-1.9-2.2-1.8-4.8,0-7.3c1.4-1.9,1.7-3.3,1.1-5
		c-0.7-1.9-6.8-0.9-12.1,2.2c-1.8,1-4.7,2.2-6.6,2.6c-2.6,0.6-3.3,0.9-3,1.7c1,3.4,1,4.1-0.2,5.8c-0.7,0.9-1.2,1.8-1.2,2.1
		c0,0.2,1,1.5,2.2,3c2.1,2.6,4.1,6.9,4.1,9.2c0,0.6-0.6,1.4-1.4,1.8c-1.8,1-9-0.1-11.2-1.7c-0.8-0.6-2.5-1.6-3.8-2.3
		c-2.3-1.1-2.5-1.1-6.2-0.3c-5,1.1-8.2,3.3-8.2,5.7c0,0.9-0.7,3-1.6,4.5c-1.3,2.3-3,3.9-9.2,8.4c-4.1,3-8.6,6.5-10,7.7
		c-1.9,1.8-3.5,2.5-7.3,3.6c-4.6,1.3-5.1,1.6-8.9,5.3c-4,3.9-4.1,3.9-7.2,3.9c-2.5,0-3.4,0.3-4.2,1.1c-1.3,1.5-1.7,1.4-4-0.3
		c-1.8-1.4-2.2-1.4-5.1-1c-3,0.6-3.3,0.5-5.5-1.1l-2.3-1.7l0.2-4.2l0.2-4.2l-4.3-1.4c0,0,0,0-0.1,0v219.4h3.7h7.6l2.6,2.1l2.7,2.1
		l6-0.3c4.2-0.2,6.6-0.7,8.6-1.5c1.5-0.7,3.9-1.2,5.4-1.2c2.4,0,2.8,0.2,3.4,1.5c0.4,0.9,1.9,2.5,3.5,3.5c4,2.7,6.6,6,7.8,9.7
		c0.8,2.5,1.4,3.4,3.2,4.5c3.7,2.3,3.8,2.3,3.8-0.6c0-1.4,0.2-2.7,0.5-2.9c0.2-0.2,1.5-0.1,2.7,0.2c1.5,0.3,2.9,1.3,4.3,3
		c1.2,1.4,2.1,2.6,2.1,2.7c0,0.2-2.4,2.1-5.3,4.4l-5.3,4.1l-0.3,5.7c-0.3,5.4-0.5,6.1-2.6,10.1c-1.3,2.4-2.3,4.5-2.2,4.5
		c2.9,1.9,4.7,2.6,7.2,2.6h2.9l0.7,3.3c0.5,2.3,1.3,3.8,2.6,5.3c1.3,1.3,2,2.8,2.3,4.4l0.3,2.4l-3.3,0.2c-3.3,0.2-3.3,0.2-3.8,2.2
		c-0.4,1.7-0.9,2.2-3.6,3.5c-3,1.5-3.1,1.6-3.1,3.8c0,1.7,0.4,2.7,1.8,4.3c1.5,1.7,1.7,2.2,1,2.6c-2.5,1.5-2.4,1.4-1.4,3.3
		c0.9,1.5,1.3,1.7,5,1.9c3.4,0.3,4.2,0.6,5.7,1.9c1.7,1.6,1.7,1.6,5,0.9c5.7-1.2,10.4-0.9,12.8,0.7c3.9,2.7,9.5,4.3,15.4,4.7
		l5.5,0.3l3.6-2.3c5.1-3.3,7.6-4.5,12.2-6c2.2-0.7,5.3-2.1,7-3.1c1.6-1,3.9-2.1,5-2.3c1.8-0.3,2.1-0.6,2.6-2.6
		c0.3-1.2,0.9-3.3,1.1-4.5c0.3-1.3,1.1-3.1,1.7-4.2c0.9-1.6,1-2.3,0.5-5.4c-0.7-4.5-0.1-5.6,4.7-8.6c2.9-1.8,3.4-2.5,4.3-5
		c0.9-2.6,1.3-3.1,4-4.4c2.4-1.2,3.3-2.1,4.4-4.1l1.3-2.6l2.5,2c2.3,1.8,2.9,2.1,6.2,2.1h3.7l-2,3.5l-1.9,3.6l1,2.6
		c0.6,1.4,1,2.7,1,3c0.1,0.2-1.1,0.7-2.5,1.1l-2.6,0.6v3.5c0,2.1-0.5,4.7-1.1,6.5c-0.8,2.1-1.1,4.3-1.1,7.7v4.6l-2.6,3
		c-2.2,2.6-2.6,3.4-2.4,5.2c0.2,2.1,0.2,2.2,4,3.3c5.5,1.7,7.3,3.8,7.3,8.9c0,6.2-0.4,7.3-3.2,8.7c-3.3,1.5-3.2,2.7,0.1,6.1
		c2.3,2.3,2.7,3,2.9,5.8c0.3,2.7,0.1,3.3-0.9,4.2c-0.7,0.7-1.2,1.8-1.2,2.9v1.9l5,0.3c4.1,0.3,5.7,0.2,8.8-0.7l3.8-1.1l3,2
		c1.6,1.1,4.3,2.5,6,3c1.7,0.6,4.2,1.7,5.5,2.5c1.4,0.8,3.4,1.6,4.5,1.8c1.9,0.3,2.2,0.7,3.5,3.7c0.8,1.8,1.7,3.9,2.1,4.8
		c0.5,1.3,1,1.6,2.5,1.6c1.8,0,2,0.2,3,3l0.8,2V44.9c-0.3,0-0.6-0.1-1-0.1c-6.9-0.5-7.6-1-7.6-5.9c0-3-0.1-3.1-3.7-6.9
		c-3.6-3.7-3.7-3.9-3.7-6.8c0-1.9,0.6-4.3,1.5-6.6l1.5-3.6l-1.3-2.8c-1.1-2.2-2.3-3.4-5.8-5.8l-4.4-3.1l-0.8,1.6
		c-0.5,0.9-1,2.9-1.2,4.5c-0.5,3.4-2.3,5.9-8.3,11.2c-4.2,3.7-4.2,3.7-6.4,3.1c-1.6-0.4-2.6-1.1-3.4-2.5c-0.6-1.1-1.3-1.9-1.3-1.9
		c-0.1,0-2.7,0.9-5.8,1.9c-5.6,1.9-5.8,1.9-7.6,0.9c-1.8-0.9-3.4-2.9-3.5-4.3c0-0.3,0.7-1.1,1.7-1.8l1.7-1.3l2.3,1.4
		c1.3,0.8,2.5,1.4,2.7,1.4c0.5,0,1.3-6.7,1.3-11.3c0-3.5-1.4-5.7-3.9-6.2c-0.4-0.1-0.8-0.1-1.2-0.2h-4.3
		C363.6,0.2,362.9,0.3,362.2,0.5z"/>
	<path fill="#F31830" d="M427.1,435l4.2,0.8c3.9,0.7,4.4,0.7,7.7-0.5c1.9-0.7,3.7-1.2,3.9-1.2c0.6,0,6.8,7.7,6.8,8.4
		c0,0.3-0.6,1.1-1.4,1.9c-1.5,1.4-1.5,2.2-0.5,5.8c0.4,1.5,4.6,1.7,7.5,0.4l2.4-1l3.3,2.1c1.8,1.2,4.4,2.7,5.8,3.3
		c2.3,1,2.4,1.2,2.4,3.5c0,3.4,1.7,10.6,2.7,11.8c0.6,0.7,0.7,1.7,0.5,3.5c-0.3,2.2-0.2,2.7,0.9,3.5c2.2,1.5,5.6,1,10.9-1.4
		c2.7-1.3,5.3-2.3,5.7-2.3s1.5,1.1,2.3,2.6c1.1,1.9,1.9,2.6,2.9,2.6c1.2,0,1.4-0.4,2.3-4.1c0.7-3.3,2-6.9,2.9-7.8
		c0.4-0.5,7.7,3.4,8.8,4.7c1.1,1.2,1.9,1.5,4.1,1.5h2.7l0.6-2.5c0.3-1.3,0.7-2.7,0.9-3.1c0.2-0.4,1.2-0.7,2.5-0.7c2.1,0,2.3,0.2,3,2
		c0.7,1.9,0.9,2.1,3,1.9c1.8-0.1,2.6-0.6,4.4-2.8c2.1-2.5,2.3-2.9,3.1-9.3c1-7.8,3.1-13.1,5.3-13.4c1.1-0.2,0.7-0.6-2.5-3.4
		c-4-3.4-3.8-2.9-2.5-8.4c1-4.2-0.6-6.6-4.5-6.7c-1,0-1.4-0.6-2.2-3.6c-0.6-2.1-1.7-4.2-2.6-5.3c-0.9-1-2.1-3.1-2.6-5.1
		c-0.6-1.9-1.1-3.6-1.3-3.8c-0.1-0.2-1.5,0.2-3,1c-1.5,0.8-3,1.4-3.1,1.4c-0.5,0-0.3-9.2,0.3-13.4c0.5-3.2,0.9-4.2,2-5
		c0.8-0.6,1.4-1.3,1.4-1.5c0-0.3-1.4-1.4-3.1-2.5l-3-2l0.4-2.5c0.6-3.7,3.7-9.9,5.8-11.8c1-1,3.2-2.3,4.8-2.9c2.1-0.9,3.3-1.8,4-3.1
		c1-1.9,1-2-0.3-4.8c-1.7-3.5-1.3-5.1,1.7-6.9l2.3-1.4v-4c0-3.5,0.2-4.3,1.5-6.1c0.8-1.1,2.1-3.2,2.8-4.7c0.9-2,2.7-3.9,6.4-7
		c6.6-5.6,6.9-6,7.3-9.3c0.3-2.4,0.7-3.1,2.6-4.6c3.4-2.7,5.3-2.3,6.3,1.4c1.1,3.8,1.9,4.6,4.5,3.9c1.9-0.5,2.2-0.8,2.7-3.1
		c0.5-2.2,0.9-2.6,2.1-2.7c1.5-0.2,1.5-0.1,2.2,4.1c0.5,3,1.1,4.8,2.2,6.1l1.5,1.8l1.9-3.3l1.9-3.2l-1.2-2.2l-1.3-2.2l1.6-0.4
		c2.8-0.6,3-0.7,4.5-3c1.8-3,1.8-3.5-0.3-5.5c-1.2-1.1-1.7-2.2-1.7-3.4c0-1.5,0.4-1.9,3-3.4c2.3-1.2,3.2-2.1,3.9-3.8l0.9-2.2
		l3.9-0.2l3.9-0.2l1.8-6.6l1.8-6.6l3.4,0.1c1.9,0.1,4.9,0.3,6.8,0.5c3.4,0.4,3.4,0.4,4.7-1.4c1.3-1.7,1.3-2,0.6-5
		c-0.7-3.1-0.8-3.2-4.6-5.4l-3.8-2.3l0.3-2.4c0.2-1.4,1.6-5.4,3.1-8.9c1.5-3.5,2.7-6.6,2.5-6.9c-0.1-0.2-1.5-1-3.1-1.8
		c-2.8-1.4-2.8-1.4-3.9-5.7l-1.1-4.3l-3.7-0.7c-5.5-1-7.9-0.9-10.1,0.5l-2,1.3l-3.4-3.4l-3.4-3.4l0.9-2.9c0.5-1.6,0.7-3.1,0.5-3.3
		s-1-0.3-1.9-0.3c-1,0-1.6-0.3-1.6-0.9c0-2,1.7-3.9,6.1-6.8c3.6-2.4,5.3-3.9,6.8-6.4c1.1-1.8,2-3.3,1.9-3.4
		c-0.3-0.3-6.9-1.9-9.5-2.3c-2.1-0.3-2.7-0.2-3.8,0.8l-1.3,1.3l-0.4-4c-0.3-3.7-0.7-4.5-4.2-10.2c-3.7-5.9-4-6.2-7.6-8
		c-3.2-1.6-4.1-1.8-6.6-1.5l-2.9,0.3l-1.3-2.9c-0.9-2-1.6-3-2.5-3.1c-7.6-1.7-13.3-2.6-14.4-2.3c-0.9,0.2-1.4-0.1-2.2-1.5l-1-1.8
		l-2.2,1.8l-2.2,1.7l-3.3-1.1c-3.3-1.1-3.4-1.1-4.4-0.1c-1,1.1-1.1,1.1-4-0.5l-3-1.6l-2.6,2.5c-1.9,1.9-3.3,2.7-5.3,3.1
		c-2.6,0.5-2.7,0.5-3.5-1c-0.7-1.4-0.7-1.9,0.1-4.2l0.9-2.6l-1.9-3c-1.1-1.6-3.3-4.2-4.9-5.8c-3-2.7-3-2.8-3-6
		c0-1.8,0.4-4.5,0.9-5.9c0.9-2.6,0.9-2.6,3.9-3c3.4-0.4,3.4-0.4,3.9-4.9l0.4-2.6l2.2,0.2l2.2,0.2l0.4-2.9c0.3-2.6,0.6-3.1,2.5-4.2
		c1.1-0.7,2.1-1.3,2.2-1.3c0.1-0.1-0.3-1.2-0.8-2.6c-0.9-2.3-1.1-2.3-2.9-2.1c-1.5,0.3-1.9,0.2-2.2-0.9c-0.2-0.7-0.2-1.4,0.2-1.6
		c6-3.7,6.3-4.2,7-7.9c0.6-3.4,0.5-3.7-0.8-5.7l-1.5-2.1l1.4-1.7c0.7-1,2.2-2.2,3.3-2.7c1.8-0.9,1.9-1.1,2.2-4.6l0.3-3.7l2.5-0.5
		c2.7-0.6,3-1.3,1-3.2c-1.8-1.7-1.9-5.2-0.3-7.7c0.6-1,1.1-2.5,1.1-3.5v-1.8l-4-0.4l-4.1-0.4l-1.9-3.1c-2.3-3.6-2.8-3.7-8.6-1.9
		c-4.7,1.4-6.1,1.1-9.2-1.7c-1.4-1.4-3.1-2.3-4.4-2.6c-3.1-0.6-8.5-3.1-8.5-4.1c0-2-4.2-13.4-5.5-15.3c-2.3-2.9-4.8-3.3-8.8-1.2
		c-5.5,2.8-8.9,3.7-14.2,3.7h-5l-2.1,2.3l-2.1,2.3l-3.1-1.4c-3-1.3-3.3-1.3-5.5-0.6c-2.1,0.7-4.4,0.7-5.8-0.1
		c-0.2-0.1,0.3-2.3,1.3-4.8l1.7-4.5l-1.5-0.8c-0.8-0.4-3.5-0.9-6.5-1.1V434L427.1,435z"/>
</g>
</svg>
