<?xml version="1.0" encoding="utf-8"?>
<!-- Generator: Adobe Illustrator 17.1.0, SVG Export Plug-In . SVG Version: 6.00 Build 0)  -->
<!DOCTYPE svg PUBLIC "-//W3C//DTD SVG 1.1//EN" "http://www.w3.org/Graphics/SVG/1.1/DTD/svg11.dtd">
<svg version="1.1" id="flag-icon-css-bh" xmlns="http://www.w3.org/2000/svg" xmlns:xlink="http://www.w3.org/1999/xlink" x="0px"
	 y="0px" viewBox="0 0 640 480" enable-background="new 0 0 640 480" xml:space="preserve">
<g>
	<path fill="#E10011" d="M264.7,132.4c-1.3,0.7-2.5,0.9-4,0.8c-1.9-0.1-2.2-0.3-2.5-1.3c-0.3-1.1,0-1.4,2-2.9c1.3-1,2.6-1.7,2.9-1.7
		c0.7,0,0.7,0.1,0.1-1.6c-0.4-1.1-0.6-1.3-1.1-1c-0.4,0.3-0.5,0.8-0.4,1.1c0.1,0.4-1,1.3-2.9,2.5c-3,1.9-27.9,15.5-28.3,15.5
		c-0.1,0-0.7-1.1-1.3-2.6c-0.8-1.9-1.1-3.4-1.1-5.5c0-2.6,0.1-2.9,0.7-2.4c0.4,0.3,0.7,0.9,0.7,1.2c0,0.5,0.3,0.6,0.7,0.4
		c0.4-0.1,0.9-0.3,1.1-0.3c0.7,0,0.5-0.9-0.8-2.8c-1-1.6-1.1-1.9-0.5-2.2c0.5-0.3,0.6-1.4,0.6-3.7c0-4.2-0.2-5.4-1-5.4
		c-0.4,0-0.6-0.4-0.6-0.9c0-0.6-0.5-1.1-1.1-1.4c-1.3-0.5-1.6-2.1-0.3-2.5c0.7-0.3,0.7-0.3,0-0.9c-0.5-0.3-0.8-0.8-0.8-1.1
		c0-0.3-0.7-0.5-1.7-0.5l-1.7,0l2-1.8l2.1-1.8l-0.5-2.2c-0.4-2-0.5-2.2-1.8-2.3c-0.7,0-1.8-0.4-2.4-0.6c-1.1-0.5-4.8,0.1-7.2,1.4
		c-2.4,1.2-5.7,4.3-7.9,7.4l-2.1,3l0.5,2.7c1.1,5.5,1.3,6.1,2.7,6.6c1.1,0.4,1.4,0.7,1.4,2c0,1.6-1.1,3.1-2.2,3.1
		c-0.4,0-0.3,0.5,0.4,1.6c0.5,0.8,1,1.9,1,2.4c0,0.6,0.1,0.7,0.5,0.3c0.7-0.7,2.2-0.7,3.3,0.1c0.5,0.4,1.4,0.7,1.9,0.7
		c1.6,0,5.4,3.7,6.4,6.2c0.4,1.1,0.7,2.2,0.5,2.4c-0.6,0.6-3.4-0.4-3.9-1.4c-0.6-1.3-3.9-2.6-6.9-2.6c-1.1,0-2.4-0.3-2.8-0.6
		c-0.4-0.4-1.8-0.8-3.1-1l-2.3-0.3l-0.6,2.4l-0.6,2.4l-1.5-2.5c-1.8-2.8-1.9-3.4-0.6-5c1.7-2.2,1.3-2.7-5.7-8.7
		c-4.5-3.8-6.4-5.8-5.9-5.9c0.8-0.3-2-3.1-6.1-6.4c-2.6-2-3.5-3.6-5.8-9.6c-0.9-2.4-1-3.6-0.2-4.6l-61.6,19.4l93.5,30.5l-93.5,29.5
		l93.5,30.5l-93.5,29.5l93.5,30.5l-93.5,29.5l93.5,30.5l-88.2,27.8c1.1,1.3,2.3,2.9,3.5,4.5l84.7,27.6l-55,17.4
		c2,3.6,3.7,6.8,4.5,8.5l2.8,6.1l0.3,9.1l0.1,3.4l27.7,9c3.8-4,9.3-10,13.1-14.4l8-9.3l-1.1-2.4c-1.2-2.7-1.6-7.8-1-14
		c0.2-1.9,0.1-4.8-0.1-6.4c-0.4-2.5-0.3-3.4,0.4-5.4c1.1-3.2,1.1-3.4-0.3-5.5l-1.1-1.8l2.8-8.6c2.7-8.5,2.8-8.6,2.9-14.8
		c0.1-6.1,0.2-6.2,2.5-12.7c1.3-3.6,2.3-7,2.3-7.5c0-0.5-0.4-2.2-0.8-3.7c-0.8-2.6-0.8-3.2-0.2-10.5c0.4-4.3,0.7-11,0.8-14.9
		c0.1-3.9,0.3-8.1,0.5-9.3c0.3-1.8,0.5-2.1,1.4-2.1c0.6,0,1.1-0.2,1.1-0.4c0-0.2,0.3-2.7,0.7-5.6c0.4-2.9,0.7-6.5,0.6-8
		c-0.1-3.7,3.9-18.5,5.2-18.8c0.7-0.2,0.8-0.9,0.8-6.3c0-3.3,0.2-6.6,0.5-7.3c0.4-1.1,0.3-1.4-0.6-2.3l-1.1-1.1l3.8-3.9
		c2.1-2.1,3.8-4.1,3.8-4.3c0-0.2-2.2-1.9-4.8-3.7l-4.8-3.3l0.3-3.7c0.3-3.3,0.2-3.8-0.9-5.7c-0.9-1.6-1.1-2.6-1.1-5.3v-3.2l2.5-2.3
		c2.3-2.2,2.5-2.4,2.2-4.2c-0.2-1.7-0.6-2.2-3.1-4.3l-2.9-2.5v-2.8c0-2.2,0.1-2.9,0.8-3.3c2.6-1.6,2.6-1.4,1-6.6l-1.4-4.8l2.1-4.3
		l2.2-4.3l2.9,1.4c1.6,0.8,3,1.4,3.2,1.4c0.1,0-0.6-1.1-1.6-2.3c-2.3-2.9-2.5-5-0.7-7.6l1.1-1.7l-1.5-1.8c-6.6-8.2-6.6-8.1-6.9-10.9
		c-0.2-2-0.6-3-1.6-4.3c-1.5-1.7-1.5-2.1,0-2.9c0.8-0.4,1.4,0.5,6.1,9.3c5,9.2,5.3,9.8,4.8,11.2c-0.4,1.1-0.4,2,0,3.5
		c0.5,1.7,0.5,2.1,0,2.5c-1.1,0.7,0,1.1,3.9,1.1c3.5,0.1,3.9,0,3.9-0.7c0-0.5-0.3-1-0.7-1.1c-1-0.4-0.8-1.5,0.3-2.1l1.1-0.5L238,172
		c-0.7-0.2-1.2-0.7-1.2-1.2c0-0.5-0.3-1-0.5-1.1c-0.4-0.2-0.2-0.4,0.5-0.5c0.7-0.2,1-0.7,1-1.5c0-0.8-0.2-1.1-0.8-0.9
		c-2.3,0.7-3.3,0.8-3.3,0.4c0-0.3-0.1-0.8-0.3-1.2c-0.2-0.5,0-0.7,1-0.7h1.3l-1-0.8c-0.8-0.6-1.1-1.4-1.3-4.1
		c-0.2-2.3-0.2-3.3,0.2-3.3c1,0,0.5-1.4-0.6-1.9c-0.9-0.4-1.1-0.9-1.1-2.1c0-2.5,1.3-4.2,4.1-5.4l2.5-1.1l1,1.2l1.1,1.2l3.7-1.3
		c3.6-1.3,3.7-1.3,3.4-2.7c-0.2-0.8-0.8-2.4-1.4-3.6c-0.6-1.2-1-2.4-0.8-2.6c0.2-0.1,2.1-1.1,4.2-2c2.6-1.2,4.3-1.7,5.5-1.6
		c0.9,0.1,3.5-0.1,5.9-0.5c3.3-0.5,4.4-0.9,5.2-1.7C267.4,131.5,266.9,131.3,264.7,132.4z"/>
	<path fill="#E10011" d="M207.5,30.3l0.3,0.1l-0.4,0.1l-0.9,2.1l1.5,2.1c1.5,2.1,1.5,2.2,1,4.5c-0.3,1.3-0.4,2.4-0.2,2.5
		c2.6,1.1,4,2.3,4.8,4.4c1.3,3.5,2.7,4.8,5.4,4.8c2.1,0,2.2,0,3.8-2.7c1.8-2.9,5.1-6.5,5.9-6.5c0.7,0,2.4,1.8,2.9,3.3
		c0.4,1,0.3,1.6-0.2,2.8c-0.9,1.7-0.3,4.3,0.8,4c0.4-0.1,1-0.3,1.4-0.4c0.8-0.2,1.8,1.8,1.8,3.6c0,1.2,1.7,3.6,2.6,3.6
		c0.5,0,0.6-0.3,0.5-1.4c-0.3-1.2-0.1-1.5,1.1-2.1c2-1.1,2.5-2.3,1.3-3.2c-0.9-0.6-1.1-0.6-1.7,0c-1,0.9-1.7,0.9-2.3-0.2
		c-0.4-0.8-0.1-1,3.3-1.8l3.7-0.9l0.9,1c0.5,0.6,1.7,1.5,2.7,2c1.7,0.8,1.7,0.9,0.8,1.2c-1.1,0.3-2.1,2.2-1.7,3.3
		c0.1,0.3,0.7,0.6,1.4,0.6c1.3,0,3,1.9,3,3.5c0,1.1-0.1,1.1,3.3,0.4c1.1-0.2,1.3,0,1.7,0.9c0.5,1.4,0.6,3.9,0.1,3.9
		c-0.2,0-0.9-0.3-1.5-0.6c-1.1-0.6-2.3-0.5-2.3,0.2c0,0.2,0.7,0.9,1.5,1.5c1.4,1.1,1.7,1.1,3.4,0.7l1.9-0.5v-3.3
		c0-1.8-0.3-4.4-0.6-5.9c-0.5-1.8-0.5-3.2-0.2-4.6c0.4-1.8,0.2-2.6-1.2-6.8c-0.9-2.6-1.8-5.1-1.9-5.6c-0.1-0.5,0.3-1.6,1-2.6
		c1.2-1.8,1.2-1.9,0.5-4.3c-0.4-1.3-0.8-3.4-1-4.6c-0.2-1.5-0.6-2.5-1.4-3.2c-0.6-0.5-1.1-1.2-1.1-1.5c0-1.1,1-1.2,2-0.2
		c0.8,0.7,1.1,0.8,1.6,0.4c0.8-0.8,0.7-1.6-0.5-3.1c-0.9-1.3-1.2-1.4-4.1-1.4c-2.6,0-3.9-0.3-6.9-1.6c-2.1-0.9-4.2-1.5-4.7-1.4
		c-0.8,0.2-1,0-1.2-1.3c-0.1-0.8-0.4-2-0.5-2.5c-0.3-0.9-0.1-1.1,1-1.5c1.5-0.6,2-1.2,2-2.6c0-1.6-0.8-1.7-2.3-0.4
		c-0.7,0.6-2.1,1.4-3.2,1.6c-1.5,0.4-2.1,0.3-4.2-0.6c-2-0.9-2.5-1.4-3-2.7c-0.7-1.9-0.8-1.9-2.2-1.1l-1.1,0.6l1.1,1.6
		c0.6,0.9,1.1,1.9,1.1,2.1s-1.1,1.1-2.3,2.1c-1.6,1.2-2.8,1.7-3.8,1.7c-1.2,0-1.8,0.4-3.2,2.1c-1.6,2-1.7,2-4.8,2.1
		c-2.8,0.1-3.1,0.2-3.2,1.1c-0.1,0.6-0.3,1.1-0.4,1.1c-0.3,0-7.4-4.3-8.4-5.1c-0.4-0.3-1.4-1.9-2.3-3.5L198,9.9l-1.5,1.8
		c-1.2,1.5-1.4,2-1,2.7c0.6,1.2,2.7,2.8,3.7,2.8c1.1,0,4.8,3,7.6,6.2l2.3,2.7l-1.3,3.2L207.5,30.3z"/>
	<path fill="#E10011" d="M207.8,90.4l-13.2,4.1c0.9,0.4,1.7,0.8,2.1,1c1,0.5,2.5,1.1,3.2,1.6c1.8,1,6,1.3,7.5,0.5
		c0.6-0.4,1.6-1.3,2.1-2.1c1.3-2.1,3.9-3.5,5.5-2.9c1.4,0.5,4,0.6,4.5,0.1c0.2-0.1-0.1-0.7-0.6-1.3c-0.5-0.5-1.1-1.6-1.2-2.4
		c-0.3-1.5-0.3-1.5,1.2-1.1c0.9,0.1,1.8,0.6,2.1,1c0.9,1.1,3.4-0.8,5-3.8c0.7-1.2,0.7-1.4-0.2-3c-0.5-1-1-2.1-1-2.5
		c0-1-0.3-0.9-1.7,0.2c-1.1,0.8-1.2,0.9-2.6,0.1c-0.8-0.4-1.5-0.8-1.6-0.8c-0.1-0.1,0.3-1,0.8-2c1.1-2.1,0.9-2.8-0.6-2.8
		c-0.7,0-1.2,0.3-1.3,0.9c-0.3,1.3-2.3,1.2-3.4-0.2c-1.1-1.4-1.4-1.4-2.8-0.2c-1.3,1.1-1.8,1.1-1.8,0.3c0-0.3-0.6-1.1-1.5-1.8
		l-1.5-1.2l1.1-4.4c1.1-4.6,1.1-4.5-0.3-12.5c-0.4-2-2.6-3.9-5.9-5.1c-3.2-1.2-3.1-1.2-4.2,0c-0.5,0.5-3.7,2.3-7,4
		c-3.4,1.6-6.7,3.3-7.3,3.7c-0.6,0.4-2.6,1.3-4.3,1.8c-3.6,1.2-9.6,1.4-14.4,0.4c-2.6-0.5-2.7-0.6-2.8-2c-0.1-1.1-0.4-1.5-1.2-1.6
		c-1.2-0.2-2.1-2-1.8-3.7c0.2-0.8-0.1-1.2-1.9-1.9c-1.1-0.5-2.9-0.9-4-0.9c-1.8,0-2.1,0.2-4,2.2c-1.1,1.2-2.8,2.7-3.9,3.2
		c-1.4,0.7-2,1.4-2.2,2.4c-0.4,1.9-0.8,2-3.3,1.2c-3.2-1.1-9.6-1.8-12.5-1.5c-1.4,0.2-3.9,0.7-5.5,1.1c-2.1,0.6-3,0.7-5.1,0.5
		l-2,0.6L207.8,90.4z"/>
	<path fill="#E10011" d="M174.6,473.6c0-0.3-0.4-2.1-0.9-4.3c-1.1-4.4-1.3-5.8,0-8.2l-5.2,1.6C169.4,465.1,174.5,474.3,174.6,473.6z
		"/>
	<path fill="#FFFFFF" d="M160.7,440.7l3.1,7.7c2.7,6.8,3.3,8.8,4.6,14c0,0.1,0.1,0.2,0.1,0.4l5.2-1.6c0.6-1,1.4-2.2,2.6-3.8
		c1.9-2.7,6.5-7.9,10.2-11.7c0.5-0.5,1.1-1.1,1.7-1.8l-27.7-9L160.7,440.7z"/>
	<path fill="#FFFFFF" d="M114.3,299.9l93.5-29.5l-93.5-30.5l93.5-29.5l-93.5-30.5l93.5-29.5l-93.5-30.5l61.6-19.4
		c0.2-0.2,0.4-0.5,0.7-0.7c0.8-0.6,1.3-4.3,0.7-4.3c-0.3,0-1.1,0.3-1.8,0.7c-1.6,0.8-1.6,0.6-0.8-2.1l0.5-1.8l2.7,0.3
		c2.4,0.3,3.2,0.1,5.4-0.9l2.7-1.1l4.4,2.1c1.4,0.7,2.9,1.4,4.2,2l13.2-4.1l-93.5-30.5l2-0.6c-0.6-0.1-1.3-0.1-2.2-0.3
		c-4.2-0.6-4.5-0.5-11.4,0.8c-3.9,0.7-7.8,1.6-8.7,1.9c-2.2,0.7-5.7,4-5.6,5.2c0.1,0.5-0.4,1.4-1.1,2.1c-0.6,0.6-1.1,1.3-1.1,1.6
		c0,0.2-0.5,1.1-1.2,1.7c-1,1-1.6,1.3-3.2,1.3c-3.3,0-4.1,0.5-4.9,3.3c-0.5,1.6-0.6,3.3-0.4,5.1c0.2,2.2,0.5,2.8,1.6,3.6
		c0.7,0.5,1.6,1.5,2,2.2c0.4,0.7,1.2,1.6,2,1.8l1.3,0.5l0.3,5.5c0.6,10.3,0.5,12.1-0.9,14.4c-0.7,1.2-1.8,2.8-2.6,3.7
		c-1.3,1.6-1.3,1.7-1.1,5.1c0.2,3,0.1,3.7-0.6,4.9c-1.1,2-0.9,3.4,2.1,13.3c1.4,4.3,2.5,8.5,2.5,9.3c0,1.1-0.3,1.5-2.8,2.7
		c-2.4,1.2-2.7,1.5-2.5,2.4c0.1,0.5,0.3,1.4,0.3,1.8c0,0.8,0.1,0.8,1.6-0.1c2.2-1.4,4.4-1.3,5.9,0.3c0.9,1,1.2,1.9,1.4,4.2
		c0.2,2.5,0.5,3.3,2.1,5.6c1.1,1.6,1.9,3.2,1.9,4c0,1.6,0.6,2.7,1.3,2.2c0.3-0.2,0.5,0,0.5,0.6c0,0.5-0.2,1.1-0.5,1.2
		c-1,0.6-0.4,1.5,1.4,2.2l1.8,0.7l-0.3,2.5l-0.3,2.5l1.9,0.3c1.8,0.3,1.9,0.4,1.9,2.1c0,1.9,0.8,2.7,2.9,2.7c1.1,0,1.2,0.2,1.2,1.8
		c0,1.2,0.4,2.4,1.1,3.2c0.8,1.1,1,1.9,0.9,4.2c0,1.6,0.2,3.3,0.6,4c0.3,0.7,0.6,2.4,0.7,3.7c0,1.3,0,3.8,0,5.6c0,1.7-0.2,4.9-0.5,7
		c-0.6,4.3-0.3,6.7,1.5,9.6c0.8,1.3,0.9,2.1,0.6,5.2c-0.3,3.2-0.1,4.1,0.8,6.8c0.6,1.7,1.1,3.7,1.1,4.5c0,2.2-1.8,6.5-3.4,8.3
		c-2,2.1-4.2,5.8-5.1,8.2c-1.5,4.3-3.2,7.8-3.7,7.8c-1.2,0-1.1,0.9,0.2,1.6c1.1,0.6,1.3,1.1,1.2,2c-1.3,8.6-0.9,7.7-7.9,17.6
		c-4.5,6.3-5,7.2-5.2,9.4c-0.3,2.7-1.4,4.1-2.6,3.2c-0.5-0.4-0.7-0.3-1.1,0.2c-0.3,0.5-0.1,0.8,0.5,1.1c0.7,0.3,0.9,0.9,0.9,2.5
		c0,1.1,0.3,3.8,0.7,6c0.9,5,0.9,5-0.3,5c-1,0-1,0,0.2,1.1c0.9,0.7,1.2,1.5,1.2,2.4c0,0.8,0.9,3.4,2,5.8c1.1,2.3,2.4,5.5,2.8,6.9
		c0.6,2.1,1.5,3.4,4.9,7.3c4.8,5.4,7.9,7.8,10.8,8.4c1.9,0.4,2.3,0.7,5,4.3c1.6,2.1,3.8,4.6,4.8,5.5c0.9,0.7,2.2,2.2,3.8,4.1
		l88.2-27.8L114.3,299.9z"/>
	<polygon fill="#FFFFFF" points="207.5,30.3 207.4,30.5 207.8,30.4 	"/>
	<path fill="#FFFFFF" d="M123.1,362.8c2.2,2.9,4.5,6.2,6.5,9.2c4.8,7.3,4.3,6.7,4.8,5.9c0.2-0.4,0.2-1,0-1.5c-0.3-0.5-1.1-2.5-2-4.4
		c-1.8-4.1-1.6-5.1,0.5-4.2c1.7,0.7,3,3.7,5.2,11.8c1.4,5.2,1.7,5.9,8.9,18c1.9,3.3,4,6.9,5.8,10.2l55-17.4L123.1,362.8z"/>
</g>
</svg>
