<?xml version="1.0" encoding="utf-8"?>
<!-- Generator: Adobe Illustrator 17.1.0, SVG Export Plug-In . SVG Version: 6.00 Build 0)  -->
<!DOCTYPE svg PUBLIC "-//W3C//DTD SVG 1.1//EN" "http://www.w3.org/Graphics/SVG/1.1/DTD/svg11.dtd">
<svg version="1.1" id="flag-icon-css-bm" xmlns="http://www.w3.org/2000/svg" xmlns:xlink="http://www.w3.org/1999/xlink" x="0px"
	 y="0px" viewBox="0 0 640 480" enable-background="new 0 0 640 480" xml:space="preserve">
<g>
	<path fill="#CF142B" d="M90.4,265.3c-2-0.2-2.4,0.1-6.2,5c-7.5,9.6-8.3,11.1-8.1,14.7c0.2,3.2,0.2,3.2,2.4,3.2
		c1.8,0,2.4-0.4,3.4-2.2c1.2-1.9,1.6-2.2,3.8-2.2c4,0,5.6-1.1,6.8-4.7c1.1-3.1,1.4-9.2,0.6-12.1C92.7,265.8,92.2,265.4,90.4,265.3z"
		/>
	<path fill="#CF142B" d="M105.8,267c1.1-0.4,2.5-1.4,3-2.2c0.9-1.2,1.5-1.5,4.1-1.5h3.1v-3.9c0-2.1,0.3-5.5,0.6-7.6
		c0.6-3.6,0.7-3.8,6.6-9.6c3.2-3.2,6.5-7,7.2-8.4c0.7-1.4,2.4-4,3.8-5.9c1.9-2.6,2.7-4.3,3.3-7.8c1-5,1.1-6,0.4-5.9
		c-0.3,0.1-2.2,0.4-4.3,0.7c-3.7,0.6-3.9,0.7-4.4,2.5c-0.4,1.6-1.3,2.4-4.5,4.2c-3.9,2.2-4,2.2-4.1,5c-0.1,1.6-0.3,4-0.6,5.4
		l-0.3,2.7h-2.9l-2.9,0.1l-6.6,8.8c-3.6,4.8-7.9,11.2-9.5,14.2l-2.9,5.3l2,1.2C101.1,266.9,103.6,267.7,105.8,267z"/>
	<path fill="#CF142B" d="M142.7,382.2c1.2-0.1,1.6-0.7,2-3.2c0.7-3.5,0.2-4.7-2.5-5.8c-1.8-0.7-2-0.6-2.9,0.7
		C137,377.4,139.2,382.7,142.7,382.2z"/>
	<path fill="#CF142B" d="M150.8,331.7l-1.4,0.7l1.5,1.4c1.1,1.1,1.7,2.6,2.3,6l0.8,4.6l2-0.9c1.2-0.5,3.3-1.7,4.9-2.8
		c2.2-1.6,2.8-2.3,2.8-3.7c0-2.7-2.5-4.2-9.9-5.8C152.9,331.1,151.6,331.3,150.8,331.7z"/>
	<path fill="#CF142B" d="M167,349.5c1.7,0,3.5-2.4,3.5-4.7c0-1.4-1.6-5.4-2-5.2c-0.1,0-1.1,0.5-2.1,1c-1.9,0.9-2,1.3-2,3.7
		C164.3,347.8,165.2,349.5,167,349.5z"/>
	<path fill="#CF142B" d="M233,350.5c1.4-3.7,1-4.5-2.9-6.8c-4.3-2.6-4.6-2.7-5.8-0.9c-0.7,1.2-1,1.2-2.2,0.5
		c-1.2-0.7-1.6-0.7-3.5,0.3c-1.2,0.7-2.1,1.4-2,1.7c0.5,1.4,7.7,8.8,8.9,9.3C227.8,355.3,232.2,353,233,350.5z"/>
	<path fill="#CF142B" d="M534,55.5c0.9-0.4,2-1.4,2.5-2.4c0.8-1.4,2.2-2,6.5-3.4c4.1-1.3,5.9-2.2,7.1-3.7c0.9-1.1,3-2.4,4.7-3
		c3.7-1.4,3.9-1.4,3.9,0.1c0,0.9,0.6,1.3,1.9,1.6c1.6,0.4,2.2,0.1,4-1.6c1.2-1.2,2.1-2.7,2.1-3.5c0-2,2.8-1.9,7.3,0.4
		c1.9,0.9,4.7,1.9,6,2.2c1.5,0.3,3.3,1.2,4.5,2.4l2,1.9l5.5-1.1c3-0.6,5.5-1.2,5.6-1.3c0.1-0.1-0.3-1.3-0.9-2.7
		c-0.6-1.6-2.4-3.7-4.7-5.7c-2.5-2.2-3.7-3.6-3.7-4.7c0-1.1-0.9-2.2-3.6-4.2c-12-8.8-14.2-10.9-14.8-13.5c-0.5-2.3-0.9-2.7-3-3.7
		c-2.1-0.9-2.9-0.9-5.6-0.2c-1.7,0.4-4,0.8-5.1,0.8c-1.4,0.1-2.4,0.6-3.4,1.9c-0.8,1-2.6,2.4-4,3c-3.4,1.7-8.9,7.9-11.7,13
		c-2.4,4.5-5.4,6.9-12.8,10.3c-2,0.9-4.8,3-6.8,5c-2,2.1-5.1,4.4-7.8,5.7c-2.4,1.2-6.1,3.9-8.4,5.9c-2.2,2-5.7,4.6-7.8,5.6
		c-2.6,1.3-5.1,3.4-8.4,6.9c-4.3,4.6-5.3,5.3-10.9,7.7l-6.1,2.7l-3.1,4.7c-1.7,2.7-4.5,6.6-6.3,8.7c-2.1,2.5-3.9,5.7-5.1,8.9
		c-2.8,7.3-2.9,8.1-1,11.5c0.9,1.6,1.6,3,1.6,3s-1.1,0.3-2.4,0.6c-2,0.3-2.9,0.9-5.4,4.3c-6.4,8.6-8.3,11.5-8.3,12.9
		c0,1.1-1.2,2.5-4.5,5.3c-6.6,5.5-11.6,8.2-18.1,9.9c-0.7,0.2-1.5,0.4-2.4,0.6h67.9c0.7-1,0.6-2.2-0.2-4.9c-0.5-1.7-1.6-3.1-3.4-4.5
		c-2.2-1.6-2.6-2.3-2.7-4c0-1.1-0.9-4.1-2.1-6.6c-1.9-4.2-2.3-4.6-4.5-5.2c-1.3-0.4-3.3-0.7-4.6-0.7c-2.3,0-4-1.3-5.5-4.2
		c-0.9-1.8-0.1-3.5,3.4-6.6c2.2-2,2.8-2.9,2.9-5l0.1-2.4l-4.2-0.7l-4.1-0.6l0.9-1.7c1.1-2,0.7-1.9,3.8-0.8l2.5,0.9l2.8-2.9
		c1.5-1.6,3.8-4.2,5-5.8c1.6-2,2.9-3,4.3-3.3c1.1-0.2,3-1.3,4.2-2.5c1.9-1.7,2.9-2.2,7.1-2.9c4-0.6,6.3-1.5,13-5
		c4.5-2.3,10-4.8,12.2-5.5c3-0.9,4.3-1.7,4.8-2.8c1-2.2,3.2-2.4,7.3-0.7c4,1.8,4.1,1.7,6.3-3l1.1-2.4l-2.1-2.2l-2.1-2.2l2.5-2.1
		C531.3,57.1,533.1,55.9,534,55.5z"/>
	<path fill="#CF142B" d="M405.9,150.8c-4.8,2-5.1,2.5-5.2,8.7c-0.1,2.7-0.6,4.2-2.5,7.4c-1.3,2.3-3.3,6.2-4.3,8.7s-3,6.1-4.4,7.9
		c-1.9,2.4-2.5,4-2.9,6.3l-0.4,3.2l2.4,0.6c1.4,0.4,3.3,0.8,4.4,1.1l2,0.4l-4.7,6.5c-4.7,6.4-4.7,6.5-5,11.1l-0.4,4.7l2.6-0.9
		c1.4-0.5,3.4-1.5,4.4-2.2c0.9-0.7,4.1-2.4,7-3.7l5.3-2.4l3-5.2c0.6-1,1.2-2.2,1.8-3.4v-49.9C407.8,150.1,406.7,150.5,405.9,150.8z"
		/>
	<path fill="#CF142B" d="M204.3,332.7c-0.7,0-0.9,0.8-0.9,3.2v3.2l-3.2-0.4c-4-0.6-3.6-0.6-5.3,0c-1.2,0.4-1.4,0.9-1.4,3.2
		c0,2.5,0.1,2.7,1.5,2.7c1.2,0,1.6,0.4,1.9,2.7c0.4,2.3,0.7,2.9,2.5,3.7c2,0.9,2.1,0.9,3.8-0.9l1.7-1.8l1.6,1.6
		c1.1,1,2.4,1.6,3.6,1.6c1.7,0,2-0.2,2.5-2.4c0.4-1.2,0.7-2.6,0.7-3c0-0.8-3.6-4.2-5.5-5.2l-1.6-0.8l1.4-1.1
		C210.2,336.8,208,332.7,204.3,332.7z"/>
	<path fill="#CF142B" d="M179.4,344c-2.5-0.6-2.7-0.5-5.6,2c-2.7,2.4-2.9,2.7-2,3.7c1.6,2,4.7,2.9,8.4,2.4l3.4-0.4l-0.4-3.2
		c-0.2-1.7-0.6-3.3-0.9-3.6C182.2,344.8,180.8,344.3,179.4,344z"/>
	<path fill="#CF142B" d="M188.7,330.9c-1.1,0.2-2.4,0.7-2.8,1.1c-1.1,0.9-7.5,2-11.7,2c-3,0-3.7,0.2-5.2,1.8l-1.7,1.8l2.1,1.3
		c1.2,0.7,3.1,1.3,4.3,1.3c1.1,0,3.5,0.4,5.1,0.8c2.5,0.6,3.5,0.6,5.3,0c1.2-0.4,2.7-0.7,3.4-0.8c0.7-0.1,2.4-1.4,3.8-3
		c2.1-2.5,2.5-3.3,2.2-5C193.3,330.1,192.7,329.9,188.7,330.9z"/>
	<path fill="#CF142B" d="M576.9,55.9c3-0.8,3-2.5-0.2-2.8c-1.2-0.1-2.4-0.5-2.7-0.8c-0.6-0.6-3.5-0.8-3.5-0.2c0,0.1,0.3,0.9,0.7,1.8
		C572.2,56,574.1,56.7,576.9,55.9z"/>
	<path fill="#CF142B" d="M557.8,180.4c1.8-0.3,3.2-1.2,5.3-3.5c2.7-2.9,3.1-3,6.6-3.4c3.4-0.3,9-2.7,9-3.8c0-0.2-1.1-1.1-2.5-1.9
		c-2.4-1.4-2.7-1.4-7.9-0.8c-7.7,1-10.4,1.9-14.3,5.2v9.2C555.5,181,557,180.6,557.8,180.4z"/>
	<path fill="#CF142B" d="M408.6,226.9l-5.7-1.1c-3.2-0.7-7.6-2-9.9-3c-3.2-1.3-5.1-1.7-8.2-1.7c-4.3,0-4.8,0.4-2.9,2.1
		c1.1,1,1.1,1.2,0.2,4.2c-0.9,2.5-2,4-6.3,8c-2.9,2.7-6.6,5.6-8.4,6.4c-1.7,0.8-5,2.4-7.4,3.3c-2.4,1.1-5.6,3.2-7.4,5
		c-5.2,5-18.4,10.6-24.6,10.6c-2.6,0-3.5,0.3-5.2,1.9c-1.8,1.6-2.7,1.9-5.3,1.9c-2.4,0-3.7,0.4-5.2,1.5c-2.4,1.7-8.6,2.9-16.4,2.9
		c-3,0-8.5,0.6-12.2,1.2c-3.7,0.7-8.1,1.2-9.6,1.2s-5.2,0.9-8.1,1.9c-6.4,2.3-11.9,2.4-22.3,0.6c-3.9-0.7-8.7-1.2-10.8-1.2
		c-3.2,0-4.1-0.3-7.8-2.6c-2.4-1.4-4.7-3.4-5.3-4.3c-0.9-1.6-1.3-1.7-5-1.7c-3,0-4.7,0.4-6.6,1.4c-1.4,0.7-5.1,1.8-8.2,2.4l-5.6,0.9
		l0.2,2c0.2,1.7,0,2-1.6,2.2c-1.7,0.2-1.7,0.2-1.9,4.6c-0.1,3.7,0,4.5,1.1,5.5s1.6,1.1,3.2,0.4c2.8-1,2.9-0.9,3.7,1.6
		c0.6,1.9,0.6,2.8-0.4,5.6c-1.1,3.3-1.1,3.3,0.2,4.7l1.3,1.3l2.9-1.8c1.8-1.1,3.4-2.9,4.4-4.7c1.6-2.9,1.7-3,4.8-3
		c6.7-0.2,9.4,0.2,12.5,1.8c3.1,1.6,3.1,1.6,1.4,2.1c-1.2,0.4-2.8,0.2-5.8-0.7l-4.1-1.3l-3.5,1.4l-3.5,1.3l2.5,1.1
		c1.4,0.6,2.8,1.1,3.2,1.1c0.4,0.1,1.1,1.3,1.4,2.8s1.4,3.5,2.2,4.5l1.6,1.8l-1.8,1.1c-3.1,1.8-3.4,8.6-0.6,13
		c1.5,2.2,1.6,2.3,5.6,2.3h4.1l3.3-3.8l3.2-3.7l3.5,3.3c5,4.8,6.5,5.6,8.9,4.8c2.8-1,2.9-0.9,3.1,1.6c0.2,3.2,2,3.7,12.9,2.9
		c8.6-0.6,8.7-0.6,10.7-2.6c2-2,2-2,8.5-2c5.6,0,6.7-0.2,8.9-1.5c1.4-0.8,4-1.6,5.6-1.9c1.7-0.2,3.8-0.6,4.8-0.7
		c1.6-0.3,1.7-0.2,1.7,2.4v2.8l-2.7,0.4c-1.9,0.3-3.8,1.3-6.8,3.7c-2.3,1.9-5.6,4.2-7.3,5.3c-2.9,1.9-3.1,2.2-3.1,4.5
		c0,1.9-0.4,2.8-2,4.3c-1.7,1.6-2.5,1.8-5.4,1.8c-1.9,0-5.3,0.6-7.6,1.4l-4.2,1.4l-1.1-1.4c-1.6-2.2-6.9-4.4-10-4l-2.5,0.4v3.2
		c0.1,1.7,0.4,3.8,0.9,4.7s0.9,1.7,0.9,1.9c0,0.2-1.4,0.9-3.2,1.6c-1.9,0.7-4.6,2.4-6.6,4.3c-1.9,1.7-4.5,3.5-6,4.1
		c-2,0.8-2.6,1.4-2.9,3c-0.6,2.5-0.7,2.7-4.9,4.4c-1.9,0.7-4.4,2.3-5.6,3.3c-1.2,1.1-5,3.2-8.4,4.7c-3.4,1.4-7.2,3.2-8.4,4
		c-1.2,0.8-4.3,2-6.8,2.8c-6.3,1.9-16.5,7.5-19.1,10.6l-2.1,2.4h-5.9c-5.1,0-6.4,0.2-10.5,1.9c-2.6,1.1-6,2.3-7.6,2.7
		c-3.4,0.9-3.7,1.5-3.8,9.9l-0.1,5.4l2.5,2.3l2.5,2.3l-3.3,1.7c-1.8,0.9-4.4,2.9-5.8,4.2c-2.4,2.4-2.5,2.5-6.3,2.5
		c-2.2,0-3.9,0.2-3.9,0.5c0,0.2,0.2,1.4,0.6,2.6c0.6,2,0.5,2.3-1.9,4.7c-2.4,2.4-2.8,2.6-6.9,3c-2.5,0.2-7.5,1.1-11.2,2
		c-7.9,1.7-15.3,1.9-19.9,0.5c-2.9-0.9-3.5-0.9-7.3-0.1l-4.2,0.9l-1.1-2.5l-1.2-2.6l1.9-0.6c1.1-0.3,2-0.6,2-0.7
		c0.1-0.1-0.2-1.6-0.7-3.3c-0.9-2.7-1.2-3.2-3.2-3.9c-2.2-0.7-2.3-0.7-4.5,1.9l-2.2,2.6l-2-1c-1.1-0.6-2.4-1.7-2.9-2.5
		c-0.6-0.8-1.7-1.7-2.5-1.9c-1.7-0.5-1.8-0.7-0.5-5.2c0.7-2.5,0.9-4.6,0.6-7.8c-0.2-2.4-0.7-7.3-0.9-10.9c-0.3-3.6-0.9-7.4-1.3-8.6
		c-0.4-1.1-0.7-2.2-0.5-2.3c0.1-0.1,4.1,0.1,8.9,0.4c6.7,0.5,9.9,1.1,14,2.4c8.5,2.9,9.6,2.9,15,0.4c2.5-1.2,6-2.4,7.6-2.5l2.9-0.4
		l-0.4-3.2c-0.6-5-0.2-4.7-6.9-4.7c-3.3,0-8.1-0.4-10.4-0.8c-4.3-0.8-4.5-0.8-6.5,0.6c-1.6,1.1-3.3,1.5-7.1,1.8
		c-5,0.4-5.1,0.3-12-2.4c-5.7-2.4-7.7-2.9-10.9-2.9c-2.4,0-5.1-0.5-7-1.2c-1.7-0.7-4.7-1.7-6.5-2.2c-2.7-0.7-4.3-1.8-7.8-5l-4.3-4
		l2.6-0.1c1.7,0,4.3-0.9,7.8-2.5c2.9-1.4,5.8-2.9,6.7-3.3c1.3-0.6,1.6-1.2,1.7-3.8l0.2-3.1l-3.7-1.7c-3.5-1.7-3.7-1.9-2.9-3.1
		c1.9-3,5.3-13.1,5.7-16.8l0.4-3.9l5.5-1.4l5.6-1.4l1.5-3c0.8-1.6,1.5-3.7,1.5-4.7c0-0.9,0.2-2,0.5-2.4c0.6-0.8,7.1-2.4,10.2-2.4
		c3.3-0.1,3.8-0.9,2.7-3.9c-0.9-2.2-1.3-2.5-4-3.2c-2.8-0.7-3.1-1-3.5-3c-0.3-1.4-0.1-3.1,0.5-4.8c0.9-2.5,0.9-2.7-0.9-7.1
		c-2.7-6.3-3.2-6.6-10-4.7c-3.1,0.9-5.6,1.6-5.7,1.6c-0.1,0-0.2-1.2-0.2-2.7c0-2-0.5-3.3-1.9-5.3l-1.9-2.6l2.2-1.1
		c1.9-0.9,2.2-1.4,2.2-3.1c0-2-0.1-2-2.9-2c-1.7,0-3.7,0.5-4.8,1.2c-1.1,0.6-3,1.5-4.4,1.9s-2.7,1-3,1.2c-0.2,0.2,0.1,1.7,0.8,3.3
		c0.7,1.6,1.2,3.3,1.2,3.8s-1.2,2.2-2.6,3.7l-2.6,2.8l-5.3-0.2c-2.9-0.1-7.3-0.6-9.6-1c-3.3-0.6-4.9-0.6-7.3-0.1
		c-3,0.7-3.1,0.8-2.7,2.7c0.2,1.1,1.6,3.2,3.1,4.7c4,4.3,4.7,5.5,4.7,9.1c0,3,0.2,3.3,2.7,5.6c1.4,1.3,3.3,2.9,4.2,3.5
		c1.5,1,1.6,1.4,1.7,8.2c0.2,5.6,0.1,7.6-0.8,9.9l-1.1,2.9l1.9,2c1.8,1.9,2,2.4,2,6c0,3.5-0.2,4.3-2.4,7.7c-1.9,3-2.5,4.5-2.7,7.4
		c-0.3,3.6-0.3,3.7,1.8,4.7c2.7,1.2,2.6,1.9-0.2,2.3c-1.3,0.2-3.2,0.6-4.2,0.7c-1.7,0.3-1.7,0.2-1.5-1.6c0.2-1.6-0.1-2.3-1.7-3.8
		c-1.7-1.7-2.2-1.8-3.3-1.2c-1.8,1-2.5,0.2-2.9-3.3c-0.3-2.5-0.2-2.9,1.6-4.2c1.9-1.4,2.7-3.7,1.2-3.7c-0.4,0-2.5,0.5-4.7,1.1
		c-3.6,1-4.2,1.4-6.2,4.1l-2.2,3l1.3,3.5c0.7,1.9,1.6,4.9,1.9,6.6c0.4,1.7,1.7,4.8,3.1,7.1c1.3,2.2,2.8,5.5,3.3,7.2
		c0.5,1.7,1.7,4.8,2.8,7c1.5,3.2,1.9,5,2.3,10.3c0.3,5.2,0.7,6.7,1.6,7.6c0.6,0.6,1.6,2.6,2.1,4.5c1.8,6.5,4.8,14,7.1,17.6
		c1.7,2.7,5.8,6.6,17.1,16.3c18.2,15.6,18.5,15.8,34.2,18.6l11.3,2l7.3-4l7.3-4l4,1.9c3.5,1.6,5.4,1.9,12.5,2.5
		c4.6,0.4,9.9,1.1,11.8,1.5c4.4,1.1,10.4,0.4,11.5-1.2c0.5-0.6,0.9-1.9,0.9-2.7c0-1.3,0.3-0.9,1.5,1.7c1.5,3.2,1.6,3.3,3.8,3.1
		c2-0.2,2.5-0.6,3.7-2.7c2-3.7,5.8-5.4,14.6-6.8l7.3-1.1l1.7-2.7c1.7-2.6,1.7-2.7,5.2-2.7c3.4,0,3.5-0.1,6.2-3
		c1.5-1.7,4.4-4,6.5-5.3c2.2-1.3,4.3-3,5-4.3c1-1.6,3.5-3.2,12-7.8c9.1-4.9,20.5-12.5,26.9-18c0.7-0.6,4.2-2.1,7.8-3.4
		c3.6-1.3,8.1-3.2,9.9-4.1c1.9-0.9,5.5-2.3,8.1-3c6-1.7,13.6-5.6,18-9.1c1.9-1.4,5.5-3.6,8.2-4.8c2.6-1.2,5-2.7,5.4-3.4
		c1.2-2.3,7.1-8.6,10.4-11.2c2.6-2,4.2-4.2,8.1-11.1c2.7-4.7,5.8-9.6,7-10.9c2.7-2.8,10.4-8.7,14.5-11.2c2.5-1.5,3-2.1,3.3-4.2
		c0.2-1.4,0.7-2.4,1.2-2.4s1.4-1.2,2.2-2.6c1.7-3.4,3.5-4.8,6.1-4.8c2.2,0,4.5-2,9.2-8.2c1.6-2.1,2.7-2.9,3.8-2.9
		c0.9,0,2.8-0.9,4.3-1.9c1.6-1,4.7-2.9,6.9-4c3.7-1.9,4.2-2.4,4.8-4.7c0.6-2.2,0.9-2.5,3.4-3.2c1.5-0.4,3.2-1.2,3.7-1.8
		c1-1.1,1-1.3-0.2-3c-0.7-1-1.7-2.2-2.3-2.6c-1.4-1.2-1.2-1.6,1.6-2.7c3.2-1.2,3.8-1.2,3.3,0c-0.4,0.9,2.5,3.9,3.8,4
		c0.2,0,1.6-0.9,2.9-1.9c2.1-1.6,2.4-2.2,2.4-4.4c0-2.2,0.4-2.8,3.8-6.1c2-1.9,3.2-2.9,4.5-3.5v-49.1L408.6,226.9z"/>
	<path fill="#CF142B" d="M636.5,73.7c-2-1.3-3.3-4.3-3.4-7.4c0-2.3-0.1-2.3-0.9-1.1l-0.9,1.4l-3.7-1.2c-3.7-1.2-5.5-1.3-8.6-0.7
		c-2.4,0.4-4.3,2.6-4.3,4.8c0,1.3-0.6,2.5-1.6,3.4c-0.9,0.8-1.6,2.1-1.6,3c0,1.4,0.1,1.5,3.7,1.2c3.5-0.2,3.7-0.1,3.7,1.2
		c0,2.5-4.9,3.2-11.5,1.6c-1.1-0.2-1.7,0.2-3,2.5c-1.3,2.2-2,2.8-2.7,2.5c-0.6-0.2-2.5-0.7-4.4-0.9c-4-0.7-4.3-0.9-2.6-1.9
		c1-0.5,1.3-1.2,1.3-3c0-3.1-1.7-4.5-7.1-6c-4.6-1.2-6-1.3-11.5-0.6c-3.2,0.4-3.6,0.3-3.9-0.8c-0.8-2.4-7.7-2.7-11-0.4
		c-2.2,1.5-2.4,1.5-4.7,0.7c-1.3-0.5-3.9-1.1-5.8-1.2c-1.9-0.2-4.4-0.9-5.6-1.6c-1.5-0.9-3.2-1.3-5.5-1.3c-4.8,0-5.3,0.5-3.7,3.3
		l1.3,2.2l-4.2,2.2l-4.3,2.1l-2-1.5c-1.9-1.5-2.1-1.6-6.6-0.9c-2.5,0.4-7.4,1.7-10.7,3c-3.3,1.4-8.3,3.2-11,4.1
		c-4.4,1.4-5.1,1.9-6.2,3.9c-0.7,1.4-2.8,3.3-5.3,5c-3.5,2.3-4.2,3.2-4.6,4.9c-0.2,1.2-0.2,2.4,0.1,2.8c0.2,0.4,0.6,2.8,0.8,5.4
		l0.4,4.7l4,1.4c2.2,0.7,5.3,1.6,6.9,1.8l2.9,0.4l3.7-4.8c6-7.8,7.3-8.8,17.2-12.1c4.8-1.6,10.4-3.1,12.4-3.3l3.8-0.4l1.7,2.7
		c1.7,2.5,1.7,2.7,1.5,9.8c-0.2,5.1-0.6,7.8-1.3,9.1c-0.9,1.7-0.9,3.2-0.6,9.2c0.4,6.9,0.5,7.4,2.2,9.3c1.3,1.6,2.4,2.1,4.7,2.4
		c1.6,0.2,3.4,0.6,4,0.7c1.5,0.4,3-2.7,3-6.5c0-1.7,0.3-4.5,0.7-6.2c0.4-2.2,0.4-4.7,0-8.6c-0.5-3.9-0.5-6.5,0-9.4
		c0.7-3.7,0.9-4,2.9-4.9c2-0.8,2.7-0.8,9.1,0.7c5.6,1.4,7.7,2.2,11,4.4c2.2,1.6,6,3.3,8.2,4c4.2,1.2,4.6,1.4,10,6.1
		c4.3,3.6,8.6,10.6,9.5,15.3c0.5,2.8,1.1,4,2.4,5.1c2.2,1.9,3,1.8,4.2-0.4c0.6-1.1,1.3-1.7,1.6-1.6c0.2,0.2,0.6,1.7,0.8,3.4l0.4,3.2
		l2.5-2.2l2.6-2.2l1.9,3l1.9,3l2-1c1.9-0.9,2-1.1,1.6-3.5c-0.2-1.7-1.4-3.9-3.7-6.8c-1.8-2.4-3.3-4.8-3.3-5.3s0.4-2.4,0.9-4l0.9-2.9
		l-4.2-2.3c-4.3-2.3-4.3-2.3-4.7-5.5c-0.4-2.5-0.1-3.8,0.9-6.3l1.4-3.2h4.9c4.7,0,4.8,0.1,6,1.9c0.9,1.6,1.5,1.9,3.4,1.9
		c5.3,0,8.4-5.6,9-16.2l0.4-6l2-1.1c1.2-0.6,2.1-1.3,2.1-1.6C640,78.2,637.9,74.6,636.5,73.7z"/>
	<path fill="#CF142B" d="M578.6,65c1.4,4.8,3.6,5.7,14.4,6.3c4.5,0.2,10.1,0.6,12.3,0.7l4.1,0.4l0.8-2c0.7-1.7,0.7-2.1-0.4-3.5
		c-1.9-2.5-7.1-4.2-13.9-4.5c-5.1-0.2-6.1-0.4-7.9-1.8c-1.9-1.4-2.2-1.5-3.2-0.6c-1.4,1.2-2.5,1.2-4,0.1c-1.3-1-4.7-1.3-4.7-0.4
		c0,0.2,0.3,0.8,0.7,1.2C577.3,61.4,578,63.2,578.6,65z"/>
	<path fill="#CF142B" d="M613,58.5c0.4-2.2,0.2-2.7-1.3-4.4c-2.2-2.3-6.5-4.2-9.4-4.2c-2,0-2.2-0.1-1.8-1.5c0.3-1.2,0.1-1.6-1.6-2.2
		c-2.4-0.9-2.2-0.9-3.4,0.9c-0.6,0.9-1.2,3.1-1.3,5c-0.4,4.2,0.6,5.4,4.7,6.4c1.6,0.4,4.5,1.6,6.4,2.6c3.5,1.7,3.8,1.8,5.5,0.9
		C612.2,61.3,612.7,60.5,613,58.5z"/>
	<path fill="#FFFFFF" d="M409,149.7v49.9c2.3-5,4-11.5,5.2-19.3c0.6-3.4,1-4.4,3.8-7.6c1.7-2,3.7-3.8,4.2-4
		c0.6-0.1,5.8-0.7,11.6-1.3l10.5-1.1l3.4-3.7l3.4-3.7l8.7-0.4l8.7-0.4l1.9,0.9c0.4-0.9,2-0.2,2-0.2c2.1,1,3.3,1,3.3,1
		c-1.6-1.9-0.4-4.2-0.4-4.2c2.5,0.7,3.6,2,3.6,2c0.4-1.8,1.6-2.8,2.4-3.3c-0.5-0.5-1-1.2-1.3-2.2c-0.7-2-0.6-2.3,0.6-3.3
		c0.3-0.3,0.6-0.5,0.8-0.8h-67.9C412,148.7,410.4,149.2,409,149.7z"/>
	<path fill="#FFFFFF" d="M432.2,262.4c-1.1-1.1-1.5-3.3-1.5-3.3c-1.4,4.1,0.7,2.4,1.2,6.7c0.7-0.4,1.4-0.8,2-1.1
		C433.5,263.8,432.9,263,432.2,262.4z"/>
	<path fill="#FFFFFF" d="M426.7,259.9c-1.1,2.1-0.8,5-0.8,5c0,1.6-0.4,2.8-1,3.7c1.2-0.3,2.6-0.8,3.9-1.3c-0.3-0.9-0.7-1.5-0.7-1.5
		C425.8,262.2,426.5,260.3,426.7,259.9z"/>
	<path fill="#FFFFFF" d="M423,264.1c-1.8-4.3,0.3-5.9,0.3-5.9c-4.3,0.6-5.1-3.2-5.1-3.2c2.4,2.7,5-0.3,5-0.3
		c2.1-2.5,3.1-2.3,3.1-2.3c0.5-1.4-0.4-4.3-0.4-4.3c-0.5-4.1,1-5.4,1-5.4c2.2-2.3,5.3-4.3,5.3-4.3c3.3-1.9,6.3,0,6.3,0
		c1.6-1.4,4.3-0.9,5.8-0.4c-0.4-1.6-1-3-1.5-4.1c-2.6-0.6-4.3-1.4-6.3-3.4c-0.3,0.3-1.7,1.5-3.7,0.3c0,0-1.1-0.6-1.1-2.1
		c0,0-0.1,0.1-0.1,0.1s-0.2-1.6,0.2-3.5l-1.1-1.2h-7.1c-5.7,0-7.8,0.2-11,1.4l-3.6,1.2v49.1c0.7-0.4,1.4-0.6,2.3-0.8
		c1.9-0.4,4.3-1.6,6.3-3.1c1.8-1.3,3.6-2.3,5.5-2.8C424,266.2,423,264.1,423,264.1z"/>
	<path fill="#FFFFFF" d="M434.2,229c0,0-0.1-0.4,0.1-0.8c0,0,0,0,0,0C434.1,228.6,434.2,229,434.2,229z"/>
	<path fill="#FFFFFF" d="M493.8,159.6c1.3,1.8-1.9,3.8-1.9,3.8c3.7-0.7,4.1,0.6,4.1,0.6c1.4,2.8-2.1,6.4-2.1,6.4c5.3,4,6,1,6,1
		c1.1,4.5-3,3.9-3,3.9c-0.1,1.7,0.7,2.1,1.8,3.5c1.1,1.4,2.1-0.4,2.1-0.4c0.5-1.1-0.6-2.6-0.6-2.6c4.5,1.8,3.2,5.4,3.2,5.4
		c-1.5,3.5-5,2.3-5,2.3c0,2,0.4,1.6,0,3.6c-0.4,1.8,1.5,1.1,1.6,0.1c0.2-1.1-0.6-2.4-0.6-2.4c1.2,0.8,2.2,1.8,3,3
		c0.7,1.2,1.4,2.6-2.6,4.9s-1,3.9-1,3.9c-0.1-0.7-0.1-1.3,0-2c0.7,0.4,2.2,0.7,2.7,3.4c0.5,2.8-2.2,3.8-2.2,3.8c1.2,0.8,2.3,2,2.3,2
		c0.8,0.9,1.4,0.3,1.4,0.3c1.4-1.2,0.4-3.9,0.4-3.9c3.2,2.1,1.9,4.7,1.9,4.7c0.8-0.5,1.7-0.8,3.6-0.5c4.2-2.7,9.3-5.6,13.2-7.6
		l4.6-2.4l2.7,1.6c1.6,0.9,3,1.4,3.5,1.1c2.3-1.4,6.7-5.5,7.1-6.6c0.2-0.7,1.6-2.5,3-3.9c2-2,3.7-2.9,7.5-4.2c1.1-0.3,2.3-0.7,3.4-1
		v-9.2c-0.2,0.1-0.3,0.3-0.5,0.4c-3.2,2.7-3.9,3.1-5.5,2.8c-1.1-0.2-2-0.1-2.3,0.3s-2.3,0.7-4.7,0.7c-4.1,0-4.3,0.1-6.4,2.2
		l-2.1,2.2l-3.4-0.7l-3.3-0.7l-0.9-3.5c-0.7-3-1.2-3.7-3.7-5.2c-2.4-1.5-3.2-1.7-4.6-1.1c-0.9,0.3-3.2,0.6-5.1,0.6
		c-3.3,0-3.5-0.1-7.2-3.5c-2-1.9-5.2-4.5-6.9-5.6l-3.3-2.1l-0.6,0.2C493.6,159.4,493.8,159.6,493.8,159.6z"/>
	<path fill="#D40000" d="M484.8,200.6c1.7-0.4,2.6-1.6,3.2-2.7c-1.3,0.5-2.2,0.9-3,1.5C485,200.3,484.8,200.6,484.8,200.6z"/>
	<path fill="#D40000" d="M493.3,198c0,0,2.4,0,2.6-2.8l-0.5,0.2c-0.3,0.2-0.7,0.4-1.1,0.4l-3.4,1.2
		C491.3,197.6,492.1,198.1,493.3,198z"/>
	<path fill="#D40000" d="M480.7,173.6c0.3,1.5,0.3,2.4,0.1,3.3c0.4-0.6,0.6-1.4,0.6-2.4C481.4,174.4,480.9,174,480.7,173.6z"/>
	<path fill="#D40000" d="M482.9,163.7c-1.7,1.3-3.2,0.3-3.2,0.3c-0.6-0.3-1.3-0.5-1.9-0.7l0.8,2.8c1.2,0.3,2.1,0.1,2.1,0.1
		c-0.4,0.6-1.2,0.6-1.9,0.5c0.1,0.2,0.1,0.4,0.2,0.5c0.2,0.2,0.3,0.4,0.3,0.4c-0.1,0-0.1,0-0.2,0c0.7,2.3,1.2,3.9,1.5,5.2
		c0.1-0.3,0.4-0.5,1.3-0.5h0.1c2.7,0,0.4,2.1,0.4,2.1c-0.1,3.4,2.6,4.4,4.4,3.4c1.9-1,0.4-3.4,0.4-3.4s2.1,1.3,0.7,3.3
		c-1,1.7-3.7,1.3-5.3,0c0.9,1.1-0.6,1-0.6,1s-2,0.2,0-1.6c0,0-0.1-0.1-0.1-0.1c-0.4,0.5-1,1-1.7,1.3c-0.2,0.4-0.6,0.9-0.9,1.5
		l-2.2,3.6l4.3,0.2c-0.8-0.1-2.2-0.6-2.2-2.2c0,0,1,1.3,2.8,1.3c0.8,0,1.8-0.1,2.7-1.3c0,0-0.1,2-2.4,2.3c4.4,0.2,6.7-0.3,11.8-2.2
		c1.1-0.4,2.7,5.2,2.7,9.5v3.8l-0.3,0.1c0,1.1-0.4,2.3-1.9,3.4c0,0-2.3,1.4-4.2-0.4c-0.2-0.2-0.3-0.4-0.5-0.8
		c-0.5,0.2-0.9,0.3-1.3,0.4c-0.6,3.1-5,3.8-4.7,3.7c0.1-0.1,0.4-0.7,0.5-1.4c-0.9,0.8-1.9,2-3.5,3.8c-0.8,0.9-1.4,1.6-2,2.2
		c1.9,0.3,4.7,0.4,7.8-0.7l3.1-1.2c3.5-1.9,7.4,0.2,7.4,0.2l6.4,3.6c1.4-1,3.3-2.2,5.3-3.5c-1.8-0.3-2.8,0-3.6,0.5
		c0,0,1.3-2.6-1.9-4.7c0,0,1,2.7-0.4,3.9c0,0-0.6,0.6-1.4-0.3c0,0-1.1-1.2-2.3-2c0,0,2.7-1,2.2-3.8c-0.5-2.7-2-3-2.7-3.4
		c-0.1,0.7-0.1,1.3,0,2c0,0-3-1.6,1-3.9s3.3-3.7,2.6-4.9c-0.8-1.2-1.8-2.2-3-3c0,0,0.8,1.3,0.6,2.4c-0.1,1-2,1.7-1.6-0.1
		c0.4-2,0-1.6,0-3.6c0,0,3.5,1.2,5-2.3c0,0,1.3-3.6-3.2-5.4c0,0,1.1,1.5,0.6,2.6c0,0-1,1.8-2.1,0.4c-1.1-1.4-1.9-1.8-1.8-3.5
		c0,0,4.1,0.6,3-3.9c0,0-0.7,3-6-1c0,0,3.5-3.6,2.1-6.4c0,0-0.4-1.3-4.1-0.6c0,0,3.2-2,1.9-3.8c0,0-0.2-0.2-0.6-0.3l-3.2,1.3
		c-2.2,0.9-4,1.6-4,1.6c0,0-0.1-0.2-0.3-0.6C484.4,162.8,482.9,163.7,482.9,163.7z M484.3,172.8c0.2-1.8-0.4-3.2-0.7-3.8
		c-0.1-0.1-0.1-0.1-0.1-0.2v-0.1c0,0,0.1,0.1,0.1,0.3C485,170.6,484.3,172.8,484.3,172.8z M483.9,167.6c0,0,0.6-1,2.2-1.5
		c0.1-0.1,0.2-0.1,0.3-0.1c0,0,0,0,0.1,0c0.7-0.2,1.5-0.2,2.4-0.1C488.9,165.9,487.9,168.9,483.9,167.6z M494.7,164.3L494.7,164.3
		c-1.7,1-2,2.2-2,2.2c0.8,0.6,0.8,1.4,0.8,1.4c-0.4-0.5-2-1.3-2-1.3C493.1,164.2,494.7,164.3,494.7,164.3z M490.6,170.6
		c0,0-1.5,1.1-2,2C488.6,172.6,488.8,170.8,490.6,170.6z M489.2,165.6c0,0-1.2-0.6-3.6,0.6c0,0-2.3,1.3-3.2,0c0,0,1.4,0.4,3.2-0.6
		C485.6,165.6,487.8,164.4,489.2,165.6z"/>
	<path fill="#D40000" d="M478.9,157.8c0,0-1.1-1.3-3.6-2c0,0-1.2,2.3,0.4,4.2c0,0-1.2,0-3.3-1c0,0-1.6-0.7-2,0.2l2.6,1.1l4.5,2
		l0.1,0.4c1.1,0,2.1,0.3,2.1,0.3c1,0.7,1.4,0.5,1.4,0.5c-0.5-0.6-0.9-1.3-1.2-2c0.4-1.7,2.5-2.4,2.5-2.4c-1.6,1.5-1.7,2.3-1.7,2.3
		c0.3,1.1,1.3,1.9,1.3,1.9c0.8-0.2,2.7-1.4,3.6-2c-0.2-0.6-0.6-1.6-1-2.6c-0.8-2.5-1.5-3.5-2.5-3.8c-0.3-0.1-0.5-0.2-0.8-0.4
		C480.5,155,479.3,156,478.9,157.8z"/>
	<path fill="#64B4D1" d="M431.5,228.8C431.5,228.8,431.5,228.8,431.5,228.8c0.1-0.3,0.1-0.5,0.1-0.7c0.1-0.7,0.5-1.3,0.9-1.8l-0.8-1
		C431.3,227.2,431.5,228.8,431.5,228.8z"/>
	<path fill="#64B4D1" d="M490.2,207.3c-1.4,1-1.2,2.3-1.2,2.7v0.3c0.5,1,1.3,0.7,1.3,0.7c0.7-0.1,0.7-0.8,0.7-0.8l0.1-0.1
		c-0.2-0.3-0.2,0-0.2,0c-0.2,1.5-2.5,0.9-1.7-1.1s2.8-1,2.8-1c2.3,1.1,0.8,3.7,0.8,3.7c-0.9,1.4-2.1,1.6-3.1,1.5l0.1,0.1
		c0,0-1.1,0.5-4.5-1.6c0,0-3.7-2.9-8.1,0c0,0-2.4,1.5-4.4,1.6c-0.9,0.1-2.2-0.1-3.1-1.5c0,0,0,0,0,0c-2.5,1-5.5,2-7.6,2.4l-4.8,1
		l-1.3,2.5c0,0,0.1-0.1,0.1-0.1c0,0,2.7-1.7,2.8,3.5l2.1-2c0,0,1.7-1.3,3.5,0.6c0,0,3,3,3.4,3.8c0,0,0.7,0.9,0.8,2.3
		c0,0,0,1.6,0.8,2.5c0,0,0.8,0.8,1.7,1c0.5-0.5,1.2-1,2-1.5c1.2-0.9,2.6-1.8,3.9-2.5l-0.8-3.1l-4,1.5l-0.2-0.5l4.1-1.6l-1.6-6.3
		l0.4-0.1l1.8,6.2l3.8-1.5l0.2,0.6l-3.8,1.4l0.9,3c0.7-0.3,1.3-0.6,1.7-0.7c2.2-0.6,2.9-1.2,3.8-3.3c1.5-3.2,5.7-6.1,11.5-8
		c1.9-0.6,4.3-1.8,5.9-2.9c-1.4-0.7-2.8-1.5-4.2-2.3C492.4,205.5,490.2,207.3,490.2,207.3z"/>
	<path fill="#64B4D1" d="M471.9,210.8C471.9,210.8,471.8,210.8,471.9,210.8c0,0.1,0.1,0.1,0.2,0.2C472,210.9,472,210.9,471.9,210.8z
		"/>
	<path fill="#D40000" d="M444.9,242.5c0-1.6-0.2-3.1-0.6-4.5c-1.5-0.5-4.2-1-5.8,0.4c0,0-3-1.9-6.3,0c0,0-3.1,2-5.3,4.3
		c0,0-1.5,1.3-1,5.4c0,0,0.9,2.9,0.4,4.3c0,0-1-0.2-3.1,2.3c0,0-2.6,3-5,0.3c0,0,0.8,3.8,5.1,3.2c0,0-2.1,1.6-0.3,5.9c0,0,1,2.1,0,5
		c0.4-0.1,0.8-0.3,1.2-0.3c0.2,0,0.5-0.1,0.7-0.2c0.6-0.9,1.1-2.1,1-3.7c0,0-0.4-2.9,0.8-5c-0.2,0.4-0.8,2.3,1.4,5.9
		c0,0,0.4,0.6,0.7,1.5c1.1-0.4,2.1-0.9,3.1-1.5c-0.4-4.4-2.6-2.6-1.2-6.7c0,0,0.4,2.2,1.5,3.3c0.7,0.6,1.3,1.4,1.7,2.3
		c0.5-0.3,0.9-0.6,1.2-0.8c-1.7-4.4-2.6-5.7-2.6-5.7C445.4,254.9,444.9,242.5,444.9,242.5z M436,249.4c-1.4-0.6-0.6-2-0.6-2
		c0.5-0.9,1.3-0.3,1.3-0.3c0.9,0.7,2.4,0.7,2.4,0.7c-0.5,0.3-1.7,0.5-2.3,0c-0.6-0.4-0.8,0-0.8,0c-0.5,0.4,1,1.4,1,1.4
		c1.4,1.7-2,3-2,3C437.9,250.4,436,249.4,436,249.4z"/>
	<path d="M437,249.2c0,0-1.5-1-1-1.4c0,0,0.2-0.4,0.8,0c0.6,0.5,1.8,0.3,2.3,0c0,0-1.5,0-2.4-0.7c0,0-0.8-0.6-1.3,0.3
		c0,0-0.8,1.4,0.6,2c0,0,1.9,1-1,2.8C435,252.2,438.4,250.9,437,249.2z"/>
	<polygon fill="#784421" points="475,215.2 474.6,215.3 476.2,221.6 476.8,221.4 	"/>
	<path fill="#784421" d="M476.3,222.2l0.8,3.1c0.2-0.1,0.5-0.2,0.7-0.4l-0.9-3L476.3,222.2z"/>
	<path fill="#F5CE00" d="M474.3,212.8c0,0-0.6,0.4-1.5,0.5c2,0,4.4-1.6,4.4-1.6c4.4-2.9,8.1,0,8.1,0c3.4,2.1,4.5,1.6,4.5,1.6
		l-0.1-0.1c-0.8-0.1-1.4-0.5-1.4-0.5c-3.8-2.6-0.9-6.6-0.9-6.6c0.7-0.9,1.5-1.6,2.3-2l-3.1,1.2c-3.2,1.1-6,1-7.8,0.7
		c-1,1-1.8,1.8-2.7,2.4C476.4,209.7,476.2,211.4,474.3,212.8z"/>
	<path fill="#F5CE00" d="M489.7,204.1c-0.8,0.4-1.6,1.1-2.3,2c0,0-2.9,4,0.9,6.6c0,0,0.6,0.4,1.4,0.5c0.9,0.1,2.2,0,3.1-1.5
		c0,0,1.5-2.6-0.8-3.7c0,0-2-1-2.8,1s1.5,2.6,1.7,1.1c0,0,0-0.3,0.2,0l-0.1,0.1c0,0,0,0.7-0.7,0.8c0,0-0.8,0.3-1.3-0.7V210
		c0-0.4-0.2-1.7,1.2-2.7c0,0,2.2-1.8,6.4,0.4c1.4,0.8,2.8,1.5,4.2,2.3c0.3-0.2,0.6-0.4,0.9-0.7c0.5-0.4,1.1-0.8,1.8-1.4l-6.4-3.6
		C497.1,204.3,493.1,202.3,489.7,204.1z"/>
	<path fill="#E4CB5E" d="M468.8,225.8c-0.1-1.4-0.8-2.3-0.8-2.3c-0.4-0.8-3.4-3.8-3.4-3.8c-1.8-1.9-3.5-0.6-3.5-0.6l-2.1,2
		c-0.1-5.2-2.8-3.5-2.8-3.5c0,0-0.1,0.1-0.1,0.1l-0.9,1.7l-2.2,4.2l1.1,4c0.6,2.2,1.1,4.2,1.1,4.3c0,0.2-1.7,0.9-3.7,1.6
		c-1.9,0.6-3.1,0.9-4.4,0.9c0,0,0,0,0,0c0,0,2.6,5.3,1.4,12c0,0-0.5,2.9-2.4,5.8c1-0.6,2-0.9,3.1-1c5.8-0.8,8.7-2.3,13.3-6.6
		c0.6-0.5,1-1,1.5-1.4l-3.6-14.4c-2.1,0.8-4,0.7-4,0.7l-0.3-0.7h0.1c1.1-1.2,2.4-2,3.6-2.4l-1-4.1h0.4l1.1,3.9
		c1.9-0.6,3.5-0.6,3.5-0.6l0.3,0.7c-0.9,1.1-2,1.8-3.1,2.3l4,13.7c1.8-1.8,2.3-2.9,2.7-4.8c1-4.8,1.6-6.4,3.7-8.2
		c-0.8-0.2-1.7-1-1.7-1C468.8,227.4,468.8,225.8,468.8,225.8z"/>
	<path fill="#E4CB5E" d="M436.1,259.6l0.5,1c0.2,0.4,0.4,0.8,0.6,1.3c0.7-0.8,1.5-1.8,2.1-2.6c0.7-0.9,1.3-1.8,1.9-2.5
		c-1.4,1.2-3.1,2.2-5.2,2.9L436.1,259.6z"/>
	<path fill="#784421" d="M459.1,222.3h-0.4l1,4.1c0.2-0.1,0.3-0.1,0.5-0.2L459.1,222.3z"/>
	<path fill="#784421" d="M460.3,228.8l3.6,14.4c0.3-0.3,0.7-0.6,0.9-0.9l-4-13.7C460.7,228.7,460.5,228.7,460.3,228.8z"/>
	<path fill="#F5CE00" d="M472.8,213.3c0.9-0.1,1.5-0.5,1.5-0.5c1.9-1.4,2.1-3.1,1.8-4.4c-1.2,0.9-2.4,1.6-4.2,2.4
		c0.1,0.1,0.1,0.1,0.2,0.2c-0.1,0-0.2-0.1-0.3-0.1c0,0-0.1,0-0.1,0c-0.6,0.3-1.3,0.6-2.1,0.9c0,0,0,0,0,0
		C470.6,213.2,471.9,213.4,472.8,213.3z"/>
	<path fill="#F5CE00" d="M447.1,234.4C447.1,234.4,447.1,234.4,447.1,234.4c-0.4,0-0.8-0.1-1.2-0.1c0,0.1,0.1,0.2,0.1,0.3
		c1.7,4.1,2,8.7,1,13c0,0-0.8,3-3,6.1c0.7-0.6,1.4-1.1,2.1-1.5c1.9-2.9,2.4-5.8,2.4-5.8C449.7,239.7,447.1,234.4,447.1,234.4z"/>
	<path fill="#F5CE00" d="M431.6,228.1c0,0.2,0,0.4,0,0.6c0,1.5,1.1,2.1,1.1,2.1c2,1.1,3.4,0,3.7-0.3c-0.7-0.6-1.4-1.4-2.2-2.2
		c-0.1,0.4-0.1,0.8-0.1,0.8s-0.1-0.4,0-0.8c-0.1-0.1-0.2-0.2-0.3-0.3l-1.4-1.6C432.1,226.8,431.7,227.4,431.6,228.1z"/>
	<path fill="#F5CE00" d="M446,234.6c0-0.1-0.1-0.2-0.1-0.3c-0.5,0-1-0.1-1.5-0.2c-0.6-0.1-1.1-0.2-1.6-0.3c0.6,1.1,1.1,2.5,1.5,4.1
		c0.4,1.4,0.6,2.9,0.6,4.5c0,0,0.5,12.4-12.4,15.6c0,0,0.9,1.3,2.6,5.7c0.3-0.2,0.6-0.5,0.8-0.7c0.3-0.3,0.8-0.8,1.2-1.3
		c-0.2-0.5-0.4-0.9-0.6-1.3l-0.5-1l-0.1,0c2.1-0.7,3.8-1.7,5.2-2.9c1-1.2,1.9-2.2,2.7-3c2.3-3.1,3-6.1,3-6.1
		C448,243.3,447.7,238.7,446,234.6z"/>
	<path fill="#784421" d="M464,226.3l-0.3-0.7c0,0-1.5-0.1-3.5,0.6c-0.2,0.1-0.3,0.1-0.5,0.2c-1.2,0.5-2.5,1.2-3.6,2.4H456l0.3,0.7
		c0,0,1.9,0.1,4-0.7c0.2-0.1,0.4-0.1,0.6-0.2C462,228.1,463.1,227.4,464,226.3z"/>
	<polygon fill="#784421" points="480.8,220.5 480.6,219.9 476.8,221.4 476.2,221.6 472.1,223.2 472.3,223.7 476.3,222.2 477,221.9 	
		"/>
	<path d="M494.3,195.7c0.4,0,0.8-0.2,1.1-0.4L494.3,195.7z"/>
	<path d="M484.3,172.8c0,0,0.7-2.2-0.7-3.8C483.9,169.6,484.5,171,484.3,172.8z"/>
	<path d="M483.5,168.8c0.1,0.1,0.1,0.1,0.1,0.2C483.6,168.8,483.5,168.7,483.5,168.8L483.5,168.8z"/>
	<path d="M492.7,166.5c0,0,0.3-1.2,2-2.1v-0.1c0,0-1.6-0.1-3.2,2.3c0,0,1.6,0.8,2,1.3C493.5,167.9,493.5,167.1,492.7,166.5z"/>
	<path d="M481.8,177.1c0,0,0.1,0.1,0.1,0.1c0,0,0,0,0,0c0.3,0.2,0.5,0.4,0.6,0.6c1.6,1.3,4.3,1.7,5.3,0c1.4-2-0.7-3.3-0.7-3.3
		s1.5,2.4-0.4,3.4c-1.8,1-4.5,0-4.4-3.4c0,0,2.3-2.1-0.4-2.1h-0.1c-0.8,0-1.2,0.2-1.3,0.5c0.1,0.2,0.1,0.5,0.2,0.7
		c0.3,0.4,0.7,0.8,0.7,0.8c0,1-0.2,1.8-0.6,2.4c-0.1,0.5-0.4,1-0.7,1.6C480.8,178.1,481.4,177.6,481.8,177.1z"/>
	<path d="M488.6,172.6c0.5-0.9,2-2,2-2C488.8,170.8,488.6,172.6,488.6,172.6z"/>
	<path d="M488.5,197.7c-0.2,0.1-0.4,0.1-0.6,0.2c-0.5,1.1-1.5,2.3-3.2,2.7c0,0,0.2-0.3,0.1-1.2c-0.2,0.2-0.4,0.3-0.7,0.5
		c0,0.8-0.3,1.4-0.5,1.4C483.5,201.5,487.9,200.8,488.5,197.7z"/>
	<path d="M484.6,181.5c-0.9,1.2-1.9,1.3-2.7,1.3c-1.8,0-2.8-1.3-2.8-1.3c0,1.6,1.4,2.1,2.2,2.2l0.7,0c0.1,0,0.2,0,0.3,0
		C484.5,183.5,484.6,181.5,484.6,181.5z"/>
	<path d="M494.5,198.4c1.5-1,1.9-2.3,1.9-3.4l-0.5,0.2c-0.2,2.8-2.6,2.8-2.6,2.8c-1.2,0.1-2-0.4-2.4-1.1l0,0c-0.4,0.1-0.7,0.2-1,0.3
		c0.1,0.3,0.3,0.6,0.5,0.8C492.2,199.8,494.5,198.4,494.5,198.4z"/>
	<path d="M482.4,166.2c0.9,1.3,3.2,0,3.2,0c2.4-1.2,3.6-0.6,3.6-0.6c-1.4-1.2-3.6,0-3.6,0C483.8,166.6,482.4,166.2,482.4,166.2z"/>
	<path fill="#FFFFFF" d="M486.5,166c0.4,0,0.6,0.4,0.6,0.9c0,0.5-0.3,0.9-0.7,0.9s-0.7-0.4-0.7-0.9c0-0.3,0.2-0.6,0.4-0.8
		c-1.6,0.5-2.2,1.5-2.2,1.5c4,1.3,5-1.7,5-1.7C487.9,165.8,487.1,165.9,486.5,166z"/>
	<path fill="#784421" d="M485.7,166.9c0,0.5,0.3,0.9,0.7,0.9s0.7-0.4,0.7-0.9c0-0.5-0.3-0.9-0.6-0.9c0,0,0,0-0.1,0
		c-0.1,0-0.2,0-0.3,0.1C485.9,166.3,485.7,166.6,485.7,166.9z M486.4,166.3c0.2,0,0.4,0.3,0.4,0.6c0,0.3-0.2,0.6-0.4,0.6
		c-0.2,0-0.4-0.3-0.4-0.6C486,166.6,486.2,166.3,486.4,166.3z"/>
	<ellipse cx="486.4" cy="166.9" rx="0.4" ry="0.6"/>
	<path d="M480.7,161.5c0,0,0.1-0.8,1.7-2.3c0,0-2.1,0.7-2.5,2.4c0.3,0.7,0.7,1.4,1.2,2c0,0-0.4,0.2-1.4-0.5c0,0-1-0.3-2.1-0.3
		l0.2,0.5c0.6,0.2,1.3,0.4,1.9,0.7c0,0,1.5,1,3.2-0.3c0,0,1.5-0.9,2.7-2.2c0,0,0-0.1-0.1-0.1c-0.9,0.6-2.7,1.8-3.6,2
		C482,163.4,481,162.6,480.7,161.5z"/>
	<path d="M480.7,166.2c0,0-0.9,0.2-2.1-0.1l0.1,0.4c0,0.1,0,0.2,0.1,0.2C479.5,166.8,480.3,166.8,480.7,166.2z"/>
	<path d="M481.9,177.2C481.9,177.2,481.9,177.2,481.9,177.2c-2,1.8,0,1.6,0,1.6s1.5,0.1,0.6-1C482.4,177.6,482.2,177.4,481.9,177.2z
		"/>
	<path fill="#FFFFFF" d="M478.9,167.2c0,0.1,0.1,0.3,0.1,0.4c0.1,0,0.1,0,0.2,0C479.2,167.6,479.1,167.5,478.9,167.2z"/>
</g>
</svg>
