<?xml version="1.0" encoding="utf-8"?>
<!-- Generator: Adobe Illustrator 17.1.0, SVG Export Plug-In . SVG Version: 6.00 Build 0)  -->
<!DOCTYPE svg PUBLIC "-//W3C//DTD SVG 1.1//EN" "http://www.w3.org/Graphics/SVG/1.1/DTD/svg11.dtd">
<svg version="1.1" id="flag-icon-css-bn" xmlns="http://www.w3.org/2000/svg" xmlns:xlink="http://www.w3.org/1999/xlink" x="0px"
	 y="0px" viewBox="0 0 640 480" enable-background="new 0 0 640 480" xml:space="preserve">
<g>
	<path fill="#F7E017" d="M310.9,350.1L310.9,350.1c-19.5-1.8-37.7-9.8-52.1-22.6l-7-2.2c0.4,0.4,0.8,0.7,1.2,1.1
		c17.1,16.3,35.7,25.3,57.3,27.7c5.5,0.7,16.5,0.3,23-0.7c1.8-0.3,3.6-0.7,5.3-1l-9-2.8C323.5,350.4,317.2,350.5,310.9,350.1z"/>
	<path fill="#F7E017" d="M592.4,184.5l-1.3-0.9l1.2-5l1.2-4.9l-1.7-3.5c-1.2-2.5-2.3-3.8-3.7-4.6c-1.1-0.6-2.4-1.8-2.8-2.8
		c-0.7-1.6-0.7-2,1.1-6c1.1-2.3,1.9-4.5,1.9-4.8c0-0.4-1-1.7-2.3-2.9c-1.5-1.5-3.5-4.7-5.7-9l-3.4-6.7l1.2-6.7l1.2-6.7l-3.6-3.3
		c-4.2-3.8-11.2-10.9-13.4-13.8c-0.9-1-3.2-5-5.2-8.7l-3.7-6.9l-5.7-2l-5.7-2l-0.2-6.2l-0.2-6.2H538c-2.1,0-5.7-0.2-8.1-0.4
		c-4.3-0.5-4.3-0.5-8.3,1.9c-2.3,1.2-4.1,2.6-4.1,2.9c0.1,0.4,0.4,2.1,0.8,3.8c0.6,2.7,1,3.2,2.7,4c2.2,1.1,2.7,2.3,2.7,6.6
		c0.1,3.5-1.1,6.2-2.8,6.5c-1.2,0.2-1.8,0.9-2.4,2.8c-0.2,0.7-0.9,1-2.3,1c-1.7,0-2.1-0.2-2.4-1.4c-0.3-1.2-0.7-1.4-2.9-1.4
		c-2.4,0-2.8,0.3-7.3,4.4l-4.8,4.3v3.9c0,2.1,0.4,5.9,0.9,8.5c0.5,2.6,0.8,4.7,0.7,4.8c-0.1,0.1-1,0-1.9-0.1
		c-1.8-0.3-1.8-0.3-2.5-4.9c-0.4-2.6-0.9-4.9-1-5.1c-0.2-0.3-1.4,1-2.7,2.8c-1.7,2.3-3.5,6.1-5.8,12.3c-3.1,8.1-3.4,9.3-3.2,12.2
		c0.6,6.9,0.6,6.8,4,8.5c1.6,0.9,3.1,1.7,3.1,1.9s-0.9,2.7-1.9,5.4l-2,5l2,7.1c1.5,5.4,1.9,7.7,1.6,9.9c-0.2,2,0.1,4.1,1,7l0.5,1.8
		l108,33.8l2.5-5l0.9-10.3l0.9-10.2l-5-4.9C596,187.5,593.2,185,592.4,184.5z"/>
	<path fill="#F7E017" d="M325.7,101.4c0,0.8-1,1.5-2.5,1.8l0,0.3l17.6,9.1l-11.2,3.7l8.2,11l-14.6-7.1l0,14.3l1.1,0.3v-3
		c2.9,0.1,5.9,0.1,8.6,0.7c2.1,0.4,3.9,1.1,5.5,2.2c-1.2,1.3-2.8,2.3-4.8,3l1.4,0.4c1.4-0.6,2.7-1.3,3.8-2.1c-0.1,1.2,0,2.3,0,3.3
		l34.3,10.7c1.4-1.2,4.7-2.7,11.4-5.1l9.9-3.6l5.4-10.9l5.5-10.9l8.5-2.8c6.9-2.3,9.2-2.8,12.5-2.8c2.2,0,6.5-0.4,9.6-0.9
		s9.5-0.9,14.2-0.9h8.5l3.5-2.2l3.5-2.3l0.3-4.4c0.2-2.4,0.4-7.5,0.4-11.3v-6.9l5.7-3.6c3.1-2,5.8-3.8,5.9-4
		c0.1-0.2,0.3-2.7,0.6-5.7l0.4-5.4l-3.3,3c-1.8,1.6-7.2,6-11.9,9.7c-6.9,5.4-8.8,7.3-10.1,9.6l-1.6,2.9l-2.4-1.8
		c-1.4-1.1-4-2.3-6.2-2.9l-3.8-1l1.7-2.4c3.5-4.8,2.7-4.4,7.6-3.5c2.4,0.5,4.5,0.9,4.7,0.9c0.1,0,1.7-2.3,3.6-5l3.4-5l9.3-5.4
		l9.2-5.4l2.2-4.7c1.9-3.9,3.1-5.4,7-9.2l4.8-4.6l-1.5-3.4c-1.6-3.6-1.9-7-1-9.5c0.5-1.2,0.9-1.5,2.9-1.5c1.4,0,4.7-0.3,7.5-0.6
		c5-0.6,5.4-0.5,6.1,1.3c0.1,0.2,4.9,1.4,10.5,2.5l10.4,2.1l2.6-2.6l2.6-2.6l-4.5-2.6c-4.3-2.6-4.6-2.6-9.1-2.6
		c-4,0-5.2-0.3-8.5-1.7c-2.1-1-4.5-1.7-5.4-1.7c-4.4,0-3.3-0.9,5.4-4.3l9-3.6h-9l-9-0.1l-2.9-1.9c-1.6-1-3.2-2-3.5-2.2
		c-0.3-0.2-6.9,2.2-14.7,5.3c-7.8,3.1-23,9.1-33.7,13.3s-23,9.4-27.2,11.5c-5.2,2.6-9,4.1-12,4.7c-7.3,1.5-14.3,6.2-24.3,16
		c-8,7.9-8.8,8.5-33.2,25.1c-12.8,8.7-19.4,13.3-25.7,18.2C325.6,100.8,325.7,101.1,325.7,101.4z"/>
	<path fill="#F7E017" d="M318,131.7v0.9l1.1,0.3v-27.4c-4.2,3.5-9.1,7.8-16,14l-2.6,2.3l2.4-0.4c2-0.3,2.4-0.2,2.4,0.6
		c0,1.6-0.7,2.3-2.8,2.7c-1.4,0.2-2.1,0.7-3,2.2l15.6,4.9C316.1,131.7,317.1,131.7,318,131.7z"/>
	<path fill="#F7E017" d="M208.7,365.5c-0.7,0-0.7-4.6,0.1-6c1-2,3.4-3.9,6.3-4.9c1.5-0.5,2.7-1.2,2.7-1.5c0-0.3-0.5-1.3-1.1-2.4
		c-1.9-3.4-1.1-6.7,2.3-9.3c3.5-2.7,9.3-3.1,14.5-1.1c0.9,0.4,1.8,0.7,2.7,0.9c0.7,0,0.3-1-1.6-3.7c-2.1-3.1-2.6-4.7-2.3-8.5
		c0.3-3.6,2.5-6.6,5.6-8.1l-27.1-8.5c-0.8,0.4-1.5,0.7-2.3,1c-3,1.2-6.3,1.9-9.6,1.9h-1c-3.9,0.1-7.7-0.5-11.3-1.9
		c-2.1-0.9-4.3-1.9-5.6-3.7c-0.7-1.6,0.8-3.6,2.5-3.3l0,0.1c1.1,0.1,2,0.9,3,1.3c2.7,1.3,5.4,2.3,8.3,2.7c2.7,0.2,5.3,0.1,7.9-0.4
		l-4.2-1.3h-0.5c-4.4,0.2-8.8-1-12.4-3.5c-0.3-0.2-0.6-0.5-1-0.8l-22.4-7l0.1,2.4c0.2,5.7,0.1,8.6-0.5,11.6c-0.8,3.7-0.7,4,0.3,5.5
		c0.6,0.9,2.9,3.1,5,5l3.9,3.5l-1.7,4.6c-1.6,4.3-1.7,5.3-2,14.6c-0.3,8.8-0.2,10.4,0.8,14l1.1,4l5.1-0.1c3.1-0.1,9.2-0.9,15.8-2.2
		c5.8-1.1,10.8-1.9,11-1.7c0.2,0.2,1.2,2,2.3,4.1c1.8,3.3,2.3,3.8,4.5,4.5l2.6,0.9l1.6-1.9c0.4-0.5,1.1-1.5,1.8-2.7
		c-1.1,0.4-2.1,0.9-3.2,1.4C210,365.1,209.3,365.4,208.7,365.5z M199.1,322.3c-5.3,0.3-10.5-0.5-15.5-2.4c-1.9-0.8-4-1.7-5.2-3.5
		c-0.7-1.7,1.2-3.4,2.9-3.1c1.2,0.1,2.2,0.8,3.3,1.3c3.1,1.4,6.3,2.3,9.6,2.8c4.6,0.4,9.1-0.1,13.5-1.3c2-0.6,4-1.5,6-1.9
		c1.4-0.3,2.9,1.2,2.1,2.6c-0.8,2.3-3.3,2.9-5.3,3.6C206.8,321.6,203,322.3,199.1,322.3z"/>
	<path fill="#F7E017" d="M394.7,370.1c-0.3,0.2-0.5,0.4-0.8,0.7c-4.3,3.8-6.9,5-11.1,4.9c-3.9,0-6.5-1.1-7.9-3.3
		c-0.7-1.2-0.9-1.9-0.7-4.5c0.1-1.7,0.1-3.1,0-3.1c-0.2,0-1.7,0.9-3.3,2.1c-3.8,2.7-8,4.9-12.3,6.6c-17.5,6.4-36.3,8.6-54.9,6.5
		c-11.7-1.3-23-5.2-32.9-11.5c-1.6-1.1-3.1-2-3.3-2c-0.3,0-0.4,1.3-0.4,2.7c0,4.3-1.7,6.4-6,7.5c-4.1,1.1-10.4-1.1-15.5-5.3
		c-4.8-4.1-10.4-7.2-16.5-9c-0.2,0-0.3-0.1-0.5-0.1l1.6,4.7l-0.4,5.8l-0.5,5.8l3.7,9.2c2,5,5.6,12.4,7.9,16.4c4,6.9,4.4,7.3,6.3,7.5
		c4,0.6,9.9,4,14.5,8.2c6.2,5.8,7.4,7.8,9.4,15.6l1.7,6.7l5.3,5.3c6.4,6.4,9.8,8.6,17.2,10.9c3.4,1.1,6.4,2.4,7.5,3.3l1.8,1.5
		l-4,5.6c-4.1,5.8-4.3,6.5-2,7.9c1.2,0.7,21.6-5.3,28.5-8.5c2.8-1.3,7-3.1,9.2-4c3.7-1.4,4.7-2.2,8.3-6.2c2.3-2.5,6-7.5,8.2-11.1
		c3.6-5.8,4.7-7.1,9.9-11.5c5.3-4.5,6-5.3,7-8.2c1-3,1.4-3.4,4.4-5c3.1-1.6,3.5-2,7.2-8.5l3.9-6.8l-3.1-1.6
		c-1.7-0.9-3.1-1.7-3.1-1.9c0-0.2,1.4-1.9,3-3.8c1.6-1.9,5.2-6.5,7.8-10.3c2.6-3.7,6.8-9,9.4-11.8c2.1-2.3,3.3-3.6,4.1-5.1
		L394.7,370.1z"/>
	<path fill="#FFFFFF" d="M246.2,201.8c-3.1,6.3-5.2,13-6.4,19.8l71.4,22.3c0.7-2.4,1.7-4.7,2.6-6.9c1.1-2.9,0.9-6.1,0.1-9.1
		c-0.9-3.3-3.6-5.7-5.7-8.4c0.1-1,2.8-0.5,3.8-0.3c2.3,0.6,3.6,2.5,5.3,4c1.2-0.4,0.7-2.8,1.3-3.9c0-1.6,2.1-3.7,3-1.4
		c1.3,1.5,0,4.3,1.7,5.2c1.6-0.6,2.4-2.3,3.9-3.1c1.6-1,3.5-1.1,5.2-0.3c0.6,1.5-1.7,2.7-2.4,4c-2.7,3.4-3.6,7.8-2.5,12
		c0.9,3.3,2.5,6.3,3.1,9.7c0.3,1.6,0.4,3.2,0.5,4.8l59.6,18.6l-1.1-3.7l0.7-8.6c0.3-4.8,1-13.4,1.2-19.2l0.6-10.7l-2.6-9.8
		c-1.4-5.2-3.9-13.4-5.8-18.2c-1,0.3-2.2,0.4-3.6,0.4c-3.5,0-5.5-0.7-8.7-3.3c-5.3-4.4-18.4-9.3-17.9-6.7c0.1,0.5,0.7,0.8,2.1,1
		c4.5,0.7,9.9,3.3,15.4,7.3l3.9,2.9c0.7,0.4,0.7,0.5,0.1,1.7c-0.9,1.9-3.5,3.3-6.1,3.5c-3.5,0.4-6.5-0.7-9.7-3.3
		c-6.7-5.5-12.9-9.5-14.9-9.5c-1.7,0-0.9,0.9,2,2.5c3.8,2,7.3,4.5,10.5,7.3c1.3,1.3,2.9,2.5,3.3,2.7c1.3,0.7,1.2,1.6-0.1,3.3
		c-1.3,1.7-3.6,2.5-6.5,2.2c-5.7-0.6-10.3-3.3-17.3-10.7c-1.7-1.9-3.5-3.6-5.5-5.2c-0.9,0-0.3,1.3,1.5,3.3c2.3,2.5,2.7,3.9,1.8,6
		c-0.7,1.7-2,2.2-4.5,1.5c-2.7-0.7-3.1,0-1.3,2.1c2.5,3.3,2.2,7.1-1,9.9c-0.9,0.8-2,1.5-2.3,1.5c-0.3,0-0.9-0.7-1.5-1.6
		c-2-3.1-3.8-3.1-5.8,0c-0.4,0.7-0.9,1.3-1.3,2c-0.7-0.5-1.3-1-2-1.5v0c-2.3-1.7-3-3.2-3-6.3c0-1.5,0.3-2.4,1.3-3.9
		c1.6-2.1,1.3-2.8-0.9-2.2c-3.5,1-5.2,0.1-5.3-2.9c0-1.5,0.3-2.1,2.2-4.5c1.6-1.9,2.2-2.9,1.9-3.2c-0.3-0.3-2.2,1.3-6,5.2
		c-2.4,2.5-4.9,4.9-7.6,7.1c-6.5,4.4-12.8,5.1-15.7,1.7c-1.5-1.7-1.4-2.7,0.3-3.7c1.1-0.7,2-1.5,2.9-2.5c3.3-3,6.9-5.6,10.7-7.7
		c2.4-1.2,2.9-2,1.4-2c-2,0-8.3,4.1-13.2,8.5c-1.4,1.3-3.5,2.8-4.5,3.3c-3,1.1-6.2,1.3-9.3,0.7c-1.5-0.5-4.2-3-4.2-3.9
		c0-0.2,0.7-0.7,1.3-1.2c1.1-0.6,2.1-1.3,3.1-2.1c3.9-3.3,11.2-6.9,17-8.1c1.9-0.3,1.1-1.3-0.9-1.2c-4,0.2-11.9,3.9-16.7,7.8
		c-5.5,4.6-13.9,4.1-16.5-0.9c-0.5-0.9-0.8-1.7-0.7-1.8c4.7-1.2,9.3-2.9,13.6-5.2c3.7-2.2,7.8-3.7,12.1-4.3c1.9-0.3,2-1.3,0.2-1.5
		c-2.4-0.3-6,0.9-12.3,4c-8.2,4.1-10.5,4.8-14.8,4.5c-4-0.3-6.2-1.3-9.3-4.3c-2.1-2-5.1-7-4.5-7.6c3.5,0.7,7,1,10.5,0.9
		c5.5,0,7.1-0.1,10-1c5.7-1.8,11.1-4.5,16-8.1c6.9-5.8,15.5-9,24.5-9.1c8.3,0,13.5,1.9,18.1,6.6c0.7,0.7,1.3,1.2,1.8,1.6v-15
		l3.1,2.3l3.5-2.7v15.4c0.1-0.2,0.3-0.4,0.4-0.7c0.7-1.7,3.3-4,6.1-5.5c6-3,16.5-3.1,24.9-0.2c4,1.5,7.8,3.7,11.1,6.3
		c4.8,3.4,10,6,15.6,7.9c0.6-2.9,1-5,0.9-5c-0.1-0.1-1.8-1.1-3.9-2.2c-3-1.6-4-2.5-4.9-4.4l-1.2-2.4l1.2-3.4l1.3-3.4l-2.5-2.9
		l-2.4-2.9l1.8-1.7c0.1-0.1,0.2-0.1,0.2-0.2l-34.3-10.7c0.5,7.6,4,12.7,6.6,18.5l-8.4-6l-4.9,5.5l-5.7-6.7l-5.5,5.5l-5.7-5.3
		l-5.6,6.3l-5.1-6.1l-7.4,6.9c3.4-6.7,5.4-14,6-21.5v-0.1c7.2,5.9,22.6,5.9,31.8,1.9l-1.4-0.4c-10.4,4.1-29.6,1.6-29.8-3.2
		c1.6-1,3.3-1.7,5.2-2c1.9-0.4,4-0.6,6.1-0.6l-15.6-4.9c-0.1,0.2-0.3,0.5-0.4,0.7c-1.5,2.8-2.9,3.6-6,3.6c-1.1,0-2.6,0.3-3.2,0.6
		c-0.6,0.3-7.2,5.8-14.6,12.1c-11.3,9.5-15.8,12.9-27.9,20.9l-14.5,9.5l-13.1,5.1c-7.2,2.8-19.1,7.5-26.4,10.5
		c-10.8,4.4-15.5,6-24.8,8.3c-0.7,0.2-1.4,0.4-2.1,0.5l67.6,21.1C237,213.1,241,206.8,246.2,201.8z"/>
	<path fill="#FFFFFF" d="M492.1,189.3l-1.2,6l-1.2,6l3.1,5.8c1.7,3.2,3.6,6.1,4.1,6.5c0.6,0.4,2.7,2.3,4.8,4.3l3.8,3.5l0.5,7.5
		c0.3,4.1,1.1,11.1,1.8,15.5c1.1,7.1,1.4,8.4,3.7,12.5l2.4,4.6l-0.6,10.4c-0.6,10.3-0.6,10.5,0.9,15.9l1.4,5.6l-1.6,5.7
		c-1.6,5.3-1.9,5.8,0.2,8.2l11.5,3.6c2.5-0.2,4.2-0.6,7.3-1.6c2.8-0.9,5.3-1.5,5.7-1.3c0.3,0.2,1.9,1.4,3.5,2.6
		c2.8,2.1,3.3,2.3,12.9,3.9c5.6,1,11.1,1.7,12.5,1.7c1.3,0,4.7-0.7,7.4-1.7c2.8-0.9,5-1.6,5.1-1.5c0.6,1,1.4,7.2,1.4,10.9v4.6
		l0.4,0.1l1.4,0.3c3.5,0.7,4.7,0.3,7.4-1.9c2.7-2.3,3.6-2.6,7.4-1.9c2,0.3,2.1,0.5,2.9,4.1c0.5,2,1.1,3.9,1.4,4
		c0.2,0.1,2.5,1.6,5.4,3.5l15.4,4.8c0.8-0.4,1.7-1.1,3-2.1c2-1.5,5-4.2,6.5-6l2.7-3.2l-1.7-4.9c-3.4-9.7-5.5-13.3-9.9-17.3
		c-2.3-2-5.6-4.8-7.5-6.2c-5-3.8-15-14.9-17.4-19.2c-2-3.6-2-3.7-1.5-8.2c0.3-3.3,0.2-5.4-0.3-7.9c-0.5-1.9-0.9-5.8-0.9-8.7
		c0-3.5-0.3-5.8-0.8-6.9c-0.5-0.9-1.6-4.7-2.6-8.5l-1.7-6.9l2.8-4.8c1.6-2.7,4-7.1,5.4-10l0.1-0.1l-108-33.8L492.1,189.3z"/>
	<polygon fill="#FFFFFF" points="324.4,136.4 324.4,134.7 323.3,134.3 323.3,135.6 319.1,135.6 319.1,133 318,132.7 318,136.4 	"/>
	<path fill="#FFFFFF" d="M362.1,183.2c0,0.4,0.4,0.7,1,0.7c2.2,0,6.5,1.5,12.5,4.3c1.6,0.9,3.3,1.7,5.1,2.4l-0.4-1.1l0.2-0.8
		c-1.4-0.6-2.8-1.2-4.3-2C369.7,183.2,362.1,181.3,362.1,183.2z"/>
	<path d="M183.3,302.5c-0.3-1.3,0.7-2.9,2.2-2.7l0,0h0h0c1.1,0.2,1.9,1.1,2.9,1.5c2.6,1.6,5.6,2.5,8.7,2.7c3.6,0,7.1-0.9,10.3-2.6
		c0.9-0.3,1.9-1.2,3-0.7c1,0.5,0.9,1.8,0.6,2.7c-0.6,1.9-2.5,2.8-4.2,3.5c-2.5,1.2-5.2,1.8-8,1.9h-0.6l4.2,1.3
		c2-0.4,3.9-0.9,5.8-1.7c1.2-0.3,2.3-1.1,3.5-1.1c1.5,0.1,1.9,1.7,1.3,2.9c-0.5,1.2-1.5,1.9-2.6,2.5l27.1,8.5c1-0.5,2.2-0.8,3.4-0.9
		c3.6-0.2,5.9,0.9,10.8,5.3l7,2.2c-4.9-4.3-9.3-9.2-13.2-14.6c-16.3-22.1-21.3-51.4-16.4-78.1c1.1-5.1,2.7-10.2,4.8-15l-67.6-21.1
		c-7.4,1.9-13.8,4-22.5,7.4l-13,5l-9.9,1c-7.4,0.7-17.1,1-37.9,1.2c-15.4,0.2-27.7,0.5-27.5,0.7c0.3,0.2,3.3,1.5,6.7,2.8
		c6.2,2.3,6.4,2.3,13.6,2.3c7.1,0,7.7,0.1,14.8,2.4l7.4,2.4l5.8,6.6c5,5.8,6,6.6,7.1,6.4c1-0.3,4.5,1.5,14.8,7.4
		c7.8,4.5,14.2,8.5,15.1,9.5c0.9,1,3.5,5.6,5.8,10.3c2.4,4.7,6.7,12.8,9.6,18.1l5.3,9.6l0.3,5.3l22.4,7
		C183.9,303.8,183.5,303.2,183.3,302.5z M177.9,206.7c0.4-0.6,0.8-1.3,1.6-1.4h-0.1c0.3-0.1,0.5,0.1,0.7,0.2c0.9,0.7,1.5,1.9,1.9,3
		c1.1,2.9,1.6,6.1,1.9,9.3c0.3,0.6-0.3,0.5-0.7,0.5c-1.1,0.1-2,0.8-2.3,1.9c-0.8-1.3-1.4-3-1.3-4.7c0.3-2.4-0.1-4.7-0.9-6.9
		C178.4,207.9,177.7,207.3,177.9,206.7z M173.1,204.4c0.8,0.1,1.5,0.7,2,1.2c2.1,2.4,3.1,5.7,3,8.8c-0.4,2.9,0.7,5.9,2.7,8
		c0.5,2.1,1.5,4,2.5,5.8c1,1.8,2.3,3.3,3,5.1c-1.6-1.3-3.4-2.7-5.5-3.3c-0.3-2.1-1.1-4.1-2.1-5.9c-1.5-2.8-3-5.7-5.6-7.7
		c0.1-2.9-0.1-5.9-0.7-8.8C172.1,206.5,171.8,204.8,173.1,204.4z M167.6,202.8L167.6,202.8L167.6,202.8L167.6,202.8
		c1.2,0.1,2,1.2,2.5,2.1c1.7,3.8,1.7,8.1,1.7,12.1c2.3,1.5,3.7,3.9,5,6.3c1.2,2.4,2.5,4.9,2.7,7.7c2.7,0.5,4.9,2.3,6.8,4.3
		c1.3,1.3,1.5,3.1,2,4.9c0.4,1.3-0.1,0.7-0.7,0c-2.9-2.6-6.5-4.1-9.8-6.2c-1.4-1-3.5-1.7-3.5-3.7c-1-5.4-3.4-10.4-7.1-14.5
		c0.5-3,0.3-6.1-0.7-8.9C165.7,205.6,165.6,203.1,167.6,202.8z M185.5,267.6c-0.4-3.8,0.3-7.9-1.6-11.3
		c-5.1-7.1-13.7-11.5-17.7-19.5c-3.3-8.3-4.7-17.2-5.9-26c0.2-2.8-1.5-6.8,0.7-9l0.6,0.1c4.3,3.2,5.3,9.4,4.3,14.3
		c3.8,4.1,6.4,9.2,7.3,14.7c1.1,3.9,5.9,4.8,8.9,7c3,1.4,5.5,3.8,7.1,6.7c2.7-1.5-0.5-6.2-0.7-8.8c-0.9-4.7-4.6-7.9-6.1-12.4
		c-2.5-5.1,4.4-4.1,6.1-1.1c2.9,3.8,6.1,7.4,9.5,10.7c4.1,3.5,9.6,6.3,11.4,11.7l0.7,53c-0.7,3.1-6.5,3.6-9.7,4.3
		c-5.3,0.9-10.3-1.4-15-3.8C185.7,288.1,185.7,277.8,185.5,267.6z"/>
	<path d="M394.7,370.1l8.6,2.7c0.9-1.5,1.5-3.1,2.5-6.2c0.5-1.4,0.8-2.5,1.1-3.4c0,0,0,0,0,0C402.5,364.6,398.3,367,394.7,370.1z"/>
	<path d="M350.9,345.3c-6.9,2.2-14,3.6-21.2,4.4l9,2.8c18.4-4.1,35.5-13.1,49.2-26.2c4.3-4,6.3-5.1,9.8-5.1c3,0,5.1,0.9,7.3,3.3
		c2,2.2,2.7,4.3,2.4,7.7c-0.1,2.1-0.5,3.1-1.7,5.3c-0.7,1.1-1.1,1.8-1.1,2.3c2.3-3.4,4.4-6.6,6.2-9.6c4.8-8.1,5.7-10.2,7.5-16.4
		c2-6.7,2.1-7.7,2.1-15c0-7.8,0-7.8-1.8-10.6c-1.2-1.9-2.1-2.7-2.7-2.5c-0.5,0.2-3.3,0.6-6.2,0.9l-1.5,0.2
		C399.1,313.6,378.2,336.7,350.9,345.3z"/>
	<path d="M609.7,337.9c6.3,4,7,4.4,9.8,4.4c1.6,0,2.5-0.1,3.7-0.8l-15.4-4.8C608.4,337,609.1,337.5,609.7,337.9z"/>
	<polygon points="581.5,328.5 581.9,328.5 581.5,328.4 	"/>
	<path d="M515.6,308.9l1.8,2.1h5.3c1.1,0,2.1,0,3-0.1l-11.5-3.6C514.6,307.8,515,308.3,515.6,308.9z"/>
	<path d="M330.1,256.8c-0.6,2.3-2.5,3.7-4.5,4.7c-0.5-0.5-0.8-1.1-1.1-1.7h0c-0.9-1.8-2.2-3.4-3.7-4.7c-1.6,0-2.6,2-3.7,3.1
		c-0.7,1.4-1.7,3.7-3.5,1.9c-3-1.7-3.5-5.5-3.5-8.7c-0.1-2.6,0.4-5,1.1-7.5l-71.4-22.3c-1.7,9.8-1.6,19.9,0.6,29.7
		c6,33.2,34,61.3,67.5,66.1c13.3,3.8,27-0.3,39.7-4.3c19.2-6.8,35.3-21.4,44.3-39.5l-1.4-4.9l-59.6-18.6
		C330.9,252.4,330.7,254.6,330.1,256.8z M338.5,309.7c-3.2,3.8-7.6,6.4-12.5,7.3c-2.9,0.5-5.9,0.7-8.8,0.4h0c-9.2-1-17-7.2-19.9-16
		c0.2-1.5,2,0.8,2.9,1c1.6,1,3.4,1.6,5.3,1.7c2.3,1,3.8,3.3,6.1,4.6c1.1,0.8,4.8,2.4,4.1-0.2c-0.9-1.3-1.5-3.1-0.7-4.7
		c1.2-2.7,3.1-5.1,5.1-7.5c1.4-0.5,2.4,2.4,3.4,3.3c1.4,2.2,3.1,4.9,2.3,7.5c-0.8,1-1.3,4,0.9,3.1c2.7-1.2,4.9-3.2,7.1-5.1
		c2-1.3,4.5-1.4,6.5-2.7c1-0.2,2.9-2.1,3.3-1.1C342.2,304.4,340.5,307.2,338.5,309.7z M332.5,261.8c-2,1.9-3.7,4.3-4.1,7.1
		c-0.6,3.5,0.3,7.1,1.8,10.3c3,6.3,5.3,13.3,3.8,20.3c-0.7,3.1-2.8,5.7-5.3,7.5c-0.3,0.2-0.9,0.2-1-0.3l0,0c0.2-1.8-0.2-3.6-1.1-5.3
		c-1.4-2.8-3.3-5.3-5.3-7.9c-1.9-1.1-2.9,2.5-4.1,3.5c-1.9,2.9-4.3,5.8-4.5,9.3c-1.1,1.7-3.1-1.3-3.9-2.3c-1.8-2.3-2.7-5.1-2.7-8
		c-0.2-4.7,0.7-9.4,2.4-13.7c1.3-3.7,3.4-7.3,3.2-11.3c0.1-3.1-0.5-6.5-2.9-8.5c-2.4-1.9,1.5-2.3,2.7-1.3c2.1,0.2,3.3,3.7,5.2,2.8
		c0.7-1.8,0.9-4,2.5-5.4c1.5-2.1,3.1,0.9,3.7,2.3c1.1,1.2,0,4.3,1.7,4.4c2.1-1.5,3.7-4,6.4-4.6C332.1,259.9,334,260.6,332.5,261.8z"
		/>
	<path fill="#CF1126" d="M245.7,371.3c5.1,4.3,11.3,6.4,15.5,5.3c4.3-1.1,6-3.3,6-7.5c0-1.5,0.1-2.7,0.4-2.7c0.3,0,1.7,0.9,3.3,2
		c10,6.3,21.2,10.2,32.9,11.5c18.5,2.1,37.3-0.1,54.9-6.5c4.4-1.7,8.5-3.9,12.3-6.6c1.7-1.1,3.1-2.1,3.3-2.1c0.1,0,0.1,1.4,0,3.1
		c-0.2,2.7-0.1,3.3,0.7,4.5c1.4,2.2,4,3.3,7.9,3.3c4.1,0.1,6.8-1.1,11.1-4.9c0.3-0.2,0.5-0.5,0.8-0.7c3.6-3.1,7.7-5.4,12.2-7
		c0,0,0,0,0,0c1-3.4,0.7-4.3-0.5-8.6c-0.2-0.9-1-0.4-4.4,2.9c-3.2,3.1-4.9,4.3-7.9,5.5c-3.7,1.5-3.9,1.5-5,0.6
		c-0.6-0.6-0.9-1.4-0.8-1.8c0.2-0.4,4.1-5.6,8.6-11.5c2.7-3.5,5.3-7,7.7-10.4c0-0.4,0.4-1.2,1.1-2.3c1.3-2.1,1.6-3.1,1.7-5.3
		c0.3-3.4-0.4-5.5-2.4-7.7c-2.2-2.4-4.3-3.3-7.3-3.3c-3.5,0-5.5,1.1-9.8,5.1c-13.7,13.1-30.8,22.1-49.2,26.2c-1.8,0.4-3.5,0.8-5.3,1
		c-6.5,1-17.5,1.3-23,0.7c-21.6-2.4-40.2-11.4-57.3-27.7c-0.4-0.4-0.8-0.8-1.2-1.1c-4.9-4.4-7.2-5.6-10.8-5.3
		c-1.2,0.1-2.4,0.4-3.4,0.9c-3.1,1.5-5.3,4.5-5.6,8.1c-0.3,3.8,0.2,5.3,2.3,8.5c1.9,2.7,2.3,3.7,1.6,3.7c-0.9-0.3-1.8-0.6-2.7-0.9
		c-5.1-1.9-11-1.5-14.5,1.1c-3.4,2.6-4.2,5.9-2.3,9.3c0.6,1.1,1.1,2.1,1.1,2.4c0,0.3-1.2,1-2.7,1.5c-2.9,1-5.3,2.9-6.3,4.9
		c-0.8,1.4-0.9,6-0.1,6c0.7-0.2,1.3-0.5,1.9-0.9c1-0.5,2.1-1,3.2-1.4c0.7-1.3,1.5-2.7,2.1-4.1l2.3-4.8l3.6-1.2l3.6-1.2l2.5,7.5
		l0.9,2.7c0.2,0,0.3,0.1,0.5,0.1C235.3,364.1,240.9,367.2,245.7,371.3z M357.6,372.5c-0.6,0.2-1.3-0.1-1.5-0.7
		c-0.1-0.2-0.1-0.4,0-0.6c-0.2-0.5,0.2-1.1,0.8-1.2s1.3,0.1,1.5,0.7c0.1,0.2,0.1,0.4,0,0.6C358.6,371.8,358.2,372.4,357.6,372.5z
		 M362.6,369.9c0,0.6-0.5,1-1.2,1c-0.7,0-1.2-0.4-1.2-1c0,0,0,0,0,0c0-0.6,0.5-1,1.2-1C362.1,368.9,362.6,369.3,362.6,369.9
		C362.6,369.9,362.6,369.9,362.6,369.9z M396.6,341.4L396.6,341.4c-0.2,0.7-1.4,0.9-1.8,0.3c-0.2-0.3-0.1-0.7,0.1-1
		C395.5,340.1,396.9,340.6,396.6,341.4z M388,343c0.3-4.3,0.4-4.6,1.4-5c4-1.9,5.1-2.6,6-3.7c1.1-1.6,1.8-1.6,1.8-0.2
		c0,1.4-2.5,3.9-5.2,5.1l-2,1v3.5c0,4.5-1.1,7.5-3.5,10v-0.1c-1,1.1-2.3,2-2.8,2c-1.2,0-1.1-0.4,0.6-2.4
		C387,349.8,387.8,348,388,343z M371.8,360.2c0.7-0.8,1.5-1.5,2.4-2c4.4-3,8.6-8.7,8.6-11.7c0.1-1.1-0.3-1.2-2.5-0.3
		c-1.5,0.7-1.6,0.7-2.3-0.2c-1.2-1.4-1.1-5.5,0.2-7.4c0.8-1.2,1.1-1.4,2.4-1.4v-0.1h0.5c1.8,0,2,0.1,2.8,1.5
		c0.6,1.2,0.6,2.4,0.6,6.2c-0.2,4-0.4,4.7-1.5,7c-1.5,3-5.1,6.6-7.9,8C373.1,360.9,371.5,361,371.8,360.2z M358.1,350.3
		c0.5-0.6,1.9-0.1,1.7,0.6h0c-0.3,0.7-1.5,0.9-1.9,0.3C357.7,350.9,357.8,350.5,358.1,350.3z M361.2,357.3c1.8-1.3,2.4-2.9,1.7-4.9
		c-0.5-1.3-0.4-1.7,0.2-2.7c0.3-0.6,1-1.1,1.3-1.1c1,0,1.5,2.7,1,4.8c-0.4,2.2-0.1,3,1,3c1.1,0,3,0.9,3,1.5
		c-0.3,1.1-0.8,2.1-1.3,3.1c-1.4,3.1-3.7,5.2-7.6,7.2l0,0c-1.8,0.9-3.5,1.4-5.2,1.4c-2.8,0.2-6.6-0.6-7.2-1.6
		c-0.7-1.1-0.3-3.2,0.9-5.2c1.6-2.4,2.4-2.7,2-0.6l-0.5,2.6c-0.2,0.7,0,1.3,0.7,2c0.8,0.8,1.3,1,3.8,0.8c4.6-0.4,11.4-4.4,11.4-6.8
		c0-0.5-0.5-1.3-1.2-1.7l-1.1-1l-2,1.2l-2.1,1l-0.1-1C359.9,358.6,360.3,357.9,361.2,357.3z M327.5,373.6c0.7-1.6,1.3-2,3.7-2
		c2.7,0,3.2-1.9,1.4-5c-0.4-0.8-1.2-1.4-2.1-1.6c-1.6-0.4-1.7-0.6-0.5-2.4c1.3-2.2,2-2.3,3.7-0.3c3,3.6,3.4,6.3,1.3,9.3
		c-0.7,1.2-1.6,1.7-3.3,2.2c-1.3,0.5-2.6,1.1-3,1.5v0c-0.8,0.7-1.8,0.8-1.8,0.2L327.5,373.6z M321.5,359.1c0.3-0.9,2.2-2.1,2.6-1.7
		c0.2,0.1,0.3,3,0.3,6.4c0.1,4.5-0.1,6.7-0.5,8c-1.3,3.4-1.7,2.4-1.4-3.6c0.2-4.6,0.1-5.8-0.5-7
		C321.5,360.5,321.4,359.5,321.5,359.1z M310.2,372.7c0.7-2.2,1.2-7.7,0.9-10.7l-0.2-3.3l1.3-1c1.8-1.3,2.5-0.7,1.8,1.6
		c-0.2,0.9-0.6,3-0.7,4.7l-0.7,5l0-0.1c-0.2,1.1-0.9,2.6-1.5,3.3C310.3,373.1,310,373.3,310.2,372.7z M316.7,369.4
		c-0.2-1.5-0.1-1.9,0.8-2.6c1.2-1.1,2.4-1.1,2.6-0.1c0.1,0.4-0.3,2-0.8,3.6c-1.1,3.1-2.6,4.7-5.3,5.6c-2,0.7-8.9,1-10.8,0.5
		c-0.8-0.2-1.7-0.6-2.1-0.9c-1.2-1,0-1.4,3.4-1c1.7,0.3,3.8,0.3,4.5,0.3C316,374.1,317.4,373.1,316.7,369.4z M269.3,345.6
		c1-0.7,5.3-1.6,3,0.5c-2.2,1.9-2.6,5-4,7.4c-1.3,1.8-1.6,4.6,0.7,5.7c4,2.7,9,2.3,13.5,2.6c2.5-0.5,0.9,3,2.6,3
		c1.8,0,5.1-1.7,5.7,1c-0.9,1.9,1.5,1.8,2.6,1c1.4-0.8,5.1-2.3,4.3,0.7c-0.2,2.1,3.2,2.5,4.2,1c1.3-2.2,1.3-4.9,1.3-7.4
		c-1.2-2.1,0.2-4.3,2.5-4.7c0.8,1.7-0.4,3.9-0.4,5.8c-0.6,2.8-0.3,6.4-2.7,8.4l-0.7,0.5c-1.9,0.9-4.7,1.2-6.2-0.5
		c-0.5-2.4-2.8-1.8-4.7-1.4c-1.4,0.3-5.3,0.4-3.3-2c-0.1-1.5-3.1-0.6-4.4-1c-2.3,0.7-1.3-2.5-3.1-2.6c-4.5-0.3-9.1-0.8-13.1-2.8
		c-2.3-0.5-2.4-4-5-3.5c-2.7-0.7-5.2-1.9-7.4-3.6c-1.2-0.8-2.4-4.7-0.2-4.2c2.5,2,4.5,5.3,8,6c2.4,0.3,3.8-2.1,4.8-3.9
		C269.1,349.9,267.1,346.8,269.3,345.6z M261.8,349.5c1.2-2.2,2.1-4.5,2.5-7c0.1-0.9,0.5-1.3,1.5-1.5c1.9-0.4,2.6,0.4,1.4,1.6
		c-0.8,1.1-1.5,2.3-2,3.6c-0.7,1.5-1.5,2.9-2.4,4.2c-0.8,0.9-1.7,1.7-2,1.7C260.1,352.1,260.1,352,261.8,349.5z M237.8,334.7
		L237.8,334.7c1.5,0.1,3.2,1.5,4.7,4.1c2,3.2,5.6,3.6,9,1.2c1.1-0.8,2.4-1.4,3.1-1.4c1.6,0,3.4,1.2,3.4,2.2c0,1.7-2.1,4.3-4.3,5.5
		l-2.6,1c-0.2,0-0.5-0.8-0.5-1.8l-0.2-1.9l-3-0.2c-4.7-0.4-5.8-1.1-7.5-4.6c-0.6-1.3-1.3-2-2.3-2.3
		C235.8,335.9,235.9,334.7,237.8,334.7z"/>
	<path fill="#CF1126" d="M254.7,343.2c0.4-1.3,0.3-2-0.6-2H254c-0.9,0-1.4,1-1,2C253.3,344,254.4,344,254.7,343.2z"/>
	<path fill="#CF1126" d="M380.7,339.7c-1.5,0-2.1,1.9-1.1,3.5c0.6,1.1,0.8,1.1,1.6,0.4c0.6-0.6,0.7-1.3,0.7-2.3
		C381.7,339.9,381.7,339.7,380.7,339.7z"/>
	<path fill="#CF1126" d="M374.8,311.3c-1.5,0-1.9,1.5-0.6,2.2C376.6,315.3,377.7,311.2,374.8,311.3z"/>
	<path fill="#CF1126" d="M385.1,308.3c-1.1,0-2,1.1-1.6,2.1C384.7,313.1,387.3,308.9,385.1,308.3z"/>
	<path fill="#CF1126" d="M346.3,337.3h-0.1c-1.3-0.1-1.7,1.2-1,2.2c0.3,1.1,2.2,2,2.7,0.5C348.2,338.9,347.6,337.3,346.3,337.3z"/>
	<path fill="#CF1126" d="M263.2,313.6c-0.6,0-1.2,0.3-1.8,0.7c-1,0.2-0.9,1.3,0.2,1C262.4,315.4,264.5,314.3,263.2,313.6z"/>
	<path fill="#CF1126" d="M259.4,316.2c-1.2,0.3-0.2,1.9,0.8,1.1C261.6,316.9,260.1,316.2,259.4,316.2z"/>
	<path fill="#CF1126" d="M295,327.6l-0.8,0.4c-0.5,0.3-0.7,0.8-0.5,1.3c0.3,0.9,2,0.9,2.3,0c0.2-0.3,0-1-0.3-1.3
		S295.2,327.6,295,327.6z"/>
	<path fill="#CF1126" d="M400.1,286c2.8,3,3.8,3.4,4.5,2c0.1-0.2,0.2-0.5,0.2-0.7l-0.4,0.1l-4.9-2.4l-0.5-0.3
		C399.3,285.1,399.7,285.5,400.1,286z"/>
	<path fill="#CF1126" d="M347.6,313.1c-12.7,4.1-26.3,8.1-39.7,4.3c-33.5-4.9-61.5-32.9-67.5-66.1c-2.2-9.8-2.3-19.9-0.6-29.7
		c1.2-6.8,3.3-13.5,6.4-19.8c-5.2,5-9.2,11.3-12.2,18c-2.1,4.8-3.7,9.9-4.8,15c-4.9,26.7,0.1,56,16.4,78.1
		c3.9,5.4,8.3,10.2,13.2,14.6c14.4,12.8,32.6,20.8,52,22.6h0.1c6.3,0.4,12.5,0.3,18.8-0.4c7.2-0.8,14.3-2.2,21.2-4.4
		c27.3-8.6,48.2-31.7,57.3-58.5l-1.5,0.2c-0.1,1.7-1,3-2.8,4.3c-1,0.8-1.9,1.7-1.9,2s-0.8,1.2-1.8,2.2v-0.1c-0.9,0.9-1.8,1.7-2,1.7
		l-1.8-2c-2-2.6-4.4-5-7-7c-1-0.5-1.2-0.9-1.2-2.2c0-1,0.2-1.4,0.5-1.4c3.7,2.7,6.7,6.1,9,10c0.5-0.2,1-0.6,1.4-1
		c1.8-1.4,1.6-2.9-0.7-5.5c-1.5-1.5-2-2.5-2-3.5c0-0.4,0-0.7,0.1-1l-2-1l-2.5-8.7l-0.1-0.2C382.9,291.7,366.8,306.4,347.6,313.1z
		 M362.4,310.4c0.7-0.7,1.9-0.1,1.7,0.8l0.1,0c-0.2,0.4-0.6,0.9-1,0.9C362.4,312.3,361.7,311,362.4,310.4z M303.2,323.2
		c0.5-0.1,0.8,0.1,0.8,0.8c0,0,0,0,0-0.1v0.1c0,0,0,0,0,0c0,0.7-0.3,0.9-0.9,0.9C301.9,324.9,302.1,323.4,303.2,323.2z M287.6,318
		c0.2-1,1.8-1.2,1.8-0.2c0,0.4-0.4,0.8-1,0.8C287.6,318.7,287.4,318.6,287.6,318z M278.4,310.9c0.9,0,1.7,0.2,1.7,0.4
		c0,0.1-1.2,1.6-2.6,3.1c-3.9,4-6.9,7.7-6.9,8.4c0,1,2,2.1,3.2,1.8c0.7-0.2,1.1-0.7,1.3-1.5c0.1-1,0.6-1.4,1.3-1.6
		c1.5-0.4,2.1,0.1,1.8,1.4c-0.3,1.3,0,1.3,1.7-0.3c2.7-2.3,3.1-1.5,1,1.5c-1,1.4-1.3,2.2-1.1,3c0.7,2.4,5.5,3.3,7.5,1.3
		c0.8-0.7,1-1.4,1-3c0-2.4,0.6-3.7,1.8-3.7c0.8,0,0.8,0.2,0.6,3.2c-0.3,4.1-0.3,4-2.7,5.5l0,0c-2.4,1.6-5.5,1.7-8,0.4
		c-2-1-2.5-2-2.5-4.5v-2l-1.6,1.1c-2,1.4-4.6,1.5-6.6,0.2c-2.4-1.5-2-2.6,3-8.2c2.4-2.7,4.3-5.3,4.3-5.7
		C276.6,311.1,277,310.9,278.4,310.9z M270,327.6c-0.2,0.9-1.1,1.3-1.5,0.6c-0.3-0.6,0.2-1.3,0.9-1.3
		C269.8,326.9,270,327.2,270,327.6z M242.7,301.8c-5.1-2.9-8-8.6-6.7-13.3c1.1-4.2,4.1-6.6,7.7-6c2.3,0.3,2.4,0.9,0,1.2
		c-3.5,0.5-5.1,2.6-5.1,6.6c-0.2,3.3,1,6.4,3.5,8.6c3.4,3.2,4.7,2.6,3.7-1.6c-0.8-3.5-0.4-4.2,2.7-4.2c1.6,0,3.2,0.3,4.6,1
		c2.4,1.1,5.4,4.2,5.4,5.5c0,0.9-2.7,3.5-3.7,3.5c-1.2,0-1.2-1.3,0-2.4c1.1-1,1.2-1.1,0.4-2.4c-0.7-1.6-4.5-3.6-6-3.3
		c-1.2,0.3-1.3,0.7-0.5,3.8c0.5,2.2,0.4,2.3-0.7,3.3C246.4,303.4,245.4,303.3,242.7,301.8z M257.1,320.1c-0.6,0.4-1.3,2.1-2,1.4
		c-0.2-1.4,0-2.8,0.7-4c0.7-1.1,0.2-2.9-1.3-2.9c-1.3,0.4-1.7-0.9-1.7-2c-0.4-1.3-2-1.6-3-2.3c-1.3-0.6-2.7-1.5-2.6-3.1
		c-0.1-1.2,1.6-2.3,2.6-1.5c0.6,1.1,0.3,2.7,1.6,3.4c1.2,0.7,2.6,1.2,3.9,0.8c1.8-0.9,3-2.6,4-4.3c0.5-1.1,1.4-2.3,2.7-2l0,0
		c0.4,0,0.9,0,1.3,0.2c1.1,0.8-0.7,1.4-1.2,2c-1.7,1.9-3.5,3.7-5.1,5.7c-0.9,0.7-1.9,2.7,0,2.7c2.5-0.2,4.4-2.3,6.8-2.5
		c1,0,2.4,0,2.9,1c-0.5,1.1-1.5,1.9-2.3,2.7c-0.3,0.6-2.1,1.1-1.5,1.6c1.5,0.3,3.1,0.6,4.6,0c1.9-1.5,3.5-3.3,5-5.2
		c0.9-0.9,1.3-2.4,2.6-2.9c1.5-0.8,2.2,1.8,0.8,2.2c-1.9,1.5-3.3,3.6-5.1,5.4c-1.2,1.4-2.7,2.6-4.7,2.6c-2.7,0.1-5.3-0.3-8-0.4
		L257.1,320.1z M338.3,333c-0.7,2-5.3,4.7-8.7,5.1c-1.1,0.1-2.7-0.1-4.1-0.5c-2-0.7-2.8-0.7-7.2-0.3c-4.7,0.4-5,0.3-5.6-0.4
		c-0.4-0.6-1.1-0.9-2.4-0.9l-4.7-0.2c-2.9-0.3-2.9-0.3-2.9-1.5c0-1.5-0.1-1.5-3.2-1.9l-2.5-0.3l-2.2,2.3c-1.2,1.4-2.7,2.6-4.3,3.4
		c-2.8,1.2-7.2,1.5-10.8,0.5c-3.3-0.7-4.7-1.5-5.1-3c-0.3-1.4,0.1-1.7,1.7-1c6.7,2.7,10.2,3,14.2,1c2.8-1.4,3.2-2.4,1.5-3.2
		c-2.5-1.2-1.5-4.1,2-6.6c0.7-0.5,1.4-0.7,2-0.7h0c1.3,0,2.3,1.1,2.3,3c0,3,1.1,3.5,5,2.5c1.5-0.4,2.1-0.4,2.5,0
		c0.4,0.5,0.4,0.7,0,1.5c-0.5,0.7-0.5,1,0.2,1.7c0.7,0.8,1.1,0.9,5,0.7c3.5-0.3,4.2-0.2,4.2,0.3c0,1.2,0.9,1.2,3.3,0.2l2.4-1l1,1
		c0.7,0.6,1.1,0.8,1.3,0.5c0.5-0.7,2.7-0.6,4.3,0.2c0.9,0.5,2,0.7,3,0.5c1.7-0.3,5.7-2.1,6.2-2.9c0.1-0.2-0.3-0.8-1-1.3
		c-1-0.8-1.6-0.9-3.4-0.7c-2.1,0.2-2.3,0.1-2.3-0.6c0-1.2,1.6-2.2,3.3-2.2c1.2,0.1,2.4,0.4,3.5,0.9c1.5,0.5,3,0.9,4.6,1.1
		c3.1,0.4,3,1.1-0.4,1.8C339.6,332.3,338.3,332.7,338.3,333z M353,337.3c-1,0.5-2.6,0.2-3,1.5c-0.4,1.2-0.6,2.7-1.8,3.3
		c-1.2,0.5-2.7,0.9-4,0.5c-0.8-1-0.8-2.5-1-3.7h-3.7c-0.3-0.1-0.9,0.1-1.1-0.2c0.1-1.3-0.2-2.7,0.4-4c1-0.7,1,1.7,2.2,1.7
		c1.8,0.2,3.2-1.5,5.1-1.6c2,0,4,0.6,6,0.7c1.2,0.3,2.1-0.8,2.4-1.8c0.8-2.8-0.2-5.7-1-8.4c-0.8-2.3-1.5-4.8-3.2-6.5
		c-0.2-0.4-0.6-0.7-0.1-1c0.6-0.8,1.1-1.8,2.1-2.3v0l0.4,0.2c0.6,1.6,1,3.3,1.5,4.9c1.2,3.6,2.6,7.1,2.8,11
		C357.1,334.2,355.5,336.5,353,337.3z M383.5,291.3c0.1-2.4,1.9-3.8,3.6-3c1.3,0.6,1.2,1.4-0.4,2.1l-1.2,0.9c0,1,0.9,0.9,2,0
		c1-0.8,2.3-0.8,2.3,0c0,0.2-0.4,1-1,1.8c-0.6,0.8-1.1,1.9-1.1,2.4s-0.2,1.2-0.5,1.4l0,0c-1,1.1-1.7,0.5-1.4-1.1c0.2-1,0-1.3-1.1-2
		C383.5,293.1,383.4,292.9,383.5,291.3z M386.9,303.8c2-0.4,4.7-1,5.5-3c-0.4-1.6-1.8-3.9,0-5h0h0l0,0c1.7,0.1,1.7,2.4,1.7,3.7
		c0.2,2.4-1.4,4.5-3.5,5.5c-1.5,0.8-3.8,1.8-3.2,4c0.6,1.9-1,4.2-2.9,4.2c-1.9,0-4.4-0.4-5.4,1.6c-0.8,2.6,0.1,5.5-1,8.1
		c-1.5,3.4-4,6.5-7.5,8c-1.5,0.9-1.4-0.8-0.3-1.5c2.5-2.2,5.2-4.6,6.2-8c0.3-1.6,1.6-3.8,0.6-5.3c-2-0.6-4.2-0.6-6.2-1
		c0.1,1.8,0.4,3.6,0.1,5.4c-0.9,2.3-2.9,4.6-5.6,4.9c-1.8,0.4-3.7-0.4-5.5-0.2c-0.6,1.9,0.1,4-0.6,5.9c-1.1-0.5-0.6-2.8-1-4
		c-0.7-2.9-1.5-5.9-3.3-8.3c-0.4-1.2,0.7-3.5,2-3.7c1.2,1.3,0.6,3.4,1.6,4.9c1.3,1.8,1.3-1.5,2.1-2.1c1.7,0.2,0.6,3.3,2.2,4.2
		c1.7,1.7,4.7,0.3,5.7-1.7c1-1.7,0-3.5-1-5c-1.1-1.2-2-4.2,0.4-4.5c1.4,0.4,1.7,2.1,2.4,3.2c0.5-1.5,0.8-3.1,2-4.2
		c1.5-1.6,3.9-0.5,5.2,0.8c1.5,2.4,2.9,0,3.5-1.6C382.1,306.6,384.1,304.3,386.9,303.8z"/>
	<path fill="#CF1126" d="M215.8,316.7c0.9-1.4-0.7-2.9-2.1-2.6c-2,0.5-4,1.3-6,1.9c-4.4,1.2-9,1.7-13.5,1.3
		c-3.3-0.5-6.5-1.4-9.6-2.8c-1.1-0.5-2.1-1.1-3.3-1.3c-1.7-0.3-3.5,1.4-2.9,3.1c1.2,1.7,3.3,2.7,5.2,3.5c4.9,1.9,10.2,2.7,15.5,2.4
		c3.9,0,7.7-0.7,11.3-2C212.5,319.6,215,318.9,215.8,316.7z"/>
	<path fill="#CF1126" d="M213.1,310c0.6-1.1,0.1-2.7-1.3-2.9c-1.2,0-2.3,0.8-3.5,1.1c-1.9,0.8-3.8,1.3-5.8,1.7
		c-2.6,0.5-5.3,0.6-7.9,0.4c-2.9-0.3-5.7-1.4-8.3-2.7c-1-0.5-1.9-1.2-3-1.3l0-0.1c-1.7-0.3-3.1,1.7-2.5,3.3c1.3,1.9,3.5,2.9,5.6,3.7
		c3.6,1.4,7.5,2.1,11.3,1.9h1c3.3,0,6.6-0.6,9.6-1.9c0.7-0.3,1.5-0.6,2.3-1C211.7,311.9,212.7,311.2,213.1,310z"/>
	<path fill="#CF1126" d="M206.9,306.8c1.7-0.7,3.6-1.5,4.2-3.5c0.3-0.9,0.4-2.1-0.6-2.7c-1.1-0.5-2.1,0.3-3,0.7
		c-3.2,1.7-6.7,2.6-10.3,2.6c-3.1-0.1-6.1-1-8.7-2.7c-1-0.5-1.8-1.3-2.9-1.5c-1.5-0.2-2.5,1.5-2.2,2.7c0.1,0.8,0.6,1.4,1.1,1.9
		c0.3,0.3,0.6,0.6,1,0.8c3.6,2.5,8,3.8,12.4,3.5h0.5h0.6C201.6,308.6,204.4,308,206.9,306.8z"/>
	<polygon fill="#CF1126" points="185.5,299.7 185.5,299.7 185.5,299.7 	"/>
	<path fill="#CF1126" d="M185.5,298.3c4.7,2.4,9.7,4.7,15,3.8c3.1-0.7,9-1.2,9.7-4.3l-0.7-53c-1.8-5.4-7.3-8.2-11.4-11.7
		c-3.4-3.4-6.6-6.9-9.5-10.7c-1.7-3-8.6-4-6.1,1.1c1.5,4.5,5.1,7.7,6.1,12.4c0.2,2.6,3.3,7.3,0.7,8.8c-1.6-2.9-4.1-5.2-7.1-6.7
		c-2.9-2.2-7.8-3.1-8.9-7c-1-5.5-3.5-10.6-7.3-14.7c1-4.9,0-11.1-4.3-14.3l-0.6-0.1c-2.1,2.2-0.5,6.2-0.7,9c1.2,8.8,2.6,17.7,5.9,26
		c4,8,12.5,12.3,17.7,19.5c1.9,3.4,1.2,7.5,1.6,11.3C185.7,277.8,185.7,288.1,185.5,298.3z"/>
	<path fill="#CF1126" d="M167.3,215.9c3.7,4.1,6.1,9.1,7.1,14.5c0,2,2.1,2.7,3.5,3.7c3.3,2.1,6.9,3.6,9.8,6.2c0.6,0.7,1.1,1.3,0.7,0
		c-0.5-1.7-0.7-3.6-2-4.9c-1.9-2-4.1-3.7-6.8-4.3c-0.2-2.8-1.5-5.3-2.7-7.7c-1.3-2.3-2.7-4.8-5-6.3c0-4.1,0-8.3-1.7-12.1
		c-0.5-0.9-1.3-2.1-2.5-2.1c-2,0.3-1.9,2.8-1,4.1C167.6,209.8,167.8,212.9,167.3,215.9z"/>
	<polygon fill="#CF1126" points="167.6,202.8 167.6,202.8 167.6,202.8 	"/>
	<path fill="#CF1126" d="M173.1,216.3c2.6,2,4.1,4.9,5.6,7.7c0.9,1.9,1.7,3.9,2.1,5.9c2.1,0.7,3.9,2,5.5,3.3c-0.7-1.9-2-3.3-3-5.1
		c-1-1.8-2-3.7-2.5-5.8c-2-2.1-3.1-5.1-2.7-8c0.1-3.1-0.9-6.4-3-8.8c-0.5-0.5-1.2-1.1-2-1.2c-1.3,0.4-1.1,2.1-0.7,3.1
		C173.1,210.4,173.3,213.4,173.1,216.3z"/>
	<path fill="#CF1126" d="M179.5,215.5c-0.1,1.7,0.5,3.3,1.3,4.7c0.3-1.1,1.2-1.8,2.3-1.9c0.3,0,0.9,0.1,0.7-0.5
		c-0.3-3.2-0.7-6.4-1.9-9.3c-0.4-1.1-0.9-2.3-1.9-3c-0.1-0.1-0.4-0.3-0.7-0.2h0.1c-0.8,0.1-1.2,0.8-1.6,1.4
		c-0.2,0.6,0.5,1.2,0.7,1.9C179.4,210.8,179.7,213.2,179.5,215.5z"/>
	<path fill="#CF1126" d="M340.1,302.5c-2,1.3-4.5,1.3-6.5,2.7c-2.2,1.9-4.4,3.9-7.1,5.1c-2.2,0.9-1.7-2.1-0.9-3.1
		c0.9-2.7-0.9-5.3-2.3-7.5c-1-0.9-2-3.8-3.4-3.3c-2,2.3-3.9,4.7-5.1,7.5c-0.8,1.6-0.2,3.3,0.7,4.7c0.7,2.6-3,1-4.1,0.2
		c-2.3-1.3-3.7-3.6-6.1-4.6c-1.9-0.2-3.7-0.8-5.3-1.7c-0.9-0.2-2.7-2.5-2.9-1c3,8.8,10.7,15,19.9,16h0c2.9,0.3,5.9,0.1,8.8-0.4
		c4.9-0.9,9.3-3.5,12.5-7.3c2.1-2.5,3.7-5.2,4.9-8.2C343,300.5,341.1,302.3,340.1,302.5z"/>
	<path fill="#CF1126" d="M324.6,265.2c-1.7-0.1-0.6-3.2-1.7-4.4c-0.5-1.5-2.1-4.5-3.7-2.3c-1.6,1.4-1.8,3.6-2.5,5.4
		c-1.9,0.9-3.1-2.6-5.2-2.8c-1.2-0.9-5.1-0.5-2.7,1.3c2.5,2.1,3.1,5.4,2.9,8.5c0.2,4-1.9,7.6-3.2,11.3c-1.7,4.4-2.6,9-2.4,13.7
		c-0.1,2.9,0.9,5.7,2.7,8c0.9,1,2.9,4,3.9,2.3c0.1-3.5,2.5-6.5,4.5-9.3c1.2-1,2.2-4.5,4.1-3.5c2,2.6,3.9,5.1,5.3,7.9
		c0.9,1.7,1.3,3.5,1.1,5.3l0,0c0.1,0.5,0.7,0.5,1,0.3c2.5-1.8,4.7-4.5,5.3-7.5c1.5-7-0.8-14.1-3.8-20.3c-1.5-3.1-2.4-6.7-1.8-10.3
		c0.4-2.9,2.1-5.2,4.1-7.1c1.5-1.2-0.4-1.9-1.5-1.2C328.3,261.2,326.7,263.7,324.6,265.2z"/>
	<path fill="#CF1126" d="M313.5,260.1c1.9,1.8,2.8-0.5,3.5-1.9c1.1-1.1,2.1-3.1,3.7-3.1c1.6,1.3,2.8,2.9,3.7,4.7h0
		c0.3,0.6,0.6,1.3,1.1,1.7c2-0.9,3.9-2.4,4.5-4.7c0.5-2.2,0.8-4.4,0.8-6.7c0-1.6-0.2-3.2-0.5-4.8c-0.6-3.3-2.2-6.3-3.1-9.7
		c-1.1-4.2-0.2-8.6,2.5-12c0.7-1.3,3-2.5,2.4-4c-1.7-0.8-3.6-0.7-5.2,0.3c-1.5,0.8-2.3,2.5-3.9,3.1c-1.7-0.9-0.3-3.7-1.7-5.2
		c-0.9-2.3-3-0.2-3,1.4c-0.6,1.1-0.1,3.5-1.3,3.9c-1.7-1.5-3-3.4-5.3-4c-1-0.2-3.7-0.7-3.8,0.3c2.1,2.7,4.8,5.1,5.7,8.4
		c0.7,2.9,1,6.2-0.1,9.1c-0.9,2.3-1.8,4.6-2.6,6.9c-0.7,2.4-1.2,4.9-1.1,7.5C310.1,254.5,310.5,258.3,313.5,260.1z"/>
	<path fill="#CF1126" d="M355.9,164.3c-8.4-2.9-18.9-2.8-24.9,0.2c-2.8,1.5-5.5,3.8-6.1,5.5c-0.1,0.3-0.3,0.5-0.4,0.7v3.6h-6.5v-3.6
		c-0.5-0.4-1.1-1-1.8-1.6c-4.7-4.7-9.9-6.6-18.1-6.6c-9,0.1-17.7,3.3-24.5,9.1c-4.9,3.5-10.3,6.3-16,8.1c-2.9,0.9-4.5,1-10,1
		c-3.5,0.2-7.1-0.1-10.5-0.9c-0.5,0.6,2.4,5.6,4.5,7.6c3.1,3,5.3,4,9.3,4.3c4.3,0.3,6.6-0.5,14.8-4.5c6.3-3.1,9.9-4.3,12.3-4
		c1.8,0.2,1.7,1.1-0.2,1.5c-4.3,0.7-8.4,2.1-12.1,4.3c-4.3,2.3-8.9,4-13.6,5.2c-0.1,0.1,0.2,0.9,0.7,1.8c2.7,5,11,5.5,16.5,0.9
		c4.8-3.9,12.7-7.6,16.7-7.8c2.1-0.1,2.8,0.9,0.9,1.2c-5.8,1.3-13.1,4.8-17,8.1c-1,0.8-2,1.5-3.1,2.1c-0.7,0.5-1.3,1-1.3,1.2
		c0,0.9,2.7,3.5,4.2,3.9c3.1,0.6,6.3,0.4,9.3-0.7c1.1-0.5,3.1-2,4.5-3.3c4.9-4.4,11.2-8.5,13.2-8.5c1.5,0,1,0.8-1.4,2
		c-3.9,2.2-7.5,4.8-10.7,7.7c-0.9,0.9-1.9,1.7-2.9,2.5c-1.7,1.1-1.7,2-0.3,3.7c2.9,3.4,9.1,2.7,15.7-1.7c2.7-2.2,5.2-4.6,7.6-7.1
		c3.8-3.9,5.7-5.5,6-5.2c0.3,0.3-0.3,1.3-1.9,3.2c-1.9,2.4-2.2,3-2.2,4.5c0.1,3,1.8,3.9,5.3,2.9c2.2-0.6,2.5,0.1,0.9,2.2
		c-1,1.5-1.3,2.3-1.3,3.9c0,3.1,0.7,4.7,3,6.3v0c0.7,0.5,1.3,1,2,1.5c0.5-0.7,0.9-1.3,1.3-2c2-3.1,3.8-3.1,5.8,0
		c0.6,0.9,1.3,1.6,1.5,1.6c0.3,0,1.3-0.7,2.3-1.5c3.2-2.7,3.5-6.6,1-9.9c-1.7-2.1-1.3-2.7,1.3-2.1c2.5,0.7,3.8,0.3,4.5-1.5
		c0.9-2.1,0.5-3.5-1.8-6c-1.8-2.1-2.4-3.3-1.5-3.3c2,1.6,3.8,3.3,5.5,5.2c7.1,7.3,11.6,10.1,17.3,10.7c2.9,0.3,5.1-0.5,6.5-2.2
		c1.3-1.7,1.4-2.7,0.1-3.3c-0.5-0.3-2-1.5-3.3-2.7c-3.2-2.9-6.7-5.3-10.5-7.3c-2.9-1.5-3.7-2.5-2-2.5c2,0,8.2,4,14.9,9.5
		c3.1,2.7,6.2,3.7,9.7,3.3c2.7-0.3,5.2-1.7,6.1-3.5c0.6-1.1,0.6-1.3-0.1-1.7l-3.9-2.9c-5.5-4-10.9-6.7-15.4-7.3
		c-1.4-0.2-2-0.5-2.1-1c-0.5-2.7,12.6,2.3,17.9,6.7c3.1,2.6,5.1,3.3,8.7,3.3c1.3,0,2.5-0.1,3.6-0.4c0-0.1-0.1-0.2-0.1-0.3l-2.9-7.7
		c-1.7-0.7-3.4-1.5-5.1-2.4c-6-2.9-10.3-4.3-12.5-4.3c-0.6,0-1-0.3-1-0.7c0-1.9,7.6,0,14,3.5c1.5,0.8,2.9,1.5,4.3,2l1.5-7.1
		c0.2-1.1,0.4-2.1,0.6-3c-5.5-1.8-10.8-4.5-15.6-7.9C363.6,168,359.9,165.9,355.9,164.3z"/>
	<polygon fill="#CF1126" points="324.5,174.3 324.5,170.7 324.5,155.3 321,158 317.9,155.7 317.9,170.7 317.9,174.3 	"/>
	<path fill="#CF1126" d="M338.9,135.9c-1.1,0.8-2.4,1.5-3.8,2.1c-9.2,4-24.6,4-31.8-1.9v0.1c-0.6,7.5-2.6,14.8-6,21.5l7.4-6.9
		l5.1,6.1l5.6-6.3l5.7,5.3l5.5-5.5l5.7,6.7l4.9-5.5l8.4,6c-2.7-5.8-6.1-11-6.6-18.5C338.8,138.1,338.8,137,338.9,135.9z"/>
	<path fill="#CF1126" d="M333,132.3c-2.7-0.5-5.7-0.5-8.6-0.7v3v1.7H318v-3.7v-0.9c-1,0-1.9,0-2.9,0c-2.1,0.1-4.1,0.2-6.1,0.6
		c-1.9,0.3-3.6,1-5.2,2c0.2,4.8,19.4,7.2,29.8,3.2c2-0.8,3.6-1.8,4.8-3C336.9,133.4,335.1,132.7,333,132.3z"/>
	<path fill="#CF1126" d="M319.1,135.6h4.3l0-1.3l0-14.3l-1.6-0.8l1.6-15.8l0,0l0-0.3c-0.5,0.1-1,0.2-1.6,0.2
		c-0.9,0.7-1.7,1.4-2.6,2.2V133V135.6z"/>
	<polygon fill="#CF1126" points="329.7,116.2 340.9,112.5 323.3,103.5 323.3,103.5 321.7,119.3 323.3,120.1 337.9,127.2 	"/>
	<path fill="#CF1126" d="M325.7,101.4c0-0.3-0.2-0.6-0.4-0.9c-1.2,0.9-2.4,1.9-3.6,2.9c0.6,0,1.1-0.1,1.6-0.2
		C324.8,102.9,325.7,102.2,325.7,101.4z"/>
	<path fill="#F7E017" d="M328.7,375.3L328.7,375.3c0.4-0.4,1.7-1,3-1.5c1.7-0.5,2.6-1,3.3-2.2c2.1-3,1.7-5.7-1.3-9.3
		c-1.7-2-2.4-1.9-3.7,0.3c-1.2,1.8-1.1,2,0.5,2.4c0.9,0.2,1.7,0.8,2.1,1.6c1.8,3.1,1.3,5-1.4,5c-2.4,0-3,0.4-3.7,2l-0.6,1.9
		C326.9,376.1,327.9,376,328.7,375.3z"/>
	<path fill="#F7E017" d="M322.5,368.2c-0.3,6,0.1,7,1.4,3.6c0.4-1.3,0.6-3.5,0.5-8c0-3.4-0.1-6.3-0.3-6.4c-0.4-0.4-2.3,0.8-2.6,1.7
		c-0.1,0.4,0,1.4,0.5,2.1C322.6,362.4,322.7,363.6,322.5,368.2z"/>
	<path fill="#F7E017" d="M301.1,375.5c0.4,0.3,1.3,0.7,2.1,0.9c1.9,0.5,8.8,0.2,10.8-0.5c2.7-0.9,4.2-2.5,5.3-5.6
		c0.5-1.6,0.9-3.2,0.8-3.6c-0.2-1-1.4-1-2.6,0.1c-0.9,0.7-1,1.1-0.8,2.6c0.7,3.7-0.7,4.7-7.7,5.4c-0.7,0-2.8,0-4.5-0.3
		C301.1,374.1,299.9,374.5,301.1,375.5z"/>
	<path fill="#F7E017" d="M267.3,351.6c-1,1.8-2.4,4.2-4.8,3.9c-3.5-0.7-5.5-4-8-6c-2.2-0.5-1,3.4,0.2,4.2c2.2,1.7,4.7,2.9,7.4,3.6
		c2.6-0.5,2.7,3,5,3.5c4,2,8.6,2.5,13.1,2.8c1.8,0.1,0.8,3.3,3.1,2.6c1.3,0.4,4.3-0.5,4.4,1c-2,2.4,1.9,2.3,3.3,2
		c1.9-0.4,4.2-1,4.7,1.4c1.5,1.7,4.3,1.4,6.2,0.5l0.7-0.5c2.4-2,2.1-5.6,2.7-8.4c0-1.9,1.2-4.1,0.4-5.8c-2.3,0.4-3.7,2.6-2.5,4.7
		c0,2.5,0,5.2-1.3,7.4c-1,1.5-4.4,1.1-4.2-1c0.8-3-2.9-1.5-4.3-0.7c-1.1,0.8-3.5,0.9-2.6-1c-0.6-2.7-3.9-1-5.7-1
		c-1.7,0-0.1-3.5-2.6-3c-4.5-0.3-9.5,0.1-13.5-2.6c-2.3-1.1-2-3.9-0.7-5.7c1.4-2.4,1.8-5.5,4-7.4c2.3-2.1-2-1.2-3-0.5
		C267.1,346.8,269.1,349.9,267.3,351.6z"/>
	<path fill="#F7E017" d="M311.1,372.2c0.6-0.7,1.3-2.2,1.5-3.3l0,0.1l0.7-5c0.1-1.7,0.5-3.8,0.7-4.7c0.7-2.3,0-2.9-1.8-1.6l-1.3,1
		l0.2,3.3c0.3,3-0.2,8.5-0.9,10.7C310,373.3,310.3,373.1,311.1,372.2z"/>
	<path fill="#F7E017" d="M237.6,336.5c1,0.3,1.7,1,2.3,2.3c1.7,3.5,2.8,4.2,7.5,4.6l3,0.2l0.2,1.9c0,1,0.3,1.8,0.5,1.8l2.6-1
		c2.2-1.2,4.3-3.8,4.3-5.5c0-1-1.8-2.2-3.4-2.2c-0.7,0-2,0.6-3.1,1.4c-3.4,2.4-7,2-9-1.2c-1.5-2.6-3.2-4-4.7-4v-0.1
		C235.9,334.7,235.8,335.9,237.6,336.5z M254,341.2L254,341.2c1,0,1.1,0.7,0.7,2c-0.3,0.8-1.4,0.8-1.7,0
		C252.6,342.2,253.1,341.2,254,341.2z"/>
	<path fill="#F7E017" d="M360,360.3l2.1-1l2-1.2l1.1,1c0.7,0.4,1.2,1.2,1.2,1.7c0,2.4-6.8,6.4-11.4,6.8c-2.5,0.2-3,0-3.8-0.8
		c-0.7-0.7-0.9-1.3-0.7-2l0.5-2.6c0.4-2.1-0.4-1.8-2,0.6c-1.2,2-1.6,4.1-0.9,5.2c0.6,1,4.4,1.8,7.2,1.6c1.7,0,3.4-0.5,5.2-1.4l0,0
		c3.9-2,6.2-4.1,7.6-7.2c0.5-1,1-2,1.3-3.1c0-0.6-1.9-1.5-3-1.5c-1.1,0-1.4-0.8-1-3c0.5-2.1,0-4.8-1-4.8c-0.3,0-1,0.5-1.3,1.1
		c-0.6,1-0.7,1.4-0.2,2.7c0.7,2,0.1,3.6-1.7,4.9c-0.9,0.6-1.3,1.3-1.3,2L360,360.3z"/>
	<path fill="#F7E017" d="M260.8,352.1c0.3,0,1.2-0.8,2-1.7c0.9-1.3,1.7-2.7,2.4-4.2c0.5-1.3,1.2-2.5,2-3.6c1.2-1.2,0.5-2-1.4-1.6
		c-1,0.2-1.4,0.6-1.5,1.5c-0.4,2.5-1.3,4.8-2.5,7C260.1,352,260.1,352.1,260.8,352.1z"/>
	<path fill="#F7E017" d="M359.8,350.9L359.8,350.9c0.2-0.7-1.2-1.2-1.7-0.6c-0.3,0.2-0.4,0.6-0.2,0.9
		C358.3,351.8,359.5,351.6,359.8,350.9z"/>
	<path fill="#F7E017" d="M375.1,359.8c2.8-1.4,6.4-5,7.9-8c1.1-2.3,1.3-3,1.5-7c0-3.8,0-5-0.6-6.2c-0.8-1.4-1-1.5-2.8-1.5h-0.5v0.1
		c-1.3,0-1.6,0.2-2.4,1.4c-1.3,1.9-1.4,6-0.2,7.4c0.7,0.9,0.8,0.9,2.3,0.2c2.2-0.9,2.6-0.8,2.5,0.3c0,3-4.2,8.7-8.6,11.7
		c-0.9,0.5-1.7,1.2-2.4,2C371.5,361,373.1,360.9,375.1,359.8z M381.2,343.6c-0.8,0.7-1,0.7-1.6-0.4c-1-1.6-0.4-3.5,1.1-3.5
		c1,0,1,0.2,1.2,1.6C381.9,342.3,381.8,343,381.2,343.6z"/>
	<path fill="#F7E017" d="M394.9,340.7c-0.2,0.3-0.3,0.7-0.1,1c0.4,0.6,1.6,0.4,1.8-0.3h0C396.9,340.6,395.5,340.1,394.9,340.7z"/>
	<path fill="#F7E017" d="M383.7,355.6c0.5,0,1.8-0.9,2.8-2v0.1c2.4-2.5,3.5-5.5,3.5-10v-3.5l2-1c2.7-1.2,5.2-3.7,5.2-5.1
		c0-1.4-0.7-1.4-1.8,0.2c-0.9,1.1-2,1.8-6,3.7c-1,0.4-1.1,0.7-1.4,5c-0.2,5-1,6.8-3.7,10.2C382.6,355.2,382.5,355.6,383.7,355.6z"/>
	<path fill="#F7E017" d="M352.7,315.7l-0.4-0.2v0c-1,0.5-1.5,1.5-2.1,2.3c-0.5,0.3-0.1,0.6,0.1,1c1.7,1.7,2.4,4.2,3.2,6.5
		c0.8,2.7,1.8,5.6,1,8.4c-0.3,1-1.2,2.1-2.4,1.8c-2-0.1-4-0.7-6-0.7c-1.9,0.1-3.3,1.8-5.1,1.6c-1.2,0-1.2-2.4-2.2-1.7
		c-0.6,1.3-0.3,2.7-0.4,4c0.2,0.3,0.8,0.1,1.1,0.2h3.7c0.2,1.2,0.2,2.7,1,3.7c1.3,0.4,2.8,0,4-0.5c1.2-0.6,1.4-2.1,1.8-3.3
		c0.4-1.3,2-1,3-1.5c2.5-0.8,4.1-3.1,4-5.7c-0.2-3.9-1.6-7.4-2.8-11C353.7,319,353.3,317.3,352.7,315.7z M347.9,340
		c-0.5,1.5-2.4,0.6-2.7-0.5c-0.7-1-0.3-2.3,1-2.2h0.1C347.6,337.3,348.2,338.9,347.9,340z"/>
	<path fill="#F7E017" d="M341.4,330.2c-1.6-0.2-3.1-0.6-4.6-1.1c-1.1-0.5-2.3-0.8-3.5-0.9c-1.7,0-3.3,1-3.3,2.2
		c0,0.7,0.2,0.8,2.3,0.6c1.8-0.2,2.4-0.1,3.4,0.7c0.7,0.5,1.1,1.1,1,1.3c-0.5,0.8-4.5,2.6-6.2,2.9c-1,0.2-2.1,0-3-0.5
		c-1.6-0.8-3.8-0.9-4.3-0.2c-0.2,0.3-0.6,0.1-1.3-0.5l-1-1l-2.4,1c-2.4,1-3.3,1-3.3-0.2c0-0.5-0.7-0.6-4.2-0.3
		c-3.9,0.2-4.3,0.1-5-0.7c-0.7-0.7-0.7-1-0.2-1.7c0.4-0.8,0.4-1,0-1.5c-0.4-0.4-1-0.4-2.5,0c-3.9,1-5,0.5-5-2.5c0-1.9-1-3-2.3-3h0
		c-0.6,0-1.3,0.2-2,0.7c-3.5,2.5-4.5,5.4-2,6.6c1.7,0.8,1.3,1.8-1.5,3.2c-4,2-7.5,1.7-14.2-1c-1.6-0.7-2-0.4-1.7,1
		c0.4,1.5,1.8,2.3,5.1,3c3.6,1,8,0.7,10.8-0.5c1.6-0.8,3.1-2,4.3-3.4l2.2-2.3l2.5,0.3c3.1,0.4,3.2,0.4,3.2,1.9c0,1.2,0,1.2,2.9,1.5
		l4.7,0.2c1.3,0,2,0.3,2.4,0.9c0.6,0.7,0.9,0.8,5.6,0.4c4.4-0.4,5.2-0.4,7.2,0.3c1.4,0.4,3,0.6,4.1,0.5c3.4-0.4,8-3.1,8.7-5.1
		c0-0.3,1.3-0.7,2.7-1C344.4,331.3,344.5,330.6,341.4,330.2z M296,329.3c-0.3,0.9-2,0.9-2.3,0c-0.2-0.5,0-1,0.5-1.3l0.8-0.4
		c0.2,0,0.4,0.1,0.7,0.4S296.2,329,296,329.3z"/>
	<path fill="#F7E017" d="M272.3,317.4c-5,5.6-5.4,6.7-3,8.2c2,1.3,4.6,1.2,6.6-0.2l1.6-1.1v2c0,2.5,0.5,3.5,2.5,4.5
		c2.5,1.3,5.6,1.2,8-0.4l0,0c2.4-1.5,2.4-1.4,2.7-5.5c0.2-3,0.2-3.2-0.6-3.2c-1.2,0-1.8,1.3-1.8,3.7c0,1.6-0.2,2.3-1,3
		c-2,2-6.8,1.1-7.5-1.3c-0.2-0.8,0.1-1.6,1.1-3c2.1-3,1.7-3.8-1-1.5c-1.7,1.6-2,1.6-1.7,0.3c0.3-1.3-0.3-1.8-1.8-1.4
		c-0.7,0.2-1.2,0.6-1.3,1.6c-0.2,0.8-0.6,1.3-1.3,1.5c-1.2,0.3-3.2-0.8-3.2-1.8c0-0.7,3-4.4,6.9-8.4c1.4-1.5,2.6-3,2.6-3.1
		c0-0.2-0.8-0.4-1.7-0.4c-1.4,0-1.8,0.2-1.8,0.8C276.6,312.1,274.7,314.7,272.3,317.4z"/>
	<path fill="#F7E017" d="M381.1,309.1c-0.6,1.6-2,4-3.5,1.6c-1.3-1.3-3.7-2.4-5.2-0.8c-1.2,1.1-1.5,2.7-2,4.2
		c-0.7-1.1-1-2.8-2.4-3.2c-2.4,0.3-1.5,3.3-0.4,4.5c1,1.5,2,3.3,1,5c-1,2-4,3.4-5.7,1.7c-1.6-0.9-0.5-4-2.2-4.2
		c-0.8,0.6-0.8,3.9-2.1,2.1c-1-1.5-0.4-3.6-1.6-4.9c-1.3,0.2-2.4,2.5-2,3.7c1.8,2.4,2.6,5.4,3.3,8.3c0.4,1.2-0.1,3.5,1,4
		c0.7-1.9,0-4,0.6-5.9c1.8-0.2,3.7,0.6,5.5,0.2c2.7-0.3,4.7-2.6,5.6-4.9c0.3-1.8,0-3.6-0.1-5.4c2,0.4,4.2,0.4,6.2,1
		c1,1.5-0.3,3.7-0.6,5.3c-1,3.4-3.7,5.8-6.2,8c-1.1,0.7-1.2,2.4,0.3,1.5c3.5-1.5,6-4.6,7.5-8c1.1-2.6,0.2-5.5,1-8.1
		c1-2,3.5-1.6,5.4-1.6c1.9,0,3.5-2.3,2.9-4.2c-0.6-2.2,1.7-3.2,3.2-4c2.1-1,3.7-3.1,3.5-5.5c0-1.3,0-3.6-1.7-3.7
		c-1.8,1.1-0.4,3.4,0,5c-0.8,2-3.5,2.6-5.5,3C384.1,304.3,382.1,306.6,381.1,309.1z M374.2,313.5c-1.3-0.7-0.9-2.2,0.6-2.2
		C377.7,311.2,376.6,315.3,374.2,313.5z M383.5,310.4c-0.4-1,0.5-2.1,1.6-2.1C387.3,308.9,384.7,313.1,383.5,310.4z"/>
	<path fill="#F7E017" d="M268.5,328.2c0.4,0.7,1.3,0.3,1.5-0.6c0-0.4-0.2-0.7-0.6-0.7C268.7,326.9,268.2,327.6,268.5,328.2z"/>
	<path fill="#F7E017" d="M303.1,324.9c0.6,0,0.9-0.3,0.9-0.9c0-0.7-0.3-0.8-0.8-0.8C302.1,323.4,301.9,324.9,303.1,324.9z"/>
	<path fill="#F7E017" d="M304,323.9C304,323.9,304,323.9,304,323.9C304,324,304,324,304,323.9L304,323.9z"/>
	<path fill="#F7E017" d="M270.8,316.5c1.8-1.8,3.2-3.9,5.1-5.4c1.4-0.4,0.7-3-0.8-2.2c-1.3,0.5-1.7,2-2.6,2.9
		c-1.5,1.9-3.1,3.7-5,5.2c-1.5,0.6-3.1,0.3-4.6,0c-0.6-0.5,1.2-1,1.5-1.6c0.8-0.8,1.8-1.6,2.3-2.7c-0.5-1-1.9-1-2.9-1
		c-2.4,0.2-4.3,2.3-6.8,2.5c-1.9,0-0.9-2,0-2.7c1.6-2,3.4-3.8,5.1-5.7c0.5-0.6,2.3-1.2,1.2-2c-0.4-0.2-0.9-0.2-1.3-0.2l0,0
		c-1.3-0.3-2.2,0.9-2.7,2c-1,1.7-2.2,3.4-4,4.3c-1.3,0.4-2.7-0.1-3.9-0.8c-1.3-0.7-1-2.3-1.6-3.4c-1-0.8-2.7,0.3-2.6,1.5
		c-0.1,1.6,1.3,2.5,2.6,3.1c1,0.7,2.6,1,3,2.3c0,1.1,0.4,2.4,1.7,2c1.5,0,2,1.8,1.3,2.9c-0.7,1.2-0.9,2.6-0.7,4c0.7,0.7,1.4-1,2-1.4
		l1-1.4c2.7,0.1,5.3,0.5,8,0.4C268.1,319.1,269.6,317.9,270.8,316.5z M260.2,317.3c-1,0.8-2-0.8-0.8-1.1
		C260.1,316.2,261.6,316.9,260.2,317.3z M261.6,315.3c-1.1,0.3-1.2-0.8-0.2-1c0.6-0.4,1.2-0.7,1.8-0.7
		C264.5,314.3,262.4,315.4,261.6,315.3z"/>
	<polygon fill="#F7E017" points="392.4,295.8 392.4,295.8 392.4,295.8 	"/>
	<path fill="#F7E017" d="M361.4,368.9c-0.7,0-1.2,0.4-1.2,1c0,0,0,0,0,0c0,0.6,0.5,1,1.2,1c0.7,0,1.2-0.5,1.2-1c0,0,0,0,0,0
		C362.6,369.3,362.1,368.9,361.4,368.9z"/>
	<path fill="#F7E017" d="M358.4,370.7c-0.2-0.5-0.9-0.8-1.5-0.7s-1,0.7-0.8,1.2c-0.1,0.2-0.1,0.4,0,0.6c0.2,0.5,0.9,0.8,1.5,0.7
		s1-0.7,0.8-1.2C358.5,371.1,358.5,370.9,358.4,370.7z"/>
	<path fill="#F7E017" d="M248.7,298.8c-0.8-3.1-0.7-3.5,0.5-3.8c1.5-0.3,5.3,1.7,6,3.3c0.8,1.3,0.7,1.4-0.4,2.4
		c-1.2,1.1-1.2,2.4,0,2.4c1,0,3.7-2.6,3.7-3.5c0-1.3-3-4.4-5.4-5.5c-1.4-0.7-3-1-4.6-1c-3.1,0-3.5,0.7-2.7,4.2
		c1,4.2-0.3,4.8-3.7,1.6c-2.5-2.2-3.7-5.3-3.5-8.6c0-4,1.6-6.1,5.1-6.6c2.4-0.3,2.3-0.9,0-1.2c-3.6-0.6-6.6,1.8-7.7,6
		c-1.3,4.7,1.6,10.4,6.7,13.3c2.7,1.5,3.7,1.6,5.3,0.3C249.1,301.1,249.2,301,248.7,298.8z"/>
	<path fill="#F7E017" d="M288.4,318.6c0.6,0,1-0.4,1-0.8c0-1-1.6-0.8-1.8,0.2C287.4,318.6,287.6,318.7,288.4,318.6z"/>
	<path fill="#F7E017" d="M363.2,312.1c0.4,0,0.8-0.5,1-0.9l-0.1,0c0.2-0.9-1-1.5-1.7-0.8C361.7,311,362.4,312.3,363.2,312.1z"/>
	<path fill="#F7E017" d="M384.7,293.8c1.1,0.7,1.3,1,1.1,2c-0.3,1.6,0.4,2.2,1.4,1.1l0,0c0.3-0.2,0.5-0.9,0.5-1.4s0.5-1.6,1.1-2.4
		c0.6-0.8,1-1.6,1-1.8c0-0.8-1.3-0.8-2.3,0c-1.1,0.9-2,1-2,0l1.2-0.9c1.6-0.7,1.7-1.5,0.4-2.1c-1.7-0.8-3.5,0.6-3.6,3
		C383.4,292.9,383.5,293.1,384.7,293.8z"/>
	<path fill="#F7E017" d="M398.4,288c2.3,2.6,2.5,4.1,0.7,5.5c-0.4,0.4-0.9,0.8-1.4,1c-2.3-3.9-5.3-7.3-9-10c-0.3,0-0.5,0.4-0.5,1.4
		c0,1.3,0.2,1.7,1.2,2.2c2.6,2,5,4.4,7,7l1.8,2c0.2,0,1.1-0.8,2-1.7v0.1c1-1,1.8-1.9,1.8-2.2s0.9-1.2,1.9-2c1.8-1.3,2.7-2.6,2.8-4.3
		l-1.9,0.2c0,0.3-0.1,0.5-0.2,0.7c-0.7,1.4-1.7,1-4.5-2c-0.4-0.5-0.8-0.9-1.2-1.3l-2.4-1.2c-0.1,0.2-0.1,0.6-0.1,1
		C396.4,285.5,396.9,286.5,398.4,288z"/>
</g>
</svg>
