<?xml version="1.0" encoding="utf-8"?>
<!-- Generator: Adobe Illustrator 17.1.0, SVG Export Plug-In . SVG Version: 6.00 Build 0)  -->
<!DOCTYPE svg PUBLIC "-//W3C//DTD SVG 1.1//EN" "http://www.w3.org/Graphics/SVG/1.1/DTD/svg11.dtd">
<svg version="1.1" id="flag-icon-css-bq" xmlns="http://www.w3.org/2000/svg" xmlns:xlink="http://www.w3.org/1999/xlink" x="0px"
	 y="0px" viewBox="0 0 640 480" enable-background="new 0 0 640 480" xml:space="preserve">
<g>
	<path fill="#21468B" d="M432.9,323.6c0.8,2.8,1,3,2.9,3.8c1.8,0.8,2,1.1,2.6,3.4c0.5,2,0.9,2.7,2.2,3.5c1.3,0.8,1.6,1.4,1.8,3.3
		l0.3,2.2l-2.8,2.9l-2.8,2.9l-2-1.2c-1-0.7-2-1.2-2.1-1.1c0,0.1-0.4,0.6-0.7,1.2c-0.5,0.9-0.3,1.3,1,2.8l1.5,1.7l3.7-1.1
		c3.5-1,3.7-1.2,5.2-3.4c1.4-2.1,2-2.6,7.1-5.1l5.6-2.7l4.8-7.1c1.7-2.5,4-6.1,6.2-9.6H431C432,321,432.3,321.8,432.9,323.6z"/>
	<path fill="#21468B" d="M316.5,322.5c-1.5,1.3-2.4,2.6-2.8,3.8c-0.5,1.7-0.4,2.2,0.7,5.3c1.6,4.4,3.5,7.4,7.3,11.4l3.1,3.3
		l5.8,17.7c6.1,18.8,7,22.9,7.1,30.5c0,3.2-0.3,5.3-1.2,8.4c-1.1,3.9-1.2,4.9-1.2,12.2l0.1,8l2.9,2.9c2.1,2.1,4.1,3.6,6.9,5
		c8.1,4.1,14.8,12.9,19.5,25.4l1.8,4.9l3.7,2.7c7.1,5.2,10.1,7.8,12.2,10.8c2.7,3.8,3,4,5.6,4.4c1.6,0.2,3,0,6.6-1.1
		c2.5-0.8,5.9-1.5,7.6-1.7l3.1-0.2l1.7-2.6c1-1.4,3.5-3.9,5.6-5.6c5.7-4.5,7.7-7.6,11.8-18.2l3.5-8.9l0.2-9.1
		c0.2-7.6,0.1-10.1-0.7-14.8c-0.9-5.5-1-5.9-4-10.9c-2.4-4.1-3.4-6.3-4.5-10.5c-1.5-5.2-1.5-5.2-1.2-13.4c0.2-4.5,0.5-9.1,0.7-10.3
		c0.6-2.5,0.2-2.9-3.2-2.9c-1.4,0-3.2-0.4-4.1-0.8c-1.6-0.8-1.8-0.8-3.1,0c-1,0.6-2.4,0.8-5,0.8h-3.7l-0.5-2.1l-0.5-2.1l1.5-0.3
		c1.8-0.3,1.8-0.5,1.1-2.4c-0.3-0.7-0.7-3.1-0.9-5.3c-0.4-3.8-0.3-4.1,0.9-6.1c2.3-3.7,2.6-6.1,1.7-12.5c-1-7.1-1-8.5,0.2-14.3
		c0.4-1.8,0.7-3.1,1-4h-85C318.6,320.7,317.7,321.5,316.5,322.5z"/>
	<path fill="#FFFFFF" d="M278.6,269.9c3.5,0.7,5.4,1.4,8.1,2.9l3.6,2.1h5c4.6,0,5.4-0.1,9.3-1.6c3.9-1.5,4.6-1.9,7-4.5
		c3.2-3.6,5.1-8.6,5.1-13.6v-3l-7.1-5.6c-3.9-3-7.4-5.8-7.7-5.9c-1.2-0.7-9.2-1.7-14-1.7h-4.7l-4,2.2c-3.1,1.7-4.6,2.2-6.8,2.4
		l-2.8,0.2l-2.9,4.7c-5.4,8.6-9.6,17.1-10,19.8l-0.3,2.5h2.1c1.2,0,5.2-0.4,8.8-0.9C273.9,269,274.2,269,278.6,269.9z"/>
	<path fill="#FFFFFF" d="M239.8,161.7c3.3,1.5,9.5,3.2,11.6,3.2c0.7,0,3.6,0.9,6.3,2.1c4,1.7,5.6,2.1,7.7,2.1c2.6,0,2.9,0.1,6.2,2.8
		c1.9,1.5,5,3.7,6.8,4.8c3.6,2.1,4.5,2.9,9.7,7.5l3.6,3.2l5,1l5,1l1.5,4c1.3,3.7,1.7,4.3,4.1,6.2c2.5,2.1,2.7,2.4,4.4,7
		c0.9,2.7,2.1,6.3,2.6,8.1c1.4,5.3,4.2,11.5,6.4,14.4c3.1,4,5.2,8.5,5.6,12c0.3,2.9,0.4,3,2.6,4.6c1.2,0.9,3.7,3.2,5.3,5.1l3.1,3.5
		l3.2,9.8l3.2,9.8l-1.1,7.9l-1.1,7.9l-5.5,5.6c-4.9,5-5.7,6.1-7.4,9.6c-1.1,2.4-2.7,4.9-4,6.4c-1.7,1.8-2.3,2.9-2.6,4.4
		c-0.3,1.6-0.6,2.4-2.7,4.3h85c0.4-1.2,0.9-1.9,1.6-2.8c1.6-1.9,1.7-2,3.8-1.7c1.5,0.2,2.9,0,5-0.7c2.5-0.8,3.1-0.9,6.3-0.4
		c3.3,0.5,3.8,0.7,7.2,3.4c1.3,1,2.2,1.7,2.8,2.3h36.3c1.2-2,2.4-3.9,3.3-5.4c5.5-9.1,6-10.9,4.2-14.3c-1.1-2.2-1.1-1.8-0.2-10.4
		c0.3-2.4,0.1-3.2-2.3-9.4c-1.5-3.7-2.9-7.8-3.2-9c-0.3-1.3-1.8-5.4-3.2-9.1c-1.8-4.4-2.8-7.8-3-9.7c-0.2-1.9-1.3-5.6-3.3-10.6
		c-2.4-6.3-3-8.4-3.3-11.6c-0.3-3.3-0.6-4.4-2.3-7.6l-1.9-3.7l-3.3,0.1c-2.4,0.1-3.8,0.4-5.3,1.3l-2,1.1l0.3-1.5
		c0.2-0.8,0.4-1.8,0.5-2.2c0.2-0.9,2.3-1.9,6-3c3.4-1,4-1.4,4-3c0-0.7,1.2-3.2,2.9-5.9c3.5-5.5,4.1-8.2,3.5-13.9l-0.4-3.7l1.7-2.3
		c0.9-1.3,1.9-3.4,2.2-4.7l0.5-2.4l2.8-0.7c2.6-0.7,2.9-0.9,3.9-3c0.6-1.2,1.7-4,2.5-6.1c1.2-3.3,1.4-4.2,1.4-9.1H235.3
		C237.3,160.7,238.9,161.4,239.8,161.7z"/>
	<path fill="#AE1C28" d="M461.6,146.6l-6.2-2.4l-5.5,0.2c-4,0.2-6,0-7-0.4c-1.3-0.5-2-0.5-5.4,0.6l-3.9,1.1L427,145
		c-5.7-0.6-6.9-0.9-9.8-2.3c-2.8-1.4-3.7-1.6-6.6-1.6c-5.1,0-14.7-1.3-22.7-3c-5.9-1.3-8-2-11.9-4c-4.7-2.4-5-2.4-9.6-2.7
		c-2.6-0.1-8,0-12.1,0.3c-7.4,0.5-7.4,0.5-10.7-0.7c-2.9-1.1-3.3-1.4-4.1-3.2c-0.5-1.1-2.9-4.4-5.4-7.3l-4.6-5.3l-9.6-4.8
		c-5.3-2.6-9.9-4.8-10.3-4.8s-4-1.7-8.1-3.7c-4-2.1-8.8-4.4-10.9-5.2c-2-0.7-4.8-2.2-6.3-3.1c-1.6-1.1-3.6-1.9-5.1-2.1
		c-1.7-0.3-2.7-0.7-3.5-1.7c-0.7-0.7-2.3-2.2-3.7-3.2c-1.9-1.4-2.9-2.5-3.7-4.3c-0.9-1.9-1.7-2.8-4-4.3c-2.6-1.7-10.4-5.2-15.5-7.1
		c-1.4-0.5-2.3-1.3-3.6-3.3c-1-1.5-2.7-3.3-3.8-4.1c-1.4-0.9-2.1-1.9-2.3-2.8c-0.2-1.1-0.9-1.7-3.7-3.3c-2.2-1.2-4.1-1.9-5.1-1.9
		c-2,0-3.2-1.8-3.2-4.9c0-2-0.2-2.4-3.4-6c-1.9-2.2-3.8-4.6-4.3-5.5s-1.8-3.1-3.1-5c-1.2-1.8-3.5-6.4-5.1-10.1l-2.9-6.8l-2.9-1
		c-1.6-0.6-4.3-1.9-5.9-3l-3-2l-2,0.9l-2,0.9l-2.1-1.9c-1.2-1.1-2.9-2.1-4.1-2.4c-8.9-2.3-10.5-2.9-12.8-4.5
		c-5.1-3.6-5.8-3.9-9.3-3.8h-3.3l-2.4,3.2c-2,2.5-3.1,3.6-5.7,5c-2.9,1.5-3.4,2.1-4.2,3.9c-0.8,2.1-1,2.2-4.7,3.6l-3.8,1.4v2
		c0,1.9-0.1,2-1.3,2c-0.9,0-1.6,0.4-2.3,1.4c-0.7,0.9-1.9,1.7-4.1,2.4c-2.7,0.9-3,1.1-3,2.2c0,1-0.4,1.5-1.8,2.3
		c-1.7,0.9-1.9,1.4-3.1,5.4c-0.7,2.4-1.9,5.4-2.7,6.7c-1.3,2.2-1.4,2.7-1.4,7.7c0,4.1-0.2,5.6-0.7,6.4c-0.7,0.9-0.7,1.2,0,2.5
		c0.8,1.5,0.8,1.5-0.9,2.9l-1.7,1.4l1.1,2.2c1,2,4.8,15,4.4,15.2c-0.1,0-2.3,0.8-5.1,1.7c-4.3,1.4-5,1.9-6,3.3c-1,1.4-1.1,2-0.8,4.2
		c0.2,1.4,0.5,4.6,0.7,7c0.2,2.4,0.5,4.9,0.7,5.4c0.2,0.5,2.6,3.6,5.4,6.9l5.1,6v3.7c0,2.1,0.2,5.8,0.5,8.1c0.5,3.8,0.4,4.7-0.4,8.2
		l-0.9,3.9l2.2,3.7l2.2,3.7l4.4,1.3c2.4,0.7,6.6,2.1,9.1,3.1c2.6,1,6.1,2.1,7.8,2.5c2.8,0.6,3.3,0.6,5.6,0c2.2-0.7,3-0.7,6.5-0.1
		c2.5,0.4,7,0.6,12.2,0.5c4.5-0.1,12.9,0.1,18.7,0.4c10.1,0.5,10.7,0.5,15.5-0.5c8.8-1.8,8.8-1.8,12.5,0.6c2.3,1.5,5.4,2.8,10.7,4.5
		c2,0.7,4.2,1.4,6,2.1h238.1c0-0.4,0-0.9,0-1.3v-6.6l-2.8-1.5C469.1,149.7,465,147.9,461.6,146.6z"/>
</g>
</svg>
