<?xml version="1.0" encoding="utf-8"?>
<!-- Generator: Adobe Illustrator 17.1.0, SVG Export Plug-In . SVG Version: 6.00 Build 0)  -->
<!DOCTYPE svg PUBLIC "-//W3C//DTD SVG 1.1//EN" "http://www.w3.org/Graphics/SVG/1.1/DTD/svg11.dtd">
<svg version="1.1" id="flag-icon-css-br" xmlns="http://www.w3.org/2000/svg" xmlns:xlink="http://www.w3.org/1999/xlink" x="0px"
	 y="0px" viewBox="0 0 640 480" enable-background="new 0 0 640 480" xml:space="preserve">
<g>
	<path fill="#229E45" d="M342.7,478.1c0.6-1,3.2-3.9,5.6-6.5c2.5-2.6,5.3-5.8,6.2-7.2c0.9-1.4,3.2-4.3,5.1-6.7
		c5.6-6.7,6.3-7.7,7.1-10.7c0.9-3.7,3.9-7.8,9.1-12.8c4.3-4.1,10.3-11.3,10.3-12.2c0-0.3,0.8-2.2,1.7-4.2c1.6-3.4,1.7-3.7,1-5
		c-0.4-0.8-0.7-2.3-0.7-3.3c0-1-0.3-3-0.8-4.3c-0.8-2.5-0.7-2.6,1-8.4c0.7-2.2,1.2-3.9,1.8-5.4L321.4,436l-18.3-11.7
		c-1.9,2-3.2,3.7-3.5,4.6c-0.3,1.1-1.7,3.3-3,4.8c-1.3,1.6-2.8,3.6-3.3,4.3c-0.5,0.8-1.3,1.6-1.9,1.7c-0.5,0.2-1.8,0.9-2.8,1.7
		c-1.5,1.1-1.7,1.6-1.5,2.9c0.1,1.2,0.5,1.5,1.7,1.8c1.3,0.2,1.7,0.1,2.7-1.1c1.4-1.8,3.8-1.7,5.3,0.2c0.5,0.7,2.4,2.7,4,4.4
		c1.7,1.7,3.1,3.5,3.1,4c0,0.5,0.4,1.2,0.9,1.7c0.8,0.7,0.9,0.7,1.5,0c0.3-0.4,1.1-1,1.6-1.3c0.9-0.4,1.4-0.1,4,2.8
		c2.5,2.7,3.3,3.3,4.6,3.3c1.3,0,2.2,0.6,5.3,3.8c2,2.1,3.8,3.9,4,4.1c0.2,0.2,2.5,2.4,5,4.8c4,3.9,8.3,6.9,9.9,6.9
		C341.3,480,342.1,479.2,342.7,478.1z"/>
	<path fill="#229E45" d="M440.1,359.4c0.6,0.8,0.8,0.7,3.1-1.6l2.5-2.4v1.8v1.8l8,0.3c4.4,0.2,9.4,0.4,11.2,0.4l3.2,0.1l0.5-3
		c0.6-3.8,1.8-5.2,5.7-6.6c4.3-1.5,6.4-3.8,6.4-7c0-1.9,0.2-2.5,1.7-3.8c1.1-1,1.8-2.3,2-3.5c0.2-1.6,0.8-2.3,4.2-5
		c3.5-2.9,4-3.4,4.7-6c0.1-0.3,0.2-0.5,0.2-0.7l-53.8,34.9C440,359.2,440.1,359.3,440.1,359.4z"/>
	<path fill="#229E45" d="M427.6,369.4c0.2,0,0.9-0.7,1.4-1.5c0.6-0.9,0.7-1.5,0.7-2.1l-4.4,2.8C426.4,369.1,427.4,369.4,427.6,369.4
		z"/>
	<path fill="#229E45" d="M555.1,196.4c0.3-0.4,0.7-0.8,1.2-1.3c10.1-11.5,11.5-13.5,14.5-19.4c5.8-11.4,6.6-15,4.6-19.9
		c-0.7-1.8-1.2-4.1-1.2-5.3c0-3.8-1.1-9.8-2.1-11.5c-0.5-0.9-1.1-3.1-1.2-4.9c-0.3-3.1-0.4-3.3-3.2-6.1l-2.9-2.9h-5.3
		c-11.9,0-21.2-4.6-27.6-13.7c-1.9-2.7-2.8-3.5-5.8-4.9c-2.3-1.2-4.7-3-7-5.2c-3.2-3.1-3.8-3.5-8.5-5.1c-5-1.7-5.4-1.8-15.8-2.2
		c-6.4-0.2-11.9-0.7-13.7-1.2c-1.6-0.4-4.1-0.7-5.6-0.8c-2,0-3.5-0.4-6.1-1.8c-1.9-1-5-2.1-6.8-2.5c-1.9-0.3-3.7-0.8-4-0.9
		s-1.1,0.3-1.8,1.2c-0.9,1.2-1.4,1.5-3.3,1.5c-2,0-2.3,0.2-4,2.3l-1.9,2.3L447,93c-0.6-1.1-0.4-1.3,1.3-3.2c1-1.1,1.9-2.4,1.9-2.8
		s-1-1.5-2.2-2.4c-1.8-1.4-2.3-2-2.6-3.9c-0.3-1.9-0.7-2.4-2.1-3.1c-1.1-0.6-2.4-0.8-3.6-0.6c-1.6,0.2-2.3,0-5-1.9
		c-1.7-1.2-4-2.4-5.1-2.8c-1-0.3-4.5-1.8-7.8-3.4l-5.9-2.8l-6.6-0.2l-6.6-0.2l-1.5,1.4c-0.8,0.8-2.5,3-3.8,4.8
		c-2.5,3.6-4.8,5.2-7.5,5.2h-1.5l3.7-5.1c4.6-6.3,5.1-7.7,3.6-10c-1.3-1.9-2.9-2.6-7.3-3c-3.8-0.3-8.2-2.6-8.5-4.3
		c-0.1-0.9-0.5-1-3-1.2c-2.6-0.1-2.8-0.2-3.6-1.8c-1.1-2.3-1-3.3,0.3-3.3c2.1,0,2.4-0.5,1.8-3.5c-0.3-1.9-0.3-3.6,0-5.4
		c0.5-2.7,0.5-2.8-0.8-3.8c-0.8-0.6-2.1-1.1-2.9-1.1c-1.4,0-1.6-0.1-1.8-1.9c-0.2-1-0.6-2.3-1-2.8c-0.6-0.9-0.7-0.9-2,0
		c-0.7,0.5-1.4,0.8-1.5,0.6c-0.1-0.1-0.4-1.6-0.7-3.3c-0.3-1.8-1.1-4-1.9-5.4c-1.1-1.8-1.5-3-1.5-5c0-7.1-2.9-12.8-6.3-12.8
		c-1.3,0-2.2,0.5-4.2,2.3c-3.1,3-8.4,13.2-9,17.3c-0.3,2.2-0.7,2.9-2.3,4.4l-1.9,1.8l-5.5-0.4c-3.9-0.3-6.2-0.3-8.2,0.1
		c-1.6,0.3-4.1,0.6-5.7,0.6c-2.5,0-3.2-0.2-5.3-1.7l-2.4-1.8l-3.3,0.6c-1.8,0.3-4.6,0.4-6.3,0.2c-2.4-0.2-3.2-0.1-3.9,0.5
		c-1.1,1-1.1,3.2-0.1,5.2c1.1,2.2,0.4,2.5-6,2.2c-4.4-0.1-5.8-0.3-7.2-1.2l-1.8-1l-2.9,2.4c-2.4,1.9-4.3,2.9-9.8,4.9
		c-8.2,3-9.8,3.1-13.3,0.9c-1.4-0.9-3.2-2.1-4.1-2.6c-1.7-1-2.1-1.9-2.1-5.2c0-1.2-0.3-3.5-0.7-4.9c-0.4-1.5-0.7-3.8-0.6-5.2
		c0-1.9-0.2-2.9-1-4l-1.1-1.5l2.5-2.1c2.4-2,2.5-2.1,2.5-4.7c0-2.5-0.1-2.7-1.9-4.1c-1.5-1.2-2.4-1.5-4-1.5c-1.6,0-2.5-0.3-3.8-1.5
		c-2.1-1.8-4.7-1.9-9.8-0.3c-1.9,0.6-5.5,2.2-8,3.4c-3.5,1.8-5.1,2.3-6.8,2.3c-1.4,0-3,0.4-4.1,1.1c-1.6,0.9-2,1.5-2.3,3.2l-0.4,2.2
		l-2.8-1.8c-2.6-1.7-3.2-1.8-6.9-1.9c-2.3,0-4.5,0.1-4.9,0.3c-0.6,0.3-1,0-1.6-1.1l-0.8-1.5h-4.5H184l4.1,3l4.1,3l-0.2,3.9
		c-0.1,3.7,0,4.1,1.2,5.9c1.1,1.6,1.3,2.2,1,3.8c-0.3,2.2-0.5,2.1,5.4,2.8c1.4,0.2,2.8,0.4,3.1,0.5c0.9,0.3-3.5,4.1-5.6,4.9
		c-1.4,0.5-2,1-2.2,2c-0.1,0.7-0.9,2.1-1.7,3.1l-1.4,1.8l-1.2-1.2l-1.2-1.1l-1.5,1.8c-0.8,1-2.8,2.6-4.3,3.4c-2,1-3.4,2.3-4.7,4.1
		c-2,2.8-2.7,3-2.7,0.9c0-1.5-0.2-1.5-4.2,0.3c-3.8,1.7-3.1,1.9-7.8-2.3c-2.6-2.3-3.2-2.6-5.1-2.6H157v-2.8c0-2.5-0.2-3-2.3-5.7
		c-2.5-3.3-2.3-3.3-6.8,0l-2.4,1.7l-1.8-0.9c-1-0.5-2-1-2.2-1.1c-0.2-0.1-0.4,0.2-0.4,0.8c0,1.4-3.8,1.8-12.2,1.3l-6.6-0.3l-1,2.3
		c-0.5,1.2-1.1,3.4-1.3,4.7l-0.3,2.5l2.2,0c1.2,0,3.2,0.4,4.4,0.8c1.9,0.7,2.3,1.1,2.6,2.7c0.2,1,0.3,2,0.2,2.2s-1-0.2-1.9-0.7
		l-1.6-1l-3.6,1.6l-3.6,1.7v4.7v4.7l2.9,2.7c2.6,2.4,3.1,3.2,4.5,7.2l1.6,4.5l-1.1,3.1c-0.9,2.4-1.2,4.9-1.6,12.4l-0.5,9.4l-2.4,6.2
		c-1.6,4.1-2.6,6.1-3.1,6c-0.3-0.1-1.8-0.3-3.3-0.4c-2.1-0.2-2.8-0.1-3.2,0.4c-0.8,1.1-5.5,3.4-6.9,3.4c-3.7,0-12.5,2.9-14.6,4.7
		c-0.7,0.6-2.8,2.1-4.8,3.4c-3.8,2.4-4.3,3.5-4,7.7c0.1,1.2-0.3,2.4-1.2,3.8l-1.4,2.1l0.8,2.9l0.8,2.9l-1.2,0.7
		c-0.6,0.4-2.2,1.8-3.5,3.1c-1.8,1.8-2.4,2.7-2.4,3.9c0,1.1,0.2,1.6,1,1.8c1.3,0.3,1.2,0.8-0.4,1.5c-3.3,1.4-4.9,4.8-2.5,5.1
		c0.8,0.1,1.2,0.6,1.4,1.9c0.3,2.1,6.9,12,9.3,14.1l1.8,1.5l-1.3,2.3c-0.7,1.2-1.3,2.4-1.3,2.5s1.5,0.3,3.4,0.3
		c1.9,0,4.5,0.2,5.9,0.6c2.3,0.5,2.5,0.7,2.5,1.9c0,0,0,0,0,0L319.6,44L555.1,196.4z"/>
	<path fill="#F8E509" d="M390.1,391.4c1.7-4.5,3.4-6.4,6.8-8.9c2.1-1.5,5.4-4.3,7.5-6.3c4.7-4.6,7.6-6.5,12.6-8.1l4-1.3l3.1,1.3
		c0.4,0.2,0.8,0.3,1.2,0.5l4.4-2.8c0-0.2-0.1-0.4-0.2-0.7c-0.2-0.7-0.4-1.3-0.2-1.4c0.1-0.1,1.8-0.7,3.7-1.3c3.5-1.1,3.5-1.1,2.5-2
		c-1.3-1.2-0.8-1.7,1.8-1.7c1.3,0,2.1,0.2,2.6,0.5l53.8-34.9c0.6-1.7,1.1-2.3,2.3-2.9c1.4-0.7,2-1.7,3.6-5.6c1.4-3.3,2-5.7,2.2-7.9
		c0.4-5.7,1.7-9.3,4.3-11.9l2.3-2.3l0.8-6.6c0.4-4,1.4-8.7,2.3-11.8c1.4-4.7,1.6-6,1.9-14.3c0.3-7.7,0.6-10.2,1.9-16
		c0.9-3.8,2.1-8.1,2.7-9.6l1.1-2.7l2.8-0.2l2.8-0.2l3.1-4.2c3.3-4.3,7.2-10.7,9.4-15.1c0.7-1.4,2.4-3.5,3.9-4.8
		c1.5-1.3,3.6-3.4,4.5-4.7c1.5-2,2.2-2.5,4.3-3.1c1.9-0.5,2.7-1,5.1-3.7L319.6,44L93.9,190.8c0,0.7,0.3,1.7,0.8,2
		c0.4,0.3,1,1.1,1.2,1.7c0.4,1.1,2.5,1.7,6.7,1.7c2.3,0,2.8-0.2,7.7-3.9c2.8-2.2,5.4-3.9,5.7-3.9s0.8,0.3,1.2,0.7
		c0.5,0.6,0.4,1.2-0.5,3.4c-1,2.5-1.1,2.9-0.5,6.4c0.3,2.1,0.5,4.8,0.5,6c0,1.9,0.2,2.3,1.5,3c2,1,3,0.9,5-0.5
		c1.7-1.2,2.2-1.2,8.6-1.2c3.8,0,7.5,0.2,8.3,0.4c2.4,0.7,5.4-0.3,6.9-2.3c0.7-1,2.1-2.1,3.4-2.5c1.1-0.4,3.5-1.8,5.2-3.1
		s3.7-2.3,4.3-2.3c0.7,0,1.5-0.5,2-1.3c1.1-1.8,4.1-3.6,8.2-4.9c2.7-0.9,4.5-1.2,8.3-1.2c5.6,0,5.8,0.2,4.6,4.6
		c-0.9,3.5-0.9,6.8,0.1,8.2c0.6,0.8,0.7,1.7,0.5,3.4c-0.1,1.2-0.1,3.1,0.2,4c0.2,1,0.6,2.4,0.7,3.1c0.2,1,0.7,1.5,2.7,2.1
		c1.6,0.5,2.9,1.4,3.8,2.5c0.8,1.1,1.7,1.7,2.5,1.7c1,0,1.2,0.3,1.5,1.7c0.3,1.5,0.4,1.7,2.5,2c0.5,0.1,1.1,0.1,1.9,0.1
		c0.9-6.6,2.3-12.9,4.2-19.1c-0.1,0-0.3,0-0.4,0c2.2-7.2,5-14.2,8.5-20.9c0.1,0,0.2,0,0.2,0c21.1-41.5,64.2-69.9,113.9-69.8
		c70.3,0.1,127.3,57.2,127.2,127.5c0,8.9-0.9,17.6-2.7,26c0,0,0,0,0.1,0c-1.4,6.7-3.3,13.4-5.8,19.8h0c0,0-0.1-0.1-0.1-0.1
		c-18.4,47.7-64.8,81.6-119.1,81.6c-1.2,0-2.4,0-3.6-0.1c1,3.1,0.5,7.3-1.7,12.9c-1.5,3.9-1.5,4.1-0.5,4.6c0.5,0.2,1.6,0.5,2.4,0.5
		c0.8,0,2.5,0.4,3.7,1c3.2,1.4,3.8,3.4,3.8,11.6c0,6.4,0,6.4-1.3,7.5c-0.7,0.5-2.7,1.5-4.3,2.2c-1.8,0.7-4.2,2.3-6.1,3.9
		c-1.7,1.5-4.3,3.8-5.9,5c-3.2,2.6-6.2,5.5-8.4,7.9l18.3,11.7L390.1,391.4z"/>
	<path fill="#2B49A3" d="M450.1,266c1.7-8.4,2.7-17.1,2.7-26c0.1-70.3-56.9-127.4-127.2-127.5c-49.7-0.1-92.8,28.3-113.9,69.8
		C307,176.1,382.4,206.5,450.1,266z M364,198.5l1.9-3.6l1.7,3.8l4,0.7l-3,2.7l0.6,4.1l-3.6-2L362,206l0.8-4l-2.8-3L364,198.5z"/>
	<path fill="#2B49A3" d="M444.3,285.7c-45.4-43.3-128.2-93.2-240.9-82.6c-1.9,6.2-3.3,12.6-4.2,19.1c1.2,0,2.6,0,3.8-0.1
		c2.6-0.2,3.5-0.1,3.9,0.4c1.1,1.4,3.4,2.2,4.3,1.7c0.7-0.4,1.2-0.2,2.3,0.9c0.8,0.8,1.8,1.5,2.2,1.5c0.4,0,1.5,0.5,2.5,1.2
		c1.2,0.9,2.3,1.2,4,1.2c2.1,0,2.4,0.1,2.7,1.2c0.1,0.7,1,1.8,1.9,2.4c1.3,1,2.3,1.2,7.2,1.5c7.2,0.4,8,0.5,10.1,2.5
		c1.4,1.2,1.8,2,2.1,4.2c0.3,2,1,3.6,2.5,5.8c1.4,2.1,2.1,3.6,2.1,4.7c0,1.6,0,1.6-2.2,1.5c-2-0.2-2.2-0.1-2.5,1.1
		c-0.2,1,0,1.7,1.1,3.1c1.1,1.3,1.5,2.6,1.7,4.5c0.2,1.5,0.7,3.7,1.1,4.8l0.8,2.1l7.7,0c4.2,0,9,0,10.7,0c3.6-0.1,4.1,0.5,2.9,3.3
		c-0.4,1-0.7,3.3-0.7,5.3v3.5l3.6,2.3c1.9,1.3,4.1,2.6,4.9,2.9c1.9,0.8,2.5,3.4,2.4,10.2v5.6l-2,2.3c-0.1,0.1-0.2,0.3-0.4,0.5
		l1.4,3.2l4.4,0.8l-3.3,3l0.6,4.7l-4-2.3l-2.7,1.4c0.4,2.5,2.1,8.1,2.9,9.5c1.2,1.9,1.2,5.2,0.1,9.3c-0.7,2.7-0.7,3.4-0.2,4.3
		c0.5,0.9,0.5,1.5,0.1,2.2c-0.9,1.7-0.6,2,2.9,2.6c2.9,0.5,3.7,0.5,5.7-0.2c2.2-0.7,2.5-0.7,3.3,0c0.8,0.7,1,0.7,2.2-0.2
		c1.3-1.1,2.2-1,2.2,0.2c0,0.5,0.7,0.7,2.8,0.7c2.4,0,3.1,0.2,4.7,1.5c1.1,0.8,2.2,2,2.5,2.6c1,1.9,2.4,7.9,2.7,12.1
		c0.3,3.8,0.4,4.1,1.8,4.8c1.2,0.6,1.8,0.6,5.3-0.2l4-0.9l0.9,1.1c0.6,0.7,1,1.5,1.3,2.4c1.2,0,2.4,0.1,3.6,0.1
		C379.5,367.3,425.9,333.4,444.3,285.7z M224.5,220.9l0.6,4.6l-4-2.2l-4,2l1-4.6l-3.3-3.3l4.6-0.5l2-4.1l2,4.2l4.4,0.8L224.5,220.9z
		 M282.7,248l0.6,4.6l-4-2.3l-4,2l0.9-4.5l-3.2-3.3l4.5-0.6l2.2-4l1.9,4.2l4.4,0.8L282.7,248z M317.4,276.1l-2.7-1.5L312,276l0.6-3
		l-2-2.3l3-0.3l1.4-2.8l1.2,2.9l3,0.5l-2.2,2.1L317.4,276.1z M329.7,341.1l-1.6-0.9l-1.8,0.9l0.4-2l-1.3-1.4l1.9-0.2l0.9-1.7
		l0.8,1.8l1.9,0.3l-1.4,1.3L329.7,341.1z M394.4,339.1l-2.4-1.4l-2.4,1.3l0.6-2.8l-1.9-2l2.7-0.4l1.2-2.5l1.1,2.6l2.7,0.5l-2,2
		L394.4,339.1z M419,299.8l-2.2-1.1l-2.2,1l0.5-2.3l-1.7-1.6l2.4-0.3l1.2-2l1,2l2.5,0.5l-1.9,1.5L419,299.8z M430.5,283.8l1-2l1,2.1
		l2.1,0.4l-1.6,1.6l0.3,2.2l-2-1l-2,1l0.5-2.3l-1.6-1.7L430.5,283.8z M413.4,283.6l1.8-3.5l1.6,3.6l3.8,0.7l-2.9,2.6l0.6,3.9l-3.4-2
		l-3.5,1.8l0.8-3.9l-2.7-2.8L413.4,283.6z M411.9,304.9l1.4-2.7l1.3,2.8l3,0.6l-2.3,2l0.4,3.1l-2.6-1.5l-2.7,1.4l0.6-3l-2.1-2.3
		L411.9,304.9z M401.5,308.8l1.1-2l1,2l2.3,0.5l-1.7,1.6l0.3,2.4l-2-1.2l-2.1,1l0.4-2.3l-1.6-1.7L401.5,308.8z M391.3,308.7l1.2-2.3
		l1,2.4l2.5,0.4l-1.9,1.8l0.4,2.6l-2.2-1.4l-2.3,1.2l0.5-2.6l-1.7-1.8L391.3,308.7z M390.6,322.4l1.3-2.5l1.2,2.6l3,0.5l-2.3,1.9
		l0.4,2.8l-2.5-1.4l-2.7,1.2l0.6-2.8l-2-2L390.6,322.4z M372.2,309l1-2l1,2l2.2,0.4l-1.6,1.6l0.2,2.3l-1.9-1.2l-2,1l0.4-2.2
		l-1.5-1.7L372.2,309z M367.1,329.4l4.4,0.8l-3.4,3.1l0.6,4.6l-3.9-2.3l-4,2l0.8-4.5l-3.1-3.3l4.5-0.5l2.1-4.1L367.1,329.4z
		 M357.9,234.3l1.5-2.8l1.3,3l3,0.5l-2.2,2.2l0.4,3.2l-2.7-1.6l-2.9,1.4l0.6-3.2l-2.2-2.3L357.9,234.3z M354.2,309l1-2l1,2l2.1,0.4
		l-1.6,1.6l0.3,2.3l-2-1.2l-2,1l0.5-2.2l-1.6-1.7L354.2,309z M339.1,270.4l1.4-2.7l1.2,2.8l3,0.5l-2.2,2.1l0.4,3.1l-2.6-1.6
		l-2.8,1.4l0.6-3l-2-2.3L339.1,270.4z M320.1,256.9l4.5-0.5l2.1-4.1l2,4.2l4.4,0.8l-3.4,3.2l0.7,4.5l-4-2.2l-4,2l0.8-4.6
		L320.1,256.9z M321.2,282.4l2.2-0.3l1-2l1,2l2.2,0.5l-1.6,1.5l0.3,2.3l-2-1.1l-2,1l0.5-2.3L321.2,282.4z M323,296.3l4-0.4l1.8-3.6
		l1.6,3.7l3.9,0.7l-3,2.7l0.6,3.9l-3.4-2l-3.5,1.8l0.8-3.9L323,296.3z"/>
	<polygon fill="#FFFFEF" points="418,295.5 417,293.5 415.8,295.5 413.4,295.8 415.1,297.4 414.6,299.7 416.8,298.7 419,299.8 
		418.6,297.5 420.5,296 	"/>
	<polygon fill="#FFFFEF" points="356.3,240.2 359.2,238.8 361.9,240.4 361.5,237.2 363.7,235 360.7,234.5 359.4,231.5 357.9,234.3 
		354.7,234.7 356.9,237 	"/>
	<polygon fill="#FFFFEF" points="411.4,290.7 414.9,288.9 418.3,290.9 417.7,287 420.6,284.4 416.8,283.7 415.2,280.1 413.4,283.6 
		409.5,284 412.2,286.8 	"/>
	<polygon fill="#FFFFEF" points="362,206 365.6,204.2 369.2,206.2 368.6,202.1 371.6,199.4 367.6,198.7 365.9,194.9 364,198.5 
		360,199 362.8,202 	"/>
	<polygon fill="#FFFFEF" points="358.5,329.8 361.6,333.1 360.8,337.6 364.8,335.6 368.7,337.9 368.1,333.3 371.5,330.2 
		367.1,329.4 365.1,325.2 363,329.3 	"/>
	<polygon fill="#FFFFEF" points="328.5,301.3 331.9,303.3 331.3,299.4 334.3,296.7 330.4,296 328.8,292.3 327,295.9 323,296.3 
		325.8,299.2 325,303.1 	"/>
	<polygon fill="#FFFFEF" points="322.4,264.8 326.4,262.8 330.4,265 329.7,260.5 333.1,257.3 328.7,256.5 326.7,252.3 324.6,256.4 
		320.1,256.9 323.2,260.2 	"/>
	<path fill="#FFFFEF" d="M283.3,316.3l-0.6-4.7l3.3-3l-4.4-0.8l-1.4-3.2c-1.8,2.5-3.7,7.5-3.7,9.9c0,0.2,0,0.5,0.1,0.9l2.7-1.4
		L283.3,316.3z"/>
	<polygon fill="#FFFFEF" points="221.4,212.8 219.4,216.9 214.8,217.4 218.1,220.7 217.1,225.3 221.1,223.3 225.1,225.5 
		224.5,220.9 227.8,217.8 223.4,217 	"/>
	<polygon fill="#FFFFEF" points="390,313.4 392.3,312.2 394.5,313.6 394.1,311 396,309.2 393.5,308.8 392.5,306.4 391.3,308.7 
		388.8,309 390.5,310.8 	"/>
	<polygon fill="#FFFFEF" points="400.4,313.1 402.5,312.1 404.5,313.3 404.2,310.9 405.9,309.3 403.6,308.8 402.6,306.8 
		401.5,308.8 399.2,309.1 400.8,310.8 	"/>
	<polygon fill="#FFFFEF" points="410.4,310.6 413.1,309.2 415.7,310.7 415.3,307.6 417.6,305.6 414.6,305 413.3,302.2 411.9,304.9 
		408.9,305.3 411,307.6 	"/>
	<polygon fill="#FFFFEF" points="389,327.5 391.7,326.3 394.2,327.7 393.8,324.9 396.1,323 393.1,322.5 391.9,319.9 390.6,322.4 
		387.6,322.7 389.6,324.7 	"/>
	<polygon fill="#FFFFEF" points="324.3,285.3 326.3,286.4 326,284.1 327.6,282.6 325.4,282.1 324.4,280.1 323.4,282.1 321.2,282.4 
		322.8,284 322.3,286.3 	"/>
	<polygon fill="#FFFFEF" points="371.1,313.1 373.1,312.1 375,313.3 374.8,311 376.4,309.4 374.2,309 373.2,307 372.2,309 
		370,309.2 371.5,310.9 	"/>
	<polygon fill="#FFFFEF" points="353,313.1 355,312.1 357,313.3 356.7,311 358.3,309.4 356.2,309 355.2,307 354.2,309 351.9,309.2 
		353.5,310.9 	"/>
	<polygon fill="#FFFFEF" points="337.5,276 340.3,274.6 342.9,276.2 342.5,273.1 344.7,271 341.7,270.5 340.5,267.7 339.1,270.4 
		336.1,270.7 338.1,273 	"/>
	<polygon fill="#FFFFEF" points="316.2,270.5 315,267.6 313.6,270.4 310.6,270.7 312.6,273 312,276 314.7,274.6 317.4,276.1 
		317,273.1 319.2,271 	"/>
	<polygon fill="#FFFFEF" points="279.7,239.9 277.5,243.9 273,244.5 276.2,247.8 275.3,252.3 279.3,250.3 283.3,252.6 282.7,248 
		286,244.9 281.6,244.1 	"/>
	<polygon fill="#FFFFEF" points="429.3,288.1 431.3,287.1 433.3,288.1 433,285.9 434.6,284.3 432.5,283.9 431.5,281.8 430.5,283.8 
		428.2,284.1 429.8,285.8 	"/>
	<polygon fill="#FFFFEF" points="393.3,333.9 392.2,331.3 391,333.8 388.3,334.2 390.2,336.2 389.6,339 392,337.7 394.4,339.1 
		394,336.4 396,334.4 	"/>
	<polygon fill="#FFFFEF" points="329,337.6 328.2,335.8 327.3,337.5 325.4,337.7 326.7,339.1 326.3,341.1 328.1,340.2 329.7,341.1 
		329.5,339.2 330.9,337.9 	"/>
	<path fill="#FFFFFF" d="M444.3,285.7C444.3,285.7,444.4,285.8,444.3,285.7L444.3,285.7c2.6-6.3,4.5-13,5.9-19.7c0,0,0,0-0.1,0
		c-67.7-59.4-143.1-89.9-238.4-83.7c-0.1,0-0.2,0-0.2,0c-3.5,6.7-6.3,13.7-8.5,20.9c0.1,0,0.3,0,0.4,0
		C316.1,192.5,399,242.4,444.3,285.7z M428.6,256.1c0.7-0.4,1.4-0.7,2.2-0.9c0.7-0.1,1.5-0.1,2.2,0c1,0.2,1.9,0.6,2.8,1.2
		c1.6,1,2.7,2.6,3,4.4c0.3,1.7-0.2,3.6-1.4,5.5c-1,1.7-2.6,2.8-4.5,3.3c-1.8,0.4-3.7,0-5.2-1.1c-1.6-1-2.7-2.6-3-4.4
		c-0.3-1.8,0.2-3.6,1.4-5.4C426.7,257.7,427.6,256.8,428.6,256.1z M416,255.9c0.2,0.7,0.7,1.3,1.4,1.7c0.7,0.5,1.4,0.8,2,0.7
		c0.6,0,1-0.3,1.3-0.7c0.2-0.3,0.2-0.6,0.2-0.9c-0.1-0.4-0.3-0.7-0.5-1c-0.2-0.3-0.7-1-1.5-1.8c-0.8-0.8-1.4-1.9-1.8-3
		c-0.5-1.8,0.3-3.6,2-4.4c0.7-0.3,1.5-0.4,2.3-0.2c0.9,0.2,1.8,0.6,2.6,1.2c1.4,1,2.3,2,2.6,3.2c0.3,1.1,0.1,2.3-0.6,3.3l-2.4-1.5
		c0.3-0.6,0.4-1.2,0.2-1.7c-0.1-0.5-0.5-1-1.2-1.4c-0.5-0.4-1.1-0.7-1.8-0.7c-0.4,0-0.7,0.2-0.9,0.5c-0.2,0.3-0.2,0.6-0.1,1
		c0.1,0.4,0.6,1.2,1.6,2.2s1.6,1.9,2,2.5c0.7,1.3,0.6,3-0.3,4.2c-0.5,0.7-1.1,1.2-1.9,1.5c-0.7,0.3-1.6,0.5-2.4,0.3
		c-0.9-0.2-1.8-0.6-2.8-1.3c-1.5-1-2.4-2.1-2.7-3.3c-0.3-1.4-0.1-2.8,0.6-4l0.1,0.1l2.3,1.3C416,254.4,415.9,255.2,416,255.9z
		 M404.7,248.3c0.3,0.7,0.8,1.3,1.4,1.6c0.8,0.5,1.4,0.7,2,0.6c0.6,0,1-0.3,1.3-0.8c0.2-0.2,0.2-0.5,0.2-0.8c0-0.3-0.2-0.7-0.5-1
		c-0.5-0.6-1-1.2-1.6-1.8c-1.1-1.1-1.8-2-2-2.8c-0.3-1-0.2-2.2,0.4-3.1c0.4-0.6,0.9-1.1,1.6-1.4c0.7-0.3,1.5-0.4,2.2-0.3
		c0.9,0.2,1.8,0.5,2.6,1c1.5,1,2.4,2,2.7,3.1c0.4,1.1,0.2,2.4-0.4,3.4l-2.5-1.4c0.3-0.7,0.4-1.2,0.2-1.7c-0.2-0.5-0.6-1-1.3-1.4
		c-0.6-0.4-1.2-0.6-1.9-0.6c-0.3,0-0.6,0.2-0.8,0.5c-0.2,0.3-0.2,0.6-0.1,1c0.1,0.4,0.7,1.2,1.7,2.2s1.7,1.8,2,2.4
		c0.8,1.3,0.8,2.9,0,4.2c-0.4,0.7-1.1,1.3-1.8,1.6c-0.7,0.3-1.6,0.5-2.4,0.3c-1-0.2-2-0.5-2.9-1.1c-1.3-0.7-2.3-1.8-2.8-3.2
		c-0.4-1.3-0.2-2.8,0.4-4h0h0l0,0l2.5,1.3C404.6,246.8,404.5,247.6,404.7,248.3z M404.3,234.5l-1.2,2l-6.4-4l-1.6,2.7l6,3.7l-1.3,2
		l-6-3.7l-2,3.3l6.7,4l-1.2,2l-9-5.5h-0.1l7.3-12L404.3,234.5z M386,223.4c1,0.5,1.9,1.1,2.7,1.9c0.5,0.5,0.8,1.1,0.8,1.9
		s0,1.5-0.4,2.2c-0.4,0.9-1.1,1.6-2,2c-1,0.2-2,0.2-3.1-0.2c0.4,0.6,0.6,1.2,0.8,1.7c0.2,0.6,0.3,1.5,0.4,2.8l0.2,3.2l-3-1.5
		l-0.4-3.7c0-0.8-0.1-1.7-0.3-2.5c-0.1-0.4-0.2-0.7-0.5-1l-1.2-0.7l-0.5-0.3l-2.7,5.2l-2.5-1.3l6.4-12.4L386,223.4z M362.2,219.1
		c0.6-1.2,1.5-2.2,2.6-3c1.1-0.7,2.3-1.1,3.6-1.1c1,0,2,0.3,3.2,1c1.6,0.7,2.6,1.7,3.1,2.8c0.5,1.1,0.6,2.3,0.3,3.5l-2.7-0.8
		c0.2-0.7,0.1-1.4-0.2-2c-0.3-0.6-0.8-1-1.6-1.4c-0.9-0.5-2.1-0.6-3.1-0.3c-1,0.3-1.9,1.2-2.6,2.6s-1,2.7-0.7,3.8
		c0.3,1.1,1,1.9,2,2.4c0.5,0.3,1.1,0.5,1.7,0.5c0.6,0.1,1.2,0.1,1.8,0l0.8-1.6l-2.9-1.5l0,0l0,0l0,0l1.1-2l5.4,2.7l-2.5,5
		c-0.8,0.2-1.8,0.3-3,0.2c-1.2-0.1-2.3-0.5-3.3-1c-1.2-0.6-2.2-1.5-3-2.6c-0.7-1-1-2.3-1-3.5C361.3,221.5,361.6,220.2,362.2,219.1z
		 M347,213.6c0.3-1.2,0.9-2.3,1.7-3.2c0.5-0.6,1.1-1.1,1.8-1.5c0.7-0.4,1.4-0.6,2-0.7c1,0,2,0,3.1,0.4c1.8,0.4,3.3,1.6,4.2,3.3
		c0.8,1.6,0.8,3.5,0.2,5.7c-0.5,1.9-1.7,3.5-3.4,4.5c-1.5,0.9-3.3,1-5.2,0.4c-1.8-0.5-3.3-1.7-4.2-3.3
		C346.4,217.4,346.3,215.4,347,213.6z M330.6,214.1l4.7-13.2l5.5,2c1.5,0.5,2.4,1,3,1.4c0.5,0.5,0.9,1,1,1.8c0.1,0.8,0.2,1.5,0,2.3
		c-0.4,1-1,1.7-1.8,2.2c-0.8,0.4-1.8,0.5-3,0.3c0.4,0.5,0.8,1,1,1.6l0.8,2.7l0.6,3.1l-3.1-1.1l-1-3.6c-0.2-0.8-0.4-1.6-0.7-2.4
		c-0.1-0.3-0.3-0.6-0.6-0.8c-0.2-0.3-0.6-0.5-1.3-0.7l-0.5-0.2l-2,5.6L330.6,214.1L330.6,214.1z M317.6,210.2L317.6,210.2l3.3-13.6
		l4.4,1l3.2,1c0.7,0.4,1.3,1,1.6,1.9c0.4,0.8,0.4,1.7,0.2,2.8c-0.2,0.8-0.5,1.5-1,2c-0.7,0.9-1.8,1.4-3,1.4c-0.7,0-1.7-0.2-3-0.5
		l-1.7-0.5l-1.2,5.2L317.6,210.2L317.6,210.2L317.6,210.2z M304.1,194.7l7.2,1.7L311,198l-5.3-1.2l-0.5,2.2l4.9,1.1l-0.4,1.7
		l-4.9-1.2l-0.6,2.7l5.5,1.3l-0.4,1.6l-7.5-1.7h0L304.1,194.7z M277.3,201.7l2-14l4.2,0.7l1.1,9.8l3.9-9l4.2,0.6l-2,13.8l-2.7-0.4
		l1.7-10.9l-4.4,10.5l-2.7-0.4l-1.1-11.3l-1.6,11L277.3,201.7L277.3,201.7z M264.5,186l10.3,1l-0.2,2.4l-7.5-0.7l-0.3,3l7,0.7
		l-0.3,2.4l-7-0.7l-0.3,3.8l7.8,0.7l-0.2,2.4l-10.6-1v0l0,0h0L264.5,186z M249,185.2L249,185.2l5.2,0.3c1.1,0,2,0.1,2.6,0.3
		c0.8,0.3,1.5,0.8,2,1.4c0.6,0.7,1,1.5,1.2,2.4c0.3,0.9,0.4,2,0.3,3.3c0,1-0.2,2-0.5,3c-0.4,1-1,1.8-1.7,2.4c-0.6,0.5-1.3,0.8-2,1
		c-0.6,0.2-1.5,0.2-2.5,0.2l-5.3-0.3L249,185.2z M230,191.6c0,2.2-0.7,4-2,5.3c-1.4,1.2-3.2,1.9-5,1.7c-1.8,0-3.5-0.7-4.8-2
		c-1.2-1.5-1.9-3.4-1.7-5.3c0-1.5,0.3-2.6,0.7-3.6c0.4-0.7,0.8-1.4,1.4-1.9c0.5-0.5,1.1-0.9,1.8-1.2c1-0.3,2-0.5,3-0.5
		c2.1,0,3.7,0.8,5,2C229.7,187.6,230.2,189.6,230,191.6z M233.2,184.5h6c1.5,0,2.5,0.2,3.2,0.5c0.7,0.2,1.2,0.7,1.6,1.3
		c0.4,0.6,0.6,1.4,0.6,2.3c0,1-0.3,1.9-1,2.6c-0.7,0.7-1.7,1.1-2.7,1.2l1.5,1.2c0.4,0.4,0.9,1.2,1.5,2.3l1.7,2.8h-3.4l-2-3.2l-1.4-2
		c-0.2-0.3-0.6-0.5-0.9-0.6c-0.5-0.1-0.9-0.2-1.4-0.2h-0.6v5.8H233L233.2,184.5z"/>
	<polygon fill="#309E3A" points="263.2,200 263.2,200 263.2,200 	"/>
	<polygon fill="#309E3A" points="281.5,191.1 282.6,202.4 285.3,202.8 289.7,192.3 288,203.2 290.7,203.6 292.7,189.8 288.5,189.2 
		284.6,198.2 283.5,188.4 279.3,187.7 277.3,201.7 277.3,201.7 279.9,202.1 	"/>
	<polygon fill="#309E3A" points="274,198.6 266.2,197.9 266.5,194.1 273.5,194.8 273.8,192.4 266.8,191.7 267.1,188.7 274.6,189.4 
		274.8,187 264.5,186 263.2,200 273.8,201 	"/>
	<polygon fill="#309E3A" points="367.5,224 367.5,224 367.5,224 	"/>
	<polygon fill="#309E3A" points="388.3,241 397.3,246.5 398.5,244.5 391.8,240.5 393.8,237.2 399.8,240.9 401.1,238.9 395.1,235.2 
		396.7,232.5 403.1,236.5 404.3,234.5 395.5,229 388.2,241 	"/>
	<path fill="#309E3A" d="M365.2,228.9c1,0.5,2.1,0.9,3.3,1c1.2,0.1,2.2,0,3-0.2l2.5-5l-5.4-2.7l-1.1,2l2.9,1.5l-0.8,1.6
		c-0.6,0.1-1.2,0.1-1.8,0c-0.6,0-1.2-0.2-1.7-0.5c-1-0.5-1.7-1.3-2-2.4c-0.3-1.1,0-2.4,0.7-3.8s1.6-2.3,2.6-2.6
		c1-0.3,2.2-0.2,3.1,0.3c0.8,0.4,1.3,0.8,1.6,1.4c0.3,0.6,0.4,1.3,0.2,2l2.7,0.8c0.3-1.2,0.2-2.4-0.3-3.5c-0.5-1.1-1.5-2.1-3.1-2.8
		c-1.2-0.7-2.2-1-3.2-1c-1.3,0-2.5,0.4-3.6,1.1c-1.1,0.8-2,1.8-2.6,3c-0.6,1.1-0.9,2.4-1,3.7c0,1.2,0.3,2.5,1,3.5
		C363,227.4,364,228.3,365.2,228.9z"/>
	<polygon fill="#309E3A" points="402.4,244.8 402.4,244.8 402.4,244.8 	"/>
	<path fill="#309E3A" d="M414,252.4L414,252.4c-0.8,1.1-1,2.5-0.7,3.9c0.3,1.2,1.2,2.3,2.7,3.3c1,0.7,1.9,1.1,2.8,1.3
		c0.8,0.2,1.7,0,2.4-0.3c0.8-0.3,1.4-0.8,1.9-1.5c0.9-1.2,1-2.9,0.3-4.2c-0.4-0.6-1-1.5-2-2.5s-1.5-1.8-1.6-2.2
		c-0.1-0.4-0.1-0.7,0.1-1c0.2-0.3,0.5-0.5,0.9-0.5c0.7,0,1.3,0.3,1.8,0.7c0.7,0.4,1.1,0.9,1.2,1.4c0.2,0.5,0.1,1.1-0.2,1.7l2.4,1.5
		c0.7-1,0.9-2.2,0.6-3.3c-0.3-1.2-1.2-2.2-2.6-3.2c-0.8-0.6-1.7-1-2.6-1.2c-0.8-0.2-1.6-0.1-2.3,0.2c-1.7,0.8-2.5,2.6-2,4.4
		c0.4,1.1,1,2.2,1.8,3c0.8,0.8,1.3,1.5,1.5,1.8c0.2,0.3,0.4,0.6,0.5,1c0,0.3,0,0.6-0.2,0.9c-0.3,0.4-0.7,0.7-1.3,0.7
		c-0.6,0.1-1.3-0.2-2-0.7c-0.7-0.4-1.2-1-1.4-1.7c-0.1-0.7,0-1.5,0.3-2.2L414,252.4z"/>
	<path fill="#309E3A" d="M402.4,244.8c-0.6,1.2-0.8,2.7-0.4,4c0.5,1.4,1.5,2.5,2.8,3.2c0.9,0.6,1.9,0.9,2.9,1.1
		c0.8,0.2,1.7,0,2.4-0.3c0.7-0.3,1.4-0.9,1.8-1.6c0.8-1.3,0.8-2.9,0-4.2c-0.3-0.6-1-1.4-2-2.4s-1.6-1.8-1.7-2.2
		c-0.1-0.4-0.1-0.7,0.1-1c0.2-0.3,0.5-0.5,0.8-0.5c0.7,0,1.3,0.2,1.9,0.6c0.7,0.4,1.1,0.9,1.3,1.4c0.2,0.5,0.1,1-0.2,1.7l2.5,1.4
		c0.6-1,0.8-2.3,0.4-3.4c-0.3-1.1-1.2-2.1-2.7-3.1c-0.8-0.5-1.7-0.8-2.6-1c-0.7-0.1-1.5,0-2.2,0.3c-0.7,0.3-1.2,0.8-1.6,1.4
		c-0.6,0.9-0.7,2.1-0.4,3.1c0.2,0.8,0.9,1.7,2,2.8c0.6,0.6,1.1,1.2,1.6,1.8c0.3,0.3,0.5,0.7,0.5,1c0,0.3,0,0.6-0.2,0.8
		c-0.3,0.5-0.7,0.8-1.3,0.8c-0.6,0.1-1.2-0.1-2-0.6c-0.6-0.3-1.1-0.9-1.4-1.6c-0.2-0.7-0.1-1.5,0.2-2.2L402.4,244.8z"/>
	<path fill="#309E3A" d="M223.4,184.1c-1,0-2,0.2-3,0.5c-0.7,0.3-1.3,0.7-1.8,1.2c-0.6,0.5-1,1.2-1.4,1.9c-0.4,1-0.7,2.1-0.7,3.6
		c-0.2,1.9,0.5,3.8,1.7,5.3c1.3,1.3,3,2,4.8,2c1.8,0.2,3.6-0.5,5-1.7c1.3-1.3,2-3.1,2-5.3c0.2-2-0.3-4-1.6-5.5
		C227.1,184.9,225.5,184.1,223.4,184.1z M226,195.1c-0.7,0.8-1.7,1.2-2.8,1.1c-1.2,0-2.1-0.5-2.8-1.3c-0.7-0.9-1-2.1-1-3.6
		c0.1-1.6,0.4-2.8,1.2-3.6c0.7-0.8,1.7-1.2,2.8-1.2c1,0,2,0.5,2.7,1.3c0.8,0.8,1,2,1,3.6C227,193.1,226.7,194.3,226,195.1z"/>
	<path fill="#F7FFFF" d="M223.4,186.5c-1.1,0-2.1,0.4-2.8,1.2c-0.8,0.8-1.1,2-1.2,3.6c0,1.5,0.3,2.7,1,3.6c0.7,0.8,1.6,1.3,2.8,1.3
		c1.1,0.1,2.1-0.3,2.8-1.1c0.7-0.8,1-2,1.1-3.7c0-1.6-0.2-2.8-1-3.6C225.4,187,224.4,186.5,223.4,186.5z"/>
	<path fill="#309E3A" d="M235.9,192.7h0.6c0.5,0,0.9,0.1,1.4,0.2c0.3,0.1,0.7,0.3,0.9,0.6l1.4,2l2,3.2h3.4l-1.7-2.8
		c-0.6-1.1-1.1-1.9-1.5-2.3l-1.5-1.2c1-0.1,2-0.5,2.7-1.2c0.7-0.7,1-1.6,1-2.6c0-0.9-0.2-1.7-0.6-2.3c-0.4-0.6-0.9-1.1-1.6-1.3
		c-0.7-0.3-1.7-0.5-3.2-0.5h-6l-0.2,14h2.9V192.7z M236,190.4v-3.5l2.3,0.1h2c0.4,0.1,0.8,0.3,1,0.6c0.3,0.2,0.4,0.6,0.4,1.2
		c0,0.3-0.1,0.8-0.3,1s-0.5,0.5-0.8,0.5c-0.3,0.2-1.2,0.2-2.6,0.2h-2V190.4z"/>
	<path fill="#FFFFFF" d="M240.6,190.3c0.3,0,0.6-0.3,0.8-0.5s0.3-0.7,0.3-1c0-0.6-0.1-1-0.4-1.2c-0.2-0.3-0.6-0.5-1-0.6h-2l-2.3-0.1
		v3.5v0.1h2C239.4,190.5,240.3,190.5,240.6,190.3z"/>
	<path fill="#309E3A" d="M256.1,199.3c0.7-0.2,1.4-0.5,2-1c0.7-0.6,1.3-1.4,1.7-2.4c0.3-1,0.5-2,0.5-3c0.1-1.3,0-2.4-0.3-3.3
		c-0.2-0.9-0.6-1.7-1.2-2.4c-0.5-0.6-1.2-1.1-2-1.4c-0.6-0.2-1.5-0.3-2.6-0.3l-5.2-0.3v0l-0.7,14l5.3,0.3
		C254.6,199.5,255.5,199.5,256.1,199.3z M251.7,187.7h1.3c0.8,0,1.5,0.1,2.3,0.3c0.5,0.1,0.9,0.4,1.2,0.7c0.4,0.4,0.7,0.9,0.8,1.4
		c0.1,0.6,0.1,1.4,0.1,2.5c0,1.1-0.2,2-0.4,2.6c-0.2,0.6-0.5,1-0.8,1.3s-0.7,0.5-1.2,0.5h-3.8L251.7,187.7z"/>
	<path fill="#FFFFFF" d="M256.2,196.5c0.3-0.3,0.6-0.7,0.8-1.3c0.2-0.6,0.4-1.5,0.4-2.6c0-1.1,0-1.9-0.1-2.5c-0.1-0.5-0.4-1-0.8-1.4
		c-0.3-0.3-0.7-0.6-1.2-0.7c-0.8-0.2-1.5-0.3-2.3-0.3h-1.3l-0.5,9.3h3.8C255.5,197,255.9,196.8,256.2,196.5z"/>
	<polygon fill="#309E3A" points="317.6,210.2 317.6,210.2 317.6,210.2 	"/>
	<path fill="#309E3A" d="M321.6,205.7l1.7,0.5c1.3,0.3,2.3,0.5,3,0.5c1.2,0,2.3-0.5,3-1.4c0.5-0.5,0.8-1.2,1-2
		c0.2-1.1,0.2-2-0.2-2.8c-0.3-0.9-0.9-1.5-1.6-1.9l-3.2-1l-4.4-1l-3.3,13.6l2.8,0.7L321.6,205.7z M323,199.6h0.1l1.3,0.3l1.9,0.5
		c0.4,0.2,0.8,0.5,1,0.9c0.2,0.4,0.2,0.8,0.2,1.3c-0.2,0.8-0.8,1.4-1.6,1.5c-0.4,0.1-1.2-0.1-2.2-0.3l-1.5-0.4L323,199.6z"/>
	<path fill="#FFFFFF" d="M325.9,204.1c0.8-0.1,1.4-0.7,1.6-1.5c0-0.5,0-0.9-0.2-1.3c-0.2-0.4-0.6-0.7-1-0.9l-1.9-0.5l-1.3-0.3H323
		l-0.8,3.8l1.5,0.4C324.7,204,325.5,204.2,325.9,204.1z"/>
	<path fill="#309E3A" d="M335.2,209.5l0.5,0.2c0.7,0.2,1.1,0.4,1.3,0.7c0.3,0.2,0.5,0.5,0.6,0.8c0.3,0.8,0.5,1.6,0.7,2.4l1,3.6
		l3.1,1.1l-0.6-3.1l-0.8-2.7c-0.2-0.6-0.6-1.1-1-1.6c1.2,0.2,2.2,0.1,3-0.3c0.8-0.5,1.4-1.2,1.8-2.2c0.2-0.8,0.1-1.5,0-2.3
		c-0.1-0.8-0.5-1.3-1-1.8c-0.6-0.4-1.5-0.9-3-1.4l-5.5-2l-4.7,13.2v0l2.6,1L335.2,209.5z M337.1,204.1l2,0.7l2,0.7
		c0.4,0.2,0.7,0.5,0.8,0.9c0.2,0.4,0.2,0.8,0,1.2c-0.1,0.4-0.3,0.7-0.6,0.9c-0.3,0.3-0.6,0.3-0.9,0.3c-0.4,0-1.2-0.2-2.5-0.7
		l-1.9-0.7l-0.1,0L337.1,204.1z"/>
	<path fill="#FFFFFF" d="M337.9,208.1c1.3,0.5,2.1,0.7,2.5,0.7c0.3,0,0.6,0,0.9-0.3c0.3-0.2,0.5-0.5,0.6-0.9c0.2-0.4,0.2-0.8,0-1.2
		c-0.1-0.4-0.4-0.7-0.8-0.9l-2-0.7l-2-0.7l-1.2,3.3l0.1,0L337.9,208.1z"/>
	<path fill="#309E3A" d="M351.4,222.5c1.9,0.6,3.7,0.5,5.2-0.4c1.7-1,2.9-2.6,3.4-4.5c0.6-2.2,0.6-4.1-0.2-5.7
		c-0.9-1.7-2.4-2.9-4.2-3.3c-1.1-0.4-2.1-0.4-3.1-0.4c-0.6,0.1-1.3,0.3-2,0.7c-0.7,0.4-1.3,0.9-1.8,1.5c-0.8,0.9-1.4,2-1.7,3.2
		c-0.7,1.8-0.6,3.8,0.2,5.6C348.1,220.8,349.6,222,351.4,222.5z M349.8,214.4L349.8,214.4c0.5-1.6,1.2-2.6,2.2-3.2
		c0.9-0.5,2-0.6,3-0.3c1,0.3,1.8,1,2.2,2c0.5,1,0.5,2.2,0,3.7c-0.5,1.6-1.1,2.7-2.1,3.2c-1,0.6-2,0.7-3,0.4c-1.1-0.4-1.8-1-2.3-2
		S349.4,215.9,349.8,214.4z"/>
	<path fill="#FFFFFF" d="M352.1,220.2c1,0.3,2,0.2,3-0.4c1-0.5,1.6-1.6,2.1-3.2c0.5-1.5,0.5-2.7,0-3.7c-0.4-1-1.2-1.7-2.2-2
		c-1-0.3-2.1-0.2-3,0.3c-1,0.6-1.7,1.6-2.2,3.2v0c-0.4,1.5-0.5,2.8,0,3.8S351,219.8,352.1,220.2z"/>
	<path fill="#309E3A" d="M376.8,234.4l2.7-5.2l0.5,0.3l1.2,0.7c0.3,0.3,0.4,0.6,0.5,1c0.2,0.8,0.3,1.7,0.3,2.5l0.4,3.7l3,1.5
		l-0.2-3.2c-0.1-1.3-0.2-2.2-0.4-2.8c-0.2-0.5-0.4-1.1-0.8-1.7c1.1,0.4,2.1,0.4,3.1,0.2c0.9-0.4,1.6-1.1,2-2
		c0.4-0.7,0.4-1.4,0.4-2.2s-0.3-1.4-0.8-1.9c-0.8-0.8-1.7-1.4-2.7-1.9l-5.3-2.7l-6.4,12.4L376.8,234.4z M382.1,224l2,1
		c0.6,0.3,1.2,0.6,1.8,1c0.4,0.3,0.6,0.7,0.7,1c0.1,0.4,0,0.8-0.2,1.2c-0.2,0.4-0.4,0.7-0.7,0.8c-0.3,0.2-0.7,0.2-1,0.2
		s-1.1-0.4-2.3-1l-1.9-1L382.1,224z"/>
	<path fill="#FFFFFF" d="M384.7,229.2c0.3,0,0.7,0,1-0.2c0.3-0.1,0.5-0.4,0.7-0.8c0.2-0.4,0.3-0.8,0.2-1.2c-0.1-0.3-0.3-0.7-0.7-1
		c-0.6-0.4-1.2-0.7-1.8-1l-2-1l-1.6,3.2l1.9,1C383.6,228.8,384.4,229.2,384.7,229.2z"/>
	<path fill="#309E3A" d="M424.7,264.1c0.3,1.8,1.4,3.4,3,4.4c1.5,1.1,3.4,1.5,5.2,1.1c1.9-0.5,3.5-1.6,4.5-3.3
		c1.2-1.9,1.7-3.8,1.4-5.5c-0.3-1.8-1.4-3.4-3-4.4c-0.9-0.6-1.8-1-2.8-1.2c-0.7-0.1-1.5-0.1-2.2,0c-0.8,0.2-1.5,0.5-2.2,0.9
		c-1,0.7-1.9,1.6-2.5,2.6C424.9,260.5,424.4,262.3,424.7,264.1z M428.5,260.3c1-1.4,2-2.2,3-2.4c1-0.3,2.1-0.2,3,0.5
		c0.9,0.7,1.5,1.6,1.6,2.6c0.2,1-0.2,2.2-1.1,3.6c-0.9,1.4-1.9,2.1-2.9,2.4s-2,0.1-3-0.6c-0.9-0.6-1.5-1.5-1.6-2.5
		c-0.2-1.1,0.1-2.3,1.1-3.6H428.5z"/>
	<path fill="#FFFFFF" d="M427.5,263.9c0.1,1,0.7,1.9,1.6,2.5c1,0.7,2,0.9,3,0.6s2-1,2.9-2.4c0.9-1.4,1.3-2.6,1.1-3.6
		c-0.1-1-0.7-1.9-1.6-2.6c-0.9-0.7-2-0.8-3-0.5c-1,0.2-2,1-3,2.4h0.1C427.6,261.6,427.3,262.8,427.5,263.9z"/>
	<polygon fill="#309E3A" points="309.3,206.2 309.7,204.6 304.2,203.3 304.8,200.6 309.7,201.8 310.1,200.1 305.2,199 305.7,196.8 
		311,198 311.3,196.4 304.1,194.7 301.8,204.5 301.8,204.5 	"/>
</g>
</svg>
