<?xml version="1.0" encoding="utf-8"?>
<!-- Generator: Adobe Illustrator 17.1.0, SVG Export Plug-In . SVG Version: 6.00 Build 0)  -->
<!DOCTYPE svg PUBLIC "-//W3C//DTD SVG 1.1//EN" "http://www.w3.org/Graphics/SVG/1.1/DTD/svg11.dtd">
<svg version="1.1" id="flag-icon-css-bt" xmlns="http://www.w3.org/2000/svg" xmlns:xlink="http://www.w3.org/1999/xlink" x="0px"
	 y="0px" viewBox="0 0 640 480" enable-background="new 0 0 640 480" xml:space="preserve">
<g>
	<path fill="none" d="M641.2,336.4c0-6.6-0.1-7.7-1-8.3v17.2C641.2,344,641.2,342.7,641.2,336.4z"/>
	<path fill="none" d="M0.1,293.6c-0.1,0.2-0.2,0.3-0.3,0.3c-0.3,0.2-0.1,0.4,0.3,0.7V293.6z"/>
	<path fill="none" d="M640.3,265.1c0.2-0.4,0.1-1-0.1-1.6v1.8C640.3,265.2,640.3,265.1,640.3,265.1z"/>
	<path fill="#FFD520" d="M288,257.7c-1,1.4-2.6,2.4-5.3,2.4c-2.8,0-4.7-0.6-6.1-1.7c-0.5,1.6-1.6,3-3.8,3.9
		c-2.8,1.1-5.1,0.7-6.9-0.3c-0.1,1.9-1,3.8-2.7,5.4c-1.2,1.1-2.5,1.4-3.8,1.3c0.1,0.9-0.1,1.9-0.6,2.9c-0.9,1.7-2,2.6-3.2,3
		c0.7,1.1,0.9,2.8,0.6,5.1c-0.2,1.5-0.8,2.5-1.7,3.1c0.9,1.1,0.7,3.3-0.3,6.6l38.1-28.6C290.3,260.2,288.9,259,288,257.7z"/>
	<path fill="#FFD520" d="M108.5,357.9c0.1,0,0.2,0.1,0.3,0.2c0.7,0.5,1.6,0.5,3.4-0.1C111,357.8,109.7,357.8,108.5,357.9z"/>
	<path fill="#FFD520" d="M137,355.3c-2.7-1.4-8.5-0.5-13.9,2.4c-0.9,0.4-1.8,0.7-2.7,0.8c0.4,1.1,1.8,1.5,6.2,1.7
		c1.5,0.1,2.7,0.3,3.6,0.6C132.4,359.7,134.7,358.1,137,355.3z"/>
	<path fill="#FFD520" d="M310.1,219.1C310.2,219.1,310.2,219.1,310.1,219.1C310.2,219.1,310.2,219.1,310.1,219.1
		C310.2,219.1,310.1,219.1,310.1,219.1z"/>
	<path fill="#FFD520" d="M369.3,101c-1.8,0.7-2.6,0.7-4.5,0.2c-1.8-0.5-2.9-0.6-3.7-0.1c-0.3,0.1-1.4,0.3-2.9,0.4
		c3.5,0.8,7.2,2,11.1,3.6C369.2,103.6,369.2,102.2,369.3,101z"/>
	<path fill="#FFD520" d="M397.3,160.8c3.1,2.4,5.3,4.9,7.1,7.5c1.9-0.7,2.7-1.5,3.9-2.1c-2.5-3.1-4.3-6.5-6.6-9.4
		c-1.4-0.1-2.8-0.1-4.5,0.1C397.2,158.2,397.2,159.5,397.3,160.8z"/>
	<path fill="#FFD520" d="M483.7,107.4c3.4-0.6,7.1,0.5,10.3,2.3l5.5-4.2c-0.3-0.1-0.7-0.3-1-0.4c-1.8-0.6-3.8-1.8-4.6-2.6
		c-0.8-0.8-1.8-1.5-2.1-1.5c-0.4,0-2.1-0.6-3.8-1.3c-2.4-1.1-3.6-1.2-6.6-0.9c-1.1,0.1-1.9,0.2-2.5,0.2
		C481.1,101,482.8,104,483.7,107.4z"/>
	<path fill="#FFD520" d="M474.5,96.9c0,0-0.1,0.1-0.1,0.1c0.7,0.1,1.4,0.3,2.1,0.6C475.5,96.4,475.1,96.3,474.5,96.9z"/>
	<path fill="#FFD520" d="M425.2,155.9c-8,2-12.7,2.1-16.5,1.7c1.8,2.5,3.7,5.1,5.9,7.3C422.1,164.2,420.2,156.9,425.2,155.9z"/>
	<path fill="#FFD520" d="M385.7,108c1.1-1.2,2.9-2.2,5-2.4c-1.2-0.9-2.4-1.8-3.6-2.6c-1.9-0.1-3.6-0.3-4.8-0.6
		c-1.6-0.5-2.9-0.9-4-1.2C379.7,103.6,382.7,106,385.7,108z"/>
	<path fill="#FFD520" d="M7.2,296.6c1.9,0.1,3.1,0.6,5,2.2c1.6,1.3,3.8,2.5,5.9,3l3.3,0.8l1.2,4.3c1,3.8,1.1,5.1,0.5,10.5
		c-0.9,9-0.8,18.7,0.2,18.7c0.4,0,2.4-2,4.4-4.4l3.7-4.4l2.8,2.3l2.8,2.3l-0.4,3.8l-0.4,3.8l3.4,1.8l3.3,1.8l3.4-2
		c4.1-2.3,4.6-2.4,5.2-0.7c0.3,0.8,1.2,1.4,2.3,1.7c1.8,0.3,1.9,0.4,1.4,3.1L55,348l2.3-0.9c2-0.8,2.5-0.9,4.5-0.1
		c1.9,0.8,2.2,1.2,2.2,3.3c0,1.3,0.4,2.9,0.9,3.6c0.5,0.7,0.9,2.1,0.9,3c0,1,0.4,2.6,0.9,3.6c0.9,1.8,5.6,6.3,6.5,6.3
		c0.3,0,1.9-0.4,3.5-1c2.4-0.8,3.5-0.9,5.1-0.4c1.6,0.4,2.9,0.4,5.3-0.2c1.8-0.5,4.5-0.7,6.5-0.5c2.8,0.3,3.5,0.2,3.8-0.6
		c0.2-0.6,2.6-2.3,5.3-3.9c1.4-0.8,2.4-1.4,3.2-1.8c-0.4,0.2-0.9,0.4-1.3,0.6c0.7-7.6,15.2-3.3,24.2-8.5c8.8-5.2,16.3-4.5,23.3-3.8
		c-8.9-1.8-13.8-10.1-27.7-7.3c-6.7,1.4-12.1-9.3-18.8-3.9c0.2-4,7.2-7.2,14.4-3.3c7.2,3.9,10.1-3.4,24.5,5.7
		c6,3.7,16.1-2.4,22.5,1.6c-0.8-2.4-4.5-4-8.8-3.6c2.2-4.5,13.9-4.9,22.4-2c-1.6-2.3-2.2-4.9-2.2-6.9c4.1,1.6,9.6-1,14.4-0.5
		c-2.5-1.7-3.7-4.2-3.9-6.4c4.4,1.4,6.6-2.4,9.8-4.4c-4.4-0.8-8.6-2.7-9.6-5.2c5.9,1.9,8.3-5.1,15-6.1c-0.5-3.3,2.7-8.8,6.8-10.9
		c-1.3-1.3-2-3.5-1.5-6.3c0.7-5.1,1.6-7.9,3.9-9.4c-0.4,0-0.9-0.1-1.3-0.2c-4.3-0.8-15.7,6.7-20.4-0.8c10.9,3.1,17.7-10.5,27.1-12.7
		c-1.2-2.5-1.6-6-1.1-8.9c0.9-4.3,5-7.5,8.5-7.1c-2.4-2.9-1.6-7.4,0.2-8.2c-0.3-2.1,0.4-3.5,1.7-4.4c-1.7-1-3-1.8-4.4-1.3
		c-3.2,1.1-6.9-2.7-11,0.5c0.2-5.4,6.8-2.3,13.7-7.8c3.2-2.5,8.4-2.9,13.6,1.5c-0.7-2.1-0.2-4.7,1.6-6.7c2.5-2.8,8.1-3.6,11.1-0.4
		c0.1,0,0.2-0.1,0.2-0.1c-1.5-4,0.9-8.9,4.4-10.2c2.6-1,6.9-1,9.5,1.2c-0.5-2.6,0.3-5.3-1.8-6.7c-3.4-2.2-6.2-4.7-5.2-8.5
		c1.8,4.4,7.1,4.3,11.6,5.3c3.6,0.7,7,4.1,8,7.7c1-1.5,2.7-2.5,5-2.3c2.8,0.2,4.8,1.4,5.6,3.3c1.2-1.7,3.2-2.7,5.8-2.2
		c2.5,0.5,4.2,1.9,4.8,3.6c1.3-1.5,3.3-2.3,5.7-1.6c1.7,0.5,3,1.3,3.9,2.4c0.3-2.5,0.7-4.9-0.4-5.9c-2.3-2.1-3.3-5-1.7-8.3
		c0.2,2.4,3.4,4.7,6.7,6c3.4,1.3,1.5,7.9,6.7,10.5c1.9,1,3.1,3.2,2.8,5.4c1.4-1.5,4-2.4,7-1.1c4.6,2,5.6,5.8,4,7.7
		c0,0,0.1,0,0.1,0.1c0.5-0.8,1.8-1.6,3.9-1.9l14-10.5c-2.2-1.4-5.1-2.8-7.9-1.6c3.1-6.7,12.2-0.3,15.2-5.3c0.4-0.8,0.9-1.5,1.5-2.2
		c-1.8-0.4-3.5-1.2-4.5-2.6c-2.8-3.7-3.2-8.4-1.1-11.3c-2.8,0.8-5.9-0.5-7.9-3.1c-2-2.6-2.5-6.3-1.3-9c-2.5,1.3-5.4,1.6-7.7,1.8
		c-3.6,0.2-8.1,4-9.3,10.8c-5.6-10.7,4.5-13.1,5.4-20.1c0.2-1.9,0.9-3.8,1.8-5.5c-5.9,1.1-10.8,3.7-15.4,8.3
		c5.3-10.9,11.3-15.4,17.2-17.3c-0.1-0.7-0.2-1.4-0.2-2.2c-0.1-2.9,0.7-4.9,2.1-5.7c-0.9-1.4-1-3.7-0.2-6.4c0.9-2.9,2.4-4.4,4.1-4.7
		c-0.5-1.6-0.1-3.6,1-5.9c0.1-0.1,0.1-0.2,0.2-0.3c-0.6,0.1-1.1,0.2-1.6,0.3c-7.7,2.1-26.8-6.3-38.1,3.9c1.5-8,11.5-10.1,26.3-9.5
		c5.4-5.8,13.5-8.1,21.6-8.3c-2.5-1.7-3.6-4.4-2.2-9c3.3,10,17.2,4.2,25.5,8.6c0.8-0.3,1.7-0.6,2.6-0.8
		c-20.5-10.2-41.4-13.8-45.6-8.6c-4.4,5.4,4,8.2,6.4,7.2c-2.3,6.1-15.7,0.8-12.1-8.7c1.2-3.3,4.2-5.8,8.7-7.1
		c-0.4-0.1-0.8-0.3-1.2-0.5c-2.4-1-3.9-1.3-4.5-0.9c-3.2,2.4-4.3,2.9-6.3,3.3c-2,0.3-2.4,0.1-3.9-1.6c-2.1-2.4-8.1-3.9-9.3-2.3
		c-0.4,0.5-1.6,0.9-2.8,0.9c-2,0-2.2-0.2-3.6-3.8c-0.8-2.1-1.8-3.9-2.3-4.1s-0.9-0.7-0.9-1.1c0-1.3-3.3-4-5.3-4.5
		c-2.4-0.5-4.1-2-4.1-3.4c0-2.3-0.8-3.1-3.1-3.1c-1.7,0-2.8,0.4-3.8,1.6c-1.7,1.8-2.9,1.9-7.5,0.6c-3.7-1.1-6.9-3.2-6.5-4.3
		c0.5-1.6-2.8-3.7-8.3-5.4c-3.8-1.1-5-0.8-4.8,1.8c0.1,1.1-0.1,2.5-0.6,3c-0.6,0.8-0.5,1.3,0.6,2.8c0.8,1,1.4,2.3,1.4,2.7
		c0,1.3-2.6,1.8-4.1,0.8c-0.7-0.5-1.8-1.3-2.5-1.8c-0.7-0.5-2.6-1.1-4.2-1.3c-2.7-0.4-3-0.3-3,0.8c0,3.3-4.6,2.7-5.5-0.8
		c-0.4-1.3-1.2-2.2-2.6-2.9c-1.1-0.6-2.4-1.4-2.8-1.9c-2.1-2.8-6.6-2.9-7.8-0.2c-1,2.1-2,1.9-2-0.3c0-1.8-0.2-1.9-2.2-1.9
		c-1.3,0-2.9,0.4-3.7,0.9c-1.4,0.9-1.6,0.9-3.6-1.5c-1.2-1.3-2.9-3.6-3.9-5c-1.8-2.7-2.8-3.1-4.7-1.9c-0.9,0.6-1.4,0.4-2.8-0.9
		c-0.9-0.9-2.3-1.6-3-1.6c-0.8,0-2-0.6-2.8-1.3l-1.3-1.2l-1.1,2.1c-0.7,1.2-1.7,2.2-2.3,2.2c-0.9,0-1.1,0.4-0.8,2.8
		c0.3,2.4,0.2,2.8-1.6,4.1c-1.5,1.1-2.1,1.3-3.2,0.7c-1.4-0.8-2.5-0.4-2.5,0.9c0,0.4-0.4,1.3-0.8,1.9c-0.8,1.1-0.9,1.1-2.8,0.1
		c-2.8-1.4-5.6-1.3-7.7,0.5c-1.6,1.4-2.3,1.5-6.9,1.3c-5.1-0.2-8.1,0.7-8.1,2.5c0,0.4-0.9,2.4-1.9,4.3c-1.3,2.3-2.4,3.6-3.4,3.9
		c-0.8,0.2-2.3,1.6-3.3,3.1c-1.5,2.1-2.2,2.6-3.7,2.6c-1,0-2.3-0.3-2.9-0.5c-0.8-0.4-1.1-0.1-1.4,1.4c-0.2,1-1.3,2.6-2.3,3.6
		c-1.1,1-2.4,2.8-3.1,4.1c-0.7,1.3-1.6,2.4-2.2,2.6c-1,0.4-1.3,2.1-0.4,2.4c0.3,0.1,0.7,0.8,0.9,1.4c0.3,0.9-0.1,1.5-1.5,2.3
		c-1.6,0.9-1.8,1.4-1.5,2.7c0.6,2.5-0.3,5.8-1.6,6.3c-0.8,0.3-1.3,0.9-1.3,1.8c0,1.8-0.5,2.4-2.8,3.6c-1.4,0.8-1.8,1.4-1.7,2.6
		c0.1,1.2-0.1,1.7-1.1,1.9c-1.4,0.3-2.6,2.7-2.6,5.1c0,1.1-0.4,1.6-1.5,1.9c-0.9,0.2-1.8,1.1-2.3,2.1c-0.5,1.3-1.4,1.9-2.7,2.3
		c-1.1,0.2-2.5,0.9-3.2,1.4c-0.7,0.6-2.4,1.1-4.6,1.1c-3.3,0.1-3.6,0.2-5,2.3c-0.8,1.2-1.9,2.5-2.6,2.8c-0.6,0.4-1.5,1.5-1.9,2.6
		c-0.5,1.1-1.9,2.6-3.5,3.5c-1.5,0.9-2.8,2-2.8,2.5s-0.4,0.9-0.9,0.9c-1.7,0-2.4,3.1-1.3,5.5c0.6,1.1,1,2.6,1,3.1
		c0,1.5-1.9,3.5-4.2,4.5c-1.9,0.8-4.8,5.6-5.6,9.3c-0.3,1.3-1.2,2.4-2.9,3.6c-1.3,0.9-3.4,3.2-4.7,5.2c-1.3,1.9-2.3,3.7-2.4,3.8
		c-0.1,0.1-1.5-0.1-3.1-0.4c-2.5-0.6-3.4-0.4-6.8,0.9c-4.4,1.7-6.3,3.3-8,6.6c-0.9,1.8-1.6,2.4-2.8,2.4s-1.9,0.6-2.8,2
		c-0.7,1.2-0.9,2.2-0.6,2.4s-0.6,1.6-2.2,3.1c-3,2.9-3.8,6-1.9,7.5c1.3,1.1,1.2,1.6-1,4.1c-1.3,1.5-1.9,2.6-1.6,3.5
		c0.2,0.7-0.2,2.2-0.8,3.3c-0.9,1.6-1.1,2.5-0.7,4.3c0.4,2,0.4,2.4-0.7,3.1c-1.3,0.8-1.2,0.9,1.3,3.8c2.6,3,3.6,5.8,3,7.9
		c-0.4,1.3,1,2.9,3.3,3.5c1.1,0.4,1.4,0.9,1.4,2.9s-0.3,2.5-1.4,2.8c-0.8,0.3-2.3,1.2-3.2,2.1l-1.8,1.7l-1.4-1.9
		c-0.8-1.1-2-2.6-2.7-3.4l-1.3-1.5l-2.9,2c-1.6,1.1-2.9,2.4-2.9,2.9s-0.3,2.3-0.7,4.1c-0.6,2.8-1,3.3-3.1,4.4
		c-1.4,0.7-3.5,1.3-4.8,1.3c-1.3,0-3.5,0.3-4.9,0.7c-2.9,0.8-6.8,3.5-6.2,4.4c0.2,0.4-0.1,3.3-0.8,6.6L8.5,286H6.3
		c-1.2,0-2.9,0.6-3.9,1.3c-1.4,1-1.8,1.8-1.8,3.7c0,1-0.2,2-0.5,2.5v1C1.3,295.5,5,296.6,7.2,296.6z"/>
	<path fill="#FFD520" d="M411.8,171.3c-1.9-0.2-3.9-0.7-6.1-1.2c0.9,1.3,1.7,2.6,2.5,3.9L411.8,171.3z"/>
	<path fill="#FFD520" d="M404.6,152.2c3.5-0.4,6.7-0.8,9-3c-5.2-0.1-9.5-1.4-13-2.8c-0.3,0.5-0.6,1-0.9,1.5
		C401.5,148.8,403.1,150.4,404.6,152.2z"/>
	<path fill="#FFD520" d="M397.8,153.3c0.1,0,0.2,0,0.3-0.1c-0.1-0.1-0.2-0.1-0.2-0.1C397.8,153.1,397.8,153.2,397.8,153.3z"/>
	<path fill="#FF4E12" d="M488.9,154.1c6.7-2.6,5.3-6.9,7.9-9.6c-0.6-0.2-1.2-0.4-1.8-0.7c-3,2.3-7.4,2.3-10,2.3
		c2.8-1.6,3.4-4.4,2.5-6.6c-1.8-1-3.6-1.8-5.4-2.3c-1.6,2.6-4.6,5.7-6.8,7.1c1-2.3,0.3-6-0.7-8.3c-5.6,0.2-10.3,3.1-13.5,9.6
		c-0.1,0.2-0.1,0.3-0.2,0.5c6.7,0.9,18.9,5.3,26.7,8.7C488,154.5,488.4,154.3,488.9,154.1z"/>
	<path fill="#FF4E12" d="M466,313.8c-0.4,1.7-1.3,3.3-2.4,4.6c2-1.4,4.3-2.4,6.7-3C468.6,315.4,467.1,314.9,466,313.8z"/>
	<path fill="#FF4E12" d="M344.6,226c5.8,1.5,7.5,5,7.5,8c0,0,0,0,0,0c0.6-1.5,2.9-1.9,4.7-1.3c1.5,0.5,3.8,1.8,4,3.4
		c0.2,0,0.3,0,0.5,0.1c0.4-1.5-0.2-3.4-3.3-4.3c-5.2-1.7-7.1-5.1-5.7-8.2c1.5,3.9,8.4,5,12,4c1.4-0.3,3.3-0.3,5.2,0.2
		c-1.6-2.1-2.7-4.5-2.7-6.1c-0.1-1.1,0.1-2.3,0.6-3.6c-3.9,1.4-8.6,0.8-11.7-1.3c-0.6-0.4-1.5-1.1-2.5-1.7l-14,10.5
		C340.7,225.5,342.5,225.5,344.6,226z"/>
	<path fill="#FF4E12" d="M494.6,158.2c0-1.5,0.2-2.6,0.5-3.5c-0.7,0.9-1.7,1.6-2.8,2.2c0.6,0.3,1.1,0.6,1.4,0.8
		C494,157.9,494.3,158.1,494.6,158.2z"/>
	<path fill="#FF4E12" d="M528,202.6c0.3,0.9,0.4,1.9,0.2,3.2c1.3-3.4,4.4-4.8,7.2-5c-0.5-0.8-0.7-1.3-0.5-2c-0.5-0.9-0.7-1.9-0.8-3
		C532.6,198.6,530.5,200.9,528,202.6z"/>
	<path fill="#FF4E12" d="M512.7,130.1c5.3,2.3,2.6,5-1,3.9c0,0,0,0,0,0c3.6,1.7,2.9,3.7,0.7,3.9c6.9,9.5-3.1,16.8-2.8,24.9
		c2.3,0.2,4.5,0,6.4-0.6c10-2.8,5.4-10.3,1-11.6c1.8-0.9,3.9-1,5.8-0.5c4.5,1.2,7.1,5.8,5.9,10.3c9.4-3.6,5.3-12.5,0.6-11.8
		c1.2-0.9,2.4-1.3,3.7-1.3l-0.1-0.3c-1.7-4.5-1.6-4.8,0.3-4.3c1.3,0.3,1.6,0.1,1.9-0.9c0.4-1.4,1.4-1.7,2.6-0.6
		c0.5,0.5,0.9,0.5,1.6-0.1c0.5-0.4,1.3-0.6,1.6-0.4c0.3,0.2,1.3,0.2,1.9,0c1.8-0.6,1.2-2.8-1.8-6.8c-2.4-3.2-3.1-3.4-7.5-2
		c-1.1,0.3-1.6,0-2.6-1.8c-0.8-1.3-1.7-2.3-2.1-2.3c-0.3,0-1.7-0.6-3.3-1.3c-3.3,0.8-6.5,1.3-8.9,1.4
		C518.1,129.9,515.6,131.3,512.7,130.1z"/>
	<path fill="#FF4E12" d="M528.1,221.4c-4,4.4-9,5.7-13.1,4.7c-2.8,0.3-7.9-0.9-9.3-2.5c-4.6-0.4-8.4-2.6-11.4-7.2
		c-4.1-0.8-8.5,2.6-17.8,9c-4.1,2.8-10,3.5-15.8,3.1c0.1,5.6,7.6,13,2.5,18.6c0.2-3.6-3.6-9.4-7.8-11.3c2.3,4.3-4.9,7.4-1.7,14
		c-6.7-1.7-9.5-10.2-5.3-19.6c-2.8,4.8-8,6.8-11.5,4.6c5.6-1.6,6.6-7.4,5.6-11.6c-5.1-3.2-11.9-1.5-17.2,2.4
		c1.4,14.4-2.2,29.1-10.6,41.5c-4.4,5.8-3.1,7.5-8.8,13.4c-2.2,2.3-4.6,5.2-3.8,13.4c3.6-1.3,8.7,2,9.7,5c2.6-1.4,6.2-0.9,7.5,0.7
		c4.4-2,8-1,11.9,3c3.3-0.4,7,0,10.3,3.7c1.8-3.6,5.4-5,8-4.1c-0.3-4.7,4.3-8,8.4-6.2c-1-4.1,1.5-8.2,5.6-9.2
		c1.4-0.3,2.9-0.3,4.2,0.2c4.7-3.6,14-3.9,18.6,1.5c-8.3-2.3-8,6.5-15,5.7c1.4,3.9-1,6.6-4.2,8.4c1.8-0.7,3.4-1,4,0.1
		c2.6-2.3,7.7-1.4,9-0.3c3.4-1,6.7-0.2,8.2,3.9c4.7,2.8,7.8,10,4.4,15.4c-1-5.6-4.9-5.4-6.4-7.7c-3.6,1.3-7.2,1.3-8.3-1
		c-0.6,0.6-1.8,1.3-3.2,1.7c0.4,0,0.7,0,1.1,0c12.2,0,22,9.9,22,22.1c0,12.2-9.9,22-22,22v-0.1c-12.2,0-22-9.8-22-22
		c0-6,2.4-11.5,6.3-15.4c-1.3,0.7-2.7,1-4.1,1c1.3,3.6-2.3,9.7-5.1,12.8c4.4,2.3,3,7.5,2,10.6c6.8,1,1,7,12.7,10.8
		c-5.7,1.8-16.8,0-18.3-7c-5.7-0.2-9.5-5.9-9.3-11.8c-4.4-4.1-5-10,1-14.2c-5.1,1.6-8-6.7-15.4-3.3c-3.7,1.7-13.5-1.2-13.4-4.6
		c-1.5,2.5-11,1.5-12.2-2.9c-3.1,1.7-10.3-1.1-10.2-5.4c-4,1.8-9.4-1.4-9.1-5.5c-0.8-0.1-1.4-0.3-1.9-0.6c-1,3.8-3.2,8.7-7.5,8.7
		c3.2-5.7-1.4-9.9,0.4-10.4c-6.1-2.2-10,11.1-17.4,4.1c7,0.6,5.1-11.2,15.6-11.9c-10.5-1-7.9-5.2-13.3-5.4c1.5-2.2,5.3-1.9,8.3,0.3
		c2.8,2.3,5.3-3.6,10.7,0c0,0,0-0.1,0.1-0.1c-2.3-2.5-1.5-5.9,0.2-9.2c-3.2-0.2-5.6-0.9-7.4-2c-1.3,0.9-3.3,1.2-5.9,0.7
		c-1.7-0.3-3.1-1-4.2-1.9c-0.9,0.3-2.1,0.5-3.5,0.4c-7.7-0.3-12-2.1-14.2-4.3c-1.1,0.4-2.5,0.7-4.1,0.6c-5.3-0.3-8.9-1.7-11.3-3.5
		c-5.6,0-9.5-1.7-12.1-4c-3.9,0.5-7-0.8-9.3-2.7c-4.2,0.9-7.3,0.8-9.5,0.1l-38.1,28.6c0,0.1,0,0.1-0.1,0.2c-0.8,2.5-2.2,5.4-1.2,8.6
		c0.1,0.3,0.3,0.6,0.4,0.9c1.2,2.5,2.2,4.9,3,7c1.6,0.3,3.2,0.8,4.8,1.5c0.7-1.1,2.6-3,4.6-3c-1.3-2.5-0.1-9.4,3.3-11.5
		c0.8-4.4,3.3-8.5,9.2-8.8c5.7-0.5,11.2,1.1,14.5,5.5c-2-0.5-6.7,1.6-9.7,1.1c-0.3,2.1-2.7,5-4.9,6c0.9,1.4,0.7,5.1-1.3,6.8
		c2.4-1.7,6.8-3.8,8.4-3.1c1.1-1.5,6.9-2.3,9-1.1c5.5-2.9,13.6,1.6,13,10.1c-1-1.1-2.2-1.6-3.4-1.8c6.2,2.6,10.6,8.8,10.6,16
		c0,9.6-7.7,17.3-17.3,17.3c-1.7,0-3.4-0.3-5-0.7c0.9,0.3,1.7,0.5,2.4,0.5c-2.8,1.7-12.4,2-15.3-1c-2.8-3-9.4-2.8-11.4-8.2
		c-2,0.2-6.3,0.5-9.7-1.8c-1.5,7.3-4,13.9-1.7,24c5,1,7.5,5.2,7.2,9.6c3,0.1,5,2.8,4,8c2.2-0.4,4.4,0.1,6.3,1.3l-0.4-2.1
		c-0.8-4.5,0.4-7.6,4.3-11.8c2.2-2.5,2.7-2.7,5.5-2.7c1.7,0,4.9,0.5,7.1,1.1l4,1.1l4.4-2.9c3.4-2.3,4.5-3.3,4.5-4.4
		c0-2.9,1.2-3.5,7.5-3.9l6-0.4l12.2,9.2c8.1,6.1,13,9.4,14.7,9.8c12.7,3.3,13.7,3.6,15.4,5.6c1.6,1.9,1.7,1.9,3.9,1.3
		c2.2-0.8,2.5-0.7,5,1.1c2.9,2.2,4.5,2.4,7.8,1c3.2-1.4,42.2-4.3,42.9-3.3c0.3,0.5,1.3,0.4,3.8-0.4c3.3-1.1,3.4-1.1,9.3,0.2l5.9,1.3
		l4.5-4.6l4.5-4.6l3.1,1.1c2.5,0.9,4.8,1.1,13.7,1.1c11.7,0,14.9,0.6,18.4,3.3c3.3,2.6,9.8,3.1,14.3,1.1c2.8-1.3,3.8-2.2,6.3-6
		l3-4.5l4.8,3.6c3.1,2.4,6,4,8.5,4.8c3.8,1.2,3.8,1.2,13.3-0.5c7.3-1.3,10-2,11.8-3.2c2.8-1.9,2.9-1.9,8.5-0.3
		c6.9,2.1,10.6,1.1,23.3-5.8l10-5.5l3.1-5.3c3.1-5.2,3.1-5.3,6.3-5.9l3.2-0.6l6.4,3.7c3.6,2.1,7.8,5.1,9.5,6.8
		c2.8,2.8,3.3,3,7.3,3.4c5.8,0.6,8.3,0.5,9.9-0.6c0.8-0.4,2.6-1.1,4.1-1.6c2.4-0.6,2.6-0.9,2.6-2.6c0-1.2,0.6-2.7,1.6-3.8
		c0.2-0.3,0.4-0.5,0.6-0.7v-17.2c-0.1-0.1-0.2-0.1-0.3-0.2c-0.9-0.5-1.3-1.3-1.3-3c0-2.5-1.3-4.6-3.6-5.7c-1.1-0.6-1.3-1.1-1.1-2.6
		c0.5-2.3-1.9-4.8-5.4-5.3c-2.4-0.4-2.4-0.5-3.1-3.9c-0.4-1.9-1.1-4.5-1.6-5.6c-1.1-2.6-1.1-4.5,0.1-4.9c1.4-0.6,1.8-4.3,0.7-7.5
		l-1-2.9l2.2-2.2c1.2-1.2,2.2-2.6,2.2-3.1s0.6-1.7,1.2-2.6c2.1-2.8,2.2-4.6,0.6-7c-1-1.4-2.1-2.3-3.2-2.4c-1.5-0.2-1.7-0.4-1.3-1.6
		c0.3-0.8,0.8-1.6,1.1-1.8c1.4-0.9,5-1.3,6.1-0.6c1.6,0.9,6.8,0.9,7.7,0v-1.8c-0.8-2.2-4.1-5.1-6.4-5.1c-1,0-5.1-5.8-5.1-7.1
		c0-0.7-0.8-2.1-1.7-3l-1.8-1.8l1.4-3.6l1.3-3.7l-1.5-1.8c-0.8-1-1.4-2.7-1.5-3.7c0-1.3-0.6-2.3-1.9-3.4c-1.4-1.2-2-2.3-2.3-4.4
		c-0.2-1.6-0.6-3.3-0.9-3.9c-0.8-1.6-2.9-1.3-4.8,0.8c-1.4,1.4-2.4,1.9-5.6,2.3c-3.6,0.4-4,0.3-5.2-0.9c-1.1-1.2-1.8-1.3-4.1-1
		c-1.8,0.3-3.1,0.1-3.7-0.3c-0.6-0.6-1.3-0.6-2.4-0.1c-1.3,0.6-1.6,0.5-2.3-0.6c-0.4-0.7-1-1.1-1.5-1c-0.4,0.2-1.1,0-1.6-0.4
		c-0.6-0.6-1.1-0.3-2.2,1.1c-1.1,1.3-1.9,1.8-3.2,1.6c-3.6-0.3-6.8,0-7.4,0.6c-0.9,0.9-2.9,0.8-3.3-0.3c-0.4-1.2-2.1-1.8-3-1.1
		c-2.9,2.3-8.5,1.9-7.3-0.6c0.9-1.6,0.8-2.4-0.4-2.9c-0.6-0.3-1.6-1-2.2-1.7c-0.9-1.3-1.1-1.3-2.2-0.2c-0.7,0.6-1.5,1.1-1.8,1.1
		c-0.4,0-1.6,0.7-2.8,1.6c-2.4,1.8-3.8,1.3-3.8-1.4c0-1-0.6-1.9-2.1-2.8c-1.4-0.8-2.4-2.1-3.2-4c-0.2-0.4-0.3-0.8-0.5-1.2
		c-0.3,0.1-0.6,0.1-0.9,0.2C540.1,217.7,534.3,222.4,528.1,221.4z"/>
	<path fill="#FF4E12" d="M247.4,374.9c-2.7-1.7-1.9-4.5,0.2-5.2c-3.4,0.9-5.1-2.6-2.3-4.2c0,0,0-0.1,0-0.1c-4.8,1.3-6.1-4.6-3.7-5.6
		c0,0-0.1-0.1-0.1-0.1c-6.8,0-4.4,9.7-9,9.2c1.5-3.5-2.3-6.1-1.8-9c-2.7,3.5-10.3,5.6-12.9,2.4c6.5-0.5,5.4-8,8.5-8.1
		c6.6-0.3,2.7-5.3-0.4-5.5c-3.1-0.2-4-0.7-1.4-2.2c2.1-1.3,7-0.9,9.9,0.3c1.4-3.6,1.7-7.5,1.4-11.3c-2.7,1.4-6.3,0.9-7.4-0.4
		c-1.4,0.7-3.3,0.9-5.7,0.2c-7.8,6.3-18.9,9.1-22.3,17.3c-3.8,8.8-11.9,6.9-21.6,20c-2.7,3.6-5.8,4.7-9.2,5.4c-1,1-2.3,1.8-3.3,1.8
		c-0.8,0.1-1.9,4.1-1.4,5.3c0.3,0.8,0.9,0.9,2.5,0.6c1.3-0.2,2.3-0.1,2.6,0.4c0.7,1.1,2.7-0.3,3.8-2.4c0.8-1.6,1.2-1.8,2.3-1.3
		c0.7,0.4,1.8,0.5,2.4,0.3c0.6-0.2,1.3-0.1,1.6,0.3c0.2,0.3,0.9,0.6,1.6,0.6s1.4,0.6,1.8,1.4c0.5,1.3,0.6,1.3,1,0.4
		c0.4-1.1,4.5-2.6,5.5-1.9c0.4,0.2,0.5,0.9,0.3,1.5c-0.2,0.8,0.4,1.9,1.6,3.1l1.9,1.9l3.6-1.3l3.6-1.4l4.8,1.4
		c4.9,1.4,6.1,1.3,4.8-0.2c-1-1.3,0.1-5.8,1.3-5.5c5.8,1.6,8,1.9,14.4,1.9c4.8,0,8-0.3,9.4-0.9c0.6-0.3,1.5-0.4,2.5-0.5
		c2.1-1.2,4.7-2.1,7.8-2.5C245.1,379.1,246.4,377,247.4,374.9z"/>
	<path fill="#FF4E12" d="M526.3,165.1c-8.7,2.5-18.4,2.2-26.1-0.4c-0.1,5.5,0.2,12.2-5.2,16c2.9-6.7,1.2-13.4,0.3-17.5
		c0-0.2-0.1-0.4-0.1-0.7c-0.2-0.1-0.3-0.2-0.5-0.2c-2-1.1-4.2-2.2-6.7-3.2c-1.8,0.9-3.6,2-5.4,3.6c3.3,0.8,5.8,3.4,7.2,6.1
		c1.7,2.4,1.3,5.9-0.8,8c0,0,0,0,0,0c4.5,3.3,3.5,13.1-2,14.4c1.8-3.9-2.3-5.6-3.8-8.6c-2,3-6.6,5.5-3.8,9.5
		c-4.7-1.7-5.7-6.1-4.3-10c-3.4,3.3-7.7,5.4-12.9,2.5c4.7-0.2,5.9-6.4,9.8-8.2c-1.2-0.7-2.2-1.6-2.9-2.6
		c-4.9-6.9-11.7-11.5-19.4-12.5c-3.6,2-8.2,2.4-14.6,0.6c-6.2-1.4-12.6,1-16.4,6.1c1,0.6,2.1,1.1,3.3,1.4c9.4,2.6,8.8,13,17.8,15.5
		c-9.7,2.6-10.9-8-22.7-12.4c-1.1-0.4-2-0.9-2.9-1.4c-0.7,0.1-1.5,0.1-2.2,0l-3.6,2.7c2.8,4.2,5.5,7.7,10.8,9.3
		c7.7,1.5,14.9,4.9,21,9.8c4.3,4.6,23.4,7.7,29,6.4c5.7-1.3,17.8-6.2,22.7-2.8c1.5-3.4,4.2-8,7.2-11.4c-0.7,4.7,0.7,8.4,2.3,11.5
		c0.5,1.1,0.7,3.1,0.7,4.1c3.6,0.3,9.5,3.3,11.2,6.3c0.5-0.6,1-1.2,1.6-1.6c-7.9-1.4-14-8.1-14.6-16.3c-0.7-9.9,6.7-18.4,16.5-19.2
		c0.9-0.1,1.8-0.1,2.7,0c8.3,0.6,14.8,6.8,16.3,14.6c0.3-0.4,0.6-0.8,1.1-1.1c1.1-0.9,2.1-1.6,2.4-1.6s0.9-1,1.5-2.2
		c0.6-1.3,1.5-2.2,2.1-2.2c2.8-0.1,4.6-4.2,4.6-10.6c0-1.3,0.4-2.9,0.9-3.7c0.1-0.1,0.1-0.2,0.2-0.3
		C541.5,161.8,532.4,163.4,526.3,165.1z"/>
	<path fill="#FF4E12" d="M541.2,157.4c2.3,0.2,4.4,0.5,6.3,1c-0.2-0.7-0.3-1.3-0.3-1.7c0-2.8-1.7-5.8-4-7c-1.6-0.9-2.4-1-3-0.5
		c-0.3,0.2-1,0.5-1.9,0.8C540.1,151.8,541.3,154.5,541.2,157.4z"/>
	<path fill="#FF4E12" d="M497.4,112.1c4.9-2.5,8.1-2.6,9.5-0.1l0,0c0,0,0,0.1,0,0.1c1.7-0.8,3.6-1.5,5.5-1.6c-0.6-0.5-1.6-1-3-1.6
		c-2-0.8-4.1-1.3-4.6-1.1c-0.5,0.2-1.4-0.1-2-0.6c-0.5-0.4-1.8-1.1-3.3-1.6l-5.5,4.2C495.2,110.4,496.4,111.2,497.4,112.1z"/>
	<path fill="#FF4E12" d="M506.7,148.2c-0.8,3-3.2,6.6-5,9c-0.7,1-1.1,2.2-1.3,3.7c2.2,0.8,4.4,1.4,6.6,1.7
		C505.1,158.4,505.3,152,506.7,148.2z"/>
	<path fill="#FF4E12" d="M483.1,157.3c-5.5-1.9-12-3.7-19.3-5.6c1.9,2,3.5,4.1,5.5,4.2c3.4,0.2,5.7,4.1,9.4,5.9
		C479.9,160.1,481.4,158.6,483.1,157.3z"/>
	<path fill="#FF4E12" d="M158.1,363.7c-2.2-0.8-4,0.7-5.7,2.8c0.6,0.2,0.9,0.5,1.2,1C154.8,365.9,156.2,364.6,158.1,363.7z"/>
	<path fill="#FF4E12" d="M171.5,367.9c-1.4,0.4-2.8,0.7-4.1,0.8c-3.1,0.2-5.7,1.3-8,2.8c0.6,0.2,1.1,0.3,1.6,0.3
		c0.6,0,1.5,0.4,1.9,0.8c0.4,0.4,1.9,0.8,3.6,0.9C168,372.2,169.8,370.4,171.5,367.9z"/>
	<path fill="#FFFFFF" d="M343.6,151.8c-1.1-0.2-1.9-0.8-2.5-1.6c-1.4,0.9-2.2,2.8-2.1,5.7c0,0.8,0.1,1.5,0.2,2.2
		c1.4-0.4,2.7-0.7,4.1-0.9C343.2,155.3,343.3,153.5,343.6,151.8z"/>
	<path fill="#FFFFFF" d="M343.6,151.8c0.5-3.7,1.5-7.2,3-10.6c-0.8-0.5-1.3-1.2-1.6-2.1c-1.7,0.3-3.2,1.8-4.1,4.7
		c-0.8,2.7-0.7,4.9,0.2,6.4C341.6,151,342.5,151.6,343.6,151.8z"/>
	<path fill="#FFFFFF" d="M359,190.2c-3.8-4.2-6.9-8.3-9.2-12.2c-0.7,0.9-1.6,1.5-2.6,2.1c-1.1,2.8-0.6,6.4,1.3,9
		c2,2.7,5.1,3.9,7.9,3.1C357,191.3,357.9,190.6,359,190.2z"/>
	<path fill="#FFFFFF" d="M346.6,141.2c1.3-3,2.9-5.9,4.8-8.7c-2,0.1-3.8,0.2-5.2,0.4c-0.1,0.1-0.1,0.2-0.2,0.3
		c-1.1,2.2-1.5,4.3-1,5.9C345.3,140,345.8,140.7,346.6,141.2z"/>
	<path fill="#FFFFFF" d="M369.3,203.1c-2.5-3.9-5.4-7.8-8.7-11.2c-0.6-0.6-1.1-1.2-1.6-1.7c-1.1,0.4-2,1.2-2.6,2.1
		c-2,2.9-1.7,7.6,1.1,11.3c1,1.3,2.7,2.2,4.5,2.6C363.7,203.9,366,202.3,369.3,203.1z"/>
	<path fill="#FFFFFF" d="M369.5,227.9c-1.9-0.5-3.8-0.5-5.2-0.2c-3.6,1-10.5-0.1-12-4c-1.4,3.1,0.5,6.5,5.7,8.2
		c3.1,0.9,3.7,2.8,3.3,4.3c6.9,0.9,11.2-0.8,13.5-4C372.8,231.5,370.9,229.8,369.5,227.9z"/>
	<path fill="#FFFFFF" d="M349.8,178c-2.4-4.1-4.1-8-5.1-11.7c-2.6,0.1-5,0.3-7.3,0.8c-0.9,1.7-1.6,3.7-1.8,5.5
		c-0.9,7-11,9.4-5.4,20.1c1.2-6.8,5.7-10.6,9.3-10.8c2.3-0.2,5.2-0.5,7.7-1.8C348.1,179.5,349,178.9,349.8,178z"/>
	<path fill="#FFFFFF" d="M367.4,218.2c0.9-2.5,2.7-5.2,5.8-7.7c-1.1-2.4-2.4-4.9-3.9-7.3c-3.3-0.8-5.6,0.8-7.3,2.9
		c-0.6,0.7-1.1,1.5-1.5,2.2c-3,5-12.1-1.4-15.2,5.3c2.9-1.2,5.8,0.2,7.9,1.6c1,0.6,1.8,1.3,2.5,1.7
		C358.8,218.9,363.5,219.5,367.4,218.2z"/>
	<path fill="#FFFFFF" d="M335.2,227.6c1.5-1.9,0.6-5.6-4-7.7c-3-1.3-5.6-0.4-7,1.1c-0.1,0.8-0.4,1.5-0.9,2.2
		C327.3,224.6,331.3,226.1,335.2,227.6z"/>
	<path fill="#FFFFFF" d="M356.8,232.7c-1.8-0.6-4.1-0.2-4.7,1.3c3.3,1.1,6.1,1.8,8.7,2.1C360.6,234.5,358.3,233.2,356.8,232.7z"/>
	<path fill="#FFFFFF" d="M367.4,218.2c-0.5,1.3-0.7,2.6-0.6,3.6c0,1.5,1.1,3.9,2.7,6.1c1.4,1.9,3.3,3.6,5.3,4.3
		c3.4-4.8,2.3-13.1-1.6-21.7C370.2,212.9,368.3,215.7,367.4,218.2z"/>
	<path fill="#FFFFFF" d="M266.7,212.3c-2.6-2.2-6.8-2.2-9.5-1.2c-3.5,1.3-5.9,6.2-4.4,10.2c4.9-2.8,10.1-4.6,15.6-5.7
		C267.4,214.6,266.9,213.5,266.7,212.3z"/>
	<path fill="#FFFFFF" d="M241.7,230.1c3.4-3.6,7.1-6.4,10.9-8.7c-3-3.2-8.6-2.4-11.1,0.4c-1.8,2-2.2,4.6-1.6,6.7
		C240.5,228.9,241.1,229.5,241.7,230.1z"/>
	<path fill="#FFFFFF" d="M310.2,219.1C310.2,219.1,310.2,219.1,310.2,219.1c4.4,1.3,8.8,2.7,13.1,4.1c0.5-0.7,0.8-1.4,0.9-2.2
		c0.3-2.1-0.9-4.4-2.8-5.4c-5.2-2.6-3.3-9.2-6.7-10.5c-3.3-1.3-6.5-3.6-6.7-6c-1.6,3.3-0.6,6.2,1.7,8.3c1.1,1,0.7,3.4,0.4,5.9
		C311.4,214.8,311.5,216.9,310.2,219.1z"/>
	<path fill="#FFFFFF" d="M348.2,232.6c1.4,0.5,2.7,1,3.9,1.4c-0.1-3-1.8-6.5-7.5-8c-2.1-0.5-3.9-0.5-5.4-0.3c-2,0.3-3.4,1.2-3.9,1.9
		C339.8,229.3,344.1,231,348.2,232.6z"/>
	<path fill="#FFFFFF" d="M268.4,215.6c3.3-0.6,6.6-1,10-1.1c-0.3-1.5,0.1-3.2,0.9-4.5c-1.1-3.6-4.4-7-8-7.7c-4.5-1-9.8-0.9-11.6-5.3
		c-1,3.8,1.8,6.3,5.2,8.5c2.1,1.4,1.3,4.1,1.8,6.7C266.9,213.5,267.4,214.6,268.4,215.6z"/>
	<path fill="#FFFFFF" d="M278.4,214.6c3.4-0.1,6.9,0,10.4,0.4c-0.1-1.4,0.3-2.8,1.1-3.9c-0.8-1.9-2.8-3.1-5.6-3.3
		c-2.3-0.2-4,0.8-5,2.3C278.5,211.4,278.1,213,278.4,214.6z"/>
	<path fill="#FFFFFF" d="M288.8,215c3.4,0.3,6.8,0.8,10.2,1.5c0.1-1.4,0.6-2.8,1.6-3.9c-0.6-1.7-2.4-3.1-4.8-3.6
		c-2.6-0.6-4.6,0.5-5.8,2.2C289.1,212.2,288.7,213.6,288.8,215z"/>
	<path fill="#FFFFFF" d="M216,293.2c1.8-4.8,3.3-10,4.5-15.6c-2.5,0.5-5.1,0.6-7.3,0.4c-2.2,1.5-3.2,4.4-3.9,9.4
		c-0.4,2.9,0.3,5,1.5,6.3C212.5,292.8,214.3,292.6,216,293.2z"/>
	<path fill="#FFFFFF" d="M310.1,219.1C310.1,219.1,310.2,219.1,310.1,219.1c1.4-2.2,1.2-4.3,0-5.9c-0.8-1.1-2.2-1.9-3.9-2.4
		c-2.4-0.6-4.4,0.2-5.7,1.6c-1,1.1-1.5,2.5-1.6,3.9C302.7,217.2,306.4,218.1,310.1,219.1z"/>
	<path fill="#FFFFFF" d="M210.7,305.3c2-3.7,3.7-7.8,5.3-12.1c-1.7-0.6-3.5-0.3-5.1,0.5c-4.2,2-7.3,7.6-6.8,10.9
		C205.9,304.2,208.1,304.4,210.7,305.3z"/>
	<path fill="#FFFFFF" d="M183.1,336.5c-1-0.7-1.8-1.6-2.5-2.5c-8.5-2.9-20.2-2.5-22.4,2c4.3-0.4,8,1.2,8.8,3.6
		c-6.4-4-16.5,2.1-22.5-1.6c-14.4-9.1-17.3-1.8-24.5-5.7c-7.2-3.9-14.2-0.7-14.4,3.3c6.7-5.4,12.1,5.3,18.8,3.9
		c13.9-2.8,18.8,5.5,27.7,7.3c-7-0.7-14.5-1.4-23.3,3.8c-9,5.2-23.5,0.9-24.2,8.5c0.4-0.2,0.9-0.4,1.3-0.6c1.3-0.6,2-0.8,2.6-0.6
		c1.3-0.1,2.5-0.1,3.8,0c0.3-0.1,0.7-0.2,1.1-0.4c6-2.1,6.9-2.1,6.9,0.1c0,0.3,0,0.6,0.1,0.8c0.9-0.1,1.8-0.4,2.7-0.8
		c5.4-2.9,11.2-3.8,13.9-2.4c-2.3,2.8-4.6,4.4-6.9,5.5c1.6,0.5,2.4,1.4,2.6,2.9c7.8-6.9,25.8-13.8,37.7-19.8
		C174.8,341.7,179,339.3,183.1,336.5z"/>
	<path fill="#FFFFFF" d="M171.5,367.9c0.4-0.6,0.8-1.2,1.3-1.9c6.7-10.7,12.8-13.8,16.1-16.6c-16.4,5.9-34.4,6.6-50.8,16.7
		c-1.2,0.7-2.4,1.4-3.5,1.9c0.9,0.4,2.1,0.5,3.6,0.1c1.4-0.4,2.8-0.9,3.1-1.3c0.4-0.3,3.1-0.6,6.1-0.6c2.8,0,4.2,0,5,0.3
		c1.8-2.1,3.5-3.7,5.7-2.8c-1.9,0.9-3.3,2.2-4.5,3.8c0.1,0.1,0.1,0.2,0.2,0.3c0.9,1.3,3.6,3,5.6,3.7c2.3-1.5,4.9-2.6,8-2.8
		C168.8,368.6,170.2,368.3,171.5,367.9z"/>
	<path fill="#FFFFFF" d="M220.5,277.5c0.2-0.7,0.3-1.4,0.5-2.1c0.6-2.7,1.2-5.3,1.8-7.8c-1.8,0-3.2-1.4-4.1-3.4
		c-9.4,2.2-16.2,15.8-27.1,12.7c4.7,7.5,16.1,0,20.4,0.8c0.4,0.1,0.8,0.1,1.3,0.2C215.4,278.1,218.1,278,220.5,277.5z"/>
	<path fill="#FFFFFF" d="M183.1,336.5c3.9-2.7,7.7-5.7,11.2-9.2c-0.5-0.2-1-0.5-1.5-0.8c-4.8-0.5-10.3,2.1-14.4,0.5
		c0,2,0.6,4.6,2.2,6.9C181.2,334.9,182.1,335.8,183.1,336.5z"/>
	<path fill="#FFFFFF" d="M203.9,316.3c-1.7,0-3.5-0.1-5.2-0.4c-3.2,2-5.4,5.8-9.8,4.4c0.2,2.2,1.4,4.7,3.9,6.4
		c0.4,0.3,0.9,0.6,1.5,0.8C197.7,324.1,200.9,320.4,203.9,316.3z"/>
	<path fill="#FFFFFF" d="M222.8,267.6c1.7-6.5,3.7-12.3,5.9-17.5c-1.1-0.5-2-1.1-2.7-1.9c-3.5-0.4-7.6,2.8-8.5,7.1
		c-0.6,2.9-0.1,6.4,1.1,8.9C219.6,266.2,221,267.6,222.8,267.6z"/>
	<path fill="#FFFFFF" d="M210.7,305.3c-2.6-0.9-4.8-1.1-6.6-0.8c-6.7,1-9.1,8-15,6.1c1,2.6,5.2,4.4,9.6,5.2c1.8,0.3,3.6,0.5,5.2,0.4
		C206.4,312.9,208.6,309.3,210.7,305.3z"/>
	<path fill="#FFFFFF" d="M228.7,250.1c2.1-4.8,4.4-8.9,6.9-12.6c-3.5,0.3-5.8-0.8-7.6-1.9c-1.3,0.9-2,2.3-1.7,4.4
		c-1.8,0.8-2.6,5.3-0.2,8.2C226.7,249,227.6,249.6,228.7,250.1z"/>
	<path fill="#FFFFFF" d="M228.4,335.2c1.1,1.2,4.8,1.7,7.4,0.4c-0.3-3.6-1.2-7-2.2-9.7c-0.9-2.2-1.8-3.8-2.9-4.6
		c-0.2,2.2-0.8,4.2-1.5,6C231.8,330.1,231.2,333.7,228.4,335.2z"/>
	<path fill="#FFFFFF" d="M235.7,237.5c1.9-2.8,3.9-5.2,6-7.4c-0.6-0.6-1.1-1.1-1.7-1.6c-5.2-4.4-10.5-4-13.6-1.5
		c-6.9,5.5-13.5,2.4-13.7,7.8c4.1-3.2,7.8,0.6,11-0.5c1.4-0.5,2.7,0.4,4.4,1.3C229.8,236.7,232.1,237.8,235.7,237.5z"/>
	<path fill="#FFFFFF" d="M229.2,327.3c-1.5,3.4-3.7,6-6.4,8.1c2.4,0.7,4.3,0.5,5.7-0.2C231.2,333.7,231.8,330.1,229.2,327.3z"/>
	<path fill="#FFFFFF" d="M414.2,164.9c0.1,0,0.2,0,0.3,0c-2.1-2.2-4-4.7-5.9-7.3c-2.4-0.2-4.5-0.6-6.9-0.8c2.3,2.9,4.1,6.3,6.6,9.4
		C409.5,165.6,411,165.1,414.2,164.9z"/>
	<path fill="#FFFFFF" d="M399.7,147.9c-0.3,0.6-0.7,1.2-1,1.8c-0.4,1.1-0.7,2.3-0.9,3.4c0.1,0,0.2,0.1,0.2,0.1
		c2.2-0.6,4.5-0.8,6.6-1C403.1,150.4,401.5,148.8,399.7,147.9z"/>
	<path fill="#FFFFFF" d="M374.8,295.1c-3.3-1.6-2.4-4.7-1.1-8.5c-5.4-3.6-8,2.3-10.7,0c-3-2.2-6.8-2.5-8.3-0.3
		c5.4,0.2,2.8,4.4,13.3,5.4c-10.5,0.7-8.6,12.5-15.6,11.9c7.4,7,11.3-6.3,17.4-4.1c-1.8,0.5,2.8,4.7-0.4,10.4c4.3-0.1,6.5-5,7.5-8.7
		C374.9,299.9,374.6,297.3,374.8,295.1z"/>
	<path fill="#FFFFFF" d="M224.5,346.5c-2.6,1.5-1.7,2,1.4,2.2c3.1,0.2,7,5.2,0.4,5.5c-3.1,0.1-2,7.6-8.5,8.1
		c2.6,3.2,10.2,1.1,12.9-2.4c-0.5,2.9,3.3,5.5,1.8,9c4.6,0.5,2.1-9.2,9-9.2c-2.6-3.5-5.3-6.9-8.4-10.1c0.5-0.9,1-1.8,1.3-2.8
		C231.5,345.6,226.6,345.2,224.5,346.5z"/>
	<path fill="#FFFFFF" d="M178.8,372.7c9.7-13.1,17.8-11.2,21.6-20c3.5-8.2,14.6-11,22.3-17.3c2.7-2.2,5-4.8,6.4-8.1
		c0.8-1.8,1.3-3.7,1.5-6c-3.2-2.4-7.6,1.5-17.4,12.3c-7.4,8.1-15.7,12.7-24.4,15.8c-3.4,2.8-9.5,6-16.1,16.6
		c-0.4,0.7-0.8,1.3-1.3,1.9c-1.8,2.5-3.5,4.3-5.2,5.6c0.1,0,0.3,0,0.4,0c3.6,0.1,4.6,0.8,4,2.9c-0.1,0.5-0.6,1.1-1.1,1.7
		C173,377.4,176.1,376.3,178.8,372.7z"/>
	<path fill="#FFFFFF" d="M247.6,369.7c-2.1,0.7-2.9,3.4-0.2,5.2c0.7-1.7,1.3-3.4,0.4-5.2c-0.8-1.4-1.6-2.8-2.5-4.2
		C242.5,367.1,244.2,370.6,247.6,369.7z"/>
	<path fill="#FFFFFF" d="M439.7,185c-9-2.5-8.4-12.9-17.8-15.5c-1.2-0.3-2.3-0.8-3.3-1.4c-0.1,0.1-0.2,0.3-0.3,0.4
		c-1.2,1.7-2.7,2.5-4.2,2.7c0.9,0.5,1.9,1,2.9,1.4C428.8,177,430,187.6,439.7,185z"/>
	<path fill="#FFFFFF" d="M436.9,234.8c3.5,2.2,8.7,0.2,11.5-4.6c-4.2,9.4-1.4,17.9,5.3,19.6c-3.2-6.6,4-9.7,1.7-14
		c4.2,1.9,8,7.7,7.8,11.3c5.1-5.6-2.4-13-2.5-18.6c-7.4-0.5-14.8-2.9-17.9-5.1c-0.1-0.1-0.2-0.1-0.3-0.2
		C443.5,227.4,442.5,233.2,436.9,234.8z"/>
	<path fill="#FFFFFF" d="M519.3,170c-0.9-0.1-1.8-0.1-2.7,0c-9.9,0.7-17.3,9.3-16.5,19.2c0.6,8.2,6.7,14.8,14.6,16.3
		c1.3-1,2.9-1.6,4.6-1.7c-3.2-2.8-0.8-9.8-5.2-10.8c6.2-2.7,12.7,4.6,12.7,7.6c0.4,0.3,0.9,1,1.2,2c2.5-1.7,4.6-4,5.9-6.8
		c-0.4-3.3,0.1-7-3.8-9.3c1.7-0.3,3.2-0.4,4.5-0.3c0.2-0.6,0.5-1.1,0.8-1.6C534.1,176.8,527.6,170.6,519.3,170z"/>
	<path fill="#FFFFFF" d="M245.3,365.4c-1.2-1.9-2.4-3.7-3.7-5.6C239.2,360.8,240.4,366.7,245.3,365.4z"/>
	<path fill="#FFFFFF" d="M397.3,160.8c0.3,3,1,5.9,2,8.7c2.4-0.4,3.9-0.8,5.1-1.2C402.6,165.7,400.4,163.1,397.3,160.8z"/>
	<path fill="#FFFFFF" d="M528.2,205.8c0.2-1.2,0.1-2.3-0.2-3.2c-0.3-1-0.8-1.7-1.2-2c0-3-6.5-10.3-12.7-7.6c4.4,1,2,8,5.2,10.8
		c-1.7,0.1-3.3,0.7-4.6,1.7c-0.6,0.5-1.2,1-1.6,1.6c-1.7-3-7.6-6-11.2-6.3c0-1-0.2-3-0.7-4.1c-1.6-3.1-3-6.8-2.3-11.5
		c-3,3.4-5.7,8-7.2,11.4c-4.9-3.4-17,1.5-22.7,2.8c-5.6,1.3-24.7-1.8-29-6.4c-6.1-4.9-13.3-8.3-21-9.8c-5.3-1.5-8-5.1-10.8-9.3
		c-0.8-1.2-1.6-2.5-2.5-3.9c-2-0.4-4.1-0.7-6.3-0.6c4.3,11.6,14.2,22.9,20.9,36.9c2.7,6.2,4.4,12.7,5,19.2
		c5.3-3.9,12.1-5.6,17.2-2.4c0.1,0.1,0.2,0.1,0.3,0.2c3.1,2.1,10.4,4.5,17.9,5.1c5.8,0.4,11.7-0.3,15.8-3.1c9.3-6.4,13.7-9.8,17.8-9
		c3,4.6,6.8,6.8,11.4,7.2c1.4,1.6,6.5,2.8,9.3,2.5c4.1,1,9.1-0.3,13.1-4.7c6.2,1,12-3.7,14.2-10.7c0.3,0,0.6-0.1,0.9-0.2
		c-0.5-1.1-1.1-1.6-1.6-1.6c-1.4,0-3.8-2.6-3.8-4c0-0.6-0.7-1.9-1.6-3c-0.4-0.4-0.6-0.8-0.9-1.1C532.6,201,529.4,202.4,528.2,205.8z
		"/>
	<path fill="#FFFFFF" d="M287,310.9c-0.2,1.2-2,3.5-4.4,4.9c0.5,1.6,0.1,5.9-2.2,8.6c3,2.2,1.2,8.8,5.2,12c2.2,1.9,4.5,3.3,6.6,4
		c1.6,0.5,3.3,0.7,5,0.7c9.6,0,17.3-7.7,17.3-17.3c0-7.2-4.4-13.3-10.6-16c-2.7-0.5-5.8,0.3-7.3-1C295,308.5,291.3,310.7,287,310.9z
		"/>
	<path fill="#FFFFFF" d="M530.2,186.5c3.8,2.3,3.3,6,3.8,9.3c0.1,1.1,0.4,2.1,0.8,3c0.1-0.5,0.5-1.1,1.1-1.8
		c1.6-2.1,1.6-2.4-0.4-4.5c-1.4-1.6-1.6-2.1-1.3-4.6c0.1-0.7,0.2-1.2,0.4-1.7C533.4,186.1,531.9,186.2,530.2,186.5z"/>
	<path fill="#FFFFFF" d="M254.5,282.8c-1.5,1-3.6,0.8-5,0.2c0.1,5.3,1.3,10.5,3.4,15.2c-0.9-3.2,0.5-6.1,1.2-8.6
		c0-0.1,0-0.1,0.1-0.2C255.2,286,255.4,283.9,254.5,282.8z"/>
	<path fill="#FFFFFF" d="M258.2,329.9c3.4,2.3,7.7,2.1,9.7,1.8c2,5.4,8.6,5.2,11.4,8.2c2.9,3,12.5,2.7,15.3,1
		c-0.7-0.1-1.5-0.2-2.4-0.5c-2.1-0.7-4.4-2-6.6-4c-4-3.2-2.2-9.8-5.2-12c2.3-2.7,2.7-7,2.2-8.6c2.4-1.4,4.2-3.7,4.4-4.9
		c4.3-0.2,8-2.4,9.6-4.1c1.5,1.4,4.5,0.6,7.3,1c1.3,0.2,2.5,0.7,3.4,1.8c0.6-8.5-7.5-13-13-10.1c-2.1-1.2-7.9-0.4-9,1.1
		c-1.6-0.7-6,1.4-8.4,3.1c2-1.7,2.2-5.4,1.3-6.8c2.2-1,4.6-3.9,4.9-6c3,0.5,7.7-1.6,9.7-1.1c-3.3-4.4-8.8-6-14.5-5.5
		c-5.9,0.3-8.4,4.4-9.2,8.8c-3.4,2.1-4.6,9-3.3,11.5c-2,0-3.9,1.9-4.6,3c-1.5-0.6-3.1-1.1-4.8-1.5
		C260.2,316.5,259.6,323.5,258.2,329.9z"/>
	<path fill="#FFFFFF" d="M254.5,282.8c0.9-0.6,1.5-1.6,1.7-3.1c0.3-2.3,0.1-4-0.6-5.1c-1.8,0.6-3.8,0.1-5.1-0.4
		c-0.6,2.9-0.9,5.8-0.9,8.8C250.9,283.6,253,283.8,254.5,282.8z"/>
	<path fill="#FFFFFF" d="M255.6,274.6c1.2-0.4,2.4-1.3,3.2-3c0.5-1.1,0.7-2.1,0.6-2.9c-2.4-0.3-4.6-2.3-5.5-3.6
		c-1.6,2.8-2.8,5.9-3.5,9.1C251.8,274.6,253.7,275.2,255.6,274.6z"/>
	<path fill="#FFFFFF" d="M259.4,268.7c1.3,0.2,2.6-0.1,3.8-1.3c1.7-1.6,2.6-3.6,2.7-5.4c-2.3-1.3-3.8-3.8-4.5-5.7
		c-3.1,2.5-5.6,5.5-7.5,8.7C254.8,266.3,257,268.3,259.4,268.7z"/>
	<path fill="#FFFFFF" d="M265.9,262c1.8,1,4.1,1.4,6.9,0.3c2.1-0.8,3.3-2.3,3.8-3.9c-2.9-2.2-3.4-5.9-3.2-8.1c-4.7,1.3-8.7,3.4-12,6
		C262.1,258.2,263.6,260.6,265.9,262z"/>
	<path fill="#FFFFFF" d="M276.6,258.4c1.4,1,3.4,1.7,6.1,1.7c2.7-0.1,4.4-1,5.3-2.4c-1.9-3-1.5-7-1-8.9c-5.1-0.1-9.6,0.5-13.6,1.6
		C273.2,252.5,273.6,256.3,276.6,258.4z"/>
	<path fill="#FFFFFF" d="M296.9,249.7c-3.5-0.6-6.8-0.9-9.9-0.9c-0.5,1.9-0.9,5.9,1,8.9c0.9,1.4,2.2,2.5,4.3,3.2
		c2.2,0.7,5.3,0.8,9.5-0.1C297.7,257.2,296.1,251.3,296.9,249.7z"/>
	<path fill="#FFFFFF" d="M307.2,252c-3.6-1-7.1-1.8-10.3-2.3c-0.8,1.7,0.8,7.5,4.9,11c2.3,2,5.4,3.3,9.3,2.7
		C307.1,259.8,306.2,254.7,307.2,252z"/>
	<path fill="#FFFFFF" d="M318.9,255.5c-2.9-0.9-6-1.8-9.3-2.8c-0.8-0.2-1.6-0.5-2.4-0.7c-1,2.7-0.2,7.8,4,11.4c2.6,2.3,6.5,4,12.1,4
		C318.1,263.6,318.3,257.7,318.9,255.5z"/>
	<path fill="#FFFFFF" d="M337.7,260.8c-5.5-1.5-11.7-3.2-18.8-5.3c-0.6,2.2-0.8,8,4.4,11.9c2.4,1.8,6,3.2,11.3,3.5
		c1.6,0.1,3-0.1,4.1-0.6C335.7,267.3,336.6,263.3,337.7,260.8z"/>
	<path fill="#FFFFFF" d="M353.4,264.6c-4.5-1-9.6-2.2-15.7-3.8c-1.2,2.4-2.1,6.4,1,9.5c2.2,2.2,6.5,3.9,14.2,4.3
		c1.4,0.1,2.6-0.1,3.5-0.4C353.2,271.7,352.2,267.6,353.4,264.6z"/>
	<path fill="#FFFFFF" d="M362.5,266.3c-2.7-0.4-5.7-1-9.1-1.7c-1.2,3-0.2,7.1,3,9.6c1.1,0.9,2.5,1.6,4.2,1.9
		c2.6,0.5,4.6,0.2,5.9-0.7C362.4,273,361.7,269,362.5,266.3z"/>
	<path fill="#FFFFFF" d="M372.9,267.6c-3.2-0.3-6.6-0.7-10.4-1.3c-0.8,2.7,0,6.7,4.1,9.1c1.8,1,4.2,1.8,7.4,2
		c0.1-0.1,0.1-0.3,0.2-0.4C371.7,274.3,372.2,271.3,372.9,267.6z"/>
	<path fill="#FFFFFF" d="M351.3,132.4c-1.8,2.8-3.5,5.7-4.8,8.7c-1.5,3.4-2.5,6.9-3,10.6c-0.2,1.8-0.3,3.5-0.3,5.4
		c8.2-1.2,15.8,1,20.7-3.8c4.8-4.3,8.9-9.2,12.3-14.7c0.8-1.6,2.3-2.8,4-3.2c-1.8-0.6-3.3-1.1-4.6-1.7
		C367.5,132.6,358,132.2,351.3,132.4z"/>
	<path fill="#FFFFFF" d="M267.7,371.5c1-5.2-1-7.9-4-8c0.3-4.4-2.2-8.6-7.2-9.6c-2.2-10.1,0.2-16.7,1.7-24c1.3-6.4,2-13.4-1.8-23.7
		c-0.8-2.2-1.8-4.5-3-7c-0.1-0.3-0.3-0.6-0.4-0.9c-2.2-4.7-3.3-10-3.4-15.2c-0.1-3,0.2-5.9,0.9-8.8c0.7-3.2,1.9-6.3,3.5-9.1
		c1.9-3.3,4.3-6.3,7.5-8.7c3.3-2.6,7.3-4.7,12-6c4-1.1,8.5-1.7,13.6-1.6c3.1,0.1,6.4,0.4,9.9,0.9c3.3,0.5,6.7,1.3,10.3,2.3
		c0.8,0.2,1.6,0.5,2.4,0.7c3.3,1,6.4,1.9,9.3,2.8c7.1,2.1,13.3,3.9,18.8,5.3c6,1.6,11.2,2.8,15.7,3.8c3.3,0.7,6.3,1.3,9.1,1.7
		c3.9,0.6,7.3,1,10.4,1.3c-0.7,3.7-1.2,6.7,1.3,9.3c-0.1,0.1-0.2,0.3-0.2,0.4c-1.7,3.3-2.5,6.7-0.2,9.2c0,0,0,0.1-0.1,0.1
		c-1.4,3.7-2.2,6.9,1.1,8.5c-0.2,2.2,0.1,4.8,2.1,6.1c0.5,0.3,1.1,0.5,1.9,0.6c-0.3,4.1,5.1,7.3,9.1,5.5c-0.1,4.3,7.1,7.1,10.2,5.4
		c1.2,4.4,10.7,5.4,12.2,2.9c-0.1,3.4,9.7,6.3,13.4,4.6c7.4-3.4,10.3,4.9,15.4,3.3c-6,4.2-5.4,10.1-1,14.2
		c-0.2,5.9,3.6,11.6,9.3,11.8c1.5,7,12.6,8.8,18.3,7c-11.7-3.8-5.9-9.8-12.7-10.8c1-3.1,2.4-8.3-2-10.6c2.8-3.1,6.4-9.2,5.1-12.8
		c1.5,0,2.9-0.4,4.1-1c1-1.1,2.2-2,3.4-2.8c1.1-1.3,1.9-2.9,2.4-4.6c1.1,1.1,2.6,1.6,4.3,1.6c1.5-0.4,3-0.6,4.5-0.7
		c1.4-0.5,2.5-1.1,3.2-1.7c1.1,2.3,4.7,2.3,8.3,1c1.5,2.3,5.4,2.1,6.4,7.7c3.4-5.4,0.3-12.6-4.4-15.4c-1.5-4.1-4.8-4.9-8.2-3.9
		c-1.3-1.1-6.4-2-9,0.3c-0.6-1.2-2.2-0.9-4-0.1c3.2-1.8,5.6-4.5,4.2-8.4c7,0.8,6.7-8,15-5.7c-4.6-5.4-13.9-5.1-18.6-1.5
		c-1.4-0.5-2.8-0.5-4.2-0.2c-4.1,1-6.6,5.1-5.6,9.2c-4.1-1.8-8.7,1.5-8.4,6.2c-2.6-0.9-6.2,0.5-8,4.1c-3.3-3.7-7-4.1-10.3-3.7
		c-3.9-4-7.5-5-11.9-3c-1.3-1.6-4.9-2.1-7.5-0.7c-1-3-6.1-6.3-9.7-5c-0.8-8.2,1.6-11.1,3.8-13.4c5.7-5.9,4.4-7.6,8.8-13.4
		c8.4-12.3,12-27,10.6-41.5c-0.6-6.5-2.3-13-5-19.2c-6.7-14.1-16.6-25.3-20.9-36.9c0,0-0.1,0-0.1,0c0,0,0.1,0,0.1,0
		c-1.1-2.9-1.8-5.8-2-8.7c-0.1-1.3-0.1-2.5-0.1-3.8c-2.2,0.2-4.7,0.8-7.9,1.8c2.4-3.1,5.3-4.6,8.4-5.4c0-0.1,0-0.1,0-0.2
		c0.2-1.1,0.5-2.2,0.9-3.4c0.3-0.6,0.6-1.2,1-1.8c0.3-0.5,0.6-1,0.9-1.5c-6.6-2.6-10.9-5.8-15.3-3.2c-10.5,6.5-6,24.8-33.5,23.2
		c-2.6-0.1-4.9-0.2-7.1-0.1c1,3.8,2.7,7.7,5.1,11.7c2.3,3.9,5.4,8,9.2,12.2c0.5,0.6,1.1,1.2,1.6,1.7c3.3,3.5,6.2,7.3,8.7,11.2
		c1.5,2.4,2.8,4.9,3.9,7.3c3.9,8.7,5,16.9,1.6,21.7c-2.3,3.2-6.6,4.9-13.5,4c-0.2,0-0.3,0-0.5-0.1c-2.6-0.4-5.4-1.1-8.7-2.1
		c0,0,0,0,0,0c-1.3-0.4-2.6-0.9-3.9-1.4c-4.1-1.6-8.4-3.3-12.8-5c0,0-0.1,0-0.1-0.1c-3.9-1.5-7.9-3-12-4.4c-4.3-1.5-8.6-2.9-13-4.1
		c0,0,0,0-0.1,0c-3.7-1-7.4-1.9-11.2-2.6c-3.4-0.7-6.8-1.2-10.2-1.5c-3.5-0.3-7-0.5-10.4-0.4c-3.4,0.1-6.7,0.4-10,1.1
		c-5.4,1-10.7,2.9-15.6,5.7c-0.1,0-0.2,0.1-0.2,0.1c-3.9,2.2-7.5,5.1-10.9,8.7c-2.1,2.2-4.1,4.7-6,7.4c-2.5,3.7-4.8,7.8-6.9,12.6
		c-2.3,5.1-4.3,10.9-5.9,17.5c-0.6,2.5-1.3,5.1-1.8,7.8c-0.1,0.7-0.3,1.4-0.5,2.1c-1.2,5.6-2.8,10.8-4.5,15.6
		c-1.6,4.3-3.4,8.4-5.3,12.1c-2.1,4-4.4,7.6-6.8,11c-3,4.1-6.2,7.8-9.6,11.1c-3.5,3.4-7.3,6.5-11.2,9.2c-4,2.8-8.2,5.2-12.6,7.4
		c-11.9,6-30,12.9-37.7,19.8c0.1,0.3,0.1,0.7,0.1,1c0,1.7,0.6,2.8,1.7,3.3c1.1-0.5,2.3-1.2,3.5-1.9c16.5-10.1,34.4-10.9,50.8-16.7
		c8.7-3.1,17-7.6,24.4-15.8c9.8-10.8,14.2-14.7,17.4-12.3c1.1,0.8,2,2.4,2.9,4.6c1.1,2.7,2,6.1,2.2,9.7c0.3,3.7,0,7.7-1.4,11.3
		c-0.4,0.9-0.8,1.9-1.3,2.8c3,3.2,5.8,6.5,8.4,10.1c0,0,0.1,0.1,0.1,0.1c1.3,1.8,2.5,3.7,3.7,5.6c0,0,0,0.1,0,0.1
		c0.9,1.4,1.7,2.8,2.5,4.2c0.9,1.8,0.3,3.5-0.4,5.2c-1,2.1-2.3,4.2-1.4,6.2c-3.1,0.4-5.7,1.3-7.8,2.5c1.2-0.1,2.7-0.1,4.6,0
		c5.3,0.3,6.7-0.1,29-8.3l2.5-0.9l-0.3-1.6C272.1,371.6,269.9,371.1,267.7,371.5z"/>
	<path fill="#FFFFFF" d="M463.6,318.4c-1.2,0.8-2.4,1.8-3.4,2.8c-3.9,4-6.3,9.4-6.3,15.4c0,12.2,9.8,22,22,22v0.1
		c12.2,0,22-9.9,22-22c0-12.2-9.9-22.1-22-22.1c-0.4,0-0.7,0-1.1,0c-1.6,0.1-3.1,0.3-4.5,0.7C467.9,316.1,465.7,317.1,463.6,318.4z"
		/>
	<path fill="#FFFFFF" d="M391.8,105.6L391.8,105.6L391.8,105.6L391.8,105.6c1-1.1,2-2,2.9-2.9c-2.2,0.3-5.1,0.4-7.6,0.3
		c1.2,0.8,2.4,1.7,3.6,2.6C391.1,105.6,391.4,105.6,391.8,105.6z"/>
	<path fill="#FFFFFF" d="M368.6,126c0.3-1.5,1.4-2.9,3.1-4.2c-6.2,0-13.5,0.1-17.5-2.5c-8,0.3-16.2,2.5-21.6,8.3
		c3,0.1,6.2,0.4,9.5,0.7C351.5,129.2,359.3,123.7,368.6,126z"/>
	<path fill="#FFFFFF" d="M375.7,133.7c-5.5-2.4-7.5-5.1-7-7.7c-9.3-2.3-17.2,3.2-26.3,2.3c-3.4-0.3-6.5-0.6-9.5-0.7
		c-14.7-0.6-24.8,1.5-26.3,9.5c11.3-10.2,30.4-1.8,38.1-3.9c0.5-0.1,1-0.2,1.6-0.3c1.4-0.2,3.2-0.4,5.2-0.4
		C358,132.2,367.5,132.6,375.7,133.7z"/>
	<path fill="#FFFFFF" d="M328.9,108c-3.6,9.5,9.8,14.8,12.1,8.7c-2.4,1-10.8-1.8-6.4-7.2c4.2-5.2,25.1-1.6,45.6,8.6
		c3.8-1.1,8.4-1.8,13.5-2h0c-1.4-1.1-3.1-1.8-4.8-2c-4.7-1-5.1-3.9-3.2-6.1c-3-2.1-6-4.5-7.4-6.8c-6-1.8-6.2-1.6-8.5-0.5
		c-0.2,0.1-0.4,0.2-0.5,0.2c-0.1,1.2-0.1,2.6,0,4.1c-3.9-1.6-7.6-2.8-11.1-3.6c-2.1,0.2-5.1,0.3-8.3,0.4c-8.1,0.1-9.8,0-12.4-1
		C333.1,102.2,330.1,104.7,328.9,108z"/>
	<path fill="#FFFFFF" d="M512.7,130.1c3,1.2,5.5-0.2,4-2c-1.3,0-2.4-0.1-3.1-0.4c-0.8,1.6-1.4,3.6-1.8,6.2
		C515.3,135.1,517.9,132.5,512.7,130.1z"/>
	<path fill="#FFFFFF" d="M511.7,134c-0.1,0.4-0.1,0.8-0.2,1.3c-0.1,0.5-0.1,0.9-0.2,1.3c0.4,0.4,0.7,0.9,1.1,1.3
		C514.5,137.7,515.3,135.8,511.7,134z"/>
	<path fill="#FFFFFF" d="M371.8,121.8c1.5-1.1,3.5-2.1,5.8-2.9c-8.3-4.4-22.2,1.4-25.5-8.6c-1.4,4.5-0.3,7.3,2.2,9
		C358.3,121.9,365.6,121.8,371.8,121.8z"/>
	<path fill="#FFFFFF" d="M477.4,164.5c0.3-0.9,0.8-1.8,1.4-2.7c-3.8-1.7-6-5.7-9.4-5.9c-2-0.1-3.7-2.2-5.5-4.2
		c-1.7-0.4-3.4-0.9-5.2-1.3c-0.7,1.3-1.4,2.6-2.1,3.8c4.2,1.3,8.4,4.6,10.2,6.3C469.4,163.1,474.1,163,477.4,164.5z"/>
	<path fill="#FFFFFF" d="M513.5,127.7c0.7,0.3,1.8,0.4,3.1,0.4c2.4,0,5.6-0.6,8.9-1.4c-0.4-0.2-0.8-0.4-1.3-0.6
		c-2.1-1-4.1-1.9-4.5-1.9c-1.2,0-2-1.3-1.7-2.5C516.8,123.2,514.9,124.8,513.5,127.7z"/>
	<path fill="#FFFFFF" d="M471.9,176.5c-3.9,1.8-5.1,8-9.8,8.2c5.2,2.8,9.5,0.8,12.9-2.5c0.5-1.3,1.2-2.5,2.1-3.6
		C475.2,178.1,473.4,177.4,471.9,176.5z"/>
	<path fill="#FFFFFF" d="M479.6,165.9c0.3,0.3,0.5,0.6,0.8,1c4.8-1.3,7.8-0.1,9.3,2c-1.3-2.8-3.9-5.3-7.2-6.1
		C481.5,163.6,480.6,164.7,479.6,165.9z"/>
	<path fill="#FFFFFF" d="M482.7,179.1c-1.8,0.1-3.8-0.1-5.6-0.6c-0.9,1.1-1.6,2.3-2.1,3.6c-1.4,4-0.5,8.4,4.3,10
		c-2.9-4.1,1.8-6.6,3.8-9.5C482.6,181.7,482.3,180.5,482.7,179.1z"/>
	<path fill="#FFFFFF" d="M482.7,179.1c-0.4,1.4-0.1,2.6,0.4,3.6c1.5,3.1,5.6,4.7,3.8,8.6c5.5-1.2,6.5-11.1,2-14.4
		C487.5,178.3,485.2,179,482.7,179.1z"/>
	<path fill="#FFFFFF" d="M469,173.9c0.7,1,1.7,1.8,2.9,2.6c1.5,0.9,3.3,1.6,5.2,2.1c1.9,0.5,3.8,0.7,5.6,0.6
		c2.5-0.1,4.8-0.8,6.2-2.2c0,0,0,0,0,0c2.1-2.1,2.5-5.6,0.8-8c-1.5-2.1-4.5-3.3-9.3-2c-0.2-0.4-0.5-0.7-0.8-1
		c-0.9,1.2-1.8,2.7-2.5,4.4c-0.6-1.9-0.4-3.9,0.3-5.8c-3.3-1.4-8-1.4-10.7-4c-1.7-1.7-5.9-5.1-10.2-6.3c-2,3.2-4.2,5.7-6.9,7.3
		C457.3,162.4,464.1,167,469,173.9z M485.5,173.5l0.2-4C486.4,170.8,485.9,172.6,485.5,173.5z M480.4,167l-1.7,6.9
		C477.1,171.7,477.9,167.5,480.4,167z M466.8,164.7l4.3,2C469.2,166.2,467.9,165.5,466.8,164.7l-6.5-3
		C463.3,161.8,464.8,163.3,466.8,164.7z"/>
	<path fill="#FFFFFF" d="M466.8,164.7c1.1,0.8,2.4,1.5,4.3,2L466.8,164.7z"/>
	<path fill="#FFFFFF" d="M485.5,173.5c0.4-0.9,0.9-2.7,0.2-4L485.5,173.5z"/>
	<path fill="#FFFFFF" d="M478.7,173.9l1.7-6.9C477.9,167.5,477.1,171.7,478.7,173.9z"/>
	<path fill="#FFFFFF" d="M460.3,161.7l6.5,3C464.8,163.3,463.3,161.8,460.3,161.7z"/>
	<path fill="#FFFFFF" d="M483.1,157.3c1.3-1,2.8-1.9,4.4-2.6c-7.8-3.4-20-7.9-26.7-8.7c-0.7,1.6-1.4,3-2.1,4.4
		c1.8,0.4,3.5,0.9,5.2,1.3C471.2,153.5,477.6,155.4,483.1,157.3z"/>
	<path fill="#FFFFFF" d="M529.2,148.7c4.7-0.7,8.8,8.2-0.6,11.8c1.2-4.5-1.4-9.1-5.9-10.3c-1.9-0.5-4-0.3-5.8,0.5
		c4.4,1.3,9,8.8-1,11.6c-1.9,0.6-4.1,0.7-6.4,0.6c0,1.1,0.2,2.2,0.7,3.3c-1.4-0.7-2.5-2-3.2-3.6c-2.2-0.3-4.4-0.9-6.6-1.7
		c-0.2,1.2-0.2,2.5-0.2,3.8c7.7,2.6,17.5,3,26.1,0.4c6.1-1.7,15.2-3.3,22-2.1c0.7-1,0.6-1.4-0.2-2.9c-0.2-0.5-0.4-1.1-0.6-1.6
		c-1.9-0.5-4-0.8-6.3-1c0.1-2.9-1.1-5.6-3-7.5c-0.5,0.1-1,0.3-1.5,0.3l-2.6,0.4l-1.2-3.2C531.6,147.4,530.4,147.8,529.2,148.7z"/>
	<path fill="#FFFFFF" d="M493.7,157.7c-0.4-0.2-0.9-0.5-1.4-0.8c-1.3,0.7-2.7,1.4-4.3,2.2c2.5,1,4.8,2.1,6.7,3.2
		c0.2,0.1,0.3,0.2,0.5,0.2c-0.3-1.7-0.5-3.1-0.5-4.3C494.3,158.1,494,157.9,493.7,157.7z"/>
	<path fill="#FFFFFF" d="M488.9,154.1c-0.5,0.2-0.9,0.4-1.4,0.6c-1.6,0.7-3.1,1.6-4.4,2.6c-1.8,1.3-3.2,2.9-4.3,4.5
		c-0.6,0.9-1.1,1.8-1.4,2.7c-0.7,1.9-0.9,3.9-0.3,5.8c0.8-1.7,1.6-3.1,2.5-4.4c0.9-1.3,1.9-2.3,2.9-3.2c1.8-1.6,3.7-2.7,5.4-3.6
		c1.5-0.8,3-1.5,4.3-2.2c1.1-0.6,2.1-1.3,2.8-2.2c1.2-3.6,4.4-4.2,4.8-9.7c-1,0-2.1-0.2-3.1-0.5
		C494.2,147.2,495.6,151.5,488.9,154.1z"/>
	<path fill="#FFFFFF" d="M475.2,144.2c2.2-1.4,5.3-4.5,6.8-7.1c-2.6-0.9-5.2-1.3-7.6-1.3C475.5,138.2,476.2,141.9,475.2,144.2z"/>
	<path fill="#FFFFFF" d="M494.6,158.2c0,1.2,0.2,2.6,0.5,4.3c0,0.2,0.1,0.4,0.1,0.7c0.9,4.1,2.6,10.8-0.3,17.5
		c5.3-3.9,5.1-10.5,5.2-16c0-1.4,0.1-2.7,0.2-3.8c0.2-1.5,0.6-2.7,1.3-3.7c1.8-2.4,4.2-6,5-9c-1.4,3.8-1.6,10.2,0.3,14.4
		c0.7,1.6,1.8,2.9,3.2,3.6c-0.5-1.1-0.7-2.2-0.7-3.3c-0.2-8.1,9.7-15.4,2.8-24.9c-0.3-0.4-0.7-0.9-1.1-1.3c-1.2,5.5-6,8.6-11.3,8.4
		c-0.5,5.4-3.6,6.1-4.8,9.7C494.8,155.6,494.6,156.8,494.6,158.2z"/>
	<path fill="#FFFFFF" d="M485,146.1c2.6,0,7,0,10-2.3c-0.8-0.4-1.7-0.8-2.5-1.3c-1.7-1.1-3.4-2.2-5-3
		C488.4,141.7,487.8,144.5,485,146.1z"/>
	<path fill="#FFFFFF" d="M399.2,133.2c-1.1,0.3-2.4,0.6-3.8,0.9l7-0.6C401.3,133.1,400.3,133,399.2,133.2z"/>
	<path fill="#FFFFFF" d="M391.8,105.6L391.8,105.6c2.2,0,4.4,0.8,6.2,2.1L391.8,105.6c-0.4,0-0.7,0-1.1,0.1c-2.1,0.2-3.9,1.2-5,2.4
		c-1.9,2.2-1.5,5.1,3.2,6.1c1.7,0.2,3.4,0.9,4.8,2h0c-5,0.2-9.6,0.9-13.5,2c-0.9,0.3-1.8,0.5-2.6,0.8c-2.4,0.8-4.3,1.8-5.8,2.9
		c-1.8,1.3-2.9,2.7-3.1,4.2c-0.5,2.6,1.6,5.3,7,7.7c1.3,0.6,2.9,1.2,4.6,1.7c-1.7,0.4-3.2,1.6-4,3.2c-3.4,5.5-7.5,10.4-12.3,14.7
		c-4.9,4.8-12.5,2.6-20.7,3.8c-1.3,0.2-2.7,0.5-4.1,0.9c-5.9,1.9-11.9,6.4-17.2,17.3c4.6-4.7,9.5-7.2,15.4-8.3
		c2.3-0.4,4.6-0.7,7.3-0.8c2.2-0.1,4.6,0,7.1,0.1c27.5,1.6,23-16.7,33.5-23.2c4.3-2.6,8.7,0.6,15.3,3.2c3.6,1.4,7.8,2.7,13,2.8
		c-2.3,2.2-5.5,2.6-9,3c-2.1,0.2-4.4,0.4-6.6,1c-0.1,0-0.2,0-0.3,0.1c-3,0.8-5.9,2.3-8.4,5.4c3.2-1,5.7-1.5,7.9-1.8
		c1.7-0.2,3.1-0.2,4.5-0.1c2.4,0.1,4.4,0.5,6.9,0.8c3.8,0.4,8.5,0.4,16.5-1.7c-5,1-3.1,8.3-10.7,9c-0.1,0-0.2,0-0.3,0
		c-3.2,0.2-4.7,0.7-5.8,1.3c-1.2,0.6-2,1.4-3.9,2.1c-1.2,0.4-2.7,0.8-5.1,1.2c0,0-0.1,0-0.1,0c0,0,0.1,0,0.1,0
		c2.2-0.2,4.3,0.2,6.3,0.6c2.2,0.5,4.2,1,6.1,1.2c0.8,0.1,1.5,0.1,2.2,0c1.6-0.2,3-1,4.2-2.7c0.1-0.1,0.2-0.3,0.3-0.4
		c3.8-5.1,10.2-7.5,16.4-6.1c6.4,1.8,11,1.5,14.6-0.6c2.7-1.5,4.9-4,6.9-7.3c0.7-1.2,1.4-2.4,2.1-3.8c0.7-1.4,1.4-2.9,2.1-4.4
		c0.1-0.2,0.1-0.3,0.2-0.5c3.1-6.6,7.9-9.5,13.5-9.6c2.4-0.1,4.9,0.4,7.6,1.3c1.8,0.6,3.6,1.4,5.4,2.3c1.7,0.9,3.4,1.9,5,3
		c0.8,0.5,1.6,1,2.5,1.3c0.6,0.3,1.2,0.5,1.8,0.7c1,0.3,2.1,0.5,3.1,0.5c5.3,0.2,10.1-2.9,11.3-8.4c0.1-0.4,0.2-0.9,0.2-1.3
		c0-0.4,0.1-0.9,0.2-1.3c0,0,0,0,0,0c0.4-2.6,1.1-4.6,1.8-6.2c1.4-2.9,3.2-4.5,4.6-5.9c0.1-0.2,0.1-0.4,0.2-0.6
		c1.1-1.7,0.2-4.4-1.6-5.3c-0.9-0.4-1.6-1.1-1.6-1.5c0-0.4-0.4-0.9-0.9-1.1c-0.5-0.2-1-0.9-1.1-1.7c-0.1-0.4-0.3-0.8-0.8-1.2
		c-1.9,0.1-3.8,0.8-5.5,1.6c0.3,0.8,0.5,1.8,0.5,2.9c0,5.6-8.5,5.8-9,14.2c-0.3,4.4-0.8,6.8-3.7,6.3c-3-0.5-5.6-5.1-2.8-10.5l15-13
		c-1.3-2.5-4.6-2.4-9.5,0.1c-1-0.9-2.2-1.7-3.4-2.4c-3.2-1.8-6.9-2.8-10.3-2.3c-0.9-3.4-2.6-6.4-4.9-8.3c-1.1,0-1.6-0.4-2.3-1.4
		c0,0,0,0-0.1-0.1c-0.7-0.3-1.4-0.5-2.1-0.6c-0.5,0.5-1.4,1-2.1,1.1c-1.4,0.4-1.6,0.8-1.6,3.2c0,1.3-0.1,2.2-0.6,3.1l8.3,2.3
		c1.7-1,3.9-0.9,5.3,0.6c0,0,0.1,0,0.1,0v0.1c0,0-0.1-0.1-0.1-0.1c-0.6,0.1-1.2,0.2-1.7,0.4l0.2,0c0.5-0.2,1-0.3,1.5-0.4l-0.8,0.6
		l14.5,4.1c-0.4,0.2-0.8,0.4-1.2,0.6c-14.3,8.1-20.5-2.1-28.6-4.6c-0.4,0.8-0.7,1.7-0.7,2.6c-0.1,1.6-0.8,2.7-1.8,3.1
		c1,0.3,1.9,0.8,2.8,1.4c0.2,0.1,0.4,0.3,0.6,0.5l0,0c1,0.8,1.9,1.9,2.7,3.2c0.1,0.1,0.1,0.2,0.2,0.3c0.2,0.4,0.5,0.9,0.7,1.4
		c-2.1,0.8-4,1.8-5.7,3.2l0-0.1c-1,0.7-2,1.6-3,2.4l-0.1,0.3c0,0,0-0.1-0.1-0.1c-1.1,1-2.1,2-2.9,3c-7.8-1.8-7.7-10.5-4-13.8
		c1.5-1.4,3.4-2.1,5.5-2.2c0,0-0.1,0-0.1-0.1c-4.3-2.4-4.6-2.4-6.4-1c-1.4,1.1-2.2,1.3-5.1,0.9c-1.9-0.2-4.8-0.7-6.4-1.1
		c-2.6-0.6-3.1-0.6-4.2,0.4c-1.5,1.4-3.2,0.9-3.2-0.8c0-0.8-0.6-1.3-1.9-1.6c-1.1-0.3-2.2-0.9-2.5-1.6c-0.5-0.9-1.1-1.1-3-0.8
		c-3.4,0.6-5.1,1.3-5.1,2.3c0,1.1-2.3,1.8-2.8,0.7c-0.2-0.5-0.9-0.9-1.8-1.1c-1-0.1-1.5-0.7-1.6-1.8c-0.3-2-1.9-3.8-3.3-3.8
		c-0.6,0-1.3-0.3-1.5-0.6c-0.6-1-1.6,0-1.3,1.3c0.3,0.8-0.1,1.2-1.6,1.5c-1.1,0.2-2.6,0.4-3.3,0.3c-1.2,0-1.2-0.1-0.3-0.8
		c0.9-0.6,0.6-1-2.8-2.8c-3.9-2.1-5.5-2.5-5.5-1.5c0,0.5-1.4,0.9-3.3,1.1C393.8,103.6,392.8,104.5,391.8,105.6z M436.8,128.9
		L436.8,128.9c9.8-0.1,16,6.1,16,12.8c0,5.3-3.4,10.2-9.7,12.1l0,0c0,0,0,0,0,0c-1.7,0.5-3.6,0.8-5.8,0.8c-10,0-15.7-7.7-15.7-13.7
		C421.6,135,424.8,128.9,436.8,128.9z M425.8,131.6l-7.5,0.6c1.1,0.9,2.2,2,3.3,3.3c-4,0.1-7.9-0.8-11.4-2.6l-7.8,0.6
		c5.4,2,11.1,10.5,18.2,7.9c-8.2,4.4-21.4,0-25.7-2.1c-5.7-2.6-9.7-4.1-12.7-4.2l-2,0.2c0.6-0.1,1.3-0.2,2-0.2l0.7-0.1
		c-2.7-0.3-5.1-1.1-6.8-2.7c12,0.8,18.5-8.8,32.4-0.5c0.6,0.3,1.1,0.7,1.7,1l8.1-0.7c-10.7-8.8-23.1-2.7-24.5-12.7
		c0.7,0.7,1.4,1.3,2.2,1.7c-0.5-0.7-0.7-1.4-0.9-2.1l-1.4-3c0.9,0.9,1.1,1.9,1.4,3l1,2.2C403.9,125.3,418.2,119.3,425.8,131.6z"/>
	<path fill="#FFFFFF" d="M395.4,134.1l-12.6,1C386.9,135.5,391.5,134.9,395.4,134.1z"/>
	<path fill="#FFFFFF" d="M506.9,112l-15,13c-2.8,5.4-0.2,10,2.8,10.5c2.9,0.5,3.4-1.9,3.7-6.3c0.5-8.4,9-8.6,9-14.2
		C507.4,113.8,507.2,112.9,506.9,112C506.9,112.1,506.9,112,506.9,112L506.9,112z"/>
	<path fill="#FFFFFF" d="M477.9,110.9c1.1-1.4,2.6-2.4,4.3-3l-0.2,0C480.4,108.5,478.9,109.5,477.9,110.9z"/>
	<path fill="#FFFFFF" d="M398,107.7c-1.8-1.3-4-2.1-6.2-2.1l0,0l0,0L398,107.7z"/>
	<path fill="#FFFFFF" d="M421.6,140.9c0,6,5.7,13.7,15.7,13.7c2.1,0,4.1-0.3,5.8-0.8c-0.4-0.5-0.7-0.9-1-1.4l-3.1,1.9
		c-0.2-3.3-6.3-2.8-6-5.4c0.2-2.6,3.3-3.6,3.3-7.2s5.4-3.9,7.2-1c0.8,1.2,2.3,3,3.9,4.4c0,0,0-0.1,0-0.1l0,0.1
		c1.2,1,2.4,1.8,3.3,1.8l1.2-0.8c-0.2,0.6-0.7,0.8-1.2,0.8l-3.4,2.1l0,2.7c-0.4-0.6-0.6-1.4-0.7-2.3l-3.4,2.2l-0.1,2.1
		c6.3-1.9,9.7-6.8,9.7-12.1c0-6.7-6.2-12.9-16-12.9v0.1C424.8,128.9,421.6,135,421.6,140.9z"/>
	<path fill="#FFFFFF" d="M496.1,112.8c0.4-0.2,0.8-0.4,1.2-0.6l-14.5-4.1l-6.2,4.8c0,0,0,0,0,0c0,0,0,0,0,0c-0.9-3,0.2-5.1,1.8-6
		l-8.3-2.3c-0.3,0.6-0.7,1.1-1.2,1.8c-0.6,0.6-1,1.3-1.3,1.9C475.6,110.7,481.8,120.9,496.1,112.8z"/>
	<path fill="#FFFFFF" d="M446.6,149.5l0.7-0.5l0.1-4c0,0,0,0,0,0C446.7,146.4,446.5,148,446.6,149.5z"/>
	<path fill="#FFFFFF" d="M443.5,140.7c-3,3.2-3.5,7.9-1.4,11.7l1.1-0.7L443.5,140.7z"/>
	<path fill="#FFFFFF" d="M443.5,140.7c-1.8-2.9-7.2-2.6-7.2,1s-3.1,4.6-3.3,7.2c-0.3,2.6,5.8,2.1,6,5.4l3.1-1.9
		C440,148.6,440.5,143.9,443.5,140.7z"/>
	<path fill="#FFFFFF" d="M447.3,151.8l0-2.7l-0.7,0.5C446.7,150.4,446.9,151.2,447.3,151.8z"/>
	<path fill="#FFFFFF" d="M443.2,151.7l3.4-2.2c-0.2-1.5,0.1-3.2,0.8-4.4c-1.5-1.3-3.1-3.1-3.9-4.4L443.2,151.7z"/>
	<path fill="#FFFFFF" d="M442.1,152.4c0.3,0.5,0.6,1,1,1.4c0,0,0,0,0,0l0,0l0.1-2.1L442.1,152.4z"/>
	<path fill="#FFFFFF" d="M451.9,146.2l-1.2,0.8C451.2,147,451.7,146.8,451.9,146.2z"/>
	<path fill="#FFFFFF" d="M450.7,147c-0.9,0-2.1-0.8-3.3-1.8l-0.1,4L450.7,147z"/>
	<path fill="#FFFFFF" d="M447.4,145C447.4,145,447.4,145.1,447.4,145c0,0.1,0,0.1,0,0.1L447.4,145z"/>
	<path fill="#FFFFFF" d="M395.1,119.1c0.2,0.7,0.4,1.4,0.9,2.1c-0.8-0.4-1.6-1-2.2-1.7c1.4,10.1,13.8,3.9,24.5,12.7l7.5-0.6
		c-7.6-12.3-21.9-6.3-29.7-10.3L395.1,119.1z"/>
	<path fill="#FFFFFF" d="M460.2,129.5c0.8-1,1.8-2,2.9-3c0,0,0,0.1,0.1,0.1l0.1-0.3c0.9-0.8,1.9-1.7,3-2.4v0
		c-3.8-3.6,0.4-9.3,1.9-8.3c1.2,1,2.2,2.1,2.9,3.4c-0.7-1.3-1.7-2.4-2.7-3.2l0,0c-0.2-0.2-0.4-0.3-0.6-0.5c-0.9-0.6-1.9-1.1-2.8-1.4
		c-0.9,0.4-2.1,0.3-3.4-0.4c-2,0.1-4,0.9-5.5,2.2C452.5,119,452.4,127.7,460.2,129.5z"/>
	<path fill="#FFFFFF" d="M471.3,119.4c0.2,0.5,0.5,0.9,0.7,1.4C471.8,120.3,471.6,119.8,471.3,119.4z"/>
	<path fill="#FFFFFF" d="M376.1,132.4c1.6,1.6,4,2.4,6.8,2.7l12.6-1c1.4-0.3,2.7-0.6,3.8-0.9c1.1-0.2,2.1-0.1,3.2,0.3l7.8-0.6
		c-0.6-0.3-1.2-0.6-1.7-1C394.6,123.6,388.1,133.2,376.1,132.4z"/>
	<path fill="#FFFFFF" d="M421.6,135.5c-1.1-1.3-2.2-2.4-3.3-3.3l-8.1,0.7C413.7,134.7,417.6,135.6,421.6,135.5z"/>
	<path fill="#FFFFFF" d="M382.9,135.1l-0.7,0.1c3,0.1,7,1.6,12.7,4.2c4.3,2.1,17.5,6.5,25.7,2.1c-7.1,2.6-12.8-5.9-18.2-7.9l-7,0.6
		C391.5,134.9,386.9,135.5,382.9,135.1z"/>
	<path fill="#FFFFFF" d="M380.2,135.3l2-0.2C381.5,135.1,380.8,135.2,380.2,135.3z"/>
	<path fill="#FFFFFF" d="M395.1,119.1c-0.3-1.1-0.5-2.1-1.4-3L395.1,119.1z"/>
	<path d="M483.8,107.4C483.8,107.4,483.7,107.4,483.8,107.4C483.7,107.4,483.8,107.5,483.8,107.4L483.8,107.4z"/>
	<path d="M476.6,112.9C476.6,112.9,476.6,112.9,476.6,112.9c0.3-0.7,0.8-1.4,1.3-2c1.1-1.4,2.5-2.4,4.1-3c0.6-0.2,1.2-0.4,1.7-0.4
		c-1.4-1.4-3.7-1.6-5.3-0.6C476.8,107.8,475.7,109.9,476.6,112.9z"/>
	<path d="M468.2,115.6c-1.5-1-5.7,4.7-1.9,8.3v0l0,0.1c1.7-1.4,3.6-2.4,5.7-3.2c-0.2-0.5-0.4-1-0.7-1.4c-0.1-0.1-0.1-0.2-0.2-0.3
		C470.4,117.7,469.4,116.6,468.2,115.6z"/>
	<path fill="#FFFFFF" d="M477.9,110.9c-0.5,0.6-0.9,1.3-1.2,2c0,0,0,0,0,0l6.2-4.8l0.8-0.6c-0.5,0.1-1,0.2-1.5,0.4
		C480.4,108.5,479,109.5,477.9,110.9z"/>
</g>
</svg>
