<?xml version="1.0" encoding="utf-8"?>
<!-- Generator: Adobe Illustrator 17.1.0, SVG Export Plug-In . SVG Version: 6.00 Build 0)  -->
<!DOCTYPE svg PUBLIC "-//W3C//DTD SVG 1.1//EN" "http://www.w3.org/Graphics/SVG/1.1/DTD/svg11.dtd">
<svg version="1.1" id="flag-icon-css-bw" xmlns="http://www.w3.org/2000/svg" xmlns:xlink="http://www.w3.org/1999/xlink" x="0px"
	 y="0px" viewBox="0 0 640 480" enable-background="new 0 0 640 480" xml:space="preserve">
<g>
	<path fill="#00CBFF" d="M510.2,152.7l-6.1-0.5c-3.4-0.3-7.9-0.6-9.9-0.6h-3.8l-0.3-7.3l-0.4-7.3l-2.5-4.9c-1.4-2.7-2.8-5.3-3.1-5.7
		c-0.5-0.6-3-1.2-9.7-2.3c-11.6-1.9-13.2-2.7-14.7-6.8l-1.1-2.8l-3.3-1.1c-2.8-0.9-3.5-1.4-4.7-3.1c-0.9-1.4-1.7-2-2.4-2
		c-0.6,0-1.8-0.1-2.6-0.3c-1.4-0.3-1.4-0.4-1.4-2.3c0-2,0-2.1-1.5-2.1c-1.2,0-2.1-0.5-3.9-2.2l-2.4-2.2l-1.9-8
		c-1.8-7.7-2-8.1-4.2-11.1l-2.3-3.1l0.6-2.2c0.5-1.9,0.5-2.6-0.3-5.2c-0.8-2.7-1.3-3.4-4.3-6.3c-4.1-3.9-4.6-5.5-3-8.7
		c1.2-2.4,1.5-2-5-5.7l-4.3-2.4l-2.8-7.8c-1.5-4.2-3-8.9-3.3-10.4c-0.5-2.5-0.7-2.7-3.5-4.6c-1.7-1.2-3.6-3-4.6-4.4
		c-1.7-2.4-1.7-2.4-1.7-7.4v-5l-2.1-2.8c-1.6-2-2.7-2.9-3.9-3.2c-2.5-0.7-5.6-0.9-8-0.5c-1.2,0.2-5.3,0.7-9.2,1.2
		c-5.3,0.6-7.9,1.1-10,2c-2.7,1.1-3.5,1.2-12.5,1.4l-9.6,0.2l-8.8,5.7l-8.8,5.6l-1.9,4.7c-1,2.6-2.1,4.9-2.3,5.2
		c-0.2,0.3-1.9,1.4-3.8,2.5c-1.9,1.1-4.7,3.2-6.2,4.8c-2.6,2.6-3,2.8-4.3,2.5c-2.5-0.6-2.8-1.3-2.8-5.8v-4.1l-3.7-6.7
		c-2.1-3.7-3.7-7.2-3.7-7.9c0-2.7-0.6-4.7-1.4-4.7c-0.4,0-22.2,4.4-48.4,9.8l-47.6,9.8l-12.5-0.5c-6.9-0.3-12.6-0.4-12.8-0.3
		c-0.1,0.1-2.1,43.5-4.5,96.3l-1.7,38h346.3c0-2.1-0.2-4.1-0.5-5.3L510.2,152.7z"/>
	<path fill="#00CBFF" d="M108.8,364l1,2.4c0.5,1.3,1,3.3,1,4.4v2.1l3,1.4c1.7,0.7,4.8,2.8,6.9,4.5l3.9,3.1l1.9,5.5
		c1,3,2.7,7,3.5,9.1c1.5,3.4,1.9,3.8,4.1,5c1.4,0.7,2.6,1.4,2.7,1.5c0.1,0.1,0,1-0.3,2.1c-0.5,1.8-0.4,2.1,1.4,4.9
		c1.7,2.6,1.9,3.3,1.9,5.9v2.9l2.8,2.7c1.5,1.5,2.8,2.9,2.8,3.2s0.4,1.5,1,2.8c1.1,2.4,1.1,1.6-0.3,13.5c-0.2,2-4.1,7.8-9,13.6
		l-2.1,2.5l0.6,5.4c0.3,3,1,7.5,1.6,9.9c0.9,4,1.1,4.5,2.4,5.1c1.3,0.7,1.4,0.6,2.8-1c1.4-1.7,1.5-1.7,4.7-1.7
		c2.7,0,3.7,0.3,5.8,1.4c2.9,1.6,4.5,1.7,8.6,0.7c2.3-0.7,3.9-0.7,8.7-0.4c7.7,0.6,13.3,0.5,16.2-0.2c2.2-0.6,2.5-0.7,3.3-2.8
		c0.5-1.2,1.1-2.7,1.2-3.2c0.2-0.6,0.7-1.1,1.1-1.3s2.8-0.8,5.2-1.4c2.4-0.7,4.8-1.3,5.2-1.4c0.4-0.1,2-1.9,3.5-3.9
		c2.5-3.4,3.2-4.1,8.4-7.2c3.1-1.9,6.9-4,8.3-4.7c1.4-0.7,3.6-1.8,4.9-2.6c4.2-2.6,10.5-12.3,11.1-17.2c0.2-1.4,1.1-3.5,2.3-5.7
		c1.6-2.8,2.1-4.3,2.6-7.3c0.5-3.6,0.6-3.8,2.6-5.3c1.5-1.2,2.6-2.7,4.1-5.6c1.9-3.8,2.1-4.1,3.8-4.3c1-0.2,2.5-0.3,3.4-0.3
		c0.9,0,4.5-0.9,7.9-2.1c3.5-1.2,7.7-2.2,9.4-2.4l3.1-0.3l0.7,4.2l0.7,4.1l5.9,1.7c7.6,2.1,9.8,3.5,12,7.3c0.9,1.6,1.8,3,1.9,3.1
		c0.1,0.1,1.6-0.1,3.3-0.4c1.7-0.4,4.5-0.7,6.3-0.7h3.3l3.3,3.3c3.2,3.2,3.4,3.3,6.3,3.7c1.6,0.2,5.1,1,7.7,1.8
		c6.5,2,11.6,2.4,15.6,1.3c2.8-0.8,3.8-0.8,12.6-0.3l9.6,0.6l6.8-2.4l6.9-2.4l4.1-9.5c2.2-5.2,6.1-13.3,8.7-18l4.6-8.6v-3.6v-3.6
		h2.8c1.6,0,6-0.5,9.9-1.2l7-1.2l3.4-3.4c1.9-1.9,5.2-5.8,7.3-8.7c4.9-6.9,9.1-10.3,14-11.5c1.8-0.4,3.5-1,3.8-1.3
		c0.3-0.3,0.8-1.9,1.3-3.5c0.4-1.7,2.4-8,4.4-14l3.6-11l2.7-2.7H110.2L108.8,364z"/>
	<path fill="#FFFFFF" d="M110.2,320h347.9l2-2c4.4-4.5,4.8-4.7,7.1-5c2.3-0.3,2.5-0.4,4.2-3l1.8-2.7l3.7-0.3
		c2.1-0.2,4.6-0.5,5.6-0.7c0.9-0.3,2.5-0.7,3.5-0.9l1.8-0.5l0.2-2.8c0.2-2.5,0.4-3,1.9-4.5l1.6-1.6l2.1,0.9l2.1,0.9l3.9-2.9
		c0.3-0.2,0.6-0.5,0.9-0.7H110.9L110.2,320z"/>
	<path fill="#FFFFFF" d="M163.8,186H509c-0.8-1.4-0.5-1.9-0.2-3.5c0.3-1.4,0.6-4,0.6-5.7c0-1.6,0.4-4.3,0.9-6c0.7-2.2,1-6.8,1-10.8
		H164.9L163.8,186z"/>
	<path d="M162.3,218l-24.3-0.3l-24.4-0.4l-0.3,3c-0.1,1.6-1.2,34.6-2.4,73.3l0,0.4h389.6c2.4-1.9,3.5-3,4.7-5.1
		c1.3-2.3,2.8-3.9,8-8.2c3.5-2.9,7.9-7.1,9.8-9.2c1.9-2.1,3.7-3.9,4.1-4c0.4,0,2.9,0.2,5.6,0.5l4.9,0.7l11.2-5.7l11.2-5.7l2.4-4.1
		l2.4-4.1l3.6-1.4c2-0.8,4.6-2.2,5.7-3.1c2.1-1.7,2.1-1.8,5.2-1.5c1.9,0.2,3.7,0.1,4.8-0.3l1.7-0.6l-1.3-1.5
		c-1.1-1.3-1.9-1.7-4.9-2.4l-3.5-0.8l-1.8-3.5c-1-2-2.2-5.4-2.8-7.7c-1.1-4.2-1.5-4.8-4.6-7c-1.7-1.2-16-4.4-19.6-4.4
		c-1.8,0-4.9-0.4-6.8-0.9c-2.9-0.8-12.7-2.3-14.7-2.3c-0.3,0-1.3-1-2.2-2.2c-1.3-1.8-1.7-2.8-2-5.3l-0.3-3.2l-5.9-6.8
		c-3.9-4.5-5.7-6.5-6.5-7.8H163.8L162.3,218z"/>
</g>
</svg>
