<?xml version="1.0" encoding="utf-8"?>
<!-- Generator: Adobe Illustrator 17.1.0, SVG Export Plug-In . SVG Version: 6.00 Build 0)  -->
<!DOCTYPE svg PUBLIC "-//W3C//DTD SVG 1.1//EN" "http://www.w3.org/Graphics/SVG/1.1/DTD/svg11.dtd">
<svg version="1.1" id="flag-icon-css-by" xmlns="http://www.w3.org/2000/svg" xmlns:xlink="http://www.w3.org/1999/xlink" x="0px"
	 y="0px" viewBox="0 0 640 480" enable-background="new 0 0 640 480" xml:space="preserve">
<g>
	<path fill="#B20000" d="M482,311.3c-2.7-4.2-3.2-5.2-3.2-7.3c0-2.8,0.2-3.2,2.7-4.9c1.8-1.3,1.8-1.3,1.5-4.3
		c-0.3-2.7-0.2-3.3,1.3-5.6l1.6-2.6l3.3,0.7c3,0.6,3.4,0.6,5-0.3c1.9-1.2,5-1.3,9.5-0.4c2.8,0.6,3.1,0.8,3.1,2.1
		c0,2.9,0.5,3.6,3.4,4.6c1.9,0.7,4.8,1.1,8.5,1.3c5.1,0.2,6.1,0.1,9.8-1.3c6.5-2.3,7.7-2.9,8.8-4.9c0.8-1.4,1.7-2,3.4-2.5
		c3.4-0.9,5.2-3.4,5.7-8.2l0.4-3.8l2-0.3c1.1-0.2,3.2-0.9,4.8-1.8c2.1-1,3.3-1.3,4.5-1.1l1.7,0.3v-4c0-2.2-0.3-5.3-0.7-6.8
		c-0.5-2.5-0.8-2.8-2.8-3.7c-1.3-0.5-3.1-2-4.2-3.1c-1.1-1.1-3.9-3.1-6.5-4.4c-4.4-2.2-4.6-2.4-5.3-4.6l-0.7-2.4l2.1-1.5
		c1.1-0.8,2.5-1.8,3.1-2.1c1-0.5,0.9-0.8-0.9-2.8c-1.7-2-2.1-2.2-3.8-2c-1.5,0.2-2.3-0.2-4.4-1.9c-2.6-2.2-7.5-4.9-11-6
		c-1.7-0.5-2.4-0.4-5.9,1c-3.2,1.4-4.6,1.6-8,1.6c-4,0-9-0.9-9-1.5c0-0.2,1.3-3.9,2.8-8.3l2.8-7.9l-3.1-6.2l-3.1-6.2h-2.9
		c-2.6,0-3.2-0.2-6.3-2.7c-1.9-1.5-4.5-3.3-5.7-3.9c-1.2-0.7-4.3-2.3-6.7-3.7c-4.4-2.5-4.4-2.6-4.8-5c-0.4-3-3.5-18.2-3.7-18.3
		c-0.1-0.1-1.8-0.5-3.8-1.1c-2.8-0.7-3.8-1.3-4.3-2.3c-1-2.2-0.7-3.6,1.3-5.7c1.9-1.9,4-7.3,3.1-7.8c-0.2-0.1-2.8-0.8-5.7-1.4
		c-5.4-1.2-5.4-1.2-5.9-3.2c-0.3-1.1-0.5-2.2-0.5-2.6c0-0.3-2.5-2.5-5.5-4.6c-5.4-3.9-5.5-4-5.5-6.2c0-1.6,0.3-2.5,1.4-3.5
		c1.2-1.1,1.4-1.7,1.4-4.9c0-3.4,0.1-3.7,1.6-4.5c1.4-0.9,1.5-1.1,1.1-2.4c-0.9-2.4-0.8-2.6,2.5-2.2l3.1,0.3l-0.4-2
		c-0.2-1.1-0.5-3.4-0.7-5.1s-0.5-4.4-0.9-6.1c-0.5-2.9-0.8-3.3-3.4-5.3c-2.1-1.5-3-2.7-3.5-4.3c-0.4-1.2-1.1-2.6-1.7-3.2
		c-0.9-0.8-1.1-1.7-1.1-4.4v-3.4l2.7-1.3c1.5-0.7,2.7-1.6,2.7-2.1s-0.4-2.1-0.9-3.7c-0.6-2.1-0.7-3.2-0.3-4c0.3-0.6,0.6-3.8,0.6-7.2
		v-6.1l-4.9,0.3l-4.9,0.3l-1-2c-0.9-1.6-1.6-2.2-4.4-3.3l-3.4-1.3l0.3-3.1l0.3-3.1l-3.3-1.9c-3-1.7-3.3-2.1-3.3-3.7V35l-3.8-0.4
		c-3.3-0.3-4.2-0.7-6.6-2.6c-1.5-1.1-3-2.1-3.3-2.1s-1.5,0.6-2.7,1.4C405,33,405,33,402,31.5c-2.4-1.2-2.4-1.2-7.1-0.2
		c-4.7,1-4.7,1-7.8,4.5c-2.7,3-3.3,3.4-5,3.4c-1.8,0-2.5,0.5-6.7,5l-4.7,5l-3.2-3.7c-4-4.5-4.9-6.9-4-11.5c0.3-1.8,1.1-4.4,1.7-5.7
		l1-2.4l-1.3-1.3c-0.7-0.7-3.3-2.7-5.9-4.5c-5.1-3.6-8.1-4.4-14.7-4.4h-3.5l-4.9,3.9l-4.9,3.9l-2.7-2c-2.4-1.8-2.7-2.2-3-4.8
		c-0.4-3.1-2.8-6.5-5.4-7.5c-1.7-0.7-10.8,1-13.2,2.4c-2,1.1-3,1-5.7-0.5c-2-1.1-2.7-2.2-4.6-6c-1.3-2.6-2.5-4.6-2.6-4.6
		s-1.4,1-2.8,2.2c-2,1.7-2.9,2.1-4.8,2.2c-2.6,0-2.5-0.1-3.3,4.9c-0.4,2.6-0.2,2.5-5.1,3.6c-1.1,0.3-1.7,1-2.7,3.6
		c-0.9,2.5-1.7,3.7-3.3,4.6c-1.7,1.1-2.1,1.8-2.6,4.4c-0.4,1.7-0.5,5.1-0.4,7.7l0.2,4.6h-4.6c-3.2,0-5.7-0.3-8.3-1.2l-3.7-1.1
		l-1.7,1.2l-1.7,1.3l-3-2c-3.8-2.5-7.5-2.7-12.2-0.6c-3,1.4-3.1,1.5-4.6,5.4l-1.6,4l-3,1c-1.7,0.5-4.7,1.1-6.7,1.3
		c-3.5,0.2-3.8,0.3-4.8,2.1c-0.8,1.4-1.1,2.8-1.1,5.5v3.7l-2.5,1.5c-1.4,0.9-2.5,1.8-2.5,2.1c0,0.3,0.5,1.5,1.1,2.7l1.1,2.2
		l-2.5,2.6c-1.5,1.6-2.5,3.2-2.5,3.9c0,0.7-0.8,2.4-1.6,3.7c-0.9,1.4-1.6,2.7-1.6,3.1c0,0.3,0.9,1.4,1.9,2.4l1.9,1.9l3.8-0.7
		c2.6-0.4,4.6-0.5,6.4-0.1c1.5,0.3,3.3,0.6,4.2,0.7c1.3,0.1,1.7,0.5,2.2,2.1c0.7,1.9,0.7,2-1.3,3.6c-1.1,0.9-3.3,2.5-4.8,3.4
		c-2.5,1.5-2.8,2-3.5,4.6c-0.4,1.6-0.9,3.3-1.1,3.6c-0.3,0.4-1.9,0.2-5.8-1c-7.4-2.3-9.3-2.2-11.8,0.3c-1.8,1.8-2.1,2.7-3,6.8
		l-0.9,4.8l-5.5,2.2c-3,1.2-6.6,2.5-7.9,2.8c-1.4,0.4-4.6,1.7-7.2,3.1l-4.8,2.5v4.2c0,4-0.1,4.3-1.6,5.8c-0.9,0.9-2,2.7-2.4,4.3
		c-0.8,2.5-0.7,3.3,0.3,8.9l1.1,6.2l-1.7,2.9c-1,1.6-2.5,3.6-3.2,4.4c-1.2,1.3-1.4,1.8-1,3.7l0.3,2.2l-4.1,3.1
		c-3.3,2.5-4,3.3-3.8,4.3c0.2,0.6,0.5,2.2,0.7,3.6c0.4,2.4,0.5,2.5,2.4,2.6c1.5,0.1,2.6-0.2,4.1-1.2l2-1.4l2.4,3.7
		c1.3,2,2.5,4.2,2.7,4.8c0.2,0.7-0.1,3-0.5,5.2c-0.5,2.2-0.9,4.3-0.9,4.5c0,0.2-0.8,0.5-1.9,0.7c-2.4,0.5-12.1-1.4-12-2.4
		c0.1-0.4,0.1-1.5,0.2-2.5c0.1-1.5,0.3-2,1.5-2.4l1.4-0.5l-2-2.4c-1.1-1.3-2.5-3-3-3.7l-1-1.3l-3.7,2c-3.6,2-3.7,2-6.7,1.4
		c-1.7-0.3-3.3-0.6-3.5-0.6s-0.5,1-0.8,2.3c-0.5,3.5-3.7,7.9-6.5,9.3l-2.4,1.1l-1.6-1.4c-0.9-0.8-2.7-1.7-4.1-2.1
		c-2.4-0.7-2.7-0.6-5.4,1l-2.6,1.4v8v0.5c0.1,0.7,0.1,1.4,0.2,1.9l0.4,2.8l-0.7,0.5v2.5v24.6v8.1v24.4v8.1v0.1v8.2v32.3v1.7h383
		c0,0,0,0-0.1,0C485.9,316.6,484.7,315.3,482,311.3z"/>
	<path fill="#429F00" d="M106.3,325.3V350v8.2v16.1v8.2v16.3v8.2v5.3c1.8-0.5,3.4-1,4.4-1.7c1.8-1.1,3.7-1.7,5.7-2
		c2.7-0.3,3.5-0.1,7.3,1.6l4.2,2l10.3,0.3c7.5,0.3,10.8,0.2,12.3-0.3c1.9-0.6,2.5-0.5,6.6,1c4.3,1.5,4.9,1.6,9.3,1.3l4.7-0.3
		l3.2,2.8l3.2,2.8h6.6h6.5l1.2,2.5l1.2,2.5h5.9h5.9l8.3,3.3c6.8,2.7,8.7,3.2,10.3,3c1-0.2,4.2-0.4,6.8-0.6c4.3-0.2,5.1-0.1,6.2,0.8
		c1.3,1.1,1.3,1.1,0.4,4.3c-1.1,4.6-1.1,4.9,1.3,5.2c5.4,0.9,5,0.5,4.6,4.2l-0.3,3.2h3.4c2.6,0,4-0.3,5.7-1.3
		c3.1-1.7,5.6-2.1,6.4-1.1c0.4,0.4,1.4,0.8,2.2,0.8c6.7,0,8.5,1.5,6.9,5.5c-0.5,1.2-0.9,3.1-0.9,4c0,1.7,0.2,1.9,2.6,2.5
		c2.3,0.6,2.6,0.5,3.6-0.4c1-1,1-1.4,0.5-4.9c-0.5-3.3-0.5-4.2,0.3-6.6l0.9-2.8l3.3,2.3c1.8,1.3,3.9,3.1,4.8,4l1.4,1.7l4.8-2.4
		c3.4-1.6,5-2.8,5.6-4c1.5-2.7,1.9-3.1,4.1-3.4c2-0.3,2-0.3,2,1.5c0,1.3,0.5,2.2,1.9,3.6c1.1,1.1,2.1,2.7,2.5,4.2
		c0.3,1.3,0.8,2.4,0.9,2.4c0.8,0,4.4-2.2,5.4-3.2c1-1.1,3.2-1.4,5.6-0.7c1.6,0.5,8.2,8.4,9,10.8c0.6,1.9,2.6,3.3,5.9,4.3
		c1.1,0.4,1.2,0.3,1.2-2.5c0-1.5,0.5-4.3,1.2-6.1c1-2.9,1.4-3.4,3.8-4.6c1.6-0.8,3.6-1.3,5.1-1.3c2.4,0,2.6-0.1,3.6-2.1
		c1.6-3.2,4-5,6.8-5c3.5,0,4.8,0.5,4.8,1.9c0,0.6,0.7,2.8,1.4,5c0.8,2.1,1.7,5.4,2.1,7.4c0.4,2,1.4,5.1,2.2,7l1.5,3.5l2.5-0.3
		c3.7-0.5,8.3-2.8,9.6-4.9c0.7-1.1,1.6-1.8,2.6-1.9c1-0.1,1.6-0.6,2-1.7c0.4-1.2,1-1.6,3.1-2.1c2.4-0.5,2.7-0.5,4.2,0.8
		c0.9,0.7,1.8,1.8,1.9,2.3c0.2,0.6,1.5,1.3,3.5,2c3.2,1,3.2,1,5.1-0.3c1-0.7,2.8-2.4,4-3.7l2.2-2.5l5.1-0.2c2.8-0.2,6-0.1,7.1,0.2
		c1.6,0.4,2,0.9,2.8,3.2c0.8,2.5,1.1,2.9,3.7,4.1c2.8,1.4,2.8,1.4,2.8,3.8c-0.1,1.4,0.2,3.5,0.5,4.8c0.6,2,1,2.4,3.1,3.1
		c1.3,0.5,3.5,1.6,4.9,2.5c3,2.1,4,2.1,4.8,0.2c0.3-0.8,1.4-2.4,2.4-3.4c2.7-2.8,3-5.1,0.9-10c-1.1-2.6-1.6-4.9-1.6-6.7
		c0-3.6-1-6.1-2.6-6.8c-1.1-0.5-1.3-0.9-1.3-3.9c0-2.7,0.4-4,2-7.3c1.1-2.1,2.5-4.6,3-5.4c0.6-0.8,1-1.9,1-2.4
		c0-1.4,4.2-11.6,5.5-13.5c0.6-0.9,1.9-2,2.7-2.4c1.1-0.6,1.6-1.3,1.6-2.2c0-1,0.4-1.4,1.3-1.7c0.7-0.2,2.2-1.3,3.4-2.5
		c1.1-1.1,2.5-2.1,3-2.1c0.9,0,2.7-1.6,2.7-2.4c0-0.3-0.6-0.9-1.4-1.5c-1.1-0.8-1.4-1.5-1.4-3.3c0-3.7,0.2-3.8,7.2-3.6
		c6.1,0.2,6.3,0.3,8.5,2c3.1,2.5,4,2.4,4-0.6c0-2.3,0.1-2.5,2.2-3.4c1.9-0.9,3.2-0.9,10.6-0.7c7.2,0.3,8.9,0.2,12.3-0.7
		c2.2-0.6,4.1-1.1,4.2-1.3c0-0.1,0.5-0.7,1-1.3c1-1.1,0.9-1.3-1.6-4.9c-1.6-2.4-2.7-4.5-2.9-5.9c-0.3-2-0.5-2.2-2.6-2.9
		c-1.4-0.5-2.8-1.5-3.6-2.5c-1.1-1.6-1.1-1.9-0.5-4.8c0.5-2.2,0.5-3.6,0.1-4.6c-0.3-0.8-0.5-2.4-0.5-3.6c0-1.2-0.5-3.1-1.1-4.3
		c-1.2-2.4-0.9-4,1.1-6c1.5-1.5,1.4-1.8-1.1-3.5c-1.2-0.8-2.2-1.9-2.2-2.4c0-0.5-0.8-2.5-1.6-4.4l-1.6-3.5l1.4-1.6
		c1.3-1.5,1.4-2.1,1.4-6.5c0-5.7-0.2-6.1-6.4-10.2h-383V325.3z"/>
	<path fill="#FFFFFF" d="M72.9,211.4c-0.3-0.2-0.6-0.5-0.9-0.7l-1.1-0.8v1.5H72.9z"/>
	<path fill="#FFFFFF" d="M50.6,292.9h-4.9l-0.4,0.9l1.3,3c0.6,1.6,1.1,2.7,1.3,4.2h2.8V292.9z"/>
	<polygon fill="#FFFFFF" points="31.3,210.4 31.3,211.4 34,211.4 	"/>
	<path fill="#FFFFFF" d="M101.3,406.9v-8.2h5.1v-16.3H96.2v-8.2H86.1v-8.2h5.1v-8.2h5.1v8.2h5.1v8.2h5.1v-16.1h-5.1V350h5.1v-24.7
		H81v-8.1h-5.1v-8.1h-5.1v-8.3h5.1v-8.2H81v-8.1h5.1v8.1h5.1v8.2h5.1v8.3h5.1v8h5.1v-32.3h-5.1v-8.2h-5.1v-8.2h-5.1v-8.2h-5.1v-8.2
		H81v8.2H70.9v-8.2h5.1V244H81v-8h5.1v8h5.1v8.2h5.1v8.2h5.1v8.2h5.1v-24.4h-5.1v-8.1h5.1v-24.6h-3.6l-0.2,0.1l-0.2-0.1h-1.1v8.2
		h-5.1v8.2h-5.1v8.2H75.9v-8.2h-5.1v-8.2H81v8.2h5.1v-8.2h5.1l0-8.2h5.1v-3.1l-3.4,1.6c-2,0.9-5.8,3.4-8.4,5.4c-4,3.2-5,3.7-6.9,3.7
		h-1.5v0.4H65.8v-6.7l-0.9,0.9l-4.7-1c-2.2-0.4-3.5-0.7-4.5-0.7v7.6h-5.1v-6.7c-2.9,0.4-6.7,0.3-10.1-0.1v6.6h-8.7c0,0,0,0.1,0,0.1
		h3.6v8.2H33c0.4,2.5,1.1,7.3,1.4,11.5c0.8,8.1,1.1,10,4.2,20c0.1,0.4,0.2,0.8,0.4,1.2h1.6v4.8c0.4,1.2,0.8,2.3,1.1,3.3h3.9v8.2h5.1
		v8h5.1v-8h5.1v-8.2h5.1v-8.2h10.1v8.2h-5.1v8.2h-5.1v8.1h-5.1v8.1h-5.1v8.1h5.1v8.2H48.2c0,0,0,0.1,0,0.1h17.7v8h5.1v8.2H47.6
		l0,0.1h3v8.2h-5.1v8.2h-5.1v8.2h-5.1v8.1H20.3v-8.1h-5.1v-1.2c-1.8,2-3.6,4.6-7.1,9.7c-3.7,5.4-7.1,10.4-7.5,11
		c-0.8,1.1-0.8,1.3,0.8,3.9c0.3,0.4,0.5,0.8,0.7,1.1h8.1v4.1c0.5,0.3,1.1,0.6,1.6,0.9c1.5,0.8,2.6,1.5,3.5,2.1v-7.2H5.1v-8.2h5.1
		v-8.2h5.1v8.2h5.1v8.2h5.1v8.2h-8.9c0,0,0.1,0.1,0.1,0.1h3.8v4.7c0.3,0.3,0.6,0.4,0.7,0.4c0.5,0,1.8,0.9,2.9,2
		c0.6,0.7,1.1,1.2,1.4,1.8v-0.8h5.1v8.1h5.1v8.2h5.1v8.2h5.1v8h5.1v8.2H40.5v-8h-5.1v-8.2h-5.1v-8.2h-5.1v8.2h-2.5
		c0.1,0.6,0.3,1.2,0.6,2l0.9,1.9l-2.9,1.3l-1.2,0.5v2.5h-2.1l-0.4,2.9c-0.4,2.5-0.8,5.7-0.8,7.3c0,3.2,1,11.7,1.5,12.1
		c0.2,0.2,1.3,0.1,2.6-0.3c2.1-0.7,2.2-0.8,1.9-2.4c-0.2-1-0.4-2.8-0.7-4l-0.3-2.3l2.8-0.6c0.2,0,0.3-0.1,0.5-0.1v-4.4h5.1v4
		c4,0.1,7.4,1.1,7.9,2.7c0.2,0.5,1.1,1.1,2.2,1.5v-0.2h5c0.1,0,0.1-0.1,0.2-0.1h-0.1v-8h13.6c0.1-0.1,0.2-0.1,0.3-0.2h-3.7v-8.2h5.1
		v-8h5.1v-8.2h5.1v-8.2h5.1v-8.1H81v8.1h5.1v8.2h5.1v6.8c5.3,0.2,11.1-0.4,15.2-1.4v-5.3H101.3z M40.5,244.1h-5.1v-8.1h5.1V244.1z
		 M45.6,227.8h5.1v8.2h-5.1V227.8z M55.7,268.3h-5.1v-8.1h5.1V268.3z M60.8,252.2h-5.1l0-8.1h-5.1v8.1h-5.1V244h5.1v-8h5.1v8h5.1
		V252.2z M60.8,236h-5.1l0-8.2h5.1V236z M65.8,236.1h5.1v8.1h-5.1V236.1z M50.6,349.8h5.1v8.1h-5.1V349.8z M25.3,366.2V358h5.1v8.2
		H25.3z M45.6,398.6h-5.1v-8.1h5.1V398.6z M55.7,406.9h-5.1v-8.2h5.1V406.9z M65.8,398.6h-5.1v-8.1h5.1V398.6z M70.9,390.5H55.7v-8
		h-5.1v8H35.4v-8h-5.1v-8.2h5.1v-8.2h5.1V358h5.1v8.2h5.1v8.2h10.1v8.2h10.1V390.5z M75.9,382.4H65.8v-8.2H55.7v-8.2h5.1v-8.2h5.1
		v8.2h5.1v8.2h5.1V382.4z M75.9,366.1v-8.2h-5.1v-8.1h-5.1v-8.2h-5.1v-8.2h-5.1v-8.2h20.3v8.2H81v-8.2h20.3v8.2h-5.1v8.2h-5.1v8.2
		h-5.1v8.1H81v8.2H75.9z M81,382.5v-8.2h10.1v8.2h10.1v8H86.1v-8H81z M96.2,398.6h-5.1v-8.1h5.1V398.6z"/>
	<rect x="40.5" y="374.3" fill="#FFFFFF" width="5.1" height="8.2"/>
	<path fill="#FFFFFF" d="M75.9,406.8v6.6c1.6-0.2,3.3-0.3,5.1-0.3v-6.3H75.9z"/>
	<rect x="81" y="236.1" fill="#B20000" width="5.1" height="8"/>
	<polygon fill="#B20000" points="55.7,236.1 50.6,236.1 50.6,244 50.6,244.1 55.7,244.1 55.7,244 	"/>
	<rect x="35.4" y="236.1" fill="#B20000" width="5.1" height="8.1"/>
	<rect x="65.8" y="236.1" fill="#B20000" width="5.1" height="8.1"/>
	<polygon fill="#B20000" points="91.1,211.5 91.1,219.7 86.1,219.7 86.1,227.8 81,227.8 81,219.7 70.9,219.7 70.9,227.8 75.9,227.8 
		75.9,236 91.1,236 91.1,227.8 96.2,227.8 96.2,219.7 101.3,219.7 101.3,211.5 102.4,211.5 99.5,210 96.4,208.3 96.2,208.4 
		96.2,211.5 	"/>
	<polygon fill="#B20000" points="106.3,209 104.8,210.1 102.7,211.5 106.3,211.5 	"/>
	<rect x="101.3" y="236.1" fill="#B20000" width="5.1" height="8.1"/>
	<path fill="#B20000" d="M35.4,219.7h-3.6c0.3,2.8,0.7,5.7,1,7.2c0.1,0.3,0.1,0.6,0.2,1h2.5V219.7z"/>
	<path fill="#B20000" d="M75.9,219.6v-0.4h-0.7l-0.3-2.6c-0.2-1.4-0.4-3-0.4-3.4c0-0.3-0.7-1-1.6-1.7h-2v-1.5l-1.2-0.8l-2.4,2.4
		l-1.5,1.4v6.7H75.9z"/>
	<path fill="#B20000" d="M55.7,219.8v-7.6c-0.9,0-1.7,0.2-2.8,0.5c-0.6,0.2-1.4,0.3-2.3,0.5v6.7H55.7z"/>
	<path fill="#B20000" d="M40.5,212.9c-2.2-0.3-4.2-0.7-5.7-1.2l-0.8-0.3h-2.7l0.3,5.4c0.1,0.9,0.1,1.8,0.2,2.8h8.7V212.9z"/>
	<path fill="#B20000" d="M106.3,203.3c0,0.2,0,0.4,0,0.5L106.3,203.3L106.3,203.3z"/>
	<path fill="#B20000" d="M106.3,195.3l-0.3,0.1v3.8c0,1.2,0.1,2.7,0.2,4.1h0V195.3z"/>
	<rect x="25.3" y="358" fill="#B20000" width="5.1" height="8.2"/>
	<path fill="#B20000" d="M40.5,439.5c1,0.4,2.1,0.6,3.1,0.6c0.3,0,1-0.3,1.9-0.8h-5V439.5z"/>
	<polygon fill="#B20000" points="20.3,420.6 18.5,421.4 18.2,423.1 20.3,423.1 	"/>
	<rect x="50.6" y="398.7" fill="#B20000" width="5.1" height="8.2"/>
	<rect x="75.9" y="357.9" fill="#B20000" width="5.1" height="8.2"/>
	<path fill="#B20000" d="M25.3,406.8h5.1v8.2h5.1v8.2h5.1v-0.2h5.1v-8h-5.1v-8.2h-5.1v-8.2h-5.1v-8.1h-5.1v0.8c0.6,1,0.9,2.1,1.2,4
		c0.7,3.7,0.7,3.8-1,6.9c-1,1.9-1.7,4-1.7,5.1c0,1.1-0.3,3.2-0.7,4.7c-0.3,1.3-0.4,2.1-0.3,2.8h2.5V406.8z"/>
	<rect x="101.3" y="398.7" fill="#B20000" width="5.1" height="8.2"/>
	<path fill="#B20000" d="M20.3,349.9v8.1h15.2v-8.1h5.1v-8.2H23.1l-3.2,2.6c-2,1.6-3.4,2.8-4.7,4.3v1.2H20.3z"/>
	<path fill="#B20000" d="M86.1,406.8v-8.2H81v-8.1h-5.1v8.1h-5.1v8.2h-5.1v8.2h-5.1v8h2c0.2-0.8,0.3-1.5,0.4-2.2l0.6-3.9l4.2-1.6
		c2.3-0.9,5-1.5,8-1.8v-6.6H81v6.3c2.3,0,4.6,0.1,7.2,0.3c1,0.1,1.9,0.1,3,0.2v-6.8H86.1z"/>
	<polygon fill="#B20000" points="101.3,317.3 81,317.3 81,325.3 106.3,325.3 106.3,318.8 106.3,317.2 101.3,317.2 	"/>
	<polygon fill="#B20000" points="96.2,300.9 91.1,300.9 91.1,292.8 86.1,292.8 86.1,292.9 81,292.9 81,292.8 75.9,292.8 75.9,300.9 
		70.9,300.9 70.9,309.2 75.9,309.2 96.2,309.2 	"/>
	<rect x="50.6" y="260.3" fill="#B20000" width="5.1" height="8.1"/>
	<polygon fill="#B20000" points="60.8,284.8 65.8,284.8 65.8,276.7 70.9,276.7 70.9,268.6 75.9,268.6 75.9,260.4 65.8,260.4 
		65.8,268.6 60.8,268.6 60.8,276.7 55.7,276.7 55.7,284.7 60.8,284.7 	"/>
	<path fill="#B20000" d="M50.6,276.7h-5.1v-8.2h-3.9c0.9,2.7,1.8,4.9,2.3,6.1c1.1,2.4,2.4,6.5,3,9.1l0.2,1h3.5V276.7z"/>
	<path fill="#B20000" d="M60.8,300.9h-5.1v-8.1h-5.1v8.1h-2.8c0.3,1.8,0.4,4.1,0.3,8.2h12.6V300.9z"/>
	<path fill="#B20000" d="M39,260.4c0.5,1.6,1,3.2,1.6,4.8v-4.8H39z"/>
	<polygon fill="#B20000" points="101.3,260.3 96.2,260.3 96.2,252.2 91.1,252.2 91.1,244 86.1,244 81,244 75.9,244 75.9,252.2 
		70.9,252.2 70.9,260.3 81,260.3 81,252.2 86.1,252.2 86.1,260.3 91.1,260.3 91.1,268.5 96.2,268.5 96.2,276.7 101.3,276.7 
		101.3,276.6 106.3,276.6 106.3,268.5 101.3,268.5 	"/>
	<polygon fill="#B20000" points="86.1,357.9 86.1,349.9 91.1,349.9 91.1,341.7 96.2,341.7 96.2,333.6 81,333.6 75.9,333.6 
		60.8,333.6 60.8,341.7 65.8,341.7 65.8,349.9 70.9,349.9 70.9,357.9 75.9,357.9 81,357.9 	"/>
	<path fill="#B20000" d="M45.6,341.7v-8.2h-0.3c-1.6,2.2-2.4,2.7-6.3,4.2c-3.1,1.2-6,1.8-9.2,2.1l-4.6,0.3l-1.9,1.6h17.4H45.6z"/>
	<polygon fill="#B20000" points="101.3,390.5 101.3,382.5 91.1,382.5 91.1,374.3 81,374.3 81,382.5 86.1,382.5 86.1,390.5 	"/>
	<path fill="#B20000" d="M45.6,439.2h0.1c0.7-0.4,1.4-0.8,2.1-1.3c1.8-1.2,5.4-3.4,8-4.8c1.5-0.8,2.5-1.4,3.3-1.8H45.6V439.2z"/>
	<path fill="#B20000" d="M25.3,431.3v4.4c1.7-0.3,3.4-0.5,5.1-0.4v-4H25.3z"/>
	<path fill="#B20000" d="M2,374.3c0.9,1.3,1.6,1.7,3,2c0.9,0.1,3,1,5.1,2.1v-4.1H2z"/>
	<path fill="#B20000" d="M16.5,382.5c0.7,0.6,1.2,1.3,1.8,2.3c0.7,1,1.4,1.9,2,2.4v-4.7H16.5z"/>
	<polygon fill="#B20000" points="70.9,317.2 65.8,317.2 65.8,317.3 47.9,317.3 47.6,325.3 70.9,325.3 	"/>
	<path fill="#B20000" d="M55.7,422.9v8.2h3.7c1.3-0.9,1.6-1.7,2.3-3.4c0.3-1.1,0.8-3,1.1-4.7h-2H55.7z"/>
	<polygon fill="#B20000" points="101.3,366.1 96.2,366.1 96.2,357.9 91.1,357.9 91.1,366.1 86.1,366.1 86.1,374.2 96.2,374.2 
		96.2,382.4 106.3,382.4 106.3,374.2 101.3,374.2 	"/>
	<rect x="40.5" y="390.6" fill="#B20000" width="5.1" height="8.1"/>
	<rect x="91.1" y="390.6" fill="#B20000" width="5.1" height="8.1"/>
	<rect x="60.8" y="390.6" fill="#B20000" width="5.1" height="8.1"/>
	<rect x="101.3" y="350" fill="#B20000" width="5.1" height="8.2"/>
	<polygon fill="#B20000" points="70.9,366.1 65.8,366.1 65.8,357.9 60.8,357.9 60.8,366.1 55.7,366.1 55.7,374.2 65.8,374.2 
		65.8,382.4 75.9,382.4 75.9,374.2 70.9,374.2 	"/>
	<path fill="#B20000" d="M60.8,374.3H50.6v-8.2h-5.1V358h-5.1v8.2h-5.1v8.2h-5.1v8.2h5.1v8h15.2v-8h5.1v8h15.2v-8H60.8V374.3z
		 M40.5,382.5v-8.2h5.1v8.2H40.5z"/>
	<rect x="50.6" y="349.8" fill="#B20000" width="5.1" height="8.1"/>
	<polygon fill="#B20000" points="40.5,423.1 40.5,431.1 50.6,431.1 50.6,422.9 45.6,422.9 40.5,422.9 	"/>
	<polygon fill="#B20000" points="45.6,244 45.6,252.2 50.6,252.2 50.6,244.1 50.6,244 	"/>
	<rect x="45.6" y="227.8" fill="#B20000" width="5.1" height="8.2"/>
	<rect x="55.7" y="227.8" fill="#B20000" width="5.1" height="8.2"/>
	<path fill="#B20000" d="M50.6,333.6v-8.2h-3l-0.2,5.3l-2,2.6c-0.1,0.1-0.1,0.1-0.2,0.2h0.3H50.6z"/>
	<polygon fill="#B20000" points="101.3,333.6 101.3,325.4 81,325.4 81,333.6 96.2,333.6 	"/>
	<polygon fill="#B20000" points="75.9,325.4 55.7,325.4 55.7,333.6 60.8,333.6 75.9,333.6 	"/>
	<path fill="#B20000" d="M25.3,374.2h-5.1v-8.2h-5.1v-8.2h-5.1v8.2H5.1v8.2h10.1v7.2c0.4,0.3,0.8,0.7,1.2,1h8.9V374.2z"/>
	<polygon fill="#B20000" points="55.7,244.1 55.7,252.2 60.8,252.2 60.8,244 55.7,244 	"/>
	<polygon fill="#B20000" points="101.3,276.7 101.3,284.8 106.3,284.8 106.3,276.7 106.3,276.6 101.3,276.6 	"/>
	<polygon fill="#B20000" points="101.3,317.2 101.3,309.2 96.2,309.2 75.9,309.2 75.9,317.3 81,317.3 101.3,317.3 	"/>
	<polygon fill="#B20000" points="86.1,292.9 86.1,292.8 86.1,284.7 81,284.7 81,292.8 81,292.9 	"/>
	<polygon fill="#B20000" points="55.7,292.9 60.8,292.9 60.8,284.8 60.8,284.7 55.7,284.7 50.6,284.7 47.2,284.7 47.9,288.4 
		46.6,291.1 45.7,292.9 50.6,292.9 	"/>
	<path fill="#B20000" d="M65.8,317.2v-8H48.2c-0.1,2.1-0.2,4.7-0.3,8l0,0.1L65.8,317.2L65.8,317.2z"/>
</g>
</svg>
