<?xml version="1.0" encoding="utf-8"?>
<!-- Generator: Adobe Illustrator 17.1.0, SVG Export Plug-In . SVG Version: 6.00 Build 0)  -->
<!DOCTYPE svg PUBLIC "-//W3C//DTD SVG 1.1//EN" "http://www.w3.org/Graphics/SVG/1.1/DTD/svg11.dtd">
<svg version="1.1" id="flag-icon-css-ca" xmlns="http://www.w3.org/2000/svg" xmlns:xlink="http://www.w3.org/1999/xlink" x="0px"
	 y="0px" viewBox="0 0 640 480" enable-background="new 0 0 640 480" xml:space="preserve">
<g>
	<path fill="none" d="M493.9,391.2l0-142.5c0,0,0,0,0,0L493.9,391.2C493.8,391.2,493.8,391.2,493.9,391.2z"/>
	<path fill="none" d="M493.9,415.1l0-20.4c0,0-0.1,0-0.1,0.1L493.9,415.1C493.8,415.1,493.8,415.1,493.9,415.1z"/>
	<path fill="#FFFFFF" d="M321.6,26.6c-0.6,1-1.2,1.2-2.1,1c-0.9-0.2-1.6,0.1-2.5,1c-1.5,1.6-1.2,3,0.7,3c1,0,1.3,0.2,1,0.9
		c-0.2,0.5,0.1,1.2,0.6,1.6c0.8,0.5,0.8,0.8,0.2,1.8c-0.9,1.5,0.1,2.6,1.6,1.7c0.6-0.3,1.7-0.6,2.4-0.6s1.8-0.4,2.5-0.9
		c1.2-0.9,1.2-0.9,0.6,0.3c-0.4,0.6-1.5,1.5-2.5,1.9c-2.2,0.9-2.3,1.3-0.8,2.8c0.9,0.8,1.2,0.9,2.2,0.3c0.9-0.6,1-0.5,1,0.4
		c0,1.2,0.8,1.3,3.7,0.8c1.1-0.3,1.7-0.6,1.7-1.3c0-0.6,0.4-1,0.8-1c0.4,0,0.8,0.2,0.8,0.5c0,1,1.3,0.5,3.4-1.3c1.1-1.1,2-2.2,2-2.4
		c0-0.5,2.2-1.6,3-1.6c0.6,0,0.1,1.7-1.4,4.5c-1.3,2.3-2.1,3.1-3.5,3.6c-1,0.3-2,0.8-2.2,1c-0.1,0.2,0.9,1.7,2.2,3.2
		c1.3,1.6,2.4,3.1,2.4,3.3c0,1.1-1.4,0.3-4.1-2.2c-2.6-2.4-3.1-2.7-5.4-2.7h-2.5l0.3,1.7c0.2,0.9,0.3,2.3,0.3,2.9
		c0,0.9,0.4,1.4,1.5,1.8c1.8,0.6,4.4,4.7,4.4,6.8c0,1.2,0.2,1.4,1.8,1.4c1,0,2.1-0.3,2.4-0.6c1-1,1.4-0.1,0.6,1.8
		c-0.4,1-0.8,1.8-0.9,1.9c-0.1,0.1-0.9-0.2-1.8-0.7c-1.5-0.8-2.1-0.8-4.4-0.2c-2.2,0.6-2.6,0.9-2.6,1.9c0,0.7-0.2,1.4-0.5,1.6
		c-0.6,0.4-0.7,5.1-0.1,5.1c0.3,0,0.8-0.4,1.2-0.9c0.6-0.8,0.8-0.8,1.3,0.1c0.5,0.6,1,0.8,1.9,0.5c1-0.3,1.1-0.2,0.9,0.5
		c-0.4,1.1,0.7,4.1,2,5.1c0.8,0.6,1,0.5,2-0.7c1.5-1.9,1.8-1.5,1,1c-0.6,1.8-0.9,1.9-2.9,1.9c-1.9,0-2.3-0.2-3.2-2.1
		c-0.9-1.7-1.4-2-3.2-2.2c-1.9-0.2-2.1-0.1-1.7,1.1c0.2,0.7,0.3,1.8,0.3,2.4c0,0.9,0.3,1.2,1.1,1.2c1.2,0,1.2,0,0.6,1.8
		c-0.3,0.8-1,1.5-1.5,1.7c-1.4,0.4-3.5,4.9-3.1,6.5c0.4,1.8,3.3,2.3,6,1.1c1.9-0.9,2.1-0.9,4.2,0.2c2.8,1.4,3.7,1.5,3,0.1
		c-0.8-1.5-0.8-1.6,1.4-2c1.5-0.3,2.1-0.2,2.6,0.6c0.7,1,0.8,0.9,1.3-0.8c0.6-1.6,0.9-1.7,2.8-1.7c2.1,0,2.1,0.1,2.1,2v2l1.9-1.8
		c1-1,2-2.3,2.2-2.8c0.2-0.5,0.6-1,1-1c0.4,0,1-0.7,1.2-1.6c0.5-1.3,0.4-1.7-0.5-2.6c-0.8-0.7-1.2-0.8-1.3-0.3
		c-0.4,1.1-2.3-0.2-2.3-1.5c0-0.9-0.2-1-0.9-0.8c-0.5,0.2-2.1,0.6-3.5,0.8L344,80v-1.8c0-1.8,0.1-1.8,1-1c1.7,1.5,3.7,1.1,6.2-1.2
		l2.2-2.1l-1.2-2l-1.2-1.9h1.3c1.5,0,4.2-1.9,4.2-3c0-0.4-0.4-1-0.9-1.2c-0.8-0.4-0.8-0.6,0.4-1.4l1.3-0.9l-1.2-1
		c-1-0.9-1.1-1.1-0.5-1.6c1-0.9,0.4-2.8-1.1-3.3c-0.7-0.2-1.3-0.7-1.3-1c0-0.3-0.6-0.4-1.4-0.2c-1,0.3-1.3,0.2-1.1-0.3
		c0.2-0.3,1.3-0.6,2.4-0.6c2.4,0,2.8-0.2,2.4-1.7c-0.3-0.9-0.6-1-1.8-0.8c-5.3,1.1-5,1.1-4.3-0.2c0.4-0.6,1.1-1.1,1.8-1.1
		s2-0.8,2.9-1.7c1.5-1.4,1.7-1.9,1.2-3c-0.4-1.2-0.3-1.3,0.8-1c1,0.2,1.5-0.1,2.4-1.6c1.5-2.4,1.5-3.6,0-3.6c-0.9,0-1-0.2-0.6-0.7
		c0.3-0.3,0.7-1.2,0.9-2c1.2-5.7,3.1-12.4,3.6-13.7c0.6-1.2,0.6-1.7,0-2.8c-0.9-1.7-1.3-1.4-3.2,2.5c-0.9,1.8-2,3.2-2.4,3.2
		c-0.7,0-0.6-0.4,0.3-2.2l1.1-2.2l-1.1-0.4c-1-0.4-1-0.4,0.4-1.3c0.9-0.5,2.3-2.2,3.2-3.8c1.5-2.5,1.6-3.2,1.5-5.9l-0.3-3l-3-1.5
		c-3.3-1.7-3.1-1.8-5.6,1.9l-0.9,1.3l-0.1-1.6c-0.1-0.9-0.3-2.1-0.5-2.7c-0.4-1-0.4-1-1.1,0.2c-0.5,1-1.1,1.2-3.4,1.2
		c-2.2,0-3.1,0.3-4.2,1.3c-1.2,1.1-1.7,1.2-3.4,0.9c-2.9-0.6-4,0.8-2.2,2.8c0.9,1,0.9,1-1.2,0.9c-2.5-0.2-4.8,0.9-4.4,2
		c0.2,0.4,0.5,1.1,0.6,1.6c0.2,0.6,0,0.8-0.8,0.8c-1,0-1.1,0.3-1.1,2.2c0,1.2-0.1,2.2-0.3,2.2c-0.2,0-1.3-0.5-2.5-1.1
		c-2-1-2.2-1.1-2.4-0.2c-0.2,0.5-0.5,1.4-0.8,1.9c-0.4,0.7-0.2,1.2,1,2.1l1.5,1.1l-2.3-0.2C322.8,25.3,322.4,25.4,321.6,26.6z"/>
	<path fill="#FFFFFF" d="M165.6,123.4c-0.5,0.4-1.4,0.4-3,0.1c-2.9-0.7-2.6-0.7-4.1,0.3c-1,0.7-1.1,1.1-0.6,2.3
		c0.3,0.8,0.8,1.6,1.1,1.8c0.3,0.2,2.3-0.2,4.5-1c3.2-1.1,3.9-1.5,3.6-2.2C166.5,123,166.3,122.8,165.6,123.4z"/>
	<path fill="#FFFFFF" d="M372.2,124.1c0.9-1,0.8-1.1-2.5-4.1c-3.7-3.2-5.3-3.7-8.4-2.4c-0.8,0.3-2.3,0.4-3.3,0.3
		c-1.6-0.3-2.1-0.2-2.1,0.4c0,1.3,1.1,3.7,2.4,5.2c0.8,0.9,1.5,2.3,1.7,3.2c0.2,0.9,0.7,1.6,1.1,1.6c1.5,0,2.4-0.6,2.4-1.6
		c0-1.5,1-1.9,4.6-1.7C370.7,125.1,371.5,124.9,372.2,124.1z"/>
	<path fill="#FFFFFF" d="M322.3,78.4c-1.8-1.2-2.1-1.1-2.1,1.1c0,1.3,0.4,2.2,1.2,3c1.7,1.5,2,1.3,2-1.1
		C323.5,79.8,323.2,79,322.3,78.4z"/>
	<path fill="#FFFFFF" d="M282.4,103.9c-0.8,1.2,0.2,2.8,1.8,2.8c0.9,0,1-0.4,1-2.4c0-1.7-0.3-2.5-0.9-2.7c-1.2-0.5-1.3-0.4-1.3,0.5
		C283,102.5,282.7,103.4,282.4,103.9z"/>
	<path fill="#FFFFFF" d="M337.4,112.4c5.9-0.8,7-1.1,7.8-2.2l1-1.3l2.2,1.2c2.1,1.1,2.2,1.1,2.9,0.2c0.4-0.5,1.1-0.9,1.6-0.9
		c0.4,0,1.1-0.8,1.4-1.7c0.3-0.9,1.1-2.1,1.7-2.5l1.2-0.8l-1.4-0.8c-1.2-0.6-1.3-0.9-0.9-2.1c0.9-2.3,0.6-2.9-1.3-3.2
		c-1-0.2-1.9-0.5-1.9-0.8c0-0.3-0.6-0.8-1.3-1c-0.8-0.3-1.5-0.9-1.7-1.3c-0.4-1.2-12.3,4.6-12.5,6.1c-0.2,1.3-0.8,1.5-1.8,0.3
		c-0.5-0.6-1.2-0.8-2.4-0.5c-1.3,0.2-1.9,0.1-2.3-0.6c-0.5-0.8-0.6-0.8-1.2,0.4l-0.7,1.3l-0.3-1.6c-0.3-1.5-0.5-1.7-3.2-2.2
		c-0.2,0-0.3-0.1-0.5-0.1L331,113C332.3,112.9,334.7,112.7,337.4,112.4z"/>
	<path fill="#FFFFFF" d="M266.3,70.7c0,0.6-0.3,1.5-0.6,1.9c-0.6,0.5-0.5,0.8,0.3,1.2c0.5,0.3,0.9,1,0.9,1.6c0,1,0.3,1.1,2.5,0.9
		c2.4-0.2,2.5-0.2,3.2-2.4c0.5-1.3,1.2-2.4,1.8-2.6c0.6-0.2,1-0.8,1-1.7c0-1.2-0.2-1.3-3.1-1.2c-1.7,0-3.8,0.3-4.6,0.6
		C266.8,69.3,266.3,69.9,266.3,70.7z"/>
	<path fill="#FFFFFF" d="M271.7,65.7c0,0.3,0.3,0.5,0.7,0.4c0.3-0.1,1.3,0.3,2.2,0.9c1.5,1,1.6,1,2.6-0.1c1.1-1.1,1.1-1.2,0.2-3.6
		c-0.5-1.3-1.1-2.5-1.3-2.5c-0.2,0.1-1.4,0.6-2.8,1.3c-1.3,0.7-3,1.3-3.6,1.3c-1.9,0-1.6,1.6,0.4,1.6
		C271,65.1,271.7,65.4,271.7,65.7z"/>
	<path fill="#FFFFFF" d="M261.7,87.5c-1-0.8-1.9-1.9-1.9-2.4c0-0.6-0.3-1-0.8-1c-0.4,0-1.5-0.2-2.4-0.3c-1.5-0.3-1.7-0.2-1.7,0.8
		c0,0.6-0.3,1.1-0.7,1.1c-0.4,0-1.2,0.5-1.7,1.1c-0.8,0.9-0.8,1.2-0.3,1.9c0.6,0.7,0.5,0.8-0.7,0.8c-1.8,0-2.9,1.3-2,2.4
		c0.6,0.7,0.4,0.8-1,0.8c-2.5,0-3.1,1.2-1.2,2.6c0.9,0.6,1.8,2,2.2,3.1c0.6,1.8,0.8,1.9,3,1.9c2,0,2.4-0.2,2.4-1.1
		c0-1.3,0.9-1.4,1.2-0.1c0.2,0.8,0.9,1,3.7,1c3.8,0.1,4,0.2,3.6,1.6c-0.3,0.9-0.8,1-3.8,0.8c-1.9-0.1-4-0.1-4.8,0.1
		c-1.2,0.3-1.2,0.4-0.8,2.1c0.4,1.2,1.2,2.2,2.3,2.8c1.7,0.9,1.8,0.9,4.6-0.2c1.5-0.6,3.3-1.1,3.9-1.1c0.6,0,2-0.5,3.1-1.1
		c1.7-0.8,2.2-0.9,2.4-0.3c0.2,0.4,1.6,0.8,3.4,1c2.6,0.3,3.3,0.2,4.6-0.8c0.8-0.6,1.7-1.7,1.8-2.4c0.2-0.7,0.6-1.6,1.1-1.9
		c1-0.9,0.4-4.8-1-6c-0.8-0.7-1.3-0.8-2.4-0.4C276,95,276,95,276,94c0-0.4-0.4-1-0.9-1.3c-0.9-0.5-0.9-0.6-0.1-1.5
		c0.8-0.8,0.8-1.2,0.2-2.3c-0.5-1-0.5-1.7-0.1-2.6c0.4-0.9,0.4-1.5-0.2-2.1c-0.6-0.8-1-0.6-3.1,1.5c-1.2,1.2-2.3,2.5-2.3,2.9
		c0,0.3,0.5,1.1,1.1,1.9c0.9,1.2,0.9,1.4,0.2,2.3c-0.6,0.8-0.7,1.2-0.2,2.6c0.3,1,0.5,1.8,0.5,1.8c-0.1,0.1-1.5-0.2-3.1-0.5
		c-2.5-0.5-3-0.8-3.1-1.9c-0.1-0.8-0.4-1.6-0.7-1.9c-0.3-0.3-0.2-0.8,0.1-1.1C265,90.9,264,89.3,261.7,87.5z"/>
	<path fill="#FFFFFF" d="M288.9,66.7c-1.5,0-1.5,0.1-1,1.6c0.5,1.5,0.7,1.6,1.9,1.1c2.2-0.9,5,0.6,6,3.2c0.8,1.9,2.4,3.3,3.9,3.3
		c0.3,0,0.5-1.8,0.3-4.8c-0.2-3.7-0.5-5.2-1.3-6.4c-1.7-2.4-3.7-4.1-4.4-3.7c-0.4,0.2-0.6-0.1-0.6-0.8c0-1.2-1.9-2.8-3.2-2.7
		c-0.4,0-1.3,0.2-1.9,0.5c-1.6,0.6-1.1,3.2,0.9,5.1C291.4,65.1,291.1,66.7,288.9,66.7z"/>
	<path fill="#FFFFFF" d="M307.8,51.6c0,0.9,0.4,1.8,0.8,2.2c0.4,0.4,0.8,1.3,0.8,2.1c0.1,0.8,0.3,1.9,0.7,2.6l0.7,1.2l2.1-1.1
		c2.7-1.4,2.8-1.4,3.5,0.5c0.5,1.5,0.5,1.6-0.9,1.6c-0.8,0-2,0.5-2.6,1.1l-1.2,1.2l1.2,2.1c0.8,1.4,1.7,2.2,2.7,2.4
		c1.2,0.2,1.3,0.4,0.9,1c-0.9,1.1,0.7,3.2,2.8,3.7c2.4,0.5,2.6,0.4,2.6-0.6c0-0.5,0.5-1.2,1.1-1.6c0.9-0.5,1.1-0.5,1.1,0.2
		c0,0.4,0.3,0.6,0.5,0.5c0.3-0.2,0.5-0.9,0.5-1.6c0-1,0.2-1.2,1.1-1c0.9,0.2,1.1,0,1.1-1.2c0-3,1.2-5.6,3.3-7.3
		c2.1-1.7,2.1-1.7,1.3-3.2c-0.8-1.5-1.5-1.8-3.5-1.7c-1.1,0.1-1.6-0.9-1.6-2.9c0-0.9-0.4-2-0.8-2.4c-0.4-0.3-0.9-1.6-1-2.9l-0.2-2.3
		l-0.9,1.8l-0.8,1.9l-0.7-1.7c-0.6-1.4-1-1.7-2.3-1.7c-1.4,0-1.6-0.2-1.6-1.6c0-2.8-2.5-7-4.6-7.9c-2.4-1-2.4-1-2.4,0.3
		c0,0.5,0.4,1.3,1,1.6c0.8,0.5,0.8,0.6,0.1,1.1c-0.4,0.3-1.3,0.4-2,0.3c-1-0.3-1.2-0.1-1.2,1.1c0,0.8,0.4,1.5,0.8,1.7
		c1.1,0.4,1,2.3,0,2.8c-0.5,0.2-1.2,1-1.7,1.9c-0.8,1.6-0.8,1.7,0.7,3.2l1.5,1.7l-1.5-0.4C307.9,50,307.8,50.1,307.8,51.6z"/>
	<path fill="#FFFFFF" d="M258.7,71.5c0-0.9-0.3-1-1.7-0.8c-1,0.2-2.6,0.1-3.8-0.2c-1.8-0.4-2.2-0.3-4.8,1.9
		c-1.7,1.3-3.5,2.4-4.5,2.5c-1.2,0.1-1.7,0.5-1.8,1.3c-0.2,1-0.6,1.2-2.9,1.5c-2.5,0.3-2.6,0.4-2.6,1.9c0,2.2,0.1,2.4,1.1,2.3
		c0.5-0.1,1,0.2,1.2,0.7c0.2,0.6,0.5,0.8,1.3,0.3c0.9-0.5,1.1-0.3,1.2,1c0.2,1.8,2.1,2,2.9,0.2c0.3-0.7,1-1.2,1.8-1.2
		s1.6-0.5,2.2-1.7c1.3-2.5,2.6-4,3.1-3.6c0.2,0.2,0,0.9-0.5,1.6c-0.9,1.4-0.6,3.7,0.5,3.7c0.4,0,1.6-0.4,2.6-0.8
		c1.5-0.6,1.9-1.1,1.9-2.1c0-0.7,0.4-1.5,0.9-1.6c0.6-0.2,0.8-0.8,0.5-1.9c-0.3-1.3-0.1-1.6,0.9-1.8c0.8-0.2,1.1-0.6,0.8-1.2
		C258.9,73,258.7,72.1,258.7,71.5z"/>
	<path fill="#FFFFFF" d="M309.3,102.5c-1.2,1-2.9,3.8-3.3,5.4c-0.3,1.2,0,1.7,2.4,3.4c0.2,0.1,0.3,0.2,0.4,0.3l4.2-8.5
		C311.6,101.7,310.5,101.5,309.3,102.5z"/>
	<path fill="#FFFFFF" d="M294.9,77.5c1.3,0,1.4-1.2,0.2-2.4c-0.9-0.9-3.5-1.2-3.5-0.4C291.6,75.6,293.9,77.5,294.9,77.5z"/>
	<path fill="#FFFFFF" d="M279.5,126.1l1.2-2.4l-1.1-1.7c-0.9-1.5-1.3-1.7-3.4-1.7c-1.8,0-2.5,0.3-3.2,1.2c-0.4,0.6-0.6,1.4-0.5,1.7
		c0.2,0.3,1.3,2,2.5,3.8C277.4,130.3,277.2,130.3,279.5,126.1z"/>
	<path fill="#FFFFFF" d="M302.1,48.7c-0.5-0.2-0.9-0.3-0.9-0.3c-0.1,0-0.4,0.2-0.8,0.3c-1.1,0.4-0.8,2.6,0.6,3.9l1.2,1.2l0.4-1.2
		C303.2,50.5,303,49,302.1,48.7z"/>
	<path fill="#FFFFFF" d="M286.9,92.7c-1.8,0-1.8,0.1-1.5,1.7c0.2,1,0.5,1.8,0.5,1.9c0.2,0.2,3.5-1.3,4-1.8
		C290.6,93.9,288.6,92.7,286.9,92.7z"/>
	<path fill="#FFFFFF" d="M310.1,76.5c-2.1,0.3-4,2.5-2.7,2.9c4.2,1.4,6.5,1.8,6.7,1.2c0.2-0.4,0.5-1.3,0.8-2.1
		c0.5-1.3,0.4-1.5-1.2-1.9C312.6,76.4,311.1,76.3,310.1,76.5z"/>
	<path fill="#FFFFFF" d="M285.2,89.2c-1,1.1,0.3,2.4,2.2,2.4c1.7,0,1.9-0.4,0.9-1.7C287.3,88.7,285.9,88.3,285.2,89.2z"/>
	<path fill="#FFFFFF" d="M283.9,75.4c-0.9,0-1,0.3-0.6,2.8c0.4,3.3,1.1,4.2,2.9,4.2c1.5,0,1.5-0.3-0.3-4.7
		C285.2,76.1,284.6,75.4,283.9,75.4z"/>
	<path fill="#FFFFFF" d="M245.9,86.8c-2.4,1-2.8,1.3-2.5,2.3c0.6,2.1,1,1.9,3.7-0.8C250,85.4,250,85.3,245.9,86.8z"/>
	<path fill="#FFFFFF" d="M288.1,98.7c1.1,0.6,2.5-0.3,2.5-1.8c0-1.3-0.8-1.3-2.2,0.1C287.3,98.1,287.3,98.3,288.1,98.7z"/>
	<path fill="#FFFFFF" d="M303,66.6c0,1.9,0.3,2.9,1.1,3.6c1.2,1.1,1.4,2.2,0.4,2.6c-0.5,0.2-0.5,0.6,0.1,1.8l0.8,1.6l2.8-1.2
		l2.8-1.2l-0.6-2.3c-0.3-1.3-1.1-3-1.7-3.8c-1.1-1.5-4.2-3.6-5.2-3.6C303.2,64,303,65.2,303,66.6z"/>
	<path fill="#FFFFFF" d="M322.7,96.4c0.2-0.3,0.3-0.6,0.3-0.8c0-0.4,0.5-0.8,1.1-0.8c1,0,0.8-0.3-1.1-2.6c-3-3.4-4.2-4-6-3.1
		c-1.3,0.7-1.5,0.6-2.3-0.9c-0.5-1-1.4-1.6-2.1-1.6c-0.6-0.1-1.8-0.4-2.5-0.8c-1.8-1-2.4-1-3.5,0.2c-0.9,1-0.9,1.2,1.1,5
		c1.1,2.2,2.1,4.1,2.2,4.2c0.1,0.1,1.3-0.2,2.7-0.7s2.6-0.8,2.6-0.7c0,0,0.5,1.1,1.2,2.5l3.2-6.4L322.7,96.4z"/>
	<path fill="#FFFFFF" d="M210.7,130.2c0,1.1,3.4,1.1,5.1-0.1c0.8-0.5,1.3-0.6,1.3-0.3c0,0.4,1.1,0.6,2.7,0.6c2.7,0,2.7,0,4-2.7
		c0.8-1.5,1.8-2.9,2.3-3c2-0.6,3.3-1.5,3.5-2.2c0.2-0.9,10.5-5.6,12.4-5.6c1.5,0,3.2-1.5,3.2-2.8c0-0.4-0.4-2.3-0.9-4
		c-0.9-3.6-2.8-5.6-5.1-5.7c-1.9,0-4.6-3-5-5.6c-0.4-2-0.4-2-2.9-1.9c-1.4,0.1-3.5-0.3-4.5-0.8c-2.2-1-2.8-1-3.3-0.5
		c-0.2,0.2-0.4,0.8-0.4,1.2c0,0.5-0.4,1.3-0.9,1.7c-0.6,0.5-0.8,1.3-0.6,2.8c0.2,1.8,0.1,2.1-1.6,3.2c-1,0.7-2.2,2.1-2.6,3
		c-0.4,1-1.1,1.8-1.6,1.8c-1.1,0-7.8,6.4-7.8,7.4c0,0.4,1,2.5,2.2,4.6c2.2,3.8,2.2,3.8,1.3,5.9C211,128.5,210.7,129.7,210.7,130.2z"
		/>
	<path fill="#FFFFFF" d="M300.1,90.3c-0.7,0.7-1,0.8-1.7,0.2c-0.5-0.4-1.4-0.6-2.2-0.4l-1.3,0.3l1.1,3.1c0.5,1.7,1,3.1,1,3.3
		c0,0.2-0.9-0.9-1.9-2.3c-2.4-3.1-3.5-3.2-3.5-0.4c0,1.2,0.3,2.3,0.5,2.5c0.8,0.5,0.6,1.3-0.2,1.3c-1.1,0-3.6,2.1-3.6,3
		c0,0.6,0.6,0.8,3.4,0.4c1.8-0.2,3.6-0.5,3.9-0.8c1.6-1.6,1.8,0.6,0.2,2.8c-0.9,1.2-1,2.1-0.8,3.7l0.4,2.1l2.5-0.3
		c3.7-0.5,5-1.5,5-3.9c0-1.1,0.3-2.5,0.8-3c0.5-0.8,0.6-1.3,0.2-2.1c-0.3-0.5-0.4-2.2-0.2-3.5c0.3-2.1,0.1-2.8-1.2-4.8
		C301.1,89.6,301,89.5,300.1,90.3z"/>
	<path fill="#FFFFFF" d="M298.4,122.7c-1.1,0.3-1.5,0.1-2-1.1c-0.4-0.8-0.8-1.3-1-1.3c-0.2,0.1-1,0.2-1.9,0.3
		c-1.4,0.2-1.5,0.4-1.2,2.1c0.3,1.6,0.2,1.8-0.6,1.6c-0.5-0.2-1.2,0.1-1.6,0.5c-0.8,1,0.1,3.6,1.3,3.6c0.6,0,0.8,0.6,0.8,2.8
		c0,2.5-0.1,2.7-1.2,2.5c-0.8-0.1-1.4-0.8-1.8-1.8c-0.9-2.8-1.9-3.1-3.2-1c-0.9,1.3-0.9,1.5-0.1,2.9c0.4,0.6,0.7,1.7,0.8,2.5
		l4.1,2.3c1.5,1.1,3.3,0.9,5.1-0.8l7.6-15.4C302.8,121.7,302,121.8,298.4,122.7z"/>
	<path fill="#FFFFFF" d="M399.7,173.7c-0.3-0.5-1.1-1-2-1.2l1.5,2.9C400,175.1,400.1,174.6,399.7,173.7z"/>
	<path fill="#FFFFFF" d="M446.2,210.9c2.5,1,3.2,1.1,5.8,0.6c2.6-0.5,3.2-0.4,4.8,0.5l1.7,1.1v-2.8c0-2.1-0.2-2.8-1-3
		c-0.5-0.2-1.6-1.1-2.2-2l-1.2-1.7l1.2,0.4c0.7,0.2,1.6,0.5,1.9,0.6c0.5,0.2,0.5-0.1,0.1-1.3c-0.3-1-1.2-1.9-2.4-2.5
		c-1-0.5-1.9-1.2-1.9-1.7c0-0.5-0.9-1.1-2.2-1.5c-2-0.6-2.1-0.8-1.3-1.6c0.7-0.8,0.7-1,0.1-1.5c-0.4-0.3-1.2-0.5-1.8-0.3
		c-0.8,0.2-1.4-0.2-2.3-1.4c-1.1-1.6-1.4-1.7-3.6-1.4c-1.2,0.1-1.8,0.2-2.4-0.1c-2.9,10.8-6.7,22.4-6,29.9c2.3,0.1,3.7,0.4,4.7,0.9
		c1.9,1,4.7,1.1,9.8,0.4c2.5-0.3,4-0.3,5.9,0.3c2.2,0.7,2.6,0.6,3.5-0.1c0.9-0.8,0.9-0.9-0.2-2.9c-0.7-1.4-1.4-2.1-2.2-2.1
		c-0.6,0-1.9-0.6-2.8-1.3c-1.8-1.3-6.7-3-8.8-3c-0.8,0-2-0.9-3.4-2.6l-2.2-2.6l2.7,0.7C442.2,209.4,444.6,210.2,446.2,210.9z"/>
	<path fill="#FFFFFF" d="M431.9,182.3c-0.6-0.6-1.3-1.1-1.7-1.1c-0.3,0-0.3-0.2,0.2-0.5c0.6-0.4,0.7-0.8,0.2-1.8
		c-0.4-0.8-0.5-1.5-0.3-1.7c0.6-0.6,2.2-0.3,3.1,0.7c0.5,0.5,2,1.3,3.2,1.7c2,0.5,2.5,0.5,3.7-0.2l1.3-0.9l0,0.8
		c0.4-0.1,0.7-0.2,0.7-0.2c-0.1,1-0.3,2.1-0.5,3.2c0.3,0.7,1.1,1.3,2.8,2.4c2.2,1.6,3.2,2,3.7,1.6c0.3-0.3,1.5-0.5,2.7-0.3
		c2.3,0.3,2.6-0.2,1.3-2.2c-0.4-0.6-1.1-2.2-1.6-3.5c-0.8-2.1-0.8-2.3,0.2-2.3c1,0,2.8-3.1,2.8-4.9c0-0.8-0.4-1.1-1.3-1.1
		c-1.1,0-1.3-0.3-1.3-1.6c0-1.1,0.3-1.7,1.1-1.9c1.2-0.4,1.4-1.1,0.5-1.7c-0.3-0.2-0.5-1-0.3-1.8c0.3-1.3,0.2-1.5-1.7-1.8
		c-1.5-0.3-2.5-0.1-4.2,1c-1.3,0.8-2.4,1.3-2.6,1.3c-0.2,0-0.3-1-0.3-2.3V161l-1.4,2l-1.5,2l-1.4-1c-0.8-0.6-2-1.7-2.7-2.4
		c-1-1-1.6-1.3-2.6-1.1c-1.1,0.3-1.2,0.2-1.2-1.3c0-2.3-0.8-2.1-2.5,0.5c-1.2,1.8-1.7,2.2-3.2,2.2s-2.1-0.3-2.9-1.7
		c-1-1.7-1.1-1.7-5.5-1.8c-4.9-0.1-6.4-0.8-3.8-1.7c1.9-0.6,2.1-1.3,0.9-3.5c-0.8-1.4-0.8-1.5,0.4-1.5c0.7,0,1.8-0.4,2.4-0.9
		c1-0.7,1.1-1,0.6-1.7c-0.5-0.6-1.4-0.7-4.1-0.4l-3.5,0.3l0.7-1.5c0.3-0.9,1-2,1.4-2.5c0.6-0.8,0.6-1-0.5-1.6
		c-0.7-0.4-1.8-1-2.5-1.5c-1.1-0.8-1.2-0.7-1.1,0.5c0.2,1.2-0.1,1.3-2.2,1.5l-2.4,0.2l1.7-2.1c0.9-1.2,1.7-2.3,1.7-2.4
		s-1.2-0.5-2.8-0.9c-2.4-0.6-2.8-0.6-3.5,0.3c-0.7,0.9-0.9,0.9-1.3,0.2c-0.4-0.6-0.7-0.6-1.6,0.2c-1.1,1-1.1,1-1.1-0.9
		c0-1.6-0.2-2-1.1-2c-0.8,0-1.1,0.4-1.1,1.4c0,2.1-0.9,3.4-2.2,3.1c-1.3-0.3-1.3-1.5-0.3-3.6c1-1.9,0.3-3.5-1.6-3.9
		c-2-0.5-2.9,0.1-3.1,2c-0.2,2.5-1.3,2.5-2.6,0c-0.6-1.2-1.2-2.2-1.4-2.2c-0.2,0-1,0.6-1.9,1.3c-0.9,0.8-1.8,1.3-2.1,1.3
		c-0.9,0-0.5-1.8,0.6-3c0.9-1,1-1.4,0.5-2.4c-0.5-0.9-0.9-1.1-1.9-0.9c-0.9,0.2-1.3,0.1-1.3-0.4c0-1.1-2.1-1.9-5.9-2.2
		c-0.5,0-1-0.1-1.5-0.1l-6.5,32.3c0.3-0.1,0.7-0.1,1.3-0.2c1.2-0.2,2.4-0.1,2.8,0.2c0.4,0.3,1.1,0.2,2.1-0.4c1.5-1,1.5-1-1.1-3.9
		l-1.1-1.3l1.3,0.3c0.8,0.2,2.2,0.4,3.1,0.4c1.5,0,1.9,0.3,2.9,2.4c0.8,1.6,1.6,2.4,2.2,2.4c0.5,0,1,0.2,1,0.5
		c0,0.3,0.6,0.5,1.4,0.5c0.8,0,2.4,0.5,3.5,1.2c1.7,0.9,2.1,1.5,2.1,2.7c0,1.1-0.3,1.6-1.4,1.8c-1.1,0.3-1.3,0.6-1.2,1.8
		c0.1,1,0.5,1.5,1.3,1.6c1,0.2,1.4-0.3,2.1-1.9c0.8-1.8,1-2.1,2.3-1.8c0.8,0.1,2.1,0.8,2.8,1.5c0.9,0.9,1.6,1.1,2.2,0.8
		c0.2-0.1,0.4-0.1,0.5-0.1l0.2-0.3l0.5,0.9c0,0.1,0.1,0.1,0.1,0.2c0.3,0.6,1.7,1.8,3.1,2.5c1.6,0.8,3.7,2.8,5.5,5.1
		c2.8,3.4,3,3.8,2.2,4.6c-0.5,0.5-0.8,1.9-0.8,3.4c0,0.8-0.1,1.4-0.2,2C409.5,188.1,422.4,185,431.9,182.3z"/>
	<path fill="#FFFFFF" d="M400.4,344.5c-2.3,0.6-3.1,2.1-1.5,2.8c1.5,0.6,9.4,1.9,9.8,1.7c0.1-0.2-0.7-1.3-1.8-2.7
		C404.7,343.5,404,343.3,400.4,344.5z"/>
	<path fill="#FFFFFF" d="M409.2,309.5c1.8-1.7,1.9-1.8,1.2-3.9c-0.9-2.9-1.1-3-2.8-1.6c-1,0.9-3.2,5.3-3.2,6.6
		c0,0.1,0.6,0.2,1.4,0.4C407,311.1,407.8,310.8,409.2,309.5z"/>
	<path fill="#FFFFFF" d="M387.1,172.9l-2.1,0.8v3.4c0,0.3,0,0.7,0,1.1l5.6-6.1C389.6,172.1,388.1,172.5,387.1,172.9z"/>
	<path fill="#FFFFFF" d="M347.7,138.2l11.2-6.3c0,0-0.1-0.1-0.1-0.1c-0.6-0.5-0.9-1.1-0.6-2.1c0.4-1.6-0.8-4.3-2.4-5.2
		c-0.8-0.4-1-0.9-0.8-1.8c0.2-0.8-0.1-1.7-0.7-2.5c-0.9-1.1-1.2-1.2-2.5-0.7c-1.2,0.4-1.8,0.4-2.8-0.2c-0.6-0.4-1.2-0.5-1.4-0.3
		c-0.1,0.2-0.4,1-0.5,1.8c-0.2,0.9-1,1.7-2.2,2.3c-1.7,0.8-1.9,1.1-2.2,3.8c-0.2,1.6-0.4,4.1-0.4,5.6c0,2.4,0.2,2.8,1.3,3.3l1.3,0.6
		l-0.8,1.6C345.3,138.7,346.5,138.7,347.7,138.2z"/>
	<path fill="#FFFFFF" d="M340,125.4c0.8-0.3,1.2-1.2,2.1-4c0.4-1.1,0.3-1.2-3.3-1.2l-3.7,0.1l-0.3,0.4l4.6,9.2
		C339.3,127.1,339.5,125.6,340,125.4z"/>
	<path fill="#FFFFFF" d="M358.2,202.5c0.2-0.1,0.4,0.1,0.9,0.5c0.1,0.1,0.1,0.1,0.2,0.2c0.5,0.2,1.2,0.2,1.9,0.2
		c-0.2-0.3-0.5-0.9-0.8-1.4c-0.8-1.2-0.8-1.5-0.1-1.8c0.4-0.3,1-0.2,1.6,0.3c0.7,0.6,1.1,0.5,2.5-0.7c1-0.9,2-2.4,2.4-3.8
		c0.4-1.2,1-2.5,1.4-2.9c0.4-0.4,0.7-1.7,0.7-3.5c0-2.8-0.1-3-2.2-4.3c-1.5-1-2.2-1.8-2.2-2.6c0-0.7-0.7-1.8-1.6-2.6
		c-2-1.7-2.1-2.5-0.3-2.5c1.1,0,1.6-0.5,2.5-2.5c0.9-2,0.9-2.6,0.4-3c-0.4-0.2-0.9-0.4-1-0.4c-0.2,0-0.2-0.8-0.1-1.6
		c0.2-1.6,0.2-1.7-1.1-1.3c-0.2,0.1-0.4,0.1-0.5,0.1l-6.2,31C356.9,200.9,357.4,201.9,358.2,202.5z"/>
	<path fill="#FFFFFF" d="M412.1,430c0.7,0.2,2.4,0.6,3.8,0.8l2.5,0.4v-2.1c0-1.9-0.2-2.2-1.7-2.8c-2.1-0.7-1.8-0.7-2.5,0.1
		c-0.4,0.4-2.1,0.6-4.1,0.6c-3.2,0-3.5,0.1-3.7,1.2c-0.2,1.2-0.1,1.3,2.1,1.3C409.8,429.5,411.4,429.8,412.1,430z"/>
	<path fill="#FFFFFF" d="M281.8,199.9l-2.1-11.2c-0.5-0.3-1.1-0.8-1.9-1.7c-1.5-1.5-2.5-2.1-3.2-1.9c-1.3,0.3-3.6-0.5-3.6-1.5
		c0-0.4-0.5-1.2-1.1-1.7c-0.5-0.5-1.2-2-1.4-3.3c-0.5-3.2-2-5.2-3.6-4.6c-0.6,0.3-2.9,0.8-5,1.1c-2.4,0.4-4.2,1.1-5,1.8
		c-0.8,0.7-1,1-0.8,1.6l1.5,1.7c1,0.6,2.3,0.5,2.7-0.3c0.1-0.4,0.9-0.8,1.6-0.8c0.8-0.1,2.2-0.5,3.2-1c2-1,3.5-0.7,3.5,0.6
		c0,0.8-4.8,3.5-6.3,3.5c-0.6,0-1.5,0.3-2.3,0.8l16.8,19.1C278.1,203.7,280.7,202.9,281.8,199.9z"/>
	<polygon fill="#FFFFFF" points="364.5,162.3 364.3,161 364.1,162.1 	"/>
	<path fill="#FFFFFF" d="M493.8,394.7c-0.2,0.2-0.4,0.3-0.5,0.3c-0.4,0-2.8,2.9-5.3,6.3c-4.4,6-4.6,6.5-4.6,9.1
		c0,2.4-0.2,2.9-1.9,4.2c-2.5,2-3.1,1.4-0.9-0.9c1.5-1.5,1.7-2.2,1.7-4.5c0-3.2,1.1-5.1,9.3-15.2c0.9-1,1.6-2,2.2-2.8V248.6
		c-1.3-1-2.2-1-4.1-0.2c-0.8,0.3-1,0.1-1-1.5c0-1.6-0.4-2.1-2.6-3.8c-1.8-1.4-3.1-2-4.4-2c-1.5,0-2.4-0.6-6-4.2l-4.2-4.2l0.3,5.4
		c0.3,5.3,0.5,7.6,1.2,12.8c0.3,2.3,0.2,2.6-0.8,2.9c-0.9,0.2-1,0.6-0.8,1.5c0.2,0.9-0.3,2.2-1.6,4.3c-1.1,1.7-2.1,3-2.2,3
		c-0.2,0-2.1-0.8-4.3-1.8l-4-1.8l-1.9,1.2c-1,0.7-2,1.7-2.2,2.2c-0.5,1.1-1.6,1-2.4-0.3c-0.6-0.9-0.5-1.1,0.4-1.1
		c0.8,0,1.1-0.5,1.3-1.9c0.4-2.2-0.4-3.7-1.9-3.3c-0.6,0.2-1.1-0.3-1.5-1.8c-0.3-1.1-1.2-2.6-1.9-3.5c-1.1-1.1-1.2-1.7-0.8-2.2
		c0.4-0.5,0.3-1.3-0.5-2.9c-0.6-1.2-1.2-3.3-1.5-4.6c-0.2-1.9-0.5-2.4-1.3-2.4s-0.9,0.3-0.6,1.3c0.4,1.6-0.5,1.8-2.1,0.4
		c-0.9-0.8-1-0.8-1.9,0c-0.7,0.6-2,0.9-4,0.9h-0.1l-29.2,24.3c0.1,0.3,0,0.7-0.1,1c-0.2,0.8-0.4,2.9-0.5,4.8
		c-0.1,2.6-0.3,3.7-1.2,4.5c-1,1.1-1,1.1,0.1,3.4c0.9,2.1,1.3,2.4,3.1,2.6c1.2,0.2,3.4,1.2,5.5,2.8c2.8,1.9,4,3.3,6.4,7.1l2.9,4.7
		l-0.3,7.1l-0.3,7.2l-4.3,6.2c-3.7,5.4-4.6,6.4-6.8,7.5c-1.5,0.6-2.6,1.3-2.6,1.6c0,0.7,4.2,4.3,5,4.3c0.6,0,1,0.9,1.5,3.3
		c0.4,2.5,1.1,4,2.8,6.2c1.2,1.6,2.4,3.8,2.6,5.1c0.3,1.2,0.9,2.6,1.3,3.2c0.6,0.6,0.9,2,0.9,4.5c0,2.5,0.2,3.7,0.8,4.2
		c0.9,0.8,1.1,3.8,0.2,3.8c-0.3,0-0.7-0.5-0.9-1.1c-0.2-0.6-0.7-1.1-1.2-1.1c-0.5,0-1.2-0.3-1.5-0.6c-0.4-0.4-0.7,0.1-1,2
		c-0.5,3.7-0.5,3.8-2.2,4.2c-1.3,0.3-1.9,0-5-3.1c-1.9-1.9-4.3-3.7-5.1-3.9c-0.9-0.2-1.8-0.9-2.1-1.6c-0.3-0.7-2.2-2.6-4.3-4.3
		c-3.2-2.7-3.7-3.3-3.7-4.9c0-1-0.7-4-1.6-6.8c-1.9-6.3-2.4-9.2-1.6-10.9c0.4-1,0.4-1.7-0.2-2.8c-0.8-1.5-0.9-1.5-7-1.6
		c-4-0.1-6.6,0.1-7.5,0.5c-0.8,0.4-2.1,0.5-3,0.4c-1-0.2-1.9,0-2.1,0.3c-0.3,0.4-1.5-0.2-3.3-1.6c-2.2-1.6-3.3-2.2-4.2-1.9
		c-0.8,0.2-2.2-0.2-3.9-1c-1.4-0.8-3.5-1.3-4.4-1.3c-1.2,0-1.9-0.3-2.2-1c-1.1-3-7.9-7.7-11.1-7.7c-1.1,0-2.8-0.6-4.2-1.6
		c-1.3-0.9-3.4-1.7-4.7-1.9c-1.9-0.3-2.6-0.1-4.4,1.1c-1.5,0.9-2.9,1.4-4.4,1.4c-2.2,0-2.2-0.1-1.9-1.6c0.2-0.8-0.2-2.8-0.9-5.9
		l-1.1-0.1l3.1,66.6l-13.9,0.4l1.6-67l-66.6,8.4c4-7.3,10.3-11.3,5.6-25.1l-61.4-53.9l13.3-4.5v0.1c8.2-8.2-4.8-32.9-8.9-47.8
		c12.1,2.6,30.2,9.4,35.5,7.1c2.1-0.9,3.7-3,5.2-5.6c-1.2-0.3-2.4-0.7-3.9-1.4c-2.2-1-4.6-1.8-5.3-1.8c-1.5,0-1.7-1.3-0.5-3
		c0.5-0.8,1.2-1.1,2.1-0.9c3.2,0.6,4.5-2.1,2.8-5.9c-1-2.4-2.4-3.5-5-3.9c-2.8-0.4-7.9-3.9-8.2-5.5c-0.1-0.7-1.3-1.9-2.9-3
		c-2.1-1.3-3.1-2.6-4.5-5.3c-2.1-4.1-2.8-4.8-5.3-5.2c-1.5-0.2-1.9-0.1-1.9,0.4c0,0.4-0.6,1.1-1.2,1.6c-1.1,0.8-1.5,0.8-3,0.2
		c-2-0.8-2.2-1.6-0.6-2.4c0.7-0.4,1.1-1.1,1.1-2.2c0-1,0.4-1.8,1.1-2.3c1.1-0.7,1.5-2.3,0.6-2.8c-0.3-0.2-1.1,0.4-1.8,1.3
		c-0.8,0.9-1.7,1.6-2.2,1.6c-0.4,0-1.2,0.6-1.8,1.3c-0.6,0.8-1.5,1.3-1.9,1.3c-0.8,0-0.9-1-0.9-7.3c0-6.9-0.1-7.3-1.1-7.3
		c-0.9,0-1.1,0.4-1.1,1.9c0,1.1-0.2,1.8-0.5,1.6c-1-0.6-2.7,0.3-2.7,1.4c0,0.6-0.4,1-1.1,1c-0.6,0-1.1-0.3-1.1-0.8
		c0-1.1-5-1.7-7.1-0.9c-1.2,0.5-1.8,0.5-2.3,0.1c-0.3-0.3-1.5-0.6-2.5-0.6c-2.1,0-6.5,1.5-6.5,2.2c0,0.9-2.1,0.5-2.4-0.4
		c-0.6-1.5,0.8-2.3,5.2-3.2c3.4-0.7,4.4-0.8,5.4-0.2c1.9,1,8.7,0.1,8.9-1.2c0.2-0.7-0.2-0.9-1.5-0.9c-1,0-1.7-0.3-1.7-0.7
		c0-0.9-10.6-0.7-11.7,0.2c-0.4,0.4-1,0.4-1.7,0.1c-0.7-0.4-1.9-0.2-4.2,0.5c-4.2,1.3-7.8,1-7.8-0.8c0-0.6-0.9-2-2-3.2v251.7
		c27.1,9.6,52.8,15.8,84.6,20.8c11.9,1.9,28.5,3.3,45.3,4c7.6,0.3,16.3,0.7,19.2,0.9l5.5,0.3l0.4-2.2c0.5-3,2-2.8,2.6,0.3
		c0.9,4.4,1.5,5.1,3.7,5.1c1.1,0,2.2,0.3,2.4,0.6c0.8,1.2,2.9,1.5,5.1,0.8c2-0.7,2.3-0.7,4.2,0.4c1.1,0.6,2.3,1.5,2.7,2
		c0.5,0.7,0.9,0.7,1.8,0.2c0.9-0.6,1.2-0.5,2.4,1c1.6,1.9,4,2.2,6.2,0.7c1.7-1.2,7.9-1,9.2,0.2c1.7,1.5,4.3-0.3,4.3-3
		c0-1.1,1.5-1.8,2.8-1.3c1.2,0.4,2-0.4,2.2-2.1c0.2-2.1,1.5-2.5,1.5-0.5v1.5l1-1.5c0.5-0.9,0.9-2.1,0.7-2.8
		c-0.3-1.6-0.5-1.6,3.7-0.5c2.5,0.6,3.7,0.7,4.9,0.3c2.3-0.8,5.5,0.4,5.9,2.2c0.2,0.8,1.2,2.5,2.2,3.9l1.8,2.5l3-0.2
		c1.6-0.1,3.4-0.4,3.9-0.6c0.8-0.3,0.9-0.1,0.9,1.1c0,1,0.6,2.2,1.7,3.2c1.6,1.7,1.6,1.8,0.8,3.3c-0.8,1.6-0.8,1.6,0.8,2.2
		c1.2,0.4,1.6,0.9,1.7,2.4c0.2,1.6,0.4,1.8,2.1,1.9c1,0.1,2.5,0.7,3.4,1.3c1.5,1.1,1.8,1.1,9.1,0.5c5.4-0.5,7.8-0.5,8.2-0.1
		c1,1,5,0.7,6.4-0.4l1.3-1l3.2,3.1c1.8,1.7,3.5,3.2,3.8,3.3c0.3,0.1,1.3,1.2,2.4,2.5c1.7,2.2,1.7,2.4,0.9,3.3
		c-0.8,0.8-0.8,1.2-0.3,2.2c0.6,1,0.5,1.3-0.3,1.9c-0.8,0.6-1.2,0.5-2.5-0.4c-1-0.8-1.9-1-2.9-0.7c-1.1,0.3-1.5,0.1-1.7-0.8
		c-0.4-1.5-4.8-4.5-6.3-4.3c-1,0.2-0.9,0.4,1.2,2.6c2.5,2.8,2.8,4.3,1.4,7.1c-0.8,1.5-0.8,2.2-0.3,5.3c1,6,0.9,6.9-1.6,9.7
		c-2.3,2.8-3.3,5.7-2.2,6.4c1.2,0.8-0.2,3.4-2.3,4.5c-1.4,0.6-2,1.3-2,2.2c0,1.3,1.8,2.8,2.9,2.2c0.3-0.2,1.3-0.3,2.1-0.3
		c1.1,0.1,1.5-0.1,1.5-0.9c0-1,3.2-4.4,4.2-4.4c0.3,0,1.2-1.1,2-2.4c1.7-2.9,2.6-3.2,7.7-3.1c3.1,0.1,3.9-0.1,4.2-0.7
		c0.2-0.5-0.1-1.1-0.8-1.5c-1-0.5-0.6-0.8,3.3-2.7c2.4-1.1,5-2.1,5.7-2.1c1.6,0,1.6,0,0.2-2.4c-1.1-1.9-1.2-1.9-2.5-1
		c-0.9,0.6-1.9,0.8-3.2,0.5c-1-0.2-1.8-0.4-1.8-0.5c0-1.4,1.7-3.9,4-5.9c3.1-2.8,10.6-6.5,11.9-5.9c1.6,0.6,4.5-0.3,4.8-1.6
		c0.2-0.6,0-1.4-0.4-1.6c-0.3-0.2-0.5-0.5-0.4-0.6c0.2-0.1,2.2-1.6,4.4-3.3c2.9-2.2,4.8-4.1,6.4-6.6c1.2-1.9,2.6-3.7,3.1-3.9
		c0.5-0.3,6.5-2.5,13.3-4.9c2.5-0.9,4.9-1.8,7-2.6V394.7z"/>
	<path fill="#FFFFFF" d="M275.8,130.1l-1.3-2.2c-1.8-3-2.1-3.3-4-3.5c-2.4-0.2-2.4-0.3-2.9,6.2c-0.2,2.6-0.6,4.9-0.8,5
		c-0.3,0.2-0.2,1.2,0.3,2.4c0.7,2,0.7,2.2-0.3,2.8c-0.6,0.3-1.2,0.4-1.5,0.3c-0.2-0.2-0.5-2.5-0.6-5.1c-0.6-7.5-3.2-12.7-5.2-10.1
		c-0.7,1-0.7,1.1,0.1,1.7c0.5,0.4,1.1,0.8,1.5,0.9c1.1,0.4-0.3,1.5-1.8,1.5c-0.9,0-1.7,0.3-1.9,0.8c-0.2,0.4-1,0.8-1.7,0.8
		c-1.3,0-1.3,0-0.4-1.1c1-1.1,1-1.2-0.3-3.7c-0.6-1.5-1.8-2.9-2.5-3.2c-1.2-0.5-1.4-0.4-2.5,1.3c-0.9,1.4-1.6,1.9-2.6,1.9
		c-2.1,0-1.9-0.8,0.4-2.2c1.9-1.1,1.9-1.2,1.6-3.7c-0.2-1.3-0.5-2.6-0.7-2.8c-0.2-0.2-1.7,0.3-3.2,1c-2.3,1.1-3,1.3-3.3,0.7
		c-0.3-0.5-1.5-0.2-4.9,1.5c-3.7,1.9-4.4,2.4-4.4,3.6c0,0.8-0.2,1.3-0.5,1.3c-0.2,0-1.6,0.9-3,1.9c-2.6,2-3.2,3.5-1.5,3.5
		c1.4,0,2.4,1.2,1.6,2c-1.2,1.2,0.2,1.8,4.7,1.8c4.2,0,4.5,0.1,4.5,1.1c0,1-0.4,1.1-4.9,1.1c-4,0-6.1,0.4-7.3,1.3
		c-0.1,0.1,0.2,1.2,0.6,2.5c0.7,2.3,0.9,2.5,4.2,3.7c1.9,0.7,4.8,1.4,6.5,1.5c2.6,0.2,3.1,0.4,3.9,1.8c0.5,0.8,1.6,1.7,2.4,1.9
		c1.9,0.4,3.9,2.3,3.9,3.6c0,1.9-4.2,1.1-6.9-1.3c-1.5-1.4-6.5-2.6-11-2.6h-3.6l-0.3,1.8c-0.3,1.3,0,2.8,0.9,5
		c1.2,3,1.4,3.2,5.1,5.2c3,1.6,3.9,2.3,3.9,3.2c0,1.2,1.3,6.8,1.7,7.2c0.1,0.1,1.2,0.3,2.9,0.6c1-2.2,2-4.3,3.2-6.2l6.8,7.7l0.4,0.1
		l2.5-1.6c2.3-1.4,2.6-1.5,4.8-0.9c2.3,0.6,2.3,0.6,4.2-1.6c2-2.3,3.7-2.9,3.7-1.4c0,1.2,2.8,3.5,4.3,3.5c1.2,0,1.2,0.1,0.4,1
		c-1.3,1.5-1.1,1.7,1.2,1.7c1.2,0,2.8,0.4,3.5,0.9c0.7,0.5,1.1,0.6,1.8,0.6l-9.4-51L275.8,130.1z"/>
	<path fill="#BF0A30" d="M617.2,311.6l-1.9-1.3l-0.3,1.9c-0.6,3.9-2.1,3-2.1-1.4c0-2.8-0.1-3.2-1.1-3.2s-1.1,0.4-1.1,3.8
		c0,3.4-0.1,3.8-1.1,3.8c-0.8,0-1.1-0.4-1.1-1.3c0-0.8-0.3-1.3-0.6-1.3c-0.4,0-1-0.2-1.5-0.5c-0.6-0.4-0.5-0.8,0.4-2.4
		c0.8-1.3,1.1-2.5,1-3.9l-0.2-2.1l-1.6,2.3c-1.4,2.1-3,3.1-3,1.8c0-0.3-0.6-0.6-1.3-0.8c-1.6-0.4-2.3-2.5-1.5-4.7
		c0.9-2.3-0.9-2.4-5-0.3c-2.6,1.3-3.5,1.9-3.5,2.9c0,0.6-0.4,1.5-1,2c-0.9,0.8-1,0.8-1.6-0.2c-0.6-1-0.7-1-2,0.5
		c-1.2,1.5-1.5,1.5-3.2,1c-2.1-0.6-2.2-0.9-1.1-3c0.6-1.3,0.6-1.7,0.1-2.2c-0.5-0.4-1.2-0.2-2.4,0.6c-1.4,1-1.8,1.7-2.1,3.8
		c-0.3,2.4-1,3.6-1.7,2.9c-0.2-0.2-0.5-2.6-0.9-5.5c-0.5-3.5-1-5.5-1.7-6.3c-0.9-1-0.9-1.1-0.1-1.1c1.4,0,1.3-4.9-0.1-5.2
		c-0.8-0.2-0.9-0.6-0.8-2.1c0.3-2.1-0.3-2.3-2.5-1.1c-0.9,0.4-1.6,1.6-2.3,3.9c-0.9,2.9-1,3.9-0.4,9.9c0.3,3.7,0.9,8.4,1.3,10.5
		c0.4,2,0.8,4.5,0.8,5.5c0,1.3,0.4,2.1,1.2,2.6c1,0.6,1.1,1,0.5,1.5c-0.4,0.4-0.7,1.8-0.7,3.1c0,1.9-0.3,2.8-1.4,3.9l-1.4,1.5
		l1.2,0.6c0.9,0.5,1.3,0.5,2.1-0.2c1.9-1.6,2.2-1.6,1.9,0.5c-0.2,1.1-0.7,2.9-1.1,3.9c-0.8,1.8-0.8,1.8,0.6,3.1
		c0.8,0.7,1.8,1.3,2.1,1.3c0.7,0,8.5-5.2,10.4-7c0.6-0.6,2.2-1.2,3.5-1.4c2.4-0.3,2.5-0.5,4.5-4.1c1.1-2.1,2.3-3.7,2.5-3.7
		c0.8,0,1.7,1.3,1.7,2.6v1.3l1.3-1.2c0.8-0.7,1.2-1.5,1.1-1.9c-0.3-0.9,2.8-3.8,3.2-3.1c0.2,0.3,0.1,1.2-0.4,2.1
		c-0.4,0.9-1.1,2.6-1.6,3.9c-0.4,1.3-1,2.9-1.2,3.3c-0.3,0.7-0.1,1.1,0.9,1.5c1.1,0.4,1.6,0.2,3-1.1c1.5-1.4,1.7-2.1,2-5.2
		c0.5-5,0.5-6.6,0.1-8.6c-0.3-1.3-0.2-1.7,0.3-1.7c1.9,0.1,4.3,3.3,4.3,5.9c0,1.6,0.3,2.2,1.3,2.9c0.7,0.5,1.5,0.9,1.6,0.9
		c0.2,0,0.3-1.2,0.3-2.7c0-2.3,0.2-2.7,1.1-2.7c0.7,0,1.1,0.4,1.1,1c0,1,2.5,3.8,2.9,3.3c0.1-0.1,0.6-1,1.1-2c0.9-1.7,0.9-2.1,0-5.8
		C619.3,313.5,618.9,312.8,617.2,311.6z"/>
	<path fill="#BF0A30" d="M550.2,336.1c0-1.1-3.2-1.6-10.8-1.6c-4.8,0-5.4,0.2-8.6,1.8l-3.5,1.8l3,0.4c1.7,0.2,3.5,0.8,4,1.1
		c1.6,1.2,6.1,1,10.3-0.5C550.1,337.3,550.2,337.2,550.2,336.1z"/>
	<path fill="#BF0A30" d="M70.2,295.8c0.9,0.9,1.2,1,1.8,0.5c0.5-0.5,0.5-0.9,0-2c-0.4-0.8-0.6-3-0.6-4.9c0-3.1,0.1-3.6,1.1-3.8
		c0.9-0.3,1.1-0.6,0.8-2.1c-0.3-1.5-0.1-2,1.6-3.5c1.1-0.9,2.2-1.7,2.4-1.7c0.7,0,2.7-2,2.7-2.7c0-0.3-0.7-0.5-1.6-0.5
		c-0.9,0-1.6,0.3-1.6,0.6c0,0.3-0.3,0.4-0.6,0.2c-0.3-0.2-0.5-0.9-0.3-1.6c0.2-1,0-1.3-0.8-1.3c-0.6,0-1-0.5-1.1-1.5
		c-0.2-1.9-0.9-2-2.7-0.5c-1,0.8-1.5,1.7-1.5,2.6c0,0.8-0.3,1.6-0.5,1.8c-0.3,0.2-0.5,1.3-0.5,2.6c0.1,1.2-0.1,3.2-0.3,4.4
		c-0.2,1.2-0.1,4.4,0.2,7.2C69,293.6,69.3,295,70.2,295.8z"/>
	<path fill="#BF0A30" d="M563.6,363.5c-0.1-0.1-0.8,0-1.6,0.3c-0.9,0.2-2.4,1.1-3.5,2c-1.1,0.9-2.9,1.8-3.9,2s-2.5,0.8-3.3,1.1
		c-1.8,0.9-3.1,0.5-3.7-1.2c-0.2-0.7-0.8-1.3-1.2-1.3c-1,0-1.7,4.9-0.8,5.5c1,0.6,6.1,1.3,9.3,1.2c6.7-0.1,9.5-1.3,7.6-3.5
		c-0.8-0.8-0.7-1.1,0.3-3.5C563.3,364.8,563.7,363.5,563.6,363.5z"/>
	<path fill="#BF0A30" d="M84.1,340.8c0.5,0.4,1.2,0.7,1.6,0.7c0.4,0,0.8,1.4,1,3.8c0.3,3.3,0.5,3.8,1.3,3.5c1.1-0.3,1.9,0.5,1.9,2.2
		c0,1.1,7.2,11.3,7.6,10.9c0.4-0.4,2.3-8,2.3-9.2c0-0.6-1-2.3-2.2-3.9c-1.8-2.3-2.2-3.3-2.2-5.2c0-1.3-0.3-3.8-0.6-5.6
		c-0.5-2.8-1.1-3.8-4.7-8.1c-2.3-2.7-4.5-5.7-5-6.6c-1-1.8-2.6-3-5-3.6c-1.4-0.3-1.5-0.3-1.2,0.9c0.2,0.7,0.3,1.6,0.3,1.9
		s0.6,1.3,1.4,2c1.3,1.2,1.3,1.3,0.4,1.3c-0.6,0-1.3,0.6-1.7,1.5c-0.6,1.3-0.5,1.6,1,2.9c0.9,0.8,1.7,1.9,1.7,2.4
		c0,0.5,0.8,1.8,1.7,2.7l1.7,1.8l-1.2,1.5C83.2,340.1,83.2,340.2,84.1,340.8z"/>
	<path fill="#BF0A30" d="M499.9,412.6c0.3-0.3,0.6-1.2,0.6-2.1c0-1,0.3-1.6,0.8-1.6c0.5,0,1-0.4,1.1-0.8c0.2-0.5,0.7-0.7,1.3-0.5
		c1.4,0.5,2.5-1.8,1.6-3.5c-0.5-0.9-0.5-1.4,0.2-2.3c1-1.5,1-3.3,0.2-4.9c-1.5-2.8-0.7-18.2,1-18.2c0.4,0,1,0.5,1.3,1.1
		c0.8,1.5,1.3,1.3,4.3-0.5c2.4-1.6,2.6-1.6,4.6-0.9c2.1,0.7,2.2,1,5.1,7.8l3,7.1l1.8-0.3c1.2-0.2,1.7-0.1,1.7,0.3
		c0,0.4,0.6,1.5,1.4,2.5c1.1,1.5,1.7,1.8,3.3,1.8c2.4,0,5.9-2.2,6.3-4.1c0.2-0.8,0.8-1.3,1.3-1.3c0.6,0,1.5-0.9,2.3-2.8
		c0.7-1.5,1.8-3.1,2.5-3.6c0.7-0.5,1.5-1.8,1.8-2.9c0.8-3,2.3-2.9,1.8,0.1c-0.2,1.2-0.2,2.2,0,2.2c0.2,0,2.3-1,4.6-2.2
		c4.7-2.4,4.9-2.4,4.9-1.6c0,0.3-0.8,0.9-1.6,1.3c-0.9,0.5-2.2,1.6-2.7,2.6c-1,1.6-1.1,1.6-1.1,0.5c0-2.4-1.8-0.3-5.8,6.6
		c-3.2,5.5-3.8,7-3.3,7.6c0.4,0.4,0.5,1.1,0.3,1.6c-0.2,0.5,0.4,1.8,1.3,3.2c1.3,2,1.8,2.3,2.9,2.1c0.8-0.2,1.8,0.1,2.6,0.6
		c1.4,0.9,1.5,0.9,2.2-0.1c0.4-0.5,0.8-1.3,0.8-1.8c0-0.4,0.3-1,0.8-1.3c0.4-0.3,1.3-2.5,2.1-4.8c1.1-3.4,1.3-4.5,0.8-5.5
		c-0.8-1.7,0.3-3.1,1.8-2.6c1.3,0.4,2.6-0.6,2.6-2.2c0-0.8,0.8-1.7,2.6-2.9c2.1-1.5,11.2-12.3,11.9-14.2c0.1-0.3-0.5-0.4-1.5-0.2
		c-1.2,0.3-1.7,0.2-1.7-0.4c0-1.2-2.5-2.1-3.7-1.3c-0.8,0.5-1.2,0.5-1.8,0c-0.6-0.5-1.1-0.2-2.5,1.5c-1.5,1.8-2,2.2-3.8,2.2
		c-1.2,0-2.3,0.3-2.5,0.8c-0.5,0.8-6.1,1.7-6.1,1c0-0.2,0.3-0.7,0.6-1.1c0.9-0.9-4.2-0.9-6.4-0.1c-1.2,0.5-1.7,0.4-2.9-0.8
		c-0.8-0.8-2.1-1.3-2.9-1.3c-1.2,0-1.5-0.2-1.5-1.6c0-1.6-0.1-1.7-1.9-1.3c-1.8,0.3-1.9,0.3-1.3-0.8c0.3-0.6,0.6-1.9,0.6-2.8
		c0-1.8-1.3-4.9-2.2-4.9c-0.3,0-1.3,0.9-2.4,2c-1.8,1.9-1.9,1.9-2.9,1c-0.8-0.8-1.6-0.9-3.7-0.6l-2.6,0.3l1.9-1.6
		c1.2-1.1,2.5-1.7,3.6-1.7c0.9,0,2.1-0.4,2.5-1c1.5-1.7,3.7-7.2,3.7-9.3c0-1.9-0.2-2.2-2-2.9c-1.5-0.6-2.9-0.8-5.3-0.5l-3.2,0.4
		l-7.3,6.6c-10.3,9.4-12.3,12.7-16.2,27c-1.3,5-2.1,6.6-4.6,10.1c-1.2,1.8-2.4,3.2-3.1,3.9l0,20.4
		C497.3,413.8,499.7,412.8,499.9,412.6z"/>
	<path fill="#BF0A30" d="M559,349.6c-0.6,0-1.2,0.6-1.6,1.7c-1,3,0.2,5.2,2.3,4.4c0.6-0.3,0.7-0.5,0.2-1.1c-0.4-0.5-0.5-1.6-0.3-2.9
		C559.9,350,559.9,349.6,559,349.6z"/>
	<path fill="#BF0A30" d="M153.9,124.2c-2.2-2.2-3.1-4.6-3.3-8.3c-0.1-1.2-1.9-4.8-3.9-7.7c-0.6-0.9-4.6,3.5-35.3,38.1
		c-29.6,33.4-34.5,39.2-34,40.1c0.3,0.5,1,1.1,1.5,1.2c0.7,0.2,0.9,0.6,0.7,1.8c-0.2,1.5-0.2,1.6,1.2,1c1.1-0.4,1.8-0.3,2.8,0.3
		c1.6,1.1,1.6,1.2,0.3,2.6c-1,1.1-1,1.6-0.5,7.5c0.5,5.5,0.4,6.5-0.3,7.6c-1.2,1.7-1.1,2.1,0.7,2.1c0.9,0,2.3,0.3,3,0.5
		c1.1,0.4,1.8,0.3,3.1-0.4c1-0.5,1.9-1.3,2.3-1.7c0.4-0.5,1-0.5,2.8,0.2c2.6,1,3.1,2.1,2.3,4.2c-0.8,2.2-0.6,6.3,0.3,10.7
		c0.7,2.9,0.8,4.3,0.3,5.5c-0.3,0.9-0.7,4.5-0.9,8c-0.3,4.9-0.6,6.5-1.2,6.7c-0.4,0.2-0.6,0.6-0.5,1.1c0.2,0.4,0.2,1.1-0.1,1.4
		c-0.7,1.2-0.6,4.6,0.2,5.3c0.4,0.3,0.8,0.9,0.8,1.2s0.8,1.7,1.6,3c0.9,1.3,1.6,2.8,1.6,3.3c0,0.5,0.4,1.2,0.8,1.6
		c1.1,0.9,1,1.3-0.8,3.3c-0.8,1-1.8,2.6-2.2,3.7c-0.3,1.1-1.2,2.3-2,2.6c-0.9,0.5-1.3,1.1-1.1,1.7c0.2,0.7-0.1,1-0.8,1
		c-0.5,0-1,0.4-1,0.8c0,0.5-0.5,0.8-1.2,0.8c-2.1,0-3.1,1.7-3.3,5.4c-0.2,3,0.4,8.5,1.1,9.1c0.2,0.2,0.7-0.1,1.2-0.6
		c1.2-1.1,4.4-1.2,4.4-0.3c-0.1,1.1-2,3.1-3,3.1c-0.8,0-0.9,0.3-0.5,2.3c0.2,1.3,0.4,2.6,0.3,3c-0.1,0.4-0.1,1.5-0.1,2.4
		c-0.1,1-0.5,2.3-1.1,2.9c-0.9,0.9-0.9,1.3-0.4,2.8c0.6,1.6,0.8,1.7,3.3,1.7c2.2,0,2.6,0.2,2.3,0.9c-0.2,0.5-0.3,1-0.3,1.2
		c0,0.3-1.6,0.9-3.5,1.4c-3.8,1-5.1,2.5-3.2,3.8c0.8,0.6,0.8,0.7-0.2,1.2c-2,1.1-2.4,2.5-1.4,5.5c0.6,1.8,1.2,2.6,1.8,2.6
		c0.5,0,1.7,0.8,2.7,1.8c1.6,1.7,1.7,1.9,1,3.3c-0.6,1.3-0.5,1.6,1.1,3c1,0.9,2.2,1.6,2.8,1.6c0.6,0,1.2,0.4,1.5,0.9
		c0.2,0.5,0.7,1.4,1.1,1.9c0.7,0.8,0.7,1.1,0.2,2.2c-0.5,1-0.5,1.7,0,3.5c0.6,2,0.9,2.3,2.2,2.3c1.7,0,1.9,0.8,0.7,2.2
		c-0.8,0.8-0.7,1.1,0.3,2.3c0.7,0.9,1.5,1.3,1.9,1.1c0.6-0.2,0.8,0.1,0.6,1.6c-0.1,1,0.2,2.3,0.6,2.8c0.6,0.8,0.5,0.9-0.8,0.9
		c-0.9,0-1.3,0.2-1,0.5c0.9,0.8,13.4,6.2,30.2,12.8c7,2.8,13.7,5.3,20.4,7.7V124.4C154.1,124.3,154,124.3,153.9,124.2z"/>
	<path fill="#BF0A30" d="M571.9,352.8l-2.2-0.9l-0.3,2c-0.2,1.1-0.4,4.3-0.6,7.2l-0.4,5.2l2.1,1.4c3.1,2.1,4.4,1.8,7.1-1.3
		c1.3-1.5,2.7-3.6,3.1-4.6c0.7-1.7,0.7-2.1,0-3.2c-0.8-1.1-1-1.2-2.9-0.8c-1.1,0.3-2.6,0.5-3.3,0.5c-1.2,0-1.2-0.2-0.9-2.3
		C574.1,353.7,574.1,353.7,571.9,352.8z"/>
	<path fill="#BF0A30" d="M497.3,385.3c0-1,0.3-2.3,0.8-2.9c0.4-0.6,1.4-4.4,2.2-8.2c0.8-3.9,2.4-9.6,3.6-12.6
		c2.1-5.3,2.3-5.6,4.5-6.6l2.3-1l0.4-5.2l0.4-5.3l2.3-2.2c2.4-2.4,15.9-9.9,17.7-9.9c0.6,0,3.1-1.2,5.7-2.7c2.5-1.5,5-2.6,5.7-2.5
		c0.6,0.1,3.1-1.5,6.4-3.9l5.3-4l1.1-4.3c0.8-2.9,1-5.1,0.8-6.6c-0.5-3.1,0-4.6,1.8-5.7c1-0.6,1.7-1.6,1.9-2.5c0.3-1.1,1-2,2.5-2.9
		c1.7-1,2.5-1.9,3.8-5c1.8-4.2,2.2-8.1,0.8-8.6c-0.6-0.2-0.8-0.8-0.6-1.7c0.3-1.2,0.2-1.3-1.7-1c-1.8,0.3-2.1,0.2-3.3-1.9
		c-3.3-5.5-10.8-7.5-10.8-2.9c0,0.8-0.3,1.2-0.8,1.2c-0.4,0-0.8-0.5-0.8-1.1c0-0.7-0.7-1.4-2.1-2.1c-2-1-2.1-1-4.2,0.1
		c-2.8,1.4-2.7,1.3-1.9,2.3c0.6,0.7,0.5,1.1-0.6,2.3c-0.8,0.8-1.5,2.2-1.7,3.2c-0.2,1-1.2,3.1-2.4,4.8l-2.1,3.1l-0.2-2.8
		c-0.2-2.5,0.1-3.1,2-5.7c1.3-1.7,2.1-3.3,1.9-3.8c-0.2-0.5,0.7-2,2.4-4c2.1-2.4,2.6-3.4,2.4-4.4c-0.2-0.9-0.6-1.1-1.4-0.9
		c-0.6,0.2-1.7-0.1-2.5-0.5c-1.4-0.8-1.5-0.7-2.5,1.1c-1,1.8-1.1,1.9-2.9,1.5c-1-0.2-2.5-0.4-3.2-0.3c-4.9,0.3-6,0.5-6.9,1.3
		c-1.4,1.3-1.6,1.2-1.9-1.1c-0.5-3.2-0.7-3.3-4.6-2.5c-2.5,0.5-3.7,0.6-4.2,0.1c-0.4-0.3-2.1-0.5-3.7-0.4c-1.6,0.1-2.9,0-2.9-0.2
		c0-0.2,0.4-0.9,0.9-1.6c0.8-1.2,0.8-1.7,0.1-4.7c-0.7-3.3-0.8-3.4-2.3-3.3c-0.9,0.1-2.4-0.1-3.4-0.4c-1.4-0.4-1.7-0.8-1.5-1.5
		c0.4-1.3-1.2-3.9-2.3-3.6c-0.4,0.2-1.6-0.5-2.8-1.6c-0.3-0.3-0.6-0.6-0.9-0.8l0,142.5C496.6,387.7,497.3,386.4,497.3,385.3z"/>
	<path fill="#BF0A30" d="M318.4,135c0.9,0.3,1.5-0.2,2.9-2.1c1-1.3,1.7-2.9,1.7-3.5c0-0.6,0.6-2.4,1.3-3.8c0.8-1.5,1.3-3.1,1.3-3.8
		c0-1-0.3-1.1-2.8-1.1c-2.1,0-3.5-0.4-5.2-1.3c-1.2-0.8-2.4-1.3-2.4-1.3c0,0.1-0.8,0.3-1.7,0.7c-2.4,0.9-3.6,2-3.3,3.1
		c0.2,0.7,0,1-0.8,1c-1,0-1,0.4-1,6c0.1,4.3,0.3,6.5,0.8,7.5c0.4,0.8,0.8,2.3,0.8,3.4c0,1.7,0.2,2.1,1.5,2.6
		c1.1,0.4,1.6,0.3,2.2-0.2c1-1,1.9-5,1.5-6.7C314.7,134,315,134,318.4,135z"/>
	<path fill="#BF0A30" d="M290.8,138.5l-4.1-2.3c0,0.2,0.1,0.4,0.1,0.6c0,1.4,0.3,1.7,1.9,2.3c2.3,0.8,5.6,5.5,5.6,8
		c0,1.2,0.4,1.8,1.5,2.4c1.9,1,3.3,0.3,3.3-1.8c0-1.2,0.2-1.5,1.1-1.2c0.6,0.2,1.9-0.3,3.2-1.1c2.4-1.6,2.5-2.3,1.8-7.6
		c-0.3-2.2-0.5-2.5-1.5-2.2c-0.9,0.3-1,0.2-0.7-1.2c0.4-1.6,1.2-2.4,2.4-2.4c0.3,0,0.6-0.5,0.6-1.1c0-1-0.2-1.1-1.4-0.8
		c-5,1.3-5.3,1.1-3.2-1.6c0.8-1,1.3-2.2,1.3-2.6c0-0.5,0.4-0.9,0.8-0.9c1,0,1-1,0-2.4c-0.1-0.1-0.2-0.2-0.3-0.3l-7.6,15.4
		C294.1,139.5,292.3,139.7,290.8,138.5z"/>
	<path fill="#BF0A30" d="M400.9,224.8c-0.9-1-1.5-1.1-3-0.5c-1.1,0.4-0.8,0.9,1.7,2.2C401.2,227.4,402.2,226.2,400.9,224.8z"/>
	<path fill="#BF0A30" d="M374.2,237.7c-1.3,0.4-3,0.6-3.6,0.4c-1-0.2-1.2,0.1-1.6,1.7c-0.2,1.1-0.7,2.6-1.1,3.4
		c-0.6,1.1-0.6,1.7,0.1,3.2c0.7,1.7,0.9,1.8,1.7,1c0.5-0.5,1.7-1,2.6-1.2c1.3-0.3,2.2-1,3.4-3c1.5-2.3,1.7-2.9,1.3-4.4l-0.5-1.8
		L374.2,237.7z"/>
	<path fill="#BF0A30" d="M299.8,166.6c-0.2,0-1,0.7-1.8,1.5c-1,1.1-1.5,2.1-1.5,3.5c0,2-0.6,2.6-2.8,2.6c-1.4,0-1.1,2.3,0.3,2.6
		c0.6,0.1,1.5,0.6,2,1.2c0.5,0.5,2.9,1.9,5.2,3l4.2,2l2.2-2.3l2.2-2.4l-1.5-0.2c-1.2-0.2-1.5-0.4-1.5-1.7c0-1-0.6-2.1-1.9-3.3
		c-1-1-1.9-2.1-1.9-2.5C303,169.9,300.4,166.6,299.8,166.6z"/>
	<path fill="#BF0A30" d="M397.1,229.7c1-1.7-2.3-3.3-4.2-1.9c-0.9,0.7-0.9,0.8,0.4,2C394.8,231.1,396.2,231.1,397.1,229.7z"/>
	<path fill="#BF0A30" d="M329.4,111.7c0,0.5,0.3,1,0.5,1.2c0.1,0.1,0.4,0.1,1,0.1l-7.4-14.7c-2.1-0.4-2.3-0.6-1.6-1.2
		c0.3-0.2,0.5-0.4,0.6-0.7l-3.1-6.3l-3.2,6.4c0.3,0.5,0.5,1.1,0.8,1.7c2,4,2.1,4.2,1.2,5.8c-0.8,1.6-0.8,1.7,0.3,3.2
		c0.6,0.9,1.1,2.3,1.1,3.1c0,1.2,0.4,1.8,1.3,2.2c1.7,0.8,6.2,0.3,7.5-0.9C329.3,110.9,329.4,111,329.4,111.7z"/>
	<path fill="#BF0A30" d="M240.7,172.9c1.1,0.2,2.4,0.4,3.8,0.6l6.2,1l-6.8-7.7C242.7,168.6,241.7,170.7,240.7,172.9z"/>
	<path fill="#BF0A30" d="M313.2,112.8l1.9-0.5l0.2-3.4c0.2-3.2,0.1-3.6-1.6-5.2c-0.2-0.2-0.4-0.4-0.6-0.6l-4.2,8.5
		C311,113.1,311.5,113.2,313.2,112.8z"/>
	<path fill="#BF0A30" d="M279.6,168c0.6,0.2,1.4-0.2,2-0.8c1-1.1,2.5-1.5,2.5-0.8c0,0.3,0.3,0.8,0.5,1.2c0.4,0.7,0.6,0.6,1.3-0.3
		c0.6-0.8,1-0.9,1.1-0.4c0.6,1.5,1.3,0.6,1.3-1.6c0-2.1-0.2-2.4-1.8-3c-1.2-0.4-2.2-1.4-3.1-3.1c-1-1.8-1.6-2.3-2.3-2.1
		c-0.7,0.2-1.3-0.5-2.6-3.1c-1.7-3.3-1.7-3.5-1.9-13.1l-0.2-9.8l-0.7-1.2l-7.7-4.3l9.4,51c0.5,0,1.2-0.2,2.3-0.5
		c2.6-0.7,2.9-0.9,3.3-2.9c0.4-1.7,0.3-2.2-0.5-2.8c-1.2-0.9-1.8-0.9-1.8,0.1c0,0.4-0.4,0.9-0.8,1.1c-0.6,0.2-0.8-0.1-0.8-1
		c0-0.8-0.2-1.7-0.3-2.1C278.7,168,278.9,167.9,279.6,168z"/>
	<path fill="#BF0A30" d="M359.3,203.2c0.9,0.7,2,1,2,0.4c0,0,0-0.1-0.1-0.3C360.4,203.4,359.8,203.3,359.3,203.2z"/>
	<path fill="#BF0A30" d="M394.7,167.6c0.3,0,0.5,0.2,0.7,0.6l-0.5-0.9L394.7,167.6z"/>
	<path fill="#BF0A30" d="M366.3,129.4c-0.1,0.8-0.3,1.9-0.4,2.5l-0.3,1.2l-1.1-1.1c-0.6-0.6-1.6-1-2.3-0.9c-1,0.1-1.3,0.6-1.7,3
		c-0.3,1.8-0.8,2.9-1.2,2.9c-0.9,0-1-1.8-0.2-3.3c0.5-0.9,0.4-1.3-0.2-1.8l-11.2,6.3c-1.2,0.6-2.5,0.5-3.5-0.2l-0.3,0.5
		c-0.7,1.4-1,2.7-0.8,3.6c0.3,1.1,0.6,1.3,2.4,1.3h2.1l0.2,3c0.2,2.8,0.1,3-1.1,3c-1.1,0-1.2-0.2-0.9-1.3c0.3-1.1-0.2-1.8-2.5-4
		c-2.8-2.6-2.8-2.8-3.3-6.6c-0.4-3.1-0.6-5.6-0.7-7.6l-4.6-9.2l-2.1,2.8c-1.3,1.8-2.8,3.7-3.1,4.2c-0.5,0.6-0.5,1.4-0.2,2.8
		c0.4,1.5,0.3,2.3-0.8,4.6c-0.8,1.8-1.1,3-0.8,3.5c0.3,0.4,0.5,3.1,0.5,5.9c0,5.9-0.1,5.8,5.2,5.6c2.4-0.1,2.9,0.1,3.6,1.1
		c0.8,1.1,0.8,1.2-0.3,1.6c-0.6,0.2-1.6,0-2.3-0.5c-1-0.6-1.5-0.7-2.2-0.2c-0.8,0.6-0.8,0.9,0.1,3.1c0.5,1.3,1.3,2.6,1.8,2.9
		c0.4,0.3,1.3,1.1,2,1.8c1.6,1.7,4.6,1.6,5.1-0.3c0.3-1.2,0.3-1.2,2.4,1c2.4,2.4,2.7,2.5,4.6,1.1c1.2-1,1.3-1,1.9-0.2
		c0.6,0.8,1,0.8,3.2,0.2c2.1-0.5,2.9-0.5,4.4,0c1.7,0.6,1.9,0.6,2.6-0.3c0.6-0.9,0.8-0.9,2.4-0.2l1.2,0.6l0.2-1l-0.1-0.3
		c-0.2-1-0.2-1.4,0.4-1.6l6.5-32.3C368,126.8,366.4,127.6,366.3,129.4z"/>
	<path fill="#BF0A30" d="M441.5,179.3l0,1.2c0,0.8,0,1.3,0.2,1.7c0.2-1.1,0.4-2.2,0.5-3.2C442.2,179,442,179.1,441.5,179.3z"/>
	<path fill="#BF0A30" d="M231.7,186.3c-5.3,2.3-23.4-4.5-35.5-7.1c4.1,14.9,17.1,39.7,8.9,47.8v-0.1l-13.3,4.5l61.4,53.9
		c4.7,13.8-1.6,17.8-5.6,25.1l66.6-8.4l-1.6,67l13.9-0.4l-3.1-66.6l1.1,0.1c-0.2-1-0.5-2-0.8-3.2c-1.2-4.1-2.2-7.6-2.2-7.7
		s-0.5-0.1-1,0.1c-0.6,0.2-1.6-0.1-2.2-0.5c-0.8-0.6-1.4-0.6-2.5-0.2c-2.2,0.8-3,0.6-3-0.6c0-0.6-0.3-1.6-0.8-2
		c-0.6-0.7-0.6-2-0.2-7.1c0.3-3.4,0.5-7.1,0.6-8.1c0.1-1,0.8-2.9,1.5-4c2.3-3.6,3.2-5.5,3.2-7.2c0-0.9,0.5-2,1.3-2.8
		c0.9-0.9,1.2-1.5,0.8-1.9s0.3-1.6,2.2-3.6c1.5-1.7,2.7-3.3,2.7-3.6c0-0.3,0.3-0.6,0.7-0.6s1-0.3,1.3-0.6c0.5-0.5,0.3-0.8-1-1.3
		c-2.5-1.1-1.9-1.8,1.2-1.8c3,0,4.3-0.8,5.7-3.6c0.5-1,0.3-1.4-1.8-3.1c-1.8-1.6-2.8-1.9-4.6-1.9c-1.5,0-2.9-0.4-4.3-1.3
		c-1.1-0.8-2.6-1.3-3.5-1.3c-1.6,0-1.8-0.9-0.3-1.8c0.6-0.4,1.5-0.1,3.2,1c1.3,0.8,3.5,1.7,4.8,1.9s3.2,0.6,4.1,1.1
		c1.5,0.6,1.9,0.5,3.3-0.5c1-0.7,1.8-1.8,1.9-2.8c0.3-1.5,0.5-1.6,2.8-1.6c2.1,0,2.8-0.3,4.6-1.9c1.2-1.1,2.2-2.4,2.2-3
		c0-0.5,0.5-1.7,1.1-2.5c0.6-0.9,1.1-2.5,1.2-4.2l0.2-2.7l-4-0.4c-3.3-0.4-4.4-0.8-6.4-2.3c-1.8-1.3-3-1.8-4.5-1.8
		c-1.7,0-2.1-0.2-2.1-1.1s0.4-1.1,2.4-1.1c2.9,0,6.2,1.5,7.5,3.5c0.8,1.2,1.3,1.4,3.6,1.4c2.5,0,3-0.2,4.6-2c1.5-1.6,4-7.6,3.3-7.9
		c-0.1-0.1-1.1-0.5-2.2-1c-3-1.3-2.5-2,1.2-2c2.9,0,3.2,0.1,3.2,1.1c0,1.6,3.6,1.6,4-0.1c0.1-0.4,0.2-0.7,0.4-0.8
		c-0.7-0.6-1.3-1.6-1.6-2.9l6.2-31c-0.8,0.1-1.7-0.2-2.5-0.7c-1.3-0.8-1.6-1.2-1.3-2.3c0.3-1.2,0.2-1.3-1.5-1
		c-1,0.2-2.7,0.1-3.8-0.2c-1.5-0.4-2.8-0.4-4.3,0c-2.1,0.6-2.2,0.7-1.9,2.3c0.2,0.9,0.3,2.1,0.3,2.7c0,0.5,0.7,1.7,1.6,2.5
		c1.1,1,1.5,1.7,1.1,2.3c-0.3,0.4-0.3,1.1,0.1,1.7c0.4,0.8,0.3,1-0.6,1c-1,0-1.1,0.3-1.1,3.9c0,2.6-0.3,4.3-0.8,5
		c-0.4,0.5-0.9,2.2-1.1,3.6c-0.2,1.5-0.7,2.8-1.1,2.9c-0.4,0.2-1,0.9-1.3,1.6c-0.6,1.7-1.5,1.6-1.9-0.2c-0.2-0.8-1.2-2.5-2.2-3.9
		c-2.1-2.9-2.6-4.7-1.9-6.5c0.4-1,0.5-1.1,0.5-0.4c0.1,1.1,0.9,1.3,1.3,0.3c0.6-1.6-1-4.9-3.2-6.7c-1.3-1.1-2.3-2.4-2.3-2.9
		c0-1.3-0.4-1.3-1.6,0.2c-0.7,0.9-1.1,2.6-1.3,5.7c-0.3,3.2-0.6,4.5-1.1,4.5c-0.4,0-0.9-1-1.1-2.6c-0.2-1.5-1-3.6-1.9-5
		c-1.4-2.1-1.5-2.4-0.7-3.8c1-2,1-2.1-0.5-2.1c-0.7,0-1.5-0.3-1.9-0.6c-0.4-0.4-0.8-0.4-1.5,0.1c-0.7,0.6-1.1,0.5-2.2-0.6l-1.3-1.2
		l1.2-1c1-0.7,1.1-1,0.6-1.6c-1.1-1.1-0.8-1.9,0.4-1.9c1.5,0.1,1.9-1.1,0.6-1.5c-1.4-0.5-4.4-6.5-4.4-8.9c0-2.4-3.5-8.3-4.6-7.8
		c-0.4,0.2-1.1-0.1-1.5-0.6c-0.7-1-1.9-0.7-1.9,0.4c0,0.4-0.5,1-1.1,1.3c-0.9,0.6-1,0.9-0.5,1.5c0.9,1.1,0.3,2.3-1.2,2.5
		c-1.1,0.2-1.3,0.6-1.6,3c-0.2,1.6-0.5,3-0.7,3.2c-0.2,0.2,0.2,0.7,0.8,1.1l1.1,0.8l-1.2,1.3c-1.8,1.9-1.1,4.8,1.9,7.6
		c1.3,1.3,2.9,2.3,3.5,2.3c0.5,0,1.3,0.6,1.6,1.2c0.5,1,0.9,1.2,2.3,1c1-0.1,1.7,0,1.7,0.4c0,0.3-0.6,0.6-1.5,0.6
		c-1.2,0-1.6,0.3-2.2,2.2c-0.8,2.4-0.4,4.9,0.7,4.9c0.4,0,0.8-0.6,0.9-1.5c0.3-2.2,1.2-1.5,1.4,1c0.1,1.6-0.1,2.5-0.9,3.4
		c-0.5,0.6-1.3,1.9-1.7,2.9c-0.6,1.5-0.9,1.8-2.5,1.8h-1.8v4.6v4.6l-1.7-1c-1.6-0.9-1.8-1.3-1.9-3.8c-0.1-1.5,0.1-2.9,0.4-3.1
		c0.3-0.2,0.5-1.1,0.5-2.1c0-1.6-0.2-1.8-1.9-2.1c-1-0.2-2.7-1-3.8-1.8c-1.8-1.4-1.9-1.4-1.9-0.3c0,0.9-0.3,1.1-1.3,1.1
		c-0.8,0-1.3,0.3-1.3,0.5c0,0.6,2.6,3.2,3.3,3.2c0.2,0,1,0.8,1.6,1.7c1,1.3,1,1.8,0.4,2.2c-0.5,0.3-1.1,0.1-1.8-0.5
		c-0.6-0.5-1.8-1.2-2.6-1.6c-1.3-0.5-1.7-0.5-2.1,0.2c-0.6,1.1-1.8,1.1-3.9-0.2c-1.4-0.9-2.1-1-3.2-0.5c-0.8,0.3-2.8,0.5-4.5,0.5
		c-1.7,0-2.5,0-3.3-0.5l2.1,11.2c-1.1,3-3.8,3.8-6.8,2.2L258.2,183c-1.4,0.8-2.7,1.9-2.5,2.5c0.6,1.4,1.3,6,1.3,7.9
		c0,1.7-0.1,1.8-1.1,1.2c-1-0.5-1.1-0.4-0.8,0.5c0.3,0.8,0.1,1.1-0.5,1.1c-1.1,0-1.6-1.3-1-3.1c0.7-2.2,0-5.7-1.4-6.5
		c-0.6-0.4-1.1-1.2-1.1-1.8c0-0.6-0.3-1-0.8-1c-0.4,0-1-0.5-1.1-1.1c-0.4-1.2-2.2-2.4-2.6-1.7c-0.2,0.3-2.4,0.3-5,0.2
		c-2-0.1-3.4-0.3-4.7-0.6C235.4,183.3,233.7,185.4,231.7,186.3z"/>
	<path fill="#BF0A30" d="M433.1,241.1l-0.4-2.2c-0.4-1.9-0.7-2.3-2.6-3c-1.2-0.4-2.6-0.8-3.2-0.8c-0.6,0-1.4-0.3-1.8-0.6
		c-0.3-0.3-1.9-1.2-3.5-1.8l-2.9-1.2l-2.3,1.9c-3,2.4-4.6,2.9-10.9,2.9c-5.7,0-7.1,0.5-8,3.2c-0.5,1.3-0.3,2,1.6,5.1
		c1.9,3.1,2.2,4,2.3,7.3c0.1,3.1,0.3,3.8,1,3.8c0.9,0,2.1,2.5,2.1,4.6c0,0.6,0.6,2,1.3,3c0.7,0.9,1,1.5,1.1,2.1l29.2-24.3H433.1z"/>
	<path fill="#BF0A30" d="M254.8,179.4c0.3,0.4,0.6,0.7,1,0.9l-1.5-1.7C254.4,178.8,254.5,179,254.8,179.4z"/>
	<path fill="#BF0A30" d="M359.3,206.5c0.5,0.5,0.9,1.4,0.9,1.8c0,0.5,0.5,1,1.2,1.2c3.9,1,4.2-0.7,0.4-2.6
		C358.6,205.2,358.1,205.2,359.3,206.5z"/>
	<path fill="#BF0A30" d="M388.4,248.6c1.4,1.3,1.9,1.6,2.4,1.1c1.3-1.3,0.4-9.1-1-9.1c-0.2,0-1,0.7-1.8,1.5
		C386.1,244.2,386.2,246.4,388.4,248.6z"/>
	<path fill="#BF0A30" d="M394.5,174.7c0.3,0.8,0.8,1.1,2.3,1.1c1.1,0,1.9-0.1,2.4-0.3l-1.5-2.9c-1.2-0.3-2.5-0.3-3,0.3
		C394.4,173.3,394.3,174.1,394.5,174.7z"/>
	<path fill="#BF0A30" d="M439.6,191.6c-0.4-0.3-0.8-0.7-1.4-1.7c-1.6-2.4-3.2-3.1-4.9-1.9c-1.6,1-1.8,1-1.8-0.2
		c0-0.6-0.6-1.2-1.6-1.6c-1.1-0.4-1.6-0.9-1.6-1.7c0-1,0.1-1.1,1.5-0.4c1.5,0.8,3.3,0.6,3.3-0.2c0-0.3-0.6-1-1.2-1.6
		c-9.4,2.7-22.4,5.8-26.5,3.8c-0.2,1-0.7,1.9-1.7,3.2c-2.5,3.5-2.4,4.5,0.4,6.4c1.2,0.9,2.8,2.1,3.3,2.8c0.9,1,0.9,1.1,0.2,1.1
		c-0.5,0-1.5,0.6-2.3,1.3c-0.8,0.8-1.8,1.3-2.1,1.3c-0.4,0-0.8,0.3-1,0.8c-0.4,1-3.7,1.9-7,1.9c-3.7,0-4.3,0.3-3.6,2
		c0.5,1.4,0.4,1.6-2.4,3.5c-0.3,0.2-0.2,1,0.2,2.1c2.1,5,5.8,6.5,10,4c2.6-1.5,2.6-1.5,1.9-3c-0.7-1.3,0.7-1.8,3.2-1.1
		c1,0.3,1.9,0.5,2,0.5c0.1,0,0.2-0.5,0.2-1c0-0.5,0.5-1.6,1-2.3l1-1.3l0.7,1.5c0.7,1.6,0.9,1.7,2.1,1c0.5-0.4,1.8,0.2,4.3,1.9
		c3,2,4,2.4,6.1,2.4h2.6v2.4c0,3.1,1,3.7,7.3,3.8c0.7,0,1.3,0,1.9,0.1C432.8,214,436.7,202.3,439.6,191.6z"/>
	<path fill="#BF0A30" d="M358,210.9c0.7-0.4,0.5-0.8-0.8-2l-1.5-1.5l0.4,1.3C356.8,211,357.2,211.4,358,210.9z"/>
	<path fill="#BF0A30" d="M348.9,234.9c0.1,0.1,1.8-0.1,3.7-0.5c1.9-0.4,3.6-0.6,3.7-0.5c0.1,0.1,0.3,1.2,0.5,2.4l0.3,2.3l1.9-0.4
		c2.4-0.4,2.8-0.6,2.8-1.6c0-1.7,1.8-4.5,3.1-4.9c1.2-0.3,1.3-0.5,1-2.4c-0.3-1.8-0.2-2.2,1-2.9c1.2-0.8,1.3-0.8,1.6,0.2
		c0.2,0.7,0.8,1.1,1.6,1.1c1,0,1.4,0.3,1.6,1.2c0.1,1,0.8,1.3,3.6,2c3.8,0.9,4.4,0.7,6.4-1.9l1.3-1.7l-1.2-1.5
		c-1.2-1.3-1.4-1.4-3.4-0.9c-3.1,0.9-4,0.8-3.7-0.4c0.4-1.6-3-6.6-4.4-6.6c-0.6,0-2.2-0.8-3.4-1.6c-1.3-0.9-2.9-1.6-3.8-1.6
		c-1.1,0-1.6-0.3-1.8-1.1c-0.3-1.3-3.1-1.6-3.1-0.3c0,1.7-1.1,0.7-2.5-2.2c-0.8-1.6-1.6-3-1.8-3s-0.7,0.4-1.1,0.9
		c-0.6,0.6-0.7,2.6-0.6,8c0.1,3.9,0.3,7.8,0.6,8.7c0.4,1.3,0.1,2.2-1.7,5.2C349.7,233,348.8,234.8,348.9,234.9z"/>
	<path fill="#BF0A30" d="M388,183.8c3.9-0.1,4.9-0.6,5.7-3.1c0.6-2.1,0.6-2.4-0.2-3.3c-0.5-0.5-0.9-1.9-0.9-3.2
		c0-2.2-0.1-2.3-1.7-2.2c-0.1,0-0.2,0-0.2,0l-5.6,6.1c0,1.6,0.2,3.3,0.3,4C385.7,183.8,385.9,183.9,388,183.8z"/>
</g>
</svg>
