<?xml version="1.0" encoding="utf-8"?>
<!-- Generator: Adobe Illustrator 17.1.0, SVG Export Plug-In . SVG Version: 6.00 Build 0)  -->
<!DOCTYPE svg PUBLIC "-//W3C//DTD SVG 1.1//EN" "http://www.w3.org/Graphics/SVG/1.1/DTD/svg11.dtd">
<svg version="1.1" id="flag-icon-css-cd" xmlns="http://www.w3.org/2000/svg" xmlns:xlink="http://www.w3.org/1999/xlink" x="0px"
	 y="0px" viewBox="0 0 640 480" enable-background="new 0 0 640 480" xml:space="preserve">
<g>
	<path fill="#007FFF" d="M476.6,474.6c1.4,0.2,1.8,0.5,1.6,1c-0.8,2-0.7,2.8,0.1,3.6c0.7,0.7,1.1,0.7,2.1,0.3c0.7-0.3,1.3-1,1.4-1.5
		c0.1-0.5,0.3-7.5,0.3-15.4V448l-2,0.3c-1.1,0.2-3,0.6-4.2,1c-2.2,0.7-2.2,0.7-1.7,2.2c0.7,2.6,0.7,2.7-2.5,1.7
		c-1.6-0.5-3.9-0.9-5-0.9c-2.1,0-2.2-0.1-7-5c-2.7-2.8-6.2-6-7.8-7l-2.8-2l-1.1-4.4l-1.1-4.4l1.4-3.6c0.7-2,2-6.2,2.7-9.3
		c1.1-4.9,1.4-5.8,2.4-6.2c1.4-0.6,1.4-1.2,0.2-8.9c-0.9-6-0.9-6.1,0-10.7l0.9-4.7l-3.3-6.8c-1.8-3.7-3.2-7-3.2-7.2
		c0-0.2,1.9-1.6,4.1-3.1c3.3-2.2,4.7-3.5,7-6.5l2.9-3.8l-0.4-3.3c-0.2-1.8-0.4-3.3-0.3-3.3c0,0,10.4-1.5,23-3.3
		c12.6-1.7,23-3.2,23-3.3c0.1,0-1.8-5.8-4.1-12.8c-4.1-11.9-4.5-12.9-7.1-16.5c-2.2-3-3.6-4.4-6.6-6.5l-3.7-2.6l-3.2-7.3l-3.1-7.3
		l0.9-3.1c0.8-2.8,0.8-3.3,0.2-5c-0.4-1-1-4.6-1.4-7.9c-0.7-5.2-1-6.6-2.9-10.7c-1.8-4.2-2.1-5-2.1-8.3c0-2.4,0.3-4.4,1-6.2l1-2.7
		l-2.2-7.9c-2.1-7.8-2.2-8-2.4-17.4l-0.1-2.3l-188.4,113l1,3.1c0.7,2,1.6,5.8,2.2,8.5c0.8,4.5,0.8,5.2,0.2,9.6
		c-0.3,2.6-0.8,6.6-0.9,8.9c-0.2,2.3-0.6,5.5-1,7.1l-0.7,2.9l1.7,4.3c1.8,4.9,2.2,5.4,5.3,7.4l2.2,1.4l1.5,6.6
		c0.9,4.2,1.5,7.9,1.5,10v3.3l-1.6,0.8c-1.7,0.8-1.7,0.8-1.4,3.3c0.1,1.3,0.7,3.9,1.3,5.7l1,3.2l2.3-0.3c2.2-0.2,2.9-0.7,4.2-2.9
		c0.5-0.8,0.6-0.7,2.5,0.2l2,1l1.5-1.2c1.4-1.1,1.8-1.1,5-0.9c3.5,0.2,3.5,0.2,5.4-1.4l2-1.7l7.6,0.4c7.4,0.4,7.7,0.4,10.1-0.7
		l2.5-1.1l0.7,1.4c0.6,1.2,1,1.4,2.7,1.4c2.8,0,4.9,2,5.3,5c0.3,2,0.2,2.2-1.5,3.9l-1.7,1.8l1.8,0.3c4.3,0.7,5.2,0.5,7.3-1
		c1.3-0.9,4.3-2.1,8.3-3.3c6-1.8,6.3-1.9,7.4-1.1c1.1,0.7,1.1,0.9,0.8,5.3l-0.3,4.5l1.4,1.2c0.7,0.6,1.6,1.6,1.9,2.2
		c0.5,0.8,0.7,0.9,2,0.5c1.2-0.4,2.1-0.2,6.3,1.3c4.3,1.5,4.9,1.9,5.1,3c0.5,2.4,0.6,2.5,2.2,2.2c5-0.9,7.6-0.8,12.6,0.4l5,1.2
		l2.1-1.2c2.4-1.4,2.5-1.7,2.9-6.1l0.3-3.4l1.7,0.2c2.7,0.4,2.7,0.4,3.1,3.2c0.3,2.4,0.4,2.7,1.9,3.4c1.3,0.6,1.7,1.2,2.1,2.7
		c0.3,1.1,1.3,3.3,2.3,5l1.9,3.2h3.1c2.6,0,3.2,0.1,3.7,0.9c0.3,0.5,1.6,1.4,3,2.2c2.5,1.3,4.1,1.3,9.5,0.4c1.4-0.2,1.4-0.2,2,2.2
		c0.3,1.3,0.6,3.3,0.6,4.3c0,1.9,1.9,6,2.8,6c0.2,0,0.9-0.2,1.6-0.5c1.1-0.4,1.3-0.2,2.5,1.5c0.7,1.1,1.5,2.5,1.7,3.1
		s1.3,3.1,2.4,5.5c2.1,4.3,2.2,4.3,3.5,4.1c1.1-0.2,1.5-0.1,2.2,0.7l0.8,1l4.6-2.9C474.3,474.6,474.9,474.3,476.6,474.6z"/>
	<path fill="#007FFF" d="M514.5,50c0-0.2-1-1.4-2.2-2.8s-2.9-3.8-3.8-5.6l-1.7-3.1l-2.2,0.1c-1.9,0.1-2.2,0-3-1.2
		c-0.5-0.7-2.2-2.7-3.7-4.3c-1.7-1.8-3.8-4.7-5.1-7.1c-1.2-2.2-2.6-4.2-3-4.3c-0.4-0.1-2.6-0.3-4.8-0.4l-3.9-0.1l-1.4,2.8
		c-0.7,1.5-1.4,2.9-1.4,2.9c0,0.1-2.7-0.4-5.8-0.9c-4.8-0.9-5.8-1.3-6.6-2.3c-1.3-1.6-3.1-1.3-4.2,0.8L461,26l-3.7-0.2
		c-2.1-0.1-5.6-0.7-7.7-1.3l-3.9-1l-1-2.3c-0.9-2.1-1.4-2.5-5.9-5.2c-2.7-1.6-8.3-4.7-12.5-6.8l-7.5-3.9l-2.9,2.5l-2.9,2.5l-1.9-1
		c-1.6-0.9-2.3-1-5-0.7c-2.9,0.3-3.7,0.1-8.6-1.4c-4.1-1.3-6.2-1.7-8.7-1.7c-3,0-3.6-0.1-5.9-1.6c-2.7-1.7-2.9-1.8-6.3-1.1l-2.2,0.5
		l-0.8,3.7c-0.8,3.6-0.9,3.7-2.2,3.7c-0.7,0-2,0.5-2.8,1c-0.8,0.6-3,1.4-5,1.8l-3.5,0.7l-4.6-1.8c-2.5-1-4.9-1.8-5.2-1.8
		c-0.4,0-0.9,0.6-1.2,1.3c-0.4,1-1.2,1.6-3.2,2.3c-1.4,0.6-6.6,2.5-11.5,4.3c-4.9,1.8-9.2,3.3-9.5,3.3c-0.4,0-1.1-0.4-1.6-0.9
		c-0.6-0.5-3-1.4-5.5-2.1l-4.6-1.2l-2.3,1.9c-1.4,1.2-2.5,2.4-2.7,3.3c-0.3,1.2-0.7,1.5-1.9,1.6c-1.4,0.1-1.5,0.3-1.5,1.8
		c0,0.9-0.3,2.8-0.7,4.2c-0.7,2.2-0.9,2.5-2.2,2.8c-1.7,0.3-5.1-0.2-13.3-2.2l-5.8-1.4l-1.8,0.9l-1.8,0.9l-2.6-1.2
		c-1.7-0.7-3.5-1.2-5-1.2c-1.7,0-3.1-0.4-5.7-1.7l-3.4-1.7l-3,0.7c-2.9,0.7-3.1,0.7-4.7-0.2c-1-0.5-1.9-1.3-2-1.7
		c-0.1-0.5-0.4-1.4-0.5-2c-0.4-1.7-2.2-3.6-3.8-3.9c-2.5-0.7-9.3-5-11.6-7.6l-2.3-2.5l-2.6,0.4c-1.4,0.3-5.8,1.7-9.8,3.2l-7.2,2.8
		l-0.8,2.4c-0.5,1.4-1.5,3-2.4,3.9c-1.2,1.2-1.6,2-1.9,3.9c-0.3,2.3-0.4,2.4-2.7,3.5c-1.3,0.6-2.5,1.3-2.8,1.6
		c-0.3,0.4-0.3,3.6-0.1,8.7c0.4,7.9,0.5,8.2,1.8,10.5l1.4,2.4l-0.9,4.4c-1.2,5.9-2.7,9.6-6.3,15.1c-3.5,5.5-7.7,14.9-7.7,17.1
		c0,0.9,0.5,3.6,1,6.1l0.3,1.2h11.2l-14.3,10.9c0,0.1,0,0.2,0,0.3c-0.2,1.7-0.6,3.2-0.8,3.3c-1.2,0.4-2.2,1.5-2.9,3.6
		c-0.8,2.2-0.8,2.2,0.1,3.6c0.8,1.1,0.9,1.7,0.7,3.8c-0.3,2.2-0.2,2.5,0.8,3.5c1.1,1.1,1.1,1.1,0.4,4.1c-0.6,2.5-0.9,3.1-2,3.5
		c-1.1,0.3-1.5,1.2-3.2,6l-2,5.5l1,2.9l1.1,2.9l-1.5,3c-1.4,2.8-1.6,3-3.3,3.3c-2.6,0.4-3,0.8-3.3,3l-0.3,2l-4.8,2.2
		c-4.5,2.1-7.1,4.1-9.8,7.9l10.3,33.4l-21.1-16.2l-0.9,0.7l-4,3.1l-0.4,4.6c-0.2,2.5-0.2,9.3,0,15.2l0.3,10.7l-2.2,3.1
		c-1.2,1.7-2.9,5.1-3.9,7.6l-1.7,4.4l-2.5,0.4c-1.4,0.2-3.6,0.8-5,1.4c-2,0.9-2.5,1.4-2.9,2.7c-0.4,1.4-0.5,1.5-2.6,1.7
		s-2.3,0.3-3.5,2.1c-0.7,1.1-2.9,3.8-5,6.2c-2.1,2.3-4.7,5.5-5.8,7.1l-1.9,2.9l-3.2-0.7c-4.1-0.9-5.9-2.7-6.5-6.1
		c-0.2-1.9-0.1-2.8,0.7-4.3l1-1.9l-1.2-2.1c-0.7-1.1-1.4-2.1-1.5-2.1c-0.2,0-2.3,1.3-4.7,2.8c-4.4,2.8-4.4,2.8-6.3,2.2
		c-3.4-1-4.1-0.5-5.1,3.5l-0.8,3.5l-3.5,1l-3.5,1l-3.3-1.6c-1.8-0.9-3.6-1.6-3.9-1.6c-0.4,0-2.6,1-5,2.3c-3,1.5-5.3,3.2-7.2,5
		l-2.7,2.8l0,9.2l0.1,9.2h-2.2c-1.2,0-2.7,0.1-3.3,0.3c-1,0.3-1.1,0.5-0.8,2.7c0.2,1.3,0.4,2.5,0.5,2.7c0.4,0.7,4.9-0.4,5.9-1.4
		c0.7-0.6,1.7-1,2.6-1c0.9,0,1.6-0.3,1.8-0.7c0.2-0.4,0.8-0.7,1.5-0.7c0.7,0,2.2-0.3,3.5-0.7c2-0.6,8.3-0.7,42.8-0.7h21L513.8,51.7
		C514.2,50.7,514.5,50.1,514.5,50z"/>
	<path fill="#F7D618" d="M471.3,213.8l-3.5-3.8c-2.2-2.4-4.2-5.1-5.3-7.5c0,0,0,0,0,0L264.8,321.1l0.2,0c6.2,0,12.8-0.2,14.8-0.4
		l3.6-0.3l0.6,2.6c0.5,2.2,0.5,3.2-0.3,6.5l-0.8,3.9l0.2,0.6l188.4-113L471.3,213.8z"/>
	<path fill="#F7D618" d="M193.6,96l0.8,3.3l-1.8,2.4c-1.3,1.9-1.8,2.9-2.1,5.2L204.8,96H193.6z"/>
	<path fill="#F7D618" d="M510.9,77l-0.2-2.4c-0.2-2,0-3.1,1.4-6.4l1.6-4l-1.3-1.6c-0.7-0.9-1.5-1.9-1.7-2.2
		c-0.2-0.3,0.5-2.4,1.8-5.3c0.6-1.3,1.1-2.4,1.5-3.4L125,285h19.6l1,1.1l1.1,1.2l1.3-1c1-0.7,1.7-0.9,2.9-0.7c1.4,0.3,1.7,0.7,3.3,4
		c0.3,0.6,0.5,1,0.7,1.4L511.7,77H510.9z"/>
	<path fill="#F7D618" d="M160.9,171.4c-1.4,2-2.7,4.5-4.3,7.7l-3.4,7l-3.1,2.5l21.1,16.2L160.9,171.4z"/>
	<path fill="#CE1021" d="M460.8,198.8c0.1-0.1,0.9-0.6,1.9-1.1c0.9-0.6,2.9-2.5,4.3-4.3l2.6-3.2v-3.4v-3.4l3.1-3.8
		c1.7-2.1,4.4-5.2,5.8-6.9l2.7-3.1l-0.7-1.8c-0.5-1.2-0.7-2.5-0.5-3.9c0.1-1.2,0.5-4.9,0.7-8.2c0.2-3.4,0.9-9.7,1.5-14.1l1-8
		l1.6-0.7c1.6-0.6,1.8-0.9,3.2-5.3c1.4-4.1,1.5-5.1,1.4-8.5l-0.1-3.8h2h1.9l1.2-3.2c1.2-3.1,1.3-3.2,3.7-4.1
		c3.1-1.1,4.3-1.9,9.2-6.3C517,93.2,520,90.1,522,86.5c2.5-4.7,2.3-5.8-1.7-7.9c-2.4-1.3-3.3-1.5-6.1-1.5h-2.5L154.9,291.1
		c1,2.2,1,2.8,0.8,5.4c-0.4,4.4,1.5,11.9,3.5,13.6c1.6,1.3,2.6,4.3,2.2,6.7c-0.3,1.6-0.1,2,1.8,4.3c1.1,1.4,2.3,3.2,2.6,4.1
		c0.6,1.7,3.2,5.5,5.5,8c1,1,1.9,2.8,2.5,4.9c1.3,4.3,2,4.7,5.9,3.9c2.1-0.4,3.8-0.4,6-0.1c1.7,0.2,3.2,0.3,3.4,0.2
		c0.1-0.1,0.2-1.1,0.2-2.1c0-1.5,0.1-1.8,1.1-1.8c0.6,0,1.8,0.2,2.7,0.5c1,0.3,3.4,0.3,6,0.2c3.7-0.3,4.3-0.4,4.1-1.1
		c-0.1-0.5-0.3-1.5-0.5-2.3l-0.3-1.5h2.5h2.5l1.1,2.2l1,2.2l5.5-0.3c3-0.2,6.6-0.4,8-0.6l2.5-0.3l-0.2-3.6c-0.1-2-0.4-3.9-0.6-4.3
		c-0.2-0.6,0.1-0.9,1.6-1.4l1.9-0.6l-0.3-4.4c-0.2-3.1-0.1-5.2,0.4-6.8l0.6-2.3l7.9,0.1c4.3,0.1,8.5,0.3,9.2,0.4
		c1.1,0.2,1.3,0,1.6-0.9c0.3-1.2,0.4-1.2,3.8-1.2h3.5l-0.3,2.2c-0.1,1.3-0.3,3.3-0.4,4.6l-0.1,2.3l10.9-0.1l197.7-118.6
		C461.5,200.5,460.7,198.9,460.8,198.8z"/>
</g>
</svg>
