<?xml version="1.0" encoding="utf-8"?>
<!-- Generator: Adobe Illustrator 17.1.0, SVG Export Plug-In . SVG Version: 6.00 Build 0)  -->
<!DOCTYPE svg PUBLIC "-//W3C//DTD SVG 1.1//EN" "http://www.w3.org/Graphics/SVG/1.1/DTD/svg11.dtd">
<svg version="1.1" id="flag-icon-css-ci" xmlns="http://www.w3.org/2000/svg" xmlns:xlink="http://www.w3.org/1999/xlink" x="0px"
	 y="0px" viewBox="0 0 640 480" enable-background="new 0 0 640 480" xml:space="preserve">
<g>
	<path fill="#00CD00" d="M550.1,172c-4.4-21.7-3.7-19.3-5.7-19.3h-1.7l1.3-1.3l1.3-1.3l-1-1.8c-0.6-1.1-1-2.6-1-3.5
		c0-1.1-0.4-2.2-1.2-3.2c-0.8-1.1-1.2-2.1-1.2-3.4c0-1.7-0.1-2-1.9-3c-1.1-0.6-2.9-1.2-4.1-1.4l-2.1-0.3l-0.2-2.9
		c-0.1-1.5-0.3-3.2-0.4-3.7c-0.1-0.7,0.1-1,1.3-1.1c1.2-0.1,1.9-0.7,4-3.5c1.4-1.9,2.6-3.6,2.6-3.8c0-0.2-0.8-1.4-1.8-2.6
		c-1-1.2-1.8-2.3-1.8-2.4c0-0.1,0.6-1.4,1.4-2.9c1.5-3,1.6-4,0.8-8l-0.6-2.7l-2.5,2.9c-1.4,1.6-2.7,3.1-2.9,3.4
		c-0.2,0.2-2.2-1.3-4.8-3.9c-4-4-4.8-5.1-9-12.6c-2.5-4.5-4.8-8.3-5-8.4c-0.2-0.1-1,0-1.8,0.5c-0.8,0.4-1.5,0.6-1.7,0.5
		c-0.1-0.1-1.2-2.2-2.3-4.5l-2.2-4.3l-2.2-0.1l-2.1-0.1l-0.3-2.3c-0.2-1.2-0.5-2.3-0.6-2.3s-1.2,0.9-2.3,2.1
		c-1.6,1.6-2.3,2.1-3.5,2.1c-1.3,0-1.5-0.2-1.5-1.1c0-1-0.4-1.1-4.7-1.8c-2.6-0.4-7.4-1-10.7-1.2c-5.9-0.5-6-0.5-7.6-2.1l-1.6-1.6
		l-1.2,0.9c-0.8,0.6-1.9,0.9-3.9,0.9c-2.4,0-2.9,0.1-4.8,1.8l-2.2,1.8l-3.3-0.5l-3.3-0.5l-3.5,2c-1.9,1.1-4.3,2.8-5.3,3.7l-1.9,1.8
		l-3.6-0.6l-3.6-0.6l-1.6,1.7c-0.8,0.8-2.1,1.6-3.5,2.2V417c2.9-0.3,5.6-0.6,7.7-0.8l10.7-1.2l6.8,1.7c7.5,1.9,9.1,2.1,36.8,5.6
		c19,2.3,19.6,2.4,23,1.8l3.5-0.6l1.5,1.4c1.9,1.9,3.7,1.9,5.9,0l1.7-1.4l4.3,0.5c2.3,0.3,4.8,0.6,5.5,0.7c1,0.1,1.4-0.1,2.2-1.3
		c0.9-1.4,0.9-1.5,0.1-4.9c-0.5-1.9-1.3-4.4-1.8-5.5c-0.6-1.2-1-2.9-1-3.8c0-1.6,0-1.7,1.5-1.7c2.3,0,2.8-1.3,1.6-4.6
		c-0.5-1.4-1.2-5.4-1.8-9c-0.6-3.8-1.2-6.5-1.5-6.8c-0.3-0.2-1.8-1.2-3.1-2.1L528,383l-2.7,1.8c-2.6,1.7-2.7,1.8-3.8,1.1
		c-1-0.6-1.2-1.1-1.2-3.5v-2.7H518h-2.4l0.3-5.7l0.3-5.8l-1.8-3.1c-1.4-2.3-2.1-4.5-3-8.6c-1.3-5.7-3.7-14.8-4.2-15.5
		c-0.1-0.3-0.8-0.5-1.4-0.5c-0.9,0-1.2-0.3-1.6-1.8c-1.1-3.9-2.8-11.2-4.4-18.7l-1.7-7.9l2.4-3.5l2.4-3.5l-1.4-3.5
		c-0.8-1.9-1.4-3.7-1.4-4.1c0.1-1.7,5.7-9.9,9.8-14.4c3.5-3.8,4.6-5.3,4.7-6.6c0.5-3,1.1-4.2,3.3-7c2-2.6,2.1-2.8,1.4-3.6
		c-1.1-1.2-1-2.3,0.8-10.7c1.2-5.8,1.6-8.5,1.6-12.2v-4.8l3.5-7.5c1.9-4.1,3.8-7.7,4.2-8c1.8-1.1,2.3-2,2.6-5.8l0.4-3.8l1.3,1.2
		l1.3,1.2l2.6-3.6c2.6-3.8,3.3-4.2,6.3-4.2c1.4,0,1.7-0.2,2.4-1.6l0.8-1.7l-1.8-2.6l-1.8-2.7l1.1-1.3c1-1.2,1.2-1.2,2.8-0.8
		c1.6,0.4,2,0.4,3.9-0.8l2.1-1.3l-0.1-4.3C553,187.7,552.1,182.2,550.1,172z"/>
	<path fill="#FF9A00" d="M212.2,45.1c-2.9-1.7-3-1.8-7-1.7l-4.1,0.1v-1.2c0-1.1-0.1-1.2-1-0.9c-0.6,0.1-2,0.4-3.2,0.6
		c-2.3,0.3-2.6,0-1.7-1.8c0.4-0.8,0.4-1.6,0-2.9c-0.5-1.7-0.7-2-2.8-2.7l-2.3-0.8v-2.3c0-2-0.2-2.6-1.2-3.6l-1.3-1.2l-3.8,1.3
		c-4.3,1.5-5.9,1.3-7.9-1l-1.1-1.3l-3.6,2.8c-4.1,3.1-4.4,3.9-2.7,6.7l1,1.5l-1.6,0.3c-1.3,0.3-1.9,0.9-4.7,5.3c-3,4.7-3.3,5-5,5.2
		c-1,0.2-2.4,0.8-3.3,1.4c-1.1,0.8-1.7,1-2.6,0.7c-0.6-0.2-1.4-0.3-1.7-0.4c-0.3,0-1.6,1.7-2.9,3.9c-2.2,3.5-2.7,4.1-5.3,5.6
		c-2.9,1.6-3,1.8-4.8,5.6c-1,2.1-1.8,4.1-1.8,4.3c0,0.2,0.4,0.4,0.9,0.4c0.5,0,1.2,0.1,1.7,0.3c0.6,0.3,0.6,0.4-0.1,1.2
		c-0.8,0.9-0.8,1,0.9,2.4c1.7,1.5,1.7,1.6,1.3,3.3c-0.2,1-0.8,4.1-1.2,6.9c-0.4,2.8-1,5.9-1.4,6.8c-0.4,0.9-0.8,2.9-1,4.4
		c-0.2,2.6-0.2,2.7,2.5,7.3l2.8,4.7l3.4,0.6c2.7,0.6,3.7,0.6,5.2,0.1c1-0.3,2.7-0.6,3.7-0.6c1.5,0,2-0.2,2.2-1
		c0.1-0.6,0.6-0.9,1.2-0.9c1.3,0,1.2,2-0.2,4.4c-0.8,1.2-1.2,2.5-1.2,3.9c0,1.5-0.4,2.7-1.6,4.7c-1.4,2.3-1.6,2.9-1.2,4.1
		c0.2,0.8,0.9,1.9,1.5,2.3c1.1,0.8,1.2,0.8,2.9,0.1c2.3-1,2.7-0.9,2.2,0.5c-0.4,1-0.2,1.3,1.3,2.5c1,0.7,2.7,1.8,3.9,2.4
		c1.2,0.6,2.2,1.2,2.2,1.3c0,0.2-0.7,0.6-1.5,1c-1.4,0.7-1.6,0.6-3.3-0.2l-1.7-0.9l-1.7,1.6c-1.1,1.1-2.5,1.8-3.8,2.2
		c-2.3,0.6-2.4,0.7-1.8,3c0.4,1.2,0.3,1.7-0.5,2.6c-0.5,0.6-1.3,3.1-1.8,5.6l-0.9,4.5l1.5,1.7c1.4,1.6,1.7,1.8,3.1,1.5
		c0.9-0.2,2.4-0.2,3.5-0.1c1,0.1,2.7,0.2,3.8,0.2c1.9,0,1.9,0,3.1,2.8c0.6,1.5,1.9,5.2,2.9,8.3c1.1,3.5,2.2,6.1,3,7.2l1.3,1.7
		l-1.4,2.2l-1.4,2.2l2.4,2.5l2.4,2.5l-1.8-0.3c-1-0.1-3-0.3-4.5-0.3h-2.6l-0.7-2.7c-0.4-1.4-0.8-2.9-1-3.4c-0.2-0.6-2.9-1.8-4.1-1.8
		c-0.1,0-0.3,1-0.3,2.1c0,2.1,0,2.1-1.2,1.8c-0.7-0.2-1.8-0.4-2.5-0.6c-1-0.2-1.5-0.7-2.3-2.5l-1-2.3l-1.9,0.4
		c-2.4,0.5-2.3,0.5-11.2,0l-7.5-0.4l-1.1,2.2c-1,1.9-1.1,2.8-1,6.8c0,2.5-0.1,5.5-0.3,6.5c-0.6,2.7,0.1,4.5,2.6,6.2
		c1.8,1.2,2.3,1.3,4,1.1c1.8-0.3,2-0.2,2.7,1.1c1.2,2,3.3,2.2,4.7,0.5c0.9-1.2,1.2-1.3,2.2-0.9c1,0.4,1.1,0.6,1.2,3.5
		c0,3,0,3,2.4,5.5c1.9,2,2.3,2.6,1.9,3.3c-0.5,0.8-0.6,0.7-1.8-0.1c-1-0.7-2-0.9-4.1-0.9c-1.6,0-2.8,0.1-2.8,0.2
		c0,0.1,0.2,0.7,0.5,1.4c0.4,1,0,1.9-2.3,6.4c-1.5,2.9-2.8,5.5-2.8,5.8s0.7,0.9,1.7,1.5c1.3,0.9,1.6,1.2,1.4,2.3
		c-0.1,0.6-0.3,2.1-0.5,3.3c-0.2,1.7-0.6,2.3-1.6,2.9c-1.1,0.6-1.5,1.5-2.3,4.5c-0.7,2.6-1.6,4.4-2.9,6c-1,1.2-2,2.3-2.3,2.3
		c-0.2,0-1.6-0.9-3-2l-2.7-2l-2.9,0.5c-2.6,0.4-3,0.4-4.2-0.5l-1.2-0.9l-2.3,1.8c-2.9,2.2-3.1,3.4-0.9,4.8c1.2,0.8,1.6,1.5,2.3,4.4
		c0.5,1.9,1,4.8,1.1,6.4c0.2,2.7,0.4,3.2,1.6,4.4c1.1,1.1,1.3,1.7,1.3,3.5c0,3.2,1.2,4.8,3.9,5.2c1.2,0.1,2.1,0.4,2.1,0.6
		c0,0.1-0.6,1.7-1.2,3.6l-1.2,3.3l1.2,3.7c1.3,4,1.2,4.6-0.8,4.6c-1.1,0-1.3,0.8-0.9,3.2c0.3,1.7,0.2,2.3-0.5,3.6
		c-0.7,1.3-0.8,1.8-0.4,4.1l0.5,2.6l-2.9,3.1c-1.7,1.8-3,3.8-3.3,4.8c-0.4,1.4-0.8,1.8-1.8,2c-0.8,0.1-2.9,1.2-4.7,2.2
		c-2.9,1.7-3.3,2.2-3.3,3.3c0,0.8-0.4,1.7-1,2.2c-2.8,2.3-3.5,3.1-3.8,4c-0.3,0.9-0.1,1,1.9,0.7l2.3-0.2l2,3l2,3l1.2-0.8
		c0.7-0.4,1.5-1.3,1.7-2.1l0.4-1.3l1.9,1.6c2.4,2.1,2.9,3.7,1.5,5.2c-1.1,1.2-0.9,2.5,0.3,2.5c0.4,0,1.6-0.4,2.6-1l1.9-0.9l2,1.7
		c1.1,0.9,3.3,2.1,4.8,2.6c1.6,0.5,3.1,1.4,3.6,2c1.2,1.5,4.6,1.5,9.5-0.1c3.6-1.2,3.9-1.2,4.7-0.5c0.6,0.5,1.6,0.8,2.9,0.8
		c1.8,0,2.4,0.3,4.8,2.2c1.5,1.2,3.2,2.5,3.8,2.9l1.1,0.7l-1,3.2c-1,3.4-1.3,7.6-0.6,7.6c0.3,0,1.2-0.4,2.1-1l1.7-1l0.4,1.2
		c0.2,0.6,0.7,2.5,1,4.1c0.4,2.3,0.9,3.2,2.2,4.7c1.6,1.7,4.6,3.5,5.6,3.5c0.2,0,0.5-0.3,0.5-0.7c0-0.6,0.3-0.5,1.7,0.5
		c0.9,0.7,2.2,1.4,2.9,1.6c0.8,0.2,1.3,0.7,1.4,1.5c0.1,0.6,0.6,1.6,1.1,2.1l1,1l1.2-0.9l1.2-0.9l1.7,1.7l1.8,1.8l0.7-1.7
		c0.6-1.5,0.8-1.7,2-1.4c1.8,0.4,2.1,0.9,1.4,2.1c-0.4,0.7-0.6,2.5-0.5,5.2c0.1,4.1,0.1,4.1,2.3,7.4l2.3,3.3l-1.4,1.3l-1.3,1.3
		l1.3,1.7l1.4,1.7L191,395c-1.2,1-2.3,1.9-2.3,2.2c0,0.2,0.3,1,0.7,1.7c0.7,1.3,0.6,1.4-0.2,1.4c-1.1,0-1.2,0.5-0.1,3.1
		c0.7,2,1,2.1,2.9,1.3c0.6-0.3,0.8,0,1.1,1.6c0.3,2-0.3,3.8-2,5.2c-1,0.9-1,0.9-1-0.1c0-1.2,0.2-1.2-2.4-0.3l-2.2,0.7l0,4.2
		c0,5.2-0.8,7.8-2.4,8.1c-0.6,0.1-1.8,0.6-2.5,1.3c-1.4,1-1.4,1.2-1,3.1c0.3,1.5,0.3,2.4-0.2,3.6c-0.6,1.5-0.6,1.7,0.4,3.5l1.1,1.8
		l-2.3,0.8l-2.3,0.8v4.1c0,3.9,0,4.1,1.1,4.3c0.6,0.1,1.2,0.7,1.4,1.3c0.5,1.8,0.3,7.8-0.4,11.1c-0.5,2.6-0.5,3.2,0,3.9
		c0.8,1,0.8,5.2,0.1,7.5c-0.5,1.6-0.4,1.9,0.5,2.9c0.9,1,1,1.1,0.3,2.1c-0.7,1-0.7,1.1,0.6,2.4c1.2,1.3,1.5,1.4,4.1,1.2
		c3.5-0.3,5.9-1.3,10.1-4.4c2.4-1.7,4-2.5,5.8-2.9c2.1-0.4,2.6-0.7,2.6-1.4c0-0.6,0.9-1.3,2.7-2.2c2.2-1.1,3.5-1.4,7.5-1.7
		c0,0,0.1,0,0.1,0V45.5C212.7,45.4,212.4,45.2,212.2,45.1z"/>
	<path fill="#FFFFFF" d="M425.9,79.7l-2.9,1l-1.9,4.8l-1.9,4.8l-1.9,0.1c-1.6,0.1-1.9,0.3-2.2,1.3c-0.1,0.6-0.4,1.1-0.5,1.1
		c-0.8,0-2.1-1.2-2.6-2.5c-0.8-1.8-2.5-2.4-5.2-1.7c-1,0.3-1.7,0.4-1.8,0.4c0,0-0.4-0.9-0.8-1.9c-0.8-1.7-0.8-1.8,0.1-3.4
		c0.5-0.9,0.8-1.8,0.7-2c-0.2-0.2-1.1-0.4-2.1-0.4c-1.7,0-1.8,0.1-1.6,1c0.3,1.5-1.7,2.9-2.9,2.1c-0.7-0.4-1.5-0.4-4.2,0.5l-3.4,1
		l-0.8-1c-0.5-0.6-1.1-1.7-1.3-2.3c-0.6-1.3-1.1-1.4-3.4-0.5c-0.6,0.2-0.7-0.2-0.7-2.9c0-2.2-0.2-3.4-0.6-3.7
		c-1.4-1.2-9.6-5.1-10.7-5.1c-1.1,0-1.1-0.1-1.1-2.6c0-2.1-0.2-2.9-1-3.7l-1.1-1.1L371,62c0.6-0.4,1-0.9,1-1.1c0-0.2-0.9-1-2.1-1.7
		c-2.1-1.3-2.3-1.7-1.3-3.9c0.3-0.8,0.2-0.8-1.3-0.1c-1.6,0.7-1.7,0.7-1.7-0.4c0-0.6-0.4-1.5-1-2c-1.4-1.2-2.3-3.1-2.3-4.8
		c0-1.3,0-1.4-2.2-1.4c-1.7,0-2.5-0.2-3.1-0.9c-0.8-0.8-0.7-1,0.2-2.5c0.9-1.4,1-1.8,0.5-3c-0.6-1.6-1-1.7-1.8-0.7
		c-0.7,0.9-1.5,0.9-3.3,0c-1.3-0.6-1.8-0.6-7.2,0.3l-5.8,1l-1.7-1c-0.9-0.6-2.9-2.8-4.6-5.1c-3.6-5-5.8-6.4-9.1-5.6
		c-1.6,0.4-2.3,0.3-3.1-0.3c-1-0.6-1.3-0.6-4,0.6c-1.8,0.8-3.5,1.2-4.7,1.2c-1.8-0.1-2.1,0.1-5.8,4.1c-3.3,3.5-4,4.5-4.1,5.9
		l-0.1,1.7h-2.4h-2.4l-1.6,2.8l-1.5,2.8H290c-6,0-7.6-0.4-8.2-2.1c-0.3-0.8-1.1-1.5-1.6-1.7c-0.6-0.1-1.3-1-1.7-1.8l-0.7-1.6
		l1.6-0.5c1.9-0.6,4.4-3.8,4.4-5.5c0-0.7-0.3-2.2-0.7-3.4c-0.6-1.7-0.6-2.4-0.2-3.4c0.6-1.3,0.4-1.8-1.3-2.7c-0.9-0.4-1.9-0.6-3-0.4
		c-1.6,0.2-1.8,0.2-1.5-0.5c0.2-0.5,0.3-1.2,0.3-1.7c0-0.6,0.5-1.1,1.3-1.4c1.1-0.4,1.4-0.8,1.7-2.2c0.2-0.9,0.6-2,1-2.4
		c0.6-0.7,0.6-0.9-0.7-1.8c-1.4-1-1.4-1.2-1.2-3c0.3-1.9,0.2-2.1-0.9-2.5c-2.4-0.9-3.3-0.9-5.6,0.3c-2.3,1.2-2.4,1.2-4.1,0.5
		c-2.3-1.1-3.8-0.4-4.1,2.2c-0.1,1-0.4,2.5-0.5,3.2c-0.2,1.1-0.1,1.3,0.7,1.6c1.2,0.3,1.2,0.3-0.3,2.3c-1.2,1.5-1.3,1.6-3.4,1.3
		c-1.2-0.1-3.9-1.2-6.1-2.2c-3.4-1.6-4.1-2.1-4.3-3.2c-0.2-1.1-2.3-3.1-2.8-2.6c-0.1,0.1-0.7,1.4-1.3,2.9c-1,2.1-1.3,3.8-1.5,7.4
		l-0.3,4.7L247,29c1.2,0.7,2.1,1.5,2.1,1.6c0,0.1-1.2,1.6-2.7,3.3l-2.7,3.1l-1.7-1.5l-1.8-1.5l-3.7,0.9c-2.8,0.6-4.6,0.8-7.3,0.6
		l-3.5-0.3l-1.8,2.5l-1.8,2.5l1.3,3.3l1.3,3.3l-2.7,1.8c-1.5,1-3,2-3.4,2.1c-0.3,0.1-1.2-0.6-2-1.8c-0.7-1-2.2-2.3-3.7-3.3v421.8
		c2.7-0.2,4.9-0.5,5.2-0.6c0.2-0.1,1.5-1.6,2.9-3.1c2-2.3,2.8-2.9,4.2-3.1c1.6-0.2,1.8-0.5,2.1-1.8l0.3-1.5l7-0.8
		c4.3-0.5,7.6-1.2,8.6-1.7c0.9-0.5,2.5-1,3.5-1.2c1.4-0.2,2.3-0.7,3.2-1.8c1.2-1.4,1.6-1.6,5.7-2c5.9-0.7,6.3-0.8,6.5-1.8
		c0.2-0.6,1.4-1.3,3.9-2.2c2-0.7,11.6-4.5,21.4-8.3c17.4-6.9,17.9-7.1,24.9-8.2c21.2-3.6,24.1-3.9,50-5.5
		c20.7-1.3,26.3-1.8,30.9-2.8c3-0.6,11.2-1.7,18.2-2.3c4.5-0.4,10.4-1,15.7-1.5V79.3C426.6,79.4,426.2,79.5,425.9,79.7z"/>
</g>
</svg>
