<?xml version="1.0" encoding="utf-8"?>
<!-- Generator: Adobe Illustrator 17.1.0, SVG Export Plug-In . SVG Version: 6.00 Build 0)  -->
<!DOCTYPE svg PUBLIC "-//W3C//DTD SVG 1.1//EN" "http://www.w3.org/Graphics/SVG/1.1/DTD/svg11.dtd">
<svg version="1.1" id="flag-icon-css-ck" xmlns="http://www.w3.org/2000/svg" xmlns:xlink="http://www.w3.org/1999/xlink" x="0px"
	 y="0px" viewBox="0 0 640 480" enable-background="new 0 0 640 480" xml:space="preserve">
<g>
	<polygon fill="none" points="437.5,480 444.5,480.6 457.4,481.8 466.4,480 	"/>
	<path fill="none" d="M640,323.9c4.3-5.9,4.3-6.7,3.7-11.5c-0.4-2.4-0.7-3-2.6-3.9c-0.4-0.2-0.8-0.4-1.1-0.5V323.9z"/>
	<path fill="#000066" d="M638.8,307.5c-0.2,0-1.3,1.8-2.4,3.9l-2.2,4l-4.3,0.2l-4.3,0.2l-2.1,2.9c-1,1.4-1.9,2.8-2.5,4.2l1.2,0.6
		l-1.6,0.3c-0.6,1.5-1,3.1-1.2,4.8c-0.3,2.1-0.1,2.6,1.8,4.1l2.1,1.8l5.1-0.8l5.1-0.8l5.4-7.3c0.5-0.6,0.9-1.2,1.3-1.7V308
		C639.4,307.7,638.9,307.5,638.8,307.5z"/>
	<path fill="#000066" d="M593.3,415.4c-1.2,0.3-1.8,1.1-2.3,3.5c-0.8,2.9-0.7,3.1,1.1,5.7l1.9,2.8l2.3-1.2c3.3-1.7,4-5,2.1-9.1
		C597.4,414.7,596.5,414.4,593.3,415.4z"/>
	<path fill="#000066" d="M627.3,380.7c1.4-4.6,1.4-5.2-0.8-6c-1.8-0.6-1.9-0.6-5.1,4.3c-2.6,3.9-3.2,5.3-3,7
		C618.9,391,625.3,387.1,627.3,380.7z"/>
	<path fill="#000066" d="M150,11.3l-6.1,1.5c-9.5,2.2-9.7,2.3-14.6,1.4c-4-0.6-8.3-0.6-21.9,0c-9.3,0.4-17.1,1-17.3,1.3
		c-1.9,2.1-5,5.5-8.9,9.7L150,67.7V11.3z"/>
	<path fill="#000066" d="M1.8,148l2,13.9c1.2,8.3,3.4,21.3,5,29.8l71-43.8H1.8z"/>
	<path fill="#000066" d="M51.8,56.7c-2.7,2.9-5.4,5.7-8,8.4L35.4,74h44.4L51.8,56.7z"/>
	<path fill="#000066" d="M474.1,478.5c9.2-1.9,23.8-5,32.6-6.9l16-3.6l16-8.2c8.8-4.5,18.7-9.7,22-11.5c5.5-3.1,6.1-3.6,8.3-7.3
		c2-3.4,2.3-4.6,2.3-7.8c0-3.5,0.3-4.2,3.3-9.1c1.8-2.9,5.5-7.9,8.2-11.2s5.1-6.6,5.5-7.3c0.3-0.8,1.7-6,3.2-11.5
		c2.6-10.2,2.7-10.3,6.6-15.3c0.1-0.1,0.2-0.3,0.3-0.4l-12.8-2l-8.4,15.3l-3-17.3l-17.4-3.3l15.6-8l-2.3-17.4l12.6,12.3l16.2-7.2
		l-7.8,15.6l9.1,9.7c1.9-2.6,4.1-5.7,5.6-7.9c3.7-5.6,3.8-5.6,3.8-10c0-2.8-0.6-6.3-1.5-9.5c-2.3-7.9-1.4-16.2,2.1-22.6l-5.4,1.1
		l-2.7,17.3l-8.7-15.1l-17.4,2.9l12-13l-8.1-15.5l16,7.2l12.5-12.5l-2,17.4l8.5,4.2c2.1-2,2.2-2.6,2.2-5.5c0-2.8,0.5-4.3,2.7-8.4
		c2.8-5.3,3.3-5.7,8.2-6.4c2.9-0.4,3.2-0.4,6.1,2.1l3.1,2.6l0.8-1.4c1.3-2.3,0.8-13.2-0.7-17.8c-1.1-3.5-1.8-4.3-7.5-9.2
		c-5.5-4.8-6.7-6.3-9.7-11.6c-5.5-9.7-12.7-26.4-17.1-39.4c-4-11.9-4-11.9-3.6-17.3c0.3-4.4,0.7-5.8,2.2-8.2c3.1-5,2.4-7.8-3.8-16.8
		l-4.1-5.8l-1.9-20.6l-1.9-20.6l-3.9-6c-3.6-5.4-4.5-6.2-10.1-10.1c-4-2.7-8.4-5-12.4-6.5c-3.4-1.3-9.5-4.1-13.7-6.4
		c-7.2-4-7.7-4.4-15.6-12.9c-4.5-4.8-11.7-13.5-16.2-19.3c-7.5-9.6-8.6-10.8-15-15.6c-3.8-2.8-10.5-7.4-14.9-10.2
		c-4.4-2.8-10.7-7.2-13.9-9.6c-3.3-2.4-8.7-6.3-12-8.6l-6-4.1l-26,5.5c-14.3,3-33.3,7.3-42.3,9.6c-12.7,3.2-20,4.6-32.6,6.4
		c-16.5,2.3-24.1,2.7-34.4,0.9l-40.6,25H360v14.8v44.4V148h-79.8l79.8,49.2v8.2v16.5v0.1h-40.2L210,154.3V222h-12h-36h-12v-67.7
		L40.2,222H26.8H12.4l0.1,3.9c0.4,17.2,0.4,17.3,3.8,36.7c1.9,10.7,3.8,22.1,4.4,25.4c0.5,3.3,1.1,6.6,1.3,7.3
		c0.2,0.9,2.3,2.8,5.3,4.9l4.9,3.5l0.4,3.9c0.2,2.2,1.1,7.2,1.9,11.2c1.4,7.1,1.7,7.5,9.9,22.1c6.7,11.9,9.9,16.8,15.7,24.2l7.4,9.3
		l20.1,5.5c11.1,3,26,6.7,33.1,8c17.1,3.4,38.8,9.4,58,16.1c14.9,5.1,16.3,5.8,27,12l11.2,6.6l14.2,3.3
		c27.7,6.5,70.8,12.7,121.7,17.4l17.2,1.6l5.1,3.9c2.8,2.2,10.7,7.4,17.5,11.7c10.3,6.3,14.6,8.6,25.7,13.3l13.2,5.6l6,0.5h28.9
		L474.1,478.5z M514.7,428.2l-1.2,17.5l-10-14.3l-17,4.4l10.8-13.9l-9.4-14.7l16.6,5.7l11.4-13.5l-0.5,17.4l16.3,6.4L514.7,428.2z
		 M572.9,397l-14.7,9.2l3.8,17.3L548.5,412l-15,8.6l6.3-16.3l-13.1-12.1l17.4,1.5l7-16l4.4,17.2L572.9,397z M594.9,248.5l5.5,16.6
		l17.5,0.3l-14.2,10.7l4.7,16.8l-14.1-10L579.7,293l5.4-16.8l-13.8-10.6l17.6-0.4L594.9,248.5z M571,222.4l15.9-7.4l-8.3,15.8
		l11.5,13.1l-17-2.8l-9,15.5L562,239l-17-3.5l15.7-8l-1.7-17.7L571,222.4z M513.9,187.5l16.7,5.8l11-13.5v17.6l16.4,6.4l-16.8,5
		l-0.8,17.5l-10.2-14.4l-17,4.3l10.4-13.9L513.9,187.5z M480.4,185.5l6-16.5l5.6,16.5l17.7,0.5l-14.1,10.5l5,16.7l-14.5-10
		l-14.5,9.8l5.2-16.7l-14-10.6L480.4,185.5z M431,198v-17.4l10.9,13.5l16.8-5.6l-9.8,14.7l10.3,14l-17-4.5l-10.4,14.2l-0.7-17.5
		l-16.8-5.2L431,198z M384,211l15.2,8.2l13.3-11.8l-3.4,17.4l14.9,8.9l-17.3,2.5l-4.1,17.4l-7.4-15.8l-17.4,1.8l12.8-12.3L384,211z
		 M371.5,262.3l7-16.4l4.3,17.2l17.2,1.5l-14.6,9.8l3.6,17.4l-13.3-11.1l-15,9.2l6.4-16.7l-12.9-11.6L371.5,262.3z M361.3,326.6
		l-16.4-5.5l16.1-6.2v-18l10.7,14.1l16.4-5.6l-9.6,15l10.1,14.4l-16.5-4.8L362,344.5L361.3,326.6z M387.5,391l-7.8-16l-17.1,1.6
		l12.2-12.3l-7.1-16.4l15.3,8.5l12.8-11.8L393,362l15,9.2l-17,2.4L387.5,391z M425.5,425.8l-12.7-12.4l-15.6,7.6l7.3-15.9
		l-12.3-12.9l17.3,2.6l8-15.5l3.4,17.4L438,400l-15.1,8.2L425.5,425.8z M449.4,428.6l-17.2-4l15.8-7.4l-1.7-17.5l12.2,12.8l16.2-6.8
		l-8.3,15.3l11.7,13.2l-17.4-3.3l-8.9,15L449.4,428.6z"/>
	<path fill="#000066" d="M635.7,341.4c-1.8-1.1-3.7-1.9-4.1-1.8c-0.5,0-1.8,0.2-2.9,0.3s-2.7,1.1-3.6,2l-1.6,1.7l1.8,2.6l1.9,2.6
		l-1.9,2.6c-1.5,2.1-1.8,3.1-1.8,6.3c0,3.6,2,9.4,3.3,9.4c0.3,0,2.6-1.1,5.2-2.6c4.1-2.2,4.8-2.8,5.3-4.8c2.3-8.8,2.5-10.1,2.2-13.1
		C638.9,343.6,638.7,343.3,635.7,341.4z"/>
	<path fill="#000066" d="M270,30.7l-13.6-9.2c-10-6.8-17.7-11.4-22.5-13.7c-7.2-3.4-7.3-3.5-15.4-4c-2.9-0.2-6-0.4-8.4-0.5v64.5
		L270,30.7z"/>
	<path fill="#FFFFFF" d="M79.8,148l-71,43.8c0.1,0.5,0.2,1,0.3,1.5l3.1,15.4l0.1,5.7L120,148H79.8z"/>
	<polygon fill="#FFFFFF" points="360,205.4 360,197.2 280.2,148 266.8,148 	"/>
	<polygon fill="#FFFFFF" points="146.8,148 26.8,222 40.2,222 150,154.3 150,148 	"/>
	<path fill="#FFFFFF" d="M150,74v-6.3L81.2,25.3c-4.2,4.5-9.3,10-14.7,15.8L120,74H150z"/>
	<path fill="#FFFFFF" d="M280.2,74l40.6-25c-3-0.5-6.2-1.2-9.9-2.2c-6-1.4-13.4-2.8-16.3-3.1c-2-0.1-3.8-0.3-4.8-0.5L240,74H280.2z"
		/>
	<path fill="#FFFFFF" d="M93.2,74L56.7,51.5c-1.7,1.8-3.3,3.5-4.9,5.2l28,17.3H93.2z"/>
	<polygon fill="#FFFFFF" points="210,74 213.2,74 281.7,31.8 279.5,31.8 271.6,31.8 270,30.7 210,67.7 	"/>
	<polygon fill="#FFFFFF" points="210,148 210,154.3 319.8,222 360,222 240,148 	"/>
	<path fill="#FFFFFF" d="M198,88.8h162V74h-79.8H240h-26.8H210v-6.3V3.2c-1.4-0.1-2.5-0.2-3.2-0.3c-1.8-0.1-3.9,0.2-8.8,1.3V88.8z"
		/>
	<polygon fill="#FFFFFF" points="162,88.8 162,11.4 160.9,11.2 153.5,10.5 150,11.3 150,67.7 150,74 120,74 93.2,74 79.8,74 
		35.4,74 21.7,88.5 21.5,88.8 	"/>
	<polygon fill="#FFFFFF" points="198,133.2 198,222 210,222 210,154.3 210,148 240,148 266.8,148 280.2,148 360,148 360,133.2 	"/>
	<polygon fill="#FFFFFF" points="120,148 146.8,148 150,148 150,154.3 150,222 162,222 162,133.2 3.1,133.2 2.9,134.7 1.5,145.9 
		1.8,148 79.8,148 	"/>
	<path fill="#CC0000" d="M240,74l49.9-30.7c-0.4-0.1-0.8-0.1-0.8-0.2c-0.2-0.2-0.6-2.8-1-5.8l-0.6-5.5h-5.7L213.2,74H240z"/>
	<polygon fill="#CC0000" points="146.8,148 120,148 12.3,214.4 12.4,222 26.8,222 	"/>
	<polygon fill="#CC0000" points="240,148 360,222 360,221.9 360,205.4 266.8,148 	"/>
	<path fill="#CC0000" d="M120,74L66.5,41c-3.2,3.4-6.5,7-9.8,10.5L93.2,74H120z"/>
	<path fill="#CC0000" d="M162,133.2V222h36v-88.8h162V88.8H198V4.2c-2.9,0.7-6.8,1.7-12.2,3.1L168.2,12l-6.2-0.6v77.4H21.5L13,105.9
		l-8.7,17.4l-1.3,9.8H162z"/>
	<path fill="#FFFFFF" d="M598.9,350.7l-16.2,7.2l-12.6-12.3l2.3,17.4l-15.6,8l17.4,3.3l3,17.3l8.4-15.3l12.8,2
		c0.5-0.7,1.1-1.5,1.8-2.3l-9.1-9.7L598.9,350.7z"/>
	<polygon fill="#FFFFFF" points="478.1,434.2 466.4,421 474.7,405.7 458.5,412.5 446.3,399.7 448,417.2 432.2,424.6 449.4,428.6 
		451.8,445.9 460.7,430.9 	"/>
	<polygon fill="#FFFFFF" points="393,362 395.8,344.6 383,356.4 367.7,347.9 374.8,364.3 362.6,376.6 379.7,375 387.5,391 
		391,373.6 408,371.2 	"/>
	<polygon fill="#FFFFFF" points="420.9,396.7 417.5,379.3 409.5,394.8 392.2,392.2 404.5,405.1 397.2,421 412.8,413.4 425.5,425.8 
		422.9,408.2 438,400 	"/>
	<path fill="#FFFFFF" d="M608.4,298.4l-12.5,12.5l-16-7.2l8.1,15.5l-12,13l17.4-2.9l8.7,15.1l2.7-17.3l5.4-1.1c1.1-2,2.4-3.8,4-5.3
		c0.3-0.3,0.5-0.5,0.7-0.7l-8.5-4.2L608.4,298.4z"/>
	<polygon fill="#FFFFFF" points="551.1,377.7 544.1,393.7 526.7,392.2 539.8,404.3 533.5,420.6 548.5,412 562,423.5 558.2,406.2 
		572.9,397 555.5,394.9 	"/>
	<polygon fill="#FFFFFF" points="571.3,265.6 585.1,276.2 579.7,293 594.3,282.9 608.4,292.9 603.7,276.1 617.9,265.4 600.4,265.1 
		594.9,248.5 588.9,265.2 	"/>
	<polygon fill="#FFFFFF" points="545,235.5 562,239 564.1,256.6 573.1,241.1 590.1,243.9 578.6,230.8 586.9,215 571,222.4 
		559,209.8 560.7,227.5 	"/>
	<polygon fill="#FFFFFF" points="515.9,399.4 504.5,412.9 487.9,407.2 497.3,421.9 486.5,435.8 503.5,431.4 513.5,445.7 
		514.7,428.2 531.7,423.2 515.4,416.8 	"/>
	<path fill="#FFFFFF" d="M620.9,322.9c-0.1,0.3-0.3,0.6-0.4,0.9l1.6-0.3L620.9,322.9z"/>
	<polygon fill="#FFFFFF" points="471.6,213 486.1,203.2 500.6,213.2 495.6,196.5 509.7,186 492,185.5 486.4,169 480.4,185.5 
		462.8,185.7 476.8,196.3 	"/>
	<polygon fill="#FFFFFF" points="360.7,289.9 375.7,280.7 389,291.8 385.4,274.4 400,264.6 382.8,263.1 378.5,245.9 371.5,262.3 
		354.2,261.6 367.1,273.2 	"/>
	<polygon fill="#FFFFFF" points="395.2,237.8 402.6,253.6 406.7,236.2 424,233.7 409.1,224.8 412.5,207.4 399.2,219.2 384,211 
		390.6,227.3 377.8,239.6 	"/>
	<polygon fill="#FFFFFF" points="530.2,211.9 540.4,226.3 541.2,208.8 558,203.8 541.6,197.4 541.6,179.8 530.6,193.3 513.9,187.5 
		523.6,202.3 513.2,216.2 	"/>
	<polygon fill="#FFFFFF" points="431.8,226.9 442.2,212.7 459.2,217.2 448.9,203.2 458.7,188.5 441.9,194.1 431,180.6 431,198 
		414.3,204.2 431.1,209.4 	"/>
	<polygon fill="#FFFFFF" points="388.6,334.8 378.5,320.4 388.1,305.4 371.7,311 361,296.9 361,314.9 344.9,321.1 361.3,326.6 
		362,344.5 372.1,330 	"/>
</g>
</svg>
