<?xml version="1.0" encoding="utf-8"?>
<!-- Generator: Adobe Illustrator 17.1.0, SVG Export Plug-In . SVG Version: 6.00 Build 0)  -->
<!DOCTYPE svg PUBLIC "-//W3C//DTD SVG 1.1//EN" "http://www.w3.org/Graphics/SVG/1.1/DTD/svg11.dtd">
<svg version="1.1" id="flag-icon-css-cm" xmlns="http://www.w3.org/2000/svg" xmlns:xlink="http://www.w3.org/1999/xlink" x="0px"
	 y="0px" viewBox="0 0 640 480" enable-background="new 0 0 640 480" xml:space="preserve">
<g>
	<path fill="#007A5E" d="M212.3,253.9l-0.7-2.1l-0.7-2.1l-6,4.9c-4.3,3.5-6.4,4.9-7.2,4.9c-0.7,0-2,0.1-3,0.3
		c-1.7,0.3-1.7,0.3-2,3.2c-0.2,1.5-0.8,4.1-1.5,5.5c-1.2,2.6-1.3,2.7-3,2.7c-1.5,0-2,0.2-2.6,1.4c-0.7,1.4-2.1,1.9-4.5,1.9
		c-1.1,0-1.6,1-1.6,3.4c0,1.1-0.2,1.3-1.4,1.3c-1.2,0-1.6,0.4-3.3,3.5c-1.8,3.3-2.1,3.5-3.8,3.8c-1.6,0.3-2.5,1-6.8,5.6
		c-2.9,3.1-5.3,5.3-5.8,5.3c-0.5,0-1.1,0.4-1.3,0.9c-0.3,0.5-1.1,1.1-1.9,1.4c-0.9,0.4-1.4,0.8-1.2,1.4c0.7,2.5,0.7,3.6,0.1,4.5
		c-0.9,1.3-0.4,3.5,1.3,5.2l1.4,1.5l-1,1c-0.5,0.6-1.5,2.1-2.2,3.5c-1.1,2.1-1.2,3-1.2,7.3c0,4.8,0,4.8-1.4,6.2
		c-0.8,0.7-2.1,2.8-2.9,4.6c-1,2.1-2,3.5-2.7,3.9c-1,0.5-1.2,0.8-1,2.3c0.2,1.5,0,2-1.4,3.3l-1.6,1.6l0,5.3c0,4.6,0.2,5.4,0.9,5.9
		c1.1,0.8,2.7,0.8,3.4,0.1c0.3-0.3,0.6-1.6,0.6-2.8c0-2.2,0.6-3,1.1-1.4c0.4,1.3,2.5,3,3,2.7c0.3-0.1,0.5-0.7,0.5-1.1
		c0-0.7,0.1-0.7,0.7,0c0.6,0.8,0.7,0.8,1.1,0c0.4-0.7,0.2-1.4-0.4-2.9c-0.8-1.8-0.8-2.1-0.2-2.7c0.6-0.6,0.7-0.5,1,1
		c0.2,0.9,0.7,2.1,1.2,2.8c0.6,0.7,1.1,2.9,1.6,6.8c0.6,4.6,0.9,6,1.9,7.2c1.7,2.2,2.5,4.1,2.8,6.5c0.3,1.7,0.5,2.2,1.2,2.2
		c0.4,0,1.7,0.7,2.7,1.6c1.1,0.9,2.3,1.6,2.7,1.6s1.6,0.6,2.5,1.4c1.5,1.2,1.8,1.3,2.6,0.7c1.3-0.9,1.5-0.8,2.6,1
		c0.7,1.1,1.3,1.6,2.1,1.6c1.9,0,3.5-0.8,3.5-1.8c0-0.6,0.4-1,1-1.1c1.7-0.2,1.5-1.7-0.5-5.7c-0.1-0.2,0.2-0.3,0.7-0.3
		c0.5,0,1.4,0.8,2.1,1.9c1.7,2.4,2.8,3,3.6,2.1c1.3-1.6,1.6-0.7,0.6,2c-0.1,0.4,0.6,0.7,2.1,0.9c2.2,0.3,2.3,0.4,1.7,1.1
		c-0.6,0.7-0.6,0.9-0.1,1.5c0.5,0.5,0.5,0.9,0,2l-0.6,1.4l-1.4-1.3l-1.4-1.2l-0.3,1.3c-0.6,2.5-0.6,2.6-1.6,1.9
		c-0.7-0.4-1-0.5-1.4,0c-0.4,0.4-0.1,1,1.2,2.5c1.5,1.7,1.7,2.3,1.7,4.5c0,2.1,0.1,2.5,0.9,2.5c0.6,0,1.1,0.5,1.4,1.6
		c0.3,0.9,0.7,1.6,1,1.6c0.6,0,3.2,2.8,6.7,7c2,2.4,2.5,3.5,2.8,5.4c0.2,1.3,0.6,2.9,1,3.6c1,1.9,0.8,3.8-0.5,5
		c-1.1,1-1.2,1.4-1.2,6.3c0,4.9-0.1,5.5-1.7,9.4c-1.5,3.9-1.6,4.4-1.4,7.6c0.1,2,0.1,3.8-0.2,4.3c-1.2,2.2,1.5,6.7,4.3,7.3
		c0.8,0.1,1.8,0.7,2.3,1c0.7,0.7,1,0.7,2.1,0.2c1-0.4,1.7-0.4,3.2,0.1c1.6,0.6,2,0.6,2.8,0c0.2-0.2,0.7-0.3,1.9-0.4V253.9
		L212.3,253.9z"/>
	<path fill="#007A5E" d="M144.8,412.1l2.6,0.3l1-2c0.6-1.1,2.1-3.9,3.4-6.2s2.4-4.6,2.4-5.2c0-0.6,0.7-1.9,1.6-2.9
		c1.3-1.4,1.6-2.2,1.6-3.7c0-2.6-1.5-3.7-3.8-2.9c-2.1,0.7-3.5,0.7-4.3-0.2c-1.4-1.4-2.3-0.8-3.9,2.2c-0.8,1.6-1.7,3.8-1.8,4.9
		c-0.1,1.1-0.6,2.2-0.9,2.5c-0.4,0.3-0.7,0.9-0.7,1.4c0,0.6-0.5,0.9-1.7,1.2c-1,0.2-2.4,0.9-3.3,1.8c-1.9,1.7-2.1,4.3-0.6,6.6
		C137.4,411.4,137.1,411.3,144.8,412.1z"/>
	<path fill="#CE1126" d="M392.2,3.9c-1.6,0-2.6-0.2-3-0.7c-0.6-0.7-1.9-1-1.9-0.4c0,1.1,1.3,2.1,3.5,2.8c1.4,0.4,2.5,0.9,2.3,1.2
		c-0.5,0.7-2.9,0.5-4.2-0.3c-1-0.7-1.3-0.7-2.8,0c-2.1,1-2.5,1.6-1.5,2.3c0.5,0.3,0.8,0.9,0.8,1.4c0,1.1-1.6,4.1-2.8,5.1
		c-0.9,0.8-0.9,0.9,0,2.6c1,2,2.7,2.9,7.4,3.7c2.8,0.6,3,0.7,7,4.8l4.1,4.2l-0.2,3.8c-0.1,2.5-0.5,4.4-1,5.6c-0.5,1-0.9,2.7-0.9,4
		c0,1.4-0.3,2.8-0.9,3.7c-0.9,1.4-0.9,1.5,0,2.1c1.3,0.9,1.9,3.6,1.4,6.1c-0.4,1.9-0.6,2.1-2.1,2.4c-2.1,0.4-6.2,3.5-7.8,5.8
		c-0.9,1.4-1.5,1.9-2.5,1.9c-0.7,0-2.1,0.5-2.9,1.2c-0.9,0.7-2.4,1.4-3.3,1.7c-1.5,0.4-1.9,0.4-3.1-0.5c-1.4-1-2.8-1.2-3.6-0.6
		c-0.3,0.2-1,1.2-1.7,2.2c-0.7,1-2.1,2.9-3.2,4.2c-1,1.3-1.9,2.7-1.9,3.1c0,0.6-0.4,0.8-1.1,0.8c-1.4,0-4,3.8-4,5.9
		c0,0.9-0.5,1.8-1.4,2.7c-1,0.9-1.4,1.8-1.4,2.9c0,1.1-0.2,1.6-0.9,1.8c-1.6,0.5-2.7,3.7-3.5,9.7c-0.2,1.4-0.7,2.8-1.4,3.6
		c-0.8,1-1.1,1.9-1.1,3.5c0,1.2-0.2,2.3-0.5,2.4c-0.3,0.2-0.4,1-0.2,1.9c0.2,1.4,0.1,1.9-1,3c-0.7,0.7-1.6,1.4-1.9,1.4
		c-0.4,0-1.8,1.1-3.2,2.4c-2.1,2-2.5,2.7-2.5,3.9c0,0.8-0.3,1.8-0.7,2.1c-1.1,0.9-0.9,3.7,0.3,5c1,1,1,1.1,0.2,2.7
		c-0.4,0.9-0.8,2.7-0.8,3.9c0,1.9-0.2,2.5-1.3,3.5c-0.7,0.7-2.2,1.4-3.3,1.6c-1.2,0.3-3.5,1.6-5.8,3.4c-2.1,1.6-4.2,3-4.6,3.3
		c-0.6,0.3-0.5,0.6,0.4,1.5c1.2,1.3,1.3,2.9,0.3,5.4c-1.4,3.7-3.2,11.7-3.4,15.4l-0.2,3.8l-1.9,0.3c-1.5,0.3-1.8,0.5-1.8,1.4
		c0,1.3-1.4,2.6-2.6,2.6c-0.5,0-1.4,0.6-2.1,1.2c-1.2,1.1-1.3,1.2-2.6,0.5c-1.2-0.6-1.5-0.6-2.6,0c-1.1,0.6-1.3,0.9-1.3,3
		c0,2.1-0.1,2.3-1.1,2.3c-0.6,0-1.7,0.6-2.4,1.4c-0.7,0.7-1.7,1.4-2.1,1.4c-0.5,0-1.4,0.8-2.2,1.7c-1.4,1.7-1.4,2-1.4,5.8
		c0,3.7-0.1,4.1-1.2,5c-1.1,0.9-1.1,1-0.5,2.8l0.7,1.8l-3,5.6c-2.8,5-4.2,8.2-4.8,10.7l16-0.1l12.9-39.2l12.9,39.2l41.2,0.2
		l-33.3,24.4l12.6,39.3L320,261.9L286.6,286l12.6-39.3l-13.6-10c-0.9,1.4-1.7,2.4-2.2,2.5c-1.2,0.2-1.3,0.5-0.7,2.1
		c0.2,0.6,0.5,2.3,0.6,3.9l0.1,2.7l-1.6,0.4c-0.9,0.2-2.8,0.9-4.2,1.6c-2.1,1-2.9,1.6-4.3,4.1c-1.2,2-1.6,3-1.3,3.6
		c0.3,0.5,0,1.4-1,2.9c-0.9,1.4-1.4,2.8-1.4,4c0,1.7-0.1,1.9-1.7,2.2c-1.4,0.3-1.8,0.7-2.1,1.9c-0.3,1-0.7,1.5-1.2,1.5
		c-0.5,0-1.3,0.3-1.8,0.7c-1.2,0.9-1.5,0.9-1.8-0.2c-0.2-0.8-0.6-0.9-4.3-0.7c-4,0.3-4.1,0.2-4.9-0.9c-0.6-0.8-1.7-7-1.7-9.1
		c0-0.1-1.4-0.1-3.3-0.1h-3.3l-2.7-4c-2.1-3.2-3.2-4.3-5.3-5.7c-1.5-0.9-3.2-2.2-3.7-2.9c-0.6-0.7-1.1-1.1-1.2-0.8
		c-0.1,0.2-1.1,1.9-2.1,3.7l-2,3.3l-7.1,0.1l-6,0.1v203.9c2.7-0.2,9.1-0.2,24.5-0.1l25.5,0.2l0.1-2.2l0.1-2.2l2.4-0.4
		c1.4-0.3,2.9-0.2,3.4,0c0.6,0.2,2.1,0.2,4-0.1c3.3-0.6,4.7-0.7,7.9-0.2c1.2,0.2,2.9,0.1,4-0.1c1.2-0.3,2.3-0.2,3,0
		c0.7,0.4,1.3,0.3,1.9,0c1.3-0.8,8.5-0.3,9.2,0.6c0.6,0.8,1.7,0.9,3,0.1c0.7-0.5,1.1-0.4,1.9,0.3c0.9,0.8,1.1,0.8,2.5,0.1
		c1.3-0.7,1.7-0.7,2.4-0.1c1.1,0.8,2.3,0.8,4.7,0c1.7-0.6,1.9-0.6,2.4,0c0.3,0.5,0.9,0.7,1.4,0.5c0.4-0.2,2,0,3.4,0.4
		c2.5,0.7,2.6,0.7,3.6-0.2c1.3-1.2,1.6-1.2,2.7-0.2c0.7,0.6,1,0.7,2.1,0.1c0.8-0.4,2.7-0.6,4.8-0.5c1.9,0,4.1-0.1,4.8-0.4
		c1-0.4,1.7-0.3,2.9,0.3c0.9,0.4,2,0.7,2.5,0.7c0.6,0,1.1,0.6,1.4,1.6l0.6,1.6l23.8,0.1l23.7,0.1l1.3,1.2c1,1,1.3,1,1.6,0.5
		c0.2-0.4,0.5-0.8,0.5-1c0-0.6,1.5-1.2,3.5-1.5c1.7-0.3,2.1-0.1,3.8,1.4c1.4,1.2,2.4,1.6,3.6,1.6c0.9,0,2.4,0.3,3.3,0.7
		c0.9,0.4,2.2,0.7,2.9,0.7c0.9,0,1.2,0.2,1.2,1.1c0,0.6,0.5,1.6,1.1,2.1l1.1,1l0.9-1.2c0.8-1,1-1.1,1.5-0.5c0.4,0.5,0.8,0.6,1.4,0.2
		c0.7-0.3,1.2-0.3,1.9,0.2c0.8,0.6,1.3,0.6,3.3,0l0,0v-79.7c-1.5-2.5-2.4-4.4-2.4-5.4c0-0.7,1.2-1.9,2.4-2.5v-2.4
		c-0.1,0-0.1,0-0.2-0.1c-1.6-0.4-2.7-2.6-2.7-5.4c0-2.3-0.1-2.5-3.2-5.6c-1.8-1.8-3.5-3.3-3.9-3.3c-0.3,0-2.3-1.4-4.4-3l-3.8-3
		l-1-5.3c-1.5-8-1.5-8.4-1.8-11.3c-0.2-2,0-3,0.6-3.9c0.7-1.1,0.7-1.2-0.4-2.5c-0.7-0.7-1.3-2.1-1.4-3c-0.3-1.4-0.6-1.7-1.8-1.9
		c-2.1-0.5-3.6-2-3.6-3.6c0-1.1,0.3-1.4,1.4-1.8c1.3-0.5,1.4-0.7,1.4-2.3c0-1,0.3-2.5,0.7-3.2c0.6-1.2,0.6-1.4,0-2.2
		c-0.9-1.2-0.8-3.8,0.2-5.7c0.8-1.4,0.8-1.8,0.2-3.2c-0.5-1.2-0.6-2.1-0.2-3.7c0.6-2.7,0.1-3.4-2.1-3.4c-2.1,0-3.2-0.7-4.1-2.3
		c-1.2-2.2-0.9-3.8,1-5.7c0.9-0.8,2-2.1,2.3-2.9c0.6-1.1,1-1.3,2.3-1.3c1.9,0,5-1.4,6.5-3.1c0.8-0.9,1.1-1.7,1.1-3.4
		s0.2-2.4,1.1-3.3c0.7-0.6,1.3-1.7,1.4-2.5c0.2-0.8,0.8-2.3,1.4-3.4c0.6-1.1,1.5-3.1,2.1-4.6c0.9-2.3,1.1-2.6,2.3-2.6
		c2,0,4-2,4.4-4.2c0.3-1.8,2.6-6.8,4.1-9.2v-60.8c-0.3-0.5-0.6-0.9-0.8-1.4c-1.1-1.9-2.2-4.1-2.3-4.9c-0.6-2.8-0.9-3.2-3.6-3.3
		c-2.4-0.1-2.4-0.1-2.9-2c-0.2-1-0.9-2.4-1.5-2.9c-0.6-0.6-1.1-1.2-1.1-1.4c0-0.2-1.5-0.3-3.4-0.2l-3.4,0.2l-3.1-3.3
		c-1.7-1.8-3.2-3.7-3.4-4.2c-0.2-0.5-2.1-2.3-4.4-4c-5.9-4.4-6.2-4.7-6.2-6.2c0-1-1.3-2.6-6.6-8c-5.4-5.5-6.9-6.7-7.9-6.7
		c-2.9,0-2.3-2.6,1.8-7.2c2.2-2.5,3.6-4.5,4.4-6.7l1.3-3.1l4.1-0.1c5.5-0.2,13.7,0.7,17.3,1.8c2.5,0.8,3.2,0.9,4.7,0.4
		c1.2-0.4,3.2-0.5,6.4-0.3c4.4,0.3,4.8,0.2,6.7-0.9s2.1-1.2,3.5-0.4c0.2,0.1,0.4,0.2,0.5,0.2v-21.8c0,0,0-0.1-0.1-0.1
		c-1.2-1.4-1.9-2.8-2.1-4.3c-0.2-1.2-1-3.8-1.8-5.8c-1.4-3.6-1.4-4-1.4-11.4c0-5.1-0.3-8-0.7-8.7c-0.3-0.6-0.6-2.7-0.6-5
		c0-3.6,0.1-4.2,1.4-6.3c1.6-2.7,1.7-3.6,0.5-5.6c-0.7-1.2-0.9-2.3-0.9-5.4c0-3.3-0.1-4-0.9-4.7c-0.8-0.7-0.9-1.2-0.7-4.4
		c0.3-3.1,0.2-3.8-0.7-5.5c-0.7-1.3-1.5-2.2-2.6-2.6c-2.1-0.9-2.6-2-2.6-5.8c0-3.6-0.4-5.3-2.1-8.6c-0.6-1.2-1.1-2.8-1.1-3.5
		c0-2-2.7-5.3-4.3-5.4c-1,0-1.3-0.2-1.4-1.3c-0.1-1-0.4-1.3-1.6-1.4c-1-0.1-1.6-0.5-1.8-1.1c-0.2-0.6-0.7-0.9-1.4-0.9
		c-0.8,0-1.4-0.5-2-1.7L396.9,0l-1.1,1.9C394.7,3.8,394.6,3.9,392.2,3.9z"/>
	<path fill="#FCD116" d="M427.7,247.2c0.6-0.2,0.6-0.6,0.2-1.8c-0.7-2.2-0.1-5,1.1-5.6c2-1,9.7-9,9.7-10.1c0-0.6,0.4-1.3,0.9-1.7
		c0.6-0.4,1.6-1.5,2.3-2.5c1.2-1.5,1.4-2.2,1.4-4.6c0-2.7-0.1-2.9-1.9-4.7c-2.1-2.1-6.5-10.2-6.5-12.2c0-1.1-4.6-10-8.3-16.4v60.8
		C427.1,247.8,427.5,247.3,427.7,247.2z"/>
	<path fill="#FCD116" d="M429.9,123.3c1.4-0.2,2.7,0,3.8,0.4c1.4,0.6,2.4,0.6,6.3,0.2c6.2-0.7,7-1.4,4.4-3.9c-0.8-0.7-2.9-2.1-4.5-3
		c-2.4-1.3-3.2-2-3.6-3.1c-0.7-2.1-3.5-5.2-5.5-6.3c-1.4-0.7-1.8-1.3-2.1-2.6c-0.1-1-1.1-2.6-2-3.8V123
		C427.6,123.4,428.5,123.5,429.9,123.3z"/>
	<path fill="#FCD116" d="M429,463.6l1.7,1.9c2.2,2.4,3.4,2.7,6,1.7c1.5-0.6,2.8-0.7,5-0.5c1.6,0.1,4.3,0.4,6.1,0.6
		c2.7,0.3,3.3,0.5,3.9,1.4c0.5,0.7,1.2,1.1,2,1.1c0.8,0,1.9,0.6,3.1,1.9c1.4,1.4,2.2,1.9,3.3,1.9c2.7,0,3.5,0.5,4,2.4
		c0.7,2.3,2.1,3.2,3.1,1.9c0.4-0.6,1.1-1,1.7-1.1c0.9-0.1,1-0.4,0.8-2.5c-0.2-2.8-0.5-3.4-2.7-5.9c-1.4-1.5-1.6-2.1-1.4-3.1
		c0.2-0.7,0.4-1.8,0.5-2.5c0-0.7,0.4-1.7,0.7-2.2s0.5-1.9,0.5-3.1c0-1.9,0.1-2.1,0.8-1.7c0.5,0.3,1.3,0.3,1.9,0.2l1-0.2l-0.9-2.3
		c-0.5-1.3-0.9-3-0.9-3.8c0-0.8-0.5-2.4-1.2-3.5c-0.8-1.4-1.1-2.4-0.8-3.4c0.1-0.9,0-2.1-0.6-3.2c-0.8-1.8-0.8-1.9,0-3.5
		c0.8-1.5,0.8-1.6,0.1-2.5c-0.9-1-1.1-3.9-0.3-5.3c0.7-1.4-2.3-6-4.1-6c-1.2,0-2.9-1.4-4.5-3.9c-0.5-0.7-1.2-1.2-1.5-1
		c-0.4,0.1-0.9,0.1-1.3,0c-0.4-0.1-3.6-3.5-7.1-7.3c-3.6-3.9-8.2-9-10.3-11.2c-4.1-4.3-8.2-9.8-10.8-14v79.7L429,463.6z"/>
	<path fill="#FCD116" d="M426.9,376.6c0,0,0.2-0.5,0.4-1.1c0.3-0.8,0.1-1.1-0.6-1.3v2.4C426.8,376.7,426.8,376.6,426.9,376.6z"/>
	<polygon fill="#FCD116" points="320,183.1 307.1,222.3 314.3,222.2 	"/>
	<polygon fill="#FCD116" points="317.2,222.2 317.2,222.2 320,222.2 322.8,222.2 322.8,222.2 332.9,222.3 320,183.1 314.3,222.2 	
		"/>
	<polygon fill="#FCD116" points="322.8,222.2 322.9,230.5 323.7,229.4 324.5,230.9 374.1,222.4 332.9,222.3 	"/>
	<polygon fill="#FCD116" points="317.2,222.2 320,222.2 317.2,222.2 	"/>
	<polygon fill="#FCD116" points="324.5,230.9 325.4,232.6 328.9,233.2 328.1,234.3 336.1,231.9 340.8,246.8 374.1,222.4 	"/>
	<polygon fill="#FCD116" points="336.1,231.9 328.1,234.3 327,235.7 329.1,239.6 331.2,240.3 330.1,241.5 353.4,286 340.8,246.8 	
		"/>
	<polygon fill="#FCD116" points="324.5,230.9 323.7,229.4 322.9,230.5 322.9,232.2 325.4,232.6 	"/>
	<polygon fill="#FCD116" points="330.1,241.5 327,244.6 332.7,252.8 320,261.9 353.4,286 	"/>
	<polygon fill="#FCD116" points="329.1,239.6 327,235.7 325.1,238.4 	"/>
	<polygon fill="#FCD116" points="332.7,252.8 327,244.6 323.2,248.5 323.2,250.8 321.7,250 286.6,286 320,261.9 	"/>
	<polygon fill="#FCD116" points="321.7,250 317.8,248.1 311.8,256 299.2,246.8 286.6,286 	"/>
	<polygon fill="#FCD116" points="327,244.6 330.1,241.5 331.2,240.3 329.1,239.6 325.1,238.4 323.1,241 323.2,248.5 	"/>
	<path fill="#FCD116" d="M311.8,256l6-8l-30.3-15c-0.5,1.2-1.2,2.6-1.9,3.7l13.6,10L311.8,256z"/>
	<polygon fill="#FCD116" points="325.1,238.4 327,235.7 328.1,234.3 328.9,233.2 325.4,232.6 322.9,232.2 323.1,241 	"/>
	<path fill="#FCD116" d="M317.8,248.1l3.9,1.9l1.5,0.8l0-2.3l-0.1-7.5l-0.1-8.8l0-1.6l-0.1-8.3l0,0l-2.8,0l-2.8,0l-2.9,0l-7.2,0
		l-16,0.1c-0.3,1.2-0.4,2.2-0.3,3.1c0.2,2.1,0.1,2.2-1.2,2.8c-1,0.4-1.3,0.8-1.3,2c0,0.6-0.3,1.7-0.8,2.8L317.8,248.1z"/>
</g>
</svg>
