<?xml version="1.0" encoding="utf-8"?>
<!-- Generator: Adobe Illustrator 17.1.0, SVG Export Plug-In . SVG Version: 6.00 Build 0)  -->
<!DOCTYPE svg PUBLIC "-//W3C//DTD SVG 1.1//EN" "http://www.w3.org/Graphics/SVG/1.1/DTD/svg11.dtd">
<svg version="1.1" id="flag-icon-css-cn" xmlns="http://www.w3.org/2000/svg" xmlns:xlink="http://www.w3.org/1999/xlink" x="0px"
	 y="0px" viewBox="0 0 640 480" enable-background="new 0 0 640 480" xml:space="preserve">
<g>
	<path fill="#DE2910" d="M586.1,48.8c0-1.9-0.1-2.1-1.8-2.3c-1.4-0.1-2.5,0.3-4.7,2c-1.6,1.2-2.9,2.6-2.9,3.1c0,0.7-0.4,1-1.5,1
		c-2,0-5.7,3.6-5.3,5.2c0.2,0.9-0.3,1.3-3.7,2.5c-7,2.5-8.9,3-9.1,2.3c-0.1-0.3-1.1-1.2-2.2-1.8c-1.9-1-2-1.3-1.9-3.2
		c0.2-1.8,0-2.3-1.5-3.3c-1.3-0.9-1.7-1.7-1.7-2.9c0-1.6-0.1-1.7-1.9-1.3c-1.7,0.3-2.3,0.1-4.1-1.3c-2.8-2.3-4.7-2.9-7.2-2.5
		c-1.7,0.3-2.6,0.1-4.1-0.8c-1.8-1-2.1-1.1-3.6-0.3c-0.9,0.4-2.7,0.8-4,0.8c-3.4,0-4.8-1.3-5.2-4.6c-0.2-2-0.6-2.8-1.3-2.9
		c-0.6-0.2-1-0.8-1-1.4c0-1.7-1.4-3.9-4.1-6.3c-1.4-1.3-2.5-2.8-2.5-3.4c0-0.6-0.6-1.8-1.4-2.7c-0.8-0.9-1.4-1.9-1.4-2.1
		c0-0.3-0.7-1.2-1.7-2.1c-0.9-0.9-1.7-2.1-1.7-2.8c0-0.7-0.3-1.5-0.8-1.7c-0.4-0.2-1.2-1.4-1.7-2.5c-0.5-1.2-1.4-2.2-2-2.4
		c-0.6-0.2-1-0.6-1-0.8c0-0.9-3.6-3.9-4.8-3.9c-0.7,0-1.8-0.2-2.6-0.5c-0.9-0.4-1.9-0.3-3,0.1c-1.5,0.6-2.1,0.4-4.8-0.9
		c-4.3-2.1-7.5-2.3-11-0.7c-1.5,0.7-3.6,1.5-4.7,1.7c-1,0.2-3.6,1.4-5.6,2.5c-2,1.2-4.3,2.1-5,2.1c-1,0-2,0.9-4.1,3.7
		c-1.5,2.1-2.9,4.2-3,4.7c-0.4,1.1,0.8,1.7,2.6,1.2c2.4-0.6,3.4,0.6,4,4.6c0.4,2.8,0.4,3.9-0.1,4.3c-2.6,2.3-4.2,4.8-4.2,6.9
		c0,1.2-0.2,2.3-0.6,2.5c-0.3,0.2-0.6,1.2-0.6,2.2s-0.2,2-0.6,2.2c-0.3,0.2-0.6,1-0.6,1.8c0,0.8-0.6,2.7-1.3,4.2
		c-1.3,2.7-1.3,2.8-0.3,2.9c2.9,0.5,1.7,4-1.7,5c-1.3,0.4-2.3,0.9-2.3,1.2c0,0.3-1.2,1.9-2.6,3.6c-1.8,2.2-2.8,3-3.4,2.8
		c-0.5-0.2-2.4-0.6-4.2-0.8c-1.8-0.3-3.8-0.7-4.5-0.8c-1-0.3-1.3,0.2-3,5.9c-1,3.4-1.8,6.7-1.7,7.3c0.1,0.6-0.4,1.9-1,2.9
		c-0.7,1.2-1,2.3-0.8,3c0.3,0.8,0,1.5-0.8,2.4c-1.7,1.8-1.1,4.2,1.4,5.6c1.9,1,1.9,1,3.1-0.2c0.7-0.6,2.4-1.4,3.7-1.7
		c2-0.5,2.6-0.4,4.1,0.5c0.9,0.6,2.4,1,3.2,1c1.2,0,1.6-0.4,2.2-2.4c0.7-2.1,1-2.4,3.4-2.8c2.3-0.4,2.9-0.3,5.5,0.9
		c1.6,0.8,3.3,1.5,3.9,1.5c0.5,0,0.9,0.4,0.9,0.8c0,0.4,1.2,1.4,2.5,2.3c4.4,2.6,7.1,7.8,5,9.5c-0.4,0.3-3.5,0.7-7,0.9
		c-5.7,0.3-6.3,0.4-7.7,1.7c-0.9,0.9-2.1,1.4-3.2,1.4c-1.5,0-1.9,0.3-2.3,1.7c-0.6,1.4-0.9,1.7-2.6,1.7c-1.2,0-2.6,0.4-3.2,1
		c-1.7,1.3-3.5,5.2-3.5,7.3c0,1.1-0.3,1.8-0.9,2c-0.6,0.2-1.7,1-2.6,1.8c-1.9,1.7-6.2,3.3-8.9,3.3c-1.5,0-1.8,0.2-1.8,1.3
		c0,1.3-4.5,6.1-7.1,7.4c-1.8,1-8.4,0.3-10.2-1.1c-0.9-0.7-2.2-1-3.9-1h-2.5l-2.3,4.7L390,138l2.2,2.6c1.2,1.5,2.7,3.1,3.3,3.6
		c0.6,0.6,1,1.4,0.8,1.9c-0.3,1-3.7,3.8-6.6,5.2c-0.9,0.5-2.4,1.9-3.2,3.2c-3.4,5.1-5.3,7-7,7c-0.9,0-2.5,0.6-3.6,1.4
		c-1.4,0.9-2.8,1.4-4.3,1.4c-1.3,0-2.5,0.3-2.6,0.6c-0.2,0.3-1.8,0.5-3.7,0.4c-1.9-0.1-4.3,0.2-5.5,0.6c-1.4,0.4-2.4,0.5-3,0.2
		c-0.7-0.4-1.3-0.3-2.3,0.5c-0.7,0.6-2,1-2.9,1c-2.5,0-9.5,3.3-15.2,7.2l-5.2,3.4l-1.8-0.9c-1.4-0.7-1.9-1.2-1.9-2.3
		c0-1.4,0-1.4-2-0.6c-3,1.2-5.1,1-10.5-1c-2.6-1-5.8-2-7-2.2c-2.6-0.4-3.4-1-5.2-3.5c-0.4-0.5-0.7-0.9-1-1.2l-4.7,3.9l5.6,16.6
		l-14-9.6l-14,11.6l5.1-17.7l-11.4-7.8c-4.9-0.7-6.9-0.8-7.8-0.4c-1,0.4-1.7,0.4-2.9-0.2c-0.9-0.4-2.9-0.8-4.4-0.8
		c-2.5,0-2.8-0.1-2.8-1.3c0-0.7-0.8-2-1.9-3.1c-1.5-1.4-2.1-2.9-3.4-7.1c-0.9-3.1-2-5.7-2.6-6.1c-0.6-0.4-1-1.4-1-2.3
		c0-1.4-0.2-1.6-1.8-1.6c-1.4,0-2.7-0.7-5.1-2.8c-1.8-1.5-3.8-2.9-4.4-3.1c-0.6-0.2-2.2-1.4-3.6-2.7c-2.4-2.3-2.6-2.4-6.9-2.7
		c-2.8-0.2-7-1.2-11.4-2.5l-7-2.2l-0.6-2.1c-0.8-2.9-0.8-3,1.1-5.1c1.4-1.7,1.6-2.4,1.7-5c0-2.1,0.3-3.4,0.9-3.9
		c1.2-1,0.6-5.1-1.1-7.4c-0.7-0.9-1.5-2.9-1.7-4.5c-0.6-3.4-3.3-7.5-4.8-7c-0.7,0.2-1.2-0.1-1.7-1.2c-0.5-1.1-0.9-1.4-1.8-1.1
		c-0.7,0.2-2.1,0.5-3.2,0.7c-1.7,0.2-2.1,0.1-2.1-0.7c0-0.6-0.4-2.1-0.9-3.6c-0.8-2.2-1.3-2.9-3.2-3.7c-1.9-0.9-2.3-1.4-2-2.3
		c0.2-0.7-0.1-1.8-0.7-2.6c-0.8-1.2-0.8-1.7-0.3-2.7c1-1.9,0.4-2.3-2.9-2.1c-1.6,0.1-3.7,0.2-4.7,0.2c-1.7,0.1-1.8,0.2-1.8,1.9
		c0,2.9-2.2,4.6-6.5,5.1c-3.3,0.4-3.5,0.4-4.8,2.7c-1.2,2-1.4,3-1.4,7.3c0,5.6-0.2,5.9-4.3,7.5c-3.1,1.2-3.7,1.2-5.3-0.4
		c-1-1-2-1.4-3.8-1.4c-1.7,0-3.1-0.4-4.9-1.6c-3.9-2.4-4.3-3.2-6.1-0.3l2.3,6.9H192l-44.9,30.9l16.1,48.3L120,147.9l-43.2,29.7
		l8.7-26.2c-0.1,0-0.3,0.1-0.4,0.1c-6.4,1.3-7,1.5-8.5,3.4l-1.7,1.9l-4.3-0.6c-2.4-0.3-5.3-0.9-6.4-1.4L62,154l-2.9,3.2l-2.9,3.3
		h-3.7h-3.7l-0.4-1.9c-0.4-2.3-1-2.8-2.1-1.9c-0.5,0.4-1.6,0.5-2.9,0.3c-1.6-0.2-2.9,0-5.3,1.1c-1.8,0.8-3.7,1.4-4.4,1.4
		c-1.9,0.1-3.9,1.9-4,3.7c0,1.2-0.4,1.7-1.8,2.4c-2,0.9-2.6,2.4-1.8,4.6c0.4,1.3,0.4,1.7-0.3,2.2c-0.6,0.4-0.8,1.3-0.7,2.5
		c0.2,1.8,0.3,1.9,2.5,2.3c1.8,0.2,2.9,0.8,4.4,2.3c2,2,2,2,1.3,4.5c-0.4,1.4-0.7,4.5-0.7,6.9v4.4l-1.5,0.1c-0.9,0-2.2,0-3.1-0.1
		c-1-0.1-1.6,0.2-1.9,0.8c-0.5,1.3,3.2,4.6,5.2,4.6c1.9,0,2.9,0.9,2.9,2.6c0,0.9,0.2,1.2,0.9,0.9c0.4-0.2,1.4,0.2,2.2,0.9
		c1.6,1.5,1.8,5.1,0.4,6.7c-0.7,0.8-0.8,1.3-0.3,2.4c0.4,0.7,0.7,1.9,0.7,2.5c0,0.9,0.3,1,2.1,0.7c2-0.3,2.1-0.2,2.8,1.6
		c0.9,2.6,7.8,7,10.8,7c1.8,0,2,0.2,1.9,1.2c-0.1,0.7,0.1,3.3,0.3,5.8c0.4,4.5,0.5,4.6,2.5,5.8c1.1,0.7,2.4,2.1,3,3
		c1,1.7,1,1.7,0,1.7c-1.9,0-3.4,2.9-1.7,3.4c0.4,0.2,0.4,0.6-0.3,1.5c-1.8,2.6-0.6,7.4,2.1,8c0.8,0.2,1.2,0.6,1,1.1
		c-0.2,0.4,0,1.9,0.3,3.2c0.8,3.1,0.1,4.5-2.6,4.8c-1.1,0.2-2.5,0.5-3.1,0.7c-1,0.3-1.2,0.1-1.5-1.6c-0.3-1.8-0.6-2-2.3-2
		c-1.9,0-1.9,0-1.9,2.5c0,1.7,0.4,3.2,1.2,4.5c1.1,1.7,1.1,2,0.3,2.8c-0.7,0.7-0.7,1.2-0.3,2.4c0.4,1.2,0.3,2-0.4,3.3
		c-0.9,1.8-0.9,1.8,0.4,1.4c0.7-0.2,1.5-0.6,1.8-0.9c0.7-0.7,1.9,1.2,2,2.9c0,1.9,2,4.3,3.4,4.3c1.7,0,5.6,3.4,5.3,4.5
		c-0.2,0.7,0.3,1.4,1.4,2.2c3.4,2.3,6.4,5.6,6.4,6.9c0,1.8,1.5,2.3,2.5,0.8c0.7-1,3.5-2.8,4.3-2.8c0.2,0,0.3,0.3,0.3,0.8
		c0,0.9,3.4,3.8,7.1,6.1c1.3,0.8,3,2.2,3.7,3.1c0.8,0.9,1.7,1.6,2,1.6c1,0,3.7,4.8,3.7,6.5c0,0.9,0.4,1.8,1.2,2.3
		c1.1,0.7,1.3,0.6,2.4-0.8c1-1.3,1.3-1.4,2.4-0.9c1.4,0.7,1.4,1.2,0.7,3.8c-0.6,1.8-0.4,1.9,3.1,4.7c2,1.6,3.8,2.8,4,2.8
		c0.2-0.1,0.8-0.3,1.5-0.5c1.1-0.3,1.2-0.2,1.2,1.8c0,2.4,0.6,2.9,3.2,2.9c1.2,0,1.9,0.6,3.1,2.3c0.8,1.3,1.7,2.5,1.8,2.6
		c0.1,0.1,0.7-0.1,1.3-0.4c1-0.6,1.2-0.6,1.4,0.4c0.3,1.4,2.5,2,3.1,0.9c0.8-1.4,2.4-0.9,5.7,1.8l3.2,2.6l4.7-0.1c3,0,5.7-0.4,7.6-1
		c1.6-0.6,3.2-0.8,3.7-0.7c0.9,0.3,1.2,4.5,0.3,5.8c-0.6,1,0.4,3.4,1.4,3.4c0.8,0,5.1-4.1,5.1-4.9c0-0.6,4.7-3.6,6.5-4.2
		c2.1-0.6,5.1,0.2,5.1,1.4c0,0.6,0.4,1.2,1,1.3c2.5,0.7,7.2,1.4,8.4,1.3c2.4-0.2,4.9,1.2,5.3,2.9c0.3,1.8,0.7,1.9,6.5,1.7
		c3.5-0.2,5-1,5.8-3.2c0.3-0.7,0.9-1.2,1.4-1.2c1.4,0,4.6-2.6,5.2-4.2c0.4-1.1,0.8-1.3,1.9-1c1.9,0.5,4.6-0.8,9.1-4.3
		c4.3-3.3,5.5-3.6,6.3-1.8c0.4,1,1.3,1.4,4.3,1.9c3.6,0.6,3.7,0.6,4.7-0.6c0.5-0.7,2.1-1.6,3.5-2.1c2.4-0.8,2.6-0.8,3.5,0.2
		c0.9,1,0.9,1.2-0.1,3c-1.3,2.3-0.8,2.9,1.5,2c1.6-0.6,1.9-0.6,2.8,0.5c0.9,1.2,0.9,1.3-0.7,3c-0.9,0.9-1.7,2.1-1.7,2.6
		c0,1,0.3,1.1,1.9,0.4c0.8-0.3,1.5-0.1,2.6,0.8c0.9,0.7,2.3,1.3,3.1,1.3c0.8,0,1.8,0.3,2.1,0.7c0.5,0.5,0.9,0.3,1.8-0.8
		c1.3-1.7,2.6-1.5,5.3,0.5c1.3,0.9,1.9,1.9,2.1,3.4c0.2,1.1,0.8,3.2,1.2,4.7c0.7,2.3,0.9,2.5,1.7,1.9c0.4-0.4,1.3-0.7,2-0.6
		c1,0.2,1.2,0.7,1.3,3.1c0.4,8.3,0.1,11.7-1,13.9c-1.2,2.2-1.2,2.4-0.3,3.7c1.3,1.9,1.2,2-0.7,2c-1.4,0-1.7,0.3-2,1.7
		c-0.3,1.3-0.7,1.7-1.6,1.7c-0.9,0-1.4,0.4-1.8,1.8c-0.3,1.1-0.9,1.9-1.6,2c-1.9,0.4-3.1,1.9-2.8,3.5c0.2,1.2,0,1.6-1.1,2.1
		c-1.3,0.6-1.4,0.8-1.1,3.5c0.6,4.2,0.6,6,0.1,7.4c-0.5,1.6,0.4,1.7,2.4,0.2c1.9-1.3,5.4-1.9,8.5-1.4c2.1,0.3,2.4,0.6,2.2,1.4
		c-0.2,0.6,0.1,1.8,0.4,2.8c0.4,0.9,0.7,2.4,0.6,3.2c-0.1,0.8,0.1,1.7,0.4,1.9c0.3,0.2,0.6,0.9,0.6,1.6c0,1.9,1,2.5,4,2.5
		c2.4,0,2.6,0.1,2.6,1.2c0,0.7-0.5,1.9-1.1,2.6c-0.6,0.8-1.1,2.1-1.1,2.9c0,0.9-0.6,2.4-1.4,3.4c-0.8,1-1.2,1.9-0.9,2.1
		c1,0.6,6.6,2,7.9,2c1.4,0,1.5,0.1,1.2,1.9c-0.3,1.7-0.1,2,1.2,2.5c0.9,0.4,1.4,1.1,1.4,1.9c0,1.2,0.1,1.2,1.3,0.7
		c0.9-0.4,1.8-0.4,2.9-0.1c1.3,0.5,1.8,0.3,3.4-1c2.3-2,4-2.1,4-0.3c0,0.7,0.4,1.6,0.8,2s0.8,1.3,0.8,2c0,1.2,0.2,1.3,2.4,1.2
		c1.3-0.1,2.9,0.1,3.6,0.3l1.3,0.4l-0.2-4.7c-0.2-3.5-0.4-5-1.2-5.7c-1.1-1.3-1.2-4.5-0.2-5.8c0.6-0.8,0.8-0.8,1.4-0.2
		c1,1.3,4.2,0.8,6.1-1c0.9-0.9,1.7-1.9,1.7-2.3c0-1.4,2.3-0.6,5.2,1.9l1.6,1.3l2.1-2c2-2,2.2-2,2.9-1.1c0.7,1,0.8,1,1.7-0.2l0.9-1.3
		l1.9,1.4c2.3,1.8,3.1,1.9,3.1,0.4s1.4-2,3-1.1c1,0.6,1.6,0.5,2.9-0.2c2.6-1.4,3.5-2.3,3.5-3.5c0-0.8,0.9-1.7,2.9-2.9l2.9-1.8
		l1.4,1.7c0.8,1,1.9,1.7,2.6,1.7c0.7,0,1.3,0.4,1.5,1.1c0.4,1.2,1.2,1.4,3.2,0.6c0.9-0.3,1.5-0.3,1.8,0.1c0.2,0.3,1.1,0.5,2.1,0.4
		c3.7-0.2,4.2-0.1,4.2,1.6c0,0.9-0.5,2-1.1,2.6c-1.4,1.3-1.4,2-0.1,3.2c0.6,0.6,1.2,1.7,1.3,2.4c0.1,1,0.6,1.5,1.3,1.7
		c0.6,0.1,1.6,0.8,2.2,1.4c1.8,2.1,5.7,3.5,8.1,2.9c1.6-0.4,2.3-0.3,3,0.3c1,0.8,5.1,0.7,5.1-0.2c0-0.3,0.6-0.6,1.2-0.7
		c0.8-0.1,1.3-0.7,1.5-1.4l0.3-1.3l1.3,1.4c0.9,1,1.9,1.4,3.1,1.4c1,0,1.9,0.3,2,0.6c0.4,1.1,5.4,0.1,5.4-1c0-0.7,0.2-0.7,0.9,0.3
		c0.4,0.7,1.4,1.2,2.2,1.2c1.5,0,1.6,0.4,0.5,1.9c-0.9,1.2-1.2,6.4-0.3,6.4c0.3,0,0.7,0.9,0.8,2c0.2,1,0.8,2.1,1.2,2.3
		c0.4,0.2,0.8,0.8,0.8,1.3c0,0.9,0.4,1,3,1c2.8,0,3.1-0.1,3.9-1.7c0.8-1.5,0.8-1.7-0.6-2.5c-0.8-0.6-1.4-1.4-1.4-2.1
		c0-0.8-0.4-1.4-1.1-1.7c-0.6-0.2-1.1-0.7-1.1-1.1c0-0.5,0.3-0.7,0.8-0.5c1.8,0.7,3.5-0.3,4.2-2.5c0.7-2.3,2.4-3.4,8.6-5.3
		c1.6-0.5,3.8-1.5,5-2.3c1.3-0.9,2.9-1.5,4.3-1.5c2-0.1,3.6-0.5,6.6-1.9c0.6-0.3,1.6-0.6,2.1-0.7c0.6-0.1,1.3-0.9,1.7-1.9
		c0.4-1,0.9-1.6,1.3-1.4c0.4,0.1,1.2-0.1,1.7-0.6c0.5-0.4,1.4-1,1.9-1.2c0.8-0.3,0.9-0.8,0.6-2.7c-0.2-1.3-0.7-3.3-1.2-4.5
		c-0.7-1.5-0.7-2.3-0.3-2.6c0.4-0.4,0.8-0.2,1.3,0.7c1.4,2.8,3.5,4.9,4.8,4.9c0.7,0,2.1-0.4,3.2-0.8c1.1-0.5,2.4-0.7,3-0.6
		c0.8,0.3,1-0.1,1.2-1.2c0.2-1.7,2.1-2.6,2.1-1c0,1.8,1.6,1.4,3.6-0.8c2.1-2.3,2.1-2.3,2.9-1.2c1,1.5,2.6,1.5,3,0
		c0.2-0.8,0.7-1,1.3-0.9c0.6,0.2,2.3-0.4,3.7-1.2c1.5-0.8,3.5-1.5,4.4-1.7c1.3-0.2,1.7-0.6,1.8-1.8c0.1-0.8,0.7-1.8,1.3-2
		c0.6-0.3,1.3-1.7,1.7-3c0.4-1.6,0.9-2.5,1.5-2.5c0.4,0,1.8-1,2.9-2.2s2.3-2.2,2.6-2.2c0.7,0,3.4-3.1,5-5.7c0.8-1.3,1.1-2.4,0.9-3.1
		c-0.2-0.8-0.1-1.1,0.4-1.1c0.4,0,1.2-0.5,1.8-1.1c0.6-0.6,1.6-1.1,2.3-1.1c1.2,0,1.3-0.2,0.9-1.9c-0.3-1.9-0.3-1.9,1.4-1.9
		c1.5,0,1.7-0.2,1.7-1.7c0-1.1,0.3-1.7,0.8-1.7c0.9,0,1.9-1.6,1.8-3c-0.1-0.9,0.2-1.1,2-0.9c1.7,0.1,2,0,2-0.9
		c0-0.6-0.4-1.2-0.8-1.4c-0.4-0.2-0.8-0.7-0.8-1c0-0.4,0.4-1.1,0.8-1.5c1-0.8,1.1-2.9,0.2-4.3c-0.5-0.8-0.4-1.3,0.7-2.9
		c0.8-1.2,1.1-1.9,0.7-2c-0.3-0.1-1.3-0.7-2-1.3c-2.4-1.9-0.8-2.6,2.7-1.3c0.7,0.3,0.9,0,0.9-1c0-0.8,0.5-1.8,1.1-2.4
		c0.6-0.6,1.1-1.5,1.1-2.2c0-0.7,0.4-1.7,1-2.1c0.6-0.5,1.2-2,1.4-3.2c0.3-2,3.5-11.8,4-12.4c0.1-0.2,0.5,0.1,0.8,0.4
		c0.9,0.9,1.4,0.8,1.8-0.4c0.2-0.6,0.9-1.3,1.7-1.4l1.3-0.3l-1.1-1.9c-0.8-1.4-1-2.3-0.7-3.1c0.8-1.8,0.3-4.1-0.9-4.5
		c-2.1-0.7-1.2-1.9,1.4-1.9h2.4l-0.7-2.6c-0.4-1.4-0.9-3-1-3.5c-0.2-0.5,0-1.2,0.5-1.6c1.1-0.9,0.2-1.7-2-1.7
		c-0.8,0-2.1-0.7-3.2-1.9c-1-1-2.3-1.9-2.8-1.9c-0.5,0-2.2,1-3.9,2.2c-2.6,2-3,2.1-3.9,1.4c-0.8-0.8-1.1-0.8-2.5,0
		c-1.8,0.9-2.3,0.4-1.3-1.3c0.4-0.9,1.2-1.2,2.8-1.2c2.7,0,4.3-0.8,4.3-2.1c0-0.6,0.9-1.5,2.1-2.1c1.2-0.7,2.3-1.6,2.5-2.1
		c0.2-0.4,1.2-1.2,2.3-1.7c2.9-1.2,2.6-2.9-0.8-5.4c-1.5-1.1-3.1-2-3.6-2c-0.5,0-1.4-0.5-2-1.1c-0.8-0.8-1.8-1.1-3.4-1.1
		c-2,0-2.5-0.2-3-1.4c-0.6-1.3-0.6-1.4,0.6-1c0.7,0.2,2,0.6,2.9,0.8c1,0.3,2.6,1.1,3.6,1.9c1,0.8,2.8,1.5,4,1.8c1.8,0.3,2,0.3,2-0.8
		c0-0.8-0.6-1.3-2.2-1.7c-3-0.8-3.3-1.7-0.6-1.7c2.6,0,2.7-0.4,1.1-2.4c-0.8-0.9-1.7-1.4-2.8-1.4c-1.2,0-1.6-0.3-1.6-1
		c0-1.4-1.3-2.4-4.3-3.4c-2.4-0.8-2.5-1-2.7-3c-0.2-1.5-0.8-2.9-2.4-4.8c-1.2-1.5-3.5-5.1-5.1-8l-2.9-5.3l-3.6-0.8
		c-2-0.4-4.1-1.3-4.7-1.8c-0.6-0.5-1.6-0.9-2.2-0.9c-1.3,0-2-2.1-1.2-3.4c0.3-0.4,0.5-1.3,0.5-1.9c0-0.7,0.3-1.5,0.8-1.8
		c0.4-0.4,1-1.4,1.2-2.3c0.3-1.2,0.7-1.6,1.7-1.6s1.4-0.4,1.7-1.7c0.2-0.9,0.8-2.3,1.4-3c0.9-1.2,1-1.4,0.3-1.4
		c-0.5,0-0.9-0.4-0.9-1c0-1.5,0.9-1.9,1.5-0.8c0.4,0.8,0.6,0.8,2.3-0.1c1.4-0.7,1.8-1.2,1.7-2.4c-0.2-1.2,0.4-2.1,2.7-4.4
		c1.6-1.5,3.1-2.9,3.4-2.9c0.3,0,1.5-0.9,2.8-2l2.2-2l1.7,1c0.9,0.6,1.8,0.9,1.9,0.8c0.1-0.1,0.7-2,1.3-4.2l1.1-4h-1.9
		c-1.1,0-2.4-0.3-3-0.6c-0.9-0.4-1.4-0.4-2,0.2c-1.5,1.3-2.7,1.5-6.2,1.1c-2.6-0.3-3.3-0.5-3.3-1.3c0-0.5-0.7-1.2-1.4-1.6
		c-1.3-0.6-1.8-0.4-4.1,1.1c-1.7,1-2.7,2.1-2.7,2.7c0,0.6-0.7,1.5-1.7,2c-0.9,0.5-1.7,1.2-1.7,1.6c0,0.3-0.5,1.3-1.2,2.1
		c-0.9,1.2-1.6,1.4-3.7,1.4c-1.4,0-2.9-0.3-3.2-0.7c-0.4-0.4-0.7-2-0.7-3.8c0-2.3-0.3-3.6-1.3-5c-1.3-1.9-3.4-2.7-4.4-1.7
		c-0.9,0.9-5,0.7-7.1-0.3c-1-0.4-2.4-1.7-3-2.6l-1.2-1.8l1.1-3.7c1.2-3.9,2.5-5,4.2-3.5c1.2,1,1.9,1,2.8,0c0.3-0.4,1.7-0.9,3-1.1
		c2.1-0.3,2.4-0.6,3.2-3c0.5-1.4,0.9-3.2,0.9-4c0-0.7,0.4-1.7,0.8-2c0.4-0.4,0.8-1,0.8-1.4c0-0.4,0.3-0.8,0.7-0.8
		c0.3-0.1,2.3-1.3,4.4-2.8c2.5-1.8,3.7-3.1,3.7-3.9c0-0.6,0.7-1.9,1.4-3c0.8-1,1.7-2.7,1.9-3.7c0.4-1.5,0.9-2,2.2-2.3
		c1-0.2,2-0.1,2.4,0.3c0.7,0.6,1,0.6,1.7,0c0.7-0.6,1-0.6,1.5-0.1c0.4,0.4,1.3,0.7,2.1,0.7c1.1,0,1.7,0.4,2.1,1.7
		c0.6,1.5,0.5,2-0.8,5.1c-0.8,1.9-2.1,4-2.8,4.6c-0.7,0.7-1.3,1.8-1.3,2.6c0,0.8-0.2,1.5-0.6,1.7c-0.3,0.2-0.6,0.5-0.6,0.7
		c0,0.5,2.8,1.8,3.9,1.8c0.8,0,0.8,0.2,0.1,2.5c-0.7,2-1.2,2.6-2.7,3.1c-1.2,0.4-1.9,1-1.9,1.7c0,1.2-0.1,1.2,3.1,0.4
		c1.6-0.4,2.4-0.9,2.4-1.5c0-0.5,0.7-1.3,1.6-1.8c0.9-0.5,2.1-1.9,2.8-3.1c1.2-2.4,6.6-7.3,7.9-7.3c0.5,0,1-0.5,1.2-1.1
		c0.2-0.7,0.8-1.1,1.4-1.1c0.7,0,1.3-0.3,1.5-0.6c0.2-0.3,0.9-0.6,1.7-0.6c2.9,0,6.3-3,6.3-5.5c0-0.9,6.2-8.3,7-8.3
		c0.4,0,1.3-1,1.9-2.2c0.7-1.2,1.8-2.3,2.5-2.5c1.7-0.4,3.2-3.3,4-7.1c0.9-4.8,2.7-6.4,4.7-4.2c1.2,1.3,4,1.4,8.5,0.3
		c3.8-0.9,4.3-2.3,1.7-4.7c-1-0.9-1.7-1.9-1.5-2.3c0.3-1,3.7-2.6,5.8-2.6c2,0,3.5-1.7,3.5-3.9c0-1.9,0.6-2.6,2.2-2.8
		c1.8-0.3,2.8-2.8,1.8-4.4c-0.9-1.4-0.3-3.8,0.9-3.8c0.5,0.1,1.4,0.8,2,1.8c0.9,1.3,1.5,1.8,2.8,1.8c1.5,0,1.7-0.2,1.9-1.9
		c0.2-1.4,0.7-2.1,1.8-2.6c1.4-0.7,1.5-0.9,1.5-4.6c0-2.4-0.3-4.3-0.8-5.1c-0.4-0.7-0.9-2.4-1.2-3.7c-0.2-1.5-1.4-4.4-2.8-6.8
		c-1.3-2.4-2.4-4.5-2.4-4.9c0-0.3,0.8-1,1.8-1.5c2-1,2.5-1.7,2.9-4.6c0.3-1.7,0.4-1.9,1-1.3c0.5,0.6,1.7,0.7,5.5,0.5
		c5.6-0.4,6.2-0.8,5.3-3.2c-0.5-1.5-0.4-2,0.6-3.7c0.8-1.3,1-2.4,0.8-3.3c-0.2-0.7-0.1-1.7,0.3-2.1c0.7-0.8,0.9-5.2,0.5-14.4
		c-0.3-6.4-0.3-6.7,1-8.1c1.6-1.7,1.4-4.1-0.4-5.7C586.5,51.2,586.1,50.1,586.1,48.8z M247.3,221.8l-1.3,17.4l-9.2-14.3l-17.4,5.3
		l11.5-14.4l-9.6-14.9l16.6,6.1l11.5-14.4l-1.3,18.1l15.9,5.9L247.3,221.8z"/>
	<path fill="#DE2910" d="M385.7,471.3c0,1.8,0.1,1.9,3,2.7c1.7,0.5,3.7,0.9,4.6,0.9c0.9,0,1.9,0.2,2,0.6c0.2,0.3,1,0.6,2,0.6
		c1.3,0,1.6-0.2,1.6-1.3s0.3-1.4,2.1-1.7c1.2-0.2,2.7-0.9,3.4-1.7c0.7-0.7,1.5-1.3,1.9-1.3c1,0,1.9-1.8,1.9-3.9
		c0-3.3,1.2-6.4,3.1-8.3c1.5-1.5,1.9-2.2,1.9-4.2c0-1.9-0.2-2.4-1-2.4c-0.6,0-1.5-0.4-2.1-0.8c-1.3-1-1.8-1-2.2,0
		c-0.2,0.6-1.2,0.8-2.9,0.8c-1.4,0-3,0.4-3.6,0.8c-0.8,0.6-1.8,0.7-3.6,0.5c-2-0.3-2.6-0.2-2.9,0.6c-0.2,0.6-1,0.9-2.2,0.9
		c-1.7,0-1.9,0.2-2.2,1.6c-0.2,1-1.4,2.5-3.1,4l-2.8,2.3v3.5c0,1.9,0.3,3.6,0.6,3.8C385.5,469.3,385.7,470.3,385.7,471.3z"/>
	<path fill="#FFDE00" d="M120,147.9l43.2,29.7l-16.1-48.3L192,98.4h-55.2l-2.3-6.9c-0.6,0.9-1.3,2.2-2.2,3.8c-2,3.5-3.6,6.7-3.6,7.2
		c0,0.5-0.9,2.1-1.9,3.5l-1.9,2.6l1.2,1.2c1,1,1.1,1.3,0.4,2.8c-0.7,1.6-1.7,2.3-1.7,1.2c0-0.3-1-0.8-2.2-1.1
		c-1.2-0.3-2.4-0.9-2.6-1.4c-0.4-0.7-1.5-0.8-8.5-0.3c-4.4,0.3-8.5,0.8-9.1,1.2c-1.6,0.8-0.9,2.3,1,2.3c0.8,0,1.8,0.4,2.3,0.9
		c0.6,0.7,0.5,1.2-0.3,2.6c-0.9,1.4-1,2.8-0.9,7.3c0.1,3,0.2,6.9,0.4,8.6l0.3,3.2h-1.7c-1.4,0-1.7,0.2-1.7,1.4c0,1-0.3,1.4-1,1.4
		c-1.5,0-2.9,1.8-3.2,4.2c-0.6,3.9-1.3,5.2-2.9,5.2c-0.8,0-1.7,0.2-2,0.6c-0.3,0.3-3.4,1.1-7,1.8l-8.7,26.2L120,147.9z"/>
	<path fill="#FFDE00" d="M274.5,189.1l14-11.6l14,9.6l-5.6-16.6l4.7-3.9c-0.6-0.5-1.3-0.6-2.6-0.6c-1.3,0-5-0.5-8.3-1.1
		c-4-0.7-6.2-0.9-6.6-0.6c-0.9,0.9-6.2,0.7-14.7-0.6c-0.5-0.1-0.9-0.1-1.3-0.2l11.4,7.8L274.5,189.1z"/>
	<polygon fill="#FFDE00" points="249.4,192.8 237.9,207.1 221.3,201 230.9,215.9 219.4,230.2 236.8,225 246,239.2 247.3,221.8 
		264,216.8 248.1,210.9 	"/>
</g>
</svg>
