<?xml version="1.0" encoding="utf-8"?>
<!-- Generator: Adobe Illustrator 17.1.0, SVG Export Plug-In . SVG Version: 6.00 Build 0)  -->
<!DOCTYPE svg PUBLIC "-//W3C//DTD SVG 1.1//EN" "http://www.w3.org/Graphics/SVG/1.1/DTD/svg11.dtd">
<svg version="1.1" id="flag-icon-css-cr" xmlns="http://www.w3.org/2000/svg" xmlns:xlink="http://www.w3.org/1999/xlink" x="0px"
	 y="0px" viewBox="0 0 640 480" enable-background="new 0 0 640 480" xml:space="preserve">
<g>
	<polygon fill="none" points="528.3,480 528.6,480.4 528.8,480 	"/>
	<path fill="#0000B4" d="M426.1,60.9c-1.4-5.5-3.8-11.4-6.7-16.1c-1.8-3.1-2.7-4-5-5.3c-2.4-1.3-5.2-2-5.2-1.3
		c0,0.1,0.5,1.1,1.2,2.2c0.7,1.1,1.2,2.4,1.2,3.1c0,0.6,0.3,1.4,0.7,1.9c0.6,0.7,0.7,1.3,0.3,2.8c-0.2,1.1-0.2,3.3,0,5.1
		c0.3,2.5,0.2,3.6-0.4,5.3l-0.8,2.1h-3c-1.8,0-4.1,0.4-5.7,1c-1.4,0.5-3.8,1-5.2,1c-2.4,0-2.8,0.2-4.3,1.7c-1.1,1.2-2.1,1.7-3.1,1.7
		c-1,0-2.2,0.6-3.9,2.2c-2.3,2.1-2.7,2.2-5.3,2.2c-1.5,0-3.9,0.4-5.2,0.8l-2.4,0.9l-1-1.4c-0.5-0.7-2.5-2.2-4.4-3.4
		c-2.2-1.2-4.2-2.9-5.5-4.6c-2.2-2.8-3.4-3.2-4.2-1.5c-0.3,0.8-0.9,1.1-1.8,1.1c-0.7,0-1.7,0.4-2.2,1c-0.8,0.9-0.9,0.9-3.4,0
		c-1.4-0.5-3.4-1-4.4-1c-1.4,0-1.9-0.2-2.1-1c-0.3-1-0.6-1-5.1-0.8c-2.7,0.1-5.2,0.4-5.7,0.6c-0.6,0.3-0.9,0.2-0.9-0.3
		c0-0.4-1-1.7-2.2-2.9l-2.3-2.2l1.6-1.3c1.5-1.2,1.6-1.3,1.2-4.1c-0.3-2.7-0.4-2.8-2.8-4c-1.6-0.8-3.3-1.2-4.9-1.2
		c-2.3,0-2.6-0.1-3.3-1.5c-0.5-0.9-1.5-1.8-2.6-2.3c-1-0.4-2.7-1.5-3.7-2.5c-1.7-1.6-1.9-2-1.9-4.6c0-2.3-0.2-3-1.2-4l-1.2-1.1
		l-3.8,2.8c-3.8,2.8-3.8,2.9-6.4,2.5c-2.3-0.3-3-0.7-6.6-4.1c-2.7-2.5-5.4-4.4-8.2-5.9c-2.3-1.1-4.7-2.6-5.2-3.2
		c-1.1-1.2-2.2-1.2-4.8-0.3c-1.7,0.6-1.9,0.5-6.9-2.1l-5.1-2.7l-18,10.3c-10.5,6-18.3,10.2-18.8,10.1c-0.5-0.1-10.6-3.9-22.6-8.4
		c-20.6-7.7-22.3-8.5-32.8-14.2l-11-6l-3.9,0.4L150.8,9l-8.2-3.1c-5.5-2-8.7-3.5-9.7-4.5C131.4,0.1,131,0,128.1,0
		c-1.8,0-4.9,0.2-7,0.5c-2,0.2-4,0.5-4.3,0.6s-2.4,3.5-4.7,7.6c-4.5,8.1-4.3,7.2-1.3,9.4c0.6,0.5,0.9,1.3,1,2.8c0,1.8-0.1,2.1-1,2.3
		c-1.2,0.2-1.5-0.3-0.6-1.2c0.9-0.9,0-2.5-1.9-3.7c-1.8-1.1-1.8-1.1-3.1,1.1c-0.2,0.5-1.4,1-2.7,1.1c-2,0.3-2.2,0.4-1.7,1.3
		c0.6,1.2,0.6,1.5,0,1.5c-0.5,0-1.9,1.4-1.9,2c0,0.1,1.2,0.7,2.8,1.2c1.7,0.6,3.1,1.4,3.7,2.2c1.1,1.6,1.1,2,0.1,4
		c-0.6,1.2-0.6,1.8-0.2,2.7l0.5,1.2h-4.7c-4.3,0-7.4,0.5-8.5,1.5c-0.2,0.2,0,1,0.6,1.9c1.6,2.2,0.5,2-3.3-0.7
		c-0.1,0,0.1-0.5,0.4-1.1c1.1-1.7,0-2.4-4.7-2.7c-2.3-0.1-4.8-0.1-5.6,0.1l-1.4,0.4l1.9,0.6c1,0.3,1.8,0.9,1.8,1.3
		c0,0.6-5.3,3.7-6.5,3.7c-0.6,0-5.6,3-5.3,3.3c0.1,0.1,1.3,0,2.6-0.3c1.9-0.4,2.4-0.4,2.9,0.2c0.3,0.3,1.7,1,3.2,1.3
		c2.1,0.5,2.9,1,3.6,2.2c0.9,1.6,2.5,2.1,6.1,2.2c1,0,1.8,0.4,2.4,1.3c0.9,1.3,0.9,1.3-0.6,2.9c-0.8,0.9-1.5,1.7-1.5,1.9
		c0,0.5,8.4,0.4,11.6-0.1c2.5-0.5,3-0.4,4.7,0.5c1,0.5,2.2,1,2.7,1c0.4,0,1.8,1.1,3,2.5l2.2,2.5l-0.8,2.6c-0.7,2.2-0.8,3-0.2,6
		c0.3,1.4,0.5,2.5,0.6,3.3h317.6C428.5,69,426.7,63.3,426.1,60.9z"/>
	<path fill="#0000B4" d="M530.1,477.5c1.8-3.9,1.8-5.9-0.4-10.2c-1.3-2.6-1.7-3.9-1.4-5c0.4-2-0.5-4.5-2.5-6.4
		c-1.6-1.6-1.7-1.9-1.4-3.8c0.1-1.2,0.1-3.1,0-4.4c-0.3-2-0.5-2.2-1.6-2.2c-0.7,0-2-0.5-2.9-1.2c-1.9-1.5-2.4-1.5-3.3-0.2
		c-0.6,0.9-0.7,0.9-1.9-0.8c-0.8-1.3-2.2-2.3-4.3-3.4c-2.5-1.2-3.1-1.7-3.1-2.7c0-1,0.6-1.6,4.7-4c3.7-2.1,5.2-3.3,6.9-5.5
		c1.1-1.5,2.9-3.7,4-4.8c1.7-1.9,2-2,3.1-1.5c0.9,0.4,2.1,0.4,4.6,0l3.5-0.6l2-3.3c2.9-4.9,3.6-7.2,3.2-10.9
		c-0.2-2.7-0.1-3.3,0.7-4.6c0.8-1.1,1-1.7,0.6-2.4c-0.1-0.2-0.4-0.7-0.6-1.3h-51.2c0.1,0.4,0.2,0.7,0.3,1c1,4.8,3.1,9.3,5.2,11.6
		c4.1,4.4,3.9,3.8,2.8,7.7c-0.5,1.9-1.7,4.6-2.7,6c-0.9,1.4-1.9,3.4-2.3,4.4c-0.5,1.8-0.5,1.9,1.8,5.1c2.2,3,2.7,3.4,6.1,4.6
		c2.6,1,4.5,2.1,6.7,4.2c1.6,1.5,4.6,3.7,6.5,4.8c5,3,7.5,6.3,11.5,15.5c1.8,4.1,3.2,7.9,3.2,8.4s-0.3,2.1-0.7,3.6
		c-0.6,2.6-0.6,2.8,0.3,4.2l0.8,1.1h0.5L530.1,477.5z"/>
	<path fill="#0000B4" d="M407.3,399.2c3.2,2.1,5.3,4,7.1,6.3c1.3,1.7,4,4.4,5.8,5.9c2.2,1.8,3.4,3.1,3.5,3.9c0.1,0.8,1,1.8,3,3.1
		c2.7,1.8,3,1.9,4.7,1.4c3.2-0.9,6-0.7,6.7,0.5c0.5,1,0.8,1,4.5,0.7c3.9-0.3,4-0.3,11.3,2.4c4,1.5,8.8,3.7,10.7,4.7
		c2.3,1.4,3.6,1.9,4.3,1.6c0.5-0.2,2.7-2,5-4.1c6-5.6,6-7.8,0.2-12.9l-2.9-2.6l1.1-3.2c1.1-3.1,1.1-3.3,0.3-4.2
		c-0.5-0.6-1.5-0.9-2.7-0.9c-1.3,0-2.1-0.3-3.2-1.4c-1.1-1.1-2-1.5-4.2-1.8c-1.2-0.1-2.4-0.5-3.6-0.9H405L407.3,399.2z"/>
	<path fill="#FFFFFF" d="M477.5,154.5c-6.8-8.5-13.5-17.1-14.9-19.1c-1.8-2.5-2.9-3.6-3.7-3.6c-0.8,0-1.8-1-3.6-3.6
		c-4.5-6.6-14.5-23.6-16.3-27.9c-1.3-3-5.3-14.8-8.5-24.9H112.9c0.3,2.5-0.2,2.4-2.3,2.4c-2.2,0-2.4,0.1-2.7,1.3
		c-0.2,0.9-0.1,1.6,0.6,2.4c1.5,1.6,1.5,2.4,0.3,3.9c-1.4,1.6-1.6,3.1-0.4,2.6c0.4-0.1,0.9-0.3,1.1-0.3s0.6-0.7,0.9-1.7
		c0.5-1.4,0.9-1.7,2.6-2c1.7-0.3,2.9,0,4.9,1.6c0.1,0.1-0.3,0.5-0.9,1c-0.6,0.4-1.4,1.5-1.8,2.4c-0.5,1.3-1,1.7-2,1.7
		c-1.6,0-3.2,0.8-3.2,1.7c0,0.5-0.5,0.7-1.5,0.7c-1.6,0-1.8,0.3-1,1.5c0.7,1.1-0.8,2.5-2.8,2.5c-0.9,0-2.6,0.4-3.7,1
		c-1.6,0.8-2.3,0.9-3.2,0.5c-1.9-0.8-2.9-0.6-3.5,0.7c-0.3,0.7-1.1,1.5-1.8,1.8s-1.2,0.8-1,1.2c0.1,0.3,0.5,1.5,0.8,2.6
		c0.3,1.2,1,2.1,1.5,2.3c1.2,0.3,2.9,4.1,2.3,5.2c-1.1,2-1.3,2.1-2.4,1.5c-1-0.5-1.1-0.5-0.8,0.6c0.2,1,0.1,1.3-0.8,1.4
		c-0.6,0.1-2-0.1-3-0.5c-1.7-0.6-2-0.6-2.6,0c-0.7,0.7-0.7,0.9,0.1,2.1c0.8,1.3,0.8,1.4-0.2,3.6c-0.6,1.3-2,3.1-3.1,4l-1.9,1.6
		l1.2,2.4c1.1,2.3,1.2,2.4,0.4,4.4c-0.8,2-0.7,2,0.4,3c1.1,0.9,1.1,1,0.5,2.6c-1.5,3.8-0.9,7.5,1.5,9.3c1.1,0.8,1.2,1.7,0.2,2.6
		c-0.4,0.3-0.7,1.1-0.7,1.8c0,1,0.2,1.2,2,1.2c1.9,0,2,0,2,1.6c0,0.4,0.1,0.9,0.2,1.4h87.3c-0.1-0.4-0.1-0.9-0.1-1.4
		c0-1.2,0.2-2.5,0.4-2.9c0.5-0.8,4-0.1,6.3,1.2c1,0.6,2.5,1.1,3.3,1.1c0.8,0,2.2,0.3,3,0.8c1.1,0.6,1.7,0.6,2.2,0.2
		c1.9-1.6,7.5-1.6,7,0c-0.1,0.3,0.1,0.7,0.4,1h281.5C479.2,156.6,478.4,155.5,477.5,154.5z"/>
	<path fill="#FFFFFF" d="M539.3,395.9c-0.6-1.8-0.6-2.1,0-2.4c1.1-0.4,0.4-2.8-1.6-6.3c-1-1.6-2-3.8-2.4-4.9
		c-0.5-1.6-0.9-2.1-2.1-2.4c-1.3-0.3-1.5-0.7-1.8-2.4c-0.3-1.8-0.6-2.1-2.5-3.1c-2.4-1.2-2.6-1.4-1.5-2.4c0.4-0.3,0.7-1.1,0.7-1.7
		c0-0.9,0.4-1.3,1.8-1.7c1.5-0.5,2-1.1,2.9-3.1c1-2.3,1-2.6,0.3-3.9c-0.7-1.3-0.7-1.4,0.6-2.8c0.9-1,2.4-1.7,4.7-2.3
		c1.8-0.5,3.8-1.3,4.4-1.8c0.6-0.6,1.7-0.9,3-0.9c1.3,0,2.1-0.2,2.3-0.7c0.1-0.4,0.7-0.7,1.2-0.7c1.1,0,2.6-1.5,2.6-2.5
		c0-0.4,1.1-1.4,2.5-2.3c2.1-1.4,2.5-1.8,2.5-3.2c0-1.3-0.3-1.8-1.5-2.5c-1.1-0.6-1.5-1.3-1.5-2.3c0-0.9-0.6-1.9-1.9-3.2
		c-1.6-1.6-2.3-1.9-4.7-2.1c-2.6-0.2-3-0.4-3.9-2c-0.6-1-2.1-2.2-3.6-3c-4-2-6.6-4-7.7-5.9c-1.1-1.9-2.6-2.2-5.8-1.3l-1.5,0.4
		l-0.2-6.5H406c7.4,7.4,7.7,7.8,7.9,10.1c0.3,2,0.6,2.6,1.7,3.2c0.7,0.4,1.5,1,1.7,1.3c0.6,0.9,1.7,10,1.7,13.6v3.4l1.6-0.1
		c0.8,0,1.9-0.1,2.2,0c0.9,0.1,0.7,3-0.4,4.6c-1.2,1.7-1,3.6,0.8,6.7l1.1,2.1l-2.5,0.3c-1.8,0.2-3.1,0.8-4.7,2.1
		c-2,1.7-2.1,1.9-1.3,2.7c0.7,0.8,0.7,1.2,0.1,3.5c-0.4,1.4-0.7,4.3-0.7,6.3c0,4.6-0.2,5-2.4,4.4c-2.5-0.7-8.4-0.6-8.9,0.1
		c-0.8,1.3-0.5,3.2,0.7,3.8c0.7,0.3,1.2,1,1.4,2c0.2,1.3,0,1.7-1.7,2.8c-1.8,1.2-1.9,1.3-1.9,4.4v3.1l2.4,1.6h54.1
		c-2.3-0.9-4.5-2.4-6.3-4.5c-1.7-1.9-2.2-2.8-2.2-4.3c0-1.5-0.4-2.3-2.4-4.6c-2.2-2.5-2.4-2.8-1.7-3.7c0.9-1.3,0.9-1.4-0.9-2.4
		l-1.6-0.8l3.5,0.3c2.5,0.2,5.6,1,11.5,3.3c7.4,2.8,9,3.7,10.2,5.8c0.3,0.6,0.6,0.6,1.2,0.1c0.5-0.5,1.3-0.5,3.2,0
		c2.1,0.4,2.8,0.9,3.8,2.5c1.3,2,1.1,2,6.8,1.1c1.2-0.2,1.5,0,2.9,2.7c0.6,1.2,1.3,3,1.7,4.3h51.2
		C539.7,397.1,539.5,396.5,539.3,395.9z"/>
	<path fill="#D90000" d="M92.3,163.7c1.1,1.6,1.4,2.6,1.4,4.6c0,3.2,0.7,4.1,3.9,5.1c2.5,0.8,4.4,3,4.4,5.2c0,2.4,1.3,4.4,4,5.9
		c2.1,1.2,3.1,2.3,4.8,4.9c2,3.4,2,3.4,1.1,4.4c-0.7,0.7-0.9,1.4-0.6,2.4c0.3,1.2,0.5,1.3,3.2,1.3c1.6,0,3.7,0.3,4.7,0.7
		c2.1,0.9,9.9,2.3,12.9,2.3c1.1,0,2.6,0.3,3.3,0.7c0.7,0.4,1.9,0.7,2.8,0.7c0.8,0,1.7,0.2,2.1,0.6c0.4,0.4,0.7,0.4,1.2,0
		c1-1,3.6-0.7,4.9,0.6c0.9,0.9,1.7,1.2,3.2,1.2c1.1,0,2.3-0.2,2.7-0.4c0.4-0.3,1.4,0,3,1.2c4,2.8,8.8,5.2,10.5,5.2
		c1.2,0,1.9,0.4,3.2,1.8c2.7,3.1,2.9,3.5,2.3,4.6c-0.5,0.9-0.3,1.1,1.3,1.8c3.4,1.4,5.9,4.4,7.9,9.5c1.7,4.4,2,4.8,5.4,7.7l3.6,3
		l0.3,3.4c0.3,3.4,0.4,3.5,2.3,4.5c1,0.5,2,1.2,2.1,1.5c0.1,0.4,0.8,0.3,2.5-0.3c2.2-0.8,2.3-1,2.3-2.6c0-0.9,0.5-2.5,1.1-3.5
		c0.6-1,1-2.2,1-2.7c-0.4-2.3,2.3-6.8,4.2-6.8c0.3,0,0.8-0.4,1.1-0.9c0.3-0.5,1.7-1.4,3.1-2c3.7-1.6,8.9-5.2,7.8-5.4
		c-0.5-0.1-1.8,0.3-2.9,1c-1.9,1-2,1-2.5,0.2c-0.3-0.4-0.9-0.8-1.4-0.8c-0.5,0-1-0.2-1-0.5c0-1,2-3.9,2.8-3.9c1.1,0,2.8,1,3.6,2.1
		c1,1.4,3,1.2,3.4-0.3c0.1-0.7,0.2-1.7,0-2.2c-0.2-0.7,0-0.9,1.3-1.1c1.2-0.1,1.6-0.4,1.9-1.7c0.2-0.8,0.7-1.8,1.1-2.2
		c0.6-0.5,0.6-0.8,0.2-1.3c-0.4-0.5-0.2-0.7,1.2-0.7c1.3,0,1.8-0.2,2.1-0.9c0.2-0.6,0.6-0.8,1.4-0.7c1,0.2,1.2,0,1.4-0.9
		c0.1-0.9,0.4-1.1,1.4-1c3.4,0.3,4.5,0.7,4.5,1.4c0,0.6,0.2,0.6,1.6-0.1c1.5-0.8,1.6-0.9,0.6-1.4c-0.5-0.3-2-1.6-3.3-2.9
		c-2.1-2.1-2.5-2.3-3.9-2.1c-1,0.2-1.8,0.8-2.3,1.7c-0.5,1-1.2,1.4-2.5,1.6c-2.4,0.4-3.3-0.3-2.6-1.9c0.3-0.6,1-1.3,1.5-1.4
		c1-0.2,1-0.3,0.1-1.6c-0.5-0.7-1.3-1.7-1.8-2c-1.3-0.9-1.2-3.6,0-3.6c1.3,0,1.6-0.6,1.2-2.2c-0.2-0.9-1-1.6-2.9-2.5
		c-1.4-0.6-3.1-1.5-3.8-1.9c-0.7-0.4-2.5-0.7-4-0.7c-2.7,0-2.7,0-4.4-2.5c-0.9-1.3-1.5-2.7-1.3-2.9c0.1-0.2-0.3-0.6-1.1-0.9
		c-1.2-0.5-1.2-0.5,0.7-0.3c1.2,0.1,3.5,0.4,5.1,0.6l3,0.3l-0.2-1.4l-0.1-1.4l-6.8-0.1l-6.8-0.1l-0.5,1.3c-0.3,0.7-0.9,1.2-1.4,1.2
		c-1.7,0,0.8,1.9,2.7,2.1c1,0.1-0.2,0.2-2.7,0.2c-4.4,0.1-4.5,0-5.1-1.1c-0.3-0.7-0.9-1.2-1.4-1.2c-1,0-8.7-5.6-9.6-6.9
		c-0.5-1-0.2-1.4,0.6-0.7c0.8,0.8,3.7,1.5,4.2,1c1.1-1.1,0.5-1.8-1.2-1.8c-1.5,0-1.8-0.2-2.3-1.5c-0.3-0.8-0.8-1.5-1.2-1.5
		s-0.8-0.6-0.9-1.3c-0.2-0.9-1-1.6-2.5-2.3c-1.5-0.7-2.4-1.4-2.9-2.5c-0.8-1.8-0.3-2.1,2.4-1.6c1.2,0.2,1.8,0.8,2.7,2.6
		c1.6,2.9,3.1,3.7,7.7,3.7c4.5,0,6.8-0.7,6.8-2.1c0-0.5-0.2-0.8-0.5-0.6c-0.3,0.1-0.9,0.1-1.5,0c-0.9-0.3-1-0.4-0.1-1.3
		c0.4-0.5,0.7-1,0.6-1.1c-0.8-0.6-2.6-1.3-3.8-1.3c-0.8,0-1.8-0.4-2.5-1.2c-0.9-0.9-2-1.3-5.1-1.8c-2.2-0.3-4.7-0.5-5.6-0.4
		c-1.9,0.2-2.8-0.4-3.1-2.1H88.8C89.2,159,90.2,160.7,92.3,163.7z"/>
	<path fill="#D90000" d="M524.3,313.3c-0.2-4.7-0.3-18.3-0.3-30.3v-21.8l7-1.4c7.8-1.5,7.6-1.2,4-5.3c-1.8-2-2-2.4-1.5-3.6
		c0.4-1.1,0.3-1.4-0.5-1.6c-0.5-0.1-1-0.5-1-0.8c0-1.1,1.6-5.3,2-5.3c0.2,0,0.6-0.6,0.9-1.4c0.4-1.3,0.6-1.4,2.4-1.2
		c1.3,0.1,2.5,0.7,3.7,1.8c1.8,1.7,3.2,2.1,8.1,2.6c2.8,0.2,3,0.3,4.5,2.4c1.3,1.8,1.7,2.2,2.8,2c1-0.2,1.4,0,2.3,1.4
		c0.9,1.4,1,1.8,0.4,2.4c-0.6,0.6-0.6,0.9,0.3,2s1.4,1.3,3.6,1.3c1.7,0,2.9,0.3,3.5,0.8c0.7,0.6,1.1,0.7,1.8,0.3
		c0.5-0.3,1.1-0.3,1.6-0.1c0.6,0.3,1.2,0,2.6-1.7c1.5-1.8,1.7-2.3,1.4-4.1l-0.2-2l2,0.2c1.1,0.1,2.2,0.5,2.6,0.9
		c0.3,0.4,1,0.7,1.5,0.7c0.9,0,1-0.2,0.7-1.5c-0.1-0.8-0.3-1.8-0.3-2.2c0-0.3-1-1-2.3-1.5c-1.9-0.7-2.8-1.5-4.7-4
		c-2.1-2.9-2.3-3.3-1.9-4.8c0.2-0.9,0.4-1.6,0.3-1.7c0,0-1.1-0.7-2.3-1.5c-1.2-0.7-3.5-2.6-5-4.1l-2.8-2.7l-3.8,1.5
		c-3.5,1.3-4.2,1.4-8.1,1.2l-4.3-0.2l-1.3-2.2c-0.7-1.2-1.8-3.6-2.3-5.3c-0.6-1.7-1.3-3-1.5-3c-0.2,0-1.4,0.2-2.5,0.4l-2.1,0.3
		l-12.8-17c-7-9.3-12.6-17.1-12.5-17.3c0.1-0.1,2.4-0.3,5-0.5c4.5-0.3,4.8-0.3,4.8-1.4c0-0.7-0.6-1.5-1.9-2.3
		c-1.6-1.1-2.6-1.3-7.6-1.5c-3.1-0.1-6.2-0.4-6.8-0.6c-0.8-0.2-1.1-0.1-1.4,0.7s-0.7,1-2,1c-1.5,0-2-0.4-6-5.6
		c-2.1-2.7-8.1-10.3-14.1-17.9H198.6c0.2,0.2,0.5,0.4,0.8,0.6c0.9,0.5,1.5,1.2,1.5,1.9c0,0.7,0.2,0.9,0.7,0.8
		c0.4-0.1,1.5-0.4,2.4-0.6c1.5-0.3,1.9,0,5.1,2.9c2.6,2.4,4.2,3.4,6,3.9c2.3,0.6,2.5,0.8,2.6,2.5c0.2,2.1,0.2,2.1,11.5,9.8l6.7,4.5
		h4.1c2.3,0,4.3-0.2,4.4-0.5c0.1-0.3,1.5-0.5,2.9-0.5h2.7l0.3,1.8c0.4,2.1,1.3,4.2,2.4,5.1c0.6,0.4,0.6,1,0.3,2.1
		c-0.4,1.3-0.2,1.8,1.7,4.3c1.6,2.1,2.2,3.3,2.2,4.5c0,1.3,0.6,2.3,3.7,5.7c2.4,2.6,4.3,5.4,5.5,7.7c1.6,3.4,1.7,3.7,1,5.1
		c-0.4,0.7-1.8,2.3-3.1,3.4l-2.4,2l0.4,3.1c0.8,6.6,1.3,7.5,4.2,9.4l2.7,1.6l-0.3,2.3l-0.3,2.3l5.9,5.1c3.2,2.8,6.2,5.4,6.6,5.8
		c0.6,0.5,1.6,0.4,5.7-0.6l4.9-1.2l9.6,3.8c6.5,2.5,10.3,3.7,11.7,3.7c1.8,0,14,1.6,16.9,2.2c0.7,0.2,1.1,0.6,1.1,1.4
		c0,0.6,0.7,2.2,1.5,3.5c1.3,1.9,1.9,2.4,3.5,2.6c2.8,0.4,2.8,1-0.1,1.4c-2.4,0.3-2.5,0.4-2.3,1.9c0.1,1.5,0.2,1.5,2.4,1.5
		c1.2,0,3.4-0.1,4.8-0.3c2.5-0.3,2.6-0.3,2.7,1c0.1,1.2,0.3,1.3,2.8,1.5c2,0.1,3.5,0.6,6.9,2.6c3.5,2,4.7,2.4,6.7,2.4
		c1.9,0,3.5,0.5,7.6,2.5c2.8,1.4,6.1,3.4,7.3,4.4c1.2,1,3.9,2.8,6,3.9c3.6,2.1,3.8,2.3,4.6,4.8l0.8,2.7l5,2.5
		c4.7,2.3,5.4,2.9,13.4,11c0.3,0.3,0.6,0.6,0.8,0.8h118.4L524.3,313.3z"/>
</g>
</svg>
