<?xml version="1.0" encoding="utf-8"?>
<!-- Generator: Adobe Illustrator 17.1.0, SVG Export Plug-In . SVG Version: 6.00 Build 0)  -->
<!DOCTYPE svg PUBLIC "-//W3C//DTD SVG 1.1//EN" "http://www.w3.org/Graphics/SVG/1.1/DTD/svg11.dtd">
<svg version="1.1" id="flag-icon-css-cu" xmlns="http://www.w3.org/2000/svg" xmlns:xlink="http://www.w3.org/1999/xlink" x="0px"
	 y="0px" viewBox="0 0 640 480" enable-background="new 0 0 640 480" xml:space="preserve">
<g>
	<path fill="#0050F0" d="M414.2,240.4l-36.4,21.1c0,0.2,0.1,0.4,0.1,0.5c0.6,5.3,0.7,5.6,3,6.5c1.1,0.4,3.4,1.8,5,3.1
		c1.6,1.3,3.8,2.5,4.7,2.7c1.4,0.3,1.9,0.9,2.5,2.8c0.6,1.9,0.9,2.3,1.9,2.1c0.7-0.2,2.2,0.7,4.5,3.1c3.6,3.6,5.2,4.2,10.5,4.2
		c2,0,3.4-0.4,4.5-1.2c1.4-1.1,1.8-1.1,4.8-0.3c3.8,1,22.6,0.7,25.4-0.4c2.1-0.7,5.2-0.1,6.7,1.4c0.6,0.7,1.7,1.2,2.3,1.2
		c0.8,0,1.5,0.7,1.7,1.6h155.3c-1.8-1.7-4-3.6-5.4-4.4c-1.9-1.1-3.6-2.7-4.2-4c-0.9-1.9-1.1-2.1-3.2-1.7c-1.6,0.3-2.7,0.1-4.2-0.8
		c-3.2-1.9-9.3-2.9-12.8-2c-2.1,0.5-3.4,0.6-4.7,0.1c-0.9-0.3-3.5-0.6-5.7-0.6c-3.1,0-4,0.2-4,0.9c0,0.5-0.6,0.9-1.2,0.9
		c-0.9,0-1.2-0.4-1.2-1.6c0-1.5-0.2-1.6-3.4-1.6c-3,0-3.4,0.1-3.4,1.2c0,0.8-0.6,1.4-1.7,1.6c-1,0.2-2.1,0.4-2.5,0.6
		c-0.4,0.1-0.9-0.2-1.1-0.7c-0.3-0.7-0.6-0.8-1.2-0.2c-0.7,0.6-0.9,0.4-1.3-1.2c-0.2-1-0.7-1.9-1.1-1.9c-1.2,0-4.9,2.6-4.9,3.5
		c0,1.1-0.1,1.1-2.1,0.2c-1.4-0.5-1.6-0.9-1.6-3.8v-3.2l5.5,0.2c4.5,0.2,5.4,0.1,5.4-0.7c0-0.5-0.9-1.4-2.1-2
		c-1.9-0.9-2.4-0.9-4.1-0.2c-2.4,1.1-4.1,0.3-4.1-1.8c0-1.7,1.7-2.1,2.9-0.9c1.2,1.2,3.5,0.4,4.1-1.6c0.3-1.1,0.9-2.5,1.2-3.2
		c0.5-1.1,0.4-1.7-0.7-3.2c-0.7-1.1-1.7-1.9-2.2-1.9c-0.4,0-1.7-0.7-2.9-1.6c-2.3-1.7-5.5-2.1-8.5-0.9c-0.9,0.4-2.8,0.7-4.1,0.6
		c-1.3,0-2.5,0.3-2.8,0.8c-0.6,1-5,1.6-6.7,1c-0.7-0.2-1.7-0.2-2.2,0.1c-0.8,0.4-1.2,0-2-1.9c-0.7-1.9-1.3-2.5-2.3-2.5
		c-0.8,0-3.7-1.4-6.6-3.2l-5.2-3.2l-4.1,0.4l-4.1,0.4v2.7c0,2-0.2,2.7-0.9,2.7c-0.5,0-0.9-0.6-0.9-1.2c0-2.5-1.8-5-3.5-5
		c-1.2,0-1.6,0.2-1.2,0.9c0.5,1.4-3.5,1.2-4.8-0.2c-1.4-1.5-1.3-1.9,0.4-2.1c0.7-0.1,1.4-0.6,1.4-1.1c0-0.6-1.2-1.2-3.7-1.7
		c-2.1-0.4-4.5-1.2-5.6-1.7c-3.4-1.6-5.9-2.1-6.4-1.2c-0.7,1.2-3.1,2.3-4.2,1.9c-0.7-0.3-0.7-0.6,0.3-1.6c0.6-0.6,1.2-1.6,1.2-2.1
		c0-1.1-4.7-7-6-7.5c-1.4-0.5-1.5-0.5-1.5,0.4c0,0.5-0.6,1.4-1.2,2s-1.2,1.7-1.2,2.5c0,1.6-1.1,2.2-3.8,2.2c-1.4,0-1.8-0.2-1.8-1.3
		c0-0.7,0.4-1.7,1-2.1c1.3-1,0.5-2.9-1.3-2.9c-3.1,0-5.2-0.8-5.9-2.2c-0.3-0.8-1.6-1.9-2.8-2.4c-2.5-1.1-3.6-2.7-2.8-4.2
		c0.4-0.8,0.2-1.1-1.2-1.6c-1-0.3-2.3-0.4-3.1-0.1c-0.9,0.3-1.9,0.3-2.6-0.1c-0.6-0.4-2.4-0.6-3.9-0.6c-4.1,0-6.4-1.1-7.3-3.2
		c-0.4-1-1.1-1.8-1.4-1.8c-1.2,0-3.6-3.1-3.6-4.7c0-1.2-0.3-1.6-1.6-1.6c-1.2,0-1.6,0.3-1.6,1.7c0,1-0.2,2.2-0.5,2.9
		c-0.4,1-0.7,0.8-2.2-1.2c-1-1.4-3.6-4.3-5.9-6.7c-2.9-3.1-4.4-4.2-5.6-4.2c-0.9,0-2.4-0.6-3.5-1.2c-1-0.7-3.4-1.6-5.3-1.9
		c-2.5-0.5-4-1.3-5.8-3h-51.9L414.2,240.4z"/>
	<path fill="#0050F0" d="M453.9,222.3c-3.2-0.4-6.4-2.1-6.9-3.6c-0.2-0.6-1.7-1.7-3.6-2.5c-3.3-1.4-4.5-1.6-4.1-0.8
		c0.1,0.2,0.7,1.7,1.3,3.3c0.7,1.6,1.8,3.2,2.6,3.7s1.8,1.6,2.1,2.6c0.6,1.7,0.9,1.8,4,1.8c2.6,0,3.6,0.3,4.5,1.2
		c1.6,1.8,2.9,0.5,2.7-2.7C456.4,222.7,456.3,222.7,453.9,222.3z"/>
	<path fill="#0050F0" d="M428.7,208.6c-1.2,0.7-0.1,3.7,1.9,5.2c1.2,0.9,2.2,1.1,3.9,0.8l2.2-0.4l-2.6-3.1
		C431.5,208,430.4,207.5,428.7,208.6z"/>
	<path fill="#0050F0" d="M354.7,282c-1.1-0.2-1.4-0.1-1.4,0.8c0,1.2,1.2,1.9,3.2,1.9C358.7,284.7,357.4,282.7,354.7,282z"/>
	<path fill="#0050F0" d="M361.8,286.5c-1.2,0-1.2,0.1-0.3,1c0.6,0.6,1.3,0.8,1.7,0.6C364.2,287.5,363.3,286.5,361.8,286.5z"/>
	<path fill="#0050F0" d="M402.2,193.6c-0.4,1.4,0.7,2.4,2.8,2.7c1.2,0.1,1.6,0.6,1.7,1.9c0.4,2.9,6.4,7.2,6.4,4.5
		c0-1.3,1.2-1.2,1.7,0.1c0.7,2.1,2.2,3.3,3.9,3.3c1.4,0,1.8,0.4,2.2,1.7c0.4,1.6,1.3,2.6,2.2,2.7c0.2,0,0.2-0.9,0.1-1.9
		c-0.2-1.5,0.1-2.2,1.4-3.4c1.3-1.2,1.7-2.1,1.5-3.6c-0.2-1.9-0.3-2-3-2.1c-1.6,0-3.6-0.5-4.7-1.1c-1-0.6-2.2-1.1-2.6-1.1
		c-0.4,0-0.8-0.7-0.8-1.4c0-1.4-1.4-3.2-2.6-3.5h-10.2C402.2,192.8,402.3,193.2,402.2,193.6z"/>
	<path fill="#0050F0" d="M349.9,280.9c1.9,0,2.1-0.1,1.5-1.2c-0.4-0.6-1.3-1.3-2.1-1.4c-0.2,0-0.3-0.1-0.5-0.1l-2.2,1.2
		C347.4,280.6,348.3,280.9,349.9,280.9z"/>
	<path fill="#FFFFFF" d="M410.9,191.2c-0.2-0.7-0.8-1.2-1.4-1.2c-1.8,0-4.5-2.1-4.5-3.6c0-1.1-0.4-1.4-2.3-1.6
		c-1.8-0.1-2.4-0.5-2.6-1.4c-0.5-3.4-0.8-4-2.7-4.6c-2.2-0.7-5.9-0.8-9.3-0.1c-1.2,0.2-2.7,0.7-3.4,1.2c-1.1,0.6-0.9,0.7,1.4,0.7
		c2.1,0,2.6,0.2,2.3,0.9c-0.6,1.4,1.6,2,2.6,0.6c0.8-1.1,0.9-1.1,0.9,0.2c0,0.9,1,2.5,2.4,3.9c2.2,2.3,2.4,2.4,2.7,1.1
		c0.4-1.2,0.5-1.2,1.8-0.4c0.8,0.6,1.5,1.7,1.6,2.7s0.6,2.1,1.1,2.3c0.2,0.1,0.4,0.3,0.5,0.5h10.2c-0.1,0-0.2-0.1-0.4-0.1
		C411.6,192.4,411.1,191.9,410.9,191.2z"/>
	<path fill="#FFFFFF" d="M454.6,291c-1.7,0.9-1.2,1.6,2.8,3c2.2,0.8,4.2,2.1,4.7,2.9c1.3,1.9,0.7,5.5-1.3,7.6
		c-0.8,0.9-1.7,2.2-1.9,3c-0.3,1.1-0.9,1.4-2.2,1.4c-1.2,0-2.1,0.5-2.7,1.6c-0.6,0.9-2.4,2.1-3.9,2.8c-1.6,0.6-4.4,2.6-6.3,4.4
		c-2,1.7-4.4,3.6-5.5,4.1c-1.4,0.6-2.2,1.5-2.7,3.1c-0.4,1.2-1.7,3.3-2.7,4.5c-2,2.2-6.2,8.8-5.9,9c0.1,0.1,1.4,0.6,2.7,1.2
		c2.3,0.9,2.7,0.9,3.9,0c0.7-0.5,2.6-1,4-1.1c1.4-0.1,4.7-0.5,7.3-0.9c3.8-0.6,4.9-1,6-2.4c1.3-1.6,2.2-1.9,8.3-2.1
		c0.5-0.1,2.6,0.2,4.6,0.6c2.9,0.5,4.1,0.4,5.8-0.2c1.2-0.5,2.9-0.9,3.9-0.9c0.9,0,2.4-0.7,3.5-1.5c1.4-1.1,2.1-1.4,3-0.9
		c0.7,0.4,1.8,0.4,3.1-0.1c1.1-0.4,4.8-1,8.2-1.2c8.8-0.7,15.8-1.7,18.8-2.7c1.9-0.6,5-0.7,12.2-0.6c8.7,0.2,9.8,0.2,12-0.9
		c2.4-1.2,2.4-1.2,3.6-0.1c0.9,0.9,2.1,1.2,4.6,1.2c1.9,0,4.9,0.6,7,1.4c2.6,0.9,4.9,1.3,8,1.2c7.9-0.1,14.2-0.9,16.9-2.1
		c2.5-1.1,2.7-1.3,2.7-3.5c0-3,1.5-5.3,3.3-5c1.9,0.2,2,2.2,0.2,5.7c-1.6,2.9-1.6,2.9-0.2,2.9c0.7,0,3.1-0.3,5.3-0.7
		c3.4-0.6,4.1-0.9,4.9-2.5c0.5-1,1.2-1.8,1.6-1.8c0.4,0,2.3-1.4,4.3-3.1c2-1.7,3.9-3,4.4-2.8c1.4,0.6,13.1-1.4,17-2.8
		c2.8-1.1,5-1.4,8.7-1.3c2.7,0.1,5.3-0.1,5.7-0.4c0.4-0.3,1.2-1.4,1.7-2.5c0.6-1.1,1.7-2.5,2.6-3.1c2.4-1.6,2.1-4.4-0.8-7.3
		c-2.5-2.4-4.3-2.9-6.5-1.4c-2.4,1.5-5.7,1.8-6.7,0.6c-0.5-0.6-2.4-1.7-4.2-2.6c-2.1-0.9-4.5-2.7-6.7-5c-0.3-0.3-0.6-0.7-1-1H455.3
		C455.5,289.6,455.3,290.6,454.6,291z"/>
	<path fill="#FFFFFF" d="M364.7,175.6c1.1,0,3.1,0.6,4.5,1.2c1.6,0.7,3.4,1,4.5,0.8c1.1-0.1,3.3,0.1,4.8,0.5
		c2.3,0.6,2.9,0.6,4.1-0.2c0.8-0.6,2-1,2.6-1c1.4,0,0.8-1.2-2.3-4.5c-1.8-1.9-2.6-2.3-4.5-2.2c-1.4,0-3.1,0.5-3.9,1.2
		c-1.6,1.3-4,1.5-8.8,0.9c-2.6-0.3-2.9-0.2-3.2,1.1C361.9,175.1,362.3,175.6,364.7,175.6z"/>
	<path fill="#FFFFFF" d="M383.6,296.3c1.4,2.2,5.1,3.8,5.9,2.6c0.9-1.3,0.7-1.5-2.6-2.9C382.7,294.3,382.3,294.3,383.6,296.3z"/>
	<path fill="#FFFFFF" d="M383.6,192.5c0,0-0.1-0.1-0.1-0.1c-2.1-2-3.1-2.4-6.2-2.8c-2.1-0.2-4.5-1-5.6-1.6c-4.2-2.7-9.3-5.5-9.8-5.5
		c-0.2,0-0.6,1.1-0.7,2.3l-0.2,2.4l-2.2-2.2c-1.2-1.2-3-2.4-4-2.7c-0.9-0.2-7,0.1-13.4,0.6l-11.6,1.1l-5.8-3.8
		c-3.2-2.1-6.3-3.9-6.9-4.2c-0.6-0.2-2.3-2-3.7-4c-1.4-2-3-3.9-3.5-4.4c-0.6-0.4-1-1.3-1-1.9s-0.7-1.9-1.5-2.9
		c-1.2-1.3-1.7-1.6-2.2-1c-0.6,0.5-1.5,0.3-3.7-0.8c-2.4-1.2-3.3-1.4-4.5-0.9c-1.4,0.5-1.7,0.4-2.3-1.1c-0.7-1.5-0.6-1.7,1.6-3.6
		l2.4-2l-2.7,0.5c-1.4,0.2-3.2,0.9-3.8,1.5c-1.1,0.9-1.3,0.9-3.9-0.6c-1.5-0.8-3.2-1.6-3.8-1.6c-0.6,0-1.1-0.4-1.1-1
		c0-0.7-0.4-0.8-1.2-0.6c-0.6,0.2-1.9,0-2.9-0.5c-1.6-0.8-1.9-0.7-3.9,0.6c-3.2,2.2-5.7,2.4-8.7,0.9c-1.4-0.7-3.1-1.1-3.7-0.9
		c-0.5,0.1-1.4,0-2.4-0.4l71,41.2H383.6z"/>
	<path fill="#FFFFFF" d="M253.8,147.3c-0.6-0.8-2-2.1-3.2-2.9c-1.3-0.8-1.8-1.1-3.5-1L253.8,147.3
		C253.8,147.3,253.8,147.3,253.8,147.3z"/>
	<path fill="#ED0000" d="M2.8,230.7c4.7,1.6,5.9,1.3,10.6-2.2c4.1-3.2,4.4-3.3,8.7-3.5c4.4-0.2,4.5-0.2,4.9,1.4
		c0.3,1.2,0.1,2.1-0.8,3.3c-1.6,2.2-2.4,5.1-1.3,5.1c1.7-0.1,5.9-2.5,8-4.7c2.9-3,4.5-3.8,11-5.4c4.2-1,5.7-1.1,7.3-0.6
		c2.4,0.8,3.5-0.1,5-4.5c0.9-2.3,0.9-3.2,0.4-4.2c-1-1.9-0.4-3.7,1.8-5.9c1.9-1.8,2.1-1.8,9.2-1.5c1.7,0.1,3.6-0.4,5.6-1.4
		c4.5-2.4,6.1-2.6,7.4-1.2c1.9,2.2,10.3,1.4,10.3-0.9c0-1.1,0.7-1.2,1.6-0.3c0.7,0.7,4-3.4,4-5.2c0-1.2,2.7-3.2,3.9-2.7
		c0.4,0.2,1.6-0.1,2.7-0.5c1.4-0.6,2.4-1.9,4.2-5.7l2.4-5l4.6-1.5c2.8-0.9,5.1-2,5.7-2.9c0.6-0.7,2.2-1.8,3.6-2.4
		c2-0.8,2.7-1.6,3.5-3.5l0.9-2.4h4.2c0.6,0,1.2,0,1.7,0l3-9.6l3.5,10.9c0.1,0,0.1,0,0.2,0c1.1-0.3,6-0.7,10.8-0.9
		c7.3-0.3,8.8-0.2,9.7,0.6c0.8,0.7,1.6,0.9,3.1,0.4c1.1-0.3,4.8-0.7,8.1-1c7.5-0.5,10.3,0.4,18.6,6.3c0.1,0.1-0.3,1.1-0.8,2.4
		c-0.7,1.8-1.7,2.7-4.5,4.1c-3.3,1.6-4.2,1.8-12.6,2.1c-5,0.2-9.5,0.5-10.1,0.7c-0.7,0.3-1.1,1.1-1.1,2.3c0,1.6,0.4,2,2.9,3.1
		c1.6,0.7,4.2,2.1,5.7,3c1.6,1,3.9,1.9,5.2,2.2c2.1,0.4,2.4,0.7,2.4,1.9c0,1.2,0.5,1.8,2.2,2.5c2.4,1,8.4,1.2,8.4,0.2
		c0-0.7,10.2-0.4,13.7,0.3c1.2,0.3,2.6,1.1,3,1.7c2,2.8,7.6,4.1,7.6,1.7c0-1.6,1.4-1.6,2.7-0.1c0.8,0.9,0.9,1.5,0.4,2.8
		c-0.7,1.9-0.1,2.1,1.5,0.4c0.9-1,1-1.8,0.7-4.4c-0.2-1.8-0.8-4.3-1.2-5.6c-0.7-2.1-0.7-2.4,0.3-2.6c1.3-0.4,3.7,2.9,3.7,5
		c0,4.2,3.6,6.8,10.8,7.7c3.8,0.5,5,0.4,8.4-0.7c3.5-1.2,4.9-1.3,10.4-1c7.5,0.5,9.9-0.1,9.3-2.2c-0.2-0.7-1.4-2.2-2.6-3.1
		c-2.4-2.1-2.2-2.9,0.6-2.9c3.4,0,5.9,0.7,6.2,1.8c1.1,3.9,1.1,5,0.1,5c-1.7,0-0.7,3.7,1.3,5.2c0.9,0.7,3.1,2.4,4.8,3.9
		c1.8,1.6,5.5,3.7,8.7,5c4.7,2,5.9,2.8,7.4,5c1.6,2.4,1.9,2.6,2.6,1.7c0.6-0.9,1.3-0.9,3.7-0.6c2.6,0.4,2.9,0.6,2.9,1.9
		c0,1.2,0.3,1.5,1.9,1.5c1,0,2.1-0.4,2.4-1c0.5-0.9,0.7-0.9,2.5,0c1.1,0.6,2.6,1,3.4,1c2.2,0,7.4,1.9,9,3.2c0.9,0.9,1.6,1.1,2.4,0.7
		c1-0.6,9.6,0.9,13,2.2c2.7,1.1,5.5,0.8,8.8-0.8c1.7-0.9,4.5-1.7,6.5-1.9c5.7-0.6,11.5-1.7,13.1-2.4c1.4-0.7,4.4-0.7,4.4,0
		c0,0.2-0.3,0.9-0.6,1.5c-0.6,1.1-0.3,1.2,1.7,1.8c1.3,0.4,2.9,1.3,3.6,2.1c2.5,2.8,5.2,7.8,5.2,9.6c0,1.4,0.6,2.2,2.4,3.4
		c1.7,1.1,2.1,1.6,1.2,1.7c-1.4,0.2-1.4,0.5-0.2,3.7c0.5,1.3,1,3.6,1.2,5.6l36.4-21.1l-82.5-47.8l-71-41.2c-2.5-0.8-5.9-2.7-6.9-4
		l-6.8-3.9c-1.1,0.1-2.6,0.3-5.2,0.7c-3.6,0.6-7.1,1.3-7.7,1.6c-1.2,0.7-5.5,0.9-5.5,0.2c0-0.2,0.2-0.9,0.6-1.5
		c0.6-1,0.4-1.1-2.1-0.8c-3.7,0.4-4.1,0.6-4.8,2.3c-0.4,1-1.3,1.7-2.6,2.1c-1.9,0.6-2.2,0.4-4.9-2.3l-2.9-2.9l2.6-1.3
		c2.9-1.6,5.4-4,4-4c-0.5,0-4.5,1.7-8.9,3.7c-4.4,2.1-8.7,3.7-9.5,3.7c-1.1,0-1.4,0.3-1.4,1.6c0,2.5-1.5,1.5-2.1-1.4
		c-0.5-2.2-0.9-2.7-2.9-3.3c-1.6-0.6-3.5-0.6-6-0.3c-4.9,0.7-16.8,0.4-19.3-0.4c-1.5-0.6-2.6-0.6-4.4,0c-1.4,0.4-4.7,0.7-7.6,0.7
		h-5.1l-7.6,4.5c-7,4.2-7.9,4.5-12.1,4.9c-2.9,0.2-4.8,0.7-5.2,1.2c-0.4,0.7-0.7,0.7-1.1,0.1c-0.8-1.2-10.3-0.3-9.8,0.9
		c0.2,0.5-0.2,1.1-0.9,1.5c-1.6,0.9-1.7,0.8-1.4-0.8l0.3-1.5l-4.9,1.1c-3.6,0.7-5,1.4-5.7,2.4c-1.1,1.7-2,1.7-2,0.1
		c0-1.4,0-1.4-3.4-0.5c-1.5,0.4-3.7,1.9-5.5,3.6c-2,1.9-3.4,2.8-4.2,2.7c-0.7-0.1-2,0.4-2.7,1.1c-1.1,1-1.9,1.3-3.1,1
		c-1.2-0.3-1.7-0.1-2.2,0.9c-0.4,0.8-1.3,1.2-2.5,1.2c-1.2,0-1.9,0.3-1.9,0.9c0,1.1-1.3,1.6-3.7,1.6c-0.9,0-2.1,0.4-2.4,0.9
		c-0.4,0.5-2.2,1.1-3.9,1.3c-1.7,0.2-3.3,0.8-3.5,1.3c-0.3,0.9-6,3.7-9.4,4.7c-1.2,0.3-2.2,1.1-2.6,2c-0.6,1.7-3.8,4.1-5.4,4.1
		c-0.6,0-1.6,0.8-2.2,1.8c-0.6,0.9-1.9,2.1-2.9,2.6c-1.6,0.6-1.9,1.1-1.9,2.9c0,1.6-0.4,2.4-1.9,3.5c-2.4,1.8-4.3,5.4-4.3,8.2
		c0,1.2-0.4,2.5-0.9,2.9c-1.2,1-1.2,1.9,0,1.9c0.5,0,1.1,0.9,1.3,2.1c0.2,1.6,1,2.6,2.8,3.7c1.3,0.9,2.4,2.1,2.4,2.7
		c0,0.6,0.4,1.5,0.8,1.9c0.6,0.7,0.4,0.7-1.4,0.4c-1.2-0.2-3-0.4-4.1-0.4c-1,0.1-3.1,0.1-4.6,0.1c-1.9,0-3.2,0.4-4.1,1.2
		c-0.7,0.7-2.7,1.8-4.5,2.5c-1.8,0.7-5.5,2.4-8.2,3.8c-4.9,2.4-5,2.4-7.6,1.6c-1.4-0.5-2.7-0.9-2.8-0.9s-0.2,0.9-0.2,2.1
		C-0.1,229.6,0.1,229.8,2.8,230.7z"/>
	<path fill="#ED0000" d="M327.7,265.4c0,0.9,2.9,3.7,3.7,3.7c0.4,0,0.6-0.5,0.5-1.1C331.7,266.8,327.7,264.2,327.7,265.4z"/>
	<path fill="#ED0000" d="M343.9,276.9c0-0.4-1.2-2.1-2.6-3.7c-2.4-2.5-2.8-2.7-3.7-2.1c-1,0.8-0.8,1.1,2.1,4.1
		C342.5,278.3,343.9,278.8,343.9,276.9z"/>
	<path fill="#ED0000" d="M346.8,277.5c-0.9-0.4-1-0.2-0.7,0.7c0.2,0.5,0.4,0.9,0.6,1.2l2.2-1.2C348.2,278,347.3,277.7,346.8,277.5z"
		/>
	<path fill="#FFFFFF" d="M111.2,244.8c-1.6,0-2.5-0.4-3.2-1.4c-0.9-1.4-3.9-3.2-4.4-2.8c-0.1,0.1,1,2.1,2.4,4.4
		c3.1,4.8,5.2,6.1,10.3,6.1c1.9,0,4.5,0.3,5.8,0.7c2.2,0.7,2.6,0.6,10.2-3.6c7.4-4.1,7.9-4.4,7.9-6.2c0-1.1-0.6-2.7-1.3-3.6
		c-1.1-1.4-1.2-1.9-0.6-3.2c0.9-2.1,0.1-3.5-3.1-4.9c-2.5-1.1-3.6-3.1-2.9-4.9c0.5-1.2-4.6-3.3-10.2-4.1c-2.6-0.4-5.4-0.9-6.2-1.1
		c-1.2-0.3-1.4-0.2-1.1,0.6c0.2,0.6-0.1,1.3-0.6,1.8c-3.2,2.6-5.8,9.7-3.9,10.8c1.3,0.8,6.9,7.9,6.9,8.7
		C117.1,243.2,113.8,244.8,111.2,244.8z"/>
	<path fill="#FFFFFF" d="M134.1,172.5c1.9,0.1,3,0.4,3.6,0.9c0.7,0.7,1.4,0.7,2.9,0.4l-3.5-10.9L134.1,172.5z"/>
</g>
</svg>
