<?xml version="1.0" encoding="utf-8"?>
<!-- Generator: Adobe Illustrator 17.1.0, SVG Export Plug-In . SVG Version: 6.00 Build 0)  -->
<!DOCTYPE svg PUBLIC "-//W3C//DTD SVG 1.1//EN" "http://www.w3.org/Graphics/SVG/1.1/DTD/svg11.dtd">
<svg version="1.1" id="flag-icon-css-cv" xmlns="http://www.w3.org/2000/svg" xmlns:xlink="http://www.w3.org/1999/xlink" x="0px"
	 y="0px" viewBox="0 0 640 480" enable-background="new 0 0 640 480" xml:space="preserve">
<g>
	<polygon fill="none" points="115.9,0 114.2,-0.7 111.9,0 	"/>
	<path fill="#FFFFFF" d="M539,241.5c2.7,0.8,4.1,1.5,5.4,2.9l1.8,1.8l5.6-0.3c4.5-0.3,6.1-0.2,7.9,0.5c1.2,0.4,2.3,0.7,2.4,0.7
		c0.1-0.1,0.8-1.4,1.7-3c0.7-1.3,1.2-2,2.3-2.9h-27.8C538.5,241.3,538.7,241.4,539,241.5z"/>
	<path fill="#081873" d="M107.2,1.5c-4.9,1.5-7.8,2.7-9.5,4C95.9,6.7,94.7,7.2,94,7c-1.5-0.4-6.3,4-7,6.4c-0.5,1.8-0.6,1.9-4.1,2.5
		c-2,0.3-5.9,1.4-8.9,2.4c-4.3,1.5-5.8,2.3-8.4,4.5l-3,2.6v4v4l2.9,1.7l3,1.7l1.8,5.1l1.7,5.2l-1.3,1.6c-1.2,1.4-1.3,1.8-0.9,4
		c0.7,3.5,0.7,3.6,3,4.8c2.5,1.2,3.4,1.3,7.1,0.2c1.8-0.5,3.4-0.7,4.7-0.5c1.1,0.3,4,0.4,6.7,0.3l4.8-0.2l9.4-9.6
		c8.6-8.9,9.6-9.7,10.9-9.4c1.7,0.4,5.3-1.3,11.1-5.3c4.6-3.1,5.5-4,8.8-8.9c1.9-2.8,2.3-3.7,2.3-5.7c0-2.3-0.1-2.4-1.6-2.8
		c-0.9-0.2-3-1.4-4.6-2.6c-2.9-2.3-2.9-2.4-3.1-5.1L129,5.2l-2.6-1c-1.4-0.6-4.8-1.9-7.4-2.9L115.9,0h-4L107.2,1.5z"/>
	<path fill="#081873" d="M194.9,111.1c3.1,0.6,3.2,0.4,1.1-2.5c-1.1-1.5-2.1-2.8-2.3-2.8c-0.3,0-0.4,1.1-0.4,2.5
		C193.4,110.6,193.4,110.7,194.9,111.1z"/>
	<path fill="#081873" d="M188.2,89.3c-2.6,0-3-0.2-3.3-1.2c-0.2-0.6-1-1.8-1.8-2.7c-0.8-0.9-1.5-2-1.6-2.5c-0.1-0.7-1-1.2-3.5-1.9
		c-1.8-0.5-3.5-0.9-3.6-0.9c-0.2,0-0.8,1.2-1.4,2.6c-1.1,2.5-1.1,2.7-0.2,3.7c0.5,0.7,2.2,1.7,3.9,2.4c2.1,0.8,3.3,1.6,3.8,2.7
		c1.8,3.2,1.5,3.1,7.2,2.7c5-0.4,5.2-0.4,5.9-1.8c0.4-0.8,0.8-1.5,0.8-1.7C194.4,90.1,190.8,89.3,188.2,89.3z"/>
	<path fill="#081873" d="M585.9,211.6l-3-3.1c-2.4-2.5-3.1-3.5-3.3-5.1c-0.2-1.1-0.5-2.7-0.8-3.5c-0.5-1.2-0.8-1.4-3.1-1.4
		c-2.1,0-3.6-0.5-8.1-2.8l-5.5-2.8l-1.2,2.5l-1.1,2.5l-3.9,0.6c-7.2,1.1-8.9,0.9-13.4-1.7c-2.2-1.3-4.3-2.3-4.5-2.3
		c-0.3,0-0.8,0.9-1.1,2c-0.4,1.6-0.3,2.2,0.3,2.8c0.7,0.7,0.7,0.9-0.1,2c-1.1,1.7-1.1,2,0.5,5.8c1.2,2.8,1.3,3.6,1,6.5l-0.4,3.3
		l-3.4,2.3c-2.5,1.7-3.9,3-5.2,5.1l-1.7,2.9l1.1,5c0.6,2.7,1.2,5,1.2,5.1c1.4,1.1,5.2,3,8,4H566c1.2-0.9,3-2,6.6-4
		c11.9-6.6,12.7-7.2,12.7-9.1c0-0.9,0.5-2.1,1.1-2.8c1.1-1.1,1.1-1.2,0.3-7.4L585.9,211.6z"/>
	<path fill="#081873" d="M135.8,58.5c-1.5,1.5-3,3.4-3.2,4.4c-0.3,0.9-0.7,1.5-1,1.5c-0.3-0.1-2.4-0.3-4.8-0.4l-4.4-0.4l-0.9,2.3
		c-0.8,1.8-1.3,2.5-3.4,3.4c-2.3,1.1-2.5,1.3-2.7,3.2c-0.2,1.9-0.1,2.1,1.5,2.7c1.3,0.6,1.7,1.1,2,2.5c0.4,2.3,0.7,2.4,2.7,1.7
		c1.5-0.5,1.8-0.4,4.6,2c2.4,1.9,3.7,2.6,6.1,3.2c3,0.6,3.3,0.6,6.1-0.7c4.2-1.8,6-2.3,10.4-2.6c2.4-0.2,4.9-0.8,6.8-1.6
		c2.8-1.3,2.9-1.4,3.4-3.8c0.4-1.8,0.3-2.8-0.2-3.8c-0.4-0.8-0.6-1.9-0.4-2.8c0.3-1.3,0.2-1.5-1.3-1.8c-0.9-0.2-2.6-0.3-3.8-0.3
		h-2.2l-0.8-2.8c-0.7-2.5-0.7-3-0.1-4.3c0.7-1.3,0.7-1.5-0.4-2.5c-2.6-2.3-2.6-2.3-5.2-0.4l-2.5,1.8l-1.7-1.6l-1.7-1.6L135.8,58.5z"
		/>
	<path fill="#081873" d="M181.1,475.3l2-0.5l1.9,2.8c1,1.5,2.1,2.8,2.4,2.8c0.2,0,1.1-0.6,1.9-1.2c0.9-0.7,2.5-1.4,3.8-1.6l2.4-0.4
		l-0.4-3.8c-0.2-2.1-0.3-5.5-0.3-7.6c0-3.6-0.1-3.8-1.5-4.6c-1.8-0.9-1.5-1-3.3,0.3c-1,0.7-2.4,1-4.2,1c-2.8,0-2.8-0.1-3.5,3.4
		c-0.2,1.1-0.7,1.7-1.4,1.8c-0.9,0.2-1.2,0.7-1.8,3.9c-0.4,2-0.6,3.8-0.4,4C178.9,475.7,179.9,475.6,181.1,475.3z"/>
	<path fill="#081873" d="M243.5,475.5c4.4,2,6.7,2.7,8.4,2.7c3.2,0,9-2.8,13.4-6.3c1.9-1.6,3.9-3,4.5-3.2c1-0.3,1-0.8,1-7.3
		c0-8.7-0.7-14.3-2.4-19.7c-1.2-3.8-1.6-4.5-4.4-7c-2.8-2.6-6.5-4.5-8.6-4.6c-0.4,0-2.2,0.5-3.9,1.2c-1.7,0.6-3.8,1.6-4.6,2.2
		c-0.8,0.6-3.3,1.7-5.5,2.5c-3.6,1.3-4.3,1.7-6.5,4.6c-3,3.8-5.3,9.4-6.8,16.6l-1.1,5.3l5.2,5.2C237.2,472.7,237.7,473,243.5,475.5z
		"/>
	<path fill="#081873" d="M524,98.6c-0.9,0.7-1.6,1.5-1.6,1.7c0,0.2,1.2,0.4,2.7,0.4c1.4,0,3.8,0.3,5.2,0.6c2.3,0.6,2.6,0.8,3.2,2.5
		c0.7,1.8,0.7,1.9-0.9,3.9l-1.6,2l2.4,2.2l2.4,2.2l0.2,4.1c0.2,2.3,0.3,4.4,0.4,4.8c0.2,0.4,1.4,0.2,4.2-0.7c2.2-0.7,4-1.4,4.2-1.5
		s-0.3-1.3-0.8-2.7c-0.6-1.3-1.2-3.2-1.3-4.1c-0.2-1.4-0.1-1.6,0.9-1.8c0.9-0.1,1.2-0.6,1.3-1.8c0.1-1,0.7-2,1.4-2.7
		c0.7-0.5,1.2-1.3,1.2-1.8c0-0.4-0.9-3.1-2-5.9c-1.1-2.8-2.4-6.6-2.8-8.4l-0.8-3.2l1.3-1.1l1.3-1l-1.3-4.6c-1.1-3.9-1.3-4.9-0.8-6.6
		c0.6-1.9,0.5-2-1.4-3.7c-3.1-2.6-3.4-2.7-5.1-1.6c-0.8,0.5-2.3,1-3.3,1c-1.5,0-2.4,0.5-5.3,3.2l-3.4,3.2l0.2,4.1
		c0.2,3.4,0.4,4.5,1.5,6.2c1.2,1.8,1.3,2.2,0.7,3.6c-0.4,0.8-0.7,2.6-0.6,3.8C525.6,96.9,525.4,97.3,524,98.6z"/>
	<path fill="#081873" d="M213.8,118.4c0.6-1,1.1-1.9,1.1-2c0-0.2-2.8-1.4-3.3-1.4c-0.1,0-0.5,0.5-1,1c-0.8,0.8-0.9,1.3-0.5,2.5
		C210.8,120.5,212.5,120.5,213.8,118.4z"/>
	<path fill="#081873" d="M321.8,123.7c-1.3,0-2.2-0.6-4.4-2.8c-1.9-2-3.6-3.1-5.7-3.8c-2.8-1-3.3-1.1-8.7-0.5
		c-5.5,0.5-5.8,0.5-7.2-0.5c-3.8-2.8-5.2-3.4-9.3-4.4l-4.5-0.9l-1.7,1.1c-1.5,0.9-2,1-3.2,0.6c-1.2-0.5-1.6-0.4-2.6,0.5
		c-0.6,0.6-1.3,1-1.6,1c-0.8,0-3.6-3.1-5.5-5.9c-1.5-2.3-1.8-2.5-3.8-2.7c-1.3-0.1-2.3-0.5-2.5-0.9c-0.4-1-1.2-0.9-2.7,0.4
		c-1,0.8-1.9,1-4.2,0.9c-2.9-0.1-3.1,0-5.3,2c-1.3,1.2-2.8,2.2-3.3,2.2c-1.6,0-2.4,3.5-1.5,7.1l0.7,2.8l5.6,3.5l5.5,3.5l3,5.6
		c2,3.8,3.1,6.4,3.3,8.2c0.3,2.5,0.5,2.8,2,3.6c1.6,0.7,1.8,0.7,2.7-0.1c0.8-0.8,0.9-1.2,0.5-2.7c-0.4-1.5-0.3-1.9,0.5-2.9
		c0.6-0.6,2.4-3.7,3.9-6.9l2.9-5.7h1.9c1.3,0,2.5-0.5,3.9-1.5c1.8-1.4,2.3-1.5,6.4-1.5h4.4l5.9,3.4c7.1,4,8.8,4.4,18.7,4
		c9-0.4,10.1-1.1,8.2-4.8C323.7,124,323.1,123.7,321.8,123.7z"/>
	<path fill="#081873" d="M379.7,394.4h16.8c-0.8-0.3-1.8-0.9-3.2-1.9c-1.9-1.4-4.4-3.6-5.4-5l-1.9-2.6l0.6-3.2l0.6-3.1l-2.3-2.5
		c-1.3-1.4-2.4-2.6-2.6-2.6c-0.1-0.1-0.8,0.6-1.5,1.5l-1.2,1.7l-1.6-2.3c-0.9-1.3-1.6-2.4-1.7-2.4c-0.1,0-1.2,1.1-2.5,2.4
		c-2,2.1-2.4,2.8-2.5,4.8c-0.1,0.8,0,1.7,0.2,2.6l2.2-6.7L379.7,394.4z"/>
	<path fill="#081873" d="M503.7,407.4l-0.7-6.3c-0.4-3.4-1.2-7.8-1.8-9.8c-1.1-3.3-1.1-3.7-0.5-5.1c0.7-1.4,0.7-1.6-0.9-4.7
		c-1-1.8-2-3.3-2.3-3.3s-1.4,0.4-2.4,0.8c-1,0.4-2,0.8-2.3,0.8c-0.2,0-1-1.3-1.8-2.8c-0.8-1.5-1.5-2.8-1.8-2.8
		c-0.2,0-0.8,0.6-1.2,1.4l-0.8,1.4l-0.7-2.2c-0.4-1.2-0.8-2.2-0.9-2.1c-0.2,0-1.2,1.4-2.3,3.1c-1.1,1.7-2.4,4.4-2.8,5.9
		c-0.7,2.5-0.9,2.8-2.7,3.2c-1.7,0.5-1.9,0.7-2.1,2.6c-0.1,1.4,0,2.2,0.5,2.3c0.4,0.1,1,0.3,1.4,0.5c0.6,0.2,0.8,1,0.8,2.8
		c0,2-0.2,2.7-1.2,3.5c-1.5,1.2-2.9,8.2-2.5,12.6c0.3,2.9,0.4,3,2.4,4c1.1,0.6,2.9,1.8,3.9,2.7c1.7,1.6,2.1,1.7,6.1,2l4.4,0.3
		l6.2-5.5L503.7,407.4z"/>
	<path fill="#081873" d="M412,409.6h-2.7l-4.3-7.5l-4.3-7.4l-1.3,0.1l-15.8,11.6l6.3,19.3l-16.4-11.9l-2.3,1.7c-0.4,2.1-1,4-1.8,5.3
		c-0.7,1.1-1.4,3.2-1.6,4.7l-0.4,2.7l2.2,1.1c1.7,0.8,2.5,1.6,3.3,3.5c1,2.3,1.2,2.4,2.8,2.3c1.5-0.2,1.9,0.1,3.6,2.3l1.9,2.5
		l-1.6,1.6l-1.6,1.5l3.7,4.4l3.7,4.3l8,3.3c7.1,3,8.8,3.5,15.3,4.5c7.1,1.1,15.1,1.2,17.6,0.3c0.6-0.2,1-1.2,1.2-3.2
		c0.3-2.4,0.7-3.4,2.4-5.3c1.7-2.1,1.9-2.6,1.5-3.7c-0.8-2-0.7-2.1,1.9-3.1c1.3-0.5,2.6-1.1,2.8-1.2c0.4-0.4-0.6-4.1-2.3-8.9
		c-1-2.7-1.2-2.9-2.7-2.9c-1.4,0-1.9-0.5-4.5-4.3c-2.2-3.1-3-4.9-3.2-6.8c-0.6-4-0.7-4.3-3.4-5.1c-1.9-0.7-2.9-1.3-4.1-3.1
		C414.7,409.6,414.6,409.6,412,409.6z"/>
	<path fill="#FFCE08" d="M389.9,425.6l-6.3-19.3l15.8-11.6l-0.6,0c-0.8,0.1-1.5,0-2.3-0.4h-16.8l-6.2-19.2l-2.2,6.7
		c0.5,2.8,1.8,5.7,3.3,7.2c1.5,1.5,1.6,1.7,1.1,3.4c-0.3,1-1.1,2.6-1.7,3.4c-0.9,1.1-1.2,2.3-1.2,3.9c-0.1,1.2-0.5,3-1,3.9
		c-0.7,1.4-0.8,2.2-0.4,4.5c0.4,2.1,0.3,4.7-0.1,7.1l2.3-1.7L389.9,425.6z"/>
</g>
</svg>
