<?xml version="1.0" encoding="utf-8"?>
<!-- Generator: Adobe Illustrator 17.1.0, SVG Export Plug-In . SVG Version: 6.00 Build 0)  -->
<!DOCTYPE svg PUBLIC "-//W3C//DTD SVG 1.1//EN" "http://www.w3.org/Graphics/SVG/1.1/DTD/svg11.dtd">
<svg version="1.1" id="flag-icon-css-cw" xmlns="http://www.w3.org/2000/svg" xmlns:xlink="http://www.w3.org/1999/xlink" x="0px"
	 y="0px" viewBox="0 0 640 480" enable-background="new 0 0 640 480" xml:space="preserve">
<g>
	<path fill="#002B7F" d="M556.2,299.7c-0.3,0-0.7-0.4-0.9-0.9c-0.2-0.5-1.7-1.8-3.4-2.9c-1.6-1.1-5.2-3.9-8-6.1
		c-2.7-2.2-5.8-4.4-6.9-4.9c-1-0.5-3.1-2.6-4.7-4.7c-4.7-6.4-6.5-8.1-7.6-7.7c-0.5,0.2-1.8,2.2-2.9,4.4l-2,4.1l1.6,2.2
		c0.9,1.2,1.6,2.6,1.6,2.8c0,0.3,0.6,0.6,1.2,0.6s1.8,0.8,2.6,1.9c0.7,1,1.7,1.9,2.2,1.9c1.7,0,0.1,1.2-2.2,1.6
		c-1.2,0.2-2.6,0.7-3.1,1c-0.4,0.3-1.6,0.3-2.8,0c-1.6-0.4-2.1-0.9-2.2-2.2c-0.1-1-0.6-1.7-1.2-1.7c-0.7,0-0.9,0.4-0.6,1.6
		c0.4,1.7-0.7,2.1-2,0.8c-0.6-0.6-0.7-0.6-0.7,0.2c0,0.5-0.6,1.2-1.2,1.7c-0.7,0.4-1.1,1.1-0.9,1.6c0.2,0.6-0.2,1.1-0.9,1.3
		c-1.7,0.5-2.8-0.2-2-1.2c1.1-1.2-2.1-2.5-3.9-1.6c-0.7,0.4-1.6,1.1-1.8,1.4c-0.3,0.5-0.6,0.5-1.1,0c-1.2-1.2,0.5-4.5,2.5-4.9
		c4-0.9,3.3-3.4-1.2-4.5c-1.6-0.4-2.2-1-2.4-1.9c-0.1-0.9,0.1-1.4,0.7-1.4c0.6,0,0.8-0.5,0.6-1.6c-0.2-1.4-0.1-1.6,1.7-1.6
		c1.4,0,2.1,0.3,2.3,1.1c0.2,0.8,0.9,1.1,2.4,1.1c1.8,0,2.1-0.2,2-1.3c-0.2-1.7,2.3-2.1,4-0.5c0.9,0.8,1.4,0.9,1.6,0.3
		c0.2-0.4,0.7-0.7,1.2-0.7s0.9-0.2,0.9-0.6c0-0.4,0.8-1.5,1.8-2.6c1.1-1.1,1.9-2.9,2.1-4.1c0.2-1.9-0.1-2.5-3.1-5.4
		c-1.9-1.7-4.4-4.6-5.7-6.2c-3-3.9-12.2-9.8-15.3-9.8c-0.6,0-1.2-0.4-1.4-0.9c-0.2-0.5-1.2-0.9-2.3-0.9c-3-0.1-11.2-1.4-11.9-1.9
		c-1.5-1.2-11.1-3.9-16.8-4.7c-3.3-0.5-6.4-1.1-6.7-1.3c-0.4-0.2-1.9-0.6-3.6-0.9c-1.6-0.2-4.4-1.1-6.3-1.8
		c-2.5-0.9-3.6-1.1-4.2-0.6c-1,0.8-4.8,1.9-7.4,2.1c-1,0.1-2.4,0.2-2.9,0.2c-0.6,0.1-1.1,0.5-1.1,0.9c0,0.7-12.3,4.2-19.7,5.6
		c-1.7,0.3-4.7,0.9-6.6,1.2c-1.9,0.4-4.8,0.9-6.6,1.2c-3.7,0.6-7.1,1.7-8.4,2.8c-0.9,0.8-1.7,1-10,2.2c-5.8,0.9-18.1,0.1-20.3-1.4
		c-0.4-0.2-3.2-0.1-6.2,0.2c-4.9,0.6-6.2,1-10.4,3.3c-10,5.7-10.7,5.8-33.6,6.5c-17.7,0.6-20.6,0.5-22.8-0.3c-1.4-0.6-2.9-1.4-3.4-2
		c-3.1-3.4-16.2-8.9-24.7-10.4c-3.9-0.7-6.7-1.5-7.5-2.2c-0.7-0.6-2.9-1.9-5-2.7c-2.1-0.9-4.4-1.9-5.1-2.3c-0.7-0.4-1.6-0.4-2-0.2
		c-0.4,0.2-2.3-0.5-4.3-1.6c-4.8-2.7-12.9-5.6-16.7-6c-3.6-0.4-6-2-11.6-7.8c-1.9-1.9-4.7-4.1-6.3-4.8c-1.6-0.7-3.4-1.8-4-2.6
		c-0.6-0.7-1.4-1.2-1.7-1.2c-0.6,0-5.4-4.2-11.1-9.6c-1.6-1.5-4-3.4-5.4-4.4c-1.4-0.9-3.1-2.4-3.7-3.3c-2.9-4.8-5.9-9.4-7.1-10.9
		c-0.5-0.7-1.2-2.1-1.8-3.5l-7.1-4.3l-32.1,21.4l10.7-37.4l-26.7-21.4h37.4l0,0c-0.6-0.4-1.3-0.9-2-1.4c-6.4-4.2-7.4-4.4-9.2-2.4
		c-1.7,2-3.2,1.4-2.6-1.1c0.2-1.2,0.8-1.7,1.8-1.7c1.6,0,2.2-1.5,1.6-3.5c-0.4-1-6.9-7-13.9-12.6c-1-0.8-3.8-2.5-6.3-3.7
		c-3.8-1.9-5.2-2.2-8.9-2.2c-7.2-0.1-16,0.9-20.5,2.2c-4.1,1.1-4.4,1.1-7.4,0.2c-1.7-0.6-5.6-1.3-8.6-1.6c-11.7-1.2-12.9-1.4-13.7-2
		c-0.4-0.3-2.8-0.7-5.2-0.9c-3.5-0.2-5.5-0.8-8.8-2.5c-2.3-1.2-5.6-2.3-7.2-2.5c-1.6-0.1-3.4-0.7-4.1-1.3c-0.8-0.7-2.4-1-6.2-1
		c-5-0.1-5.6-0.2-11.7-3.5c-0.6-0.3-2.2-0.7-3.7-0.9c-1.5-0.2-3.3-0.5-4.1-0.7c-1.1-0.2-1.7,0.3-3.1,2.3c-1.1,1.7-1.5,3.1-1.2,4
		s0.1,1.6-0.6,1.8c-0.6,0.2-0.9,1.2-0.9,2.7c0,1.4-0.4,3.4-0.9,4.6c-0.9,2.1-0.8,2.2,0.8,3.7c0.9,0.9,2.8,2.2,4.2,2.9
		s3.9,2.9,5.5,4.9c2.7,3.2,3,3.9,2.7,5.7c-1.2,6.8-1.6,5.8,3.6,10.6c5,4.5,5.7,6.2,4,9c-0.6,1-0.6,1.6,0.3,3.1
		c0.6,1,1.1,2.2,1.1,2.7c0,0.6,0.5,1.1,1.1,1.3c0.8,0.3,1.1,1.1,1.1,3.9c0.1,2.7,0.4,3.7,1.2,4.3c0.7,0.4,1.5,1.1,1.8,1.6
		c0.4,0.4,1.6,1.6,2.7,2.7c1.6,1.6,2,2.5,2,4.6c0,1.4,0.2,2.7,0.6,2.9s0.7,1.1,0.9,2.1c0.7,3.9,2.9,8.7,4.7,10.2
		c1,0.9,2.4,2.5,3,3.6c0.7,1.4,1.6,2.1,2.6,2.1c1.7,0,1.9,1,0.2,1.9c-0.7,0.4-1.2,1.1-1.2,1.6c0,0.5-1.1,2.1-2.5,3.4
		c-1.4,1.4-2.5,3-2.5,3.5c0,0.5-0.4,1.8-1,2.9c-1.2,2.2-0.8,4.1,1.3,6.4c0.9,0.9,2,2.6,2.6,3.6c0.5,1.1,1.4,2.1,1.9,2.2
		c0.5,0.2,2.3,1.7,3.9,3.4c2.6,2.6,3.2,3,5.6,3c3.7,0,6.7,1.7,10.4,6.1c2.9,3.3,3.6,3.7,6.9,4.5c3.3,0.7,4,0.7,5.7-0.2
		c1.1-0.6,2.5-1,3.2-1c0.9,0,1.2-0.4,1.2-1.3c0-0.7,0.4-2.2,1-3.4c0.9-2,0.9-2.2-0.4-4c-0.7-1-1.8-1.9-2.3-1.9
		c-0.9,0-0.9-0.1,0.1-1.2c0.7-0.7,0.9-1.7,0.7-2.4c-0.2-0.7,0-1.5,0.6-2c0.9-0.7,0.9-0.6,0.6,0.7c-0.5,1.9,0.6,4.2,1.8,4.2
		c1.2,0,1.6-3.5,0.6-5c-0.6-0.8-0.6-1.3-0.1-1.6c0.7-0.4,1.8,0.7,1.8,2.1c0,0.6,1,0.8,2.7,0.8c1.5,0,3,0.4,3.4,0.8
		c0.9,1.1,0.2,1.7-1.6,1.7c-0.8,0-2.4,0.7-3.7,1.5c-2.1,1.5-2.2,1.6-0.9,2.2c1.4,0.7,1.2,1.1-1.7,4.1c-0.8,0.7-1.4,1.9-1.4,2.6
		c0,1.4,2.5,3.9,3.9,3.9c0.6,0,1.5,0.7,2.1,1.6c1.4,2.1,3.9,3.3,6.1,2.9c1.2-0.2,2.6,0.2,4.9,1.6c1.7,1.1,3.8,1.9,4.6,1.9
		c0.8,0,3.2,0.8,5.4,1.9c2.1,1,4.6,1.9,5.4,1.9c0.9,0,1.4,0.4,1.4,1.2c0,1,0.4,1.2,1.9,1.2c2.8,0,4.1,1.7,4.6,6
		c0.3,2.7,0.8,4.2,2,5.4c1.8,2,1.4,1.9,4,0.6c2.2-1.1,6.4-1.2,8.9-0.2c0.9,0.3,1.7,1.3,1.9,2.2c0.3,1.4,0.7,1.6,2.5,1.6
		c2.4,0,3.2,0.7,3.8,3.7c0.9,4.6,0.6,4.4,5.7,4.1l4.6-0.3v4.1c0,3.5,0.2,4.1,1.2,4.4c1,0.2,1.2,0.9,1.2,2.7c0,1.3,0.3,2.6,0.6,2.7
		c0.4,0.2,0.6,0.9,0.6,1.6c0,1.3,4,3.1,6.9,3.1c1.5,0,3,1,4.6,3h30.7c0.4-0.9,0.7-1.9,1.1-3.1c2-6.7,2-7.3,0.1-8.1
		c-0.9-0.3-2-1.2-2.6-2.1c-1.9-2.9-6.6-3.4-6.6-0.7c0,0.4-1.1,1.9-2.6,3.4c-1.8,1.9-2.3,2.9-1.9,3.3c1.6,1.6,0.7,2.3-2.4,2.3
		c-3.2,0-3.2,0-4.4-2.9c-1.6-3.5-1.6-3.4,0.2-3.4c2.7-0.1,7.6-1.7,7.8-2.6c0.1-0.6-0.9-1.6-2.6-2.6c-3.9-2.2-4.2-3.1-1.2-2.6
		c3.2,0.6,4.3-0.5,3-3c-0.9-1.7-0.9-1.7,0.8-1.5c1.1,0.1,1.9,0.7,2.6,2c0.4,1,1.6,2.1,2.6,2.5c1,0.3,1.8,0.9,1.8,1.1
		c0,0.2,1,1.1,2.2,1.8c1.5,0.9,2.2,1.8,2.2,2.8c0,1.4,0.1,1.4,2.6,0.7c1.4-0.4,3.1-1.4,3.7-2.2c1-1.4,1.7-1.5,9.3-2
		c6.6-0.4,8.5-0.3,9.6,0.4c0.7,0.4,2.9,1.1,4.7,1.2c1.9,0.2,4.4,0.9,5.6,1.6c1.2,0.6,3.2,1.4,4.2,1.6c2.9,0.6,4.6,3,4.6,6.5
		c0,3,1,5.1,2.6,5.6h308C557.1,300.1,556.4,299.7,556.2,299.7z"/>
	<path fill="#002B7F" d="M494.5,361c-0.3,2.2,1.4,5.9,3.3,6.8c1,0.5,4.1,1.1,6.9,1.2c4.7,0.2,5.4,0.4,7.5,2.3
		c1.3,1.1,3.3,2.5,4.5,3.1c2.6,1.3,9.9,2.1,9.2,1.1c-0.2-0.4-1.1-0.7-1.9-0.7c-1.4,0-2.6-1-2-1.7c0.2-0.1,2,0.2,3.9,0.7
		c4.4,1.2,11.5,0.8,11.5-0.7c0-1.6,1.1-0.9,1.4,0.9c0.2,1,1,2.1,1.8,2.5c1.1,0.5,1.2,0.7,0.3,0.7c-0.6,0.1-1.8-0.4-2.6-0.9
		c-1.2-0.8-2.4-0.9-5.7-0.6c-2.2,0.2-3.8,0.6-3.4,0.9c0.4,0.3,2.2,0.4,3.9,0.2c2.6-0.2,3.4-0.1,4.1,0.9c1.1,1.4,3.7,1.4,11.7,0
		c4.9-0.9,5.9-0.9,7.8-0.1c1.2,0.4,3.7,1.2,5.4,1.6c3,0.7,3.4,0.6,4.9-0.6c1.6-1.2,2.2-1.3,7.5-0.9c5.6,0.4,5.9,0.4,8-1.2
		c3.6-2.7,5.4-9.6,2.4-9.1c-0.7,0.1-1.2-0.2-1.3-1.2c-0.2-1.6,0.9-1.8,2.8-0.4c1.2,0.9,1.4,0.8,2.3-0.6c0.6-0.9,1.4-1.6,1.9-1.6
		c0.5,0,1.3-0.7,1.9-1.6c0.2-0.3,0.4-0.6,0.7-0.9H494.5z"/>
	<path fill="#002B7F" d="M482.1,364.2c0.6,1.8,1.4,3,1.9,3c0.5,0,1.5,0.7,2.2,1.6c1.1,1.4,1.5,1.6,4.1,1.2c4.2-0.6,4.5-1.1,3.4-5.9
		c-0.2-1-0.5-2.1-0.6-3.1h-7c0,0.6-0.4,1.2-1.3,1.2c-0.8,0-1.1-0.2-1.2-1.2h-3C481.2,361.9,481.7,362.9,482.1,364.2z"/>
	<path fill="#002B7F" d="M443.2,361.7c1.3,0.6,3.4,1.1,4.7,1.1c2.6,0,10.2,2.2,12.2,3.5c0.7,0.5,2.8,0.9,4.8,0.9
		c3.2,0,3.7-0.2,4.8-1.8c0.7-1,1.3-2.2,1.3-2.6c0-0.3,0.1-1,0.3-1.8h-30.6C441.8,361.2,442.6,361.5,443.2,361.7z"/>
	<path fill="#F9E814" d="M600.7,357.8c1.7,0,4.7-0.6,6.6-1.2c1.9-0.6,6.1-1.4,9.3-1.6c3.2-0.2,6.4-0.7,7.2-1.1
		c0.7-0.4,2.8-0.7,4.6-0.6c2.7,0.1,3.4-0.1,4.1-1.1c0.4-0.7,1.2-1.3,1.9-1.3c1.3,0,4.9-2.9,4.9-4.1c0-0.4,0.4-0.9,0.9-1.2
		c2.1-0.7,0.9-2.6-2.5-4.3c-1.9-0.9-3.8-1.7-4.2-1.7c-0.5,0-3-1.1-5.6-2.4c-2.6-1.4-5.8-2.7-7.1-2.9c-1.3-0.2-3.6-0.9-5.1-1.6
		c-1.4-0.6-3.5-1.2-4.6-1.2s-2-0.4-2.2-0.9c-0.2-0.5-1-0.9-1.8-0.9c-0.7,0-1.9-0.6-2.4-1.2c-0.6-0.7-2.7-2-4.6-2.9
		c-1.9-0.9-5.1-3.1-7.1-4.9c-5.6-4.9-12.3-9.2-17.7-11c-2.1-0.7-5-2.1-6.5-3.1c-1.5-1.1-3.6-1.9-4.6-1.9c-1.2,0-2.6-0.8-4.5-2.5
		c-0.6-0.5-1.1-1-1.6-1.4H250c0.2,0.1,0.5,0.1,0.8,0.1c0.9,0,1.9,0.6,2.6,1.6c1.1,1.6,6.5,7.1,7.1,7.1c0.2,0,0.6,0.4,1,0.9
		c0.4,0.5,3.1,1.9,5.9,3.1c5.9,2.4,7.4,3.6,10.4,8.2c1.1,1.8,2.9,3.7,3.8,4.2c2.6,1.3,4.2,3.4,5.1,6.5c0.5,1.9,1.7,3.6,3.7,5.5
		c3.5,3.2,5.8,3.7,13.6,3.1l5.2-0.4l2.1,2.2l2.1,2.2l7.2,0.2c5.5,0.1,7.6,0.4,8.7,1.2c1.9,1.4,2.4,1.3,2.4-0.2c0-2-1.2-3.7-2.5-3.7
		c-0.9,0-1.2-0.4-1.2-1.8c0-1.1-0.2-2.1-0.6-2.2c-0.4-0.2-0.6-1-0.6-1.7c0-0.7-0.7-2.2-1.6-3.4c-3.6-4.6,0.6-8.3,4.4-3.9
		c1.1,1.4,1.8,1.8,2.3,1.3c0.4-0.4,1.1-0.5,1.6-0.3c0.7,0.3,0.7,0.6-0.3,1.7c-1.4,1.5-2.5,8.7-1.4,9.4c0.3,0.2,0.6,2,0.6,4
		c0,3.9,1.1,5.7,3.6,5.7c0.7,0,2.8,0.6,4.6,1.2c3.5,1.3,4.9,1.1,3.6-0.5c-0.7-0.9-0.6-0.9,0.3-0.6c0.6,0.2,2.6,0.4,4.2,0.4
		c2.3,0,3.1,0.2,3.1,0.9c0,0.5-0.3,0.9-0.7,0.9s-0.6,0.3-0.4,0.7c0.2,0.4,2.1,0.7,5.1,0.8c3.9,0.1,4.9-0.1,5.8-1
		c1.1-1.3,3.1-1.6,3.7-0.6s2.9,0.7,3.7-0.4c0.7-1,1.1-1,3.7-0.3c3.9,1,5.4,0.9,6.4-0.3c0.8-1.1,0.9-1,2.2,0.6
		c1.2,1.5,1.4,1.6,2.4,0.9c0.6-0.4,2.2-1.2,3.7-1.6c5.4-1.6,25.4,0.5,30.2,3.1c1.3,0.7,15.1,3.7,19.9,4.2c1.1,0.1,2.3,0.4,3.5,0.7
		h30.6c0.1-0.4,0.2-0.9,0.4-1.4c0.6-2.3,0.9-2.4,3.1-2.4c2.2,0,4.2,1.4,5.7,3.8h3c0-0.3-0.1-0.7-0.1-1.2c0-3-1.4-5.2-2.6-4.1
		c-1.2,1.2-2.7,1-4-0.4c-0.6-0.7-1.9-1.2-3.1-1.2c-1.7-0.1-1.8-0.1-0.8-0.9c0.6-0.4,1.1-1.6,1.1-2.5c0-2.2,1.1-4.1,2.2-4.1
		s3.3,2.4,3.4,3.9c0,1.3,0.7,1.8,1.8,1.1c0.6-0.3,0.7-1.1,0.5-2.4c-0.6-2.8,0.2-2.9,1.9-0.2c2.3,3.4,3.9,4.2,3.9,2
		c0-0.6-0.9-2.2-1.9-3.4l-1.9-2.2l2.1-0.9c2.6-1.1,4.1-0.3,4.6,2.5c0.4,2.1,1.1,2.5,2.7,1.4c0.7-0.4,0.7-0.8,0.3-1.4
		c-0.3-0.5-1.1-1.6-1.7-2.5c-0.6-0.9-1.2-2.4-1.2-3.3c-0.1-1.7,0-1.8,2.4-1.8c2.1,0,2.5-0.2,2.7-1.4c0.2-1.6,0.2-1.6,2.7-0.4
		c2.4,1.1,6.7,6.3,6.7,7.9c0,0.7-0.5,1.1-1.2,1.1c-1.6,0-2.5,3-1.1,4c0.6,0.4,0.9,1.6,0.9,2.7c-0.1,2-0.6,2.6-1.3,1.4
		c-0.2-0.3-1.6-0.6-3-0.6c-1.4,0-3.2-0.4-3.8-0.9c-1.4-1.1-3.5-1.2-3.5-0.3c0,0.4,0.6,1.1,1.2,1.7c0.9,0.7,1.1,1.3,0.7,2.1
		c-0.3,0.6-0.3,1.4,0,1.9s0.4,1.5,0.3,2.2c0,0.1,0,0.2-0.1,0.4h98.8C595,358.9,597.7,357.8,600.7,357.8z"/>
	<path fill="#F9E814" d="M173.6,302.9c0.9,1.5,1.4,1.7,3.9,1.7c1.6,0.1,4.1,0.3,5.6,0.7c1.6,0.3,5.6,0.9,9.1,1.2l6.2,0.6l1.9-2
		c0.9-0.9,1.7-2.3,2.5-4.3h-30.7C172.6,301.4,173.1,302.1,173.6,302.9z"/>
	<path fill="#F9E814" d="M492.8,358c-0.1-2.5-1.4-2.9-5.2-1.6c-2.7,0.9-3.7,2.6-2.1,3.6c0.4,0.3,0.6,0.6,0.6,1h7
		C492.9,359.7,492.8,358.6,492.8,358z"/>
	<path fill="#FFFFFF" d="M112.3,144.4l26.7,21.4l-10.7,37.4l32.1-21.4l7.1,4.3c-0.2-0.5-0.4-0.9-0.5-1.4c-0.6-1.8-1.7-4.1-2.5-5.1
		c-0.8-0.9-1.5-2.6-1.5-3.6s-0.2-2.1-0.5-2.4c-1.5-1.7-4.1-10.4-3.9-12.9c0.2-2.4-2.2-3.9-4.6-2.9c-0.9,0.4-1.6,1.2-1.6,1.9
		c0,1.6-0.7,1.9-2.1,0.9c-1.5-1.1-0.9-2.8,1.1-2.8c1.8,0,4.8-2.2,4.8-3.5c0-0.5-0.2-0.9-0.5-0.9c-0.3,0-0.6-0.9-0.6-1.9
		c0-2.4-1.4-4.3-5.4-7.2l0,0H112.3z"/>
</g>
</svg>
