<?xml version="1.0" encoding="utf-8"?>
<!-- Generator: Adobe Illustrator 17.1.0, SVG Export Plug-In . SVG Version: 6.00 Build 0)  -->
<!DOCTYPE svg PUBLIC "-//W3C//DTD SVG 1.1//EN" "http://www.w3.org/Graphics/SVG/1.1/DTD/svg11.dtd">
<svg version="1.1" id="flag-icon-css-de" xmlns="http://www.w3.org/2000/svg" xmlns:xlink="http://www.w3.org/1999/xlink" x="0px"
	 y="0px" viewBox="0 0 640 480" enable-background="new 0 0 640 480" xml:space="preserve">
<g>
	<path fill="none" d="M318.1,480c-0.3,0.9-0.5,1.6-0.4,1.7c0.3,0.3,7.9-1.1,8.2-1.6c0,0,0-0.1,0.1-0.1H318.1z"/>
	<path fill="#FFCE00" d="M328.4,476.3c2.1-3.1,2.3-3.4,1.8-4.9c-0.5-1.6-0.2-6.5,0.3-6.5c0.1,0,1.2,0.2,2.4,0.5
		c1.3,0.2,2.8,0.2,3.9,0c1.6-0.4,2-0.3,4.1,1l2.4,1.5l3.8-1c2.1-0.6,3.8-1,3.9-0.9c0,0.1,0.6,1.9,1.2,4.1c0.6,2.2,1.2,4.2,1.5,4.4
		c0.6,0.6,6.9-0.4,9.8-1.5c2.6-1.1,2.5-1.1,3.1,1.4l0.3,1.3l3.6-2.5c2.3-1.6,3.8-2.9,4-3.8c0.5-1.2,0.6-1.3,3.6-1.3
		c1.7,0,3.4-0.2,3.6-0.4c0.3-0.2,1.1-1.3,1.9-2.5c1.4-2.2,1.5-2.3,4-2.3c1.4,0,7.2-0.3,12.7-0.6c11.3-0.6,10.4-0.3,9.7-4.1
		c-0.3-1.6-0.2-1.8,1.3-2.7c0.9-0.5,1.7-1,1.9-1c0.1,0,0.3,0.8,0.3,1.6c0,0.9,0,1.6,0.1,1.6c0,0,1.6-0.4,3.4-0.9
		c1.8-0.5,3.6-0.9,4.1-0.9c0.4,0,1.3,0.9,2,2.1c1.2,2,1.4,2.1,3.3,2.1c1.1,0,3.1-0.4,4.3-1c1.8-0.8,2.8-0.9,5.1-0.7l2.9,0.3l0.3,2.6
		c0.2,1.8,0.8,3.4,1.8,4.9c1.6,2.4,2.4,2.8,6.7,2.8h2.5v-2.3c0-1.9,0.2-2.5,1.4-3.6c1.6-1.5,1.6-2,0.9-4.6c-0.6-2-1.9-2.8-5.6-3.3
		l-2.2-0.3l1.9-3.6l1.9-3.7l-1.1-2.7c-0.8-2.1-1.6-3-3.3-4.1c-1.9-1.3-2.3-1.8-2.6-3.7c-0.4-1.9-0.6-2.2-1.8-2.4
		c-1.4-0.2-1.4-0.3-1.3-2.8c0.1-2.2,0.5-2.9,2.1-4.8c1.7-2.1,2.1-2.3,4-2.3c1.8,0,2.4-0.3,4.1-1.9c1.9-1.7,2.4-2,6.8-2.8
		c5.1-0.9,4.3-0.4,11.6-6.9c1.6-1.4,1.6-1.6,1.9-5.4c0.2-3.5,0.5-4.2,1.7-5.7l1.4-1.7l3.3,1.8c5.6,3.1,5.3,3,7.2,2
		c0.9-0.5,2.3-1.7,3.1-2.7l1.5-1.8l-1.1-2.9l-1-2.9l1.1-3.2l1.1-3.2l-1.5-1.4c-0.8-0.8-1.8-1.8-2.1-2.3c-0.4-0.5-1.4-1.1-2.3-1.3
		c-1.3-0.3-1.7-0.8-2.3-2.4c-0.6-1.6-1-2-2.4-2.4c-2.4-0.7-3.3-0.7-4,0.3c-0.5,0.7-0.8,0.7-2.7-0.6c-1.9-1.2-2.2-1.6-2.7-3.8
		c-0.5-2.1-0.9-2.8-2.9-4.4c-2-1.6-2.4-1.8-3.5-1.5c-1,0.4-1.3,0.3-2.4-1c-0.7-0.8-1.5-1.8-1.8-2.1c-3.8-3.7-6.7-7-6.6-7.7
		c0-0.4-0.8-1.4-2-2.2c-2.1-1.6-4.3-2-5.3-1c-0.8,0.8-5.3-1.3-5.6-2.7c-0.2-0.7-1.1-1.6-2.2-2.2c-2-1.1-2.5-2.2-2.6-5.2
		c0-1.5-0.2-1.7-1.4-2c-1.2-0.3-1.5-0.6-1.7-2.3c-0.4-2.3-0.6-2.7-1.9-3.4c-0.7-0.4-0.9-1-0.9-2.1c0-1.5-0.2-1.6-2-2.3
		c-1.8-0.7-3.4-2.4-3.4-3.8c0-0.3,0.7-0.8,1.4-1.2c1.1-0.6,1.4-1,1.4-2.3c0-1.3,0.2-1.6,1.1-1.9c0.6-0.1,1.6-1.4,2.2-2.6H134.6
		c0.6,0.5,1.4,1.1,2.5,1.8c2.4,1.7,4.5,2.8,6.2,3.2c1.4,0.3,2.7,0.8,2.9,1c0.2,0.2,0.7,1.5,1.1,2.9l0.8,2.6l-4,3.7l-4,3.7v3.7v3.7
		h1.5c1,0,2.4,0.7,4.7,2.4c3.1,2.3,3.2,2.5,3.2,4.4c0,1.6,0.3,2.3,1.7,3.6c0.9,0.8,2.3,2.9,3.1,4.5l1.3,2.9l3.6,1.2l3.5,1.2v-2.4
		c0-1.3,0.2-2.3,0.5-2.3c0.3,0,2.1,0.5,4,1c3.9,1.1,4.4,1.7,4.4,4.8l0,1.5l1.2-1.4l1.2-1.4l3,0.5c4.1,0.8,4.7,0.7,6.8-0.6l1.9-1.2
		l3.1,0.8c2.8,0.8,3.1,0.9,3.7,2.5c0.7,1.7,0.9,1.8,5.1,3.1c4.2,1.3,4.6,1.4,10.1,0.9l5.7-0.4l2.4,1.7c2.2,1.6,2.7,1.7,6.4,2
		c2.2,0.1,4,0.3,4,0.4c0,0-1.6,2.8-3.4,6c-3.3,5.7-3.6,6.1-9.1,10.7c-3.1,2.7-5.9,5.1-6.3,5.6c-0.3,0.4-0.6,2.1-0.6,4.1
		c0,3-0.3,4-2.6,9.6c-1.4,3.4-3.3,7.9-4.3,9.9c-1.1,2.4-2,5.5-2.5,8.8l-0.8,5l1.1,1.9l1.1,1.9l-2.1,5.3c-1.9,4.6-2.1,5.6-2.1,8.8
		c0,2.6,0.3,4.4,1,6.3c0.5,1.4,1,2.6,1.1,2.7c0.1,0,0.9-0.2,1.8-0.6l1.7-0.7v2.1c0,1.2,0.2,2.1,0.4,2.1c0.5,0,0.9-0.1,5-1.8l2.4-0.9
		l2.7,1.1c2.4,1,3.2,1.1,6.2,0.8c3.1-0.3,3.6-0.5,5-1.9c1.4-1.5,1.8-1.6,4.2-1.6c2.4,0,2.8,0.1,3.9,1.4l1.2,1.4l5.6-0.8
		c8.6-1.1,7.9-0.8,7.5-3.6c-0.2-1.3-0.4-2.5-0.5-2.6c-0.1-0.1-0.9,0.2-2,0.8c-3.3,1.7-3.7,1.7-4.5,0c-1-2.2-0.2-4.1,2.4-6.2
		c1.7-1.4,2.5-1.7,4.4-1.7c1.9,0,2.4,0.2,3.6,1.5c1.3,1.5,1.3,1.6,0.8,3.1c-0.6,1.4-0.6,1.5,0.4,1.7c0.6,0.1,1.9,0.3,3.1,0.3h2
		l-0.3-1.6c-0.2-1-0.1-1.6,0.2-1.6c0.3,0,0.8-0.1,1.2-0.3c0.5-0.2,0.9,0.4,1.5,2.3c0.5,1.4,0.8,2.5,0.9,2.6s1.4-0.3,3-0.8l2.9-0.9
		l3.9,1.1c2.2,0.6,5.1,1.1,6.5,1.1c2.5,0,2.8,0.1,8.9,4.5l6.3,4.5h3.2c3.2,0,3.2,0,5.2-2.1c1.1-1.2,2.1-2.1,2.3-2.1
		c0.2,0,0.6,0.5,0.9,1.2c0.5,1,1,1.2,2.8,1.2c3.5,0,5.3,0.8,7.8,3.3l2.3,2.4l-0.6,2.2c-0.7,2.6-0.6,2.8,3.3,3.2
		c1.5,0.2,2.7,0.5,2.7,0.8s-0.3,1.2-0.7,2.1c0,0.1-0.1,0.1-0.1,0.2h7.8C326.2,479.6,327.3,478,328.4,476.3z"/>
	<path d="M234.2,26.6c0.5-0.6,0.5-0.8-0.2-1.2c-0.4-0.3-1.2-1.2-1.6-2.1l-0.8-1.6l-1,1.1c-1.3,1.4-1.3,2.3,0,3.5
		C231.9,27.6,233.4,27.6,234.2,26.6z"/>
	<path d="M241.2,18.6c-1.1,0-2.7,0-3.5,0.1c-0.8,0.1-1.7,0.6-2.1,1.2c-1,1.6,0.7,2.8,4,3.1c2.4,0.2,2.8,0.1,3.5-0.8
		c0.6-0.8,0.7-1.5,0.5-2.3C243.4,18.8,243,18.7,241.2,18.6z"/>
	<path d="M236.1,36.5c0,0.9,1.3,2.6,2,2.6c0.9,0,1.1-0.6,0.4-1.9C238,36.4,236.1,35.9,236.1,36.5z"/>
	<path d="M245.9,35.4c1.5,0,3-1.6,2.8-2.9l-0.1-1.2l-2.4,0.7c-1.3,0.4-2.4,0.8-2.5,0.8C243.2,33.2,245.1,35.4,245.9,35.4z"/>
	<path d="M238.4,33.1c0-0.6-0.2-1.2-0.5-1.3c-0.2-0.1-0.5,0-0.5,0.3c0,0.3,0.2,0.9,0.5,1.3C238.3,34,238.4,34,238.4,33.1z"/>
	<path d="M363.8,33.5c-5.4-1.5-5.1-1.5-6.5-0.1c-0.9,0.9-1.3,1.8-1.3,3.1c0,1.9,1,2.8,2,1.8c0.8-0.8,1.7-0.6,1.7,0.4
		c0,0.5,0.4,1.1,0.8,1.3c0.9,0.5,9.5,0.6,9.5,0.1c0-0.1-0.8-1.6-1.7-3.1C366.7,34.4,366.4,34.2,363.8,33.5z"/>
	<path d="M524,158.3c-0.3-0.3-0.3-1,0-2c0.8-2.3,0-3.4-4.4-5.5c-2.8-1.4-4.3-2.4-5.9-4.3c-1.2-1.4-2.9-2.8-3.8-3.2
		c-0.9-0.4-2.4-1.4-3.3-2.3c-1-1-2.4-1.7-3.4-1.9c-1.7-0.3-1.8-0.4-1.5-1.6c0.2-0.7,0.4-2.6,0.4-4.2v-3l3.5-2.1
		c1.9-1.2,4.1-2.7,4.8-3.4c1.5-1.5,2.4-4.3,2-6.6c-0.2-1.2,0.1-2.2,1.2-4.1c1.4-2.4,1.4-2.6,0.7-4c-0.4-0.8-0.8-2-0.8-2.7
		c0-2.1-2.4-10.3-3.3-11.3c-0.7-0.7-0.9-1.6-0.9-3.5c0-1.6-0.3-3-0.7-3.5c-0.4-0.5-0.7-1.6-0.7-2.4c0-1.6-0.8-2.5-2-2.5
		c-1.2,0-1.1-0.6,0.2-1.2c1.4-0.6,1.6-1.9,0.4-2.6c-0.8-0.4-1.3-0.3-2.5,0.3c-2.9,1.5-7.8,0.4-12.8-2.9c-1-0.7-2.4-1.5-3.2-1.7
		c-1.9-0.8-1.7-2.4,0.7-4.3l2-1.6l-3.2-3.1c-2.4-2.3-3-3.1-2.3-3.1c0.5,0,1.2-0.3,1.5-0.7c1-1.2,2-0.9,1.7,0.5
		c-0.2,0.9-0.1,1.2,0.6,1.2c1.2,0,2-0.9,2-2.2c0-0.7,0.3-1.1,0.8-1.1c1.1,0,2.9,1.3,2.9,2.1c0,0.3,0.5,0.7,1.1,0.8
		c0.8,0.1,1,0.4,1,1.8c0,1.5-0.1,1.6-1.1,1.6c-0.6-0.1-1.5,0.1-2,0.3c-0.8,0.5-0.9,0.4-0.7-0.9c0.3-1.3,0.2-1.4-1.1-1.4
		c-1.9,0-2.2,0.5-1.2,2.5c1.1,2.4,0.6,3.8-1.6,4.4c-2,0.5-2.6,1.7-1.2,2.4c0.9,0.5,6.2-0.1,7-0.9c0.2-0.2,2.4-0.4,4.9-0.4h4.6v-2.2
		c0-2-0.1-2.3-2.6-4.3c-1.4-1.2-3.5-3.1-4.7-4.1c-1.5-1.4-2.8-2.1-4.1-2.3c-2.3-0.4-4.9-2.4-6-4.8c-0.6-1.2-1.1-1.6-2-1.6
		c-0.8,0-1.3,0.3-1.5,0.9c-0.1,0.5-0.6,0.9-1,0.9c-1.1,0-1.6-0.5-1-1.2c1.1-1.3-0.9-1-3.1,0.4c-1.6,1.1-3,1.6-4.8,1.8
		c-2.9,0.3-3.2,0.5-2.4,1.8c0.5,0.9,0.4,1-0.5,0.8c-0.7-0.1-1.2-0.7-1.6-1.7c-0.3-0.8-0.8-1.7-1.1-1.9c-0.4-0.2-0.5-0.7-0.3-1.2
		c0.3-0.8,0.1-0.8-1.6-0.5c-1.6,0.2-2,0.1-2-0.4c0-0.4-0.3-0.9-0.6-1.1c-0.4-0.2-1-0.9-1.5-1.7c-0.5-0.8-1.2-1.3-2-1.3
		c-0.7,0-1.6-0.3-2-0.7c-0.4-0.4-1.6-0.8-2.6-1.1c-1.6-0.3-1.8-0.6-1.8-1.6c0-0.7-0.4-1.6-0.8-2.2c-0.6-0.6-0.7-1-0.4-1.3
		c0.8-0.5,0.6-1.6-0.4-1.6c-2.4,0-2.8-2.4-0.9-4.5c0.5-0.6,1-1.6,1.2-2.4c0.1-0.8,0.7-1.9,1.2-2.3c0.5-0.4,0.9-1.3,0.9-1.9
		c0-0.6,0.2-1.1,0.5-1.1c0.3,0,0.5-0.4,0.5-1c0-0.7-0.2-0.9-1-0.8c-0.8,0.1-1.1,0.6-1.4,1.8c-0.1,0.9-0.5,2.2-0.9,2.8
		s-0.8,1.9-0.9,2.8c-0.3,2.1-0.9,2.2-10.4,2.3c-6.1,0-7.8-0.1-10.3-0.9c-5-1.6-5.5-1.4-7.8,2.3c-1.1,1.7-2.5,4.1-3.1,5.3
		c-0.8,1.8-1.6,2.4-4.6,4c-2.1,1.1-4.3,2.7-5.3,3.9c-1.6,1.9-1.9,2-4.1,2c-1.3,0-4.3,0.4-6.8,0.9c-3.4,0.7-5.2,0.8-7.8,0.5
		c-3.3-0.3-3.4-0.3-5.2,1.2c-1.5,1.2-2,2.2-2.6,4.5l-0.8,2.8l-2.3-0.3c-2.6-0.4-5.2,0.5-6,2c-0.7,1.3-0.7,1.5,0.4,1.5
		c0.5,0,1.4,0.2,2.1,0.5c1,0.5,1.1,0.7,0.7,1.6c-0.6,1.3-0.8,1.4-2,0.5c-0.5-0.3-1.6-0.9-2.5-1.3c-1.4-0.5-1.6-0.5-2.1,0.2
		c-0.9,1.2-3.2,0.2-3.2-1.4c0-0.8-0.3-1.2-1.1-1.5c-0.7-0.1-1.3-0.6-1.4-0.9c-0.3-0.9-3.1-0.8-7.3,0.1c-2.7,0.6-3.6,1-4.4,2.1
		c-1.3,1.7-1.6,1.7-2.4,0c-0.4-0.9-1.3-1.5-2.9-2c-3.1-1-3.9-2.4-2.5-4.5c0.5-0.8,1-1.5,1-1.5c0,0,0.8,0.1,1.8,0.4
		c1.7,0.5,1.8,0.4,3.7-1.3c1.1-1,3.3-2.6,4.9-3.7l3-1.9l-0.3-3.1c-0.1-1.7-0.4-3.6-0.6-4.3c-0.2-0.9,0-1.6,1-2.8l1.4-1.6l-2.9,0.3
		c-1.6,0.2-3.5,0.1-4.4-0.1c-1.2-0.3-1.6-0.3-2.1,0.5c-0.3,0.5-0.9,0.9-1.5,0.9c-0.5,0-1.9,0.8-3.2,1.6c-3.2,2.3-5.3,2.3-7.7-0.2
		c-1.5-1.5-2.3-1.9-4.7-2.4c-1.6-0.3-3.6-0.9-4.6-1.4c-3.2-1.6-5.5-2-8.3-1.4c-2.4,0.6-2.6,0.8-4,3.1c-1.5,2.5-2.4,3.1-3,1.8
		c-0.2-0.7,0.6-2.6,1.1-2.6c0.1,0,0.5-0.2,0.9-0.4c0.5-0.3,0.5-0.6,0-1.4c-0.4-0.8-0.4-1.2,0-1.7c0.4-0.5,0.2-0.8-1-1.6
		c-1.8-1.1-3.8-1-10,0.5c-3,0.8-3.8,0.8-4.1,0.3c-0.8-1.2-0.4-1.7,1.8-2.4c1.2-0.4,3.1-1.6,4.2-2.7c1.8-1.7,2-2.1,2-4.3
		c0-2.2-0.1-2.6-1.5-3.7l-1.6-1.3l1.3,0c1.6,0,2.1-0.8,0.9-1.4c-0.5-0.3-1.2-1.4-1.7-2.5c-0.5-1.3-1.2-2.3-2-2.6
		c-1.1-0.5-1.2-0.4-1.6,0.9c-0.4,1.2-0.7,1.4-1.7,1.1c-0.7-0.1-1.6-0.7-2-1.2c-0.5-0.5-2.8-1.6-5.2-2.4c-3.4-1.2-4.5-1.8-4.7-2.5
		c-0.2-1-0.4-0.9-4,1.3c-3.8,2.3-4.4,2.4-4.5,0.3c0-0.8-0.2-0.8-1.5,0.5c-0.8,0.8-2.3,1.6-3.1,1.8c-1.4,0.3-1.7,0.1-3.1-1.3
		c-1.3-1.4-2.2-1.8-6.7-3c-6.5-1.6-9.6-2.1-10.7-1.6c-0.6,0.3-1.2,0.2-2-0.3c-1-0.7-1.3-0.7-2.4-0.1c-1.1,0.6-1.6,0.6-3.9,0
		c-2.4-0.6-2.6-0.6-3,0c-0.3,0.6-1.4,0.8-5.5,0.8c-4.4,0-5.3-0.1-6.4-1c-1-0.8-1.2-1.4-1.2-3.1c0-1.8,0.1-2.2,1.3-2.6
		c2.1-0.8,2.5-1.1,2.4-1.5c-0.1-0.2,0.2-0.6,0.8-0.9c0.7-0.4,0.8-0.6,0.2-0.9c-1.6-1-3-0.5-4.3,1.8c-3.5,6-4.2,8.1-4.2,12.8
		c-0.1,3.7,0,4.5,0.6,4.5c0.6,0,0.8-0.8,0.8-3.4c0.2-4.2,0.7-4.8,3.4-3.9c1.6,0.5,2.1,0.5,3.6-0.1c2.6-1.1,6.7-1.6,6.7-0.7
		c0,0.3,0.8,1.6,1.9,3c1,1.3,1.9,2.6,1.9,2.9c0,0.3,0.8,1.6,1.9,2.8c1,1.2,2.4,2.9,3.1,3.7c0.7,0.8,1.2,2.1,1.2,2.7
		c0,1,0.2,1.2,1.3,1.2c0.8,0,1.7,0.4,2.3,1c1,1.2,2.2,3.2,1.9,3.4c-0.1,0-1.4,0.5-2.9,0.9c-2.1,0.6-2.7,1-2.5,1.5
		c0.1,0.4,0.3,0.9,0.3,1.2c0,0.2,0.9,0.4,2.1,0.4c1.6,0,2.4-0.3,3.8-1.4l1.8-1.5l0.6,1.5c0.8,1.9,0.8,1.8-0.2,1.8
		c-0.5,0-1.8,0.6-3.1,1.4c-2.2,1.4-2.4,1.4-7.8,1.4c-4.9,0-5.6,0.1-6.4,0.9c-0.8,0.8-0.8,0.9,0.5,1.2c2,0.5,2.2,0.7,1.6,1.4
		c-0.3,0.4-1.2,0.7-2.1,0.7c-1.2,0-1.6,0.2-1.9,1c-0.2,0.8,0.1,1.4,1.7,2.8l2.1,1.7l1.4-1c0.8-0.6,2.3-1,3.5-1.1
		c1.2,0,3.2-0.2,4.5-0.3c1.3,0,2.6-0.3,3-0.5c0.5-0.3,0.6-0.2,0.3,0.2c-0.8,1.5-1.8,2.3-3,2.5c-1,0.2-1.4,0.8-2,2.7
		c-0.8,2.4-0.7,2.5,0.2,3.9c0.5,0.8,1,1.5,1,1.6c0,0,1.3,0,2.8-0.3l2.7-0.4l0.7,1.5c0.5,1.1,0.7,2.2,0.4,3.7
		c-0.4,2.4-0.8,2.6-3.3,1.5c-1.5-0.6-3.5-0.5-3.5,0.3c0,0.9,2.4,4.4,4,6c1.5,1.5,2,1.6,4.1,1.7c6.5,0,10.4,0.8,13.5,2.4
		c2.7,1.5,3.1,1.9,4.3,4.6c1.1,2.5,1.7,3.2,3.4,4c2.4,1.2,2.5,1.4,2.9,3.8c0.2,1.5,0.6,2,2.8,3.2c1.9,1.1,8,2.9,9.9,2.9
		c0.2,0,0.3,0.5,0.3,1c0,0.8-0.2,0.9-1.3,0.7c-0.8-0.1-2.5-0.5-3.9-0.7s-3.8-1-5.3-1.6c-2.2-1-2.9-1.6-3.7-3.2
		c-0.6-1.1-2.4-3.5-4-5.3c-1.6-1.8-3.5-4.1-4.2-5.1c-2.7-3.6-7.9-5-12.5-3.4c-2.2,0.8-8.3,0.9-12.6,0.3c-1.9-0.3-2.9-0.7-4.1-1.9
		c-1.5-1.4-1.7-1.5-2.9-1c-2.6,1.1-3.7,2.6-6,8.1c-1.2,3-2.2,5.6-2.2,5.8s0.8,1.8,1.8,3.5c2.6,4.4,2.7,5,1.3,6.6
		c-0.7,0.8-1.3,2.3-1.5,3.7c-0.2,1.2-0.4,2.6-0.6,3.2c-0.3,0.9-0.3,0.9-0.7,0c-0.7-1.8-0.4-4.8,0.6-6.6c0.6-0.9,0.9-1.9,0.8-2.3
		c-0.1-0.4-1.5-1.1-3-1.6c-1.6-0.6-3.3-1.6-3.9-2.2c-0.8-0.8-1.6-1.2-2.8-1.2c-1.5,0-1.8,0.2-2.4,1.6c-0.4,0.8-0.9,2.2-1,3.1
		c-0.4,1.5-0.3,1.5,1.5,1.5c2,0,2.4,0.5,2.4,2.8c0,0.8-0.6,1.8-1.6,2.8c-2,2-3.7,2-5,0.1c-0.7-0.9-1.4-1.4-2.3-1.4
		c-1.7,0-2.9-1-2.9-2.5c0-0.9,0.3-1.3,1.4-1.5c0.8-0.1,1.7-0.7,2.1-1.1c0.7-0.8,0.7-1-0.7-3.6c-1.1-2.3-1.7-2.9-3.1-3.4
		c-1.6-0.5-1.7-0.7-1.4-1.9c0.2-1.2,0.1-1.5-1.1-2.1c-1.1-0.6-2.3-0.6-7.4-0.2c-3.3,0.2-8,0.9-10.2,1.4c-3,0.7-4.4,0.8-5,0.5
		c-1.2-0.7-3.8-0.6-8.4,0.2c-4.2,0.7-6,1.7-9.5,4.8c-1.9,1.7-2.3,2.5-1.3,2.5c0.3,0,0.8,0.2,1.2,0.4c0.5,0.3,0.5,0.7-0.2,1.8
		c-0.8,1.2-1,1.3-1.7,0.9c-0.7-0.4-1-0.4-1.6,0.1c-0.8,0.9-2.6,6.4-2.6,8c0,2,0.9,2.4,5.3,2.3c6.9-0.2,6.7-0.4,5.1,4.1
		c-0.5,1.5-0.9,3.3-0.9,4c0,0.8-0.2,2.2-0.6,3.2c-0.4,1.4-0.4,1.9,0,2.4c0.4,0.4,0.6,2.3,0.6,5.4v4.8l-2.5,4
		c-2.2,3.4-2.7,4.7-3.9,9.6l-1.4,5.7l-2.5,0.2c-1.4,0.1-3.1,0.1-3.7-0.2c-2-0.8-5.3-0.5-7,0.6c-1.8,1.1-2.1,2.4-0.8,3.9
		c0.4,0.5,0.6,0.8,0.3,0.7c-0.3-0.2-1,0-1.6,0.6c-1,0.8-1,1-0.5,2.8c0.3,1.1,0.8,1.8,1.6,2.4h367.3
		C524.5,159.4,524.4,158.8,524,158.3z"/>
	<path d="M480.5,47.7c1.6,0.7,1.6,0.7,1.6-0.4c0-0.6,0.6-1.6,1.2-2.3c0.7-0.7,1-1.2,0.8-1.2s-1.2-0.8-2.2-1.6
		c-1.3-1.3-2.1-1.6-3.4-1.6c-1.5,0-1.8-0.2-2.4-1.6c-1.1-2.7-0.9-3.5,1.5-4.5c2.6-1.2,3.3-2.9,1.7-4.2c-0.9-0.8-1.6-0.8-5.6-0.6
		l-4.6,0.3l-1.5-1.6c-1.7-1.7-1.7-2.3,0-3.2c1.4-0.7,1.7-2,0.5-1.9c-0.5,0-2.2,0.2-3.9,0.3c-3.6,0.3-6.1,1.8-6.1,3.5
		c0,0.6-0.4,1.5-0.9,1.9c-1.4,1.3-0.8,1.5,0.9,0.3c0.9-0.7,1.3-1.3,1.1-1.7c-0.3-0.8,0.6-1.6,1.6-1.6c0.9,0,0.7,1.2-0.4,2.1
		c-0.5,0.5-0.9,1.4-0.9,2c0,0.9-0.2,1.1-1.9,1.1c-1.8,0-1.9,0.1-1.6,1c0.1,0.6,0.3,1.2,0.3,1.4c0,0.2,0.7,0.4,1.4,0.4
		c0.8,0,1.4,0.2,1.4,0.5c0,0.2-0.7,0.5-1.6,0.5c-1.2,0-1.9,0.3-2.6,1.2c-1.2,1.5-1.2,2.1-0.3,2.1c0.4,0,0.7,0.2,0.7,0.5
		c0,0.2,0.7,0.5,1.6,0.5c1,0,1.7,0.3,1.9,0.8c0.6,1.6,0.3,1.9-2.1,2.3c-2.2,0.3-2.4,0.4-2.4,1.6c0,0.9,0.5,1.6,1.6,2.6
		c0.9,0.7,1.6,1.6,1.6,2c0,0.4,0.4,0.7,0.8,0.7c0.4,0,2.4,0.7,4.3,1.4c3.9,1.6,4.4,1.7,5.2,0.8c0.4-0.5,0.4-0.9,0-1.8
		c-0.7-1.5,0.1-3.2,1.5-3.2c0.5,0,0.9-0.3,0.9-0.7c0-0.4,0.4-0.7,1.1-0.7c0.7,0,1.7-0.2,2.4-0.5c0.9-0.4,1.5-0.3,2.4,0.2
		c0.9,0.6,1.3,0.6,2.1,0.1c1.4-0.9,2.4,0.2,1.3,1.4C478.9,46.9,478.9,47,480.5,47.7z"/>
	<path fill="#DD0000" d="M427.8,317.7c-0.2-0.1-1-0.5-1.8-0.8c-1.2-0.4-1.5-0.8-1.4-1.8c0.1-1.2-0.2-1.4-1.9-1.3
		c-0.6,0.1-0.8-0.2-0.8-0.8c0-0.6-0.8-1.4-2.8-2.4c-1.5-0.8-3.1-1.5-3.5-1.5s-0.8-0.4-0.8-0.9c0-0.6-0.7-1.4-1.6-2
		c-1.4-0.9-1.6-1.3-1.4-2.2c0.5-1.8-0.6-3.6-2.6-4.5c-1.9-0.8-2.4-2.3-1.2-2.7c0.4-0.2,0.6-0.7,0.4-1.2c-0.3-1.4,1.6-1.9,2.5-0.8
		c0.3,0.5,0.6,1.1,0.6,1.5s0.4,0.6,0.8,0.6c1,0,3.4,2.9,3.4,4.2c0,0.7,0.3,1,0.9,1c0.7,0,1-0.6,1.5-2.4c0.5-1.9,1.1-2.9,3.2-5
		c6.2-6,6.6-6.3,11.2-6.3c2.4,0,3.4-0.2,4.3-0.9c0.7-0.5,1.5-0.9,1.9-0.9c0.4,0,0.9-0.2,1.2-0.5c0.3-0.3,1.2,0,2.5,0.9
		c1.6,1.1,2.4,1.4,3.5,1.1c1.8-0.4,4-2.4,4-3.8c0-1,0.3-1.1,3.8-1.4c3.5-0.3,3.8-0.4,4.2-1.6c0.3-0.7,0.9-1.7,1.5-2.3
		c0.8-0.8,1.2-0.9,2.1-0.6c1.3,0.5,2,0.2,2-0.8c0-0.4,0.2-0.7,0.5-0.7c0.3,0,0.8-0.4,1.2-0.8c0.6-0.8,0.7-0.8,1.7,0.1
		c1.6,1.5,3.2,1.7,4.5,0.7c0.6-0.5,1-1.3,1-1.7s0.2-1.1,0.4-1.4c0.2-0.2,0.5-0.8,0.6-1.3c0.1-1,4.1-2.3,5.9-1.8
		c0.6,0.1,1.5-0.1,2-0.5c0.8-0.5,1.7-0.7,3.5-0.5c1.6,0.2,2.6,0,2.8-0.3c0.2-0.3,0.8-0.5,1.2-0.5c0.7,0,0.9-0.3,0.8-1
		c-0.1-1.5,2.4-2.9,5.8-3c1.5,0,3.2-0.4,3.8-0.8c0.6-0.4,2-0.9,3.1-1.2c1.1-0.3,2.4-1,2.9-1.6c0.7-0.9,1.5-1.2,4-1.5
		c2.6-0.3,3.2-0.5,3.6-1.4c0.5-1.3,0.3-1.6-1.6-1.9c-1-0.2-1.7-0.7-1.9-1.2c-0.2-0.5-0.8-1.1-1.5-1.2c-1.4-0.3-1.3-0.2-0.3-2.3
		c0.4-0.9,1.1-1.6,1.5-1.6c1.4,0,4.3,1,4.3,1.4c0,0.6,2.2,0.6,3.4,0c0.8-0.4,1.1-0.3,2,0.5c0.6,0.6,1.4,1,1.7,1
		c0.4,0,0.9,0.4,1.3,0.9c0.5,0.8,0.4,1.3-0.1,2.7c-0.8,1.9-0.6,2.5,0.7,1.6c1.7-1.1,2.3-0.8,1.8,1.2c-0.2,1-0.4,1.9-0.4,2.1
		c0,0.6,5.1,2.8,6.4,2.8c1.7,0,3-1.3,3-3c0-0.9,0.5-1.6,1.9-2.5c1.3-0.9,1.9-1.6,1.9-2.5c0-0.7,0.5-1.9,1-2.8
		c0.6-0.9,1.9-4.8,3.1-8.7c2.3-7.7,2.3-8.8,0.4-11.4c-0.7-0.8-1.1-2.1-1.1-2.8c0.1-2.6-0.4-5.4-1-6c-0.4-0.4-2.9-1.5-5.6-2.5
		c-5.6-2.1-5.9-2.5-4.2-5.8c1.3-2.5,1-4.7-0.8-5.8c-2.1-1.4-3.4-3.1-3.4-4.4c0-0.7-0.6-1.8-1.2-2.5c-0.9-1-1.2-1.6-0.9-2.5
		c0.1-0.7,0.6-1.2,1-1.2c0.4,0,0.7-0.2,0.7-0.4s0.8-1.2,1.6-2.1c1.7-1.8,1.8-2.3,1.7-5c0-0.9,0.2-2.3,0.6-3.1
		c1.2-2.2,0.9-3.4-0.7-4.3c-1.3-0.6-1.4-0.9-1.1-2c0.1-0.7,0.4-2.7,0.5-4.5l0.2-3.2l-2.8-1.3c-2.2-0.9-2.8-1.5-2.8-2.2
		c0-0.6-0.5-2.2-1-3.7c-1-2.6-0.9-5,0.1-5c0.3,0,1.2-0.6,1.9-1.3c0.7-0.6,1.1-1.4,1.3-2.1H157.1c0.2,0.2,0.4,0.3,0.7,0.5
		c1.5,0.9,2.2,1,6.7,0.9l5-0.2l2,2.1l2,2.2l-1.4,2.3c-1.3,2.1-1.4,2.6-1.2,5.1c0.3,2.6,0.2,2.8-1.2,4c-0.8,0.7-3.4,2.4-5.7,3.6
		c-3.4,1.8-4.5,2.7-5.1,4c-1.1,2.4-1,3.1,0.8,5.5c0.9,1.2,1.6,2.3,1.6,2.4c0,0.7-7.3,2.9-13.3,4.1c-6.2,1.2-6.5,1.3-6.5,2.4
		c0,0.6-0.1,1.1-0.3,1.1c-0.1,0-2.5-1-5.3-2.2c-3.8-1.7-5-2.1-5.2-1.6c-0.4,1.3-1.9,2.3-3.9,2.6c-1.1,0.2-2.8,0.5-3.8,0.8l-1.7,0.5
		l0.7,2.9c0.5,2.1,1.2,3.5,2.5,5.1c1.4,1.6,1.8,2.6,1.8,3.9c0,1.4,0.3,1.9,2,3.3c4.6,3.8,4.4,3.4,4.8,8.7l0.4,4.8l-3.9,5.7
		c-2.1,3.2-3.8,5.8-3.7,5.9c0.1,0.1,1.1,0,2.3-0.2c1.2-0.2,2.2-0.3,2.3-0.2c0.1,0.1-0.4,1.2-1,2.5c-1,2-1.7,2.6-4.8,4.3
		c-3,1.6-3.9,1.9-5.2,1.7L118,248v2.5v2.6l3,0.8c2.7,0.7,3.1,1,4.2,2.9c0.7,1.2,1.3,2.2,1.3,2.4c0,0.2-0.6,1.1-1.4,2.1
		c-1.4,1.7-1.7,3.3-1.1,5.5c0.2,0.8,0.7,1.1,2.6,1.2l2.4,0.1l1.1,2.5c0.9,2.3,2.6,3.9,5.2,4.9c0.3,0.1-0.5,1-1.6,2l-2,1.8l0.8,1.8
		c0.8,1.6,1,1.7,2.6,1.7c1.3,0,2.2,0.4,3.2,1.3l1.5,1.3l-0.6,2.7l-0.6,2.7l1.6,1.6l1.6,1.6h-1.6c-1.1,0-2.4,0.6-4.5,2.2
		c-1.6,1.2-3.2,2.3-3.4,2.4c-0.3,0.1-1,1.7-1.6,3.6c-1.5,4.8-1,9.4,1.2,13.8c0.9,1.9,1.5,2.8,2.8,3.9h292.5
		C427.7,319,428.1,318,427.8,317.7z"/>
</g>
</svg>
