<?xml version="1.0" encoding="utf-8"?>
<!-- Generator: Adobe Illustrator 17.1.0, SVG Export Plug-In . SVG Version: 6.00 Build 0)  -->
<!DOCTYPE svg PUBLIC "-//W3C//DTD SVG 1.1//EN" "http://www.w3.org/Graphics/SVG/1.1/DTD/svg11.dtd">
<svg version="1.1" id="flag-icon-css-dk" xmlns="http://www.w3.org/2000/svg" xmlns:xlink="http://www.w3.org/1999/xlink" x="0px"
	 y="0px" viewBox="0 0 640 480" enable-background="new 0 0 640 480" xml:space="preserve">
<g>
	<path fill="none" d="M318,193.9c-0.2,1.2-0.1,1.8,0.2,1.8c0.3,0,0.7-0.3,0.8-0.7c0.1-0.3,0.2-1.5,0.1-2.7
		C319,190.1,318.7,190.7,318,193.9z"/>
	<path fill="#C8102E" d="M380.1,439.6c-1.6,0-1.2,2.7,1,7c2.3,4.5,3.4,5.2,10.5,7.4c2.6,0.8,6.3,2.2,8.2,3.1
		c1.9,0.9,3.7,1.6,4.2,1.6c0.5,0,1.2,0.5,1.6,1.2c0.4,0.7,1.4,1.5,2.1,1.8c0.7,0.4,1.7,1.4,2.3,2.3c0.6,1,2.1,2.3,3.7,3.1
		c1.5,0.8,3.5,2.2,4.4,3.1c0.9,0.8,1.9,1.5,2.2,1.5c0.2,0,1.2,0.6,2.2,1.4c1.3,1,2.2,1.4,3.5,1.4h1.7l-2.2-0.7
		c-3.4-1-2.9-3.3,1.3-5.1c1.4-0.6,2.6-1.3,2.6-1.5c0.1-0.2,1-0.8,2.1-1.3c1.5-0.7,2.4-0.9,4.3-0.7c1.4,0.1,2.5,0.1,2.6-0.1
		c0-0.2,1.4-0.1,2.9,0.1c1.5,0.3,3.7,0.7,4.7,0.9c1,0.2,2.3,0.7,2.9,1c0.9,0.6,1.3,0.6,2.7-0.1c0.9-0.5,1.6-1.1,1.5-1.4
		c-0.1-0.3,0.1-1,0.6-1.5c0.5-0.5,0.7-1.2,0.6-1.5c-0.1-0.4,0-0.7,0.3-0.7c1.1,0,0.5-1.4-0.9-2.1c-1.8-0.9-1.8-1.6,0.4-3.4l1.8-1.4
		l1.5,1.2l1.5,1.3l-1.4,2c-0.9,1.2-1.5,2.7-1.7,4.2c-0.3,2-0.1,2.7,1.9,6.3c1.4,2.6,2.2,4.7,2.2,5.8c0,1.5,0.2,1.7,2.3,2.8
		c1.8,0.9,2.3,1,2.5,0.5c0.1-0.3,0-3.7-0.2-7.6c-0.7-9.9-0.5-10.5,2.4-13.5c1.7-1.7,2.6-3.2,3.1-4.7c0.9-2.9,3.5-6.4,5.6-7.5
		c1.1-0.6,1.9-1.5,2.2-2.5c0.4-1.1,0.9-1.7,1.9-2.1c1.9-0.7,1.8-2.5-0.3-4.8c-0.9-1-1.7-2.1-1.9-2.6c-0.4-1.4-2.8-2.3-6.4-2.7
		c-4.5-0.4-5-0.7-5.3-3.2c-0.4-2.4-0.9-3-3.2-3.4c-1.5-0.2-1.7-0.1-1.7,0.7c0,1.2-1,2.1-2,1.8c-0.4-0.1-0.9-1-1.3-1.9
		c-0.5-1.4-3.3-4-4.3-4c-0.2,0-0.8,0.7-1.4,1.7l-1,1.7l-2-1.9c-2.2-2.2-2.1-2.1-3.2-1.5c-0.5,0.2-0.8,1-0.8,1.6
		c0,0.7-0.3,1.2-0.6,1.2c-0.4,0-1,0.4-1.5,0.9c-0.8,0.9-0.8,0.9,1,1.1l1.8,0.1v2.9c0,1.6,0.3,3.1,0.6,3.6c0.8,0.9,0.3,1.3-1.6,1.3
		c-1.6,0-4.3-1.7-6.5-4.2c-0.8-0.9-1.2-1-1.6-0.7c-0.4,0.4-0.4,0.8-0.1,1.4c0.2,0.5,0.6,2,0.7,3.3c0.3,2.2,0.2,2.4-0.9,2.9
		c-0.7,0.3-2.1,0.4-3.3,0.2c-2.5-0.3-3.1,0.5-1.8,2.5l0.8,1.3l-3.5-0.3c-1.9-0.2-3.6-0.5-3.7-0.7c-0.1-0.2-0.7-0.6-1.3-0.7
		c-0.8-0.2-1-0.6-0.9-1.5c0.1-1.1,0-1.3-1.2-1.4c-0.7-0.1-1.8-0.6-2.3-1.1c-0.5-0.5-1.6-1.2-2.4-1.6c-1.8-0.7-2.6-1.7-2.9-3.6
		c-0.2-1.1-0.8-1.7-2.2-2.5c-1-0.6-2.3-1.8-2.9-2.6c-1.3-1.9-2.3-2.2-7.6-2.5c-3.6-0.2-4.2-0.1-5.3,0.7c-0.7,0.5-1.2,0.7-1.2,0.5
		c0-0.3-0.3-0.4-0.7-0.2c-0.4,0.2-0.7,0.6-0.7,0.9c0,0.4-0.6,0.7-1.6,0.7c-1.2,0-2.1,0.5-4,2.2c-2.2,2-2.4,2.3-2.4,4.4
		c0,2.3,0.9,3.8,2.4,3.8c0.5,0,0.7,0.3,0.5,0.9c-0.1,0.7,0.1,0.9,1,1.2c1,0.2,1.2,0.5,0.9,1.3c-0.4,1.2,0.6,2.4,1.7,2.1
		c1.2-0.4,1.2,0.8,0,1.9c-0.8,0.7-1,0.7-1.7,0.2c-0.7-0.6-0.7-0.5-0.5,0.9c0.3,1.4,0.3,1.5-0.8,1.5c-0.8,0-1.2-0.3-1.2-0.7
		c0-0.8-1.8-1.6-3.4-1.6c-0.8,0-0.9,0.1-0.3,0.7c0.5,0.7,0.5,0.8-0.3,1.4c-0.5,0.4-1.1,0.7-1.5,0.7c-0.7,0-1.7-3.7-1.1-4
		C381.4,440.7,381.1,439.6,380.1,439.6z"/>
	<path fill="#C8102E" d="M417.1,427.4c0.1,0,0.7-0.7,1.2-1.5c0.7-1.2,1.3-1.5,2.7-1.6c1.3-0.1,1.7-0.4,1.7-1c0-1.2-1.7-2.6-2.6-2.2
		c-0.4,0.1-1.2,0-1.7-0.2c-0.8-0.5-0.9-0.3-1.2,0.9c-0.2,0.8-0.5,1.3-0.7,1.2c-0.2-0.1-1.1-0.3-1.9-0.4c-1.4-0.1-1.5-0.1-1.2,1
		C413.8,424.5,416.4,427.4,417.1,427.4z"/>
	<path fill="#C8102E" d="M274.3,340v6.4c0.2,0,0.4-0.1,0.6-0.3c0.5-0.5,0.5-0.8,0-1.5c-0.4-0.6-0.5-1.1-0.4-1.2
		c0.5-0.5,2.6,0.9,2.9,1.9c0.2,1,2,2.1,3.3,2.1c0.3,0,0.7,0.5,0.8,1c0.1,0.7,0.7,1.3,1.7,1.7c1.8,0.8,2,1.9,0.3,1.9
		c-0.8,0-1.9-0.7-3.5-2.3c-1.3-1.3-2.6-2.3-3-2.3c-1,0-0.9,0.6,0.3,1.9c0.6,0.6,1,1.6,0.9,2.2c-0.1,0.7,0.2,1.1,1.1,1.3
		c0.7,0.2,1.6,0.2,2.2,0c0.5-0.2,1.5,0.1,2.3,0.6c1.6,0.9,1.9,2.2,0.4,1.9c-1.1-0.3-2.3,0-2.3,0.7c0,0.2,0.3,0.4,0.7,0.4
		c0.4,0,1.4,0.4,2.1,0.8c2.2,1.3,1.7,2.9-0.9,3.9c-1.1,0.4-2.2,1-2.3,1.3c-0.2,0.7,3,2.2,5.6,2.7c1.6,0.3,1.8,0.5,2.7,3
		c1,2.9,1,6.1-0.1,8.4c-0.4,0.9-0.3,1.2,0.5,1.8c1.4,1,1.3,1.7-0.2,1.3c-2-0.5-1.2,0.8,1.1,1.9c1.3,0.6,2,1.2,2,1.7
		c0,0.6,0.6,1,2,1.4c3.1,0.8,3.1,0.8,3.1,2.2c0,0.7,0.2,1.6,0.5,2c0.4,0.6,0.5,0.6,1,0c0.5-0.5,0.5-0.7,0-0.8
		c-0.3-0.1-0.6-0.4-0.6-0.7c0-0.8,1.4,0.2,1.9,1.5c0.9,2.1,5,2.6,6.8,0.9l1.1-1l0.9,1.9c0.6,1,1,2.2,1,2.6c0,0.4,0.1,0.7,0.4,0.8
		c0.7,0.3,2.5,3.2,2.2,3.7c-0.1,0.3-1.2,0.6-2.2,0.8c-2.7,0.4-5,2.6-5.4,5c-0.3,1.6-0.2,1.8,0.6,1.5c4.4-1.4,4.8-1.5,6.5-0.7
		c0.9,0.4,2,0.8,2.3,0.8c0.4,0,0.7,0.4,0.9,0.9c0.4,1.5,1.5,1.1,2.3-0.7c0.7-1.5,1-1.6,2.7-1.6c1.4,0,1.9,0.2,1.9,0.7
		c0,0.9,1.5,2.6,2.2,2.6c0.3,0,0.7,0.3,0.9,0.7c0.6,1,2.9,1.2,3.8,0.3c1-1,1.9-0.7,1.9,0.5c0,1.3,2.3,2.3,5.2,2.3
		c1.5,0,2.9,0.3,3.4,0.7c1.3,1,2.4,0.9,5.1-0.4c2.4-1.1,5.4-2,5.4-1.5c0,0.1-0.7,0.6-1.6,1c-0.9,0.4-1.6,1.1-1.6,1.5
		c0,0.4-0.7,0.9-1.5,1.3c-2.9,1.3-3.2,1.7-2.9,4.3c0.2,1.3,0.7,2.7,1.1,3.2c0.5,0.5,0.9,1.5,1.1,2.2c0.3,1.1,0.5,1.2,1.6,1
		c0.7-0.2,1.4-0.6,1.6-0.8c0.2-0.4,0.6-0.3,1.3,0.1c1.2,0.7,1.9,0.7,1.9,0c0-1,2-2.6,3.7-2.9c0.9-0.2,1.5-0.6,1.5-1.1
		c0-0.4,0.1-1.2,0.3-1.8c0.5-1.6-1.3-1.3-2.2,0.4c-0.9,1.5-2.4,1.9-2.9,0.7c-0.2-0.4,0-1.1,0.4-1.6c0.4-0.4,0.7-1.3,0.7-2
		c0-0.7,0.3-1.5,0.7-1.8c0.9-0.7,0.9-1.4-0.1-2.2c-1.1-0.8-0.7-1,1.5-0.6c1,0.1,1.4,0.3,0.8,0.4c-1.9,0.1-0.6,0.9,1.4,0.8
		c1.7,0,1.9-0.1,1.7-1.3c-0.1-0.7-0.6-1.4-1.5-1.8c-1-0.5-1.2-0.8-0.8-1.2s0.7-0.4,1,0c0.3,0.3,1,0.2,2.2-0.4
		c1.5-0.7,1.9-1.2,2.3-2.9c0.3-1.2,0.8-2.3,1.2-2.5c0.4-0.2,0.8-2,1.2-4.6c0.4-2.6,0.9-4.8,1.5-5.9c1.4-2.2,1.5-7.2,0.3-11.2
		c-0.5-1.7-0.8-3.6-0.7-4.3c0.1-0.8-0.2-1.5-0.8-1.9c-0.8-0.7-0.8-0.7,0.3-2.2c0.7-0.8,1.4-1.9,1.5-2.4c0.5-1.5-0.7-5.1-2.2-6.9
		c-0.7-0.8-1.3-1.7-1.3-2c0-0.9-3.5-5.1-4.4-5.1c-0.4,0-1.1-0.6-1.4-1.3c-0.3-0.7-1.1-1.7-1.7-2.2c-2-1.7,0-4.3,3.6-4.5
		c2.1-0.2,2.8-1.3,1.7-2.8c-0.4-0.6-1.3-1.8-1.9-2.7c-0.7-0.9-1.2-2.2-1.2-3.2c0-0.9-0.4-2.2-0.8-2.9c-3-4.4-4.4-6.6-5.2-8.5
		c-0.5-1.2-1-1.8-1-1.5c0,0.5-0.4,0.6-1.4,0.3c-1.6-0.4-1.9,0.4-0.5,1.2c0.5,0.3,0.9,0.8,0.9,1.1c0,0.4,0.3,0.9,0.7,1.2
		c0.5,0.4,0.7,1.4,0.7,2.8l0,2.2l-1.2-2.1l-1.2-2.1l0.3,1.6c0.2,0.9,0.5,2.1,0.7,2.6c0.7,1.5,1.5,6,1.2,6.3c-0.1,0.1-0.7-0.3-1.3-1
		c-1.1-1.4-2.1-1.6-3-0.7c-0.8,0.8,0.1,2.1,1.9,2.7c1.8,0.6,2.9,2.4,2.1,3.3c-0.3,0.3-1.3,0.5-2.2,0.5c-0.9,0-2.1,0.3-2.5,0.7
		c-0.5,0.4-1,0.6-1.3,0.5c-0.2-0.1-0.5,0-0.7,0.2c-0.1,0.2-1.3,0.5-2.4,0.5h-2.1l0.3,1.5c0.4,1.8-0.4,2.6-2.8,2.9
		c-1.5,0.1-1.8,0-1.6-0.6c0.1-0.4,0.3-1.5,0.4-2.3c0.2-2,1.3-3.3,2.8-3.3c0.6,0,1.1-0.2,1.1-0.5c0-0.3,0.4-0.8,0.8-1.2
		c0.7-0.6,0.7-0.7,0-1.3c-0.5-0.3-0.8-0.9-0.8-1.3c0-0.4-0.2-0.9-0.5-1.2c-0.3-0.3-0.3-0.7,0.2-1.2c0.4-0.4,0.7-0.9,0.7-1.2
		c0-0.3,0.3-0.5,0.6-0.5c0.7,0,1.7,0.9,3.2,2.9c1,1.4,1.8,1.7,1.8,0.7c0-0.8-1.9-2.8-4.2-4.4c-1.2-0.8-3.4-2.6-4.9-4
		c-2.9-2.6-10.4-7.4-11.5-7.4c-1.3,0-2.1,0.8-1.5,1.5c0.3,0.3,0.6,1.5,0.7,2.5c0.1,1.4,0,1.9-0.6,1.9c-0.5,0-0.7-0.6-0.8-1.8
		l-0.1-1.8L321,327c-1.3,0.2-2.9,0.6-3.4,0.9c-0.6,0.3-1.2,0.5-1.4,0.4c-0.2-0.1-0.6,0.1-0.8,0.4c-0.3,0.6-3.2,1.8-4.6,2
		c-0.4,0-1.3,0.5-1.9,0.9c-0.7,0.4-1.5,0.8-1.9,0.8c-0.8,0-5,2.7-9,5.8c-2.4,1.8-4.7,2.7-7.4,2.7c-2.2,0-3.2-1.3-3.2-4.1
		c0-1.8-0.1-2-1.3-2.3c-0.9-0.2-1.8,0-3,0.7c-1,0.6-2.2,1-2.7,1c-0.8,0-0.9,0.2-0.7,1.4c0.2,1.1,0.1,1.4-0.5,1.4
		c-1.1,0-2.2-1.8-2.2-3.6c0-1.4,0.2-1.5,1.7-1.8c1.5-0.3,1.8-0.6,2.8-2.8c0.6-1.4,1.3-2.5,1.6-2.5c0.5,0,4.4-3.2,4.6-3.7
		c0.3-0.7-5-1.1-6.5-0.5c-1.9,0.8-2.6,0.1-3.2-2.9c-0.5-2.5-1.6-4.1-2.9-4.1c-0.2,0-0.5-0.1-0.9-0.3V339
		C275.8,339.1,275.9,339.8,274.3,340z"/>
	<path fill="#C8102E" d="M274.8,438.1c0.7,1.3,3.1,1.7,4.3,0.7c1.1-1,1.1-2.3,0-3.5c-0.5-0.5-0.9-1.4-0.9-1.9c0-1-1.3-1.9-2.2-1.5
		c-0.4,0.1-0.6-0.2-0.6-0.7c0-1.1,0.1-1.2,2.2-0.6c1,0.3,2,0.3,2.9,0c1.1-0.4,1.6-0.3,2.9,0.5c2.2,1.3,3.3,1.2,5.3-0.4
		c1.9-1.5,2.9-1.5,5.3,0.2c0.8,0.6,1.7,1.1,2,1.1c0.7,0,2.4,1.9,3,3.4l0.6,1.3l1.2-1c0.7-0.5,1.7-0.9,2.4-0.9c2.8,0,3.3-1,1.8-3.5
		c-0.5-0.8-0.9-2.5-1.1-3.8c-0.2-1.9-0.9-3.5-3.2-7.4c-3.4-5.7-5.1-7.3-7.8-7.3c-1.6,0-2.2-0.3-5.1-3.3c-4.3-4.4-7-5.8-10.4-5.4
		c-0.9,0.1-2,0.4-3,0.8v4.7c0.2,0,0.3,0,0.4,0c0.1,0.1-0.1,0.2-0.4,0.4v4.2c0.9,0.2,2,0.3,4.1,0.3c4,0,4.5,0.2,3.2,1.1
		c-1.2,0.9-0.1,3.1,1.6,3.1s3.5,1.7,2.4,2.3c-0.6,0.3-0.5,0.5,0.2,0.7c0.8,0.3,0.8,0.4-0.2,0.7c-0.9,0.4-1.3,0.2-2.3-1
		c-0.7-0.7-1.4-1.4-1.7-1.4s-0.8-0.3-1.1-0.7c-1-1.2-1.5-0.8-1.2,0.7c0.6,2.8,1,6.5,0.7,6.5c-0.2,0-0.5-1.3-0.7-2.9
		c-0.1-1.6-0.5-3.1-0.7-3.4c-0.2-0.3-0.5-1-0.6-1.7c-0.1-0.9-0.5-1.3-2.2-1.6c-0.5-0.1-1-0.2-1.4-0.4v20.7
		C274.5,437.8,274.7,437.9,274.8,438.1z"/>
	<path fill="#C8102E" d="M427.1,422l1.1,1.9l0.3-1.3c0.2-0.7,0.9-1.7,1.6-2.2l1.2-1l-1.3-1.1c-1.6-1.4-3.7-1.5-4.8-0.2
		c-0.8,0.9-0.8,1-0.1,1.5C425.7,419.9,426.5,421,427.1,422z"/>
	<path fill="#C8102E" d="M473.4,428.5c0.7-0.4,0.9-3,0.4-3.7c-0.7-0.8-2.7-0.9-3.7-0.2c-0.4,0.2-1.3,0.5-2,0.5c-1,0-1.3,0.2-1.3,0.9
		c0,0.5,0.3,1.1,0.6,1.3C468.1,427.7,472.9,428.8,473.4,428.5z"/>
	<path fill="#C8102E" d="M398,66.8c-2.8-0.4-2.9-0.4-5.1,0.7c-1.6,0.7-2.4,0.8-4.5,0.5c-2.2-0.4-2.6-0.3-2.8,0.4
		c-0.1,0.6-0.9,0.9-2.5,1.1c-5.3,0.7-6.8,1.3-8,3.3c-1.8,3-2.5,4.9-2.2,5.8c0.3,1.1,2.5,2.2,3.2,1.5c0.2-0.2,0.8-0.5,1.2-0.5
		c1,0,3.7,2.9,3.7,3.9c0,1.1,0.3,1,4.1-0.8c4-2,5.8-4,5.8-6.6c0-1-0.2-2.1-0.6-2.4c-0.8-0.8,0-1.4,3.3-2.2c2.8-0.7,3.5-0.7,5.2,0
		c0.6,0.2,0.9-0.1,1.3-1.3C401,67.8,400.5,67.1,398,66.8z"/>
	<path fill="#C8102E" d="M181.5,387.9c-0.2-0.7-1-1.2-2.9-1.8c-3.2-1-3.1-1-4.6,0.1c-1.3,1-1.7,2.5-2,6.2c0,1.1-0.3,3.7-0.5,5.7
		c-0.3,3.5-0.3,3.9,0.9,6.2c0.7,1.4,1.5,2.6,2,2.8c0.9,0.3,3.5-0.7,3.5-1.5c0-0.3,0.4-0.9,0.9-1.4c1-0.8,1.3-2.9,0.5-3.4
		c-0.3-0.2-0.3-1.1-0.2-2.1c0.2-1,0-2.2-0.3-2.8c-0.4-0.8-0.4-1.2,0.1-1.8C180.1,392.9,181.7,388.8,181.5,387.9z"/>
	<path fill="#C8102E" d="M385.9,84.1c-0.9-0.3-0.6-0.4-2.2,0.5c-1.5,0.7-1.3,2.1,0.2,2.1C386.1,86.6,387.6,84.7,385.9,84.1z"/>
	<path fill="#C8102E" d="M205.7,98c-5.5,3-10,3.8-13.6,2.5c-1.3-0.5-2.5-1-2.8-1.2c-0.2-0.2-1.6-0.7-2.9-1.1c-3.1-0.9-3.8-0.6-5.8,3
		c-3.8,6.6-6.1,9.3-7.7,8.7c-0.4-0.1-1.3,0.8-2.6,3.1c-2.2,3.7-5.9,9.2-6.8,9.9c-0.8,0.7-5.1,8.3-7,12.3c-4.4,9.5-7.2,22.8-5.1,24.4
		c0.4,0.3,0.7,1.1,0.7,1.7c0,1.3,0.7,1.5,1.2,0.3c0.2-0.4,0.5-2.9,0.6-5.4c0.1-2.5,0.3-4.5,0.4-4.5c0.1,0,0.8,0.4,1.6,1
		c1,0.7,1.4,1.3,1.4,2.5c0,1.6,1.5,5.7,2.3,6.1c0.6,0.4,2.3,4.2,2.3,5.1c0,0.5,0.4,0.7,1.1,0.7c2.8,0,4.8,1.1,7.6,4.1
		c2.2,2.3,2.9,3.5,3.2,4.9c0.1,1,0.5,1.8,0.7,1.8c0.3,0,0.5,0.3,0.5,0.6c0,0.8,2.2,3.1,3,3.1c0.9,0,0.9,0.5,0,2.5
		c-0.4,0.9-1.3,1.8-2,2.2c-1.1,0.5-1.3,0.4-2.4-0.8c-0.7-0.7-2.6-2-4.4-2.9c-3-1.5-4.8-1.6-10.2-1c-0.2,0-0.6,0.9-0.9,2l-0.6,2
		l-0.4-1.4c-0.6-2.5-0.5-4,0.3-4c0.4,0,0.7-0.4,0.7-0.9c0-0.8-0.3-0.9-2.1-0.9c-2.5,0-4.6-1.4-3.7-2.4c1-1.1,0.6-1.7-1.8-2.6
		c-1.3-0.5-2.3-1-2.3-1.2c0-0.9,0.7-1.8,1.3-1.8c0.5,0,0.6-0.3,0.4-1.2c-0.2-0.8,0-1.6,0.7-2.5c0.8-1.2,0.9-1.5,0.3-3.3l-0.7-2.1
		l-0.9,1.4c-2.1,3-3.3,5.7-3.9,8.4c-0.3,1.5-1.2,5.3-1.9,8.4l-1.4,5.6l0.1,18.5c0,0.7,0,1.4,0,2.1h63.2V98z"/>
	<path fill="#C8102E" d="M397.5,285.8c-1.2-1.1-2.9-2.7-3.7-3.5c-1.6-1.5-3.9-1.9-3.9-0.7c0,0.4,0.8,1.3,1.8,2.2
		c1,0.8,2,1.9,2.2,2.3c0.2,0.5,0.6,0.9,0.8,0.9c0.3,0,1.8,0.7,3.3,1.4c1.5,0.7,2.9,1.3,3.2,1.1c0.7-0.4,0.4-1-0.6-1.4
		C400.2,288,398.8,286.9,397.5,285.8z"/>
	<path fill="#C8102E" d="M143.7,274.3c0.4,1.8,0.8,4.6,1.1,7.6c0.4,4,0.9,8.3,1.2,9.5c1.9,9.8,0.5,20-4.7,33.9
		c-1.3,3.5-2.5,6.6-2.8,7.1c-0.5,0.9,0.6,2.8,1.6,2.8c1.3,0,8.1,3.7,9.4,5.1c0.8,0.8,2.6,2.3,4.1,3.3c1.5,1,2.7,2.1,2.7,2.3
		c0,0.3,0.4,0.5,0.9,0.5c0.7,0,0.9-0.3,0.9-1.5c0-1.5-0.6-2.3-3-4.4c-1.2-1-1.3-1.2-0.6-1.9c0.7-0.7,0.7-0.9-0.6-1.8
		c-1.8-1.3-2.1-3-0.8-5.4c0.8-1.6,1.2-1.9,2.7-2.1c2.3-0.2,3.2,0.9,1.8,2.2c-1,0.9-1,1-0.3,2.5c0.6,1.3,2.5,3.6,7.8,9.5
		c0.5,0.5,1.2,1.2,1.7,1.5c1.4,0.7,0.6,2-1.3,2c-1.6,0-2.7,0.6-3.6,2.1c-0.5,0.8-0.6,0.8-0.3-0.3c0.3-1.6-0.4-1.7-1.4-0.3
		c-1,1.4-1,1.5,0.9,3.5c2.2,2.2,5.4,9,5.8,11.7c0.3,2.5,1.7,3.7,3.6,3.3c1.3-0.3,2.3-2.1,1.6-2.8c-0.2-0.3-0.4-0.8-0.4-1.3
		c0-0.4-0.4-1.5-0.8-2.5c-0.7-1.4-0.7-1.8-0.2-2.7c0.5-0.9,0.5-1.5-0.1-3.2c-0.7-2.1-2-2.9-2.5-1.6c-0.5,1.2-1.6-0.1-1.6-2
		c0-1.9,0.9-2.4,2.6-1.3c1.1,0.7,1.3,0.7,1.9,0.1c1.1-1.1,7-0.1,9.1,1.4c0.9,0.7,2.1,1.5,2.8,1.7c1,0.4,1.4,1.5,3.2,7.5
		c2.4,8.4,2.4,9.6-0.3,10.5c-1,0.3-2.1,0.8-2.4,1.2c-0.3,0.4-1.4,0.7-2.5,0.7c-3.2,0-5,2-3.6,4.1c0.7,1.1,2.8,0.1,3.6-1.6
		c0.4-0.9,0.9-1.6,1.1-1.6c0.3,0,1.3-0.5,2.2-1.2c0.9-0.7,2-1.2,2.2-1.2c0.6,0,0.7,3.7,0.1,4.6c-0.2,0.4-0.2,0.7,0.1,0.9
		c1,0.6,1.5,2.7,1,4.7c-0.3,1.2-0.3,2.2,0,2.3c0.3,0.2,2,7.7,2,9c0,0.2-0.4,0.4-0.9,0.4c-1.2,0-1.2,0.7-0.1,1.4
		c0.8,0.4,0.8,0.6,0,3.2c-0.5,1.5-1.2,3.1-1.5,3.7c-0.3,0.5-0.9,2.7-1.4,4.7l-0.8,3.8l1.2,4.2c1.4,4.8,1.5,6,0.5,9.5
		c-0.4,1.4-0.7,3.3-0.7,4.1c0,1.6,0.2,1.7,2.8,1.6c0.7,0,1.9,0.4,2.8,1.1c1.4,1,1.9,1.1,3.7,0.9c1.2-0.1,2.7-0.6,3.4-0.9
		c1.6-0.8,3.3-0.7,4.3,0.1c0.7,0.7,1,0.7,2.9,0c0,0,0.1,0,0.1,0V274.3H143.7z"/>
	<path fill="#C8102E" d="M378.6,203.3c2.3-0.8,1.4-3.1-2.6-6.4c-2.6-2.2-3.3-2.9-3.8-4.8c-0.6-2.1-0.9-2.3-3.5-3.6l-2.8-1.4l-3,0.8
		c-1.7,0.4-4.2,0.7-5.6,0.7s-4.4,0.5-6.7,1.2c-5,1.4-8.1,1.5-9.9,0.6c-0.7-0.4-2.3-0.8-3.5-1c-1.8-0.2-2.4-0.6-4.4-2.8
		c-2.8-3.1-4-5-4-6.3c0-1.2-1.7-2.9-2.9-2.9c-0.6,0-0.8,0.3-0.8,1.1c0,0.6-0.8,2-1.9,3.1s-1.9,2.3-1.9,2.6c0,0.2-0.5,0.9-1.2,1.5
		c-0.7,0.7-1.2,1.8-1.3,2.8c-0.1,1.3-0.2,1-0.2-1c0-1.5,0.1-2.7,0.4-2.7c0.2,0,0.6-0.7,0.9-1.6c0.5-1.9,5.7-7.1,7.4-7.5
		c1.6-0.4,3.1-3.1,2.7-4.9c-0.2-0.8-0.1-1.7,0.1-2c0.3-0.4,0.2-1.5-0.3-3c-0.8-3-2.2-3.8-4.5-2.8c-0.9,0.4-1.8,0.5-2.5,0.3
		c-1.2-0.4-2.8,0-4.8,1.5c-1.3,0.9-1.3,0.9-2.1,0c-2.6-3.1-3-3.4-4.5-3.4c-1.3,0-1.7,0.3-2.4,1.4c-1.2,2-2.3,2.5-3.9,1.8
		c-1.1-0.5-1.3-0.5-1.9,0.3c-0.4,0.5-0.7,1.2-0.7,1.5s-0.4,0.6-0.8,0.6c-1.3,0-3.7,1.7-4.1,2.7c-0.3,0.8-0.8,1-5,1.1
		c-3.5,0.1-4.8,0.3-5.1,0.8c-0.2,0.4-0.6,0.5-0.7,0.3c-0.7-0.7,0.6-1.3,4.6-1.9c3.5-0.6,4.4-0.9,5.7-2.2c0.8-0.8,1.9-1.5,2.3-1.5
		c0.5,0,1.6-0.7,2.5-1.7c1.5-1.5,1.8-1.6,3.4-1.4s1.9,0.1,2.8-1.1c0.8-1.2,1.3-1.4,3-1.4c1.1,0,2.4,0.3,2.9,0.7
		c1.3,1,2.2,0.8,3.3-0.6c0.9-1.1,1.2-1.2,2.1-0.7c0.6,0.3,2.1,0.7,3.2,0.8c1.2,0.1,2.8,0.4,3.7,0.6c1.4,0.3,1.5,0.2,1.5-0.9
		c0-0.7-0.5-2-1.1-2.9c-1.8-2.7-3-7-3.8-13.5c-0.9-7.5-0.7-17.1,0.5-18.8c0.4-0.7,0.6-1.5,0.5-2c-0.1-0.6,0-1,0.5-1.2
		c0.4-0.1,0.7-0.8,0.7-1.5c0-1.1-0.1-1.2-3-1.2c-1.7,0-3.8-0.3-4.6-0.7c-1.8-0.7-7.3-4.4-7.3-4.9c0-0.2-1.5-1.5-3.3-3
		c-1.8-1.5-3.7-3.5-4.1-4.3c-1-2.2-2.9-2.2-5.1-0.1c-0.8,0.8-1.6,1.4-1.8,1.2c-0.6-0.5,0.4-1.9,2.3-3.2c2.2-1.5,2.2-1.5,5.6,1.6
		c1,0.9,2.6,2.1,3.5,2.6c0.9,0.5,2.6,1.8,3.6,2.9c5.9,6.2,8.4,7.8,10.8,7.1c0.7-0.2,2.6-0.4,4.1-0.4l2.8,0l1.5-4.7
		c0.9-2.5,1.6-5.2,1.6-5.9c0-2,3.2-12.6,4.8-15.6c1.5-3.1,4.5-6.9,5.3-6.9c0.3,0,1.3-0.8,2.2-1.9c1.5-1.7,1.7-2.1,1.7-4.7
		c0-1.5-0.6-6.8-1.4-11.7c-1-6.5-1.3-9.2-0.9-10.1c0.3-0.7,0.5-1.9,0.5-2.8c0-1.5,0.4-2.7,1.6-4.8c0.7-1.3,0.2-4.1-0.9-5
		c-0.3-0.2-1-1.2-1.5-2.1c-0.5-0.9-1.9-3-3.1-4.6c-3.7-4.9-5.1-9.7-4.1-13.8c0.6-2.5,3.7-7.5,7.7-12.3c1.1-1.3,2.7-3.3,3.6-4.5
		s2.2-2.4,2.8-2.7c0.7-0.3,1.8-1,2.6-1.7c1.4-1.2,1.4-1.2,0.5-1.9c-1.3-0.9-3.4-0.8-5.7,0.2c-2,0.9-7,5.1-12.6,10.3
		c-3.9,3.7-7.9,7-8.5,7c-0.2,0-1.5,0.7-2.8,1.5c-5.8,3.7-14.3,5.9-20,5c-6.5-1-6.8-0.9-9,2.3c-1,1.5-2.5,3.9-3.3,5.5
		c-0.8,1.5-3,4.5-5,6.6c-1.9,2.1-3.9,4.6-4.3,5.6c-2.2,5.2-4.7,10.5-7.2,15.4v145.1h102.9C377.5,204.2,377.9,203.6,378.6,203.3z
		 M319.1,195c-0.1,0.4-0.5,0.7-0.8,0.7c-0.4,0-0.4-0.6-0.2-1.8c0.6-3.2,1-3.8,1.1-1.5C319.3,193.5,319.2,194.7,319.1,195z"/>
	<path fill="#C8102E" d="M274.3,312.6c0.3,0.1,0.5,0.2,0.7,0.2c0.3,0,1,0.8,1.7,1.9c1.1,1.8,1.3,1.9,3.6,1.9c1.5,0,2.7,0.2,3.1,0.7
		c0.8,0.8,3,0.5,3.8-0.5c0.8-1,10.1-3.2,13.4-3.2c0.9,0,1.6-0.2,1.5-0.4c-0.1-0.2,0-0.7,0.3-1.3c0.4-0.8,0.3-0.9-1-1.1
		c-2.3-0.2-2.2-1.4,0.3-2.4c1.2-0.5,2.1-1.1,2.1-1.4c0-0.2,0.4-0.3,0.8-0.2c1.1,0.4,2.2-0.4,1.8-1.3c-0.2-0.5-0.9-0.7-2.2-0.7
		c-1.4,0-2-0.2-2.4-0.9c-0.8-1.5-0.5-2.5,1.3-4.7c1.6-1.9,1.8-2.2,1.3-3.4c-0.3-0.9-0.8-1.3-1.5-1.3c-1.1,0-1.3-0.4-0.8-2.2
		c0.3-0.9,0.6-1,2.9-1c2.8,0,4.4-0.6,4.4-1.6c0-1.4-4.8-1.6-6.4-0.4c-0.6,0.4-1.3,1.6-1.7,2.6c-0.4,0.9-1,1.9-1.4,2
		s-2.5-0.2-4.8-0.7c-5.9-1.5-6.7-2.3-3.2-3.2c1.5-0.4,2.5-0.4,3.4,0c1.5,0.6,1.3,0.7,1.9-1.2c0.4-1.4,0.6-1.4,4.2-1.8
		c5.3-0.5,7.2-0.5,7.9,0.1c0.3,0.3,0.9,0.4,1.3,0.3c0.6-0.2,0.8,0.2,1,1.6c0.3,2.1,2.2,3.8,4,3.8c0.8,0,1-0.2,0.8-1
		c-0.2-0.6-0.1-1.3,0.1-1.5c0.3-0.3,0.2-1.2-0.1-2.3c-0.4-1.5-0.4-1.8,0.1-2c0.3-0.1,1.3-0.8,2.1-1.7c0.8-0.8,1.9-1.7,2.3-1.9
		c0.6-0.4,0.7-1.3,0.8-4.4c0-1.1,0-2.2,0-3.3h-47.3V312.6z"/>
	<path fill="#C8102E" d="M275,382.5c1-1.1,1.3-1.7,1.1-3.1c-0.1-1.4-0.4-1.9-1.8-2.9v6.8C274.5,383.1,274.7,382.8,275,382.5z"/>
	<path fill="#C8102E" d="M330.5,431.2c-0.7-0.6-1.7-1-2.1-1c-0.4,0-0.8-0.4-1-0.8c-0.1-0.4-1.1-1.3-2.2-1.9c-1.2-0.7-1.9-1.4-1.9-2
		c0-0.6-0.3-0.9-0.9-0.9c-0.9,0-3.8-2.5-3.8-3.3c0-0.2-0.5-0.5-1.2-0.6c-0.7-0.1-1.2-0.1-1.2,0c0,0.7,2.8,4.7,3.3,4.7
		c0.2,0,0.5,0.4,0.5,0.8c0,1.4,3.7,6.2,5.5,7c1.1,0.5,1.8,1.3,2.2,2.3c0.5,1.3,6.6,7.6,7,7.1c0-0.1,0.6-0.8,1.1-1.6
		c0.9-1.3,1.4-1.5,3.8-1.7c3.4-0.4,3.7-0.6,3.7-1.8c0-1.3-4.4-5.6-5.7-5.6h-1l1.1,1.2c0.9,1,1,1.2,0.3,1.2c-0.4,0-0.8,0.2-0.8,0.5
		c0,1.2-1.4,0.3-1.9-1.1c-0.3-0.9-0.8-1.7-1.2-1.9c-0.4-0.1-0.7-0.6-0.7-0.9c0-0.4-0.4-1-0.9-1.5c-0.9-0.8-0.9-0.8-0.7,0.1
		c0.1,0.5,0.1,1.3,0,1.7C332,432.1,331.8,432,330.5,431.2z"/>
	<path fill="#C8102E" d="M470.5,282.9c0.3,1.5,0.7,2.8,1,2.9c0.7,0.4,0.4,2.5-0.3,2.8c-1,0.4-0.9,1.2,0.7,5.8
		c0.7,2.2,1.6,5.2,1.8,6.6s0.7,3.5,1,4.7c0.6,2.4,0.6,2.4,0.3,5.1c-0.3,2.4-0.7,3.7-1.3,3.7c-0.7,0-0.9,1.5-0.4,2.4
		c0.6,1.1,0.1,2.9-0.7,2.6c-0.3-0.1-0.7-0.7-0.8-1.3c-0.4-1.5-1.9-1.8-1.9-0.4c0,0.7-0.2,1-1,0.8c-0.8-0.1-1.1-0.5-1.2-1.5
		c-0.1-1.3-0.1-1.4,1.3-1.1c1.1,0.2,1.5,0.1,1.7-0.4c0.3-0.9-0.6-1.6-2.3-1.6c-1.1,0-1.3-0.1-1-1c0.3-0.8,0.1-0.9-0.6-0.8
		c-0.6,0.1-0.8,0.6-0.9,1.4c-0.1,2.2-0.6,2.8-2.1,2.8c-1.1,0-1.4,0.2-1.4,0.9c0,1.2-0.5,2.4-1,2.4c-0.8,0,0.2-3.1,2-5.8
		c1-1.5,1.8-3.1,1.8-3.6c0-1.3,0.5-2.3,1.2-2.3c0.4,0,0.7,0.4,0.7,0.9c0,1.3,1.2,1.5,2.1,0.5c0.4-0.5,1.3-0.9,1.8-1
		c0.6-0.1,0.9-0.4,0.8-0.8c-0.1-0.4-0.2-2.9-0.2-5.7c0-3-0.3-5.2-0.6-5.6c-0.3-0.4-0.7-1.8-0.9-3.1c-0.2-1.8-0.6-2.6-1.3-3
		c-0.5-0.3-1.1-0.7-1.3-1c-0.6-0.9-0.4-3.1,0.5-4.9c1.1-2.2,0.6-3.4-1.4-3.4c-0.9,0-1.5-0.3-1.9-0.9c-0.5-1-1.1-1.2-4-1.7l-1.9-0.3
		l-0.3,1.8c-0.2,1.5-0.1,2,0.8,2.9c0.8,0.8,1.2,1.7,1.2,2.9c0,1.2,0.2,1.7,0.7,1.7c1.2,0,2.1,2,1.8,3.8c-0.4,2.1-2.1,3.8-4.7,4.5
		c-1.5,0.4-2,0.8-2,1.5c0,0.5-0.2,1-0.4,1.1c-0.2,0.2-0.6,1.9-0.7,3.9c-0.6,7.3-2.9,14.8-4.1,13.1c-0.2-0.3-0.4-1.1-0.4-1.6
		c0-0.6-0.3-1.1-0.7-1.3c-0.4-0.1-0.7-0.7-0.7-1.3c0-2.2-0.5-2.5-4.5-1.9c-2,0.3-4.4,0.6-5.2,0.6c-2.4,0-1.6-1.1,1.1-1.5
		c1.3-0.2,2.9-0.6,3.6-0.8c0.7-0.3,1.8-0.5,2.5-0.5c1.5,0,1.6-1.6,0.1-2c-0.8-0.2-0.9-0.5-0.7-1.5c0.3-1.2-0.9-5-1.6-5
		c-0.2,0-1.7,0.7-3.5,1.6c-3.4,1.8-5.4,2.1-6.4,0.9c-0.5-0.6-0.5-0.8,0.1-1.2c0.4-0.2,0.9-0.4,1.2-0.4s0.8-0.8,1.1-1.8
		c0.7-2.2,1.6-2.7,2.8-1.7c1.1,1,3.1,0.9,3.7-0.2c1.2-2.3-0.3-6.5-3.4-9.4c-1.7-1.5-1.8-3.9-0.3-4.9c1.4-1,2.3-0.9,2.2,0
		c-0.1,0.5,0.3,1,1.1,1.3c2.1,0.7,2.8,0.1,2.8-2.4c0-2.5,0.6-3.6,2.2-4.1c0.8-0.3,1-0.7,1-2.2h-5.6c-3.5,2.6-6.6,3.5-8.9,2.6
		c-0.9-0.3-1.7-1.1-1.8-1.6c-0.3-1.1-0.4-1.1-3.1-0.4c-1.7,0.4-2.7,0.4-5.5-0.2c-0.5-0.1-1.2-0.2-1.8-0.4h-10.6
		c0.5,0.3,0.9,0.5,1.2,0.7c0.9,0.5,2.8,1,4.6,1.1c3.7,0.3,6.6,1.3,8,2.7c0.9,1,1,1.5,0.9,5.1c-0.2,3.8-0.2,4-1.8,5.6
		c-1.3,1.4-2,1.7-3.4,1.7c-1,0-2.7,0.4-3.7,1c-1.7,0.9-2,0.9-2.7,0.2c-0.5-0.4-1.2-0.7-1.7-0.7c-0.8,0-0.8,0,0,0.9
		c1.1,1.2,1.5,6.7,0.7,9.1c-0.6,1.8-2.4,3.1-4.4,3.1c-0.6,0-1.3,0.2-1.6,0.6c-0.3,0.3-0.6,0.4-0.6,0.1c0-0.3-0.4,0.2-0.9,1.1
		c-0.8,1.4-1.2,1.5-2.2,1.3c-0.7-0.2-1.6-0.7-2.1-1.2c-1-1.2-1.2-1.2-1.5,0.2c-0.4,1.5-1.6,1.5-2.2,0c-0.7-2.1-5.9-2.2-7.7-0.3
		c-1,1.1-2.6,1.2-7.3,0.2c-3.4-0.7-9.1-0.7-10.3,0c-0.3,0.2,0,0.7,0.7,1.2c0.8,0.7,1.9,0.9,4,0.9c3,0,4.7,0.6,4.7,1.5
		c0,1,4.3,4.9,6.2,5.7c2,0.8,2.2,1.4,0.7,2.2c-1.1,0.6-2.1,0.5-7.9-0.7c-4.4-0.9-4.2-0.9-4.2,0.2c0,1.3,0.7,1.6,3.9,2
		c4.2,0.5,11.1,4.3,12.5,6.9c0.9,1.8,1.9,5.7,1.9,7.6c0,2.2-0.8,2.8-3.5,2.9c-1.7,0.1-2.2,0.3-2.2,0.9c0,0.4-0.1,1.1-0.3,1.5
		c-0.2,0.5,0.1,0.9,1,1.2c1.1,0.4,1.5,0.4,1.9-0.2c0.3-0.4,0.4-1.1,0.3-1.5c-0.1-0.4,0.8,0.4,2.1,1.8c1.5,1.5,2.5,3.1,2.7,4.1
		c0.2,0.9,0.7,2.4,1.3,3.4c0.7,1.4,0.8,2.3,0.6,3.8c-0.2,1.2-0.1,2.7,0.2,3.7c0.3,0.8,0.5,2.1,0.3,2.7c-0.3,1.3-3.7,3.2-5.6,3.2
		c-3.4,0-4.4,2.8-1.7,4.7c0.8,0.6,1.6,1.5,1.8,2.1c0.4,1,4.2,3.8,6.8,5c1.2,0.5,1.3,0.7,1,2.8c-0.1,1.2,0,3.3,0.3,4.5
		c0.4,1.5,0.4,2.5,0.1,2.8c-0.7,0.7,0.5,2.3,1.9,2.7c0.7,0.2,1.5,0.5,1.7,0.7c0.8,0.7,6.4,1.4,10.5,1.4c3.9,0,6.2-0.5,6.7-1.4
		c0.3-0.5,2.1-0.2,2.9,0.5c0.3,0.2,1.7,0.5,3,0.6c3,0.2,6.7,1.7,7.4,3c0.5,1,2.3,1.4,2.3,0.6c0-1-0.6-1.9-1.2-1.9
		c-0.4,0-0.7-0.1-0.7-0.2c0-0.7,1.5-2.9,2.1-3.2c1.3-0.5,3.4-0.3,3.8,0.2c0.2,0.4,0,0.5-0.8,0.3c-1-0.3-1.2-0.1-1.7,1.2
		c-0.7,2.1-0.7,2.2,0.6,2.2c0.7,0,1.2-0.2,1.2-0.5c0-0.3,0.3-0.5,0.7-0.5c1,0,0.9,0.6-0.2,1.3c-1.1,0.7-1.2,1.6-0.3,2.3
		c0.3,0.3,1.8,0.6,3.4,0.7c3,0.3,4.4,0.7,4.4,1.3c0,1.2-0.6,1.7-1.8,1.5c-0.8-0.1-1.7,0.2-2.4,0.8c-1.2,1-1.9,1.3-1.9,0.6
		c0-1-1.5-0.9-2,0.2c-0.5,1-0.3,1.4,1.1,3.1c0.9,1.1,1.9,2.5,2.2,3c0.3,0.6,0.9,1.1,1.3,1.1c0.6,0,0.6-0.1,0.1-0.7
		c-1.3-1.5,0.5-0.6,2.5,1.3c2.5,2.3,3,4.4,0.8,3.2c-4.4-2.3-13.4-5.4-14.9-5.1c-0.6,0.1-0.2,0.4,1.2,0.8c1.2,0.3,2.4,0.9,2.8,1.2
		c0.4,0.3,1.9,1,3.4,1.5c4.4,1.6,7.8,3.8,9.1,5.8c0.7,1,1.8,2.1,2.6,2.3c1,0.3,1.4,0.7,1.4,1.5c0,0.6,0.3,1.2,0.6,1.3
		c0.4,0.1,0.6-0.2,0.6-1c0-1,0.2-1.3,1.4-1.4c2.2-0.3,3.5,0.3,4.3,1.8c0.8,1.6,4.2,3.3,6.6,3.3c1.2,0,2.1-0.5,3.5-1.7l1.9-1.7v1.3
		v1.4l1.2-1.5c1.4-1.7,2.5-2,3.6-0.7c1,1.1,1,1.5-0.1,1.5c-0.5,0-1.5,0.5-2.2,1.1c-1,0.9-1.2,1.4-0.9,2.3c0.2,0.7,0.7,1.3,1.1,1.3
		c0.5,0,0.3,0.2-0.5,0.5c-1.1,0.4-1.3,0.7-1.3,2c0,0.9-0.3,1.6-0.7,1.8c-1.4,0.5-0.7,1.2,1.3,1.2c1.4,0,1.8,0.1,1.3,0.4
		c-0.6,0.4-0.6,0.7-0.1,1.7c0.6,1.2,0.7,1.3,3.1,1.1c1.4-0.1,2.9-0.5,3.3-0.8c0.4-0.4,2.1-2.5,3.8-4.7c2.2-3,3.6-4.4,5.4-5.3
		c2.2-1.2,2.6-1.3,5.9-1c2.2,0.2,4.6,0.7,6.1,1.5c3.1,1.4,5.9,1.5,6.6,0.2c0.8-1.5,0.5-3.5-0.8-6.1c-1.1-2.1-1.6-2.6-2.9-2.9
		c-0.8-0.2-2.1-0.7-2.7-1.1c-0.8-0.5-3.1-0.8-7.6-1.2l-6.4-0.4l-1.9-2.1l-1.9-2.1l-1.1,1.2c-1.3,1.4-1,1.9,1.2,2.9
		c1.3,0.5,1.6,0.9,1.6,2c0,0.7-0.2,1.6-0.5,1.8c-0.4,0.4-0.3,0.9,0,1.8c0.7,1.5,0.8,1.3-2.3,2.2c-2.2,0.7-2.7,0.7-3.8,0.1
		c-1.9-1-2.9-2.1-2.6-2.9c0.1-0.4-0.2-1.9-0.9-3.4c-0.7-1.5-1.2-3.1-1.2-3.5c0-0.4-0.3-0.7-0.7-0.7c-1.1,0-1.6-2.8-0.8-4.2
		c0.3-0.5,0.6-0.5,1.3-0.1c1.2,0.6,2.5-0.6,2.5-2.4c0-0.7,0.2-1.3,0.5-1.3c0.3,0,0.5-0.4,0.5-0.8c0-1.8-4.1-4-5.4-2.9
		c-1,0.8-6.3,0.1-6.6-0.9c-0.2-0.4-0.6-0.9-0.9-1.1c-0.8-0.5-0.7-1.8,0.1-3c0.6-0.8,1.2-1,3-1h2.3l-0.7,1.9c-1,2.4-0.5,3.8,1.2,3.2
		c1-0.4,1.1-0.6,0.7-3l-0.3-2.6l3.6-3.5c2-1.9,3.9-3.5,4.4-3.5c0.4,0,1.7-0.5,2.8-1.1c1.8-1.1,2.3-1.1,6.2-0.9
		c3.6,0.2,4.2,0.2,4.2-0.4c0-1,1.5-2.2,2.7-2.2c0.5,0,1.3-0.5,1.8-1c0.5-0.6,1.4-1.2,2-1.4c1.4-0.5,2.1-2.4,1.5-4
		c-0.2-0.7-0.3-2.1-0.2-3.1c0.4-2.5-0.2-3.9-3.3-7.7c-2.7-3.3-4.4-4.3-7.6-4.3c-0.8,0-1.5-0.2-1.7-0.4c-0.1-0.2-1.2-0.7-2.3-1
		c-1.2-0.3-2.9-1.3-4-2.2c-1.6-1.4-1.9-1.9-2-4c-0.3-3,1.7-9.9,3.8-13c1.3-1.9,6.7-6.6,7.6-6.6c0.2,0,1.4-0.9,2.5-1.9
		c2-1.8,2.2-1.9,4.4-1.7c1.3,0.1,2.7,0.6,3.2,1c0.5,0.4,1.4,0.7,2.1,0.7c1.1,0,1.2-0.2,1.2-1.6c-0.1-2.2,1.2-4,2.8-4h1.3l-1.3,1.4
		c-0.9,0.9-1.3,1.9-1.3,2.9c0,2.1,1.2,4.9,2.3,5.2c0.5,0.1,1.1,0.7,1.3,1.3c0.7,1.6,3.8,1.4,5.2-0.4c0.6-0.7,1.8-1.6,2.9-2.1
		c1.6-0.7,1.9-1.1,2.2-2.6c0.5-3,0.4-3.7-1.1-5.1c-1-1-1.4-1.8-1.4-3.1c0-2.4-2-6-2.9-5.5c-1.7,1-2.9-4.2-1.8-7.3
		c0.7-1.7,0.7-5.5,0-8.7c-0.2-1.4-0.7-3.9-1-5.6c-0.3-1.6-1.4-5-2.5-7.3c-1.9-4.1-2-4.5-1.8-7.5c0.1-1.4,0.4-2.7,0.8-3.9h-44.1
		C468.6,275.8,469.7,279.2,470.5,282.9z"/>
	<path fill="#C8102E" d="M358.5,434.4c-0.5,0-1-0.2-1.1-0.5c-0.7-1-1.5-0.4-1.8,1.3c-0.2,1-0.6,2.5-0.8,3.4
		c-0.5,1.5-0.5,1.5-2.5,1.3c-1.2-0.1-2.1-0.1-2.1,0.2c0,0.5,0.3,0.8,2.9,3.2c2,1.7,2.8,5.1,2.4,9.5l-0.3,3.7h1.9
		c1.3,0,2.2-0.3,2.7-0.9c0.9-1.1,3.5-8.4,3.5-10.2c0-1.2,1.6-5.3,3.7-9.5c0.8-1.7,1.5-4,1.8-6.6c0.6-4.5,1.7-7.6,4.1-10.9
		c1.1-1.5,1.8-3.2,2.2-5c0.2-1.5,1-4.2,1.6-6.1c0.6-1.9,1.1-4.2,1.1-5c0-0.8,0.4-2.5,0.9-3.7c0.7-1.7,0.9-2.6,0.6-4.1
		c-0.5-2.5-1.4-2.6-2.9-0.4c-0.7,1-1.5,2.6-1.8,3.5c-0.3,0.9-0.8,1.8-1,2c-0.2,0.2-0.4,1.3-0.4,2.4c0,1.6-0.5,3.2-2,6.2
		c-1.1,2.2-2.3,5-2.6,6.2c-0.5,1.7-1,2.5-2.4,3.4c-1,0.7-2,1.2-2.2,1.2c-0.4,0-1.7,1.4-4.3,4.7c-1.5,1.9-3.3,5.4-3.3,6.3
		c0,0.4,0.5,0.7,1.4,0.7c0.9,0,1.5,0.3,1.7,0.8c0.2,0.5,0.5,1,0.8,1.2C360.8,433.1,359.6,434.4,358.5,434.4z"/>
	<path fill="#C8102E" d="M343.2,274.9l0.1,2.9l1.6,0.2c0.9,0.1,2.3,0.7,3.2,1.4c1.7,1.3,1.9,2.4,0.8,6c-0.6,2-1,2.5-2.3,3.1
		c-3.1,1.5-3.8,4.9-2.2,11.4l0.8,3.4l2.5,0.1c1.3,0,2.8,0.1,3.2,0.1c1.2,0,2.7-5.5,2-7.5c-0.4-1.3-0.4-1.8,0.5-3.5
		c0.6-1.1,1.6-2.8,2.3-3.7c1.8-2.3,1.8-3.3,0-2.9c-1.6,0.3-4-0.8-4.4-2.1c-0.3-1.2,0.1-1.8,1.5-2.2c1.5-0.5,1.3-1.1-1.2-2.2
		c-2.1-1-3.4-2.6-4.1-5.1h-4.4C343.2,274.5,343.2,274.7,343.2,274.9z"/>
	<path fill="#C8102E" d="M454.1,274.8c0.7,1.6,2.4,2.5,4.2,2.1c0.6-0.1,2.7-1,4.6-1.9c0.5-0.3,1-0.5,1.5-0.7h-10.5
		C453.9,274.5,454,274.7,454.1,274.8z"/>
	<path fill="#C8102E" d="M324.8,301.9c-0.9,1.6-1.3,1.9-2.9,2c-1.8,0.1-3.3,1.3-2.5,2.1c0.2,0.2,1.3,0.4,2.4,0.4s2.2,0.1,2.4,0.3
		c0.9,0.9,1.9,0.3,2.4-1.5c0.7-2.3,0.7-3.4-0.1-4.4C326,300.1,325.8,300.2,324.8,301.9z"/>
	<path fill="#FFFFFF" d="M274.3,205.7V60.6c-4.2,8.2-8.7,15.4-12.3,19.9c-2.6,3.2-10.9,10.4-13.2,11.4c-0.6,0.2-2.1,0.6-3.5,0.7
		c-1.4,0.2-3.5,0.9-4.7,1.5c-1.9,0.9-2.9,1.1-8.1,1.1c-3.4,0-6.3-0.2-7-0.5c-0.7-0.3-2-0.7-3-0.8c-1-0.2-2.4-0.7-3-1.1
		c-0.7-0.5-1.3-0.5-1.5-0.2c-0.2,0.2-1.3,0.4-2.2,0.2c-1.5-0.2-2.2,0-5.3,2.2c-1.7,1.2-3.3,2.1-4.8,3v107.7H274.3z"/>
	<path fill="#FFFFFF" d="M205.7,274.3v156.2c3.4-1.1,9.8,0.5,13.1,3.3c1.3,1.1,1.6,1.1,5.6,0.8s4.4-0.2,5.9,0.8
		c0.9,0.7,2.4,1.3,3.3,1.5c2.2,0.5,2.8,1,2.5,2.5c-0.4,1.8,0.9,4.3,2.3,4.3c0.6,0,1.3,0.2,1.6,0.6c0.3,0.3,0.6,0.4,0.6,0.1
		c0-0.2,0.7-0.4,1.6-0.3c2.3,0.3,4.4-1,5.2-3.2c0.7-1.6,1-1.9,2.1-1.9c0.9,0,1.4,0.2,1.4,0.7c0,0.4,0.4,0.7,1.2,0.7
		c0.7,0,1.2-0.1,1.2-0.4c0-0.2,0.7-0.6,1.5-1c1.6-0.7,3.6-2.7,3.7-3.6c0-0.7,3.1-2.2,3.7-1.9c0.5,0.3,3.6-0.9,4-1.6
		c0.2-0.3-0.1-0.6-0.7-0.7c-1.5-0.4-1.2-1.4,0.4-1.2c0.9,0.1,1.7,0.7,2.2,1.5c0.5,0.8,1.2,1.4,1.8,1.4c0.9,0,0.9,0,0.1,0.7
		c-1.1,0.8-1.1,1.5,0.1,2.6c0.6,0.6,1.5,0.9,2.6,0.9c0.7,0,1.2,0.1,1.6,0.4v-20.7c-0.7-0.3-1.4-0.6-1.8-0.9c-0.7-0.4-1.8-1-2.5-1.4
		c-0.7-0.3-1.7-1.4-2.2-2.4c-1.1-2.2-3-3.3-3.9-2.2c-0.3,0.4-1.6,1.3-3,2c-3.9,2-8.2,1.6-8.8-0.8c-0.5-2,0.5-2.7,3.6-2.3
		c2.6,0.3,2.7,0.3,4.6-1.6c2-2,2.4-3.6,1.3-5c-1.5-1.9-3.4-3.5-4.3-3.5c-0.5,0-1.2-0.2-1.6-0.4c-1-0.6,0.2-1.1,1.8-0.7
		c1.5,0.3,2.8-0.1,2-0.7c-0.7-0.5-1.9-3.2-1.6-3.6c0.3-0.4,1.1-1,3.5-2.4c0.7-0.4,1.9-1.3,2.6-1.8c1.7-1.4,3.1-1.4,3.8,0.1
		c0.7,1.5,1.2,1.5,3.2,0c0.9-0.7,2-1.2,2.5-1.2c0.7,0,0.8-0.2,0.5-2.2c-0.2-1.4-0.2-1.9,0.3-2.6v-6.8c-0.2-0.1-0.4-0.3-0.6-0.4
		c-2.7-1.8-5.1-2.1-5.9-0.6c-0.3,0.5-0.8,0.9-1.2,0.9c-0.4,0-0.9,0.6-1.3,1.3c-0.4,0.8-1,1.4-1.8,1.5l-1.2,0.1l1.2-0.7
		c0.7-0.4,1.4-1.1,1.5-1.7s0.6-0.9,1.2-0.9c0.6,0,1-0.2,1-0.4c0-0.2,0.5-0.8,1-1.5c0.7-0.7,1.1-0.9,1.5-0.6c0.3,0.3,1,0.5,1.6,0.5
		h1.1l-1.2-1.9c-0.7-1-1.5-1.9-1.8-1.9c-0.3,0-0.1-0.2,0.3-0.5c0.5-0.3,0.8-1,0.8-2.1c0-2.2-0.6-3.2-2.3-3.9
		c-1.6-0.7-1.6-0.8-0.7-2.1c1.1-1.4,0.8-3.3-0.5-5c-1.1-1.3-1.2-1.6-0.7-2.6c0.4-0.9,0.7-1.1,1.5-0.9c0.5,0.1,1.4,0,2-0.3
		c1.4-0.7,4.1-3.5,4.1-4.2c0-0.3-1.1-1.6-2.5-3c-1.8-1.8-2.9-2.6-3.7-2.6c-0.7,0-1.3,0.2-1.5,0.4c-0.3,0.5-5.9,0.5-5.9,0
		c0-0.2,1.1-0.4,2.3-0.4c2.1,0,2.3-0.1,2.3-1c0-0.5-0.2-1.4-0.5-1.9c-0.3-0.5-0.4-1-0.3-1.1c0.5-0.5,2.6,0.4,2.8,1.2
		c0.3,1.2,3.6,1,4.4-0.3c0.5-0.7,1.2-1,2.2-1c0.2,0,0.4,0,0.6,0v-22.4c-0.4-0.2-0.8-0.5-1.1-0.9c-0.9-1.1-1.5-1.3-4.6-1.5
		c-2.2-0.1-3.8-0.5-4.1-0.8c-0.7-0.8-0.2-1,4.2-1.5c2.6-0.3,3.7-0.2,4.6,0.2c0.4,0.2,0.7,0.3,1.1,0.4v-38.3H205.7z"/>
	<path fill="#FFFFFF" d="M273,411c-1.1,0.5-1.9,1.1-1.9,1.3c0,0.2,0.8,0.8,1.7,1.4c0.5,0.3,1,0.6,1.6,0.7v-4.2
		C274,410.4,273.5,410.7,273,411z"/>
	<path fill="#FFFFFF" d="M274.2,340c-1.5,0.1-1.5,0.1-1.5,2.6c0,2.2,0.8,3.8,1.6,3.8L274.2,340C274.3,340,274.3,340,274.2,340z"/>
	<path fill="#FFFFFF" d="M271,407.3c0,0.3-0.3,0.5-0.7,0.5c-0.5,0-0.7,0.5-0.7,1.4c0,1.3,0.1,1.4,1.5,1.4c0.8,0,1.8-0.2,2.4-0.5
		c0.3-0.2,0.6-0.3,0.8-0.3V405C272.6,405.7,271,406.7,271,407.3z"/>
	<path fill="#FFFFFF" d="M449.4,274.1c0-1.4-0.2-2.1-0.7-2.3c-0.9-0.3-0.9-0.3-4.7,2.4c0,0-0.1,0-0.1,0.1h5.6
		C449.4,274.2,449.4,274.2,449.4,274.1z"/>
	<path fill="#FFFFFF" d="M346.6,268.5l-1.7,1.7c-1.6,1.6-1.8,1.8-1.7,4.1h4.4c-0.2-0.8-0.4-1.7-0.5-2.8L346.6,268.5z"/>
	<path fill="#FFFFFF" d="M418.6,273.6c-3.2-0.4-8.4-2.7-10.6-4.8c-1-0.9-1.6-1.4-1.5-1c0.2,0.4,0.5,1.4,0.7,2.3
		c0.2,1.4,0.6,1.8,2.4,2.8c0.7,0.4,1.7,0.9,2.5,1.4h10.6C421.2,274,419.6,273.7,418.6,273.6z"/>
	<path fill="#FFFFFF" d="M515.7,259.1c-3.1-2.7-5.3-3.7-13.1-5.6c-1.8-0.5-3.8-1.3-4.5-1.9c-0.7-0.6-1.9-1.3-2.6-1.6
		c-2.1-0.7-6.3-0.5-9.9,0.7c-3.4,1.1-5.7,2.6-16.6,11.3c-7.1,5.6-10.8,8.1-14.4,9.6c-2.4,1-2.8,1.3-2.1,1.5c0.4,0.1,0.9,0.6,1.2,1.2
		h10.5c1.3-0.5,2.4-0.9,2.7-0.8c0.2,0,0.4,0.3,0.7,0.8h44.1c0.8-2.7,2.3-5,4.2-6.5c2.2-1.7,2.7-2.5,2.7-4.8
		C518.7,262.1,518,261.1,515.7,259.1z"/>
	<path fill="#FFFFFF" d="M205.7,205.7h-63.2c0.1,9.6,0.3,19.5,0.5,22.8c0.3,5.6,0.2,7.3-0.9,14.7c-0.7,4.6-1.4,10.9-1.5,13.9
		c-0.2,4.7-0.1,6,0.8,9.4c0.6,2.2,1.4,4.9,1.9,6.1c0.2,0.4,0.3,1,0.5,1.8h62h68.6h47.3c0-1.1-0.1-2.1-0.2-2.7
		c-0.2-1.3-0.1-2.2,0.2-2.6c0.3-0.3,0.5-0.9,0.5-1.4c0-0.4,0.3-1,0.7-1.2c0.6-0.3,0.7-0.6,0.2-1.4c-0.3-0.5-0.5-1.7-0.5-2.7
		c0-0.9-0.2-2.2-0.5-2.7c-0.3-0.5-0.9-2.5-1.4-4.4c-0.5-1.9-1.3-4.3-1.8-5.3c-0.9-1.7-0.9-2.2-0.4-4.8c0.6-2.9,2-5.2,3.8-5.8
		c0.5-0.1,1.4-1.3,2-2.6c0.8-1.5,1.5-2.3,2.1-2.3c1.3,0,2-1.1,2.3-3.6c0.3-1.9,0.5-2.3,1.7-2.7c1.7-0.6,2.1-1,1.8-2.1
		c-0.2-0.7,0.2-0.8,1.7-1.1c2.6-0.3,3.7,0,4,1.4c0.3,1.2,1.2,1.5,2,0.7c0.3-0.3,0.8-0.1,1.6,0.6l1.2,1.1l-1.1,0.1
		c-0.6,0.1-1,0.5-1,0.8c0,0.4-0.7,1.5-1.6,2.5c-1.9,2.1-2,2.4-0.7,2.4c0.6,0,0.9,0.5,1.2,1.5c0.4,2.1-1,2.9-2.8,1.6
		c-0.7-0.6-0.8-0.7-0.3-1.4c1.1-1.3-1.3-0.9-2.6,0.4c-0.6,0.7-1.5,1.2-2.2,1.3c-0.6,0-1.4,0-1.8,0.1c-1.1,0.1-1.1,1.5,0,1.9
		c0.6,0.2,1.1,0.8,1.3,1.9c0.4,2.3,1.1,2.7,3.5,2.1c1-0.3,2-0.8,2.2-1.2c0.5-1.2,2-1.3,3.7-0.2c0.9,0.6,1.8,0.9,2.1,0.7
		c0.8-0.5,1.3,0.2,1,1.5c-0.2,0.9-0.7,1.3-1.7,1.5c-0.8,0.1-1.4,0.6-1.5,1.1c-0.2,0.8,2.4,6.9,2.9,6.9c1,0,3.1-1.6,3.3-2.6
		c0.4-1.6-0.1-5.3-1-6.6c-0.9-1.4-0.5-3.1,1.4-5.5c0.8-1,1.8-2.4,2.2-3.1c1.5-2.3,6.9-1.9,6.9,0.5c0,0.5-0.7,1.5-1.5,2.3
		c-1.6,1.6-1.5,2.6,0.2,4.8c0.5,0.7,1.4,1.8,1.8,2.5c0.7,0.9,1.2,1.2,2.1,1.1c1-0.1,1.4-0.6,2.1-2.7c0.5-1.4,0.9-3.9,0.9-5.6
		c0-2.7,0.2-3.3,1.4-4.8c0.8-1,2-2,2.7-2.3c0.7-0.4,1.8-1.8,2.7-3.5c0.8-1.6,2-3.5,2.7-4.2c0.7-0.7,2.2-2.5,3.3-4l2.1-2.7l0.3-5.9
		c0.2-2.9,0.3-4.8,0.6-6.1H274.3H205.7z"/>
</g>
</svg>
