<?xml version="1.0" encoding="utf-8"?>
<!-- Generator: Adobe Illustrator 17.1.0, SVG Export Plug-In . SVG Version: 6.00 Build 0)  -->
<!DOCTYPE svg PUBLIC "-//W3C//DTD SVG 1.1//EN" "http://www.w3.org/Graphics/SVG/1.1/DTD/svg11.dtd">
<svg version="1.1" id="flag-icon-css-dm" xmlns="http://www.w3.org/2000/svg" xmlns:xlink="http://www.w3.org/1999/xlink" x="0px"
	 y="0px" viewBox="0 0 640 480" enable-background="new 0 0 640 480" xml:space="preserve">
<g>
	<path fill="#108C00" d="M437.6,330.9c-0.2-0.9-1.2-3.5-2.2-5.7c-1.5-3.3-1.8-4.4-1.6-6.1c0.1-1.4-0.1-3-0.7-4.6
		c-0.5-1.4-0.9-3.2-0.9-4c0-0.3-0.1-1.3-0.2-2.6c-11.5,19.1-27.8,35-47.2,45.9V439c0.8,0.5,1.4,1.1,1.6,1.8c0.1,0.7,0.8,1.5,1.4,1.9
		c1,0.6,1.3,0.6,4.1-1.1c2.7-1.6,3.3-1.8,6.1-1.8c1.7,0,4,0.2,5.1,0.5c1.7,0.4,2.5,0.3,5.9-0.9c2.1-0.8,4.3-1.4,4.7-1.4
		c0.5,0,2.1-1.3,3.7-3c2.2-2.4,3.1-3.1,4.7-3.4l2-0.4l0.4-4c0.2-2.2,0.5-5.4,0.6-7s0.5-3.2,0.7-3.5c0.2-0.3,0.4-2.4,0.4-4.9
		c0-3.9,0.1-4.6,1.3-6.6c1.1-1.9,1.3-2.7,1.3-6.2v-4l4.6-2.4c2.6-1.4,4.8-2.6,5.1-2.9c0.2-0.2,0-0.9-0.6-1.7c-1-1.2-1-1.5-0.5-4.3
		l0.6-3.1l-1.5-1.2c-1.6-1.4-1.8-2.3-0.6-3.6c0.7-0.8,0.7-0.9,0-1.7c-1.1-1.2-1-2.3,0.1-2.7c0.8-0.2,0.9-0.7,0.9-3.1
		c0-2,0.3-3.4,1-4.8c0.8-1.5,1.1-3.1,1.3-7.1c0.3-4.6,0.5-5.4,1.6-7.5c1.9-3.2,1.7-5.8-0.9-11.7
		C438.9,334.6,437.8,331.8,437.6,330.9z"/>
	<path fill="#108C00" d="M249.9,133.9l0-124.1c-0.4-0.2-0.8-0.5-1.1-0.7c-2.1-1.1-2.8-1.8-2.8-2.5c0-0.6-0.8-1.7-2-2.7
		c-1.1-0.9-2.6-2.3-3.3-3c-1.2-1.1-1.4-1.1-2.2-0.4c-1,0.9-5.6,1-9,0.2C226.4,0,225.7,0,218,0.1c-5.6,0.1-7.1,0.3-7.4,0.8
		c-0.4,0.8-4.4,0.9-7.8,0.2c-1.8-0.3-2.3-0.2-3.6,0.7c-1.8,1.4-4.2,7.7-6.5,17.2l-1.6,6.9l1.1,3.8c1,3.6,1.1,3.8,0.2,4.6
		c-1,1.1-0.7,3.4,0.6,3.8c0.5,0.1,1.5,1.4,2.3,2.9l1.4,2.7l-1,2.8c-0.6,1.5-1.8,3.9-2.8,5.4l-1.7,2.7l-5.5,0.3
		c-6.8,0.4-7.1,0.7-7.1,5.6c0,3,0.1,3.4,1.1,4.1c1,0.7,1.4,0.8,3.4,0.3c1.2-0.3,3-0.9,4-1.4c5-2.5,8.7-1.3,12.8,4.1l2.6,3.4v4.2
		c0,4.1,0,4.2-2.1,7.5c-1.5,2.4-2.1,3.9-2.3,5.8c-0.3,3.1-1.6,5.7-4.7,9.6l-2.4,3l-3.1-0.2l-3.2-0.2l-1.5,2.3
		c-0.8,1.3-1.8,2.3-2.3,2.3c-0.5,0-1.4,1.2-2.4,3.4c-1.6,3.4-1.6,3.5-1.1,6.1c0.3,1.5,0.7,2.8,0.8,2.8c0.1,0.1,1.3,0.9,2.7,1.9
		l2.4,1.8v3.4c0,3.3,0.1,3.5,1.4,4.4c1.1,0.8,1.4,1.5,1.7,3.6c0.2,2.2,0.7,3,2.1,4.6c1.7,1.8,1.8,2.2,2.3,6.6c0.5,4.1,0.4,5-0.2,6.8
		c-0.4,1.2-1.1,3.2-1.4,4.6l-0.7,2.5l1.9,4c1.1,2.3,1.8,4.5,1.7,5.4h24.2C225.2,154.3,236.6,142.9,249.9,133.9z"/>
	<path fill="#108C00" d="M427.8,167.5h6.1c0.4-2.4-0.1-4.8-1.1-4.8c-0.5,0-1.5-0.7-2.3-1.6c-1.4-1.5-1.5-1.8-1.4-3.9l0.2-2.3
		l-3.1-2.1c-2.8-2-3.1-2.3-2.9-3.7c0-0.9,0.5-2.3,0.9-3.1c0.7-1.4,0.8-1.8,0.2-4.5c-0.7-3.1-0.7-3.6-0.2-5.9
		c0.2-1.2,0.1-1.6-0.9-2.3c-1.2-0.8-1.3-0.8-2.1,0c-0.7,0.6-1.1,0.7-1.8,0.3c-0.5-0.2-2-0.6-3.4-0.8c-2-0.3-2.9-0.1-4.7,0.8
		c-2.1,1-2.3,1-3.7,0.3c-1.6-0.8-2-2.1-2-6.2c0-1.8,0.3-2.9,1-3.8c1.2-1.5,1.9-6.7,1.5-10.1c-0.3-2.8-1.5-4.3-3.7-4.7
		c-0.8-0.1-1.9-0.7-2.3-1.1c-0.7-0.8-1-0.8-2.5-0.3c-1.2,0.4-2.4,0.5-4,0.2c-4.5-0.8-4.5-0.8-4.5-2.3c0-1.2-0.4-1.7-2.1-2.8
		c-1-0.6-2.5-2.2-4-4v29.6C402,137.9,416.7,151.4,427.8,167.5z"/>
	<path fill="#FFD600" d="M191.8,167.5C191.8,167.5,191.9,167.6,191.8,167.5c0,1.2,0.8,2.7,3.9,7.2c3.4,4.7,4.1,6,4.4,8
		c0.2,1.3,1.3,5.1,2.4,8.4c0.1,0.3,0.2,0.5,0.3,0.8c3.5-8.6,8-16.8,13.2-24.4H191.8z"/>
	<path fill="#FFD600" d="M441.1,192c0.4-0.3-0.2-1.5-1-2.1C440.5,190.6,440.8,191.3,441.1,192C441.1,192,441.1,192,441.1,192z"/>
	<path fill="#FFD600" d="M438.4,186c0-0.2,0-0.3,0-0.5c0-3.3,0-3.5-1.1-3.8c-1.5-0.4-2.3-3.8-1.6-6.6c0.5-1.8,0.4-2.1-0.8-3.8
		c-1.1-1.5-1.3-2.3-1.1-3.6c0,0,0-0.1,0-0.1h-6.1C431.8,173.3,435.4,179.5,438.4,186z"/>
	<path fill="#FFD600" d="M293.8,114.9V47.4c-0.2,0.3-0.3,0.6-0.5,1.1l-0.6,1.7l-1.1-1.1l-1.1-1l-1.1,1l-1.1,1.1l-0.3-1.5
		c-0.4-1.7-0.7-1.8-1.9-0.5c-1,1.1-2.7,1.2-3.6,0.2c-0.6-0.7-0.7-0.6-1.6,0.6c-0.8,1-1.2,1.2-1.7,0.8c-0.4-0.3-1.3-0.5-2.2-0.3
		c-1.4,0.3-1.5,0.3-1.5-1.4c0-1.4-0.3-1.9-1.5-2.8c-1.3-0.9-1.5-1.3-1.4-2.6c0.1-1.3,0-1.6-1.1-2.1c-0.7-0.3-1.6-1.4-2.2-2.3
		c-0.7-1.3-1.3-1.9-2.3-2.1c-1.1-0.2-1.6-0.8-2.6-2.5c-0.6-1.3-1.1-2.9-1.1-3.7c0-1.9-0.8-3.3-1.8-3.3c-2.3,0-5.7-5.9-5.7-9.7
		c0-1.8-2.7-5-5.9-7.1l0,124.1C263,125,277.9,118.4,293.8,114.9z"/>
	<path fill="#FFD600" d="M278.3,362.6L278.3,362.6l-0.7,4.9c-1.2,8.4-1.2,8.7,0.3,11.6c1.7,3.4,3.4,4.9,6.7,6.1
		c3.4,1.2,6.6,3.9,8.7,7.7l0.5,1v-26.8C288.5,366,283.3,364.5,278.3,362.6z"/>
	<path fill="#FFD600" d="M292.6,413.8c-0.9,1.9-1.2,3.1-1.2,5.7c0,2.9,0.3,4.2,2.3,9.3c0,0.1,0.1,0.2,0.1,0.3v-19.2
		C293.6,411.7,293.3,412.6,292.6,413.8z"/>
	<path d="M321.9,370.3c-9.7,0-19.1-1.1-28.1-3.1v26.8l1,1.8l-0.5,7.8c-0.2,3-0.4,4.9-0.5,6.2v19.2c1.5,4,2.3,6.7,2.5,9.1
		c0.2,2.7,0.6,3.9,1.6,5.4c1.7,2.4,6.1,5.9,9.6,7.7l2.7,1.3l-0.3,2.8c-0.2,1.8-1.1,4.5-2.5,7.7c-1.2,2.7-2.6,5.9-3.1,7.1
		c-0.8,2-1,2.3-2.3,2.3c-0.9,0-1.8-0.4-2.5-1.2c-1.2-1.3-3.3-1.6-3.3-0.5c0,2.5,2.3,4.5,5.2,4.5c1,0,2,0.5,3.3,1.6
		c1.7,1.5,2.1,1.6,4.9,1.6c2.3,0,3.6,0.3,4.9,1c1.6,0.9,1.8,0.9,3.2,0.2c0.8-0.4,2.3-0.8,3.2-0.8c1,0,2.3-0.3,2.9-0.8
		c0.8-0.6,1.7-0.7,3.7-0.5c2.3,0.2,2.8,0.1,4-0.9c1.1-0.9,1.9-1.2,3.3-1.1c1.1,0.1,2.8-0.1,3.8-0.4c0.2-0.1,0.4-0.1,0.7-0.2V369.1
		C333.6,369.9,327.8,370.3,321.9,370.3z"/>
	<path d="M321.9,111.8c5.9,0,11.7,0.4,17.4,1.2V53.7c-0.6-0.3-0.6-1.3,0-2.9v-2.3l-0.6-0.1c-0.8-0.1-1.8-0.5-2.3-0.8
		c-0.6-0.4-1.2-0.3-2.5,0.3c-1.7,0.8-1.7,0.8-2.7-0.1c-1.4-1.2-1.6-1.2-3.4,0.5c-1.4,1.4-1.9,1.5-5.9,1.9c-2.4,0.2-5.2,0.5-6.1,0.6
		c-1.6,0.2-1.9,0-2.8-1.4c-0.8-1.3-1.3-1.6-2.5-1.6c-0.8,0-1.8-0.3-2.1-0.6c-0.3-0.4-1.1-0.6-1.9-0.4c-1.3,0.2-1.4,0.1-1.4-1.5
		c0-2.4-1.4-2.5-3.6-0.2c-1.4,1.4-2.1,1.8-3.2,1.7c-2.8-0.2-3.8-0.1-4.4,0.7v67.5C302.9,112.8,312.3,111.8,321.9,111.8z"/>
	<path fill="#FFFFFF" d="M384.9,128.3V98.6c-2-2.5-3.8-5.3-3.8-6.3c0-0.6-0.6-2.2-1.4-3.5c-0.9-1.7-1.4-3.3-1.6-5.7
		c-0.2-2.5-0.4-3.4-1.1-3.8c-0.5-0.2-1.3-1-1.8-1.6c-0.5-0.6-1.7-2-2.7-3.1l-1.8-1.9l0.3-3.7c0.3-2.9,0.5-3.8,1.2-4.2
		c1.4-0.7,1.1-2.4-0.8-4.8l-1.8-2.2h-4.2c-3.7,0-4.4-0.1-5.3-1c-1.4-1.3-3.3-0.9-4,0.8c-0.3,0.7-0.8,1.2-1,1.2
		c-1.6,0-7.7-1.5-8.3-2.2c-0.4-0.4-1.3-0.7-2-0.7c-0.8,0-1.9-0.5-2.7-1.2c-0.8-0.7-1.8-1.2-2.3-1.2c-0.2,0-0.3,0-0.4-0.1v59.3
		C355.7,115.2,371.1,120.5,384.9,128.3z"/>
	<path fill="#FFFFFF" d="M339.3,369.1v106.2c1-0.2,2.1-0.5,2.9-0.6c2.2-0.3,2.4-1.1,1.7-4.6c-0.6-2.8-0.6-2.9,0.6-3.6
		c0.6-0.4,2.2-1.8,3.6-3c2-1.9,3-2.4,5.8-3.1c1.9-0.5,4.5-1.5,5.9-2.2l2.5-1.3v-2.6c0-1.8,0.3-2.9,0.9-3.8c0.5-0.7,0.9-1.9,0.9-2.8
		c0-2.2,2-7,3.4-8.1c0.6-0.5,2.1-1.2,3.2-1.5c1.9-0.7,2.3-0.7,3.5,0c1.5,0.8,4.4,0.9,6.7,0.2c1.2-0.3,2.7,0,3.8,0.7v-85.2
		C371.1,361.5,355.7,366.9,339.3,369.1z"/>
	<path fill="#FFFFFF" d="M339.5,50.3l0.7-1.6l-0.9-0.2v2.3C339.4,50.6,339.5,50.5,339.5,50.3z"/>
	<path fill="#E72910" d="M430.3,213.7c0.5-0.7,1.1-1.4,2-2.3c2.2-1.9,2.3-2.3,1.8-3.2c-0.3-0.6-0.5-1.1-0.4-1.1
		c0.1,0,0.7-0.3,1.4-0.6c1.1-0.5,1.3-0.9,1.6-3.5c0-0.2,0-0.4,0.1-0.6c-3.6,2.8-8.2,6.4-8.2,6.4L430.3,213.7z"/>
	<path fill="#E72910" d="M333.3,197.5c-0.3-0.3-0.6-0.6-0.8-0.9c-0.3,0.2-0.6,0.3-0.8,0.5c0.2,0.5,0.4,1,0.4,1.5
		c0,0.7-0.3,1.4-0.8,2c1.7,0.1,3.1,1.2,3.5,2.5c0.1-0.1,0.1-0.2,0.2-0.3C333.5,201.6,332.4,199.2,333.3,197.5z"/>
	<path fill="#E72910" d="M321.9,370.3c5.9,0,11.7-0.4,17.4-1.2c16.4-2.2,31.8-7.5,45.6-15.3c19.4-11,35.7-26.8,47.2-45.9
		c-0.1-1.7-0.4-3.9-0.6-6.2l-0.8-7.3l1-1.4c0.9-1.3,1.4-1.5,4.1-1.7c1.7-0.2,3.2-0.4,3.4-0.6c0.1-0.1-0.1-0.6-0.5-1
		c-0.4-0.5-0.8-1.6-1-2.6c-0.3-1.5-0.5-1.7-1.5-1.7c-0.6,0-2.1-0.5-3.1-1.2l-2-1.2l-0.1-3.6c0-2,0.1-3.9,0.3-4.2
		c0.4-0.6,3.2-1.5,6.2-1.9c0.4-0.1,0.8-0.3,1.3-0.5l-13.7,0.2H425l-5.3,15l-4.7-14.9c0,0-14.9-0.4-16.1-0.2c-0.1,0-0.1,0-0.1,0
		c0,0,0,0,0.1,0c1.1-0.6,12.6-9.7,12.6-9.7l-5.6-16.5c0.2,0.5,13.8,10.2,13.8,10.2s12.8-8.9,13.6-9.6c0,0,0-0.1,0-0.1c0,0,0,0,0,0.1
		c-0.3,0.6-1.9,5.4-3.2,9.7c0-0.1,0.1-0.1,0.1-0.1c0.4-0.7,1.5-1.7,2.6-2.3c2.5-1.4,2.9-3.3,1.5-7c-1-2.8-2.4-9.4-2-10.1
		c0.1-0.2,0.5-0.3,0.9-0.3c1.1,0,1.7-2.2,1-3.4c-0.3-0.6-0.8-1.8-1.1-2.7c-0.6-1.8-0.1-1.6-5.8-1.8l-2.1,0l0.3-3
		c0.2-2.1,0.7-3.2,1.5-4.1c0.3-0.3,0.6-0.8,0.9-1.5c-3.6-2.6-7.3-5.3-7.3-5.3s-12.8,9-13.6,9.7c0,0,0,0.1,0,0.1c0,0,0,0,0-0.1
		c0.6-1,5.2-15.9,5.2-15.9l-12.5-9.6l15.6-0.3v0.1l5.3-15l4.7,14.8c0,0,7.1,0.2,11.9,0.3c0-0.7-0.1-1.5-0.3-2.8l-0.3-2.2l2.3-1
		c1.1-0.5,2.1-1,2.4-1.1c-0.3-0.7-0.6-1.5-0.9-2.2c-0.2-0.2-0.4-0.3-0.6-0.4c-1-0.4-1.1-0.6-1.1-3.5c-3-6.5-6.6-12.6-10.6-18.5
		c-11.1-16.1-25.8-29.6-42.9-39.2c-13.8-7.8-29.2-13.1-45.6-15.3c-5.7-0.8-11.5-1.2-17.4-1.2c-9.7,0-19.1,1.1-28.1,3.1
		c-16,3.6-30.8,10.1-44,19.1c-13.2,9-24.7,20.4-33.8,33.6c-5.2,7.6-9.7,15.8-13.2,24.4c1.8,5.1,2.1,5.6,5,8.6
		c2.4,2.4,3.5,4.1,4.4,6.3c0.7,1.7,1.2,3.2,1.2,3.5c0,0.3-0.7,1.3-1.4,2.2c-1.6,1.8-1.7,2.4-0.7,5.2c0.4,1,0.8,1.9,1.5,2.7
		c1.4-3.9,4.7-14.5,4.7-14.5l-12.5-9.4l15.6-0.3l5.3-15l4.8,14.9c0,0,14.8,0.4,16,0.2c0,0,0.1,0,0.1,0c0,0,0,0-0.1,0
		c-1,0.6-12.6,9.7-12.6,9.7l5.7,16.5c-0.3-0.5-13.9-10.2-13.9-10.2s-9.3,6.4-12.5,8.7c1.1,1.2,2.9,2.6,5.7,4.6
		c6,4.3,6.4,4.8,6.7,8.2c0.2,2.7,0.4,3.2,4.9,9.7l4.7,6.9l0,0.3c2.7-1.9,5-3.5,5-3.5c-0.1,0-3.1,9-4.5,13.5c0,1-0.2,1.8-0.3,2.3
		c0,0.1-0.1,0.3-0.1,0.4l12.1,9.2l-8.7,0.2c0.3,1.4,2,3,6,5.7c4.8,3.2,6.5,5,6.9,7.1c0.2,0.9,0.8,2,1.6,2.5c2,1.5,4.6,5.8,5.6,9.2
		c0.9,3.4,2.4,5.5,6.8,9.4c1.7,1.5,2.6,2.6,3.5,4.2c1.5,0,2.6,0,2.9,0c0,0,0,0,0,0c0,0,0,0,0,0c-0.2,0.1-1,0.7-2.1,1.5
		c0.2,0.4,0.4,0.8,0.6,1.3c1.7,3.6,1.9,4.5,1.6,6.3c-0.3,2,0.7,10.2,1.6,13.4c0.3,1.2,0,2.2-1.4,5.4c-2.1,4.6-2.2,5.7-0.9,12.1
		c0.7,3.2,1.2,4.9,1.9,5.4c0.5,0.4,1.7,2,2.8,3.7l1.9,2.9c5,1.8,10.2,3.3,15.5,4.5C302.9,369.2,312.3,370.3,321.9,370.3z
		 M325.4,352.8l-5.3,15l-4.7-14.9c0,0-15.3-0.4-16.1-0.3c0,0,0,0,0,0c0,0,0,0,0,0c0.8-0.4,12.6-9.7,12.6-9.7l-5.6-16.4
		c0.2,0.5,13.8,10.2,13.8,10.2s12.8-8.9,13.6-9.6c0,0,0-0.1,0-0.1c0,0,0,0,0,0.1c-0.6,1-5.2,15.9-5.2,15.9l12.5,9.5L325.4,352.8z
		 M347.2,288.3c-0.3-0.2-0.6-0.4-1-0.6c-0.7,1.3-1.5,2.2-2.3,2.2c0,0.1,0,0.3,0,0.4c-0.1,0.6-0.1,1.3-0.3,1.9
		c0.6,0.4,1.1,0.9,1.1,1.7c0,1-0.9,1.4-2.2,1.4c-0.2,0.3-0.4,0.6-0.6,0.9c-1.1,3.1-2.3,4.9-3.7,5.1c-0.2,0-0.4,0-0.6-0.1
		c-0.8,3-1.8,4.7-2.8,4.8c-1.2,0.2-2.3-2.1-3.2-5.9c-0.6,1-1.3,1.6-2,1.7c-1.6,0.2-3.1-2.4-4.3-7c-0.3-0.4-0.6-0.9-0.9-1.5
		c-1.8-1.3-3.2-3.1-3.3-5.3c0-0.2,0-0.4,0.1-0.7c-0.6-0.8-1.1-1.9-1.5-3.2c-10.4,0.2-18.9,0.1-19.7-0.5c-2-1.4-4.9-6.8-4.9-7.2
		c5.9-0.3,3.3-3.2,6.3-4.9c2.9-1.6,7.1-0.6,8.4,1.4c1.3,2,0.3,3.9,2,3.9c0.3,0,2.6-0.1,5.9-0.3c-0.5-1.2-0.9-2.8-1.1-4.5
		c-0.4-3.9,0.5-7.2,2-7.9c-5.9-6.3-11.7-15.6-12.6-28.1c-0.8-13.1,1.7-22.1,4.3-27.8c0.1-0.6,0.4-1.2,0.8-1.6
		c2.4-4.6,4.8-6.6,4.8-6.6l0-0.1l7.6,1.3c0,0,1.8,2.1,4,6.4c0.1-0.4,0.3-0.9,0.6-1.2c-0.7-0.6-1.2-1.5-1.2-2.5c0-0.7,0.3-1.4,0.8-2
		c-1.8-0.1-3.2-1.2-3.5-2.7c-0.1,0-0.1,0-0.2,0c-4.9,0.7-9.3,0-12.2-1.8c-0.8,0.2-1.6,0.2-2.2,0.1c-0.4,0.7-0.7,1.5-0.9,2.4
		c-0.5-0.9-0.9-1.8-1.3-2.7c-0.2,0.3-0.5,0.5-0.8,0.5c-0.5,0-0.9-0.4-0.9-0.9c0-0.5,0.4-0.9,0.9-0.9c0.1,0,0.2,0,0.3,0.1
		c-1.1-3.3-0.7-5.6,0.6-6.9c0.1-2.6,1.2-5.3,3.1-6.8c3.7-2.9,10.7-3.8,16.1-0.9c1.1,0.6,2.4,1.6,3.9,2.8c5.6,0.3,15.2,10.2,20.6,10
		c-1.2,1.5-2.4,2.5-3.7,3.2c2.8,1.8,5.5,3.2,7.5,3.1c-1.3,1.7-2.7,2.7-4.1,3.4c2.2,1.3,4.2,2.2,5.9,2.1c-1.4,1.9-3,3-4.6,3.6
		c2.2,1.3,4.3,2.2,6,2.2c-7.8,9.9-19.3-0.9-21.3-2.6c-1.1-0.7-2.2-2.2-2.6-3.7c-0.1,0.2-0.2,0.3-0.3,0.5c0.7,0.6,1.2,1.5,1.2,2.5
		c0,1.9-1.8,3.4-4,3.3c-0.7,0-1.4-0.2-2-0.5c0.2,0.4,0.4,0.9,0.6,1.4c0.8,0.1,1.5,0.5,2.1,1c0.7-0.6,1.6-1,2.6-1
		c2,0,3.7,1.8,3.6,3.8c0,1.3-0.7,2.4-1.7,3.1c0.5,0.6,0.8,1.4,0.8,2.3c0,0.9-0.4,1.8-1.1,2.4c5.1,5.5,10.6,14.8,14.7,26.1
		c3.5,9.3,5.4,18.2,5.8,25.2c1.4,0.1,2.4,0.2,2.6,0.4c1.6,1.7,2,4.9,0.3,6.2c-0.2,0.2-1.3,0.4-3.2,0.5c-0.2,1.2-0.5,2.2-0.8,3.1
		c0.5,2.2,0.6,4.3,0.5,6.2c0,0.1,0.1,0.2,0.1,0.3c0.2,0,0.4,0,0.5,0c2.1,0,3.7,1.8,3.7,3.9c0,1.9-1.4,3.4-3.1,3.7
		c0,2.8-0.3,5.3-0.7,7.6C354.2,300.9,352.7,296.4,347.2,288.3z M396,310.6c0,0,15.3,0.4,16.1,0.3c0,0,0,0,0,0c0,0,0,0,0,0
		c-0.8,0.4-12.6,9.7-12.6,9.7l5.6,16.4c-0.2-0.5-13.8-10.2-13.8-10.2s-13.9,9.7-13.7,9.7s5.4-16,5.4-16l-12.5-9.4l15.6-0.3v-0.1
		l5.3-15L396,310.6z M365.7,137.5c0.2,0.5,13.8,10.2,13.8,10.2s12.8-8.9,13.6-9.6c0,0,0-0.1,0-0.1c0,0,0,0,0,0.1
		c-0.6,1-5.2,15.9-5.2,15.9l12.5,9.4l-15.6,0.3l-5.3,15l-4.7-14.8c0,0-15.3-0.4-16.1-0.3c0,0,0,0,0,0c0,0,0,0,0,0
		c0.8-0.4,12.6-9.7,12.6-9.7L365.7,137.5z M315.2,128.7L315.2,128.7l5.3-14.9l4.8,14.8c0,0,14.8,0.4,16,0.2c0.1,0,0.1,0,0.1,0
		c0,0,0,0-0.1,0c-1.1,0.6-12.6,9.7-12.6,9.7l5.7,16.5c-0.2-0.5-13.9-10.2-13.9-10.2s-12.8,9-13.6,9.7c0,0,0,0.1,0,0.1c0,0,0,0,0-0.1
		c0.6-1,5.2-15.9,5.2-15.9l-12.5-9.5L315.2,128.7z M247.3,139.1c0.2,0.5,13.8,10.2,13.8,10.2s13.9-9.7,13.7-9.7s-5.3,16-5.3,16
		L282,165l-15.5,0.4l0-0.1l-5.3,15l-4.9-14.8c0,0-15.1-0.4-15.9-0.3c0,0,0,0,0,0c0,0,0,0,0,0c0.8-0.4,12.6-9.7,12.6-9.7L247.3,139.1
		z"/>
	<path fill="#E72910" d="M439.8,272c1.4-1,2.8-2.2,2.8-2.8c0-0.2-0.6-1.3-1.2-2.3c-0.9-1.5-1.1-2.3-0.9-3.5c0.2-1.3,0.1-1.5-1-2.2
		c-0.8-0.3-1.5-0.7-1.6-0.8c-0.1-0.1-0.5,0.3-0.8,0.9l-0.5,1.1l-3.8-0.8c-1.8-0.3-3.3-0.8-3.9-1.2c-0.5,1.5-0.8,2.5-0.8,2.5
		L439.8,272z"/>
	<path fill="#E72910" d="M322.4,267.8c0,0.1,0,0.1,0.1,0.2C322.5,268,322.5,268,322.4,267.8C322.4,267.9,322.4,267.9,322.4,267.8z"
		/>
	<path d="M306.8,154.4C306.8,154.4,306.8,154.4,306.8,154.4C306.8,154.4,306.8,154.4,306.8,154.4z"/>
	<path d="M306.8,154.4c0.8-0.7,13.6-9.7,13.6-9.7s13.7,9.8,13.9,10.2l-5.7-16.5c0,0,11.6-9.1,12.6-9.7c-1.2,0.2-16-0.2-16-0.2
		l-4.8-14.8l-5.3,15l0-0.1l-15.6,0.3l12.5,9.5C312.1,138.5,307.4,153.4,306.8,154.4z M302.3,129.7l13.5-0.2l0.1-0.1l4.4-12.9
		l4.1,12.8c0,0,13.1,0.4,14,0.2c0,0,0,0,0,0c0,0,0,0,0,0c-0.7,0.4-11,8.4-11,8.4l4.9,14.3c-0.2-0.5-12-8.8-12-8.8
		s-11.3,7.9-11.8,8.4c0,0,0,0,0,0c0,0,0,0,0,0c0.4-0.5,4.7-13.9,4.7-13.9L302.3,129.7z"/>
	<path d="M341.2,128.7C341.3,128.7,341.3,128.7,341.2,128.7C341.3,128.7,341.3,128.7,341.2,128.7z"/>
	<path fill="#FFE700" d="M338.4,129.5C338.5,129.5,338.5,129.5,338.4,129.5C338.5,129.5,338.5,129.5,338.4,129.5z"/>
	<path fill="#FFE700" d="M308.5,151.9c0.6-0.5,11.8-8.4,11.8-8.4s11.8,8.4,12,8.8l-4.9-14.3c0,0,10.2-8,11-8.4
		c-0.9,0.1-14-0.2-14-0.2l-4.1-12.8l-4.4,12.9l-0.1,0.1l-13.5,0.2l10.9,8.3C313.2,138,308.9,151.3,308.5,151.9z M310.1,131.8
		l7.7-0.2l2.6-7.5l2.4,7.4c0,0,7.2,0.2,7.9,0c0,0,0.1,0,0.1,0c0,0,0,0-0.1,0c-0.7,0.4-6.2,4.9-6.2,4.9l2.8,8.3c-0.1-0.3-7-5.1-7-5.1
		l-6.8,4.9c0.2,0,2.6-8,2.6-8L310.1,131.8z"/>
	<path fill="#FFE700" d="M308.5,151.9C308.5,151.9,308.5,151.9,308.5,151.9C308.5,151.9,308.5,151.9,308.5,151.9z"/>
	<path fill="#108C00" d="M330.8,131.5C330.8,131.5,330.9,131.5,330.8,131.5C330.9,131.5,330.8,131.5,330.8,131.5z"/>
	<path fill="#108C00" d="M313.7,144.5l6.8-4.9c0,0,6.9,4.8,7,5.1l-2.8-8.3c0,0,5.5-4.5,6.2-4.9c-0.7,0.1-7.9,0-7.9,0l-2.4-7.4
		l-2.6,7.5l-7.7,0.2l6.2,4.7C316.3,136.5,313.9,144.5,313.7,144.5z"/>
	<path d="M420.5,184.1l-5.3,15V199l-15.6,0.3l12.5,9.6c0,0-4.7,14.9-5.2,15.9c0.8-0.7,13.6-9.7,13.6-9.7s3.7,2.7,7.3,5.3
		c0.2-0.3,0.3-0.7,0.5-1.1c-3.5-2.5-7.8-5.6-7.8-5.6s-11.3,7.9-11.8,8.4c0,0,0,0,0,0c0,0,0,0,0,0c0.3-0.5,4.6-13.9,4.6-13.9
		l-10.8-8.2l13.4-0.2h0l4.6-13.1l4.1,12.9c0,0,8.9,0.2,12.4,0.2c0-0.2,0-0.5,0-0.8c-4.8-0.1-11.9-0.3-11.9-0.3L420.5,184.1z"/>
	<path d="M429.8,214.8c0.2-0.4,0.3-0.7,0.5-1.1l-1.7-4.9c0,0,4.5-3.6,8.2-6.4c0.1-0.6,0.1-1.1,0.2-1.5c-3,2.3-9.5,7.4-9.5,7.4
		L429.8,214.8z"/>
	<path d="M406.8,224.8C406.8,224.8,406.8,224.8,406.8,224.8C406.8,224.8,406.8,224.8,406.8,224.8z"/>
	<path fill="#FFE700" d="M420.5,186.8l-4.6,13.1h0l-13.4,0.2l10.8,8.2c0,0-4.2,13.3-4.6,13.9c0.5-0.5,11.8-8.4,11.8-8.4
		s4.3,3.1,7.8,5.6c0.3-0.7,0.5-1.4,0.7-2.1c0.3-1,0.5-1.8,0.8-2.4l-2.3-6.5c0,0,6.5-5.1,9.5-7.4c0-0.4,0.1-0.7,0.1-1
		c-3.6,0-12.4-0.2-12.4-0.2L420.5,186.8z M430.9,202l-6.4,4.8c0,0,3,8.5,2.8,8.3c0-0.3-6.9-5.1-6.9-5.1l-6.9,4.8l2.6-8l-6.2-4.7
		l7.8-0.1l2.6-7.5l2.3,7.3C422.8,201.8,430.9,202.1,430.9,202z"/>
	<path fill="#FFE700" d="M408.6,222.1C408.6,222.1,408.6,222.1,408.6,222.1C408.6,222.1,408.6,222.1,408.6,222.1z"/>
	<path fill="#108C00" d="M420.5,194.5l-2.6,7.5l-7.8,0.1l6.2,4.7l-2.6,8l6.9-4.8c0,0,6.9,4.8,6.9,5.1c0.2,0.2-2.8-8.3-2.8-8.3
		l6.4-4.8c0,0.1-8.1-0.2-8.1-0.2L420.5,194.5z"/>
	<path d="M412.1,310.9C412.2,310.9,412.2,310.9,412.1,310.9C412.2,310.9,412.2,310.9,412.1,310.9z"/>
	<path d="M386,310.8L386,310.8l-15.6,0.4l12.5,9.4c0,0-5.2,16-5.4,16s13.7-9.7,13.7-9.7s13.6,9.7,13.8,10.2l-5.6-16.4
		c0,0,11.9-9.2,12.6-9.7c-0.8,0.1-16.1-0.3-16.1-0.3l-4.7-14.9L386,310.8z M395.4,311.3c0,0,12.6,0.4,13.8,0.2c0.1,0,0.1,0,0.1,0
		c0,0,0,0-0.1,0c-1.1,0.6-10.9,8.4-10.9,8.4l5,14.3c-0.2-0.5-12-8.8-12-8.8s-11.3,7.9-11.8,8.4c0,0,0,0,0,0c0,0,0,0,0,0
		c0.3-0.5,4.6-13.9,4.6-13.9l-10.8-8.2l13.4-0.3l0,0l4.6-13L395.4,311.3z"/>
	<path fill="#FFE700" d="M409.3,311.6C409.3,311.5,409.4,311.5,409.3,311.6C409.4,311.5,409.3,311.5,409.3,311.6z"/>
	<path fill="#FFE700" d="M386.7,311.5L386.7,311.5l-13.4,0.3l10.8,8.2c0,0-4.2,13.3-4.6,13.9c0.5-0.5,11.8-8.4,11.8-8.4
		s11.8,8.4,12,8.8l-5-14.3c0,0,9.9-7.8,10.9-8.4c-1.2,0.2-13.8-0.2-13.8-0.2l-4.1-12.8L386.7,311.5z M393.7,313.6
		c0,0,8.1,0.3,8.1,0.1s-6.4,4.9-6.4,4.9l2.8,8.2c0-0.2-6.9-5.1-6.9-5.1l-6.9,4.9l2.6-8l-6.2-4.7l7.8-0.2v0l2.6-7.5L393.7,313.6z"/>
	<path fill="#FFE700" d="M379.5,333.9C379.5,333.9,379.5,333.9,379.5,333.9C379.5,333.9,379.5,333.9,379.5,333.9z"/>
	<path fill="#108C00" d="M388.7,313.7L388.7,313.7l-7.8,0.2l6.2,4.7l-2.6,8l6.9-4.9c0,0,6.9,4.9,6.9,5.1l-2.8-8.2
		c0,0,6.4-5.1,6.4-4.9s-8.1-0.1-8.1-0.1l-2.3-7.4L388.7,313.7z"/>
	<path d="M272.3,310.9C272.3,310.9,272.3,310.9,272.3,310.9C272.3,310.9,272.3,310.9,272.3,310.9z"/>
	<path d="M269.4,310.9c0.3,0.5,0.5,0.9,0.8,1.5c1.1-0.8,1.9-1.4,2.1-1.5C272.1,310.9,271,310.9,269.4,310.9z"/>
	<path d="M246.7,196.2C246.8,196.2,246.8,196.2,246.7,196.2C246.8,196.2,246.8,196.2,246.7,196.2z"/>
	<path d="M226,212.3c0,0,13.6,9.7,13.9,10.2l-5.7-16.5c0,0,11.6-9.2,12.6-9.7c-1.2,0.2-16-0.2-16-0.2l-4.8-14.9l-5.3,15l-15.6,0.3
		l12.5,9.4c0,0-3.3,10.6-4.7,14.5c0.2,0.2,0.3,0.4,0.5,0.6C216.7,218.6,226,212.3,226,212.3z M214.3,219.2c0.5-1,4.5-13.9,4.5-13.9
		l-10.8-8.2l13.5-0.3l4.5-13l4.2,12.8c0,0,12.5,0.4,13.7,0.2c0.1,0,0.1,0,0.1,0c0,0,0,0-0.1,0c-1.1,0.6-10.9,8.4-10.9,8.4l5,14.3
		c-0.2-0.5-12-8.8-12-8.8S215.1,218.5,214.3,219.2C214.2,219.3,214.2,219.3,214.3,219.2C214.2,219.3,214.2,219.3,214.3,219.2z"/>
	<path fill="#FFE700" d="M243.9,197C244,197,244,196.9,243.9,197C244,196.9,244,196.9,243.9,197z"/>
	<path fill="#FFE700" d="M214.2,219.3C214.2,219.3,214.2,219.3,214.2,219.3C214.2,219.3,214.2,219.3,214.2,219.3z"/>
	<path fill="#FFE700" d="M226,210.8c0,0,11.8,8.4,12,8.8l-5-14.3c0,0,9.8-7.8,10.9-8.4c-1.2,0.2-13.7-0.2-13.7-0.2L226,184l-4.5,13
		l-13.5,0.3l10.8,8.2c0,0-3.9,12.9-4.5,13.9C215.1,218.5,226,210.8,226,210.8z M215.6,199.3l7.7-0.2l2.6-7.5l2.4,7.4
		c0,0,8,0.2,8,0.1l-6.3,4.9l2.8,8.2c-0.1-0.2-7-5.1-7-5.1l-6.8,4.9c0.2,0,2.6-8,2.6-8L215.6,199.3z"/>
	<path fill="#108C00" d="M219.2,212l6.8-4.9c0,0,6.9,4.9,7,5.1l-2.8-8.2l6.3-4.9c0,0.1-8-0.1-8-0.1l-2.4-7.4l-2.6,7.5l-7.7,0.2
		l6.2,4.7C221.8,204,219.4,212,219.2,212z"/>
	<path d="M393.2,138C393.2,138,393.2,138,393.2,138C393.2,138,393.2,138,393.2,138z"/>
	<path d="M374.9,163.9l4.7,14.8l5.3-15l15.6-0.3l-12.5-9.4c0,0,4.7-14.9,5.2-15.9c-0.8,0.7-13.6,9.6-13.6,9.6s-13.6-9.7-13.8-10.2
		l5.6,16.5c0,0-11.9,9.2-12.6,9.7C359.6,163.5,374.9,163.9,374.9,163.9z M372.5,154.5l-5-14.3c0.2,0.5,12,8.8,12,8.8
		s11.3-7.9,11.8-8.4c0,0,0,0,0,0c0,0,0,0,0,0c-0.3,0.5-4.6,13.9-4.6,13.9l10.8,8.2l-13.5,0.2h0.1c0,0.3-4.7,13.1-4.7,13.1l-4-12.8
		c0,0-13-0.4-13.9-0.3c0,0,0,0,0,0c0,0,0,0,0,0C362.3,162.5,372.5,154.5,372.5,154.5z"/>
	<path d="M358.7,163.6C358.7,163.6,358.7,163.6,358.7,163.6C358.7,163.7,358.7,163.7,358.7,163.6z"/>
	<path fill="#FFE700" d="M391.4,140.6C391.4,140.6,391.4,140.6,391.4,140.6C391.4,140.6,391.4,140.6,391.4,140.6z"/>
	<path fill="#FFE700" d="M375.4,163.2l4,12.8c0,0,4.7-12.8,4.7-13.1h-0.1l13.5-0.2l-10.8-8.2c0,0,4.2-13.3,4.6-13.9
		c-0.5,0.5-11.8,8.4-11.8,8.4s-11.8-8.4-12-8.8l5,14.3c0,0-10.2,7.9-11,8.3C362.4,162.7,375.4,163.2,375.4,163.2z M375.5,155.9
		l-2.8-8.2c0,0.2,6.9,5.1,6.9,5.1l6.9-4.9c-0.2,0-2.7,8-2.7,8l6.3,4.7l-7.8,0.2v-0.1l-2.6,7.5l-2.3-7.3c0,0-8.1-0.3-8.1-0.1
		S375.5,155.9,375.5,155.9z"/>
	<path fill="#FFE700" d="M361.6,162.9C361.5,162.9,361.5,162.9,361.6,162.9C361.5,162.9,361.5,162.9,361.6,162.9z"/>
	<path fill="#108C00" d="M377.2,160.9l2.3,7.3l2.6-7.5v0.1l7.8-0.2l-6.3-4.7c0,0,2.5-8,2.7-8l-6.9,4.9c0,0-6.9-4.9-6.9-5.1l2.8,8.2
		c0,0-6.4,5.1-6.4,4.9S377.2,160.9,377.2,160.9z"/>
	<path d="M419.7,256.8c0,0-13.6-9.7-13.8-10.2l5.6,16.5c0,0-11.6,9.1-12.6,9.7c1.2-0.2,16.1,0.2,16.1,0.2l4.7,14.9l5.3-15h0.1
		l13.7-0.2c0.3-0.2,0.7-0.4,1.1-0.6l-11.8-8.9c0,0,0.3-1,0.8-2.5c-0.2-0.1-0.3-0.2-0.3-0.3c-0.1-0.2-0.2-0.5-0.3-0.7
		c-0.7,2.3-1.3,4-1.3,4l10.8,8.3l-13.5,0.2l0.1,0l-4.6,13l-4.1-12.8c0,0-13-0.4-13.9-0.2c0,0,0,0,0,0c0,0,0,0,0,0
		c0.7-0.4,11-8.4,11-8.4l-5-14.3c0.2,0.5,12,8.8,12,8.8s11.3-7.9,11.8-8.4c0,0,0,0,0,0c0,0,0,0,0,0c-0.2,0.3-1.6,4.5-2.8,8.2
		c0,0,0,0,0,0c0.3,0,0.9-0.5,1.3-1.2c1.3-4.2,2.9-9.1,3.2-9.7C432.5,247.9,419.7,256.8,419.7,256.8z"/>
	<path d="M433.3,247.1C433.3,247.1,433.3,247.1,433.3,247.1C433.3,247.1,433.3,247.1,433.3,247.1z"/>
	<path d="M398.9,272.9C398.9,272.9,398.8,272.9,398.9,272.9C398.8,272.9,398.9,272.9,398.9,272.9z"/>
	<path fill="#FFE700" d="M431.5,249.8C431.5,249.8,431.5,249.8,431.5,249.8C431.5,249.8,431.5,249.8,431.5,249.8z"/>
	<path fill="#FFE700" d="M419.7,258.2c0,0-11.8-8.4-12-8.8l5,14.3c0,0-10.2,8-11,8.4c0.9-0.1,13.9,0.2,13.9,0.2l4.1,12.8l4.6-13
		l-0.1,0l13.5-0.2l-10.8-8.3c0,0,0.6-1.7,1.3-4c-0.3-0.9-0.1-1.6,0.5-1.7c1.2-3.7,2.6-7.9,2.8-8.2
		C431,250.3,419.7,258.2,419.7,258.2z M423.8,265.2l6.3,4.7l-7.8,0.1l-2.6,7.5l-2.3-7.4c0,0-7.3-0.2-8,0c0,0-0.1,0-0.1,0
		c0,0,0,0,0.1,0c0.7-0.4,6.3-4.9,6.3-4.9l-2.8-8.3c0,0.3,6.9,5.1,6.9,5.1l6.9-4.9C426.4,257.1,423.8,265.2,423.8,265.2z"/>
	<path fill="#FFE700" d="M401.7,272.1C401.7,272.1,401.7,272.1,401.7,272.1C401.7,272.1,401.7,272.1,401.7,272.1z"/>
	<path fill="#108C00" d="M419.7,262c0,0-6.9-4.8-6.9-5.1l2.8,8.3c0,0-5.6,4.5-6.3,4.9c0.7-0.1,8,0,8,0l2.3,7.4l2.6-7.5l7.8-0.1
		l-6.3-4.7c0,0,2.5-8.1,2.7-8.1L419.7,262z"/>
	<path fill="#108C00" d="M409.3,270C409.3,270,409.3,270.1,409.3,270C409.3,270.1,409.3,270.1,409.3,270z"/>
	<path d="M299.3,352.7C299.3,352.7,299.3,352.7,299.3,352.7C299.3,352.7,299.3,352.7,299.3,352.7z"/>
	<path d="M333.8,327C333.8,327,333.8,327,333.8,327C333.8,327,333.8,327,333.8,327z"/>
	<path d="M328.5,343c0,0,4.7-14.9,5.2-15.9c-0.8,0.7-13.6,9.6-13.6,9.6s-13.6-9.7-13.8-10.2L312,343c0,0-11.9,9.2-12.6,9.7
		c0.8-0.1,16.1,0.3,16.1,0.3l4.7,14.9l5.3-15l15.6-0.3L328.5,343z M324.8,352L324.8,352l-4.6,13.1l-4.1-12.9c0,0-12.6-0.4-13.8-0.2
		c-0.1,0-0.1,0-0.1,0c0,0,0,0,0.1,0c1.1-0.6,10.9-8.4,10.9-8.4l-5-14.3c0.2,0.5,12,8.8,12,8.8s11.3-7.9,11.8-8.4c0,0,0,0,0,0
		c0,0,0,0,0,0c-0.3,0.5-4.6,13.9-4.6,13.9l10.8,8.2L324.8,352z"/>
	<path fill="#FFE700" d="M332,329.7c-0.5,0.5-11.8,8.4-11.8,8.4s-11.8-8.4-12-8.8l5,14.3c0,0-9.9,7.8-10.9,8.4
		c1.2-0.2,13.8,0.2,13.8,0.2l4.1,12.9l4.6-13.2l0,0.1l13.4-0.3l-10.8-8.2C327.4,343.6,331.6,330.2,332,329.7z M330.6,349.7l-7.8,0.2
		h0l-2.6,7.5l-2.3-7.4c0,0-8.1-0.3-8.1-0.1s6.4-4.9,6.4-4.9l-2.8-8.2c0,0.2,6.9,5.1,6.9,5.1l6.9-4.9l-2.6,8L330.6,349.7z"/>
	<path fill="#FFE700" d="M332,329.7C332,329.7,332,329.7,332,329.7C332,329.7,332,329.7,332,329.7z"/>
	<path fill="#FFE700" d="M302.2,352C302.1,352,302.1,352,302.2,352C302.1,352,302.1,352,302.2,352z"/>
	<path fill="#108C00" d="M327,337l-6.9,4.9c0,0-6.9-4.9-6.9-5.1l2.8,8.2c0,0-6.4,5.1-6.4,4.9s8.1,0.1,8.1,0.1l2.3,7.4l2.6-7.5h0
		l7.8-0.2l-6.2-4.7L327,337z"/>
	<path d="M235.4,263.5c-0.1,0.4-0.2,0.9-0.2,1.2l9.4,7.2l-5.9,0.1c0.1,0.2,0.1,0.3,0.1,0.4c0,0.1,0,0.3,0,0.4l8.7-0.2L235.4,263.5z"
		/>
	<path d="M240.4,247.2c0,0-2.2,1.6-5,3.5l0.1,1.2c1.6-1.1,2.7-2,2.9-2.1c0,0,0,0,0,0c0,0,0,0,0,0c-0.2,0.3-1.4,4.1-2.6,7.6
		c0.1,1.3,0.1,2.4,0,3.3C237.4,256.2,240.4,247.2,240.4,247.2z"/>
	<path fill="#FFE700" d="M238.5,249.8C238.5,249.8,238.5,249.8,238.5,249.8C238.5,249.8,238.5,249.8,238.5,249.8z"/>
	<path fill="#FFE700" d="M235.5,251.9l0.2,3.9c0,0.6,0.1,1.1,0.1,1.6c1.1-3.6,2.4-7.3,2.6-7.6C238.3,249.9,237.1,250.8,235.5,251.9z
		"/>
	<path fill="#FFE700" d="M235.2,264.7c-0.1,1.5,0.5,2.7,2,4.7c0.7,0.9,1.3,2,1.5,2.6l5.9-0.1L235.2,264.7z"/>
	<path d="M240.4,165.2c0.8-0.1,15.9,0.3,15.9,0.3l4.9,14.8l5.3-15l0,0.1L282,165l-12.4-9.4c0,0,5.1-16,5.3-16s-13.7,9.7-13.7,9.7
		s-13.6-9.7-13.8-10.2l5.7,16.5C253,155.6,241.2,164.8,240.4,165.2z M249.1,141.8c0.2,0.5,12,8.8,12,8.8s11.3-7.9,11.8-8.4
		c0,0,0,0,0,0c0,0,0,0,0,0c-0.3,0.5-4.5,13.9-4.5,13.9l10.7,8.2l-13.4,0.3v-0.1l-4.6,13.2l-4.1-12.9c0,0-12.6-0.4-13.8-0.2
		c-0.1,0-0.1,0-0.1,0c0,0,0,0,0.1,0c1.1-0.6,10.9-8.4,10.9-8.4L249.1,141.8z"/>
	<path d="M240.4,165.2C240.4,165.2,240.3,165.2,240.4,165.2C240.3,165.3,240.4,165.3,240.4,165.2z"/>
	<path fill="#FFE700" d="M243.2,164.6c1.2-0.2,13.8,0.2,13.8,0.2l4.1,12.9l4.6-13.2v0.1l13.4-0.3l-10.7-8.2c0,0,4.2-13.4,4.5-13.9
		c-0.5,0.5-11.8,8.4-11.8,8.4s-11.8-8.4-12-8.8l5,14.3C254.1,156.1,244.2,164,243.2,164.6z M257.1,157.5l-2.8-8.2
		c0,0.2,6.9,5.1,6.9,5.1l6.9-4.9l-2.6,8l6.2,4.7l-7.8,0.2l-2.6,7.5l-2.3-7.4c0,0-8-0.3-8-0.1S257.1,157.5,257.1,157.5z"/>
	<path fill="#FFE700" d="M243.2,164.6C243.1,164.6,243.1,164.6,243.2,164.6C243.1,164.6,243.1,164.6,243.2,164.6z"/>
	<path fill="#FFE700" d="M273,142.2C273,142.2,273,142.2,273,142.2C273,142.2,273,142.2,273,142.2z"/>
	<path fill="#108C00" d="M258.8,162.5l2.3,7.4l2.6-7.5l7.8-0.2l-6.2-4.7l2.6-8l-6.9,4.9c0,0-6.9-4.9-6.9-5.1l2.8,8.2
		c0,0-6.3,5.1-6.3,4.9S258.8,162.5,258.8,162.5z"/>
	<path fill="#009200" d="M328.8,295.2c-0.4,0.4-0.8,0.7-1.3,0.7c-0.7,0.1-1.5-0.4-2.1-1.2c1.2,4.6,2.6,7.2,4.3,7
		c0.7-0.1,1.3-0.7,2-1.7c-0.3-1.4-0.6-3-0.9-4.7C330.2,295.5,329.5,295.4,328.8,295.2z"/>
	<path fill="#009200" d="M339.8,297.6c-0.4,0-0.8-0.3-1.2-0.6c-0.3,1.6-0.6,3.1-1,4.3c0.2,0.1,0.4,0.1,0.6,0.1
		c1.3-0.2,2.6-2,3.7-5.1C341.3,297.1,340.6,297.6,339.8,297.6z"/>
	<path fill="#009200" d="M337.6,295.3c-0.4-0.1-0.9-0.2-1.4-0.3c0,0,0,0-0.1,0.1c-0.6,0.7-1.2,1-1.9,1c-0.3,0.3-0.6,0.4-1,0.4
		c-0.7,0.1-1.4-0.3-2.1-1.1c-0.1,0-0.3,0-0.5,0.1c0.3,1.8,0.6,3.4,0.9,4.7c0.9,3.9,2,6.1,3.2,5.9c1-0.1,1.9-1.9,2.8-4.8
		c0.3-1.2,0.7-2.7,1-4.3C338.2,296.5,337.9,296,337.6,295.3z"/>
	<path fill="#A95600" d="M319.2,278.9c-0.5-0.5-1-1.3-1.5-2.3c-3.3,0.2-5.6,0.3-5.9,0.3c-1.7,0-0.7-2-2-3.9c-1.3-2-5.5-2.9-8.4-1.4
		c-2.9,1.7-0.4,4.6-6.3,4.9c0,0.4,2.9,5.9,4.9,7.2c0.7,0.5,9.3,0.6,19.7,0.5c-0.2-0.8-0.4-1.7-0.5-2.7
		C319.1,280.6,319.1,279.7,319.2,278.9z"/>
	<path fill="#A95600" d="M356.5,282.7c1.8-0.2,2.9-0.4,3.2-0.5c1.7-1.3,1.3-4.5-0.3-6.2c-0.2-0.2-1.1-0.3-2.6-0.4
		C356.9,278.2,356.8,280.6,356.5,282.7z"/>
	<path fill="#FFFF00" d="M323.3,288.6c-0.7,0-1.4-0.5-2.1-1.3c0,0.2-0.1,0.4-0.1,0.7c0.1,2.2,1.5,4,3.3,5.3c-0.6-1.2-1-2.8-1.2-4.5
		C323.3,288.8,323.3,288.7,323.3,288.6z"/>
	<path fill="#FFFF00" d="M329.5,294.1c-0.2,0.4-0.4,0.8-0.7,1.1c0.7,0.2,1.4,0.2,1.9,0.2c0.2,0,0.3,0,0.5-0.1
		c-0.2-0.2-0.3-0.4-0.5-0.7C330.3,294.5,329.9,294.3,329.5,294.1z"/>
	<path fill="#FFFF00" d="M336.2,295C336.2,295,336.2,295,336.2,295C336.2,295,336.2,295,336.2,295C336.2,295,336.2,295,336.2,295z"
		/>
	<path fill="#FFFF00" d="M330.7,294.7c-0.3-0.5-0.6-1.1-0.8-1.7c-0.1,0.4-0.2,0.8-0.4,1.1C329.9,294.3,330.3,294.5,330.7,294.7z"/>
	<path fill="#FFFF00" d="M336.2,295C336.2,295,336.2,295,336.2,295c0.5,0.1,0.9,0.2,1.4,0.3c-0.2-0.5-0.3-1-0.5-1.6c0,0,0,0-0.1,0
		C336.8,294.1,336.5,294.6,336.2,295z"/>
	<path fill="#FFFF00" d="M344.7,293.9c0-0.8-0.5-1.3-1.1-1.7c-0.2,1.2-0.6,2.3-1.1,3.2C343.8,295.3,344.7,294.9,344.7,293.9z"/>
	<path fill="#FFFF00" d="M337.2,293.6c0,0,0-0.1,0-0.1C337.1,293.5,337.1,293.6,337.2,293.6C337.1,293.6,337.1,293.6,337.2,293.6z"
		/>
	<path fill="#A95600" d="M360.5,296.1c0-2.1-1.6-3.9-3.7-3.9c-0.2,0-0.4,0-0.5,0c0.8,2.8,1.1,5.2,1.2,7.5
		C359.2,299.4,360.5,297.9,360.5,296.1z"/>
	<path fill="#009200" d="M331.4,288.2c0-0.1,0-0.1,0-0.2c-0.5-0.1-1-0.4-1.4-0.9c0.1,0.3,0.1,0.7,0.1,1c0.2,1.8,0.1,3.5-0.3,4.9
		c0.2,0.6,0.5,1.2,0.8,1.7c0.2,0.2,0.3,0.5,0.5,0.7c0.6,0.8,1.3,1.2,2.1,1.1c0.4,0,0.7-0.2,1-0.4c0,0,0,0,0,0
		C332.4,295.9,331.1,292.4,331.4,288.2z"/>
	<path fill="#009200" d="M327.5,296c0.5,0,0.9-0.3,1.3-0.7c0.3-0.3,0.5-0.7,0.7-1.1c0.2-0.3,0.3-0.7,0.4-1.1c0.4-1.3,0.5-3,0.3-4.9
		c0-0.3-0.1-0.7-0.1-1c-0.3-0.4-0.5-0.9-0.8-1.4c-0.4,0.9-1,1.5-1.7,1.6c-0.7,0.1-1.4-0.4-2-1.2c-0.5,1.5-1.3,2.5-2.2,2.6
		c0,0-0.1,0-0.1,0c0,0.1,0,0.1,0,0.2c0.2,1.7,0.6,3.3,1.2,4.5c0.3,0.6,0.6,1.1,0.9,1.5C326.1,295.6,326.8,296.1,327.5,296z"/>
	<path fill="#009200" d="M323.3,288.6c0,0,0.1,0,0.1,0c1-0.1,1.8-1.1,2.2-2.6c-0.9-1.2-1.6-3.3-2-5.7c-0.5-0.7-0.9-1.6-1.2-2.6
		c-0.4,1.1-1.1,1.7-1.8,1.8c-0.5,0.1-1-0.2-1.5-0.6c-0.1,0.8,0,1.7,0,2.6c0.1,0.9,0.3,1.8,0.5,2.7c0.4,1.3,0.9,2.4,1.5,3.2
		C321.9,288.2,322.6,288.7,323.3,288.6z"/>
	<path fill="#009200" d="M328.8,283.5c-0.5-0.9-0.9-2.1-1.2-3.5c-0.4,1-1,1.6-1.8,1.7c-0.7,0.1-1.5-0.4-2.1-1.4
		c0.4,2.4,1.1,4.5,2,5.7c0.6,0.8,1.3,1.3,2,1.2c0.7-0.1,1.2-0.6,1.7-1.6C329.1,285.1,328.9,284.3,328.8,283.5z"/>
	<path fill="#009200" d="M327.6,280c0.3,1.4,0.7,2.6,1.2,3.5c-0.1-1-0.2-2.1-0.1-3.2c0.1-0.9,0.2-1.8,0.4-2.6
		c-0.3-0.4-0.6-0.9-0.8-1.6C328.3,277.6,328,279,327.6,280z"/>
	<path fill="#009200" d="M325.8,281.7c0.7-0.1,1.3-0.7,1.8-1.7c0.4-1,0.7-2.4,0.8-3.9c-0.4-1.1-0.6-2.5-0.6-4
		c-1.5-1.1-3.4-2.4-5.3-4.2c0,0,0,0.1,0,0.1c0.3,1,0.6,2.2,0.7,3.4c0.3,2.5,0,4.8-0.7,6.3c0.3,1.1,0.8,2,1.2,2.6
		C324.3,281.3,325.1,281.8,325.8,281.7z"/>
	<path fill="#009200" d="M319.2,278.9c0.5,0.4,1,0.7,1.5,0.6c0.7-0.1,1.4-0.7,1.8-1.8c0.6-1.5,0.9-3.8,0.7-6.3
		c-0.1-1.2-0.4-2.4-0.7-3.4c0-0.1,0-0.1-0.1-0.2c-1.2-1.1-2.5-2.3-3.8-3.7c-1.5,0.7-2.3,4-2,7.9c0.2,1.7,0.6,3.3,1.1,4.5
		C318.2,277.6,318.7,278.3,319.2,278.9z"/>
	<path fill="#804BFF" d="M313,205.4c0.1-0.1,0.1-0.1,0.2-0.2c0.1-2.1,1.7-3.7,3.8-3.7c1,0,1.9,0.4,2.5,1.1c0.7-0.6,1.6-1,2.6-1
		c2,0,3.7,1.8,3.6,3.8c0,0.5-0.1,1.1-0.3,1.5c0.1,0,0.2,0,0.3,0c0.7,0,1.3,0.2,1.9,0.6c0,0,0,0,0,0c-2.3-4.3-4-6.4-4-6.4l-7.6-1.3
		l0,0.1c0,0-2.3,2-4.8,6.6C311.6,206.1,312.3,205.6,313,205.4z"/>
	<path fill="#804BFF" d="M328.8,212.6c0.2,0,0.4-0.1,0.7-0.1c0.2,0,0.3,0,0.4,0.1c-0.2-0.5-0.4-0.9-0.6-1.4c0,0,0,0-0.1,0
		C329.2,211.7,329,212.2,328.8,212.6z"/>
	<path fill="#804BFF" d="M322.4,267.8C322.4,267.9,322.4,267.9,322.4,267.8c2,1.8,3.9,3.2,5.4,4.2c0-0.5,0-1,0.1-1.5
		c0.2-2.9,1.1-5.4,2.2-6.6c-0.1-0.3-0.2-0.5-0.3-0.8c-0.4-0.8-0.7-1.7-1.1-2.6c-0.3-0.7-0.6-1.5-0.9-2.2
		c-7.2-19.3-7.8-36.7-1.4-38.9c0.2-0.1,0.4-0.1,0.6-0.2c-0.6-0.5-1-1.3-1.2-2.1c-0.4,0.1-0.8,0.2-1.3,0.2c-2,0-3.7-1.8-3.6-3.8
		c0-0.3,0-0.6,0.1-0.8c-1.3-0.1-2.4-0.7-3.1-1.6c-0.5,0.5-1,0.8-1.7,1c-0.6,0.5-1.4,0.8-2.3,0.8c-2,0-3.7-1.8-3.6-3.8
		c0-0.3,0-0.5,0.1-0.7c-2.6,5.7-5.1,14.7-4.3,27.8c0.8,12.5,6.6,21.7,12.6,28.1C319.9,265.5,321.2,266.8,322.4,267.8z"/>
	<path fill="#009200" d="M341.2,285.9c-0.4,0.4-0.9,0.6-1.4,0.6c-0.6,0-1.1-0.4-1.5-1.1c0,0.1-0.1,0.2-0.1,0.3c0.1,1,0.2,2,0.1,3.1
		c-0.1,1.8-0.6,3.5-1.2,4.7c0,0,0,0.1,0,0.1c0.1,0.6,0.3,1.1,0.5,1.6c0.3,0.7,0.6,1.3,1,1.7c0.4,0.4,0.8,0.6,1.2,0.6
		c0.8,0.1,1.5-0.4,2.1-1.3c0.2-0.3,0.4-0.6,0.6-0.9c0.5-0.9,0.8-2,1.1-3.2c0.1-0.6,0.2-1.2,0.3-1.9c0-0.1,0-0.3,0-0.4
		c-0.1,0-0.1,0-0.2,0C342.5,289.8,341.6,288.2,341.2,285.9z"/>
	<path fill="#009200" d="M335.9,287.5c-0.7-0.1-1.3-0.6-1.7-1.6c-0.7,1.4-1.7,2.2-2.7,2.1c0,0-0.1,0-0.1,0c0,0.1,0,0.1,0,0.2
		c-0.3,4.2,1,7.6,2.9,7.8c0,0,0,0,0,0c0.7,0,1.3-0.3,1.9-1c0,0,0,0,0.1-0.1c0.3-0.4,0.6-0.8,0.9-1.4c0,0,0-0.1,0-0.1
		c0.6-1.3,1-2.9,1.2-4.7c0.1-1.1,0.1-2.2-0.1-3.1C337.6,286.9,336.8,287.6,335.9,287.5z"/>
	<path fill="#009200" d="M331.4,288.1c0,0,0.1,0,0.1,0c1,0.1,1.9-0.8,2.7-2.1c-0.7-1.4-1-3.5-0.9-6c-0.3-0.8-0.6-1.7-0.7-2.8
		c-0.6,1-1.4,1.5-2.1,1.4c-0.5,0-1-0.4-1.3-0.9c-0.2,0.8-0.4,1.7-0.4,2.6c-0.1,1.1-0.1,2.2,0.1,3.2c0.1,0.8,0.3,1.6,0.5,2.2
		c0.2,0.6,0.5,1,0.8,1.4C330.5,287.7,330.9,288,331.4,288.1z"/>
	<path fill="#009200" d="M337.2,280.3c-0.6,0.9-1.3,1.4-2,1.4c-0.7-0.1-1.4-0.7-1.8-1.7c-0.1,2.5,0.3,4.6,0.9,6
		c0.4,0.9,1,1.5,1.7,1.6c0.8,0.1,1.6-0.6,2.3-1.9c0-0.1,0.1-0.2,0.1-0.3C337.7,284.3,337.2,282.5,337.2,280.3z"/>
	<path fill="#009200" d="M342.4,284.2c-0.4,0.7-0.8,1.3-1.2,1.7c0.4,2.3,1.3,3.9,2.5,4c0.1,0,0.1,0,0.2,0c0.9-0.1,1.7-0.9,2.3-2.2
		C345,286.8,343.7,285.6,342.4,284.2z"/>
	<path fill="#009200" d="M337.2,280.3c0.1,2.2,0.5,4,1.2,5.1c0.4,0.6,0.9,1,1.5,1.1c0.5,0,0.9-0.2,1.4-0.6c0.4-0.4,0.8-1,1.2-1.7
		c-1.4-1.6-2.9-3.4-4.4-5.6C337.8,279.3,337.5,279.9,337.2,280.3z"/>
	<path fill="#009200" d="M332.6,277.1c0.1,1.1,0.4,2.1,0.7,2.8c0.5,1,1.1,1.7,1.8,1.7c0.7,0.1,1.4-0.5,2-1.4c0.3-0.5,0.6-1,0.9-1.7
		c-1.3-1.9-2.6-4-3.8-6.3C333.9,274.3,333.3,276,332.6,277.1z"/>
	<path fill="#009200" d="M327.8,270.6c0,0.5-0.1,1-0.1,1.5c0,1.5,0.2,2.9,0.6,4c0.2,0.6,0.5,1.2,0.8,1.6c0.4,0.5,0.8,0.8,1.3,0.9
		c0.7,0.1,1.5-0.5,2.1-1.4c0.7-1.1,1.3-2.8,1.6-4.8c-1.4-2.6-2.8-5.4-4.1-8.4C328.9,265.2,328.1,267.6,327.8,270.6z"/>
	<path fill="#009200" d="M331.9,219.2c-0.3,0.3-0.7,0.6-1.2,0.8c1.7,0.8,3.6,2.4,5.6,4.4c0.6-0.7,1.1-1.5,1.1-2.4
		c0-0.9-0.3-1.6-0.8-2.3c-0.6,0.4-1.3,0.6-2.1,0.6C333.4,220.2,332.5,219.8,331.9,219.2z"/>
	<path fill="#009200" d="M333.1,216.4c0,1.1-0.5,2-1.2,2.7c0.7,0.7,1.5,1.1,2.5,1.1c0.8,0,1.5-0.2,2.1-0.6c1-0.7,1.6-1.8,1.7-3.1
		c0-2.1-1.6-3.8-3.6-3.8c-1,0-1.9,0.4-2.6,1C332.7,214.4,333.1,215.4,333.1,216.4z"/>
	<path fill="#009200" d="M328.8,212.6c-0.2,0.3-0.3,0.6-0.6,0.8c0,0.1,0,0.1,0,0.2c0,1.6-1.1,3-2.5,3.5c0.2,0.8,0.6,1.6,1.2,2.1
		c1.1-0.2,2.4,0.1,3.7,0.7c0.4-0.2,0.8-0.4,1.2-0.8c0.7-0.7,1.2-1.6,1.2-2.7c0-1.1-0.4-2.1-1.1-2.8c-0.6-0.6-1.3-0.9-2.1-1
		c-0.1,0-0.3-0.1-0.4-0.1C329.2,212.6,329,212.6,328.8,212.6z"/>
	<path fill="#009200" d="M329.3,210.9c0,0.1,0,0.2,0,0.3c0,0,0,0,0.1,0c0.6,0.3,1.3,0.5,2,0.5c2.2,0,3.9-1.5,4-3.3
		c0-1-0.4-1.8-1.2-2.5c-0.7,0.9-1.9,1.4-3.2,1.4c-1.1,0-2-0.4-2.7-1c-0.3,0.4-0.5,0.8-0.6,1.2c0,0,0,0,0,0
		C328.6,208.3,329.3,209.5,329.3,210.9z"/>
	<path fill="#009200" d="M334.1,206c0.1-0.1,0.2-0.3,0.3-0.5c-0.2-0.8-0.1-1.7,0.3-2.4c-0.4-1.4-1.8-2.4-3.5-2.5
		c-0.7,0.8-1.9,1.4-3.2,1.4c-0.1,0-0.1,0-0.2,0c-0.5,0.6-0.8,1.2-0.8,2c0,1,0.4,1.8,1.2,2.5c0.7,0.6,1.6,1,2.7,1
		C332.2,207.4,333.4,206.8,334.1,206z"/>
	<path fill="#009200" d="M328.2,213.6c0-0.1,0-0.1,0-0.2c-0.7,0.7-1.7,1.2-2.7,1.2c-1.4,0-2.6-0.8-3.2-2c-0.3,0.1-0.6,0.1-1,0.1
		c-0.1,0-0.2,0-0.4,0c-0.1,0.3-0.1,0.6-0.1,0.8c0,2.1,1.6,3.8,3.6,3.8c0.5,0,0.9-0.1,1.3-0.2C327.2,216.6,328.2,215.2,328.2,213.6z"
		/>
	<path fill="#009200" d="M325.6,209c0,1.8-1.4,3.3-3.3,3.6c0.6,1.2,1.8,2,3.2,2c1.1,0,2-0.4,2.7-1.2c0.2-0.2,0.4-0.5,0.6-0.8
		c0.2-0.4,0.4-0.9,0.4-1.4c0-0.1,0-0.2,0-0.3c0-1.4-0.7-2.6-1.7-3.3c-0.6-0.4-1.2-0.6-1.9-0.6c-0.1,0-0.2,0-0.3,0
		c0,0.1-0.1,0.1-0.1,0.2C325.5,207.8,325.6,208.4,325.6,209z"/>
	<path fill="#009200" d="M322.3,212.6c1.9-0.4,3.3-1.8,3.3-3.6c0-0.6-0.2-1.2-0.4-1.7c-0.6,1.2-1.9,2-3.3,2c-1,0-1.9-0.4-2.5-1.1
		c-0.1,0.1-0.3,0.2-0.4,0.3c0,1-0.4,1.8-1,2.5c0.7,0.9,1.8,1.5,3.1,1.6c0.1,0,0.2,0,0.4,0C321.7,212.7,322,212.6,322.3,212.6z"/>
	<path fill="#009200" d="M331.2,200.6c0.5-0.6,0.8-1.2,0.8-2c0-0.5-0.1-1-0.4-1.5c-2.2,1.2-4.1,1.7-7.3,2.1c0.4,1.5,1.8,2.6,3.5,2.7
		c0.1,0,0.1,0,0.2,0C329.3,202,330.5,201.4,331.2,200.6z"/>
	<path fill="#009200" d="M320.6,205.5c0,1.1-0.5,2-1.2,2.7c0.7,0.7,1.5,1.1,2.5,1.1c1.4,0,2.7-0.8,3.3-2c0-0.1,0.1-0.1,0.1-0.2
		c0.2-0.5,0.3-1,0.3-1.5c0-2.1-1.6-3.8-3.6-3.8c-1,0-1.9,0.4-2.6,1C320.2,203.4,320.6,204.4,320.6,205.5z"/>
	<path fill="#009200" d="M313.9,212.8c0.9,0,1.7-0.3,2.3-0.8c-0.3,0.1-0.7,0.2-1,0.2c-2,0-3.7-1.8-3.6-3.8c0-1.2,0.6-2.2,1.4-2.9
		c-0.7,0.2-1.4,0.6-1.8,1.2c-0.4,0.5-0.7,1-0.8,1.6c-0.1,0.2-0.1,0.5-0.1,0.7C310.2,211.1,311.9,212.8,313.9,212.8z"/>
	<path fill="#009200" d="M316.8,209.2c-2,0-3.7-1.8-3.6-3.8c0,0,0,0,0-0.1c-0.1,0-0.1,0.1-0.2,0.2c-0.8,0.7-1.4,1.7-1.4,2.9
		c0,2.1,1.6,3.8,3.6,3.8c0.4,0,0.7-0.1,1-0.2c0.7-0.2,1.2-0.5,1.7-1c0.6-0.7,1-1.5,1-2.5C318.3,208.9,317.6,209.2,316.8,209.2z"/>
	<path fill="#009200" d="M316.8,209.2c0.8,0,1.5-0.2,2.1-0.7c0.1-0.1,0.3-0.2,0.4-0.3c0.7-0.7,1.2-1.6,1.2-2.7
		c0-1.1-0.4-2.1-1.1-2.8c-0.7-0.7-1.5-1.1-2.5-1.1c-2,0-3.7,1.6-3.8,3.7c0,0,0,0,0,0.1C313.1,207.4,314.8,209.1,316.8,209.2z"/>
	<path fill="#009200" d="M342,281.1c-3.2-4.2-4.9-8.1-5.6-11.5c-0.2,0.2-0.4,0.3-0.7,0.3c-1.7,0.2-4.1-2.6-6-6.8
		c0.1,0.3,0.2,0.5,0.3,0.8c1.3,3,2.7,5.8,4.1,8.4c1.3,2.3,2.5,4.4,3.8,6.3c1.5,2.1,2.9,4,4.4,5.6c1.3,1.4,2.6,2.6,3.8,3.5
		c0.3,0.2,0.6,0.4,1,0.6C345.8,286.2,344.1,283.8,342,281.1z"/>
	<path fill="#009200" d="M333.4,252.8c0.7,1.3,1.4,2.7,2,4.3c0-0.1,0-0.2,0-0.2c-0.2-0.5-0.4-1-0.6-1.6c-0.6-1.5-1-3-1.2-4.4
		c-0.1-0.2-0.3-0.4-0.4-0.6C333.3,251.3,333.4,252.1,333.4,252.8z"/>
	<path fill="#009200" d="M330.7,219.9c-1.3-0.6-2.6-0.9-3.7-0.7c-0.2,0-0.4,0.1-0.6,0.2c-6.4,2.2-5.8,19.6,1.4,38.9
		c0.3,0.8,0.6,1.5,0.9,2.2c-0.1-0.3-0.2-0.6-0.3-0.9c-1.5-4.7-1.8-8.8-0.9-10.5c-0.8-1.8-1.6-3.8-2.4-6l1.7-0.9
		c-0.4-0.9-0.8-1.9-1.1-2.9c-0.3-1-0.6-1.9-0.7-2.8c-0.8-1.2-1.6-2.6-2.4-4.2l2.7-2.1c-0.2-0.4-0.5-0.8-0.7-1.3l3.3-2.5
		c-0.1-0.1-0.1-0.2-0.2-0.4l3.5-3.1c1.2,2.5,2.1,4.9,2.7,7c0.1,0.1,0.1,0.2,0.2,0.3l2.9-2.2c2.1,4.1,3.7,7.9,4.4,10.8
		c1.6,2.2,3.2,5.2,4.6,8.6c0.8,2.1,1.4,4.1,1.8,5.9c1.2,0.9,2.6,3.1,3.7,5.9c1.5,3.7,1.8,7.2,0.9,8.2c3.3,6.8,3.5,12.1,3,16.7
		c0.1,0.5,0.3,1,0.4,1.5c0.4-0.9,0.6-1.9,0.8-3.1c0.3-2,0.4-4.4,0.3-7.1c-0.4-6.9-2.3-15.8-5.8-25.2c-4.2-11.2-9.6-20.6-14.7-26.1
		C334.3,222.3,332.4,220.7,330.7,219.9z"/>
	<path fill="#009200" d="M347.9,260.2c1.9,2.6,3.3,5,4.4,7.3c0.9-0.9,0.5-4.4-0.9-8.2c-1.1-2.8-2.5-5-3.7-5.9
		C348.3,256.4,348.4,258.8,347.9,260.2z"/>
	<path fill="#009200" d="M346.7,261.6c-0.7,0.2-1.7-0.3-2.7-1.2c0.1,1.3,0.1,2.4-0.1,3.2c1.2,2.1,2.6,4.4,4.4,6.9
		c3.8,5.3,5.9,9.8,7,13.7c0.5-4.6,0.3-9.9-3-16.7c-1.1-2.2-2.5-4.7-4.4-7.3C347.6,261,347.2,261.5,346.7,261.6z"/>
	<path fill="#009200" d="M335.4,256.9c0,0.1,0,0.2,0,0.2c0.2,0.5,0.4,0.9,0.5,1.4c0.2,0.5,0.3,0.9,0.4,1.3c0-0.2,0.1-0.5,0.1-0.7
		C336.1,258.5,335.7,257.7,335.4,256.9z"/>
	<path fill="#009200" d="M348.3,270.5c-1.8-2.5-3.3-4.8-4.4-6.9c-0.2,1.1-0.7,1.7-1.4,1.8c-0.5,0.1-1-0.1-1.6-0.5
		c1.5,3.8,3.9,8.4,8.2,14c3.8,4.9,5.9,9.2,7.1,13c0.1-1.9-0.1-4-0.5-6.2c-0.1-0.5-0.2-1-0.4-1.5
		C354.3,280.3,352.2,275.8,348.3,270.5z"/>
	<path fill="#009200" d="M357.4,299.8c0-2.3-0.3-4.8-1.2-7.5c0-0.1-0.1-0.2-0.1-0.3c-1.2-3.8-3.3-8-7.1-13c-4.3-5.6-6.7-10.2-8.2-14
		c-1.4-0.9-3-3-4.4-5.8c0,0.2-0.1,0.5-0.1,0.7c1.3,4.7,1.3,8.6,0,9.7c0.7,3.4,2.4,7.2,5.6,11.5c2.1,2.7,3.8,5.1,5.2,7.2
		c5.5,8.1,7.1,12.7,9.5,19.1C357.1,305,357.5,302.5,357.4,299.8z"/>
	<path fill="#009200" d="M341.3,243.2c-0.2,0.1-0.4,0.2-0.6,0.1c0.8,3,0.6,5.3-0.7,5.5c0,0,0,0,0,0c0.9,1.5,1.7,3.3,2.4,5.3
		c0.8,2.3,1.3,4.5,1.5,6.3c1,0.9,1.9,1.3,2.7,1.2c0.6-0.1,1-0.6,1.2-1.3c0.5-1.4,0.4-3.9-0.2-6.9c-0.4-1.8-1-3.8-1.8-5.9
		c-1.3-3.5-3-6.5-4.6-8.6C341.9,241.1,341.9,242.7,341.3,243.2z"/>
	<path fill="#009200" d="M342.5,265.5c0.7-0.1,1.2-0.8,1.4-1.8c0.2-0.8,0.2-1.9,0.1-3.2c-0.2-1.8-0.7-4-1.5-6.3
		c-0.7-2-1.5-3.8-2.4-5.3c-0.6,0.1-1.4-0.3-2.2-1.1c0.6,3,0.2,5.3-1.1,5.4c-0.9,0.1-2-0.8-3.1-2.2c0.3,1.4,0.7,2.8,1.2,4.4
		c0.2,0.5,0.4,1,0.6,1.6c0.3,0.8,0.7,1.6,1.1,2.3c1.4,2.8,3,4.9,4.4,5.8C341.5,265.4,342,265.6,342.5,265.5z"/>
	<path fill="#009200" d="M335.9,258.6c-0.2-0.5-0.3-1-0.5-1.4c-0.6-1.6-1.3-3-2-4.3c0.1,1.7-0.1,2.8-0.7,3.1
		c-1.1,0.6-3.2-2.2-5.3-6.8c-0.9,1.7-0.7,5.8,0.9,10.5c0.1,0.3,0.2,0.6,0.3,0.9c0.3,0.9,0.7,1.8,1.1,2.6c1.9,4.2,4.3,7,6,6.8
		c0.2,0,0.5-0.1,0.7-0.3c1.3-1.1,1.3-5,0-9.7C336.2,259.5,336.1,259,335.9,258.6z"/>
	<path fill="#009200" d="M340.7,243.3c-0.7-0.1-1.8-1-3-2.4c0.1,1.7-0.3,2.8-1.1,3.1c0.1,0.2,0.2,0.4,0.2,0.6
		c0.4,1.1,0.7,2.2,0.9,3.1c0.8,0.8,1.6,1.2,2.2,1.1c0,0,0,0,0,0C341.3,248.6,341.5,246.3,340.7,243.3z"/>
	<path fill="#009200" d="M336.9,244.6c-0.1-0.2-0.2-0.4-0.2-0.6c-0.1,0-0.2,0.1-0.3,0.1c-1.2,0.1-2.8-1.5-4.2-3.9
		c0.8,2.9,0.8,5.4,0.2,6.5c0.3,1.3,0.6,2.6,0.7,3.7c0.1,0.2,0.3,0.4,0.4,0.6c1.1,1.5,2.2,2.3,3.1,2.2c1.3-0.1,1.7-2.4,1.1-5.4
		C337.6,246.8,337.3,245.7,336.9,244.6z"/>
	<path fill="#009200" d="M332.7,255.9c0.5-0.3,0.8-1.4,0.7-3.1c0-0.7-0.1-1.6-0.3-2.5c-0.2-1.1-0.4-2.3-0.7-3.7
		c-0.2,0.4-0.6,0.7-1,0.7c-1.3,0.1-3.2-2-4.7-5.2l-1.7,0.9c0.8,2.2,1.6,4.2,2.4,6C329.5,253.6,331.6,256.5,332.7,255.9z"/>
	<path fill="#009200" d="M334,230.2c-0.1-0.1-0.1-0.2-0.2-0.3c0,0.1,0.1,0.2,0.1,0.4L334,230.2z"/>
	<path fill="#009200" d="M336.4,244.1c0.1,0,0.2,0,0.3-0.1c0.8-0.3,1.1-1.5,1.1-3.1c-1.2-1.4-2.5-3.3-3.9-5.6
		c-0.8-0.2-2.2-1.8-3.7-4.2c1.2,3.2,1.7,5.7,1,6.2c0,0,0,0,0,0c0.2,0.5,0.4,1.1,0.6,1.6c0.1,0.4,0.3,0.9,0.4,1.3
		C333.6,242.6,335.2,244.2,336.4,244.1z"/>
	<path fill="#009200" d="M331.4,247.4c0.4,0,0.8-0.3,1-0.7c0.6-1.2,0.6-3.6-0.2-6.5c-0.1-0.4-0.2-0.8-0.4-1.3
		c-0.2-0.6-0.4-1.1-0.6-1.6c-0.5,0.4-1.5-0.4-2.7-1.9c1,2.8,1.3,4.8,0.7,5.3c-0.7,0.5-2.4-1.2-4.3-4.1c0.2,0.9,0.4,1.8,0.7,2.8
		c0.3,1,0.7,2,1.1,2.9C328.2,245.3,330.1,247.5,331.4,247.4z"/>
	<path fill="#009200" d="M329.2,240.6c0.6-0.5,0.3-2.5-0.7-5.3c-1-1.2-2.2-3-3.3-5.1l-2.7,2.1c0.8,1.6,1.6,3,2.4,4.2
		C326.7,239.5,328.5,241.2,329.2,240.6z"/>
	<path fill="#009200" d="M328.4,235.3c1.2,1.5,2.2,2.3,2.7,1.9c0,0,0,0,0,0c0.7-0.5,0.2-3-1-6.2c-0.8-1.3-1.6-2.9-2.5-4.6l-3.3,2.5
		c0.2,0.4,0.5,0.9,0.7,1.3C326.3,232.3,327.4,234.1,328.4,235.3z"/>
	<path fill="#009200" d="M334.3,235.1c-0.1,0.1-0.3,0.1-0.5,0.1c1.4,2.3,2.7,4.2,3.9,5.6c1.2,1.4,2.3,2.3,3,2.4c0.2,0,0.4,0,0.6-0.1
		c0.6-0.5,0.6-2.1,0-4.4c-0.7-2.8-2.3-6.7-4.4-10.8l-2.9,2.2l-0.1,0.1C334.6,232.8,334.8,234.7,334.3,235.1z"/>
	<path fill="#009200" d="M330.2,231c1.5,2.4,2.8,4,3.7,4.2c0.2,0,0.3,0,0.5-0.1c0.5-0.5,0.3-2.3-0.4-4.8c0-0.1-0.1-0.2-0.1-0.4
		c-0.6-2-1.5-4.4-2.7-7l-3.5,3.1c0.1,0.1,0.1,0.2,0.2,0.4C328.5,228.1,329.4,229.7,330.2,231z"/>
	<path fill="#804BFF" d="M335.6,203.5c-0.2-0.2-0.5-0.4-0.7-0.6c-0.1,0.1-0.1,0.2-0.2,0.3c-0.4,0.7-0.5,1.5-0.3,2.4
		c0.3,1.5,1.5,3,2.6,3.7c2,1.7,13.5,12.5,21.3,2.6c-1.7,0-3.8-0.9-6-2.2C345.2,212.2,337.3,204.8,335.6,203.5z"/>
	<path fill="#804BFF" d="M333.8,198c-0.2-0.1-0.4-0.3-0.6-0.5c-0.9,1.7,0.3,4,1.6,5.4c0.2,0.2,0.5,0.4,0.7,0.6
		c1.7,1.3,9.6,8.8,16.7,6.2c1.6-0.6,3.2-1.7,4.6-3.6c-1.7,0-3.7-0.8-5.9-2.1C343.8,207.1,335.5,199.4,333.8,198z"/>
	<path fill="#804BFF" d="M334.5,195.2c-0.8,0.6-1.5,1-2.1,1.4c0.3,0.3,0.5,0.6,0.8,0.9c0.2,0.2,0.4,0.3,0.6,0.5
		c1.7,1.4,10,9.1,17.2,5.9c1.4-0.6,2.8-1.7,4.1-3.4c-2.1,0.1-4.7-1.3-7.5-3.1C343.1,199.8,338.1,197.6,334.5,195.2z"/>
	<path fill="#804BFF" d="M344.9,195.4c-3,0.7-6.2,0.3-9-1.2c-0.5,0.4-0.9,0.7-1.4,1c3.6,2.4,8.6,4.6,13.1,2.3
		c1.3-0.7,2.5-1.7,3.7-3.2c-5.4,0.1-15-9.8-20.6-10C335.1,188,340.6,193.7,344.9,195.4z"/>
	<path fill="#804BFF" d="M332.4,196.6c0.6-0.4,1.3-0.9,2.1-1.4c0.4-0.3,0.9-0.6,1.4-1c2.7,1.5,6,1.9,9,1.2
		c-4.3-1.7-9.8-7.4-14.2-11.1c-1.4-1.2-2.7-2.2-3.9-2.8c-5.5-2.9-12.4-2-16.1,0.9c-1.9,1.6-3,4.2-3.1,6.8c0.8-0.9,2-1.4,3.3-1.7
		c3.7-1.1,5.9-0.9,6.6,1.7c0.2,0.8-0.1,1.9-0.9,2.7c0.3,0.2,0.5,0.5,0.5,0.9c0,0.4-0.2,0.7-0.5,0.9c-0.2,1.3-1.6,2.6-3.6,3.4
		c-0.4,0.2-0.8,0.3-1.2,0.3c2.9,1.8,7.3,2.5,12.2,1.8c0.1,0,0.1,0,0.2,0c3.2-0.5,5.1-0.9,7.3-2.1C331.9,197,332.2,196.8,332.4,196.6
		z M321.5,188.7c-1.9,0-3.5-0.9-3.4-2s1.6-1.9,3.5-1.8c1.9,0,3.5,0.9,3.4,2S323.4,188.7,321.5,188.7z"/>
	
		<ellipse transform="matrix(0.9998 1.745510e-002 -1.745510e-002 0.9998 3.3091 -5.5843)" fill="#FF0000" cx="321.6" cy="186.8" rx="3.5" ry="1.9"/>
	<path fill="#FFFF00" d="M316.7,193.7c-0.2,0.1-0.4,0.2-0.7,0.2c-0.6,0-1-0.4-1.1-1c-0.2,0.1-0.4,0.2-0.7,0.2
		c-2,0.7-3.6,2.2-4.7,4.4c0.7,0.1,1.4,0.1,2.2-0.1c0.4-0.1,0.8-0.2,1.2-0.3C315.1,196.4,316.5,195,316.7,193.7z"/>
	<path d="M315,193c0.1,0.5,0.5,1,1.1,1c0.2,0,0.5-0.1,0.7-0.2c0.3-0.2,0.5-0.5,0.5-0.9c0-0.4-0.2-0.7-0.5-0.9
		C316.2,192.3,315.7,192.7,315,193z"/>
	<path fill="#FFFF00" d="M314.3,193.2c0.2-0.1,0.5-0.2,0.7-0.2c0.7-0.3,1.3-0.7,1.7-1.1c0.8-0.8,1.2-1.9,0.9-2.7
		c-0.7-2.6-3-2.7-6.6-1.7c-1.3,0.3-2.5,0.8-3.3,1.7c-1.3,1.4-1.8,3.6-0.6,6.9c0.3,0.1,0.6,0.5,0.6,0.9c0,0.1,0,0.3-0.1,0.4
		c0.3,0.8,0.8,1.7,1.3,2.7c0.2-0.9,0.6-1.7,0.9-2.4C310.7,195.4,312.3,194,314.3,193.2z"/>
	<path d="M307,196.1c-0.1,0-0.2-0.1-0.3-0.1c-0.5,0-0.9,0.4-0.9,0.9c0,0.5,0.4,0.9,0.9,0.9c0.4,0,0.7-0.2,0.8-0.5
		c0.1-0.1,0.1-0.2,0.1-0.4C307.5,196.6,307.3,196.3,307,196.1z"/>
</g>
</svg>
