<?xml version="1.0" encoding="utf-8"?>
<!-- Generator: Adobe Illustrator 17.1.0, SVG Export Plug-In . SVG Version: 6.00 Build 0)  -->
<!DOCTYPE svg PUBLIC "-//W3C//DTD SVG 1.1//EN" "http://www.w3.org/Graphics/SVG/1.1/DTD/svg11.dtd">
<svg version="1.1" id="flag-icon-css-dz" xmlns="http://www.w3.org/2000/svg" xmlns:xlink="http://www.w3.org/1999/xlink" x="0px"
	 y="0px" viewBox="0 0 640 480" enable-background="new 0 0 640 480" xml:space="preserve">
<g>
	<polygon fill="#FFFFFF" points="345.7,240 320,204.8 320,275.2 	"/>
	<path fill="#FFFFFF" d="M532.2,340.6l-2,0.3c-1.9,0.3-2.1,0.2-8-4.2l-6-4.5h-4.6c-2.5,0-5.6-0.1-6.7-0.3l-2.2-0.3l-2.6-4.9
		l-2.6-4.9v-5.1v-5l-6.8-11.7c-3.8-6.5-6.8-11.8-6.8-11.9c0-0.1,0.8-1.3,1.9-2.6c1.6-2,2.5-2.7,5.5-3.9c3.3-1.3,3.7-1.7,5-3.8
		c1.6-2.9,1.5-4.7-0.6-13.3l-1.4-5.8l2-3.6c1.2-2.2,2.4-5.4,3-8.1l1.1-4.4l-1-4.4l-1-4.4l1.6-5.8c1.7-6.5,1.7-5.1-0.3-19.3l-1.2-8.7
		l-3.3-6.4c-1.7-3.5-3.3-7.3-3.5-8.3c-0.3-1.8-0.2-1.9,1.6-3.1c1.1-0.7,1.9-1.3,1.9-1.6c0-0.6-6.6-44.8-6.9-46.2
		c-0.2-0.9-2.1-2.7-8.2-7.2c-7.4-5.5-8-6.1-8.3-7.7c-0.2-1-0.4-2.4-0.5-3.2c-0.1-0.8-1-3.2-2-5.3c-1.7-3.9-1.7-3.9-5.1-5.8l-3.3-1.8
		l-2.2-5.8c-3.3-8.7-3.9-11.6-3.2-14.9c0.8-3.3,2-4.8,4.4-5.4c1.7-0.4,2.2-0.8,3.3-2.8c0.9-1.7,2.1-2.8,4.5-4.4c1.7-1.1,4.1-3,5-4
		l1.9-1.9L474,62c-0.5-2.1-0.4-2.6,0.4-4.6c0.5-1.3,1.8-3.4,2.9-4.8l1.9-2.5l-1.6-1.6c-1.6-1.6-1.6-1.7-0.8-3.2
		c1.7-3.3,1.8-4.4,0.8-7.5c-0.9-2.6-0.9-3.3-0.5-6.7c0.3-2.4,1.2-5.5,2.2-8c0.9-2.3,1.7-4.2,1.6-4.3c-0.1,0-1.2-0.7-2.5-1.3
		l-2.3-1.2l2.9-2c2.4-1.6,2.9-2.2,2.9-3.3c0-1.1,0.4-1.5,2.6-2.6c2.5-1.2,2.5-1.3,2-2.5c-0.5-1-0.8-1.2-3.2-1.2
		c-1.5,0-3.6-0.2-4.8-0.5c-1.9-0.4-2.4-0.2-5,1.2c-1.6,0.9-3.5,1.6-4.3,1.6c-1.1,0-1.5-0.2-1.8-1.6c-0.4-1.4-0.7-1.6-2.6-1.7
		c-1.1-0.1-2.7-0.7-3.5-1.3s-2.8-1.3-4.5-1.5c-4.3-0.7-4.4-0.7-3.3,0.8c0.9,1.1,0.9,1.3,0.2,2.1c-0.7,0.7-1.5,0.8-5.1,0.8
		c-6.6,0-8.7-0.5-10.3-2.3c-1.3-1.4-1.5-1.5-3.5-1.2c-1.7,0.2-2.5,0.7-3.9,2c-0.9,1-2.5,2.2-3.5,2.6c-6.6,3.1-17.3,6-21.7,6h-2.1
		v-1.8c0-2,0-2-3.2-2.6c-0.8-0.2-7.5-0.8-14.7-1.4l-13.2-1l-2.5,1.8l-2.4,1.9l-7-0.3l-7-0.3l-4.7,3.1c-5.1,3.4-7.3,4-9.6,2.2
		c-1.5-1.2-2.4-1.2-6.1,0c-1.7,0.5-5.3,1.1-8,1.4c-1.8,0.2-3.6,0.4-5.4,0.6V120c41.5,0,81.8,21.5,104,60
		c-4.4-5.5-9.4-10.5-14.9-14.9c-26-20.8-59.5-25.9-89.1-16.6v56.3l41.5,13.5l25.7-35.1v43.5L428,240l-40.8,13.3v43.5l-25.7-35.1
		L320,275.2v56.3c36.7,11.7,78.5,0.4,104-31.5c-10.5,18.2-25.7,33.4-43.9,43.9c-19,10.9-39.7,16.1-60.1,16.1v93.1
		c2.4,0.5,3.2,1,4.8,2.3c2.7,2.1,2.8,2.3,2.1,8.9c-0.3,2.4-0.7,3.6-1.8,5.2c-0.8,1.1-1.7,2.8-2,3.9l-0.6,1.8l2,1.8
		c1.1,0.9,2.5,2,3,2.3c0.8,0.4,7-0.9,31.3-6.6c26-6,30.5-7.2,31.6-8.2c0.7-0.7,9.8-9.1,20.2-18.7l18.9-17.5l54.4-34.5
		c29.9-19,54.5-34.6,54.6-34.6c0.1-0.1-1.3-4.3-3.1-9.4L532.2,340.6z"/>
	<path fill="#006233" d="M216.2,300c-33.1-57.4-13.5-130.8,43.9-163.9C279,125.2,299.6,120,320,120V15.4
		c-16.5,2.4-30.7,8.6-36.5,16.3c-1.4,1.8-2.8,3.3-3.1,3.3c-1.3,0-3.9-1.1-5-2.2c-1.7-1.5-3.8-1-4.4,1.1c-0.5,1.8-2.5,2.5-6.4,2.2
		c-2.7-0.2-2.7-0.2-6.7,2.5c-3.3,2.3-4.1,3.1-4.5,4.5c-0.3,1-0.7,2-1,2.3c-0.2,0.2-2.7,1.2-5.4,2.1c-4,1.3-5.6,1.7-8.6,1.7h-3.7
		l3,3.5c5.3,6.3,4.9,5.6,3.9,7.5c-0.8,1.6-0.8,1.7,0,4.1l0.9,2.4l-1.4,1.4l-1.4,1.4l0.9,4.2l0.9,4.2l-1,2.1
		c-0.8,1.5-1.1,2.8-1.1,5.1c0,2.5-0.2,3.3-0.9,4c-0.9,0.8-0.9,0.8,0.8,2.9l1.7,2.1l-1.5,3.3l-1.5,3.3l2.1,2.7c2.3,3,2.4,3.3,1.6,5.4
		c-0.5,1.3-0.4,1.8,0.7,4.3c1.1,2.5,1.7,3.1,5.5,5.8c2.4,1.7,4.2,3.2,4.2,3.3c0,0.2-1.2,0.9-2.8,1.7c-2.5,1.2-2.8,1.5-3.2,3.3
		c-0.4,1.9-0.4,2.2,0.7,3.2l1.1,1.1l-1.3,0.8c-1.3,0.8-1.5,0.8-10.3-0.6c-7.4-1.3-10.2-1.5-15.9-1.5c-5.3,0-7,0.1-7,0.6
		c0,0.3,0.3,2,0.7,3.7c0.3,1.7,0.6,3.1,0.5,3.2s-3.6,0.8-7.8,1.7l-7.6,1.5l-1.5,4.3l-1.5,4.3l2,2.3l2,2.3l-0.9,2.3
		c-0.5,1.2-0.9,2.7-0.9,3.3c0,1.2-1.4,1.7-4.8,1.7c-1.1,0-3.9,0.8-6.9,2.1c-4.6,1.9-5.6,2.1-11.4,2.6l-6.3,0.6L166,169
		c-1.9,1.4-4.9,3-7.5,4c-2.4,0.9-6.8,3.2-10,5c-5.6,3.3-5.7,3.3-5.7,5.1c0,1.5-0.5,2.3-3.6,5.6c-2,2.2-3.7,3.9-3.9,3.9
		c-0.2,0-0.8-0.7-1.4-1.6c-1-1.5-1.3-1.6-4.4-1.9c-4.9-0.4-20.4,0.5-23.4,1.5l-2.5,0.8l-4.1-1.7l-4.1-1.7l-1.4,1.7
		c-0.8,1-1.7,2.2-2.2,2.7c-0.7,0.8-1.3,0.9-5,0.9c-4.2,0-4.3,0-4.3,1c0,0.8-0.8,1.6-3,2.9c-1.6,1-5.6,4.4-8.9,7.6
		c-5.5,5.3-6.2,5.8-8.2,6.1c-1.2,0.1-2.3,0.5-2.4,0.8c-0.2,0.6-4.5,33.6-4.5,34.5c0,0.8,24.5,22.7,28.1,25.2
		c3.2,2.2,9.1,6.8,22.4,17.4c5,4.1,16.1,12.4,24.5,18.6s39.8,29.8,69.7,52.3c48.7,36.9,54.3,41.3,54.5,42.5
		c0.1,1.2,1.6,2.4,13.3,10.7c14.9,10.5,13.6,8.8,12.8,15.6l-0.3,3.1l5.4,2.2l5.4,2.3l0.6,2.4c0.5,2.1,1,2.8,3.8,5.1
		c1.7,1.6,3.3,2.8,3.5,2.8s1.4-0.4,2.6-0.8l2.3-0.8l1.7,2.1c3.6,4.5,3.5,4.4,10.2,5.7c1.6,0.3,2.9,0.5,3.8,0.7V360
		C278.6,360,238.3,338.4,216.2,300z"/>
	<path fill="#006233" d="M274.1,180c-33.1,41.4-26.4,101.8,14.9,134.9c9.5,7.6,20,13.1,30.9,16.6v-56.3v-70.4v-56.3
		C302.5,154,286.4,164.6,274.1,180z"/>
	<polygon fill="#D21034" points="320,275.2 361.5,261.7 387.2,296.8 387.2,253.3 428,240 387.2,226.7 387.2,183.2 361.5,218.3 
		320,204.8 345.7,240 	"/>
	<path fill="#D21034" d="M260.1,136.1C202.7,169.2,183,242.6,216.2,300c22.2,38.4,62.4,60,103.8,60c20.4,0,41.1-5.1,60.1-16.1
		c18.2-10.5,33.4-25.7,43.9-43.9c-25.5,31.9-67.3,43.2-104,31.5c-10.9-3.5-21.4-9-30.9-16.6c-41.4-33.1-48.1-93.6-14.9-134.9
		c12.3-15.4,28.4-26,45.9-31.5c29.5-9.4,63.1-4.3,89.1,16.6c5.5,4.4,10.5,9.4,14.9,14.9c-22.2-38.5-62.5-60-104-60
		C299.6,120,279,125.2,260.1,136.1z"/>
</g>
</svg>
