<?xml version="1.0" encoding="utf-8"?>
<!-- Generator: Adobe Illustrator 17.1.0, SVG Export Plug-In . SVG Version: 6.00 Build 0)  -->
<!DOCTYPE svg PUBLIC "-//W3C//DTD SVG 1.1//EN" "http://www.w3.org/Graphics/SVG/1.1/DTD/svg11.dtd">
<svg version="1.1" id="flag-icon-css-ec" xmlns="http://www.w3.org/2000/svg" xmlns:xlink="http://www.w3.org/1999/xlink" x="0px"
	 y="0px" viewBox="0 0 640 480" enable-background="new 0 0 640 480" xml:space="preserve">
<g>
	<path fill="none" d="M259,480c0.2,0.1,0.4,0.1,0.4,0.1c0,0,0.1,0,0.2-0.1H259z"/>
	<path fill="#FFE800" d="M455.7,158.9L455.7,158.9L455.7,158.9c0,0.3,0.2,1.7,0.4,4.1c0.2-2.2,0.3-4.2,0.3-5.8
		c-0.5-0.2-0.9-0.2-1.2-0.1l1,0.9l0.1-0.1v0.1l-0.1,0l-2,2.1c0.1,0.1,0.1,0.2,0.2,0.3L455.7,158.9
		C455.7,159,455.7,158.9,455.7,158.9z"/>
	<path fill="#FFE800" d="M436.8,178.5c0,0.3,0.1,0.4,0,0.5c0,0.1,0,0.2,0,0.3l14.2-15.1c-0.2,0-0.4,0-0.6,0.1L436.8,178.5z"/>
	<path fill="#FFE800" d="M180.9,162.3c-0.1-0.9-0.1-1.8-0.1-2.6C180.4,160.6,180.5,161.5,180.9,162.3z"/>
	<path fill="#FFE800" d="M459.2,159.7c0,0.8-0.1,1.7-0.1,2.6C459.5,161.5,459.6,160.6,459.2,159.7z"/>
	<path fill="#FFE800" d="M181.1,240c0-1.5,0-3.1,0-4.6c-0.3,1.6-0.6,3.2-0.9,4.6H181.1z"/>
	<path fill="#FFE800" d="M435,180.4l-2.1,2.2c0,0.3,0,0.5,0,0.8l2.3-2.4c0,0,0,0,0,0l0.5-0.5C435.4,180.5,435.2,180.4,435,180.4z"/>
	<path fill="#FFE800" d="M205,180.4c-0.2,0.1-0.4,0.1-0.7,0.1l0.5,0.5c0,0,0,0,0,0l2.3,2.4c0-0.3,0-0.5,0-0.8L205,180.4z"/>
	<path fill="#FFE800" d="M458.9,240h0.9c-0.3-1.4-0.6-3-0.9-4.6C459,236.9,459,238.5,458.9,240z"/>
	<path fill="#FFE800" d="M207.1,174.7c-0.4,1.6-0.6,2.8-0.8,3.7l0.8,0.9C207.1,177.7,207.1,176.2,207.1,174.7z"/>
	<path fill="#FFE800" d="M203.2,178.5l-13.6-14.3c-0.2,0-0.4,0-0.6-0.1l14.2,15.1c0-0.1,0-0.2,0-0.3
		C203.2,178.9,203.2,178.8,203.2,178.5z"/>
	<path fill="#FFE800" d="M433.8,178.4c-0.2-0.8-0.5-2.1-0.8-3.7c0,1.5,0,3,0,4.6L433.8,178.4z"/>
	<path fill="#FFE800" d="M181.2,217.6c0.3-13.2,0.8-25.2,1.4-34.8c-0.6-6.8-1.1-13.1-1.5-18.2c-1.6-0.1-4-0.7-6.2-2.9
		c-3.6-3.5-4.6-9.6-4.6-9.6s3.5,3.6,6,1.1c2.5-2.5,0.5-4.3,0.7-4.2l-1.8-1.8l-6-1.1l0,0l-1.7-9l9.1,1.5l1.1,6l4.1,4.1
		c0.8-0.9,1.8-1,3-1c1.9,0.1,4.1,1.9,4.1,4c0,1-0.6,2-1.4,2.7l1.8,1.8c0.8-0.2,1.7,0,2.5,0.3c1.7,0.7,3.2,3,2.4,5
		c-0.4,0.9-1.1,1.6-2,2l11.6,12.2c0.7-2.8,2-7.3,3.2-12.9c0.1-16.9,0.4-30.9,0.6-39.4l-3-2.2l-11,0.4l6-3.9l-9.2-2.5l-7.3-11.3l0,0
		l12.6,2.8l5.7,8.2l1.1-7.4l3.9,11l1.4,1c0-0.7,0-1.3,0.1-1.8l-1.6-1.7l1.3-1.6l0.4,0.5c0,0,0-0.1,0-0.1l0.1,0.1
		c0-0.7-0.1-1.4-0.1-1.9c-0.1-4.1,1.5-4.4,3.3-4.3c1.5,0.1,3.3,1.1,3.3,2.4c0,1.5-2.3,2.6-4.3,2.3c0,1.1,0.1,2.5,0.2,4.3l1.8,1.9
		c1.1-1,2.2-0.9,3.3-0.5c1.4,0.4,2.6,1.9,2,3.2c-0.3,0.6-0.8,1-1.5,1.2l11.2,11.7c0-0.1,0-0.1,0-0.2l20.7,21.6
		c1.7-1.3,3.4-2.4,5.8-3.8c4.5-2.7,9.3-4.6,13-6.1c-2.9,2.1-7.1,5.4-11.6,8.1c-2.1,1.3-4,2.3-5.9,3.1l5,5.3
		c3.8-3.5,6.4-5.8,11.4-8.9c6-3.6,12.5-5.5,17.7-7c-3.8,3-9,7.9-15,11.5c-4.6,2.8-8.7,4.5-12.9,5.6l6.3,6.6c0.2-0.1,0.4-0.2,0.6-0.2
		c-0.1,0.1-0.3,0.3-0.4,0.4l0.8,0.8c7.2-11.8,16.4-21.2,26.9-27.3l0,0c2.4-1.4,4.9-2.6,7.4-3.6c2.1-0.9,4.3-1.6,6.5-2.2
		c0.3-0.6,0.4-1.1,0.2-1.3c-0.9-0.9-9.8,3.3-9.8,3.3s6.6-3.8,9.8-7.1c1.3-1.3,2.1-3,2.7-4.4c-3.4-4.1-5.4-14.9-8.8-18.2
		c-4-3.9-25.4-5.4-33.5-7.3c-8-2-21.1-3.5-28.2-5.5c-7-2-14.2,5-17.2,5s4-6,1-7s-5,3-7,3s-23.3-4-25.3-5s5-4.9,3-4.9h-5.8
		c0,0.3,0,0.6,0,0.9c0.3,4.8,0.2,5.8-0.7,8.2c-0.6,1.5-1,3.1-1,3.6c0,0.5-0.6,1.1-1.4,1.4c-0.8,0.3-1.6,1.2-2.2,2.4
		c-0.9,2-4,5.1-5.1,5.1c-0.4,0-1.1,1.1-1.8,2.4c-1.2,2.6-3.4,5-4.6,5.1c-0.4,0-1.2,0.3-1.8,0.8c-0.8,0.6-1.3,0.7-2.2,0.2
		c-1.5-0.7-1.6-0.7-1.6,0.4c0,0.5-0.6,1.6-1.4,2.4c-1.7,2.1-2.4,3.3-2.4,4.8c0,1.6-4.3,5.7-6.5,6.1c-2,0.4-2.1,0.6-1.7,3.5
		c0.3,2.2,0.4,2.3,1.6,2.3s1.5,0.4,3,4.1c0.9,2.3,2.5,5.3,3.4,6.8l1.6,2.7h3.8c3,0,3.7,0.1,3.7,0.7c0,0.6-0.8,0.7-4.4,0.7
		c-4.1,0-4.5-0.1-5.2-1c-0.4-0.6-0.8-1.5-0.8-2.1c0-5.3-7.1,5.7-8.9,13.6c-0.7,3.2-3.1,8.9-4.6,10.6c-0.2,0.2-6.9,0.6-10,0.5
		c-1.2,0-2.6,0.2-3.1,0.5c-0.8,0.4-1.6,0.5-3.2,0.1c-2.2-0.5-2.2-0.5-3.3,1.2c-0.6,0.9-1.3,2.4-1.4,3.4c-0.2,1.3-0.7,1.9-1.9,2.5
		c-0.9,0.5-1.6,1-1.6,1.2c0,0.2,0.5,2.1,1,4c0.9,3.2,1.4,4.2,4.6,8.1c2,2.4,4.3,5.6,5.2,7l1.5,2.5l-0.8,2.4
		c-0.4,1.4-0.8,3.1-0.8,3.9c0,1-0.6,2.1-1.7,3.5c-1.5,1.7-1.6,2.3-1.5,4c0.1,1.6,0,2-0.6,2c-0.5,0-1.1,0.8-1.5,2.2
		c-1,2.9-0.9,3.3,0.5,5.2c0.7,0.9,1.5,2.7,1.8,3.9c0.4,1.3,1.2,3,1.8,3.9c0.5,0.6,1,1.6,1.3,2.6h46.3
		C178,234.1,179.6,226.4,181.2,217.6z M264.3,152.5c-0.8,0.5-1.9,0.3-2.3-0.4c-0.4-0.7,0-1.6,0.8-2.1c0.8-0.5,1.9-0.3,2.3,0.4
		C265.5,151.1,265.2,152,264.3,152.5z M297.1,133.5c-1.7,1.3-4.3,3.6-6.8,5c-0.3,0.2-0.7,0.4-1,0.5c-0.6,0.8-1.3,1.7-2,2.5
		c-2.5,2.9-4.8,4.6-7.3,6.1c1.8-3.1,2.8-4.8,4.8-7.2c-0.3,0-0.6,0.1-0.9,0.1c1.7-1.5,2.8-2.5,4.1-3.4c1.9-1.7,3.8-3,5.4-4.2
		c-0.4,0.5-0.8,1.1-1.2,1.8C294,134,295.7,133.7,297.1,133.5z M279.7,132.9c1.4-3.1,3.5-6,5.1-8.3c-0.8,2.1-1.6,5.2-3.1,8.3
		c-1.4,3.1-3,5.4-4.8,7.7C277.9,137.6,278.3,136,279.7,132.9z M273.7,143.7c0.8-0.5,1.9-0.3,2.3,0.4s0.1,1.6-0.8,2.1
		c-0.8,0.5-1.9,0.3-2.3-0.4C272.5,145.1,272.8,144.2,273.7,143.7z M248.1,140.6c0.5-6,2.2-11.8,3.6-16.4c0,4,0.4,9.8-0.1,15.8
		c-0.4,4-1,7.4-1.9,10.7c1.4-2.6,2.6-4.6,4.1-6.7c0.5-1.9,1.2-3.8,2.1-6.1c2.4-6,5.8-10.8,8.6-14.6c-1,3.6-2.1,8.9-3.8,14
		c1.4-0.9,2.8-1.6,4-2.2c-2,3.1-4.7,8.1-7.8,11.7c-0.3,0.4-0.6,0.7-0.9,1c-1.3,2.2-2.8,4.2-4.3,6c0.2-1,0.4-1.9,0.6-2.8
		c-1,0.7-2,1.2-3.1,1.7c-0.3,0.8-0.5,1.7-0.8,2.5C247.8,149.4,247.5,146.5,248.1,140.6z"/>
	<path fill="#FFE800" d="M267.5,14.5c0.5-0.4,0.7-0.4,0.9,0c0.6,1,2.1-0.9,2.4-3.1c0.4-2.9-0.1-5.3-1.2-5.3c-0.5,0-1.1,0.3-1.5,0.7
		c-0.3,0.4-0.9,0.7-1.4,0.7c-0.4,0-1.5,0.8-2.3,1.9c-1.5,1.9-1.5,2-0.8,3.5C264.4,14.5,266.4,15.3,267.5,14.5z"/>
	<path fill="#FFE800" d="M400,95.9c-2,1,0,13-3,7.7c-4.6-1-21.7-3.7-24.7-3.7s-8.7,3.4-16.8,5.4c-8,2-18.2,5-18.2,5l13.2,20.7
		l-16.2,8c0,0-1-2.4-2.6-5.7c0,0.5-0.1,1-0.1,1.2c-0.2,0.6,0.2,2.4,0.6,4.5c4.7,1.3,9.3,3.3,13.7,5.8l0,0v0
		c11.3,6.6,21.1,17,28.6,30l6.2-6.4c-2-2.7-3.7-4.9-4.7-6.3c-0.9-0.8-1.3-1.4-1.3-1.7c0,0,0.5,0.6,1.3,1.7c1.2,1.2,3.2,2.9,5.7,5.3
		l1.9-2c-2.7-4.1-4.8-7.3-6.1-9.1c-0.9-1-1.3-1.6-1.3-1.9c0,0,0.5,0.7,1.3,1.9c1.4,1.6,4,4.2,7.3,7.9l1.8-1.9
		c-3.4-6-6.2-10.7-7.7-13.2c-0.8-1-1.2-1.7-1.2-2c0,0,0.4,0.7,1.2,2c1.7,2.1,5,5.9,9.1,11.6l3.1-3.3c-4.8-9.2-9.1-16.8-11.1-20.3
		c-0.9-1.1-1.3-1.8-1.2-2.1c0,0,0.5,0.8,1.2,2.1c1.6,2.1,4.5,5.6,8.2,10.7c-3.3-7.2-6.2-13-7.7-15.9c-0.8-1.2-1.2-1.9-1.1-2.2
		c0,0,0.4,0.8,1.1,2.2c2.3,3.4,7.8,10.7,14,22l2-2.1c-5.9-13.1-11.5-24.2-14-29c-0.9-1.3-1.4-2.2-1.3-2.5c0,0,0.5,0.9,1.3,2.5
		c1.9,2.9,5.7,8.1,10.5,15.8c-4.3-11.1-8.2-20.2-10.1-24.5c-0.8-1.4-1.2-2.3-1.1-2.6c0,0,0.4,0.9,1.1,2.6c2.7,4.8,9.9,16,17.5,33.5
		l2.4-2.5c-2.7-8.9-5-16.2-6.3-19.9c-0.7-1.6-1-2.6-0.9-2.8c0,0,0.3,1,0.9,2.8c1.4,3.3,4.3,9.6,7.8,18.3l1-1.1
		c-1.9-7.4-3.5-13.3-4.4-16.6c-0.6-1.6-0.9-2.5-0.8-2.7c0,0,0.3,1,0.8,2.7c1.1,2.9,3.2,8.1,5.8,15.1l2.3-2.4
		c-0.2-0.8-0.4-1.6-0.5-2.2c-0.5-1.6-0.7-2.5-0.6-2.7c0,0,0.2,1,0.6,2.7c0.2,0.6,0.4,1.3,0.7,2.1l3.5-3.7c0,0.1,0,0.1,0,0.2
		l11.2-11.7c-0.7-0.3-1.2-0.7-1.5-1.2c-0.6-1.3,0.6-2.8,2-3.2c1.1-0.4,2.2-0.5,3.3,0.5l2-2c0.1-1.7,0.2-3.1,0.2-4.1
		c-2,0.4-4.3-0.8-4.3-2.3c0-1.3,1.8-2.3,3.3-2.4c1.8-0.1,3.4,0.2,3.3,4.3c0,0.5,0,1.1-0.1,1.8l0,0c0,0,0,0,0,0.1l0.4-0.5l1.3,1.6
		l-1.6,1.7c0,0.5,0,1.2,0.1,1.8l1.4-1l3.9-11l1.1,7.4l5.7-8.2l12.6-2.8l0,0l-7.3,11.3l-9.2,2.5l6,3.9l-11-0.4l-3,2.2
		c0.2,8.5,0.5,22.5,0.6,39.4c1.2,5.5,2.5,10.1,3.2,12.9l11.6-12.2c-0.9-0.4-1.6-1.1-2-2c-0.8-2,0.7-4.4,2.4-5
		c0.8-0.3,1.6-0.5,2.5-0.3l1.8-1.8c-0.8-0.7-1.4-1.6-1.4-2.7c0-2.1,2.2-3.9,4.1-4c1.1,0,2.2,0.1,3,1l4.1-4.1l1.1-6l9.1-1.5l-1.7,9
		l0,0l-6,1.1L463,149c0.2,0-1.8,1.8,0.7,4.2c2.5,2.5,6-1.1,6-1.1s-1.1,6-4.6,9.6c-2.2,2.2-4.6,2.7-6.2,2.9
		c-0.3,5.1-0.8,11.4-1.5,18.2c0.6,9.7,1.1,21.6,1.4,34.8c1.5,8.7,3.2,16.4,4.5,22.4h40.3c8.1-9.6,14.5-16.9,15-17.2
		c1-0.5,1.6-2.5,7.2-23.2c3.3-12.5,6.1-22.8,6.2-22.9c0.1-0.1,1.1,0.7,2.3,1.8c1.9,1.7,2.3,1.9,3.6,1.6c2-0.5,3-0.5,5.6-0.1
		c2.5,0.4,2.7,0,1.3-2.1c-0.6-0.7-1.1-2.4-1.3-3.8c-0.1-1.4-0.6-3-0.9-3.5c-0.4-0.6-0.6-1.7-0.6-2.6c0-0.9-0.4-2.9-1-4.5
		c-1-2.8-1-2.9-0.2-3.8c0.7-0.7,0.7-1.2,0.4-2.1c-0.5-1.3,0-2.1,1.6-3c0.3-0.2,0.8-1.5,0.9-3l0.3-2.6l-2.2-2.2
		c-1.2-1.2-2.4-2.2-2.8-2.2c-0.3,0-0.9-0.5-1.2-1.2c-0.5-0.9-1-1.2-2.3-1.2c-1.5,0-1.9-0.3-3.4-2.3c-1.9-2.5-3.1-5.5-3.1-7.6
		c0-0.8-0.7-2.8-1.5-4.6c-1.4-3-1.6-3.4-4.7-5.2c-2.3-1.4-3.7-1.9-5.1-1.9h-1.9v-2.8v-2.8l1.5,0.3c0.8,0.1,2.3,0,3.4-0.3
		c1.6-0.4,1.9-0.4,3.5,0.8c0.9,0.8,2.9,1.9,4.3,2.6l2.5,1.3l0.7-1c0.5-0.8,1.2-1,2.8-1c2.3,0,4.7-0.9,5.8-2.1
		c0.6-0.8,0.6-0.9-0.7-1.9c-1-0.8-2.2-1.2-5.2-1.4c-3.5-0.3-4.2-0.5-6.2-2.1c-1.3-0.9-3.2-2.3-4.4-3c-1.1-0.7-3.6-2.4-5.5-3.8
		l-3.5-2.5l-4.7,0.3c-6,0.5-8.5-0.2-9.8-2.7c-0.9-1.7-2-2.3-6.5-3.8c-1.3-0.4-2.3-1-2.5-1.3c-1.6-4.7-2.3-6-3.5-6.7
		c-0.8-0.5-1.4-1.1-1.4-1.4s-0.5-1.5-1-2.7c-1.2-2.5-2.6-3.3-4.6-2.5c-1.5,0.6-1.5,0.6-3-2.2c-0.6-1.2-3.2-2.1-6.1-2.1
		c-2.5-0.1-3.9-0.9-4.9-2.8c-0.8-1.5-3-1.4-4,0.1c-0.4,0.7-1.8,1.7-3.2,2.5l-2.5,1.3l0.2,5.5l0.1,2.4c7.9,3.1,13.2,5.3,13.2,5.3
		S414.9,98,400,95.9z"/>
	<path fill="#FFE800" d="M108.9,199.6c-0.2-0.1-1-0.1-1.7,0c-1.2,0.1-1.3,0.3-1.2,1.9c0.1,1.7,0.2,1.7,2.4,1.9
		c1.2,0.1,2.2,0,2.2-0.1C110.6,202.6,109.2,199.8,108.9,199.6z"/>
	<path fill="#FFE800" d="M183.9,158.1l1-1c-0.3-0.1-0.8-0.1-1.3,0.1c0.1,1.8,0.2,3.9,0.3,6.4c0.2-2.7,0.4-4.4,0.4-4.7l-0.1-0.1
		l0.1,0c0,0,0,0,0,0.1l1.4,1.5c0.1-0.1,0.1-0.2,0.2-0.3l-2.1-2.2L183.9,158.1z"/>
	<path fill="#FFE800" d="M186.8,80.1c0.3,0,0.8-0.2,0.9-0.5c0.1-0.3,0-0.5-0.4-0.5s-0.9-0.4-1.2-0.9c-0.5-0.9-1.9-1.3-1.9-0.5
		C184.2,78.4,186.1,80.1,186.8,80.1z"/>
	<path fill="#FFE800" d="M281.7,54.9c7,0,19.2,17.8,21.2,17.8s10.1-5,20.3-5c10.2,0,16.1,8,18.2,8h18.2c2,0-6.1-19.8,0-18.8
		c1.5,0.3,9.1,1.4,19.3,3.6c-0.3-0.9-0.6-1.8-1.1-2.3c-1-1-1.3-1.1-2.3-0.6c-1.6,0.9-3.5,0.2-7.5-2.7c-4-2.9-5.1-4.6-4.2-6.3
		c0.4-0.8,0.1-1.2-1.6-3l-2.1-2.1l-1.5,0.8c-0.8,0.4-2.2,0.7-3,0.7c-1-0.1-1.9,0.1-2.6,0.8c-1.2,1.1-3.8,1-5.7-0.1
		c-0.9-0.6-1.4-1.3-1.6-2.6c-0.3-1.9-0.7-2.1-1.5-1.3c-0.4,0.4-1.4,0.1-3.7-0.9c-2.8-1.3-3.5-1.5-5.8-1.2c-2.7,0.3-2.7,0.3-6.1-2.1
		c-1.9-1.3-3.8-2.4-4.1-2.4c-0.4,0-1.5-0.9-2.5-2.1s-2.4-2.3-3.1-2.5c-0.7-0.2-2.3-0.8-3.6-1.3c-2.7-1-9.6-7.1-11.3-10
		c-1.2-1.9-2.5-2.5-6.6-2.5c-1.1,0-1.6-0.3-1.8-0.9c-0.2-0.5-0.7-0.9-1.2-0.9c-0.7,0-0.9-0.3-0.9-1.5c0-1.4,0-1.5-1.6-1.2
		c-1.8,0.4-3.9-0.4-4.3-1.6c-0.4-1.1-4.3-4.6-5.2-4.6c-0.6,0-0.7-0.3-0.5-1.4c0.2-1.2,0.1-1.5-0.8-1.7c-0.6-0.2-1.8-0.9-2.7-1.6
		c-1.7-1.4-2.1-1.5-3.1-1c-0.5,0.1-0.4,0.6,0.1,1.8c0.7,1.6,0.7,1.6-1.2,3.3c-2.4,2.2-2.5,3.7-0.3,4.6c2.3,1,2.5,1.6,0.4,1.3
		c-1.4-0.2-1.9,0-2.1,0.5c-0.1,0.4-0.8,1.6-1.5,2.6c-1.1,1.7-1.3,1.9-2.4,1.5c-1.5-0.6-1.9,0.1-2.3,3.8c-0.2,1.7-0.7,3.1-1.4,4
		l-1.1,1.4l-0.6-2.4c-0.3-1.4-0.8-3-1.2-3.8c-0.7-1.3-3-3.7-3.2-3.3c-0.1,0.1-1,1.4-2,2.8s-2.8,3.8-4.1,5.2l-2.3,2.7l-5.7,0.3
		c-10.4,0.6-13.7,0.8-14.8,1c-0.6,0.1-2,1-3,2c-3.9,3.6-5,3.9-9.9,3.7c-3.1-0.2-4.6,0-5.4,0.4c-0.6,0.3-1.9,0.6-2.9,0.7
		c-1.5,0-1.9,0.2-2.7,1.6c-1.5,2.3-7.5,6.3-9.8,6.3c-0.5,0-2.3,0.8-4.1,1.6c-3.6,1.8-4.6,2-6.1,0.9c-0.9-0.7-1.1-0.6-3.1,1.9
		c-1.9,2.4-2.1,2.9-2.4,6.1c-0.2,1.9-0.2,4.2,0,5.1c0.3,1.5,0.4,1.5,1.9,1.2c1.5-0.3,1.7-0.3,2.1,0.8c0.2,0.6,0.4,1.3,0.4,1.5
		c0,0.1,0.4,0.7,0.9,1.2c0.9,1,0.9,2.2-0.5,7.4c-0.8,2.9,0.1,5.7,2,6.8c1.7,1,2.1,2.4,1,4.4c-0.8,1.5-0.8,1.5-1.2,0.5
		c-0.2-0.6-0.7-1-1.1-1c-0.9,0-1.3,2.8-1.1,7.7c6-3.2,23.4-12.1,42.7-19C245.1,62.8,263.2,58,281.7,54.9z"/>
	<path fill="#FFE800" d="M262.1,14c0-0.5-2-0.7-2.5-0.1c-0.2,0.2,0.2,0.8,0.8,1.5s1.7,2.4,2.4,3.8c0.7,1.4,1.4,2.7,1.5,2.8
		c0.5,0.5,1.1-1.4,1.1-3.3c0-2.2-0.7-3.2-2.4-3.8C262.4,14.6,262.1,14.3,262.1,14z"/>
	<path fill="#FFE800" d="M311.1,134.5c-0.1,0.4,0.1,1.5,0.3,2.9c2.1-0.3,4.3-0.4,6.5-0.4c1,0,1.9,0,2.9,0.1c1.4-1.1,2.7-2.3,3.8-3.4
		c2.5-2.7,3.3-6.4,3.5-8c-2.9-5.4-6-10.5-7.9-10.5c-3.4,0-5.3,11.8-8.8,15C311.3,132.1,311.3,133.9,311.1,134.5z"/>
	<path fill="#00148E" d="M205.6,358.3l-1.6,1.7h3.3C206.7,359.5,206.1,358.9,205.6,358.3z"/>
	<path fill="#00148E" d="M184.4,297.7c-0.9,1-0.4,2.5,0.8,3c-0.2-1.1-0.3-2.3-0.5-3.4C184.6,297.5,184.5,297.6,184.4,297.7z"/>
	<path fill="#00148E" d="M204.3,356.8c-4-4.8-7.3-11.1-10.1-18.4c-0.7,1.9-1.3,3.7-1.6,4.6c-0.5,1.7-1.4,3-3.1,4.7
		c-1.4,1.4-2.4,2.8-2.4,3.4c0,0.5-0.3,1-0.6,1c-0.4,0-0.5-0.6-0.4-1.8c0.2-1.9-0.5-3.8-1.4-3.8c-0.2,0-0.8,0.8-1.2,1.7
		c-0.4,1-1.4,3-2.3,4.5c-1.5,2.4-1.8,2.7-3.6,3c-1.1,0.1-3.4,0.5-5.1,0.8c-2.5,0.4-3.3,0.4-3.8-0.1c-1-0.8-2.2-0.2-2.2,1.2
		c0,1.8-0.8,1.4-1-0.4l-0.1-1.6l-1.3,1.8l-1.3,1.8l1.4,0.9h37.2L204.3,356.8z"/>
	<polygon fill="#00148E" points="273.2,355.6 273.2,353.2 272.7,353.2 266.2,360 273.2,360 273.2,355.6 	"/>
	<path fill="#00148E" d="M260.3,360h2.8l6.4-6.7C267,355.6,264,358,260.3,360z"/>
	<path fill="#00148E" d="M465.9,252.3c0,3-2.7,2.8-3.6,0.7c0-0.6-1.1-5.5-2.5-13h-0.9c-0.2,14.8-0.8,30.2-2.2,45l3.2-2.4l21.7-16.4
		l18-21.5c1.4-1.7,2.7-3.3,4.1-4.8h-40.3C464.9,247.2,466.1,251.7,465.9,252.3z"/>
	<path fill="#00148E" d="M180.1,240c-1.5,7.5-2.5,12.4-2.5,13c-0.8,2.1-3.6,2.4-3.6-0.7c-0.2-0.6,1-5.1,2.6-12.3h-46.3
		c0.2,0.4,0.3,0.8,0.4,1.2c0.3,1.3,0.7,2.5,0.9,2.8c0.2,0.3,0.7,2.1,1.2,4c0.8,3.5,0.8,3.5-0.3,4.3c-0.9,0.8-1,1-0.5,3.5
		c0.6,2.6,0.6,2.7-1.5,6.7c-1.6,3.2-2.2,4-2.9,3.9c-0.6-0.1-1.5,0.4-2.3,1.4c-0.8,0.9-2.6,2.1-4.2,2.7c-2.5,1-2.8,1-3.6,0.3
		c-0.5-0.4-1.2-0.8-1.6-0.8c-0.4,0-1.2-0.2-1.8-0.5c-2.6-1.4-1.1,2.1,2,4.5c1.7,1.4,2.4,2.3,2.8,3.7c0.8,3.1,0.8,3.2,2,2.9
		c0.8-0.2,1.4,0,2.2,1c1.8,1.9,5.6,3.4,8.9,3.4c1.5,0,3.3,0.2,3.8,0.5c1.8,1,11.1,9.8,14.8,14.1c3,3.5,3.8,4.2,5.3,4.4
		c2.1,0.3,2.3,0.4,3.9,2.6c0.7,1,1.6,1.8,1.9,1.8c0.3,0,1.5,0.6,2.8,1.4c4.2,2.7,6.8,1.3,4.9-2.4c-0.5-1-1.2-1.8-1.6-1.8
		c-0.9,0-0.8-2.1,0.1-2.9c0.6-0.5,0.9-0.5,1.5,0c0.5,0.3,1.1,0.7,1.4,0.8c0.6,0.3,2.8-1.3,5.4-3.9c1.9-1.9,6-7.6,6-8.5
		c0-0.4,0.6-1.8,1.3-3.1c-1.7-15.7-2.4-32.3-2.5-48H180.1z"/>
	<path fill="#00148E" d="M180.7,324c-0.4,0.8,0.6,1.5,1.5,1.2c0.7-0.2,0.7-0.4,0.2-1C181.6,323.3,181.1,323.3,180.7,324z"/>
	<path fill="#00148E" d="M184.1,306.2c-1.3,0.2-2.9,0.8-3.6,1.4c-0.7,0.5-2,1.1-2.9,1.4c-3.9,1-5.1,1.6-5.1,2.6
		c0,0.5-0.8,2.1-1.8,3.5c-2.1,3-2.9,6.8-2.9,13.3c0,3.6,0.1,4,1,4.7c1.6,1.1,5,1,6.3-0.3c0.9-0.8,1.2-0.9,2.3-0.4
		c1.6,0.7,2.2,0.2,2.9-2.7c0.5-1.9,0.5-2.5-0.1-3.7c-0.4-0.8-0.8-2.1-1-2.9c-0.1-0.8-0.6-1.5-0.9-1.5c-0.4,0-0.7-0.4-0.7-1
		c0-1.9,5-3,7.7-1.6c1.8,0.9,2,0.9,2.4-0.4c0.1-0.3,0.2-0.7,0.4-1c-0.8-3.8-1.6-7.8-2.2-11.8C185.5,305.9,184.9,306.1,184.1,306.2z"
		/>
	<path fill="#00148E" d="M184.6,322.4c1.3-1.2,1.3-1.4-0.3-2.3c-1.6-0.9-2.5-1-3.2-0.2c-0.3,0.3-0.6,1-0.6,1.6
		C180.5,323.1,183.1,323.7,184.6,322.4z"/>
	<path fill="#DA0010" d="M261.8,478.2c1.5-1.4,2.1-2.3,2.1-3.2c0-0.7,0.2-1.9,0.5-2.8c0.5-1.3,0.7-1.5,2-1.4
		c2.2,0.1,4.5-0.9,4.8-2.2c0.2-0.8-0.1-1.4-0.9-2.3c-1.5-1.5-1.5-3.2-0.3-6c1.8-4.2,9.9-10.2,13.8-10.2c2.2,0,4.5-2.6,4.5-5.1
		c0-1.8,1.5-4.8,2.3-4.8c0.2,0,0.5-0.6,0.5-1.3c0-1-0.3-1.4-1.4-1.8c-1-0.4-1.5-1-1.9-2.3c-0.8-3-0.6-4.7,0.9-7.1
		c0.8-1.2,1.4-2.5,1.4-2.8c0-0.1,0-0.1,0-0.2c-0.6,0.1-1.2,0.2-1.8,0.2c0-0.5,0-1,0.1-1.5c-0.5-0.3-1-0.5-1.5-0.8H287
		c0.7-0.7,1.4-1.5,2-2.3c0.8-3.5,2.4-7.6,4.3-13c-7.4,1.6-12.8,11.2-15.2,6.5c-1.5-3.8,1.9-14.7,5.6-29.4c-1.9,0.7-3.8,1.2-5.7,1.2
		c0-3,1.1-5.3,2.6-8c-6.4,1.1-11,5.4-13.2,2.6c-1.5-2.6,2-9.6,5.7-19.1l0-0.7h0l0-0.4h-7l-41,43.3l-0.4-0.4l-8.1,8.1l-10.1,7.6
		l7.6-10.1l8.9-8.9l1.3,1.3l38.8-41h-2.8c-2.2,1.2-4.7,2.4-7.4,3.4l-0.5,1.6l-0.4-1.2c-6.9,2.4-15.6,3.9-26.6,3.9
		c-7.1,0-13.1-2.8-18.1-7.6h-3.3l-2.9,3l0,0l-0.8,0.8l-3.3,3.5l-0.1-0.1l-4.7,4.7l-10.1,7.6l7.6-10.1l8.9-8.9l1.1,1.1l1.5-1.6H164
		l0.4,0.2c1,0.6,2.6,1.3,3.6,1.5c1.5,0.2,1.7,0.4,1.5,1.1c-0.2,0.4-0.4,1.6-0.6,2.6c-0.2,1.6-0.1,1.7,1,1.7c1.4,0,1.5,0.8,0.8,4.6
		c-0.4,1.8-0.3,2.1,0.5,2.3c1.2,0.3,1.7,3.1,0.9,5.1c-0.4,1.2-0.4,2.1,0,3.5c0.4,1.5,0.4,2.3-0.1,3.6c-0.6,1.6-0.5,1.7,0.7,2.7
		c1.4,1.1,2.3,3,2.3,4.7c0,0.6,0.4,1.6,0.9,2.3l1,1.2l-1.3,0.8c-0.7,0.4-2,1.4-2.9,2.1c-0.8,0.7-1.9,1.3-2.4,1.3
		c-0.5,0-1.5,0.9-2.4,2.3c-2.2,3.2-3.4,3.7-5.4,2.2c-0.9-0.7-1.6-1.4-1.6-1.7c0-0.8-3.6-0.5-5.8,0.5c-1.6,0.7-2.2,1.2-2.4,2.3
		c-0.1,0.8-0.6,1.6-1,2c-0.9,0.8-0.8,3.2,0.3,4.9c0.6,0.8,0.9,2.2,0.9,3.4c0,2.6,1.3,5.3,2.6,5.3c0.5,0,1.8-0.4,2.8-1
		c1.1-0.6,2.4-0.9,3.4-0.8l1.6,0.1l-4.1,5.4c-2.3,3-4.6,5.9-5.2,6.6c-1,1.1-1.1,1.4-0.7,3.7c0.2,1.4,0.5,2.5,0.6,2.6
		c0.1,0.1,1.4,0.6,2.8,1.2c2.5,1,2.7,1,4.9,0.3c1.3-0.5,3.1-1.6,4.1-2.6c1-1,2.1-1.8,2.3-1.8c0.3,0,1.1-0.6,1.7-1.3
		c0.7-0.8,1.6-1.5,2-1.8c0.4-0.2,1.6-1.6,2.7-3.1c1.4-1.8,2.3-2.7,3-2.7c1.3,0,7.4,2.9,8.2,3.9c0.4,0.4,2,1.5,3.7,2.4
		c2.8,1.6,3.1,1.6,4.6,1.1c1.6-0.6,1.7-0.6,3.3,1c0.9,0.9,2.1,2.3,2.7,3.1c0.6,0.8,1.7,1.8,2.6,2.2c1.5,0.6,1.9,0.6,4.1-0.2
		c1.4-0.5,2.9-0.9,3.4-0.9s1.1-0.3,1.3-0.7c0.2-0.3,1-0.8,1.8-0.9c1.2-0.2,1.7,0.1,4,2.1c2.8,2.6,6.1,4.4,7.5,4
		c1.4-0.4,1.6,1.4,0.4,3.6l-1.1,2l2.7,6c2.2,4.9,2.6,6.3,2.3,7.5c-0.3,1.5-0.2,1.7,2.3,3.3c1.9,1.2,2.7,2.1,3,3.1
		c0.3,1.1,0.9,1.7,2.3,2.5c1,0.5,1.9,1.1,2,1.3c0,0.2,0.5,1.2,1.2,2.2l1.2,1.8l6.4,0.3c4.9,0.2,7,0.5,9,1.2c1,0.4,2,0.7,2.5,0.9h0.6
		C260,479.8,260.9,479,261.8,478.2z"/>
	<path fill="#DA0010" d="M322,365.9L322,365.9L322,365.9L322,365.9l0.1-0.1v-0.6h-4c0.1,0.4,0.1,0.8,0.2,1.4c0.2,1.9,0.4,2.7,1,2.8
		c0.4,0.1,1.6-0.6,2.8-1.4v-2H322z"/>
	<path d="M269.5,353.2C269.5,353.3,269.5,353.3,269.5,353.2l-6.4,6.8l-38.8,41l1.2,1.2l-0.7,0.7l0.4,0.4l41-43.3l6.4-6.8H269.5z"/>
	<path d="M204.3,356.8l-3.1,3.2l-1.5,1.6l1.4,1.4l2.9-3l1.6-1.7C205.1,357.8,204.7,357.3,204.3,356.8z"/>
	<polygon points="197,367.3 200.3,363.8 196.9,367.2 	"/>
	<polygon fill="#808080" points="224.3,401 223,399.7 214.2,408.5 206.5,418.6 216.6,411 224.8,402.9 225.5,402.1 	"/>
	<polygon fill="#808080" points="198.6,360.6 189.8,369.4 182.1,379.5 192.2,371.9 196.9,367.2 200.3,363.8 201.1,363 201.1,363 
		199.7,361.6 	"/>
	<path fill="#FFDF00" d="M208.1,114.9l-0.1-0.1c0,0,0,0,0,0.1L208.1,114.9C208.1,115,208.1,115,208.1,114.9z"/>
	<path fill="#FFDF00" d="M208.3,118.2l-0.5-0.5c0,0.5,0,1.2-0.1,1.8l0.7,0.5C208.4,119.4,208.4,118.8,208.3,118.2z"/>
	<path fill="#FFDF00" d="M207.1,182.6c0,0.3,0,0.5,0,0.8l20.1,21.5c0-0.4,0-0.7,0-1.1L207.1,182.6z"/>
	<path fill="#FFDF00" d="M208.9,124.5l-1.3-0.9c-0.2,8.5-0.5,22.5-0.6,39.4c1.5-6.9,3-15.3,3.6-24
		C210,133.9,209.4,128.9,208.9,124.5z"/>
	<path fill="#FFDF00" d="M212.3,119.5C212.4,119.5,212.4,119.5,212.3,119.5l-1.8-2c0,0,0,0.1,0,0.1L212.3,119.5z"/>
	<path fill="#FFDF00" d="M227.4,135.5c0-0.1,0-0.2,0-0.4l-11.2-11.7c0,0-0.1,0-0.1,0L227.4,135.5z"/>
	<path fill="#FFDF00" d="M227.2,161.1c0-1.5,0-2.9,0-4.3c-0.2-0.3-0.5-0.6-0.7-0.9c-3.6-4.3-5.7-9.8-7.3-14.2c2.1,1.8,5.2,4,8.1,6.7
		c0-4.2,0.1-7.6,0.1-10.1l-14-14.8c-0.3-0.1-0.6-0.2-0.9-0.3c0.5,3.7,0.6,7.8,0.5,12c1.2,7.7,2.6,15.9,3.8,22.5
		C219.9,158.7,223.6,159.7,227.2,161.1z"/>
	<path fill="#FFDF00" d="M227.2,200.4c0-1.9,0-3.7,0-5.6c-3-1.3-5.3-2.6-8.4-5c-4.5-3.6-7.3-8.5-9.4-12.5c3.6,2,9.4,4.3,13.9,8
		c1.5,1.2,2.8,2.4,3.9,3.7c0-7.9,0-15.4,0-22.2c-0.4-0.2-0.8-0.3-1.2-0.5c-3.4-1.6-6.2-3.6-8.7-5.8c1.1,5.8,1.9,9.8,2.1,10.1
		c0,1.3-1.9,1.9-2.8,0.3c-0.8-1.6-2-7-3.1-13.9c-0.1-0.1-0.2-0.2-0.3-0.3c0.1,0,0.2,0.1,0.3,0.1c-0.5-2.8-1-5.9-1.4-9.1
		c-1.3,10.9-3.6,21.1-4.9,26.9c0,1.5,0,3,0,4.6L227.2,200.4z"/>
	<path fill="#FFDF00" d="M211,121.3c0-0.1,0.1-0.1,0.1-0.2l-0.2-0.2C210.9,121.1,210.9,121.2,211,121.3z"/>
	<path fill="#0000C4" d="M254.4,163.1C254.4,163.1,254.4,163.1,254.4,163.1l-5-5.3c0,0,0,0,0,0L254.4,163.1z"/>
	<path fill="#0000C4" d="M262,171C262,171,262,171,262,171l-6.3-6.6c0,0,0,0,0,0L262,171z"/>
	
		<rect x="262.5" y="171" transform="matrix(-0.5216 0.8532 -0.8532 -0.5216 545.9244 37.1615)" fill="#0000C4" width="0" height="1.2"/>
	<path fill="#0000C4" d="M238.2,168.1c-0.2-8.1-0.4-14.7-0.4-18.7l-10.4-11c0,2.4-0.1,5.9-0.1,10.1c1.1,1,2.2,2.2,3.3,3.4
		c3.6,4.3,5.4,8.5,6.8,13.2c-4.4-3-6.9-4.5-10.1-8.2c0,1.4,0,2.8,0,4.3c0.6,0.2,1.1,0.5,1.7,0.7
		C232.8,163.7,235.7,165.8,238.2,168.1z"/>
	<path fill="#0000C4" d="M227.2,203.8c0,0.4,0,0.7,0,1.1l13.5,14.5c0-0.5-0.1-0.9-0.1-1.4L227.2,203.8z"/>
	<path fill="#0000C4" d="M238.3,170.2c-4.3-0.9-7.2-1.6-11.2-3.3c0,6.8,0,14.3,0,22.2c2.2,2.5,3.7,5.1,4.9,7.9
		c-1.9-0.8-3.5-1.4-4.9-2.1c0,1.8,0,3.7,0,5.6l13.2,13.9c-0.6-8.1-1-16.2-1.4-23.9c-2.1,2.3-4.3,4.3-6.7,6.2
		c0.9-2.7,1.6-4.8,2.4-6.8c-0.9,0.3-1.8,0.6-2.8,0.9c1.6-1.7,3-3.1,4.3-4.4c0.7-1.4,1.4-2.8,2.4-4.4
		C238.5,177.8,238.4,173.9,238.3,170.2z"/>
	<path fill="#0000C4" d="M237.8,146.4c0-0.2,0-0.4,0-0.6v0l10.3,10.7c0,0,0,0,0,0l-20.7-21.6c0,0.1,0,0.1,0,0.2c0,0.1,0,0.2,0,0.4
		L237.8,146.4z"/>
	<path fill="#E10000" d="M261.7,171.6l0.9,1c0.1-0.2,0.2-0.4,0.3-0.6l-0.8-0.8C262,171.4,261.8,171.5,261.7,171.6z"/>
	<path fill="#E10000" d="M240.7,218c0,0.5,0.1,0.9,0.1,1.4l5.6,6c0-0.4,0.1-0.8,0.1-1.2L240.7,218z"/>
	<path fill="#E10000" d="M248.1,156.5l-10.3-10.7v0c0,0.2,0,0.4,0,0.6l9.9,10.4C247.8,156.7,247.9,156.6,248.1,156.5z"/>
	<path fill="#E10000" d="M254.4,163.1l-5-5.3c-0.2,0.1-0.3,0.2-0.5,0.2l5.1,5.4C254.1,163.4,254.3,163.3,254.4,163.1z"/>
	<path fill="#E10000" d="M248.2,183.1c-2.1,1.5-4.2,2.7-6.2,3.7c-1,1.3-2,2.5-3,3.6c0.4,7.7,0.8,15.8,1.4,23.9l6.3,6.7
		c1.9-17.4,7.1-33.4,14.8-46.6l-1.4-1.4C256.9,176.1,252.8,179.9,248.2,183.1z"/>
	<path fill="#E10000" d="M254.5,168.3c-0.6,0.2-1.2,0.2-1.7,0c-0.1,0.5-0.5,1-1.1,1.3c-0.3,0.1-0.6,0.2-0.8,0.2
		c-0.9,2.3-2,4.9-3.3,7.6c3.9-2.3,8-4,11.7-5.4l-4-4.2C255,168,254.8,168.2,254.5,168.3z"/>
	<path fill="#E10000" d="M262,171l-6.4-6.6c-0.2,0.1-0.4,0.1-0.6,0.2l6.3,6.7C261.5,171.2,261.7,171.1,262,171z"/>
	<path fill="#E10000" d="M238.2,168.1c0.9,0.8,1.8,1.7,2.6,2.6c-0.9-0.2-1.7-0.4-2.5-0.5c0.1,3.7,0.3,7.7,0.4,11.8
		c0.1-0.2,0.3-0.5,0.4-0.7c2.9-4.7,6.8-8.7,10.4-12c-0.1-0.1-0.2-0.2-0.3-0.4c-0.4-0.9,0-1.8,1-2.3c0.4-0.2,0.8-0.3,1.1-0.2
		c-0.2-0.6,0.1-1.4,0.7-1.9l-5.2-5.5c-1.2,0.5-2.5,1-3.7,1.4c1.1-0.8,2-1.6,2.9-2.3l-8.2-8.7C237.9,153.4,238,160,238.2,168.1z
		 M243.6,165.2c0.8-0.4,1.5-0.4,2-0.1c0.1-0.4,0.6-0.9,1.2-1.3c0.9-0.5,1.9-0.4,2.2,0.1c0.3,0.5-0.2,1.3-1.2,1.8
		c-0.8,0.4-1.6,0.4-2,0.1c-0.1,0.3-0.2,0.5-0.5,0.8c0.8-0.3,1.5-0.2,1.8,0.3c0.3,0.5-0.2,1.3-1.2,1.8c-0.9,0.5-1.9,0.4-2.2-0.1
		c-0.2-0.4,0-0.9,0.5-1.3c-0.8,0.3-1.5,0.2-1.8-0.3C242.1,166.4,242.6,165.6,243.6,165.2z"/>
	<path d="M210.9,121l0.2,0.2c0.4-0.7,0.9-1.3,1.3-1.6l-1.8-1.9C210.7,118.7,210.8,119.8,210.9,121z"/>
	<path d="M208.1,115l-0.2-0.2l-0.4-0.5l-1.3,1.6l1.6,1.7l0.5,0.5C208.2,117,208.1,116,208.1,115z"/>
	<path d="M237.8,149.4l8.2,8.7c0.6-0.4,1.1-0.9,1.6-1.3l-9.9-10.4l-10.4-10.9l-11.4-12c-0.8,0.3-1.8,0.4-2.6,0.2l14,14.8
		L237.8,149.4z"/>
	<path d="M260.2,173l1.4,1.4c0.4-0.6,0.7-1.2,1.1-1.8l-0.9-1C261.2,172.1,260.7,172.5,260.2,173z"/>
	<path d="M252.5,164.2c0.3-0.2,0.7-0.2,1-0.2c0.2-0.2,0.3-0.3,0.5-0.5l-5.1-5.4c-0.7,0.3-1.3,0.6-2,0.9l5.2,5.5
		C252.2,164.4,252.3,164.3,252.5,164.2z"/>
	<path d="M255,164.9c0.1,0.2,0.1,0.4,0.1,0.6c0.2,0.1,0.3,0.3,0.4,0.5c0.3,0.6,0.2,1.3-0.3,1.8l4,4.2c0.7-0.3,1.4-0.5,2.1-0.8
		l-6.3-6.7c-0.1,0-0.2,0-0.2,0.1C254.8,164.7,254.9,164.8,255,164.9L255,164.9z"/>
	<path fill="#FFDF00" d="M182.5,182.8c-0.6,9.7-1.1,21.6-1.4,34.8c1.1-6.1,2.1-12.8,2.8-19.7C183.4,192.8,183,187.7,182.5,182.8z"/>
	<path fill="#FFDF00" d="M183.9,163.6c0.3,4.4,0.8,9.7,1.4,15.5c0.2-5.7,0.1-11.3-0.4-16.8c0.3-0.7,0.5-1.2,0.8-1.8l-1.4-1.5
		C184.3,159.3,184.1,160.9,183.9,163.6z"/>
	<path fill="#FFDF00" d="M184.2,158.9L184.2,158.9C184.3,159,184.3,158.9,184.2,158.9L184.2,158.9z"/>
	<path fill="#FFDF00" d="M204.8,181l-0.5-0.5c-0.5-0.1-1-0.4-1.1-1.2l-14.2-15.1c-0.6-0.1-1.1-0.3-1.6-0.6
		c0.8,9.3,0.4,19.9-0.6,30.5c3.1,26.6,7.3,56,7.8,57.2c0,2.2-2.3,3.2-3.5,0.4c-1.6-4.1-4-22.2-6.1-41.9c-1.3,9.5-2.8,18.4-4.2,25.6
		c0,1.5,0,3.1,0,4.6c0.2,15.8,0.9,32.3,2.5,48c0-0.1,0.1-0.1,0.1-0.2c0.8-1.4,1.5-3.2,1.6-4.1c0.4-1.7,0.8-2.1,3.6-3.1
		c2.6-0.9,3.3-1,3.3-0.2c0,1-2.1,2.7-3.4,2.7c-1.1,0-1.3,0.3-1.7,2c-0.3,1.1-0.7,2.6-0.9,3.4c-1,3.1-0.3,4.3,1.6,2.9
		c1.3-1,3-0.9,3.6,0.3c0.3,0.6,0.8,0.8,1.2,0.7s0.7,0,0.7,0.2c0,0.9-1,1-2.3,0.2c-1.3-0.8-1.4-0.8-2.8,0.2c-0.8,0.6-1.8,1.7-2.2,2.5
		c-0.3,0.6-0.8,1.4-1.1,1.9c0.2,1.2,0.3,2.3,0.5,3.4c0.3,0.1,0.6,0.2,0.9,0.2c0.8,0,1.5,0.2,1.5,0.5c0.2,0.6,6.1-1.7,7.1-2.8
		c0.4-0.4,1.3-2.9,2-5.4c1.2-4.2,1.3-5.4,1.3-11.6c0-6.3-0.1-7.1-1-8.3c-0.8-1.1-1-2-1-4.4c0-5.1,0.3-5.8,2.6-6.7
		c1.4-0.5,2.1-1.1,2.3-1.8c0.1-0.3,0.2-0.5,0.4-0.7C199.3,222.3,204.8,186.7,204.8,181z"/>
	<path fill="#FFDF00" d="M198.1,295.4c-0.5,2.2-1.1,4.5-1.3,5.1c-0.2,0.7-0.3,1.8-0.1,2.4c0.2,1.1,0.5,1.3,2.4,1.3
		c2.1,0,2.1,0,1.8-1.4c-0.1-0.7,0-2.3,0.2-3.4c0.6-2.4,0.1-5-1.3-6.8C199,291.6,199,291.6,198.1,295.4z"/>
	<path fill="#FFDF00" d="M186,305.9c0.7,4.1,1.4,8,2.2,11.8c0.7-1.4,2-2.5,4-3.4c1.5-0.7,2.5-1.5,2.8-2.3c0.7-1.8,0.6-2-1-2.3
		c-0.8-0.2-2.6-1.2-3.9-2.2C188.1,306,187.6,305.6,186,305.9z"/>
	<path fill="#FFDF00" d="M192.8,304c0.6-0.2,0.6-0.5,0.2-1.6c-0.6-1.6-1.2-1.7-2.9-0.4c-1,0.8-1.1,1.1-0.7,1.6
		C190,304.2,191.6,304.4,192.8,304z"/>
	<path fill="#FFDF00" d="M273.2,345.5l0-0.9c-1.1,0.3-2.2,0.6-3.3,0.9H273.2z"/>
	<path fill="#FFDF00" d="M203.1,292.9c-0.3-0.3-0.8-1.7-1.1-3c-0.4-1.8-0.7-2.4-1.4-2.4c-0.5,0-0.9,0.4-1.1,0.9
		c-0.2,1,0.8,2.9,2.5,4.6C203.1,294,204,294,203.1,292.9z"/>
	<path fill="#FFDF00" d="M201,263.5c-1.9,0.7-2,0.8-2.4,3c-0.3,1.9-0.2,2.5,0.6,3.9c1,1.6,1.2,4.9,0.8,12.5c-0.1,2,0.1,2.4,1.4,3.8
		c1,1.1,1.5,2,1.5,3c0,2.3,0.4,3,1.8,3c0.1,0,0.3,0,0.4,0c-2-9.5-3.2-19.4-3.8-29.3C201.3,263.4,201.2,263.4,201,263.5z"/>
	<path fill="#FFDF00" d="M204.5,296.4c-1,1-1,1-0.1,2.7c1.2,2.4,2.3,2.8,2.7,1.5c-0.5-1.7-0.9-3.4-1.3-5.2
		C205.5,295.5,205,295.9,204.5,296.4z"/>
	<path fill="#FFDF00" d="M269.5,353.2h-11.7l-2.7,3.9l-2.2,6.2c2.7-1,5.2-2.1,7.4-3.4C264,358,267,355.6,269.5,353.2
		C269.5,353.3,269.5,353.3,269.5,353.2z"/>
	<path fill="#FFDF00" d="M205.6,358.3c0.5,0.6,1.1,1.2,1.7,1.7c5.1,4.9,11,7.6,18.1,7.6c11,0,19.7-1.5,26.6-3.9l-2.3-6.6l-2.7-3.9
		l-5.4,3.9l-10.8-7.8l5-3.6c-0.1,0-0.1,0-0.2-0.1c-14.2-9.1-22.9-24.9-28-43.2c-0.4,1.1-1,2.1-2.1,3.2c-1.4,1.5-1.6,2.1-1.6,4
		s-0.2,2.5-1.3,3.5c-0.8,0.7-1.6,2.1-2,3.5c-0.4,1.3-1,2.9-1.5,3.7c-0.5,0.8-0.8,2.1-0.8,2.9c0,0.8-0.3,2.4-0.7,3.5
		s-0.7,2.6-0.7,3.3s-0.8,3.4-1.8,5.9c-0.3,0.8-0.6,1.6-0.9,2.3c2.8,7.3,6.1,13.6,10.1,18.4C204.7,357.3,205.1,357.8,205.6,358.3z"/>
	<path fill="#005B00" d="M213.1,156.8c0.1,0.1,0.2,0.2,0.3,0.3c0-0.1,0-0.1,0-0.2C213.3,156.8,213.2,156.8,213.1,156.8z"/>
	<path fill="#005B00" d="M240.8,170.7c-0.8-0.9-1.7-1.8-2.6-2.6c-2.5-2.3-5.4-4.4-9.4-6.2c-0.5-0.3-1.1-0.5-1.7-0.7
		c-3.5-1.5-7.3-2.5-10.4-3.3c0.2,1,0.3,1.9,0.5,2.8c2.5,2.1,5.3,4.2,8.7,5.8c0.4,0.2,0.8,0.4,1.2,0.5c4,1.8,6.9,2.4,11.2,3.3
		C239.1,170.3,239.9,170.5,240.8,170.7z"/>
	<path fill="#005B00" d="M260.6,137.3c1.7-5.1,2.8-10.4,3.8-14c-2.8,3.8-6.2,8.6-8.6,14.6c-0.9,2.3-1.5,4.2-2.1,6.1
		c0.5-0.7,1.1-1.5,1.8-2.2C257.2,139.7,258.9,138.3,260.6,137.3z"/>
	<path fill="#005B00" d="M252.1,151.1c-0.2,0.9-0.4,1.8-0.6,2.8c1.5-1.9,2.9-3.8,4.3-6C254.5,149.2,253.3,150.3,252.1,151.1z"/>
	<path fill="#005B00" d="M249.1,152.7c-0.2,0.1-0.5,0.2-0.7,0.3c0.5-0.9,0.9-1.6,1.3-2.4c0.9-3.2,1.5-6.6,1.9-10.7
		c0.5-6,0.1-11.8,0.1-15.8c-1.4,4.7-3,10.5-3.6,16.4c-0.5,6-0.2,8.9,0.2,14.7C248.5,154.4,248.8,153.6,249.1,152.7z"/>
	<path fill="#005B00" d="M249.1,152.7c1-0.4,2-1,3.1-1.7c1.2-0.8,2.4-1.9,3.7-3.3c0.3-0.3,0.6-0.6,0.9-1c3.1-3.6,5.8-8.7,7.8-11.7
		c-1.2,0.6-2.6,1.3-4,2.2c-1.7,1.1-3.4,2.5-5.1,4.4c-0.7,0.8-1.2,1.5-1.8,2.2c-1.5,2.1-2.7,4.1-4.1,6.7c-0.4,0.7-0.8,1.5-1.3,2.4
		C248.6,152.9,248.8,152.8,249.1,152.7z"/>
	<path fill="#005B00" d="M237.3,165c-1.4-4.6-3.2-8.8-6.8-13.2c-1-1.2-2.1-2.3-3.3-3.4c-2.9-2.7-6-4.9-8.1-6.7
		c1.6,4.4,3.6,9.8,7.3,14.2c0.3,0.3,0.5,0.6,0.7,0.9C230.4,160.5,232.9,162,237.3,165z"/>
	<path fill="#005B00" d="M227.1,189c-1.1-1.3-2.4-2.5-3.9-3.7c-4.5-3.6-10.3-6-13.9-8c2.2,4,4.9,8.8,9.4,12.5c3,2.4,5.4,3.7,8.4,5
		c1.4,0.6,3,1.3,4.9,2.1C230.8,194.1,229.3,191.5,227.1,189z"/>
	<path fill="#005B00" d="M239.1,190.5c1-1.1,2-2.3,3-3.6c-2.5,1.3-4.8,2.2-7.3,3.1c-0.8,2-1.5,4.1-2.4,6.8
		C234.8,194.8,237,192.8,239.1,190.5z"/>
	<path fill="#005B00" d="M249.6,169.3c-3.6,3.4-7.5,7.3-10.4,12c-0.1,0.2-0.3,0.5-0.4,0.7c-1,1.6-1.8,3-2.4,4.4
		c2.6-2.6,5-4.7,8.9-7.4c0.8-0.6,1.6-1.1,2.4-1.6c1.3-2.7,2.3-5.3,3.3-7.6C250.3,169.9,249.9,169.7,249.6,169.3z"/>
	<path fill="#005B00" d="M261.3,171.3c-0.7,0.2-1.4,0.5-2.1,0.8c-3.7,1.4-7.8,3.1-11.7,5.4c-0.8,0.5-1.6,1-2.4,1.6
		c-3.9,2.7-6.2,4.8-8.9,7.4c-1.3,1.3-2.6,2.7-4.3,4.4c0.9-0.3,1.9-0.6,2.8-0.9c2.4-0.8,4.8-1.8,7.3-3.1c2-1,4-2.2,6.2-3.7
		c4.6-3.2,8.7-7,12-10.1c0.5-0.5,1-0.9,1.5-1.4c0.2-0.1,0.3-0.3,0.5-0.4c0,0,0,0,0,0c0.1-0.1,0.3-0.3,0.4-0.4
		c-0.2,0.1-0.4,0.2-0.6,0.2c0,0,0,0,0,0C261.7,171.1,261.5,171.2,261.3,171.3z"/>
	<path fill="#005B00" d="M288,137.1c0.7-0.5,1.4-1,2.3-1.4c0.7-0.4,1.3-0.7,2-1c0.4-0.6,0.8-1.2,1.2-1.8
		C291.8,134,289.9,135.4,288,137.1z"/>
	<path fill="#005B00" d="M280,147.6c2.4-1.5,4.7-3.2,7.3-6.1c0.7-0.8,1.4-1.6,2-2.5c-1.7,0.8-3.1,1.2-4.4,1.4
		C282.8,142.8,281.8,144.5,280,147.6z"/>
	<path fill="#005B00" d="M284.9,124.7c-1.6,2.3-3.7,5.2-5.1,8.3c-1.4,3.1-1.8,4.6-2.7,7.7c1.8-2.3,3.3-4.6,4.8-7.7
		C283.2,129.9,284.1,126.8,284.9,124.7z"/>
	<path fill="#005B00" d="M288,137.1c-1.3,0.9-2.4,2-4.1,3.4c0.3,0,0.6-0.1,0.9-0.1c1.4-0.2,2.8-0.6,4.4-1.4c0.3-0.2,0.7-0.3,1-0.5
		c2.5-1.5,5.1-3.7,6.8-5c-1.4,0.2-3,0.5-4.8,1.2c-0.7,0.3-1.3,0.6-2,1C289.4,136.1,288.7,136.6,288,137.1z"/>
	<path fill="#005B00" d="M247.6,156.8c-0.5,0.4-1.1,0.8-1.6,1.3c-0.9,0.7-1.8,1.4-2.9,2.3c1.2-0.4,2.5-0.9,3.7-1.4
		c0.7-0.3,1.3-0.6,2-0.9c0.2-0.1,0.3-0.2,0.5-0.2c0,0,0,0,0,0c1.9-0.9,3.8-1.9,5.9-3.1c4.5-2.7,8.7-6,11.6-8.1
		c-3.8,1.5-8.5,3.3-13,6.1c-2.4,1.4-4.1,2.6-5.8,3.8c0,0,0,0,0,0C247.9,156.6,247.8,156.7,247.6,156.8z"/>
	<path fill="#005B00" d="M254,163.5c-0.2,0.2-0.3,0.3-0.5,0.5c0.5,0,1,0.3,1.3,0.6c0.1,0,0.2,0,0.2-0.1c0.2-0.1,0.4-0.1,0.6-0.2
		c0,0,0,0,0,0c4.1-1.2,8.2-2.8,12.9-5.6c6-3.6,11.2-8.5,15-11.5c-5.2,1.5-11.7,3.4-17.7,7c-5,3-7.6,5.3-11.4,8.9c0,0,0,0,0,0
		C254.3,163.3,254.1,163.4,254,163.5z"/>
	<path fill="#FF0000" d="M262.9,150c-0.8,0.5-1.2,1.4-0.8,2.1c0.4,0.7,1.4,0.9,2.3,0.4c0.8-0.5,1.2-1.4,0.8-2.1
		C264.7,149.7,263.7,149.5,262.9,150z"/>
	<path fill="#FF0000" d="M275.1,146.2c0.8-0.5,1.2-1.4,0.8-2.1s-1.4-0.9-2.3-0.4c-0.8,0.5-1.2,1.4-0.8,2.1
		C273.3,146.5,274.3,146.7,275.1,146.2z"/>
	<path fill="#FF0000" d="M244.2,167.3c0.2-0.2,0.4-0.3,0.7-0.5c0.1-0.1,0.3-0.1,0.4-0.2c0.3-0.3,0.4-0.5,0.5-0.8
		c-0.1-0.1-0.2-0.1-0.2-0.2c-0.1-0.2-0.1-0.3,0-0.5c-0.4-0.3-1.2-0.2-2,0.1c-0.9,0.5-1.5,1.3-1.2,1.8
		C242.6,167.4,243.4,167.5,244.2,167.3z"/>
	<path fill="#FF0000" d="M245.6,165.6c0.1,0.1,0.1,0.2,0.2,0.2c0.4,0.3,1.2,0.3,2-0.1c0.9-0.5,1.5-1.3,1.2-1.8
		c-0.3-0.5-1.3-0.6-2.2-0.1c-0.7,0.3-1.1,0.8-1.2,1.3C245.5,165.2,245.5,165.4,245.6,165.6z"/>
	<path fill="#FF0000" d="M244.2,167.3c-0.5,0.4-0.7,0.9-0.5,1.3c0.3,0.5,1.3,0.6,2.2,0.1c0.9-0.5,1.5-1.3,1.2-1.8
		c-0.2-0.4-1-0.5-1.8-0.3c-0.1,0-0.3,0.1-0.4,0.2C244.6,166.9,244.4,167.1,244.2,167.3z"/>
	<path fill="#FF0000" d="M250.9,169.8c0.3,0,0.5-0.1,0.8-0.2c0.6-0.3,1-0.8,1.1-1.3c-0.3-0.1-0.5-0.3-0.7-0.6
		c-0.1-0.2-0.1-0.4-0.2-0.6c-0.2-0.1-0.3-0.3-0.4-0.5c0-0.1-0.1-0.2-0.1-0.2c-0.3,0-0.7,0-1.1,0.2c-1,0.5-1.4,1.4-1,2.3
		c0.1,0.1,0.2,0.3,0.3,0.4C249.9,169.7,250.3,169.9,250.9,169.8z"/>
	<path fill="#FF0000" d="M252.5,164.2c-0.2,0.1-0.3,0.2-0.4,0.3c-0.6,0.5-0.9,1.3-0.7,1.9c0,0.1,0.1,0.2,0.1,0.2
		c0.1,0.2,0.3,0.4,0.4,0.5c0-0.6,0.4-1.3,1.2-1.7c0.8-0.4,1.5-0.3,2,0.1c0-0.2,0-0.4-0.1-0.6h-0.1c0-0.1-0.1-0.2-0.2-0.3
		c-0.3-0.4-0.8-0.6-1.3-0.6C253.2,164,252.8,164,252.5,164.2z"/>
	<path fill="#FF0000" d="M252.1,167.7c0.2,0.3,0.4,0.5,0.7,0.6c0.5,0.2,1.1,0.2,1.7,0c0.3-0.1,0.5-0.3,0.7-0.5
		c0.4-0.5,0.6-1.2,0.3-1.8c-0.1-0.2-0.2-0.4-0.4-0.5c-0.5-0.4-1.3-0.5-2-0.1c-0.8,0.4-1.2,1-1.2,1.7
		C252,167.3,252,167.5,252.1,167.7z"/>
	<path fill="#0000C4" d="M257.8,333.8c-2.1,0-2.7,3.9-2.7,7.8l2.7,3.9h12.1c1.2-0.3,2.3-0.6,3.3-0.9l0-3.2h0l0-3.8
		c-4.1-0.9-8.2-2.2-12.1-3.8H257.8z"/>
	<path fill="#0000C4" d="M205.8,295.4c0.4,1.7,0.8,3.5,1.3,5.2c0.2-0.6,0.3-1.4,0.2-2.5C207.2,295.9,206.7,295,205.8,295.4z"/>
	<path fill="#0000C4" d="M235.7,345.7c0.1,0,0.1,0,0.2,0.1l5.8-4.2l0,0l5.4,3.9l2.7-3.9c0-3.9-0.6-7.8-2.7-7.8h-10.8
		c0-2.9,3.1-8.1,9.2-10.4c-30.2-22.7-20-109.5-20-120.4l21,22.4l0,0l-5.6-6l-13.5-14.5l-20.1-21.5l-2.3-2.4c0,0,0,0,0,0
		c0,5.8-5.6,41.3-3.6,78.7c0.3-0.3,0.8-0.5,1.6-0.7c2.1-0.4,2.4-0.1,1.2,1c-0.6,0.4-1,1.3-1,1.8c0,0.6-0.4,1-1.6,1.5
		c0.6,9.9,1.8,19.8,3.8,29.3c1.7,0.3,2.9,2.8,2.9,6c0,1.7-0.1,2.9-0.5,3.9C212.8,320.8,221.5,336.6,235.7,345.7z"/>
	<path fill="#E10000" d="M268.5,333.8h-7.4c3.8,1.6,7.9,2.8,12.1,3.8l0-1h0l0-4.8h4.8l-0.3-0.3h0l0,0l0,0h0.9v0c0,0,0.8,0,1.3,0
		c0,0,0-0.1,0-0.1h12.4h6.2c0,0,0.1,0.1,0.1,0.4h1.7C269.1,321,246,282.1,246,235.9c0-3.6,0.1-7.1,0.4-10.5l-21-22.4
		c0,10.9-10.1,97.8,20,120.4c2-0.8,4.3-1.3,7-1.3C263.1,322.1,268.5,329.9,268.5,333.8z"/>
	<path d="M189.7,164.2l13.6,14.3c0.1-0.5,0.3-1.4,0.6-2.7l-11.6-12.2C191.5,164,190.6,164.2,189.7,164.2z"/>
	<path d="M184.9,157.1l-1,1l-0.1-0.1l2.1,2.2c0.3-0.6,0.6-1.1,0.8-1.5l-0.8-0.8C185.9,157.8,185.6,157.3,184.9,157.1z"/>
	<path d="M227.2,200.4l-20.1-21.2l-0.8-0.9c-0.1,0.6-0.2,1-0.2,1.1c-0.2,0.5-0.6,0.7-1,0.9l2.1,2.2l20.1,21.2l13.4,14.2l5.8,6.1
		c0.1-1,0.2-2,0.3-3l-6.3-6.7L227.2,200.4z"/>
	<path fill="#CECECC" d="M180.8,159.7c-0.1-1.8-0.2-3.3-0.2-4.6c-0.1-3.5,0.4-5.3,1.2-6.3l-4.1-4.1l-1.1-6l-9.1-1.5l1.7,9l0,0l6,1.1
		l1.8,1.8c-0.2,0,1.8,1.8-0.7,4.2c-2.5,2.5-6-1.1-6-1.1s1.1,6,4.6,9.6c2.2,2.2,4.6,2.7,6.2,2.9c-0.1-0.8-0.1-1.5-0.1-2.3
		C180.5,161.5,180.4,160.6,180.8,159.7z"/>
	<path fill="#CECECC" d="M183.5,155.5c0,0.5,0,1.1,0,1.8c0.5-0.2,1-0.2,1.3-0.1c0.7,0.2,1,0.7,1,0.7l0.8,0.8
		c0.9-1.4,1.8-2.1,2.6-2.4l-1.8-1.8C186.4,155.4,184.9,155.8,183.5,155.5z"/>
	<path fill="#CECECC" d="M208.5,120.1l-0.7-0.5l-1.4-1l-3.9-11l-1.1,7.4l-5.7-8.2l-12.6-2.8l0,0l7.3,11.3l9.2,2.5l-6,3.9l11-0.4
		l3,2.2l1.3,0.9C208.8,122.9,208.6,121.4,208.5,120.1z"/>
	<path fill="#E10000" d="M208.3,118.2c0,0.6,0.1,1.2,0.2,1.8c0.1,1.4,0.3,2.9,0.4,4.4c0.5,4.4,1.1,9.4,1.8,14.5
		c0.4-5.5,0.3-11.2-0.3-16.6c0.2-0.4,0.4-0.8,0.6-1.1c0-0.1,0-0.2,0-0.4c-0.1-1.2-0.3-2.3-0.3-3.3c0,0,0-0.1,0-0.1
		c-0.2-1.7-0.2-3.2-0.2-4.3c2,0.4,4.3-0.8,4.3-2.3c0-1.3-1.8-2.3-3.3-2.4c-1.8-0.1-3.4,0.2-3.3,4.3c0,0.5,0,1.2,0.1,1.9
		c0,0,0,0.1,0,0.1C208.1,116,208.2,117,208.3,118.2z"/>
	<path fill="#E10000" d="M213.4,157.1c1.2,6.9,2.3,12.3,3.1,13.9c0.9,1.7,2.9,1.1,2.8-0.3c-0.2-0.3-1-4.3-2.1-10.1
		c-0.2-0.9-0.3-1.8-0.5-2.8c-1.2-6.6-2.6-14.8-3.8-22.5c-0.1,4.1-0.5,8.3-1,12.5c0.5,3.2,1,6.2,1.4,9.1
		C213.4,156.9,213.4,157,213.4,157.1z"/>
	<path fill="#0000C4" d="M205,180.4c0.4-0.1,0.8-0.4,1-0.9c0-0.1,0.1-0.5,0.2-1.1c0.2-0.8,0.5-2.1,0.8-3.7c1.3-5.8,3.5-16,4.9-26.9
		c0.5-4.1,0.9-8.4,1-12.5c0.1-4.2,0-8.3-0.5-12c0.3,0.1,0.6,0.2,0.9,0.3c0.9,0.2,1.8,0.1,2.6-0.2c0,0,0.1,0,0.1,0
		c0.7-0.3,1.2-0.7,1.5-1.2c0.6-1.3-0.6-2.8-2-3.2c-1.1-0.4-2.2-0.5-3.3,0.5c0,0,0,0-0.1,0.1c-0.4,0.4-0.8,0.9-1.3,1.6
		c0,0.1-0.1,0.1-0.1,0.2c-0.2,0.3-0.4,0.7-0.6,1.1c0.7,5.4,0.7,11.1,0.3,16.6c-0.6,8.7-2.1,17.1-3.6,24c-1.2,5.5-2.5,10.1-3.2,12.9
		c-0.3,1.2-0.5,2.1-0.6,2.7c0,0.3-0.1,0.4,0,0.5c0,0.1,0,0.2,0,0.3c0.1,0.7,0.6,1.1,1.1,1.2C204.6,180.5,204.8,180.4,205,180.4z"/>
	<path fill="#E10000" d="M185.3,179.1c-0.6-5.8-1.1-11.1-1.4-15.5c-0.2-2.4-0.3-4.6-0.3-6.4c0-0.6,0-1.2,0-1.8c1.4,0.3,2.9-0.1,4-1
		c0.8-0.7,1.4-1.6,1.4-2.7c0-2.1-2.2-3.9-4.1-4c-1.1,0-2.2,0.1-3,1c-0.8,1-1.3,2.8-1.2,6.3c0,1.2,0.1,2.8,0.2,4.6
		c0,0.8,0.1,1.7,0.1,2.6c0,0.7,0.1,1.5,0.1,2.3c0.3,5.1,0.8,11.4,1.5,18.2c0.4,4.8,0.9,10,1.4,15.2
		C184.6,191.8,185.1,185.4,185.3,179.1z"/>
	<path fill="#E10000" d="M191.3,251.7c1.2,2.8,3.5,1.8,3.5-0.4c-0.5-1.2-4.7-30.6-7.8-57.2c-0.5,5.3-1.1,10.6-1.8,15.7
		C187.3,229.5,189.7,247.6,191.3,251.7z"/>
	<path fill="#0000C4" d="M192.3,163.6c0.9-0.4,1.6-1.1,2-2c0.8-2-0.7-4.4-2.4-5c-0.8-0.3-1.6-0.5-2.5-0.3c-0.8,0.2-1.7,0.9-2.6,2.4
		c-0.3,0.4-0.6,0.9-0.8,1.5c-0.1,0.1-0.1,0.2-0.2,0.3c-0.3,0.5-0.5,1.1-0.8,1.8c0.4,5.5,0.5,11.2,0.4,16.8
		c-0.2,6.3-0.7,12.7-1.3,18.9c-0.8,6.9-1.7,13.5-2.8,19.7c-1.5,8.7-3.2,16.4-4.5,22.4c-1.6,7.2-2.8,11.7-2.6,12.3
		c0,3,2.7,2.8,3.6,0.7c0-0.6,1.1-5.5,2.5-13c0.3-1.4,0.6-3,0.9-4.6c1.4-7.2,2.9-16.1,4.2-25.6c0.7-5.1,1.3-10.4,1.8-15.7
		c1-10.6,1.3-21.3,0.6-30.5c0.5,0.3,1,0.5,1.6,0.6c0.2,0,0.4,0,0.6,0.1C190.6,164.2,191.5,164,192.3,163.6z"/>
	<path fill="#FFDF00" d="M413.3,139.7c1.2,4.7,4.5,15.5,7.5,30.7c0.7-2.4,3.9-19.4,6.3-34.6c-0.2-4.4-0.1-8.7,0.4-12.6
		c-0.3,0.1-0.6,0.2-0.9,0.3L413,138C413.1,138.4,413.2,139,413.3,139.7z"/>
	<path fill="#FFDF00" d="M412.8,160.5c1.3,4.6,2.6,9.7,3.9,15c-1.3-6.8-2.7-13.4-3.9-19.3C412.8,157.6,412.8,159,412.8,160.5z"/>
	<path fill="#FFDF00" d="M424,123.4c0,0-0.1,0-0.1,0l-11.2,11.7c0,0.1,0,0.2,0,0.4L424,123.4z"/>
	<path fill="#FFDF00" d="M424.3,191.7c0,0.3,0.1,0.5,0.1,0.8l8.5-9.1c0-0.3,0-0.5,0-0.8L424.3,191.7z"/>
	<path fill="#FFDF00" d="M429.5,117.5c0,0,0-0.1,0-0.1l-2,2c0,0,0,0,0.1,0.1L429.5,117.5z"/>
	<path fill="#FFDF00" d="M428.9,121.1c0.1,0.1,0.1,0.2,0.2,0.3c0-0.2,0-0.4,0.1-0.6L428.9,121.1z"/>
	<path fill="#FFDF00" d="M432.1,114.9C432.1,114.8,432.1,114.8,432.1,114.9L432.1,114.9C432,114.9,432,114.9,432.1,114.9
		L432.1,114.9z"/>
	<path fill="#FFDF00" d="M412.9,138.1l-0.3,0.3c0,2.8,0.1,6.8,0.1,11.8c1.8,5.9,3.9,13.3,5.9,21.8c-2.1-14.2-4.4-27-5.4-32.3
		C413.1,139.1,413,138.5,412.9,138.1z"/>
	<path fill="#FFDF00" d="M429.3,139.5c0.6,8.5,2.1,16.7,3.6,23.5c-0.1-16.9-0.4-30.9-0.6-39.4l-1.2,0.8
		C430.7,129,430.1,134.2,429.3,139.5z"/>
	<path fill="#FFDF00" d="M421.1,171.6c1,5.2,2,11,2.8,17.2l9-9.5c0-1.5,0-3.1,0-4.6c-1.3-5.7-3.5-15.8-4.8-26.5
		c-1.6,10.9-3.4,20.5-4.5,22.8C422.9,172.2,421.6,172.2,421.1,171.6z"/>
	<path fill="#FFDF00" d="M431.6,120l0.6-0.4c0-0.7,0-1.3-0.1-1.8l-0.4,0.4C431.7,118.7,431.7,119.3,431.6,120z"/>
	<path fill="#0000C4" d="M386.4,162.3C386.4,162.3,386.4,162.3,386.4,162.3l-1.8,1.9c0,0,0,0,0,0L386.4,162.3z"/>
	<path fill="#0000C4" d="M396.4,151.9C396.4,151.9,396.4,151.9,396.4,151.9l-2.1,2.1c0,0,0,0,0,0L396.4,151.9z"/>
	<polygon fill="#0000C4" points="380.6,168.4 380.6,168.3 374.4,174.8 374.4,174.8 	"/>
	<path fill="#0000C4" d="M383.4,165.4C383.4,165.4,383.4,165.4,383.4,165.4l-1.9,1.9c0,0,0,0,0,0L383.4,165.4z"/>
	<path fill="#0000C4" d="M402.2,145.8L402.2,145.8c0,0.2,0,0.4,0,0.6l0.6-0.6c-0.1-0.2-0.1-0.3-0.2-0.5l-2.4,2.5c0,0,0,0,0,0
		L402.2,145.8z"/>
	<path fill="#0000C4" d="M391,157.5C391,157.5,391,157.5,391,157.5l-3.1,3.2c0,0,0,0,0,0L391,157.5z"/>
	<path fill="#0000C4" d="M399.3,218c0,0.5-0.1,0.9-0.1,1.4l4.2-4.5c-0.1-0.3-0.3-0.5-0.4-0.8L399.3,218z"/>
	<path fill="#0000C4" d="M405.2,146.2c0.9,2.3,1.8,4.7,2.7,7.2c-0.7-2.8-1.3-5.5-2-8L405.2,146.2z"/>
	<path fill="#0000C4" d="M403.5,148l-1.3,1.4c0,0.8,0,1.7,0,2.7c1.9,4.6,3.8,9.5,5.6,14.9c1,2.3,2.1,4.7,3.1,7.2
		C408.5,165.2,405.9,156,403.5,148z"/>
	<path fill="#0000C4" d="M409.9,141.2c0.8,2.4,1.8,5.4,2.8,9c-0.1-5-0.1-9.1-0.1-11.8L409.9,141.2z"/>
	<path fill="#0000C4" d="M404.4,209.3l1.5-1.5c-1.6-3.1-3.4-6.4-5.3-9.6c-0.1,1.5-0.2,3.1-0.3,4.7C401.7,204.8,403,207,404.4,209.3z
		"/>
	<path fill="#0000C4" d="M409.6,141.6l-2,2.2c1.7,4.8,3.5,10.4,5.3,16.7c0-1.5,0-2.9,0-4.3C411.6,150.5,410.5,145.4,409.6,141.6z"/>
	<path fill="#0000C4" d="M401.3,182.3c0.9,1.6,1.7,3.3,2.6,5.1c-0.8-2.4-1.6-4.9-2.5-7.4C401.4,180.7,401.3,181.5,401.3,182.3z"/>
	<path fill="#0000C4" d="M406.8,141.6l2.3-2.4c0-0.2-0.1-0.3-0.1-0.5l-2.3,2.4C406.6,141.3,406.7,141.4,406.8,141.6z"/>
	<path fill="#0000C4" d="M399.6,214.4l2.2-2.3c-0.6-1-1.2-2.1-1.9-3.1C399.8,210.7,399.7,212.5,399.6,214.4z"/>
	<path fill="#0000C4" d="M404.4,144.1l1-1c0-0.2-0.1-0.3-0.1-0.5l-1,1.1C404.3,143.8,404.4,143.9,404.4,144.1z"/>
	<path fill="#0000C4" d="M405.6,211.4c0.1,0.2,0.3,0.5,0.4,0.7l1.3-1.4c-0.1-0.3-0.2-0.5-0.4-0.8L405.6,211.4z"/>
	<path fill="#0000C4" d="M403.7,168.7c-0.6-1.4-1.2-2.9-1.8-4.3c0,1.5-0.1,3-0.1,4.6c0.8,1.9,1.7,3.8,2.5,5.8
		c1.1,2.1,2.1,4.3,3.2,6.7C406.4,177.4,405.1,173.1,403.7,168.7z"/>
	<path fill="#0000C4" d="M409.2,139l3.4-3.6c0-0.1,0-0.2,0-0.4c0-0.1,0-0.1,0-0.2l-3.5,3.7C409.1,138.7,409.1,138.9,409.2,139z"/>
	<path fill="#E10000" d="M397.5,154.4l-1.9,2c2,3.8,4.1,8,6.2,12.6c0-1.6,0.1-3.1,0.1-4.6C400.4,161,399,157.6,397.5,154.4z"/>
	<path fill="#E10000" d="M389.6,228.3c0,0.4,0,0.9,0.1,1.3l9.6-10.2c0-0.5,0.1-0.9,0.1-1.4L389.6,228.3z"/>
	<path fill="#E10000" d="M399.9,208.9c-8.4-14-18.7-27.8-22.1-32.3c-0.3-0.3-0.5-0.5-0.7-0.7l-1.3,1.4c7.3,13.7,12.2,30.1,13.6,47.9
		l10.2-10.8C399.7,212.5,399.8,210.7,399.9,208.9z"/>
	<path fill="#E10000" d="M402.2,145.8L402.2,145.8l-1.9,2c0.1,0.1,0.1,0.3,0.2,0.4l1.7-1.8C402.2,146.2,402.2,145.9,402.2,145.8z"/>
	<path fill="#E10000" d="M396.4,151.9l-2,2.1c0.1,0.2,0.2,0.3,0.3,0.5l2-2.1C396.5,152.2,396.5,152,396.4,151.9z"/>
	<path fill="#E10000" d="M377.8,176.6c3.1,3.1,12.2,10.8,22.5,26.2c0.1-1.6,0.2-3.1,0.3-4.7c-6-10.2-13.1-20.4-18.4-27.6l-5,5.3
		C377.4,176,377.6,176.3,377.8,176.6z"/>
	<path fill="#E10000" d="M380.6,168.4l-6.2,6.4c0.1,0.2,0.2,0.4,0.3,0.6l6.2-6.5C380.8,168.7,380.7,168.5,380.6,168.4z"/>
	<path fill="#E10000" d="M383.4,165.4l-1.9,2c0.1,0.1,0.3,0.3,0.4,0.4l1.8-1.9C383.6,165.8,383.5,165.6,383.4,165.4z"/>
	<path fill="#E10000" d="M383.4,169.2c2.3,2.3,5,5.2,7.9,8.7c-2.3-3.7-4.5-7.1-6.5-10.2L383.4,169.2z"/>
	<path fill="#E10000" d="M391,157.5l-3.1,3.3c0.1,0.2,0.2,0.3,0.3,0.4l3.1-3.2C391.1,157.8,391.1,157.7,391,157.5z"/>
	<path fill="#E10000" d="M386.4,162.3l-1.8,1.9c0.1,0.1,0.2,0.3,0.4,0.4l1.7-1.8C386.6,162.7,386.5,162.5,386.4,162.3z"/>
	<path fill="#E10000" d="M398.9,173.3c-2.2-4.6-4.5-9.2-6.7-13.4l-2.8,3c3.6,5.1,7.7,11.5,11.9,19.3c0-0.8,0.1-1.6,0.1-2.3
		C400.6,177.7,399.8,175.5,398.9,173.3z"/>
	<path fill="#E10000" d="M386.3,166.2c2.2,2.6,4.6,5.6,7.2,9.2c-2-3.8-4-7.4-5.8-10.7L386.3,166.2z"/>
	<path fill="#E10000" d="M401.4,150.3c0.3,0.6,0.5,1.2,0.8,1.9c0-1,0-1.9,0-2.7L401.4,150.3z"/>
	<path d="M429.5,117.5l-1.9,2c0.4,0.4,0.8,0.9,1.3,1.6l0.3-0.3C429.3,119.7,429.4,118.6,429.5,117.5z"/>
	<path d="M412.9,138.1c-0.1-0.5-0.1-0.8-0.1-0.9C412.8,137.2,412.9,137.5,412.9,138.1l13.7-14.5c-0.9,0.2-1.8,0.1-2.6-0.2l-11.4,12
		l-3.4,3.6c0.2,0.7,0.5,1.4,0.7,2.2l2.7-2.8L412.9,138.1z"/>
	<path d="M431.8,118.1l0.4-0.4l1.6-1.7l-1.3-1.6l-0.4,0.5l0,0C432,115.9,431.9,116.9,431.8,118.1z"/>
	<path d="M405.4,143.1l-1,1c0.3,0.7,0.5,1.4,0.8,2.1l0.7-0.8C405.8,144.6,405.6,143.8,405.4,143.1z"/>
	<path d="M409,139.2l-2.3,2.4c0.3,0.7,0.5,1.4,0.8,2.2l2-2.2C409.4,140.7,409.2,139.9,409,139.2z"/>
	<path d="M403.5,148c-0.2-0.8-0.5-1.5-0.7-2.3l-0.6,0.6l-1.7,1.8c0.3,0.7,0.6,1.4,0.9,2l0.8-0.9L403.5,148z"/>
	<path d="M376.7,175.1c0,0,0.2,0.3,0.6,0.7l5-5.3c-0.4-0.6-0.8-1.1-1.2-1.7l-6.2,6.5c0.3,0.6,0.7,1.2,1,1.9l1.3-1.4
		C376.8,175.5,376.7,175.3,376.7,175.1z"/>
	<path d="M396.6,152.3l-2,2.1c0.3,0.6,0.7,1.3,1,1.9l1.9-2C397.2,153.7,396.9,153,396.6,152.3z"/>
	<path d="M383.7,165.9l-1.8,1.9c0.5,0.5,1,0.9,1.5,1.4l1.5-1.5C384.5,167.1,384.1,166.5,383.7,165.9z"/>
	<path d="M386.7,162.8l-1.7,1.8c0.4,0.5,0.9,1,1.3,1.6l1.4-1.5C387.3,164.1,387,163.5,386.7,162.8z"/>
	<path d="M391.2,158l-3.1,3.2c0.4,0.5,0.8,1.1,1.2,1.7l2.8-3C391.9,159.3,391.6,158.6,391.2,158z"/>
	<path fill="#005B00" d="M403,214.1c0.1,0.3,0.3,0.5,0.4,0.8l2.6-2.8c-0.1-0.2-0.3-0.5-0.4-0.7L403,214.1z"/>
	<path fill="#005B00" d="M377.8,176.6c3.4,4.5,13.7,18.3,22.1,32.3c0.6,1.1,1.2,2.1,1.9,3.1l2.6-2.7c-1.4-2.3-2.7-4.4-4.1-6.5
		C390,187.4,381,179.7,377.8,176.6z"/>
	<path fill="#005B00" d="M376.7,175.1c0,0.2,0.2,0.4,0.5,0.8c0.2,0.2,0.4,0.5,0.7,0.7c-0.2-0.3-0.5-0.6-0.6-0.8
		C376.9,175.3,376.7,175.1,376.7,175.1z"/>
	<path fill="#005B00" d="M377.3,156.3c-0.8-1.2-1.3-1.9-1.3-1.9C375.9,154.7,376.4,155.3,377.3,156.3z"/>
	<path fill="#005B00" d="M383.7,165.9c0.4,0.6,0.8,1.2,1.1,1.8c2,3.1,4.2,6.5,6.5,10.2c3.2,3.9,6.7,8.5,10.3,14
		c-2.6-5.5-5.4-11.2-8.2-16.4c-2.6-3.6-5.1-6.6-7.2-9.2c-0.5-0.5-0.9-1.1-1.3-1.6c-0.1-0.1-0.3-0.3-0.4-0.4c0,0,0,0,0,0
		c-3.3-3.7-5.8-6.3-7.3-7.9c1.3,1.9,3.5,5.1,6.1,9.1c0,0,0,0,0,0C383.5,165.6,383.6,165.8,383.7,165.9z"/>
	<path fill="#005B00" d="M396.4,125.3c-0.6-1.8-0.9-2.8-0.9-2.8C395.4,122.8,395.7,123.7,396.4,125.3z"/>
	<path fill="#005B00" d="M402.8,145.8c0.2,0.7,0.4,1.5,0.7,2.3c2.4,8,5,17.2,7.3,26.3c1.3,3.1,2.5,6.4,3.7,9.8
		c-1.8-10.1-4.3-20.9-6.6-30.6c-0.9-2.6-1.8-5-2.7-7.2c-0.3-0.7-0.6-1.4-0.8-2.1c-0.1-0.2-0.1-0.3-0.2-0.5
		c-3.5-8.7-6.4-14.9-7.8-18.3c1.2,3.8,3.6,11,6.3,19.9C402.7,145.4,402.8,145.6,402.8,145.8z"/>
	<path fill="#005B00" d="M382.4,122.8c-0.8-1.6-1.3-2.5-1.3-2.5C381,120.7,381.5,121.5,382.4,122.8z"/>
	<path fill="#005B00" d="M396.6,152.3c0.3,0.7,0.6,1.3,0.9,2c1.5,3.3,2.9,6.7,4.4,10.1c0.6,1.4,1.2,2.9,1.8,4.3
		c-3.2-10.2-7.2-20.8-10.8-30.1c-4.7-7.7-8.6-13-10.5-15.8c2.4,4.8,8.1,15.9,14,29c0,0,0,0,0,0C396.5,152,396.5,152.2,396.6,152.3z"
		/>
	<path fill="#005B00" d="M416.4,200c0.1,0.3,0.1,0.6,0.2,0.9l0.5-0.5c0-0.3-0.1-0.6-0.1-0.9L416.4,200z"/>
	<path fill="#005B00" d="M416.5,196.5c-0.5-3.9-1.2-8.1-2-12.5c-1.2-3.4-2.5-6.6-3.7-9.8c-1-2.5-2-4.9-3.1-7.2
		c1.7,5,3.3,10.3,4.9,15.9c1.2,4.8,2.3,9.6,3.2,14.3L416.5,196.5z"/>
	<path fill="#005B00" d="M408.4,136.5c-0.4-1.7-0.6-2.7-0.6-2.7C407.7,134,407.9,134.9,408.4,136.5z"/>
	<path fill="#005B00" d="M420.6,195.5c0,0.3,0.1,0.6,0.1,0.8l0.8-0.9c0-0.3-0.1-0.6-0.1-0.9L420.6,195.5z"/>
	<path fill="#005B00" d="M409,139.2c0.2,0.7,0.4,1.5,0.6,2.4c0.9,3.8,2,8.9,3.2,14.6c1.3,5.9,2.6,12.6,3.9,19.3
		c1.2,5.4,2.4,11.1,3.4,17.2l1-1.1c-0.7-6.4-1.6-13.1-2.5-19.6c-2-8.6-4.1-15.9-5.9-21.8c-1.1-3.5-2-6.5-2.8-9
		c-0.3-0.8-0.5-1.5-0.7-2.2c0-0.1-0.1-0.3-0.1-0.4c-0.3-0.8-0.5-1.5-0.7-2.1c0.2,0.6,0.3,1.4,0.5,2.2C408.9,138.9,409,139,409,139.2
		z"/>
	<path fill="#005B00" d="M379.8,137.2c-0.8-1.4-1.2-2.1-1.2-2.1C378.5,135.4,379,136.1,379.8,137.2z"/>
	<path fill="#005B00" d="M407.4,181.5c-1.1-2.3-2.1-4.5-3.2-6.7c1.6,3.9,3.1,8,4.6,12.5c-0.2-0.8-0.4-1.5-0.5-2.3
		C408,183.8,407.7,182.7,407.4,181.5z"/>
	<path fill="#005B00" d="M391.2,158c0.3,0.6,0.7,1.3,1,1.9c2.2,4.3,4.5,8.8,6.7,13.4c-3.5-9-7.5-18-10.9-25.4
		c-3.7-5.1-6.6-8.6-8.2-10.7c2,3.5,6.3,11.1,11.1,20.3c0,0,0,0,0,0C391.1,157.7,391.1,157.8,391.2,158z"/>
	<path fill="#005B00" d="M375.9,162.1c-0.8-1.1-1.3-1.7-1.3-1.7C374.5,160.7,375,161.2,375.9,162.1z"/>
	<path fill="#005B00" d="M381,168.9c0.4,0.5,0.8,1.1,1.2,1.7c5.3,7.2,12.4,17.4,18.4,27.6c1.9,3.2,3.7,6.5,5.3,9.6l1.7-1.8
		c-0.1-0.2-0.1-0.3-0.2-0.5c-1.6-4.3-3.6-8.9-5.7-13.6c-3.6-5.5-7.1-10.1-10.3-14c-2.9-3.5-5.6-6.3-7.9-8.7c-0.5-0.5-1-1-1.5-1.4
		c-0.1-0.1-0.3-0.3-0.4-0.4c0,0,0,0,0,0c-2.5-2.4-4.5-4.2-5.7-5.3c1.1,1.4,2.7,3.5,4.7,6.3c0,0,0,0,0,0
		C380.7,168.5,380.8,168.7,381,168.9z"/>
	<path fill="#005B00" d="M407,209.9c0.1,0.3,0.2,0.5,0.4,0.8l1.4-1.5c-0.1-0.3-0.2-0.6-0.3-0.8L407,209.9z"/>
	<path fill="#005B00" d="M378.7,149.1c-0.8-1.3-1.2-2-1.2-2C377.5,147.5,377.9,148.1,378.7,149.1z"/>
	<path fill="#005B00" d="M386.7,162.8c0.3,0.6,0.7,1.2,1,1.9c1.8,3.3,3.8,6.9,5.8,10.7c2.8,5.3,5.6,10.9,8.2,16.4
		c2.2,4.7,4.1,9.3,5.7,13.6c0.1,0.2,0.1,0.3,0.2,0.5l1.1-1.1c-0.9-3.9-1.9-7.7-2.8-11.2c-0.6-2-1.2-4.1-1.9-6.3
		c-0.9-1.8-1.8-3.4-2.6-5.1c-4.2-7.9-8.3-14.3-11.9-19.3c-0.4-0.6-0.8-1.1-1.2-1.7c-0.1-0.2-0.2-0.3-0.3-0.4c0,0,0,0,0,0
		c-4.2-5.7-7.5-9.5-9.1-11.6c1.5,2.5,4.3,7.2,7.7,13.2c0,0,0,0,0,0C386.5,162.5,386.6,162.7,386.7,162.8z"/>
	<path fill="#005B00" d="M408.4,208.4c0.1,0.3,0.2,0.6,0.3,0.8l0.7-0.8c-0.1-0.3-0.1-0.6-0.2-0.9L408.4,208.4z"/>
	<path fill="#005B00" d="M400.8,126c-0.5-1.8-0.8-2.7-0.8-2.7C399.9,123.5,400.2,124.4,400.8,126z"/>
	<path fill="#005B00" d="M405.4,143.1c0.2,0.8,0.4,1.5,0.6,2.3c0.6,2.5,1.3,5.2,2,8c2.4,9.7,4.8,20.6,6.6,30.6
		c0.8,4.4,1.5,8.6,2,12.5l3.6-3.8c-1-6-2.2-11.8-3.4-17.2c-1.2-5.4-2.6-10.4-3.9-15c-1.8-6.3-3.6-11.9-5.3-16.7
		c-0.3-0.7-0.5-1.5-0.8-2.2c-0.1-0.2-0.1-0.3-0.2-0.5c-2.5-7.1-4.7-12.2-5.8-15.1c0.9,3.3,2.5,9.2,4.4,16.6
		C405.3,142.7,405.3,142.9,405.4,143.1z"/>
	<path fill="#005B00" d="M416.9,199.5c0,0.3,0.1,0.6,0.1,0.9l3.8-4c0-0.3-0.1-0.6-0.1-0.8L416.9,199.5z"/>
	<path fill="#005B00" d="M382.8,114.2c-0.7-1.7-1.1-2.6-1.1-2.6C381.6,111.9,382,112.8,382.8,114.2z"/>
	<path fill="#005B00" d="M413.2,203.3c0.1,0.3,0.1,0.6,0.2,0.9l3.1-3.3c-0.1-0.3-0.1-0.6-0.2-0.9L413.2,203.3z"/>
	<path fill="#005B00" d="M403.7,168.7c1.4,4.4,2.7,8.7,3.7,12.7c0.3,1.2,0.6,2.4,0.9,3.5c0.2,0.8,0.4,1.5,0.5,2.3
		c0.4,1.3,0.9,2.7,1.3,4c0.9,3.1,1.7,6.2,2.4,9.3l3.2-3.4c-0.9-4.7-2-9.5-3.2-14.3c-1.5-5.6-3.2-10.9-4.9-15.9
		c-1.8-5.4-3.7-10.3-5.6-14.9c-0.3-0.6-0.5-1.3-0.8-1.9c-0.3-0.7-0.6-1.4-0.9-2c-0.1-0.1-0.1-0.3-0.2-0.4c0,0,0,0,0,0
		c-7.6-17.5-14.8-28.7-17.5-33.5c1.8,4.3,5.8,13.4,10.1,24.5C396.5,148,400.4,158.6,403.7,168.7z"/>
	<path fill="#005B00" d="M423.9,188.7c-0.8-6.2-1.8-11.9-2.8-17.2c-0.2-0.2-0.3-0.5-0.3-0.9c0,0,0.1-0.1,0.1-0.3
		c-3-15.2-6.3-26-7.5-30.7c1,5.3,3.3,18.1,5.4,32.3c0.9,6.4,1.8,13.2,2.5,19.6L423.9,188.7z"/>
	<path fill="#005B00" d="M421.5,194.6c0,0.3,0.1,0.6,0.1,0.9l2.8-3c0-0.3-0.1-0.5-0.1-0.8L421.5,194.6z"/>
	<path fill="#005B00" d="M412.8,137.2c-0.1,0.1,0,0.4,0.1,0.9c0.1,0.4,0.2,1,0.4,1.6c-0.1-0.7-0.2-1.3-0.3-1.7
		C412.9,137.5,412.8,137.2,412.8,137.2z"/>
	<path fill="#005B00" d="M380.3,132c-0.7-1.4-1.1-2.2-1.1-2.2C379.1,130,379.5,130.8,380.3,132z"/>
	<path fill="#005B00" d="M398.9,173.3c0.9,2.2,1.7,4.4,2.5,6.6c0.9,2.5,1.8,5,2.5,7.4c0.7,2.2,1.3,4.3,1.9,6.3
		c1,3.6,1.9,7.3,2.8,11.2l4-4.2c-0.7-3.1-1.5-6.2-2.4-9.3c-0.4-1.4-0.9-2.7-1.3-4c-1.5-4.4-3-8.6-4.6-12.5c-0.8-2-1.7-4-2.5-5.8
		c-2.1-4.6-4.1-8.8-6.2-12.6c-0.3-0.6-0.7-1.3-1-1.9c-0.1-0.2-0.2-0.3-0.3-0.5c0,0,0,0,0,0c-6.2-11.3-11.7-18.6-14-22
		c1.5,3,4.3,8.7,7.7,15.9C391.4,155.4,395.4,164.3,398.9,173.3z"/>
	<path fill="#005B00" d="M409.3,207.5c0.1,0.3,0.1,0.6,0.2,0.9l3.9-4.2c-0.1-0.3-0.1-0.6-0.2-0.9L409.3,207.5z"/>
	<path fill="#FFDF00" d="M455.7,158.9C455.7,158.9,455.7,159,455.7,158.9L455.7,158.9L455.7,158.9z"/>
	<path fill="#FFDF00" d="M459,235.4c-1.4-7.2-2.9-16.1-4.2-25.6c-2.1,19.7-4.5,37.8-6.1,41.9c-1.2,2.8-3.5,1.8-3.5-0.4
		c0.5-1.2,4.7-30.9,7.8-57.5c-0.9-10.5-1.3-21-0.5-30.2c-0.5,0.3-1,0.5-1.6,0.6l-14.2,15.1c-0.1,0.7-0.6,1.1-1.1,1.2l-0.5,0.5
		c0,7.9,10.5,72-2.4,119.9l5.3-1.8l18.6-13.9c1.4-14.8,2.1-30.3,2.2-45C459,238.5,459,236.9,459,235.4z"/>
	<path fill="#FFDF00" d="M455.7,159l-1.4,1.5c0.3,0.5,0.5,1.1,0.8,1.8c-0.4,5.3-0.5,10.7-0.4,16.2c0.6-5.8,1.1-11.1,1.4-15.4
		C455.9,160.7,455.7,159.3,455.7,159z"/>
	<path fill="#FFDF00" d="M458.8,217.6c-0.3-13.2-0.8-25.2-1.4-34.8c-0.4,4.8-0.9,10-1.4,15.2C456.8,204.8,457.8,211.5,458.8,217.6z"
		/>
	<path fill="#0000C4" d="M435.2,181C435.2,181,435.2,180.9,435.2,181l-2.3,2.4l-8.5,9.1l-2.8,3l-0.8,0.9l-3.8,4l-0.5,0.5l-3.1,3.3
		l-3.9,4.2l-0.7,0.8l-1.4,1.5l-1.3,1.4l-2.6,2.8l-4.2,4.5l-9.6,10.2v0l25-26.7c0,9.4,7.5,75-9.6,107.5l27.8-9.6
		C445.7,253,435.2,188.9,435.2,181z"/>
	<path fill="#E10000" d="M414.6,202.9l-25,26.7c0.1,2.1,0.1,4.1,0.1,6.2v0.1c0,46.2-23.2,85.1-54.4,95.9h6c0-0.3,0.1-0.4,0.1-0.4
		h5.7c3.6-2.3,12-5.1,46.2-16.9l11.7-4C422.1,277.9,414.6,212.3,414.6,202.9z"/>
	<path d="M450.3,164.2c-0.9,0-1.8-0.2-2.6-0.6l-11.6,12.2c0.3,1.2,0.5,2.1,0.6,2.7L450.3,164.2z"/>
	<polygon points="456.2,158 456.1,158.1 456.2,158.1 	"/>
	<path d="M455.2,157.1c-0.7,0.2-1.1,0.7-1.1,0.7l-0.8,0.8c0.3,0.4,0.6,0.9,0.8,1.5l2-2.1L455.2,157.1z"/>
	<path d="M403,214.1l2.6-2.8l1.3-1.4l1.5-1.6l0.8-0.9l4-4.2l3.2-3.3l0.5-0.5l3.7-3.9l0.9-0.9l2.8-3l8.6-9.1l2.1-2.2
		c-0.4-0.1-0.8-0.4-1-0.9c0-0.1-0.1-0.5-0.2-1.1l-0.8,0.9l-9,9.5l-2.7,2.9l-1,1.1l-3.6,3.8l-0.7,0.7l-3.2,3.4l-4,4.2l-1.1,1.1
		l-1.7,1.8l-1.5,1.5l-2.6,2.7l-2.2,2.3l-10.2,10.8c0.1,1,0.2,2.1,0.2,3.1l9.7-10.3L403,214.1z"/>
	<path fill="#CECECC" d="M453.3,158.7l0.8-0.8c0,0,0.3-0.5,1.1-0.7c0.3-0.1,0.7-0.1,1.2,0.1c0-0.6,0-1.2,0-1.7
		c-1.4,0.3-2.9-0.2-3.9-1l-1.8,1.8C451.5,156.5,452.4,157.2,453.3,158.7z"/>
	<path fill="#CECECC" d="M459.2,159.7c0.4,0.9,0.2,1.8-0.1,2.6c0,0.7-0.1,1.5-0.1,2.3c1.6-0.1,4-0.7,6.2-2.9
		c3.5-3.5,4.6-9.6,4.6-9.6s-3.5,3.6-6,1.1c-2.5-2.5-0.5-4.3-0.7-4.2l1.8-1.8l6-1.1l0,0l1.7-9l-9.1,1.5l-1.1,6l-4.1,4.1
		c0.8,1,1.3,2.8,1.2,6.3C459.4,156.3,459.3,157.9,459.2,159.7z"/>
	<path fill="#CECECC" d="M431.2,124.4l1.2-0.8l3-2.2l11,0.4l-6-3.9l9.2-2.5l7.3-11.3l0,0l-12.6,2.8l-5.7,8.2l-1.1-7.4l-3.9,11
		l-1.4,1l-0.6,0.4C431.5,121.4,431.3,122.9,431.2,124.4z"/>
	<path fill="#E10000" d="M429.2,120.9c0,0.2,0,0.4-0.1,0.6c0.2,0.3,0.3,0.6,0.5,1c-0.7,5.6-0.7,11.4-0.3,17.1
		c0.7-5.3,1.4-10.6,1.8-15.1c0.2-1.6,0.3-3.1,0.4-4.4c0.1-0.6,0.1-1.3,0.2-1.9c0.1-1.2,0.2-2.3,0.2-3.2c0,0,0-0.1,0-0.1
		c0-0.7,0.1-1.3,0.1-1.8c0.1-4.1-1.5-4.4-3.3-4.3c-1.5,0.1-3.3,1.1-3.3,2.4c0,1.5,2.3,2.6,4.3,2.3c0,1.1-0.1,2.5-0.2,4.1
		c0,0,0,0.1,0,0.1C429.4,118.6,429.3,119.7,429.2,120.9z"/>
	<path fill="#E10000" d="M420.7,170.7c0,0.3,0.1,0.6,0.3,0.9c0.6,0.6,1.8,0.6,2.5-0.6c1.2-2.3,2.9-11.9,4.5-22.8
		c-0.5-4.1-0.9-8.2-1-12.3c-2.4,15.2-5.6,32.2-6.3,34.6C420.8,170.6,420.8,170.7,420.7,170.7z"/>
	<path fill="#0000C4" d="M426.6,123.6c0.3-0.1,0.6-0.2,0.9-0.3c-0.5,3.9-0.6,8.2-0.4,12.6c0.1,4.1,0.5,8.2,1,12.3
		c1.3,10.7,3.5,20.8,4.8,26.5c0.4,1.6,0.6,2.8,0.8,3.7c0.1,0.6,0.2,1,0.2,1.1c0.2,0.5,0.6,0.7,1,0.9c0.2,0.1,0.4,0.1,0.7,0.1
		c0.5-0.1,1-0.4,1.1-1.2c0-0.1,0-0.2,0-0.3c0-0.1,0-0.2,0-0.5c-0.1-0.5-0.3-1.4-0.6-2.7c-0.7-2.8-2-7.3-3.2-12.9
		c-1.5-6.7-3-14.9-3.6-23.5c-0.4-5.7-0.4-11.5,0.3-17.1c-0.2-0.4-0.3-0.7-0.5-1c-0.1-0.1-0.1-0.2-0.2-0.3c-0.4-0.7-0.9-1.3-1.3-1.6
		c0,0,0,0-0.1-0.1c-1.1-1-2.2-0.9-3.3-0.5c-1.4,0.4-2.6,1.9-2,3.2c0.3,0.6,0.8,1,1.5,1.2c0,0,0.1,0,0.1,0
		C424.8,123.7,425.7,123.8,426.6,123.6z"/>
	<path fill="#E10000" d="M445.2,251.3c0,2.2,2.3,3.2,3.5,0.4c1.6-4.1,4-22.2,6.1-41.9c-0.7-5.2-1.3-10.6-1.8-16
		C449.9,220.4,445.7,250.1,445.2,251.3z"/>
	<path fill="#E10000" d="M456.4,155.5c0,0.5,0,1.1,0,1.7c0,1.6-0.1,3.6-0.3,5.8c-0.3,4.3-0.8,9.6-1.4,15.4
		c0.2,6.6,0.7,13.1,1.4,19.5c0.5-5.2,1-10.3,1.4-15.2c0.6-6.8,1.1-13.1,1.5-18.2c0.1-0.8,0.1-1.5,0.1-2.3c0.1-0.9,0.1-1.8,0.1-2.6
		c0.1-1.8,0.2-3.3,0.2-4.6c0.1-3.5-0.4-5.3-1.2-6.3c-0.8-0.9-1.8-1-3-1c-1.9,0.1-4.1,1.9-4.1,4c0,1,0.6,2,1.4,2.7
		C453.5,155.4,455,155.8,456.4,155.5z"/>
	<path fill="#0000C4" d="M450.3,164.2c0.2,0,0.4,0,0.6-0.1c0.6-0.1,1.1-0.3,1.6-0.6c-0.8,9.2-0.4,19.7,0.5,30.2
		c0.5,5.4,1.1,10.8,1.8,16c1.3,9.5,2.8,18.4,4.2,25.6c0.3,1.6,0.6,3.2,0.9,4.6c1.5,7.5,2.5,12.4,2.5,13c0.8,2.1,3.6,2.4,3.6-0.7
		c0.2-0.6-1-5.1-2.6-12.3c-1.3-5.9-3-13.6-4.5-22.4c-1.1-6.2-2.1-12.8-2.8-19.7c-0.7-6.4-1.2-13-1.4-19.5c-0.1-5.4,0-10.9,0.4-16.2
		c-0.3-0.7-0.5-1.2-0.8-1.8c-0.1-0.1-0.1-0.2-0.2-0.3c-0.3-0.6-0.6-1.1-0.8-1.5c-0.9-1.4-1.8-2.1-2.6-2.4c-0.8-0.2-1.7,0-2.5,0.3
		c-1.7,0.7-3.2,3-2.4,5c0.4,0.9,1.1,1.6,2,2C448.5,164,449.4,164.2,450.3,164.2z"/>
	<path fill="#E10000" d="M307.7,387.3c0.3-0.7,0.5-1.4,0.6-2.1c0.2-1.3,0.6-3,1-3.9c0.5-1,0.7-3.3,0.7-6.5c0-3.6,0.2-5.5,0.9-7.5
		c0.2-0.7,0.4-1.4,0.6-2h-2.3C308.8,372.5,308.4,380.2,307.7,387.3z"/>
	<path fill="#E10000" d="M287,422.6L287,422.6c0.5,0.3,1,0.6,1.5,0.8c0.1-1,0.3-2,0.5-3.1C288.4,421.1,287.7,421.8,287,422.6z"/>
	<path fill="#0000C4" d="M293.3,407.3c-1.9,5.4-3.5,9.4-4.3,13c-0.2,1.1-0.4,2.1-0.5,3.1c0,0.5-0.1,1-0.1,1.5c0.6,0,1.2-0.1,1.8-0.2
		c0.1-0.5,0.6-1.7,1.2-2.7c0.7-1.3,1.3-3.1,1.5-4.2c0.2-1.3,0.6-2,1.3-2.3c0.9-0.4,1.2-1.2,1.9-6.2c0.1-0.8,0.2-1.4,0.3-2.1
		C295.3,407.1,294.3,407.1,293.3,407.3z"/>
	<path fill="#0000C4" d="M309.1,365.2c-0.3,7.2-0.8,15-1.4,22.1c0,0,0,0,0,0C308.4,380.2,308.8,372.5,309.1,365.2L309.1,365.2z"/>
	<path fill="#0000C4" d="M296.6,365.2c-1,6.7-2.4,12.5-4.3,15c0-0.4-4,2.5-8.6,4.2c-3.7,14.6-7.1,25.5-5.6,29.4
		c2.3,4.7,7.8-4.9,15.2-6.5c1-0.2,2-0.3,3-0.2c1-7.2,1.4-7.8,5.3-12c3.6-3.9,5.3-6,6.1-7.9c0.7-7.1,1.1-14.8,1.4-22.1H296.6z"/>
	<path fill="#FFDF00" d="M292.3,380.3c-4.3-2.9-8.2-3.2-11.7-2.6c-1.5,2.7-2.6,5-2.6,8c1.8,0,3.8-0.5,5.7-1.2
		C288.3,382.7,292.3,379.9,292.3,380.3z"/>
	<path fill="#FFDF00" d="M283.6,331.7h15c0-0.3-0.1-0.4-0.1-0.4h-6.2h-12.4c0,0,0,0.1,0,0.1c1.4,0,3.7,0,3.7,0V331.7z"/>
	<path fill="#FFDF00" d="M292.3,380.3c1.9-2.6,3.3-8.3,4.3-15h-13.3l-0.7,0.7h-4.9l0,0l0,0h0l0.7-0.7h-5.2l0-4.1
		c-3.7,9.5-7.2,16.5-5.7,19.1c2.2,2.8,6.8-1.5,13.2-2.6C284.1,377.1,288,377.4,292.3,380.3z"/>
	<path fill="#E10000" d="M322.1,367.9c0.9-0.6,1.9-1.4,2.6-2h-2.6V367.9z"/>
	<polygon fill="#E10000" points="322.7,365.2 322.1,365.2 322.1,365.8 	"/>
	<path fill="#FFDF00" d="M341.5,331.4c0,0-0.1,0.1-0.1,0.4h5.2c0.2-0.1,0.3-0.2,0.5-0.4H341.5z"/>
	<path fill="#908F8A" d="M255.1,357.1l2.7-3.9h11.7h3.2h0.6l0-2.4h0l0-4.8h0l0-0.6h-3.3h-12.1l-2.7-3.9c0-3.9,0.6-7.8,2.7-7.8h3.4
		h7.4c0-3.9-5.4-11.7-16.1-11.7c-2.7,0-5,0.5-7,1.3c-6.1,2.4-9.2,7.5-9.2,10.4H247c2.1,0,2.7,3.9,2.7,7.8l-2.7,3.9l-5.4-3.9l0,0
		l-5.8,4.2l-5,3.6l10.8,7.8l5.4-3.9l2.7,3.9l2.3,6.6l0.4,1.2l0.5-1.6L255.1,357.1z"/>
	<path fill="#B74D00" d="M335.4,331.7c-2.1,0.7-4.2,1.3-6.4,1.8l7.8,7.6c0.9-0.9,2-2,3.5-3.5c1.1-1.1,2.5-2.4,3-3
		c1.3-1.3,2-2.1,3.1-3h-5.2H335.4z"/>
	<polygon fill="#B74D00" points="300.4,348.7 313.1,361 313.1,336.4 	"/>
	<path fill="#B74D00" d="M297.9,351.1l-14.5,14.1h13.3h12.5h0h2.3c0.1-0.3,0.1-0.5,0.2-0.8L297.9,351.1z"/>
	<polygon fill="#B74D00" points="278.4,365.2 278.7,364.9 278.7,364.9 278.7,332.4 278,331.7 273.2,331.7 273.2,336.5 273.2,336.5 
		273.2,337.5 273.2,341.3 273.2,341.3 273.2,344.5 273.2,345.5 273.2,346.1 273.2,346.1 273.2,350.9 273.2,350.9 273.2,353.2 
		273.2,355.6 273.2,355.6 273.2,360 273.2,360.4 273.2,360.4 273.2,361.2 273.2,365.2 	"/>
	<path fill="#B74D00" d="M283.6,331.7v0.7l14.3,13.9l12.5-12.1c-3.4-0.5-6.8-1.3-10-2.4h-1.7H283.6z"/>
	<path fill="#B74D00" d="M323.1,334.4c-1.7,0.2-3.3,0.3-5,0.3v29.8c0.1,0.2,0.1,0.5,0.2,0.7h4h0.6l0.3-0.3v-3.9
		c-1.8-2.2-1.9-3.5,0-5.3V334.4z"/>
	<path fill="#B74D00" d="M328,337.3v15.1c2-1.2,2-1.5,2-3.4c0-2.1,0-2.1,1.4-1.8c1.2,0.2,1.4,0.1,2.4-1.9c0.3-0.5,0.5-1,0.9-1.5
		L328,337.3z"/>
	<polygon fill="#B74D00" points="283.6,337.2 283.6,360.2 295.4,348.7 	"/>
	<polygon fill="#908F8A" points="278.7,331.5 277.7,331.5 278,331.7 278.7,332.4 	"/>
	<polygon fill="#908F8A" points="277.7,331.5 277.7,331.5 277.7,331.5 	"/>
	<path fill="#908F8A" d="M300.4,348.7l-2.5,2.4l13.8,13.4c0.1-0.3,0.1-0.5,0.1-0.7c0-0.7,0.4-1,1.3-1.2V361L300.4,348.7z"/>
	<polygon fill="#908F8A" points="283.6,332.4 283.6,337.2 295.4,348.7 297.9,346.3 	"/>
	<polygon fill="#908F8A" points="277.7,365.9 277.7,365.9 277.7,365.9 	"/>
	<path fill="#908F8A" d="M297.9,346.3l-2.5,2.4l-11.8,11.5v4.7h-4.9l-0.3,0.3l-0.7,0.7h4.9l0.7-0.7l14.5-14.1l2.5-2.4l12.7-12.3
		v-1.9c-0.9-0.1-1.8-0.2-2.7-0.3L297.9,346.3z"/>
	<path fill="#908F8A" d="M283.6,360.2v-23v-4.8v-0.7v-0.3c0,0-2.3,0-3.7,0c-0.5,0-1.3,0-1.3,0v0v0.9v32.6h0.1h4.9V360.2z"/>
	<path fill="#908F8A" d="M329,333.5c-0.3,0.1-0.7,0.1-1,0.2v3.6l6.7,6.5c0.5-0.8,1.2-1.5,2.2-2.6L329,333.5z"/>
	<polygon fill="#908F8A" points="322,365.9 322,365.9 322,365.9 	"/>
	<path fill="#908F8A" d="M323.1,364.9l-0.3,0.3l-0.6,0.6l-0.1,0.1h0.1h2.6c0.4-0.4,0.7-0.7,0.9-1L323.1,364.9L323.1,364.9z"/>
	<path fill="#908F8A" d="M328,337.3v-3.6c-1.6,0.3-3.3,0.6-5,0.7v21.3c0.9-0.8,2.3-1.8,4.1-2.9c0.3-0.2,0.6-0.3,0.8-0.5V337.3z"/>
	<path fill="#908F8A" d="M323.1,364.9h2.5c0,0,0-0.1,0.1-0.1c0.1-0.5-0.3-1.4-1.3-2.4c-0.5-0.5-0.9-1-1.2-1.4V364.9L323.1,364.9z"/>
	<path fill="#908F8A" d="M318,334.7c0,0-0.1,0-0.1,0c-1.6,0-3.2-0.1-4.8-0.2v1.9V361v1.5c0.5-0.1,1.2-0.2,2-0.2c1.7,0,2.5,0.5,3,2.1
		V334.7z"/>
	<path fill="#FFDF00" d="M317.9,137c1,0,1.9,0,2.9,0.1c0,0,0,0,0,0C319.8,137,318.8,137,317.9,137z"/>
	<path fill="#FFDF00" d="M345.9,144.8L345.9,144.8c-4.3-2.6-8.9-4.5-13.7-5.8c0,0,0,0,0,0C336.9,140.3,341.5,142.3,345.9,144.8z"/>
	<path fill="#FFDF00" d="M303.8,138.9c-2.2,0.6-4.3,1.3-6.5,2.2C299.4,140.2,301.6,139.5,303.8,138.9
		C303.8,138.9,303.8,138.9,303.8,138.9z"/>
	<path fill="#FFDF00" d="M311.4,137.4c2.1-0.3,4.3-0.4,6.5-0.4C315.7,137,313.5,137.1,311.4,137.4
		C311.4,137.4,311.4,137.4,311.4,137.4z"/>
	<path fill="#FFDF00" d="M246,235.9c0,46.2,23.2,85.1,54.4,95.9c3.3,1.1,6.6,1.9,10,2.4c0.9,0.1,1.8,0.2,2.7,0.3
		c1.6,0.1,3.2,0.2,4.8,0.2c0,0,0.1,0,0.1,0c1.7,0,3.4-0.1,5-0.3c1.7-0.2,3.3-0.4,5-0.7c0.3-0.1,0.7-0.1,1-0.2
		c2.2-0.5,4.3-1.1,6.4-1.8c31.2-10.8,54.4-49.6,54.4-95.9v-0.1c0-2.1-0.1-4.2-0.1-6.2v0c0-0.4,0-0.9-0.1-1.3
		c-0.1-1.1-0.1-2.1-0.2-3.1c-1.4-17.8-6.2-34.2-13.6-47.9c-0.3-0.6-0.7-1.3-1-1.9c-0.1-0.2-0.2-0.4-0.3-0.6c0,0,0,0,0,0
		c-7.5-13-17.3-23.5-28.6-30l0,0c0,0,0,0,0,0l-4,10c7.6,4.6,14.4,11.3,20.1,19.6l4.5,0.9l0.1,0.1l4.9,9.6l-1.7-0.4
		c0.8,1.5,1.4,2.6,1.6,2.8c0.1,0,0.1,0,0.1,0c0,0,0,0-0.1,0c-0.2-0.1-1-0.4-2.4-0.8c6.7,14.1,10.6,31.1,10.6,49.3l0,0v0v0
		c0,0.8,0,1.5,0,2.2c0.1,7.3-0.6,12.9-1.7,18.6c-1,5.8-2.4,11.4-4.2,16.7c-0.3,1.3-0.7,2.7-1,4.1c-0.1,0.2-0.3,0.3-0.6,0.3
		c-6.5,16.9-16.8,30.4-29.2,38.2l3.2,8.1c0,0,0,0,0,0l0,0.1l0-0.1c-8.6,5-18.1,7.8-28,7.8c-9.9,0-19.4-2.8-28-7.8l3.2-8
		c-7.1-4.4-13.5-10.7-18.9-18.4c0,0-0.1,0-0.1,0c-0.8-1.3-1.7-2.6-2.5-3.9c-3.2-5.1-5.9-10.7-8.2-16.7c-5.1-13.1-7.6-27.2-7.4-41.5
		c0,0,0.1,0,0.1,0c0,0,0,0,0,0c0,0-0.1,0-0.1,0c0-12.1,1.7-23.6,4.9-34.2c0,0,0,0,0.1,0c1.7-5.8,3.9-11.3,6.4-16.5
		c-1.6,0.4-2.5,0.7-2.5,0.7h0l6.6-11.5c-0.1-0.1,0.9-0.5,2.9-1c5.5-7.8,12.1-14.2,19.4-18.6l-4-10.1c-10.5,6.1-19.7,15.5-26.9,27.3
		c0,0,0,0,0,0c-0.1,0.2-0.2,0.4-0.3,0.6c-0.4,0.6-0.7,1.2-1.1,1.8c-7.6,13.2-12.9,29.2-14.8,46.6c-0.1,1-0.2,2-0.3,3
		c0,0.4-0.1,0.8-0.1,1.2l0,0C246.1,228.8,246,232.3,246,235.9z"/>
	<path fill="#FFDF00" d="M345.9,144.8L345.9,144.8L345.9,144.8L345.9,144.8L345.9,144.8C345.9,144.8,345.9,144.8,345.9,144.8z"/>
	<path fill="#FFDF00" d="M317.9,147.9c8.5,0,16.6,2.5,24,6.9l4-10c-4.4-2.5-8.9-4.5-13.7-5.8c0.7,3.3,1.6,7.1,1,7.2
		c-1,0.2-3.5-7.8-4.6-7.8s-9.8,8.2-9.8,8.2s6.7-7.8,5.7-8.8c-0.9-1-9.8,3.5-9.8,3.5s3.1-1.9,6-4.2c-0.9-0.1-1.9-0.1-2.9-0.1
		c-2.2,0-4.3,0.1-6.5,0.4c0.7,3.3,1.9,8,1.3,8.1c-1,0.2-3.5-7.3-4.6-7.3s-9.8,7.7-9.8,7.7s4.2-4.6,5.5-7c-2.2,0.6-4.3,1.3-6.5,2.2
		c-2.5,1-5,2.2-7.4,3.6l0,0l4,10.1C301.3,150.4,309.4,147.9,317.9,147.9z"/>
	<path fill="#FFDF00" d="M346.1,324.3C346.1,324.3,346.1,324.3,346.1,324.3L346.1,324.3L346.1,324.3z"/>
	<path fill="#FFDF00" d="M317.9,323.7c-8.8,0-17.1-2.6-24.7-7.3l-3.2,8c8.6,5,18.1,7.8,28,7.8c9.9,0,19.4-2.8,28-7.8l-3.2-8.1
		C335.2,321,326.8,323.7,317.9,323.7z"/>
	<path fill="#A7CFFF" d="M256.3,235.8C256.3,235.8,256.3,235.8,256.3,235.8C256.3,235.8,256.3,235.8,256.3,235.8
		C256.3,235.8,256.3,235.8,256.3,235.8z"/>
	<path fill="#A7CFFF" d="M263.6,277.4c2.3,6,5,11.6,8.2,16.7C268.6,288.8,265.8,283.2,263.6,277.4z"/>
	<path fill="#A7CFFF" d="M332.5,180.1l0.2,0.1l-0.7-0.2c-2.1-0.2-4.2-0.3-6.4-0.4l3.7,5.8l-6.6-4.8l1.6,8.4L320,182l-1.5,8.4
		l-1.5-8.4l-4.4,7.1l1.6-8.4l-6.6,4.8l3.8-6.1c-1.4,0-2.8,0.1-4.1,0.1l-3,0.7l0.8-0.6c-18.6,0.9-32.3,4.1-37.6,5.5
		c-2.5,5.1-4.7,10.6-6.4,16.5c15.6,1.2,6.3-9.7,15.6-9.7c5.5-0.3,10.8,1.9,14.7,6.1c1.4,0,8.4-7.1,16.2-6.1
		c7.8,1,4.9,16.9,15.3,17.7c5.2,4.2,8.3,6.9,15.5,8.6c10.3,1,39.7-1.5,39.8-0.1c0.8,5.9,1.3,11.8,1.3,17.7h0h0c0,0.8,0,1.5,0.1,2.3
		c0-0.7,0-1.5,0-2.2c0-18.3-3.9-35.3-10.6-49.3C363.7,185,350.5,181.6,332.5,180.1z"/>
	<path fill="#A7CFFF" d="M363.1,270.7c-3.1-2.9-4.5,2.6-8.5-1.9c-3.9-4.6-6.4,1.2-9.3-2.6c-1.2-1.7-6.9-2.7-13-3.4
		c0.4,0.4,0.7,1.2,0.7,2.1c0,0.4-0.1,0.7-0.2,1.1c1.1,0.4,2.9,1.5,2.8,3.2c-0.1,4.1-2.5,4.2-2.5,8.5c0,4.4,2.7,6.2,2.7,8.9l0,0
		c0,2.7-1.9,6.3-1.9,6.3s1-4.5,1-6.1c0-1.6-2.3-3.3-2.5-8.6c-0.2-5.5,2.7-7.5,2.7-9.1c0-0.8-2.1-1.2-2.9-1.1c-0.2,0-0.3,0.1-0.5,0.3
		c0.2,0.9,0.4,1.8,0.4,2.1c0,0.5-0.4-0.5-0.9-1.3c-0.5,0.9-0.9,1.8-0.9,1.4c0-0.3,0.2-1.1,0.4-1.9c-0.1-0.1-0.3-0.2-0.4-0.2
		c-0.8,0-2.5,0.3-2.5,1.1c0,1.6,3,3.6,2.7,9.1c-0.2,5.4-2.5,7-2.5,8.6c0,1.6,1,6.1,1,6.1s-1.9-3.6-1.9-6.3l0,0
		c0-2.7,2.7-4.6,2.7-8.9s-2.4-4.5-2.5-8.5c0-1.6,1.9-3.2,2.9-3.5c-0.1-0.4-0.2-0.8-0.2-1.2c0-1,0.3-1.7,0.7-2.1
		c-7.6-0.8-15.2-1-15.2-1.2c2.7-1.4,16.4,0.1,14.2-6.9c-2.5-7.3-18-0.2-20.1-9.5c-0.5-3.4-4.9-5.6-10.3-7.2
		c-4.6-0.4-9.2-2.1-13.7-2.1c-1.2,0-2.4,0.1-3.5,0.3c6.8,2.2,17.2,4.8,16.8,11c-0.5,3.7-21.9,4.8-24,7.9c-1.7,3.9,16.8-1.1,17.5,3.7
		c0,2-2.7,0-12.4,3.1c-4.9,1.6,8.9,6.4,3.7,9.1c-5.2,2.7-16.4,3.8-15.9,5c1.7,5.6,25.9,12.2,23.5,13.1c-8.5,4.1-13.1,6.7-17.1,9.1
		c5.4,7.7,11.8,14,18.9,18.4c7.6,4.7,15.9,7.3,24.7,7.3c8.9,0,17.3-2.7,25-7.5c12.4-7.8,22.7-21.4,29.2-38.2
		C370.3,278.1,365.9,273.2,363.1,270.7z M295.4,286.9c0,0,1.3,0.6,3.3,1.6c5.4,1.9,15.3,4.7,15.8,4.7l0.6-16.1l3.9-0.7l-1.3,16.9
		l19.7,0.7l1.3-6.3h9.2l-0.6,6.3l2.6-0.9l0.1-19.2h0.4v19l3.7-1.2v-10.2l-1.5-0.3v-0.5l1.5,0.3v-8.7h0.5v8.8l2,0.4v0.5l-2-0.4v9.9
		l3.2-1.1c0,0,0,1.4-1.3,6.3c-1.3,5-7.3,5-7.3,7.1l-33.5-1.4c0,0,1.3,0-2-4.2c-2.3-3-10.5-7.3-15.1-9.7
		C296.9,287.8,295.6,287.2,295.4,286.9L295.4,286.9z"/>
	<path fill="#A7CFFF" d="M373.7,273.5c1.8-5.3,3.2-10.9,4.2-16.7C376.8,261.9,375.3,267,373.7,273.5z"/>
	<polygon fill="#A7CFFF" points="379.6,235.9 379.6,235.9 379.6,235.9 	"/>
	<path fill="#A7CFFF" d="M293.9,154.9c-7.3,4.4-13.8,10.8-19.4,18.6c5.3-1.3,17.4-3.6,31.9-4.3l-2.1-1.5l6,1.3c0.5,0,1,0,1.5,0
		l-4.2-6.6l5.8,4.2c0.1-0.4,0.3-0.8,0.4-1.2l-1.3-6.6l2.7,4.3c0.7-0.8,1.6-1.5,2.5-2l0.6-3.6l0.6,3.1c0.8-0.3,1.7-0.4,2.6-0.4
		c0.6,0,1.2,0.1,1.7,0.2l1-1.7l-0.3,1.8c1.6,0.5,3,1.4,4.1,2.7l1.3-0.9l-0.9,1.4c0.9,1.3,1.5,2.8,1.6,4.5l2.7-0.6l-2.7,1.9
		c0,0,0,0.1,0,0.1c2.2,0.2,4.3,0.4,6.3,0.7l1.1,0.1l0,0.1c1.4,0.2,2.7,0.4,4,0.5l0-0.3l13.4,1.7l-0.1,1c1.3,0.3,2.6,0.6,3.7,0.8
		l0.1-0.5l3.5,0.7c-5.7-8.3-12.5-15-20.1-19.6c-7.4-4.5-15.5-6.9-24-6.9C309.4,147.9,301.3,150.4,293.9,154.9z"/>
	<path fill="#AFFF7B" d="M291.5,288.9c2.4-0.9-21.8-7.5-23.5-13.1c-0.5-1.1,10.7-2.3,15.9-5c5.2-2.7-8.6-7.5-3.7-9.1
		c9.6-3.1,12.4-1.1,12.4-3.1c-0.6-4.8-19.2,0.2-17.5-3.7c2.1-3.1,23.4-4.2,24-7.9c0.4-6.2-10-8.8-16.8-11c-3.9,0.6-7.9,1.9-11.6,1.9
		c-4.9,0-9.6-2.1-14.2-2.2c0,0,0,0-0.1,0c0,0-0.1,0-0.1,0c-0.2,14.3,2.3,28.4,7.4,41.5c2.2,5.8,5,11.4,8.2,16.7
		c0.8,1.3,1.6,2.6,2.5,3.9c0,0,0.1,0,0.1,0C278.4,295.6,282.9,293,291.5,288.9z"/>
	<path fill="#AFFF7B" d="M365,238c-5,0-10.2-2.2-15.4-2.2c-5.2,0-11.2,2.9-16.5,2.9c-5.4,0-10.1-2.8-15.5-2.8
		c-5.4,0-10.8,2.1-16.1,2.1c-0.7,0-1.4,0-2.1-0.1c5.4,1.5,9.7,3.8,10.3,7.2c2.1,9.3,17.6,2.2,20.1,9.5c2.2,7-11.5,5.5-14.2,6.9
		c0,0.2,7.7,0.4,15.2,1.2c0.2-0.2,0.4-0.3,0.7-0.3c0.3,0,0.6,0.2,0.8,0.4c6.1,0.7,11.8,1.7,13,3.4c2.9,3.8,5.4-2,9.3,2.6
		c3.9,4.5,5.3-1.1,8.5,1.9c2.8,2.6,7.2,7.4,9,7.3c0.2,0,0.4-0.1,0.6-0.3c0.4-1.4,0.7-2.8,1-4.1c1.7-6.4,3.1-11.6,4.2-16.7
		c1.2-5.7,1.9-11.4,1.7-18.6c0-0.7,0-1.5-0.1-2.3C374.9,235.9,370,238,365,238z"/>
	<polygon fill="#AFFF7B" points="379.5,235.9 379.5,235.9 379.5,235.9 	"/>
	<path fill="#FFFFFF" d="M270.5,238c3.8,0,7.7-1.3,11.6-1.9c1.2-0.2,2.4-0.3,3.5-0.3c4.5,0,9.1,1.6,13.7,2.1
		c0.7,0.1,1.4,0.1,2.1,0.1c5.3,0,10.7-2.1,16.1-2.1c5.4,0,10.1,2.8,15.5,2.8c5.3,0,11.3-2.9,16.5-2.9c5.2,0,10.3,2.2,15.4,2.2
		c5,0,9.9-2.1,14.5-2.1l0,0c0-5.9-0.4-11.9-1.3-17.7c-0.2-1.4-29.6,1.1-39.8,0.1c-7.2-1.7-10.3-4.4-15.5-8.6
		c-10.4-0.8-7.5-16.7-15.3-17.7c-7.8-1-14.8,6.1-16.2,6.1c-3.9-4.2-9.2-6.4-14.7-6.1c-9.3,0,0,10.9-15.6,9.7c0,0,0,0-0.1,0
		c-3.1,10.5-4.9,22.1-4.9,34.2c0,0,0.1,0,0.1,0c0,0,0,0,0.1,0C260.9,235.9,265.7,238,270.5,238z M262.8,230.1c0,0-2.3,4-2.8,4
		s-1.8,0-2.8-1.5h0C259.1,231.1,262.8,230.1,262.8,230.1z M308.3,227.1l-4.6-9.4c0.5,0,9.3,8.4,9.3,8.4L308.3,227.1z M333.4,218.7
		c0,0.5-7.9-3.5-7.9-3.5l-4.2-4.4C321.3,210.8,333.4,218.2,333.4,218.7z M321.3,222.7c0,0.5-2.7-2-2.7-2l-0.5-9
		C318.6,212.2,321.3,222.2,321.3,222.7z M299.6,195.3L299.6,195.3c2,1.4,17.6,14.4,17.1,14.4c-0.5,0-7.4-4-7.4-3.4v3.4l-3.8-7.9
		l-0.9,3L299.6,195.3c0,0-0.1,0-0.1,0H299.6z M285.1,197.8L285.1,197.8L285.1,197.8l11.2,11.9l-6.5-2.4l10.2,15.4l-7.9-4
		c0,0,0-4.9-2.3-8.9C287.4,205.8,284.6,197.8,285.1,197.8L285.1,197.8z M285.6,223.2c0-0.4,0-3-0.5-4.5c0,0,5.6,6,6,8
		c0.4,2,0.5,6.4,0.5,6.4l-2.3-5l-3.3,4.5c0,0,2.4-7,1.9-7.5s-3.7,2.5-3.7,2.5S285.6,223.6,285.6,223.2z M281.4,194.9L281.4,194.9
		c0-0.1,1,7.9-5.1,17.9c-3.1,5.1-4.3,6.6-4.8,6.9c0.7,1.4,2.4,5,2,5c-0.5,0-4.7-5-4.7-5l-5,5.5c0,0,4.6-8.5,4.1-8.5s-1.4-3-1.4-3
		l3.7-1.5c0,0,4.4-8.2,5.4-9.7c-1.9,1.6-16.5,11.2-16.5,11.2L281.4,194.9z"/>
	<path d="M332.1,270.4c0-0.3-0.1-1.2-0.4-2.1c-0.2,0.2-0.4,0.5-0.5,0.8C331.7,269.9,332.1,270.9,332.1,270.4z"/>
	<path d="M330.3,266c-1,0.3-2.9,1.9-2.9,3.5c0.1,4.1,2.5,4.2,2.5,8.5s-2.7,6.2-2.7,8.9l0,0c0,2.7,1.9,6.3,1.9,6.3s-1-4.5-1-6.1
		c0-1.6,2.3-3.3,2.5-8.6c0.2-5.5-2.7-7.5-2.7-9.1c0-0.8,1.7-1.2,2.5-1.1c0.1,0,0.3,0.1,0.4,0.2c0.1-0.4,0.3-0.9,0.5-1.3
		C330.8,267.1,330.5,266.6,330.3,266z"/>
	<path d="M331.5,267.3c-0.1,0-0.2,0-0.3-0.1c-0.2,0.4-0.3,0.8-0.5,1.3c-0.3,0.8-0.4,1.6-0.4,1.9c0,0.5,0.4-0.5,0.9-1.4
		c0.2-0.3,0.3-0.6,0.5-0.8c0.2-0.2,0.3-0.3,0.5-0.3c0.8,0,2.9,0.3,2.9,1.1c0,1.6-3,3.6-2.7,9.1c0.2,5.4,2.5,7,2.5,8.6
		c0,1.6-1,6.1-1,6.1s1.9-3.6,1.9-6.3l0,0c0-2.7-2.7-4.6-2.7-8.9c0-4.4,2.4-4.5,2.5-8.5c0.2-1.6-1.7-2.8-2.8-3.2
		C332.6,266.8,332.1,267.3,331.5,267.3z"/>
	<path d="M330.1,264.8c0,0.5,0.1,0.9,0.2,1.2c0.2,0.6,0.5,1.1,0.9,1.2c0.1,0,0.2,0.1,0.3,0.1c0.6,0,1.1-0.5,1.3-1.3
		c0.1-0.3,0.2-0.7,0.2-1.1c0-0.9-0.3-1.6-0.7-2.1c-0.2-0.3-0.5-0.4-0.8-0.4c-0.2,0-0.5,0.1-0.7,0.3
		C330.4,263.1,330.1,263.8,330.1,264.8z"/>
	<polygon points="350.4,273.9 350,273.9 349.9,293.1 350.4,292.9 	"/>
	<polygon points="354.6,272.3 354.1,272.3 354.1,281 354.6,281 	"/>
	<polygon points="354.6,281.5 354.1,281.5 354.1,291.7 354.6,291.5 	"/>
	<polygon points="356.6,281.9 356.6,281.4 354.6,281 354.1,281 352.6,280.7 352.6,281.2 354.1,281.5 354.6,281.5 	"/>
	<path fill="#B74D00" d="M313.8,298.1c3.2,4.2,2,4.2,2,4.2l33.5,1.4c0-2.1,5.9-2.1,7.3-7.1c1.3-4.9,1.3-6.3,1.3-6.3l-3.2,1.1
		l-0.5,0.2l-3.7,1.2l-0.5,0.2l-2.6,0.9l0.6-6.3h-9.2l-1.3,6.3l-19.7-0.7l1.3-16.9l-3.9,0.7l-0.6,16.1c-0.5,0-10.4-2.7-15.8-4.7
		C303.4,290.8,311.5,295.2,313.8,298.1z"/>
	<path fill="#B74D00" d="M298.7,288.5c-2-1-3.3-1.6-3.3-1.6h-0.1C295.6,287.2,296.9,287.8,298.7,288.5z"/>
	<path fill="#FEDE00" d="M371.5,187.4C371.5,187.4,371.5,187.4,371.5,187.4C371.4,187.4,371.4,187.4,371.5,187.4z"/>
	<path fill="#FEDE00" d="M356.9,181.4l1.5-7.2c-1.1-0.3-2.4-0.5-3.7-0.8l-0.8,6.9l-13.5-1.8l1-7.5c-1.3-0.2-2.6-0.4-4-0.5l-0.5,7.7
		l-7.8-0.5l3.4,2.4c18,1.5,31.2,4.8,36.4,6.4c1.4,0.4,2.2,0.7,2.4,0.8c-0.2-0.2-0.9-1.3-1.6-2.8L356.9,181.4z"/>
	<path fill="#FEDE00" d="M336.3,170.3c-2-0.3-4.1-0.5-6.3-0.7c0,0.1,0,0.1,0,0.2L336.3,170.3z"/>
	<path fill="#FEDE00" d="M311.8,169c-0.5,0-1,0-1.5,0l1.8,0.4L311.8,169z"/>
	<path fill="#FEDE00" d="M325.6,179.7c2.2,0.1,4.3,0.2,6.4,0.4l-7.1-1.6L325.6,179.7z"/>
	<path fill="#FEDE00" d="M307.4,179.6c1.4-0.1,2.7-0.1,4.1-0.1l0.6-0.9L307.4,179.6z"/>
	<path fill="#FEDE00" d="M305.2,179.7l2.7-1.9l-1.7,0l-0.1-3.2l-2.9-0.6l2.9-0.6l-0.1-3.6l1.3,0l-0.9-0.6c-14.5,0.7-26.6,3-31.9,4.3
		c-2,0.5-3,0.9-2.9,1l-6.6,11.5h0c0,0,0.9-0.3,2.5-0.7C272.9,183.8,286.6,180.6,305.2,179.7z M302.1,170l0.6,7.8l-13.5,1.2l-0.7-7.9
		L302.1,170z M274.8,174.3l10.1-2l1.3,7.7l-16.2,2l4.8-7.9L274.8,174.3z"/>
	<polygon fill="#38A9F9" points="358.5,173.7 358.4,174.2 356.9,181.4 369.8,184.6 371.5,185 366.6,175.4 366.5,175.3 362,174.4 	
		"/>
	<polygon fill="#38A9F9" points="302.7,177.8 302.1,170 288.5,171.1 289.2,179 	"/>
	<polygon fill="#38A9F9" points="353.9,180.3 354.7,173.4 354.8,172.4 341.4,170.7 341.4,171 340.4,178.5 	"/>
	<polygon fill="#38A9F9" points="306.1,174.6 306.2,177.8 307.9,177.8 311,175.6 	"/>
	<polygon fill="#38A9F9" points="307.3,169.8 306,169.8 306.1,173.4 311,172.4 	"/>
	<path fill="#38A9F9" d="M328.9,173l4.9,1l-7.1,1.4c-0.2,0.1-0.3,0.2-0.5,0.3l2.8,2l7.8,0.5l0.5-7.7l0-0.1l-1.1-0.1l-6.3-0.5
		C329.9,171,329.5,172,328.9,173z"/>
	<polygon fill="#38A9F9" points="270,182 286.2,180 284.9,172.3 274.8,174.3 274.8,174.1 	"/>
	<path fill="#FFDF00" d="M318.5,157.6l-0.6,3.6c0.4-0.2,0.8-0.4,1.2-0.5L318.5,157.6z"/>
	<path fill="#FFDF00" d="M324.4,158.8l-1,1.7c0.2,0,0.4,0.1,0.7,0.2L324.4,158.8z"/>
	<path fill="#FFDF00" d="M312.6,158.8l1.3,6.6c0.4-0.8,0.8-1.6,1.4-2.2L312.6,158.8z"/>
	<path fill="#FFDF00" d="M329.4,162.4l-1.3,0.9c0.1,0.2,0.2,0.3,0.4,0.5L329.4,162.4z"/>
	<path fill="#FFDF00" d="M330.1,168.8L330.1,168.8C330.1,168.8,330.1,168.8,330.1,168.8c0,0.3,0,0.6,0,0.8l2.7-1.9l-2.7,0.6
		C330.1,168.4,330.1,168.6,330.1,168.8C330.1,168.8,330.1,168.8,330.1,168.8z"/>
	<path fill="#FFDF00" d="M328.9,173c-0.6,0.9-1.3,1.8-2.1,2.4l7.1-1.4L328.9,173z"/>
	<path fill="#FFDF00" d="M311,172.4l-4.9,1l-2.9,0.6l2.9,0.6l4.9,1l-3.1,2.2l-2.7,1.9l-0.8,0.6l3-0.7l4.7-1.1l-0.6,0.9l-3.8,6.1
		l6.6-4.8l-1.6,8.4l4.4-7.1l1.5,8.4l1.5-8.4l4.4,7.1l-1.6-8.4l6.6,4.8l-3.7-5.8l-0.7-1.2l7.1,1.6l0.7,0.2l-0.2-0.1l-3.4-2.4l-2.8-2
		c-1.3,0.9-2.9,1.4-4.7,1.4c-4.7,0-8.4-3.8-8.4-8.4c0-0.7,0.1-1.4,0.3-2.1l-5.8-4.2l4.2,6.6l0.3,0.4l-1.8-0.4l-6-1.3l2.1,1.5
		l0.9,0.6L311,172.4z"/>
	<path fill="#FFDF00" d="M321.7,177.1c1.7,0,3.3-0.5,4.7-1.4c0.2-0.1,0.3-0.2,0.5-0.3c0.9-0.7,1.6-1.5,2.1-2.4
		c0.6-0.9,0.9-2,1.1-3.1c0-0.1,0-0.1,0-0.2c0,0,0-0.1,0-0.1c0-0.3,0-0.5,0-0.8c0-0.2,0-0.3,0-0.5c-0.1-1.7-0.7-3.2-1.6-4.5
		c-0.1-0.2-0.2-0.3-0.4-0.5c-1.1-1.3-2.5-2.2-4.1-2.7c-0.2-0.1-0.4-0.1-0.7-0.2c-0.5-0.1-1.1-0.2-1.7-0.2c-0.9,0-1.8,0.1-2.6,0.4
		c-0.4,0.1-0.8,0.3-1.2,0.5c-1,0.5-1.8,1.2-2.5,2c-0.6,0.7-1.1,1.4-1.4,2.2c-0.2,0.4-0.3,0.8-0.4,1.2c-0.2,0.7-0.3,1.4-0.3,2.1
		C313.2,173.4,317,177.1,321.7,177.1z M317.9,171.6c-1.5,0-2.8-0.5-2.8-1s1.2-1,2.8-1s2.8,0.4,2.8,1
		C320.7,171.1,319.4,171.6,317.9,171.6z M322.5,170.6c0-0.6,1-1,2.1-1c1.1,0,2.1,0.4,2.1,1c0,0.5-0.9,1-2,1
		C323.6,171.6,322.5,171.1,322.5,170.6z"/>
	<path fill="#FFDF00" d="M330.1,168.8C330.1,168.8,330.1,168.8,330.1,168.8C330.1,168.8,330.1,168.8,330.1,168.8L330.1,168.8z"/>
	<path d="M317.9,169.6c-1.6,0-2.8,0.5-2.8,1s1.3,1,2.8,1s2.8-0.5,2.8-1C320.7,170,319.5,169.6,317.9,169.6z"/>
	<path d="M326.7,170.6c0-0.6-1-1-2.1-1c-1.1,0-2.1,0.4-2.1,1c0,0.5,1.1,1,2.2,1C325.8,171.6,326.7,171.1,326.7,170.6z"/>
	<polygon fill="#B7E1FF" points="285.1,197.8 285.1,197.8 285.1,197.8 	"/>
	<path fill="#B7E1FF" d="M289.8,209.8c2.3,4,2.3,8.9,2.3,8.9l7.9,4l-10.2-15.4l6.5,2.4l-11.2-11.9
		C284.6,197.8,287.4,205.8,289.8,209.8z"/>
	<path fill="#B7E1FF" d="M305.5,201.8l3.8,7.9v-3.4c0-0.6,6.9,3.4,7.4,3.4c0.5,0-15.1-13-17.1-14.3l5,9.4L305.5,201.8z"/>
	<path fill="#B7E1FF" d="M308.3,227.1l4.7-1c0,0-8.8-8.4-9.3-8.4L308.3,227.1z"/>
	<path fill="#B7E1FF" d="M287.9,225.1c0.5,0.5-1.9,7.5-1.9,7.5l3.3-4.5l2.3,5c0,0-0.1-4.4-0.5-6.4c-0.4-2-6-8-6-8
		c0.5,1.5,0.5,4.1,0.5,4.5c0,0.4-1.4,4.4-1.4,4.4S287.4,224.6,287.9,225.1z"/>
	<path fill="#B7E1FF" d="M333.4,218.7c0-0.5-12.1-7.9-12.1-7.9l4.2,4.4C325.5,215.2,333.4,219.2,333.4,218.7z"/>
	<path fill="#B7E1FF" d="M321.3,222.7c0-0.5-2.7-10.5-3.2-11l0.5,9C318.6,220.7,321.3,223.2,321.3,222.7z"/>
	<path fill="#B7E1FF" d="M299.6,195.3h-0.1C299.5,195.3,299.6,195.3,299.6,195.3L299.6,195.3z"/>
	<path fill="#B7E1FF" d="M275.6,202.5c-1,1.5-5.4,9.7-5.4,9.7l-3.7,1.5c0,0,0.9,3,1.4,3s-4.1,8.5-4.1,8.5l5-5.5c0,0,4.2,5,4.7,5
		c0.4,0-1.3-3.6-2-5c0.5-0.3,1.8-1.9,4.8-6.9c6.1-10,5.1-18,5.1-18l0,0.1l-22.3,18.8C259.1,213.7,273.7,204.2,275.6,202.5z"/>
	<path fill="#B7E1FF" d="M260,234.1c0.5,0,2.8-4,2.8-4s-3.7,1-5.6,2.5h0C258.2,234.1,259.5,234.1,260,234.1z"/>
	<path fill="#984000" d="M187.7,94.4c2,1,23.3,5,25.3,5s4-4,7-3s-4,7-1,7s10.2-7,17.2-5c7.1,2,20.2,3.5,28.2,5.5
		c8.1,1.9,29.5,3.4,33.5,7.3c3.4,3.3,5.4,14,8.8,18.2c0.8-2.1,0.9-3.9,0.9-3.9h0.1l3.4-0.3c0,0,0.1,2.5,0.2,5c3.5-3.3,5.4-15,8.8-15
		c1.9,0,5,5,7.9,10.5c0.1-0.5,0.1-0.8,0.1-0.8h0l3.5-0.4c0,0,0.3,5.9,0.1,8.8c1.5,3.3,2.6,5.7,2.6,5.7l16.2-8l-13.2-20.7
		c0,0,10.2-3,18.2-5c8.1-2,13.8-5.4,16.8-5.4s20.1,2.7,24.7,3.7c3,5.3,1-6.7,3-7.7c14.9,2.1,70.4-5.2,70.4-5.2s-5.3-2.2-13.2-5.3
		l0.1,3.1l-2.3,0.3c-1.2,0.2-3.9,0.2-6.1,0c-3-0.2-4.3-0.1-5.8,0.5c-1.9,0.8-1.9,0.8-5.8-0.9c-5-2.2-7.2-2.5-7.6-1.2
		c-0.2,0.8-0.6,0.9-2.3,0.7c-1.1-0.2-2.7-0.1-3.6,0.2c-4.1,1.3-4.7,1.3-7.1,0.4c-1.3-0.5-2.8-0.9-3.3-0.9c-0.6,0-1.4-0.3-1.9-0.7
		c-0.7-0.5-1-0.5-1.7-0.1c-1.4,0.9-4.7-0.8-4.7-2.4c0-2.3-0.7-3-3.7-4.3c-2.4-1-3.3-1.2-4.9-0.9c-5.3,1-11.5,0-14.3-2.4
		c-1.2-1-1.5-1.6-1.7-3.9c-0.1-1.5-0.7-3.4-1.3-4.4c-0.8-1.5-0.9-1.9-0.4-3c0.5-1.3,0.5-3.4,0.1-5c-10.2-2.1-17.8-3.3-19.3-3.6
		c-6.1-1,2,18.8,0,18.8h-18.2c-2.1,0-8-8-18.2-8c-10.2,0-18.3,5-20.3,5s-14.2-17.8-21.2-17.8c-18.5,3.1-36.6,7.9-54.2,14.4
		c-19.3,6.9-36.7,15.8-42.7,19c0,0.4,0,0.8,0.1,1.2h5.8C192.7,89.5,185.7,93.4,187.7,94.4z M282.3,81.5c1.8-2.1,4-5.3,9.9-5.3
		c1.3-0.5,1.3-3.7,4.5-3.7c3.2,0,2.2,3.2,4.5,4.3c1.2,0.6,7.4,0.2,12.6-0.3c1.3-4,5.1-6.8,9.6-6.8c5.6,0,10.1,4.5,10.1,10
		c0,5.5-4.5,10-10.1,10c-4.6,0-8.4-3-9.6-7.1c-5.1-0.4-10.9-0.7-11.7-0.4c-1.4,0.5-2.2,1.1-5.4,1.1c-3.1,0-4-3.7-6.3-3.7
		C288.1,79.4,285.9,78.8,282.3,81.5L282.3,81.5z"/>
	<path fill="#808080" d="M323.6,79.4c0,2.1-1.3,3.7-1.8,3.7c-0.2,0-3.9-0.3-8.1-0.6c1.2,4.1,5.1,7.1,9.6,7.1c5.6,0,10.1-4.5,10.1-10
		c0-5.5-4.5-10-10.1-10c-4.5,0-8.2,2.9-9.6,6.8c4.3-0.4,8-0.8,8-0.8S323.6,77.2,323.6,79.4z"/>
	<path fill="#984000" d="M290.4,79.4c2.2,0,3.2,3.7,6.3,3.7c3.2,0,4-0.5,5.4-1.1c0.7-0.3,6.5,0.1,11.7,0.4c4.2,0.3,7.9,0.6,8.1,0.6
		c0.4,0,1.8-1.6,1.8-3.7s-1.8-3.7-1.8-3.7s-3.7,0.4-8,0.8c-5.3,0.5-11.4,0.9-12.6,0.3c-2.3-1.1-1.3-4.3-4.5-4.3
		c-3.1,0-3.1,3.2-4.5,3.7c-5.9,0-8.1,3.2-9.9,5.3v0C285.9,78.8,288.1,79.4,290.4,79.4z M297.3,75c1.2,0,2.1,0.8,2.1,1.8v0.1
		c0,0.9-1,1.7-2.1,1.7c-1.1,0-2.2-0.8-2.2-1.8S296.1,75,297.3,75z"/>
	<path fill="#812E00" d="M320.7,137.1C320.7,137.1,320.7,137.1,320.7,137.1c-3,2.3-6,4.2-6,4.2s8.9-4.5,9.8-3.5c1,1-5.7,8.8-5.7,8.8
		s8.7-8.2,9.8-8.2s3.6,8,4.6,7.8c0.6-0.1-0.3-4-1-7.2c0,0,0,0,0,0c-0.4-2-0.8-3.9-0.6-4.5c0.1-0.3,0.1-0.7,0.1-1.2
		c0.1-2.8-0.1-8.8-0.1-8.8l-3.5,0.4h0c0,0,0,0.3-0.1,0.8c-0.2,1.6-1,5.3-3.5,8C323.5,134.8,322.1,136,320.7,137.1z"/>
	<path fill="#812E00" d="M298.3,145.9c0,0,8.7-7.7,9.8-7.7s3.6,7.5,4.6,7.3c0.6-0.1-0.6-4.8-1.3-8.1c0,0,0,0,0,0
		c-0.3-1.3-0.4-2.5-0.3-2.9c0.2-0.6,0.2-2.4,0.2-4.3c0-2.5-0.2-5-0.2-5l-3.4,0.3h-0.1c0,0-0.1,1.8-0.9,3.9c-0.5,1.5-1.4,3.1-2.7,4.4
		c-3.2,3.3-9.8,7.1-9.8,7.1s8.9-4.2,9.8-3.3c0.2,0.2,0.1,0.7-0.2,1.3c0,0,0,0,0,0C302.5,141.3,298.3,145.9,298.3,145.9z"/>
	<path fill="#812E00" d="M297.3,78.6c1.1,0,2.1-0.8,2.1-1.7v-0.1c0-1-0.9-1.8-2.1-1.8s-2.2,0.8-2.2,1.8S296.2,78.6,297.3,78.6z"/>
</g>
</svg>
