<?xml version="1.0" encoding="utf-8"?>
<!-- Generator: Adobe Illustrator 17.1.0, SVG Export Plug-In . SVG Version: 6.00 Build 0)  -->
<!DOCTYPE svg PUBLIC "-//W3C//DTD SVG 1.1//EN" "http://www.w3.org/Graphics/SVG/1.1/DTD/svg11.dtd">
<svg version="1.1" id="flag-icon-css-ee" xmlns="http://www.w3.org/2000/svg" xmlns:xlink="http://www.w3.org/1999/xlink" x="0px"
	 y="0px" viewBox="0 0 640 480" enable-background="new 0 0 640 480" xml:space="preserve">
<g>
	<path d="M69,317.4c0,0.6-0.4,1.7-1,2.6c-0.2,0.3-0.4,0.5-0.5,0.8h6.4c-0.2-0.4-0.6-1.3-1.2-2.2C71.3,316.1,69,315.5,69,317.4z"/>
	<path d="M6.4,281.3c2.1-0.4,3.9-0.9,4.2-1.1c0.7-0.7-0.2-4.4-1.1-4.4c-0.4,0-1.4,0.3-2.2,0.7c-0.9,0.4-2.6,0.8-3.7,1.1
		c-2.4,0.4-3,1.6-1.7,3.4C2.6,281.9,3.1,281.9,6.4,281.3z"/>
	<path d="M217.5,320.6c-0.1,0-0.1,0.1-0.2,0.1h3.6C220.9,319,220,319,217.5,320.6z"/>
	<path d="M51.8,310.5c2.7-1.4,6.1-2.4,8.1-2.7c2.6-0.3,3.5-0.7,3.7-1.6c0.6-1.8,3.2-1.6,3.7,0.4c0.6,2.3,2.4,2,3.7-0.6
		c1.1-2.3,2.9-3,2.9-1.1c0.1,2.6,0.9,2.7,4.6,0.5c3.9-2.3,5.3-2.3,5.2,0.1c-0.1,1.4,0.2,1.6,1.7,1.7c1.1,0.1,2.8,0.5,3.9,1
		c1.8,0.7,2.2,0.7,3.1-0.2c0.9-0.9,0.9-1.1,0.1-2.1c-1.8-2.1-3.7-6.5-3.1-7.2c0.9-0.9,3.9-0.7,7.9,0.6c2.1,0.7,3.9,1.1,4.2,0.9
		c0.3-0.1,0.7-1.4,0.9-2.7c0.2-1.4,0.8-2.8,1.2-3.2c0.5-0.4,0.9-1.6,0.9-2.7c0-1.1,0.4-2.3,0.8-2.7c0.6-0.5,1.1,0,1.9,2.4
		c0.9,2.5,1.4,3.1,2.6,3.1c1.7,0,2-0.5,2.6-4.7c0.2-1.7,1.1-3.7,1.8-4.5l1.3-1.5l-2.1-1.7c-2.1-1.6-2.1-1.7-0.9-2.7
		c1.8-1.6,4.7-1.4,5.6,0.5c0.4,0.9,1.4,1.9,2.3,2.3c1.9,0.9,3.7-0.4,4.7-3.7c0.4-1.2,1.2-3.1,1.9-4.2c0.7-1,1.2-2.5,1.2-3.3
		c0-1.2,0.2-1.4,1.4-1c0.7,0.2,1.6,0.7,1.7,1c0.2,0.4,0.9,0.4,1.7-0.1c1.3-0.7,1.9-2.4,2.1-7.2l0.2-2.5l1.2,2.1c1,1.7,1.6,2.1,3,1.8
		c1.2-0.1,1.7,0.1,1.7,0.7c0,1.6,2.4,4.9,4,5.6c1.7,0.8,1.9,0.5,0.6-1.7c-0.5-0.9-0.9-1.9-0.9-2.4c0-1,1.9-0.9,3.3,0.2
		c1.4,1,4.2,0.1,4.2-1.3c0-1.8-5.9-7.6-8.7-8.7c-1.6-0.5-4.4-1.9-6.2-3.1c-3-1.7-3.5-2.4-4.2-4.9c-0.8-2.9-0.9-2.9-3.2-2.9
		c-2.1,0-3.2-0.6-6.9-3.4c-2.4-1.9-4.9-3.4-5.5-3.4c-0.6,0-1.8-0.4-2.8-0.9c-0.9-0.5-2.5-0.9-3.4-0.9c-0.9,0-2.2-0.4-3.1-0.9
		c-1-0.7-2.2-0.9-4.6-0.6c-5.5,0.6-5.8,0.8-6.6,2.9c-0.4,1.1-1.2,2.7-1.9,3.5l-1.1,1.5l-1.9-1.6c-2.1-1.8-4.4-2.1-4.9-0.7
		c-0.2,0.5-1.1,0.9-2.1,0.9c-1.4,0-2.4-0.9-5.3-4.5c-2-2.4-3.8-4.7-4-5c-0.2-0.3-1.9,1.4-3.6,3.7l-3.2,4.2l-5.2,1.4
		c-2.9,0.7-6.4,1.4-7.8,1.4c-1.4,0-3.8,0.4-5.2,0.7c-2.6,0.8-2.6,0.8-2.1,3.3c1,6.2,1.1,8.5,0.3,10.3c-0.7,1.7-1.1,1.9-2.7,1.7
		c-1.9-0.2-1.9-0.3-2.6-4c-0.7-4.4-2.9-7.5-4.1-5.8c-0.3,0.5-0.5,1.6-0.4,2.4c0.3,1.6-1.2,3-5,4.7c-3.3,1.4-3.9,3.1-3.9,9.4
		c0,4-0.2,5.3-0.8,5.3c-1.5,0-3.6-2.9-4.5-6c-0.4-1.7-1.3-4.4-1.9-6c-1.2-3.2-2.4-3.9-8.9-4.6c-3.4-0.4-3.4-0.4-2.9,1.1
		c0.2,0.8,0.5,1.9,0.6,2.4c0.2,1.3-2.8,1.6-5.1,0.3l-1.9-1v1.9c0,1.6,0.4,1.9,3.1,3.1c1.7,0.7,3.1,1.7,3.1,2.2
		c0,0.5,0.8,1.8,1.8,2.9c1,1.2,2,3.1,2.2,4.4c0.4,1.8,0.8,2.4,2.3,2.9c1.7,0.6,1.8,0.8,1.4,3.2c-0.3,2-0.2,2.9,0.7,3.8
		c1,1.1,1,1.2-0.1,2.4c-1.1,1.2-1.1,1.2-3.2-0.4c-2-1.5-2.1-1.5-2.1-0.2c0,0.7,0.4,2.2,1,3.2c0.9,1.7,0.9,2-0.1,3.1
		c-1.1,1.1-1.1,1.1-3.2-0.2c-1.1-0.7-2.4-2.1-2.8-3.1c-0.4-0.9-0.9-1.7-1.2-1.7c-1.1,0-1.2,2.5-0.2,4.4l1,2l-2.1-0.2
		c-2.6-0.2-3,1.1-1.4,4.5c0.8,1.8,2.1,3,5.3,4.9c2.3,1.4,5,2.7,5.9,2.9c1.4,0.3,1.6,0.2,1.6-0.9c0-1.2,0.1-1.3,1.7-0.4
		c1.7,0.9,2.2,1.9,5.2,9.8c1.1,2.9,1.6,3.6,2.7,3.6c2.2,0,7.3,1.9,7.7,2.9c0.2,0.5,1.2,0.9,2.4,0.9c1.2,0,1.8,0.1,2.1,0.7h5.9
		C46.1,313.6,46.8,313,51.8,310.5z"/>
	<path d="M76.5,161.2c-1.1-0.6-1.4-0.4-2.3,0.9c-0.9,1.4-1.3,1.6-3.6,1.2c-1.7-0.3-2.3-0.2-2.1,0.2c0.6,1-2.1,8.2-3.1,8.2
		c-0.5,0-0.9,0.7-0.9,1.6c0,1.2-0.3,1.6-1.6,1.6c-1.1,0-1.8,0.6-2.4,1.7c-0.5,0.9-1.6,2.1-2.5,2.5c-1.4,0.6-1.6,0.6-2-0.6
		s-0.7-1.2-4.6-1c-2.3,0.2-4.8,0.7-5.5,1.2c-2.2,1.6-17.5,0.3-17.5-1.4c0-1.1-1.1-0.5-2.4,1.4l-1.4,1.9l1.7,1.8
		c1.1,1.2,2.4,1.8,3.5,1.8s1.7,0.3,1.7,0.9c0,0.5,1.3,1.8,2.9,2.8c2.9,1.8,3.2,1.9,9.2,1.7c4.8-0.1,6.5-0.4,7.7-1.2
		c0.8-0.6,2.6-1.1,3.8-1.1c2.1,0,2.7,0.4,5.9,3.8l3.5,3.7v6.5c0,6.3,0.1,6.5,1.7,7.7c1.6,1.2,1.6,1.3,0.5,2.2
		c-0.7,0.5-1.1,1-0.9,1.1c0.1,0.1,1.3,0.9,2.6,1.8l2.4,1.6l-2.3,1.1l-2.2,1.1l2.7,2.7c3.2,3.2,5.5,3.8,11.4,2.8
		c4.5-0.8,5.5-1.7,7.3-6.1c0.4-1.1,1.6-3.2,2.6-4.5c1-1.4,1.8-3.3,1.8-4.3c0-2.7,1.5-3.7,3.7-2.4c0.9,0.6,2.4,1.1,3.1,1.1
		c1.5,0,1.6,0.4,0.4,2.5c-1.5,2.6-1.1,2.7,2.1,0.4c1.7-1.2,3.7-2.2,4.6-2.2c1.6,0,1.6-0.1,1.6-4.4c0-2.4-0.1-4.4-0.1-4.4
		s-1.1,0.2-2.2,0.6l-2.2,0.6l1.6-1.2c1.2-1.1,2.1-1.2,4.1-0.9c1.6,0.2,2.8,0.1,3.1-0.2c0.2-0.4,1.2-0.5,2.1-0.3
		c1.4,0.3,1.9,0.1,2.2-0.8c0.3-0.9,0.9-1.1,3.3-1.1c2.6,0.1,3,0.3,3.5,1.8c0.5,1.4,0.9,1.6,2.5,1.4c1.1-0.1,2-0.5,2.1-0.8
		c0.1-0.4-0.9-2.1-2.3-4c-3-3.9-3.4-7-1.1-8.2c2-1.1,2-1.1,0.4-2.7c-1.7-1.9-2.5-2-2.5-0.3c0,2.1-3.3,1.7-5.2-0.7
		c-1.6-1.8-2.1-4.9-1.7-9.5c0.1-0.7-0.4-1.1-1.6-1.1c-3.6,0-6.3-0.8-6.7-1.9c-0.5-1.6-3-2.4-8.5-3.1c-2.6-0.3-5.5-0.9-6.5-1.4
		c-1.7-0.8-1.8-1.2-2.2-5.5c0-0.2,0-0.4-0.1-0.7H77.7C77.7,161.8,77.5,161.7,76.5,161.2z"/>
	<path d="M151.4,172.2c1.8-0.9,2.1-0.8,3.9,0.2c1.1,0.7,2.2,1.2,2.6,1.2c1.5,0,1.5-2.1,0.1-4.3c-0.8-1.2-1.7-2.9-1.9-3.7
		c-0.7-2.1-2.5-2.7-6.2-2.3c-3.1,0.4-3.4,0.3-6.2-1.8c-1.6-1.2-3-2.2-3.1-2.2c-0.1,0-1.9,0.6-4,1.4l-3.9,1.3v3
		c0,2.2,0.3,3.3,1.4,4.4c0.8,0.8,1.9,2.2,2.4,3.3c0.5,1,1.4,1.9,2.1,2.1c1.6,0.3,4.2-1.6,4.2-2.9c0-1.1,1.1-1.9,2.5-1.9
		c0.3,0,0.9,1.6,1.2,3.4c0.7,3.4,0.7,3.4,3,3.4c2.1-0.1,2.2-0.1,1.2-0.9C148.8,174.6,149.1,173.3,151.4,172.2z"/>
	<path d="M155.6,237.3c0-1,0.3-2.2,0.6-2.7c0.9-1.5-2.2-4.2-6.5-5.6c-2.1-0.7-5.3-1.8-7.2-2.4c-1.9-0.7-4.4-1.2-5.5-1.3
		c-1.8,0-2.2,0.3-3,2.3c-0.8,1.8-0.8,2.6-0.2,3.6s0.6,1.7,0,2.8c-0.6,1.1-1.1,1.3-3.2,0.9c-3-0.5-3.6,0.4-2.4,4.4
		c0.9,3.3,2.9,4.6,6.9,4.6h2.6l-0.2,2.5c-0.1,1.4,0,2.5,0.3,2.5c0.2,0,1.9,1.2,3.5,2.8l3.1,2.9l0.4-2.2c0.3-1.7,0.8-2.3,2.4-2.8
		c3.2-1.1,5.7-0.9,7.4,0.9c1.5,1.6,1.5,1.6,0.4,3.6l-1.2,1.9l1.5-0.4c0.8-0.2,2-0.4,2.7-0.4c0.9,0,1.1-0.3,0.8-1.8
		c-0.2-1.2-0.1-2.1,0.5-2.6c1.2-1,1.2-4.6,0.1-5.5C157.7,244.2,155.6,239.3,155.6,237.3z"/>
	<path d="M163.4,161.6c0.4,1.7,0.2,2-0.9,2.2c-1.2,0.2-1.2,0.4,1.1,4c2.4,3.7,2.6,3.8,5.8,4.1c2,0.2,3.6,0.7,4,1.4
		c0.4,0.6,1.2,1,1.8,1c0.8,0,1-0.6,1-3.1c0-1.7,0.2-3.1,0.5-3.1c0.3,0,1.3,0.8,2.3,1.9c2.3,2.4,2.8,2.4,2.8-0.1v-2.1l1.5,1.6
		c1.8,1.9,2.4,3.7,1.6,5c-0.5,0.8-0.8,0.8-2.6-0.2c-2.6-1.4-3.9-1.4-3.4,0.1c0.7,2.4-3.6,3.7-5.9,1.7c-1.6-1.4-2.1-1.2-3.2,1
		c-1.3,2.8-2.9,3.6-3.9,2.1c-1.3-1.8-3.2-0.8-3.9,2.1c-0.7,2.7-0.2,3.7,1.7,3.7c0.9,0,1.1,0.5,1.1,2.1c0,1.6,0.8,2.9,3.7,6.2
		c3,3.4,3.7,4.7,3.7,6.3c0,2.7-1.6,3.4-3.5,1.6l-1.4-1.3l-1,3.5c-0.6,2-0.9,4-0.7,4.5c0.6,1.4,4.3,2.7,7.8,2.7
		c2.7,0,3.1-0.2,3.4-1.6c0.4-1.4,0.7-1.6,3.7-1.6c1.8,0,3.5,0.2,3.7,0.4c0.2,0.2,2.2,0.4,4.4,0.3c2.3-0.1,4,0.1,4.3,0.4
		c0.2,0.4,0.1,1.7-0.2,3.1c-0.6,2.3-0.8,2.4-3.6,2.8c-7.8,0.9-12.5,1.1-13.6,0.5c-0.9-0.5-1.6-0.5-2.4,0.1c-1.1,0.7-0.9,0.9,1.2,2.6
		c1.2,1,2.2,2,2.2,2.2c0,0.3-1.2,0.5-2.8,0.5c-2.5,0-2.9,0.2-3.7,1.9c-0.9,1.7-0.9,2.2-0.1,5.1c0.5,1.8,1.2,5.2,1.6,7.5
		c0.6,4.1,0.6,4.4-0.9,6.1c-2.9,3.4-1.6,6.1,2.9,6.1c1.6,0,2.7,0.7,5.3,3.2c2,2,4.2,3.6,5.7,3.9l2.3,0.7l0.2,8
		c0.1,7,0.3,8.2,1.4,9.4c0.7,0.7,2,3.4,3,5.9c1.6,4.2,2,4.7,4.5,6c3.2,1.6,5.5,1.8,5.5,0.5c0-0.5,0.2-0.9,0.5-0.9
		c1.1,0.1,1.9,1.1,2.6,3.6c0.6,2.1,1.1,2.7,2.3,3.1c1.1,0.2,1.8,0.1,2.2-0.4c0.7-1.2,5.4-0.7,7.8,0.7c1.4,0.9,2,1,2.2,0.4
		c0.5-1.5,2.2,0.6,4,5c1.9,4.6,4.7,7.9,7.2,8.5c1.4,0.4,1.7,0.1,2.7-2.1c1.1-2.4,1.2-2.5,5.3-2.9c2.2-0.2,4.6-0.4,5.3-0.5
		c1.9-0.2,4.6-8,4.3-12.3c-0.2-1.9,0-4.1,0.4-5.1l0.7-1.7h7c5.9,0,7.7,0.2,11.4,1.6c2.4,0.8,4.8,1.6,5.3,1.6c0.5,0,1.5,0.9,2.2,2.1
		c1.1,1.6,1.2,2.6,0.9,5.1c-0.5,3.9-3.7,8.8-6.5,10c-3.1,1.3-4.2,2.9-4.5,7c-0.2,2.7-0.1,4.5,0.8,6.7c0.7,1.7,1,3.8,1.1,6.5H569
		c-1.2-3.4-2.6-6.9-3.3-8c-0.6-0.9-0.8-2.2-0.5-3.9c0.4-2.7-0.2-4.4-3.7-9.7c-1.9-2.9-2.1-3.6-2.3-8.8c-0.2-4.3-0.1-5.9,0.6-6
		c1.4-0.6,0.1-2.1-4-4.7c-3.8-2.4-4.4-2.6-7.6-2.4c-5.2,0.4-5.5-0.2-5.5-11.2c0-7.3-0.2-9.3-1.3-12c-0.7-1.9-1.2-4.7-1.2-6.7
		c0-2.7-0.4-4-1.8-6c-1.6-2.5-2.4-5.4-3.5-13.4c-0.4-2.7-5.8-14.3-7.3-15.5c-0.4-0.4-2.4-1.2-4.4-1.8c-2.3-0.7-4.7-2.1-6.8-3.9
		l-3.2-2.8l0.4-6.1c0.5-7.7,1.7-10.4,7.8-16.5c4-4.1,4.7-4.5,8.2-5.2c2.1-0.4,5-1.5,6.4-2.4c1.7-1.1,4-1.9,6.4-2.2
		c2-0.2,5.8-1,8.3-1.7c3.9-1,6.4-1.2,15.3-1.1c5.9,0.1,11.9-0.1,13.5-0.3c2.6-0.4,3.2-0.3,5.8,1.5l2.9,2l2.1-1.7
		c1.9-1.4,2.2-1.9,2.2-4.5c0-1.7,0.5-3.6,1.2-4.8c0.2-0.3,0.5-0.9,0.8-1.6H163C163.1,160.2,163.2,161,163.4,161.6z"/>
	<path fill="#FFFFFF" d="M20.7,358.6c0.9,0,1.6,0.4,1.8,1.4c0.2,0.8,0.9,2.1,1.6,2.9c1.1,1.4,1.2,1.4,2.6,0.5c0.7-0.5,2.7-2.7,4.4-5
		c2.4-3.1,3.7-4.2,5.9-5l2.8-1.1l-0.1-3.6c-0.1-2.9,0.3-4.3,1.6-6.9c1.1-2,1.7-4.2,1.7-5.9c0-1.4,0.4-3.2,1-4
		c0.7-0.9,1.1-3.7,1.5-8.4c0.1-1.1,0.1-2,0.2-2.9h-5.9c0.1,0.2,0.2,0.5,0.2,0.9c0.2,0.9,0.1,1.7-0.1,1.9c-1,0.6-4.3,8.5-4.2,9.8
		c0.2,2.1-2.3,2.2-3.6,0.2c-1.6-2.4-3.1-1.5-4.3,2.7c-0.7,2.2-1.9,4.4-2.9,5.4c-0.9,0.9-1.6,1.9-1.4,2.2c0.6,1-0.4,3.6-1.4,3.6
		c-0.6,0-0.9,0.6-0.9,1.5c0,0.8-0.6,1.9-1.4,2.4c-1.1,0.7-1.3,1.4-1.2,3.6C18.5,358.1,18.8,358.6,20.7,358.6z"/>
	<path fill="#FFFFFF" d="M68.2,322.6l1.2,1.3l2.2-1.4c1.2-0.8,2.2-1.5,2.2-1.6c0,0,0-0.1-0.1-0.2h-6.4
		C67.1,321.4,67.3,321.7,68.2,322.6z"/>
	<path fill="#FFFFFF" d="M266,330.9c-0.8,6.5-2.4,11.6-5.2,16.1c-1.1,1.7-2.4,5.2-3.1,7.8c-0.6,2.6-1.6,5.8-2.1,7.1
		c-0.5,1.2-0.9,3.4-0.9,4.8c0,2.2,0.2,2.6,2.4,3.5c4.8,2,5.4,1.9,7.2-1.1c0.9-1.6,1.6-3.4,1.6-4.1c0-1.7,6.8-7.8,9.7-8.7
		c1.8-0.6,2.6-0.5,4,0.3c1.6,0.9,1.9,0.9,3.9-0.4c1.7-1,2.7-1.2,4.9-0.9c2.2,0.3,2.8,0.2,3.3-0.7c0.8-1.5,3.1-2.2,9-3.2
		c3-0.5,5.8-1.3,6.9-2.1c2.1-1.5,5.9-2.6,8.9-2.6c2.8-0.1,3.6-0.7,6.5-5.4c3.9-6.5,6.7-7.8,13.1-5.9c3.3,1,3.8,1.4,4,3
		c0.2,1,1.2,3.7,2.4,6c1.6,3.1,2.4,4.2,3.7,4.5c0.9,0.2,1.7,0.2,1.8,0.1c0.2-0.1,0.6-2,0.9-4c0.7-3.8,0.7-3.9-1.3-6.4
		c-2.4-2.9-1.9-4.1,1.2-3.4c1.4,0.3,2.5,1.3,4.1,3.7c1.3,1.9,3.1,3.7,4.5,4.4c3.6,1.8,5.1,3.4,5.1,5.2c0,2.5,4.3,4.4,10,4.4h4.3
		l0.4,2.8c0.2,1.7,0.7,2.8,1.2,2.8s2.4,1.2,4.2,2.8c4,3.2,6.4,3.7,7.2,1.3c0.9-2.2,2.7-2.6,3.8-0.9c0.5,0.8,3.1,3.7,5.8,6.5
		c5.7,6,8,7,14.3,6.2c5.5-0.7,8.4-0.7,9.2,0.1c0.4,0.4-0.1,1.9-1.2,4.5c-2.2,4.7-2.3,6.4-0.4,9.7c1.2,2.1,2.2,2.9,5.2,4
		c10.3,4.2,9.5,3.7,9.5,6.5c0,2.1,0.4,3,1.6,4.2c2.2,2.1,6.2,9.5,7.1,13.4l0.8,3.2l5.7,2.2c3.1,1.2,7.8,2.6,10.3,3.1l4.7,0.9
		l0.3,3.1c0.2,1.7,0.7,3.7,1.1,4.5l0.8,1.4l2.4-1.2c2-1,3.1-1.2,5.9-0.9l3.4,0.4l0.4-2.5c0.4-2.2,0.7-2.6,2.9-3.5c1.4-0.6,3.6-1,5-1
		c2.2,0,3.1-0.4,6-3.1c2.1-1.9,4-3.1,4.9-3.1c1,0,2.1-0.7,3.3-2.5c1-1.4,2.6-3.1,3.4-3.8l1.6-1.2l3,1.5c1.6,0.8,4.1,1.9,5.5,2.3
		c3.9,1.2,5.8,2.7,7.7,5.7c1.6,2.5,2.3,3,7,4.7c5.5,2.1,8.5,2.4,15.9,1.6c3.6-0.4,3.8-0.5,3.2-1.6c-0.6-1.1-0.3-1.6,1.7-3.7
		c1.3-1.3,2.9-2.6,3.4-2.7c1.2-0.4,2.7-6.5,1.7-7.5c-0.3-0.3-0.6-1.9-0.6-3.5c0-2.3,0.4-3.4,2.1-5.7c2.4-3.1,3.8-3.6,9.4-3.6
		c3.2,0,3.3,0,3.7-2.1c0.5-2.4,0-5-1.2-6.9c-0.5-0.7-0.9-2.6-0.9-4.4c0.1-2.7,0.4-3.4,2.6-5.9c2.2-2.4,2.9-2.9,6.7-3.6
		c2.8-0.6,6.4-0.7,10.9-0.4c6.5,0.4,6.8,0.3,8.3-1.1c3.5-3.2,4.2-6.5,2.2-10.5c-1.2-2.3-1.4-2.4-5.2-2.8c-3.2-0.3-4.2-0.7-5.7-2.1
		c-2.4-2.4-3.2-6-1.9-8.3c0.9-1.6,0.9-1.8-0.4-3.6c-1.4-2.1-3.7-2.6-4.9-1.2c-0.3,0.4-1,2-1.4,3.4c-0.4,1.5-1,2.7-1.2,2.7
		c-0.8,0-2.4-8.5-2.4-13c0-2.4-0.3-5.7-0.7-7.2c-0.6-2.3-1.1-2.9-2.8-3.5c-1.6-0.5-2.1-1-2.1-2.2c0-0.8-1-3.9-2.1-7H266.7
		C266.7,323.4,266.5,326.7,266,330.9z"/>
	<path fill="#FFFFFF" d="M141.4,381.2c-0.4,0.4-0.5,1.9-0.4,3.1c0.2,1.7,0.6,2.4,1.4,2.4c0.6,0,1.6,0.2,2.1,0.4c0.8,0.3,1-0.1,1-2.1
		c0-1.4-0.2-2.9-0.4-3.5C144.8,380.3,142.3,380.1,141.4,381.2z"/>
	<path fill="#FFFFFF" d="M214.9,324.7c-0.9,3.8-0.4,5.3,1.5,5.3c1.2,0,1.7-0.6,2.8-2.9c0.7-1.6,1.4-3.9,1.6-5.3
		c0.1-0.4,0.1-0.8,0.1-1.1h-3.6C216,321.5,215.4,322.5,214.9,324.7z"/>
	<path fill="#1291FF" d="M220.4,108.5c0-2.4-1.2-3.4-4.2-3.4c-1.6,0-1.7,0.2-1.5,1.8C215.3,111.4,220.4,112.7,220.4,108.5z"/>
	<path fill="#1291FF" d="M270.8,69.7c3,2.4,4.4,2.4,3.9-0.3c-1.1-5.7-3.4-10.3-5.3-10.4c-0.2,0-0.6,1.1-0.9,2.3
		c-0.2,1.3-0.9,3-1.6,3.7c-1.2,1.3-1.2,1.3,0.2,2.1C268,67.5,269.6,68.7,270.8,69.7z"/>
	<path fill="#1291FF" d="M210.8,111.9c2.1,0.9,2.1,0.9,2.1-0.4c0-1.1-2.2-3.1-5.3-4.9c-2.2-1.4-2.3-0.9-0.3,1.9
		C208.3,109.9,210,111.5,210.8,111.9z"/>
	<path fill="#1291FF" d="M88.4,154.7c-0.4-0.4-2.2-0.7-4-0.9c-2.6-0.2-3.7-0.6-4.8-1.7c-0.7-0.8-1.6-1.5-1.7-1.5s-0.2,2.6-0.1,5.7
		c0,1.3,0.1,2.3,0.1,3.1h11.6C89.1,157.1,88.7,155.1,88.4,154.7z"/>
	<path fill="#1291FF" d="M623.1,83.5c-0.5,0.2-1.3,1.3-1.8,2.5c-0.6,1.5-1.7,2.6-3.6,3.6c-1.5,0.7-3.9,2.4-5.2,3.7
		c-2.4,2.2-3,2.4-7.5,2.8c-4.2,0.4-5.6,0.2-9.6-0.9c-6.8-2.1-9.1-2.4-14.5-2.5c-4.9,0-10-1.1-19.4-4.2l-4.9-1.6l-14.8,1.4
		c-11,1-16.6,1.2-21.9,0.9c-7.8-0.4-10.2-1.3-13.3-4.6c-1.1-1.1-2.3-1.9-2.9-1.9c-0.5,0-2.4-1-4.3-2.2c-1.8-1.2-3.7-2.2-4.2-2.2
		c-0.5,0-1.1-0.8-1.2-1.9c-0.2-1.2-0.8-1.9-1.5-1.9c-0.6,0-2.7-0.9-4.7-1.9C484.7,71,478.3,69,476,69c-0.6,0-0.7,0.6-0.4,1.9
		c0.5,2.2-0.6,3.7-2.5,3.7c-0.7,0-1.9,0.4-2.5,0.9c-1.1,0.9-1.4,0.8-3.1-0.8c-3.6-3.3-8.1-5.7-10.7-5.7c-2.8,0-6.7-1.7-10-4.2
		c-2.1-1.6-2.8-1.7-9.3-2.1c-7-0.3-7-0.4-9.2-2.4c-1.2-1.2-2.3-2.6-2.5-3.2c-0.2-0.6-1.2-1.2-2.4-1.4c-1.6-0.3-2.2-0.1-3,0.9
		c-0.9,1.3-1,1.3-2.9-1.1c-1.1-1.3-2.2-2.2-2.4-1.9c-0.2,0.2-0.2,1.9,0.2,3.7c0.8,3.9-0.1,6-2.7,6c-1.7,0-2.7-1.6-1.6-2.7
		c1.4-1.4,0.7-2.8-1.3-3.2c-1.1-0.2-2.7-0.8-3.4-1.3l-1.4-0.9v5.2c0,4.2-0.2,5.3-1,5.6c-1.6,0.6-3.2,0.4-5.2-0.7
		c-1.9-1-1.9-1.2-1.9-5.2c0-2.7-0.3-4.4-0.9-4.9c-0.4-0.4-1-1.8-1.2-3.2c-0.3-1.9-0.7-2.5-1.6-2.5c-0.7,0-1.2-0.4-1.2-0.8
		c0-0.7-2.4-2.3-3.4-2.3c-0.1,0-0.7,0.7-1.4,1.7c-1.1,1.6-1.1,2-0.4,3.6c0.4,1,0.8,2.5,0.9,3.3c0,0.7,0.6,2.5,1.2,3.9
		c2.1,4.2-0.3,8.3-4.2,6.8c-2.4-0.9-3.9-2.4-3.9-3.8c0-0.7-0.7-1.4-1.9-1.8c-1-0.4-1.9-0.9-1.9-1.2c0-0.3-0.6-0.6-1.3-0.6
		c-2.6,0-3.7-1.1-3.7-3.8c0-2.4-0.1-2.5-1.7-2.3c-1.6,0.2-1.7,0.4-1.9,3.5c-0.2,3.5,1.6,8.2,4.7,12.5c2.1,2.8,1.5,4.7-1.7,6
		c-1.4,0.6-3.5,1-4.6,1c-1.7,0-2.2,0.3-2.5,1.5c-0.4,1.9-3.1,2.9-7.7,2.9c-2.7,0-3.9-0.4-6.4-2.1c-1.7-1.1-3.1-2.5-3.1-3.1
		c0-1.6-0.7-1.3-2.8,0.8c-1.7,1.8-4.7,2.6-4.7,1.2c0-0.8-4.4-5.6-5-5.6c-1.2,0-0.4,2.9,1.3,4.7l1.9,1.9l-1.4,2.2
		c-1.8,2.7-3.2,2.9-5.4,0.9c-1.7-1.6-4.4-2.7-8.8-3.2c-2.1-0.2-2.4-0.1-3.2,1.6c-0.5,1-1.4,2-1.9,2.2c-1.3,0.5-5.3-1.5-5.3-2.7
		c0-0.6-0.4-1.7-0.9-2.7c-0.5-0.9-1.1-2.5-1.3-3.6c-0.3-1.4-0.9-2-2.7-2.6c-1.2-0.4-3.4-1.4-4.7-2.3c-1.9-1.2-2.6-1.4-3.4-0.9
		c-1.7,1.1-1.6,3.2,0.8,9.3c2.6,6.6,2.6,9.5,0.1,11.2c-1.2,0.8-2,0.9-4.5,0.3c-3.2-0.7-4-1.4-4-3.6c0-0.7-0.6-1.7-1.2-2.1
		c-1.1-0.6-1.2-0.5-1.2,1c0,1.6-0.1,1.6-2.5,1.3c-3.1-0.4-3.4,0.8-0.6,3.2c1.1,0.9,1.9,2,1.9,2.4c0,1.5-1.4,1.5-3,0
		c-1.9-1.7-6.2-3.7-7-3.2c-0.3,0.2-0.6,0.7-0.6,1.2c0,0.6-0.8,0.9-2.9,0.9c-2.6,0-3.1-0.2-5.2-2.6c-2.3-2.5-2.6-2.6-6.8-2.9
		c-4-0.2-4.5-0.2-5.9,1.1c-1.1,1-1.6,2.1-1.6,3.5c0,1.6-0.7,2.7-3.1,5.1c-3.6,3.7-7.6,5.4-9.2,3.7c-0.9-0.9-1.2-0.9-2.8-0.1
		c-2.2,1.1-2.2,2,0,2.5c2.4,0.6,3.2,2,3.2,5.4c0,4-1.1,3.9-7.3-0.3c-5.2-3.6-8-4.8-10.8-4.8c-1.7,0-1.8,0.1-1.8,3.1
		c0,3.1,0,3.1,3.3,4.9c3.8,2.1,4.4,2.7,5.2,5.7c0.5,1.9,0.3,2.7-1.1,5.6c-0.9,1.9-1.7,2.9-1.7,2.4c-0.1-0.6-0.8-1.6-1.7-2.4
		c-1.4-1.1-2.2-1.2-5.1-0.9c-1.9,0.2-4.2,0.9-5.2,1.6c-2.1,1.5-6.7,1.2-11.7-0.6c-4.5-1.7-7.5-1.7-7.9,0c-0.4,1.4-2.3,1.7-3.1,0.4
		c-0.3-0.4-0.6,0.6-0.8,2.6c-0.2,2.7-0.6,3.6-2,4.6l-1.7,1.3l-1.9-1.4l-1.9-1.4l-3.4,2.8c-4.5,3.7-6.7,3.8-9.5,0.5l-1.9-2.4
		l-0.4,2.5c-0.2,1.4-0.9,3.3-1.5,4.2c-1,1.7-0.9,1.9,1.4,6c1.2,2.4,2.3,4.9,2.3,5.6c0,0.7,0.4,2.1,0.9,3.1c1.3,2.6,0.7,5-1.4,5
		c-0.8,0-2.2,0.7-3.1,1.6c-1.1,1.1-2.1,1.5-3.6,1.4c-1.9-0.2-1.9-0.1-1.8,2.3c0,0.6,0.1,1.4,0.2,2.2h431.2c0.8-1.9,1.8-4.9,2.7-7.8
		c2.2-6.9,2.6-7.7,5.9-11.2c3.9-4.2,5.7-8.5,5.7-13.6c0-2.6,0.3-3.3,2.1-5c1.7-1.8,3.1-2.3,10.8-4.1l8.8-2.1l3.7-4.2
		c4-4.4,5.1-7,5.1-12c0-2.9-0.2-3.1-4.5-7.5C629.3,86.6,624.4,83,623.1,83.5z"/>
</g>
</svg>
