<?xml version="1.0" encoding="utf-8"?>
<!-- Generator: Adobe Illustrator 17.1.0, SVG Export Plug-In . SVG Version: 6.00 Build 0)  -->
<!DOCTYPE svg PUBLIC "-//W3C//DTD SVG 1.1//EN" "http://www.w3.org/Graphics/SVG/1.1/DTD/svg11.dtd">
<svg version="1.1" id="flag-icon-css-eg" xmlns="http://www.w3.org/2000/svg" xmlns:xlink="http://www.w3.org/1999/xlink" x="0px"
	 y="0px" viewBox="0 0 640 480" enable-background="new 0 0 640 480" xml:space="preserve">
<g>
	<polygon fill="none" points="138,0 138.6,0 138.4,-0.3 	"/>
	<path fill="none" d="M173.3-0.2c-2.8-0.6-3.5-0.8-4.8,0.2h5.4C173.7-0.1,173.5-0.1,173.3-0.2z"/>
	<path d="M113,455.6c0,0.9,0.6,1,37.7,2.5c67.2,2.7,128.1,4.2,186,4.5l51.7,0.3l1.9-3.3c3.6-6.5,4.4-7.5,5.8-7.5
		c2.1,0,2.9,1.7,2.6,5.2c-0.2,1.6-0.5,3.3-0.6,3.9l-0.2,1.1h28.7c17.6,0,31.8-0.2,36.7-0.6l7.9-0.6l1.6,1.4c0.9,0.7,4,3.5,7,6.1
		l5.3,4.7l9,0.6l9,0.6l3.4-1.8l3.4-1.8l2.9-9.5l2.9-9.5l12.2-3.1c6.7-1.7,12.3-3.3,12.5-3.5c0.3-0.3,8.8-25.7,8.8-26.3
		c0-0.1,2.8,0.6,6.2,1.6l6.1,1.8l8.5-8.4c7.9-7.9,8.4-8.5,8.4-10.2c0-1.2-0.5-2.6-1.5-4.2c-0.9-1.3-1.7-3.3-1.9-4.5
		c-0.1-1.1-0.9-3-1.7-4.2l-1.4-2.3l0.7-5.3c0.6-4.9,0.6-5.6,0-8.1c-1.3-5.2-0.6-9.8,1.4-9.8c0.4,0,1.7,0.5,2.9,1.2
		c1.9,1,2.6,1.1,4.6,0.8l2.5-0.3l-1.5-1.5c-1.1-1.2-1.9-1.6-3.1-1.6c-1.7,0-2.9-1-4.1-3.2c-0.4-0.8-0.9-1.4-1.2-1.4
		c-0.8,0-3.9-3-6.3-6.4c-1.3-1.9-3.1-3.7-3.8-4c-0.7-0.4-3-2.4-5.2-4.6c-3.7-3.7-3.9-3.9-3.3-5.1c0.5-1.1,0.4-1.4-0.5-2.6
		c-0.6-0.7-1.5-2.6-2.2-4.1c-0.6-1.5-1.9-3.5-2.7-4.6c-1-1.3-1.6-2.6-1.8-4.2c-0.2-1.3-0.7-2.8-1.2-3.5c-0.1-0.1-0.1-0.2-0.2-0.3
		H118.8C115.5,396.9,113,455.2,113,455.6z"/>
	<polygon fill="#FFFFFF" points="345.4,265.8 345.4,264.9 345.1,264.6 	"/>
	<path fill="#FFFFFF" d="M479.9,160.3l3.1,1.1l1.5,3.2c0.8,1.8,2.4,4.3,3.4,5.6c1.1,1.3,2.5,3.3,3.1,4.5c0.8,1.7,1.5,2.4,2.8,2.9
		c7.3,3,7.4,3,7.9,4.8c0.4,1.4,0.9,1.9,2.7,2.7c1.2,0.5,3.2,1,4.5,1.2c2.6,0.3,1.9,1,7.9-6.9l3.2-4.2v-3.9c0-3-0.2-4.3-0.8-5.2
		c-0.9-1.3-0.8-3.4,0.2-6.2H479C479.3,160.1,479.5,160.2,479.9,160.3z"/>
	<path fill="#FFFFFF" d="M325,287.6l-3.7-26.9c-0.1,0.1-0.2,0.2-0.3,0.3l1.6,26.6l-2.6,3.2l-2.5-3.2l1.6-26.6
		c-0.1-0.1-0.2-0.2-0.3-0.3l-3.8,26.8l-2.6,2l-2.3-2.3l-1,4.4c1.6,0,3.2,0,4.6-0.2c1.3,0,2.4,1.2,2.5,2.4c0.1-0.3,0-0.6-0.3-1.1
		c2,0,2.8,1.4,2.9,3.1c0.4,0,0.8,0,1.2,0.1c0.4,0,0.7,0,1.1,0c0.1-1.7,0.9-3.1,2.9-3.1c-0.4,0.6-0.4,1-0.2,1.3
		c0-1.3,1.2-2.6,2.7-2.6c1.4,0.2,2.9,0.2,4.5,0.2l-1-4.4l-2.3,2.3L325,287.6z"/>
	<polygon fill="#FFFFFF" points="294.6,265.8 294.7,265.5 294.6,265.6 	"/>
	<path fill="#FFFFFF" d="M358.2,292.1C358.2,292,358.2,292,358.2,292.1c-0.1,0-0.3,0.1-0.4,0.2c0.2,0,0.4,0,0.5,0.1
		C358.3,292.2,358.3,292.2,358.2,292.1z"/>
	<path fill="#FFFFFF" d="M281.8,292.1c0,0.1-0.1,0.1-0.1,0.2c0.2,0,0.3-0.1,0.5-0.1C282,292.1,281.9,292.1,281.8,292.1
		C281.8,292,281.8,292,281.8,292.1z"/>
	<path fill="#FFFFFF" d="M120.4,283.5c-0.5,12.5-1.1,24.7-1.6,36.5h428.3c-0.4-0.7-0.9-1.7-1-2.5c-0.5-2.4-5.1-11.3-7.5-14.4
		c-1.2-1.6-2.6-3.9-3-5.1c-0.5-1.2-1.5-3.2-2.4-4.5c-0.8-1.2-1.7-3-1.8-4c-0.5-2.5-2.1-5.2-5.3-8.4c-2.4-2.4-2.8-3.1-2.8-4.5
		c0-1.3-0.4-1.9-2-3.2c-1.4-1.2-2.3-2.4-3-4.4c-0.6-1.4-1.7-3.8-2.6-5.2c-0.9-1.4-2.1-4.1-2.8-6c-1.7-4.8-5-10.6-8.1-14.6
		c-1.9-2.4-2.8-4-3.2-5.6c-0.3-1.2-0.4-2.3-0.3-2.4c0.1-0.1,0.9,0.1,1.7,0.6l1.5,0.8l-1.2-1.6c-1.4-1.9-1.6-3.1-0.3-3.1
		c1.4,0,1.2-2.1-0.5-4c-0.7-0.8-1.4-1.9-1.4-2.2s-0.7-1.5-1.6-2.4c-0.9-1.1-1.7-2.5-1.9-3.6c-0.4-2.3-3.2-7.1-5-8.5
		c-0.7-0.6-1.5-1.8-1.9-2.8c-1.1-3.3-2.7-6-4.8-7.8c-2.1-1.9-3.8-5-3.4-6.5c0.1-0.6,0.5-0.8,1.5-0.7l1.4,0.1l-1-0.8
		c-0.6-0.5-1.2-1.5-1.3-2.4c-0.2-1-0.7-1.8-1.6-2.2c-1.6-0.8-1.7-1.2-0.5-2.2c0.6-0.6,1.1-0.6,2.1-0.3c0.7,0.2,1.4,0.5,1.7,0.5
		c0.4,0-0.5-3.3-1.8-6.2c-0.8-1.8-1.2-2-3.5-2.8c-3-1-7.1-4.5-10.5-9c-1.1-1.4-2.9-3.6-4-4.8c-1.1-1.2-2-2.4-2-2.6
		c0-0.1-0.1-0.2-0.1-0.3H125.8L120.4,283.5z M290.1,194.6c4.9,3.2,10.3,4.6,15.9,4.6c1.9-2.7,4.8-7.2,6.1-11.6
		c1.5-4.8,1.9-9.1,1.6-11.9h-0.1c-0.1-0.9-0.3-1.8-0.8-2.6c-1.6-2.3-3.9-4.3-6.6-2.2c-1.1,0.9-0.8-4.2,0.6-5.1
		c0.4-0.3,0.9-0.5,1.6-0.6c1.8-0.3,4.5,0,7.2,0.7c0,0-0.4-1.5,1.6-1.4c3.4,0.2,8.6,1.6,10.2,3.2c1.2,1.3,2.7,4.6,2.4,13.1
		c-0.3,6.7,1.6,14.6,3.9,18.4c5.7,0,11.2-1.4,16.2-4.6c8.9-5,21-8.2,21.6,5.8l0,0l3.9,92.4L369,287l0-0.2l-1.9-1.8l0,0.3l-3-3
		l-5.9-5.5l0,0.3l-5.2-5l0-0.1l-2.6-2.4l0,0.5l-5-4l6.4,22.7c1.3-0.3,2.5-0.7,3.8-1.1c0.8-0.2,1.7,0.1,2.4,0.7
		c3.5-0.2,5.1,4,3.9,6.4c-0.1-0.3-0.4-0.5-0.7-0.7c0.5,0.7,0.8,1.5,0.8,2.6c3-0.6,3.6,3.9,5.9,3.8c0.2,0,0.3-0.1,0.5-0.1
		c-0.2,0.1-0.4,0.1-0.5,0.1c-1.9,0.6-0.5,4.5-4,5.7c0,2.6,0,4.5-3.8,5.2c-9,2.5-24.2,3.8-40.2,3.8c-15.9,0-31.3-1.3-40.1-3.8
		c-3.8-0.7-3.8-2.6-3.8-5.2c-3.6-1.1-2.1-5.1-4-5.7c-0.2,0-0.3,0-0.5-0.1c0.2,0,0.3,0,0.5,0.1c2.2,0,2.9-4.4,5.9-3.8
		c0-1.2,0.3-2,0.8-2.7c-0.4,0.2-0.7,0.5-0.8,0.8c-1.1-2.4,0.4-6.6,3.9-6.4c0.7-0.5,1.6-0.8,2.4-0.7c1.3,0.4,2.5,0.8,3.8,1.1
		l6.4-22.7l-4.2,3.4l-16.5,15l-0.9,0.9l0-0.1L271,287l0,0l-6.4,5.8l3.9-92.4C269,186.4,281.3,189.6,290.1,194.6z"/>
	<path fill="#FFFFFF" d="M313.6,175.3c0,0.1,0,0.2,0,0.3C313.6,175.5,313.6,175.4,313.6,175.3z"/>
	<path fill="#CE1126" d="M136.4,1.1c-1.1,0.8-2.1,1.9-2.3,2.5c-0.4,1.7-4.4,5.3-6.1,5.6c-0.9,0.1-1.7,0.5-1.9,0.7
		c-0.1,0.2-0.3,3.6-0.3,7.6l0,7.1l2.4,5.6c1.3,3.1,2.4,6.2,2.4,7.1c0,0.8-0.5,3.9-1.1,6.6c-1.1,5.6-2.5,8-6.9,13
		c-1.6,1.8-2.4,3.3-3.6,6.8l-1.5,4.5l2.6,6.6c1.4,3.6,2.5,6.8,2.4,7.1c-0.1,0.3-0.6,1.6-1.2,3l-1,2.4l2.3,2.6
		c2.5,2.8,2.5,2.5,1.2,6.9c-0.6,1.9-0.5,2.3,1.7,8.7l2.3,6.7l-2.1,47.8h336.9c-0.8-1.6-6-8.2-7.3-9.4c-1.3-1.1-2-3.2-2.5-7.6
		c-0.3-2.4-0.5-2.6-2.8-4.4c-1.5-1.1-2.8-2.5-3.2-3.4c-0.4-0.9-1.1-1.9-1.5-2.2c-1.4-1-2.1-3.6-1.4-5.3c0.9-2.2,0.3-9.7-1.2-13.9
		c-1-2.8-1.6-3.9-3.1-5c-4.5-3.7-6.8-13.4-4.1-17.8c0.6-0.9,0.7-1.9,0.6-3.1c-0.2-1.5,0-1.9,1.3-3c1.7-1.4,3.2-1.7,3.2-0.4
		c0,0.5,0.6,1.4,1.4,2.2c0.8,0.7,1.4,1.6,1.4,2c0,0.4,0.6,1.6,1.2,2.8c1,1.7,1.2,2.6,1.2,5.3c0,2.5,0.2,3.6,0.8,4.5
		c0.5,0.6,1.2,2.9,1.6,4.9c0.7,3.4,0.9,3.9,2.9,5.9c1.6,1.7,2.3,2.8,2.6,4.4c0.4,1.9,0.6,2.2,2,2.6c1.1,0.3,2.2,1.3,3.6,3.1
		c1.1,1.5,3.1,3.5,4.4,4.6c2.3,1.9,2.3,2,2.3,4.5c0,1.4,0.4,3.5,0.9,4.8c0.7,1.9,0.8,3.1,0.6,5.9c-0.3,4.4,0.5,6.4,4,9.4
		c1.3,1.3,2.8,3.2,3.7,4.9c1.2,2.5,1.4,2.9,3.6,3.6h40.6c0.4-1.2,1-2.5,1.7-3.9c1.1-2.2,2.3-5.3,2.6-6.8c0.4-1.6,1.1-3.7,1.6-4.8
		c0.7-1.4,0.9-2.7,0.9-4.6c0-1.4,0.1-3.2,0.5-3.9c0.3-0.7,0.5-2.2,0.5-3.2c0-1.1,0.3-2.6,0.7-3.3c0.6-1.3,0.6-3.3-0.1-5.8
		c-0.1-0.4,0.3-1.4,1-2.2c0.7-0.8,1.3-2.4,1.6-3.9c0.2-1.3,1.8-5.2,3.5-8.5l3-6.1l-0.9-2.5c-0.5-1.4-1.1-4.2-1.4-6.3
		c-0.3-2.2-1.3-5.6-2.3-8.2c-1-2.4-3.2-8.8-5-14.2c-3.3-10.4-3.1-9.9-6.1-11c-0.4-0.1-0.4-0.6,0-2.1c0.5-1.7,0.4-2-0.6-3
		c-0.9-0.9-1-1.4-0.7-2.9c0.2-1.6-0.4-3.4-5.8-15.9C511,29,507.8,22,507,21.1l-1.3-1.6l-2,0.8c-1.1,0.5-2.7,1.4-3.5,2.2
		c-2.2,1.9-6.2,3.9-10.6,5.1c-3.1,0.9-4.4,1-7.9,0.8c-2.3-0.1-4.8-0.5-5.7-0.8c-1.8-0.6-4,0-6.7,1.7c-0.9,0.6-2.6,1.3-3.6,1.4
		c-1.8,0.2-1.9,0.2-1.9-0.8c0-1.6-1.3-3.2-2.6-3.2c-0.6,0-1.9,0.7-2.9,1.6c-1.5,1.4-2.1,1.6-4,1.6c-1.9,0-2.5,0.2-3.7,1.4l-1.5,1.4
		l-3.2-0.6c-3.2-0.6-3.2-0.6-5.5-3.5c-1.9-2.5-7.1-6.7-8.2-6.7c-0.2,0-1.1,0.5-1.9,1c-1.2,0.8-1.8,1.6-2.4,3.7
		c-0.8,2.6-0.8,2.6-3.1,3.2c-1.9,0.5-2.4,0.5-3.4-0.2c-0.9-0.6-1.2-1.2-1.2-2.8v-2.1h-5h-5l-2.2-2.2c-1.9-1.9-2.2-2.5-2.2-4.1
		c0-1.8,0.1-1.9,3-3.5c3.2-1.7,3.9-3.1,2.1-4.1c-1.8-0.9-3.5-0.5-6.7,1.7c-3.8,2.6-3.1,2.6-12.6-1.9c-5.6-2.6-6.4-2.9-11-3.4
		c-5.8-0.6-7-0.5-12.9,1.8c-5.9,2.3-11.8,3.2-14.4,2.1c-1-0.4-2-0.7-2.1-0.7c-0.1,0-1.3,2.2-2.6,4.8c-1.9,3.9-2.6,4.9-3.7,5.4
		c-1.3,0.5-1.4,0.6-0.6,1.2c0.8,0.6,0.7,0.6-0.4,1.1c-1.9,0.7-2.1,0.6-4.5-1.4c-1.2-1-2.3-1.9-2.5-1.9s-3.1,2.2-6.6,5
		c-9.7,7.5-13.7,10.3-20.5,14c-5.7,3.1-6.5,3.4-9.5,3.6c-4.2,0.3-6.1-0.5-12.5-5.1c-2.6-1.9-6.1-4.2-7.8-5.1
		c-3.1-1.7-3.2-1.7-10.7-2.2c-6.9-0.4-13.1-1-16.9-1.6c-1.8-0.3-2.9-1.9-3.3-4.8c-0.3-2.1-0.3-2.1-1.9-2c-0.9,0.1-3,0.9-4.7,1.8
		c-2.4,1.2-3.7,1.6-5.6,1.6c-2.4,0-2.5,0-5.8-3.3c-2.5-2.5-3.4-3.7-3.4-4.6c0-1.3-0.7-1.8-2.7-1.8c-0.7,0-3.1-0.7-5.3-1.6
		c-4.2-1.7-9.6-3.1-11.7-3.1c-0.7,0-1.9-0.4-2.7-0.9c-1.1-0.7-2.7-1-7-1.2c-8.1-0.4-14.7-2.3-19-5.5c-1.9-1.4-3.7-2.3-5.2-2.8h-5.4
		c-0.3,0.2-0.7,0.5-1.2,0.9c-1.8,1.4-2.3,1.6-4.9,1.6c-2,0-4.5,0.6-8.5,1.8l-5.7,1.8L144.6,5c-3.4-1.1-3.8-1.3-4.9-3.2l-1-1.7H138
		L136.4,1.1z"/>
	<path fill="#FFFFFF" d="M296.6,221.4l-2,44.1l0.1-0.1l2.6-9.3l1.1-26.4C297.5,226.7,297,223.9,296.6,221.4z"/>
	<path fill="#FFFFFF" d="M342.7,256.2l2.4,8.4l0.3,0.3l-2-43.5c-0.3,2.5-0.9,5.3-1.7,8.4L342.7,256.2z"/>
	<path fill="#FFFFFF" d="M268.5,200.4c1.9-1.4,4-2.5,6.3-3.2L271,287l1.9-1.7l3.8-86.7c1.3,1.3,5,4.4,5.8,5v0v0l0,0l-3.2,75.2
		l-5.5,5.6l16.5-15l-0.8,0.6l2.5-59.4c1,0.4,2.8,1.4,4.2,1.8c0-0.1,0-0.1,0-0.1l2,0.2c5.4,0,18.9-3.6,22.1-7.2
		c3,3.9,16.1,7.1,21.6,7.1l2-0.2c0,0,0,0,0,0.1c1.3-0.4,3.1-1.3,4.2-1.8l2.5,59l2.6,2.4l-2.5-62.6c0.6-0.7,3.2-2.6,4.5-3.8l3.2,71.2
		l5.9,5.5l-3.4-3.5l-3.2-75.2l0,0v0v0c0.7-0.6,4.5-3.8,5.8-5l3.8,86.5l1.9,1.8l-3.8-89.7c2.3,0.7,4.4,1.8,6.3,3.2
		c-0.6-14-12.7-10.8-21.6-5.8c-5,3.2-10.4,4.7-16.2,4.6c0.7,1.1,1.4,1.9,2.1,2.2c0,0-5.3-0.4-6.7-1.8c0,0,1.3,2.9,0.7,2.8l0,0.1
		c-4.1-0.4-6.7-3.2-6.7-3.2s-2.2,1.9-3.2,3.4l-3.2-3.4c0,0-2.6,2.5-6,4.1l1-4.4c0,0-4.5,2.8-7.7,2.8c0,0,0.8-1,1.9-2.5
		c-5.6,0-11-1.4-15.9-4.6C281.3,189.6,269,186.4,268.5,200.4l-3.9,92.4L268.5,200.4z M289.4,209.4l-2.5,62.7l-5.2,5l3.2-71.5
		C286.2,206.8,288.8,208.6,289.4,209.4z"/>
	<path fill="#C09300" d="M294.6,265.6l2-44.1c-0.7-5-0.5-8.4-0.5-9c-1.3-0.4-3.1-1.3-4.2-1.8l-2.5,59.4l0.8-0.6l4.2-3.4l0.1-0.2
		L294.6,265.6z"/>
	<path fill="#C09300" d="M268.5,200.4l-3.9,92.4l6.4-5.8l0,0l3.8-89.8C272.5,197.9,270.4,199,268.5,200.4z"/>
	<path fill="#C09300" d="M282.5,203.6c-0.7-0.6-4.5-3.8-5.8-5l-3.8,86.7l0,0.1l0.9-0.9l5.5-5.6L282.5,203.6z"/>
	<path fill="#C09300" d="M297.3,256.2l4.7-16.6c-1.6-3.4-2.8-6.7-3.6-9.7L297.3,256.2z"/>
	<polygon fill="#C09300" points="282.5,203.6 282.5,203.6 282.5,203.6 	"/>
	<path fill="#C09300" d="M287,272.1l2.5-62.7c-0.6-0.7-3.2-2.6-4.5-3.8l-3.2,71.5L287,272.1z"/>
	<path fill="#C09300" d="M338,239.5l4.7,16.7l-1.1-26.4C340.8,232.8,339.6,236.1,338,239.5z"/>
	<polygon fill="#C09300" points="357.5,203.6 357.5,203.6 357.5,203.6 	"/>
	<path fill="#C09300" d="M343.8,212.4c0,0.6,0.2,4-0.5,8.9l2,43.5l0,0.9l0.1,0.2l5,4l0-0.5l-2.5-59C347,211.1,345.2,212,343.8,212.4
		z"/>
	<path fill="#C09300" d="M357.5,203.6l3.2,75.2l3.4,3.5l3,3l0-0.3l-3.8-86.5C362,199.8,358.2,203,357.5,203.6z"/>
	<path fill="#C09300" d="M350.6,209.4L353,272l0,0.1l5.2,5l0-0.3l-3.2-71.2C353.8,206.8,351.2,208.6,350.6,209.4z"/>
	<path fill="#C09300" d="M369,286.9l0,0.2l6.4,5.8l-3.9-92.4l0,0c-1.9-1.4-4-2.5-6.3-3.2L369,286.9z"/>
	<path fill="#C09300" d="M320,290.8l2.6-3.2L321,261c-0.3,0.3-0.6,0.5-1,0.8c-0.3-0.2-0.6-0.5-0.9-0.7l-1.6,26.6L320,290.8z"/>
	<path fill="#C09300" d="M315,287.6l3.8-26.8c-0.9-0.7-1.7-1.4-2.5-2.1l-6.2,28.7l2.3,2.3L315,287.6z"/>
	<path fill="#C09300" d="M325,287.6l2.6,2l2.3-2.3l-6.2-28.7c-0.8,0.7-1.6,1.4-2.4,2.1L325,287.6z"/>
	<path fill="#FFFFFF" d="M298.3,290.8c3.5,0.5,7.3,0.9,10.7,0.9l1-4.4l6.2-28.7c-6.8-6.1-11.3-12.7-14.3-19.1l-4.7,16.6l-2.6,9.3
		l-0.1,0.3l-0.1,0.2l-6.4,22.7C291.5,289.6,294.9,290.3,298.3,290.8L298.3,290.8z"/>
	<path fill="#FFFFFF" d="M345.1,264.6l-2.4-8.4l-4.7-16.7c-3,6.4-7.5,13.1-14.3,19.1l6.2,28.7l1,4.4c3.4,0,7.2-0.4,10.7-0.9
		c3.4-0.5,6.9-1.2,10.2-2.1l-6.4-22.7l-0.1-0.2L345.1,264.6z"/>
	<path fill="#FFFFFF" d="M272.1,300.4c-0.1,0-0.3-0.1-0.5-0.1C271.8,300.4,271.9,300.4,272.1,300.4z"/>
	<path fill="#FFFFFF" d="M283.3,301.8L283.3,301.8c0,0-0.1,0.1-0.2,0.2c-0.2,0.1-0.2,0.2-0.2,0.2c0,0.2,0.1,0.2,0.5,0.2l0.2-0.2
		c0.2-0.2,0.2-0.3,0-0.5C283.4,301.8,283.4,301.8,283.3,301.8z"/>
	<path fill="#FFFFFF" d="M299.8,303.4c0-0.2-0.1-0.4-0.2-0.4c-0.2,0-0.3,0.1-0.6,0.3l-0.4,0.4l-0.2,0.2l0.2,0.2
		c0.2,0.2,0.6,0.4,1,0.4l0.6-0.2v-0.2C299.9,304,299.8,303.8,299.8,303.4z"/>
	<path fill="#FFFFFF" d="M316.4,306.9h-1l-0.8-0.1h0c-0.3,0-0.5,0-0.8,0.2c-0.2,0.1-0.5,0.4-0.3,0.6c0.2,0.3,0.5,0.2,0.7,0.3
		l1.6,0.1l2.1,0.1c0.2,0,0.4,0.1,0.6,0.2v0.2v0.9c0.1,0.2,0.3,0.4,0.6,0.4c0.1,0,0.1-0.1,0.2-0.2c0.2-0.1,0.2-0.4,0.2-0.6v-1.6
		c-0.2-0.2-0.3-0.3-0.5-0.3C318,307,317.2,307,316.4,306.9z"/>
	<path fill="#FFFFFF" d="M347.9,305.3c0-0.3-0.2-0.6-0.6-0.8c-0.2-0.2-0.3-0.2-0.4-0.2l-0.2,0.2c-0.2,0.2-0.2,0.2,0,0.5v0.3
		c0,0.2,0.4,0.4,0.6,0.4l0.4-0.2C347.9,305.4,347.9,305.4,347.9,305.3z"/>
	<path fill="#FFFFFF" d="M347.5,306.9c-0.2,0.1-0.2,0.2-0.2,0.3l0.1,0.2h1v-0.5l-0.4-0.1L347.5,306.9z"/>
	<path fill="#FFFFFF" d="M345,304.6L345,304.6c0,0.1-0.2,0.1-0.2,0.2c-0.2,0.2-0.2,0.2-0.2,0.6c0,0.5,0.1,0.5,0.6,0.5
		c0.5,0,0.5,0.1,0.5-0.2v-0.5c0-0.2-0.1-0.3-0.2-0.5C345.2,304.6,345.1,304.6,345,304.6z"/>
	<path fill="#FFFFFF" d="M352.2,304.6L352.2,304.6c-0.3,0-0.6,0.2-0.6,0.5c0,0.2,0.1,0.2,0.2,0.3l0.3,0.2l0.4-0.2
		c0.3-0.2,0.4-0.3,0.3-0.6C352.6,304.6,352.5,304.6,352.2,304.6z"/>
	<path fill="#FFFFFF" d="M368.5,300.3c-0.2,0-0.4,0-0.5,0.1C368.1,300.4,368.3,300.4,368.5,300.3z"/>
	<path fill="#FFFFFF" d="M340.6,305.8c-0.2-0.1-0.4,0-0.5,0.2l-0.2,0.2v0.1c-0.2,0.1-0.2,0.2,0,0.2c0,0,0,0.1,0,0.1
		c0.2,0.2,0.6,0.1,0.8,0c0.2-0.1,0.2-0.2,0.2-0.5C340.9,306,340.8,305.9,340.6,305.8z"/>
	<path fill="#FFFFFF" d="M358.4,292.3c-0.2,0-0.4-0.1-0.5-0.1c-0.3,0.2-0.6,0.3-0.9,0.5c-3.6,1.1-9,2.1-12.6,2.8
		c-0.2,1.5-1.8,2.2-2,4c0,0.2,0,0.3,0,0.5h-0.1c0-0.2,0-0.3,0-0.5c-0.3-1.7-1.8-1.9-2.3-3.3c-3.9,0.5-9.3,0.8-13,0.3
		c-0.6-0.1-1.1-0.2-1.5-0.4c0,0.1,0,0.2,0,0.4c0,1.3-3.2,2-3.2,3.8c-0.8-1.2-1.3-3-1.3-4.5c-0.4,0-0.7,0-1.1,0c-0.4,0-0.8,0-1.2-0.1
		c0.1,1.5-0.4,3.3-1.3,4.5c0-1.8-3.2-2.6-3.2-3.8c0-0.1,0-0.2,0-0.3c-0.4,0.1-0.8,0.3-1.4,0.3c-3.6,0.5-9,0.2-12.9-0.3
		c-0.5,1.6-2.3,1.7-2.3,3.8c0-2.2-1.9-2.8-2.1-4.5c-4.2-0.8-8.5-1.7-12.7-2.8c-0.4-0.2-0.7-0.3-0.9-0.5c-0.2,0-0.3,0-0.5,0.1
		c-0.5,0.8-1.9,1-2.8,1.6c-0.5,0.7-0.8,1.6-0.8,2.7c-3-0.6-3.7,3.8-5.9,3.8c1.9,0.6,0.4,4.6,4,5.7c0,2.6,0,4.5,3.8,5.2
		c8.8,2.5,24.2,3.8,40.1,3.8c16,0,31.2-1.3,40.2-3.8c3.8-0.7,3.8-2.6,3.8-5.2c3.6-1.2,2.2-5.1,4-5.7c-2.3,0-2.9-4.4-5.9-3.8
		c0-1.1-0.3-2-0.8-2.6C360.4,293.4,359,293.1,358.4,292.3z M282.2,298.9c0.1-0.6,0.5-0.8,0.8-0.6c0.3,0,0.7,0.5,0.7,0.6l-0.3,0.6
		l-0.2,0.1c0,0.2-0.3,0.2-0.6,0.2C282.2,299.6,282,299.2,282.2,298.9z M283.4,305.9c-0.2,0.2-0.2,0.2-0.4,0.2c-0.2,0-0.3,0-0.6-0.2
		v-0.1c-0.4-0.3-0.3-0.6,0.2-1c0.3-0.2,0.4-0.2,0.7,0.1C283.9,305.3,283.9,305.5,283.4,305.9z M285.6,306.5
		c-0.2,0.1-0.4,0.2-0.6,0.2l-0.1,0c-0.4-0.1-0.6-0.5-0.5-0.9c0.2-0.3,0.2-0.4,0.7-0.4c0.6,0,0.6,0.1,0.7,0.6
		C285.8,306.2,285.8,306.3,285.6,306.5z M289.1,307.4c-0.2,0.3-0.5,0.3-1,0.2h0.1c-0.3,0-0.5-0.3-0.5-0.6c0-0.2,0-0.3,0.2-0.5
		l0.5-0.2l0.5,0.1C289.3,306.7,289.4,307,289.1,307.4z M290.2,305.8c-1.3-0.3-2.6-0.5-3.8-0.9l-2.6-0.7l-1.6-0.5
		c-0.5-0.1-1.2-0.2-1.3-0.7c0.1-0.6,0.4-1.1,0.7-1.6c0.3-0.4,0.8-0.6,1.3-0.6c0.3-0.2,0.7-0.2,1.1-0.2c0.2-0.3,0.4-0.6,0.4-1
		c0.3-0.6,0.2-1.3,0.6-1.9c-0.2-0.7-1-0.4-1.4,0c-0.5,0.3-1.2,0.1-1.3-0.5c0.1-0.6,0.7-0.7,1.2-0.6c0.5,0.4,1.1,0.1,1.6,0
		c0.2-0.2,0.6-0.5,1-0.5l0,0.1c0.2,0,0.3,0.1,0.3,0.3c0,0.6-0.4,1-0.4,1.6c-0.2,0.5-0.5,0.9-0.5,1.4l-0.6,1.6l-0.4,1.4
		c-0.4,0.5,0.3,0.9,0.8,0.9c0.5,0.2,1.1,0,1.1-0.6c0.2-0.5,0.5-1,0-1.4c-0.5-0.6,0.5-0.6,0.8-0.8c0.4-0.1,0.9-0.9,1.2-0.3
		c-0.2,0.6-0.2,1.1-0.4,1.6l-0.4,1.4c-0.4,0.6,0.6,0.8,1,0.8c0.5,0.2,1,0.4,1.4,0.2c0.2-0.4,0.4-1,0.4-1.4c-0.3-0.2-0.7-1,0-1
		c0.5,0,0.9-0.4,1.3-0.6c0.7-0.2,0.5,0.6,0.3,1l-0.8,2.9c0,0.4-0.2,1-0.8,0.8L290.2,305.8z M305.1,301.9c-0.2,0.9-0.1,1.8-0.3,2.6
		c0,0.9-0.2,1.8-0.3,2.7c-0.2,0.6-0.2,1.2-0.4,1.8c-0.2,0.6-0.9,0.9-1.4,1.1H302c-0.6-0.3-1.2-0.7-1.2-1.4c0-0.5,0.3-1-0.4-1
		c-0.6,0.1-1.2-0.2-1.2-1c-0.2-0.8-1,0-1.2,0.4c-0.6,0.3-1.3-0.1-1.8-0.1c-0.6,0-1.4-0.2-1.8,0.2c-0.4,0.6-1,1.1-1.6,1.1
		c-0.6,0.2-1.4,0-1.9-0.2c-0.4-0.6,0.6-0.4,0.9-0.6c0.6-0.2,1.4-0.2,1.5-1c0.2-0.5,0.5-1.2,0.2-1.8c-0.4-0.5-0.5-1.2,0.1-1.6
		c0.1-0.6,0.8-0.8,1-0.2c0.2,0.6,0.2,1.2,0.3,1.8c0,0.6,0.6,1,1.2,1c0.6,0.2,1.2,0.2,1.5-0.5c0.6-0.6-0.7-0.9-1.1-1
		c-0.8-0.4,0-1.4,0.6-1.5c0.3-0.2,0.7-0.3,1.1-0.3c0.2-0.8,1-1.5,1.8-1.4c0.6,0.3,1,1,1,1.7c0.2,0.5,0.8,0.8,1.1,1.3
		c0.4,0.4,0.5,1.4-0.3,1.3c-0.4,0-1-0.1-1.2,0.2c-0.2,0.5,0.1,0.9,0.6,0.9c0.6,0.1,1,0.2,1,1v0.8c0.4,0.2,0.9,0.4,1-0.2
		c0.1-0.7,0.1-1.4,0.3-2.2c0-0.7,0.2-1.4,0.2-2.1c-0.1-0.6,0.3-1.2,0.2-1.8v-0.6c-0.6-0.2-0.6-1,0.1-1c0.3,0.1,0.7-0.5,1-0.5
		c0.2-0.1,0.4-0.1,0.4,0.3L305.1,301.9z M305.8,308.4L305.8,308.4l-0.2-0.2c0-0.5,0-0.9,0.2-1.4c0.1-0.4,0-0.8,0.2-1.2l0.3-2.2
		c0-0.4,0-0.8,0.2-1.1c0.1-0.6,0-1.2,0.2-1.8c0-0.2,0.2-0.8,0.5-0.5c0.3,0.5,0.7,0.8,1.1,1.2c0.3,0.2,0,0.6-0.2,0.6
		c-0.3,0.1-0.4,0.5-0.4,0.8l-0.2,1c0,0.6,0,1-0.2,1.6l-0.1,1.4l-0.2,1c0,0.3,0,0.7-0.3,0.9C306.3,308.6,305.9,308.6,305.8,308.4z
		 M324.9,309.4h-4c-0.5,0.4-0.2,1.4-1,1.6c-0.4,0.1-0.8,0.6-1.2,0.5c-0.7-0.3-1.5-1-1.5-1.8c-0.5-0.5-1.5-0.2-2.2-0.4l-3.8-0.2
		c-0.7,0.1-0.6,1.2-1.2,1.4c-0.7,0.6-1.6,0.7-2.4,0.6c-0.4,0-1.8-0.2-1-0.6c0.6-0.1,1.4,0.1,2-0.5c0.6-0.3,1-1.1,0.9-1.9
		c-0.1-0.7-0.7-1.3-1-1.8c0.5-0.4,0.7-1.4,1.4-1.3c0.6,0.8,0.7,1.6,1,2.4c0.6,0.4,1.4,0.1,1.2-0.7c0.3-0.6-0.2-1.2-0.3-1.8
		c0.1-0.6,0.6-1,1.2-1l0,0c0.2,0,0.4,0,0.6,0.2c0,0.6,0,1.4,0.8,1.4c0.6,0.2,1.4,0.1,2.2,0.1l2.4,0.2c0.6,0.1,1.3-0.1,1.7,0.3
		l0.1,0.8c-0.3,0.6,0.4,1.5,0.8,0.8c0.1-0.8,0.6-1.5,1.4-1.8c0.6-0.1,1.2-0.6,1.9-0.5c0.4,0.6,0.2,1.4,0.4,2l0.2,1.5
		C325.1,309,325,309.4,324.9,309.4z M326.2,302.2c0-0.3,0.5-0.8,0.8-0.8l0.6,0.3c0.2,0.2,0.2,0.7-0.1,1c-0.2,0.2-0.6,0.2-0.9,0
		l0,0.1C326.5,302.8,326.2,302.4,326.2,302.2z M326.4,304.2c0-0.4,0-0.5,0.4-0.7l0.3-0.2l0.3,0.2c0.3,0.2,0.6,0.3,0.6,0.6
		c0,0.2-0.2,0.5-0.6,0.6c-0.2,0.2-0.3,0.2-0.6,0l0,0.1C326.6,304.6,326.5,304.5,326.4,304.2z M331.9,311c-0.2,0.2-0.2,0.2-0.6,0.2
		s-0.6-0.2-0.6-0.5c0-0.2,0-0.2-0.2-0.1l-0.2,0.1c-0.2,0-0.5,0.2-0.6,0.4l-0.4,0.1c-0.3,0-0.3,0-0.6-0.2c-0.2-0.2-0.2-0.2-0.2-0.5
		c0-0.2,0-0.2,0.2-0.5c0.3-0.3,0.5-0.3,1.1,0c0.6,0.3,0.8,0.3,0.8,0.1c0.1-0.2,0.4-0.4,0.8-0.4c0.1,0,0.3,0.1,0.4,0.2
		c0.2,0.2,0.2,0.2,0.2,0.6C332.2,310.8,332.2,310.8,331.9,311z M333.5,308.8l-1.8,0.2c-1,0.1-2,0.1-3,0.2l-1.2,0.1h-0.4l-0.1-0.2
		c-0.2-0.3,0-0.7,0-1.1c0-0.4,0.1-0.9,0.3-1.3c0.2-0.2,0.4-0.6,0.8-0.8c0.3-0.3,1-0.2,1-0.7c0.1-0.5,0-0.9-0.2-1.4
		c0-0.5,0-1-0.2-1.4c-0.1-0.3-1-0.5-0.5-0.9l1-1h0c0.6-0.1,0.6,0.5,0.6,0.9c0,0.9,0.2,1.8,0.2,2.6c0,0.7,0.2,1.4,0.2,2.2
		c0,0.4,0,0.8,0.2,1.2c0.2,0.5,0.8,0.4,1.2,0.2c0.4-0.1,0.9-0.1,0.8-0.6l-0.1-1.2c-0.2-0.3-0.9-0.3-0.6-0.8c0.2-0.3,0.6-0.4,1-0.7
		c0.2-0.3,0.8-0.2,0.8,0.3c0.1,0.6,0,1.1,0.2,1.8c0.2,0.5,0,1,0.3,1.6C334.2,308.4,334,308.9,333.5,308.8z M337.6,309.2l-0.5,0.6
		c-0.2,0.2-0.5,0.5-0.8,0.6c-0.2,0.1-0.4,0.3-0.7,0.3h-1.2l-0.1-0.1v0c-0.1,0-0.2-0.1-0.1-0.2c0.1-0.2,0.4-0.3,0.6-0.5
		c0.4-0.2,0.8-0.4,1.1-0.8c0-0.3,0.3-0.5,0.3-0.8l-0.1-1.1c-0.1-0.3-0.3-0.6-0.6-0.8c-0.2-0.1-0.6-0.2-0.6-0.5
		c0-0.2,0.2-0.5,0.3-0.7l0.5-1c0.2-0.2,0.6,0,0.6,0.2l0.4,0.8c0.2,0.2,0.4,0.5,0.5,0.8c0.2,0.3,0.3,0.6,0.3,0.8l0.2,1
		C337.8,308.3,337.8,308.8,337.6,309.2z M357.5,306.6c-0.2,0.2-0.2,0.2-0.6,0.2s-0.5,0-0.6-0.2v-0.1c-0.2-0.1-0.2-0.2-0.2-0.4
		c0-0.3,0.2-0.6,0.6-0.7c0.5-0.2,0.8-0.2,1,0.2C357.8,306.2,357.8,306.3,357.5,306.6z M358.9,302.6c0.3,0.5,1.6,1.2,0.5,1.4
		l-4.3,1.2c-1,0-1.1,0.9-1.8,1.3c-0.6,0.5-1.9,0.6-2.3,0c-0.3-0.4-1.4-0.4-1.4,0.2c0.1,0.7-0.3,1.4-0.9,1.8
		c-0.6,0.8-1.8,0.2-2.4-0.4c-0.2-1.1-1.3-1-2.1-0.8c-0.6,0.2-1.8,0.1-2,0.9c-0.1,1-1,1.6-1.8,1.8h-1.3c-0.2-0.9,1.1-0.6,1.6-1.1
		c0.6-0.5,0.3-1.4-0.5-1c-0.5,0.1-1.3,0.4-1.4-0.3v-1.6c0.5-0.6,0.8-1.3,1.6-1.6c0.6-0.3,1.4-0.6,1.4,0.3c0.2,0.7,0.3,1.9,1.4,1.4
		c0-0.8,0.2-1.7,0.8-2.4c0.4-0.5,1.6-0.8,0.8-1.6c-1-0.6,0.2-1.7,0.8-1.9c0.6,0.5,0.5,1.7,0.8,2.4c0.7,0.2,1.6,0.2,2.1,1
		c0.6,0.5,0.6,1.7,1.6,1.4c0.6-0.3,0.6-1.3,1.4-1.6c0.6-0.7,1.7-0.1,2.2,0.5c0.6,0.6,1.9,0.1,1.1-0.8c-0.2-0.9-0.6-1.8-0.6-2.6
		c-0.2-1-0.3-2.2-1.4-2.4c-0.8-0.2-1.5,1.4-2,0.2c-0.8-0.5-0.4-1.3,0.4-1.3c0.4-0.1,0.9-0.2,1.4-0.2l0,0c0.7,0,1.5,0.2,2,0.7
		c0.8,0.8,0.7,2.1,1,3.2c0.2,0.9,0.2,1.9,1,2.5C357.3,304,358.1,302.2,358.9,302.6z"/>
	<path fill="#FFFFFF" d="M328.6,307.3c-0.2,0.2-0.2,0.5-0.1,0.6c0.1,0,0.1,0,0.2,0c0.1,0,0.2,0,0.3-0.1l0.2-0.1v-0.6H329
		L328.6,307.3z"/>
	<path fill="#FFFFFF" d="M323.6,307l-0.6,0.3c-0.2,0.1-0.2,0.4-0.2,0.5c0.2,0.2,0.6,0.2,1,0c0.2,0,0.2-0.1,0.2-0.2l-0.2-0.4
		C323.8,307,323.7,307,323.6,307z"/>
	<path fill="#FFFFFF" d="M282.5,288.3c-1.3,1.8,0,1.8-0.7,3.7c0.1,0.1,0.2,0.2,0.3,0.2c0.3,0.2,0.6,0.3,0.9,0.5
		c4.2,1.1,8.4,2,12.7,2.8c0-0.3,0-0.6,0.1-0.9c0.1-1.4,1.2-2.5,2.6-2.6c1.3,0,1.9,2,1.9,3.2c0,0.4-0.1,0.7-0.2,1
		c3.9,0.5,9.3,0.8,12.9,0.3c0.5-0.1,1-0.2,1.4-0.3c0.2-1.2,1.6-1.5,1.9-2.3c-0.1-1.2-1.2-2.4-2.5-2.4c-1.4,0.2-3,0.2-4.6,0.2
		c-3.5,0-7.2-0.4-10.7-0.9h0c-3.4-0.5-6.9-1.2-10.2-2.1c-1.3-0.3-2.5-0.7-3.8-1.1c-0.8-0.2-1.7,0.1-2.4,0.7
		C282.1,288.3,282.2,288.3,282.5,288.3L282.5,288.3z M306,294.1h-4.5C302.8,293.4,305.3,293.4,306,294.1z M313,294L313,294
		c-0.2,0.1-0.4,0.1-0.6,0.1l-3.8,0.6c0.6-0.5,2.5-0.5,3.8-0.6L313,294z M290.1,291.5c0.6,0,3.2,0.6,4.4,1.3L290.1,291.5z
		 M287.5,290.9l-3.8-1.3C285,289.6,287,290.2,287.5,290.9z"/>
	<path fill="#FFFFFF" d="M330.9,291.7c-1.6,0-3.1,0-4.5-0.2c-1.5,0-2.7,1.3-2.7,2.6c0.4,0.7,1.5,1.1,1.8,2.1
		c0.4,0.2,0.9,0.3,1.5,0.4c3.7,0.5,9.1,0.2,13-0.3c-0.1-0.3-0.2-0.6-0.2-1c0-1.2,0.6-3.2,1.9-3.2c1.4,0.1,2.5,1.2,2.6,2.6
		c0.1,0.4,0.1,0.7,0.1,0.9c3.6-0.7,8.9-1.7,12.6-2.8c0.4-0.2,0.6-0.3,0.9-0.5c0.1-0.1,0.2-0.2,0.3-0.2c-0.6-1.8,0.6-1.9-0.7-3.7h0v0
		l0,0c0.2,0,0.4-0.1,0.6-0.1c-0.7-0.5-1.6-0.8-2.4-0.7c-1.3,0.4-2.5,0.8-3.8,1.1c-3.4,0.9-6.8,1.6-10.2,2.1
		C338.2,291.3,334.4,291.7,330.9,291.7z M327,294l0.6,0.1c1.3,0,3.3,0.1,3.9,0.6l-3.9-0.6C327.4,294.1,327.2,294.1,327,294L327,294z
		 M334,294.1c0.7-0.7,3.2-0.7,4.5,0H334z M350,291.5l-4.5,1.3C346.8,292.1,349.2,291.5,350,291.5z M356.2,289.6l-3.8,1.3
		C353.2,290.2,355,289.6,356.2,289.6z"/>
	<path fill="#FFFFFF" d="M324,292.8c-2,0-2.8,1.4-2.9,3.1c-0.1,1.5,0.5,3.3,1.3,4.5c0-1.8,3.2-2.6,3.2-3.8c0-0.1,0-0.2,0-0.4
		c-0.2-1-1.4-1.4-1.8-2.1C323.6,293.8,323.6,293.4,324,292.8z"/>
	<path fill="#FFFFFF" d="M315.9,292.8c0.3,0.5,0.4,0.8,0.3,1.1c-0.3,0.8-1.6,1.2-1.9,2.3c0,0.1,0,0.2,0,0.3c0,1.3,3.2,2,3.2,3.8
		c0.8-1.2,1.4-3,1.3-4.5C318.7,294.2,317.9,292.8,315.9,292.8z"/>
	<path fill="#FFFFFF" d="M281.6,292.3c0-0.1,0.1-0.1,0.1-0.2c0,0,0-0.1,0-0.1c0.6-1.8-0.6-1.9,0.7-3.7l-0.1,0c-0.2,0-0.3,0-0.5-0.1
		c-3.5-0.3-5,3.9-3.9,6.4c0.1-0.3,0.4-0.6,0.8-0.8C279.7,293.3,281.1,293.1,281.6,292.3z"/>
	<path fill="#FFFFFF" d="M342.4,299.5c0.3-1.8,1.8-2.4,2-4c0-0.3,0-0.6-0.1-0.9c-0.1-1.4-1.2-2.5-2.6-2.6c-1.3,0-1.9,2-1.9,3.2
		c0,0.4,0.1,0.8,0.2,1C340.6,297.6,342.1,297.8,342.4,299.5z"/>
	<path fill="#FFFFFF" d="M342.4,300c0-0.2,0-0.4,0-0.5C342.3,299.7,342.3,299.8,342.4,300L342.4,300z"/>
	<path fill="#FFFFFF" d="M358.2,292C358.2,292,358.2,292,358.2,292c0.1,0.2,0.1,0.2,0.2,0.3c0.6,0.8,2,1,2.9,1.6
		c0.3,0.2,0.5,0.4,0.7,0.7c1.2-2.4-0.4-6.6-3.9-6.4c-0.2,0-0.4,0-0.6,0.1C358.8,290.1,357.6,290.2,358.2,292z"/>
	<polygon fill="#FFFFFF" points="357.5,288.3 357.5,288.3 357.5,288.3 	"/>
	<path fill="#FFFFFF" d="M298.3,292.1c-1.4,0.1-2.5,1.2-2.6,2.6c-0.1,0.3-0.1,0.6-0.1,0.9c0.2,1.7,2.1,2.3,2.1,4.5
		c0-2.2,1.8-2.3,2.3-3.8c0.1-0.3,0.2-0.6,0.2-1C300.2,294.1,299.6,292.1,298.3,292.1z"/>
	<path fill="#FFFFFF" d="M327,294L327,294c0.2,0.1,0.4,0.1,0.6,0.1L327,294z"/>
	<path fill="#FFFFFF" d="M327.6,294.1l3.9,0.6C330.9,294.2,328.9,294.1,327.6,294.1z"/>
	<path fill="#FFFFFF" d="M306,294.1c-0.7-0.7-3.2-0.7-4.5,0H306z"/>
	<path fill="#FFFFFF" d="M334,294.1h4.5C337.2,293.4,334.7,293.4,334,294.1z"/>
	<path fill="#FFFFFF" d="M345.5,292.8l4.5-1.3C349.2,291.5,346.8,292.1,345.5,292.8z"/>
	<path fill="#FFFFFF" d="M356.2,289.6c-1.2,0-3,0.6-3.8,1.3L356.2,289.6z"/>
	<path fill="#FFFFFF" d="M313,294l-0.6,0.1C312.6,294.1,312.8,294.1,313,294L313,294z"/>
	<path fill="#FFFFFF" d="M294.5,292.8c-1.2-0.7-3.8-1.3-4.4-1.3L294.5,292.8z"/>
	<path fill="#FFFFFF" d="M283.8,289.6l3.8,1.3C287,290.2,285,289.6,283.8,289.6z"/>
	<path fill="#FFFFFF" d="M312.4,294.1c-1.3,0-3.3,0.1-3.8,0.6L312.4,294.1z"/>
	<path fill="#C09300" d="M326.6,302.7c0.2,0.2,0.7,0.2,0.9,0c0.3-0.2,0.3-0.7,0.1-1l-0.6-0.3c-0.3,0-0.8,0.5-0.8,0.8
		C326.2,302.4,326.5,302.8,326.6,302.7L326.6,302.7z"/>
	<path fill="#C09300" d="M282.6,299.7c0.2,0,0.6,0,0.6-0.2l0.2-0.1l0.3-0.6c0-0.2-0.4-0.6-0.7-0.6c-0.3-0.2-0.7,0.1-0.8,0.6
		C282,299.2,282.2,299.6,282.6,299.7z"/>
	<path fill="#C09300" d="M327.4,304.7c0.3-0.2,0.6-0.4,0.6-0.6c0-0.3-0.2-0.5-0.6-0.6l-0.3-0.2l-0.3,0.2c-0.4,0.2-0.4,0.3-0.4,0.7
		c0.1,0.3,0.2,0.5,0.5,0.6l0-0.1C327.1,304.9,327.2,304.9,327.4,304.7z"/>
	<path fill="#C09300" d="M331.5,309.7c-0.4,0-0.7,0.2-0.8,0.4c0,0.2-0.2,0.2-0.8-0.1c-0.6-0.3-0.8-0.3-1.1,0
		c-0.2,0.2-0.2,0.2-0.2,0.5c0,0.2,0.1,0.3,0.2,0.5c0.2,0.2,0.2,0.2,0.6,0.2l0.4-0.1c0.2-0.2,0.5-0.4,0.6-0.4l0.2-0.1
		c0.2-0.2,0.2-0.1,0.2,0.1c0.1,0.2,0.3,0.5,0.6,0.5s0.3,0,0.6-0.2c0.2-0.2,0.2-0.2,0.2-0.6c0-0.3-0.1-0.4-0.2-0.6
		C331.8,309.7,331.7,309.7,331.5,309.7z"/>
	<path fill="#C09300" d="M306.9,307.6l0.2-1l0.1-1.4c0.2-0.6,0.2-1,0.2-1.6l0.2-1c0-0.3,0.1-0.7,0.4-0.8c0.2-0.1,0.6-0.4,0.2-0.6
		c-0.4-0.4-0.8-0.7-1.1-1.2c-0.2-0.3-0.5,0.2-0.5,0.5c-0.2,0.6-0.1,1.1-0.2,1.8c-0.2,0.3-0.2,0.7-0.2,1.1l-0.3,2.2
		c-0.2,0.4-0.1,0.8-0.2,1.2c-0.2,0.5-0.2,0.9-0.2,1.4l0.2,0.2h0.1c0.2,0.2,0.6,0.2,0.8,0.1C306.9,308.3,306.9,307.9,306.9,307.6z"/>
	<path fill="#C09300" d="M291.4,305.1l0.8-2.9c0.2-0.4,0.4-1.2-0.3-1c-0.4,0.2-0.8,0.6-1.3,0.6c-0.7,0-0.3,0.8,0,1
		c0,0.5-0.2,1-0.4,1.4c-0.5,0.2-1,0-1.4-0.2c-0.4,0-1.4-0.2-1-0.8l0.4-1.4c0.2-0.5,0.2-1,0.4-1.6c-0.3-0.6-0.8,0.2-1.2,0.3
		c-0.3,0.2-1.3,0.2-0.8,0.8c0.5,0.3,0.2,0.9,0,1.4c0,0.6-0.6,0.8-1.1,0.6c-0.5,0-1.2-0.4-0.8-0.9l0.4-1.4l0.6-1.6
		c0-0.6,0.2-1,0.5-1.4c0-0.6,0.4-1,0.4-1.6c0-0.2-0.2-0.3-0.3-0.3l0-0.1c-0.3,0-0.7,0.3-1,0.5c-0.5,0.1-1.1,0.4-1.6,0
		c-0.5-0.1-1.1,0-1.2,0.6c0.1,0.6,0.8,0.8,1.3,0.5c0.3-0.4,1.2-0.7,1.4,0c-0.4,0.6-0.3,1.4-0.6,1.9c0,0.4-0.2,0.7-0.4,1
		c-0.4,0-0.8,0-1.1,0.2c-0.5,0-1,0.2-1.3,0.6c-0.3,0.5-0.6,1-0.7,1.6c0.1,0.5,0.8,0.6,1.3,0.7l1.6,0.5l2.6,0.7
		c1.3,0.4,2.6,0.6,3.8,0.9l0.4,0.1C291.2,306.1,291.4,305.5,291.4,305.1z M283.5,302.3l-0.2,0.2c-0.4,0-0.5-0.1-0.5-0.2
		c0-0.1,0-0.2,0.2-0.2c0.1-0.1,0.2-0.1,0.3-0.2l-0.1,0c0.1,0,0.2,0,0.2,0C283.7,302,283.7,302.2,283.5,302.3z"/>
	<path fill="#C09300" d="M305,299.8c-0.2,0-0.6,0.6-1,0.5c-0.7,0.1-0.6,0.8-0.1,1v0.6c0.1,0.6-0.3,1.2-0.2,1.8
		c0,0.6-0.2,1.4-0.2,2.1c-0.2,0.7-0.2,1.4-0.3,2.2c-0.1,0.6-0.6,0.4-1,0.2v-0.8c0.1-0.7-0.4-0.9-1-1c-0.6,0-0.8-0.4-0.6-0.9
		c0.2-0.3,0.8-0.2,1.2-0.2c0.8,0.2,0.7-0.9,0.3-1.3c-0.3-0.5-1-0.8-1.1-1.3c0-0.6-0.4-1.4-1-1.7c-0.9-0.1-1.6,0.6-1.8,1.4
		c-0.4,0-0.8,0.2-1.1,0.3c-0.6,0.2-1.4,1.1-0.6,1.5c0.4,0.1,1.8,0.4,1.1,1c-0.3,0.6-1,0.6-1.5,0.5c-0.6,0-1.2-0.3-1.2-1
		c-0.1-0.6-0.1-1.3-0.3-1.8c-0.2-0.6-0.9-0.5-1,0.2c-0.6,0.4-0.5,1.1-0.1,1.6c0.2,0.6,0,1.3-0.2,1.8c-0.2,0.8-1,0.8-1.5,1
		c-0.2,0.2-1.3,0-0.9,0.6c0.6,0.2,1.3,0.4,1.9,0.2c0.6,0,1.2-0.6,1.6-1.1c0.4-0.4,1.1-0.2,1.8-0.2c0.6,0,1.2,0.4,1.8,0.1
		c0.2-0.4,1-1.2,1.2-0.4c0,0.7,0.6,1,1.2,1c0.7,0,0.4,0.5,0.4,1c0,0.7,0.6,1.1,1.2,1.4h0.6c0.6-0.2,1.2-0.5,1.4-1.1
		c0.2-0.6,0.2-1.2,0.4-1.8c0.2-0.9,0.3-1.8,0.3-2.7c0.2-0.8,0.2-1.7,0.3-2.6l0.2-1.8C305.4,299.7,305.2,299.7,305,299.8z
		 M300.2,304.3l-0.6,0.2c-0.4,0-0.7-0.2-1-0.4l-0.2-0.2l0.2-0.2l0.4-0.4c0.2-0.2,0.4-0.3,0.6-0.3c0.1,0,0.2,0.2,0.2,0.4
		c0,0.3,0.2,0.6,0.4,0.6V304.3z"/>
	<path fill="#C09300" d="M324.8,305.3c-0.7-0.2-1.3,0.4-1.9,0.5c-0.8,0.3-1.4,1-1.4,1.8c-0.4,0.7-1.1-0.2-0.8-0.8l-0.1-0.8
		c-0.4-0.4-1.1-0.2-1.7-0.3l-2.4-0.2c-0.8,0-1.5,0.1-2.2-0.1c-0.8,0-0.8-0.8-0.8-1.4c-0.2-0.1-0.4-0.2-0.6-0.2l0,0
		c-0.6,0-1.1,0.5-1.2,1c0.2,0.6,0.6,1.2,0.3,1.8c0.2,0.8-0.6,1.1-1.2,0.7c-0.3-0.8-0.5-1.6-1-2.4c-0.6-0.2-0.9,0.9-1.4,1.3
		c0.2,0.6,0.9,1.1,1,1.8c0.2,0.8-0.3,1.6-0.9,1.9c-0.6,0.6-1.4,0.4-2,0.5c-0.8,0.5,0.6,0.6,1,0.6c0.8,0.1,1.7,0,2.4-0.6
		c0.6-0.2,0.5-1.4,1.2-1.4l3.8,0.2c0.6,0.2,1.7-0.1,2.2,0.4c0,0.8,0.8,1.4,1.5,1.8c0.4,0.2,0.8-0.4,1.2-0.5c0.8-0.2,0.6-1.2,1-1.6h4
		c0.2,0,0.2-0.4,0.5-0.6l-0.2-1.5C325,306.6,325.2,305.8,324.8,305.3z M319.3,309c0,0.2,0,0.6-0.2,0.6c0,0.1-0.1,0.1-0.2,0.2
		c-0.2,0-0.4-0.2-0.6-0.4v-0.9v-0.2c-0.2-0.1-0.4-0.2-0.6-0.2l-2.1-0.1l-1.6-0.1c-0.2-0.1-0.6,0-0.7-0.3c-0.2-0.2,0.1-0.5,0.3-0.6
		c0.3-0.1,0.5-0.2,0.8-0.2h0l0.8,0.1h1c0.8,0.2,1.6,0.2,2.4,0.2c0.2,0,0.3,0.2,0.5,0.3V309z M323.8,307.8c-0.4,0.2-0.8,0.2-1,0
		c0-0.1,0-0.4,0.2-0.5l0.6-0.3c0.1,0,0.2,0,0.2,0.2l0.2,0.4C323.9,307.8,323.9,307.8,323.8,307.8z"/>
	<path fill="#C09300" d="M333.9,306.4c-0.2-0.6-0.1-1.2-0.2-1.8c0-0.5-0.6-0.6-0.8-0.3c-0.3,0.3-0.8,0.4-1,0.7
		c-0.2,0.5,0.5,0.5,0.6,0.8l0.1,1.2c0.1,0.5-0.4,0.5-0.8,0.6c-0.4,0.2-1,0.2-1.2-0.2c-0.2-0.4-0.2-0.8-0.2-1.2
		c0-0.8-0.2-1.4-0.2-2.2c0-0.8-0.2-1.7-0.2-2.6c0-0.4-0.1-1-0.6-0.9h0l-1,1c-0.5,0.4,0.4,0.6,0.5,0.9c0.2,0.5,0.2,1,0.2,1.4
		c0.2,0.5,0.2,0.9,0.2,1.4c0,0.6-0.6,0.4-1,0.7c-0.4,0.2-0.6,0.6-0.8,0.8c-0.2,0.4-0.3,0.8-0.3,1.3c0,0.4-0.2,0.8,0,1.1l0.1,0.2h0.4
		l1.2-0.1c1-0.2,2-0.2,3-0.2l1.8-0.2c0.5,0.1,0.7-0.4,0.7-0.8C333.9,307.4,334.2,306.9,333.9,306.4z M329.2,307.8l-0.2,0.1
		c-0.1,0-0.2,0.1-0.3,0.1c-0.1,0-0.1,0-0.2,0c-0.2-0.2-0.2-0.4,0.1-0.6l0.4-0.2h0.2V307.8z"/>
	<path fill="#C09300" d="M356.3,303.1c-0.8-0.6-0.7-1.6-1-2.5c-0.2-1.1-0.2-2.4-1-3.2c-0.5-0.6-1.3-0.7-2-0.7l0,0
		c-0.5,0-0.9,0.1-1.4,0.2c-0.8,0-1.2,0.8-0.4,1.3c0.5,1.2,1.2-0.3,2-0.2c1.1,0.2,1.2,1.4,1.4,2.4c0,0.9,0.3,1.8,0.6,2.6
		c0.8,0.9-0.6,1.4-1.1,0.8c-0.5-0.6-1.6-1.2-2.2-0.5c-0.7,0.3-0.8,1.3-1.4,1.6c-1,0.2-1-1-1.6-1.4c-0.5-0.7-1.4-0.8-2.1-1
		c-0.3-0.7-0.2-1.9-0.8-2.4c-0.6,0.2-1.8,1.4-0.8,1.9c0.8,0.8-0.4,1.1-0.8,1.6c-0.6,0.7-0.8,1.6-0.8,2.4c-1,0.6-1.2-0.6-1.4-1.4
		c0-0.9-0.8-0.6-1.4-0.3c-0.8,0.3-1.1,1-1.6,1.6v1.6c0.2,0.7,1,0.4,1.4,0.3c0.8-0.3,1.1,0.6,0.5,1c-0.5,0.5-1.8,0.2-1.6,1.1h1.3
		c0.8-0.2,1.8-0.9,1.8-1.8c0.2-0.8,1.4-0.7,2-0.9c0.8-0.2,1.8-0.3,2.1,0.8c0.6,0.6,1.8,1.2,2.4,0.4c0.6-0.4,1-1.1,0.9-1.8
		c-0.1-0.6,1-0.6,1.4-0.2c0.4,0.6,1.7,0.5,2.3,0c0.6-0.4,0.8-1.3,1.8-1.3l4.3-1.2c1.1-0.2-0.2-1-0.5-1.4
		C358.1,302.2,357.3,304,356.3,303.1z M340.8,306.6c-0.2,0.1-0.6,0.2-0.8,0c0,0,0-0.1,0-0.1c-0.2-0.1-0.2-0.2,0-0.2v-0.1l0.2-0.2
		c0.1-0.2,0.3-0.2,0.5-0.2c0.2,0,0.3,0.2,0.3,0.3C341,306.4,341,306.6,340.8,306.6z M345.5,305.8c0,0.2,0,0.2-0.5,0.2
		c-0.5,0-0.6,0-0.6-0.5c0-0.3,0-0.4,0.2-0.6c0.1-0.2,0.2-0.2,0.3-0.2l-0.1-0.1c0.2,0,0.2,0,0.3,0.2c0.2,0.2,0.2,0.2,0.2,0.5V305.8z
		 M346.7,305.3V305c-0.2-0.3-0.2-0.3,0-0.5l0.2-0.2c0.1,0,0.2,0,0.4,0.2c0.3,0.2,0.6,0.5,0.6,0.8c0,0.2,0,0.2-0.2,0.2l-0.4,0.2
		C347.1,305.7,346.7,305.4,346.7,305.3z M348.4,307.4h-1l-0.1-0.2c0-0.2,0-0.2,0.2-0.3l0.5-0.1l0.4,0.1V307.4z M352.5,305.5
		l-0.4,0.2l-0.3-0.2c-0.2-0.1-0.2-0.2-0.2-0.3c0-0.2,0.3-0.5,0.6-0.6v0.1c0.3,0,0.5,0,0.6,0.2C352.9,305.2,352.8,305.4,352.5,305.5z
		"/>
	<path fill="#C09300" d="M282.7,304.8c-0.6,0.5-0.6,0.7-0.2,1v0.1c0.2,0.2,0.3,0.2,0.6,0.2c0.2,0,0.2,0,0.4-0.2c0.5-0.4,0.5-0.6,0-1
		C283.1,304.6,283,304.6,282.7,304.8z"/>
	<path fill="#C09300" d="M337.3,306.1c-0.1-0.3-0.2-0.6-0.5-0.8l-0.4-0.8c-0.1-0.2-0.4-0.4-0.6-0.2l-0.5,1c-0.1,0.2-0.3,0.5-0.3,0.7
		c0.1,0.3,0.4,0.4,0.6,0.5c0.3,0.2,0.5,0.5,0.6,0.8l0.1,1.1c0,0.3-0.3,0.5-0.3,0.8c-0.3,0.4-0.7,0.6-1.1,0.8
		c-0.2,0.2-0.6,0.2-0.6,0.5c-0.2,0.1,0,0.2,0.1,0.2v0l0.1,0.1h1.2c0.3,0,0.5-0.2,0.7-0.3c0.3-0.1,0.6-0.3,0.8-0.6l0.5-0.6
		c0.2-0.4,0.2-0.9,0.2-1.3l-0.2-1C337.6,306.6,337.4,306.4,337.3,306.1z"/>
	<path fill="#C09300" d="M285.1,305.4c-0.5,0-0.6,0.1-0.7,0.4c-0.1,0.4,0.1,0.8,0.5,0.9l0.1,0c0.2,0,0.5,0,0.6-0.2
		c0.2-0.2,0.2-0.2,0.2-0.6C285.8,305.4,285.7,305.4,285.1,305.4z"/>
	<path fill="#C09300" d="M356.6,305.5c-0.5,0.2-0.6,0.4-0.6,0.7c0,0.2,0.1,0.3,0.2,0.4v0.1c0.2,0.2,0.2,0.2,0.6,0.2s0.5,0,0.6-0.2
		c0.3-0.3,0.3-0.5,0.1-1C357.4,305.3,357.1,305.3,356.6,305.5z"/>
	<path fill="#C09300" d="M288.4,306.3l-0.5,0.2c-0.2,0.2-0.2,0.2-0.2,0.5c0,0.3,0.2,0.6,0.5,0.6h-0.1c0.5,0.1,0.7,0.1,1-0.2
		c0.2-0.3,0.2-0.6-0.2-1L288.4,306.3z"/>
	<path fill="#FFFFFF" d="M296.6,221.4c0.3,2.5,0.9,5.3,1.7,8.4c0.9,3.1,2,6.4,3.6,9.7c3,6.4,7.5,13,14.3,19.1
		c0.8,0.7,1.6,1.4,2.5,2.1c0.1,0.1,0.2,0.2,0.3,0.3c0.3,0.2,0.6,0.5,0.9,0.7c0.3-0.3,0.7-0.5,1-0.8c0.1-0.1,0.2-0.2,0.3-0.3
		c0.8-0.7,1.6-1.4,2.4-2.1c6.8-6.1,11.3-12.7,14.3-19.1c1.6-3.4,2.8-6.7,3.6-9.8c0.9-3.1,1.4-5.9,1.7-8.4c0.7-5,0.5-8.4,0.5-8.9
		c0-0.1,0-0.1,0-0.1l-2,0.2c-5.5,0-18.6-3.2-21.6-7.1c-3.2,3.6-16.6,7.2-22.1,7.2l-2-0.2c0,0,0,0,0,0.1
		C296.1,213,295.9,216.4,296.6,221.4z M311.5,212L311.5,212c3.4-1.1,6.7-2.4,8.6-3.9c1.8,1.5,4.7,2.8,7.8,3.9v0
		c1,0.3,2.1,0.6,3.1,0.9c3.8,1,7.7,1.6,10,1.6h0.6c0,0,0,0.1,0,0.1h0l-0.1,3.2c-0.2,2.7-0.6,5.3-1.1,7.9c0,0,0,0,0,0
		c-0.1,0.5-0.2,1-0.3,1.5c-0.2,0.7-0.3,1.5-0.5,2.2c-0.2,0.9-0.5,1.8-0.8,2.7c-0.1,0.3-0.2,0.6-0.3,0.9c-0.2,0.6-0.4,1.2-0.7,1.9
		c-0.1,0.3-0.2,0.6-0.3,0.9c-0.3,0.8-0.7,1.6-1,2.4c-0.1,0.3-0.3,0.6-0.4,0.9c-0.3,0.5-0.5,1.1-0.8,1.6c-0.2,0.3-0.4,0.7-0.5,1
		c-0.3,0.5-0.6,1.1-0.9,1.6c-0.2,0.3-0.4,0.7-0.6,1c-0.4,0.7-0.8,1.3-1.2,1.9c-0.2,0.3-0.4,0.6-0.7,1c-0.3,0.4-0.6,0.9-1,1.3
		c-0.2,0.3-0.5,0.6-0.7,0.9c-0.5,0.7-1,1.3-1.6,2c0,0.1-0.1,0.1-0.1,0.2v0c-2.4,2.8-5.1,5.4-8,7.7c-9.6-7.5-16.5-17.9-19.7-29.7
		c-0.3-0.9-0.5-1.9-0.7-2.8c0-0.1,0-0.1,0-0.2c-0.2-0.7-0.3-1.5-0.4-2.2c-0.4-2.1-0.7-4.3-0.8-6.4l-0.1-3.3
		C302.8,214.2,307.2,213.4,311.5,212z"/>
	<path fill="#FFFFFF" d="M299.6,226.3c-0.2-0.7-0.3-1.5-0.4-2.2C299.3,224.8,299.4,225.6,299.6,226.3z"/>
	<path fill="#FFFFFF" d="M338.9,231.9c0.3-0.9,0.6-1.8,0.8-2.7c0.2-0.7,0.4-1.4,0.5-2.2c-0.2,0.7-0.3,1.5-0.5,2.2
		C339.4,230.2,339.2,231.1,338.9,231.9z"/>
	<path fill="#FFFFFF" d="M340.6,225.6C340.6,225.6,340.6,225.6,340.6,225.6C340.6,225.6,340.6,225.6,340.6,225.6z"/>
	<path fill="#FFFFFF" d="M338.6,232.8c-0.2,0.6-0.4,1.2-0.7,1.9C338.1,234.1,338.4,233.4,338.6,232.8z"/>
	<path fill="#FFFFFF" d="M341.1,214.5h0.6c0,0,0-0.1,0-0.1L341.1,214.5c-2.3-0.1-6.2-0.6-10-1.6
		C334.9,213.9,338.7,214.5,341.1,214.5z"/>
	<path fill="#FFFFFF" d="M311.5,250.7c-5.2-6.3-9-13.6-11.2-21.4c-0.3-0.9-0.5-1.8-0.7-2.8c0.2,1,0.4,1.9,0.7,2.8
		c3.2,11.7,10.1,22.2,19.7,29.7c2.9-2.3,5.6-4.9,8-7.7V212v-0.1c-3.2-1-6.1-2.3-7.8-3.9c-2,1.5-5.2,2.9-8.6,3.9V250.7z"/>
	<path fill="#FFFFFF" d="M328.1,251.2c0.5-0.6,1.1-1.3,1.6-2C329.2,249.9,328.7,250.5,328.1,251.2z"/>
	<path fill="#FFFFFF" d="M333.3,244.1c-0.4,0.7-0.8,1.3-1.2,1.9C332.5,245.3,332.9,244.7,333.3,244.1z"/>
	<path fill="#FFFFFF" d="M334.8,241.4c-0.3,0.5-0.6,1.1-0.9,1.6C334.2,242.5,334.5,242,334.8,241.4z"/>
	<path fill="#FFFFFF" d="M331.4,247c-0.3,0.4-0.6,0.9-1,1.3C330.8,247.8,331.1,247.4,331.4,247z"/>
	<path fill="#FFFFFF" d="M336.1,238.8c-0.3,0.5-0.5,1.1-0.8,1.6C335.6,239.9,335.9,239.3,336.1,238.8z"/>
	<path fill="#FFFFFF" d="M336.6,237.9c0.4-0.8,0.7-1.6,1-2.4C337.3,236.3,336.9,237.1,336.6,237.9z"/>
	<path fill="#C09300" d="M299.1,224.1c0.1,0.7,0.3,1.5,0.4,2.2c0,0.1,0,0.1,0,0.2c0.2,0.9,0.4,1.9,0.7,2.8c2.2,7.9,6,15.2,11.2,21.4
		V212v0c-4.3,1.4-8.8,2.2-13.3,2.4l0.1,3.3C298.5,219.8,298.8,222,299.1,224.1z"/>
	<path fill="#C09300" d="M328,251.3L328,251.3c0,0,0.1-0.1,0.1-0.2c0.5-0.6,1.1-1.3,1.6-2c0.2-0.3,0.5-0.6,0.7-0.9
		c0.3-0.4,0.6-0.9,1-1.3c0.2-0.3,0.5-0.6,0.7-1c0.4-0.6,0.8-1.3,1.2-1.9c0.2-0.3,0.4-0.7,0.6-1c0.3-0.5,0.6-1.1,0.9-1.6
		c0.2-0.3,0.4-0.7,0.5-1c0.3-0.5,0.5-1.1,0.8-1.6c0.1-0.3,0.3-0.6,0.4-0.9c0.4-0.8,0.7-1.6,1-2.4c0.1-0.3,0.2-0.6,0.3-0.9
		c0.2-0.6,0.5-1.2,0.7-1.9c0.1-0.3,0.2-0.6,0.3-0.9c0.3-0.9,0.6-1.8,0.8-2.7c0.2-0.7,0.4-1.4,0.5-2.2c0.1-0.5,0.2-1,0.3-1.5
		c0,0,0,0,0,0c0.5-2.6,0.9-5.3,1.1-7.9l0.1-3.2h0h-0.6c-2.4,0-6.2-0.6-10-1.6c-1-0.3-2.1-0.6-3.1-0.9v0v0.1V251.3z"/>
	<path fill="#FFFFFF" d="M317.3,164.5c-2-0.1-1.6,1.4-1.6,1.4S315.4,164.4,317.3,164.5z"/>
	<path fill="#FFFFFF" d="M306.2,170.9c2.6-2.2,5-0.2,6.6,2.2C311.2,170.6,308.9,168.7,306.2,170.9z"/>
	<path fill="#FFFFFF" d="M311.8,199l-1,4.4c3.4-1.6,6-4.1,6-4.1l3.2,3.4c1-1.4,3.2-3.4,3.2-3.4s2.6,2.8,6.7,3.2l0-0.1
		c0.6,0.1-0.7-2.8-0.7-2.8c1.4,1.4,6.7,1.8,6.7,1.8c-0.7-0.3-1.4-1.1-2.1-2.2c-2.4-3.9-4.2-11.8-3.9-18.4c0.3-8.5-1.2-11.8-2.4-13.1
		c-1.6-1.6-6.8-3-10.2-3.2c3.4,0.2,8.5,1.6,10.1,3.2c0.5,0.6,0.9,1.2,1.2,1.9c-0.8-1.1-3-1-3.6-1c-0.8,0.1-1.4,0-2.5,0.3
		c-0.6,0.2-1.4,0.3-1.8,0.6c-0.3,0.3-0.6,1.3-1.1,1.3c-0.8,0-0.8-0.2-1-0.4c-0.2-0.4-0.4-0.9-0.7-0.8c-0.8,0.1-2.2-0.6-4-2
		c-1.8-1.4-2.6-1.8-4.8-1.6c-2.4,0.2-3,1.5-3,1.5v-0.2h0c0.2-0.8,0.6-1.4,1-1.7c0.4-0.3,0.9-0.5,1.5-0.6c-0.6,0.1-1.2,0.3-1.6,0.6
		c-1.4,1-1.8,6-0.6,5.1c0,0,0.9-2.8,2.9-2.9c1.4-0.1,4.9,1.1,7.9,6.2c0,0-2.2-0.5-2.8,0c-0.5,0.4-0.6,0.8-0.6,1.1c0,0.1,0,0.2,0,0.3
		c0,0.1,0,0.1,0,0.1h0c0.4,2.8-0.1,7.1-1.6,11.9c-1.3,4.5-4.2,9-6.1,11.6c-1.1,1.6-1.9,2.5-1.9,2.5C307.3,201.8,311.8,199,311.8,199
		z"/>
	<path fill="#C09300" d="M313.6,175.6c0-0.1,0-0.2,0-0.3c0-0.3,0.1-0.6,0.6-1.1c0.6-0.5,2.8,0,2.8,0c-3-5.1-6.5-6.3-7.9-6.2
		c-2,0.1-2.9,2.9-2.9,2.9c2.6-2.2,5-0.2,6.6,2.2C313.3,173.9,313.5,174.8,313.6,175.6L313.6,175.6L313.6,175.6
		C313.7,175.7,313.7,175.6,313.6,175.6z"/>
	<path fill="#C09300" d="M305.9,167.4L305.9,167.4l0,0.2c0,0,0.6-1.4,3-1.5c2.2-0.2,3,0.2,4.8,1.6c1.8,1.4,3.2,2.1,4,2
		c0.3-0.1,0.5,0.4,0.7,0.8c0.2,0.2,0.2,0.4,1,0.4c0.5,0,0.8-1,1.1-1.3c0.5-0.3,1.3-0.5,1.8-0.6c1.1-0.3,1.7-0.2,2.5-0.3
		c0.6-0.1,2.8-0.2,3.6,1c-0.3-0.7-0.7-1.4-1.2-1.9c-1.6-1.6-6.7-3-10.1-3.2c-1.9-0.1-1.6,1.4-1.6,1.4c-2.7-0.7-5.4-1.1-7.2-0.7
		c-0.6,0.1-1.1,0.3-1.5,0.6C306.5,166,306.2,166.6,305.9,167.4z M319,167.6c0.5,0,1,0.4,1,1s-0.4,1-1,1s-1-0.4-1-1
		S318.5,167.6,319,167.6z"/>
	<circle fill="#FFFFFF" cx="319" cy="168.6" r="1"/>
</g>
</svg>
