<?xml version="1.0" encoding="utf-8"?>
<!-- Generator: Adobe Illustrator 17.1.0, SVG Export Plug-In . SVG Version: 6.00 Build 0)  -->
<!DOCTYPE svg PUBLIC "-//W3C//DTD SVG 1.1//EN" "http://www.w3.org/Graphics/SVG/1.1/DTD/svg11.dtd">
<svg version="1.1" id="flag-icon-css-eh" xmlns="http://www.w3.org/2000/svg" xmlns:xlink="http://www.w3.org/1999/xlink" x="0px"
	 y="0px" viewBox="0 0 640 480" enable-background="new 0 0 640 480" xml:space="preserve">
<g>
	<path d="M379.4,125.4c0.2-0.2,19.8-0.6,43.8-1c36.5-0.6,161.2-4.4,161.8-4.8c0.2-0.2-4.3-96.7-5-109.3L579.7,5l-5,0.1
		c-2.8,0.1-24.5,0.9-48.3,1.8c-49.5,2-186.5,4.9-207.3,4.4c-6.8-0.2-12.4-0.3-12.5-0.2c-0.1,0.1-0.9,3.1-1.8,6.9
		c-1.6,6.5-1.8,7-5.9,13.3c-2.4,3.6-5.2,8.3-6.2,10.5c-1.7,3.4-2,4.5-2.1,8c-0.1,3.6-0.3,4.6-2.2,8.4c-1.6,3.2-2.3,5.2-2.5,7.9
		c-0.3,2.8-0.7,4.2-2.1,6.3c-2.3,3.5-9.3,9.9-15.2,13.7c-2.6,1.7-6.3,4.1-8.3,5.5c-7.4,5-8.2,5.4-11.8,5.1l-3.3-0.3l-1.6,2.5
		c-0.9,1.3-2.8,3.7-4.3,5.1c-2.4,2.5-2.9,2.8-5,2.8c-1.3,0.1-2.9,0.2-3.7,0.4c-2.6,0.7-5.2,7.6-5.2,13.4c0,2.5-0.4,4-2.4,8.4
		c-1.5,3.2-3.4,6.4-4.7,8c-2.6,2.9-4.1,6.6-6.6,15.4c-0.7,2.3-1.6,4.9-2.3,6.7h170.5C379.4,138.6,379.4,125.5,379.4,125.4z"/>
	<path fill="#107B00" d="M314.4,335.6l3.1-4.5l9.6-6.5H193.4L59.4,422.8c-0.1,0.5-0.2,1-0.3,1.5c-0.3,2.2-1.2,5.5-1.8,7.3
		c-0.7,1.9-1.6,5.8-2,8.7c-0.4,2.9-1.3,8-2,11.3s-1.8,8.6-2.4,11.8c-0.6,3.1-1.6,7.3-2.2,9.2c-1.2,3.9-0.7,6.3,1.4,6.3
		c1.3,0,1.8-1.8,2.9-9.3c0.8-5.8,2.9-14.3,4.4-17.5c0.7-1.6,1.6-4,1.9-5.4l0.6-2.5h11.5c6.3,0,35.4,0.9,64.6,2
		c51.5,2,55.2,2.1,117.3,2.4c49.2,0.3,64.1,0.2,64.1-0.3c0-0.3-0.9-12.5-2-27.2c-1.2-14.6-2.4-33.1-2.7-41l-0.6-14.4l-2.4-7.5
		l-2.4-7.5l2-5.4C310.6,341.9,312.4,338.6,314.4,335.6z"/>
	<path fill="#FFFFFF" d="M307.3,241.2l-113.9,83.5H327l3.9-2.7l13.5-9.1l7.1-1c7.7-1.1,8.4-1.4,17.8-6.9c4.6-2.7,6-3.2,8.7-3.5
		l3.1-0.3L381,291c0-1.8,0-3.7-0.1-5.5c-7-6.2-12.6-14-16.3-23.2c-2.7-6.8-4.2-14.1-4.3-21.4c-0.2-17.5,7-33.4,18.8-44.7
		c0.3-0.3,0.5-0.5,0.8-0.8c-0.1-13.5-0.3-25.8-0.3-36.2H209.1c-0.3,0.7-0.6,1.3-0.9,1.7c-0.6,1-1.7,3.2-2.6,5.5L307.3,241.2z"/>
	<path fill="#FF00FF" d="M379.1,196.1c0.3-0.3,0.5-0.5,0.8-0.8c0,0,0,0,0,0C379.7,195.6,379.4,195.9,379.1,196.1z"/>
	<path fill="#FF0000" d="M360.4,240.8c0.1,7.3,1.6,14.6,4.3,21.4c3.7,9.2,9.3,17.1,16.3,23.2c-0.4-30.8-0.7-62.8-1-90.1
		c-0.3,0.3-0.5,0.5-0.8,0.8C367.4,207.4,360.2,223.3,360.4,240.8z"/>
	<path fill="#FF0000" d="M307.3,241.2l-101.7-74.9c-0.4,0.8-0.7,1.7-1,2.5l-2.1,5.6l-0.5,14.3c-0.5,14.2-0.5,14.3-2.2,19
		c-0.9,2.6-2,5.3-2.4,6c-0.8,1.6-3.1,3.7-5.2,4.9c-0.9,0.6-2,1.9-2.7,3.5c-1,2.4-1.5,2.7-4.9,4.4c-4.5,2.2-5.9,3.4-7.6,6.6
		c-2.2,4.3-5.9,8.8-9.3,11.4c-7.2,5.4-13.3,10.7-15.1,13.1c-1.5,2-2.9,3-7.3,5.3c-7,3.6-12.8,9-14.9,14c-0.7,1.8-1.8,4.1-2.4,5.1
		s-1,2.5-1,3.1c0,1,0.3,0.7,1.9-1.4c1-1.5,2.6-4,3.5-5.8c0.9-1.7,3-4.5,4.8-6.2c2.9-2.9,3.2-3,3.9-2.1c0.4,0.5,0.7,2.2,0.7,3.8
		c0,3.2-1.3,5.5-6,10.7c-4.8,5.2-8.7,11.2-9.3,14.4c-0.5,2.4-1.2,3.6-3.4,6.2c-1.5,1.7-2.9,3.8-3.1,4.5c-0.2,0.7-1,2.2-1.8,3.2
		c-1.1,1.4-1.5,2.5-1.5,4.1c0,1.9-0.3,2.5-2.1,4.2c-2.4,2.3-2.6,3-0.9,3.3c0.8,0.1,1.3,0.7,1.6,2.1c0.6,2.4,0.1,3.5-3.4,7.2
		c-1.9,2.2-2.8,2.7-4.1,2.7c-1.6,0-1.7,0.1-1.7,2.2c0,1.5-0.4,2.7-1.4,3.9c-1.2,1.6-1.5,2.7-2.2,8.9c-0.6,6-0.9,7.5-2.1,9.2
		c-0.7,1.1-1.6,2-2,2c-1.2,0-2.3,1.6-2.3,3.2c0,1.8-3,8.4-4.7,10.3c-1.5,1.7-6,2.9-9.1,2.5c-2.6-0.4-5.1,0.5-5.1,1.8
		c0,0.3-0.9,1.7-2,3c-3,3.5-6.2,9.5-7.5,13.4c-0.6,1.9-2.1,5-3.5,6.9c-2.3,3.3-2.4,3.6-2.8,8.5c-0.3,2.8-0.7,5.8-1,6.7
		c-0.2,0.6-0.6,2.3-0.9,4l133.9-98.1L307.3,241.2z"/>
</g>
</svg>
