<?xml version="1.0" encoding="utf-8"?>
<!-- Generator: Adobe Illustrator 17.1.0, SVG Export Plug-In . SVG Version: 6.00 Build 0)  -->
<!DOCTYPE svg PUBLIC "-//W3C//DTD SVG 1.1//EN" "http://www.w3.org/Graphics/SVG/1.1/DTD/svg11.dtd">
<svg version="1.1" id="flag-icon-css-fi" xmlns="http://www.w3.org/2000/svg" xmlns:xlink="http://www.w3.org/1999/xlink" x="0px"
	 y="0px" viewBox="0 0 640 480" enable-background="new 0 0 640 480" xml:space="preserve">
<g>
	<path fill="none" d="M249.8,480c-0.2,0.3-0.5,0.7-0.7,1.3l-0.7,1.8h2.5c2.2,0,2.6-0.2,4.8-2.1c0.4-0.4,0.8-0.7,1.2-1.1H249.8z"/>
	<path fill="#FFFFFF" d="M306.4,465.6c0.7-0.1,1.4-0.1,2.3-0.2c3.9-0.3,4.9-0.2,6.9,0.7c2.8,1.1,3.3,0.8,3.5-2.1
		c0.1-1.6,0.3-1.9,1.2-2c0.7-0.1,1.4,0.2,1.7,0.6c0.5,0.8,0.7,0.7,1.8-0.7c1.5-1.7,3.3-1.9,4.9-0.5c0.8,0.8,1.4,0.9,2.4,0.6
		c1.2-0.3,1.2-0.4,0.3-0.5c-1.3-0.2-1.3-0.3-0.4-2c0.7-1.3,0.7-1.3,2.9-0.8c2.2,0.6,2.4,0.6,7.1-1.7c5.7-2.6,9.1-3,12.4-1.3
		c1.7,0.8,2.2,0.9,5.2,0.4c1.8-0.3,3.4-0.5,3.5-0.4c0.4,0.4-1.4,6.9-2.5,8.7c-1.6,2.7-3.9,3.4-13.5,3.9l-5.6,0.3l1.3,0.9
		c1.7,1.1,7.6,1.9,11.6,1.5c3-0.3,3.1-0.3,6.4-3.6c2.9-2.8,3.5-3.9,4.4-6.4c0.6-1.7,1-4,1-5.1c0-3.1,1.4-5.9,4.4-8.6
		c1.4-1.4,3.4-3.9,4.3-5.6c0.9-1.7,3-4.4,4.4-5.9c2.5-2.6,3-2.9,5-3.2l2.3-0.3l0.3-2.2c0.7-4.5,3.5-8.4,7-9.6
		c2.3-0.8,4.7-2.9,4.7-4.2c0-0.8,3.7-5.9,6.4-8.8c1.1-1.2,2.1-2.6,2.1-3.2s0.6-1.7,1.4-2.5c0.8-0.8,1.5-2.2,1.7-3
		c0.2-0.8,1.3-2.5,2.4-3.8c1.3-1.5,2.1-2.9,2.1-3.6c0-0.8,0.5-1.5,1.3-2.1c2.9-1.9,7.2-7.2,9.1-11.3c1.6-3.2,2.8-5,5.9-8.2
		c3.5-3.7,6.3-7.2,8.9-11.3c1-1.7,4.5-11.8,4.5-13.2c0-0.5,0.5-2.5,1.2-4.3c0.7-1.8,1.2-3.6,1.2-3.9c0-0.3-1.6-2.3-3.5-4.3
		c-2.9-3-3.5-4-3.5-5.2c0-1.3-0.5-1.8-4-4.6c-2.2-1.7-5-4-6.1-5c-1.3-1.1-2.8-1.9-3.9-2.1c-4.3-0.7-5.8-1.3-5.8-2.4
		c0-0.7-1.5-2.5-4.1-5.2c-0.9-0.9-1.8-1.9-2.6-2.8h-106V465.6z"/>
	<path fill="#FFFFFF" d="M174.8,453.4c-0.7,0-2.5,0.3-4.2,0.6c-2.8,0.6-3.1,0.7-3.6,2.1c-0.7,2.1,0.2,3.6,1.7,2.7
		c1.4-0.9,3.1-0.1,3.1,1.4c0,1.5,1.6,2.6,3.5,2.6c0,0,0,0,0,0l0-9.5C175.2,453.4,175,453.4,174.8,453.4z"/>
	<path fill="#FFFFFF" d="M395.2,174.5c-0.5-1.6-0.8-3.1-1-4.4c-0.4-3-0.8-4.2-2-5.9c-0.8-1.2-2.6-3.8-4-5.8
		c-2.4-3.6-2.5-3.8-2.8-8.1c-0.3-4.3-0.3-4.4,1.2-6.7c1.7-2.7,6.7-11.5,8.6-15.4c0.8-1.7,1.9-3.1,2.9-3.8c1.9-1.2,2.6-3.4,2.6-7.6
		c0-2.5,0-2.5-3.7-6.4c-3.4-3.4-3.9-4.4-5.9-8.9l-2.1-5.1l-4.4-2.2c-2.5-1.2-5.1-2.5-5.9-2.7c-2-0.7-2.6-1.6-2.7-3.7
		c-0.1-0.9-0.5-3.3-0.9-5c-0.4-1.8-1-4.6-1.3-6.2c-0.5-2.8-0.5-3,0.9-5c0.8-1.1,1.9-3.6,2.6-5.6c0.8-1.9,1.7-4.5,2.2-5.6
		c0.5-1.1,0.8-2.2,0.7-2.4c-0.2-0.1-1.5-0.3-2.8-0.3c-1.4,0-2.6-0.1-2.8-0.3c-0.6-0.6,2.1-3.8,4.7-5.8c2.9-2.1,3.1-3,1.1-5.5
		c-1.5-1.8-0.8-6,1.3-9.1c0.9-1.2,1.9-2.4,2.3-2.6c0.3-0.2,1.2-1.7,2-3.2c1.7-3.3,1.7-3.3-0.6-8.7c-1.6-3.8-1.8-4.1-3.9-4.8
		c-0.9-0.3-2.2-0.9-2.7-1.4c-0.5-0.4-2-1.2-3.3-1.7c-1.7-0.7-3.4-2.1-7-5.6c-5-5-4.9-4.8-3.9-8.5c0.3-0.9-0.1-1-1.7-0.1
		c-0.7,0.4-1.8,0.7-2.6,0.7c-0.8,0-1.7,0.3-2.1,0.8c-0.3,0.4-1.2,1-2,1.5c-0.8,0.4-2.2,1.6-3.2,2.5c-2.1,2.3-4.1,2.5-6.7,0.7
		c-2.6-1.7-4.2-1.6-6.1,0.7c-0.9,1.1-2.3,3.3-3.2,4.9c-0.8,1.6-2.3,3.7-3.3,4.6c-1.3,1.3-1.8,2.2-2,3.8c-0.3,2.7-1.8,8.5-3.9,14.8
		l-1.7,5.1l0.3,6l0.3,6l-1.5,2.7c-1.4,2.5-1.7,2.7-2.8,2.5c-1.1-0.2-1.7,0.1-3.4,1.8c-1.8,1.7-2.4,2.7-3.2,5.5
		c-1.3,4.5-2,5.6-3.6,5.6c-1.4,0-3.3-1.6-4.2-3.6c-0.2-0.4-0.7-0.8-1.4-1.1v108.4H395.2z"/>
	<path fill="#003580" d="M412.4,305.5c-1.3-1.4-2.3-2.7-2.6-3.4l-1-1.9l2.1-1.6c1.3-1,2.3-2.2,2.6-3.3c0.3-0.9,1.5-3.5,2.6-5.7
		c2.2-4.3,2.4-5.3,1.3-7.9c-0.4-1-0.6-2.3-0.5-3c0.3-1.3-0.7-2.2-5.4-5.3c-3-1.9-4.4-4.2-4.8-7.8c-0.2-2.3-0.1-3.5,0.3-4.4
		c0.8-1.7,0.9-10.2,0.1-10.5c-0.3-0.1-2.2-0.4-4.2-0.6l-3.5-0.3l-0.8-3.3c-1.5-6.1-0.9-8.8,2-10c1-0.4,1.8-0.8,1.8-1
		c0-1.4-1.7-4.8-2.9-5.8l-1.5-1.3l1-1.8c0.8-1.3,1-2.6,1-4.6c0-2.9,0.4-5,1.5-7.6c0.6-1.4,0.5-1.6-0.8-2.7l-1.4-1.2l3.4-1.7l3.5-1.7
		l-0.3-3.8c-0.4-5.2-3.3-13.5-6-16.9c-1-1.3-1.9-2.7-1.9-3.1c0-0.3-0.8-2.6-1.8-5c-0.5-1.2-0.9-2.5-1.3-3.7h-88.8v36.4
		c0.7,0.5,1.5,1.3,2.7,2.4l3.4,3.4l-0.2,6.6c-0.1,4.4-0.5,7.3-0.9,8.5c-1.1,2.8-0.9,3.6,1.1,5.7c2,2,2.3,3.1,1.2,4
		c-0.6,0.5-1,0.5-1.9,0c-1.6-0.7-1.6-0.7-1.6,0.6c0,0.8,0.4,1.2,1.6,1.7c3.2,1.1,2.6,4.3-0.7,4.3c-1.6,0-1.9-0.1-1.9-0.9
		c0-0.9-1.1-1.3-2.7-1.2v59.5H412.4z"/>
	<path fill="#003580" d="M224.4,317.1c-0.5,0.7-2.5,0.6-2.8-0.2c-0.1-0.4-0.8-0.7-1.7-0.7c-1.4,0-1.4,0.1-1.2,1.5
		c0.2,0.9,1,2.2,1.9,3.1c1.6,1.5,2.5,1.7,2.5,0.3c0-0.3,0.5-0.7,1.1-0.8c0.8-0.1,1.1-0.5,1.2-1.9C225.7,316.7,225.1,316,224.4,317.1
		z"/>
	<path fill="#003580" d="M306.4,66.1c-0.4-0.2-1-0.3-1.6-0.5c-4-0.9-6.4-2.2-7.5-4.1c-0.6-0.9-1.4-1.9-1.8-2.1
		c-0.7-0.4-1-0.1-1.8,1.9c-0.5,1.3-1,2.5-1,2.8s-0.5,0.5-1,0.5c-1.7,0-5.2,1.4-7,2.9c-1.9,1.5-2.3,1.4-2.3-0.6c0-1.3,0-1.3-2.6-1.3
		c-2.8,0-4.3-0.6-5.3-2c-0.5-0.7-1.2-0.8-3.2-0.8h-2.5v-2.3c0-1.3-0.3-3.4-0.8-4.6c-0.4-1.3-1-3.4-1.4-4.7
		c-0.6-2.3-4.7-12.7-5.9-14.7c-0.9-1.7-3.8-3-5.8-2.5c-2.1,0.5-4.2,1.6-5.3,2.8c-0.8,0.8-0.8,1.4-0.6,3.9c0.5,4.7-0.5,5.1-3.6,1.8
		c-1.3-1.4-1.4-1.4-2.7-0.7c-1.1,0.6-2.3,1.9-2.3,2.7c0,0.1,0.8,0.7,1.8,1.3c2,1.1,2.4,1.9,2.4,5c0,1.9,0,2,1.4,2
		c1.9,0,4.1,1.7,4.7,3.6c0.3,0.8,0.9,1.7,1.4,1.8c0.7,0.2,0.9,0.8,1,2.3c0.1,1.7,0.4,2.2,2.3,3.5c1.2,0.9,2.3,2.2,2.5,3
		c0.3,1.1,0.6,1.3,1.5,1.1c1.4-0.3,2.1,0.5,2.3,2.9c0.1,1.7,0.3,1.9,1.6,2.2c0.8,0.1,3.6,1.4,6.4,2.7c4.1,2,5.1,2.7,5.9,4.1
		c0.5,0.9,1.5,1.9,2.1,2.3c2,0.9,3.4,3.5,3.1,5.5c-0.2,0.9-0.3,1.9-0.4,2.2c0,0.2,0.7,0.7,1.6,1c1.4,0.5,1.7,0.8,2.1,2.5
		c0.3,1.3,0.8,2.3,1.8,2.9c1.1,0.8,1.3,1.3,1.3,2.9c0,1.2-0.3,2.3-0.9,2.9c-1.3,1.4-2.2,9.9-1.4,13.1c0.5,2.2,0.5,2.4-0.7,3.6
		c-0.6,0.7-1.3,1.8-1.4,2.5c-0.2,1.2-0.1,1.3,0.9,1.3c1.9,0,4.3,1.9,4.3,3.3c0,0.7,0.2,1.8,0.5,2.5c0.7,1.7-0.1,3-2.3,3.8
		c-1.6,0.5-1.7,0.7-1.6,2.4c0,1.7,2.3,8.9,5.9,18.7c0.8,2.1,1.1,3.8,0.9,4s-0.7,1.5-1.1,2.8c-1.2,4.3-3,7.8-5,9.9
		c-1.8,1.8-2,2.2-1.5,3c0.8,1.3,0.7,2.4-0.2,3.4c-0.6,0.6-0.6,1-0.2,1.8c0.3,0.5,0.5,1.7,0.5,2.5c0,1.3,0.6,2.2,3.1,5l3.1,3.4v3.5
		c0,2.9,0.2,3.9,1,5c0.9,1.3,0.9,1.6,0.4,7.4c-0.3,3.3-0.7,6.8-0.9,7.8c-0.2,1-0.3,2.9-0.2,4.3c0.2,2.3,0.3,2.5,0.9,1.7
		c0.9-1.3,2.1-7.1,2.1-10.8c0-1.7,0.2-3.6,0.3-4.2c0.3-1,0.4-0.9,2.9,1.1c4.2,3.4,6.5,4.9,7.9,4.9c0.6,0,1.2,0.3,2.1,1v-36.4V66.1z"
		/>
	<path fill="#003580" d="M184.7,461.6c-0.7-0.1-1.1,0.2-1.5,1.1c-0.7,1.5-1,1.5-2.6,0c-1.5-1.4-1.8-3.9-0.4-3.3
		c2.8,1.1,3.4,0.9,4.3-1.2c0.5-1.1,0.8-2.4,0.6-2.8c-0.5-1.5-4.1-5-6.5-6.5l-2.5-1.5l-0.3,1.5c-0.2,1,0,1.7,0.5,2.3
		c0.7,0.7,0.7,1,0.2,1.6c-0.2,0.3-0.7,0.5-1.1,0.6l0,9.5c1.1,0,1.6,0.4,2.6,2.1c0.8,1.4,1.9,2.4,3,2.8c2.2,0.9,2.1,0.9,2.1-0.4
		c0-0.6,0.7-1.8,1.4-2.6C186.2,463,186.3,461.8,184.7,461.6z"/>
	<path fill="#003580" d="M258.7,478.7c1.3-0.4,12.5-2.5,16.3-3.1c2.1-0.3,4.5-0.8,5.5-1.2l1.7-0.7l0.3,1.6c0.3,1.6,0.4,1.7,2.4,1.7
		c1.7,0,2.1-0.2,2.1-0.8c0-0.4,0.4-1.8,0.8-3c0.8-2.1,0.9-2.3,3.2-2.9c1.8-0.5,2.4-0.8,2.6-1.7l0.3-1.1l0.8,1.2
		c1.2,1.8,3.4,2.1,5.3,0.8c1-0.7,1.7-1.5,1.7-2.1c0-1,0.5-1.3,4.8-1.6V305.5V246c-1,0-2.1,0.2-3.4,0.6c-3.4,0.9-5.3,2.5-9,7.3
		c-2.1,2.8-2.3,3.4-2.3,5.5c0,2.9-0.4,3.4-5.7,6.4c-3.7,2.2-3.7,2.2-3.7,4.1c0,2.3-2.1,5.4-4.8,7.2c-1,0.7-2.4,2.1-3,3.3
		c-0.7,1.1-1.6,2.2-2.1,2.3c-0.6,0.1-1.1,1.1-1.7,3.3c-0.7,2.7-1,3.2-2.5,4.1c-0.9,0.5-2.2,1.6-2.8,2.4c-0.6,0.8-1.2,1.5-1.4,1.5
		s-0.8-0.8-1.4-1.9c-1.2-2.1-1.3-2.2-3.7-1.2c-0.9,0.4-2.2,0.7-2.8,0.7c-1,0-1.1,0.2-1.1,1.7c0,1.7,0,1.7,2.1,1.7
		c1.8,0,2.2,0.2,2.6,1.1c0.4,0.8,0.4,1.4,0,2.1c-0.5,0.9-0.9,1-4.1,1c-3.5,0-3.5,0-4,1.4c-0.3,0.8-1.3,2-2.3,2.8
		c-1.4,1.1-1.7,1.7-1.6,2.6c0.1,0.8-0.2,1.7-1.3,2.9c-1.5,1.7-1.5,1.7-1,4.5c0.6,3.2,0.4,4.1-1.3,5.6c-1.6,1.4-4.8,1.5-5.9,0.2
		c-0.4-0.5-1.6-1-2.5-1.1c-2.2-0.4-7.4,0.8-8.6,1.8c-0.8,0.8-0.8,0.9-0.2,2.2c0.4,0.7,0.7,1.8,0.7,2.5c0,1.4-6,12.1-8,14.2
		c-0.9,0.9-1.4,2.1-1.6,3.5c-0.1,1.3-0.7,2.5-1.5,3.3c-1.1,1.2-1.2,1.3-0.4,2.1c0.9,0.9,0.9,4.2-0.1,8.7l-0.7,2.9l1.4,2
		c0.8,1.1,1.7,3.2,2,4.6c0.6,2.4,0.6,2.9-0.3,6.4c-1.2,4.4-0.9,6.9,1.2,10.6c2.1,3.6,2.4,6.4,0.9,12.2c-1,4.4-1.2,5.9-1.1,11.7
		l0.1,6.7l-1.5,2.6c-0.8,1.4-1.5,3-1.5,3.6c0,0.8-0.3,1-1.6,1c-1.4,0-1.7,0.2-1.9,1.4c-0.2,0.8-0.5,1.5-0.8,1.7
		c-0.7,0.5-0.5,5.6,0.3,6.7c0.4,0.6,0.9,2.3,1.1,3.8l0.4,2.8l-2.1,2.1c-1.1,1.2-2.1,2.4-2.1,2.6c0,0.3,0.5,1.1,1,1.8
		c0.9,1.1,0.9,1.4,0.3,2c-1,1-0.5,3,0.9,3.5c1.5,0.6,2,0.2,2-1.2c0-1.4,0.8-1.9,1.1-0.9c0.4,1.1,3.2,0.6,5.2-1
		c1.4-1,3.5-1.6,3.5-0.9c0,0.1-0.4,1.1-0.9,2.1c-1.2,2.3-1.2,2.4,0.1,1.9c1.4-0.6,3.4,0.3,5.4,2.4c1.9,2.1,2.6,3.8,2,5.4
		c-1,2.6-0.6,4.1,1.8,6.5c1.2,1.2,2.6,2.2,3.1,2.2s0.8,0.4,0.8,0.9c0,0.6-0.3,0.9-0.9,0.9c-0.7,0-0.9,0.3-0.9,1.2c0,2,1,4.9,1.9,5.4
		c0.5,0.2,0.8,0.7,0.6,1c-0.1,0.3,0.7,1.1,2,1.7l2.2,1.2l0.8-1.2c1.7-2.6,4.9-6.1,5.4-6.1c0.9,0,2.6,2.1,2.6,3.2
		c0,0.6-0.5,1.4-1.2,1.9c-0.7,0.5-1.2,1.3-1.2,1.7c0,0.9,1.8,1,2.2,0.1c0.3-0.8,2-0.4,2.5,0.7c0.4,0.7,0.2,0.9-1.1,1.1
		c-0.8,0.2-1.2,0.4-1.6,0.8h7C257.7,479.3,258.4,478.8,258.7,478.7z"/>
	<path fill="#003580" d="M299.7,242c1.3,0.9,1.3,0.9,2.7,0c1.8-1.1,2.3-2.5,1.6-4.3c-0.5-1.2-0.8-1.4-2.8-1.4
		c-1.2,0-2.6,0.3-3.1,0.6c-0.8,0.6-0.8,0.8-0.3,2.4C298.1,240.3,299,241.5,299.7,242z"/>
</g>
</svg>
