<?xml version="1.0" encoding="utf-8"?>
<!-- Generator: Adobe Illustrator 17.1.0, SVG Export Plug-In . SVG Version: 6.00 Build 0)  -->
<!DOCTYPE svg PUBLIC "-//W3C//DTD SVG 1.1//EN" "http://www.w3.org/Graphics/SVG/1.1/DTD/svg11.dtd">
<svg version="1.1" id="flag-icon-css-fj" xmlns="http://www.w3.org/2000/svg" xmlns:xlink="http://www.w3.org/1999/xlink" x="0px"
	 y="0px" viewBox="0 0 640 480" enable-background="new 0 0 640 480" xml:space="preserve">
<g>
	<path fill="none" d="M640,460.8c0.6-0.2,0.7-0.8,0.7-2.4c0-1.6-0.3-2.4-0.7-2.4V460.8z"/>
	<path fill="none" d="M640.9,466.7c-0.1-0.3-0.5-0.6-0.9-0.7v1.9c0.1,0,0.1,0,0.2,0C640.8,467.7,641.1,467.2,640.9,466.7z"/>
	<path fill="#68BFE5" d="M404.1,91.7c-1.4-0.3-3,1-2.3,2.1c0.5,0.8,3.2,0.8,4.9-0.1c2.7-1.4,4.8-3.9,4.8-5.7c0-1.9-1.6-2.5-2.3-0.8
		c-0.3,0.6-0.9,0.8-1.8,0.6c-1.8-0.4-3.1,1.1-2.6,2.9C405.3,91.9,405.2,92,404.1,91.7z"/>
	<path fill="#68BFE5" d="M233.6,253.1c0,1.8,3.3,4.9,4.8,4.6c2.2-0.4,1.6-2.2-1.6-5.2c-1.8-1.6-3.2-3.4-3.2-3.8
		c0-0.9-0.9-1.6-1.5-1.1c-0.7,0.7-0.4,2.5,0.6,3.3C233.2,251.4,233.6,252.4,233.6,253.1z"/>
	<path fill="#68BFE5" d="M308.8,293c1.7,0,1.9-0.2,1.9-1.9c0-1.9,0-1.9,1.6-0.9c2.1,1.3,4.6,5.7,6.3,10.5c1,3.1,1.6,3.9,2.8,4
		c3.5,0.6,4.6-4.3,2.8-12.2c-1.8-8-1.9-8.2-6-10.2c-4.1-2.1-5.1-2.3-7.5-0.9c-3,1.6-4.9,6.5-4.1,10C306.8,292.7,307.3,293,308.8,293
		z"/>
	<path fill="#68BFE5" d="M335.1,266c2.1,0,2.8-1.5,1.9-4.1c-0.4-1-0.6-2.7-0.3-3.8c0.3-1.8,0.2-2-1.6-2.4c-3.4-0.7-4.9-0.4-5,0.7
		c-0.1,1.9,0.1,2.9,1.7,6.3C333,265.6,333.5,266,335.1,266z"/>
	<path fill="#68BFE5" d="M384.5,460.6c1.3-0.9,0.7-2.8-1.4-4.1c-1.1-0.8-2.3-1.3-2.6-1.3c-0.3,0.1-1.3,0.3-2.3,0.4
		c-1.7,0.3-1.7,0.4-1.3,3.3c0.3,2.3,0.1,3.4-0.6,4.6c-1,1.6-1,1.6,1.7,2.6c3.3,1.3,4.4,1.3,5.7,0.1c0.6-0.6,0.8-1.6,0.6-3.1
		C383.9,461.9,384.1,460.8,384.5,460.6z"/>
	<path fill="#68BFE5" d="M637.6,466.7c0,1,1,1.5,2.4,1.2V466C639,465.7,637.6,465.9,637.6,466.7z"/>
	<path fill="#68BFE5" d="M425.4,62.4c-5,2.6-8.5,6.1-9.1,9.3c-0.5,2.3,0.3,2.7,2.3,1.1c1.3-1,2.9-0.6,2.9,0.7c0,1.1,1.3,1.1,4.5,0.1
		c3.3-0.9,3.9-2.3,2.7-5.3c-1-2.4-1-2.4,1.6-3.9c0.6-0.3,1.2-1.4,1.3-2.5C432,59.3,431.2,59.4,425.4,62.4z"/>
	<path fill="#68BFE5" d="M293.7,255.4c-0.9,1.6-0.3,4.7,1,5.2c0.5,0.2,0.9-0.1,0.9-0.5c0-0.6,0.4-0.8,1.2-0.6
		c1.9,0.5,2.4-2.1,0.6-3.9C295.7,253.8,294.6,253.8,293.7,255.4z"/>
	<path fill="#68BFE5" d="M634.3,354c-2.6,0.7-2.8,1.8-0.4,2.1c0.9,0.1,2-0.3,2.7-1.1C638,353.5,637.3,353.2,634.3,354z"/>
	<path fill="#68BFE5" d="M628.8,386.7c0-1.1-0.9-1.8-1.5-1.2c-0.8,0.8-0.4,2.1,0.6,2.1C628.4,387.5,628.8,387.2,628.8,386.7z"/>
	<path fill="#68BFE5" d="M590,238.5c0-2.7-0.8-3.1-2.8-1.7c-1.7,1.3-0.8,4.2,1.3,4.2C589.8,241,590,240.7,590,238.5z"/>
	<path fill="#68BFE5" d="M202.9,421.6c0-3.1-3.8-3.8-6.5-1c-2.3,2.4-2.3,5.3,0.1,6.1c1.5,0.5,1.9,0.3,4-1.6
		C201.9,423.9,202.9,422.4,202.9,421.6z"/>
	<path fill="#68BFE5" d="M142.3,352.6c0.4,1.2,5.3,1.4,7,0.3c0.8-0.5,2.1-1.1,3.1-1.3c0.9-0.2,1.7-0.8,1.7-1.3
		c0-1.4-1.3-4.8-1.9-4.8c-0.7,0-1.3,1.9-0.9,2.6c0.2,0.3-0.1,0.6-0.6,0.6c-0.7,0-0.8-0.5-0.6-2.1c0.3-1.8,0.1-2.2-1.2-2.8
		c-0.9-0.4-1.9-0.4-2.8-0.1c-0.8,0.4-1.8,1.8-2.4,3.2c-0.9,2.3-0.9,2.6,0.1,3.7c0.9,1.1,0.9,1.1-0.4,1.1
		C142.6,351.8,142.2,352.2,142.3,352.6z"/>
	<path fill="#68BFE5" d="M606.7,413c-0.3,0.2-0.4,0.8-0.4,1.3c0,0.6,1.1,0.8,4.1,0.8c4.1,0,4.7-0.4,3.3-1.8
		C612.8,412.5,607.4,412.3,606.7,413z"/>
	<path fill="#68BFE5" d="M75.2,363.1c-0.9,0-2.1,0.5-2.7,1.1c-1.6,1.8-1.3,3.6,1.4,6.7c1.6,1.9,2.5,3.5,2.5,4.6c0,1.8,1.6,3.8,3,3.8
		c1,0,0.9-0.9-0.1-3c-0.4-0.9-1-3.7-1.3-6.1C77.5,363.8,77.2,363.1,75.2,363.1z"/>
	<path fill="#68BFE5" d="M584.7,321.4c0.9,0.9,1.6,1.9,1.6,2.3c0,0.3,0.8,0.8,1.8,1.1c1.5,0.6,2.1,0.4,4.1-1c4.8-3.3,3.2-7-3-7
		c-1.9,0-3.8,0.4-4.6,1C582.7,319,582.7,319.3,584.7,321.4z"/>
	<path fill="#68BFE5" d="M616.3,453.6c0.4-0.2,0.6-0.8,0.6-1.3c0-1.6-2.4-0.9-3.7,0.9c-1.8,2.4-1.6,3.9,0.3,5.6
		c0.9,0.8,1.6,1.6,1.6,2c0,0.9,2.3,0.8,3.1-0.3c0.6-0.8,0.4-1.1-0.9-1.6c-1.3-0.6-1.6-1.2-1.6-2.8
		C615.7,454.9,616,453.8,616.3,453.6z"/>
	<path fill="#68BFE5" d="M604.4,218.1c0.5,0,1-0.5,1.1-1.1c0.1-0.8-0.2-1.1-1.1-1.1c-0.9,0-1.3,0.3-1.1,1.1
		C603.4,217.6,603.9,218.1,604.4,218.1z"/>
	<path fill="#68BFE5" d="M601.1,337.6c0.8,0.5,4.6-0.4,4.8-1.1c0.2-1-3.6-1.1-4.5-0.1C600.9,336.9,600.8,337.5,601.1,337.6z"/>
	<path fill="#68BFE5" d="M144.7,463.6c-1.2,1.4-0.4,2.6,0.8,1.3c1.1-1.2,1.4-2.3,0.5-2.3C145.7,462.7,145.1,463.1,144.7,463.6z"/>
	<path fill="#68BFE5" d="M178.8,445.8c0.7-0.6,1.5-0.6,3.3-0.1c1.9,0.6,2.5,0.5,3.1-0.3c0.5-0.7,1.3-0.8,2.7-0.6
		c1.7,0.4,1.9,0.3,1.9-0.9c0-1.5,0.3-1.6,1.9-0.7c0.9,0.5,1.3,0.4,1.8-0.6c0.4-0.7,1.6-1.4,2.6-1.6c1.2-0.3,2.1-1,2.5-2
		c1.1-2.9,0.7-3.9-2.1-5.2c-3.2-1.4-4.9-1.6-4.9-0.4c0,0.4-0.4,1.2-0.9,1.6c-0.8,0.6-1.2,0.6-2.2-0.3c-0.7-0.6-1.3-1.6-1.3-2.2
		c0-0.8-0.6-1-2.3-1c-1.5,0-2.6-0.4-3.3-1.3c-1.3-1.6-6.3-2.3-7.9-1.1c-0.8,0.6-1.6,0.6-2.7,0.2c-2.4-0.9-2.7-0.7-2.7,2.3
		c0,2.1-0.3,2.8-0.9,2.8c-0.5,0-0.9-0.4-0.9-1c0-0.8-0.4-0.9-1.7-0.7c-10.9,2-11.3,2.2-11.8,7.1c-0.6,5.6-0.7,5.8-3.3,6.3
		c-1.3,0.3-3,0.9-3.8,1.6c-1.1,0.9-2.5,1.2-5.1,1.2c-5.1,0-9,1.5-11,4.3c-2.3,3-2.8,3.3-4.4,2.9c-2.1-0.5-2.2,0.6-0.2,2.5
		c1.6,1.5,2.6,1.8,8.8,2.6c7,0.9,7,0.9,9.9-0.7c1.6-0.9,3.5-2.2,4.2-2.9l1.3-1.4l0.2,3.3c0.1,2.7,0.4,3.3,1.3,3.3
		c1.8,0,5.4-5.3,4.4-6.6c-0.3-0.4-0.9-2.1-1.6-3.9c-1.1-3.3-1.1-3.4-0.1-4.2c0.6-0.4,2.3-1,3.8-1.3c2.3-0.3,2.9-0.9,4.8-3.5
		c1.2-1.7,2.6-3.1,3.1-3.1c0.5,0,1.7-0.8,2.7-1.7c1.3-1.2,1.9-1.4,2.5-0.9c0.4,0.4,1.8,0.8,3,0.9c1.9,0.1,2.2,0.4,2.1,1.6
		c-0.1,1.1,0.1,1.4,1.4,1.4c1.7,0,2,1.1,0.9,3.3C177,446.2,177.5,446.8,178.8,445.8z"/>
	<path fill="#68BFE5" d="M236.4,245.4c0.5,0.4,0.9,1.3,0.9,1.8c0,1.6,1.4,4.4,2.4,4.8c0.5,0.2,1.7-0.2,2.6-0.9
		c0.9-0.7,2.2-1.1,2.9-0.9c0.9,0.3,1.7-0.2,2.7-1.4c1.2-1.5,1.3-2.4,1.1-5.9c-0.1-1-0.1-1.8-0.2-2.5h-13.1
		C235.2,242.4,235.3,244.4,236.4,245.4z"/>
	<path fill="#68BFE5" d="M568.5,166.1c-3.1-0.4-3.9-0.8-5-2.2c-1.4-1.9-2.9-2.4-2.9-0.9c0,0.4,0.4,1.2,0.9,1.6s0.9,1.4,0.9,2.3
		c0,1.3,0.3,1.5,1.8,1.5c1,0,2.7,0.2,3.8,0.4c2.8,0.6,2.6,2.8-0.5,6.2c-1.8,2-2.6,3.4-2.9,5.6c-0.6,3.9,0,6,1.6,6
		c1.2,0,1.3-0.3,0.9-2.8c-0.5-3.1,0.1-4,4-6C578.3,174.1,576.6,167,568.5,166.1z"/>
	<path fill="#68BFE5" d="M638.6,457.8c-0.9,2.4-0.8,3,0.9,3c0.2,0,0.3,0,0.5-0.1v-4.9C639.6,455.9,639.1,456.5,638.6,457.8z"/>
	<path fill="#68BFE5" d="M464.4,103.2c-0.2,0-0.3,1.9-0.1,4.2c0.2,3.6,0.4,4.3,1.4,4.4c0.6,0.1,1.6-0.1,2.1-0.4
		c0.7-0.4,0.6-0.8-0.3-2.2c-0.6-0.9-0.9-2.3-0.8-3.1C467,104.8,465.7,103.2,464.4,103.2z"/>
	<path fill="#68BFE5" d="M571.3,415.9c-1.9,0.9-2.4,2.2-1.1,2.7c1.1,0.4,4.1-1.6,4.1-2.8C574.3,414.9,573.2,414.9,571.3,415.9z"/>
	<path fill="#68BFE5" d="M569.5,188.8c-0.4,0.1-0.8,0.8-0.8,1.4c0,0.9,0.6,1.3,2.1,1.6c3.1,0.6,3.9-0.2,2.2-2
		C571.6,188.4,570.9,188.2,569.5,188.8z"/>
	<path fill="#68BFE5" d="M449.4,110.3c-0.9,0.6-1.6,1.4-1.6,1.9c0,1.2,2.6,3,3.2,2.1c0.3-0.4,1.3-0.5,2.8-0.2c2.3,0.4,2.4,0.4,2-1.2
		c-0.3-1.1-0.1-1.7,0.6-1.9c1.5-0.6,3.4-0.4,3.4,0.3c0,0.3,0.3,0.6,0.6,0.6c0.4,0,0.6-0.6,0.6-1.2c0-0.7,0.3-1.4,0.6-1.6
		c0.8-0.5,0.8-2.8,0-2.8c-0.4,0-1.6,0.4-2.8,0.9c-1.9,0.8-2.4,0.8-3.9,0.1c-2.1-1.1-3.2-1.1-4.8-0.2c-1.1,0.6-1.1,0.8-0.1,1.4
		C450.9,109.2,450.8,109.4,449.4,110.3z"/>
	<path fill="#68BFE5" d="M360.9,74.4c0.4,0,1.3-0.6,1.9-1.3c0.6-0.7,1.6-1.3,2.3-1.3c0.6,0,1.5-0.6,1.9-1.3c0.6-1.1,6.7-4.4,8.2-4.4
		c1.7,0,6.5-4.4,7.9-7.2c0.8-1.8,2.1-4,2.7-5c0.7-1.1,1.5-2.5,1.9-3.3c0.3-0.8,1.3-1.7,2.1-2.1c0.9-0.4,1.8-1.6,2.3-3.3
		c0.4-1.4,1.4-3.4,2.3-4.5c0.8-1.1,1.7-3.1,2-4.4c0.3-1.7,0.9-2.5,1.7-2.6c0.7-0.1,2.9-1.9,4.9-3.9c3.9-3.9,5.3-4.9,7.1-4.9
		c0.7,0,2-0.9,3.1-1.9c1-1.1,3.8-2.9,6.2-4.1c2.4-1.2,4.8-2.4,5.3-2.7c0.5-0.3,1.4-0.8,2.1-0.9c0.6-0.2,1.1-0.8,1.1-1.3
		c0-1.6-3.8-1.1-7.3,0.9c-1.8,1.1-3.6,1.9-3.9,1.9c-0.4,0-3,1.1-5.9,2.5c-3.1,1.4-5.7,2.3-6.5,2.1c-0.8-0.2-1.6,0.1-2.1,0.6
		c-0.5,0.6-1.2,1-1.6,1c-1.4,0-3.5,2.8-3.5,4.6c0,0.9-0.3,1.6-0.6,1.3c-0.3-0.2-0.6-0.9-0.6-1.6c0-0.6-0.3-1.2-0.6-1.2
		c-0.3,0-0.6,0.5-0.6,1.2c0,0.8-0.6,1.3-1.7,1.5c-2.3,0.4-2.6,0-1.1-1.3c0.7-0.6,1.8-1.7,2.4-2.5l1.2-1.4h-2c-1.5,0-2.1,0.3-2.4,1.2
		c-0.2,0.7-1.2,1.6-2.3,1.9c-1.9,0.8-7.9,1.3-7.9,0.8c0-0.6,2.8-2.6,3.6-2.7c1.3,0,0.8-1.9-0.4-1.9c-0.7,0-1.4-0.3-1.6-0.6
		c-0.6-0.9-2.8-0.8-2.7,0.1c0.1,0.6-0.6,0.8-2.2,0.8c-1.8,0-2.8,0.4-3.6,1.4c-1.6,2-2.1,1.8-1.6-0.8c0.4-2.1,0.4-2.2-0.9-1.4
		c-0.8,0.4-1.6,2-2,3.4c-0.7,2.9-1.7,3.5-2.2,1.4c-0.4-1.4-0.5-1.5-2.2-0.6c-0.9,0.5-1.1,0.8-0.5,1.2c1.1,0.7,0.2,1.9-1.1,1.4
		c-0.6-0.3-1.2,0.1-1.6,0.7c-0.6,1-0.7,1-1.5-0.1c-0.4-0.6-0.9-1.6-0.9-2.3c0-0.6-0.5-1.1-1.3-1.1c-0.1,0-0.2,0-0.3,0v0.1v2.9
		c0,0,0,0,0,0c0.9,1.8,0.7,3.3,0,3.1v44.5C358.5,75.9,359.8,74.4,360.9,74.4z"/>
	<path fill="#68BFE5" d="M365.5,108.8c2-1.7,5.6-3.6,7.8-4.1c1.3-0.3,2.1-0.9,2.3-1.6c0.4-1.5,2.8-2.1,4.5-1.3
		c0.8,0.4,2.5,0.6,4.4,0.3c2.8-0.4,3.4-0.2,6,1.6c1.9,1.3,3.5,1.9,4.6,1.8c1.3-0.1,1.8,0.1,1.9,1.2c0.3,1.5,2.9,3.6,3.9,3
		c0.3-0.3,1.1-0.1,1.6,0.4c0.9,0.8,0.9,0.6,0.5-1.8c-0.4-2.4-0.3-2.6,0.9-2.6c0.9,0,1.5,0.5,1.7,1.3c0.4,1.6,1.5,1.3,2.5-0.7
		c0.8-1.4,0.6-1.6-0.9-2.9c-0.9-0.8-2.6-2.1-3.7-3c-1.1-0.9-1.9-2-1.7-2.5c0.2-0.4,0.1-1.4-0.4-2.1c-0.6-1.1-1.3-1.3-3.8-1.3
		c-3.5,0-4.3-1.2-1.6-2.4c0.9-0.4,1.6-1.3,1.6-1.9c0-0.7,0.6-1.7,1.3-2.3s1.3-1.5,1.3-1.9c0-0.4,0.7-1.3,1.6-1.8
		c0.9-0.6,1.6-1.6,1.6-2.5c0-0.8,0.4-1.8,0.9-2.3s0.9-1.7,0.9-2.9c0-1.4,0.4-2.4,1.4-3c1.6-1.1,3.1-6.1,2.6-8.6
		c-0.3-1.5-0.6-1.7-2-1.4c-0.9,0.3-2.8,1.6-4.2,3.1c-1.9,1.9-3.6,3-6.6,4c-4.9,1.6-6.6,2.6-11.5,7.4c-2.1,2-4.6,4.1-5.4,4.7
		c-0.9,0.6-2.5,2.9-3.6,5.1c-1.1,2.3-2.3,4.1-2.6,4.1c-0.3,0-0.6,0.4-0.6,0.8c0,0.4-1.3,1.3-2.9,2c-2,0.8-3.6,2.1-5.4,4.5
		c-1.9,2.5-3.1,3.5-4.9,4c-0.6,0.1-1.1,0.3-1.5,0.6v9.5C360.6,111.9,364.5,109.6,365.5,108.8z"/>
	<path fill="#68BFE5" d="M22,286.6c-0.6,0.4-0.1,1.4,1.8,3.4c1.4,1.6,2.6,3.5,2.6,4.2c0,0.9,0.6,1.3,1.9,1.6
		c3.2,0.6,4.3,5.2,1.2,5.2c-1.6,0-1.8,2.4-0.1,2.9c0.6,0.2,1.9,1.1,2.9,2.1c1.9,1.8,7,3.1,11.6,3.1c1.7,0,2.4,0.3,2.8,1.1
		c0.6,2.1,3.4,4.6,5.1,4.9c0.9,0.1,5.4,0.7,9.9,1.3c4.5,0.6,9.6,1.4,11.3,1.9c1.8,0.5,5.8,1.5,9.1,2.3s7,1.7,8.1,2.1
		c7,2.4,10.6,3.4,12.4,3.4c1.4,0,2,0.3,2,0.9c0,0.5,0.3,0.9,0.6,0.9c0.4,0,1,0.8,1.4,1.6l0.8,1.6l1.1-1.4l1.1-1.4l1.2,1.4
		c0.8,0.9,1.9,1.4,3.4,1.4c1.8,0,2.4-0.3,3.2-1.9c1.2-2.3,2.6-2.4,3.2-0.3c0.4,1.8,1,1.9,2.1,0.6c1-1.2,2.5-1.3,2.5-0.1
		c0,1,1.5,1.8,2.2,1.1c0.3-0.3,2.4-0.4,4.9-0.5c2.5,0,5.1-0.4,5.9-0.8c2.3-1.3,6.6-0.9,7.5,0.5c0.7,1,1.1,1.1,2.6,0.6
		c2.7-0.9,7.6-5.4,8.6-7.9c0.8-1.9,1.1-2.1,3.6-2.1c3.3,0,5.6-1.8,5.1-3.8c-0.3-0.9,0.1-1.3,1.3-1.6c0.8-0.3,1.9-0.1,2.3,0.3
		c0.9,0.9,2.3,0.9,2.3-0.1c0-1.1,4.6-6.1,5.5-6.1c0.4,0,1.1,0.6,1.6,1.3c1.6,2.3,5.9,0.1,5.3-2.6c-0.3-1.3,4.1-0.8,4.8,0.5
		c0.4,0.6,1.4,2,2.4,3.2l1.8,2.1l1.4-1.4c0.8-0.8,1.5-1.9,1.5-2.4c0-1.3,4.6-4.6,6-4.3c0.6,0.1,1.6,0.9,2.3,1.9
		c1.1,1.4,1.1,1.9,0.4,2.7c-0.4,0.5-0.6,1.1-0.4,1.3c0.4,0.4,8.3-1.4,9.9-2.3c0.9-0.6,2.4-3.1,3.7-6.7c0.8-2.3,1.9-2.2,3,0.2
		c0.4,0.8,0.9,1.5,1.2,1.5c0.3,0,1.4-1.2,2.6-2.6c1.6-1.9,1.9-2.7,1.4-3.3c-1.2-1.2-0.8-2.3,1.2-3.5c1.8-1.1,1.8-1.2,0.8-2.1
		c-1-0.9-1.2-0.8-3.1,1.4c-1.1,1.3-2,3-2,3.7c0,1.7-2.5,1.9-2.5,0.2c0-0.6-0.4-1.6-0.9-2.3c-0.5-0.7-0.8-1.8-0.6-2.7
		c0.3-1.1-0.1-1.8-1.6-3.1c-2.2-1.9-2.4-3-0.9-3.6c0.9-0.4,0.9-0.5-0.1-1.7c-0.6-0.7-2.3-1.8-3.8-2.4c-2.9-1.3-3-1.4-2.1-3
		c0.4-0.6,0.8-1.8,1-2.8c0.4-1.9,1.6-2.2,2.8-0.8c0.4,0.5,1.1,0.8,1.6,0.6c0.7-0.3,0.8-0.6,0.3-1c-1.3-1.3-0.7-2.8,1.6-4.5
		c1.6-1.2,2.1-1.9,1.6-2.4c-0.4-0.4-1.1-0.4-2.3,0.1c-1.8,0.8-2,0.4-0.6-1.2c1.4-1.5,0.6-2.4-2-2.4c-2.4,0-2.5-0.3-1.2-3.3
		c0.8-1.9,0.8-2.3-0.1-2.6c-0.6-0.2-1.6-0.2-2.5,0c-1.1,0.3-1.5,0.1-1.5-0.6c0-0.6-0.6-1-1.6-1c-1.4,0-1.5-0.1-0.8-1.6
		c0.4-0.9,1.4-2,2.2-2.5c0.9-0.6,1.4-1.6,1.4-2.6c0-0.9,0.8-3.4,1.8-5.5c1.2-2.5,1.6-3.6,1.4-4.8h-4.8H197h-35.9h-11.9H40.7
		c0.1,0.4,0.3,0.9,0.8,1.2c0.5,0.4,1.8,0.9,2.9,1.1c1.4,0.3,2.1,0.9,2.3,1.9c0.3,0.9,0.8,1.5,1.6,1.5c1.1,0,1.3,0.3,0.9,1.9
		c-0.2,1.1-0.4,2.7-0.4,3.6c0,1.4-0.7,2.1-3.6,3.8c-4.7,2.9-5.9,4.3-5.7,6.6c0.2,1.7-0.1,1.9-2.1,2.4c-1.4,0.4-2.6,1.2-3.3,2.4
		c-1,1.6-1.3,1.8-3.3,1.5c-3.9-0.6-5.6,0.1-7,2.9c-1.3,2.9-1.3,4.9,0.2,4.4c0.5-0.2,0.9,0.1,0.9,0.7c0,0.6-0.4,1-1,1
		c-0.5,0-0.8,0.3-0.6,0.6c0.3,0.4-0.3,1.5-1.2,2.6c-1.9,2.3-2,3.2-0.6,4.6C22.5,285.9,22.5,286.3,22,286.6z"/>
	<path fill="#68BFE5" d="M563.8,435.8c1,0,3.6-3.8,3.6-5.3c0-1.4-1.5-2.7-2.8-2.4c-3,0.6-4.1,1.6-4.1,3.8
		C560.6,434.1,561.9,435.7,563.8,435.8z"/>
	<path fill="#68BFE5" d="M405.5,371.6c-0.5-1.3-4.2-1.3-5.3-0.1c-0.4,0.5-1.3,0.9-1.8,0.9c-1.3,0-2.6,1.2-2.6,2.4
		c0,1.4,5.1,12.7,5.7,12.7c1.1,0,5.6-7.1,5.6-8.8c0-0.4-0.9-0.5-2.5-0.3c-1.4,0.3-2.5,0.2-2.5,0c0-0.3,0.8-1.3,1.9-2.4
		C405.9,374,406.1,373.3,405.5,371.6z"/>
	<path fill="#68BFE5" d="M434.7,438.3c0.9,0,1.4-0.9,2.3-3.8c1.6-5.3,3.9-4.9,3.9,0.6c0,1.3,1.4,3.1,2.6,3.2c0.9,0,1.8-3.4,1.8-6.6
		c0-3.2-0.1-3.4-1.5-3.4c-0.8,0-2.3-0.4-3.3-0.9c-2.3-1.2-3.4-1.2-5,0c-0.9,0.6-1.6,2.1-2.1,4.7C432.6,436.4,433,438.3,434.7,438.3z
		"/>
	<path fill="#68BFE5" d="M440.3,104.8c0-2.6-1.7-6.7-2.8-7c-0.3-0.1-2.1,0.8-3.9,1.9c-1.8,1.1-4.2,3-5.3,4.2
		c-1.1,1.2-3.1,2.9-4.3,3.9c-1.3,0.9-3.1,3.1-4,4.6c-0.9,1.6-2.6,4-3.8,5.3c-1.1,1.3-2.4,3.5-2.8,4.9c-0.5,1.9-2.1,4.1-6,8.1
		c-2.9,3-5.3,5.9-5.3,6.4s0.6,1.7,1.3,2.6c0.9,1.1,1.2,2.1,0.9,3.2c-0.3,1.1-0.1,1.7,0.9,2.2c1.1,0.6,1.7,0.4,3.6-0.9
		c1.3-0.9,2.7-1.6,3.1-1.6c1.4,0,4.8-2,7-4.3c5.3-5.2,8-7.6,9-7.6c0.5,0,1.9-1.1,2.9-2.5c1.6-2,2.4-2.5,4.1-2.5
		c1.9,0,2.1-0.1,2.1-2.1c0-2.6,2.1-6.4,3.7-6.8c0.9-0.2,1.1-0.7,0.9-1.8c-0.3-1.4,0-1.6,1.8-2l2.1-0.4l-2.6-2.7
		C440.7,107.6,440.3,106.8,440.3,104.8z"/>
	<path fill="#FFFFFF" d="M557.4,288c0-0.1,0.1-0.1,0.1-0.2l0.2-1c0-0.5,0-1.1-0.1-1.7l-0.4,0.4l-0.1-2l-1.1,2l-0.4-2.2l-0.5,0.6
		l-0.5-1.9c-0.5-0.1-1.6,0.3-2.5,0.9l-1.8,1.1l1.3,1.3c0.7,0.7,1.6,1.9,2,2.6C554.5,289.6,556.5,289.6,557.4,288z"/>
	<path fill="#FFFFFF" d="M521.8,248.3c-1.4-1.3-4.3-1.3-6.5-0.1c-2.1,1.1-2.8,3.5-1.8,5.6c0.6,1.3,1.1,1.5,3.4,1.5
		c2.6,0,2.9-0.2,4.4-2.5C523.3,249.9,523.3,249.6,521.8,248.3z"/>
	<path fill="#D21034" d="M539.3,207.5c1.8,1.8,1.9,1.8,3.1,0.6c0.7-0.6,1.3-1.9,1.3-2.9c0-0.9-0.1-1.3-0.4-1.5
		c-1.5,0.2-3.2,0.6-4.8,1C537.5,205.6,537.6,205.8,539.3,207.5z"/>
	<path fill="#FFD100" d="M538.4,204.5C538.4,204.6,538.4,204.6,538.4,204.5c1.6-0.3,3.2-0.7,4.8-0.9c-0.3-0.2-0.8-0.2-1.6-0.2
		C540.3,203.4,539,203.9,538.4,204.5z"/>
	<path fill="#00A651" d="M555.6,283.3l0.4,2.2l1.1-2l0.1,2l0.4-0.4c-0.2-1.4-0.8-2.8-1.4-2.8c-0.3,0-0.9-0.1-1.4-0.3
		c0,0-0.1,0-0.2,0l0.5,1.9L555.6,283.3z"/>
	<path fill="#00A651" d="M557.7,286.8l-0.2,1C557.6,287.5,557.7,287.2,557.7,286.8z"/>
	<path fill="#002868" d="M10.6,170.1c0.6,0,5.7-7.5,5.7-8.3c0-0.4,0.4-1.2,0.9-1.6h-3.1c-0.2,0.3-0.4,0.8-0.4,1.2
		c0,0.6-0.7,1.9-1.5,2.9C11,165.9,9.7,170.3,10.6,170.1z"/>
	<path fill="#002868" d="M19.2,160.4c0.7,1,0.8,1,1.2-0.2H19C19,160.3,19.1,160.3,19.2,160.4z"/>
	<path fill="#002868" d="M149.2,194.3c-0.1-0.1-0.3-0.3-0.5-0.5c-0.6-0.9-0.9-0.9-1.5-0.2c-0.6,0.6-2.3,0.9-7.1,0.8
		c-3.5-0.1-6.8-0.3-7.1-0.6c-0.6-0.4-0.8-0.1-0.8,0.9c0,2.1-3.1,6.1-5.4,7.1c-1.1,0.5-2.1,1.2-2.1,1.5c0,0.9-4.1,0.9-6.8-0.1
		c-1.9-0.8-2.3-0.7-3.2,0.6c-1,1.2-1.2,1.3-2.7,0.3c-1.5-0.9-1.8-0.9-3.4,0.4c-1.2,0.9-1.9,1.1-2.4,0.7c-0.3-0.3-1.6-0.6-2.8-0.6
		l-2.3-0.1l1.6-1.4c1.3-1.1,1.6-2.1,1.8-4.7c0-0.6,0.1-1.1,0.1-1.5l-9.4,6.3c1.1,2.4,0.8,3.2-1,3.2c-1,0-2.2-0.3-2.7-0.6
		c-0.1,0-0.1-0.1-0.2-0.1l-1.1,0.7c0.1,0.3,0.4,0.7,0.7,1.1c1.3,1.6,1.3,1.7,0.1,1.9c-1.4,0.3-3.9,2.6-3.9,3.6
		c0,1.5-1.4,1.7-3.1,0.4c-0.5-0.4-1.5-0.8-2.5-1.2l-39.2,26.3c0,0.2-0.2,0.3-0.5,0.3l-1,0.7c0,0.2,0,0.3,0,0.5h108.5V194.3z"/>
	<path fill="#002868" d="M1.3,186.5c0.6,0,1.4-0.4,1.8-1.1c0.6-0.9,0.6-0.9,1,0.3c0.3,0.7,0.1,2-0.3,2.9c-0.9,2.6-0.8,2.9,1.6,2.9
		c2.5,0,2.8-0.8,1.3-4.9c-0.8-2.2-0.8-2.7,0-3.8c0.6-0.8,0.8-1.9,0.5-3c-0.7-2.8-0.9-2.9-2.8-1.1c-1,0.9-1.8,1.4-1.8,1.1
		c0-0.4-0.4-1.1-0.8-1.8C0.9,177,0.8,177,0.4,178c-0.3,0.6-0.4,2.8-0.4,4.8C0,186.1,0.1,186.5,1.3,186.5z"/>
	<path fill="#002868" d="M213.7,240.3c-0.1-0.4-0.2-0.8-0.3-1.3c-0.6-1.7-1.4-2.6-3.8-3.8c-0.2-0.1-0.4-0.2-0.7-0.3v5.5H213.7z"/>
	<path fill="#002868" d="M334.8,191.5c1.6-3.1,1.7-3.8,1.4-8.5c-0.1-2.8-0.5-5.4-0.7-5.8c-0.6-0.9-5-0.8-7.8,0.1
		c-2.4,0.8-3.1,2.6-2.1,5.6c0.5,1.3,0.6,4.3,0.3,9.1l5.8,3.9C332.9,194.8,333.7,193.5,334.8,191.5z"/>
	<path fill="#002868" d="M227.9,228.2c0.4-0.5,0.7-1.4,0.4-1.9c-0.4-1-1.4-1.3-1.8-0.5c-0.1,0.3-0.1,1.2,0.1,2
		C227,229.1,227.2,229.1,227.9,228.2z"/>
	<path fill="#002868" d="M272.9,227.8c-0.3,0-0.6,0.7-0.9,1.6c-0.3,1.2,0.3,2.6,2,5.4c2.6,4.1,4.5,5.6,3.7,2.9
		C276.9,235,273.4,227.8,272.9,227.8z"/>
	<path fill="#002868" d="M357.9,80c0.1-0.4,0.1-0.7,0-1.1c-0.1-0.4,0-1,0.1-1.5V32.9c-0.2-0.1-0.4-0.2-0.6-0.6
		c-0.4-0.5-1.2-1.1-1.8-1.3c-0.6-0.2-1.1-0.9-1.1-1.6c0,0,0-0.1,0-0.1l-1.3,0.9c-0.1,1.6,0,3.6,0.4,4.3c0.8,1.4-0.1,2.1-1.3,1.1
		c-0.6-0.5-0.9-1.4-0.7-2.6c0.1-0.7,0-1.2-0.1-1.5l-2.5,1.7c0.4,0.4,0.6,0.9,0.7,1.4c0.3,1.1,0.2,1.3-1.3,0.9
		c-0.6-0.2-1.3-0.4-1.7-0.7l-9.3,6.2c0.2,0.6-0.5,0.9-1.3,0.9l-2.7,1.8c0,0.8,0.1,1.5,0.4,1.7c0.4,0.4,0.7,1.3,0.6,1.9
		c0,1.3-0.1,1.3-1-0.1c-0.5-0.8-1.2-1.4-1.4-1.4c-0.3,0-0.7,0.6-0.9,1.4l-0.4,1.4l-0.7-1.4c-0.2-0.4-0.4-0.7-0.5-0.9l-3.9,2.6
		l2.3,2.5c1.3,1.4,2.3,2.6,2.3,2.8c0,0.2-1,0.3-2.2,0.3c-1.3,0-2.1-0.3-2-0.7c0.1-0.4-0.4-1-1-1.4c-0.9-0.6-1.3-0.6-1.9,0.2
		c-1.4,1.7-3.8,2.6-6.6,2.3L278.9,80H357.9z"/>
	<path fill="#002868" d="M357.1,27.5c0,0.4,0.3,1.1,0.9,2.3v-2.9L357.1,27.5z"/>
	<path fill="#002868" d="M240.2,234.5c-2,1-3.7,3.4-4.4,5.8h13.1c-0.3-1.7-0.8-2.6-2.1-4.2C244.6,233.3,243.4,233,240.2,234.5z"/>
	<path fill="#002868" d="M268.8,209.9c0.6-0.5,0.9-1.2,1-1.9l-2.9-2c-0.7,1-1.3,2.4-1.3,3.2C265.6,210.7,267.5,211,268.8,209.9z"/>
	<path fill="#FFFFFF" d="M103.3,195.9c-0.8,0.4-1.6,1.4-2,2.3c-0.6,1.4-1.1,1.6-2.7,1.3c-2.8-0.6-4.6,1.4-3.6,3.8
		c0,0.1,0,0.1,0.1,0.1l9.4-6.3C104.6,195.3,104.3,195.3,103.3,195.9z"/>
	<path fill="#FFFFFF" d="M79.3,211.9c-2.8-0.4-3.2-0.3-4.2,0.9c-1,1.4-1.1,1.4-2.6,0.4c-1.4-0.9-1.6-0.9-2.6,0.2
		c-0.6,0.7-1.6,1.4-2.2,1.6c-0.6,0.2-1.4,1.1-1.8,1.9c-0.9,1.9-2.8,2-3.6,0.2c-0.1-0.2-0.2-0.3-0.3-0.4l-2.7,1.8
		c-0.3,1.3-0.5,2.9-0.5,4.5c0,1.7-0.3,3.1-0.8,3.4c-0.4,0.3-1.1,1.1-1.5,1.7c-0.3,0.7-1.9,1.6-3.4,2.1c-2.9,0.9-5.7,2.9-6.4,4.8
		c-0.4,0.9-0.9,1.1-2.9,0.8c-2.6-0.4-3,0-1.9,2.2c0.2,0.4,0.3,0.7,0.3,0.9l39.2-26.3C80.8,212.2,80,212,79.3,211.9z"/>
	<path fill="#FFFFFF" d="M326.9,47.1l-1.4,1.5l0,0l3.9-2.6C328.9,45.3,328.4,45.6,326.9,47.1z"/>
	<path fill="#FFFFFF" d="M90.2,206.6l1.1-0.7C90.2,205.2,89.8,205.6,90.2,206.6z"/>
	<path fill="#FFFFFF" d="M41.7,239.1c-0.5,0-0.8,0.3-0.9,0.7l1-0.7C41.7,239.1,41.7,239.1,41.7,239.1z"/>
	<path fill="#FFFFFF" d="M286.7,24.8c-1.3,1.4-1.4,3.3-0.2,3.3c0.4,0,1.6-0.6,2.5-1.3c1.3-1.1,1.5-1.5,0.9-2.2
		C288.9,23.3,287.9,23.4,286.7,24.8z"/>
	<path fill="#FFFFFF" d="M267.7,205.2c-0.3,0.2-0.5,0.5-0.8,0.8l2.9,2C270.1,206.1,269.2,204.1,267.7,205.2z"/>
	<path fill="#FFFFFF" d="M278.9,80l37.5-25.2c-0.1,0-0.2,0-0.3,0c-1.6-0.3-3-0.1-3.4,0.3c-0.5,0.5-0.8,0.4-1.1,0
		c-0.3-0.4-1-0.7-1.7-0.7s-2.1-0.4-3-0.9c-0.4-0.2-0.7-0.4-1-0.4l-40.2,27H278.9z"/>
	<path fill="#FFFFFF" d="M331.7,195.9L326,192c0,0.1,0,0.3,0,0.4l-0.4,7.5l2.4-1.4C329.6,197.5,330.8,196.7,331.7,195.9z"/>
	<path fill="#FFFFFF" d="M212.2,78.8c-0.6,0-1.1,0.4-1.1,0.9c0,0.1,0,0.2,0.1,0.3h1.1l4-2.7c-0.8,0.2-1.5,0.3-1.7,0.5
		C213.9,78.3,212.8,78.8,212.2,78.8z"/>
	<path fill="#FFFFFF" d="M358,26.8c-0.7,0-1,0.2-0.9,0.7l0.9-0.6V26.8z"/>
	<path fill="#FFFFFF" d="M334.8,40.9c-0.7-0.9-0.8-0.8-1.3,1.3c-0.1,0.4-0.1,0.9-0.1,1.2l2.7-1.8C335.6,41.6,335.1,41.4,334.8,40.9z
		"/>
	<path fill="#FFFFFF" d="M346.2,34.1c-0.3-0.6-0.7-0.5-1.3,0.3c-0.8,0.9-0.9,0.9-2.3-0.1c-1.8-1.4-2.8-0.9-2.4,1.1
		c0.2,1.1-0.2,1.9-1.6,3.1c-1,0.9-1.6,1.8-1.4,2.2c0,0.1,0.1,0.1,0.1,0.2l9.3-6.2C346.4,34.4,346.3,34.2,346.2,34.1z"/>
	<path fill="#FFFFFF" d="M348.5,30.8c-1.6,0.4-1.6,0.4-0.4,1.3c0.3,0.2,0.6,0.5,0.9,0.9l2.5-1.7C351.1,30.5,350.1,30.4,348.5,30.8z"
		/>
	<path fill="#FFFFFF" d="M353.9,27.7c-0.4-0.2-0.7,1-0.8,2.4l1.3-0.9C354.5,28.6,354.2,28,353.9,27.7z"/>
	<path fill="#CE1126" d="M217.1,80c0.8-0.3,1.7-0.6,2.5-1c1.8-0.9,3.3-1.8,3.3-1.9c0-0.6-4.2-0.3-6.7,0.2l-4,2.7H217.1z"/>
	<path fill="#CE1126" d="M300.9,54.8c-4.7,2.5-8.7,3.5-13.9,3.6c-2.9,0.1-3.6,0.3-5.4,2.1c-1.9,1.9-2.2,2-3.7,1.3
		c-1.6-0.7-4.3-0.4-7.5,1c-0.8,0.3-1.1,0.1-1.1-0.6c0-1.6-2.4-1.2-4.1,0.7c-0.8,0.9-1.7,1.4-1.9,1.3c-0.6-0.7-2.1,0.9-2.1,2.2
		c0,0.6,0.4,1.3,0.9,1.6c0.8,0.3,0.5,0.7-1.1,1.9c-2.3,1.6-3.4,4.9-2.2,6.4c0.6,0.8,0.6,0.8-0.5,0.4c-0.7-0.3-1.8-0.7-2.3-0.8
		c-0.6-0.2-1.1-0.6-1.1-0.9c0-0.8-3.2-0.7-4.3,0c-0.6,0.4-0.8,1.3-0.6,2.8c0.2,1.4,0,2.2-0.5,2.2h16.2l40.2-27
		C304.9,52.7,304,53.2,300.9,54.8z"/>
	<path fill="#CE1126" d="M60.9,215.5c-0.5-0.2-1.2,1.1-1.6,2.9l2.7-1.8C61.7,216.1,61.3,215.6,60.9,215.5z"/>
	<path fill="#FFFFFF" d="M161.1,240.3v-49c-0.4-0.1-0.6-0.4-0.5-1.2c0.1-0.9-0.4-1.5-1.2-1.6c-0.7-0.1-1.5-0.6-1.8-1.1
		c-0.8-1.4-2.3-1.1-2.3,0.4c0,0.8-1.3,2.6-2.9,4.3c-2.1,2.1-2.7,2.6-3.2,2.2v46H161.1z"/>
	<path fill="#FFFFFF" d="M72.6,96.1C72.6,96.1,72.7,96.1,72.6,96.1c0-0.8-2-2.9-3.7-3.9c-0.7-0.4-0.8,0-0.6,2
		c0.1,0.8,0.2,1.3,0.1,1.9H72.6z"/>
	<path fill="#FFFFFF" d="M17.3,160.1c0.8-0.6,1.1-0.6,1.7,0.1h1.4c0-0.1,0.1-0.2,0.1-0.3c0.3-1.1,1.4-2.3,3.5-3.6
		c3.3-2,6.1-6.3,4.8-7.1c-0.6-0.4-1.1,0-3.4,3.2c-1.3,1.7-3.1,0.5-2.9-1.8c0.1-0.9,0.1-1.6-0.1-1.6c-0.2,0-1.3,1.1-2.5,2.4
		c-1.2,1.4-2.8,3.7-3.4,5.3c-0.7,1.5-1.6,3-1.9,3.2c-0.1,0.1-0.2,0.2-0.3,0.4L17.3,160.1C17.2,160.2,17.3,160.1,17.3,160.1z"/>
	<path fill="#FFFFFF" d="M208.9,240.3v-5.5c-1.6-0.8-3.2-1.5-3.9-1.7c-1.8-0.5-4.6-3.8-4.6-5.4c0-0.9-1.5-2.1-3.4-2.8v15.4H208.9z"
		/>
	<path fill="#FFFFFF" d="M265.7,80h-16.2c0,0-0.1,0-0.1,0c-0.4,0-1.1,1.2-1.5,2.6c-0.4,1.5-1.1,2.9-1.4,3.3
		c-0.4,0.4-0.4,0.1-0.2-0.7c0.7-2.3-0.2-3.4-2.8-3.4c-1.9,0-2.8,0.4-4.6,2.2c-1.2,1.3-2.2,2.6-2.2,3.1c0,0.5-1.6,1.6-3.4,2.5
		c-4.8,2.3-9.5,2.1-10.9-0.6c-1.2-2.1-2-2.3-2.9-0.4c-1.1,2.4-4,1.1-3.1-1.4c0.4-1.1-1.4-2.9-2.8-2.9c-1.6,0-5.3,1.3-6.3,2.3
		c-0.8,0.7-0.8,0.9,0.1,1.8c0.6,0.6,1.2,1.6,1.4,2.3c0.5,1.6,2,1.6,2.5,0c0.3-0.7,0.9-1.3,1.7-1.3c0.9,0,1.1,0.2,0.7,0.8
		c-0.3,0.4-1.1,2.1-1.7,3.8c-0.4,1.1-0.7,1.8-1.1,2.3h134.6c0.7-0.8,1.5-1.9,2.2-3c1.9-3,3.8-5,5.7-6.3c2.7-1.7,3.7-3.1,2.3-3.1
		c-0.3,0,0.1-0.8,0.9-1.6c0.7-0.8,1.1-1.4,1.2-2.1h-79H265.7z"/>
	<path fill="#FFFFFF" d="M211.1,80c0.5,0.9,3.2,0.9,6,0h-4.9H211.1z"/>
	<path fill="#CE1126" d="M48.2,117.3c-0.4,0.6-1.2,1.9-1.5,3c-0.5,1.5-0.9,1.9-2,1.8c-1.1-0.2-1.4,0.2-1.8,2c-0.6,3.1,1,5.1,1.9,2.3
		c0.2-0.7,0.8-1.3,1.3-1.3c1.1,0,3.4-2.3,3.4-3.4c0-0.5,0.3-1.1,0.6-1.3c0.9-0.5,0.8-1.8-0.2-3.1C49.2,116.3,49,116.3,48.2,117.3z"
		/>
	<path fill="#CE1126" d="M34.4,131.6c-1,1.3-0.6,3.8,0.8,4c0.8,0.1,1.1-0.2,1.1-1.1c0-0.8,0.5-1.5,1.3-1.7c0.7-0.2,1.3-0.8,1.3-1.2
		C38.8,130.4,35.4,130.5,34.4,131.6z"/>
	<path fill="#CE1126" d="M33.6,141.8c0.6-1.1,1.5-2.3,2-2.7c0.5-0.4,0.8-1,0.5-1.4c-0.6-0.9-1-0.9-2.4-0.1c-1.4,0.9-3.8,4.8-3.3,5.6
		C31.1,144.5,32.6,143.9,33.6,141.8z"/>
	<path fill="#CE1126" d="M57.9,107.3c-5,4.7-5.8,5.2-6.1,4.1c-0.4-1.6-1.7-1.8-1.7-0.2c0,0.6-0.4,1.5-0.8,1.9
		c-1.3,1.3,0.7,2.1,4.4,1.7c3.8-0.4,5.1-1.1,5.1-2.9c0-0.6,2.9-4.1,6.9-8.1c3.7-3.7,6.7-7.1,6.9-7.7h-4.2
		C68.1,97.6,66,99.6,57.9,107.3z"/>
	<path fill="#CE1126" d="M197,240.3v-15.4c-1.3-0.5-2.7-0.9-4-0.9c-1.6,0-3.1-0.6-4.5-1.6c-1.2-0.9-2.8-1.6-3.6-1.6
		c-1.3,0-1.4-0.1-0.8-0.9c0.6-0.8,0.6-0.9-0.3-0.9c-0.6,0-1-0.4-1-1s-0.6-1.1-1.3-1.3c-1.3-0.3-1.8-1.4-0.6-1.4
		c0.4,0,0.6-0.4,0.6-0.9c0-1.1-1.6-1.3-2.3-0.2c-0.3,0.5-0.6-0.3-0.8-2c-0.3-2.6-0.6-3-3.4-4.9c-3.9-2.6-5.8-2.4-7.8,0.5
		c-1.9,2.8-2.5,3-3.3,0.9c-1.1-3-0.8-5.7,0.9-6.8c2-1.3,2-3.2-0.1-7.5c-1.4-2.9-1.9-3.4-3-3.1c-0.3,0.1-0.6,0.1-0.8,0.1v49H197z"/>
	<path fill="#CE1126" d="M211,96.2c-0.4,0.5-0.8,0.7-1.2,0.7c-0.8,0-1.2,0.4-1.2,1.5c0,0.8-0.4,1.7-1,1.9c-1.6,0.6-1.7,0.4-0.8-0.6
		c0.7-0.9,0.6-1.1-0.4-1.9c-1.1-0.8-1.4-0.7-2.9,0.8c-0.9,0.9-1.9,2.2-2.1,2.8c-0.2,0.6-0.6,1-0.9,0.8c-0.9-0.6-1.2,2.5-0.3,3.9
		c0.5,0.8,1.1,2.5,1.3,3.9c0.3,2.1,0.7,2.6,2.2,2.9c2,0.4,6-0.6,7.5-2c1.9-1.6,8.3-0.9,9.3,1.1c0.4,0.8,0.3,1.7-0.4,3
		c-1,1.8-1,2,0.1,4.4c0.6,1.4,1.7,3,2.3,3.5c0.6,0.6,2.4,4.3,3.9,8.3c1.6,4,3.7,8.3,4.7,9.5l1.8,2.2l4.9-0.8
		c2.7-0.4,5.5-1.2,6.3-1.7c1.4-0.9,2-2.8,0.9-2.8c-0.9,0-2.6-1.9-2.3-2.6c0.3-0.3,0.9-0.6,1.6-0.6c1.4,0,2.4-2.2,2-4.5
		c-0.3-1.4-0.1-1.7,1.6-2.1c1.1-0.3,1.9-0.8,1.9-1.3c0-0.4,0.7-1,1.6-1.2c0.9-0.3,1.9-1.1,2.1-1.8c0.9-2.4,2.2-3.1,4.5-2.5
		c1.7,0.4,2.6,1.3,3.5,3.2c0,0.1,0.7-0.2,1.4-0.6c1.4-0.9,1.4-0.9,4.1,2.9c0.6,0.9,1.5,1.1,3.1,1.1c1.5-0.1,2.6,0.3,3.4,1.1
		c1.6,1.6,2.8,1.6,5.8,0c1.3-0.7,3-1.3,3.8-1.3c1.6,0,2.4-1.3,1.9-2.8c-0.3-0.6-1.3-0.9-2.8-0.9c-1.4,0-2.6-0.3-2.8-0.6
		c-0.8-1.2-1.5-0.6-1.9,1.6c-0.2,1.2-0.6,2.2-0.9,2.2c-0.9,0-0.9-0.2,4.1-10.6c1.1-2.3,4.6-4.4,7-4.3c1.7,0.2,2.1-0.1,3.8-3.4
		c1.3-2.5,2.4-3.8,3.6-4.2c0.9-0.4,2.3-1.6,3-2.8c1.7-2.9,4.5-4.6,8.7-5.1c2.9-0.4,4.1-0.2,7.6,1.3c2.3,0.9,4.9,2.4,5.9,3.5
		c1.1,1.1,2.4,1.8,3.5,1.8c1.9,0,3,1.1,1.8,1.9c-0.4,0.3-0.6,0.8-0.4,1.1c0.2,0.3-1.1,1.3-2.9,2.3c-1.8,0.9-4.3,2.7-5.4,3.9
		l-2.1,2.1l1.5,0.6c1.1,0.4,1.8,0.3,2.5-0.3c0.5-0.5,1.6-0.9,2.5-0.9c0.8,0,4-0.5,7.1-1.1c5.5-1.1,5.6-1.1,8,0.3
		c2.8,1.6,4.8,1.7,6.5,0.4c0.8-0.6,2.6-0.9,4.6-0.9c1.8,0,3.9-0.3,4.5-0.6c1.6-0.8,3.1-0.2,3.1,1.3c0,0.6,0.2,1.2,0.4,1.2
		c0.2,0,1.2-0.5,2.4-1.1v-9.5c-0.9,0.5-1.6,1.2-2.3,2.2c-1.6,2.5-1.7,2.6-3.1,1.3c-0.9-0.8-1.8-0.9-5.1-0.4
		c-2.1,0.4-4.1,0.6-4.2,0.4c-0.2-0.1,0.1-0.9,0.6-1.7c0.9-1.5,0.8-5.9-0.2-6.5c-0.9-0.5-0.7-1.5,0.3-1.5c0.2,0,0.8-0.5,1.5-1.4H211z
		"/>
	<path fill="#CE1126" d="M178.1,115.8c0.3-0.3,0.4-1.8,0.1-3.1c-0.4-2.2-0.6-2.6-1.6-2.3c-0.7,0.3-2.1-0.1-3.2-0.6
		c-2.4-1.2-2.4-1.2-2.4-0.1c0,0.4,0.4,1.2,0.9,1.6c0.5,0.4,0.8,1.1,0.6,1.4C172.2,113.8,177.3,116.5,178.1,115.8z"/>
</g>
</svg>
