<?xml version="1.0" encoding="utf-8"?>
<!-- Generator: Adobe Illustrator 17.1.0, SVG Export Plug-In . SVG Version: 6.00 Build 0)  -->
<!DOCTYPE svg PUBLIC "-//W3C//DTD SVG 1.1//EN" "http://www.w3.org/Graphics/SVG/1.1/DTD/svg11.dtd">
<svg version="1.1" id="flag-icon-css-fo" xmlns="http://www.w3.org/2000/svg" xmlns:xlink="http://www.w3.org/1999/xlink" x="0px"
	 y="0px" viewBox="0 0 640 480" enable-background="new 0 0 640 480" xml:space="preserve">
<g>
	<path fill="#FFFFFF" d="M455.8,57.4l4.4,0.3c2.4,0.2,4.9,0.5,5.5,0.7c1,0.4,1,0.3,1-3.6c0-4.5-0.4-5.1-3.5-5.5
		c-2.2-0.3-4.8-1.9-4.8-2.9c0-0.5-0.6-0.7-1.8-0.7c-1.4,0-2.2,0.4-3.5,1.6c-0.9,0.8-2.2,2.6-2.7,3.8c-0.5,1.2-1.4,2.8-1.9,3.6
		c-0.8,1.2-1.2,1.4-3.7,1.4c-2.6,0-2.8,0.1-4.4,2c-2.3,2.7-2.3,4.6,0,7.6c0.9,1.2,1.9,2.2,2.1,2.2c0.9,0,1.8,2.7,2,6.5
		c0.2,3.4,0.4,4.1,1.5,5.1l1.2,1.2l3-1.5c1.7-0.8,3.7-1.5,4.6-1.5c0.8,0,2.2-0.2,3-0.5l1.5-0.5v-4.2c0-3,0.2-4.5,0.7-5.3
		c1-1.5,0.5-2.7-2.1-4.7c-1.2-1-2.4-1.9-2.6-2.1c-0.2-0.2-0.2-0.9,0-1.6L455.8,57.4z"/>
	<path fill="#FFFFFF" d="M393.9,70.8c1.9,0.9,2.4,1,4.3,0.5l2.1-0.5l0.5-3.2c0.5-3,0.5-3.3-0.7-6c-0.7-1.6-1.8-5.1-2.3-7.8
		c-0.9-4.4-1.5-5.9-6.1-14.5l-5.1-9.6l0-5.1c0-5.9-0.1-5.9-4.4-7.7l-2.2-0.9l-1.4,1.9c-1.3,1.8-1.4,2.1-1.1,4.8
		c0.1,1.6,0,4.3-0.3,5.9c-0.3,2-0.4,3.6,0,4.6c0.2,0.9,0.6,3.2,0.7,5.1c0.2,3.1,0.6,4.1,2.8,8c1.4,2.4,3.1,6.5,4,9.1
		c0.8,2.6,2.8,6.7,4.4,9.5C391.4,69.2,392,69.9,393.9,70.8z"/>
	<path fill="#FFFFFF" d="M394.4,84.4c0,3.2,0.1,3.7,1.5,5.5c0.8,1.1,2.8,4.2,4.3,6.9c1.5,2.7,3.6,5.9,4.6,7c1,1.1,2.6,3.4,3.5,5.1
		c1.5,2.8,3.5,4.4,4.2,3.7c0.2-0.2,0.4-1.7,0.5-3.5c0.2-3.1,0.1-3.2-2.1-6.5c-2-2.8-2.3-3.6-2.1-5c0.1-1.1-0.1-2.2-0.6-2.9
		c-0.4-0.7-0.7-2.1-0.7-3.4c0-1.6-0.3-2.5-1-3.3c-0.9-1-0.9-1.2-0.3-1.8c0.7-0.7,0.8-0.6,1.9,0.8c2.1,2.8,3.1,4.8,3.5,6.7
		c0.5,2.8,2.8,6.5,4.8,7.8c1,0.7,2.2,2,2.6,3.1c1.1,2.3,2.5,2.9,7.9,2.9h3.6l1.2-1.7c1.5-2.2,1.5-2.2,0-4.4
		c-1.2-1.7-1.2-1.7-0.7-6.7c0.4-3.7,0.4-5.1,0-5.7c-0.3-0.3-2.1-1.2-4-2c-3-1.2-4-1.8-6.9-4.9c-3-3-3.7-4.1-5-7.4
		c-0.8-2.2-1.4-4-1.3-4.1c0.1-0.1,0.8,0,1.5,0.4c0.8,0.3,2.2,1.6,3.5,3.4c1.2,1.5,3.3,3.8,4.8,5l2.7,2.1l4.4-0.7l4.4-0.7l0.6-1.9
		c0.4-1,0.7-3.4,0.9-5.3c0.2-3.1,0.2-3.5-0.8-4.5c-0.7-0.7-1.6-1.2-2.4-1.2c-1,0-1.5-0.4-2.3-1.8c-0.9-1.5-1.5-2-4.2-2.8
		c-3-1-3.2-1.2-6.7-5.5c-2-2.4-3.6-4.4-3.5-4.4c0.1,0,1.9,0.7,4.1,1.6c6.2,2.5,13.5,5,14.7,5c1.3,0,1.4-0.5,0.7-3.5
		c-0.4-1.8-0.3-2,2.4-5.8l2.8-3.9l-3.7-4.1c-4.7-5.1-6-6.4-6.3-5.9c-0.1,0.2-0.5,1.6-0.8,3.1c-0.5,2.5-2.5,6.4-3.2,6.4
		c-1.2,0-1.4-1.4-1.1-5.9c0.3-5.8-0.5-8.6-2.7-9.5c-0.9-0.3-1.9-1.6-3.5-4.2c-2.1-3.6-2.2-3.8-2.2-7.8c0-4,0-4.2-2.5-9.1
		c-2.3-4.4-2.8-5.2-5-6.6c-1.3-0.8-3-1.6-3.7-1.8c-1.2-0.2-1.5,0-2.4,1.6c-0.6,1-1.7,2.2-2.6,2.6c-1.4,0.7-1.6,0.9-1.6,2.5
		c0,2.2,1.9,4.2,5.7,5.9c1.5,0.7,3,1.7,3.5,2.4c0.7,1.2,0.7,1.5,0,5.6l-0.8,4.4l2.3,7.2c1.3,3.9,2.2,7.3,2.2,7.3
		c-0.3,0.2-2.2-2.7-4.6-6.9c-2-3.4-2.3-4.4-2.5-7.3c-0.4-4.7-1.3-7.1-3.1-7.7c-0.8-0.3-1.8-0.5-2.2-0.5c-1.4,0-3.7,3.3-4.7,6.7
		c-0.3,1.1-0.1,2,1.2,4.6c0.9,1.8,1.6,3.8,1.6,4.7c0,0.8,0.7,3.2,1.4,5.4c1.4,3.9,1.4,4.2,1.4,12.3c-0.1,8,0,8.3,1.1,11
		c1.1,2.4,1.2,3,0.8,4.9c-0.3,1.1-1,3.1-1.6,4.3c-1.1,2.1-1.1,2.3-0.5,5.2c0.8,3.7,0.8,4.3,0.1,4.1c-0.3-0.1-0.8-1.3-1.1-2.5
		l-0.5-2.3l-3.3,0.2c-1.8,0.1-3.4,0.2-3.5,0.3c-0.1,0.1,0.2,1,0.6,2.1C394.1,80.2,394.4,82.3,394.4,84.4z"/>
	<path fill="#FFFFFF" d="M296.5,135.6c0.9,0.3,3,0.5,4.8,0.5h3.1l3.1,3.4c2.1,2.3,3.3,4.1,3.7,5.6c0.4,1.2,1.1,3,1.7,4.1
		c0.9,1.8,1,2.6,0.9,10l-0.1,8l1.3,0.4c0.9,0.3,1.4,0.9,1.7,2.5c0.7,2.7,1.9,3.3,5.2,2.6c5.9-1.3,5.7-1.3,7.3,2.1
		c1.3,2.6,1.6,3.9,2,8.6l0.3,3.2h33c0.6-0.8,1.1-1.3,1.7-1.6c1.6-0.8,1.7-1.2,0.7-3.9c-0.7-1.9-0.7-1.9,0.5-2.2l1.2-0.3l-0.9-1
		c-0.5-0.5-1.4-2.8-1.9-5l-1-4l-2.3-0.6c-1.3-0.3-2.6-0.9-2.9-1.3c-0.5-0.7-0.9-0.7-5.1,0.2l-4.6,1l-4-2.1c-2.7-1.4-4.4-2-5.2-1.8
		c-0.8,0.1-1.5-0.1-2.2-0.9l-1.1-1.2l2.1-0.3c1.8-0.3,2.5-0.1,4.9,1.1c1.5,0.8,3.2,1.5,3.6,1.5c0.4,0,2.6-1.5,4.8-3.4
		c2.2-1.9,4.2-3.5,4.3-3.5c0.1-0.1-1.7-4-4-8.8c-4.1-8.5-4.2-8.6-6-9.2c-1-0.3-2.9-1.2-4.2-1.9c-2.9-1.6-4-1.5-6.9,1.4
		c-2,2-2.3,2.1-4.9,2.2c-2.2,0-2.8-0.1-2.9-0.7c-0.1-0.6,0.3-0.8,1.7-1.1c1.5-0.2,2.2-0.7,3.6-2.4c1.3-1.6,2-2.1,3.1-2.1
		c0.7,0,2.3-0.6,3.4-1.3c1.8-1.1,2.1-1.5,2.1-3c0-1.4-0.4-2.3-1.6-3.8c-0.9-1.1-2-3-2.4-4.2c-0.5-1.5-1.2-2.4-2.1-3
		c-0.7-0.4-2.5-1.4-3.8-2.2l-2.4-1.5l1.4-0.5c2.9-1.1,3.7-1,7,0.8c3.1,1.7,3.4,2,5.4,5.8c3.4,6.3,6.7,10.9,10.3,14
		c2.1,1.9,3.9,3.9,4.8,5.7c1,1.7,2.3,3.4,3.7,4.4l2.2,1.6l0.3-3.6c0.3-2.9,0.6-3.9,1.7-5.6c1.7-2.4,1.7-2.6,0.5-9.5
		c-0.8-4.9-1.2-6-4-11.4c-2.8-5.3-3.6-6.6-8-11.1c-4.6-4.9-5.8-6.6-5.8-9c0-0.5,0.4-0.8,0.8-0.8c0.6,0,1.8,1.4,3.5,3.9
		c1.9,2.9,3.4,4.5,5.7,6.1c2.9,2.2,3.2,2.5,7.1,9.8c3.4,6.5,4,7.9,4,9.9c0,1.3,0.5,4.3,1.2,6.7s1.2,4.6,1.2,4.8
		c0,0.2-0.7,0.4-1.5,0.5c-1.4,0.1-1.5,0.3-2.1,2.3c-0.5,1.8-0.4,2.3,0.1,2.8c0.4,0.4,0.7,1.3,0.6,2.5c-0.1,1.6,0.6,3.4,4,10l4,8.1
		h1.8c1,0,2-0.2,2.2-0.5c0.2-0.3,0.3-2.3,0.3-4.6c0-2.2,0.3-5.1,0.6-6.5c0.5-2,0.5-3,0-5.9c-0.9-5.3-0.9-5.4,0.7-4.2
		c2.1,1.5,5.6,0.9,8.4-1.3c1.2-0.9,2.2-1.7,2.3-1.8c0.4-0.2-3.9-6.3-5.1-7.2c-0.7-0.6-1.3-1.6-1.5-2.4c-0.2-1.4-0.6-1.6-4.1-3.1
		c-3-1.2-3.9-1.8-3.9-2.5c0-0.9,0.2-0.9,5.3-0.7c5,0.3,5.5,0.4,9.9,2.5c6.9,3.2,6.6,3.1,6.9,1.8c0.2-1-0.2-1.4-4.1-3.3
		c-3-1.5-5.3-3.2-7.8-5.6c-2.9-2.8-4-3.5-6.6-4.4c-2.4-0.8-3.6-1.5-5.6-3.5c-1.6-1.7-3-2.6-4-2.8c-2.2-0.4-5.4-4-5.4-6.1
		c0-0.9,0.2-1.8,0.5-1.9c0.3-0.1,0.5-0.9,0.5-1.6v-1.3l5.3,1.6c2.9,0.9,8,2.9,11.3,4.4l6.1,2.7l0.8-1c0.6-0.7,0.7-1.5,0.6-2.9
		c-0.1-1-0.4-3-0.6-4.5l-0.3-2.6l-7.9-3.2c-7.9-3.2-8-3.3-10.5-6.2c-3-3.4-3.7-3.6-7.3-1.6c-4.1,2.3-4.3,2.3-7-0.2
		c-2.2-2-4.4-5.3-4.5-6.5c0-0.3,0.7,0.2,1.6,1.1c1.8,1.8,2.5,1.7,6-0.6c1.8-1.2,2.3-1.8,2.7-3.5c0.3-1.1,0.4-2.7,0.2-3.5
		c-0.4-2.4-3.3-5.1-7.4-7.3l-3.8-1.9l-4.1,1.6c-2.2,0.9-4.2,1.6-4.4,1.6c-0.1,0-0.2-0.5,0-1.1c0.1-0.6,0.5-2.2,0.8-3.7
		c0.5-2.6,0.6-2.7,2.6-3.2c2.9-0.7,2.9-2.1-0.3-4.5l-2.3-1.8l-2.4,1c-1.6,0.7-3.5,1-5.3,1c-2.6,0-2.9,0.1-3.8,1.4
		c-0.8,1.1-1.4,1.4-3.7,1.6c-1.5,0.2-2.9,0.5-3.2,0.7c-0.3,0.2-0.8,2-1.3,4c-0.7,3.3-2,6.3-2.5,5.8c-0.1-0.1,0.2-2.1,0.6-4.4
		l0.8-4.2l-1.3-3.4l-1.3-3.4l3.3-3c2-1.8,4.7-3.7,6.6-4.6c1.8-0.8,3.2-1.7,3.2-1.8c0-0.1-2-1.7-4.3-3.5c-2.4-1.8-5.7-4.5-7.3-6.1
		c-2.9-2.8-3-2.9-5.4-2.9c-1.8,0-2.8,0.3-3.6,0.9c-0.7,0.6-1.8,0.9-3.1,0.9c-2,0-2.1,0-2.6,2.1c-0.4,1.5-1.1,2.7-2.9,4.3
		c-2.1,2-2.9,2.4-6,3.2l-3.6,0.9l-2-1.6c-0.5-0.4-1.1-0.8-1.5-1.2v10.3l2.3,0.4l-0.1,2.2c-0.1,1.8,0.2,2.6,1.5,4.8
		c1.4,2.1,1.7,3.1,1.7,4.9c0,2,0.3,2.7,2.1,5.1c2.1,2.7,2.1,2.7,2.1,6.4c0,2.8,0.2,3.7,0.7,3.9c0.4,0.1,1.3,1.6,2.1,3.3
		c1.5,3.1,3,5.5,5.3,8c1.1,1.2,1.6,2.6,2.7,7.2c0.7,3.1,1.4,5.8,1.5,5.9c0.1,0.1,1.1,0.6,2.3,1.1c1.8,0.7,2.3,1.3,3.3,3.4
		c0.7,1.6,2,3.3,3.6,4.6c2.1,1.8,2.4,2.3,2.3,3.7c0,0.9-0.1,1.2-0.3,0.7c-0.3-1.5-5.9-6.1-11.9-10c-4.4-2.8-5.5-3.7-5.5-4.6
		c0-0.7,0.3-1,1.1-1c1.4,0,2.1-0.5,2.6-1.9c0.4-1.1,0-1.8-3.7-7.3c-5.9-8.6-9.4-15.6-11.1-22.7c-1.1-4.7-1.8-6.4-4.2-10.6
		c-0.1-0.2-0.2-0.3-0.2-0.4v79.9C295.1,135.4,296.1,135.5,296.5,135.6z"/>
	<path fill="#FFFFFF" d="M382.4,183.1c-1.2-0.6-2.1-0.9-2.1-0.8c0,0,0.7,2,1.4,4.2c0,0.1,0.1,0.2,0.1,0.3h3.5
		C384.6,184.2,384.3,183.9,382.4,183.1z"/>
	<path fill="#FFFFFF" d="M372.9,77.5l5.1,4.1c2.8,2.2,5.2,4.1,5.4,4.1c0.2,0,0.9-1,1.6-2.2c1-1.9,1.3-2.9,1.4-6.2l0.1-3.9l-2.3-1.5
		c-2.7-1.8-3.7-3.9-5.6-11c-1-3.9-2.3-6.9-7.5-16.9l-6.3-12.2l-0.7-5.7l-0.7-5.8l-1.7-1.1c-0.9-0.6-2.6-2.5-3.7-4.2
		c-1.8-2.8-2.2-3.1-3.6-3.1h-1.6v2.9c0,3.7,3.4,16.9,6.6,25.6c2.8,7.6,7.9,16.9,11.6,20.9l2.5,2.8l-0.2,6.8L372.9,77.5z"/>
	<path fill="#FFFFFF" d="M471.5,30.7c0.4-0.5,0.3-1.2-0.3-2.8c-0.7-1.9-1-2.2-2.2-2.2c-0.7,0-1.9,0.4-2.5,0.9
		c-1.9,1.5-2.8,1.2-3.1-0.9c-0.3-2.1-1.5-3.2-4.2-3.6c-1.5-0.2-1.7-0.1-2.2,1.1c-0.8,2.2-1.4,6.4-1.1,8.3c0.1,1,1,3.4,1.9,5.3
		c1.4,3.1,1.7,3.5,2.6,3.2c0.6-0.1,2.3-0.3,3.9-0.3h2.9l0.8-2.1c0.8-2.1,0.9-2.1,2.9-2.1c1.1,0,2.1-0.1,2.1-0.2c0-0.1-0.4-1.1-1-2.2
		C471.3,31.8,471.2,31.1,471.5,30.7z"/>
	<path fill="#FFFFFF" d="M367.9,336.6c-0.7-2.1-1.1-2.6-2.4-3.2c-0.8-0.4-1.7-0.7-1.8-0.7c-0.1,0-0.2,1.7-0.2,3.9v3.9l3.2,1
		c1.8,0.6,3.4,1,3.5,1c0.2,0,0-0.8-0.5-1.8C369.1,339.9,368.4,337.9,367.9,336.6z"/>
	<path fill="#FFFFFF" d="M344.1,294.2c-0.2,1-0.3,3.4-0.3,5.3v3.5l4,4.7c2.2,2.6,4.1,4.9,4.3,5c0.7,0.4,6.2-0.7,6.2-1.3
		c0-0.9-3.2-12.6-4.2-15c-0.8-2.1-1-2.3-2.4-2.5c-1.1-0.1-2.9-0.4-4.4-0.7h-3C344.3,293.5,344.2,293.8,344.1,294.2z"/>
	<path fill="#FFFFFF" d="M297.2,168.3c0.9-1.2,1.2-2.2,1.4-5c0.1-3.2,0.3-3.7,1.9-5.9c0.9-1.3,1.7-2.6,1.7-2.9
		c0-1.2-3.8-7.9-5.2-9.3c-1-0.9-1.5-1.3-2.9-1.6v25.8C295.3,170.1,296,169.9,297.2,168.3z"/>
	<path fill="#FFFFFF" d="M352.4,401.2c3.1,1.3,3.7,1.8,5.6,4.4c2.2,3.1,2.9,3.4,5,2.2c0.7-0.4,2-0.7,3-0.7c2.3,0,2.6-0.2,3.9-2.9
		l1.1-2.3l-2-1.7c-1.7-1.6-1.9-2-2-4.2c0-1.5-0.3-2.7-0.7-3.1c-1.3-1.2-7.2-2.6-10.9-2.6c-1.9,0-3.7-0.2-3.9-0.4
		c-1.1-0.8-3-3.9-3-4.9c0-0.6-0.9-2.1-2.1-3.3l-2-2.2h-4.7c-4.9,0-8.4,0.5-11.4,1.7c-2.2,0.8-2.7,0.8-2.7,0c0-0.4,1-1,2.2-1.4
		c1.6-0.6,2.5-1.2,3.1-2.2c1.5-2.4,3.9-4.9,6.5-6.5c1.4-0.8,2.5-1.6,2.6-1.7c0.1,0-0.1-0.5-0.5-0.9c-0.5-0.6-1.2-0.7-4.3-0.4
		c-3.5,0.3-3.7,0.3-3.7-0.6c0-0.6,0.7-1.5,2-2.4c1.1-0.8,2.4-2.1,2.8-2.8l0.8-1.4l-3.4-2.4c-1.8-1.3-3.7-2.3-4.1-2.3
		c-0.4,0-3.1,0.6-6,1.3l-5.3,1.2l0.3,2.9c0.3,2.9,0.3,2.9-0.8,2.9c-1.6,0-2.5,0.9-3.4,3.5c-1,3-0.6,5.6,0.9,6.3
		c0.9,0.4,1.1,0.8,1.1,2.3c0,1.5-0.2,1.9-1.2,2.3c-1.5,0.7-1.5,1,0.4,3c1.1,1.2,2.1,1.7,3.5,2l2,0.3l-1.2,2c-1.5,2.5-1.5,4,0,6.6
		c0.8,1.4,1.7,2.2,3,2.7c1.5,0.6,2.2,1.4,3.8,4.1c1.1,1.9,2.5,4.5,3,5.9c0.6,1.5,2,3.6,3.3,5c1.3,1.4,2.5,2.9,2.9,3.4
		c0.9,1.5,0.7,6.3-0.2,8.2c-0.6,1.3-0.8,2.4-0.7,5.1c0.2,3.3,0.2,3.4,1.7,4c1.9,0.8,3.1,2.6,3.1,4.7c0,1,0.3,1.8,0.7,2.1
		c0.7,0.4,0.7,0.7,0.3,1.9c-0.4,1.2-0.4,1.5,0.6,1.9c0.6,0.3,1.6,1.5,2.3,2.9c1,1.7,1.6,2.4,2.7,2.6c0.7,0.2,1.6,0.8,1.8,1.4
		c0.3,0.6,1.5,1.6,2.7,2.2c1.3,0.6,4.1,3.1,6.5,5.6l4.3,4.4l0.8,3.7c0.7,3.3,1,4,2.9,5.9c1.2,1.3,2.3,2.2,2.6,2.2
		c1.3,0,6.6,3.1,8.9,5.1c2.1,1.9,2.8,2.3,3.3,1.9c0.5-0.4,1-0.4,1.9,0c1.6,0.6,1.9,0.2,2.3-2.9c0.5-3.5-0.9-8.8-2.8-11
		c-2.3-2.7-3-4.9-3-8.9v-3.5l-1.3,0.3c-4.3,0.8-4.8,0.8-4.8,0.1c0-0.4,0.4-2,0.9-3.7c0.8-2.8,0.8-2.9,0.1-3.6
		c-1.1-0.8-4.5-0.5-7.6,0.8c-1.9,0.8-2.6,1.5-3.5,3.2l-1.1,2.2l0-2.2c0-1.9-0.3-2.5-1.5-4c-2-2.2-3.7-4.8-3.5-5.1
		c0.1-0.1,2.2,0.1,4.5,0.5l4.4,0.7l2.2-2.2c1.8-1.8,2.5-2.2,4-2.2c1.5,0,2.1-0.3,3.4-1.7c0.9-0.9,1.6-1.9,1.6-2.2
		c0-0.9-1.2-1.8-2.2-1.7c-0.5,0-1.7,0.1-2.8,0c-1.8,0-2.1-0.2-3.1-2c-0.6-1.1-1.3-2.5-1.5-3.1c-0.3-1.1-0.3-1.1,3-0.9
		c2.1,0.1,3.3,0,3.3-0.3c0-0.2-0.4-1.3-0.8-2.3c-0.7-1.4-0.7-2.2-0.4-3.1c0.4-1.1,0.2-1.6-1.6-4.2c-2-2.9-2.2-3-7-5.1
		c-4.4-1.9-5.4-2.6-9.2-6.1c-2.3-2.2-4.5-4.4-4.8-5C349,399.8,349.1,399.8,352.4,401.2z"/>
	<path fill="#FFFFFF" d="M378.9,366.5c0-1.7-2.2-3.8-3.8-3.8c-0.7,0-1.4,0.1-1.5,0.3c-0.1,0.2-0.4,1.4-0.6,2.6l-0.3,2.2h3.1
		C378.9,367.8,378.9,367.8,378.9,366.5z"/>
	<path fill="#FFFFFF" d="M386.1,293.3h-17.3c0.6,1,1.2,2,1.4,2.5c0.5,0.9,2,3.1,3.5,4.9c1.5,1.8,3,4,3.5,4.9
		c0.5,0.9,1.9,2.3,3.2,3.2l2.4,1.5l3-3.1c2.9-3,3-3.1,2.7-5.1c-0.2-1.2-1.1-3-2.2-4.4c-1-1.4-1.8-2.6-1.8-2.9
		C384.5,294.7,385.2,293.9,386.1,293.3z"/>
	<path fill="#FFFFFF" d="M185.1,135.3c-0.1,0-1.1,0.4-2.2,0.8c-1.1,0.4-2.1,1.1-2.2,1.6c-0.1,0.5-0.7,0.8-1.4,0.8
		c-0.6,0-1.7,0.5-2.5,1.2c-0.7,0.7-2.7,1.8-4.4,2.5c-1.6,0.7-3.6,2-4.4,2.8l-1.4,1.4l2.5-0.3c1.5-0.1,2.9-0.6,3.5-1.1
		c1.4-1.3,3.8-1.1,5.9,0.3c1.6,1.1,2.1,1.2,7.9,1.2c0.5,0,0.9,0,1.4,0v-10.5C186.5,135.5,185.4,135.2,185.1,135.3z"/>
	<path fill="#003897" d="M337.2,210.1c-2.6-2.2-2.9-2.3-5.6-2.3c-2.5,0-2.8,0.1-2.6,0.8c0.1,0.5,0.4,1.4,0.6,2.2
		c0.1,0.7,0.9,1.6,1.6,2.1c0.2,0.1,0.5,0.3,0.7,0.5h8.3C339.3,212.1,338.3,211,337.2,210.1z"/>
	<path fill="#003897" d="M344.3,293.3h3c-0.9-0.2-1.8-0.4-2.2-0.6C344.7,292.6,344.5,292.7,344.3,293.3z"/>
	<path fill="#003897" d="M331.8,189l4.4,3.3c4.4,3.3,7.3,6.4,16.7,17.5c1.2,1.4,2.2,2.6,3.2,3.6h15.8c-0.6-3-0.7-4.2-0.4-6.7
		c0.7-5.3,0.8-5.1-2.8-7.8c-2.6-2-3.3-2.8-3.6-4.1c-0.2-0.9-0.9-2.1-1.5-2.7l-1.2-1l1.3-2.6c0.3-0.6,0.7-1.2,1-1.7h-33L331.8,189z"
		/>
	<path fill="#003897" d="M318.4,192.5c-2.8-2.9-4.3-3.6-5.8-2.6c-0.4,0.2-0.4,1.1-0.1,3c0.5,2.7,0.5,2.7,4.5,5.8
		c2.2,1.7,4.6,3.7,5.3,4.3l1.3,1.1l-1.2-3.6c-0.6-2-1.1-3.9-1.1-4.3C321.3,195.8,320,194.2,318.4,192.5z"/>
	<path fill="#003897" d="M270.1,180.2c1.7-0.3,4-0.9,5-1.4c1-0.5,2.5-0.9,3.4-0.9c2.4,0,5-2.3,5-4.5c0-1.7-0.9-2.4-4.7-3.5
		c-3.9-1.1-4.4-2.3-0.9-2.3c2.2,0,2.3,0,2.3-1.3c0-1.2,0-1.2,0.6-0.3c0.8,1.5,1.3,1.6,6.2,1.6c4.2,0,4.8,0.1,6.2,1.2
		c0.3,0.3,0.6,0.5,0.9,0.6v-25.8c-0.8-0.2-1.9-0.3-3.5-0.5l-4.9-0.6l-4.2-5.8l-4.2-5.8l-5.9-2.9c-1.6-0.8-2.8-1.4-3.8-2v54.6
		C268.3,180.5,269.2,180.3,270.1,180.2z"/>
	<path fill="#003897" d="M386.2,293.2l1.6-1.3v-4.1c0-4,0-4.1-1.5-5.3c-0.8-0.7-1.5-1.3-1.3-1.4c0.1-0.1,1.8-1.2,3.8-2.4
		c3.5-2.1,3.6-2.2,3.9-4.4c0.1-1.2,0.2-2.3,0-2.4c-0.1-0.1-1.3,0-2.5,0.2c-2.5,0.5-2.9,0.3-2.9-1.9c0-0.5-1-2.2-2.1-3.7h-51
		c0.7,1.7,1.9,3.9,2.8,5c0.9,1.2,1.8,2.7,1.9,3.3c0.2,1,2.4,3,3.2,3c0.1,0,0.3-0.7,0.3-1.5c0-2.2,2.1-4.3,5.3-5.2
		c3.2-0.9,3.1-0.9,3.1,0.4c0,0.8,0.7,1.7,2.3,3.1l2.3,2v-3.8c0-2.1,0.1-3.8,0.3-3.8c0.1,0,1.1,0.6,2.2,1.4c1.1,0.7,2.7,1.7,3.5,2.1
		c1.1,0.6,1.9,1.5,2.8,3.5c1,2.3,1.2,3.2,1.1,7.2l-0.1,4.5l2.1,3.2c0.5,0.8,1,1.6,1.5,2.4L386.2,293.2
		C386.1,293.3,386.1,293.3,386.2,293.2z"/>
	<path fill="#003897" d="M267.5,115.3c2.3,2.4,4.6,4.1,6.5,4.7c1.3,0.4,2.4,1,2.4,1.3s0.5,2.2,1.2,4.4c1.2,3.9,1.2,3.9,4.8,6.7
		l3.5,2.8l4.5-0.1c1.2,0,2.5,0,3.6,0.1V55.4c-2-3.4-3.3-5.1-4.8-6.2l-2.1-1.5l-2,1.5l-2,1.5l-0.4-1.8c-0.3-1.3-1-2.2-2.7-3.5
		c-2.9-2.3-4.6-2.1-6.1,0.7c-0.9,1.6-1.1,1.7-1.4,0.8c-0.5-1.4-4.3-1.4-5.1,0c0,0,0,0,0,0V115.3z"/>
	<path fill="#003897" d="M383.1,194.1c0,6.4,0.4,8.5,1.8,9.3c1.4,0.7,4.8,6.4,5.7,9.5c0,0.2,0.1,0.3,0.2,0.5h6.1
		c0-0.1,0.1-0.3,0.1-0.4c0.5-2.1,0.5-2.2-1.8-5.5c-2.2-3.2-2.3-3.5-2.3-6.5c0-2.7-0.1-3.2-0.9-3.4c-0.7-0.2-0.9-0.7-0.9-1.5
		c0-0.9-0.6-1.7-2.2-3.2c-2-1.6-2.4-2.3-3.3-5.3c-0.1-0.3-0.2-0.6-0.2-0.9h-3.5C382.8,189.6,383.1,191.3,383.1,194.1z"/>
	<path fill="#003897" d="M292.9,37.3c-0.4-0.3-1,0.3-2,2.4l-1.4,2.9l0.8,2.7l0.8,2.7l2.5,0.5l0.2,0V38.1
		C293.5,37.7,293.1,37.4,292.9,37.3z"/>
	<path fill="#003897" d="M187.9,146.5c3.5,0,5.4,0.2,6.4,0.7c0.9,0.4,3,0.8,4.7,1c2.8,0.3,3.1,0.3,2.8-0.5c-0.2-0.5-0.3-1.5-0.3-2.2
		c0-1.1-0.2-1.4-1.1-1.4c-0.7,0-2.1-1.1-4.1-3.1c-1.7-1.7-3.8-3.4-4.7-3.8c-0.8-0.4-2.4-0.9-3.8-1.3V146.5z"/>
	<path fill="#D72828" d="M359,215.9c0.6,0.1,1.8,1.3,2.8,2.6c1.5,2,1.9,2.3,3.9,2.5c1.3,0.1,2.6,0.4,3,0.6c0.5,0.2,1.4-0.2,2.5-1.3
		l1.8-1.6l-1-4.4c-0.1-0.3-0.2-0.7-0.2-1H356C357.5,214.8,358.6,215.8,359,215.9z"/>
	<path fill="#D72828" d="M266.4,47.7c-0.3,0-1,0.8-1.6,1.9c-0.9,1.6-1,1.9-0.3,2.2c0.5,0.2,0.7,1,0.7,3c0,1.5-0.2,2.9-0.5,3
		c-0.2,0.1-0.4,1.6-0.5,3.2c0,1.6,0,3.9-0.1,5.2c-0.1,3.8,0.4,5.7,2,6.6c1.3,0.8,1.4,0.8,0.5,1.5c-0.7,0.5-1.2,2.3-2.2,7.2
		c-0.8,4.4-1.7,7.4-2.6,9.3c-1.3,2.6-1.4,2.8-0.6,3.9c0.7,1.1,0.7,1.2-0.2,2.4c-0.5,0.7-1.1,2.4-1.3,3.7c-0.2,1.3-0.5,2.7-0.7,3.1
		c-0.3,0.6,0,1.1,1.1,2.1c0.7,0.7,2.4,2.8,3.7,4.6c1.2,1.7,2.4,3.3,3.7,4.7V46.8C267.2,47.3,266.8,47.7,266.4,47.7z"/>
	<path fill="#D72828" d="M267.5,126c-4-2.1-4.2-2.8-4.5-5.4c-0.3-2.6-0.3-2.7,1-3l1.3-0.3l-1-0.9c-2.1-1.7-4.8-1.1-11.7,2.4
		c-4.6,2.3-7,3.3-9,3.6c-2.9,0.3-3.2,0.7-3.2,4.3c0,2.2-0.8,4.5-1.6,4.2c-0.3-0.1-2.4-0.8-4.7-1.5c-3.1-1-4.3-1.6-4.6-2.4
		s-0.8-1-2.3-1c-1.4,0-2.5-0.5-4.5-1.8c-2.4-1.6-2.9-1.8-4.8-1.5l-2.1,0.3l-0.3,2.6c-0.2,1.4-0.2,3.4,0,4.4c0.2,1.6,0.5,1.9,2.2,2.7
		c2,0.8,2.1,0.9,2.1,3c0,2.6,1.1,4.6,4.2,7.8c1.3,1.4,2.5,2.2,3.2,2.2c0.6,0,1.2,0.3,1.4,0.7c0.7,1.1,4.2,2.6,7.7,3.3
		c1.9,0.3,4.6,1,6,1.5l2.6,0.9l0.8,2.9c0.4,1.6,0.7,2.9,0.5,2.9c-0.1,0-1.3-0.6-2.5-1.4c-2.1-1.3-2.3-1.3-4.4-0.8
		c-2,0.5-2.2,0.4-3.5-0.7c-2.2-2-3.4-2.1-6.4,0c-2.1,1.4-2.5,1.8-2,2.2c0.4,0.2,0.7,1,0.7,1.7c0,1.1,0.2,1.4,1.4,1.6
		c1,0.2,1.4,0.6,1.6,1.6c0.4,2,5.3,4.7,9.7,5.3c2.2,0.3,3.6,0.3,4.2,0c0.7-0.4,1.1-0.1,2.5,1.4c1.5,1.7,1.6,1.8,3.2,1.4
		c2.2-0.7,2.1-0.7,3.7,1.6c0.8,1.2,1.9,2.1,2.4,2.1c0.5,0,0.8,0.3,0.8,0.6s1.6,2.2,3.5,4.1c3.2,3.2,3.6,3.4,4.5,2.9
		c0.3-0.1,1-0.3,1.8-0.5V126z"/>
	<path fill="#D72828" d="M385.1,266.5c-1.2-1.5-3.1-4.3-4.3-6.1c-1.9-3-2.2-3.4-4.2-3.9c-1.2-0.3-2.9-0.7-3.9-1
		c-1.2-0.3-2-0.9-2.6-1.8c-0.7-1.2-1.1-1.4-2.5-1.4c-2.4,0-6.8-3-8.8-6c-2.8-4.3-7.1-6.6-12.4-6.6c-1.5,0-2.3-0.4-4.7-2.5
		c-2.8-2.5-2.9-2.5-6.6-2.9c-3.5-0.3-7.7-1.1-9.7-1.9c-0.5-0.1-0.9,0-1.1,0.2c-0.7,1.2,0.3,3.8,2.6,6.3c1.3,1.4,2.8,3.4,3.3,4.5
		c0.8,1.7,0.9,2.2,0.5,3.9c-0.5,2.1,0.1,5.3,1.9,8.9c0.5,1,0.9,2.6,0.9,3.5c0,1.2,0.4,2,1.5,3.1l1.5,1.5H335c-0.8,0-1.5,0.1-1.5,0.2
		c0,0.3,0.3,1.1,0.7,2.1h51C385.2,266.6,385.1,266.6,385.1,266.5z"/>
	<path fill="#D72828" d="M394.3,217.1c0.7,0,2.1-2,2.6-3.8h-6.1C391.5,215,393.4,217.1,394.3,217.1z"/>
	<path fill="#D72828" d="M333.4,215.2c0.6,0.9,1.9,2.6,3,3.7s2.3,2.5,2.6,3.3c0.7,1.8,3.1,3.1,4.3,2.5c1.1-0.6,1.1-0.8,0-3.3
		c-0.5-1.1-0.9-2.5-0.9-3c0-1.3-0.9-3.1-2.2-5h-8.3C332.5,213.8,333.1,214.6,333.4,215.2z"/>
</g>
</svg>
