<?xml version="1.0" encoding="utf-8"?>
<!-- Generator: Adobe Illustrator 17.1.0, SVG Export Plug-In . SVG Version: 6.00 Build 0)  -->
<!DOCTYPE svg PUBLIC "-//W3C//DTD SVG 1.1//EN" "http://www.w3.org/Graphics/SVG/1.1/DTD/svg11.dtd">
<svg version="1.1" id="flag-icon-css-fr" xmlns="http://www.w3.org/2000/svg" xmlns:xlink="http://www.w3.org/1999/xlink" x="0px"
	 y="0px" viewBox="0 0 640 480" enable-background="new 0 0 640 480" xml:space="preserve">
<g>
	<path fill="none" d="M297.4,438.9c0,1.8,0.1,1.9,1.5,1.9c1.9,0,2.7-1.6,2-3.6C299.9,434.6,297.4,435.8,297.4,438.9z"/>
	<path fill="none" d="M567.1,480c0.2,0.4,0.7,0.8,1.2,0.9c0.5,0.1,0.7-0.1,0.8-0.9H567.1z"/>
	<path fill="#FFFFFF" d="M423.8,77.6c-6.4,1.9-7,1.8-8-1.7c-0.4-1.5-0.7-1.7-1.9-1.6c-1.4,0.2-1.6,0-2.1-2.9c-0.2-1.6-0.5-2-3.1-3.1
		c-11.1-5.2-12.7-6.3-12.2-8.3c0.2-1,0-1.7-1.2-2.9c-1.7-2-1.8-2.6-0.5-6.7c1.2-3.8,1.2-3.8,0-3.5c-0.7,0.2-1.1,0.8-1.3,2.1
		c-0.5,2.9-1.8,4.6-5.8,7.3c-4.2,2.8-5.6,3-9.9,1.8c-4.8-1.4-6.5-4.2-3.7-6c0.7-0.4,1.4-0.9,1.5-0.9c0.1,0-0.3-0.8-0.9-1.6
		c-0.9-1.3-1.1-2-1-5.3c0.1-3.4,0-4-1-5c-1.4-1.3-3.8-2-6.8-2c-1.9,0-2.6,0.2-3.8,1.5c-1.7,1.7-1.6,1.6-3.1,0.9
		c-1.4-0.6-2-2.3-2.5-6.5c-0.5-4.1-1.7-5.2-5.8-5.2c-3.7,0-5.3-1-6.2-3.8c-0.3-1-1.5-3.5-2.6-5.5l-2-3.7l-2.2,0.2
		c-2,0.1-2.2,0.2-2.2,1.5c0,0.7-0.3,1.8-0.7,2.3c-0.6,0.8-0.9,0.7-4.9-2.2c-5-3.6-5.9-5.1-6.7-10.7c-0.6-4.4-0.9-5.5-1.3-5.5
		c-0.2,0-4.1,0.9-8.7,2c-9.4,2.1-13.7,3.6-17.7,6.2l-2.7,1.8v2.6c0,1.5-0.3,3.4-0.7,4.4c-1,2.4-0.9,3.9,0.4,6.9
		c0.9,1.9,1,2.6,0.5,2.7c-0.7,0.3-2.2,4.4-2.2,6.3c0,0.7,0.2,1.4,0.5,1.5c0.4,0.1,0.3,0.7-0.2,1.7c-1.1,2.2-1,2.6,1.2,4.3
		c3.8,2.8,5.8,7.2,3.2,7.2c-0.7,0-1.4-0.2-1.5-0.5c-0.2-0.3-1.3-1-2.6-1.7l-2.3-1.1l-2.9,3.1c-3.1,3.2-9.6,8.9-11.5,9.9
		c-0.6,0.3-2,0.5-3.2,0.5c-1.2,0-3,0.3-4.1,0.7c-1.1,0.4-2.6,0.6-3.3,0.5c-2.6-0.5-5.7,0.3-9,2.6c-1.8,1.2-4.3,2.6-5.7,3.2
		s-3.1,1.4-3.9,2c-2,1.4-4.6,6.9-4.6,9.7l0,2.3l4.9,0.9c4.5,0.8,6.3,1.5,5.6,2.1c-0.1,0.1-2.4,0.6-5,1.2c-3.4,0.7-6.1,1.7-9.7,3.4
		c-2.9,1.5-5.7,2.5-6.6,2.5c-0.9,0-3.4-0.9-5.7-1.9c-4.3-2-7.2-2.8-11.4-2.9v333.9h5.4l2.3,2.9c2.3,2.8,2.4,2.9,3.9,2.5
		c0.9-0.2,3.7-0.6,6.3-0.8l4.8-0.3l0.5,1.6l0.6,1.6l0.7-1.3c0.8-1.5,1.4-1.6,3-0.5c0.7,0.5,2,0.7,4.1,0.6l3.1-0.1l-0.1-2
		c-0.1-1.1,0.2-2.8,0.6-3.8c0.8-2.1,1.9-2.3,4.6-0.8c1,0.5,3.7,1.3,6,1.8c3.1,0.6,4.6,1.2,5.8,2.3c1.6,1.4,1.8,1.4,5.2,1.1
		c4.4-0.4,6.1,0.4,6.1,2.7c0,0.8,0.4,1.9,0.9,2.5c0.8,1,1,1,2,0.5c0.9-0.5,2.1-0.5,5.5,0c4.7,0.7,5.3,1.1,5.3,4
		c0,0.8,0.4,1.3,1.4,1.6c0.9,0.3,1.9,1.4,2.7,2.9c3.6,6.3,4.2,6.5,9.9,4.1l3.5-1.5l4.9,2c4.8,2,4.9,2,7.3,1.2
		c1.3-0.4,4.8-1.9,7.6-3.4c2.8-1.5,5.5-2.6,5.9-2.6s2.2,0.8,4,1.7c1.9,0.9,3.5,1.7,3.6,1.7c0.2,0-0.1-0.6-0.7-1.4
		c-0.6-0.8-1-1.7-1-2.1s-0.8-1.4-1.7-2.4l-1.7-1.7v-5.6c0-4.1,0.2-6.6,0.9-8.9c0.8-2.6,0.8-3.4,0.3-4.7c-0.5-1.2-0.4-1.7,0.3-3.2
		c0.6-1.1,0.7-2,0.4-2.5c-1.1-1.8-0.1-4.1,1.3-2.9c0.5,0.4,0.8,0.2,1.5-1c1.2-2.3,5.1-6.2,7.5-7.7c2.1-1.2,3.5-1.3,5.6-0.4
		c0.6,0.3,1.4-0.2,2.9-1.8c2.7-2.8,12.5-10.7,15.4-12.4c1.5-0.9,2.7-1.2,4-1.1c1.8,0.1,1.9,0.2,2.3,2.3c0.6,2.7,1.8,3.2,8.6,3.7
		c5.9,0.4,7.7,1.1,8.1,3.2c0.3,1.7,1.2,2,5.7,2h3.3v-1.5c0-2.6,2.9-4.5,4.4-2.7c0.3,0.4,1,0.7,1.6,0.7c0.9,0,0.9,0,0.2-1.2
		c-0.8-1.3-1-4-0.3-5.1c0.4-0.6,1-0.4,3.6,0.8c1.7,0.9,3.6,1.6,4.1,1.6c2.5,0,2.8,3.4,0.6,5.1c-0.7,0.5-2.5,1.1-4.1,1.3
		c-2.6,0.3-2.7,0.3-2,1.3c0.7,1,0.7,1,4.3,0c4.7-1.2,5.7-1.1,7.2,0.3c1,1,1.2,1.8,1.2,3.5v2.3h2c0.1,0,0.1,0,0.2,0V76.7L423.8,77.6z
		 M298.8,440.8c-1.4,0-1.5-0.1-1.5-1.9c0-3.1,2.5-4.3,3.5-1.7C301.6,439.2,300.7,440.8,298.8,440.8z"/>
	<path fill="#00267F" d="M211,84.2c-3.1,0-4.7-0.2-5.7-0.8c-1.9-1.1-4.1-0.5-4.1,1c0,1.9-0.6,2.2-3.3,2c-2.3-0.2-2.6-0.4-2.6-1.4
		c0-0.6,0.3-1.8,0.8-2.6c0.7-1.5,0.7-1.6-1-4.8c-1-1.7-1.8-3.5-1.8-4c0-0.5,0.7-1.6,1.5-2.4c1.2-1.2,1.5-1.9,1.2-2.8
		c-0.4-1.8-2.7-2.1-6.4-0.8c-1.6,0.5-3.6,1-4.4,1c-1.9,0-7.5-1.7-9.1-2.8c-1.1-0.7-1.2-0.7-0.8,0.4c0.2,0.6,0.7,4,1.1,7.6l0.7,6.4
		l3.6,3.8c3.9,4.2,4.5,5.4,3.7,7.7c-0.3,0.9-0.4,2.7-0.2,4.2c0.3,2.2,0.5,2.6,1.2,2.6c1.2,0,1.2,1.1-0.1,8.1
		c-1.3,6.6-1,7.4,2.8,10.1c2.9,1.9,3.3,3.2,1.3,3.7c-4.1,0.9-5.1,1.3-5.5,2.2c-0.5,0.9-0.6,0.9-1.6,0.3c-0.6-0.4-2.6-1-4.5-1.3
		c-4.4-0.8-5.5-1.5-5.7-3.7L172,116l-1.7,1.5l-1.7,1.4l0.9,2.5c0.9,2.6,0.8,4.1-0.5,5.5c-0.7,0.8-2.6,1.2-2.6,0.6
		c0-0.2,0.2-1.2,0.5-2.2c0.5-1.6,0.4-2.1-0.5-3.6c-0.6-1-1.3-1.8-1.5-1.8c-0.2,0-1,0.5-1.7,1.2c-1.5,1.5-2.4,1.6-3.6,0.1
		c-0.5-0.6-1.2-1.1-1.6-1.1c-0.5,0-0.7-0.4-0.7-1.3c0-1.1-0.1-1.2-0.9-0.8c-0.5,0.3-1.4,0.4-2,0.3c-0.7-0.1-1.5,0.3-2.2,1.2
		c-0.6,0.7-2.4,2-3.8,2.8c-1.4,0.8-2.6,1.8-2.6,2c0,0.2-0.4,0.4-0.9,0.4c-0.6,0-1.7-1.4-3.5-4.8c-5.6-10.2-6-10.7-8.5-10.4
		c-1.4,0.1-1.4,0.1-1.1-1.7c0.3-1.7,0.2-1.8-0.6-1c-1.1,1-2,1-2.7,0c-0.5-0.7-0.8-0.7-3.1,0.8c-1.8,1.1-2.8,1.5-3.7,1.3
		c-1-0.2-1.2,0-1.7,1.7c-1,3.4-5,5.2-6.6,2.9c-0.4-0.5-1.3-1.1-2.2-1.3c-1.3-0.2-1.6-0.1-2.5,1.5c-1.1,1.9-1.8,2.1-3.7,1.2
		c-0.8-0.4-1.3-1.1-1.5-2.3c-0.2-1.4-0.5-1.6-1.1-1.3c-2.6,1.1-7,2.6-8.5,2.8c-1.5,0.3-1.9,0.2-1.9-0.5c0-0.5-0.2-0.7-0.8-0.5
		c-0.4,0.1-1.7,0.4-2.8,0.6c-1.1,0.2-2.6,0.7-3.3,1.2c-1.5,1-4.2,2-5.6,2c-0.9,0-1.1,0.3-1.4,2.3c-0.1,1.3-0.3,3.2-0.3,4.4
		c0,2.1,0,2.2,1.6,2.2c0.8,0,4.1-0.5,7.1-1.1c5.1-1,5.5-1.1,5.5-0.2c0,0.4-0.5,1.1-1.1,1.4c-1,0.5-1,0.6,0.6,1.2
		c1.2,0.5,1.5,0.9,1.3,1.7c-0.2,0.7,0,1,0.8,1c1.5,0,2.2,0.5,2.8,2.2c0.4,1,0.3,1.6,0,2.1c-0.8,1-1.5,0.8-3.6-0.5
		c-1.8-1.2-6.6-2.7-8.6-2.7c-0.8,0-1,0.3-1,1.5c0,1.5,0,1.5,1.2,0.7c1.2-0.7,1.4-0.7,3.3,0c3.1,1.2,4.2,2.3,4.6,4.6
		c0.4,2.6-0.1,2.9-6.8,3.5c-2.9,0.3-5.8,0.6-6.5,0.8c-1.9,0.5-0.5,1.2,2.4,1.2c2.2,0,2.4,0.1,3.6,2c0.7,1.1,1.8,3.4,2.6,5.2
		c1.3,3,1.3,3.3,0.5,3.9c-0.8,0.5-0.8,0.6,0,0.9c0.4,0.1,1.9,0.3,3.2,0.3h2.5l-0.3-1.7c-0.2-1.2-0.1-1.7,0.4-2
		c0.4-0.1,0.7-0.9,0.7-1.7c0-1.7,0.8-2.6,2.3-2.6c0.8,0,1.1,0.3,1.1,0.9c0,0.5-0.2,1.1-0.5,1.3c-0.9,0.6-0.5,1.7,0.9,2.4
		c1.3,0.7,1.5,0.6,2.2-0.2c1.2-1.4,1.6-1.2,3.2,1.4c1.2,1.9,1.9,2.5,3.6,3c3.4,1,7.9,3.2,9.4,4.6l1.3,1.3v-1.7v-1.7l2.1,0.9
		c1.6,0.7,2.1,1.2,2.1,2.1c0,2.3,0.1,2.5,1.6,2.3c1.1-0.1,1.4-0.4,1.5-1.8c0.2-2,1.4-2.1,3.2-0.3c1.8,1.7,1.7,2.9-0.6,4.1
		c-1.4,0.7-1.4,2,0,2c0.6,0,1.4,0.2,1.7,0.5c0.9,0.9,2.8,0.3,3-0.9c0.1-0.6,0.4-1.3,0.8-1.6c0.5-0.4,0.8-0.3,1.4,0.8
		c0.7,1.3,0.9,1.4,4.1,1.4c3.2,0,3.4,0.1,3.9,1.5c0.4,1.2,0.3,1.5-0.8,2.5l-1.3,1.1l3.7,0c2.5,0,4.3,0.3,5.3,0.8
		c1.7,0.8,2.1,2.1,0.8,2.6c-0.5,0.2-0.6,0.5-0.1,1.2c0.5,0.9,0.4,1.3-1.8,4.2c-0.2,0.3-0.3,1.6-0.1,2.7l0.3,2.2l3.1,0.8l3.2,0.8
		l1.4-1.6c2.1-2.4,3.2-2.8,6.4-2.5c3,0.3,3.8,0.8,6.6,3.4c2,1.9,4.9,2.9,9.5,3.5c2.4,0.3,2.6,0.4,2.1,1.3c-1,1.8-2.3,2.1-6,1.2
		c-2.4-0.6-4.5-1.6-7.1-3.3c-2.6-1.7-4.3-2.5-5.8-2.7c-2.7-0.3-3.6,0.3-3.6,2.6c0,0.9-0.1,2.1-0.3,2.6c-0.2,0.7,0,1.1,1.5,1.6
		c1.8,0.6,6.6,4.9,6.6,5.8c0,0.3-0.5,0.7-1.2,0.8c-1.4,0.3-6.2,6.6-6.2,8c0,0.5,0.8,2.1,1.8,3.4c1,1.3,2.6,3.4,3.7,4.8
		c1,1.3,2.3,3.9,2.8,5.6c0.7,2.5,1.5,3.7,3.1,5.2c2.4,2.4,5.2,3.9,7.9,4.3c1,0.1,2.5,0.7,3.2,1.3c2,1.4,4,1.8,4,0.8
		c0-1.4,1.5-0.8,2.3,1c0.7,1.4,1,1.7,1.9,1.4c2-0.6,2.8-0.5,3.8,0.8c1.3,1.8,0.8,3.1-1.9,4.7c-2,1.2-2.1,1.4-1.5,2.1
		c1.3,1.4,4.8,8.8,4.8,10.1c0,0.9-0.2,1.2-1,1.2c-0.8,0-0.9,0.1-0.5,1.3c0.9,2.2,0.6,3.5-0.8,3.8c-1.5,0.4-1.3,1.4,0.6,4.4
		c1.7,2.6,0.7,3.2-2.2,1.5c-2.4-1.4-2.8-1.3-2.4,0.5c0.2,0.8,1,1.6,2.5,2.4c2.6,1.4,11,10.3,12.5,13.4c0.7,1.4,1.2,3.8,1.5,6.9
		c0.6,6.8,1.2,8.3,4.2,12.1c1.5,1.8,2.6,3.6,2.6,4c0,0.9-0.6,1.2-1.5,0.7c-0.5-0.3-0.9,0-1.5,1.6c-0.4,1.1-1,2.1-1.2,2.1
		s-0.6-0.9-0.8-2.1c-0.2-1.2-1-2.8-1.9-4c-1.8-2.1-3.2-6.3-3.8-11.6c-0.3-3.1-0.7-3.9-3.1-7.4c-4.9-7.2-5.5-8-6.1-8
		c-1.2,0-2.2,2.4-2.6,6.2c-0.6,5.8-1.4,10.1-3,16.6c-0.8,3.2-1.7,8.1-1.9,10.8c-0.3,2.7-0.7,6.1-0.9,7.6c-0.2,1.5-0.4,2.7-0.3,2.8
		c0.1,0.1,0.5-1,0.9-2.6c0.8-2.6,1.8-3.7,3.4-3.7c1,0,5.7,5,5.7,6c0,2.6-2.1,3.5-5.1,2.3c-0.8-0.3-1.6-0.3-2.2,0
		c-1.4,0.7-2.8,5.1-3.9,12.3c-0.5,3.6-2.3,12.4-3.9,19.6c-1.6,7.2-3,14-3.2,15.2c-0.9,6.3-8,15.3-12.3,15.3c-0.9,0-0.9,0-0.2,1.9
		c0.4,1.3,0.8,1.5,2.2,1.5c1.2,0,2.1,0.4,2.9,1.2l1.2,1.2v-1.2c0-1.8,2-1.6,5,0.3c2.1,1.3,2.4,1.8,2.4,3.2c0,0.9-0.7,3.1-1.5,4.9
		c-0.8,1.8-1.5,3.4-1.5,3.6c0,0.2,0.6,0.4,1.4,0.4c1.1,0,1.5-0.3,2-1.5c1.3-3.1,3.9-3.1,3.9,0c0,2.3,1.4,4.2,3.8,5.2
		c3.9,1.7,9.3,3.1,11.9,3.1h2.7l1.1,2.2c0.6,1.2,1.6,3.1,2.3,4.2l1.2,2h7.6h2.1V84.3C212.6,84.2,211.8,84.2,211,84.2z"/>
	<path fill="#F31830" d="M490.5,95.7c-4.3-0.5-6.2-0.9-7.2-1.7c-1.8-1.3-2.2-1.3-4.9,0.2c-2,1.2-2.4,1.2-4,0.7
		c-1.4-0.4-2.2-0.4-3.1,0c-1.4,0.6-2.5,0.1-3-1.6c-0.4-1.4-4-1.3-4.3,0c-0.3,1.4-2.6,1.3-4.9-0.3c-1.8-1.2-5.4-6.2-8.8-12
		c-1.3-2.3-1.3-2.3-4.4-2.5c-2.6-0.2-3.6,0-6.4,1.2l-3.4,1.4l-4-2.5l-4.1-2.5l-1.3,0.4v321.4c1.1,0,2.4,0.4,3,0.8
		c1.1,0.8,1.2,0.8,1.6,0c0.7-1.2,1.7-0.9,4,1.1c1.1,1,2.6,2,3.1,2.2c0.6,0.2,1.6,1.1,2.1,2c1.1,1.8,2,1.8,3.4,0c0.8-1,3.3-1,4.9,0
		c1.7,1,2.4,0.9,2.6-0.3c0.1-1.1,0.4-1.1,3.7-1.1c3.2,0,3.6-0.1,3.8-1c0.2-0.8,1.1-1.2,5.1-2.2c2.6-0.6,5.1-1.3,5.3-1.4
		c0.2-0.2,0.6-1,0.8-1.9c0.3-1.4,0.2-1.6-0.6-1.6c-0.5,0-1.3-0.3-1.6-0.8c-0.5-0.7-0.5-0.9,0.2-1.4c0.4-0.3,1.2-1.6,1.8-2.9
		c1-2.5,1.8-3,4.6-3.5c2.6-0.5,4.1-1.9,5-4.7c0.8-2.5,1.3-2.8,5.4-3.7c1.2-0.2,1.8-0.8,2.8-2.7c1.6-2.9,3.4-4.4,5.2-4.4
		c1.3,0,1.4-0.1,1.4-1.6c0-3.1,1.3-3.8,5.2-2.6c1,0.3,1.1,0.2,1-3.9c0-4.2,0-4.3,1.5-5.6c0.8-0.7,1.8-1.4,2.1-1.5
		c0.8-0.3,1.6-7,0.8-7.4c-0.9-0.6-3.4-0.4-7.3,0.4c-2,0.4-4.4,0.6-5.5,0.4c-2.8-0.4-9.4-3.8-12.4-6.4c-3.4-3-4.4-5.3-4.7-11.1
		l-0.2-4.8l2.8-4.5c2.8-4.3,2.9-4.6,2.3-6c-0.8-1.9-3.4-3.7-5.3-3.7c-1.2,0-2.1-0.5-3.9-2.5c-2.9-3.1-6.3-8.1-6.3-9.4
		c0-1.5,2.6-3.8,4.3-3.8c0.7,0,4.4-1.1,8-2.6l6.7-2.6l0.3-3.4c0.4-3.9,0.6-3.5-4.6-6.8c-2.5-1.6-3-2.2-3.5-3.8c-0.2-1.1-0.7-2.8-1-4
		c-0.3-1.5-0.9-2.2-2.1-2.8c-0.8-0.5-2.2-1.5-2.9-2.2c-1.2-1.1-1.4-1.6-1.1-2.9c0.5-2.5,1.4-3.5,4.7-5.2c3.5-1.9,3.7-2.6,1.7-5.8
		c-1-1.5-1.9-2.2-3.1-2.6c-0.9-0.2-2.3-1-2.9-1.8c-1.1-1.2-1.2-1.6-1.2-6.5c0-3.4-0.2-5.6-0.6-6.4c-0.4-0.7-0.5-1.8-0.3-3.1l0.3-1.9
		h-2.7c-3.2,0-11.8,2.6-12.3,3.7c-0.3,0.9,0.6,3.7,1.7,4.9c1.1,1.3,0.6,2.5-1.7,4.6c-2.6,2.3-5.3,3.5-7.8,3.5
		c-1.3,0-2.4,0.3-2.8,0.7c-1.4,1.7-2.6,0.2-2.6-2.9c0-1.1,0.8-2.2,3-4.4c1.7-1.7,3-3.2,3-3.5c0-0.2-0.5-1.6-1.1-3
		c-1-2.5-1-2.6-0.2-4.8c0.7-1.9,0.8-2.5,0.2-3.8c-0.6-1.5-0.5-1.6,1.3-3.2c4.4-4,6.4-5.9,7.9-7.7c1.5-1.7,1.6-2,1.6-5.7
		c0-2.2,0.2-4.3,0.5-4.8c0.4-0.9,2.1-1.7,4.6-2.2c0.7-0.2,1.3-0.6,1.3-1.1c0-0.4,1.2-2,2.6-3.5c3.2-3.4,6.5-7.8,7-9.4
		c0.2-0.7,0.8-1.7,1.4-2.4c1-1.1,1-1.1,0-1.1c-2.4,0-2.7-2.2-1.1-5.9c0.9-2.2,1.2-2.4,3-2.7c1.1-0.2,2.9-0.8,3.9-1.3
		c1-0.5,1.9-0.9,2.1-0.9c0.7,0,1.8,1.7,1.8,2.9c0,2.7,2.6,2.2,6.3-1.3c3.5-3.4,3.7-4.1,2.1-8.3l-1.4-3.5l1.4-6.6
		c1.3-6.4,1.3-6.6,0.5-9c-1.4-3.9-0.2-9.5,2.7-13.9c1-1.5,1.2-2.4,1.2-5.3c0-2.2,0.2-4,0.7-4.7c0.3-0.6,0.8-2.2,0.9-3.6
		c0.3-2.8,1.1-4.7,3.5-7.9c3-4.1,3.8-5,5.4-5.5c1.5-0.5,1.6-0.8,1.4-2c-0.2-1,0-1.7,0.8-2.6l1.1-1.1l-1.2-0.7
		C499.4,97.4,497.3,96.5,490.5,95.7z"/>
	<path fill="#F31830" d="M569.1,479.7c0-2.4,1-5.2,2.1-6.1c0.9-0.7,0.9-0.9,0.2-0.9c-1.2,0-1.5-0.8-1.1-3c0.3-1.9,0.4-2,1.7-1.8
		s1.4,0,2-2c0.3-1.2,0.7-5.1,0.9-8.6l0.3-6.4l2.3-4.3c1.3-2.4,2.3-4.8,2.3-5.2s-0.5-2.9-1.2-5.5c-0.7-2.5-1.4-7.2-1.7-10.3
		c-0.4-5.4-0.5-5.9-2.2-8.3l-1.7-2.6l-0.3-8c-0.3-7.3-0.4-7.9-1.2-7.9c-0.5,0-0.9,0-1,0.1c0,0.1-0.1,1.4-0.3,2.8
		c-0.1,1.5-0.4,3-0.7,3.5c-0.7,1.2-0.5,2.6,0.3,3.3c0.9,0.7,0.6,2.7-0.5,5c-0.8,1.6-2,1.7-4,0.5c-1.2-0.7-1.7-0.7-3.7-0.1
		c-2.1,0.5-2.3,0.8-2.3,2c0,1.8-2,3.1-5.8,4c-2.3,0.5-2.7,0.8-3.3,2.2c-0.6,1.4-0.9,1.6-1.9,1.4c-0.7-0.2-1.4,0-2,0.6
		c-0.9,1-1,1.7-0.5,4.7c0.3,1.8,0.3,1.9-1,1.5c-1.3-0.3-1.4-0.3-1.1,1.3c0.2,0.9,1,2.3,1.8,3c0.8,0.7,1.5,1.5,1.5,1.6
		c0,0.1-1,0.9-2.2,1.7c-2.1,1.5-2.2,1.6-1.7,3.3c0.2,1,0.3,2.1,0.2,2.5c-0.1,0.4,0,0.7,0.6,0.7c1.2,0,3.6,1.2,4.6,2.3
		c0.4,0.5,0.9,1.5,1.1,2.2c0.2,1,0.1,1.5-0.7,2c-0.6,0.3-1,1-1,1.5c0,0.5-0.2,1.4-0.5,1.9c-0.5,1-0.5,1,1.1,0.6
		c2.7-0.6,5-0.5,5.4,0.2c0.4,0.6-0.2,2.4-3.4,8.9c0,0.1,0.5,0.2,1.2,0.1c1.6-0.2,6.5,2,6.5,3c0,0.3-1,1.5-2.3,2.6
		c-1.4,1.2-2.2,2.2-2,2.6c0.1,0.4,2.8,1.7,6,2.9c3.5,1.4,6,2.6,6.3,3.2c0.2,0.5,0.6,1.2,0.8,1.6c0,0,0,0,0,0h2
		C569.1,479.9,569.1,479.8,569.1,479.7z"/>
</g>
</svg>
