<?xml version="1.0" encoding="utf-8"?>
<!-- Generator: Adobe Illustrator 17.1.0, SVG Export Plug-In . SVG Version: 6.00 Build 0)  -->
<!DOCTYPE svg PUBLIC "-//W3C//DTD SVG 1.1//EN" "http://www.w3.org/Graphics/SVG/1.1/DTD/svg11.dtd">
<svg version="1.1" id="flag-icon-css-gb" xmlns="http://www.w3.org/2000/svg" xmlns:xlink="http://www.w3.org/1999/xlink" x="0px"
	 y="0px" viewBox="0 0 640 480" enable-background="new 0 0 640 480" xml:space="preserve">
<g>
	<path fill="none" d="M272.5,168.7c0.1,0.3,0.3,0.7,0.6,1.3c0.5,0.9,1,2.7,1.2,4c0.3,2.4,0.7,2.6,2.2,1.8c1.3-0.7,1.1-1.6-0.8-3.2
		c-0.9-0.8-1.9-2.1-2.4-3.1c-0.4-0.9-0.7-1.6-0.9-1.7c0,0,0,0,0,0C272.2,167.7,272.2,167.9,272.5,168.7z"/>
	<path fill="none" d="M348.5,194.7c0-0.4-0.4-0.1-1.2,0.9l-0.9,1.1l1.1-0.9C348.1,195.3,348.5,194.8,348.5,194.7z"/>
	<path fill="none" d="M282.1,104c1.1-1.9,0.7-2.4-0.8-0.7c-1.4,1.6-7,10.3-6.7,10.5C274.9,114,280.7,106.5,282.1,104z"/>
	<path fill="none" d="M322.7,0c-0.4-0.1-0.7-0.4-0.8-0.6c-0.4-1.1-1.1-0.8-1.1,0.5c0,0.1,0,0.1,0,0.2H322.7z"/>
	<path fill="#000066" d="M240.5,141.5c-0.5,0.1-0.9,0.2-1,0.3c-0.2,0.2-1.6,0.7-3,0.9c-1.2,0.2-2.3,0.5-2.7,0.6l6.7,3.3V141.5z"/>
	<path fill="#000066" d="M240.2,85.3c-1.1,1.4-1.1,2,0.3,3.9v-4.2C240.4,85,240.3,85.1,240.2,85.3z"/>
	<path fill="#000066" d="M239.3,78.7c0,2.1,0.1,2.6,1.2,3.4v-6.2C239.3,76,239.3,76.2,239.3,78.7z"/>
	<path fill="#000066" d="M239.7,123.5c-1,0-1.3,0.4-2.2,3.2c-0.5,1.7-0.9,3.2-0.9,3.3c0.1,0,0.8-0.1,1.6-0.4c1-0.3,1.7-0.4,2.2-0.2
		v-5.8C240.2,123.5,239.9,123.5,239.7,123.5z"/>
	<path fill="#000066" d="M240.5,120.9V119C239.7,119.9,239.7,120.5,240.5,120.9z"/>
	<path fill="#000066" d="M239.3,92.6l-1.3-0.7l-0.3,3c-0.2,2.2-0.1,3.2,0.4,4.3c0.4,0.8,0.8,1.7,0.8,2.2c0,0.4,0.3,1.1,0.7,1.6
		c0.4,0.5,0.5,0.7,1,0.6V93.3C240,93,239.6,92.8,239.3,92.6z"/>
	<path fill="#000066" d="M238.9,133.4c-1.1,0.8-2,1.8-2,2.3c0,0.4-0.1,1-0.2,1.3c0,0.2-0.1,0.7-0.1,0.9c0,0.2-0.5,0-1-0.4
		c-0.8-0.7-1.4-0.8-3.8-0.6c-1.6,0.2-3.3,0.5-3.8,0.8c-0.9,0.5-1.1,1.8-0.7,2.6l1.1,0.6c2.5,0.4,9.2,0.1,10.3-0.6
		c0.5-0.3,1.1-0.5,1.7-0.6v-7.8C240.1,132.3,239.6,132.8,238.9,133.4z"/>
	<path fill="#000066" d="M211.5,73.8c1.5,0.8,1.5,0.8,1.2-0.1c-0.2-0.6,0-1.2,0.6-1.7c0.8-0.7,1.1-0.7,1.8-0.2
		c1.3,0.8,2.2,0.3,3.4-2.2c0.7-1.4,1.3-2.1,1.7-1.9c1.3,0.5,1.7-1.6,0.9-4.5c-0.7-2.5-0.7-2.9,0-3.9c0.4-0.6,0.6-1.5,0.4-1.9
		c-0.2-0.6,0-0.9,0.7-1.1c0.8-0.2,0.9-0.5,0.7-1.6c-0.2-1.1,0.1-1.7,2.1-4c2.1-2.4,2.3-2.7,1.7-3.4c-0.4-0.4-0.6-1.1-0.5-1.7
		c0.8-3.1,0.8-4.5,0-5.7c-1.1-1.6-1.4-1.5-2.6,0.2c-2.1,2.8-7.9,7.4-10.9,8.6c-4,1.6-4.4,2.4-2.9,5.2c1.4,2.7,0.5,3.1-1.6,0.7
		l-1.4-1.5l0.3,1.3c0.4,1.6-1.2,2.7-2.2,1.5c-0.3-0.4-1-0.9-1.6-1.1c-0.8-0.3-1.2,0-2.3,2.3c-1.6,3.2-1.8,6-0.4,6.5
		c0.7,0.2,0.9,0.7,0.9,2c0,1.5-0.1,1.6-1.2,1.5c-1.5-0.3-1.5,0,0.1,1.5c0.9,0.8,2.1,1.4,3.5,1.6c1.2,0.2,2.5,0.6,3,0.9
		c1,0.8,0.7,2.2-0.6,2.2c-0.8,0-5.7,4.6-5.7,5.4c0,0.3,0.8,1.3,1.7,2.4l1.6,1.9l0.8-1.2c1.1-1.6,3.5-4.1,4.3-4.3
		c0.6-0.2,0.6-0.4,0.1-1.3C207.9,73.6,209,72.5,211.5,73.8z"/>
	<path fill="#000066" d="M400.8,334.5v106.3c1.4-0.1,3.1-0.3,4.3-0.5c2.6-0.5,2.8-0.5,9.3,1.7l6.6,2.3l1.9-1.7
		c1.8-1.6,2.7-2,7.3-3.2c1.3-0.4,3.2-1.4,4.5-2.4c2.1-1.8,2.3-1.8,4.8-1.6c1.4,0.2,2.8,0.4,3.2,0.6c0.5,0.2,0.6-0.3,0.6-2.2
		c0-2,0.2-2.6,1.3-3.7c0.7-0.7,2.4-1.6,3.6-2.1c5.1-1.8,6.4-2.6,7.1-4.4c0.6-1.4,0.6-2.1,0.2-3.7c-0.7-2.8-0.7-2.9,0.7-4.2
		c1.1-1,1.2-1.2,0.4-1.5c-1.3-0.5-8.8,0.1-11,0.9c-1.1,0.4-2.5,0.8-3.2,0.8c-0.9,0-1-0.2-1-1.3c0.1-1.1-0.2-1.5-2.1-2.5l-2.2-1.2
		l-1.4,1.6l-1.4,1.6l-1.3-0.8l-1.3-0.8l1.8-1.2l1.8-1.2l-2.1-0.4c-1.6-0.3-2.9-0.1-5.1,0.6c-3.2,1-5.3,0.8-7.5-0.7
		c-1.6-1.1-1.3-1.8,0.4-0.9c3.2,1.7,4.1,1.7,5.8,0c1.8-1.7,5-2.6,9.4-2.6c2.2,0,2.6-0.1,3.9-1.6c1.4-1.6,2.9-6.5,2.3-7.2
		c-0.1-0.2-1.1,0.1-2.1,0.5c-1.6,0.7-1.9,0.8-2.8,0.2c-0.5-0.4-1-0.8-1-0.9s1.8-1.2,4.1-2.3c3.8-1.9,4.1-2,4.9-1.3
		c1.1,1,2.8,0.5,5-1.5c1.6-1.4,1.7-1.6,0.8-1.6c-1.3,0-1.3-0.1-0.4-1.8c0.7-1.3,0.6-1.4-0.4-1.6c-0.6-0.1-1.6-0.3-2.4-0.3
		c-1.1,0-1.3-0.1-0.8-0.7c0.3-0.4,1.4-0.7,2.5-0.7c1.8,0,1.8,0,1.1-0.8c-0.9-1-1-1.5-0.2-1.5c0.3,0,1.1,0.7,1.8,1.5l1.2,1.5l1.9-1.5
		c1.9-1.5,4.8-4.8,5.7-6.5c0.3-0.5,0.7-2.3,0.8-4c0.3-2.8,0.9-5.4,1.9-7.8L400.8,334.5z"/>
	<path fill="#000066" d="M224.7,122.5c0.6-0.4,0.6-0.6-0.2-1.2c-1.3-0.9-1.5-0.9-3.1,0.6l-1.4,1.3l1.9,1.9c1.6,1.8,1.9,1.9,2.5,1.2
		c1.1-1.3,1.3-2.4,0.4-2.9C224.1,123.1,224.1,122.9,224.7,122.5z"/>
	<path fill="#000066" d="M188.3,91.1c1.4,0.8,3.9,3.6,3.9,4.5c0,0.4-0.3,1.3-0.7,2c-0.6,1-0.5,1.3,0.1,2c0.7,0.8,0.7,0.9-0.1,1.8
		c-0.7,0.7-0.8,1.4-0.5,2.9c0.2,1.1,0.1,2.9-0.2,4.2c-0.5,1.8-0.5,2.9,0,5.6l0.6,3.3h1.6c0.8,0,1.9,0.1,2.3,0.3
		c0.6,0.2,0.7,0,0.1-1.6c-1.7-4.9-1.7-4.6,0-6.8l1.6-2.1l-1.1-1.9l-1.2-2l1.2-0.8c1-0.7,1.1-0.9,0.7-2.1c-0.4-1.1-0.3-1.6,0.2-2.5
		c0.4-0.6,1.2-2.4,1.7-3.9c0.7-2.1,0.8-2.9,0.4-3.4c-0.4-0.5-0.2-0.9,0.7-1.9c1.7-1.7,1.6-2.2-0.6-2.8c-2.2-0.7-1.9-0.7-3.3,0.3
		c-0.9,0.7-1.4,0.8-2.3,0.4c-0.8-0.4-1.2-0.4-1.5,0.1c-0.2,0.3-0.8,0.5-1.4,0.3c-0.8-0.2-1.2,0.1-2,1.6
		C187.4,90.6,187.4,90.6,188.3,91.1z"/>
	<path fill="#000066" d="M240.1,113.4c0.1,0,0.3-0.1,0.4-0.1v-4.1c-0.6,0.1-1.3,0.2-2,0.4c-2,0.7-2.2,0.7-4-0.3
		c-1.2-0.7-2.2-0.9-2.9-0.8c-0.8,0.3-0.9,0.2-0.7-0.4c0.2-0.5-0.1-1.2-0.8-1.9c-0.7-0.6-1.3-1.8-1.5-2.7c-0.2-0.9-0.5-1.9-0.8-2.2
		c-0.3-0.4-0.3-0.9,0.1-1.7c0.4-0.8,0.5-2.5,0.4-5.4l-0.2-4.3l-2.4-2.4c-1.3-1.3-2.4-2.4-2.6-2.3c-0.1,0-0.8,0.7-1.4,1.4
		c-1.1,1.4-1.1,1.5-0.3,3c0.7,1.2,0.7,1.7,0.3,2.4c-0.4,0.8-0.3,1.3,0.4,2.5c1,1.7,0.8,2.4-0.5,1.6c-0.5-0.3-1.1-0.3-1.6-0.1
		c-0.6,0.3-1.3-0.2-3.2-2.4c-1.4-1.6-2.6-2.7-2.9-2.5c-0.8,0.5-0.4,1.9,0.8,3c1.3,1.2,1.6,2.6,0.5,2.2c-0.5-0.2-0.7,0.1-0.7,1
		c0,2.5-0.7,2.6-2.3,0.2c-1.3-2-1.5-2.1-1.5-1.1c0,0.7,0.2,1.5,0.6,1.8c0.4,0.4,0.3,0.6-0.5,0.6c-1.1,0-1.4,0.7-0.6,1.2
		c0.2,0.1,0.6,0.9,0.8,1.7c0.3,1.2,0.7,1.6,2.4,2.1c1.2,0.4,2.1,0.7,2.2,0.7c0,0,0-0.6-0.2-1.4c-0.2-1.6,0.6-2.3,1.6-1.5
		c0.4,0.3,0.9,0.4,1.2,0.2c0.3-0.2,0.5,0.2,0.5,0.9c0,0.8,0.3,1.2,0.7,1.2c0.9,0,3.4,2.2,3.1,2.6c-0.2,0.1-0.8,0-1.6-0.3
		c-2.9-1.4-2.6,2.1,0.5,4.8c0.8,0.8,1.8,1.4,2,1.4c0.3,0,0.5,0.3,0.5,0.7c0,0.4,0.2,0.7,0.4,0.7s1.2-0.3,2.1-0.7
		c0.9-0.4,2.2-0.7,2.7-0.7c0.8,0,1,0.2,0.8,1.6c-0.1,0.9-0.1,1.6,0,1.6c0,0,0.7-1,1.3-2.3l1.1-2.2l0.6,1.3c0.5,1.2,0.8,1.3,2.4,1
		c1-0.2,1.8-0.2,1.8,0c0,0.1-0.8,0.8-1.8,1.5c-1.2,0.8-1.9,1.7-2.1,2.6c-0.1,0.8-0.4,2-0.6,2.8c-0.5,2.3,0.8,1.7,3.8-1.5
		c2.6-2.9,3.1-3.8,2.2-4.4C238.1,114.3,238.6,113.7,240.1,113.4z"/>
	<path fill="#FFFFFF" d="M222.7,160.5h1.6C223.6,160,223,160,222.7,160.5z"/>
	<path fill="#FFFFFF" d="M216.5,144.9c1.8-1.5,3-3.6,2.1-3.6c-0.2,0-1.3,0.8-2.4,1.8c-1.3,1.1-1.9,2.1-1.8,2.6
		C214.5,146.5,214.8,146.4,216.5,144.9z"/>
	<path fill="#FFFFFF" d="M226.6,145.5c0,0.8-0.2,0.9-1.1,0.6c-1-0.4-1.1-0.3-0.9,0.7c0.1,0.6,0,1.2-0.3,1.4
		c-0.8,0.5-0.6,1.2,0.3,1.2c0.4,0,1.8,0.6,3.1,1.4c2.2,1.3,2.4,1.3,3.6,0.8c1.4-0.7,1.8-0.5,1.8,0.8c0,0.5-0.9,1.3-2.2,2.1
		c-2,1.2-3.5,3.2-2.9,3.8c0.2,0.1,1.1-0.2,2.2-0.7c2.4-1.2,2.9-1.2,2.9-0.1c0,0.6-1,1.4-3.2,2.6c-0.4,0.2-0.7,0.4-1.1,0.5h5.9
		c0.2-0.2,0.5-0.3,0.7-0.5c1.7-1.5,1.9-1.5,1.9,0c0,0.2,0,0.4,0,0.5h1.8c0.3-0.2,0.6-0.5,1-0.8c0.1-0.1,0.2-0.1,0.2-0.2v-0.9
		c-0.2-0.1-0.2-0.3-0.1-0.9c0-0.2,0.1-0.4,0.1-0.5v-5.3c-0.7-0.4-1.6-0.7-2.7-1c-2.5-0.7-3-1-4.7-3.4c-2.8-3.9-3.3-4.2-5.4-3.3
		C227,144.4,226.6,145,226.6,145.5z"/>
	<path fill="#FFFFFF" d="M190.3,123.8c0-1.5-0.9-1.3-2.3,0.4c-1.4,1.6-1.9,3.4-1.1,3.4C187.6,127.7,190.3,124.6,190.3,123.8z"/>
	<path fill="#FFFFFF" d="M205.8,153.1c0-0.6,0.6-1.6,1.3-2.2c0.7-0.6,1.2-1,1-1c-0.1,0-1.2,0.3-2.4,0.6c-2.4,0.7-2.8,1.8-1,3
		C205.8,154.2,205.8,154.1,205.8,153.1z"/>
	<path fill="#FFFFFF" d="M233.8,143.4c-0.1,0-0.1,0-0.1,0.1c-0.7,0.7,2.8,4.3,5.5,5.8c0.5,0.3,0.9,0.5,1.3,0.7v-3.2L233.8,143.4z"/>
	<path fill="#FFFFFF" d="M400.8,334.5l63.4,31.7c0.3-0.7,0.6-1.4,1-2.1c0.8-1.5,1.1-2.8,1.1-4.9c0-3.2-0.7-8.1-1.5-10.6
		c-0.6-1.7-6.8-8.6-8.9-9.7c-2.6-1.4-21.4-3.7-24.4-3c-2.2,0.5-2.9,1.3-3.4,3.8c-0.6,2.6-2.5,5.1-3.9,5.1c-0.6,0-2-0.7-3.2-1.4
		c-1.2-0.8-3-2-4.1-2.7c-1.1-0.7-2-1.5-2-1.8c0-0.9,4.6-6.7,6.5-8c3.5-2.5,3.6-3.1,1.7-9.4c-0.1-0.2-0.1-0.4-0.2-0.6h-22.1V334.5z"
		/>
	<path fill="#FFFFFF" d="M227.8,140.6c0.2,0.1,0.4,0.1,0.7,0.1l-1.1-0.6C227.4,140.4,227.6,140.5,227.8,140.6z"/>
	<path fill="#FFFFFF" d="M270.4,449.1c0,0.9-2,2.4-4.3,3.4c-2.4,1.1-3.7,2.5-3.7,4.4c0,0.8-0.6,1.7-1.9,2.9c-1,0.9-1.9,2.1-1.9,2.5
		c0,1.2-1.3,2.5-5.6,5.7c-2.8,2.1-3.7,2.5-4.3,2.1c-0.9-0.6-3.2,0.4-5.2,2.3c-1,0.9-1.4,1.7-1.4,3c0,0.9,0.2,1.7,0.4,1.7
		c1.3,0,3.3-1.2,4.3-2.4c0.9-1.2,1.3-1.4,2.4-1.2c2.3,0.4,5,2.7,6.1,5c0.5,1.2,1,2.2,1.1,2.3c0.1,0.1,1.1-0.5,2.3-1.3
		c2.2-1.5,2.8-2.9,1.5-3.7c-0.7-0.3-0.6-0.6,0.2-2.5c0.5-1.1,1-2.4,1-2.9c0-1.4,1.1-0.7,1.4,0.9l0.2,1.4l0.6-1.5
		c0.7-1.6,3.8-3.2,5.1-2.7c0.4,0.1,0.7,0,0.7-0.6c0-1.4,1.3-4.6,1.8-4.8c0.3-0.1,0.8,0.2,1.3,0.6v-17.3
		C271.3,447.8,270.4,448.9,270.4,449.1z"/>
	<path fill="#FFFFFF" d="M271,344.7c0.1,0.1,0.7-0.1,1.5-0.5v-3.3C271.5,342.4,270.7,344.4,271,344.7z"/>
	<path fill="#FFFFFF" d="M243,109.9c0-0.6-1.2-0.8-2.6-0.7v4.1C241.6,112.8,243,111,243,109.9z"/>
	<path fill="#FFFFFF" d="M269.5,380.5c-0.9,1.1-2.4,2.5-3.3,3.1c-1.4,0.9-1.6,0.9-2.4,0.2c-1.2-1.1-2.4-0.9-2.9,0.4
		c-0.5,1.3-1.9,2.4-3.8,2.9c-1.3,0.4-2.8,1.6-2.8,2.2c0,0.2,0.5,0.4,1.2,0.4c1.8,0,3.5,1,4.3,2.4c0.8,1.6,0.6,2.3-1.2,3.3
		c-1.4,0.8-1.8,1.9-0.9,2.5c0.3,0.1,0.8,0,1-0.2c0.6-0.6,2.7-0.7,5-0.2c1.2,0.2,1.4,0.4,0.9,0.9c-0.3,0.4-1.1,0.7-1.8,0.7
		c-0.7,0-1.4,0.1-1.6,0.3c-0.5,0.5,0.7,2.4,1.9,3c1.6,0.8,2.3,0.7,4.2-0.7c0.9-0.7,2.2-1.2,2.8-1.2c0.6,0,1.5-0.5,1.9-1.2
		c0.1-0.2,0.3-0.4,0.4-0.6v-20.4C271.4,378.5,270.7,379,269.5,380.5z"/>
	<path fill="#FFFFFF" d="M272.5,181.9c-4.2-0.8-4.9-0.7-5.3,0.7c-0.1,0.7,0,2.9,0.2,4.9c0.5,3,0.4,4,0,4.8c0,0.1-0.1,0.1-0.1,0.2
		h5.2V181.9z"/>
	<path fill="#FFFFFF" d="M224.7,160.9c-0.2-0.2-0.3-0.3-0.5-0.4h-1.6c-0.4,0.5-0.4,1.4,0.3,2.3c0.7,0.9,0.7,0.9,2.4,0.1
		c0.9-0.4,2.5-0.8,3.5-0.8c2.2,0,4.4-0.6,6-1.6h-5.9C226.2,161.8,225.4,161.8,224.7,160.9z"/>
	<path fill="#FFFFFF" d="M228.4,183.5c0-1.1-0.7-1-2.7,0.6c-1.1,0.9-2.4,1.6-2.9,1.6c-1.8,0-3.2,1-3.5,2.5c-0.2,0.8-0.1,1.6,0.2,1.7
		c0.3,0.2,0.2,1-0.5,2.3c-0.1,0.1-0.1,0.2-0.2,0.3h2.3c2.1-2.4,2.9-3,3.4-2.6c0.8,0.7,0.8,1.4-0.1,2.4c-0.1,0.1-0.1,0.2-0.2,0.2h6.9
		c-0.2-0.9-0.5-2-1-3.4C229.2,186.3,228.4,183.8,228.4,183.5z"/>
	<path fill="#FFFFFF" d="M272.5,167.7C272.5,167.7,272.5,167.7,272.5,167.7l0-127.7c-1.5,1.5-2.2,1.8-2.2,1.3c0-0.5,0.5-1.5,1.2-2.3
		c0.4-0.5,0.8-1,1-1.4v-1.1c-0.5-0.8-1.7-2.1-2.1-2.1c-0.1,0-0.6,0.8-1.1,1.8l-0.8,1.7l0-1.5c0-1.4-1.8-4-2.8-4
		c-0.2,0-0.8-0.1-1.2-0.3c-0.6-0.2-0.8,0-0.8,0.9c0,0.7-0.8,2.1-1.9,3.4c-2.2,2.6-2.3,3-0.9,4.2l0.9,0.9l-1.1,0.8
		c-1,0.8-1,0.9-0.2,1.5c1.1,0.9,1,1.4-0.3,1c-1.7-0.4-2.2,0.6-1.7,3.4c0.2,1.6,0.8,2.9,1.5,3.7c0.8,0.9,0.9,1.1,0.3,0.8
		c-0.5-0.2-2.2,0-3.7,0.5c-2.2,0.7-3,0.8-3.7,0.3c-1.2-0.8-1.5-0.1-0.5,1.3c3.2,4.6,3.9,9,1.3,9c-0.6,0-1.5-0.4-2.1-1
		c-0.6-0.6-1.2-0.8-1.3-0.7c-0.7,0.7,1,2.8,4.1,5.3c2.5,2,3.2,2.9,3,3.6c-0.2,0.6,0.3,1.5,1.6,2.9c1.1,1.2,1.9,2.4,1.9,2.9
		c0,0.5-0.8-0.1-2.5-1.8c-2-2.1-2.9-2.6-4.4-2.8c-1-0.1-1.9-0.2-1.9-0.1c-0.1,0,0.8,0.8,2,1.6c1.2,0.9,2.1,1.9,2.1,2.2
		c0,0.9-0.5,0.8-3.1-1l-2.4-1.6l-0.6,1.2c-0.4,1-0.8,1.2-2.1,1c-1.2-0.1-1.6-0.5-2.2-1.7c-0.4-0.8-0.8-1.5-1.1-1.5
		c-0.8,0-0.9,1.6-0.2,3.1c0.8,1.8,1,5.4,0.3,5.4c-0.9,0-2.4-1.9-2.4-3c0-2-0.4-2.5-1.9-2.3c-0.1,0-0.2,0-0.2,0v6.2
		c0.2,0.2,0.4,0.3,0.7,0.5c1,0.7,1.9,1.6,1.9,2c0,0.8-0.6,0.9-1.4,0.1c-0.4-0.4-0.7-0.4-1.2,0.2v4.2c0.2,0.2,0.3,0.4,0.6,0.7
		c1.4,1.6,2.1,2.1,3.2,2.1c1.3,0,3,1.2,3,2c0,0.2-0.7,0.3-1.6,0.3c-1,0-1.7,0.3-1.9,0.8c-0.2,0.6-0.5,0.6-1.7-0.5
		c-0.4-0.4-1-0.8-1.6-1.2v10.2c0.3-0.1,0.8-0.4,1.6-0.9l2-1.3l0.9,1.1l0.8,1.1l1.5-1.4c1.4-1.3,1.5-1.3,1.5-0.4
		c0,1.2-0.8,1.9-3.9,3.4c-3.1,1.5-3.4,2.4-0.9,2.4c1.7,0,5.7,2,6.5,3.2c0.5,0.8,0.1,0.7-2.1-0.5c-1.6-0.8-2.1-0.9-3.2-0.5
		c-0.9,0.4-1.1,0.7-0.6,1.2c0.5,0.5,0.4,1-0.4,2.3l-1,1.6l2.8,1.4c1.6,0.8,2.8,1.6,2.8,1.7c0,0.7-1.4,0.9-2.7,0.4
		c-3-1.1-3.8-1.1-5.1,0.1c-0.2,0.2-0.3,0.3-0.4,0.5v1.9c0.2,0.1,0.3,0.2,0.6,0.2c0.5,0.1,1.6,1,2.4,2c1.5,1.6,1.5,1.7,0.5,2
		c-0.7,0.2-1.3,0-2-0.7c-0.4-0.4-0.9-0.7-1.5-0.8v5.8c0.8,0.3,0.8,1.3,0,2.5v7.8c1.1-0.2,2.2,0.1,3.5,0.8l1.6,0.9l-2.8,0
		c-0.9,0-1.7,0.1-2.3,0.2v5.2v3.2c2.6,1.2,3.5,0.8,5.6-2.1c1-1.4,4.3-5,7.2-8.1c2.9-3.1,5.3-5.8,5.3-6c0-0.2-0.9-0.6-2-0.9
		c-3.1-0.8-3.6-1.1-2.2-1.3c1.3-0.2,4.4,0.5,5.6,1.2c0.6,0.4,0.3,0.9-1.3,3.4c-1.3,1.8-1.9,3.2-1.7,3.7c0.2,0.6-0.1,1.1-1.2,1.7
		c-0.8,0.5-1.4,1-1.4,1.2c0,0.1-0.6,1.2-1.4,2.4c-1.7,2.6-1.9,4.2-0.3,3.8c0.9-0.2,1-0.2,0.4,0.5c-0.3,0.4-1.1,0.8-1.7,0.8
		c-1.4,0-1.8,1.1-0.7,1.8c0.5,0.3,0.9,0.8,0.9,0.9c0,0.2-1.2,1.2-2.6,2.2c-2.4,1.6-3.2,2.6-2.1,2.6c1,0,0.4,1.6-1.2,3.3
		c-2.2,2.4-2.2,3.2,0,3.2c1.7,0,1.7,0,1.4,1.5c-0.2,0.8-0.3,2.7-0.3,4.2c0,1.9-0.1,2.9-0.8,3.8c-2.6,3.3-4,7.7-3,9.3
		c0.3,0.5,0.5,0.5,0.9-0.2c0.9-1.7,1.2-0.1,0.4,2.4c-0.8,2.5-0.8,2.6,0.1,4.2c0.7,1.2,1,2.1,0.9,2.9h5.3c0.6-0.8,1.3-1.5,2.1-1.9
		c0.8-0.4,0.7-0.8-1.3-4.9c-1.6-3.4-2.2-5-2.2-6.7c0-2.2,0-2.2,1.4-2c1.2,0.3,1.5,0,3.1-2.6c1-1.6,2.5-3.4,3.6-4.1
		c1-0.7,1.8-1.4,1.8-1.6c0-0.1,0.8-1.2,1.7-2.3c1.2-1.4,2-2,2.9-2h1.2l-1.1,0.8c-0.7,0.4-1.5,1.2-1.8,1.7c-0.3,0.5-2,2.4-3.6,4.2
		c-3.4,3.8-5,6.7-5.3,9.5c-0.2,2.3,0.9,4.8,2.7,5.9c0.9,0.5,1,0.5,0.6,0c-0.8-0.9-0.8-2.1,0.1-3.8c0.8-1.6,1.7-1.8,2.6-0.7
		c1,1.3,1.4,0.8,0.7-1c-0.4-0.9-0.6-1.8-0.5-2c0.6-0.5,2,1.4,2.8,3.7c0.5,1.3,1,2.4,1.2,2.4c0.6,0,2-4.2,1.7-5.2
		c-0.1-0.5,0-0.9,0.2-0.9s0.4-2.2,0.4-4.9c0-4.8,0-4.8,0.9-3.8l0.9,1.1l0.8-1.3c1.1-1.7,1.4-0.6,0.5,1.8c-0.4,1.1-0.7,2.3-0.5,2.8
		c0.3,0.9,2.3,2.9,4.3,4.3v-10.5C272.2,167.9,272.2,167.7,272.5,167.7z"/>
	<path fill="#FFFFFF" d="M226.7,175.4c1.6-3,1.4-3.6-0.4-1.3c-0.8,1-1.2,2.1-1.1,2.7C225.4,177.7,225.6,177.4,226.7,175.4z"/>
	<path fill="#FFFFFF" d="M241.5,156.7c0.8,0,1.1-0.3,1.3-1.4c0.3-1.4-0.5-2.5-2.3-3.4v5.3C240.6,156.8,241,156.7,241.5,156.7z"/>
	<path fill="#FFFFFF" d="M239.3,160.5h-1.8C237.6,161.3,238.2,161.3,239.3,160.5z"/>
	<path fill="#FFFFFF" d="M400.8,320.8h22.1c-2.4-8.2-5-11.9-10.3-15.1c-1.8-1.1-4.3-3.1-5.6-4.6l-2.4-2.7l-3.3,0.9
		c-2.7,0.7-3.6,0.8-4.2,0.3c-2.3-1.6-3.5-1.1-3.9,1.5c-0.4,2.6-0.9,2.6-0.9,0c0-3.4,1.8-4.7,4.9-3.5c0.6,0.2,2.1,0,4-0.5
		c1.7-0.5,3.3-0.9,3.7-0.9c0.3,0,1.7,1.2,3,2.6c2.4,2.6,2.4,2.6,5.1,2.6c1.6,0,3.2,0.2,3.7,0.5c0.9,0.5,0.9,0.5,0.1-1.1
		c-0.4-0.8-2.3-3.9-4.1-6.7c-1.4-2.2-2.5-4-3.3-5.5h-40.8v155.5c0.4-0.2,0.9-0.5,1.4-0.8c2.1-1.2,3.8-2.4,3.8-2.6
		c0-0.2-0.8-1.2-1.9-2.1c-3.4-3.2-1.2-2.5,2.6,0.8c3.5,3,4.3,3.4,5.1,2.8c1.1-0.9,7.1,0.2,8.8,1.6l1.4,1.1l1.6-1.6
		c1.8-1.8,4.2-2.6,8.1-2.6c0.4,0,0.8,0,1.2,0V334.5V320.8z"/>
	<path fill="#FFFFFF" d="M237.2,175c-4.2,3.9-4.2,4-3.3,4.9c0.8,1,0.8,1-0.3,1.3c-1.8,0.5-2.8,1.9-2.9,4c0,1.9,1.1,3.8,2.4,3.8
		c0.8,0,8.8-16.2,8.5-17.3C241.4,171.3,239.7,172.6,237.2,175z"/>
	<path fill="#FFFFFF" d="M241,158.5c-0.3,0.1-0.4,0.1-0.6,0.1v0.9C241.2,158.8,241.4,158.4,241,158.5z"/>
	<path fill="#CC0000" d="M323.3,2c0.4,0,0.8-0.4,0.8-0.9c0-0.6-0.3-0.9-0.9-0.9c-0.1,0-0.3,0-0.4-0.1h-1.9C320.9,1.1,322,2,323.3,2z
		"/>
	<path fill="#CC0000" d="M322.1,6.9c1.5-0.7,1-1.6-1.8-3.6c-2.8-2-4.3-2.2-5.6-0.9c-0.7,0.7-1,1.9-1.2,5.3c-0.2,2.4-0.2,4.4-0.2,4.5
		c0.1,0.1,0.7,0,1.2-0.1c0.8-0.2,0.9-0.4,0.5-1.3c-0.3-0.8-0.2-1.4,0.5-2.6l0.9-1.6l0.8,1.2c0.7,1,0.7,1.5,0.2,2.6
		c-0.8,2-0.5,3.5,0.8,3.7c0.6,0.1,2.2-0.4,3.7-1l2.6-1.2l0.5,1.3c0.4,1,3.1,3.4,4,3.4c0.5,0,0.2-1.8-0.3-2.2
		c-0.3-0.1-0.4-0.8-0.3-1.4c0.1-0.9,0-1-0.7-0.7c-1.4,0.8-1.8,0.5-1.8-0.9c0-1.4,0-1.4-2-1.1c-2.5,0.3-4.2-0.7-3.4-2
		C320.8,7.8,321.5,7.2,322.1,6.9z"/>
	<path fill="#CC0000" d="M324,21.6c0,0.8,0.3,1.7,0.7,2.3c0.7,0.8,0.7,0.8,0.7-0.6c0-0.8,0.1-1.8,0.3-2.2c0.2-0.6,0-0.8-0.7-0.8
		C324.3,20.3,324,20.6,324,21.6z"/>
	<path fill="#CC0000" d="M272.7,37c0-0.1-0.1-0.3-0.2-0.5v1.1C272.6,37.4,272.7,37.2,272.7,37z"/>
	<path fill="#CC0000" d="M368.8,288.8h40.8c-1.8-3.2-2.2-5.1-2.1-7.2c0.1-2.3,0.3-2.5,1.6-3.2c1.4-0.7,1.5-0.8,0.7-1.5
		c-0.4-0.4-1.5-1.1-2.3-1.5c-0.8-0.4-1.6-0.9-1.6-1.1c0-0.2-1-1.6-2.3-3c-1.3-1.4-2.5-3.3-2.9-4.2c-0.3-0.9-1-2.4-1.6-3.3
		s-1.2-2.1-1.4-2.6c-0.1-0.5-1.8-2.1-3.8-3.5c-2.6-1.9-4.8-3-8.5-4.3c-5.6-1.9-7.5-3.1-7.7-4.8c-0.1-0.6-1-2-2-3.2
		c-2.1-2.4-3.2-5.7-3.2-9.5c0-2.1-0.3-3.1-1.2-4.5c-0.7-1-1.6-3-2.2-4.4c-1.5-3.9-3.3-13.5-3.3-16.8c0.1-5.7-3.8-13-8.3-15.5
		c-0.8-0.5-2.2-1.6-3-2.5c-1.3-1.4-1.6-1.6-2.5-1.1c-0.9,0.4-1.1,0.4-0.8-0.1c0.1-0.4,0.5-0.7,0.9-0.7c1,0,0.8-0.9-0.9-4
		c-1.6-3-3.1-3.9-6.2-4c-1.8,0-8.1-3.8-9.6-5.7c-1-1.2-1.4-1.4-3.9-1.4c-2.4,0-2.9,0.1-3.7,1.2c-0.6,0.7-1,1.6-1,1.9
		c0,0.8-3.4,3-4.8,3c-0.6,0-1.8-0.5-2.7-1c-0.9-0.6-2.1-1-2.7-0.9c-1.3,0.2-10.2-1.6-12.8-2.5c-1.1-0.4-1.9-0.9-1.7-1.2
		c0.5-0.8,4.4-0.4,6.8,0.6l2.3,1l1.4-1c0.8-0.6,2.4-1.2,3.5-1.3c1.9-0.2,2.2-0.4,2.4-1.6c0.4-1.6,3.2-5,5.1-5.9
		c1.2-0.7,1.7-0.7,3.2-0.1c1.5,0.5,2,0.5,3,0c1.5-0.8,4.9-3.7,4.9-4.2c0-0.2-1.3-0.9-2.8-1.6l-2.8-1.2l-0.1-2.8l-0.1-2.7l-1.7-0.1
		c-1.6-0.1-3.8,0.8-9.2,4c-2.2,1.3-2.4,0.5-0.4-1.8c2.6-3.1,4-3.7,8.5-3.8c3.4,0,4.1-0.2,5.8-1.5c3.1-2.1,6.2-5.9,6.2-7.6
		c0-0.8,0.3-1.7,0.7-2c0.4-0.3,0.8-1.5,0.9-2.6c0.3-1.7,0.8-2.4,2.4-3.9c2.5-2.3,5.5-7,5.3-8.6c0-0.7,0.8-3,1.9-5.2
		c1.9-3.6,2-4.1,1.7-6.5c-0.2-2.1-0.1-2.9,1.1-5.4c0.8-1.6,2.8-4.9,4.6-7.3c1.7-2.4,3.1-4.8,3.1-5.3s-0.3-2.4-0.7-4.2
		c-0.8-3.4-1.6-4.5-5.1-6.8c-2.1-1.4-3.6-1.6-5.2-0.5c-1,0.7-1.4,0.7-2.5,0.2c-1.1-0.5-1.6-0.4-3.2,0.4l-1.8,0.9l-6.7-1.1l-6.7-1.1
		l-2.7,1.1l-2.7,1.1l-3.1-1.2c-5.6-2.2-5.9-2.2-8.2-1.6c-1.2,0.3-2.2,0.8-2.2,1c0,0.2-0.6,0.7-1.3,0.9c-0.8,0.3-1.7,0.8-2.1,1.2
		c-0.6,0.5-0.8,0.5-0.8,0.2c0-1-1.4-0.6-4.1,1.2c-2.2,1.5-3.2,1.8-5.7,1.9c-1.7,0.1-2.9,0.4-2.7,0.7c0.1,0.2,0.1,0.9,0,1.6
		c-0.7,2.5-8.8,5-10.9,3.3c-0.8-0.6-0.8-0.8-0.2-1.2c0.4-0.2,1.6-0.3,2.7-0.2c1.9,0.3,2,0.2,3.2-1.6c0.7-1.1,1.5-2.1,1.8-2.3
		c0.7-0.5,3.6-4.4,3.6-4.9c0-0.2-0.7,0-1.5,0.3c-0.9,0.5-1.9,0.7-2.8,0.5c-1.1-0.2-1.8,0.1-4.4,2.4c-2.8,2.4-3.1,2.5-3.1,1.6
		c0-2.5,3.5-6,6.1-6c0.7,0,2.3-0.7,3.7-1.4c1.4-0.8,2.6-1.4,2.8-1.4c0.1,0,0.1,0.6,0,1.4c-0.6,2.6,0.5,1.8,3-2.3
		c3.2-5.1,3.2-5.2,1.6-4c-1.1,0.8-1.5,0.9-2.4,0.5c-0.8-0.4-1.5-0.4-2.3,0c-0.8,0.4-1.7,0.3-4.1-0.6c-3.1-1.1-6.8-3.1-5.7-3.1
		c0.4,0,1.9,0.3,3.5,0.8c3.9,1,5.5,0.5,5.5-1.9c0-0.9-0.2-1.6-0.5-1.6c-0.2,0-0.5-0.2-0.5-0.5c0-0.3,0.2-0.5,0.5-0.5
		c0.8,0,5-3.2,5.8-4.5c0.4-0.7,2.8-2.7,5.3-4.6c3-2.3,5.2-4.4,6.5-6.2c1.4-2,2.9-3.3,5.6-5c5.3-3.4,6.9-6.3,5.1-9.6
		c-1.3-2.5-1.3-3.4,0.1-5.3c0.7-0.8,1.4-2.1,1.6-2.7c0.4-1,0.3-1.3-0.5-1.7c-0.8-0.4-1.2-0.3-1.9,0.3c-0.8,0.8-0.9,0.8-1.7,0
		c-0.9-0.9-6.2-1.2-6.2-0.4c0,0.3,0.2,0.6,0.5,0.8c0.3,0.1,0.5,0.9,0.5,1.6v1.4l-2-0.9c-1.2-0.6-3.1-0.9-4.7-0.9
		c-2.2,0-2.9,0.2-4.6,1.5c-1.7,1.2-2.4,1.5-4.6,1.4c-1.5,0-3.1-0.3-3.7-0.7c-0.9-0.6-1.1-0.6-1.4,0c-0.1,0.4-0.7,0.7-1.1,0.7
		s-1.9,0.7-3.1,1.5c-1.6,1.1-2.4,1.4-2.8,0.9c-1.2-1.2-3-0.1-4.9,3.1c-1,1.6-1.3,0.2-0.5-2c0.8-2,0.8-2.1-0.1-3
		c-0.5-0.5-1.6-0.9-2.4-0.9c-1.2,0-1.4,0.2-1.4,1.1c0,0.7-0.9,2-2.6,3.6c-0.2,0.2-0.3,0.3-0.4,0.4v127.7c0.2,0.1,0.6,0.8,0.9,1.7
		c0.4,1,1.5,2.4,2.4,3.1c1.8,1.5,2.1,2.4,0.8,3.2c-1.6,0.8-1.9,0.6-2.2-1.8c-0.2-1.2-0.7-3-1.2-4c-0.3-0.6-0.5-1-0.6-1.3v10.5
		c1.1,0.9,2.2,1.6,2.9,1.8c4.8,1.3,3.6,2.4-1.5,1.3c-0.5-0.1-1-0.2-1.4-0.3v10.6h-5.2c-0.8,1.5-0.3,2.2,2.9,5.4
		c1.7,1.7,3.3,3.8,3.7,4.7s0.8,2,0.9,2.5c0.3,0.7-0.1,1.3-1.7,2.8c-2.4,2.2-4.6,6-4.6,7.7c0,1.4-1,3.4-3,6.3
		c-0.8,1.2-1.9,3.5-2.4,5.3c-0.8,2.9-0.8,3.2-0.1,5.4c1.1,3.2,1,4-0.4,4c-1.5,0-2.6-1.6-2.6-3.6c0-2.1-0.7-1.9-1.6,0.4
		c-0.8,1.8-0.7,2,0.2,4.1c0.6,1.2,1.9,3.2,3.1,4.3c2.2,2.3,3.1,4,3.1,6.1c0,1.2,0.8,2.4,1.5,2.4c0.7,0,0.4-1.7-0.8-4.4
		c-1.5-3.4-1.5-4.2,0.3-5.7c1.6-1.4,2.4-1.5,3.2-0.6c0.3,0.4,1.3,0.8,2.1,0.9c1.2,0.2,2.2,1,3.8,3c2.6,3.1,4.2,4.3,5.9,4.3
		c1.2,0,1.3-0.2,1.5-2.7c0.2-2.2,0.1-3-0.7-4.5c-1.5-2.6-0.6-3.2,1.9-1.5c1.4,0.9,2.1,1.1,2.4,0.8c0.4-0.4,1,0,2.2,1.3
		c1.3,1.5,1.8,1.7,2.3,1.3c0.5-0.4,0.9-0.4,1.6,0.2c1.1,1,2.2,0.6,6.3-2.4c2.4-1.8,3.8-2.4,5.6-2.6l2.4-0.3l-0.3-2.6l-0.3-2.6
		l1.4,0.3c2.2,0.4,11.6,0.6,13.1,0.1c1.2-0.3,1.5-0.2,2,0.8c0.8,1.6-0.6,2.4-3,1.6c-2-0.7-4.4-0.2-3.5,0.6c1.4,1.4-0.1,3.2-1.9,2.2
		c-0.8-0.4-1-0.2-1.9,1.7c-0.5,1.2-0.8,2.5-0.7,2.9c0.1,0.3-0.8,2.2-2.1,4.1c-1.8,2.7-2.4,3.8-2.4,5.3c0,1.1-0.4,2.7-0.9,3.7
		l-0.9,1.8l1.5,1.7c2.2,2.6,4.6,6.7,5.6,9.7c1.3,3.9,1.7,4.5,3.2,4.5c1.6,0,1.6-0.1,0.8,1.9c-0.6,1.4-0.6,1.7,0.2,3.2
		c1.6,3.2,2.2,3.2,3.5,0.3c0.7-1.4,1.6-2.9,2.2-3.4c0.9-0.8,1-0.8,1.8,0c0.9,0.8,1,0.8,2.3-0.7l1.4-1.6l1.1,2.3l1.1,2.2l-1.5,2.1
		c-1.6,2.2-1.8,3-1.1,3.8c0.8,0.8-0.3,2.4-2.5,3.6l-2.2,1.1v3.8c0,4.7,0.4,5.1,3.8,4.7c1.3-0.2,2.4-0.2,2.4-0.1
		c0,0.1-1.2,1.4-2.6,2.7c-3.3,3.1-4.7,5.3-4.3,6.9c0.4,2.4,3.6,9.3,4.7,10.1c0.8,0.7,1.5,0.8,3.6,0.6l2.5-0.3l-1,1.5
		c-3,4.1-5,3.3-8.2-3.1c-0.7-1.4-1.4-2.5-1.5-2.5c-0.6,0-3,1.6-3,2c0,0.2,0.8,1.9,1.6,3.7s1.6,3.7,1.6,4.2c0,0.8-0.1,0.9-1,0.4
		c-0.6-0.3-2.4-1.9-4.1-3.4l-3-2.8l-5.1,1.7l-5.1,1.8l-2.8-0.9c-3.4-1.2-3.3-1.2-3.7,0.1c-0.2,0.8-0.9,1.3-2.8,1.9
		c-3.5,1.1-3.8,1.1-3.4-0.6c0.3-1.4,0.2-1.4-1.4-1.4c-1.2,0-2-0.3-2.6-1c-3.6-4.2-4.1-4.6-5.7-4.6c-3,0.1-3.8,0.6-4.4,2.7
		c-0.8,2.5-1.5,3.4-2.4,3.1c-0.6-0.2-0.7-0.1-0.2,0.8c0.3,0.6,1.1,1.2,1.7,1.5c0.6,0.2,1.9,1.4,2.9,2.6c1,1.2,2.5,2.6,3.4,3.1
		c1.3,0.8,1.5,1.2,1.5,2.9c0,1.8-0.2,2.2-2.5,4.1c-1.4,1.2-3.3,2.6-4.3,3.2c-1,0.5-2.4,1.6-3.2,2.3c-0.3,0.3-0.7,0.8-1,1.4v3.3
		c0.2-0.1,0.4-0.2,0.6-0.3c2.4-1.3,3.7-1.3,4.1,0c0.3,1,0.4,0.9,0.8-0.6c0.7-2.8,2.6-4.3,6.3-4.9c1.4-0.2,2.4-0.1,3.4,0.5
		c1.7,0.9,2.8,2.8,2,3.6c-0.8,0.8-0.7,1.6,0.7,3.7c0.8,1.1,1.5,1.7,1.9,1.6c1.1-0.4,0.8,0.5-0.8,2.1c-0.8,0.8-1.4,2.1-1.4,2.7
		c0,1.8,1.3,4,2.4,4c0.9,0,0.9,0.1,0.3,0.8c-0.4,0.5-1,1.8-1.4,3c-0.3,1.2-1.6,4-2.8,6.4c-1.9,3.7-2.4,4.4-4.3,5.4
		c-1.2,0.7-3.2,2.1-4.3,3.1c-2.1,1.9-2.7,2.2-6.9,2.8c-0.3,0-0.5,0.1-0.8,0.2v20.4c2-2.9,1.9-2.7,4.2-2.1c1.6,0.4,2.4,0.4,3.3,0
		c1.1-0.5,1.4-0.4,2.4,0.9c0.8,1.1,1.6,1.5,2.6,1.5c1.1,0,1.4,0.2,1.4,1.1c0,0.6-0.4,1.5-0.9,2c-1.2,1-1.2,1.7-0.1,2.7
		c1.1,1,2.4,1,3.6,0.1c0.5-0.4,1.6-0.7,2.3-0.7c0.8,0,2.2-0.5,3.2-1c1.7-1,1.9-1,3.1-0.3c0.7,0.4,1.9,1.8,2.7,3.2
		c0.8,1.3,2.4,3.2,3.4,4c5,3.8,4.8,3.7,7.8,3.7c3.9,0,5.2-0.8,7.3-3.7l1.7-2.6l4.3-1c4.7-1.1,6.5-1.9,7.9-3.4
		c0.8-0.9,0.8-1.2,0.2-5.3c-0.7-4.3-0.7-4.4,0.4-7.6c1-3,1-3.3,0.4-4.7c-0.8-1.4-0.7-2.1,0.2-1.6c0.9,0.6,1.1,3.4,0.2,6.2
		c-0.6,2-0.7,3.8-0.5,6.5c0.1,2,0.4,3.8,0.5,4c0.3,0.3,2.1-1,5.2-3.7c1.7-1.5,1.8-1.7,1.2-2.6c-0.8-1.3-0.3-1.8,1.2-1.2
		c1.1,0.5,1.1,0.6,0.5,1.9c-0.4,0.8-2.2,3.1-4.1,5.1s-3.8,4.6-4.3,5.7c-0.6,1.3-1.8,2.7-3.1,3.7c-1.2,0.8-3.2,2.5-4.5,3.6
		c-2.2,1.9-2.4,2.3-2.9,5.2c-0.7,3.8-1.6,5-3,4.1c-0.8-0.5-1.4-0.4-3.8,0.7l-2.9,1.2l-2.4-1.2c-2.2-1.1-3-1.2-8.5-1.3
		c-4.8-0.1-7.1,0.1-10.5,0.9c-4.9,1.1-5.7,1.7-5.7,4.4c0,1-0.3,2.6-0.8,3.7c-0.9,2.2-2.4,2.8-4.6,1.9c-3.1-1.2-3-1.3-3.8,1.6
		c-0.6,1.9-0.7,3.4-0.5,5.3l0.3,2.6l-3.3,3.3c-0.4,0.4-0.8,0.8-1.2,1.2v17.3c0,0,0,0,0,0c0.4,0.4,1.1,0.6,1.6,0.5
		c0.4-0.1,2.6-0.6,4.9-1.1c4-0.8,4.1-0.8,6.1,0c2,0.9,2,0.9,2.8,0c0.9-1.1,1.8-1.3,1.8-0.4c0,1.1,1.6,2.1,3.8,2.4
		c3.4,0.5,3.8,0.7,4.6,2.5c0.9,1.9,1.7,2.2,4.1,1.7c1.5-0.3,1.6-0.4,1.6-2.1c0-1.9,0.5-2.6,3-4.4c1.5-1,1.6-2.4,0.2-3.3l-1.1-0.7
		l1.3-0.6c1-0.5,1.2-0.8,0.8-1.6c-0.3-0.8-0.1-1.7,0.7-3.4c0.9-1.9,1.4-2.4,2.9-2.9c1-0.3,2.6-1.2,3.7-1.9c1.1-0.8,3.1-1.5,4.9-1.8
		c1.7-0.3,3.9-0.9,4.8-1.3l1.8-0.8l4.3,2.2c2.4,1.2,5.3,2.7,6.3,3.3c1.9,1.2,2,1.2,2.2,0.3c0.2-0.8,0.7-0.9,2.6-0.9
		c3.4,0,7.1,0.8,8.4,1.9c1.2,0.9,1.3,0.9,2.7,0.1c2-1.2,2.1-2.5,0.2-3.4c-0.8-0.3-1.6-0.9-1.7-1.3c-0.2-0.5,0.2-0.6,1.8-0.4
		c1.3,0.1,2.4,0,3-0.4c1.4-0.8,7-1.3,8.4-0.7c0.9,0.4,1.5,0.3,3.6-0.9V288.8z M281.4,103.3c1.5-1.6,1.9-1.2,0.8,0.7
		c-1.4,2.5-7.2,10-7.5,9.8C274.4,113.6,280,105,281.4,103.3z M346.4,196.7l0.9-1.1c0.8-1,1.2-1.3,1.2-0.9c0,0.1-0.5,0.6-1,1.1
		L346.4,196.7z"/>
	<path fill="#CC0000" d="M311.3,15.7c-0.4,0.8-0.4,1.1,0.2,1.4c0.4,0.2,1.4,1.5,2.2,2.8c0.8,1.3,1.6,2.4,1.8,2.4c0.7,0,2-1.6,2-2.5
		c0-1-0.8-2.6-2-4C314.2,14.3,312,14.3,311.3,15.7z"/>
	<path fill="#CC0000" d="M258.3,207.9c1.2-0.3,1.6-0.7,1.6-1.9c0.1-0.9,0-1.5-0.4-1.5c-0.4,0-0.5-0.5-0.3-1.6
		c0.2-1.3,0.1-1.7-0.4-1.9c-0.5-0.2-0.7-0.9-0.7-2c0-1.9-1.4-4.9-2.4-5.1c-0.4,0-1.4,0.9-2.3,2.2l-1.6,2.4l0.5,3.2
		C253.5,207.5,254.8,208.9,258.3,207.9z"/>
	<path fill="#CC0000" d="M244.3,194.2c-1.1,1.1-1.5,2.6-2.1,9.6c-0.3,3.1-0.6,4.2-1.6,5.7c-2.4,3.4-1.5,7.2,1.5,6.3
		c4.1-1.2,5.8-3.6,3.8-5.4c-0.9-0.8-0.9-0.8,0-2.1c0.9-1.3,2.8-8.2,2.8-10.3c0-1.9,0.7-3.9,1.9-5.5h-5.3
		C245.2,193.1,244.9,193.7,244.3,194.2z"/>
	<path fill="#CC0000" d="M232.4,229c-1.2-0.5-1.2-0.6-0.9-3.5c0.3-2.8,0.3-3.1-0.8-3.8c-2-1.3-5.1-2.2-8.8-2.4
		c-3.6-0.2-3.7-0.2-7.8,1.9l-4.2,2.2l-2.5-0.7l-2.5-0.7l-1.6,3.4c-1.7,3.6-2.7,4.6-4.3,4c-1.3-0.5-4.2-0.5-5.6,0
		c-1.4,0.5-1.8,1.4-2.7,5.4c-0.7,3.2-1.1,4.3-2.4,5.7c-0.5,0.6-1.1,1.7-1.3,2.6c-0.3,1.4-0.6,1.6-3.8,2.9c-2.8,1.1-3.7,1.3-4.4,0.8
		c-0.7-0.4-1.1-0.4-1.8,0.3c-1.3,1.2-1.1,1.8,0.8,3c1.1,0.8,2.1,1,3.1,0.8c1-0.2,1.4-0.1,1.4,0.4c0,0.4-0.2,0.7-0.4,0.7
		s-1.3,0.8-2.3,1.7l-1.8,1.7l1.4,0.3c1.1,0.2,1.4,0.5,1.3,1.3c-0.1,0.6,0,1,0.3,1c0.5,0,3.2,5.6,2.8,5.9c-0.2,0.1-1.5-0.7-3-1.9
		c-3-2.4-4.3-3.1-6.4-3.1c-2,0-1.7-0.8,0.6-1.9l2-0.8L175,256c-1.8-0.3-1.9-0.2-4.1,2.2l-2.3,2.5l3.3,3.1c3.3,3,5.7,6.3,5.7,7.8
		c0,0.6,0.5,0.8,2.1,0.8c1.8,0,2.4,0.3,4.4,2.1c1.3,1.2,2.6,2.1,2.8,2.1c0.3,0,1.1-0.4,1.9-0.8c1.3-0.8,1.4-0.8,2.7,0.3l1.4,1.1
		l0.2-1.1c0.3-1.3,1.4-1.7,1.5-0.6c0,0.5,0.3,0,0.6-1c0.3-1.1,1-2.1,1.6-2.4c1.6-0.8,1.7-1,0.6-2.5c-1.2-1.7-0.9-3.7,0.7-4.3
		c0.6-0.2,1.6-1.2,2.4-2.1c0.7-0.9,1.5-1.7,1.8-1.7c0.3,0,1.5,1,2.7,2.3c1.6,1.7,2.3,2.8,2.5,4.2c0.2,1,0.9,2.7,1.7,3.8
		c1.2,1.7,1.6,1.9,2.3,1.4c1.9-1.2,3.3,1.8,2.4,5.1c-0.5,1.9,0,2.8,1.4,2.3c0.4-0.1,1.9-0.4,3.3-0.5c2.2-0.2,2.8-0.5,3.2-1.3
		c0.4-0.9,0.8-1,2.8-0.8c1.4,0.1,2.8,0.7,3.6,1.3c0.8,0.6,1.6,1.1,1.8,1.1c0.3,0,0.8,0.3,1,0.8c0.5,0.7,0.8,0.5,2.9-1.4
		c2.3-2.1,2.3-2.2,2.3-4.9c0-2.7,0-2.7,1.9-3.6c2.2-1,4.1-1.1,4.9-0.3c1.3,1.3,4.3-4.4,3.2-6c-0.5-0.7-0.8-0.7-1.8-0.2
		c-0.7,0.3-1.4,0.5-1.5,0.3c-0.1-0.1,0-1.3,0.2-2.5c0.6-2.5,0.2-5.1-0.8-5.9c-0.9-0.8-0.8-1.6,0.2-2.5c0.8-0.8,1-0.8,2.8,0.9
		c2.2,1.9,2.8,3.8,2,6.2c-0.4,1.3-0.4,2,0,3.1c0.8,1.9,1.3,1.2,1.8-2.6c0.4-3,0.4-3.5-1-7.3c-1.8-5.1-2.6-5.9-5.4-5.6
		c-1.2,0.1-2.9,0.8-3.9,1.4c-2.9,1.9-3.4,2-3.4,0.4c0-1,0.7-1.9,3.3-4.3c2.9-2.6,3.3-3.1,3-4.2c-0.4-1.7-1.1-2.3-0.8-0.7l0.2,1.3
		l-1.5-1.4c-0.8-0.7-1.6-1.9-1.7-2.6c-0.2-0.7-1.4-2.6-2.6-4.3c-1.8-2.3-2.3-3.3-2.1-4.1C233.6,229.6,233.4,229.3,232.4,229z"/>
	<path fill="#CC0000" d="M224.6,194.4c1.3,1.6,1.3,2.4-0.2,3.3c-1.7,1.1-1.5,3.4,0.4,2.7c0.4-0.1,0.9-0.8,1.2-1.3
		c0.3-0.7,1.2-1.4,2.5-1.7c2.6-0.8,3.3-1.7,2.5-4.8h-6.9C223.7,193.1,223.8,193.3,224.6,194.4z"/>
	<path fill="#CC0000" d="M221.1,192.5C221.1,192.5,221.1,192.5,221.1,192.5l-2.2,0C217.3,195.8,218.2,195.9,221.1,192.5z"/>
</g>
</svg>
