<?xml version="1.0" encoding="utf-8"?>
<!-- Generator: Adobe Illustrator 17.1.0, SVG Export Plug-In . SVG Version: 6.00 Build 0)  -->
<!DOCTYPE svg PUBLIC "-//W3C//DTD SVG 1.1//EN" "http://www.w3.org/Graphics/SVG/1.1/DTD/svg11.dtd">
<svg version="1.1" id="flag-icon-css-gd" xmlns="http://www.w3.org/2000/svg" xmlns:xlink="http://www.w3.org/1999/xlink" x="0px"
	 y="0px" viewBox="0 0 640 480" enable-background="new 0 0 640 480" xml:space="preserve">
<g>
	<g id="d_3_" transform="matrix(31.2 0 0 31.2 320 33.6)">
	</g>
	<g>
		<g transform="rotate(288)">
		</g>
	</g>
</g>
<g>
	<path fill="#CE1126" d="M363.7,414.7c1.6,2.8,1.7,3.2,1.7,7.3c0,3.8,0.1,4.4,0.9,4.8c1.3,0.7,1.3,0.6,0.8-1.5
		c-0.4-1.9-0.3-2.1,1.3-4.7c1-1.5,1.8-2.8,1.9-2.9c0-0.1,0.7,0.2,1.5,0.6c0.7,0.4,1.6,0.7,1.8,0.7c1.7,0,0.3-5.4-1.4-5.7
		c-0.2,0-0.5-0.2-0.7-0.3h-8.8C363,413.5,363.4,414.1,363.7,414.7z"/>
	<path fill="#CE1126" d="M192.1,463c-0.7,0.8-0.7,0.9,0.4,2l1.2,1.2l0.9-2.7l-1.9-1.4C192.4,462.5,192.3,462.8,192.1,463z"/>
	<path fill="#CE1126" d="M380.4,413.5l2,2.3l1-0.9c0.5-0.4,1.1-1.3,1.4-2h-5C380,413.1,380.2,413.3,380.4,413.5z"/>
	<path fill="#CE1126" d="M494.7,61.1c-2.3-2.1-3.7-5.3-4.3-10.2c-0.6-4.7-0.2-6.8,2.5-13.7c1.1-2.6,2-5.2,2.1-5.8
		c0.2-0.7,0.6-1,1.3-1c2.3,0,2.6-0.4,2.6-3.8v-3.2l-2.5-1.1c-1.4-0.6-2.8-1.6-3.1-2.2c-0.3-0.6-1.1-1.6-1.8-2.4
		c-1-1.1-1.6-1.3-3.7-1.3c-2.8,0-4.8-0.7-7-2.5c-1.8-1.5-5.7-2.9-6.1-2.3c-0.4,0.6-10.3,1.7-12.1,1.4c-1.2-0.2-1.6,0-2.5,1
		c-0.7,0.9-1.9,1.5-4.1,2.1c-0.4,0.1-0.8,0.2-1.3,0.4l2.4,7.4H480l-18.3,13.3l7,21.6l-18.3-13.3L432,58.8l7-21.6L420.6,24h22.7
		l1.1-3.3c-0.9,0.2-1.7,0.2-3,0.2c-2.7,0-3.8-0.3-5.2-1.1c-2.1-1.3-3.2-1.3-4.2-0.1c-1,1.1-4.5,1.3-6.9,0.3c-0.8-0.3-4.6-3-8.4-5.8
		c-3.8-2.8-7.4-5.4-7.9-5.7c-0.7-0.3-1.1-1-1.3-2.4c-0.3-1.9-1.3-3.2-2.6-3.1c-0.4,0-1.9,0.3-3.3,0.7c-1.9,0.5-2.8,0.6-3.6,0.2
		c-1.8-0.8-4-0.6-5.8,0.6c-0.9,0.6-2.3,1.2-3.1,1.2c-1.3,0-1.4,0.1-1.5,1.7c-0.1,1.6-0.3,1.7-2.9,2.8c-2.6,1-3.7,1.9-5.9,4.6
		c-0.4,0.6-1.6,1.1-2.6,1.3c-1.6,0.3-2.1,0.6-3.1,2.4c-0.7,1.2-1.9,2.4-2.7,2.8c-0.8,0.4-3.2,2.1-5.5,3.8c-3.5,2.6-4.1,3.3-4.5,5
		c-0.5,1.8-0.7,2-2.4,2.5c-1.3,0.3-2.3,0.3-3.2,0c-1.1-0.4-1.7-0.3-3.6,0.6c-1.3,0.6-3.2,1.3-4.2,1.5c-3.3,0.6-5.1,2.2-7,6.2
		c-0.9,2-1.9,4.6-2.2,5.8l-0.5,2.2l-2.1,0.6l3.1,9.4l-9.6-7c-0.2,0.1-0.3,0.2-0.5,0.2l-2.6,1.3l-0.8,3.8c-0.8,3.6-1.8,5.8-5,9.9
		h178.3C497.8,64.5,496.8,63,494.7,61.1z"/>
	<path fill="#CE1126" d="M184.5,414.2c0,1.9-0.2,2.3-1.3,2.9c-1.1,0.7-1.4,0.7-3.7,0.1c-3-0.9-3.9-0.6-3.9,1.2
		c0,1.9-2.1,3.8-4.3,3.8c-1.5,0-1.7,0.1-2,1.4c-0.5,2.2-2.4,4.1-4.5,4.5c-1.5,0.3-1.8,0.5-1.8,1.4c0,0.9-0.2,1.1-1.4,1.1
		c-0.9,0-1.6,0.4-2.1,1.2c-0.4,0.7-1.2,1.2-1.8,1.2s-3,1-5.3,2.1c-4.1,2-4.4,2.1-7.1,1.8c-2.9-0.3-2.9-0.3-5.3,1.6
		c-2.4,1.9-2.5,1.9-3.7,1.1c-0.6-0.4-1.3-0.6-1.3-0.4c-1.2,2.9-1.9,3.7-3.8,4.1c-1.4,0.3-2.5,1-3.3,2.1c-1.3,1.6-1.3,1.6-0.5,2.5
		c0.7,0.8,1.1,0.8,2.3,0.4c1.3-0.5,1.9-0.3,4.5,0.8c2,0.9,3.8,1.4,5.2,1.4c1.2,0,3.9,0.2,6.1,0.5c2.2,0.2,4.8,0.6,5.8,0.7
		c1.6,0.2,2,0.5,2.6,1.7c1.3,3,5.5,1.5,5.5-1.9c0-2.3,1.3-3.6,3.6-4c2.3-0.4,6.8,0.5,8.5,1.6c0.8,0.6,1.4,0.7,1.9,0.4
		c1-0.6,3-0.5,3.6,0.2c0.4,0.5,0.4,1,0,1.9c-0.7,1.7-0.6,2.6,0.3,3.4l3.6-11.1l0,0l8.7-26.8l7,21.6h22.7l-16.3,11.8
		c0.6,0.3,1.6,0,3.2-0.5c2-0.6,2.8-0.2,3.9,1.9c0.6,1.2,0.6,1.4-0.5,3.3c-0.6,1.1-1.2,2.6-1.2,3.3c0,0.8-0.5,1.7-1.3,2.4
		c-1.3,1.1-1.3,1.1-0.5,2.5c0.7,1.3,0.7,1.5,0.1,2.7c-0.2,0.4-0.4,1.1-0.7,2l1.7,5.3l-2.7-1.9c-0.7,2.8-1.3,5.6-1.1,5.9
		c0.6,1.1,3.4,0.2,3.4-1c0-1,1.9-2.7,3.5-3.1c0.6-0.1,1.1-0.6,1.3-1.1c0.1-0.6,0.5-0.8,1.2-0.6c0.8,0.2,1,0,1-1.2
		c0-1.1,0.2-1.4,0.9-1.4c1.3,0,1.9,1,2.3,3.6l0.3,2.2l1.5-2.6c1.7-3.1,2-6.4,0.7-8.8c-0.6-1.2-0.7-2.1-0.4-4.7
		c0.1-1.8,0.5-3.8,0.8-4.5c0.3-0.7,0.5-3.4,0.4-6.3l-0.1-5.1l1.6-0.7l1.6-0.8l0.5,1.3c0.7,1.9,2,2.5,3.8,1.6
		c1.6-0.8,3.1-0.9,3.5-0.2c0.5,0.8-1.2,8.3-2.1,9c-0.8,0.7-0.8,0.9,0,3.4c0.5,1.4,1.1,2.7,1.4,2.8c1,0.2,3.2-2.8,4.1-5.6
		c0.6-1.8,1.1-2.5,1.8-2.6c0.6-0.1,1-0.5,1-1c0-1.5,2-3.3,4-3.7c1.7-0.3,1.8-0.4,1.9-2c0.1-1.6,0.4-1.9,2.2-2.7l2-1v-2.7
		c0-2.4-0.1-2.9-1.2-3.7c-0.6-0.5-1.4-1.9-1.9-3.2c-0.8-2.7-0.9-7.3-0.2-7.3c0.6,0,1.9,2.1,2.3,3.8c0.3,1.3,0.5,1.5,1.5,1.3
		c2.8-0.3,7.6,3.4,9.5,7.4c1.3,2.6,1.4,2.7,2.7,2.5c0.7-0.1,1.9-0.8,2.5-1.6l1.1-1.3l1.1,1.4c0.9,1.1,1.1,1.7,0.8,3.2
		c-0.2,1.6,0,2.5,1.4,5.1c1,2,2.1,3.5,3,4c1.3,0.8,1.4,0.8,1.7-0.2c0.1-0.6,0.3-1.5,0.3-2.1c0-0.6,0.4-1.2,1.1-1.4
		c1.3-0.5,2.7,0.4,7.4,5l3.6,3.5l-0.1-4.2c-0.1-3.8,0-4.2,0.8-4.3c1.5-0.3,1.6-0.7,0.9-4.5c-1-5.5-1.3-6-3.9-7.1
		c-2.9-1.3-3.4-1.3-4.5-0.1c-0.5,0.5-1.1,0.9-1.4,0.9c-1.2,0-2.4-2.3-3.1-6c-0.4-2.1-1.2-4.3-1.7-5c-1.3-1.7-0.9-1.8,1.5-0.3
		c4.8,3,6.8,4.8,7,6.4c0.4,1.9,1.1,2,2.6,0.5c0.8-0.9,1.5-1.2,3.2-1.2c1.2,0,2.4,0.2,2.6,0.4c0.6,0.5,3.2,8.1,3.7,10.9
		c0.3,1.9,0.6,2.5,2.6,4.2c2.2,1.9,2.3,2,2,3.9c-0.2,1.7,0,2.3,1.7,5c1.9,3,1.9,3.2,1.6,6c-0.2,1.7-0.1,3.5,0.2,4.4
		c0.4,1.3,0.7,1.5,2,1.5c1.9,0,2.4-1.1,1.6-3c-0.5-1-0.4-1.3,0.2-2c0.5-0.5,0.8-1.5,0.8-2.3c0-1.7,1.7-3.4,3.4-3.4
		c1.4,0,1.6-0.7,0.6-2.1c-0.4-0.5-0.8-1.6-1-2.5c-0.2-1.4-0.1-1.8,1.2-3.1l1.4-1.5l-1.8-0.6c-2.3-0.7-4.1-2.5-7.8-7.4
		c-2.6-3.4-3-4.1-3-6c0-1.8-0.2-2.3-1.8-3.8c-2.1-2.1-4.4-2.5-5.8-0.9c-0.8,0.9-0.8,0.9-1.9-0.6c-1.4-2.1-1.1-2.7,1.4-2.4
		c1.7,0.2,2.3,0.1,3.2-0.7c0.9-0.9,1.4-1,3.4-0.7l2.3,0.3l0.6-1.7c0.6-2,1.9-2.2,1.9-0.3c0,0.7,0.4,2.7,0.9,4.3c0.5,1.6,0.9,3,0.9,3
		c0,0.1-0.5,0.1-1.2,0.1s-1.2,0.2-1.2,0.4c0,0.7,4.5,4.6,6.7,5.9c1.7,1,3.2,1.4,5.8,1.6c3.4,0.3,3.5,0.3,5.6,2.7
		c1.8,2,2.2,2.3,3,1.9c1.2-0.7,1.6-1.3,1.6-2.6c0-0.6,0.4-1.6,0.8-2.4c1-1.8,0.3-2.9-2-2.9c-1.3,0-1.7-0.3-2.4-1.4l-0.8-1.4h-5.4
		c-5.4,0-5.4,0-6.3-1.3c-0.5-0.7-0.9-2.4-1-4.1l-0.2-2.8l1.9-1l1.9-1l2.9,1.4c2,0.9,3.6,1.4,5.1,1.4c1.7,0,2.7,0.3,4.3,1.4
		c3.8,2.6,9.3,1.6,11-2.1c1-2,2.2-2.1,3.9-0.2c1.2,1.3,1.4,1.4,4.5,1.4h3.3l2.4,3.6c1.3,1.9,2.6,4.1,2.9,4.7
		c0.6,1.1,0.6,1.1,0.9,0.2c0.5-1.2,0.1-4.7-0.7-8.6c-0.4-1.7-0.6-3.8-0.6-4.9c0.1-1.5,0.4-1.9,1.4-2.3c1.1-0.4,1.7-0.2,3.1,0.6
		c1,0.6,1.9,0.9,2,0.6c0.1-0.2,0.4-1.9,0.6-3.9c0-0.3,0.1-0.5,0.1-0.7H184.5C184.5,413.2,184.5,413.6,184.5,414.2z"/>
	<path fill="#CE1126" d="M275,463.7c-2.2-0.8-2.4-1-2.4-2.4c0-1,0.4-1.8,1.2-2.6c1.5-1.4,1.5-3.3,0-4.6c-1.5-1.2-1.9-1.2-3.5-0.2
		c-1.6,1-2.4,2.7-1.8,3.8s0.6,2.9,0,4.4c-0.5,1-0.4,1.3,0.6,2.5c0.6,0.7,1.4,2,1.7,2.8c0.5,1.1,1.3,1.8,3.5,2.9
		c3.4,1.7,3.5,1.7,3.2,0.4c-0.1-0.5,0-1.8,0.4-2.8C278.5,465.5,278,464.8,275,463.7z"/>
	<path fill="#CE1126" d="M246.1,451.1c-0.7,0.6-1.7,1.4-2.2,1.8c-0.6,0.4-1.2,1.4-1.4,2.3c-0.3,1.6-0.3,1.6,1.4,2.1
		c1,0.3,2.2,0.5,2.9,0.5c0.6,0,1.9,0.5,2.7,1.2l1.6,1.2l1.3-1.4c0.7-0.8,1.3-1.9,1.3-2.6c0-0.8,0.2-1.2,0.8-1.2
		c1.1,0,2.7-2.8,2.3-3.9c-0.3-0.8-1.5-1-1.9-0.3c-0.1,0.2-1.3,0.5-2.5,0.5h-2.2l1.3-1.1c1.3-1.1,2.2-2.9,1.9-4.1
		c-0.1-0.6-2.9-2.3-3.8-2.3c-0.2,0-1,0.6-1.8,1.3c-1.5,1.2-1.5,1.3-1,3.1C247.2,449.9,247.2,450.1,246.1,451.1z"/>
	<path fill="#007A5E" d="M262.3,240.1c0-12.1,3.7-23.3,10.1-32.5L239,184.7c0,0.1-0.1,0.2-0.1,0.3c-0.3,0.8-0.6,2.2-0.6,3.1
		c0,0.9-0.2,2.1-0.5,2.8c-0.4,1.1-0.7,1.2-2.6,1.2c-2.1,0-2.1,0-2,1.5c0.2,2-0.7,4.2-2.7,6.8c-1.3,1.5-1.7,2.6-1.9,4.4
		c-0.2,1.9-0.6,2.7-2,4.4c-1.7,1.9-1.8,2.2-1.8,5c0,2.9,0,3-1.9,4.2c-1,0.7-1.9,1.4-1.9,1.7c0,0.3,1.7,2,3.7,4c2,2,3.9,4.1,4.1,4.8
		c0.3,0.7,0.6,3.2,0.8,5.5l0.3,4.2l1.3-0.3c1.2-0.2,1.3-0.1,1.3,0.9c0,0.6,0.5,2.1,1.2,3.2l1.2,2l-1.3,0.6c-1.3,0.6-2,0.1-2-1.4
		c0-1.1-0.6-1.4-2.1-1c-0.9,0.2-1.6,1.1-2.6,3.2c-0.8,1.5-2.2,3.7-3.2,4.7c-1,1.1-1.9,2.6-2.1,3.5c-0.2,0.9-0.7,2.4-1.2,3.3
		c-0.9,1.7-0.8,1.8,0,3.2c0.8,1.3,2.1,6.4,1.8,6.6c-2.4,1.5-3.8,2-5,1.8l-1.4-0.2v2.5c0,1.4-0.1,3.5-0.3,4.7c-0.3,2-0.4,2.1-3.2,3.3
		c-4.4,1.9-6.4,3-7.4,3.7c-0.9,0.7-0.8,1.6,0.5,6.6c0.2,0.9,0.1,1.1-0.9,1.1c-0.7,0-1.7-0.2-2.2-0.5c-0.5-0.3-1-0.4-1.1-0.3
		c-0.1,0.1,0.1,1.5,0.6,3.1c0.7,2.9,0.7,2.9,2.4,2.9c1.5,0,1.9,0.3,3.3,2.5c2.6,3.8,4.8,5.6,7.3,5.9c1.9,0.2,2.2,0.4,2.6,1.6
		c0.2,0.7,1.1,2.2,1.8,3.4l53-36.2C266,263.4,262.3,252.2,262.3,240.1z"/>
	<path fill="#007A5E" d="M498.2,67.3C498.2,67.3,498.2,67.2,498.2,67.3l-178.3-0.1c0,0,0,0.1-0.1,0.1H498.2z"/>
	<path fill="#007A5E" d="M377.5,240.1c0,12-3.7,23.2-10,32.5l88.6,60.6c0.3,0,0.6,0,1,0c1,0,2.4,0.2,3,0.6c1.6,0.7,1.9,0.3,0.9-1.5
		l-0.8-1.5l1.4,0.3c1.3,0.3,1.4,0.2,1.1-0.6c-0.2-0.5-1.2-1.5-2.3-2.3c-1.7-1.2-2-1.7-2-3c0-1.1,0.4-1.9,1.2-2.6
		c1.1-1,1.1-1.1,0.4-2.3c-0.6-1.1-0.6-1.4,0-3c0.6-1.5,0.6-1.9,0-3.3c-1-2.5-0.8-3.8,1.2-6.8c1.7-2.4,2-2.7,3.4-2.7
		c1.3,0,1.9,0.4,2.9,1.7c1,1.3,1.8,1.7,3.2,1.9c1.9,0.2,1.9,0.2,2.6-1.4c0.6-1.4,0.9-1.7,2.1-1.7c2.1,0,1.9-1.5-0.5-3.2
		c-3.2-2.3-3.6-2.7-3.6-3.8c0-0.6-0.5-1.6-1.1-2.3c-1.3-1.5-2-5.4-1.3-6.8c0.4-0.6,0.3-1.1-0.2-1.8c-0.4-0.5-0.7-1.6-0.7-2.5
		c0-1.1-0.6-2.5-1.6-4.1c-0.9-1.3-1.9-2.9-2.1-3.5c-0.2-0.7-0.9-1.3-1.8-1.4c-1.4-0.3-1.4-0.3-1.4-3.4c0-2.7,0.1-3.2,1.2-4.2
		c0.8-0.8,1.2-1.6,1.2-2.8c0-1,0.1-2.7,0.3-3.9c0.3-2,0.4-2.1,1.7-2.1c1.2,0,1.3-0.1,1.2-1.3c-0.1-1-0.5-1.4-1.9-1.8
		c-1.3-0.4-2-0.9-2.7-2.2c-0.5-0.9-1.2-1.7-1.5-1.7c-0.6,0-0.7-1-0.7-5.9c0-7.8,0.2-8.9,2.3-11.3c1.5-1.8,1.7-2.2,1.7-4.8
		c0-2.1,0.3-3.2,0.8-3.8c0.4-0.5,0.8-1.4,0.8-2c0-0.8,0.4-1.3,1.2-1.7c0.8-0.4,1.2-0.9,1.2-1.7c0-0.6,0.8-2.4,1.9-3.9l1.9-2.8h2.4
		c1.3,0,2.9,0.3,3.6,0.7c0.7,0.4,2.6,0.6,5.1,0.7c3.3,0,4.1-0.1,5-1c0.6-0.5,2-1.2,3.3-1.5l2.3-0.6l4.4,3.2c2.4,1.8,4.6,3.2,4.9,3.2
		c0.3,0,0.6-0.8,0.7-1.8c0.1-0.9,0.6-2.5,1-3.5l0.7-1.7l-1.3-0.5c-0.7-0.3-2.6-0.5-4.1-0.5c-1.5,0-3.1-0.1-3.4-0.4
		c-1-0.6-3.8-9.7-3.8-12.3c0-1.3-0.3-3.6-0.6-5.1c-0.6-2.5-0.6-2.9,0.1-4.6c0.7-1.6,0.7-2.3,0.4-4.8c-0.4-2.1-0.4-3.6,0-5.6
		c1.4-6.5,3.8-21.2,3.8-23.2c0-1.5,0.4-3.1,1.4-5c1.1-2.1,1.3-3.1,1.1-4.6c-0.1-1,0-3.1,0.5-4.6c0.4-1.5,0.7-3.9,0.7-5.4
		c0-3.9,0.8-5,3.8-5c2.3,0,2.3,0,2.3-1.5c0-0.8-0.3-1.9-0.7-2.4c-0.5-0.6-0.7-2-0.7-3.8c0-1.6-0.3-3.7-0.7-4.6
		c-0.3-0.8-0.5-1.6-0.5-2.8l-135.8,92.8C373.8,216.9,377.5,228.1,377.5,240.1z"/>
	<path fill="#FCD116" d="M319.9,297.7c-19.7,0-37.1-9.9-47.5-25.1l-53,36.2c0,0,0,0.1,0.1,0.1c0.8,1.2,1.8,3.3,2.3,4.7l0.8,2.7
		l-1.9,2.6c-1,1.5-2.6,3.4-3.5,4.3c-0.9,0.9-2.3,2.7-3.1,4.1c-1.2,2-1.4,2.7-1.1,4.3c0.2,1,0.8,2.4,1.4,3.1c1.6,1.9,2,4.1,2.3,12.4
		c0.3,6.7,0.2,7.5-0.4,7.7c-0.6,0.3-0.7,0.9-0.6,3.4c0.1,2.9,0.2,3.2,1.2,3.3c0.6,0.1,1.8-0.1,2.6-0.4c1.3-0.5,1.9-1.1,3.8-4.6
		c1.9-3.6,2.3-4,3.1-3.8c1.6,0.6,1.8,2.1,0.5,3.3c-1.3,1.2-1.6,3.7-0.5,3.7c0.4,0,1.3,0.7,2,1.5c0.7,0.9,2.3,2.2,3.5,3
		c2.1,1.4,2.1,1.6,1.7,2.9c-0.6,1.7-0.6,1.7-3.2,2.1l-2.2,0.3l-0.6-1.7c-0.9-2.7-2.6-3.1-5.8-1.1c-1.3,0.7-1.5,1.2-1.7,3.2
		c-0.1,1.3-0.6,2.7-1,3.2c-1.8,2-3.1,10.8-2.2,14.7c0.6,2.4,0.5,2.7-0.7,6.8l-1.4,4.3l-4.4,3.1c-2.4,1.7-5.3,3.3-6.4,3.7
		c-1.1,0.3-2.9,1.4-4,2.4l-1.9,1.8h-6c-5.9,0-6,0-7.6-1.4c-1.4-1.2-1.9-1.4-4.4-1.4h-2.8l2.3,2.1c1.3,1.1,2.9,2.2,3.6,2.3
		c0.8,0.2,1.1,0.4,1.2,1.2h173.3c0.2-1.9,0.6-3.2,1-3.6c0.6-0.6,0.8-0.6,2,0.8c0.5,0.6,1.2,1.7,1.9,2.8h8.8
		c-0.3-0.3-0.6-0.6-0.8-1.1c-0.4-1.2-0.3-1.5,1.2-2.7c1.9-1.6,4.2-1.8,5.6-0.4c0.5,0.5,0.9,1.3,0.9,1.8c0,0.4,0.6,1.4,1.5,2.5h5
		c0.1-0.1,0.1-0.3,0.2-0.4l0.6-1.5l1.8,0.8c3,1.3,3.2,1.3,4.5-0.5c0.7-0.9,1.3-1.9,1.3-2.1c0-0.3-0.9-2.3-2.1-4.4l-2.1-3.9l2.6-0.2
		c2.5-0.1,2.6-0.1,3.2,1.3c0.3,0.7,1.1,1.9,1.8,2.5l1.2,1.1v-1.8V402l3.2,0.2c2.4,0.2,3.4,0.1,3.9-0.4c0.6-0.6,0.9-0.6,2.3,0.1
		c1.1,0.5,1.9,0.6,2.4,0.3c0.6-0.3,0.2-1.1-2.5-4.7c-1.9-2.6-3.2-4.6-3-5c0.1-0.4,0.3-0.8,0.3-1.1c0-0.2,0.6-0.5,1.3-0.7
		c1.1-0.2,1.8,0,3.2,1.1c1.7,1.3,2.1,1.3,3.5,0.9c1.2-0.3,1.9-0.3,2.8,0c1.1,0.5,1.2,0.5,1.2-1.1c0-1.9,1-2.5,2.4-1.6
		c0.8,0.5,1.1,0.4,2.3-0.7c1.5-1.4,1.5-1.6,0.8-4.7l-0.5-2.3l-3.1-0.3c-4.5-0.4-6.6-1.1-6.6-2.2c0-0.7,0.4-0.8,2.5-0.8
		c3.7,0,3.8-0.1,3.6-2.8c-0.1-1.3,0-2.3,0.1-2.3c0.2,0,2.3,1.3,4.7,2.8c2.4,1.5,4.7,2.8,5.1,2.8c1.2,0,1.2-0.9,0-2.8l-1.2-1.9
		l1.5,0.3c1.2,0.3,1.5,0.1,1.7-0.6c0.4-1.7,2.3-1.6,4.8,0.2c1.8,1.3,2.5,1.6,2.9,1.1c0.4-0.4,0.2-0.9-1.1-2c-1.6-1.4-1.6-1.6-1.2-3
		c0.8-2.3,2.7-3.3,6.3-3.3l3,0l-2.4-2.2c-2.4-2.1-2.5-2.3-2.5-4.6c0-1.9,0.2-2.5,1-2.9c0.8-0.4,1.4-0.3,3.2,0.7
		c2.8,1.5,4.3,1.4,4.5-0.3c0.1-1-0.1-1.3-1.3-1.7c-1-0.4-1.5-0.9-1.7-1.9c-0.2-1.2-0.7-1.6-3-2.5c-2.1-0.8-2.7-1.3-2.7-2
		c0-1.3,1.1-2.2,2.3-1.9c0.8,0.2,4.4-1.9,5.1-3c0.1-0.2,1.1,0,2.1,0.5c3.9,2.1,4.6,0.6,1.3-2.7c-2.3-2.3-2.9-4.2-2.4-7.2
		c0.2-1.3,0.6-1.8,1.6-2.1c1.1-0.4,1.4-0.3,2.3,0.8c3.2,3.8,3.2,3.8,4.9,3.8c1.5,0,1.7-0.1,1.7-1.2c0-0.8-0.2-1.2-0.9-1.2
		c-1.6,0-2.4-0.6-2.4-1.7c0-0.7,0.1-1,0.8-1.1l-88.6-60.6C357.1,287.7,339.7,297.7,319.9,297.7z"/>
	<path fill="#FCD116" d="M318.2,69.3c-3.5,4.4-7.1,7.7-9,8.3c-1.1,0.3-2.2,1.3-3.3,2.7l-1.7,2.3l-4.8,0.8c-2.6,0.5-5.7,1.3-6.9,1.8
		c-2.8,1.3-5.9,3.8-6.3,5.1c-0.9,2.9-3.5,6.2-6.9,8.4c-1.9,1.3-3.5,2.7-3.7,3.2c-0.1,0.6-0.3,3.1-0.3,5.7c0,4.5-0.1,4.9-1.4,7
		c-0.7,1.3-1.4,2.6-1.4,2.9c0,0.3-0.8,3-1.7,5.8l-1.7,5.2l-2.3,1.1c-1.7,0.7-2.9,1.9-4.4,3.8l-2,2.7l0.5,2.6
		c0.7,3.7-0.4,9.4-2.8,13.8c-1,1.8-2.3,5.2-3,7.7c-1,3.6-1.5,4.7-2.9,6c-0.9,0.9-2.1,2.5-2.5,3.5c-0.9,2.1-4.4,4.6-7.5,5.5
		c-1.5,0.4-1.9,0.8-2.1,1.7c0,0.6-0.5,1.7-1,2.3c-0.7,1-0.7,1.4-0.2,2.8c0.4,1.2,0.4,1.8,0,2.8l33.4,22.8
		c10.4-15.1,27.8-25.1,47.5-25.1c19.8,0,37.2,10,47.6,25.1l135.8-92.8c0-0.6,0-1.4,0.1-2.2c0.2-2.9,0.1-3.9-0.8-6.3
		c-1-2.7-1-3.1-0.5-8c0.6-5.6,1.2-8.7,2.1-10.5c0.3-0.6,0.5-1.8,0.3-2.5c-0.2-1.1-0.5-1.3-1.7-1.3c-2.1,0-4.8-2.7-4-4.1
		c0.3-0.6,0.3-1.4,0-2.5c-0.3-0.9-0.5-3.7-0.5-6.4c0-1.6-0.1-2.8-0.2-3.9H319.8C319.3,67.9,318.8,68.6,318.2,69.3z"/>
	<path fill="#CE1126" d="M272.4,272.6c10.4,15.1,27.8,25.1,47.5,25.1c19.8,0,37.2-10,47.6-25.1c6.3-9.2,10-20.4,10-32.5
		s-3.7-23.2-10-32.5c-10.4-15.2-27.8-25.1-47.6-25.1c-19.7,0-37.1,9.9-47.5,25.1c-6.4,9.3-10.1,20.5-10.1,32.5
		S266,263.4,272.4,272.6z M320,187.2l11.9,36.5h38.4l-31,22.5l11.9,36.5l-31-22.5l-31,22.5l11.9-36.5l-31-22.5h38.4L320,187.2z"/>
	<polygon fill="#FCD116" points="320,187.2 308.1,223.7 314.5,223.7 	"/>
	<polygon fill="#FCD116" points="317.4,223.7 322.6,223.7 331.9,223.7 320,187.2 314.5,223.7 	"/>
	<polygon fill="#FCD116" points="322.6,223.7 322.6,231.6 323,231.5 323.8,230.3 324.3,231.3 370.2,223.7 331.9,223.7 	"/>
	<polygon fill="#FCD116" points="324.3,231.3 325.2,232.9 328,233.4 326.8,235.1 334.7,232.5 339.2,246.2 370.2,223.7 	"/>
	<polygon fill="#FCD116" points="322.6,231.6 322.6,232 323,231.5 	"/>
	<polygon fill="#FCD116" points="334.7,232.5 326.8,235.1 326.5,235.5 329,240.2 330.4,240.7 329.6,241.4 351,282.7 339.2,246.2 	
		"/>
	<polygon fill="#FCD116" points="324.3,231.3 323.8,230.3 323,231.5 322.6,232 322.6,232.5 325.2,232.9 	"/>
	<polygon fill="#FCD116" points="329.6,241.4 326.5,244.6 331.7,251.7 320,260.2 351,282.7 	"/>
	<polygon fill="#FCD116" points="324.2,238.6 329,240.2 326.5,235.5 	"/>
	<polygon fill="#FCD116" points="331.7,251.7 326.5,244.6 322.6,248.6 322.6,250.1 321.6,249.6 289,282.7 320,260.2 	"/>
	<polygon fill="#FCD116" points="321.6,249.6 317.7,247.6 312.5,254.7 300.8,246.2 289,282.7 	"/>
	<polygon fill="#FCD116" points="326.5,244.6 329.6,241.4 330.4,240.7 329,240.2 324.2,238.6 322.6,240.8 322.6,248.6 	"/>
	<polygon fill="#FCD116" points="312.5,254.7 317.7,247.6 269.8,223.7 300.8,246.2 	"/>
	<polygon fill="#FCD116" points="324.2,238.6 326.5,235.5 326.8,235.1 328,233.4 325.2,232.9 322.6,232.5 322.6,240.8 	"/>
	<polygon fill="#FCD116" points="269.8,223.7 317.7,247.6 321.6,249.6 322.6,250.1 322.6,248.6 322.6,240.8 322.6,232.5 322.6,232 
		322.6,231.6 322.6,223.7 317.4,223.7 314.5,223.7 308.1,223.7 	"/>
	<path fill="#FCD116" d="M335.3,49.4l-1.2,0.4c-0.1,0-0.3,0.1-0.4,0.1l4.6,8.9L335.3,49.4z"/>
	<path fill="#FCD116" d="M333.7,49.9c-1.6,0.5-3.6,1.3-5,2l9.6,7L333.7,49.9z"/>
	<path fill="#FCD116" d="M447.1,24l0.7-4.5c-1.4,0.6-2.4,1-3.4,1.2l-1.1,3.3H447.1z"/>
	<path fill="#FCD116" d="M448.8,24h3.1h5.5l-2.4-7.4c-1.7,0.6-4.1,1.5-5.9,2.3c-0.5,0.2-0.9,0.4-1.3,0.6l-0.7,4.5H448.8z"/>
	<polygon fill="#FCD116" points="451.8,24 451.8,28.6 452,28.6 452.6,27.9 452.9,28.5 480,24 457.3,24 	"/>
	<polygon fill="#FCD116" points="452.9,28.5 453.4,29.4 455,29.7 454.3,30.7 459,29.2 461.6,37.3 480,24 	"/>
	<polygon fill="#FCD116" points="452,28.6 451.8,28.6 451.8,28.9 	"/>
	<polygon fill="#FCD116" points="459,29.2 454.3,30.7 454.1,30.9 455.6,33.7 456.4,34 456,34.5 468.6,58.8 461.6,37.3 	"/>
	<polygon fill="#FCD116" points="451.8,29.1 453.4,29.4 452.9,28.5 452.6,27.9 452,28.6 451.8,28.9 	"/>
	<polygon fill="#FCD116" points="456,34.5 454.2,36.3 457.2,40.5 450.3,45.5 468.6,58.8 	"/>
	<polygon fill="#FCD116" points="455.6,33.7 454.1,30.9 452.8,32.8 	"/>
	<polygon fill="#FCD116" points="457.2,40.5 454.2,36.3 451.8,38.7 451.8,39.6 451.2,39.3 432,58.8 450.3,45.5 	"/>
	<polygon fill="#FCD116" points="452.8,32.8 451.8,34.1 451.8,38.7 454.2,36.3 456,34.5 456.4,34 455.6,33.7 	"/>
	<polygon fill="#FCD116" points="451.2,39.3 448.9,38.1 445.9,42.3 439,37.3 432,58.8 	"/>
	<polygon fill="#FCD116" points="451.8,34.1 452.8,32.8 454.1,30.9 454.3,30.7 455,29.7 453.4,29.4 451.8,29.1 	"/>
	<polygon fill="#FCD116" points="445.9,42.3 448.9,38.1 420.6,24 439,37.3 	"/>
	<polygon fill="#FCD116" points="448.9,38.1 451.2,39.3 451.8,39.6 451.8,38.7 451.8,34.1 451.8,29.1 451.8,28.9 451.8,28.6 
		451.8,24 448.8,24 447.1,24 443.3,24 420.6,24 	"/>
	<polygon fill="#FCD116" points="185.5,445 185,444.3 185.6,444.2 189.7,417 181,443.8 185.5,445.2 	"/>
	<polygon fill="#FCD116" points="185.5,445.2 185.7,445.3 185.5,445 	"/>
	<polygon fill="#FCD116" points="186.6,444 187.4,442.5 188.2,443.5 188.2,438.6 196.7,438.6 189.7,417 185.6,444.2 	"/>
	<path fill="#FCD116" d="M196.7,438.6h-8.5v4.9l0.2,0.2l3.1-0.5l0.5-0.7l0.3,0.6l5.5-0.9c0.3-1.5,0.6-1.9,1.1-1.9
		c0.8,0,1.4,0.4,1.8,1.4l18.7-3.1H196.7z"/>
	<polygon fill="#FCD116" points="185.6,444.2 185,444.3 185.5,445 185.7,445.3 185.9,445.4 186.6,444 	"/>
	<path fill="#FCD116" d="M200.7,441.7c0.4,0.9,0.7,2.4,1,4.5c0.4,2.7,0.6,3.9,1.4,4.2l16.3-11.8L200.7,441.7z"/>
	<polygon fill="#FCD116" points="191.4,443.2 188.3,443.7 189.7,445.6 	"/>
	<path fill="#FCD116" d="M192.3,443.1l1.2,2.3l4-1.3c0.1-0.8,0.2-1.4,0.2-1.9L192.3,443.1z"/>
	<path fill="#FCD116" d="M206.3,468.1c-0.1,0.4-0.2,0.8-0.4,1.3l2.1,4.1L206.3,468.1z"/>
	<path fill="#FCD116" d="M193.5,445.4l1.5,2.9l0.8,0.3l-0.5,0.5l1.5,3c0-0.6,0.1-1.2,0.1-1.8c0.2-2.7,0.3-4.7,0.4-6.1L193.5,445.4z"
		/>
	<polygon fill="#FCD116" points="190.6,446.9 195,448.3 193.5,445.4 192.3,443.1 192,442.5 191.4,443.2 189.7,445.6 	"/>
	<path fill="#FCD116" d="M205.9,469.4c-0.2,0.7-0.4,1.4-0.6,2.1l2.7,1.9L205.9,469.4z"/>
	<path fill="#FCD116" d="M195.4,449.1l-1.8,1.9l3,4.2l-3.8,2.7c0,0.4,0,0.9,0,1.5c0,1.3-0.1,2.2-0.3,2.9l1.9,1.4l0.7-2.1
		c1.1-3.5,1.5-5.4,1.8-9.4L195.4,449.1z"/>
	<polygon fill="#FCD116" points="186.6,444 185.9,445.4 190.6,446.9 189.7,445.6 188.3,443.7 188.2,443.5 187.4,442.5 	"/>
	<path fill="#FCD116" d="M196.6,455.1l-3-4.2l-3.2,3.2c0.3,2,0.4,2.3,1.4,2.3c0.8,0,1,0.1,1.1,1.4L196.6,455.1z"/>
	<path fill="#FCD116" d="M193.6,450.9l1.8-1.9l0.5-0.5l-0.8-0.3l-4.4-1.4l-4.7-1.5l-0.2-0.1l-0.3-0.1l-4.4-1.4l0,0l-3.6,11.1
		c0.2,0.2,0.4,0.3,0.7,0.5c0.9,0.5,1.8,1.7,2.4,2.9l0.9,2.1l0.6-1.5c0.8-1.8,1.3-2.1,3.4-2.2l1.7,0l0.1-2.9c0.2-5.1,2.5-5.1,3.2,0.1
		c0,0.1,0,0.1,0,0.2L193.6,450.9z"/>
</g>
</svg>
