<?xml version="1.0" encoding="utf-8"?>
<!-- Generator: Adobe Illustrator 17.1.0, SVG Export Plug-In . SVG Version: 6.00 Build 0)  -->
<!DOCTYPE svg PUBLIC "-//W3C//DTD SVG 1.1//EN" "http://www.w3.org/Graphics/SVG/1.1/DTD/svg11.dtd">
<svg version="1.1" id="flag-icon-css-ge" xmlns="http://www.w3.org/2000/svg" xmlns:xlink="http://www.w3.org/1999/xlink" x="0px"
	 y="0px" viewBox="0 0 640 480" enable-background="new 0 0 640 480" xml:space="preserve">
<g>
	<path fill="#FFFFFF" d="M368,387.8h1.5c5.1,0,7.3-0.3,10.1-1.3c2.5-0.9,4.2-1.2,5.8-0.9c6.7,1.2,6.7,1.2,7.8-0.4
		c0.6-0.9,1.2-2.3,1.4-3.2s1.1-1.9,2-2.2c1.3-0.5,1.9-0.3,3.5,1.2c3.8,3.6,6,4,10.7,1.9l3-1.3l3,1.4c3.4,1.6,8.1,1.5,10.8-0.4
		c1.6-1,1.7-0.9,3.5,0.9c1.6,1.7,2,1.9,3.1,1.3c0.7-0.4,1.7-1.5,2.2-2.5c0.8-1.6,1.3-1.9,3.5-1.9c1.4,0,3.3,0.4,4.3,0.9
		c1.5,0.8,3.3,0.9,9.7,0.6c9.1-0.5,9.2-0.7,5.6-5.8l-2.2-3.1l1.6-1c1.1-0.7,1.5-0.9,3.5,0c-0.2-1.6-0.3-2.6-0.3-2.6s4.9,1,12.3,2.1
		c1.9-1.6,4.4-3.7,7.4-6.4c3.9-3.5,7.2-6.4,9.9-8.7c-1.1-8.5-2.3-14.2-2.3-14.2s9.9,1,14.8,1c5,0,14.8-1,14.8-1s-0.8,3.8-1.7,9.9
		l0.4,0l5.1-0.4l1.7,2.6c1.5,2.1,2.1,2.5,4,2.5c3.7,0,7.3,1.3,9.7,3.6c2.2,2.1,2.4,2.2,6.1,1.7c2.1-0.2,3.8-0.2,3.8,0
		s-1,1.5-2.2,2.8c-1.2,1.4-2.2,2.7-2.2,3c0,0.2,0.5,0.8,1.4,1.7c0.7-0.1,1.1-0.2,1.1-0.2s0,0.4-0.1,1.1c2.5,2.3,6.4,5.4,9.2,7.3
		c2.1,1.4,6.1,3.2,9,4.2c6.6,2.2,11.7,1.9,17.9-0.9c2.9-1.3,4.6-1.7,6.1-1.5c1.1,0.2,3.2,0,4.5-0.4l2.4-0.7l6.3,6.2
		c6.4,6.3,8.4,7.7,9.8,7.3c3.7-1.2,4.1-1.1,4.9,1.1c0.9,2.9,2.7,4.2,5.4,4.4c2.2,0.1,2.3-0.1,3.6-3.4c1.2-3.2,1.5-3.4,3.4-3.6
		c4.1-0.3,5-0.7,5.8-2.8c0.5-1.1,1.6-2.4,2.5-2.9c1.4-0.7,1.7-1.4,1.7-3.1c0-1.2,0.4-2.8,0.8-3.5c0.9-1.2,0.9-7.9,0.1-13.2
		c-0.4-2.3-0.7-2.6-3.5-3.9c-2.4-1-3.3-1.7-4-3.5c-0.9-2.1-1.1-2.2-4-2.2c-1.9,0-3.3-0.3-3.8-0.9c-0.4-0.5-1.2-0.9-1.8-0.9
		c-0.6,0-2.5-1.2-4.2-2.8s-3.6-2.8-4.2-2.8c-0.6,0-1.4-0.7-1.7-1.5c-0.3-0.9-1.2-1.6-2.3-1.9c-0.9-0.2-2.2-0.7-2.7-1.2
		c-0.5-0.5-1.7-1-2.7-1.2c-1.4-0.3-1.7-0.7-1.4-1.6c0.2-0.8-0.2-1.7-1.2-2.8c-0.9-0.9-1.6-2.3-1.6-3.2c0-1.3,0.3-1.6,1.8-1.6
		c2.3,0,2.8-1.4,1.2-3.4c-1.1-1.4-1.5-1.5-2.6-0.9c-1.3,0.7-2.4-0.1-2.4-1.8c0-1-0.3-0.9-2.6,0.2c-1,0.5-2.4,0.7-3,0.6
		c-1.9-0.6-3.8-5.9-3.8-10.6c0-4.8,1.1-7.9,3.4-9.4c1.4-0.9,2-0.9,4-0.3c4.4,1.2,3.9,1.6,11.1-6.5c2.6-3.1,3.6-4.7,4.5-8.2l1.2-4.3
		l-0.1-0.1H368V387.8z"/>
	<path fill="#FFFFFF" d="M162.3,288c0.2,2.1,0.4,4.5,0.5,7.5c0.4,6.6,0.4,6.6-1.5,10c-1.1,1.9-2.1,4.6-2.4,6.1
		c-0.6,3.4-6.8,12-9.6,13.2c-1.2,0.5-2.6,1.9-3.7,4c-1.1,1.7-3.1,5-4.7,7.2c-1.6,2.2-2.9,4.2-2.9,4.5s1.6,0.6,3.5,0.9
		c1.8,0.2,3,0.6,4.1,1.2c2.9-0.2,5.1-0.5,5.1-0.5s-0.2,1.2-0.6,3.3c0.7,0.1,1.4,0.1,2.5,0.1c2.6-0.1,3.5,0.1,4.4,1.1
		c0.6,0.7,2.2,1.4,3.4,1.6c1.7,0.2,2.6,0.9,3.4,2.1c1.4,2.4,4.1,2.9,4.8,0.9c0.3-0.8,1.3-1.6,2.2-1.9c0.9-0.2,2.2-1.4,3.1-2.7
		c0.8-1.2,2.6-3.1,4.1-4.1l2.6-1.8l2,1.1c1.1,0.6,3.1,1.7,4.4,2.4l2.4,1.3l2.4-1.4c2-1.2,2.6-1.2,3.9-0.6c1.4,0.6,1.8,0.5,2.8-0.4
		c1.2-1.1,1.4-1.1,4.6,0.8c2.5,1.4,4.2,1.9,6.4,1.9c2,0,3.4,0.4,4.2,1.2c1.6,1.4,4.9,2.6,7.3,2.6c1.2,0,2.7,0.8,4.3,2.3l2.6,2.2
		l2.2-1c1.2-0.6,2.7-1.9,3.2-3.1c0.6-1.1,2.2-3.3,3.7-5c1.4-1.7,2.6-3.7,2.6-4.5c0-3.9,0.7-5.2,3.5-6.5c3.6-1.8,13.6-2,14.2-0.4
		c0.3,0.8,0.9,0.9,3.1,0.6l2.8-0.4l-0.4,3.6c-0.2,2.4-0.7,3.9-1.6,4.6c-1.1,0.9-1.1,1.1,1.6,3.2l2.8,2.4l2-2.1l2.1-2l0.9,2.4
		c0.3,0.8,0.6,1.3,0.9,1.7V288H162.3z"/>
	<path fill="#FFFFFF" d="M272,131.8c-0.5-0.5-1-1-1.6-1.6c-2.1-2.2-2.6-2.4-3.7-1.9c-1.1,0.4-2.1,0.3-4.1-0.6
		c-2.1-0.9-2.9-1-3.9-0.5c-0.9,0.5-1.6,0.5-2.5,0c-1.9-1-3.4-0.2-4.4,2.1c-1.4,3.1-3.9,3.1-9.5-0.3c-2.5-1.4-5.6-3.7-7-4.9
		c-3.4-3.1-5.7-3.7-13.1-3.7c-4.4,0-6.7-0.2-7.5-0.9c-0.9-0.6-1.6-0.7-2.7-0.2c-0.9,0.3-2.1,0.5-2.8,0.4c-3.9-0.2-5.3,0.2-9.2,3.2
		l-4.1,3.1l-7.4-1.9c-10.6-2.8-10.9-2.8-13.7-0.9c-3.1,2.1-5.4,2.1-8.9-0.2c-2.4-1.5-3.6-1.9-7.6-2c-2.6-0.1-5.7,0.1-6.9,0.3
		c-1.5,0.3-2,0.4-3.2-1c1.2,10.4,2.8,17.8,2.8,17.8s-7.4-1-14.8-1s-14.8,1-14.8,1s3-14.3,4-31.2c-16.9,1-31.2,4-31.2,4s1-7.2,1-14.4
		l0,0c-1.9-1.3-4.9-3.8-6.8-5.5c-3.6-3.2-8.3-5.8-13.5-7.6c-2.4-0.7-3.7-1.7-5.3-3.8l-2.2-2.9l-3.8,0.2c-2.9,0.1-4.5,0.6-6.5,1.9
		c-2.4,1.6-3.1,1.7-6.8,1.5c-4.5-0.3-6.8-1.3-11.7-4.9c-2.1-1.6-4.4-2.6-6.7-3.1c-2.1-0.4-4.6-1.3-5.6-1.9c-1.8-1.1-4.7-1.4-7.6-0.7
		c-0.7,0.1-2.7,0.8-4.4,1.5c-3.6,1.4-4.9,3.3-7.2,9.7c-0.6,1.9-1.6,4.2-2.2,5.1c-1.1,1.7-4.1,10.2-3.7,10.6c0.1,0.1,1.7,0.4,3.6,0.6
		c2.6,0.3,3.9,0.8,5.7,2.4c2.8,2.5,5.1,3.7,8.2,4.3c1.8,0.4,2.6,1,3.8,3.1c1.8,3.1,3.4,9.1,3.1,11.2c-0.2,1.1,0.1,1.9,1.3,2.8
		c0.9,0.7,2.2,2.6,2.9,4.2l1.3,2.9l1.4-1.3c1.9-1.8,3.8-1.6,6.6,0.6c1.3,1,3.8,2.2,5.6,2.7c2.3,0.6,4.3,1.7,6.7,3.9
		c3.1,2.7,3.6,2.9,5.7,2.5c3.4-0.7,9.4-0.4,12.9,0.7c1.7,0.5,3.9,0.9,4.9,0.9c2.8,0,5.8,2.7,6.7,6c0.4,1.6,1.3,3.2,2,3.6
		c0.6,0.4,1.1,1,1.1,1.3c0,0.4,0.7,1.4,1.6,2.4l1.7,1.7l1.6-1.2c2.1-1.6,4.6-1.6,6.2,0.1c2.4,2.6,5.8,11,5.8,14.2
		c0,2.6,0.3,3.3,3.2,6.5c2.8,3.1,3.3,3.5,4.4,2.9c2.2-1.2,6.6-0.3,8.9,1.9c1.6,1.5,2.6,1.9,4.4,1.9c4.1,0.1,8,1.2,9.9,3
		c1,0.9,2.9,4,4.1,6.8c0.4,0.9,0.8,1.9,1.2,3.1H272V131.8z"/>
	<path fill="#FFFFFF" d="M443.8,184.6c-1.4-1.2-9.6-3-13.9-3c-3.4,0-8.1,1.4-13.1,4c-2.8,1.4-4.1,1.6-8.9,1.6h-5.6l-0.7,2.6
		c-0.2,0.7-0.4,1.4-0.7,2.1h47.6C447,189,445,185.7,443.8,184.6z"/>
	<path fill="#FFFFFF" d="M488.5,189c-2.6-2.7-3.9-2.9-7.4-1.1c-4.5,2.3-6.2,1.8-11.6-3.2c-5.2-5.1-6.2-5.2-10.9-2.1
		c-2.3,1.6-2.4,1.8-2.7,5.4c-0.1,1.9-0.4,3.1-0.9,4.1h36.6C490.6,191.1,489.4,189.9,488.5,189z"/>
	<path fill="#FF0000" d="M272,288v59.8c0.4,0.5,0.8,0.5,1.5,0.3c1.1-0.2,1.5,0,1.9,1.1c0.3,0.8,1.3,2.1,2.2,2.9
		c0.9,0.9,1.6,2,1.6,2.5c0.1,1.6,6.1,7.6,7.7,7.6c1.8,0,3.7,1.7,4.8,4.3c0.6,1.4,1.2,1.9,2.2,1.9c0.7,0,1.6,0.3,1.9,0.7
		c0.2,0.4,1,0.5,1.8,0.3c1-0.2,1.6-0.1,1.8,0.6c0.6,1.7,0.4,2.7-0.6,2.7c-1.7,0-4.5,1.8-4.9,3.1c-0.3,1.1,0,1.2,2.2,1.2
		c1.4,0,3,0.2,3.4,0.5c0.4,0.3,1.4,2.4,2.2,4.9c1.7,5,2.3,5.3,6.7,3.4c3.1-1.3,7-1.6,11.3-0.9c1.9,0.3,2.4,0.8,3.9,3.7
		c0.9,1.9,1.7,4.1,1.7,4.9c0,1.9,0,1.9,5.4,0.1c3.4-1.2,4.6-1.4,5.6-0.8c1.1,0.6,5.1,1.2,14.7,2.1l3.4,0.3l4.2-3.7l4.1-3.8h5.1V288
		H272z"/>
	<path fill="#FF0000" d="M355.3,192c1.2-1.6,2.4-3,2.9-3.4c0.6-0.4,1.6-1.6,2.1-2.6l0.9-1.7l-3.9-2.4c-2.5-1.5-5.2-2.5-7.6-2.9
		c-3.1-0.5-4-0.9-5.3-2.6c-4-5.2-9.7-8.9-15.6-10.1c-1.2-0.2-2.6-0.8-3.1-1.2c-1.1-0.9-6.6-2.2-9.4-2.2c-1,0-3.1-0.7-4.7-1.6
		c-1.9-1-3.9-1.6-5.7-1.6c-3.7,0-6.7-1.7-12.5-6.9c-2.7-2.5-6.2-5.7-7.8-7.2l-3-2.7l0.9-2.6c1.1-3.3,0.6-4-3.9-4.9
		c-3.4-0.7-5.2-1.5-7.4-3.6V192H355.3z"/>
	<path fill="#FF0000" d="M454.1,193.4c-1.6,1.6-1.6,1.8-0.7,3.4c0.8,1.5,0.8,1.7-0.1,2.1c-1.6,0.6-2.8-0.2-2.8-2.1
		c0-0.8-0.8-2.7-1.9-4.8H401c-1.3,3.2-3.3,6.4-4.5,6.8c-0.7,0.2-4.2,0.6-8,0.9c-7.4,0.6-9.7,1.6-12.6,5.3c-2.2,2.9-3.9,2.8-7.6-0.3
		c-2.9-2.4-3.1-2.4-8.6-2.6l-5.7-0.2l-1.2-2.4l-1.1-2.4l2.7-3.9c0.3-0.4,0.6-0.9,0.9-1.3H272H137.4c2.2,6.5,3.8,16.3,3.8,24.2
		c0,6.5,1.3,11,4.4,15.7c0.9,1.4,1.9,3.7,2.1,5.3s0.9,3.3,1.4,3.9c0.6,0.7,0.9,2,0.8,3.6c-0.1,1.5,0.2,3.1,0.9,4
		c0.8,1.3,1,2.9,0.9,8.1l-0.1,6.4l3.2,5c5.2,8.1,6.5,10.8,7.3,19.8H272h96h245.2l-1.6-2c-1.7-1.9-2.1-2.1-7-2.6
		c-4.9-0.4-5.3-0.6-6.7-2.5c-4.1-5.4-3.3-5.1-10.4-4.2c-3.4,0.4-6.8,0.6-7.4,0.4c-0.6-0.2-1.4-1.4-1.9-2.6c-1-2.4-2.4-3.2-3.4-1.9
		c-0.7,0.8-0.9,0.8-2.1,0c-1.7-1.2-3.6-1.2-5.3,0.1c-1.3,0.9-1.4,0.9-1.4-0.3c0-0.7-0.6-1.6-1.2-1.9c-0.7-0.4-1.2-1.3-1.2-2.2
		c0-2.9-2.1-5.1-5.4-5.6c-5.4-0.7-7.5-1.7-11.4-5c-2.7-2.4-4.4-3.4-6.4-3.7c-1.9-0.4-3.2-1.1-4.7-2.7c-1.8-1.9-2-2.6-1.7-4.5
		c0.2-1.2,1.2-3.6,2.2-5.4c2.7-4.9,5.3-11.4,6.4-16.5c0.6-2.5,1.5-5.6,2-6.7c0.9-2.2,0.9-2.2-1.1-4.2c-2.7-2.9-10.6-5.8-18.7-7.1
		c-4-0.6-4.4-0.5-10.5,1.6c-3.4,1.2-6.7,2.2-7.4,2.2c-0.7,0-1.4-0.8-2-2.4c-1-2.9-4.1-6.8-5.7-7.4c-0.7-0.2-1.7-1.6-2.4-3.1
		c-0.7-1.6-2.1-3.4-3.6-4.4c-0.4-0.3-0.9-0.7-1.4-1.1h-36.6C454.8,192.5,454.5,192.9,454.1,193.4z"/>
	<path fill="#FF0000" d="M544.9,369.4c0.3,0.3,0.6,0.6,1,0.9c0.1-0.7,0.1-1.1,0.1-1.1S545.6,369.3,544.9,369.4z"/>
	<path fill="#FF0000" d="M462.3,371.8c0.5,0.2,1.1,0.5,1.8,0.9c2.1,1.1,4.4,1.9,5.2,1.9c0.6,0,2.2-1.1,5-3.4
		c-7.4-1.1-12.3-2.1-12.3-2.1S462.1,370.2,462.3,371.8z"/>
	<path fill="#FF0000" d="M504,343c-4.9,0-14.8-1-14.8-1s1.2,5.7,2.3,14.2c11.6-9.9,13.3-9.7,17.9-6.2l2.9,2.2l4.8-0.3
		c0.9-6,1.7-9.9,1.7-9.9S509,343,504,343z"/>
	<path fill="#FF0000" d="M125.2,106.8c-1,16.9-4,31.2-4,31.2s7.4-1,14.8-1s14.8,1,14.8,1s-1.5-7.4-2.8-17.8
		c-0.6-0.6-1.3-1.5-2.3-2.9c-2.9-3.7-3.8-4.5-7.1-5.7c-2.9-1.1-3.7-1.7-3.7-2.7c0-0.7-0.7-2.1-1.7-3.1c-1.6-1.6-2.1-1.7-6.4-1.7
		c-4.2,0-5.2-0.2-9.1-2.3c-4.1-2.1-4.8-2.2-11.9-2.6l-7.6-0.4L95,96.4c0,7.3-1,14.4-1,14.4S108.3,107.8,125.2,106.8z"/>
	<path fill="#FF0000" d="M145.7,342.5c0.5,0.3,1,0.6,1.5,1.1c1.2,1,1.9,1.5,3,1.7c0.4-2.1,0.6-3.3,0.6-3.3S148.6,342.2,145.7,342.5z
		"/>
</g>
</svg>
