<?xml version="1.0" encoding="utf-8"?>
<!-- Generator: Adobe Illustrator 17.1.0, SVG Export Plug-In . SVG Version: 6.00 Build 0)  -->
<!DOCTYPE svg PUBLIC "-//W3C//DTD SVG 1.1//EN" "http://www.w3.org/Graphics/SVG/1.1/DTD/svg11.dtd">
<svg version="1.1" id="flag-icon-css-gf" xmlns="http://www.w3.org/2000/svg" xmlns:xlink="http://www.w3.org/1999/xlink" x="0px"
	 y="0px" viewBox="0 0 640 480" enable-background="new 0 0 640 480" xml:space="preserve">
<g>
	<path fill="#078930" d="M515,210.8c-2.6-1.8-2.9-2.2-2.9-4.3c0-2.8-1.8-6.2-5.1-9.4c-3.2-3.2-3.3-3.6-2.1-9.8l0.7-3.6l-2.5-2.2
		c-2.4-2.1-2.5-2.2-1.9-3.4c0.6-1.1,0.6-1.3-0.6-3.1c-1.3-1.9-2.6-6.2-2.6-8.4c0-2.4-1.9-7.6-3.7-10.4c-1.8-2.8-6.3-6.9-9.1-8.3
		c-1.8-0.9-4.2-1-6.7-0.2l-1.8,0.5l0.3,9.7c0.2,5.3,0.2,9.7,0,9.7c-0.2,0-0.9-0.3-1.7-0.7c-1.2-0.6-1.4-1-1.4-2.7
		c0-3.2-1.1-7.1-3.8-13.9c-2.4-6-2.7-6.6-6.4-10.8c-3.1-3.5-5-5.2-9.7-8.3c-7.8-5.2-14.4-10.8-16-13.4c-0.6-1.2-2.6-3.5-4.1-5.2
		c-3.4-3.6-4.4-3.8-6.9-1.3l-1.8,1.7l-0.6-1.6c-1.7-4-3.6-5.8-11-10.4c-7.6-4.7-11.1-7.5-16.4-13.1c-2.9-3.1-12.3-10.5-17.5-13.8
		c-3.8-2.4-9.8-9-11.8-12.8c-1-1.9-2.6-4.5-3.5-5.8c-0.9-1.3-2.1-3.1-2.6-3.9c-1.8-3.5-4-5.7-7.4-7.2c-3.7-1.7-7-2.2-14.4-2.3
		c-4.9,0-4.3,0.1-15.2-3.9c-2.8-1-3.5-1.1-5.9-0.7c-2.7,0.4-2.8,0.4-5.4-1.3c-3.5-2.3-4.6-2.6-12.9-2.9c-6.8-0.3-7-0.4-9.5-1.9
		c-1.4-0.9-3.6-1.7-4.9-1.9c-1.7-0.2-2.7-0.7-3.9-1.9c-0.9-0.8-2.8-2.1-4.2-2.8s-4.2-2.8-6.3-4.6l-3.8-3.4l-4-0.6
		c-3.9-0.6-4.3-0.7-7.6-3.2c-1.9-1.4-5.2-4.1-7.3-5.8c-3.4-2.9-4.2-3.3-7.2-4c-1.9-0.5-4.6-0.8-6.2-0.8c-2.6,0-3,0.2-5.8,2.2
		c-8.2,6.1-12,13.3-12.1,22.8c0,5.5-0.9,7.6-4.5,11.1c-1.4,1.4-4.1,4.5-5.9,7c-2.8,3.7-3.4,4.9-4.1,7.8c-0.7,2.9-0.9,3.4-1.8,3.4
		c-2.6,0-12.5,8.8-15.5,13.6c-0.9,1.6-3.3,4.6-5.3,6.7c-3.1,3.2-4.1,4.7-6.2,9.2c-1.4,2.9-3.8,7.1-5.2,9.3
		c-3.7,5.6-3.7,5.5-4.5,11.1c-0.4,2.8-1,5.9-1.4,7.1c-0.4,1-0.7,4.2-0.9,8L290.7,218h13.4l15.9-49l15.9,49h51.7l-41.8,30.4l4.7,14.5
		l90.4,67.8l0.4-0.2l6.3-10.3c3.5-5.7,8-13.3,10.1-17c2.1-3.7,5.1-8.6,6.7-10.9c2.4-3.5,3.2-5.5,5.7-12.5l2.8-8.4l3.2-1.1l3.2-1
		l0.6-2.7c0.6-2.6,0.7-2.9,3.7-5.3c3.8-3.2,7.1-6.5,10.2-10.6c2.1-2.7,2.4-3.5,2.9-6.4c0.3-1.8,0.5-4.1,0.5-5.1c0-1.7,0.3-2,3.4-4.6
		c2.2-1.8,4.5-3.2,6.2-3.9c3.9-1.4,5.6-2.8,5.9-4.9c0.2-1,1-3.9,1.9-6.4C517.1,212.1,517.1,212.1,515,210.8z"/>
	<path fill="#FCDD09" d="M361.8,297.6L320,267.2l-41.8,30.3l16-49.1L252.4,218h38.3l-128.4-96.3c-0.3,5-0.3,10.9,0,13.6
		c0.3,2.6,0.4,2.7,2.4,3.6c1.8,0.9,2.1,1.3,2.5,3.2c0.5,2.1,0.4,2.7-0.5,6.3c-0.4,1.6-0.3,2.2,0.7,4.4c2.3,4.9,2,7.6-1.1,11.5
		c-2.1,2.8-2.2,4.7-0.3,10.3c0.9,2.7,1.6,5.6,1.6,6.5c0,2.2,0.8,4.4,2.4,6.8l1.3,1.9v8.7v8.7l1.4,2.4c1.2,2,1.7,2.5,3.8,3.3
		c2.1,0.8,2.5,1.1,2.7,2.5c0.3,1.3,0,2.3-1.9,6c-2.1,4.3-2.2,4.5-1.8,6.6c0.4,1.9,0.7,2.4,3.2,3.9c2.5,1.6,2.7,1.9,3.7,4.9
		c1.4,4.5,3.9,9.4,6.3,12.4c1.7,2.1,2.6,2.8,4.8,3.7c2.9,1.1,3.3,1.7,3.3,5.3c0,1.5,0,1.5,2.5,1.8c6.1,0.7,5.8,0.6,7.5,3.5
		c2.4,3.9,3.5,6.8,3.5,8.9c0,2,1.1,4.5,2.3,5.4c0.5,0.3,1.1,1.2,1.4,1.9c0.3,0.8,1.1,1.6,2,1.9c1.2,0.5,1.6,0.4,2.6-0.5l1.1-1.1
		l1.1,1.3c1.6,2,1.9,4.2,0.7,6.7c-0.6,1.5-1.3,5-2.1,11.5l-1.1,9.4l-2.3,2.6l-2.2,2.6l-0.1,4.2c-0.2,4.9-0.9,6.1-3.9,6.6
		c-1.1,0.2-2.6,0.9-3.8,1.9c-1.1,0.9-2.5,2.1-3.2,2.6c-0.9,0.6-1.4,1.6-1.7,3c-0.5,2.3-2,4.4-3.6,4.9c-0.8,0.2-1,0.6-1,2.6
		c0,1.8-0.3,2.6-1.2,3.7c-0.8,0.9-1.2,1.9-1.2,3.1c0,1.7,0.1,1.8,2.1,2.6c2.6,1,3,2.1,1.9,5.2c-1,2.9-0.9,6.9,0.2,11.4l0.9,3.8
		l-1.2,4.9c-1,4.5-1.8,9.5-2.3,15.6c-0.2,2.1-0.4,2.5-5.1,7.2c-4.8,4.8-4.9,5-4.9,7c0,1.8-0.5,2.9-3.9,8.1c-2.1,3.3-5,8.1-6.3,10.5
		c-2.9,5.2-5.6,9.2-8.8,12.7l-2.3,2.6v5.2c0,4.6-0.1,5.4-1,6.7c-0.6,0.8-1.9,1.9-2.9,2.4s-2.5,1.4-3.3,2.2c-1.3,1.1-1.5,1.6-1.5,3.5
		c0,2.1,0.1,2.3,3.6,5.6l3.5,3.4l5.8-0.3l5.7-0.3l1.1,2.2c1.7,3.4,3.8,4.5,8.7,4.9c3.4,0.2,4.8,0.1,8.8-0.9c2.6-0.6,5.1-1.2,5.3-1.2
		c0.3,0,0.7,0.6,0.9,1.3c0.7,3.4,2.3,4.3,7.2,4.3h2.6l0.5-2c0.3-1.2,0.5-2.8,0.5-3.7c0-1.4,0.2-1.7,1.7-2.1c0.9-0.3,2.4-0.4,3.2-0.2
		c1.3,0.2,1.9,0,3.5-1.1c1.1-0.8,2.1-1.4,2.4-1.4s1.6-0.6,3.1-1.2c2.8-1.3,2.8-1.3,4.8-6.3c0.6-1.6,0.8-1.7,5-2.7
		c9.2-2.1,9-2,10.2-4.9l1-2.6h2.1c2.3,0,2.6,0.2,5.7,4.9c1.5,2.2,2.3,3,3.9,3.6c3.6,1.3,9.8,0.7,17-1.8c1.9-0.6,4.1-1.2,4.9-1.2
		c0.8,0,2.8-0.5,4.5-1.1c2.7-0.9,3.2-1,4.5-0.5c1,0.4,1.7,1.2,2.2,2.2c0.3,0.8,1.3,2.1,2.2,2.7c1.9,1.5,4,1.5,11.5,0.3
		c5.3-0.9,5.6-0.9,7.1-0.2c0.8,0.5,2.8,1.1,4.3,1.3l2.8,0.5l1.3,2.9c1.3,2.8,1.4,2.9,3.2,2.9c1.1,0,2.9,0.3,4.2,0.7
		c1.3,0.4,4.1,0.7,6.5,0.7h4.2l2.9,3.2c2.5,2.7,3.2,3.3,5.3,3.8c2.3,0.6,2.4,0.6,6.6-1.4c2.4-1.1,4.6-2.1,5-2.3
		c0.4-0.2,1.9-2.7,3.3-5.7c2.5-5,2.8-5.5,5.1-6.9c1.3-0.8,3.4-2.3,4.6-3.3c1.5-1.3,3-2,5.3-2.6c3.2-0.8,11.3-5.1,11.3-6
		c0-0.2,1.1-2.8,2.5-5.6c2.1-4.3,2.9-5.4,5.2-7.4c3.2-2.7,5.1-5.5,5.8-8.7c0.3-1.3,0.9-2.5,1.4-2.8c0.8-0.4,0.9-1,0.9-5.9v-5.4
		l3.7-6.1c2.7-4.6,3.8-6.9,4.2-9c0.3-1.6,1.1-3.6,1.6-4.5c0.6-0.9,2.1-3.7,3.4-6.1c2.2-4,2.6-4.6,4.4-5.2l1.9-0.8l-0.3-3.3
		c-0.4-4.3,0.8-8.1,4.1-12.9c2.8-4.1,3.1-5,3.4-13.9l0.3-6.7l2-0.7c1.2-0.4,1.9-0.9,1.9-1.4c0-0.4,0.6-2.1,1.4-3.8
		c1.3-2.9,1.5-3.1,4.3-4.4l2.4-1.1l-90.4-67.8L361.8,297.6z"/>
	<polygon fill="#DA121A" points="294.2,248.4 278.2,297.5 320,267.2 361.8,297.6 350.5,262.9 345.8,248.4 387.6,218 335.9,218 
		320,169 304.1,218 290.7,218 252.4,218 	"/>
</g>
</svg>
