<?xml version="1.0" encoding="utf-8"?>
<!-- Generator: Adobe Illustrator 17.1.0, SVG Export Plug-In . SVG Version: 6.00 Build 0)  -->
<!DOCTYPE svg PUBLIC "-//W3C//DTD SVG 1.1//EN" "http://www.w3.org/Graphics/SVG/1.1/DTD/svg11.dtd">
<svg version="1.1" id="flag-icon-css-gg" xmlns="http://www.w3.org/2000/svg" xmlns:xlink="http://www.w3.org/1999/xlink" x="0px"
	 y="0px" viewBox="0 0 640 480" enable-background="new 0 0 640 480" xml:space="preserve">
<g>
	<path fill="#FFFFFF" d="M605.8,64.8c1.1-2.6,0.6-4.7-1.5-7.2c-0.9-1-2-2.9-2.5-4.2c-0.7-2.1-0.7-2.6,0.1-4.4l0.8-2.1l-2-1.7
		c-3.6-3.1-3.9-6.7-1.1-11.1l1.4-2.2l-1.9-3.8c-2.5-4.9-3.4-8.2-2.7-9.6c0.5-0.8,0.3-1.4-1-2.5c-1.4-1.3-1.6-1.4-2.6-0.6
		c-1.9,1.4-4,1-5.1-1l-1.1-1.8l-0.9,2.3c-1.1,2.8-2.6,4-5,4.1c-1.4,0-2,0.4-2.8,1.7c-0.8,1.4-1.3,1.7-3.3,1.7c-1.2,0-3.1-0.5-4-1
		c-1.9-1.2-6.3-2.7-9.4-3.2c-2-0.3-2.1-0.5-2.1-2.5c0-1.5-0.4-2.5-1.4-3.4c-0.8-0.7-1.4-1.6-1.4-1.9c0-0.3-0.5-1.2-1.1-2.1
		c-1.1-1.5-1.1-1.7-0.3-3c0.9-1.4,0.8-1.4-1.2-2.8c-2.4-1.7-3.2-1.8-5.5-0.6c-1.5,0.8-1.6,1-1.2,3.8c0.7,5.6,0.7,5.6-0.9,6.5
		c-1.2,0.5-1.6,1.2-1.6,2.3c0,0.8-0.3,2.1-0.8,2.7c-0.5,0.6-1.1,3.2-1.5,5.8c-0.8,5.4-1.9,6.9-4.1,5.8c-1.6-0.8-2.6-0.3-5.1,2.8
		l-1.6,1.9l-7.9-0.4c-4.3-0.2-8.8-0.7-10-1.1c-1.1-0.5-3.3-1-4.7-1.2c-2.1-0.3-3.3-1-6-3.4c-4.3-4-4.5-5.5-0.8-8.8
		c1.5-1.4,3.3-3.7,4.5-6.3c1.1-2.2,2.5-4.6,3.1-5.2s1.2-1.7,1.5-2.4c0.3-1,0.2-1.2-1-1.2c-0.7,0-1.9,0.7-2.7,1.5
		c-0.7,0.8-2.5,2.1-3.9,2.8c-1.4,0.7-3.6,2.1-4.8,3c-1.2,0.9-2.8,1.8-3.5,2c-1.1,0.3-1.3,0.1-1.3-0.8c0-2-2-4.3-4.7-5.3l-2.5-1
		L483.7,7c-3.7,2.5-6.7,3.1-11.8,2c-2.3-0.5-4.6-1-5.1-1.2c-0.9-0.3-1,0.1-1,2.5v2.8l-3.8,0.4c-2.4,0.2-5.9,1.1-9,2.4
		c-5,2-5.3,2.1-5.3,3.8c0,1-0.2,2.3-0.3,3c-0.3,1-0.1,1.3,0.7,1.3c1.4,0,2.4,1.1,2.4,2.4c0,1,0.5,1,6.5,0.6l6.6-0.3l1.8,1.8
		c1,1,3.2,2.3,4.9,2.8l3.1,1.1l0.2,2.7c0.1,1.5-0.1,3.4-0.4,4.2c-0.5,1.1-0.4,2.7,0.2,6.1l0.8,4.7l-1.8,3.7c-1.1,2.4-2.3,4-3.2,4.5
		c-0.8,0.4-1.9,1.2-2.3,1.6c-0.5,0.5-1.4,0.9-2.1,0.9c-1.2,0-1.4,0.2-1.4,2.6c0,2.6,0,2.6,1.3,1.7c3.1-2.2,3.1-2.3,2.8,1.2
		c-0.1,1.8-0.7,5.4-1.4,8.1c-1.4,6.3-1.4,6.9,0.3,8.1c2.4,1.6,2.6,2.7,1,6.1c-1.8,4.1-3.8,5.1-9.4,4.9l-3.8-0.2l-1.1-4.2
		c-1.4-5.4-3.7-7.9-8.8-8.9l-3.3-0.7l-3.1-5.4l-3.1-5.5l1-2.6c0.6-1.4,1.1-4.5,1.3-6.9l0.3-4.3l-1.8-0.9c-1.5-0.8-2.4-0.8-6.3-0.2
		c-4,0.6-4.7,0.8-5.9,2.3c-1.1,1.3-1.4,2.3-1.4,4.6c0,2.8-0.2,3.1-2.7,5.5c-2.5,2.4-3.2,2.8-9.4,4.4c-3.7,1-7.1,1.6-7.5,1.5
		c-0.5-0.2-0.8-1.1-0.8-2.4c0-1.3-0.6-3-1.5-4.5c-1.4-2.1-1.9-2.5-3.6-2.5c-1.4,0-2.9,0.6-4.9,2l-2.9,2l-2.1-1.5
		c-1.2-0.8-2.4-1.4-2.8-1.4c-0.1,0-0.2,0-0.3-0.1V176h136.3c1.6-1.2,2.6-1.5,7.7-1.7c3.3-0.2,6.7-0.6,7.6-1c1-0.3,4.7-1.3,8.5-2.1
		c3.7-0.8,8.1-1.9,9.8-2.5c3.9-1.4,7.9-1.4,13.4,0.1c2.4,0.6,5.4,1.1,6.6,1.1c1.8,0,2.2-0.2,2.9-1.7c0.4-1,1.2-1.9,1.9-2
		c5.3-1.5,6.6-3.5,9-13.8c0.3-1.3,0.1-1.6-1.5-2.3c-1-0.4-2.5-1.2-3.3-1.8c-1.1-0.8-2.5-1-6.6-1h-5.1l-0.2-2.1c-0.3-3,0-4.6,0.9-4.6
		c0.5,0,1.2-0.8,1.7-1.9c0.6-1.2,1.5-2.1,2.8-2.6c2.2-0.8,4.2-3.1,4.2-4.7c0-0.7,0.7-1.4,1.9-1.9c1-0.4,2.4-1.4,3.2-2.2
		c1.2-1.3,1.3-1.8,1-5.3c-0.2-2-0.6-4-1-4.4c-1.2-1.2-0.6-3.3,1.5-5.2c1.8-1.7,2.1-2.3,1.9-4.1c-0.1-1.1-0.5-2.6-0.8-3.2
		c-0.6-1-2-5.7-2-6.8c0-0.2,1.7-0.1,3.8,0.1c3.1,0.3,4,0.7,5.1,1.9c0.7,0.8,1.3,2.1,1.3,3c0,1.9,1.4,2.1,2,0.4
		c0.4-1.1,0.5-1.1,2.5,0.8c2.5,2.4,4.2,3.1,3.8,1.6c-0.1-0.5-0.5-1.6-0.6-2.4c-0.2-0.8-1-2-1.6-2.7c-1.1-1.2-1.1-1.5-0.5-7.5
		c0.8-7.1,1.7-10.8,3.4-14.4c0.8-1.6,1.1-3.2,1-4.1C604.9,67.1,604.9,66.9,605.8,64.8z"/>
	<path fill="#FFFFFF" d="M110.3,304l0.7,6.9c1,9.7,1.1,12.1,0.6,16.1c-0.5,3.1-0.5,5.8-0.1,8c0.5,3.1,0.3,3.7-1,7.1
		c-4,9.7-5.4,12.1-8.3,14.3l-2.8,2.1l-0.2,4.9c-0.2,4.7-0.3,5.1-2.5,8.4c-3.2,4.6-7.2,8.1-12.3,10.7l-4.2,2.2l-2.9-1
		c-2.1-0.8-3.7-1-6.3-0.7c-1.9,0.2-4.1,0.2-4.7-0.1c-0.7-0.3-2.1-2.1-3.4-4.7c-1.8-3.6-2.4-4.3-3.8-4.6c-2.1-0.4-3.7,0.8-3.7,2.8
		c0,1.4-0.1,1.4-2.9,1c-1.6-0.2-4.1-0.3-5.4-0.3c-2.3,0-2.5-0.1-3.8-2.9c-1-1.8-1.4-3.3-1.1-4c0.4-1.4-0.1-1.1-3.5,1.6
		c-1.7,1.4-2.9,1.9-4.4,1.9c-2.3,0-2.3,0.1-1.2,2.2c0.8,1.5,0.7,1.9-1.7,6.8c-2.9,5.9-3.7,10.2-2.4,12.8c1.2,2.4,1.6,5.9,1,8.3
		c-0.7,2.5,0.2,4.5,3.7,8c1.3,1.4,3.1,3.8,4,5.6c1.5,2.9,1.8,3.1,3,2.6c0.8-0.3,1.5-0.5,1.5-0.4c0.1,0.1,0.7,1.1,1.4,2.3
		c1.1,1.9,1.4,2.1,3,1.8c2-0.4,3.3,0.8,3.3,3c0,0.7,1.2,3.6,2.6,6.5c2.4,4.9,2.7,5.2,3.4,4.2c0.5-0.6,0.9-1.6,1-2.3
		c0.8-4.5,1.2-5.5,2.4-6c1-0.4,1.5-0.1,2.4,1.5c0.7,1,1.5,1.9,1.9,1.9s0.2,0.3-0.4,0.7c-1,0.7-1,0.8,0.1,3.1
		c0.7,1.2,1.8,2.7,2.6,3.2c1.5,0.9,1.5,0.9,1.5-0.8c0-1,0.3-1.9,0.8-2c1.4-0.6,4,0.8,4.7,2.4c0.7,1.5,0.7,1.5,1.5,0.3
		c0.5-0.6,1.7-1.5,2.8-1.8c1.1-0.3,2.1-1.1,2.3-1.8c0.6-1.7,3.8-1.5,4.7,0.3c0.5,1,1.5,1.6,3.8,2.3c4,1.2,6.4,0.6,10.2-2.6
		c4.6-3.8,5.9-4,7.6-0.7c1.1,2.1,3.3,1.7,4.9-0.8c0.7-1.1,2.7-3.7,4.5-5.8c2.8-3.2,3.5-3.8,5.1-3.8c1.8,0,1.9,0.1,1.9,2.1
		c0,3.1,0.7,4,2.7,3.2c1.2-0.4,1.7-1.1,2.1-2.7c0.5-2,0.7-2.1,2.7-2.1c3.1,0,5.5,2.7,5.5,6c0,2.3,0.1,2.4,2.1,2.9
		c1.1,0.3,3,0.6,4.1,0.6c1.1,0,2.9,0.2,3.8,0.3c1.6,0.3,1.8,0.5,1.8,2.9c0,2.5,0.1,2.5,1.6,2.3c1.3-0.2,1.8,0.1,2.6,1.4
		c1,1.8,1.6,1.9,3.7,0.7c0.8-0.5,2.4-0.8,3.7-0.8s2.9-0.4,3.7-0.8c2.4-1.4,5.2-1,7.8,0.8c1.3,1,2.4,1.9,2.4,2.3c0,0.3,0.8,1,1.8,1.5
		c1.5,0.8,2.2,0.8,4.7,0.2c2.5-0.6,3.2-0.6,4.6,0.2c2.4,1.2,3.1,2.1,3.5,5c0.4,2.3,0.6,2.6,3.8,4.3c4,2.1,4.5,2.3,3.7,0.7
		c-1.2-2.3-0.3-2.8,2.6-1.7c2.1,0.8,3.1,0.9,4.7,0.5c3.9-1.1,9.6,2,12,6.5l1.1,2.1l1.8-1c1.2-0.7,1.9-1.6,2.1-2.7l0.3-1.7l1.4,2
		c0.8,1.1,1.5,2.1,1.6,2.3c0.1,0.2,0.5-0.2,0.9-0.7c1.2-1.6,6.9-4.4,9-4.4c2.8,0,3.2,1.5,1,3.5c-1.2,1.1-1.8,2.1-1.8,3.3
		c0,1.5,0.3,1.9,2.4,2.8c1.4,0.6,3.5,1.1,4.8,1.1c2.1,0,2.5-0.2,4.6-2.9c1.6-2,2.1-3.1,1.8-3.5c-0.9-0.9-0.7-1.4,1-2.2
		c2.5-1.4,5.6-1.6,8.9-0.9c0.6,0.1,1.2,0.3,1.6,0.5V304H110.3z"/>
	<path fill="#FFFFFF" d="M256,173.3l-0.9,0.2c-3,0.5-3.9,1-4.4,2.5h5.3V173.3z"/>
	<path fill="#FFFFFF" d="M384,441.3c1.8-1.1,4.8,0.5,5.9,3.2c0.8,2.1,0.8,2.2-0.6,3.4l-1.5,1.2l1.2,4.7c1.5,5.8,3.2,9.2,5.4,10.2
		c2.8,1.3,3.6,2.3,4,5c0.2,1.4,1,3.2,1.7,4.1c1,1.1,1.4,2.3,1.4,4.2c0,1.4,0.1,2.6,0.2,2.6c1.5,0,3.1-1.4,3.4-2.9
		c0.3-1.2,1.4-2.7,2.9-4c1.4-1.2,2.5-2.5,2.5-2.9s0.9-1.4,2-2.3c1.9-1.5,2-1.5,1.1-2.9c-0.9-1.3-0.9-1.6,0-3.9
		c1-2.7,1.7-2.8,2.3-0.2c0.4,1.9,0.5,2,2.6,2.4c1.2,0.3,1.6,0.1,2.1-1.1c0.6-1.4,0.7-1.4,2-0.6c1.4,0.9,1.4,0.9,1.8-1.3
		c0.3-1.7,0.7-2.3,1.5-2.4c2.1-0.3,1.6-1.6-2.1-5.4c-3.1-3.2-3.8-4.4-4.3-6.7c-1.1-5.2,1.4-7.9,3.9-4.2c0.7,0.9,2.1,2.2,3.2,2.9
		c1.1,0.6,2.1,1.7,2.3,2.3c0.2,0.8,0.8,1.1,2,1.1c1.4,0,1.8-0.3,2.3-1.7c0.8-2.3,2.2-2.2,2.2,0.1c0,1.5,0.1,1.7,0.8,1.1
		c1.1-0.9,1.1-5.9,0.1-8.9c-0.5-1.5-0.6-2.5-0.2-3.2c0.7-1.4,3.1-1.2,3.9,0.3c1.2,2.3,4,5.5,4.7,5.5c0.4,0,0.9-0.7,1.1-1.7
		c0.2-0.9,1.3-2.6,2.5-3.8c1.4-1.4,2.3-2.9,2.5-4.2c0.3-1.7,0.7-2.2,2.3-2.7c1.1-0.3,2.6-1.4,3.4-2.4c1.4-1.7,1.6-1.7,3.7-1.1
		c1.2,0.3,2.6,1.2,3.1,1.9c0.7,1,1.3,1.2,3.2,1.1c2-0.1,2.6,0.1,4.2,1.7c1.6,1.5,2.1,1.8,3.7,1.4c1-0.2,2.1-0.7,2.4-1.2
		c0.5-0.6,1.9-1,4.2-1.2l3.6-0.3l-0.4,1.6c-0.9,3.8-2.8,7.9-4.5,9.8c-1.7,1.9-1.8,2.3-1.6,4.9c0.3,3.4-1,8.2-3.1,10.6
		c-1.3,1.5-1.3,1.6-0.4,2.7c0.8,0.8,1.4,1,2.9,0.7c1.9-0.4,2-0.3,1.7,1.2c-0.2,0.9-0.5,2.1-0.7,2.6c-0.3,0.7,0,1.2,1,1.6
		c1.1,0.5,1.5,1.2,1.8,2.9c0.3,1.8,0.6,2.1,1.3,1.9c0.6-0.2,2.3-0.6,3.8-1c2.5-0.5,2.9-0.8,3.9-2.8c0.9-1.9,1.2-2.2,2.4-2
		c1,0.2,1.3,0.1,1.1-0.5c-0.2-0.5-0.5-1.1-0.6-1.5c-0.2-0.7,5.1-4.4,6.4-4.4c0.3,0,1.3,0.8,2.3,1.9c1,1.1,2.5,2.4,3.4,2.8l1.8,1
		v-3.2c0-1.8-0.3-3.7-0.6-4.3c-0.5-0.8-0.3-1.5,0.3-2.9c0.6-1.1,1.1-3.7,1.2-6.3c0.2-4.2,0.3-4.4,1.5-4.1c0.6,0.2,2,0.5,3,0.7
		c1.2,0.2,2,0.7,2.2,1.5c0.2,0.6,0.7,1.6,1.1,2s0.8,1.4,1,2c0.1,0.6,0.3-0.2,0.3-1.9c0.1-1.8-0.3-3.5-0.8-4.3
		c-0.8-1.2-0.7-1.5,0.6-3.4c1.4-2,1.4-2.1,0.5-3.3c-0.6-0.6-1.8-1.9-2.7-2.7c-1.7-1.5-1.7-1.6-1.5-6.7c0.2-6-0.2-6.8-4.2-9.7
		c-1.4-1-3.1-2.8-3.7-4l-1.1-2.1l1.9-2.1c1.8-2,1.9-2.3,1.1-3.1c-0.7-0.7-1.2-0.8-2.3-0.4c-1.9,0.7-2.4,0.2-2.4-2.4
		c0-1.2-0.3-2.8-0.8-3.5c-0.5-0.7-1-3-1.2-5.1l-0.4-3.8l-2.5-1.2c-1.4-0.7-3.4-2-4.5-3c-2.6-2.4-2.7-5.3-0.2-8.6
		c1-1.3,1.8-2.4,1.9-2.4s1.4,0.6,2.8,1.4l2.5,1.5l-0.2-2.4c-0.2-1.4-0.6-3.7-0.9-5.4c-0.8-4-0.2-11.2,1.4-15.3
		c1.1-2.9,1.3-4.6,1.6-15.3c0.2-6.6,0.4-12,0.6-12.1c1.1-0.9,5.4-1.6,8.4-1.5c1.9,0.1,3.5,0,3.5-0.2s-0.8-1.3-1.8-2.4
		c-1.7-1.9-1.8-2.2-1.5-5.3c0.3-2.7,0.2-3.6-0.8-5.2c-1.9-3.2-4.5-5.6-8.7-8c-0.1-0.1-0.2-0.1-0.2-0.1H384V441.3z"/>
	<path fill="#FFFFFF" d="M236.6,175.8c-0.3,0.1-0.7,0.1-1,0.2h3.8C238.6,175.6,237.9,175.6,236.6,175.8z"/>
	<path fill="#E8112D" d="M266.9,174.9c-0.8,0-0.9,0.1-0.4,1.1h3.5C268.7,175.4,267.4,174.9,266.9,174.9z"/>
	<path fill="#E8112D" d="M384,176V63.5c-0.4-0.1-0.8-0.4-1.2-0.8c-0.8-1-3.2-1.1-3.7-0.3c-0.2,0.3-1.9,1.4-3.7,2.3
		c-1.8,1-3.3,1.9-3.3,2.1c0,1,2.7,2.9,4.1,2.9c1.7,0,2.1,0.8,2.1,4.3c0,3.3-1.9,6.2-5.1,7.9c-3.2,1.7-4.3,1.1-4.9-2.5
		c-0.4-2.2-0.6-2.5-2.3-3.1c-1.8-0.5-2-0.3-4.3,1.9c-1.9,1.9-2.4,2.7-2.1,4c0.2,1.5-0.1,1.8-2.4,3.2c-1.5,0.8-2.5,1.8-2.4,2.2
		c0.1,0.3,1.4,0.7,2.9,0.9c2.1,0.2,2.9,0.6,3.8,1.8c1.1,1.5,1.1,1.6,0.1,5l-1,3.4h-4.1c-3.4,0-4.3,0.2-5.9,1.4c-1,0.7-2.7,1.6-3.8,2
		c-2.2,0.7-2.4,1.8-0.5,2.7c2.6,1.4,2.7,2.9,0.5,6.5l-2.1,3.3l-1.4-0.1V176H384z"/>
	<path fill="#E8112D" d="M296.7,426.7V304H256v154.4c1.7,0.6,2.5,1.4,4,3.6c0.5,0.8,1.1,0.7,4.5-1c3.3-1.6,4.1-1.9,5.3-1.3
		c0.8,0.5,1.2,1.2,1.3,2.4c0,1,0.3,2.6,0.7,3.7l0.7,1.9l1.1-1.5c0.8-1.2,1.8-1.6,4.7-2.1c2-0.3,4.1-0.8,4.7-1.2
		c1.5-0.8,4.5-0.2,6.6,1.2c1.6,1.1,1.6,1.1,2.6,0.1c1.7-1.9,3.3-1.4,5.8,1.5c1.2,1.5,2.5,3.4,2.8,4.2c0.4,0.9,1.7,2,3.2,2.8
		c2.3,1.1,2.8,1.1,4.7,0.6c3.2-1,3.4-1.5,1.5-3.4c-1.4-1.4-1.6-2.2-1.6-4.5c0-2.1-0.3-3.1-1.1-3.7c-0.8-0.6-1.1-1.5-1.2-3.6
		l-0.1-2.8l1.9,1.2c1.6,1,2.4,1.2,5.1,0.8c1.8-0.2,5.8-0.6,8.9-0.8c3.1-0.2,6.2-0.6,6.9-0.8l1.2-0.4l-1.4-1.9l-1.4-1.9l1.5-1.1
		l0.1-0.1h-55.7L296.7,426.7z"/>
	<path fill="#E8112D" d="M332.3,450.9c1.9,2.1,3.1,2.5,3.1,1.2c0-0.3,0.2-1.1,0.6-2h-4.5L332.3,450.9z"/>
	<path fill="#E8112D" d="M343.3,304v122.7l9.3,9.2c4.7,0.2,13.3,1.3,14.8,1.9c2.5,1.1,4.6,0.6,6.4-1.4c1.8-2,3.4-2.5,4.9-1.4
		c1.1,0.8,1.1,0.8-0.1,1.7c-1.1,0.8-1.1,0.9,0.3,1.8c0.8,0.6,2,1.6,2.8,2.3c1,1,1.5,1.1,1.9,0.7c0.1-0.1,0.3-0.2,0.4-0.3V304H343.3z
		"/>
	<path fill="#E8112D" d="M295.1,121.2l0.3,2l1.3-1.4v-13.6C294.9,110.6,294.2,115.9,295.1,121.2z"/>
	<path fill="#E8112D" d="M296.7,170.6c-0.7,0.3-1.4,0.6-2,0.9c-4.9,2.2-5.1,2.3-11.5,2.3c-3.7,0-6.6-0.2-6.8-0.6
		c-0.7-1.1-1.3-0.5-1.7,1.7c-0.1,0.4-0.2,0.8-0.3,1.1h22.3V170.6z"/>
	<polygon fill="#E8112D" points="257.4,176 257.5,173.1 256,173.3 256,176 	"/>
	<path fill="#E8112D" d="M530,278.4v0.5C530.1,278.6,530.1,278.5,530,278.4z"/>
	<path fill="#E8112D" d="M189.9,216.5l-3.5-0.8c-1.9-0.5-3.7-1.1-3.9-1.4c-0.2-0.2-1.1-0.4-1.9-0.4h-1.5l0.1,2.8h10.6L189.9,216.5z"
		/>
	<path fill="#E8112D" d="M502.5,263.3c0.2,0.2,0.3,0.4,0.4,0.8c0.3,0.9,0.8,1.1,3.1,1.1c2.7,0,2.7,0.1,5.4,3.7
		c2.4,3.3,4.9,5.5,4.9,4.4c0-0.1,0-0.3-0.1-0.7l-9.3-9.4H502.5z"/>
	<path fill="#E8112D" d="M296.7,216.7L296.7,216.7V176h-22.3c-0.2,0.7-0.5,1.3-0.6,1.4c-0.2,0.2-1.7-0.3-3.2-1.1
		c-0.2-0.1-0.4-0.2-0.6-0.3h-3.5c0.1,0.1,0.1,0.3,0.2,0.5c0.5,0.9,1.2,1.9,1.7,2.3c0.6,0.5,0.9,1.8,0.9,4c0,2.9-0.2,3.3-1.6,4.1
		c-2.2,1.3-3.8,0.7-5.4-1.9c-0.7-1.2-2.1-2.8-3.2-3.5c-1.9-1.2-1.9-1.4-1.8-4.8l0-0.6H256h-5.3c-0.1,0.3-0.2,0.7-0.2,1.1l-0.3,2.3
		l-3.6-0.4c-2.7-0.2-4-0.7-5.6-2c-0.6-0.5-1.1-0.8-1.5-1h-3.8c-0.9,0.2-1.5,0.5-1.7,0.7c-0.7,1.1,0.5,3.4,2.8,5.8
		c2.3,2.2,2.8,2.5,6.9,3.1c8.3,1.4,10.3,4.5,10.6,16.3l0.2,7.2l-2.1,3.7c-0.7,1.2-1.6,2.5-2.8,3.9H296.7z"/>
	<path fill="#E8112D" d="M343.3,263.3V304H384h117.5c-5.9-3.4-6.2-3.9-6.2-7.8c0-2.6,0.2-3.3,0.9-3.3c0.5,0,4.5-1,8.8-2.3
		c10.1-2.9,13.1-3.3,14.6-1.9c0.6,0.6,1.5,2.4,2,4.1c0.5,1.6,1,3,1,3c0.1,0,1.4-0.4,2.8-0.9c2.3-0.8,2.7-1.1,2.4-2.1
		c-0.2-0.6-0.7-2.9-1.3-5l-1-3.8l0.8-0.9l-1.4-1.4c-1.6,1.3-3.4,2.6-4.2,3.1l-1.9,1l-1.8-2c-2.8-3.2-3.8-3.5-7.1-1.8
		c-2.3,1.2-2.9,1.3-3.2,0.6c-0.2-0.6-0.8-0.7-2.4-0.3c-1.1,0.3-2.3,0.5-2.5,0.5c-0.2,0-0.9-1.2-1.5-2.6c-1.1-2.3-1.1-2.7-0.3-4.2
		c0.7-1.4,0.7-1.9-0.1-3.7c-1.1-2.7-0.8-6.6,0.6-8.1c0.4-0.4,0.7-0.7,0.9-0.8H343.3z"/>
	<path fill="#E8112D" d="M296.7,304v-40.7H133.3L110,286.7v-24.8c-2.8,2.2-5.7,4-7,4c-1,0-2.7,0.2-3.7,0.3c-1.8,0.3-2.1,0.2-2.7-1.1
		c-0.5-1-1.5-1.7-3.4-2.3c-1.5-0.5-3.4-1.6-4.1-2.3c-2-2.2-5.9-1.8-5.3,0.5c0.2,0.7-0.2,3.6-0.9,6.4c-0.9,4-1.5,5.4-2.9,6.7
		c-0.9,0.9-1.6,2.1-1.6,2.6c0,0.9,0.7,1.1,5.3,1.2c5.1,0.2,5.2,0.2,5.4,1.6c0.1,0.8,0.7,1.9,1.3,2.6c1,1,1.6,1.1,5.9,0.9
		c3.8-0.2,4.8-0.1,4.8,0.5c0,0.5,0.5,1.1,1.2,1.5c0.6,0.4,2.7,3.8,4.5,7.6l3.3,6.9l0.5,4.5H256H296.7z"/>
	<path fill="#E8112D" d="M343.3,176v40.7h151.6c0.6-3,1.7-5.5,3.4-8.1c2.1-3.3,2.8-5.2,3.3-8.1c1.2-7.4,1.3-7.7,6.3-12.8
		c2.6-2.6,5.2-4.9,5.9-5.1c0.6-0.2,1.8-1.4,2.7-2.6c0.8-1.2,2.5-2.9,3.6-3.8c0.1-0.1,0.2-0.1,0.2-0.2H384H343.3z"/>
	<path fill="#F9DD16" d="M133.3,263.3h163.4v-46.6h-47.3c-2.9,3.4-6.9,7.2-10.2,9.4c-1.9,1.2-4.5,2.2-8.2,3.1
		c-3,0.7-6.4,1.7-7.5,2.3c-2.7,1.4-8.1,2.2-14.2,2.2c-5.2,0-8.6-1-12.6-3.5c-1.8-1.1-2-1.6-2-3.7c0-2.3-0.1-2.4-2.6-3.5l-2.6-1.2
		l0.2-2.7l0.2-2.4h-10.6l0.1,2.1l0.2,5l-3.8,2.2c-5,2.9-6.2,5.2-5.4,9.8c1,5.4,0.8,6.2-3.1,12.9c-3.6,6.2-3.8,6.4-6.9,7.7
		c-2.9,1.3-3.4,1.4-6.9,0.7c-4.6-0.8-10-3.6-14-7.2l-3-2.8l-3.1,1.2c-1.9,0.7-4.5,1.2-6.6,1.2c-3,0-3.7,0.2-6,1.9
		c-1.4,1.1-3.6,3.3-4.9,4.9c-1.4,1.7-3.6,3.8-5.9,5.6v24.8L133.3,263.3z"/>
	<path fill="#F9DD16" d="M296.7,216.7h46.6V176v-61.5l-2.3-0.2c-4.7-0.4-5.2-0.6-6.5-3c-0.6-1.1-2-2.7-3.1-3.4l-2-1.4l-1.4,1.6
		c-0.8,0.9-1.7,2.1-2,2.7c-0.6,0.9-0.8,0.8-3.4-0.8c-2.7-1.6-3.3-1.8-7.9-1.8c-3.3,0.1-5.5,0.3-6.4,0.8c-0.8,0.5-2.5,0.8-3.8,0.8
		c-2,0-2.5-0.3-3.6-1.6c-1-1.5-1.3-1.6-2.8-1.1c-0.5,0.2-1,0.6-1.4,1.1v13.6l1.9-2l3.2-3.3l3,0.6c1.6,0.3,4.2,0.6,5.9,0.6
		c1.6,0,4.6,0.4,6.7,0.9c3.4,0.8,3.8,1.1,4.1,2.5c0.6,2.6-0.3,6.1-2,8c-1.1,1.4-1.6,2.7-1.9,5.2c-0.5,4.2-3.1,12.4-4.7,14.7
		c-0.7,1-2.1,4.9-3.2,8.8c-1.1,3.9-2.3,7.7-2.5,8.5c-0.6,1.6-3.1,2.8-5.9,2.8c-0.7,0-2.6,0.6-4.6,1.4v5.4V216.7z"/>
	<path fill="#F9DD16" d="M343.3,304v-40.7h0h-46.6V304v122.7L273.3,450H329l1.4-1.1l1,1.1h4.5c0.2-0.5,0.4-0.9,0.6-1.4l1.2-2.7
		l-1.2-1.2c-1.2-1.3-1.5-3.4-0.6-4.9c0.3-0.6,1.2-0.8,2.6-0.6l2,0.2l-0.4-2.5c-0.2-1.3-0.8-3.5-1.5-4.9l-1-2.4l1.2-0.5
		c1.2-0.5,1.8-0.1,7.5,4.6c1.7,1.5,1.9,1.9,2,5.1c0.1,2.8,0.3,3.5,1.2,3.7c0.8,0.2,1-0.3,1-3.2c0-2.4,0.2-3.4,0.7-3.4
		c0.4,0,0.8,0,1.2,0l-9.3-9.2V304z"/>
	<path fill="#F9DD16" d="M528,281.4c1.1-1.1,1.8-2,2-2.5v-0.5c0,0,0-0.1,0-0.1c-0.3-0.3-1.7,0.5-3.9,2.5c-0.3,0.3-0.7,0.6-1.1,0.9
		l1.4,1.4L528,281.4z"/>
	<path fill="#F9DD16" d="M343.3,216.7h-46.6v0v46.6h46.6h0h158.3c0.4-0.3,0.7-0.3,0.9,0h4.2l9.3,9.4c-0.2-0.7-0.4-1.8-0.7-2.9
		c-0.5-1.7-0.8-3.2-0.8-3.3c0-0.1,0.3-0.1,0.7-0.1s1.9,1.2,3.4,2.6c2.5,2.5,2.7,2.7,4.4,1.9c1-0.4,1.8-1,1.8-1.3
		c0-0.3-1.4-2.6-3.1-5.1c-2.5-3.8-3.3-5.5-4.5-10.2c-0.8-3.2-2-6.9-2.6-8.4c-1.1-2.4-1.4-2.7-3.1-2.7c-1.7,0-2-0.2-2-1.3
		c0-0.7-0.8-2-1.8-3c-1.4-1.4-2.2-1.6-4.4-1.6c-2.6,0-2.8-0.1-5.9-3.7l-3.2-3.7l0.1-4.5c0-3.5,0.2-6.3,0.7-8.7H343.3z"/>
</g>
</svg>
