<?xml version="1.0" encoding="utf-8"?>
<!-- Generator: Adobe Illustrator 17.1.0, SVG Export Plug-In . SVG Version: 6.00 Build 0)  -->
<!DOCTYPE svg PUBLIC "-//W3C//DTD SVG 1.1//EN" "http://www.w3.org/Graphics/SVG/1.1/DTD/svg11.dtd">
<svg version="1.1" id="flag-icon-css-gi" xmlns="http://www.w3.org/2000/svg" xmlns:xlink="http://www.w3.org/1999/xlink" x="0px"
	 y="0px" viewBox="0 0 640 480" enable-background="new 0 0 640 480" xml:space="preserve">
<g>
	<path fill="none" d="M322.9,480c0.1,0,0.2,0,0.3,0c1,0,2.5,0.4,3.3,0.9c1.6,0.9,4.8,1.3,5.9,0.6c0.2-0.1,0.5-0.8,0.7-1.5H322.9z"/>
	<path fill="#DA000C" d="M314.4,372.6v-7.7l-21.9-12.7h-5.1v-8.2h5.1l18.8-10.9v-11.4h-58.1c1.4,1.7,2.8,3.7,3.4,4.8
		c0.7,1.3,1.6,2.6,1.9,3c0.4,0.4,0.8,1.3,0.8,2.2c0,0.8,0.2,1.7,0.5,1.8c0.3,0.1,0.5,0.9,0.5,1.7c0,0.8,0.4,1.9,0.9,2.6
		c0.5,0.7,0.9,1.6,0.9,2.1c0,0.5,0.6,1.2,1.6,1.6c1.6,0.8,1.6,0.8,3-0.5c0.7-0.7,1.6-1.3,2.1-1.3c0.4,0,1-0.3,1.3-0.7
		c0.8-1,2.4-0.9,2.4,0.2c0,1.6,0.5,2.4,2.1,2.9c2.2,0.7,3,3,1.9,5.5c-1.4,3.2-1.9,3.6-5.4,3.2c-1.9-0.2-3.6-0.7-4.4-1.3
		c-0.8-0.5-1.6-0.8-2.1-0.6c-0.7,0.2-0.2,0.8,2.1,3.1c2.7,2.6,3,2.8,5.2,2.8c3.2,0,4.1,1,3.7,4c-0.3,2-0.2,2.3,1.6,4.5
		c1.8,2.2,2.2,2.4,4,2.4c1.6,0,2,0.1,2,0.9c0,0.7,0.5,0.9,2.1,1.2c1.6,0.2,2.4,0.7,3.1,1.7c1.3,1.8,1.3,5,0,6.4
		c-0.9,0.9-0.9,1.2-0.4,4.5c0.3,1.9,0.7,4.7,0.8,6.3c0.2,2.2,0.5,2.8,1.1,3c0.6,0.1,0.9,0.7,0.9,1.4c0,0.7,0.5,1.4,1.2,1.9
		c0.7,0.4,1.2,1.1,1.2,1.6s0.4,1.3,0.9,1.9c0.8,1,0.8,1.3,0.2,2.4c-0.9,1.8,0.1,9.5,1.2,9.2c0.6-0.1,1,0.3,1.4,1.5
		c0.3,0.9,1,2,1.5,2.3c0.5,0.3,0.9,0.9,0.9,1.2c0,0.3,0.6,1.5,1.2,2.4c2.4,3.5,2.3,4.6-1.5,10.3c-0.2,0.4-0.5,0.8-0.7,1.1h16.2
		V372.6z"/>
	<path fill="#DA000C" d="M320,343.5c2.4,0.3,4.7-1.1,5.6-3.4l3.2,1.9c-1.6,3.4-5.2,5.5-9,5.3c-3.9-0.3-7-2.9-8.2-6.5l-12.4,7.2
		l20.1,11.6l19.9-11.6l-19.9-11.6l-4.3,2.5C315.3,341.3,317.4,343.5,320,343.5z"/>
	<polygon fill="#DA000C" points="314.9,330.8 319.3,328.3 326,332.3 326,321.6 314.9,321.6 	"/>
	<path fill="#DA000C" d="M333.2,479.3c0.6-3.8,0.7-4,1.8-4c0.6,0,1.6-0.3,2.2-0.7s1.8-0.7,2.7-0.7c1.4,0,1.6-0.2,2.1-1.9
		c0.5-1.7,0.5-2-0.4-3c-2.4-2.6-2.3-11.4,0.2-14.4c0.6-0.8,1.1-1.7,1.1-2.2c0-0.5,0.6-2.2,1.2-3.7c0.7-1.6,1.5-3.6,1.8-4.6
		c0.8-2.3,2.8-4.8,5.1-6.4c1.7-1.2,1.8-1.4,1.7-3.9c0-4,0.2-6.3,0.9-7.5c0.5-0.9,0.4-1.3-0.4-2.6c-1.2-1.9-1.3-4-0.2-6
		c0.5-1.1,0.6-1.8,0.3-2.7c-0.4-1-0.2-1.6,0.7-3.2c0.6-1,1.1-2.4,1.1-3.1c0-0.7,0.3-1.5,0.7-1.8c0.4-0.3,0.8-1.3,0.9-2.3
		c0.5-2.9,1-3.7,2.6-4c1.3-0.2,1.5-0.4,1.3-1.5c-0.2-0.8,0-1.2,0.6-1.4c1.2-0.4,5.7-4.8,7-6.9l1-1.7l-2.1-1.9
		c-1.6-1.5-2.1-2.2-2.1-3.3c0-0.8-0.4-2.1-0.9-2.9c-0.6-1-0.8-2-0.7-2.8c0.1-0.7-0.1-1.9-0.5-2.6s-0.9-2.7-1.2-4.3
		c-0.6-3-0.3-4.4,1.1-5.6c0.3-0.3,0.7-2.2,0.9-4.2c0.1-2,0.5-4,0.8-4.2c0.3-0.3,0.5-1.4,0.5-2.4c0-1.4,0.3-2.4,1.1-3.3
		c0.9-1.1,1-1.4,0.5-1.9c-1.1-1-0.8-3.2,0.7-4.6c1.2-1.1,3.8-5.5,3.8-6.5c0-0.2,0.6-1.4,1.4-2.6c1.3-2.1,4.7-10.8,5.7-14.4h-48.4
		v12.8l16.1,9.4h5.2v8.2h-5.2l-22.1,12.9v7.5v93.8v5.6h-9.4v-5.6v-3.9H298c0.6,0.6,1.3,1.5,1.7,2.4c0.7,1.3,1.5,2.3,2.1,2.4
		c0.6,0.1,1.2,0.7,1.4,1.2c0.1,0.5,1.2,2,2.4,3.3c1.6,1.9,2.6,2.5,4,2.8c1,0.2,3.4,1.1,5.3,2c1.9,0.9,3.8,1.6,4.1,1.6
		c0.3,0,1,0.4,1.5,0.9c0.5,0.6,1.3,0.9,2.3,0.9h10.2C333.1,479.8,333.2,479.5,333.2,479.3z"/>
	<path fill="#DA000C" d="M304.3,447.4h10.1v-5.6h-9.9v-7.5h-10.2c-0.1,0.5-0.2,1.1-0.4,1.5c-0.3,1-0.4,1.7-0.1,2s0.2,1.8-0.2,4.3
		c-0.5,2.9-0.5,4.3-0.2,5.7c0.3,1,0.4,2.4,0.2,3.1c-0.1,0.7,0.2,2.3,0.9,4h9.8V447.4z"/>
	<path fill="#FFFFFF" d="M265.3,155.4v10.9h16.9v-10.9h5.6V72h3.8h54.9h5.8v83.4h5.3v10.9h17.2c0-0.2,0-0.4,0.1-0.5v-10.3h1.9V89.3
		h-3.8v-9h-3.8V63.2h9.9V72h5.1c0.2-0.6,0.4-1.1,0.6-1.5c0.8-1.5,0.9-2.8,0.9-8.9c0-6.8,0.1-7.3,1.2-9.1c1.1-1.7,1.2-2.4,1.2-7.4
		c0-3.1,0.3-7,0.7-8.9c0.8-3.8,0.5-13-0.4-14.2c-0.3-0.4-13-5.5-28.3-11.3C339.6,2.8,331.7,0,330.4,0c-1,0-10.6,0.9-21.4,1.9
		c-10.7,1-19.6,2-19.7,2.1c-0.4,0.4,1,12.3,1.8,15.7c0.5,1.9,1,5.2,1.2,7.3c0.1,2.1,0.4,4.8,0.5,5.9l0.3,2.2l-7,0.3
		c-3.8,0.1-9.2,0.4-12,0.6c-4.8,0.2-5,0.2-5.3-0.7c-0.4-1.3-2.1-1.3-2.1-0.1c0,0.8-0.7,0.9-11.2,1.2c-6.2,0.1-13.3,0.4-15.8,0.6
		l-4.6,0.3l0.2-3.2c0.2-2.4,0-3.4-0.5-4.1c-0.7-0.8-0.8-0.8-1.6-0.1c-0.8,0.7-0.8,1.3-0.6,3.9c0.2,2.3,0,3.2-0.5,3.9
		c-0.6,0.7-0.7,1.6-0.2,7.2c0.2,3.5,0.5,6.4,0.7,6.5c0.1,0.1,11.3-0.3,24.9-0.9c6.6-0.3,12.7-0.5,17.2-0.7v-3.5h11.6v7.5h12.6v-7.5
		h14.8v7.5h12.8v-7.5H341v7.5h13.1v-7.5h11.4V60h-7.3v11.8h-76.5V60h-2c-2.9,10.4-2.8,9.9-0.6,11.3c0.8,0.5,0.7,0.9-2,4.9
		c-1.6,2.4-3.5,5.7-4.1,7.2c-0.7,1.6-2.5,4.8-4.1,7.2c-2.5,3.8-3,4.3-3.7,3.9c-0.6-0.3-0.9-1-0.9-2c0-1-0.2-1.5-0.9-2.1v65H265.3z"
		/>
	<path fill="#FFFFFF" d="M311.2,317.6c0-0.6,0-1.1,0.1-1.7h-0.6h-60.4v-5.4h-8.1c3.8,4.7,4.2,4.8,5.5,4.9c1.6,0.1,1.9,0.3,1.9,1.1
		c0,0.5,1.3,2.4,2.9,4.2c0.2,0.3,0.5,0.6,0.7,0.8h58.1V317.6z"/>
	<path fill="#FFFFFF" d="M205.3,71l-13.1-0.2c-10.5-0.1-19.5-0.5-20-0.7c-0.4-0.2-3-0.3-5.6-0.2l-4.8,0.2v23.1v23.1l2.4-0.3
		c1.3-0.2,2.5-0.4,2.7-0.5c0.1-0.1,0.1-9-0.1-19.8c-0.2-10.8-0.3-19.7-0.1-19.8c0.1-0.1,1.2-0.1,2.4,0l2.2,0.3v4c0,3.6,0.1,4,0.9,4
		c1.3,0,1.4-0.3,1.7-4.6l0.3-3.9h2.3h2.3l0.1,3.9c0.1,3.8,0.2,3.9,1.3,3.9c1.2,0,1.2-0.1,1.3-4.1l0.1-4.1h2.3c2.7,0,2.9,0.2,2.9,4.8
		v3.2h1.4h1.4v-4v-4h2.1c2.5,0,2.6,0.3,2.6,4.8v3.2h1.4h1.4v-3.8v-3.8h2.5c3,0,2.8-0.2,3.3,6.3c0.3,3.4,0.4,3.7,1.3,3.5
		c0.8-0.1,1.3-1,2.3-4.4c0.1-0.3,0.2-0.6,0.3-0.9h-1.5V71z"/>
	<path fill="#FFFFFF" d="M329.8,316.5v5.1h48.4c0,0,0-0.1,0-0.1c0.3-1.3,0.2-1.9-0.4-2.8c-0.5-0.6-0.8-1.4-1-2.7h-47V316.5z"/>
	<path fill="#FFFFFF" d="M180.5,219.5c-0.2-1-0.6-1.5-1.3-1.6c-1.8-0.3-2.4,0.7-2.4,3.5v2.6l20.8,27.7v-8.2
		C187.4,229.8,180.7,220.2,180.5,219.5z"/>
	<path fill="#FFFFFF" d="M316.8,317.4c-1-0.3-1.4-0.9-1.5-1.5h-0.2c-0.1,0.2-0.1,0.5-0.2,0.8v4.9H326v-3.2c0.3-0.2,0.6-0.3,0.9-0.5
		C323.9,319.5,319.8,319.4,316.8,317.4z"/>
	<path fill="#FFFFFF" d="M224.2,62.1c-0.5,0-1,0.6-1.3,1.7c-0.3,0.9-0.5,1.7-0.4,1.8c0,0.1,3.3,0.9,7.3,1.9v-4.1
		C227,62.6,224.7,62.1,224.2,62.1z"/>
	<path d="M221.2,275.5v7.7c1.4,1.9,2.8,3.7,4.1,5.4h5.6C228.2,284.9,225,280.6,221.2,275.5z"/>
	<path d="M311.4,230.5c-10.9,2.7-18.6,11-18.6,25.2v27.8c6.4,2.7,12.6,5.7,18.6,9.1V230.5z"/>
	<path d="M292.8,290.7v3.3h6.9C297.5,292.9,295.2,291.8,292.8,290.7z"/>
	<path d="M268.8,288.4h-8.4c-0.1,0.1-0.2,0.1-0.2,0.2h8.7V288.4z"/>
	<path d="M247.1,242.4c0,0.1-0.1,0.2,0,0.3c0.1,0.4,0.7,2.5,1.3,4.8c0.6,2.2,4,11.8,7.5,21.2c1.5,3.9,2.6,7,3.5,9.4v-17.2
		C259.4,252.4,254.3,245.3,247.1,242.4z"/>
	<path fill="#DA000C" d="M232,194.2c0.3,0.4,6.2-2.2,6.1-2.6c-0.1-0.3-1.4-3.9-3-8.2h-7.2C230.6,190.6,231.9,194.1,232,194.2z"/>
	<path fill="#DA000C" d="M250.3,302.8l7.4-3.6h-14.1c-0.4,0.2-0.9,0.5-1.3,0.7c-1.4,0.9-1.8,1-2.3,0.6c-0.1-0.1-0.5-0.6-1-1.3h-5.5
		c0.2,0.2,0.3,0.4,0.5,0.6c3.8,5,6.4,8.4,8.2,10.6h8.1V302.8z"/>
	<path fill="#DA000C" d="M202.4,250.1c-1.7-2.3-3.3-4.5-4.8-6.6v8.2l1.9,2.5c7,9.3,15,19.9,21.8,28.9v-7.7
		C215.9,268.3,209.6,259.8,202.4,250.1z"/>
	<path fill="#DA000C" d="M268.8,192h-11.1v-8.4h-5.3v-0.2h-8.3l2.1,5.5l1.9-0.1l1.9-0.1l0.8,2.6c0.8,2.4,0.8,2.6,0,3.2
		c-0.8,0.6-0.6,1.3,3,11.2c2.1,5.8,3.8,10.8,3.8,11.1c0,0.2-3.3,1.7-7.4,3.2c-4.1,1.5-8.1,3-8.9,3.3l-1.5,0.6l1.1,3
		c0.6,1.6,1.3,3.5,1.6,4.2l0.5,1.3l1.6-1l1.6-0.9l-0.7-2.1c-0.4-1.2-0.7-2.2-0.6-2.3c0.3-0.2,7.6-2.6,7.7-2.5c0,0,0.7,1.7,1.4,3.6
		c0.8,1.9,1.5,3.7,1.6,3.9c0.1,0.2,1.4,0,2.7-0.3c1.9-0.5,2.5-0.5,2.7-0.1c0.3,0.8,1.6,5.6,1.6,5.8c0,0-3.6,1.3-8,2.8
		c-5.6,1.9-7.4,2.6-7.7,3.2c7.2,2.8,12.3,10,12.3,18.4v17.2c2.4,6.4,2.7,7.9,2.3,8.1c-0.4,0.2-0.7,0.7-0.7,1.1
		c0,0.4-0.3,0.8-0.6,1.1h8.4V192z"/>
	<path fill="#DA000C" d="M268.6,294h0.2v-5.4h-8.7c-0.6,0.4-1.4,0.7-1.8,0.3c-0.8-0.7-4,1.8-3.7,2.9c0.1,0.4-0.1,1.1-0.6,1.6
		c-0.8,0.7-1,0.7-1.5,0.1c-0.5-0.6-0.9-0.5-2.9,0.7c-1.9,1.2-2.2,1.6-1.8,2.3c0.4,0.7,0.2,1-0.7,1.6c-0.6,0.4-1.6,0.8-2.1,0.8
		c-0.3,0-0.8,0.2-1.4,0.4h14.1L268.6,294z"/>
	<path fill="#DA000C" d="M230.9,288.6h-5.6c3.3,4.3,6.1,8,8.1,10.7h5.5C237.6,297.4,234.8,293.8,230.9,288.6z"/>
	<path d="M252.5,155.4h0.2v-18c0-7-5.7-12.8-12.8-12.8h-0.7c-1.9,0.1-3.7,0.7-5.2,1.5l0.4,1c0.4,0.9,1,2.4,1.5,3.4
		c0.4,1,1.4,2.7,2.2,3.7l1.4,1.9l-1.2,6.6c-0.7,3.6-1.2,7-1.2,7.4c0,1,4.8,8.7,5.4,8.7c0.2,0,1.6-0.8,3.2-1.7
		c1.8-1.1,3.1-1.6,3.6-1.4c0.7,0.3,0.1,1-2.9,3.8c-3.2,3-3.7,3.6-3.5,4.7c0.1,0.7,0,1.4-0.2,1.5c-0.1,0.1-0.2,0.2-0.2,0.4h10.2
		V155.4z"/>
	
		<line fill="none" stroke="#DA000C" stroke-width="0" stroke-linecap="round" stroke-linejoin="round" x1="243.6" y1="299.3" x2="257.7" y2="299.3"/>
	
		<line fill="none" stroke="#DA000C" stroke-width="0" stroke-linecap="round" stroke-linejoin="round" x1="233.4" y1="299.3" x2="239" y2="299.3"/>
	<path fill="#DA000C" d="M308.8,302.8h1.9v-2.9c-3.5-2.1-7.2-4.1-10.9-5.9h-6.9h-24h-0.2l-10.9,5.3l-7.4,3.6H308.8z"/>
	<polygon fill="#DA000C" points="308.8,302.8 250.3,302.8 250.3,310.5 250.3,315.9 310.6,315.9 310.6,302.8 	"/>
	<path fill="#DA000C" d="M252.5,166.3h-10.2c-0.1,0.3-0.1,0.8-0.1,1.3l0.1,1.4l-8.8,3.1l-8.8,3.1l1.4,3.6c0.6,1.7,1.2,3.2,1.7,4.7
		h7.2c0,0,0-0.1-0.1-0.1c-1.6-4.3-2.8-7.9-2.7-8c0.5-0.5,7.2-2.9,7.5-2.7c0.2,0.2,1.7,3.9,3.4,8.3l0.9,2.5h8.3V166.3z"/>
	<path fill="#DA000C" d="M239.9,124.7c7,0,12.8,5.7,12.8,12.8v18h10.7v-65c-0.2-0.1-0.4-0.3-0.7-0.4c-0.8-0.5-5.8-5.9-11.1-12
		c-5.2-6.1-9.7-11.2-9.9-11.4c-0.2-0.3-6.8-2.1-11.9-3.3v4.1c0.1,0,0.2,0.1,0.4,0.1c7.5,1.8,7.5,1.8,9.6,3.9c1.1,1.2,2,2.4,2,2.7
		c0,0.8-2,3.9-2.5,3.9c-0.2,0-1.6-0.3-3.2-0.8c-1.6-0.4-3.4-0.6-4.1-0.4c-0.8,0.2-2.6-0.2-5-1.1c-2-0.8-6.4-2.1-9.6-3.1l-5.8-1.6
		l-6.1-0.1v9.2h1.5c0.9-3.1,0.9-3.4,0.3-4c-0.8-0.5-0.8-0.7,0.1-1.5c0.9-0.9,1-0.9,7.3,0.7c3.5,0.8,8,1.8,10.1,2.1
		c3.5,0.6,8.2,2.5,8.2,3.4c0,0.2-1,1-2.2,1.9c-1.5,1-2.4,2.1-3.1,3.6l-0.9,2.1l3.4,3.2c3.4,3.2,4.7,3.8,6.4,2.9
		c0.6-0.3,1.4-2.4,2.4-5.9l1.6-5.4l2.1,1.9c7.1,6.4,6.6,5.8,6.5,8.4l-0.1,2.4l2.1,0.8c2.5,1,2.9,2.2,1.2,4c-1.1,1.2-1.2,1.7-1.2,5
		c0,5.5,0,5.6-5.6,5.6c-2.5,0-5.4,0.2-6.4,0.5c-2.1,0.5-4.2,2.5-6.1,5.7c-1,1.8-1.1,2.3-0.7,2.9c0.5,0.7,0.8,0.7,2.6-0.1
		c2.1-1,3.3-1.2,3.3-0.6c0,0.2,0.1,0.8,0.3,1.4c0.2,0.8-0.3,1.3-2.4,2.7l-2.6,1.7l0.3,0.6c1.5-0.9,3.3-1.4,5.2-1.5H239.9z"/>
	
		<line fill="none" stroke="#DA000C" stroke-width="0" stroke-linecap="round" stroke-linejoin="round" x1="308.8" y1="302.8" x2="250.3" y2="302.8"/>
	<path d="M347.2,294v-2.8c-1.7,0.9-3.4,1.9-5.1,2.8H347.2z"/>
	<path d="M371.2,288.6h4.4c0-0.1-0.1-0.1-0.1-0.2h-4.3V288.6z"/>
	<path d="M313.6,294h15.8h0c2.9-2,5.9-3.9,9-5.6c1.2-0.7,2.4-1.4,3.6-2v0v0c1.7-1,3.5-1.9,5.3-2.8v-27.8c0-17.8-12.6-26.3-27.2-26.3
		c-3,0-5.9,0.3-8.6,1v62.2C312.1,293.1,312.9,293.6,313.6,294z"/>
	<path fill="#DA000C" d="M371.2,242.6c0.1-1.6,0.3-2.3,0.6-2.6c0.4-0.3,0.7-1.3,0.7-2.1s0.3-1.8,0.7-2.4c0.5-0.6,0.6-1.6,0.4-3.1
		c-0.2-1.9-0.1-2.5,0.8-3.6c0.5-0.7,1-1.5,1-1.7s0.4-1,0.9-1.7c0.8-1,0.9-1.5,0.5-2.5c-0.2-0.7-0.8-1.3-1.2-1.5
		c-0.4-0.2-0.8-0.8-0.8-1.3c0-0.8,0.2-0.9,1.2-0.7c1.3,0.3,1.2,0-0.1-1.6c-0.6-0.6-0.5-0.9,0.7-2c1-1,1.3-1.6,1-2.3
		c-0.2-0.7-0.1-1.2,0.5-1.8c0.5-0.5,0.8-1.4,0.8-2c0-0.9-0.3-1.2-1.6-1.4c-1.9-0.4-2-0.8-0.9-6.4c0.7-3.5,0.7-3.5-0.5-4.6
		c-1.3-1.2-1.5-3.2-0.6-5.3h-4.3V242.6z"/>
	<path fill="#DA000C" d="M371.2,294h0.2l9.5,4.6c0-0.1,0-0.1,0-0.2c-0.9-4.4-1.3-5.4-1.9-5.8c-0.8-0.4-2.1-2.1-3.3-4h-4.4V294z"/>
	<path fill="#DA000C" d="M375.5,288.4c-1.2-1.8-2.3-3.9-3-5.7c-0.6-1.6-1.1-3.1-1.4-4.4v10.1H375.5z"/>
	<path fill="#DA000C" d="M371.3,272.2c0.6-1.2,0.6-1.5,0-2.3c0-0.1-0.1-0.1-0.1-0.2v2.8C371.2,272.3,371.2,272.2,371.3,272.2z"/>
	<path fill="#DA000C" d="M331.3,302.8h-2.6c-0.4,0.3-0.9,0.6-1.3,0.9c0.7,0.7,1.4,1.4,2,2.1c2.3,2.3,2.1,5.6,0.9,8.3
		c-0.2,0.5-0.4,0.9-0.7,1.3h0.2v0.6h47c-0.3-1.4-0.4-3.2-0.6-5.9L376,307l1.8-1c1.4-0.8,1.8-1.4,1.8-2.3c0-0.2,0.1-0.6,0.1-0.9
		H331.3z"/>
	<path fill="#DA000C" d="M379.1,63.2h-9.9v17.1h3.8v9h3.8v66.2h0.4c0.1-0.2,0.3-0.5,0.5-0.6c0.6-0.7,2-3.2,3.1-5.6l2-4.5l0.2-8.9
		c0.4-14.4,0.3-15.2-0.8-19c-0.9-3.1-1-4.4-1-13.9c0-12,1.4-25.3,3.2-30.8h-5.1V63.2z"/>
	<path fill="#DA000C" d="M315.3,315.3c-0.1,0.2-0.1,0.4-0.2,0.6h0.2C315.2,315.7,315.2,315.5,315.3,315.3z"/>
	<path fill="#DA000C" d="M319.1,308.1h1.4C320,308,319.5,308,319.1,308.1z"/>
	<path fill="#DA000C" d="M323.5,312.3c-0.8,0.1-2-0.8-2.9-0.5c-0.4,0-0.7,0-1.1,0.1c0.8,0,1.6,0.3,2.4,0.5
		C322.4,312.6,323,312.5,323.5,312.3z"/>
	<path fill="#DA000C" d="M321.9,308.1h0.4c0.2,0.2,0.4,0.3,0.6,0.5c-0.2-0.2-0.5-0.5-0.7-0.7C322,307.9,321.9,308,321.9,308.1z"/>
	<path fill="#DA000C" d="M318.2,308.2c-0.8,0.2-1.6,0.4-2.4,0.8c-1.1,0.2-2.6,2.8-2.6,1.7c-0.4-2.8,1.5-5.1,3.4-6.6
		c0.1-0.1,0.1-0.2,0.2-0.3c-0.5-0.4-1-0.7-1.5-1.1h-4.7v13.1h0.6C311.8,312.2,314.5,309.1,318.2,308.2z"/>
	<path fill="#DA000C" d="M329.4,294L329.4,294h-15.8c0.6,0.4,1.3,0.7,1.9,1.1c2.1,1.4,4.3,2.8,6.5,4.3
		C324.4,297.5,326.8,295.7,329.4,294z"/>
	<path fill="#DA000C" d="M310.6,299.9v2.9h4.7C313.8,301.8,312.2,300.9,310.6,299.9z"/>
	<path fill="#DA000C" d="M371.2,294h-24h-5.1c-4.2,2.4-8.2,5-12.1,7.9c-0.4,0.3-0.8,0.6-1.3,0.9h2.6h48.5c0.1-0.6,0.4-1.2,0.6-1.7
		c0.4-0.7,0.6-1.8,0.5-2.5l-9.5-4.6H371.2z"/>
	
		<line fill="none" stroke="#DA000C" stroke-width="0" stroke-linecap="round" stroke-linejoin="round" x1="379.7" y1="302.8" x2="331.3" y2="302.8"/>
	
		<line fill="none" stroke="#DA000C" stroke-width="0" stroke-linecap="round" stroke-linejoin="round" x1="308.8" y1="302.8" x2="310.6" y2="302.8"/>
	
		<line fill="none" stroke="#DA000C" stroke-width="0" stroke-linecap="round" stroke-linejoin="round" x1="310.6" y1="302.8" x2="315.3" y2="302.8"/>
	
		<line fill="none" stroke="#DA000C" stroke-width="0" stroke-linecap="round" stroke-linejoin="round" x1="331.3" y1="302.8" x2="328.7" y2="302.8"/>
	<path fill="#F8D80E" d="M341.9,293.8v-7.5c-1.2,0.7-2.4,1.3-3.6,2c-3.1,1.8-6.1,3.6-9,5.6c-2.5,1.7-5,3.5-7.4,5.4
		c1.9,1.3,3.7,2.8,5.4,4.3c0.4-0.3,0.9-0.6,1.3-0.9c0.4-0.3,0.9-0.6,1.3-0.9c3.9-2.8,8-5.5,12.1-7.9c1.7-1,3.4-1.9,5.1-2.8v-7.6
		c-1.8,0.9-3.5,1.8-5.3,2.8V293.8z M328.3,295.1v7.3V295.1z M332.8,291.9v7.3V291.9z M337.2,289.1v7.1V289.1z"/>
	<path fill="#F8D80E" d="M316.8,303.9c-0.1,0.1-0.1,0.2-0.2,0.3c-1.9,1.5-3.8,3.8-3.4,6.6c0,1.1,1.5-1.5,2.6-1.7
		c0.7-0.4,1.5-0.7,2.4-0.8c0.1,0,0.3-0.1,0.4-0.1h0.4c0.5,0,0.9,0,1.4,0h1.4c0.1-0.1,0.2-0.1,0.2-0.2
		C320.5,306.4,318.7,305.1,316.8,303.9z"/>
	
		<line fill="none" stroke="#F8D80E" stroke-width="0" stroke-linecap="round" stroke-linejoin="round" x1="341.9" y1="286.3" x2="341.9" y2="286.4"/>
	
		<line fill="none" stroke="#F8D80E" stroke-width="0" stroke-linecap="round" stroke-linejoin="round" x1="341.9" y1="293.8" x2="341.9" y2="286.4"/>
	
		<line fill="none" stroke="#F8D80E" stroke-width="0" stroke-linecap="round" stroke-linejoin="round" x1="332.8" y1="299.2" x2="332.8" y2="291.9"/>
	
		<line fill="none" stroke="#F8D80E" stroke-width="0" stroke-linecap="round" stroke-linejoin="round" x1="337.2" y1="289.1" x2="337.2" y2="296.2"/>
	
		<line fill="none" stroke="#F8D80E" stroke-width="0" stroke-linecap="round" stroke-linejoin="round" x1="328.3" y1="295.1" x2="328.3" y2="302.4"/>
	<path fill="#F8D80E" d="M310.6,299.9c1.6,0.9,3.1,1.9,4.7,2.9c0.5,0.4,1,0.7,1.5,1.1c1.8,1.3,3.6,2.5,5.3,4
		c0.3,0.2,0.5,0.5,0.7,0.7c1.1,0.8,2.2,1.9,1.3,3.3c-0.2,0.3-0.4,0.4-0.7,0.5c-0.5,0.2-1,0.3-1.6,0.1c-0.8-0.2-1.6-0.5-2.4-0.5
		c-1.9,0.3-3.5,1.6-4.2,3.5c0,0.2,0,0.4,0,0.6c0.1,0.6,0.5,1.2,1.5,1.5c3,2,7.1,2.1,10.1,0.4c1-0.7,2.1-1.4,2.7-2.5h0
		c0.3-0.4,0.5-0.8,0.7-1.3c1.1-2.6,1.3-6-0.9-8.3c-0.6-0.7-1.3-1.4-2-2.1c-1.7-1.6-3.5-3-5.4-4.3c-2.1-1.5-4.3-2.9-6.5-4.3
		c-0.6-0.4-1.3-0.8-1.9-1.1c-0.7-0.4-1.5-0.9-2.2-1.3c-6-3.4-12.2-6.5-18.6-9.1v7.2c2.3,1,4.7,2.1,6.9,3.3
		C303.5,295.8,307.1,297.8,310.6,299.9z M328.8,315.4l-4.9-2.6L328.8,315.4z M320.9,312.8l-4.5,3.4L320.9,312.8z M323.2,318.2
		l-0.4-4.9L323.2,318.2z M330.3,310.1l-5.6,0.6L330.3,310.1z M323.8,308.6l3.4-4.9L323.8,308.6z M320,305.6l1.5-6.2L320,305.6z
		 M315.7,302.6l0.6-6.4L315.7,302.6z M310.6,293.1v0.9v5.6V294V293.1z M304.6,296.1v-6.2V296.1z M298.8,292.5v-5.8V292.5z"/>
	
		<line fill="none" stroke="#F8D80E" stroke-width="0" stroke-linecap="round" stroke-linejoin="round" x1="315.7" y1="302.6" x2="316.3" y2="296.3"/>
	
		<line fill="none" stroke="#F8D80E" stroke-width="0" stroke-linecap="round" stroke-linejoin="round" x1="320" y1="305.6" x2="321.5" y2="299.4"/>
	
		<line fill="none" stroke="#F8D80E" stroke-width="0" stroke-linecap="round" stroke-linejoin="round" x1="298.8" y1="292.5" x2="298.8" y2="286.7"/>
	
		<line fill="none" stroke="#F8D80E" stroke-width="0" stroke-linecap="round" stroke-linejoin="round" x1="320.9" y1="312.8" x2="316.4" y2="316.1"/>
	
		<line fill="none" stroke="#F8D80E" stroke-width="0" stroke-linecap="round" stroke-linejoin="round" x1="323.8" y1="308.6" x2="327.1" y2="303.8"/>
	
		<line fill="none" stroke="#F8D80E" stroke-width="0" stroke-linecap="round" stroke-linejoin="round" x1="304.6" y1="289.9" x2="304.6" y2="296.1"/>
	
		<line fill="none" stroke="#F8D80E" stroke-width="0" stroke-linecap="round" stroke-linejoin="round" x1="310.6" y1="294" x2="310.6" y2="293.1"/>
	
		<line fill="none" stroke="#F8D80E" stroke-width="0" stroke-linecap="round" stroke-linejoin="round" x1="322.8" y1="313.3" x2="323.2" y2="318.2"/>
	
		<line fill="none" stroke="#F8D80E" stroke-width="0" stroke-linecap="round" stroke-linejoin="round" x1="328.8" y1="315.4" x2="323.9" y2="312.8"/>
	
		<line fill="none" stroke="#F8D80E" stroke-width="0" stroke-linecap="round" stroke-linejoin="round" x1="324.7" y1="310.7" x2="330.3" y2="310.1"/>
	
		<line fill="none" stroke="#F8D80E" stroke-width="0" stroke-linecap="round" stroke-linejoin="round" x1="310.6" y1="294" x2="310.6" y2="299.6"/>
	<path fill="#F8D80E" d="M314.4,447.4h-10.1v7.5h-9.8c0,0.1,0.1,0.2,0.1,0.3c0.7,1.6,1.2,3.7,1.2,4.4c0,1,0.4,1.6,1.4,2.2
		c0.2,0.1,0.5,0.3,0.8,0.6h16.4V447.4z"/>
	<path fill="#F8D80E" d="M304.4,441.8h9.9v-15h-16.2c-0.6,1-1,2-1.2,2.5c-0.2,0.7-0.8,1.5-1.5,1.8c-0.8,0.4-1.1,1-1.1,1.9
		c0,0.3-0.1,0.8-0.1,1.3h10.2V441.8z"/>
	<rect x="314.4" y="466.3" fill="#F8D80E" width="9.4" height="5.6"/>
	<polygon fill="#F8D80E" points="314.4,364.9 314.4,372.6 323.8,372.6 323.8,365.1 319.3,367.7 	"/>
	<path fill="#F8D80E" d="M326,332.4v-0.2l-6.7-3.9l-4.3,2.5v6.9c-0.1,0.4,0,0.8,0,1.2l4.3-2.5l19.9,11.6l-19.9,11.6L299.2,348
		l12.4-7.2c-0.2-0.7-0.4-1.4-0.4-2.2V333l-18.8,10.9h-5.1v8.2h5.1l21.9,12.7l4.9,2.8l4.5-2.6l22.1-12.9h5.2v-8.2h-5.2l-16.1-9.4v0.1
		L326,332.4z"/>
	<polygon fill="#F8D80E" points="314.4,426.8 314.4,441.8 314.4,447.4 314.4,462.4 314.4,466.3 323.8,466.3 323.8,372.6 
		314.4,372.6 	"/>
	<path fill="#F8D80E" d="M329.8,315.9v-0.6h-0.2h0c-0.6,1-1.6,1.8-2.7,2.5c-0.3,0.2-0.6,0.4-0.9,0.5v3.2v10.7v0.2l3.8,2.1v-0.1
		v-12.8v-5.1V315.9z"/>
	<path fill="#F8D80E" d="M311.6,340.8c1.1,3.5,4.3,6.2,8.2,6.5c3.8,0.3,7.4-1.8,9-5.3l-3.2-1.9c-0.9,2.3-3.2,3.6-5.6,3.4
		c-2.6,0-4.7-2.2-5.1-4.6c-0.1-0.4-0.1-0.8,0-1.2v-6.9v-9.2v-4.9c0-0.3,0.1-0.5,0.2-0.8c0.1-0.2,0.1-0.4,0.2-0.6
		c0.7-1.8,2.3-3.2,4.2-3.5c0.3-0.1,0.7-0.1,1.1-0.1c0.9-0.3,2,0.6,2.9,0.5c0.3,0,0.5-0.2,0.7-0.5c0.9-1.4-0.2-2.4-1.3-3.3
		c-0.2-0.2-0.4-0.3-0.6-0.5h-0.4h-1.4h-1.4h-0.4c-0.1,0-0.3,0.1-0.4,0.1c-3.7,0.9-6.5,4-7,7.8c-0.1,0.6-0.1,1.1-0.1,1.7v4V333v5.6
		C311.2,339.4,311.4,340.1,311.6,340.8z"/>
	<polygon points="338.2,87 332.8,87 332.6,107.8 338.2,107.8 	"/>
	<rect x="317.4" y="81.4" width="5.3" height="28.5"/>
	<rect x="301.8" y="87" width="5.6" height="20.8"/>
	<path d="M320,117c-11.1,0-14.8,8.1-14.8,13.7v24.8H305v10.9h29.6v-10.9h0.4v-24.8C335,125.1,331.1,117,320,117z"/>
	<path fill="#DA000C" d="M281.8,71.8h76.5V60h7.3V46.1h-11.4v7.5H341v-7.5h-14.6v7.5h-12.8v-7.5h-14.8v7.5h-12.6v-7.5h-11.6v3.5
		c4.7-0.2,7.7-0.2,7.8-0.2c0.1,0.1-1,4.8-2.6,10.3c0,0.1,0,0.1-0.1,0.2h2V71.8z"/>
	<path fill="#DA000C" d="M257.8,183.6v8.4h11.1h102.4h4.3c0.2-0.4,0.4-0.8,0.6-1.2c1.2-2,1.4-4.6,0.6-7.2H257.8z"/>
	<path fill="#DA000C" d="M305,155.4h0.2v-24.8c0-5.6,3.8-13.7,14.8-13.7s15,8.1,15,13.7v24.8h17.3V72h-5.8h-54.9h-3.8v83.4H305z
		 M332.8,87h5.4v20.8h-5.6L332.8,87z M317.4,81.4h5.3v28.5h-5.3V81.4z M301.8,87h5.6v20.8h-5.6V87z"/>
	<path fill="#DA000C" d="M374.8,155.4v10.3c0.1-0.9,0.3-1.9,0.4-2.7c0.8-4.7,1.2-6.5,1.8-7.6h-0.4H374.8z"/>
	<path fill="#DA000C" d="M357.5,155.4h-5.3H335h-0.4v10.9H305v-10.9h-17.3h-5.6v10.9h-16.9v-10.9h-1.9h-10.7h-0.2v10.9v17.1v0.2h5.3
		h118.9c-0.4-1.2-0.9-2.4-1.7-3.5c-1.1-1.7-1.2-2.4-1.1-5.9c0-1.6,0.3-4.7,0.8-7.8h-17.2V155.4z"/>
	<path fill="#DA000C" d="M371.2,192H268.8v96.4v0.2v5.4h24v-3.3v-7.2v-27.8c0-14.3,7.7-22.5,18.6-25.2c2.7-0.7,5.6-1,8.6-1
		c14.6,0,27.2,8.4,27.2,26.3v27.8v7.6v2.8h24v-5.4v-0.2v-10.1c-0.5-2.5-0.6-4.6,0-5.9v-2.8c-0.3-0.5-0.5-1.1-0.3-1.5
		c0.1-0.5-0.2-1.2-0.9-1.6l-1.1-0.8l1.2-7.9c0.7-4.4,1.2-10,1.2-12.6c0-1.1,0-1.9,0.1-2.6V192z"/>
</g>
</svg>
