<?xml version="1.0" encoding="utf-8"?>
<!-- Generator: Adobe Illustrator 17.1.0, SVG Export Plug-In . SVG Version: 6.00 Build 0)  -->
<!DOCTYPE svg PUBLIC "-//W3C//DTD SVG 1.1//EN" "http://www.w3.org/Graphics/SVG/1.1/DTD/svg11.dtd">
<svg version="1.1" id="flag-icon-css-gl" xmlns="http://www.w3.org/2000/svg" xmlns:xlink="http://www.w3.org/1999/xlink" x="0px"
	 y="0px" viewBox="0 0 640 480" enable-background="new 0 0 640 480" xml:space="preserve">
<g>
	<path fill="#FFFFFF" d="M344.4,1.8c-6.4,1-8.1,1.5-8.3,2.8c-0.1,0.8-0.3,1-0.8,0.6c-0.8-0.7-1.6-0.2-1.6,0.8c0,0.6-0.3,0.7-1.4,0.4
		c-1.1-0.2-1.4-0.1-1.4,0.6c0,0.7-0.1,0.7-0.4,0.1c-0.4-0.6-0.5-0.4-0.8,0.6c-0.2,0.9-0.5,1.1-0.8,0.8c-0.7-0.7-1.4-0.6-1.1,0.2
		c0.1,0.4,0,1.3-0.3,1.9c-0.8,1.7-2.9,1.4-3.1-0.4c-0.1-1-0.4-1.3-1.4-1.3c-0.7,0-1.3,0.3-1.4,0.9c-0.1,0.5-0.7,0.9-1.1,0.9
		c-1.1,0-1.1,0.2-0.1,1.7l0.8,1.2l-1.4-0.7c-1.7-0.8-4.7-0.8-4.5,0c0.1,0.5-0.2,0.6-1.1,0.4c-0.8-0.1-1.6,0.1-2.4,0.8l-1.1,1
		l1.1,1.6l1.1,1.6l6,0.2l6,0.2l1.4,1.7c1.7,2.1,1.4,2.8-0.3,1.1c-1.3-1.3-1.4-1.3-6.2-1.4c-1.8,0-3.6-0.2-4.1-0.5
		c-1.6-0.7-1.4,1,0.5,4c1,1.6,2,3.5,2.1,4.3c0.3,1.1,0.2,1.3-0.6,1.3c-0.7,0-1.3-0.7-2.2-3.1c-1.5-3.5-2.5-4.4-5.2-4.4h-2l0.8,2.9
		c0.5,1.6,1.7,4.3,2.8,5.9c1.7,2.7,1.9,3.3,1.9,5.8c0,2.8,0,2.8-0.9,2c-0.5-0.5-0.9-1.2-0.9-1.6c0-0.4-1.4-2.4-3.2-4.5
		c-1.7-2.1-3.6-4.8-4.3-6.2c-1.1-2.3-2.5-3.4-4.6-3.4c-0.7,0-0.7-0.2,0.2,13.4c0.2,3.2,0.1,4.5-0.3,5c-0.6,0.7-0.7,0.7-1.4,0
		c-0.5-0.5-1.1-1.6-1.4-2.7c-0.5-1.7-3.5-6.4-4.6-7.1c-0.3-0.1-0.9,0.6-1.4,1.6c-0.5,1-1.4,2.2-2.1,2.6c-0.9,0.6-1.2,1.2-1.2,2.5
		c0,1.4-0.1,1.5-0.6,0.8c-0.7-1.1,0.2-4,1.5-5.2c0.6-0.5,0.9-1.4,0.9-2.3c0-0.8,0.3-2.1,0.7-2.8c0.8-1.6,0.9-3.5,0.1-5.1
		c-0.5-1.1-0.7-1.2-2.2-0.9c-0.9,0.1-4.3,0.5-7.4,0.7c-3.2,0.2-5.9,0.5-6.2,0.8c-0.3,0.3-0.1,0.8,0.7,1.6c0.9,0.8,1.2,1.5,1.1,3
		c0,1.1-0.2,2.3-0.4,2.8c-0.3,0.8-0.4,0.8-0.9,0.1c-0.4-0.4-0.5-1.2-0.3-2c0.2-1,0-1.7-1-2.9c-1.1-1.4-1.5-1.5-2.8-1.3
		c-2.1,0.5-2.9,1.6-3.4,4.7c-0.2,1.4-0.7,3.1-1.1,3.6c-0.4,0.6-0.7,1.6-0.7,2.3c0,1-0.3,1.4-1.2,1.8c-1,0.4-1.4,0.3-2.9-0.9
		c-0.9-0.7-2.1-1.4-2.4-1.4c-0.4,0-2.2,1-4,2.2c-1.8,1.3-4.7,2.8-6.4,3.5c-1.8,0.7-3.9,1.8-4.7,2.4s-2,1.2-2.6,1.3
		c-1,0.1-1.2,0.5-1.6,2.6c-0.3,2-0.3,2.7,0.4,3.6c0.4,0.7,1.1,1.2,1.4,1.2c0.4,0,0.7,0.4,0.9,1c0.2,0.7,0.6,0.9,1.6,0.8
		c1.1-0.1,1.3,0,1.3,1.1c0,0.7,0.3,1.5,0.6,1.9c0.5,0.6,0.1,0.9-1.8,1.7c-2.1,1-2.3,1.1-1.6,1.9c0.4,0.5,0.7,1,0.7,1.3
		c0,0.6-4.3,4.3-6.6,5.7c-2.2,1.3-2.5,1.3-6.8-0.4c-3.3-1.3-3.8-1.4-5.5-0.9c-1,0.3-2.3,1.1-2.9,1.7c-0.9,1-1.3,1.1-2.1,0.7
		c-1.6-0.9-5.1-0.3-6.1,1l-0.8,1.1l-0.9-1.4c-1.7-3-5.5-2.7-9,0.9l-1.5,1.5l0.3,5.1c0.3,5.5,0.9,7.1,2.8,7.3c11.4-2.6,23.3-4,35.6-4
		c84.7,0,154,65.8,159.6,149.1c1.6,0.5,3.7,1.6,4,2.1c0.2,0.4,1.6,1.9,3,3.2l2.7,2.4l3.5-0.5c3.9-0.5,4.2-0.5,7.1,1.5
		c2,1.3,2,1.4,3,0.5c0.7-0.7,1-0.7,1.2-0.3c0.1,0.2,0.6,1,1.2,1.9h19.9c0-0.5-0.3-1.1-0.7-1.2c-0.6-0.3-1.2-1.8-2.6-7.1
		c-0.6-2.2-0.8-2.4-2.2-0.9c-1.2,1.3-1.4,2.1-0.8,3.8c0.6,2.2-0.1,1.9-1.4-0.6l-1.2-2.4l1.2-1.7c0.7-0.9,1.2-2,1.2-2.3
		c0-0.9-0.8-0.7-1.4,0.4c-0.7,1.3-1.4,1.2-1.4-0.4v-1.3l-1.5,1.8c-2,2.3-2.6,1.6-1-1.2c0.7-1.1,1.2-2.6,1.2-3.3c0-1.3-0.2-1.4-3.3-2
		c-2.9-0.6-4.7-1.2-4.7-1.9c0-0.3-0.7-0.7-1.5-0.9c-0.8-0.1-2.5-0.6-3.7-1c-2.1-0.7-2.2-0.7-3.9,0.3c-1.5,1-1.7,1-2.4,0.3
		c-0.7-0.7-0.7-0.7,0-0.7c0.4,0,1.3-0.3,1.9-0.7c2.6-1.7,0.7-5.7-2.8-6.1c-1.7-0.2-2.1-0.1-3.6,1.5c-1,1-1.7,2-1.8,2.3
		c0,0.3-0.2-0.1-0.4-0.8c-0.4-1.2-0.2-1.5,1.3-2.8c0.9-0.8,2-1.7,2.4-1.9c0.4-0.2,1.2-0.8,1.7-1.2c1.1-0.9,3.4-1.4,3.8-0.9
		c0.1,0.2,0.7,0.2,1.1,0c0.5-0.2,1.8-0.5,2.8-0.5c1.7,0,1.9,0.1,1.4,0.7c-0.3,0.4-1.4,0.7-2.4,0.7c-2,0-2.2,0.3-1.1,1.7
		c0.4,0.5,0.7,1.5,0.7,2.4c0,1.9,2,3.2,5.9,3.9c1.5,0.3,3.5,1,4.5,1.6c1.2,0.8,2.3,1.1,3.3,1c1.3-0.1,1.5-0.3,1.5-1.5
		c0-1.3-0.1-1.4-2.4-1.8c-3.8-0.7-3.2-2.1,0.9-2.1c1.9,0,1.9,0,1-1c-0.5-0.5-2.3-1.6-4.2-2.5c-1.8-0.8-3.7-1.9-4.2-2.2
		c-0.9-0.7-0.9-0.7,0.5-0.8c0.9,0,1.8,0.4,2.3,0.9c0.7,0.7,1.2,0.9,2.5,0.7c0.9-0.2,1.8-0.4,1.9-0.5c0.1-0.1-0.3-0.8-0.8-1.7
		c-0.7-1.1-0.8-1.8-0.5-2.4c0.3-0.6,0.1-0.8-0.9-1.3c-1.9-0.7-6.6,0.1-10.2,1.9c-1.6,0.8-3.2,1.4-3.6,1.4c-1.2,0,1.4-1.7,4-2.6
		c1.6-0.5,2.6-1.2,2.7-1.7c0.2-0.8-0.1-0.9-3.6-0.9l-3.8-0.1l2.7-0.3c3.3-0.4,3.6-0.7,1.9-1.5c-2.8-1.4-6-1.4-10.1,0.4
		c-0.8,0.4-0.8,0.3-0.1-0.8c0.4-0.7,1.2-1.3,1.8-1.4c0.8-0.2,0.9-0.4,0.4-1c-0.5-0.6-0.4-0.7,0.3-0.9c0.8-0.3,0.9-0.6,0.7-2.4
		c-0.1-1.4,0-2.3,0.4-2.8c0.8-1,1.4-0.1,1.4,1.9c0,1.7,0.7,2.4,4.5,4.3c2.1,1.1,3.6,1.4,5.4,1.4c2.3,0,2.6-0.1,3.6-1.7
		c0.7-0.9,1.3-2.1,1.4-2.7c0.2-0.7,1-1.1,3.3-1.7c3.5-0.8,3.9-1.5,2.4-3.9c-0.5-0.8-1.1-2.2-1.3-3c-0.2-1.3-0.5-1.4-2.2-1.6
		c-1.1-0.1-2.9-0.6-4.2-1.1c-2.1-0.8-2.2-0.8-3.1,0c-1,0.9-2.5,1.1-2.2,0.2c0.1-0.3,0.3-1.1,0.5-1.9c0.2-1.1,0.5-1.3,1.9-1.3
		c0.8,0,2.1,0.2,2.7,0.4c0.9,0.3,1.4,0,3.4-1.6c1.6-1.4,2.1-2.1,1.5-2.1c-0.5,0-1.4-0.6-2-1.2c-0.8-0.9-1.4-1.2-2.2-0.9
		c-0.6,0.1-1.3,0.1-1.4,0c-0.6-0.5,1.3-1.5,2.8-1.5c1.2,0,1.5,0.2,1.5,0.9c0,0.8,0.3,0.9,2.1,0.9c1.7,0,2.2-0.2,3-1.2
		c1-1.3,1.4-4.4,0.5-4.4c-0.2,0-0.5-0.2-0.5-0.5c0-0.3,0.3-0.5,0.7-0.5c0.9,0,0.9-1.4,0-1.7c-0.4-0.1-1.1,0.1-1.6,0.5
		c-0.7,0.7-0.9,0.7-1.4,0c-0.8-1-1.4-0.9-1.7,0.5c-0.2,1-0.5,1.1-2,1.1c-0.9,0-2.2,0.1-2.9,0.3c-1.1,0.3-1.2,0.3-1-0.8
		c0.2-0.8,0.6-1.2,1.1-1.2c2.9,0,4.5-2.8,2.1-3.7c-0.7-0.2-1.2-0.7-1.2-0.9c0-0.8-4.7-0.6-5.7,0.3c-1,0.9-1.1,0.3-0.1-1.2
		c0.4-0.6,1.1-1,1.6-1c1.3,0,1.1-0.6-0.5-1.6c-2-1.3-2.1-2.1-0.5-2.4c0.8-0.1,1.5-0.5,1.7-0.7c0.5-0.8,1.4-0.4,2.1,1
		c0.6,1,1.1,1.4,1.9,1.3c1.7-0.2,1.7-3-0.1-6.5c-0.8-1.6-1.4-3.2-1.2-3.5c0.1-0.4,0-0.7-0.6-0.7c-1.2,0-4.4-4.6-4.1-5.8
		c0.2-0.7-0.2-1.4-1.5-2.4c-0.9-0.8-2-1.4-2.2-1.3c-0.3,0-0.7-0.8-1.1-2c-0.6-2.4-2.1-4-4-4.3c-1.8-0.4-2-1.1-0.7-3.5
		c1.5-3,1.9-3.2,6.9-2.9l4.3,0.3v-1.4c0-2.2-1.4-5.8-2.8-7c-1.6-1.4-3.8-1.4-3.8-0.1c0,1.2-0.4,1.2-3.5-0.2c-2.2-1-2.6-1.3-2.6-2.5
		v-1.3l0.9,1.2c0.7,1,0.9,1,0.9,0.3c0-0.5-0.2-1.3-0.5-1.8c-0.5-0.9-0.4-1,1.2-0.7c0.9,0.1,1.8,0,2-0.2c0.5-0.9-0.3-2.8-1.4-3.3
		c-0.7-0.3-1.2-0.7-1.2-1c0-0.9-3.6-2.2-5.7-2.1l-2,0.1l-0.1,3.8c-0.1,3-0.3,3.9-0.8,3.9c-0.6,0-0.7-0.7-0.7-3.2
		c-0.1-4.9,0-5.4,1.6-7l1.4-1.5h-1.3c-0.7,0-1.6,0.2-2.1,0.5c-0.8,0.4-0.9,0.1-1.1-4.1c-0.2-2.5-0.4-5-0.6-5.7
		c-0.1-0.7,0-1.5,0.2-1.9c0.4-0.6,0.7-0.6,2.1-0.1c3.3,1.2,5.1-1.1,3.4-4.1c-0.4-0.7-0.7-1.8-0.7-2.7c0-0.8-0.1-1.8-0.3-2.2
		c-0.3-0.7-0.4-0.7-0.9,0c-0.6,0.7-0.6,0.7-0.7-0.9c0-1.4-0.3-2-1.8-3.2c-1.7-1.3-1.8-1.6-1.9-4c0-2.5,0-2.5,1.7-3.4
		c1.7-0.8,1.7-0.9,2.1-4.5c0.5-4.4,0.1-5-2.1-3.4c-0.9,0.6-2.1,1.4-2.6,1.6c-2,0.9-3,2.8-3,5.5c0,1.4-0.2,2.5-0.4,2.5
		c-0.6,0-1.1-4.3-0.9-7.4l0.1-2.6l2.1,0c2.6,0,6.9-2.1,7.5-3.6c0.4-1.1,1.1-3.5,1.1-4.3c0-0.2-0.9-0.7-2-1c-1.7-0.5-2.3-0.5-3.4,0.1
		c-0.7,0.3-1.4,0.8-1.6,1.1c-0.1,0.2-1,0.5-1.8,0.4c-1.3,0-1.4-0.1-0.6-0.4c0.6-0.2,1.5-1.2,2.2-2.3c1.1-1.7,1.5-1.9,3.1-1.9
		c1.7,0,3.3-1.1,3.3-2.2c0-0.3,0.4-0.6,0.8-0.7c0.4-0.1,1.1-0.7,1.4-1.2c0.5-0.8,0.4-1.1-0.8-2.4s-1.3-1.6-0.8-2.5
		c0.3-0.6,0.9-1.3,1.4-1.7c0.5-0.4,1.4-2.6,2.1-4.9l1.2-4.2l-1.2-1c-0.7-0.6-1.8-1.2-2.5-1.3c-0.7-0.1-2.1-0.5-3.3-0.7
		c-3.7-0.9-5-0.4-6.6,2.7c-0.5,1-0.7,1-1.3,0.4c-1.7-1.4-2.2-1.5-1.4-0.2c1,1.5,1,1.7,0.1,1.7c-0.5,0-0.7,0.6-0.6,2.4
		c0.1,2.7,0.3,2.5-3.2,2.7c-0.6,0-1.2,0.6-1.7,1.5l-0.7,1.5l-0.8-2.7c-0.7-2.3-1.7-3.6-2.8-3.6c-0.1,0-0.2,1.8-0.2,4.1
		c0,4.3-1.3,10.9-2.7,13.1c-0.4,0.6-0.7,2.1-0.7,3.5c0,1.7-0.2,2.8-0.7,3.2c-0.6,0.5-0.7,0.4-0.4-0.8c0.2-0.7,0.4-1.6,0.5-2
		c0.1-0.3,0-1-0.2-1.6c-0.2-0.7-0.2-1.4,0-1.9c0.7-1.4,1.9-10.3,1.6-12.7c-0.3-2.5-2.5-9.4-3-9.8c-0.2-0.1-1.4,0.2-2.7,0.7
		c-2.5,1-2.5,1-2,5.4c0.2,1.8,0,2-3.1,4.9c-2.8,2.7-3.3,2.9-3.4,2.1c-0.1-0.6,0.5-2,1.3-3.1c1.1-1.6,1.4-2.6,1.4-4.3v-2.1l-4.1,0.3
		c-3.6,0.2-4.6,0.5-7.2,2c-4.6,2.4-8.3,5.3-8.6,6.4c-0.4,1.4-2.1,1.4-2.1,0.1c0-1.7,1.8-4.1,5.2-6.8c4.1-3.2,6.5-4.4,9.6-4.4
		c3.5,0,6.5-1.1,8.8-3.2c1.1-1,2.7-2,3.5-2.2c1.4-0.3,1.5-0.5,1.4-1.8c-0.1-1,0.3-2.1,1.1-3.4c0.7-1,1.3-2,1.3-2.1
		c0-0.4-5-4.2-5.6-4.2c-0.2,0-0.5,0.2-0.6,0.4c-0.2,0.6-4.2-0.5-4.9-1.3c-0.4-0.5-0.7-0.3-1.8,1.4l-1.3,2.1l0.3-2.2
		c0.2-1.9-0.3-4.2-1.4-5.5c0-0.1-0.8,0.6-1.6,1.5l-1.5,1.7h-4.1c-4.6,0-7.3,1-8.4,2.9c-0.6,1.1-2,1.8-5.4,2.5l-1.4,0.3l1.1-1.1
		c0.6-0.7,1-1.4,1-1.7c0-0.4,0.2-0.4,0.9,0c0.7,0.5,1.2,0.3,2.7-0.9c2.3-1.8,3.9-2.4,6.2-2.4c1.4,0,2.3-0.4,4.3-2
		c2.9-2.4,3.5-4.3,1.5-5c-0.7-0.2-3.2-0.5-5.6-0.5c-3.3,0-4.5-0.2-5-0.7c-0.7-0.8-0.7-0.8-2.6,0C348.6,1,346.3,1.5,344.4,1.8z"/>
	<path fill="#FFFFFF" d="M228.4,274.2c-0.6-0.5-0.9-0.5-1.4-0.1c-0.9,0.9,0.7,3,3,3.7c3.2,1,9.5-0.2,11.9-2.3
		c2.4-2.1,2.1-5.3-0.6-6.9c-1.7-1.1-3.5-3.6-3.5-5c0-1.2-2.6-4.3-3.6-4.3c-0.3,0-0.8-0.4-1.1-0.9c-0.3-0.5-1.2-1.3-2-1.8
		c-1.3-0.7-1.9-0.8-3.3-0.5l-1.8,0.4l0.3,2.2c0.2,1.2,0.8,2.8,1.4,3.5c1.4,1.7,1.1,2-0.8,1c-0.8-0.4-1.8-0.7-2.1-0.5
		c-0.9,0.3-1.1,2.2-0.3,3.7c0.6,1.3,0.6,1.3-0.3,0.8c-0.8-0.4-1-0.4-1,0.6c0,1.5,1.1,2.9,2.8,3.6c0.8,0.3,1.8,1.3,2.2,2.1
		C229.1,274.7,229.1,274.8,228.4,274.2z"/>
	<path fill="#FFFFFF" d="M244,241.9c0.6,0,1.4-0.5,1.9-1.2c0.2-0.3,0.5-0.5,0.7-0.7H243C243.1,241.6,243.2,241.9,244,241.9z"/>
	<path fill="#FFFFFF" d="M419.9,240c-0.1-0.4-0.4-0.8-0.8-1.2c-1-0.9-2.3-1-8-0.4c-2.4,0.3-3.2,0.2-3.2-0.2s-0.7-0.5-2.3-0.4
		c-2.6,0.3-3.2-0.3-0.9-0.8c1-0.2,1.4-0.5,1.2-1c-0.1-0.4-0.3-0.7-0.3-0.9c0-0.1-0.7-0.5-1.6-0.8c-0.9-0.4-1.7-1.1-1.9-1.6
		c-0.2-0.8-0.6-0.9-2.3-0.7c0.1,2.7,0.2,5.4,0.2,8.1H419.9z"/>
	<path fill="#FFFFFF" d="M292.4,25.2c-1,1.4-0.9,2.4,0.2,3.5c0.6,0.5,1.3,1.4,1.6,2.1c0.4,0.7,0.9,1.3,1.1,1.3
		c0.7,0,0.6-2.2-0.1-3.4c-0.3-0.6-0.7-1.7-0.8-2.6C294.1,24.2,293.4,23.8,292.4,25.2z"/>
	<path fill="#FFFFFF" d="M247.9,240c-0.1,0.2-0.3,0.4-0.6,0.7c-2.1,2.3,0.2,2.7,2.9,0.5c1.4-1.2,2.7-1,2.7,0.4
		c0,0.5-0.2,0.8-0.4,0.6c-0.2-0.1-1.2,0.2-2.1,0.7l-1.7,1l1.7,0.6c1.7,0.6,3.5,1.9,3.5,2.6c0,0.2-0.7,0.1-1.4-0.1
		c-2.2-0.7-2.1-0.2,0.5,2.1c1.5,1.4,2.3,2.5,2.3,3.2c0,1.1,0,1-1.4-0.2c-0.7-0.7-1.6-1.2-1.9-1c-0.9,0.6-0.6,3.3,0.4,4.3
		c1,0.9,1.2,2.4,0.5,3.5c-0.7,1.2-2.9-0.2-7.1-4.8c-3.7-4-4.3-4.4-6.9-5.1c-1.5-0.4-2.9-1-3.1-1.2c-0.5-0.8-3.8-0.5-4.6,0.4
		c-0.7,0.8-0.7,1.1,0.8,4.4c1.6,3.5,1.7,3.6,4.6,4.9c3.3,1.5,4.2,2.4,5.2,5.7c0.6,1.7,1.1,2.4,2.3,2.9c0.8,0.4,1.7,0.7,2,0.7
		c0.2,0,1.1,0.6,1.9,1.4c0.8,0.7,1.8,1.4,2.1,1.4s-0.1,0.5-1,1c-1.4,1-1.5,1.2-1.4,3.6c0.1,2.5,0.2,2.6,1.7,2.9
		c1.4,0.4,1.5,0.5,0.8,1.3c-0.4,0.5-0.7,1.1-0.7,1.4c0,0.3-0.3,0.7-0.6,0.9c-1.5,0.9-2.7,3.1-2.7,5.1c0,1.2-0.2,2.5-0.6,2.9
		c-0.4,0.7-0.3,1.4,0.5,3.4c0.9,2.2,1,2.5,0.3,3.2c-0.6,0.6-1.3,0.7-3.4,0.6c-4-0.3-4.8-0.5-4.8-1.5c0-1.4-1.5-3.7-2.5-4
		c-0.5-0.1-1.4,0-1.9,0.2c-0.6,0.2-0.8,0.4-0.5,0.4c0.3,0,0.9,0.4,1.3,0.8c0.9,0.9,0.2,1.6-1.7,1.6c-0.7,0-1.4,0.2-1.5,0.5
		c-0.1,0.2-0.8,0.3-1.5,0.2c-0.7-0.1-1.5,0-1.9,0.2c-0.6,0.3-0.4,0.7,0.6,1.5c1,0.8,1.2,1.4,0.9,2.4c-0.2,1.1-0.4,1.3-1.4,1.1
		c-0.9-0.2-1.1-0.1-1.1,0.7c0,0.8-0.2,0.9-1,0.7c-1-0.3-1-0.2-0.8,1.5c0.3,2.1-0.6,3.5-2.4,4.1c-0.6,0.2-0.9,0.7-0.9,1.4
		c0,0.6-0.2,1.5-0.4,2c-0.2,0.4-1,2.6-1.7,4.8c-0.7,2.2-1.7,4.3-2.1,4.7c-0.9,0.7-0.9,0.7,0,2.5c0.5,1,1.5,2.2,2.2,2.8
		c0.7,0.6,1.4,1.1,1.5,1.2c0.1,0.1-0.2,0.6-0.8,1.2c-1.4,1.5-1.3,1.9,0.4,1c1.8-0.9,2.3-0.9,2.3,0.2c0,0.8-0.1,0.9-0.9,0.5
		c-1.9-1-4.3,1.7-6.3,7c-1.1,3.1-1.2,3.9-1,6.9c0.2,2.1,0.6,3.5,0.9,3.6c0.7,0.2,0.7,3.4,0,4.4c-0.3,0.6,0.4,1.7,2,3
		c0.6,0.5,1,1.3,1,1.7s0.2,1,0.5,1.2c0.3,0.1,0.5,0.7,0.5,1.2c0,0.6,0.3,0.9,1,0.9c0.9,0,0.9,0,0.3,1.1c-1.2,1.9-1.2,2.8,0.1,3.1
		c1.3,0.3,1.9,2.2,0.8,2.8c-0.3,0.2-0.6,1-0.5,1.8c0.1,1-0.1,1.7-0.7,2.1c-0.7,0.5-0.7,0.8-0.3,2.1c0.5,1.1,0.4,1.5-0.1,1.9
		c-1,0.8-2.1,5.3-1.8,7.1c0.2,0.9,0.8,2.1,1.5,2.8c1,1.1,1.8,2.3,2.7,4.1c0.2,0.3,0,1.7-0.4,3c-0.7,2.5-0.6,5.3,0.4,6.1
		c0.3,0.2,0.7,1.5,0.9,2.8c0,0,0,0.1,0,0.1c5.2,0.5,10.5,0.8,15.9,0.8c29.1,0,56.4-7.8,79.9-21.3c-0.3-0.7-0.9-0.9-1.6-0.5
		c-0.5,0.3-1.2,0.6-1.6,0.6c-0.6,0-0.6-0.2,0-1.6c0.4-0.9,0.6-2,0.4-2.3c-0.4-0.9,0.5-0.9,3.1,0c2.1,0.7,2.1,0.8,5.1-1.5
		c3.3-2.5,3.6-4.2,1.2-5.8c-1.8-1.2-2.2-2.5-0.7-2c0.5,0.1,1.5,0,2.3-0.4c1.4-0.7,1.4-0.7,2.6,0.7c1.3,1.6,2.1,1,1-0.7
		c-0.4-0.6-0.6-1.4-0.4-1.9c0.2-0.7,0.4-0.6,1.3,0.5c1.2,1.5,2.9,1.6,5.6,0.4c1.8-0.9,1.9-1,1.8-3.1c0-1.2,0.1-2.1,0.3-2
		c0.7,0.4,1.8-2.6,1.8-4.9c0-1.2,0.2-2.5,0.6-2.8c0.7-0.7,0.1-1.3-1.2-1.6c-1.3-0.2-0.9-1.1,0.3-1c0.6,0.1,2.2,0.3,3.7,0.4l2.7,0.3
		l-1.6,1.7c-2.1,2.3-2.5,3.2-3.1,6.2c-0.2,1.4-0.7,3-1,3.8c-0.3,0.8-0.3,1.3,0,1.8c17.5-14.6,31.9-33,41.9-53.8
		c-0.5-1.8-1.1-2.8-1.9-2.8c-1.2,0-2.1-0.9-3.2-3.1c-0.7-1.4-0.7-1.5,0-1.2c0.4,0.1,0.9,0,1.1-0.3c0.2-0.4,0.6,0,1,1.1
		c0.4,1.1,0.8,1.6,1.2,1.5c0.3-0.1,0.6,0,0.6,0.5c0,0.5,0.9,1.6,2,2.6c9.5-20.5,14.9-43.3,14.9-67.4H247.9z"/>
	<path fill="#D00C33" d="M426.7,241.7c1.3,1.7,2.5,3.7,2.8,4.5c1.1,3.1,2.3,4.4,5.4,5.7c2.7,1,3.1,1.1,4.7,0.6
		c1.9-0.7,1.9-0.8,1.3-4.5l-0.4-2.1l1.2,1.6c0.7,0.9,1.2,1.9,1.2,2.1c0,0.3,0.4,0.9,0.9,1.4c0.8,0.8,1,0.7,2.6-0.2l1.7-1.1l-0.2-2.8
		c-0.1-1.5-0.5-2.9-0.7-3c-0.7-0.2-1.9-2.6-1.9-3.8c0,0,0,0,0,0h-19.9C425.8,240.5,426.3,241.1,426.7,241.7z"/>
	<path fill="#D00C33" d="M385.1,307.4c1.4,1.3,3.2,2.7,4.3,3.1c1.5,0.5,1.9,0.5,2.3,0c0.3-0.4,1.2-0.6,2.1-0.5
		c2.3,0.2,2.8-0.5,1.5-2.2l-1.1-1.4h1.1c0.7,0,1.4,0.4,1.8,1l0.6,1l1.8-1c2-1.2,2.2-1.7,0.7-2c-1.4-0.2-1.6-1.2-0.1-1.6
		c0.9-0.2,1.5,0,2.5,0.9c1.5,1.4,1.9,1.5,1.9,0.3c0-0.6,0.3-0.9,0.7-0.9c0.5,0,0.7-0.2,0.5-0.7c-0.2-0.6,0-0.7,1.4-0.6
		c1.1,0.1,1.9-0.1,2.7-0.8c0.6-0.6,1.8-1.4,2.6-1.9c0.8-0.5,1.5-1.1,1.5-1.5c0-0.5,0.2-0.5,1,0c0.8,0.4,1.1,0.3,1.7-0.5
		c0.4-0.6,0.8-1,1.1-1c0.7,0,2.8-2.1,2.8-2.8c0-0.3,0.2-0.5,0.4-0.3c0.2,0.1,1.3-0.6,2.4-1.6c1.2-1,2.3-1.9,2.6-1.9
		c0.6,0,2.2-1.7,2.3-2.5c0.1-1.3,1.2-3.1,1.9-3.1c0.5,0,0.7-0.3,0.5-0.9c-0.2-0.7,0-0.9,0.6-0.9c0.7,0,1.4-0.8,1.4-1.9
		c0-0.2-0.6-0.4-1.4-0.4c-2.1,0-1.7-0.8,0.7-1.5c1.7-0.5,2.1-0.7,2.1-1.6c0-0.6,0.2-1.1,0.5-1.1c0.8,0,2.6-2.1,2.4-2.9
		c-0.1-0.6,0.3-1,1-1.3c1.6-0.6,2-1.4,1.2-2.3c-0.4-0.4-0.9-1.1-1.1-1.5c-0.3-0.6-0.2-0.6,0.3-0.1c0.7,0.7,3.5,0.8,3.9,0.1
		c0.2-0.3,0-1-0.4-1.6c-0.6-0.9-0.6-1.1,0-1.3c0.4-0.2,0.5-0.7,0.4-1.2c-0.2-0.7,0-1.1,0.6-1.3c0.5-0.2,1.2-0.7,1.5-1.2
		s0.9-0.8,1.2-0.8c0.5,0,1.7-2.4,1.7-3.4c0-0.1-1.2,0.3-2.7,1c-2.4,1.1-3.3,1.3-7.1,1.2c-2.4,0-5.9-0.4-7.7-0.8
		c-3.2-0.7-3.3-0.7-4.1,0.2l-0.8,0.9v-1c0-0.6-0.2-1-0.5-1c-0.2,0-0.5,0.2-0.5,0.5c0,0.2-1.1,1.3-2.3,2.2c-1.7,1.3-2.8,1.7-3.7,1.6
		c-0.7-0.1-2,0.2-2.8,0.6c-1.1,0.6-1.4,1.1-1.7,2.8c-0.2,1.9-1.1,3.5-1.1,2.1c0-0.8-1.7-0.6-3,0.5c-0.8,0.7-1.4,0.8-1.8,0.5
		c-0.3-0.2-0.9-0.5-1.4-0.6c-0.7-0.2-0.7-0.3-0.1-1.3c0.6-0.7,1.2-1,2.5-1c1.9,0,2.7-0.5,4.2-2.6c0.6-0.8,1.8-1.8,2.8-2.2
		c2.3-0.9,3.4-2.1,2.4-2.7c-1-0.6-1.4-0.6-6.4,1.2c-2.5,0.9-4.8,1.7-5,1.8c-0.2,0-0.7-0.3-0.9-0.8c-0.5-0.8-0.7-0.9-2-0.5
		c-0.8,0.3-1.9,0.9-2.4,1.4c-0.8,0.8-1,0.8-1,0.1c0-0.9,0.7-1.5,2.8-2.6c1-0.5,1.6-1.1,1.6-1.6c0-0.4,0.2-0.8,0.5-0.8
		s0.7-0.9,0.9-2.1c0.3-1.8,0.1-2.3-0.7-3.3l-1.1-1.1l1.3-0.3c0.7-0.1,1.2-0.5,1.2-0.7c0-0.3,0.5-0.1,1.1,0.2c0.9,0.7,1.2,0.7,2,0.1
		c0.5-0.4,1.6-0.7,2.6-0.7c1.3,0,2-0.4,3.2-1.6c2.1-2.1,2.4-1.7,0.5,0.7c-1,1.2-2.1,2.1-3.3,2.4c-1.4,0.4-2,0.9-2.6,2.3
		c-0.5,1-1.4,2.2-2,2.8c-0.7,0.6-1.5,1.7-1.9,2.4c-0.6,1.1-0.6,1.4,0,1.7c1,0.7,1.4,0.5,5.2-1.4c2.5-1.3,4.3-1.9,5.6-1.9
		c1.7,0,2.2-0.3,4.2-2.3l2.3-2.3l-1.1-2.1c-0.8-1.7-1.3-2.1-2.2-2.1c-1.9,0-1.2-1.5,1-2.1c1.5-0.5,1.7-0.6,0.8-0.8
		c-0.7-0.2-1-0.7-1-1.6v-1.3l-1.2,1.4l-1.2,1.4l0.7-1.5c0.6-1.3,0.8-2.2,0.5-3H400C400,264.1,394.7,286.9,385.1,307.4z"/>
	<path fill="#D00C33" d="M224.1,399.2c0.7,4.9,0.8,5.3,1.9,5.8c0.7,0.3,1.1,0.9,1.1,1.5c0,0.6,0.4,1.4,0.9,1.9
		c0.7,0.6,0.8,1,0.5,1.4c-0.4,0.4-0.2,1.1,0.3,2.3c0.8,1.7,0.8,1.8-0.2,2.4l-1,0.7l1.2,1.9c0.7,1,1.6,2.8,2.1,4.1
		c0.5,1.2,1.4,2.6,1.9,3.2c0.8,0.8,0.9,1.4,0.7,3.2c-0.3,1.8-0.1,2.6,0.9,4.4c0.7,1.4,1.1,2.7,0.9,3.3c-0.2,0.7,0.1,1.6,1.1,3.1
		c0.8,1.2,1.4,2.7,1.4,3.5c0,1.1,0.4,1.6,1.9,2.6c1.9,1.2,2.7,2.7,2.2,4.4c-0.2,0.7,0,0.9,0.9,0.9c1.4,0,2.5,1.7,1.4,2.1
		c-0.9,0.4-0.9,1.5,0,2.9c0.8,1.2,2.4,1.4,3.7,0.4c0.7-0.5,1.2-0.5,1.8-0.2c0.5,0.2,1.9,0.5,3.2,0.6c1.8,0.1,2.7,0.5,3.6,1.4
		c0.8,0.7,2.1,1.4,3.2,1.5c1.6,0.2,2,0.5,2.4,1.8c0.4,1.3,0.8,1.6,2.2,1.9c5.2,0.9,8,2.5,5.7,3.2c-0.5,0.1-0.9,0.4-0.9,0.6
		c0,0.7,1.2,1.8,2.2,2.1c0.8,0.3,1,0.7,1,2.2c0,1.6,0.2,2,1.8,3c1,0.7,2.5,1.3,3.5,1.4c2,0.2,3,0.9,3.2,2.3s2.8,1.6,4.5,0.5
		c0.7-0.5,2-0.9,2.8-1.1c2.1-0.3,3.4-2.1,4-6c0.5-2.5,0.4-3.3-0.1-4.1c-1-1.4-0.7-1.9,1.1-2c2-0.1,2.6-0.8,2.3-2.8
		c-0.1-0.9,0-2.3,0.4-3.3c0.7-1.9,1.2-5,1.4-7.6c0-1.2,0.3-1.7,1-1.9c0.7-0.2,1-0.8,1.2-2.1c0.1-0.9,0.7-2.3,1.3-3s1.6-2.5,2.3-4.1
		l1.3-2.8l-0.8-3.6c-1.1-4.3-1.1-4.9-0.2-4.5c0.6,0.2,0.7-0.2,0.7-2.3c0-2.1-0.2-2.7-1-3.2c-0.9-0.7-0.9-0.7-0.2-0.7
		c1.4,0,3.5-1.5,4.3-3.1c0.8-1.6,1.5-2,1.6-1c0,0.3,0.3,0,0.7-0.8c0.4-0.8,1-1.7,1.4-2c0.4-0.4,0.7-0.8,0.7-1.1
		c0-0.3,0.5-1.1,1.2-1.9c0.7-0.7,1.2-1.7,1.2-2c0-0.3,0.7-1.5,1.7-2.6c3-3.6,3.3-4.6,3.3-11.8l0-6.4l1.7-0.4
		c2.5-0.7,2.8-2.5,0.9-5.8c-0.8-1.4-1.4-3-1.4-3.6c0-0.6-0.1-1.1-0.2-1.5C296.4,392.2,269.1,400,240,400
		C234.6,400,229.3,399.7,224.1,399.2z"/>
	<path fill="#D00C33" d="M240,80c-12.2,0-24.1,1.4-35.6,4c0.2,0,0.4,0,0.6,0c2,0,2.1,0.8,0.1,1.6l-1.5,0.6l1.4,0.6
		c3.1,1.2,3.3,1.4,1.3,1.2c-1.1-0.1-2-0.1-2,0.1c0,0.7,1.1,1.5,2,1.5c0.5,0,1.2,0.5,1.6,1.2c0.9,1.4,3.5,2.6,5.8,2.8
		c1.1,0,2.4,0.7,4.1,2.1l2.5,1.9l-1.3,0.3c-0.7,0.2-1.6,0.7-2.1,1.2c-0.7,0.9-0.7,0.9-3.2-0.7c-2.4-1.6-5.9-2.6-7-1.9
		c-0.4,0.2-0.1,0.8,0.7,1.7c0.7,0.7,1.1,1.4,0.9,1.4c-0.9,0-2.6-1.3-4.7-3.6l-2.3-2.4l-2.5,0.4c-3.9,0.7-4.7,1.4-4.7,4.4v2.5
		l1.9,0.5c1.3,0.3,1.8,0.7,1.6,1.2c-0.2,0.4,0.2,1.6,0.9,2.7c0.9,1.6,1.7,2.2,3.4,2.8c1.2,0.5,2.1,1,2.1,1.2c0,0.7-0.9,1-1.8,0.5
		c-1.3-0.7-6.5-0.1-6.9,0.8c-0.1,0.4,0.1,2.4,0.6,4.5c0.8,3.7,0.8,3.8,4,6.9l3.2,3.1l-0.3-2.1c-0.3-2.4,0.6-4.3,2.1-4.3
		c0.8,0,0.9,0.3,0.9,2c0,1.6,0.1,1.8,0.5,1.2c0.2-0.4,1-0.8,1.7-0.8c0.9,0,1.1,0.2,0.8,0.8c-0.5,1.3-0.8,4.3-0.5,4.3
		c0.2,0,0.7-0.2,1.3-0.5c0.8-0.5,0.9-0.3,0.9,0.9c0,0.7,0.2,1.5,0.5,1.7c0.3,0.1,0.5,0.1,0.5-0.1c0-0.3,0.6-0.6,1.2-0.7
		c0.7-0.2,1.7-0.9,2.4-1.6l1.2-1.3l-0.3,2.2c-0.2,1.3-0.1,2.2,0,2.2c0.8,0,2-1.2,2.1-2.3c0.1-0.8,0.6-1.3,1.5-1.5
		c1.8-0.5,2.6-0.2,2.6,1.1c0,0.6,0.4,1.1,0.8,1.2c0.4,0.1,1.2,1,1.7,1.9c0.7,1.4,1.3,1.8,3,2.2c1.8,0.4,2.1,0.7,2.4,1.9
		c0.3,1.7,1.9,4.3,3.2,5.5c0.6,0.5,0.9,1.4,0.9,2.4c0,1,0.6,2.4,1.6,4c2.1,3,2.3,6.4,0.6,7.5c-0.9,0.7-0.9,0.8-0.4,2
		c0.3,0.7,0.7,2,0.7,2.8c0.1,0.8,1,2.5,2.1,4c2.2,2.9,2.4,4.5,0.9,6.6c-0.9,1.2-1,1.8-0.7,4.8c0.3,3.4,0.3,3.5-0.9,4.3l-1.2,0.8l1,1
		c1.2,1.3,1.2,2.9,0,3.3c-1.8,0.6-2,1.8-0.5,3.8c1.6,2.2,1.7,2.4,0.5,2.8c-0.8,0.3-0.9,0.6-0.7,2.8c0.3,2.3,0.2,2.6-0.9,3.5
		c-0.7,0.6-1.2,1.4-1.2,2.1c0,1.1,0.1,1.1,1.6,0.8c1.9-0.3,2.1,0.3,0.6,1.4c-0.9,0.6-1,0.8-0.6,1.6c0.4,0.6,0.4,1.2,0.1,1.7
		c-0.4,0.7-0.6,0.7-1.8,0.1c-1.6-0.8-1.6-0.7-2.1,3.6c-0.3,2.4-0.2,2.8,0.7,3.8l1,1.1l-1.2,2.3c-0.6,1.3-1.3,2.8-1.4,3.3
		c-0.3,0.9-0.1,1.1,1.2,1.1c0.8,0,1.9-0.2,2.5-0.5c0.7-0.3,0.6-0.1-0.4,0.7c-3.5,2.9-3.6,3-3,4c0.8,1.2,0.3,2.1-1.8,3.5
		c-1.8,1.1-1.8,1.2-1.8,3.9c0,3.3,0.4,4,1.8,3.6c0.8-0.2,1.4,0,2.1,0.7c0.6,0.7,1.7,1.1,3.1,1.3c2.4,0.3,3.7-0.4,3.5-2
		c-0.2-1.9,2.9-4.5,5.4-4.4c0.6,0,0.7,0.1,0.5,0.3c-0.3,0.1-0.6,0.6-0.6,1c0,0.5-0.5,1.1-1.2,1.4c-1.2,0.6-1.6,1.7-0.6,2.1
		c0.3,0.1,1.2,0,1.9-0.3c0.9-0.3,1.9-0.3,3.2,0.1c2.2,0.7,2.1,1.6-0.1,1.8c-1.6,0.2-2.8,0.8-2.8,1.5c0,0.2,1.4,0.5,3.2,0.6l3.1,0.1
		l-3.4,0.1c-2.1,0-3.5-0.1-3.7-0.4c-0.5-0.9-1.1,0.6-1.1,2.7c0,0,0,0.1,0,0.1h3.6c0.3-0.3,0.7-0.4,0.9-0.4c0.4,0,0.5,0.1,0.3,0.4
		H400c0-2.7-0.1-5.4-0.2-8.1c0,0,0,0,0,0l-2,0.3v-1.7c0-0.9,0.2-1.7,0.6-1.7c0.3,0,0.8,0.1,1.3,0.3C394,145.8,324.7,80,240,80z"/>
	<path fill="#D00C33" d="M342.4,362.9c0.1,0.1,0.2,0.2,0.3,0.3c0.7,0.7,1.2,0.8,3.8,0.5c1.7-0.2,3.3-0.5,3.5-0.7
		c0.2-0.2,0.4-1.1,0.3-2c-0.1-1,0.1-1.8,0.5-1.9c0.3-0.1,0.6,0.2,0.6,0.8c0,0.7,0.2,0.9,0.8,0.8c0.6-0.1,0.8-0.8,1.1-3.1
		c0.3-2.9,0.9-4.5,0.9-2.4c0,0.6,0.4,1.9,0.9,2.8c0.8,1.5,0.9,1.5,1.2,0.7c0.2-0.5,0.7-1.2,1.2-1.5s0.8-1.1,0.8-1.8
		c0-0.7,0.5-1.6,1.4-2.4c1-0.9,1.4-1.5,1.2-2.3c-0.1-0.6-0.1-1.1-0.1-1.1c0,0,0.8,0.3,1.7,0.7c1.6,0.7,1.7,0.6,3.2-0.8
		c3.4-3.3,7.4-10.2,7.4-12.7c0-1.6,0.9-3.4,2.2-4.2c0.6-0.4,1.1-1.1,1.1-1.6c0-0.5,0.2-1,0.5-1.2c0.3-0.1,0.5-2,0.5-4
		c0-3.6,0.1-3.8,1.4-5.2c0.8-0.7,1.4-1.5,1.4-1.8c0-1,2.3-2.8,3.5-2.8h1.3l-0.2-2.9c-0.1-1.6-0.3-3-0.6-4.1
		C374.3,329.9,360,348.3,342.4,362.9z"/>
</g>
</svg>
