<?xml version="1.0" encoding="utf-8"?>
<!-- Generator: Adobe Illustrator 17.1.0, SVG Export Plug-In . SVG Version: 6.00 Build 0)  -->
<!DOCTYPE svg PUBLIC "-//W3C//DTD SVG 1.1//EN" "http://www.w3.org/Graphics/SVG/1.1/DTD/svg11.dtd">
<svg version="1.1" id="flag-icon-css-gm" xmlns="http://www.w3.org/2000/svg" xmlns:xlink="http://www.w3.org/1999/xlink" x="0px"
	 y="0px" viewBox="0 0 640 480" enable-background="new 0 0 640 480" xml:space="preserve">
<g>
	<path fill="none" d="M86,277.8c-0.8-0.2-0.8-0.2-0.1,0.7c0.7,0.8,0.7,1.4,0.1,3.2c-0.7,1.9-0.7,2.3,0.2,3.3c1.1,1,1.1,0.9,0.9-2.9
		C87,279.1,86.7,277.9,86,277.8z"/>
	<path fill="none" d="M8.5,311.1h7.7c0,0-0.1-0.1-0.1-0.1L8.5,311.1C8.5,311,8.5,311.1,8.5,311.1z"/>
	<path fill="#000099" d="M613.9,236.2l-3.8-1.2c-6.5-2.1-8.7-2.2-15.9-0.4c-4.3,1.1-9,1.7-13.9,2c-5.2,0.2-9.7,0.9-14.8,2.2
		c-6.9,1.7-7.8,2.1-14.1,6.4c-6.3,4.3-7.2,4.6-13.6,6.1c-6.7,1.6-7.1,1.6-15,0.9l-8.2-0.7l-9-7.2l-9-7.2l-3.1-9.5l-3.2-9.6l-12.7-4
		l-12.8-4l-9.5,4.1c-5.3,2.2-9.8,4.1-10,4.1s-3.7-2.1-7.6-4.6l-7.1-4.6v-4.2c0-4-0.2-4.6-3.8-11.8l-3.9-7.6l-10.9-4.6l-11-4.6
		l-4.8,0.6c-4.8,0.5-4.8,0.5-9.5-1.9c-5-2.5-9.7-3.8-13.6-3.7c-1.4,0-8.2,2.4-17,5.8c-8.1,3.2-15.7,6-16.9,6.2
		c-1.9,0.4-3.3-0.1-9.6-3.3c-4.2-2-7.9-3.7-8.3-3.7c-1.2,0-24.2,10-24.7,10.7c-0.2,0.4-2.9,7.2-5.9,15.2l-5.5,14.6l-4.3-0.3
		c-10.5-0.9-36.4-2-110.9-5.1c-37.7-1.5-90.7-3.4-95.8-3.4h-4.8l-0.4,2.2c-0.4,2-2.4,4.3-3.3,3.7c-0.2-0.2-1-2.1-1.6-4.3
		c-0.6-2.2-1.4-4-1.7-4c-1.5,0-5.3,1.5-5.3,2.1c0,0.4,1.1,1.8,2.5,3.2c2.4,2.4,2.6,3,3.2,7.6c0.6,4.9,0.6,5.1-0.9,6.8
		c-4.2,4.6-4.2,4,0.2,6.8c2.2,1.4,5.1,3,6.5,3.5l2.5,1l0.2,6.6l0.2,6.6l-2.7,3.2c-2.3,2.7-2.5,3.2-1.6,3.5c0.6,0.2,3.3,0.8,6.1,1.4
		c3.9,0.9,5.7,1.7,8.4,3.7c1.9,1.4,4,2.8,4.8,3c0.7,0.2,4.3-0.1,7.9-0.9c5.9-1.1,6.8-1.2,8.4-0.3c1,0.5,2.7,0.9,3.7,0.9
		c1.6,0,2-0.4,2.9-2.2c0.5-1.2,0.8-2.6,0.6-3.1c-0.2-0.4,0.1-1.1,0.5-1.3c0.5-0.3,1.2-1.5,1.7-2.7c0.8-1.9,0.9-2,1.2-0.8
		c0.2,0.7,0,2.1-0.5,3c-1.1,2.2-1.1,2.1,0.9,2.1c1.3,0,3.4-1.4,7.9-5.1c3.3-2.8,7.4-5.6,8.9-6.3s3.2-1.7,3.7-2.3
		c0.5-0.6,3.4-2.4,6.4-4l5.5-3l4.4,2.3c4,2,5.1,2.3,11.8,2.9c4.4,0.4,8.9,0.4,11.2,0.1c2.2-0.3,7.6-0.3,13,0
		c6.9,0.4,10.1,0.4,12.3-0.2c2.1-0.6,5.8-0.6,14.1-0.2c11,0.5,11.3,0.5,14.9-0.9c2-0.8,4.9-2.5,6.3-3.8c2.7-2.3,5.6-3.4,9.8-3.7
		c2.1-0.1,2.7,0.2,5.8,3.3c4.2,4.2,5.3,4.2,7.6-0.2c2.1-4,3-4.7,6.4-5.5c5.6-1.4,13.5,0.9,13.5,4c0,1.2,0,1.2-1.3,0
		c-1-0.9-2.5-1.2-6.2-1.4c-4.2-0.2-5.1,0-6.8,1.2c-1.6,1.2-1.9,1.7-1.9,4.3c0,4.2-1.7,5.6-6.3,5.6c-3.5,0-3.5,0-6.4-3.4
		c-2.6-3-3.2-3.4-5.2-3.4c-1.9,0.1-2.5,0.4-4.4,2.8c-1.2,1.5-2.6,2.8-3.1,2.8c-0.5,0-4.4,0.4-8.7,0.8s-8.7,0.9-9.9,0.9
		c-1.2,0.1-2.6,0.2-3.1,0.2c-0.5,0.1-3.1-0.4-5.8-1.1l-4.9-1.2l-2.5,1.4c-2.2,1.1-4.3,1.4-12.5,2c-5.5,0.4-10.8,0.8-12,1
		c-1.1,0.2-3.7,0-5.6-0.4c-3.5-0.7-3.7-0.6-6.1,0.9l-2.4,1.6l-5.5-1.9c-3-1-6.7-1.9-8.2-1.9c-1.5,0-3.2-0.3-3.8-0.7
		c-1.1-0.6-1.7-0.2-5.1,3c-2.2,2-5.7,4.6-7.9,5.8l-3.8,2.2l-1.6,5.3l-1.6,5.3l-5,1.1c-6.6,1.4-11,2.8-12.3,4
		c-0.7,0.6-1.7,0.7-2.7,0.6c-2.4-0.4-5.8,1.3-5.8,3c0,2.7-4.3,2.9-6.1,0.4c-1.2-1.7-1.4-1.7-8.8-1.9c-6.1-0.2-7.5-0.1-7.3,0.6
		c0.2,0.4,1.2,0.9,2.4,1c3.2,0.3,3.8,1.4,0.8,1.4c-3.2,0-4.6,1.4-4.6,4.8c0,1.5-0.5,3.4-1.3,4.6l-1.3,2l0.4-1.9
		c0.6-2.6,0.6-5.7,0.1-8.9c-0.4-2.2-0.4-2.6,0.5-2.6c0.6,0,1-0.4,1-0.8c0-0.5-3.4-1.7-9.1-3.2c-8.5-2.3-9.1-2.6-10.3-4.5
		c-1.4-2.3-2.1-2.4-5.3-0.8c-4,2-5.1,0.4-2-3.1c1-1.2,2.3-3.2,2.9-4.5c1.1-2.4,1.1-2.5-0.7-7.7c-1.5-4.5-2.1-5.5-4.2-6.9
		c-2.6-1.7-2.7-1.9-1.3-7.3c1.1-4,1.1-4-0.4-5.5c-1.2-1.2-2-1.5-4.5-1.5c-1.6,0-3-0.2-3-0.6c0-0.7-3.3-2.5-4.6-2.5
		c-0.6,0-3.5,2.3-6.5,5c-4,3.7-5.7,5.7-6.3,7.6c-0.9,2.6-3.7,5-10.7,9.2c-3.2,1.9-3.6,2.4-4,4.5c-0.4,2.4-1.3,3.8-2.8,4.3
		c-0.6,0.2-0.6,0.6,0,2c0.6,1.2,0.6,3.2,0.4,6.6c-0.4,4.7-0.4,5,1.1,6.6c2.2,2.3,2.5,6.6,1.3,15.9l-0.9,7.3l1.5,1.7
		c0.9,0.9,2.1,3.5,2.9,5.9c1.1,3.9,1.2,4.5,0.3,6.4c-0.1,0.2-0.2,0.4-0.2,0.6h7.6c-0.1-0.1-0.1-0.2-0.2-0.3c-1.1-1.1-1.1-1.5-0.5-3
		c0.6-1.2,1.2-1.6,2.8-1.6c1.5,0,2.4-0.4,3.3-1.9l1.4-1.9l-1.4-2.2l-1.3-2.1l1.4-0.9c1.4-0.9,8-0.7,68.7,1.2
		c56.7,1.8,122,3.5,122.6,3.1c0.1-0.1,0.7-7.4,1.4-16.2s1.4-16.6,1.5-17.4c0.2-1.2,0.8-1.4,7.3-1.6c5.7-0.3,7.8-0.7,11.2-2l4.2-1.7
		l10.2,3.4l10.1,3.3l9.5-4.8c5.3-2.7,10-4.8,10.6-4.8c0.5-0.1,5.9,2.1,11.8,4.8l10.9,4.9l10.2-2l10.1-2l7.3-4.5
		c4-2.5,7.5-4.8,7.8-5.2c0.3-0.4,1.7-5.9,3.2-12.2l2.7-11.5l8.9-6.1c8.7-5.9,8.9-6,12.5-5.9h3.6l3.7,7.6l3.7,7.6l12.9,9.2l13,9.1
		l6.6,0.4c5.2,0.3,8.4,0.9,15,2.9c4.6,1.4,8.8,2.7,9.3,3c0.5,0.3,1.6,2.4,2.5,4.7l1.5,4.2l9,5.5l9,5.5l8.1-1.4l8.1-1.4l3.2,2.8
		c2.8,2.5,4.3,3.2,12.4,5.9l9.2,3l6.8,6.8l6.8,6.8h11.9h11.8l4.5,2.7l4.4,2.7l5.3-1.4c4.7-1.3,5.9-1.4,11.3-0.9
		c3.3,0.2,6.1,0.3,6.4,0.1c0.2-0.2,1.7-2.9,3.2-6l2.7-5.6l7.2,0.5l7.3,0.5l5.7-2.9l5.8-2.9l10.2-0.8c5.6-0.4,11.2-0.9,12.2-0.9
		c2.3,0,3.1-0.9,13-14.4l5.3-7.3l-11.2-14.6L613.9,236.2z M86.2,285c-0.9-1-1-1.4-0.2-3.3c0.6-1.9,0.6-2.4-0.1-3.2
		c-0.7-0.9-0.7-0.9,0.1-0.7c0.7,0.2,1,1.4,1.1,4.3C87.3,285.8,87.2,285.9,86.2,285z"/>
	<path fill="#FFFFFF" d="M7.9,312.7c0,0.1,1.1,0.7,2.3,1.2c2.6,1.1,5,0.7,6.1-0.8c0.5-0.8,0.6-1.2-0.1-2H8.5
		C8.2,312,7.9,312.6,7.9,312.7z"/>
</g>
</svg>
