<?xml version="1.0" encoding="utf-8"?>
<!-- Generator: Adobe Illustrator 17.1.0, SVG Export Plug-In . SVG Version: 6.00 Build 0)  -->
<!DOCTYPE svg PUBLIC "-//W3C//DTD SVG 1.1//EN" "http://www.w3.org/Graphics/SVG/1.1/DTD/svg11.dtd">
<svg version="1.1" id="flag-icon-css-gp" xmlns="http://www.w3.org/2000/svg" xmlns:xlink="http://www.w3.org/1999/xlink" x="0px"
	 y="0px" viewBox="0 0 640 480" enable-background="new 0 0 640 480" xml:space="preserve">
<g>
	<path fill="#FFFFFF" d="M426.7,368.8c-2.4-0.8-5.3-2.5-8.4-4.9c-1.5-1.3-3.4-2.1-5.5-2.6c-1.7-0.3-3.7-1-4.3-1.4
		c-0.7-0.4-1.4-0.5-1.6-0.3c-0.2,0.2-2.3,0.5-4.6,0.7c-5.2,0.4-5.6,0.7-9,6.6c-1.6,2.8-3.1,4.6-4.1,5.1c-1.1,0.6-1.6,1.3-1.6,2.2
		c0,2.9-1.4,4.4-5.2,5.4l-3.6,1v6.6v6.6l-3.1,3.1c-1.7,1.6-4.7,3.8-6.6,4.8c-1.9,1-3.5,2-3.7,2.2c-0.2,0.2,0.3,3.3,1,6.7
		c0.7,3.5,1.5,8.7,1.9,11.5c0.3,3.3,0.9,5.7,1.5,6.7c0.8,1.2,0.8,1.7,0.3,2.5c-0.9,1.5-0.8,2,0.8,4c0.8,1,1.6,2.7,1.9,3.8
		c0.5,1.7,1.3,2.5,5.2,5c6.2,4.1,10.5,6,17.4,7.6c3.7,0.9,6.4,1.9,7.5,2.7c1,0.8,2.4,1.5,3.2,1.7c2,0.5,7.9-0.7,10.8-2.1
		c1.4-0.7,4-1.4,5.9-1.6c1.5-0.2,2.7-0.3,3.8-0.6V368.8z"/>
	<path fill="#FFFFFF" d="M213.7,200.7c2.3,3.7,3.5,4.9,4.8,4.9c1,0,1.2-0.2,1-1.1c-0.2-0.8,0.1-1.5,1.2-2.3l1.5-1.3l-2.2-0.3
		c-1.2-0.2-2.5-0.7-2.8-1.1c-0.8-0.9-0.9-3.2-0.4-5.9c0.3-1.6,0.2-2.2-1-3.6c-1.8-2.1-1.8-3.2-0.1-4.3c1.5-1,3-0.7,3,0.7
		c0,0.5,0.9,2,2.1,3.4c1.1,1.4,2.6,3.6,3.3,4.9c0.8,1.5,1.9,2.6,3.1,3.2c1.6,0.8,1.9,1.1,1.6,2.2c-0.2,0.8,0.1,1.9,0.6,2.6
		c0.7,1.1,0.8,1.5,0.3,2.1c-0.5,0.7-0.4,1,0.7,1.7c1.8,1.2,2,2.7,0.3,2.2l-1.2-0.4l1.1,1.5c0.6,0.9,2.2,2.2,3.6,2.9l2.5,1.4l3.3-1.5
		c2.8-1.3,3.5-1.4,4.5-0.8c1.7,0.9,2.1,1.5,2.1,3.8v2l3.4,0.6c1.9,0.3,5.1,0.6,7,0.6c3.7,0,13.8,2.9,17.2,5c2.2,1.3,3.9,1.3,4.9-0.3
		c0.4-0.7,1.4-1.6,2.1-2c1.1-0.6,1.5-0.5,2.6,0.2c1.2,0.8,1.5,0.8,3.3,0.1c1.1-0.4,2.9-1.7,4.1-2.9c1.7-1.7,2.8-2.2,6-3
		c4.9-1.1,6-1.1,6.4-0.1c0.4,1.1,2,1,3.4-0.4c1.1-1,1.4-1.1,2.5-0.5c1.8,1,5.4-0.5,8.6-3.5c2.6-2.5,4.1-3,5.2-1.9
		c0.7,0.7,1.8,0.2,1.8-0.9c0-1.6,2.3-2.5,6.5-2.5h4l3.4-3.3c4.2-4,6.8-5.2,12.2-5.7c2.9-0.3,5.3-0.9,8.4-2.3c4-1.8,4.6-1.9,7.9-1.6
		c2.7,0.3,3.8,0.2,4.9-0.5c1.2-0.8,1.4-0.8,3.2,0.3c1.9,1.1,1.9,1.1,8.3,0.3c8.8-1.3,15.2-2.9,17.8-4.6c1.8-1.2,3-1.5,7.4-1.7
		c4.3-0.3,5.8-0.6,8.2-1.9c2.7-1.4,3-1.5,9.1-1.3v-18.5c-0.4-0.6-0.7-1.2-1-1.7c-0.9-2-2.4-4.5-3.3-5.5c-0.8-1-1.5-2.3-1.5-2.9
		c0-2.9-4.2-7.9-5.6-6.4c-1.1,1.1-2.1,0.7-1.8-0.9c0.3-1.4,0.1-1.6-2.7-3.1c-1.7-0.9-3.3-2-3.6-2.6c-0.3-0.6-1.1-1-1.8-1
		s-2-0.8-3-1.9c-1.6-1.7-2-1.9-4.7-1.9c-1.6,0-3.1-0.2-3.3-0.5c-0.2-0.3-0.7-0.4-1.1-0.2c-0.6,0.2-0.8-0.2-0.8-1.4
		c0-1.9-0.3-2-1.9-0.9c-1.9,1.5-3.6,1-6-1.6l-2.2-2.5l-1.4,1.1l-1.5,1l-6.7-1.9c-3.7-1.1-7.1-1.8-7.7-1.6c-0.5,0.2-1.5,1-2.1,1.7
		l-1.1,1.4l-2-2.3l-2.1-2.3l-2.6,0.9c-2.6,1-2.7,1-6.6-0.3c-10.4-3.3-13.9-6-20.4-15.6c-2.3-3.3-5.4-7.8-6.9-9.9
		c-1.7-2.4-2.8-4.6-3.1-6c-0.2-1.2-0.7-2.6-1.1-3.1c-0.8-0.8-0.7-1.6,0.1-6.4c0.8-4.6,0.9-5.7,0.3-7.2c-0.7-1.6-0.7-1.8,1-3.3
		c1.8-1.7,2.1-2.9,1.3-4.3c-0.4-0.5-0.2-1,0.5-1.5c1.6-1.1,2.2-3,1.4-5c-0.5-1.3-0.5-2,0-2.7c0.5-0.8,0.4-1.3-0.4-2.5
		c-0.5-0.9-1.1-3-1.4-4.9c-0.4-4-1-5.2-2.6-5.4c-0.9-0.1-1.3-0.6-1.4-1.5c-0.2-2.2-1.8-9.3-2.7-12.1c-0.9-3.1-5-7-7.1-7
		c-0.8,0-1.9-0.6-2.5-1.4c-1.7-2-2.6-2.8-4.6-4.2c-1-0.7-2.6-1.9-3.7-2.8c-1.6-1.3-2.1-1.4-2.8-0.9c-1,0.8-1.1,0.4-1.6-4
		c-0.1-1.7-0.4-3.3-0.5-3.4c-0.2-0.1-1.3,0.1-2.6,0.4c-1.8,0.5-2.5,0.5-3.3,0.1c-0.6-0.4-1.6-0.5-2.3-0.4c-1.9,0.5-5.3-1.1-5.3-2.5
		c0-0.6-0.5-1.5-1.1-2.1c-0.9-0.8-1-1.1-0.5-2.5c0.7-1.8,0.5-2.1-0.5-1.4c-0.4,0.3-1.4,0.5-2.1,0.5c-1.5,0-4.1,2.6-5.7,5.8
		c-1.9,3.6-6.4,8-9,8.8c-1.3,0.4-2.9,1.3-3.8,2c-0.9,0.7-2.4,1.6-3.5,2.1c-1.5,0.6-2.1,1.2-2.3,2.6c-0.6,2.9-1.7,4.2-5.4,5.5
		c-2.6,1-4.4,2.2-7.8,5.4c-2.4,2.2-5.1,4.6-6,5.2c-1.1,0.8-1.6,1.7-1.8,3.6c-0.2,1.4-1,4-1.9,6c-0.9,1.9-1.6,3.6-1.6,3.6
		c0,0.1,0.4,0.3,1,0.4c0.7,0.2,1,0.9,1.3,2.8c0.2,1.6,0.8,3.1,1.5,3.9c1.1,1.1,1.1,1.6,0.8,3.9c-0.6,3.4-0.4,4.2,1.4,7.9
		c0.9,1.7,1.6,4,1.6,5.1c0,2.2,1.6,5.1,3.5,6.4c0.7,0.4,3.7,2,6.6,3.3c3.8,1.8,5.1,2.2,4.4,1.4c-0.5-0.6-0.8-1.3-0.7-1.4
		c0.5-0.5,2.9,1.2,6.6,4.7l3.2,3.2l-0.4,3.5c-0.4,3.7-1.5,6.4-2.6,6.4c-0.4,0,0.2,0.7,1.2,1.5c1.2,1,1.6,1.7,1.2,2
		c-1.3,0.8-0.7,2.5,1.1,3.2l1.7,0.8l-4.4,1.4c-2.4,0.8-5.1,1.6-6,1.8l-1.6,0.4l1.6,0.8c1.3,0.7,1.5,0.9,0.8,1.3
		c-0.5,0.3-1,1.1-1.2,1.9c-0.3,0.9-0.7,1.3-1.1,1.1c-2.5-0.9-9.2-1.9-10-1.5c-0.5,0.3-2.6,2.2-4.7,4.4c-2.5,2.6-3.6,4.2-3.4,4.8
		c0.8,2,1,5.2,0.4,6.8c-0.4,1.3-0.4,1.9,0,2.5c0.5,0.5,0.5,1.3,0.1,2.8c-1.3,4.3-6.4,10.8-7.1,9c-0.1-0.4-0.4-0.7-0.6-0.7
		s-0.2,1.3,0.2,2.7c0.5,2.7,0.5,2.7-1.6,4.9c-1.6,1.7-2.3,2-3.1,1.6c-1.3-0.7-1.7,0.1-0.9,2.1c0.9,2.3,0.3,2.7-1.8,1.3v36
		C213.5,200.4,213.6,200.6,213.7,200.7z"/>
	<polygon fill="#FFFFFF" points="213.6,325.8 213.3,325.3 213.3,326.1 	"/>
	<path fill="#00267F" d="M181.1,461.2c-1,0.7-1.5,1.1-1,1.1c0.4,0,1.8,0.8,2.9,1.6c3,2.3,5.4,2.2,6.8-0.2c1-1.8,1.1-1.9,3.7-1.4
		c1.5,0.2,3.3,0.5,4,0.8c1.3,0.4,1.3,0.4,0.3-1c-0.8-1.2-0.8-1.7-0.3-3.4c0.5-1.6,1.3-2.2,3.8-3.6c1.7-0.9,3.4-1.9,3.6-2.3
		c0.3-0.5,0.1-0.5-0.5,0.1c-1.4,1.2-2.3,0-1.5-2c0.9-2.2,0.6-3.9-0.9-4.9c-1.2-0.8-1.3-0.8-1.3,1.1c0,2.3-1,4.8-2,4.8
		c-0.4,0-1.2-0.9-1.9-1.9l-1.2-1.9l-1.3,1.2c-1.5,1.5-1.6,2.2-0.5,3.2s1,2.7-0.3,4.9c-1.1,1.8-1.1,1.8-4.2,1.5
		c-1.7-0.2-3.8-0.5-4.5-0.7c-1.1-0.2-1.5,0-1.7,0.8C183,459.7,182.1,460.6,181.1,461.2z"/>
	<path fill="#00267F" d="M188.6,117.6l-0.8,2.1l2.5,0.7c3.2,0.9,6.2,0.1,6.2-1.7c0-1-0.6-1.4-2.7-2.2
		C190,115.2,189.5,115.3,188.6,117.6z"/>
	<path fill="#00267F" d="M213.3,325.3l-1.8-3.4c-2.3-4.5-2.5-5.8-1.4-16.7c0.5-6,0.5-7-0.3-9.8c-0.5-1.7-1.3-3.7-1.7-4.4
		c-0.4-0.7-0.7-1.7-0.5-2.3c0.2-0.7,0-1.1-0.8-1.4c-0.6-0.2-1.7-0.8-2.5-1.4c-1.3-1-1.4-1.5-1.4-4.8c0-4.2,0.3-4.6,4.3-6.6
		c1.7-0.9,2.3-1.5,2.3-2.5c0-1.4-1.5-3.1-2.9-3.1c-1.7,0-4-1.6-6.5-4.4l-2.5-2.8l1-2c0.5-1.1,1-2.2,1-2.5c0-0.3-1.2-1.3-2.6-2.2
		c-1.7-1.1-2.6-2.1-2.7-3c-0.1-0.8-0.7-2.6-1.3-4.2c-1.3-3.2-1.1-4.2,1.1-5.5c1.9-1,2.3-2.1,1.6-3.8c-0.3-0.9-0.9-1.2-2.3-1.2h-1.9
		l-1.2-4.5c-1.6-6.1-1.5-6.9,1-10.1c1.2-1.5,2.2-2.8,2.2-3c0-0.1-0.7-1.1-1.6-2.3c-1.6-2-1.6-2.1-0.7-3.6c0.9-1.5,0.9-1.6-0.3-2.8
		c-1.1-1.3-1.1-1.4-0.4-4.7c1.5-6.6,4.9-11.3,6.5-9.1c0.5,0.7,1.1,0.8,2.8,0.5c6.2-1,6-1.1,6.7,0.5l0.7,1.5l1-1.3
		c0.9-1.1,1.1-1.1,2.6-0.4c0.7,0.4,1.7,1.2,2.4,2.1v-36c-0.1-0.1-0.2-0.1-0.3-0.2c-1.7-1.2-2.1-1.3-2.5-0.7c-0.7,1.1-2,1-2.5-0.3
		c-0.4-1.1-0.4-1.1-2.3,0.2c-3.7,2.7-4.3,2.8-5.7,1.5c-1.5-1.4-3.3-1-2.8,0.5c0.2,0.6-0.1,1.7-0.7,2.6c-0.6,0.8-1.6,2.5-2.2,3.8
		c-1,2-1.8,2.7-4.6,4c-3.9,1.8-4.6,1.9-6.3,0.7c-1.4-0.9-1.6-3.1-0.4-4c1-0.9,1.1-3.3,0-3.3c-0.4,0-1.7,1.1-2.8,2.5
		c-3.1,3.8-6.3,5.1-7.8,3.2c-0.7-0.9-0.8-0.8,1.4-4.8c0.4-0.8,0.7-1.7,0.5-2c-0.2-0.3-2,0.2-3.9,0.9c-4,1.6-4.9,1.4-6.2-1.3
		c-0.7-1.4-0.7-1.6,1.1-2.9c3.4-2.6,3.8-3.3,3.2-4.4c-0.3-0.5-0.5-1.4-0.5-2c0-0.9,0.1-0.8,1.1,0.1c2.1,1.9,2.3,2.8,1,4.6l-1.1,1.6
		h1.6c1.8,0,2.5-0.8,3-3.8c0.7-3.6,1.5-5,4-6.3c2.5-1.5,3.8-3.1,3.2-4c-0.7-1.1-7.1-0.6-10.9,0.8l-3.7,1.4l-1.7-1.7
		c-1-0.9-2.3-1.6-2.9-1.6c-0.7,0-1.9-0.6-2.8-1.4c-1.1-1-2.3-1.4-3.8-1.4c-1.7,0-2.5-0.3-3.1-1.2c-0.8-1.1-0.8-1.3,0.5-2.7l1.4-1.5
		l-3.4-1.7c-1.9-0.9-3.8-1.7-4.4-1.7c-0.9,0-6.1,1.5-8.2,2.5c-0.7,0.3-1.1,0-1.5-1c-0.3-0.9-0.9-1.4-1.6-1.4c-0.7,0-1,0.2-0.8,0.5
		c0.2,0.3,0,0.4-0.4,0.2c-0.4-0.2-1.2-1-1.8-2c-0.6-0.9-1.9-2.2-2.9-2.7l-1.7-1l-1.2,1.5l-1.2,1.5L123,134
		c-3.1-3.4-6.6-5.2-12.5-6.2c-7.2-1.1-9.7-2.5-9.7-5.4c0-0.4-1.9-2.8-4.3-5.2c-3-3.1-4.6-4.4-5.6-4.4c-0.8,0-2.8-0.7-4.6-1.4
		c-4-1.7-5.2-1.7-5.2-0.2c0,1.5-2.8,4.3-4.4,4.3c-0.6,0-2-0.4-3.1-0.8c-1.7-0.7-2.2-0.7-5.4,0.5c-2,0.7-4.9,2.1-6.6,3.1
		c-2.6,1.6-3,2-3,3.6c0,1.9-0.9,2.9-4,4.4c-2.9,1.4-3.4,2.4-2.6,4.8c1.6,4.3,0.4,6.7-4.3,8.3c-5.5,1.9-6.2,3.4-2.7,6.2
		c1.2,0.9,2.2,2.1,2.2,2.5c0,0.4-0.9,1.3-2.1,1.9c-3.3,1.7-3.8,3.1-2.6,8c1,4.1,1,4.1-0.2,6.1c-0.9,1.4-1.1,2.1-0.6,2.6
		c1.1,1.1,0.7,2-1.3,2.9c-2.1,1-3,3-2.1,4.5c0.3,0.5,0.8,2.7,1,4.9c0.2,2.3,0.9,5.2,1.7,6.8c0.7,1.5,1.3,3.6,1.3,4.4
		c0,1.3,0.7,2.3,2.6,4.3c1.4,1.4,3,2.6,3.6,2.6s0.9,0.4,0.9,1s0.9,2,2,3.3c2.4,2.7,3.8,6.4,4.3,10.8c0.3,2.7,0.2,4.1-1,7.9
		c-1.7,5.6-1.7,7-0.3,8.4c0.9,0.9,1.1,1.7,1.1,6.3v5.4l1.5,0.3c0.8,0.2,1.9,0.4,2.3,0.5c1.4,0.4,2.2,7.3,1.1,9.4
		c-0.3,0.5-0.2,2.3,0.1,4.2c0.5,3.1,0.4,3.5-0.9,6.1c-0.8,1.6-1.4,3.1-1.4,3.3c0,0.3,1,0.9,2.2,1.5c2.4,1.1,4.9,3.7,4.9,5
		c0,0.5-0.7,1.7-1.5,2.8c-2,2.7-2.6,6.9-1.5,11.5c0.6,2.6,0.7,3.9,0.3,4.8c-0.8,1.7-0.8,1.8,0.2,1.8c1.1,0,1.6,1.5,0.9,2.4
		c-0.5,0.6-0.4,0.9,0.3,1.4c0.9,0.6,0.9,0.7,0,1.4c-1.6,1.2-1,2.8,1.1,2.8c2.3,0,2.8,0.7,1.4,2c-1,0.9-1.1,1.4-0.5,2.5
		c0.4,1,0.4,1.6-0.1,2.4c-0.4,0.7-0.5,1.8-0.3,3c0.3,1.4,0.1,2.2-0.6,2.9c-0.8,0.9-0.8,1.5-0.3,5.3c1,6.8,1.5,7.8,6.1,13
		c8.4,9.3,8.8,10.2,9.8,19.9c0.3,3.1,0.9,6.2,1.3,6.8c1.1,2,15.8,15.9,18.7,17.7c2.3,1.5,3.1,2.3,4.3,5c2.1,4.7,2.8,8.6,2.1,11.6
		c-0.4,2.1-0.4,2.8,0.5,4.4c0.5,1,2.1,2.4,3.4,3.2l2.4,1.3l6.4-1.6c3.6-0.9,6.9-1.9,7.5-2.1c0.5-0.3,2.7-2.1,4.7-4.2
		c2-2,4.3-3.9,5.1-4.4c1.4-0.7,1.6-0.7,2.8,0.4l1.4,1.3l3.4-2.8c2.9-2.4,3.7-2.8,5.1-2.5c0.9,0.2,3.7,0.6,6.2,0.9l4.6,0.6l1.5-1.9
		c1.4-1.7,1.7-1.8,4.6-1.7c2.8,0.2,3.1,0.1,2.7-0.8c-1.1-2.7-1-3.8,0.8-4.7c1.4-0.7,1.7-1.3,1.7-2.6c0-2.2,1.7-4.9,4.4-6.8
		c1.3-0.8,2.8-2.3,3.4-3.3c0.7-1,2.8-3,4.8-4.4c1.9-1.5,3.8-3.1,4.2-3.6c0.4-0.5,1.5-1.1,2.6-1.5c1-0.3,2.7-1.7,4-3.3s3-2.9,4.1-3.3
		c1.5-0.5,2.3-1.4,4.4-4.8c1.5-2.6,2.6-5.2,2.8-6.9c0.4-3,1.5-4.9,4.8-8.3l1.9-2.1V325.3z"/>
	<path fill="#00267F" d="M188.8,474.4c-0.2,0-1.2,1-2.2,2.2l-1.7,2.2h2.1c1.1,0.1,3,0.4,4.2,0.8c1.9,0.7,2,0.7,2-0.2
		C193.1,478.4,189.6,474.4,188.8,474.4z"/>
	<path fill="#00267F" d="M187.7,450.9c0-0.8-0.4-1.1-1.5-1.1c-0.9,0-2.1-0.2-2.9-0.4c-1.1-0.3-1-0.1,0.7,1.1
		C186.5,452.3,187.7,452.4,187.7,450.9z"/>
	<path fill="#00267F" d="M148.5,469.9l4.8,2.2c2.7,1.3,5.3,2.2,5.8,2.2c1.7,0,3.3-1.5,5.9-5.7c2.5-4,3.7-4.9,4.3-3.3
		c0.2,0.4,0.8,0.8,1.4,0.8c0.8,0,1.1-0.4,1.1-1.4c0-1-0.4-1.4-2-1.9c-1.1-0.3-2.3-0.6-2.6-0.6c-0.3,0-0.9-0.4-1.5-0.9
		c-0.9-0.8-0.9-1-0.1-2.2c0.5-0.8,0.8-1.4,0.7-1.6c-0.1-0.1-1.8-0.8-3.8-1.5c-2-0.7-3.9-1.5-4.4-1.7c-0.7-0.3-1-0.1-1.3,0.9
		c-0.2,0.8-1.6,2.2-3.6,3.6c-3.1,2.1-4.4,4.2-3.6,5.4c0.2,0.3-0.1,1.6-0.5,2.9L148.5,469.9z"/>
	<path fill="#F31830" d="M428.6,184c4.4,0.2,11.8,0.9,16.6,1.7c5.5,0.9,10.9,1.4,14.6,1.4h6l5.8,3c4.3,2.2,6,2.8,6.3,2.3
		c0.7-1,0.5-1.2-4.4-4.4c-4.2-2.8-4.9-3.1-7.5-3.1c-2.1,0-3-0.2-3.3-0.9c-0.3-0.7-0.4-0.7-1.4,0.3c-1.3,1.4-1.2,1.4-4.9,0.1
		c-4-1.4-6.1-2.5-8.2-4.4c-1-0.9-2.9-1.9-4.2-2.2c-6.7-1.8-13.7-7-17.1-12.4v18.5C427.3,183.9,427.9,184,428.6,184z"/>
	<path fill="#F31830" d="M593,117.8c-0.2,0.1-1.3,0.3-2.5,0.5c-1.6,0.4-2.5,1-3.1,2.2c-0.9,1.4-1.2,1.6-2.6,1.3
		c-1.9-0.4-2.8,0.1-6,2.7c-1.3,1-2.8,1.9-3.4,1.9c-1.5,0-10.8,5-14.7,7.9c-1.8,1.3-4.6,3.2-6.3,4.2c-2.6,1.5-3.3,1.6-5.5,1.3
		c-2.1-0.3-2.4-0.2-2.4,0.8c0,2.1-5.6,4.9-8.5,4.2c-0.9-0.2-1.7,0.2-3.2,1.7c-2.5,2.5-2.9,3.8-3.1,8.6l-0.2,3.8l1.3-1.2
		c1.6-1.5,3.8-2.3,6.1-2.3c1.2,0,2.9-0.8,5.6-2.7c3.1-2.2,4.3-2.7,6.1-2.7c2.8,0,11.9-2.3,14.6-3.7c1.1-0.6,3.9-2.5,6-4.2
		c4.8-3.9,12.8-8,20-10.4c3.8-1.3,5.7-2.1,5.8-2.7C597.4,128,593.5,117.7,593,117.8z"/>
	<path fill="#F31830" d="M434,448.4c5.5-3.1,10-6.7,12-9.4c0.9-1.2,2-2.2,2.5-2.2c0.5,0,1.6-0.8,2.5-1.7c0.9-1,2.5-2,3.4-2.3
		c1.4-0.4,2.1-1.4,4-5.2c4.2-8.4,5-15.8,2.3-22.5c-1.6-4.2-4.1-6.9-8.8-9.7c-2.7-1.6-4.1-2.8-4.5-3.9c-0.3-0.9-0.9-1.6-1.2-1.6
		c-1.1,0-3.4-2.2-3.2-2.9c0.2-0.4-0.3-1.1-1.1-1.6c-0.7-0.5-2.1-2.3-3-3.9c-1.3-2.5-1.5-3.3-1-4.1c0.8-1.3-0.1-2.5-2.6-3.5
		c-1-0.4-2.3-1.5-2.9-2.4c-0.9-1.3-1.7-1.7-3.8-2c-0.6-0.1-1.3-0.3-2-0.5v82.9C428.8,451.2,430.6,450.3,434,448.4z"/>
</g>
</svg>
