<?xml version="1.0" encoding="utf-8"?>
<!-- Generator: Adobe Illustrator 17.1.0, SVG Export Plug-In . SVG Version: 6.00 Build 0)  -->
<!DOCTYPE svg PUBLIC "-//W3C//DTD SVG 1.1//EN" "http://www.w3.org/Graphics/SVG/1.1/DTD/svg11.dtd">
<svg version="1.1" id="flag-icon-css-gq" xmlns="http://www.w3.org/2000/svg" xmlns:xlink="http://www.w3.org/1999/xlink" x="0px"
	 y="0px" viewBox="0 0 640 480" enable-background="new 0 0 640 480" xml:space="preserve">
<g>
	<path fill="none" d="M640,73.3v9.8l1.1-2.2c1.9-3.9,3.6-7.2,3.6-7.3C644.7,73.5,642.9,73.4,640,73.3z"/>
	<path fill="#E32118" d="M59.1,401.2l2.8,0.3l2.7,5c1.5,2.8,3.5,5.8,4.3,6.7c2.1,2.1,3.7,6.9,3.7,11c0,2.2,0.4,3.7,1.2,4.8l1.3,1.6
		l3.3-1.5c1.8-0.8,4.2-1.4,5.3-1.4c1.4,0.1,2.1-0.3,2.4-1.1c0.3-0.9,1.2-1.4,2.7-1.7c3.1-0.6,4.3-1.3,4.8-2.8
		c0.2-0.7,0.9-1.3,1.4-1.3c0.6,0,2.4-0.6,4-1.4c2.1-1,2.9-1.7,2.6-2.4c-0.2-0.5-0.5-1.7-0.7-2.6c-0.3-1.6-0.1-1.8,1.4-1.8
		c1.5,0,1.8-0.4,3-4.7c1.2-4.1,1.7-5,4.4-7.2c1.9-1.5,4-2.6,5.5-2.9c3.5-0.6,3.3-2-0.6-4.6c-2.6-1.8-3.3-2-4.3-1.4
		c-0.8,0.4-1.3,1.1-1.3,1.6c0,1.7-1.6,0.6-1.8-1.3c-0.3-2.8,0.4-5,1.4-4.5c0.5,0.2,1.4,0.6,1.9,0.8c0.6,0.3,0.9,0,0.9-0.6
		c0-1.2,0.3-1.3,1.9-0.4c0.8,0.4,1.2,1.3,1.2,2.5c0,1.4,0.4,1.9,1.8,2.6c1.6,0.6,2.2,0.5,4.3-0.6c4.4-2.3,5.8-4.5,3-4.5
		c-0.9,0-1.6-0.1-1.6-0.2c0-0.1-0.3-2.5-0.6-5.5c-0.5-5.3-0.5-5.3,1.3-7.2c1.7-1.8,3.8-6.7,3.8-8.9c0-0.8,0.2-0.8,0.9-0.2
		c0.7,0.6,0.8,1.7,0.7,4.3c-0.3,2.9-0.6,3.7-1.9,4.7c-0.9,0.6-1.6,1.7-1.6,2.3c0,0.6-0.4,1.4-0.9,1.8c-1.5,1.3-1.6,3.9-0.2,5.8
		c0.7,0.9,1.5,1.8,1.8,1.8c0.8,0,1.3-2.1,0.6-2.8c-1.1-1.1-0.7-2.3,0.9-2.3c1.4,0,1.6,0.3,1.6,2.8c0,2.3,0.2,2.8,1.1,2.8
		c0.6,0,1.4-0.3,1.8-0.5c1-0.6,7.8-9,7.8-9.6c0-0.4,2.8-1.9,3.8-1.9c1.2,0,0.6,1.4-1.4,3.5c-4.2,4.3-5.3,5.7-6.1,7.6
		c-0.8,2.1-2.9,3.4-5.4,3.4c-2.6,0-3.5,0.7-3.8,3.3c-0.3,1.8-0.6,2.4-1.4,2.1c-0.6-0.2-2.2,0.9-4.3,2.8c-2.6,2.5-3.8,3.1-5.5,3.1
		c-3.1,0-5.6,2.8-5.4,6c0.1,1.3-0.2,3.7-0.6,5.3c-0.4,1.6-0.7,3-0.7,3.3c0,0.3,1.6,0.5,3.7,0.5c2.9,0,4.1-0.3,6-1.6
		c2.5-1.7,5.7-2,10.9-1c7,1.4,7.1,1.4,7.1,0.1c0-0.6,0.2-1.3,0.4-1.5c0.7-0.8,2.1,0.9,2.1,2.5c0,1.8,0.8,2.3,4.3,2.5
		c1.6,0.1,5,0.5,7.5,0.9c4.5,0.8,4.6,0.7,6-0.8c0.8-0.9,2.3-2,3.5-2.6c1.1-0.6,1.9-1.3,1.9-1.6c0-0.3,0.8-0.4,1.8-0.3
		c1,0.2,2,0.1,2.2-0.3c0.3-0.3,0.8-2.8,1.1-5.5c0.6-4.1,0.6-5.2-0.3-6.7c-0.9-1.7-0.9-2,0.3-4c0.7-1.1,1.4-2.2,1.8-2.4
		c0.3-0.1,0.4,2,0.4,4.9c-0.1,2.8,0.2,6.3,0.4,7.9c0.5,2.3,0.4,3-0.9,4.7c-0.8,1.1-1.6,3-1.8,4.2l-0.3,2.2l-4.1,0.4
		c-2.6,0.2-5.5,1-8.1,2.3l-4,1.9l2.3,1.3c1.3,0.8,2.3,1.7,2.3,2.1c0,0.4,0.6,0.1,1.2-0.7c0.9-1.3,1.4-1.4,3.3-1.1
		c1.2,0.3,3.4,0.6,5,0.8c2.6,0.3,4.4,0.8,7.2,2.3c0.6,0.3,2.2,0.4,3.5,0.2c2.6-0.4,3.8,0.4,2.5,1.9c-1,1.2-3.6,1.2-6.6-0.1
		c-1.3-0.5-2.9-0.8-3.5-0.7c-0.6,0.2-1.6-0.1-2.3-0.6c-0.6-0.4-1.8-0.9-2.5-0.9c-0.8,0-1.7-0.4-2.1-0.9c-1-1.2-2.5-1.2-2.5-0.1
		c0,0.5-0.7,1.7-1.5,2.6c-1.4,1.7-1.6,1.7-4.1,1c-2.6-0.8-3.3-1.8-1.6-2.4c0.5-0.3,0.9-0.6,0.9-0.8c0-0.9-4.8-1.9-8.4-1.9
		c-3.9,0-4.3,0.5-2.6,3.6c0.5,1,1,4.1,1.1,7.2c0.2,5.2,0.3,5.5,1.8,6c0.9,0.4,2.2,0.3,3.1,0c2.3-0.9,8.2,0.1,10.4,1.7
		c2.6,1.9,5.7,3.5,7.1,3.5c1.3,0,5.2,3.7,5.2,4.9c0,0.4,0.7,2.2,1.6,3.9c1.4,2.9,2,3.3,8.6,6.7c3.9,1.9,7.6,4,8.2,4.5
		c0.9,0.9,1.5,0.9,6-0.1c2.6-0.6,6.3-1.1,8-1.2l3.1-0.1l0.2-3.1c0.1-1.7,0.5-3.5,0.8-3.8c0.4-0.4,0.3-1.4-0.4-2.5
		c-1.2-2.3-1.2-4.6,0-6.2c0.5-0.7,0.9-2,0.9-3v-1.8l115.6-0.1c108.9-0.2,115.7-0.3,116.8-1.3c1-0.9,3-1.2,11.6-1.5
		c9.9-0.4,10.4-0.4,12-1.9c1.5-1.4,2.5-1.7,8.5-2.2c3.7-0.3,7.9-0.9,9.3-1.4c2-0.6,3.9-0.6,9-0.1c6.1,0.7,6.6,0.9,8.8,3
		c1.3,1.2,3.3,3,4.7,3.9l2.3,1.7l46.5-0.4c25.5-0.2,55.2-0.5,66-0.7l19.6-0.4l0.1-122.7H120L59.1,401.2z"/>
	<path fill="#FFFFFF" d="M340.7,294.4l0.1,1.8v0C341,295.4,341,294.8,340.7,294.4z"/>
	<path fill="#FFFFFF" d="M266.2,272.3l-0.7,3.8C265.8,274.6,266.1,273.3,266.2,272.3L266.2,272.3z"/>
	<path fill="#FFFFFF" d="M135.6,164.4c-1.3,0.8-2.8,2.4-3.4,3.6c-0.5,1-2,2.7-3.4,3.8L180,240l-60,80h517.2l0.1-54.7l0.1-105.3
		H139.3C138.2,162,137,163.5,135.6,164.4z M363.4,178.8l4,2l3.8-2.5l0.2,4.5l4,2l-3.6,2.4l0.2,4.5l-4-2l-3.8,2.4l-0.2-4.4l-4-2
		l3.8-2.5L363.4,178.8z M343.8,174.5l4.2,1l3.2-3.2l1.2,4.3l4.4,1.1l-3.2,3.2l1.2,4.2l-4.2-1l-3.2,3.2l-1.2-4.3l-4.2-1l3-3.2
		L343.8,174.5z M323.4,172.8l4.4,0.2l2.4-3.8l2.2,4l4.4,0.2l-2.4,3.7l2,4l-4.4-0.2l-2.4,3.8l-2-4l-4.4-0.2l2.2-3.7L323.4,172.8z
		 M308.2,173.2l2-4l2.4,3.8l4.4-0.2l-2,4l2.4,3.7l-4.4,0.2l-2.2,4l-2.4-3.8l-4.4,0.2l2-4l-2.4-3.7L308.2,173.2z M288,176.6l1.2-4.3
		l3.2,3.2l4.4-1l-1.4,4.3l3.2,3.2l-4.4,1l-1.2,4.3l-3.2-3.2l-4.2,1l1.2-4.2l-3-3.2L288,176.6z M281.6,191.8h76.6V272
		c0,27-35.2,6.2-38.2,20.6c-5.2-14.8-38.2,6.6-38.2-22.2L281.6,191.8L281.6,191.8z M269,182.8l0.4-4.5l3.6,2.5l4-2l-0.2,4.4l3.6,2.5
		l-4,2l-0.2,4.4l-3.8-2.4l-4,2l0.4-4.5l-3.8-2.4L269,182.8z M264.2,251.6c1.4,9,11.6,12.8,10.4,18.6c-0.1,0-0.1,0-0.2,0l0.2,0.2
		l-5.2,7.2c2.3,3.3,6.2,7.2,12.8,9.8c10.2,4,24.6,1.4,24.6,1.4s0.5,1.6,0,2.6l-0.4,7c0,0-1.3,0-2.9-0.3c10.3,2.2,37.3,2.1,37.3-1.9
		v0c0,0-1.4,1.2-3,1.8c-1.8,0.6-3.8,0.6-3.8,0.6l-0.4-6.9c-0.8-0.9,0-2.9,0-2.9s14.4,2.6,24.6-1.4c7.8-3.2,11.6-8.1,13.5-11.7
		l-1.3,1.9l-5-7.2l0.2-0.2c-0.1,0-0.2,0-0.2,0c-1.2-5.8,8.8-9.6,10.2-18.6c0.8,14.8,8.4,19.8-0.8,25v-0.2l-1-3.8l-0.1,0.1
		c0.6,2.7,1.8,7.9,3.7,10.9c-3.4,18.4-36.6,18.8-36.6,18.8v3.4c0,6.8-41.2,6.8-41.2,0v-9.6c0,0.6,0.9,1.1,2.5,1.6
		c-1.3-0.5-2.3-1.2-2.3-1.2l-0.3-0.7c0,0.1,0,0.2,0.1,0.3v6.2c0,0-33.2-0.4-36.8-18.8c1.2-1.9,2-4.6,2.6-7
		C256.2,271.6,263.4,266.4,264.2,251.6z"/>
	<path fill="#3E9A00" d="M630.1,73c-8-0.2-18.4-0.8-22.9-1.2c-7.9-0.7-8.4-0.8-10.9-2.8c-3.1-2.5-4.1-2.5-9.7,1l-3.8,2.3l-158.7,0.3
		l-158.7,0.3l-3.8,1.7c-2.1,0.9-4.7,1.8-5.8,1.8s-3.1,0.6-4.5,1.3c-3.4,1.8-4.7,1.6-7.4-0.9c-1.4-1.2-3.3-2.3-4.6-2.5
		c-1.2-0.2-3.3-0.7-4.8-1.1c-2.2-0.7-3.1-0.6-6.5,0.4c-3.2,0.9-4,1.5-4.5,2.9c-0.8,2.2-2.8,2.3-3.6,0.3c-0.9-2.5-3.1-3.5-8.8-3.8
		c-6.8-0.5-10.4-1.8-11.6-4c-0.8-1.4-1.6-1.8-4.8-2.5c-2.6-0.5-4.2-0.5-4.6-0.1c-0.4,0.4-1.4,0.6-2.3,0.6c-1.3,0-1.8-0.4-2.4-1.9
		c-0.4-1.1-1.1-1.9-1.8-1.9c-2.8,0-5.9-1.4-6.5-2.8c-0.3-0.8-0.9-1.6-1.2-1.9c-0.4-0.2-0.7-0.8-0.7-1.3c0-1.7-5.2-6.5-7.9-7.1
		c-5.2-1.4-6.4-1.2-8.8,1.1c-1.8,1.7-2.2,1.9-2.2,1c0-0.6,0.6-2.3,1.4-3.6l1.4-2.5l-1.4-3.9c-0.8-2.1-1.4-5-1.4-6.3
		c0-2.6-0.1-2.7-2.3-1.3c-2,1.4-3.5,0.3-2.3-1.6c1.1-1.8,0.9-2.3-0.8-2.8l-1.6-0.4l1.8-1.4c0.9-0.8,2.4-1.6,3.2-1.9
		c2.1-0.7,1.9-4-0.6-7.2c-2.3-2.9-2.6-3-4.9-1.7c-0.9,0.5-3.6,1.4-6.1,1.9l-4.6,1v4c0,3,0.4,5.1,1.6,8c1.5,3.5,1.8,5.2,2.5,17.4
		c1.4,23.7,1.4,24.9-0.6,29.5c-0.9,2.3-2.4,5-3.1,6c-0.8,1.1-2.1,3.5-2.8,5.2l-1.3,3.3l1.9,3.9c1.1,2.2,2.1,4.7,2.1,5.5s0.6,4,1.3,7
		c0.9,4.2,1.4,5.5,2.3,5.7c0.9,0.3,1.2,0.9,1.2,2.4c0,1.1,1.2,7.5,2.6,14.1c1.6,7.4,2.5,12.7,2.1,13.7c-0.2,0.9-1.8,3.5-3.5,5.7
		c-1.7,2.3-3.9,5.6-4.8,7.5c-0.1,0.2-0.2,0.3-0.3,0.5h498.1l0.1-72l2.5-4.8v-9.8C637.4,73.2,633.9,73.1,630.1,73z"/>
	<path fill="#0073CE" d="M180,240l-51.2-68.3c-0.1,0.1-0.3,0.2-0.4,0.3c-1.6,1.1-2.8,2.2-2.8,2.5c0,0.3,1.6,0.9,3.5,1.4
		c2.6,0.8,3.5,1.3,3.5,2.2c0,1.1-0.1,1.1-1.8,0.3c-1-0.4-2.5-0.9-3.3-1c-1.5-0.2-1.6,0-2.1,4.5c-0.4,3.8-1,5.6-3,9.1
		c-1.4,2.4-3,5-3.6,5.7c-1.9,2.2-5.6,4.7-9.1,6c-3.1,1.2-3.5,1.6-5.8,6c-2.3,4.3-5,7.2-8.2,8.9c-0.8,0.4-1.6,1.4-1.8,2.3
		c-0.3,0.9-0.8,1.6-1.3,1.6c-1.5,0-4.8,3.1-4.8,4.7c0,0.9-0.8,1.8-2.5,2.8l-2.5,1.6l-0.4,7.2l-0.5,7.2l3,3c3.5,3.6,3.8,5.2,0.9,4.7
		c-1.8-0.3-2.4,0-4.7,2.4c-1.9,1.9-3,3.8-3.7,6.4c-0.6,2-2.1,5.2-3.4,6.9c-1.4,1.8-2.6,4.3-2.8,5.7c-0.3,1.4-1,4.5-1.8,7l-1.4,4.5
		l-3.1,0.4c-3.8,0.4-3.7,0.3-5.7,7.7c-0.3,1-9.6,7.9-13.2,9.8c-1.8,0.9-3.8,2.6-4.7,4c-0.9,1.3-3.1,4-5,6c-3.8,4.1-3.8,3.7-0.8,11.5
		c1.1,2.8,1.9,5.2,1.9,5.3s-0.6,0.1-1.2-0.1c-1.4-0.3-1.9,1-1.9,4.7c0,1.9-0.4,2.6-2.1,3.9c-1.2,0.9-2.3,1.6-2.6,1.6
		c-1.3,0-5.2,4.3-6.3,7.1c-1.2,3-1.6,3.3-4.7,4.3c-4,1.4-6.5,3.4-5.1,4.2c1.2,0.8,0.6,4.5-1.5,9.5c-1.1,2.6-1.7,5-1.6,6.8
		c0,1.4-0.2,2.6-0.5,2.6c-0.3,0-0.9,1.1-1.4,2.3c-0.4,1.3-1.4,3.4-2.2,4.6c-0.8,1.2-1.5,2.5-1.5,2.8c0,0.3-0.9,1.9-1.9,3.4
		c-2.1,3.1-2.4,5.5-0.9,8.2c0.7,1.4,1.4,1.9,2.7,1.9c1.4,0,2.2,0.8,4.6,4.3c2.8,4,3.1,4.3,6.9,5.3l4,1.1l1.6-1.6
		c0.9-0.9,2.3-1.6,3.1-1.6c2.3,0,8.3-2.1,8.3-2.9c0-0.4,0.9-0.9,2.1-1.2c1.1-0.3,3-1.2,4.2-2.2c2.1-1.6,2.3-1.7,5-0.9
		c2.5,0.7,3,0.7,4.5-0.2c1.6-0.9,1.8-0.9,4.2,0.7c1.4,1,3.8,1.8,5.7,2.1l0.4,0L120,320L180,240z"/>
	<path fill="#FFFFFF" d="M327.1,223.2c-0.4-0.5-0.8-1-1.3-1.6c-1.3,0.6-2.3,0.9-3.1,1.1c-0.1,1.4-0.3,2.8-0.4,4.1
		C324.4,224.8,326.1,223.7,327.1,223.2z"/>
	<path fill="#FFFFFF" d="M320,292.6c3-14.4,38.2,6.4,38.2-20.6v-80.2h-76.6h0l0.2,78.6C281.8,299.2,314.8,277.8,320,292.6z
		 M291.8,225.6c0.4-3.2,3.2-2.6,5-2.2c0.2-2,1.4-1.6,2.4-1.2c-0.6-1.4-0.2-2.2,1.6-2.6c-2.6-3.4-1-4.6,1.6-5.8c-1.4-3.2,1-3,2.8-3.2
		c-0.2-3.4,0.8-4,4.4-4.4c-0.4-1.2,0.2-2.2,2.2-2.2c-1.2-3.4,0.4-4.2,4-3.6c0.6-5,11.2-2.6,10.4,4.2c3,0.4,4,1,4.8,3.4
		c1.2-1.4,1.2-1.4,3.4-1.4c0.4-3,5.4-3,5.8,0.8c4-0.8,4.8,1.6,3.2,4c3.8-1,7.2,0,6.2,4.4c6.8,1.8,4.2,6.6,1.2,7.6
		c-0.4,3-3.2,4-7,2.8c-4.8,3.4-7.6,2.2-9.8-1.2c-2,0.3-3.3,0.3-4.3,0.1c-8.5,4.6-7.7,11.1-6.9,22.3c0.2,4.2,0.2,9.6,1.2,14.8
		c1.4,6.6,4.2,12.2,4.4,16.4c0.2,2.6-3,1.2-3,1.2s-0.7,0.6-1.9,0.5c-2.9,2.9-4.5,0.6-5-0.2c-3.5,3.7-4.9-0.7-5.1-1.1l0.2,0.8
		c-3.4,1.6-3.8-1.6-3.6-2c7.4-15,10.6-48,3.8-51.6l0-0.2c-0.6,1.4-1.9,1.8-4,1c2.4,5-3.8,7.2-6.8,3c-2.8,0.2-3-0.6-4.4-1.6
		c-1.2,4-5.6,3.4-6.4,1.2C286.6,228.8,287.2,225.8,291.8,225.6z"/>
	<path fill="#FFFFFF" d="M319.1,227.1l0.1-4.8c-0.6-0.3-1.2-0.6-2-1.1c-0.2,2.8-1.2,2-3,1.8C316.5,223.7,318.7,226.5,319.1,227.1z"
		/>
	<path fill="#73452B" d="M327.1,223.2c-0.9,0.5-2.7,1.7-4.8,3.7c-2.2,25.8,0.1,41.5,0.1,49.3c0,2.8,1.6,3.8,1.4,3.8
		c-0.1,0.1-0.2,0.2-0.3,0.3c1.2,0.2,1.9-0.5,1.9-0.5s3.2,1.4,3-1.2c-0.2-4.2-3-9.8-4.4-16.4c-1-5.2-1-10.6-1.2-14.8
		c-0.8-11.2-1.6-17.7,6.9-22.3C328.6,224.8,327.9,224.2,327.1,223.2z"/>
	<path fill="#73452B" d="M322.4,276.2c0-7.9-2.3-23.5-0.1-49.3c0.1-1.3,0.2-2.7,0.4-4.1c-1.3,0.3-2.2,0.2-3.5-0.4l-0.1,4.8
		c0,0.1,0.1,0.1,0.1,0.1c1,37,0,52.2-0.6,52.8c0,0,0,0-0.1,0.1c0.5,0.8,2.1,3.1,5,0.2c0.1-0.1,0.2-0.2,0.3-0.3
		C324,280,322.4,279,322.4,276.2z"/>
	<path fill="#A36629" d="M319.2,227.2c0,0,0,0-0.1-0.1c-0.4-0.6-2.6-3.4-4.9-4.1c0.1,1.2-0.1,2.2-0.4,3l0,0.2
		c6.8,3.6,3.6,36.6-3.8,51.6c-0.2,0.4,0.2,3.6,3.6,2l-0.2-0.8c0.2,0.4,1.6,4.7,5.1,1.1c0,0,0,0,0.1-0.1
		C319.2,279.4,320.2,264.2,319.2,227.2z"/>
	<path fill="#009A3B" d="M292.2,229.6c0.8,2.2,5.2,2.8,6.4-1.2c1.4,1,1.6,1.8,4.4,1.6c3,4.2,9.2,2,6.8-3c2.1,0.8,3.4,0.4,4-1
		c0.3-0.7,0.4-1.7,0.4-3c1.8,0.2,2.8,1,3-1.8c0.8,0.5,1.4,0.8,2,1.1c1.3,0.6,2.2,0.7,3.5,0.4c0.8-0.2,1.8-0.6,3.1-1.1
		c0.5,0.6,0.9,1.1,1.3,1.6c0.8,1,1.5,1.6,2.6,1.9c1,0.2,2.3,0.2,4.3-0.1c2.2,3.4,5,4.6,9.8,1.2c3.8,1.2,6.6,0.2,7-2.8
		c3-1,5.6-5.8-1.2-7.6c1-4.4-2.4-5.4-6.2-4.4c1.6-2.4,0.8-4.8-3.2-4c-0.4-3.8-5.4-3.8-5.8-0.8c-2.2,0-2.2,0-3.4,1.4
		c-0.8-2.4-1.8-3-4.8-3.4c0.8-6.8-9.8-9.2-10.4-4.2c-3.6-0.6-5.2,0.2-4,3.6c-2,0-2.6,1-2.2,2.2c-3.6,0.4-4.6,1-4.4,4.4
		c-1.8,0.2-4.2,0-2.8,3.2c-2.6,1.2-4.2,2.4-1.6,5.8c-1.8,0.4-2.2,1.2-1.6,2.6c-1-0.4-2.2-0.8-2.4,1.2c-1.8-0.4-4.6-1-5,2.2
		C287.2,225.8,286.6,228.8,292.2,229.6z"/>
	<polygon fill="#FFD700" points="364,187.7 364.2,192.1 368,189.7 372,191.7 371.8,187.2 375.4,184.8 371.4,182.8 371.2,178.3 
		367.4,180.8 363.4,178.8 363.8,183.2 360,185.7 	"/>
	<polygon fill="#FFD700" points="346.2,183 347.4,187.3 350.6,184.1 354.8,185.1 353.6,180.9 356.8,177.7 352.4,176.6 351.2,172.3 
		348,175.5 343.8,174.5 345,178.8 342,182 	"/>
	<polygon fill="#FFD700" points="304,181.1 308.4,180.9 310.8,184.7 313,180.7 317.4,180.5 315,176.8 317,172.8 312.6,173 
		310.2,169.2 308.2,173.2 303.6,173.4 306,177.1 	"/>
	<polygon fill="#FFD700" points="327.6,180.7 329.6,184.7 332,180.9 336.4,181.1 334.4,177.1 336.8,173.4 332.4,173.2 330.2,169.2 
		327.8,173 323.4,172.8 325.4,176.8 323.2,180.5 	"/>
	<polygon fill="#FFD700" points="285.6,185.1 289.8,184.1 293,187.3 294.2,183 298.6,182 295.4,178.8 296.8,174.5 292.4,175.5 
		289.2,172.3 288,176.6 283.8,177.7 286.8,180.9 	"/>
	<polygon fill="#FFD700" points="268.4,191.7 272.4,189.7 276.2,192.1 276.4,187.7 280.4,185.7 276.8,183.2 277,178.8 273,180.8 
		269.4,178.3 269,182.8 265,184.8 268.8,187.2 	"/>
	<path fill="#FFFFFF" d="M305.6,292.2c-5.2,0.8-6.7,1.5-6.1,3.7l0.3,0.7c0,0,1,0.7,2.3,1.2c0.4,0.1,0.9,0.2,1.4,0.4
		c1.5,0.3,2.9,0.3,2.9,0.3l0.4-7C306.6,291.8,306.2,292.1,305.6,292.2z"/>
	<path fill="#FFFFFF" d="M373.7,272.7l0.1-0.1l-0.4-1.6C373.4,271,373.5,271.7,373.7,272.7z"/>
	<path fill="#FFFFFF" d="M334.6,292.2c-0.5,0-0.8-0.2-1-0.5l0.4,6.9c0,0,2,0,3.8-0.6c1.6-0.6,3-1.8,3-1.8l-0.1-1.8
		C340.1,293.3,338.3,292.7,334.6,292.2z"/>
	<path fill="#FFFFFF" d="M373.4,271c-2-6.9-3.9-0.9-7.8-0.8l-0.2,0.2l5,7.2l1.3-1.9C373.1,273,373.4,271,373.4,271L373.4,271z"/>
	<path fill="#FFFFFF" d="M266.4,271l-0.2,1.3l0,0.1C266.3,271.5,266.4,271,266.4,271c0,0,0.5,2.9,3,6.6l5.2-7.2l-0.2-0.2
		C270.3,270.2,268.4,264.1,266.4,271z"/>
	<path fill="#FFFFFF" d="M315,302.8h-1.4v1.8h1.4C316,304.6,316.1,302.8,315,302.8z"/>
	<polygon fill="#FFFFFF" points="320,303.2 319.2,305.6 321,305.6 	"/>
	<path fill="#FFFFFF" d="M299.6,296.2v9.6c0,6.8,41.2,6.8,41.2,0v-3.4h0v-6.2c0,4-27,4.2-37.3,1.9c-0.5-0.1-1-0.2-1.4-0.4
		C300.5,297.3,299.6,296.8,299.6,296.2z M323.8,302.8v-1h4.8v1L325,307h3.6v1.2h-5.2l0-1.2l3.4-4.2H323.8z M320.8,301.8l2.6,6.4H322
		l-0.6-1.6h-2.6l-0.6,1.6h-1.4l2.6-6.4H320.8z M312.2,301.8h3c1.2,0,1.9,0.6,1.9,1.8c0,1.3-0.6,1.8-1.3,2c-1,0.2-2.2,0.2-2.2,0.2
		v2.4h-1.4V301.8z"/>
	<polygon fill="#FFFFFF" points="372.2,285.4 370.2,284.4 371,286.6 	"/>
	<path fill="#FFFFFF" d="M283.6,294.8c0.6-1.5,0.4-2.3-1.6-3l-1.4,3.8C282.6,296.6,283,296.1,283.6,294.8z"/>
	<path fill="#FFFFFF" d="M294.9,296.4c0-1.5-0.3-2.2-2.5-2.3l-0.1,0.1v4C294.5,298.5,294.8,297.9,294.9,296.4z"/>
	<polygon fill="#FFFFFF" points="288.2,294 287,296.2 288.6,296.4 	"/>
	<path fill="#FFFFFF" d="M266.2,272.4c-0.1,0.9-0.4,2.3-0.7,3.7l-0.1,0.5l0,0h0v0c0,0,0,0,0,0c-0.6,2.4-1.4,5.1-2.6,7
		c3.6,18.4,36.8,18.8,36.8,18.8v-6.2c0-0.1-0.1-0.2-0.1-0.3c-0.6-2.2,0.9-3,6.1-3.7c0.6-0.1,1-0.4,1.2-0.8c0.5-1,0-2.6,0-2.6
		s-14.4,2.6-24.6-1.4c-6.6-2.7-10.5-6.5-12.8-9.8c-2.5-3.6-3-6.6-3-6.6S266.3,271.5,266.2,272.4z M291.2,293.1l2.1,0.2
		c2.2,0,2.9,1.2,2.9,3c-0.1,2-0.7,3.1-2.9,3H291L291.2,293.1z M287.8,292.6L287.8,292.6l1.2,0.2l1.4,6.4L289,299l-0.2-1.4l-2.4-0.6
		l-0.8,1.4l-1.4-0.4L287.8,292.6L287.8,292.6L287.8,292.6z M283.2,291.2c2,0.9,2.3,2.1,1.6,3.9c-0.6,1.7-1.6,2.6-3.6,1.9l-2.2-0.8
		l2.2-5.8L283.2,291.2z M280.6,290.2l-2.6,5.4l-1.2-0.4l2.8-5.6L280.6,290.2z M276,287.4l-0.2,4.8l2.2-3.4l1,0.6l-3.2,5.2l-1.2-0.6
		l0.2-4.8l-2.2,3.4l-1-0.6l3.4-5.2L276,287.4z M272,284.2l-2.2,2.4c-1,1-1.1,1.6-0.5,2.2c0.7,0.7,1.3,0.4,2-0.4l2.5-2.6l0.8,0.8
		l-2.4,2.8c-1.3,1.5-2.5,1.2-3.6,0.2c-0.8-0.8-1.4-2,0-3.5l2.4-2.7L272,284.2z"/>
	<path fill="#FFFFFF" d="M340.8,302.4c0,0,33.2-0.4,36.6-18.8c-1.9-3-3.1-8.2-3.7-10.9c-0.2-1-0.3-1.7-0.3-1.7l0,0
		c0,0-0.3,2-1.7,4.7c-1.9,3.6-5.7,8.5-13.5,11.7c-10.2,4-24.6,1.4-24.6,1.4s-0.7,2,0,2.9c0.2,0.3,0.5,0.4,1,0.5
		c3.7,0.5,5.5,1.1,6.1,2.2c0.3,0.5,0.3,1.1,0.1,1.8v0v0L340.8,302.4L340.8,302.4z M369.8,283l5.6,2.8l-1,0.8l-1.2-0.6l-1.8,1.6
		l0.6,1.2l-1,1l-2.2-6L369.8,283z M367,285.2l3.6,4.8l-1,0.8L366,286L367,285.2z M362.5,288.6c0.8-1.9,3-1.8,4-0.8l-1,0.8
		c-0.6-0.8-2-0.3-2,0.4c-0.3,1.2,0.3,2.4,1.4,3c1,0.4,2.4-0.8,1.7-1.8l1.2-0.4c0.5,1.2-0.1,2.6-1.3,3.1c-0.3,0.1-0.7,0.2-1.1,0.2
		C362.4,293.1,362,289.7,362.5,288.6z M360.8,289.2l2.8,5.2l-1,0.6l-2.8-5.2L360.8,289.2z M359.6,290l0.4,0.8l-1.6,0.8l1.8,4.4
		l-1,0.6l-2-4.6l-1.6,0.8l-0.4-1L359.6,290z M352.9,292.4c1-0.3,2-0.2,2.7,1l-1.2,0.4c-0.4-0.7-1-0.6-1.4-0.4c-0.4,0.2-1,0.5-0.6,1
		c0.2,0.5,1.7,0.2,2.5,0.2s1.4,0.6,1.5,1.3c0.2,1.1-0.2,1.7-1.5,2.2c-1.5,0.6-2.9,0-3.1-1.1h0l1-0.4c0.5,0.9,1.2,0.8,1.8,0.6
		c0.8-0.4,1-1.1,0.5-1.4c-0.6-0.3-2,0.2-2.7,0c-0.9-0.4-1.3-1-1.2-1.7C351.2,293.1,352,292.7,352.9,292.4z M346.7,294l0.6,3
		c0.2,1.3,0.6,1.8,1.5,1.7c1-0.2,1.1-0.8,0.9-2l-0.7-3.1l1.2-0.2l0.8,3.3c0.4,2-0.6,2.7-2,3c-1.1,0.2-2.4,0-2.8-2l-0.6-3.5
		L346.7,294z M342.6,298.6c0.2,1,0.6,1.1,1,1c0.5-0.2,0.7-0.8,0.6-1.4l-0.6-3.6l1.2-0.2l0.6,3.6c0.2,1.3-0.4,2.1-1.3,2.5
		c-1,0.4-2.4,0-2.5-1.7L342.6,298.6z"/>
	<path fill="#FFFFFF" d="M265.4,276.6C265.4,276.6,265.4,276.6,265.4,276.6l0.1-0.5l0.7-3.8l0.2-1.3c2-6.9,3.9-0.8,8-0.8
		c0.1,0,0.1,0,0.2,0c1.2-5.8-9-9.6-10.4-18.6C263.4,266.4,256.2,271.6,265.4,276.6z"/>
	<path fill="#FFFFFF" d="M373.4,271L373.4,271L373.4,271l0.4,1.6l1,3.8v0.2c9.2-5.2,1.6-10.2,0.8-25c-1.4,9-11.4,12.8-10.2,18.6
		c0.1,0,0.2,0,0.2,0C369.5,270.1,371.4,264.1,373.4,271z"/>
	<polygon fill="#FFFFFF" points="265.4,276.6 265.4,276.6 265.4,276.6 	"/>
	<path d="M318.2,308.2l0.6-1.6h2.6l0.6,1.6h1.4l-2.6-6.4h-1.4l-2.6,6.4H318.2z M320,303.2l1,2.4h-1.8L320,303.2z"/>
	<polygon points="323.4,308.2 328.6,308.2 328.6,307 325,307 328.6,302.8 328.6,301.8 323.8,301.8 323.8,302.8 326.8,302.8 
		323.4,307 	"/>
	<path d="M313.6,305.8c0,0,1.2,0,2.2-0.2c0.7-0.2,1.3-0.7,1.3-2c0-1.2-0.7-1.8-1.9-1.8h-3v6.4h1.4V305.8z M313.6,302.8h1.4
		c1.1,0,1,1.8,0,1.8h-1.4V302.8z"/>
	<path d="M281.2,297c2,0.7,3-0.2,3.6-1.9c0.7-1.8,0.4-3-1.6-3.9l-2-0.8l-2.2,5.8L281.2,297z M282,291.8c2,0.7,2.2,1.5,1.6,3
		c-0.6,1.3-1,1.8-3,0.8L282,291.8z"/>
	<polygon points="278,295.6 280.6,290.2 279.6,289.6 276.8,295.2 	"/>
	<path d="M268.6,289.6c1.1,1,2.3,1.3,3.6-0.2l2.4-2.8l-0.8-0.8l-2.5,2.6c-0.7,0.8-1.3,1.1-2,0.4c-0.6-0.6-0.5-1.2,0.5-2.2l2.2-2.4
		l-1-0.8l-2.4,2.7C267.2,287.6,267.8,288.8,268.6,289.6z"/>
	<path d="M296.2,296.3c0-1.8-0.7-3-2.9-3l-2.1-0.2l-0.2,6.2h2.3C295.5,299.4,296.1,298.3,296.2,296.3z M292.3,298.2v-4l0.1-0.1
		c2.2,0.1,2.5,0.8,2.5,2.3C294.8,297.9,294.5,298.5,292.3,298.2z"/>
	<polygon points="287.8,292.6 287.8,292.6 287.8,292.6 	"/>
	<path d="M285.6,298.4l0.8-1.4l2.4,0.6l0.2,1.4l1.4,0.2l-1.4-6.4l-1.2-0.2l-3.6,5.4L285.6,298.4z M288.2,294l0.4,2.4l-1.6-0.2
		L288.2,294z"/>
	<polygon points="272.6,292.6 274.8,289.2 274.6,294 275.8,294.6 279,289.4 278,288.8 275.8,292.2 276,287.4 275,286.8 271.6,292 	
		"/>
	<path d="M365.4,293.1c0.4,0,0.7,0,1.1-0.2c1.2-0.5,1.8-1.9,1.3-3.1l-1.2,0.4c0.7,1-0.7,2.2-1.7,1.8c-1.1-0.6-1.7-1.8-1.4-3
		c0-0.7,1.4-1.2,2-0.4l1-0.8c-1-1-3.2-1.1-4,0.8C362,289.7,362.4,293.1,365.4,293.1z"/>
	<path d="M344.1,300.5c0.9-0.4,1.5-1.2,1.3-2.5l-0.6-3.6l-1.2,0.2l0.6,3.6c0.1,0.6-0.1,1.2-0.6,1.4c-0.4,0.1-0.8,0-1-1l-1,0.2
		C341.7,300.5,343.1,300.9,344.1,300.5z"/>
	<polygon points="370.6,290 367,285.2 366,286 369.6,290.8 	"/>
	<path d="M372,288.8l-0.6-1.2l1.8-1.6l1.2,0.6l1-0.8l-5.6-2.8l-1,0.8l2.2,6L372,288.8z M372.2,285.4l-1.2,1.2l-0.8-2.2L372.2,285.4z
		"/>
	<polygon points="363.6,294.4 360.8,289.2 359.8,289.8 362.6,295 	"/>
	<path d="M349,299.7c1.4-0.3,2.4-1,2-3l-0.8-3.3l-1.2,0.2l0.7,3.1c0.2,1.2,0.1,1.8-0.9,2c-0.9,0.1-1.3-0.4-1.5-1.7l-0.6-3l-1.1,0.2
		l0.6,3.5C346.6,299.7,347.9,299.9,349,299.7z"/>
	<polygon points="357.2,292 359.2,296.6 360.2,296 358.4,291.6 360,290.8 359.6,290 355.2,291.8 355.6,292.8 	"/>
	<path d="M352.4,295.8c0.7,0.2,2.1-0.3,2.7,0c0.5,0.3,0.3,1-0.5,1.4c-0.6,0.2-1.3,0.3-1.8-0.6l-1,0.4h0c0.2,1.1,1.6,1.7,3.1,1.1
		c1.3-0.5,1.7-1.1,1.5-2.2c-0.1-0.7-0.7-1.3-1.5-1.3s-2.3,0.3-2.5-0.2c-0.4-0.5,0.2-0.8,0.6-1c0.4-0.2,1-0.3,1.4,0.4l1.2-0.4
		c-0.7-1.2-1.7-1.3-2.7-1c-0.9,0.3-1.7,0.7-1.7,1.7C351.1,294.8,351.5,295.4,352.4,295.8z"/>
</g>
</svg>
