<?xml version="1.0" encoding="utf-8"?>
<!-- Generator: Adobe Illustrator 17.1.0, SVG Export Plug-In . SVG Version: 6.00 Build 0)  -->
<!DOCTYPE svg PUBLIC "-//W3C//DTD SVG 1.1//EN" "http://www.w3.org/Graphics/SVG/1.1/DTD/svg11.dtd">
<svg version="1.1" id="flag-icon-css-gr" xmlns="http://www.w3.org/2000/svg" xmlns:xlink="http://www.w3.org/1999/xlink" x="0px"
	 y="0px" viewBox="0 0 640 480" enable-background="new 0 0 640 480" xml:space="preserve">
<g>
	<path fill="#0D5EAF" d="M372.6,53.3c0.2-0.4,0.4-0.8,0.4-1.1c0-0.6,0.5-0.7,2.6-0.7c2.3,0,2.7,0.1,3.1,1.2c0.1,0.2,0.2,0.4,0.4,0.6
		h62.8c0,0,0-0.1,0-0.1c0-1.4-0.4-3.2-0.7-4c-0.5-1.2-0.5-1.6,0.2-2.6c1-1.5,0.9-2-0.5-2.3c-1-0.3-1.1-0.4-0.6-1.1
		c0.4-0.5,0.7-2.1,0.7-4.4c0-2,0.2-3.8,0.4-4.1c0.1-0.3,0.9-0.5,1.8-0.5c1.2,0,2.1-0.6,4.1-2.5c3.1-3,4.8-3.7,7-2.8
		c1.4,0.6,1.5,0.6,2-0.7c0.7-1.8,0.7-5-0.3-8c-0.4-1.4-0.8-4.3-0.9-6.4l-0.1-3.9h-1.4c-1.1,0-1.6-0.3-2-1.1C451,7.6,446.4,4,444.3,3
		c-0.7-0.3-2.4-0.6-3.8-0.6c-2.1,0-2.7-0.2-3.3-1c-0.5-0.7-1.2-1.1-2.2-1.1c-0.8,0-1.9-0.2-2.4-0.3c-0.6-0.2-1.7,0.1-3.1,0.9
		c-2.2,1.3-2.2,1.3-2.2,3.7c0,2.4,0,2.5,1.8,3.4c1.8,1,2.4,1.7,2.4,3.4c0,0.5,0.3,1.6,0.7,2.5c0.6,1.3,0.7,1.8,0.2,2.9
		c-0.4,1.1-0.4,1.6,0.2,2.8c0.7,1.3,0.7,1.6,0,2.8c-0.4,0.7-0.7,1.7-0.7,2.1c0,0.9-3.7,3.1-5.3,3.1c-0.7,0-1.9,0.3-2.8,0.8
		c-0.8,0.4-2.5,1-3.8,1.4c-2.2,0.6-2.4,0.6-3.7-0.3c-1.3-0.9-1.4-1-2.9-0.2c-0.8,0.4-2,0.7-2.6,0.7s-1.4,0.3-1.8,0.7
		c-0.7,0.7-1.1,0.7-2.2,0.2c-1-0.4-1.7-0.4-2.7,0c-1.1,0.4-1.4,0.3-2.2-0.3c-0.9-0.8-1-0.8-2,0.5c-1,1.3-1.2,1.4-2.2,0.7
		c-1-0.7-1.3-0.6-5.2,1.4c-3.7,1.9-4.3,2.1-6.3,1.8c-1.7-0.2-2.4-0.6-2.8-1.4c-0.7-1.5-5.4-5.3-6.4-5.3c-0.4,0-1.7-0.7-2.8-1.4
		c-1.3-0.8-2.7-1.4-3.6-1.4c-0.8,0-2.2-0.3-2.9-0.7c-1-0.5-2-0.6-3.3-0.4c-1.5,0.3-2,0.6-2.3,1.7c-0.4,1.2-0.7,1.4-1.7,1.1
		c-0.7-0.2-1.3-0.3-1.3-0.4c0,0-0.5-1-1.1-2.1c-0.9-1.9-1.1-2-2.4-1.7c-0.8,0.1-1.7,0.1-2-0.1c-0.3-0.2-1-0.5-1.7-0.6
		c-1-0.1-1.4-0.7-2.6-4.3c-1.4-4.2-1.4-4.2-3.1-4.3c-1.3-0.1-1.9,0.1-2.4,0.9c-0.6,0.8-1,1-2.8,0.7c-1.3-0.2-2.8,0-4.2,0.4l-2.2,0.7
		v-1.4c0-1-0.3-1.5-1.2-1.9c-1-0.5-1.3-0.4-1.9,0.5c-0.4,0.6-1,1-1.3,1c-0.4,0-0.9,0.3-1.2,0.7c-0.5,0.6-0.8,0.6-2.6-0.2l-2-0.8
		l-1.3,1.1c-1,0.9-1.2,1.6-1.2,3.2c0,2.1-0.3,2.5-1.3,1.6c-0.4-0.4-0.9-0.3-1.8,0.4c-1.3,0.9-1.3,0.9-2.8,0l-1.5-0.9l-0.7,1.1
		c-0.6,0.8-1.3,1.2-3,1.4c-1.3,0.1-2.9,0.7-3.6,1.2c-0.7,0.5-2.3,1-3.6,1.2c-1.3,0.2-2.7,0.6-3.1,1c-0.6,0.6-1.1,0.5-3.4-0.3
		c-3.8-1.4-6.5-1.2-9.5,0.5l-2.5,1.4l-1.2-1.2c-1-1-1.5-1.2-2.7-0.9c-0.8,0.1-1.7,0.3-2.1,0.3c-0.4,0-0.9,0.9-1.2,2.1l-0.6,2.1
		l-6.6-0.3c-1.5-0.1-2.8-0.1-4.1-0.2v24.6H372.6z"/>
	<path fill="#FFFFFF" d="M359.8,69.2c-0.4,0-1.1-0.5-1.5-1.2c-0.5-0.8-1.2-1.2-2.1-1.2c-0.7,0-1.6-0.4-2.1-0.9
		c-1.1-1.2-1.3-1.2-2.9,0.4c-0.7,0.7-1.7,1.4-2.1,1.6c-0.5,0.2-1.4,1.5-2,2.9c-0.9,2-1.1,3-0.9,4.4c0.3,1.7,0.4,1.8,2.1,2.1
		c1,0.1,1.8,0.5,1.8,0.7c0,0.2,0.6,1.1,1.4,2l1.4,1.6l1-0.9c0.6-0.5,2-1.3,3.2-1.7l2.2-0.7l0.3-2.9c0.2-2,0.1-3.2-0.2-3.6
		c-0.4-0.5-0.3-0.8,0.3-1.5C360.4,69.3,360.4,69.2,359.8,69.2z"/>
	<path fill="#FFFFFF" d="M266.5,96.9c0,0.1,0.1,0.1,0.1,0.2c1.3,2.1,5.3,5,7.7,5.6c1,0.3,3.4,1.1,5.3,1.8l3.4,1.3v0.8h1.6
		c0.2-0.9,0.5-1.8,1.2-2.8l1.5-2.3l1.9,0.7c1.1,0.4,2.7,1.4,3.6,2.3c1.6,1.4,1.7,1.5,4.9,1.3l3.3-0.2l0.5,1.1h5.8
		c-0.6-0.5-1-1-1.3-1.5c-0.7-0.9-1.4-1.9-1.6-2c-0.2-0.2-0.7-1-1-1.9c-0.5-1.4-0.4-1.9,0.5-3.2c0.9-1.5,1.1-1.6,2.3-1.1
		c1.1,0.4,1.7,0.3,2.9-0.5c1.3-0.8,1.9-0.9,4-0.6c2,0.3,3,0.8,5.3,2.8c2.6,2.2,3,2.4,5.7,2.6c3.4,0.3,4.4,1.2,5.4,4.6
		c0.1,0.2,0.2,0.5,0.3,0.7h6.8c-1.3-1.4-2.9-3.6-3.6-4.9c-1-2-1.7-2.7-2.6-2.9c-0.7-0.1-1.3-0.6-1.4-1.1c-0.1-0.5-1.7-1.5-3.7-2.5
		c-3.1-1.5-3.6-1.9-4.2-3.6c-0.5-1.4-1-1.9-1.7-1.9c-0.9,0-1,0.3-1,2.6c0,2.4,0,2.6-1.2,2.6c-1.9,0-4.4-1.5-5.4-3.2
		c-0.5-0.9-1.2-2.8-1.5-4.3l-0.7-2.7l2.3-0.3c1.8-0.2,2.3-0.5,2.3-1.2c0-0.6-0.6-1-2-1.4c-2.8-0.8-3.7-1.5-5.3-4.3
		c-1.2-2-1.7-2.5-2.9-2.6c-1.9-0.2-1.9-0.9-0.1-4c1.3-2.3,1.5-2.4,4.9-3.5l3.5-1l2.1,1.4c2.5,1.7,6.7,3.3,9,3.3
		c1.3,0,2.1-0.4,3.8-2.1c1.2-1.2,3.7-2.8,5.6-3.7l3.3-1.7v-2.1c0-1.8,0.2-2.2,1.3-2.9c0.7-0.4,1.7-1.1,2.2-1.5
		c0.8-0.7,6.4-2.8,7.5-2.8c0.2,0,0.8,0.7,1.3,1.5c2,3.4,3.6,5,4.9,5c0.7,0,1.7,0.3,2.2,0.7c0.5,0.4,1.5,0.7,2.2,0.7
		c0.7,0,1.7,0.2,2.2,0.5c0.7,0.4,1.2,0.2,2.4-1.2c4.3-4.9,4.3-4.9,6.6-4.9c1.5,0,2.1-0.2,2.1-0.7c0-0.3,0.4-1.2,0.9-1.8
		c0.2-0.3,0.4-0.6,0.5-0.8H266.5V96.9z"/>
	<path fill="#FFFFFF" d="M386.2,55.8c3.1,0,4,0.1,4.7,0.8c0.5,0.5,2.8,1.7,5,2.8c3.5,1.6,4.5,1.9,7.2,1.9c1.7,0,6.1,0.1,9.7,0.4
		c5.6,0.4,6.9,0.6,8.9,1.6c2.4,1.3,3.5,2.7,3.5,4.8c0,1.4,0.1,1.4,3,0.3c1.7-0.7,2.4-1.2,2.5-1.9c0.1-0.7,0.9-1.4,2.1-2
		c1.8-0.9,2-1.1,2-2.7c0-1.4,0.1-1.7,0.8-1.7c0.5,0,1.2-0.4,1.5-0.9c0.4-0.5,0.8-0.7,1.1-0.5c0.3,0.1,0.5,0,0.5-0.4
		c0-0.4,0.7-1.1,1.5-1.6c1.5-0.9,1.5-1.1,1.5-3.4h-62.8C380.2,55.1,382.5,55.9,386.2,55.8z"/>
	<path fill="#0D5EAF" d="M273.2,159.9c-0.7-0.9-1.4-1.9-1.8-2.6c-1-1.5-2-2.3-3.2-2.8c-0.5-0.2-1.1-0.4-1.6-0.6v6H273.2z"/>
	<path fill="#0D5EAF" d="M282.9,108.9c0,1.7-0.3,3.9-0.7,4.9c-0.7,1.6-0.7,1.7,0.6,2.3c1.7,0.8,2.7,2,3.3,4c0.5,1.4,0.4,1.7-0.4,2.8
		l-0.9,1.2l1.1,0.4c0.6,0.2,1.9,0.3,2.8,0.2c1.3-0.2,2.6,0.1,4.8,1.1c2.7,1.2,3.5,1.4,7.7,1.4c3.5,0,4.7-0.1,4.5-0.6
		c-0.1-0.3-0.9-0.7-1.8-0.8c-1.2-0.2-1.6-0.5-1.7-1.3c-0.1-0.7-0.8-1.3-2.6-2c-4.8-1.8-8.3-4.5-10.2-7.8c-0.8-1.4-2.1-3-2.9-3.7
		c-1.6-1.2-2.2-2.6-1.9-4.3h-1.6V108.9z"/>
	<path fill="#0D5EAF" d="M371.9,157.4c1.8-1.7,2-3,0.8-4c-1-0.8-1.7-0.8-2.4-0.1c-0.6,0.6-0.7,3.5-0.3,4.8
		C370.3,158.8,370.6,158.6,371.9,157.4z"/>
	<path fill="#0D5EAF" d="M394,120.2c0-1.1-0.7-1.4-1.2-0.6c-0.1,0.2-0.8,0.5-1.4,0.5c-0.8,0-1.1,0.2-1.1,1c0,1.1-1.4,3.2-2.2,3.2
		c-0.2,0-0.7,0.3-1.1,0.7c-0.5,0.7-0.7,0.6-1.4-0.4c-0.4-0.6-0.8-1.3-0.8-1.6c0-0.3-0.6-0.9-1.2-1.4c-1-0.7-1.4-0.7-2.6-0.2
		c-1.2,0.5-1.5,0.4-2-0.2c-0.5-0.7-0.8-0.7-3,0l-2.5,0.8v2.2c0,1.6,0.2,2.2,0.7,2.2c0.5,0,0.6,0.7,0.4,3.3c-0.2,3.5,0,3.8,1.8,2.8
		c0.5-0.3,1.4-0.4,2-0.2c0.9,0.2,1,0.5,0.9,1.8c-0.2,1.8,0.3,2.1,2.6,1.8c1.5-0.2,1.5-0.2,0.8-1.6c-0.4-0.7-0.7-2.3-0.7-3.5
		c0-1.8,0.2-2.2,1.1-2.5c1.4-0.6,1.7-0.3,1.7,1.6c0,1-0.2,1.5-0.5,1.4c-0.8-0.5-0.5,0.2,0.7,1.8c0.7,0.8,1.2,1.7,1.2,2
		c0,0.5,2,1.5,2.9,1.5c0.3,0,0.8-0.4,1.2-1c0.5-0.8,0.5-1.1-0.1-1.8c-0.4-0.4-0.8-1.6-1-2.7c-0.3-1.8-0.2-2,1.2-2.9
		c0.8-0.6,1.4-1.4,1.4-1.7c0-1.2,1.4-3.5,2.1-3.5c0.6,0,0.7-0.3,0.5-1.1C394.1,121.7,394,120.8,394,120.2z"/>
	<path fill="#0D5EAF" d="M302,107.7c0.6,1.2,2.1,3.2,3.3,4.4c1.3,1.3,2.3,2.6,2.3,3.1c0,1.4,2.5,5.4,4,6.3c0.8,0.5,1.9,1.8,2.3,2.8
		c0.6,1.3,1.1,1.8,1.5,1.6c0.3-0.1,1.2-0.2,1.8-0.2c1,0,1.1-0.1,0.8-1.4c-0.2-1.1-0.1-1.7,0.6-2.4c1.4-1.7,1.6-2.7,0.5-3.1
		c-0.6-0.2-0.8-0.5-0.5-0.7c0.3-0.2,0.3-0.7-0.1-1.5c-0.4-0.8-0.5-1.5-0.2-2.1c0.7-1.3,0.5-1.7-0.8-2.1c-0.7-0.1-3.4-1.4-5.9-2.9
		c-2.1-1.2-3.5-2.1-4.4-2.9h-5.8L302,107.7z"/>
	<path fill="#0D5EAF" d="M332.2,109.3c1.1,0.8,2.2,2.1,2.3,2.7c0.2,0.7,0.6,1.1,0.9,0.9c0.3-0.1,1.5-0.5,2.5-0.8
		c1.4-0.4,1.9-0.8,1.7-1.3c-0.1-0.3-0.2-0.8-0.2-1c0-0.2-1.1-1.5-2.5-3c-0.1-0.1-0.2-0.2-0.3-0.3h-6.8
		C330.3,107.6,331.1,108.4,332.2,109.3z"/>
	<path fill="#FFFFFF" d="M312.6,180.7c1.1-0.8,2.1-1.8,2.1-2.2c0-0.4,0.5-1.6,1.2-2.6c1.5-2.5,1.5-3.5,0-3.5c-0.7,0-1.2,0.2-1.2,0.4
		c0,0.2-0.7,1.3-1.6,2.4c-0.9,1.1-1.6,2.5-1.6,2.9c0,0.5-0.3,1.3-0.7,1.7c-0.4,0.5-0.6,1.1-0.4,1.5
		C310.5,182,310.8,181.9,312.6,180.7z"/>
	<path fill="#FFFFFF" d="M451.6,180.3c0.1-0.2-0.2-0.6-0.9-0.7c-0.8-0.2-1.4-0.9-1.9-2.3c-0.6-1.5-1.3-2.3-2.8-3.3
		c-2.2-1.3-2.4-1.9-1.4-4c0.7-1.4,0.7-1.4-0.7-2.2c-1.1-0.6-1.4-1-1.2-1.8c0.2-0.7,0-1.2-0.7-1.5c-1.2-0.6-1.1-0.6-2,0
		c-0.4,0.3-1.4,0.4-2.3,0.4c-0.9,0-2.4,0.2-3.4,0.5c-1.6,0.5-1.8,0.7-1.8,2.1c0,1.3-0.2,1.6-1.5,2.1c-0.8,0.3-2.8,0.7-4.2,0.8
		c-1.7,0.2-2.9,0.6-3.5,1.1c-0.9,1.1-2,1.1-3.2,0.2c-0.8-0.6-1.1-0.5-2.2,0.5c-0.7,0.7-1.3,1.5-1.3,2.3c0,0.7-0.3,1.8-0.7,2.6
		c-0.7,1.3-0.7,1.5,0.3,3c0.6,0.9,1.4,1.6,1.7,1.6c0.4,0,1.7,0.6,2.9,1.4c2.7,1.7,6.1,2.1,7.5,0.8c0.5-0.5,1.7-2.1,2.7-3.8l1.7-3
		h2.3c3,0,4.1,0.6,4.1,2.3c0,1.2-0.3,1.4-2.5,2.3c-1.4,0.6-3,1.4-3.6,1.8s-1.9,1-2.8,1.3c-1.7,0.5-2.6,2.1-1.2,2.1
		c0.4,0,1.3,1,2,2.2l1.2,2.2l2.8,0.1c2.1,0,3.5,0.4,5.4,1.4c2.1,1.1,3.2,1.3,5.7,1.3c2.8,0,3.3-0.1,4.4-1.3l1.3-1.2l-1.6-2.3
		c-2.3-3.2-2.8-4.2-2.4-5.5c0.2-1,0.4-1.1,1.4-0.7c0.9,0.4,1.2,1,1.4,3c0.4,3,1.3,4.2,3.6,4.5c1.6,0.3,1.7,0.2,1.7-0.8
		c0-0.6-0.6-2.1-1.4-3.3C452.6,183.3,451.4,180.8,451.6,180.3z"/>
	<path fill="#FFFFFF" d="M347.8,205.3c-0.9,0.3-0.9,0.4-0.2,1.8c0.7,1.4,0.7,1.4,1.1,0.4c0.4-1.1,1.8-1,1.8,0.1
		c0,0.4,0.5,0.4,2.1-0.1c1.8-0.6,2.1-0.8,1.7-1.7c-0.2-0.6-1.5-1.9-3-3c-2.3-1.8-2.6-2.2-2.6-3.7c0-1.4-0.4-2.1-2-3.7
		c-2.2-2.2-3.5-2.6-3.8-1c-0.1,0.6-0.4,1.7-0.5,2.5c-0.8,3.9-0.8,4-0.1,4c0.9,0,2.8,2.7,2.2,3c-0.3,0.1-0.5,0.7-0.5,1.3
		c0,0.9,0.2,0.8,1.4-0.6c1.1-1.4,1.5-1.5,2.1-1.1C348.8,204.2,348.9,204.9,347.8,205.3z"/>
	<path fill="#FFFFFF" d="M300.5,185c0.7,0,1.7,0.3,2.3,0.7c1.5,1,2.3,0.6,3.5-1.7c0.8-1.7,0.9-1.9,0.2-2.2c-0.4-0.1-1,0-1.3,0.3
		c-0.7,0.7-1,0.7-1.6-0.7c-0.3-0.7-0.8-1.2-1.1-1.2c-0.3,0-1.5-0.8-2.8-1.9c-2.3-1.9-3.2-2.3-3.2-1.3c0,0.3,0.7,1.9,1.7,3.4
		c0.9,1.5,1.5,3.1,1.4,3.6C299.4,184.8,299.6,185,300.5,185z"/>
	<path fill="#FFFFFF" d="M269.9,213.2c0-0.1,0-0.2,0-0.2c0-0.6-0.4-1.6-0.8-2.4c-0.6-1.1-1-1.3-2.6-1.3v4H269.9z"/>
	<path fill="#FFFFFF" d="M289.4,178.2c-0.2,0.7-0.7,1.2-1.1,1.2c-0.7,0-2,1.8-1.6,2.1c0.1,0,0.8,0.3,1.6,0.4
		c1.2,0.3,1.5,0.2,1.7-0.6c0.2-0.5,0.8-1.1,1.5-1.4l1.2-0.6l-1.1-1.1C290.4,176.8,290,176.8,289.4,178.2z"/>
	<path fill="#FFFFFF" d="M266.5,168.4c0.1,0.2,0.2,0.4,0.3,0.6c0.3,0.9,0.6,1.1,2.8,1.1c2.8,0,4.7,1.3,5.2,3.5
		c0.2,0.7,0.8,2.1,1.5,2.9c1.6,2.1,1.4,4.3-0.3,4.3c-0.5,0-1.3,0.6-1.9,1.4c-0.6,0.7-1.3,1.4-1.7,1.4c-0.6,0-0.6-0.1-0.1-0.7
		c0.5-0.6,0.4-0.9-0.6-2c-1.6-1.5-2.2-1-2.6,2.1c-0.2,2.2-0.2,2.3,1.4,2.8c1.4,0.5,1.7,0.4,2.8-0.4c0.7-0.5,1.9-0.9,2.7-0.9
		c1,0,1.5-0.3,1.7-0.9c0.1-0.5,0.6-0.9,0.8-0.9c0.3,0,1.6-0.6,3-1.3c2.4-1.3,2.5-1.3,2.5-3.4c0-1.8-0.3-2.5-1.6-4.2
		c-0.9-1.1-1.6-2.6-1.6-3.2c0-0.7-0.7-1.9-1.9-3c-1-1-1.9-2.1-1.9-2.4c0-0.3-0.9-1.7-2-3.1c-0.5-0.6-1.1-1.3-1.7-2.1h-6.7V168.4z"/>
	<path fill="#FFFFFF" d="M267.1,192.8c1-2.6,1.1-3.8,0.1-3.4c-0.2,0.1-0.4,0.1-0.7,0.2v4.3C266.7,193.5,267,193.2,267.1,192.8z"/>
	<path fill="#FFFFFF" d="M305.8,211c0-0.5-0.6-1.5-1.4-2.3c-1.3-1.4-1.4-1.5-2.5-0.9c-1.3,0.7-4.6,0.4-4.9-0.4
		c-0.2-0.6-4.2-3.3-4.9-3.3c-0.8,0-2.4-1.8-3-3.4c-0.3-0.7-0.5-2.3-0.5-3.5c0-1.8-0.2-2.3-1-2.7c-0.6-0.3-1.4-1.2-1.8-2.1
		c-0.5-0.9-1.4-2.1-2.3-2.7c-1.4-1.1-1.5-1.1-3.5-0.3c-1.1,0.4-2.1,0.9-2.3,1.2c-0.1,0.2-1.3,0.3-2.6,0.1c-1.6-0.2-2.3-0.1-2.3,0.3
		c0,0.3-0.4,0.5-0.9,0.5c-0.6,0-1,0.6-1.4,2.1c-0.5,1.7-0.7,2-1.5,1.8c-0.7-0.1-1,0-1.2,0.7c-0.1,0.4-0.5,0.9-1.2,1.2v2.7
		c0.7,0.1,1.2,0.5,1.7,1.1c0.9,1.4,2.6,1.9,4,1.2c1.4-0.8,4.2,0.8,6.3,3.7c1,1.3,2.2,2.5,2.9,2.6c0.6,0.2,2.1,1.3,3.3,2.6
		c0.8,0.9,1.7,1.7,2.3,2.1h22.3C307.5,212.5,305.8,211.5,305.8,211z"/>
	<path fill="#0D5EAF" d="M435.3,223.7c-1.4-0.3-1.7-0.2-1.7,0.4c0,1.1,0.9,1.9,2.2,1.9c0.6,0,1.5,0.2,2,0.5c0.7,0.4,0.9,0.3,0.9-0.1
		C438.8,225.4,437.2,224.1,435.3,223.7z"/>
	<path fill="#0D5EAF" d="M274.4,266.5c3.4-3,4.6-3.4,9.2-3.3c3.6,0,4.2,0.1,4.2,0.8c-0.1,0.7,0.2,0.7,2,0.5c1.8-0.3,2.1-0.2,2.1,0.7
		c0,0.6-0.4,1-1.7,1.4h4.5c0.1-0.1,0.2-0.3,0.3-0.4c0.7-0.7,0.7-0.8-0.2-1.1c-0.6-0.1-1-0.6-1-0.9c0-0.3-0.5-1.2-1.2-2
		c-0.9-1-1.3-1.2-1.7-0.7c-0.8,0.8-2.4,0.7-2.1-0.2c0.1-0.4,0.3-0.8,0.3-0.9c0-0.1,0.6-0.2,1.3-0.2c0.7,0,2.2-0.4,3.3-0.9
		c2.8-1.3,3.3-1.2,3.3,0.5c0,0.9-0.2,1.4-0.7,1.4c-0.4,0-0.7,0.3-0.7,0.6c0,0.3-0.1,1.1-0.3,1.6c-0.2,0.9-0.1,1.1,0.8,1.1
		c0.7,0,1.6,0.5,2.2,1.2c0.7,0.8,1.3,1,1.6,0.7c0.2-0.2,0.8-0.5,1.2-0.5c0.2,0,0.6,0.3,1,0.8h17.2c-0.7-0.9-0.7-3.1,0.3-3.1
		c0.6,0,0.7-0.3,0.4-1.3c-0.1-0.7-0.5-1.4-0.7-1.4c-0.2-0.1-0.4-0.9-0.4-1.7c0-0.9-0.2-2.1-0.5-2.7c-0.7-1.5,0.1-3,2.2-3.9
		c1.4-0.6,1.6-0.8,1.6-2.7c0-1.6-0.2-2.3-1.1-2.9c-0.6-0.5-1.7-1.7-2.4-2.8c-1.4-2-3.3-2.9-7.8-3.9c-1-0.2-2.2-0.8-2.8-1.4
		c-0.7-0.7-1.6-1-3.4-1c-2.7,0-2.9-0.1-4.3-2.3c-0.6-0.9-1.6-2.1-2.1-2.6c-0.6-0.5-1.2-1.4-1.4-2c-0.5-1.8,1.4-1.3,2.8,0.8
		c0.8,1.1,1.7,1.9,2.2,1.9c0.5,0,2.1,0.4,3.4,0.8c2,0.6,2.8,0.7,3.7,0.2c0.8-0.4,1.5-0.4,2.4-0.1c1.9,0.7,5.4,0.6,6.3-0.3
		c0.8-0.7,0.9-0.7,1.5,0.1c0.3,0.5,0.8,0.7,1.1,0.5c0.7-0.4,0.7,3.1,0,3.8c-0.4,0.4,0,0.6,1.4,0.8c1.1,0.2,2,0.6,2.1,0.8
		c0.1,0.3,0.3,1.1,0.4,1.9c0.3,1.1,0.4,1.2,1.2,0.8c1.2-0.6,1.3,0.2,0.2,1.6c-1.1,1.4-0.8,2.1,0.6,2.1c2.4,0,3.8,2.6,2.4,4.4
		c-0.9,1.2-0.9,1.2,0,3c0.9,1.7,1.2,1.9,2.9,2c1.6,0.1,2.1,0.4,2.6,1.3c0.5,1.1,0.4,1.2-1.5,2.5c-1.5,1-2.1,1.7-2.1,2.5
		c0,1,0.2,1.1,1.5,1c1.3-0.1,1.5-0.4,1.6-1.4c0.2-1.7,2-1.8,2-0.2c0,0.7,0.4,1.3,1.2,1.6c2,0.9,2.7,0.7,2.4-0.6
		c-0.7-2.6,2.8-1.6,3.9,1.1c0.4,1,0.9,1.4,1.6,1.4c1.2,0,2.6-1.1,2.6-2.1c0-0.3,0.4-1.1,0.9-1.7c0.7-0.9,0.9-2.1,1-5.6l0.2-4.4
		l-3.3,0c-2.1,0-3.9-0.3-5.1-0.8c-1.4-0.7-2.1-0.7-3.1-0.4c-0.9,0.3-1.4,0.3-1.8-0.1c-0.4-0.4-0.4-0.7,0-0.9
		c0.8-0.5,0.5-1.2-0.5-1.2c-1.1,0-2.8-0.8-3.3-1.6c-0.2-0.3-0.4-1.5-0.4-2.8c0-1.6-0.3-2.7-0.9-3.5c-0.6-0.8-0.9-1.9-0.9-3.2
		c0-1.5-0.2-2.1-0.7-2.1c-0.4,0-0.7-0.4-0.7-0.9s0.2-0.9,0.6-0.9c0.4,0,0.4-0.1,0-0.6c-0.9-0.9-0.7-4.6,0.4-6.3l0.9-1.5l-1.8-1.1
		c-3.1-2-4-4.5-2.3-6.7c0.6-0.7,0.6-0.7-2.2-2c-2.5-1.2-6.8-1.5-6.8-0.6c0,0.9-2.3,1.2-3.4,0.4c-0.6-0.4-1.4-0.7-1.9-0.7
		c-0.7,0-1.8-0.3-2.8-0.7H287c0.2,0.1,0.4,0.2,0.5,0.2c1.1,0,1.9,0.9,1.9,2.2c0,0.6,0.3,1.2,0.7,1.4c0.4,0.1,1.1,1.2,1.6,2.3
		c0.7,1.7,1.1,2.1,2.1,2.1c2.3,0,3.3,0.5,4.1,2.1c1.7,3.6-0.1,6.3-2.6,3.7c-1.3-1.4-1.9-1.5-1.9-0.2c0,1.4-0.8,1.3-5.9-1.1
		c-1-0.4-1.8-0.4-3.5,0.4c-0.5,0.2-0.8,0.1-0.8-0.1s0.7-0.6,1.4-0.8c1.9-0.4,1.7-1.8-0.4-2c-0.9-0.1-1.5-0.4-1.5-0.8
		c0-0.3-0.3-0.7-0.7-0.8c-0.7-0.1-0.6-0.3,0.2-1.4c0.8-1,0.9-1.5,0.6-2.4c-0.5-1.2-2-2-3.4-1.8c-0.4,0-1-0.3-1.3-0.8
		c-0.3-0.7-1-1-1.9-1c-1.2,0-1.4,0.1-1.1,0.9c0.2,0.7,0.1,0.9-0.6,0.9c-0.5,0-1.2,0.3-1.5,0.7c-0.3,0.4-0.7,0.7-0.9,0.7
		c-0.5,0-2.2-3.2-2.4-4.4h-3.4v33.5c0.5,0.1,0.5,0.4,0.5,1.1c0,1.6,2,2.1,3.8,0.9c1.2-0.7,1.5-0.7,1.8-0.2c0.2,0.4,0.4,0.9,0.4,1.3
		c0,0.4,0.4,0.5,1.2,0.3c1.4-0.3,3.5,1.1,2.5,1.7c-0.4,0.3-0.4,0.5,0,1s0.3,0.9-0.7,1.8c-2.7,2.5-3.6,2.8-7,2.5
		c-0.8-0.1-1.7-0.2-2.5-0.4v9.8H274.4z"/>
	<path fill="#0D5EAF" d="M398.7,223.7c0-1-0.7-1.3-1.2-0.5c-0.3,0.6,0.1,1.4,0.7,1.4C398.5,224.6,398.7,224.2,398.7,223.7z"/>
	<path fill="#0D5EAF" d="M400.5,222.3c0,1.3,0.7,1.9,2.1,1.9c0.3,0,0.7-0.8,0.8-1.7c0.5-2.7-1.1-4-3.5-3c-0.8,0.3-0.8,0.4-0.1,0.9
		C400.2,220.7,400.5,221.6,400.5,222.3z"/>
	<path fill="#0D5EAF" d="M360.6,263.5c-0.3-0.1-0.7-0.6-0.7-1.1c0-1.3-0.6-1.4-2.3-0.2c-2.6,1.7-3.3,2.5-3.1,3.4
		c0.1,0.3,0.2,0.6,0.2,0.9h7.3c-0.1-0.2-0.2-0.5-0.2-0.8C361.5,264.6,360.9,263.7,360.6,263.5z"/>
	<path fill="#0D5EAF" d="M431,227.4c0.5-0.3,0.8-1.1,0.8-2.3c0-2.1-0.5-2.6-1.9-1.9c-0.8,0.4-1.1,0.3-1.9-1.1
		c-1-1.6-2.6-2.3-4.9-2.1c-0.5,0-2,0.1-3.3,0.2c-3.2,0.3-5.6,2.1-5.1,3.8c0.4,1.5,2.3,3.5,4.1,4.3c1.9,0.8,4.8,6.7,4.4,9
		c-0.4,2-1.3,2.9-3,3.4c-1.4,0.3-3.3,1.6-3.4,2.2c0,0.7,5,6.6,6.4,7.4l1.4,0.8l0.3-1.5c0.4-2,1-2.7,2.4-2.7c1.3,0,1.8-0.7,1.6-2.2
		c0-0.7,0.4-1.7,1.3-2.7c1.6-1.8,2.4-4,1.5-4.3c-0.4-0.1-0.6-1.5-0.6-3.8c0-2.1-0.2-4.2-0.6-4.9C430.3,228,430.3,227.8,431,227.4z"
		/>
	<path fill="#FFFFFF" d="M391.5,301.9c1.7-0.7,3.4-1.4,3.7-1.7c0.9-0.8,0.7-1.8-0.3-1.8c-0.5,0-1.4-0.3-2.1-0.6
		c-1-0.5-1.3-0.5-1.5,0c-0.3,0.9-1.5,0.7-1.5-0.4c0-1.1-1-1.2-1.9-0.2c-0.5,0.6-0.5,0.9,0,1.6c0.3,0.5,0.6,1.6,0.6,2.5v1.6
		L391.5,301.9z"/>
	<path fill="#FFFFFF" d="M364,303.5c0.3,0,0.6,0.6,0.8,1.4c0.4,1.7,0.7,1.7,2.2,0.1c1-1,1.3-1.8,1.3-3.5c0-2.7-0.6-3.8-2.3-4.7
		c-1.9-1-2-0.9-1.2,1c0.7,1.8,0.5,3.6-0.6,4.9C363.8,303.1,363.7,303.5,364,303.5z"/>
	<path fill="#FFFFFF" d="M376.4,291.4c0.7,0.7,1.4,1.4,1.7,1.4c0.2,0,0.9,0.6,1.4,1.4c0.8,1.2,1.2,1.3,2.5,1
		c1.3-0.2,1.6-0.6,1.7-1.6c0.1-0.7,0.5-1.8,0.8-2.4c0.6-0.8,0.6-1.3,0.1-2.2c-0.5-1-1.1-1.3-3.2-1.7c-1.4-0.3-3.1-0.7-3.7-0.9
		c-0.6-0.3-1.6-0.3-2.2-0.2c-0.9,0.2-1.1,0-1.3-0.8c-0.1-0.9-0.4-1-2.3-1.1c-1.8,0-2.2,0.1-2.2,0.7c0,1.1,0.9,2,3.3,3.7
		C374.2,289.3,375.7,290.6,376.4,291.4z"/>
	<path fill="#FFFFFF" d="M399.4,317.5c-0.3,0-1.3,0.5-2.2,1.2c-0.5,0.3-0.9,0.7-1.3,1.1h5.1C400.3,318.5,399.7,317.5,399.4,317.5z"
		/>
	<path fill="#FFFFFF" d="M424.6,295.7c1.6-0.1,3-0.6,4.7-1.6c1.4-0.8,3.2-1.5,4.4-1.7c2.5-0.3,3.1-0.7,6.6-5.4l2.8-3.6l-1.8,0
		c-1,0-2.2,0.2-2.7,0.4c-0.5,0.2-1.5,1-2.3,1.8c-1.3,1.4-1.5,1.4-5,1.4c-3.8,0-5.5,0.7-5.5,2.3c0,0.4-0.8,1.5-1.9,2.5
		c-1.3,1.3-1.8,2.1-1.7,2.8C422.2,295.7,422.5,295.8,424.6,295.7z"/>
	<path fill="#FFFFFF" d="M356.8,270.4c1.4-0.5,3.5,1.1,3.5,2.6c0,0.8,0.8,2,2.5,3.6c1.4,1.4,2.8,3.4,3.3,4.4c1,2.1,1.6,2.4,2.7,1.1
		c1.8-2.1,2.3-6.2,0.6-4.8c-0.6,0.5-0.7,0.4-0.7-0.5c0-0.6,0.2-1.4,0.5-1.8c0.3-0.5,0.1-1-0.8-1.7c-1-0.8-1.2-1.1-0.7-1.6
		c0.3-0.3,0.6-1.2,0.6-1.9c0-1.1-0.2-1.3-1.7-1.5c-3.6-0.6-4.2-0.7-4.6-1.8h-7.3C355.8,270.7,355.9,270.7,356.8,270.4z"/>
	<path fill="#FFFFFF" d="M467.5,317.8c-1-0.7-1.2-0.7-1.4-0.1c-0.1,0.4-0.7,0.7-1.1,0.7c-1.3,0-1.5,0.6-0.5,1.4h4.3
		C468.5,319.1,468,318.3,467.5,317.8z"/>
	<path fill="#FFFFFF" d="M453.3,308.2c0.4-0.2,1.1-0.3,1.5-0.2c1,0.3,1-0.2,0.1-1.6c-0.5-0.7-1.2-1-1.9-0.9
		c-1.1,0.1-1.2,0.2-1.2,3.2c0,2.4,0.2,3.4,0.9,4.2l0.9,1.1l0-1.1c0-0.7-0.2-1.9-0.6-2.7C452.7,308.8,452.7,308.5,453.3,308.2z"/>
	<path fill="#FFFFFF" d="M283.6,282.7c-0.1,0.4-0.1,1.1,0,1.5c0.3,0.8,0.3,0.8,1-0.1c0.4-0.5,0.6-1.1,0.5-1.4
		C284.8,282,283.8,281.9,283.6,282.7z"/>
	<path fill="#FFFFFF" d="M346.4,319.4c0-1.9-2.2-2.9-3.7-1.7c-0.7,0.6-1.3,1.3-1.7,2.1h5.5C346.4,319.7,346.4,319.5,346.4,319.4z"/>
	<path fill="#FFFFFF" d="M260.4,317.2c-0.4-0.2-0.8-1.1-0.9-1.9c-0.2-0.8-0.8-2.2-1.5-3.1s-1.2-1.9-1.2-2.2c0-0.4-0.3-1-0.7-1.3
		c-0.4-0.3-0.7-1.2-0.7-1.9c0-0.8-0.4-1.5-1.1-2c-1-0.6-1.2-1.2-1.4-4.4c-0.1-2.1-0.6-4.7-0.9-5.9c-0.6-2.4-0.3-3.2,1.8-3.8
		c0.8-0.2,1.1,0,1.5,1.5c0.6,1.9,3.4,5,3.4,3.7c0-1.1,1.1-1.3,4-0.7c2.5,0.5,2.6,0.6,2.6,2c0,1.9,0.5,2.2,2.1,1.6
		c0.9-0.3,1.2-0.3,1.2,0.2c0,0.7,1,1.2,2.6,1.2c0.6,0,1.4,0.5,1.8,1c1,1.4,0.9,1.9-0.2,1.5c-0.7-0.2-0.9-0.1-0.9,0.9
		c0,0.9-0.2,1.2-0.9,1.2c-1.7,0-1.1,1.9,1.4,4.2c1.3,1.3,2.5,2.3,2.8,2.3c0.8,0,1.5-1.4,1.2-2.4c-0.4-1.7,1.4-2.4,3.1-1.2
		c0.9,0.6,1.9,0.8,3,0.7c2.3-0.2,2.3-1-0.1-1.2c-1-0.1-2.2-0.5-2.7-0.9c-0.7-0.7-0.7-0.8,0-1.8c0.6-0.9,1.1-1,2.1-0.8
		c0.7,0.1,1.5,0,1.9-0.2c0.3-0.2,2.4-0.6,4.7-0.7c3.8-0.2,4.9-0.6,4.9-1.8c0-0.1-0.6-0.9-1.4-1.6c-1.4-1.4-1.4-2.5,0-2.5
		s1.5-0.7,0.4-2.8c-0.9-1.9-1-1.9-1.4-1c-0.3,0.6-0.8,1.1-1.3,1.3c-0.5,0.2-0.9,0.7-0.9,1.2c0,0.7-0.2,0.9-0.8,0.8
		c-0.5-0.1-0.8-0.5-0.7-1c0.1-0.5-0.1-1-0.4-1.2c-0.4-0.2-0.2-1,0.5-2.8c1.2-3,1.2-3.6,0-3.9c-0.8-0.2-4.2,0.4-4.2,0.8
		c0,0.1,0.3,0.9,0.7,1.8c0.4,0.9,0.7,2,0.7,2.4c0,1.8-3.5,1.4-4.2-0.5c-0.3-0.7-0.8-1.2-1.5-1.2c-2.6,0-4-2.8-4.1-7.5
		c0-1.1-0.3-1.8-0.9-2.2c-1.1-0.7-1.3-2-0.3-2c0.4,0,1-0.3,1.4-0.8c1.1-1,0.6-3.2-1.1-4.9c-1.2-1.3-1.4-1.3-4.1-1l-2.9,0.3l-0.2-1.4
		c-0.1-0.8,0-1.5,0.2-1.7c0.2-0.1,0.4-0.8,0.4-1.4c0-1.3-0.3-1.3,4.2-0.3c1.1,0.2,1.7,0,3.1-1.3c0,0,0,0,0.1,0h-7.9h-97.2
		c-0.3,0.1-0.5,0.2-0.7,0.2c-1,0.1-1.3,0.5-1.7,2.5c-0.8,3.8-0.9,3.7,2.3,4.6c1.6,0.5,3.6,1.4,4.5,2.1c0.9,0.7,1.8,1.4,2,1.5
		c0.9,0.6,1.7,5,1.3,7c-0.6,2.6,0.1,3.5,1.4,1.9l0.8-1.1l2.1,1.4c1.1,0.8,3.3,2.2,4.9,3.1c2.3,1.4,3.1,2.2,4.1,4.2
		c0.7,1.4,2.3,4.2,3.5,6.3c1.3,2.1,2.7,5,3.1,6.6c0.8,2.8,0.8,2.9-0.3,4.9c-0.6,1.1-2,2.8-3,3.6c-1.5,1.3-2.3,2.5-2.6,4.4h69.8
		C260.9,318.1,260.8,317.4,260.4,317.2z"/>
	<path fill="#FFFFFF" d="M289.7,266.6c-2.4,0.6-2.8,1.1-2.1,2.3c0.9,1.4,2.1,1.5,3.6,0.2c0.7-0.6,1.7-1.1,2.1-1.1s0.7-0.2,0.7-0.6
		c0-0.2,0.2-0.6,0.5-1h-4.5C289.9,266.5,289.8,266.6,289.7,266.6z"/>
	<path fill="#FFFFFF" d="M479.2,280.2c-0.9,0-0.9-1.4,0.1-2.4c0.8-0.9,0.7-0.9-0.4-0.6c-0.7,0.2-1.8,0-2.6-0.4c-2.2-1.1-3-1-2.7,0.4
		c0.2,0.7,0.2,1.2,0.1,1.2c-0.6,0-4.9-2.5-4.9-2.8c0-0.2-1.8-0.4-4-0.4c-2.3,0-4,0.2-4,0.5c0,0.2-0.3,0.5-0.7,0.5s-1.4,0.5-2.1,1.2
		c-0.7,0.7-1.6,1.2-2,1.2c-0.3,0-1,0.5-1.6,1.1c-0.9,1-0.9,1.2-0.3,1.7c0.5,0.4,0.7,1,0.5,1.9c-0.4,1.8,0.4,2,1.9,0.4
		c1.7-1.8,4-2.2,5.6-1.2c0.7,0.4,1.2,1.1,1.2,1.4c0,1,3.3,3.5,4.6,3.5c0.7,0,1.8-0.7,2.9-1.9c1-1,2.2-1.9,2.7-1.9
		c0.5,0,1.1-0.3,1.4-0.7c0.3-0.4,1.1-0.7,1.8-0.6c1.4,0.1,3.3-0.8,3.3-1.5C479.9,280.4,479.5,280.2,479.2,280.2z"/>
	<path fill="#FFFFFF" d="M154.6,280.9c1.2-0.8,2.9-0.2,4.4,1.5l0.9,1.1l0.9-1c0.8-0.9,0.8-1-0.8-2.5c-0.9-0.8-2-1.8-2.5-2.1
		s-1.1-1.2-1.4-2.1c-0.5-1.4-0.9-1.7-3.9-2.7c-3-1-3.5-1.4-5.3-3.6c-1.8-2.4-2.4-2.7-4.2-2.2c-0.8,0.2-1.8,3.5-1.8,5.9
		c0,1.2,0.3,1.6,1.2,2.1c0.7,0.3,1.5,1.4,1.9,2.3c1.6,3.7,1.8,3.9,3.1,4.2c1,0.2,1.6,0.8,2.4,2.5c1,1.9,1.3,2.2,2.3,2
		c1.4-0.3,1.9-1.4,1.2-2.3C152.5,283.3,153.2,281.9,154.6,280.9z"/>
	<path fill="#FFFFFF" d="M305.2,272.5c0.8,2.6,1.7,3.4,2.8,2.3c1.1-1,1.2-0.9,3.1,0.3c1.4,0.9,1.6,1.3,1.6,2.8
		c0,1.3,0.3,2.1,1.2,2.9c0.7,0.7,1.2,1.6,1.2,2.2c0,1.4,0.7,2,3.1,2.3c1.7,0.3,2,0.2,2.7-0.8c0.5-0.7,0.8-2.1,0.8-3.1
		c0-1.1,0.3-2.5,0.7-3.3c0.7-1.2,0.7-1.5,0-2.9c-0.4-0.8-0.8-2.3-1-3.3c-0.2-1.2-0.6-1.9-1.2-2c-1.1-0.3-1.2-1-0.2-1.4
		c1-0.4,0.9-1.5-0.2-1.8c-0.2-0.1-0.4-0.2-0.5-0.4H302C303.1,267.8,304.5,270.5,305.2,272.5z"/>
	<path fill="#FFFFFF" d="M338.2,310.5c0.9,0,3.5-3.2,3.5-4.2c0-0.5,0.6-1.5,1.4-2.1c1.3-1.2,1.3-1.3,0.6-1.9
		c-0.4-0.3-1.2-0.7-1.6-0.7c-0.7,0-0.8-0.4-0.8-1.6c0-1.6-0.3-1.9-1.2-1.3c-1,0.6-2.1,3.4-1.7,4c0.3,0.4,0.2,1.9-0.1,4.2
		C337.8,309.8,337.8,310.5,338.2,310.5z"/>
	<path fill="#FFFFFF" d="M286.2,309.8c-0.9,1.4,0.1,2,2.1,1.1c0.9-0.4,2.2-0.8,2.8-0.8c0.8,0,1.3-0.3,1.4-0.9c0.1-0.5,1-1.3,2.1-1.6
		c1-0.4,1.8-0.9,1.8-1.2c0-0.5-1.7-0.6-3.5-0.2C291.2,306.5,286.7,308.9,286.2,309.8z"/>
	<path fill="#FFFFFF" d="M336.4,292c3.4-3.6,4-5.4,2.4-7c-1.2-1.2-3.6-1.5-3.6-0.4c0,0.4-0.3,0.7-0.6,0.7c-0.4,0-0.9,0.5-1.2,1.2
		c-0.6,1.3-0.8,7.8-0.2,8.4C333.4,295,334.8,293.7,336.4,292z"/>
	<path fill="#FFFFFF" d="M288.4,283.4h1.2c0.7,0,1.3,0.2,1.4,0.5c0.3,0.8,2.7-0.6,2.7-1.6c0-0.5,0.4-1.6,0.9-2.5
		c0.6-0.8,0.8-1.6,0.5-1.8c-0.9-0.6-4.5-0.7-5.7-0.2c-1.7,0.7-1.7,2-0.1,3.1l1.2,0.8l-1,0.8L288.4,283.4z"/>
	<path fill="#FFFFFF" d="M274.9,314.1c0.2-0.9-1.5-1.7-3.4-1.7h-1.1l1.3,1.4C273.1,315.4,274.6,315.5,274.9,314.1z"/>
	<path fill="#0D5EAF" d="M485,358.6c-0.9,0-1.5,0.3-1.7,0.9c-0.1,0.5,0,1.4,0.2,2.1c0.4,1,0.7,1.3,1.7,1.1c1.7-0.2,2.2-1.2,1.6-2.8
		C486.5,358.9,486.1,358.6,485,358.6z"/>
	<path fill="#0D5EAF" d="M477.3,330.6c-0.6,0.5-0.8,0.3-1.7-1.1c-0.6-1-1.8-2.1-2.8-2.7l-1.9-0.9l0.3,1.1c0.2,0.6,0.4,1.1,0.4,1.1
		c2.6,1,2.7,1.1,1.8,2.3c-0.7,0.9-1,1-1.5,0.6c-0.6-0.5-0.7-0.4-0.4,0.2c0.1,0.4,0.4,1.6,0.6,2.6c0.5,2.7,1,3.4,2.5,3.4
		c1.1,0,1.4-0.2,1.4-0.9c0-0.7,0.4-1,1.3-1.1c1.4-0.1,1.9-1.6,1-3.8C478.1,330.3,477.9,330.1,477.3,330.6z"/>
	<path fill="#0D5EAF" d="M494.2,340.9c0.1-0.7-0.1-1-0.7-1c-0.5,0-1.3-0.4-1.7-0.9c-1-1.1-0.9-1.1-4.9-0.2c-1.8,0.4-3.2,0.9-3.5,1.4
		c-0.2,0.4-1.1,1-2,1.4c-0.9,0.4-2.5,1.8-3.6,3.1c-1.5,1.9-2.5,2.7-4,3c-1.9,0.5-2,0.6-2,2.4c0,1.4,0.3,2.1,1.2,2.8
		c1.8,1.4,2.1,1.3,2.1-0.9c0-2.6,1.3-3.6,4.4-3.7c1.9,0,2.9-0.4,5.6-2.1c1.8-1.1,4.6-2.6,6.1-3.2
		C493.4,342.2,494.1,341.7,494.2,340.9z"/>
	<path fill="#0D5EAF" d="M498,372.5c-1.4,0.2-1.4,0.1-0.9-0.7c0.7-1.4,0.7-1.9-0.5-2.2c-0.6-0.2-1.3-0.7-1.6-1.1
		c-0.5-0.7-0.6-0.7-0.8,0c-0.2,0.5-0.7,0.8-1.2,0.8c-1,0-1.6,1.8-0.9,2.6c0.3,0.4,0.8,0.5,1.5,0.2c0.7-0.3,1-0.2,1.6,0.9h4.3
		C499.5,372.4,499.3,372.3,498,372.5z"/>
	<path fill="#0D5EAF" d="M520.2,357.1c0.4-0.2,0.7-0.7,0.7-1.1c0-0.7-0.4-0.9-1.2-0.3c-0.3,0.2-1.2,1.3-2,2.6
		c-1.3,1.8-1.4,2.2-0.8,2.5c0.4,0.1,0.7,0.6,0.7,0.9c0,0.4,0.4,0.7,0.9,0.7c0.7,0,0.9,0.3,0.9,1.1c0,0.6,0.3,1.4,0.7,1.7
		c0.8,0.7,1,0.4,1.4-3.6c0.3-2.7,0.2-2.9-0.7-2.9C519.7,358.6,519.2,357.7,520.2,357.1z"/>
	<path fill="#0D5EAF" d="M337.2,355.7c0.8-0.2,2.8-0.4,4.4-0.4c1.6,0,3.4-0.2,4.1-0.5c1.1-0.4,1.2-0.7,1.2-2.9c0-3,0.4-4.6,1.1-4.6
		c0.3,0,0.8-0.8,1.2-1.8c0.4-0.9,0.7-1.9,0.8-2.1c0.1-0.2-0.2-0.3-0.7-0.3c-0.6,0-1-0.4-1.1-0.8c-0.1-0.7-0.4-0.5-1.4,0.8
		c-0.7,0.9-1.2,2.2-1.3,3c-0.1,2.5-2.2,3.6-3.6,2.1c-0.9-1-2.1-1.2-2.1-0.3c0,1.4,0.6,2.5,1.5,2.9c1.6,0.7,1.6,1.6,0,1.6
		c-1,0-1.6-0.3-1.8-0.8c-0.3-0.8-2.5-2.9-3-2.9c-0.4,0-1.4,6.4-1.1,7C335.6,356,336.2,356,337.2,355.7z"/>
	<path fill="#0D5EAF" d="M464.9,320.1c0.7,0.5,1.4,1.1,1.4,1.4c0,0.9,2.3,2.6,3.5,2.6c1.4,0,1.5-0.7,0.2-1.7
		c-0.5-0.5-1.1-1.4-1.2-2.2c0-0.1-0.1-0.2-0.1-0.3h-4.3C464.6,319.9,464.7,320,464.9,320.1z"/>
	<path fill="#0D5EAF" d="M423.4,336.6c0,0.2-0.4,0.5-0.8,0.5c-0.5,0-1.4,0.8-2.1,1.8c-0.7,1.1-1.9,2.1-2.9,2.4c-1,0.4-1.7,1-1.9,1.7
		c-0.2,0.8-0.6,1.1-1.5,1.1c-0.7,0-1.7,0.5-2.3,1c-0.6,0.6-1.1,0.7-1.1,0.5c0-0.3-0.2-0.6-0.5-0.6c-1,0-0.4,1.7,0.7,2.2
		c1.6,0.7,2.8,0.7,3.5-0.1c0.3-0.4,0.9-0.7,1.4-0.7c0.5,0,2-1.4,3.5-3c3-3.5,4.6-4.4,7-4.4h1.7l-2.1-1.4
		C424,336.1,423.4,335.9,423.4,336.6z"/>
	<path fill="#0D5EAF" d="M390.3,356.1c1-0.1,1.2-0.4,1.4-2.4c0.3-2.7,0.1-3.4-1.5-4.2c-0.6-0.3-1.4-1.1-1.7-1.8
		c-0.7-1.4-2.4-1.7-3.2-0.7c-1.2,1.5-1.2,4.6,0,4.6c0.3,0,1.3,1.1,2.1,2.3C388.8,355.7,389.3,356.2,390.3,356.1z"/>
	<path fill="#0D5EAF" d="M376.6,356.4c2.3-0.9,4.3-2.9,4.3-4.2c0-1.1-0.5-1.3-2.1-0.6c-1.5,0.6-4.9,4-4.9,4.8
		C373.9,357.4,374.4,357.4,376.6,356.4z"/>
	<path fill="#0D5EAF" d="M388.5,370.5c0,0.7,0.4,1.4,0.7,1.5c0.8,0.3,0.7-1.5-0.2-2.3C388.4,369.2,388.3,369.3,388.5,370.5z"/>
	<path fill="#0D5EAF" d="M395.2,320.8c-0.1,0.5-0.7,0.9-1.1,0.9c-0.5,0-1.1,0.3-1.4,0.7c-0.3,0.4-1,0.7-1.5,0.8
		c-0.7,0.1-1.1,0.5-1.2,1.2c-0.1,0.6-0.4,1.1-0.7,1.1c-0.3,0-0.2,0.4,0.2,0.8c0.4,0.5,0.8,1.8,1,2.9c0.2,1.4,0.7,2.5,1.6,3.5
		c0.8,0.8,1.5,2.1,1.6,2.8c0.2,1.9,1,2,2.5,0.3c0.7-0.8,1.7-1.4,2.3-1.4c0.9,0,1.2-0.6,2.5-4.3c0.8-2.3,1.4-4.9,1.4-5.6
		c0-0.9-0.7-2.9-1.5-4.5h-5.1C395.5,320.2,395.2,320.5,395.2,320.8z"/>
	<path fill="#0D5EAF" d="M539.1,370.7c-0.7,0.5-1.9,1-2.8,1.2c-0.6,0.1-1.8,0.6-3.1,1.2h7.7c0.1-1.4,0.1-2.8-0.3-3
		C540.4,370,539.7,370.3,539.1,370.7z"/>
	<path fill="#0D5EAF" d="M239.6,370.7c0.4-2.5,0.3-3.3-0.3-4.7c-0.5-1.1-0.7-2.6-0.6-4.4c0.1-2.7,0.2-2.8,1.4-2.7l1.3,0.1l-0.7-1.9
		l-0.7-1.9l1.2,0.3c0.8,0.2,1.2,0.1,1.2-0.4c0-0.4-0.2-0.8-0.5-1c-0.8-0.5-0.5-2.4,0.7-3.5c0.7-0.6,1.2-1.6,1.2-2.2
		c0-0.7,0.6-1.4,1.8-2.3c1.7-1.1,2-1.2,3.5-0.7c0.9,0.3,2.3,0.5,3,0.3c1.1-0.2,1.4,0,2.3,1.5c0.7,1.1,1,2.6,1,3.9
		c0,1.2,0.2,2.7,0.5,3.5l0.5,1.3l0.6-1.1l0.6-1.1l0.3,1c0.2,0.6,0.7,1,1,1c0.4,0,0.7,0.5,0.7,1.6c0,1.4,0.2,1.7,1.4,2.1
		c1,0.3,1.4,0.7,1.4,1.6c0,0.6,0.4,1.5,0.9,1.9c0.8,0.7,0.8,0.8,0,2.5c-1.3,2.5-1.2,3.2,0.5,3c1.1-0.1,1.4-0.4,1.4-1.3
		c0-1.6,1.7-2.4,2.8-1.3c0.5,0.4,0.9,1.1,0.9,1.5c0,1.4,1.1,3.7,2,4.2c0.7,0.5,1.4,0.5,3.2,0c2.6-0.7,2.8-1.4,1.1-3.1
		c-1.6-1.6-2.1-2.6-1.8-4c0.2-1,0-1.4-1-2.1c-4.9-3.5-5.8-5.3-3.9-8.4l1-1.6h-1.2c-0.9,0-1.2-0.2-1.2-1c0-1.4,1.4-2.3,2.4-1.8
		c0.6,0.3,0.8,0.3,0.8-0.2c0-0.4,0.3-0.9,0.7-1.2c0.7-0.6,0.8-0.3-1.6-5.2c-0.4-0.9-1.1-2.8-1.4-4.2s-0.9-3.2-1.2-4
		c-0.4-0.8-0.5-2.2-0.3-3.1c0.2-1.3,0-2-0.7-3.1c-0.6-0.8-0.9-1.6-0.7-1.9c0.1-0.2-0.2-1.3-0.7-2.3c-0.8-1.6-1.2-1.9-2.4-1.9h-1.4
		l0.3-2.5c0-0.1,0-0.2,0-0.3h-69.8c-0.2,1.2-0.1,2.7,0,4.7c0.2,2.1,0.4,3.9,0.5,4c0.1,0.1,0.9,1,1.7,2c5.5,6.3,5.4,6.2,4.6,6.8
		c-0.9,0.7-1.1,2.2-0.7,5c0.3,1.7,0.7,2.3,2,3.2c1.6,1.1,1.7,1.1,3.5,0.3c1.4-0.6,1.9-0.6,1.9-0.1c0,0.3,0.4,1.4,0.9,2.3
		c0.5,0.9,0.9,2.1,0.9,2.4c0,1.1,0.6,0.8,2.1-0.8c1.9-2,2.7-4,2.1-4.8c-0.3-0.4-0.5-2.8-0.4-6.3l0.1-5.7l2.2-1.4
		c2.5-1.6,6.1-2.2,7.7-1.4c1.1,0.6,1.3,2.3,0.5,5.4c-0.4,1.6-0.3,2,0.6,2.7c0.5,0.4,1.4,0.7,1.8,0.6c0.6-0.2,1.5,0.7,3.5,3.2
		c1.4,1.9,2.6,3.9,2.6,4.4c0,1.8,2.9,7.1,3.9,7.1c0.8,0,0.8,0.1,0.1,1c-0.9,1.3-1,3.7-0.2,5.9c0.5,1.3,0.5,1.8-0.2,3
		c-1,1.8-1,3.8,0,4.6c0.4,0.4,0.8,0.6,0.8,0.5c0-0.1,0.8,0.3,1.7,0.8c1.3,0.7,1.8,1.4,2,2.6c0.1,0.4,0.3,0.9,0.5,1.3h1.4
		C239.3,372.5,239.4,371.6,239.6,370.7z"/>
	<path fill="#0D5EAF" d="M341.7,322.4c0.8-1,1.6-0.8,2.2,0.5c0.3,0.7,0.7,1.2,0.9,1.2c0.4,0,1.3-2.7,1.5-4.2h-5.5
		c-0.4,0.7-0.6,1.4-0.6,2C340.3,323.3,340.8,323.5,341.7,322.4z"/>
	<path fill="#0D5EAF" d="M391.1,368.4c-0.7,0.4-0.7,0.7-0.3,1.2c0.3,0.4,0.9,0.7,1.4,0.7c0.6,0,0.9,0.5,1.1,1.7
		c0.1,0.4,0.1,0.8,0.2,1.1h3.2c-0.3-0.9-0.9-1.8-2.1-2.9C392.3,367.7,392.3,367.7,391.1,368.4z"/>
	<path fill="#0D5EAF" d="M445.3,361.7c1.8-0.2,2.8-0.6,2.8-0.9c0-0.9-3.4-4.1-4.3-4.1c-0.4,0-0.8,0.2-0.8,0.4c0,0.2,0.3,0.7,0.7,1
		c0.8,0.7,0.9,1.8,0.1,1.9c-0.3,0-2.1,0-3.8,0c-3-0.1-3.2,0-2.8,0.7c0.2,0.5,0.6,1.5,0.9,2.3c1.1,2.9,2,3.8,3.5,3.6
		c1.5-0.2,1.8-0.9,0.9-1.8c-0.3-0.3-0.4-1.1-0.2-1.7C442.5,362.1,442.9,361.9,445.3,361.7z"/>
	<path fill="#0D5EAF" d="M351.8,346.4c-1.6,0.3-1.9,0.9-0.9,2c1.3,1.4,2.6,1.2,2.6-0.4C353.4,346.3,353.1,346.1,351.8,346.4z"/>
	<path fill="#0D5EAF" d="M370.4,333.4c-0.4,0.7,0,1,1.2,0.8c1-0.1,1-0.1,0-0.7C371,333.1,370.6,333.1,370.4,333.4z"/>
	<path fill="#0D5EAF" d="M362.9,355.2c-0.7,0.5-0.2,2.4,0.6,2.4c0.3,0,1,0.4,1.4,0.9c0.5,0.5,1.3,1,1.9,1.2c0.9,0.3,1,0.2,1-1
		c0-1-0.4-1.6-1.9-2.6C363.9,354.8,363.7,354.7,362.9,355.2z"/>
	<path fill="#0D5EAF" d="M385.2,327.3c-0.3-0.8-0.2-1.6,0.3-2.7c0.7-1.3,0.7-1.6,0.1-2c-0.4-0.2-1.3-0.3-2-0.1
		c-1.3,0.3-1.4,0.2-0.8-0.7c0.7-1.2,0.7-1.2-1.8,0.3c-2.6,1.5-3,2.1-2.1,2.8c0.7,0.5,0.6,0.7-0.5,1.3c-1,0.7-1.2,1.2-1.2,3.1
		c0,2.1,0.1,2.3,1.8,3.2l1.8,0.9l2.4-2.5C385.3,328.7,385.6,328.3,385.2,327.3z"/>
	<path fill="#0D5EAF" d="M375.2,328.7c-0.1,0-0.7,0.4-1.4,1c-1.4,1.1-1.5,2.5-0.3,4.3l0.8,1.4l0.3-1.1
		C375,332.3,375.4,328.7,375.2,328.7z"/>
	<path fill="#0D5EAF" d="M354.4,336.6c0.7,1.4,1.8,1.9,1.8,0.9c0-0.4,0.5-1.1,1.2-1.6c0.7-0.5,1.2-1.1,1.2-1.2
		c0-0.7-2.9-4.9-3.6-5.1c-0.4-0.1-1.2-0.4-1.7-0.6c-0.8-0.3-0.8-0.2-0.6,0.8c0.1,0.6,0.5,2.1,0.7,3.4
		C353.6,334.3,354.1,335.9,354.4,336.6z"/>
	<path fill="#FFFFFF" d="M531,374.2c-2.1,1.1-4.2,2.1-4.9,2.3c-1.7,0.5-3.7,2.1-4.7,3.8c-0.6,0.8-1.3,1.5-1.6,1.5
		c-1,0-2.6,2.3-2.8,4.3c-0.3,1.7-2.1,3.6-3.4,3.6c-1.6,0-0.1,4,1.7,4.4c0.8,0.2,1,0.6,1,2.2c0,1.1-0.4,3.8-0.9,6
		c-0.8,3.9-0.8,4,0,5.7l0.9,1.7l1.7-0.7c2-0.8,4.4-3.3,6-6.3c1.5-2.8,2.4-3.9,4.8-5.4c1.5-0.9,2.1-1.1,2.4-0.7
		c0.2,0.3,0.7,0.5,1.1,0.3c0.8-0.3,1.3-2.6,0.7-3.6c-0.4-0.6-0.2-1.2,0.7-2.6c0.7-1,1.5-2,1.7-2.1c0.2-0.1,1-1.8,1.6-3.6
		c0.6-1.8,1.5-3.9,2-4.6c0.5-0.7,0.7-1.8,0.7-2.3c-0.1-0.6,0.2-1.7,0.6-2.5c0.3-0.6,0.6-1.7,0.7-2.8h-7.7
		C532.5,373.4,531.7,373.8,531,374.2z"/>
	<path fill="#FFFFFF" d="M306.4,425.4c0-0.7-0.3-1.4-0.8-1.7c-0.9-0.6-1-0.5-1.7,0.9c-0.3,0.6-0.5,1.2-0.6,1.9h3.2
		C306.4,426,306.4,425.7,306.4,425.4z"/>
	<path fill="#FFFFFF" d="M239,374.2c0-0.1,0.1-0.5,0.1-1.1h-1.4C238.3,374.1,239,374.9,239,374.2z"/>
	<path fill="#FFFFFF" d="M486,425.1c0.2-0.2,0.4-0.8,0.4-1.4c0-0.7,0.3-1.6,0.7-2.2c0.4-0.6,0.7-1.5,0.7-2.2c0-0.6,0.2-2.6,0.5-4.4
		c0.5-2.8,0.7-6.3,0.3-6.6c-0.1,0-0.3,0-0.6,0.2c-0.9,0.6-2.2,3.8-1.9,4.5c0.1,0.5-0.1,1.3-0.6,1.9c-0.5,0.6-1,2.3-1.2,3.7
		c-0.2,1.5-0.5,3-0.7,3.4c-0.2,0.4-0.6,1.6-0.9,2.7c-0.2,0.6-0.4,1.2-0.7,1.7h3.2C485.5,425.7,485.8,425.2,486,425.1z"/>
	<path fill="#FFFFFF" d="M497.7,374.8c0.9-0.4,1.6-1,1.7-1.6c0,0,0-0.1,0-0.1h-4.3c0.1,0.2,0.2,0.3,0.2,0.5
		C496.2,375.4,496.2,375.4,497.7,374.8z"/>
	<path fill="#FFFFFF" d="M261,384.9c-0.4,0.2,0.5,5.2,0.9,5.6c0.1,0.1,1.4,0.6,2.8,1.2c3.5,1.4,4.1,1.1,4.1-1.8
		c0-2.9,0.3-3.8,1.4-3.8c0.5,0,0.9-0.2,0.9-0.4s0.1-0.7,0.3-1.2c0.2-0.5-0.1-0.9-0.9-1.3c-0.7-0.3-1.3-0.9-1.4-1.4
		c-0.2-0.5-0.7-0.8-1.1-0.8c-1.4,0-2.9-1.8-3.2-3.6c-0.4-2.4-1.5-3.1-3-1.9c-0.4,0.3-1,1.4-1.3,2.4c-0.4,1.5-0.4,2,0.2,2.6
		C261.5,381.4,261.7,384.5,261,384.9z"/>
	<path fill="#FFFFFF" d="M391.9,375.9c-2.1,0-2.1,0.6,0.3,1.8c1.8,0.9,2,0.9,3.4,0.2c0.8-0.5,1.5-0.8,1.6-0.9c0.1,0,0-1.1-0.2-2.3
		c-0.1-0.6-0.2-1.1-0.4-1.5h-3.2C393.8,375.6,393.5,375.9,391.9,375.9z"/>
	<path fill="#FFFFFF" d="M504.3,385.3c-1.5,0.7-1.4,1.8,0.2,1.8c1.7,0,4.4-1,4.2-1.6C508.4,384.8,505.5,384.7,504.3,385.3z"/>
	<path fill="#FFFFFF" d="M412.8,374.5l-1.5-0.9l-1,1.4c-0.9,1.2-0.9,1.5-0.4,2.1c0.8,0.8,4.6,1.3,5.6,0.7c0.6-0.4,0.6-0.6-0.2-1.4
		C414.8,375.9,413.7,375,412.8,374.5z"/>
	<path fill="#0D5EAF" d="M473.9,441.7c-2.8,0.8-5.3,2.9-5.3,4.5c0,0.6,0.2,1.1,0.5,1.1c1.4,0,7.9-4.4,7.9-5.4
		C477.1,440.9,476.5,440.8,473.9,441.7z"/>
	<path fill="#0D5EAF" d="M485.2,426.4H482c-0.4,0.6-0.8,1.1-1.4,1.5c-1.7,1.3-1.7,2,0.2,4.2c1.1,1.3,1.6,5.8,0.7,7
		c-0.7,1-0.2,2.5,0.9,2.5c0.4,0,0.7,0.3,0.7,0.7c0,0.8,0.2,0.8,1.4,0.2c0.6-0.3,0.7-0.8,0.6-1.4c-0.3-1.1,1.4-2.7,2.8-2.8
		c1.1,0,1-1.6-0.2-2.5c-0.8-0.6-0.9-0.8-0.4-1.6c0.4-0.7,0.4-1.1,0-1.5c-0.3-0.4-1.1-1.4-1.7-2.5c-1-1.6-1.1-2-0.7-3.4
		C485.1,426.7,485.1,426.6,485.2,426.4z"/>
	<path fill="#0D5EAF" d="M295.1,453.2c0.4,0.1,1,0.7,1.3,1.3c0.5,1,0.7,1,5.8,0.9c2.9,0,5.9-0.4,6.6-0.7c0.7-0.2,1.5-0.3,1.8-0.1
		c1.2,0.7,4.8,1.4,6.4,1.2c1.6-0.2,1.8-0.1,2.6,1.2l0.8,1.4l3.9-0.2c3.5-0.2,4.1-0.1,5.3,0.8c1.3,0.9,1.8,0.9,4.5,0.7
		c1.7-0.2,3.5-0.5,4-0.8c0.7-0.3,1-0.3,1.4,0.2c1.1,1.3,2.9,2.2,4.3,2.2c1.2,0,1.8,0.4,2.8,1.6c1.3,1.5,1.6,1.7,5,2.1
		c2.1,0.3,4.1,0.6,4.5,0.7c0.9,0.3,1.9,2.5,1.9,4.1c0,2.4-0.7,6-1.1,6c-0.2,0-0.4,0.4-0.4,0.9c0,1.2,1.1,1.2,3.4,0
		c1.5-0.8,2.1-0.9,4.3-0.6c1.4,0.2,2.8,0.2,3.1,0c0.3-0.2,0.9-0.1,1.4,0.2c0.6,0.4,1.1,0.4,1.9,0c0.6-0.3,2.7-0.7,4.6-1
		c4.1-0.5,6.8-1.2,10-2.4c3.5-1.3,6.2-1.5,10.5-0.9c3,0.5,4.2,0.5,5.3,0c0.8-0.3,3.7-0.6,7-0.5c4.9,0,6-0.1,8.5-1.2
		c3.6-1.4,6.3-1.6,7.5-0.5c0.5,0.4,1.6,0.8,2.6,0.8c0.9,0,1.7,0.2,1.7,0.5c0,0.7,1.7,0.6,4.3-0.3c1.9-0.7,2.6-1.3,3.7-2.9
		c0.7-1.2,1.3-2.6,1.3-3.1s0.3-1.3,0.7-1.6c0.4-0.4,0.6-1,0.4-1.6c-0.2-0.8,0-1.2,0.7-1.6c1.2-0.6,0.9-1.3-0.7-1.9
		c-1.6-0.6-1.5-3.3,0-5.4c1.3-1.7,1.6-3.6,0.5-3.2c-0.3,0.1-0.8,0.7-1.1,1.4c-0.3,0.7-1.1,1.3-1.7,1.4c-0.7,0.1-1.2,0.6-1.2,1
		c0,1-3.6,4.3-4.7,4.3c-0.6,0-1.1-0.4-1.2-0.8c-0.3-1.1-4.4-1.1-5.7,0c-0.5,0.4-1.1,0.8-1.4,0.8s-0.7,0.3-1.1,0.7s-0.9,0.7-1.4,0.7
		c-1.4,0-4.9,2.3-5.6,3.5c-0.5,1-0.7,1.2-1.9,0.9c-0.8-0.1-2-0.6-2.6-1c-1.1-0.7-1.2-1-0.9-3.5c0.1-1.5,0.4-4,0.6-5.5
		c0.1-1.5,0.6-3,0.9-3.4c1.4-1.1,0.7-1.7-2.4-2c-3.4-0.3-6.4,0.2-9.3,1.6c-1.1,0.5-2.6,0.9-3.4,0.9c-1.7,0-3.8-1.2-3.8-2.2
		c0-0.6-0.9-0.7-5.2-0.7c-2.9,0-5.8-0.2-6.4-0.4c-0.6-0.2-2.1-0.1-3.4,0.1c-2,0.4-2.3,0.4-2.9-0.4c-0.4-0.6-0.6-1.5-0.4-2.4
		c0.2-1.3,0.1-1.5-0.7-1.5c-0.5,0-1-0.3-1.1-0.6c-0.1-0.4-0.6-0.4-1.4,0.2c-1.1,0.7-1.4,0.7-2.6,0.1c-0.9-0.5-2-0.6-4.2-0.2
		c-1.8,0.2-3.4,0.2-4.1,0c-0.7-0.3-2.3-0.5-3.7-0.5c-1.9,0-2.8,0.2-3.8,1.1c-2,1.6-4.1,2.2-8.6,2.4c-2.2,0.1-4.5,0.4-4.9,0.6
		c-0.5,0.2-1.9,0.3-3.2,0.2l-2.4-0.2l-0.5-3.7c-0.2-2-0.6-3.8-0.7-3.9c-0.1-0.1-0.8,0-1.6,0.4c-1.2,0.6-1.6,0.6-4.1-0.3
		c-1.8-0.7-2.8-1.3-2.9-1.8c-0.1-0.8,0-0.8,2.3-0.6c2.3,0.3,2.5,0.2,3.3-0.9c0.8-1.1,0.8-1.4,0.2-3.2c-0.5-1.4-1-2.1-2.2-2.8
		c-1.4-0.7-1.7-0.7-2.7,0c-0.7,0.5-1.1,1.2-1.1,2c0,0.7-0.3,1.4-0.7,1.6c-0.4,0.1-0.7,0.6-0.7,0.9s-0.4,0.8-0.8,0.9
		c-1.6,0.5-4.9,0.4-5.2-0.1c-0.2-0.3-0.7-0.4-1.2-0.2c-0.4,0.2-2.1,0-3.6-0.3c-2.2-0.5-2.8-0.8-2.9-1.6c-0.7-3.5-0.9-5.2-1-6.2h-3.2
		c-0.1,0.6,0,1.2,0,2c0.1,1.3,0.3,3.5,0.3,4.9l0,2.6L302,436c-2.9,0.2-3.5-0.3-3.8-4.2c-0.4-4.9-1.1-4.9-1.7-0.1
		c-0.3,2.2-0.7,4.7-0.8,5.5c-0.1,0.7-0.2,2-0.2,2.8c0,0.7-0.3,2.4-0.7,3.6c-0.4,1.3-0.6,3-0.5,4c0.1,1.2,0,1.9-0.5,2.2
		c-0.7,0.5-0.7,0.7,0,1.9C294,452.4,294.7,453.1,295.1,453.2z"/>
	<path fill="#0D5EAF" d="M244.4,106.6c0.2-0.6,0.2-1.1,0.2-1.4c0-1.7,2.1-6,3.3-6.9c1.4-0.9,1.2-3.3-0.3-3.9
		c-0.7-0.3-1.3-1.1-1.5-1.7c-0.1-0.7-0.7-1.9-1.2-2.8l-1-1.6l2,0.3c1.6,0.3,2,0.2,2.4-0.6c0.3-0.6,0.3-1,0-1.2c-0.6-0.4-0.6-3,0-3
		c0.3,0,0.6,0.2,0.7,0.4c0.1,0.2,1,0.5,1.9,0.6c1.5,0.2,1.6,0.1,1.6-1.1c0-1.3,0.7-1.8,2.5-1.8c0.6,0,1.9-0.4,3-0.9
		c1.6-0.7,2-1.2,2.1-2.5c0.1-1.4,0.3-1.5,1.6-1.7c1.3-0.1,1.5,0,1.8,1c0.1,0.6,0.1,1.6,0,2.1c-0.2,0.7,0,1.4,0.7,2.2
		c0.9,1.1,0.9,1.4,0.3,2.5c-0.7,1.4-3.3,2.1-6.1,1.6c-1.4-0.2-1.6-0.2-1.6,0.7c0,0.5,0.2,1,0.4,1c0.8,0,2.5,2.9,2.8,4.6
		c0.2,1.4,0.5,1.7,1.7,1.8c2.3,0.2,3.8,1,4.8,2.6V53.3V28.7c-7.6-0.3-11.4-0.1-12.1,0.6c-0.5,0.5-0.8,1.9-1.1,5
		c-0.3,4.2-1,6.4-2,6.7c-0.3,0.1-1.2-0.4-2-1l-1.4-1.2l-0.7,1.7c-1.1,2.7-1.4,2.8-9,2.7c-6.6-0.1-6.8-0.1-8.1-1.4
		c-1.1-1-1.7-1.3-3.8-1.2c-2.2,0-2.7,0.2-4,1.5l-1.4,1.4l-1.8-1.2l-1.9-1.2l-2,1.4c-1.1,0.7-2.9,1.9-4,2.5c-1.4,0.7-2,1.5-2.2,2.4
		c-0.1,0.7-0.6,1.3-1,1.3c-0.4,0-0.8,0.5-0.9,1.1c-0.2,0.6-0.9,1.4-1.6,1.9c-0.8,0.5-1.4,1.3-1.6,2.4c-0.4,2.3-1.3,2.8-4.2,2.5
		c-2.4-0.2-2.6-0.2-4.3,1.6c-2.7,2.8-3.6,3-5.7,1.4c-1.4-1.2-2.1-1.4-4.2-1.3c-2,0-2.9,0.3-4.2,1.3c-0.9,0.7-2.5,1.4-3.6,1.7
		c-1.7,0.4-2.1,0.3-3.5-0.6l-1.5-1l-0.8,1.1c-0.5,0.6-1.6,1.2-2.7,1.4c-1.1,0.2-2.1,0.7-2.5,1.3c-0.6,0.9-0.6,1.1,0.2,1.7
		c0.5,0.4,1,1.4,1.1,2.1c0.2,1.1,0,1.7-1.2,2.9c-2,2.1-3,2.1-1.8,0.1c0.5-0.7,0.5-1.1-0.2-1.7c-0.7-0.7-0.7-0.9,0.1-2.1
		c0.9-1.3,0.9-1.3-0.2-2.3l-1.1-1.1l-1.6,1.4c-1.2,1-1.8,1.8-1.9,2.8v0.5c0.1,1,0.7,2.2,1.9,4l2.2,3.3l-0.3,3.6
		c-0.3,3-0.6,3.8-1.6,4.9c-0.5,0.6-1.4,1.7-2.1,2.7v20.4H244.4z"/>
	<path fill="#0D5EAF" d="M103.8,161.3c0.5,0.2,1.5,0.6,2.8,1.2v-2.6h-4.7C102.5,160.6,103.1,161,103.8,161.3z"/>
	<path fill="#0D5EAF" d="M266.5,209.2c-0.2,0-0.3,0-0.5,0c-1.3,0-3-0.3-4-0.7c-0.9-0.4-2.1-0.6-2.4-0.5c-0.4,0.1-1.2-0.2-1.8-0.8
		c-0.8-0.7-1.6-1-2.7-0.9c-1.4,0.1-1.7-0.1-3-1.8c-0.8-1.1-1.5-2.2-1.6-2.4c-0.1-0.3-0.8-0.1-1.8,0.5c-1.7,1-3,1.3-4.9,0.7
		c-0.9-0.3-1-0.5-0.8-1.4c0.2-1,0.1-1.1-0.7-0.8c-1.7,0.6-0.9-0.6,1.3-1.8c1.8-1,2.4-1.1,3.1-0.7c0.5,0.3,1.8,0.7,2.8,0.8
		c1,0.2,2.7,0.5,3.6,0.7c2.5,0.5,3.9,0,4.5-1.6c0.5-1.3,0.6-1.3,2.4-1c1.7,0.3,2.1,0.1,4.1-1.3c1-0.8,1.8-1.5,2.4-2.4v-4.3
		c-0.4,0.1-0.8,0.3-1.2,0.4l-1.2,0.3l1.1-1.4c1-1.4,1-1.5,0.2-3.2c-0.5-1.1-1.4-1.9-2.1-2.2c-1.1-0.4-1.3-0.7-1.3-2
		s-0.2-1.6-1.3-1.8c-0.9-0.2-1.4-0.1-1.8,0.5c-0.5,0.7-0.7,0.5-1.4-1.9c-0.9-3.1-0.6-5.6,0.7-6.3c0.5-0.2,1.7-0.5,2.7-0.5
		c2.2,0,2.6-0.3,1.9-1.5c-0.4-0.7-0.3-1.3,0-2.2c0.6-1.4,0.6-1.4,2.1-0.6c0.6,0.3,1.2,0.8,1.6,1.3v-8.5H159.9v31.2
		c0.4,0.3,1.2,0.6,2,0.7c1.9,0.3,2,0.2,3-1.4c0.8-1.4,1.1-1.6,1.7-1.2c1.2,1,1.7,2.5,1.7,5.2c0,2.1,0.3,2.8,1.1,3.8
		c0.7,0.8,1,1.4,0.7,1.9c-0.3,0.6-0.6,0.4-1.5-0.9c-1.5-2-2.7-2.1-3.1-0.2c-0.3,1.5-1,1.8-1.4,0.7c-0.2-0.4-0.6-0.7-0.9-0.7
		c-0.5,0-0.6-0.3-0.4-1.2c0.3-1.1,0.2-1.2-0.7-0.9c-0.7,0.2-1.2,0.1-1.6-0.4c-0.1-0.2-0.3-0.3-0.6-0.4V215c0.2,0.1,0.3,0.4,0.3,0.9
		c0,0.6,0.3,1.6,0.7,2.2c0.4,0.7,0.7,2.3,0.7,3.7c0,1.4,0.2,3.1,0.4,3.7l0.3,1.1l1.8-1.6l1.8-1.6l-0.3,2.7c-0.3,2.1-0.1,3.2,0.7,5.5
		c0.8,2.2,0.9,2.9,0.5,3.8c-0.4,0.8-0.4,1.5,0,3c0.7,2.7,2,3,3.8,1.1c0.7-0.7,1.7-1.4,2-1.4c1.1,0,3.5-1.6,3.8-2.5
		c0.1-0.5,0.7-0.8,1.4-0.8c1,0,1.1-0.2,1.1-1.7c0-1.3,0.1-1.6,0.8-1.5c0.5,0.1,0.8,0.7,0.9,1.5c0.1,1,0.5,1.4,1.5,1.8
		c1.1,0.4,1.4,0.8,1.4,2c0,2.2,2.2,4.2,4.2,3.7c0.8-0.2,2.1-0.8,2.9-1.5c1.5-1.3,3.5-1.5,8-0.9c2.6,0.4,2.7,0.4,3-0.8
		c0.3-1.4,2.9-2.9,3.6-2.2c0.7,0.7,3.1,0.1,4.7-1c1.1-0.7,1.5-0.8,2.6-0.4c0.7,0.3,1.9,0.6,2.7,0.8c2,0.4,6,2.4,6.8,3.3
		c0.8,1,1.4,0.9,2.9-0.6c1.3-1.2,1.4-1.2,2.6-0.5c1.1,0.7,4.2,1.1,6.1,0.9c0.4,0,0.6-0.7,0.5-1.8c-0.1-0.9,0.2-2.2,0.6-2.9
		c0.4-0.7,0.7-1.2,0.7-1.3c0-0.1,0.9,0.4,2,1.2c2.3,1.6,3.8,3.9,3.8,5.6c0,1.5,1.3,2.9,2.7,2.9c0.8,0,1-0.4,1.3-2.2
		c0.3-2.3,0.8-3.1,2.2-3.9c0.7-0.4,1-0.2,1.8,1.5c1,2.3,2.5,3.8,4.3,4.5c1.4,0.6,1.6,1.5,0.5,2.4c-0.7,0.5-0.6,0.7,0.4,1.2
		c0.6,0.4,2.1,0.6,3.2,0.7c1.9,0,2.2,0.1,2.5,1.2c0.3,1.3,2.1,1.7,2.1,0.5c0-0.6,0.6-0.7,2.6-0.7c1,0,1.7,0,2,0.1v-33.5V209.2z"/>
	<path fill="#0D5EAF" d="M265.7,197.6c-2.2,0.7-5.9,2.6-7.6,3.8c-1.7,1.3-1.8,2.4,0,2c0.7-0.2,2.1-0.4,3.1-0.6
		c3.9-0.5,4.1-0.6,3.8-1.8c-0.2-1,0-1.2,1.1-1.2c0.1,0,0.3,0,0.4,0v-2.7C266.3,197.4,266,197.5,265.7,197.6z"/>
	<path fill="#0D5EAF" d="M266.5,256.7c-0.8-0.2-1.5-0.4-1.8-0.5c-0.9-0.5-1.4-0.5-2.1-0.1c-1.4,0.9-3.9,2.8-3.9,3.1
		c0,0.1,1.3,1,2.8,1.9c2.5,1.4,2.7,1.6,2.3,2.5c-1.4,3.1-4.9,2.7-8.7-0.9c-4.2-4-8.9-7.5-12.7-9.3c-3.2-1.5-3.7-1.6-5.6-1.3
		c-1.8,0.3-2.3,0.3-3.5-0.7c-0.8-0.6-2.7-1.2-4.4-1.5c-1.8-0.3-3.4-0.8-4-1.4c-0.6-0.5-1.3-0.9-1.5-0.9s-0.8-0.6-1.2-1.4
		c-0.9-1.6-2.4-2.7-5.1-3.4c-1.9-0.5-2.1-0.7-2.4-2.1c-0.3-1.3-0.6-1.6-2.1-1.9c-0.9-0.2-2.7-0.3-3.8-0.4s-2.4-0.3-2.7-0.5
		c-0.4-0.2-1,0-1.7,0.6c-0.6,0.6-1.4,1-1.7,1c-0.8,0-2.9,2.9-4,5.6c-1.2,3-2,3.9-4.5,4.8c-2.8,1-5.3,0.7-8.2-1.2
		c-2-1.3-2.2-1.3-3.2-0.7c-1,0.7-1.1,0.7-1.6-0.2c-1-1.6-1.3-1.1-1.3,2.3c0,1.8-0.2,3.4-0.5,3.5c-0.2,0.1-0.5,0.7-0.5,1.1
		s-0.3,1.4-0.7,2.2c-0.4,0.7-0.9,2-1.1,2.8c-0.2,0.8-0.8,1.6-1.4,2c-0.7,0.3-1.5,0.9-1.9,1.4c-1,1.2-3.1,2.7-4.4,3.3h97.2V256.7z"/>
	<path fill="#FFFFFF" d="M159.9,67.7v-0.5C159.9,67.3,159.9,67.5,159.9,67.7z"/>
	<path fill="#FFFFFF" d="M159.9,86.2c-0.2,0.3-0.5,0.7-0.7,1l-1.5,2.3l-2.5-0.3c-2.3-0.2-2.5-0.2-2.5,0.7c0,0.5-0.2,0.9-0.4,0.9
		c-0.9,0-2.1,2.6-2,4.3c0.1,1.5-0.2,2.2-2.1,4.4c-2.1,2.6-2.2,2.7-1.9,5c0.1,0.9,0.1,1.5,0.1,2.1h13.4V86.2z"/>
	<path fill="#FFFFFF" d="M114.4,175.2c0,1.1,1.3,2.9,2.5,3.6c1.3,0.7,1.4,0.7,2-0.1c0.5-0.7,0.5-1-0.2-1.7
		C117.3,175.3,114.4,174.1,114.4,175.2z"/>
	<path fill="#FFFFFF" d="M122,159.9c0.2,0.6-0.2,0.8-1.2,0.8c-0.9,0-1,0.2-0.7,1.4c0.1,0.7,0.8,1.8,1.5,2.4c0.7,0.6,1.3,1.4,1.3,2
		c0,0.6,0.5,1.9,1.2,3c1.3,2.1,1.2,2.1,6.4,2.8c2.2,0.3,2.7,0.8,2.7,2.7c0,1.1,8.2,10.1,9.2,10.1c0.3,0,1.2,0.9,2,2
		c1.1,1.5,1.4,2.4,1.4,4.3c0,1.7,0.3,2.8,0.8,3.5c1,1.2,2,0.9,2-0.5c0-0.9,0-0.9,1.4-0.2c0.8,0.4,1.5,0.7,1.7,0.5
		c0.5-0.5-0.3-1.7-1.7-2.5c-1.7-0.9-1.7-1.5-0.3-3.2c1.1-1.3,1.1-1.3,2-0.3c0.5,0.5,1.5,1.1,2.3,1.3c0.8,0.2,1.7,0.7,2.1,1
		c0.7,0.6,0.8,0.6,1.4,0c0.7-0.9,1.7-0.9,2.2,0c0.1,0.1,0.2,0.2,0.3,0.3v-31.2H122z"/>
	<path fill="#FFFFFF" d="M106.6,162.5c1,0.5,2.1,1,3.2,1.5c2.6,1.3,4.6,2.1,4.8,1.8c0.2-0.2-0.1-1.6-0.9-3.3c-1.2-2.5-1.5-2.8-2-2.1
		c-0.7,0.9-2.8,0.9-2.8,0c0-0.2-0.2-0.4-0.5-0.6h-1.7V162.5z"/>
	<path fill="#FFFFFF" d="M159.9,196.1c-1.1-0.5-3-0.6-3.4-0.1c-0.2,0.3-0.7,0.6-1.1,0.8c-0.6,0.2-0.8-0.1-1.1-1l-0.3-1.3l-1.1,1.3
		c-1.2,1.4-2.9,1.7-3.3,0.6c-0.4-1-1-0.9-1.6,0.2c-0.4,0.8-0.3,1.3,0.4,2.5c1.2,1.9,1.2,2,0,2.3c-0.5,0.1-1.2,0.9-1.4,1.7
		c-0.6,1.6-1.4,1.5-1.4-0.2c0-1.7-0.8-1.4-3.1,1c-1.8,1.9-3.9,6.2-3.9,7.8c0,0.4-0.3,0.9-0.7,1.2c-0.5,0.4-0.7,1.6-0.7,4.5
		c0,3.9,0.4,4.7,1.3,3.1c1.3-2.1,1.3-2.1,2.8-0.5c1.3,1.5,1.4,1.5,1.4,0.5c0-0.6,0.3-1,0.7-1c0.3,0,0.9-0.3,1.2-0.7
		c0.8-1,2.2-0.5,4.2,1.5c1.5,1.5,1.7,1.5,2,0.7c0.1-0.6-0.2-1.3-0.9-2c-1.3-1.2-1.4-2.2-0.4-3.5c0.4-0.5,0.7-1,0.7-1.2
		c0-0.6-1.8,0.2-2.6,1.1c-0.8,0.8-0.8,0.8-1.4-0.3c-0.5-1-0.5-1.5,0-2.9c0.3-1,0.5-2.2,0.3-2.9c-0.3-0.9-0.1-1.4,0.5-1.7
		c0.7-0.5,0.9-0.4,0.9,0.3c0,0.5,0.1,1,0.3,1.1c0.5,0.6,3.2-0.6,4.2-1.7c0.6-0.7,1.1-1.2,1.2-1.2c0.5,0,1.7,3.9,1.7,5.5
		c0,2.5,1.4,4,3.3,3.6c0.6-0.1,0.9-0.2,1.1-0.1V196.1z"/>
	<path fill="#FFFFFF" d="M145.2,235.7c-0.7,0.5-1.2,0.8-1.3,0.9c-0.4,0.3,1.4,3.5,2.1,3.7c1.7,0.6,3.3-1,1.9-1.8
		c-0.2-0.2-0.4-1-0.3-1.8C147.8,234.9,147,234.5,145.2,235.7z"/>
	<path fill="#FFFFFF" d="M142.1,228.4c-0.6,0-0.7,0.4-0.4,1.7c0.3,1.9,1.4,4.1,2.1,4.5c0.2,0.2,0.7-0.5,1-1.4
		c0.5-1.5,0.2-3.5-0.9-5.8c-0.6-1.2-1.6-1.3-1.3-0.1C142.7,228.1,142.6,228.4,142.1,228.4z"/>
	<path fill="#FFFFFF" d="M139.2,230.7c-1.1-2.1-2.1-2.4-2.5-0.7c-0.1,0.7-0.1,2.6,0,4.2c0.2,2.8,0.1,3.1-1.1,4.4
		c-0.7,0.8-1.6,1.4-1.9,1.4c-0.8,0-2-1.4-2.4-3c-0.3-1.1-0.4-1.2-0.7-0.6c-0.2,0.4-0.7,0.7-1,0.7c-0.4,0-0.7,0.8-0.9,2
		c-0.2,1.1-0.6,2.6-0.9,3.4c-0.3,0.8-0.9,2.6-1.2,4c-0.6,2.4-0.6,2.6,0.5,3.4c1.4,1.1,3.5,1.2,3.9,0.1c0.5-1.3,0.3-6.5-0.3-7.1
		c-0.4-0.4-0.4-0.6,0.4-0.6c0.8,0,1.4,0.9,3.3,6.3c0.3,0.8,0.3,0.9-0.5,0.2c-0.8-0.6-0.8-0.6-0.6,0c0.1,0.4,0.5,1.7,0.8,2.8
		c0.5,1.5,1,2.3,2,2.9c1.4,0.7,1.4,0.7,2.4-0.2c1.4-1.4,2.6-1.2,5.1,0.7c1.7,1.4,2.7,1.7,4.5,1.8c2.1,0.1,2.3,0,2.7-1.3
		c0.7-2.1,0.7-2.5-0.9-4.2c-2.2-2.4-4.7-5.8-5.4-7.6c-0.6-1.4-0.8-1.6-1.6-1.2c-0.5,0.3-1.1,0.4-1.4,0.2c-0.7-0.4-1.1-3.1-0.6-3.5
		C141.5,239.3,140.1,232.5,139.2,230.7z"/>
	<path fill="#FFFFFF" d="M266.5,159.9v-6c-1.9-0.9-3.7-2.2-4.2-3.1c-0.3-0.6-0.9-1.5-1.4-2.1c-0.7-0.8-1-2.1-1.4-5.8
		c-0.2-2.7-0.5-5.3-0.7-5.8c-0.1-0.6-1.8-2.5-3.6-4.2c-3.1-2.9-3.5-3.4-3.7-5.5c-0.4-2.9-0.4-2.8-3.2-4.4c-2.6-1.4-3.4-2.8-3.9-6.5
		c-0.1-1.2-0.6-3.1-1-4.2c-0.7-1.8-0.7-2.1,0.2-3.8c0.3-0.5,0.6-1.2,0.7-1.9h-84.5h-13.4c-0.1,0.7-0.3,1.4-0.8,2.3
		c-0.6,1.1-0.9,2.2-0.7,2.6c0.1,0.3,0,1.4-0.3,2.5c-0.5,1.8-0.6,1.9-3.2,2.4c-1.4,0.3-3.1,0.4-3.6,0.3c-0.5-0.2-1.4,0-2.1,0.2
		c-0.9,0.4-1.6,0.4-2.7,0l-1.4-0.5l-1.4,3l-1.5,3h-2.1c-1.8,0-2,0.1-1.7,0.8c0.2,0.5,0.5,1.6,0.6,2.5c0.1,0.9,1,2.7,2,4.1
		c1.8,2.4,2.3,4.6,1.4,5.6c-0.3,0.3-1.5,0.4-2.8,0.3l-2.3-0.2v1.5c0,0.8,0.2,1.9,0.5,2.4c0.4,0.7,0.2,1.2-0.9,2.5
		c-0.7,0.8-1.5,1.8-1.6,2.2c-0.2,0.5-0.3,0.5-0.8,0c-0.5-0.5-0.7-0.4-1.1,0.8l-0.5,1.4l-4.2-1.4c-2.3-0.7-4.5-1.3-4.9-1.3
		c-0.9,0,5.1,4,6.3,4.2c0.7,0.1,0.9,0.5,0.8,2c0,1.1-0.4,2-0.8,2.3c-0.4,0.3-0.7,1.1-0.7,1.7c0,1.3,2,2.2,4.6,2.2
		c1,0,1.5,0.2,1.5,0.7c0,0.4-0.4,0.7-1,0.7c-1,0-1,0,0.2,1.3c0.5,0.5,0.8,0.9,0.9,1.2h37.9H266.5z"/>
	<path fill="#FFFFFF" d="M108.3,159.9c-0.4-0.3-0.9-0.6-1.6-0.8c-2.3-0.9-2.4-1-2.8-6c-0.2-3.1-0.2-3.6,0.5-3.6c1.3,0,0.8-0.8-1-1.5
		c-1.4-0.6-1.9-1.1-2.4-2.6c-0.7-2.2-0.6-2.7,1.8-3.9c2.5-1.3,3.7-5.1,1.6-5.1c-0.3,0-0.9-0.4-1.2-0.9c-0.7-1.1-2.7-1.2-3.7-0.2
		c-0.5,0.5-2,0.8-4.5,1c-3.5,0.2-3.9,0.4-4.8,1.6c-0.9,1.2-0.9,1.4-0.2,2.8c0.4,0.7,0.9,1.4,1.2,1.4c0.2,0,0.3,0.3,0.2,0.7
		c-0.4,1,0.7,2.6,1.6,2.6c0.6,0,1,0.5,1.2,1.6c0.2,1,0.7,1.7,1.2,1.9c0.5,0.2,0.9,0.6,0.9,0.8c0,0.3,0.7,1.1,1.6,1.7
		c1.4,0.9,1.7,1.5,2.1,3.8c0.4,2.1,1.1,3.7,1.9,4.8h4.7H108.3z"/>
</g>
</svg>
