<?xml version="1.0" encoding="utf-8"?>
<!-- Generator: Adobe Illustrator 17.1.0, SVG Export Plug-In . SVG Version: 6.00 Build 0)  -->
<!DOCTYPE svg PUBLIC "-//W3C//DTD SVG 1.1//EN" "http://www.w3.org/Graphics/SVG/1.1/DTD/svg11.dtd">
<svg version="1.1" id="flag-icon-css-gs" xmlns="http://www.w3.org/2000/svg" xmlns:xlink="http://www.w3.org/1999/xlink" x="0px"
	 y="0px" viewBox="0 0 640 480" enable-background="new 0 0 640 480" xml:space="preserve">
<g>
	<path fill="#000066" d="M512.5,356.7c-0.9-0.4-1.6-0.7-1.8-0.8h-0.8C509.9,355.9,511.1,356.1,512.5,356.7z"/>
	<path fill="#000066" d="M297.9,68.3c-0.1-0.3-0.3-0.5-0.5-0.7c-1.2-1-1.2-2.5,0-2.5c1.6,0,2.4-2.6,1.6-4.7l-0.7-1.9l-1.1,1.4
		c-1.5,1.8-2.5,1.3-2.5-1.1c0-1.7-0.1-1.8-1.5-1.2c-1.8,0.9-3.7,5.4-3.2,7.6c0.6,2.2-0.7,4.3-2.4,4c-1.2-0.2-1.4-0.6-1.4-3v-2.8
		l-3.4,0.2c-4.3,0.2-5.6,0.9-5.6,2.9c0,1.5-0.2,1.6-2,1.4c-1.1-0.2-2.5-0.5-3-0.7c-0.7-0.3-1.1,0.1-1.6,1.6c-0.4,1.2-1.4,2.4-2.5,3
		c-1.2,0.7-2,1.7-2.2,3.1c-0.2,0.9-0.6,1.9-1.1,2.6v12.1L297.9,68.3z"/>
	<polygon fill="#000066" points="526.6,349.6 526.6,349.6 534.4,353.5 534.8,353.5 	"/>
	<path fill="#000066" d="M511.4,355.9l4.3,0.1l-0.6-1.9l-0.6-0.1c0.9,1,1.2,1.8,1.2,1.8H511.4z"/>
	<path fill="#000066" d="M577.1,372.3c-1.3,1.3-2.9,2.5-4.7,3.4C574.3,374.9,575.9,373.7,577.1,372.3z"/>
	<path fill="#000066" d="M379.6,98.1c0-0.3,0-0.5,0-0.6c0.6-1.1,2.8-0.7,4.3,0.6h8.2c0-1.7,1.1-2.8,3.6-3.4l1.7-0.4l-1.1-1.9
		c-1-1.6-1.6-1.9-3.9-2.1c-1.9-0.1-3.3,0.2-4.5,1.1c-1.5,1.1-1.8,1.1-2.1,0.2c-0.2-0.6,0.2-2,1-3.2c1.9-3.1,1-3.9-2.4-2.2
		c-2.8,1.4-4.7,1.1-6.8-1.1c-0.9-0.9-1.3-1.1-2.9-0.7l-21.1,13.7H379.6z"/>
	<path fill="#000066" d="M532.1,401.4c-13.9-6.7-28.5-10.1-43.1-10.7l1.6,1.8c1.5,1.8,2.7,3.6,2.7,3.9s0.8,1.1,1.9,1.6
		c1.1,0.6,1.9,1.2,1.9,1.6c0,0.4,0.6,0.6,1.2,0.6c1.8,0,4.4,3.5,4.4,5.9c0,1.7-0.4,2.2-2,2.9c-3,1.3-2.9,2.4,0.1,2
		c2.2-0.3,2.6-0.2,2.6,0.7c0,0.6-0.4,1.7-1.1,2.3c-1.5,1.7-0.5,2.1,2.1,0.9c2.6-1.2,3.6-0.6,3.1,2.2c-0.3,1.6-0.2,1.7,1.5,1.7
		c1.7,0,1.9,0.2,1.9,2.2c0,2.5,0.3,2.6,2.1,1.1c1.1-1.1,1.2-1.1,2.1,0.1c0.5,0.6,0.9,1.9,0.9,2.8c0,0.9,0.4,2.1,0.8,2.7
		c0.7,1.1,0.9,1,1.6-0.5c0.9-1.9,3.2-2.2,3.2-0.5c0,1.8,3.4,4.5,6.3,5.2c0.2,0,0.4,0.1,0.6,0.2c-0.9-0.8-1.7-1.4-2.4-1.4
		C524.3,427.7,526.5,415.1,532.1,401.4z"/>
	<path fill="#000066" d="M189.2,55.9c-0.2,0.3-0.4,0.7-0.7,1.2c-0.9,1.7-3.9,2.5-9.6,2.6c-3.4,0.1-4,0.2-5.3,1.7
		c-1.4,1.7-1.4,1.7-3.9,0.7c-2.2-0.9-5.7-1.4-10-1.4c-0.7,0-2.2,0.1-3.5,0.4c-2.9,0.5-5.4-0.7-4.2-2c0.4-0.5,1.1-0.9,1.6-0.9
		c0.6,0,0.9-0.7,0.9-2.1c0-2.5,1.1-3.1,3.7-2.2c1.4,0.6,2.4,0.4,4.6-0.4c1.7-0.6,3.3-0.9,4.2-0.6l1.4,0.4l-1.4-2.1
		c-0.7-1.2-2.1-2.4-3.2-2.7c-3.4-1-1.8-4,2.4-4.5c2.5-0.3,2.6-0.4,1.6-1.5c-0.6-0.6-1.9-1.6-3.1-2.1c-2.5-1.2-2.7-2.1-0.6-4
		c1.1-1.1,1.9-1.3,3.3-1.1c1.2,0.2,2.7-0.1,4-0.7c1.6-0.8,3.1-1.1,5.4-0.8c2.6,0.2,3.2,0.1,3.6-0.7c0.2-0.6,1.1-1,2.2-1
		c2.1,0,3.2-1.7,2.7-4c-0.5-1.9-2.3-2.5-6.9-2c-2.6,0.2-3.4,0.1-3.4-0.4c0-0.5-0.4-1.2-0.9-1.6c-0.6-0.5-1.2-0.4-2.4,0.6
		c-0.9,0.7-1.9,1.2-2.2,1.2c-0.4,0-0.7,0.8-0.7,1.7c0,3.5-2.7,4.2-5.7,1.7c-1-0.9-2.1-1.6-2.4-1.6c-0.8,0-3.3,5.5-3.3,7.5
		c-0.1,1.6-0.2,1.6-4.1,0.8c-2.1-0.4-3.6,1.3-3.9,4.2c-0.2,1.9-0.4,2.2-2.2,2.4c-1.4,0.1-2.3-0.2-3.2-1.2c-0.9-1-2.1-1.4-4-1.6
		c-3.3-0.1-3.9,0.2-4.2,2.2c-0.3,1.9-2.5,2.1-3.3,0.2c-0.3-0.7-1.4-1.6-2.3-1.9c-1.3-0.5-1.6-1-1.4-1.9c0.2-0.9-0.1-1.5-0.9-1.9
		c-1.8-1-8.2-1.1-11.4-0.1c-3.4,1-6.1,0.2-7.4-2.2c-1.1-2.1-2.1-1.9-3.3,0.7c-0.1,0.2-0.2,0.4-0.3,0.6l83.7,54.3V55.9z"/>
	<path fill="#000066" d="M523.8,239.5c0.1-0.2,0.1-0.3,0.2-0.5l-0.1-8.8c0.8-0.5,1.5-1,2.3-1.4c-0.1-0.1-0.1-0.2-0.2-0.2
		c-1.4-2-2.1-3.2-2.4-4.2l0.1,15.5C523.7,239.7,523.7,239.6,523.8,239.5z"/>
	<path fill="#000066" d="M545.5,444.9c0.6,0.4,1,1.2,0.9,1.8c-0.1,0.7-0.2,1.9-0.3,2.7c-0.1,1.2-0.5,1.6-2.2,1.7
		c-1.5,0.1-2.2,0.7-2.9,2c-1.2,2.3-1.2,3.1,0,3.1c0.6,0,0.9,0.6,0.9,1.5c0,1.8,2.2,2.6,4.6,1.6c1.1-0.4,2.2-0.4,3.3,0.1
		c2.7,1,3.5,0.3,3-2.6c-0.4-2.2-0.3-2.5,0.8-2.5c1.3,0,2,1.1,2,3.2c0,1.8,3.2,1.6,5.5-0.4c2.2-1.9,2.3-2.3,0.7-5.4
		c-1-1.9-1.1-2.4-0.3-3c0.6-0.6,1.2-0.5,2.7,0.2c2.9,1.5,3.6,2.6,2.7,4.5c-0.4,0.9-0.7,2.1-0.7,2.7c0,1.3,1.5,1.7,2.2,0.6
		c0.3-0.4,0.9-0.2,1.7,0.4c1,1,1.3,1,1.7,0.2c0.7-1.2,0.6-9.3-0.1-9.7c-0.2-0.2-0.5-0.7-0.5-1.2c0-0.7,0.5-0.9,1.7-0.7
		c1.5,0.2,1.7,0.4,1.9,2.9c0.1,1.6,0.6,3.1,1.1,3.4c0.5,0.4,1.4,1.6,2,2.8c1.4,2.9,2.4,3.1,3.5,0.4c0.6-1.2,1.2-2.1,1.6-1.9
		c0.7,0.5,1.3-2.8,0.7-4c-0.3-0.6-1.6-1.7-2.8-2.7c-2.1-1.6-3.2-4.7-1.4-3.9c5.4,2.4,8.5,3.6,9.5,3.6c1.8,0,4.2-1.8,3.6-2.7
		c-0.3-0.4-0.5-1.4-0.5-2.3c0-1.4-0.3-1.6-2.5-1.9c-2-0.2-2.6-0.6-2.7-1.7c-0.2-1.9-3.7-4.7-5-4.2c-0.6,0.2-1.6,0.4-2.2,0.4
		c-0.7-0.1-1.8-0.1-2.4-0.1c-0.7-0.1-2.4,1.1-3.7,2.4c-2.8,2.8-5.4,3.3-7.6,1.6c-0.6-0.5-2-0.9-2.9-0.9c-0.2,0-0.4,0-0.6-0.1
		c-5.8,1.6-12.8,4.3-18.2,7.7C544.7,444.5,545.2,444.6,545.5,444.9z"/>
	<path fill="#000066" d="M575.5,430c-0.2,0.2-0.5,0.5-0.7,0.7C575.3,430.5,575.5,430.2,575.5,430z"/>
	<path fill="#000066" d="M539,445.5c-0.1,0.5-0.2,1-0.2,1.6c0,0.1,0.1,0.1,0.1,0.2c0.1,0.1,0.1,0.1,0.2,0.2c0.1-0.9,0.2-1.7,0.3-2.6
		C539.2,445.2,539.1,445.4,539,445.5z"/>
	<path fill="#000066" d="M477.2,227.5c0-0.1,0.1-0.2,0.1-0.3c-4-7.1-26.2-5.9-33.7-5.3l14-0.3C457.6,221.7,475.3,221.7,477.2,227.5z
		"/>
	<path fill="#000066" d="M541.3,447c0-0.2,0-0.3,0.1-0.5c-0.6,0.5-1.1,0.9-1.7,1.4C540.5,448.3,541.3,448,541.3,447z"/>
	<path fill="#000066" d="M94.4,94.2c-2.4,1.2-4.8,2.6-6.6,3.9h12.5L94.4,94.2z"/>
	<path fill="#000066" d="M571.6,433.1c-1.4-1.8-2.9-3.5-4.3-5.1c0,0-0.1,0-0.1,0c1.6,1.9,3.2,3.8,4.3,5.5
		C571.4,433.4,571.5,433.3,571.6,433.1z"/>
	<path fill="#000066" d="M592,322.6c-0.2,2.7-1.6,5.1-1.6,5.1l4.3,2.1h0.8l-0.4-3.1c-0.4-2.9-0.3-3.1,1.3-3.9c1.7-0.8,1.8-1.7,0.6-6
		c-0.3-1.1-0.2-1.4,1.1-1.4c0.8,0,1.8,0.3,2.2,0.7c1.2,1.2,1.4,0.2,0.7-3.5c-0.4-2.5-0.4-4.2,0-5.3c0.3-0.9,0.7-2.3,0.8-3.2
		c0.1-1.1,0.8-1.9,2.2-2.5c1.6-0.7,1.9-1.2,1.6-2.2c-0.2-0.7-0.4-2.2-0.5-3.3c-0.1-1.2-0.6-2.4-1.1-2.7c-1.1-0.7-1.8-0.7-1.8,0
		c0,0.3-0.6,0.8-1.3,1c-1,0.3-1.2,0.9-1.1,2.4c0.2,1.7-0.1,2.1-1.4,2.2c-0.5,0.1-1.4,0.5-2.2,1c-1.3,10.7-5.6,17.4-5.6,17.4
		S592.1,320,592,322.6z"/>
	<path fill="#000066" d="M501.5,177.8c0.3-0.9,0.2-1.9-0.1-2.8c-0.7-1.9-0.4-2.7,1.2-2.7c1.7,0,2.1-0.7,0.9-2
		c-1.3-1.5-1.9-1.4-2.2,0.2c-0.1,0.7-0.3,1.1-0.8,1.2c-0.4,1.3-0.8,2.6-1.2,3.9C499.6,175.9,500.4,176.7,501.5,177.8z"/>
	<path fill="#000066" d="M496.6,187.5c-1.3,6.2-2.1,11.1-2.1,11.1l10.7,6.8c0,0,2.9-2.7,6.2-3c0,0,0.1,0,0.2,0
		c0.1-0.1,0.2-0.2,0.3-0.3c0.7-0.8,1.1-1.3,1.4-1.7c-1.4-0.3-2.9-0.5-4.6-1.3c-0.3,0.2-0.6,0.4-0.7,0.6c-0.2,0.3-0.9,0.6-1.6,0.6
		c-1.2,0-1.2-0.2-0.9-2.4c0-0.2,0.1-0.4,0.1-0.6c-0.7-0.5-1.5-1.2-2.4-1.9c-0.2,0.1-0.4,0.2-0.6,0.3c-1.6,0.8-2.1,0.9-2.5,0.1
		c-0.7-1.1-0.7-1.9,0.6-2.8c-1.3-1.3-2.7-2.9-4.2-4.8C496.5,188,496.5,187.8,496.6,187.5z"/>
	<path fill="#000066" d="M492.8,220.4c2.9-0.3,6-0.4,9-0.5c0,0-0.1-0.1-0.1-0.1c-0.1-0.1-0.2-0.2-0.3-0.3c-5.7,0.2-12,0.7-16.8,2.3
		C487.5,220.9,490.6,220.5,492.8,220.4z"/>
	<path fill="#000066" d="M539.6,441.8c0.1,0.1,0.1,0.1,0.2,0.2c0,0,0,0,0,0c0.9-5.5,2.1-11,3.7-16.4
		C542,430.4,540.7,435.8,539.6,441.8z"/>
	<path fill="#000066" d="M510.4,219.8l-5.3-0.2c-0.1,0.1-0.3,0.1-0.4,0.2c-0.1,0-0.2,0.1-0.2,0.1c1.1,0,2.3,0,3.3,0L510.4,219.8z"/>
	<path fill="#000066" d="M520.6,297.5l0.3,0.4c-2.4,5.6-5,10.7-8.6,15.4l-0.2-0.2c-1.3,1.8-2.7,3.6-4.2,5.2l0.1,0l23,1.7
		c0,0,3.5,3.8,3.7,6.8c4.6-1.1,7.4,1,7.4,1l0.6,0c0.1-0.1,0.2-0.1,0.2,0c0.2,0.3,10.1,0.2,10-0.2c-0.1-0.4,3.2-1,3.2-1l0,0l4,2.6
		l1.3,0.1l-4.8-2.5c0,0-7.7-11-9.5-15.9c-1.7-4.9-3.8-26.7-3.1-31.4c0.4-3.1,0.8-15.8,0.9-24.7c-0.1,0.1-0.1,0.1-0.2,0.2
		c-1.2,1-1.9,1.1-2.9,0.6c-0.6-0.4-1.4-1.1-1.6-1.6c-0.4-1.1-2.1-1.1-4.2-0.1c-1.4,0.6-1.7,0.6-2.6-0.6c-0.6-0.8-1.6-1.4-2.6-1.4
		c-0.8,0-2.2-0.7-3.6-1.8c-1.9,0.9-3.1,1.5-3.1,1.5l-0.1-4.5c-0.1-0.2-0.3-0.4-0.4-0.6l0.3,39.6C523.2,290.2,522,293.9,520.6,297.5z
		"/>
	<path fill="#000066" d="M515.5,218.7c-0.6,0.3-2,0.5-3.9,0.5c-0.1,0.2-0.3,0.4-0.4,0.5l12.3-0.4l0,2c0.2-1.4,0.8-3.3,1.3-4.3
		c1.1-2.1,0.2-2.6-1.9-0.9c-1.3,0.9-2.9,1.1-4.3,0.6C517.4,217.8,516.1,218.3,515.5,218.7L515.5,218.7z"/>
	<path fill="#000066" d="M558.3,419c-1.2-1.1-2.5-2.2-3.7-3.2c-0.1,0-0.3,0-0.4,0c-0.7,0-1.7-0.2-2.1-0.6c-0.3-0.3-1.9-1.3-3.6-2.3
		c-1.2,2.5-2.4,5.3-3.5,8.3C546.7,420.8,555.3,418.3,558.3,419z"/>
	<path fill="#000066" d="M413.2,196.5c-0.5,2.5-1.9,5.7-5.6,8.8l0-0.1c0,0-1.7,5.5,0,8.2c1.7,2.7,12.7,24.9,12.7,24.9
		s7.5-9.2,10.2-9.5c0.2,0,0.5,0.2,0.6,0.5l-0.3-7.1l0.1,0l9.5-0.2l0,0c0.1,0,0.2,0,0.3,0l0.2,0c-0.9-0.8-4.6-4.3-4.6-9.8
		c0-2.5,0.7-4.4,1.7-5.8c-0.8,0.7-2.3,0.5-4.5-0.6c-2.6-1.3-3.1-2.8-0.9-2.8c0.6,0,1.3-0.9,2-2.3c-3.6-0.5-6.5-2.2-8.7-4.3H413.2z"
		/>
	<path fill="#000066" d="M564.1,424.6C564.1,424.6,564.1,424.6,564.1,424.6c0,0-0.1-0.1-0.1-0.1C564,424.5,564,424.6,564.1,424.6z"
		/>
	<path fill="#000066" d="M442.6,203.2c1.4-0.2,4.2,0.3,4.7,0.9c0.6,0.6,9.8-4,9.8-4s-0.9-6.1-2.6-13.2c0.3,2,0.6,4.2,0.8,6.4
		c-0.4,0.3-0.9,0.6-1.3,0.9v2.3h-3.5c-3.8,2.3-7.3,3.6-10.3,4.1c-0.9,1.5-1.7,3.1-1.7,3.6c0.1,0.8,0,1.4-0.2,1.8
		C439.9,204.2,441.8,203.3,442.6,203.2z"/>
	<path fill="#000066" d="M540.6,358l-24.1,1.1v-0.1c-0.1-0.4-1.4-1.1-2.7-1.8c1.8,1,3.4,2.6,2.2,5c-2.4,4.8-10-3.2-10-3.2
		s1.1,3.5,0.2,5.3c-5.2,1.9-8.2-4-8.2-4s-1.1,3.1-0.3,5.8c-5.5,1.8-8.4-7.7-8.4-7.7v8.4c-4.6,1.7-7.8-8.3-7.8-8.3s-0.6,1.9-1,4.2
		c0.3,0.5,0.8,0.6,1.2,0c0.6-1.1,1.6-0.7,1.6,0.6c0,0.7,0.3,1.4,0.7,1.7c0.4,0.2,0.5,1.2,0.3,2.4c-0.3,1.6-0.1,2.3,1.3,3.8
		c18.8,0.4,37.8,4.7,55.2,13.2c7.7-12,18.2-21.9,31-23.2c3.4,0.3,5.5,1.1,6.7,2.4c0-0.1-0.1-0.1-0.1-0.2v-0.1c1.5,0.3,2,2.3,3.2,4.7
		c1.7,4.2,3.5,10.4,6,12.8c2.5,2.5,4.7,6.2,4.7,8.4c0,2.2-0.5,5.2-7.2,7.2c-6.7,0.3-16.3-8.3-16.3-8.3s-2.8-3.2-5.3-7.4
		c2.3,4.1,5.3,7.9,5.3,7.9s-3.9,1.7-9.1,7.1c9.7,7.1,18.7,15.7,26.6,26c0,0-1.4,0.6-3.6,2c1.7,0.1,3.3-0.2,4.2-0.9
		c1.2-0.9,2.6-0.7,4.2,0.7c0.5,0.4,1.6,0.7,2.5,0.7c0.9,0,2.1,0.1,2.8,0.4c0.9,0.3,1.9-0.1,3.1-1.1c1.6-1.3,1.7-1.7,1.1-2.7
		c-1.5-2.2-1.5-2.7-0.1-4.9c1.9-3,3.5-2.9,4.4,0.3c0.9,2.8,2.1,3.2,2.7,0.9c0.6-2.2,1.7-2.5,4.7-1c1.9,1,2.9,1.2,4,0.7
		c0.9-0.3,1.9-0.4,2.4-0.3c0.4,0.2,2.4-0.1,4.2-0.5l3.4-0.8l-0.2-3.3l-0.2-3.3l2.5,0.4c2.3,0.4,2.6,0.2,3.2-1.2
		c0.6-1.2,0.6-1.8-0.1-2.6c-0.7-0.9-0.7-1.2,0.6-2c0.7-0.5,1.4-1.6,1.4-2.4c0-1.5-0.5-1.7-2.7-1.5c-0.6,0.1-1.7-0.5-2.3-1.2
		c-1.4-1.6-2.3-1.7-2.8-0.4c-0.5,1.2-2.6,1.8-3.7,0.9c-0.5-0.4-0.9-1.7-0.9-2.9c0-2.6-1.4-3.3-3.1-1.7c-1.1,0.9-1.5,1-2.9,0.4
		c-1.5-0.7-1.6-0.9-1.1-4.5c0.3-3.1,0.2-3.7-0.6-3.7c-0.5,0-1.1-0.4-1.3-1c-0.2-0.7-0.9-0.9-2.1-0.6c-1.2,0.2-2.1,0.1-2.6-0.6
		c-0.4-0.6-2.6-1.1-5.4-1.3c-5.5-0.6-7.2-1.8-6-4.4c0.6-1.3,0.4-1.7-1.3-3.6c-1.7-1.8-2.5-2.1-6-2.4c-4-0.3-4-0.3-4-2.2
		c0-1.3,0.4-2.1,1.6-2.6c1.9-0.9,8-1.1,10.3-0.2c0.9,0.4,1.9,0.4,2.2,0.2c0.8-0.8-0.4-8-1.9-11c-1.4-2.8-1.5-3.8-0.7-5.1l-60,2.4
		L540.6,358z"/>
	<path fill="#000066" d="M588.8,342.8c0,0-0.1,0-0.2,0l0.1,0.1l7.3,2.8c-0.2-0.9-0.8-2.2-1.7-3.5c-2.4-1-5.8-2.5-5.8-2.5
		L588.8,342.8z"/>
	<path fill="#000066" d="M591.8,338.4c-0.1-0.2-0.2-0.4-0.2-0.5l-0.5-0.2C591.1,337.7,591.4,338,591.8,338.4z"/>
	<path fill="#000066" d="M376.5,203.4c0.1-1,0-3.8,0-6.9h-23l21.1,13.7C375.2,207.3,376.3,205.5,376.5,203.4z"/>
	<path fill="#000066" d="M273,273.4c-0.6,0.2-1.9,1.2-2.9,2.2l-1.8,1.9h2c1.1,0,2.1-0.3,2.4-0.7c0.2-0.4,1.1-0.5,1.9-0.2
		c2.4,0.6,5.6-0.2,6-1.6c0.2-0.9,0.9-1.1,3.2-1.1c1.9,0.1,3.2-0.2,3.9-0.9c0.9-0.9,0.9-1.1-0.4-1.7c-0.8-0.4-2.7-2-4.3-3.6
		s-5.5-4.2-9-6l-6.3-3.2l-1.8,1.1c-0.3,0.2-0.6,0.3-0.9,0.5v7.6c1.7,0.3,4.3,1.3,6,2.2c0.7,0.4,1.8,0.7,2.3,0.7
		C274.5,270.7,274.3,273,273,273.4z"/>
	<path fill="#000066" d="M629.4,419.6l-1.7,1.1l2.3,1c2.2,0.9,3,2.3,1.7,3.1c-0.3,0.2-0.6,1-0.6,1.7c0,1.1,0.6,1.6,2.6,2.2
		c3.2,1,3.8,0.6,4.4-3.7c0.2-1.8,0.7-4,0.9-4.9l0.4-1.7h-4C632.2,418.4,630.6,418.8,629.4,419.6z"/>
	<path fill="#000066" d="M462.7,149.9l0,0.2l-0.5,0c0,0.1-0.1,0.2-0.1,0.4l1.2-0.1C463.1,150.2,462.9,150,462.7,149.9z"/>
	<path fill="#000066" d="M85,18.6c-0.4-0.1-0.9,0.2-1.1,0.8c-0.3,0.7-0.8,0.9-2.1,0.7l5.6,3.6C86.9,22,85.6,18.8,85,18.6z"/>
	<path fill="#000066" d="M30.1,54c0.9,3.1,3.2,4.8,4.9,3.7c0.6-0.4,1.5-0.7,2-0.7l-8-5.2C29.4,52.3,29.8,53.1,30.1,54z"/>
	<path fill="#000066" d="M97.9,29.7c-0.4-0.9-0.3-1.6,0.6-3l1.2-1.8l-3-0.3c-1.6-0.2-4,0-5.4,0.5c-0.5,0.1-0.9,0.2-1.4,0.3l8.2,5.3
		C98.2,30.4,98.1,30.1,97.9,29.7z"/>
	<path fill="#000066" d="M16.4,44.5c-0.5-0.4-1-1.1-1.5-1.8L4,35.6l-0.5,0.6c-2.1,2.4-2.1,2.5-0.8,2.7C3.4,39,4.9,40.1,6,41.3
		c2.1,2.3,2.2,3.3,0.1,7.4C5,50.9,4.3,55.2,5,55.2c0.4,0,0.3,0.7,0,1.6c-0.8,2.1-0.9,2,0.9,1.7c2.2-0.4,2.4,0.7,0.4,3.2
		c-2.7,3.4-1.2,4.9,1.9,1.9c1.4-1.4,1.8-1.5,3.6-0.8c1.1,0.4,2.2,0.6,2.4,0.3c0.9-0.9,0.1-5-1.1-6.2c-2.1-1.9-1.6-3.4,1.1-3.7
		l2.3-0.2l-0.2-3c-0.2-3.2,0.2-3.6,3-2c0.9,0.5,2.3,0.9,3.3,0.9c1.4,0,1.7,0.2,1.7,1.6c0,1.7,0.2,1.8,1.9,0.9
		c0.6-0.3,1.2-0.4,1.7-0.3l-9-5.8C18.2,45.9,17.7,45.7,16.4,44.5z"/>
	<path fill="#FFFFFF" d="M150.8,96c1.4,0,1.6-0.3,1.7-2.4c0.2-1.8,0.4-2.3,1.4-2.3c2.9,0,5,2.9,3,4.1c-1.3,0.8,1.6,2.5,4.5,2.7h27.8
		v-8.2l-83.7-54.3c-0.7,1.4-1.1,1.5-2.2,1.2c-0.7-0.3-1.9-0.4-2.6-0.4c-0.7,0.1-2.1,0.2-3.1,0.2c-2.5,0.2-2.7-1.2-0.6-3.7
		c0.8-0.9,1.2-1.5,1.2-2.1l-8.2-5.3c-1.7,0.3-3.2,0.1-2.6-0.6c0.1-0.1,0.1-0.5,0-1.1l-5.6-3.6c-0.1,0-0.3,0-0.4-0.1
		c-1.7-0.3-2.1-0.2-1.7,0.6c0.2,0.6-0.2,1.4-1.1,2.1c-1.2,0.9-1.3,1.2-0.4,1.2c0.7,0,1.1,0.5,1.1,1.5c0,0.9,0.4,1.6,1.1,1.7
		c0.6,0.1,1.1,0.9,1.2,1.7c0.1,0.9,0.4,2.5,0.6,3.7c0.4,2.1,0.4,2.1-1.4,1.6c-5.6-1.4-10.2-0.9-10.2,1.2c0,0.4-0.4,1.3-1,1.9
		c-0.9,0.9-1.1,0.9-2.6-0.1c-1.5-1-1.7-0.9-5,0.7c-0.7,0.3-1.3,0.6-1.8,0.9L83.2,54c0.9-0.1,1.6,0.1,2.2,0.8
		c1.1,1.3,4.8,1.2,5.5-0.2c0.3-0.6,0.4-2.3,0.2-3.7c-0.3-2.4-0.2-2.6,1.1-2.6c0.8,0,1.9,0.2,2.4,0.6c0.6,0.4,1.7,0.2,3.3-0.4
		c1.3-0.5,2.8-0.8,3.3-0.6c1.1,0.4,1.3,3.8,0.3,4.4c-0.3,0.2-0.6,0.8-0.6,1.3c0,0.6,0.7,0.9,2.6,0.9c1.4,0,3,0.2,3.6,0.6
		c0.7,0.4,2.2,0.1,5-1.2c5.4-2.4,6.9-2.4,6.9,0c0,2.2-2.2,5-3.9,5c-0.7,0-2.5,0.9-3.9,2.1c-1.9,1.5-2.5,2.4-2.5,3.9
		c0,1.9-0.1,1.9-4.4,2.4c-0.3,0-0.5,0.1-0.7,0.1l45.5,29.5C149.4,96.2,149.9,96,150.8,96z"/>
	<path fill="#FFFFFF" d="M117.3,98.1l-13.4-8.7c-0.4,0.2-0.8,0.4-1.2,0.6c-1.8,1-5.1,2.7-7.3,3.7c-0.3,0.2-0.7,0.3-1,0.5l5.9,3.9
		H117.3z"/>
	<path fill="#FFFFFF" d="M343.7,98.1c-0.2-0.7-0.5-1.2-1.1-1.7c-0.7-0.5-1.3-1.5-1.3-2.2c0-1.7,1.6-4.2,2.8-4.2c0.6,0,1-0.9,1.2-2.4
		c0.2-1.2,0.5-2.9,0.7-3.7c0.1-0.7,0-1.6-0.4-1.7c-0.3-0.2-0.6-1.6-0.6-3.1c0-2.9-0.2-3.1-4.7-3.8c-0.6-0.1-1.3-0.2-1.9-0.4
		l-35.8,23.2H343.7z"/>
	<path fill="#FFFFFF" d="M374.7,84.4c-0.2,0.1-0.5,0.1-0.8,0.2c-2.9,0.7-4.5,0-4.5-2.1c0-2-1.2-1.9-2.6,0.3l-1.4,2.2l-2.1-1.6
		c-1.7-1.4-2.3-1.5-4-0.9c-1.1,0.3-2.8,0.8-3.9,1.1c-1.6,0.4-1.9,0.9-2.3,3.3c-0.4,1.9-0.2,3.3,0.2,4.2c0.5,1.1,0.6,1.8,0,3
		c-0.3,0.7-0.6,2.3-0.7,4h1L374.7,84.4z"/>
	<path fill="#FFFFFF" d="M13.9,40.9c-1.1-2.6-3.1-4.4-5-4.4c-0.7,0-1.8-0.6-2.4-1.4l-1-1.4L4,35.6l11,7.1
		C14.5,42.1,14.2,41.4,13.9,40.9z"/>
	<path fill="#FFFFFF" d="M17.9,35.7c-1.2,1.1-0.9,2.6,0.9,5.2c1.4,2,1.5,3.2,0.2,4.2c0,0-0.1,0.1-0.1,0.1l9,5.8
		c0.4,0.1,0.8,0.3,1.1,0.7l8,5.2c0,0,0.1,0,0.1,0c0.5,0,0.9-0.4,0.9-0.9c0-1.2,1.7-1.2,3.7,0c2.4,1.3,5.4,1.2,6.2-0.3
		c0.4-0.7,1.2-1.2,1.9-1.2c0.1,0,0.2,0,0.3,0L19.6,34.7C18.9,35.1,18.3,35.4,17.9,35.7z"/>
	<path fill="#FFFFFF" d="M374.3,212.4c0.1-0.8,0.2-1.5,0.3-2.2l-21.1-13.7h-17l37.9,24.5C374.3,218.2,374.2,214.7,374.3,212.4z"/>
	<path fill="#FFFFFF" d="M264.8,98.1h4.2l10.9-7c0-0.1,0.1-0.3,0.1-0.4c1.5-4,2.4-5.6,3.2-5.6c1,0,3.2-2.6,3.6-4
		c0.1-0.9,0.9-1.3,2.9-1.7c1.6-0.2,3.4-1.1,4.4-2.1c0.9-0.9,1.9-1.6,2.4-1.6s0.7-0.6,0.7-1.2c0-0.7,0.3-1.4,0.6-1.6
		c0.8-0.5,0.8-3.2,0.2-4.6l-33.1,21.5V98.1z"/>
	<path fill="#FFFFFF" d="M431.9,252.8C431.9,252.8,431.9,252.8,431.9,252.8C431.9,252.8,431.9,252.8,431.9,252.8
		c-0.6,0.5-2.2,1.9-4,2.9l4.6,3l-0.4-8.7C432.1,251.6,432,252.7,431.9,252.8C432,252.7,432,252.7,431.9,252.8z"/>
	<path fill="#FFFFFF" d="M85.9,79.3c0.5,0.9,0.4,1.4-0.3,2.1c-1.4,1.2-0.3,1.7,4.5,2c2.4,0.2,5,0.6,5.8,1c0.3,0.1,0.5,0.2,0.8,0.3
		l-10.7-7C85.5,78.2,85.5,78.6,85.9,79.3z"/>
	<path fill="#FFFFFF" d="M341.4,225.5c0.6-0.2,2.2,0.1,3.7,0.6c2.2,0.8,2.7,0.9,3.5,0.2l-10.5-6.8
		C337.9,223.1,339.3,226.2,341.4,225.5z"/>
	<path fill="#FFFFFF" d="M324.9,213.5c-0.1,2.1-0.2,4.3-0.4,4.7c-0.1,0.5,0.4,1.3,1.1,1.8c1.2,0.8,1.4,0.8,1.7,0.1
		c0.8-2.7,1.1-3.1,1.9-3.5c0.6-0.2,1.7,0,2.7,0.5c0.9,0.4,1.9,0.9,2.2,1.1c0.2,0.1,0.4-0.4,0.4-1.1l-9.6-6.2L324.9,213.5z"/>
	<path fill="#FFFFFF" d="M280.5,196.5c1,0.8,2.3,1.4,3.4,1.7c1.2,0.2,2.1,0.8,2.2,1.6c0.2,0.7,0.9,1.2,1.6,1.2
		c0.7,0,1.6,0.6,2.1,1.2c0.5,0.7,1.5,1.2,2.6,1.2c2.2,0,4.2,1,4.2,2.2c0,1.6,2.8,1.1,4.3-0.7c1.3-1.5,1.7-1.6,4.4-1.2
		c3.3,0.4,4.4-0.2,4.3-2.7l-6.8-4.4H280.5z"/>
	<path fill="#FFFFFF" d="M370.3,240.4l-13.4-8.7c0,0.9-0.3,1.8-1,2c-0.6,0.2-1.6,0.7-2.1,1.2c-0.5,0.4-1.7,0.9-2.8,1
		c-1.7,0.2-1.9,0.4-1.7,2.1c0.1,1.2-0.2,2.3-0.7,2.7s-0.9,1.7-0.9,2.8c0,2.7-0.6,4-1.6,4c-0.9,0-1.1,0.7-0.4,1.5
		c0.2,0.2,0.5,0.9,0.5,1.5c0,0.8,0.4,1,1.7,0.9c1.1-0.1,2.5,0.4,3.7,1.2c1.4,1.1,2.6,1.4,4.8,1.3c2.2-0.1,3.4,0.2,5,1.4
		c1.8,1.4,2.2,1.5,4.1,0.8c0,0,0.1,0,0.1,0c2.7-7.7,5.2-13.5,5.2-13.5S370.4,241.7,370.3,240.4z"/>
	<path fill="#FFFFFF" d="M319,209.3c-0.5,0-1,0.4-1.2,0.9c-0.2,0.7,0.1,0.7,1.5,0.4c1-0.2,2.7-0.6,3.7-0.8l0.1,0l-2.1-1.4
		C320.1,208.9,319.3,209.3,319,209.3z"/>
	<path fill="#FFFFFF" d="M252.4,68.7c2.2-0.7,3.7-1.6,4.1-2.5c0.3-0.7,1.6-1.6,2.7-2c1.2-0.4,2.1-1,1.9-1.3c-0.4-0.9-6-0.6-7.2,0.3
		c-0.6,0.4-1.4,0.6-2,0.3c-0.6-0.3-1.4-0.4-1.6-0.4c-0.2,0-0.4,0-0.5,0v6.6C250.2,69.5,251,69.2,252.4,68.7z"/>
	<path fill="#FFFFFF" d="M384.4,98.5c2.1,2.3,4.4,3.3,6.4,2.9c1.6-0.3,1.7-0.6,1.4-2.4c-0.1-0.3-0.1-0.6-0.1-0.9H384
		C384.1,98.2,384.3,98.4,384.4,98.5z"/>
	<path fill="#FFFFFF" d="M431.5,187.4L431.5,187.4c-6.3,3.1-12.6-2.6-12.6-2.6s-5.3-2.6-10.7-7.9H268.3l0.9,1.8l-2.4,2.1
		c-1.4,1.2-3.4,2.6-4.4,3.1c-2.6,1.1-2.6,1.8-0.2,3.1c1.1,0.6,1.9,1.2,1.9,1.6c0,0.4,1.7,0.6,3.9,0.6c3.6,0,4.1,0.2,5.7,1.9
		c1,1,2.3,1.9,2.9,1.9c0.6,0,1.4,0.5,1.6,1.1c0.3,0.9,1.2,1.8,2.2,2.6h22.2h7c0.3-0.2,0.7-0.5,1.4-0.8c2.4-1.1,7.4-0.7,9.4,0.8h16
		h17h23c0-4.3,0.3-9.1,1.8-10.4c2.5-2.3,7.2-2,9.7-3.5s5.7-4.2,9-4c3.3,0.2,6,2.5,6,2.5s8.4,0,11.6,2.8c0.2-0.1,0.4-0.2,0.7-0.2
		c1,0,1.8,0.8,1.8,2c0,0.8-0.5,1.6-1.2,1.9c-0.1,3.5-2.6,4.7-2.6,4.7s0.5,1.7-0.1,4.2H426c-4.9-4.6-6.7-11.2-6.7-11.2
		s6.7,6,12.4,2.6c1.7,0.8,3.7,0.9,5.8,0.5c-0.4-1.2-1-2.5-1.5-2.5c-0.3,0-0.6-0.7-0.6-1.6c0-1,0.8-2.3,1.7-3.3
		C434.6,180.9,432.3,183.5,431.5,187.4z"/>
	<path fill="#FFFFFF" d="M251.1,57.6c-2.1,0-1.6-2.7,0.6-3c3-0.4,3.2-0.6,2.4-2.3c-0.6-1.4-1-1.6-2.3-1.2c-0.4,0.1-1.2,0.2-2,0.3V59
		C251.9,58.7,253.1,57.6,251.1,57.6z"/>
	<path fill="#FFFFFF" d="M398.7,117.9c-0.3-0.4-0.7-0.9-1-1.3c-0.5,0-0.9,0-1.4-0.2c-0.6-0.2-1.3,0.2-1.9,1
		c-0.1,0.2-0.3,0.4-0.4,0.5c0,0,0,0,0,0C395.7,117.9,397.2,117.9,398.7,117.9z"/>
	<path fill="#FFFFFF" d="M417.8,117.9c2.8,0,5.5,0,8,0c-0.2-0.1-0.3-0.2-0.5-0.3c-2.1-1.4-4.1-2.6-4.4-2.6s-0.4-0.9-0.1-2.1
		c0.4-2.1,0.2-2.2-2-2.8c-2-0.6-2.7-0.4-5.2,0.7c-0.6,0.3-1.1,0.5-1.5,0.7C414.2,113.3,416.1,115.5,417.8,117.9z"/>
	<path fill="#FFFFFF" d="M251.1,86c0-0.8-0.2-1.7-0.6-1.9c-0.3-0.2-0.6-1.3-0.6-2.4c0-0.3,0-0.6-0.1-1v6.8
		C250.8,87.3,251.1,87,251.1,86z"/>
	<path fill="#FFFFFF" d="M249.7,117.9c42,0,82.9,0,117,0c-1.1-2.7-1.6-5.4-1.6-8.1c2.8,2.9,6.8,4.5,11.2,5.4c0.6-0.2,1.3-0.3,2-0.3
		c1.4,0,3.2-0.4,3.8-0.9c0.7-0.5,1.9-0.9,2.8-0.9c1.7-0.1,4.2-1.6,3.4-2.1c-0.2-0.1-3.2-0.5-6.4-0.7c-3.2-0.2-6.3-0.7-6.7-1.1
		c-0.4-0.4-0.8-1.4-0.8-2.4c0-2,1.7-2.8,5-2.3c1.6,0.2,1.9,0.1,1.9-1.2c0-0.8-0.4-2.3-0.9-3.4c-0.4-0.6-0.6-1.3-0.7-1.8h-26h-1
		c0,0.5-0.1,1.1-0.1,1.6c0,3.4-0.2,4.1-1.4,4.9c-2,1.4-4.6,1.2-6.1-0.4c-1.3-1.4-1.4-2.1-1.2-5c0-0.4,0-0.8-0.1-1.1h-41l-0.2,0.1
		h-33.8h0l0.2-0.1h-4.2v-8.3V77.7c-0.2,0.2-0.4,0.5-0.5,0.6c-0.7,0.6-1.7,2-2.2,3.2c-0.6,1.3-1.7,2.6-2.9,3.2
		c-2.4,1.2-2.6,3.2-0.4,4.2c1.9,0.8,2.6,2.4,1.5,3.1c-1.2,0.7-4.7,0.6-6-0.2c-0.9-0.6-1.6-0.4-3.7,0.7c-0.3,0.2-0.6,0.3-0.9,0.4
		V117.9z"/>
	<path fill="#FFFFFF" d="M448,183.7c0.5-0.3,0.9-0.6,1.4-0.9C448.4,181.9,447.9,182.2,448,183.7z"/>
	<path fill="#FFFFFF" d="M262.7,260.7c-0.9,0-1,0.3-0.6,1.7c0.2,1,0.4,2.5,0.4,3.4c-0.1,1.4,0.2,1.7,1.2,1.7c0.3,0,0.6,0.1,1,0.1
		V260C264,260.4,263.2,260.7,262.7,260.7z"/>
	<path fill="#FFFFFF" d="M454,196.5v-2.3c-1.2,0.8-2.3,1.6-3.5,2.3H454z"/>
	<path fill="#FFFFFF" d="M119.7,117.7c1.1,0.2,2.4,0.1,2.8-0.3c0.5-0.4,1.3-0.6,1.8-0.3c0.6,0.2,0.9-0.1,0.9-0.9
		c0-1.4,0.1-1.5,3.2-0.5c2.2,0.6,2.6,0.6,3.9-0.6c0.7-0.7,2.5-1.8,3.9-2.5c2.2-1,2.5-1.4,2.7-3.7c0.2-2.9-1-4.6-3.2-4.6
		c-0.7,0-1.9-0.4-2.6-0.9c-1.1-0.8-1.1-0.9-0.1-2.6c0.8-1.2,0.9-1.9,0.4-2.4c-0.1-0.1-0.2-0.2-0.3-0.4h-15.6l-0.2-0.1h-17H87.8
		c-1.5,1-2.5,1.9-2.7,2.4c-0.6,1.4,0.2,2,1.9,1.4c2.9-1.1,6-0.1,8,2.6c1.7,2.3,2.1,2.4,4,2.1c3.6-0.7,4.5-0.7,4.8,0.1
		c0.1,0.4-0.7,1.1-1.8,1.6c-1.1,0.5-2.6,1.5-3.2,2.2c-1,1.2-1.1,1.6-0.4,3.2c1.1,2.7,2.7,3.4,4.7,2.1c1.6-1,1.7-1,4.3,0.4
		c1.9,1,3.4,1.3,5.7,1.2l3.1-0.2l0,0.8c0.6,0,1.1,0,1.7,0C118,117.4,118.5,117.4,119.7,117.7z"/>
	<path fill="#FFFFFF" d="M204.3,117.9V113c-2.7-0.1-5.5,0.3-7.7,0.9c-1.7,0.6-4.5,1-6.2,1c-2.7,0-6.8,1.4-9.1,3
		C188.9,117.9,196.6,117.9,204.3,117.9z"/>
	<path fill="#FFFFFF" d="M189.2,98.1h-27.8c0.2,0,0.5,0,0.7,0c3.7,0,4.9,0.4,4.9,1.9c0,0.6,0.4,1.4,0.9,1.9c1.2,1,9,2.6,9.8,2.1
		c0.4-0.2,3.2-0.5,6.4-0.5c5.8-0.1,15.5-1,20.2-1.9V60c-3.5-0.2-4.7-0.6-6.4-1.9c-1.2-0.9-3-1.7-4-1.7s-2.2-0.4-2.6-0.9
		c-0.7-0.8-1.3-0.8-2.1,0.5v33.9V98.1z"/>
	<path fill="#FFFFFF" d="M143.8,98.6c2.9,0,4.1,0,4.7-0.4h-9.6C139.6,98.6,140.7,98.6,143.8,98.6z"/>
	<path fill="#CC0000" d="M370.3,233.3c0.8-3.7,4.3-7.4,4.3-7.4s-0.1-2.1-0.2-4.9l-37.9-24.5h-16c0.1,0.1,0.2,0.1,0.2,0.2
		c0.6,0.6,2.4,1.1,4.1,1.3c2.1,0.2,3.4,0.7,4,1.6c0.7,0.9,1.9,1.4,4,1.5c1.7,0.1,3.2,0.5,3.3,0.9c0.4,1.3-1.7,2.7-4.7,3.1
		c-1.6,0.2-3.4,0.6-4,1c-0.6,0.3-1.4,0.4-1.7,0.2c-0.4-0.2-1.8,0.4-3.2,1.4c-0.5,0.3-1,0.6-1.4,0.9l2.1,1.4l1.8-0.3l0,1.4l9.6,6.2
		c0-0.1,0-0.2,0-0.3c0-1.9,0.8-2.5,2.9-1.9c1.4,0.3,1.5,0.6,1.1,2.1c-0.2,0.8-0.4,1.7-0.4,2.5l10.5,6.8c0.1-0.1,0.1-0.1,0.2-0.2
		c1.5-1.4,2.4-1.2,3.4,0.9c0.6,1.1,1.2,1.7,1.6,1.6c0.3-0.2,1.1,0,1.9,0.4c0.8,0.5,1.2,1.6,1.2,2.6l13.4,8.7
		C370.1,238.4,369.9,235.5,370.3,233.3z"/>
	<path fill="#CC0000" d="M309.5,200.9c0-0.4-0.1-0.9-0.1-1.4c-0.3-1.8-0.3-2.4,0.4-3h-7L309.5,200.9z"/>
	<path fill="#CC0000" d="M426.4,256.4c-0.8,0.4-1.5,0.7-1.9,0.7c-0.2,0-0.2,0.1-0.1,0.4c0.6,1.6,3.3,5.3,5.1,9.5l3.2-3.1l-0.2-5.2
		l-4.6-3C427.4,256,426.9,256.2,426.4,256.4z"/>
	<path fill="#CC0000" d="M53.8,40.7c-0.5-0.4-1.3-1.5-1.8-2.5c-0.5-0.9-1.2-1.7-1.6-1.7c-0.4,0-2.3-0.9-4.2-2.1
		c-4.5-2.7-13.4-4-16.4-2.6c-1.1,0.5-2.5,0.9-3.2,0.9c-1.4,0-4.7,1-6.9,2l30.5,19.8c0.7-0.1,1-0.5,1-1.5c0-1.4,0.2-1.5,1.9-1.2
		c1.6,0.4,1.9,0.2,1.9-0.8c0-2.7,4-4.4,5.6-2.4c0.7,0.8,0.5,1.2-0.9,2.8c-1.7,1.8-1.8,4-0.1,3.4c0.4-0.2,1.4,0.5,2.2,1.6
		c1.8,2.4,3.2,2.4,3.2,0c0-1.3,0.3-1.9,1.1-1.9c0.6,0,1.6-0.5,2.2-1.1c1.1-1,1.4-1,2.9-0.1c1.2,0.7,1.7,1.4,1.7,2.8
		c0.1,4.2,1.7,4.4,6,0.6c1.9-1.7,3.4-2.5,4.5-2.7L60,38.9C54.6,41.6,54.7,41.4,53.8,40.7z"/>
	<path fill="#CC0000" d="M433.7,165.6c0.5,0,1.2,0.2,2.4,0.7c1.9,0.9,2.7,0.9,3.4,0.4c0.8-0.7,1.5-2.4,2.1-4.7
		c-0.6-0.8-1-1.4-1.2-1.9c-0.5-0.6-1.3-1.4-0.9-2.6c0.1-0.4,0.3-0.6,0.6-0.8c0.6-1.7,2-3.8,2-3.8l0.6-0.1c0-0.1,0-0.1,0-0.2
		l-0.4,0.1c-0.1,0-4.5,1.9-4.3-5.4c0-0.1,0-0.1,0-0.2c-0.3-0.2-0.5-0.4-0.6-0.4c-0.2,0-1.1,1.2-1.8,2.8c-0.5,1-1,1.7-1.4,2.2
		C434.5,155.7,434.5,160.3,433.7,165.6z"/>
	<path fill="#CC0000" d="M420.2,166.1c-1-2.4-0.6-9,0.1-16c-0.3,0.4-0.6,0.9-0.8,1.3c-0.6,1.4-1.2,2.1-1.7,1.9
		c-0.4-0.1-1.5,0.1-2.8,0.5c0.2,0.3,0.3,0.6,0.5,0.9c-0.8,0.3-1.8,0.3-2.8,0.2c-0.8,0.5-1.5,1.2-2.2,2.1
		C419.4,163,422,170.1,420.2,166.1z"/>
	<path fill="#CC0000" d="M401.1,120.5c-0.9-0.8-1.7-1.7-2.4-2.6c-1.5,0-3,0-4.6,0C397,118.5,399.4,119.2,401.1,120.5z"/>
	<path fill="#CC0000" d="M116.8,120.9c0.5-0.7,0.9-1.8,0.9-2.4c0-0.3,0-0.4,0.1-0.6c-0.6,0-1.1,0-1.7,0l-0.1,1.7
		C116,121.9,116,122,116.8,120.9z"/>
	<path fill="#CC0000" d="M204.3,101.6c0.8-0.1,1.5-0.3,2-0.4c1.4-0.4,2.7-0.4,3.1-0.1c0.5,0.3,1.4,0.6,2.1,0.7
		c0.7,0.1,2.4,0.2,3.7,0.4c1.4,0.2,3.5,0.4,4.7,0.3c1.6,0,3.1,0.7,5.7,2.6c3.7,2.7,4.2,3.6,2.7,4.9c-0.6,0.5-1.9,0.4-5-0.6
		c-3.6-1.1-4.5-1.2-5.9-0.6c-0.9,0.4-3.2,0.9-5,1.2c-2.9,0.3-3.4,0.6-3.7,1.9c-0.3,1.2-0.7,1.5-1.9,1.4c-0.8-0.1-1.6-0.2-2.5-0.2
		v4.9c-7.7,0-15.4,0-23,0c-0.5,0.3-0.9,0.7-1.2,1c-0.6,0.7-1.8,1.1-3.6,1.1c-1.5,0-2.7,0.1-2.7,0.3c0,0.2,0.9,1.2,2.1,2.4
		c2.4,2.3,3.5,4.2,3.5,6c0,0.9,0.5,1.5,1.3,1.7c0.9,0.2,1.2,0.7,1,1.5c-0.4,1.4,0.7,1.8,2.6,1c1.1-0.5,1.9-0.4,3.4,0.3
		c1.1,0.6,2.7,1.2,3.7,1.4c2.2,0.5,6.9,4.1,7.8,6.2c1,2,1.9,2.1,4,0.4c2.2-1.7,3.1-1.6,2.8,0.4c-0.1,1.3-0.9,2.1-2.9,3.1
		c-1.5,0.8-3.1,1.9-3.6,2.4c-0.6,0.5-1.9,0.9-2.9,0.9c-3.5,0-6.3,0.4-7.8,1.2c-0.8,0.5-2.2,0.6-3.5,0.4c-1.2-0.2-2.2-0.1-2.5,0.2
		c-0.2,0.4-1.4,0.7-2.4,0.7c-2.7,0-5.7,2.7-4.8,4.4c0.4,0.7,0.5,2.7,0.2,4.7c-0.4,3.5,0.1,4.3,1.6,2.5c0.4-0.5,1.3-0.9,1.9-0.9
		c0.6,0,1.3-0.3,1.5-0.6c0.6-1.1,2.4-0.7,3.3,0.6c0.7,1.2,0.7,1.2,2.7,0c2.4-1.5,6.7-1.7,6.7-0.4c0,0.5-1,1.5-2.2,2.2
		c-1.2,0.7-2.2,1.5-2.2,1.6s1.4,0.1,3.2,0c2.6-0.2,3.3-0.5,3.7-1.5c0.2-0.7,0.9-1.6,1.6-1.9c1.4-0.8,6.5-0.2,7.8,0.9
		c1.4,1.2,3,0.6,3-1.2c0-2.4,0.9-3.2,3-2.7c2.7,0.6,4.5-0.6,4.5-2.8c0-1.4,0.3-1.9,1.2-1.9c1,0,1.2-0.3,0.9-1.8
		c-0.4-1.9,0.6-4.4,1.8-4.4c0.4,0,1.1,0.6,1.6,1.2c1.1,1.8,2.6,1.6,3.3-0.6c0.5-1.4,1.1-1.9,2.9-2.1c3.2-0.4,3.7-0.1,4.2,2.4
		c0.2,1.6,1,2.6,2.9,3.7l2.5,1.6l-1.9,2c-1.1,1.1-1.9,2.2-1.9,2.4c0,0.6,5.8,2.1,7.2,1.9c0.7-0.1,2.1,0.1,3,0.5
		c1.4,0.5,2,0.4,3.3-0.6c0.9-0.7,1.9-1.2,2.2-1.2c1.1,0,4.9,4.2,4.9,5.5c0,2.2,2.2,2.9,5.1,1.6c2.3-1.1,2.6-1.1,4.4-0.1
		c1.1,0.6,2.7,1.1,3.6,1.2c2,0.2,2.4,3.1,0.9,5.9c-1,1.9-1,2.1,0,4l0.2,0.3h139.9c-2.5-2.5-5.1-5.7-7.1-9.5
		c-1.2,1.3-2.5,1.8-3.4,1.1c-1-0.8-1-1.6-0.1-3.8c0.3-0.7,0.1-1.1-0.8-1.4c-0.9-0.2-1.9,0.5-3.7,2.5c-1.6,1.7-2.9,2.7-3.4,2.5
		c-0.6-0.2-1,0.2-1.2,1.2c-0.5,1.8-3.2,3.3-4.2,2.3c-0.4-0.4-0.4-1.7-0.1-3.7c0.5-2.9,0.7-3.1,3.3-4c3.9-1.4,3.7-2.9-0.4-4.9
		c-2.3-1.1-3.7-2.2-4.9-4.2c-1-1.6-2.3-2.8-3.3-3.1c-2.4-0.6-3.2-1.5-3.2-3.2c0-2.3,1.8-5.4,2.9-4.9c0.6,0.2,1.9,0.4,3.1,0.4
		c1.3,0,3.2,0.7,5.3,2.2c2.4,1.6,3.6,2.1,4.7,1.9c1-0.2,1.5-0.8,1.4-1.5c-0.1-0.8,0.3-1.1,2-1.1c1.3-0.1,3.1-0.6,4.2-1.5
		c1.7-1.2,2-1.7,2-4.2c0-1.1,0.2-2.3,0.3-3.1c-20.1-1.5-31-9.8-34.8-19.1c-34.1,0-75,0-117,0V93c-2.6,1.2-3.8,0.2-3.5-2.9
		c0.2-2.1,0.3-2.2,2.6-2.4c0.4,0,0.7-0.1,1-0.1v-6.8c-0.2-1-0.6-2.1-1.1-2.7c-1.4-1.8-1.6-2.4-0.5-3.4c0.4-0.4,0.7-1.6,0.7-2.7
		c0-1.1,0.1-1.6,0.9-2.1v-6.6c-1.2-0.2-2.4-1.5-2.3-2.6c0.1-1,0.7-1.4,2.1-1.6c0.1,0,0.1,0,0.2,0v-7.6c-1.1,0.1-2.4,0.1-3.6,0.1
		c-4.9-0.1-5.9,0.5-4.9,3.1c0.5,1.5,0.4,2.1-0.4,2.9c-0.7,0.8-0.9,1.8-0.6,3.4c0.3,1.9,0.2,2.3-0.9,2.6c-1.9,0.6-7.6-2.8-7.6-4.5
		c0-0.2-0.9-0.7-2-1.1c-2-0.6-2.1-0.6-2.2,1.3c-0.1,1.1,0.2,2.9,0.6,4.2c0.6,2,0.5,2.5-0.7,4.2c-0.7,1-1.9,2.1-2.6,2.2
		c-0.9,0.3-1.2,0.9-1.2,2.6c0,1.7-0.2,2.2-1.1,2c-0.8-0.1-1.2-1.1-1.6-3.3c-0.4-2.5-0.9-3.5-2.6-5c-1.9-1.6-2.2-2.3-2.4-5
		c-0.2-2.9-0.3-3.1-1.9-3.3c-1.2-0.1-1.7,0.1-1.7,0.7c0,1.4-2.4,1.8-7.8,1.5c-0.1,0-0.2,0-0.4,0V101.6z"/>
	<path fill="#CC0000" d="M422.1,126.2c0.1-0.4,0.2-0.8,0.1-1.4c-0.2-2.9,1.2-2.9,7.8,0.1c3,1.4,5.9,2.5,6.4,2.5c1.2,0,1.2-1.2,0-2.9
		c-0.7-1-0.9-2.1-0.6-4c0.4-2.5,0.4-2.6-1.1-2.2c-0.8,0.2-2.4,0.7-3.5,1.1c-1.8,0.7-2.2,0.7-5.4-1.5c-2.5,0-5.2,0-8,0
		C419.6,120.3,421,123.1,422.1,126.2z"/>
	<path fill="#CC0000" d="M117.5,98.2h15.6c-0.6-1-0.4-2.4,0.6-2.8c2.2-0.9,3.7-0.4,4.4,1.4c0.3,0.7,0.4,1.1,0.8,1.4h9.6
		c0.4-0.2,0.5-0.5,0.5-0.9c0-0.2,0.1-0.3,0.1-0.5l-45.5-29.5c-7.8,0.9-7.9,1-11.8,5c-2.1,2.1-4.4,4.3-5.2,4.9
		c-0.3,0.2-0.5,0.4-0.7,0.6l10.7,7c1.1,0.3,1.8-0.1,1.8-1.1c0-0.4,0.5-1.3,1.2-1.9c1.6-1.4,4-0.7,5.7,1.6c0.7,1,1.9,2,2.7,2.2
		c2.4,0.6,3.2,2,2,3.2c-0.8,0.8-1.3,0.9-2.6,0.3c-1-0.5-1.8-0.4-3.6,0.5l13.4,8.7L117.5,98.2z"/>
	<path fill="#CC0000" d="M268.8,98.2L268.8,98.2h33.8l0.2-0.1l35.8-23.2c-1-0.3-1.8-0.7-2.2-1.1c-1.7-1.7-5.4-2.2-6.7-0.9
		c-1.6,1.4-1.9,1.3-5.3-1.5c-3.4-2.8-3.2-2.7-4.7-1.9c-0.9,0.5-1.6,0.4-2.5-0.1c-1.1-0.7-1.4-0.6-2.8,0.9c-1.1,1.1-2.2,1.7-3.4,1.7
		c-2.2,0-4.1,2.2-3,3.6c0.4,0.4,1.2,0.8,1.8,0.8c1.4,0,1.4,0.2,0.6,1.9c-0.4,0.7-1.3,1.2-2.2,1.2c-0.9,0-2.1,0.6-2.7,1.2
		c-0.6,0.6-2.3,1.4-3.7,1.6c-1.4,0.2-3,0.9-3.6,1.6c-0.6,0.6-1.4,1.2-1.9,1.2c-2.9,0-6.2,3.6-4.6,5.2c1.4,1.4,0.7,2.4-1.3,2.2
		c-1.6-0.1-2.2,0.1-2.7,1.1c-1,2-5.1,3.7-7.1,3.1c-1.8-0.7-1.9-1.6-0.6-5.5l-10.9,7L268.8,98.2z"/>
	<path fill="#6A4C2D" d="M436.5,301c-0.2,1.3-0.5,2.9-0.7,3.4c-0.3,0.9,0.4,1.4,3.6,3c1.2,0.5,2.3,1,3.2,1.4
		c-2-3.3-3.7-6.7-5.1-10.3C436.9,298.9,436.7,299.7,436.5,301z"/>
	<path fill="#6A4C2D" d="M429.6,267c0.3,0.7,0.6,1.4,0.8,2.2c0.4,1,0.6,1.8,0.7,2.6c0.2,0.9,0.2,1.7,0.2,2.5c0,0.3,0,0.7-0.1,1
		c0.6,0.1,1.3,0.1,1.9,0.2c0.1,0,0.1,0,0.2,0l-0.5-11.6L429.6,267z"/>
	<path fill="#6A4C2D" d="M433.5,279.2c-1.4,0-2.2,0.3-2.7,0.9c-1.1,1.7-0.1,2.9,2.9,3.5L433.5,279.2z"/>
	<polygon fill="#FFFFFF" points="562.4,329.8 561.3,329.3 560.1,329.2 562.8,331 	"/>
	<path fill="#FFFFFF" d="M588.6,342.8c-1-0.1-6.1-0.8-6.1-5.1c-3.1-1.8-5.2-4.2-5.2-4.2l-1.9-0.3c2.2,1.4,0.9,3.3-3.7,4.9
		c-10.4,2.3-21.8,0.6-21.8,0.6l-1.7,0.6l-0.7-2.5c0,0-2.4-0.3-2.2-1s3.6-3.7,3.6-3.7l13.3-0.4l0-0.1c0,0,2,0,4.3,0l-3.7-0.6l0.4,0.3
		l-16.3,0.3c0,0-0.8,0.6-0.9,0.4c-0.3-0.1,0.8-1.3,0-1.1c-0.7,0.2-3.1-2.4-3.1-2.4l-1.6,1c0,0,0.9-1.3,1.3-1.7l-0.6,0
		c0,0-2.8-2.1-7.4-1c-0.2-3-3.7-6.8-3.7-6.8l-23-1.7l-0.1,0c-2.3,2.6-4.7,5-7.3,7.3l0.2,0.2c-1.4,1.2-2.8,2.2-4.3,3.3
		c3.8-0.1,7.2,5.1,7.2,5.1s-3.7-0.5-5.1,1c8.8,1.7,9.8,7.4,9.8,7.4s-3.4-0.7-6.5,0.3c8,0.7,9.6,6.7,9.6,6.7s-2.8-0.8-5.4,0.3
		c4.6,0.7,7.1,2.7,8.4,4.2l0.6,0.1l-0.1-0.2l19.3-0.5l-7.8-3.9l0,0l-0.6-0.3l70-2.7c0-0.1,0-0.3,0-0.4c0-0.2,0-0.3-0.1-0.5l-7.3-2.8
		L588.6,342.8z"/>
	<path fill="#656263" d="M515.5,218.7L515.5,218.7c0.6-0.4,1.9-0.9,3.1-2c-0.4-0.2-0.8-0.4-1.1-0.7c-1.1-0.9-1.2-0.9-3,0.3
		c-0.6,0.4-1.4,0.8-2.2,1.1c-0.2,0.7-0.5,1.4-0.8,1.8C513.5,219.2,514.9,219,515.5,218.7z"/>
	<path fill="#656263" d="M490.6,172.9C490.6,172.9,490.6,172.9,490.6,172.9C490.6,172.9,490.6,172.9,490.6,172.9l-15.5,10.4
		l-0.3-0.2c-0.2,0.3-1,1-1.9,1.5c0.1,0.7,0.5,1.4,1.2,2.1c0.7,0.7,1.2,1.9,1.2,2.7c0,0.2,0,0.4,0.1,0.7l-0.3-6.7L490.6,172.9z"/>
	<path fill="#656263" d="M440.9,222l2.7-0.1c7.5-0.6,29.7-1.9,33.7,5.3c1.3-2.7,4.2-4.4,7.3-5.4c4.8-1.6,11.1-2.1,16.8-2.3
		c-0.8-0.9-0.7-1.4,0.3-2.8c0.5-0.6,0.9-2.1,0.9-3.1c0-1.5,0.6-2.4,3.1-4.4c1.7-1.4,3.3-3,3.5-3.6c0.2-0.6,1.2-2.1,2.3-3.3
		c-0.1,0-0.1,0-0.2,0c-3.3,0.3-6.2,3-6.2,3l-10.7-6.8c0,0,0.8-4.9,2.1-11.1c0.7-7.8,2.9-11.5,2.7-11.9c0,0,0,0,0.1,0.1
		c0.4-1.4,0.8-2.7,1.2-3.9c-0.6,0.2-1.5,0.1-3.1-0.3c-3.2,5.7-7.4,15.4-6.6,25.6c-2.3-7.8-0.4-20.6-0.4-20.6l-2.4,1.6
		c0,0-2.6,11-5.8,12.6c-0.6-1.3-0.5-1.8-0.5-1.8s-3.4,4.5-4.1,5c0,0,0,0-0.1,0.1c0.1,0.3,0.1,0.6,0.1,0.9c0,1.1,0.3,1.7,0.9,1.7
		c1.3,0,3.6,3.1,3.4,4.6c-0.1,0.9-0.8,1.4-2.1,1.6c-1.7,0.3-1.9,0.5-1.7,2.4c0.1,1.1-0.1,2.3-0.4,3.4c0,0.2,0,0.2,0,0.2
		s1.2,10.6,2.5,10.5c-1.2,0.6-2.3,1.2-3.4,1.9l-0.5-10.4c0,0-0.1,0-0.1,0c-0.4,0-1.5-0.6-2.6-1.4c-1.4-1-2.9-1.4-5.2-1.4
		c-3.7,0-4.3-0.4-3.4-2.1c0.6-1.1,0.3-2.1-1.8-6c-1.4-2.6-3.5-5.9-4.7-7.3c-1.2-1.4-2.7-4-3.3-5.7c-0.5-1.7-0.9-2.4-1.4-2.8
		c0.2,0.9,0.3,1.8,0.5,2.8c1.7,7.1,2.6,13.2,2.6,13.2s-9.2,4.6-9.8,4c-0.5-0.6-3.3-1.1-4.7-0.9c-0.8,0.1-2.7,1-4.2,2.8
		c-0.1,0.2-0.2,0.3-0.3,0.5c-1,1.4-1.7,3.3-1.7,5.8C436.3,217.8,439.9,221.2,440.9,222z M444,211.9c3-2.4,6.3,6.2,8.6,9.4l-8,0.4
		C443.4,220.9,441.4,212.7,444,211.9z"/>
	<path fill="#656263" d="M483.4,179.6c-1.9,1.5-4,2-4,2s-0.5,7.1-2.1,8.1c-0.7,0.4-1.1,0.9-1.4,1.5c0.2,0.3,0.4,0.5,0.6,0.7
		c0,0,0,0,0.1,0.1l2.2-2.2C478.8,189.7,483.1,184.6,483.4,179.6z"/>
	<path fill="#656263" d="M493.3,165.4c-0.1,0-0.1,0-0.2,0c-0.8,0-1.7-1.7-1.5-2.9c0.2-1.5-0.2-2.2-1.7-2.8c-1.4-0.6-1.8-0.4-3.1,1.1
		c-1.2,1.6-1.5,1.6-3.1,0.9c-1.4-0.6-1.6-1.1-1.4-2.4c0.2-1.4-0.1-1.7-1.9-2.6c-0.3-0.1-0.5-0.2-0.8-0.3c0,0.1-0.1,0.2-0.1,0.2
		c-1.1,3.7-2.5,7.3-4.2,10.8l0.3-9.8c-0.7,0-1.6-0.5-3.8-1.6c-2.2-1.1-5.1-3-6.5-4.2c-0.3-0.3-0.6-0.5-0.8-0.7
		c-0.8,0.1-1.6,0.3-2.3,0.5c0.2,1.2,0.7,2.7,1.4,4.1l1.4,2.9l-1.4,0.9c-1.7,1.1-1.9,2.7-0.6,4.7l11.7,5.9l13.6-6l2.7,2.8l-15.2,10.7
		l-7.9-5c0.1,0.1,0.1,0.2,0.2,0.2c0.1,0.1,0.2,0.2,0.3,0.3l7.3,4.6C475.7,177.8,484.7,171.4,493.3,165.4z"/>
	<path fill="#656263" d="M463.4,150.4l-1.2,0.1c0,0.2,0,0.5,0,0.9c0.8-0.1,1.5-0.2,2.2-0.3C464,150.8,463.7,150.6,463.4,150.4z"/>
	<path fill="#656263" d="M440,156.7c0.9-0.5,2.3,0.1,2.3,0.1l0.1,0.1c0.1-0.6,0.1-1.2,0.1-1.8c0-0.9,0.1-1.6,0.1-2.2l-0.6,0.1
		C442,152.9,440.6,155,440,156.7z"/>
	<path fill="#656263" d="M440.3,160.1c0.2,0.5,0.6,1.2,1.2,1.9c0.1-0.2,0.1-0.4,0.2-0.7l-1-0.7C440.6,160.5,440.5,160.3,440.3,160.1
		z"/>
	<path d="M550.1,266c0.3,4.5,1.2,15,2.7,24.1c0.2-0.7,0.1-1.7-0.3-3c-0.4-1.2-0.5-2.9-0.2-3.7l0.4-1.6l5.4,0.4l5.4,0.4l1.9-2.2
		c1.7-2,2.4-2.3,6-2.7c2.2-0.2,4.4-0.6,4.9-0.9c1.4-0.9,0.1-1.7-2.7-1.7c-2.1,0-3.2-0.4-4.8-1.7c-1.1-0.9-2.8-2.1-3.7-2.4
		c-1.9-0.9-3.1-4.4-2.4-7.7c0.8-3.6-0.6-5-5-5c-3.2,0-3.8-0.2-4.9-1.6c-0.5-0.6-1-1-1.4-1.2C550.4,259.1,549.9,263,550.1,266z"/>
	<path d="M575.4,327.3c-7.9,4.3-13.7-0.9-13.7-0.9l0.8,3.4l-0.1-0.1l0.4,1.1l0.1,0l3.7,0.6c2.6,0.1,5.7,0.3,7.7,1
		c0.5,0.2,0.9,0.4,1.2,0.6l1.9,0.3c0,0,2.1,2.4,5.2,4.2c0,4.2,5.1,5,6.1,5.1c0.1,0,0.2,0,0.2,0l-0.3-3c0,0,3.4,1.4,5.8,2.5
		c-0.1-0.2-0.3-0.4-0.5-0.6c-0.8-1-1.6-2.2-2.1-3.2c-0.4-0.4-0.7-0.7-0.7-0.7l0.5,0.2c-0.1-0.3-0.2-0.5-0.3-0.7
		c-0.2-0.9-0.7-1.8-1.2-2c-0.2-0.1-0.4-0.2-0.5-0.4c-2,0.2-5.2-0.2-9.9-1.6v-0.1c0,0,8.4-1.9,10.7-4.9c0.4-0.3,1.3,0.5,1.9,1.7
		c0.3,0,0.7-0.1,1.1-0.1h1.3l-4.3-2.1c0,0,1.4-2.4,1.6-5.1c0.1-2.6-1.2-5-1.2-5s4.2-6.7,5.6-17.4c-0.5,0.3-1,0.7-1.4,1
		c-1.1,1-2.6,1.8-3.3,1.8c-0.7,0-2.2,1.1-3.6,2.4c-1.2,1.3-3.6,2.9-5.3,3.5c-3.1,1.2-3.2,1.2-3.9,6.7c-0.2,1.3-0.4,2.2-0.7,2.8
		C578.1,322.4,577.3,326.3,575.4,327.3z"/>
	<path d="M569.8,312.9c2.3-1.1,2.8-3.5,2.7-6c0,0-0.1-0.1-0.1-0.1l-2-2.6l-2.2,1.3c-3.1,1.8-6.2,1.6-8.4-0.4
		c-1.3-1.2-1.7-1.4-1.7-0.7c0,0.3-0.3,0.7-0.7,1C560.5,308.2,564.9,315.2,569.8,312.9z"/>
	<path fill="#FFBB00" d="M568.9,388.7c0,0-3-3.8-5.3-7.9c-0.9-1.6-1.8-3.3-2.4-5c4.4,1.5,8.2,1.2,11.2-0.1c1.8-0.9,3.4-2.1,4.7-3.4
		c2.4-2.8,3.1-6.3,1.5-8.6c-1.2-1.2-3.4-2.1-6.7-2.4c-12.9,1.3-23.3,11.2-31,23.2c6.6,3.2,12.9,7,19,11.4
		C565,390.4,568.9,388.7,568.9,388.7z"/>
	<path fill="#FFBB00" d="M538.7,447.1c0.1-0.5,0.2-1,0.2-1.6C538.5,446.2,538.5,446.7,538.7,447.1z"/>
	<path fill="#FFBB00" d="M525.9,430.8c0.7,0,1.5,0.6,2.4,1.4c3.3,1,6.2,4.2,6.2,7.1c0,2.1,0.1,2.2,2.2,1.9c1.4-0.2,2.3,0,3,0.6
		c1.1-6,2.4-11.4,4-16.2c0.4-1.4,0.9-2.9,1.3-4.3c0,0,0.1,0,0.1,0c1.1-3,2.3-5.8,3.5-8.3c-0.2-0.1-0.3-0.2-0.5-0.3
		c-2.7-1.4-4.1-1.9-5.5-1.6c-1.4,0.3-1.9,0.1-2.2-0.6c-0.4-1,0.2-1.7,1.9-2.4c0.4-0.1,0.3-0.6-0.1-1.1c-0.1-0.1-0.2-0.2-0.3-0.3
		c-3.2-2-6.4-3.7-9.7-5.3C526.5,415.1,524.3,427.7,525.9,430.8z"/>
	<path fill="#00713D" d="M489.4,366.9v-8.4c0,0,2.9,9.5,8.4,7.7c-0.8-2.7,0.3-5.8,0.3-5.8s3,5.9,8.2,4c0.9-1.8-0.2-5.3-0.2-5.3
		s7.6,8,10,3.2c1.2-2.4-0.4-4-2.2-5c-0.5-0.2-1-0.4-1.4-0.6c-1.4-0.5-2.6-0.8-2.6-0.8h0.8c0,0-0.1,0-0.1,0l0.8,0h4.3
		c0,0-0.3-0.8-1.2-1.8c-1.3-1.5-3.8-3.5-8.4-4.2c2.6-1.1,5.4-0.3,5.4-0.3s-1.6-6-9.6-6.7c3.1-1,6.5-0.3,6.5-0.3s-1-5.7-9.8-7.4
		c1.4-1.5,5.1-1,5.1-1s-3.4-5.2-7.2-5.1c-3,2.2-6.2,4.2-9.5,5.9l-0.1-0.1c-2.5,1.3-5.1,2.4-7.8,3.4c-2.2-0.7-4.3-1.6-6.3-2.5
		l-0.2,0.2c-4.2-1.9-8.2-4.2-11.9-6.9c0.5,0.7,1.2,1.6,2.4,2.8c1.9,2,3.4,4.2,3.4,4.8c0,1.5,2.4,5.4,3.7,6.2
		c0.6,0.4,1.8,0.6,2.7,0.6c1.9,0,3.9,2.2,4.5,4.9c0.3,1.6,0.2,2.1-0.7,2.4c-2.4,0.9-2.7,1.4-1.6,3.6c0.5,1.1,1.9,2.7,3.1,3.7
		c1.3,1.1,2.1,2.3,2.1,3.2c0,0.6,0.1,1.2,0.4,1.5c0.4-2.3,1-4.2,1-4.2S484.8,368.6,489.4,366.9z"/>
	<path fill="#FFFFFF" d="M511.2,219.7C511.1,219.8,511.1,219.8,511.2,219.7l-0.7,0l-2.6,0.1c2.5,0,4.8,0,6.8-0.2l-35.2,106.1
		l-6.6-17.6l-4.2,5.3l11.3,13.2l10.4-13.2l-4.7-5.5l6.3-18.4l8.7,10.1l10.7-13.4l-11.4-13.6l10.4-13.2l-6.2-7l6.9-20.6l-0.2-0.2
		l0.5-0.6L515,220v-0.1l5.2-0.2l-8.9,11.4l-0.3,0.8l11.1,12.8l-11.8,14.8l11.8,13.3l-10.8,13.5l9.3,11.2c1.4-3.6,2.6-7.4,3.4-11.2
		l-0.3-39.6c-1.3-2-1.3-4-0.1-6.9l-0.1-15.5c-0.2-0.8-0.2-1.6-0.1-2.8c0-0.1,0-0.2,0-0.2l0-2L511.2,219.7z M495.3,278.7l2.7-8
		l1.6,2.2L495.3,278.7z"/>
	<path fill="#FFFFFF" d="M468.5,313.5L457.8,301l-9,11.4c1.3,0.1,2.3,0.6,3.3,1.6c1.1,1.2,1.9,1.6,3.5,1.4c1.9-0.2,2-0.1,2.1,2.3
		c0.2,4.5,0.9,7.2,1.9,7.2c0,0,0,0,0,0L468.5,313.5z"/>
	<path fill="#FFFFFF" d="M446,287.1l-8.3-9.2c-0.5,1-1.8,1.4-3.8,1.3c-0.1,0-0.3,0-0.4,0l0.2,4.4c0.4,0.1,0.9,0.2,1.5,0.2
		c2,0.2,5.2,0.9,7,1.6l3.2,1.2l-0.1,1.5L446,287.1z"/>
	<path fill="#FFFFFF" d="M437.6,298.3c-0.1,0-0.1,0.1-0.2,0.1c1.4,3.6,3.1,7,5.1,10.3c0,0,0.1,0,0.1,0c-2-3.3-3.7-6.7-5.1-10.3
		L437.6,298.3z"/>
	<path fill="#FFFFFF" d="M445.6,260.8l-12.1-13.1l11-13.6l-0.4-1l-9.9-10.7l5.6-0.2l4.3,10.9l0.6,0.7l-0.2,0.3l7.3,18.7L445.6,260.8
		l11.1,12L446,287.1l11.9,13.2l7.9-10.4c-0.2-0.1-0.6-0.2-1.1-0.3c0,0,0.5-0.4,1-0.6l-3.7-9.8l-5.2-6.6l1.9-2.4L440.4,222l-9.5,0.2
		l-0.1,0l0.3,7.1c1.4,2.6,1.2,15.1,1,20.7l0.4,8.7l0.2,5.2l0.5,11.6c1,0,1.7,0.1,2.3,0.2l-1-1.1L445.6,260.8z"/>
	<path fill="#FFFFFF" d="M500.6,325.6c2.6-2.2,5.1-4.7,7.3-7.3c1.5-1.7,2.9-3.4,4.2-5.2l-11.5-12.8l-10.3,13.2L500.6,325.6z"/>
	<path fill="#FFFFFF" d="M477.3,228c1.4-5,8-6.9,15.5-7.6c-2.2,0.1-5.3,0.5-8.2,1.5c-3.1,1-5.9,2.7-7.3,5.4c0,0.1-0.1,0.2-0.1,0.3
		c-1.9-5.8-19.6-5.8-19.6-5.8l-14,0.3l-2.7,0.1l-0.2,0C448.8,222.5,472.9,219.1,477.3,228z"/>
	<path fill="#FFFFFF" d="M472.8,335.8c2.1,0.9,4.2,1.8,6.3,2.5c2.7-1,5.3-2.2,7.8-3.4l-7-8.1L472.8,335.8z"/>
	<path fill="#006B00" d="M464.6,269.5c0.2,0,0.4-0.1,0.6-0.1c0,0,0-0.1,0-0.1C464.9,269.3,464.7,269.4,464.6,269.5z"/>
	<path fill="#006B00" d="M468.3,268.1c0,0.1,0,0.1,0,0.2c0.3-0.2,0.5-0.4,0.7-0.6C468.8,267.9,468.5,268,468.3,268.1z"/>
	<path fill="#006B00" d="M477.3,228c-4.4-8.9-28.5-5.5-36.6-6c-0.1,0-0.2,0-0.3,0l0,0l18.2,48.3l0,0l1.2,3c0.1-0.7,0.4-1.5,0.8-1.9
		c0.6,0.3,0.7,0.8,1,1.4c-0.6,0.1-1.2,0.2-1.7,0.9l2.2,5.8l-0.2-0.2l3.7,9.8c0.3-0.1,0.7-0.1,0.9,0.2c0.5,0.8-0.5,0.8-0.5,0.8
		s0,0,0,0l6.9,18l-0.1,0.2l6.6,17.6l35.2-106.1c-1.9,0.1-4.2,0.1-6.8,0.2c-1.1,0-2.2,0-3.3,0c-1.5,0.7-1.9,0.7-2.6,0
		c-3,0.1-6.1,0.2-9,0.5C485.3,221.1,478.7,223,477.3,228z M458.4,238.7c0.2,0.5-1.6,1.6-1.6,2.2c-0.1,1.2,0.2,1.2,0.6,2.2
		c-1.7-0.4-2.3-1.6-2.4-3c-0.1-0.9,0.5-2.5,0.5-2.5l-0.6-2c-0.5,0.3-1.1,0.5-1.5,0.9c-0.5,0.5-0.9,1-1.5,1.2
		c-1.1,0.5-1.4-1.3-3.7,0.7v0.1c-0.3-1.1,0.1-2.3,1.1-3.3c0.4-0.5,2.4-0.7,2.8-1.2l1.3-1.5c-0.4-0.3-1.9,0-2.4-0.3
		c-1.4-0.9-0.7-2.1-1.2-2.4c-0.6-0.9-1.3-0.8-2.3-1.7c1.1-0.3,2.3-0.3,3.5-0.1c0.7,0.2,1.1,1.7,1.7,1.8c0.7,0.2,1.6,0,2.3,0.2
		c0.1-0.7-0.6-2.1-0.6-2.7c0.1-0.5,1.3-0.9,1.4-1.5c0.1-1.2,0.4-2.2,0.4-3.4c0.5,1.2,1.6,2.4,2,3.6c0.2,0.6-1,1.7-0.8,2.4l0.8,2
		c0.5-0.2,1.6-1.6,2.2-1.9c0.5-0.2,1.6-0.1,2.7,0.4c0.5,0.1,0.2-1,2.5-1.8c-0.9,1-0.7,2.2-1.6,3.2c-0.5,0.6-2.3,0.5-2.8,1
		s-0.4,1.2-0.8,1.7c0.4,0.4,1.6,0.8,2,1.2c0.5,0.3,0.5,1.9,1,2.2c0.2,0.1,0.3,0.2,0.5,0.3c1.1-0.9,2.3-1.7,2.8-2
		c0.2-1.5,2.2-1.6,2.2-4.2c2.8,0.3,0.6,4,3.2,4.5c1.1-2.5,1.9-1.1,3.3-2.2c0.4,1.9-1.7,3.1-0.4,4.8c2-0.6,1,1.3,1.9,2.8
		c0.5,2.3,6,1,4.1,2.1c-1.7,1.1,0.4,0.7-0.9,1s-6-1.4-6-1.4s0.1,2.3-3.2-0.3c-3.3-2.6-9.3-0.9-9.3-0.9v0c-0.6-0.8-0.2-1.8,0.6-2.7
		c-0.2,0-0.3-0.1-0.5-0.1c-0.9-0.4-0.9-1.5-1.5-1.8c-0.7-0.3-1.6,0-2.4-0.6C457.5,236.7,458.1,237.7,458.4,238.7z M462.8,274.8
		c-0.6-1,1.2-1.9,1.2-1.9l0,1.4C464,274.3,463.4,274.1,462.8,274.8z M477.8,310.3c-1.2-0.3-0.7-3.5-0.7-3.5v0.1c0,0,1,0.9,1.2,1
		C478,308.3,477.7,309.1,477.8,310.3z M503.5,228.8c0.7-0.2,1-1.7,1.7-1.8c1.2-0.3,2.4-0.3,3.6,0c-1,1-1.7,1-2.3,1.7
		c-0.5,0.4,0.1,1.6-1.3,2.5c-0.5,0.3-1.9,0-2.4,0.3l1.3,1.5c0,0,2.4,0.7,2.9,1.2c0.9,1,1.3,2.2,1,3.3l0-0.1c-2.3-2-2.5-0.2-3.7-0.7
		c-0.5-0.2-1-0.8-1.5-1.2c-0.4-0.5-0.9-0.7-1.5-0.9l-0.6,1.9c-0.2,0.6,0.6,1.7,0.6,2.6c-0.2,1.4-0.8,2.5-2.5,3c0.5-1,0.8-1,0.6-2.2
		c0-0.6-1.7-1.7-1.5-2.3c0.3-0.9,0.8-2,0.4-2.9c-0.7,0.5-1.6,0.3-2.4,0.6c-0.6,0.2-0.6,1.4-1.4,1.8c-0.6,0.2-1.5,0.3-2.5,0
		c0.6,0.8,0.9,1.5,0.9,1.5s2.3,0.9,3.8,2.5c-1.4,2.2-3.5,0.2-3.5,0.2s-4.2,1.2-0.6,1.2c2.8-0.2,2.7,2.1,2.7,2.1s-3.2-2.1-2.5-0.8
		c0.7,1.3,2.4,3.2,2.4,3.3c0,0.2-3,1.1-5.2-1.2c1.2,2.8-2.4,12.6-2.2,9.8c0.3-2.8-3-3.8-3-3.8s-0.2-0.9-0.3,5
		c-0.2,5.8,0.5,19,5.5,19c2.5-0.3,0-3,0.1-14.8c0.1-11.9,13.8-15.3,15.9-17v0c0.8,5.1-9.4,5.9-8.2,6.3c1.3,0.5,3.7-0.9,4.8,0
		c0,1.4-4.5,1.8-5.8,1.5c-1.2-0.3-2.2,0.8-3.7,2.4c6.3-4,7.6,2.6,7.6,2.6s-3-2.7-4.4-2.3c5.9,3.9,0.1,6.3,0,6.3c-0.2,0,2-5.2-2-4.6
		c-3.9,0.6-2.1,10-1.2,10.3c0.9,0.3,0.8-0.6,2.3-1.8c0.5,2.4-2.1,5-2.1,5c1.1-0.1,2.1-0.7,2.7-1.6c0.8,3-2.2,5-2.2,5l2.6-0.2
		c-0.1,1.7-5.3,5-5.3,5s2,0,0.1,1.7c-1.8,1.6-4.3-1.4-4.3-1.4s-3.9,4.2,0.1,5.8c4.1,1.4,3.2,4.1,2.7,5c-0.4,0.7-2.7-1.4-3.4-2.1
		c0,0.5-0.7,1.4-0.7,1.4l3.1,1c2.1,0.8,0.1,6.3,0.1,6.3s-3.5-3-2.1-1.6c1.5,1.3,0.1,6.7-0.5,6.7c-0.6,0-1.4-2.9-1.4-2.9
		s2.4-3.7,0-1.8c-2.4,2,0.5,3,0.3,4.2c-0.3,1.2-2.9,1.8-2.9,1.8l-0.1-1.3c0,0-2,6.2-2.5,5.2c-0.6-0.9-2.1-1.4-2.6-2.4
		c-0.4-0.9,0.6-1.9,1.6-2.2s1.5-2.4,1.5-2.4l-0.8,1.8c-0.2,0.3-2.7,1.5-2.8,2c-0.2,0.4-2.1,1.9-2,1.1c0,0.1,0,0.2-0.1,0.2
		c-0.6,0.8-1.4,0-2.3,0.8c-0.6-1.2,1.2-2.2,2.3-2c0.1,0.2,0.1,0.6,0.1,0.9c0,0,0,0,0,0c0.3-1.1,0.1-5.4,0.1-5.4s1.7-3,4.4-1.2
		c1.6-2,1.8-9.2,1.8-9.7c0,0.6-2.4,1.3-2.4,1.3s-0.3-6.2-0.4-2.5s-3.8,3.1-3.8,3.1s-0.3-6.5-0.3-2.7s-3.6,3.5-3.6,3.5
		s-0.1-2.1-0.3-1.7c-0.1,0.5-2.3,1.5-3.1,0.8s-0.3-2.3,0-2.7c0.2-0.3,1.3-0.5,2.3-0.7c-0.9,0-1.8-0.1-2.4-0.3
		c-0.2,0.2-0.4,0.4-0.6,0.5c-0.3,0-0.8-0.9-1.4-0.8c0,0,0.9-0.6,1.6-0.6c0.2-0.5,0.8-1.1,1.4-1.7c0,0,0,0,0.1-0.1
		c-0.3-0.2-0.6-0.3-0.6-0.3c1.1-0.6,1.6-0.5,1.8-0.1c0.2,0,0.4,0,0.5,0.1c0-0.2,0-0.6,0.1-1.1c0.5-1.7,2.6,1.3,3,1s3.7,0.1,3.7,0.1
		s-4.8-7.7-2.6-7.8s5.7-2.7,6.5-2.8c0.9-0.2,1,1.5,1.6,2.5c1.2-1.8-1.4-4.3-2-4.8c-0.6-0.4,0.7-2.7,0.3-2.1
		c-0.4,0.6-2.2,0.8-2.2,0.8s0-0.6-0.2-1.5c-0.8,2.2-4.4,4.2-3.8,3.5c0.5-0.6,0.1-1.2-0.3-2.1c-0.2,1.9-1.8,3.8-3.9,4
		c-0.4-0.9-1.1-1.2-1.8-1.2c-0.3,4.3-0.6,7.5-1.1,7.2h-0.1c-0.7,0.2-1.1-2.4-1.5-6.2c-0.5,0.3-0.8,0.5-0.7,0.3
		c0.2-0.6-0.6-1.6-1-2.3c0,0,0-0.1,0-0.1c-0.4,0.3,0,0.5-0.6,0.9c-1,0.6-0.8,0.8-2-1.5c-1-2.2,4.3-3.6,3-3.4c-0.6,0-1.1-0.3-1.3-0.8
		c-0.7,0.2-0.5,1-0.4,1.5c-0.5-0.4-0.9-0.8-1.9-1c0.6-1.2,2.2-0.5,2.3-0.5c-0.2-0.5-0.1-1.2,0.4-1.8c0.3-0.4,0.9-0.3,1.5-0.1
		c-0.3-2.8-0.6-5.7-1-8.3c0,0.1,0,0.1,0,0.2c-1.5,0.3-2.9-1.5-2.3-2.3c0.3-0.4,1.6,0,2.1,0.9c-0.2-0.9-0.4-1.8-0.6-2.6
		c-1.4,0.1-2.2-0.9-1.6-1.6c0.2-0.2,0.6-0.3,0.9-0.2c-0.2-0.4-0.4-0.8-0.6-1.1c-0.7-1.8-1.3-3.6-1.8-5.4c2.7-2.5,10.3-2.7,12,0.3
		l-1.5,6c-1,0.5-1.5,8.1-1.9,15.5c2.8-1.7,6.9-6.1,11.2-9.4c-1.7-0.7-4.5,1.9-6,2.9c-1.6,0.9-4.4-1.9-4.4-1.9l1.4-6.5l4.2,1.5
		c0.2,0,0.3,2.2,0.7,1.2c0.5-1,4.8-3,4.8-3s-1.2-0.6-3.2-0.5c0.9-2.5,4.8-2.4,4.8-2.4l-2-2.1c0,0,0.4-1.5,1.7-0.7
		c1.4,1.6,3.5,2.1,3.6-0.6c0.2-2.7-3.6-1-3.6-1s-1.3-3.4,1.1-5c-1.4-0.5-1.4-0.6-0.7-2c3.5,0.3,3.1-1.8,6.2-1c1,0.3,2,1.1,2.8,1.9
		c0.6-0.1,1.1-0.1,1.7-0.6c0.5-0.3,0.5-1.9,1-2.3c0.5-0.4,1.6-0.7,2.1-1c-0.4-0.6-0.4-1.4-0.8-1.9c-0.4-0.5-2.4-0.4-2.8-0.9
		c-0.9-1-0.7-2.3-1.6-3.3c2.2,0.9,2,2,2.5,1.9c1-0.5,2.1-0.6,2.7-0.4c0.5,0.2,1.6,1.6,2.2,1.9l0.7-2c0.2-0.7-1-1.8-0.7-2.4
		c0.4-1.3,1.4-2.4,1.9-3.6l0.5,3.4c0,0.6,1.2,1,1.3,1.5c0,0.6-0.6,2-0.5,2.6L503.5,228.8z M474.4,301.6c-0.4-0.3-0.7-0.1-1.8,0
		c0.2-1.2,1.9-1,1.9-1c0,0,0,0,0,0v0.1c0,0,0,0,0,0C474.4,300.8,474.5,301.3,474.4,301.6z"/>
	<path fill="#FFC900" d="M466.9,278.2L466.9,278.2c0.6,0.3,0.9-2.9,1.2-7.2c-0.9,0.1-2,0.6-2.7,1
		C465.8,275.8,466.2,278.4,466.9,278.2z"/>
	<path fill="#FFC900" d="M465.9,269c-0.3,0.1-0.5,0.2-0.7,0.2c0,0,0,0.1,0,0.1c0.5-0.1,1-0.2,1.6-0.3c0.6-0.1,1.1-0.4,1.4-0.6
		c0-0.1,0-0.1,0-0.2C467.7,268.4,467,268.7,465.9,269z"/>
	<path fill="#FFC900" d="M468.5,264.6c0.4-7.4,0.9-15,1.9-15.5l1.5-6c-1.7-3-9.3-2.8-12-0.3c0.5,1.8,1.1,3.6,1.8,5.4
		c0.2,0.3,0.4,0.7,0.6,1.1c0.5,0.2,1.1,0.7,0.8,1.8c-0.1,0-0.1,0-0.2,0c0.2,0.8,0.4,1.7,0.6,2.6c0.2,0.3,0.3,0.7,0.2,1.2
		c0.4,2.5,0.7,5.4,1,8.3c1,0.5,2.1,1.5,2.5,2C467.6,265.1,468,264.9,468.5,264.6z M463.1,251.5c0.6-0.1,0.4-0.6,0.5-1
		c0,0,0.9,0.9,1.1,2C463.4,253,463.1,251.5,463.1,251.5z M464,255.8c0.4-0.1,0.4-1.3,0.4-1.3s1.1,0.6,1.7,0.4
		C464.6,256.6,464,255.8,464,255.8z"/>
	<path fill="#FFC900" d="M460.3,236.3c0.6,0.3,0.6,1.4,1.5,1.8c0.1,0.1,0.3,0.1,0.5,0.1c0.5-0.5,1-1.1,1.6-1.5
		c-0.2-0.1-0.3-0.2-0.5-0.3c-0.5-0.3-0.5-1.9-1-2.2c-0.4-0.4-1.6-0.8-2-1.2c0.4-0.5,0.3-1.2,0.8-1.7s2.3-0.4,2.8-1
		c0.9-1,0.7-2.2,1.6-3.2c-2.3,0.8-2,1.9-2.5,1.8c-1.1-0.5-2.2-0.6-2.7-0.4c-0.6,0.3-1.7,1.7-2.2,1.9l-0.8-2c-0.2-0.7,1-1.8,0.8-2.4
		c-0.4-1.2-1.5-2.4-2-3.6c0,1.2-0.3,2.2-0.4,3.4c-0.1,0.6-1.3,1-1.4,1.5c0,0.6,0.7,2,0.6,2.7c-0.7-0.2-1.6,0-2.3-0.2
		c-0.6-0.1-1-1.6-1.7-1.8c-1.2-0.2-2.4-0.2-3.5,0.1c1,0.9,1.7,0.8,2.3,1.7c0.5,0.3-0.2,1.5,1.2,2.4c0.5,0.3,2,0,2.4,0.3l-1.3,1.5
		c-0.4,0.5-2.4,0.7-2.8,1.2c-1,1-1.4,2.2-1.1,3.3v-0.1c2.3-2,2.6-0.2,3.7-0.7c0.6-0.2,1-0.7,1.5-1.2c0.4-0.4,1-0.6,1.5-0.9l0.6,2
		c0,0-0.6,1.6-0.5,2.5c0.1,1.4,0.7,2.6,2.4,3c-0.4-1-0.7-1-0.6-2.2c0-0.6,1.8-1.7,1.6-2.2c-0.3-1-0.9-2-0.5-3
		C458.7,236.3,459.6,236,460.3,236.3z"/>
	<path fill="#FFC900" d="M501.8,226.3c-0.1-0.5-1.3-0.9-1.3-1.5l-0.5-3.4c-0.5,1.2-1.5,2.3-1.9,3.6c-0.3,0.6,0.9,1.7,0.7,2.4l-0.7,2
		c-0.6-0.3-1.7-1.7-2.2-1.9c-0.6-0.2-1.7-0.1-2.7,0.4c-0.5,0.1-0.3-1-2.5-1.9c0.9,1,0.7,2.3,1.6,3.3c0.4,0.5,2.4,0.4,2.8,0.9
		c0.4,0.5,0.4,1.3,0.8,1.9c-0.5,0.3-1.6,0.6-2.1,1c-0.5,0.4-0.5,2-1,2.3c-0.6,0.5-1.1,0.5-1.7,0.6c0.3,0.4,0.6,0.8,0.9,1.1
		c1,0.2,1.9,0.2,2.5,0c0.8-0.4,0.8-1.6,1.4-1.8c0.8-0.3,1.7-0.1,2.4-0.6c0.4,0.9-0.1,2-0.4,2.9c-0.2,0.6,1.5,1.7,1.5,2.3
		c0.2,1.2-0.1,1.2-0.6,2.2c1.7-0.5,2.3-1.6,2.5-3c0-0.9-0.8-2-0.6-2.6l0.6-1.9c0.6,0.2,1.1,0.4,1.5,0.9c0.5,0.4,1,1,1.5,1.2
		c1.2,0.5,1.4-1.3,3.7,0.7l0,0.1c0.3-1.1-0.1-2.3-1-3.3c-0.5-0.5-2.9-1.2-2.9-1.2l-1.3-1.5c0.5-0.3,1.9,0,2.4-0.3
		c1.4-0.9,0.8-2.1,1.3-2.5c0.6-0.7,1.3-0.7,2.3-1.7c-1.2-0.3-2.4-0.3-3.6,0c-0.7,0.1-1,1.6-1.7,1.8l-2.2,0.1
		C501.2,228.3,501.8,226.9,501.8,226.3z"/>
	<path fill="#FFC900" d="M488.3,234.1c-3.1-0.8-2.7,1.3-6.2,1c-0.7,1.4-0.7,1.5,0.7,2c-2.4,1.6-1.1,5-1.1,5s3.8-1.7,3.6,1
		c-0.1,2.7-2.2,2.2-3.6,0.6c-1.3-0.8-1.7,0.7-1.7,0.7l2,2.1c0,0-3.9-0.1-4.8,2.4c2-0.1,3.2,0.5,3.2,0.5s-4.3,2-4.8,3
		c-0.4,1-0.5-1.2-0.7-1.2l-4.2-1.5l-1.4,6.5c0,0,2.8,2.8,4.4,1.9c1.5-1,4.3-3.6,6-2.9c-4.3,3.3-8.4,7.7-11.2,9.4
		c-0.5,0.3-0.9,0.5-1.3,0.6c-0.4-0.4-1.5-1.5-2.5-2c-0.6-0.3-1.1-0.4-1.5,0.1c-0.5,0.6-0.6,1.3-0.4,1.8c0,0,0,0,0,0c0,0,0,0,0,0
		c0.2,0.5,0.7,0.8,1.3,0.8c1.3-0.2-4,1.2-3,3.4c1.2,2.3,1,2.1,2,1.5c0.6-0.4,0.2-0.5,0.6-0.9c0,0,0,0.1,0,0.1c0.4,0.7,1.2,1.7,1,2.3
		c-0.1,0.2,0.2,0,0.7-0.3c0.7-0.4,1.7-0.9,2.7-1c0.8,0,1.4,0.2,1.8,1.2c2.2-0.1,3.8-2.1,3.9-4c0.4,0.9,0.8,1.4,0.3,2.1
		c-0.6,0.7,3-1.3,3.8-3.5c0.2,0.9,0.2,1.5,0.2,1.5s1.8-0.2,2.2-0.8c0.4-0.6-0.9,1.7-0.3,2.1c0.6,0.5,3.2,3,2,4.8
		c-0.6-1-0.7-2.7-1.6-2.5c-0.8,0.1-4.3,2.7-6.5,2.8s2.6,7.8,2.6,7.8s-3.3-0.4-3.7-0.1s-2.5-2.7-3-1c-0.1,0.5-0.2,0.9-0.1,1.1
		c-0.2,0-0.3-0.1-0.5-0.1c0.3,0.5,0,1.4-0.5,1.6c-0.2-0.5-0.5-0.9-0.8-1.2c0,0,0,0-0.1,0.1c-0.6,0.6-1.2,1.2-1.4,1.7
		c0.4,0,0.7,0.1,0.7,0.5c-0.1,0.2-0.3,0.3-0.4,0.4c0.5,0.2,1.5,0.3,2.4,0.3c-1,0.2-2.1,0.4-2.3,0.7c-0.3,0.4-0.8,2,0,2.7
		s3-0.3,3.1-0.8c0.2-0.4,0.3,1.7,0.3,1.7s3.6,0.3,3.6-3.5s0.3,2.7,0.3,2.7s3.7,0.6,3.8-3.1s0.4,2.5,0.4,2.5s2.4-0.7,2.4-1.3
		c0,0.5-0.2,7.6-1.8,9.7c-2.7-1.8-4.4,1.2-4.4,1.2s0.2,4.3-0.1,5.4c0,0,0,0,0,0c0,0,0,0,0,0.1c-0.1,0.8,1.8-0.7,2-1.1
		c0.1-0.5,2.6-1.7,2.8-2l0.8-1.8c0,0-0.5,2.1-1.5,2.4s-2,1.3-1.6,2.2c0.5,1,2,1.5,2.6,2.4c0.5,1,2.5-5.2,2.5-5.2l0.1,1.3
		c0,0,2.6-0.6,2.9-1.8c0.2-1.2-2.7-2.2-0.3-4.2c2.4-1.9,0,1.8,0,1.8s0.8,2.9,1.4,2.9c0.6,0,2-5.4,0.5-6.7c-1.4-1.4,2.1,1.6,2.1,1.6
		s2-5.5-0.1-6.3l-3.1-1c0,0,0.7-1,0.7-1.4c0.6,0.8,3,2.9,3.4,2.1c0.5-0.9,1.4-3.6-2.7-5c-4-1.6-0.1-5.8-0.1-5.8s2.5,3,4.3,1.4
		c1.9-1.7-0.1-1.7-0.1-1.7s5.2-3.3,5.3-5l-2.6,0.2c0,0,3-2,2.2-5c-0.6,0.9-1.6,1.5-2.7,1.6c0,0,2.6-2.6,2.1-5
		c-1.5,1.2-1.4,2.1-2.3,1.8c-0.9-0.3-2.7-9.7,1.2-10.3c4-0.6,1.8,4.6,2,4.6c0.1,0,5.9-2.4,0-6.3c1.4-0.4,4.4,2.3,4.4,2.3
		s-1.3-6.6-7.6-2.6c1.5-1.6,2.5-2.7,3.7-2.4c1.3,0.3,5.8-0.1,5.8-1.5c-1.1-0.9-3.5,0.5-4.8,0c-1.2-0.4,9-1.2,8.2-6.3v0
		c-2.1,1.7-15.8,5.1-15.9,17c-0.1,11.8,2.4,14.5-0.1,14.8c-5,0-5.7-13.2-5.5-19c0.1-5.9,0.3-5,0.3-5s3.3,1,3,3.8
		c-0.2,2.8,3.4-7,2.2-9.8c2.2,2.3,5.2,1.4,5.2,1.2c0-0.1-1.7-2-2.4-3.3c-0.7-1.3,2.5,0.8,2.5,0.8s0.1-2.3-2.7-2.1
		c-3.6,0,0.6-1.2,0.6-1.2s2.1,2,3.5-0.2c-1.5-1.6-3.8-2.5-3.8-2.5s-0.3-0.7-0.9-1.5c-0.3-0.4-0.6-0.7-0.9-1.1
		C490.3,235.2,489.3,234.4,488.3,234.1z M468.2,268.4c-0.4,0.3-0.8,0.5-1.4,0.6c-0.6,0.1-1.1,0.3-1.6,0.3c-0.2,0-0.4,0.1-0.6,0.1
		c0.2-0.1,0.4-0.1,0.6-0.2c0.2-0.1,0.4-0.1,0.7-0.2c1.1-0.3,1.8-0.6,2.4-0.9c0.3-0.1,0.5-0.3,0.7-0.4
		C468.7,267.9,468.5,268.1,468.2,268.4z M475,301.9l4.1-2.3C479.2,299.6,477.3,301.8,475,301.9z M491.6,238.9c-1.7-1-2.7-0.9-3.4,0
		c-1.1,1.9,1.2,3.3,0.9,4.2c-0.4,1-1,1.9-1.8,2.7c-0.6,0.6-3.6,1.8-3.6,1.8c0.7-0.2,4.2-3.6,4.2-4.2c0.2-0.6-2.2-3.1-2.1-3.9
		c0.2-0.7-1.9-1.9-1.2-1.9s0.1-1.5,0.5-1.2c0.5,0.3,1.6-1.2,3.3-1C490.1,235.6,493.3,239.9,491.6,238.9z"/>
	<path fill="#E80000" d="M479.2,299.6l-4.1,2.3C477.3,301.8,479.2,299.6,479.2,299.6z"/>
	<path fill="#006B00" d="M488.4,235.4c-1.7-0.2-2.8,1.3-3.3,1c-0.4-0.3,0.2,1.2-0.5,1.2s1.4,1.2,1.2,1.9c-0.1,0.8,2.3,3.3,2.1,3.9
		c0,0.6-3.5,4-4.2,4.2c0,0,3-1.2,3.6-1.8c0.8-0.8,1.4-1.7,1.8-2.7c0.3-0.9-2-2.3-0.9-4.2c0.7-0.9,1.7-1,3.4,0
		C493.3,239.9,490.1,235.6,488.4,235.4z M487.3,239.9c-0.5-0.3-0.9-0.7-1.2-1.3C487.4,238.3,487.5,238.7,487.3,239.9z"/>
	<path fill="#FFC900" d="M486.1,238.7c0.3,0.5,0.7,1,1.2,1.3C487.5,238.7,487.4,238.3,486.1,238.7z"/>
	<path fill="#E80000" d="M477.1,306.8c0,0-0.5,3.2,0.7,3.5c0-1.3,0.2-2.1,0.6-2.4C478,307.8,477.1,306.9,477.1,306.8L477.1,306.8z"
		/>
	<path fill="#E80000" d="M474.4,300.6C474.4,300.6,474.4,300.6,474.4,300.6C474.4,300.6,474.4,300.7,474.4,300.6L474.4,300.6z"/>
	<path fill="#E80000" d="M472.6,301.6c1.1-0.1,1.5-0.3,1.8,0c0.1-0.3,0-0.8,0-1C474.4,300.6,472.8,300.4,472.6,301.6z"/>
	<path fill="#E80000" d="M474.4,302.9c-1.1-0.2-2.9,0.8-2.3,2c0.8-0.9,1.7,0,2.3-0.8c0,0,0.1-0.1,0.1-0.2c0,0,0,0,0-0.1
		C474.5,303.5,474.5,303.1,474.4,302.9z"/>
	<path fill="#E80000" d="M465.8,290l0.1-0.2v0h0l0,0l0.1,0.2c0,0,0,0,0,0s0.9,0,0.5-0.8c-0.2-0.3-0.5-0.3-0.9-0.2
		c-0.5,0.2-1,0.6-1,0.6C465.2,289.8,465.6,289.9,465.8,290z"/>
	<path fill="#E80000" d="M462.8,274.8c0.6-0.7,1.2-0.5,1.2-0.5l0-1.4C464,272.8,462.2,273.8,462.8,274.8z"/>
	<path fill="#E80000" d="M461.6,272.8c-0.3-0.6-0.5-1.1-1-1.4c-0.5,0.5-0.7,1.3-0.8,1.9l0.2,0.4C460.4,273,461,273,461.6,272.8z"/>
	<path fill="#E80000" d="M468.6,284.1c0.4-0.3,0.8-1.2,0.5-1.6c-0.2-0.4-0.7-0.5-1.8,0.1c0,0,0.3,0.1,0.6,0.3
		C468.2,283.2,468.5,283.6,468.6,284.1z"/>
	<path fill="#E80000" d="M466.4,284.7c-0.7,0.1-1.5,0.6-1.6,0.6c0.6-0.1,1.1,0.8,1.4,0.8c0.2-0.1,0.4-0.2,0.6-0.5
		c0.1-0.1,0.2-0.3,0.4-0.4C467.1,284.7,466.8,284.6,466.4,284.7z"/>
	<path fill="#E80000" d="M462.8,265.1c-0.1,0-1.7-0.7-2.3,0.5c1.1,0.2,1.4,0.6,1.9,1C462.3,266.1,462.1,265.3,462.8,265.1
		C462.8,265.1,462.8,265.1,462.8,265.1C462.8,265.1,462.8,265.1,462.8,265.1z"/>
	<path fill="#FFC900" d="M463.5,253.8c-0.5-0.9-1.8-1.3-2.1-0.9c-0.6,0.8,0.8,2.5,2.3,2.3c0-0.1,0-0.1,0-0.2
		C463.8,254.5,463.7,254.1,463.5,253.8z"/>
	<path fill="#E80000" d="M464.3,254.5c0,0,0,1.2-0.4,1.3c0,0,0.7,0.8,2.1-0.9C465.4,255,464.3,254.5,464.3,254.5z"/>
	<path fill="#E80000" d="M464.6,252.5c-0.2-1.1-1.1-2-1.1-2c0,0.4,0.2,0.9-0.5,1C463.1,251.5,463.4,253,464.6,252.5z"/>
	<path fill="#FFC900" d="M462.3,249.3c-0.4-0.1-0.8,0-0.9,0.2c-0.6,0.7,0.2,1.7,1.6,1.6c0.1,0,0.1,0,0.2,0
		C463.3,250.1,462.8,249.5,462.3,249.3z"/>
	<path fill="#006B00" d="M462.3,238.2c-0.8,0.9-1.2,1.9-0.6,2.7v0c0,0,6-1.7,9.3,0.9c3.3,2.6,3.2,0.3,3.2,0.3s4.7,1.7,6,1.4
		s-0.9,0.1,0.9-1c1.9-1-3.6,0.3-4.1-2.1c-0.9-1.5,0.1-3.4-1.9-2.8c-1.3-1.7,0.9-2.9,0.4-4.8c-1.4,1-2.2-0.3-3.3,2.2
		c-2.6-0.5-0.3-4.1-3.2-4.5c0,2.6-2.1,2.8-2.2,4.2c-0.5,0.4-1.7,1.1-2.8,2c0.8,0.3,1.4,0.1,2.2,0.7
		C464.8,238.2,463.3,238.4,462.3,238.2z"/>
	
		<linearGradient id="SVGID_1_" gradientUnits="userSpaceOnUse" x1="110.3663" y1="265.0269" x2="110.4663" y2="244.2268" gradientTransform="matrix(1.0578 0 0 -0.688 354.5588 411.828)">
		<stop  offset="0" style="stop-color:#B50000"/>
		<stop  offset="1" style="stop-color:#FFC500"/>
	</linearGradient>
	<path fill="url(#SVGID_1_)" d="M462.3,238.2c-0.8,0.9-1.2,1.9-0.6,2.7v0c0,0,6-1.7,9.3,0.9c3.3,2.6,3.2,0.3,3.2,0.3s4.7,1.7,6,1.4
		s-0.9,0.1,0.9-1c1.9-1-3.6,0.3-4.1-2.1c-0.9-1.5,0.1-3.4-1.9-2.8c-1.3-1.7,0.9-2.9,0.4-4.8c-1.4,1-2.2-0.3-3.3,2.2
		c-2.6-0.5-0.3-4.1-3.2-4.5c0,2.6-2.1,2.8-2.2,4.2c-0.5,0.4-1.7,1.1-2.8,2c0.8,0.3,1.4,0.1,2.2,0.7
		C464.8,238.2,463.3,238.4,462.3,238.2z"/>
	<path fill="#FFC900" d="M462.3,238.2c1,0.2,2.6-0.1,3.8-0.8c-0.8-0.6-1.4-0.3-2.2-0.7C463.3,237.2,462.7,237.7,462.3,238.2z"/>
	
		<linearGradient id="SVGID_2_" gradientUnits="userSpaceOnUse" x1="103.5752" y1="264.9942" x2="103.6752" y2="244.1942" gradientTransform="matrix(1.0578 0 0 -0.688 354.5588 411.828)">
		<stop  offset="0" style="stop-color:#B50000"/>
		<stop  offset="1" style="stop-color:#FFC500"/>
	</linearGradient>
	<path fill="url(#SVGID_2_)" d="M462.3,238.2c1,0.2,2.6-0.1,3.8-0.8c-0.8-0.6-1.4-0.3-2.2-0.7C463.3,237.2,462.7,237.7,462.3,238.2z
		"/>
	<path fill="#C01500" d="M558.3,419c-3-0.7-11.6,1.8-13.3,2.2c0,0-0.1,0-0.1,0c-0.5,1.4-0.9,2.9-1.3,4.3c-1.6,5.4-2.8,10.9-3.7,16.4
		c0.9,1,0.8,1.2-0.3,2.8c0,0-0.1,0.1-0.1,0.1c-0.1,0.9-0.2,1.7-0.3,2.6c0.2,0.2,0.4,0.4,0.7,0.5c0.5-0.5,1.1-1,1.7-1.4
		c0.3-1,1.6-1.8,2.8-2c5.4-3.4,12.4-6.1,18.2-7.7c-1.7-0.3-2.2-1.8-0.8-2.8c0.9-0.7,1.6-0.6,4,0.3c3,1.2,5,0.9,5.9-0.9
		c-1.2-1.8-2.7-3.7-4.3-5.5c-1.1-0.2-2.6-0.2-5.2,0l-5.5,0.2l-1.6-2.2c-0.9-1.2-1.4-2.5-1.1-2.8s2.5,0.1,5,0.8
		c3.1,0.9,4.5,1.1,5.4,0.7c0,0-0.1-0.1-0.1-0.1C562.1,422.6,560.2,420.8,558.3,419z"/>
	<path fill="#C01500" d="M577.1,372.3c-1.2,1.4-2.8,2.6-4.7,3.4c-3,1.3-6.8,1.6-11.2,0.1c0.6,1.8,1.5,3.5,2.4,5
		c2.4,4.2,5.3,7.4,5.3,7.4s9.6,8.6,16.3,8.3c6.7-2,7.2-5,7.2-7.2c0-2.2-2.2-5.9-4.7-8.4c-2.5-2.4-4.3-8.6-6-12.8
		c-1.2-2.4-1.7-4.4-3.2-4.7v0.1c0,0.1,0.1,0.1,0.1,0.2C580.2,366,579.5,369.5,577.1,372.3z"/>
	<path fill="#FFBB00" d="M571.6,433.1c0.2-0.7,1.2-1.5,2.2-1.9c0.4-0.2,0.8-0.3,1.1-0.5c0.2-0.3,0.5-0.5,0.7-0.7
		c0-0.4-0.7-0.5-2-0.3c-1.4,0.2-2.6,0-4-0.9c-0.7-0.4-1.4-0.7-2.3-0.9C568.7,429.6,570.1,431.3,571.6,433.1
		C571.6,433.1,571.6,433.1,571.6,433.1z"/>
	<path fill="#FFBB00" d="M559.8,395.8c-6.1-4.4-12.4-8.2-19-11.4c-17.5-8.5-36.4-12.8-55.2-13.2c0.1,0.1,0.2,0.2,0.3,0.3
		c1.7,1.9,1.9,2.4,1.5,5.2c-0.2,1.7-0.8,3.6-1.4,4.2c-1.2,1.4-0.6,2.4,1.7,2.4c2.3,0,2.8,1.6,1.3,3.9l-1.2,1.9l1.2,1.4
		c14.6,0.6,29.3,4,43.1,10.7c3.3,1.6,6.5,3.3,9.7,5.3c-0.9-1.2-0.6-2.7,0.9-3c1.5-0.4,7.5,2.4,12.3,5.7c4.7,3.3,6.7,4.1,8,3.4
		c2.8-1.4,6-0.3,4.4,1.6c-1.1,1.3,0.1,2.5,4.9,5c2.2,1.2,5,2.7,6,3.4c1.1,0.7,2.8,1.2,4.4,1.3c2.2-1.4,3.6-2,3.6-2
		C578.5,411.5,569.6,402.9,559.8,395.8z"/>
	<path fill="#FFBB00" d="M564,424.5c0,0,0.1,0.1,0.1,0.1c0.1,0,0.2-0.1,0.3-0.1c1.8-1,1.6-1.7-1.2-3.1c-1.4-0.7-2.7-1.6-3-2
		c-0.9-1.4-3.9-3.3-5.6-3.6c1.3,1,2.5,2.1,3.7,3.2C560.2,420.8,562.1,422.6,564,424.5z"/>
	<polygon fill="#1E5AA6" points="510.8,231.7 511,231.9 511.3,231.1 	"/>
	<path fill="#1E5AA6" d="M457.8,301l-0.2-0.2l0.3-0.4L446,287.1l-0.7,0.9l-0.2,4.1l-0.2,5.6l-3.4,0.1c-2,0-3.2,0.1-3.9,0.5l-0.1,0.2
		c1.4,3.6,3.1,7,5.1,10.3c0.7,0.3,1.3,0.5,1.5,0.5c0.4,0,1.1,0.7,1.4,1.6c0.6,1.2,1.2,1.6,2.9,1.6c0.1,0,0.3,0,0.4,0L457.8,301z"/>
	<polygon fill="#1E5AA6" points="515,219.9 515,220 511.3,231.1 520.2,219.7 	"/>
	<polygon fill="#1E5AA6" points="444.1,233.1 444.5,234.1 444.7,233.8 	"/>
	<polygon fill="#1E5AA6" points="451.8,252.8 444.5,234.1 433.5,247.7 445.6,260.8 	"/>
	<polygon fill="#1E5AA6" points="434.2,222.4 444.1,233.1 439.8,222.2 	"/>
	<polygon fill="#1E5AA6" points="510.3,259.5 499.9,272.7 511.3,286.3 522.1,272.8 	"/>
	<path fill="#1E5AA6" d="M500.6,300.3l11.5,12.8l0.2,0.2c3.6-4.7,6.2-9.8,8.6-15.4l-0.3-0.4l-9.3-11.2l-10.7,13.4l0.3,0.3
		L500.6,300.3z"/>
	<polygon fill="#1E5AA6" points="511,231.9 504.1,252.5 510.3,259.5 522.1,244.7 	"/>
	<path fill="#1E5AA6" d="M446,287.1l10.7-14.3l-11.1-12l-10.9,13.8l1,1.1c1.9,0.2,2.2,0.5,2.2,1.2c0,0.4-0.1,0.7-0.2,1L446,287.1z"
		/>
	<path fill="#1E5AA6" d="M472.6,336l0.2-0.2l7.1-9.1l-11.3-13.2l-9,11.3c0.7,0,0.8,0.4,0.5,1.7c-0.2,0.9-0.1,1.5,0.6,2.6
		C464.4,331.8,468.4,334.1,472.6,336z"/>
	<polygon fill="#1E5AA6" points="461.9,279.3 462.1,279.5 459.9,273.7 459.8,273.3 458.6,270.3 458.6,270.3 456.7,272.7 	"/>
	<polygon fill="#1E5AA6" points="495.3,278.7 499.6,272.9 498,270.7 	"/>
	<path fill="#1E5AA6" d="M486.9,334.9l0.1,0.1c3.3-1.7,6.5-3.7,9.5-5.9c1.5-1.1,2.9-2.1,4.3-3.3l-0.2-0.2l-10.4-12.1l-10.4,13.2
		L486.9,334.9z"/>
	<polygon fill="#1E5AA6" points="465.9,289.8 465.9,289.8 465.9,289.8 	"/>
	<polygon fill="#1E5AA6" points="465.8,290 457.9,300.4 457.6,300.8 457.8,301 468.5,313.5 472.8,308.2 472.9,308 466,290 
		465.9,289.8 	"/>
	<polygon fill="#1E5AA6" points="500.8,300 500.5,299.7 491.8,289.6 485.5,308 490.2,313.5 500.6,300.3 	"/>
	<path fill="#000066" d="M547.1,310.9c1.7,4.9,9.5,15.9,9.5,15.9l4.8,2.5l0.9,0.1l-7.7-23c-1.4,0.2-2.8,0.2-3.7-0.3
		c-2.4-1.2-4.1-4.9-4.2-9.4c-0.1-3.5,0.7-5,2.9-5.4l-3.1-9.3l1.3-27.4c-1.2-0.8-1.5-0.8-2.8,0.2c-0.1,8.9-0.5,21.6-0.9,24.7
		C543.3,284.2,545.3,306,547.1,310.9z"/>
	
		<linearGradient id="SVGID_3_" gradientUnits="userSpaceOnUse" x1="82.1536" y1="220.3449" x2="130.6536" y2="222.4449" gradientTransform="matrix(0.4816 0 0 -1.5136 529.7236 623.1816)">
		<stop  offset="0" style="stop-color:#D5DFFF"/>
		<stop  offset="1" style="stop-color:#FFFFFF"/>
	</linearGradient>
	<path fill="url(#SVGID_3_)" d="M547.1,310.9c1.7,4.9,9.5,15.9,9.5,15.9l4.8,2.5l0.9,0.1l-7.7-23c-1.4,0.2-2.8,0.2-3.7-0.3
		c-2.4-1.2-4.1-4.9-4.2-9.4c-0.1-3.5,0.7-5,2.9-5.4l-3.1-9.3l1.3-27.4c-1.2-0.8-1.5-0.8-2.8,0.2c-0.1,8.9-0.5,21.6-0.9,24.7
		C543.3,284.2,545.3,306,547.1,310.9z"/>
	<polygon fill="#FFFFFF" points="562.2,329.4 561.3,329.3 562.4,329.8 	"/>
	
		<linearGradient id="SVGID_4_" gradientUnits="userSpaceOnUse" x1="83.2638" y1="194.7037" x2="131.7638" y2="196.8036" gradientTransform="matrix(0.4816 0 0 -1.5136 529.7236 623.1816)">
		<stop  offset="0" style="stop-color:#D5DFFF"/>
		<stop  offset="1" style="stop-color:#FFFFFF"/>
	</linearGradient>
	<polygon fill="url(#SVGID_4_)" points="562.2,329.4 561.3,329.3 562.4,329.8 	"/>
	<path d="M549.5,291.3c0.4-0.1,0.7-0.1,1.2-0.1c1.1,0,1.8-0.4,2-1.1c-1.5-9.1-2.4-19.6-2.7-24.1c-0.2-3,0.3-6.9,1.2-10.5
		c-0.3-0.1-0.6-0.1-0.8,0c-0.6,0.2-1.7-0.1-2.6-0.7c-0.1-0.1-0.2-0.1-0.2-0.2l-1.3,27.4L549.5,291.3z"/>
	
		<linearGradient id="SVGID_5_" gradientUnits="userSpaceOnUse" x1="81.5976" y1="233.1857" x2="130.0976" y2="235.2856" gradientTransform="matrix(0.4816 0 0 -1.5136 529.7236 623.1816)">
		<stop  offset="0" style="stop-color:#D5DFFF"/>
		<stop  offset="1" style="stop-color:#FFFFFF"/>
	</linearGradient>
	<path fill="url(#SVGID_5_)" d="M549.5,291.3c0.4-0.1,0.7-0.1,1.2-0.1c1.1,0,1.8-0.4,2-1.1c-1.5-9.1-2.4-19.6-2.7-24.1
		c-0.2-3,0.3-6.9,1.2-10.5c-0.3-0.1-0.6-0.1-0.8,0c-0.6,0.2-1.7-0.1-2.6-0.7c-0.1-0.1-0.2-0.1-0.2-0.2l-1.3,27.4L549.5,291.3z"/>
	<path d="M562.4,329.8l0.1,0.1l-0.8-3.4c0,0,5.8,5.2,13.7,0.9c1.9-1,2.6-4.9,2.8-8.9c-0.5,1-1.3,0.7-2.5-0.7
		c-1.7-1.9-1.9-5.4-0.5-6.6c1.2-1,1.2-1.9,0.1-1.9c-0.5,0-1.7-1.1-2.8-2.4c0.1,2.5-0.4,4.9-2.7,6c-4.9,2.3-9.3-4.7-12.4-7.5
		c-0.7,0.5-1.7,0.8-2.9,1l7.7,23L562.4,329.8z"/>
	
		<linearGradient id="SVGID_6_" gradientUnits="userSpaceOnUse" x1="82.918" y1="202.6901" x2="131.418" y2="204.7901" gradientTransform="matrix(0.4816 0 0 -1.5136 529.7236 623.1816)">
		<stop  offset="0" style="stop-color:#D5DFFF"/>
		<stop  offset="1" style="stop-color:#FFFFFF"/>
	</linearGradient>
	<path fill="url(#SVGID_6_)" d="M562.4,329.8l0.1,0.1l-0.8-3.4c0,0,5.8,5.2,13.7,0.9c1.9-1,2.6-4.9,2.8-8.9c-0.5,1-1.3,0.7-2.5-0.7
		c-1.7-1.9-1.9-5.4-0.5-6.6c1.2-1,1.2-1.9,0.1-1.9c-0.5,0-1.7-1.1-2.8-2.4c0.1,2.5-0.4,4.9-2.7,6c-4.9,2.3-9.3-4.7-12.4-7.5
		c-0.7,0.5-1.7,0.8-2.9,1l7.7,23L562.4,329.8z"/>
	<path fill="#FFFFFF" d="M590.4,328.2c-2.3,3-10.7,4.9-10.7,4.9v0.1c4.7,1.5,7.9,1.9,9.9,1.6c-0.3-0.3-0.3-0.9,0-1.8
		c0.5-2.1,1.2-2.9,2.8-3.2C591.7,328.7,590.8,327.9,590.4,328.2z"/>
	<path fill="#FFFFFF" d="M499.4,175.7C499.3,175.6,499.3,175.6,499.4,175.7c0.1,0.3-2.1,4-2.8,11.9c0,0.2,0,0.4-0.1,0.7
		c1.5,1.9,2.9,3.5,4.2,4.8c0.6-0.4,1.4-0.8,2.4-1.3c2.9-1.4,3.6-2,3.7-3.4c0.2-1.3-0.1-1.7-1-1.7c-0.7,0-1.6,0.4-2,0.9
		c-1.8,2.2-3.5-0.2-1.9-2.7c0.4-0.6,0.3-1.7-0.2-3c-0.6-1.5-0.7-2.6-0.3-3.6c0-0.1,0.1-0.2,0.1-0.3
		C500.4,176.7,499.6,175.9,499.4,175.7z"/>
	<path fill="#FFFFFF" d="M503.2,195.4c0.8,0.7,1.6,1.4,2.4,1.9C505.8,195,505.2,194.5,503.2,195.4z"/>
	<path fill="#FFFFFF" d="M513,198.8c-1-0.7-3.1-0.5-4.3,0.3c1.7,0.8,3.2,1.1,4.6,1.3C513.9,199.6,513.7,199.3,513,198.8z"/>
	<path fill="#FFFFFF" d="M454,194.2c0.4-0.3,0.9-0.6,1.3-0.9c-0.2-2.2-0.5-4.4-0.8-6.4c-0.2-1-0.3-2-0.5-2.8
		c-0.4-0.3-0.9-0.3-1.7-0.4c-1.1-0.1-2.4-0.4-2.8-0.8c-0.1-0.1-0.1-0.1-0.2-0.2c-0.4,0.3-0.9,0.6-1.4,0.9c0,0.1,0,0.3,0,0.4
		c0.1,1.1-0.2,2.1-0.9,2.6c-1.1,0.9-3.6,7.3-3.6,9.2c0,0.7-0.2,1.2-0.6,1.2c-0.4,0-1.6,1.7-2.7,3.5c3-0.5,6.4-1.8,10.3-4.1
		C451.7,195.8,452.8,195.1,454,194.2z"/>
	<path fill="#FFFFFF" d="M431.7,187.9c-5.7,3.4-12.4-2.6-12.4-2.6s1.8,6.6,6.7,11.2c2.2,2.1,5.1,3.8,8.7,4.3c0.8-1.7,1.5-4.1,2-6.9
		c0.3-1.7,0.7-3.3,0.9-3.7c0.2-0.3,0.1-1-0.1-1.8C435.4,188.8,433.4,188.7,431.7,187.9z"/>
	<path fill="#0000FF" d="M408.2,176.9c5.4,5.3,10.7,7.9,10.7,7.9s6.3,5.7,12.6,2.6h0c0.8-3.9,3.1-6.5,5.6-6.3
		c0.8-0.8,1.7-1.4,2.5-1.4c0.8-0.1,0.5-0.6-1.3-2.2c-1.9-1.7-2.3-2.4-2-3.7c0.3-1.3-0.1-1.9-2.1-3.6c-2.7-2.2-3-3.1-1.6-4.3
		c0.3-0.3,0.7-0.4,1.1-0.4c0.8-5.3,0.8-9.9,0.4-13.9c-0.4,0.4-0.8,0.6-1.1,0.6c-1.6,0-2.7-2.2-2.2-4.4c0.3-1.7,0.2-1.8-1.4-1.8
		c-1,0-2.1,0.4-2.6,0.9c-0.4,0.6-1.2,0.9-1.8,0.7c-1.4-0.3-3.3,0.8-4.6,2.3c-0.8,6.9-1.1,13.6-0.1,16c1.8,4-0.8-3.1-9.7-9
		c-0.3,0.4-0.5,0.7-0.8,1.2c-1.6,2.5-2.4,3.2-4,3.3c-1.7,0.2-2.1,0.6-2.8,2.7c-0.4,1.3-1.1,2.4-1.8,3.2
		C403.1,171.2,405.6,174.4,408.2,176.9z"/>
	<path fill="#FFFFFF" d="M366.7,117.9c3.8,9.3,14.7,17.6,34.8,19.1c0.1-0.4,0.2-0.7,0.3-0.9c0.6-1.1,0.9-1.1,2.2-0.5
		c1,0.5,1.7,0.5,2,0.1c0.2-0.3,0.9-0.8,1.6-1.3c-0.6-0.1-1-0.2-1.1-0.2c0,0,0.7-0.1,1.7-0.2c2-1.4,2.5-3.1,1.4-5.1
		c-0.6-1.3-0.7-2.2-0.2-3.8c1-3.1,2.7-3.4,5.5-0.6c3.2,3.2,6.4,3.7,7.1,1.6c-1.1-3.1-2.5-5.8-4.2-8.3c-1.7-2.4-3.7-4.6-5.7-6.4
		c-1.4,0.5-2.2,0.5-3.7,0.2c-2.2-0.6-2.4-0.4-4.7,1.9c-1.9,1.9-4.1,3.1-5.9,3.1c0.3,0.4,0.6,0.9,1,1.3c0.7,0.9,1.5,1.8,2.4,2.6
		c-1.7-1.3-4.1-2-7-2.6c0,0,0,0,0,0c-0.5,0.5-1,0.8-1.3,0.8c-0.4,0-1.3,0.6-2,1.3c-1.5,1.6-4.2,3.1-5.7,3.1c-0.7,0-1.9-0.5-2.6-1.1
		c-1.1-0.9-2.2-1.1-4.3-0.9c-2.7,0.2-3,0.1-3.7-1.4c-0.4-0.9-0.7-1.9-0.7-2.2c0-0.9,1-1.8,2.5-2.2c-4.4-1-8.4-2.6-11.2-5.4
		C365.1,112.5,365.6,115.2,366.7,117.9z"/>
	<path fill="#FFFFFF" d="M415.5,154.8c-0.2-0.3-0.3-0.6-0.5-0.9c-0.2,0.1-0.4,0.1-0.6,0.2c-0.6,0.2-1.2,0.5-1.7,0.8
		C413.7,155.1,414.7,155.1,415.5,154.8z"/>
	<path fill="#CCCCCD" d="M407.6,134.4c0.2-0.1,0.3-0.2,0.5-0.3c0,0,0.1-0.1,0.1-0.1c-1.1,0.1-1.7,0.2-1.7,0.2
		C406.6,134.2,407.1,134.3,407.6,134.4z"/>
	<path fill="#FFFFFF" d="M442.2,152.7l0.4-0.1c0-2.1-0.2-2.4-1.2-2.8c-0.7-0.3-1.9-1.1-2.6-1.9c-0.3-0.3-0.7-0.7-1-0.9
		c0,0.1,0,0.1,0,0.2C437.7,154.6,442.1,152.7,442.2,152.7z"/>
	<path fill="#0000FF" d="M462.7,149.9c-0.1,0-0.1-0.1-0.2-0.1c-0.2,0-0.3,0.1-0.3,0.3l0.5,0L462.7,149.9z"/>
	<path fill="#5E0043" d="M452.6,221.3c-2.3-3.2-5.6-11.8-8.6-9.4c-2.6,0.8-0.6,9,0.6,9.8L452.6,221.3z"/>
	<path fill="#5E0043" d="M511.1,219.8C511.1,219.8,511.1,219.8,511.1,219.8c0.2-0.2,0.3-0.3,0.5-0.6c0.3-0.4,0.5-1.1,0.8-1.8
		c-0.6,0.2-1.1,0.3-1.6,0.3c-1.1,0-2.4,0.2-3,0.5c-0.5,0.3-1.6,0.8-2.6,1.3l5.3,0.2L511.1,219.8z"/>
	<path fill="#5E0043" d="M491,167l-2.7-2.8l-13.6,6l-11.7-5.9c0.4,0.6,1,1.3,1.7,2c1.8,1.7,2.5,2.8,2.5,4.1c0,0.9,0.3,1.8,0.7,2.3
		l7.9,5L491,167z"/>
	<path fill="#474747" d="M480.4,219.3c-1.3,0.1-2.5-10.5-2.5-10.5s0-0.1,0-0.2c-0.4,1.2-0.9,2.2-1.4,2.3l0.5,10.4
		C478.1,220.5,479.2,219.9,480.4,219.3z"/>
	<path fill="#474747" d="M481.8,188.8c0,0-0.1,0.5,0.5,1.8c3.2-1.6,5.8-12.6,5.8-12.6l2.4-1.6c0,0-1.9,12.8,0.4,20.6
		c-0.8-10.2,3.4-19.8,6.6-25.6c-0.1,0-0.3-0.1-0.4-0.1c-1.2-0.3-1.7-0.1-2.2,1.1c-0.8,1.9-2.9,2.1-4.3,0.6l-15.5,10.4l0.3,6.7
		c0.1,0.4,0.3,0.8,0.5,1.1c0.3-0.5,0.7-1.1,1.4-1.5c1.6-1,2.1-8.1,2.1-8.1s2.1-0.5,4-2c-0.3,5-4.6,10.1-4.6,10.1l-2.2,2.2
		c0.5,0.5,0.9,1.2,1.1,2c0,0,0-0.1,0.1-0.1C478.4,193.3,481.8,188.8,481.8,188.8z"/>
	<path fill="#474747" d="M474.8,183.1l-1.2-0.8c0,0,0,0,0,0c-0.5,0.8-0.8,1.6-0.7,2.3C473.8,184,474.6,183.4,474.8,183.1z"/>
	<path fill="#B4B6B9" d="M475.1,183.3l15.4-10.5c-1.4-1.6-0.8-3.4,1.9-4.9c2-1.2,2.3-2.4,0.8-2.5c-8.5,6-17.6,12.4-17.6,12.4
		l-7.3-4.6c0.5,0.6,0.6,1.6,0.5,3c-0.2,2.4-0.1,2.6,1.8,2.7c2.6,0.2,3.8,1.7,2.8,3.3l1.2,0.8L475.1,183.3z"/>
	<path fill="#B4B6B9" d="M440,156.7c-0.3,0.1-0.5,0.4-0.6,0.8c-0.4,1.2,0.4,1.9,0.9,2.6c0.2,0.2,0.3,0.4,0.4,0.6l1,0.7
		c0.3-1.4,0.6-2.9,0.7-4.5l-0.1-0.1C442.3,156.8,440.9,156.3,440,156.7z"/>
	<path fill="#474747" d="M479.6,156.8c0-0.1,0-0.2,0.1-0.2c-1.3-0.5-1.7-0.4-2.7,0.5c-0.5,0.5-0.8,0.7-1.3,0.7l-0.3,9.8
		C477.1,164.1,478.5,160.5,479.6,156.8z"/>
	<path fill="#474747" d="M464.4,151.1c-0.7,0.1-1.4,0.2-2.2,0.3c0,0.1,0,0.2,0.1,0.3c0.7-0.2,1.5-0.3,2.3-0.5
		C464.5,151.2,464.5,151.2,464.4,151.1z"/>
	<path fill="#FF7000" d="M562.2,331.6l0,0.1l-13.3,0.4c0,0-3.4,3-3.6,3.7s2.2,1,2.2,1l0.7,2.5l1.7-0.6c0,0,11.4,1.7,21.8-0.6
		c4.6-1.7,5.9-3.5,3.7-4.9c-0.3-0.2-0.7-0.4-1.2-0.6c-1.9-0.7-5.1-0.9-7.7-1C564.2,331.6,562.2,331.6,562.2,331.6z"/>
	<path fill="#FF7000" d="M541.4,329.5l1.6-1c0,0,2.4,2.6,3.1,2.4c0.8-0.2-0.3,1,0,1.1c0.1,0.2,0.9-0.4,0.9-0.4l16.3-0.3l-0.4-0.3
		l-0.1,0l-2.7-1.8l-4-2.6l0,0c0,0-3.3,0.6-3.2,1c0.1,0.4-9.8,0.5-10,0.2c0-0.1-0.1,0-0.2,0C542.3,328.2,541.4,329.5,541.4,329.5z"/>
	<path fill="#000066" d="M534.8,353.5l-0.5,0l0.2,0.1l-19,0.7v-0.1l-0.5,0l0.6,1.9l-4.3-0.1h-0.8c0.2,0.1,0.9,0.4,1.8,0.8
		c0.5,0.2,0.9,0.4,1.4,0.6c1.3,0.6,2.5,1.3,2.7,1.8v0.1l24.1-1.1l-4.6-3.8l60-2.4c0.1-0.2,0.2-0.3,0.3-0.5c0.6-0.8,0.7-1.5,0.3-2.3
		c-0.3-0.5-0.5-1.3-0.6-2.2l-69.5,2.7L534.8,353.5z"/>
	
		<linearGradient id="SVGID_7_" gradientUnits="userSpaceOnUse" x1="265.7389" y1="-118.0533" x2="226.3389" y2="-81.3533" gradientTransform="matrix(2.2016 0 0 -0.3268 6.8436 319.3608)">
		<stop  offset="0" style="stop-color:#D5DFFF"/>
		<stop  offset="1" style="stop-color:#FFFFFF"/>
	</linearGradient>
	<path fill="url(#SVGID_7_)" d="M534.8,353.5l-0.5,0l0.2,0.1l-19,0.7v-0.1l-0.5,0l0.6,1.9l-4.3-0.1h-0.8c0.2,0.1,0.9,0.4,1.8,0.8
		c0.5,0.2,0.9,0.4,1.4,0.6c1.3,0.6,2.5,1.3,2.7,1.8v0.1l24.1-1.1l-4.6-3.8l60-2.4c0.1-0.2,0.2-0.3,0.3-0.5c0.6-0.8,0.7-1.5,0.3-2.3
		c-0.3-0.5-0.5-1.3-0.6-2.2l-69.5,2.7L534.8,353.5z"/>
	<path fill="#FFFFFF" d="M526.6,349.6l69.5-2.7c0-0.1,0-0.2,0-0.3l-70,2.7L526.6,349.6z"/>
	
		<linearGradient id="SVGID_8_" gradientUnits="userSpaceOnUse" x1="274.3117" y1="-108.8498" x2="234.9117" y2="-72.1498" gradientTransform="matrix(2.2016 0 0 -0.3268 6.8436 319.3608)">
		<stop  offset="0" style="stop-color:#D5DFFF"/>
		<stop  offset="1" style="stop-color:#FFFFFF"/>
	</linearGradient>
	<path fill="url(#SVGID_8_)" d="M526.6,349.6l69.5-2.7c0-0.1,0-0.2,0-0.3l-70,2.7L526.6,349.6z"/>
	<polygon fill="#FFFFFF" points="515.6,354.3 534.6,353.6 534.4,353.5 515.1,354 515.1,354.2 515.6,354.2 	"/>
	
		<linearGradient id="SVGID_9_" gradientUnits="userSpaceOnUse" x1="257.8027" y1="-126.5733" x2="218.4027" y2="-89.8733" gradientTransform="matrix(2.2016 0 0 -0.3268 6.8436 319.3608)">
		<stop  offset="0" style="stop-color:#D5DFFF"/>
		<stop  offset="1" style="stop-color:#FFFFFF"/>
	</linearGradient>
	<polygon fill="url(#SVGID_9_)" points="515.6,354.3 534.6,353.6 534.4,353.5 515.1,354 515.1,354.2 515.6,354.2 	"/>
	<path fill="#00713D" d="M512.5,356.7c0.4,0.2,0.9,0.4,1.4,0.6C513.4,357,512.9,356.8,512.5,356.7z"/>
	
		<linearGradient id="SVGID_10_" gradientUnits="userSpaceOnUse" x1="250.5948" y1="-134.3115" x2="211.1948" y2="-97.6115" gradientTransform="matrix(2.2016 0 0 -0.3268 6.8436 319.3608)">
		<stop  offset="0" style="stop-color:#D5DFFF"/>
		<stop  offset="1" style="stop-color:#FFFFFF"/>
	</linearGradient>
	<path fill="url(#SVGID_10_)" d="M512.5,356.7c0.4,0.2,0.9,0.4,1.4,0.6C513.4,357,512.9,356.8,512.5,356.7z"/>
	<path fill="#00713D" d="M510.7,355.9h0.8H510.7C510.6,355.9,510.6,355.9,510.7,355.9z"/>
	
		<linearGradient id="SVGID_11_" gradientUnits="userSpaceOnUse" x1="251.7932" y1="-133.025" x2="212.3932" y2="-96.325" gradientTransform="matrix(2.2016 0 0 -0.3268 6.8436 319.3608)">
		<stop  offset="0" style="stop-color:#D5DFFF"/>
		<stop  offset="1" style="stop-color:#FFFFFF"/>
	</linearGradient>
	<path fill="url(#SVGID_11_)" d="M510.7,355.9h0.8H510.7C510.6,355.9,510.6,355.9,510.7,355.9z"/>
	<path fill="#000066" d="M524,239.1c0.6-1.6,1-3,0.8-3.3c-0.2-0.3,0.2-1.7,1.1-3c1.3-2.3,1.4-2.5,0.3-3.9c-0.8,0.4-1.5,0.9-2.3,1.4
		L524,239.1z"/>
	
		<linearGradient id="SVGID_12_" gradientUnits="userSpaceOnUse" x1="126.5327" y1="222.3372" x2="116.8327" y2="241.9373" gradientTransform="matrix(0.774 0 0 -0.946 440.834 477.876)">
		<stop  offset="0" style="stop-color:#D5DFFF"/>
		<stop  offset="1" style="stop-color:#FFFFFF"/>
	</linearGradient>
	<path fill="url(#SVGID_12_)" d="M524,239.1c0.6-1.6,1-3,0.8-3.3c-0.2-0.3,0.2-1.7,1.1-3c1.3-2.3,1.4-2.5,0.3-3.9
		c-0.8,0.4-1.5,0.9-2.3,1.4L524,239.1z"/>
	<path fill="#000066" d="M527.3,250.2c-0.3-0.2-0.7-0.5-1-0.8c-0.9-0.8-1.6-1.5-2.2-2.2l0.1,4.5
		C524.2,251.7,525.4,251.1,527.3,250.2z"/>
	
		<linearGradient id="SVGID_13_" gradientUnits="userSpaceOnUse" x1="119.9598" y1="219.086" x2="110.2598" y2="238.6861" gradientTransform="matrix(0.774 0 0 -0.946 440.834 477.876)">
		<stop  offset="0" style="stop-color:#D5DFFF"/>
		<stop  offset="1" style="stop-color:#FFFFFF"/>
	</linearGradient>
	<path fill="url(#SVGID_13_)" d="M527.3,250.2c-0.3-0.2-0.7-0.5-1-0.8c-0.9-0.8-1.6-1.5-2.2-2.2l0.1,4.5
		C524.2,251.7,525.4,251.1,527.3,250.2z"/>
	<path fill="#8A9396" d="M392.4,269.5c-2.2-0.2-2.2-0.2-2.3,2.5c0,0.3,0,0.5,0,0.8c0.8-1,1.7-2.1,2.5-3.3
		C392.5,269.5,392.5,269.5,392.4,269.5z"/>
	<path fill="#8A9396" d="M398,277c0,1.2,2.5-0.1,2.3-0.4c-0.1-0.3,1.4-1.6,3-1.9c1-0.2,2.6,0.5,3.8,1.2c1.7,0.1,2.1,0,2.1-0.7
		c0-0.8,0.6-1.3,1.6-1.3c-2.3-2.2-7.1-2.7-7.6-3.1C402.8,270.4,398,275.8,398,277z"/>
	<path fill="#8A9396" d="M431.8,252.8c-0.4,0.3-3.3,2.5-5.4,3.6c0.5-0.2,1-0.4,1.5-0.7C429.7,254.7,431.3,253.3,431.8,252.8z"/>
	<path fill="#8A9396" d="M430.4,269.2c-0.2-0.7-0.5-1.5-0.8-2.2c-1.8-4.2-4.6-7.9-5.1-9.5C424.9,259.1,428.8,265,430.4,269.2z"/>
	<path fill="#8A9396" d="M415.8,251.4c-3-6.2,6,3.8,8,2.3c1-0.8-0.2-5.1-1.4-8.8c-1.6-2.2-11-14.8-13.8-15.7
		c-3.1-0.8,2.4-1.5,5.7,1.8c2.3,2.2,1-1.1,0-3.4l-0.9-1.9c0,0,0.4,0.8,0.9,1.9l8,16.7c-0.9-2.9-1.9-5.3-1.8-5.4l0,0
		c0,0,8.2-10.3,10-9.9c2,0.4,1.4,23.6,1.4,23.8c0.1-0.1,0.1-0.1,0.1-0.1s0.1-1.1,0.1-2.7c0.2-5.6,0.5-18-1-20.7
		c-0.2-0.3-0.4-0.5-0.6-0.5c-2.7,0.3-10.2,9.5-10.2,9.5s-11-22.2-12.7-24.9c-1.7-2.7,0-8.2,0-8.2l0,0.1c3.7-3.1,5.1-6.3,5.6-8.8
		c0.5-2.5,0.1-4.2,0.1-4.2s2.5-1.3,2.6-4.7c-0.2,0.1-0.4,0.1-0.6,0.1c-1,0-1.8-1-1.8-2c0-0.8,0.5-1.5,1.1-1.8
		c-3.2-2.8-11.6-2.8-11.6-2.8s-2.7-2.3-6-2.5c-3.3-0.2-6.5,2.5-9,4s-7.2,1.2-9.7,3.5c-1.5,1.3-1.7,6.1-1.8,10.4c0,3.1,0.1,5.9,0,6.9
		c-0.2,2.1-1.3,3.9-1.9,6.8c-0.1,0.7-0.3,1.4-0.3,2.2c-0.1,2.3,0,5.8,0.1,8.6c0.1,2.7,0.2,4.9,0.2,4.9s-3.5,3.7-4.3,7.4
		c-0.4,2.2-0.2,5.1,0,7.1c0.1,1.4,0.3,2.3,0.3,2.3s-2.5,5.9-5.2,13.5c2.5-0.9,4,0,4,2.3c0,1.7,1.1,2.6,3.4,2.9
		c1.4,0.1,1.9,0.5,1.9,1.6c0.1,0.7,0.2,1.6,0.4,1.7c0.5,0.5,2.5,0.5,3.9,0c0.9-0.2,1.8,0,2.7,0.7c1.4,1.1,1.5,1.1,2.6,0
		c1.7-1.7,7.3-1.6,9.2,0.2c0.3,0.3,0.5,0.6,0.7,0.9c0-0.1,0-0.1,0-0.2c0.2-1.3-1.2-2.2-2.5-2.5c-1.4-0.3-6.7-5.7-6.7-5.7
		s0.8-5-0.4-5.3c-3.3-3.6-6.1-7.5-8.5-11.7c-1.2-2.2,2.3-7,1.9-9.1c-0.2-2.2,1.5-3,2-2.5c0.5,0.6,1.8,1.5,6,1
		c4.1-0.4,15.8,5.9,18.1,7.8c2.3,1.9,4.5,6.3,6.1,8.1c1.6,1.8,4.6,2.4,4.6,2.4c-0.5,0.8,0.2,4.2,0.5,5.2c0.3,1.1,4.1,3.4,5.1,4
		c1.2,0.7,5.6,5.3,5.2,12.2c-0.1,1.3-0.4,2.5-0.7,3.5c0.3,0.1,0.7,0.2,1.2,0.5c0.7,0.3,2.5,0.6,4.4,0.9c-0.2-1.1-0.7-2.9-1.9-5.3
		C427,266,428.1,261.5,415.8,251.4z M387.6,209.6c0,0,1-0.8,1.8,0.4c0,0,3.9,6,8.5,7.6c4.6,1.6-3.2,3-7.8,0
		C386.7,213,387.6,209.6,387.6,209.6z M393.5,188.2c1.5-0.8,3-0.8,3.4-0.1c0.4,0.7-0.5,2-2,2.8c-1.5,0.8-3,0.8-3.4,0.1
		C391.1,190.3,392,189,393.5,188.2z M386.3,193.3c0.1-0.1,0.2-0.2,0.2-0.2l0,0.1C386.4,193.2,386.4,193.3,386.3,193.3
		c-0.9,0.9-4.7,5.1-2.5,5.6c2.5,0.6,5.2-4,5.2-4s0,7.9,2.1,6.6l8.6-5.7c0,0,2.2-0.2,2.7,0c0.5,0.1,6,4.8,9.5,3c-2,5.4-4.4,6-4.4,6
		s-3.7,4.9-8.6,3.8c-4.8-1.1-6-3.2-6-3.2s-4.1,0.3-5.3-1.5c-1.3-1.9-1.8-3-1.8-3s-2.3,2.4-3,1.3
		C382.2,201.1,382.8,194.9,386.3,193.3z"/>
	<path fill="#8A9396" d="M431.1,271.8c0,0.2,0,0.4,0,0.5l-0.2,3c0.1,0,0.2,0,0.3,0c0-0.4,0.1-0.7,0.1-1
		C431.3,273.5,431.2,272.6,431.1,271.8z"/>
	<path fill="#CECFCF" d="M394.9,190.9c1.5-0.8,2.4-2.1,2-2.8c-0.4-0.7-1.9-0.7-3.4,0.1s-2.4,2.1-2,2.8
		C391.9,191.7,393.4,191.7,394.9,190.9z M393.9,188.5c0.5,0,0.9,0.4,0.9,0.8c0,0,0,0,0,0v0.1c0,0,0,0,0-0.1c0,0.5-0.4,0.9-1,0.9
		c-0.4,0-0.9-0.4-0.9-0.8C392.9,188.9,393.4,188.5,393.9,188.5z"/>
	<path d="M393.8,190.2c0.6,0,1-0.4,1-0.9c0-0.5-0.4-0.8-0.9-0.8c-0.5,0-1,0.4-1,0.9C392.9,189.8,393.4,190.2,393.8,190.2z"/>
	<path d="M394.8,189.3C394.8,189.3,394.8,189.3,394.8,189.3C394.8,189.4,394.8,189.4,394.8,189.3L394.8,189.3z"/>
	<path fill="#2B2B2B" d="M431.1,271.8c-0.1-0.7-0.3-1.6-0.7-2.6c-1.6-4.2-5.5-10.1-6-11.7c-0.1-0.3-0.1-0.4,0.1-0.4
		c0.4,0.1,1.1-0.2,1.9-0.7c2.1-1.1,5-3.3,5.4-3.6c0,0,0.1,0,0.1,0s0,0,0,0c0-0.2,0.6-23.4-1.4-23.8c-1.8-0.4-10,9.9-10,9.9l0,0
		c-0.1,0.1,0.8,2.5,1.8,5.4l0.4,0.9c0,0-0.1-0.1-0.3-0.3c1.2,3.7,2.3,8,1.4,8.8c-2,1.5-11-8.5-8-2.3c12.3,10.1,11.2,14.6,13,18.6
		c1.2,2.3,1.7,4.2,1.9,5.3c0.1,0,0.2,0,0.2,0l0.2-3C431.1,272.1,431.1,271.9,431.1,271.8z"/>
	<path fill="#2B2B2B" d="M382.8,202.2c0.7,1.1,3-1.3,3-1.3s0.5,1.1,1.8,3c1.2,1.8,5.3,1.5,5.3,1.5s1.2,2.1,6,3.2
		c4.9,1.1,8.6-3.8,8.6-3.8s2.4-0.6,4.4-6c-3.5,1.8-9-2.9-9.5-3c-0.5-0.2-2.7,0-2.7,0l-8.6,5.7c-2.1,1.3-2.1-6.6-2.1-6.6
		s-2.7,4.6-5.2,4c-2.2-0.5,1.6-4.7,2.5-5.6C382.8,194.9,382.2,201.1,382.8,202.2z"/>
	<path fill="#2B2B2B" d="M386.5,193.1c0,0-0.1,0.1-0.2,0.2c0.1,0,0.1-0.1,0.2-0.1L386.5,193.1z"/>
	<path d="M413.5,185.7c0,1,0.8,2,1.8,2c0.2,0,0.4-0.1,0.6-0.1c0.7-0.3,1.2-1.1,1.2-1.9c0-1.2-0.8-2-1.8-2c-0.2,0-0.5,0.1-0.7,0.2
		C414,184.2,413.5,184.9,413.5,185.7z"/>
	<path fill="#2B2B2B" d="M397.9,217.6c-4.6-1.6-8.5-7.6-8.5-7.6c-0.8-1.2-1.8-0.4-1.8-0.4s-0.9,3.4,2.5,8
		C394.7,220.6,402.5,219.2,397.9,217.6z"/>
	<path fill="#2B2B2B" d="M414.3,227.6c-0.5-1-0.9-1.9-0.9-1.9L414.3,227.6z"/>
	<path fill="#2B2B2B" d="M414.3,227.6c1,2.3,2.3,5.6,0,3.4c-3.3-3.3-8.8-2.6-5.7-1.8c2.8,0.8,12.2,13.4,13.8,15.7
		c0.2,0.2,0.3,0.3,0.3,0.3l-0.4-0.9L414.3,227.6z"/>
	<path fill="#2B2B2B" d="M425.8,270.4c0.4-6.9-4-11.5-5.2-12.2c-1-0.6-4.8-2.9-5.1-4c-0.3-1-1-4.4-0.5-5.2c0,0-3-0.6-4.6-2.4
		c-1.6-1.8-3.8-6.2-6.1-8.1c-2.3-1.9-14-8.2-18.1-7.8c-4.2,0.5-5.5-0.4-6-1c-0.5-0.5-2.2,0.3-2,2.5c0.4,2.1-3.1,6.9-1.9,9.1
		c2.4,4.2,5.2,8.1,8.5,11.7c1.2,0.3,0.4,5.3,0.4,5.3s5.3,5.4,6.7,5.7c1.3,0.3,2.7,1.2,2.5,2.5c0,0,0,0.1,0,0.2
		c0.3,0.6,0.5,1.2,0.4,1.7c-0.2,1.1-0.5,1.4-2.2,1.2c-0.8,1.1-1.7,2.3-2.5,3.3c0,1.8,0.6,2.5,2.8,4.8l2.8,2.9l1.7-1.2
		c2.1-1.6,2.9-1.6,3.4,0c0.7,2.4,2.2,0.9,2.2-2.3c0-1.6,0.1-1.6,3.1-1.2c0.4,0,0.7,0.1,1,0.1c-1.2-0.7-2.8-1.4-3.8-1.2
		c-1.6,0.3-3.1,1.6-3,1.9c0.2,0.3-2.3,1.6-2.3,0.4s4.8-6.6,5.3-6.2c0.4,0.4,5.2,1,7.6,3.1c0.6,0,1.4,0.1,2.3,0.3
		c5.2,1.6,5.4,1.6,5.6-0.6c0.1-1.6,0.5-2.1,1.4-2.1c0.7,0,1.3,0.5,1.4,1.2c0.4,2.9,0.8,3.2,1.7,1.9c0.6-0.8,0.9-1,1.7-0.8
		C425.4,272.9,425.7,271.7,425.8,270.4z"/>
</g>
</svg>
