<?xml version="1.0" encoding="utf-8"?>
<!-- Generator: Adobe Illustrator 17.1.0, SVG Export Plug-In . SVG Version: 6.00 Build 0)  -->
<!DOCTYPE svg PUBLIC "-//W3C//DTD SVG 1.1//EN" "http://www.w3.org/Graphics/SVG/1.1/DTD/svg11.dtd">
<svg version="1.1" id="flag-icon-css-gw" xmlns="http://www.w3.org/2000/svg" xmlns:xlink="http://www.w3.org/1999/xlink" x="0px"
	 y="0px" viewBox="0 0 640 480" enable-background="new 0 0 640 480" xml:space="preserve">
<g>
	<path fill="none" d="M318.9,341.8c-0.7-0.6-0.9-0.4-1.1,1.6c-0.2,2-0.5,2.5-2.2,3.2c-2.7,1.2-2.6,2.7,0.1,5
		c2.5,2.2,2.4,4.1-0.2,4.7c-1.4,0.3-2.1,1-2.9,3.2c-1.4,3.7-0.7,4.2,1.1,0.7c0.9-2.1,1.7-2.7,2.4-2.6c2.7,0.7,3.3-5.2,0.6-7.4
		c-1.6-1.3-1.6-2.4,0.1-2.4c1.7,0,3-1.7,3.1-3.8C319.8,343.2,319.4,342.1,318.9,341.8z"/>
	<path fill="#CE1126" d="M81.1,208.2c-1.9-3.9-3.9-4.8-4.4-2.2c-0.2,0.8-0.6,4.4-1,8.1c0,0.4-0.1,0.7-0.1,1.1h10.4
		c-0.2-0.2-0.3-0.4-0.5-0.6C84,213,82,210.2,81.1,208.2z"/>
	<path fill="#CE1126" d="M215.7,199.7c-0.2-0.5-1-2.1-1.6-3.4c-1.9-3.9-2.5-4-7.9-1.4l-4.9,2.4l0.2,2.6c0.2,2.7-1.6,8.5-2.6,8.5
		c-0.3,0-0.6-0.6-0.6-1.4c0-2.4-1.1-2.9-3.8-1.9c-1.9,0.6-2.8,0.7-4,0.1c-1.4-0.6-1.6-1.1-1.6-4c0-5-2.4-5.4-10.5-1.2
		c-5,2.5-10.1,6.8-10.1,8.4c0,0.2-0.7,1.2-1.5,2.1c-0.9,0.8-2,2.9-2.6,4.6c0,0.1-0.1,0.2-0.1,0.2h21.8L150.7,241
		c-0.2,1.5-1.1,3.4-2.5,5.1c-2.9,3.8-3.3,6.2-1.9,11.3c0.6,2.2,1.4,4.2,1.6,4.4c0.2,0.2,1.3-0.7,2.3-1.9c2.2-2.6,7.2-4.4,9.8-3.4
		c1.2,0.4,1.7,0.4,2.1-0.6c0.4-0.6,0.5-1.3,0.3-1.5c-0.2-0.2-0.5-2.4-0.6-4.9c-0.2-4.7,0.6-6.7,2.6-6.7c0.4,0,0.8-0.6,0.8-1.2
		s-0.2-1.2-0.5-1.2c-0.9,0-2-3.1-2-5.7c0-3.1,1-2.7,1.6,0.7c0.2,1.4,0.6,2.5,0.8,2.5c0.2,0,1-0.6,1.8-1.4c1.8-1.7,2.6-1.1,1.2,1
		c-0.6,0.9-1,2.2-1,3.1c0,1-0.7,2.1-2.2,3.3l-2.2,1.8l0.7,3.5c0.8,4.1,2.6,5.9,5.3,5.2c1.7-0.4,1.7-0.5,2.7-4.5
		c0.4-1.4,1.4-3.5,2.2-4.7c5.9-8.2,6.1-8.5,5.7-11.5c-0.2-2.6-0.1-3.1,1.7-5l2-2.1l3.9,1.4c2.2,0.7,4.3,2,4.9,2.8
		c0.9,1.2,1.5,1.4,3.7,1.2c2-0.1,2.6,0,2.1,0.5c-1.3,1.6-3.7,1.4-5.8-0.4c-3.4-3-7.5-3.9-9.3-2.2c-0.5,0.5-1.1,2.9-1.3,5.3
		c-0.3,3.1-0.9,5-2,6.7c-0.9,1.2-2,4-2.6,6.1c-0.5,2.1-1.4,4.5-1.8,5.5c-1.4,2.7-1.1,5,0.7,5.9c2.1,0.9,3.1,0.6,6.6-2.7
		c1.6-1.4,3.2-2.7,3.7-2.7c0.4,0,2.4-1.1,4.5-2.3c5.1-3.2,9.7-4.5,15.2-4.5c4.9,0,5.1-0.1,8.7-4.9c0.9-1.2,2.1-1.9,2.9-1.9
		c0.6,0,1.6-0.3,2.7-0.6v-38.9C218.2,200.7,216.1,200.4,215.7,199.7z"/>
	<path fill="#CE1126" d="M215.1,95.5l-4.7,1.7l-10.5-1.1c-5.8-0.6-12.8-1.5-15.5-2c-10.7-1.9-14.8-2.2-22.7-1.4l-7.8,0.7l-10.6-3.2
		c-5.8-1.8-11-3.5-11.5-3.7s-3.4,0.2-6.5,1.1c-10.6,2.8-14.5,3.2-22.9,2.4l-4.1-0.4L91,93.2c-4,2.1-8.8,5-10.8,6.5
		c-2,1.5-4.7,3.3-6,4c-1.3,0.8-4.4,2.9-6.9,4.7l-4.4,3.3L50,112.8c-7.1,0.6-14.6,0.9-16.7,0.7c-2.6-0.2-5.1,0.1-8.2,0.9
		c-5.4,1.4-9.4,1.5-12.8,0.3c-3.9-1.4-8.8-1.5-9.6-0.2c-0.4,0.7-0.3,1.4,0.2,2.2c1.8,2.6,4,4.9,5.6,5.9c1,0.6,1.7,1.4,1.7,1.9
		c0,0.8,1.6,2.5,6.6,6.9c1.9,1.7,3.2,2.2,4.8,2.2c4,0,5.9,1.4,10.2,7.2c2.2,3.1,4.2,5.8,4.4,6.2c0.1,0.3,0.8,2.2,1.5,4.1
		c1.2,3.4,1.4,3.5,4,4.2c3,0.7,9.3,0.9,12.9,0.3l2.4-0.4V152v-3.3l-2.6-0.2c-3.1-0.2-4.4-1.7-3.2-3.6c0.4-0.7,0.7-2.2,0.7-3.4
		c0-2.4,0.8-2.9,1.8-1.1c0.4,0.7,0.3,1.9-0.3,3.5c-1,3.1-0.4,3.5,3.6,3.1c1.6-0.2,3.4-0.2,3.9,0c0.9,0.3,0.9,0.6-0.2,2
		c-2.7,3.4-1.4,4.6,5,4.6c3.1,0,3.5-0.2,4.9-1.9c1.3-1.7,1.4-2.2,0.7-4.3c-1.4-4.5-0.9-6.2,2.2-9.5l2.9-3l-1.1-2.1
		c-0.9-2.1-0.9-2.2,0.2-3.6c1.4-1.8,2.2-1.2,1.2,1c-0.6,1.2-0.6,2-0.1,3.2c1.2,2.6,0.9,3.5-1.8,5.9c-2.8,2.4-3.2,4.1-1.7,7.2
		c0.6,1.2,1.4,1.9,2.6,2c1.5,0.2,2.7-0.8,8.7-6.7c3.9-3.8,7.8-7.4,9-8c1.1-0.7,2.4-1.9,2.9-2.6c0.9-1.3,0.9-1.5-0.1-2.6
		c-0.6-0.6-1.5-1.1-2.1-1.1c-0.6,0-1.4-0.8-1.9-1.9c-0.7-1.7-0.6-2.1,1.6-4.6c1.4-1.5,2.9-2.8,3.5-2.8c0.6-0.1,1.3-0.5,1.6-1.1
		c0.4-0.7,0.7-0.8,1-0.3c0.7,1.1-0.8,2.6-2.5,2.6c-1.1,0-1.9,0.7-3.1,2.5c-1.9,3.1-1.9,3.7-0.1,3.7c1.1,0,1.9,0.7,2.9,2.2
		c1.2,1.9,1.6,2.2,4,2.2c1.5,0,2.9-0.3,3.1-0.6c0.2-0.4,2.3-0.6,4.7-0.6c4.8,0,5.2-0.5,3.4-4c-1.1-2.2-1.1-2.3-0.1-1.9
		c0.5,0.2,1.1,1,1.2,1.9c0.6,2.5,2.1,1.7,4.2-2.4c2.7-5.2,5-6.4,12.2-6.9c4-0.2,5.9-0.1,7.1,0.6c0.9,0.5,2.4,0.9,3.4,0.9
		s3.2,0.9,5,1.9c2,1.1,3.8,1.7,4.5,1.6c0.7-0.2,1.8,0.1,2.8,0.9c0.9,0.7,2.2,1.2,3.1,1.2c1,0,2.1,1,3.9,3.5c2.7,3.9,6.9,7.7,8.3,7.7
		c2.1,0,5.2,2.2,6.7,4.7c0.9,1.5,2.9,4,4.5,5.5c2.1,2.1,2.6,2.8,1.8,2.8c-1.7,0-6.8-4.5-8.5-7.6c-1.1-2.1-2.2-3.1-5.1-4.4
		c-2.1-1-4-2.4-4.5-3.3c-0.4-0.8-2.6-3.1-4.7-4.9c-3.4-2.9-4.2-3.4-7.4-3.7c-2-0.2-4.2-0.8-4.9-1.2c-0.7-0.4-3.5-1.7-6.4-3
		c-5.6-2.5-5.8-2.5-14.1-0.2c-4.5,1.2-5.5,2.1-7.2,6.3c-1.7,4.2-5.5,7.2-9.3,7.2c-2.1,0-3.2,0.5-6.1,2.7c-2,1.5-5.7,4-8.3,5.6
		c-4.2,2.6-5,3.4-7,6.9c-2,3.7-2.1,4.3-1.8,7.5c0.2,2.4,0.7,3.7,1.6,4.3c1.1,0.7,1.1,0.9,0.2,1.2c-1.9,0.7-3.4-0.7-3.4-3.3
		c0-1.5-0.3-2.6-0.9-2.7c-1-0.4-6.9,3-11.8,6.9c-3.1,2.4-3.4,2.9-4,6.3c-0.6,2.8-1.4,4.7-3.9,8c-1.7,2.4-3.2,4.7-3.2,5.2
		c0,1.2,1.2,2.4,2.6,2.4c1.7,0,3,2.6,3.4,7.2c0.4,4.5,1.4,7.1,3.5,9.5c1.2,1.2,1.7,1.4,4.5,1c2.6-0.3,3.7-0.1,5.8,1
		c3.1,1.5,6,5.7,6.6,9.4c0.3,1.5,1.2,3,2.6,4.3H92l18-55.3l18,55.3h20.7c0.3-0.3,0.6-0.6,0.9-0.9c4.3-4.2,5-5.6,3.7-7.1
		c-0.5-0.6-1.3-2.1-1.7-3.4c-0.6-1.7-1.4-2.6-3.4-3.5c-1.4-0.7-2.9-1.2-3.2-1.2c-0.4,0-0.8-2.4-1.1-5.7c-0.2-3.6-0.7-6.2-1.4-6.8
		c-1.6-1.7-1-2.7,0.7-1.2c1.9,1.8,3.1,1.4,5-1.9c0.9-1.6,1.6-2.1,2.7-1.9c1.8,0.2,1.6,2-0.4,3c-2.6,1.3-3.7,2.7-4.4,6.2
		c-1.1,4.7-0.5,7.1,1.9,7.6c1.2,0.2,2.2,1.1,3.3,2.9c0.8,1.4,2.4,3.2,3.4,3.9c1.7,1.2,1.9,1.3,2.7,0.4c0.7-0.8,0.7-1.1,0-1.3
		c-1.5-0.5-4.2-3.1-3.7-3.6c0.2-0.2,1.1,0.1,1.9,0.9c0.7,0.7,2.1,1.5,3.1,1.7c1.5,0.4,1.9,0.2,2.8-1.5c0.8-1.4,1.9-2.2,3.6-2.6
		c1.4-0.4,2.9-0.8,3.4-0.9c0.6-0.2,0.7-0.7,0.4-1.8c-0.2-0.9-0.1-2.8,0.3-4.4c0.9-3.2,0.1-4.8-1.6-3.4c-0.7,0.6-1.2,0.6-1.7,0.1
		s-0.1-0.7,1.6-1.1c3.3-0.6,3.7-0.1,3.3,4l-0.4,3.5l3.3,0.4c2.2,0.2,4.4,0.1,6.4-0.5c3.7-1.1,5.6-1.2,7.2-0.2c1.6,1,2.2,0.3,1.2-1.4
		c-1.2-2.4-0.3-2.8,1.1-0.5c1.1,1.7,1.4,3.2,1.4,6.7c0,4.9,0.2,5.1,3.4,3.2c1.6-1,2.4-1.1,3.7-0.6c2.2,0.9,2.2,0.9,2.2-1.8
		c0-2.1,0.4-2.8,3-5.2c4.5-4.2,5.2-4.5,8.4-3.1c3.1,1.4,3.9,2.2,4.6,5.1c0.6,2.1,0.7,2.2,3.5,2.1c0.1,0,0.2,0,0.2,0v-106
		C217.9,94.4,216.2,95.1,215.1,95.5z"/>
	<path fill="#FCD116" d="M633.3,73.2c-0.8-0.7-1.5-1.9-1.5-2.4c0-0.6-0.4-2.7-1-4.7c-2.1-7.9-2.8-12.1-3.2-20.1
		c-0.2-4.5-0.7-8.4-0.9-8.7c-0.9-0.9-308.3-1.8-311.2-0.9c-2.4,0.7-5.9,2.7-14.8,8c-4.5,2.7-10.4,6.1-13.1,7.5
		c-5.2,2.9-13.5,9.2-17.9,13.6c-1.4,1.4-3.6,3.4-5,4.4c-2.9,2.2-12,6.8-17.7,8.9c-2.2,0.8-5.2,2.2-6.5,3.2
		c-4.4,2.9-14,8.2-20.4,11.3v106c1.6,0,2.6,0.3,2.4,0.6c-0.2,0.4-1.2,0.7-2.4,0.7v38.9c0.5-0.2,1-0.4,1.5-0.6
		c2.2-0.9,3.1-1.8,3.9-3.8c1.5-3.3,9.2-11.1,10.9-11.1c2.2,0,4.4-1.9,6.2-5.5c2-4,3.4-4.7,10.2-5.4c3.9-0.4,4.6-0.7,6.9-2.8
		c1.4-1.3,3.4-2.7,4.3-3.1c3.7-1.4,14-0.1,17.7,2.2c0.7,0.5,2.4,2.4,3.7,4.3l2.2,3.4h3.4c2.7,0,4,0.4,5.7,1.6
		c3.1,2.1,10.6,4.6,12.1,4c0.7-0.2,2.9-2.1,4.9-4c2.5-2.6,3.5-4,3.5-5.2c0-3.5,6.5-8.2,11.4-8.2c1.6,0,3.1-0.4,3.5-0.9
		c1.3-1.6,6.5-1.9,9.7-0.6c2.3,0.8,3.2,0.9,4.4,0.3c2.6-1.1,3.9-0.8,7.7,1.9l3.7,2.6l1.9-1.8c2.5-2.4,3.2-1.5,0.7,1
		c-1.3,1.3-2.3,1.8-3.1,1.5c-0.6-0.2-2.4-0.6-4-0.7c-2.5-0.3-3-0.2-3.7,1c-0.6,0.9-1.4,1.3-2.7,1.3c-2.2,0-2.7,0.8-2.7,4
		c0,4.4-1.3,8.4-3.9,11.6c-3.4,4.3-3.9,7.1-2.2,12.3c0.1,0.4,0.2,0.7,0.3,1.1h282c-0.1-1.6-0.2-3.6-0.3-6c-0.6-10-0.6-11.9,0.2-14.3
		c0.6-1.5,1-4.7,1-7.3c0-2.6,0.3-6.5,0.7-8.8c0.4-2.4,0.5-5.5,0.2-7.1l-0.4-2.8l-5.8-2.6c-3.2-1.4-6.1-2.6-6.4-2.6
		c-0.2,0-1.2-0.7-2.2-1.6c-0.9-0.9-3.1-2.5-4.7-3.5c-1.9-1.2-3.1-2.6-3.2-3.4c-0.1-1.1-1.1-1.7-4.2-2.8c-4.3-1.6-4.2-1.5-6.2-9.4
		c-0.2-1.1-1.4-2.4-3-3.5c-2.2-1.5-3.2-1.8-7.2-1.9c-2.6-0.1-4.9-0.3-5.1-0.6c-0.2-0.2-0.9-1.9-1.6-3.5c-1.4-3.6-1.2-6.5,0.5-6.5
		c1.8,0,4.2-2.4,5.4-5.3l1.1-2.8h4.7c2.9,0,5.9-0.4,7.7-1.1c2.9-1.1,2.9-1.1,2.9-3.8c0-1.5-0.2-3.2-0.6-3.9
		c-0.4-0.9-0.3-1.2,0.6-1.4c1-0.2,1.2,0,1.2,1.3c0.1,1.1,0.6,2.1,1.7,2.9c1.6,1.2,1.7,1.2,2.4,0c0.4-0.6,1.2-1.7,1.8-2.4
		c0.9-1.2,0.9-1.2,0.3,0.5c-0.3,1-0.6,2-0.6,2.3c0,0.8,6.6,2.6,8,2.2c0.6-0.2,1.8-1.6,2.6-3.2l1.5-2.8l3.2,3.5
		c3.1,3.5,3.2,3.5,4.9,2.7c1.4-0.7,2.2-1.9,3.8-6.5c2.5-7,3.3-8.4,5.4-8.8c3.3-0.7,4.2-4.2,4.4-17.9c0.1-5.5,0.4-6.6,1.9-9.5
		c0.9-1.8,2-3.4,2.3-3.6c0.4-0.2,0.6-2.1,0.6-4.2c0-3.1-0.5-4.9-2.6-9.5C636,77.3,634.2,74,633.3,73.2z"/>
	<path fill="#FCD116" d="M334.4,236.3c-0.7-1.2-1.1-3.5-1.1-5.8c-0.1-3.4,0.2-4,2.3-6.8c1.3-1.7,2.9-4.1,3.5-5.4
		c1.1-2.2,1.1-2.4,0.1-3.3c-0.6-0.5-2.3-1.3-3.9-1.7c-2.8-0.7-2.8-0.7-4.4,1.3c-2.6,3.5-7.5,8-9.1,8.3c-0.8,0.2-2.2,0.4-3,0.6
		s-2.9,1.6-4.7,3.2l-3.2,2.9l-6,0.1c-4.9,0.1-6.5-0.1-8.5-1.1s-2.7-1.1-3.6-0.5c-0.6,0.4-3.1,0.7-5.6,0.7c-3.9,0.1-5-0.2-8.3-1.9
		c-3.8-2-3.8-2-7.5-1.1c-3.5,0.8-3.9,1.1-8.3,6.3c-4.1,5-4.8,5.5-6.7,5.5c-1.2,0-3,0.4-3.9,0.9c-0.4,0.2-1,0.7-1.8,1.4h84.5
		C335.3,238.9,334.9,237.4,334.4,236.3z"/>
	<path fill="#009E49" d="M292.1,431.4c-1.3,0-1.8,2.7-0.6,3.4c0.6,0.3,2.1,1.6,3.2,2.7l2.2,2.1l1.1-1.5c0.6-0.8,2.2-3.2,3.4-5.4
		c1.2-2.1,3.4-4.9,4.8-6.2c2.1-1.9,2.6-2.6,2.6-4.8c0.1-2.8-0.2-2.9-4.7-2.3c-1.6,0.2-3.9,0.9-5,1.4c-1.2,0.6-3.7,1.7-5.6,2.6
		c-3,1.3-3.7,1.9-4.3,3.8c-0.6,1.8-0.6,2.5,0.1,3.2c0.6,0.8,0.9,0.8,1.8-0.1c1-0.9,1.1-0.9,1.4,0C292.8,431,292.6,431.4,292.1,431.4
		z"/>
	<path fill="#009E49" d="M281.3,393.4c0,4.7-0.2,6.5-1.4,8.9c-1.5,3.4-1.3,4.8,0.6,4.8c0.7,0,2.2,0.4,3.2,1c1.3,0.7,2.1,0.8,2.3,0.3
		c0.3-0.4,1.1-0.5,2.6-0.1c3,0.9,5.5-0.2,5.5-2.4c0-0.9,0.4-2.1,0.9-2.6c0.6-0.6,1.2-1.9,1.5-3c0.4-1.6,0.3-2.3-0.9-4.1
		c-1-1.5-1.5-3.1-1.5-4.9c0-3.3-0.9-4.3-4.5-4.7c-2-0.3-2.9-0.8-3.9-2.3c-2.9-4.6-2.8-4.5-2.4-1.9c0.3,1.9,0.1,2.7-0.8,3.7
		C281.5,387.3,281.4,388.4,281.3,393.4z"/>
	<path fill="#009E49" d="M272.4,373.8c-0.5-0.2-2.1,0.2-3.5,0.9c-1.5,0.6-2.7,1.4-2.7,1.8c0,0.9-1.8,2.6-2.9,2.6
		c-0.5,0-1.5-0.7-2.2-1.6c-0.7-0.9-1.6-1.6-1.9-1.6c-0.7,0-2.9,2.6-2.9,3.5c0,1,6,10.8,8,13c0.9,1,2.6,3.7,3.8,6
		c1.7,3.7,2.3,4.2,4.1,4.6c1.1,0.2,2.3,0.2,2.7,0c0.4-0.2,1.2-0.1,1.9,0.2c1.1,0.6,1.4,0.3,2.6-1.9c1.2-2.3,1.2-2.6,0.3-3.5
		c-0.6-0.6-0.9-1.6-0.7-2.6c0.2-0.9,0.5-3.4,0.7-5.5c0.3-2.5,0.7-3.9,1.2-3.9c0.4,0,1.1-0.4,1.5-0.9c1.1-1.3-0.8-5.4-2.5-5.4
		c-0.7,0-2.2-0.4-3.4-1c-2-0.9-2.1-1.1-1.1-2.4C276.3,374.7,276.4,374.8,272.4,373.8z"/>
	<path fill="#009E49" d="M339.9,243.8c0.4,0.5,2,0.7,4.4,0.7c5-0.1,9,1.8,11,5.1c0.7,1.4,2,3.2,2.9,4.3c1.8,2.1,5.4,3.1,6.8,1.9
		c0.7-0.6,0.9-0.6,0.9,0.2c0,1-4.2,2.3-7.4,2.3c-1.5,0-2.1-0.5-3.6-2.8c-3.1-5.1-3.4-5.4-7.7-6.2c-2.2-0.5-5.2-0.9-6.7-0.9
		c-4.3,0-5.6-2-5.2-7.9c0-0.1,0-0.2,0-0.4h-84.5c-3.9,3.5-11.3,12-12.5,14.8c-0.7,1.6-2.2,4.1-3.4,5.5c-2.7,3.4-3.2,5.2-1.6,6.3
		c1.1,0.8,1.2,1.3,0.9,4c-0.4,2.6-0.2,3.2,0.6,3.2c0.5,0,0.9,0.6,0.9,1.2c0,1.2,1.1,1.9,2.9,1.9c1.5,0,2.6-1.9,2.7-4.5
		c0-1.6,0.4-2.6,1.4-3.2c1.4-1,4-0.7,5.2,0.4c0.4,0.4,0.1,0.4-1.1,0.2c-1.3-0.3-1.7-0.1-2.1,0.9c-0.2,0.7-0.1,1.7,0.5,2.3
		c1.2,1.4,1.7,4.5,1,5.9c-0.4,0.6-0.4,1.7-0.2,2.3c0.3,1,0.9,1.2,3.4,1.2c3.5,0,4.3-0.6,6.9-5.1c1.3-2.4,2.6-3.7,3.5-4
		c2.3-0.6,3.4,0.1,1.4,0.9c-0.9,0.4-2,1.3-2.4,2.1c-0.6,1.2-0.5,1.6,0.7,2.5l1.5,1.2h-2.3c-2.7,0-2.9,0.6-1.1,3.2
		c1.6,2.2,0.9,3.3-0.7,1.3c-1.6-2.1-2.9-1.7-3.7,0.8c-0.6,1.8-0.6,2.4,0.1,2.8c0.4,0.2,0.7,0.6,0.6,0.7c-0.2,0.1-1.1,0.7-2,1.3
		c-1.3,0.8-1.7,1.6-1.7,3.1c0,2.3,1.7,7.2,3,8.7c0.5,0.6,0.7,1.5,0.6,2.1c-0.2,0.6,0.2,1.3,1.3,2c0.9,0.6,1.9,1.3,2.1,1.6
		c0.2,0.3,0.6,0.2,0.9-0.2c0.2-0.4-0.3-1.8-1.2-3.2c-1.3-2.1-1.6-3.1-1.4-5.7c0.2-3.4,0.5-3.2,1.9,1.4c0.6,1.9,1.2,2.9,2,3
		c0.9,0.2,1.1,0,0.6-0.9c-0.2-0.7-0.5-2.3-0.6-3.7c0-1.4-0.2-2.8-0.5-3.2c-0.5-0.9,0.1-1.5,1.3-1.5c0.5,0,1.3-0.5,1.8-1.1
		c0.8-1,0.9-0.8,0.6,1.9c-0.4,4.9,1.6,7.7,4.9,6.7c2.4-0.6,2.7-2.8,0.6-4.7c-0.9-0.8-1.6-1.8-1.6-2.2c0-1.2,2.9-0.6,4.4,0.9
		c0.8,0.9,1.8,1.6,2.3,1.6c1.1,0,1.1-1.6-0.1-2.5c-1.2-1-2.8-4.2-2.8-5.7c0-0.6-0.2-1.1-0.4-1.1c-0.3,0-1.1-0.4-1.7-0.9
		c-1-0.7-1.1-1.1-0.4-1.9c0.6-0.7,0.6-1.2,0.1-1.7c-0.4-0.4-0.4-1.1-0.1-1.7c0.9-1.4,2.5,0.4,2.5,2.9c0,1.1,0.3,2.2,0.6,2.4
		c0.4,0.2,1.4,1.5,2.2,2.8c1.6,2.4,4.1,3.9,4.5,2.6c0.1-0.4,0.7-0.7,1.2-0.7c0.6,0,0.8-0.4,0.6-1c-0.2-0.6-0.4-1.2-0.4-1.6
		s-0.5-0.6-1.1-0.6c-0.9,0-1.2-0.5-1.2-1.9c-0.1-1.6,0.1-1.9,1.2-1.6c1,0.3,1.2,0.1,1.2-1.6c0-1.4-0.3-2.1-1.2-2.3
		c-1.5-0.4-1.7-1.4-0.2-1.4c0.9,0,1-0.4,0.7-2.5c-0.4-2.9,0.2-3.5,1.7-1.9c0.7,0.9,1.2,2.8,1.4,6.9c0.2,4.2,0.6,5.7,1.2,5.7
		c1.2,0,1.9-2.4,1.4-5.2c-0.2-1.4-0.3-2.7-0.2-2.8c0.1-0.2,1.1,0.6,2,1.7c1.1,1.4,2.1,2,2.9,1.9c1.9-0.4,1.9-3.2,0-5.5
		c-0.9-1.1-1.4-1.9-0.9-1.9c1.3,0,0.4-2.8-0.9-2.9c-2.8-0.1-3.4-0.2-3.4-0.9c0-0.4,0.5-0.6,1.1-0.6c1.9,0,2.1-0.7,0.7-2.5
		s-1.6-3.1-0.7-3.1c0.7,0,1.7,0.9,2.9,2.7c1.4,2.1,1.9,1.6,2.5-2.7c0.6-3.5,1.5-5.4,2.4-4.5c0.4,0.4,0.4,1.3,0,2.7
		c-1.4,4.5-1.2,9.7,0.2,7.3c0.2-0.3,0.9-0.6,1.4-0.6c0.8,0,0.7,0.4-0.7,1.6c-2.1,1.9-2.2,4.2-0.3,5.6c1.3,0.9,1.4,0.9,1.9-0.1
		c0.2-0.6,0.4-1.9,0.4-2.9c0.1-0.9,0.3-1.7,0.6-1.7s0.8-0.6,1-1.2c0.2-0.7,0.8-1.2,1.3-1.2s0.9-0.5,0.9-1.1c0-0.6,0.4-1.6,1.1-2.2
		c0.9-1.1,0.9-1.2,0-2.2c-1.5-1.6-1.3-3.1,0.4-3.4c1.1-0.1,1.4-0.7,1.7-3l0.4-2.8l0.9,1.7c0.6,1.2,1.3,1.7,2.4,1.7
		c2.3,0,2.9,0.6,3.1,3l0.1,2.1l-1.8-1.4c-1-0.7-2.2-1.2-2.6-1.1c-0.4,0.1-1.1,1.6-1.6,3.4c-0.7,2.8-0.7,3.1,0.4,3.9
		c1.7,1.2,1.5,2.6-0.5,2.6c-1.5,0-2,0.6-3.5,3.4c-1.4,2.8-1.6,3.4-0.7,3.4c0.6,0,0.9,0.4,0.7,1.1c-0.1,0.7-1.2,1.4-3.2,1.9
		c-3.1,0.7-4.5,1.9-3.5,2.9c0.6,0.6,4.9-0.1,5.4-0.9c0.2-0.3,0.9-0.6,1.7-0.6c1.6,0,3.5-1.7,3.5-3.3c0-0.6,0.3-1.2,0.6-1.4
		c0.4-0.2,0.6-0.9,0.6-1.6c0-0.6,0.3-1.2,0.7-1.2c0.4,0,0.5,0.7,0.2,1.8c-0.3,1.4-0.1,2.2,0.9,3.1c2.4,2.4,3.8,1.4,3.8-2.4
		c0-1.5,0.3-1.8,1.7-2c1.6-0.2,1.7-0.4,1.7-3.2c0.1-3.7,1.1-4.4,2.1-1.4c0.4,1.2,0.9,2.2,1.2,2.2s1.2-0.9,2.1-2.1
		c0.9-1.1,1.6-1.6,1.6-1.2c0,0.4,0.4,0.8,0.9,0.8c0.6,0,0.7,0.4,0.6,0.9c-0.2,0.5-0.7,0.9-1.1,0.9c-0.4,0-1.3,0.7-2.1,1.6
		c-0.8,0.8-2.6,2-3.9,2.6c-1.5,0.7-2.7,1.7-3.1,2.8c-1.1,2.6-0.3,3.2,2.9,2.7c2.2-0.3,2.7-0.2,2.7,0.6c0,0.7,0.6,1,1.7,1
		c2.1,0,3.2-1,3.2-2.7c0-0.7,0.8-2.1,1.8-3.2c1.5-1.7,1.9-1.9,2.2-1.1c0.2,0.6,0.5,1.4,0.7,1.7s-0.2,0.9-0.9,1.1
		c-0.7,0.2-1.2,0.8-1.2,1.6c0,0.7-0.6,1.6-1.2,2.1s-1.2,1-1.2,1.2c0,0.7,4.2,0.6,4.7-0.1c0.8-1.3,1.5-0.6,1.2,1.2
		c-0.5,2.3,0.1,3.8,1.2,3.4c0.5-0.2,1.8-1.6,2.9-3.1c2-2.7,3.7-3.8,2.8-1.7c-0.2,0.6-0.4,1.7-0.4,2.5c0.1,0.9-0.4,1.4-1.5,1.7
		c-1,0.2-1.4,0.7-1.2,1.2c0.2,0.5,0.1,0.9-0.2,0.9c-1.1,0-0.7,3.5,0.5,4.5c1.6,1.5,6.9,1.4,8-0.1c0.7-0.9,1-0.9,2.1-0.3
		c1.7,1.1,1.7,1.1,2.7-1.6c1.2-2.9,2.7-4.4,3.6-3.4c0.4,0.4,0.4,1.1-0.1,1.9c-1.1,1.7-0.3,3.2,2,4.2c1.2,0.5,1.7,1,1.2,1.2
		c-0.4,0.2-0.7,1-0.7,1.7c0,0.6-0.2,1.2-0.6,1.2c-0.3,0-0.6-0.6-0.6-1.2c0-1.1-0.4-1.2-2.5-1.2c-1.7,0-2.6,0.3-3.1,1.1
		c-0.6,1.1-0.7,1.1-1.4,0c-0.6-0.7-1.4-1.1-2.4-0.9c-1.2,0.1-1.7,0.7-2.2,2.7l-0.7,2.5l-0.4-2.7c-0.4-2.6-0.4-2.7-1.6-1.7
		c-1,0.9-1.2,0.9-1.5,0.1c-0.2-0.5-1-0.9-1.7-0.9c-0.9,0-1.2,0.4-1.3,1.7c-0.1,1.5-0.1,1.6-0.4,0.3c-0.4-1.8-1.9-1.7-2.8,0.2
		c-0.7,1.7-1.5,2-1.9,0.7c-0.5-1.6-2.1,0.8-2.5,3.7c-0.3,2.8-1.2,4.6-2.1,3.8c-0.2-0.2-0.1-1.6,0.4-3.2c0.8-3.1,0.5-4.1-1.2-4.1
		c-0.7,0-1.5-0.6-1.9-1.3c-0.6-1.2-0.6-1.3,1.7-0.9c2.7,0.4,5.8-0.5,5.8-1.7c0-0.6,0.5-0.8,1.6-0.6c2.6,0.4,1.9-1.7-1.4-5.4
		c-4.1-4.4-6.9-4.4-5.2,0.2c0.4,0.9,0.2,1.4-0.8,1.9c-1.8,0.9-2.3,0.5-1.6-1.4c0.5-1.3,0.4-2-0.7-3.5c-1.7-2.5-2.2-2.9-3.6-2.5
		c-0.6,0.2-2.3-0.5-3.7-1.4c-2.4-1.6-2.7-1.7-3.4-0.7c-0.4,0.6-1.3,1.1-2,1.1c-3.5,0-2.8,3.4,1.1,6l2.7,1.7l-1.7,0.6
		c-1.9,0.7-2.2,2.2-0.4,2.2c0.7,0,1.2,0.4,1.2,0.9s-0.6,0.9-1.2,0.9c-0.9,0-1.2,0.4-1.2,1.7c-0.1,1.7-0.1,1.7-0.8,0.3
		c-0.6-1.1-0.9-1.2-1.6-0.6c-0.6,0.6-0.7,0.4-0.7-1c0-1.2-0.4-1.8-1.3-2.1c-1.2-0.4-1.2-0.4-0.1-1.7c2.2-2.4,2.2-2.9,0.4-4.8
		c-1.9-1.9-2.9-2.4-2.4-0.9c0.2,0.5,0.1,1.4-0.2,2c-0.6,0.9-0.7,0.9-1.7-0.6l-1.1-1.6l-1.7,1.6c-1.4,1.4-1.7,1.5-1.8,0.6
		c-0.3-1.3-3.2-2.6-4-1.7c-0.4,0.4-0.3,0.9,0.2,1.6c0.5,0.5,1.2,1.4,1.7,1.9c0.4,0.5,1.4,0.9,2,0.9c1.3,0,1.7,2.1,0.6,2.8
		c-0.8,0.5-0.2,2.7,1,4.1c1.1,1.2,0.4,2.1-0.9,1c-0.7-0.6-1-0.6-1.2,0c-0.4,1.3-1.4,0.9-1.4-0.6c-0.1-1.6-1.4-3.5-2.4-3.5
		c-0.4,0-0.6-0.3-0.3-0.7c0.6-1-1.1-3.7-2.2-3.7c-0.6,0-1.4,0.9-1.9,2c-0.5,1.1-1.4,2.2-2.1,2.3c-2.6,0.4-4.7,3.8-2.5,3.8
		c0.6,0,1.8-0.4,2.7-0.9c2.4-1.2,4.6-0.6,4.2,1.1c-0.2,0.9,0.1,1.6,0.9,2.2l1.3,0.8l-1.3,0.9c-1.5,1.1-1.7,2.7-0.5,3.9
		c0.6,0.7,0.5,0.8-0.6,0.6c-1-0.2-1.4,0-1.7,0.9c-0.2,1-0.5,1.2-1.1,0.6c-0.5-0.5-0.4-1.4,0.4-3.5c1.1-2.7,0.9-4.7-0.2-4.7
		c-0.3,0-0.7,0.6-0.9,1.2c-0.2,0.8-0.6,1.1-1.3,0.9c-0.7-0.2-1,0-1,0.9c0,0.7-0.2,1.3-0.6,1.3c-0.3,0-0.6-0.5-0.6-1.2
		c0-1.5-1.6-2.8-2.9-2.3c-0.7,0.3-0.9,0.7-0.6,1.8c0.5,1.3,0.5,7.9,0.1,8.4c-0.7,0.6-4.1-1.9-4.1-3c0-1.6-2.3-1.7-3.4-0.2
		c-0.6,0.9-0.9,0.9-2.1,0.2c-1.2-0.6-1.6-0.6-2.4,0.2c-0.8,0.8-0.7,1.4,0.6,5.4c0.9,2.4,1.3,4.5,1,4.7c-0.5,0.4-4.2-3.3-4.3-4.2
		c0-0.2-0.4-0.4-0.9-0.4c-0.7,0-0.9,0.7-0.9,2.5c0,2.7-1.2,3.8-2.7,2.6c-0.6-0.5-1.2-0.2-2.6,1.1c-2.2,2.3-3.9,2.8-4.4,1.2
		c-0.5-1.6-1.3-1.5-2.6,0.4c-1.4,2.2-0.7,7.2,1.1,7.2c1.6,0,1.6,2.9,0,3.4c-1.7,0.6-5.7,8.7-5.7,11.8c0,1.5-0.7,3.7-1.9,5.9
		c-1.6,2.9-1.8,3.7-1.3,5.1c0.6,1.4,1.2,1.7,3.9,2.1c3.8,0.5,4.9-0.3,4.9-3.5c0-1.6,0.1-1.7,1.7-1.4c1.4,0.3,2.2-0.1,4.7-2.2
		c1.6-1.4,2.9-3.1,2.9-3.6c0-1.7,2.1-3.2,4.5-3.2c1.7,0,3.1-0.6,5.4-2.5c3.9-3.1,5.1-4.7,5.1-7.2c0-2.3,1.7-4.6,4.6-6.4
		c2.4-1.6,5.4-5.7,5.4-7.7c0.1-1.7,3.4-6,4.1-5.3c0.3,0.2,0.2,1-0.2,1.6c-0.4,0.6-1.9,3.1-3.3,5.6c-1.5,2.6-3.2,4.9-4,5.2
		c-3.3,1.5-5.9,7.2-5.9,13c-0.1,1.8,0.4,2.6,2.4,4.2c1.3,1.1,2.8,2.1,3.3,2.1c1,0,2.4-1.6,3.4-3.7c0.4-0.9,3.2-4.3,6.3-7.6
		c3.1-3.4,5.8-6.6,6-7.3c0.5-1.7,2.2-2.2,2.2-0.7c0,0.6-0.3,1.4-0.6,1.6c-0.9,0.6-7.2,8.5-8.1,10.3c-1.7,3.3-6.4,8-8.5,8.8
		c-1.9,0.6-2.5,0.6-4.6-0.6l-2.4-1.4l-3.6,1.9c-4.1,2.1-5.5,3.9-8.7,11.3c-2.7,6.3-3,9.3-1,10.2c0.7,0.3,1.8,1.7,2.4,3.2
		c1.6,4.3,3.4,4.2,6-0.4c0.7-1.3,1.7-2.5,2.3-2.6c2.4-0.5,8.5,2.9,7.8,4.4c-0.1,0.5,0.2,1,0.8,1.2c0.6,0.2,2.6,1,4.4,1.8
		c2.9,1.2,3.2,1.6,3.2,3.2c0,2.2,0.8,2.9,3.6,3.5c1.8,0.4,2.3,0.2,4-1.7c2.6-2.8,6.5-3.7,12.9-3.2c3.5,0.2,4.9,0.2,5.3-0.4
		c0.2-0.4,0.1-2.4-0.3-4.4c-0.5-2.5-0.6-5-0.2-7.9l0.5-4.2l0.4,5.6c0.2,3.1,0.6,7.6,0.8,10l0.5,4.4l-2.9,0.4
		c-1.6,0.2-4.2,0.1-5.8-0.2c-4.2-0.9-5.5-0.4-6.4,2.5c-0.9,3.5-0.2,7.2,2.4,12.6l2.2,4.9l-1.5,2c-0.8,1.1-1.7,3.3-1.9,4.9
		c-0.2,1.6-0.7,4.2-1.1,5.9c-0.4,1.7-0.6,3.1-0.6,3.2c0.1,0.1,3.4-0.2,7.3-0.7c6.7-0.8,7.4-1.1,11.1-3.5l4-2.6l-0.4-2.9
		c-0.3-3.1,0.1-3.7,1.5-2.1c1.3,1.6,1.9,1.1,1.9-1.6c0-2.8,0.6-3.1,1.7-1.2c0.6,0.9,1.1,1.1,1.5,0.7c0.3-0.3,1.7-0.5,3-0.3
		c2.8,0.4,3.9-0.7,1.9-2.1c-2.9-1.9-5.7-6-4.8-6.9c0.2-0.2,1.4,0.6,2.7,1.9c3.4,3.4,4,3.1,3.7-1.8c-0.2-3.9-0.1-4.2,1.3-4.7
		c1.2-0.5,1.4-0.4,1,0.5c-0.2,0.6-0.6,2.7-0.8,4.7c-0.2,2.7-0.1,3.5,0.6,3.5c1.2-0.1,4.9-4.6,7.6-9.5c2.1-3.7,2.2-4.4,1.6-5.8
		c-1.1-2.4,0.2-3.4,2.4-1.6c2.1,1.6,3.4,1.7,3.4,0.1c0-0.8,0.3-1.1,0.9-0.9c0.6,0.2,0.9,0,0.9-0.6c0-0.6-0.2-1-0.6-1
		c-0.3,0-0.4-0.4-0.2-0.9c0.2-0.6-1-1.8-3.4-3.4c-4.1-2.8-4.7-3.5-4-4.5c0.2-0.4,2.8,1.7,6.5,5.4c5.1,5.1,6.1,5.9,6.8,5
		c0.6-0.7,0.5-1.4-0.6-3.6c-1.3-2.6-1.3-2.9-0.6-7.5c0.8-4.9,0.2-9.3-1.4-11.5c-0.8-1-0.2-1.5,1.1-1c0.6,0.2,1.2,1.1,1.4,1.8
		c0.2,0.9,0.7,1.4,1.2,1.1c0.5-0.2,0.9,0,0.9,0.4c0,0.4-0.4,0.9-0.9,1.1c-0.5,0.2-0.9,1.1-0.9,1.9c0,1.2,0.2,1.5,1,1.2
		c0.8-0.3,0.9-0.1,0.6,0.7c-1.7,4.2-1.8,12.3-0.1,10.8c0.4-0.4,1.3-1.8,1.9-3.2c1.6-3.5,1.8-2.7,0.3,1.1c-0.7,1.8-1.2,3.7-1.2,4.3
		c0,1.6,2.1-0.6,4.7-4.9c2.5-4.1,3.2-4.7,1.8-1.4c-0.5,1.2-1.4,3.2-1.9,4.4c-0.5,1.2-0.8,2.4-0.7,2.6c0.2,0.1,1.2-0.2,2.2-0.7
		c1.7-0.9,2.9-0.3,1.2,0.6c-0.4,0.2-0.5,0.8-0.3,1.3c0.2,0.6-0.2,0.9-1.9,0.9c-1.9,0-2.2,0.2-1.8,1.1c0.3,0.9,0.2,1-0.4,0.4
		c-0.4-0.4-1.3-0.8-1.9-0.8c-1.7,0-7,2.6-8.2,4c-1.3,1.6-1.4,4.6-0.2,6.2c0.7,1,1.1,1.1,2.4,0.4c1.6-0.9,9.8-1.3,9.8-0.5
		c0,0.2-0.4,0.9-0.9,1.4c-0.5,0.5-0.9,1.4-0.9,1.9c0,1.4-1.1,1.2-1.9-0.2c-0.6-1.1-1.3-1.2-4.9-1.2c-3.5,0-4.6-0.2-6.5-1.6
		c-1.3-0.9-2.5-1.5-2.6-1.4c-0.1,0.1-1,1.4-1.9,2.9c-1.4,2.2-1.6,3-1,4.2c0.4,0.8,0.9,1.5,1.3,1.5c0.4,0,1.4,0.7,2.2,1.7l1.5,1.6
		l1.7-1.6c1-0.9,1.9-1.7,2.2-1.7c0.8,0-0.9,2.7-2.4,4l-1.5,1.3l1.6,2.2c0.8,1.2,2.2,2.4,3.1,2.6c1.5,0.4,2.2,1.6,0.9,1.6
		c-1,0-5.6-3.1-5.6-3.7c0-0.3-1.1-1.3-2.5-2.2c-1.4-0.9-2.8-2.2-3.1-3.1c-0.8-2.2-1.9-2.7-3-1.1c-0.5,0.7-1.3,1.4-1.7,1.4
		c-1.3,0-2.6,2.9-1.6,3.9c1.1,1.1,0.9,1.7-0.4,1.7c-0.6,0-1.8,0.7-2.6,1.6c-0.8,0.9-2.2,1.6-3.1,1.6c-2.2,0-3.1,1.1-3.1,3.6
		c0,2.5,0.9,4.5,2.2,4.5c0.5,0,0.9,0.2,0.9,0.6c0,0.3-1.5,0.6-3.4,0.6c-5.2,0-5.2,0-4.8,13.6c0.1,2.1-0.4,4.3-1.2,6.2
		c-1.4,3.1-1.2,4.8,0.8,6.4c0.9,0.7,1.7,0.9,2.9,0.6c0.9-0.3,2.2-0.7,3.1-0.9c2.7-0.7,4.5-2.7,4.6-5.2c0.1-2.1,0.2-2.3,1.9-2.5
		c1.5-0.1,1.7,0,0.9,0.5c-0.6,0.3-1.2,1.5-1.4,2.6c-0.6,2.7-2.6,5-5.8,6.7c-3.1,1.6-3.5,2.1-3.1,4.2c0.6,2.2,4.6,2.1,7-0.1
		c0.9-0.9,2.1-1.6,2.7-1.6c0.6,0,1.6-0.9,2.2-1.9c0.7-1.1,1.7-2.1,2.3-2.2c0.6-0.2,2.5-1.2,4.2-2.4c1.7-1.2,3.8-2.3,4.7-2.6
		c0.9-0.2,2.5-1.4,3.5-2.7c4-4.9,27.2-53,38.2-79.8c5.9-14.1,6.4-15.1,14.3-26.7c5.7-8.3,9.2-13,11.6-15.1l3.4-3l6.2-0.1
		c3.7-0.1,7.8,0.2,10.2,0.8c2.2,0.6,6.3,1.1,9,1.4c4.8,0.4,5.1,0.3,8-1.5c1.6-1.1,3.2-1.9,3.5-1.9c0.3,0,1.2-0.6,2-1.4
		c0.8-0.7,8.6-5.5,17.3-10.6l15.9-9.2l5.6-8.4c3.1-4.7,5.8-8.7,6-9.1c0.2-0.4,1.1-0.1,2.2,0.7c1.7,1.2,1.9,1.2,5.3,0.4
		c3.4-0.9,3.7-0.9,6.7,0.6c2.6,1.4,3.8,1.6,7.8,1.4l4.8-0.1l2.9,3.2c2.1,2.2,3.7,3.4,5.4,3.9c2.4,0.7,2.7,0.6,7.5-2.1
		c2.7-1.6,5.4-3.1,6-3.2c0.6-0.2,2.4,0.4,4.2,1.3c1.7,0.9,3.7,1.6,4.4,1.6c0.7,0,3.4-1,6-2.2c4-1.8,4.9-2.5,5.7-4.4
		c1.2-3,2.1-3.2,5.4-1.3c3.5,2.1,8.5,2.3,8.5,0.4c0-0.6,0.5-1.5,1.1-1.8c1.4-0.7,3.9-6.9,3.9-9.5c0-1-0.6-2.4-1.2-3.1
		c-1.1-1.1-1.1-1.3-0.3-1.6c1.9-0.7,2.7,0.2,2.4,2.7c-0.3,2.1-0.1,2.9,1.4,4.7c1.8,2.2,3.5,2.9,4.4,1.6c0.2-0.4,0.7,0.1,1.3,1.4
		c1.1,2.6,3.1,4.2,5.3,4.3c1.6,0,3-0.7,9.3-4.9c1.7-1.1,3.5-1.9,3.9-1.8c0.4,0.1,1.2,0,1.9-0.3c1.3-0.7,1.4-4.2,0.2-10.8
		c-0.7-3.9-0.6-4.8,0.4-8.1c0.8-2.6,1-4,0.8-9.2h-282C338.9,241.8,339.6,243.4,339.9,243.8z M316.7,347.9c-1.7,0-1.7,1.1-0.1,2.4
		c2.7,2.2,2.1,8.2-0.6,7.4c-0.7-0.2-1.5,0.5-2.4,2.6c-1.7,3.5-2.5,3-1.1-0.7c0.8-2.2,1.4-2.9,2.9-3.2c2.7-0.6,2.7-2.4,0.2-4.7
		c-2.7-2.3-2.7-3.9-0.1-5c1.7-0.7,2-1.2,2.2-3.2c0.2-2,0.4-2.2,1.1-1.6c0.5,0.4,0.9,1.4,0.9,2.4
		C319.7,346.3,318.4,347.9,316.7,347.9z"/>
	<polygon points="110,160 92,215.3 101.7,215.3 	"/>
	<polygon points="106.1,215.3 113.9,215.3 128,215.3 110,160 101.7,215.3 	"/>
	<path d="M164.3,215.3c-0.5,1.4-1.1,2.7-1.8,3.9l23.6-3.9H164.3z"/>
	<path d="M113.9,215.3v10.5c0.3,0.4,0.6,0.7,0.9,0.9l1-1.4l0.8,1.5l3-0.5c0.1-0.3,0.3-0.6,0.4-1c0.9-2.8,2.1-4.2,5.1-6.2
		c2.6-1.6,3.3-1.6,15.3,0.1c2.4,0.3,4.8-0.8,8.3-4H128H113.9z"/>
	<path d="M162.5,219.2c-1.4,2.3-3,4-5.1,5.2c-1.5,0.9-2.7,1.6-2.7,1.7c0,0.1-0.8,2.9-1.9,6.2c-1,3.3-1.9,7.1-2.1,8.4
		c0,0.1,0,0.1,0,0.2l35.4-25.7L162.5,219.2z"/>
	<path d="M122.1,229.9l-1.9,2.6l12.1-3.9l3.4,10.5c0.1-0.1,0.1-0.2,0.2-0.3c1.5-2.9,5.3-13,5-13.3c-0.4-0.2-5.4-0.9-5.4-0.6
		c0,0.2,0.2,1,0.6,1.9c0.9,2.3-0.2,2.5-1.5,0.3c-1.1-1.7-1.4-1.9-3.4-1.5c-1.2,0.2-3.3,1.1-4.5,1.9c-1.3,0.8-2.9,1.5-3.5,1.5
		c-0.5,0-1.7,0.3-2.9,0.6L122.1,229.9z"/>
	<path d="M117.2,228.1c0.9,0.1,1.7-0.5,2.3-1.8l-3,0.5L117.2,228.1z"/>
	<path d="M132.3,228.6l-12.1,3.9l-0.4,0.6l3.7,7.2l2.2,0.7l-1.2,1.2l5.6,10.8c0-0.1,0.1-0.1,0.1-0.2c2.9-4.3,3.9-6.7,3.9-8.8
		c0-1,0.7-3.1,1.5-4.8L132.3,228.6z"/>
	<path d="M115.8,225.3l-1,1.4c0.9,0.9,1.7,1.3,2.4,1.4l-0.7-1.3L115.8,225.3z"/>
	<path d="M124.6,242.2l-4.7,4.8l6.4,8.8c1.9-0.1,2.3-0.5,3.9-2.8L124.6,242.2z"/>
	<polygon points="123.6,240.3 119.8,233.1 116.3,237.9 	"/>
	<path d="M119.9,246.9l-3.6,3.6c2.5,1.9,2.6,2.4,2.5,4.1c-0.1,2.2-0.1,2.2,1.9,1.6c1.1-0.3,3.2-0.6,4.8-0.6c0.3,0,0.6,0,0.8,0
		L119.9,246.9z"/>
	<path d="M119.9,246.9l4.7-4.8l1.2-1.2l-2.2-0.7l-7.2-2.4l-2.4,3.3v7.6c0,0,0,0,0,0c1,0.7,1.7,1.3,2.3,1.7L119.9,246.9z"/>
	<path d="M68.5,233.5c1.2,0.3,2.3,0.6,3.2,0.7l-3.5-1.8C67.5,233.1,67.7,233.3,68.5,233.5z"/>
	<path d="M113.9,241.3l2.4-3.3l3.5-4.8l0.4-0.6l1.9-2.6l-2-0.3c-0.4,0.1-0.8,0.2-1.1,0.4c-2.5,0.9-3,0.9-4.3,0
		c-0.2-0.1-0.5-0.3-0.8-0.4V241.3z"/>
	<path d="M69.3,231.5c-0.5,0.4-0.8,0.7-1,0.9l3.5,1.8c1.8,0.2,3.1,0.1,3.9-0.5c1.5-1,4.4-0.4,6.3,1.2c0.8,0.7,2.3,1.1,5,1.1
		c4.9,0.1,7.7-1.1,8.8-3.8c0.6-1.3,1.6-2.3,3.1-2.9c1.2-0.5,2.2-1.2,2.2-1.6c0-0.3-1.4-0.9-3.2-1.4c-2.4-0.6-3.6-1.4-4.8-2.9
		c-1.5-1.9-1.7-2-4.4-1.6c-2.8,0.4-2.9,0.4-1.7-0.8c1.5-1.8,1.3-3-1.1-5.8H75.5C74.6,222.8,72.2,229.2,69.3,231.5z"/>
	<path d="M106.1,215.3h-4.4H92h-2.2c3,2.8,8.1,5,13.6,5.4c4.4,0.4,8,2.1,10.2,4.6c0.1,0.2,0.3,0.3,0.4,0.5v-10.5H106.1z"/>
	<path d="M113.9,241.3v-11.7c-1-0.4-2.3-0.7-3.5-0.9c-2.7-0.4-2.9-0.3-4.3,1.6c-1.3,1.8-1.4,2.5-1.1,7.2c0.2,2.9,0.8,6.2,1.4,7.5
		c0.8,2,1.1,2.2,1.7,1.3c0.7-0.9,1.3-0.6,5.7,2.6V241.3z"/>
</g>
</svg>
