<?xml version="1.0" encoding="utf-8"?>
<!-- Generator: Adobe Illustrator 17.1.0, SVG Export Plug-In . SVG Version: 6.00 Build 0)  -->
<!DOCTYPE svg PUBLIC "-//W3C//DTD SVG 1.1//EN" "http://www.w3.org/Graphics/SVG/1.1/DTD/svg11.dtd">
<svg version="1.1" id="flag-icon-css-hk" xmlns="http://www.w3.org/2000/svg" xmlns:xlink="http://www.w3.org/1999/xlink" x="0px"
	 y="0px" viewBox="0 0 640 480" enable-background="new 0 0 640 480" xml:space="preserve">
<g>
	<path fill="#BA0000" d="M565,365.1c1.7,0,2.5-1.4,1.7-3c-0.5-1-0.7-1-2.2-0.2C562.4,362.9,562.8,365.1,565,365.1z"/>
	<path fill="#BA0000" d="M524.1,339.8c0.2,0.7,0.7,1.2,1.1,1.2c0.5,0,0.8-0.5,0.8-1.2c0-0.8-0.4-1.2-1.1-1.2
		C524.1,338.6,523.8,338.9,524.1,339.8z"/>
	<path fill="#BA0000" d="M531.9,261.8c-0.8-0.2-2.3,0.2-3.6,1c-1.3,0.7-2.3,1.5-2.3,1.7s1,3.4,2.3,7.2l2.3,6.8l2,0.2
		c1.1,0.1,2.7,0.3,3.4,0.5c1,0.3,1.9-0.1,3.1-1.1c2.9-2.5,2.9-3.3-0.1-8.6c-1.6-2.6-2.8-5-2.8-5.5
		C536.3,263.3,534.6,262.4,531.9,261.8z"/>
	<path fill="#BA0000" d="M563.8,347.6c-0.1,0-0.8,0.8-1.5,1.8c-0.7,1-1.3,2.5-1.3,3.4c0,1.6,0,1.6,1.1,0.5
		C563.1,352.3,564.5,347.6,563.8,347.6z"/>
	<path fill="#BA0000" d="M581.4,300.2c0.2-0.3,1-1.2,1.7-2l1.3-1.6l-1.5-3.9c-1.8-4.6-2.7-5.4-5.8-5.4c-1.8,0-2.3,0.2-2.3,1
		C574.9,289.9,580.9,300.9,581.4,300.2z"/>
	<path fill="#BA0000" d="M93.1,450.5l-1.9-1.2c-1-0.6-2.8-1.1-4-1.1c-2.3,0-5-1.1-6.2-2.7c-1.4-1.7-1.9-1-1.9,3.3
		c0,2.3,0.2,4.2,0.4,4.2c0.2,0,1.3-0.8,2.5-1.8c1.1-1,2.2-1.8,2.5-1.8c0.3,0,1.1,0.8,1.8,1.8c1.6,2.2,2.2,2.2,4.9,0.5L93.1,450.5z"
		/>
	<path fill="#BA0000" d="M493.7,444.6c-2.3,1.7-2.5,2-1.8,2.9c0.5,0.5,1.2,1.7,1.6,2.7c1,1.9,2.3,2.7,2.8,1.4
		c0.2-0.4,0.2-2.6,0.1-4.8l-0.2-4.1L493.7,444.6z"/>
	<path fill="#BA0000" d="M505.6,368.8c-0.7-1.1-1.2-3-1.2-4.3c0-1.3-0.2-2.5-0.5-2.7c-0.3-0.2-1.4,0.7-2.6,1.8
		c-1.7,1.8-2.3,2-3.9,1.7c-1-0.2-2.7-0.4-3.9-0.5c-2-0.1-2.1,0-3.9,4.3c-2.3,5.7-2,6.8,3.1,9.6c2.7,1.5,4,1.9,4.5,1.4
		c0.4-0.4,2.4-0.7,4.3-0.8c3.6-0.2,3.6-0.2,3.4-1.9c-0.1-0.9,0.2-2.3,0.7-3.1C507.1,372.5,507,371.2,505.6,368.8z"/>
	<path fill="#BA0000" d="M532.4,219.9c-0.2,0-0.4,0.2-0.5,0.4c-0.1,0.3-0.1,1.6,0.1,2.8c0.2,2.1,0.4,2.2,1.1,1.4
		c0.4-0.6,1.4-1,2.2-1c1.2,0,1.4,0.4,1.7,3.6c0.5,4.8,1.6,5.3,1.6,0.7c0-3.1-0.2-3.7-1.6-5.1C535.5,221.3,533.2,219.9,532.4,219.9z"
		/>
	<path fill="#BA0000" d="M578.7,276.5c0.8,0,1-0.6,1-4.1c0-2.6,0.3-4.5,0.9-5.3c0.8-1.3,0.7-2-0.6-2c-0.4,0-1.7,0.9-2.9,2
		c-1.9,1.7-2.2,2.4-2.2,4.6C574.9,274.3,576.5,276.5,578.7,276.5z"/>
	<path fill="#BA0000" d="M515.5,240.4c-0.5,0-0.9,0.5-0.9,1c0,0.6-0.5,1.7-1.2,2.6c-0.7,0.8-1.2,2.3-1.2,3.3c0,2.5,3.4,8.1,6,9.8
		l2,1.4l1.1-1.5c0.6-0.9,1.3-1.6,1.6-1.6c0.2,0,1.6,1,3,2.1c2,1.7,3,2.1,5.2,2.1c2.8,0,3.4-0.9,2.1-3c-0.4-0.5-0.1-1.5,0.9-2.9
		c1.6-2.4,2.7-5.7,2.7-8.4c0-2.2-1.6-3.7-5.4-5c-2.3-0.8-2.5-0.9-2.5-3.3c0-3.7-1.1-8.8-2.1-9.9c-0.6-0.7-0.9-2.3-0.9-4.7
		c0-2-0.2-3.7-0.4-3.7c-0.2,0-1.3,1.1-2.4,2.4c-2.8,3.3-4,3.3-2.9-0.1c1.7-4.9,0.8-5.5-2.2-1.5c-1.1,1.5-2.6,3-3.3,3.4
		c-0.7,0.4-1.9,1.9-2.6,3.4l-1.3,2.7l1.4,1.9C516.6,236.5,517.9,240.4,515.5,240.4z"/>
	<path fill="#BA0000" d="M513.1,220.3c1.3-1.7,1.1-2.6-1-3.6c-2.3-1.2-2.3-1.2-2.3,0.5c0,0.8,0.5,2,1.2,2.8
		C512.2,221.4,512.2,221.4,513.1,220.3z"/>
	<path fill="#BA0000" d="M433.5,124.8c-0.4,0.4-1.4,2.2-2.3,4c-1.3,2.6-1.4,3.3-0.8,3.7c0.4,0.3,1.1,0.4,1.4,0.4
		c1-0.3,4.6-6.6,4.4-7.7C435.9,124.2,434.3,123.9,433.5,124.8z"/>
	<path fill="#BA0000" d="M518.1,54.4c-0.8,0.5-2.2,2.7-3.2,4.9c-1.9,4.3-2.9,4.9-4,2.4c-0.7-1.4-1-1.5-2.9-1.2
		c-1.1,0.2-2.7,0.4-3.3,0.4c-0.8,0-1,0.2-0.4,0.5c0.4,0.3,1,2.1,1.3,4c0.3,1.9,0.8,3.7,1,4c1,0.8,5.5-1.8,6.9-3.9
		c1.6-2.4,1.9-2.5,4.8-1.3c1.9,0.8,2,0.7,3.4-0.9c0.8-1,1.7-1.7,2-1.7c0.4,0,2.2-1.4,4.1-3.3l3.4-3.3l-2.3-1c-2.2-0.8-2.3-1-2-3
		c0.4-2,0.3-2.2-3.1-4.3c-3.7-2.3-4.8-2.6-5.2-1.4c-0.2,0.4,0.1,1.5,0.6,2.5C520.5,50,519.8,53.3,518.1,54.4z"/>
	<path fill="#BA0000" d="M531.8,32.5c-0.1,0-0.8,1.6-1.5,3.4c-2.1,5.7-2.1,5.7-5.4,2.1c-3.4-3.7-4.9-4.1-4.9-1.1
		c0,1.1,0.4,2.4,0.8,2.9c0.7,0.8,6.8,5.6,8.7,6.8c1.7,1.1,2.3-0.7,2.4-7.5C532,35.6,532,32.5,531.8,32.5z"/>
	<path fill="#BA0000" d="M460.6,124.7c-0.5-2.2-1.1-2.2-3.6-0.5c-2.5,1.8-3.9,3.9-4.3,6.3l-0.4,2.2l1.4-0.9c0.8-0.5,3-1.5,4.9-2.2
		c3.9-1.4,5.7-3,3.6-3C461.3,126.5,460.9,126,460.6,124.7z"/>
	<path fill="#BA0000" d="M571.7,100.4c1,1.9,2.3,5.6,3.1,8.1c1,3.2,1.7,4.8,2.5,5.1c1.7,0.5,2.3-0.2,2.3-2.7c0-1.6,0.4-2.7,1.4-3.6
		c2.5-2.3,2.3-3.5-0.7-6.7c-2.2-2.3-2.7-3.3-2.3-4.3c0.4-1.6-0.6-3.1-2.4-3.7c-1-0.3-1.8,0.2-3.5,2L570,97L571.7,100.4z"/>
	<path fill="#BA0000" d="M576.4,78.2l1.2-3.4l1.3-3.4l-1.3-0.7c-1.6-1-1.5-1-3.9,1.3l-2,2l2.3,2.2L576.4,78.2z"/>
	<path fill="#BA0000" d="M502.1,281.6c1.6,1.1,7.1,1.3,7.1,0.3c0-0.4-1.6-2.3-3.6-4.3l-3.6-3.7l-0.6,1.7
		C500.3,278.3,500.6,280.6,502.1,281.6z"/>
	<path fill="#BA0000" d="M618.8,168.2c-2.6-2.3-3-3-3-5.1c0-1.3-0.3-2.9-0.6-3.5c-0.4-0.8-0.4-1.3,0.1-1.5c0.5-0.4,3-5.3,3-6.1
		c0-0.1-0.4-0.2-0.9-0.2c-1.4,0-4.6-1.7-6.4-3.4c-1.5-1.4-1.7-1.4-3.3-0.6c-1,0.5-3.1,1.3-4.8,1.8c-2.8,0.8-3.3,0.8-4.8-0.1
		c-1.2-0.6-3.2-0.9-5.8-0.8c-3.6,0.1-4.2-0.1-6-1.5c-2.2-1.9-4.1-5.7-4.2-8.3c0-1,0.7-2.5,1.5-3.5c1.9-2.3,2.2-7.7,0.4-9.5
		c-1.2-1.2-6.5-3.4-7-3c-0.1,0.2,0,1.6,0.4,3.2c0.8,3.6,0.6,3.8-5.2,6.7c-3.4,1.7-4.3,2.4-3.9,3c0.4,0.5,0.4,1.2-0.1,2.3
		c-0.6,1.4-0.5,1.8,0.9,3.4c1.8,2.2,2,4.3,0.6,7.6c-0.8,1.9-0.9,3.5-0.5,8.7c0.4,6.3,0.4,6.4-1,7.4c-1.7,1.2-4.2,1.3-5.7,0.1
		c-1.1-0.8-1.1-0.9,0.3-2.4c1.2-1.3,1.4-1.9,1.1-4.3c-0.2-1.5-1-4.3-1.7-6.2c-1.2-2.9-1.6-3.4-2.9-3.4c-1.2,0-1.7,0.5-2.6,2.4
		c-2.3,5.3-3.2,6.6-4.1,6.8c-1.3,0.2-2.7-2.8-3.3-6.8c-0.2-1.6-0.8-3.7-1.3-4.6c-1-1.9-0.7-2.3,2-2.3c4.1,0,6-4.8,2.8-7
		c-1-0.8-1.7-2-2-3.4c-0.5-2.8,0.1-14,0.7-14.6c0.2-0.3,1.7,0.1,3.1,0.9c2.9,1.5,4.7,1.3,5.8-0.6c0.5-1,0.4-1.7-0.9-3.5
		c-1.1-1.6-1.9-3.9-2.5-7.9c-1.4-8.3-1.4-8.3-3.7-6c-1,1-1.9,2-1.7,2.3c0.1,0.2,0.5,1.1,1,2c0.8,1.5,0.7,1.9-0.7,4.8
		c-0.9,1.7-1.8,3.9-2,4.8c-0.5,2-0.7,2.1-4.8,2.9c-2.8,0.5-3.7,0.5-4.9-0.4c-0.8-0.5-1.4-1.2-1.4-1.5s1.3-2.6,2.8-5.1
		c1.5-2.5,2.6-4.8,2.4-5.1c-0.2-0.4-1.3-0.2-3,0.5c-3.3,1.5-4.9,1.5-6.5-0.1c-1-1-1.2-1.9-1-4.5c0.1-1.8,0.1-3.3-0.1-3.3
		c-0.2,0-0.8,0.4-1.4,0.9c-0.7,0.5-1.7,0.9-2.5,0.9c-0.8,0-1.6,0.6-2,1.5c-0.4,0.8-2.3,2.5-4.2,3.7c-7,4.4-9.8,8.1-10.7,14.3
		l-0.7,4.2l-3.4,0.9c-3.4,0.8-3.5,0.8-4.9-0.4l-1.4-1.3l-0.7,1.5c-0.4,0.8-0.7,2-0.7,2.6s-0.5,2.1-1.1,3.4l-1.1,2.3l-1.4-1.9
		c-0.8-1.1-1.7-1.9-2-1.9c-0.3,0-1.9,0.8-3.4,1.9c-2.8,1.8-4.8,4.3-5.7,7c-0.4,1.3-0.2,1.4,0.7,1.1c1.4-0.4,5.3,2,5.3,3.3
		c0,0.5-0.6,1-1.3,1.1c-1.1,0.2-1.3,0.4-0.8,1.2c0.3,0.5,0.7,2.3,1,4c0.5,3.2,1.9,6,3.9,7.8c1.7,1.6,1.5,3.1-0.6,3.9
		c-1,0.4-2.3,1.5-3.1,2.8c-0.7,1.2-2.3,2.7-3.6,3.3c-1.3,0.7-3.4,2.4-4.7,3.9s-2.6,2.7-2.8,2.7c-0.2,0-0.3-1.2-0.2-2.7
		c0.5-3.8-0.4-7.8-2.8-12.9c-1.1-2.4-2.1-4.8-2.1-5.2c0-1-0.4-1-3.7-0.2c-2.1,0.6-3.4,0.5-6.8-0.2l-4.2-1l-3.9,1.7
		c-4.3,2-5.1,2.2-6,1c-0.5-0.6-0.4-1.1,0.2-2c1.2-1.6,1.1-1.7-1.3-2.6c-1.4-0.5-3.2-0.6-4.9-0.4l-2.7,0.4l0.4,2.3
		c0.7,4.3-1,5.8-8.1,7c-6.6,1.2-6.7,1.4-8.1,12c-0.4,2.8-0.8,5-1.3,6.9c4.7,3.1,9,6.9,13,11.5c5.9,8.7,10.2,18.2,14.1,28
		c-3.3-1.9-6.4-3.3-10-3.5c-6.3-0.5-11.3,2.8-15.8,7.4c-5.3,5.8-11.8,10.3-19.2,13.2c-11.3,5-24.4,3.6-34.3-3.8
		c-6.4-4.6-10.2-11.1-17.1-15.2c-5.7-3.1-10.9-4.5-18.8-3.2c-14.6,4.3-15.3,8.8-21.4,16c0,0,5.6-52.5,59.5-61.8
		c15.8-0.7,29.4,1.2,41.2,6.5c0.1-1.5,0.1-3.1,0.1-4.7v-7l-8-6.6c-10.4-8.6-12.6-9.7-21.1-11.5c-3.9-0.8-8-2-9.3-2.7
		c-4.8-2.4-7.2-7.3-4.2-8.4c0.7-0.3,2-1.2,2.8-2c1.9-2.2,3.9-2.4,9-1.3c2.5,0.5,5.1,0.9,5.8,0.9c2.3,0,4-1.9,4.6-5.1
		c0.9-5,2.2-5.5,7.9-3.4c4.2,1.6,4.5,1.5,3-0.4c-0.7-0.9-1.3-1.9-1.3-2.2c0-0.5,6.5-10.5,8.7-13.3c0.8-1.1,1-1.1,2.7,0.2
		c1.6,1.2,2.3,1.3,5.7,1c2-0.2,5.6-0.5,7.9-0.7l4-0.4v2.2c0,3.5,1.5,2.7,2.7-1.4c0.6-2,1.9-4.6,3-5.9c1.1-1.3,2.8-3.7,3.9-5.4l2-3.1
		l-0.7-4.7c-0.4-2.6-1.5-7.2-2.5-10.3c-2.5-8-1.7-8.1,2.1-0.4c2.8,5.5,4.8,7.5,8.7,8.1c1.9,0.3,4.9,1.6,7.8,3.3
		c2.7,1.6,5.1,2.8,5.4,2.8c0.4,0,1.8-1.4,3.3-3.1l2.6-3.1l2.7,0.4c3.9,0.7,6.9,0.5,11.9-0.7c2.3-0.5,4.8-0.8,5.2-0.7
		c1.3,0.5,1.2,2.4-0.2,3.3c-0.7,0.4-1.2,1.4-1.2,2.2c0,1.9,0.8,1.9,2,0.2c0.8-1.1,1.2-1.2,2.5-0.7c3.4,1.1,3.2,2.1-1.6,7.8
		c-5.2,6.3-8.2,8.1-13,8.1c-2,0-4,0.4-5.4,1.2c-1.3,0.7-2.7,1.2-3.3,1.2c-2,0-6.5,4.9-6.5,7.2c0,0.3,0.8,0.6,1.8,0.6
		c2.2,0,2.2,0.5,0.5,3.7c-0.7,1.4-1.1,2.5-1,2.7c0.1,0.1,2.1-1.4,4.4-3.4c2.3-2,6.1-5.1,8.4-6.8c3.8-2.8,4.6-3.2,7.9-3.4
		c4.5-0.3,12-3.7,15.7-7.1c1.9-1.8,3.1-2.4,4.6-2.4c2.5,0,7.5-2.5,9.8-4.8c1.3-1.4,1.5-1.8,0.7-1.8c-1.6,0-1.3-0.7,1-2.6
		c2.2-1.7,3.7-2,4.1-0.9c0.5,1.5,4.9-2.6,10.1-9.5c1.1-1.5,5-5.2,8.6-8.2c3.6-3,6.4-5.9,6.4-6.4c0-0.7-0.3-0.8-1-0.4
		c-3.4,1.4-15.2,5.1-16.7,5.1c-1,0-5,1.1-8.9,2.4c-8,2.7-10,2.9-12.1,1.2c-1.1-0.8-1.7-1-2.2-0.5c-0.5,0.5-1.6-0.2-4.3-3
		c-3.3-3.4-4.8-4.5-4.8-3.3c0,0.3-0.2,0.8-0.5,1.3c-0.4,0.7-0.9,0.7-2.7-0.1c-1.2-0.5-2.2-1.1-2.2-1.5c0-0.3-1-1.1-2.1-1.9
		c-2-1.3-2.2-1.3-5.4-0.4c-4,1.2-5.4,1.2-6.3,0.1c-0.5-0.6-0.5-1.2,0-2.4c0.6-1.2,0.6-1.7,0.1-2.3c-1-1-0.9-2.9,0.3-4.2
		c1-1.1,1.1-1,3,0.8l2,1.9v-1.6c0-1,0.6-2.3,1.5-3.2c0.8-0.8,1.5-1.9,1.5-2.3c0-0.4,0.7-1.4,1.6-2c1.5-1.1,1.5-1.3,0.4-1.3
		c-0.7,0-1.4,0.2-1.6,0.6c-0.5,0.8-2.5,0.7-3.2-0.2c-0.5-0.6-0.3-1.3,0.8-3c1.9-2.7,1.9-2.8-0.1-2.9c-1,0-2.2-0.2-2.9-0.5
		c-1-0.4-1.4-0.1-2.1,1.3c-1.4,2.8-2.6,3.3-5,1.9c-1.9-1-2.4-1-4.5-0.4c-3.3,1.1-4.3,0.6-4.3-2.1c0-2.8,1.6-6.2,3.4-7
		c0.7-0.3,1.4-1.1,1.4-1.7c0-1.1-0.1-1.1-1.3-0.2c-0.7,0.5-1.9,1-2.5,1c-1,0-1.1-0.3-0.7-3c0.4-3.2,0.1-3.6-1.8-2.1
		c-1.6,1.3-3.1,1.1-3.9-0.4c-0.5-1-0.4-1.5,0.6-2.6c1.4-1.4,1.6-2.8,0.7-3.7c-0.5-0.5-0.4-1.1,0.1-2.3c0.6-1.2,0.6-1.7,0.1-2.3
		c-0.5-0.5-1.1-0.2-2.5,1.3c-1.7,2-1.7,2-2.4,0.7l-0.7-1.3l-1.5,1.8c-0.8,1-1.9,1.8-2.3,1.8c-1.1,0-3.3-2.9-3.3-4.5
		c-0.1-1-0.4-0.7-1.3,1.1c-1.1,2.2-1.3,2.3-2,1.3c-0.5-0.6-1-1-1.1-0.8c-0.6,0.6-3.4,7.4-3.4,8.3c0,1.3-2.8,7.3-4,8.6
		c-1.2,1.3-2.2,1.4-3.5,0.1c-0.9-1-1.2-0.8-3.7,1.7c-3.1,3.1-4.5,3.8-6.1,2.9c-1-0.5-1.3-0.4-1.9,0.9c-1,2.3-4.4,3.4-9.5,3.1
		c-5.1-0.2-7-1.4-5.7-3.5c0.4-0.7,0.7-1.9,0.7-2.7c0-2,4.1-7.8,8.9-12.5c4.3-4.3,7.8-6.2,9.3-5.2c1.9,1.2,3,0.7,3-1.7
		c0-2.8-0.4-3.4-3.1-4.5c-1.1-0.5-3.1-1.7-4.2-2.7c-1.5-1.3-3.4-2.1-7.5-3l-5.4-1.3l-10.5,1.4c-8.5,1.1-11,1.3-13.1,0.8
		c-1.9-0.5-3-0.5-4.3,0.1c-2.5,1-4,0.3-5.1-2.5c-0.6-1.5-1.5-2.6-2.5-3c-2-0.8-10.5-0.8-10.5,0c0,1.1-2.9,0.6-3.7-0.7
		c-0.8-1.2-0.9-1.1-3.9,2.8c-2,2.8-3.4,4.2-4.6,4.4c-1,0.2-1.7,0.7-1.7,1.1c0,0.5-0.7,1.6-1.5,2.6c-1.8,2.2-1.9,3.7-0.3,3.7
		c1.6,0,1.6,0.3-0.7,3.7c-2,3.2-3.5,3.9-7.2,3.3c-1.3-0.2-3.4-0.5-4.8-0.7c-1.6-0.3-3-0.1-4.5,0.6c-1.2,0.6-2.7,0.8-3.6,0.6
		c-1.7-0.4-5.2,1.2-10.4,4.9c-2,1.4-4.4,2.8-5.2,3c-1,0.2-1.6,0.8-1.6,1.4c0,1.4-3.4,4.2-5.1,4.2c-1,0-1.9-0.8-3.1-2.5
		c-2-3.1-3.3-3.5-4.3-1.4c-0.8,1.8-2.5,2-2.5,0.3c0-1.1-0.2-1.2-2.5-0.8c-2,0.4-3.1,0.1-5.6-1.3c-3.8-2-5.4-1.8-8.7,1.2
		c-3.7,3.3-4.5,5.5-3.6,9.9c0.7,3.5,0.7,3.7-0.9,6.1c-2.3,3.4-5.2,6-6.7,6c-0.7,0-2.3-0.7-3.5-1.5c-3-2-6-1.9-10,0.1
		c-3.9,2-5.4,4-6.1,7.7c-0.7,3.8-2.5,6-5.7,7.2c-2.7,1-2.8,1-8-0.6c-6.5-2-8.7-1.8-13.2,1.3c-4,2.8-4.1,2.9-3.2,4.3
		c0.6,1,0.4,1.9-0.9,5.3c-1.1,2.6-1.6,5.2-1.6,7.2c0,4.1-1.4,6.4-5.2,8.3l-3.1,1.5l4,4.3c3.4,3.7,4.4,4.3,6.7,4.7
		c7,1.1,11.4,6.9,15.2,20.1c1,3.7,1.7,4.9,3.8,6.7c8.1,7.3,8.9,8.1,8.7,9.1c-0.2,0.8-1.7-0.3-6.4-4.4c-6.9-6-8.3-8.3-10.5-16.9
		c-1.8-6.9-3.7-8.9-10.7-11.1c-2.8-0.8-5.1-1.6-5.3-1.6c-0.7,0-0.1,3.4,1.3,6.7c1.5,3.7,1.8,6.4,0.9,8.6c-0.4,1.1-0.5,1-0.9-0.6
		c-0.8-3.7-1-4.3-2.5-8c-0.8-2.2-1.4-4.9-1.4-6.8c0-3.3-1.6-6.4-5.3-9.8c-2.2-2-2.7-1.9-7,2.5c-2.9,3-4.3,3.6-5.4,2.5
		c-0.4-0.4-1.9-0.4-3.8,0c-4.2,0.8-5.2,0.4-2.6-1c1.1-0.7,2.5-1.6,3.1-2.1c1.1-1.1,2.3-6,2.3-9.5v-2.3l-5.8-1.9
		c-8-2.5-9.3-1.9-11.4,5.4c-0.9,3.1-1.5,4-6.9,8.9c-6.6,6.1-7.8,8.3-9,15.4c-1.2,7.5-2.9,9-12.5,11.4c-3.1,0.8-6.6,2-7.7,2.7
		c-3.7,2.3-11.9,14.9-12.5,19.2c-0.2,1.4-1.1,3.5-1.9,4.6c-3.6,4.8-13.3,8.9-24,10.3c-4.5,0.6-7.2,1.3-8.3,2
		c-1.5,1.1-15.1,17.5-15.1,18.3c0,0.2,1.8,0.7,4,1.1c4.7,0.8,9.3,2.7,10.8,4.3c1,1.1,1,1.3-0.2,3.7c-1.5,3.1-1.1,4.7,2.1,8.8
		c4.9,6.2,5,12,0.2,16.2l-2.2,2l3.6,3.4c2,1.9,6.9,6,10.8,9l7.2,5.6l0.4-2c0.7-4.1,2-4.5,5.8-1.7c1.4,1,2.7,1.6,2.8,1.4
		c0.2-0.2,1.2,0.4,2.2,1.3l1.8,1.7v-3.1c0-2.7,0.2-3.4,1.5-4.5c0.8-0.7,2.4-2.2,3.5-3.2c5.4-5.2,8.4-6,16.7-4.1
		c2.3,0.5,4.3,0.8,4.5,0.7s-0.5-1.8-1.5-3.8c-1-1.9-1.6-3.7-1.4-4c0.1-0.2,1.7-1,3.6-1.7l3.4-1.2l3.1,1.9c1.7,1.1,4.9,3.3,7,5
		c2.2,1.7,4.9,3.6,5.9,4.1c1.4,0.8,1.9,1.4,1.9,2.9c0,1.5,0.7,2.7,3.3,5.3l3.3,3.4l3.5-1.4c6.3-2.4,8-2.8,9.2-2
		c0.5,0.4,1.7,1,2.5,1.4c4.9,2.1,7,3.4,8.9,5.8c3.5,4.3,7.5,5.4,13.2,3.3c-15.7-12.9-24.8-27.8-26.6-47.2c0.3-10.6,2.3-20.8,4.8-31
		c1.6,3.4,3.4,6.4,6.1,8.6c4.8,4,10.8,4.2,17.2,3.2c7.5-1.6,14.7-1.6,23.2,0.6c12.1,2.5,21.9,11.4,25.7,23.1
		c2.5,7.4,1.7,14.9,5,22.4c1.1,2.2,2.2,4.2,3.6,6c4.8,0.8,6.1,0.7,10,0.1c3.3-0.6,5.5-1.4,7.4-2.7c1.5-1,3-1.9,3.2-1.9
		s2.1,1.6,4.2,3.6c3.6,3.3,3.7,3.7,3.7,6.3c0,1.2,0.2,2.3,0.8,3.8c2.1-0.6,4.4-1.4,7.1-2c0.1-0.1,0.1-0.1,0.1-0.1v0.1
		c0,0-0.1,0-0.1,0c-0.5,0.5-2.4,2.6-5.7,5.3c0.1,0.2,0.2,0.4,0.3,0.7c2.3,4.6,2.4,4.9,1.4,5.7c-1,0.7-1,0.8,0.1,2.4
		c0.7,0.9,1.9,1.8,2.7,2c0.9,0.2,1.7,1.3,3,3.9c4.4-7.4,3.3-11.6,4.1-19.2v0.1c0,0,8.6,15.8,8,36.5c2.9-0.2,3.1,0,3.7,1.3
		c0.6,1.3,0.5,1.7-0.2,2.2c-0.3,0.2-1.8,0.8-3.8,1.7c-0.3,2.8-0.7,5.8-1.4,8.7c0.8,0,1.6,0,2.5-0.1c4.5-0.2,4.8-0.2,7.7,1.6
		c0,0,0,0,0,0c0.2-0.7,0.4-1.4,0.6-2c0.4-1.4,0.9-2.8,1.5-4.1c-0.6-1-0.4-1.7,0.5-1.7c0.1,0,0.2,0,0.3,0c0.1-0.3,0.2-0.5,0.4-0.8
		c-0.2-0.3-0.6-0.6-1.1-1c-1.1-0.9-1.2-1.3-0.7-1.9c0.6-0.5,0.9-0.6,1.6,0c0.7,0.6,1,0.5,1.3-0.5c0.2-0.8,0.5-1.2,1.2-1.1
		c1.6-3.1,3.1-6.3,3.9-10c1.1-6.4,0.8-11.7-2.9-18.8c-8.7-12.4-13.3-11.8-22-15.3c0,0,51.7-11.3,77.5,36.9c2.1,5.5,3.8,10.8,5,16
		c0.7,0.3,1.8,1.1,3.5,2.4c2.2,1.7,4.6,4,5.4,4.9c1.4,1.7,1.6,1.7,2.8,0.9c0.7-0.5,1.6-0.7,2.1-0.5c0.4,0.1,3.8,3.7,7.5,8
		c7.5,8.7,10.4,11.4,12,11.4c0.6,0,1.9,0.3,2.7,0.7l1.5,0.7l-1.3,1.4c-1.2,1.3-1.2,1.5-0.4,3c0.5,0.8,1.6,1.9,2.5,2.2
		c1.4,0.5,1.6,0.9,1.3,2.2c-0.3,1.4-0.1,1.8,2.5,3.2c1.5,0.8,3.1,1.6,3.5,1.5c0.5,0,12.6-14.8,14.2-17.3c0.5-0.7,5.1-1.8,7.8-1.9
		c1.8,0,1.9,0.1,1.3,1.3c-0.5,1.1-0.4,1.7,1.2,3.8c1.1,1.3,2.2,3.2,2.5,4.1c0.4,1,1,1.5,1.5,1.3c1-0.4,3.3,1.4,3.3,2.4
		c0,0.4-1.1,2.5-2.3,4.6c-1.3,2.2-2.8,5.8-3.3,8.1c-1.3,5.7-1.3,6.4,0.5,6.4c1.8,0,2.4,0.8,1.6,2.3c-0.7,1.3-0.2,2.1,3.5,7
		c1.5,2,2.8,3.7,2.9,3.9c0.2,0.4,7.1-5.2,8.8-7.2c1.4-1.7,1.9-1.9,3.6-1.6c2.7,0.5,7.8,4.2,12.3,8.7l3.7,3.8l-0.4-3.1
		c-0.3-2.5-0.2-3.1,0.7-3.4c0.6-0.2,1.5,0.1,2.2,0.7c0.9,0.8,1.4,1,2.2,0.5c1.7-1.1,1.4-2.5-1.1-4.9c-1.4-1.3-2.9-3-3.4-3.9
		c-1.3-2.5-1.1-5.7,0.5-7.1c0.7-0.7,1-1.2,0.7-1.2c-0.3,0-1.1,0.5-1.7,1.2c-1.3,1.4-2.3,1.5-4.1,0.4c-0.7-0.5-2.7-1-4.2-1.3
		c-4.7-0.7-6.8-3.9-3.9-6c1-0.7,1.2-1.1,0.6-1.7c-1.1-1.1-0.8-3.2,0.7-4.6c1.9-1.8,2.9-1.7,7.3,0.8c2.1,1.1,4.1,2.1,4.5,2.1
		c0.4,0,1.4-1.1,2.3-2.5c1.1-1.8,2.4-2.8,4.5-3.7c3.1-1.3,4.2-2.7,2.7-3.6c-0.8-0.4-0.7-0.7,0.6-2.3c2.5-3,2-4.6-2.8-9.5
		c-2.3-2.3-4.8-4.5-5.4-4.6c-0.7-0.2-2.4,0.3-4.5,1.5c-2.7,1.6-3.8,1.9-5.5,1.6c-2.8-0.5-3-0.7-1.7-3c1-2,1-2-0.7-5.2
		c-0.9-1.8-1.8-4.3-2-5.4c-0.4-2.1-0.4-2.1-3.4-2c-1.7,0.1-4,0.2-5.2,0.5c-1.6,0.3-3,0.1-5.3-0.9c-4.2-1.8-5.5-3.6-5.5-7.5
		c0-4.7-1.9-11-4.1-13.2c-1.9-1.9-3.7-5.7-4.8-9.7c-0.5-1.7-0.4-2.2,0.4-3c0.6-0.5,1.5-1,2-1c0.6,0,1-0.5,1-1.2c0-1-0.2-1.1-1.1-0.6
		c-2.3,1.2-3.6,0.7-5.6-2c-2.3-3.4-4.7-4.5-7.3-3.4c-3.4,1.4-3.7,1.3-3.7-2v-3l2.3,0.1c2,0.1,2.2,0,2.2-1.3c0-2.2,3.5-8.7,6.2-11.6
		c2.8-3,3.6-2.8,6.4,1.4c2.5,3.9,2.5,6-0.2,8.7c-2.2,2.1-2.8,4.2-1.3,4.2c0.5,0,1.9-0.6,3.1-1.3l2.2-1.3l-0.4,2.3
		c-0.4,2.4,0.5,4.9,2.3,6.4c0.8,0.7,1.2,0.5,2.7-1c1.5-1.5,1.6-1.9,1-3.2c-0.5-1.1-0.5-1.5,0.1-1.7c1.4-0.4,0.7-1.7-2.6-5.5
		c-3.1-3.4-3.3-3.9-3.3-6.7c0-1.6,0.4-4,0.9-5.2c1.3-3.1,1.1-4.4-0.7-6.4l-1.7-1.7l2-1.8c1.1-1,2.7-1.9,3.6-2.1
		c1.6-0.3,1.6-0.4,1.6-4.8c0-4.2,0.1-4.6,2-6.6c1.1-1.1,3.2-2.7,4.6-3.4c2.3-1.3,2.7-1.3,4.1-0.5c0.8,0.4,2.5,2.2,3.8,4
		c2,3,3.2,3.9,3.2,2.6c0-0.4,0.6-0.6,1.3-0.6c0.8,0,2.4,1.2,4.2,3.1c2.8,3,2.8,3.1,3.6,1.7c0.7-1.2,0.8-1.2,1.7-0.4
		c0.6,0.5,2.1,1,3.6,1h2.5l-0.4-2c-0.7-4.2,3.3-7.1,10.4-8c1.8-0.2,3.3-0.2,3.3,0.1c0,0.2-0.7,1.2-1.5,2l-1.6,1.6l1.3,1.7
		c1.1,1.3,1.2,1.9,0.7,2.8c-0.8,1.3-1,4.8-0.2,4.8c0.3,0,0.8-0.4,1.3-0.9c0.4-0.5,1.3-0.9,1.9-0.9c0.8,0,1.1,0.4,1.1,1.7
		c0,1.5,0.6,2.2,4,4.6l4,2.9l1.8-1.1c1.8-1,1.9-1,2.7,0.1c0.5,0.7,0.7,2.4,0.6,5.1c-0.1,3.7,0,4.2,1.2,5c1.6,1.1,1.7,2.1,0.4,2.1
		c-1.6,0-4.3,1.9-5.1,3.5c-0.9,2.1,0.4,3.9,5.9,7.5c2.4,1.6,4.6,3.4,4.9,4.1c0.6,1,0.4,1.2-1.2,1.5c-1,0.2-1.8,0.6-1.8,0.8
		c0,0.6,3.6,5.1,4.1,5.1c1.4-0.1,5.7-3,6.4-4.5c1.7-3.4,4.5-1.7,5.4,3.1c0.4,2,0.3,2.2-1.1,2.4l-1.6,0.2l3.4,6.9
		c2.2,4.5,3.6,6.7,4,6.3c0.3-0.3,1.1-1.9,1.7-3.6c1-2.7,1.1-3.1,0.2-5.2c-0.7-1.6-0.7-2.7-0.4-3.9c0.4-1,0.4-2.2,0-3.3
		c-1.3-3.4,1.2-4.8,3.7-2.1c1.3,1.4,3.7,2.5,3.7,1.7c0-0.2-0.6-1-1.3-1.7c-1.5-1.6-1.1-3.3,0.7-3.3c0.7,0,2.3,0.6,3.6,1.3
		c2.2,1.3,2.3,1.3,3.5,0.3c0.6-0.5,1.4-2.1,1.9-3.4c0.5-1.9,1-2.5,2.7-2.8l1.9-0.5l-2.7-0.4c-1.5-0.2-3.8-0.5-5.2-0.5
		c-1.6-0.1-2.8-0.5-3.6-1.3c-0.8-0.9-1.6-1.1-3.3-0.9c-2.8,0.4-7.5-2.4-10.4-6.3c-2.5-3.2-3.6-3.7-3.6-1.7c0,3.2-1.1,2.8-6.6-2.5
		c-5.1-4.9-5.4-5.4-5.4-7.7c0-1.9-0.4-2.8-1.6-3.9c-2.3-2.2-2.8-3.3-2-5c0.7-1.4,0.5-1.9-1.5-4.9c-2.4-3.6-2.5-4.4-0.4-3.3
		c0.7,0.4,1.9,0.5,2.7,0.4c1.1-0.3,1.9,0.2,4,2.7c2.5,3,2.5,3.1,3.3,1.7l0.7-1.4l1.1,2.1c0.6,1.1,1.7,2.7,2.4,3.4
		c1.1,1.2,1.5,1.3,3.5,0.8c1.2-0.4,3.4-1.1,4.9-1.8c1.4-0.6,3.7-1.1,5-1.1h2.3l-1,3c-0.8,2.8-0.8,3.1,0.1,4.6
		c1.7,2.7,2.5,2.5,6.7-1.4c3.8-3.4,5.7-4.5,5.7-3.1c0,0.3-2.2,2.8-4.8,5.5l-4.8,4.9l1.6,2.6c1.3,2,2.2,2.7,4.9,3.6
		c2.3,0.8,3.6,1.6,4.2,2.7c1,1.7,5,4.7,6.3,4.7c0.8,0,1.6-1.3,1.6-2.7c0-0.4-1.2-2.3-2.7-4.3c-3.6-4.6-3.5-6,0.5-6.2
		c4.7-0.3,5.4,0.1,7.2,4c0.9,2,2.3,4.2,3.2,5l1.6,1.4l1.4-1.8c0.8-1,1.4-2.1,1.4-2.5c0-0.4-1.2-2.5-2.7-4.6
		c-1.5-2.2-2.7-4.3-2.7-4.6c0-0.4,0.9-0.6,2-0.6h2l-0.2-3.2c-0.7-8.9-1.6-10.8-5.8-11.9c-2.8-0.7-5.2-2.7-7.2-5.8
		c-1-1.6-1.6-1.9-3.4-1.9c-4,0-8.3-3.6-5.8-5c2.6-1.4,3.7-3.3,4.2-6.7c0.3-2.4,0.8-3.7,1.7-4.5c0.7-0.5,2-2.3,2.9-3.8
		c1.9-3.3,6.4-7.6,8.6-8.1c2.6-0.6,4.3,0.2,8.8,4c2.3,2,5,4,5.9,4.5c1.9,1,5.9,1.1,6.4,0.2C625.2,176.6,621.8,171,618.8,168.2z
		 M310.9,232.9c0,0-48.5-20.9-41.5-75c6.7-26,18.6-43.8,40.1-53.5c10.2-3.1,20.5-4.5,31-5.4c-2.8,2.6-5.1,5.3-6.3,8.5
		c-2.3,6-0.6,11.7,2.5,17.4c3.9,6.6,6.2,13.3,7,22.2c1.4,12.3-3.8,24.3-13.7,31.7c-6.2,4.8-13.5,6.5-19.6,11.9
		c-4.7,4.5-7.5,9.1-8.5,17C301.8,222.9,305.8,225,310.9,232.9z"/>
	<path fill="#BA0000" d="M406.2,296.7c9.3,9.2,11.4,11,11.4,9.3c0-0.3-4.1-4.8-9.2-9.9c-3.2-3.3-5.4-5.6-6.8-7.2
		c0.3,1.4,0.5,2.8,0.8,4.2C403.6,294.1,404.9,295.4,406.2,296.7z"/>
	<path fill="#BA0000" d="M589,276.3l2.4,0.8l-2.4-2.5c-1.3-1.3-2.5-2.4-2.6-2.4s-0.1,0.7,0,1.6C586.5,275.1,587.1,275.7,589,276.3z"
		/>
	<path fill="#BA0000" d="M500.3,224.5c-1-0.8-1.2-0.6-3.1,2.8L495,231l1.9,1.9c1,1,2.3,3.1,2.9,4.8c1,2.8,2.5,5.1,3.5,5.1
		c0.2,0,0.5-2.4,0.5-5.3c0-4.7-0.2-5.5-1.3-6.5c-1.9-1.7-2.5-3.1-1.8-4.4C501.2,225.7,501.1,225.3,500.3,224.5z"/>
	<path fill="#BA0000" d="M499,31c-2,1.9-3.6,3.6-3.5,3.6c0.4,0.4,11.7-1.5,13.3-2.2c2.1-0.8,3,0.1,2.2,2.3c-0.5,1.3-0.4,1.4,0.8,1.3
		c0.9-0.1,2-1.4,3.6-4.1c1.2-2.2,2.1-4,2-4.2c-0.2-0.2-1,0.7-2,1.7l-1.7,2.1l-3.4-3c-1.9-1.6-4.1-4.1-4.9-5.5
		c-1.5-2.6-1.6-2.8-0.5-3.9c1.4-1.5,3.1-1.5,6,0c3.1,1.6,3.9,1.5,6.8-0.7c1.5-1.1,3.7-2,5.4-2.3l2.9-0.4l-2.4-0.7
		c-1.3-0.4-5.7-0.7-9.8-0.7c-7.6,0-10.4-0.6-12.1-2.6c-0.8-1.1-1.4-1.3-2-0.6c-0.7,0.6-0.5,3.1,0.2,4.5c0.5,1,0.4,1.4-0.5,2.5
		l-1.3,1.2l2.4,3c1.3,1.6,2.3,3.4,2.3,4C502.6,27.1,500.9,29.1,499,31z"/>
	<path fill="#BA0000" d="M568.5,282.4l-1.4,0.4c-1,0.2-1.7,0.1-2.5-0.6c-1-1-1.2-0.8-3.3,2.9c-3.4,6-2.8,8.1,1.6,5.7
		c2.1-1.2,2.5-1.7,2.6-3.4c0-1.1,0.6-2.5,1.5-3.5L568.5,282.4z"/>
	<path fill="#BA0000" d="M325.6,325.4c-3.4,2-7.9,4.3-9.9,5c-4.2,1.5-6.4,4-6.4,7.2c0,1.5,0.7,2.5,2.8,4.6c1.7,1.6,3.5,4.3,4.6,6.6
		c1,2.2,2.6,4.8,3.6,5.8c1,1,2.6,3.9,3.5,6.3c1.6,4,2.1,4.7,5,6.7c2.8,2,3.9,2.3,8.3,2.8c2.8,0.2,6.6,1.1,8.4,1.8
		c1.9,0.7,5.3,1.4,7.8,1.6c5,0.4,8.1,1.8,9.6,4.6c0.8,1.4,0.8,1.8-0.1,3.3c-0.9,1.6-0.9,1.7,0.2,2.7c0.7,0.6,1.2,1.7,1.2,2.8
		c0,1.3,0.5,2.2,2.1,3.4c2.8,2,4.1,1.8,4.6-1c0.2-1.2,1.2-3.6,2.2-5.2c1-1.7,2.1-4.2,2.3-5.5c0.5-2.8,2-4.2,4.9-4.2
		c2.9,0,4.9,1,5.6,2.7c0.3,0.8,1.4,2.8,2.5,4.4c1.8,2.6,2.2,2.8,4.3,2.8s2.7,0.3,4.4,2.6c2.2,3,2.6,5.7,1,6.7
		c-0.9,0.5-1,0.8-0.3,1.8c1.1,1.9,0.8,3.5-0.9,4.8l-1.7,1.2l2.4,1c2.9,1.2,5.1,3.2,5.1,4.5c0,0.5-1.1,2-2.3,3.3
		c-2.7,2.7-3.5,4.6-1.9,4.6c0.5,0,1.6-0.4,2.3-1c1.2-0.8,1.6-0.8,4.6,0.1c2.9,0.8,5.5,0.8,7.1-0.1c0.2-0.2-0.2-0.8-1.1-1.5
		c-2.3-1.8-1.9-3.7,1-4c2.4-0.2,2.1-0.7,3.3,5.4c0.3,1.5,0.1,2.2-1.5,3.8c-1.9,1.9-1.9,2-1,4.2c0.7,1.8,0.8,2.7,0.2,4.9
		c-0.8,3.1-0.4,6.4,1,7.5c1.1,0.9,7.6-0.1,9.8-1.5c1.7-1.2,1.6-2-1.7-7.7c-2.7-4.5-2.7-5.1-0.7-10.3c1.4-3.5,1-4.3-3.1-6.4
		c-3.4-1.8-4.5-3.9-3.3-6.6c0.8-2,3.3-4.8,5.6-6.2c0.9-0.6,2.3-2.1,3.2-3.4c0.9-1.3,1.9-2.4,2.2-2.4c0.4,0,1.6,0.9,2.7,1.9
		c1.9,1.9,2,1.9,1.6,0.5c-0.2-0.8-0.4-2.5-0.4-3.8c0.1-1.3-0.2-2.3-0.5-2.3c-0.9,0-4.8-3.7-4.8-4.5c0-0.4-0.7-0.9-1.7-1.1
		c-2.7-0.5-4.6-2.5-6.8-6.7c-2.2-4.3-2-5.7,0.4-2.8c1.4,1.6,1.8,1.7,2.8,1.2c1-0.5,1.5-0.4,2.9,1c1.1,1,1.8,1.4,2,1
		c0.8-1.4,2.2-0.6,3.4,2c1.1,2.3,1.7,2.7,4.7,3.7c1.9,0.5,4.2,1.6,5.3,2.2l1.9,1.2l-1.2,2c-1,1.6-1.1,2.3-0.5,3.3
		c1,1.8,2.4,6.7,2.4,8.3c0,2.4,1.9,7.1,3.3,8.4c1.8,1.6,3.7,5.4,4.2,8.3c0.4,1.8,0.2,2.5-0.6,3.1c-3.1,2.3,3.3,4.3,11.4,3.7
		c2.8-0.2,5.4-0.7,5.8-0.9c0.7-0.5,0.5-0.7-3.9-3.3c-1-0.6-1.1-1.3-1-4c0.1-3.2-0.1-4-4-14.3c-0.9-2.2-0.9-2.7-0.2-3.1
		c0.5-0.3,1.3-0.3,1.9,0.1c1.3,0.7,3.6,0.7,3.6,0.1c0-0.2-0.8-0.8-1.8-1.1c-1.9-0.7-2.4-2.7-1.2-5c0.5-0.9-0.2-2.2-3.4-7l-3.9-5.9
		l2.2-2c1.1-1.1,3-2.1,3.9-2.3c1-0.2,2-0.7,2.3-1.1c1-1.3,2.1-8.1,1.7-10.3c-0.4-1.7-0.2-2.4,0.5-3c0.8-0.6,0.4-1.2-3.3-4.3
		c-4.4-3.7-5.6-4.3-8.8-4.5c-2.8-0.1-3.7-1.4-2.1-3.4l1.3-1.6l-1.6-2.8c-2.1-3.6-5.2-7.9-6.8-9.3c-1.1-1.1-1.4-1.1-5.1-0.1
		c-5.4,1.4-7.8,0.7-9.6-3.2c-1.2-2.7-1.8-3.1-8-6.3c-4.6-2.3-7.9-3.6-10.5-4c-1.5-0.3-3.1-0.4-4.6-0.5c-1.4,6.8-3.9,13.4-7.7,19.9
		c-6.4,8.5-14.1,15.5-22.1,22.4c0.8-3.8,1-7.1,0.1-10.5c-1.5-6.2-6.2-9.9-12-12.7c-6.9-3-13.1-7.6-18-13.4c-4.9-0.9-9.1-1.5-9.6-1.3
		C332.2,321.6,329,323.4,325.6,325.4z"/>
	<path fill="#BA0000" d="M382.7,409.9c0,1.1,0.3,1.5,1.1,1.5c1.6,0,2-0.6,1.3-1.9C384.2,407.9,382.7,408.1,382.7,409.9z"/>
	<path fill="#BA0000" d="M338.4,430.5c1.7-0.7,3.2-1.8,4.3-3.4c3-4.3,3.4-4.5,6.6-3.3l2.8,1l1.7-2c3.1-3.6,2.4-5.1-1.6-3.7
		c-2.7,0.9-2.7,0.9-4.4-0.7l-1.7-1.6l-3.6,1.6c-2.9,1.3-4.2,1.6-7.7,1.4c-6.2-0.2-6.1-0.2-9.3,3.1l-3,3.1l-1.3-2.5
		c-2.2-4.2-2.1-4.3,5.2-8.6c2.5-1.5,3.7-4.3,3.7-9c0-3.9-0.4-4.2-1.5-1c-0.5,1.5-1,2-2.3,2.1c-1.4,0.2-2.3-0.3-4.3-2.3
		c-1.4-1.4-2.7-3-2.7-3.6c0-1-1.6-2.8-4.8-5.6c-2.2-1.9-2.3-3.2-0.7-6.4c1.7-3.4,1.6-4.6-0.7-5.4c-2.3-0.8-1.7-0.9-3.9,0.5
		c-1,0.7-3.6,1.8-5.7,2.5c-5.8,1.9-5.9,2.1-2.9,5.2c2.3,2.3,2.5,2.8,1.8,3.9c-0.7,1-0.6,1.4,0.5,2.2c1.2,1,1.1,1.1-2.3,4
		c-2,1.6-4.5,3.8-5.5,4.9l-1.9,1.9l1.1,3.4c0.9,2.8,1.3,3.4,2.8,3.6c1.4,0.2,1.6,0.1,1.6-1.2c0-0.8-0.6-1.9-1.3-2.5
		c-1.3-1-1.3-1.1-0.2-1.6c0.7-0.2,2.1,0.1,3.7,0.9c3,1.4,4.5,1.6,4.5,0.5c0-0.4,0.1-1.8,0.1-3.1c0.1-2.1,0.3-2.4,1.7-2.6
		c2.6-0.3,6.2,3.6,7.5,8c0.8,3,0.9,3.9,0.3,5.8c-0.6,1.9-0.6,2.5,0.2,4.1c0.9,1.7,0.9,2.2-0.3,7.5c-0.7,3.1-1.4,6.2-1.5,7
		c-0.4,1.8-4.3,6.1-6,6.5c-2.8,0.7-1.2,4.2,2.8,6.3c1.4,0.7,3.6,1.2,5.3,1.2c2.2,0,3.3,0.3,4.1,1.3l1.1,1.2l2.3-2.4
		c1.2-1.4,2.5-2.5,2.8-2.5c0.2,0,1.6,1.1,2.8,2.4c4.1,4.2,4.3,3.3,0.8-4.3c-2.5-5.4-2.6-6.9-0.8-7.5c0.4-0.1,3.7,1.9,7.5,4.3
		c3.7,2.5,6.9,4.5,7,4.3c0.5-0.5-5.4-12.3-7.2-14.1C334,432.8,334.3,432,338.4,430.5z"/>
	<path fill="#BA0000" d="M388.1,388.5c0-1-0.4-1.1-2.2-1.1c-1.3,0.1-2.9,0.2-3.7,0.4c-1,0.2-1.3,0.5-1.1,1.2c0.2,0.5,0.4,1,0.4,1.1
		c0,0.4,3.7,0.3,5.3-0.1C387.6,389.8,388.1,389.2,388.1,388.5z"/>
	<path fill="#BA0000" d="M210.5,422.1c-1.9,1-3.3,2.2-3.7,3.4c-0.5,1.1-1.5,2.2-2.8,2.7c-1.7,0.8-1.9,1-1.4,2
		c1.9,3.5,6,3.1,10.6-1.1c3.7-3.4,5.8-3.9,6.9-1.8l0.7,1.3l1.5-1.4c1.9-1.8,3.4-4.6,3-5.7c-0.4-1-3.6-1.1-5.1-0.1
		c-2.3,1.4-6.7-3.3-6.7-7c0-1.9,2.5-7.8,4-9.5c1.3-1.4,0.1-1.4-3.3,0.2c-1.4,0.7-2.8,1.7-3,2.2c-0.1,0.5-0.8,2.3-1.4,3.9
		c-1.3,3.3-1.4,3.5-0.5,3.5c0.4,0,1.4,0.5,2.4,1.3c1.2,0.8,1.7,1.7,1.7,3C213.4,420.1,212.9,420.7,210.5,422.1z"/>
	<path fill="#BA0000" d="M463.8,476c0.8,0,2.6-0.8,3.9-1.9c2.2-1.8,2.5-1.9,3.5-1c0.7,0.7,2.2,1,4.9,1h3.8l-0.5-2
		c-0.3-1-0.5-4.2-0.5-7c0-2.8-0.2-5.5-0.6-6c-0.8-1.3-5.2-4.8-6-4.8c-0.3,0-2.7,1-5.4,2.1c-5.4,2.3-6.5,3.2-7.8,6
		c-1.4,2.9-2.8,8.9-2.5,10.1C456.9,473.6,461.7,476,463.8,476z"/>
	<path fill="#BA0000" d="M88.3,467.4c1.3-0.7,1.3-0.8-1.1-1.8c-3.3-1.4-4.2-1.4-5.1,0.4c-0.7,1.3-0.7,1.6,0.2,2.3
		c2.7,2-0.9,4.6-6.4,4.6c-2.2,0-4.1,1.2-4.1,2.7c0,0.9,1.4,2.3,3.5,3.3c1.2,0.7,1.6,0.5,2.8-0.8c1.3-1.4,1.9-1.6,5.4-1.6
		c4.6,0,5.3-0.7,3.3-3.9C85.5,470.2,85.9,468.7,88.3,467.4z"/>
	<path fill="#BA0000" d="M460.1,447.2c0-1.9-0.2-3.4-0.6-3.6c-0.3-0.1-1.4,0.2-2.4,0.7c-1,0.5-3.4,0.8-5.3,0.9h-3.5l0.4,2.8
		c0.5,3.6,0.5,3.6,2.5,4c1,0.1,2.6,0.7,3.7,1.1c1.8,0.8,2,0.7,3.6-0.8C459.8,450.8,460.1,450.1,460.1,447.2z"/>
	<path fill="#BA0000" d="M281.9,264.7c0.2,2.2,0.1,3.7-0.7,5.1c-0.2,0.4-0.4,0.8-0.5,1.2c3.5,0.7,7.1,1.3,11,1.1
		c5.7-0.7,10.2-2.2,15.1-6.3c-2.6-5.7-5-13-6.3-18.9c-5.9,4.1-13.8,8.5-23.5,11.2c0.2,0.1,0.5,0.2,0.8,0.2
		C280.7,259.2,281.5,260.4,281.9,264.7z"/>
	<path fill="#BA0000" d="M15,389.2c-1.2-1.7-2.3-3-2.7-3c-1.3,0-3.1,2.1-3.7,4.1c-0.3,1.2-0.6,5.4-0.6,9.2c0,6.4,0.1,7,1.5,9
		c1.7,2.3,1.9,3.4,0.6,5.1c-2.1,2.8-0.6,5.4,4.3,7.9c1.7,0.8,3.2,1.7,3.2,1.7c0,0.1-0.4,1-0.9,1.9c-0.5,1-0.9,2.5-0.9,3.5
		c0,1-0.4,2.3-1,2.9c-1.3,1.4-0.2,1.4,3.1-0.2c2.2-1.1,2.8-1.7,3.1-3.4c0.6-3.1,3.7-4.3,10.9-4.3h5.5l1.6-2.7
		c2.3-3.9,4.8-5.8,7.7-5.8c2,0,2.3-0.2,2-1c-0.6-1.5,1.6-5.8,4.1-7.9c2.5-2.2,4.5-2.9,7-2.4c1.5,0.3,1.9,0.1,2.8-1.4
		c1.2-2.1,1.3-2.1,4.1-0.8c2.1,1,2.3,1.3,3.6,6.9c0.2,0.9,1.1,2.3,2,3.1c3.3,3,13,9.5,13.9,9.3c0.5-0.1,1.6-1.3,2.3-2.6
		c0.8-1.3,1.7-2.8,2-3.3c0.4-0.7,1-0.4,2.7,1.7c1.3,1.4,2.7,2.5,3.4,2.5c0.7,0,2.8-0.8,4.8-1.9l3.6-1.9l-0.3-2.6
		c-0.4-3.3-1.6-4.7-5.8-6.7c-4.5-2.2-4.9-3-2.9-6c1.9-3,3.4-3.5,6.5-2.5c2.2,0.8,2.6,0.7,9.1-2.4c3.7-1.7,9-4,11.6-4.9
		c4.3-1.6,5.3-1.7,9.5-1.4l4.7,0.4l3.1-2.7c6.7-5.9,11.8-7.3,16.7-4.5c3.9,2.2,4.1,2.8,2.2,7.2l-1.7,3.7l2.7,4
		c3.8,5.5,3.8,5.6,1.7,8c-1,1.1-1.9,2.2-1.9,2.5c0,0.3,1.2,1.1,2.7,1.8c1.4,0.7,3,1.9,3.3,2.7c0.8,1.9,1.4,1.7,3.3-0.7
		c1.1-1.4,2.1-2.1,3.1-2.1c0.8,0,2.2-0.5,3.1-1.2c2.1-1.7,3.4-1.5,5.2,0.6c1.9,2.2,3,2.3,4.8,0.1c0.7-0.9,2-2.1,2.9-2.7
		c0.8-0.6,2.2-2.2,3-3.6c1.2-2,2.1-2.7,4.8-3.6c3.3-1.1,6.1-2.9,6.6-4.1c0.1-0.4-1-1-2.4-1.3c-4-1-7.1-2.5-8.1-3.9
		c-0.8-1.2-0.8-1.2-2.6,0.1c-1,0.7-2,1.3-2.3,1.3c-0.8,0-5.1-4.7-6.4-7.1c-0.8-1.4-1.7-2-3.3-2.3c-4.1-0.6-4.8-0.8-4.8-1.6
		c0.1-2.2,9.2-9.8,12.4-10.2c1.3-0.2,3.6-1.3,4.9-2.3l2.6-1.9l-2.3-2.5c-3.2-3.3-5.1-7-5.2-10.4c-0.1-2.7-0.2-2.9-2.6-4
		c-1.4-0.7-2.5-1.4-2.5-1.6c0-0.5,4-2.4,5.2-2.4c1.5,0,4.2,1.6,7.8,4.8c3.7,3.2,4.7,3.6,6.6,2.1c0.6-0.5,2-0.9,3.2-0.9
		c1.6,0,1.9-0.2,1.6-1c-0.2-0.5-0.1-1.3,0.2-1.7s0.4-1.4,0-2.8c-1-3.4-0.9-7,0.2-8.3c1-1,1-1.4,0.1-4.2c-0.6-1.9-1.3-3.1-1.8-3.1
		c-2,0-2.8-4.2-1.2-6.4c0.6-0.8,0.7-1.4,0.3-1.7c-0.7-0.4-0.8-1.5-0.1-2.6c0.4-0.5,1.3-0.4,4.2,0.8c2,0.8,3.8,1.5,4,1.5
		c0.2,0-2.6-7.3-3-7.8c-0.1-0.1-0.6,0.1-1,0.4c-0.4,0.4-1.8,1.1-3,1.6c-2,0.8-2.2,0.8-4-0.7c-2.4-2-2.3-3.4,0.3-5.4l2.2-1.6
		l-1.9-0.9c-2.2-1.1-2.2-1.1-0.7-4.6c1.6-3.7,3.1-4.6,7.9-4.6c2.5,0,4.4-0.3,5.2-0.9c1.1-0.8,1.5-0.7,5.3,2.7
		c5.2,4.6,6.7,4.9,13,2.8c0.2-0.1,0.4-0.1,0.5-0.2c1.4-5.8,3.9-11.4,7.3-16.4c0.6-0.9,1.2-1.8,1.8-2.6l-0.7-1l1.6-3.6
		c1.5-3.4,1.6-3.7,0.7-5.1c-1.4-2-1.2-3.9,0.5-4.8l1.4-0.8l-2.3-3.7c-2.3-3.7-4.7-5.8-8.3-7.7l-1.9-1l-1.2,2.2
		c-0.7,1.3-2,3.1-3.2,4.2c-3,2.8-9,6.9-10.2,6.9c-2,0-3,0.8-6.6,5.8c-5.1,6.9-7,6.5-3.9-0.7c1-2.2,1-2.3-0.1-1.5
		c-0.8,0.7-1.1,0.7-1.3,0.1c-0.5-1.3-1.8-0.8-3.4,1.4c-0.9,1.1-2.8,2.6-4.3,3.3c-1.6,0.7-3,1.8-3.4,2.7c-0.4,0.8-1.8,2-3.2,2.6
		c-4.9,2.2-29.6,19.5-35.3,24.8c-6,5.6-12.5,7.5-24.6,7.3c-7-0.1-8,0.1-10.6,1.3c-3.6,1.7-8,6.1-10.9,10.5c-3.7,5.8-6.5,6-10.7,0.5
		c-4.5-5.8-8.7-7.7-14.2-6.2c-2.2,0.7-3.3,0.6-6,0c-2.6-0.7-3.9-0.7-6.5-0.1c-3.7,0.8-5,2-5.5,4.9c-0.6,3.1-1.6,4.7-5.9,9.5
		c-2.2,2.4-4,4.8-4,5.3s0.5,1.7,1.3,2.7c1.5,2.2,1.3,3.8-0.6,4c-1,0.2-1.9-0.3-2.8-1.4l-1.4-1.7l-3.1,1.6c-1.7,0.9-4.2,1.9-5.6,2.1
		c-2.1,0.4-3,1-5.2,3.7c-1.4,1.8-3.5,4.4-4.6,5.7l-2,2.4l-2.7-1.3c-1.9-0.9-3.1-1.1-4-0.8c-2,0.7-6.3,5.3-6.1,6.4
		c0.3,1.6,3.4,1.6,6,0.1c1.3-0.7,2.5-1.1,2.9-0.9c0.8,0.5,1.8,4.4,1.8,7c0,2.8-1.3,3.9-6.7,5.6l-4.5,1.3l0.2,4.5
		c0.1,2.5,0,5.9-0.2,7.6C19.3,393.2,17.9,393.3,15,389.2z"/>
	<path fill="#BA0000" d="M230.8,379.8c1.3-0.8,1.4-5.1,0.1-8c-1.1-2.5-1.2-3.2-0.5-5.8c0.9-3.9,0.4-4.4-5.7-5.2
		c-5.5-0.8-6.7-0.8-9.2,0.1c-1,0.4-2.2,0.7-2.5,0.8c-0.4,0.1-0.8,0.6-0.8,1.1c0,0.8,0.5,1.1,3.7,1.8c1.1,0.2,2,1.2,3,3
		c1.1,1.9,1.8,2.5,2.8,2.4c1-0.1,1.7,0.7,3.5,4C227.3,378.1,229.7,380.5,230.8,379.8z"/>
	<path fill="#BA0000" d="M240.2,358.4c2.5-2.8,2.7-4.4,0.2-4.6c-1.2-0.1-2.3,0.4-4.1,2.1c-2.3,2.2-2.4,2.3-1.5,3.6
		C236.2,361.5,237.7,361.2,240.2,358.4z"/>
	<path fill="#BA0000" d="M170.6,431.6c0-3.9-2.3-4.9-5.4-2.3c-1.6,1.3-1.9,2-1.9,4.3c0,3.4,0.2,3.7,3.6,6.4c3.1,2.5,4.9,2.7,6.3,0.8
		c1.6-2.2,1.2-4.9-0.8-6.4C171.3,433.6,170.6,432.6,170.6,431.6z"/>
	<path fill="#BA0000" d="M352,376.6c-2.3-0.7-12.7-0.9-12.7-0.2c0,0.3,0.5,1.3,1.1,2.3c0.7,1.2,2.8,2.7,6.1,4.5
		c2.8,1.4,5.8,3.2,6.6,4l1.6,1.4l1.1-2.4C357.8,382,356.1,378,352,376.6z"/>
	<path fill="#BA0000" d="M299.6,240.6l-0.3-3.5l-2.7-0.4c-4.8-0.7-7.7-0.5-8.5,0.5c-0.6,0.7-1.3,0.8-2.9,0.5
		c-0.4-0.1-0.8-0.2-1.2-0.2c0.4,0.2,0.7,0.4,1.1,0.6C291.7,240.3,296,240.9,299.6,240.6z"/>
	<path fill="#BA0000" d="M247.2,260.2c0.5,0,1.1-0.2,1.8-0.5c-1.1-0.2-2.2-0.4-3.3-0.6C246.1,259.8,246.7,260.2,247.2,260.2z"/>
	<path fill="#BA0000" d="M114.4,303.3c0.5-4,2.2-9,5-14.7c1.1-2.1,1.8-3.9,1.7-4c-0.1-0.2-1.7,0.3-3.4,1l-3.2,1.3l-2.3-1.6
		c-1.3-0.8-2.7-1.5-3.1-1.4c-0.4,0-8.6,2.5-18.3,5.4c-9.6,3-18.9,5.9-20.6,6.4c-1.7,0.5-3.6,1.4-4.2,2c-1.2,1.3-0.9,2.1,2.5,6.8
		c1.1,1.6,2.1,3.3,2.1,3.7s-1,1.9-2.1,3.4c-2.5,3.2-2.8,5.2-0.6,5.7c0.8,0.2,4.9-0.1,9.2-0.7c10.2-1.4,15.1-1,22.7,1.7
		c6.9,2.5,9.2,2.7,11.5,0.9c1.6-1.3,1.6-1.4,1.2-5.4c-0.3-3.2-0.2-4.4,0.5-5.5C113.5,307.5,114.1,305.3,114.4,303.3z"/>
	<path fill="#FFFFFF" d="M310.4,190.7c6-5.5,13.3-7.1,19.6-11.9c9.9-7.3,15.2-19.4,13.7-31.7c-0.8-8.8-3.1-15.6-7-22.2
		c-3.1-5.7-4.8-11.4-2.5-17.4c1.2-3.2,3.5-5.8,6.3-8.5c-10.5,0.8-20.9,2.3-31,5.4c-21.5,9.7-33.5,27.4-40.1,53.5
		c-7,54.1,41.5,75,41.5,75c-5.1-7.9-9.1-10.1-8.9-25.2C302.9,199.8,305.7,195.2,310.4,190.7z M301.6,154.6v-0.3V154.6z M301.6,144.3
		l6.1-1.4l0.8-6l3.1,5.2l6.2-1.4l-4.3,4.6l3.1,5.2l-5.6-2.4l-4.4,4.7l0.8-6.1L301.6,144.3z"/>
	
		<line fill="none" stroke="#BA0000" stroke-width="0" stroke-linecap="round" stroke-linejoin="round" x1="301.6" y1="154.6" x2="301.6" y2="154.3"/>
	<polygon fill="#BA0000" points="306.5,152.8 310.9,148 316.5,150.4 313.4,145.2 317.7,140.6 311.5,142 308.4,136.9 307.7,142.9 
		301.6,144.3 307.2,146.6 	"/>
	<path fill="#FFFFFF" d="M374.5,167.6c-53.9,9.2-59.5,61.8-59.5,61.8c6.1-7.1,6.9-11.7,21.4-16c7.9-1.3,13.1,0.1,18.8,3.2
		c7,4.1,10.7,10.6,17.1,15.2c9.9,7.3,23,8.7,34.3,3.8c7.3-2.8,13.9-7.3,19.2-13.2c4.5-4.6,9.5-7.9,15.8-7.4c3.6,0.2,6.7,1.6,10,3.5
		c-3.9-9.8-8.2-19.3-14.1-28c-4-4.6-8.3-8.4-13-11.5c-1.2,4.1-3.1,7-7.5,12c-2.8,3.3-8.3,9.2-13.5,14.8l1.7,3.2l-3.2-1.6
		c-6.3,6.7-11.9,12.5-12.2,12.5c-1.5,0,0.1-2.2,9.8-13.7l-0.1,0l-4,4.4l0.6-6.1l-5.6-2.8l5.9-0.9l0.6-6.3l3.2,5.6l5.6-1.1
		c7-8.2,12.4-14.7,12.4-14.9c0-0.2-0.8-1.1-1.9-2c-1.7-1.6-1.8-1.9-1.2-3.7c0.2-0.6,0.4-2.3,0.6-4.3
		C404,168.8,390.4,166.9,374.5,167.6z M387.4,197.6h-0.3H387.4z"/>
	
		<line fill="none" stroke="#BA0000" stroke-width="0" stroke-linecap="round" stroke-linejoin="round" x1="387.1" y1="197.6" x2="387.4" y2="197.6"/>
	<path fill="#BA0000" d="M403.5,205.8c-0.5,0.5-1,1-1.5,1.6l3.2,1.6L403.5,205.8z"/>
	<path fill="#BA0000" d="M397,194.4l-0.6,6.3l-5.9,0.9l5.6,2.8l-0.6,6.1l4-4.4l0.1,0c1.2-1.4,2.4-2.9,3.9-4.5
		c0.8-0.9,1.5-1.8,2.3-2.7l-5.6,1.1L397,194.4z"/>
	<path fill="#FFFFFF" d="M337.3,281.8c-0.1,0.3-0.2,0.5-0.4,0.8C337.5,282.5,337.6,282.2,337.3,281.8z"/>
	<path fill="#FFFFFF" d="M334,290.3c1.7,1,3.2,1.8,3.4,1.8c0.5-0.1,3.9-4.5,4.9-6.4c1-1.9-0.3-2.4-2-0.8c-1.6,1.6-2.3,1.6-3.6,0.2
		c-0.3-0.3-0.5-0.6-0.6-0.8c-0.6,1.3-1.1,2.7-1.5,4.1C334.4,289,334.2,289.7,334,290.3z"/>
	<path fill="#FFFFFF" d="M318.6,233.1c8.7,3.6,13.3,2.9,22,15.3c3.8,7,4,12.4,2.9,18.8c-0.8,3.7-2.3,6.9-3.9,10
		c0.8,0.1,2,0.8,4.4,2.3c5.1,3.4,7.4,6,7.4,8.7c0,1.8,0.2,2.1,1.4,2.1c0.7,0,2,0.4,2.7,1c1.2,0.8,1.3,1.4,1.3,6.6v5.7l-1.9,1
		c-1.1,0.5-2.6,1.6-3.4,2.3c-1.4,1.1-1.4,1.4-0.8,3.4c0.4,1.2,1.1,2.2,1.4,2.2s2.5-0.6,4.6-1.3c5.3-1.7,6.9-1.3,8.4,2
		c1.6,3.4,1.5,4-0.4,4c-2.3,0.1-0.7,1,2.7,1.5c3,0.5,3.7,0.1,8-4c3-3,3.8-3.4,8.6-4.6c7.8-2,8.3-2.7,6.7-12.3
		c-0.7-4,2.4-11.3,4.8-11.3c0.3,0,3.1,2.6,6.9,6.2c-0.2-1.4-0.5-2.8-0.8-4.2c-1.4-1.7-1.9-2.5-1.6-2.8c0.2-0.2,0.5-0.2,1,0
		c-1.2-5.2-2.9-10.5-5-16C370.3,221.8,318.6,233.1,318.6,233.1z M371.8,291.7l-0.2-0.2L371.8,291.7z M376.4,309.9l-5.5-2.4l-4.2,4.8
		l0.8-6.2l-5.5-2.4l6.1-1.4l0.8-6.3l2.9,5.4l6.1-1.4l-4.2,4.7L376.4,309.9z"/>
	<path fill="#FFFFFF" d="M360.4,336c5.8,2.8,10.5,6.5,12,12.7c0.9,3.4,0.7,6.8-0.1,10.5c8-6.9,15.7-13.9,22.1-22.4
		c3.8-6.5,6.3-13.1,7.7-19.9c-2.4-0.1-4.6,0-5.9,0.3c-2.2,0.5-4.1,2.4-7.2,6.9c-3.8,5.5-5.1,6-17.2,6.4l-8.7,0.3l-4.7-3
		c-4.5-2.9-5.1-3.1-14.6-4.9c-0.5-0.1-0.9-0.2-1.4-0.2C347.3,328.4,353.5,333,360.4,336z"/>
	
		<line fill="none" stroke="#BA0000" stroke-width="0" stroke-linecap="round" stroke-linejoin="round" x1="371.6" y1="291.5" x2="371.8" y2="291.7"/>
	<polygon fill="#BA0000" points="371.7,301.3 368.8,295.9 368,302.2 361.9,303.6 367.5,306.1 366.7,312.3 371,307.5 376.4,309.9 
		373.6,304.6 377.8,299.9 	"/>
	<path fill="#FFFFFF" d="M268.1,331.1c0.2-0.2,0.2-1-0.1-1.9c-0.4-1.5-0.6-1.6-3.3-1.1c-1.5,0.3-2.8,2.2-2.2,3.3
		C262.9,332.1,267.3,331.8,268.1,331.1z"/>
	<path fill="#FFFFFF" d="M231.4,302.1c5.3-1.8,9.4-3.7,10.4-4.8c0.5-0.7,0.4-1.8-0.9-5.4c-1.3-3.6-1.5-4.8-0.9-5.4
		c0.4-0.5,1.1-0.8,1.6-0.8c0.6,0,0.5-0.5-0.5-1.7l-0.6-0.8c-0.6,0.9-1.2,1.7-1.8,2.6C235.3,290.7,232.8,296.2,231.4,302.1z"/>
	<path fill="#FFFFFF" d="M315.9,283.8l-1.4,0.6l1.7,1.7c1.9,2,3.8,2.7,7.6,2.6c0.7-3,1.2-5.9,1.4-8.7
		C322.5,281.2,318.8,282.7,315.9,283.8z"/>
	<path fill="#FFFFFF" d="M280.7,271c-0.7,2-0.4,3.6,1.1,5.5c2.1,2.9,3.3,3.4,4.3,2c0.7-1,1.8-1.1,10.3-1.1
		c10.3-0.1,11.6-0.4,12.7-3.2c0.7-1.6,0.5-2.3-2.2-8.3c0-0.1-0.1-0.1-0.1-0.2c-4.9,4.1-9.5,5.6-15.1,6.3
		C287.8,272.3,284.3,271.7,280.7,271z"/>
	<path fill="#FFFFFF" d="M317.5,238.5L317.5,238.5c-0.8,7.4,0.3,11.7-4.1,19.1c0.1,0.2,0.2,0.4,0.3,0.6c2.9,6.6,2.9,6.6,5.4,5.8
		c1.8-0.5,2.3-0.5,3.1,0.2c1.6,1.6,0.8,3.4-1.9,4.3c-1.3,0.4-2.5,0.8-2.6,1c-0.1,0.1,0.1,1.5,0.5,3.1l0.7,2.9l4.8-0.4
		c0.7-0.1,1.2-0.1,1.7-0.1C326,254.2,317.5,238.5,317.5,238.5z"/>
	<path fill="#FFFFFF" d="M227.8,323.7c3-2.2,2.6-2.3-3.3-1.3l-3.2,0.6v2.6c0,1.4,0.3,2.8,0.6,3c0.4,0.2,0.6,1,0.6,1.8
		c0,2,3,3.6,5.8,3.1c3.9-0.7,4.9-2.9,2.5-5.3c-1.1-1.1-1.3-1.1-2.7-0.3C224,330.7,223.6,326.8,227.8,323.7z"/>
	<path fill="#FFFFFF" d="M253.2,256.1c0-0.3-0.9-1.1-2-1.7c-2.4-1.4-3.3-4.4-1.9-6.4c0.8-1.3,0.8-1.4-1-1.7c-3.5-0.7-3.7-0.6-3.3,2
		c0.3,2.1,0.2,2.5-1.3,3.7l-1.6,1.2l1.3,1.3c0.7,0.7,1.3,1.9,1.3,2.7c0,0.7,0.4,1.6,0.9,2.2c1.1,0.2,2.2,0.4,3.3,0.6
		C250.9,258.9,253.2,257.1,253.2,256.1z"/>
	<path fill="#FFFFFF" d="M266.6,202.1c-3.8-11.8-13.6-20.6-25.7-23.1c-8.6-2.2-15.7-2.2-23.2-0.6c-6.4,1-12.4,0.8-17.2-3.2
		c-2.7-2.3-4.5-5.3-6.1-8.6c-2.5,10.2-4.5,20.4-4.8,31c1.8,19.3,10.9,34.3,26.6,47.2c2.2-0.8,4.6-2.1,7.4-3.9
		c4.3-2.8,5.6-3.1,8.1-2.2c1.9,0.7,2.3,0.6,6.5-1.9c4.1-2.5,4.7-2.7,8.6-2.7c2.3,0,5.7,0.2,7.6,0.5c3.7,0.5,3.4,0.7,10.4-3.3
		l3.6-1.9l6,1c0.3,0,0.5,0.1,0.7,0.1c-1.4-1.8-2.6-3.7-3.6-6C268.3,217,269.2,209.5,266.6,202.1z M234.4,221l0.2,0.1L234.4,221z
		 M231.4,210.3l2.9,5.5l-5.5-2.6l-4,4.7l0.7-6.4l-5.5-2.6l5.9-1.2l0.7-6.4l3,5.5l5.9-1.2L231.4,210.3z"/>
	<path fill="#FFFFFF" d="M311.6,237.6c-2.7,0.7-4.9,1.4-7.1,2c0.3,0.9,0.8,2,1.4,3.2C309.2,240.1,311.1,238.1,311.6,237.6z"/>
	<path fill="#FFFFFF" d="M311.7,237.4c0,0,0,0-0.1,0.1C311.7,237.6,311.7,237.5,311.7,237.4L311.7,237.4z"/>
	<path fill="#FFFFFF" d="M299.6,241.4l-0.1-0.8c-3.6,0.3-7.9-0.2-14.5-2.6c-0.4-0.2-0.7-0.4-1.1-0.6c-3.9-0.6-6.1-0.2-10,1.7
		c-3.9,2-4.2,2.2-4.4,4.2c-0.1,1.6,0.6,3.7,2.8,8.2c2.5,5,3,5.9,4.7,6.5c9.7-2.7,17.6-7.1,23.5-11.2
		C300.1,244.8,299.8,243,299.6,241.4z"/>
	
		<line fill="none" stroke="#BA0000" stroke-width="0" stroke-linecap="round" stroke-linejoin="round" x1="234.4" y1="221" x2="234.6" y2="221.1"/>
	<polygon fill="#BA0000" points="226.5,201.3 225.8,207.6 219.9,208.9 225.4,211.5 224.8,217.9 228.8,213.2 234.3,215.8 
		231.4,210.3 235.4,205.6 229.5,206.8 	"/>
</g>
</svg>
