<?xml version="1.0" encoding="utf-8"?>
<!-- Generator: Adobe Illustrator 17.1.0, SVG Export Plug-In . SVG Version: 6.00 Build 0)  -->
<!DOCTYPE svg PUBLIC "-//W3C//DTD SVG 1.1//EN" "http://www.w3.org/Graphics/SVG/1.1/DTD/svg11.dtd">
<svg version="1.1" id="flag-icon-css-hm" xmlns="http://www.w3.org/2000/svg" xmlns:xlink="http://www.w3.org/1999/xlink" x="0px"
	 y="0px" viewBox="0 0 640 480" enable-background="new 0 0 640 480" xml:space="preserve">
<g>
	<path fill="#000066" d="M636.3,289.1c-1.7-0.4-2.4-0.3-4.1,0.9c-3.1,2.4-5.4,3.3-9.8,4.1c-2.2,0.4-12,2.7-21.8,5.1
		c-19.1,4.6-31,7.2-39.6,8.2l-7.5,6.3l1,4.2c1.3-0.5,2.8-1.2,4.4-1.9c3.9-1.7,8.5-3.7,10.2-4.3c4.9-1.7,19.6-4.2,37.3-6.2
		c25.6-3,27.9-3.4,30.5-6.1c1.6-1.7,1.7-2.2,1.6-5.7C638.3,289.6,638.3,289.6,636.3,289.1z"/>
	<path fill="#000066" d="M543.4,320.8c1.4-0.2,2.8-0.4,4-0.7l-1.5-0.9L543.4,320.8z"/>
	<path fill="#000066" d="M528.8,305.7l9.7-0.8c-3.8-1.4-10.3-4.4-15.6-7c-8.2-4.1-10.9-5.7-12-7.4c-0.8-1.2-4.6-4.2-9.7-7.4
		c-22.5-14.5-40.6-29.4-49-40.3c-4.1-5.2-11.8-20.4-13-25.2c-0.5-2.3-1.6-5.4-2.5-6.9c-0.8-1.4-4.3-7.9-7.8-14.3
		c-3.7-6.8-6.7-12.1-9.5-16.5v2.4h-92.9l92.9,60.6v10.2l0,0v16.6l5.6,3.4l-19.3,1.6l2.6,19.3L395,280l-13.4,14l2.8-19.2l-19.4-1.7
		l3.6-2.1l-123.9-80.8v83.4h-13.9h-42h-14v-83.4l-50.4,32.9l-1.5,1.9l2.1,0.9c1.1,0.5,4.3,1.7,7,2.8c6.9,2.6,8.7,3.9,11.2,7.6
		c4.9,7.7,8.3,18.2,12.5,38.7c2.4,11.3,3,15.8,3.5,24.8c1.3,23.6,2.7,27.3,21,53.6c9.2,13.3,14.3,22.9,16.9,32
		c2.5,8.7,4.1,11.7,9.7,18.3c6.4,7.6,20.8,21.6,27.2,26.4c12.8,9.5,19.1,9.9,30.9,2.1c5.1-3.4,8.3-4.6,13.2-4.6
		c2.7,0,15.2,2.2,37.1,6.5c31.6,6.3,33.2,6.5,36.6,5.9c8.6-1.7,24.8-9.5,37.5-17.9c5.9-3.9,9-6.5,17.1-15c5.5-5.6,14-13.5,19-17.6
		c11.8-9.6,15-12.8,15-15c0-2.8-2.5-5.7-7.2-8.2c-7.5-4.1-8.9-7.3-5.4-12.2c2.4-3.3,6.7-6.9,8.8-7.4c3.6-0.7,8.3,3.4,13.4,11.8
		c1.4,2.4,3.4,4.9,4.2,5.6l1.6,1.2l7.4-7.2c4.1-3.9,9.8-8.7,12.7-10.6c2.9-1.9,9.3-6.5,14.3-10.1c10.3-7.5,20.6-13,27.3-14.4
		c2.3-0.5,9.2-1.2,15.3-1.5c1.3-0.1,2.5-0.2,3.7-0.2l1.9-7.7L528.8,305.7z"/>
	<path fill="#000066" d="M30.6,50.5C14,58.4,8.5,61.9,4.1,66.7c-4.7,5.2-5.1,9.1-1.9,19c0.4,1.5,0.9,3.4,1.3,5.5h89.4L30.6,50.5z"/>
	<path fill="#FFFFFF" d="M58.3,34.9c-0.1-0.4-1.1-0.7-2.1-0.7c-1.1,0-1.7,0.2-2.3,1l5.6,3.6C59.1,37.6,58.7,36.4,58.3,34.9z"/>
	<path fill="#FFFFFF" d="M98.7,91.2c-3.2-3.5-6.3-7.9-8.6-12.1L39.7,46.3c-1,0.5-2.1,1-3.3,1.6c-2.1,1-4,1.9-5.8,2.7l62.4,40.7H98.7
		z"/>
	<path fill="#FFFFFF" d="M174.8,182.4h-36.3c0,0.3,0,0.6,0,0.8l1.3-0.8h31.3l-33.3,21.8l-1.4,2.4c-2.6,4.2-6.5,9.7-10.6,14.8
		l-1.4,1.7l50.4-32.9V182.4z"/>
	<polygon fill="#FFFFFF" points="394.6,237 395.1,235.4 395.9,237.8 413.4,249.3 419.2,247.1 416.4,251.2 419.5,253.2 419.5,243 
		326.6,182.4 310.9,182.4 	"/>
	<polygon fill="#FFFFFF" points="370.9,247.1 389.1,253.9 389.1,253.8 279.7,182.4 244.7,182.4 244.7,190.2 368.6,271 381.7,263.2 	
		"/>
	<path fill="#FFFFFF" d="M99,91.5c-0.1-0.1-0.2-0.2-0.3-0.3h-5.8H3.5c0.4,2.1,0.7,4.2,0.9,6.1c0.6,6.9,1.2,9.7,3,12.1
		c16,0,56.1,0,105.3,0C108.3,102.4,104,96.9,99,91.5z"/>
	<path fill="#FFFFFF" d="M171,104.8c-1.9-3.9-5-7-7-7c-3.9,0-8.2,4.7-11.4,11.6c6.6,0,13.4,0,20.2,0
		C172.4,108.1,171.9,106.6,171,104.8z"/>
	<path fill="#FFFFFF" d="M174.8,190.2v83.4h14V164.2h-67.1v5l4.2,0.1c4.6,0,9,1.6,11.2,4.1c1.1,1.1,1.3,1.7,1.4,9.1h36.3V190.2z"/>
	<path fill="#FFFFFF" d="M230.8,164.2v109.4h13.9v-83.4v-7.8h35h31.2h15.7h92.9V180c-3.2-4.9-6.1-8.7-9.4-12.3
		c-1.3-1.4-2.4-2.6-3.4-3.5H230.8z"/>
	<path fill="#CC0000" d="M139.8,182.4l-1.3,0.8c0,1.6,0,3.4,0,5.6v14.1l-0.8,1.3l33.3-21.8H139.8z"/>
	<path fill="#CC0000" d="M86.8,70.6c-1-6.8-4.2-10.8-13.5-16.8c-8.6-5.6-11.6-8.5-13.8-15L54,35.2c-0.3,0.3-0.5,0.8-0.8,1.4
		c-1.7,3.3-4.6,5.4-13.5,9.7l50.4,32.9C88.4,75.9,87.1,72.9,86.8,70.6z"/>
	<polygon fill="#CC0000" points="413.4,249.3 395.9,237.8 401,253.9 	"/>
	<polygon fill="#CC0000" points="394.6,237 310.9,182.4 279.7,182.4 389.1,253.8 	"/>
	<polygon fill="#CC0000" points="408.4,263.2 419.5,269.8 419.5,253.2 419.5,253.2 416.4,251.2 	"/>
	<path fill="#CC0000" d="M188.8,164.2v109.4h42V164.2h175.9c-4.6-4.5-7.1-4.9-16.5-5.3c-10.7-0.5-15.6-1.6-21.8-4.8
		c-5.1-2.7-10.3-8-13-13.3c-2.5-5.1-5.7-8.4-9.2-9.7c-2.4-0.9-4.2-1.1-10.1-0.9c-17.1,0.6-16.5,0.7-23.6-2.7c-3.6-1.6-7.4-3-8.4-3
		c-1.1,0-4.9,0.9-8.5,2c-10.2,3.1-14.6,2-22.5-5.4c-5.4-5.2-6.5-5.8-9.8-5.8c-5,0-8,4.5-7.4,11c0.4,3.8,0.4,4-1.7,6
		c-9,9-48.7,16.9-66.4,13.2c-5.4-1.1-12.1-4.2-14.8-6.9c-4.1-4.1-4.4-7.9-1.6-18.3c1.4-5.5,1.9-8,1.2-10.9c-6.8,0-13.5,0-20.2,0
		c-1.9,4-3.4,8.8-4.2,13.7c-0.6,4-0.6,4.6,0.6,7.4c2.5,5.7,1.6,8.6-3.5,11.2c-3.9,1.9-5.7,1.1-8.8-4.1c-0.7-1.2-3.4-3.7-5.7-5.5
		c-5.5-4.1-10.4-9.9-15.6-18.5c-0.9-1.5-1.8-2.9-2.7-4.3c-49.3,0-89.4,0-105.3,0c0.4,0.6,0.9,1.2,1.6,1.8
		c4.4,4.5,29.7,18.8,38.4,21.7l3.3,1.1l9.9-4.7c5.4-2.6,10.5-4.7,11.4-4.7s10.4,1.7,21.1,3.8c10.8,2.1,21.4,4.1,23.6,4.4
		c3.3,0.6,4.5,1.1,6.4,2.9c3,2.9,3,4.8,0.1,8.2c-2.8,3.4-3.1,4.8-2.2,10c0.4,2.4,0.7,6.7,0.7,9.8v0.5H188.8z"/>
	<path fill="#FFFFFF" d="M561,307.4c-9.3,1.1-14.7,0.2-21.2-2c-0.4-0.1-0.8-0.3-1.3-0.4l-9.7,0.8l9.6,8.1l-1.9,7.7
		c2.7-0.2,4.9-0.4,6.9-0.7l2.5-1.6l1.5,0.9c2.5-0.5,4.7-1.2,7.2-2.2l-1-4.2L561,307.4z"/>
	<polygon fill="#FFFFFF" points="408.4,263.2 416.4,251.2 419.2,247.1 413.4,249.3 401,253.9 395.9,237.8 395.1,235.4 394.6,237 
		389.1,253.8 389.1,253.9 370.9,247.1 381.7,263.2 368.6,271 365,273.1 384.4,274.8 381.6,294 395,280 408.4,294.1 405.8,274.8 
		425.1,273.2 419.5,269.8 	"/>
</g>
</svg>
