<?xml version="1.0" encoding="utf-8"?>
<!-- Generator: Adobe Illustrator 17.1.0, SVG Export Plug-In . SVG Version: 6.00 Build 0)  -->
<!DOCTYPE svg PUBLIC "-//W3C//DTD SVG 1.1//EN" "http://www.w3.org/Graphics/SVG/1.1/DTD/svg11.dtd">
<svg version="1.1" id="flag-icon-css-hn" xmlns="http://www.w3.org/2000/svg" xmlns:xlink="http://www.w3.org/1999/xlink" x="0px"
	 y="0px" viewBox="0 0 640 480" enable-background="new 0 0 640 480" xml:space="preserve">
<g>
	<path fill="#0073CF" d="M528.3,157.5c0.9,0.2,2.7,0.4,4,0.4c1.4,0,2.9,0.2,3.6,0.6c0.9,0.5,1.4,0.4,2.6-0.7l1.4-1.4l-1.7-0.4
		c-1-0.2-2.3-1-3-1.6c-1.2-1.1-1.2-1.1,0.1-1.6c1.7-0.6,1.7-3.5,0.1-6.5c-0.7-1.3-1.2-3.2-1.2-4.3c0-1.7-0.7-2.6-4.8-6.3
		c-9.9-8.7-9.2-8.3-13.5-8.3c-3.9,0-13.1-0.9-15.6-1.6c-0.7-0.1-0.9-0.1-0.5,0.1c1.2,0.6,0.9,1.6-1.1,3.8c-1.2,1.4-2.6,2.2-4.2,2.4
		c-2.1,0.3-2.5,0.2-3.5-1.3l-1.1-1.7l-1.6,2c-1.8,2.2-2.2,2.4-3.9,0.7c-1.4-1.4-1.7-6-0.6-8.1c0.7-1.4,0.6-1.6-4.2-2.6l-3.9-0.8
		l-2.1,2.2c-3.6,3.9-7.7,4-9.4,0.2c-1-2.1-1-2.2,0.2-3.9l1.3-1.7l-1.4-0.7c-0.8-0.4-4.7-2-8.7-3.6c-10.7-4.2-14.6-3.8-19.8,1.8
		c-3.6,3.9-9.6,5.7-20.9,6.3c-4.4,0.2-9,0.8-10.2,1.2c-4.4,1.8-8.3,0.7-21.1-5.8c-4.9-2.5-9.2-4.4-9.5-4.2c-0.3,0.2-1.1-0.2-1.7-0.9
		c-0.6-0.7-2.2-1.4-3.6-1.7c-2.4-0.4-2.7-0.2-3.4,1.3c-0.5,1-1.6,2.3-2.6,3c-1.4,1.1-1.9,1.1-3.5,0.5c-1.7-0.7-2.3-0.6-6.4,1.6
		c-4.5,2.3-4.8,2.4-13.3,2.7c-11.2,0.5-13.1,1.2-18.3,5.9c-4.3,3.9-11.6,7.7-13.6,6.9c-0.5-0.2-1.3,0-1.7,0.4
		c-0.6,0.5-2,0.1-5.8-1.6c-4.4-2.1-5.2-2.2-7-1.6c-1.2,0.3-3.7,0.8-5.5,1s-5.4,0.7-7.9,1.1c-3.3,0.5-5.4,0.5-8.4-0.1
		c-3.7-0.7-4.1-0.7-7.3,0.8c-1.9,0.8-5.3,1.9-7.5,2.3c-3.7,0.6-4.9,0.6-10-0.6c-3.2-0.7-8.9-1.7-12.7-2.3
		c-7.5-1.1-14.8-2.7-22.2-4.7l-4.7-1.3l-2.4,1.6c-1.3,0.9-2.6,1.6-2.9,1.6s-1.5,0.7-2.6,1.6c-2.9,2.2-4.8,1.9-10.9-1.4
		c-5.5-3-5.7-2.8-1.4,1.7l2.1,2.2l-1.8,0.4c-0.9,0.2-2.1,0.1-2.5-0.3c-0.5-0.4-1.2-0.4-2,0.1c-2.7,1.5-3.4,0.9-3.1-2.6
		c0.2-2.5,0.7-3.6,2-4.7l1.7-1.4l-1.5-1.8c-1.4-1.7-1.6-1.7-2.5-0.9c-0.9,0.9-1.4,0.7-5-1.6l-4.1-2.7l-1.9,1.6
		c-2.2,1.8-2.3,1.9-4.7,1c-2.2-0.9-7.8,0.4-10.7,2.4c-1.4,0.9-2.9,1.4-4,1.2c-2.2-0.2-2.9,1-1.1,2c2.1,1.1,1.6,3.1-1,4.1
		c-1.3,0.5-2.9,1.2-3.4,1.5c-0.6,0.4-2.1,0.6-3.3,0.6c-1.7,0-2.2,0.2-2.2,1.2c0,0.7-1.1,1.9-3,3.2c-1.8,1.1-3.5,2.9-4,4.1
		c-1.7,3.7-3.9,3.6-8.7-0.1c-3.1-2.4-3.6-2.4-5,0.5c-0.4,0.7-1.3,1.5-2.1,1.6c-0.7,0.1-1.7,0.6-2.1,1.1c-0.4,0.5-1.4,0.9-2.3,0.9
		c-0.9,0-1.6,0.4-1.8,1.1c-1.1,3.5-2.9,5.8-8,9.8c-1.8,1.5-4.3,3.6-6.6,5.6h434.1C526,157.9,526.2,157,528.3,157.5z"/>
	<path fill="#0073CF" d="M536.5,141.3v2.3c0,2.4,0.5,2.9,1.6,1.7c0.9-0.9,3.6,1.3,4.6,3.7c0.9,2.3,0.4,4.6-1.4,6.3
		c-0.7,0.7-1.1,1.2-0.7,1.2c1.5,0,2.7,1.9,2.1,3.1c-0.1,0.1-0.1,0.2-0.2,0.3h3.1c0.1-0.3,0.1-0.7,0.1-1.1c0-1.4,0-1.4,4.3,0.7
		c0.3,0.1,0.5,0.3,0.7,0.4h5.6c-3.7-3.2-9.3-8.3-12.9-11.8L536.5,141.3z"/>
	<path fill="#0073CF" d="M351.5,106.1c-0.9-0.2-2.4-0.5-3.4-0.5c-1.6-0.1-1.7,0.1-0.6,0.5c0.7,0.3,2.2,0.5,3.4,0.5
		C352.9,106.6,352.9,106.5,351.5,106.1z"/>
	<path fill="#0073CF" d="M361,57.5c0.4-0.6,1.5-1.5,2.4-1.8l1.5-0.6l-1.4-0.4c-0.8-0.2-1.4-0.6-1.4-0.9s-0.2-0.6-0.6-0.6
		c-0.3,0-0.6,0.4-0.6,0.9c0,0.6-0.4,0.7-1.2,0.6c-1.2-0.3-1.6,0.1-5,5.4c-2.6,3.9-2.3,4.3,0.9,1.3c1.5-1.4,3.2-2.6,3.7-2.6
		S360.5,58.2,361,57.5z"/>
	<path fill="#0073CF" d="M354.6,106.5l1.1,1.9c1.1,1.9,1.1,1.9,2.3,0.7c1.4-1.4,1.2-1.7-1.4-2.2L354.6,106.5z"/>
	<path fill="#0073CF" d="M332.6,61c0.2-0.2-0.1-0.4-0.8-0.3c-0.7,0-0.9,0.2-0.4,0.4C331.9,61.3,332.5,61.2,332.6,61z"/>
	<path fill="#0073CF" d="M287.8,76.3c1.4-1.6,3-2.6,3.8-2.6c0.7,0,5-1.8,9.6-4c4.5-2.2,8.8-4,9.5-4s2.7-0.7,4.4-1.5
		c1.7-0.9,2.9-1.5,2.5-1.5c-0.3,0.1-2.4,0.2-4.7,0.5c-3.1,0.3-6.2,1.4-13.6,4.8c-10.9,5-13.8,6.9-13.8,9.3
		C285.5,78.9,285.5,78.8,287.8,76.3z"/>
	<path fill="#0073CF" d="M178.5,398.5c2.6-0.5,2.6-0.5,1.8-2.4c-0.7-1.4-2.5-2.1-3.4-1.1c-0.2,0.2-0.4,1.2-0.4,2.1
		C176.5,398.8,176.6,398.8,178.5,398.5z"/>
	<path fill="#0073CF" d="M346.2,320.5c0.7,1.2,2.7,3.2,4.4,4.6c5.5,4.5,5.1,4.3,6.7,3.5c0.7-0.4,2.2-0.7,3.2-0.6
		c1.4,0.1,1.9,0.6,2,1.7c0.1,0.9,0.5,2.5,0.8,3.6c0.7,2.1,1.1,2.2,6.4,2.9c2.4,0.3,2.9,0.2,2.9-0.6c0-0.6-0.6-1.4-1.3-2.1
		c-1.2-1-1.3-1.3-0.6-5.7c0.4-2.6,0.8-4.6,0.9-4.7c0.1,0,1.7-0.6,3.7-1.2c1.5-0.5,3.1-1.3,4.1-2h-33.6
		C346,320.1,346.1,320.3,346.2,320.5z"/>
	<path fill="#0073CF" d="M251.5,99.3c1.1-0.3,2.7-1.5,3.7-2.5c1.8-2,2-2.7,0.4-1.9c-0.5,0.3-2.2,0.7-3.7,0.9
		c-2.9,0.4-5.6,1.8-5.6,2.8C246.2,99.5,249.4,99.9,251.5,99.3z"/>
	<path fill="#0073CF" d="M81.7,320.7c0.5,0.6,1.8,1,3.3,1c2.6,0,6.1,1.5,6.1,2.6c0,0.4-0.3,1.2-0.7,1.9c-0.6,1-0.5,2.2,0,4.6
		c1.1,4.9,1.9,5.2,6.3,2.9c4.2-2.4,5.4-2.4,7.2-0.7l1.4,1.3l5.2-2.9c6.5-3.7,7.2-4.4,7.7-7c0.2-1.1,0.9-2.3,1.4-2.6
		c0.6-0.2,4.2-0.4,8.2-0.2l7.3,0.2l3,5.4c1.6,2.9,3.1,5.5,3.1,5.6c0.1,0.1,1-0.2,1.9-0.9c2.2-1.5,8.7-1.9,12.6-0.7
		c2.6,0.7,3.2,0.7,4.3,0c1.7-1.2,3.2-0.4,5.6,3.1c1,1.5,2.9,3.5,4,4.4c1.2,0.9,2.2,2.1,2.2,2.6c0,0.5-1.1,3.5-2.5,6.6
		c-1.9,4.5-2.5,6.5-2.5,9.3s-0.3,3.9-1.6,5.6c-1.2,1.6-1.6,2.9-1.6,5.4c0,3.2,0.1,3.3,1.7,3.3c2.5,0,4.4,1.6,4.9,4
		c0.5,2.8-0.1,3.6-5.1,5.9c-3.9,1.8-4.7,3.2-2.1,3.2c0.6,0,2.1,0.8,3.2,1.9c2,1.7,2.1,1.8,2.9,0.6c0.5-0.7,1.5-1.2,2.3-1.2
		c2.6,0,5.8-3.9,4.7-5.6c-1-1.6-0.7-2.4,1.3-3.4c2.4-1.2,2.8-0.9,2,1.9c-0.6,1.9-0.5,2.2,0.6,3c1.1,0.7,1.2,1.1,0.7,3
		c-0.4,1.2-1,2.1-1.4,1.9c-1.2-0.2-2.6,1.1-2.6,2.7c0,3.1,5.3,4.5,7,1.9c0.6-0.7,2.4-1.9,4.3-2.6c5.5-1.9,10.3-4.5,11.6-6.4
		c1.1-1.4,1.4-1.6,2.2-0.9c1.3,1.1,1.2,1.7-0.2,2.2c-0.7,0.2-1.3,1.2-1.6,2.2c-0.2,1.2-0.8,2.1-1.6,2.2c-0.6,0.2-1.4,0.9-1.6,1.5
		c-0.2,0.7-1.5,2.1-2.9,3.2c-1.3,1.1-2.4,2.2-2.4,2.5c0,0.4,1,1.8,2.1,3.2c2.6,3.1,5.3,8.7,5.4,11c0.1,2.6,0.7,3.4,3,3.6
		c2.6,0.1,4.1,1.6,4.1,3.7c0,1.2,0.7,2.2,3.1,4c2.4,1.8,3.1,2.7,3.1,4c0,1.5,0.2,1.7,1.6,1.6c0.9-0.1,4.1-0.4,7.2-0.8
		c7.5-0.8,12.1-0.8,15.6,0.1c2.4,0.7,2.9,0.6,3.6-0.3c0.4-0.6,1.9-1.4,3.3-1.9c1.6-0.6,3.4-1.9,5-3.8l2.5-3l0.1-6.6
		c0.1-3.7,0.4-7.8,0.9-9.4c1.1-3.4,4.3-6.7,7.4-7.6c2.1-0.6,2.6-0.5,5.9,1.3c3.2,1.8,3.7,1.9,5.4,1.2c3.1-1.2,3.4-2.1,2.5-5.9
		c-0.4-1.9-1-3.4-1.2-3.4c-0.2,0-0.9-0.4-1.5-0.8c-1.1-0.7-1.1-0.9,0-3.1c1-2.2,1-2.6,0-8.7c-0.6-3.7-1.6-7.1-2.3-8.1
		c-1.1-1.6-1.1-1.9-0.2-4.3c1.2-3.4,1.2-3.4-0.9-4.7l-1.9-1.2l1.2-2.3c0.8-1.5,1.2-3.5,1.2-5.7c0-2.9,0.2-3.5,1.4-4.2
		c0.7-0.4,5.7-1.1,11-1.5l9.7-0.8l2.9,1.6c2.6,1.4,3.1,1.5,4.9,0.8c1.7-0.7,2.2-0.6,4,0.4c1.8,0.9,2.5,1,4,0.4
		c1.4-0.6,2-0.5,2.6,0.2c0.4,0.5,1.2,0.9,1.8,0.9c1.9,0,4.5-4,4.5-7c0-1.1,0.5-2.1,1.5-2.9c2.8-2.2,10.8-11.5,10.8-12.5
		c0-0.6,0.9-1.3,2.1-1.7c1.1-0.4,1.6-0.7,1.8-1.2H81.1C81.3,320.2,81.5,320.4,81.7,320.7z"/>
	<path fill="#FFFFFF" d="M549.6,174.6c-1.3,1.3-1.4,1.9-0.9,3.2c0.2,0.6,1.1,0.8,2.4,0.6c1.2-0.1,2.7,0.1,3.6,0.6
		c0.8,0.4,3,0.8,4.8,0.9c3.5,0.1,4.7,0.7,3.3,1.6c-0.7,0.4-0.1,1,2.1,2.4c3.4,2.1,4.2,2.3,5.2,1.1c0.5-0.7-1.1-2-7.4-6.3
		c-4.4-3.1-8.3-5.3-8.7-5.1c-0.4,0.2-0.7,1-0.7,1.7c0,0.6-0.4,1.2-0.9,1.2c-1.4,0-1.9-1.2-1-2.2
		C552.7,172.9,551.1,173.1,549.6,174.6z"/>
	<path fill="#FFFFFF" d="M638.2,213.8c-3,0.4-14.5-5.4-14.5-7.4c0-0.8-8.1-15.4-8.7-15.8c-0.2-0.2-0.7,0.7-0.9,1.9
		c-0.3,1.5-0.7,2.1-1.3,1.7c-1.1-0.4-1.2-4-0.2-5c1.1-1.1,0.3-1.5-7.9-4.2c-7.4-2.5-13-5-20-8.9c-3.3-1.8-4.7-2.2-5.2-1.7
		c-1.1,1.1-0.8,2.3,0.6,2.3c0.6,0,2.2,0.9,3.4,1.9c1.2,1.1,2.5,1.7,2.9,1.5c0.4-0.2,1.1-0.1,1.6,0.4c0.6,0.4,2,0.7,3.2,0.7
		c1.5-0.1,3.2,0.4,4.7,1.4l2.5,1.5l-2,0.4c-1.1,0.2-3.4,0.3-5.2,0.2c-2.8-0.2-3.3,0-3.7,1.1c-0.2,0.7-1.7,2.1-3.3,3
		c-3,1.7-3.3,2.1-2.2,3.2c0.5,0.5-0.1,1.2-1.8,2.4c-2.4,1.7-2.5,1.7-4,0.7c-1.9-1.2-2.6-3.2-2.1-6.3c0.5-3.2-0.7-3.3-6.4-0.6
		c-7.1,3.3-8.7,3.5-11.5,1c-1.2-1.1-2.4-2.7-2.6-3.5c-0.3-1.2-0.9-1.4-2.9-1.6c-2-0.1-2.6-0.4-2.6-1.2c0.1-0.7-0.7-1.2-2.7-1.7
		c-4-1.1-7.7-4.6-8.1-8c-0.3-2.4-0.2-2.7,1.3-3.4c1.9-0.9,2-1.6,0.6-3.6c-0.9-1.2-0.9-1.6-0.2-1.9c0.6-0.4,0.7-0.9,0-2.2
		c-0.6-1.2-0.9-1.5-1.2-0.9c-0.3,0.5-1.1,0.7-1.9,0.4c-1.1-0.3-1.3-0.1-1.3,1.2c0,1.2-0.3,1.6-1.2,1.6c-0.7,0-1.3,0.6-1.6,1.6
		c-0.5,2-1.6,1.4-1.6-0.8c-0.1-0.9-0.9-2.6-1.9-3.9c-0.3-0.3-0.5-0.6-0.8-0.9H93.5c-1.5,1.3-3,2.6-4.1,3.6c-2.8,2.6-6.4,5.4-7.8,6.1
		c-1.5,0.7-5,3.6-8,6.5c-4.2,4.1-6.5,5.8-11.5,8.3c-4.7,2.4-7.7,4.4-12.1,8.5c-6.1,5.5-9.5,7.6-17.3,10.6c-6.9,2.6-10.2,5-11.1,8.4
		c-0.7,2.4-0.7,2.9,0.1,3.7c0.5,0.6,0.9,1.6,0.9,2.1c0,1.9-3.1,7-4.7,7.8c-2.1,0.9-2.1,4.1,0.1,7c3.2,4.5,4,5.9,4.4,8.2
		c0.3,1.7,0.9,2.6,1.9,3.1c1.7,0.8,1.8,1.3,0.6,4.7c-0.5,1.5-0.7,3.6-0.6,5.4c0.2,2.1,0.1,3.4-0.7,4.5c-1,1.5-1.2,1.6-4.6,1.2
		l-3.6-0.4l-4.9,5.4c-2.6,2.9-5.2,5.4-5.5,5.4c-0.4,0-1.2,1-1.8,2.2l-1,2.1l2.2,1.7c1.7,1.3,3.2,1.7,6.9,2.1
		c4.4,0.4,4.9,0.6,7.4,3.1c1.4,1.4,3,2.6,3.5,2.6s1.6-0.9,2.4-2.1c0.8-1.2,2.2-2.5,3.3-2.9c2.2-0.9,3.4-0.2,5,3.5
		c0.6,1.4,1.4,2.8,1.8,3.1c0.4,0.2,1.2,1.6,1.9,3.1c1.5,3.2,5.7,8.6,7.2,9.2c0.6,0.2,2,0.4,3.1,0.4c2.2,0.1,6.1,3.4,7.8,6.8
		c1.4,2.6,5.4,4.4,9.3,4.5c2.9,0,2.9,0,3.3,2.5c0.2,1.4,1.2,3.4,2.3,4.7c1.9,2.1,2.1,2.2,4.9,1.8c2.7-0.3,5.1,0.3,6.8,1.8h250.1
		c0.2-0.4,0.1-1,0-2l-0.3-2.4l5.4-2c5.7-2.1,9.5-2.5,10.1-1.1c0.1,0.4-0.1,1.9-0.6,3.4c-0.8,2.2-0.8,2.6,0.2,4.1h33.6
		c0.3-0.2,0.6-0.5,0.7-0.7c0.6-0.8,1.4-1.4,1.7-1.4c2,0.4,3.7-0.4,6.2-2.7c2.6-2.4,2.9-2.5,3.6-1.4c1.2,1.6,3.1,0.9,4.2-1.4
		c0.6-1.1,1.2-1.9,1.4-1.6c0.2,0.2,1.5-0.5,2.9-1.6c2.1-1.6,2.7-1.9,3.4-1.3c1.6,1.3,4.5-1.1,4.1-3.3c-0.1-0.3,0.5-1.3,1.2-2.2
		c0.8-1.2,1.2-2.6,1.1-4.2c-0.1-2.2,0-2.4,1.5-2.4c1,0,2.3-0.7,3.2-1.6c1.5-1.6,1.9-1.7,6.8-1.5c2.9,0.1,6,0.3,7,0.6
		c1.5,0.4,1.8,0.3,2.6-1.7c0.8-2,0.8-2.4-0.2-4.1c-0.6-1.1-1.4-1.9-1.8-1.9c-0.4,0-0.8-0.6-0.8-1.2c0-0.7-0.6-1.7-1.4-2.2l-1.3-0.9
		l3-5.8c0.8-1.4,1.6-3,2.3-4.4l-2.8-1.9l3.8,0.1c0.5-1,0.9-1.8,1.2-2.4c1.3-2.4,1.4-3.3,0.9-5.1c-1.1-3.8,1.7-4.9,4.4-1.7
		c1.5,1.8,1.5,1.8,3.4,0.7c1.9-1.2,4.4-4.4,3.3-4.4c-0.3,0-0.6-0.4-0.6-0.9c0-0.5,0.3-0.9,0.6-0.9c1,0,0.7-1.4-0.6-2.8
		c-1.6-1.7-1.1-3.7,0.7-3.2c1.1,0.3,1.2,0.1,0.9-1.1s0.2-1.9,3.7-4.6c2.2-1.7,4.4-3.2,4.9-3.2c0.6,0,1.7-1.3,2.6-2.9
		c1.4-2.4,1.9-2.8,3.3-2.6c0.9,0.2,2.6-0.1,3.8-0.6c3.1-1.3,4.7-0.7,8.1,3c2.4,2.6,2.9,3.4,2.3,4.3c-0.5,0.8-0.1,1.8,2.4,4.9
		c1.6,2.1,3.1,3.6,3.2,3.2c0.3-1,4.4-0.8,7.5,0.2c1.5,0.6,4.4,1.1,6.5,1.4c3.2,0.3,3.7,0.6,3.4,1.5c-0.5,1.8,4.5,3.2,6.9,1.9
		c0.6-0.4,1.7-0.7,2.6-0.9c1-0.2,2.6-1.7,4.2-4c2.1-2.9,2.9-3.6,3.9-3.4c0.9,0.2,1.2,0.7,0.9,1.6c-0.2,1.1-0.1,1.2,2.2,0.8
		c2.1-0.4,2.4-0.2,2.4,0.9c0,0.9,0.4,1.2,1.5,1.2c2.4,0,3-1.3,1.9-4.4l-1-2.7l2-1.9c1.8-1.7,1.9-1.8,2.6-0.7c2.9,4.6,4.1,5,9.2,2.8
		c3.1-1.3,3.6-2,2.4-2.7c-1.2-0.7-0.6-2,1.6-3l2.2-1.1v1.9c0,1.5,0.2,1.9,0.9,1.6c0.5-0.2,1.4-0.6,1.9-0.7c0.6-0.2,0.9,0,0.9,0.6
		c0,0.7,0.6,0.9,2.4,0.6c1.4-0.2,2.6-0.1,2.8,0.3c0.3,0.5,0.8,0.5,1.9,0.1c1.1-0.5,1.8-0.5,2.7,0c1.1,0.6,1.3,0.4,1.7-1.1
		c0.7-2.7,3.2-3.6,5.4-1.6c1.1,0.9,1.4,0.9,3.9-0.1c2.1-0.9,2.7-1.4,2.5-2.2c-0.2-0.9,0.1-1.1,2.2-1c1.8,0,3.1-0.4,4.4-1.6
		c1.1-0.9,2.3-1.6,2.7-1.6c0.4,0,1.1-0.6,1.4-1.4c0.8-1.7,5.9-3.3,7.7-2.3c1,0.5,1.2,0.4,1.2-0.3c0-0.5,1.1-1.7,2.5-2.6
		c3-2,5.9-5.6,5.4-6.9c-0.2-0.6,0.2-1.1,1.2-1.5c0.9-0.3,1.6-1,1.6-1.6c0-0.5,0.7-1.1,1.7-1.3c1.3-0.4,1.9-0.1,3,1.2l1.4,1.7
		l2.6-1.3c1.9-1,2.6-1.7,2.6-2.9c0-1.9,0.2-1.9,2.9,0.1c1.6,1.2,2.4,1.5,2.6,0.9c0.5-1.6,8.1,0.1,7.7,1.7c-0.1,0.4,0.3,0.6,1.1,0.3
		c1.3-0.4,9.2-0.6,11.9-0.2c1,0.1,1.6-0.1,1.7-0.8C639.9,213.7,639.6,213.5,638.2,213.8z M202.4,298.9l-15.7-11.9L171,298.9
		l6.5-18.6l-16.2-11.2l19.7,0.4l5.7-18.9l5.7,18.9l19.7-0.4l-16.2,11.2L202.4,298.9z M195.9,200.3l6.5,18.6l-15.7-11.9L171,218.9
		l6.5-18.6l-16.2-11.2l19.7,0.4l5.7-18.9l5.7,18.9l19.7-0.4L195.9,200.3z M329.2,243l6.5,18.6L320,249.6l-15.7,11.9l6.5-18.6
		l-16.2-11.2l19.7,0.4l5.7-18.9l5.7,18.9l19.7-0.4L329.2,243z M462.5,200.3l6.5,18.6l-15.7-11.9l-15.7,11.9l6.5-18.6l-16.2-11.2
		l19.7,0.4l5.7-18.9l5.7,18.9l19.7-0.4L462.5,200.3z"/>
	<path fill="#FFFFFF" d="M543.4,161.2c1.1,0.4,2-0.1,2.3-1.2h-3.1C542.3,160.7,542.5,161,543.4,161.2z"/>
	<path fill="#FFFFFF" d="M578.6,173.4c0.2-0.4,0-0.6-0.4-0.6c-0.4,0-1.5-0.2-2.4-0.4c-1.4-0.4-1.5-0.3-0.7,0.6
		C576,174.1,578,174.4,578.6,173.4z"/>
	<path fill="#FFFFFF" d="M554.4,160.9c0.6-0.6,5.3,3.9,5.9,5.5c0.2,0.5,0.8,0.6,1.9,0.2c1.6-0.4,1.4-0.6-4.9-6
		c-0.2-0.2-0.5-0.4-0.7-0.6h-5.6C552.8,160.9,554.1,161.2,554.4,160.9z"/>
	<polygon fill="#0073CF" points="320,213.3 314.3,232.2 316.6,232.3 	"/>
	<polygon fill="#0073CF" points="320,232.3 325.7,232.2 320,213.3 316.6,232.3 	"/>
	<polygon fill="#0073CF" points="320,232.3 322.5,232.4 322.2,234.9 322.6,234.8 322.7,234.7 322.8,234.8 345.4,231.8 325.7,232.2 	
		"/>
	<polygon fill="#0073CF" points="322.8,234.8 323.2,235.6 324.2,235.8 323.7,236.6 326.5,235.3 329.2,243 345.4,231.8 	"/>
	<polygon fill="#0073CF" points="322.6,234.8 322.2,234.9 322.1,235.4 	"/>
	<polygon fill="#0073CF" points="294.6,231.8 310.8,243 311.6,240.9 	"/>
	<polygon fill="#0073CF" points="323.7,236.6 324.2,235.8 323.2,235.6 323.7,236.6 	"/>
	<polygon fill="#0073CF" points="313.5,235.3 316.3,236.6 317.3,234.7 320,237.7 322.1,235.4 322.2,234.9 322.5,232.4 320,232.3 
		316.6,232.3 314.3,232.2 294.6,231.8 311.6,240.9 	"/>
	<polygon fill="#0073CF" points="326.5,235.3 323.7,236.6 323.7,236.6 325.7,240.9 325.9,241 325.8,241.1 335.7,261.6 329.2,243 	
		"/>
	<polygon fill="#0073CF" points="320,237.7 320.9,238.7 325.7,240.9 323.7,236.6 323.2,235.6 322.8,234.8 322.7,234.7 322.6,234.8 
		322.1,235.4 	"/>
	<polygon fill="#0073CF" points="325.8,241.1 324.4,242.4 326.5,244.7 320,249.6 335.7,261.6 	"/>
	<polygon fill="#0073CF" points="320,237.7 317.3,234.7 316.3,236.6 320.9,238.7 	"/>
	<polygon fill="#0073CF" points="326.5,244.7 324.4,242.4 304.3,261.6 320,249.6 	"/>
	<polygon fill="#0073CF" points="324.4,242.4 325.8,241.1 325.9,241 325.7,240.9 320.9,238.7 316.3,236.6 313.5,235.3 311.6,240.9 
		310.8,243 304.3,261.6 	"/>
	<polygon fill="#0073CF" points="453.3,170.6 447.6,189.5 449.9,189.6 	"/>
	<polygon fill="#0073CF" points="453.3,189.6 459,189.5 453.3,170.6 449.9,189.6 	"/>
	<polygon fill="#0073CF" points="453.3,189.6 455.8,189.7 455.5,192.2 455.9,192.1 456,192 456.1,192.1 478.7,189.1 459,189.5 	"/>
	<polygon fill="#0073CF" points="456.1,192.1 456.5,192.9 457.5,193.1 457,193.9 459.8,192.6 462.5,200.3 478.7,189.1 	"/>
	<polygon fill="#0073CF" points="455.9,192.1 455.5,192.2 455.4,192.7 	"/>
	<polygon fill="#0073CF" points="427.9,189.1 444.1,200.3 444.9,198.2 	"/>
	<polygon fill="#0073CF" points="457,193.9 457.5,193.1 456.5,192.9 457,193.9 	"/>
	<polygon fill="#0073CF" points="446.8,192.6 449.6,193.9 450.6,192 453.3,195 455.4,192.7 455.5,192.2 455.8,189.7 453.3,189.6 
		449.9,189.6 447.6,189.5 427.9,189.1 444.9,198.2 	"/>
	<polygon fill="#0073CF" points="459.8,192.6 457,193.9 457,193.9 459,198.2 459.2,198.3 459.1,198.4 469,218.9 462.5,200.3 	"/>
	<polygon fill="#0073CF" points="453.3,195 454.2,196 459,198.2 457,193.9 456.5,192.9 456.1,192.1 456,192 455.9,192.1 
		455.4,192.7 	"/>
	<polygon fill="#0073CF" points="459.1,198.4 457.7,199.7 459.8,202 453.3,206.9 469,218.9 	"/>
	<polygon fill="#0073CF" points="453.3,195 450.6,192 449.6,193.9 454.2,196 	"/>
	<polygon fill="#0073CF" points="459.8,202 457.7,199.7 437.6,218.9 453.3,206.9 	"/>
	<polygon fill="#0073CF" points="457.7,199.7 459.1,198.4 459.2,198.3 459,198.2 454.2,196 449.6,193.9 446.8,192.6 444.9,198.2 
		444.1,200.3 437.6,218.9 	"/>
	<path fill="#0073CF" d="M430.8,271c0.1-0.1,0.1-0.2,0.2-0.3l-3-1.6L430.8,271z"/>
	<path fill="#0073CF" d="M430.9,270.7c0.3-0.5,0.5-1,0.8-1.5l-3.8-0.1L430.9,270.7z"/>
	<polygon fill="#0073CF" points="186.7,170.6 181,189.5 183.3,189.6 	"/>
	<polygon fill="#0073CF" points="186.7,189.6 192.4,189.5 186.7,170.6 183.3,189.6 	"/>
	<polygon fill="#0073CF" points="186.7,189.6 189.2,189.7 188.9,192.2 189.3,192.1 189.4,192 189.5,192.1 212.1,189.1 192.4,189.5 	
		"/>
	<polygon fill="#0073CF" points="189.5,192.1 189.9,192.9 190.9,193.1 190.4,193.9 193.2,192.6 195.9,200.3 212.1,189.1 	"/>
	<polygon fill="#0073CF" points="189.3,192.1 188.9,192.2 188.8,192.7 	"/>
	<polygon fill="#0073CF" points="161.3,189.1 177.5,200.3 178.3,198.2 	"/>
	<polygon fill="#0073CF" points="190.4,193.9 190.9,193.1 189.9,192.9 190.4,193.9 	"/>
	<polygon fill="#0073CF" points="180.2,192.6 183,193.9 184,192 186.7,195 188.8,192.7 188.9,192.2 189.2,189.7 186.7,189.6 
		183.3,189.6 181,189.5 161.3,189.1 178.3,198.2 	"/>
	<polygon fill="#0073CF" points="193.2,192.6 190.4,193.9 190.4,193.9 192.4,198.2 192.6,198.3 192.5,198.4 202.4,218.9 
		195.9,200.3 	"/>
	<polygon fill="#0073CF" points="186.7,195 187.6,196 192.4,198.2 190.4,193.9 189.9,192.9 189.5,192.1 189.4,192 189.3,192.1 
		188.8,192.7 	"/>
	<polygon fill="#0073CF" points="192.5,198.4 191.1,199.7 193.2,202 186.7,206.9 202.4,218.9 	"/>
	<polygon fill="#0073CF" points="186.7,195 184,192 183,193.9 187.6,196 	"/>
	<polygon fill="#0073CF" points="193.2,202 191.1,199.7 171,218.9 186.7,206.9 	"/>
	<polygon fill="#0073CF" points="191.1,199.7 192.5,198.4 192.6,198.3 192.4,198.2 187.6,196 183,193.9 180.2,192.6 178.3,198.2 
		177.5,200.3 171,218.9 	"/>
	<polygon fill="#0073CF" points="186.7,250.6 181,269.5 183.3,269.6 	"/>
	<polygon fill="#0073CF" points="186.7,269.6 192.4,269.5 186.7,250.6 183.3,269.6 	"/>
	<polygon fill="#0073CF" points="186.7,269.6 189.2,269.7 188.9,272.2 189.3,272.1 189.4,272 189.5,272.1 212.1,269.1 192.4,269.5 	
		"/>
	<polygon fill="#0073CF" points="189.5,272.1 189.9,272.9 190.9,273.1 190.4,273.9 193.2,272.6 195.9,280.3 212.1,269.1 	"/>
	<polygon fill="#0073CF" points="188.9,272.2 188.8,272.7 189.3,272.1 	"/>
	<polygon fill="#0073CF" points="161.3,269.1 177.5,280.3 178.3,278.2 	"/>
	<polygon fill="#0073CF" points="190.4,273.9 190.9,273.1 189.9,272.9 190.4,273.9 	"/>
	<polygon fill="#0073CF" points="180.2,272.6 183,273.9 184,272 186.7,275 188.8,272.7 188.9,272.2 189.2,269.7 186.7,269.6 
		183.3,269.6 181,269.5 161.3,269.1 178.3,278.2 	"/>
	<polygon fill="#0073CF" points="193.2,272.6 190.4,273.9 190.4,273.9 192.4,278.2 192.6,278.3 192.5,278.4 202.4,298.9 
		195.9,280.3 	"/>
	<polygon fill="#0073CF" points="189.3,272.1 188.8,272.7 186.7,275 187.6,276 192.4,278.2 190.4,273.9 189.9,272.9 189.5,272.1 
		189.4,272 	"/>
	<polygon fill="#0073CF" points="192.5,278.4 191.1,279.7 193.2,282 186.7,286.9 202.4,298.9 	"/>
	<polygon fill="#0073CF" points="186.7,275 184,272 183,273.9 187.6,276 	"/>
	<polygon fill="#0073CF" points="193.2,282 191.1,279.7 171,298.9 186.7,286.9 	"/>
	<polygon fill="#0073CF" points="191.1,279.7 192.5,278.4 192.6,278.3 192.4,278.2 187.6,276 183,273.9 180.2,272.6 178.3,278.2 
		177.5,280.3 171,298.9 	"/>
</g>
</svg>
