<?xml version="1.0" encoding="utf-8"?>
<!-- Generator: Adobe Illustrator 17.1.0, SVG Export Plug-In . SVG Version: 6.00 Build 0)  -->
<!DOCTYPE svg PUBLIC "-//W3C//DTD SVG 1.1//EN" "http://www.w3.org/Graphics/SVG/1.1/DTD/svg11.dtd">
<svg version="1.1" id="flag-icon-css-ht" xmlns="http://www.w3.org/2000/svg" xmlns:xlink="http://www.w3.org/1999/xlink" x="0px"
	 y="0px" viewBox="0 0 640 480" enable-background="new 0 0 640 480" xml:space="preserve">
<g>
	<path fill="none" d="M601.2,95.9c-0.1-1,0.4-2.1,1.3-2.9c0.8-0.8,1.5-1.6,1.5-1.9c0-0.7-0.8-0.5-2.1,0.5c-0.7,0.4-1.6,0.7-2,0.6
		c-0.6-0.2-0.7,0.1-0.5,1.2c0.2,0.9,0,1.7-0.4,1.9c-0.9,0.6-0.1,2.2,1.2,2.2C601,97.4,601.3,97,601.2,95.9z"/>
	<path fill="none" d="M357.4,36.8c-1.6-1.2-3.5-1.2-3.5,0c0,0.7,0.7,0.9,2.4,0.9C358.5,37.7,358.5,37.6,357.4,36.8z"/>
	<path fill="none" d="M386.3,172.4c-0.3-0.2-0.6,0.1-0.6,0.6c0,0.6,0.3,1,0.6,1c0.4,0,0.6-0.2,0.6-0.6
		C386.9,173,386.7,172.6,386.3,172.4z"/>
	<path fill="none" d="M525.4,337.3c0.2-0.2-0.6-1.4-1.7-2.6c-1.2-1.2-2.3-2.2-2.5-2.2c-0.8,0-3.2,2.6-2.9,3.3
		C518.6,336.6,524.8,337.9,525.4,337.3z"/>
	<path fill="none" d="M559.4,279.8c0.9,0.6,1.7-0.6,1.7-2.7c0-0.9-0.4-1.8-0.9-2C559.1,274.7,558.3,279.1,559.4,279.8z"/>
	<path fill="none" d="M546.8,276.9c1,1,1.9,1.4,1.9,1c0-1.1,3.2-3.7,4.5-3.8c0.6,0,1.2-0.3,1.4-0.7c0.2-0.4,0.9-0.5,1.4-0.2
		c0.7,0.2,0.5-0.2-0.4-1.2c-1.6-1.7-1.9-1.9-1.9-1.1c0,0.2-1.7,1.1-3.9,1.9c-2.2,0.9-4.1,1.7-4.4,1.9
		C545.1,274.9,545.7,275.9,546.8,276.9z"/>
	<path fill="none" d="M405,162.7c-0.9,0-1.4,2-0.7,2.7c0.3,0.3,0.6,1.1,0.6,1.6c0,0.7-0.2,0.7-0.7,0.2c-1.2-1.2-1.7-0.9-1.1,0.6
		c0.4,1,1.2,1.4,2.4,1.5c2.2,0.1,2.4-0.9,0.9-4.4C406,163.7,405.3,162.7,405,162.7z"/>
	<path fill="none" d="M416.3,170.9c0.2,0.6,0,1.4-0.4,1.7c-0.5,0.5-0.5,0.7,0.1,0.7c0.4,0,0.9-0.4,1.2-1c0.2-0.5,0-1.3-0.4-1.7
		C416.1,170.1,416,170.1,416.3,170.9z"/>
	<path fill="none" d="M400.7,162.9c-1,1-0.9,1.6,0.3,2c1.1,0.4,2.1-0.6,2.1-2C403.1,161.9,401.7,161.9,400.7,162.9z"/>
	<path fill="none" d="M398.5,171.4c0.1,0,0.2-0.3,0.2-0.6c0-0.4-0.3-0.6-0.7-0.6c-0.3,0-0.4,0.2-0.2,0.6
		C398,171.1,398.3,171.4,398.5,171.4z"/>
	<path fill="none" d="M399,174.3c-1.4-0.6-1.5-0.5-0.9,1c0.2,0.7,0.8,1.5,1.2,1.6C400.3,177.3,400.1,174.7,399,174.3z"/>
	<path fill="none" d="M395.4,174.6c-0.2,0-0.5,0.2-0.7,0.6c-0.2,0.3-0.1,0.6,0.2,0.6c0.4,0,0.7-0.3,0.7-0.6
		C395.6,174.8,395.5,174.6,395.4,174.6z"/>
	<path fill="none" d="M141.8,411.5c-0.3,0-0.6,0.2-0.6,0.6c0,0.3,0.3,0.6,0.6,0.6c0.4,0,0.6-0.3,0.6-0.6
		C142.5,411.8,142.2,411.5,141.8,411.5z"/>
	<path fill="none" d="M152.4,414c-0.3,0-0.6,0.2-0.6,0.6c0,0.3,0.3,0.6,0.6,0.6c0.4,0,0.6-0.3,0.6-0.6
		C153,414.3,152.8,414,152.4,414z"/>
	<path fill="none" d="M262,426.8c-0.2-0.1-1.5-0.4-2.9-0.7c-2.1-0.4-2.4-0.4-2.1,0.7c0.1,0.9,0.7,1.2,2.9,1.2
		C262.3,428.1,263.2,427.6,262,426.8z"/>
	<path fill="none" d="M387.5,249.2c-0.3,0-0.4,0.2-0.2,0.6c0.2,0.3,0.5,0.6,0.7,0.6c0.1,0,0.2-0.3,0.2-0.6
		C388.2,249.4,387.8,249.2,387.5,249.2z"/>
	<path fill="none" d="M332.5,389.8c-0.4,0-1.2,0.4-1.6,0.9c-0.7,0.8-0.5,0.9,0.9,0.9c1,0,1.6-0.3,1.6-0.9
		C333.4,390.2,333,389.8,332.5,389.8z"/>
	<path fill="none" d="M573.9,275c0.2-0.6,0.2-1.2-0.1-1.4c-0.2-0.2-0.4-0.1-0.4,0.4c0,0.4-0.6,1-1.4,1.3l-1.4,0.6h1.4
		C572.9,275.9,573.7,275.5,573.9,275z"/>
	<path fill="none" d="M568.7,285.5c1.2-1.1,1.9-1.3,5.2-1.6c1.6-0.2,2-0.5,2.2-1.9c0.2-1.1-0.1-1.8-0.6-2.1
		c-1.2-0.4-1.2-0.5-1.1,1.1c0.1,1.2-0.3,1.4-1.8,1.5c-5.3,0.1-5.3,0.1-5.2,2.1C567.5,286.4,567.6,286.4,568.7,285.5z"/>
	<path fill="none" d="M562.7,281.1c2.1,0.4,2.6,0.1,1.6-0.9c-0.6-0.6-0.5-1,0.3-1.9c1.4-1.6,0.8-1.4-1.6,0.7l-2.1,1.7L562.7,281.1z"
		/>
	<path fill="none" d="M319.9,388.3c-0.2-0.6-0.6-1.1-0.9-1.1c-0.3,0-0.4,0.4-0.2,0.9c0.2,0.5-0.1,1.1-0.6,1.3c-0.6,0.2-1,0.7-1,1.2
		c0,0.4-0.6,1.5-1.3,2.4c-1.1,1.4-1.2,1.7-0.3,2c1.4,0.5,4.9-0.2,6.3-1.2c1.2-0.9,1.2-0.9-0.2-2.7C321,390.3,320.2,389,319.9,388.3z
		"/>
	<path fill="none" d="M576.2,275.2c0.6-0.6,0.8-1.1,0.5-1.1c-0.6,0-2.2,1.8-1.9,2.1C574.9,276.3,575.6,275.8,576.2,275.2z"/>
	<path fill="none" d="M560.9,274.2c0.2-0.4,0.1-1-0.1-1.2c-0.2-0.2-0.4,0.1-0.3,0.8C560.5,274.5,560.7,274.7,560.9,274.2z"/>
	<path fill="none" d="M378.7,0c-2.9-1.2-5.9-2-7-2c-1.1,0.1-5.2,0.2-9.1,0.4c-3.9,0.2-7.5,0.6-7.8,0.9c-0.3,0.2-1.3,0.4-2.7,0.7
		H378.7z"/>
	<path fill="#D21034" d="M177.3,466.6c0.1,0.3,0.9,1.5,1.9,2.7c1.6,1.8,2.1,2.1,4.5,1.9c3.6-0.1,3.5-0.1,11.1,0.4
		c6.5,0.4,6.7,0.4,7.4-0.9c0.6-1.2,0.6-1.6-0.2-2.5c-0.6-0.6-1-1.4-1-1.7c0-0.9-3.6-3.9-4.7-3.9c-0.5,0-2.4,0.9-4.3,1.9
		c-4,2.2-6.9,2.1-9.5-0.4c-0.8-0.8-1.8-1.4-2.1-1.1c-0.4,0.2-1.3-0.2-2.1-0.9c-0.9-0.8-1.8-1.2-2.5-0.9c-0.6,0.2-1.4,0.1-1.9-0.4
		c-0.7-0.6-0.9-0.6-0.9,0.3c0,0.6,1,2,2.2,3C176.3,465.1,177.3,466.3,177.3,466.6z"/>
	<path fill="#D21034" d="M315.2,300.7c0.5,1.6,6.8,6.8,10.4,8.5c3.6,1.7,10.6,2.8,17.9,2.8c4.2,0,5.8,0.3,9.6,1.9
		c3.6,1.5,5.3,1.9,7.2,1.6c2-0.2,2.4-0.1,2.2,0.6s0.2,0.9,2.1,0.9c2.2,0,2.5,0.2,2.5,1.6c0,1.6,3.2,5.2,3.7,4c0.1-0.4-0.1-1-0.5-1.4
		c-0.9-0.9-0.9-1.7,0.2-1.7c0.6,0,1.2,0.6,1.4,1.3c0.4,1.1,0.6,1.2,1.2,0.4c0.6-0.7,0.5-1.1-0.5-2c-2.2-2.1-1.4-4.1,2.1-5
		c2-0.5,2-0.4,0.5-2.9c-0.6-1.1-1.3-3.5-1.5-5.2c-0.2-2.1-0.8-3.6-2.2-5.8h-56.6C315,300.4,315.1,300.5,315.2,300.7z"/>
	<path fill="#D21034" d="M395.7,265c0.7,0.2,1.3,0.4,2,0.4c2.6,0,9.1,4.1,13.6,8.5c4,4,5,5.5,5.7,9c0.2,1.1,0.8,1.7,1.5,1.7
		c1.6,0,6.8,6.3,8.6,10.4c0.9,2,2.1,4.2,2.7,4.9c0.7,0.7,1.9,2.1,2.7,3.2c1.9,2.4,4.9,3.5,9.6,3.5c2.2,0.1,4.4,0.5,6,1.3
		c2.1,1.1,2.7,1.9,3.9,5.2c0.9,2.2,2.1,4.2,2.8,4.5c0.7,0.4,3.7,0.9,6.6,1.1c4.5,0.2,5.7,0.6,7.2,1.8c2.4,2.1,5.6,3.5,9.8,4.8
		c5.3,1.5,6.5,4.6,2.7,7.5c-1.2,0.9-2.9,2.9-3.8,4.5c-1.8,3.2-1.7,5.2,0.1,8.6c0.6,1,1.1,2.9,1.1,4.2c0.1,1.9-0.2,2.4-1.2,2.5
		c-1.1,0.2-1.2,0.6-1.1,2.8c0.1,2.2-0.2,2.9-1.7,4.2c-2.5,2.1-4.7,2-7.8-0.3c-4-2.9-5.5-3.3-7.4-1.7c-0.9,0.7-2.4,1.2-3.3,1.2
		c-0.9-0.1-6.7-0.2-12.8-0.2l-11.1-0.2l-1.3-1.6c-2.3-2.8-6-3.2-11.9-1.6c-5.7,1.7-9.7,5.9-11.3,11.9c-2.3,9-6.3,15.5-10,16.7
		c-0.8,0.2-1.4,0.7-1.4,1.2s-0.9,0.8-2,0.8c-1.1,0.1-3.4,0.1-4.9,0.2c-1.6,0-3.6-0.2-4.5-0.6c-1-0.4-3-0.5-4.7-0.2
		c-2.4,0.3-3.4,0.1-5.9-1.2c-2.4-1.2-3.9-1.6-7-1.6c-3.5,0-4.1,0.2-6.5,2.2c-2.5,2.1-5,2.7-6.6,1.7c-1.2-0.7-1.7-3.4-0.8-3.9
		c0.4-0.2,0.7-0.6,0.6-0.7c-0.2-0.1-4.5-1.2-9.6-2.5c-9-2.1-9.6-2.2-16.2-1.7c-7.3,0.5-11.4,1.4-12.1,2.5c-0.2,0.4-1.4,0.9-2.6,1.2
		s-2.7,0.7-3.4,0.9c-1,0.3-1.9-0.1-3.3-1.5c-1.1-1.1-2.2-1.9-2.6-1.9c-0.3,0-0.9-0.7-1.2-1.6c-0.7-1.9-2.8-2.9-8.6-4.4
		c-4.8-1.1-6.2-1.1-10.7,0.6c-2.1,0.8-3.7,0.9-6.8,0.6c-2.2-0.2-5.8-0.6-8.1-0.8c-3-0.3-4.9-0.9-7.2-2.4c-1.7-1.1-3.9-2.1-5-2.4
		c-1-0.2-3.2-0.7-5-1.2c-3.9-1.1-8.8-2.1-13.8-2.8c-2.2-0.3-5-0.9-6.3-1.2c-1.7-0.4-2.9-0.4-4.1,0c-1.2,0.4-2.8,0.4-5.2,0
		c-6.2-1.1-8.9-0.8-13.2,1.5c-5,2.6-13.6,4.4-17.1,3.6c-1.7-0.4-3.3-0.3-5.1,0.2c-2.4,0.7-2.8,0.7-4.2-0.4c-1.9-1.5-2-3.5-0.2-5.7
		c1.6-1.9,1.1-2.7-1.7-3c-1-0.1-2.2-0.4-2.6-0.6c-0.4-0.2-0.9-0.1-1.2,0.2c-0.3,0.5-0.5,0.5-0.9,0c-0.3-0.6-0.9-0.6-2.2-0.1
		c-1.2,0.4-1.9,0.4-2.6-0.1c-0.4-0.4-1.1-0.4-1.6-0.2c-0.4,0.2-0.6,0.1-0.4-0.4c0.2-0.5,1.1-0.9,2.1-0.9s3-0.4,4.4-0.8
		c2.7-0.8,4.1-2,2.4-2c-0.6,0-1-0.3-1-0.6c0-1.1,2.7-0.7,4.9,0.6c2.2,1.4,4.5,1.6,5.5,0.6c0.4-0.4,2.3-0.3,5.5,0.2
		c2.7,0.5,5.5,0.6,6.2,0.4c1.4-0.6,5.9-5.2,5.9-6.2c0-1.9-12.3-1.1-17.9,1.3c-2.9,1.2-3.6,1.3-6.8,0.6c-5.2-1.1-6.5-0.9-9.9,1.3
		c-2.6,1.7-2.9,2.1-1.6,2.2c0.7,0.1,1.4,0.4,1.4,0.7c0,0.7-9.3,3.9-10,3.4c-0.4-0.2-1-0.1-1.4,0.3c-1.2,1.1-3.7,0.6-4.9-1.1
		c-1.4-1.7-11.1-6.5-11.9-5.7c-0.3,0.3-1.1,0.2-1.6-0.2c-0.8-0.5-2.6-0.5-6.2-0.1c-4.6,0.6-5,0.5-5-0.5c0-0.7-0.5-1.1-1.2-1.1
		c-0.7,0-1.2-0.4-1.2-0.9c0-0.6-0.4-0.7-0.9-0.6c-0.6,0.2-0.9,0-0.9-0.9c0-1.8-1.1-2.3-2.4-1.1c-1,0.9-1.2,0.8-3.4-0.7
		c-2.2-1.6-2.8-1.7-9.6-1.7c-7-0.1-13.9-1.2-17-2.8c-3.5-1.9-9.8-7-9.8-8.1c0-0.7-0.6-1.3-1.6-1.6c-0.8-0.2-1.8-0.7-2.2-1.2
		c-0.4-0.5-1.4-0.9-2.1-0.9s-2.4-0.4-3.5-0.9c-1.2-0.4-4.5-1.2-7.4-1.6c-4.3-0.6-6-0.6-9,0.1c-2.1,0.4-4.4,0.7-5.1,0.7
		c-0.9-0.1-2,0.6-3.4,2.4c-2.4,2.9-3.2,3-4.7,0.9c-1.2-1.9-3.4-2.1-3.8-0.3c-0.4,1.4-0.3,1.4-2.2,0.7c-1.7-0.7-5.2,0.3-9.2,2.6
		c-2.1,1.2-2.6,1.2-4.4,0.6c-1.8-0.7-2.1-0.6-3.2,0.7c-0.7,0.9-1.6,1.6-2.1,1.6c-1.6,0-5.2,2.8-5.5,4.4c-0.3,1.2-0.1,1.8,1.2,2.8
		c0.9,0.7,1.6,1.7,1.6,2.2c0,1.2-3,7.5-4.2,8.8c-0.6,0.6-0.7,1.1-0.5,1.1c0.3,0-0.1,0.7-1,1.6c-1,1.1-1.4,2.1-1.3,3.4
		c0.2,1.3-0.3,2.5-1.7,4.2c-1.9,2.4-2.4,3.8-1.4,3.8c1.4,0,1.4,2.7-0.1,4.9c-2.6,3.9-4.7,8.8-4.3,10.4c0.2,1.3,0.9,1.9,1.6,1.4
		c0.6-0.4,3.1,1.7,3.9,3.3c0.8,1.6,0.9,2.3,0.3,4c-0.6,1.6-0.6,2.4,0,3c0.4,0.5,0.6,1.6,0.4,2.7c-0.6,2.2,0.9,3.5,4.7,4.4
		c3.7,0.8,6.1,1.9,6.2,2.8c0.1,0.4,0.1,1.2,0.2,1.9c0.1,0.8,0.6,1.3,1.5,1.4c0.8,0.1,2.4,1.1,3.4,2.3c1.6,1.6,3,2.3,7.3,3.4
		c2.9,0.7,6,1.3,6.8,1.3c0.8,0,3.9-1.2,6.7-2.8c4.4-2.4,5.7-2.8,8.8-2.8c3,0,3.9,0.2,5.1,1.6c1.2,1.2,2.1,1.6,4.5,1.6
		c2.8,0,3.2,0.2,6.4,3.4c1.9,1.9,4,3.4,4.6,3.4c2.1,0,12.8,5.2,14.5,7c0.9,0.9,2.1,1.7,2.7,1.7c1.1,0,4.7,3.6,4.7,4.8
		c0,0.4,0.3,0.8,0.7,0.8c0.4,0,1.5,0.7,2.6,1.6c1,0.9,2.2,1.6,2.7,1.6c0.4,0,0.9,0.4,1.2,0.9c0.2,0.5,1.1,1.2,1.9,1.6
		c0.9,0.4,1.8,1.5,2.2,2.5c0.4,1.4,1.1,1.7,2.7,1.9c1.7,0.1,2.1,0.5,2.2,1.7c0.2,1.9,3.7,5.6,5.2,5.6c1.4,0,3.6,3.5,3.6,5.7
		c0,1.1,0.9,2.5,2.5,4.2c1.9,1.9,2.5,3,2.5,4.6c0,1.2,0.7,3.1,1.8,4.7c1,1.5,1.7,3.2,1.5,3.8c-0.6,2.1,3.5,3,12.9,3
		c9.6,0,12.7-0.6,12.1-2.4c-0.2-0.8-0.1-1.2,0.6-1.2c2,0,1-2.4-1.8-4.4c-1.6-1.1-3.4-3-4-4.4c-0.7-1.4-2.1-2.9-3.1-3.4
		c-1-0.5-2.3-1.8-2.9-2.9c-0.9-1.8-0.9-2.2,0.1-4.6c1.7-4.5,10.6-11.6,16.7-13.2c1.9-0.6,9.3-5.2,10.3-6.4c0.2-0.2,1.2-0.6,2.4-0.9
		c1.2-0.2,2-0.7,1.8-1.2c-0.2-0.4,0.1-1.6,0.6-2.7c0.7-1.7,1.1-2,3.3-2c1.4,0,2.6,0.3,2.7,0.7c0.4,1.3,3.4-0.4,4.5-2.6
		c0.8-1.6,1.2-1.8,1.9-1.2c1.4,1.1,1.1,2.1-1.6,5c-2.8,3-3.2,4.6-1.1,4c3.1-0.9,4.5-2.5,4.7-5.4c0.2-2.7,0.3-2.9,2.2-3.2
		c4.2-0.9,5.1-0.7,5.3,0.7c0.1,0.8-0.2,1.6-1,2c-1.4,0.7-2.8,4.2-2.2,5.2c0.5,0.7,4.4,0.2,5.6-0.8c0.5-0.4,0.7-1.2,0.5-2.2
		c-0.6-2.3,0.9-1.8,1.9,0.7c1,2.4,2.7,2.9,4.1,1.2c0.7-0.8,0.4-1.4-1.2-3.9c-2.4-3.4-2.1-4.7,1.6-5.2c3.2-0.6,4.3,0.1,5.5,3.5
		c1.1,2.7,1.2,2.8,3.8,2.8c2.9,0,4.6-0.5,4.6-1.3c0-0.3-0.4-0.6-0.9-0.6c-1.4,0-1.1-1,0.7-2.5c0.9-0.7,2.4-1.2,3.3-1.2
		c0.9,0.1,2.2-0.2,3-0.6c0.8-0.4,1.7-0.6,2.2-0.5c0.4,0.1,1.1-0.2,1.4-0.7c0.6-0.7,0.9-0.8,1.6-0.2c0.5,0.4,1.5,0.6,2.2,0.4
		c0.8-0.2,1.4-0.1,1.4,0.4c0,0.4,1,1.2,2.2,1.7c2.7,1.1,2.9,1.1,2.7-0.2c-0.1-0.7,0.5-1.4,1.5-1.9c1-0.4,1.9-1.5,2.1-2.4
		c0.3-1.2,0.8-1.5,2.2-1.5c2,0,3.2,1.6,1.9,2.5c-0.9,0.5,2.9,3.1,4.5,3.1c1.6,0,1.2,1.8-0.9,3.7c-2.3,2.1-3.2,5.6-1.6,5.6
		c0.6,0,1.6-0.4,2.2-1c0.9-0.8,1.4-0.8,2.4-0.2c1.1,0.6,2.1,0.5,5.2-0.5c7.8-2.6,10.3-2.6,11.6,0.6c0.7,1.7,1.1,1.9,3.7,1.9
		c1.6,0,6.3,0.2,10.6,0.5c6.3,0.4,8.5,0.7,11.5,2.1c6.5,2.9,12.5,4,25.4,5.2c2.2,0.2,4.4,0.1,5.4-0.4c1.5-0.6,2-0.6,3.5,0.6
		c2.2,1.6,8.2,3.2,12,3.2c2.9,0,8,1.4,10.3,2.9c0.7,0.4,2.4,0.9,3.7,1.2c1.4,0.2,3.3,0.7,4.2,1.1c1.3,0.5,2.1,0.5,3.3-0.2
		c1.3-0.7,2-0.7,4.4,0.2c2.1,0.7,3.2,0.9,4.4,0.4c0.9-0.4,2.6-0.6,3.7-0.6c1.8,0,2.2-0.2,2.6-1.6c0.4-1.8,1.1-1.9,4.5-0.7
		c1.4,0.5,2.7,0.7,2.9,0.6c0.2-0.2-0.3-1.3-1.2-2.4c-1.5-1.9-1.5-2.1-0.4-3.4s1.2-1.4,3.7-0.4c2.9,1.2,6.6,1.4,7.2,0.4
		c0.2-0.3,1.2-0.6,2.4-0.5c1.1,0.1,2.7-0.3,3.5-0.7c0.8-0.4,2.2-0.6,3.2-0.4c0.9,0.2,2.7-0.1,3.9-0.6c2-0.9,2.6-0.8,7,0.6
		c2.7,0.9,5.5,1.5,6.4,1.5s2.9,0.5,4.4,1.1c2.7,1.1,3,1.1,4.5,0.1c1.9-1.2,2.2-3.8,0.6-4.7c-0.6-0.4-1.4-2-1.8-3.6
		c-0.7-2.6-0.6-3.2,0.2-4.2c1.6-1.6,3.7-1.2,6.3,1.1c1.3,1.2,2.6,2.2,2.9,2.2s1.7-0.6,3-1.3c2-1.1,2.7-1.2,3.6-0.6
		c0.7,0.5,1.4,0.6,1.9,0.2c0.4-0.4,2.2-0.7,3.9-0.9c1.7-0.2,6.2-0.7,10-1.1c3.8-0.5,10.1-0.9,14.1-0.9c6.2,0.1,7.5,0.2,9.2,1.3
		c1.9,1.2,2.2,1.2,5.8,0.4c3.5-0.8,4.4-0.7,9.5,0.2c5.4,1.1,5.8,1.1,10-0.1c2.5-0.6,7-1.2,10.8-1.3c3.6-0.1,8.2-0.6,10.3-1.1
		c5.1-1.2,12.6-0.6,13.6,1.1c1.9,3.4,7.1,6.5,7.7,4.8c0.4-1.1,1.9-0.9,3.8,0.5c1,0.8,3.9,1.7,7,2.2c7,1.2,6.9,1.2,9.7,4.2
		c1.4,1.4,4.1,3.7,6,5.1c2,1.4,6.5,5.3,10.1,8.8c5.3,5.2,6.5,6.7,6.5,8.1c0,1.6,0.9,2.6,5.8,6.6c3.2,2.6,6,4.8,6.2,4.8
		s0.4-0.4,0.4-0.9c0-0.5,0.6-1.5,1.4-2.2c0.7-0.7,1.4-2.1,1.5-3c0.1-0.9,0.2-3.3,0.4-5.3c0.3-3.1,0.2-3.5-0.7-3.4
		c-1.3,0.2-1.8-2.9-0.7-4.2c0.9-1.1-0.3-3.6-2.7-5.8c-0.9-0.9-1.6-1.9-1.6-2.3c0-0.4-0.8-1.3-1.8-1.9c-3.4-2-2.7-8.3,1.4-12.3
		c0.9-0.9,1.7-2.4,2-3.5c0.2-1,0.9-2.2,1.6-2.5c0.7-0.4,1-1.1,0.8-1.7c-0.4-1.4,3.5-8,5-8.4c0.7-0.2,1.1-0.9,1.1-2.2
		c0-1,0.4-2.2,0.9-2.6c0.5-0.4,0.9-1.4,0.9-2.1s0.8-2.7,1.8-4.5c1.1-1.7,1.7-3.4,1.5-3.5s-1.1-0.2-2.1,0c-1.4,0.2-1.9,0-2.5-1.1
		c-0.6-1.1-1.1-1.2-2.4-0.9c-1.8,0.4-8.2-2-9-3.4c-0.2-0.4-1.1-0.7-1.9-0.7c-0.9,0-2.5-1-4-2.5c-1.4-1.4-3.7-2.7-5-3.1
		c-2.5-0.7-3.8-2.1-3.3-3.6c0.4-1.1-3.5-5.1-5-5.1c-1.9,0-8.5-3.2-8.5-4.1c0-0.4-0.6-1-1.2-1.2c-1.8-0.6-2.6-2.6-2.2-5.3
		c0.3-1.9,0.7-2.6,2.2-3c1-0.3,1.8-0.7,1.8-1c0-0.5-9,0.4-9.6,1c-1.1,0.9-2.1,0.6-4.4-1.4c-1.9-1.6-2.2-2.3-2.2-4.6
		c0-1.7-0.4-3.2-1.4-4.4c-1.2-1.5-1.6-1.6-3.9-1.3c-1.4,0.2-2.7,0.9-3,1.3c-0.7,1.3-1.9,1.1-4-0.6c-0.9-0.8-2.8-1.9-4.1-2.4
		c-1.2-0.6-2.3-1.4-2.4-1.8c-0.2-2,0.2-3.9,1.1-5.3c0.9-1.3,0.8-1.6-0.8-3.5c-1-1.1-2.4-3-3-4.2c-1.2-2.2-1.2-2.3,0-4.7
		c0.6-1.3,1.9-2.8,2.9-3.3c2.3-1.3,4.3-0.2,6.8,3.6c2.2,3.4,3,4,4.4,3.1c0.7-0.4,0.6-0.7-0.4-1.4c-1.7-1.2-0.6-2.9,2.2-3.7
		c1.2-0.3,3-1.4,4.2-2.4c2.4-2.1,4.7-2.3,6-0.6c0.5,0.7,1,1.1,1.2,0.9c0.2-0.2,0.9,0,1.7,0.4c1.2,0.7,1.8,0.6,3.5-0.4
		c2.1-1.1,2.1-1.1,3.2,0.2c0.7,0.9,1.2,1.1,1.4,0.6c0.4-1.2,2.6,0.2,2.8,1.9c0.2,1.7,1.7,1.7,2.6,0.1c0.4-0.7,1.3-1.2,2.1-1.2
		c1.9,0,5.3,1.2,5.3,1.9c0,1,1.7,0.6,2.1-0.4c0.3-0.7,0.9-0.9,2.2-0.7c2,0.4,3-0.5,1.9-1.6c-0.4-0.4-0.7-2.2-0.7-4
		c0-4.4,1.9-8.1,4.7-9.3c1.2-0.5,2.1-1.2,2.1-1.7c0-1.1,1.9-2.3,5.8-3.8c2.4-0.9,2.9-1.4,2.9-2.6c0-0.8,0.5-2,1.1-2.6
		c0.7-0.8,1.1-2.1,1.1-5.1c0.1-2.6,0.4-4.9,1.1-6.2c0.6-1.2,0.9-2.7,0.7-3.6c-0.2-0.9-0.1-2.2,0.4-3c0.7-1.2,0.7-1.7-0.1-2.6
		c-1.4-1.6-1.9-4.5-1.1-7c0.6-2.3,0.3-3.4-0.6-1.9c-0.8,1.3-3.2-1-2.8-2.7c0.2-1.1-0.2-1.6-3.4-2.9l-3.7-1.7l-0.4-3.6
		c-0.2-2.1-0.4-4.6-0.4-5.7c0-1.8-0.2-2-2-2c-3.1,0-7.6-1.6-7.8-2.7c-0.2-1-2.4-1.4-3.6-0.5c-0.4,0.2-0.8,0.9-1.1,1.6
		c-0.2,0.7-0.9,1.1-1.5,0.9c-0.7-0.1-1.4,0.4-1.9,1.5c-0.8,1.9-2.3,2.3-2.9,0.8c-0.2-0.5-0.6-0.9-1-0.9c-0.3,0-0.6,0.4-0.6,0.9
		c0,0.5-0.6,0.9-1.2,0.9c-1.5,0-1.7-2-0.3-3.1c0.5-0.4,0.9-1.4,0.9-2.3c0-0.8,0.4-2.4,1-3.4c0.8-1.6,1.2-1.8,2.7-1.6
		c1.5,0.3,1.8,0.1,2.1-1.1c0.6-2.1,4.2-3.8,5.9-2.7c1.1,0.7,1.6,0.6,3.2-0.4c1.9-1.1,2.1-1.1,2.7-0.1c1.2,1.6,2.4,1.2,1.9-0.5
		c-0.2-0.9,0-1.7,0.6-2.2c0.5-0.4,0.9-1.2,0.9-1.6c0-0.4,0.7-1.3,1.7-1.9c0.9-0.6,2.6-1.9,3.7-2.9c1.1-1,2.2-1.6,2.6-1.4
		c0.3,0.2,0.9,0.1,1.3-0.1H395.7V265z M141.8,412.8c-0.3,0-0.6-0.3-0.6-0.6c0-0.4,0.3-0.6,0.6-0.6c0.4,0,0.6,0.2,0.6,0.6
		C142.5,412.5,142.2,412.8,141.8,412.8z M152.4,415.3c-0.3,0-0.6-0.3-0.6-0.6c0-0.4,0.3-0.6,0.6-0.6c0.4,0,0.6,0.2,0.6,0.6
		C153,415,152.8,415.3,152.4,415.3z M259.9,428.1c-2.1-0.1-2.7-0.3-2.9-1.2c-0.2-1.1,0-1.1,2.1-0.7c1.4,0.2,2.6,0.6,2.9,0.7
		C263.2,427.6,262.3,428.1,259.9,428.1z M322,393.9c-1.5,1.1-5,1.7-6.3,1.2c-0.9-0.3-0.8-0.6,0.3-2c0.7-0.9,1.3-2,1.3-2.4
		c0-0.4,0.4-1,1-1.2c0.6-0.2,0.9-0.8,0.6-1.3c-0.2-0.5-0.1-0.9,0.2-0.9c0.3,0,0.7,0.5,0.9,1.1c0.2,0.6,1.1,1.9,1.8,2.9
		C323.2,392.9,323.2,393,322,393.9z M331.8,391.6c-1.4,0-1.6-0.1-0.9-0.9c0.4-0.5,1.2-0.9,1.6-0.9c0.5,0,0.9,0.4,0.9,0.9
		C333.4,391.3,332.8,391.6,331.8,391.6z M576.7,274.1c0.3,0,0.1,0.5-0.5,1.1c-0.6,0.6-1.2,1.1-1.4,1
		C574.4,275.9,576.1,274.1,576.7,274.1z M572.1,275.3c0.7-0.3,1.4-0.9,1.4-1.3c0-0.4,0.2-0.6,0.4-0.4c0.2,0.2,0.2,0.8,0.1,1.4
		c-0.2,0.5-1.1,0.9-1.8,0.9h-1.4L572.1,275.3z M572.6,282.5c1.5-0.1,1.9-0.3,1.8-1.5c-0.1-1.6-0.1-1.5,1.1-1.1
		c0.6,0.2,0.8,1,0.6,2.1c-0.2,1.4-0.6,1.7-2.2,1.9c-3.4,0.2-4,0.4-5.2,1.6c-1.1,0.9-1.2,0.9-1.3-0.8
		C567.3,282.7,567.2,282.7,572.6,282.5z M564.6,278.3c-0.8,0.9-0.9,1.3-0.3,1.9c1,1,0.5,1.3-1.6,0.9l-1.8-0.4l2.1-1.7
		C565.4,276.9,566,276.7,564.6,278.3z M560.8,273c0.2,0.2,0.2,0.7,0.1,1.2c-0.2,0.5-0.4,0.3-0.4-0.4
		C560.4,273.1,560.6,272.8,560.8,273z M560.2,275.1c0.5,0.2,0.9,1.1,0.9,2c0,2.1-0.7,3.2-1.7,2.7
		C558.3,279.1,559.1,274.7,560.2,275.1z M545.3,274.7c0.3-0.2,2.2-1.1,4.4-1.9c2.1-0.8,3.9-1.7,3.9-1.9c0-0.8,0.3-0.6,1.9,1.1
		c0.9,1,1.1,1.4,0.4,1.2c-0.6-0.2-1.2-0.1-1.4,0.2c-0.2,0.4-0.9,0.7-1.4,0.7c-1.3,0.1-4.5,2.7-4.5,3.8c0,0.4-0.9,0-1.9-1
		C545.7,275.9,545.1,274.9,545.3,274.7z M521.3,332.5c0.2,0,1.3,1,2.5,2.2c1.1,1.2,1.9,2.4,1.7,2.6c-0.6,0.6-6.8-0.6-7.1-1.4
		C518.1,335.2,520.4,332.5,521.3,332.5z"/>
	<path fill="#D21034" d="M158.9,335.7c-2.8,1.6-5.3,4.5-5.3,6.2c0,1.7,1.4,3.7,2.6,3.7c0.4,0,1.8,0.6,3.2,1.2c1.4,0.7,3,1.2,3.6,1.2
		c0.6,0,1.2,0.2,1.6,0.6c0.8,0.8,6.3-1.9,8.4-4.1c3.4-3.8,2.8-5-3.5-7.5C164.5,335.2,160.7,334.7,158.9,335.7z"/>
	<path fill="#00209F" d="M632.6,197.8c-0.9-0.2-1.9-0.6-2.3-0.9c-0.4-0.4-1.2-0.4-1.8-0.2c-0.6,0.2-1.7,0-2.5-0.6
		c-0.9-0.6-2.1-0.8-3.3-0.6c-2.4,0.5-3.3-0.2-5.5-4.2c-1.2-2.4-1.9-3-2.8-2.7c-1.4,0.4-5.8-2-7.1-4c-0.6-0.9-0.8-2.1-0.6-3.2
		c0.3-1.5,0.1-2-1.2-2.8c-0.9-0.6-1.6-1.6-1.6-2.2c0-0.7-0.7-1.4-1.9-1.8c-1-0.3-1.9-0.9-1.9-1.2c0-0.7,3.4-1.9,5.5-1.9
		c2.1,0,3.1-0.7,4-2.6c0.4-0.9,1.3-1.5,2.1-1.5s1.9-0.6,2.7-1.4c1.1-1.1,1.9-1.4,3.8-1.3c3.1,0.2,3.5-0.3,2.2-2.9
		c-1.1-1.9-1.1-2.3-0.2-3.5c0.6-1,0.7-1.7,0.4-2.4c-0.4-0.7-0.1-2.1,1.3-5c1.9-3.9,1.9-4,0.7-5.3c-0.6-0.7-1.6-2.6-2.2-4.2
		c-0.9-2.5-0.9-3.3-0.3-5.5c0.7-2.4,0.7-2.6-0.9-4.2c-0.9-1-1.7-2.4-1.7-3.1c0-0.7-0.6-1.7-1.2-2.1c-0.7-0.4-1.2-1.4-1.2-2.1
		c0-0.7-0.8-2.1-1.8-3c-1.6-1.5-1.7-1.9-1.1-2.9c0.6-1,0.5-1.3-0.7-2.1c-1.5-1.1-1.8-2.7-0.6-3.9c0.6-0.6,0.6-1.1,0.1-1.9
		c-0.4-0.6-1.1-2.6-1.5-4.4c-0.7-2.9-0.6-3.4,0.3-4.5c1.6-1.8,0.6-6.5-1.4-6.7c-1.6-0.2-3.9-4.1-3.9-6.6c0-1.7,0.4-1.6-8.5-2.9
		c-2.4-0.3-5.3-0.6-6.3-0.6c-1.9,0-1.9,0.1-1.9,2.8c0,2.1,0.2,2.8,0.9,2.8c1.7,0,5.8,2,6.2,3c0.2,0.6-0.1,1.4-0.7,1.8
		c-0.6,0.4-1.1,1.7-1.1,2.8c-0.1,1.9-1.6,3.4-1.6,1.4c0-0.6-0.6-1.8-1.4-2.8c-1.2-1.6-1.6-1.8-4.2-1.6c-1.6,0.1-3.7,0.7-4.6,1.3
		c-1.6,1.1-1.7,1.1-3.2-0.3c-0.8-0.7-1.7-1.2-2.1-0.9c-0.4,0.2-0.7,0.1-0.7-0.2c0-0.3,0.3-0.8,0.7-1.1c0.4-0.3,0.2-0.6-0.6-0.9
		c-0.7-0.3-1.4-0.7-1.4-1.1c0-1,2.2-1.2,4.3-0.3c1.7,0.7,2.1,0.7,3.2-0.4c1.2-1.2,2-1.5,3.5-1.3c1,0.1,1.6-3.7,0.8-4.7
		c-0.4-0.5-1.6-0.9-2.7-0.9s-3.6-0.4-5.7-1c-2.1-0.5-5.5-1.1-7.5-1.4c-3.3-0.4-3.9-0.3-4.5,0.6c-0.6,0.9-0.8,0.9-2.5-0.8
		c-1.7-1.6-2.2-1.8-4.2-1.4c-3.4,0.6-3.9,1.2-3.9,5v3.4l-2.3-0.1c-4.7,0-8,0.4-9.4,1.2c-1.2,0.7-1.7,0.7-3.2,0
		c-1.7-0.7-1.7-0.9-0.9-1.8c0.7-0.8,1.6-1,3.1-0.7l2.1,0.4l-0.3-3.3c-0.2-3.1-1.6-5.3-2.1-3.5c-0.1,0.4-0.9,1.6-1.7,2.5
		c-0.8,1-1.5,2.2-1.5,2.6c0,1-2.2,2.4-3,1.9c-0.3-0.2-0.7-0.9-0.9-1.6c-0.2-1.1,0-1.2,1.4-1.2c1.2,0,1.9-0.4,2.2-1.2
		c0.2-0.7,0.7-1.2,1-1.2c0.3,0,0.6-0.3,0.6-0.6c0-1-3.2-0.7-4.5,0.4c-0.7,0.7-1.1,0.7-1.1,0.2c0-0.6-0.6-0.7-1.9-0.4
		c-2.6,0.6-7.2-1.6-8.2-3.9c-0.9-2.1-1.6-2.7-3.5-2.7c-1.2,0-1.3,0.2-0.7,0.9c1.2,1.5,0.2,2.1-2.2,1.4c-1.7-0.5-2.5-0.5-3.4,0.1
		c-1.5,0.9-5.1,0.9-6,0c-0.6-0.6-0.7-0.5-0.7,0.3c0,0.6-0.2,1.1-0.6,1.1c-0.3,0-0.6-0.1-0.6-0.3c0-0.6,1.5-3,2.2-3.7
		c0.4-0.3,0.9-2.1,1.1-3.9c0.5-3.7,0.2-3.9-5-2.6c-2.1,0.6-2.9,0.6-3.7-0.1c-1.4-1.1-3-0.2-2.6,1.3c0.3,1.1,0.1,1.2-1.2,1
		c-1.2-0.2-1.5,0-1.5,1.2c0,2-0.8,2.3-3.7,1.4c-2.1-0.6-3-0.6-4.7,0c-1.9,0.7-2.4,0.6-3.7-0.2l-1.6-1l1,1.9c0.9,1.9,0.9,2.1-0.1,2.7
		c-1,0.7-0.9,0.8,0.4,1.2c0.9,0.2,1.2,0.6,0.9,1.2c-0.3,0.4-0.6,2.2-0.6,3.9c0,2.7-0.2,3.1-1.4,3.3c-2.1,0.3-4.2-2.2-5.2-6
		c-0.6-2.5-0.6-3.4-0.1-4c0.6-0.6,0.9-0.6,1.2,0.1c0.4,0.6,0.7,0.6,0.9,0.1c0.2-0.4,0.2-0.7-0.1-0.7c-0.2,0-1.1-1.4-1.9-3
		c-1.1-2.2-2.4-3.7-5.4-5.9c-3.4-2.4-4.1-3.2-4.1-4.6V61l-0.8,1.6c-1.4,2.7-5.3,2.4-8.5-0.6c-1.1-1.1-2-1.6-2.2-1.2
		c-0.9,1.5-5.9,0.2-5.9-1.6c0-1.3-0.8-1.2-1.7,0.3c-1,1.7-1.6,1.6-3.5-0.4c-1.7-1.9-2.1-1.3-0.6,0.7c1.5,2,1.1,2.4-0.9,1
		c-1-0.7-1.9-1.7-1.9-2.2c0-0.4-0.4-1.5-0.8-2.4c-0.7-1.4-0.9-1.5-1.7-0.7c-0.8,0.8-1.5,0.4-5.3-3.1c-2.4-2.2-4.3-4.1-4.2-4.3
		c0.2-0.2-0.7-0.9-1.9-1.7c-1.2-0.7-2.5-1.9-2.9-2.6c-0.6-1.1-1.1-1.2-3.5-0.8c-5.7,0.9-7.7,0.7-9.1-1c-0.7-0.9-1.7-1.5-2-1.4
		c-0.4,0.1-1.2-0.4-1.8-1.1c-0.6-0.7-1.7-1.2-2.6-1.2s-1.6-0.2-1.7-0.6s-1.2-0.7-2.4-0.9c-1.1-0.1-3.6-0.9-5.5-1.7
		c-1.9-0.7-4.7-1.6-6.2-1.9c-1.5-0.3-4.7-1.2-7-1.9c-3.7-1.2-4.6-1.2-6.9-0.7c-1.6,0.4-2.9,0.5-3.2,0.1c-1-0.9-2.5-0.6-3.3,0.7
		c-0.7,1-1.2,1.1-3.8,0.8c-2.6-0.3-3.2-0.1-4.8,1.2c-1.6,1.4-2.1,1.5-4.2,0.9c-4.1-1.1-16,1.8-16,3.9s-0.9,2.1-2.6,0l-1.7-2.1
		l-3.2,0.7c-1.7,0.4-4.5,0.6-6.1,0.4c-2.9-0.3-2.9-0.3-1.4,0.6l1.6,0.9l-1.7,0.7c-1.4,0.6-1.9,0.6-3.4-0.5
		c-1.4-0.9-3.9-1.5-10.2-2.2c-18.6-2.1-18.8-2.1-22.7,1.5c-2.2,2.1-11.3,8.3-14.5,9.9c-1.2,0.6-4.5,1.8-7.3,2.6
		c-2.8,0.7-6.8,2.4-9,3.7l-4,2.4l-2.4-1.1c-1.9-0.9-2.9-1-4.6-0.5c-1.2,0.3-3.2,0.4-4.5,0.2c-2.1-0.3-2.4-0.2-3.7,1.6
		c-1.6,2.2-1.2,3.4,0.9,2.9c0.8-0.2,2.6-0.1,4,0.2c2.4,0.6,2.7,0.5,4.4-1.2c0.9-1,2-1.8,2.4-1.8c0.9,0,0.9,0.1-0.7,3
		c-1.6,2.8-4.9,5.7-6.3,5.7c-0.6,0-1.8,0.4-2.8,0.9c-1.1,0.6-2,0.7-2.6,0.3c-1.4-0.9-1.4-0.8-4.7,3.9l-3,4.5l-0.2,7.9l-0.2,8
		l2.2,2.6c3.3,3.8,10.4,9.2,13.2,10c1.4,0.4,2.8,1.1,3.1,1.5c0.7,0.7,11.9,0.2,18.9-0.9c2.6-0.4,4.4-0.5,5.1-0.1
		c0.6,0.3,2.4,0.6,3.9,0.6c2.6,0,3-0.2,4.1-2.1c0.7-1.1,1.2-2.6,1.2-3.4c0-2.5,2.2-2.4,5.3,0.3c4.1,3.7,15.8,7.9,15.8,5.8
		c0-0.4,0.6-1.2,1.2-1.9c2.6-2.6,11.1-1.2,17,2.7c5.6,3.8,7.7,4.5,9.1,3.2c1.1-0.9,2.6-1.4,2.6-0.7c0,0.2-0.4,0.9-0.7,1.6
		c-0.7,1-0.6,1.4,0.4,2.2c0.7,0.5,1.7,0.8,2.4,0.7c0.7-0.2,1.1,0.1,1.1,0.9c0,1.4,2.7,2.9,8.7,4.9c2.2,0.7,5.5,2.2,7.2,3.2
		c1.7,1.1,3.5,2.1,4,2.4c0.5,0.3,2.6,1,4.5,1.6c2.2,0.7,4.3,1.9,5.5,3.2c1.1,1.2,2.6,2.1,3.3,2.1c1.7,0,9.2,7.9,10.9,11.5
		c2.2,4.5,8.3,6.5,10,3.4c0.7-1.3,3-1.6,3-0.4c0,0.4,0.5,0.2,1.2-0.4c0.7-0.6,1.7-1,2.4-0.9c0.9,0.2,1.1,0.7,0.9,3.5
		c-0.1,2.9,0.1,3.5,1.7,5.4c1,1.2,1.9,2.4,1.9,2.7s-1,1.3-2.2,2.2c-1.9,1.4-2.4,1.5-3.2,0.8c-0.5-0.4-0.8-1.2-0.7-1.9
		c0.2-0.7-0.1-1.2-0.9-1.4c-0.8-0.2-1.1-0.8-1-1.8c0.1-0.8-0.1-1.5-0.4-1.6c-0.3-0.1-0.6,0.9-0.5,2.2c0.1,1.2-0.1,1.9-0.2,1.5
		c-0.1-0.4-0.6-0.6-0.9-0.4c-1.1,0.7-0.5,2,1.2,2.7c2.6,1.1,2.8,2.2,0.9,5c-2.1,3-4,3.7-6.4,1.9c-2.3-1.7-2.7-1.7-4.3,0.3
		c-1.7,2.2-1.8,5.8-0.1,5.8c0.9,0,1.2,0.4,1.2,1.5c0,2.2,1.4,3,4.1,2.6c2.7-0.6,4.2,0.4,3.3,2.2c-0.4,0.7-0.4,1.2,0,1.2
		c0.1,0,0.2,0.1,0.3,0.2h3.6v40.8c2.5,1.4,2.9,3.4,1.5,6.2c-0.4,0.8-0.9,1.5-1.5,2.2V240h215.1c0,0,0.1,0,0.1-0.1
		c0.4-0.4,1.8-1.5,3-2.6c1.2-1,2.7-1.9,3.3-1.9c0.9,0,0.9-0.2,0.2-1.2c-0.6-1-0.6-1.4,0.3-2.4c1.2-1.4,1.3-2.2,0.3-3.9
		c-0.7-1.1-0.6-1.4,0.1-1.9c1.5-1,4.4-0.7,4.4,0.3c0,1.2,0.6,1.2,2.2-0.4c1.2-1.1,1.6-1.2,2.6-0.5c1.1,0.6,1.4,0.6,2.2,0
		c1.6-1.4,4.8-7.7,4.2-8.4c-0.9-1.2-0.6-5,0.6-6.9c0.7-1.2,1.1-2.5,0.8-3.4c-0.3-1.1,0-1.8,1.4-2.9l1.8-1.4l-2.2-2.2
		C635.1,199.1,633.5,198,632.6,197.8z M356.3,37.7c-1.7,0-2.4-0.2-2.4-0.9c0-1.2,1.9-1.2,3.5,0C358.5,37.6,358.5,37.7,356.3,37.7z
		 M386.3,173.9c-0.3,0-0.6-0.4-0.6-1c0-0.5,0.3-0.7,0.6-0.6c0.4,0.2,0.6,0.6,0.6,1C386.9,173.7,386.7,173.9,386.3,173.9z
		 M394.9,175.8c-0.3,0-0.4-0.3-0.2-0.6c0.2-0.4,0.5-0.6,0.7-0.6c0.1,0,0.2,0.2,0.2,0.6C395.6,175.5,395.3,175.8,394.9,175.8z
		 M398,170.2c0.4,0,0.7,0.2,0.7,0.6c0,0.3-0.1,0.6-0.2,0.6c-0.2,0-0.5-0.3-0.7-0.6C397.6,170.5,397.7,170.2,398,170.2z M399.2,176.9
		c-0.4-0.1-0.9-0.9-1.2-1.6c-0.6-1.5-0.5-1.6,0.9-1C400.1,174.7,400.3,177.3,399.2,176.9z M401,164.9c-1.2-0.4-1.3-1-0.3-2
		s2.4-0.9,2.4,0C403.1,164.3,402.1,165.3,401,164.9z M405.6,169.3c-1.2-0.1-2-0.5-2.4-1.5c-0.7-1.5-0.1-1.8,1.1-0.6
		c0.6,0.6,0.7,0.6,0.7-0.2c0-0.5-0.3-1.2-0.6-1.6c-0.7-0.7-0.2-2.7,0.7-2.7c0.3,0,1,1,1.5,2.2C407.9,168.5,407.7,169.4,405.6,169.3z
		 M417.2,172.3c-0.2,0.6-0.7,1-1.2,1c-0.6,0-0.6-0.2-0.1-0.7c0.4-0.4,0.6-1.2,0.4-1.7c-0.3-0.8-0.2-0.8,0.4-0.2
		C417.2,171,417.4,171.8,417.2,172.3z M599.1,95.2c0.4-0.2,0.6-1.1,0.4-1.9c-0.2-1.1-0.1-1.4,0.5-1.2c0.4,0.1,1.3-0.1,2-0.6
		c1.2-1,2.1-1.2,2.1-0.5c0,0.3-0.7,1.1-1.5,1.9c-0.9,0.9-1.4,1.9-1.3,2.9c0.1,1.1-0.2,1.6-0.9,1.6C598.9,97.4,598.1,95.8,599.1,95.2
		z"/>
	<path fill="#00209F" d="M349.7,0.4c-2.4,0.3-6,1.2-7.9,1.9c-3.4,1.2-3.5,1.4-2.4,2.5c0.7,0.7,1.9,1.2,3.5,1.2c1.3,0,5.4,1,9.1,2.2
		c4.3,1.4,8.5,2.3,11.9,2.6c6.3,0.4,15.1,2.3,20.2,4.3c2.1,0.7,5.7,1.6,8,1.8c2.4,0.2,4.9,0.8,5.6,1.2c0.9,0.6,4.4,1,9.3,1.3l8,0.4
		L414,18c-1.1-2.2-4.9-5.8-8.1-7.8c-1.4-0.9-6.5-2.9-11.5-4.5c-5-1.6-11.6-4-14.9-5.3c-0.3-0.1-0.5-0.2-0.8-0.3h-26.6
		C351.4,0.1,350.6,0.3,349.7,0.4z"/>
	<path fill="#FFFFFF" d="M268.8,274.7c0.7-0.2,1.4-0.4,2.2-0.6l-6.5-2.8c0,0.1,0.1,0.3,0.1,0.4l2.4,2.1L268.8,274.7z"/>
	<rect x="343.2" y="271.9" fill="#FFFFFF" width="0" height="56.6"/>
	<path fill="#FFFFFF" d="M268.3,274.8c0.2,0,0.3-0.1,0.5-0.1l-1.8-1L268.3,274.8z"/>
	<path fill="#FFFFFF" d="M274.2,273.1c-0.4-1-0.6-2.2-0.6-3.3c0,0,0,0,0,0c0-0.7,0.1-1.4,0.2-2.1c-0.8-0.8-1.5-1.9-2.1-3l-3.6-0.4
		c0,0,0,0,0,0l-0.1,0.5h-0.5c-0.3,0.3-0.6,0.5-0.9,0.8c-1.8,1.6-2.2,2.6-2.2,4.4c0,0.5,0,0.9,0.1,1.2l6.5,2.8
		C272,273.8,273.1,273.4,274.2,273.1z"/>
	<path fill="#FFFFFF" d="M392.1,179.7c0.4,0.3,0.9,1,1.2,1.8c0.9,1.7,0.9,2.1,0.1,3.4c-0.8,1.2-1.2,1.3-2.2,0.8
		c-0.7-0.4-1.2-1-1.3-1.4c0-0.4-0.3-0.1-0.7,0.7c-0.5,1.2-0.5,1.6,0.2,2c0.5,0.3,0.7,0.7,0.4,1c-0.2,0.2-0.7,0.1-1.2-0.2
		c-0.4-0.4-2-0.8-3.5-1.1c-2.4-0.4-2.7-0.3-2.4,0.7c0.2,0.7,0,1.5-0.6,2c-0.5,0.4-0.9,1.7-0.9,3c0,1.2-0.4,2.9-1,3.7
		c-0.7,1-0.8,1.6-0.4,2.1c0.5,0.5,0.9,0.2,1.4-0.9c0.8-1.8,2.3-2.2,3.5-0.9c1.1,1.1,0.9,1.7-0.5,1.7c-0.6,0-2.2,0.7-3.5,1.6
		c-1.4,1-2.7,1.4-3.5,1.2c-1.1-0.3-1.1-0.2-0.6,0.8c0.3,0.7,1.1,1.6,1.6,2.1c0.6,0.5,2.1,2.9,3.2,5.2c1.2,2.4,2.7,4.9,3.2,5.6
		c1.5,1.7,5.2,3.9,8,4.8c1.1,0.3,2,0.7,2.7,1.1v-40.8H392.1z"/>
	<path fill="#FFFFFF" d="M395.7,228.8c-2.3,2.4-5.6,3.3-9.7,2.4c-3.2-0.7-3.9-0.6-7.6,0.6c-5.7,1.9-7.7,3.7-7.7,7.2
		c0,0.2,0,0.4,0,0.6l1.9-1.5c0.5,0.6,0.9,1.1,1.3,1.6l0.3-0.2l0.5-1.3l6.6-1.6l-4.3,4.6L375,241l-0.3,0.1c0.3,0.6,0.5,1.2,0.8,1.8
		l-2.1,0.6l1.2,1.5c0.9,0.5,2.1,0.9,3.4,1.3c7.1,2.4,12,7.7,13.4,14.5c0.4,1.7,2.2,3.4,4.2,4.2v-25V228.8z M387.9,250.4
		c-0.2,0-0.5-0.3-0.7-0.6c-0.2-0.4-0.1-0.6,0.2-0.6c0.4,0,0.7,0.2,0.7,0.6C388.2,250.1,388,250.4,387.9,250.4z"/>
	<path fill="#016A16" d="M285.5,286.2l0.1,0.1c0.1,0,0.4,0.2,1,0.4l0-0.2C286.2,286.4,285.9,286.3,285.5,286.2z"/>
	<path fill="#016A16" d="M370.7,299c-1.3-1.9-2.9-3.8-4.4-5.2c-3.5-0.7-7-2-10-4h-2v1.5c0,0-12.2,4.6-34.4,4.6
		c-6.1,0-11.4-0.4-16-0.9c0.6,0.3,1.2,0.7,1.8,1.1c2.2,1.5,5.2,2.9,6.6,3.1c1.3,0.2,2.2,0.5,2.6,1h56.6
		C371.2,299.8,371,299.4,370.7,299z"/>
	<path fill="#016A16" d="M318.2,271c-0.3,0-0.6,0-1-0.1v0.2c0.6,0.1,1.2,0.1,1.8,0.1c-0.1-0.1-0.2-0.1-0.3-0.1L318.2,271L318.2,271z
		"/>
	<path fill="#016A16" d="M289.9,285.6l0.2,0l0.1,2.2c5,1.2,14.5,2.8,29.7,2.8c14.9,0,24.2-1.5,29.3-2.7l0-1.4
		c-1.5-0.4-4-1.3-6.6-2.4c-0.2,0.4-1.2,0.3-1.2,0.8c0,0.5,1.1,0.3,1.1,0.6c0,0.6-1.3,0.5-1.9,0c-0.2,1.1-1.6,1.1-2.4,0
		c-0.8,0.6-1.6,1-3,0c0,0.1-0.1,0.1-0.1,0.1c-0.7,0.6-1.7,0.5-2.3-0.1h-0.5c-0.5,1-1.9,1.1-2.7,0.3c-0.2,0.3-0.8,0.3-1.3,0
		c0,0-0.1,0.1-0.1,0.1c-0.5,0.5-1.3,0.4-1.8-0.1c-0.2,0.6-1.4,1-1.9,0.3c-0.2,0.6-1.1,0.5-1.1,0c0-0.6,0.6-0.3,0.6-0.6
		c0-0.5-1-0.3-1-1c0-0.3,0.8-0.3,1.3,0c0.6-0.3,1.3-0.8,1.8-0.2c0.6-0.8,2.1-1.1,2.6,0c0.3-0.5,0.8-0.5,1.1,0c0.6-0.8,1.6-1,2.7,0
		c0.5-0.8,2.1-1,2.7-0.3c1.1-1,2.2-1,3.2,0.3c0.6-0.3,1.1-1,2.2,0c0.1-0.2,0.6-0.5,1.1-0.7c-1.6-0.7-3.2-1.4-4.6-2.1
		c-0.1,0.4-0.7,0.7-1.8,0.9l-1.6,0.2c-2.4-0.5-2.9-1.3-1.6-1.6c0.5-0.3,1.4-0.6,1.6-1v-0.3c-0.5-0.3-1-0.6-1.2-0.9
		c-0.1-0.1-0.3-0.2-0.4-0.4l-5.1,1.4v0.2c0,0.1,0,0.2-0.1,0.3c-0.1,0.5-0.6,0.9-1.2,1.1v0c-0.7,0.3-1.7,0.6-2.9,0.8v0l-1.9,0.2v0
		c-0.4,0-0.7,0-1.1,0c-1.1,0-2.1-0.1-3-0.2v0l-1.8-0.3v-0.1c-1.1-0.3-1.9-0.7-2.3-1.2c0,0-0.1-0.1-0.1-0.1c0,0-0.1-0.1-0.1-0.1
		c0,0,0-0.1-0.1-0.1c0-0.1-0.1-0.2-0.1-0.3v-0.2l-6-1.7h-0.4v1.9c0.2,0.3,1.1,0.6,1.6,1c1.3,0.3,0.8,1.1-1.6,1.6l-1.6-0.2
		c-1.9-0.3-2.1-1.1-1.6-1.6c0.5-0.3,1.4-0.3,1.6-1v-2.3l-4.3-1.2l1.7,2.6l-1.1,0.6l-2.5-3.7l-1.5-0.4l-1.3-2.6l-0.9-0.2
		c-0.4,1.3-1.1,2.5-1.9,3.6l0.1,0.1l-0.1-0.1c-2,2.4-5,3.9-8.4,3.9c-2.5,0-4.9-0.8-6.7-2.3l0,0l0,0c-1.6-1.2-2.8-2.9-3.4-4.8
		c-1.1,0.3-2.2,0.7-3.2,1l1.2,0.5l-1.2-0.5c-0.8,0.2-1.5,0.4-2.2,0.6l1,0.5l-1-0.5c-0.2,0-0.3,0.1-0.5,0.1l0.8,0.7H269l-0.8,0.1
		c0.4,0.3,0.9,0.7,1.4,1.1c0.7,0.5,1.8,1.5,2.7,2.6c0.2-0.4,0.6-0.6,1-0.6c0.6,0,1.1,0.5,1.1,1.1c0,0.5-0.3,0.9-0.8,1.1
		c0.1,0.1,0.2,0.3,0.3,0.4c0.2-0.1,0.4-0.2,0.6-0.2c0.6,0,1.1,0.5,1.1,1.1c0,0.3-0.1,0.6-0.4,0.8c0,0.1,0.1,0.1,0.1,0.1
		c0.2-0.1,0.3-0.2,0.5-0.2c0.6,0,1.1,0.5,1.1,1.1c0,0.2-0.1,0.4-0.1,0.5c0.5,0.4,1,0.7,1.3,0.8c0.7,0.2,1.7,1,2.5,2
		c3.1-1.3,5-2.7,7-2.8C289,284.6,289.8,285.1,289.9,285.6z M301.4,284.3c1-1.3,2.1-1.3,3.2-0.3c0.6-0.6,2.2-0.5,2.7,0.3
		c1.1-1,2.1-0.8,2.7,0c0.3-0.5,0.8-0.5,1.1,0c0.5-1.1,1.9-0.8,2.6,0c0.5-0.6,1.1-0.2,1.8,0.2c0.5-0.3,1.3-0.3,1.3,0c0,0.6-1,0.5-1,1
		c0,0.3,0.6,0,0.6,0.6c0,0.5-1,0.6-1.1,0c-0.5,0.6-1.8,0.3-1.9-0.3c-0.5,0.5-1.3,0.6-1.8,0.1c0,0-0.1-0.1-0.1-0.1
		c-0.5,0.3-1.1,0.3-1.3,0c-0.8,0.8-2.2,0.6-2.7-0.3H307c-0.6,0.7-1.6,0.7-2.3,0.1c-0.1,0-0.1-0.1-0.1-0.1c-1.4,1-2.2,0.6-3,0
		c-0.8,1.1-2.2,1.1-2.4,0c-0.6,0.5-1.9,0.6-1.9,0c0-0.3,1.1-0.2,1.1-0.6s-1.3-0.3-1.3-1c0-0.6,1.9,0,2.1,0.5
		C300.3,283.4,300.8,284,301.4,284.3z M296.3,279.5c0.3-0.6-0.2-1.6-1-1.9v0v0l0,0h-1.6c0,0,0-2.2,1.1-1.9l1,0.8
		c4.6,1.1,4.3,4.5,2.9,5.9c-1.4,1.3-5.6,0.2-6.1-2.9C292.8,278.7,295.8,279.8,296.3,279.5z M292,282.2c0.6,0,1.1,0.5,1.1,1.1
		c0,0.6-0.5,1.1-1.1,1.1c-0.6,0-1.1-0.5-1.1-1.1C290.9,282.7,291.4,282.2,292,282.2z M289,280c0.6,0,1.1,0.5,1.1,1.1
		c0,0.6-0.5,1.1-1.1,1.1c-0.6,0-1.1-0.5-1.1-1.1C287.8,280.5,288.3,280,289,280z M274.7,280c0-0.6,0.5-1.1,1.1-1.1
		c0.6,0,1.1,0.5,1.1,1.1c0,0.6-0.5,1.1-1.1,1.1C275.2,281.1,274.7,280.6,274.7,280z M277,283c-0.6,0-1.1-0.5-1.1-1.1
		s0.5-1.1,1.1-1.1c0.6,0,1.1,0.5,1.1,1.1S277.6,283,277,283z M278.7,285c-0.6,0-1.1-0.5-1.1-1.1c0-0.6,0.5-1.1,1.1-1.1
		c0.6,0,1.1,0.5,1.1,1.1C279.8,284.5,279.3,285,278.7,285z M285,283.7c-0.6,0-1.1-0.5-1.1-1.1s0.5-1.1,1.1-1.1
		c0.6,0,1.1,0.5,1.1,1.1S285.6,283.7,285,283.7z"/>
	<path fill="#0A328C" d="M281.9,259.6c-0.8,0-1.7,0.1-2.7,0.2c-0.3,0-0.6,0.1-0.9,0.1l2,0.2C280.8,259.9,281.3,259.8,281.9,259.6z"
		/>
	<path fill="#0A328C" d="M290.5,261.2c-0.2-0.1-0.3-0.2-0.5-0.2c0.1,0.1,0.2,0.1,0.4,0.2L290.5,261.2z"/>
	<path fill="#0A328C" d="M274,264.9l-0.1,0.4h-1l0-0.5l-1.3-0.1c0.6,1.1,1.3,2.2,2.1,3c0.2-1,0.5-1.9,1-2.7L274,264.9z"/>
	<path fill="#D20014" d="M303.8,269.1l-1.9-0.3l0.2-1l-2.9-0.3l3.2,5.5l2.1,0.7v-1.3c0-1-0.2-1.6,0.8-1.9V268
		c-0.4-0.1-0.8-0.2-1.2-0.3L303.8,269.1z"/>
	<path fill="#D20014" d="M308.8,272.3v2.7l3.7,1.2v-5.7v-0.7l-0.2-0.1v-0.5c-1.3-0.3-2.6-0.5-3.8-0.6c-0.7-0.1-1.3-0.1-2-0.3v1.7
		C307.2,269.8,308.8,270.1,308.8,272.3z"/>
	<path fill="#D20014" d="M317.3,270.9c-1.5-0.2-2.8-0.5-3.7-0.9l0,0.1c0.9,0.5,2.1,0.8,3.7,1V270.9z"/>
	<path fill="#D20014" d="M327,276v0.2l1-0.3c-0.3-0.2-0.7-0.4-1-0.5L327,276L327,276z"/>
	<path fill="#F1B517" d="M374.7,241.1l0.3-0.1l1.9,0.3l4.3-4.6l-6.6,1.6l-0.5,1.3l-0.3,0.2C374.2,240.2,374.5,240.6,374.7,241.1z"/>
	<path fill="#F1B517" d="M372,241.4C372,241.4,372,241.4,372,241.4l1.2,1.6l0,0l0.3,0.4l2.1-0.6c-0.2-0.6-0.5-1.2-0.8-1.8
		c-0.2-0.5-0.5-0.9-0.8-1.4c-0.4-0.5-0.8-1.1-1.3-1.6l-1.9,1.5c0,0.1,0,0.3,0,0.4C371.3,240.4,371.7,241,372,241.4z"/>
	<path fill="#0A328C" d="M373.1,243.1l-0.2,0.6l0.2,0.5c0.4,0.3,0.9,0.6,1.4,0.8l-1.2-1.5L373.1,243.1z"/>
	<path fill="#0A328C" d="M372,241.4c-0.3-0.4-0.7-1-1.2-1.5c0.1,0.6,0.2,1.1,0.3,1.6C371.6,241.5,371.9,241.5,372,241.4z"/>
	<path fill="#D20014" d="M373.1,243.1L373.1,243.1l-1.1-1.6c0,0,0,0,0,0c-0.1,0-0.4,0.1-0.9,0.1c0.4,1,1,1.9,2.1,2.6l-0.2-0.5
		L373.1,243.1z"/>
	<path fill="#F1B517" d="M294.6,272.6l0.9,0.2l1.3,2.6l1.5,0.4l-3.3-4.9C294.9,271.5,294.8,272.1,294.6,272.6z"/>
	<path fill="#F1B517" d="M312.5,276.1l-3.7-1.2v1.3c0,0.8-0.8,1.8-1.1,1.8h-1.2l6,1.7v-1.8V276.1z"/>
	<path fill="#F1B517" d="M304.5,273.6l-2.1-0.7l-3.2-5.5l-0.6-0.1l0,0.3h-1.8l0.1-0.5l-2.3-0.2c0.2,0.5,0.3,1.1,0.3,1.6l5.2,7.7
		l4.3,1.2V273.6z"/>
	<path fill="#503200" d="M295,269.8C295,269.8,295,269.8,295,269.8c0,0.4,0,0.7-0.1,1.1l3.3,4.9l2.5,3.7l1.1-0.6l-1.7-2.6l-5.2-7.7
		C295,269,295,269.4,295,269.8z"/>
	<path fill="#F1B517" d="M273,264.8l0.2-3.6c-1.8,0.7-3.4,1.7-5,3.1l3.6,0.4L273,264.8z"/>
	<path fill="#F1B517" d="M291.1,261.7L291.1,261.7L291.1,261.7c1.7,1.3,2.9,3.2,3.5,5.3l2.3,0.2l0.4-2.5c-1.6-0.8-3.4-1.8-5.5-2.9
		c-0.4-0.2-0.8-0.4-1.2-0.6l-0.1,0C290.6,261.3,290.9,261.5,291.1,261.7z"/>
	<path fill="#F1B517" d="M274.8,265c0.3-0.6,0.7-1.2,1.2-1.8l0,0l0,0c1.1-1.3,2.6-2.4,4.3-3.1l-2-0.2c-1.3,0.2-2.6,0.4-3.7,0.7
		l-0.6,4.2L274.8,265z"/>
	<path fill="#F1B517" d="M298.6,267.4l0.6,0.1l2.9,0.3l0.1-0.7c-1-0.4-2.1-0.9-3.4-1.5L298.6,267.4z"/>
	<path fill="#F1B517" d="M268.1,264.3c-0.2,0.2-0.4,0.3-0.6,0.5h0.5L268.1,264.3z"/>
	<path fill="#F1B517" d="M273,265.3h1l0.1-0.4l0.6-4.2c-0.5,0.1-1,0.3-1.4,0.5l-0.2,3.6L273,265.3z"/>
	<path fill="#F1B517" d="M301.9,268.8l1.9,0.3l0.3-1.5c-0.6-0.2-1.2-0.4-1.9-0.6l-0.1,0.7L301.9,268.8z"/>
	<path fill="#F1B517" d="M296.8,267.7h1.8l0-0.3l0.2-1.8c-0.5-0.2-1-0.5-1.6-0.8l-0.4,2.5L296.8,267.7z"/>
	<path fill="#F1B517" d="M276,263.2l1.6,1.3L276,263.2c-0.5,0.5-0.9,1.1-1.2,1.8c-0.5,0.8-0.8,1.7-1,2.7c-0.1,0.7-0.2,1.4-0.2,2.1
		c0,0,0,0,0,0c0,1.2,0.2,2.3,0.6,3.3c0.7,1.9,1.9,3.6,3.4,4.8l1.6-1.6l-1.6,1.6c1.8,1.5,4.2,2.3,6.7,2.3c3.4,0,6.4-1.6,8.4-3.9
		l-1.6-1.3l1.6,1.3c0.9-1.1,1.5-2.3,1.9-3.6c0.2-0.6,0.3-1.2,0.4-1.8c0-0.4,0.1-0.7,0.1-1.1c0,0,0,0,0,0c0-0.4,0-0.8-0.1-1.1
		c-0.1-0.6-0.2-1.1-0.3-1.6c-0.6-2.1-1.8-4-3.5-5.3l-1.5,1.5l1.5-1.5c-0.2-0.2-0.5-0.4-0.7-0.5c-0.1-0.1-0.2-0.2-0.4-0.2
		c-2.5-1.2-4.5-1.5-8.1-1.3c-0.6,0.1-1.1,0.3-1.6,0.5C278.6,260.8,277.1,261.9,276,263.2z"/>
	
		<line fill="none" stroke="#F1B517" stroke-width="0" stroke-linecap="round" stroke-linejoin="round" x1="292.8" y1="276.3" x2="292.7" y2="276.2"/>
	
		<line fill="none" stroke="#F1B517" stroke-width="0" stroke-linecap="round" stroke-linejoin="round" x1="291.2" y1="261.6" x2="291.1" y2="261.7"/>
	
		<line fill="none" stroke="#F1B517" stroke-width="0" stroke-linecap="round" stroke-linejoin="round" x1="276" y1="263.2" x2="276" y2="263.2"/>
	
		<line fill="none" stroke="#F1B517" stroke-width="0" stroke-linecap="round" stroke-linejoin="round" x1="292.7" y1="276.2" x2="291" y2="274.9"/>
	
		<line fill="none" stroke="#F1B517" stroke-width="0" stroke-linecap="round" stroke-linejoin="round" x1="277.6" y1="277.9" x2="277.6" y2="277.9"/>
	
		<line fill="none" stroke="#F1B517" stroke-width="0" stroke-linecap="round" stroke-linejoin="round" x1="289.6" y1="263.2" x2="291.1" y2="261.7"/>
	
		<line fill="none" stroke="#F1B517" stroke-width="0" stroke-linecap="round" stroke-linejoin="round" x1="276" y1="263.2" x2="277.6" y2="264.5"/>
	
		<line fill="none" stroke="#F1B517" stroke-width="0" stroke-linecap="round" stroke-linejoin="round" x1="279.2" y1="276.3" x2="277.6" y2="277.9"/>
	<path fill="#F1B517" d="M304.5,272.3v1.3v3.9v2.3c-0.2,0.6-1.1,0.6-1.6,1c-0.5,0.5-0.3,1.3,1.6,1.6l1.6,0.2
		c2.4-0.5,2.9-1.3,1.6-1.6c-0.5-0.3-1.4-0.6-1.6-1v-1.9h0.4h1.2c0.3,0,1.1-1,1.1-1.8V275v-2.7c0-2.2-1.6-2.6-2.2-2.4v-1.7
		c-0.4-0.1-0.9-0.2-1.3-0.2v2.4C304.3,270.7,304.5,271.4,304.5,272.3z"/>
	
		<line fill="none" stroke="#FFFFFF" stroke-width="0" stroke-linecap="round" stroke-linejoin="round" x1="295.4" y1="277.6" x2="295.4" y2="277.6"/>
	<path fill="#FFFFFF" d="M298.7,282.4c1.4-1.4,1.8-4.8-2.9-5.9l-1-0.8c-1.1-0.3-1.1,1.9-1.1,1.9h1.6l0,0c0.8,0.3,1.3,1.3,1,1.9
		c-0.5,0.3-3.5-0.8-3.7,0C293.1,282.6,297.3,283.7,298.7,282.4z"/>
	
		<line fill="none" stroke="#F1B517" stroke-width="0" stroke-linecap="round" stroke-linejoin="round" x1="268.8" y1="274.7" x2="267" y2="273.7"/>
	
		<line fill="none" stroke="#F1B517" stroke-width="0" stroke-linecap="round" stroke-linejoin="round" x1="268.8" y1="274.7" x2="269.8" y2="275.2"/>
	
		<line fill="none" stroke="#F1B517" stroke-width="0" stroke-linecap="round" stroke-linejoin="round" x1="271" y1="274.1" x2="264.5" y2="271.2"/>
	
		<line fill="none" stroke="#F1B517" stroke-width="0" stroke-linecap="round" stroke-linejoin="round" x1="272.2" y1="274.6" x2="271" y2="274.1"/>
	<path fill="#F1B517" d="M269.1,275.5l-0.8-0.7l-1.3-1.1l-2.4-2.1c0.4,1.2,1.3,2.3,3.6,4l0.8-0.1H269.1z"/>
	<circle fill="#F1B517" cx="292" cy="283.4" r="1.1"/>
	<circle fill="#F1B517" cx="289" cy="281.1" r="1.1"/>
	<circle fill="#F1B517" cx="285" cy="282.6" r="1.1"/>
	<circle fill="#F1B517" cx="278.7" cy="283.8" r="1.1"/>
	<path fill="#F1B517" d="M276,283c-0.2,0-0.4,0.1-0.5,0.2c0.5,0.6,1,1.1,1.5,1.5c0.1-0.2,0.1-0.3,0.1-0.5
		C277.1,283.5,276.6,283,276,283z"/>
	<path fill="#F1B517" d="M275.7,282.2c0-0.6-0.5-1.1-1.1-1.1c-0.2,0-0.4,0.1-0.6,0.2c0.1,0.2,0.2,0.3,0.3,0.4
		c0.3,0.4,0.7,0.9,1.1,1.3C275.5,282.8,275.7,282.6,275.7,282.2z"/>
	<circle fill="#F1B517" cx="277" cy="281.9" r="1.1"/>
	<circle fill="#F1B517" cx="275.8" cy="280" r="1.1"/>
	<path fill="#F1B517" d="M274.4,279.8c0-0.6-0.5-1.1-1.1-1.1c-0.4,0-0.8,0.3-1,0.6c0.5,0.5,0.9,1,1.3,1.5
		C274.1,280.8,274.4,280.4,274.4,279.8z"/>
	<path fill="#F1B517" d="M297.1,283.8c0,0.6,1.3,0.5,1.3,1s-1.1,0.3-1.1,0.6c0,0.6,1.3,0.5,1.9,0c0.2,1.1,1.6,1.1,2.4,0
		c0.8,0.6,1.6,1,3,0c0,0.1,0.1,0.1,0.1,0.1c0.7,0.6,1.7,0.5,2.3-0.1h0.5c0.5,1,1.9,1.1,2.7,0.3c0.2,0.3,0.8,0.3,1.3,0
		c0,0,0.1,0.1,0.1,0.1c0.5,0.5,1.3,0.4,1.8-0.1c0.2,0.6,1.4,1,1.9,0.3c0.2,0.6,1.1,0.5,1.1,0c0-0.6-0.6-0.3-0.6-0.6c0-0.5,1-0.3,1-1
		c0-0.3-0.8-0.3-1.3,0c-0.6-0.3-1.3-0.8-1.8-0.2c-0.6-0.8-2.1-1.1-2.6,0c-0.3-0.5-0.8-0.5-1.1,0c-0.6-0.8-1.6-1-2.7,0
		c-0.5-0.8-2.1-1-2.7-0.3c-1.1-1-2.2-1-3.2,0.3c-0.6-0.3-1.1-1-2.2,0C299,283.8,297.1,283.2,297.1,283.8z"/>
	<path fill="#F1B517" d="M327,279L327,279l0,0.8l5.1-1.4c-0.9-0.7-2.4-1.7-4-2.5l-1,0.3V279z"/>
	<path fill="#F1B517" d="M332.2,281c-1.3,0.3-0.8,1.1,1.6,1.6l1.6-0.2c1.1-0.2,1.6-0.5,1.8-0.9c-1.3-0.7-2.5-1.3-3.4-1.8v0.3
		C333.6,280.3,332.6,280.6,332.2,281z"/>
	<path fill="#F1B517" d="M340.6,284.3c-1.1-1-1.6-0.3-2.2,0c-1-1.3-2.1-1.3-3.2-0.3c-0.6-0.6-2.2-0.5-2.7,0.3c-1.1-1-2.1-0.8-2.7,0
		c-0.3-0.5-0.8-0.5-1.1,0c-0.5-1.1-1.9-0.8-2.6,0c-0.5-0.6-1.1-0.2-1.8,0.2c-0.5-0.3-1.3-0.3-1.3,0c0,0.6,1,0.5,1,1
		c0,0.3-0.6,0-0.6,0.6c0,0.5,1,0.6,1.1,0c0.5,0.6,1.8,0.3,1.9-0.3c0.5,0.5,1.3,0.6,1.8,0.1c0,0,0.1-0.1,0.1-0.1
		c0.5,0.3,1.1,0.3,1.3,0c0.8,0.8,2.2,0.6,2.7-0.3h0.5c0.6,0.7,1.6,0.7,2.3,0.1c0.1,0,0.1-0.1,0.1-0.1c1.4,1,2.2,0.6,3,0
		c0.8,1.1,2.2,1.1,2.4,0c0.6,0.5,1.9,0.6,1.9,0c0-0.3-1.1-0.2-1.1-0.6c0-0.4,1-0.4,1.2-0.8c-0.3-0.1-0.6-0.3-0.9-0.4
		C341.3,283.8,340.7,284.1,340.6,284.3z"/>
	<path fill="#0A328C" d="M317.3,270.9c0.3,0,0.6,0.1,1,0.1l0-0.2c-1.3-0.5-2.8-1-4.5-1.4l-0.1,0.6
		C314.4,270.4,315.7,270.7,317.3,270.9z"/>
	<path fill="#F1B517" d="M322.5,280l0.2,0l0.1,0.1c2-0.3,3.4-0.8,4-1.5l-2.2-4.3c-0.2-0.1-0.4-0.2-0.5-0.3L322.5,280z"/>
	<path fill="#F1B517" d="M322.9,273.4c-1.2-0.6-2.1-1.1-2.4-1.4c-0.2-0.2-0.5-0.4-0.8-0.6l2.3,5.5L322.9,273.4z"/>
	<path fill="#F1B517" d="M321.2,280.3l0.3-0.1l-2.6-7.3l-2.4,7.1c1,0.1,2,0.2,3.2,0.2C320.2,280.3,320.7,280.3,321.2,280.3z"/>
	<path fill="#F1B517" d="M313.6,270.1L313.6,270.1l-0.1,0l2.5,6.9l2.4-5.8c0.2,0,0.5,0,0.7,0c0,0,0,0,0,0c-0.6,0-1.2-0.1-1.8-0.1
		C315.7,270.9,314.5,270.5,313.6,270.1z"/>
	<path fill="#F1B517" d="M327,275.4c-0.1-0.1-0.2-0.1-0.4-0.2l0.4,0.8V275.4z"/>
	<path fill="#F1B517" d="M312.5,277.9c0,0.1,0,0.2,0.1,0.3c0,0,0,0.1,0,0.1c0,0.1,0.1,0.1,0.1,0.2c0,0,0,0,0,0
		c0.1,0.2,0.3,0.3,0.6,0.5v0c0.5,0.3,1.3,0.6,2.2,0.8l-3-9.5v5.7V277.9z"/>
	<path fill="#D20014" d="M316,277l-2.5-6.9l-1-0.4v0.7l3,9.5c0.3,0.1,0.7,0.1,1,0.2l2.4-7.1l2.6,7.3l1-0.2l1.5-6.1
		c-0.4-0.2-0.8-0.4-1.2-0.6l-0.9,3.6l-2.3-5.5c-0.2-0.1-0.3-0.2-0.5-0.3c-0.2,0-0.5,0-0.7,0L316,277z"/>
	<path fill="#D20014" d="M326.8,278.6c0.2-0.2,0.2-0.4,0.2-0.6v0.3v0.2v0.6l0,0v-2.8V276l0,0l-0.4-0.8c-0.2-0.1-0.5-0.2-0.7-0.3
		c-0.5-0.2-0.9-0.4-1.4-0.7L326.8,278.6z"/>
	<path fill="#0A328C" d="M321.2,280.3c-0.5,0-1,0-1.5,0c-1.1,0-2.2-0.1-3.2-0.2c-0.4-0.1-0.7-0.1-1-0.2c-0.9-0.2-1.7-0.5-2.2-0.8
		v2.1c-0.2-0.1-0.4-0.3-0.5-0.4c0.4,0.5,1.2,0.9,2.3,1.2v-2c0.6,0.1,1.2,0.3,1.8,0.3v2c0.9,0.1,2,0.2,3,0.2c0.4,0,0.8,0,1.1,0v-2.1
		L321.2,280.3z"/>
	<path fill="#0A328C" d="M327,278.2v-0.3c0,0.2-0.1,0.4-0.2,0.6c-0.5,0.7-2,1.3-4,1.5l0,0v2c1.2-0.2,2.2-0.4,2.9-0.8v-2.1
		C326.4,279,327,278.6,327,278.2z"/>
	<path fill="#0A328C" d="M312.7,280.6c0,0,0-0.1-0.1-0.1C312.6,280.5,312.6,280.5,312.7,280.6z"/>
	<path fill="#0A328C" d="M327,280c0,0.1,0,0.2-0.1,0.3C327,280.2,327,280.1,327,280z"/>
	<path fill="#0A328C" d="M312.5,280.3c0-0.1-0.1-0.2-0.1-0.3C312.5,280.1,312.5,280.2,312.5,280.3z"/>
	<path fill="#0A328C" d="M312.7,278.5C312.7,278.5,312.7,278.5,312.7,278.5C312.7,278.5,312.7,278.5,312.7,278.5z"/>
	<path fill="#0A328C" d="M312.6,278.3C312.6,278.3,312.5,278.3,312.6,278.3C312.5,278.3,312.6,278.3,312.6,278.3z"/>
	<path fill="#F1B517" d="M313.3,281.1v-2.1v0c-0.2-0.2-0.4-0.3-0.6-0.5c0,0,0,0,0,0c-0.1-0.1-0.1-0.1-0.1-0.2c0,0,0-0.1,0-0.1
		c0-0.1-0.1-0.2-0.1-0.3v1.8v0.2c0,0.1,0,0.2,0.1,0.3c0,0.1,0,0.1,0.1,0.1c0,0,0,0.1,0.1,0.1c0,0,0.1,0.1,0.1,0.1
		C312.9,280.8,313.1,281,313.3,281.1z"/>
	<path fill="#F1B517" d="M315,279.8v2v0.1l1.8,0.3v0v-2C316.2,280.1,315.6,280,315,279.8z"/>
	<polygon fill="#F1B517" points="322.8,280.1 322.7,280 322.5,280 321.5,280.2 321.2,280.3 321,280.3 321,282.4 321,282.4 
		322.9,282.2 322.9,282.2 322.9,280.2 	"/>
	<path fill="#F1B517" d="M327,278.4v-0.2c0,0.3-0.6,0.8-1.3,1.1v2.1v0c0.7-0.3,1.1-0.6,1.2-1.1c0-0.1,0.1-0.2,0.1-0.3v-0.2V279
		V278.4z"/>
	<path fill="#F1B517" d="M318.2,271h0.5c-0.2-0.1-0.4-0.2-0.6-0.2L318.2,271L318.2,271z"/>
	<path fill="#F1B517" d="M312.5,269.7l1,0.4l0.1,0l0,0l0-0.1l0.1-0.6c-0.5-0.1-0.9-0.2-1.4-0.3v0.5L312.5,269.7z"/>
	<path fill="#FFFFFF" d="M289.9,285.6c0.1,0.7-0.8,1.4-3.3,0.9l0,0.2c0.8,0.3,2,0.6,3.6,1.1l-0.1-2.2L289.9,285.6z"/>
	<path fill="#FFFFFF" d="M352.4,287c-0.4-0.1-0.8-0.2-1.1-0.3c-0.6,0-1.1,0-1.4-0.1c-0.2,0-0.3-0.1-0.5-0.1l0,1.4
		C350.6,287.5,351.6,287.2,352.4,287z"/>
	<path fill="#FFFFFF" d="M285.6,286.3l-0.1-0.1c0.4,0.1,0.7,0.2,1.1,0.3c2.5,0.5,3.5-0.2,3.3-0.9c-0.1-0.5-0.9-1-2.1-0.9
		c-2,0.1-3.9,1.5-7,2.8c0.1,0.2,0.3,0.4,0.4,0.5c1.2,2,1.5,2.2,4.3,2.2L285.6,286.3C285.5,286.3,285.5,286.3,285.6,286.3z"/>
	<path fill="#FFFFFF" d="M356.3,289.8c3,2,6.5,3.3,10,4c-1.4-1.4-2.7-2.3-3.3-2.3c-0.3,0-1.1-0.4-1.6-0.8c-0.9-0.8-4.3-2.2-7.2-3.1
		v2.2H356.3z"/>
	<path fill="#FFFFFF" d="M351.3,286.7c-0.3-0.1-0.6-0.1-0.8-0.1c-0.1,0-0.4,0-0.6-0.1C350.1,286.7,350.6,286.8,351.3,286.7z"/>
	<path fill="#FFFFFF" d="M297.4,292.9c0.3,0.1,0.7,0.1,1,0.2c0.2,0,0.4,0.1,0.6,0.1l-1.2-2.6L297.4,292.9z"/>
	<path fill="#FFFFFF" d="M354.3,291.3v-1.5v-2.2c-0.7-0.2-1.3-0.4-1.9-0.6c-0.8,0.3-1.8,0.6-3.2,0.9c-5.1,1.2-14.5,2.7-29.3,2.7
		c-15.2,0-24.7-1.6-29.7-2.8c-1.7-0.4-2.9-0.8-3.6-1.1c-0.6-0.2-0.9-0.3-1-0.4c0,0-0.1,0-0.1,0v3.9c0.1,0,0.2,0,0.3,0
		c0.5,0,1.1,0,1.7,0.1l0.8-2.8l0.5,0.2l-0.8,2.6c1.5,0.2,3,0.6,4.1,1c0.3,0.1,0.6,0.2,1,0.3l0.1-0.7l0.5-2.2l0.5,0.1l-0.5,2.2
		c0,0.2,0,0.5,0,0.7c0.6,0.2,1.2,0.3,1.8,0.5l0.3-0.8l0.4-2.2l0.5,0.2l-0.4,2.1l-0.3,0.9c0.3,0.1,0.6,0.2,0.9,0.2l0.5-3.1h0.6
		l1.5,3.4l0.5-3h0.5l-0.5,3.3c0.3,0.1,0.6,0.2,0.9,0.3l0.5-3.4h0.5l-0.5,3.6c0.8,0.3,1.6,0.7,2.5,1.2c4.6,0.5,9.9,0.9,16,0.9
		C342.1,295.9,354.3,291.3,354.3,291.3z M351.3,287.7l0.2,0.4l-2.3,0.6l0.3,1.1l2.1-0.5l0.2,0.4l-2.2,0.6l0.4,1.2l2.4-0.6v0.4
		l-2.8,0.8h0l-1-3.7L351.3,287.7z M345.1,290.1c0-0.4,0.3-0.7,0.5-0.9l0.9-0.4h1c0.4,0.2,0.6,0.4,0.8,0.8l-0.5,0.2
		c-0.1-0.2-0.3-0.4-0.5-0.5c-0.2-0.1-0.5-0.1-0.7,0c-0.3,0-0.5,0.1-0.7,0.3c-0.2,0.2-0.3,0.4-0.3,0.7v0.7c0.1,0.3,0.2,0.6,0.4,0.8
		c0.1,0.2,0.3,0.4,0.6,0.4h0.7c0.2,0,0.4-0.1,0.6-0.3c0.2-0.2,0.3-0.5,0.3-0.8v0h0.5c0,0.4-0.1,0.8-0.3,1c-0.3,0.3-0.6,0.5-1,0.6
		c-0.3,0.1-0.7,0.1-1,0c-0.3-0.1-0.6-0.3-0.8-0.6c-0.2-0.3-0.4-0.6-0.5-1C345,290.8,345,290.4,345.1,290.1z M342.8,289.6h0.8
		c0.2,0,0.4,0,0.5,0.2l0.3,0.6c0,0.3,0,0.5-0.2,0.7c-0.1,0.2-0.4,0.4-0.7,0.5c0.1,0,0.2,0.1,0.3,0.1l0.5,0.5l1,0.9h-0.7l-0.7-0.6
		c-0.2-0.2-0.3-0.3-0.5-0.5c-0.1-0.1-0.2-0.1-0.3-0.2c-0.1,0-0.2,0-0.3,0h-0.3l-0.6,0.1l0.4,1.7h-0.6l0,0.1l-0.6-3.8L342.8,289.6z
		 M337.3,290.9c0.3-0.4,0.8-0.6,1.3-0.7l1,0.1c0.4,0.1,0.6,0.3,0.8,0.6l0.4,1l-0.1,1c-0.1,0.3-0.3,0.6-0.6,0.8
		c-0.3,0.2-0.6,0.3-0.9,0.4c-0.3,0.1-0.7,0-1-0.1c-0.3-0.1-0.6-0.3-0.8-0.6c-0.2-0.3-0.4-0.6-0.4-1l0.1,0.1
		C336.9,291.8,337.1,291.3,337.3,290.9z M336.3,290.5l0.1,0.5l-2.1,0.2v1.2l2-0.2v0.5l-1.9,0.2l0.2,1.7h-0.5l0,0l-0.4-3.8
		L336.3,290.5z M329.6,291.1h0.6l2,3.7h-0.7l-0.5-1h-1.7l-0.3,1.3h-0.6L329.6,291.1z M326.1,291.3l0.1,3.4h2v0.4l-2.4,0.1l0,0.1
		l-0.1-0.1l0.1,0l-0.3-3.9H326.1z M320.5,291.6h3.1v0.4h-1.3v3.4h-0.5v-0.1V292h-1.3V291.6z M291.5,289.1l-0.3,0.7l-0.3-0.1V289
		l0.2-0.7l0.6,0.2L291.5,289.1z M306.1,292.7c0,0.4-0.1,0.7-0.3,1c-0.2,0.3-0.5,0.6-0.8,0.7c-0.3,0.1-0.7,0.2-1,0.1
		c-0.4,0-0.7-0.1-1-0.3c-0.2-0.2-0.4-0.5-0.5-0.8c-0.1-0.3-0.1-0.7-0.1-1v0c0-0.6,0.3-1.1,0.7-1.4c0.4-0.3,0.9-0.4,1.4-0.4
		c0.4,0,0.7,0.1,1,0.3l0.5,0.8C306.2,292,306.2,292.4,306.1,292.7z M309.7,295h-0.5l-1.9-3.2l-0.2,3h-0.5v-0.1l0.3-3.8h0.6l1.8,3.2
		l0.2-3h0.5L309.7,295z M315,291.9l-2.1-0.1l-0.1,1.1l1.9,0.1v0.5l-2-0.1v1.8h-0.5v-0.1l0.1-3.8l2.7,0.1V291.9z M318.2,295.4
		l-0.4-1.3h-1.7l-0.4,1.2h-0.6l0.1-0.1l1.5-3.8h0.6l1.5,4H318.2z M319.3,291.5h0.6v3.8h-0.6V291.5z"/>
	<path fill="#FFFFFF" d="M305.1,291.3c-0.2-0.2-0.4-0.3-0.7-0.3c-0.3,0-0.7,0-1,0.3c-0.2,0.2-0.4,0.6-0.5,1.2c0,0.5,0,0.9,0.3,1.1
		c0.2,0.3,0.5,0.5,0.9,0.5c0.4,0,0.7,0,1-0.3c0.3-0.2,0.4-0.6,0.5-1c0.1-0.3,0.1-0.7,0-1C305.5,291.6,305.3,291.4,305.1,291.3z"/>
	<path fill="#FFFFFF" d="M317,291.8l-0.2,0.8l-0.5,1.1h1.3l-0.4-1C317.1,292.4,317.1,292.1,317,291.8z"/>
	<path fill="#FFFFFF" d="M330.3,292.4l-0.4-0.9c0,0.3,0,0.5-0.1,0.8l-0.4,1.1h1.4L330.3,292.4z"/>
	<path fill="#FFFFFF" d="M337.6,292.4c0,0.4,0.2,0.8,0.5,1c0.3,0.3,0.6,0.3,1,0.3c0.4,0,0.7-0.2,1-0.5c0.2-0.3,0.2-0.7,0.2-1.2
		c0-0.3-0.1-0.6-0.3-0.8c-0.1-0.2-0.4-0.4-0.6-0.5c-0.2-0.1-0.5-0.1-0.7,0c-0.4,0-0.7,0.1-1,0.4
		C337.6,291.4,337.5,291.8,337.6,292.4L337.6,292.4z"/>
	<path fill="#FFFFFF" d="M341.9,291.5l1-0.2c0.2,0,0.4-0.1,0.6-0.2c0.2-0.1,0.3-0.4,0.3-0.6c0-0.2-0.1-0.3-0.2-0.4h-0.7l-1.3,0.1
		L341.9,291.5L341.9,291.5z"/>
	<polygon points="312.2,295.1 312.2,295.2 312.7,295.2 312.7,293.4 314.7,293.5 314.7,293 312.8,292.9 312.9,291.8 315,291.9 
		315,291.4 312.3,291.3 	"/>
	<polygon points="325.8,295.3 325.8,295.2 325.7,295.2 	"/>
	<polygon points="290.9,289 290.9,289.7 291.2,289.8 291.5,289.1 291.7,288.5 291.1,288.3 	"/>
	<polygon points="321.8,295.3 321.8,295.4 322.3,295.4 322.3,292 323.6,292 323.6,291.6 320.5,291.6 320.5,292 321.8,292 	"/>
	<path d="M316.7,291.4l-1.5,3.8l-0.1,0.1h0.6l0.4-1.2h1.7l0.4,1.3h0.6l-1.5-4H316.7z M316.3,293.7l0.5-1.1l0.2-0.8
		c0.1,0.3,0.1,0.6,0.2,0.9l0.4,1H316.3z"/>
	<polygon points="309.3,294.1 307.5,290.9 306.9,290.9 306.6,294.7 306.6,294.8 307.1,294.8 307.3,291.8 309.2,295 309.7,295 
		310,291.1 309.5,291.1 	"/>
	<rect x="319.3" y="291.5" width="0.6" height="3.8"/>
	<path d="M305.5,290.9c-0.3-0.2-0.6-0.3-1-0.3c-0.5,0-1,0.1-1.4,0.4c-0.4,0.3-0.7,0.8-0.7,1.4v0c0,0.3,0,0.7,0.1,1
		c0.1,0.3,0.3,0.6,0.5,0.8c0.3,0.2,0.6,0.3,1,0.3c0.3,0.1,0.7,0,1-0.1c0.3-0.1,0.6-0.4,0.8-0.7c0.2-0.3,0.3-0.6,0.3-1
		c0.1-0.3,0.1-0.7-0.1-1L305.5,290.9z M305.6,292.8c-0.1,0.4-0.2,0.8-0.5,1c-0.3,0.3-0.6,0.3-1,0.3c-0.4,0-0.7-0.2-0.9-0.5
		c-0.3-0.2-0.3-0.6-0.3-1.1c0.1-0.6,0.3-1,0.5-1.2c0.3-0.3,0.7-0.3,1-0.3c0.3,0,0.5,0.1,0.7,0.3c0.2,0.1,0.4,0.3,0.5,0.5
		C305.7,292.1,305.7,292.5,305.6,292.8z"/>
	<path d="M341.7,293.6h0.6l-0.4-1.7l0.6-0.1h0.3c0.1,0,0.2,0,0.3,0c0.1,0.1,0.2,0.1,0.3,0.2c0.2,0.2,0.3,0.3,0.5,0.5l0.7,0.6h0.7
		l-1-0.9l-0.5-0.5c-0.1,0-0.2-0.1-0.3-0.1c0.3-0.1,0.6-0.3,0.7-0.5c0.2-0.2,0.2-0.4,0.2-0.7l-0.3-0.6c-0.1-0.2-0.3-0.2-0.5-0.2h-0.8
		l-1.7,0.3L341.7,293.6L341.7,293.6z M342.9,290.1h0.7c0.1,0.1,0.2,0.2,0.2,0.4c0,0.2-0.1,0.5-0.3,0.6c-0.2,0.1-0.4,0.2-0.6,0.2
		l-1,0.2l0,0l-0.3-1.3L342.9,290.1z"/>
	<path d="M300,290.1l-0.5,3l-1.5-3.4h-0.6l-0.5,3.1c0.2,0,0.3,0.1,0.5,0.1l0.4-2.3l1.2,2.6c0.3,0.1,0.6,0.1,1,0.2l0.5-3.3H300z"/>
	<path d="M301.4,290.3l-0.5,3.4c0.2,0.1,0.4,0.1,0.6,0.2l0.5-3.6H301.4z"/>
	<polygon points="349.6,292.1 352.4,291.3 352.4,290.9 350,291.5 349.6,290.3 351.8,289.7 351.6,289.3 349.5,289.8 349.2,288.7 
		351.5,288.1 351.3,287.7 348.6,288.4 349.6,292.1 	"/>
	<path d="M296.7,289.6l-0.5-0.2l-0.4,2.2l-0.3,0.8c0.2,0,0.3,0.1,0.5,0.1l0.3-0.9L296.7,289.6z"/>
	<path d="M293.7,291.2l0.5-2.2l-0.5-0.1l-0.5,2.2l-0.1,0.7c0.2,0.1,0.4,0.1,0.6,0.2C293.7,291.7,293.7,291.4,293.7,291.2z"/>
	<path d="M337.4,293.4c0.2,0.3,0.5,0.5,0.8,0.6c0.3,0.1,0.7,0.2,1,0.1c0.3-0.1,0.6-0.2,0.9-0.4c0.3-0.2,0.5-0.5,0.6-0.8l0.1-1
		l-0.4-1c-0.2-0.3-0.4-0.5-0.8-0.6l-1-0.1c-0.5,0.1-1,0.3-1.3,0.7c-0.2,0.4-0.4,0.9-0.2,1.6l-0.1-0.1
		C337,292.8,337.2,293.1,337.4,293.4z M337.7,291.1c0.3-0.3,0.6-0.4,1-0.4c0.2-0.1,0.5-0.1,0.7,0c0.2,0.1,0.5,0.3,0.6,0.5
		c0.2,0.2,0.3,0.5,0.3,0.8c0,0.5,0,0.9-0.2,1.2c-0.3,0.3-0.6,0.5-1,0.5c-0.4,0-0.7,0-1-0.3c-0.3-0.2-0.5-0.6-0.5-1v0
		C337.5,291.8,337.6,291.4,337.7,291.1z"/>
	<path d="M329.3,293.8h1.7l0.5,1h0.7l-2-3.7h-0.6l-1.2,4h0.6L329.3,293.8z M329.8,292.3c0.1-0.3,0.1-0.5,0.1-0.8l0.4,0.9l0.5,1h-1.4
		L329.8,292.3z"/>
	<path d="M345.6,292.1c0.2,0.3,0.5,0.5,0.8,0.6c0.3,0.1,0.7,0.1,1,0c0.4-0.1,0.7-0.3,1-0.6c0.2-0.2,0.3-0.6,0.3-1h-0.5v0
		c0,0.3-0.1,0.6-0.3,0.8c-0.2,0.2-0.4,0.3-0.6,0.3h-0.7c-0.3,0-0.5-0.2-0.6-0.4c-0.2-0.2-0.3-0.5-0.4-0.8v-0.7
		c0-0.3,0.1-0.5,0.3-0.7c0.2-0.2,0.4-0.3,0.7-0.3c0.2-0.1,0.5-0.1,0.7,0c0.2,0.1,0.4,0.3,0.5,0.5l0.5-0.2c-0.2-0.4-0.4-0.6-0.8-0.8
		h-1l-0.9,0.4c-0.2,0.2-0.5,0.5-0.5,0.9c-0.1,0.3-0.1,0.7,0,1C345.2,291.5,345.4,291.8,345.6,292.1z"/>
	<polygon points="334.1,294.6 334.6,294.6 334.4,292.9 336.3,292.7 336.3,292.2 334.3,292.4 334.3,291.2 336.4,291 336.3,290.5 
		333.7,290.8 334.1,294.6 	"/>
	<polygon points="328.2,295.1 328.2,294.7 326.2,294.7 326.1,291.3 325.5,291.3 325.8,295.2 	"/>
	<path d="M288.9,287.8l-0.5-0.2l-0.8,2.8c0.2,0,0.3,0,0.5,0.1L288.9,287.8z"/>
</g>
</svg>
