<?xml version="1.0" encoding="utf-8"?>
<!-- Generator: Adobe Illustrator 17.1.0, SVG Export Plug-In . SVG Version: 6.00 Build 0)  -->
<!DOCTYPE svg PUBLIC "-//W3C//DTD SVG 1.1//EN" "http://www.w3.org/Graphics/SVG/1.1/DTD/svg11.dtd">
<svg version="1.1" id="flag-icon-css-id" xmlns="http://www.w3.org/2000/svg" xmlns:xlink="http://www.w3.org/1999/xlink" x="0px"
	 y="0px" viewBox="0 0 640 480" enable-background="new 0 0 640 480" xml:space="preserve">
<g>
	<path fill="#E70011" d="M452.1,220.7c0.4-0.1,0.1-0.6-0.6-0.9c-0.8-0.5-1.4-0.6-1.6-0.2C449.5,220.2,451,221,452.1,220.7z"/>
	<path fill="#E70011" d="M449,227.1c0.9,0.9,1.6,1.1,2.6,0.7c0.7-0.2,2.9-0.5,4.7-0.5c4,0,4.2-0.9,0.6-3.4c-4-2.7-5.7-3-7.5-1.1
		C447.4,224.8,447.4,225.4,449,227.1z"/>
	<path fill="#E70011" d="M547.9,238.2c-0.7,0-1.2,0.4-1.2,0.9c0,0.5-0.1,0.8-0.2,0.8h2.8C549,238.7,548.6,238.2,547.9,238.2z"/>
	<path fill="#E70011" d="M406.4,226.8c-1.2,1.1-1.2,1-0.4,3c0.7,1.9,2.3,2.1,5,0.6c1.4-0.7,2.1-0.7,2.7-0.2c0.6,0.5,1.5,0.5,3.4,0
		c1.9-0.5,3-0.5,4.3,0c1.2,0.5,2.2,0.5,3.4,0c2.6-0.9,2.8-0.8,2.4,1.6c-0.3,1.8-0.2,2.2,0.5,2c0.5-0.1,0.9-1,1.1-1.8
		c0.1-1.2,0.8-1.8,2.5-2.4l2.3-0.9l-1.9-0.4c-1-0.2-3.8-0.4-6.2-0.5c-2.4,0-6.5-0.5-9.2-1C410.2,225.5,407.6,225.5,406.4,226.8z"/>
	<path fill="#E70011" d="M174.3,239.2c-0.1,0.3-0.2,0.5-0.3,0.8h7.1C178.4,238,174.9,237.6,174.3,239.2z"/>
	<path fill="#E70011" d="M460.2,174.2c0,1.7,1.5,1.4,4-0.7c3.2-2.8,2.9-6.2-0.6-6.2c-0.4,0-1.6,0.8-2.6,1.9c-0.9,1-2,1.7-2.3,1.5
		c-0.8-0.6-0.6,0.4,0.4,1.4C459.7,172.6,460.2,173.5,460.2,174.2z"/>
	<path fill="#E70011" d="M441.1,145.8c1-1.8,1.1-2.4,0.4-4c-0.8-2-1.5-2.3-2.2-1.1c-0.7,1.2-0.7,7.3,0.1,7.3
		C439.7,148,440.5,147,441.1,145.8z"/>
	<path fill="#E70011" d="M427.4,154c-1.4-2.7-2.9-3.6-3.7-2.3c-0.2,0.3,0.1,1.1,0.6,1.7c0.5,0.6,1.3,1.7,1.7,2.3
		C427.6,157.7,428.6,156.3,427.4,154z"/>
	<path fill="#E70011" d="M388,223.6c1.2-1.1,1.2-1.1,2.4,0.4l1.2,1.5l1.6-1.5c1.7-1.6,2.1-3.4,0.9-4.2c-0.4-0.2-1-0.1-1.4,0.3
		c-1,1-2.3,0.9-2.3-0.2c0-1-0.4-1.1-3.4-0.4c-1.6,0.3-1.9,0.7-2.1,2.4C384.8,224.3,386.2,225.2,388,223.6z"/>
	<path fill="#E70011" d="M454,173.1c0.4-0.4,0.4-0.8,0.1-1.1c-0.4-0.2-0.9-0.1-1.1,0.3C452.4,173.3,453.2,173.9,454,173.1z"/>
	<path fill="#E70011" d="M449,184.9l-1.2,3.5l1.6,1.5c1.2,1.1,1.5,1.9,1.2,3c-0.2,0.9,0.1,3.2,0.6,5.2c0.5,2,0.9,4.7,0.9,5.9
		c0,1.3,0.4,2.6,1,3.1c0.5,0.4,1.5,1.9,2.2,3.2c1.2,2.3,5.8,6,6.5,5.3c0.2-0.2-0.6-1.5-1.7-2.9c-3-3.5-5.1-9.8-4.2-13.1
		c0.8-3,1.9-3.1,7.8-0.9c2.2,0.8,4,1.3,4,1.1c0-1.2-3.3-5-5-5.7c-2.4-1-2.2-1.6,1.3-4c2.2-1.6,2.8-2.4,2.9-4c0.3-3.2-0.3-5-1.9-5
		c-2.1,0-5.4,2.2-6.2,4.2c-1.3,3-3.7,6.4-4.5,6.4c-0.4,0-1.1-0.4-1.6-0.9c-0.6-0.7-0.3-1.2,1.5-2.8c1.4-1.2,2.5-2.9,2.9-4.5
		c0.6-2.2,0.5-2.7-0.7-4.4c-1.3-1.7-1.3-1.9-0.3-3.5c1.2-2.1,1.2-2.5,0.1-2.5c-0.4,0-1.9,1.1-3.1,2.5c-1.2,1.4-2.4,3.2-2.6,4.2
		C450.3,180.5,449.6,182.9,449,184.9z"/>
	<path fill="#E70011" d="M448.7,202c-0.1,0.2-0.1,0.9,0.3,1.4c0.4,0.7,0.6,0.6,0.6-0.5C449.6,201.4,449.3,201.1,448.7,202z"/>
	<path fill="#E70011" d="M484.4,209c0-0.4-0.4-0.6-0.9-0.6c-0.5,0-0.9,0.2-0.9,0.6c0,0.3,0.4,0.6,0.9,0.6
		C484,209.6,484.4,209.3,484.4,209z"/>
	<path fill="#E70011" d="M477.6,204.3c-1.5-1.6-2.5-2-2.5-1.1c0,0.8,2.2,2.6,3.1,2.6C478.8,205.9,478.5,205.3,477.6,204.3z"/>
	<path fill="#E70011" d="M554.3,217.6c-2-1.7-2.7-1.9-3.1-0.7c-0.4,1.2,1.2,2.7,3,2.7C555.7,219.6,555.7,218.7,554.3,217.6z"/>
	<path fill="#E70011" d="M481.6,219.6c0.2,0.3,0.8,0.6,1.3,0.6c0.5,0,0.9-0.3,0.9-0.6c0-0.4-0.6-0.6-1.3-0.6
		C481.8,218.9,481.5,219.2,481.6,219.6z"/>
	<path fill="#E70011" d="M570.9,217.5c-1.2-0.2-2.1-1.1-2.7-2.2c-0.7-1.4-1.7-2-3.7-2.6c-3.4-0.9-5.4-0.9-5.4-0.1
		c0,0.3,1.1,1.1,2.4,1.8c1.2,0.7,3.1,2.2,4,3.4c1.4,1.7,2.2,2.2,3.7,2.2c1.9,0,3.5-0.9,3.5-1.9C572.8,218.1,572,217.7,570.9,217.5z"
		/>
	<path fill="#E70011" d="M51.9,215.8c-1.2,0-2.1,0.4-2.5,1.2c-1,1.9-0.7,3.4,1.2,6.4c2.1,3.2,4.1,4.9,6.1,4.9c2.8,0,2.7-1.9-0.2-7.3
		C54,216.4,53.5,215.8,51.9,215.8z"/>
	<path fill="#E70011" d="M562.5,225.4c-2.2-0.2-2.9-0.2-2.5,0.3c0.4,0.4,2.1,0.9,3.9,1.3c1.8,0.3,4,1.2,5.1,1.9
		c1.3,1,2.1,1.2,2.6,0.7c0.4-0.4,2.2-0.6,3.8-0.6c3.4,0,5-0.9,3.2-1.9c-0.7-0.3-3.9-0.8-7.1-1C568.3,225.9,564.3,225.6,562.5,225.4z
		"/>
	<path fill="#E70011" d="M30.2,187.1c1.1,1.7,2.7,3.7,3.7,4.3c1,0.6,2,1.7,2.2,2.5c0.6,2.1,2.5,1.8,3.3-0.5c1.1-3.2,0.9-3.8-2.8-7.6
		c-3.7-3.7-4-3.9-6.6-2.7l-1.7,0.7L30.2,187.1z"/>
	<path fill="#E70011" d="M31.4,172.9c0-1.4-0.4-1.6-1.8-0.7c-0.7,0.4-0.6,0.7,0.5,1.2C31.2,174.1,31.4,174,31.4,172.9z"/>
	<path fill="#E70011" d="M47.9,208.7c0.9-0.6,1-1,0.4-2.1c-0.9-1.6-2.2-1.9-1.7-0.4c0.2,0.6,0.1,1.4-0.2,1.8
		C45.4,209.2,46.5,209.7,47.9,208.7z"/>
	<path fill="#E70011" d="M15.2,165.1c0-0.5-0.5-0.9-1.1-0.9c-0.6,0-1.7-0.4-2.4-0.9c-1.5-1.1-1.8-1.1-2.7,0
		c-1.1,1.3,0.6,3.1,3.7,4.1c1.2,0.4,3,1.4,3.9,2.3c1,0.9,2.1,1.4,2.6,1.2c1.6-0.6,1.2-1.4-1.5-3.2C16.4,166.8,15.2,165.6,15.2,165.1
		z"/>
	<path fill="#E70011" d="M446.9,207.4c-0.2-0.5-0.7-0.9-1.3-0.9c-0.7,0-0.9,0.6-0.9,2.2s0.2,2.2,0.9,2.2c0.6,0,1.7,0.7,2.7,1.7
		c2.2,2.3,5.5,3.4,6.4,2.3c0.7-0.9,0.2-2.1-0.9-2.1c-0.4,0-1.1-0.2-1.6-0.6c-0.7-0.5-0.7-0.7-0.1-1.6c1.2-1.5-0.1-2.8-2.7-2.6
		C447.9,208.2,447.1,208,446.9,207.4z"/>
	<path fill="#E70011" d="M445.4,212.2c-0.5,0.5-0.6,0.9-0.1,1.6c1,1.2,1.8,1,1.8-0.4C447.1,211.8,446.3,211.3,445.4,212.2z"/>
	<path fill="#E70011" d="M180.7,146.1l-1.4,1.2l1.2,2.6c0.7,1.4,1.7,2.6,2.2,2.6c2.5,0,3.2-3.2,1.5-5.9
		C182.9,144.6,182.6,144.5,180.7,146.1z"/>
	<path fill="#E70011" d="M129.3,208.2c-1.6,0.2-1.7,1.1-0.6,3l0.8,1.4l1.7-1.6c0.9-0.8,1.7-1.7,1.7-1.8
		C132.8,208.7,130.5,208,129.3,208.2z"/>
	<path fill="#E70011" d="M133.5,206.6c1.5-0.2,2.4,0,2.4,0.4c0,0.4,0.3,0.7,0.6,0.7c1.4,0,0.4-1.9-1.7-3.4c-2.8-1.9-2.8-1.9-4.2-0.4
		C129.1,205.7,130.4,206.9,133.5,206.6z"/>
	<path fill="#E70011" d="M67.5,238.2c0,0.5,0.2,1.2,0.4,1.8h2.9C68.5,237.6,67.5,237.1,67.5,238.2z"/>
	<path fill="#E70011" d="M131.7,186c-0.2,0-1.4,0.5-2.4,1c-2.2,1.1-2.7,2.7-0.9,2.7c0.6,0,1.5,0.4,1.9,0.9c1.1,1.4,2.4,1.1,2.9-0.6
		C133.6,188.6,132.6,185.9,131.7,186z"/>
	<path fill="#E70011" d="M481,228.9c-0.4,0.7,4.2,3.1,6,3.1c1.8,0,3.2-0.9,2.7-1.7c-0.2-0.4-0.1-0.7,0.3-0.9
		c0.4-0.1,0.6-0.8,0.3-1.6c-0.6-1.6-1.9-1.7-6.1-0.4C482.7,227.9,481.2,228.6,481,228.9z"/>
	<path fill="#E70011" d="M116.5,193.4c1.6,0,1.6,0,0.5-1.2c-0.6-0.7-1.4-1.2-1.7-1.2c-0.2,0-0.5,0.6-0.5,1.2
		C114.8,193.1,115.2,193.4,116.5,193.4z"/>
	<path fill="#E70011" d="M123.5,187.5c-0.7,0.9-0.4,2.2,0.7,2.2c0.4,0,1.2,0.6,1.8,1.4c0.6,0.8,1.4,1.2,1.6,1
		c0.2-0.3-0.1-1.1-0.7-1.7c-0.6-0.7-0.9-1.7-0.7-2.5C126.6,186.3,124.7,186.1,123.5,187.5z"/>
	<path fill="#E70011" d="M115.4,189.4c0.4,0.2,0.6-0.1,0.6-0.6c0-0.6-0.2-1-0.6-1c-0.3,0-0.6,0.2-0.6,0.6
		C114.8,188.7,115.1,189.2,115.4,189.4z"/>
	<path fill="#E70011" d="M4.7,122.2c0-0.9-0.4-1.1-1.7-0.5c-0.9,0.4-0.4,1.4,0.9,1.4C4.3,123.1,4.7,122.7,4.7,122.2z"/>
	<path fill="#E70011" d="M1.8,124.7c-0.2-0.6-0.7-1-1-1c-0.4,0-0.4,0.2-0.1,0.7c0.4,0.4,0.8,2.1,0.9,3.7c0.5,4.7,3.5,9.1,11.3,16.4
		c5.7,5.3,7.4,6.6,8.9,6.6c1.8,0,5.8,3.3,5.8,4.7c0,0.4,0.6,1.2,1.3,1.9c3,2.7,6.8,8.5,6.8,10.4c0,1.9,0.3,2.1,6.2,4.9l6.2,2.9
		l1.9,3.9c1,2.2,2.6,6.7,3.5,10.1c2,7.3,2.9,9,6.9,12.2c5.1,4,12,12.3,13,15.6c0.5,1.6,2.1,4.7,3.6,6.8c3.7,5.2,5.5,9,5.1,10.5
		c-0.6,1.8,0.1,3.7,1.7,4.9h64.6c-2.4-4.5-2.9-4.3-6.5-4.3c-4.9,0-5.9-0.4-5.9-2.2c0-1-0.7-1.9-2.2-2.7c-2.6-1.5-2.5-1.3-3.4-8.3
		l-0.7-5.4h-1.9c-3.7,0-7.8-1.2-10.1-2.9l-2.3-1.7l2.7-2.7c2.6-2.7,2.6-2.8,0.1-3.5c-1.2-0.3,0.9-3,2.4-3c2.7,0,0.1-5.1-3.7-7.2
		l-2.8-1.6l-2.1,2.2c-3.5,3.5-4,2.7-1.4-2.2l2.4-4.4l-2.6-1.9c-2.8-2.1-3.9-2.3-4.4-1c-0.5,1.3-2.7,0.5-3.2-1.1
		c-0.2-0.7-0.1-1.5,0.2-1.6c0.9-0.3,0.7-2.2-0.1-3.1c-0.4-0.4-2.1-0.7-3.9-0.7h-3l1.2,1.3l1.2,1.4l-1.6-0.8
		c-2.6-1.4-4.9-3.5-4.4-4.1c0.5-0.6,0.8-2.3,0.7-3.8c-0.2-2.1-5-1.2-5,0.9c0,0.7-0.4,0.5-1.2-0.7c-1.2-2-5.5-4.9-6.3-4.4
		c-0.2,0.2-0.5,1-0.5,1.9c0,3.2-3.7,1.1-6.2-3.6c-1.1-2-2.3-3.6-2.7-3.5c-1.7,0.2-2.3-0.1-2.3-1.2c0-1.7-7.5-8.4-13.1-11.7
		c-2.7-1.6-4.9-3-4.9-3.3s-1.4-1.2-3.1-2.1c-2.6-1.4-3.1-2-3.1-3.4c0-1-0.6-2.3-1.6-3.2c-0.9-0.8-1.8-2.2-2.1-3.1
		c-0.2-0.9-1.9-2.9-3.6-4.5c-3-2.9-3.2-2.9-5.1-2.2c-1.6,0.6-2.4,0.6-4.1,0c-1.4-0.5-3.3-0.6-5.3-0.4c-4.6,0.6-7-0.1-10.3-3
		c-3.2-2.7-7.6-3.9-9.4-2.4C2.4,125.6,2.1,125.5,1.8,124.7z"/>
	<path fill="#E70011" d="M146.2,224.7c-1.8-0.3-3.4,0.8-3.4,2.3c0,0.6-0.9,1.7-2,2.7c-1.1,0.9-1.8,1.9-1.6,2.1
		c0.2,0.3,2.2,0.6,4.4,0.7c3.8,0.2,4,0.3,5.5,2.8c0.9,1.4,1.7,3.4,1.7,4.5c0,0.1,0,0.1,0,0.2H162c0.1-0.2,0.2-0.3,0.2-0.4
		c0.7-0.9,0.7-1-2.5-1.9c-4.2-1.2-5.2-2.4-6.6-8.2c-1.4-5.2-1.4-5.3-3.4-5.5c-1.1-0.1-2.1,0.1-2.1,0.4S147.1,224.8,146.2,224.7z"/>
	<path fill="#E70011" d="M544.1,237.4c-2.4-3.9-2.9-9.5-1.1-13l1.4-2.6l-2.1-3.9c-2.2-4.1-2.1-4-8.2-4.9c-1.7-0.2-3.9-1.1-5.5-2.2
		c-3.2-2.4-9.6-3.7-12.4-2.6c-0.5,0.2-2.3,1.3-3.9,2.4c-1.7,1.1-4,2.2-5.3,2.5c-3,0.6-4.5,1.3-4.5,2.5c0,1.3-1.8,4.6-2.5,4.6
		c-0.4,0-0.6-0.9-0.6-2.1c0-1.7-0.2-2.2-1.4-2.4c-0.8-0.1-1.4-0.6-1.2-1c0.1-0.6-0.6-0.7-2.8-0.6c-3,0.2-4.4,1.6-2.1,2.2
		c0.7,0.2,1.4,0.8,1.6,1.4c0.2,0.6,1.2,2.2,2.2,3.6c1.9,2.7,5,3.9,6.5,2.6c0.6-0.5,1.7-0.4,4.4,0.2c3.5,0.9,4.6,1.7,4.6,3.5
		c0,1.1,1.9,4.2,3.7,6.1c1,1.1,1.8,1.4,2.9,1.1c0.9-0.2,1.9-0.1,2.4,0.4c0.5,0.4,1.5,0.5,2.2,0.2c0.8-0.2,3.7-0.6,6.4-0.9
		c2.7-0.2,6-0.7,7.2-1c2-0.4,2.1-0.4,1.3,0.6c-0.6,0.7-0.6,1.1-0.1,1.1c1.5,0,0.6,1.7-1.5,2.7c-3,1.4-4.4,1.3-5.4-0.3l-0.9-1.4
		l-3,2.5c-0.7,0.6-1.2,1.1-1.7,1.5h21.5C545.8,239.8,545.1,239,544.1,237.4z"/>
	<path fill="#E70011" d="M336,225.5c0,4.2-0.2,5.3-1.4,6.8c-0.8,1-1.4,2.4-1.4,3.1c0,1.9-1.7,4.1-3.1,4.1c-0.5,0-0.9,0.2-1.1,0.5h45
		c-2.4-2.6-5.3-6.9-5.3-8.3c0-1.4,2.2-3,6.4-4.7c1.5-0.6,3.7-2.7,6.2-5.6c2.1-2.6,4.7-5,5.5-5.6c1.6-0.9,1.8-0.8,3.5,0.9l1.9,1.8
		l0.9-2.3c1.2-2.9,0.9-3.7-1.6-5c-1.6-0.8-2.3-0.9-4.4-0.2c-2.1,0.6-2.4,1-2.1,1.9c0.3,1.1,0.1,1.1-3.6,0.7
		c-3.4-0.3-4.4-0.2-6.6,0.9c-2.9,1.4-5.7,1.7-6.8,0.6c-0.6-0.6-1.6,0.2-4.7,3.5c-3.5,3.8-4.1,4.2-5.6,3.8c-1-0.2-2.6-1.6-4-3.5
		c-1.2-1.7-3-3.4-4-3.7c-1.2-0.6-2-1.6-2.7-3.6c-1.8-5.2-0.9-10.3,2.4-13.6c2.4-2.4,3.2-2.5,7-1c2.6,0.9,3,0.9,7.3-0.1
		c3.4-0.8,4.9-0.9,5.8-0.4c0.8,0.4,4,0.5,9,0.2c7.2-0.4,8-0.2,10.3,1c1.4,0.7,3.4,1.3,4.4,1.3s1.9,0.2,2.1,0.6
		c0.4,0.6,5.6-0.1,8.8-1.2c2.6-0.9,7.8-6.3,11.8-12.4c2.9-4.3,2.9-4.5,1.9-5.6c-0.6-0.7-1.8-1.2-2.6-1.2c-1.2,0-1.7,0.6-2.7,2.7
		c-1.1,2.6-3.2,4.2-5.3,4.2c-0.5,0-2.4,1.3-4.1,2.9c-2.6,2.2-3.5,2.8-4.9,2.6c-0.9-0.1-3.7-0.6-6.2-1.1c-4-0.7-4.6-0.7-5.5,0.2
		c-1,0.9-1.2,0.9-2.7-0.2c-1.6-1.2-9-2.7-10.1-2.1c-0.3,0.2-0.9,0.1-1.4-0.3c-0.6-0.5-1.4-0.5-2.5-0.1c-2.9,1.1-4.1,0.8-4.1-1
		c0-1.4-0.2-1.6-1.6-1.2c-1,0.2-2.1,0.1-2.9-0.4c-2-1.4-4.2-0.6-5.3,2c-1.7,4-5.2,6.7-5.2,3.9c0-0.6-0.2-1.3-0.4-1.6
		c-0.5-0.5-5.2,4.4-5.2,5.4c0,0.5-0.3,1.1-0.6,1.3c-1.3,0.8-2.6,4.2-1.9,4.9c1.2,1.2,0.8,2.5-0.6,2.1c-1.4-0.4-1.8,1.1-0.5,1.6
		c1.4,0.5-0.6,7.3-3.4,11.7C336.2,220.3,336,220.6,336,225.5z"/>
	<path fill="#E70011" d="M315.5,154.2c0.2,0.3,0.6,0.6,1,0.6c0.3,0,0.6-0.3,0.6-0.6c0-0.4-0.4-0.6-1-0.6
		C315.6,153.6,315.3,153.8,315.5,154.2z"/>
	<path fill="#E70011" d="M492.9,208.3c0.2-0.4,0.7-0.2,1.1,0.4c0.7,0.9,1.1,0.9,2.9,0.4c1.1-0.4,2.8-0.7,3.7-0.7
		c2.2,0,2.9-1.7,1.3-3.3c-1.6-1.7-9-2.1-11.4-0.7c-1,0.6-1.7,1.3-1.7,1.7C488.8,207.1,492.4,209,492.9,208.3z"/>
	<path fill="#E70011" d="M156.5,157.7c0-1.1-0.4-1.3-0.9-0.4c-0.2,0.3-0.1,0.7,0.3,1C156.2,158.4,156.5,158.2,156.5,157.7z"/>
	<path fill="#E70011" d="M629,236.4c-0.9-0.1-2.4-0.4-3.3-0.9c-0.8-0.5-2.4-0.7-3.4-0.6c-1.4,0.2-3.7-0.5-8.4-2.6
		c-3.5-1.6-6.9-3.3-7.5-3.7c-1.1-0.9-12.2-4.7-13.9-4.7c-0.6,0-2.8,0.9-4.9,1.9c-3.7,1.9-3.8,1.9-3.4,4c0.2,1.1,0.2,2.2-0.1,2.4
		c-0.3,0.2-2.5,0.5-4.9,0.7c-6.3,0.6-6.9,0.7-7.3,2.4c-0.2,0.8-1.5,2.7-2.9,4.2c-0.1,0.2-0.3,0.3-0.4,0.5h68.3v-1l-3-1.3
		C632.2,237,630,236.4,629,236.4z"/>
	<path fill="#E70011" d="M296.9,238.3c1.5,0.2,2.4-3.3,1-4.3c-0.5-0.4-1.2-0.9-1.6-0.9c-0.4-0.1-0.4-1.4-0.2-3.2
		c0.4-2.7,1.1-3.6,6.1-8.8c4.2-4.4,5.8-5.8,6.7-5.5c0.6,0.2,1.7,0.1,2.4-0.3c1.6-0.9,1.8-5.6,0.2-6.9c-0.8-0.6-0.9-1.5-0.6-4
		c0.9-7.5,3.7-13.2,6.1-12.4c0.7,0.2,1.5,0.1,1.7-0.4c0.4-0.6,1.1-0.6,3.3-0.1c4.2,1.1,7.5,0.9,8.7-0.4c0.6-0.6,1.1-1.4,1-1.7
		c-0.1-0.7-8.3-7.4-11.9-9.6c-3.4-2.1-4-3.2-3-5.7c0.6-1.6,0.4-2.6-1.6-7.7c-1.7-4.4-2.7-6-4-6.8c-2.7-1.6-1.5-3.1,1.6-1.9
		c2.2,0.9,1.1-1.8-1.3-3.2l-2.3-1.4l3-0.1c3.2,0,3.5-0.5,2.1-3.1c-0.7-1.3-0.7-1.6,0.1-2.2c0.8-0.6,1.2-0.6,1.9-0.1
		c0.7,0.6,0.8,0.3,0.6-1.2c-0.2-2.3-2.7-2.9-4-0.9c-0.5,0.7-1.2,1.3-1.6,1.3c-0.4,0-0.4-0.2,0.1-0.8c0.5-0.7,0.1-1.1-1.7-2.1
		c-1.9-1.1-3.7-1.4-9.3-1.6c-4.2-0.1-8,0.1-9.5,0.5c-4,1.2-5.2,2.3-6.1,5.7c-0.6,2.3-0.6,3.5-0.1,4.4c0.5,0.9,0.5,1.7-0.2,3.3
		c-0.5,1.1-1.1,2.6-1.2,3.2c-0.2,0.6-1.1,1.2-2.1,1.4c-1.4,0.2-2.1,1-2.9,3.2c-1,2.4-1.1,2.9-0.3,3.4c0.7,0.4,0.4,0.9-1.4,2.4
		c-1.7,1.4-2.4,2.6-2.7,4.2c-0.2,1.2-0.9,3.5-1.6,4.9c-1.4,2.7-2.8,3.4-8.1,3.4c-1.6,0-2.6,0.4-3.5,1.6c-1.9,2.1-4.5,2-9.1-0.3
		c-2.9-1.4-4.6-1.8-7.7-1.9c-4.5,0-6.2,0.7-7,2.9c-0.4,1-1.8,2.1-4.2,3.1c-3.2,1.4-3.9,1.5-6.2,0.9c-2.2-0.6-3.1-0.4-6.4,0.9
		c-2.1,0.9-4.2,1.6-4.8,1.6s-2.5-1.5-4.2-3.3c-1.8-1.7-4.2-4-5.5-4.9c-1.2-0.9-2.9-3-3.6-4.5c-0.7-1.6-1.7-2.8-2.2-2.8
		s-1.5,1.2-2.4,2.6c-0.9,1.5-2.1,3.1-2.8,3.7c-0.8,0.7-1.4,2.2-1.7,4.4c-0.2,1.9-0.7,3.7-1.1,4.1c-0.4,0.5-0.5,2.4-0.2,4.8
		c0.3,3.2,0.6,4,1.6,4.3c0.7,0.2,1.7,1.3,2.2,2.6c1,2.1,1,2.3,0.1,3.4c-1.6,1.7-1.3,4.2,0.6,5.7c1.2,0.9,1.5,1.4,0.9,1.8
		c-0.6,0.3-0.5,0.7,0.2,1.8c0.7,1,1.3,1.3,2.5,1c1.6-0.4,2.2,0.8,0.6,1.4c-0.6,0.2-0.9,1.2-0.9,2.6v2.2l2.7-1.6l2.7-1.6l1.6,1.9
		c1.9,2.2,1.9,2.8,0.6,6.2c-0.9,2.3-0.9,2.6-0.1,3.3c1.2,0.9,2.9,6.9,2.9,10.3h85.9C295.9,238.6,296.2,238.2,296.9,238.3z"/>
	<path fill="#E70011" d="M148.7,163.2c0.6-0.8,0.7-1.4,0.2-1.9c-1.1-1.3-1.9-0.9-1.5,0.6c0.2,0.8,0.4,1.7,0.4,2
		C147.8,164.2,148.2,163.9,148.7,163.2z"/>
	<path fill="#E70011" d="M192,161.7c-0.4-0.7-0.6-0.6-1.2,0.5c-0.6,1.1-0.6,1.3,0.2,1.3C192.2,163.5,192.6,162.7,192,161.7z"/>
	<path fill="#FFFFFF" d="M429.2,314.1c2.3,0,4.4-0.6,7.5-2l4.3-2l-1.4-1.1c-1.7-1.4-2.7-1.4-5.6-0.1c-1.2,0.5-2.9,0.8-3.9,0.6
		c-1.4-0.2-1.9,0-3,1.4C425.3,313.7,425.6,314.1,429.2,314.1z"/>
	<path fill="#FFFFFF" d="M390.8,258.8c-0.6-1-3.4-0.7-3.8,0.3c-0.5,1.2,0.8,2.8,2.3,2.8C390.5,261.9,391.5,259.8,390.8,258.8z"/>
	<path fill="#FFFFFF" d="M390,352.4c1.8-0.9,3.3-1.7,3.4-1.7c0.1-0.1-0.1-0.8-0.3-1.7l-0.4-1.6l-3.7,2.4
		C382.9,353.6,383.8,355.5,390,352.4z"/>
	<path fill="#FFFFFF" d="M396.1,276.3c-0.4-0.6-0.6-0.6-1.2,0.1c-0.6,0.6-0.6,1-0.1,1.3C395.8,278.4,396.8,277.3,396.1,276.3z"/>
	<path fill="#FFFFFF" d="M405.2,319c1.4-2.6,0.4-3.2-2.4-1.3c-2.7,1.8-2.9,2.4-1.1,3.3C403.2,321.8,403.9,321.4,405.2,319z"/>
	<path fill="#FFFFFF" d="M449.2,308.8c1.1-0.4,0.7-1.5-0.6-1.5c-0.5,0-0.9,0.4-0.9,0.9C447.7,309.3,447.9,309.3,449.2,308.8z"/>
	<path fill="#FFFFFF" d="M417.2,317.2c0-1.2-0.6-1.4-6.7-1.4c-2.5-0.1-2.7,0.1-3.5,2.4l-0.9,2.4l2.9-0.4
		C415,319.2,417.2,318.4,417.2,317.2z"/>
	<path fill="#FFFFFF" d="M341.4,323.2c-0.3-0.2-0.7,0.1-0.9,0.6c-0.2,0.6,0,0.9,0.6,0.9C342,324.7,342.2,323.7,341.4,323.2z"/>
	<path fill="#FFFFFF" d="M351.6,284c-0.6,1.6,0.2,7.8,0.9,7.4c0.7-0.4,0.7-5.7,0-7.3C352.1,282.8,352.1,282.8,351.6,284z"/>
	<path fill="#FFFFFF" d="M354.4,301c0,0.9,1.1,1.4,1.9,0.9c0.5-0.2,0.4-0.6-0.1-0.9C355.1,300.3,354.4,300.3,354.4,301z"/>
	<path fill="#FFFFFF" d="M457.4,317.7c0.5-0.2,0.9-1,0.9-1.7c0-1-0.4-1.2-2.2-1.2c-1.2,0-2.2,0.2-2.2,0.5
		C454,316.3,456.4,318,457.4,317.7z"/>
	<path fill="#FFFFFF" d="M385.2,268.1c-0.4,2-0.5,2.1-1,0.7c-0.6-1.6-1.1-1.7-3.9-0.5c-1.9,0.7-2.1,1.2-2.4,3.9
		c-0.2,1.7-0.4,3.6-0.6,4.3c-0.2,1.1,0.2,1.2,2,1.2c2,0,2.2,0.2,2.2,1.7c0.1,3,3,4,4,1.4c0.3-0.9,1.6-2.2,2.8-2.9l2.2-1.3l-1.7-1.7
		c-1.5-1.6-1.6-2.1-1.1-3.5c0.4-1.2,1-1.6,1.9-1.6c1.2,0.1,1.3,0,0.7-1.9c-0.8-2.4-1.7-3.5-2.7-3.5c-0.4,0-1.1,0.4-1.4,0.7
		C385.9,265.5,385.4,266.9,385.2,268.1z"/>
	<path fill="#FFFFFF" d="M374.5,277.3c0.7-2.4-1.7-5-3.2-3.4c-1,1-0.8,2.6,0.4,3.7C373.2,279,374.1,278.9,374.5,277.3z"/>
	<path fill="#FFFFFF" d="M361.5,302.9c-0.2-0.4-0.9-0.6-1.6-0.6c-0.6,0-1.2,0.2-1.2,0.6c0,0.3,0.7,0.6,1.6,0.6
		S361.8,303.3,361.5,302.9z"/>
	<path fill="#FFFFFF" d="M528.5,277.4c-0.2-0.6-0.9,0.1-1.9,1.6c-1.7,2.6-2.9,6.5-1.9,6.5C525.5,285.5,528.8,278.4,528.5,277.4z"/>
	<path fill="#FFFFFF" d="M533.9,262.5c0.4,0,0.2-0.3-0.3-0.6c-0.5-0.3-1.2-0.6-1.6-0.6c-0.3,0-0.2,0.3,0.3,0.6
		C532.9,262.2,533.6,262.5,533.9,262.5z"/>
	<path fill="#FFFFFF" d="M548.8,296.6c0.5,0.5,2.7-2.3,2.8-3.5c0-1-0.1-0.9-1.8,1.2C549,295.3,548.6,296.3,548.8,296.6z"/>
	<path fill="#FFFFFF" d="M522.7,282.2c-0.7-1.7-1.5-1.1-1.5,1.2c0,1.5,0.3,2.2,0.9,2.2C523,285.5,523.3,283.9,522.7,282.2z"/>
	<path fill="#FFFFFF" d="M542.6,286.7c-1.1-0.9-1.3-0.3-1.8,6.1c-0.3,4.5-0.2,5.1,0.7,5.7c1.6,0.9,4.2-0.8,5.6-3.6
		c0.6-1.2,1.1-2.5,1.1-2.8c0-0.4,0.7-1.2,1.5-1.9c1.3-1.1,1.4-1.4,0.6-2.6c-0.6-1-0.6-1.6-0.1-2.2c1-1.2-0.9-7.3-2.3-7.3
		c-0.6,0-1.9,1.1-3,2.5c-1.1,1.4-1.7,2.6-1.4,2.8c0.7,0.4,0.9,3,0.2,3.6C543.6,287.2,543,287.1,542.6,286.7z"/>
	<path fill="#FFFFFF" d="M283.3,323.3c-0.8,0.7-0.4,1.4,0.8,1.4c0.8,0,1.1-0.3,0.9-0.9C284.5,322.8,283.9,322.6,283.3,323.3z"/>
	<path fill="#FFFFFF" d="M461.1,253.2c0.2-0.4,0.2-1-0.2-1.4c-0.4-0.4-0.7-0.4-1.1,0.1c-0.2,0.4-0.2,1,0.2,1.4
		C460.4,253.7,460.8,253.7,461.1,253.2z"/>
	<path fill="#FFFFFF" d="M98.2,277.8c0.2,0.6,0.4,1.1,0.4,1.2c0,0.6,3,0.2,3.5-0.4c0.5-0.9-0.9-1.8-2.8-1.8
		C98.2,276.8,97.9,277.1,98.2,277.8z"/>
	<path fill="#FFFFFF" d="M284.7,316.7c-1.7-1.7-5.2-2.2-8.2-1.3c-3.5,1.2-7.1,0.1-7.6-2.4c-0.2-1.3-1.1-2.1-3.3-3.2
		c-2.8-1.4-3.2-1.4-6.4-0.7c-7,1.6-7.6,1.5-11.9-0.7c-2.2-1.2-4-2.4-4.2-2.7c-0.1-0.4,0.4-1.2,1.1-2c1.1-1.2,1.7-1.3,4.2-0.9
		c5.3,0.8,8.3,0.5,12.2-1.3c5.4-2.5,4.1-3.2-5.9-3.3c-6.4-0.1-8.2,0.1-8.5,0.7c-0.4,1.1-1.7,1.1-2.6,0c-0.4-0.5-2.4-1.1-4.3-1.2
		c-7.3-0.7-9.6-1.1-9.9-2c-0.4-1.1-1.7-1.1-3.2-0.1c-1.1,0.6-1.6,0.4-3.7-1.6c-1.4-1.2-2.8-2.3-3.1-2.3c-0.2,0-1.6,1.6-2.8,3.4
		c-1.3,2.1-2.9,3.5-3.7,3.8c-0.8,0.2-3.8-0.1-6.6-0.7c-3-0.6-6-0.9-7.5-0.6s-2.9,0.1-3.7-0.3c-0.9-0.4-1.6-0.5-2.1-0.1
		c-0.5,0.4-1.5,0.4-2.9-0.1c-1.7-0.5-2.2-1.1-2.4-2.4c-0.1-1-1.1-2.5-2.4-3.5c-1.8-1.6-2.3-1.8-3.4-1.2c-0.9,0.6-1.6,0.6-3.4-0.3
		c-1.2-0.6-2.7-1.1-3.3-1.1c-0.6,0-1.6-0.4-2.3-0.9c-1.8-1.2-7.6-1.6-8.5-0.6c-0.9,1.1-2.1,1.1-3,0c-0.4-0.4-2.2-1-4-1.2
		c-1.7-0.2-3.8-0.6-4.5-0.7c-1.1-0.4-1.7,0.4-4.2,6c-3.2,7.1-3.2,8.2,0.5,6.8c1.9-0.7,2.4-0.6,4,0.5c1,0.7,2.6,1.3,3.4,1.3
		c1.2,0,1.6,0.3,1.6,1.2c0,0.7-0.2,1.4-0.6,1.6c-0.3,0.2-0.6,0.9-0.6,1.5c0,0.9,0.7,1.2,4.9,1.6c5.9,0.5,10.1,1.6,16.8,4.2l5.2,2.1
		l2.9-1.1c3-1.2,10.3-1.4,11.6-0.4c0.3,0.3,2.2,0.7,4.2,0.9c1.9,0.2,5.4,1.2,7.8,2.3c4.4,2,10.5,4.3,11.5,4.3c0.3,0,0.4-0.3,0.2-0.6
		c-0.5-0.8-0.7-0.8,3.7,0.6c2.7,0.9,4.2,1,5.3,0.6c1.1-0.4,3.4-0.2,7.6,0.5c5.2,0.9,6.6,0.9,9.5,0.2c3.1-0.7,3.6-0.7,9,1.2
		c3.2,1.1,6.6,1.9,7.6,1.9s1.8,0.2,1.8,0.6c0,0.9,2.4,2,3.5,1.6c0.7-0.3,0.6-0.8-1-2.6c-2.1-2.4-2.4-4.1-1-5.3
		c0.7-0.6,0.9-0.6,0.9,0.2c0,1.2,2.2,2.7,5.1,3.2c2.9,0.6,4.5,2.2,4,4.4c-0.5,2,0.4,2.1,1.4,0.1c0.4-0.8,1.9-2.1,3.4-2.9
		C286,319.8,286.6,318.5,284.7,316.7z"/>
	<path fill="#FFFFFF" d="M282.8,299.1c1.4,0,1.4-0.1,0.3-0.6c-0.7-0.3-1.8-0.6-2.5-0.6c-1.1-0.1-1.1,0.1-0.3,0.6
		C280.8,298.9,281.9,299.1,282.8,299.1z"/>
	<path fill="#FFFFFF" d="M267.9,302.9c0.3,0,0.6-0.4,0.6-0.9c0-0.6-0.6-0.9-1.3-0.9c-1.1,0-1.2,0.1-0.6,0.9
		C267.1,302.5,267.6,302.9,267.9,302.9z"/>
	<path fill="#FFFFFF" d="M338.2,323.3c0-0.5,0.4-1.1,1-1.3c1.2-0.5,0.6-1.6-1.1-1.6c-0.9,0-1.2,0.4-1.2,1.5c0,0.9,0.3,1.7,0.6,1.9
		C338,324,338.2,323.8,338.2,323.3z"/>
	<path fill="#FFFFFF" d="M464.2,301.8c-0.2,0.4,0,0.9,0.4,1.2c1.4,0.9,1.8,0.7,1.8-0.7C466.4,301,464.9,300.6,464.2,301.8z"/>
	<path fill="#FFFFFF" d="M496.3,317.3c-1.7,2.4-0.9,2.4,1.9,0c2-1.6,2.1-1.8,0.8-1.9C498.1,315.4,497.1,316.1,496.3,317.3z"/>
	<path fill="#FFFFFF" d="M478.6,311.5c-0.2,0.3,0.4,1.2,1.2,2.1c1.6,1.5,1.6,1.5,2.5,0.2c0.5-0.6,0.8-1.5,0.7-1.9
		C482.8,311.2,479.1,310.8,478.6,311.5z"/>
	<path fill="#FFFFFF" d="M469.1,316.9c0.6,0.5,1.5,0.7,1.8,0.5c0.4-0.2,0.1-0.6-0.6-0.9C468.4,315.8,467.9,316,469.1,316.9z"/>
	<path fill="#FFFFFF" d="M500.5,306.2c0.1-0.4-0.2-0.7-0.7-0.7s-1,0.4-1,1C498.8,307.5,500.1,307.3,500.5,306.2z"/>
	<path fill="#FFFFFF" d="M75.6,247.4c0-1.9-0.6-2.9-3.5-6c-0.5-0.5-0.9-1-1.3-1.4h-2.9c0.5,1.3,1.4,2.5,2,2.5
		c0.6-0.1,1.1,0.5,1.4,1.7c0.3,1.1,1.4,2.7,2.4,3.7l1.9,1.8V247.4z"/>
	<path fill="#FFFFFF" d="M509.6,301.7c-0.2,0.3,0.2,0.9,0.9,1.2c1.6,0.9,1.9,0.9,1.6-0.2C511.6,301.6,510.1,300.9,509.6,301.7z"/>
	<path fill="#FFFFFF" d="M501.4,314.3c0.7,0.2,1.4,0.3,1.5,0.2c3.4-4.7,4.6-7.1,4.6-8.8c0-1.1,0.3-2.3,0.6-2.6
		c0.5-0.5,0.4-0.9-0.2-1.4c-0.7-0.6-1.2-0.5-2.4,0.4c-0.9,0.7-2.5,2.7-3.7,4.4c-1.2,1.7-2.5,3-2.9,2.9c-0.4-0.1-0.8,0-0.8,0.3
		c0,0.4,0.4,0.6,0.9,0.6c0.6,0,0.9,0.6,0.9,1.8C500,313.5,500.4,314.1,501.4,314.3z"/>
	<path fill="#FFFFFF" d="M333.5,316c-0.5-0.5-0.9-0.4-1.4,0.2c-0.6,0.6-0.6,1-0.1,1.3C333,318.2,334.3,316.8,333.5,316z"/>
	<path fill="#FFFFFF" d="M290.4,324c-0.7,0.4-1.4,0.4-1.7,0.2c-0.3-0.2-0.3-0.1-0.1,0.3c0.2,0.4,1.6,1.2,3.2,1.7
		c3.1,1.2,5.9,0.9,5.9-0.7c0-0.6,0.7-2.2,1.5-3.6c1.7-2.9,1.5-3.7-1.1-4.6c-2.6-1-3.8-0.9-5.7,0.6c-1.4,1.1-1.6,1.7-1.2,3.4
		C291.5,323,291.3,323.5,290.4,324z"/>
	<path fill="#FFFFFF" d="M306.2,328.8c0.7-0.5,2.5-0.9,4-0.9c2.9,0,10.8-2.2,11.5-3.2c0.6-0.9,1.6-0.7,1.6,0.3
		c0,1.7,6.4,1.2,9.4-0.6c1.4-0.9,2.3-1.9,2.1-2.2c-0.2-0.5-0.6-0.4-0.9,0.1c-0.7,1.2-1.7,0.1-1.9-2.2c-0.2-1.7-0.4-1.9-2.4-1.9
		c-1.2,0-2.7-0.2-3.3-0.6c-0.7-0.2-1.7-0.1-2.7,0.4c-1.4,0.8-1.7,0.7-3.2-1.2c-1.7-2.1-2.4-2.2-6.3-1.4c-3.3,0.7-3.9,1.1-3,2.7
		c0.6,1,0.5,1.4-0.1,1.8c-1.2,0.7-1.9,0.7-3.1-0.4c-1-0.9-1.3-0.9-3.6,0.4c-1.4,0.7-2.7,1.9-2.8,2.4c-1.1,4-1,4.5,0.5,6
		C303.5,329.9,304.4,330.1,306.2,328.8z"/>
	<path fill="#FFFFFF" d="M370.6,348.1c-0.7,0.9-0.7,1.1,0,1.6c1.1,0.7,3.3-0.4,2.9-1.4C373.1,347,371.5,346.9,370.6,348.1z"/>
	<path fill="#FFFFFF" d="M339.3,339c3.4,0.9,5.1,1.9,7,3.7c1.4,1.4,3.4,2.6,4.4,2.9c2.2,0.4,5.3-0.9,6.3-2.9
		c0.9-1.7-0.4-3.1-6.5-7.3c-4.4-3-4.5-3-9.8-3.1c-4-0.1-5.8,0.2-7.4,1.1c-1.2,0.6-2.2,1.4-2.4,1.8C330.6,336,333.4,337.4,339.3,339z
		"/>
	<path fill="#FFFFFF" d="M388,321c2.4-1.2,2.4-1.2,3.2,0c0.6,1,1.2,1.1,2.9,0.8c1.1-0.2,2-0.7,2-1.2s0.6-0.9,1.2-1.1
		c0.6-0.1,1.5-0.9,1.9-1.6c0.7-1.2,0.6-1.2-4.5-1.1c-2.9,0.1-5.5,0.4-5.9,0.6c-0.4,0.2-1-0.2-1.4-0.9c-0.7-1.3-2.2-1.7-2.8-0.6
		c-0.2,0.3-0.1,0.6,0.2,0.6c1.2,0,0.7,1.1-0.8,1.7c-0.8,0.4-2.5,1.6-3.7,2.6l-2.2,2l-2.8-1.1c-2.1-0.8-3.7-1-6.3-0.7
		c-3.2,0.4-4,0.2-9.2-2.1l-5.7-2.5l-3.5,0.9c-4.5,1.2-5.7,1.8-7,3.8c-0.8,1.2-0.9,1.9-0.4,3c0.6,1.4,0.8,1.4,7.1,1.1
		c5.2-0.2,6.9-0.1,8.5,0.7c1.8,0.9,2.1,0.9,4.5,0c1.8-0.7,3.4-0.9,5.7-0.6c1.9,0.2,3.5,0.2,3.9-0.2c0.4-0.4,3.5-1.2,6.8-1.9
		C382.9,322.9,386.7,321.7,388,321z"/>
	<path fill="#FFFFFF" d="M445.2,256.3c-0.3,0-0.4,0.2-0.2,0.6c0.2,0.3,0.5,0.6,0.7,0.6c0.1,0,0.2-0.3,0.2-0.6
		C445.9,256.5,445.5,256.3,445.2,256.3z"/>
	<path fill="#FFFFFF" d="M418.7,328.7c1.3-0.5,1.2-1.9-0.1-2.3c-0.6-0.1-1.6-0.4-2.1-0.7c-0.5-0.2-1.7,0.3-2.7,1.1
		c-0.9,0.8-4.4,2.4-7.7,3.5c-6.2,2.1-10.1,5-10.1,7.5c0,0.7-1,2.3-2.2,3.7c-1.2,1.3-2.2,3-2.2,3.8c0,1.4,0.1,1.4,1.1,0.4
		c1.4-1.2,4-1.4,5.7-0.3c0.9,0.6,1.8,0.6,3.9-0.1c3.9-1.1,7.1-3.4,11.9-8.3c3.7-3.9,4.2-4.6,3.9-6.2
		C417.9,329.6,418,329,418.7,328.7z"/>
	<path fill="#FFFFFF" d="M329.4,242.7c0.7,0.9,0.7,1.2-0.1,2.4c-1,1.4-0.9,4,0.3,6.3c0.8,1.6,3.4,2.4,4.9,1.6
		c1.6-1.1,3.4,0.6,4.6,4.4c1.3,3.8,1.2,5.2-0.6,12.7c-2.1,8.6-2.1,9.5,0.6,11c2.4,1.5,3.7,1.6,4.7,0.4c0.9-1.1,6.3-1.7,7.4-0.9
		s0.9-0.6-0.2-2.6c-1.2-2.2-1.1-5.2,0.2-8c1.1-2.1,1.1-2.6,0.3-4.1c-1.1-2.2-1.1-8,0-9.8c0.9-1.4,0.6-3.4-1.7-10.7
		c-0.3-1,0.2-1.6,2.7-3.3c3.2-2.1,4.9-2.4,6.9-1.4c1.9,1,1.6,5.8-0.4,8.2c-0.9,1-1.6,2.1-1.6,2.4c0,0.7,7,6.6,9.4,7.8
		c1.7,0.9,1.7,1.1,0.9,2.4c-0.5,0.8-1.1,2.7-1.3,4.2c-0.3,2.6-0.2,2.8,1.6,3.8c2.3,1.3,8.2,1.6,7,0.4c-2.4-2.4,1.3-5.2,6.2-4.6
		c2.7,0.4,3,0.2,4.2-1.2c1.7-2.2,1.7-3.2-0.2-4c-0.8-0.4-2.5-1.9-3.7-3.4c-1.2-1.5-2.7-2.7-3.2-2.7c-1.2,0-1.6-0.9-1-2.6
		c0.4-0.7,0.6-1.2,0.7-0.8c0,0.3,0.4-0.3,0.9-1.4c0.8-1.9,0.8-2.2,0-3c-0.5-0.5-0.9-1.4-0.9-1.9c0-0.6-0.7-1.4-1.7-1.9
		c-0.6-0.3-1.4-1.1-2.4-2.1h-45C328.5,240.7,328.6,241.8,329.4,242.7z"/>
	<path fill="#FFFFFF" d="M155.9,245.9l2.9,1.6l1.4-3.5c0.7-1.6,1.4-3.2,1.8-4h-11.1C151,242.3,152.3,243.9,155.9,245.9z"/>
	<path fill="#FFFFFF" d="M210.6,243.9c0.6,1.1,0.7,1.1,2.2,0.2c1.4-0.9,1.7-0.9,4.5,0.7l3,1.7l5.4-1.7c3-0.9,5.6-1.6,5.8-1.4
		c0.2,0.1,0.4,2.1,0.6,4.2c0.5,5.4,1.1,5.9,3.7,3.5c1.5-1.2,2.6-1.7,3.2-1.4c3.6,1.6,8.9-0.2,10.1-3.3l0.6-1.7l1.6,1.7
		c1.3,1.4,1.9,1.7,3.7,1.3c2-0.4,2.1-0.3,2.1,1.5c0,2.3,1.3,2.8,5.9,2.2c5.1-0.7,6.4-0.1,6.8,2.7c0.2,1.2,0.6,3.4,1,4.6l0.6,2.4
		l2.9-1.5c1.6-0.8,5.2-2.4,7.9-3.4c2.7-1.1,5.6-2.4,6.3-2.9c1.3-0.9,1.4-0.8,2.1,2.6l0.7,3.5l1.3-1.2c2.1-1.7,2.4-2.2,2.1-3.7
		c-0.1-0.7,0.1-1.5,0.6-1.7c1.2-0.4,1.1-2.2-0.1-2.2c-0.6,0-0.9-0.6-0.9-1.5c0-0.8-0.3-1.6-0.7-1.7c-0.4-0.1-0.2-1,0.6-2.4
		c0.7-1.2,1.3-3.2,1.3-4.5c0-0.2,0-0.4,0-0.5H210c0,0,0,0.1,0,0.1C210,241.5,210.3,243.2,210.6,243.9z"/>
	<path fill="#FFFFFF" d="M84.7,240.6c1.2,0.6,3,2.6,4.5,4.9c1.5,2.3,3.5,4.5,5.2,5.5c4,2.6,5.5,4,5.5,5.5c0,1.3,6.8,7.5,10.8,9.9
		c1.1,0.7,2.8,2,3.8,2.9c1.1,1,3,2.2,4.5,2.8c1.7,0.7,3,1.7,3.5,2.9c1.3,2.5,9.3,10.5,10.5,10.5c1.2,0,1.2-0.1-0.1-2.8
		c-0.6-1.2-0.9-2.3-0.7-2.6c0.6-0.6,2.6,0.2,5.1,1.9c2.2,1.5,2.2,1.5,2.9,0.3c0.9-1.7,2.1-1.6,5,0.4c1.4,0.9,2.7,1.4,3,1.1
		s1-3.7,1.6-7.7c1-6.1,1-7.7,0.4-11c-0.6-3-0.6-4.4-0.1-6.2c0.6-1.8,0.6-2.6,0-3.7c-0.7-1.2-0.6-2,0.6-4.8l1.4-3.3l-1.9-3.4
		c-0.8-1.6-1.5-2.8-2-3.8H83.8C84.1,240.2,84.4,240.4,84.7,240.6z"/>
	<path fill="#FFFFFF" d="M450.2,248.2c-0.3,0-0.7,0.2-0.9,0.6c-0.2,0.3,0.2,0.6,0.9,0.6c0.7,0,1.1-0.3,0.9-0.6
		C451,248.4,450.5,248.2,450.2,248.2z"/>
	<path fill="#FFFFFF" d="M457.1,243.8c0-0.4-0.2-0.6-0.6-0.6c-0.4,0-0.8,0.2-1,0.6c-0.2,0.3,0.1,0.6,0.6,0.6
		C456.6,244.4,457.1,244.1,457.1,243.8z"/>
	<path fill="#FFFFFF" d="M566.6,242.9c0,0.4-1.5,2-3.4,3.6c-2.9,2.5-3.8,2.9-6,2.9c-3.1,0-5.9-2.4-5.3-4.4c0.3-0.9,0.1-1.2-0.9-1.2
		s-1.3-0.6-1.7-2.8c-0.1-0.4-0.1-0.7-0.2-1h-2.8c-0.1,0-0.2,0-0.2,0h-21.5c-2.8,2.3-3,2.2-5.1,1.1c-2.7-1.3-3.6-1.3-6-0.1
		c-1.6,0.7-1.7,1.1-1.1,1.9c0.4,0.5,1.3,0.9,2.1,0.9c1.9,0,5.1,2.2,6.1,4.2c0.5,1,1.3,1.7,1.8,1.6c0.6-0.1,1.3,0.6,1.7,1.4
		c0.6,1.3,0.5,1.6-0.7,2.4c-1.2,0.7-1.2,1.1-0.5,1.9c0.4,0.6,0.7,1.4,0.5,1.8c-0.1,0.4,0.2,1.4,0.9,2.2c1.2,1.2,1.4,1.3,3.9,0.4
		c3.2-1.1,3.9-1.7,4.2-4.2c0.3-3.1,1.7-3.3,5.2-0.7c4.3,3.3,6.6,4.4,7.2,3.5c0.6-0.9,2.6,0,4.2,2.1c2.4,3,5.6,4.4,11.8,4.9
		c4.4,0.4,6.2,0.8,7.5,1.8c0.9,0.7,2.3,1.2,3.1,1.2c0.9,0,3.5,1.1,5.8,2.3c3.5,1.9,4.4,2.2,4.9,1.5c0.5-0.7,1.4-0.4,5,1.8
		c6.8,4.1,9.3,6.1,9.3,7.4c0,0.7,0.4,1.3,1,1.4s1.5,1.9,2.4,4.4c0.7,2.3,2.2,5,3.1,6c1.7,1.7,1.7,1.9,1,4.2
		c-0.8,2.3-0.7,2.4,1.3,4.1c1.6,1.4,1.8,1.7,0.9,1.7c-1.2,0-1.2,0.1,0,1.3c1.1,1.2,1.1,1.2-0.6,0.9c-4.8-1.2-9.8,2.4-13.5,9.7
		c-2.2,4.4-2.1,5.8,0.3,4.9c0.8-0.3,3-0.6,4.8-0.6c1.8,0,4.3-0.1,5.5-0.2c1.2-0.1,2.9,0.1,3.9,0.4c1.3,0.4,1.7,0.2,2-0.7
		c0.6-1.9,3.4-3.5,4.4-2.6c0.6,0.5,2.1,0.6,4.2,0.3c4.5-0.6,6,0.3,13.9,8l6.4,6.2v-15.7c0-15.4-0.1-15.8-1.4-17.2
		c-1.3-1.4-1.3-1.5-0.3-3.6c0.9-2,1.1-5.2,1.1-28.6V240h-68.3C567.5,241.3,566.6,242.6,566.6,242.9z"/>
	<path fill="#FFFFFF" d="M444.2,248.9c0.2-0.3-0.5-1.3-1.6-2.2c-2-1.7-3.7-1.9-8.5-1c-3.2,0.7-5.2,1.7-5.2,2.7
		c0,1.3,3.2,5.2,5.9,6.8c3,2,4.5,2.1,8.4,0.1c2.9-1.4,3.1-1.7,3.1-3.7c0-1.8-0.2-2.2-1.3-2.2C444.5,249.4,444.1,249.2,444.2,248.9z"
		/>
	<path fill="#FFFFFF" d="M454,247.6c0-0.4-0.2-0.6-0.6-0.6c-0.4,0-0.8,0.2-1,0.6c-0.2,0.3,0.1,0.6,0.6,0.6
		C453.5,248.2,454,247.9,454,247.6z"/>
	<path fill="#FFFFFF" d="M174,247.1c0.7,1,1.1,1.1,2.6,0.4c1.3-0.6,1.9-0.6,2.6,0c0.7,0.6,1.2,0.3,2.8-1.9c1.1-1.4,1.9-2.9,1.9-3.1
		c0-0.3-1.2-1.4-2.6-2.4c0,0-0.1-0.1-0.1-0.1H174C173.3,242.5,173.3,246.2,174,247.1z"/>
	<path fill="#FFFFFF" d="M488.1,244.4c-1.2,0-2.9-0.2-3.8-0.6c-0.8-0.3-2.9-1-4.6-1.5c-2.9-0.9-3.3-0.9-5,0.2c-1.6,1-2,1.1-2.6,0.3
		c-0.5-0.6-2.1-0.7-6.5-0.5c-5.7,0.4-6,0.4-8.3,2.6c-2.3,2.2-2.4,2.4-1.7,4.4l0.7,2.2l1.2-2.3l1.2-2.3l2.5,2.2
		c1.6,1.4,2.2,2.3,1.7,2.5s-0.8,0.7-0.8,1.2c0,0.9,2.1,1.1,4,0.2c1.2-0.4,1.2-0.5,0.1-0.9c-1.1-0.4-1.1-0.6,0.2-1.9
		c1.4-1.5,3-1.9,3.9-1.1c0.2,0.3,1.6,0.8,3,1.2c2.1,0.5,3.1,0.5,4.9-0.2c2.2-0.9,2.4-0.8,9.9,2.9c4.2,2.1,7.7,3.7,7.8,3.6
		c0.1-0.1,0.4-1.1,0.6-2.2c0.4-1.7,0.2-2.3-1.4-4c-1.1-1.1-1.9-2.3-1.9-2.7C493.2,246.4,490.3,244.4,488.1,244.4z"/>
</g>
</svg>
