<?xml version="1.0" encoding="utf-8"?>
<!-- Generator: Adobe Illustrator 17.1.0, SVG Export Plug-In . SVG Version: 6.00 Build 0)  -->
<!DOCTYPE svg PUBLIC "-//W3C//DTD SVG 1.1//EN" "http://www.w3.org/Graphics/SVG/1.1/DTD/svg11.dtd">
<svg version="1.1" id="flag-icon-css-ie" xmlns="http://www.w3.org/2000/svg" xmlns:xlink="http://www.w3.org/1999/xlink" x="0px"
	 y="0px" viewBox="0 0 640 480" enable-background="new 0 0 640 480" xml:space="preserve">
<g>
	<path fill="#FFFFFF" d="M217.4,279c-1.3,0.5-1.4,0.4-1.9-0.6c-0.4-0.9-0.8-1.1-2.2-1v1.3c0.4,0.2,0.9,0.4,1.5,0.7
		c2,0.8,4.7,2.2,6.1,3c3.2,1.8,3.6,1.8,1.9,0c-1.1-1.1-1.2-1.5-0.7-2.1C222.9,279.3,219.3,278.3,217.4,279z"/>
	<path fill="#FFFFFF" d="M425.9,139.2l-1.5-1.2l0.8-1.4c0.7-1.3,0.7-1.5,0.1-3.2c-0.4-1-1.3-2.3-1.8-2.9c-0.6-0.7-1.5-2-2.1-3
		c-1-2.1-2.3-3.4-4.8-4.9c-2.6-1.5-3.4-1.3-5.6,1.7c-2.7,3.6-5.1,6.2-6.7,7c-0.7,0.4-1.2,0.9-1,1.2c0.1,0.3-0.1,1.1-0.7,1.8l-1,1.3
		l1.6,1.7c2,2.2,3.3,4.6,2.6,4.8c-0.7,0.2-0.7,1.4,0,1.6c0.4,0.1,0.4,0.4,0,1.2c-0.7,1.3-2.2,1.8-3.1,1.1c-1-0.8-3.4,0.3-4.3,2
		c-0.4,0.7-0.7,2.4-0.7,3.6c0,2.9-1.5,5.7-3.4,6.3c-0.8,0.2-1.9,0.7-2.5,0.9c-0.9,0.4-1.2,0.4-1.8-0.6c-0.4-0.6-1-1-1.5-1
		c-0.4,0-1.5-0.2-2.3-0.5c-1.2-0.4-1.4-0.7-1.3-1.4c0.4-1.6-1.4-1-2.7,1c-1.2,1.9-2.3,2.3-2.9,1.4c-0.2-0.3-1-0.4-2.1-0.2
		c-1.1,0.2-2,0-2.6-0.4c-0.5-0.4-1.4-0.7-1.9-0.7c-1.1,0-2.9-2-2.9-3.3c0-1-0.8-1.7-2.5-2.1c-0.8-0.2-1.4-0.7-1.5-1.4
		c-0.2-0.9-0.7-1.2-3.6-1.6c-2.9-0.5-3.5-0.5-4.8,0.2c-3,1.6-4.8-0.8-5.3-7.2L352,137l-2.4-0.7c-2.8-0.8-4.1-2-5.4-5.1
		c-0.7-1.7-1.2-2.2-2.1-2.2c-0.7,0-2-1-4.1-3.4c-4.2-4.7-6.5-7.9-6.2-8.5c0.1-0.3-0.4-0.8-1-1.2c-1.4-0.7-1.4-0.7,3.2-2.1
		c3.9-1.1,5.6-2.5,7.3-5.9c1.8-3.5,2.9-4.3,4.7-3.2c1.7,1,6.1,1.8,7.3,1.3c1.2-0.5,2.8-2.2,3.7-4c0.7-1.5,2.3-2.8,5.2-4.3
		c2.9-1.5,3.1-1.7,2.8-2.6c-0.2-0.7-0.4-0.7-1.4,0.1c-1.5,1.2-1.8,1.2-4.4-0.5c-1.7-1.1-2.4-1.4-2.9-0.9c-0.9,0.9-2.2,0.6-2.9-0.8
		c-0.4-0.7-1.1-1.4-1.6-1.6c-1.2-0.3-2.2-2.1-2.5-4.3c-0.2-1.8-0.1-2,1-2.2c0.7-0.1,1.8-1,2.6-2.1c0.7-1,1.7-2,2.1-2.2
		s1.8,0.5,3.1,1.4c1.3,0.9,2.7,1.6,2.9,1.6c0.3,0,1.6-0.6,2.8-1.4c1.3-0.7,3.4-1.8,4.8-2.4c2.2-0.8,2.9-0.9,5.1-0.5
		c1.4,0.2,2.7,0.4,2.8,0.3c0.1-0.1,0-0.7-0.3-1.4c-1.1-2.9-0.7-4,3-7.8c4-4.1,4.4-5.4,3.6-9.8c-0.7-3.5-0.4-4.7,1.6-6
		c1.6-1,1.6-1.1,1.6-4.3c0-3.6,0.7-5.4,2.9-7.8c1.1-1.2,1.8-1.5,3.2-1.5c1,0,1.9-0.2,2.1-0.5c0.2-0.4,0.5-0.3,1,0
		c0.5,0.4,0.7,0.3,0.7-0.4c0-0.6,0.4-1.2,0.9-1.5c0.6-0.3,1.9-2.1,3.1-3.9c1.2-1.9,2.7-4,3.4-4.7c1.4-1.5,9.3-6.8,10.1-6.8
		c0.3,0,1.1-0.4,1.7-0.8c0.6-0.5,2-1.2,3.1-1.7c2.3-1,3.4-2.3,3-3.5c-0.5-1.3-1.6-1.9-3.6-1.9c-1.1,0-2.4-0.4-3.3-1
		c-0.8-0.6-1.8-1-2.1-0.9c-0.3,0.1-1.9-0.5-3.4-1.4c-2.8-1.5-5.1-3.9-5.8-5.9c-0.4-1.4-6.9-4.7-10.3-5.2c-1.3-0.2-2.9-0.6-3.4-0.7
		c-0.6-0.1-1.1-0.2-1.1,0s1.1,0.6,2.3,1c2.2,0.7,3.1,1.6,1.7,1.6c-1.1,0-1.3,0.8-0.7,2.6c0.4,1.2,1.4,2.3,3.8,4c3,2.2,3.2,2.5,2.4,3
		c-1.3,0.9-3.2,0.7-4.4-0.6c-0.9-1-1-1.2-0.3-1.4c0.7-0.2,0.5-0.5-0.6-1.4c-1.8-1.5-2.7-1.4-5.1,0.5c-2.4,1.9-2.3,1.9-3.7,0.8
		c-1.1-0.7-1.2-0.7-1.7,0.1c-0.4,0.5-1.3,0.9-2.2,0.9c-1.1,0-1.6,0.3-1.7,0.8c-0.1,0.5,0.1,0.8,0.6,0.8c1,0,0.9,1.4,0,2.4
		c-0.7,0.8-0.7,0.9,0.5,1.4l1.3,0.5l-1.4,1.5c-2.3,2.3-2.3,2.4,3.6,11.7l2,3.2l-1.5,1.2c-1.4,1.2-1.5,1.2-0.6,1.8
		c0.5,0.4,1.2,1.4,1.4,2.3c0.7,2,0.2,2.7-2.3,3.3c-1.1,0.3-1.8,0.8-2.2,1.7s-1,1.3-1.7,1.3s-1.9,0.8-3.4,2.4
		c-3.8,4.1-4.9,5.1-5.3,4.8c-1.1-0.7-0.2-2.5,2.9-6c1.8-2,3.3-3.9,3.3-4.1c0-0.8-0.9-0.8-2.8-0.2c-2.5,0.9-2.3,0.9-2.3-0.5
		c0-0.6,0.4-1.4,0.8-1.6c1.8-0.9,7.1-6.5,7.3-7.6c0.3-1.1,0-1.7-1.8-3.7c-1.1-1.4-2.2-3-2.4-3.6c-0.3-1.1-0.4-1-2.6,1.4
		c-1.3,1.4-2.3,2.2-2.3,1.9c0-1,1.2-3.6,2.1-4.3c0.7-0.6,0.7-0.7,0-1.5c-0.7-0.8-0.7-0.9,0-2c0.4-0.7,0.7-1.5,0.7-2
		c0-1.3-2.2-5.8-2.8-5.8c-0.3,0-1.4,0.7-2.5,1.6c-1.1,0.9-2.4,1.6-3.1,1.6c-0.8,0-1.7,0.7-2.9,2c-1.7,2-1.7,2-0.9,3.3
		c0.5,0.8,0.9,1.1,1.1,0.8c0.6-0.8,1.7-0.6,2,0.4c0.3,1.3,1.1,1.2,1.1-0.1c0-1,0-1,1,0.2c0.5,0.7,1.3,1.3,1.6,1.3s0.7,0.4,0.7,0.9
		c0,0.5,0.3,1.1,0.7,1.2c0.9,0.4,0.9,1.4-0.3,5.1c-0.7,2.4-1.1,3-1.7,2.9c-0.6-0.1-0.8-0.7-0.8-2.7c0-3.5,0-3.5-1.4-5.1
		c-0.9-1.1-1.4-1.3-1.6-0.9c-0.3,0.5-0.6,0.5-1.2-0.2c-0.5-0.4-1.3-0.7-1.8-0.5c-1.2,0.3-2.8-2.2-2.4-3.8c0.2-0.9,0.1-1.1-0.6-1.1
		c-0.5,0-1.1-0.3-1.4-0.6c-0.5-0.5-0.7-0.5-1,0.1c-0.8,1.3-0.5,2.3,0.8,2.9c2.4,1,2.6,2.4,0.7,6.2l-1.2,2.5l-1.1-1l-1.1-1l1-1.1
		c0.8-0.9,0.9-1.2,0.4-1.4c-0.4-0.1-1.2-0.7-1.8-1.4c-0.8-0.8-1.3-1-1.6-0.7c-0.8,0.8-2.7,0.6-3-0.2c-0.1-0.4,0-1.2,0.3-1.7
		c0.8-1.3,0.2-1.8-2.1-1.8c-2,0-2.1,0-2.1,1.5c0,1.6-1.5,4.6-2.3,4.6c-0.2,0-0.5-0.3-0.6-0.6c-0.1-0.4-0.6-0.4-1.4,0.2
		c-0.7,0.4-2.1,0.8-3.3,0.8c-1.5,0-2.3,0.3-3,1.1c-1.1,1.2-1.4,1.2-7.9,0.1c-1.9-0.3-2-0.3-2,0.7c0,0.6-0.3,2-0.7,3
		c-0.4,1-0.8,3.1-1,4.5c-0.2,1.8-0.6,2.7-1,2.7c-0.4,0-0.9,0.7-1.3,1.5c-0.9,2.2-2,3-2.9,2.2c-0.7-0.5-0.8-0.5-1.4,0.2
		c-0.3,0.4-0.7,0.7-0.8,0.5c-0.1-0.2-0.2,0.3-0.2,1c0.1,1.2-0.1,1.4-1.3,1.5c-1.7,0.2-2.1,0.7-2.1,2.8c0,1.7,0.7,2.4,1.3,1.3
		c0.4-0.7,0.7-0.7,2.2,0.7c1,0.8,2.3,1.9,3,2.4l1.2,0.9l-2.9,0.8c-2.3,0.7-2.8,1-2.6,1.7c0.1,0.5,0,0.8-0.3,0.8
		c-1.1,0-0.4,0.8,1.9,2.3c2.8,1.7,2.8,1.7,2.4,0.6c-0.3-1.4,0.4-1.5,2.4-0.4c1.4,0.8,1.9,1.4,1.9,2.2c0,0.8-0.2,1.1-0.7,1
		c-0.4-0.1-1.3-0.2-2.1-0.2c-1.3,0-1.4,0.1-1.5,1.4c-0.2,2-1.7,3.4-2.7,2.5c-0.6-0.5-0.9-0.4-1.8,0.1c-0.9,0.6-1.4,0.7-2.5,0.2
		c-1.2-0.5-1.7-0.4-3.5,0.7c-1.6,1-1.8,1.3-1,1.3c0.7,0,1,0.3,1,0.9c0,0.6,0.3,0.9,0.6,0.9c0.7-0.1,3.6,1.1,3.6,1.5
		c0,0.7-2.6,2-3.9,1.9c-1.3,0-1.3,0-0.5,0.9s0.7,0.9-2.9,0.8c-2.9-0.1-4.3,0.1-6.4,0.9c-1.5,0.6-2.9,1.4-3,1.7s-0.5,0.7-0.8,0.7
		c-0.8,0-2.6,2.2-2.6,3.3c0,1.2-2.3,2.9-3.5,2.5c-0.9-0.3-0.9-0.3,0.1,0.7c1.2,1.2,1.3,1.5,0.5,2.3c-0.7,0.7-1,0.5,4.2,3.1
		c2.9,1.5,4.2,2.4,4,2.9c-0.3,0.9,1.7,0.8,2.4-0.1c0.5-0.7,0.7-0.6,2,0.5c1.7,1.4,2.4,1.5,4.5,0.3c0.9-0.5,2.4-1,3.4-1.1
		c1.6-0.1,1.8,0,2.1,1.3c0.2,1.4,0.2,1.4,1.8-1.3c0.8-1.4,1.6-2.7,1.8-2.7s0.2,0.7,0.1,1.6c-0.2,1.8-0.2,1.8,1,1.1
		c1.2-0.7,2.4-0.1,2.4,1.3c0,1.2,0,1.2,2.2-0.9c2.4-2.4,4.1-3.1,5.1-2.1c0.6,0.6,0.6,0.8,0,2.1c-1.3,2.5-0.7,2.5,3.6-0.1
		c4.6-2.7,4.8-2.8,5.3-2c0.2,0.3,0.7,0.2,1.2-0.3c1.1-1,1.8-0.5,1,0.7c-0.4,0.7-0.4,0.9,0,1.1c0.4,0.1,0.3,0.7-0.3,1.9
		c-0.9,1.8-1.7,2.2-1.7,0.9c0-0.4-0.6,0.2-1.4,1.4c-0.7,1.2-1.8,2.4-2.3,2.8c-0.7,0.4-0.8,0.9-0.7,1.9c0.2,1.1,0,1.6-1.5,3
		c-1,0.9-1.8,1.9-1.7,2.2c0.1,0.3-0.3,1.6-0.9,3c-0.8,2-1.3,2.5-2.2,2.5c-0.6,0-2.6,0.6-4.6,1.4c-3.6,1.4-6,1.8-6.5,0.9
		c-0.5-0.8-1.2-0.5-1.2,0.5c0,1.4-1.7,4.4-3,5.5c-0.7,0.6-1.9,1.1-2.7,1.3c-0.8,0.1-2.4,1.1-3.5,2.1c-1.1,1-2.4,1.8-2.9,1.8
		c-0.5,0-1.4,0.4-1.9,1c-0.9,0.9-0.9,1-0.1,1.9c0.7,0.7,1.2,0.8,2.4,0.7c4.5-0.8,4.5-0.8,7.1,0.7c2.1,1.2,2.4,1.6,1.9,2.2
		c-0.7,0.8-1.8,0.8-3,0c-1-0.7-1.6-0.5-1.6,0.5c0,0.3,0.8,0.7,1.9,0.8c1.7,0.2,4.2,1.8,4.2,2.7c0,0.7-3.5,1.4-6.1,1.2
		c-2.6-0.2-2.8-0.2-2.8,0.8c0,1.3,2.9,4.1,5.6,5.4c1.8,0.9,2,1.1,1.3,1.5c-0.5,0.3-1.5,0.4-2.4,0.2c-0.9-0.1-1.6-0.1-1.6,0.2
		c0,0.8-0.8,0.4-2.7-1.4c-1-1-2-2.3-2.2-2.9c-0.4-1.7-2.2-3.4-3.1-2.9c-3.1,1.3-3.1,1.3-4.7,0.2l-1.4-1l-1.7,1.4
		c-1,0.8-2.2,1.4-2.7,1.4c-1.5,0-5.8-2.3-6.1-3.3c-0.4-1.1-1.2-1.4-5-1.7c-3.6-0.3-5.6,0-5.6,1c0,0.4-0.8,2.6-1.7,4.9
		c-1.4,3.2-2,4.3-2.8,4.5c-0.6,0.2-1.1,0.7-1.1,1.1c0,1.3-0.5,2.4-1,2.1c-0.2-0.1-0.3-0.7-0.1-1.3c0.2-0.8-0.2-1.4-1.5-2.8
		c-2.5-2.3-4.8-5.1-4.8-5.6c0-0.2,0.2-0.8,0.5-1.3c0.4-0.7,0.3-0.8-0.4-0.6c-0.9,0.2-2-1.4-2-3.1c0-0.6-0.3-0.9-0.9-0.9
		c-0.5,0-1.9-0.3-3.1-0.7l-2.2-0.7l-1.3,1.6c-1.3,1.5-1.3,1.5-2.3,0.7c-0.7-0.6-1.7-0.9-3.2-0.9c-1.2,0-2.4-0.2-2.7-0.4
		c-0.3-0.2-1.2-0.1-2,0.2c-1.1,0.4-1.6,0.4-2.1,0c-0.5-0.4-0.8-0.3-1.2,0c-0.4,0.4-0.7,0.4-1.4-0.2c-1.1-0.9-4.6-1.1-6.5-0.3
		c-1.4,0.6-1.8,0.5-4.7-0.8c-2.3-1.1-3.9-1.7-5.2-1.8v54.3c0.4-0.2,0.8-0.2,1.3-0.1c1.5,0.4,2.2,0.4,4.7,0c1.5-0.2,2.1-0.1,2.4,0.3
		c0.4,0.6,0.5,0.6,0.8,0c0.6-1,6.5-0.3,7.1,0.9c0.8,1.5-1,5.6-2.6,5.6c-0.4,0-0.6,0.6-0.5,1.7c0.2,1.8,0.9,2.4,3.2,2.4
		c2.5,0.1,0.7,2.1-2.8,3.1c-1.8,0.5-2.6,0.6-3.6,0.1c-1.1-0.5-1.7-0.4-3.6,0.5c-2.2,1-2.5,1-4.2,0.5c-1-0.4-1.6-0.5-2.3-0.3v20.4
		c1.1,0.5,1.9,0.5,3.2,0.5c1.5,0,3.2-0.2,3.9-0.5c0.9-0.3,1.2-0.3,1.2,0.2c0,1.1-1.1,1.6-4.4,2.1c-2.1,0.3-2.9,0.4-3.9,0v21.7
		c0.2,0.4,0.2,1,0.2,1.9l0,1.8l-0.3,0.1v9.9c0.6,0.2,1.2,0.1,2-0.2c1.2-0.4,1.7-0.9,2.3-2.5c1-2.6,5.3-7.9,6.2-7.7
		c1.3,0.2,1.8,1.6,1.3,3.1c-0.4,1.1-0.4,1.4,0.2,1.8c0.7,0.5,0.6,0.6-0.4,1c-1.2,0.5-1.2,0.5,0.3,0.5l1.4,0l0-2.9l0-2.9l2.1-0.1
		c2.3-0.2,2.5,0.7,0.4,1.7c-1.7,0.8-1.6,1.4,0.4,2.5c1.6,0.9,1.8,1.8,0.4,1.8c-0.4,0-0.7,0.4-0.7,0.9c0,0.8-0.2,0.9-1.1,0.7
		c-1.9-0.5-2.2,0.1-1.2,2.2c1.2,2.4,1.2,2.7-0.5,4.8c-1.4,1.9-1.4,2.9,0,3.4c1.4,0.5,1.8-0.1,1.8-2.5c0-1.5,0.3-2.6,0.9-3.4
		c0.9-1.1,0.9-1.1,1.9-0.2l1,0.9l-1,1.1l-1,1.1l1.1,2c0.6,1.1,1.2,2.2,1.4,2.4c0.2,0.2,1.8,0,3.6-0.6c4.3-1.3,8.4-1.8,18.3-2.3
		c7.2-0.4,8.6-0.6,11.2-1.6c2.6-1.1,3.2-1.1,4.7-0.7c1.3,0.4,2,0.4,2.8,0c1-0.6,2.9-0.3,2.9,0.4c0,0.2-0.7,0.7-1.6,1.3
		c-1,0.6-1.4,1-1,1.2c0.4,0.2,0.2,0.7-0.5,1.4c-0.9,1-1,1.2-0.3,2.2c0.8,1.2,1.4,1.3,3.2,0.3c2.2-1.2,2.3-0.8,0.6,1.2
		c-1.9,2.1-2.1,3.6-0.7,5.3c0.8,1,1.3,2.7,0.7,2.7c-0.1,0-1.3-0.7-2.6-1.6c-1.7-1.1-2.9-1.6-4.2-1.6c-1.3,0-1.5,0.1-1,0.5
		c0.4,0.2,1.2,0.5,1.8,0.5c1.2,0,1.4,1.4,0.4,2.3c-0.5,0.4-1,0.3-2.4-0.7c-1-0.7-2.3-1.2-2.9-1.2c-1,0-1.1,0-0.4,0.7
		c0.7,0.7,1.1,2.5,0.5,2.5c-0.1,0-0.7-0.2-1.2-0.6c-0.7-0.5-1.1-0.4-2.2,0.7c-0.7,0.7-1.7,1.3-2.2,1.3c-0.5,0-2.5-0.9-4.4-2.1
		c-3.1-1.8-3.6-2-4.4-1.5c-0.5,0.3-1,1.2-1.1,2c-0.3,2.9-1.4,5.1-3.1,5.9c-0.9,0.4-1.8,1.2-1.9,1.6c-0.1,0.5-0.8,2.1-1.6,3.6
		c-1,2.1-1.3,2.9-0.8,3.1c0.4,0.2,0.1,0.7-0.9,1.6c-0.8,0.7-1.5,1.7-1.5,2.3c0,0.6-0.6,1.9-1.4,2.9c-1.5,2-1.8,3-0.7,2.1
		c0.6-0.5,0.9-0.5,1.9,0c1,0.6,1.4,0.5,2.8-0.1c1.8-0.8,2.8-0.7,3.3,0.5c0.2,0.6-0.6,1.6-3,3.8c-1.9,1.8-3.3,3.4-3.3,3.9
		c0,0.5-0.3,1.3-0.7,1.8c-0.7,0.7-0.7,0.9-0.1,1.6c0.6,0.7,0.5,0.9-0.4,1.5c-0.6,0.4-1,1.1-1,1.5s-0.4,1-0.9,1.1
		c-0.7,0.2-0.9,0.7-0.9,2.3c0,4.3-2.7,7.9-4.6,6.2c-1.1-1-2.1-1-3.8-0.1c-1.4,0.7-2.2,1.9-1.4,2.4c0.3,0.1,0,0.7-0.7,1.4
		c-0.7,0.7-1.2,1.6-1.2,2.6c0,1.3-0.1,1.4-1.4,1.4c-1,0-2,0.6-3.8,2.3c-1.4,1.2-3.1,2.6-3.9,3c-0.3,0.2-0.7,0.4-1,0.7v5.9
		c0.3-0.1,0.5-0.2,0.9-0.4c1.7-0.9,2.8-1.1,3.8-0.9c1.1,0.2,1.4,0.1,1.4-0.6c0-0.5-0.2-1.1-0.5-1.4c-0.9-0.9,0.3-1.4,4.1-1.9
		c2.5-0.3,4.4-0.9,5.5-1.5c1.7-1,1.7-1,0.8-2.1c-1.7-1.9-1.7-2.2,0.1-2.2c1.4,0,1.6,0.1,1.8,1.3c0.1,0.9,0.6,1.6,1.8,2.2
		c0.9,0.5,2.8,1.6,4.2,2.4c1.4,0.8,2.8,1.5,3.1,1.5s2.5-0.9,4.8-2.1c2.3-1.2,4.7-2.1,5.2-2.1c0.9,0,0.7,0.3-1.4,2.5
		c-2.6,2.7-2.8,3.6-0.6,3.6c1.1,0,1.5-0.3,2.1-1.6c0.4-0.9,0.7-1.8,0.7-2.1c0-0.3,1.3-0.5,3.6-0.5c3.5,0,3.6,0,5.8-2
		c1.3-1.1,2.3-2.3,2.3-2.6s0.3-0.7,0.7-0.8c0.3-0.1,1-1.3,1.4-2.4c0.5-1.2,1.3-2.8,1.9-3.5c0.6-0.7,1.1-1.9,1.1-2.6
		c0-0.7,0.4-1.6,0.8-2c1.2-1.1,5.6-3.2,5.9-2.9c0.6,0.6,0.3,1.5-0.6,2.3c-0.8,0.7-0.8,0.8,0.3,1.8c1.2,1,1.2,1.1,0.4,2.2
		c-0.4,0.7-0.8,2.1-0.8,3.1v1.9l2.9-1l2.9-1l2.9,1.1c1.6,0.6,4.2,1.1,5.8,1.3c1.6,0.1,2.9,0.5,2.9,0.8c0,0.3-1.5,1-3.4,1.6
		c-3.1,1-3.4,1-4.2,0.3c-0.7-0.7-1.1-0.7-4.1,0c-1.8,0.4-4,0.7-4.9,0.7c-1.4,0-1.9,0.3-3,1.9c-0.8,1-1.4,2.1-1.5,2.4
		c-0.1,0.3-0.9,0.1-2.1-0.5c-1.9-1-1.9-1-2.7-0.1c-0.4,0.5-2.3,1.4-4.2,2.1c-1.8,0.6-5.7,2-8.6,3c-2.9,1.1-5.8,1.9-6.4,1.9
		c-1.5,0-2.6-0.5-2.6-1.1c0-0.4-0.9-0.5-3.1-0.4c-2.7,0.1-3.3,0.3-4.2,1.4c-0.9,1-1.1,1.1-1.4,0.4c-0.3-0.6-0.7-0.7-2.2-0.2
		c-1.5,0.4-2.2,0.3-4.5-0.5c-1.7-0.6-3.1-0.9-3.7-0.7c-1.4,0.4-2.7,3.5-3.1,7.1c-0.4,3.5-0.8,4.3-2.7,5.1c-0.9,0.4-2.1,1.1-2.6,1.7
		c-0.4,0.4-1.4,1-2.7,1.7v20.2c0.9,0.2,1.5,0.5,2,1c0.7,0.6,1.2,1.2,1.2,1.4c0,0.1-1.2,0.7-2.6,1.2c-0.2,0.1-0.4,0.1-0.6,0.2v10.6
		c0.5,0,0.8,0,1-0.2c0.7-0.6,1.3-0.2,0.9,0.7c-0.1,0.4-0.7,0.7-1.2,0.7c-0.5,0-0.7,0.1-0.8,0.4v0.7c0,0,0,0.1,0,0.1
		c0.1,0.5,0.1,0.7,0,0.9v34.2c1.7-1.9,4.5-3,8.9-3.7c2.4-0.4,5.1-0.9,5.9-1.3c0.8-0.3,1.6-0.4,1.8-0.3c0.5,0.5-0.5,1.4-3,2.5
		c-1.4,0.6-2.6,1.4-2.8,1.8c-0.2,0.4-1.5,0.9-3.7,1.2c-3.2,0.6-3.5,0.7-5,2.6c-0.6,0.7-1.4,1.5-2.2,2.1v2.3c0.4,0.3,0.4,0.6,0,1.3
		v11.9c1-0.2,1.7-0.4,1.7-0.5c0.1-0.3,0.6-0.5,1.1-0.5c0.7,0,0.9-0.3,0.9-1.2c0-1.4,1.2-1.6,1.5-0.2c0.2,0.8,0.4,0.9,1.2,0.5
		c1.3-0.7,2.4-0.7,2.4,0.2c0,0.6,0.3,0.5,1.5-0.3c0.8-0.6,2.2-1.6,3-2.4c0.8-0.7,2-1.3,2.4-1.3c0.8,0,0.9-0.3,0.9-2.3
		c0-2.8,0.8-3.1,2-0.7c1,2.2,2.8,3,4,2c1.5-1.4,2-1,2,1.8c0,2.5,0,2.6-2,3.7c-1.1,0.7-3.8,1.8-5.9,2.6c-6,2.2-13.2,6.2-16.8,9.3v2.2
		c5.3-2.1,9.9-4.2,11.8-5.4c1.1-0.7,3-1.5,4.2-1.6c2.1-0.3,2.2-0.3,2.2,0.9c0,1-0.2,1.2-1.4,1.2c-1.7,0-7.1,4.3-7.1,5.7
		c0,0.7-1.1,1.4-4.3,2.9c-2.2,1-4.1,2-5.4,2.9v3.7c0.4-0.3,0.7-0.1,1.2,0.3c0.8,0.7,0.9,0.7,2.6-1c0.9-1,1.7-2,1.7-2.3
		c0-0.3,0.7-0.8,1.6-1.1c0.9-0.3,1.6-0.9,1.6-1.2c0-1.1,1.5-0.7,2.6,0.7c1,1.3,1.1,1.3,1.9,0.5c0.5-0.4,1.6-0.8,2.4-0.8
		c1.3,0,1.5-0.2,1.5-1.2c0-1.5,1.2-2.1,2.1-0.9c0.5,0.7,0.8,0.7,2.6,0.2c2.4-0.7,3.1-1.7,2.1-3.1c-0.8-1.2-0.4-1.4,0.8-0.2
		c0.7,0.6,1,0.7,1.4,0.2c0.7-0.7,2.2,0.2,2.2,1.4c0,0.6-0.3,1.5-0.7,2c-0.8,1.3-0.5,1.6,1,1.1c1.5-0.6,1.8-0.3,1,0.9
		c-0.8,1.2-0.3,1.7,0.9,1c0.8-0.4,1-0.4,1,0.4c0,0.5-0.4,1-0.9,1.2c-1,0.3-1.2,0.9-0.6,1.4c0.2,0.1,1.5-0.3,2.9-0.9
		c2.2-1,2.4-1.2,1.9-1.8c-0.8-1-0.2-1.5,0.9-0.8c0.7,0.4,0.9,0.4,1.1,0c0.1-0.4,0.4-0.4,0.8,0c0.4,0.2,1.2,0.7,1.9,1
		c1.2,0.5,1.4,0.4,2.7-1.5c0.8-1.1,1.6-2.7,1.7-3.5c0.4-1.7,1.1-1.9,1.1-0.3c0,1.5,0.9,1.8,2.3,0.7c1.1-0.9,1.1-0.9,0.2-1.6
		c-0.5-0.4-1-0.7-1.2-0.7c-0.2,0-0.4-0.7-0.4-1.4v-1.4l2.4,1.6c2.4,1.7,3.2,2,3.2,1.2c0-0.4,1.4-0.8,4.7-1.3
		c1.4-0.2,1.8-0.1,2.8,1.1c0.9,1.1,1.3,1.3,2,0.9c0.6-0.4,0.9-0.4,1.2,0.1c0.3,0.5,0.9-0.1,2.1-2.1c1.5-2.4,1.7-2.9,1.4-4.8
		l-0.3-2.1l1.6,1.9c1.5,1.7,1.7,1.8,2.7,1.3c0.9-0.6,1.2-0.5,2.1,0.4c0.6,0.6,1.4,0.9,1.6,0.7c0.3-0.2,0.8,0,1.1,0.4
		c0.3,0.4,1.1,0.9,1.9,1.1c1.1,0.2,1.3,0.1,1.3-0.9c0-0.7,0.3-1.5,0.7-2c0.6-0.6,0.7-0.9,0.2-1.4c-0.5-0.6-0.5-0.8,0-1.4
		c0.3-0.4,0.5-1.2,0.3-1.9c-0.2-1-0.1-1.2,0.7-1.2c0.6,0,1.3,0.4,1.6,0.8c0.6,0.7,0.8,0.7,2.8,0.2c3.3-0.8,3.9-0.7,5,0.9
		c1,1.6,1.3,1.5,0.5-0.1c-0.4-0.7-0.2-1.4,0.8-3.2c1.1-2,1.2-2.4,0.7-3c-0.7-0.8-2.1-1-3.3-0.3c-1.2,0.7-2.7-0.7-3.1-2.8l-0.3-1.6
		l1.4,1.6c1.2,1.4,1.5,1.5,2.9,1.2c0.9-0.2,1.7-0.1,2.2,0.2c0.5,0.4,0.7,0.4,0.7,0c0-1,1.4-0.5,2.3,0.9c0.6,0.8,1.3,1.4,1.7,1.4
		c0.9,0,0.8-0.4-0.6-2.2l-1.2-1.6l1.4,0.3c0.7,0.2,1.7,0.3,2.2,0.3c0.4,0,0.8,0.4,0.8,0.8c0,0.5,0.1,0.6,0.3,0.2
		c0.1-0.3,0.5-0.6,0.9-0.6c0.4,0,1.2-0.4,1.9-0.9c0.7-0.5,1.6-0.9,2.2-0.9c1.6,0,3.6-2.4,3.9-4.7c0.1-1.1,0.7-2.8,1.1-3.7l0.8-1.7
		l-1.2-0.3c-0.9-0.2-1.1-0.5-0.9-1.2c0.2-0.8,0.1-0.9-1.1-0.9c-1.5,0-1.7-0.2-1.1-2c0.2-0.6,0.3-1.6,0.1-2.2c-0.2-1-0.5-1.1-1.9-1
		c-2.2,0.1-2.7-0.3-2.4-2.3l0.2-1.7l1.5,1.1c1.6,1.3,3.3,1.5,3.6,0.6c0.1-0.4,0.4-0.4,0.8,0c0.4,0.4,0.4,0.7,0,0.8
		c-0.6,0.4-0.7,4.3-0.1,4.7c0.2,0.1,1.2,0,2.1-0.4c1.8-0.7,5.7-0.9,6.1-0.3c0.1,0.2-0.4,0.7-1.1,1c-1,0.4-1.4,0.9-1.4,1.6
		c0,0.6-0.3,1.2-0.7,1.4c-0.6,0.2-0.7,0.4-0.2,1c0.3,0.4,0.5,1,0.3,1.4c-0.2,0.6,0,0.7,0.9,0.4c0.7-0.2,2,0,3,0.3
		c1.8,0.6,1.9,0.6,3.2-0.7c1.1-1,2.1-1.4,5.5-1.9c2.3-0.4,4.4-0.7,4.6-0.7c0.3,0,0.1-0.3-0.3-0.7c-1.1-0.8-1-2.3,0.2-3.7
		c0.8-0.9,1.9-1.3,5.2-1.9c2.3-0.4,4.3-0.8,4.3-0.9c0.1-0.1-0.4-0.7-1.3-1.3l-1.4-1.1l2.5-2.2l2.5-2.2l-0.5-2.4
		c-0.3-1.4-0.3-2.5-0.1-2.7c0.6-0.3,1.8,1.8,1.8,3.2c0,1.4,1.2,1.8,2.8,0.7c0.7-0.5,1.2-0.4,2.3,0.2c2.1,1.3,2.9,1,2.9-0.8
		c0-2.1,0.7-2.6,4.7-3.2c4.1-0.6,5.1-1.4,5.1-4.2c0-1.1,0.3-2.3,0.8-2.8c0.7-0.7,0.7-0.8,0-0.8c-1,0-4.6-2.7-4.6-3.5
		c0-0.3,0.9-1.2,1.9-1.9l2-1.3l1.1,1.3c0.8,1,1.1,1.2,1.1,0.6c0-0.9,2.2-2.7,3.2-2.7c0.4,0,2.2-0.7,3.9-1.6c1.7-0.9,3.7-1.7,4.4-1.7
		c0.7,0,4.6-0.1,8.7-0.1l7.4-0.1l0.9-1.3c0.5-0.7,1.3-1.3,1.8-1.3c0.6,0,0.7-0.2,0.6-0.7c-0.2-0.5,0-0.7,1-0.7
		c1.6,0,3.5,1.3,2.7,1.8c-0.3,0.2-0.6,0.9-0.7,1.6c-0.2,1.1-0.1,1.3,0.5,1c0.4-0.2,1.7-0.4,2.9-0.4c2,0,2.3-0.1,3.9-2.2
		c1.6-2.2,1.7-2.3,1-3.2c-0.7-0.7-0.7-1.1-0.3-2.3c0.7-2.2,0.7-3.2-0.7-4.7c-0.6-0.7-1-1.7-0.9-2.1c0.2-0.5,0-0.7-1-0.7
		c-1.2,0-1.3,0-0.6-0.8c0.6-0.6,0.7-1.3,0.5-2.5c-0.2-1.3,0-1.8,0.8-2.5l1-0.9l-0.3,1.1c-0.2,0.6-0.5,1.4-0.6,1.9
		c-0.2,0.7,0.1,1.1,0.9,1.7s1.2,1.2,1.2,2.2c0,1,0.7,2,2.4,3.8c2.6,2.7,4.1,5.1,3.2,5.1c-0.4,0-0.4,0.6-0.2,2
		c0.2,1.1,0.4,2.1,0.5,2.2c0.2,0.2,1.6-0.8,2.8-1.7V140.2C426.4,139.8,426.1,139.5,425.9,139.2z"/>
	<path fill="#FFFFFF" d="M229.6,284.2c0-1.2-1.6-0.9-2.5,0.4c-1,1.5-0.9,2.1,0.1,2.1C228.2,286.6,229.6,285.2,229.6,284.2z"/>
	<path fill="#FFFFFF" d="M221.9,267.5h1.6v-2.6c0-3.2-0.8-3.8-3.2-2.4c-1.2,0.7-1.4,1-1,1.5c0.3,0.4,0.4,1,0.2,1.4
		C219.1,266.6,220.1,267.5,221.9,267.5z"/>
	<path fill="#FFFFFF" d="M233.3,288.3c0.5-0.6,0.4-0.7-0.7-0.7c-0.7,0-1.2,0.2-1.2,0.7c0,0.4,0.3,0.7,0.7,0.7
		C232.4,289,233,288.6,233.3,288.3z"/>
	<path fill="#FFFFFF" d="M263,276.8c0.4-0.6,0.2-0.6-0.7,0c-0.4,0.3-0.5,0.5-0.1,0.5C262.5,277.3,262.9,277,263,276.8z"/>
	<path fill="#009A49" d="M211.7,399.8c-1.2,0-2.4,0.4-3.6,1.2c-1,0.7-2.2,1.1-2.5,1c-0.4-0.2-1.2,0.3-1.9,1.1
		c-0.9,1.1-1.1,1.6-0.7,2.3c0.4,0.7,0.2,0.9-0.6,1.1c-0.6,0.1-2.5,1.3-4.2,2.6c-2.7,2-3.3,2.2-4.1,1.8c-1.3-0.8-7.2,1.2-8.3,2.8
		c-0.5,0.7-1,1.1-1.4,0.9c-0.4-0.1-1,0.1-1.4,0.7s-1,0.9-1.4,0.7c-1.2-0.4-3,0.7-3,1.9c0,1.1-1,2.1-1.3,1.2
		c-0.2-0.7-1.5-0.1-1.5,0.7c0,0.4,0.5,0.7,1.2,0.7c0.7,0,1.2,0.2,1.2,0.5c0,0.3,1.3-0.2,2.8-1c2.6-1.4,3.8-1.6,3.1-0.4
		c-0.1,0.3-1.6,1.1-3.1,1.9c-2.6,1.3-2.8,1.4-2.1,2.2c1,1.1,1.1,3.2,0.1,2.4c-0.5-0.4-1.4-0.2-3.9,1.1c-1.8,0.9-3.8,1.6-4.5,1.6
		c-1.3,0-1.6,0.7-0.7,1.2c0.3,0.1,0.4,0.8,0.3,1.4c-0.1,0.8,0,1.1,0.4,0.9c0.4-0.1,1.2,0,1.9,0.2c1.2,0.4,1.3,0.5,1,3.7
		c-0.2,3-0.2,3.2,0.6,2.8c1.4-0.7,4.2-3.6,4.2-4.4c0-0.4,0.5-1,1.2-1.4c1-0.7,1.5-0.7,3-0.2c3.4,1,4.3,4.3,2.1,6.6l-1.3,1.3l3.1,1.5
		c2.9,1.4,3.2,1.5,5,0.9c1.1-0.3,1.9-0.9,2.1-1.4c0.2-0.7,0.7-0.9,1.8-0.9c1.1,0,2.4-0.5,3.9-1.6c1.3-0.9,3-1.8,3.8-1.9
		c1.2-0.2,1.5-0.5,1.5-1.4c0-0.6,0.2-1.1,0.5-1.1c0.3,0,0.5,0.2,0.5,0.4c0,0.2,0.7,0.7,1.6,1c1.4,0.5,1.7,0.4,2.8-0.7
		c1.3-1.3,2.2-1.5,2.2-0.6c0,0.3,0.5,0,1-0.7c0.2-0.2,0.3-0.4,0.5-0.6v-34.2C213.1,399.8,212.7,399.8,211.7,399.8z"/>
	<path fill="#009A49" d="M201.8,173.6l1.1-0.4l-1.3-1.5l-1.3-1.5l-2,1l-2,1l-1.1-1c-1.4-1.4-2.2-1.2-3.5,0.5c-1,1.3-1.3,1.4-3,1.2
		c-1-0.1-2.2-0.4-2.7-0.5c-1-0.5-4,3.3-3.2,4.1c0.6,0.7,3.7,0.5,5.3-0.3c0.7-0.4,1-0.3,1.3,0.3c0.4,0.7,0.6,0.7,1.6-0.2
		c0.9-0.7,1.4-0.8,2.1-0.5c1.2,0.7,2.3,2.4,1.9,3c-0.6,0.7-1.1,3.8-0.7,4.2c0.2,0.2,0.6,0,0.9-0.5c0.8-1.1,2-0.5,2.8,1.4
		c0.3,0.8,1.2,2.1,1.9,2.7c1,1,1.3,1,1.7,0.5c0.2-0.4,0.3-1.3,0.2-2c-0.1-0.7,0-1.8,0.4-2.6c0.4-0.7,0.7-2,0.9-2.9
		c0.2-1.3,0.1-1.5-0.4-1.3c-0.4,0.1-1,0.4-1.4,0.6c-0.6,0.2-0.7-0.2-0.7-2.2C200.6,174.4,200.7,174.1,201.8,173.6z"/>
	<path fill="#009A49" d="M211.4,222c-3.2-1.7-5.5-1.8-6.9-0.2l-1.1,1.2l-3.1-1c-3.3-1-4.5-0.8-4.9,0.7c-0.2,0.9,2.2,2.2,3.9,2.2
		c1.1,0,1.2,0.1,0.9,1.2c-0.2,0.7-0.1,1.2,0.2,1.2c0.2,0,0.5,0.3,0.5,0.7c0,0.5-0.3,0.7-1.2,0.4c-0.7-0.2-1.2-0.1-1.2,0.2
		c0,1-1,0.5-1.9-1.1c-0.9-1.5-1.1-1.6-3.9-1.8l-3-0.1l1,1l1,1.1h-1.1c-0.6,0-1.7-0.3-2.4-0.7c-1.4-0.7-2.8-0.4-3.3,0.9
		c-0.3,0.8,0,1.2,1,1.2c0.4,0,1.4,1,2.3,2.3c1.3,2,1.9,2.4,4,3c1.4,0.4,2.9,1.1,3.5,1.6c1.1,1,1.3,2.4,0.3,2.4
		c-0.3,0-1.2,0.8-1.9,1.9c-1.2,1.7-1.4,1.8-2.1,1.2c-0.4-0.4-1.4-0.8-2.2-1c-1.3-0.2-1.6,0-2.9,1.8c-1,1.4-1.2,2-0.7,1.8
		c0.5-0.2,1,0,1.4,0.6c0.6,0.7,0.8,0.8,2.2,0.2c2.9-1.2,3.4-1.1,4.4,0.2c0.5,0.7,1,1.4,1.1,1.6c0.1,0.3,1.4,0.9,2.8,1.4
		c3.3,1.2,5.1,0.7,5.1-1.3c0-1.9,1.3-3.5,2.4-3.1c0.6,0.2,1.3,0,2-0.7c1.2-1.1,2.6-0.9,2.6,0.3c0,0.5,0.3,0.7,1.2,0.5
		c0.9-0.2,1.4,0,1.7,0.7v-21.7C212.8,222.7,212.2,222.5,211.4,222z"/>
	<path fill="#009A49" d="M212,200.7c-0.9,0.4-2.8,0.9-4.2,1.1c-1.4,0.2-2.6,0.4-2.6,0.5c0,0,0.2,0.7,0.5,1.4c0.4,1,0.3,1.9-0.5,4.3
		c-0.7,2.3-0.8,3.1-0.4,3.6c0.3,0.4,0.4,1.3,0.2,2.2c-0.3,1.5-0.2,1.6,4.3,4.5c1.9,1.2,3.1,2,4,2.4v-20.4
		C212.9,200.3,212.5,200.5,212,200.7z"/>
	<path fill="#009A49" d="M210.4,131.8c-0.8,0.6-1.4,1.2-1.4,1.5c0,0.3,0.7,1.2,1.5,2.1c0.8,0.9,1.3,1.7,1,1.8
		c-0.2,0.1-1.2,0.6-2.1,1c-1.5,0.7-1.6,0.9-1.9,3.7c-0.3,4-1.4,5-5.1,4.7l-2.5-0.2l1.5,1.2c1.4,1.1,2,2.9,1.1,2.9
		c-0.6,0-0.6,5.6,0,5.9c0.2,0.1,0.4,0.7,0.4,1.4c0,1.1-0.5,1.4-2.9,2.2c-0.8,0.3-0.8,0.4,0.4,1.7c0.7,0.8,1.1,1.8,1,2.1
		c-0.3,0.9,1.4,0.8,2.8-0.1c0.8-0.5,1.2-1.2,1.2-2.1c0-0.9,0.2-1.4,0.7-1.4c0.4,0,0.9-0.4,1.2-0.9c0.4-0.7,0.8-0.9,1.5-0.7
		c1.4,0.4,1.5,0.5,0.8,1.4c-0.4,0.5-0.4,0.7,0,0.7c1,0,0.5,0.9-0.7,1.2c-1.6,0.4-3.1,2.7-3.4,5.1c-0.2,1.8,0,2.2,1.2,3.5
		c0.8,0.7,1.9,1.4,2.4,1.4c1.3,0,1.7,1.2,0.7,2.3c-0.9,1-0.6,2.6,0.7,2.9c0.5,0.1,1.1,0,1.4-0.4c0.7-0.9,1.4-0.4,1.4,1
		c0,1.5-1,1.9-3.4,1.1c-3-1-5.3-0.2-4.8,1.6c0.1,0.5-0.1,1.7-0.6,2.6c-0.5,0.9-1,2.5-1.1,3.5c-0.2,1.6-0.1,1.8,1,2.2
		c1.7,0.7,5.6-0.6,7.6-2.4c0.6-0.5,1-0.9,1.4-1.1v-54.3C212.1,131,211.2,131.2,210.4,131.8z"/>
	<path fill="#009A49" d="M200.9,195.9c-1.4-1.1-1-1.1-3.6,0.3c-1.3,0.6-2.2,1.4-2.2,1.6c0,0.8,5.2,0.6,6.1-0.3
		C201.9,196.7,201.9,196.7,200.9,195.9z"/>
	<path fill="#009A49" d="M171.3,426.6c2.1-0.9,4.2-1.9,4.5-2.3c0.6-0.6,0.3-0.7-1.9-0.7c-2.1,0-2.9,0.3-4.5,1.4
		c-1.1,0.8-2,1.8-2,2.3C167.4,428.1,167.8,428.1,171.3,426.6z"/>
	<path fill="#009A49" d="M186.6,231c0.3,0,0.5-0.2,0.5-0.5c0-0.3-0.2-0.5-0.5-0.5c-0.2,0-0.5,0.2-0.5,0.5
		C186.1,230.7,186.3,231,186.6,231z"/>
	<path fill="#009A49" d="M192.4,156.8c0.8,0.3,0.9-0.1,0.2-1.8c-0.7-1.7-1.8-1.5-2.6,0.5c-0.4,0.9-0.8,2.4-1,3.2
		c-0.2,1.4-0.1,1.6,1.3,2.3c2.6,1.3,3.7,0.1,1.8-1.9C191,158,191.2,156.3,192.4,156.8z"/>
	<path fill="#009A49" d="M212.3,277.6c-0.7,0.1-0.5,0.4,1,1.1v-1.3C213,277.5,212.7,277.5,212.3,277.6z"/>
	<path fill="#009A49" d="M200.1,144.6c0.5-0.9,0.5-0.9,1.2,0c0.4,0.6,0.7,0.7,0.7,0.3s0.4-0.5,0.9-0.4c0.7,0.2,1.1-0.1,1.6-1.2
		c1-2,0.9-2.5-0.7-3.1c-0.7-0.3-2.4-1.3-3.6-2.2c-1.3-0.9-2.3-1.6-2.5-1.5c-0.1,0-1.3,0.5-2.6,1.1c-2,0.9-2.4,1.4-2.7,2.7
		c-0.2,0.9-0.1,1.6,0.2,1.7c0.2,0.1,0.5,0.6,0.5,1c0,0.5,0.3,0.9,0.7,1.1c1.1,0.4,0.8,1.2-0.9,2.8c-1.4,1.2-1.6,1.8-1.6,3.3
		c0,1.8,0,1.8,1.4,1.5c0.8-0.1,1.7-0.3,1.9-0.3c0.2,0,0.4-0.6,0.3-1.3c-0.1-1,0-1.3,0.8-1.2c1.9,0.2,2.2-0.2,1.3-1.5l-0.9-1.2
		l1.1-1.2c1.1-1.2,1.2-1.2,1.8-0.4C199.5,145.5,199.6,145.5,200.1,144.6z"/>
	<path fill="#009A49" d="M210.8,475.8c0.3,0.2,0.5,1,0.5,1.8v1.4l1.2-1.1c0.3-0.3,0.6-0.5,0.8-0.7v-3.7
		C211.4,474.7,210.4,475.5,210.8,475.8z"/>
	<path fill="#009A49" d="M212.3,439.4l-1.6,0.8l1.5,0.4c0.5,0.1,0.9,0.3,1.1,0.4v-2.3C212.9,439,212.6,439.2,212.3,439.4z"/>
	<path fill="#009A49" d="M213.1,442.5c-0.5,0.7-0.9,0.7-2.2,0.3c-1.7-0.5-2.4-0.3-2.4,0.7c0,0.4-0.6,1-1.4,1.4
		c-1.3,0.7-1.4,0.7-1.4-0.2c0-0.9,0-0.9-1.7,0c-1,0.5-2.1,0.9-2.5,0.9c-0.9,0-2.8,1.3-2.8,1.9c0,0.2,0.7,0.4,1.4,0.4
		c1.7,0,1.7,0,0.4,2.3c-1.1,1.9-2.3,2.6-5.3,3c-1,0.2-2.5,0.4-3.3,0.6l-1.4,0.3l1.7,0.7c1.9,0.8,2,0.9,1.1,3.1
		c-0.7,1.7-2.9,2.9-4.7,2.5c-0.9-0.2-1.2,0-1.2,0.7c0,0.6,0.2,0.8,0.6,0.5c0.6-0.3,1.2-0.4,4.3-0.7c0.5,0,1.6,0.2,2.4,0.6
		c1.4,0.6,1.6,0.6,3.1-0.9c1.3-1.2,1.9-1.5,3.1-1.4c1.4,0.1,1.5,0,1.6-1.1c0.1-1.4,1.2-2.8,2.5-3c0.5,0,2.9-0.3,5.3-0.6
		c1.1-0.1,2.1-0.3,2.9-0.4v-11.9C213.2,442.3,213.2,442.4,213.1,442.5z"/>
	<path fill="#009A49" d="M210.4,249.2c-3.2,1-4.1,1.5-3.3,2.1c0.6,0.3,0.2,1.4-1.1,3.1c-1,1.4-1,1.5,0.6,2c0.8,0.3,1,0.1,1-0.6
		c0-1.3,0.2-1.3,2.3,0.4c1.6,1.2,2.6,1.9,3.4,2.1v-9.9L210.4,249.2z"/>
	<path fill="#009A49" d="M211.4,466.6l-1.2,1.5l2.5-1c0.2-0.1,0.3-0.1,0.5-0.2v-2.2C212.5,465.4,211.9,466,211.4,466.6z"/>
	<path fill="#009A49" d="M213.3,398.5v-0.7C213.3,398,213.3,398.2,213.3,398.5z"/>
	<path fill="#009A49" d="M212.1,341.8c-0.5,1-1.8,1.9-4.1,3.1c-3.4,1.7-4.2,2.4-3.8,3.1c0.5,0.7,2.5,0.4,3-0.6
		c0.4-0.8,0.8-0.9,2.5-0.7c1.4,0.2,2.2,0.1,3.6-0.5v-5.9C212.8,340.8,212.3,341.4,212.1,341.8z"/>
	<path fill="#009A49" d="M210.6,385.7c-0.7-0.7-0.9-0.6-2.8,0.8c-1.1,0.9-2.5,1.6-3.1,1.6c-3.3,0-7.1-2.4-8.6-5.3l-0.7-1.4l-0.9,1.3
		c-1.2,1.7-4.5,3.6-6.2,3.6c-0.7,0-1.7,0.3-2.2,0.7c-1.3,1.2-2,0.3-1-1.1c0.6-0.9,0.8-1.8,0.7-3c-0.2-2-0.9-2.2-2.4-0.6
		c-0.7,0.7-1.4,1-2.1,0.9c-1.1-0.2-4.5,1.5-5.2,2.7c-0.2,0.3-1.4,1-2.7,1.6c-1.4,0.6-2.1,1.1-1.6,1.1c1.1,0,1,0.7-0.1,1.7
		c-1.1,1-1.2,1.9-0.4,2.2c0.9,0.3-0.2,1.9-1.4,2.1c-1,0.1-3.2-2.3-2.6-2.9c0.2-0.2-0.2,0-1,0.3c-1.4,0.7-1.5,0.9-0.7,1.7
		c0.4,0.4,0.4,0.8-0.2,1.7c-0.4,0.7-0.9,1.2-1.2,1.2c-0.3,0-0.2,0.7,0,1.7c0.2,0.9,0.3,2.2,0.2,2.8c-0.5,1.8,0.6,2.2,3.3,1.3
		c2.1-0.7,2.3-0.9,2.2-1.8c-0.1-0.7,0.1-1.3,0.8-1.6c0.9-0.5,1.2-0.4,2.3,0.6c0.7,0.7,2.1,1.3,3.1,1.5l1.9,0.3l-1.4-0.8
		c-1.9-1-1.9-1-1.2-1.8c0.8-1,2.5-0.9,3.5,0.2c0.5,0.5,1.4,0.9,2.1,0.9c0.7,0,1.5,0.3,1.9,0.7c0.7,0.9,1.4,0.9,2.4-0.1
		c0.7-0.7,1-0.7,2-0.1c1,0.5,1.3,0.5,2-0.1c1.1-0.9,8.8-2.9,9.5-2.5c0.3,0.2,1.5-0.1,2.7-0.6c2.9-1.3,8.3-1.8,10.6-1
		c0.5,0.2,1,0.3,1.3,0.3v-10.6C211.5,386.3,211.2,386.3,210.6,385.7z"/>
	<path fill="#009A49" d="M211,363c-3.6,1.7-4.1,1.8-5.3,1.3c-1.1-0.5-1.5-0.5-2.5,0.2c-2.2,1.4-1.2,2.3,3,2.8c3.2,0.4,4.4,1.4,4,3.4
		c-0.1,0.7-0.4,2.4-0.6,3.7c-0.2,1.3-0.6,2.8-0.9,3.4c-0.8,1.4-0.7,1.6,0.4,1.3c1.1-0.4,1.2,0.1,0.1,1.3c-1,1.1-0.7,1.3,2.4,1.5
		c0.7,0,1.3,0.1,1.8,0.2v-20.2C212.6,362.2,211.8,362.6,211,363z"/>
	<path fill="#FF7900" d="M484.8,296.2l0.5-4.8c0.8-7.1,0.7-9.3-0.7-12.4c-0.7-1.5-1.3-3.2-1.4-3.7c-0.1-0.5-0.9-3-1.7-5.6l-1.4-4.6
		l1-1.8c0.7-1.3,0.8-1.9,0.5-2c-4-1.4-6.2-2.4-6.9-3.1c-1.2-1.2-1.6-3.2-0.8-3.7c0.5-0.3,0.4-0.6-0.4-1.5c-1.4-1.5-1.4-2.4,0.2-2
		c0.9,0.2,1.9-0.1,4.4-1.8l3.2-2.2l-1.3-2.9c-1.2-2.5-1.6-3-3.1-3.5c-1-0.4-2.1-0.9-2.5-1.3c-0.6-0.6-0.5-0.8,1.1-1.4
		c1.1-0.5,2.3-0.7,3.1-0.5c1,0.2,1.4,0.1,1.8-0.7c0.9-1.7,0.6-1.9-2.2-1.9c-1.5,0-2.9-0.2-3-0.4c-0.3-0.5,1.6-1.3,4.1-1.7
		c2.3-0.4,3.1-1.3,3.1-3.4c0-2.5-0.9-3.6-3.7-5.4c-1.4-0.8-2.9-2.2-3.3-2.9c-0.4-0.8-1.2-2-1.7-2.7c-1.7-2.2-2.7-6.6-2.8-12.1
		c0-3.8,0.2-5.2,0.8-6.5c0.7-1.2,0.7-1.5,0.2-1.5c-1,0-2.2-1.6-2.2-2.9c0-0.7,0.3-2.1,0.7-3.1c0.6-1.7,0.6-2-0.1-2.6
		c-0.5-0.4-1.4-0.7-2.2-0.7c-2,0-4.9-1.9-5.8-3.7c-1-1.8-1.2-6.7-0.4-7.2c0.3-0.1,0.5-0.8,0.5-1.5c0-0.7,0.5-1.5,1.2-2.1
		c1.4-1.1,1.1-1.8-0.7-1.8c-1.6,0-1.7-0.5-0.5-1.6c0.7-0.6,1.1-0.7,2.1-0.3c0.7,0.2,1.8,0.5,2.3,0.5c0.6,0,1.4,0.4,1.9,0.9
		c1,1.1,6.4,3.3,8.1,3.3c0.7,0,2.1-0.6,3-1.2l1.8-1.2l-1.1-1.4c-0.6-0.7-1.4-1.4-1.7-1.4c-0.3,0-3.1-2.5-6.1-5.4l-5.5-5.4l-0.8,1.2
		c-0.8,1.3-2.1,1.5-3,0.6c-0.4-0.4-0.6-0.2-0.6,0.8c0,3-4.3,5-6.8,3l-1.2-1l-1.4,1.2c-1.1,0.9-1.9,1.2-4.1,1.2
		c-2.1,0-2.9,0.2-3.6,0.9c-1.3,1.4-2.3,1.1-4.2-1c-1.2-1.4-1.6-2.3-1.4-2.9c0.2-0.5,0.4-2,0.5-3.3c0.1-1.3,0.7-3.3,1.2-4.5
		c1.3-2.9,0.7-4.5-1.8-5.9c-2.2-1.3-2.4-1.3-2.8-0.1c-0.5,1.4-2,1.1-4.7-0.9c-2.1-1.5-2.7-2.4-3.7-5.1c-0.5-1.4-1.2-2.6-1.9-3.5
		v254.1c0.9-0.7,1.7-1.4,1.8-1.7c0.5-1.2,0.3-2.4-0.3-2.7c-0.7-0.2,1.7-4,3.1-4.7c0.5-0.3,1.2-0.8,1.5-1.2c0.4-0.6,0.7-0.6,1.2-0.1
		c0.5,0.5,0.5,0.7,0,1.4c-3.2,4.5-3.2,4.9,0.4,3.9c3.6-0.9,5.4-0.4,8.7,2.5l2.5,2.2l3.4-1c1.9-0.5,3.8-1,4.4-1c0.7,0,1-0.3,1-0.9
		c0-1.2,0.2-1.2,2.2,0l1.6,1l1.4-1.5c1.7-1.8,2.6-1.2,1.5,1c-0.8,1.5-0.8,1.6,0.5,1.8c0.7,0.1,1-0.2,1.2-1.8
		c0.2-1.1,0.8-2.8,1.5-3.7c1.3-1.9,1.1-3.1-0.6-2.7c-0.6,0.1-1.3-0.4-2.3-1.5c-0.8-1-1.4-2.1-1.4-2.3c0-0.3-0.9-1.2-2.1-2
		c-1.6-1.1-2.2-1.9-2.4-3.2c-0.3-1.4-0.6-1.8-2.1-2.4c-1-0.4-1.8-0.8-1.8-1c0-0.7,2.8-3.3,3.2-3c0.3,0.1,0.4,0.9,0.2,1.6
		c-0.3,1.5,0.5,2.3,1.4,1.4c0.7-0.6,3.5-0.5,5.1,0.2c0.8,0.3,0.8,0.2,0.6-1.8c-0.5-3.2,0.5-5.3,6.2-13.2c6.9-9.7,6.7-9.1,5.1-13.8
		c-0.7-2.2-1.3-4.5-1.3-5.3c0-1.7,1.1-4.1,3.9-8.6c2.1-3.4,2.2-3.6,2.2-7.1c0-4.1,1.1-6.8,4-9.7c1.5-1.5,3.8-6.8,5.4-12.1l0.6-2.1
		l-1.8-1.5L484.8,296.2z"/>
</g>
</svg>
