<?xml version="1.0" encoding="utf-8"?>
<!-- Generator: Adobe Illustrator 17.1.0, SVG Export Plug-In . SVG Version: 6.00 Build 0)  -->
<!DOCTYPE svg PUBLIC "-//W3C//DTD SVG 1.1//EN" "http://www.w3.org/Graphics/SVG/1.1/DTD/svg11.dtd">
<svg version="1.1" id="flag-icon-css-il" xmlns="http://www.w3.org/2000/svg" xmlns:xlink="http://www.w3.org/1999/xlink" x="0px"
	 y="0px" viewBox="0 0 640 480" enable-background="new 0 0 640 480" xml:space="preserve">
<g>
	<path fill="#FFFFFF" d="M366.6,110.5l6.2,2c4.3,1.4,6.4,1.8,6.9,1.5c0.4-0.2,1.1-1.9,1.5-3.7c0.2-0.7,0.3-1.4,0.4-2h-15.1V110.5z"
		/>
	<path fill="#FFFFFF" d="M322.6,136.7c1.8-1.5,2.4-2.4,2.7-3.5c0.4-1.2,0.2-1.7-0.7-3.1c-1.2-1.6-1.2-1.7-0.6-4.9
		c0.5-2.4,0.9-3.5,2-4.5c1.1-1.1,1.4-1.8,1.6-4c0.1-1.5,0.4-2.9,0.6-3.2c0.2-0.3,0.5-1.7,0.7-3.2c0.1-0.7,0.3-1.4,0.5-2.1h-20.2
		c-0.2,1-0.3,1.7-0.3,2.3c0,1-0.4,3-0.9,4.5c-0.6,1.5-2.4,8.6-4.2,15.7c-1.3,5-2.5,9.6-3.6,13.6l13.3-23.1L322.6,136.7z"/>
	<path fill="#FFFFFF" d="M341.7,369c-1.5-7.1-1.6-7.7-1.1-8.9c1.2-2.4,4.4-13.9,4.6-16.6c0.2-2.2,1.1-4.3,3.8-9.6
		c4.2-8.2,4.8-9.8,5.7-13.3c0.8-3.2,1.7-5.3,3.4-7c1-1.1,1.1-1.5,0.9-3.3c-0.2-1.2,0-3.2,0.5-5.1c0.5-2.1,0.9-3,2.3-4.5l-13.4,0
		l-34.5,58.5l-33.5-58.3l-24.4,0.1c1.6,4.6,3.1,8.1,6.3,15c4.8,10.5,5.8,13,7.2,18.9c1.2,4.8,1.6,7.8,1.6,10.3c0,3.5,0,3.7,2.1,6.7
		l2.1,3.1l-0.9,2.8c-0.7,2.1-0.9,3.3-0.7,5c0.3,2.2,0.4,2.3,3.8,4.5l3.6,2.2l1.7,4.8h59.3C342.5,373.1,342.4,372.1,341.7,369z"/>
	<path fill="#FFFFFF" d="M390.3,42.2c0.7-7.3,0.7-7.5-0.2-10.5c-0.7-2.3-0.8-3-0.3-3c0.4,0,0.7-0.8,0.9-2.2c0.1-1.2,0.5-3.3,0.7-4.5
		c0.6-2.9,1.2-9.5,1-10.5c-0.3-1.5-0.2-3.6,0.1-4.3c0.5-1.2-1.1-1.3-2.7-0.2c-1.3,0.9-1.3,0.9-2.4-0.1c-0.6-0.5-1.4-1-1.8-1
		c-1,0-1.6-0.8-2.1-2.8c-0.4-1.6-0.8-2-1.9-1.6c-0.3,0.1-0.6,0.6-0.6,1c0,0.4-0.3,1.2-0.7,1.7c-0.8,1.2-1.7,6.2-1.3,7.6
		c0.1,0.5-0.1,2.4-0.5,4.3c-0.4,1.8-0.7,3.9-0.7,4.6c0,0.8-0.5,1.8-1.4,2.6c-0.7,0.7-1.5,1.8-1.6,2.4c-0.2,0.9-0.6,1-3,1
		c-2.7,0-2.9,0-4.4,1.7c-1.5,1.7-1.6,1.8-5.1,1.9c-3.3,0.1-3.5,0-3.7-0.9c-0.1-0.6-0.6-1.2-1.1-1.3c-0.5-0.2-1.2-0.8-1.5-1.5
		c-0.7-1.2-0.7-1.2-5.9-1.1c-2.9,0-5.7,0.3-6.1,0.6c-0.5,0.2-3,0.5-5.8,0.6c-2.7,0-5,0.2-5.1,0.3c-0.1,0.1-0.8,3.8-1.6,8.2
		c-0.8,4.3-1.2,7.2-1.4,10.1h59.8C390.1,44.2,390.2,43.2,390.3,42.2z"/>
	<path fill="#FFFFFF" d="M302.6,437.8c1.4,4.3,2.7,7.8,3.4,8.9c1.4,2.2,1.6,3,1.6,5.6c0,2.2,0.3,3.5,0.9,4.6c1.3,2.1,1.3,6.5,0,8.1
		c-0.9,1.2-0.9,1.2,0.4,6c1.3,5.1,3.4,9.3,4.5,9.3c0.3,0,1.5-1.2,2.4-2.7c1-1.5,2.5-3,3.4-3.5c1.5-0.7,1.6-1,1.5-2.9
		c-0.1-2,1-5.5,2.1-6.9c1.4-1.6,3-7.9,3-11.6c0-2,0.2-3.8,0.4-4.1c0.6-0.5,2.1-4.7,3.8-10.4c0.1-0.2,0.1-0.3,0.2-0.5H302.6z"/>
	<path fill="#0000CC" d="M331.5,428.1c0-4.9,0.1-6,0.9-7.3c0.6-0.9,1.1-3.2,1.5-5.5c0.5-3.7,0.7-4.2,3.5-8.4c4.3-6.5,4.5-8,2.5-15.2
		c-1.4-4.9-1.5-5.5-0.9-6.9c0.4-0.8,0.7-2.6,0.8-3.8c0.1-1.3,0.6-2.7,0.9-3.1c0.4-0.4,0.9-1.7,1.3-2.8c0-0.1,0.1-0.2,0.1-0.4h-59.3
		l5.8,16.5c5.5,15.6,7.5,22.1,7.8,24.5c0.4,3.2,3.6,14.1,6.3,22.2h27.7C331.3,434.3,331.5,432.9,331.5,428.1z"/>
	<path fill="#0000CC" d="M334.5,103.4c1.2-0.4,2.7-1.5,3.6-2.4c1.5-1.6,7-5.9,7.7-5.9c0.2,0,1.5,1.1,2.9,2.4c2.5,2.3,2.6,2.3,4.5,2
		c2.2-0.4,8.6-0.4,10.3,0c1.7,0.4,3.1,3.8,3.1,7.8v1h15.1c0.3-1.7,0.3-3.5,0.1-7l-0.3-5.8l1.5-1.6l1.6-1.6l-0.9-1.5
		c-0.8-1.4-1.3-2.9-2-6.6c-0.2-1.2-0.1-1.3,0.9-1c1.5,0.4,3.4-0.8,4-2.5c0.3-1,1-1.5,2.6-2.2c1.6-0.6,2.1-1,2.1-1.8
		c0-0.6,0.2-2.1,0.6-3.3c0.4-1.7,0.4-3.3,0-7c-0.3-2.6-0.7-6.1-0.8-7.8c-0.1-2.1-0.6-3.5-1.4-4.7c-0.9-1.5-1.1-2-0.7-3
		c0.2-0.5,0.6-2.9,0.9-5.8h-59.8c-0.1,1.2-0.1,2.3-0.1,3.5c0,4.5-0.2,6.1-0.9,7.7c-1.8,4.1-4.5,5.5-7,3.6c-1.1-0.8-1.7-0.9-3-0.7
		c-2.4,0.5-2.8,1.8-2.4,7.8c0.3,4.7,0.3,5.1-0.8,7.3c-1.2,2.3-1.8,6.3-2.7,16.6c-0.2,2.4-0.8,5.8-1.3,7.5c-1.3,4.3-2.2,7.6-2.6,9.9
		h20.2C330.3,106,332.1,104.3,334.5,103.4z"/>
	<polygon fill="#0000CC" points="314,332.1 295.7,301.1 280.3,301.1 313.8,359.4 348.3,300.9 332.9,300.9 	"/>
	<polygon fill="#FFFFFF" points="332.9,300.9 295.7,301.1 314,332.1 	"/>
	<path fill="#0000CC" d="M251.9,256.2c-1.8,1.6-4.3,3.9-5.6,5.1l-2.3,2.1l1.5,4.4l7.5-12.5L251.9,256.2z"/>
	<path fill="#0000CC" d="M365.7,231.8c0.5-1.9,0.9-3.5,0.9-3.6c0,0-0.5-0.1-1.1-0.1c-0.7,0-2.2,0.9-3.9,2.5c0,0,0,0-0.1,0.1l3.5,6.2
		C365.1,235.1,365.3,233.3,365.7,231.8z"/>
	<path fill="#0000CC" d="M287.1,192.2l52.3-0.5l2.7,4.8c0.6-0.1,1.4-0.1,2.4-0.1c2.3,0,4.4-0.2,4.6-0.4c0.2-0.1-0.3-0.9-0.9-1.6
		c-0.7-0.7-1.3-1.9-1.3-2.5c0-1.8-1.3-2.6-5.1-3.4c-1.9-0.4-4.4-1.3-5.6-2.1c-1.2-0.7-3.1-1.6-4.4-2c-2.4-0.7-2.4-0.7-3.8,1.7
		c-0.4,0.7-1.3,0.9-3.9,1c-3.9,0.2-4.7-0.3-4.7-2.9c0-1.9,0.7-2.7,3.4-3.7l1.5-0.6l-29.9,0.1l0,0h-0.1l0.1,0l19.6-33.4l9.1,15
		c0.1-0.8,0.2-1.6,0.3-2.3c0.2-2.6,0.2-3-0.9-4.2c-0.9-1.1-1.1-1.6-0.7-2.5c0.3-0.7,0.2-1.5-0.1-2c-0.3-0.6-0.4-1.7-0.2-2.7
		c0.2-1.4,0.1-1.9-0.4-2.1c-0.9-0.4-2.2-3.3-2.2-5.1c0-1,0.5-1.7,1.7-2.6c0.8-0.6,1.5-1.2,2.1-1.7l-9.1-15.4l-13.3,23.1
		c-1.8,6.5-3.3,11.1-4.1,12.3c-0.4,0.6-1.3,3.4-2.1,6.3c-0.9,3.2-2.5,7.4-4.2,10.8c-1.5,3-2.9,6.1-3,6.8c-0.1,0.7-1.5,4.1-3.1,7.6
		c-1.5,3.5-2.8,6.6-2.8,6.9s-1.3,2.4-2.9,4.5c-1.6,2.2-3,4.4-3.3,5.1c-0.2,0.7-1.8,3.2-3.5,5.8c-1.6,2.5-2.9,4.9-2.8,5.2
		c0.1,0.3,1.4,1.5,2.8,2.5c0.4,0.3,0.7,0.6,1.1,0.9L287.1,192.2L287.1,192.2z"/>
	<path fill="#0000CC" d="M295.7,301.1l37.2-0.1l15.4-0.1l13.4,0c0.3-0.4,0.7-0.7,1.2-1.2l2.7-2.6l0.2-3.7c0.1-2.2,0.3-3.4,0.9-5
		l-10.9-0.1l8.8-14.7c0,0,0,0,0-0.1c-0.2-0.9-0.9-2.9-1.7-4.4c-2.3-5-1.6-7.9,1.9-8.2c1.2-0.1,1.6-0.3,1.5-0.8
		c-0.1-0.4-0.3-2-0.4-3.7c-0.2-2.6-0.1-3.1,0.9-4.1c1-1.1,1.1-1.2,0.3-2.5c-0.7-1.1-0.7-1.6-0.3-2.3c0.5-1,0.2-2.9-0.7-4.4
		c0,0,0,0,0,0L337.1,289l-49.6-1.1l-27.1-47.3l4-7.2c-0.2,0.3-0.5,0.5-0.6,0.7c-0.6,0.7-2.4,2.5-4.1,4.1c-4.3,4.2-5.1,6.2-4.8,11.1
		l0.3,3.9l-1.8,1.7l18,33.6l-19.3,0c0.3,1,0.6,1.9,0.9,2.9c1.2,4.1,2.2,7.1,3.1,9.7l24.4-0.1L295.7,301.1z"/>
	<path fill="#FFFFFF" d="M253.3,255l-0.4,0.4l-7.5,12.5l1.1,3.4c1.2,3.7,3.6,11.1,5.5,17.5l19.3,0L253.3,255z"/>
	<path fill="#FFFFFF" d="M294.4,180.1l29.9-0.1l0.7-0.3v-2.3c0-2.2-0.1-2.4-1.7-3.3l-1.7-1l0.3-2.9c0.2-1.6,0.5-4,0.8-5.4
		c0.1-0.8,0.3-2,0.4-3.1l-9.1-15L294.4,180.1z"/>
	<path fill="#FFFFFF" d="M355.7,288.2l10.9,0.1c0.3-0.7,0.6-1.4,1-2.2c1.8-3.7,3.2-6.9,3.2-7.5c0-0.2-0.5-0.2-1.2-0.1
		c-2.8,0.5-4.2-0.8-5.1-5L355.7,288.2z"/>
	<path fill="#FFFFFF" d="M287.5,287.9l49.6,1.1l28.7-46.3c-0.6-1.1-0.9-3.4-0.8-6l-3.5-6.2c-1.5,1.3-3.4,2.8-4.3,3.3
		c-0.9,0.5-2.2,1.5-2.9,2.3c-1.8,2.2-7.1,5.9-10.3,7.2c-2.5,1-3.6,1.1-12.1,1.3c-6.9,0.1-10.2,0.4-12.5,0.9c-3,0.8-3.2,0.8-5.2-0.1
		c-1.8-0.8-2.2-1.3-2.5-2.5c-0.6-2.9-0.3-4.3,1.9-8.3c2.4-4.5,3.9-10.4,3.9-15.3c0-2.5,0.1-2.9,1.6-4.5c0.9-1,1.7-2.4,1.9-3.1
		c0.1-0.7,0.3-1.5,0.4-1.8c0-0.3,2.5-1.7,5.3-3.2c3.9-2.1,5.2-2.9,5.2-3.7c0-0.6,0.6-1.3,1.4-1.7c0.8-0.4,1.6-1.2,1.9-1.8
		c0.3-0.7,0.9-1,1.7-1c0.7,0,1.7-0.5,2.3-1c0.7-0.6,1.3-0.9,2.9-1.1l-2.7-4.8l-52.3,0.5v0.1l-14.8,26.7c1.1,0.9,2,1.9,2.3,2.6
		l0.7,1.5l-3.1,2.9c-3.3,2.9-6.2,5.8-7.9,7.5l-4,7.2L287.5,287.9z"/>
	<polygon fill="#FFFFFF" points="294.4,180.1 294.4,180.1 294.3,180.1 	"/>
</g>
</svg>
