<?xml version="1.0" encoding="utf-8"?>
<!-- Generator: Adobe Illustrator 17.1.0, SVG Export Plug-In . SVG Version: 6.00 Build 0)  -->
<!DOCTYPE svg PUBLIC "-//W3C//DTD SVG 1.1//EN" "http://www.w3.org/Graphics/SVG/1.1/DTD/svg11.dtd">
<svg version="1.1" id="flag-icon-css-im" xmlns="http://www.w3.org/2000/svg" xmlns:xlink="http://www.w3.org/1999/xlink" x="0px"
	 y="0px" viewBox="0 0 640 480" enable-background="new 0 0 640 480" xml:space="preserve">
<g>
	<path fill="#BA0000" d="M295.9,412.7l10.1-38.2c0.6-3.8,1.3-11.1-2.6-18.8c-5-4.8-10.7-8.7-16.9-11.7
		c-13.5-10.1-32.5-22.8-45.1-40.1c-3.3-1.1-3.9-3.2-10.3-3.9c-3.1-0.3-6.1-2-8.3-4.7c-3.7-5.7-8.3-11.4-8.3-19.8
		c-0.9-6.6,2.8-13.6,9.7-18.8c6.6-6.3,12-13.7,15.8-22c3.8-4.9,31.3-36.4,38.5-40.1c0.2-0.2,0.4-0.3,0.6-0.5l-0.1,0
		c1.4-0.9,2.4-3.7,1.9-6.3v0.1c-0.1-0.1,0-0.1,0.3-0.1c-0.4-4.3-0.9-8.5-1.4-12.7c-1.3,3.4-2.6,5.7-4.9,9c-1.2,1.8-3.2,5.3-4.5,7.7
		c-2.5,5-4,6.7-16.8,20.8c-16.6,18.2-17.9,19.8-19.9,24c-1.9,3.9-1.9,3.9-6.4,6.8c-9.2,5.9-22.3,13.4-23.6,13.4
		c-0.4,0-1.4-0.5-2.1-1.2c-0.8-0.7-1.6-1.2-1.8-1.2c-0.2,0-1,1.5-1.7,3.3c-1.2,2.9-1.5,3.4-3.3,4.1c-1.8,0.8-5.8,5.2-9.6,10.7
		c-1.4,2.1-1.4,2.7,0.6,8.5s2.1,7.1,0.5,10.4c-0.8,1.7-1.2,3.3-1.2,5c0,1.4-0.3,4.6-0.7,7c-1,6.1-3.4,10-10.6,17.6
		c-3,3.1-5.8,6.4-6.2,7.2c-0.7,1.2-0.7,2.4-0.6,5.7c0.2,5.4,1.3,7.8,4.8,11.2c2.5,2.4,2.6,2.7,2.6,4.8c0,1.3-0.4,4-0.9,6.2l-0.9,3.9
		l1.4,2.9l1.4,2.9l-1.9,7.4c-1.2,4.6-1.9,8.5-1.9,10.3c0,2.5-0.2,3.1-1.7,5.2c-3.7,5.1-7.1,10.6-7.7,12.2c-0.3,1-0.9,2.8-1.4,4.2
		c-0.8,2.3-0.9,2.4-2.2,1.9c-1.9-0.7-3.2-0.2-6.4,2.4c-2.1,1.7-2.9,2.8-3.2,3.9c-0.4,2-1.6,3.9-4.9,7.9c-3.6,4.4-4.1,7-1.8,10.3
		c0.9,1.2,1.2,1.3,4.1,1.4c4.1,0,6.3,0.7,6.8,2.4c0.3,0.9,0.2,1.5-0.3,2.4c-0.8,1.2-1.2,1.4-4.6,1.9c-1.5,0.2-1.9,0.6-3.3,3.2
		c-2.7,4.7-4.3,6.7-7.2,8.6c-3.3,2.2-4.4,3.5-5.3,5.7c-0.3,0.9-1.2,3.1-2,4.8c-1.8,4.2-1.7,6.2,0.6,7.6c3.5,2.2,4.6,3.5,5.7,6.4
		l1.1,2.9l2.1,0.1c1.2,0.1,3.2,0,4.4-0.2c1.8-0.3,2.3-0.6,2.4-1.3c0-0.5,0.2-2.1,0.4-3.5l0.3-2.6l5.3,0c5,0,5.3,0,6.5-1.1
		c1.7-1.5,3.3-4.8,4.2-8.6c0.5-1.9,1-3.1,1.4-3.1c0.4,0,2.1,0.7,3.8,1.7c2.4,1.3,3.5,1.6,4.5,1.4c3.1-0.6,3.3-2.2,1.2-7.6
		c-0.7-2-1.4-4.2-1.3-4.8c0.1-1.3,0-1.3,4.3-0.8c0.8,0.1,1-0.2,1.2-3c0.2-2.7,0.4-3.4,1.5-4.4c1.3-1.2,1.5-1.3,8.9-1.7
		c13.1-0.7,15.6-0.2,17,3.4c0.5,1.1,1.9,2.8,3.9,4.6c1.8,1.6,3.5,3.6,4,4.8c0.8,1.9,0.8,2,0,4.2c-1.9,5.2,1.1,8.5,9.9,11.2
		c1.9,0.6,3.7,0.9,4.1,0.7c1-0.4,2.1-3.2,2.1-5.7c0-4.3,2.7-7.5,9.7-11.5c5.8-3.3,7.3-3.5,12.2-2c4,1.3,7.3,3.4,8.5,5.5
		c0.6,1.1,0.6,1.5-0.1,4.4c-0.9,3.6-3,8.1-6.4,13.6c-1.3,2.1-2.3,4-2.2,4.1c0.1,0.2,8.6,2.1,9.2,2.1c0.8,0,3-3.5,8-12.8
		c2.6-4.9,5.7-10.6,6.9-12.6l2.1-3.7l-1.2-0.9c-2.5-2-7.9-7.5-7.9-8c0-1.3,4.9-7.8,8.5-11.3c4.9-4.7,9.7-7.9,16.4-11.2l2.1-1
		C295.6,415.8,295.6,414.4,295.9,412.7z"/>
	<path fill="#BA0000" d="M450.1,141.7c-1,3-2.1,10.5-1.9,20.4c-2.1,16.8-3.9,39.6-12.8,59.1c0.6,3.4-0.9,4.9,1.5,10.9
		c1.4,2.8,1.3,6.3,0,9.4c-3.2,6.2-5.8,13-13.2,16.9c-5.4,4.1-13.3,4.3-21.2,0.9c-8.3-2.7-19.2-3.8-26.9-3
		c-6.2-0.8-47.2-9.5-53.9-13.9h-0.1c-0.6-0.2-1.2-0.5-1.8-0.7c-1.9,0-4.2,0.1-4.2-0.1c-0.2-0.2-0.4-0.4-0.6-0.6
		c-17.6,11.3-32.2,22.4-50.8,32.5c-1.8,1.4-3.8,4.5-0.9,5.6c3.4,1.3,5.2,2.3,10.7,4.9c3.6,2.3,5.5,3.9,9.2,7.9
		c5.5,4.1,29.1,33.9,33.9,47.9c0.5,0,10.6,10.2,10.6,10.2l8.6,3.2c0.1,0,0.1,0.1,0.2,0.1c0.2-0.9,0.5-6.3,0.4-6.3
		c-0.2,0-8.8-10.2-8.6-10.2c0.2,0,11.1,2.4,11.1,2.1c0-0.4,4.4-10.8,4.4-11l5.3,12.7l10.8,4.7l-7.5,6.3l1.6,12.2
		c0,0.3-7.5-7.1-7.5-7.1l-5.1,0.6c1.4,2.5,1.4,6.1-2.6,10.8c0,0.5-4.6,2.3-4.6,2.3l-12,16.1c-6.3,22.2-11.2,26.3-15,29
		c8.6,0,9.2-0.2,11.9-3.2c1.4-1.5,1.8-2.6,2.5-5.7c0.5-2.1,1.3-4.5,1.8-5.3c0.5-0.8,2.7-2.5,4.8-3.7l3.8-2.2v-3.6
		c0-3.7,0.7-6.5,2.1-8c2.8-3.1,10.6-4.5,15.8-2.8c2.1,0.7,3,0.8,3.7,0.5c0.5-0.3,3-2.5,5.6-5c6-5.8,8.2-7.5,11.9-9.4
		c4.2-2.1,9.2-5.5,10.1-6.8c1.2-1.8-0.4-4.4-5.6-9.5c-2.8-2.7-4.5-4.8-4.5-5.4c0-2.6,3.9-8.8,8-12.9c4.1-4.1,4.8-4.3,10.9-4
		c4.8,0.3,5.5,0.2,8.9-0.9c6.3-2.1,14.7-7.1,14.7-8.7c0-1.8,3.2-4.2,7.3-5.7c2.1-0.7,4.8-2,5.9-2.7c2-1.3,2.4-2.1,4.2-7.2
		c0.1-0.3,1.4-2.1,2.9-4c5.7-7.2,7-9.9,5.8-12c-0.3-0.5-2.1-2.9-4.1-5.3c-4-4.9-6.2-9-6.5-12.4c-0.2-2,0-2.8,1.6-6
		c2-4.1,4.7-7.8,6.9-9.8c0.8-0.7,3.2-2,5.4-3c6.9-3.2,9.5-7.6,11.6-19.7c1.3-7.3,2.5-9.6,9.5-17.7c7.3-8.5,8.5-10.5,9.2-14.8
		c0.6-4.4,1.7-6.2,7.9-12.2c5.7-5.6,8.2-8.6,8.9-10.4c0.3-0.7,0.9-3.3,1.4-5.7c1-5.1,2.1-6.8,4.9-8.1c1.4-0.7,2.2-1.4,2.6-2.5
		c0.7-2.2,0.6-4.4-0.4-6.4c-2.4-4.7-9-7.7-23.1-10.3c-5-0.9-6.1-1.4-9.8-4.3l-1.3-1.1l-1.2,1.5c-0.8,1-1.6,1.5-2.4,1.5
		c-1.4,0-4.1-1.5-6.9-3.6C452.8,138.2,451.4,139.8,450.1,141.7z"/>
	<path fill="#BA0000" d="M453.4,0.7c-0.4,0-3.3,1.4-6.3,3.2c-3,1.8-6.5,3.5-7.7,4c-1.2,0.5-7.6,3.1-14.1,5.9
		c-18.4,7.9-26.2,10.2-34.6,10.2c-3.3,0-4,0.2-6.6,1.6c-7.5,3.9-17.6,10.9-36.3,24.8c-7.3,5.5-15.1,11.1-17.3,12.5
		c-6.4,4.2-8.6,6.1-11.3,10.3c-5.4,8.1-7.7,14.1-8.3,21.4c-0.2,2.5-0.6,5.3-1.2,8.1c0,0.1,0,0.1,0,0.2c2.5,8.7,6.7,16.9,12.2,24.2
		c2.5,5.2,16.2,40.2,17.7,51c0.6-0.5,1-0.8,1-0.8c0.2,1.9,1,6.7,3.2,7.7c-0.5,0.4-1.1,0.9-1.6,1.3l1.3,0.6c18.9,10,36,17.4,54,28.7
		c2.1,0.9,5.8,1.1,5.4-1.9c-1.6-10-1-7-1-11.8c-0.6-6.3,1.8-5.1,2.3-11.5c0.9-6.9,15.5-42.4,25.4-53.5c-0.2-0.4,3.7-14.1,3.7-14.1
		l-1.5-9.2c0-0.1,0-0.1,0-0.2c-0.9,0.2-5.8,2.6-5.7,2.8c0.1,0.1-4.5,12.7-4.6,12.6c-0.1-0.2-3.3-11-3.7-10.8
		c-0.3,0.2-11.6,1.5-11.7,1.6l8.5-10.8l-1.2-11.8l9.2,3.6l9.9-7.5c0.2-0.1-2.5,10.2-2.5,10.2l3,4.1c1.3-2.1,3.9-3.7,8.5-3.3
		c-0.1-1.2-0.3-2.2-0.3-3.2c-0.8-9.5,2.8-26.2,8.7-39.7c3.4-7.8,4.5-11.4,5.3-16.3c1.2-7.4,2.6-25.9,2.6-34.3V2.3l-1.6-0.8
		C454.9,1.1,453.8,0.7,453.4,0.7z"/>
	<path fill="#FFEF00" d="M341.7,357.2l5.1-0.6c0,0,7.5,7.4,7.5,7.1l-1.6-12.2l7.5-6.3l-10.8-4.7l-5.3-12.7c0,0.2-4.4,10.6-4.4,11
		c0,0.4-10.9-2.1-11.1-2.1c-0.2,0,8.5,10.2,8.6,10.2c0.2,0-0.2,5.4-0.4,6.3C338.7,354.1,340.6,355.3,341.7,357.2z"/>
	<path fill="#FFFFFF" d="M322.5,386.4l12-16.1c0,0,4.6-1.9,4.6-2.3c4-4.7,4-8.3,2.6-10.8c-1.1-1.9-3-3.2-4.7-3.9
		c-0.1,0-0.1-0.1-0.2-0.1l-8.6-3.2c0,0-10.2-10.2-10.6-10.2c-4.8-14-28.5-43.8-33.9-47.9c-3.8-4-5.6-5.6-9.2-7.9
		c-5.5-2.6-7.3-3.6-10.7-4.9c-2.8-1.1-0.8-4.2,0.9-5.6c18.5-10.1,33.1-21.2,50.8-32.5c-5.6-7.2-7.6-34.3-7.6-34.3l-25.2-11.2
		l-0.6-0.2l0-0.1L279,194c-0.2,0.2-0.4,0.4-0.6,0.5c-7.2,3.8-34.8,35.3-38.5,40.1c-3.8,8.3-9.2,15.7-15.8,22
		c-6.9,5.2-10.6,12.2-9.7,18.8c0,8.5,4.6,14.1,8.3,19.8c2.2,2.7,5.2,4.4,8.3,4.7c6.5,0.8,7,2.8,10.3,3.9
		c12.6,17.3,31.6,30.1,45.1,40.1c6.2,3,11.9,6.9,16.9,11.7c3.9,7.7,3.2,15,2.6,18.8l-10.1,38.2c-0.3,1.8-0.3,3.2,0,4.3l3.1-1.5h8.1
		c0.2,0,0.3,0,0.5,0C311.3,412.8,316.2,408.7,322.5,386.4z M258.9,285.6c-3.8,3.5-4.6,3.7-6.9,1.5c-2.3-2.7-2.9-3.9-4.8-4.9
		c-3.7-1.7-11.1-0.4-11.3-0.4l-3.9,1.5c-1.9,0.7-3,2.3-6.1,2.8c-3.3,0.2-4.3-0.1-5.9-2.7c-2.2-3.3-1.1-7.3,2.2-7.7
		c3.9-0.3,10.6,0.9,10.8,0.9l8.8-0.2c4.7-0.4,5.6-2.2,6.4-3.5c1.8-2.6,2.9-3.6,4.3-5.6c2.1-1.5,5.1,2.2,5.2,2.2
		C265.3,276.6,259.3,285.3,258.9,285.6z M301.3,397.1l2.1-8.7v-0.1c0-0.4,18.8-3.8,18.8-3.8l-2.4,7L301.3,397.1z"/>
	<path fill="#FFEC00" d="M322.2,384.6c0,0-18.8,3.4-18.8,3.8v0.1l-2.1,8.7l18.5-5.6L322.2,384.6z"/>
	<path fill="#FFE606" d="M252.6,267.3c-1.4,2.1-2.5,3-4.3,5.6c-0.8,1.3-1.7,3.1-6.4,3.5l-8.8,0.2c-0.2,0-6.9-1.2-10.8-0.9
		c-3.3,0.4-4.3,4.4-2.2,7.7c1.6,2.6,2.6,2.9,5.9,2.7c3.1-0.6,4.2-2.2,6.1-2.8l3.9-1.5c0.2,0,7.6-1.3,11.3,0.4
		c1.9,0.9,2.5,2.2,4.8,4.9c2.3,2.2,3.1,2,6.9-1.5c0.4-0.3,6.4-8.9-1.1-16.1C257.7,269.5,254.7,265.8,252.6,267.3z"/>
	<path fill="#FFEF00" d="M432.7,107.4l-3-4.1c0,0,2.7-10.2,2.5-10.2l-9.9,7.5l-9.2-3.6l1.2,11.8l-8.5,10.8
		c0.1-0.1,11.4-1.4,11.7-1.6c0.4-0.2,3.6,10.6,3.7,10.8c0.1,0.1,4.7-12.5,4.6-12.6c-0.1-0.2,4.8-2.6,5.7-2.8
		C431.4,111.6,431.5,109.3,432.7,107.4z"/>
	<path fill="#FFFFFF" d="M432.7,107.4c-1.2,1.9-1.3,4.2-1.1,6c0,0.1,0,0.1,0,0.2l1.5,9.2c0,0-3.9,13.7-3.7,14.1
		c-9.9,11.1-24.4,46.6-25.4,53.5c-0.5,6.4-2.8,5.2-2.3,11.5c0,4.9-0.6,1.9,1,11.8c0.5,3-3.3,2.8-5.4,1.9c-18-11.3-35.2-18.7-54-28.7
		l-1.3-0.6c-8.1,6.6-15.6,13-23.7,19.6c0.6,11.3-1.4,23.2,4.2,35.7c0,0-1.2,0-2.6,0.1c0.6,0.2,1.2,0.4,1.8,0.7h0.1
		c6.7,4.4,47.7,13.1,53.9,13.9c7.7-0.8,18.6,0.3,26.9,3c7.8,3.4,15.8,3.2,21.2-0.9c7.3-3.9,10-10.7,13.2-16.9c1.3-3.1,1.4-6.6,0-9.4
		c-2.4-6-0.9-7.5-1.5-10.9c8.8-19.6,10.7-42.3,12.8-59.1c-0.2-9.9,0.8-17.4,1.9-20.4c1.2-1.8,2.7-3.5,4.2-4.9
		c-1.4-1.1-2.8-2.3-4.1-3.6l-3.8-3.7l-1.7-7c-1.6-6.5-2.8-13-3.5-18.2C436.6,103.8,434,105.3,432.7,107.4z M427.9,249.6
		c-1.9,3.6-5.8,4.6-7.8,2c-2.2-3.4-4.4-9.8-4.5-9.9l-4.4-7.7c-2.6-3.8-4.7-3.8-6.2-3.8c-3.2-0.3-4.6-0.9-7-1
		c-2.4-1.1-0.7-5.5-0.8-5.6c2.5-10,13.2-9,13.5-8.8c4.8,1.6,5.4,2.3,4.6,5.3c-1.2,3.3-1.9,4.5-1.9,6.6c0.3,3.9,5.2,9.9,5.2,10
		l3.2,2.6c1.5,1.3,3.5,1.5,5.5,4C429.2,245.9,429.4,246.9,427.9,249.6z"/>
	<path fill="#FFE606" d="M421.9,239.1l-3.2-2.6c0-0.1-4.9-6-5.2-10c0-2.1,0.7-3.3,1.9-6.6c0.8-3,0.2-3.7-4.6-5.3
		c-0.4-0.2-11-1.1-13.5,8.8c0.1,0.1-1.7,4.5,0.8,5.6c2.4,0.1,3.8,0.8,7,1c1.5,0,3.6,0,6.2,3.8l4.4,7.7c0.1,0.1,2.3,6.5,4.5,9.9
		c2,2.6,5.9,1.6,7.8-2c1.5-2.6,1.2-3.7-0.6-6.4C425.4,240.6,423.4,240.5,421.9,239.1z"/>
	<path fill="#FFFFFF" d="M312.5,198.3c4.8-1.7,22.7-16.5,27.1-20.2c-1.6-10.8-15.2-45.8-17.7-51c-5.6-7.2-9.7-15.4-12.2-24.2
		c0-0.1,0-0.1,0-0.2c-1.1,5.1-2.6,10.2-4.2,13.4c-0.6,1.2-2.1,3-3.4,4.1c-1.7,1.4-3.2,3.4-5.3,7.2c-6.8,11.8-9.2,18.2-12.9,33.2
		c-1.7,6.9-2.8,11.1-4,14.3c0.5,4.1,1,8.3,1.4,12.7C284.5,188.4,308.8,198.3,312.5,198.3z"/>
	<polygon fill="#FFFFFF" points="282,195.3 282.5,195.5 281.9,195.3 	"/>
	<path fill="#FFEF00" d="M281.1,187.6c-0.3-0.1-0.5-0.1-0.3,0.1v-0.1c0.6,2.6-0.5,5.4-1.9,6.3l0.1,0l2.9,1.3l0.6,0.3l25.2,11.2
		c0,0,2,27.1,7.6,34.3c0.2,0.2,0.4,0.5,0.6,0.6c0,0.1,2.3,0.1,4.2,0.1c1.4,0,2.6-0.1,2.6-0.1c-5.6-12.5-3.7-24.4-4.2-35.7
		c8.2-6.6,15.7-13.1,23.7-19.6c0.5-0.4,1.1-0.9,1.6-1.3c-2.2-1-3-5.8-3.2-7.7c0,0-0.4,0.3-1,0.8c-4.4,3.7-22.3,18.5-27.1,20.2
		C308.8,198.3,284.5,188.4,281.1,187.6z"/>
</g>
</svg>
