<?xml version="1.0" encoding="utf-8"?>
<!-- Generator: Adobe Illustrator 17.1.0, SVG Export Plug-In . SVG Version: 6.00 Build 0)  -->
<!DOCTYPE svg PUBLIC "-//W3C//DTD SVG 1.1//EN" "http://www.w3.org/Graphics/SVG/1.1/DTD/svg11.dtd">
<svg version="1.1" id="flag-icon-css-in" xmlns="http://www.w3.org/2000/svg" xmlns:xlink="http://www.w3.org/1999/xlink" x="0px"
	 y="0px" viewBox="0 0 640 480" enable-background="new 0 0 640 480" xml:space="preserve">
<g>
	<path fill="#FF9933" d="M554.6,118.6c-0.7-0.1-2-0.2-2.8-0.2c-0.9,0-2.4-0.3-3.5-0.9c-2.5-1.3-4-1.3-5-0.1
		c-0.5,0.5-1.2,0.9-1.7,0.9c-0.7,0-0.8-0.4-0.8-2.7c0-2.3,0.2-2.8,1.4-4.2l1.4-1.4l-1.8-1.5c-1.2-1-2.1-1.4-2.8-1.3
		c-0.6,0.1-1.4-0.1-1.9-0.7c-0.8-0.9-0.5-1.6,1-1.9c1.7-0.3,1.2-1.1-1.4-2.1c-3.5-1.4-4.9-1.3-7.4,0.6c-1.4,1-2.7,1.6-3.5,1.6
		c-1.1,0-1.4,0.2-1.4,0.8c0,0.5-0.4,1.2-0.8,1.6c-1.2,1-5.5,0.2-7.1-1.3c-2.1-2-3.5-1.9-4.6,0.1c-0.3,0.6-1.5,1.4-2.6,1.8
		c-1.6,0.6-2.1,1.1-2.3,2.1c-0.2,1-0.6,1.4-1.5,1.5c-0.9,0.1-1.4,0.5-1.8,1.5c-1.1,2.9-1.6,3.5-3.4,3.5c-3.3,0-7.2,2.4-7.2,4.5
		c0,2.1-0.9,3.2-3.3,4.1c-1.3,0.5-2.8,1.4-3.4,2.1c-0.7,0.7-1.8,2-2.5,2.8c-1.2,1.3-1.8,1.6-4.9,2.1c-2.3,0.3-3.8,0.8-4.5,1.4
		c-0.9,0.8-1.4,0.8-3,0.5c-1.8-0.3-2.1-0.6-2.2-1.7c-0.1-1-0.5-1.4-1.9-1.7c-1-0.3-2.1-0.8-2.4-1.2c-0.7-0.8-1.7-0.9-2.2-0.1
		c-0.2,0.3-0.9,0.9-1.6,1.4c-1.1,0.7-1.3,0.7-1.8,0.1c-0.7-0.9-2.8-0.9-4.5,0c-1.3,0.7-1.4,0.6-1.5-0.1c-0.2-1-1.4-2.4-2.1-2.4
		c-0.3,0-0.9-0.4-1.4-0.9c-1.4-1.5-3.7-1.6-6.2-0.3c-1.2,0.7-3.2,1.4-4.5,1.7c-2.1,0.6-2.4,0.9-3.6,3c-0.9,1.5-1.4,3.1-1.4,4.2
		c0,1.7-0.2,2-3.1,4.2c-4,3.1-4.5,2.8-4.3-2.4c0.1-2.7,0-4.1-0.5-4.9c-0.8-1.2-2.6-1.4-4-0.4c-0.5,0.4-2,0.7-3.2,0.8l-2.3,0.1
		l-0.6,3c-0.3,1.7-0.9,4.8-1.4,6.9l-0.7,3.9l1.2,1.4c1.4,1.7,1.5,3.5,0.3,5.1c-0.6,0.7-0.9,1.9-0.9,3.1c0,2,0,2-1.2,1.4
		c-0.9-0.4-1.3-0.4-1.6,0.1c-0.2,0.4-1.4,0.6-3.2,0.7c-1.5,0-3.1,0.3-3.5,0.7c-0.1,0.1-0.2,0.1-0.2,0.1h18.6c0-0.6-0.2-1.3-0.5-2.1
		c-0.3-0.5-0.4-1-0.2-1.2c0.5-0.5,4.3,1.3,5.4,2.4c0.3,0.3,0.7,0.6,1,0.8h2.1c0.1-0.1,0.2-0.3,0.2-0.5c0-1.4,1.5-0.9,2.5,0.5h91.8
		c0.2-1.8,0.2-3.8,0.1-5.7c-0.3-4.9,0.3-6.4,2.5-6.2c1.2,0.1,1.7-0.1,2.7-1.5c0.7-0.9,1.7-1.7,2.2-1.7c0.6,0,1.1-0.5,1.4-1.4
		c0.3-0.8,1-1.5,1.5-1.6c0.6-0.1,2.1-1.5,3.5-2.9c2.5-2.7,2.6-2.7,4.2-2.3c1.4,0.4,1.9,0.3,2.7-0.4c0.9-0.8,1.2-0.8,2.5-0.3
		c2.1,0.9,4.4,1.2,4.7,0.6c0.2-0.3-0.6-1.5-1.8-2.8c-1.2-1.3-2.1-2.6-2.1-3c0-0.4,1-1.5,2.2-2.5c3.5-2.8,3.8-3.3,3.7-6.6
		C555.8,119,555.7,118.8,554.6,118.6z"/>
	<path fill="#FF9933" d="M401.7,158.9c-0.7-1.1-2.7-1.2-3.1-0.2c-0.3,0.9-1.1,0.9-4.3-0.4c-3.3-1.3-10.1-2.4-12.7-1.9
		c-1.8,0.3-1.9,0.3-2.3-1.3c-0.5-1.9-1.9-2.2-4.1-1c-1.5,0.8-1.6,0.8-2.7-0.2c-0.8-0.8-1.5-1-2.3-0.8c-0.8,0.2-1.4-0.1-2.5-1.2
		c-4-4.2-11.1-8.8-13.6-8.8c-0.3,0-1.3,0.5-2.1,1c-1.2,0.9-1.5,1-2.9,0.5c-2.1-0.7-2.6-0.7-4.7,0.4l-1.8,0.9l-2.5-1.2
		c-1.4-0.7-3.3-1.2-4.2-1.2c-1.2,0-1.8-0.3-2.6-1.4c-1-1.3-1.2-1.4-3.6-1.3c-2.5,0.1-2.7,0-5.1-2.1c-2.3-2.1-2.7-2.2-3.7-1.7
		c-2,0.9-2.8,0.6-5.6-1.7c-2.1-1.8-2.8-2.7-3.2-4.2c-0.5-1.8-0.7-2.1-3.3-3.1c-1.5-0.7-3.4-1.6-4.2-2.1c-1.1-0.8-1.7-0.9-3.5-0.7
		c-1.9,0.2-2.3,0.1-3.1-0.7c-0.5-0.6-1.6-1.6-2.5-2.3l-1.6-1.3l1.3-1c1.3-1,1.3-1.1,1-4.6c-0.3-3.4-0.2-3.6,0.9-5
		c0.7-0.8,1.2-1.9,1.2-2.4c0-0.7,0.6-1.2,1.7-1.8c1.1-0.6,2.1-1.4,2.5-2.5c0.5-0.9,1.4-2.1,2-2.8c2.5-2.4,1.3-3.9-5.7-7.3l-2.9-1.4
		l0.1-1.9c0.1-2.4-0.2-3-1.8-3c-0.7,0-1.7-0.5-2.3-1c-0.7-0.7-2-1.1-4-1.4c-2.5-0.3-3.1-0.6-4.2-1.9c-0.7-0.8-1.6-2.3-2-3.2
		c-1.4-3.3-3-4.1-4.9-2.3c-1.3,1.3-1.5,0.9-0.9-1.4c0.4-1.4,0.4-2.2-0.1-3.4c-0.4-0.9-0.8-2.5-1-3.6c-0.2-1.3-0.6-2.1-1.2-2.3
		c-1.2-0.5-3.2-3.5-3.5-5.4c-0.2-1.1,0-2.1,0.4-3c1.4-2.7,3.1-2.8,4.4-0.2c0.3,0.6,1.4,1.5,2.5,2.1l1.9,1l3.3-2.3
		c3.4-2.4,4.2-3.7,3.3-5.6c-0.2-0.5-0.6-1.6-0.8-2.6c-0.5-1.7-0.7-1.9-2.8-2.4c-2.6-0.7-4.1-1.8-4.1-3.1c0-0.6-0.5-1.5-1-2.1
		c-0.9-0.9-1.1-1.6-1-3.7c0.1-2.3,0.2-2.7,1.6-3.9c1.2-0.9,2.3-1.4,4.1-1.5c1.4-0.1,2.6-0.4,2.7-0.5c0.1-0.1,0.5-1.7,0.8-3.5
		c0.7-3.8,1.7-5.2,3.5-5.2c1.4,0,3.7-1.6,3.7-2.6c0-0.3,0.7-2.1,1.6-3.8c0.9-1.7,1.6-3.8,1.6-4.6s0.4-2.1,0.9-2.8
		c1.2-1.8,1.2-3.5,0-3.5c-0.5,0-1.8,0.3-2.8,0.7c-1.1,0.4-2.1,0.7-2.1,0.7c0,0-0.4-0.6-0.7-1.4c-0.4-1-1-1.5-2-1.7
		c-2-0.4-3.1-1.5-3.1-3c0-0.7-0.3-1.5-0.7-1.8c-1.1-0.9-3.7-1.1-4.9-0.3c-0.7,0.4-1.9,0.7-2.7,0.7c-3,0-5.6,1-8.1,3.1
		c-2.7,2.2-5.8,3.6-9.3,4.2c-1.2,0.2-4.2,1.4-6.6,2.6l-4.5,2.3l-0.8,2.6c-0.4,1.5-1.4,3.3-2.3,4.3c-1.4,1.6-1.6,1.7-5.6,2
		c-3.3,0.2-4.9,0.6-7.4,1.8c-3.9,1.8-6.1,1.9-9.8,0.3c-1.5-0.7-4.2-1.4-6.1-1.7c-1.8-0.3-4-0.9-4.9-1.4c-2.1-1.1-3.2-1.2-7.1-0.7
		c-3,0.4-3.2,0.5-3.8,2c-1,2.3-0.9,3.5,0.5,4.8c0.7,0.7,1.2,1.6,1.2,2.5c0,0.8,0.3,1.9,0.7,2.3c1,1.4,0.8,2.7-0.6,3.8
		c-1.3,1-1.3,1.1-0.7,3c0.5,1.8,0.4,2.3-0.4,4.1c-0.5,1.1-0.9,2.4-0.9,2.8s1.3,2.1,2.9,3.6c4.7,4.5,4.8,4.6,7.3,4.4
		c2.5-0.1,2.2-0.5,3.1,4.2c0.2,1.2,0.6,1.5,2.7,2.1c1.4,0.4,3.2,0.8,4.2,1c2,0.3,2.3,1.3,0.8,3.1c-0.7,0.9-1.4,1.1-3.9,1.3
		c-2.9,0.2-3.1,0.3-4.4,2c-0.8,0.9-2.1,2-2.9,2.3l-1.5,0.6l0.2,5.7c0.2,6.4,0,7.6-2.3,9.1c-0.8,0.6-2.8,2.8-4.5,4.9
		c-2.3,2.9-3.1,4.2-3.1,5.4c0,2.7-0.4,3.3-2.6,4.2c-2.7,1.1-5,4-9.6,12c-3.6,6.3-4,6.6-7.7,7.2c-3,0.5-4.3,1.4-5.1,3.6
		c-0.5,1.3-1.6,2.7-2.8,3.7c-2.5,2.1-4.7,5.9-5.1,8.9c-0.2,1.2-0.6,2.3-0.8,2.5c-0.2,0.1-1.4-0.1-2.5-0.5c-1.4-0.6-2.7-0.7-4.1-0.5
		c-1.1,0.2-3.9,0.4-6.3,0.6l-4.3,0.3l-0.1-2.3c-0.1-2.2-0.2-2.2-1.8-2.4c-2.5-0.2-4.8,1.9-6.3,6c-1.2,3-1.6,3.5-4.5,5.6
		c-1.7,1.3-3.2,2.7-3.2,2.9c0,0.3-0.4,1-1,1.5c-0.6,0.5-1.4,1.4-1.9,2.1c-1.2,1.6-0.6,3.4,1.5,4.2c0.8,0.4,2.1,1.2,2.7,1.9
		c1,1.1,1.4,1.2,2.8,1c1.4-0.2,1.8-0.1,2.4,0.7c0.2,0.3,0.3,0.6,0.4,1H403C402.5,159.8,402,159.4,401.7,158.9z"/>
	<path fill="#FFFFFF" d="M431.3,160h-2.1C430.1,160.5,430.9,160.5,431.3,160z"/>
	<path fill="#FFFFFF" d="M403,160H140.4c0.2,1.1,0,2.6-0.8,4.2c-1.1,2.2-0.8,4.1,1.3,7.5l1.9,3.2h2.5c2.5,0,2.5,0,2.5,1.4
		c0,0.7,0.5,3,1.2,5c0.7,2,1.2,4.4,1.2,5.3c0,1.3,0.3,1.8,1.2,2.3c1,0.6,1.1,0.8,0.9,2.3c-0.1,0.9-0.7,2.1-1.2,2.5
		c-0.8,0.7-0.9,1-0.5,1.8c0.3,0.7,0.2,1.4-0.3,2.3c-0.7,1.1-1.1,1.3-2.7,1.3c-1.7,0-2.1-0.2-2.2-1.1c-0.3-1-0.3-1-4.7-0.6
		c-3.6,0.4-4.5,0.6-4.7,1.3c-0.4,1.3-3.3,1.1-5.5-0.5c-1.9-1.3-1.9-1.3-13.1-1.6l-2.3-0.1l-0.1,2.1c-0.1,2-0.2,2.2-1.6,2.5
		c-0.8,0.1-2.3,0.3-3.4,0.3c-2.1,0-3.8,1.3-3.4,2.6c0.4,0.9,5.7,0.9,7.3,0c1.5-0.8,1.9-0.8,1.9,0c0,0.4-0.8,0.9-1.7,1.3
		c-1,0.3-2.1,0.7-2.3,1c-1.1,0.8-0.7,3.5,1.3,7.3c1.6,3.2,2.1,3.7,3.1,3.7c0.7,0,2.2,0.7,3.4,1.6c2.6,1.9,5.1,2.5,9.8,2.5
		c3.2,0,3.6-0.1,5-1.4c1.3-1.2,1.7-1.4,3.6-1.2c1.2,0.1,2.3,0,2.6-0.2c0.3-0.3,0.6-0.2,0.8,0.3c0.5,1.3-2.1,5-4.9,6.9
		c-1.8,1.3-3,1.8-4.9,2c-1.4,0.1-3.1,0.6-3.6,1c-1.6,1.2-4.4,0.9-6.1-0.4c-0.7-0.7-1.6-1.2-2-1.2c-0.8,0-1.7,1-1.7,2
		c0,1.2,3.5,6.7,5.8,9.2c1,1.2,2.7,3.3,3.6,4.7c0.9,1.4,4.4,5.7,7.7,9.6c5.4,6.3,6.3,7.1,7.8,7.3c1.2,0.2,2.1,0.1,2.9-0.4
		c0.8-0.6,1.7-0.7,3.4-0.5c1.9,0.2,2.8,0,5.9-1.3c2-0.9,4.1-1.7,4.6-1.9c0.6-0.2,1.4-0.8,2-1.5c0.6-0.7,1.4-1.1,2.4-1.1
		c1.8,0,3.2-1.5,3.3-3.4c0-0.9,0.6-1.8,1.9-2.9c2.2-2,2.4-3.5,0.9-6.9l-1-2.1l1.3-2.9c1.1-2.8,1.8-3.6,2.7-3.6
		c0.2,0,0.3,0.3,0.3,0.6c0,1.3,0.8,1.9,1.7,1.4c0.5-0.3,1.2-0.3,1.5-0.1c0.5,0.3,0.3,0.7-0.9,1.8c-1.3,1.2-1.5,1.7-1.2,2.8
		c0.1,0.7,0.3,2,0.4,2.9c0,0.9,0.4,2.1,0.7,2.8c0.5,0.9,0.9,1.1,2.3,0.8c1-0.1,2.1-0.4,2.6-0.6c0.7-0.2,0.8-0.1,0.7,0.3
		c-0.2,0.7-1.2,1.1-3.7,1.6c-1,0.2-1.6,0.8-2.5,2.6c-1.4,2.9-1.5,4.1,0,4.7c1,0.5,1.2,0.9,1.4,3.9c0.1,1.8,0.6,3.8,1,4.4
		c0.8,1.4,0.5,2.9-1,5.3c-0.7,0.9-1.4,2.6-1.6,3.7c-1,4.3-0.1,11.9,1.6,13.8c0.8,0.9,0.8,1-0.4,2.7c-1.3,1.6-1.3,1.7-0.5,2.6
		c0.5,0.5,1.4,0.9,2.2,0.9c1.2,0,1.3,0.2,1.3,1.4c0,0.7-0.4,2.2-0.9,3.1c-1.8,3.5-1.9,4.5-0.7,6.3c0.9,1.4,1.1,1.9,0.7,2.6
		c-0.4,0.8-0.3,1.3,0.4,2.5c0.7,1.1,1,2.3,1,4.4c0,2.5,0.2,3.2,1.6,5.3c1.6,2.3,1.9,3.5,0.7,3.3c-0.3,0-0.4,0.2-0.3,0.7
		c0,0.1,0,0.1,0.1,0.2H332c0.6-0.6,1.3-1.1,1.9-1.2c0.7-0.1,1.8-0.7,2.4-1.1c0.6-0.5,2.7-1.6,4.6-2.6c5.3-2.6,6.3-3.5,8.8-7
		c2.5-3.5,6.4-7.1,8.8-8.1c1-0.4,2.3-1.8,4.1-4.3c1.4-2,3.5-4.3,4.6-5.2c2.5-1.9,2.5-2,2.9-4.5c0.2-1.3,0.9-2.8,2-4.2
		c1.4-1.9,2-2.3,4.3-2.8c2.9-0.7,4.4-1.7,3.4-2.4c-0.3-0.2-1.1-0.3-1.8-0.1c-0.9,0.1-1.1,0-1.1-0.7c0-2.2,3.7-3.5,5.5-1.9
		c1.1,1,2.5,1,4.7-0.1c0.9-0.5,2.5-1,3.4-1.2c3.6-0.7,5.6-2.3,9.1-6.9c1.2-1.6,1.7-2.8,1.7-3.9c0-1.3,0.3-1.8,1.4-2.4
		c1.7-1,1.8-2.1,0.2-3.6l-1.3-1.2l0.6-4.3c0.5-3.7,0.8-4.7,2.1-6.5c1.6-2.2,2.8-2.8,6.1-2.8c2.2,0,6.9-2.9,7.9-4.8
		c0.5-0.8,0.9-3.5,1.1-6.2c0.4-4.2,0.6-5,1.8-7c0.7-1.2,1.8-2.5,2.3-2.8c0.8-0.6,0.9-0.5,1.1,0.5c0.3,1.3-0.2,2.3-1.8,4
		c-1.4,1.5-2.1,7.3-1.1,9.1c0.4,0.7,0.5,2,0.3,3.7c-0.3,2.9,0.4,3.9,1.4,2.2c0.4-0.6,1.2-1,1.8-1c0.8,0,1.1-0.3,1.2-1.4
		c0.2-1.8,1.4-2.8,2.4-1.9c0.5,0.4,0.7,1.4,0.7,2.9c0,2.4,0.9,3.1,1.8,1.4c0.3-0.6,1-0.8,2.5-0.8c1.7,0,2-0.1,2.1-1
		c0.1-0.7-0.2-1.1-1.4-1.4c-1.3-0.4-1.6-0.7-1.7-2c-0.1-1.3,0-1.5,1-1.5c1.1,0,1.1-0.1,0.9-2.5c-0.1-1.3-0.4-3.5-0.7-4.7
		s-0.3-3.5-0.1-5l0.3-2.7h-1.5c-1.6,0-1.6-0.1-1.5-3.3c0.1-1.9,0-2.1-1.1-2.7c-0.7-0.3-1.2-0.9-1.2-1.4c0-0.5-0.6-2.1-1.3-3.6
		c-1.1-2.4-1.2-2.9-0.7-4.7c0.3-1.1,0.6-3.4,0.6-4.9v-2.9l-2.6-1.3c-1.4-0.7-3.2-1.3-3.9-1.3c-2.2,0-3.8-3.3-2.1-4.7
		c0.4-0.3,0.7-1.1,0.7-1.7c0-0.9,0.2-1.1,1.4-1.1c1.6,0,2.2-0.7,2.5-2.6l0.1-1.4l3.1,0.1c2.3,0.1,3.2,0,3.7-0.6
		c0.5-0.6,0.4-0.9-0.7-2.1c-0.7-0.7-1.4-1.9-1.6-2.7c-0.3-1.2-0.6-1.4-2.3-1.5c-1.4-0.1-2-0.4-2.2-1c-0.5-1.7-2.5-3.3-3.9-3.3
		c-1.9,0-2.1-0.6-1-2.4c0.5-0.8,0.9-1.9,0.9-2.3s0.8-1.4,1.9-2.1c1.2-0.9,1.8-1.8,1.9-2.8h-18.6C404.4,160.3,403.7,160.3,403,160z
		 M320,304c-35.3,0-64-28.7-64-64c0-35.3,28.7-64,64-64c35.3,0,64,28.7,64,64C384,275.3,355.3,304,320,304z"/>
	<path fill="#FFFFFF" d="M434.5,160.9c1,2.1,3.1,4.1,4.5,4.1c0.5,0,1.4-0.5,2.1-1c0.7-0.6,1.3-0.8,1.5-0.6c0.2,0.2,1,3,1.6,6.3
		c1.1,5.5,1.3,5.9,2.9,7.3c1.4,1.3,2.3,1.5,5.7,2.1c4.1,0.6,19.6,0.4,23.9-0.2c2-0.3,2.4-0.2,5,1.6l2.8,1.9l-1.4,1.6
		c-1,1.1-1.4,2.2-1.7,4.1c-0.3,2.4-0.5,2.8-3.5,5.6c-1.7,1.6-4,3.4-5,3.8c-2.1,1-4.3,3.4-4.9,5.4c-0.3,1.1-0.1,1.7,0.7,3
		c0.9,1.4,1.1,2.2,1.1,4.9c0,4,0.6,5.4,1.9,4.7c0.5-0.3,0.9-0.9,0.9-1.4c0-1.4,0.8-1.1,1.2,0.5c0.3,1.5,1.4,1.8,3.1,0.9
		c0.7-0.4,0.9-1,0.9-3.6c0-3,0-3.1,1.9-4.9c1.2-1.2,1.9-2.2,1.9-3c0-1.1,0.1-1.2,2.3-1.2c2.8,0,3,0.2,4,6.6c0.4,2.7,1.4,6.7,2.3,9
		c0.8,2.3,1.9,5.4,2.3,6.9c0.5,1.6,1.1,2.8,1.6,3c0.4,0.2,1.6,0.8,2.6,1.4c2.1,1.3,2.9,0.9,2.2-0.9c-0.4-1-0.2-1.5,0.7-2.7
		c1-1.4,1.1-1.6,0.4-3.4c-0.4-1.1-0.7-3.6-0.7-6.1c0-3.6,0.1-4.3,0.9-4.9c0.5-0.5,1.1-1.8,1.4-3c0.2-1.2,0.8-2.7,1.3-3.2
		c1-1.1,1.2-5.6,0.5-8.1c-0.4-1.3-0.3-1.4,0.7-1.1c0.6,0.1,1.7,0,2.5-0.4c1.3-0.7,1.4-0.7,2.6,0.5c1.1,1,1.4,1.1,2.6,0.8
		c3.2-0.9,3.1-0.9,2.8-3.7c-0.3-2.4-0.1-2.8,1.6-6.3c1.1-2.1,2.7-4.5,3.6-5.6c1.5-1.7,1.6-2,1.4-4.2c-0.2-1.6-0.7-2.8-1.5-3.6
		c-1.9-1.9-1.5-3.2,1.3-5.1c1.4-0.9,2.8-2.3,3.2-3c0.7-1.2,1.2-3.3,1.5-5.7H434C434.2,160.3,434.4,160.6,434.5,160.9z"/>
	<path fill="#128807" d="M183.2,332.5l0.5,7.7l3.5,5.4c2.8,4.2,3.5,5.7,3.5,7c0,1.3,0.4,2.2,1.9,4c1,1.2,1.9,2.8,1.9,3.3
		c0,0.7,0.5,1.5,1.4,2.1c1.8,1.3,4,6,4.4,9.3c0.2,1.4,0.8,3.5,1.4,4.5c0.8,1.4,1.1,2.7,1.1,4.7c0,1.5,0.2,3.5,0.5,4.6
		c0.3,1,0.7,3.5,0.9,5.4c0.3,2.3,1,4.6,2.1,6.8c0.9,1.8,1.9,4.4,2.3,5.8c0.5,1.7,2.2,4.7,5.4,9.3c2.6,3.7,4.7,6.9,4.7,7.2
		c0,0.2,0.7,2.1,1.6,4.1c0.9,2,1.7,4.6,1.9,5.9c0.5,3.5,1.2,5.3,2.9,7.9c0.9,1.4,1.5,2.9,1.5,3.8c0,1.2,0.6,2,2.8,4.1
		c3.3,3.1,4.9,6.6,2.6,5.8c-0.4-0.2-0.7-0.8-0.7-1.5c0-0.9-0.2-1.2-1.2-1.2c-1.2,0-1.5,0.7-0.7,1.2c0.3,0.1,0.5,1.6,0.5,3.3
		c0,2.7,0.2,3.3,1.4,5.1c0.8,1.2,2,3.4,2.6,5c1.4,3.6,5.7,8.2,9.7,10.3c1.5,0.8,3.2,2.1,3.7,3c1.3,2,2.3,1.9,4.5-0.1
		c1-0.9,2.3-1.6,2.8-1.6c0.6,0,2-1.1,3.7-2.8c2.5-2.6,2.7-3,2.7-5c0-1.6,0.4-2.8,1.5-4.6c1.7-2.8,2.7-3.3,7.5-3.9
		c1.9-0.2,3.5-0.7,4.1-1.2c1-0.9,3.4-0.7,5.7,0.5c2,1,3.2,0.8,3.2-0.5c0-1-0.4-1.3-3.1-2.1c-1.7-0.5-3.4-0.9-3.7-0.9
		c-0.7,0-1.6-1.4-1.6-2.7c0-0.5,0.7-1.8,1.5-2.9c2.1-2.7,5-8,5-9c0-0.6,0.5-0.7,2.5-0.7c1.3,0,2.8,0,3.1,0c0.4,0,1.3,0,2,0.2
		c1.1,0.2,1.4,0.1,2.1-1.4c0.7-1.4,0.7-2.1,0.3-4.6c-0.4-2.1-0.4-4.2-0.1-6.9c0.4-3.6,0.3-4.1-0.6-5.8c-1.3-2.4-1.4-9-0.2-11.2
		c0.4-0.8,0.9-2.2,1.1-3.2c0.2-1.2,0.7-1.9,1.5-2.3c1.2-0.6,2.8-3.4,4.6-8.1c0.9-2.3,1.1-3.9,1.1-7.1c0-4.1,0-4.2-1.6-5.5
		c-0.8-0.7-1.8-1.8-2.1-2.4c-0.7-1.3-0.3-5.3,0.7-8.7c0.9-2.7,0.8-5.6-0.1-7.9c-0.8-1.9-0.9-6.4-0.2-9.5c0.3-1.2,1.3-3.9,2.1-6
		c1.8-4.1,2.8-4.9,6.3-5.6l1.8-0.3l-0.3-3.5c-0.2-2.3-0.2-3.5,0.1-3.5c0.9,0,2,2.1,2,4c0,2.1,0.7,3,2.1,3c1.3,0,2.1-1,3.9-4.5
		c2.1-4,2.1-4.1,6.8-3.7l4,0.3l3-2.4c3-2.3,5.4-4.9,5.4-5.6c0-0.2-0.6-0.6-1.4-0.9c-0.9-0.4-1.4-0.9-1.4-1.6c0-1,1.1-2.8,2.3-4
		H181.6C182.4,322.8,182.8,325.9,183.2,332.5z"/>
	<path fill="#000088" d="M320,176c-35.3,0-64,28.7-64,64c0,35.3,28.7,64,64,64c35.3,0,64-28.7,64-64C384,204.7,355.3,176,320,176z
		 M366.7,204.2c1,1.3,0.7,3.1-0.5,4c0,0,0,0-0.1,0c0.8,1.2,1.6,2.5,2.4,3.8l0,0l0,0c0.7,1.3,1.5,2.6,2.1,4c0,0,0,0,0.1,0
		c1.5-0.6,3.2,0.1,3.8,1.6c0.6,1.5-0.1,3.2-1.6,3.8c0,0,0,0-0.1,0c1,2.8,1.8,5.6,2.3,8.6c0,0,0.1,0,0.1,0c1.6-0.2,3,0.9,3.2,2.5
		c0.2,1.6-0.9,3-2.5,3.2c0,0-0.1,0-0.1,0c0.1,1.5,0.2,2.9,0.2,4.4c0,1.5-0.1,3-0.2,4.5c0,0,0.1,0,0.1,0c1.6,0.2,2.7,1.7,2.5,3.2
		c-0.2,1.6-1.7,2.7-3.2,2.5c0,0-0.1,0-0.1,0c-0.5,3-1.3,5.8-2.3,8.6c0,0,0,0,0.1,0c1.5,0.6,2.2,2.3,1.6,3.8s-2.3,2.2-3.8,1.6
		c0,0,0,0-0.1,0c-0.6,1.3-1.3,2.6-2.1,3.9l0,0l0,0c-0.7,1.3-1.5,2.6-2.4,3.8c0,0,0,0,0.1,0c1.3,1,1.5,2.8,0.5,4s-2.8,1.5-4,0.5
		c0,0,0,0-0.1-0.1c-1,1.1-2,2.2-3,3.3c-1.1,1.1-2.2,2.1-3.3,3c0,0,0,0,0.1,0.1c1,1.3,0.7,3.1-0.5,4c-1.3,1-3.1,0.7-4-0.5
		c0,0,0,0,0-0.1c-1.2,0.8-2.5,1.6-3.8,2.4l0,0l0,0c-1.3,0.7-2.6,1.5-4,2.1c0,0,0,0,0,0.1c0.6,1.5-0.1,3.2-1.6,3.8
		c-1.5,0.6-3.2-0.1-3.8-1.6c0,0,0,0,0-0.1c-2.8,1-5.6,1.8-8.6,2.3c0,0,0,0.1,0,0.1c0.2,1.6-0.9,3-2.5,3.2c-1.6,0.2-3-0.9-3.2-2.5
		c0,0,0-0.1,0-0.1c-1.5,0.1-2.9,0.2-4.4,0.2c-1.5,0-3-0.1-4.5-0.2c0,0,0,0.1,0,0.1c-0.2,1.6-1.7,2.7-3.2,2.5
		c-1.6-0.2-2.7-1.7-2.5-3.2c0,0,0-0.1,0-0.1c-3-0.5-5.8-1.3-8.6-2.3c0,0,0,0,0,0.1c-0.6,1.5-2.3,2.2-3.8,1.6s-2.2-2.3-1.6-3.8
		c0,0,0,0,0-0.1c-1.3-0.6-2.6-1.3-3.9-2.1l0,0l0,0c-1.3-0.7-2.6-1.5-3.8-2.4c0,0,0,0,0,0.1c-1,1.3-2.8,1.5-4,0.5
		c-1.3-1-1.5-2.8-0.5-4c0,0,0,0,0.1-0.1c-1.1-1-2.2-2-3.3-3c-1.1-1.1-2.1-2.2-3-3.3c0,0,0,0-0.1,0.1c-1.3,1-3.1,0.7-4-0.5
		c-1-1.3-0.7-3.1,0.5-4c0,0,0,0,0.1,0c-0.8-1.2-1.6-2.5-2.4-3.8l0,0l0,0c-0.7-1.3-1.5-2.6-2.1-4c0,0,0,0-0.1,0
		c-1.5,0.6-3.2-0.1-3.8-1.6c-0.6-1.5,0.1-3.2,1.6-3.8c0,0,0,0,0.1,0c-1-2.8-1.8-5.6-2.3-8.6c0,0-0.1,0-0.1,0c-1.6,0.2-3-0.9-3.2-2.5
		c-0.2-1.6,0.9-3,2.5-3.2c0,0,0.1,0,0.1,0c-0.1-1.5-0.2-2.9-0.2-4.4c0-1.5,0.1-3,0.2-4.5c0,0-0.1,0-0.1,0c-1.6-0.2-2.7-1.7-2.5-3.2
		c0.2-1.6,1.7-2.7,3.2-2.5c0,0,0.1,0,0.1,0c0.5-3,1.3-5.8,2.3-8.6c0,0,0,0-0.1,0c-1.5-0.6-2.2-2.3-1.6-3.8c0.6-1.5,2.3-2.2,3.8-1.6
		c0,0,0,0,0.1,0c0.6-1.3,1.3-2.6,2.1-3.9l0,0l0,0c0.7-1.3,1.5-2.6,2.4-3.8c0,0,0,0-0.1,0c-1.3-1-1.5-2.8-0.5-4c1-1.3,2.8-1.5,4-0.5
		c0,0,0,0,0.1,0.1c1-1.1,2-2.2,3-3.3c1.1-1.1,2.2-2.1,3.3-3c0,0,0,0-0.1-0.1c-1-1.3-0.7-3.1,0.5-4c1.3-1,3.1-0.7,4,0.5
		c0,0,0,0,0,0.1c1.2-0.8,2.5-1.6,3.8-2.4l0,0l0,0c1.3-0.7,2.6-1.5,4-2.1c0,0,0,0,0-0.1c-0.6-1.5,0.1-3.2,1.6-3.8
		c1.5-0.6,3.2,0.1,3.8,1.6c0,0,0,0,0,0.1c2.8-1,5.6-1.8,8.6-2.3c0,0,0-0.1,0-0.1c-0.2-1.6,0.9-3,2.5-3.2c1.6-0.2,3,0.9,3.2,2.5
		c0,0,0,0.1,0,0.1c1.5-0.1,2.9-0.2,4.4-0.2c1.5,0,3,0.1,4.5,0.2c0,0,0-0.1,0-0.1c0.2-1.6,1.7-2.7,3.2-2.5c1.6,0.2,2.7,1.7,2.5,3.2
		c0,0,0,0.1,0,0.1c3,0.5,5.8,1.3,8.6,2.3c0,0,0,0,0-0.1c0.6-1.5,2.3-2.2,3.8-1.6c1.5,0.6,2.2,2.3,1.6,3.8c0,0,0,0,0,0.1
		c1.3,0.6,2.6,1.3,3.9,2.1l0,0l0,0c1.3,0.7,2.6,1.5,3.8,2.4c0,0,0,0,0-0.1c1-1.3,2.8-1.5,4-0.5s1.5,2.8,0.5,4c0,0,0,0-0.1,0.1
		c1.1,1,2.2,2,3.3,3c1.1,1.1,2.1,2.2,3,3.3c0,0,0,0,0.1-0.1C364,202.7,365.8,202.9,366.7,204.2z"/>
	<path fill="#FFFFFF" d="M310,245.1c-0.3-0.5-0.5-1.1-0.7-1.6l-10.5,4.2l-33,6.8l32-10.6l11.2-1.6c-0.1-0.6-0.2-1.2-0.2-1.8
		l-11.2,1.3L264,240c0,1.5,0.1,3,0.2,4.4c1.5-0.2,2.9,0.9,3.1,2.5c0.2,1.5-0.9,3-2.4,3.2c0.5,3,1.3,5.8,2.3,8.6
		c1.5-0.6,3.1,0.1,3.7,1.6c0.6,1.4-0.1,3.1-1.5,3.7c0.6,1.4,1.3,2.7,2.1,4l28.1-18.5L310,245.1z"/>
	<path fill="#FFFFFF" d="M362.2,207.7c-1-1.2-0.7-3,0.5-4c-1-1.1-2-2.2-3-3.3l-22.4,25.1l-8.9,7c0.4,0.4,0.8,0.9,1.1,1.4l9-6.8
		l30.1-15.1c-0.7-1.3-1.5-2.5-2.4-3.8C364.9,209.2,363.1,208.9,362.2,207.7z"/>
	<path fill="#FFFFFF" d="M314.9,230c0.5-0.3,1.1-0.5,1.6-0.7l-4.2-10.5l-6.8-33l10.6,32l1.6,11.2c0.6-0.1,1.2-0.2,1.8-0.2l-1.3-11.2
		L320,184c-1.5,0-3,0.1-4.4,0.2c0.2,1.5-0.9,2.9-2.5,3.1c-1.5,0.2-3-0.9-3.2-2.4c-3,0.5-5.8,1.3-8.6,2.3c0.6,1.5-0.1,3.1-1.6,3.7
		c-1.4,0.6-3.1-0.1-3.7-1.5c-1.4,0.6-2.7,1.3-4,2.1l18.5,28.1L314.9,230z"/>
	<path fill="#FFFFFF" d="M312.5,231.7c0.4-0.4,0.9-0.8,1.4-1.1l-6.8-9L292,191.5c-1.3,0.7-2.5,1.5-3.8,2.4c0.9,1.3,0.7,3-0.6,4
		c-1.2,1-3,0.7-4-0.5c-1.1,1-2.2,2-3.3,3l25.1,22.4L312.5,231.7z"/>
	<path fill="#FFFFFF" d="M329.4,246.1c-0.3,0.5-0.7,1-1.1,1.4l8.9,7l22.4,25.1c1-1,2-2.1,3-3.3c-1.2-1-1.4-2.7-0.5-4
		c1-1.2,2.7-1.5,4-0.6c0.8-1.2,1.6-2.5,2.4-3.8l-30.1-15.1L329.4,246.1z"/>
	<path fill="#FFFFFF" d="M308.8,239.4c0-0.6,0.1-1.2,0.2-1.8l-11.2-1.6l-32-10.6l33,6.8l10.5,4.2c0.2-0.6,0.4-1.1,0.7-1.6l-10.4-4.4
		L271.5,212c-0.7,1.3-1.4,2.6-2.1,3.9c1.4,0.6,2.1,2.3,1.5,3.7c-0.6,1.4-2.2,2.1-3.7,1.6c-1,2.8-1.8,5.6-2.3,8.6
		c1.5,0.2,2.6,1.7,2.4,3.2c-0.2,1.5-1.6,2.6-3.1,2.5c-0.1,1.5-0.2,3-0.2,4.5l33.6-1.9L308.8,239.4z"/>
	<path fill="#FFFFFF" d="M327.5,248.3c-0.4,0.4-0.9,0.8-1.4,1.1l6.8,9l15.1,30.1c1.3-0.7,2.5-1.5,3.8-2.4c-0.9-1.3-0.7-3,0.6-4
		c1.2-1,3-0.7,4,0.5c1.1-1,2.2-2,3.3-3l-25.1-22.4L327.5,248.3z"/>
	<path fill="#FFFFFF" d="M311.7,247.5c-0.4-0.4-0.8-0.9-1.1-1.4l-9,6.8L271.5,268c0.7,1.3,1.5,2.5,2.4,3.8c1.3-0.9,3-0.7,4,0.6
		c1,1.2,0.7,3-0.5,4c1,1.1,2,2.2,3,3.3l22.4-25.1L311.7,247.5z"/>
	<path fill="#FFFFFF" d="M330,234.9c0.3,0.5,0.5,1.1,0.7,1.6l10.5-4.2l33-6.8l-32,10.6l-11.2,1.6c0.1,0.6,0.2,1.2,0.2,1.8l11.2-1.3
		L376,240c0-1.5-0.1-3-0.2-4.4c-1.5,0.2-2.9-0.9-3.1-2.5c-0.2-1.5,0.9-3,2.4-3.2c-0.5-3-1.3-5.8-2.3-8.6c-1.5,0.6-3.1-0.1-3.7-1.6
		c-0.6-1.4,0.1-3.1,1.5-3.7c-0.6-1.4-1.3-2.7-2.1-4l-28.1,18.5L330,234.9z"/>
	<path fill="#FFFFFF" d="M310.6,233.9c0.3-0.5,0.7-1,1.1-1.4l-8.9-7l-22.4-25.1c-1,1-2,2.1-3,3.3c1.2,1,1.4,2.7,0.5,4
		c-1,1.2-2.7,1.5-4,0.6c-0.8,1.2-1.6,2.5-2.4,3.8l30.1,15.1L310.6,233.9z"/>
	<path fill="#FFFFFF" d="M320.6,228.8c0.6,0,1.2,0.1,1.8,0.2l1.6-11.2l10.6-32l-6.8,33l-4.2,10.5c0.6,0.2,1.1,0.4,1.6,0.7l4.4-10.4
		l18.5-28.1c-1.3-0.7-2.6-1.4-3.9-2.1c-0.6,1.4-2.3,2.1-3.7,1.5c-1.4-0.6-2.1-2.2-1.6-3.7c-2.8-1-5.6-1.8-8.6-2.3
		c-0.2,1.5-1.7,2.6-3.2,2.4c-1.5-0.2-2.6-1.6-2.5-3.1c-1.5-0.1-3-0.2-4.5-0.2l1.9,33.6L320.6,228.8z"/>
	<path fill="#FFFFFF" d="M331.2,240.6c0,0.6-0.1,1.2-0.2,1.8l11.2,1.6l32,10.6l-33-6.8l-10.5-4.2c-0.2,0.6-0.4,1.1-0.7,1.6l10.4,4.4
		l28.1,18.5c0.7-1.3,1.4-2.6,2.1-3.9c-1.4-0.6-2.1-2.3-1.5-3.7c0.6-1.4,2.2-2.1,3.7-1.6c1-2.8,1.8-5.6,2.3-8.6
		c-1.5-0.2-2.6-1.7-2.4-3.2c0.2-1.5,1.6-2.6,3.1-2.5c0.1-1.5,0.2-3,0.2-4.5l-33.6,1.9L331.2,240.6z"/>
	<path fill="#FFFFFF" d="M313.9,249.4c-0.5-0.3-1-0.7-1.4-1.1l-7,8.9l-25.1,22.4c1,1,2.1,2,3.3,3c1-1.2,2.7-1.4,4-0.5
		c1.2,1,1.5,2.7,0.6,4c1.2,0.8,2.5,1.6,3.8,2.4l15.1-30.1L313.9,249.4z"/>
	<path fill="#FFFFFF" d="M319.4,251.2c-0.6,0-1.2-0.1-1.8-0.2l-1.6,11.2l-10.6,32l6.8-33l4.2-10.5c-0.6-0.2-1.1-0.4-1.6-0.7
		l-4.4,10.4L292,288.5c1.3,0.7,2.6,1.4,3.9,2.1c0.6-1.4,2.3-2.1,3.7-1.5c1.4,0.6,2.1,2.2,1.6,3.7c2.8,1,5.6,1.8,8.6,2.3
		c0.2-1.5,1.7-2.6,3.2-2.4c1.5,0.2,2.6,1.6,2.5,3.1c1.5,0.1,3,0.2,4.5,0.2l-1.9-33.6L319.4,251.2z"/>
	<path fill="#FFFFFF" d="M325.1,250c-0.5,0.3-1.1,0.5-1.6,0.7l4.2,10.5l6.8,33l-10.6-32l-1.6-11.2c-0.6,0.1-1.2,0.2-1.8,0.2
		l1.3,11.2L320,296c1.5,0,3-0.1,4.4-0.2c-0.2-1.5,0.9-2.9,2.5-3.1c1.5-0.2,3,0.9,3.2,2.4c3-0.5,5.8-1.3,8.6-2.3
		c-0.6-1.5,0.1-3.1,1.6-3.7c1.4-0.6,3.1,0.1,3.7,1.5c1.4-0.6,2.7-1.3,4-2.1l-18.5-28.1L325.1,250z"/>
	<path fill="#FFFFFF" d="M326.1,230.6c0.5,0.3,1,0.7,1.4,1.1l7-8.9l25.1-22.4c-1-1-2.1-2-3.3-3c-1,1.2-2.7,1.4-4,0.5
		c-1.2-1-1.5-2.7-0.6-4c-1.2-0.8-2.5-1.6-3.8-2.4l-15.1,30.1L326.1,230.6z"/>
	<path fill="#000088" d="M327.5,231.7c-0.4-0.4-0.9-0.8-1.4-1.1l-2.9,3.9l1.9-4.4c-0.5-0.3-1.1-0.5-1.6-0.7l-1.8,4.5l0.7-4.8
		c-0.6-0.1-1.2-0.2-1.8-0.2l-0.6,4.8l-0.6-4.8c-0.6,0-1.2,0.1-1.8,0.2l0.7,4.8l-1.8-4.5c-0.6,0.2-1.1,0.4-1.6,0.7l1.9,4.4l-2.9-3.9
		c-0.5,0.3-1,0.7-1.4,1.1l3,3.8l-3.8-3c-0.4,0.4-0.8,0.9-1.1,1.4l3.9,2.9l-4.4-1.9c-0.3,0.5-0.5,1.1-0.7,1.6l4.5,1.8l-4.8-0.7
		c-0.1,0.6-0.2,1.2-0.2,1.8l4.8,0.6l-4.8,0.6c0,0.6,0.1,1.2,0.2,1.8l4.8-0.7l-4.5,1.8c0.2,0.6,0.4,1.1,0.7,1.6l4.4-1.9l-3.9,2.9
		c0.3,0.5,0.7,1,1.1,1.4l3.8-3l-3,3.8c0.4,0.4,0.9,0.8,1.4,1.1l2.9-3.9l-1.9,4.4c0.5,0.3,1.1,0.5,1.6,0.7l1.8-4.5l-0.7,4.8
		c0.6,0.1,1.2,0.2,1.8,0.2l0.6-4.8l0.6,4.8c0.6,0,1.2-0.1,1.8-0.2l-0.7-4.8l1.8,4.5c0.6-0.2,1.1-0.4,1.6-0.7l-1.9-4.4l2.9,3.9
		c0.5-0.3,1-0.7,1.4-1.1l-3-3.8l3.8,3c0.4-0.4,0.8-0.9,1.1-1.4l-3.9-2.9l4.4,1.9c0.3-0.5,0.5-1.1,0.7-1.6l-4.5-1.8l4.8,0.7
		c0.1-0.6,0.2-1.2,0.2-1.8l-4.8-0.6l4.8-0.6c0-0.6-0.1-1.2-0.2-1.8l-4.8,0.7l4.5-1.8c-0.2-0.6-0.4-1.1-0.7-1.6l-4.4,1.9l3.9-2.9
		c-0.3-0.5-0.7-1-1.1-1.4l-3.8,3L327.5,231.7z"/>
	<path fill="#000088" d="M372.7,247c-0.2,1.5,0.9,3,2.4,3.2c0,0,0.1,0,0.1,0c1.6,0.2,3-0.9,3.2-2.5c0.2-1.6-0.9-3-2.5-3.2
		c0,0-0.1,0-0.1,0C374.3,244.3,372.9,245.4,372.7,247z"/>
	<polygon fill="#000088" points="320.6,251.2 320,246.4 319.4,251.2 318.1,262.4 320,296 321.9,262.4 	"/>
	<path fill="#000088" d="M369.1,260.3c-0.6,1.4,0.1,3.1,1.5,3.7c0,0,0,0,0.1,0c1.5,0.6,3.2-0.1,3.8-1.6s-0.1-3.2-1.6-3.8
		c0,0,0,0-0.1,0C371.3,258.2,369.7,258.9,369.1,260.3z"/>
	<polygon fill="#000088" points="316.6,250.7 312.3,261.1 305.5,294.1 316.1,262.1 317.7,251 318.3,246.2 	"/>
	<path fill="#000088" d="M362.1,272.4c-0.9,1.2-0.7,3,0.5,4c0,0,0,0,0.1,0.1c1.3,1,3.1,0.7,4-0.5s0.7-3.1-0.5-4c0,0,0,0-0.1,0
		C364.8,270.9,363.1,271.1,362.1,272.4z"/>
	<polygon fill="#000088" points="314.9,250 316.8,245.5 313.9,249.4 307.1,258.4 292,288.5 292,288.5 292,288.5 310.5,260.4 	"/>
	<path fill="#000088" d="M352.3,282.2c-1.2,1-1.5,2.7-0.6,4c0,0,0,0,0,0.1c1,1.3,2.8,1.5,4,0.5c1.3-1,1.5-2.8,0.5-4c0,0,0,0-0.1-0.1
		C355.3,281.4,353.6,281.2,352.3,282.2z"/>
	<polygon fill="#000088" points="312.5,248.3 315.5,244.5 311.7,247.5 302.8,254.5 280.4,279.6 305.5,257.2 	"/>
	<path fill="#000088" d="M340.3,289.1c-1.4,0.6-2.1,2.2-1.6,3.7c0,0,0,0,0,0.1c0.6,1.5,2.3,2.2,3.8,1.6c1.5-0.6,2.2-2.3,1.6-3.8
		c0,0,0,0,0-0.1C343.4,289.2,341.8,288.5,340.3,289.1z"/>
	<polygon fill="#000088" points="310.6,246.1 314.5,243.2 310,245.1 299.6,249.5 271.5,268 271.5,268 271.5,268 301.6,252.9 	"/>
	<path fill="#000088" d="M326.9,292.7c-1.5,0.2-2.6,1.6-2.5,3.1c0,0,0,0.1,0,0.1c0.2,1.6,1.7,2.7,3.2,2.5c1.6-0.2,2.7-1.7,2.5-3.2
		c0,0,0-0.1,0-0.1C329.9,293.5,328.5,292.5,326.9,292.7z"/>
	<polygon fill="#000088" points="309,242.3 297.9,243.9 265.9,254.5 298.9,247.7 309.3,243.4 313.8,241.7 	"/>
	<path fill="#000088" d="M313,292.7c-1.5-0.2-3,0.9-3.2,2.4c0,0,0,0.1,0,0.1c-0.2,1.6,0.9,3,2.5,3.2c1.6,0.2,3-0.9,3.2-2.5
		c0,0,0-0.1,0-0.1C315.7,294.3,314.6,292.9,313,292.7z"/>
	<polygon fill="#000088" points="308.8,240.6 313.6,240 308.8,239.4 297.6,238.1 264,240 297.6,241.9 	"/>
	<path fill="#000088" d="M299.7,289.1c-1.4-0.6-3.1,0.1-3.7,1.5c0,0,0,0,0,0.1c-0.6,1.5,0.1,3.2,1.6,3.8s3.2-0.1,3.8-1.6
		c0,0,0,0,0-0.1C301.8,291.3,301.1,289.7,299.7,289.1z"/>
	<polygon fill="#000088" points="309.3,236.6 298.9,232.3 265.9,225.5 297.9,236.1 309,237.7 313.8,238.3 	"/>
	<path fill="#000088" d="M287.6,282.1c-1.2-0.9-3-0.7-4,0.5c0,0,0,0-0.1,0.1c-1,1.3-0.7,3.1,0.5,4c1.3,1,3.1,0.7,4-0.5
		c0,0,0,0,0-0.1C289.1,284.8,288.9,283.1,287.6,282.1z"/>
	<polygon fill="#000088" points="310,234.9 314.5,236.8 310.6,233.9 301.6,227.1 271.5,212 271.5,212 271.5,212 299.6,230.5 	"/>
	<path fill="#000088" d="M277.8,272.3c-1-1.2-2.7-1.5-4-0.6c0,0,0,0-0.1,0c-1.3,1-1.5,2.8-0.5,4c1,1.3,2.8,1.5,4,0.5
		c0,0,0,0,0.1-0.1C278.6,275.3,278.8,273.6,277.8,272.3z"/>
	<polygon fill="#000088" points="311.7,232.5 315.5,235.5 312.5,231.7 305.5,222.8 280.4,200.4 302.8,225.5 	"/>
	<path fill="#000088" d="M270.9,260.3c-0.6-1.4-2.2-2.1-3.7-1.6c0,0,0,0-0.1,0c-1.5,0.6-2.2,2.3-1.6,3.8c0.6,1.5,2.3,2.2,3.8,1.6
		c0,0,0,0,0.1,0C270.8,263.4,271.5,261.8,270.9,260.3z"/>
	<polygon fill="#000088" points="313.9,230.6 316.8,234.5 314.9,230 310.5,219.6 292,191.5 292,191.5 292,191.5 307.1,221.6 	"/>
	<path fill="#000088" d="M267.3,246.9c-0.2-1.5-1.6-2.6-3.1-2.5c0,0-0.1,0-0.1,0c-1.6,0.2-2.7,1.7-2.5,3.2c0.2,1.6,1.7,2.7,3.2,2.5
		c0,0,0.1,0,0.1,0C266.5,249.9,267.5,248.5,267.3,246.9z"/>
	<polygon fill="#000088" points="317.7,229 316.1,217.9 305.5,185.9 312.3,218.9 316.6,229.3 318.3,233.8 	"/>
	<path fill="#000088" d="M267.3,233c0.2-1.5-0.9-3-2.4-3.2c0,0-0.1,0-0.1,0c-1.6-0.2-3,0.9-3.2,2.5c-0.2,1.6,0.9,3,2.5,3.2
		c0,0,0.1,0,0.1,0C265.7,235.7,267.1,234.6,267.3,233z"/>
	<polygon fill="#000088" points="319.4,228.8 320,233.6 320.6,228.8 321.9,217.6 320,184 318.1,217.6 	"/>
	<path fill="#000088" d="M270.9,219.7c0.6-1.4-0.1-3.1-1.5-3.7c0,0,0,0-0.1,0c-1.5-0.6-3.2,0.1-3.8,1.6c-0.6,1.5,0.1,3.2,1.6,3.8
		c0,0,0,0,0.1,0C268.7,221.8,270.3,221.1,270.9,219.7z"/>
	<polygon fill="#000088" points="323.4,229.3 327.7,218.9 334.5,185.9 323.9,217.9 322.3,229 321.7,233.8 	"/>
	<path fill="#000088" d="M277.9,207.6c0.9-1.2,0.7-3-0.5-4c0,0,0,0-0.1-0.1c-1.3-1-3.1-0.7-4,0.5c-1,1.3-0.7,3.1,0.5,4
		c0,0,0,0,0.1,0C275.2,209.1,276.9,208.9,277.9,207.6z"/>
	<polygon fill="#000088" points="325.1,230 323.2,234.5 326.1,230.6 332.9,221.6 348,191.5 348,191.5 348,191.5 329.5,219.6 	"/>
	<path fill="#000088" d="M287.7,197.8c1.2-1,1.5-2.7,0.6-4c0,0,0,0,0-0.1c-1-1.3-2.8-1.5-4-0.5c-1.3,1-1.5,2.8-0.5,4
		c0,0,0,0,0.1,0.1C284.7,198.6,286.4,198.8,287.7,197.8z"/>
	<polygon fill="#000088" points="327.5,231.7 324.5,235.5 328.3,232.5 337.2,225.5 359.6,200.4 334.5,222.8 	"/>
	<path fill="#000088" d="M299.7,190.9c1.4-0.6,2.1-2.2,1.6-3.7c0,0,0,0,0-0.1c-0.6-1.5-2.3-2.2-3.8-1.6c-1.5,0.6-2.2,2.3-1.6,3.8
		c0,0,0,0,0,0.1C296.6,190.8,298.2,191.5,299.7,190.9z"/>
	<polygon fill="#000088" points="329.4,233.9 325.5,236.8 330,234.9 340.4,230.5 368.5,212 368.5,212 368.5,212 338.4,227.1 	"/>
	<path fill="#000088" d="M313.1,187.3c1.5-0.2,2.6-1.6,2.5-3.1c0,0,0-0.1,0-0.1c-0.2-1.6-1.7-2.7-3.2-2.5c-1.6,0.2-2.7,1.7-2.5,3.2
		c0,0,0,0.1,0,0.1C310.1,186.5,311.5,187.5,313.1,187.3z"/>
	<polygon fill="#000088" points="331,237.7 342.1,236.1 374.1,225.5 341.1,232.3 330.7,236.6 326.2,238.3 	"/>
	<path fill="#000088" d="M327,187.3c1.5,0.2,3-0.9,3.2-2.4c0,0,0-0.1,0-0.1c0.2-1.6-0.9-3-2.5-3.2c-1.6-0.2-3,0.9-3.2,2.5
		c0,0,0,0.1,0,0.1C324.3,185.7,325.4,187.1,327,187.3z"/>
	<polygon fill="#000088" points="331.2,239.4 326.4,240 331.2,240.6 342.4,241.9 376,240 342.4,238.1 	"/>
	<path fill="#000088" d="M340.3,190.9c1.4,0.6,3.1-0.1,3.7-1.5c0,0,0,0,0-0.1c0.6-1.5-0.1-3.2-1.6-3.8c-1.5-0.6-3.2,0.1-3.8,1.6
		c0,0,0,0,0,0.1C338.2,188.7,338.9,190.3,340.3,190.9z"/>
	<polygon fill="#000088" points="330.7,243.4 341.1,247.7 374.1,254.5 342.1,243.9 331,242.3 326.2,241.7 	"/>
	<path fill="#000088" d="M352.4,197.9c1.2,0.9,3,0.7,4-0.5c0,0,0,0,0.1-0.1c1-1.3,0.7-3.1-0.5-4s-3.1-0.7-4,0.5c0,0,0,0,0,0.1
		C350.9,195.2,351.1,196.9,352.4,197.9z"/>
	<polygon fill="#000088" points="330,245.1 325.5,243.2 329.4,246.1 338.4,252.9 368.5,268 368.5,268 368.5,268 340.4,249.5 	"/>
	<path fill="#000088" d="M362.7,203.6C362.7,203.7,362.6,203.7,362.7,203.6c-1.3,1-1.5,2.8-0.5,4c1,1.2,2.7,1.5,4,0.6c0,0,0,0,0.1,0
		c1.3-1,1.5-2.8,0.5-4S364,202.7,362.7,203.6z"/>
	<polygon fill="#000088" points="328.3,247.5 324.5,244.5 327.5,248.3 334.5,257.2 359.6,279.6 337.2,254.5 	"/>
	<path fill="#000088" d="M369.1,219.7c0.6,1.4,2.2,2.1,3.7,1.6c0,0,0,0,0.1,0c1.5-0.6,2.2-2.3,1.6-3.8c-0.6-1.5-2.3-2.2-3.8-1.6
		c0,0,0,0-0.1,0C369.2,216.6,368.5,218.2,369.1,219.7z"/>
	<polygon fill="#000088" points="326.1,249.4 323.2,245.5 325.1,250 329.5,260.4 348,288.5 348,288.5 348,288.5 332.9,258.4 	"/>
	<path fill="#000088" d="M372.7,233.1c0.2,1.5,1.6,2.6,3.1,2.5c0,0,0.1,0,0.1,0c1.6-0.2,2.7-1.7,2.5-3.2c-0.2-1.6-1.7-2.7-3.2-2.5
		c0,0-0.1,0-0.1,0C373.5,230.1,372.5,231.5,372.7,233.1z"/>
	<polygon fill="#000088" points="322.3,251 323.9,262.1 334.5,294.1 327.7,261.1 323.4,250.7 321.7,246.2 	"/>
</g>
</svg>
