<?xml version="1.0" encoding="utf-8"?>
<!-- Generator: Adobe Illustrator 17.1.0, SVG Export Plug-In . SVG Version: 6.00 Build 0)  -->
<!DOCTYPE svg PUBLIC "-//W3C//DTD SVG 1.1//EN" "http://www.w3.org/Graphics/SVG/1.1/DTD/svg11.dtd">
<svg version="1.1" id="flag-icon-css-io" xmlns="http://www.w3.org/2000/svg" xmlns:xlink="http://www.w3.org/1999/xlink" x="0px"
	 y="0px" viewBox="0 0 640 480" enable-background="new 0 0 640 480" xml:space="preserve">
<g>
	<path fill="#FFFFFF" d="M374.2,31.2c-1.4-1.7-3.1-3.2-4.8-4.2c-1.4-0.8-4.1-2.9-5.9-4.6c-1.8-1.7-5.5-4.7-8.1-6.7
		c-3.4-2.6-5.1-4.2-5.5-5.3c-0.4-0.9-0.7-1.6-0.8-1.6c0,0-0.7,0.3-1.5,0.7c-1.2,0.5-1.5,1-1.8,2.7c-0.4,2.3-0.4,14.1,0,15.1
		c0.3,0.7,1,1.3,1.9,1.8c-0.1-1.4-0.2-3.9-0.2-3.9l2.1,4.7c1,0.3,2,0.6,3.1,0.7c1.8,0.2,5.4,0.8,8,1.5l4.8,1.2l4.2,4.5
		c2.2-0.9,4.4-2,6.5-3.2C376,33.5,375.4,32.7,374.2,31.2z"/>
	<path fill="#FFFFFF" d="M312.4,473.3l4.3,2.5c5,2.9,8.7,3.8,14.2,3.3c1.5-0.1,2.5-0.2,3.3-0.5c-8.1-1.2-15.2-3.2-21.7-5.5
		L312.4,473.3z"/>
	<path fill="#FFFFFF" d="M394.1,83.9l1.5-4.2c-0.6-0.4-1-0.7-1.1-0.7c-0.2,0-0.4-0.6-0.4-1.3c0-0.7-1.8-5.6-4.1-11.5
		c-1.5,1.1-2.9,2.2-4.4,3.3c1.3,2.7,2.6,6,3.7,9.1l1.1-3.6L394.1,83.9z"/>
	<path fill="#FFFFFF" d="M323.7,425.7c0.4-5.4,0.9-10.6,1.1-11.5c0.6-2.8,0.2-11.3-0.5-13.1c-0.6-1.4-0.9-2.8-1-4.4
		c-2.3-0.6-4.5-1.2-6.6-1.9c-0.1,2.5,0.2,4.8,1,11.1c1,7.8,1.2,11.1,1,15.9c-0.1,3.5-0.4,7.6-0.8,12c1.7,0.5,3.5,1,5.3,1.5
		C323.2,432.6,323.4,429.4,323.7,425.7z"/>
	<path fill="#FFFFFF" d="M413.3,87.7c-0.1-0.1-0.2-0.1-0.2-0.2l-0.9,0.5L413.3,87.7z"/>
	<path fill="#FFFFFF" d="M328.1,352.2c0-1.8,0.1-3.5,0.4-5.2c-3.9-0.4-7.1-1-9-1.8c-0.3,2.1-0.4,4.5-0.6,8.8c0,0.2,0,0.4,0,0.6
		c2.8,0.8,5.8,1.6,8.9,2.2C328,355.5,328.1,354.1,328.1,352.2z"/>
	<path fill="#FFFFFF" d="M465.1,178c-0.2-1.1-0.3-3.6-0.1-5.5c0.5-6.1,0.2-13.6-0.5-15.1c-0.5-1-0.7-2-0.4-3.6
		c0.3-2,0.1-2.6-1.4-5.7c-2.3-4.6-6.2-9.7-8.5-11.3c-1.1-0.7-2.1-1.8-2.2-2.4c0-0.1,0-0.1-0.1-0.2c-1.7-0.6-3.3-1.1-5.1-1.6
		c0.3,0.8,0.6,1.7,0.9,2.9c2.7,8.7,2.4,8,5.9,12.4l3,3.8l0.4,5c0.2,4,0.1,6.2-0.7,11.4c-0.3,2.1-0.6,4-1,5.8
		C458.6,175.2,461.9,176.6,465.1,178C465.1,178.1,465.1,178,465.1,178z"/>
	<path fill="#FFFFFF" d="M322.6,269.9c0,0.2,0,0.3-0.1,0.5c0.4,0,0.9,0,1.3,0C323.4,270.3,323,270.2,322.6,269.9z"/>
	<path fill="#FFFFFF" d="M317.3,194.9c-0.3-0.2-0.7-0.4-1-0.6c0,0-0.1,0-0.1-0.1l-0.1,0.3C316.5,194.6,316.9,194.7,317.3,194.9z"/>
	<path fill="#FFFFFF" d="M319.6,6c2.3-0.5,2.4-0.6,2.4-2.1c0-1.5-0.1-1.6-2.9-2.5c-3.3-1.1-3.8-1.1-7.4-0.3
		c-2.8,0.6-5.1,1.7-5.9,2.7c-0.3,0.3-0.6,1.3-0.7,2.1l-0.3,1.5l2.7-0.2c1.4-0.1,4.3-0.3,6.2-0.4C315.6,6.6,318.3,6.3,319.6,6z"/>
	<path fill="#FFFFFF" d="M331.2,276.7c-0.3-1.3-0.5-2.8-0.7-4.2c-1.9-0.1-3.9-0.2-5.8-0.2c-0.8,0-1.6,0.1-2.3,0.2
		c-0.1,1.1-0.3,2.2-0.4,3.2c3,0.8,6.2,1.5,9.5,2.1C331.3,277.5,331.2,277.1,331.2,276.7z"/>
	<path fill="#FFFFFF" d="M284.8,3.2c-0.2,0-1.2,0.2-2.2,0.4c-2.9,0.5-4.6,1.7-14.7,10.4c1.8,0.6,3.5,1.3,5.3,2.1
		c0.4-0.5,0.8-0.8,1.4-0.8c1.4,0,7.9-4,10.5-6.4l2-1.8l-0.9-2C285.5,4.1,285,3.2,284.8,3.2z"/>
	<path fill="#FFFFFF" d="M427.4,247.9c0.3-1.6,0.8-2.9,1.7-4.1c1-1.4,1.4-2.6,1.4-3.6c0-1.4,0.6-2.3,5.6-7.4c3-3.1,6-6.7,6.6-7.9
		c1.3-2.5,5.7-8.6,8.1-11.5c-3.3-1.1-6.6-2-10.2-2.6l0.9,3.5l-3.3-3.9c-0.1,0-0.2,0-0.2,0c-2,2.7-4.2,5.6-7,9c-2,2.4-6,8-9,12.3
		c-4.3,6.1-6.1,9.3-8.3,14.2c-1,2.2-1.7,3.8-2.3,4.9c4.5-1.7,9.2-2.8,14.4-2.8C426.3,247.9,426.8,247.9,427.4,247.9z"/>
	<path fill="#FFFFFF" d="M443.2,309.6l-5.8-5.9l-4.1-8.1c-1.3-2.6-2.3-4.7-3.1-6.5c-1.5-0.1-3-0.1-4.5-0.1c-1.4,0-2.7,0.1-4,0.2
		c0.7,1.8,1,4.1,1.6,8.5c0.7,5.1,0.7,5.3,4.4,12.2l3.8,7l-0.3,2.8c-0.3,2.6-0.2,3,1.6,6.8c0.2,0.5,0.5,1,0.7,1.5
		c11.5,1.1,21,4.6,30.1,8.8C462.2,329.3,458.4,325,443.2,309.6z"/>
	<path fill="#FFFFFF" d="M352.6,438l0-3.9c-0.3,1.4-0.8,3.2-1.2,4.9c0.4,0,0.8,0,1.2,0C352.6,438.7,352.6,438.3,352.6,438z"/>
	<path fill="#FFFFFF" d="M277,177c-4.9-3.9-8.3-7.7-11.4-12.5c-0.9-1.3-1.7-2.6-2.6-3.8l-1.4,0.7l1.1-1.1c-0.5-0.7-1-1.4-1.5-2.1
		l-8.3,5.7l6.2-8.5c-0.9-1.1-1.7-2.2-2.6-3.2l-15.2,5.7l12.6-8.7c-3.4-3.7-6.5-6.3-8.9-7.5v6.3h0h-27.4l3.4,4.3
		c5.2,6.8,9,11.3,13.8,16.2c1.7-0.2,3.4-0.4,5.2-0.4C254.7,168.3,266.1,172,277,177z"/>
	<path fill="#FFFFFF" d="M377.3,412.6c4-5.2,6.3-7.7,11.6-12.3c4.5-4,6.7-6.2,6.9-7c0.5-2.4,2.9-4.7,7-6.5
		c4.2-1.9,6.3-3.6,18.6-14.8c1.4-1.3,2.6-2.4,3.7-3.3c-6.7,0.1-12.7,2-18.2,4.9c-1.2,1.4-1.7,1.6-2.9,1.6
		c-11.4,6.6-21.3,16.6-33.3,21.9c0,0,0,0.1-0.1,0.1c-0.3,0.5-0.7,1.3-1.1,2.1l0.3,25.1C370.7,421.2,372.3,419.1,377.3,412.6z"/>
	<path fill="#FFFFFF" d="M330.2,270.5C330.2,270.5,330.2,270.5,330.2,270.5C330.2,270.5,330.2,270.5,330.2,270.5
		C330.2,270.5,330.2,270.5,330.2,270.5z"/>
	<path fill="#FFFFFF" d="M326.3,268.3c0,1.1-0.9,1.9-2,2.1c0.1,0,0.2,0,0.3,0c1.7,0,3.4,0.1,5.2,0.2c-1.1-0.1-2-1-2-2.1
		c0-1.1,1-2,2.2-2.1c0.1-1.2,0.3-1.3,1.3-1.5c2.9-0.6,5.2-7.5,5.2-15.7c0-4.7-0.2-5.9-1.2-8.6c-0.1-0.2-0.2-0.4-0.3-0.6
		c-3.4-0.5-6.6-1.1-9.7-1.8c0.4,1.5,0.8,2.3,1.7,3.3c1.4,1.7,1.5,1.8,1.5,6.1c0,2.4-0.2,6.1-0.5,8.3c-0.5,3.7-0.7,4.1-2.8,6.5
		c-1.6,1.8-2.1,2.5-2.3,4.1c0.3-0.1,0.6-0.2,1-0.2C325.3,266.2,326.3,267.1,326.3,268.3z"/>
	<path fill="#000063" d="M266.1,15.6c-3.4,3-4,4.6-2.5,6.7l1,1.4l3.6-2.6c2.1-1.5,3.9-3.2,4.4-4.2c0.2-0.3,0.3-0.6,0.5-0.8
		c-1.7-0.7-3.5-1.4-5.3-2.1C267.3,14.6,266.7,15.1,266.1,15.6z"/>
	<polygon fill="#000063" points="457.1,200.4 457.1,198.1 454.5,198.1 	"/>
	<path fill="#000063" d="M438,210.1c0,0-0.1,0.1-0.1,0.1c0.1,0,0.2,0,0.2,0L438,210.1z"/>
	<path fill="#000063" d="M450.8,213.4C450.8,213.4,450.9,213.3,450.8,213.4l-9.5-7.8c-0.5,0.7-0.9,1.4-1.4,2.1l0.8,3.1
		C444.2,211.4,447.6,212.3,450.8,213.4z"/>
	<path fill="#000063" d="M358.3,458.9c0.4-0.9,0.9-3.1,1.2-4.8c0.3-1.6,0.5-2.5,1-3.3c-3.9-0.1-7.5-4-7.8-11.8c-0.4,0-0.8,0-1.2,0
		c-0.5,1.7-0.9,3.5-1.4,5c-1.8,5.9-1.8,6.1-1.1,8.4c0.7,2.4,0.9,4.5,0.4,6.2c-0.2,0.9-0.6,1.1-2.1,1.1c-1.5,0-1.8,0.1-1.8,0.9
		c0,0.8-0.1,0.9-0.9,0.4c-0.8-0.5-0.9-0.9-0.7-3.2c0.2-1.4,0.6-3,0.9-3.6c0.4-0.6,0.7-1.7,0.7-2.5c0-1.7-0.9-1.8-3.5-0.6l-1.6,0.8
		v6.4v6.4l-1.4,1.4c-0.8,0.7-1.8,2.1-2.3,3c-1,1.9-1,1.8-0.9-4c0-2.7,0.3-4.1,0.9-5.1c0.7-1.3,0.8-1.6,0.2-2.9l-0.7-1.5l-2,0.9
		c-1.4,0.6-2.3,1.4-3.3,3l-1.3,2.2l1,1.8c0.9,1.5,0.9,2,0.4,3.5c-0.3,1-0.4,2.5-0.3,3.4c0.2,1.2,0.2,1.6-0.4,1.6c-0.4,0-0.8-0.5-1-1
		c-0.3-0.8-0.4-0.9-0.7-0.4c-0.2,0.4-0.4,1.1-0.4,1.7c0,0.7-0.5,1.3-1.4,1.7c-1.5,0.8-1.9,0.6-1.9-1c0-1.4-1.3-1.4-4.1-0.1l-2,0.9
		v-1.9c0-1.5,0.3-2.2,1.4-3.3c1.3-1.2,1.4-1.5,0.9-2.8c-0.4-1.1-0.3-1.7,0.3-2.9l0.7-1.5l0.7,1.5c0.4,0.8,0.9,1.5,1.1,1.5
		c0.4,0,0.9-1.7,0.9-3.2c0-0.9,0.2-1,2.1-1c2.5,0,2.7-0.7,1-3c-4.1-5.4-5.3-9.8-4.9-21.7c-1.8-0.5-3.6-0.9-5.3-1.5
		c-0.8,9.1-2,19.3-3.4,27.5l-2,11.7c6.5,2.3,13.6,4.2,21.7,5.5c1.3-0.5,2.2-1.6,4-4.2c1.6-2.2,2.4-3,3.6-3.2c2.9-0.6,5.9-2.6,7.4-5
		c1.9-3,5.1-5.6,6.9-5.6C357.4,460.6,357.7,460.3,358.3,458.9z"/>
	<path fill="#000063" d="M463.3,188.5c0.2-1.7,0.8-4.3,1.4-5.8c0.7-2.1,0.8-3,0.4-4.6c-3.2-1.5-6.5-2.9-9.8-4.2
		c-0.9,4.8-2,8.6-3.7,12.7l10.8,1.8l-12.6,2.1c0,0.1-0.1,0.1-0.1,0.2l11.5,3.9C462.2,193.2,462.9,191.2,463.3,188.5z"/>
	<path fill="#000063" d="M452.8,211.5c0.7-0.6,1.6-1.7,2.4-2.9c0.6-0.8,0.9-1.5,1.2-2l-7.1-2L452.8,211.5z"/>
	<path fill="#000063" d="M331.8,279.9c-0.1-0.7-0.2-1.4-0.4-2.1c-3.3-0.6-6.5-1.3-9.5-2.1c0,0.3-0.1,0.5-0.1,0.8l-0.8,5.1l0.9,4.3
		c0.7,0.1,1.4,0.2,2.2,0.2C327.9,286.4,327.9,281.4,331.8,279.9z"/>
	<path fill="#000063" d="M431.1,108.3c-0.3-0.4-0.5-0.8-0.8-1.2l-1.4,3.2L431.1,108.3z"/>
	<path fill="#000063" d="M430.2,289.1c-0.9-2.1-1.5-3.7-1.8-5.1c-0.4-2-1.2-4.7-1.7-6.2c-0.6-1.6-0.9-3.8-0.9-6
		c0-2.2-0.3-4.2-0.9-5.7c-1.2-3.1-0.8-8.7,0.8-12.3c0.7-1.4,1.3-3.8,1.5-5.3c0-0.2,0.1-0.4,0.1-0.6c-0.6,0-1.1,0-1.7,0
		c-5.2,0-10,1.1-14.4,2.8c-1,1.7-1.8,2.7-3.2,4c-2.4,2.3-2.9,3.2-4.6,7.5c-0.7,1.8-1.1,2.9-1.4,3.9c0,0,0.1,0,0.1,0
		c1.3,0,2.3,0.9,2.3,2.1c0,1.1-0.9,2-2.1,2.1c3.9,0.1,6.9,0.9,9.3,2.3c-0.3-0.3-0.4-0.8-0.4-1.2c0-1.2,1-2.1,2.3-2.1
		s2.3,0.9,2.3,2.1s-1,2.1-2.3,2.1c-0.3,0-0.5,0-0.8-0.1c3,2.3,4.5,5.8,4.7,9.9l0.1,0.1c0.5,0.5,0.9,1,1.3,1.4
		c0.3-0.2,0.7-0.3,1.1-0.3c1.3,0,2.3,0.9,2.3,2.1c0,0.6-0.3,1.2-0.8,1.6c0.1,0.3,0.3,0.6,0.4,0.9c1.3-0.1,2.6-0.2,4-0.2
		C427.3,288.9,428.8,289,430.2,289.1z M407.9,270.7c-1.3,0-2.3-0.9-2.3-2.1s1-2.1,2.3-2.1s2.3,0.9,2.3,2.1S409.1,270.7,407.9,270.7z
		 M415.5,275.7c0-1.2,1-2.1,2.3-2.1s2.3,0.9,2.3,2.1s-1,2.1-2.3,2.1S415.5,276.8,415.5,275.7z M419.7,283.1c-1.3,0-2.3-0.9-2.3-2.1
		c0-1.2,1-2.1,2.3-2.1s2.3,0.9,2.3,2.1C422,282.2,421,283.1,419.7,283.1z"/>
	<path fill="#000063" d="M381.3,45.7c-1.8-3.9-3.4-6.5-4-6.9c-0.8-0.4-1-1-1-2.8c0-0.6,0-1.1-0.1-1.5c-2.1,1.2-4.3,2.3-6.5,3.2
		l0.3,0.3l4.5,4.9l0.7,5.5c0.4,3,0.7,6.4,0.7,7.5c0,1.8,0.1,2.1,3.1,4.2c2.9,2.2,3.2,2.5,6.1,8.2c0.2,0.4,0.4,0.7,0.5,1.1
		c1.5-1.1,2.9-2.2,4.4-3.3C387.2,59,383.5,50.3,381.3,45.7z"/>
	<path fill="#000063" d="M423.3,97.2c-2.1-2.2-4.3-4.6-5-5.5c-0.3-0.4-0.8-0.8-1.4-1.3l-12.2,9c0.5,0.3,0.9,0.5,1.4,0.8l9.7-3.2
		l-6.6,4.9c1.4,0.7,2.7,1.4,3.5,1.9c1.7,0.8,4,2.2,5.7,3.3l2.4-2.1l-1.2,2.9c0,0,0,0,0,0c1,0.7,2,1.4,3,1.8l5.8-5.6
		C427.3,101.9,425.6,99.6,423.3,97.2z"/>
	<path fill="#000063" d="M449.8,130.6c-0.4-0.6-0.9-1.4-1.4-2.3l-3.4,0.2c0.6,0.9,1,2,1.7,4.1c1.7,0.5,3.4,1,5.1,1.6
		C451.5,133.5,450.7,131.9,449.8,130.6z"/>
	<path fill="#000063" d="M323.6,391.5c0.4-2,0.9-6.7,1.2-10.4c0.3-3.7,0.7-7.8,1-9.1c0.2-1.3,0.4-4.2,0.4-6.4c0-3,0.2-4.8,0.9-6.6
		c0.3-0.7,0.5-1.4,0.6-2.2c-3.1-0.6-6.1-1.4-8.9-2.2c-0.2,5-0.3,12.8-0.3,17.6c0.1,5.5,0,9.8-0.4,10.8c-0.2,0.9-0.8,4.3-1.2,7.4
		c-0.2,1.9-0.4,3.3-0.4,4.5c2.1,0.7,4.3,1.3,6.6,1.9C323.1,395.2,323.3,393.5,323.6,391.5z"/>
	<path fill="#000063" d="M446.4,125.1c-0.2-0.3-0.4-0.7-0.7-1.1l-4.7,0.3c0.7,0.6,1.4,1.2,1.8,1.6c0.3,0.3,0.6,0.6,0.8,0.8l4.7,1.4
		C447.6,127.1,446.9,126,446.4,125.1z"/>
	<path fill="#000063" d="M403.8,375c-2.1,0-2.2,0.5,2.1-5.8c3.1-4.3,3.2-4.6,3.1-6.9l-0.1-2.4l-4.2,3.8c-3.6,3.2-4.4,3.8-5.9,3.8
		c-1.1,0-2,0.3-2.6,1c-2.2,2.5-8,6.7-10.6,7.7c-1.6,0.7-4.4,1.9-6.2,2.9l-3.3,1.7l-2,6.8c-1.1,3.8-2.6,7.8-3.4,9.3
		C382.5,391.6,392.4,381.6,403.8,375C403.8,375,403.8,375,403.8,375z"/>
	<path fill="#000063" d="M402,272.4l0.2,3.6l2.6,1.5c2.2,1.3,3,1.5,5.7,1.5h3.1l0.9,1C412.7,275.8,408.6,272.5,402,272.4z"/>
	<path fill="#000063" d="M440.4,359.4c4.7-1.4,7.3-2.5,12.9-5.5c4.2-2.2,7.9-4.7,9.2-6l2.3-2.2l-0.3-3.3c-0.2-2.2-0.4-4.1-0.8-5.9
		c-9.2-4.2-18.7-7.7-30.1-8.8c0.8,1.8,1.5,3.6,1.7,4.4c0.4,1.8,5.1,8.1,6.3,8.5c0.3,0.1,0.9-0.5,1.4-1.3c0.8-1.4,0.8-1.4-0.7-4.4
		c-0.8-1.6-1.4-3.1-1.3-3.2c0.5-0.6,2.9,0.8,5.2,3c2,1.9,2.9,2.4,4.6,2.6c3.4,0.5,3.4,0.5,1.4,5.1c-1.7,3.8-2,4.2-3.2,4.2
		c-1.2,0-1.3-0.1-1.4-2c-0.1-1.1-0.3-2-0.6-2s-1.1,1-1.9,2.2c-1.3,1.8-2.9,3-4.2,3c-0.2,0-0.7-0.6-1-1.4c-1-2.4-3-1.7-4.6,1.7
		c-0.7,1.5-1.6,2.6-2.6,3.1c-0.8,0.5-3.2,2.5-5.2,4.5c-3.1,3-4,3.7-5.7,4c-1.1,0.2-2.2,0.2-2.3,0c-0.4-0.4,4-5.1,6.5-7.1
		c1.2-0.9,2.2-1.9,2.2-2.1c0-0.2,0.8-1.2,1.9-2.2c1-1,2.6-3.2,3.5-4.9c1.5-2.9,1.6-3.3,1.1-4.7c-0.3-0.9-0.9-2.1-1.3-2.6
		c-0.7-1-0.8-1-1.5-0.2c-0.4,0.4-1.4,2.1-2.1,3.7c-1.4,2.9-6,9.5-6.6,9.5c-0.2,0-2.7,2.2-5.5,4.9c-5.7,5.4-6.6,7.2-6.6,11.6
		c0,2.1-0.3,2.7-2.7,5.8c-0.6,0.8-1.1,1.4-1.5,1.9c5.5-2.8,11.5-4.7,18.2-4.9C431.9,362.3,434.1,361.3,440.4,359.4z"/>
	<path fill="#000063" d="M332.2,234.6c-2.4-3.6-3.6-9.1-4.8-20.7c-0.4-4.4-0.9-9.3-1-10.9c-0.4-3.7-1.5-5.3-4.7-6.1
		c-0.4-0.1-0.8-0.3-1.4-0.5L317,202l0.5-7.1c0,0-0.1-0.1-0.1-0.1c-0.4-0.1-0.8-0.3-1.2-0.4l-7.9,15.1l0.7-10.5l-5.1,9.7
		c2.3,1.3,4.8,2.7,6.8,4.1l4.2,2.9l4.9,8.4c4.4,7.6,5,8.7,5.5,12c0.1,0.8,0.2,1.4,0.4,2c3.1,0.7,6.3,1.3,9.7,1.8
		C334.4,238.2,333.2,236,332.2,234.6z"/>
	<path fill="#000063" d="M278.7,195l17.6-6.3c-0.8-0.3-1.6-0.6-2.4-1l-6.5-0.3l3.5-1.2c-0.2-0.1-0.3-0.2-0.5-0.3
		c-5.6-3.3-10-6.2-13.5-9c-10.9-4.9-22.2-8.7-37-8.7c-1.8,0-3.5,0.1-5.2,0.4c2.1,2.2,4.5,4.5,7.3,7.1c13.6,12.8,15.3,14.2,21.5,17.3
		c3,1.5,6.6,3,8,3.3c3.3,0.7,6.9,1.8,10.9,3.4l7.3-4.1L278.7,195z"/>
	<path fill="#000063" d="M401.9,270.3C401.9,270.3,401.9,270.3,401.9,270.3C401.9,270.3,401.9,270.3,401.9,270.3
		C401.9,270.3,401.9,270.3,401.9,270.3z"/>
	<path fill="#000063" d="M299.9,206.8c0.1,0,0.1,0.1,0.2,0.1l0-0.3L299.9,206.8z"/>
	<path fill="#000063" d="M190.8,98.8l28.4,17.1c-0.7-1.2-1.6-2.6-2.3-4l-2.7-5.1l0.6-3.7c0.3-1.6,0.5-3.1,0.9-4.3H190.8z"/>
	<rect x="245" y="141.8" fill="#FFFFFF" width="0" height="6.3"/>
	<path fill="#FFFFFF" d="M171.3,103.5c0.3,0.9,0.8,1.9,1.5,3.2c1.6,2.9,2.3,3.6,6.9,6.8l5.1,3.6l1.3,4.6c1.2,4.5,1.3,4.7,4,7.2
		c3.3,3,11.7,8.8,20.2,14l6.3,3.9l1.1,1.4H245L171.3,103.5z"/>
	<path fill="#FFFFFF" d="M190.8,98.8h-9.1l48.1,29.1c-0.8-1.4-1.2-1.7-2.4-1.9c-1.3-0.3-2-1-3.4-3c-1-1.4-2.4-3.4-3.1-4.3
		c-0.4-0.5-1.1-1.5-1.8-2.7L190.8,98.8z"/>
	<path fill="#FFFFFF" d="M181.7,98.8h9.1h24.9c1-3.9,2.6-6.3,5.8-9.8c0.1-0.1,0.1-0.1,0.2-0.2h-37.8c-2.2,1.7-4.2,3.2-4.9,3.6
		c-0.7,0.4-2.8,2.2-4.6,3.9c-1.1,1.1-1.9,1.8-2.4,2.4h9.7L181.7,98.8z"/>
	<path fill="#CC0000" d="M245,148.1v-6.3c-0.4-0.2-0.8-0.4-1.1-0.5c-1.6-0.5-2.2-1-2.2-1.6c0-1.2-4.4-4.7-7.1-5.8
		c-1.9-0.7-2.2-1.1-3.7-4.2c-0.4-0.8-0.7-1.4-0.9-1.8l-48.1-29.1l-0.2-0.1h-9.7c-0.9,1-0.9,1.6-0.9,2.8c0,0.6,0.1,1.3,0.3,2
		L245,148.1z"/>
	<path fill="#CC0000" d="M228.9,77.4c1.1-5.9,0.3-9-2-7c-1.5,1.4-2.4,1.5-11.5,2l-8.1,0.4l-3.6,3.5c-3.7,3.6-4.9,4.3-10.9,6.9
		c-2.4,1-5.2,2.7-8.1,5c-0.3,0.2-0.6,0.5-0.9,0.7h37.8C226,84.2,228.3,80.4,228.9,77.4z"/>
	<path fill="#A24300" d="M352.7,439c0.3,7.8,4,11.7,7.8,11.8c0.4-0.6,0.8-1.2,1.6-1.9c1.8-1.9,2-2.3,1.8-3.8c-0.2-1.3,0.1-3,1.4-6.5
		c0.9-2.7,2.3-7.3,3.1-10.2c0.5-1.7,0.8-3,1.3-4.2l-0.3-25.1c-0.6,1.3-1.3,2.8-1.7,4c-1.2,3.4-1.4,3.7-5.2,7
		c-2.2,1.9-4.3,4.2-4.9,5.2c-0.9,1.8-2.9,9.4-4.7,17.8c-0.1,0.3-0.2,0.7-0.2,1.1l0,3.9C352.6,438.3,352.6,438.7,352.7,439z"/>
	<path fill="#006D00" d="M418.6,107.1c0.5,0.3,0.9,0.6,1.2,0.8l1.2-2.9L418.6,107.1z"/>
	<path fill="#006D00" d="M442.2,120.3c-1.5-1.2-3.6-3.4-4.8-5.1c-1.2-1.6-3.1-3.7-4.3-4.7c-0.7-0.6-1.4-1.3-2.1-2.2l-2.2,2.1
		l1.4-3.2c-0.4-0.6-0.8-1.3-1.2-2.2c-0.1-0.3-0.3-0.5-0.4-0.8l-5.8,5.6c0.7,0.4,1.4,0.7,1.8,0.7c1.5,0.3,2.2,0.8,4.1,3.5
		c1.7,2.2,3.6,4,6.9,6.2c1.7,1.2,3.8,2.8,5.4,4.2l4.7-0.3C444.8,122.7,443.4,121.3,442.2,120.3z"/>
	<path fill="#006D00" d="M448.3,128.3l-4.7-1.4c0.6,0.6,1,1.1,1.4,1.7L448.3,128.3C448.4,128.3,448.4,128.3,448.3,128.3z"/>
	<path fill="#006D00" d="M441.5,214.2l-0.9-3.5l-0.8-3.1c-0.6,0.8-1.2,1.7-1.8,2.5l0.1,0.2L441.5,214.2z"/>
	<path fill="#006D00" d="M452.4,211.8c0.1-0.1,0.3-0.2,0.5-0.3l-3.5-6.9l7.1,2c0.5-1.2,0.6-2.2,0.7-4.9l0-1.3l-2.6-2.3l2.7,0l0-0.5
		l1.9-1.1c0.8-0.5,1.5-1.1,2.1-1.9l-11.5-3.9c-0.4,0.9-0.9,1.8-1.4,2.8c-2.1,4.3-4.2,7.9-7,12l9.5,7.8
		C451.6,212.5,452.1,211.9,452.4,211.8z"/>
	<path fill="#006D00" d="M451.5,186.6c-0.5,1.3-1.1,2.6-1.8,3.9l12.6-2.1L451.5,186.6z"/>
	<path fill="#006D00" d="M308.2,209.6l7.9-15.1l0.1-0.3c-5.9-4-11-5.5-15.5-4.7c-0.9,0.2-2.5-0.1-4.4-0.8l-17.6,6.3l11,0.5l-7.3,4.1
		c1.9,0.7,3.9,1.5,6,2.5c3.7,1.6,7.5,3.2,8.6,3.6c0.8,0.3,1.8,0.7,2.8,1.1l0.2-0.3l0,0.3c1.2,0.5,2.4,1.2,3.7,1.8l5.1-9.7
		L308.2,209.6z"/>
	<path fill="#006D00" d="M294,187.8c-1-0.4-2-1-3-1.5l-3.5,1.2L294,187.8z"/>
	<path fill="#006D00" d="M320.4,196.4c-0.9-0.4-2-0.9-2.9-1.5L317,202L320.4,196.4z"/>
	<path fill="#006D00" d="M406.2,100.2c1,0.6,2.1,1.2,3.1,1.7l6.6-4.9L406.2,100.2z"/>
	<path fill="#006D00" d="M413.3,87.7l-1.1,0.4l0.9-0.5c-2.6-1.7-5.5-3.3-7-3.7c-1.4-0.4-3.5-0.9-4.8-1c-1.8-0.2-2.8-0.7-4.4-2.1
		c-0.5-0.4-0.9-0.8-1.3-1.1l-1.5,4.2l-3.8-8.9l-1.1,3.6c0.3,0.9,0.6,1.7,0.9,2.6c1.8,5.9,2.4,7.2,4.8,10.4c2.5,3.5,3,3.9,8.3,7
		c0.5,0.3,1,0.6,1.5,0.9l12.2-9C416,89.6,414.7,88.7,413.3,87.7z"/>
	<path fill="#006D00" d="M347.6,29.1c0.6,0.3,1.2,0.6,1.9,0.8l-2.1-4.7C347.5,25.2,347.6,27.6,347.6,29.1z"/>
	<path fill="#006D00" d="M256.6,152.3c-0.9-1.1-1.8-2.1-2.6-3l-12.6,8.7L256.6,152.3z"/>
	<path fill="#006D00" d="M263,160.7c-0.1-0.1-0.2-0.3-0.3-0.4l-1.1,1.1L263,160.7z"/>
	<path fill="#006D00" d="M261.2,158.2c-0.7-0.9-1.4-1.9-2.1-2.7l-6.2,8.5L261.2,158.2z"/>
	<path fill="#CC0000" d="M334.4,320.5c0.2-1.5,0.5-2.8,0.7-3.9c0.4-2.1,0.6-3.2,0.5-4.5c-1.4,0.4-1.8,1.4-1.8,1.4s0-2.9,1.4-4.2
		c-0.1-0.4-0.2-0.9-0.3-1.4c-0.5-2.7-1.1-7.6-1.3-10.9c-0.4-7.3-0.8-12-1.7-17.2c-3.8,1.5-3.9,6.5-7.7,6.4c-0.8,0-1.5-0.1-2.2-0.2
		l0.6,3c0.8,4,2.3,9.7,3.3,12.7c1.8,5.2,1.8,5.5,1.4,9.7c-0.2,2.2-0.9,5.8-1.9,10.4c1.2,0.4,2.5,0.7,3.8,0.7
		C330.9,322.5,332.7,321.7,334.4,320.5z"/>
	<path fill="#FFF100" d="M412.8,273.4c-0.4-0.1-0.8-0.4-1.1-0.8c-2.3-1.4-5.4-2.2-9.3-2.3c0,0-0.1,0-0.1,0c-0.1,0-0.2,0-0.3,0
		c0,0,0,0-0.1,0c0,0.4,0.1,0.8,0.1,1.3l0.1,0.8c6.6,0.1,10.7,3.4,12.4,7.6l3,3.3C417.2,279.2,415.7,275.7,412.8,273.4z"/>
	<path fill="#FFFFFF" d="M422.2,286.6c0-1.2-1-2.1-2.3-2.1c-0.4,0-0.8,0.1-1.1,0.3c1.2,1.3,2,2.3,2.5,3.4
		C421.8,287.9,422.2,287.3,422.2,286.6z"/>
	<ellipse fill="#FFFFFF" cx="419.7" cy="281" rx="2.3" ry="2.1"/>
	<ellipse fill="#FFFFFF" cx="417.7" cy="275.7" rx="2.3" ry="2.1"/>
	<path fill="#FFFFFF" d="M412.8,273.4c0.2,0.1,0.5,0.1,0.8,0.1c1.3,0,2.3-0.9,2.3-2.1s-1-2.1-2.3-2.1s-2.3,0.9-2.3,2.1
		c0,0.4,0.2,0.9,0.4,1.2C411.9,273,412.3,273.3,412.8,273.4z"/>
	<ellipse fill="#FFFFFF" cx="407.9" cy="268.6" rx="2.3" ry="2.1"/>
	<path fill="#FFFFFF" d="M402.3,270.4c0,0,0.1,0,0.1,0c1.2-0.1,2.1-1,2.1-2.1c0-1.2-1-2.1-2.3-2.1c0,0-0.1,0-0.1,0
		c-0.4,1.3-0.4,2.3-0.3,4.1c0,0,0,0,0.1,0C402.1,270.3,402.2,270.4,402.3,270.4z"/>
	<path fill="#FFFFFF" d="M324.3,270.3c1.1-0.1,2-1,2-2.1c0-1.2-1-2.1-2.3-2.1c-0.4,0-0.7,0.1-1,0.2c-0.1,0.5-0.1,1-0.2,1.7
		c0,0.5-0.1,1.1-0.2,1.8c0.4,0.3,0.8,0.4,1.3,0.4C324,270.3,324.1,270.3,324.3,270.3z"/>
	<path fill="#FFFFFF" d="M327.8,268.5c0,1.1,0.9,1.9,2,2.1c0.1,0,0.2,0,0.3,0c0,0,0,0,0,0c-0.1-1-0.2-1.9-0.2-2.5c0-0.7,0-1.2,0-1.7
		C328.8,266.4,327.8,267.3,327.8,268.5z"/>
	<path fill="#FFF100" d="M330.5,272.6c-0.1-0.7-0.2-1.4-0.3-2c0,0,0,0,0,0c-0.1,0-0.2,0-0.3,0c-1.8-0.1-3.5-0.2-5.2-0.2
		c-0.1,0-0.2,0-0.3,0c-0.1,0-0.2,0-0.4,0c-0.5,0-0.9,0-1.3,0c-0.1,0.7-0.2,1.4-0.3,2.2c0.7-0.1,1.5-0.2,2.3-0.2
		C326.6,272.4,328.5,272.5,330.5,272.6z"/>
	<path fill="#FFF100" d="M333.6,313.6c0,0,0.4-1,1.8-1.4c-0.1-0.7-0.2-1.6-0.4-2.7C333.6,310.7,333.6,313.6,333.6,313.6z"/>
	<path fill="#FFF100" d="M329,328c1.4-2.3,3.3-4.2,5.1-5.7c0.1-0.6,0.2-1.2,0.3-1.7c-1.6,1.2-3.4,2-5.2,2c-1.4,0-2.7-0.3-3.8-0.7
		c-0.2,0.7-0.3,1.4-0.5,2.1C326.3,325,327.8,326.4,329,328z"/>
	<path fill="#FFF100" d="M329,328c-1.2-1.6-2.7-2.9-4.2-4c-0.7,2.8-1.4,5.9-2.3,9.2c1.4-0.2,2.9-0.4,4.6-0.6
		C327.5,330.9,328.2,329.4,329,328z"/>
	<path fill="#FFF100" d="M329,328c-0.9,1.4-1.5,2.9-1.9,4.6c1.4-0.2,2.9-0.3,4.4-0.4c1.7-2.1,1.7-2.2,2.1-7c0.1-0.9,0.2-1.8,0.4-2.9
		C332.3,323.8,330.4,325.7,329,328z"/>
	<path fill="#FFFFFF" d="M330,337.1c-0.1-2.7,0.1-3.2,1.3-4.7c0.1-0.1,0.2-0.3,0.3-0.4c-1.6,0.1-3.1,0.3-4.4,0.4
		c-1.7,0.2-3.2,0.4-4.6,0.6c-0.3,1.2-0.6,2.4-1,3.6c1.6-0.2,2.9,0,3.1,0.5c0.3,0.6-1.4,1.5-3.8,2.1c-0.3,0.9-0.5,1.7-0.7,2.5
		c2.2-0.6,5.6-1.1,9.6-1.5C330,339.1,330.1,338,330,337.1z"/>
	<path fill="#808080" d="M329.1,344c0.3-1.1,0.6-2.4,0.7-3.7c-4,0.4-7.5,0.8-9.6,1.5c-0.3,1.2-0.5,2.3-0.7,3.4
		c1.9,0.8,5.1,1.4,9,1.8C328.7,345.9,328.9,344.9,329.1,344z"/>
	<path d="M324.7,337.2c-0.2-0.5-1.4-0.7-3.1-0.5c-0.1,0.5-0.3,1-0.4,1.5c-0.1,0.4-0.2,0.7-0.3,1
		C323.2,338.7,324.9,337.8,324.7,337.2z"/>
</g>
</svg>
