<?xml version="1.0" encoding="utf-8"?>
<!-- Generator: Adobe Illustrator 17.1.0, SVG Export Plug-In . SVG Version: 6.00 Build 0)  -->
<!DOCTYPE svg PUBLIC "-//W3C//DTD SVG 1.1//EN" "http://www.w3.org/Graphics/SVG/1.1/DTD/svg11.dtd">
<svg version="1.1" id="flag-icon-css-iq" xmlns="http://www.w3.org/2000/svg" xmlns:xlink="http://www.w3.org/1999/xlink" x="0px"
	 y="0px" viewBox="0 0 640 480" enable-background="new 0 0 640 480" xml:space="preserve">
<g>
	<path fill="#FFFFFF" d="M201.6,161.1c-2.1,4.2-4.3,8.1-5,8.8c-0.9,0.9-84.8,45.4-104.5,55.4l-2,1l2.1,8.3
		c1.1,4.6,3.9,15.6,6.2,24.5c2.3,8.9,4.2,16.5,4.2,16.9c0,0.5-0.7,0.8-2.1,1c-1.6,0.3-2.1,0.6-2.1,1.2c0,0.8,1.8,9.9,2,10.1
		c0,0,2.4-0.4,5.3-0.9l5.2-1.1l1.3,2.5c0.7,1.4,1.2,2.7,1.2,2.9s-1.5,1.7-3.3,3.3c-2,1.7-3,2.9-2.7,3.1c0.3,0.1,13.6,3,29.5,6.4
		l29,6.3l12.9,9.3H528c0.2-0.7,0.2-1.1,0.2-1.3c-0.1-0.5-1-1.4-1.9-2.2s-1.6-1.7-1.6-2.1c0-0.4-0.4-0.9-1-1.2
		c-0.5-0.3-1.7-1.7-2.6-3.2c-0.9-1.4-2.4-3.5-3.3-4.5c-0.8-1-2.1-2.6-2.8-3.4c-0.7-0.9-1.9-1.8-2.6-2.1c-1.1-0.4-1.3-0.7-1.3-2
		c0-0.8,0.2-1.7,0.4-1.9c0.3-0.3-0.7-1.8-2.5-4.1c-2.1-2.6-3-4.1-3.3-5.5c-0.3-2.3-2.7-5.2-4.2-5.2c-0.6,0-1.4-0.3-2-0.7
		c-0.8-0.6-1-0.6-1.8,0.1c-0.5,0.5-1.9,1-3,1.1c-2,0.2-2.3,0.1-6.3-2.7c-4.1-2.8-8-6.6-9.8-9.2c-0.4-0.7-1.4-1.4-2.1-1.5
		c-0.8-0.1-2.8-1.4-4.4-2.8c-1.6-1.4-3.9-3-5-3.6c-1.1-0.6-3.1-1.9-4.5-2.9c-1.1-0.8-2.3-1.8-3.2-2.4c1.5,6.2,4.9,12.2,4.6,17.3
		h-25.4v-46.6c-1-2.1-3.3-4.6-4.1-4.3c-0.4,0.2-1.4,0.4-2.2,0.6c-1.9,0.2-2.1-0.8-0.4-2.4c1.1-1,1.1-1.1,0.5-2.9
		c-0.6-1.7-0.8-1.9-2.7-2.1c0,0,0,0,0,0v57.4h-58.5c-0.9-15.2-1.1-31,16.8-27.7V240c-0.5-1.1-1.6,0.2-1.8-1.2
		c2.8-2.8,3.7-3.5,11.4-10.2l0.2,27.2h6.8v-32.9h0c0,0,9.3-7.9,9.3-8.2v41.2h6.7l-0.2-43.6c-1-0.8-1.3-1.4-1.3-2.1
		c0-0.7-0.7-2-1.6-3.1c-0.8-1.1-2-2.8-2.6-4c-2-4-2.7-4.7-4.6-4.7c-1.1,0-2.1-0.3-2.4-0.7c-0.6-0.7-0.5-0.9,0.6-1.8
		c0.7-0.6,1.3-1.7,1.5-2.8c0.4-2.5,1.3-4,3-5.3c1.2-0.9,1.4-1.4,1.2-2.2c-0.1-0.6,0-1.8,0.4-2.8c0.8-2,0.9-3.2,0.2-5.5
		c-0.4-1.6-0.7-1.8-2.3-2.1c-1.6-0.3-2-0.6-2.8-2.1c-1.4-2.6-1.3-4.5,0.2-4.9c1.5-0.4,2.6-2.4,2.6-5c0-2.5,0.5-2.9,2.2-1.8
		c0.9,0.7,2.1,0.9,4.5,0.9l3.2,0l-0.2-2.2c0,0,0-0.1,0-0.1H202.2C202,160.4,201.8,160.8,201.6,161.1z M400.7,193.3
		c1.8,0.5,2.1,1.8,1.8,5.3c0,3.2-0.5,4-1.4,2.8c-1.2-2.1-1.8-4.6-1.8-7C399.5,193.3,399.9,192.9,400.7,193.3z M390.6,208.5
		c4,1.2,6.7,0.7,9.3-1.4l2.3-1.9l2.6,1.2c1.6,0.9,3.2,1.4,3.5,1.2c1.2-0.4,3.7-3.5,3.5-4.6c0-1.2,1.1-0.9,1.8,0.5
		c1.1,2.8-0.5,6.1-3.5,6.8c-1.2,0.4-2.5,0.2-4.6-0.5c-2.5-0.9-3-0.9-4.2,0c-3,2.3-7.1,2.5-10.3,0.7v0c-0.9-0.4-1.7-1-2.5-1.8
		C387.9,208,388.3,208,390.6,208.5z M213.1,286.3c-1.9,0-3.5-1.6-3.5-3.5s1.6-3.5,3.5-3.5s3.5,1.6,3.5,3.5S215,286.3,213.1,286.3z
		 M323.5,197.7c4.4,2.3,7.9,5.6,13.3,7c-0.7,2.1-2.6,3-3.2,5.3v47.3c6,1.2,7.2-2.1,10-4c0.9,7.5,5.6,15.1,5.4,21h-25.6V197.7z
		 M224.7,239.5v16.8l80.8-0.2c0-5.3,1.4-13.8-2.8-13.8c-3.9,0,0,10.9-3.2,10.9h-62.5v-10.5c2.6-2.8,2.3-2.6,20.3-20.7
		c1.7-1.7,14.4-13.2,25.4-23.8c0-0.1,0-0.1,0-0.2h0.2c-0.1,0.1-0.1,0.1-0.2,0.2c0,2.4,4.2,7.9,6.1,8.9c-1.4,0.5-3,0.4-4.2,0.9
		c-7,7-32.2,31.5-36.8,37.5c13.7,0.4,28.7-0.2,41.5-0.7c0-9.3,8.8-9.8,14.7-13.1c3,4.7,10.5,4.4,11.6,11.6V274H199.1
		c-1.7,9.2-10.6,15.3-19.8,13.6c-0.6-0.1-1.1-0.2-1.7-0.4c3.5-3.5,9.5-4.9,11.6-10c1.8-11.2-3.5-18-7-24.5c4.4-1.4,8.6-3.5,12.3-6.3
		c-4,12.3,10.9,11,21.7,10.7c0.4-4.2,0.2-9.1-3-9.8C217.1,245.7,217.8,245.1,224.7,239.5z"/>
	<path fill="#FFFFFF" d="M382.7,255.5c1.2,1.8,5.6,1.8,5.3-1.4C387.4,251.4,381.8,252.3,382.7,255.5z"/>
	<path fill="#FFFFFF" d="M456.3,255.3c-2-0.5-4.7-0.9-7.5-1.1v3C452.6,258,454.6,256.8,456.3,255.3z"/>
	<path fill="#CE1126" d="M448.5,88.6c-0.6,0-1.4,0.4-2,0.9c-1.3,1.2-4.1,0.8-4.7-0.6c-0.2-0.5-1-1.4-1.6-1.9c-1.1-0.8-1.3-0.8-3-0.1
		c-1,0.4-2.4,0.6-3.1,0.5c-0.9-0.2-1.3,0-1.5,0.5c-0.2,0.5-0.8,0.7-1.7,0.6c-0.7,0-1.7,0.2-2.1,0.5c-0.4,0.4-1.2,0.5-2.1,0.3
		c-0.8-0.1-1.5-0.1-1.7,0.2c-0.1,0.3-0.7,0.5-1.4,0.5c-0.7,0-1.3-0.6-2.1-2.1c-1.5-3-3.5-5.5-6.6-7.7l-2.6-1.9l-3.7,0.5
		c-3.4,0.5-6.3,0.4-6.3-0.2c0-0.1,0.4-1,0.9-2c1.2-2.2,1.2-2.7,0-4.2c-0.7-0.8-0.9-1.9-0.9-3.7c0-2.5-0.1-2.6-1.4-3.1
		c-1.3-0.5-1.4-0.7-0.9-1.6c0.4-0.7,0.4-1.4,0.1-2.7c-0.3-0.9-0.6-2.4-0.7-3.2c-0.4-2.1-1.8-3.9-2.7-3.3c-0.8,0.5-3.7,0.6-4.4,0
		c-0.7-0.4-4.9-6.6-4.9-7.1c0-0.2,0.6-1.3,1.4-2.4c1.7-2.5,1.7-3.6,0.2-6.5c-1.3-2.4-3.1-3.5-7.1-4.6c-1.6-0.5-2-0.7-2-1.7
		c0-0.6,0.5-1.7,1.2-2.5c1.8-2.1,2.1-3.5,1.3-4.8c-0.5-0.7-0.7-1.6-0.4-3.1c0.3-2.3-0.4-3.4-2.3-3.4c-0.6,0-1.4-0.7-2.2-2.2
		c-1.1-1.8-1.3-2.3-0.8-3.3c0.3-0.6,0.5-1.2,0.5-1.3c0-0.1-1.8-0.2-4-0.2c-3.5,0-4.3,0.2-6.7,1.4c-1.5,0.7-3.5,2.2-4.4,3.3
		c-1.5,1.7-2,1.9-3.8,1.9c-2.1,0-2.1,0-2.1,1.6c0,2.3-0.4,3.1-1.6,3.1c-1.4,0-2.3-0.8-4-3.9c-1.4-2.4-1.4-2.8-1-3.9
		c0.3-0.7,1.1-1.6,1.7-2.1c1.4-1.1,1.5-2.8,0.4-5.5c-0.6-1.5-1.3-2.1-3.1-3.1c-2-1-2.8-1.2-5.2-0.9c-2.8,0.2-3,0.3-5.1,2.6
		c-2.5,2.7-5,3.8-6.7,2.9c-0.5-0.3-2.7-0.5-4.8-0.5c-2.6,0-4.2-0.2-5.2-0.7c-0.8-0.5-2.1-0.7-3.1-0.5c-1.9,0.2-5.5-1.4-7.7-3.3
		c-1.1-1.1-1.4-1.2-2.7-0.7c-1.2,0.5-1.6,0.3-3.1-0.8c-2-1.4-6.8-2.7-7-1.9c-0.1,0.2-0.7,0.5-1.4,0.5c-0.7,0-2.2,0.4-3.4,0.8
		c-2.1,0.7-2.4,0.7-4.9,0c-1.4-0.5-2.6-1-2.6-1.3c0-0.6-2.3-0.5-3.6,0.1c-0.6,0.3-1.2,0.9-1.4,1.4c-0.1,0.5-0.8,1.6-1.5,2.4
		c-0.7,0.8-2.2,3-3.3,4.9c-1.8,3-2.3,3.5-3.7,3.7c-0.9,0.1-2.5,0.6-3.5,0.9c-1.1,0.4-2.5,0.7-3.2,0.7c-1.2,0-1.3,0.1-1.3,1.7
		c0,1.7-0.7,2.5-12.6,14.8l-12.6,13.1l-10.2,1.9l-10.1,1.9l-2.8,4.9l-2.7,4.9l-1,9.1l-1,9.1l2.6,4.9l2.6,4.9l0.3,6.9l0.3,6.9
		l-2.7,4.1c-2.6,3.9-2.7,4.2-2.8,7.6c-0.2,2.7-0.6,4.4-1.9,7.5l-1.7,4l0.5,12.7l0.6,12.8l-1.9,2.8c-0.9,1.4-3.1,5.4-5,9.2h220.2
		c-0.2-1.5-0.8-3.1-1.9-4.9l-1.6-2.7l0.9-1.8c0.5-0.9,0.9-2,0.9-2.3c0-0.3,0.8-1,1.9-1.4c1.8-0.7,1.9-0.8,1.9-2.9
		c0-1.2,0.1-2.1,0.2-2.1c0.1,0,1.1,0.3,2.2,0.7c2.7,1,2.8,0.7,3-4.4c0-1.9,0.3-3,1.2-4.3c0.7-0.9,1.4-1.7,1.5-1.8
		c0.2,0,1.2,0.5,2.1,1.2l1.7,1.2l1.2-1.2c0.7-0.7,1.7-1.2,2.4-1.2c2.6,0,3-0.4,2.8-2.6c-0.1-1.2,0.1-2.4,0.4-2.7
		c1.3-1.3-0.1-4.1-2-4.1c-0.7,0-0.8-0.2-0.6-1.1c0.1-0.6,0.4-1.9,0.6-3c0.3-1.8,0.2-2-0.9-2.6c-0.7-0.3-1.7-1.4-2.2-2.4
		c-0.5-1.1-1.5-2.8-2.2-3.8c-0.7-1.1-1.4-2.8-1.5-4.1c-0.2-2-0.1-2.2,0.7-2.3c0.8-0.1,1-0.4,0.8-2.2c0-1.2,0-2.6,0.1-3.2
		c0.2-1,0.4-1.1,2.6-0.8c2,0.3,2.3,0.2,2.8-0.7c0.4-0.8,0.9-1,3-1c2.7,0,3.3-0.4,4.7-3.1C449.9,90.3,449.8,88.6,448.5,88.6z"/>
	<path d="M189.7,327.8l23.7,17l15.9,7.6l15.9,7.7l14.6,13.7c12.2,11.5,18.4,16.9,39,33.7c19.2,15.6,74.1,60.1,76.9,62.2
		c0.7,0.6,20.2,2.6,55,5.8l28.9,2.6l1.9-0.9c1-0.6,3-1.5,4.4-2.1c3.2-1.4,8.7-7.3,11.4-12.2c1-1.8,2.4-3.8,3.2-4.5
		c0.7-0.7,2-3,2.9-5.3c0.9-2.2,2.5-5.5,3.7-7.3c1.2-2,2.1-4,2.1-4.7s0.4-1.9,0.9-2.6c0.5-0.7,1.6-3.2,2.4-5.6
		c1.5-4.3,5.2-11.6,6.2-12.2c0.3-0.2,1.5-0.6,2.8-0.9c1.3-0.3,2.9-1,3.5-1.7c1.2-1.1,1.2-1.1,10.5-1l9.3,0.1l6.4,2.5l6.4,2.5
		l1.5-1.3c1.4-1.1,1.8-1.3,4.4-1.1c2.1,0.1,3.5,0.6,5.6,1.8c5.1,3,12.3,4.4,15.9,3.3c1.6-0.5,1.7-0.6,1-1.4
		c-0.4-0.4-1.9-0.9-3.2-1.2l-2.4-0.5l-1.1-3.3c-0.7-1.8-1.2-4.3-1.2-5.6c0-2.2-0.2-2.5-3.3-5.9c-2.8-3.2-3.5-3.6-4.9-3.6
		c-2.5,0-3.3-0.7-3.6-3.1c-0.5-3.1-0.6-3.4-2.2-3.7c-0.8-0.2-2.4-0.7-3.5-1.3l-2-0.9v-6.4c0-3.5-0.1-10.3-0.3-15l-0.3-8.5l-8,0.2
		l-8,0.2l-0.3-2.8c-0.1-1.5-0.3-7-0.3-12.2v-9.4l3.5-10.4c1.4-4.2,2.6-8.1,3.1-10H178.9L189.7,327.8z"/>
	<path fill="#007A3D" d="M390.9,210.6L390.9,210.6c3.3,1.8,7.3,1.6,10.3-0.7c1.2-0.9,1.8-0.9,4.2,0c2.1,0.7,3.3,0.9,4.6,0.5
		c3-0.7,4.6-4,3.5-6.8c-0.7-1.4-1.8-1.8-1.8-0.5c0.2,1.1-2.3,4.2-3.5,4.6c-0.4,0.2-1.9-0.4-3.5-1.2l-2.6-1.2l-2.3,1.9
		c-2.6,2.1-5.3,2.6-9.3,1.4c-2.3-0.5-2.6-0.5-2.1,0.4C389.2,209.6,390,210.2,390.9,210.6z"/>
	<path fill="#007A3D" d="M464.1,274.2c0.3-5.1-3.1-11.1-4.6-17.3c-0.2-0.2-0.4-0.3-0.6-0.5c-0.5-0.4-1.5-0.8-2.7-1.1
		c-1.7,1.4-3.6,2.7-7.5,1.9v-3c-0.6,0-1.3-0.1-1.9-0.1c-4.9,0-5.5-0.7-3.9-3.5l1-1.9l-1.7-1.4c-0.9-0.7-1.9-1.4-2.1-1.4
		c-0.2,0-0.1-0.3,0.2-0.7s1-0.7,1.6-0.7c0.6,0,1.8-0.7,2.8-1.6c1.8-1.5,1.8-1.5,1-2.8c-0.4-0.7-0.8-1.8-0.8-2.4
		c0-0.7-0.4-1.4-0.9-1.6c-1.8-1-4.7-5.2-4.7-6.8c0-0.5-0.2-1.1-0.5-1.8v46.6H464.1z"/>
	<path fill="#007A3D" d="M282.7,198c0,0,0,0.1,0,0.2c0.1-0.1,0.1-0.1,0.2-0.2H282.7z"/>
	<path fill="#007A3D" d="M216.1,257c-10.9,0.4-25.8,1.6-21.7-10.7c-3.7,2.8-7.9,4.9-12.3,6.3c3.5,6.5,8.8,13.3,7,24.5
		c-2.1,5.1-8.1,6.5-11.6,10c0.6,0.2,1.1,0.3,1.7,0.4c9.2,1.7,18.1-4.3,19.8-13.6h116.5v-30.8c-1.1-7.2-8.6-6.8-11.6-11.6
		c-6,3.3-14.7,3.9-14.7,13.1c-12.8,0.5-27.9,1.1-41.5,0.7c4.6-6,29.8-30.5,36.8-37.5c1.2-0.5,2.8-0.4,4.2-0.9
		c-1.9-1-6.1-6.6-6.1-8.9c-11,10.6-23.7,22.1-25.4,23.8c-18,18-17.7,17.9-20.3,20.7v10.5h62.5c3.2,0-0.7-10.9,3.2-10.9
		c4.2,0,2.8,8.6,2.8,13.8l-80.8,0.2v-16.8c-6.8,5.6-7.5,6.1-11.6,7.7C216.3,247.9,216.4,252.8,216.1,257z"/>
	<path fill="#007A3D" d="M402.5,198.5c0.4-3.5,0-4.7-1.8-5.3c-0.9-0.4-1.2,0-1.4,1.1c0,2.4,0.6,4.9,1.8,7
		C402,202.6,402.5,201.7,402.5,198.5z"/>
	<path fill="#007A3D" d="M414,255.8v-41.2c0,0.4-9.3,8.2-9.3,8.2h0v32.9h-6.8l-0.2-27.2c-7.7,6.7-8.6,7.4-11.4,10.2
		c0.2,1.4,1.2,0.2,1.8,1.2v6.1c-17.9-3.3-17.7,12.4-16.8,27.7h58.5v-57.4c-1.5-0.2-2.2-0.1-3.3,0.7c-1.4,1-2,0.7-2.3-1.1
		c-0.1-0.7-1-1.8-2.6-3c-0.5-0.3-0.8-0.6-1.2-0.9l0.2,43.6H414z M382.7,255.5c-0.9-3.2,4.7-4,5.3-1.4
		C388.3,257.2,383.9,257.2,382.7,255.5z"/>
	<circle fill="#007A3D" cx="213.1" cy="282.8" r="3.5"/>
	<path fill="#007A3D" d="M343.6,253.2c-2.8,1.9-4,5.3-10,4v-47.3c0.5-2.3,2.5-3.2,3.2-5.3c-5.4-1.4-8.9-4.7-13.3-7v76.6H349
		C349.2,268.3,344.5,260.7,343.6,253.2z"/>
</g>
</svg>
