<?xml version="1.0" encoding="utf-8"?>
<!-- Generator: Adobe Illustrator 17.1.0, SVG Export Plug-In . SVG Version: 6.00 Build 0)  -->
<!DOCTYPE svg PUBLIC "-//W3C//DTD SVG 1.1//EN" "http://www.w3.org/Graphics/SVG/1.1/DTD/svg11.dtd">
<svg version="1.1" id="flag-icon-css-ir" xmlns="http://www.w3.org/2000/svg" xmlns:xlink="http://www.w3.org/1999/xlink" x="0px"
	 y="0px" viewBox="0 0 640 480" enable-background="new 0 0 640 480" xml:space="preserve">
<g>
	<path fill="none" d="M532.1,480c0.5,0.1,0.9,0.3,1.3,0.4c2,0.6,4.1,1.1,4.6,1c0.5-0.1,3.3-0.5,6.1-0.8c1.9-0.2,4-0.4,5.4-0.6H532.1
		z"/>
	<path fill="#FFFFFF" d="M171.6,322.3h31.9v-4h5.6v4h32.7v-4h5.6v4h31.9v-4h5.6v4h32.3v-4h5.6v4h32.3v-4h5.6v4h33l0-4h5.7v4h31.1v-4
		h5.6v4h32.6v-4h5.6v4h33.1v-4h5.6v4h4.3c3.8-9.4,5.3-12.5,7-14.4c5.5-6.1,7-8.5,8.1-13.8c1.7-7.6,1.9-11.4,1.2-15.2
		c-1-5.1-3-8.3-6.5-10.4c-2.9-1.8-3-1.8-6.6-1.2c-3.2,0.5-3.8,0.5-6.6-0.6c-4.2-1.7-9.1-5.4-10-7.6c-0.8-1.8-0.8-3-0.5-12.8
		c0.1-5,0-5.7-1.5-9.2c-3.8-8.8-6.1-15-6.1-17c0-2.5,1.1-8.2,2.7-13.2c1.2-4,1.1-8.3-0.3-9.7c-0.4-0.4-2-0.9-3.6-1
		c-1.6-0.2-3-0.5-3.2-0.8c-0.2-0.3-0.5-3.6-0.8-7.5l-0.3-7l4.9-2.6l4.9-2.6v-4.4c0-4.2,0.2-4.8,2.8-10.9l1.2-2.6h-29.7v4.6h-5.6
		v-4.6h-32.6v4.6h-5.6v-4.6h-31.1v4.6h-5.6l0-4.6h-33v4.6h-5.6v-4.6h-32.3v4.6h-5.6v-4.6h-32.3v4.6h-5.6v-4.6h-31.9v4.6h-5.6v-4.6
		h-32.7v4.6h-5.6v-4.6h-31.9v4.6H166v-4.6h-32.3v4.6h-5.6v-4.6H95.4v4.6h-5.6v-4.6h-2.1c-3.8,3.9-7.9,10.1-8.8,13.6
		c-0.9,3.1-1.1,3.4-2.9,3.8c-1.1,0.3-2.3,0.9-2.6,1.2c-0.7,0.9-1.7,7.1-1.7,10.3c0,2.1-0.3,3-1.6,4.6c-2.9,3.6-3.5,7.2-1.8,11.2
		c0.6,1.7,1.2,2.2,2.9,2.8c1.2,0.3,2.5,0.5,2.9,0.3c0.6-0.2,1.3,0.5,2.4,2.9c0.9,1.7,2.6,4.8,3.8,6.9c1.9,3.2,2.2,4.2,2.2,6.8
		c0,2.7,0.2,3.2,1.7,4.7c1,0.9,3.6,2.8,5.7,4.1c2.2,1.4,4.6,3.3,5.5,4.4s3.5,3.4,5.7,5c3.4,2.5,5,3.2,9.2,4.4
		c4.8,1.3,5.2,1.5,6.6,3.6c0.9,1.2,2.3,3.9,3.1,6c0.9,2.1,2.2,4.6,3,5.7c2.6,3.5,4.6,7.3,5.6,10.4c0.8,3,0.8,3.5-0.2,8.6
		c-0.5,3-1.2,8.6-1.4,12.5l-0.3,7l3.4,1.7l3.4,1.7l0.8,4.8c0.9,5.2,2.6,8.7,6.4,12.9c0.5,0.6,1.5,1.5,2.7,2.5h17.4
		c0.4-2,0.4-3.2,0-4.2c-1.2-3,2.8-3.4,6.3-0.4c0.3,0.2,0.5,0.4,0.7,0.6h3.8V322.3z M361.7,288c3.1-3.4,5.9-7,8.3-10.9
		c19.7-32.4,9.4-74.7-23-94.4C419.8,207,387.2,282.4,361.7,288z M301.7,169.1c2.8,7.5,10.2,8.6,18.1,4.2c5.8,3.4,14.7,3.7,17.8-3.8
		c2.3,18.6-17.2,14.1-17.8,10.5C312.5,187,299,183,301.7,169.1z M312.4,283.8c0.1,0.1,0.2,0.2,0.4,0.3l-1.5-94.6l8.7-7.3l8.7,7.7
		l-0.9,93.7c46.7-35.3,22.3-88.7,14.5-98.4c12,8.3,24.2,28.5,24.4,51.4c0.2,19.7-8.2,41.3-32.9,58.9c10.4,2.9,21.8,3.8,31.4,3.7
		c-8.7,4.8-25.2,3.5-37.5,2.3l0,0.9l-7.3,8.4h0l-7.3-8l0-1.4c-12.2,1.2-28.4,2.3-36.9-2.4c9.4,0.1,20.3-0.8,30.5-3.4
		c-25-17.7-33.5-39.4-33.3-59.2c0.2-22.9,12.4-43.1,24.4-51.4C289.8,194.9,265.3,248.5,312.4,283.8z M293,182.6
		c-32.4,19.8-42.6,62-22.9,94.4c2.4,3.9,5.2,7.6,8.3,10.9C252.8,282.4,220.3,207,293,182.6z"/>
	<path fill="#DA0000" d="M551.1,479.7l1.9-0.3l0.1-5.7c0.2-6.5,1.4-15.8,2.6-19.8c0.5-1.5,2.1-5.2,3.6-8.4
		c3.4-6.9,8.3-12.7,11.6-13.2c2.1-0.4,5.8-2.3,10.4-5.4c1.8-1.2,3.6-1.9,5.7-2.2c2.8-0.4,3.2-0.6,6-3.7c4.4-4.8,4.9-6.8,3.1-11.9
		c-1.3-3.6-3.1-4.6-7.7-4.6c-5.9,0-5.8,0.1-6.2-5.3c-0.5-7.2-4.8-22.9-6.6-24.5c-2.1-1.8-5.6-3.1-11.2-4.1c-5-0.9-7-1.7-12.4-4.4
		c-8.6-4.3-12.2-7.5-16.1-14.5c-0.7-1.2-1.3-2.5-2-3.7h-5.5v-0.1H527v-8.1h-10.5v8.1h-3.2v-8.1v-2.3v-0.8h11.9c-0.9-0.6-1.9-1.3-3-2
		c-1.1-0.7-2.2-1.5-3.2-2.4h-5.7v-3.1h2.9l-0.9-1.3l1-2.6c0.4-1,0.8-1.9,1.1-2.8h-4.3v5.8h-5.6v-5.8h-33.1v5.8h-5.6v-5.8h-32.6v5.8
		h-5.6v-5.8h-31.1v5.8h-5.6l-0.1-5.8h-33v5.8h-5.6v-5.8h-32.3v5.8h-5.6v-5.8h-32.3v5.8h-5.6v-5.8h-31.9v5.8h-5.6v-5.8h-32.7v5.8
		h-5.6v-5.8h-31.9v4.2c0.5,1.1,1,1.6,1.6,1.9c0.3,0.1,0.6,0.4,1,0.6h6.4v3.1h-2.3c0.5,0.3,1.4,0.8,2.1,1.4l2.2,1.6l1.6-1.6
		c0.5-0.5,1-0.9,1.5-1.3v-3.3h3.2v1.1c1.1-0.6,2.2-1,3-1c0.5,0,1.1,0.2,1.6,0.5l0-0.7h3.2v4.5c0.4,0.8,0.8,1.7,1,2.6
		c0.4,1.4,1.9,4.1,3.7,6.6v-13.7h3.2v17.9c0.8,0.9,1.5,1.6,2,2c2.2,1.5,3.6,3.9,5.2,9l1.4,4.5l5.3,4.6c5.2,4.5,5.3,4.6,5.9,7.8
		c0.4,1.8,2,6.5,3.7,10.5c1.7,4,3.7,9.1,4.6,11.2c1.5,3.5,2.1,4.3,6.5,8.2l5,4.3h5c5,0,5.1,0,10.9,2.9c3.2,1.6,7.4,4.1,9.4,5.6
		c3.1,2.3,3.9,3.2,5.8,7l2.3,4.4l3.3,0.9c9.5,2.5,15.7,4.9,17.6,6.6c1.2,1.1,1.7,1.9,1.3,2.1c-0.4,0.2,0.3,1.4,2.1,3.4l2.7,3.1
		l5-0.8c6.8-1,12.9-0.5,15.5,1.2c3,2,9.5,3.7,12.4,3.4c3.8-0.4,8.6-2.8,10.7-5.2c1.7-2,2-2.2,4.6-2.2c5.2,0,8.9-1.9,10.8-5.7
		c0.8-1.5,1.7-1.9,8.9-4.5c4.4-1.6,9.3-3.5,10.9-4.2c4.7-2.1,7-1.7,13.6,1.7l5.7,2.9l3.3,5.6c2.3,3.9,3.4,6.4,3.7,8.3
		c0.6,4.4,3.2,10.3,8,18.1l4.5,7.3l7.2,0.3c4.7,0.2,7.9,0.6,8.9,1.1c1.2,0.6,4.3,0.8,12.7,0.9c12.9,0.1,17.1,0.8,21,3.5
		c2.2,1.6,2.5,1.6,3,0.8c1.6-2.9,3.9-3.7,6.8-2.2c3.2,1.6,12.7,2.6,22.5,2.4c9.2-0.3,9.4-0.3,11.1-1.7c0.9-0.8,1.9-1.5,2.2-1.5
		c0.3,0,1.4,0.9,2.5,1.9c1.8,1.6,2.6,1.9,5.8,2.2c1.7,0.2,4.1,0.7,6.1,1.2h17.4C550.2,479.9,550.8,479.8,551.1,479.7z M220.1,347.9
		H217v-3.1h3.1V347.9z M240.3,337.4v2.3v8.1h-0.9v0.1h-14.2v-0.1h-1.4v-8.1h-10.5v8.1h-3.2v-8.1v-2.3v-0.8h16.8v0.8v2.3v5h10.2v-5
		h-5.8v-3.2h9V337.4z M210.1,332.2l-0.1-3.1h46v3.1H210.1z M280.1,347.8h-0.6v0.1h-17.4v-0.1h-0.9v-8.1h-11v5l6,0.1v3.1h-6v0H247v0
		v-0.1v-3.1v-5v-2.3v-0.1v-0.8h14.2v-7.5h3.2v15.7h4.6v-15.7h3.2v15.7h4.8v-15.7h3.2V347.8z M295.8,347.9h-3.2v-3.1h3.2V347.9z
		 M316.1,337.4v2.3v8.1h-0.9v0.1h-14.3v-0.1h-1.5l0.1-8.1H289v8.1h-3.1v-8.1h-0.1v-3.2h16.9v0.8v2.3v5h10.2v-5h-6v-3.2h9.2V337.4z
		 M285.8,332.2v-3.1h45.9v3.1H285.8z M355.7,347.8h-0.6v0.1h-17.4v-0.1h-0.8v-8.1h-11v5l6,0.1v3.1h-6v0h-3.2v0v-0.1v-3.1v-5h-0.1
		v-3.2h14.3v-7.5h3.1v15.7h4.7v-15.7h3.2v15.7h4.7v-15.7h3.2V347.8z M371.9,347.9h-3.2v-3.1h3.2V347.9z M392.2,337.4v2.3v8.1h-0.9
		v0.1H377v-0.1h-1.4v-8.1h-10.4v8.1H362v-8.1h-0.1v-3.2h16.9v0.8v2.3v5H389v-5h-5.8v-3.2h9V337.4z M361.9,332.2v-3.1h45.9v3.1H361.9
		z M431.8,347.8h-0.6v0.1h-17.4v-0.1H413v-8.1h-11v5l6,0.1v3.1h-6v0h-3.3v0l0,0v-0.1v-3.1v-5v-2.3v-0.8H413v-7.5h3.1v15.7h4.7v-15.7
		h3.2v15.7h4.8v-15.7h3.1V347.8z M447.6,347.9h-3.2v-3.1h3.2V347.9z M467.8,337.4v2.3v8.1h-0.9v0.1h-14.2v-0.1h-1.4l-0.1-8.1h-10.4
		v8.1h-3.2v-8.1v-2.3v-0.8h16.8v0.8v2.3v5h10.2v-5h-5.9v-3.2h9.1V337.4z M437.6,332.2v-3.1h45.9v3.1H437.6z M507.5,347.8h-0.6v0.1
		h-17.4v-0.1h-0.8v-8.1h-11v5l6.1,0.1v3.1h-6.1v0h-3.2v0v-0.1v-3.1v-5v-2.3v-0.1v-0.8h14.2v-7.5h3.2v15.7h4.6v-15.7h3.2v15.7h4.8
		v-15.7h3.1V347.8z M523.3,347.9h-3.2v-3.1h3.2V347.9z"/>
	<path fill="#DA0000" d="M151.7,329.1h4.2c0.1-0.1,0.1-0.2,0.2-0.4c0.6-1.7,1.2-2.3,2.4-2.5c1.4-0.3,1.6-0.6,2.2-3.5
		c0-0.2,0.1-0.3,0.1-0.4h-17.4C145.8,324.5,149.3,327.3,151.7,329.1z"/>
	<path fill="#DA0000" d="M532.3,344.7c-0.2-0.4-0.4-0.8-0.5-1c-0.4-1-0.9-1.9-1.7-2.8v3.8H532.3z"/>
	<path fill="#FFFFFF" d="M154.5,330.9c0.3,0,0.9-0.8,1.4-1.8h-4.2C153.2,330.1,154.3,330.9,154.5,330.9z"/>
	<path fill="#FFFFFF" d="M180.6,329.1h-6.4c0.6,0.4,1.2,1,1.7,1.5c0.8,0.8,1.6,1.4,1.9,1.4c0.1,0,0.3,0.1,0.6,0.2h2.3V329.1z"/>
	<path fill="#FFFFFF" d="M185.8,329.1v3.3c1.1-0.9,2.2-1.6,3.2-2.1v-1.1H185.8z"/>
	<path fill="#FFFFFF" d="M193.5,329.1l0,0.7c1.2,0.7,2.3,2.1,3.2,3.8v-4.5H193.5z"/>
	<path fill="#FFFFFF" d="M201.4,329.1v13.7c1.1,1.5,2.2,3,3.2,4.2v-17.9H201.4z"/>
	<polygon fill="#FFFFFF" points="256.1,329.1 210,329.1 210.1,332.2 256.1,332.2 	"/>
	<rect x="217" y="344.8" fill="#FFFFFF" width="3.1" height="3.1"/>
	<polygon fill="#FFFFFF" points="250.2,347.9 256.2,347.9 256.2,344.8 250.2,344.8 250.2,347.8 	"/>
	<polygon fill="#FFFFFF" points="264.3,344.7 264.3,329.1 261.1,329.1 261.1,336.6 263.8,336.6 263.8,339.8 261.1,339.8 
		261.1,347.8 262.1,347.8 262.1,344.7 	"/>
	<polygon fill="#FFFFFF" points="276.9,344.7 272.1,344.7 272.1,347.8 268.9,347.8 268.9,344.7 264.3,344.7 262.1,344.7 
		262.1,347.8 262.1,347.9 279.5,347.9 279.5,347.8 276.9,347.8 	"/>
	<polygon fill="#FFFFFF" points="247,347.8 247,347.9 247,347.9 250.2,347.9 250.2,347.9 250.2,347.8 	"/>
	<polygon fill="#FFFFFF" points="226.9,337.4 226.9,336.6 210.1,336.6 210.1,337.4 213.3,337.4 213.3,339.8 223.8,339.8 
		223.8,337.4 	"/>
	<polygon fill="#FFFFFF" points="276.9,344.7 276.9,347.8 279.5,347.8 280.1,347.8 280.1,329.1 276.9,329.1 	"/>
	<polygon fill="#FFFFFF" points="263.8,336.6 261.1,336.6 247,336.6 247,337.3 247,337.4 250.2,337.4 250.2,339.8 261.1,339.8 
		263.8,339.8 	"/>
	<polygon fill="#FFFFFF" points="272.1,347.8 272.1,344.7 272.1,329.1 268.9,329.1 268.9,344.7 268.9,347.8 	"/>
	<polygon fill="#FFFFFF" points="237.1,344.7 239.4,344.7 239.4,347.8 240.3,347.8 240.3,339.8 237.1,339.8 	"/>
	<polygon fill="#FFFFFF" points="226.9,344.7 226.9,339.8 226.9,337.4 223.8,337.4 223.8,339.8 223.8,347.8 225.2,347.8 
		225.2,344.7 	"/>
	<polygon fill="#FFFFFF" points="210.1,337.4 210.1,339.8 210.1,347.8 213.3,347.8 213.3,339.8 213.3,337.4 	"/>
	<polygon fill="#FFFFFF" points="247,337.4 247,339.8 247,344.7 247,347.8 250.2,347.8 250.2,344.8 250.2,339.8 250.2,337.4 	"/>
	<polygon fill="#FFFFFF" points="231.3,339.8 237.1,339.8 240.3,339.8 240.3,337.4 240.3,336.6 231.3,336.6 	"/>
	<polygon fill="#FFFFFF" points="237.1,344.7 226.9,344.7 225.2,344.7 225.2,347.8 225.2,347.9 239.4,347.9 239.4,347.8 
		239.4,344.7 	"/>
	<rect x="292.6" y="344.8" fill="#FFFFFF" width="3.2" height="3.1"/>
	<rect x="285.8" y="329.1" fill="#FFFFFF" width="45.9" height="3.1"/>
	<polygon fill="#FFFFFF" points="325.9,347.9 331.9,347.9 331.9,344.8 325.9,344.8 325.9,347.8 	"/>
	<polygon fill="#FFFFFF" points="340,344.7 340,329.1 336.9,329.1 336.9,336.6 339.5,336.6 339.5,339.8 336.9,339.8 336.9,347.8 
		337.7,347.8 337.7,344.7 	"/>
	<polygon fill="#FFFFFF" points="352.5,344.7 347.8,344.7 347.8,347.8 344.7,347.8 344.7,344.7 340,344.7 337.7,344.7 337.7,347.8 
		337.7,347.9 355.2,347.9 355.2,347.8 352.5,347.8 	"/>
	<polygon fill="#FFFFFF" points="322.7,347.8 322.7,347.9 322.7,347.9 325.9,347.9 325.9,347.9 325.9,347.8 	"/>
	<polygon fill="#FFFFFF" points="302.7,337.4 302.7,336.6 285.8,336.6 285.8,339.8 285.9,339.8 285.9,337.4 289,337.4 289,339.8 
		299.4,339.8 299.5,337.4 	"/>
	<polygon fill="#FFFFFF" points="352.5,344.7 352.5,347.8 355.2,347.8 355.7,347.8 355.7,329.1 352.5,329.1 	"/>
	<polygon fill="#FFFFFF" points="339.5,336.6 336.9,336.6 322.6,336.6 322.6,339.8 322.7,339.8 322.7,337.4 325.9,337.4 
		325.9,339.8 336.9,339.8 339.5,339.8 	"/>
	<polygon fill="#FFFFFF" points="347.8,347.8 347.8,344.7 347.8,329.1 344.7,329.1 344.7,344.7 344.7,347.8 	"/>
	<polygon fill="#FFFFFF" points="302.7,344.7 302.7,339.8 302.7,337.4 299.5,337.4 299.4,339.8 299.4,347.8 300.9,347.8 
		300.9,344.7 	"/>
	<polygon fill="#FFFFFF" points="312.9,344.7 315.1,344.7 315.1,347.8 316.1,347.8 316.1,339.8 312.9,339.8 	"/>
	<polygon fill="#FFFFFF" points="285.9,337.4 285.9,339.8 285.9,347.8 289,347.8 289,339.8 289,337.4 	"/>
	<polygon fill="#FFFFFF" points="322.7,337.4 322.7,339.8 322.7,344.7 322.7,347.8 325.9,347.8 325.9,344.8 325.9,339.8 
		325.9,337.4 	"/>
	<polygon fill="#FFFFFF" points="306.9,339.8 312.9,339.8 316.1,339.8 316.1,337.4 316.1,336.6 306.9,336.6 	"/>
	<polygon fill="#FFFFFF" points="312.9,344.7 302.7,344.7 300.9,344.7 300.9,347.8 300.9,347.9 315.1,347.9 315.1,347.8 
		315.1,344.7 	"/>
	<polygon fill="#239F40" points="201.4,153.4 196.7,153.4 193.4,153.4 188.9,153.4 186.6,153.4 185.8,153.4 185.8,145.1 
		174.8,145.1 174.8,150.2 180.8,150.2 180.8,153.4 174.8,153.4 171.6,153.4 171.6,157.7 203.5,157.7 203.5,153.4 	"/>
	<polygon fill="#239F40" points="428.8,153.4 424,153.4 420.8,153.4 416.1,153.4 413.8,153.4 413,153.4 413,145.1 402,145.1 
		402,150.2 408,150.2 408,153.4 402,153.4 399.5,153.4 399.5,157.7 430.6,157.7 430.6,153.4 	"/>
	<polygon fill="#239F40" points="276.9,153.4 272.1,153.4 268.9,153.4 264.3,153.4 262.1,153.4 261.1,153.4 261.1,145.1 
		250.2,145.1 250.2,150.2 256.2,150.2 256.2,153.4 250.2,153.4 247.4,153.4 247.4,157.7 279.3,157.7 279.3,153.4 	"/>
	<path fill="#239F40" d="M95.4,157.7h32.7v-4.3h-1.6h-4.8h-3.1h-4.7h-2.3h-0.9v-8.3H99.7v5.1h6.2v3.2h-6.2h-3h-0.1l0.1-8.3h-0.1V142
		l14.2-0.1v-7.5h3.2v15.8h4.7v-15.8h3.1v15.8h4.8v-15.8h3.2v18h4v5.3H166v-5.3h5.6v-2.3v-5.1h-0.1V142l14.3-0.1v-7.5h3.2v15.8h4.5
		l0.1-15.8h3.2v15.8h4.7v-15.8h3.2v18h4.5v5.3h32.7v-5.3h5.2v-2.3v-5.1v-2.3V142l14.2-0.1v-7.5h3.2v15.8h4.6v-15.8h3.2v15.8h4.8
		v-15.8h3.2v18h4.9v5.3h32.3v-5.3h5.4v-2.3v-5.1h-0.1V142l14.3-0.1v-7.5h3.1v15.8h4.7v-15.8h3.2v15.8h4.7v-15.8h3.2v18h5.1v5.3h33
		l0-5.3h5v-2.3v-5.1v-2.3V142L413,142v-7.5h3.1v15.8h4.7v-15.8h3.2v15.8h4.8v-15.8h3.1v18h4.4v5.3h32.6v-5.3h5.6v5.3h29.7l1.7-3.9
		l0-0.4h-1.5h-4.8h-3.2h-4.6h-2.3h-0.8v-8.3h-11v5.1h6.1v3.2h-6.1h-3.2v-3.2v-5.1v-2.3V142l14.2-0.1v-7.5h3.2v15.8h4.6v-15.8h3.2
		v15.8h4.8v-15.8h1.5c0.1-2.1,0.2-4.1,0.3-5.5c0.5-6,0.5-6.6-0.5-8.9c-1.2-2.8-1.9-6.5-2.9-14.9l-0.7-5.9l-2.4-0.6
		c-1.4-0.3-4.9-0.6-7.9-0.6l-5.6-0.1L481,95c-2.9-1.5-6.5-3.7-8-4.8c-3.7-2.8-6.6-4.3-13.2-7c-3.1-1.3-5.6-2.6-5.7-3
		c-1-3.7-2.5-6.4-5-9c-2.9-3-2.9-3-7.4-3.7c-5.5-0.8-8.4-0.8-11.4,0c-2.1,0.5-2.9,0.4-7.9-1.4c-3.1-1-10-3.1-15.3-4.6l-9.7-2.8
		l-5.4-5.1l-5.5-5.1l-7.3,0.3c-9.6,0.4-10.1,0.5-10.8,2.9c-0.3,1-1.2,2.6-2,3.5c-1.4,1.4-1.8,1.5-5,1.5c-1.9,0-4.4-0.3-5.5-0.7
		c-1.5-0.5-2.6-0.5-5.9,0c-7.2,1.2-7.7,1.5-12,6.2c-5,5.5-15.8,14.2-19.8,16c-1.7,0.8-5.4,1.9-8.2,2.6c-2.8,0.6-5.4,1.5-5.7,1.8
		c-0.9,0.9-0.4,4.2,1,7c0.8,1.5,1.6,4.4,1.9,6.5c0.7,4.3,0.5,4.9-2.3,4.9c-0.8,0-2.7,0.4-4.3,0.9c-2.2,0.6-4,0.8-7.4,0.5
		c-2.5-0.2-4.5-0.5-4.5-0.8s1.7-0.7,3.8-1.1c3.8-0.7,4.4-1.1,3-2.2c-0.5-0.5-1.6-0.3-4.4,0.7c-8.3,2.9-16.4,5.1-19.9,5.5
		c-2.9,0.3-5.4,1.1-10.9,3.5c-6.9,3.1-7.2,3.2-11.9,3.2c-8.2,0-13.8-1.3-19.7-4.4c-5.9-3.2-15.7-9.1-18.3-11
		c-1.1-0.9-2.4-2.9-3.7-5.6c-1.8-3.9-2.1-4.3-4.1-4.9c-1.4-0.4-3.7-0.5-6.9-0.3c-4.5,0.4-4.9,0.3-7.9-1.2c-1.7-0.9-4.4-1.8-5.9-2
		c-2.4-0.3-3.1-0.7-5.5-3.1c-2.5-2.5-3-3.4-5-9.6c-1.9-5.8-2.3-7.7-2.6-13.5c-0.2-3.7-0.6-7.1-0.8-7.6c-0.3-0.6-1.2-0.8-4.1-0.8
		c-3.4,0-3.8-0.2-4.8-1.4c-0.6-0.8-2.5-2.1-4.3-2.9c-1.8-0.9-3.5-2.1-3.9-2.8c-0.4-0.6-1.8-1.8-3.3-2.4c-1.5-0.7-2.6-1.6-2.6-1.9
		c0-0.9,1.9-2.5,5.5-4.8l3.1-1.9l-1.7-4.5c-1.4-3.7-1.6-4.9-1.3-7.5l0.3-3l-3.8-2.5c-3.4-2.3-4.1-2.5-6.9-2.5
		c-4.8,0-11,2.3-15.8,5.8c-3.4,2.4-4.8,3.9-7.8,8.6c-5.9,8.8-5.4,8.3-10.4,9.1c-6.7,1-16.2,0.2-23.4-1.9l-5.7-1.7L72.9,22
		C68.2,14.3,58.3,0,57.6,0c-0.2,0.1-1.4,1.7-2.6,3.7c-1.2,2-2.4,4.1-2.6,4.8c-0.2,0.7-2,2-4.6,3.5c-3.2,1.7-4.3,2.6-4.3,3.4
		c0,0.6,0.7,3.4,1.6,6.3l1.6,5.2l0.1,15.9c0.1,15,0.1,16.1-1,18.8l-1.1,2.8l3,2.3c3.2,2.5,8.5,8.7,9.4,11.1
		c0.3,0.8,0.7,6.3,0.9,12.3l0.3,10.9l2.2,3.9c1.6,3,3,4.7,5.5,6.8l3.4,2.8l0.6,4.1c0.4,2.2,1.3,5.6,2,7.4c1.1,2.8,1.7,3.6,3.6,4.6
		c3.9,2.3,8.1,3.5,13.6,4h16.5v3.2H93.4l-0.8,1l-2.7,3.5v0.6H90v4.5l0.1,1.4l0.2,3.8h5.1V157.7z M447.6,153.4h-3.2v-3h3.2V153.4z
		 M467.8,142.8v2.3v8.3h-0.9h-2.3h-10.2h-1.7h-1.4l-0.1-8.3h-10.4v8.3h-3.2v-8.3v-2.3V142l16.8-0.1v0.8v2.3v5.1h10.2v-5.1h-5.9V142
		h9.1V142.8z M437.6,134.4h45.9v3.2h-45.9V134.4z M371.9,153.4h-3.2v-3h3.2V153.4z M361.9,134.4h45.9v3.2h-45.9V134.4z M361.9,142
		l16.9-0.1v0.8v2.3v5.1H389v-5.1h-5.8V142h9v0.8v2.3v8.3h-0.9H389h-10.2H377h-1.4v-8.3h-10.4v8.3H362v-8.3h-0.1V142z M295.8,153.4
		h-3.2v-3h3.2V153.4z M285.8,134.4h45.9v3.2h-45.9V134.4z M285.8,142l16.9-0.1v0.8v2.3v5.1h10.2v-5.1h-6V142h9.2v0.8v2.3v8.3h-0.9
		h-2.3h-10.2h-1.8h-1.5l0.1-8.3H289v8.3h-3.1v-8.3h-0.1V142z M220.1,153.4H217v-3h3.1V153.4z M240.3,142.8v2.3v8.3h-0.9h-2.3h-10.2
		h-1.7h-1.4v-8.3h-10.5v8.3h-3.2v-8.3v-2.3V142l16.8-0.1v0.8v2.3v5.1h10.2v-5.1h-5.8V142h9V142.8z M256.1,134.4v3.2h-45.9l-0.1-3.2
		H256.1z M144.7,153.4h-3.2v-3h3.2V153.4z M134.7,134.4h45.9v3.2h-45.9V134.4z M134.7,142l16.9-0.1v0.8v2.3v5.1h10.2v-5.1h-5.8V142
		h9v0.8v2.3v8.3H164h-2.3h-10.2h-1.8h-1.4v-8.3h-10.4v8.3h-3.2v-8.3h-0.1V142z"/>
	<path fill="#239F40" d="M89.8,155.6l-1.8,1.7c-0.1,0.1-0.2,0.2-0.3,0.3h2.1V155.6z"/>
	<polygon fill="#239F40" points="352.5,153.4 347.8,153.4 344.7,153.4 340,153.4 337.7,153.4 336.9,153.4 336.9,145.1 325.9,145.1 
		325.9,150.2 331.9,150.2 331.9,153.4 325.9,153.4 322.9,153.4 322.9,157.7 355.2,157.7 355.2,153.4 	"/>
	<rect x="361.9" y="329.1" fill="#FFFFFF" width="45.9" height="3.1"/>
	<polygon fill="#FFFFFF" points="402,347.9 408,347.9 408,344.8 402,344.8 402,347.8 	"/>
	<rect x="368.8" y="344.8" fill="#FFFFFF" width="3.2" height="3.1"/>
	<rect x="398.8" y="347.8" fill="#FFFFFF" width="0" height="0.1"/>
	<polygon fill="#FFFFFF" points="416.1,344.7 416.1,329.1 413,329.1 413,336.6 415.6,336.6 415.6,339.8 413,339.8 413,347.8 
		413.8,347.8 413.8,344.7 	"/>
	<polygon fill="#FFFFFF" points="428.8,344.7 424,344.7 424,347.8 420.8,347.8 420.8,344.7 416.1,344.7 413.8,344.7 413.8,347.8 
		413.8,347.9 431.3,347.9 431.3,347.8 428.8,347.8 	"/>
	<polygon fill="#FFFFFF" points="398.8,347.8 398.8,347.9 398.8,347.9 402,347.9 402,347.9 402,347.8 	"/>
	<polygon fill="#FFFFFF" points="428.8,344.7 428.8,347.8 431.3,347.8 431.8,347.8 431.8,329.1 428.8,329.1 	"/>
	<polygon fill="#FFFFFF" points="378.8,337.4 378.8,336.6 361.9,336.6 361.9,339.8 362,339.8 362,337.4 365.2,337.4 365.2,339.8 
		375.6,339.8 375.6,337.4 	"/>
	<polygon fill="#FFFFFF" points="415.6,336.6 413,336.6 398.8,336.6 398.8,337.4 402,337.4 402,339.8 413,339.8 415.6,339.8 	"/>
	<polygon fill="#FFFFFF" points="424,347.8 424,344.7 424,329.1 420.8,329.1 420.8,344.7 420.8,347.8 	"/>
	<polygon fill="#FFFFFF" points="389,344.7 391.3,344.7 391.3,347.8 392.2,347.8 392.2,339.8 389,339.8 	"/>
	<polygon fill="#FFFFFF" points="378.8,344.7 378.8,339.8 378.8,337.4 375.6,337.4 375.6,339.8 375.6,347.8 377,347.8 377,344.7 	
		"/>
	<polygon fill="#FFFFFF" points="362,337.4 362,339.8 362,347.8 365.2,347.8 365.2,339.8 365.2,337.4 	"/>
	<polygon fill="#FFFFFF" points="398.8,337.4 398.8,339.8 398.8,344.7 398.8,347.8 398.8,347.8 402,347.8 402,344.8 402,339.8 
		402,337.4 	"/>
	<polygon fill="#FFFFFF" points="383.2,339.8 389,339.8 392.2,339.8 392.2,337.4 392.2,336.6 383.2,336.6 	"/>
	<polygon fill="#FFFFFF" points="389,344.7 378.8,344.7 377,344.7 377,347.8 377,347.9 391.3,347.9 391.3,347.8 391.3,344.7 	"/>
	<polygon fill="#FFFFFF" points="491.8,344.7 491.8,329.1 488.7,329.1 488.7,336.6 491.3,336.6 491.3,339.8 488.7,339.8 
		488.7,347.8 489.5,347.8 489.5,344.7 	"/>
	<rect x="444.4" y="344.8" fill="#FFFFFF" width="3.2" height="3.1"/>
	<polygon fill="#FFFFFF" points="477.7,347.9 483.8,347.9 483.8,344.8 477.7,344.8 477.7,347.8 	"/>
	<rect x="437.6" y="329.1" fill="#FFFFFF" width="45.9" height="3.1"/>
	<polygon fill="#FFFFFF" points="504.4,344.7 499.6,344.7 499.6,347.8 496.4,347.8 496.4,344.7 491.8,344.7 489.5,344.7 
		489.5,347.8 489.5,347.9 506.9,347.9 506.9,347.8 504.4,347.8 	"/>
	<polygon fill="#FFFFFF" points="474.5,347.8 474.5,347.9 474.5,347.9 477.7,347.9 477.7,347.9 477.7,347.8 	"/>
	<polygon fill="#FFFFFF" points="454.4,337.4 454.4,336.6 437.7,336.6 437.7,337.4 440.8,337.4 440.8,339.8 451.3,339.8 
		451.3,337.4 	"/>
	<polygon fill="#FFFFFF" points="504.4,344.7 504.4,347.8 506.9,347.8 507.5,347.8 507.5,329.1 504.4,329.1 	"/>
	<polygon fill="#FFFFFF" points="491.3,336.6 488.7,336.6 474.5,336.6 474.5,337.3 474.5,337.4 477.7,337.4 477.7,339.8 
		488.7,339.8 491.3,339.8 	"/>
	<polygon fill="#FFFFFF" points="499.6,347.8 499.6,344.7 499.6,329.1 496.4,329.1 496.4,344.7 496.4,347.8 	"/>
	<polygon fill="#FFFFFF" points="454.4,344.7 454.4,339.8 454.4,337.4 451.3,337.4 451.3,339.8 451.3,347.8 452.8,347.8 
		452.8,344.7 	"/>
	<polygon fill="#FFFFFF" points="464.7,344.7 466.9,344.7 466.9,347.8 467.8,347.8 467.8,339.8 464.7,339.8 	"/>
	<polygon fill="#FFFFFF" points="437.7,337.4 437.7,339.8 437.7,347.8 440.8,347.8 440.8,339.8 440.8,337.4 	"/>
	<polygon fill="#FFFFFF" points="474.5,337.4 474.5,339.8 474.5,344.7 474.5,347.8 477.7,347.8 477.7,344.8 477.7,339.8 
		477.7,337.4 	"/>
	<polygon fill="#FFFFFF" points="458.8,339.8 464.7,339.8 467.8,339.8 467.8,337.4 467.8,336.6 458.8,336.6 	"/>
	<polygon fill="#FFFFFF" points="464.7,344.7 454.4,344.7 452.8,344.7 452.8,347.8 452.8,347.9 466.9,347.9 466.9,347.8 
		466.9,344.7 	"/>
	<path fill="#FFFFFF" d="M513.3,332.2h5.7c-0.9-0.8-1.7-1.6-2.1-2.2l-0.6-0.9h-2.9V332.2z"/>
	<rect x="520.2" y="344.8" fill="#FFFFFF" width="3.2" height="3.1"/>
	<path fill="#FFFFFF" d="M513.3,337.4h3.2v2.3H527v-1.9c-0.5-0.4-1.1-0.9-1.8-1.3h-11.9V337.4z"/>
	<path fill="#FFFFFF" d="M527,347.8h1.4v-3.1h1.8v-3.8c-0.8-1-1.8-1.9-3.2-3v1.9V347.8z"/>
	<polygon fill="#FFFFFF" points="513.3,337.4 513.3,339.8 513.3,347.8 516.5,347.8 516.5,339.8 516.5,337.4 	"/>
	<path fill="#FFFFFF" d="M528.4,344.7v3.1v0.1h5.5c-0.6-1.2-1.2-2.3-1.6-3.2h-2.1H528.4z"/>
	<rect x="99.7" y="150.2" fill="#FFFFFF" width="6.2" height="3.2"/>
	<polygon fill="#FFFFFF" points="113.9,150.2 113.9,134.4 110.8,134.4 110.8,142 113.5,141.9 113.5,145.1 110.8,145.1 110.8,153.4 
		111.7,153.4 111.7,150.2 	"/>
	<path fill="#FFFFFF" d="M105.7,134.4H89.2c0.2,0,0.5,0.1,0.7,0.1l5.6,0.4l-2.1,2.7h12.3V134.4z"/>
	<rect x="121.7" y="150.2" fill="#FFFFFF" width="4.8" height="3.2"/>
	<polygon fill="#FFFFFF" points="113.9,150.2 111.7,150.2 111.7,153.4 113.9,153.4 118.6,153.4 118.6,150.2 	"/>
	<polygon fill="#FFFFFF" points="121.7,134.4 118.6,134.4 118.6,150.2 118.6,153.4 121.7,153.4 121.7,150.2 	"/>
	<polygon fill="#FFFFFF" points="113.5,141.9 110.8,142 96.6,142 96.6,145.1 96.7,145.1 96.7,142.8 99.7,142.8 99.7,145.1 
		110.8,145.1 113.5,145.1 	"/>
	<polygon fill="#FFFFFF" points="129.7,152.4 129.7,134.4 126.5,134.4 126.5,150.2 126.5,153.4 128.1,153.4 128.1,152.4 	"/>
	<polygon fill="#FFFFFF" points="89.9,142.8 89.9,145.1 89.9,145.1 90,147.3 90,142.8 	"/>
	<polygon fill="#FFFFFF" points="96.7,142.8 96.7,145.1 96.6,153.4 96.7,153.4 99.7,153.4 99.7,150.2 99.7,145.1 99.7,142.8 	"/>
	<polygon fill="#FFFFFF" points="89.9,142.8 89.9,142.1 89.8,142.3 89.9,145.1 89.9,145.1 	"/>
	<rect x="174.8" y="150.2" fill="#FFFFFF" width="6" height="3.2"/>
	<polygon fill="#FFFFFF" points="188.4,145.1 185.8,145.1 185.8,153.4 186.6,153.4 186.6,150.2 188.9,150.2 188.9,134.4 
		185.8,134.4 185.8,142 188.4,141.9 	"/>
	<rect x="141.5" y="150.4" fill="#FFFFFF" width="3.2" height="3"/>
	<rect x="134.7" y="134.4" fill="#FFFFFF" width="45.9" height="3.2"/>
	<rect x="196.7" y="150.2" fill="#FFFFFF" width="4.7" height="3.2"/>
	<polygon fill="#FFFFFF" points="186.6,153.4 188.9,153.4 193.4,153.4 193.5,150.2 188.9,150.2 186.6,150.2 	"/>
	<polygon fill="#FFFFFF" points="174.8,142.8 174.8,145.1 185.8,145.1 188.4,145.1 188.4,141.9 185.8,142 171.5,142 171.5,145.1 
		171.6,145.1 171.6,142.8 	"/>
	<polygon fill="#FFFFFF" points="134.8,142.8 137.9,142.8 137.9,145.1 148.3,145.1 148.3,142.8 151.5,142.8 151.5,141.9 134.7,142 
		134.7,145.1 134.8,145.1 	"/>
	<polygon fill="#FFFFFF" points="203.5,153.4 203.5,152.4 204.6,152.4 204.6,134.4 201.4,134.4 201.4,150.2 201.4,153.4 	"/>
	<polygon fill="#FFFFFF" points="196.7,153.4 196.7,150.2 196.7,134.4 193.5,134.4 193.5,150.2 193.4,153.4 	"/>
	<polygon fill="#FFFFFF" points="164,153.4 164.9,153.4 164.9,145.1 161.8,145.1 161.8,150.2 164,150.2 	"/>
	<polygon fill="#FFFFFF" points="148.3,145.1 148.3,153.4 149.8,153.4 149.8,150.2 151.5,150.2 151.5,145.1 151.5,142.8 
		148.3,142.8 	"/>
	<polygon fill="#FFFFFF" points="134.8,142.8 134.8,145.1 134.8,153.4 137.9,153.4 137.9,145.1 137.9,142.8 	"/>
	<polygon fill="#FFFFFF" points="174.8,153.4 174.8,150.2 174.8,145.1 174.8,142.8 171.6,142.8 171.6,145.1 171.6,150.2 
		171.6,152.4 171.6,153.4 	"/>
	<polygon fill="#FFFFFF" points="164.9,142.8 164.9,142 155.9,142 155.9,145.1 161.8,145.1 164.9,145.1 	"/>
	<polygon fill="#FFFFFF" points="149.8,153.4 151.5,153.4 161.8,153.4 164,153.4 164,150.2 161.8,150.2 151.5,150.2 149.8,150.2 	
		"/>
	<rect x="250.2" y="150.2" fill="#FFFFFF" width="6" height="3.2"/>
	<polygon fill="#FFFFFF" points="263.8,145.1 261.1,145.1 261.1,153.4 262.1,153.4 262.1,150.2 264.3,150.2 264.3,134.4 
		261.1,134.4 261.1,142 263.8,141.9 	"/>
	<polygon fill="#FFFFFF" points="256.1,137.6 256.1,134.4 210,134.4 210.1,137.6 	"/>
	<rect x="217" y="150.4" fill="#FFFFFF" width="3.1" height="3"/>
	<rect x="272.1" y="150.2" fill="#FFFFFF" width="4.8" height="3.2"/>
	<polygon fill="#FFFFFF" points="262.1,153.4 264.3,153.4 268.9,153.4 268.9,150.2 264.3,150.2 262.1,150.2 	"/>
	<polygon fill="#FFFFFF" points="250.2,145.1 261.1,145.1 263.8,145.1 263.8,141.9 261.1,142 247,142 247,142.8 250.2,142.8 	"/>
	<polygon fill="#FFFFFF" points="226.9,142.8 226.9,141.9 210.1,142 210.1,142.8 213.3,142.8 213.3,145.1 223.8,145.1 223.8,142.8 	
		"/>
	<polygon fill="#FFFFFF" points="272.1,153.4 272.1,150.2 272.1,134.4 268.9,134.4 268.9,150.2 268.9,153.4 	"/>
	<polygon fill="#FFFFFF" points="279.3,153.4 279.3,152.4 280.1,152.4 280.1,134.4 276.9,134.4 276.9,150.2 276.9,153.4 	"/>
	<polygon fill="#FFFFFF" points="226.9,150.2 226.9,145.1 226.9,142.8 223.8,142.8 223.8,145.1 223.8,153.4 225.2,153.4 
		225.2,150.2 	"/>
	<polygon fill="#FFFFFF" points="237.1,150.2 239.4,150.2 239.4,153.4 240.3,153.4 240.3,145.1 237.1,145.1 	"/>
	<polygon fill="#FFFFFF" points="210.1,142.8 210.1,145.1 210.1,153.4 213.3,153.4 213.3,145.1 213.3,142.8 	"/>
	<polygon fill="#FFFFFF" points="247.4,153.4 250.2,153.4 250.2,150.2 250.2,145.1 250.2,142.8 247,142.8 247,145.1 247,150.2 
		247,152.4 247.4,152.4 	"/>
	<polygon fill="#FFFFFF" points="231.3,145.1 237.1,145.1 240.3,145.1 240.3,142.8 240.3,142 231.3,142 	"/>
	<polygon fill="#FFFFFF" points="237.1,150.2 226.9,150.2 225.2,150.2 225.2,153.4 226.9,153.4 237.1,153.4 239.4,153.4 
		239.4,150.2 	"/>
	<rect x="292.6" y="150.4" fill="#FFFFFF" width="3.2" height="3"/>
	<rect x="325.9" y="150.2" fill="#FFFFFF" width="6" height="3.2"/>
	<rect x="285.8" y="134.4" fill="#FFFFFF" width="45.9" height="3.2"/>
	<polygon fill="#FFFFFF" points="339.5,145.1 336.9,145.1 336.9,153.4 337.7,153.4 337.7,150.2 340,150.2 340,134.4 336.9,134.4 
		336.9,142 339.5,141.9 	"/>
	<rect x="347.8" y="150.2" fill="#FFFFFF" width="4.7" height="3.2"/>
	<polygon fill="#FFFFFF" points="337.7,153.4 340,153.4 344.7,153.4 344.7,150.2 340,150.2 337.7,150.2 	"/>
	<polygon fill="#FFFFFF" points="325.9,142.8 325.9,145.1 336.9,145.1 339.5,145.1 339.5,141.9 336.9,142 322.6,142 322.6,145.1 
		322.7,145.1 322.7,142.8 	"/>
	<polygon fill="#FFFFFF" points="285.9,142.8 289,142.8 289,145.1 299.4,145.1 299.5,142.8 302.7,142.8 302.7,141.9 285.8,142 
		285.8,145.1 285.9,145.1 	"/>
	<polygon fill="#FFFFFF" points="355.2,153.4 355.2,152.4 355.7,152.4 355.7,134.4 352.5,134.4 352.5,150.2 352.5,153.4 	"/>
	<polygon fill="#FFFFFF" points="347.8,153.4 347.8,150.2 347.8,134.4 344.7,134.4 344.7,150.2 344.7,153.4 	"/>
	<polygon fill="#FFFFFF" points="315.1,153.4 316.1,153.4 316.1,145.1 312.9,145.1 312.9,150.2 315.1,150.2 	"/>
	<polygon fill="#FFFFFF" points="285.9,142.8 285.9,145.1 285.9,153.4 289,153.4 289,145.1 289,142.8 	"/>
	<polygon fill="#FFFFFF" points="299.4,145.1 299.4,153.4 300.9,153.4 300.9,150.2 302.7,150.2 302.7,145.1 302.7,142.8 
		299.5,142.8 	"/>
	<polygon fill="#FFFFFF" points="322.9,153.4 325.9,153.4 325.9,150.2 325.9,145.1 325.9,142.8 322.7,142.8 322.7,145.1 
		322.7,150.2 322.7,152.4 322.9,152.4 	"/>
	<polygon fill="#FFFFFF" points="316.1,142.8 316.1,142 306.9,142 306.9,145.1 312.9,145.1 316.1,145.1 	"/>
	<polygon fill="#FFFFFF" points="300.9,153.4 302.7,153.4 312.9,153.4 315.1,153.4 315.1,150.2 312.9,150.2 302.7,150.2 
		300.9,150.2 	"/>
	<rect x="402" y="150.2" fill="#FFFFFF" width="6" height="3.2"/>
	<polygon fill="#FFFFFF" points="415.6,145.1 413,145.1 413,153.4 413.8,153.4 413.8,150.2 416.1,150.2 416.1,134.4 413,134.4 
		413,142 415.6,141.9 	"/>
	<rect x="361.9" y="134.4" fill="#FFFFFF" width="45.9" height="3.2"/>
	<rect x="368.8" y="150.4" fill="#FFFFFF" width="3.2" height="3"/>
	<rect x="424" y="150.2" fill="#FFFFFF" width="4.8" height="3.2"/>
	<polygon fill="#FFFFFF" points="413.8,153.4 416.1,153.4 420.8,153.4 420.8,150.2 416.1,150.2 413.8,150.2 	"/>
	<polygon fill="#FFFFFF" points="402,142.8 402,145.1 413,145.1 415.6,145.1 415.6,141.9 413,142 398.8,142 398.8,142.8 
		398.8,142.8 	"/>
	<polygon fill="#FFFFFF" points="362,142.8 365.2,142.8 365.2,145.1 375.6,145.1 375.6,142.8 378.8,142.8 378.8,141.9 361.9,142 
		361.9,145.1 362,145.1 	"/>
	<polygon fill="#FFFFFF" points="424,153.4 424,150.2 424,134.4 420.8,134.4 420.8,150.2 420.8,153.4 	"/>
	<polygon fill="#FFFFFF" points="430.6,153.4 430.6,152.4 431.8,152.4 431.8,134.4 428.8,134.4 428.8,150.2 428.8,153.4 	"/>
	<polygon fill="#FFFFFF" points="391.3,153.4 392.2,153.4 392.2,145.1 389,145.1 389,150.2 391.3,150.2 	"/>
	<polygon fill="#FFFFFF" points="362,142.8 362,145.1 362,153.4 365.2,153.4 365.2,145.1 365.2,142.8 	"/>
	<polygon fill="#FFFFFF" points="375.6,145.1 375.6,153.4 377,153.4 377,150.2 378.8,150.2 378.8,145.1 378.8,142.8 375.6,142.8 	
		"/>
	<polygon fill="#FFFFFF" points="399.5,152.4 399.5,153.4 402,153.4 402,150.2 402,145.1 402,142.8 398.8,142.8 398.8,142.8 
		398.8,145.1 398.8,150.2 398.8,152.4 	"/>
	<polygon fill="#FFFFFF" points="392.2,142.8 392.2,142 383.2,142 383.2,145.1 389,145.1 392.2,145.1 	"/>
	<polygon fill="#FFFFFF" points="377,153.4 378.8,153.4 389,153.4 391.3,153.4 391.3,150.2 389,150.2 378.8,150.2 377,150.2 	"/>
	<polygon fill="#FFFFFF" points="491.8,150.2 491.8,134.4 488.7,134.4 488.7,142 491.3,141.9 491.3,145.1 488.7,145.1 488.7,153.4 
		489.5,153.4 489.5,150.2 	"/>
	<rect x="477.7" y="150.2" fill="#FFFFFF" width="6.1" height="3.2"/>
	<rect x="437.6" y="134.4" fill="#FFFFFF" width="45.9" height="3.2"/>
	<rect x="444.4" y="150.4" fill="#FFFFFF" width="3.2" height="3"/>
	<rect x="499.6" y="150.2" fill="#FFFFFF" width="4.8" height="3.2"/>
	<polygon fill="#FFFFFF" points="491.8,150.2 489.5,150.2 489.5,153.4 491.8,153.4 496.4,153.4 496.4,150.2 	"/>
	<polygon fill="#FFFFFF" points="499.6,134.4 496.4,134.4 496.4,150.2 496.4,153.4 499.6,153.4 499.6,150.2 	"/>
	<polygon fill="#FFFFFF" points="454.4,142.8 454.4,141.9 437.7,142 437.7,142.8 440.8,142.8 440.8,145.1 451.3,145.1 451.3,142.8 	
		"/>
	<path fill="#FFFFFF" d="M504.4,150.2v3.2h1.5l-0.2-8.8c0-3.1,0-6.9,0.2-10.2h-1.5V150.2z"/>
	<polygon fill="#FFFFFF" points="491.3,141.9 488.7,142 474.5,142 474.5,142.8 477.7,142.8 477.7,145.1 488.7,145.1 491.3,145.1 	
		"/>
	<polygon fill="#FFFFFF" points="454.4,150.2 454.4,145.1 454.4,142.8 451.3,142.8 451.3,145.1 451.3,153.4 452.8,153.4 
		452.8,150.2 	"/>
	<polygon fill="#FFFFFF" points="464.7,150.2 466.9,150.2 466.9,153.4 467.8,153.4 467.8,145.1 464.7,145.1 	"/>
	<polygon fill="#FFFFFF" points="437.7,142.8 437.7,145.1 437.7,153.4 440.8,153.4 440.8,145.1 440.8,142.8 	"/>
	<polygon fill="#FFFFFF" points="474.5,142.8 474.5,145.1 474.5,150.2 474.5,153.4 477.7,153.4 477.7,150.2 477.7,145.1 
		477.7,142.8 	"/>
	<polygon fill="#FFFFFF" points="458.8,145.1 464.7,145.1 467.8,145.1 467.8,142.8 467.8,142 458.8,142 	"/>
	<polygon fill="#FFFFFF" points="464.7,150.2 454.4,150.2 452.8,150.2 452.8,153.4 454.4,153.4 464.7,153.4 466.9,153.4 
		466.9,150.2 	"/>
	<polygon fill="#D90000" points="241.8,318.3 241.8,322.3 241.8,328.1 247.4,328.1 247.4,322.3 247.4,318.3 	"/>
	<path fill="#D90000" d="M171.6,318.3h-3.8c1.4,1.3,1.9,2.3,2.8,5.4c0.4,1.2,0.7,2.2,1,2.8v-4.2V318.3z"/>
	<polygon fill="#D90000" points="468.9,318.3 468.9,322.3 468.9,328.1 474.5,328.1 474.5,322.3 474.5,318.3 	"/>
	<polygon fill="#D90000" points="507.6,318.3 507.6,322.3 507.6,328.1 513.2,328.1 513.2,322.3 513.2,318.3 	"/>
	<polygon fill="#D90000" points="355.2,318.3 355.2,322.3 355.2,328.1 360.8,328.1 360.8,322.3 360.8,318.3 	"/>
	<polygon fill="#D90000" points="317.3,318.3 317.3,322.3 317.3,328.1 322.9,328.1 322.9,322.3 322.9,318.3 	"/>
	<polygon fill="#D90000" points="279.3,318.3 279.3,322.3 279.3,328.1 284.9,328.1 284.9,322.3 284.9,318.3 	"/>
	<polygon fill="#D90000" points="203.5,318.3 203.5,322.3 203.5,328.1 209.1,328.1 209.1,322.3 209.1,318.3 	"/>
	<polygon fill="#D90000" points="430.6,318.3 430.6,322.3 430.6,328.1 436.2,328.1 436.2,322.3 436.2,318.3 	"/>
	<polygon fill="#D90000" points="393.8,318.3 393.8,322.3 393.9,328.1 399.5,328.1 399.5,322.3 399.5,318.3 	"/>
	<polygon fill="#239E3F" points="89.8,162.3 95.4,162.3 95.4,157.7 95.4,152.4 90.3,152.4 90.4,155 89.8,155.6 89.8,157.7 	"/>
	<polygon fill="#239E3F" points="431.8,152.4 430.6,152.4 430.6,153.4 430.6,157.7 430.6,162.3 436.2,162.3 436.2,157.7 
		436.2,152.4 	"/>
	<polygon fill="#239E3F" points="468.9,152.4 468.9,157.7 468.9,162.3 474.5,162.3 474.5,157.7 474.5,152.4 	"/>
	<polygon fill="#239E3F" points="355.7,152.4 355.2,152.4 355.2,153.4 355.2,157.7 355.2,162.3 360.8,162.3 360.8,157.7 
		360.8,152.4 	"/>
	<polygon fill="#239E3F" points="204.6,152.4 203.5,152.4 203.5,153.4 203.5,157.7 203.5,162.3 209.1,162.3 209.1,157.7 
		209.1,152.4 	"/>
	<polygon fill="#239E3F" points="280.1,152.4 279.3,152.4 279.3,153.4 279.3,157.7 279.3,162.3 284.9,162.3 284.9,157.7 
		284.9,152.4 	"/>
	<polygon fill="#239E3F" points="129.7,152.4 128.1,152.4 128.1,153.4 128.1,157.7 128.1,162.3 133.7,162.3 133.7,157.7 
		133.7,152.4 	"/>
	<polygon fill="#239E3F" points="171.6,152.4 166,152.4 166,157.7 166,162.3 171.6,162.3 171.6,157.7 171.6,153.4 	"/>
	<polygon fill="#239E3F" points="247.4,152.4 247,152.4 241.8,152.4 241.8,157.7 241.8,162.3 247.4,162.3 247.4,157.7 247.4,153.4 	
		"/>
	<polygon fill="#239E3F" points="322.9,152.4 322.7,152.4 317.3,152.4 317.3,157.7 317.3,162.3 322.9,162.3 322.9,157.7 
		322.9,153.4 	"/>
	<polygon fill="#239E3F" points="399.5,152.4 398.8,152.4 393.8,152.4 393.8,157.7 393.9,162.3 399.5,162.3 399.5,157.7 
		399.5,153.4 	"/>
	<path fill="#DA0000" d="M333.7,295.5c24.8-17.6,33.2-39.3,32.9-58.9c-0.2-22.9-12.4-43.1-24.4-51.4c7.9,9.7,32.2,63.2-14.5,98.4
		l-0.1,10C329.7,294.3,331.7,294.9,333.7,295.5z"/>
	<path fill="#DA0000" d="M278.4,288c-3.1-3.4-5.9-7-8.3-10.9c-19.8-32.4-9.5-74.7,22.9-94.4C220.3,207,252.8,282.4,278.4,288z"/>
	<path fill="#DA0000" d="M370,277.1c-2.4,3.9-5.2,7.6-8.3,10.9c25.5-5.6,58.1-81-14.7-105.4C379.4,202.4,389.7,244.6,370,277.1z"/>
	<path fill="#DA0000" d="M273.3,236.5c-0.2,19.7,8.3,41.5,33.3,59.2c2.1-0.6,4.3-1.2,6.3-1.9l-0.2-9.7c-0.1-0.1-0.2-0.2-0.4-0.3
		c-47.1-35.3-22.6-88.9-14.7-98.6C285.7,193.4,273.5,213.7,273.3,236.5z"/>
	<path fill="#DA0000" d="M319.8,180c0.7,3.6,20.2,8.1,17.8-10.5c-3.1,7.5-12,7.2-17.8,3.8c-7.9,4.4-15.3,3.3-18.1-4.2
		C299,183,312.5,187,319.8,180z"/>
	<path fill="#DA0000" d="M327.7,301.5c12.3,1.2,28.8,2.4,37.5-2.3c-9.7,0.1-21-0.8-31.4-3.7c-2-0.6-4-1.2-6-1.9L327.7,301.5z"/>
	<path fill="#DA0000" d="M312.9,293.8c-2.1,0.7-4.2,1.4-6.3,1.9c-10.1,2.7-21.1,3.6-30.5,3.4c8.5,4.7,24.7,3.6,36.9,2.4L312.9,293.8
		z"/>
	<polygon fill="#DA0000" points="313,301.6 313.1,302.9 320.4,310.9 320.4,310.9 327.7,302.4 327.7,301.5 327.8,293.6 327.9,283.6 
		328.7,189.8 320,182.2 311.3,189.5 312.8,284.1 312.9,293.8 	"/>
</g>
</svg>
