<?xml version="1.0" encoding="utf-8"?>
<!-- Generator: Adobe Illustrator 17.1.0, SVG Export Plug-In . SVG Version: 6.00 Build 0)  -->
<!DOCTYPE svg PUBLIC "-//W3C//DTD SVG 1.1//EN" "http://www.w3.org/Graphics/SVG/1.1/DTD/svg11.dtd">
<svg version="1.1" id="flag-icon-css-is" xmlns="http://www.w3.org/2000/svg" xmlns:xlink="http://www.w3.org/1999/xlink" x="0px"
	 y="0px" viewBox="0 0 640 480" enable-background="new 0 0 640 480" xml:space="preserve">
<g>
	<path fill="none" d="M640,227.5v1.5C640.2,228.5,640.2,228,640,227.5z"/>
	<path fill="#003897" d="M536.8,332c-0.2-0.7-0.4-1.2-0.5-1.2c-0.1,0-0.3,0.6-0.5,1.2c-0.2,0.7,0,1.2,0.5,1.2
		C536.8,333.3,537,332.8,536.8,332z"/>
	<path fill="#003897" d="M293.3,436.5c0.8-0.6,1.4-0.8,1.9-0.5c0.4,0.3,1.3,0.4,1.9,0.4c0.9-0.2,1.1,0.3,1.1,3.2v3.4l7.1,3.5
		c3.9,1.9,7.2,3.4,7.5,3.4c0.2,0,0.4-0.4,0.4-0.9c0-1.7,1.8-1.7,3.9-0.2c1.7,1.3,2.3,1.4,4.1,0.9c1.5-0.4,3.1-0.4,5.9,0.4
		c9.6,2.6,8.9,2.6,17.7-0.6c4.4-1.6,10.5-3.2,13.5-3.7c3-0.5,5.6-1,5.8-1.2c0.2-0.2-0.4-2.5-1.3-5.2c-1.9-5.7-1.9-5.8-0.7-5.8
		c1.3,0,3.9,3.7,5.1,7.1c0.6,1.6,1.1,2.9,1.3,2.9c1.2,0,11-6.7,12.9-8.7c2.6-2.9,5-7.3,6.1-11.2c0.4-1.6,1.8-4.7,3.2-6.9
		c2.7-4.6,2.7-5.3-0.2-8.5c-3.1-3.3-1.3-3.2,2,0.1l3.1,3.1l2.1-1.3c1.1-0.7,2.7-2,3.6-2.9c0.8-0.8,1.8-1.4,2.3-1.2
		c0.4,0.2,1.7-0.2,2.9-0.9s3.1-1.4,4.4-1.6c1.3-0.2,2.7-1,3.1-1.6c0.9-1.5,1.7-1.6,1.7-0.3c0,1.2,1.5,1.2,2.5,0
		c0.6-0.7,0.9-0.8,1.3-0.2c0.2,0.5,1.4,0.6,3.4,0.3c2.9-0.4,2.9-0.5,1.8-1.7c-0.9-1.1-1-1.5-0.4-3.3c0.4-1.1,0.7-3.1,0.7-4.5
		c0.1-1.3,0.4-3.3,0.9-4.3c0.7-1.6,0.9-1.7,1.3-0.7c0.3,0.7,0.9,1,1.6,0.7c1-0.3,1.2-0.1,1.2,1.6c0,1.1,0.2,1.8,0.6,1.6
		c0.8-0.4,4.4-5.8,4.4-6.5c0-0.6,2.7-3.2,3.2-3.2c0.2,0,0.6,1.1,0.8,2.5s0.6,2.4,0.9,2.2c0.2-0.2,0.8,0.5,1.1,1.6
		c0.6,1.6,0.9,1.8,2.5,1.5c1.8-0.4,1.9-0.2,2.6,2.9c0.4,1.7,1.2,3.4,1.6,3.6c0.5,0.2,0.9,0.7,0.9,1.2c0,0.6,1.1-0.1,2.5-1.6
		c1.4-1.4,2.8-2.6,3.1-2.6c0.4,0,0.6-0.4,0.6-0.9c0-0.6,0.6-0.9,2.1-0.9c2.4,0,6.8-3.1,12.9-8.9c3.1-2.9,3.6-3.7,3.9-6.3
		c0.4-2.9,0.5-2.9,2.6-2.9c1.5,0,3.1-0.6,5-2c2.5-1.7,2.7-2.1,1.8-3c-0.8-0.9-0.7-1.1,0.9-2.1c1.4-0.8,1.9-0.9,2.1-0.3
		c0.2,0.5,1.6-0.5,3.8-2.6c1.9-1.9,3.4-3.8,3.2-4.2c-0.5-1.2,2.7-4.1,3.7-3.3c0.6,0.5,1.7,0.1,4.5-1.5c2-1.2,4.1-2.7,4.6-3.3
		c0.6-0.6,1.8-1.5,2.8-2c1.1-0.6,2.6-2,3.4-3.2c1.2-1.9,1.6-2.2,2.6-1.6c0.9,0.6,1.7,0.4,4-0.7c1.6-0.7,3.3-1.4,3.9-1.4
		c0.6,0,1.5-0.3,2-0.6c0.7-0.4,0.7-0.7,0.1-1.4c-0.4-0.4-0.7-1.2-0.7-1.7c0-0.7,0.2-0.7,1.2,0.2c1.1,1.1,1.3,1.1,3.4,0.1
		c1.2-0.6,2.1-1.4,1.9-1.7c-0.2-0.3-0.1-1.3,0.4-2.1c0.6-1.2,0.6-1.7,0.1-2.2c-1-1-0.9-2.8,0.1-3.2c0.6-0.2,0.6-0.6,0-1.6
		c-1-1.6-1.1-3.2-0.1-3.2c1.1,0,4.3,3.6,4.3,4.8c0,0.9,0.1,1,0.6,0.2c0.6-0.8,0.8-0.7,1.9,0.6c0.7,0.8,1.2,1.9,1.2,2.6
		c0,1.3,1.4,2.4,1.7,1.3c0.1-0.4,0.9,0.1,1.8,1.1c1.7,2.1,3.1,2.4,3.7,0.9c0.2-0.5,0.8-0.9,1.3-0.9c1.4,0,4.2,1.8,5.2,3.3
		c0.6,1.1,0.6,1.4-0.2,2.1c-1.2,0.9-0.4,1.7,1.1,1.1c0.9-0.4,4.7-5.3,4.7-6.1c0-0.2-0.6-0.4-1.2-0.4s-1.4-0.4-1.6-0.9
		c-0.4-1.1,3.2-5.5,5-5.9c1.8-0.5,2-2.3,0.4-4.1c-1.1-1.2-1.2-1.6-0.6-2.8c0.7-1.4,0.8-1.4,2.1,0.9c0.7,1.3,1.6,2.5,2,2.6
		s1.9-1.6,3.3-3.8c1.4-2.2,3.1-4.2,3.6-4.4c2.1-0.8,4.9-0.3,6.9,1.2c2.4,1.9,2.7,1.9,2.7,0.4c0-0.6,0.4-1.6,0.9-2.2
		c0.7-0.9,0.7-1.4,0.2-2.1c-0.5-0.6-0.3-1.6,1-3.9c1.6-2.9,1.6-3.2,0.7-4.6c-0.6-0.9-0.9-1.9-0.6-2.2c0.6-1-1.4-1.5-2.6-0.6
		c-1.4,1.2-2.2,0-2.5-3.4c-0.3-3.6,0.6-5.3,2.8-5.3H293.3V436.5z"/>
	<path fill="#003897" d="M586.9,293.3H581c0.7,0,1.6,0.2,2.6,0.6C584.7,294.3,586,294,586.9,293.3z"/>
	<path fill="#003897" d="M186.7,173.3c-0.8,0.5-1.8,1.1-3,1.8c-4.1,2.5-6.7,3.4-6.7,2.5c0-0.2,2-2.6,4.4-5.4
		c2.8-3.3,4.4-5.2,5.2-6.9v-8.9c-0.3-0.1-0.6-0.2-1.1-0.2c-1.4-0.2-2.3,0.4-4.6,2.9c-1.7,1.9-3.2,2.9-3.7,2.7c-1.5-0.6-1-1.9,2-5.6
		l2.9-3.5l-1.8-1.9c-1.8-1.9-1.6-1.9-8-0.8c-2.7,0.5-5.9-1.6-5.9-3.9c0-0.9-0.4-2.4-1-3.2c-1-1.4-1-1.5,0-2.1
		c2.4-1.3,0.7-5.1-3.6-7.8c-2.1-1.4-2.4-1.7-1.4-2.2c1.9-1.1,4.3-0.3,5.7,1.8c0.7,1.1,2.1,3.3,3.1,4.9c1.9,3.2,2.9,3.7,7.6,4.2
		l3.2,0.4l0.7-2.5c0.4-1.4,1.2-2.6,1.7-2.8c3.1-0.9,3.1-0.8,1.2-2.7c-1.4-1.4-1.9-1.7-2.6-1.1c-0.6,0.5-1.1,0.4-2.1-0.4
		c-1.7-1.5-1.6-2,0.6-2.5c1.9-0.4,5.7-3.1,7.2-4.8v-6.2c-0.3-0.1-0.6-0.2-1-0.3c-2.9-0.6-3.4-1.9-0.6-1.7c0.7,0,1.2,0,1.6-0.3v-7.5
		c-0.8-0.8-1.4-1-1.8-0.7c-0.6,0.4-5.4,0.6-6.6,0.2c-0.2-0.1,0.6-0.8,1.6-1.7c1.9-1.5,1.9-1.6,0.2-0.9c-1.1,0.4-1.9,0.4-2.4-0.1
		c-0.5-0.5-1.2-0.4-2.9,0.4c-1.2,0.6-2.6,1.1-3.2,1.1c-0.8,0-2.6-2.9-2.1-3.3c0.7-0.6,13-4.2,14.9-4.3l2.1-0.2l-1.7-2.1
		c-1.5-1.8-2.1-2.1-3.7-1.7c-6.7,1.4-8.5,0.9-8.5-1.9c0-0.7-0.3-1.6-0.6-1.8c-1.2-0.7,0.2-1.7,1.9-1.3c2.1,0.4,2.2,0.2,0.6-2.4
		c-1.2-1.9-1.4-2-3.2-1.4c-1.5,0.6-1.8,1-1.5,2c1.2,3.7,1.1,4.1-1.6,6.7c-3.1,3-4,2.2-1.5-1.4c1.4-2,1.6-2.6,0.9-3.7l-0.7-1.4
		l-0.9,1.3c-1.4,1.9-1.8,1.7-3.2-1.7c-1-2.3-1.1-3.2-0.6-4.4c0.5-1.2,0.4-1.6-0.6-2.3c-1.1-0.8-1.1-1-0.1-3.1c1.4-2.8,1.3-3-0.2-2.5
		c-1.2,0.4-1.3,0.2-0.9-1.2c0.3-1.2,0.1-1.7-0.7-2c-0.6-0.2-1.6-0.6-2.3-1c-0.8-0.4-1.3-0.4-1.6,0.1c-0.3,0.5-1.1,0-2.2-1.5
		c-2-2.5-3-2.7-4.7-1.2c-2.2,2-1.9,0.1,0.4-2.2c2-2,2.2-2.6,1.7-3.6c-1.3-2.5-2.2-2.8-4.7-1.6l-2.4,1.1l-1.2-1.6l-1.2-1.7l-1.8,2
		l-1.7,1.9l0.6-2.1c0.6-2.2,0.3-2.4-1.8-1c-1.3,0.9-1.5,0.9-2.4,0.1c-0.8-0.8-0.9-1.3-0.2-2.8c0.6-1.5,0.6-2.1-0.1-3.2
		s-0.7-1.6,0.1-2.7c0.7-1.2,0.7-1.4-0.4-2.3c-0.7-0.6-1.7-2.1-2.3-3.4c-0.6-1.2-1.4-2.3-1.9-2.3c-1.9,0-4.1-2.9-5.5-7.1
		c-0.7-2.4-1.8-4.5-2.3-4.6c-0.7-0.2-0.8-0.1-0.1,0.6c1.1,1.1,0.9,3.1-0.2,4.9l-1,1.4l-4-3.9c-3.6-3.6-4-3.8-4-2.4
		c-0.1,0.9-1.1,2.7-2.8,4.6l-2.7,2.9l-1.3-2.4c-1.8-3.2-8.1-6.4-9.7-5c-1,0.7-1.1,0.7-0.7-0.2c0.3-0.8,0.1-1.1-0.9-1.1
		c-1.1,0-1.2,0.2-0.6,0.7c0.7,0.7,0.2,2.4-1.6,4.4c-0.9,1-1,1-2.1,0c-0.9-0.8-1.3-0.9-1.9-0.3s-0.5,0.9,0.4,1.6
		c1.3,1,0.8,2.3-0.9,2.3c-0.8,0-1.2-0.5-1.4-1.7c-0.1-1.2-0.6-1.7-1.6-1.9c-1.7-0.2-1.8,0.1-0.1,2.7c0.9,1.5,1.7,2.1,2.8,2.1
		c1.3,0,1.5,0.2,1.5,2.4c0,1.3,0.3,2.7,0.7,3.1c0.6,0.6,0.3,0.7-1.1,0.7c-1.1,0-2.4,0.4-3.1,0.9c-1,0.7-1.4,0.7-3.6-0.4
		c-2.9-1.4-3.2-0.7-0.7,1.6c2.9,2.7,6.3,4.8,7.9,4.8c0.8,0,2.7-0.4,4.3-1.1c2.1-0.8,2.9-1.4,3.2-2.7c0.2-0.9,1.5-2.6,2.9-3.7
		c2.2-1.8,2.6-1.9,2.9-1c0.2,0.7-0.1,1.6-1.2,2.5c-1.7,1.4-2.2,3.6-1.1,4.3c1,0.6,3.7-1.4,4.9-3.6c1.7-3.2,3.1-4.2,5.4-4.2
		c2.6,0,2.9,1,0.6,2c-0.9,0.4-1.7,1.4-1.9,2.6c-0.2,1.1-0.8,2.7-1.2,3.6c-0.8,1.6-0.7,1.7,1.1,2.3c3.3,1.2,4.7,0.8,7.4-1.8
		c2.7-2.6,3.7-2.7,3.7-0.4c0,0.9-0.8,2.1-2.2,3.1c-1.2,0.9-2.2,1.9-2.2,2.2c0,1.1,1.9,1.2,4.4,0.4c3-1.1,5.9-1.2,6.5-0.3
		c0.5,0.8-8.3,5.2-9.7,4.8c-1.4-0.4-1.4-0.2-0.4,1.4c0.6,0.9,0.6,1.4,0,2c-0.7,0.7-1.2,0.4-2.6-1.1c-1.1-1.2-2.6-2.1-4.2-2.4
		c-1.3-0.2-2.9-0.9-3.6-1.4c-1.8-1.2-5.6-1.1-8.9,0.4c-1.5,0.7-3.5,1.6-4.4,1.9c-1.4,0.6-1.6,0.9-1.2,2.4c1.1,4.3,5.4,8.7,10.4,10.4
		c4.9,1.7,12.7,5.8,13.4,7.1c1.1,1.7,4.6,2.3,6.9,1.1c2.7-1.4,3.4-0.1,1,2.1c-1,0.9-2.2,2.7-2.6,4.1c-0.7,2.2-0.6,2.5,0.8,3.6
		c2.1,1.7,2.7,3,3.7,8.4c0.5,2.6,1.3,5.2,1.8,5.8c1.2,1.4,1.2,2.7,0,2.2c-0.7-0.2-0.9,0.1-0.9,1.4c0,2.9-3.1,8.3-7.4,12.7
		c-4.4,4.4-7.5,6.4-9.6,6.1c-1.1-0.1-0.6-0.7,2.2-2.6c6.7-4.6,9.7-9.8,9.7-16.9c0-3.9-0.1-4.4-1.4-5c-0.7-0.4-1.6-1.3-1.8-2.2
		c-0.2-0.9-0.4-1.2-0.5-0.7c-0.1,0.5-0.6,2-1.2,3.4c-2.4,5.2-3.8,9.1-3.8,10.7c0,1.9-1.6,5.3-2.5,5.3c-1.1,0-0.7-2.7,1.2-9.2
		c2.8-9.7,2.9-10.9,1.2-14.4c-0.7-1.7-1.8-3.1-2.2-3.2c-0.5,0-1.3-1.1-1.9-2.5c-0.8-2-1.3-2.5-2.2-2.2c-0.7,0.2-1.6,0-2.1-0.4
		c-0.4-0.4-0.8-0.6-0.8-0.4c-0.1,0.1-0.3,3.8-0.6,8.2c-0.5,6.9-0.8,8.4-2.2,11c-2.7,4.8-3.7,2.9-1.9-3.3c0.5-1.7,0.9-4.2,0.9-5.6
		v-2.6l-2.4,4.2c-1.2,2.2-3.4,5.4-4.6,6.9c-1.9,2.2-2.4,2.5-2.7,1.6c-0.2-0.7,0.4-2.2,2.2-4.6c2.5-3.3,2.6-3.5,1.6-4.6
		c-1.1-1.2-1.1-1.9,0.1-6.4c0.6-2.6-0.4-2-3.1,1.6c-1.2,1.7-3.4,4.5-4.8,6.1c-3.7,4.3-3.2,1.3,0.7-4.7c3-4.5,3.3-5.2,3.3-8.5
		c-0.1-2.6-0.4-3.9-1.2-4.8c-0.7-0.7-1.4-1.3-1.6-1.3c-0.2,0-1.2,1.5-2.1,3.3c-1.4,3-1.9,3.4-3.6,3.4c-1.6,0-1.9-0.2-1.9-1.4
		c0-0.8,0.6-1.8,1.4-2.3c1.1-0.7,1.4-1.6,1.4-3.5c0-2.9-1.4-4.8-4.7-6.1c-1.2-0.5-2.6-1.7-3.2-2.7c-0.7-1.3-2.1-2.1-5-3.1
		c-4.8-1.6-6.1-1.6-8.1-0.1c-0.9,0.7-1.9,1.2-2.2,1.2c-0.7,0-3.4,2.6-3.4,3.3c0,0.2,0.7,0.4,1.7,0.4c2.6,0,5.4,1.8,8.2,5.4
		c1.4,1.8,2.6,3.4,2.6,3.6c0,0.7-3.4-1.4-6.4-3.9c-3.1-2.7-3.6-2.9-5.4-1.9c-0.6,0.3-1.9,0.9-2.9,1.2l-1.8,0.7l2.1,2.1
		c1.2,1.2,3.7,3.4,5.7,4.8s3.6,2.9,3.6,3.2s0.4,1.1,1,1.7c2,2.1-0.7,1.9-5.4-0.5c-5.2-2.6-10.7-4.6-12.7-4.6c-0.7,0-1.9,0.7-2.5,1.7
		c-1.1,1.4-1.1,1.9-0.4,4.4c0.4,1.5,1.4,3.7,2.4,4.9c2.5,3.3,12.6,11.5,14.2,11.5c0.7,0,2.3,1,3.5,2.1c1.4,1.6,3,2.4,5.1,2.8
		c3.4,0.7,10.5,4.1,10.5,5.1c0,1.1-3.5,0.7-5.1-0.6c-1-0.7-3.1-1.4-5.8-1.6c-3.1-0.3-4.6-0.8-6-1.9c-1.4-1.2-2.2-1.4-3.8-1.1
		c-1.7,0.3-3-0.1-8-3.1c-3.2-1.9-6.2-3.5-6.7-3.5c-1.5,0-3.3,2.4-3.3,4.5c0,2.4,3.2,9.1,6.1,12.4c2.7,3.2,11,6.6,14,5.7
		c1.1-0.4,3.7-0.7,5.7-0.7c6.3-0.2,6.8-0.2,8.9-1.7c2.3-1.6,3.7-1.4,5.4,0.8l1.1,1.5l-2.2,0.4c-2.2,0.4-2.2,0.4-1.2,1.9
		c1.3,2.1,0.4,2.4-6.6,2.5c-7.3,0-11.9,0.7-11.9,1.8c0,0.9,3.1,3.7,5.6,5c1.4,0.7,2.4,0.7,5.2,0.2c1.9-0.4,3.7-0.5,3.9-0.2
		c0.6,0.6-1.6,2.2-3.1,2.2c-0.6,0-1.1,0.4-1.1,0.9c0,0.6-0.6,0.9-1.9,0.9c-1.9,0-1.9,0-0.9,1.6c1,1.4,1,1.6,0.1,2.6
		c-0.9,0.9-1.1,0.9-2.6-0.4c-1.3-1.2-1.5-1.2-1.9-0.3c-0.3,0.8-0.6,0.9-1.1,0.4c-1.1-1.1-1.5-0.9-2.4,1.1c-0.4,1.1-1.2,1.9-1.9,1.9
		c-1.5,0-2.1-3.4-1-5.5c1.1-2,0.1-4.5-1.7-4.5c-0.9,0-1.1-0.3-0.8-1.5c0.3-1.4-0.1-1.7-5.5-4.4c-3.2-1.6-6.7-3.6-7.6-4.4
		c-1.2-1.2-1.9-1.4-2.8-0.9c-1.5,0.8-1.8,0.8-1.4-0.2c0.3-0.9-0.7-1.9-2.9-3.2c-0.6-0.3-2.2-1.4-3.6-2.4c-2.1-1.5-2.7-1.7-3.8-1.1
		c-1.7,0.9-1.7,3.6-0.2,8.6c1.9,5.9,3.2,7.5,10.6,12.3c4.7,3.1,6.9,5,7.3,6.1c0.9,2.4,0,2.9-2,1c-3.7-3.6-7.7-5.5-11.2-5.5h-3.2
		l1.7,2.8c0.9,1.5,1.9,2.8,2.1,2.8c0.2,0,2.4,1.9,4.7,4.2c3.6,3.6,4.8,4.4,7,4.7c2.2,0.4,2.6,0.6,1.9,1.3c-0.4,0.5-1.2,0.9-1.9,0.9
		s-1.4,0.4-1.9,0.9c-0.4,0.5-1,0.9-1.3,0.9c-1.1,0-5.6-4.6-5.6-5.7c0-0.9-0.4-1.2-1.9-1.2c-2.6,0-4.1-0.9-8.2-4.9
		c-2.6-2.5-4.6-3.9-7.4-4.9c-3.4-1.2-3.7-1.2-3.7-0.2c0,0.6-0.6,1.6-1.2,2.2c-1,0.9-1.2,1.9-1.2,4.7c0,3.9-0.5,4.6-3.4,5.4
		c-1.6,0.4-5.9,4.3-6,5.4c0,0.2,0.7,0.7,1.5,1.2c1.2,0.5,2.1,0.4,4.1-0.4c1.6-0.6,4.8-1.1,8.6-1.1c6.7-0.2,9.2,0.6,11.8,3.7
		c1.2,1.4,1.5,1.4,2.6,0.7c1.1-0.7,1.5-0.6,2.9,0.3c1.4,0.9,1.6,1.4,1.2,3.1c-0.9,3.9-0.7,4.4,1.9,5c1.9,0.4,3.6,0.3,7.1-0.5
		c4.6-1.1,4.6-1.1,6.5-4.4c1.8-3.1,2-3.3,3.9-2.9c1.1,0.2,2.1,0.4,2.2,0.6c0.1,0.1,2.5-0.9,5.2-2.3c5.2-2.6,5.2-2.6,11.2-1.2
		c3.5,0.9,4.4,0.6,5.7-1.4c0.9-1.4,0.9-1.7,0-4.1c-0.9-2.2-0.9-2.7-0.1-4.3c0.5-0.9,1.5-2.3,2.2-2.9c1.3-1.2,1.3-1.2,1.3,0.6
		c0,2.5,0.6,3.1,3.6,4c2.2,0.7,2.9,0.7,4.2-0.2c0.9-0.6,1.7-1.9,1.9-3.1c0.7-3.4,1.6-6.1,2.2-6.1c0.2,0,1,1.2,1.6,2.7
		c1.1,2.6,1.2,2.7,2.2,1.8c0.7-0.7,1.1-1.9,1.1-3.7c0-1.4,0.2-2.7,0.4-2.7c0.2,0,0.9,0.7,1.6,1.6c1.6,2.1,2.4,2,2.4-0.3
		c0-2.1,0.9-2.4,2.6-0.8c1.1,0.9,1.2,0.9,2.6-0.4c1.3-1.2,1.5-1.2,2.2-0.4c0.7,0.8,0.5,1.4-1.2,3.5c-1.9,2.4-2,2.6-1.2,5.4
		c0.4,1.6,1.2,3.7,1.7,4.8l1.1,1.9l0.2-2.8c0.1-1.5,0.5-3.1,0.8-3.6c0.4-0.4,0.4-2.2,0.2-4.5c-0.2-2.1-0.2-3.8,0-3.8
		c1,0,2.8,5.6,2.7,8.4c-0.1,3.6,0.5,4.3,1.4,1.9c0.6-1.3,0.5-3.1,0-6.7c-0.6-4.5-0.5-6.1,0.5-6.1c1.7,0,3.9,8.4,3.9,14.8
		c0,4.1,0.3,4.5,2.6,3.2c1.1-0.6,1.2-1.1,0.8-3.4c-0.4-3.1,0.2-3.6,1.6-1.2c0.4,0.9,1,1.6,1.2,1.6c0.2,0,1.3-1.2,2.4-2.8
		c2-2.8,3.2-3.2,3.2-1c0,0.6-0.6,1.9-1.3,2.8c-1.5,1.9-1.2,2.6,0.6,2c2.2-0.7,4.4-2.9,5.6-5.6c0.8-1.8,2-3.1,3.7-4.1
		c1.4-0.8,2.6-1.2,2.6-1.1c0,0.2-0.9,1.5-1.9,2.8c-1.1,1.3-2.6,3.9-3.4,5.8c-1.6,3.7-3.5,5.4-5.7,5.4c-2.2,0-6.4,1.9-6.4,2.9
		c0,0.5,0.6,0.9,1.2,0.9c0.7,0,2.3,1,3.7,2.2c1.3,1.2,2.7,2.2,3.1,2.2s0.7,0.3,0.9,0.7c0.4,1.1,1.4,0.2,3.8-3.4
		c1.5-2.2,2.1-3.7,1.9-4.8c-0.3-1.7,0.7-5,1.6-5c0.3,0,1.2,1.1,2,2.3c0.8,1.2,1.6,1.9,1.7,1.6c0.4-1.4,1.9-0.7,4.8,2.4
		c1.8,1.9,2.8,3.5,2.6,4.1c-0.2,0.6-0.1,0.7,0.2,0.6c0.4-0.2,2.2,0.2,4.1,1l3.4,1.4l1.9-1.4c1.7-1.2,2.2-1.4,3.6-0.7l1.7,0.7
		l-2.2,1.8c-1.2,1-3.9,2.6-5.9,3.7l-3.7,1.8l-1.1-1.3c-0.9-1.2-1.1-1.2-2.1-0.5c-0.6,0.4-0.9,1.4-0.7,2c0.2,0.7,0,1.1-0.6,1.1
		c-0.5,0-0.9,0.4-0.9,0.9c0,0.3-0.3,0.7-0.7,1.1h37.2V173.3z"/>
	<path fill="#003897" d="M629.8,186.7c0.1-0.1,0.2-0.2,0.3-0.3c1.5-1.5,1.6-1.9,0.9-3c-0.7-1.1-0.7-1.5,0.4-2.5
		c1.2-1.2,1.2-1.3,0.3-3.7c-1-2.4-1-2.6,0.3-3.9c1.9-2,2.4-5.5,1-6.6c-0.6-0.5-1.6-0.9-2.1-0.9c-0.6,0-1.1-0.6-1.2-1.4
		c-0.3-2.3-1.9-2.2-3.3,0.1c-0.7,1.2-1.7,2.2-2.1,2.2c-1.5,0-2.8-1.9-2.8-4.1c0-1.5-0.3-2.1-1.2-2.4c-1.7-0.4-2.2-2.2-1-3.1
		c1.5-1.1,0.6-2.7-1.6-3.1c-1.4-0.2-2.4,0.2-4.7,2.1c-3.4,2.8-4.5,3-4.6,0.6c-0.1-1-0.2-1.2-0.4-0.6c-0.1,0.6-0.5,1.1-0.8,1.1
		c-0.8,0-2-1.8-1.6-2.5c0.2-0.3-0.1-0.6-0.6-0.6c-1.7,0-6.2-2.5-7.6-4.2l-1.4-1.7l-5.6,5.6c-5.1,5.1-5.6,5.4-5.6,3.9
		c0-1,1-2.9,2.7-4.9c1.4-1.8,3.3-4.2,4.1-5.4l1.5-2.1l-1.8-2c-3.7-3.9-3.6-3.7-1.6-8.6c1.1-2.5,1.9-4.7,1.9-5c0-0.5-6.4,0.6-6.9,1.2
		c-0.7,0.9-3.1,1.9-4.9,1.9c-3.4,0-7.8,1.5-11.8,4l-4,2.4l-1.2-1.3l-1.3-1.2l1.4-2.3c1.7-2.9,1.7-3.2-0.3-1.6
		c-0.9,0.7-1.9,1.3-2.2,1.3c-1.1,0-0.6-1.7,1-3.1c0.9-0.9,1.9-3,2.6-5.7c0.8-3.2,1.4-4.4,2.4-4.7c2.2-0.8,7.4-7.4,8.6-10.9
		c1.6-4.9,1.4-7.6-1.2-12.9c-3.3-6.8-5.8-7.6-8.4-2.6c-2.2,4.3-3.6,4.7-5.3,1.4c-1-1.9-1.4-2.2-2.9-1.9c-0.9,0.2-2.4,0-3.4-0.5
		c-1.1-0.6-2.2-0.7-3-0.4c-2.2,0.8-2.8-0.4-1.7-3.1c1.2-3.1,0.7-4.6-1.5-4.2c-2.1,0.4-4.6-1.2-4.6-3c0-1.7,1.6-3.2,4.1-3.7
		c1-0.2,3.7-2.1,6-4.1c6.1-5.5,6.4-8.3,1.3-12.2l-2.8-2.1l3.9-2.6c2.2-1.4,4.7-2.7,5.6-2.9c0.9-0.2,2.6-1.4,3.7-2.7
		c1.4-1.5,3.6-2.8,5.9-3.7c2.1-0.7,4.9-1.9,6.2-2.5l2.5-1.2h-2.1c-1.1-0.1-3.1,0.5-4.5,1.2c-3.2,1.6-3.6,1.6-7.1-0.6
		c-2.6-1.7-3.2-1.9-5-1.2c-2.8,0.9-6.5,4.1-7.6,6.6c-1.4,3.4-6.4,8.8-9.2,9.9c-1.3,0.5-3.7,0.9-5.4,0.9c-1.6,0-3.3,0.3-3.7,0.7
		c-0.9,0.9-0.9,3.7-0.1,6.7c0.6,2,0.5,2.7-0.9,5.6l-1.7,3.2l-1.9-1.1c-1.1-0.6-2.2-1.9-2.7-2.9c-0.5-1.2-1.4-2-2.9-2.5
		c-1.4-0.4-2.2-1.2-2.4-1.9c-0.1-0.7-0.8-1.9-1.6-2.7c-1.1-1.2-1.4-1.2-1.8-0.5c-0.4,0.6-1.4,0.9-2.7,0.9c-2.8-0.1-4.6-2.2-3.5-4.5
		c0.6-1.3,0.5-1.4-0.9-1.1c-0.8,0.1-1.5,0-1.5-0.4s-0.6-0.7-1.4-0.9c-2.2-0.3-2.1-2.5,0.3-3.9c3.7-2.3,5.4-8.3,3.6-13
		c-0.5-1.2-1.2-1.7-3-2c-5.2-0.9-5.7-1.1-5.4-1.8c0.2-0.6-0.5-0.7-2.4-0.7l-2.7,0.1l-0.7-3.4c-0.6-2.6-0.6-3.6-0.1-4.5
		c0.4-0.7,0.9-1.2,1.1-1.2c0.2,0,0.1-0.7-0.2-1.6c-0.4-0.9-1.1-1.6-1.5-1.6c-0.4,0-0.8-0.5-0.8-1.1c-0.1-1.2-2.9-3.5-3.7-2.9
		c-0.4,0.2-0.6,0.8-0.6,1.3c0,1.1-0.1,1.1-2.6-0.3c-3.8-2.2-4.8-2.2-5.7-0.2c-0.9,2.3-3.6,5.4-5.2,6.3c-1.1,0.6-1.6,0.4-3.3-1.4
		c-2.2-2.3-3.7-2.2-3.7,0.1c0,1.4-0.1,1.5-0.9,0.8c-0.5-0.4-0.9-1.3-0.9-1.9c0-0.6-0.2-1.6-0.4-2.1c-0.6-1.7-2.7,0-2.7,2.1
		c0,1.2-0.3,1.9-0.9,1.9c-0.6,0-0.9-0.6-0.9-1.7v-1.7l-1.2,2.1c-1.5,2.4-1.5,2.5-0.2,2.7c1.6,0.3,2.7,5.5,2.7,12.1
		c0,4.3,0.2,5.9,0.9,6.5c0.5,0.4,0.9,1.4,0.9,2.2c0,0.9,0.9,3.1,2,5c1.6,2.9,1.8,3.7,1.2,4.7c-0.9,1.3-3,9.2-3.6,13.4l-0.4,2.9
		l-1.4-1.7L465,74l-2.2,1.4c-1.5,0.9-2.7,1.2-3.8,0.9c-1.6-0.4-1.6-0.3-1.6,2.8c0,3.2-0.5,3.9-1.9,2.2c-1.1-1.4-1.6-1.2-2.5,0.9
		c-0.8,2-1.9,1.9-1.9-0.1c0-1.7-1.2-2-5.1-1c-2.9,0.7-3.4,1-3.2,2.2c0.1,1-0.1,1.4-1,1.4c-1.1,0-1.4-0.7-1.9-3.9
		c-1-5.8-1.8-8.2-3.3-10.1c-1.1-1.4-1.6-1.6-3.6-1.2c-1.2,0.2-2.9,1-3.7,1.7c-1.2,1.1-1.6,1.2-2.7,0.6c-1.1-0.7-1.4-0.6-2.7,0.7
		c-1.6,1.6-2.1,4.1-0.9,4.1c0.4,0,0.6,0.9,0.6,2c0,1.5-0.6,2.5-2.9,4.6c-2.2,1.9-3,3.2-3.4,5.2c-0.2,1.4-0.2,2.6,0.1,2.6
		c1,0,0.6,2.3-0.6,3.4c-0.6,0.6-1.3,1.9-1.5,2.9c-0.5,2.3-2,3.1-6.9,3.6l-3.9,0.3l0.2,2.3l0.2,2.2l-1.7-2c-0.9-1.1-2.5-2.2-3.4-2.4
		c-1.6-0.4-1.7-0.6-1.7-3.3c-0.1-1.6-0.4-3.6-0.8-4.6c-0.9-2.1-7.9-9.4-8.6-8.9c-0.6,0.3-3.7-3.1-3.7-4.1c0-1.2-2.6-3.1-4.1-3.1
		c-0.9,0-2.4,0.6-3.2,1.3l-1.6,1.2l-1.2-2.3c-1.1-2.1-1.3-2.2-1.8-1.2c-0.6,1.1-0.7,1-2.1-0.2c-1.2-1.1-1.9-1.2-3.4-0.9
		c-1.4,0.3-2.2,0.2-2.5-0.3c-0.6-0.9-3.7,4.2-3.7,6.1c0,0.7,0.4,2.5,0.9,3.9c0.5,1.4,0.9,3.7,0.9,4.9c0,3.9,1.6,8.6,4,12.1
		c2.1,3,2.2,3.6,1.6,4.7c-0.7,1.1-0.6,1.6,0.3,2.9c0.8,1.2,1.2,1.5,1.6,0.9c0.9-1.5,5.2,6.1,6.3,11.2c0.6,2.7,0.4,3.7-0.7,7.4
		l-1.4,4.2l1.4,6.1c1.6,7.4,1.6,7.9,0.1,7.9c-1.2,0-1.9-1.1-1.9-3.2c0-0.7-0.9-2.6-2.1-4.2c-1.6-2.2-2.2-3.8-2.5-6.4
		c-0.2-2-0.8-4.2-1.3-5c-0.7-0.9-1-2.7-1-5.4c0-3.7-0.1-4-1.9-5c-1.4-0.8-2.1-1.9-3.1-5.1c-1.8-5.7-2.8-7.1-5.3-6.6
		c-1.6,0.3-2.3,0.1-3.4-1.1c-0.7-0.8-2.2-1.6-3.2-1.9l-1.8-0.3l0.1-5.8c0.1-6.4-1.1-11.7-2.2-10.6c-0.4,0.4-1.9,0.7-3.4,0.7h-2.7
		l1.6-2.7l1.6-2.8l-1.6-1.7c-0.9-0.9-1.6-2.2-1.6-2.8c0-1-0.2-1.1-1.7-0.4c-1,0.4-2.3,1.2-3.1,1.9c-1.6,1.4-3,1.5-2.4,0
		c0.2-0.6,0.7-2.3,1.1-3.7c0.6-2.4,0.6-2.8-0.5-3.6c-2-1.5-3.4-1.1-3.4,0.9c0,1.8-3.2,7-4.3,7c-0.4,0-0.4-0.7-0.1-1.9
		c0.9-2.9-0.1-4.4-2.6-3.9c-3.1,0.6-5.3,3.2-6.4,7.2l-0.9,3.5l2.1,3c1.1,1.6,1.9,3.2,1.7,3.4c-0.4,0.7-2.5-0.3-4.4-2.1
		c-1.3-1.2-1.3-1.2-1.7,0.2c-0.4,1.4-0.4,1.4-2.4-0.4c-1.8-1.6-2.4-1.7-5.4-1.4c-1.9,0.2-4.7,1-6.2,1.8c-3.3,1.6-3.1,0.8-2.2,10.7
		c0.2,3.2,0.1,5-0.7,7.2l-1.1,3l1.9,3.7c1,2.1,2.2,4.9,2.6,6.4c0.7,2.4,0.7,2.8-0.2,3.9c-0.8,0.9-1,1.7-0.7,3.4
		c0.3,1.6,0.1,2.6-0.6,3.7c-0.6,0.7-1,2.1-1,2.8c0,0.8-0.6,2-1.3,2.7l-1.3,1.3l-2.2-2.1v51.4H629.8z"/>
	<path fill="#003897" d="M145.3,171.2c0.4-0.4,0.6-0.9,0.4-1.1c-0.2-0.2-0.6,0.1-0.7,0.7C144.6,171.7,144.6,171.7,145.3,171.2z"/>
	<path fill="#003897" d="M127.6,293.3c-0.4,4.9,0.8,6.2,3.3,3.7c1.3-1.3,1.3-1.3,2.1-0.1c0.4,0.6,1.2,1.9,1.8,2.8
		c1,1.4,1.1,1.9,0.4,3.7c-0.6,1.8-0.6,2.4,0.2,3.5c0.6,0.7,0.8,2,0.6,2.7c-0.2,1.2-0.1,1.2,1.2,0.8c0.8-0.2,2.2-0.5,3.1-0.6
		c1.5-0.1,1.8-0.5,3-4.2c0.7-2.3,1.2-4.6,0.9-5.2c-0.5-1.2,0.8-2.9,2.3-2.9c1,0,1.1,0.2,0.4,1.9c-0.9,2.7-0.2,2.9,2.3,0.6
		c1.2-1.1,2.5-1.9,2.8-1.9s1.8-0.9,3.3-1.9c1.6-1.1,3.9-2.1,5.4-2.2l2.7-0.4l-2.3,2.8c-2,2.5-2.2,2.9-1.4,3.6
		c1.2,1.1,1.2,1.9-0.1,1.9c-0.6,0-2.1,0.4-3.3,0.8c-6.2,2.3-7.4,3.8-9.4,11.4c-0.9,3.6-1.1,5.1-0.6,6.1c0.4,0.6,0.8,1.1,1.1,1
		s1.2-0.6,2.1-1.1c1-0.5,2.1-0.6,2.8-0.4c0.6,0.3,1.6,0.6,2.1,0.6c0.6,0.1,0.9,0.7,0.9,1.6c0,1.6-1.4,2.2-5,2.5
		c-1.4,0.1-2.5,0.8-4.2,2.9c-1.3,1.6-2.4,3.1-2.4,3.3s1,1,2.2,1.6c2,1.1,2.2,1.1,4.2,0.2c2.3-1.1,11-8.2,11.9-9.6
		c0.2-0.5,1.9-1.6,3.7-2.5c2.9-1.4,3.5-1.6,5.5-0.9c1.3,0.4,3.5,0.7,4.9,0.7s3.9,0.3,5.7,0.7l3.1,0.7l-2.5,2.5
		c-2.4,2.4-2.6,2.4-5.6,2.1c-1.7-0.2-3.8-0.8-4.6-1.3c-1.2-0.8-1.6-0.7-3.5,0.4c-2.1,1.3-2.2,1.3-0.7,1.9c2.6,1.2,1.4,2.1-2.3,1.7
		c-2.5-0.2-5.1,1.2-6.4,3.6c-0.7,1.2-2.2,3.8-3.4,5.7c-2.4,3.9-2.6,4.7-0.9,3.6c1.6-1,3.4,0.1,3.4,1.9c0,1,0.4,1.3,1.6,1.4
		c0.9,0,2.2,0.2,2.9,0.5c1.2,0.5,1.2,0.5-0.2,1.2c-1.8,1-1.7,1.9,0.2,1.9c2.7,0,1.7,1.7-1.9,3.4c-1.9,0.9-3.4,1.8-3.4,1.9
		c0,0.1,0.4,0.7,1,1.2c0.9,0.9,0.9,1-0.2,1c-0.7,0-1.7-0.7-2.2-1.6c-0.9-1.3-1.2-1.4-2.7-0.9c-1.2,0.4-1.7,0.4-2.1-0.1
		c-0.2-0.4-0.9-0.6-1.6-0.3c-1,0.4-0.8,0.7,1.3,2.6c2.1,1.7,2.2,2.1,1.2,2.2c-1,0-1.1,0.1-0.4,0.6c1.4,0.9-0.3,2.6-2.1,2.2
		c-1.7-0.4-2.5,0.6-1.2,1.6c1.4,1.1,1.1,2.2-0.7,3.7c-1.1,0.9-2.6,1.3-4.2,1.3c-2.1,0-3,0.4-4.9,2.3l-2.3,2.2l-2.1-1.1
		c-2.1-1.1-2.1-1.1-5.4,0.5c-2.4,1.2-3.5,2.2-4.2,3.9c-1,2.3-0.9,2.3-6.1,1.1c-1.2-0.3-1.9-0.1-2.3,0.4c-0.9,1.3-1.6-0.2-2.1-4.4
		c-0.4-2.9-0.9-4-3.1-6.6c-3.6-4.1-4.7-3.7-4.7,1.6c0,2.9-0.3,4.4-1.2,5.8c-0.7,1-1.2,2.2-1.2,2.6c0,1.4,1.8,2.9,4.1,3.3
		c2.9,0.4,3.5,1.7,1.2,2.7c-0.9,0.4-2.1,1.6-2.5,2.6c-0.5,1.1-1.2,2.4-1.6,2.9c-0.6,0.8-0.5,1.4,0.6,2.9c1.2,1.8,1.3,2.1,0.4,3.8
		c-0.5,1.1-0.9,2.2-0.9,2.7c0,1.6,1.9,1.7,3.6,0.4c1.5-1.1,2-1.1,4.4-0.5c2.4,0.6,2.9,0.6,3.5-0.3c0.4-0.6,1.1-1.1,1.6-1.1
		c0.5-0.1,1.6-0.4,2.4-0.9c1.1-0.6,1.8-0.6,2.3-0.2c0.6,0.4,1.2,0.1,2.4-1.3c1.6-1.9,1.7-1.9,3.1-1c0.8,0.5,1.9,0.9,2.4,0.9
		c0.5,0,1.7,0.5,2.8,1.1c1.6,0.9,2.2,1,3.9,0.4c1.6-0.6,2.2-0.6,3.4,0.2c1.1,0.7,2,0.7,4.7,0.2c5.6-1.1,9.6-2.5,10.6-3.7
		c0.7-0.7,2.3-1.3,4.9-1.6c3.6-0.4,3.8-0.3,3.8,0.9c0,4.1,2.4,4.2,7.3,0.3c2-1.6,3.9-3.1,4.4-3.4c0.4-0.3,2.1-1.1,3.9-1.7l3.2-1.1
		l1.9,1.5l0.9,0.8v-93.6H127.6z"/>
	<path fill="#FFFFFF" d="M610.8,213.3c-0.4-0.1-0.5-0.3-0.5-0.6c0-1.6,7.4-3.6,13-3.6c6.2,0,8.3-0.7,10.2-3.6
		c2.7-4.2,2.6-4.6-0.9-6.2c-2.6-1.1-3.4-1.2-4.1-0.6c-0.5,0.4-2.8,0.8-5.4,0.8c-3.5,0-5.2,0.4-8.1,1.7c-2,0.9-3.8,1.6-4,1.4
		c-0.7-0.7,0.6-3.4,1.9-3.9c0.8-0.2,2.5-1.2,3.9-2.1c1.7-1.1,3.6-1.7,6.2-1.9c5.1-0.4,5.2-1.5,0.5-3.6c-2.1-0.9-3.7-1.9-3.6-2.3
		c0.1-0.3,2.1-0.6,4.4-0.6c3.4-0.1,4.3-0.2,5.6-1.4H293.3v-51.4l-0.6-0.6l-2.8-2.7l0.4,2.3l0.4,2.2l-3.4-1.2
		c-3.7-1.4-4.8-2.8-4.8-6.6c0-1.2-0.8-4.6-1.7-7.3c-1.6-4.6-1.9-5.1-4.5-6.6c-1.6-0.9-3.4-1.6-4-1.6c-0.8,0-1.4-0.7-1.9-2.6
		c-0.4-1.4-1.6-3.6-2.5-4.9c-0.6-0.8-1-1.4-1.2-1.8v109.3H610.8z"/>
	<path fill="#FFFFFF" d="M124.3,266.7c0,0.3,0,0.6-0.1,1c-0.4,1.8-0.3,1.9,1.5,1.9c2.9,0,3.9,0.6,3.9,2.2c0,1.9-2.4,6.7-3.1,6.2
		c-0.3-0.2-0.7,0.1-0.9,0.7c-0.7,1.7-0.4,2.2,0.8,1.6c1-0.6,1.2-0.4,1.6,0.9c0.2,0.9,0.1,2.1-0.2,2.7c-0.4,0.9-0.4,1.3,0.2,1.5
		c0.4,0.2,0.1,0.8-1,1.7l-1.7,1.4l1.3,1.4c0.7,0.8,1.3,1.9,1.2,2.6c0,0.3-0.1,0.6-0.1,0.8h59.1v93.6l0.9,0.8l0.2-2
		c0.3-3.1,2.6-4.4,8.2-4.8c2.7-0.2,4.7-0.1,4.7,0.3c0,1.3-1.7,2.1-4.6,2.1c-2.7,0-3,0.1-2.6,1.1c0.2,0.6,0.5,2.1,0.6,3.2
		c0.1,1.9,0.6,2.4,4.4,4.8c2.4,1.5,5.4,3.1,6.8,3.4c3.7,0.9,5.2,1.7,7.9,3.8c0,0,0,0,0,0V266.7H124.3z"/>
	<path fill="#FFFFFF" d="M587.8,291.5c0-0.6-1.1-2.2-2.6-3.5c-1.9-1.8-2.4-2.5-1.7-2.9c1.6-1.1,5.7-0.6,8.2,1c2,1.2,2.6,1.3,3.6,0.7
		c1.7-1.1,1.4-1.9-1.5-3.2c-2.1-1-3.1-2.1-4.5-4.8c-1.1-2-2.7-4.4-3.7-5.5c-1.5-1.6-1.7-2.1-1.1-3.1s0.4-1.4-0.6-2.5
		c-0.6-0.6-0.8-0.9-0.8-1.1H266.7v167.1c2.2,0,4.6-0.2,7.4-0.6c4.2-0.6,4.4-0.6,5.8,0.9c1.7,1.8,5.9,4.1,7.6,4.1
		c0.7,0,1.6-0.4,2-0.9c1-1.2,1.9-1.2,1.9,0.1c0,0.9,0.2,0.8,1.5-0.4c0.2-0.2,0.3-0.3,0.5-0.4V293.3h287.6c0,0,0.1,0,0.1,0h5.9
		C587.4,292.8,587.8,292.2,587.8,291.5z"/>
	<path fill="#FFFFFF" d="M213.3,153.2l-3.5,3.7l-1.8,7.9l-1.8,7.9l2.4,8.1c1.2,4.4,2.4,8.4,2.6,9c0.3,1.1-1.7,2-3.3,1.4
		c-1.2-0.5-3-4.1-4.3-8.9c-0.6-2.2-1.4-4.6-1.7-5.3c-1.2-2.4-1.6,1.5-0.6,8.7c0.7,6.2,0.7,7.1-0.2,9.1c-0.6,1.2-0.8,2.9-0.6,3.6
		c0.2,0.7,0.1,1.8-0.3,2.4c-0.6,0.9-0.4,2.7,0.9,8.2c0.4,1.7,0.7,3.2,0.9,4.3h11.4V153.2z"/>
	<path fill="#FFFFFF" d="M592.4,276.6c0.2,0.6,1.3,1.7,2.4,2.4c3.5,2.2,11.5,0.7,15.3-2.8l2.2-2l-2.9-2.7c-1.6-1.6-2.9-3.3-2.9-4
		c0-0.4,0.1-0.6,0.2-0.8h-22.7C586.2,267.9,591.4,274,592.4,276.6z"/>
	<path fill="#FFFFFF" d="M610.6,266.7h-1.7C609.6,266.8,610.2,266.8,610.6,266.7z"/>
	<path fill="#FFFFFF" d="M187.3,124.3c1.1-4,1.2-4.7-0.6-5.3v6.2C187,124.9,187.2,124.6,187.3,124.3z"/>
	<path fill="#FFFFFF" d="M187.5,159.9c-0.1-2.4-0.2-3.2-0.8-3.5v8.9C187.6,163.5,187.7,162.1,187.5,159.9z"/>
	<path fill="#FFFFFF" d="M187.9,115c1.3-2.7,1.3-2.9-0.6-5.2c-0.2-0.2-0.4-0.4-0.6-0.6v7.5C187.1,116.4,187.5,115.9,187.9,115z"/>
	<path fill="#FFFFFF" d="M195.3,200.4c-1.9-4.2-2.1-4.9-1.5-7.2c0.4-1.9,0.4-3.7-0.1-6.6c-0.4-2.2-0.7-4.9-0.7-5.9
		c-0.1-1.1-0.6-2.3-1.4-2.9c-0.7-0.6-1.7-2-2.1-3.1c-0.5-1.1-0.9-2.1-1-2.2c0-0.1-0.8,0.3-1.8,0.9v13.4h-37.2
		c-0.3,0.2-0.6,0.4-0.9,0.5c-0.9,0.4-2.3,1.2-3.1,1.8c-0.8,0.7-2.1,1.1-2.7,0.9c-1.4-0.4-3.2,1.9-2.7,3.5c0.2,0.9-0.2,1.3-1.7,1.9
		c-1.1,0.4-2.5,0.7-3.1,0.7c-0.6,0-1.9,0.7-3,1.6c-1.4,1.2-2.4,1.5-3.5,1.2c-0.9-0.2-1.6-0.1-1.6,0.2s-0.8,1.4-1.9,2.4
		c-1,1.1-1.9,2.3-1.9,2.9c0,0.5-0.6,1-1.4,1.1c-0.7,0.1-1.9,1.1-2.6,2.2l-1.2,2.1l1.7,1.8l1.7,1.7h34.8c0.2-0.4,0.4-0.8,0.5-1.2
		c0.5-1.9,0.8-2.1,2.9-2.3c2.8-0.2,4.5,1.2,4.8,3.5h35.1C199.1,209.6,197.8,205.7,195.3,200.4z"/>
	<path fill="#FFFFFF" d="M34.7,268.2c1.4,2.9,2.4,4.1,4.6,5.4l2.8,1.7l3.1-1.2c1.7-0.6,3.7-1.1,4.7-0.9c1.9,0.4,2.6-0.4,3-4.2
		c0.1-1.1,0.2-1.8,0.5-2.3H33.9C34.2,267.2,34.5,267.7,34.7,268.2z"/>
	<path fill="#FFFFFF" d="M112.1,268.4c0.3,0,1.2-0.7,2.1-1.7h-4C111.1,267.6,111.8,268.4,112.1,268.4z"/>
	<path fill="#FFFFFF" d="M266.9,103c0.5-0.3,0.5-1-0.2-2.4v2.5C266.7,103.1,266.8,103,266.9,103z"/>
	<path fill="#FFFFFF" d="M627.6,212.8c-3.2,0-7.1,0-8.6-0.1c-1.6-0.1-4.1,0.1-5.7,0.4c-0.6,0.1-1,0.1-1.4,0.2h21.4
		C632.9,212.8,631.7,212.8,627.6,212.8z"/>
	<path fill="#D72828" d="M583,266.7c0-0.1,0.2-0.2,0.5-0.2c0.1,0,0.3,0.1,0.6,0.2h22.7c0.3-0.2,0.8-0.2,2,0c0.1,0,0.1,0,0.2,0h1.7
		c0.3-0.1,0.5-0.1,0.6-0.3c0.2-0.3,1.2-0.4,2.2-0.2c1.1,0.2,3.1,0,4.4-0.4l2.6-0.7l-1.9-0.9c-2.3-1.1-4.3-3.1-3.7-3.7
		c0.2-0.2,2,0,3.9,0.4c3.3,0.8,3.5,0.7,5-0.6c0.9-0.8,1.6-2.1,1.6-2.9c0-1.9-4-4.2-9.2-5.4c-4.6-1.1-7.1-2.5-7.1-4.2
		c0-0.7,0.1-1.2,0.2-1.2c0.1,0,1.5,0.4,3.2,0.9c1.7,0.5,4.2,0.9,5.6,0.9c1.5,0,3.1,0.5,4.2,1.3c1.6,1.1,2.4,1.2,4.7,0.9
		c3.5-0.5,3.6-1.7,0.1-2.7c-1.9-0.6-3.9-2.1-7-5.2c-3.9-3.9-4.7-4.4-7.8-5c-1.9-0.4-5.6-0.8-8.1-0.9c-3-0.1-4.9-0.5-5.6-1.1
		c-1.5-1.5-0.4-2.2,2.6-1.5c2.2,0.4,3.2,0.4,4.7-0.4c1-0.6,2.7-1,3.8-1h1.9l-1.4-2.4c-0.7-1.4-1.2-2.6-1.1-2.9
		c0.2-0.2,1.8,0.6,3.6,1.7c1.8,1.1,4.4,2.7,5.8,3.6c1.4,0.9,3.4,2.7,4.4,4.1c2,2.7,3.2,3.2,7.1,3.4c3.4,0.1,4.9-1.1,4.4-3.5
		c-0.3-1.7-0.1-2.2,2.7-4.5c1.6-1.3,2.5-2.3,2.9-3.2v-1.5c-0.2-0.4-0.5-0.7-1-1c-1.1-0.7-1.2-1.1-0.6-3.1c0.5-1.5,0.5-2.6,0.1-3.4
		c-0.5-0.9-0.9-0.4-2.8,2.9c-2.3,4.2-4,5.6-3.5,2.8c0.3-1.4,0.1-1.6-1.4-1.6c-2.1,0-2.2-0.4-0.7-1.6c1-0.8,1-0.8,0-0.9
		c-0.6,0-1.1-0.3-1.1-0.6c0-0.4-0.6-0.6-1.3-0.6c-2.3,0-1.1-2.1,1.6-2.6c3.1-0.7,4.1-1.5,4.1-3.4c0-0.4,0-0.7-0.1-0.9h-21.4
		c-0.5,0-0.9,0-1.1,0H266.7V104c-0.2-0.4-0.1-0.6,0-0.8v-2.5c-0.5-1-1.4-2.5-2.8-4.6c-1.1-1.6-1.9-3.4-1.9-4.2
		c0-0.7-0.2-1.6-0.6-1.7c-0.3-0.2-0.6-1-0.6-1.8c0-0.7-0.8-2.2-1.9-3.2c-1-1-1.9-2.2-1.9-2.6c0-1.6-3.1-1.7-5.1-0.2
		c-1.1,0.7-3,1.6-4.3,1.7c-1.6,0.2-2.9,0.9-3.7,1.9c-1,1.2-1.4,1.4-2.2,0.7c-1.2-1.1-2.4-0.2-1.6,1.2c0.4,0.7,0.3,2.1-0.3,4.2
		c-0.9,2.9-0.9,3.3,0.3,5.8c0.7,1.5,1.2,3.6,1.2,4.7c0,1.1,1,5.1,2.2,9c1.2,3.9,2.2,8.2,2.1,9.6c0,1.4,0.7,4.9,1.6,7.8
		c1.9,6.2,2,7.9,0.4,10.6c-0.7,1.1-1.2,3.1-1.2,4.4c-0.1,3.6-1.2,7.7-2.8,10.2c-1.1,1.7-1.4,2.8-1.2,4.2c0.5,2.3-0.9,4.6-1.7,2.7
		c-0.2-0.6-0.5-2.1-0.5-3.2c-0.1-1.7-0.3-2-1.6-2c-2.6,0-2.9,2.2-0.8,4.5c0.9,1.1,1.7,2.2,1.7,2.6c0,1.2-3.6,6.6-4.7,7.1
		c-1.4,0.5-5.1-3.4-5.9-6.2c-0.7-2.7-1.5-3.1-2.1-1c-0.2,1.1-0.5,1.2-1.1,0.6c-0.6-0.6-0.6-2.2,0-7.5c1-9,0.9-10.4-0.4-11.5
		c-1.1-0.9-1.2-0.9-3,0.1c-1,0.6-4.2,3.6-7.2,6.7l-1.8,1.9v60.1h-11.4c0.6,3.5,0.4,4.5-0.8,4.5c-0.5,0-1-1.2-1.2-3.3
		c0-0.4-0.1-0.8-0.2-1.2h-35.1c0.2,1.8-0.4,4.1-1.9,6.7c-1,1.7-1.9,3.6-1.9,4.2s-0.7,1.9-1.6,2.9l-1.5,1.8l1.5,0.7
		c1.9,0.9,2,2.7,0.1,4.8c-1.2,1.4-1.6,1.6-3.4,0.9c-1.4-0.5-2.3-0.5-3.2-0.1c-0.9,0.5-2.2,0.4-5.2-0.2c-4.8-1.1-7.2-1.2-7.6-0.2
		c-0.2,0.6-0.6,0.6-1.7,0.1c-0.8-0.4-3.1-1.2-5-1.7s-3.9-1.4-4.3-1.9c-0.6-0.8-1-0.7-2.7,0.1c-1.3,0.7-3.2,1.1-6.1,1
		c-4.1-0.1-4.2,0-6.1,2.1c-2.2,2.6-2.2,2.7-0.6,5.6c1.7,2.8,1.1,3.6-1.2,1.4c-1-0.9-2.1-1.7-2.4-1.7c-0.4,0-1.3-0.9-2.1-1.9
		c-0.8-1.1-1.7-1.7-2.2-1.6c-1.2,0.4-1.1-1.1,0.1-2.1c1-0.8,1.3-3.7,0.4-3.7c-0.3,0-0.9,0.4-1.3,0.9c-0.5,0.6-1.3,0.8-2.1,0.6
		c-0.7-0.2-1.4-0.1-1.7,0.4c-0.9,1.4-0.6,1.8,1,1.8c3.1,0,1.5,1.9-2.9,3.4c-1.5,0.6-3.3,1.6-4.1,2.2c-1.2,1.1-1.4,1.1-2.1,0.2
		c-1.2-1.4-2.9-1.1-4.1,0.6c-1,1.6-1,1.7,0.4,3.1c1.4,1.5,1.4,1.6,0.4,3.7c-1.2,2.7-2.6,2.9-2.2,0.4c0.2-1.2,0-1.7-0.5-1.5
		c-0.4,0.1-0.9-0.4-1.1-1.1c-0.6-2.4-1.7-0.7-1.7,2.6c0,3.6-0.8,3.9-2.6,0.9c-0.7-1.2-1.6-2.2-1.9-2.2s0.1-1.4,1-3.1
		c2.1-4.1,2-4.6-0.6-5.4c-3.2-1-3.9,0.1-2.8,4.4c1.5,6.4-0.4,8.9-5.2,6.5c-2.6-1.2-2.7-1.5-2.4-3.1c0.2-1.3,0.1-1.7-0.6-1.7
		c-0.6,0-0.8,0.4-0.6,1.2c0.2,1.1,0,1.2-3.4,0.9c-3.6-0.3-3.6-0.2-4.9,1.7c-0.7,1.2-2.1,2.3-3.3,2.7c-1.1,0.3-2.4,1.2-3,2
		c-1.7,2.4-7.4,1.3-11-2.2c-1.6-1.6-1.9-1.6-4.2-0.9c-1.5,0.4-3.5,1.7-4.9,3.2c-1.2,1.4-2.8,2.5-3.4,2.5c-1.3,0-1.3,0.1-0.4,3.7
		c0.4,1.6,1.2,3.4,1.9,4.1c0.5,0.6,1.4,2,2.3,3.6h19.4c0.4-0.7,1-1.1,2.2-1.7c2.4-1.2,2.4-1.2,5.1,0.2c1.6,0.7,3.1,1.3,3.6,1.3
		c0.4,0,1.4-1.1,2.2-2.5c1.3-2.3,1.6-2.5,4.1-2.5c2.8,0,14.1,2.9,15.1,3.8c0.9,0.9,2.6,0.7,3.4-0.4c0.6-0.7,1-0.7,2.4-0.1
		c2.2,1.1,10.4,1.1,13.1-0.1c1.4-0.6,2.3-0.6,2.4-0.2s0.6,0.6,1,0.4c0.4-0.1,1.4,0.6,2.1,1.6c0.1,0.1,0.1,0.1,0.2,0.2h4
		c0.1-0.1,0.2-0.2,0.3-0.3c1.5-1.7,1.9-1.9,2.7-1.2c0.7,0.6,1.1,0.6,1.7-0.2c0.6-0.7,1-0.8,1.6-0.2c0.7,0.6,1.1,0.6,1.7,0
		c1.1-0.9,2,0.2,2,2h89v132.9c3.2,2.6,4.8,2.1,7.4-2.1c1.9-3.1,1.9-3.3,1-4.9c-1.2-2-1.3-3.7-0.2-4.8c1.1-1.1,1.4-0.9,2.2,0.8
		c1.2,2.7,0.9,9.6-0.5,11.9l-1.3,2l3.6,3.5c3.9,3.7,4.6,4.1,4.6,2.5c0-1.4,2.1-4.2,4.1-5.5c2.2-1.4,1.9-0.4-0.7,3.1
		c-2,2.7-2.1,3.1-1.5,4.7c0.4,1,3.2,4.2,6.3,7.2c3.1,2.9,5.6,5.6,5.6,5.9c0,1,8.1,6.3,12.4,8.2c3.1,1.3,6.4,1.9,10.5,1.8V266.7H583z
		"/>
	<path fill="#D72828" d="M121.6,213.3l-1.9,1.1c-1,0.6-1.7,1.3-1.6,1.6c0.6,0.8,3.3,0.6,4.9-0.5c1.4-0.9,1.6-0.9,4.2,1.2
		c3.6,2.8,5,3.6,7.4,3.6c1.1,0,3.3,0.7,5.1,1.6c3.1,1.6,3.2,1.6,6.4,0.5c3.5-1.2,8.7-5.8,10.4-9.1L121.6,213.3L121.6,213.3z"/>
</g>
</svg>
