<?xml version="1.0" encoding="utf-8"?>
<!-- Generator: Adobe Illustrator 17.1.0, SVG Export Plug-In . SVG Version: 6.00 Build 0)  -->
<!DOCTYPE svg PUBLIC "-//W3C//DTD SVG 1.1//EN" "http://www.w3.org/Graphics/SVG/1.1/DTD/svg11.dtd">
<svg version="1.1" id="flag-icon-css-it" xmlns="http://www.w3.org/2000/svg" xmlns:xlink="http://www.w3.org/1999/xlink" x="0px"
	 y="0px" viewBox="0 0 640 480" enable-background="new 0 0 640 480" xml:space="preserve">
<g>
	<path fill="none" d="M311.7,143.2c-0.7,0.4-1,0.4-1.4,0c-0.8-0.8-1.2-0.7-2,0.5c-1.4,1.9-1,3,1.3,3.8c2,0.7,2.1,0.7,2.8-0.4
		c0.8-1.2,0.9-2.5,0.5-3.7C312.7,142.8,312.5,142.7,311.7,143.2z"/>
	<path fill="#FFFFFF" d="M422.3,258.6c-2.7-1.7-3.5-2.9-3.1-4.3c0.2-0.5,2.3-2.4,4.7-4.2c1.1-0.9,2.1-1.6,2.9-2.3V239l-0.2-0.2
		l-4.4,1c-4.2,0.9-4.5,1-7,0.2c-2.4-0.7-3-0.7-7.4,0c-4.3,0.7-4.8,0.7-6.1,0c-0.8-0.4-2.8-0.8-4.4-1c-2.8-0.2-3.1-0.4-5.9-2.9
		c-2.1-2-3.7-2.9-5.9-3.7c-3.2-1.1-5.1-2.5-5.1-3.8c0-0.6-0.7-1.2-2-1.7c-1.4-0.6-3.5-2.5-6.4-5.7c-2.4-2.7-5.5-5.5-6.8-6.3
		c-3.3-2.1-4.7-3.9-6.9-8.8c-2.7-5.8-4.3-11-4.7-15.1c-0.4-4.8-1.3-7.5-4.5-14.6c-2.4-5.1-2.9-6.6-3.1-9.3l-0.2-3.1l-5.9-3.9
		c-4.6-3-7.7-5.7-14.3-11.9c-4.6-4.4-10.1-9.5-12.3-11.4c-2.1-1.8-4.3-3.9-4.8-4.7c-1.2-1.9-3.8-12-3.8-14.4c0-4,0-5.7,0-8.1
		c-0.1-3.3,1.1-4.9,3.5-4.9c1.1,0,1.7-0.1,1.7-0.6c0-1.6,1.1-2.9,2.3-2.8c1.1,0.1,1.2-0.1,1.6-2.6c0.4-2.5,0.3-2.8-0.6-3.7
		c-0.8-0.8-1.2-0.9-2.2-0.4c-1.8,0.8-2.1,0.7-2.1-1c0-3-0.7-7.5-0.9-6.5l-0.3,1.1l-1.5-1.2c-1.9-1.5-3-3.6-2.7-4.9
		c0.3-0.9,0.7-0.9,2.9-0.1c0.4,0.2,0.6-0.3,0.6-1.4c0-3.2,2.4-7.3,5.4-9.2c1.3-0.8,1.7-0.9,2.3-0.4c0.5,0.4,0.8,0.4,1.2,0
		c0.3-0.3,1.2-0.6,1.9-0.6c1.2,0,1.3,0.1,1.2,1.3c-0.1,0.9-0.5,1.4-1.3,1.6c-0.8,0.3-0.7,0.3,0.7,0.1c1-0.1,3.2-0.9,4.9-1.7
		c1.9-0.9,4-1.6,5.4-1.7c5.1-0.3,5.4-0.4,6.1-1.4c0.7-1,0.7-1-0.4-1c-1.4,0-1.5-0.4-0.2-2.5c0.6-1.1,1.2-1.5,1.6-1.4
		c0.4,0.1,1-0.1,1.5-0.5c0.7-0.7,1.2-0.6,4.5,0.4c3.9,1.1,4.7,1.9,3.4,3.4c-0.6,0.7-0.5,0.7,0.5,0.2c0.6-0.3,1.4-1.2,1.9-2
		c1-1.8,1.9-1.7,4.3,0.3c2.6,2.2,3.7,3.6,3.7,4.9c0,0.8,0.2,1,1.3,0.8c1-0.1,1.3-0.4,1.4-1.4c0.2-1.7-0.4-2.4-4.2-5.7
		c-1.8-1.5-3.2-3.1-3.2-3.4c0-0.4,0.4-1.4,0.9-2.1c1.4-2,1.2-3.4-0.3-4c-2.1-0.7-3.5-1.6-3.7-2.2c-0.1-0.3,1-1.9,2.5-3.4
		c1.4-1.5,2.6-2.9,2.5-2.9c-0.1-0.1-2.2-0.7-4.6-1.5c-2.4-0.7-4.7-1.5-5-1.8c-0.4-0.3-0.6-1.4-0.5-3.1l0.1-2.6l3.7-2
		c4.1-2.2,9.7-5.8,9.5-6c-0.1-0.1-3.9-0.8-8.5-1.6c-4.7-0.8-9.5-1.7-10.9-2.1c-1.4-0.4-5.2-1.4-8.6-2.3c-6.7-1.8-11.4-3.8-12.8-5.6
		c-1.5-1.9-2-4.7-1.4-7c0.5-1.9,0.4-2.1-0.6-3.4c-0.6-0.7-1.3-2.2-1.4-3.2c-0.4-2.5-1.2-2.5-6.5,0.2c-2.3,1.2-4.7,2.1-5.4,2.1
		s-2.7-0.6-4.5-1.3c-2.6-1-4.1-1.3-7.4-1.3c-5.9,0-7.1,0.3-10.3,3c-3.5,3-5,3.7-8.8,3.7c-2.5,0-3.5-0.3-6.2-1.6
		c-4.3-2.3-5.1-2-5.4,1.7c-0.1,1.9-0.6,3.4-1.2,4.2c-1.3,1.8-1.2,2.5,0.4,3.7c2,1.4,1.9,2.6-0.3,3c-3.1,0.5-4.1,0.3-5.5-0.9
		c-1.8-1.6-3.1-1.5-5,0.6c-2.3,2.5-2.4,3-0.8,5.1c1.4,1.8,1.7,3.1,1,3.6c-0.9,0.6-0.8,2.2,0,3.3c1.1,1.4,0.8,2.9-0.8,3.6
		c-1,0.5-1.4,0.2-3.6-1.7c-1.4-1.2-2.7-2.8-3.1-3.5c-0.9-2-2.2-2.1-6.2-0.4c-2,0.8-4.1,1.4-4.8,1.3c-1.9-0.2-2.9-2-3.3-5.6
		c-0.3-3.5-1.4-5.5-3.1-5.5c-0.9,0-1.1,0.4-1.6,3.5c-0.7,4.8-2.2,7.9-5.2,10.7c-0.2,0.2-0.4,0.4-0.7,0.6v87.5
		c0.2,0.1,0.4,0.2,0.6,0.3c0.9,0.4,3.6,2.4,6.1,4.3c2.5,1.9,4.8,3.7,5.1,4c0.4,0.3,0.8,0.2,1.3-0.4c0.6-0.9,0.7-0.8,1.7,0.1
		c0.7,0.6,1.5,1.1,2,1.1c1.1,0,4.4,3.2,4.4,4.2c0,0.4,0.5,1.4,1.1,2.2c1.4,1.8,1.6,3,2.3,11.9c0.6,6.8,0.7,7.2,2.7,11.9
		c1.2,2.7,2.6,5.7,3.1,6.6c1.2,2.1,1.2,3.4,0,9.3s-1.2,5.8,0.2,4.8c1.5-1,2.4-0.9,4.8,0.4c1.5,0.9,2,1.5,2,2.3
		c0,0.6-0.2,1.3-0.5,1.4c-0.2,0.1-0.5,1.1-0.5,2.1c0,1-0.2,2-0.5,2.1c-0.7,0.5,0.9,2.1,2.2,2.1c3,0,8,3.9,9.1,7.1
		c0.3,0.8,1,2.1,1.6,2.9c0.7,0.9,1,1.6,0.8,2.3c-0.4,1.4-1.6,2.6-2.6,2.6c-1.1,0-1.1,0.6,0.1,1.9l0.9,1.1l0.9-1.1
		c0.7-0.9,1.2-1.1,2.4-0.8c7.1,1.2,12.9,6.4,17.8,16c1,2,1.4,2.5,2.4,2.5c0.8,0,1.6,0.5,2.4,1.5c0.7,0.8,2.7,2.9,4.3,4.6
		c3.9,3.9,4.1,4.2,5.1,7.1c0.7,2.1,1.1,2.6,2.9,3.6c2.7,1.5,7.1,6.4,9,10.1c1.3,2.5,1.6,2.7,3,2.9c0.9,0.1,2,0.6,2.5,1
		c0.5,0.5,2,1.3,3.4,1.9c1.8,0.8,2.8,1.6,3.9,3.2c0.7,1.2,1.4,2.5,1.4,3c0,1.3,1.7,1.1,3.6-0.4c0.9-0.7,2.6-1.4,3.7-1.6
		c2-0.4,2.2-0.3,4.8,1.7c1.5,1.2,3,2.1,3.2,2.1c0.2,0,1.2-0.4,2.1-0.9c1.4-0.7,2.1-0.8,3.6-0.5c1,0.2,2,0.3,2.2,0.2
		c1.5-0.9,9.3,17.5,9.3,21.8c0,2.1,0.7,2.3,1.2,0.3c0.4-1.6,0.6-1.7,1.7-0.6c0.8,0.7,1,0.7,2.3,0c1.7-1,2.3-0.8,4.4,1.8
		c0.9,1.1,2.2,2.2,2.8,2.3c2.1,0.6,1.8,2.2-1.2,5.2c-1.1,1.1-1.9,2.1-1.8,2.2c0.1,0,2.2-0.6,4.8-1.4s6.2-1.7,8.2-1.9l3.5-0.3
		l1.7,2.7c4.8,7.7,5.3,9.9,3.2,13.7l-1.4,2.7l1.7,0.3c1,0.2,2,0.8,2.6,1.6c0.7,1,1.2,1.2,1.6,0.8c0.8-0.7,4.7,2.6,6,4.9
		c0.5,1,1.2,1.6,1.5,1.4c0.3-0.1,0.6,0,0.6,0.2s0.5,0.8,1.2,1.2c1.2,0.7,1.3,0.7,3.4-1.1c3.1-2.6,3.1-2.6,5-1.8c2.3,1,4,2.4,5.5,4.6
		c1.1,1.6,1.3,2.4,1.3,5c0,3.5,0.9,6.5,3.4,11.6c1.1,2.2,2.1,3.6,2.9,3.9c2.4,1.1,3.9,6.4,3.9,13.6v4.5l1.3,2.5V262
		C425.3,260.7,423.4,259.3,422.3,258.6z M312.4,147c-0.7,1.1-0.7,1.1-2.8,0.4c-2.3-0.7-2.7-1.9-1.3-3.8c0.8-1.2,1.2-1.3,2-0.5
		c0.5,0.5,0.8,0.5,1.4,0c0.7-0.5,0.9-0.4,1.2,0.1C313.4,144.5,313.2,145.8,312.4,147z"/>
	<path fill="#FFFFFF" d="M293.4,423.6c0.1,0.3,0.4,1.4,0.7,2.6c0.4,1.6,0.8,2.1,2,2.6c1.2,0.5,1.7,1.1,2.1,2.4
		c0.7,2.1,2.1,2.7,4.8,2.1c1.1-0.2,3-0.5,4.4-0.5c2.3,0,2.5,0.1,4,2c1.3,1.7,1.9,2.2,3.8,2.6c2.5,0.6,5,1.7,5,2.3c0,0.7,5.1,6,6.7,7
		c0.8,0.6,2.1,1,2.8,1c1,0,1.9,0.7,3.9,2.8c2.7,3,4.5,4.1,6.1,4.1c0.6,0,1.6,0.7,2.5,1.7c1.4,1.7,1.6,1.7,3,1.2
		c1.1-0.4,1.8-0.4,2.6,0c0.8,0.4,1.4,0.4,2.3,0c1.1-0.5,1.6-0.4,4.3,0.9c4.1,1.9,6,3.4,6.3,5c0.2,0.7,1,2,1.8,2.9
		c0.8,0.9,1.9,2.7,2.5,4.1c1,2.2,1.3,2.5,3.6,3.4c4.1,1.5,6.1,1.9,11.9,2.3l5.4,0.3l0.1,1.3c0.1,1.2,0.2,1.2,1.3,0.7
		c1.1-0.5,1.1-0.7,0.8-2.7c-0.2-1.2-0.3-2.8-0.3-3.6c0.1-3.2,4.5-9,6.9-9c0.9,0,0.9,0,0-0.7c-0.8-0.7-0.8-0.8-0.2-1.3
		c0.7-0.4,0.7-0.7-0.6-2.3c-0.7-1-1.2-2-1.1-2.2c0.1-0.2-0.2-0.5-0.7-0.7c-0.5-0.1-1.1-0.7-1.4-1.1c-0.3-0.7-0.1-1,1.2-1.6
		c1.4-0.7,1.6-0.9,1.1-1.5c-0.3-0.4-1.6-1.2-2.8-1.8c-2-1-2.2-1.4-2.7-3.5c-0.9-4.1-0.7-6,0.8-7.9c1.6-2,2.5-4.1,3.3-7.3
		c0.3-1.3,1.3-3.3,2.3-4.7c1-1.3,2.9-4.3,4.2-6.6c1.4-2.4,3.4-5.5,4.7-7c1.3-1.5,2.3-3,2.3-3.4c0-0.4,0.6-1.5,1.2-2.5
		c0.7-1,1.1-1.9,1-1.9c-0.6-0.5-3.1-1-3.6-0.8c-0.4,0.1-1.7,0.9-2.8,1.7c-3.3,2.3-4,2.4-6.4,0.6l-2.1-1.5l0.2,1.5
		c0.2,1.3,0,1.7-1.8,3.3c-1.1,1-2.4,1.9-2.8,1.9c-0.4,0-1.9-0.8-3.3-1.7c-2.3-1.6-2.6-1.7-4-1.2c-0.8,0.3-2.4,0.7-3.6,0.8
		c-1.2,0.2-2.7,0.9-3.7,1.7c-2.3,1.9-5,2.7-10.7,3.3c-6,0.6-6.1,0.6-9.6,0c-3.9-0.7-7.1-0.4-10,1.1c-2,1.1-2.8,1.2-4.5,0.9
		c-2.6-0.4-4.7-2-5.8-4.6l-0.8-1.9h-3.2c-2.5,0-3.2-0.1-3.3-0.7c-0.5-3.9-0.6-4.2-1.9-4.2c-0.7,0-1.7,0.3-2.1,0.7
		c-1.2,0.9-2.6,0.9-3.6-0.1c-0.9-0.8-0.9-0.7-1.8,0.3c-0.5,0.7-0.8,1.7-0.8,2.3c0.1,1-0.2,1.4-2.4,2.4c-1.4,0.7-3,1.3-3.6,1.3
		c-1.3,0-3.7-2-4.1-3.4c-0.2-0.6-0.5-1.6-0.8-2.3l-0.5-1.3l-1.6,1.9c-0.9,1-2.6,2.4-3.7,3.1c-2.8,1.7-4.9,4.8-4.5,6.9
		c0.1,0.9,0,2.5-0.5,3.8C293.5,422.1,293.3,423.3,293.4,423.6z"/>
	<path fill="#FFFFFF" d="M234.3,193.3c0.9-0.5,1.2-0.5,1.6,0c0.4,0.6,0.5,0.6,0.9,0c0.3-0.6,0.6-0.6,1-0.1c0.5,0.5,0.8,0.2,1.7-1
		c1-1.5,1.5-4,0.7-4c-0.2,0-0.6,0.4-0.9,0.9c-0.4,0.7-1.1,0.9-2.1,0.9c-0.8,0-1.8,0.3-2.1,0.7c-0.7,0.8-1.9,0.9-1.9,0.2
		c0-0.3-0.7-0.5-1.6-0.5c-1.3,0-1.6,0.2-1.8,1.2c-0.2,1,0,1.2,1.6,1.7C232.8,193.8,233.5,193.8,234.3,193.3z"/>
	<path fill="#FFFFFF" d="M425.4,384.5c-2.7-1-3.9-0.6-6.3,1.8c-1.8,1.7-2.7,3.4-1.6,3.1c0.5-0.2,2.8,3.2,2.8,4.1c0,1-4,8.7-5.4,10.4
		c-0.7,0.8-2.2,2-3.3,2.7c-1.8,1-2,1.3-1.5,2.1c0.3,0.7,0.3,1.9-0.3,4.4l-0.7,3.5l1.3,1.4c2.2,2.3,3.9,3.2,5.2,2.7
		c0.7-0.2,2.4-0.3,3.9-0.1c2.3,0.3,2.9,0.2,3.7-0.6c1.5-1.3,3.1-3.8,3.5-5.3v-29.7C426.4,384.8,426,384.7,425.4,384.5z"/>
	<path fill="#009246" d="M152.1,282.5l0.1,1l0.2-1c0.3-1.5,1.5-0.8,1.5,0.9v1.4l1.2-0.9c1.8-1.4,2.5-1.3,2.2,0.6
		c-0.1,1.1,0.1,2,0.8,3.3c0.9,1.5,1,2.1,0.7,5c-0.2,2.2-0.2,3.3,0.2,3.3c0.2,0,0.8,0.7,1.3,1.6c0.7,1.5,0.7,1.7,0,3.3
		c-0.7,1.4-0.7,2-0.3,3.4c0.9,3.1,0.7,3.6-1.4,4.5c-1.1,0.5-1.7,0.9-1.4,1.1c0.4,0.1,0.5,0.9,0.3,2.6c-0.3,2.1-0.2,2.3,0.5,2.1
		c0.5-0.1,1-0.7,1.3-1.6c0.4-1.6,1.6-2.4,2.4-1.6c0.3,0.3,0.3,0.9-0.1,2c-0.4,1.2-0.4,2,0,3c0.4,1.1,0.3,1.8-0.2,3.1
		c-0.6,1.5-0.6,1.7,0,1.9c0.6,0.2,0.6,0.4,0.1,1.1c-0.5,0.6-0.5,0.8,0,0.9c0.8,0.3,0.7,2-0.1,2.3c-0.4,0.1-1.2-0.1-1.6-0.6
		c-1.2-1.1-1.4-0.9-1.7,2.1c-0.2,1.4-0.7,3.3-1.3,4.1c-0.5,0.9-1.3,3-1.8,4.6c-0.8,2.9-0.8,3,0.1,4.1c1.2,1.5,1.1,1.9-0.6,3.6
		l-1.4,1.4l0.7,1.9c0.4,1,1.1,2,1.6,2.1c0.5,0.1,1,0.8,1.1,1.6c0.1,0.8,0.7,1.6,1.4,2c1.1,0.6,1.2,0.8,0.9,2.2
		c-0.2,1.3-0.1,1.8,0.6,2.3s0.8,0.8,0.3,2c-0.4,1-0.4,1.5,0.1,2.1c0.5,0.7,0.6,0.7,1.1-0.2c0.3-0.6,1.1-1.2,1.8-1.5
		c1-0.4,1.4-0.3,2.5,0.7c0.9,0.8,1.4,1.1,1.6,0.7c0.2-0.4,0.5-0.3,0.9,0.3c0.6,0.7,0.7,0.7,2.4-0.5c2.3-1.6,4.7-4.1,4.8-5
		c0-0.4,0-1.7-0.2-2.9c-0.2-1.3-0.2-3,0.1-4.1c0.4-1.6,0.4-2.1-0.1-2.7c-0.7-0.7-0.9-1.8-0.4-1.8c0.7,0,2.9,1.6,3.7,2.8
		c0.7,1.2,1.1,1.3,2.4,1.1c2.4-0.5,4.1,0.2,6.7,2.4c1.6,1.5,2.6,2,3.2,1.9c0.6-0.2,1,0,1.5,0.9c0.3,0.7,0.8,1.2,1,1.2
		c0.4,0,1.8-3.4,1.8-4.5c0-0.4,0.5-1.2,1.2-1.9c1.1-1.1,1.6-2.5,0.8-2.5c-0.2,0-0.7-0.2-1-0.4c-0.5-0.3-0.3-0.9,1.1-2.7
		c1.4-1.9,1.7-2.7,1.6-4.2c-0.1-0.9,0-2,0.1-2.2c0.5-0.8,1.4-6.3,1.1-6.8c-0.2-0.2-0.1-0.7,0.2-1.1c0.7-0.7,1.9-5.7,1.9-7.5
		c0-0.7,0.3-1.7,0.7-2.2c0.6-0.7,0.6-1,0.1-1.7c-0.5-0.8-0.5-1.2,0.2-2.1c1.1-1.6,1-1.9-0.6-5.1c-1-2-1.4-3.4-1.4-5.1
		c0-2.2,0.1-2.4,2.7-4.9c1.5-1.4,3.3-3.7,3.9-4.9c1.2-2.3,1.2-2.4,0.3-3.4c-0.7-0.8-0.9-1.8-0.9-4.3c0-2.3-0.2-3.3-0.7-3.5
		c-0.4-0.2-0.9-1.4-1.3-2.6c-0.6-2-0.6-2.3,0.4-3.2l1-1l-1-0.5c-0.7-0.3-1-0.9-1-1.8c0-1-0.1-1.2-1-1c-1.2,0.3-3-0.1-3-0.7
		c0-0.2,0.9-1.1,2.1-1.9l2.1-1.5l-1.3-0.6c-1-0.4-1.4-0.4-2,0.1c-1.5,1.4-1.9-0.7-0.4-2.5c1-1.3,1.1-1.9,0.5-2.9
		c-0.4-0.6-0.6-0.5-1.6,0.4l-1.1,1.1l-0.8-1.2c-0.4-0.7-0.7-1.5-0.6-2c0.1-0.7-0.4-1-2.1-1.5c-1.7-0.5-2.4-1-2.8-1.9
		c-0.4-0.7-0.8-1.2-1.4-1.1c-0.4,0.1-0.9-0.1-1.1-0.3c-0.3-0.6-1.2-0.7-1.2-0.2c0,0.2,0.3,0.8,0.7,1.3c1.5,2,0,4.1-2.9,4.2
		c-1.9,0-4.7,2-8.2,5.7c-1.7,1.8-2.1,2-4.1,2c-1.7,0-3,0.5-5.7,1.9c-1.9,1-3.8,1.9-4.2,1.9c-1.1,0-6.2-2.7-7.5-4
		c-0.7-0.7-1-1.4-0.8-1.8c0.2-0.5,0-0.7-0.5-0.7c-0.6,0-0.7,0.2-0.2,1.2c0.5,1,0.3,1.6-1.3,4.7c-1.8,3.6-1.8,4.2-0.1,4.2
		c1.6,0,1.5,1.7-0.1,3.2C152.6,280.9,152.1,281.8,152.1,282.5z"/>
	<path fill="#009246" d="M208.6,44.1c-0.2,2.3-0.6,4.4-0.8,4.7c-1.4,1.7-4-0.1-6.7-4.8c-1.2-2-1.2-2.3-0.7-3.7
		c0.3-0.9,0.5-1.8,0.3-2c-0.1-0.2-1.4-0.8-2.7-1.2c-3-0.9-4.5-1.9-4.5-3.1c0-1.3-1.1-3.3-2.3-4.3c-1.1-0.9-1.1-2.3-0.1-6.6l0.3-1.4
		l-2,0.3c-1.5,0.2-2.6,0.8-3.9,2.1c-1,1-2.8,2.4-4.1,3.1l-2.2,1.3l1,1.6c1.4,2.3,0.9,3.4-2.7,6.5c-1.8,1.5-4.1,3.5-5.2,4.6l-2,1.9
		l-3.4-1.7l-3.4-1.7l-2.3,0.7c-1.3,0.4-4.8,0.9-7.7,1.2c-4.9,0.5-5.6,0.5-7.2-0.3c-1.7-0.8-1.7-0.8-5.4,0.7
		c-3.5,1.4-3.7,1.5-3.7,2.9c0,1.1,0.4,1.9,1.7,3.1c2.3,2.2,3,3.7,3,6.6c0,2.3,0.1,2.5,1.7,3.6c2.7,1.9,4.8,3.8,4.8,4.5
		c0,0.4-0.5,1.4-1.2,2.2c-0.8,1.1-1.2,2.1-1.2,3.4c0,1.9,0,1.9-1.3,1.7c-0.8-0.1-2.7,0.2-4.8,1c-1.9,0.7-5,1.4-6.9,1.6
		c-2,0.2-3.6,0.6-3.8,1c-0.6,0.8-0.3,2.8,0.9,6.2c1.1,3,1.7,3.6,5.5,5.9c2.7,1.6,3.8,3.3,3.8,5.6c0,1.3-0.4,2-2.1,3.6
		c-1.2,1.2-2.7,2.8-3.3,3.8c-1,1.4-1.1,1.8-0.7,3.2c0.4,1.3,0.4,1.9-0.5,3.9c-1,2.3-1,2.4-0.2,4.5c1.1,2.8,4.9,6.5,8.6,8.4
		c2.7,1.4,3.2,1.4,7.9,1.4c7.8,0,9.3,1,7.2,5.1c-0.7,1.3-1.2,2.9-1.2,3.5c0,0.9-0.4,1.4-1.4,2c-2.8,1.5-3.7,2.5-3.7,3.8
		c0,3.3,1.4,3.5,8.9,1.4c8.2-2.3,8.5-2.5,11.1-6.3c3.4-5,4.8-6.5,7.1-7.4c1.8-0.7,2.2-1.1,3.2-3.5c1-2.2,1.6-2.9,3-3.6
		c7.1-3.6,15.4-3.2,19.7,1.1c1.2,1.2,1.9,2.3,1.8,2.7c-0.1,0.4,0,0.9,0.4,1.2c0.5,0.5,0.8,0.4,1.5-0.5l0.9-1.1l2,1.9
		c1.1,1,2.1,2,2.2,2.1c0.1,0.1,0.6,0.4,1.2,0.8V35.8C208.6,40.2,209,39.7,208.6,44.1z"/>
	<path fill="#CE2B37" d="M498.6,306.1c-2.9-2.9-5.8-6-6.4-6.8c-0.6-0.8-1.1-1.1-1.1-0.8c0,1.2-1.3,0.6-1.8-0.7c-0.4-1-0.9-1.4-2-1.7
		c-1.6-0.4-4.2-1.5-4.6-2.1c-0.1-0.2-1.9-1.2-3.9-2.2c-4.1-2.2-10.2-6.6-11.9-8.9c-0.7-0.8-2.6-2.3-4.2-3.4
		c-3.5-2.1-12.1-5.6-13.7-5.6c-0.7,0-2.1-0.7-3.4-1.7c-1.3-0.9-3.6-2.1-5.3-2.6c-3.5-1-7-2.7-7.9-3.8c-0.4-0.4-1-0.7-1.5-0.7
		c-0.5,0-2.1-1.1-3.5-2.5c-0.2-0.2-0.5-0.4-0.7-0.6v108.1l1.6,3.2c2.7,5.5,2.8,5.7,2.3,7.5c-0.3,1-1.1,2.4-1.8,3.1
		c-0.9,0.9-1.2,1.2-2.1,1v29.7c0.1-0.3,0.1-0.5,0.1-0.7c0-0.7,0.8-2.3,2.2-4.1c4.2-5.5,5.6-6.7,9-8c1.8-0.7,3.5-1.7,3.9-2.2
		c1.1-1.5,1-11.1-0.1-12.9c-0.8-1.3-0.8-1.4,0.1-3c1.7-3.1,5.4-6,9.8-7.6c4.7-1.7,4.7-1.7,7.7-0.6l2.3,0.9l0.9-2.2l0.9-2.1l-1.3-2.5
		c-1.2-2.3-1.3-2.7-0.7-4.7c0.4-1.7,0.4-2.5,0-3.4s-0.4-1.9,0-3.9c0.7-3.5,0.7-3.3-0.9-4.1c-0.8-0.4-1.7-1.3-2-1.9
		c-0.3-0.7-1.9-1.9-3.9-3c-1.8-1-3.8-2.4-4.3-3.1c-0.8-1.2-1.3-1.3-4.5-1.4c-3.4-0.2-3.6-0.3-4.7-1.7c-3-4-3.2-5.9-0.7-9.3
		c1.8-2.5,2.8-5.7,2.8-8.9c0-1.7,0.2-2.7,0.8-3.1c0.4-0.4,1.3-1.8,1.9-3.2c0.7-1.4,1.6-3.2,2.2-4c0.6-0.8,1.3-2.1,1.6-3
		c1.3-3.9,4.5-6.8,8.6-8c3.1-0.8,6.2,1.3,5.9,3.9c-0.1,0.8,0.6,1.4,3.8,3.1c2.2,1.2,4.8,2.6,5.9,3.1c1.8,1,2.4,1,6.8,0.8l4.9-0.3
		l1.5,1.7c0.8,0.9,2.2,3,3.1,4.7c1.5,2.8,1.6,3.1,1,4.7c-0.6,1.6-0.6,1.9,0.6,3.7c1.7,2.9,10.7,9.5,12.2,8.9
		c0.5-0.2,0.7-1.2,0.7-4.2c0-4.6,0.3-5.6,2.4-7.9c1.8-2.1,1.7-3-1.3-9.1C504.2,311.9,503.4,310.8,498.6,306.1z"/>
	<path fill="#CE2B37" d="M428.1,240.6l-1.4-1.6v8.8C430.3,244.8,430.4,243.3,428.1,240.6z"/>
</g>
</svg>
