<?xml version="1.0" encoding="utf-8"?>
<!-- Generator: Adobe Illustrator 17.1.0, SVG Export Plug-In . SVG Version: 6.00 Build 0)  -->
<!DOCTYPE svg PUBLIC "-//W3C//DTD SVG 1.1//EN" "http://www.w3.org/Graphics/SVG/1.1/DTD/svg11.dtd">
<svg version="1.1" id="flag-icon-css-jm" xmlns="http://www.w3.org/2000/svg" xmlns:xlink="http://www.w3.org/1999/xlink" x="0px"
	 y="0px" viewBox="0 0 640 480" enable-background="new 0 0 640 480" xml:space="preserve">
<g>
	<path fill="none" d="M641.5,304.3c-0.4-0.5-1-1.6-1.5-2.6v7.4c0.1-0.1,0.2-0.3,0.3-0.4c0.2-0.6,0.7-1.6,1.1-2.2
		C642,305.7,642,305.2,641.5,304.3z"/>
	<path d="M447.5,288.4l-2,0.4c-0.3,0.1-0.5,0.1-0.7,0.1l1.5,1.1L447.5,288.4z"/>
	<path d="M121.2,135.6c-0.5-0.2-1-0.3-1.2-0.5c-0.5-0.4-2.8-0.9-5-1.1c-3.2-0.3-4.2-0.6-4.8-1.6c-0.4-0.7-0.8-1.4-0.9-1.5
		c-0.2-0.3-9,1.7-12.3,2.8c-1.4,0.4-3.1,0.7-3.9,0.5c-0.8-0.2-3.8-0.1-6.8,0.4c-4.9,0.6-5.5,0.6-6.6-0.4c-1-0.9-1.3-0.9-1.8-0.2
		c-0.4,0.5-0.6,1.1-0.6,1.4c0,0.3-0.3,0.5-0.6,0.5c-0.3,0-0.6-0.7-0.6-1.6c0-1.1-0.3-1.6-1.1-1.6c-0.6,0-1.4-0.6-1.9-1.3
		c-1.2-1.9-6.3-1.8-8.8,0.4c-1.8,1.4-1.9,1.9-1.6,3.9c0.4,1.9,0.3,2.1-0.6,1.8c-0.6-0.3-1.5-0.4-2-0.4s-0.9-0.5-0.9-1.1
		c0-2.3-2.2-3.4-7.3-3.8c-5.2-0.3-7.6,0.4-7.9,2.6c-0.1,0.9-1,1.6-2.8,2.1c-2,0.7-2.8,1.4-3.4,2.9c-0.4,1.1-1.2,2.3-1.6,2.5
		c-0.4,0.3-0.8,1.1-0.8,1.7c0,0.9-0.4,1.3-1.5,1.3c-2.1,0-4.9,2.4-4.4,3.8c0.8,2.3-0.1,2.8-4.1,2.6c-4.1-0.3-4.9,0.2-4.9,2.8
		c0,0.8-0.6,2-1.3,2.7s-1.4,1.9-1.6,2.8c-0.6,2.3-1.4,2.5-3,1c-2-1.9-3.8-1.6-5.7,0.9c-1.6,2.1-1.8,4.1-0.4,4.1
		c0.3,0,0.6,1.3,0.6,2.9c0,1.7,0.3,5.6,0.4,8.8l0.4,5.9l-2.3,2.1c-1.3,1.2-2.7,2.1-3.2,2.1c-1.2,0-3.4,3.6-3.4,5.4
		c0,1.4,4.1,8.1,6.1,9.9c0.8,0.6,3.5,2.1,6.2,3.1c4.5,1.8,5.2,1.9,9.3,1.5c6.6-0.8,7.8-0.4,10.2,3.2c1.4,2.1,2.9,3.4,4.6,4.1
		c2.4,0.9,2.6,0.9,6.7-0.9c4.8-2.2,12.1-4.4,14.6-4.4c1,0,2.7,0.7,3.9,1.6c1.9,1.5,2.3,1.6,5.8,1c2.1-0.3,4.6-1.1,5.7-1.6
		c2.6-1.4,5-1.3,6.7,0.3c1.1,1.1,1.6,1.2,2.7,0.6c3.1-1.7,11.6,1.8,12.3,4.9c0.2,0.9,0.9,2.8,1.6,4.4c1.3,3,2.6,9.9,2.6,14.1
		c0,2.8,0.9,3.7,4.4,4.7c1.3,0.4,2.6,1.2,2.9,1.8c0.4,0.6,1.6,1.5,2.7,1.9c3.3,1.3,6.8,4.9,7.5,8c0.4,1.6,1.4,3.3,2.4,4.1
		c0.9,0.8,1.9,2.4,2.2,3.6s0.9,2.7,1.6,3.4c0.6,0.7,1.3,1.9,1.6,2.7c0.6,1.9,2.1,2.6,6.6,3.1c3.1,0.3,4,0.2,5-0.8
		c1.1-1,1.6-1.1,3.4-0.4c1.1,0.4,2.6,0.8,3.4,0.8c0.8,0,2.5,0.7,3.9,1.6c1.4,0.9,3.4,1.8,4.4,2c1.1,0.2,1.9,0.7,1.9,1.1
		s1,1.6,2.3,2.5c2,1.5,2.3,2,1.9,3.8c-0.2,1.1-0.9,2.8-1.6,3.8c-1.2,1.6-1.3,2.1-0.7,7.4c0.4,3.1,0.9,5.7,1.3,5.8s1.8,1,3.3,2
		c1.5,1.1,3,1.9,3.4,1.9c1.3,0,4,3.3,4,4.8c0,1.5,0.4,3,1.1,4.3l91.8-68.8L121.2,135.6z"/>
	<path d="M639.8,301.2c-0.8-1.6-1.3-2-2.8-2c-1.1,0-1.9-0.3-1.9-0.7c0-0.4-1.1-0.6-2.8-0.4c-1.6,0.1-2.8,0-2.8-0.3
		c0-0.3-0.8-1.4-1.9-2.6c-1-1.2-1.6-2.4-1.3-2.7c0.3-0.3,0.8-1.8,1.3-3.3c0.7-2.5,0.7-2.8-0.7-3.9c-0.8-0.7-2.2-1.5-3.1-1.9
		c-2-0.8-3.1-2.9-3.1-6.3c0-2.1-0.3-2.7-1.9-3.6c-1.4-0.8-1.9-1.6-1.9-2.8c0-0.9-0.4-1.9-0.9-2.2s-1-1.9-1.2-3.6
		c-0.6-6.8-4.8-15-9.3-18.5c-2.1-1.7-2.4-2.3-2.4-4.6c0-2.4-0.2-2.8-2.2-3.7c-2-0.9-2.2-1.3-2.2-3.8c0-3.4-1.4-5.7-3.1-4.8
		c-1.4,0.8-1.9,0.8-1.9,0.1c0-1.2-3.6-4.3-5.4-4.7c-1.1-0.3-2.1-0.9-2.3-1.4c-0.4-1.1-2.3-1.2-2.3-0.1c0,0.6-0.2,0.6-0.8,0
		c-0.4-0.4-1.8-0.8-3-0.8s-2.6-0.3-2.9-0.6c-0.4-0.4-1.2-0.5-2.3-0.1c-1.3,0.5-1.7,0.4-1.7-0.2c0-0.4-1.1-1.3-2.4-1.9
		c-2.3-1-2.6-1-3.9-0.1c-3.1,2.2-7.1,0.6-9.2-3.6c-0.8-1.6-1.8-3.1-2.2-3.4c-0.9-0.8-6.1-0.3-6.1,0.5c0,0.3-0.8,0.6-1.8,0.6
		c-1.1,0-2.1,0.3-2.3,0.6c-0.6,0.9-2.6,0.8-3.4-0.3c-0.9-1.1-3.1-1.2-5.1-0.3c-2.8,1.2-7.1-1.1-11.1-5.7c-1.9-2.3-3.8-4.2-4.3-4.3
		c-0.5-0.1-2,0.2-3.4,0.8c-4.4,1.8-7.6,1.3-11.8-1.5c-2-1.4-4.9-4-6.5-5.9l-2.9-3.3l-7.1-0.9c-5.3-0.7-7.7-1.3-9.1-2.3
		c-1.9-1.4-4.8-1.8-5.4-0.7c-0.2,0.3-1.5,0.9-2.8,1.3c-3.5,0.9-5.9-0.4-7.8-4.4c-0.8-1.7-2.5-4.4-3.8-5.9c-0.4-0.5-0.7-0.9-1-1.3
		L379.6,240l64.1,48.1c0-0.2,0.1-0.4,0.1-0.7c0.3-0.9,1.1-3,2.1-4.6c1.3-2.4,1.9-3,3.3-3c2.4,0,3.6,0.6,3.6,1.8c0,1.4,4.8,5.9,7.5,7
		c2.3,0.9,8.3,1.1,13.5,0.3c2.9-0.4,3.4-0.3,6.3,1.6c1.7,1.1,3.2,2.6,3.3,3.2c0.2,0.9-0.5,1.1-7.6,1.1h-7.9l-1.6,1.8
		c-1.4,1.6-1.9,1.8-3.2,1.3c-0.9-0.3-2.9-0.9-4.5-1.2c-1.6-0.4-3.5-0.9-4.2-1.3c-0.5-0.2-0.9-0.4-1.3-0.3l5,3.7
		c1.4,0.3,2.7,0.6,3.8,0.9c6.7,1.9,7.5,1.8,9.5-0.8l1.6-2.2h5.3c2.9,0,5.8-0.3,6.4-0.6c0.8-0.4,2.3-0.4,4.5,0.1
		c1.9,0.4,5.1,0.9,7.3,1.1c3.1,0.4,4.4,0.9,5.9,2.4c1.1,1,2.6,2.1,3.3,2.3c0.8,0.3,1.7,1.3,2.1,2.3c0.8,1.9,1,2,3.4,2.1
		c0.9,0.1,1.4,0.7,1.7,2.6c0.3,1.4,1,4.3,1.8,6.3c1.3,3.4,1.6,3.9,3.6,4.5c1.3,0.4,4.4,0.9,6.9,1.1c2.5,0.2,5.6,0.8,6.8,1.3
		c2.6,1.1,4.6,1.2,4.6,0.3c0-0.3-0.9-1-2-1.4c-1.1-0.4-1.8-1-1.4-1.3c0.4-0.2,2.1,0.3,3.9,1.2c2.1,0.9,4.4,1.5,6.5,1.5
		c3,0.1,3.1,0.1,2.1,0.9c-0.8,0.6-2.7,0.9-5.2,0.9c-3.1,0-3.9,0.2-3.9,0.9c0,0.8,0.9,0.9,4.9,0.9c4.8,0,5-0.1,6.5-1.9
		c0.9-1,1.7-2.1,1.8-2.5c0.3-0.9,10.7-2.8,20.7-3.8l7.9-0.8l5,1.9c2.8,1.1,5.9,1.9,6.9,1.9c1.3,0,1.9,0.3,1.9,0.9
		c0,1.5,3.2,1.2,3.6-0.3c0.2-0.7,0.6-1.3,0.9-1.3c0.3,0,0.6-1.3,0.6-2.8c0-2.4,0.2-2.8,1.6-3.2c2.1-0.5,3.6,0.8,3.1,2.8
		c-0.2,0.8-0.1,1.8,0.3,2.3c0.8,1,5.1,0.5,5.5-0.6c0.2-0.5,0.9-0.9,1.5-0.9c0.7,0,1.4-0.4,1.6-0.9c0.6-1.5,3.7-2.3,5.1-1.3
		c1,0.8,1.4,0.6,3.1-0.7c1.4-1.1,2.8-1.5,4.9-1.5c2.4,0,2.9-0.3,3.6-1.6c0.4-0.9,1.5-2,2.4-2.5c2-1,5.9-1.2,6.5-0.3
		c0.5,0.9,2.6,0.8,3.4-0.1v-7.4C639.9,301.5,639.8,301.4,639.8,301.2z"/>
	<path fill="#009900" d="M389,143.5c-0.8,0-1.2,0.2-1.9,0.7c-0.8,0.6-2.2,1-3.1,1s-2.5,0.6-3.7,1.3c-1.7,1-2.7,1.2-5.4,0.9
		c-2.1-0.3-3.4-0.2-3.7,0.3c-0.8,1.2-3.1,0.8-4.7-0.8c-0.9-0.9-3.4-1.9-5.7-2.5c-3.3-0.8-4.4-1.5-5.9-3.3c-1.6-1.8-2.8-2.5-6.3-3.4
		c-2.4-0.6-5.2-1.3-6.3-1.5c-4-0.7-4.7-0.9-4.7-1.8c0-1-2.6-2.3-4.8-2.3c-0.9,0-2.6-0.3-3.9-0.6c-2.4-0.6-14.3-3-17.1-3.4
		c-1.2-0.2-1.9,0.1-2.3,0.8c-0.8,1.5-13,2.3-15.5,1c-2-1-9.3-1.3-9.8-0.4c-0.5,0.8-2,0.8-3,0c-5.4-4.4-6.6-4.7-9.3-2.1l-1.6,1.6
		l-1.9-1.8c-1.8-1.8-2-1.8-6.3-1.6c-3.4,0.3-4.8,0.1-5.9-0.7c-0.9-0.6-2.7-1-4.6-1c-1.9,0-4-0.5-5.5-1.3c-2.2-1.2-3.1-1.3-10.6-0.9
		c-6.6,0.4-8.3,0.6-9.2,1.6c-0.5,0.5-0.8,0.8-1.3,0.7l94.9,71.2L389,143.5z"/>
	<path fill="#009900" d="M269.7,322.4c2.5-0.4,5-0.7,7.8-0.7h5.3l5,3.4c2.8,1.9,5.7,3.4,6.6,3.4c2.1,0,12,6.1,12.7,7.8
		c1.1,2.9,8.3,10.1,11.8,11.8c1.9,1,3.9,1.8,4.3,1.8c0.4,0,1.8,2.2,3,4.9c2.3,4.9,2.3,4.9,5.6,6c2.4,0.8,3.8,1.6,5.1,3.3
		c1.2,1.6,3.3,3,7.4,4.9c5.4,2.6,5.9,2.7,10.1,2.4c3.9-0.3,4.8-0.6,7.7-2.8c3.2-2.4,3.3-2.5,3.3-5.5c0-1.8-0.3-3.1-0.6-3.1
		c-1.2,0-4.4-3.3-4.4-4.4c0-0.6,0.3-1.2,0.6-1.2c0.8,0,0.8-1.7-0.1-2.2c-0.3-0.3-1.6,0-2.8,0.6c-1.1,0.6-3.4,1.2-5,1.4
		c-2.4,0.4-3.1,0.2-4.3-0.9c-0.8-0.8-2.8-1.4-4.6-1.7c-3.1-0.4-3.3-0.6-3.3-2.2c0-1.3,0.6-2.2,1.8-3.1c2.7-1.9,3.1-1.8,4.3,0.5
		c0.6,1.2,1.8,2.4,2.6,2.6c1.3,0.5,1.4,0.3,1.5-1.6c0.1-1.2,0.1-2.7,0.1-3.3c0.1-0.6-0.6-1.2-1.4-1.4c-1.8-0.4-1.9-1.5-0.1-1.8
		c0.9-0.2,1.3-0.7,1.3-2c0-2.5,2-3.8,4.6-3.1c4.4,1.3,6.4,0.3,2.8-1.4c-3-1.3-3.4-3.9-1.4-7.9c0.9-1.8,1.6-4.2,1.6-5.6
		c0-2.2,0.4-2.9,3-5.5l-41.3-31L269.7,322.4z"/>
	<path fill="#FFCC00" d="M379.6,240l80.1-60.1c-0.9-1.3-1.1-1.9-0.6-2.3c0.9-0.9,0.9-3.8-0.1-4.7c-0.4-0.4-1.2-0.8-1.8-0.8
		c-1.9,0-7.1-3.3-11-6.9c-3.6-3.4-6.7-5-9.6-5c-1.4,0-3.1-2-3.1-3.7c0-0.8,0.5-2.8,1.1-4.5c1.6-4.3,0.9-4.8-7.3-5.3l-6.6-0.4
		l-2.5,2.2c-2.4,2.1-2.5,2.1-4.6,1.3c-1.2-0.5-2.9-0.8-3.9-0.6c-1.3,0.3-2.7-0.1-4.4-1c-2.2-1.1-3-1.2-5-0.7
		c-2.2,0.6-2.4,0.6-3.1-0.8c-0.5-1.1-1.7-1.8-4.6-2.5c-1.8-0.5-2.8-0.7-3.5-0.8l-69,51.8L379.6,240z"/>
	<path fill="#FFCC00" d="M260.4,240l-91.8,68.8c0.8,1.4,2,2.6,3.6,3.4c1.6,0.8,2.8,1.6,2.8,2c0,0.3,0.6,0.6,1.2,0.6
		c0.7,0,1.8,0.9,2.5,2.2c0.7,1.2,2.3,2.7,3.5,3.3s2.2,1.5,2.2,2.1c0,1.7,1.6,1.9,5.3,0.6c2.9-1,5.5-1.1,19.5-1.3
		c9,0,19-0.2,22.4-0.4l6.1-0.3l5.1,3.3c6.8,4.4,9,4.6,15.9,1.5c3.9-1.7,7.4-2.8,11-3.4l50.3-37.7L260.4,240z"/>
	<path fill="#FFCC00" d="M451,296.1l-2,1.5l4,0.4c1.2,0.1,3.1,0.4,5,0.8l-5-3.7C452.5,295.2,451.9,295.5,451,296.1z"/>
	<path fill="#FFCC00" d="M320,195.3l-94.9-71.2c-0.5-0.1-1.2-0.5-2.6-1.4c-3.3-2-6.1-3-6.1-2c0,0.3,0.4,0.9,0.9,1.4
		c2.9,2.4-2.1,2.6-5.1,0.3c-1.7-1.3-3.1-1.8-6.3-1.9c-3.9-0.3-4.1-0.3-2.9,0.7s1.2,0.9-0.8,1c-2.4,0-3.7-0.6-8-3.9
		c-2.9-2.2-3.6-2.4-9.3-3c-3.3-0.3-6.9-1.1-7.8-1.6c-5.1-2.6-21.1-4-28.5-2.5c-2.3,0.5-4.9,1.3-5.8,1.9c-0.8,0.5-2.1,0.9-2.8,0.9
		c-0.8,0-2.8,0.7-4.6,1.5c-4.3,2-7.3,6.2-7.3,10.1c0,1.5-0.3,2.9-0.6,3.1c-0.4,0.2-0.4,1.9-0.2,4.2l0.4,3.8l-3.3-0.4
		c-1.1-0.2-2.3-0.4-3.1-0.7L260.4,240l59.6,44.7l41.3,31c0.1-0.1,0.1-0.1,0.2-0.2c4.4-4.4,5.8-5.2,8-4.7c1.4,0.3,2.2,0.1,3.1-0.9
		c1.4-1.4,2.6-1.7,2.6-0.7c0,1.3,2.5,0.6,3.5-0.9c1.2-1.8,2.1-1.5,2.1,0.7c0,1.8,0.7,1.9,2.2,0.3c1-1.1,1.2-1.1,3.1-0.3
		c2.5,1.3,5.9,4.4,7,6.6c1.1,2.1,1.2,5.6,0.1,5.4c-2.1-0.3-2.4,0.1-2.4,3.2c0,3.3,0.9,4.1,2.5,2.2c1.2-1.4,5.8-1.2,7.7,0.3
		c1.6,1.3,4.8,1.7,4.8,0.6c0-0.3,0.4-0.4,0.9-0.3c0.5,0.3,1.1-0.1,1.3-0.6c0.6-1.5,3.4-1.3,3.8,0.3c0.2,0.7,0.8,1.3,1.2,1.3
		c0.5,0,0.9,0.4,0.9,0.9c0,1,1.6,0.7,7.5-1.4c2.9-1.1,3.6-1.6,4.7-3.8c0.7-1.5,1.6-2.6,2.3-2.6c0.7,0,1.4-0.8,1.8-2.1
		c0.8-2.4,4.3-8.3,6.2-10.3l1.3-1.4h-1.4c-2.1,0-3.1-0.9-2.6-2.4c0.3-1.1,0.9-1.3,2.9-1.3c2.4,0,2.4-0.1,2.4-2.1
		c0-1.4,0.5-2.6,1.6-3.6c0.9-0.8,1.6-2.1,1.6-2.9c0-0.8,0.6-1.8,1.2-2.1c0.7-0.3,1.9-1.5,2.6-2.6l0.2-0.3l-1.5-1.1
		c-1,0.2-1.2,0-1-0.8L379.6,240L320,195.3z"/>
</g>
</svg>
