<?xml version="1.0" encoding="utf-8"?>
<!-- Generator: Adobe Illustrator 17.1.0, SVG Export Plug-In . SVG Version: 6.00 Build 0)  -->
<!DOCTYPE svg PUBLIC "-//W3C//DTD SVG 1.1//EN" "http://www.w3.org/Graphics/SVG/1.1/DTD/svg11.dtd">
<svg version="1.1" id="flag-icon-css-jo" xmlns="http://www.w3.org/2000/svg" xmlns:xlink="http://www.w3.org/1999/xlink" x="0px"
	 y="0px" viewBox="0 0 640 480" enable-background="new 0 0 640 480" xml:space="preserve">
<g>
	<path fill="none" d="M218,480c0.8,0.1,1.3,0.2,1.4,0.2c0,0,0.1-0.1,0.3-0.2H218z"/>
	<path d="M501.2,160c3.6-1,5.7-1.6,5.7-1.7c0.3-0.2,6.5-5.9,13.8-12.8c7.3-6.9,14-13.1,14.9-13.8l1.6-1.5l-2-6.5
		c-1.1-3.6-2.2-6.7-2.3-6.9c-0.1-0.2-4.9,0.9-10.6,2.4c-5.7,1.5-10.5,2.8-10.7,2.8c-0.2,0-0.5-0.9-0.6-2.1c-0.2-1.2-1.4-5.6-2.6-9.9
		c-1.8-6.3-2.1-7.8-1.6-8.1c0.4-0.1,2.5-0.8,4.8-1.5c3.4-1.1,4-1.5,3.9-2.2c-0.9-5-28.3-97.4-29.1-98.4
		c-0.2-0.2-18.9,11.2-41.6,25.3c-22.7,14.2-56.1,35-74.1,46.4c-18.1,11.4-40.9,25.6-50.7,31.6c-9.8,6-19.5,12.3-21.5,13.9
		c-4.2,3.3-4.4,3.4-10.7,2.2c-2.1-0.4-4.3-0.6-4.8-0.5c-0.6,0.1-1.5-0.2-2.3-0.9c-1.3-1-1.8-1.1-6.4-1.1c-5.6,0-10.9-0.9-12.2-2
		c-1.3-1.1-2.9-1.5-6.3-1.4c-2.6,0-3.2-0.1-3.5-0.8c-0.8-1.7-8-7.9-12.6-10.9c-2.6-1.6-5-3.6-5.3-4.3c-0.6-1.1-0.8-1.2-2.6-0.9
		c-1.1,0.1-2,0.3-2.1,0.4c0,0-0.9-0.1-1.9-0.5c-1-0.4-2.7-0.5-4.1-0.4l-2.4,0.2l-0.3-2c-0.3-2.1-2.2-5.7-3.2-6.4
		c-0.4-0.2-0.8-1.6-1.1-3.2l-0.4-2.8l-2.1-0.6c-3.7-1.1-4.4-1.5-3.8-2.1c0.8-0.8,0.7-1.8-0.3-1.8c-0.8,0-3.1-1.9-3.4-2.8
		c-0.2-0.7-7.4-2-9.9-1.8c-1.9,0.1-2.7-0.5-2.8-1.9c0-0.4-0.8-0.6-2.3-0.6c-1.8,0-2.5,0.2-3.4,1.2c-0.6,0.7-2.3,1.7-3.6,2.3
		c-1.4,0.6-3.1,1.6-3.9,2.3c-1.6,1.4-2.8,1.5-5.5,0.5l-1.9-0.7l0.7,1.4c1.1,2.1,0.9,3.1-0.9,5c-1.3,1.4-1.9,2.3-2,3L320.1,160H501.2
		z"/>
	<path fill="#FFFFFF" d="M385.8,192.9c3-0.9,5.9-1.7,8.7-2.5c18.2-5.3,50.8-14.5,72.5-20.6c14.4-4.1,27.2-7.7,34.2-9.7H320.1
		L385.8,192.9z"/>
	<path fill="#FFFFFF" d="M400.6,320c-5.7-6.8-14-16.7-23.9-28.3L320.1,320H400.6z"/>
	<path fill="#009900" d="M240.9,462.6l21-17.6l12.2-21.5l12.2-21.5l36.7-7.6c20.2-4.1,36.7-7.6,36.8-7.7c0.1-0.1,3.8-8.6,8.1-18.9
		l7.9-18.7l16.3-9.7c9-5.4,16.3-9.8,16.3-9.9c0-0.1-2.9-3.6-8-9.6h-80.5l-203,101.5c0,0.7,0,1.4,0,2.2v5.7l-2.3,2.5
		c-3,3.2-3.7,6-2.3,8.3c1.1,1.8,0.9,4.4-0.6,8.7c-0.6,1.7-0.8,3.2-0.6,4.3c0.2,1.3,0.1,1.9-0.5,2.3c-0.7,0.5-0.8,1-0.5,3l0.3,2.3
		l2.4,0.5c16.2,3.2,93.5,16.9,104.9,18.6h1.7C221.3,478.8,230.3,471.4,240.9,462.6z"/>
	<path fill="#FF0000" d="M376.7,291.7c-5.2-6.2-10.9-12.9-16.8-19.8c-41.1-48.5-48.5-57.5-47.7-57.8c0.5-0.2,11.7-3.4,25-7.2
		c11.3-3.2,31.6-9,48.6-13.9L320.1,160L171.3,85.6c0,0.5,0.1,1,0.5,1.5c0.3,0.6,0.8,2.2,0.9,3.5c0.3,2.3,0.2,2.5-0.8,3
		c-0.8,0.4-1,0.8-0.9,1.5c0.1,0.8-0.1,1.2-0.8,1.5l-1,0.5l1.5,1.7c1.5,1.6,1.5,1.7,0.7,2.9c-0.7,1.1-0.8,1.5-0.3,2.7
		c0.5,1.3,0.4,1.6-0.4,2.4c-0.6,0.6-0.9,1.6-0.9,2.7c0,0.9-0.2,2.3-0.4,2.9c-0.3,0.7-0.3,1.7,0,2.7c0.2,0.8,0.7,5.5,0.9,10.3
		c0.5,8.3,0.4,8.8-0.5,10.8c-0.5,1.2-0.9,3.1-0.9,4.6c0,1.8-0.4,3.2-1.4,5.3c-1.6,3.2-1.9,6.7-0.7,8c0.7,0.8,0.7,0.9,0,2.3
		c-0.8,1.4-0.8,1.6,0,2.9c0.6,1,0.8,1.9,0.5,3.6c-0.1,1.2-0.5,2.5-0.8,2.8c-0.6,0.8,0.4,5.6,1.4,6.7c0.5,0.6,0.7,1.2,0.4,1.7
		c-0.6,1.3-0.6,4.8-0.1,7.5c0.4,2,0.7,2.4,1.7,2.7c0.7,0.1,1.6,0.6,2.2,1c0.9,0.8,0.9,0.8-1.2,11.3c-2.3,11.4-2.3,13.3-0.6,18.6
		c0.6,1.7,0.6,2.6,0.2,4c-0.2,0.8-0.4,1.5-0.5,2.2l5.5-2.7l-6.6,8.2c-0.2,1.4-0.3,2.7-0.3,3.9c0,2-0.3,3.8-0.7,4.5
		c-0.4,0.7-0.9,1.7-1.2,2.4c-0.4,1.1-0.7,1.3-1.7,1c-0.7-0.1-1.5-0.5-1.6-0.8c-0.4-0.5-0.1-3,0.4-4.5l-3.2,3.9l21.6,10.3h-23.8
		l1.4,6.2l0.2,0.2l-0.1,0.3l3.8,16.7l-5.8-7.2c-0.3,0.6-0.6,1.1-1.1,1.7c-2.7,3.3-3.1,4.7-2.3,8.7l0.8,3.4l-2.1,2
		c-1.2,1-2.8,2.5-3.6,3.1c-1.3,1-1.5,1.6-1.8,4.4c-0.2,1.7-0.2,3.8-0.1,4.7c0.2,1.3,0.1,1.6-0.6,1.9c-1.4,0.4-3.8,3.7-3.8,5.2
		c0,2.6-1.3,7-2.8,9.6c-0.8,1.4-1.5,3-1.5,3.4c0,0.4-1,2.3-2.2,4c-1.9,3-2.3,3.9-3.5,9.7c-1.5,7.2-2.6,10.9-3.7,12.1
		c-0.8,0.9-0.6,1.6,2.2,7.1l1.6,3.2l-1.7,1.5c-1.6,1.4-1.7,1.6-2.2,5.9c-0.7,5.4-0.8,4.7,0.8,11.6c0.7,3.1,1.1,6,0.8,6.3
		c-0.2,0.3-1.7,2.4-3.4,4.8c-2.6,3.6-3.3,5-4.6,9.4c-1.5,4.9-1.5,5.4-1.3,10.1l0.3,4.9l-1.7,3.1c-1.5,2.7-1.7,3.3-1.5,5.3
		c0.2,1.6,0,3-0.7,4.7c-0.6,1.6-0.8,3-0.9,5.9l203-101.5L376.7,291.7z"/>
	<path fill="#FFFFFF" d="M169.7,221.3c-0.5,2.1-0.9,3.9-1.1,5.5l6.6-8.2L169.7,221.3z"/>
	<path fill="#FFFFFF" d="M159.5,254.3l-0.7,4.5c-0.4,2.6-0.7,3.9-1.2,5l5.8,7.2L159.5,254.3z"/>
	<path fill="#FFFFFF" d="M181.8,247.6l-21.6-10.3l3.2-3.9c0-0.1,0-0.1,0.1-0.2c0.1-0.4,0-0.8-0.2-0.8c-0.7,0-2.5,2-3.9,4.2
		c-0.6,0.9-1.4,2.1-1.9,2.7l-1,1l-1-0.9l-1-0.9l-1.1,2.3l-1.1,2.3l2.3,3.9c1.2,2.2,2.9,4.6,3.7,5.4l1.2,1.3l-1.4-6.2H181.8z"/>
</g>
</svg>
