<?xml version="1.0" encoding="utf-8"?>
<!-- Generator: Adobe Illustrator 17.1.0, SVG Export Plug-In . SVG Version: 6.00 Build 0)  -->
<!DOCTYPE svg PUBLIC "-//W3C//DTD SVG 1.1//EN" "http://www.w3.org/Graphics/SVG/1.1/DTD/svg11.dtd">
<svg version="1.1" id="flag-icon-css-jp" xmlns="http://www.w3.org/2000/svg" xmlns:xlink="http://www.w3.org/1999/xlink" x="0px"
	 y="0px" viewBox="0 0 640 480" enable-background="new 0 0 640 480" xml:space="preserve">
<g>
	<path fill="none" d="M158.1,480c0.3,0.6,0.8,0.9,1.8,1.1c1.7,0.5,2.8,0.2,3.8-1.1H158.1z"/>
	<path fill="#FFFFFF" d="M527.6,61.5c-1.3-0.4-2.9,0.3-5,2.3c-1.8,1.6-2.5,2-3.4,1.8c-1.6-0.5-2.7-1.6-2.7-2.8
		c0-0.6-0.3-1.4-0.7-1.9c-0.4-0.5-0.8-1.9-1-3.1c-0.2-1.9-0.5-2.3-1.6-2.8c-2.1-0.9-2.9-2.4-2.5-5.5c0.1-1.4,0.8-3.9,1.4-5.3
		c0.6-1.5,1.1-3,1.1-3.3c0-0.4,0.4-1.2,0.9-1.9c1-1.2,1.2-3.8,0.5-5c-0.3-0.6-0.6-0.6-1.3,0.2c-0.5,0.4-1.2,1.5-1.5,2.3
		c-0.3,0.8-1.8,2.8-3.3,4.4c-1.5,1.6-2.7,3.1-2.7,3.4c0,0.2-0.9,1.1-2,1.8c-2,1.4-2.1,1.4-6,1c-4.8-0.4-5.4-0.7-6.4-2.4
		c-0.8-1.6-1.4-1.7-1.8-0.3c-0.4,1-0.4,1-0.6-0.2c-0.2-1.4-0.4-1.5-4.5-2.2c-3.7-0.7-3.8-0.7-2.6,0.4l1.1,0.9l-1.7,0
		c-1.6,0-3.2-1.1-3.2-2.1c0-0.2-1.3-0.9-2.9-1.5c-5-2-12.8-7.4-18.3-12.8c-2.8-2.7-5-5.2-5-5.6c0-1.2-4.2-6.8-5.7-7.8
		c-0.8-0.5-2.6-2.1-3.9-3.4c-1.3-1.4-3.5-3.5-4.9-4.7l-2.6-2.2l-0.7,1.6c-0.8,1.8-2.7,2.6-3.8,1.6c-1-0.8-1.5-0.2-1.3,1.3
		c0.1,0.7-0.1,2.3-0.6,3.6l-0.7,2.2l1.8,3.6c1,2,2.5,5.2,3.4,7.2c1.5,3.5,1.5,3.7,1,5.9c-0.4,1.7-0.5,2.6-0.1,3.3
		c0.7,1.4,0.7,2.5-0.4,4.8c-0.7,1.7-0.9,3.1-0.9,8.5c0,6.4,0,6.4-1.3,7.6c-0.7,0.6-1.9,1.4-2.6,1.6c-0.7,0.3-1.5,1.2-1.8,1.9
		c-0.8,2-0.2,8,1,10c1.9,3,1,6.6-2.4,9c-1.8,1.4-2.1,1.4-3.2,0.8c-0.7-0.3-1.5-0.9-1.8-1.3c-0.7-0.7-3.1-0.5-3.8,0.4
		c-0.7,0.7-3.5-0.5-4.1-1.9c-0.6-1.2-4.7-2.2-5.6-1.5c-0.3,0.3-0.6,0.3-0.6,0.1c0-0.6-1.5,0.9-1.9,1.9c-0.4,1,0.6,3.5,1.4,3.5
		c0.2,0,1.2,1.1,2.1,2.3l1.7,2.4l-1.2,1.1c-0.7,0.6-1.8,1.7-2.6,2.4c-0.8,0.7-1.5,1.9-1.7,2.6c-0.2,1.1-0.5,1.3-1.8,1.3
		c-1.2,0-1.8,0.3-2.4,1.3c-1.1,1.7-1.5,2-2.9,2c-1.7,0-3.6,2.9-2.9,4.3c0.6,1.2,0.1,5.1-0.7,6.1c-0.8,1-0.1,3,1.4,3.9
		c0.7,0.5,1.4,1.2,1.6,1.6c0.3,0.8,2.7,2.9,4.1,3.4c0.3,0.1,0.6,0.6,0.9,1.2c4.1,2.6,8,5.5,11.8,8.5c0.1-0.1,0.3-0.3,0.4-0.4
		c0.8-1.1,1.2-1.3,2.1-0.9c0.6,0.2,2.2,0.4,3.6,0.4c1.4,0,2.8,0.3,3.3,0.7c0.8,0.6,1.1,0.5,2.7-0.6c1-0.7,1.8-1.5,1.8-1.8
		c0-0.7-3-3-4.1-3c-1,0-4.3-3-4.3-4c0-0.4-0.3-0.8-0.6-1c-0.3-0.2-1-1-1.4-1.7c-0.7-1.3-0.9-1.3-1.6-0.6c-1.7,1.5-4.1,0.7-7.8-2.7
		c-4.1-3.7,0.2-10.5,6.1-9.6c2.1,0.3,5.4,2.5,7.7,5.2c1.4,1.6,1.8,1.6,2.2,0.2c0.5-1.6,2.1-3.1,3.3-3.1c0.6,0,1.4-0.4,1.7-0.8
		c0.3-0.4,2.1-1.8,3.9-3c2.9-2,3.6-2.2,5.9-2.2c1.8,0,2.9,0.3,3.7,0.8c0.6,0.5,2.1,1.3,3.4,1.8c1.3,0.5,3.9,1.9,5.8,3.1
		c5.1,3.4,11.5,6.4,13.4,6.4c2.4,0,5.9,1.7,8.4,4.1l2.2,2.1v-1.6c0-0.9,0.3-2.7,0.7-4c0.4-1.4,0.6-3.1,0.4-4.3
		c-0.5-3.2,0.9-6.8,4.7-12.6c1.9-2.9,4.1-5.6,4.8-6c0.7-0.5,2.5-2,4.1-3.5c2.3-2.2,3.2-2.8,5-3c1.2-0.2,2.7-0.1,3.3,0.1
		c0.7,0.2,2.8,0.3,4.8,0.2l3.6-0.3v-1.6c0-1.3,0.2-1.6,1.2-2c1.7-0.7,2.1-0.6,1.9,0.3c-0.1,0.5,0,1.1,0.1,1.5c0.7,1,3.6-1.1,4.5-3.2
		c0.6-1.3,1.2-1.8,3.2-2.5c1.4-0.5,3.1-1,4-1.1c1.3-0.2,1.7-0.6,2.7-2.5c0.8-1.6,1.7-2.5,3-3.2C528.2,62.5,528.6,61.9,527.6,61.5z"
		/>
	<path fill="#FFFFFF" d="M159.1,410.7c0,0.3-0.4,0.4-0.9,0.2c-1.1-0.3-2.1,0.8-1.8,2.1c0.1,0.8,0.5,1,1.9,1.1c0.9,0,1.9,0,2.1-0.2
		c0.6-0.4,1.5-3.2,1.2-3.5C161,410,159.1,410.2,159.1,410.7z"/>
	<path fill="#FFFFFF" d="M162.2,409c0.4-0.9-0.2-2.1-1.2-2.5c-0.4-0.1-0.5,0.2-0.2,1.2C161.2,409.5,161.8,410,162.2,409z"/>
	<path fill="#FFFFFF" d="M161.4,451.3c0,0.9,1.3,1.8,2.5,1.8c0.4,0,0.8-0.6,1.1-1.3c0.3-1,0.1-1.8-0.9-4.1c-1.8-3.8-1.7-5.7,0.4-9.3
		c0.9-1.6,1.8-2.9,1.8-3c0-0.1,0.8,0.2,1.8,0.6c1.8,0.7,2,1.4,1.2,3.2c-0.5,1.1-0.6,1.1-1.8,0.4c-1.5-0.8-3-0.5-2.5,0.7
		c0.2,0.5,0.7,0.7,1.4,0.5c1.1-0.2,1.1,0,1.1,2.1c0,1.4,0.3,2.7,0.7,3.1c0.9,1,1.1,2.9,0.4,4.1c-0.3,0.6-0.6,1.4-0.6,2
		s-0.5,1.6-1.2,2.4c-0.7,0.7-1.2,1.7-1.2,2c0,1,0.7,1.2,1.4,0.5c0.3-0.4,1.7-1,3-1.4c1.8-0.5,2.6-1.1,3.2-2.1
		c0.5-0.8,1.5-1.7,2.4-2.1c1.8-0.7,2.4-1.4,1.7-1.9c-0.3-0.2-0.3-0.5-0.2-0.8c0.2-0.3,0-0.8-0.5-1.1c-0.7-0.6-0.8-0.8-0.3-1.8
		c0.7-1.7,3.4-1.6,4.5,0c0.6,0.8,1.1,1.1,2,1c1-0.1,1.3-0.5,1.9-2.5c0.4-1.3,1.2-3,1.9-3.9c1.1-1.4,1.2-2.1,1.5-6.8
		c0.2-4.2,0.5-5.5,1.3-7c0.6-0.9,1-2.2,1-2.9c0-1.9,2.9-8.2,3.9-8.5c0.5-0.1,0.7-0.5,0.6-0.9c-0.1-0.4,0-0.9,0.3-1.1
		c0.5-0.3,0.5-0.6,0-1.3c-0.7-1.1-0.3-2.4,0.6-2.4c0.4,0,0.8-0.5,1.1-1.1c0.3-0.8,2.9-3.3,6-5.9c0.3-0.3,0.6-1,0.6-1.5
		c0-0.6,0.2-1.3,0.6-1.6c0.4-0.4,0.2-0.7-0.7-1c-0.7-0.2-1.5-0.5-1.7-0.5c-0.7,0-0.4-0.9,0.7-2.1c0.7-0.7,1.2-1.4,1.2-1.5
		c0-0.2-0.9-0.6-2.1-0.7c-2.5-0.4-2.9-0.9-1.9-2.4c1.6-2.4,1.2-2.7-3.5-2.5c-4.4,0.1-4.7,0-4.7-2c0-0.7,0.3-0.9,1.2-0.9
		c0.7,0,1.9-0.7,3-1.7c1.7-1.6,1.9-1.9,1.9-4.2c0-2.4,0-2.5-2-3.7c-2.6-1.5-3.4-1.5-5.3,0.2c-1.9,1.6-4.5,2.2-5.7,1.4
		c-0.4-0.4-1.6-0.9-2.6-1.1c-1.5-0.4-2-0.7-2.3-1.9c-0.2-0.8-0.7-1.7-1.1-2.1c-0.7-0.8-0.9-3.5-0.2-3.9c0.7-0.4,0.6-2.4-0.1-2.7
		c-0.4-0.1-0.3-0.5,0.4-1.3c1.3-1.3,2.5-1,3.6,0.9c0.5,0.9,1.3,1.4,2.3,1.6c1.3,0.2,1.7,0,2.8-1.2c0.7-0.8,1.4-1.3,1.7-1.1
		c0.3,0.2,0.9,0.1,1.4-0.1c0.6-0.3,1-0.3,1.4,0c0.3,0.3,1.2,0.2,2.9-0.4c3-1.1,4.7-0.5,4.4,1.4c-0.3,1.4,0.4,1.6,1.3,0.5
		c0.8-1,1.3-0.9,2.1,0.7c0.4,0.8,1,1.4,1.4,1.4c0.3,0,1.4,0.6,2.4,1.4c1,0.7,1.8,1.4,1.9,1.4c0,0,0-0.6-0.1-1.2
		c-0.1-0.8,0.1-1.5,1.1-2.5c0.9-0.9,1.2-1.6,1-2.3c-0.1-0.6,0-1.6,0.2-2.2c0.3-0.7,0.5-2.1,0.5-3c0-1.5,0.3-2,1.9-3.3
		c1.4-1.1,2.3-1.5,3.7-1.5c1.6,0,1.8,0.1,1.8,1c0,0.7-0.3,1.1-0.7,1.1c-0.4,0-0.7,0.2-0.7,0.5c0,0.2-0.3,0.5-0.7,0.5
		c-1,0-0.6,1.6,0.5,1.8c0.5,0.1,1,0,1.2-0.3s1.1-0.3,2.8,0c2.4,0.5,2.4,0.5,4.2-1.2c0.9-0.9,1.7-1.4,2.9-1.8
		c-7.4-5.9-14.3-12.5-20.4-19.7c-0.9,0.8-1.8,1.6-2.7,2.4c-2.4,2.3-4.7,4.2-5.1,4.2c-2,0-5,2-8.2,5.6c-3.6,4-4.3,4.3-6.7,3
		c-2-1-4.8-0.5-7.1,1.4c-1.9,1.5-2.2,2.7-1.1,3.6c1.1,0.9,0.9,2.9-0.3,3.1c-0.8,0.2-0.9,0.5-0.7,2c0.1,0.9,0.3,2.1,0.3,2.5
		c0,0.5,0.3,0.8,0.7,0.8c1.5,0,0.2,1.5-1.4,1.6c-0.2,0-0.7,0.2-1,0.4c-0.4,0.2-0.9,0-1.4-0.6c-0.9-1.1-2-1.2-2.9-0.3
		c-0.3,0.3-1.6,0.8-2.8,1c-2.1,0.5-2.2,0.6-2.3,2.2c-0.1,1.3-0.6,2.1-1.7,3.1c-1.4,1.2-1.5,1.4-0.9,1.8c1,0.6,0.1,1.2-1.7,1.2
		c-0.9,0-1.5-0.3-1.9-1c-0.7-1.3-1.1-1.3-1.7,0.1c-0.3,0.7-0.8,1.2-1.3,1.2c-0.9,0-0.9,0.9,0,1.2c1.1,0.4,0.8,1-0.7,1.5
		c-2.3,0.8-3.7,0.7-4-0.4c-0.3-1.3-1.9-1.2-2.6,0.2c-0.3,0.7-0.8,1.2-1.2,1.2c-0.6,0-0.5,0.2,0,1c0.4,0.6,0.7,1.8,0.7,2.7l0,1.6
		l-1-1.3c-0.6-0.7-1.4-1.3-1.8-1.3c-0.4,0-1-0.3-1.3-0.7c-0.3-0.4-0.8-0.6-1-0.4c-0.4,0.3-1.3,2.2-1.5,3.3c0,0.3-0.2,0.7-0.4,0.9
		c-0.7,0.7-0.3,1.5,0.8,1.8c0.7,0.2,1.4,0.8,1.6,1.5c0.3,0.7,0.7,1.1,0.9,0.9c0.3-0.1,0.7,0.2,1,0.7c0.3,0.5,1.2,1.2,2.1,1.6
		c1.8,0.7,2.8,2.4,3.2,5.3l0.2,2l-1.2-0.7c-0.7-0.5-1.6-0.7-2.3-0.5c-1.2,0.3-1.4-0.2-0.7-1.5c0.5-1-1.3-3.9-2.9-4.8
		c-1.2-0.6-1.1-0.7-1.7,2.1c-0.7,2.9-0.2,4,1.9,5.7c0.9,0.7,1.7,1.6,1.7,1.9c0,0.3,0.3,0.7,0.7,0.8c0.6,0.2,0.5,0.6-0.5,2
		c-1.3,1.9-1.5,3.4-0.5,3.4c0.4,0,0.7-0.4,0.7-1.1c0-0.8,0.3-1.2,1-1.3c0.6-0.1,1.3-0.7,1.6-1.4c0.8-1.7,1.5-2.1,3.9-2.5
		c1.8-0.2,2.2-0.1,2.7,0.6c0.4,0.7,0.4,1.2-0.1,2.2c-0.6,1.2-0.5,3.3,0.2,2.9c0.2-0.1,1.2-0.6,2.2-1c1.6-0.7,4-3.4,4-4.5
		c0-0.2-0.5-1-1-1.7c-0.9-1.2-1.2-1.3-3.3-1c-2.4,0.3-2.8,0-1.3-1.3c1.1-1,1.2-3,0.2-5c-0.7-1.4-0.7-1.4,0.7-2.8
		c1.1-1.1,1.4-1.2,1.6-0.7c0.1,0.4,0.7,0.7,1.1,0.7c1,0,2.4,2.7,2.4,4.6c0,0.8,0.5,1.7,1.2,2.4c0.7,0.6,1.8,2.1,2.6,3.3
		c1.4,2.1,1.4,2.3,0.7,3.4c-0.4,0.6-1.3,1.5-1.9,1.9c-1.7,1.1-1.4,1.7,0.7,1.4c1.3-0.2,1.9-0.1,1.9,0.2c0,0.3-0.3,0.7-0.7,0.8
		c-0.4,0.1-0.8,1.2-1,2.5c-0.2,1.3-0.6,2.4-0.9,2.5c-0.3,0.1-0.8,1.2-1.2,2.3c-0.3,1.1-1.4,3.1-2.3,4.3c-1.4,1.8-2,2.3-3.1,2.3
		c-2.3,0-2.5,0.4-2.5,4.6c0,2.9-0.2,4.1-0.7,4.5c-1,0.8-0.9,1,0.9,3c1.3,1.4,1.6,2.2,1.6,3.7c0,1,0.1,2.4,0.3,2.9
		c0.4,1.5-1.6,3.4-3.9,3.5c-1.6,0-1.7,0-0.7,0.5c0.7,0.3,1,0.9,1,1.8c0,2.1,0.7,2.6,4.5,3C160.9,450.4,161.4,450.5,161.4,451.3z"/>
	<path fill="#FFFFFF" d="M118,400.6c-0.4,0.6-0.7,0.7-0.8,0.3c-0.4-0.8-1.5-0.7-2,0.2c-0.2,0.5-0.6,1.5-0.7,2.4
		c-0.3,1.6-0.3,1.7,2.4,2.1c1.3,0.2,1.6,0.1,1.8-0.7c0.2-0.7,0.5-0.9,1.1-0.7c1.1,0.4,1.2-1.2,0.1-2.1c-0.4-0.3-0.9-1-1.1-1.5
		C118.6,399.7,118.6,399.7,118,400.6z"/>
	<path fill="#FFFFFF" d="M417.1,11c1.4-0.5,0.2-5-1.4-5c-0.6,0-0.7,0.4-0.4,1.7C415.8,10,416.4,11.3,417.1,11z"/>
	<path fill="#FFFFFF" d="M423.4,16.2c1.3-1.3,1.3-1.8,0.2-2.8c-1.4-1.2-2.8-1.3-3.7-0.3c-0.6,0.7-0.7,1-0.3,1.4
		c0.3,0.3,0.6,1,0.6,1.6C420.2,17.6,422.1,17.6,423.4,16.2z"/>
	<path fill="#FFFFFF" d="M433.8,138.1l0.1-6l-1.6,1c-0.9,0.5-1.9,1-2.3,1c-0.4,0-1.6-0.9-2.8-2.1c-1.5-1.6-2.4-2.1-3.9-2.3l-1.9-0.2
		l-0.3,0.7c2.5,2.3,4.9,4.7,7.3,7.1c0.1,0.1,0.2,0.2,0.4,0.4c1.7,1.8,3.4,3.7,5,5.6C433.7,141.8,433.7,139.9,433.8,138.1z"/>
	<path fill="#FFFFFF" d="M211.4,370.1c0.3-0.3,1.1-0.5,1.8-0.3c0.9,0.2,1.5,0,2.1-0.8l0.9-1l-1.6,0.2c-1,0.1-2,0-2.6-0.4
		c-0.8-0.6-1.1-0.6-1.8,0.3c-0.8,0.9-0.8,1-0.1,1.7C210.7,370.5,211.1,370.5,211.4,370.1z"/>
	<path fill="#FFFFFF" d="M227,358.9c0.3,0.9,1.2,0.9,1.7-0.1c0.2-0.3,0.2-0.5,0.3-0.6c-0.1-0.1-0.2-0.1-0.3-0.2
		c-0.2,0-0.5,0.1-1.1,0.2C227.1,358.3,226.9,358.6,227,358.9z"/>
	<path fill="#FFFFFF" d="M231.5,397.1c0.6,0,1.3-0.7,1.9-1.9c0.5-1,1.2-1.9,1.4-1.9c0.7,0,1.9-2.6,1.9-4.3c0-1.6,0.7-2.7,1.7-2.7
		c0.3,0,1.4-0.6,2.5-1.4c1-0.7,3.2-1.7,5-2.2c2.9-0.7,3.2-0.7,5.5,0c2.5,0.8,3.2,1.4,7.3,5.9c1.6,1.8,2.4,2.3,2.5,1.9
		c1.6-5.9,3.3-9.5,5.4-11.3c-8.3-3.2-16.2-7.1-23.7-11.6l-2.2-0.2c-2.3-0.2-3-0.1-4.1,0.7c-1.7,1.2-3.4,0.8-4.1-0.9
		c-0.7-1.8-2.7-3.8-3.7-3.8c-1.1,0-4.6,3-5,4.3c-0.1,0.6-0.5,1.4-0.7,2c-0.2,0.5-0.5,1.5-0.7,2.2c-0.1,0.8-1.4,2.3-2.9,3.7
		c-1.4,1.4-3.3,3-4,3.7c-0.7,0.7-3.5,2.3-6,3.6c-2.6,1.3-4.6,2.5-4.6,2.8c0,0.6,1.7,0.1,3-0.8c0.5-0.4,1.3-0.7,1.7-0.7
		s1.3-0.4,2-0.9c1.6-1.3,2.8-1.2,2.4,0.1c-0.1,0.6-0.3,1.8-0.3,2.7c-0.1,1.4,0,1.6,1.3,1.9c0.8,0.1,1.4,0.5,1.4,0.7
		c0,0.3,0.1,0.7,0.3,1s0.2,0.9,0,1.5c-0.2,0.8-0.4,0.9-1.1,0.5c-1.4-0.7-1.8,0.9-0.5,1.9c1.2,0.9,0.7,2.2-0.8,1.8
		c-0.7-0.1-1,0-1,0.4c0,0.4,0.4,0.7,0.8,0.7c0.5,0,1.3,0.4,1.7,0.9c0.5,0.5,0.6,0.9,0.3,0.9c-0.6,0-0.8,1.5-0.3,2
		c0.2,0.1,0.8,0,1.4-0.5c0.8-0.6,1.3-0.6,1.7-0.2c0.3,0.3,0.9,0.5,1.4,0.5c1.1,0,1.1,0.5,0,2.8l-0.9,1.9h1.4c0.8,0,1.8,0.2,2.1,0.4
		c0.5,0.3,1,0.2,1.6-0.2c1.3-0.9,1.4-0.8,3,0.6c1.3,1,1.5,1.1,1.7,0.4c0.2-0.4,0-1.2-0.2-1.8c-0.4-0.8-0.4-1.6,0.1-3.7
		C230.2,397.4,230.4,397.1,231.5,397.1z"/>
	<path fill="#FFFFFF" d="M146.5,371.2c0.5-1,0.4-1.4-0.6-2.3c-0.6-0.7-1.2-1.2-1.4-1.2c-0.2,0-0.6,0.9-0.9,2c-0.5,1.6-0.5,2,0,2.3
		C144.9,372.7,146,372.3,146.5,371.2z"/>
	<path fill="#FFFFFF" d="M231.2,360C231.2,360,231.2,359.9,231.2,360c-0.3-0.4-0.7-0.6-1-0.9c0,0.1,0,0.3,0,0.4
		C230.3,360.8,230.4,360.8,231.2,360z"/>
	<path fill="#FFFFFF" d="M175.2,463.8c-1.2,1.4-3.1,5.6-3.1,7c0,0.7-0.5,1.8-1.2,2.6c-1.1,1.4-1.4,2.9-0.9,4.3
		c0.2,0.6,0.5,0.6,1.4,0.2c0.8-0.4,1.1-0.9,1.1-2.1c0-1.1,0.5-2.1,1.4-3.1c0.8-0.9,1.4-2,1.4-2.4c0-0.5,0.2-1.2,0.5-1.7
		c0.2-0.5,0.4-2,0.3-3.3C176.1,462.9,176.1,462.9,175.2,463.8z"/>
	<path fill="#FFFFFF" d="M218.2,362.9c1.4,0.2,1.4,0.2,0.5-0.8c-1.1-1.2-2.3-1.3-2.1-0.2C216.7,362.4,217.3,362.8,218.2,362.9z"/>
	<path fill="#FFFFFF" d="M133,352l1.4,0.5c1,0.3,1.9,0.4,2.5,0.1c0.8-0.4,0.9-0.7,0.7-2c-0.2-1.3,0-1.8,1.2-3c1.7-1.7,2.1-3.2,1.6-5
		c-0.6-1.7-1.2-1.8-2.3-0.6c-0.5,0.6-1.4,1.2-1.9,1.4c-1.1,0.4-1.4,2-0.6,2.5c0.4,0.2,0.4,0.5,0,0.9c-0.3,0.3-0.4,0.9-0.2,1.2
		c0.1,0.4-0.4,1.4-1.1,2.3L133,352z"/>
	<path fill="#FFFFFF" d="M127.1,397.4c0.1-0.6,0.9-1.5,1.6-2.1c1.6-1.2,2-2.7,0.5-1.9c-1.3,0.7-1.4,0.6-1.5-0.6
		c-0.1-1-0.2-0.9-1.2,0.5c-0.8,1.2-1,1.8-0.7,3.4C126,398.7,126.7,399.1,127.1,397.4z"/>
	<path fill="#FFFFFF" d="M124,402.2c0.6,0,1-1.3,0.6-1.6c-0.2-0.1-0.5-0.1-0.7,0C123.4,401.1,123.5,402.2,124,402.2z"/>
	<path fill="#FFFFFF" d="M124.8,398c0.4,0,0.7-0.4,0.7-0.9c0-1-0.3-1.2-1.4-0.5C123.3,397,123.8,398,124.8,398z"/>
	<path fill="#FFFFFF" d="M121.3,400.8c0.7-1.2,0.5-1.8-0.7-1.8c-0.7,0-1.2,0.3-1.2,0.7c0,0.3,0.3,0.9,0.7,1.3
		C120.7,401.3,120.9,401.3,121.3,400.8z"/>
	<path fill="#FFFFFF" d="M123.4,398.8c0.1-0.1,0.1-0.4-0.1-0.7c-0.4-0.6-1.6-0.7-1.6-0.1C121.7,398.4,123.1,399.1,123.4,398.8z"/>
	<path fill="#FFFFFF" d="M147.1,430.9c0.4-1.1,0.4-1.1-0.9-1.1c-0.9,0-1.2,0.2-0.9,0.7c0.1,0.4,0.3,0.8,0.3,0.9
		C145.5,432,146.9,431.6,147.1,430.9z"/>
	<path fill="#FFFFFF" d="M132.2,354.9c-1.2,2.9-1.1,4,0.4,4.5c1.2,0.4,1.4,0.3,2.1-0.7c0.4-0.6,0.7-1.5,0.7-2
		c-0.1-0.5,0.3-1.4,0.9-2l1-1.1h-1.4c-0.8,0-1.8-0.1-2.2-0.3C133.1,353.1,132.7,353.5,132.2,354.9z"/>
	<path fill="#FFFFFF" d="M138.8,382.6c-0.5,0.6-1.2,1-1.5,1c-0.3,0-0.7,0.7-0.9,1.5c-0.2,0.8-0.7,1.9-1.1,2.4
		c-1.1,1.2-0.3,1.5,1.4,0.5c1.1-0.6,1.8-1.6,2.4-3.1C140.1,382,140,381.3,138.8,382.6z"/>
	<path fill="#FFFFFF" d="M163.9,479.7c1.1-1.6,0.9-2.4-1-4l-1.8-1.4l-2,0.9c-1.7,0.8-1.9,1.1-1.7,2.1c0.1,0.7,0.3,1.7,0.5,2.3
		c0,0.2,0.1,0.3,0.2,0.4h5.6C163.8,479.9,163.8,479.8,163.9,479.7z"/>
	<path fill="#FFFFFF" d="M150,417.3c-1.4,0.7-1.4,0.7-0.6,1.5c0.4,0.4,1.2,0.7,1.7,0.7c0.7,0,1,0.3,1,1.1c0,1.3,1.1,2.4,2.1,2
		c0.5-0.2,0.7-0.7,0.6-1.8c-0.1-1.2-0.4-1.6-1.2-1.7c-1.4-0.2-1.4-0.9,0.4-2.5c1.3-1.2,1.4-1.7,1.5-4l0.1-2.7l-2.2-0.2
		c-1.2-0.2-2.3-0.2-2.4,0c-0.1,0.1-0.2,0.7-0.2,1.3c0,0.6-0.2,1.2-0.5,1.4c-0.7,0.4-0.6,4.4,0.1,4.4
		C150.6,416.7,150.5,417,150,417.3z"/>
	<path fill="#FFFFFF" d="M140,436.8c0.6,0,3.2-2.7,3.2-3.3c0-0.4-0.2-0.5-1.4-0.1c-0.4,0.1-1.1,0.8-1.5,1.5
		C139.3,436.5,139.3,436.8,140,436.8z"/>
	<path fill="#D30000" d="M401.6,115.9c0.5,1.7,0.4,2.4-0.9,6.2c-0.8,2.4-1.4,5.1-1.4,6c0,2.4,1.3,5.5,2.3,5.5c0.5,0,1.4,0.1,2.1,0.3
		c1.2,0.2,1.4,0.1,1.9-1.2c0.3-0.9,0.8-1.4,1.4-1.4c1.8,0,2.7-1.2,2.7-3.6c0-2,0.1-2.3,1.3-2.9c0.6-0.3,1.3-0.9,1.9-1.5
		c-3.8-3-7.7-5.8-11.8-8.5C401.3,115.1,401.5,115.5,401.6,115.9z"/>
	<path fill="#D30000" d="M262.2,352.3c0.3,0.3,1.2,0.6,2.1,0.6c1.4,0,1.5-0.1,1.7-1.5c0.2-1.6,0-1.7-4-1.2c-1.5,0.2-2.3,1.5-0.9,1.5
		C261.4,351.8,262,352,262.2,352.3z"/>
	<path fill="#D30000" d="M282.3,350.2c-0.1-1-0.3-1.1-1.1-0.7c-1.6,0.8-3.6,2.9-4.4,4.6c-0.5,0.9-1.3,2.1-1.8,2.5
		c-1,0.9-1.4,3.6-0.5,3.6c0.3,0,0.5,0.3,0.5,0.7c0,0.9,1.5,0.7,4.2-0.7c1.3-0.7,1.6-1,1.5-2c-0.3-2.9-0.1-4.2,0.8-5.5
		C282.1,352,282.4,350.9,282.3,350.2z"/>
	<path fill="#D30000" d="M387.2,108.8c-1.3,0.6-1.7,2-0.9,3.5c0.6,1.1,0.7,1.2,1.3,0.5c0.7-0.8,1.5-4.5,1-4.4
		C388.4,108.4,387.8,108.6,387.2,108.8z"/>
	<path fill="#D30000" d="M421.1,130.2l-1,2.1c-1.5,3.4-2.1,7.8-1.3,8.9c0.5,0.7,0.8,0.6,2.6-0.5c1.1-0.7,2.4-1.2,3-1.2
		c0.5,0,1.5-0.5,2.1-1.2s1.4-1.2,1.6-1.2c0,0,0.1,0,0.2,0.1C426,134.9,423.6,132.5,421.1,130.2z"/>
	<path fill="#D30000" d="M227.3,356.9c0.5-0.2,1.1-0.3,1.8-0.5c1.6-0.3,3.1-0.8,3.2-1.1c0.1-0.3,1.6-0.6,3.8-0.6
		c3.5-0.1,3.6-0.1,5.1-1.7c1.7-1.9,1.7-1.9,3-1.2c0.7,0.4,1.3,0.2,2.7-0.5l1.7-1l1.5,1.6c1.2,1.4,1.6,1.5,2.2,1
		c0.4-0.3,1.2-0.5,1.6-0.3c0.5,0.1,1.6-0.4,2.8-1.4c1.5-1.3,1.8-1.7,1.4-2.2c-0.5-0.5-0.4-0.6,0.3-0.3c1.1,0.4,3.2-0.1,3-0.8
		c-0.2-0.7,1.6-2.4,3.2-3c0.7-0.3,2.7-0.7,4.4-0.9c1.7-0.2,3.4-0.6,3.8-0.7c0.4-0.2,1.5,0.2,2.8,1.1c1.1,0.7,2.3,1.4,2.6,1.4
		c0.3,0,1.4,0.6,2.3,1.2c1.5,1,2.1,1.2,3.8,0.9c1.2-0.1,2.5-0.7,3.1-1.2c1.3-1.2,4.3-1.2,5.7,0c1.1,0.9,1.4,2.1,0.6,2.6
		c-0.2,0.1-0.5,0.8-0.5,1.4s-0.3,1.1-0.7,1.1c-0.3,0-1.4,1-2.2,2.3c-1,1.5-1.9,2.3-2.6,2.3c-0.5,0-1.6,0.5-2.5,1.1
		c-1.4,1.1-1.5,1.2-0.6,1.6c1.2,0.7,1.5,3.1,0.7,4.8c-0.4,0.7-0.5,1.8-0.4,2.3c0.2,0.6,0,1.3-0.3,1.7c-1.2,1.4-0.9,2.8,0.8,3.9
		c0.9,0.5,1.9,1.6,2.3,2.4c0.6,1.1,0.8,1.3,1.4,0.8s0.9-0.4,1.7,0.4c0.8,0.8,0.9,1.2,0.5,1.9c-1.2,1.9,4.3,5.7,8.3,5.7
		c0.6,0,1.3,0.3,1.6,0.7c0.5,0.7,0.7,0.6,1.9-0.6c0.7-0.7,1.7-1.6,2.1-1.8c0.4-0.2,1.5-2.2,2.6-4.4c2-4.2,4.3-7.5,5.3-7.5
		c0.3,0,0.6-0.3,0.6-0.7s0.3-0.7,0.7-0.7c0.6,0,0.7-0.3,0.5-1.6c-0.3-1.4-0.2-1.6,0.7-1.6c0.8,0,0.9-0.2,0.7-1.1
		c-0.4-1.5,0.9-3.1,2.4-3.1c0.7,0,1.8-0.4,2.4-0.8c0.6-0.4,1.6-0.8,2.2-0.8c0.6,0,1.5-0.5,1.9-1.1c0.8-1.1,0.8-1.1,1.1-0.1
		c0.2,1,1.4,1.4,2,0.5c0.5-0.7,1.2-0.6,1.2,0.3c0,1.4,1.2,0.3,1.3-1.3c0-0.9,0.4-2.1,0.7-2.6c0.4-0.9,0.3-1.2-0.8-2.2
		c-0.7-0.6-2-1.3-2.7-1.4c-0.7-0.2-2.1-0.8-2.9-1.4s-1.7-1.2-2-1.2c-0.2,0-0.8-0.9-1.3-2.1c-0.8-2.1-0.7-2.1,0.2-3.2
		c1.3-1.4,3.4-5.4,3.4-6.5c0-0.5,0.4-1,0.8-1.2c0.4-0.2,1.3-0.7,1.9-1.2c1.6-1.2,2-0.5,1.3,2c-0.4,1.2-0.5,2.5-0.2,3
		c0.2,0.5,0.4,1.6,0.4,2.5c0,1.6,0.7,3.4,1.4,3.4c0.2,0,0.6-0.2,1-0.4c0.5-0.3,0.5-0.6-0.2-1.6c-0.6-0.9-0.7-1.4-0.3-1.8
		c0.3-0.4,0.3-0.8,0.1-1.3c-0.3-0.5-0.2-1,0.3-1.5c0.9-1,1.5-0.3,1.5,1.5c0,0.7,0.2,1.4,0.6,1.8c0.7,0.7,3.4,0.7,5.4,0
		c1.4-0.5,1.7-0.5,2.1,0.1c1.1,1.8-0.9,3.9-4.3,4.6c-1.5,0.3-2.7,1.6-2.1,2.2c0.2,0.2,2.7-0.5,5.6-1.4c2.9-0.9,5.8-1.7,6.4-1.7
		c1.5,0,2-0.4,1.3-1.2c-0.3-0.3-0.4-0.8-0.2-1.1c0.3-0.6,2,1.3,1.7,2c0,0.2,2,0.4,4.6,0.4c3.6,0,5.2,0.2,7,0.9
		c3.5,1.4,4.2,1.3,3.9-0.6c-0.2-1.2,0-1.9,1.4-3.7c0.9-1.2,1.7-2.5,1.7-2.9c0-0.4,1-1.4,2.2-2.2c1.8-1.2,2.3-1.7,2.3-2.8
		c0-1.9,0.9-2.6,3.9-2.9c2.4-0.3,2.7-0.2,3.4,0.8c1,1.5,0.9,1.8-0.3,2.4c-1,0.4-1.1,0.7-0.9,3.6c0.1,1.9,0,3.2-0.3,3.4
		c-0.9,0.6-0.6,3,0.6,4.3c1.1,1.3,1.1,1.3,3.2,0.6c1.9-0.7,2.1-0.9,3.1-3.7c0.6-1.6,1.4-3.3,1.7-3.7c0.3-0.4,0.8-1.3,1.1-2
		c0.4-1.1,0.4-1.4-0.4-2.1c-1.2-1.1-1.6-3.1-0.7-3.8c0.4-0.3,0.7-1,0.7-1.5c0-1.5,1.4-3.2,3.8-4.3c1.9-1,2.5-1.1,4.4-0.7
		c2.4,0.5,3.5,1.4,3.5,3.1c0,0.6,0.3,1.2,0.7,1.3c0.4,0.2,0.8,0.2,0.8,0.2c0-0.1,0.4-0.9,0.7-1.9c0.5-1.5,0.5-1.9-0.1-2.6
		c-0.4-0.5-0.8-1.8-0.8-3.1c-0.1-2.1,0-2.3,0.9-2.4c0.6-0.1,1.3-0.6,1.7-1.2c0.6-0.9,0.6-1.2,0-1.9c-1-1.4-0.8-2.1,0.7-2.1
		c0.7,0,1.7-0.3,2.2-0.7c1.3-1,2.6-0.8,4.1,0.4c1.3,1,1.3,1.2,0.9,2.9c-0.3,1.4-0.9,2.1-2.4,3.1c-1.1,0.7-2,1.6-2,1.9
		c0,0.4-0.6,0.9-1.4,1.2l-1.4,0.6l1,1.3c0.8,1.1,0.9,1.6,0.6,3.3c-0.2,1.1-0.3,2.9-0.2,4.1c0.1,1.5-0.1,2.2-0.7,2.7
		c-0.6,0.5-0.7,0.7-0.2,0.7c0.4,0,1.1,0.3,1.5,0.8c0.7,0.7,1,0.7,2,0.1c0.7-0.3,1.2-1,1.2-1.5c0-1.3,4.2-5,5.7-5
		c1.2,0,4.5-1.9,5.2-3c0.2-0.3,0.4-2.3,0.4-4.4c0-2.1,0.2-4.7,0.5-5.7c0.7-2.1,4.1-5.2,6.3-5.7c0.8-0.2,2-0.6,2.7-0.8l1.3-0.5
		l-1.6-1.7c-2.4-2.5-6.9-11.6-6.9-14c0-1,0.2-2,0.4-2.1c0.2-0.1,0.3-0.9,0.2-1.6c-0.4-3,3.5-15.8,4.8-15.9c0.3,0,1.2-1,2-2.1
		l1.5-2.1v-10.3c0-11.3-0.3-13.5-2.5-17c-1.2-1.9-1.3-2.5-1.1-4.9c0.2-3.3,1.3-6,2.6-6.9c0.6-0.4,0.9-1,0.8-1.4
		c-0.2-0.7,0.8-1.8,1.3-1.4c0.1,0.1,0.9-0.1,1.6-0.7c2-1.4,3.9-1.3,5.4,0.4c0.9,1,1.7,1.4,2.8,1.4h1.4l-0.9-1.1
		c-1.7-1.9-2.5-5.3-1.3-5.8c0.5-0.1,0.6-0.4,0.3-0.8c-0.2-0.3-0.6-1.4-0.7-2.4c-0.2-1.4-0.1-2.1,0.4-2.5c0.4-0.3,0.6-1,0.5-1.4
		c-0.1-0.5,0.3-1.9,0.9-3.1c1-1.8,1.1-2.5,0.7-3.3c-0.4-0.9-0.4-1.1,0.4-1.1c0.6,0,1.1-0.5,1.4-1.2c0.2-0.7,0.8-1.2,1.3-1.2
		c0.5,0,1.1-0.6,1.4-1.5c0.4-0.8,0.8-2,1.1-2.6c0.2-0.6,0.7-1.2,1.1-1.3c0.7-0.3,0.6-0.4-0.1-0.9c-0.5-0.4-0.7-0.8-0.4-1
		c0.3-0.2,0.5-1.2,0.6-2.2c0-1,0.4-2.1,0.8-2.3c0.4-0.3,0.7-0.9,0.6-1.3c-0.1-0.3,0-1.2,0.2-1.8c0.4-1.2-0.4-3.3-1.3-3.3
		c-0.5,0-0.7-3.8-0.2-4.9c0.2-0.6-1.6-5.5-2.7-7c-0.4-0.7-1.1-1.2-1.4-1.2c-0.4,0-0.7-0.5-0.7-1.3c0-0.7-0.9-3.4-2-6.1
		c-2.1-5-3.9-7.3-6.4-7.7c-1-0.1-1.4-0.7-2.6-4.6c-1.4-4.4-1.5-4.4-2-2.9c-0.7,2-1,1.9-1-0.4c0-1.5,0.2-2,1-2.1
		c0.9-0.2,0.9-0.5,0.6-2.7c-0.1-0.6-0.2-1.7-0.2-3.1c-1.6-1.9-3.3-3.8-5-5.6c0.3,0.4,0.6,0.9,0.9,1.5c1,1.9,1,2.1,0.3,4.3
		c-0.4,1.3-0.8,2.9-1,3.5c-0.1,0.7-0.5,1.5-0.7,1.9c-0.4,0.6-0.6,0.6-1.4-0.1c-0.5-0.4-1-0.8-1.2-0.8c-0.1,0-1.1-0.6-2.1-1.2
		c-1-0.7-2-1.2-2.1-1c-0.1,0.1-0.5,1.3-0.8,2.5c-0.3,1.2-0.7,2.3-1,2.3c-1,0.3-2.1-1.2-2.6-3.4c-1.3-7.1-1.8-7.8-4.7-7.4
		c-1.2,0.2-1.8,0-2.3-0.5c-0.7-0.9-1.4-1-1.4-0.1c0,0.3-0.4,1.2-1,1.8l-0.9,1.2l1,1.4c0.6,0.7,1.3,1.4,1.5,1.4c0.3,0,0,0.2-0.6,0.5
		c-1,0.4-1.1,0.6-0.8,2.9c0.3,2.2,0.2,2.6-0.9,4c-0.9,1-1.8,1.5-3.1,1.7c-1.5,0.3-2.1,0.7-3.7,2.9l-1.8,2.6l0.9,1.2
		c0.5,0.7,0.9,1.8,0.9,2.6c0,0.9,0.5,1.9,1.2,2.7l1.2,1.3l-0.7,3.5c-0.4,1.9-0.7,3.9-0.7,4.4c0,1.3-2.8,3.9-4.1,3.9
		c-0.8,0-1,0.3-1,1.3c0,1.5,1.6,2.6,2.8,1.9c0.4-0.2,1.1-0.5,1.5-0.6c0.6-0.2,0.8-0.7,0.8-2c0-1,0.1-1.4,0.3-1.1
		c0.1,0.4,0.6,1,1,1.3c0.7,0.6,0.7,0.6-0.1,0.6c-1.1,0-0.7,1.9,0.9,4c0.9,1.3,1.1,2,1.1,4.7c0,6-0.5,9.4-1.6,10.5
		c-0.9,1-3.1,8.4-3.1,10.4c0,1.8-1.6,5.8-3,7.6c-1.9,2.3-3.3,5.1-3.7,7.2c-0.2,0.9-0.6,2.1-0.9,2.6c-0.4,0.6-0.6,2.2-0.6,4.2
		c0.1,2.3-0.1,3.8-0.8,5.2c-0.5,1.1-1,2-1.2,2s-2.6,1.5-5.3,3.3c-5.7,3.8-8.2,6.4-8.2,8.6c0,0.8-0.5,2.1-1.2,3.1
		c-0.7,0.9-1.7,2.7-2.3,4c-0.9,2-1.8,2.9-4.4,4.8c-1.8,1.3-3.6,2.9-4,3.6c-0.7,1-1,1.2-2.8,1c-1.9-0.2-2.1-0.1-4.3,2
		c-1.8,1.9-2.6,2.3-3.8,2.3c-0.9,0-2.4,0.5-3.3,1c-0.9,0.6-2.7,1.3-4,1.5c-2.1,0.5-2.4,0.7-2.6,1.9c-0.1,0.8-1,2.1-2.2,3.2l-2,1.7
		l-2.8-1l-2.8-1l0-2c0-1,0.4-2.2,0.7-2.7c0.6-0.7,0.5-1-0.1-2.5c-0.9-1.9-1.2-2-2.1-1c-0.9,1.1-2.3,0-2.3-1.8c0-1.7,1.1-2.5,2.1-1.7
		c0.7,0.5,2.1,0.1,2.1-0.5c0-0.3,1.1-1.1,2.3-1.9c2.1-1.3,2.3-1.6,2.3-3c0-1.2,0.2-1.7,0.9-1.9c1.1-0.3,1.3-2.4,0.2-2.8
		c-0.9-0.4-3.9,0.6-6,2.1c-0.9,0.7-2.9,1.4-4.2,1.8c-3,0.8-3.9,1.6-4.8,4.3c-0.9,2.7-0.9,3.7,0,3.9c0.5,0.1,0.8,0.7,0.9,1.8
		c0,0.9,0.3,2.9,0.4,4.5c0.3,2.5,0.2,3.1-0.8,5.1c-2,3.8-8.1,12.1-10.4,14c-2.6,2.2-3,2.6-5.5,5.6c-2.6,3.2-3.3,4.8-2.4,6
		c0.4,0.5,0.7,1.3,0.7,1.7c0,0.4,0.5,1.1,1.1,1.5c1.5,1,1.9,2.2,1,4.1c-0.6,1.3-0.7,1.4-0.7,0.5c0-1.1-0.4-1.2-1.6-0.7
		c-0.5,0.2-0.7,0.8-0.7,1.9v1.7l-1.9-0.3c-1.5-0.2-1.8-0.1-1.4,0.4c0.7,0.9-0.3,2.5-1.5,2.2c-0.7-0.1-1,0.1-1.2,0.8
		c-0.2,0.7-0.6,1-1.4,1c-1,0-1-0.1-0.6-0.9c0.5-0.9,0.5-0.9-1.2-0.1c-1.4,0.7-1.7,0.7-2.1,0.1c-0.3-0.4-0.5-0.5-0.5-0.3
		s-0.5,0-1.2-0.7c-1.1-1-1.3-1.1-2-0.3c-0.6,0.6-0.7,0.9-0.1,1.4c0.5,0.6,0.5,0.7-0.2,0.7c-0.8,0-2.6-1.6-2.6-2.3
		c0-0.2-0.3-0.5-0.6-0.7c-0.5-0.1-0.5-0.3-0.1-0.8c0.7-0.8,1.1-3.2,0.8-4c-0.3-0.8-3.6-0.8-4.3,0.1c-0.3,0.4-0.9,0.7-1.2,0.7
		c-0.3,0-1,0.5-1.4,1.2c-0.8,1.3-1.9,1.4-3.6,0.6c-0.7-0.4-2.9-0.7-4.9-0.7c-3.9-0.1-7.1,0.9-9.2,2.8c-0.7,0.6-2,0.9-4.4,1.1
		c-1.9,0.1-5.1,0.5-7.1,0.8c-2.8,0.4-4,0.4-5-0.1c-1.2-0.5-1.6-0.4-3.2,0.4c-2.2,1.1-5,1.4-5.8,0.6c-1-1-1.5-0.6-0.6,0.4l0.9,1
		l-1.9-0.3c-2.2-0.4-2.3-0.5-1.9-1.4c0.2-0.6,0.8-0.9,3.5-1.9c0.4-0.1,0.5-0.4,0.3-0.5c-0.4-0.5-6.1-1-6.4-0.7
		c-0.7,0.7-3.5,1.9-4.7,1.9c-0.7,0-2.4,0.6-3.7,1.3c-1.9,1.1-2.3,1.5-2.3,2.6c0,1.5-2.6,4.2-5.3,5.6c-0.9,0.5-1.7,1.1-1.7,1.3
		c0,1-2.5,3.3-4.5,4.2c-0.7,0.4-2.2,1.4-3.8,2.8C213,344.4,219.9,351,227.3,356.9z"/>
	<path fill="#D30000" d="M232,303.4c0,0.1,0.3,0.4,0.7,0.7c0.6,0.5,0.7,0.5,0.7-0.2c0-0.4-0.3-0.7-0.7-0.7S232,303.3,232,303.4z"/>
	<path fill="#D30000" d="M267.8,378.4c0.8-0.4,2-1.2,2.6-1.9c0.6-0.7,1.8-1.7,2.7-2.4c1.3-1,1.5-1.4,1-1.7c-0.5-0.4-0.5-0.7,0.2-1.7
		c0.8-1.2,0.8-1.2-0.9-2.8c-1.9-1.7-2.1-3.2-0.9-4.6c0.7-0.8,0.7-0.9-0.6-2.2c-1-1.1-1.5-1.3-2.1-0.9c-0.7,0.3-1.3,0.2-2.2-0.3
		c-0.8-0.4-1.7-0.7-2.1-0.7c-0.3,0-1.3-0.7-2.1-1.6c-0.9-0.9-1.9-1.5-2.2-1.4c-0.4,0.1-0.7,0-0.7-0.5c0-0.6-0.2-0.7-0.9-0.3
		c-1.2,0.6-4.6,0.6-5,0c-0.4-0.7-1-0.6-1.3,0.2c-0.4,1-4.3,3.6-5.4,3.6c-0.5,0-1.3,0.1-1.7,0.3c-0.7,0.2-0.7,0.4,0,1.6
		c1,2,0.9,2.6-1,4.7l-1.7,1.9l-0.6-0.1c7.5,4.5,15.4,8.4,23.7,11.6C266.9,378.9,267.3,378.6,267.8,378.4z"/>
	<path fill="#D30000" d="M228.7,358c0.1,0.1,0.2,0.1,0.3,0.2C229,358,228.9,358,228.7,358z"/>
	<path fill="#D30000" d="M235.7,301.8c0-0.6-1.3-0.6-1.6,0c-0.2,0.3-0.2,0.6,0,0.7C234.4,302.9,235.7,302.3,235.7,301.8z"/>
	<path fill="#D30000" d="M237.3,294.9c-1.3,3.6,0.2,5.4,2.8,3.5c2-1.5,1.9-2.9-0.1-3.8C237.9,293.6,237.7,293.6,237.3,294.9z"/>
	<path fill="#D30000" d="M365,247.2c1.8-0.5,4.3-3.3,5.1-5.6c0.8-2.3,0.8-2.3-0.8-2.3c-1.9,0-2.1-0.3-1.5-2.1c0.6-1.7,0.7-5,0.2-5
		c-0.2,0-1.2,1-2.2,2.1c-1,1.2-2.1,2.1-2.5,2.1s-0.6,0.6-0.6,1.4c0,0.7-0.2,1.9-0.4,2.6c-0.3,0.8-0.3,1.3,0.2,1.7
		c0.3,0.3,0.7,0.4,0.7,0.2c0-0.2,0.2-0.1,0.5,0.1c0.5,0.5-0.2,3.4-1.1,4.7C362.1,247.7,362.9,247.8,365,247.2z"/>
	<path fill="#D30000" d="M231.3,356.9c-0.4,0-0.8,0.3-1,0.7c-0.1,0.3-0.2,0.9-0.1,1.5c0.4,0.3,0.7,0.5,1.1,0.8
		C232.1,358.9,232.2,356.9,231.3,356.9z"/>
	<path fill="#D30000" d="M233.6,299.7c-1-0.4-0.9-0.4-1.8,0.6c-0.5,0.5-0.8,1-0.8,1.2c0,0.7,1.8,0.3,2.5-0.6
		C234.2,300.1,234.2,300,233.6,299.7z"/>
</g>
</svg>
