<?xml version="1.0" encoding="utf-8"?>
<!-- Generator: Adobe Illustrator 17.1.0, SVG Export Plug-In . SVG Version: 6.00 Build 0)  -->
<!DOCTYPE svg PUBLIC "-//W3C//DTD SVG 1.1//EN" "http://www.w3.org/Graphics/SVG/1.1/DTD/svg11.dtd">
<svg version="1.1" id="flag-icon-css-ke" xmlns="http://www.w3.org/2000/svg" xmlns:xlink="http://www.w3.org/1999/xlink" x="0px"
	 y="0px" viewBox="0 0 640 480" enable-background="new 0 0 640 480" xml:space="preserve">
<g>
	<path fill="#FFFFFF" d="M268.1,336h6.5c-1.1-1.9-2.2-3.9-3.2-5.8L268.1,336z"/>
	<path fill="#FFFFFF" d="M371.9,144h-6.5c1.1,1.9,2.2,3.9,3.2,5.8L371.9,144z"/>
	<path fill="#FFFFFF" d="M365.4,336h6.5l-3.3-5.8C367.5,332.1,366.5,334.1,365.4,336z"/>
	<path fill="#FFFFFF" d="M268.1,323.7c-2.1-4.3-3.8-8.2-5.1-11.7H155.4c11.5,6.3,25.8,14.3,43.3,24H261L268.1,323.7z"/>
	<path fill="#FFFFFF" d="M371.8,156.2c2.1,4.3,3.9,8.3,5.2,11.8h99.5l0.1-24h-97.7L371.8,156.2z"/>
	<path fill="#FFFFFF" d="M371.9,323.7L379,336h116.5c4-4.1,9.7-12.3,9.7-14.1c0-0.9-1.3-2.9-6.7-9.9H377
		C375.7,315.5,374,319.5,371.9,323.7z"/>
	<path fill="#FFFFFF" d="M274.6,144h-6.5l3.3,5.8C272.5,147.9,273.5,145.9,274.6,144z"/>
	<path fill="#FFFFFF" d="M268.2,156.2l-7-12.2H167c0,0.8,0,1.9,0,3.2l0.1,6.1l-1.5,2c-0.8,1-2.2,2.3-2.9,2.7
		c-1.1,0.7-1.4,1.1-1.4,2.4c0,2.1-1.1,4.1-2.8,5c-0.9,0.5-1.5,1.5-1.7,2.6H263C264.3,164.5,266.1,160.5,268.2,156.2z"/>
	<path d="M119.7,17.2c-2.4,3.1-2.7,3.7-2.1,4.3c2.2,2.5,3.5,7.2,3.8,13.1c0.1,2.9,0.9,3.8,3.1,3.8c1.6,0,2.8,0.4,2.8,1
		c0,0.2-0.3,0.4-0.7,0.4s-0.9,0.4-1.1,0.8c-0.7,1.2,0.4,2.3,2.9,2.9c1.8,0.5,2.2,0.8,2.6,2c0.4,1.5,0.5,1.5,3,1.4
		c2.3-0.1,2.6,0,4,1.4c1.3,1.4,1.5,2,1.7,5c0.3,3.3,0.2,3.5-1.1,5c-1.7,1.9-1.9,5-0.4,7.7c0.5,1,1.4,3.6,1.9,5.9
		c0.9,3.7,1.2,4.1,2.6,4.8c1.6,0.7,2,2,3.3,9c0.2,1,1,2.4,2.2,3.6c1.8,1.9,2.1,2,4.4,2c2.3,0,2.5,0,2.9,1.5c0.3,0.8,0.6,3,0.8,4.8
		c0.3,4,1.3,5.7,3.3,6.1c1.3,0.2,1.8,0.7,2.8,2.6c0.7,1.3,1.6,2.9,2.1,3.6l1,1.2l-2.1,1.3c-1.1,0.7-2.2,1.6-2.3,2s1,4,2.5,8.1
		c2.6,6.7,2.8,7.7,2.6,10.2c-0.2,2.6-0.1,2.9,1.4,4.7l1.5,1.9l-1,0.9c-0.7,0.6-0.9,1.1-0.9,3.8h94.2l-0.9-1.5
		c-8.1-1.8-12.6-9.6-17.1-17.4c-3-5.4-15-26.1-20.1-53.1c14.2,12.6,26.3,27.5,35.7,44.1c4.5,7.8,9,15.6,6.9,23.7l2.4,4.2h6.5
		c13.1-23,32.3-48,45.4-48s32.3,25,45.4,48h6.5l2.4-4.2c-2.1-8.1,2.4-15.9,6.9-23.7c9.4-16.6,21.5-31.5,35.7-44.1
		c-5.1,27-17.1,47.7-20.1,53.1c-4.5,7.8-9,15.6-17.1,17.4l-0.9,1.5h97.7l0.2-52l10-9.8l10-9.8l13.1-17.7
		c7.3-9.8,13.1-17.9,12.9-18.1c-0.1-0.2-0.7-0.5-1.4-0.6c-0.7-0.2-2.2-0.9-3.5-1.7c-2.6-1.6-5.3-1.8-8.4-0.7
		c-1.3,0.5-5.4,0.8-13.1,1l-11.3,0.3l-4.2-3.9c-2.3-2.2-4.4-4.3-4.5-4.8c-0.1-0.6-0.7-0.8-1.6-0.8c-2.2,0-2.8-0.5-2.8-1.9
		c0-1.1-0.5-1.7-2.8-3.4l-2.9-2.1l-10.6,4.6c-5.8,2.5-10.8,4.8-11.1,5.1s-1.8,0.7-3.3,1.2s-7.2,2.9-12.5,5.5l-9.7,4.8l-2,4.4
		c-1.7,3.7-2.9,5.4-7.4,10.7c-3,3.5-5.7,6.9-5.9,7.8c-0.6,2.1-2.5,2.3-3.7,0.3c-0.8-1.5-2-1.9-7.3-2.6c-1.3-0.2-2.2-0.5-2.2-0.7
		c0-0.7-1.2-0.5-1.8,0.2c-0.9,1.1-5.5,0.4-8.1-1.2c-2.2-1.4-2.3-1.4-6.9-1.1c-6.2,0.4-10.5-0.5-13.9-3.1c-2.3-1.7-2.6-1.8-3.9-1.4
		c-2.2,0.7-3.6,0.6-5.1-0.5c-1.4-1-1.5-1-3-0.2c-1.4,0.7-3.2,0.8-10.5,0.8c-8.2,0-8.8,0-9.6-0.9c-0.5-0.5-1.1-0.9-1.4-0.9
		c-0.3,0-0.9-0.4-1.3-0.8c-0.4-0.4-11.6-7.9-24.8-16.5C280.2,20.4,276,17.4,276,16.5c0-0.7-0.3-1-1.1-1c-0.7,0-1.3-0.4-1.6-1.2
		c-0.4-0.8-0.9-1.2-1.9-1.2c-0.7,0-2.6-0.7-4.1-1.6l-2.7-1.6l-20.3-0.5l-20.3-0.6L218,4.7l-6-4.2l-38.3-0.3L135.4,0l-6.5,6.8
		C125.4,10.5,121.2,15.2,119.7,17.2z"/>
	<path fill="#006600" d="M198.7,336c13.8,7.6,29.4,16.4,47.2,26.2L261,336H198.7z"/>
	<path fill="#006600" d="M405.8,382.5l-5.4,3L371.9,336h-6.5c-13.1,23-32.3,48-45.4,48s-32.3-25-45.4-48h-6.5l-16.9,29.2
		c7.6,4.2,15.5,8.6,23.8,13.2l28.8,16l1,7.3l1,7.3l-2.1,1.9c-1.9,1.7-2.1,2.1-2.4,4.5l-0.3,2.7h1.6c0.9,0,2.5,0.4,3.6,0.9
		c1.8,0.8,2,1,2,2.7c0,1.1,0.3,2.2,0.8,2.8c1.4,1.5,37.5,28.6,56.1,41.9l17.4,12.5l1.7-1.2c2-1.4,3.2-1.5,4.4-0.4
		c0.6,0.5,1.3,0.6,2.5,0.4c1.5-0.3,1.7-0.5,1.7-1.7c0-0.7,0.5-2,1-2.8l1-1.4l0.8,1.5l0.8,1.5l0.3-2.3c0.4-2.7,1.9-5.7,3.1-6.1
		c0.6-0.2,1-1.1,1.4-2.9c0.9-5.1,2.5-8.7,6.2-14.3c5.8-9,7.6-12.8,8.5-18.5c0.7-4.9,2.5-9.8,4.9-13.6c0.6-0.9,1.2-2.2,1.5-2.8
		c0.3-0.8,1.8-1.9,4.5-3.4l4.1-2.3l-0.1-3.3c-0.1-3.2,0-3.6,2.3-8.2c2.2-4.3,2.3-4.9,1.8-5.6c-1.6-1.8-1.8-2.7-1.3-7.1
		c0.3-2.4,0.7-5,1.1-5.8c1.6-3.9,12.4-8.7,19.5-8.7h3.6l1.9-2.1c1.1-1.1,2.4-2.2,3-2.4c2.9-0.9,4.4-4,3.1-6.4c-0.6-1,0.4-2.8,1-1.8
		c0.2,0.3,0.7,0.3,1.8,0c1.4-0.5,1.5-0.7,1.4-1.9l-0.2-1.4l1.1,1c0.8,0.7,1,1.4,0.8,2.1c-0.2,0.8,0,1.1,0.7,1.1
		c1.9,0,2.8-0.9,2.8-2.6c0-2.2-0.4-3-1.6-3c-1,0-1.2-0.4-1.9-3.4c-0.4-1.9-1.4-4.5-2.1-5.8c-0.7-1.4-1.2-2.6-1.1-2.7
		c1.2-1.1,3.6,0.9,4.1,3.5c0.5,2.2,1.1,1.2,1.4-2.6c0.5-5.1,2.1-4.9,2.1,0.3c0,1.9,0.9,2,3.9,0.7c1.5-0.7,3.4-1.2,4.5-1.2
		c1.9,0,2,0,1.7-1.2c-0.2-1-0.1-1.2,0.7-1.2c0.5,0,1.1,0.3,1.2,0.7c0.5,1.2,3.5-0.2,6.5-3.1c0.3-0.2,0.5-0.5,0.8-0.8H379
		L405.8,382.5z"/>
	<path fill="#FFFFFF" d="M371.8,156.2l7-12.2l0.9-1.5c8.1-1.8,12.6-9.6,17.1-17.4c3-5.4,15-26.1,20.1-53.1
		c-14.2,12.6-26.3,27.5-35.7,44.1c-4.5,7.8-9,15.6-6.9,23.7l-2.4,4.2l-3.3,5.8C369.7,152,370.8,154.1,371.8,156.2z"/>
	<path fill="#FFFFFF" d="M271.5,330.2c-1.2-2.2-2.3-4.4-3.3-6.5L261,336l-15.1,26.2c1.8,1,3.6,2,5.4,3l16.9-29.2L271.5,330.2z"/>
	<path fill="#FFFFFF" d="M371.9,336l28.5,49.5l5.4-3L379,336l-7.1-12.3c-1,2.1-2.1,4.3-3.3,6.5L371.9,336z"/>
	<path fill="#FFFFFF" d="M271.5,149.8l-3.3-5.8l-2.4-4.2c2.1-8.1-2.4-15.9-6.9-23.7c-9.4-16.6-21.5-31.5-35.7-44.1
		c5.1,27,17.1,47.7,20.1,53.1c4.5,7.8,9,15.6,17.1,17.4l0.9,1.5l7,12.2C269.2,154.1,270.3,152,271.5,149.8z"/>
	<path fill="#BB0000" d="M392,240c0,24-6,48-15,72h121.5c-2-2.6-4.6-5.9-7.9-10.1l-14.5-18.5l0.3-95.7l0.1-19.7H377
		C386,192,392,216,392,240z"/>
	<path fill="#BB0000" d="M248,240c0-24,6-48,15-72H156.9c-0.2,1.1-0.1,2.3,0.5,3.1c0.4,0.6,0.7,1.7,0.6,2.4
		c-0.1,1.2-0.4,1.3-3.3,1.7c-2.9,0.4-3.4,0.7-6,2.9c-1.5,1.4-2.8,2.8-2.8,3.2s-0.3,0.6-0.7,0.5c-0.4-0.1-1.4-0.4-2.3-0.6
		c-1.5-0.3-1.6-0.2-2.2,1.2c-0.3,0.8-0.5,2.8-0.5,4.3c0,2.6-0.2,3-2.3,6.1c-1.3,1.8-3.2,3.9-4.3,4.6c-2.2,1.5-2.6,2.2-2.7,4.7
		c0,2.1-1.2,3.2-3.5,3.2c-1.3,0-1.9,0.3-2.7,1.4c-2,2.8-3.3,6.5-3.6,9.9l-0.3,3.4l-4.9,5.6c-2.6,3-4.8,5.6-4.8,5.7
		c0,0,1.3,0,2.8-0.1c2.7-0.2,2.8-0.1,2.8,0.9c0,0.6-0.5,1.5-1,2.2c-1,1-1,1.2-0.3,2.4c0.5,1,1.1,1.3,2.4,1.4c1.1,0.1,1.9,0.5,2.2,1
		c0.2,0.5,1.3,1.2,2.3,1.6c1.7,0.7,1.8,0.8,1.4,1.8c-0.4,0.8-0.3,1.5,0.2,2.9c0.4,0.9,0.7,2.2,0.7,2.6c0,1.5,2.3,1.2,2.9-0.4
		c0.2-0.7,1.1-1.7,1.8-2.2c0.8-0.4,1.5-1.3,1.7-2c0.3-1,0.2-1.7-0.4-5.1c-0.1-0.8,0.3-1,4.1-1.5c3.8-0.5,8-1.8,11.6-3.7
		c1.6-0.8,2.2-0.6,5.1,2.3c5.1,5,7.3,9.3,4.4,8.5c-3.3-1-3.8-0.9-4.5,0.7c-0.8,1.9-2.3,2.2-7.3,1.3c-4.4-0.7-7.4-0.3-8.4,1.2
		c-0.7,1.1-0.7,1.3,0.5,3.3l1.3,2.2l-1.4,1.7c-0.7,0.9-1.6,1.7-1.9,1.8s-0.8-0.7-1.3-1.7c-0.6-1.5-1-1.9-1.8-1.9
		c-0.6,0-1.3,0.1-1.5,0.3c-0.7,0.7-4.3,0-5.4-1c-2.1-1.9-3-1.9-4.4,0c-1,1.3-1.2,2.1-1.1,3.3c0.2,1.5,0.1,1.6-1.1,1.6
		c-1.8,0-4.6,2-4.1,2.9c0.7,1,0.5,2.4-0.5,3.7c-2.2,2.7-0.1,8.2,3.8,10.3c1.3,0.7,2.2,1.5,2.2,1.8c0,0.3-0.6,1.5-1.4,2.7
		c-0.7,1.1-1.4,2.6-1.4,3.2c0,1-0.2,1.2-1.4,1.2c-1.4,0-1.6,0.3-1.5,2.6c0,0.5-0.5,1.7-1.1,2.6c-1.1,1.5-1.1,1.6-0.4,2
		c0.5,0.1,1.6,0.3,2.6,0.3c1.3,0,1.9,0.3,2.2,1c0.3,0.5,1,0.9,1.5,0.9c0.5,0,11.9,6.2,37,20H263C254,288,248,264,248,240z"/>
	<path fill="#BB0000" d="M268.2,156.2c-2.1,4.3-3.9,8.3-5.2,11.8c9,24,15,48,15,72s-6,48-15,72c1.3,3.5,3,7.5,5.1,11.7
		c1,2.1,2.1,4.3,3.3,6.5c1,1.9,2.1,3.8,3.2,5.8c13.1,23,32.3,48,45.4,48s32.3-25,45.4-48c1.1-1.9,2.2-3.9,3.2-5.8
		c1.2-2.2,2.3-4.4,3.3-6.5c2.1-4.3,3.8-8.2,5.1-11.7c-9-24-15-48-15-72s6-48,15-72c-1.3-3.5-3.1-7.5-5.2-11.8
		c-1-2.1-2.1-4.2-3.3-6.4c-1-1.9-2.1-3.8-3.2-5.8C352.3,121,333,96,320,96s-32.3,25-45.4,48c-1.1,1.9-2.2,3.9-3.2,5.8
		C270.3,152,269.2,154.1,268.2,156.2z M317,96.6v126c1-0.4,2-0.6,3-0.6s2,0.2,3,0.6v-126c0,0,12,24,12,63c0,38.9-11.9,62.8-12,63
		c5.2,2,9,9,9,17.4s-3.8,15.4-9,17.4c0.1,0.2,12,24.1,12,63c0,39-12,63-12,63v-126c-1,0.4-2,0.6-3,0.6s-2-0.2-3-0.6v126
		c0,0-12-24-12-63c0-38.9,11.9-62.8,12-63c-5.2-2-9-9-9-17.4s3.8-15.4,9-17.4c-0.1-0.2-12-24.1-12-63C305,120.6,317,96.6,317,96.6z"
		/>
	<path d="M377,312c9-24,15-48,15-72s-6-48-15-72c-9,24-15,48-15,72S368,288,377,312z"/>
	<path d="M263,168c-9,24-15,48-15,72s6,48,15,72c9-24,15-48,15-72S272,192,263,168z"/>
	<path fill="#FFFFFF" d="M317,222.6c-5.2,2-9,9-9,17.4s3.8,15.4,9,17.4c0,0,0,0,0,0v0c1,0.4,2,0.6,3,0.6s2-0.2,3-0.6v0c0,0,0,0,0,0
		c5.2-2,9-9,9-17.4s-3.8-15.4-9-17.4c0,0,0,0,0,0v0c-1-0.4-2-0.6-3-0.6S318,222.2,317,222.6L317,222.6
		C317,222.6,317,222.6,317,222.6z"/>
	<path fill="#FFFFFF" d="M323,257.4v126c0,0,12-24,12-63C335,281.5,323.1,257.6,323,257.4C323,257.4,323,257.4,323,257.4L323,257.4z
		"/>
	<path fill="#FFFFFF" d="M317,222.6C317,222.6,317,222.6,317,222.6L317,222.6l0-126c0,0-12,24-12,63
		C305,198.5,316.9,222.4,317,222.6z"/>
	<path fill="#FFFFFF" d="M317,257.4c-0.1,0.2-12,24.1-12,63c0,39,12,63,12,63L317,257.4L317,257.4C317,257.4,317,257.4,317,257.4z"
		/>
	<path fill="#FFFFFF" d="M323,222.6c0.1-0.2,12-24.1,12-63c0-39-12-63-12-63L323,222.6L323,222.6C323,222.6,323,222.6,323,222.6z"/>
</g>
</svg>
