<?xml version="1.0" encoding="utf-8"?>
<!-- Generator: Adobe Illustrator 17.1.0, SVG Export Plug-In . SVG Version: 6.00 Build 0)  -->
<!DOCTYPE svg PUBLIC "-//W3C//DTD SVG 1.1//EN" "http://www.w3.org/Graphics/SVG/1.1/DTD/svg11.dtd">
<svg version="1.1" id="flag-icon-css-kg" xmlns="http://www.w3.org/2000/svg" xmlns:xlink="http://www.w3.org/1999/xlink" x="0px"
	 y="0px" viewBox="0 0 640 480" enable-background="new 0 0 640 480" xml:space="preserve">
<g>
	<path fill="none" d="M639.9,123.9v4.8c0.6-0.5,0.7-1.2,0.7-2.3c0-1.1-0.2-2.2-0.5-2.4C640.1,123.9,640.1,123.9,639.9,123.9z"/>
	<path fill="#BE0027" d="M315,147.3c-0.5-14.6,4.2-22.2,5.3-34.1c-0.4,0-0.8-0.1-1.2-0.1c-2.1-0.1-4.1-0.6-4.4-1.1
		c-0.4-0.5-1.9-0.9-3.6-0.9c-1.6,0-4.8-0.7-7.2-1.6c-1.1-0.4-2.3-0.8-3.3-1.1c7.1,10.9,5,25,10,39.3
		C311.9,147.5,313.4,147.3,315,147.3z"/>
	<path fill="#BE0027" d="M413.1,234.4c8.2,0.6,16.5,2.7,24.6,4.3c0.8-1.2,1.3-2.2,1.3-2.7c0-2.4,2-4.8,5.2-6.4
		c1.7-0.7,3.9-2.1,4.9-2.9c0.5-0.4,0.9-0.7,1.3-0.9c-10.2,3.7-25.1,2.4-37.6,4.8C412.9,231.9,413,233.1,413.1,234.4z"/>
	<path fill="#BE0027" d="M257.3,171.7c1-0.9,2-1.8,3-2.6c-12.5-14.4-10.9-27.3-27.3-40.7c20.6,4.8,21.5,20.8,36.1,34.2
		c1.1-0.7,2.2-1.5,3.4-2.1c-10-16.3-7.1-29.4-21-43.9c20.1,6.4,16.7,22.4,30.1,39.1c1.3-0.6,2.6-1.2,4-1.7
		c-6.5-17.5-2.3-30.5-14-46.9c18.5,9.5,14.1,26,24,43.5c1.4-0.4,2.9-0.8,4.4-1.1c-3.1-15.7,0.7-27.9-4.2-42.7
		c-0.7-0.4-1.5-1-2.2-1.5c-1.8-1.6-3.1-2.1-4.7-2.1c-1.6,0-2.2-0.3-2.2-0.9c0-2-9.7-5.4-15.4-5.4c-1.6,0-2.2,0.3-2.5,1.2
		c-0.4,1.4-0.7,1.6-7.7,2.5c-4.5,0.6-5.6,0.6-7.5-0.2l-2.2-0.9l-2.8,3l-2.8,3h-4.2c-3.1,0-4.6,0.2-5.9,1.1c-3.8,2.7-5,3.4-6.2,3.4
		c-2.4,0-5.1,2.3-6.8,5.7c-1.3,2.7-1.6,4.2-1.6,8.2c0,4.4-0.2,5.4-2.2,9.4c-2.2,4.4-2.3,4.6-1.9,10.1c0,0.2,0,0.3,0,0.5
		C236.9,144.3,242.2,161.3,257.3,171.7z"/>
	<path fill="#BE0027" d="M325.5,147.3c1.3,0.1,2.7,0.2,4,0.3c1.5-11.9,6-19.5,8.9-28c-1.2,0-2,0-2.4,0.1c-2.6,0.4-5.6-0.8-10.1-4
		C326.4,125.1,323.7,135.3,325.5,147.3z"/>
	<path fill="#BE0027" d="M410.5,263.1c4.9,2,9.5,4.5,14,7.1c1.2-0.4,2.8-1.8,6.4-5.6l0.6-0.6c-6.7-1.4-13.7-3.3-20.2-4.2
		C411,260.9,410.8,262,410.5,263.1z"/>
	<path fill="#BE0027" d="M636.9,124.2l-2.8,0.5l-4.8-4.6c-3.9-3.7-5.2-4.6-6.7-4.6c-1.1,0-2.7-0.4-3.7-0.9
		c-2.6-1.3-14.1-0.9-16.3,0.5c-0.9,0.6-2.8,1.2-4.4,1.4c-2.2,0.3-3.2,0.1-5.7-1.3c-1.7-0.9-3-1.9-3-2.1c0-1.3-5.1-6.2-6.9-6.6
		c-1.1-0.2-3-1.2-4.4-2.3c-2.1-1.6-2.4-2.4-2.8-5.2c-0.2-1.7-0.6-3.5-0.9-3.9s-1.6,0-4,1.2c-3.4,1.7-3.9,1.8-12.5,1.8
		c-7.1,0-10.1-0.2-14.5-1.3c-8.2-2-11.9-2.2-16.3-1.1c-2.1,0.6-5.7,1-8.1,1c-2.2,0-4.7,0.2-5.3,0.6c-0.6,0.4-8.1,0.7-16.6,0.9
		c-12.7,0.2-15.6,0.4-16.9,1.2c-0.8,0.6-2.4,1-3.4,1s-3.6,0.5-5.6,1.1c-3.6,0.9-4,0.9-7.1,0c-1.8-0.6-4.1-1.1-5.2-1.1
		s-2.6-0.5-3.4-1.1c-2.4-1.9-3.2-1.9-12.6-1c-10.4,1.1-11.8,1.5-11.3,3.3c0.3,1.2,0.1,1.3-2.5,1.3c-2.2,0-3.1,0.3-3.5,1.2
		c-0.6,1-1.7,1.2-7.1,1.6c-4.9,0.4-6.7,0.7-8.1,1.7c-1.6,1.2-2.6,1.3-18.3,1.3l-16.6,0.1l-1.2,1.6c-0.7,0.9-1.2,2.1-1.2,2.7
		c0,0.6-0.7,2.2-1.6,3.5c-1.4,2.1-2.5,3-6.2,3.4c-1.8,10.4-9.5,20.4-11.7,33.4c1.3,0.5,2.6,1,3.8,1.6c9.2-19.6,23.9-24.7,26-41.6
		c5.4,18.7-11.2,29.3-16.8,46.3c1.1,0.7,2.3,1.3,3.4,2.1c10.4-16.3,28.2-21.1,32.4-37.1c2.6,20.3-13.7,26.8-23.1,43.9
		c0.9,0.7,1.7,1.4,2.5,2.2c12.7-13.4,29.3-17.1,37.6-31.6c-0.6,19.7-18.8,25.5-30,39.2c0.8,0.9,1.5,1.7,2.2,2.6
		c13.9-10.5,29.6-10.7,42.5-24.7c-1.4,18.2-20.9,20.4-35.9,33.8c0.6,0.9,1.1,1.8,1.7,2.8c15.9-7.9,35-6.7,45.7-17.8
		c-0.5,15.9-23.6,17.7-40.7,27.5c0.5,1.1,0.9,2.1,1.3,3.2c17.3-4.6,36.2-1.9,48-10.1c-2.1,13.8-26.4,13.7-44.6,20.4
		c0.3,1.2,0.6,2.5,0.9,3.7c18.1-1.5,33.3,4.3,49-1.7c-2,3.6-5.2,5.9-9.1,7.4c0.5-0.1,1,0,1.9,0.3c1.7,0.6,2.1,0.6,3.6-0.9
		c1.4-1.4,2.1-1.6,6.6-1.6c3.1,0,5.3-0.3,5.7-0.7s2.4-0.8,4.4-0.9c1.9-0.1,4.7-0.6,6.2-1.1c1.8-0.6,3.9-0.8,7.2-0.6
		c4.1,0.3,5,0.2,9.1-1.6c2.6-1.1,5.6-1.9,6.9-1.9c1.2,0.1,4.2-0.7,6.6-1.6c3.4-1.3,5.3-1.6,10-1.6c8.5,0,9.7-0.9,14.3-9.9
		c2-3.9,4.2-8.7,4.9-10.7c0.9-2.5,1.7-3.7,2.4-3.7c0.6,0,2.4-1.4,4.1-3.1c2.4-2.4,3.6-3.1,5.6-3.4c1.9-0.3,3-0.9,4.3-2.6
		c0.9-1.2,3.9-3.8,6.6-5.8c2.6-2.1,7.6-6.2,10.9-9.3c6-5.6,6.1-5.7,9.7-5.9c3.4-0.2,4-0.6,7.1-3.2c3.2-2.9,6.2-3.8,7.1-2.3
		c0.2,0.3,1.5,0.9,2.9,1.3c4.9,1.3,9.9-2.3,13.1-9.5c0.6-1.4,1.7-2.7,2.6-3.1c0.8-0.4,1.9-1.6,2.3-2.6c1.2-3,4.5-4.7,10.8-5.5
		c4.4-0.6,6-1.1,7.4-2.2c1-0.9,2.6-1.9,3.6-2.5c0.5-0.2,0.8-0.5,1.1-0.7v-4.8C639.4,123.8,638.2,123.9,636.9,124.2z"/>
	<path fill="#BE0027" d="M229.8,261.8c-10.7,1.6-23.4,0.5-34.1,1.5c0.8,0.5,1.6,0.4,3.5,0c2.7-0.5,3.9-0.3,8.2,1.1
		c4.9,1.6,5.1,1.6,7.1,0.6c1.4-0.7,2.3-0.9,3.1-0.4c0.6,0.3,1.8,0.4,2.7,0.2c2.2-0.6,4.7,0.1,4.9,1.4c0.2,0.9-0.4,1.1-5,1.1H215
		l-3.5,3.1c-0.9,0.8-1.8,1.8-2.6,2.7c7.6-2.4,15.7-4.2,22.1-6.9C230.6,264.8,230.2,263.3,229.8,261.8z"/>
	<path fill="#BE0027" d="M262.8,313.3c-1-0.8-2-1.6-3-2.4c-11.4,13.5-29.2,19.3-36,32.9c-2.4-17.2,18.4-27,28.1-40.5
		c-0.9-1-1.8-2-2.7-3c-13,11.6-32.6,14.6-40.3,27.6c-1.1-17.4,21.8-22.7,34.1-35.7c-0.8-1.1-1.5-2.3-2.2-3.5
		c-13.7,8.4-34.5,9.3-44.3,20.3c1.5-15.7,25.5-20,39.3-29.7c-0.6-1.3-1.1-2.5-1.7-3.8c-10.9,4.4-24.2,4.7-35.5,7.8
		c0,0,0,0.1,0.1,0.1c0.5,1.1,0.8,2.1,0.6,2.2c-0.2,0.2-2.1,0.6-4.2,0.7c-2.2,0.2-3.2,0.3-4.4-0.1c-1.4,0.7-2.7,1.5-3.9,2.4
		c0.5-1.2,1.2-2.3,1.9-3.4c-0.4-0.2-0.8-0.5-1.2-0.7c-3.6-2.2-10.3-3.9-10.3-2.6c0,0.9,2.5,3.2,3.4,3.2c1.1,0,1.2,1.3,0.3,2.2
		c-0.3,0.3-0.8,2.1-1.1,4c-0.4,2.8-0.7,3.5-1.8,3.6c-1.7,0.2-5.2-2.7-5.2-4.3c0-3.6-7.1,1.6-8.6,6.3c-0.4,1.2-1.6,4.1-2.6,6.6
		l-1.8,4.4l-3.1,0.1c-1.9,0.1-4,0.7-5.4,1.4c-3.1,1.8-9.9,2.5-11.1,1.1c-0.7-0.8-2-1-6.4-1c-4.9,0-5.6-0.1-6.2-1.2
		c-0.5-0.9-1.3-1.2-3-1.2c-1.2-0.1-3-0.4-3.9-0.9c-2.5-1.4-9.8-1.2-13.8,0.4c-4.2,1.7-4.9,2.6-4.9,6.2c0,2.6,0.2,3.1,3,5.7
		c1.6,1.5,3.4,3.1,4.1,3.4c1.3,0.7,2.6,5.4,2.1,7.6c-0.3,1.2-0.7,1.3-2.6,1c-1.4-0.2-2.7,0-3.7,0.7c-1.8,1.2-1.9,0.6-0.6-2.6
		c1.4-3.4,1.2-5.5-0.9-7.2c-1.4-1.2-1.9-2.1-1.9-3.9v-2.3l-6.5,0.2c-6.4,0.2-6.5,0.2-9,2.5c-1.4,1.2-3.1,2.4-3.7,2.6
		c-0.9,0.3-1.6,1.5-2.3,3.6c-1.2,3.6-5,7.1-6,5.5c-0.3-0.5-0.6-1.6-0.6-2.5c0-2-0.6-2.2-5.8-2.8c-3.1-0.3-4.8-0.1-8.4,1l-4.4,1.3
		l-2.4-1.5c-2.4-1.6-9.9-3.5-18.5-4.9l-4.8-0.7l-3.2,2c-1.7,1.1-3.6,1.9-4.2,1.9c-1.9,0-6.2,2.1-7.1,3.4c-0.4,0.7-1,2.5-1.2,4
		c-0.2,2.5-0.5,2.8-2.6,3.6c-2.2,0.7-2.3,0.7-4-1.7c-0.9-1.4-2-2.4-2.4-2.2c-0.4,0.1-0.9,1.7-1.1,3.6c-0.2,1.9-0.8,4.4-1.4,5.6
		L1,342l2,3.9c1.9,3.7,1.9,4.2,1.6,8.4c-0.6,6.7-1,6.6,18.2,6.6c9.6,0,16.8-0.3,19-0.7c3.2-0.7,3.9-0.6,5.4,0.3
		c2.5,1.5,3.7,1.3,6.3-0.7l2.1-1.8l2.5,1.2c1.9,1,2.7,1.1,3.9,0.6c2.1-0.9,7.7-0.8,9.2,0.2c0.9,0.7,1.1,1.4,0.7,3.1
		c-0.2,1.2-0.6,3.2-0.7,4.5c-0.3,1.9-0.1,2.5,1.4,4.1c2.1,2.2,4.9,2.4,7.4,0.5c0.9-0.7,4.3-2.4,7.6-3.7s6.6-3,7.4-3.7
		c2-1.9,10.6-5.7,12.9-5.7c1.6,0,2.7,0.7,5.9,4.1c3.8,3.9,4.1,4.1,7.6,4.4c5.4,0.5,7.1,2.3,7.1,7.4c0,4.6,1.1,6.1,3.2,4.2
		c1.1-1,1.6-1.1,4.1-0.4c2.5,0.7,2.9,0.7,3.7-0.3c0.4-0.6,0.9-1.3,0.9-1.6c0.1-1.3,3.4-0.1,8.9,3.3c3.3,2.1,6.7,3.7,7.5,3.7
		c1.7,0,3.8-2,4.7-4.5c0.9-2.3,3.9-4.4,9.4-6.4c4.2-1.5,5.8-1.7,17.2-2.2c6.9-0.3,16.1-1,20.5-1.6c7.9-0.9,8.1-1,13.9-4.4
		c5-2.9,6.2-3.4,9-3.4c1.7,0,3.8,0.4,4.6,0.9c1.4,0.9,1.5,0.8,3.4-1.6c1.4-1.8,2.5-2.5,3.7-2.5c0.9,0,2.9-0.6,4.2-1.2
		c2-0.9,2.7-1.6,3.1-3.1c0.2-1.1,1.1-2.7,1.9-3.7l1.5-1.8l-1-7l-0.3-1.9c-4.8,5.2-9,10.9-11.6,18
		C236.4,339.9,254.8,328.9,262.8,313.3z"/>
	<path fill="#BE0027" d="M344.2,150.2c3.8-12.8,11-20.7,15.3-30.1c-2.1,0-4.5-0.1-7.5-0.3c-2.3-0.1-4.6-0.1-6.7-0.2
		c-1.1,9.7-5.5,19.3-5.7,29.5C341.2,149.5,342.7,149.8,344.2,150.2z"/>
	<path fill="#BE0027" d="M413.2,245c-0.1,1.4-0.2,2.7-0.3,4c8.3,1.7,15.7,5,23.1,7.7l-0.1-3.1c-0.1-4.2-0.4-5.7-1.4-7.1
		c-0.2-0.3-0.4-0.6-0.6-0.9C427.1,245.1,419.9,244.5,413.2,245z"/>
	<path fill="#BE0027" d="M407,273.9c0.1,0,0.2-0.1,0.2-0.1c-0.1,0-0.1,0-0.2,0C407,273.8,407,273.9,407,273.9z"/>
	<path fill="#BE0027" d="M227.6,247.5c-19.8,0-33.5-6.8-49-2.8c0,0,0,0,0,0l-0.1,0c0,0,0.1,0,0.1,0c10.4-12.7,30.1-4.8,48.8-7.7
		c0-1.4,0.1-2.8,0.2-4.2c-18.6-2.3-31.1-11.6-48-10c17-10.5,32-1.2,49.5-1c0.2-1.2,0.5-2.4,0.8-3.6c-19.2-4.7-21.9-15-46-16.7
		c20.3-8.6,32.3,3.9,49.1,6.4c0.5-1.3,1-2.6,1.6-3.9c-19.1-7.9-24.5-20.6-42.8-23.7c26.4-3.9,29.2,8.5,47.7,13.9
		c0.6-1.1,1.2-2.1,1.9-3.2c-19-11.2-16-21.2-38.6-30c24.5-0.5,27.2,13.5,44.7,21.2c0.9-1.2,1.9-2.3,2.8-3.4
		c-15.4-13.2-15.9-25.3-33.3-35.1c0.5,6.9,2,10.6,4.8,11.2c1.9,0.4,1.9,0.5,0.9,1.6c-0.9,1-1.9,1.2-6.1,1.2h-5.1l-4.2-3.6l-4.2-3.5
		l-9.6,0.7c-9.4,0.7-9.7,0.7-11.4-0.6c-1.2-0.8-2.8-1.2-4.7-1.2c-2.1,0-3.9-0.6-6.5-2.1c-3.3-1.8-4-2-9.5-2.1
		c-3.9-0.1-6.9-0.4-8.7-1.2c-2.4-0.9-3.7-1-8.7-0.6c-7.9,0.7-17,0.4-21.4-0.7c-6.6-1.7-8.8-1.3-16.2,2.5c-3.7,1.9-8.2,3.9-10.1,4.4
		c-3.7,0.9-10.2,6-11.9,9.2c-0.6,1.1-2.1,2.2-3.6,2.9c-3.7,1.6-4.2,3.4-1.2,4.9c1.9,0.9,2.1,1.2,2,3.3c-0.1,1.9,0.5,3,4.1,7.7
		c4.2,5.4,4.2,5.4,6.6,5c2.2-0.4,2.5-0.2,4.3,2c3.1,3.7,3.5,2.9-6.6,11.9c-2.3,2.1-6,5.2-8.1,7c-2.1,1.7-4.9,4.4-6.2,5.9
		c-1.2,1.5-3.4,3.2-4.7,3.8c-1.4,0.7-2.5,1.6-2.7,2.5c-0.2,1.1-2.5,2.7-8.2,5.9l-7.8,4.4v2.5c0,1.4,0.4,3.2,1,4
		c0.9,1.3,1.5,1.6,4.2,1.6c2.6,0,4,0.4,6.9,2.2c2,1.2,3.9,2.2,4.1,2.2s2.3-1,4.6-2.2c5-2.6,9-2.9,11-0.9c1.1,1.1,1.2,2.1,1.2,7.2
		c0,3.7,0.2,5.9,0.6,5.9c0.4,0,1.8-0.6,3.2-1.2l2.5-1.3l1.7,1.3c2.4,1.6,3.7,1.6,6.4-0.3c2.8-1.9,3.1-1.9,7.7-0.3
		c2,0.7,4.2,1.2,5.1,1.2c0.9,0,2.2,1,3.8,2.8c1.2,1.6,2.7,2.8,3.3,2.8c1.9,0,3.1-3.3,3.1-8.2v-4.6l2.2-1.1c2.2-1.1,2.2-1.1,2.2,0.4
		c0,1.4,1.7,3.5,2.9,3.5c0.4,0,0.8-1.1,1.1-2.4c0.3-2.1,0.8-2.7,3.2-4.2c3.2-2,3.5-3.2,1.2-6c-1.7-2.1-1.3-2.9,1.7-2.9
		c0.9,0,1.9-0.4,2.4-0.8c0.7-0.6,0.7-0.2,0.4,2.5c-0.4,2.8-0.2,3.3,0.8,3.9c0.8,0.4,1.4,0.4,1.6,0c0.7-1.2,2.1-0.6,2.5,1.1
		c0.2,1,1.2,2.4,2.1,3.1l1.8,1.3l-0.9,3.9c-0.4,2.2-0.8,4.4-0.9,5c0,2,2.1,2.4,9,1.9l6.6-0.5l0.4,2.1c0.2,1.1,0.2,2.9,0,3.9
		l-0.4,1.9h4.2c2.7,0,5.7-0.5,8.2-1.3l3.9-1.3l5.1,1.4c3.5,1,5.5,1.7,7,2.5c10.9-5.3,25.2-3.9,37.3-7
		C227.8,250.6,227.7,249,227.6,247.5z"/>
	<path fill="#FFFF00" d="M223.9,343.8c6.7-13.6,24.6-19.4,36-32.9c-2.8-2.4-5.4-4.9-7.9-7.6C242.2,316.8,221.5,326.5,223.9,343.8z"
		/>
	<path fill="#FFFF00" d="M389.8,178.4c11.2-13.7,29.4-19.5,30-39.2c-8.2,14.5-24.9,18.2-37.6,31.6
		C384.9,173.2,387.4,175.7,389.8,178.4z"/>
	<path fill="#FFFF00" d="M183.9,201.7c24,1.7,26.7,12,46,16.7c0.8-3.5,1.9-6.9,3.1-10.3C216.1,205.5,204.1,193,183.9,201.7z"/>
	<path fill="#FFFF00" d="M354,153.4c2.2-13,9.9-23.1,11.7-33.4c-1.5,0.1-3.5,0.2-6.1,0.1c-4.3,9.5-11.6,17.3-15.3,30.1
		C347.5,151.1,350.8,152.2,354,153.4z"/>
	<path fill="#FFFF00" d="M202.6,161.2c22.6,8.8,19.6,18.8,38.6,30c1.9-3,3.9-6,6.1-8.7C229.8,174.7,227.1,160.6,202.6,161.2z"/>
	<path fill="#FFFF00" d="M191.6,180.4c18.3,3.1,23.8,15.9,42.8,23.7c1.4-3.4,3-6.7,4.8-9.8C220.9,188.9,218.1,176.4,191.6,180.4z"/>
	<path fill="#FFFF00" d="M190.9,286.4c-0.6-0.2-1.2-0.5-2.1-1c-0.7,1-1.4,2.2-1.9,3.4C188.2,287.8,189.5,287.1,190.9,286.4z"/>
	<path fill="#FFFF00" d="M196.6,309c9.9-11,30.6-11.9,44.3-20.3c-1.8-3-3.5-6.1-5-9.3C222.1,289,198.1,293.3,196.6,309z"/>
	<path fill="#FFFF00" d="M209.1,327.8c7.7-13,27.2-16,40.3-27.6c-2.2-2.6-4.3-5.3-6.2-8.1C230.8,305.1,208,310.4,209.1,327.8z"/>
	<path fill="#FFFF00" d="M407.1,273.8c0.1,0,0.1,0,0.2,0c1.8-0.6,3.9-1.6,5.6-2.7c1.3-0.7,2.5-1.4,2.7-1.4c0.1,0,0.7,0.9,1.2,1.9
		l1,1.9l2.1-1.6c1.1-0.9,2.9-1.6,3.9-1.6c0.2,0,0.4-0.1,0.7-0.1c-4.5-2.5-9.1-5-14-7.1C409.5,266.8,408.4,270.3,407.1,273.8z"/>
	<path fill="#FFFF00" d="M241.2,357.7c2.6-7.1,6.8-12.8,11.6-18l-0.7-5.1l1.4-1.6c0.8-0.9,3.2-2.7,5.4-4.1c4.1-2.7,5.2-4.4,7.4-11.4
		c0.1-0.4,0.3-0.9,0.4-1.2c-1.4-1-2.7-1.9-4-3C254.8,328.9,236.4,339.9,241.2,357.7z"/>
	<path fill="#FFFF00" d="M411.3,259.8c6.4,0.9,13.4,2.7,20.2,4.2l4.7-5.1l-0.1-2.2c-7.5-2.7-14.9-6-23.1-7.7
		C412.6,252.7,412,256.3,411.3,259.8z"/>
	<path fill="#FFFF00" d="M446.1,175c-10.7,11.1-29.8,9.9-45.7,17.8c1.9,3.1,3.5,6.4,5,9.7C422.4,192.7,445.5,190.9,446.1,175z"/>
	<path fill="#FFFF00" d="M315,147.3c1.7-0.1,3.5-0.2,5.3-0.2c1.8,0,3.5,0.1,5.3,0.2c-1.8-12,0.9-22.1,0.5-31.6
		c-0.2-0.1-0.4-0.3-0.6-0.4c-1.7-1.3-3-1.8-5.1-2.1C319.2,125.1,314.6,132.7,315,147.3z"/>
	<path fill="#FFFF00" d="M460,218.2c-15.7,6-30.9,0.2-49,1.7c0.8,3.5,1.4,7.1,1.7,10.8c12.4-2.4,27.3-1,37.6-4.8
		c0.2-0.1,0.4-0.2,0.6-0.2C454.8,224.1,458,221.8,460,218.2z"/>
	<path fill="#FFFF00" d="M339.7,149.1c0.2-10.2,4.6-19.8,5.7-29.5c-2.8-0.1-5.2-0.1-6.9-0.1c-2.9,8.5-7.4,16.1-8.9,28
		C333,147.9,336.3,148.4,339.7,149.1z"/>
	<path fill="#FFFF00" d="M383.8,113.4c-2.1,16.9-16.8,21.9-26,41.6c3.2,1.4,6.3,3,9.3,4.7C372.7,142.7,389.2,132.1,383.8,113.4z"/>
	<path fill="#FFFF00" d="M402.8,124.7c-4.2,16-22,20.8-32.4,37.1c3.2,2.1,6.3,4.3,9.3,6.8C389.2,151.4,405.4,145,402.8,124.7z"/>
	<path fill="#FFFF00" d="M434.5,156.3c-12.9,14-28.6,14.2-42.5,24.7c2.4,2.9,4.6,5.9,6.6,9.1C413.6,176.7,433.1,174.5,434.5,156.3z"
		/>
	<path fill="#FFFF00" d="M178.5,244.8c15.5-4,29.3,2.8,49,2.8c-0.2-2.4-0.3-4.9-0.3-7.4c0-1,0-2,0.1-3
		C208.6,239.9,189,232.1,178.5,244.8z"/>
	<path fill="#FFFF00" d="M454.7,195.7c-11.8,8.2-30.7,5.4-48,10.1c1.3,3.4,2.5,6.8,3.4,10.3C428.3,209.3,452.6,209.4,454.7,195.7z"
		/>
	<path fill="#FFFF00" d="M178.5,244.8C178.5,244.8,178.5,244.8,178.5,244.8C178.5,244.8,178.5,244.8,178.5,244.8L178.5,244.8z"/>
	<path fill="#FFFF00" d="M179.5,222.8c16.9-1.6,29.4,7.7,48,10c0.3-3.7,0.8-7.4,1.5-10.9C211.5,221.6,196.5,212.4,179.5,222.8z"/>
	<path fill="#FFFF00" d="M310.4,147.6c-4.9-14.4-2.9-28.4-10-39.3c-1.2-0.4-2.2-0.7-2.7-0.8c-0.5-0.1-1.2-0.4-2-0.9
		c4.9,14.9,1.1,27.1,4.2,42.7C303.3,148.6,306.8,148,310.4,147.6z"/>
	<path fill="#FFFF00" d="M413.3,240.1L413.3,240.1c0.1,1.6,0.1,3.3,0,4.9c6.6-0.5,13.9,0.1,20.8,0.6c-0.4-0.6-0.7-1.1-0.7-1.3
		c0-0.2,1.2-1.9,2.8-3.7c0.6-0.6,1.1-1.3,1.5-1.9c-8.1-1.6-16.3-3.7-24.6-4.3C413.2,236.3,413.3,238.2,413.3,240.1z"/>
	<path fill="#FFFF00" d="M228,252.1c-12.1,3.1-26.4,1.7-37.3,7c1.2,0.7,2.1,1.5,3.3,2.7c0.8,0.8,1.2,1.3,1.7,1.6
		c10.7-1,23.4,0.1,34.1-1.5C229.1,258.7,228.4,255.4,228,252.1z"/>
	<path fill="#FFFF00" d="M271.4,107c11.7,16.4,7.5,29.4,14,46.9c3.3-1.3,6.6-2.5,10-3.4C285.5,132.9,289.9,116.4,271.4,107z"/>
	<path fill="#FFFF00" d="M251.4,116.4c13.9,14.6,11,27.6,21,43.9c2.9-1.8,6-3.4,9.1-4.8C268.1,138.8,271.5,122.9,251.4,116.4z"/>
	<path fill="#FFFF00" d="M231,266.2c-6.4,2.7-14.5,4.4-22.1,6.9c-1.1,1.4-2.2,2.9-3,4.4l-2.1,4.1l-2.3-0.4c-3.1-0.5-3.8,0-2.7,2.1
		c11.2-3.2,24.6-3.4,35.5-7.8C233,272.5,231.9,269.4,231,266.2z"/>
	<path fill="#FFFF00" d="M250.2,179c2.2-2.6,4.6-5,7.1-7.3c-15.1-10.4-20.4-27.4-40.4-28c0,0.1,0,0.1,0,0.2
		C234.3,153.7,234.8,165.8,250.2,179z"/>
	<path fill="#FFFF00" d="M232.9,128.3c16.4,13.5,14.8,26.4,27.3,40.7c2.8-2.4,5.7-4.6,8.8-6.6C254.4,149.2,253.5,133.2,232.9,128.3z
		"/>
	<path fill="#FFFF00" d="M410.5,263.1c0.3-1.1,0.5-2.2,0.8-3.4c0.8-3.5,1.3-7.1,1.7-10.8c0.1-1.3,0.2-2.7,0.3-4
		c0.1-1.6,0.1-3.2,0.1-4.9h-0.1c0-1.9-0.1-3.8-0.2-5.7c-0.1-1.3-0.2-2.5-0.3-3.8c-0.4-3.7-1-7.3-1.7-10.8c-0.3-1.3-0.6-2.5-0.9-3.7
		c-0.9-3.5-2.1-7-3.4-10.3c-0.4-1.1-0.9-2.1-1.3-3.2c-1.5-3.4-3.2-6.6-5-9.7c-0.5-0.9-1.1-1.8-1.7-2.8c-2-3.2-4.2-6.2-6.6-9.1
		c-0.7-0.9-1.5-1.7-2.2-2.6c-2.4-2.7-4.9-5.2-7.6-7.6c-0.8-0.7-1.7-1.5-2.5-2.2c-2.9-2.4-6-4.7-9.3-6.8c-1.1-0.7-2.2-1.4-3.4-2.1
		c-3-1.7-6.1-3.3-9.3-4.7c-1.3-0.6-2.5-1.1-3.8-1.6c-3.2-1.2-6.4-2.3-9.8-3.2c-1.5-0.4-3-0.8-4.5-1.1c-3.3-0.7-6.7-1.2-10.2-1.6
		c-1.3-0.1-2.6-0.2-4-0.3c-1.7-0.1-3.5-0.2-5.3-0.2c-1.8,0-3.5,0.1-5.3,0.2c-1.6,0.1-3.1,0.2-4.6,0.4c-3.6,0.4-7.1,1-10.5,1.7
		c-1.5,0.3-2.9,0.7-4.4,1.1c-3.4,0.9-6.8,2.1-10,3.4c-1.3,0.5-2.7,1.1-4,1.7c-3.1,1.4-6.2,3-9.1,4.8c-1.1,0.7-2.3,1.4-3.4,2.1
		c-3.1,2-6,4.2-8.8,6.6c-1,0.9-2,1.7-3,2.6c-2.5,2.3-4.9,4.7-7.1,7.3c-1,1.1-1.9,2.2-2.8,3.4c-2.2,2.8-4.3,5.7-6.1,8.7
		c-0.6,1-1.3,2.1-1.9,3.2c-1.8,3.2-3.4,6.4-4.8,9.8c-0.5,1.3-1.1,2.6-1.6,3.9c-1.2,3.3-2.3,6.8-3.1,10.3c-0.3,1.2-0.5,2.4-0.8,3.6
		c-0.7,3.6-1.2,7.2-1.5,10.9c-0.1,1.4-0.2,2.8-0.2,4.2c0,1-0.1,2-0.1,3c0,2.5,0.1,5,0.3,7.4c0.1,1.5,0.3,3.1,0.5,4.6
		c0.4,3.3,1,6.6,1.8,9.8c0.4,1.5,0.7,2.9,1.2,4.4c0.9,3.2,2,6.3,3.3,9.3c0.5,1.3,1.1,2.5,1.7,3.8c1.5,3.2,3.2,6.3,5,9.3
		c0.7,1.2,1.5,2.3,2.2,3.5c1.9,2.8,4,5.5,6.2,8.1c0.9,1,1.8,2,2.7,3c2.5,2.7,5.1,5.2,7.9,7.6c1,0.8,2,1.6,3,2.4c1.3,1,2.6,2,4,3
		c1.1-3,2.3-4.1,4.3-4.1c1.1,0,3-0.9,4.8-2.2c0.6-0.4,1.1-0.7,1.7-1.1c-22.9-14.3-38.1-39.7-38.1-68.6c0-44.7,36.2-80.9,80.9-80.9
		s80.9,36.2,80.9,80.9c0,14.7-3.9,28.5-10.8,40.4c1.4,0.1,3-0.7,4.2-2.3c1.1-1.5,1.8-1.8,3.9-1.8c1.9,0,2.8-0.3,3.4-1.2
		c0.4-0.7,1.1-1.1,1.7-0.9c0.5,0.2,1.8,0,3.3-0.5c0,0,0-0.1,0-0.1C408.4,270.3,409.5,266.8,410.5,263.1z"/>
	<path fill="#BE0027" d="M401.4,240.3c0-44.7-36.2-80.9-80.9-80.9s-80.9,36.2-80.9,80.9c0,29,15.2,54.4,38.1,68.6
		c3.1-1.7,6.5-2.1,9.5-1.1c2.1,0.7,2.7,0.6,5.4-0.6c0.4-0.2,0.7-0.3,1.1-0.6l-8.4-3.9c-0.2-0.9-0.3-1.8-0.4-2.8
		c-2.5-1.5-4.9-3.2-7.3-5c0,0.8,0.1,1.6,0.2,2.4c-2.8-2.4-5.3-3.7-8.2-6.2c-0.2-1.3-0.3-2.6-0.3-3.9c-11.3-12.3-18.1-28.8-18.1-46.8
		c0-9.3,1.8-18.1,5.1-26.2c-1.1,0-2.3,0-3.4,0c2.9-6.1,5.6-13.2,8.6-19.4l0,0.1c2.2-0.1,4.4-0.1,6.7-0.1
		c12.7-14.7,31.5-23.9,52.4-23.9c21.1,0,39.9,9.4,52.7,24.2c1.3,0.1,2.6,0.2,3.9,0.3l10.3,18.8c-0.9-0.1-1.7-0.2-2.6-0.2
		c3.3,8.1,5.2,17,5.2,26.4c0,11.2-2.7,21.9-7.4,31.3c-0.1,0.5-0.4,1.1-0.8,1.5c-0.4,0.8-0.9,1.6-1.4,2.4c0.1,0.6,0.3,1.3,0.6,2.4
		c0.6,1.9,1.2,3.5,1.3,3.5c0.2,0,1.4-0.6,2.8-1.3c2.4-1.2,2.6-1.2,3.7-0.2c0.4,0.4,1,0.6,1.5,0.7C397.4,268.8,401.4,255,401.4,240.3
		z"/>
	<path fill="#BE0027" d="M294,306.5c0.7-0.4,1.3-0.8,1.9-1.1c-0.7-0.3-1.4-0.5-2.1-0.8C293.9,305.2,293.9,305.9,294,306.5z"/>
	<path fill="#FFFF00" d="M308.3,227.4c-17.7,11.1-32.2,38.2-30.6,67.6c2.3,1.8,4.7,3.5,7.3,5C281.9,275.8,292.8,245.3,308.3,227.4z"
		/>
	<path fill="#FFFF00" d="M299.7,222.2c-14.2-6.4-26.5-8-43.4-7.9c-3.3,8.1-5.1,16.9-5.1,26.2c0,18,6.9,34.5,18.1,46.8
		C268,262.2,282.7,237.3,299.7,222.2z"/>
	<path fill="#FFFF00" d="M315.9,233.7c-12.8,7.4-24.8,38.6-22.1,70.8c0.7,0.3,1.4,0.6,2.1,0.8c0.5-0.4,1-0.7,1.3-1
		c0.5-0.5,1.6-1.2,2.7-1.9C297.1,276.5,304.3,248.8,315.9,233.7z"/>
	<path fill="#FFFF00" d="M326.3,233.6c7.1,10.3,14,25.8,16.6,43.3c1.5-0.5,3.1-1,4.6-1.5C344.6,259.3,337.8,244.2,326.3,233.6z"/>
	<path fill="#FFFF00" d="M307.8,296.2c1-0.8,2.3-1.6,4-2.2c2.9-1.1,3.8-1.8,3.9-2.9c0.3-2.2,2.7-3,6.6-2.2c3.9,0.8,8.8,0.4,9.9-0.9
		c0.6-0.7,0.4-1.2-1.2-2.6c-1.7-1.4-4.6-6.9-4.6-8.8c0-1.1,2.7-0.6,5.6,0.9l2.1,1.3c-1.4-13.6-5.9-26.8-13.4-38.7
		C310.7,254.7,305.9,275.3,307.8,296.2z"/>
	<path fill="#FFFF00" d="M333.1,227.3c10.4,15,18.2,29.1,21.9,44.8c2.5-1.3,4.6-2.7,6-4C355.9,251.8,345.7,236.9,333.1,227.3z"/>
	<path fill="#FFFF00" d="M384.9,214.1c-14.1-1-28,1.3-44.3,7.9c13.5,10,23.4,23.8,28.5,39.4c0,0,0.1,0,0.1,0
		c1.9,0.3,2.4,0.7,2.7,2.1c0.2,1,1.1,2.7,2.2,4c1.7,2.1,2.1,2.2,5.2,2.2c3.2,0,3.4,0.1,3.4,1.5c0,0.2,0,0.3-0.1,0.5
		c4.7-9.4,7.4-20,7.4-31.3C390.1,231.1,388.2,222.2,384.9,214.1z"/>
	<path fill="#FFFF00" d="M381.4,273.6c-0.8,0.6-1.1,0.8-0.9,2c0.5-0.8,0.9-1.6,1.4-2.4C381.8,273.4,381.6,273.5,381.4,273.6z"/>
	<path fill="#FFFF00" d="M373.3,195.2c-12.7-14.8-31.6-24.2-52.7-24.2c-20.9,0-39.7,9.3-52.4,23.9c17.8,0.1,38.2,2.8,52.3,13.9
		C336.3,199,354.7,194.2,373.3,195.2z"/>
	<path fill="#BE0027" d="M340.6,222c16.4-6.6,30.2-8.9,44.3-7.9c0.9,0.1,1.7,0.1,2.6,0.2l-10.3-18.8c-1.3-0.1-2.6-0.2-3.9-0.3
		c-18.6-1-37,3.8-52.8,13.7c-14-11.1-34.4-13.8-52.3-13.9c-2.3,0-4.5,0-6.7,0.1l0-0.1c-3,6.2-5.7,13.3-8.6,19.4c1.2,0,2.3,0,3.4,0
		c16.9-0.1,29.3,1.5,43.4,7.9c-17,15.2-31.7,40-30.4,65.1c0.1,1.3,0.2,2.6,0.3,3.9c2.8,2.5,5.3,3.8,8.2,6.2
		c-0.1-0.8-0.1-1.6-0.2-2.4c-1.6-29.4,12.9-56.4,30.6-67.6c-15.4,17.9-26.3,48.4-23.4,72.6c0.1,0.9,0.2,1.9,0.4,2.8l8.4,3.9
		c0.1-0.1,0.2-0.1,0.3-0.2c-0.1-0.7-0.1-1.3-0.2-2c-2.7-32.3,9.3-63.4,22.1-70.8c-11.7,15.1-18.8,42.8-16.1,68.8
		c0.7-0.4,1.3-0.8,2-1.1c1.7-0.9,3.8-2.6,4.7-3.8c0.4-0.5,0.8-1,1.3-1.4c-2-20.9,2.8-41.5,13-56.1c7.5,11.8,12,25.1,13.4,38.7
		l0.6,0.4l7.2-2c0.3-0.1,0.5-0.2,0.8-0.2c-2.5-17.5-9.5-33-16.6-43.3c11.5,10.6,18.3,25.7,21.1,41.8c2.7-1,5.3-2.2,7.6-3.4
		c-3.7-15.7-11.4-29.8-21.9-44.8c12.6,9.6,22.8,24.5,27.9,40.8c0.7-0.6,1.2-1.2,1.5-1.8c2.3-4.1,4-5.3,6.6-4.9
		C364,245.8,354.1,232,340.6,222z"/>
</g>
</svg>
