<?xml version="1.0" encoding="utf-8"?>
<!-- Generator: Adobe Illustrator 17.1.0, SVG Export Plug-In . SVG Version: 6.00 Build 0)  -->
<!DOCTYPE svg PUBLIC "-//W3C//DTD SVG 1.1//EN" "http://www.w3.org/Graphics/SVG/1.1/DTD/svg11.dtd">
<svg version="1.1" id="flag-icon-css-kh" xmlns="http://www.w3.org/2000/svg" xmlns:xlink="http://www.w3.org/1999/xlink" x="0px"
	 y="0px" viewBox="0 0 640 480" enable-background="new 0 0 640 480" xml:space="preserve">
<g>
	<path fill="#032EA1" d="M594.7,111.1c-1.9-3.9-2.5-4.6-5.2-6.1c-1.7-1-3.4-2-3.7-2.2c-0.6-0.3-0.6-1.3-0.2-4.1
		c0.4-3,0.3-3.7-0.3-4.6c-0.8-0.8-0.8-1.1,0-2.2c1.2-1.6,1.2-4.1,0-4.6c-0.7-0.2-0.8-1-0.7-2.9c0.2-3.4-1.2-4.8-5.2-5.2
		c-1.6-0.2-3.5-0.7-4.1-1.2c-1-0.7-1.1-1.3-0.9-5.1c0.2-4.1,0.2-4.4-1.2-5.4c-1.8-1.5-1.6-2.5,1.9-8.1c3.7-6,5.5-12.9,3.6-14.4
		c-1.3-1.1-1-2.2,1.1-5.3c1.1-1.5,2.2-3.5,2.5-4.5c0.5-1.6,0.8-1.8,2.1-1.6c2.1,0.3,2.5-0.2,4-4c2.5-6.5,3.2-10.1,3-13.5
		c-0.2-2.9-0.1-3.5,1-4.4c1-0.9,1.2-1.7,1.2-4.9c0-3.7-0.1-3.8-1.5-3.8c-1.1,0-1.6,0.4-2.2,2c-0.4,1.1-1,2-1.2,2s-1.6,1.1-3,2.4
		c-2.3,2.1-2.6,2.7-3.2,6.3l-0.7,3.9l-3.4-0.2c-3.2-0.2-3.4-0.3-5.4-2.7c-1.7-2-2.5-2.5-3.9-2.5c-2.7,0-4.5,0.9-4.9,2.4
		c-0.2,0.8-0.8,1.5-1.5,1.7c-0.8,0.2-1.1,0.7-1.1,2.2c0,1.1-0.2,2.6-0.6,3.4c-0.4,1.2-0.9,1.5-2.6,1.5c-2,0-2.2,0.2-3.5,2.9
		c-1.2,2.5-1.8,3.2-4.5,4.5c-4,2-5.1,1.9-7.3-0.1c-2.1-2-5-2.3-5-0.7c0,0.6-0.6,2.2-1.2,3.6c-1,1.9-1.7,2.7-3,3.1
		c-1.5,0.4-1.7,0.8-1.7,2.4v2h-4.3c-2.7,0-4.5,0.3-5,0.7c-0.4,0.4-1.1,0.7-1.6,0.7c-0.4,0-1.5,0.4-2.1,0.9c-1.2,0.8-1.4,0.8-2.6-0.3
		c-0.7-0.7-1.5-1.2-1.8-1.2c-0.3,0-1-0.8-1.5-1.8c-0.6-1-1.8-2.4-2.9-3.2c-1.2-0.9-2-2.1-2.2-3.2c-0.3-2-2.7-4.2-3.9-3.7
		c-1.2,0.4-7.7-2-9.3-3.6c-0.8-0.8-1.6-2-1.7-2.9c-0.1-1.1-0.5-1.5-1.6-1.6c-3.4-0.4-3.9-0.7-3.9-2.1s-4.1-6.9-5.2-6.9
		c-0.3,0-1.7,1-3.1,2.1s-2.6,2.1-2.7,2.1c-0.1,0.1,0.1,0.8,0.4,1.6c0.5,1.3,0.4,1.5-0.5,0.9c-0.6-0.3-1.7-0.6-2.5-0.6
		c-1.3,0-1.5,0.2-1.5,1.8c0,1-0.4,2.9-0.9,4.2c-0.8,2-1.2,2.4-2.5,2.4c-0.8,0-2.6,0.4-4,0.8c-2.3,0.8-2.5,0.8-3.3-0.2
		c-0.4-0.6-1.9-1.3-3.1-1.7c-1.3-0.3-3-1.1-3.8-1.8l-1.5-1.1v2.2c0,6-8.2,16.2-9.7,12.1c-0.3-1-2.6-1.1-3.5-0.2
		c-0.4,0.4-0.7,0.4-1,0c-0.2-0.3-1.2-0.6-2.3-0.6c-1.5,0-1.9,0.2-2.1,1.2c-0.1,0.8-0.7,1.3-1.8,1.7c-1.3,0.3-1.9,0.2-3.1-1
		c-1.1-1.1-1.8-1.3-2.7-1.1c-0.8,0.2-1.1,0.7-0.9,1.2c0.2,0.4,0.3,1.4,0.3,2.1c0,0.8,0.5,1.5,1.3,1.8c1.1,0.6,1.4,1.2,1.7,4.1
		c0.3,2.7,0.8,4.2,2.3,6.5c1.9,2.9,2.1,3,4.5,3h2.5v2.2c0,4.5,2.2,7.8,7.6,11c1,0.6,1,0.7-0.2,3.2c-1.1,2.2-1.6,2.7-3.6,3.2
		c-1.3,0.3-3.1,1-3.9,1.4c-1.5,0.8-1.6,1-1.6,5v4.2l-3.7-0.4c-2.1-0.2-4.4-0.7-5.2-1.1c-1-0.4-3-0.6-6.3-0.4l-4.9,0.2l-4.3-3.7
		c-2.4-2-5-3.9-5.8-4.1c-0.8-0.2-2.5-1.1-3.9-2.1c-5-3.6-12-6.4-15.9-6.4c-1.7,0-2.6-0.3-3.6-1.4c-1.2-1.2-1.8-1.4-5.3-1.4
		c-8.2-0.1-14.9-1.3-21.2-4.2c-3.2-1.4-6.5-3.3-7.2-4.1c-1.3-1.5-4.6-8.3-6.9-14.4c-1-2.6-1.2-2.8-3-2.8c-1.9,0-2,0.1-2.6,3
		c-0.4,1.7-1.6,4.4-2.8,6.1l-2.2,3.1h-3.4c-3.4,0-3.6-0.1-6-2.5c-1.7-1.7-2.8-3.4-3.5-5.6c-1-3.2-1-3.4-0.1-5.2l1-2l-3.1-1.7
		c-1.7-1-3.7-1.7-4.6-1.7c-4.2,0-10.6-1.3-11.9-2.5c-1.9-1.7-3.6-2.2-4.4-1.2c-1.3,1.6-4.4,2.2-7.1,1.5c-2-0.6-2.8-0.6-3.9,0
		c-0.7,0.4-2,0.6-2.8,0.4c-1.7-0.3-6.7,2.1-8.6,4.4c-1.3,1.6-1.1,1.6-8.1,0.4c-1.7-0.3-2.2-0.1-3.1,0.9l-1.1,1.3l-1.7-1.2
		c-2-1.5-6.4-2.2-9.6-1.6c-2.8,0.6-17.2,0.3-18.7-0.4c-0.8-0.4-1.1-0.2-1.3,0.7c-0.4,1.6-3.2,1.6-4.1,0.1c-0.8-1.6-2.9-1.4-4.6,0.5
		c-1.6,1.8-6,2.7-8.5,1.7c-2.7-1-6.9-0.7-7.8,0.5c-0.7,1.1-0.9,1.1-3.2,0.3c-1.3-0.4-3.2-1.2-4.2-1.6c-2.3-1.1-4.1-1.1-5,0.1
		c-0.7,1-0.8,1-1.6-0.3c-0.7-0.9-1.5-1.2-3-1.2c-1.1,0-2.6-0.3-3.2-0.8c-0.6-0.4-2-0.9-3.1-1c-2-0.2-2.2-0.7-1.3-4l0.4-1.5H178
		c-3,0-3.7,0.2-4.8,1.4c-1.6,1.7-3,1.8-5.4,0.3c-1.9-1.1-4.5-1.4-7.7-0.8c-1.5,0.3-2,0.8-2.8,2.8c-0.6,1.3-1.6,2.6-2.2,3
		c-1.5,0.8-1.6,0.8-1.9-0.5c-0.4-1.6-3-2.1-4.5-0.7c-2.1,1.8-3.5,2.3-7.2,2.3c-1.9,0-6,0.5-9.1,1.1c-3.1,0.6-7.3,1.4-9.3,1.7
		c-5.4,0.9-10.2,3.4-13,6.8c-4.4,5.3-5.3,6-7.2,6c-1,0-2.5,0.6-3.7,1.5c-1.6,1.2-1.9,1.8-1.9,3.6c0,1.3-0.4,2.4-1.1,3.1
		c-0.6,0.6-1.1,1.6-1.1,2.3c0,0.8-0.5,2-1.1,2.8c-0.8,1.1-1.1,2.3-1.1,5c0,3.5,0,3.6-2.1,4.6c-1.9,1-7.8,6.8-13.4,13
		c-2.3,2.6-2.3,2.7-2.3,6.8v4.2l-2.5,1.7c-1.4,1-4,2.4-5.8,3.2c-1.7,0.8-5.1,2.7-7.4,4.2l-4.2,2.8l0.6,2c0.4,1.6,1.1,2.2,3.7,3.4
		l1.7,0.8h536.4c-0.2-0.7-0.3-1.2-0.4-1.6C597,116.8,595.9,113.5,594.7,111.1z"/>
	<path fill="#032EA1" d="M101.4,362.9c-1.2,0.8-2.3,2-2.5,2.5c-0.2,0.5,0.1,2.8,0.5,5c0.5,2.4,0.7,5.5,0.6,7.4
		c-0.3,3.3-0.3,3.4,1.5,4.4c1,0.5,2.1,1,2.5,1c0.8,0,2.5-3.3,3.1-6c0.4-1.8-0.3-4.7-1.5-5.9c-0.7-0.7-0.8-7.2-0.2-8.1
		c0.8-0.9,2.9-1,3.7-0.1c0.4,0.4,0.7,1.3,0.7,2.2c0,0.8,0.4,2.6,0.8,3.9c1.1,3.1,1.1,6.7,0,7.8c-0.5,0.6-1.6,2.7-2.5,4.8l-1.6,3.9
		l1.5,0.3c1.8,0.3,4.6,4.6,5.5,8.6c0.6,2.7,0.6,3-1.1,5.5c-1.7,2.7-1.7,2.8-0.7,4.4c1.1,1.9,1.3,6.8,0.3,10c-0.7,2.2-0.1,4,2.6,7.6
		c1.1,1.5,1.7,1.8,4.7,2.1c3.4,0.4,3.5,0.3,6.4-1.8c2.5-1.9,3.4-2.2,5.6-2.2c2.8,0,7.5,2.2,7.5,3.5c0,0.4,1,0.4,3,0.2
		c4-0.5,6.7-1.5,6.4-2.2c-0.1-0.3-0.6-1.9-1-3.4c-0.6-2.5-0.6-3.1,0.2-4.6c0.5-1,0.9-2.3,0.9-3c0-0.7,0.5-2,1.1-3
		c0.6-1,1.2-2.5,1.5-3.5c0.2-1,0.7-1.9,1.2-2.1c0.4-0.2,0.8-1,0.8-1.7c0-1.2-0.2-1.4-1.5-1.1c-1.4,0.4-1.5,0.3-0.6-0.8
		c1.4-2.1,5.7-5.5,7.3-5.9c2.6-0.7,4.2,0.4,6,4.1c1.7,3.3,1.7,3.4,4.1,3.4c3.4,0,5.1,1.8,4.7,4.9c-0.4,2.8,0.8,8.6,2.3,10.7
		c1.3,1.8,3.5,8.1,3.5,10.1c0,0.7-0.9,2.3-2,3.6c-2,2.3-2.8,4.9-2.4,7.7l0.3,1.7h-4c-3.1,0-4.6,0.3-6.8,1.4
		c-3.6,1.7-4.2,2.3-5.4,4.9c-0.6,1.1-1.9,3.1-3.1,4.4c-1.6,1.8-1.9,2.4-1.3,2.6c0.4,0.2,2,1.4,3.4,2.7c1.4,1.3,2.9,2.4,3.2,2.4
		c0.3,0,1.1,0.9,1.7,2l1.2,2l1.7-1c0.9-0.6,1.7-0.9,1.9-0.7c0.2,0.1,0.7,2.1,1.3,4.4l1.1,4.2l3,0.4c1.7,0.3,3.6,0.6,4.4,0.7
		c0.7,0.2,3.8,2.7,6.8,5.6c6.1,6,5.9,5.9,9.8,2.4c1.7-1.6,1.8-1.7,1.8-6.5c0-6.4-0.2-7.1-2.6-8.2c-1.8-0.9-1.9-1-1.2-2.2
		c3.3-5,3.9-6.7,3.6-8.8l-0.3-2.2h2.2c2,0,2.2,0.1,2.7,2.1c0.7,2.7,2.6,4.5,5.7,5.4c1.4,0.4,4.4,1.5,6.8,2.5
		c4.5,1.8,4.8,1.9,12.7,0.8c1.5-0.2,3.1-0.1,3.7,0.3c0.9,0.4,1.7,0.3,3.6-0.5c1.3-0.6,3.1-1.1,3.9-1.1c1.9,0,4.2,2.5,4.7,5.2
		c0.2,1.2,0.8,2.5,1.2,2.9c1.1,1.1,3.5,1.1,5.1-0.1c1.2-0.8,1.4-0.8,3.6,1.5c3.5,3.5,8.1,6.4,8.9,5.7c1-0.7,3,0.1,3.9,1.6
		c1,1.5,1.3,1.4,2-0.6c0.4-1.1,1.3-2,2.7-2.6c1.6-0.8,2.3-1.5,2.9-3.2c0.4-1.2,1.2-2.6,1.7-3.1c0.6-0.4,1.2-1.3,1.4-1.9
		c0.3-0.9,0.8-1,3.1-0.8c2,0.2,3,0.1,3.4-0.4c0.8-1,3.5-1,6.9,0.1c1.8,0.6,5.2,0.8,10.2,0.8h7.4l1.9-1.9c1-1.1,2.9-3.6,4-5.7
		c1.7-2.9,2.9-4.2,5.3-5.7c1.7-1.1,5.4-3.5,8.2-5.4l5.1-3.4l0.1-2.6c0-2.3-0.2-2.7-1.6-3.6c-1.4-0.8-1.6-1.4-2-4.2
		c-0.2-1.8-0.8-4.2-1.5-5.5c-1.6-3.1-1.4-4.1,1.1-6.4c2.5-2.2,3.2-2.5,3.7-1.2c0.3,0.9,2.7,1.6,7,2.2c1.4,0.2,2.9,0.7,3.2,1.1
		c0.4,0.4,1.2,0.8,1.9,0.8c2.6,0.1,9.2,1.7,11.7,3.1c2.5,1.2,2.9,1.3,4.2,0.6c2.4-1.3,6.8-7.3,7.2-9.8c0.3-2.5,0.5-2.6,2.2-1.5
		c0.6,0.4,1.7,0.8,2.5,0.8c0.8,0.1,2.7,0.2,4.2,0.4c2.2,0.3,3.8,0.1,8.1-1.3c2.9-1,6.4-2,7.8-2.3s3.8-1.5,5.3-2.5
		c1.6-1.1,3.9-2,5.3-2.2c1.4-0.2,2.9-0.5,3.5-0.6c0.7-0.2,1.2,0.4,1.9,2.4c0.6,1.5,1.8,3.8,2.7,5.2c3,4.2,3.7,6,3.6,9.1
		c-0.2,2.9-0.2,2.9,2,3.9c1.2,0.5,3.4,1,4.9,1h2.6l-0.3-1.9c-0.2-1.6-0.1-2,0.9-2.3c0.8-0.2,1.2-0.8,1.2-1.8c0-1.4,0.1-1.4,3,1.3
		c1.6,1.6,4.3,4,6,5.4l3.1,2.6h5.3c3.5,0.1,5.7,0.3,6.7,0.8c2.1,1.2,2.2,1.1,2.2-2.1c0-3.1-0.8-4.8-4.1-8.9
		c-1.2-1.5-1.5-2.3-1.1-2.7c0.4-0.4,0.4-1.7,0.3-3.4l-0.3-2.8l3.2,0.3c2.9,0.3,3.2,0.2,2.9-0.6c-0.2-0.5-0.6-2.5-0.8-4.5
		c-0.4-2.9-0.8-4-2.5-6c-1.1-1.4-2.3-2.5-2.6-2.5c-0.3,0-1.5,0.6-2.6,1.4c-1.9,1.3-2.1,1.3-2.5,0.4c-0.2-0.6-1.5-1.6-2.6-2.3
		c-1.2-0.7-3.1-2-4.2-3c-1.6-1.4-2-2.1-2-3.9c0-1.9-0.2-2.1-1.7-2.5c-1-0.2-2.6-0.3-3.7-0.3c-1.2,0-2.6-0.6-3.9-1.5
		c-1.6-1.2-1.9-1.8-1.9-3.7c0-2.8-1.8-5.5-3.6-5.5c-1.7,0-1.9-0.7-1.1-3.9c0.3-1.4,0.5-4,0.4-5.6c-0.2-2.4-0.1-3.3,0.6-3.9
		c1.1-1,1.2-3.6,0.1-5.3c0,0,0,0,0-0.1H103.5C103.6,361.1,102.9,361.9,101.4,362.9z"/>
	<rect x="329.2" y="311" fill="#E00025" width="71" height="0.1"/>
	<path fill="#E00025" d="M389,242v0.2h3.4l-0.1-0.1h6v-0.2h-7.4v-0.1h-0.1c0,0.1,0,0.2,0.1,0.2H389z"/>
	<path fill="#E00025" d="M62.6,120.6l-2.5,0.7c-1.3,0.4-3.6,1.6-5,2.8l-2.6,2.1h-5.4c-2.9,0-6.9-0.2-8.8-0.5
		c-3.4-0.5-4.3-0.2-7.4,2.3c-0.2,0.1,0.2,0.4,0.7,0.7c2.2,1.3,2.8,3.7,2.4,10.8c-0.3,6-0.2,7.5,1.3,15.4c1,4.8,1.8,10.6,2.1,12.9
		c0.3,4.5,1.7,7.3,6.3,12.9c1.1,1.4,2.5,3.2,3.1,4.2c0.6,0.9,1.7,2.3,2.5,3.2l1.4,1.5l-1.5,0.7c-1.3,0.6-1.5,1-1.5,3.7
		c0,1.7,0.4,3.8,0.9,4.8c0.6,1.2,0.8,2.4,0.6,3.9c-0.2,1.5,0,2.8,0.8,4.5c1.5,3.2,1.5,7.2,0,8.6c-0.9,0.8-1.1,1.7-1.1,5
		c0,4.4,0.3,4.7,3.7,4.8c0.7,0,2.8,1.4,4.9,3.3c2,1.8,4.2,3.5,4.8,3.7c0.6,0.2,1.7,1.6,2.4,3c0.8,1.5,3.2,4.7,5.5,7.2
		c5.9,6.7,7,8.2,7.4,9.8c0.5,2-0.1,4.3-1.1,4.3c-1.3,0-2.6,2-2.6,4c0,1.1-0.5,3.2-1.1,4.9c-0.6,1.6-1.1,3.9-1.1,5.1
		c0,1.2-0.3,3.5-0.7,5c-0.9,4,0.1,7.7,3.2,12.3c2.2,3.3,2.6,4.2,3.1,8.7c0.6,4.5,0.9,5.3,2.9,7.7c1.6,1.9,2.1,3.1,2.1,4.6
		c0,3.6,1.7,7.1,5.6,11.9l3.9,4.5v7c0,6.3,0.1,7,1.1,7.3c0.7,0.2,1.1,1,1.4,2.7c0.4,3,2.1,8,3.1,9.1c0.3,0.4,1.3,1,2,1.2
		c0.9,0.2,1.4,0.8,1.4,1.5c0,0.6,0.6,2,1.4,3.1c0.8,1.2,1.2,2,1.3,2.8h312.4c-0.5-0.8-0.8-2.8-0.8-5.3c0-3.5-0.2-4.3-1.3-5.5
		c-0.7-0.7-1.7-1.3-2.2-1.3c-1.4,0-3.2-1.8-3.4-3.4c-0.1-0.9,0.4-1.8,1.8-3.4h-5.7h-4.2h-71h-4h-10.8H310h-70.3h-4.2h-10.8h-4.2H165
		v-15h7.8v-15h47.6V311h-39.8v-12.7h7.7v-9.7h4.6v-7.4h6.5c2.3-1.4,4.1-3.5,4.9-6.1h0.1v-24.5c-0.8-3.1-3.6-6-5.5-6.5v-21.6V221
		c2.5,0,3.9,2.7,4.3,3.6v-9c1-0.6,1.9-0.6,3,0v18.7c0,0,0.1,0.1,0.1,0.1v-12.7v-3.8h5.2v-10.8c1.4,0,1.7,5.2,5,5.2
		c1.8,0,1.7-2.2,0.6-3.8c-0.8-1.6-1.9-3.6-0.5-7.6c1.1,3,3.7,4,3.2,2.2c-0.8-3.2-3.4-3.8-1.4-8.8c0.6,4.1,3.2,4,2.6,1.6
		c-0.7-2.8-2.3-4-0.4-7.8c1.1,4.4,2.4,4.2,2.4,1.4c0-4.1,0-8.4,5-10c0,0,0.4-3.6,2.3-3.6c1.8,0,2.2,3.6,2.2,3.6c5.2,1.6,5,6,5,10
		c0,2.8,1.3,3,2.4-1.4c1.9,3.8,0.4,5-0.4,7.8c-0.6,2.4,2,2.5,2.6-1.6c1.9,4.9-0.6,5.5-1.4,8.8c-0.5,1.8,2.2,0.8,3.2-2.2
		c1.4,4,0.4,6-0.5,7.6c-1,1.7-1.2,3.8,0.6,3.8c3.4,0,3.6-5,5-5v19h3.1h2.9v-1.3c0.6-0.5,1.7-0.4,2.4,0v1.3h29.5v-17.1
		c0,0-0.1,0-0.1-0.1h0.1v0.1c2.5,1,3.2,3.3,3.2,3.3v3.2h3.6v-0.1c0,0,1.8,0,1.8-3c0-2.9-1.1-4.9-3.4-4.8v-6c0,0,5.9,0.7,5.9,7.4
		v-5.8c2.2,0,2.2,2.4,2.2,8l1.7,0V205c0-3.4-3.4-3.6-3.4-6c0,0-0.5-3.6,0.5-5.3c1.3,4.8,3.6,4,3.6,1.9c0-1.7-1.2-3.4-4-7.6
		c-1-1.3-0.4-5.5,0.8-7.1c0.5,3.6,1.1,5.4,2.6,5.4c1,0,1.7-0.6,1.7-2.4c0-2.4-1.6-3.6-2.4-5.8c-0.8-2.2-0.3-4.7,1.3-6.4
		c0.6,3.6,0.5,5,2,5c3.2-1.1,0-5.8-0.7-7c-0.7-1.3,1.2-4.1,1.2-4.1c1,3.2,1.2,3.5,2.4,3.1c1.4-0.4,1.2-2.4-0.5-4.1
		c-1.1-1.2-1-2.8,0.2-4c1.2,2.3,2.6,2.2,2.8,0.7l-1-5.3h1.3l-0.5-3.7h19.1l-0.5,3.7h1.4l-1.1,5.2c-0.2,1.4,1.7,1.8,2.9-0.6
		c1.2,1.2,1.3,2.9,0.2,4c-1.7,1.7-1.9,3.7-0.5,4.1c1.2,0.4,1.4,0,2.4-3.1c0,0,1.8,1.8,1.2,4.1c-0.7,1.2-4,6-0.7,7c1.6,0,1.4-1.4,2-5
		c1.6,1.7,2.1,4.2,1.2,6.4c-0.7,2.2-2.4,3.4-2.4,5.8c0,1.8,0.8,2.4,1.8,2.4c1.6,0,2.2-1.7,2.6-5.4c1.2,1.6,1.8,5.8,0.8,7.2
		c-2.8,4.1-4.1,5.8-4.1,7.4c0,2,2.4,2.9,3.6-1.9c1.1,1.7,0.6,5.3,0.6,5.3c0,2.4-3.2,2.6-3.4,6v6.6l1.6,0c0-5.9,0.2-8,2-8v5.6
		c0-6.7,5.9-7.4,5.9-7.4v6c-2.3-0.1-3.4,1.9-3.4,4.8c0,3,1.8,3,1.8,3v0h3.2v-3.1c0.4-1.6,1.6-2.8,3.1-3.4v17.2h30.4v-1.3
		c0.7-0.4,1.8-0.5,2.4,0v1.3h4.2h1.8v-19c1.4,0,1.7,5,5,5c1.8,0,1.6-2.2,0.6-3.8c-0.8-1.6-1.9-3.6-0.5-7.6c1.1,3,3.7,4,3.2,2.2
		c-0.8-3.2-3.4-3.8-1.4-8.8c0.6,4.1,3.2,4,2.6,1.6c-0.7-2.8-2.3-4-0.4-7.8c1.1,4.4,2.4,4.2,2.4,1.4c0-4-0.1-8.4,5-10
		c0,0,0.4-3.6,2.2-3.6c1.9,0,2.3,3.6,2.3,3.6c5,1.6,5,5.9,5,10c0,2.8,1.3,3,2.4-1.4c1.9,3.8,0.4,5-0.4,7.8c-0.6,2.4,2,2.5,2.6-1.6
		c1.9,4.9-0.6,5.5-1.4,8.8c-0.5,1.8,2.2,0.8,3.2-2.2c1.4,4,0.4,6-0.5,7.6c-1.1,1.7-1.2,3.8,0.6,3.8c3.4,0,3.6-5.2,5-5.2v10.8h5.2
		v3.8v12.7c0,0,0.1-0.1,0.1-0.1v-18.7c1.1-0.6,2-0.6,3,0v9c0.4-0.9,1.8-3.6,4.3-3.6v1.4v21.6c-1.9,0.5-4.7,3.4-5.5,6.5V275h0.4
		c0.8,2.6,2.6,4.7,4.9,6.1h6.4v7.4h4.3v9.7h7.9V311h-40.1v0.1h47.8v15h6.9c0.1-0.9,0.5-2,1-3.3c0.9-2.1,1.3-4,1.1-4.8
		c-0.2-1,0.1-1.6,1-2.3l1.3-1l-2.3-6c-1.3-3.3-2.1-6-1.7-6c0.3,0,1.1-0.4,1.7-1c0.9-0.8,1.1-0.9,1.6-0.2c1.5,2.6,1.4,2.5,4.5,1.7
		c2.2-0.6,3-0.6,3.2-0.1c0.1,0.4,2.3,0.6,6.8,0.6c5.4,0,6.7-0.2,6.9-0.8c0.3-0.8,0.5-0.8,2,0c3.2,1.6,4.6,1,6.9-3.4
		c0.8-1.6,2.7-4.1,4.2-5.8l2.7-3l4,1c5.3,1.2,7.9,1.1,11.3-0.2c1.6-0.6,3.7-1.1,4.8-1.1c1.5,0,2.1-0.3,3-1.8c0.6-1,2.4-3.1,4-4.6
		c1.5-1.5,2.8-3.1,2.8-3.5c0-0.3,0.4-0.7,0.8-0.7s0.8-0.5,0.8-1.1c0-0.6,0.8-1.6,2-2.3c1.1-0.7,2.4-1.8,2.9-2.5
		c1.7-2.2,3.7-3.1,11.7-5.3c11.3-3.2,11.8-3.2,14.3-1c1.1,1,2.6,2.9,3.3,4.2l1.3,2.4l1.6-1.8c0.8-1,1.6-2.5,1.6-3.3
		c0-1.2,0.4-1.6,2.6-2.5c2.9-1.1,7.1-4.7,8.3-7c0.4-0.9,0.8-2.7,0.8-4c0-1.3,0.5-3.9,1.2-5.8c0.6-1.8,1.2-4.8,1.4-6.7
		c0.1-1.8,0.3-5,0.5-7c0.3-2.9,0.2-4.1-0.8-6.1c-1-2.2-1-2.7-0.3-4c0.6-1.2,0.6-1.7,0-2.8c-0.4-0.8-1.2-4.2-1.7-7.5
		c-1-5.8-1.1-6.4-4.1-10.8l-3.1-4.7l0.1-7.9l0.1-7.9l3.2-8.9c1.8-4.9,4.2-10.9,5.4-13.3c1.2-2.4,2.5-5.7,2.8-7.3
		c0.3-1.6,1-3.6,1.4-4.4c0.6-1.1,0.7-3.5,0.4-9.8l-0.3-8.3l-2.6-5.5c-1-2.3-2.1-5-2.6-6.9H61.2L62.6,120.6z M320,141.1
		c2.8,0,2.6,5,2.6,5h-5.4C317.2,146.2,317.1,141.2,320,141.1z M325.2,146.3l-0.1,3.1h-10.3l-0.4-3.1H325.2z M328,149.5l-0.4,3H312
		l-0.2-3H328z"/>
	<rect x="239.7" y="311" fill="#E00025" width="70.3" height="0.1"/>
	<path fill="#E00025" d="M477,336c1.4-1.5,1.3-1.6-1.1-4.8c-0.4-0.5-0.7-0.9-0.9-1.3v6.7C475.8,337.3,476,337.1,477,336z"/>
	<path fill="#E00025" d="M212.3,242.2h6.1v-0.2h-6.7c0,0.1,0,0.2,0.1,0.2h-0.2h-4.3l0,0.1h5.2L212.3,242.2z"/>
	<path fill="#E00025" d="M427.7,242.2l-0.1,0.1h5.2l0-0.1h-4.3h-0.2c0-0.1,0-0.2,0.1-0.2h-6.7v0.2H427.7z"/>
	<path fill="#E00025" d="M247.8,242.2l-0.1,0.1h4.7V242h-3.1c0-0.1,0-0.2,0.1-0.2h-0.1v0.1h-7.4v0.2H247.8z"/>
	<rect x="352" y="234" fill="#FFFFFF" width="30.4" height="3"/>
	<path fill="#FFFFFF" d="M384.9,274.9H382v-19.8h2.9v-3.7h-36.5v3.7h3.1v19.8h-3.1v0.1h36.5V274.9z M359.7,274.9h-4.3v-19.8h4.3
		V274.9z M368.7,274.9h-4.3v-19.8h4.3V274.9z M377.7,274.9h-4.3v-19.8h4.3V274.9z"/>
	<path fill="#FFFFFF" d="M255.2,255.1h2.6v19.8h-2.6v0.1h36.2v-0.1h-3v-19.8h3v-3.7h-36.2V255.1z M280,255.1h4.2v19.8H280V255.1z
		 M271,255.1h4.2v19.8H271V255.1z M262,255.1h4.2v19.8H262V255.1z"/>
	<polygon fill="#FFFFFF" points="384.9,244.7 383,242.5 351.2,242.5 349,245.4 384.9,245.4 	"/>
	<rect x="352" y="226.2" fill="#FFFFFF" width="30.4" height="2.6"/>
	<rect x="257.7" y="234" fill="#FFFFFF" width="29.5" height="3"/>
	<polygon fill="#FFFFFF" points="255.2,245.4 290.8,245.4 288.7,242.5 257,242.5 255.2,244.7 	"/>
	<rect x="257.7" y="226.2" fill="#FFFFFF" width="29.5" height="2.6"/>
	<polygon fill="#FFFFFF" points="384.9,245.4 349,245.4 348.4,246.2 348.4,251.4 384.9,251.4 	"/>
	<polygon fill="#FFFFFF" points="255.2,251.4 291.4,251.4 291.4,246.2 290.8,245.4 255.2,245.4 	"/>
	<rect x="382" y="255.1" fill="#FFFFFF" width="2.9" height="19.8"/>
	<polygon fill="#FFFFFF" points="257.7,242 257.7,242.2 255.3,242.2 255.3,242 252.4,242 252.4,242.3 257.2,242.3 257,242.5 
		288.7,242.5 288.4,242.2 287.2,242.2 287.2,237 257.7,237 	"/>
	<polygon fill="#FFFFFF" points="383,242.5 382.8,242.3 389,242.3 389,242 384.8,242 384.8,242.2 382.4,242.2 382.4,242 382.4,237 
		352,237 352,242.2 351.5,242.2 351.2,242.5 	"/>
	<polygon fill="#FFFFFF" points="382.4,232.8 382.4,228.8 352,228.8 352,234 382.4,234 	"/>
	<polygon fill="#FFFFFF" points="287.2,234 287.2,228.8 257.7,228.8 257.7,232.8 257.7,234 	"/>
	<rect x="355.4" y="255.1" fill="#FFFFFF" width="4.3" height="19.8"/>
	<rect x="288.4" y="255.1" fill="#FFFFFF" width="3" height="19.8"/>
	<rect x="373.4" y="255.1" fill="#FFFFFF" width="4.3" height="19.8"/>
	<rect x="271" y="255.1" fill="#FFFFFF" width="4.2" height="19.8"/>
	<rect x="262" y="255.1" fill="#FFFFFF" width="4.2" height="19.8"/>
	<rect x="280" y="255.1" fill="#FFFFFF" width="4.2" height="19.8"/>
	<rect x="364.4" y="255.1" fill="#FFFFFF" width="4.3" height="19.8"/>
	<rect x="255.2" y="255.1" fill="#FFFFFF" width="2.6" height="19.8"/>
	<rect x="348.4" y="255.1" fill="#FFFFFF" width="3.1" height="19.8"/>
	<path fill="#FFFFFF" d="M206.2,275.4v-0.3l-1.8,0.1V275h-0.1c-0.8,2.6-2.6,4.7-4.9,6.1h2.3C203.7,280.1,206.2,277.7,206.2,275.4z"
		/>
	<path fill="#FFFFFF" d="M384.9,275.4V275h-36.5v0.4c0,2.3,3,4.7,5.4,5.8h27.5C383.1,280.1,384.9,277.7,384.9,275.4z"/>
	<path fill="#FFFFFF" d="M291.4,275.4V275h-36.2v0.4c0,2.3,1.7,4.7,3.6,5.8h28.4C289.3,280.1,291.4,277.7,291.4,275.4z"/>
	<path fill="#FFFFFF" d="M433.8,275.1v0.3c0,2.3,2.5,4.7,4.5,5.8h2.5c-2.3-1.4-4.1-3.5-4.9-6.1h-0.4v0.1L433.8,275.1z"/>
	<polygon fill="#FFFFFF" points="327.6,152.5 328,149.5 311.8,149.5 312,152.5 	"/>
	<path fill="#FFFFFF" d="M322.6,146.2c0,0,0.1-5-2.6-5c-2.9,0.1-2.8,5-2.8,5H322.6z"/>
	<polygon fill="#FFFFFF" points="325.1,149.4 325.2,146.3 314.4,146.3 314.8,149.4 	"/>
	<path fill="#FFFFFF" d="M305.1,207.2c2.4,0.7,4.5,2.2,6,4.2l0.3,0c0.1-1.2,0.5-2.7,1.3-4.1c-0.4-3.1-1.4-5-3.2-6.1l-1.4,0v-6.8
		c2.5,0.7,4.3,2.2,4.9,4c-0.1-1.2,0.7-3,1.9-4.8l-2.8-3.9h6c0,0,0,0,0.1-0.1l-9.2,0.1v-6.8c2.4,0.6,4,2,4.6,3.8
		c-0.1-1.2,0.7-3.1,2-5l-3.5-3.1v-5.6c1.9,0.5,4.1,0.7,4.3,3.7c0.2-1.7,0.6-3.1,1-4.2l-4.4-3.1v-3.7c1.8,0.4,3.6,0.6,3.8,2.6
		c0.2-1.1,0.4-1.9,0.7-2.6l-2.4-1.3v-4.2c1.2,0.4,2.4,0.5,2.6,2.4c0.4-2.8,1.2-2.5,2.3-3.6c1.2,1.1,1.8,0.8,2.3,3.6
		c0-1.9,1.4-2,2.5-2.4v4.2l-2.4,1.3c0.3,0.7,0.6,1.6,0.8,2.7c0.1-2,2-2.3,3.6-2.6v3.8l-4.3,2.9c0.5,1.2,0.8,2.5,1.1,4.3
		c0.2-3,2.4-3.2,4.3-3.7v5.6l-3.9,3.4c1.1,1.9,1.8,3.7,1.8,4.9c0.7-2,2.5-3.5,4.6-4v6.7l-9.1,0.1c0,0,0,0,0.1,0.1h5.9l-2.7,3.9
		c1.2,1.8,1.9,3.6,1.9,4.7c0.7-1.9,2.4-3.2,4.9-4v6.7l-1.2,0c-1.9,1-2.9,3-3.3,6.1c0.7,1.5,1.2,3,1.3,4.3l0.2,0
		c1.5-2,3.5-3.5,5.9-4.3v4.3l3.2,0V205c0.1-3.4,3.4-3.6,3.4-6c0,0,0.5-3.6-0.6-5.3c-1.2,4.8-3.6,4-3.6,1.9c0-1.7,1.3-3.4,4.1-7.4
		c1-1.4,0.4-5.6-0.8-7.2c-0.5,3.7-1.1,5.4-2.6,5.4c-1,0-1.8-0.6-1.8-2.4c0-2.4,1.7-3.6,2.4-5.8c0.9-2.2,0.4-4.7-1.2-6.4
		c-0.6,3.6-0.5,5-2,5c-3.2-1,0-5.8,0.7-7c0.6-2.3-1.2-4.1-1.2-4.1c-1,3.1-1.2,3.5-2.4,3.1c-1.4-0.4-1.2-2.4,0.5-4.1
		c1.1-1.1,1-2.8-0.2-4c-1.2,2.4-3.1,2-2.9,0.6l1.1-5.2H329l0.5-3.7h-19.1l0.5,3.7h-1.3l1,5.3c-0.1,1.4-1.6,1.6-2.8-0.7
		c-1.2,1.2-1.3,2.8-0.2,4c1.7,1.7,1.9,3.7,0.5,4.1c-1.2,0.4-1.4,0.1-2.4-3.1c0,0-1.9,2.8-1.2,4.1c0.7,1.2,4,5.9,0.7,7
		c-1.6,0-1.4-1.4-2-5c-1.6,1.7-2.2,4.2-1.3,6.4c0.8,2.2,2.4,3.4,2.4,5.8c0,1.8-0.7,2.4-1.7,2.4c-1.6,0-2.2-1.8-2.6-5.4
		c-1.2,1.6-1.8,5.8-0.8,7.1c2.8,4.2,4,5.9,4,7.6c0,2-2.3,2.9-3.6-1.9c-1,1.7-0.5,5.3-0.5,5.3c0,2.4,3.4,2.6,3.4,6v6.5l2.9,0V207.2z"
		/>
	<path fill="#FFFFFF" d="M290.8,245.4l0.6,0.8v5.2v3.7v19.8v0.1v0.4c0,2.3-2.1,4.7-4.3,5.8h10.8c2.2-1,5.2-3.4,5.2-5.8v-0.5h-3.7
		v-19.8h3.7v-12.4c-0.1-0.2-0.2-0.4-0.3-0.6h-14.4l0.3,0.4L290.8,245.4z"/>
	<path fill="#FFFFFF" d="M336.4,242.8v12.4h3.8v19.8h-3.8v0.5c0,2.3,3.9,4.7,6.2,5.8h11.2c-2.4-1-5.4-3.4-5.4-5.8V275v-0.1v-19.8
		v-3.7v-5.2l0.6-0.8l2.2-2.9l0.3-0.4h-14.9C336.5,242.4,336.5,242.6,336.4,242.8z"/>
	<rect x="299.4" y="255.1" fill="#FFFFFF" width="3.7" height="19.8"/>
	<rect x="336.4" y="255.1" fill="#FFFFFF" width="3.8" height="19.8"/>
	<path fill="#FFFFFF" d="M287.1,209c0,0,0.1,0,0.1,0.1V209H287.1z"/>
	<path fill="#FFFFFF" d="M348.9,226.6V239h-8.5c-1.3,0.9-3,1.8-3.7,3.1h14.9h0.5V237v-3v-5.2v-2.6V209c-1.5,0.6-2.7,1.8-3.1,3.4v3.1
		V226.6z"/>
	<path fill="#FFFFFF" d="M287.2,234v3v5.2h1.2h14.4c-0.9-1.4-2.6-2.2-4.2-3.1h-8.2v-12.5v-10.9v-3.2c0,0-0.7-2.3-3.2-3.3v17.1v2.6
		V234z"/>
	<path fill="#FFFFFF" d="M303.2,242.8v12.4v19.8v0.5c0,2.3-3,4.7-5.2,5.8h8.5c2-1,4.6-3.4,4.6-5.8v-28l-1.8-2.4h-0.5v-6h-10.2
		c1.6,0.9,3.3,1.7,4.2,3.1C303,242.4,303.1,242.5,303.2,242.8z"/>
	<path fill="#FFFFFF" d="M330.9,245h-0.4l-1.7,2.5v27.8c0,2.3,2.5,4.7,4.6,5.8h9.1c-2.3-1-6.2-3.4-6.2-5.8v-0.5v-19.8v-12.4
		c0.1-0.2,0.1-0.4,0.2-0.6c0.7-1.3,2.4-2.2,3.7-3.1h-9.5V245z"/>
	<path fill="#FFFFFF" d="M345.6,232.6h-4.3v-0.1c-3.6,2-10.4,2.1-10.4,4.5v2h9.5h8.5v-12.5v-11h-3.2V232.6z"/>
	<path fill="#FFFFFF" d="M290.4,226.6V239h8.2h10.2v-1.7l-0.1-0.4c0-2.4-6.7-2.5-10.3-4.5v0.1H294v-16.9h-3.6V226.6z"/>
	<path fill="#FFFFFF" d="M306.9,229.2h-1c0,0-3.1-5.5-7.6-7.2v10.4h8.5V229.2z"/>
	<path fill="#FFFFFF" d="M341.3,232.4V222c-4.4,1.7-7.6,7.2-7.6,7.2h-1v3.2H341.3z"/>
	<path fill="#FFFFFF" d="M328.8,275.4v-27.8l1.7-2.5h-5.3v36.1h4h4.3C331.4,280.1,328.8,277.7,328.8,275.4z"/>
	<path fill="#FFFFFF" d="M314.4,245h-5.2l1.8,2.4v28c0,2.3-2.6,4.7-4.6,5.8h3.6h4.4V245z"/>
	<rect x="314.4" y="245" fill="#FFFFFF" width="10.8" height="36.1"/>
	<path fill="#FFFFFF" d="M308.8,236.9c3,0.7,3.1,1.8,4.1,3.6c-0.1-2.6,0.8-5.4,2.2-7.8l-8.2,0v-0.2h-8.5v0.1
		c3.6,2,10.3,2.1,10.3,4.5l0.1,0.4V236.9z"/>
	<path fill="#FFFFFF" d="M332.8,232.8l-8.1,0c1.4,2.4,2.3,5.1,2.1,7.7c1-1.8,1.1-2.9,4.1-3.6v0.1c0-2.4,6.8-2.5,10.4-4.5v-0.1h-8.5
		V232.8z"/>
	<path fill="#FFFFFF" d="M311.3,211.8c0-0.1,0-0.2,0-0.3l-0.3,0C311.2,211.6,311.2,211.7,311.3,211.8z"/>
	<path fill="#FFFFFF" d="M328.4,211.8c0.1-0.1,0.1-0.2,0.2-0.3l-0.2,0C328.3,211.6,328.4,211.7,328.4,211.8z"/>
	<path fill="#FFFFFF" d="M298.4,222c4.4,1.7,7.6,7.2,7.6,7.2h1v-4.6c1.2,0.5,2,1.2,2.6,2.1c-0.1-3.9-0.5-8.5-3-11.6h-1.4v-3.7
		l-2.9,0l-1.7,0c0-5.6,0-8-2.2-8v5.8c0,0,0,0,0,0V222z"/>
	<path fill="#FFFFFF" d="M334.5,215.2h-1c-2.4,3-2.9,7.4-3,11.2c0.6-0.7,1.4-1.3,2.4-1.7v4.6h1c0,0,3.1-5.5,7.6-7.2v10.4v0.1v0.1
		h4.3v-17v0c0,0-1.8,0-1.8-3c0-2.9,1.1-4.9,3.4-4.8v-6c0,0-5.9,0.7-5.9,7.4v-5.6c-1.8,0-2,2.2-2,8l-1.6,0l-3.2,0V215.2z"/>
	<path fill="#FFFFFF" d="M294,232.6h4.3v-0.1v-0.1V222v-12.8c0,0,0,0,0,0c0-6.7-5.9-7.4-5.9-7.4v6c2.3-0.1,3.4,1.9,3.4,4.8
		c0,3-1.8,3-1.8,3v0.1V232.6z"/>
	<path fill="#FFFFFF" d="M320.1,162.6c1,0.8,1.8,1.6,2.4,2.9l2.4-1.3v-4.2c-1.1,0.4-2.5,0.5-2.5,2.4c-0.5-2.8-1.1-2.5-2.3-3.6
		c-1.1,1.1-1.9,0.8-2.3,3.6c-0.2-1.9-1.4-2-2.6-2.4v4.2l2.4,1.3C318.2,164.3,319,163.4,320.1,162.6z"/>
	<path fill="#FFFFFF" d="M328.2,230.3c0.6-1.2,1.1-2.7,2.2-3.9c0.1-3.8,0.6-8.2,3-11.2h-9.6C326.4,219,328.5,224.8,328.2,230.3z"/>
	<path fill="#FFFFFF" d="M311.4,230.2c-0.3-5.3,1.8-11.1,4.4-15h-9.4c2.5,3.1,3,7.7,3,11.6C310.4,227.9,310.9,229.2,311.4,230.2z"/>
	<path fill="#FFFFFF" d="M322.7,172.4l4.3-2.9v-3.8c-1.6,0.4-3.5,0.6-3.6,2.6c-0.2-1.1-0.5-2-0.8-2.7c-0.6-1.3-1.4-2.2-2.4-2.9
		c-1.1,0.8-1.9,1.7-2.5,3c-0.3,0.7-0.6,1.6-0.7,2.6c-0.2-2-2-2.3-3.8-2.6v3.7l4.4,3.1c0.6-1.7,1.5-2.9,2.6-3.9
		C321.1,169.5,322,170.7,322.7,172.4z"/>
	<path fill="#FFFFFF" d="M317,201.2l-7.6,0c1.8,1.1,2.7,3,3.2,6.1C313.7,205.2,315.3,202.9,317,201.2z"/>
	<path fill="#FFFFFF" d="M318.1,189.7h-6l2.8,3.9C315.8,192.3,316.9,190.9,318.1,189.7z"/>
	<path fill="#FFFFFF" d="M319.8,176.6c1.7,1.3,3.2,3.3,4.4,5.3l3.9-3.4v-5.6c-1.9,0.5-4.1,0.7-4.3,3.7c-0.3-1.7-0.7-3.1-1.1-4.3
		c-0.7-1.7-1.6-2.9-2.7-3.9c-1.1,1-1.9,2.2-2.6,3.9c-0.4,1.2-0.8,2.5-1,4.2c-0.2-3-2.4-3.2-4.3-3.7v5.6l3.5,3.1
		C316.7,179.9,318.3,178,319.8,176.6z"/>
	<path fill="#FFFFFF" d="M324.8,193.6l2.7-3.9h-5.9C322.8,190.9,323.9,192.3,324.8,193.6z"/>
	<path fill="#FFFFFF" d="M327.1,207.3c0.5-3.2,1.4-5.1,3.3-6.1l-7.7,0C324.4,202.8,326,205.1,327.1,207.3z"/>
	<path fill="#FFFFFF" d="M321.6,189.7l9.1-0.1v-6.7c-2.1,0.4-3.8,1.9-4.6,4c0-1.2-0.7-3-1.8-4.9c-1.2-2-2.7-4-4.4-5.3
		c-1.6,1.4-3.1,3.2-4.3,5.1c-1.2,1.9-2,3.8-2,5c-0.6-1.8-2.2-3.2-4.6-3.8v6.8l9.2-0.1c0.5-0.5,1.1-1,1.6-1.5
		C320.4,188.6,321,189.1,321.6,189.7z"/>
	<path fill="#FFFFFF" d="M319.8,199c0.9,0.5,1.9,1.3,2.8,2.2l7.7,0l1.2,0v-6.7c-2.5,0.7-4.2,2-4.9,4c0-1.1-0.7-2.9-1.9-4.7
		c-0.9-1.3-1.9-2.7-3.1-3.9c0,0,0,0-0.1-0.1c-0.6-0.5-1.1-1.1-1.7-1.5c-0.6,0.5-1.1,1-1.6,1.5c0,0,0,0-0.1,0.1
		c-1.2,1.2-2.3,2.6-3.2,3.9c-1.2,1.8-2,3.6-1.9,4.8c-0.6-1.8-2.4-3.2-4.9-4v6.8l1.4,0l7.6,0C318,200.3,318.9,199.5,319.8,199z"/>
	<path fill="#FFFFFF" d="M319.8,211c1.3,0.8,2.7,2.3,4,4.2h9.6h1v-3.6v-4.3c-2.4,0.7-4.5,2.3-5.9,4.3c-0.1,0.1-0.1,0.2-0.2,0.3
		c0-0.1,0-0.2,0-0.3c-0.1-1.3-0.5-2.8-1.3-4.3c-1.1-2.2-2.7-4.4-4.4-6.1c-0.9-0.9-1.9-1.7-2.8-2.2c-0.9,0.5-1.9,1.3-2.8,2.2
		c-1.7,1.7-3.3,4-4.4,6.1c-0.7,1.5-1.2,2.9-1.3,4.1c0,0.1,0,0.2,0,0.3c-0.1-0.1-0.2-0.2-0.2-0.3c-1.5-2-3.6-3.5-6-4.2v4.2v3.7h1.4
		h9.4C317.2,213.2,318.6,211.7,319.8,211z"/>
	<path fill="#FFFFFF" d="M306.9,232.7l8.2,0c1.3-2.1,3-3.9,4.8-5c1.8,1,3.6,2.8,4.9,5l8.1,0v-0.4v-3.2v-4.6c-1.1,0.4-1.8,1-2.4,1.7
		c-1,1.2-1.5,2.7-2.2,3.9c0.2-5.5-1.9-11.2-4.4-15.1c-1.3-1.9-2.7-3.4-4-4.2c-1.3,0.8-2.7,2.3-4,4.2c-2.6,3.9-4.8,9.7-4.4,15
		c-0.5-1-1.1-2.3-1.9-3.4c-0.6-0.9-1.5-1.7-2.6-2.1v4.6v3.2V232.7z"/>
	<path fill="#FFFFFF" d="M308.8,245h0.5h5.2h10.8h5.3h0.4v-6v-2v-0.1c-3,0.7-3.1,1.8-4.1,3.6c0.2-2.6-0.7-5.3-2.1-7.7
		c-1.3-2.2-3-4-4.9-5c-1.8,1-3.5,2.8-4.8,5c-1.4,2.4-2.3,5.2-2.2,7.8c-1-1.8-1.1-2.9-4.1-3.6v0.5v1.7V245z"/>
	<path fill="#FFFFFF" d="M206.2,275.1v-30.4l-1.4-2.4h2.5l0-0.1h-0.9h-0.1h-2.8h-0.2v-17.6c-0.4-0.9-1.8-3.6-4.3-3.6v1.4v21.6
		c1.9,0.5,4.7,3.4,5.5,6.5V275v0.1L206.2,275.1z"/>
	<path fill="#FFFFFF" d="M255.2,275.4V275v-0.1v-19.8v-3.7v-6v-0.7l1.8-2.2l0.2-0.2h-4.8h-4.7l-4.2,4v29.2c0,2.3,2.5,4.7,4.5,5.8
		h10.7C256.9,280.1,255.2,277.7,255.2,275.4z M247,255.1h4.2v19.8h-4.3L247,255.1z"/>
	<path fill="#FFFFFF" d="M216.6,275.4v-29.2l-4.2-4h-5.2h-2.5l1.4,2.4v30.4v0.3c0,2.3-2.5,4.7-4.5,5.8h10.4
		C214.1,280.1,216.6,277.7,216.6,275.4z M210,255.1h4.3v19.8H210V255.1z"/>
	<path fill="#FFFFFF" d="M221.7,275.4V249l-2.9-4h-0.4v-2.9h-6.1l0.1,0.1l4.2,4v29.2c0,2.3-2.5,4.7-4.5,5.8h4.9
		C219.1,280.1,221.7,277.7,221.7,275.4z"/>
	<path fill="#FFFFFF" d="M243.5,275.4v-29.2l4.2-4l0.1-0.1h-6v2.9h-0.5l-2.9,4v26.4c0,2.3,2.6,4.7,4.6,5.8h4.9
		C246.1,280.1,243.5,277.7,243.5,275.4z"/>
	<path fill="#FFFFFF" d="M224.8,245h-6l2.9,4v26.4c0,2.3-2.5,4.7-4.6,5.8h3.4h4.2L224.8,245z"/>
	<path fill="#FFFFFF" d="M238.5,275.4V249l2.9-4h-5.9v36.1h4.2h3.4C241.1,280.1,238.5,277.7,238.5,275.4z"/>
	<polygon fill="#FFFFFF" points="235.5,245 224.8,245 224.7,281.2 224.8,281.2 235.5,281.2 	"/>
	<path fill="#FFFFFF" d="M211.5,240.8v-19v-3.8h-5.2v3.8v12.7C208.6,235.9,210.5,237.8,211.5,240.8z"/>
	<path fill="#FFFFFF" d="M249.3,241.8c0.8-4,3.2-6.1,5.9-7.7v-7.9h-2.9h-3.1L249.3,241.8L249.3,241.8z"/>
	<rect x="210" y="255.1" fill="#FFFFFF" width="4.3" height="19.8"/>
	<polygon fill="#FFFFFF" points="251.2,255.1 247,255.1 246.9,274.9 251.2,274.9 	"/>
	<path fill="#FFFFFF" d="M236.9,228.2C236.9,228.2,236.9,228.2,236.9,228.2C236.9,228.2,236.9,228.2,236.9,228.2
		C236.9,228.2,236.9,228.2,236.9,228.2z"/>
	<path fill="#FFFFFF" d="M223.6,228.2C223.6,228.2,223.6,228.2,223.6,228.2C223.6,228.2,223.6,228.2,223.6,228.2
		C223.6,228.2,223.6,228.2,223.6,228.2z"/>
	<path fill="#FFFFFF" d="M203.2,242.2h0.2v-9.4c0.9,0.5,1.9,1,2.8,1.6v-18.7c-1.1-0.6-2-0.6-3,0v9V242.2z"/>
	<path fill="#FFFFFF" d="M211.5,240.8c0.1,0.4,0.2,0.8,0.3,1.2h6.7v-5c1.4,0.5,2.7,1.2,3.8,2c0.3-0.9,0.5-1.8,0.9-2.7
		c-1.2-1.3-3.7-4.2-4.6-5.7V224c1,0.1,1.9,0.5,2.8,1.2c-1.3-1.7-2.6-3.7-2.8-4.8V214c1.9,0.2,3.7,1.6,5.2,4.3
		c0.4-1.7,0.8-3.2,1.4-4.6c-0.8-0.8-3.3-3.3-3.7-4.8v-4.3c1.6,0.2,2.8,0.6,4,2.4c0.1-0.5,0.3-1,0.4-1.5l-2.7-3.3v-3.8
		c1.2,0.1,1.8,0.5,2.8,1.8c0.2-0.8,0.5-1.4,0.9-1.9h-0.3l-1-2.3v-3c0.8,0.1,1.2,0.2,1.8,1.1c0.2-0.6,0.5-1.2,0.9-1.7h-0.6l-2.2-1.9
		V188c0.8,0.2,1.2,0.4,1.8,1.2c0.5-1.5,1.7-2.8,3.1-3.5c1.4,0.7,2.5,2,3,3.6c0.6-0.8,1.1-1.2,1.8-1.2v2.4l-2.2,1.8h-0.5
		c0.4,0.5,0.7,1.1,0.9,1.8c0.6-0.8,1.1-1.2,1.8-1.2v3l-1,2.3h-0.3c0.4,0.5,0.8,1.2,1,2c0.8-1.3,1.4-1.9,2.6-1.9v3.8l-2.6,3.4
		c0.2,0.4,0.3,0.9,0.5,1.4c1.1-1.8,2.4-2.2,3.8-2.3v4.2c-0.1,1.5-2.8,4-3.7,4.8c0.5,1.4,1,2.9,1.4,4.6c1.4-2.8,3.4-4.1,5.3-4.3v6.5
		c-0.1,1.1-1.3,3-2.6,4.7c0.8-0.6,1.7-1,2.6-1.1v6.5c-0.8,1.6-4,4.9-5.1,6c0.3,0.8,0.5,1.6,0.8,2.4c1.1-0.8,2.5-1.5,3.9-2.1v5h7.4
		v-0.1v-15.6v-19c-1.4,0-1.7,5-5,5c-1.8,0-1.6-2.2-0.6-3.8c0.8-1.6,1.9-3.6,0.5-7.6c-1.1,3-3.7,4-3.2,2.2c0.8-3.2,3.4-3.8,1.4-8.8
		c-0.6,4.1-3.2,4-2.6,1.6c0.7-2.8,2.3-4,0.4-7.8c-1.1,4.4-2.4,4.2-2.4,1.4c0-4,0.1-8.4-5-10c0,0-0.4-3.6-2.2-3.6
		c-1.9,0-2.3,3.6-2.3,3.6c-5,1.6-5,5.9-5,10c0,2.8-1.3,3-2.4-1.4c-1.9,3.8-0.4,5,0.4,7.8c0.6,2.4-2,2.5-2.6-1.6
		c-1.9,4.9,0.6,5.5,1.4,8.8c0.5,1.8-2.2,0.8-3.2-2.2c-1.4,4-0.4,6,0.5,7.6c1.1,1.7,1.2,3.8-0.6,3.8c-3.4,0-3.6-5.2-5-5.2v10.8v3.8
		V240.8z"/>
	<rect x="255.3" y="242" fill="#FFFFFF" width="2.4" height="0.1"/>
	<path fill="#FFFFFF" d="M255.3,234.1c0.8-0.5,1.6-0.9,2.4-1.3v-4v-2.6v-1.3c-0.7-0.4-1.8-0.5-2.4,0v1.3V234.1z"/>
	<path fill="#FFFFFF" d="M203.4,232.8v9.4h2.8h0.1h0.9h4.3h0.2c0-0.1,0-0.2-0.1-0.2c-0.1-0.4-0.2-0.8-0.3-1.2
		c-0.9-3-2.9-4.9-5.2-6.3c0,0-0.1-0.1-0.1-0.1C205.3,233.8,204.4,233.3,203.4,232.8z"/>
	<path fill="#FFFFFF" d="M252.4,242h2.9h2.4v-5v-3v-1.2c-0.8,0.4-1.6,0.8-2.4,1.3c-2.8,1.6-5.1,3.8-5.9,7.7c0,0.1,0,0.2-0.1,0.2
		H252.4z"/>
	<path fill="#FFFFFF" d="M230.3,190.6c0.8,0.4,1.5,1.1,2.1,1.8h0.5l2.2-1.8v-2.4c-0.7,0-1.2,0.4-1.8,1.2c-0.5-1.6-1.6-2.9-3-3.6
		c-1.5,0.7-2.6,1.9-3.1,3.5c-0.6-0.8-1-1-1.8-1.2v2.4l2.2,1.9h0.6C228.7,191.6,229.4,191,230.3,190.6z"/>
	<path fill="#FFFFFF" d="M230.3,195.7c1.5,0.9,2.6,1.4,3.5,2.5h0.3l1-2.3v-3c-0.7,0-1.2,0.4-1.8,1.2c-0.2-0.7-0.5-1.3-0.9-1.8
		c-0.5-0.7-1.3-1.4-2.1-1.8c-0.9,0.4-1.6,1-2.2,1.8c-0.4,0.5-0.7,1.1-0.9,1.7c-0.6-0.8-1-1-1.8-1.1v3l1,2.3h0.3
		C227.5,197.1,228.7,196.6,230.3,195.7z"/>
	<path fill="#FFFFFF" d="M230.3,201c2.2,1.3,3.6,2.2,4.6,4.6l2.6-3.4v-3.8c-1.2,0-1.8,0.6-2.6,1.9c-0.3-0.9-0.6-1.5-1-2
		c-0.9-1.1-2.1-1.6-3.5-2.5c-1.6,0.8-2.8,1.4-3.7,2.5c-0.4,0.5-0.7,1.1-0.9,1.9c-1-1.3-1.6-1.7-2.8-1.8v3.8l2.7,3.3
		C226.6,203.2,228,202.3,230.3,201z"/>
	<path fill="#FFFFFF" d="M230.3,206.5c2.4,1.8,4,4.2,5.2,7.2c0.9-0.8,3.6-3.3,3.7-4.8v-4.2c-1.4,0.1-2.8,0.5-3.8,2.3
		c-0.1-0.5-0.3-1-0.5-1.4c-1-2.3-2.3-3.2-4.6-4.6c-2.3,1.3-3.7,2.2-4.6,4.5c-0.2,0.4-0.3,0.9-0.4,1.5c-1.2-1.8-2.4-2.2-4-2.4v4.3
		c0.4,1.5,2.8,3.9,3.7,4.8C226.2,210.7,227.9,208.3,230.3,206.5z"/>
	<path fill="#FFFFFF" d="M223.6,228.2C223.6,228.2,223.6,228.2,223.6,228.2c1.2-5.3,3.2-8.3,6.8-11c3.5,2.6,5.4,5.6,6.6,11
		c0,0,0,0,0,0c0.8-1.4,1.7-2.4,2.6-3.1c1.3-1.7,2.6-3.6,2.6-4.7V214c-1.9,0.2-3.8,1.6-5.3,4.3c-0.4-1.7-0.8-3.2-1.4-4.6
		c-1.2-3-2.8-5.4-5.2-7.2c-2.5,1.8-4.1,4.1-5.3,7.2c-0.5,1.4-1,2.9-1.4,4.6c-1.4-2.8-3.2-4.1-5.2-4.3v6.5c0.2,1.1,1.5,3.1,2.8,4.8
		C222.1,225.9,222.9,226.9,223.6,228.2z"/>
	<path fill="#FFFFFF" d="M230.1,227.9c4,2.7,5.9,5.5,7.1,8.6c1.1-1.1,4.3-4.4,5.1-6V224c-0.9,0.1-1.8,0.5-2.6,1.1
		c-1,0.7-1.9,1.7-2.6,3.1c0,0,0,0,0,0c0,0,0,0,0,0c-1.2-5.4-3.1-8.4-6.6-11c-3.6,2.6-5.5,5.6-6.7,11c0,0,0,0,0,0c0,0,0,0,0-0.1
		c-0.7-1.3-1.5-2.2-2.3-2.9c-0.9-0.7-1.8-1.1-2.8-1.2v6.5c0.9,1.4,3.4,4.3,4.6,5.7C224.3,233.2,226.1,230.5,230.1,227.9z"/>
	<path fill="#FFFFFF" d="M224.7,241.4c1.1-4.4,2.8-6.5,5.3-9.2c2.5,2.8,4.6,4.7,5.5,9.2c0.5-0.9,1.3-1.7,2.4-2.5
		c-0.2-0.8-0.5-1.6-0.8-2.4c-1.2-3.2-3.1-5.9-7.1-8.6c-3.9,2.6-5.8,5.3-7,8.3c-0.3,0.9-0.6,1.8-0.9,2.7
		C223.3,239.7,224.2,240.5,224.7,241.4z"/>
	<path fill="#FFFFFF" d="M218.4,245h0.4h6h10.7h5.9h0.5v-2.9v-0.2v-5c-1.5,0.6-2.8,1.3-3.9,2.1c-1.1,0.8-2,1.6-2.4,2.5
		c-1-4.6-3-6.5-5.5-9.2c-2.5,2.8-4.2,4.8-5.3,9.2c-0.5-0.9-1.4-1.8-2.5-2.6c-1.1-0.8-2.4-1.5-3.8-2v5v0.2V245z"/>
	<path fill="#FFFFFF" d="M436.8,242.2h-0.2h-2.8h-0.1h-0.9l0,0.1h2.5l-1.4,2.4v30.4l1.8,0.1V275v-24.5c0.8-3.1,3.6-6,5.5-6.5v-21.6
		V221c-2.5,0-3.9,2.7-4.3,3.6V242.2z"/>
	<path fill="#FFFFFF" d="M423.4,246.2v29.2c0,2.3,2.5,4.7,4.5,5.8h10.4c-2-1-4.5-3.4-4.5-5.8v-0.3v-30.4l1.4-2.4h-2.5h-5.2
		L423.4,246.2z M425.7,255.1h4.3v19.8h-4.3V255.1z"/>
	<path fill="#FFFFFF" d="M396.5,275.4v-29.2l-4.2-4H389h-6.1l0.2,0.2l1.8,2.2v0.7v6v3.7v19.8v0.1v0.4c0,2.3-1.7,4.7-3.6,5.8H392
		C394,280.1,396.5,277.7,396.5,275.4z M393.2,274.9h-4.3v-19.8h4.2L393.2,274.9z"/>
	<path fill="#FFFFFF" d="M398.2,242.2h-6l0.1,0.1l4.2,4v29.2c0,2.3-2.5,4.7-4.5,5.8h4.9c2-1,4.6-3.4,4.6-5.8V249l-2.9-4h-0.5V242.2z
		"/>
	<path fill="#FFFFFF" d="M423.4,275.4v-29.2l4.2-4l0.1-0.1h-6.1v2.9h-0.4l-2.9,4v26.4c0,2.3,2.5,4.7,4.6,5.8h4.9
		C425.9,280.1,423.4,277.7,423.4,275.4z"/>
	<path fill="#FFFFFF" d="M404.6,245h-5.9l2.9,4v26.4c0,2.3-2.6,4.7-4.6,5.8h3.3h4.2h0.1V245z"/>
	<path fill="#FFFFFF" d="M418.4,275.4V249l2.9-4h-6l0.1,36.1h4.1h3.5C420.9,280.1,418.4,277.7,418.4,275.4z"/>
	<polygon fill="#FFFFFF" points="415.2,245 404.6,245 404.6,281.2 415.2,281.2 415.4,281.2 	"/>
	<path fill="#FFFFFF" d="M428.6,240.8c0.9-3,2.9-4.9,5.2-6.3v-12.7v-3.8h-5.2v3.8V240.8z"/>
	<path fill="#FFFFFF" d="M384.8,234.1c2.8,1.6,5.1,3.8,5.9,7.7h0.1v-15.6H389h-4.2V234.1z"/>
	<rect x="425.7" y="255.1" fill="#FFFFFF" width="4.3" height="19.8"/>
	<polygon fill="#FFFFFF" points="388.8,255.1 388.8,274.9 393.2,274.9 393,255.1 	"/>
	<path fill="#FFFFFF" d="M403.1,228.2C403.1,228.2,403.1,228.2,403.1,228.2C403.1,228.2,403.1,228.2,403.1,228.2
		C403.1,228.2,403.1,228.2,403.1,228.2z"/>
	<path fill="#FFFFFF" d="M390.8,241.9h7.4v-5c1.5,0.6,2.8,1.3,3.9,2.1c0.2-0.8,0.5-1.6,0.8-2.4c-1.1-1.1-4.3-4.4-5.1-6V224
		c0.9,0.1,1.8,0.5,2.6,1.1c-1.3-1.7-2.6-3.6-2.6-4.7V214c1.9,0.2,3.8,1.6,5.3,4.3c0.4-1.7,0.8-3.2,1.4-4.6c-0.9-0.8-3.6-3.3-3.7-4.8
		v-4.2c1.4,0.1,2.8,0.5,3.8,2.3c0.1-0.5,0.3-1,0.5-1.4l-2.6-3.4v-3.8c1.2,0,1.8,0.6,2.6,1.9c0.3-0.9,0.6-1.5,1-2h-0.3l-1-2.3v-3
		c0.7,0,1.2,0.4,1.8,1.2c0.2-0.7,0.5-1.3,0.9-1.8h-0.5l-2.2-1.8v-2.4c0.7,0,1.2,0.4,1.8,1.2c0.5-1.6,1.6-2.9,3-3.6
		c1.5,0.7,2.6,1.9,3.1,3.5c0.6-0.8,1-1,1.8-1.2v2.4l-2.2,1.9h-0.6c0.4,0.5,0.7,1.1,0.9,1.7c0.6-0.8,1-1,1.8-1.1v3l-1,2.3h-0.3
		c0.4,0.5,0.7,1.1,0.9,1.9c1-1.3,1.6-1.7,2.8-1.8v3.8l-2.7,3.3c0.2,0.4,0.3,0.9,0.4,1.5c1.2-1.8,2.4-2.2,4-2.4v4.3
		c-0.4,1.5-2.8,3.9-3.7,4.8c0.5,1.4,1,2.9,1.4,4.6c1.4-2.8,3.2-4.1,5.2-4.3v6.5c-0.2,1.1-1.5,3.1-2.8,4.8c0.9-0.7,1.8-1.1,2.8-1.2
		v6.5c-0.9,1.4-3.4,4.3-4.6,5.7c0.3,0.9,0.6,1.8,0.9,2.7c1.1-0.8,2.4-1.5,3.8-2v5h6.7c0.1-0.4,0.2-0.8,0.3-1.2v-19v-3.8v-10.8
		c-1.4,0-1.7,5.2-5,5.2c-1.8,0-1.7-2.2-0.6-3.8c0.8-1.6,1.9-3.6,0.5-7.6c-1.1,3-3.7,4-3.2,2.2c0.8-3.2,3.4-3.8,1.4-8.8
		c-0.6,4.1-3.2,4-2.6,1.6c0.7-2.8,2.3-4,0.4-7.8c-1.1,4.4-2.4,4.2-2.4,1.4c0-4.1,0-8.4-5-10c0,0-0.4-3.6-2.3-3.6
		c-1.8,0-2.2,3.6-2.2,3.6c-5.2,1.6-5,6-5,10c0,2.8-1.3,3-2.4-1.4c-1.9,3.8-0.4,5,0.4,7.8c0.6,2.4-2,2.5-2.6-1.6
		c-1.9,4.9,0.6,5.5,1.4,8.8c0.5,1.8-2.2,0.8-3.2-2.2c-1.4,4-0.4,6,0.5,7.6c1,1.7,1.2,3.8-0.6,3.8c-3.4,0-3.6-5-5-5v19v15.6V241.9z"
		/>
	<path fill="#FFFFFF" d="M416.4,228.2C416.5,228.2,416.5,228.2,416.4,228.2C416.5,228.2,416.4,228.2,416.4,228.2
		C416.4,228.2,416.4,228.2,416.4,228.2z"/>
	<path fill="#FFFFFF" d="M436.6,232.8v9.4h0.2v-17.6v-9c-1-0.6-1.9-0.6-3,0v18.7C434.7,233.8,435.7,233.3,436.6,232.8z"/>
	<rect x="382.4" y="242" fill="#FFFFFF" width="2.4" height="0.1"/>
	<path fill="#FFFFFF" d="M382.4,232.8c0.8,0.4,1.6,0.8,2.4,1.3v-7.9v-1.3c-0.6-0.5-1.7-0.4-2.4,0v1.3v2.6V232.8z"/>
	<path fill="#FFFFFF" d="M428.6,240.8c-0.1,0.4-0.2,0.8-0.3,1.2c0,0.1,0,0.2-0.1,0.2h0.2h4.3h0.9h0.1h2.8v-9.4
		c-0.9,0.5-1.9,1-2.8,1.6c0,0-0.1,0.1-0.1,0.1C431.5,235.9,429.5,237.8,428.6,240.8z"/>
	<path fill="#FFFFFF" d="M409.7,190.6c0.9,0.4,1.6,1,2.2,1.8h0.6l2.2-1.9V188c-0.8,0.2-1.2,0.4-1.8,1.2c-0.5-1.5-1.7-2.8-3.1-3.5
		c-1.4,0.7-2.5,2-3,3.6c-0.6-0.8-1.1-1.2-1.8-1.2v2.4l2.2,1.8h0.5C408.2,191.6,408.9,191,409.7,190.6z"/>
	<path fill="#FFFFFF" d="M382.4,237v5h2.4h4.2h1.8c0-0.1,0-0.2-0.1-0.2c-0.8-4-3.2-6.1-5.9-7.7c-0.8-0.5-1.6-0.9-2.4-1.3v1.2V237z"
		/>
	<path fill="#FFFFFF" d="M409.7,195.7c1.6,0.8,2.8,1.4,3.7,2.5h0.3l1-2.3v-3c-0.8,0.1-1.2,0.2-1.8,1.1c-0.2-0.6-0.5-1.2-0.9-1.7
		c-0.6-0.8-1.3-1.4-2.2-1.8c-0.8,0.4-1.5,1.1-2.1,1.8c-0.4,0.5-0.7,1.1-0.9,1.8c-0.6-0.8-1.1-1.2-1.8-1.2v3l1,2.3h0.3
		C407.1,197.1,408.3,196.6,409.7,195.7z"/>
	<path fill="#FFFFFF" d="M409.7,201c2.3,1.3,3.7,2.2,4.6,4.5l2.7-3.3v-3.8c-1.2,0.1-1.8,0.5-2.8,1.8c-0.2-0.8-0.5-1.4-0.9-1.9
		c-0.8-1.1-2.1-1.7-3.7-2.5c-1.5,0.9-2.6,1.4-3.5,2.5c-0.4,0.5-0.8,1.2-1,2c-0.8-1.3-1.4-1.9-2.6-1.9v3.8l2.6,3.4
		C406.1,203.2,407.5,202.3,409.7,201z"/>
	<path fill="#FFFFFF" d="M409.7,206.5c2.5,1.8,4.1,4.1,5.3,7.2c0.8-0.8,3.3-3.3,3.7-4.8v-4.3c-1.6,0.2-2.8,0.6-4,2.4
		c-0.1-0.5-0.3-1-0.4-1.5c-0.9-2.3-2.3-3.2-4.6-4.5c-2.2,1.3-3.6,2.2-4.6,4.6c-0.2,0.4-0.3,0.9-0.5,1.4c-1.1-1.8-2.4-2.2-3.8-2.3
		v4.2c0.1,1.5,2.8,4,3.7,4.8C405.7,210.7,407.3,208.3,409.7,206.5z"/>
	<path fill="#FFFFFF" d="M403.1,228.2C403.1,228.2,403.1,228.2,403.1,228.2c1.2-5.4,3.1-8.4,6.6-11c3.6,2.6,5.5,5.6,6.7,11
		c0,0,0,0,0,0c0.7-1.3,1.5-2.2,2.3-2.9c1.3-1.7,2.6-3.7,2.8-4.8V214c-1.9,0.2-3.7,1.6-5.2,4.3c-0.4-1.7-0.8-3.2-1.4-4.6
		c-1.2-3-2.9-5.4-5.3-7.2c-2.4,1.8-4,4.2-5.2,7.2c-0.5,1.4-1,2.9-1.4,4.6c-1.4-2.8-3.4-4.1-5.3-4.3v6.5c0.1,1.1,1.3,3,2.6,4.7
		C401.4,225.8,402.3,226.8,403.1,228.2z"/>
	<path fill="#FFFFFF" d="M410,227.9c3.9,2.6,5.8,5.3,7,8.3c1.2-1.3,3.7-4.2,4.6-5.7V224c-1,0.1-1.9,0.5-2.8,1.2
		c-0.9,0.7-1.6,1.6-2.3,2.9c0,0,0,0,0,0.1c0,0,0,0,0,0c-1.2-5.4-3.1-8.4-6.7-11c-3.5,2.6-5.4,5.6-6.6,11c0,0,0,0,0,0c0,0,0,0,0,0
		c-0.8-1.4-1.7-2.4-2.6-3.1c-0.8-0.6-1.7-1-2.6-1.1v6.5c0.8,1.6,4,4.9,5.1,6C404.1,233.4,406,230.6,410,227.9z"/>
	<path fill="#FFFFFF" d="M404.6,241.4c1-4.6,3-6.5,5.5-9.2c2.5,2.8,4.2,4.8,5.3,9.2c0.5-0.9,1.4-1.8,2.5-2.6
		c-0.3-0.9-0.5-1.8-0.9-2.7c-1.2-3-3.1-5.7-7-8.3c-4,2.7-5.9,5.5-7.1,8.6c-0.3,0.8-0.5,1.6-0.8,2.4
		C403.2,239.7,404.1,240.5,404.6,241.4z"/>
	<path fill="#FFFFFF" d="M398.2,245h0.5h5.9h10.7h6h0.4v-2.9v-0.2v-5c-1.4,0.5-2.7,1.2-3.8,2c-1.1,0.8-2,1.7-2.5,2.6
		c-1.1-4.4-2.8-6.5-5.3-9.2c-2.5,2.8-4.6,4.7-5.5,9.2c-0.5-0.9-1.3-1.7-2.4-2.5c-1.1-0.8-2.5-1.5-3.9-2.1v5v0.2V245z"/>
	<polygon fill="#FFFFFF" points="220.5,311.2 172.8,311.2 172.8,326.2 165,326.2 165,341.2 220.5,341.2 	"/>
	<rect x="329.2" y="311.2" fill="#FFFFFF" width="71" height="30"/>
	<rect x="239.7" y="311.2" fill="#FFFFFF" width="70.3" height="30"/>
	<path fill="#FFFFFF" d="M467.2,311.2h-47.8v27.5c0.9,0.3,1.7,0.5,2.4,0.6c2.3,0.3,2.5,0.3,3.1-1.1c0.4-0.8,0.7-1.9,0.7-2.5
		c0-0.6,0.5-1.2,1.1-1.4c1.8-0.6,3.4-3.3,3.4-5.8c0-1.7,0.3-2.4,1.2-2.9c1.7-0.9,4.9-0.2,6.7,1.5c2,1.9,6.4,2.9,7.8,1.6
		c1.1-1,3.1-1.1,3.7-0.2c0.2,0.3,2,1.3,3.9,2.2c2,0.8,3.6,1.8,3.6,2.1c0,0.8,3.6,2.9,5.3,2.9c0.8,0,2.3-0.4,3.2-0.9
		c1.5-0.8,2.2-0.8,4.9-0.2c1.7,0.4,3.6,1.2,4.3,1.7c0.1,0.1,0.3,0.2,0.4,0.3v-6.7c-0.8-1.3-1-2.3-0.9-3.7h-6.9V311.2z"/>
	<polygon fill="#FFFFFF" points="220.5,288.6 192.9,288.6 188.3,288.6 188.3,298.3 220.5,298.3 	"/>
	<polygon fill="#FFFFFF" points="419.4,298.3 451.6,298.3 451.6,288.6 447.3,288.6 419.4,288.6 	"/>
	<rect x="239.7" y="288.6" fill="#FFFFFF" width="70.3" height="9.7"/>
	<rect x="329.2" y="288.6" fill="#FFFFFF" width="71" height="9.7"/>
	<polygon fill="#FFFFFF" points="419.4,311 459.5,311 459.5,298.3 451.6,298.3 419.4,298.3 	"/>
	<rect x="329.2" y="298.3" fill="#FFFFFF" width="71" height="12.7"/>
	<rect x="239.7" y="298.3" fill="#FFFFFF" width="70.3" height="12.7"/>
	<polygon fill="#FFFFFF" points="188.3,298.3 180.6,298.3 180.6,311 220.5,311 220.5,298.3 	"/>
	<polygon fill="#FFFFFF" points="220.5,281.2 217.1,281.2 212.1,281.2 201.7,281.2 199.4,281.2 192.9,281.2 192.9,288.6 
		220.5,288.6 	"/>
	<polygon fill="#FFFFFF" points="297.9,281.2 287.1,281.2 258.8,281.2 248.1,281.2 243.1,281.2 239.7,281.2 239.7,288.6 310,288.6 
		310,281.2 306.4,281.2 	"/>
	<polygon fill="#FFFFFF" points="427.9,281.2 423,281.2 419.4,281.2 419.4,288.6 447.3,288.6 447.3,281.2 440.9,281.2 438.4,281.2 	
		"/>
	<polygon fill="#FFFFFF" points="392,281.2 381.3,281.2 353.8,281.2 342.6,281.2 333.5,281.2 329.2,281.2 329.2,288.6 400.2,288.6 
		400.2,281.2 396.9,281.2 	"/>
	<polygon fill="#FFFFFF" points="224.8,281.2 224.7,281.2 220.5,281.2 220.5,288.6 220.5,298.3 220.5,311 220.5,311.2 220.5,341.2 
		224.7,341.2 	"/>
	<polygon fill="#FFFFFF" points="239.7,311.2 239.7,311 239.7,298.3 239.7,288.6 239.7,281.2 235.5,281.2 235.5,281.5 235.5,341.2 
		239.7,341.2 	"/>
	<polygon fill="#FFFFFF" points="329.2,311.2 329.2,311 329.2,298.3 329.2,288.6 329.2,281.2 325.2,281.2 325.2,281.4 325.2,341.2 
		329.2,341.2 	"/>
	<polygon fill="#FFFFFF" points="314.4,281.4 314.4,281.2 310,281.2 310,288.6 310,298.3 310,311 310,311.2 310,341.2 314.4,341.2 	
		"/>
	<polygon fill="#FFFFFF" points="235.5,281.5 235.5,281.2 224.8,281.2 224.7,341.2 235.5,341.2 	"/>
	<polygon fill="#FFFFFF" points="404.4,281.2 400.2,281.2 400.2,288.6 400.2,298.3 400.2,311 400.2,311.2 400.2,341.2 404.4,341.2 	
		"/>
	<path fill="#FFFFFF" d="M419.4,311.2V311v-12.7v-9.7v-7.4h-4.1h-0.1v55.7l1.8,0.9c0.7,0.3,1.5,0.6,2.4,0.9V311.2z"/>
	<polygon fill="#FFFFFF" points="325.2,281.4 325.2,281.2 314.4,281.2 314.4,281.4 314.4,341.2 325.2,341.2 	"/>
	<path fill="#FFFFFF" d="M415.2,281.2h-10.7h-0.1v60h5.7c0.4-0.4,0.7-0.8,1.2-1.3l3.2-3.3l0.7,0.3V281.2z"/>
</g>
</svg>
