<?xml version="1.0" encoding="utf-8"?>
<!-- Generator: Adobe Illustrator 17.1.0, SVG Export Plug-In . SVG Version: 6.00 Build 0)  -->
<!DOCTYPE svg PUBLIC "-//W3C//DTD SVG 1.1//EN" "http://www.w3.org/Graphics/SVG/1.1/DTD/svg11.dtd">
<svg version="1.1" id="flag-icon-css-ki" xmlns="http://www.w3.org/2000/svg" xmlns:xlink="http://www.w3.org/1999/xlink" x="0px"
	 y="0px" viewBox="0 0 640 480" enable-background="new 0 0 640 480" xml:space="preserve">
<g>
	<path fill="#E73E2D" d="M291.8,174.3c1-7.4,4.1-14.8,11.3-22.1c-22.7-11.9-35.3-18.7-48.2-26.2c-12.2-7-26.6-15.3-31.9-18.4
		c-8.1-4.5-13-7.9-29.1-20.1c-10.7-8.1-23.3-18.1-28-22.2c-21.8-19.1-26.6-22.6-44.4-32.9c-7-4-24.8-16.6-25.7-18.1
		c-0.2-0.2-4.3-2.1-9.2-4.2c-7.9-3.4-8.9-4-9.2-5.3c-0.4-1.9-1.2-2.2-7.2-2.5C65.2,2,65.1,2,61,4.1c-2.3,1.2-5.5,3.4-7.1,4.9l-3,2.7
		l-0.6,5.3l-0.6,5.3L46,26.1c-2.5,2.6-4.5,5.3-5.9,8c-2,4-2.1,4.5-3.1,14.7c-1.1,11.2-1.3,26.1-0.6,35.9l0.4,5.9l5.7,7.8
		c9.6,13.4,14.2,18.7,18.4,21c2.8,1.6,4.9,3.4,9.1,8.2c3,3.3,8.3,9.2,11.8,12.9l6.4,6.8h6.1l6.2,0.1l8.3-3.2l8.2-3.2l2.3-3.3
		c1.2-1.8,3.6-4.9,5.3-6.8c2.2-2.5,3.3-4.4,4-6.8c1.4-4.5,1.4-4.9-0.9-9.4c-1.6-3.1-2.4-4.1-4.2-5c-1.6-0.8-2.2-1.5-2.3-2.4
		c0-0.7-0.2-2.7-0.5-4.5c-0.3-2.7-0.2-4.1,0.7-7.2c1.7-5.8,5.1-12.3,7-13.3c0.9-0.4,3.3-2.1,5.2-3.6l3.6-2.8l1.1,2.7l1.1,2.7
		l4.8,0.4l4.7,0.4l2.4,2.6c1.3,1.4,3.1,3.4,3.9,4.5c0.8,1.1,2.1,2.3,2.9,2.7c1.1,0.6,1.7,1.7,2.6,4.7c0.9,3.1,1.7,4.5,3.7,6.5
		l2.6,2.7h4.9c3.8,0,5.4,0.2,7,1.1c1.9,1,2.2,1.4,2.2,3.1v1.9h2.9c3.4,0,5.4,1.2,10.2,6.2c2.2,2.3,3.3,4.2,4.8,7.9l2,5v15.6v15.6
		l2.7,1c1.4,0.6,4,1.7,5.8,2.6l3.2,1.6l1.8-1.6c1.3-1.2,3-1.8,6.4-2.6c5-1.1,7.2-2.4,7.2-4.4c0-1.2,5.8-6.5,7.5-6.9
		c1.8-0.4,2.9,0.9,3.3,4c0.3,2.7,0.6,3.2,2.2,4.2c1.5,0.9,2.8,1.1,8.2,1.1h6.3l4.1,3.1l4.1,3.1h2.4c1-2.2,2.2-4.6,3.7-7
		c0.6,2.6,1.1,4.9,1.7,7h3l2,6.5c0.8,2.7,1.6,5.2,1.9,6.4c0.6,0.6,1.1,1.1,1.7,1.6c0.7,0.3,1.7,0.7,2.7,1.1c0.4,0.2,0.9,0.3,1.3,0.4
		l-5.6-31.1L291.8,174.3z"/>
	<path fill="#E73E2D" d="M347,174.9l-4.6-2.4c0.4,2.5,1,5,1.4,8.1L347,174.9z"/>
	<path fill="#E73E2D" d="M326.3,164.2c-1.1-0.6-2.1-1.1-3.2-1.6l0.8,5.1C324.6,166.4,325.4,165.3,326.3,164.2z"/>
	<path fill="#E73E2D" d="M390.5,216.6l18.4-7.1l-2.8-1.8l-6.8-4.2C394,207.8,392.8,211.7,390.5,216.6z"/>
	<path fill="#E73E2D" d="M314.1,176.8l3.1-17.3c-3.7-1.9-7.1-3.7-10.4-5.4C306.4,167.4,310,170.7,314.1,176.8z"/>
	<path fill="#E73E2D" d="M375.3,189.4l-3.9-2c-0.4,2.1-0.6,4.2-1,6.6L375.3,189.4z"/>
	<path fill="#E73E2D" d="M497.8,280.7c-13.8-12.5-32.4-28.7-45.5-39.6l-22.6-18.7L412.8,212l-12.4,10.5c8.8-1.1,18.5,0.7,29.5,8.8
		c-14.9,2.1-19.1,5.6-23.2,10.2l0.9,0.7l4.4-1.9c2.4-1.1,4.6-1.9,4.8-1.9c0.2,0,0.9,1.2,1.5,2.6c0.3,0.7,0.9,1.7,1.8,2.9l16.7-0.4
		l-13.6,4.2c0.1,0.1,0.3,0.3,0.4,0.4c4,4.4,4.2,4.7,4.2,7.4v2.9l1.9-1.2c1.2-0.7,2.8-1.2,4.3-1.2c2.3,0,2.9,0.3,7.7,4.4
		c2.9,2.4,7,6,9.1,8c2.2,1.9,5.4,4.3,7.2,5.2c2.6,1.3,4.4,3,6,5.9c5.7,1.3,12,2.2,19.3,2.2C488.5,281.7,493.3,281.4,497.8,280.7z"/>
	<path fill="#E73E2D" d="M146.9,281.2c-2.9-3-6.2-7-7.3-9c-1.9-3.2-2.1-3.9-2.1-7.8c0-4.2-0.1-4.4-2.6-8.4c-1.4-2.3-4.1-6.2-6-8.7
		c-1.9-2.5-4-6.1-4.8-8c-1.1-2.9-2-4-5.8-7.4c-7.6-6.7-8.2-7.7-10.8-18c-1.9-7.3-2.3-9.9-2.3-14.2v-5.3l5.9-11.9l5.9-11.9l3.2-1.6
		l3.2-1.6v-3.3c0-2.9-1.1-5.9-3.1-8.6c-0.1-0.1-1.6-0.4-3.3-0.7l-3.2-0.6l-5,3.3c-7.2,4.7-9.7,5.4-17.6,4.7l-6.4-0.6l-3.9,1.8
		c-4.7,2.2-10.3,7.6-13.5,13c-2.1,3.5-2.1,3.6-7.3,5.6l-5.2,2.1l-2.1,4.1l-2.1,4.1v9.4l-0.1,9.4l3.8,4.8c2.4,3.2,5.8,6.5,9.8,9.8
		c3.4,2.8,10.1,9.3,15,14.5l8.9,9.5l7.4,14.3l3,5.8c10.5,5.5,23.2,10.5,42.1,11.3C143,281.3,145,281.3,146.9,281.2z"/>
	<path fill="#E73E2D" d="M385.1,194.7l-2.5-1.5l-1.7,3.1C382.2,195.7,383.6,195.2,385.1,194.7z"/>
	<path fill="#FEC74A" d="M266.6,167.3h3h2.5c-0.6-2-1.2-4.3-1.7-7C268.9,162.7,267.6,165,266.6,167.3z"/>
	<path fill="#FEC74A" d="M279,180.1c0.1,0.4,0.2,0.6,0.2,0.7c0,0.2,0.6,0.5,1.5,0.9C280.2,181.2,279.6,180.7,279,180.1z"/>
	<path fill="#FEC74A" d="M306.9,154.2c-1.3-0.7-2.5-1.3-3.8-2c-7.2,7.3-10.4,14.8-11.3,22.1l5.5,9.7c1.1-0.2,2.3-0.4,3.4-0.7l4.3-1
		l7.8,1.5l1.3-7.1C310,170.7,306.4,167.4,306.9,154.2z"/>
	<path fill="#FEC74A" d="M342.5,172.5l-12.7-6.5c-1.2-0.6-2.4-1.2-3.5-1.8c-0.9,1.1-1.6,2.3-2.3,3.4l3.2,19.6l6.5,4.9
		c1,0.8,1.9,1.4,2.7,2l7.5-13.6C343.5,177.5,342.8,175.1,342.5,172.5z"/>
	<path fill="#FEC74A" d="M371.4,187.4l-16.3-8.4l-3.6,22.7c1.1,0.7,2.1,1.6,3.5,3c0.7,0.6,1.3,1.2,2,1.7l13.4-12.5
		C370.8,191.6,371,189.5,371.4,187.4z"/>
	<path fill="#FEC74A" d="M399.2,203.5l-14.2-8.8c-1.4,0.4-2.8,1-4.2,1.5l-9.7,17.6c3.8,2,7.6,4.1,10.6,6l8.7-3.3
		C392.8,211.7,394,207.8,399.2,203.5z"/>
	<path fill="#FEC74A" d="M429.9,231.2c-11-8-20.6-9.9-29.5-8.8l-4.5,3.8l2,4.7c1.9,4.4,2.5,5.2,5.9,8.1l2.9,2.4
		C410.8,236.8,415,233.3,429.9,231.2z"/>
	<path fill="#FEC74A" d="M420.1,243.7c0.9,1.2,2,2.6,3,3.8l13.6-4.2L420.1,243.7z"/>
	<path fill="#FEC74A" d="M412.8,212l-3.9-2.4l-18.4,7.1l-8.7,3.3c1.3,0.8,2.5,1.6,3.4,2.3c4.8,3.5,5.4,3.8,7.9,3.8h2.7l0.1,0.2
		l4.5-3.8L412.8,212z"/>
	<path fill="#FEC74A" d="M382.6,193.2L382.6,193.2l-7.3-3.7l-4.9,4.5L357,206.5c1.6,1.3,3.3,2.4,4.7,3c2.7,1.1,6.1,2.7,9.5,4.5
		l9.7-17.6L382.6,193.2z"/>
	<path fill="#FEC74A" d="M347,174.9l-3.2,5.7l-7.5,13.6c4.2,3,6,3.9,9.8,5.2c2.5,0.9,4,1.5,5.3,2.3l3.6-22.7L347,174.9z"/>
	<path fill="#FEC74A" d="M323.1,162.5c-2-1-4-2-5.9-3l-3.1,17.3l-1.3,7.1l2.9,0.6l10.7,2.2l0.7,0.6l-3.2-19.6L323.1,162.5z"/>
	<path fill="#FEC74A" d="M279.2,152.2l5.6,31.1c3.8,1.2,8,1.5,12.6,0.8l-5.5-9.7L279.2,152.2z"/>
	<path fill="#FEC74A" d="M304.9,281.1c-1.3-1.2-3.4-2.6-4.6-2.9c-1.2-0.4-3-1.3-4-1.9c-1.6-1.1-2.1-1.2-4.5-0.7
		c-1.8,0.3-2.5,0.6-3.9,2.1c5.6,2.4,11.8,4.3,18.8,5.3C306.3,282.5,305.8,281.9,304.9,281.1z"/>
	<path fill="#005989" d="M583.5,390c-1.5-3-3.2-6.4-5.2-10.2c-5.5-10.7-9.3-18.3-12.3-23.9c-7.8,1-14.2,3.9-20.8,7.5
		c2.2,2.2,4.9,4.6,8.2,7.5l9,7.9l2.2,6.6c0.5,1.4,0.9,2.6,1.3,3.6c2-0.3,4-0.5,6.2-0.5C575.9,388.4,579.7,389,583.5,390z"/>
	<path fill="#005989" d="M540,322c-6-6.3-10.5-11.1-14.9-15.6c-6.5,3.2-13.9,6-23,7.7c0.3,0.2,0.7,0.3,1,0.5l3.5,2l-0.3,3.2
		l-0.4,3.2l2.7,0.2c2.6,0.2,2.7,0.2,4.4,3.5c1.2,2.3,3.2,4.5,6.7,7.7c2.7,2.4,5,4.7,5.2,5c0.1,0.2,0.2,0.5,0.3,1
		c7.9-3.8,14.6-8.2,21-11.9C544.4,326.6,542.4,324.5,540,322z"/>
	<path fill="#005989" d="M378.7,322.9l-1.9-4.7c-2-4.6-2.1-4.7-6.8-7.8c-3-2-5.7-3.4-10.1-5.1c-11.7,7.4-25.4,14-44.3,13.6
		c-33.7-0.3-47.4-21.2-65.7-28.6c-3.9,0.1-6.9,0.2-7.8,0.2c-1.5,0.1-5.7-0.1-9.2-0.4l-6.4-0.4l-3.4,1.7c-2.8,1.4-4.4,1.8-10,2.3
		l-6.6,0.6l-2.6,2.6c-2.3,2.3-2.6,2.8-2.9,5.9c-0.6,5.3-0.6,5.3-2.9,4.7c-1.1-0.3-4-1.9-6.6-3.6c-1.1-0.7-2-1.3-2.6-1.8
		c-7.8,4.4-16,8.9-25.8,11.6l26.8,7.7l14.7,1.9c4.4,0.6,7.6,1,10.4,1.3c6.3-2,12.6-3.3,18.9-3.3c6.3-0.1,12,1.4,17.5,3.8
		c12.7-0.3,23.5-1,30.6-2l7.1-0.9l6.5,4.7c3.6,2.6,8.3,6.2,10.6,7.9c2.3,1.8,4.7,3.4,5.3,3.5c0.7,0.2,4.5,0.9,8.7,1.7
		c4.8,0.9,11.2,2.7,24.7,7.1c16.4-5.6,26.4-15.5,37.3-21.7L378.7,322.9z"/>
	<path fill="#005989" d="M509.7,410.7c-1.1-2.2-2.2-3.5-3.4-4.1c-5.5-2.8-11.5-7.1-13.6-9.8c-1.3-1.6-4.1-4.7-6.3-6.8
		c-3.8-3.8-4.3-4-8.2-4.9c-1.5-0.4-3-0.9-4.4-1.7c-34.3-3.5-44.3-28.7-71.4-28.7c-7.7-0.8-14.4,1.4-21.1,5.1l21.3,10.4
		c13.4,6.5,34.9,17.4,47.8,24.1l23.4,12.3l12.7,11.2c10-0.2,18.3-1.7,25.6-3.8C511,413.1,510.5,412.2,509.7,410.7z"/>
	<path fill="#005989" d="M581.1,432.9c-1.4,1.2-4.3,4-6.4,6.4c-2.1,2.4-5.7,6-8.1,8l-4.3,3.7l-4.2-1.6c-4.9-1.8-10.3-6.2-15.1-11.9
		c-0.6-0.8-1.7-1.9-3-3.1c-6.4,3.7-13.1,7.7-21.4,11c1.1,0.9,2.2,1.8,3.2,2.6c14.4,11.7,18.5,14.8,28,20.6c6.1,3.8,11.9,7,12.8,7.1
		c0.9,0.2,7,0.7,13.6,1.2l11.9,0.9l6.8-2.7l6.9-2.6v-4.5c0-3.1,0.3-5.5,1.2-7.9l1.2-3.5l-1.1-3.2c-0.9-2.6-1.2-5-1.4-12.9l-0.3-8.9
		c-5.3-2.6-10.5-4.9-15.7-6.3C583.9,430.3,583.4,431.1,581.1,432.9z"/>
	<path fill="#FFFFFF" d="M596.3,418c-3.4-8.7-6.2-14.9-12.8-28c-3.8-1-7.6-1.6-11.4-1.6c-2.1,0-4.2,0.2-6.2,0.5c1.5,4,3,5.7,10,13.5
		c2,2.3,5.5,7,7.9,10.5l4.2,6.3l-2.1,5.8c-0.1,0.1-0.1,0.3-0.1,0.4c5.2,1.4,10.4,3.7,15.7,6.3l0-0.8L596.3,418z"/>
	<path fill="#FFFFFF" d="M402.3,354.7c27.2,0,37.1,25.2,71.4,28.7c-2.9-1.4-5.7-3.6-8.9-6.9c-1.4-1.4-4.5-4.2-6.9-6.2l-4.4-3.6
		l-10-2.1c-5.5-1.1-10-2.1-10.1-2.1c-0.1,0-1.8-2.4-3.9-5.4c-3.1-4.5-4-6.2-4.8-9.7l-1-4.2l-3.8-2.6c-3.3-2.3-4.3-2.7-7.9-3.1
		c-2.2-0.2-6.5-0.5-9.6-0.5l-5.5-0.1l-9.1-7l-5.7-4.4c-10.9,6.2-20.9,16.1-37.3,21.7c2.4,0.8,5.1,1.7,8,2.6l25.2,8.4l3.1,1.5
		C387.9,356.1,394.6,353.8,402.3,354.7z"/>
	<path fill="#FFFFFF" d="M215.1,324.7c6,0.6,10,0.7,20.7,0.7c5.5,0,10.7-0.1,15.7-0.2c-5.5-2.4-11.2-3.9-17.5-3.8
		C227.7,321.4,221.4,322.7,215.1,324.7z"/>
	<path fill="#FFFFFF" d="M546.2,328.4c-6.5,3.7-13.1,8.1-21,11.9c0.2,0.7,0.3,1.6,0.5,2.5l0.3,2.8l3.8,0.9l3.8,1l2.3,3.9
		c2.2,3.9,4.9,7.2,9.5,11.7c6.5-3.6,13-6.5,20.8-7.5C558.5,341.6,556.4,339.2,546.2,328.4z"/>
	<path fill="#FFFFFF" d="M524,420.8c-1-0.6-4.2-2.3-7.2-4c-2.6-1.4-4-2.2-4.9-3c-7.2,2.2-15.6,3.6-25.6,3.8l3,2.7
		c7.7,6.9,20.2,17.5,29.4,25.1c8.3-3.3,15-7.3,21.4-11C535.1,429.6,526.5,422.2,524,420.8z"/>
	<path fill="#FFFFFF" d="M186.9,298.5c0-1.8,0.4-2.8,1.9-4.7c1.1-1.3,1.9-2.6,1.9-2.7s-0.7-1.7-1.7-3.5c-1.9-3.7-2.8-4.1-8.3-3.8
		l-3,0.2l-0.5,2.3c-0.2,1.3-0.8,2.4-1.4,2.7c-0.5,0.2-5.5,0.6-11.3,0.7l-10.3,0.3l-1.1-1.6c-0.6-0.9-3.4-4.1-6.4-7.2
		c0,0-0.1-0.1-0.1-0.1c-2,0.1-3.9,0.2-5.9,0.1c-18.9-0.8-31.6-5.8-42.1-11.3l4.4,8.5l12.3,9c11.9,8.8,12.4,9.2,14.9,13.3l2.7,4.3
		l28.4,8.2l1.6,0.5c9.8-2.7,18-7.2,25.8-11.6C187,300.7,186.9,300.2,186.9,298.5z"/>
	<path fill="#FFFFFF" d="M498.3,281.2c-0.2-0.2-0.3-0.3-0.5-0.5c-4.5,0.6-9.3,1-14.5,1c-7.3,0-13.6-0.8-19.3-2.2
		c0.7,1.2,1.3,2.6,2,4.3c1.1,2.7,1.6,3.2,3,3.6c3.6,0.7,8.3,4,11.6,7.9c1.8,2.2,3.7,4,4.2,4.2c0.7,0.3,5.2,6.7,7.8,11.3
		c0.2,0.4,1.9,1,3.7,1.3c1.5,0.3,4,1.2,5.9,2.1c9.1-1.8,16.5-4.6,23-7.7C517.8,299.1,510.9,292.6,498.3,281.2z"/>
	<path fill="#FFFFFF" d="M315.7,318.9c18.9,0.4,32.6-6.2,44.3-13.6c-0.8-0.3-1.7-0.6-2.6-1l-7.9-2.8l-7.3-0.1
		c-11.8-0.1-16.1-0.6-22.6-2.9c-5.7-2-5.8-2.2-8.9-5.8c-3-3.6-3.2-4-3.2-6.6c0-1.6-0.1-2.3-0.6-3.1c-7-1-13.1-2.9-18.8-5.3
		c-0.7,0.7-1.5,1.8-2.6,3.3c-3.4,4.4-4.2,5-7.9,6.9l-4.2,1.9l-14.1,0.3c-3.2,0.1-6.4,0.2-9.1,0.2C268.3,297.7,282,318.6,315.7,318.9
		z"/>
</g>
</svg>
