<?xml version="1.0" encoding="utf-8"?>
<!-- Generator: Adobe Illustrator 17.1.0, SVG Export Plug-In . SVG Version: 6.00 Build 0)  -->
<!DOCTYPE svg PUBLIC "-//W3C//DTD SVG 1.1//EN" "http://www.w3.org/Graphics/SVG/1.1/DTD/svg11.dtd">
<svg version="1.1" id="flag-icon-css-km" xmlns="http://www.w3.org/2000/svg" xmlns:xlink="http://www.w3.org/1999/xlink" x="0px"
	 y="0px" viewBox="0 0 640 480" enable-background="new 0 0 640 480" xml:space="preserve">
<g>
	<path fill="#FFFF00" d="M103.5,69.4c-1.9-4.9-2.3-14.2-0.6-18.7c0.7-1.9,1.2-4.4,1.2-5.7c0-1.7,0.5-3.1,2-5.3l2-2.9l-0.3-7l-0.3-7
		l-3.4-4.2c-3.8-4.6-4.5-6-4.5-8.6c0-2.2-1.6-3.2-6.7-4.4c-2.2-0.5-5.9-1.5-8.4-2.3c-5.7-1.8-7.8-1.8-10.2,0.1
		c-1.4,1.1-2.8,1.6-5.4,1.8c-3,0.2-3.8,0.6-5,2c-0.9,1-1.9,1.6-2.9,1.6c-0.9,0-3.8,0.8-6.4,1.8c-4.4,1.8-5,2.1-7.1,5.3
		c-3.2,4.7-4.6,8.1-5,12.6l61.2,41.1C103.5,69.5,103.5,69.5,103.5,69.4z"/>
	<path fill="#BE0027" d="M595.8,349.2c-0.8-1.1-2.1-3-2.8-4.3l-1.3-2.4l1.2-3.7l1.2-3.8l-1.4-2.7c-0.8-1.4-2.8-4.4-4.5-6.6l-3.1-3.9
		l-3.3,0.1c-1.8,0.1-4,0.2-4.8,0.3c-0.8,0.1-3.1,1.6-5.1,3.4c-2,1.7-3.9,3.2-4.3,3.2c-0.4,0-1.7,0.3-2.9,0.6
		c-3.9,1.1-4.9,6.5-1.3,8.1c0.8,0.3,1.4,1.2,1.4,1.7s0.4,2,0.9,3.2c0.9,2.1,0.9,2.1-1.1,4.2c-2.1,2.1-3.4,5-4,9
		c-0.2,1.2-0.8,3.2-1.3,4.4h38.4c-0.3-1.5-0.4-2.9-0.4-4.6C597.3,351.7,597.1,350.8,595.8,349.2z"/>
	<path fill="#3B5AA3" d="M223.6,470.9c-0.7,0.5-0.6,1,0.7,3.6l1.6,3.1v-3.6C225.9,470.2,225.5,469.6,223.6,470.9z"/>
	<path fill="#3B5AA3" d="M559.4,360.1c-0.9,2.1-1,2.2-3.8,2.2c-2.8,0-3.1,0.2-7,3.9c-2.4,2.3-5.7,4.7-8.1,5.9
		c-3.8,1.9-4.4,2-10.3,2.2c-5,0.2-6.7,0.5-8.1,1.3c-1,0.6-2.9,1.1-4.4,1.1c-1.4,0.1-3.2,0.4-4,0.9c-0.8,0.5-2.8,0.8-4.4,0.9
		c-2.7,0-3.2-0.2-5.4-2.4l-2.4-2.4l-4.2,0.3c-2.3,0.2-6.2-0.1-8.7-0.4c-3.9-0.6-4.8-1-6.6-2.8c-1.2-1.1-3.4-2.9-5-3.9
		c-2.5-1.7-3.1-1.8-5.8-1.5c-1.7,0.2-3.5,0.5-4,0.7c-1.6,0.6-1,2.5,1,3.6c1,0.5,3.2,2.4,4.9,4c1.7,1.7,3.4,3.1,3.7,3.1
		c0.4,0,1.8,1,3.3,2.2c5.1,4.3,10.1,7.2,21.9,12.9l12,5.8l9-0.2l9-0.3l6.1,3.4c7,4,11.1,7.7,13,11.7c1.6,3.5,5,6.8,7.9,7.8
		c2.3,0.7,6.1,4.6,9,9c1.8,2.8,6.3,5.3,12.8,6.9c4,1,4.4,1.3,7.3,4.6c3.4,3.9,6.1,9.9,6.1,13.6c0,3.2,1.3,5.1,4.7,7
		c4,2.3,7.6,2.2,10.7-0.1c2-1.5,2.4-2.1,3-5c0.8-4.3,0.2-22.5-0.8-26.2c-0.4-1.4-0.9-6-1.1-10.2c-0.4-8.3-0.2-9,2.9-9.8
		c1.6-0.4,1.7-0.6,0.6-3.2c-0.7-1.7-1.6-6.1-3-14.8c-0.2-1-1.1-2.8-2.1-4c-1.7-2-1.8-2.5-2.3-7.6c-0.5-7.7-1.2-9.5-3.8-10.9
		c-1.8-0.9-2.4-1.6-3.8-5.4c-0.5-1.5-0.9-2.8-1.1-4L559.4,360.1C559.4,360,559.4,360,559.4,360.1z"/>
	<path fill="#3B5AA3" d="M207.4,429l0.9,4.6l2.6,0.3c5.4,0.8,8.6,2.9,10.3,7l1.2,2.8l-1.2,2.3c-0.6,1.3-1.2,2.9-1.2,3.8
		c0,1.4,0,1.4,2,0.6c1.9-0.8,2.1-0.8,3.8,0.6c1.8,1.5,1.9,1.6,9.5,1.4c6.6-0.1,7.7,0,7.7,0.8c0,2.4,3.8,3.6,5,1.6
		c0.8-1.2,2.2-1.1,6.7,0.6c2.1,0.8,2.3,0.7,3.2-0.5c0.5-0.7,1.9-1.4,3.1-1.6c2-0.3,2.4-0.2,6.2,3.1c2.3,2,4.2,3.5,4.4,3.5
		c0.1,0,0.3-0.7,0.5-1.5c0.3-2.4,1.8-3.1,4.1-1.7c1.3,0.8,3.3,1.2,7,1.4c4.9,0.3,5.2,0.4,5.4,1.6c0.2,1.4,0.9,1.7,1.6,0.8
		c0.6-1,1.8-0.6,3.6,0.9c1.4,1.2,2.3,1.4,5.5,1.4c3.6,0,6.1,0.8,13.3,4.5c0.2,0.1,0.4-0.5,0.4-1.3c0-0.9,0.4-1.7,0.9-1.8
		c0.6-0.3,0.9-1.3,0.9-3.9c0-3.2-0.2-3.8-2.8-7.9c-1.6-2.4-3.5-5.7-4.2-7.1c-1.4-2.9-3.6-4.4-8.3-5.8c-1.6-0.5-4.8-1.8-7.1-2.9
		c-2.3-1.2-5-2.1-6-2.1c-2.4-0.1-3.7-0.8-6.8-4.2c-1.4-1.5-3.9-3.4-5.5-4.3c-2.1-1-3.3-2-3.8-3.2c-0.4-0.9-1.2-1.7-1.7-1.7
		s-2.4-0.5-4-1c-2.2-0.7-3.2-1.4-3.9-2.6c-0.5-0.9-2.2-2.7-3.9-3.9c-2.9-2.2-3.3-2.3-7.1-2.3c-3.8,0-4.4-0.2-9.5-2.9
		c-4.1-2.1-6.1-2.9-7.9-2.9c-1.6,0-3.1-0.5-4.2-1.2c-1.6-1.1-1.8-1.2-4.5-0.3l-2.9,0.8l-0.7-1.6c-0.6-1.6-0.9-1.7-3.8-1.7
		c-2.5,0-3.2,0.2-3.7,1.2c-0.3,0.7-1.2,1.2-2.1,1.2c-2.3,0-5.7,2-6.5,3.9c-0.4,0.9-0.9,3.6-1,6.1c-0.3,4.2-0.2,4.5,1.6,7.5
		C205.8,423.3,206.8,425.9,207.4,429z"/>
	<path fill="#3B5AA3" d="M240.6,467.4c-0.6,0-0.8,0.8-0.8,3.1c0,4.6,0.6,6.8,1.7,6.6c0.7-0.1,0.9-0.8,0.8-2.8
		C241.9,469.5,241.5,467.4,240.6,467.4z"/>
	<path fill="#239E46" d="M27.2,183.5c0,5.1,4,11.1,9.6,14.4c1,0.6,1.6,1.2,2.2,2.7c10.5-27.2,32-52.3,65.3-62.9
		c-1.1-0.8-1.7-1.8-2.6-4.6c-0.7-2.2-1.3-5.4-1.3-7.2c0-2.1-0.4-3.8-1.1-5c-1-1.7-1.1-2.6-0.8-11.3c0.3-9.3,0.4-9.5,2.3-12.9
		c1.2-2.2,2-4.7,2.2-6.4c0.1-1.6,0.5-6.2,0.9-10.3c0.6-7.1,0.6-7.6-0.6-10.5L42.4,28.5c-0.1,0.9-0.1,1.7-0.1,2.7
		c0,4.4-0.2,5.3-1.2,6.2c-1.4,1.3-1.4,2.3-0.2,5.5c1.2,3.2,3.7,19.4,3.7,23.7c0,2-0.5,4.5-1.4,6.7c-0.8,1.9-1.7,5.7-2.1,8.3
		c-0.6,4.2-0.6,5.3,0.2,8c1.3,4.6,1.2,8.8-0.5,12.1c-3.3,6.6-3.5,7.8-2.7,21.6c0.3,6.9,0.8,14.2,1,16.2l0.3,3.6l-3.5,4.4
		c-2.3,2.8-5.3,7.8-8.2,13.8c-5.3,10.6-5.4,11.4-2.3,16.8C26.7,180.1,27.2,181.7,27.2,183.5z"/>
	<path fill="#239E46" d="M76.6,227.3c0.7,0,1.5,0,2.3,0l9.2,0.1l3,2c2,1.3,3.4,2.9,4.2,4.6c0.7,1.4,3,5.1,5.3,8.1l4,5.7l3.8,0.8
		c3.6,0.7,3.9,0.9,5.5,3.5c1,1.4,4.3,4.9,7.4,7.5l2.6,2.2l-5.9-8.3l14.3,0.5l8.4-11.4l4,13.7l0.9,0.3c0.5-0.9,0.6-2.4,0.6-4.6
		c0-3.5,0.2-3.8,2.9-5.5c1.1-0.7,2.5-1.8,3.1-2.4c1-1.2,1-1.2-0.2-2.5c-0.6-0.7-1.3-2.2-1.6-3.3c-0.3-1.6-0.9-2.4-2.9-3.6
		c-0.7-0.5-1.3-0.9-1.7-1.3l0,0.4l-11.3-8.8L121,229l5-13.4l-8.3-11.6l12.3,0.4c-0.4-1.2-0.9-2.4-1.4-3.9c-1.8-5.2-2-5.9-2-13.3
		c0-3.2-0.2-5.9-0.5-8.5l-4.8,1.5l3.1-8.5c-1.4-3.8-3.5-7.1-6.6-10.5l-2.8-3.2v-5v-1C93.5,170.7,79.7,197.4,76.6,227.3z"/>
	<path fill="#FFFFFF" d="M39.1,200.6c0.3,0.8,0.7,1.9,1.1,3.3c3.3,10.9,4.3,12.8,8.2,15.7c2,1.4,5.3,3.6,7.5,4.7
		c4.4,2.3,8.1,2.9,20.7,3c3.1-29.9,16.9-56.6,38.4-75.2v-4l-2-1.2c-1.5-0.9-2-1.6-2-2.7c0-1.7-2.5-4.4-5.8-6.1
		c-0.3-0.1-0.6-0.3-0.8-0.4C71.1,148.3,49.6,173.4,39.1,200.6z"/>
	<path fill="#FFFFFF" d="M126,215.6l-5,13.4l13.7-4.3l11.3,8.8l0-0.4c-0.7-0.7-1-1.4-1.2-2.4c-0.6-3.1-2.2-5.9-4.9-8.5
		c-1.8-1.7-2.4-2.7-2.4-4.1c0-1.4-0.5-2.3-2-3.5c-1.8-1.5-3.3-4.1-5.6-10.2l-12.3-0.4L126,215.6z"/>
	<path fill="#FFFFFF" d="M126.1,178.8c-0.4-2.5-0.9-4.8-1.7-7l-3.1,8.5L126.1,178.8z"/>
	<path fill="#FFFFFF" d="M140.6,242.3l-8.4,11.4l-14.3-0.5l5.9,8.3l3,2.6l3.5-0.2c4-0.2,8.9-2.4,9.8-4.3c0.3-0.9,1.3-1.4,2.8-1.6
		c1.3-0.2,2.2-0.7,2.6-1.7l-0.9-0.3L140.6,242.3z"/>
</g>
</svg>
