<?xml version="1.0" encoding="utf-8"?>
<!-- Generator: Adobe Illustrator 17.1.0, SVG Export Plug-In . SVG Version: 6.00 Build 0)  -->
<!DOCTYPE svg PUBLIC "-//W3C//DTD SVG 1.1//EN" "http://www.w3.org/Graphics/SVG/1.1/DTD/svg11.dtd">
<svg version="1.1" id="flag-icon-css-kn" xmlns="http://www.w3.org/2000/svg" xmlns:xlink="http://www.w3.org/1999/xlink" x="0px"
	 y="0px" viewBox="0 0 640 480" enable-background="new 0 0 640 480" xml:space="preserve">
<g>
	<path fill="none" d="M153.5,0.1l2.3,0C155.5,0,154.7,0,153.5,0.1z"/>
	<path fill="#FFE900" d="M376.1,291.6c-0.1,1.4-0.4,3.2-0.7,4.2c-0.5,1.5-0.3,2.1,0.8,4.9c1.4,3.2,1.5,3.3,3.4,3.6
		c1.9,0.3,2.2,0.2,4.6-1.5c2.5-1.9,2.6-2,2.2-3.6c-0.2-1-0.4-4.1-0.4-7c0-4.1,0.1-5.5,0.7-6.1c1-1.3,6.3-4,7.3-3.7
		c0.5,0.1,1.9,1.7,3.2,3.5c2.1,3,2.5,3.4,3.9,3.4c1.5,0,1.5-0.1,1.5-1.8c0-1.4,0.3-2.1,1.6-3.3c0.9-0.9,1.9-1.5,2.4-1.4
		c0.7,0.1,0.9-0.2,1-1.2c0.2-1.6,2.3-2.7,5.5-2.7h2.1v2.1c0,1.6,0.2,2.2,1.1,2.8c0.5,0.3,0.8,0.5,1.1,0.5l5.2-3.4c0-0.2,0-0.5,0-0.8
		c0-1.2-0.4-1.9-2.1-3.3c-1.9-1.7-2.1-2.1-2.1-4v-2.1l2.2-0.3c4.5-0.7,4.6-0.7,5.2-2.7c0.4-1.4,1-2.1,2.1-2.6
		c1.4-0.7,1.5-0.8,1.4-2.9c-0.1-1.2-0.4-2.4-0.7-2.7c-0.3-0.3-1.1-1.8-1.7-3.4c-0.1-0.3-0.2-0.5-0.3-0.7L376,289.3
		C376.2,289.7,376.2,290.4,376.1,291.6z"/>
	<path fill="#FFE900" d="M230.3,182.4l1.9,1.7c1.9,1.7,1.9,1.7,3.3,1c1.8-1,9.2-1,12.7,0c1.4,0.4,3.5,0.7,4.7,0.7
		c2,0,2.2,0.1,2.6,1.5c0.3,0.9,0.7,1.4,1.4,1.7l66.8-43.2c-3.5-3.8-4.8-5.9-6.4-10.3c-0.7-1.7-1.6-3.9-2.1-4.7
		c-0.5-0.8-0.9-2.1-0.9-2.7c0-0.2,0-0.4,0-0.6l-85.7,55.1L230.3,182.4z"/>
	<path fill="#35A100" d="M153.5,0.1c-1,0.1-2.4,0.4-4.3,0.8c-3.7,0.8-4.4,1.1-6.3,2.9c-1.6,1.5-2.7,2.2-4.3,2.4
		c-1.1,0.2-2.4,0.7-2.9,1.1c-0.7,0.6-1.3,0.7-3.3,0.4c-1.4-0.2-3.8-0.4-5.5-0.3c-2.5,0.1-3.1,0.3-4,1.3c-1.4,1.4-2.9,1.8-5.7,1.5
		c-1.5-0.2-2.1-0.1-2.1,0.3c0,0.3-0.2,1.4-0.5,2.3c-0.5,1.6-0.7,1.8-3.7,2.8c-2.9,0.9-3.3,1.2-3.6,2.5c-0.1,0.8-0.8,2.1-1.4,2.9
		c-0.6,0.8-1.1,2-1.1,2.7c0,0.9-0.3,1.2-1.3,1.5c-0.7,0.1-1.9,1-2.6,1.9c-0.9,1.2-2,1.8-4,2.3L94.4,30l-0.3,2.6
		c-0.2,2.1-0.6,2.9-1.5,3.7c-0.6,0.6-1.4,1.9-1.7,3c-0.3,1.1-1,2.9-1.5,3.8c-0.8,1.5-0.9,2.1-0.4,4.4c0.2,1.5,0.5,5.2,0.5,8.4
		c0,5.8,0,5.8-1.7,8.8C86,68.1,86,69.3,88,70c0.7,0.3,3.4,1.7,6,3.2l4.8,2.8l5.1,7.8c2.9,4.3,5.4,7.8,5.6,7.8c0.8,0,1.5,3.7,1.2,5.9
		c-0.2,1.2-0.1,2.7,0.2,3.7c0.5,1.5,0.7,1.7,2.2,1.7c1.3,0,1.7,0.2,2,1.1c0.3,0.7,1.2,1.3,2.7,1.9c2.2,0.7,2.4,1.1,4.5,4.8
		c2,3.5,2.6,4.2,4.6,5.1c1.3,0.7,3.2,2.2,4.3,3.4c7,7.7,7.7,8.3,14.4,11.1c3.5,1.5,8.1,3.4,10.3,4.2s4.7,1.9,5.4,2.3
		c0.8,0.4,1.7,0.7,2.1,0.7c0.7,0,4.4,2,10.6,5.6c2.1,1.2,4.8,2.6,6.1,3c2.3,0.7,2.3,0.8,4.4,5.1c1.2,2.6,2,5,2,6
		c0,1.3,0.4,2.2,1.5,3.5c0.8,0.9,2.2,3.2,3.1,5.1l1.6,3.3l3.4,1c1.9,0.6,4.3,1.7,5.3,2.5c1.2,0.8,2.6,1.4,3.4,1.4
		c2.2,0,5.1,1.8,5.6,3.5c0.2,0.7,0.9,1.9,1.4,2.4c0.8,1,1,1,2.2,0.4c2.2-1.2,4-0.9,6,1l1.8,1.7l4.2-0.3l2.4-0.2l85.7-55.1
		c-0.1-1.6-0.9-3-1.8-3.3c-0.5-0.1-1-0.8-1.2-1.6c-0.1-0.7-1.4-2.4-2.8-3.8c-1.6-1.5-2.6-3-2.8-3.9c-0.2-1.1-1.2-2.2-3.8-4.4
		c-2.8-2.4-9-9.3-13.2-14.6c-0.4-0.6-0.5-1.1-0.1-2c0.4-1.1,0.3-1.3-1.8-2.7c-1.5-1-2.4-1.9-2.6-2.8c-0.1-0.7-0.8-1.8-1.5-2.4
		c-0.7-0.7-1.1-1.6-1.1-2.5c0-2.2-1.1-3.6-3.1-4.4c-3-1.3-6.6-4.3-7.2-6.1c-0.7-2.5-2.7-4.3-4.7-4.3c-1.5,0-1.8-0.2-2.7-1.8
		c-0.6-1-1-2.6-1-3.5c0-1.8-0.8-2.4-4.1-2.9c-1-0.2-2-0.8-2.7-1.8c-1-1.4-1.5-1.6-3.1-1.6c-1,0-3.1-0.6-4.8-1.4
		c-2.2-1-3.1-1.7-3.8-3c-0.5-1-1.3-1.7-1.7-1.7c-1.5,0-6.9-2.2-9-3.7c-2.5-1.8-19-19.3-21.3-22.6c-2.2-3-4.9-4.6-8.3-4.6
		c-1.5,0-2.8-0.3-3.7-0.9c-0.8-0.5-2.2-0.9-3.2-0.9c-1.1,0-3-0.6-4.9-1.6c-2.4-1.2-3.3-2-3.9-3.3c-0.7-1.5-1.1-1.7-2.4-1.7
		c-0.8,0-2,0.3-2.5,0.7c-0.5,0.4-1.2,0.7-1.5,0.7c-0.4,0-1.3,0.6-2,1.2l-1.3,1.3l-2-0.8c-2.6-1-3.2-1.5-3.2-2.8
		c0-1.9-1.7-4.8-3.4-5.9C169,5.5,168.1,4.6,168,4c-0.5-2.2-2.9-3.1-7.7-3.1c-2.5,0-4.3-0.2-4.3-0.5c0-0.1-0.1-0.2-0.2-0.3L153.5,0.1
		z"/>
	<path fill="#C70000" d="M417.9,384.2c0.5,1.9,1.1,6.1,1.4,9.4l0.6,5.9l-1.6,1.7l-1.6,1.7l0.1,7.7c0,6.4,0,8-0.7,9.2
		c-0.5,0.9-1.1,1.5-1.6,1.5c-0.7,0-0.9,0.5-1.1,2.7l-0.2,2.7l2.9,2.9c2.5,2.5,2.9,3.2,3.1,5c0.3,2.5,2.5,7.1,5.3,11.1
		c2.1,2.9,2.1,3,2.1,6.9v3.9l1.6,0.7c1.1,0.5,1.8,1.2,2.3,2.3c0.4,1.1,1.1,1.8,2.1,2.1c1.1,0.4,1.5,0.8,1.5,1.7c0,1,0.6,1.5,3.5,2.9
		c1.9,0.9,3.5,2,3.5,2.3s0.4,1,0.9,1.5c0.5,0.5,0.9,1.5,0.9,2.3c0,1.2,0.2,1.4,2,1.9c1.1,0.3,2.8,0.9,3.7,1.4
		c0.9,0.5,2.2,0.9,2.8,0.9c0.6,0,1.5,0.4,2,0.8c0.6,0.5,1.6,1.1,2.5,1.5c1.4,0.6,1.8,0.5,4.8-0.9c1.8-0.8,3.4-1.8,3.5-2.2
		c0.2-0.6,0.6-0.5,1.9,0.3c1.5,0.9,1.9,1,3.9,0.5c2.2-0.5,2.3-0.7,2.9-2.6c0.5-1.7,0.9-2.2,2.3-2.8c0.9-0.4,2.2-0.6,2.7-0.5
		c0.6,0.1,1.5-0.3,2.3-0.9c1-0.9,1.9-1.1,4.2-1.1c2.7,0,3.1-0.1,4.8-1.7l1.9-1.6l4.2,0.1c4,0.1,4.4,0,6.8-1.5
		c7-4.2,8.6-4.5,13.5-2.5c1.6,0.7,3,1.2,3.3,1.2c0.9,0,4-2.4,4.7-3.7c0.4-0.7,2.2-2.2,3.9-3.2c4.4-2.6,5.9-4.7,6.3-8.5
		c0.5-4.7,1.1-7.8,1.6-8.5c0.3-0.3,0.7-1.7,0.8-2.9c0.6-3.9,0.7-4.3,2.4-5.1c1.4-0.7,1.6-1,1.6-2.6c0-1.2,0.3-2.1,0.9-2.7
		c0.7-0.7,0.9-1.5,0.9-4.2c0-2.2-0.2-3.7-0.7-4.3c-0.7-1-0.9-3-0.3-3c1.2,0,1.9-1.6,1.9-4.1c0-2.1,0.2-2.7,1-3.4l1-0.8l-1.3-2.1
		c-0.7-1.2-1.9-4.2-2.7-6.7c-1.4-4.3-1.4-4.8-0.9-6.7c1.3-4.7,1.2-7.2-0.6-11.6c-2.2-5.6-2.9-8.8-2.2-11.8c0.3-1.3,0.5-3.4,0.5-4.6
		c0-1.9-0.1-2.3-0.9-2.5c-0.7-0.2-0.9-0.7-0.9-2.3c0-1.2,0.2-2.7,0.4-3.3c0.4-1,0.2-1.4-1-2.5c-0.7-0.7-1.8-2.2-2.3-3.1
		c-0.6-1.2-1.5-2.1-2.5-2.5c-1.6-0.7-4.3-4-5.2-6.5c-0.3-0.9-0.9-1.5-1.5-1.5c-1.3-0.2-2.1-1.6-1.7-3.1c0.4-1.5-0.4-2.4-2.9-3.6
		c-1-0.5-2.2-1.1-2.7-1.5c-0.7-0.5-1.1-0.4-2.3,0.1c-1.4,0.7-1.7,0.7-3.2,0c-0.9-0.4-2.8-0.8-4.2-1c-2.5-0.3-2.6-0.3-5.2-3.8
		c-1.5-1.9-2.8-4.1-2.9-4.8c-0.2-0.7-1-2.2-1.9-3.4c-1.2-1.6-2-2.2-3.4-2.4c-0.9-0.2-2.4-0.8-3.2-1.5c-1.3-1-1.6-1.1-2.5-0.6
		c-1.7,0.9-11.1,1-12.3,0.2c-1.2-0.8-1.7-0.8-2.8-0.2c-1.7,1-9.9,2.8-15,3.3c-5.3,0.5-5.7,0.4-7.2-0.5c-1.8-1.2-3.1-0.9-3.8,0.7
		c-0.3,0.6-1.4,1.6-2.5,2.2c-1.9,0.9-2,1-1,1.5l1,0.5l-1.1,2.7c-0.9,2.3-2.1,3.7-4.6,5.9c-0.4,0.3-0.7,1-0.7,1.5
		c0,0.5-0.8,1.8-1.9,2.9c-1,1.1-2,2.4-2.1,2.9c-0.1,0.5-0.4,2.2-0.7,3.8c-0.3,1.5-0.5,3.2-0.5,3.8c0,0.7-0.6,1.2-1.9,1.8
		c-1.7,0.7-1.9,1-1.9,2.6c0,1-0.3,2-0.7,2.3c-0.4,0.3-2,2.4-3.6,4.7c-3.6,5.2-5.1,9.6-6.6,18.9C417.1,380.5,417.1,380.8,417.9,384.2
		z"/>
	<path fill="#C70000" d="M419.8,283.5c2.2-0.9,2.8-1.4,2.9-2.7l-5.2,3.4C418,284.2,418.6,284,419.8,283.5z"/>
	<path d="M257.3,189.1c0.8,0.2,2.1,0.6,2.9,0.9c1.4,0.6,1.6,0.5,2.6-0.4c1.3-1.2,3.8-1,5.4,0.5c1,0.9,1.1,0.9,3.1,0.1
		c1.8-0.7,2.2-1.1,2.9-2.8c0.7-1.9,1-2.1,3-2.5c4-0.9,18.1-1.1,23-0.3c2.4,0.4,4.6,0.7,4.8,0.7c0.2,0,0.3,1.2,0.3,2.7v2.7l4.4,4.5
		c2.9,2.9,4.9,4.7,5.9,5.1c1.8,0.6,13.8,1.9,17.6,1.9c3.1,0,5.5,1.5,6.2,4.1c0.7,2.2,1.6,3.1,2.9,2.8c0.7-0.2,1.2,0.1,1.9,1.1
		c0.7,1,1.4,1.4,2.3,1.4c1.5,0,8,3.1,14.8,7.2c3.6,2.1,4.7,3,6,5.1c0.9,1.4,3.1,4.1,4.9,6.1c2.8,3.1,3.2,3.8,3.2,5.4
		c0,2.4,1.2,7.1,2.3,8.6c0.4,0.7,1.1,1.9,1.4,2.7c0.7,2-0.2,3.9-2.5,5.4c-1.3,0.8-1.6,1.4-1.6,2.5c0,1.6,1.4,3.7,2.8,4.2
		c1.4,0.4,1.4,5.3,0,6.6c-0.7,0.7-0.9,1.5-0.9,3.5v2.7L375,272c-1,0.4-2.2,0.7-2.5,0.7c-0.3,0-1.6,0.5-2.9,1.1l-2.4,1.1l1,3.5l1,3.4
		l2.7,1.3c2.7,1.2,2.7,1.3,2.7,3.1c0,1.4,0.2,2,0.9,2.3c0.3,0.2,0.5,0.3,0.6,0.6l50.6-33.9c-0.6-1.5-1.3-2.4-1.9-2.7
		c-0.7-0.4-1.1-0.9-1.1-1.9c0-2-0.9-2.6-4.7-3.6c-3.3-0.8-3.4-0.9-5.8-4c-1.7-2.3-2.7-3.2-3.5-3.2c-0.7,0-1.1,0.3-1.1,0.7
		c0,0.4-0.4,1.9-0.9,3.4c-0.5,1.5-0.9,3.1-0.9,3.7c0,1.7-1.4,2.5-3.8,2.2c-1.9-0.2-2.2-0.4-2.8-1.7c-0.4-0.8-0.6-2.1-0.5-2.8
		c0-0.7-0.1-1.7-0.5-2.3c-1.2-2.2-4.4-5.7-6-6.3c-1.9-0.8-3.2-2.2-3.6-3.9c-0.3-1.3-1.9-2.3-3.6-2.3c-0.5,0-2.2-0.4-3.7-1
		c-2.5-0.9-2.7-1-2.2-2.1c0.4-0.9,0.3-1.4-0.5-2.7c-0.5-0.9-1-2.1-1-2.6c0-1.1-3.2-3.8-4.6-3.8c-1.6,0-2.4-0.5-2.4-1.6
		c0-1.6-2.2-3.4-4.8-3.8c-1.5-0.2-2.2-0.6-2.2-1c0-0.5-0.6-0.7-1.9-0.7c-1.5,0-2-0.2-2.4-1.2c-0.3-0.7-1.1-1.3-2-1.5
		c-2.6-0.6-4-1.6-5.1-3.8c-0.6-1.2-1.3-3.2-1.5-4.4c-0.3-1.7-0.6-2.3-1.8-3.1l-1.5-0.9l-1.2,1.2c-1.1,1-1.4,1.1-2.7,0.6
		c-2.5-0.9-3-2.5-3.1-10.3c-0.1-6.5-0.1-6.9-1.3-8.4c-1.2-1.5-1.2-1.6-0.6-4.6c0.4-1.7,0.6-3.3,0.5-3.6c-0.1-0.2-1.5-0.8-3-1.4
		c-1.9-0.6-3.4-1.4-4.4-2.4l-1.5-1.6l-0.3-6.6l-0.3-6.6l-5-5c-0.8-0.8-1.5-1.5-2.1-2.2l-66.8,43.2C257,189,257.2,189,257.3,189.1z"
		/>
</g>
</svg>
