<?xml version="1.0" encoding="utf-8"?>
<!-- Generator: Adobe Illustrator 17.1.0, SVG Export Plug-In . SVG Version: 6.00 Build 0)  -->
<!DOCTYPE svg PUBLIC "-//W3C//DTD SVG 1.1//EN" "http://www.w3.org/Graphics/SVG/1.1/DTD/svg11.dtd">
<svg version="1.1" id="flag-icon-css-kp" xmlns="http://www.w3.org/2000/svg" xmlns:xlink="http://www.w3.org/1999/xlink" x="0px"
	 y="0px" viewBox="0 0 640 480" enable-background="new 0 0 640 480" xml:space="preserve">
<g>
	<path fill="none" d="M181.5,472.2c0.8-0.1,1.8-0.3,2-0.3c0.2,0,0.3-0.2,0.1-0.5c-0.4-0.6-1.2-0.5-2.6,0.3
		C179.9,472.5,179.9,472.5,181.5,472.2z"/>
	<path fill="none" d="M532,55.5c0.4-0.3,0.7-0.7,0.7-0.7c0-0.1-0.3-0.2-0.7-0.4c-0.5-0.2-0.7,0-0.7,0.8
		C531.3,55.9,531.4,56,532,55.5z"/>
	<path fill="none" d="M483.8,0.4h1.5C484.8,0.2,484.3,0.2,483.8,0.4z"/>
	<path fill="none" d="M176.3,479.5c0.4,0.6,0.7,0.6,1.1,0H176.3z"/>
	<path fill="#FFFFFF" d="M173.8,392.7c-1-1-1.3-1-2.9-0.5c-0.9,0.3-2.3,0.4-3.1,0.3c-1-0.2-1.3-0.2-1.3,0.3L173.8,392.7L173.8,392.7
		z"/>
	<path fill="#FFFFFF" d="M194.1,391.8c-0.4-0.8-1-1.3-1.9-1.4c-1.1-0.1-1.3,0-1.6,1.5c-0.1,0.4-0.1,0.6-0.2,0.9h4.5
		C194.5,392.6,194.3,392.2,194.1,391.8z"/>
	<path fill="#FFFFFF" d="M485.2,0.4h-1.5c-0.1,0-0.2,0.1-0.4,0.1h2C485.4,0.4,485.3,0.4,485.2,0.4z"/>
	<path fill="#FFFFFF" d="M162.5,392.2c-0.1,0-0.2,0.2-0.2,0.6h1.2C163,392.4,162.7,392.2,162.5,392.2z"/>
	<path fill="#FFFFFF" d="M388.8,391.1l-3.5-3.4c-2-1.9-3.7-3.4-3.8-3.4c-0.1,0-0.2,0.3-0.2,0.7c0,0.5-0.5,0.7-1.9,0.7
		c-1.8,0-2-0.1-3.9-3.2c-1.1-1.7-2.6-3.4-3.3-3.8c-0.8-0.4-1.3-1.1-1.4-1.9c-0.1-1.1-0.5-1.3-4-2.3c-2.1-0.6-3.7-1.1-4.9-1.8H163.7
		c-0.5,0.9-0.6,1.8-0.4,4.2c0.1,1.9,0.4,3.7,0.6,3.9c0.2,0.3,1.2,0.6,2.3,0.6c2,0,2,0,2.6,2.2c0.4,1.4,1.4,3,2.5,4.1
		c1.6,1.6,1.9,1.8,3.5,1.5c1-0.1,2.5-0.7,3.3-1.2c0.8-0.5,2.3-0.9,3.3-0.9c1.3,0,2.1-0.3,2.9-1.2l1.1-1.2l1.2,1.1
		c0.7,0.6,2,1.2,3,1.4c3,0.5,6.5,3.4,6.5,5.5c0,0,0,0.1,0,0.1h192.7V391.1z"/>
	<path fill="#FFFFFF" d="M189.6,392.1c0.1-1.4,0-1.6-2.2-2.8c-2.9-1.5-2.9-1.5-3.3-0.3c-0.3,0.9-0.6,1-2.6,0.7
		c-1.7-0.2-2.3-0.1-2.8,0.4c-0.3,0.4-0.9,0.7-1.2,0.7c-0.4,0-0.7,0.1-0.7,0.3c0,0.2-0.4,0.9-0.9,1.5l-0.1,0.1h13.7
		C189.5,392.6,189.5,392.4,189.6,392.1z"/>
	<path fill="#FFFFFF" d="M484.9,104.3c0-2.1,1-5.2,1.8-5.2c0.2,0,1,0.3,1.7,0.7c1.3,0.7,1.4,0.6,1.5-0.1c0.1-0.4,0.4-1,0.6-1.2
		c0.2-0.3,0.4-0.9,0.4-1.4c0-1.5,1.6-7.8,2-7.8c0.2,0,0.7,0.3,1,0.8c0.6,0.6,0.8,0.6,0.9,0.1c0.1-0.3,0.4-1.5,0.8-2.7
		c0-0.1,0.1-0.2,0.1-0.4h-73.4c0,0,0,0,0,0c-0.1,1.5-0.6,3-0.9,3.1c-1,0.7-3.6,0.5-5.4-0.5c-0.9-0.5-2.8-1-4-1.2
		c-2-0.2-2.4-0.1-4,1.1c-2.4,1.9-3.5,2.1-4.5,1c-1.2-1.3-2.9-1.2-4.4,0.4c-0.9,1-1.8,1.4-3.9,1.6c-2.9,0.4-4.5-0.2-6.2-2
		c-0.8-0.9-1.4-1-7.2-1c-6,0-6.3,0-7.7,1.2c-0.9,0.8-2,1.2-3.1,1.2c-1.3,0-2.1,0.3-2.9,1.2c-1,1.1-1.2,1.1-2.2,0.5
		c-0.6-0.4-1.3-0.7-1.6-0.7c-0.8,0-0.6,2.4,0.5,5.4c0.8,2.4,0.9,3.4,0.7,8l0,0.7h119.3C484.9,106.1,485,105,484.9,104.3z"/>
	<path fill="#3E5698" d="M139.7,402.1c-0.9,0.7-1.3,1.4-1.3,2.3c0,1.5,0.7,1.8,1.3,0.6c0.5-0.9,3.5-0.5,4.4,0.6
		c0.3,0.4,0.8,0.7,1.2,0.7c1,0,0.8-1.9-0.6-3.6C143.2,400.8,141.6,400.6,139.7,402.1z"/>
	<path fill="#3E5698" d="M177.7,478.7c0.8-2.2,3-3.1,6.1-2.7l2.2,0.3l0.8-2c0.4-1.1,0.8-2.5,0.9-3c0.2-1.4,1.2-1.4,1.5,0
		c0.3,1.3,1.5,1.6,2,0.5c0.4-1.1,1.5-0.8,2.1,0.5c0.3,0.8,0.8,1.2,1.6,1.2c1.2,0,1.2,0,1.2-4.2c0-3,0.2-4.3,0.6-4.4
		c0.6-0.2,0.8-1.6,0.8-4.5c0-1.9,0.2-1.9,1.2-0.1c1.1,2.1,3,2,4.7-0.2c1.4-1.8,1.2-2.8-0.3-1.4c-0.9,0.8-0.9,0.8-0.9-0.8
		c0-1.2,0.2-1.7,0.7-1.7c0.4,0,0.7-0.2,0.7-0.5c0-0.3-0.6-0.5-1.4-0.3c-1.1,0.1-1.3,0-1.1-0.7c0.1-0.5,0-1.2-0.1-1.6
		c-0.3-0.7-0.5-0.6-1.6,0.7l-1.3,1.5l-1.7-1.2c-2.1-1.3-3.4-3.2-3-4.1c0.3-0.7,3-0.8,4.8-0.1c2.4,0.9,4,1.7,4,2.2
		c0,0.2,0.2,0.5,0.5,0.5c0.3,0,0.5-0.4,0.5-0.9c0-1.3,1.5-1.2,3.7,0.2c0.9,0.7,2,1.2,2.3,1.2c0.8,0,0.8,1,0.1,1.7
		c-0.3,0.3-0.4,1.1-0.2,1.8c0.3,1,0.5,1.2,1.5,1c0.9-0.1,1.1,0,0.9,0.7c-0.2,0.6,0.4,1.5,2,2.9c1.3,1.2,2.5,2.8,2.7,3.7
		c0.4,1.3,0.7,1.5,1.8,1.5c0.7,0,1.6,0.4,1.9,0.8c0.3,0.4,0.9,0.8,1.4,0.8c0.7,0,0.7-0.1,0-1.4c-0.4-0.8-0.7-1.7-0.7-2.2
		c0-0.5-0.4-1.2-0.8-1.7c-0.6-0.7-0.7-1.1-0.3-1.7c0.8-1.2,1.1-1,3.1,1.8c2.1,3,2.5,3.2,3.3,2.1c0.6-0.8,0.7-0.6,1,1.7
		c0.2,1.4,1.1,3.9,2,5.7c1.5,2.8,1.9,3.2,3.5,3.7c1,0.2,2,0.3,2.3,0.2c0.7-0.4,0.6-3.8-0.2-5.6s-0.3-2.9,1.4-3.6
		c0.8-0.3,1.1-0.8,1.1-1.6c0-1.1,0.1-1.2,1-0.6c0.6,0.3,1.5,0.5,2,0.4c0.5,0,1.5,0.1,2.2,0.4c1.2,0.5,1.5,0.5,3.1-0.7
		c1-0.7,2.2-1.2,2.8-1.2c0.5,0,1.1-0.3,1.3-0.7c0.3-0.9,2.2-0.9,2.2,0c0,0.9,1.8,3.1,3,3.6c0.5,0.2,2.3,1.6,4,3
		c4,3.4,5.3,3.8,8.7,2.3c2.4-1,2.8-1.3,3.6-3.4c0.9-2.3,1.1-6.9,0.5-10.4c-0.2-1.3-0.1-1.5,0.7-1.5c0.6,0,1.8-0.4,2.7-0.9
		c1-0.5,2.1-0.9,2.5-0.9c0.4,0,2-1.3,3.6-3c2.4-2.5,3-3.4,3.4-5.5c0.5-2.4,0.8-2.7,3.8-5.1c3.2-2.4,3.3-2.5,3.3-4.7
		c0-2,0.2-2.4,2.5-4.9c1.4-1.5,2.8-2.7,3.1-2.7s1.7-1,3-2.3c2.1-2.1,2.4-2.3,3.6-1.8c1.1,0.4,1.7,0.3,3.4-0.7c1.7-1,2.3-1.1,3.9-0.8
		c2.7,0.7,5,0.6,6.1-0.2c0.8-0.6,1.4-0.6,4.5,0.2c1.9,0.5,4,1.1,4.5,1.4c0.9,0.5,1.4,0.3,3.3-0.9c2.5-1.6,5-1.9,8.6-0.9
		c1.7,0.4,2.6,0.4,5.2-0.2c4.4-1.1,5.2-1,6.7,0.7l1.2,1.5l1.9-0.8c1-0.5,2.1-1.1,2.3-1.5c0.4-0.5,0.8-0.5,2.4,0.1
		c1,0.4,3.9,1,6.3,1.4l4.4,0.8l5.1-3.6c5.5-3.8,7.7-5.8,9.7-8.8c1.2-1.6,1.4-2.5,1.7-7.3c0.2-3,0.6-5.8,0.8-6.2s1-1.1,1.8-1.6
		c1.4-0.8,1.5-1.2,1.5-3.5v-0.9H196c-0.1,0.5-0.6,0.4-1.2,0h-4.5c-0.4,1-0.8,1.1-0.8,0h-13.7l-0.8,1.1l-1.1-1.1h-7.4
		c0,0.2,0,0.6,0.1,1.1c0.1,0.9,0.1,1.6-0.1,1.6s-1-0.8-1.9-1.6c-0.4-0.4-0.8-0.8-1.2-1.1h-1.2c-0.2,1.4,0.2,4.9,0.6,6
		c0.2,0.6,0,0.7-1.6,0.6c-1.7-0.2-1.9-0.1-1.9,0.9c0,0.7-0.1,1.3-0.3,1.5c-0.6,0.5-2.1-0.6-2.1-1.5c0-0.7-0.5-1-1.7-1.4
		c-3-0.8-3.5-0.7-3.1,0.8c0.6,2.3,1.1,3.4,1.6,3.4c0.2,0,0.5,0.8,0.5,1.9c0,1.5-0.3,2.2-1.4,3.2c-0.8,0.7-1.4,1.7-1.4,2.3
		s-0.2,1-0.5,1c-0.2,0-0.5-0.3-0.5-0.7c0-1.5-0.9-0.5-2.2,2.4c-0.8,1.8-2.2,4-3.2,5c-1.7,1.7-1.8,1.9-1.3,3.5
		c0.3,0.9,0.6,2.9,0.7,4.4c0.1,1.8,0.5,3.1,1.1,4c1.1,1.5,2.8,1.9,3.2,0.8c0.3-0.8,2.3-1,2.8-0.3c0.1,0.2-0.1,0.5-0.7,0.5
		s-1.3,0.5-1.8,1.2c-1,1.3-2,1.5-2,0.5c0-0.4-0.3-0.7-0.7-0.7c-0.4,0-1.1-0.4-1.7-1l-1-1l-1.6,1.6c-0.9,0.8-1.8,2.1-2.1,2.7
		c-0.4,0.9-0.7,1-1.7,0.8c-1-0.2-1.6,0-2.8,1.2c-1.2,1.2-2.1,1.5-4,1.7c-2.1,0.2-2.4,0.4-2.6,1.3c-0.1,1,0.4,1.3,4.8,2.4
		c2.4,0.6,9.3-0.4,10.4-1.5c0.7-0.7,0.9-0.7,2.9,0.8c4.7,3.4,6.4,4.1,8.8,3.8c1.2-0.1,2.8-0.6,3.5-0.9c2.3-1.1,9.9-0.8,11.6,0.4
		c0.5,0.4,0.4,0.8-0.7,1.6c-1.2,0.9-1.3,1.2-0.8,2c0.8,1.3,0.7,1.4-0.4,1.4c-0.6,0-0.9-0.3-0.9-0.9c0-1.4-1.2-2.1-2.9-1.6
		c-0.8,0.2-2.3,0.3-3.2,0.2c-1.5,0-1.7,0.1-1.9,1.1c-0.2,0.8,0.2,1.9,1.1,3.3c1.1,1.8,1.5,2.1,2.4,1.8c1-0.3,1-0.3,0.1,0.7
		c-0.8,0.8-1.2,0.9-2.6,0.7c-0.9-0.2-2.3-0.6-3-1c-1.2-0.7-1.5-0.6-2.6,0.2c-0.7,0.5-1.9,1.1-2.7,1.2c-0.8,0.2-1.6,0.7-1.7,1.1
		c-0.4,0.9,0.4,1.9,0.8,1.1c0.5-0.8,1.4-0.6,1,0.2c-0.5,1.2,1,2.5,2.7,2.5c0.9,0,1.7,0.3,2,0.8c0.3,0.5,1.6,1.1,3,1.5
		c3,0.8,5.3,0.2,7-1.6c1.1-1.2,2.4-1.5,2.9-0.8c0.1,0.2,0.7,0.3,1.2,0.2c0.8-0.2,0.9,0,1,1c0,0.7,0.1,1.4,0.1,1.6s-0.8,1.1-1.9,1.9
		c-2.3,1.6-2.6,2.6-0.8,3c0.7,0.1,1.2,0.1,1.2-0.1s0.6-0.5,1.4-0.6c1.2-0.2,1.4-0.1,1.4,0.9v1.1l1.4-1c0.8-0.6,1.9-1.8,2.4-2.9
		c0.5-1,1.1-1.8,1.3-1.7c0.2,0.1,1.2,0.6,2.2,1.1l1.8,0.8l1-1.3c0.6-0.7,1.4-1.3,1.9-1.3c0.7,0,0.8,0.2,0.5,1.3
		c-0.2,1,0,1.5,0.7,2.2c0.6,0.5,0.9,0.6,0.9,0.3s0.2-0.4,0.5-0.2c0.4,0.2,0.3,0.5-0.2,1c-0.6,0.6-0.8,0.6-2.1,0
		c-2.3-1.2-3.6-0.9-5.4,0.9c-0.9,0.9-2.1,1.6-2.7,1.6c-0.9,0-1,0-0.2,1.2c0.4,0.7,0.6,1.2,0.4,1.2c-0.2,0-1.2,1.1-2.1,2.3
		c-1.7,2.3-1.7,2.4-1,3.7c0.2,0.5,0.4,0.8,0.6,1.1h1.1C177.5,479.3,177.6,479,177.7,478.7z M181,471.8c1.4-0.8,2.2-0.9,2.6-0.3
		c0.1,0.2,0.1,0.5-0.1,0.5c-0.2,0-1.2,0.1-2,0.3C179.9,472.5,179.9,472.5,181,471.8z"/>
	<path fill="#C60000" d="M360,370.4c-0.2-0.8-0.6-1.2-1.2-1.2c-0.6,0-1-0.4-1.2-1.4c-0.2-0.8-0.5-1.4-0.7-1.4s-1.4-0.8-2.5-1.7
		c-1.7-1.3-2.2-2-2.2-3c0-0.8-0.4-1.6-1.4-2.4c-0.8-0.6-2.1-2.6-3-4.5c-1.7-3.5-2.8-4.2-4-2.7c-0.3,0.4-1.4,0.7-2.5,0.7
		c-1.5,0-2.4-0.4-4.2-1.7c-1.8-1.5-2.6-1.7-4-1.6c-0.9,0.1-2.1,0.3-2.5,0.6c-0.6,0.3-1.1,0-2-1.5c-1.2-1.8-1.3-1.9-2.4-1.2
		c-1,0.7-1.3,0.6-3.7-0.7c-2.1-1.1-2.7-1.7-3.2-3.1c-0.7-2.2-0.3-5.8,0.8-6.5c0.7-0.5,0.8-1,0.5-2.3c-0.3-1.6-0.2-1.7,0.4-1.2
		c0.4,0.4,0.8,1,0.8,1.5c0,0.7,0.8,1.4,1.7,1.4c0.1,0,0.1-0.7-0.1-1.5c-0.3-1.4-0.3-1.4,1.4-1.1c1.5,0.3,1.7,0.2,1.7-0.8
		c0-0.7-0.4-1.5-1-2.1c-0.8-0.7-1.1-0.8-1.8-0.3c-1.3,0.8-3.2,0.7-3.6-0.1c-0.3-0.8,1.5-2.8,2.3-2.5c0.4,0.1,1.1-0.4,1.6-1.1
		c1.5-2,2.4-1.8,2.4,0.5c0,1.8,1.9,6.6,3.2,8.1c0.4,0.5,1.2,0.8,1.8,0.8c1,0,1.1-0.1,0.8-1.8c-0.6-3.5-1.3-6.5-2.2-8.7
		c-0.6-1.5-0.9-3.5-0.9-6.2c0-4.3,0.6-6,2.7-8.3c1.1-1.2,1.1-1.3,0.4-2.9c-0.4-0.8-0.8-1.8-0.8-2.1c0-0.3-0.8-0.5-1.9-0.5
		c-1.6,0-1.9-0.1-2.2-1.2c-0.2-0.7-0.2-2.5,0-4c0.2-2.4,0.5-3,1.9-4.5c0.9-0.9,1.7-2.2,1.7-2.7c0-1.2,3.8-4.8,5.2-4.8
		c0.5,0,1.3,0.5,1.7,1.2c0.6,0.9,0.9,1.1,1.4,0.7c0.4-0.3,0.7-0.8,0.7-1.1c0-0.3,0.5-1,1.1-1.6c0.8-0.8,1.7-1,3.5-1
		c2.3,0,2.5-0.1,2.7-1.3c0.2-1.2,0.6-1.4,3.2-1.9c2.9-0.6,3-0.7,3.3-2.2c0.1-0.9,0.1-2-0.2-2.4c-0.7-1.2,0.6-3.4,2-3.4
		c1.1,0,3.5-2.3,5.3-4.9c0.7-1.1,1-1.2,2.5-1c0.9,0.2,3,0.4,4.5,0.6c1.7,0.2,3.2,0.6,3.8,1.1c0.8,0.8,1.1,0.8,2.1,0.2
		c0.7-0.4,1.7-0.7,2.4-0.7c1.4,0,2.3-1.1,2.3-2.8c0-2.1,2.1-1.6,3,0.7c0.8,2.1,1.7,2,2.8-0.2c1.2-2.7,3.7-4.7,5.8-4.7
		c1.3,0,2-0.4,3.2-1.6c1-1.1,2-1.6,2.9-1.6c0.9,0,1.9-0.5,2.9-1.6c0.9-0.9,2.7-2,4.3-2.6c3-1.1,3.6-1.6,4-3.7c0.2-1.2,0-1.6-1-2.4
		c-0.7-0.5-1.4-1-1.6-1.1c-0.2-0.1-0.3-0.9-0.1-1.9c0.2-1.3,0.5-1.8,1.4-2c0.6-0.1,1.4-0.7,1.9-1.2c0.5-0.5,1.6-1,2.6-1.2
		c1-0.2,1.9-0.5,2.1-0.7c0.1-0.2,0.7-0.4,1.3-0.4c1.7,0,7.7-3.4,8.5-4.8c1.5-2.5,3.7-4.6,5.9-5.7c1.2-0.7,2.4-1.4,2.5-1.7
		c0.2-0.3,0.9-0.4,1.9-0.2c1.3,0.3,1.7,0.1,3-1.4c0.8-0.9,1.5-1.9,1.5-2.2c0-0.3,0.7-1.1,1.4-1.9c0.8-0.8,1.4-1.8,1.4-2.3
		s0.8-2.5,1.6-4.5c1.1-2.3,1.6-4.3,1.6-5.5c0-1.8,0.1-2.1,1.5-2.5c2.2-0.8,2.4-0.7,3.3,0.9c1.1,1.9,1.6,1.8,2.3-0.6
		c0.3-1.2,1.2-2.6,2.4-3.8c1.4-1.3,1.8-2,1.5-2.7c-0.3-0.9-0.2-0.9,0.7-0.4c0.9,0.5,1.5,0.3,3.8-0.9c1.6-0.8,3.4-1.5,4.4-1.5
		c0.9,0,1.7-0.1,1.7-0.4c0-0.2,0.5-0.9,1.1-1.7c1.2-1.5,4.5-2.3,9.4-2.3c1.5,0,2.7-0.1,2.7-0.2c0-0.3,0.3-1.6,1.5-6.9
		c0.6-2.7,0.6-2.9-0.2-3.4c-1.9-1.2-2.2-3.6-2.3-17.6c0-5.1,0.4-9.5,1.1-9.9c0.2-0.1,0.4-0.8,0.4-1.5c0-0.8,0.5-2.1,1.1-3
		c0.7-0.9,1.2-2.7,1.4-4c0.3-2.4,0.3-2.4-1-2.4c-1,0-2.1-0.9-5.1-4l-3.9-4.1v-3.3c0-2,0.5-5.2,1.2-8c1-3.8,1.5-5,2.8-6.3
		c1.9-2,2.6-3.3,2.6-4.8c0-1.8,0.9-4,1.9-4.6c0.7-0.3,1.3-0.2,2.3,0.3c2.4,1.2,2.7,1,3.1-2.3c0.1-0.6,0.2-1.4,0.2-2.1H365.6
		l-0.2,4.5l1.4,0.5c1.2,0.4,1.4,0.7,1.4,2s0.8,2.3,5.9,7.2c5.6,5.5,5.9,5.9,5.9,7.6c0,2.2-1.6,6.9-2.9,8.3c-0.5,0.6-1,1.8-1.2,2.8
		c-0.4,2.7-1.8,4.7-3.7,5.3c-0.9,0.3-1.6,0.8-1.6,1c0,0.3-0.5,1-1.2,1.6c-1.4,1.5-3,1.5-3,0.2c0-0.8-0.3-0.9-1.4-0.9
		c-0.8,0-1.4-0.2-1.4-0.5c0-0.3-0.6-0.5-1.4-0.5s-1.6-0.3-1.9-0.8c-0.9-1.1-2.3-1.6-4.9-2.1c-1.3-0.2-2.8-0.5-3.2-0.7
		c-0.7-0.3-0.8-0.1-0.8,1.4v1.7l-2.2-0.2c-5.8-0.6-10.5-0.8-11.3-0.3c-0.6,0.3-1.5,0.2-3.2-0.3c-4.2-1.3-4.9-1.6-5.5-2.9
		c-0.6-1.1-0.8-1.2-3.1-1.1c-1.4,0.1-2.8,0.4-3,0.6c-0.8,0.7-2.3,0.5-3.2-0.5c-0.9-1.1-1.6-1.2-2.8-0.2c-0.8,0.6-1.1,0.5-2.3-0.3
		c-0.8-0.5-2.2-0.9-3.1-0.9c-1.3,0-1.5-0.1-1-0.7c0.5-0.6,0.3-0.7-0.8-1c-0.7-0.2-1.9-0.8-2.6-1.3c-0.8-0.6-2.1-1-3.3-1
		c-2.5-0.1-4.6-1.1-3.6-1.7c0.4-0.2,0.9-0.9,1-1.6c0.2-0.8,0.6-1.2,1.2-1.2c0.5,0,0.9-0.3,0.9-0.7c0-0.4-0.4-0.7-0.8-0.7
		c-0.9,0-3.8-2.8-3.8-3.6c0-0.3-0.8-1.2-1.6-2.1c-1.9-1.8-2-2.3-0.7-2.3c0.5,0,0.9-0.2,0.9-0.4c0-1.5-5.9-6.8-8.3-7.4
		c-0.9-0.2-1-0.4-0.7-1.1c0.6-1.2,0.6-1.3-0.3-1.6c-1-0.4-5.3,2.4-5.3,3.4c0,1.3-0.9,4.3-1.4,4.3c-0.2,0-0.6-0.5-0.7-1.2
		c-0.4-1.7-1.1-1-1.5,1.4c-0.3,2.4-1.4,2.8-1.8,0.7c-0.3-1.5-2.6-3.3-4.8-4c-1.6-0.5-1.4,1.4,0.3,2.7l1.4,1l-1.7,1.8
		c-2,2.1-3.8,3-4.5,2.2c-0.8-0.8-1.6-0.5-2,0.8c-0.5,2-1.5,3.4-2.5,3.4c-1.2,0-1.2,0.1,0,3.5c0.9,2.7,0.9,2.8,0,3.7
		c-0.5,0.6-1.2,2.3-1.6,3.8c-0.4,1.5-1.2,3.4-1.7,4.2l-1,1.4l1,3c0.8,2.3,0.9,3.2,0.5,3.7c-0.7,0.8-1.7,0.8-2.5-0.1
		c-0.4-0.4-0.9-0.7-1.1-0.7c-0.2,0-0.6,0.4-1.2,1c28.7,19.5,47.4,51.7,47.5,88.2c0,0,0,0,0,0v0.1c0,0,0,0,0,0
		c0,59.5-49.7,107.8-111.2,107.8c-5.3,0-10.5-0.4-15.5-1.1c-0.9,0.1-2.6,3.6-2.2,4.7c0.2,0.5,0.5,0.9,0.8,0.9c0.2,0,0.4,0.4,0.4,0.9
		c0,0.5,0.2,1.1,0.5,1.2c1.1,0.7,0.4,1.3-1.4,1c-1.7-0.2-1.9-0.1-1.9,0.8c0,0.6-0.3,1.2-0.7,1.3c-0.4,0.2-1.2,1.2-1.9,2.2
		c-1,1.5-1.2,2.2-0.8,2.7c0.4,0.6,0.1,1-1.1,2.1c-1.8,1.6-3,3.6-3,5c0,0.6-0.5,1.6-1,2.4c-0.2,0.2-0.3,0.4-0.4,0.6H362
		C360.8,372,360.2,371.3,360,370.4z"/>
	<path fill="#3E5698" d="M496.7,86.2c0.7,1.1,1.3,0.2,1.3-1.9c0-1.3,0.2-1.5,1.5-1.8c1.1-0.2,1.7,0,2.5,0.7c1.3,1.2,1.6,1.2,1.6,0
		c0-0.6-0.3-0.9-0.8-0.9c-1.3,0-0.5-1.6,1.1-2.1c0.9-0.3,1.5-0.8,1.7-1.4c0.7-3,2.3-6.2,3.9-7.8c1-1,1.9-1.8,2.1-1.8
		s0.4,0.8,0.5,1.7c0.2,2.2,1.2,2.5,1.8,0.7c0.3-0.8,0.8-1.5,1.1-1.5s0.8-0.8,0.9-1.6c0.2-1.2,0.6-1.6,1.2-1.6c1,0,1.2-0.9,0.4-1.7
		c-0.4-0.4-0.3-0.8,0.1-1.5c0.5-0.8,0.5-1.2,0-2.2c-0.7-1.5,0.1-1.7,1.6-0.5c1.3,1,2.2,0.8,3.3-0.6c0.9-1.1,1.2-1.2,2-0.7
		c1.6,1,2,0.8,1.7-0.8c-0.2-1.1-0.1-1.4,0.5-1.4c0.7,0,0.8,0.3,0.5,1.9c-0.2,1.8-0.2,1.9,1.1,1.9c1,0,1.4-0.2,1.4-0.9
		c0-0.5,0.3-1,0.7-1.1s0.8-0.8,0.9-1.4c0.1-0.6,0.2-0.3,0.1,0.7c-0.1,0.9-0.4,2-0.7,2.3c-0.4,0.5-0.3,0.9,0.7,1.9
		c1.2,1.3,2.9,1.6,4.5,0.8c1.2-0.7,1.1-1.5-0.3-3.2c-1.3-1.5-1.5-2.5-0.7-3.8c0.7-1.3-1.7-6.1-3-6.1c-2.5,0-3-0.5-3-2.5
		c0-1.3-0.5-2.8-1.5-4.5c-0.8-1.4-1.6-4-1.9-5.7c-0.4-2.2-0.8-3.3-1.5-3.7c-1.5-0.9-2.3,0.2-2.1,2.6c0.2,1.6,0,2.2-0.9,3
		c-1.5,1.4-2,0.8-2.4-2.2c-0.3-1.9-0.5-2.3-1.3-2.3c-1.2,0-7.7-5.8-7.7-6.8c0-0.5-0.5-1.2-1.1-1.7c-1.8-1.4-2.2-2.6-2.5-7.6
		c-0.3-4.4-0.2-4.9,0.8-6.8c1.1-2.2,1.1-2.2,0.2-2.9c-0.8-0.6-1.8-0.7-4.9-0.5c-2.2,0.1-4.3,0.1-4.5,0c-0.8-0.3-0.8-1.5-0.1-1.5
		c0.3,0,0.4-0.5,0.2-1.2c-0.2-0.7-0.1-1.5,0.2-1.8c1.5-1.7-1.7-2.9-3.9-1.4c-0.8,0.6-1.7,0.7-4.3,0.4c-2.7-0.3-3.2-0.5-3.4-1.3
		c-0.1-0.7-0.4-1.1-0.9-1.4h-2c-0.2,0.1-0.5,0.2-0.7,0.3c-0.6,0.3-1.1,0.9-1.1,1.4c0,0.6-0.6,1.1-1.6,1.5l-1.6,0.7l1,1.6
		c0.9,1.5,0.9,1.7,0.2,2c-0.5,0.2-0.8,0.9-0.8,2c0,0.9-0.5,2.6-1,3.8c-0.5,1.2-1.4,3.6-1.8,5.4c-0.5,1.8-1.2,4.3-1.6,5.5
		c-0.7,2.1-0.7,2.3,0.2,3.4c1.1,1.3,0.9,3.8-0.3,4.3c-0.8,0.3-0.8,1.9-0.2,3.7c0.3,0.9,0.3,1.5-0.2,2.3c-0.4,0.6-0.8,3.2-1,6.5
		c-0.3,4.5-0.5,5.8-1.3,6.7c-1.2,1.5-3.6,1.6-4.8,0.2c-0.5-0.5-1.4-0.9-2-0.9c-0.9,0-1.1,0.2-1.1,1.4c0,0.8-0.3,1.6-0.7,1.9
		c-0.4,0.3-0.7,1.1-0.7,1.8c0,2.4-0.9,2.5-3.1,0.5c-1.1-1-2.3-1.9-2.7-1.9c-0.4,0-1-0.4-1.5-0.9c-0.5-0.5-1.3-0.9-1.9-0.9
		c-0.5,0-1.2-0.2-1.5-0.5c-0.4-0.4-0.8-0.3-1.5,0.1c-0.8,0.5-1.1,0.5-1.8-0.2c-0.8-0.7-0.9-0.7-2.2,0.8c-0.7,0.9-1.3,2.1-1.3,2.8
		c0,0.9-0.4,1.3-2,1.8c-2.4,0.8-3.7,2.7-2.7,4c0.5,0.6,0.5,0.8-0.4,1.5c-0.6,0.5-1,1.4-1,2.1c0,0.6-0.2,1.3-0.5,1.5
		c-0.8,0.5-2,3.1-1.5,3.5c0.2,0.1,0.9,0.9,1.5,1.7c1.2,1.7,0.7,2.5-1.4,2.5c-1.1,0-1.3,0.2-1.3,1.4c0,1.1-0.2,1.4-0.9,1.4
		c-0.6,0-1.2,0.5-1.5,1.2c-0.6,1.3-1.3,1.5-2.2,0.6c-0.9-0.9-3.1,1-3.3,2.8c-0.1,1.4-0.2,1.5-2.2,1.5c-1.1,0-2.3,0.3-2.5,0.6
		c-0.3,0.3-0.6,1.9-0.7,3.4h73.4C496.2,85.7,496.3,85.5,496.7,86.2z M532,54.4c0.4,0.2,0.7,0.3,0.7,0.4c0,0-0.3,0.4-0.7,0.7
		c-0.6,0.5-0.7,0.4-0.7-0.4C531.3,54.4,531.5,54.2,532,54.4z"/>
	<path fill="#FFFFFF" d="M129.4,310.8c-1.6,1.3-1.6,1.7,0,1.7c0.7,0,1.6,0.3,2.1,0.8c0.8,0.7,0.9,0.7,1.8-0.1
		C136,310.7,132.3,308.4,129.4,310.8z"/>
	<path fill="#FFFFFF" d="M144.2,312c1,0,1.4,1.9,0.5,2.4c-0.9,0.5-1,2.7-0.1,2.7c0.3,0,1.5-0.9,2.7-2.1c1.1-1.2,2.3-2.1,2.7-2.1
		c0.9,0,0.8-1.4-0.2-2.5c-0.8-0.8-0.8-0.9,0-1.5c0.8-0.6,0.9-1.1,0.5-1.4L144,312C144.1,312,144.1,312,144.2,312z"/>
	<path fill="#FFFFFF" d="M133.9,316.2c0.4,0,0.8-0.5,1-1.2c0.4-1.6,0.1-2.2-0.8-1.6C133,314,132.9,316.2,133.9,316.2z"/>
	<path fill="#FFFFFF" d="M303.2,240c0-36.5-18.8-68.8-47.5-88.2c-1.5,1.6-4,4.8-5,6.5c-0.7,1.2-1.3,2.6-1.3,3.1
		c0,0.7-0.5,1.1-1.4,1.5c-0.8,0.2-1.4,0.8-1.4,1.1c0,0.4-0.4,1.5-0.9,2.5c-0.5,1-0.9,2.1-0.9,2.4c0,0.3-0.7,0.8-1.6,1.1
		c-0.8,0.3-2,1-2.6,1.6c-0.8,0.9-1.3,1-1.9,0.7c-0.8-0.4-0.9-0.3-0.9,1.2c0,1.6-0.1,1.6-2.1,2c-2.5,0.4-2.8,0.6-2.1,2.3
		c0.4,1.1,0.3,1.5-0.7,2.4c-0.7,0.6-1.2,1.4-1.2,1.8s-0.5,1-1,1.3c-1.5,0.8-1.5,0.7-0.8,1.8c0.4,0.8,0.3,1.3-0.9,2.8
		c-1,1.2-1.9,1.9-2.6,1.9c-0.7,0-1.5,0.6-2.3,1.5c-0.7,0.8-1.5,1.8-1.7,2.1c-0.7,0.8-2.2,0.8-2.5-0.1c-0.4-1.1-2.9-0.8-4.8,0.5
		c-2,1.4-2.9,1.5-3.3,0.5c-0.5-1.1-2.4-0.8-3.3,0.5c-0.2,0.2-0.3,0.4-0.5,0.6l6.3,19.8l66.6-0.4l-54.3,38.6l20,62l-53.4-38.2
		l-38.9,27.7c0.2,0.7,0.4,0.6,1,0c1.1-1,1.3-0.9,1.6,0.2c0.2,0.8,0.5,0.9,1.9,0.7c1.9-0.4,4.1,0.8,4.1,2.2c0,1.2,1.4,3.2,2.2,3.2
		c0.4,0,1.1-0.2,1.6-0.5c0.9-0.5,0.9-0.5,0-2.1c-1.2-1.9-0.9-2.1,0.7-0.4c1.2,1.2,1.3,1.2,2.2,0.4c0.5-0.5,1.2-1.5,1.5-2.3
		c0.6-1.4,0.6-1.3,0.7,1.9c0,3,0.2,3.5,1.5,5.1c1.6,2,3.8,2.4,4.6,0.8c0.2-0.5,1.1-1,1.9-1.2s2.1-0.9,3-1.6c1.5-1.4,4.5-2.5,3.9-1.5
		c-0.7,1.1,3,1.5,3.9,0.4c0.3-0.4,0.9-0.7,1.4-0.7c1,0-1.3,1.8-2.3,1.9c-3.6,0-7,3-6.1,5.3c0.4,1,0.3,1.2-0.5,1.2
		c-1.5,0-2.1,1.7-1.2,3.1c0.6,0.9,0.7,1.3,0.2,1.9c-0.3,0.4-0.8,0.7-1.2,0.7c-0.3,0-0.9,0.5-1.4,1c-0.7,1-0.7,1.1,0.3,1.9
		c0.9,0.8,1.1,0.8,1.8,0.1c1-0.9,2.2-0.9,2.5,0c0.3,0.9,2.3,0.9,3.1,0c0.7-0.8,1.9-0.9,1.9-0.2c0,0.2-0.4,0.9-0.8,1.4
		c-0.6,0.7-1.4,0.9-3.3,0.9c-2.3,0-2.5,0-2.5,1.2c0,0.7,0.3,1.2,0.7,1.2c0.9,0,1.5,0.9,0.8,1.5c-0.2,0.2-0.3,0.8-0.2,1.4
		c0.2,0.7,0.5,0.8,1.3,0.6c0.9-0.3,0.9-0.3-0.1,0.9c-0.9,0.9-1.1,1.5-0.8,2.7c0.3,1.3,0.2,1.5-0.5,1.2c-1.1-0.4-2.1,0.5-2.1,1.8
		c0,0.8-0.2,1-0.8,0.9c-1.2-0.3-4,2.8-3.7,4c0.1,0.7,0,1-0.4,1c0,0,0,0-0.1,0c5.1,0.7,10.3,1.1,15.5,1.1
		C253.5,347.8,303.2,299.5,303.2,240z"/>
	<path fill="#FFFFFF" d="M138.8,238.4c-0.3,0.5-0.4,1-0.5,1.9l-0.1,2l-4.4,2.2c-4.9,2.4-6.8,4-12.7,10.9c-2.2,2.5-4.8,5.2-5.8,5.8
		c-2.6,1.8-4.1,3.8-4.1,5.3c0,0.8,0.2,1.4,0.5,1.4c1.1,0,0.3,1.7-1.7,3.8c-1.2,1.2-3.3,3.4-4.7,5.1c-2.5,2.8-2.7,3-2.5,5.2
		c0,1.2-0.2,3.1-0.6,4.2c-0.8,2.3-0.6,3.4,0.7,3.4c0.9,0,1.4-0.9,1.4-2.6c0-0.6,0.3-1.2,0.6-1.3c0.7-0.2,1.7-4.6,1.7-7.1
		c0-1.6,1-2.9,1.8-2.3c0.8,0.5,3.2-1.1,3.8-2.6l0.6-1.5l0.4,1.4c0.4,1.6-0.2,3-1.7,3.3c-0.9,0.2-1.2,0.6-1.2,1.6
		c0,0.8,0.4,1.7,0.9,2.3c0.5,0.5,1,1.4,1.2,2.2c0.2,0.9,0.6,1.2,1.2,1c0.7-0.2,1.1,0.2,1.7,1.8c0.9,2.3,1,2.3,2.1,1.4
		c0.7-0.6,1-0.6,3.2,0.5c1.4,0.7,3.1,1.2,3.8,1.2h1.5L125,290c-0.8,1.6-0.4,2.3,1.4,2.3c0.6,0,0.8,0.4,0.8,1.4
		c0,0.8-0.2,1.5-0.5,1.7c-0.8,0.5-0.5,1.2,0.5,1.2c0.7,0,1.1,0.5,1.5,1.4c0.4,1,0.8,1.3,1.4,1.1c0.7-0.2,0.8,0,0.8,0.9
		c0,0.7-0.2,1.3-0.5,1.5c-0.3,0.1-0.5,0.8-0.5,1.4c0,0.6-0.2,1.3-0.5,1.5c-0.5,0.5-0.1,3.9,0.5,3.9c0.2,0,1.4-0.9,2.6-2.1
		c1.7-1.6,2.7-2.1,3.8-2.1c1.5,0,1.5,0,1.1-1.2c-0.4-1-0.3-1.3,0.4-1.5c1.5-0.6,2-2,0.8-2c-0.4,0-0.7-0.3-0.7-0.7s0.2-0.7,0.4-0.7
		c0.8,0,1-2.3,0.3-3.8c-1.4-2.7-0.4-2.6,1.6,0.2c1.3,1.8,1.7,2.1,3.1,2.1c0.9,0,1.4,0.2,1.8,0.5l14.9-43.4L138.8,238.4z"/>
	<path fill="#FFFFFF" d="M303.2,239.9C303.2,240,303.2,240,303.2,239.9C303.2,240,303.2,240,303.2,239.9L303.2,239.9z"/>
	<path fill="#C40000" d="M246.5,315.2l-20-62l54.3-38.6l-66.6,0.4l-6.3-19.8c-0.3,0.3-0.6,0.5-0.9,0.5c-1.1,0-5.9,4.2-5.9,5.2
		c0,0.5,0.5,1.4,1.2,1.9c0.6,0.5,1,1.2,0.9,1.4c-0.4,0.7-5.1,0.4-6.2-0.4c-1.4-0.9-2.2-0.3-3.2,2.3c-0.8,1.8-1.4,2.2-3,1.3
		c-0.8-0.4-0.9-0.3-0.9,0.5c0,0.7-0.4,1-1.4,1.2c-1.2,0.2-1.4,0.6-1.5,1.8c-0.1,1.2-0.4,1.5-1.5,1.6c-1.2,0.1-1.3,0.3-1,1.8
		c0.3,1.6-0.1,2-1.1,1.1c-0.3-0.3-1.6-0.5-3-0.5c-1.7,0-2.7-0.2-3.3-0.8c-0.7-0.6-1.1-0.7-2.1-0.2c-1,0.4-1.2,0.8-0.9,1.7
		c0.3,1.1,0.2,1.2-2.1,1.2c-1.9,0-2.7,0.3-3.9,1.2c-4.3,3.6-6.4,4.9-8.3,5.3c-1.8,0.3-2.1,0.6-2.6,2.1c-0.5,1.6-0.5,1.8,0.6,2.8
		c1.7,1.6,1.5,2.3-0.5,1.8c-1.3-0.4-1.9-0.3-2.8,0.3c-1.4,0.9-3.3,0.5-3.9-0.8c-0.4-0.9-0.7-0.7-2.9,2.2c-1.6,2.1-2.4,3.4-2.3,4
		c0.2,0.8,0,0.8-1.6,0.7c-1.5-0.2-2.2,0-3.7,0.9c-0.8,0.5-1.2,0.9-1.5,1.3l21.3,15.2l-14.9,43.4c0.1,0.1,0.2,0.2,0.3,0.4
		c0.3,0.5,0.9,0.9,1.5,0.9c0.7,0,1.2,0.6,1.8,2c0.5,1.1,1.3,2.3,1.8,2.6c0.8,0.5,1.1,0.5,1.6-0.3c0.8-1.1,1.4-0.6,1.9,1.6
		c0.1,0.2,0.1,0.4,0.1,0.5l38.9-27.7L246.5,315.2z"/>
	<path fill="#C40000" d="M149.5,307.1c-1.8-0.5-2.2-0.3-2.6,1.1c-0.3,0.8-1,1.6-1.7,1.9c-1.2,0.6-1.9,1.6-1.2,1.8l6.3-4.5
		C150.1,307.4,149.9,307.2,149.5,307.1z"/>
</g>
</svg>
