<?xml version="1.0" encoding="utf-8"?>
<!-- Generator: Adobe Illustrator 17.1.0, SVG Export Plug-In . SVG Version: 6.00 Build 0)  -->
<!DOCTYPE svg PUBLIC "-//W3C//DTD SVG 1.1//EN" "http://www.w3.org/Graphics/SVG/1.1/DTD/svg11.dtd">
<svg version="1.1" id="flag-icon-css-kr" xmlns="http://www.w3.org/2000/svg" xmlns:xlink="http://www.w3.org/1999/xlink" x="0px"
	 y="0px" viewBox="0 0 640 480" enable-background="new 0 0 640 480" xml:space="preserve">
<g>
	<path fill="#FFFFFF" d="M222.7,363.9c-1.1-0.7-2.4-1.7-2.9-2.2s-1.3-0.9-1.7-0.9c-0.7,0-0.9,0.3-0.7,1.7c0.1,1.5,0,1.7-1.3,2.2
		c-3,1-8.8,6.1-10.1,8.9c-0.6,1.3,0.1,3.1,1.2,3.1c0.3,0,1.3,0.5,2,1.2c0.8,0.7,1.7,1.2,2.1,1.2s1.9-0.5,3.3-1.2
		c2.9-1.3,4-1.5,4.8-0.7c0.3,0.3,0.4,0,0.3-0.9c-0.1-1.1,0-1.5,0.8-1.9c0.8-0.4,1.1-0.4,1.4,0c0.3,0.4,0.6,0.2,1.1-0.7
		c1.1-2.1,2.3-6.6,2-7.5C224.9,365.6,223.8,364.6,222.7,363.9z"/>
	<path fill="#FFFFFF" d="M240.1,120.7c-0.2,0-0.5,0.2-0.7,0.5c-0.4,0.6-1.1,5.6-0.8,5.6c0.1,0,0.6-0.3,1-0.7
		c0.5-0.5,0.8-0.6,0.9-0.2c0.2,0.7,1.8,0.7,2.2,0c0.2-0.3,0.7-0.2,1.2,0.3c0.8,0.7,0.9,0.7,0.9,0
		C244.8,125.4,240.8,120.7,240.1,120.7z"/>
	<path fill="#FFFFFF" d="M246.2,376.3c-1.5,0.7-1.7,2.2-0.7,4.1c1,1.9,4.3,4.2,5.9,4.2c0.7,0,1.3,0,1.3-0.1c0-0.7-3.5-7.7-4.1-8.1
		C247.7,375.6,247.7,375.6,246.2,376.3z"/>
	<path fill="#FFFFFF" d="M260.8,393.7c-0.7,1.5,0.4,3.1,2.1,3.1c1.3,0,1.3,0,0.6-2.5C262.9,392.3,261.6,392,260.8,393.7z"/>
	<path fill="#FFFFFF" d="M195.6,347.2c-0.1,0-0.7,0.7-1.4,1.5c-0.7,0.8-1.3,1.6-1.3,1.8c0,0.2,0.7,0.8,1.6,1.3l1.6,1l1-1.5
		c1.2-2.1,1.2-2.8-0.2-3.5C196.2,347.4,195.6,347.2,195.6,347.2z"/>
	<path fill="#FFFFFF" d="M258.2,379.9c-0.1,0.2-0.9,0.6-1.8,0.8c-2.2,0.6-1.9,1.7,0.4,1.9c1.4,0.1,2.1,0.4,2.3,1.1
		c0.4,0.8,0.5,0.8,2.2-0.5c1.7-1.4,1.7-1.5,0.9-2.3C261.3,379.9,258.6,379.3,258.2,379.9z"/>
	<path fill="#FFFFFF" d="M259.1,374.6c-0.4-0.1-0.7-0.8-0.7-1.5c0-1.4-0.6-1.5-2.7-0.3c-2.5,1.4-4.3,4.3-2.7,4.3
		c0.4,0,0.7,0.3,0.8,0.7c0.1,0.7,0.3,0.6,1.4-0.2c0.7-0.6,1.6-1,2.2-1C259.5,376.7,260.7,375.2,259.1,374.6z"/>
	<path fill="#FFFFFF" d="M219.7,73.5c-3-0.8-4.3-0.7-4.8,0.7c-0.3,0.7-0.5,1.6-0.5,2.2c0,0.7,0.2,0.9,1.1,0.6
		c0.6-0.1,1.9-0.5,2.9-0.7C221.8,75.4,222.3,74.2,219.7,73.5z"/>
	<path fill="#FFFFFF" d="M191.1,343.9c-0.4,2.5,0.8,4.1,2.5,3.5c0.4-0.2,0.6-0.7,0.5-1.3c-0.2-0.8,0.1-1.2,1.5-1.9
		c0.5-0.3,1-0.6,1.3-0.9c-1.2-0.3-2.3-0.6-3.5-0.9C191.6,342.7,191.2,343,191.1,343.9z"/>
	<path fill="#FFFFFF" d="M205.1,344.9c-0.2,0.6-0.2,1.3,0,1.5c0.2,0.3,0.4,0.8,0.4,1.3c0,1,0.2,1,1.5,0.2c0.8-0.5,1-0.4,1.6,0.3
		c0.7,1.1,2.2,0.9,2.5-0.3c0.2-1.1-1.2-2.7-2.2-2.7c-0.2,0-0.4-0.1-0.6-0.2c-1-0.1-2-0.2-3-0.4C205.2,344.8,205.1,344.9,205.1,344.9
		z"/>
	<path fill="#FFFFFF" d="M206.1,359.8c-0.1-1.7-2.2-4.2-3.3-3.8c-0.5,0.2-0.4,0.4,0.2,1.1c1,1.1,0.7,4.3-0.6,5.6
		c-1.4,1.5-0.4,1.5,1.8,0.1C206,361.5,206.2,361.2,206.1,359.8z"/>
	<path fill="#FFFFFF" d="M261.3,376.6c-0.4,0.7-0.3,0.9,0.7,1.4c1.7,0.7,3.9,0.7,4.3-0.2C266.9,376,262.2,374.8,261.3,376.6z"/>
	<path fill="#FFFFFF" d="M219.8,79.5c-0.6,0.9,0.1,3.1,1.6,5.2c1.2,1.6,1.5,1.8,2.3,1.4c1.3-0.7,1.2-2-0.4-3.3
		c-0.7-0.7-1.7-1.8-2.2-2.5C220.5,79.4,220.1,79.1,219.8,79.5z"/>
	<path fill="#FFFFFF" d="M203.3,386c1.1,0,1.3-0.2,1.3-1.4c0-1-0.2-1.4-0.8-1.4c-0.5,0-1.3-0.1-1.9-0.3c-0.7-0.2-1.2,0-1.4,0.5
		C200.2,384.5,201.7,386,203.3,386z"/>
	<path fill="#FFFFFF" d="M232.6,123.7c0.7-0.6,0.8-1,0.5-1.6c-0.5-0.8-1.8-1.1-2.4-0.5c-0.2,0.1-0.3,0.9-0.3,1.6
		C230.3,124.7,231.2,124.9,232.6,123.7z"/>
	<path fill="#FFFFFF" d="M201.7,360.8c0.6-0.4,0.6-0.8-0.2-3c-0.5-1.5-1.2-2.6-1.5-2.6c-0.3,0-0.7,0.9-0.9,2.1
		C198.7,360.3,199.9,362,201.7,360.8z"/>
	<path fill="#FFFFFF" d="M233.9,352.9c-0.5,0.1-0.8,0.2-0.8,0.4c0,0.2-0.3,0.5-0.7,0.5c-0.6,0-1.2-1.2-1.9-3.6c-0.1-0.6-0.7-1-1.1-1
		s-1.2-0.1-1.7-0.3c-0.7-0.2-1.1,0.1-1.8,1.5c-1.3,2.7-1,3.2,2.3,5.9c3.6,2.9,3.5,3.8-0.4,2.4c-3.1-1.1-4.3-2.8-5.1-7
		c-0.5-2.8-1.1-4.8-1.8-5.7c-0.2,0-0.4,0-0.6,0c-0.2,0-0.5,0-0.7,0c-0.9,1.3-2.1,4.7-2.1,6.3c0,0.8,0.4,2,1,2.7
		c0.6,0.7,0.9,1.6,0.7,2.2c-0.4,1.3,1.5,3,3.6,3.4c1,0.2,2.1,0.8,2.7,1.5c0.7,0.9,1,1.1,1.3,0.6c0.5-0.8,2-0.3,3.7,1.4
		c1.2,1.1,1.5,1.7,1.5,3.4c0,1.1,0.1,2.8,0.3,3.6c0.3,1.2,0.5,1.5,1.6,1.5c1.2,0,1.4,0.1,1.4,1.6c0,0.9-0.2,1.8-0.5,1.9
		c-0.3,0.1-0.8,0.9-1.2,1.7c-0.7,1.4-0.7,1.4,0.2,0.8c1.7-1,2.4-0.2,2.4,2.6c0,1.4,0.1,2.6,0.2,2.6s0.9-0.5,1.6-1
		c0.7-0.6,1.6-0.9,2.1-0.7c1,0.4,1.3-0.3,1.6-3.6l0.3-2.9l3.1-1.6c3.8-2,4.6-2.7,4.3-3.6c-0.1-0.3,0.1-0.8,0.5-0.9
		c1-0.4,1.8-2,2.4-4.2c-6.1-3.4-12.2-7.3-18.1-11.8C234.3,353.2,234.1,353,233.9,352.9z"/>
	<path fill="#FFFFFF" d="M209,125.6c0.8-1.2,0.8-1.2-0.9-1.9c-0.9-0.4-1.6-0.9-1.6-1.2c0-0.9-1-0.5-1.4,0.6
		c-0.3,0.8-0.1,1.4,0.6,2.3C206.9,127.1,208,127.2,209,125.6z"/>
	<path fill="#FFFFFF" d="M255.6,366.8v2.3l1.7,1.2c2.1,1.4,3.2,1.5,4.4,0.4c0.2-0.2,0.4-0.3,0.6-0.4c-2-1-3.9-2-5.8-3
		C256.2,367.1,255.9,366.9,255.6,366.8z"/>
	<path fill="#FFFFFF" d="M220.7,457.7c-0.3,0.6-0.9,1.1-1.5,1.2c-0.6,0.1-1.4,0.7-1.7,1.4c-0.4,0.7-1.8,2.3-3.2,3.6
		c-4.6,4.3-4.6,7.8,0,11.7c1.5,1.2,2.9,2.5,3.2,2.9c0.3,0.4,0.7,0.6,0.7,0.5c0.1-0.1,0.7-0.9,1.4-1.9c1.3-1.6,1.3-1.7,5.4-2
		c2.7-0.2,5-0.1,6.7,0.3c2.3,0.6,2.8,0.6,3.6,0c0.8-0.6,1.4-0.6,3.3-0.1c2,0.5,2.4,0.5,3.4-0.2c0.6-0.4,1.7-1.3,2.6-1.9
		c0.9-0.7,2.2-1.2,2.8-1.2c2,0,4.5-0.9,5.4-1.9c0.6-0.7,1.5-0.9,2.9-0.9c1.7,0,2-0.1,2-0.9c0-0.5,0.5-1.3,1.1-1.6
		c0.6-0.4,1.3-1.2,1.4-1.8c0.1-0.6,1.1-2,2.2-3c1-1.1,1.9-2.5,1.9-3c0-0.6-0.6-2.4-1.3-4.2c-0.9-2.4-1.5-3.2-2.1-3.2
		c-1.1,0-2.5-0.7-4.3-2.2c-0.7-0.6-1.5-1.1-1.6-1.1c-0.2,0-1.8,0.4-3.6,0.9c-1.8,0.5-4,0.8-5,0.8c-0.9,0-2,0.1-2.3,0.4
		c-0.3,0.3-2.6,0.7-5.1,1c-4.2,0.5-5.7,0.9-15.3,4.4C222.1,456.4,221,457.1,220.7,457.7z"/>
	<path fill="#FFFFFF" d="M238.4,395.2c-1.2-0.2-1.7,0-2.5,1c-1.1,1.4-1.1,3.1,0.1,3.3c0.4,0.1,1.5-0.5,2.4-1.3
		c0.9-0.8,2-1.5,2.4-1.5c0.9,0,1-0.9,0.1-1.2c-0.9-0.4-0.4-1.6,0.7-1.6c0.5,0,0.9-0.3,1.1-0.7c0.5-1.4-0.2-2-2.3-2.2l-2.1-0.1v1.7
		c0,1.1,0.3,1.9,0.8,2.2C239.8,395.3,239.6,395.4,238.4,395.2z"/>
	<path fill="#FFFFFF" d="M366,0.8c-0.5,0.5-0.7,2.2-0.7,5.2c0,5.2-1,8.2-3.7,11.6c-3.8,4.6-12.5,10.4-15.7,10.4
		c-0.7,0-3.3-0.5-5.8-1l-4.5-1l-2.5,1.3c-2.7,1.4-3.2,1.4-5.8-0.8l-1.3-1l-4.7,0.8c-4.6,0.8-4.9,0.8-7.3,0l-2.5-0.8l-2.6,1.7
		c-1.5,0.9-2.9,1.7-3.1,1.7c-0.3,0-2-0.7-3.8-1.5c-3.2-1.4-3.5-1.5-5.5-0.9c-3.7,1-4.3,1.1-6.2,0.2c-1.9-0.8-1.9-0.8-4.8,0.2
		c-1.5,0.6-3.4,1-4.1,1c-1.6,0-9.5,6.1-11.3,8.8c-0.7,1-1.4,2.8-1.5,3.8c-0.2,1.7-0.6,2.2-3.2,4.3c-2.5,2-3,2.7-4,5.2
		c-1.5,4.1-5.9,8.5-9.7,9.5c-1.5,0.4-2.9,1-3.1,1.3c-0.2,0.3-0.4,2.3-0.3,4.4l0.2,3.8l1.2-0.3l1.3-0.3l-1.5,1.6l-1.5,1.6l0.3,3.7
		c0.1,2.1,0,4.6-0.2,5.8l-0.5,2.1l2.9,2.7c1.6,1.5,3,2.7,3.3,2.7c0.2,0,0.4,0.2,0.4,0.5c0,0.9-1.4,0.5-4.4-1.4
		c-1.6-1-3.2-2.4-3.5-3.1c-0.3-0.7-0.6-2.6-0.6-4.4c0-1.8-0.1-3.3-0.3-3.3c-0.2,0-0.9,0.3-1.5,0.7c-1.5,0.9-3.5,0.9-5.2,0
		c-1.3-0.7-1.4-0.7-1.7,0c-0.7,2,0.7,8.4,3,13.8c1.3,2.9,2.5,6.2,2.7,7.1c0.3,1.5,0.5,1.8,1.5,1.8c1.2,0,1.2,0-0.5,1.9
		c-0.9,1-1.7,2-1.7,2.2c0,0.2,0.7,0.8,1.7,1.5c1.5,1,1.7,1.3,1.5,2.9c-0.2,1.9,0.3,2.7,1.2,1.8c0.7-0.7,1.3-0.7,3,0.4l1.5,0.9
		l-0.9,1.4c-0.6,0.7-1,1.6-1,2c0,0.4,1.4,1.4,3,2.3c3.3,1.7,3.6,2.5,1.1,2.5c-0.9,0-1.7,0.1-1.8,0.2c-0.5,0.6-3.8,1.9-4.2,1.7
		c-0.5-0.3-0.8,3-0.6,6.4c0.2,2.3,0.3,2.7,0.9,2.2c0.5-0.5,1-0.5,1.2-0.1c21.3-13.9,46.7-22,73.9-22c53.8,0,100.2,31.5,122.3,77.2
		c-0.1-0.4-0.3-0.8-0.5-1.2c-1.8-3.5-1.6-5.2,1.1-9.1c2-2.9,2.2-3.4,2.2-6.1c0-2.3-0.4-3.7-1.8-7c-1.4-3.1-1.9-5.2-2.2-8.2
		c-0.5-5.3-0.5-10.7,0-12.7c0.4-1.4,0.3-1.8-0.9-3.5c-3.4-5-5.1-9.9-4.3-12c0.8-2,0.3-3.2-2.8-6.4c-2.2-2.3-2.9-3.3-3.3-5.3
		c-0.5-1.9-1.2-3-2.9-4.9c-1.2-1.3-2.2-2.7-2.2-3c0-0.4-1.3-2.6-2.8-4.9c-2.7-4-3.4-5.8-2.3-5.8c1,0,0.3-1.3-2.4-4.1
		c-2.7-2.8-2.9-3.1-2.5-4.6c0.3-1.9,0.3-1.9-6.8-10.3c-5-5.8-7-8.6-10.2-13.8c-1.4-2.2-4.5-6.8-7-10.2c-6.2-8.6-7.8-11.3-8.2-14.2
		c-0.5-3.5-6.4-17.2-9.3-21.4c-0.7-1.1-1.3-2.3-1.1-2.7c0.1-0.4-0.1-0.9-0.7-1.2c-0.6-0.3-1.1-1.4-1.4-3.1C371.2,6,368.3,0,367.1,0
		C366.8,0,366.3,0.4,366,0.8z"/>
	<path fill="#FFFFFF" d="M231.5,73c-2.1-1.2-4.1-1.2-5.6,0.1c-1.6,1.5-2.4,5.5-1.5,7.3c0.4,0.7,1,1.5,1.4,1.9
		c0.4,0.3,1.2,1.4,1.7,2.2l1,1.6l-1.2,1.3c-0.7,0.7-1.2,1.7-1.2,2.2c0,1.7,1.2,2.2,5.5,2.2c3.7,0.1,4,0,4.7-1c0.7-1,0.7-1.5-0.3-6.5
		C234.6,77.1,233.5,74.2,231.5,73z"/>
	<path fill="#FFFFFF" d="M237.6,99.7c-2.4-0.9-2.8-0.8-3.8,0.3c-0.7,0.9-1.6,1.3-3.7,1.6c-2.9,0.4-5.3,2.1-4.8,3.4
		c0.3,0.7,3.6,2.6,4.7,2.6c0.4,0,1.5-0.9,2.5-2.1c1-1.2,2-2.1,2.2-2.1c0.2,0,1.4-0.5,2.7-1c1.9-0.8,2.2-1.1,1.7-1.7
		C238.8,100.4,238.1,99.9,237.6,99.7z"/>
	<path fill="#FFFFFF" d="M200.9,334.6c0,1.1,0.5,1.1,2.3,0.2c1.7-0.8,2-2.3,1-4.7c-0.7-1.6-0.8-1.7-1-0.8c-0.2,0.7-0.7,1.1-1.7,1.3
		c-1.1,0.2-1.5,0.6-1.5,1.4c0,0.6,0.2,1.2,0.5,1.4C200.7,333.5,200.9,334.1,200.9,334.6z"/>
	<path fill="#FFFFFF" d="M207,321.8c-0.4,0.3-0.4,0.6,0.4,1.3c0.5,0.5,0.9,1.1,0.9,1.5c0,0.3,0.3,0.6,0.7,0.6c0.3,0,0.5-0.2,0.6-0.6
		c-0.7-1-1.3-2-2-3C207.4,321.7,207.2,321.7,207,321.8z"/>
	<path fill="#FFFFFF" d="M205.8,338.8c1.2-0.5,1.2-0.5,0.4-1.4c-0.5-0.5-1.3-0.9-1.9-0.9c-0.8,0-1,0.2-0.8,1.4
		C203.8,339.4,203.9,339.5,205.8,338.8z"/>
	<path fill="#FFFFFF" d="M212.7,163.4c-1.1-0.5-1.4-0.4-2.6,0.7c-1.9,1.8-2.3,2.8-2,4.5l0.3,1.5l0.7-1.3c0.5-1,0.6-1.2,1.2-0.9
		c1-1.4,2-2.9,3.1-4.3C213.2,163.5,213,163.5,212.7,163.4z"/>
	<path fill="#FFFFFF" d="M225.9,345.3c0.1,0.1,0.3,0.2,0.7,0.4c-0.2-0.2-0.4-0.5-0.7-0.7C225.9,345.1,225.8,345.2,225.9,345.3z"/>
	<path fill="#FFFFFF" d="M201.8,315.8c0,1.8,2.2,3.5,3.9,3c0.1,0,0.1,0,0.2-0.1c-1-1.6-1.9-3.2-2.8-4.9
		C202,314.5,201.8,314.9,201.8,315.8z"/>
	<path fill="#FFFFFF" d="M221.1,345.9c-0.2-0.4-0.5-0.6-0.7-0.6c-0.2,0-0.4,0.2-0.6,0.6c0.2,0,0.5,0,0.7,0
		C220.7,345.9,220.9,345.9,221.1,345.9z"/>
	<path fill="#FFFFFF" d="M227.7,145.5c-2,0-5.3,1.3-3.6,1.4c1.1,0,2.2,0.8,2.6,1.5c0.9-0.9,1.8-1.8,2.8-2.7
		C228.9,145.6,228.4,145.5,227.7,145.5z"/>
	<path fill="#FFFFFF" d="M220.5,154.7l-0.8-1.9l-1.1,2.4c-1.4,3.1-3.7,3.8-4.5,1.5c-0.2-0.6-0.4-0.8-0.7-0.5
		c-0.3,0.3-0.2,0.9,0.1,1.7c0.5,1.1,0.5,1.4-0.2,1.7c-1,0.6-1,1.2,0.1,1.6c0.5,0.2,0.9,0.5,1.1,0.9c1.9-2.5,3.9-4.9,6-7.3
		C220.5,154.8,220.5,154.7,220.5,154.7z"/>
	<path fill="#FFFFFF" d="M197.5,342.1c0.1-1-0.4-1.4-1-0.7c-0.2,0.2-1.5,0.6-2.8,0.8c-0.1,0-0.2,0-0.3,0.1c1.2,0.3,2.3,0.6,3.5,0.9
		C197.2,342.9,197.4,342.5,197.5,342.1z"/>
	<path fill="#FFFFFF" d="M205.2,344.8c1,0.1,2,0.3,3,0.4c-0.3-0.1-0.6-0.3-0.8-0.5C206.6,343.6,205.7,343.8,205.2,344.8z"/>
	<path fill="#FFFFFF" d="M215,336c-0.8,1-0.8,1,1.5,0.7c0.6-0.1,1.2-0.2,1.8-0.4c-0.4-0.5-0.8-1-1.2-1.5
		C216.4,335,215.5,335.5,215,336z"/>
	<path fill="#C70000" d="M262.3,370.3c0.1,0,0.1-0.1,0.2-0.1c-2-0.9-4-1.9-6-3C258.4,368.3,260.4,369.3,262.3,370.3z"/>
	<path fill="#C70000" d="M322.1,108.9c-27.3,0-52.6,8.1-73.9,22c0.3,0.4,0.3,1.3,0,2.6l-0.5,2l2.4-2.7c2.6-2.9,4.2-3.4,6.3-1.9
		c1.5,1,1.3,1.8-0.8,3.5c-1.7,1.4-1.8,1.6-1.6,3.5c0.2,1.3,0,2.5-0.5,3.5c-0.8,1.5-0.8,1.5,0.5,1.5c0.7,0,1.8,0.4,2.6,0.8
		c1.2,0.7,1.3,0.9,0.7,1.5c-0.6,0.7-0.3,1.1,2.2,3.8c3.8,4,4.4,4.4,6.5,3.3c1.3-0.6,1.6-1.1,1.7-2.3c0.1-1.6,0.5-1.8,1.4-0.9
		s0.7,2.9-0.5,4c-0.6,0.6-2.5,1.6-4.2,2.4c-3.2,1.4-4.3,2.5-4.8,4.8c-0.6,2.2-1.1,1.9-1.9-0.9c-1.7-5.9-2.7-8.5-3.9-9.9
		c-1.1-1.4-1.7-1.6-4.3-2c-2.7-0.4-3.1-0.3-3.6,0.5c-0.6,0.8-0.7,0.8-2.3-0.8c-1-0.9-3.3-2.6-5.2-3.7l-3.4-2l-1.3,1.5
		c-1.4,1.7-1.4,2.2,0.6,4.3c0.8,0.9,1,1.3,0.6,1.5c-0.4,0.1-0.7,0.7-0.8,1.3c-0.1,0.9-0.3,0.8-1.5-1.1c-1.1-1.9-1.9-2.7-3.1-3
		c-0.9,0.9-1.8,1.8-2.8,2.7c0.2,0.3,0.3,0.6,0.2,0.8c-0.2,0.5,0.3,1.3,1.5,2.2l1.8,1.5l-0.8,1.7c-0.4,1-1.5,2.1-2.2,2.5
		c-0.7,0.4-1.4,1-1.4,1.3c0,0.3-0.3,1-0.7,1.5c-0.7,1-0.8,1-1.5,0.4c-0.7-0.6-0.7-0.5-0.7,1c0,1.9-1.1,2.5-2.3,1.5
		c-1.1-0.9-0.9-4.9,0.2-5.7c0.8-0.6,0.8-0.7,0.1-2.4c-2.1,2.4-4.1,4.8-6,7.3c0.2,0.5,0.3,1-0.1,1.3c-0.2,0.2-0.6,0.3-1,0.1
		c-1,1.4-2.1,2.8-3.1,4.3c0.2,0.1,0.5,0.3,0.8,0.5c2.1,1.3,2.9,2.3,2.5,3.4c-0.2,0.7-0.7,1-1.9,1c-1.1,0-1.6,0.2-1.6,0.7
		c0,1.1,1.1,0.8,3.8-0.9c2.6-1.8,3.7-1.8,3.7-0.2c0,0.6,0.7,1.8,1.6,2.8c1.8,2,2.1,3.7,0.9,5.3c-0.9,1.2-0.9,2.6,0,2.6
		c1.3,0,2.2,2.8,2.4,7.4c0.2,3.7,0.5,4.7,1.5,6.2c1,1.6,1.4,1.8,3,1.8c1.1,0,1.8-0.2,1.8-0.6c0-0.3-1.5-5.5-3.3-11.6
		c-3.1-10.6-3.8-13.7-2.9-14.3c0.9-0.6,1.9,1.8,1.9,4.6c0,1.8,0.2,2.8,0.6,2.9c0.3,0.1,1.2,0.4,2.1,0.6c1.7,0.6,2,0.2,2-2.4
		c0-1.7,1.1-3.6,2.2-3.6c0.7,0,0.9,1.6,0.8,4.8c0,0.7,0.1,1.3,0.4,1.3c0.7,0,0.5,1-0.3,1.6c-0.7,0.5-0.7,0.8,0.2,4
		c0.6,2,1,4.8,1,6.4c0,2.2,0.2,3,0.7,3.2c0.8,0.3,0.9,1.7,0.1,3.8c-0.5,1.4-0.5,1.7,0,1.9c0.9,0.3,3.8,2.9,3.8,3.5
		c0,0.2-0.6,0.7-1.4,0.9c-0.8,0.3-1.4,0.7-1.4,1c0,0.2,0.7,1.4,1.4,2.4l1.5,2l-1,5.1c-0.6,2.8-0.9,5.1-0.8,5.2c0.1,0,1,0.6,2,1.1
		c2.7,1.3,5.8,4.9,5.8,6.5c0,1.8,3,5.8,4.3,5.8c0.6,0,1.6-0.6,2.3-1.2c1.2-1.2,8.8-4.2,8.8-3.5c0,0.7-2.2,2.3-4.4,3.3
		c-1.3,0.6-2.4,1.3-2.5,1.7c-0.4,1.1-1.6,1.5-8.1,2.5c-3.5,0.6-6.4,1.1-6.5,1.2c-0.1,0.1,0.8,0.4,2,0.7c2.5,0.6,3.2,1.6,3,4.1
		c-0.1,1.5,0,1.7,0.9,1.9c0.6,0.1,1.7-0.2,2.5-0.6c1.3-0.7,1.9-0.7,4.2-0.2c2.5,0.6,2.8,0.5,4.4-0.4c0.9-0.6,2.1-1,2.7-0.9
		c0.9,0.1,0.8,0.3-1.1,2.3c-1.8,1.9-2.5,2.2-4.4,2.5c-3.4,0.4-3.9,0.9-2.2,2.3c0.7,0.6,2.2,1.5,3.2,1.9c1.5,0.7,1.8,1,1.8,2.4
		c0,1.8-0.6,2-2.3,0.6c-0.9-0.7-1.9-0.9-4.5-0.9h-3.4l-1,2.2c-1.2,2.8-3.3,5-5.9,6.3c-2.1,1-5.8,4.7-5.8,5.8c0,0.3,0.6,1.2,1.2,2
		c1.4,1.7,2.3,1.8,6.4,0.7c3.6-0.9,5-0.7,6.1,0.8c1,1.4,0.8,3.4-0.2,2.3c-0.8-0.8-2.1-0.7-2.9,0.4c-0.5,0.7-1.5,1-3.9,1.4
		c-1.8,0.2-3.7,0.7-4.2,0.9c-1.4,0.7-3.2,3.4-5.1,7.2c-1.3,2.6-1.6,3.8-1.4,5.1c0.2,1.3,0,1.8-0.6,2.2c-0.5,0.3-1.1,1.3-1.5,2.4
		c7.1,3,15.5,5,25.7,5.8c20,1.2,58.9-4.7,72.2-59.2c17.6-52.3,70.3-67.3,106.2-39c3.9,2.5,7.3,5.4,10.2,8.4c0-0.2,0-0.5,0-0.7
		c0-2.8,0.3-3.8,1.8-7.3c2.7-5.9,3.5-11.7,2.2-15.7C422.3,140.4,375.9,108.9,322.1,108.9z"/>
	<path fill="#C70000" d="M454.5,230.3c-0.3-1.1-0.7-2-0.9-2c-0.1,0-0.4,0.3-0.9,0.8c0.6,1.5,1.1,3,1.6,4.5
		C454.9,232.4,454.9,231.9,454.5,230.3z"/>
	<path fill="#3D5897" d="M203.1,313.9c0.9,1.7,1.9,3.3,2.8,4.9c0.9-0.3,1-0.6,1-2.6c0-1.8,0.2-2.6,1-3.5c0.9-0.9,0.9-1.2,0.4-1.5
		c-1-0.7-1.4-0.6-1.7,0.2c-0.1,0.4-1.3,1.3-2.5,1.9C203.7,313.5,203.3,313.7,203.1,313.9z"/>
	<path fill="#3D5897" d="M303.2,369.7c-1.1,0.6-1.1,1.2,0.1,1.6c0.5,0.2,1.3,0.9,1.7,1.7c0.6,1.1,0.9,1.4,1.7,1.1
		c0.6-0.1,1.2-0.5,1.4-0.7c0.7-0.7-0.2-2.4-1.7-3.3C304.8,369.1,304.3,369,303.2,369.7z"/>
	<path fill="#3D5897" d="M430.2,201.3c-35.9-28.3-88.6-13.3-106.2,39c-13.3,54.6-52.2,60.5-72.2,59.2c-10.2-0.8-18.7-2.8-25.7-5.8
		c-0.1,0.1-0.1,0.3-0.1,0.4c-0.4,1.2-1.7,3.7-2.9,5.5c-1.2,1.8-2.1,3.5-2.1,3.7c0,0.3,0.3,1,0.7,1.6c0.6,0.9,1.1,1,2.3,0.8
		c1.5-0.2,1.5-0.2,1.8,1.6c0.2,1.5,0.9,2.5,3.2,4.7l2.9,2.8l-0.6,1.8c-0.6,1.8-2.8,4.7-3.7,4.7c-0.7,0-0.7-0.8,0-1.2
		c0.7-0.4-1.5-4-2.3-4c-0.4,0-1.2-0.3-1.8-0.7c-0.8-0.6-1-1.2-1-3.1c0-1.9-0.1-2.2-0.6-1.9c-0.3,0.3-1.5,0.6-2.7,0.7
		c-2,0.1-2.6,0.7-3.4,2.9c-0.1,0.2-0.6,0.1-1.1-0.2c-1.2-0.7-4-0.3-4.9,0.7c-0.5,0.6-0.3,1,1.3,2.3c1,0.9,2.3,1.6,2.9,1.6
		c0.6,0,1.5,0.4,2.1,1l1,1l1-1c0.6-0.6,1.5-1,2.1-1c0.8,0,1-0.3,1-1.5c0-1.1,0.1-1.4,0.7-1.2c0.4,0.1,0.8,0.3,0.9,0.3
		s0.2,0.7,0.2,1.6c0,1.5,0.1,1.6,1.6,1.6c1,0,1.7,0.3,1.9,0.7c0.3,0.9,0.4,0.8-1,1.5c-0.7,0.4-1.1,1-1.1,1.8c0,1.2,0.1,1.3,2.1,1.1
		l2.1-0.2l-0.7,2.8c-0.8,3.6-0.8,5.4,0.1,7.4l0.8,1.6l-1.7,1.8c-0.9,1-1.7,2.2-1.7,2.8c0,1.3,0,1.3,2.3,0.1c2.3-1.2,2.9-1.2,5.2,0
		l1.9,1l0.9-1.1l0.9-1.1l0,1.5c0,1.4-1.2,3-2.2,3c-0.3,0-0.7-0.3-1.1-0.7c-0.3-0.4-1.3-0.7-2.1-0.7c-1.6,0-4.6,1.2-5.1,2
		c0.2,0.2,0.4,0.5,0.7,0.7c0.7,0.3,1.9,0.7,3.1,1.1c3.4,1,5.2,2.2,5.2,3.5c0,0.4,0.4,0.9,0.9,1.2c1.5,0.8,1.1,1.4-0.9,1.4
		c-0.4,0-0.8,0-1.1,0.1c0.2,0.2,0.4,0.3,0.5,0.5c6,4.4,12,8.3,18.1,11.8c0.3-1,0.5-2.2,0.5-3.4c0.3-4.6,0.7-5.3,1.7-3.2
		c0.6,1.2,0.8,2.9,0.8,6.1v2.1c0.3,0.2,0.6,0.3,0.9,0.5c2,1,4,2,6,3c0.4-0.1,0.7,0,1.3,0.2c1.5,0.7,1.5,0.7,1.8-0.8
		c0.2-1.2,0.5-1.4,1.2-1.2c0.8,0.3,0.9,0,0.9-2.5c0-2.2,0.2-2.9,0.9-3.6c0.7-0.7,0.8-1,0.4-1.5c-0.4-0.5-0.4-0.9,0-1.8
		c0.3-0.7,0.5-1.5,0.5-2c0-0.6,1.2-1.6,3.1-2.9c1.8-1.1,4-2.8,4.9-3.6c1.5-1.4,1.9-1.5,2.8-1c1.6,0.9,3-0.1,4.4-3
		c1.5-3.1,2.2-3.5,3.6-1.6l1.1,1.4l1.2-1c1.6-1.3,2.1-1.2,2.9,0.5c0.9,1.7,0.9,3.4,0,5.4c-0.7,1.4-1,1.6-2.3,1.6
		c-1.5,0-1.6,0-1.6-1.9c0-1-0.2-1.9-0.5-1.9c-0.8,0-2,2.9-2.1,5c0,1.9-0.1,2-1.3,2c-0.9,0-1.3-0.2-1.4-0.8c0-0.5-0.3-0.1-0.8,0.9
		c-0.4,0.9-1.7,2.7-2.8,3.9c-1.1,1.2-2,2.4-2,2.6c0,0.1,0.5,0.8,1.2,1.4c1.1,1,1.3,1.1,2.7,0.5c3.8-1.5,4.4-1.3,8.1,3.5l1.5,1.9
		l1.1-1c0.6-0.6,2-1.5,3-2c1.6-0.8,3.4-2.9,3.4-4c0-0.1-0.6-0.2-1.4-0.2c-1.4,0-1.9-0.6-0.9-1.2c0.3-0.1,0.5-0.5,0.5-0.7
		c0-0.3-0.6,0-1.4,0.5c-1.5,1-1.6,0.9-2.1-1c-0.2-1,0-1.5,0.8-2c1-0.7,1.3-0.7,3.3,0.3c1.8,0.8,2.3,0.9,3.1,0.5
		c0.7-0.5,1-0.4,1.4,0.4c0.8,1.5,2.3,0.4,2.3-1.5c0-1.3-0.2-1.6-1.5-2.1c-1.1-0.4-1.4-0.7-1.2-1.5c0.2-0.7-0.3-1.3-2.2-2.6
		c-1.8-1.2-2.7-2.2-2.9-3.1c-0.2-0.7-0.5-1.5-0.7-1.6c-0.8-0.5-0.4-2,0.7-2.7c1-0.7,1-0.7,0.1-1.5c-0.9-0.7-0.9-0.7,0-1.6l1-0.8
		l-1.4-1.4c-1.5-1.5-1.5-2.1,0.1-1.2c0.9,0.5,1.3,0.4,2.4-0.5c1-0.7,1.9-1,3.3-0.8c1.9,0.1,2,0.1,2.1-1.4c0.1-0.8,0.3-1.5,0.5-1.5
		s1,0.7,1.9,1.6c1.4,1.4,1.5,1.8,1.3,3.2c-0.2,1.3-0.1,1.6,0.7,2c0.9,0.4,3.1,3.6,3.2,4.5c0,0.1-0.5,0.9-1.2,1.7
		c-0.8,1-1,1.5-0.6,1.9s0.4,0.7,0,1.5c-0.3,0.5-0.6,1.5-0.6,2.3c0,1.2,0.2,1.4,1.3,1.4c0.7,0,1.8,0.3,2.3,0.7
		c1.2,0.8,1.2,0.8,0.3-2.7c-0.8-3.1-0.7-3.6,1.5-5.8l1.5-1.3l1.3,1c2.3,1.8,4.9,0.7,4.9-2.1c0-0.7,0.3-2.5,0.7-3.9
		c0.4-1.4,0.7-2.9,0.7-3.2c0-0.7-4.5-0.8-4.9-0.1c-0.4,0.7-3.8,2.3-4.7,2.3c-1,0-3.6-4.2-3.5-5.6c0-0.7-0.1-1.5-0.3-2
		c-0.7-1.6,0.5-2,3-0.8c1.3,0.5,2.6,1,2.9,1s1.6-1.2,3-2.6c2.7-2.9,3.7-3.1,5.8-1.5c1.3,0.9,1.5,0.9,2.2,0.2c1-0.9,2.3-1,2.5-0.2
		c0.4,1.2,2.7-0.5,3.9-2.9l1.2-2.4l0.9,1c0.7,0.7,1.5,1,3,1c2.5,0,2.7-0.7,0.9-2.8c-1.4-1.7-1-2.8,0.7-1.9c1.5,0.8,1.8,0.6,2.2-1.4
		c0.2-1.3,0.5-1.9,1-1.9c0.7,0,0.7,0.3,0.4,1.8c-0.2,0.9-0.3,2.2-0.3,2.9c0.1,1.8,0.1,5.8,0,7c-0.1,1.1,0,1.2,2.2,1.5
		c1.7,0.2,2.5,0.6,3.3,1.5c0.6,0.7,1.5,1.3,2,1.3c1.3,0,3.4-1.7,3.4-2.9c0-0.7,0.3-0.9,2.4-0.9c2.2,0,2.4,0.1,2.9,1.4
		c0.6,1.6,1.5,1.6,1.7,0c0.2-1.5,1.1-3.7,1.5-3.7c0.9,0,3.3,4,3.3,5.6c0,0.8-0.2,0.9-1.6,0.7c-1.4-0.2-1.6-0.1-1.6,0.6
		c0,0.7,0.4,0.9,1.5,0.9c0.8,0,2.4,0.2,3.4,0.4l1.9,0.3l0.6-2.9c0.4-2,0.4-3,0.1-3.4c-0.4-0.5-0.3-0.8,0.4-1.5
		c0.9-0.8,0.9-0.8-0.3-1.8c-1.5-1.2-0.8-1.7,2-1.7c2.5,0,3-0.8,1.4-2.2s-2.3-1.4-5.1,0.4c-1.3,0.8-2.4,1.4-2.6,1.2
		c-0.2-0.1,0-1,0.5-1.9c1-2.2,3.6-3.4,5.2-2.7c2,0.9,2.2,0.7,1.2-1.3c-1.3-2.5-1.2-2.8,0.6-2.7c0.8,0,2.4-0.1,3.6-0.3
		c1.8-0.3,2.3-0.2,3.4,0.8c1.3,1.2,1.3,1.2,0.6,2.4c-0.9,1.5-0.8,1.5,1.1,1c2-0.5,2-1.5-0.1-5.7c-1.8-3.5-2.1-5.8-0.9-7
		c1.2-1.2,2.1-0.9,1.8,0.5c-0.3,1.7,1.3,5.5,2.1,4.7c0.4-0.4,0.7-0.4,1.2,0c0.4,0.3,1.4,0.5,2.2,0.4c1.6-0.1,1.7,0,2.6,3.3
		c0.1,0.4,0.7,0.5,1.7,0.3c4.8-0.9,4.8-0.9,6.3,0.4c0.8,0.7,2,1.2,2.7,1.2c1,0,1.4-0.4,2-1.9c0.9-2.2,1.8-2,1.5,0.3
		c-0.1,1.3-0.1,1.5,0.3,0.9c0.3-0.4,1.1-0.8,1.9-0.9c1.3-0.1,1.4,0,1.5,1.5c0.2,2.3,0.8,2.7,1.8,1.1c0.5-0.7,0.9-1.5,1-1.6
		c0-0.1,0.3,0.1,0.5,0.4c0.3,0.5,0.6,0.4,1-0.5c0.8-1.6,2.9-3.7,3.6-3.7c0.3,0,0.6,0.4,0.6,0.9s0.3,0.9,0.7,0.9c0.4,0,1,0.1,1.4,0.3
		c0.7,0.3,0.7,0,0.5-2.3l-0.3-2.6h2.6c2.3,0,2.7-0.1,3.8-1.5c0.7-0.8,1.8-2.4,2.4-3.6c1.1-1.7,1.2-2.2,0.7-3.1
		c-0.5-0.8-0.4-1.4,0.1-2.4c0.4-0.8,0.7-1.9,0.7-2.5c0-0.7,0.3-1,0.9-1c0.5,0,1.7-0.7,2.8-1.6c1-0.9,2.2-1.6,2.6-1.6
		c0.7,0,0.7-0.2,0.3-0.9c-0.4-0.7-0.4-1.4,0.1-2.6c0.4-1.2,0.4-2.1,0.1-3.5c-0.5-1.7-0.4-1.9,0.6-2.3c1.5-0.7,2.3-3.6,1.4-4.7
		c-0.4-0.4-0.7-1.1-0.7-1.5c0-1.5,1.5-0.2,2.8,2.4l1.3,2.6l1.1-3.9c1.3-4.5,1.4-6.6,0.5-8.7c-0.6-1.4-0.5-1.9,1.4-6.7
		c1.3-3.6,1.9-5.7,1.7-6.5c-0.2-0.9,0.1-2,1.2-3.8c1.4-2.6,1.8-4.9,0.9-5.2c-0.4-0.1-0.4-0.5,0.1-1.2c0.5-0.8,0.5-1.3,0-2.2
		c-0.5-1.1-0.4-1.4,0.5-2.2c0.6-0.6,1.3-1.8,1.5-2.7c0.1-0.9,0.7-2.5,1.3-3.5c0.1-0.2,0.2-0.4,0.3-0.5c-0.5-1.5-1-3-1.6-4.5
		c-0.3,0.4-0.7,0.8-1,1.3c-2.2,3-5.2,5.8-6,5.8c-0.4,0-1.7-1-2.9-2.3c-2.7-2.8-3-4.4-1-5.3c3.3-1.4,3.7-3,1.3-4.9
		c-1.3-0.9-1.6-1.6-1.6-2.7c0-0.8-0.3-1.9-0.7-2.4c-0.9-1.2-0.9-2.1,0-2.7c0.6-0.4,0.6-0.8,0.2-2.2c-0.2-0.8-0.4-2.5-0.5-4.1
		C437.5,206.7,434.1,203.8,430.2,201.3z"/>
	<path fill="#3D5897" d="M305.2,366.5c-0.8-0.5-1.5-1.2-1.5-1.6c0-1.2-1.2-2-1.8-1.2c-0.4,0.5-0.4,1.1,0.1,2.5
		c0.5,1.4,0.9,1.9,1.9,2c0.7,0.1,1.6,0,2-0.3C306.6,367.5,306.5,367.3,305.2,366.5z"/>
	<path fill="#3D5897" d="M281.4,372.7c0.8-0.1,2-0.3,2.7-0.3c1,0,1.4-0.3,1.6-1.3c0.2-0.7,0.4-1.6,0.6-2.1c0.2-0.7,0-0.8-1.3-0.7
		c-0.8,0-2,0.2-2.5,0.4c-0.5,0.2-1.6,0.4-2.4,0.4c-2,0-2.2,0.5-1,2.3C279.9,372.8,280.2,373,281.4,372.7z"/>
	<path fill="#3D5897" d="M321,364.4l2.6,1.7c3.8,2.4,4.5,2,2.2-1.2c-1-1.4-2.1-2.6-2.3-2.7c-0.2,0-0.8,0.4-1.4,1L321,364.4z"/>
	<path fill="#3D5897" d="M385.8,332.6c-0.8-0.4-1.4-0.4-2.3,0.1c-1,0.6-1.3,0.5-2.3-0.4c-1.4-1.3-2.6-1-4,0.7
		c-1.3,1.7-1.2,2.5,0.7,4.4c0.9,0.9,1.6,1.4,1.6,1.1c0-0.3,0.8-1,1.9-1.5l1.9-1.1l1.2,1.1c1.4,1.3,1.4,1.9,0,3.6
		c-1.2,1.4-1.2,1.5-0.2,1.7c1.1,0.3,1.2,0.8,0.4,2.2c-0.4,0.8-0.3,1.1,0.3,1.6c0.7,0.5,0.7,0.7,0.2,1.4c-0.6,0.7-0.6,0.8,0,1.2
		c0.5,0.3,0.9,0,1.7-0.9c1.2-1.5,1.4-2.4,0.5-3.3c-0.5-0.5-0.4-0.8,0.7-1.7c0.7-0.6,1.4-1.6,1.6-2.3c0.2-1,0.4-1.1,1.2-0.7
		c1.2,0.7,2.6,0.1,1.9-0.6c-0.9-0.9-0.6-2.4,0.7-3.5l1.3-1l-1.2,0.2c-1.5,0.3-2.2-1-1.2-2.2c1.2-1.3,1.3-3.5,0.3-5.6
		c-1-2.3-1.1-3.8-0.4-4.6c0.6-0.6,0.2-1.5-0.8-1.5c-0.4,0-0.7,0.5-0.7,1.4c0,1.7-1.5,3.6-3.8,4.7c-1,0.5-1.8,1.1-1.8,1.2
		c0,0.1,0.5,0.9,1.2,1.7C388.1,332.1,387.9,333.5,385.8,332.6z"/>
	<path fill="#3D5897" d="M370.8,342.3c1.1,1.5,1.5,1.1,2-1.9c0.2-1.6,0.1-2-0.5-2.2c-0.7-0.3-0.7-0.4,0.2-0.9
		c0.7-0.4,1.4-1.3,1.7-2.6c0.3-1.1,0.6-2,0.5-1.9c0,0-1.1,0.9-2.4,2c-2,1.7-2.3,2.1-1.6,2.5c0.7,0.5,0.7,0.6,0,1.4
		C369.5,339.8,369.5,340.7,370.8,342.3z"/>
	<path fill="#3D5897" d="M343.2,330.3c-0.5,0-1.4,0.5-1.9,1c-0.5,0.6-1.3,1.6-1.7,2.3c-0.7,1.2-0.7,1.3,0,2.4
		c0.6,0.9,1.2,1.2,2.3,1.2c0.8,0,2.5,0.1,3.7,0.3c1.8,0.3,2.2,0.2,2.2-0.5c0-0.4-0.3-0.9-0.7-1c-0.4-0.2-0.7-0.6-0.7-0.9
		c0-0.3-0.4-0.9-1-1.5c-0.8-0.7-1-0.7-1.4-0.2c-0.3,0.5-0.4,0.1-0.2-1.3C344.1,330.6,344,330.3,343.2,330.3z"/>
	<path fill="#3D5897" d="M335.3,332.5c1.3-0.9,1.5-2.2,0.7-3c-1-1-2.2-0.6-3.6,1.2c-0.7,0.9-1.9,2.6-2.4,3.6l-1,2l1.5,3.2
		c1.6,3.4,1.8,4.3,0.9,4.5c-0.5,0.2-0.5,0.5,0,1.5c0.5,1,0.9,1.3,2.3,1.3c1.6,0,1.6,0,1.4-1.4c-0.4-1.8,0.8-2.9,2.8-2.8
		c1.4,0.1,1.5,0.2,1.5,2.3c0,2.5,0.9,3.9,1.6,2.7c0.4-0.6,0.5-0.6,0.9,0c0.4,0.6,0.5,0.6,0.7-0.1c0.2-0.4,0.7-0.7,1.2-0.5
		c0.7,0.2,1-0.3,1.6-3.3c0.6-2.7,0.7-3.7,0.3-4.2c-0.9-1.1-2.9-1.2-4.8-0.2c-2.2,1.1-3,1.1-3.3,0c-0.1-0.6-0.7-0.9-1.4-0.9
		c-1,0-1.2-0.2-1.5-2.4C334.1,333.6,334.2,333.3,335.3,332.5z"/>
	<path fill="#3D5897" d="M326.3,358.5c0.2-0.2,0.5-1.6,0.7-3.1c0.3-2.4,0.2-2.9-0.5-3.4c-1.1-0.8-1.3-0.8-2.5,0.1c-1.3,1-2,4-1.3,5
		C323.3,358.1,325.8,359,326.3,358.5z"/>
	<path fill="#3D5897" d="M219.6,331.6c0,1.7-0.9,2.8-2.4,3.2c0,0,0,0,0,0c0.4,0.5,0.8,1,1.2,1.5c0.8-0.2,1.4-0.4,1.9-0.6
		c1.7-0.8,2.6-0.2,2.2,1.5c-0.1,0.7,0,1.4,0.4,1.6c1.2,0.7,1.4,0.5,1.4-1.6c0-1.9-0.1-2.1-1.4-2.4c-1.3-0.3-1.4-0.4-0.9-1.5
		c0.4-1,0.3-1.4-0.6-2.1C219.9,330.1,219.6,330.1,219.6,331.6z"/>
	<path fill="#3D5897" d="M209.5,318.8l-1.4,0.6l2,0.6c2.2,0.7,2.9,0.4,2.2-0.8C211.6,318.2,211.1,318.1,209.5,318.8z"/>
	<path fill="#3D5897" d="M223.5,329.3c0.1-0.1,0.4-1,0.5-1.8c0.3-1.5,0.2-1.6-1.4-1.6c-1.5,0-1.6,0.1-1.4,0.9
		C221.6,327.9,223.2,329.7,223.5,329.3z"/>
	<path fill="#3D5897" d="M208.7,321.4c-0.3,0-0.7,0.1-1.1,0.1c0.7,1,1.3,2,2,3c0.1-0.3,0.1-0.7,0.1-1.3
		C209.7,321.7,209.6,321.4,208.7,321.4z"/>
</g>
</svg>
