<?xml version="1.0" encoding="utf-8"?>
<!-- Generator: Adobe Illustrator 17.1.0, SVG Export Plug-In . SVG Version: 6.00 Build 0)  -->
<!DOCTYPE svg PUBLIC "-//W3C//DTD SVG 1.1//EN" "http://www.w3.org/Graphics/SVG/1.1/DTD/svg11.dtd">
<svg version="1.1" id="flag-icon-css-kw" xmlns="http://www.w3.org/2000/svg" xmlns:xlink="http://www.w3.org/1999/xlink" x="0px"
	 y="0px" viewBox="0 0 640 480" enable-background="new 0 0 640 480" xml:space="preserve">
<g>
	<path fill="none" d="M375.8,480c0.1,0.2,0.2,0.4,0.2,0.4c0.1,0.1,12.4-0.1,30.8-0.4H375.8z"/>
	<path fill="#FFFFFF" d="M239.4,320h256c-0.4-6-1.2-8.3-3.4-10.2c-1.9-1.6-1.9-1.7-2.1-5.7c-0.2-3-0.6-5-1.6-7.3
		c-1.3-3-1.3-3.6-1.3-10.2l0-7.1l-2.4-5.1l-2.4-5.1l-0.5-14.2c-0.3-7.8-0.6-14.5-0.7-14.8c-0.1-0.4,0.6-1.7,1.7-2.9
		c2.4-2.9,2.8-4.3,1.8-5.5c-0.7-0.8-0.9-0.8-4.5,0.5c-5.6,2.1-7.6,1.9-11.8-0.8c-2.3-1.5-3.6-2.7-3.9-3.6c-0.3-0.8-1.5-2.1-2.9-3
		c-1.5-1-2.6-2.2-2.9-3.1c-1.6-4.6-5.7-4.2-9.6,0.8c-0.8,0.9-3.1,3.2-5.1,4.9c-3.4,3-3.8,3.2-4.8,2.7c-0.5-0.3-1.1-1-1.2-1.4
		c-0.1-0.4-0.8-1.1-1.5-1.4c-1.1-0.6-1.3-0.5-2.5,0.6c-1.1,1.1-1.4,2-1.8,5.1l-0.5,3.7l-4.4,1.6c-3.8,1.4-5.1,1.6-8.8,1.6
		c-6.4,0-7.4-0.2-7.6-2.1c-0.1-0.8,0-2.8,0.3-4.3c0.5-2.4,0.4-3-0.3-4.4c-0.7-1.3-0.7-1.9-0.3-2.6c0.9-1.7,3.9-2.8,8.3-3
		c3.8-0.2,4.1-0.3,4.5-1.4c0.4-1.1,0.3-1.2-1.9-0.9c-1.9,0.2-2.7,0-4-0.8l-1.7-1l-0.9,1.1c-0.8,0.9-1.9,1.3-6.6,2
		c-3.2,0.5-6.5,1.2-7.5,1.4c-0.9,0.3-4.1,0.5-7.1,0.5H388l-2.4,1.9c-1.3,1.1-2.7,1.9-3.2,1.9s-1.2,0.1-1.6,0.3
		c-0.9,0.3-1.8-2-1.8-4.5c0-1.5,0.1-1.7,1.5-1.7c1.1,0,1.5-0.2,1.5-0.9c0-1.6,1.9-4.9,2.9-5.2c0.6-0.2,1.5,0,2.1,0.4
		c1.9,1.4,3.7,1,4.9-1.1c0.7-1,2-2.8,3-3.9c1-1.2,2.4-3.3,3.1-4.6c3.3-6.4,7.4-11.5,11.7-14.5c0.7-0.4,1.9-2.1,2.7-3.6
		c1.8-3.4,7.2-8.2,12.6-11.4c1.9-1.2,4.4-2.8,5.5-3.7c1.1-0.8,3.3-2.1,4.8-2.9c2.8-1.3,10.5-6.6,12.2-8.6c0.8-0.9,1.5-1,7.7-1
		c7.2,0,11.9,0.7,19.8,3.2c2,0.6,5.5,1.6,7.8,2.2c4.5,1.1,7,2.4,11.9,6.4c2.8,2.2,3.3,2.9,3.9,5.2c0.9,3,1.8,3.3,3.7,1.2
		c1.4-1.4,2-2.9,3.1-6.7c0.9-3.3,0.3-5.8-2.1-9.4c-1-1.4-1.7-2.6-2.3-3.8H240L239.4,320z"/>
	<path fill="#FFFFFF" d="M517.3,160h-2.3C516.2,160.3,516.7,160.3,517.3,160z"/>
	<path fill="#FFFFFF" d="M540.7,195.3c-0.9-1.3-1.3-1.4-3.9-1.4c-2.4,0-3.1,0.2-4.3,1.3c-1.1,1-1.7,2.2-2.2,4.3
		c-0.4,1.6-1.2,3.7-1.7,4.7c-1.3,2.5-1.2,3,0.4,2.7c6.9-1.5,6.9-1.4,8.9-0.6c1.1,0.4,3.3,0.8,4.8,0.8c2.8,0,2.9,0.1,5.2,2.3
		c1.3,1.3,2.7,2.8,3.1,3.4c0.8,1.1,8.3,4.1,11.8,4.6l1.8,0.3v-2.4v-2.4l-7.1-6.9c-6.6-6.4-7.3-7-9.6-7.5
		C543.5,197.6,541.7,196.8,540.7,195.3z"/>
	<path fill="#F31830" d="M570.8,477c0.1,0-0.6-1.5-1.6-3.2c-1.1-2-1.8-3.8-1.8-4.9c0-1.2-0.5-2.5-1.5-3.9c-2.8-4.1-3.4-6.1-3.4-12
		c0-5.1,0-5.3-1.2-6.1c-1.2-0.8-1.3-0.7-3.9,1.2c-1.5,1.1-3.1,2-3.5,1.9c-0.5-0.1-1-1.1-1.4-2.8c-0.9-3.8-0.9-4,0.5-3.7
		c0.7,0.1,1.8,0.4,2.4,0.6c0.9,0.2,1.4,0,2.2-1.2c1.4-1.9,1-3.7-1-4.4c-1.1-0.5-1.4-0.9-1.4-2c0-2.1,1.7-1.9,3,0.3
		c1.1,1.9,1.3,1.9,2.6,1c0.8-0.6,0.9-0.8,0.1-2.5c-0.5-1.4-0.6-2.5-0.3-4.3c0.2-1.4,0.4-3.6,0.4-4.9c0-1.4,0.4-3.4,1-4.5
		c1.1-2.5,0.9-4.4-0.7-4.7c-0.5-0.1-2.1-0.3-3.4-0.5c-1.4-0.1-3-0.8-3.9-1.5c-0.9-0.6-4-2.4-7.1-3.9l-5.5-2.7l-2.4-5.3
		c-1.4-2.9-3.3-7.1-4.2-9.4l-1.7-4.1l0.6-6.6c0.3-3.6,0.5-7.7,0.4-9.2l-0.2-2.6l-2.7-0.9c-1.5-0.5-3.7-1.1-4.9-1.4
		c-2-0.4-6.8-3.6-8.1-5.3c-0.3-0.4-1.6-2.6-2.8-4.8c-1.5-2.6-3.6-5.3-6.1-7.9c-3.4-3.4-4.3-4.8-7-10.1c-1.7-3.4-3.9-7.6-4.9-9.3
		c-1.7-3-1.8-3.3-2-9.3c0-0.8-0.1-1.5-0.1-2.1h-256l-12.7,8.5c7.1,0.9,13.8,1.8,20,2.6c36.7,4.8,66.9,8.8,67.2,9
		c0.2,0.2,0.5,2,0.7,3.9c0.1,1.9,0.4,3.9,0.7,4.4c0.2,0.5,3,4.3,6,8.4l5.6,7.5v3.2c0,4.2,1.7,7.9,5.1,11.5c2.6,2.7,2.6,2.7,7.5,16.8
		l4.9,14.1l0.4,11l0.4,11l2.5,4.1c2.1,3.5,2.6,4.8,3.1,8c0.4,3.1,1.1,4.9,3.2,8.9c2.6,4.8,2.8,5.1,8.1,9.3c3,2.4,6.4,4.8,7.5,5.4
		c2.5,1.3,4.4,4.4,5.4,9.1c0.3,1.4,0.6,2.7,0.9,3.3h31C461.5,479.1,570.2,477.2,570.8,477z"/>
	<path fill="#00D941" d="M461.8,46.3c0.8,0,2.3-0.4,3.3-1c1-0.5,2.5-1,3.2-1c1,0,1.8-0.5,2.7-1.5c1.3-1.5,11.4-8.5,13.9-9.6
		c0.7-0.3,2.3-0.6,3.6-0.6s3.4-0.3,4.9-0.8c2.3-0.6,2.7-1,3.4-2.5c0.4-0.9,0.7-1.8,0.7-1.9c0-0.1-1.8-0.2-3.8-0.2
		c-2.2,0-6.2-0.5-9.4-1.2c-7.7-1.7-8.7-1.7-10.9-1c-6,2.1-6,2-6.3,4.2c-0.2,1.3-1.3,3.4-2.8,5.7c-2.3,3.4-3.7,7.2-3.8,10.1
		C460.3,46.1,460.6,46.3,461.8,46.3z"/>
	<path fill="#00D941" d="M240,160h260.9c-1.3-2.4-2.1-4.8-3.5-9.3c-1-3.4-2.6-7.5-3.5-9c-0.8-1.6-2-4.1-2.7-5.7c-0.6-1.7-2-4-3-5.3
		c-3.6-4.3-3.6-4.3-3.2-10c0.3-5,0.2-5.2-0.9-6.5c-1.4-1.5-8.8-6.5-11-7.4c-1.3-0.5-1.7-1.2-3-4.6c-0.8-2.2-1.7-5-1.9-6.2
		c-0.2-1.3-0.9-2.9-1.7-4c-0.8-1-1.9-3.2-2.6-4.9c-0.6-1.7-1.9-4.8-2.9-6.9c-1.7-3.8-1.8-3.9-1.8-10.1c0-4.4,0.2-7.2,0.8-9
		c0.7-2.5,0.7-2.9,0-4.4c-0.8-1.8-1-3.7-0.3-5.3c0.3-0.7,0-1.6-0.8-3.1c-1.4-2.4-1.6-4.3-0.7-8.8c0.3-1.7,0.4-3.3,0.3-3.5
		c-0.1-0.2-2.7-0.8-5.7-1.3c-5.3-0.9-5.6-1-7.7-2.9c-1.9-1.7-7.3-4.3-34.1-16.2l-32-14.2h-44.5c-43.7,0-44.6,0-46,1
		c-0.8,0.5-2.8,1.4-4.5,1.9c-5.2,1.6-11,5.1-15.7,9.5c-2,1.9-3.2,2.4-12.9,5.6c-15.8,5.3-18,6.3-21.6,9.9c-2.3,2.3-3.3,3.9-4.5,6.9
		c-0.9,2.1-3.2,6.6-5.2,10c-3,5.1-3.7,6.8-4.5,10.5c-0.5,2.4-1.8,7.6-2.9,11.5c-1.6,5.8-2.4,7.9-5,12.4c-1.7,3-3.9,7.6-5.1,10.5
		c-1.4,3.5-2.9,6.2-4.5,8.3c-1.9,2.5-2.6,3.8-3.1,6.1c-0.3,1.9-1.6,4.8-3.5,8.2l-3,5.3l-1.3,8.5l48.6,32.4L240,160z"/>
	<path fill="#00D941" d="M467.1,83.2c-2.2-0.8-2.3-0.5-0.6,1.7c1.9,2.6,3.6,6.1,3.6,7.7c0,2.3,0.9,2.3,3.3-0.1
		c2.1-2.1,2.2-2.4,2.3-4.8c0-2.5,0-2.6-1.7-3.1l-1.7-0.5l1.5-0.8c1-0.5,1.7-1.3,1.9-2.2c0.3-1.4,1.3-2,3.5-2c1.5,0,2.7-2.4,2.1-4
		c-0.4-1-1-1.3-4.2-1.8c-8.5-1.4-8.3-1.3-10.2-4.5c-1-1.6-1.9-2.9-2.2-2.9c-0.2,0-0.7-0.1-1.2-0.3c-0.5-0.2-0.8,0.1-1,0.9
		c-0.1,0.6-0.2,2.6-0.1,4.3c0.1,3.1,0.2,3.2,2.2,4.5c1.9,1.3,2,1.5,1.4,2.2c-0.4,0.5-0.8,1.2-0.8,1.6c0,1,2,2.8,3.3,2.8
		c0.5,0,1.4,0.4,1.9,1c0.9,0.9,0.8,1-0.3,1C469.4,83.8,468,83.5,467.1,83.2z"/>
	<path fill="#00D941" d="M517.3,160c0.3-0.1,0.6-0.4,1.1-0.7c5.8-4.2,12.7-10.6,19.1-17.6c5.8-6.4,8.1-9.4,11.2-14.3
		c3.5-5.7,3.9-6.8,6.2-14.8c2.4-8.2,2.5-8.6,1.8-10c-0.4-0.8-1-3.8-1.3-6.5c-0.6-5-0.6-5-1.9-5c-0.9,0-1.4,0.3-1.6,1l-0.2,1l-1.7-1
		c-1.3-0.8-3-3.2-7.6-10.9c-3.2-5.4-7.8-12.9-10.2-16.6c-4.2-6.6-4.4-6.9-12.6-14c-7.2-6.3-8.9-7.6-12.9-9.5
		c-3.2-1.5-5.9-2.4-8.8-2.9c-4.9-0.8-6.2-0.8-9.6,0c-3.1,0.8-4,1.5-4,3.1c0,1.5,1.4,3.6,2.4,3.6c0.4,0,1.7,1.4,2.8,3
		c1.6,2.4,2.3,3.1,3.8,3.5c2,0.5,2,0.5,1.1,5.6l-0.6,3.5l1.9,0.3c1.8,0.3,1.9,0.4,1.1,1.2c-2,2.2,1,3.3,5,1.7
		c2.9-1.1,3.1-1.7,1.7-3.9c-0.8-1.4-0.9-2.8-0.2-6c0.3-1.5,2.6-1.6,2.6,0c0,0.7,0.5,1.2,1.9,1.8c1.1,0.4,1.9,1,1.9,1.2
		c0,0.2,0.3,0.4,0.8,0.4c0.6,0,0.4,0.4-0.7,1.8c-0.9,1-1.7,2.4-1.9,3.2c-0.3,1.6-1.4,2.4-3,2.4s-1.3,1.8,0.6,2.8l1.6,0.9l-2,0.1
		c-2.4,0.2-2.6,0.7-0.8,2.6l1.3,1.4h-1.5c-0.8,0-1.9-0.5-2.6-1c-1-0.9-1.1-1.3-0.8-3.4c0.2-1.4,0.2-2.4,0-2.4
		c-0.9,0-2.2,1.1-2.2,1.9c0,1.4-0.6,1.5-3.8,0.8c-2.8-0.6-2.9-0.6-2.5,0.2c0.2,0.4,1.2,1.5,2.2,2.4c1.3,1.1,2.2,1.5,3.6,1.5
		c1.2,0,2.1,0.3,2.7,1c0.8,0.9,0.8,1.2,0.3,2.9c-0.8,2.7-0.3,3.9,1.4,3.9c1.8,0,2.1,0.6,1.5,2.7c-0.7,2-2.2,2.1-2.1,0.2
		c0-0.9-0.4-1.6-1.6-2.4c-1.2-0.9-1.7-1.6-1.7-2.6c0-1.9-2.2-4.2-3.9-4.2c-1.8,0-2.9-0.4-2.9-1.2c0-0.5-0.5-0.5-2.5,0.2
		c-1.4,0.5-2.6,1.1-2.7,1.3c-0.2,0.7,4.1,3.1,5.5,3.1c1.1,0,1.2,0.2,1.2,2.2c0,2.2,0,2.2-1.4,2c-0.8-0.1-2.2-0.8-3.2-1.5
		c-2.9-1.9-4.8-2.1-7.8-0.6c-2.6,1.2-2.6,1.3-2.6,3.3v2.1l5.7,0.1c5.9,0,8.4,0.6,8.4,1.9c0,1-0.7,0.9-4.5-0.2
		c-3-0.9-7.3-1.3-8.9-0.7c-0.5,0.2-0.8,0.9-0.8,2.6c0,2.1-0.1,2.3-2.2,3.6l-2.2,1.4v4c0,3.8,0,4,1.4,4.8c0.7,0.4,2.8,1,4.6,1.4
		c2.6,0.5,3.5,0.9,4.5,2c0.7,0.8,1.2,1.8,1.2,2.1c0,0.4,0.6,1.4,1.4,2.3c1.1,1.3,1.4,2.2,1.7,5c0.1,2.3,0.5,3.8,1.3,4.7
		c0.6,0.7,1,1.9,1,2.5c0,0.7,1.1,2.3,2.6,4c2.4,2.7,2.7,3.3,3.9,8.1c0.7,2.9,1.3,5.7,1.3,6.2s0.5,1.6,1.2,2.4
		c0.7,0.8,1.4,2.5,1.7,3.8c0.5,2.3,2.8,8.3,3.9,10.2c1,1.6,3.1,2.6,5.3,2.6c1.1,0,3,0.2,4.2,0.6c0.2,0,0.3,0.1,0.4,0.1H517.3z"/>
	<path d="M240,160l0-0.2l-48.6-32.4l-0.1,0.4c-1.2,7.5-1.7,9.2-2.8,11c-0.7,1.2-2,3.6-2.9,5.4c-0.8,1.8-2.9,5.1-4.7,7.6
		c-1.8,2.4-3.4,5.2-3.7,6.1c-0.3,0.9-1.3,3-2.1,4.6c-0.9,1.6-2.2,4.4-3,6.3c-0.8,1.9-2.4,4.6-3.7,6.1c-1.9,2.3-2.3,3.2-2.6,5.5
		c-0.2,1.9-1.4,5.2-3.8,10.4c-5.2,11.3-5.7,12.2-9.4,16.2c-1.9,2-5.9,7-8.9,11c-3,4.1-6.5,8.2-7.6,9.2c-1.8,1.4-2.3,2.4-3.5,5.6
		c-1.6,4.6-4.1,8.4-12.8,18.9c-3.6,4.4-8.2,10.7-10.5,14.4c-3.8,6.3-4.4,7-12.5,14.6c-4.6,4.4-9.7,9-11.3,10.2
		c-7.1,5.6-8.7,7.3-11.3,12c-1.4,2.5-2.4,4.7-2.3,4.8c0.4,0.3,91.8,12.6,154.5,20.8l12.7-8.5L240,160z"/>
</g>
</svg>
