<?xml version="1.0" encoding="utf-8"?>
<!-- Generator: Adobe Illustrator 17.1.0, SVG Export Plug-In . SVG Version: 6.00 Build 0)  -->
<!DOCTYPE svg PUBLIC "-//W3C//DTD SVG 1.1//EN" "http://www.w3.org/Graphics/SVG/1.1/DTD/svg11.dtd">
<svg version="1.1" id="flag-icon-css-ky" xmlns="http://www.w3.org/2000/svg" xmlns:xlink="http://www.w3.org/1999/xlink" x="0px"
	 y="0px" viewBox="0 0 640 480" enable-background="new 0 0 640 480" xml:space="preserve">
<g>
	<path fill="none" d="M75.2,123.9c-0.7-1.1-1.9-1.9-2.7-1.9c-1.3,0-2.8,1.1-2.8,1.9c0,0.4,5.3,1.8,6.6,1.8
		C76.5,125.8,76,124.9,75.2,123.9z"/>
	<path fill="none" d="M640,229.1v18.1c0.1-1,0.2-1.9,0.3-2.9C640.5,241.4,640.4,235.1,640,229.1z"/>
	<path fill="#000066" d="M431.2,231c0,0-1-2.8-1-6s6.5-8,6.5-8s-4.5-6.1-5.5-9.8c-0.6-2.1,0.4-4.3,1.3-6.1c-4.5-1.2-10-2.9-17.6-5.5
		l-11.1-3.7l-3.8,0.2v7.9h-34.4c-1.6,0.3-3.2,0.3-5.1,0h-7.7l23.8,15.3v8.9v18.1h-42.1l-26.7-17.2c0.2,3.8,0.1,8.1-0.6,8.9
		c-1.2,1.5-0.4,4.1,1.4,4.1c1.6,0,2.5,1.8,1.8,3.5c-0.7,2.1-4.3,0.2-5.6-2.9c-0.6-1.4-1.1-2.5-1.3-2.5c-1.4,0-3.8,2.1-4.1,3.7
		c-0.6,2.8-4.6,6.6-8.9,8.2c-2.9,1.2-5.1,1.5-9.7,1.6c-3.2,0.1-6.4,0.1-7,0.2c-0.6,0.1-2.2,1.1-3.6,2.2c-2.7,2.5-3.1,2.6-5.8,1.2
		c-1.4-0.7-2.1-0.8-2.6-0.3c-0.4,0.4-2.4,0.7-4.6,0.7c-3.6,0-4-0.1-5.2-1.8c-0.7-1-1.3-2.1-1.3-2.4c0-1.1-1.6-1.9-5.2-2.5
		c-3.8-0.6-4.4-0.4-5,2.2c-0.2,0.9,0.1,1.6,0.9,2c1.1,0.6,1.7,3.7,0.7,3.7c-0.2,0-1,2.8-1.6,6.2c-0.8,4.7-1.5,6.7-2.7,8.1
		c-1.2,1.5-1.4,2.2-1.1,3.8c0.5,2.2-0.2,3.1-2.6,3.1c-1.2,0-1.4,0.4-1.4,1.9c0,3.7,3.2,7.7,4.9,6.1c0.4-0.4,0.7-1.1,0.7-1.6
		c0-0.4,0.6-2.2,1.3-3.9c1.2-2.9,1.4-3.1,3.7-3.1c1.6,0,2.9,0.4,3.7,1.2c1.6,1.6,1.6,2,0,3c-0.9,0.6-1.2,1.4-1.2,3.1
		c0,1.8-0.6,3.1-2.2,5.2c-2.4,3.2-3.8,3.7-7.2,3.2c-1.9-0.3-2.6-0.1-4.7,1.6c-1.3,1.1-3.5,2.2-4.8,2.6c-2.2,0.6-2.4,0.6-4.9-1.8
		c-3.2-3.2-5.2-3-7.5,0.5c-1.8,2.7-12.7,10.7-17.2,12.6c-1.8,0.7-3.4,2-4.1,3.1c-1.2,2.1-3.2,2.4-5.4,0.7c-2.3-1.7-5.6-2.9-8.4-3
		c-1.4,0-5.7-0.1-9.6-0.1l-7.1-0.1l-1.2-2.2c-0.7-1.2-1.7-2.2-2.2-2.2c-0.4,0-1.7,1.7-2.9,3.7c-1.7,3-2.5,3.9-4.4,4.5l-2.4,0.7v5.9
		c0,3.4-0.2,5.8-0.6,5.8c-0.4,0-0.6-2.3-0.6-5.6c0-6.4-0.4-6.8-4.6-4.1l-2.3,1.6v-1.7c0-3.2-2.6-7.9-6.1-10.8
		c-1.8-1.6-5.1-4.4-7.2-6.4c-2.1-1.9-4.5-3.6-5.2-3.6c-4.2,0-7.1-3-4.6-4.8c1-0.6,1.2-1.3,0.9-2.2c-0.8-2.5-6.1-10.6-7.8-11.7
		c-2.1-1.4-3.7-1.6-3.7-0.2c0,0.6,0.4,0.9,0.9,0.7s1.1,0.3,1.6,1.2c1.1,2.4,0.8,3.1-0.6,1.6c-0.7-0.7-1.9-1.4-2.7-1.4
		s-1.9-0.6-2.6-1.2c-0.6-0.7-1.7-1.3-2.4-1.3c-1.2-0.1-1.2-0.1-0.1-0.4c0.6-0.2,1.8,0.1,2.6,0.5s1.6,0.6,1.8,0.4
		c0.5-0.5-2.2-3.6-3.2-3.6c-1.6,0-1-3,0.7-3.9c2.9-1.6,4.1-8.3,1.8-11.1c-0.4-0.5-0.9-1.4-1.1-2.1c-0.5-1.3-2.2-1.4-3.2-0.1
		c-0.5,0.7-1.2,0.8-2.4,0.6c-1.6-0.4-1.7-0.7-1.7-3.4c0-2.6,0.3-3.2,2.4-5.3c2.4-2.4,2.5-2.5,1.6-4.2c-1.2-2.2-0.9-3.9,0.6-3.9
		c0.9,0,1.4-0.8,2.1-2.9c1.2-4.2,2.1-4.3,1.6-0.2c-0.3,3-0.2,3.4,0.6,3.1c0.6-0.2,1.3-1.4,1.7-2.6c0.4-1.2,1.2-3.1,1.9-4.2
		c0.7-1.3,0.9-2.2,0.6-2.4c-0.4-0.2-0.3-0.9,0.3-1.9c1.6-2.5,0.7-3.4-3.2-3.4c-2,0-3.4-0.2-3.4-0.7c0-0.4,0.5-0.5,1.2-0.2
		c0.8,0.2,1.5-0.1,2.1-0.9c0.7-1.1,1-1.2,1.7-0.3c0.4,0.5,1.2,0.9,1.9,0.9c0.9,0,1.1-0.7,1.4-3.9c0.2-2.2,0-4.3-0.4-4.9
		c-0.5-0.8-0.4-1.3,0.1-1.9c1.1-1.1,0.9-3.9-0.2-4.9c-0.7-0.6-2.3-2.7-4.1-5.5l-35.8,23.1c-0.1,1.3-0.1,2.6-0.3,4
		c-0.3,4.4-0.7,8.1-0.9,8.3c-0.9,1.6-3.1,15.1-3.5,22.3c-0.3,4.8-0.9,10.4-1.4,12.4c-0.9,4-0.3,13,0.9,13.4c1,0.4,3.2,2.9,4,4.6
		c0.4,0.7,1,3.9,1.4,6.9c0.4,3.1,0.9,6.4,1.1,7.4c0.2,1.4,0.1,1.8-0.6,1.8c-0.6,0-1.3,0.6-1.7,1.2c-0.8,1.6-0.8,3.8,0,3.8
		c1.4,0,0.4,1.3-2.9,3.9c-3.9,3.1-8.7,10.2-12.5,18.5l-2.3,5.2l0.8,4.2c0.4,2.3,1.2,5.1,1.6,6.1c0.6,1.4,0.7,3.6,0.5,7.2l-0.4,5.2
		l2.2,2.3c1.6,1.7,2.7,2.4,4.1,2.4c1.1,0,2.7,0.6,3.6,1.2c0.9,0.7,2.4,1.2,3.3,1.2s2.2,0.6,3.1,1.6c1.9,2.1,4.4,2,7.7-0.2
		c3.9-2.7,12.7-7.3,17.6-9.4c2.4-0.9,6.4-3.1,8.9-4.7c2.7-1.7,6.6-3.5,10-4.6c3-0.9,8.5-3.2,12.2-5.1l6.7-3.4l7.5-0.1
		c8.7-0.1,9.2,0.2,9.9,4.9c0.3,2.4,2.4,7.1,4.3,9.6c0.1,0.1,1.6-0.4,3.3-1.1c4.3-1.8,8.7-1.7,11.7,0.2c2.7,1.8,4.9,1.9,9.4,0.5
		c2.6-0.8,3.7-0.9,5.4-0.4c1.1,0.4,6.4,0.7,11.7,0.7c9.1,0.1,10.1,0.2,15.2,1.9c5,1.7,5.9,2.2,10.4,6.5c2.7,2.5,5.4,4.8,6.1,5
		c0.9,0.3,2.2-0.1,3.8-1.2c2-1.2,3.4-1.6,6.2-1.6c3.4,0,3.7,0.1,5.3,2.2c0.9,1.2,3.4,3.1,5.6,4.2c3.5,1.8,4.4,2,8.9,1.9
		c2.7-0.1,7-0.6,9.4-1.1c3.5-0.8,4.9-0.9,6.7-0.3c1.9,0.6,2.5,0.6,3.4-0.2c0.7-0.7,3.1-1.1,7.3-1.4c5.4-0.4,7-0.8,12.5-3.2
		c3.4-1.6,7.4-3.7,8.8-4.7c1.4-1,9.4-8.8,17.8-17.3c14.1-14.2,15.7-15.6,20.3-17.9c2.7-1.4,6.4-3,8-3.6c1.6-0.6,3.3-1.6,3.7-2.2
		c0.4-0.6,2.6-2.4,4.7-3.9c3.5-2.6,4.3-2.9,7.2-2.9c1.7,0,3.8-0.4,4.5-0.9c0.7-0.5,5.5-2.3,10.7-4.1l9.6-3.2h6.1
		c0.2-27.3,1.3-75.3,1.3-75.3L431.2,231z"/>
	<path fill="#000066" d="M243.3,245.4c2.1-0.1,3.7,0.2,3.7,0.4c0,1.1,3.5,0.4,5.2-0.9c1.4-1.1,1.8-2,2.1-5.1c0.2-2.4,1-4.9,2.2-6.9
		c1.6-2.7,1.6-3.2,0.8-3.6c-0.6-0.2-1.6,0.2-2.4,1.2c-0.8,0.9-1.7,1.6-2,1.6c-0.2,0-1.1,0.6-1.9,1.4c-1.4,1.4-1.5,1.4-3.6,0.2
		c-1.6-0.8-2.7-1-5-0.7c-1.6,0.2-3.1,0.7-3.2,1.1c-0.2,0.3,0.4,1.5,1.2,2.7l1.7,2.2l-1.3,2.4C238.9,245.1,239.1,245.4,243.3,245.4z"
		/>
	<path fill="#000066" d="M638.4,214.8c-1-3.3-6.2-10.9-8.1-11.6c-0.7-0.2-2.2-1.6-3.2-2.9c-1-1.2-3.4-3.9-5.4-5.9
		c-4.3-4.3-4.2-4.3-19.2-3.7c-8.1,0.4-12.7,0.2-17.8-0.4c-3.7-0.5-11.2-1.2-16.6-1.5c-5.3-0.3-11.6-0.7-13.9-0.9
		c-3.3-0.3-4.6-0.1-5.8,0.7c-3.9,2.5-6.2,2.9-21.1,2.9c0.3,0.2,0.6,0.4,0.9,0.6c3,1.8,10.1,1.1,10.5,6.1c0.6,4.8-10.5,7.9-13,9.1
		c-2.6,1.2,6.1,4.9,8.1,10.4s0,13.9,0,15.2s24.7-0.6,25.2-0.6c0.4,0-0.4,51.2-0.3,79.5c2.7,0.2,7.5,0.3,11.6,0.2
		c8.3-0.1,8.9-0.2,15.9-2.6c4-1.4,10.7-4.1,14.8-6.1c4.1-2.1,8.6-4,9.8-4.4c1.7-0.5,3.2-1.9,5.9-5.2c2-2.5,5.9-6.9,8.7-9.8
		c4.4-4.6,5.1-5.7,5.5-8.1c0.2-1.5,1.2-4.1,2.2-5.6c3.1-5,5.9-14.5,7-22.8v-18.1C639.6,222.8,639,216.7,638.4,214.8z"/>
	<path fill="#000066" d="M360.5,200c-2.2-0.3-4.9-1.1-8.6-2.4c-2.1-0.7-5.5-2.2-9-4l9.8,6.3H360.5z"/>
	<path fill="#000066" d="M39.9,161.5c1.1,0.6,2.2,1.1,3,1.4c4.3,1.5,10.7,6.9,15.2,12.8c0.3,0.4,0.7,1,1.1,1.6l24.5-15.8H39.9z"/>
	<path fill="#000066" d="M314.4,175.3c-2.5-2.1-5.1-4.4-7.5-6.6c-2.3-2.1-5.4-4.8-8.2-7.2h-5.8L314.4,175.3z"/>
	<path fill="#000066" d="M400,192.1l-5.4,0.3c-6.1,0.2-9.6,0.7-10.6,1.2c-0.7,0.5-3.4,1.6-5.9,2.4c-2.5,0.9-6.6,2.2-9.1,3.1
		c-1.2,0.4-2.3,0.7-3.4,0.9H400V192.1z"/>
	<path fill="#FFFFFF" d="M376.5,224.2v-8.9L352.7,200l-9.8-6.3c-5-2.5-10.2-5.4-12.5-7.2c-1.1-0.7-2.4-1.4-2.9-1.4
		c-0.9,0-6.8-4.5-13.1-9.8l-21.5-13.8h-8.5c0,1.3,0,2.4-0.2,3.4L376.5,224.2z"/>
	<path fill="#FFFFFF" d="M103.6,193.7l-31.8,20.5c0.2,2.7,0.3,5.7,0.1,9l35.8-23.1C106.4,198.2,104.9,195.9,103.6,193.7z"/>
	<path fill="#FFFFFF" d="M376.5,242.3l-85.3-54.9c0.1,1.3,0.2,2.7,0.2,4.3v5.4l-2.6,2.9c-3.9,4.4-6.2,7.7-5.6,8
		c0.4,0.1,2.2-0.1,4.1-0.5c3.3-0.7,4.8-1.7,5.6-3.9c0.6-1.6,1.6-1.3,2,0.6c1.2,5.7,2.6,8.6,3.9,8.8c1.2,0.2,1.4-0.1,1.4-1.9
		c0-1.3,0.4-2.6,1.2-3.2c0.7-0.6,1.2-1.7,1.2-2.5c0-1.5,1.6-2.6,2.2-1.6c0.2,0.4,1.2,0.6,2.1,0.6c1,0,2.3,0.6,3.2,1.6l1.4,1.6
		l-1.6,2.9c-0.9,1.7-2.1,2.9-2.6,2.9c-1.4-0.1-1.9,3.9-0.7,5.6c0.5,0.8,0.9,3.3,1,6l26.7,17.2H376.5z"/>
	<path fill="#FFFFFF" d="M266.4,182.8c-6.4-0.1-7.9,0.1-7.6,0.7c0.3,0.9,5.7,2.7,8.1,2.7c0.8,0,1.4,0.2,1.4,0.4
		c0,0.3,0.2,0.9,0.6,1.4c0.5,0.7,0.9,0.6,2.6-0.7c2.4-2,4.1-2.2,4.6-0.4c0.6,2.1,1.6,1.4,2.4-1.4c0.4-1.4,0.9-3.1,1.2-3.6
		c0.1-0.2,0.4-0.8,0.8-1.6l-2.7-1.7C275.9,182.7,275.2,182.9,266.4,182.8z"/>
	<path fill="#FFFFFF" d="M281.8,163.3c0.1-0.6,0.3-1.2,0.5-1.8H279L281.8,163.3z"/>
	<path fill="#FFFFFF" d="M89.9,169.5c-0.1-0.2-0.8,0.3-1.6,1c-2,1.8-3.8,2.7-5.9,2.7c-0.9,0.1-3.1,0.4-4.9,0.9
		c-2.6,0.7-3.1,1.1-3,2.2c0.1,0.9-0.2,1.4-1.4,1.7c-2.1,0.6-2.5,0-1.2-1.9c1.3-2,3-2.7,8.2-3.2c4-0.4,4.2-0.5,6-3.1
		c2.1-3.1,2.2-4.4,0.6-6.2c-0.4-0.4-0.9-1.1-1.5-2h-1.4l-24.5,15.8c2.4,3.9,4.9,10.9,7,19.2c0.2,0.8,0.5,1.7,0.9,2.7l29.4-18.9
		C94.6,176.6,91.6,171.6,89.9,169.5z"/>
	<path fill="#FFFFFF" d="M298.7,161.5c-2-1.7-3.9-3.3-5.4-4.4c-3.6-2.9-6.9-5.6-7.2-6c-0.6-0.7-5.1,5.9-7.6,10.4h0.4h3.3
		c0.3-0.8,0.6-1.6,0.8-2.1l1.1-2.1l0.2,3.9c0,0.1,0,0.2,0,0.3h8.5H298.7z"/>
	<path fill="#FFFFFF" d="M85.1,161.5c-3-4.4-8.2-13.8-8.9-16.1c0,0,0,0,0,0H1.9c-1.4,4.6-1,6.2,1.2,7.7c4.4,3.1,6.2,3.4,14.7,2.9
		c7.2-0.4,8.5-0.3,12.6,0.9c2.6,0.7,5.8,2.2,7.2,3.2c0.6,0.4,1.4,0.9,2.2,1.3h43.8H85.1z"/>
	<path fill="#CC0000" d="M376.5,242.3v-18.1l-92.2-59.3c-0.2,1.1-0.5,2.1-1,3.3c-0.7,1.7-1.6,3.1-1.9,3.1s-1.7-0.6-3.1-1.3
		c-3.7-1.9-4.4-0.6-0.9,1.6c1.9,1.1,2.9,2.1,2.9,2.9c0,0.7-0.2,1.2-0.6,1.2c-0.3,0-1.1,1.2-1.7,2.6c-0.1,0.1-0.1,0.2-0.1,0.3
		l2.7,1.7c0.5-1,1.1-2.3,1.7-3.6c1.4-2.9,2.3-4.1,2.9-3.9c0.5,0.2,1.2,0.3,1.5,0.3s1.1,1.2,1.8,2.8c1.3,3.1,2.6,3.6,3.6,1.3
		c0.4-0.9,1.4-1.6,2.5-1.8c1.6-0.3,2.2,0,4.7,2.5c3.2,3.1,3.5,4.6,1.6,6.5c-1.4,1.4-2.7,1.3-2.9-0.4c-0.4-2.6-7.1-5.4-8-3.2
		c-0.1,0.4,0.1,1.9,0.7,3.1c0.3,0.8,0.5,1.9,0.7,3.4L376.5,242.3z"/>
	<path fill="#CC0000" d="M278.6,161.5c-0.9,1.7-1.5,3.1-1.5,3.7c0,1.9,0.9,3.4,1.5,2.6c0.2-0.4,0.9-0.5,1.6-0.3
		c0.9,0.2,1.2-0.2,1.5-2.9c0-0.4,0.1-0.8,0.2-1.2l-2.8-1.8H278.6z"/>
	<path fill="#CC0000" d="M103.6,193.7c-2.7-4.4-5.1-8.7-5.7-10.4c-0.2-0.8-0.8-1.9-1.4-3.2l-29.4,18.9c0.6,1.5,1.3,2.9,1.9,4
		c1.4,2.4,2.4,6.2,2.8,11.1L103.6,193.7z"/>
	<path fill="#CC0000" d="M76.7,136.8c0.4-0.9,0.2-1.1-1.4-1.1c-1,0-1.9-0.3-1.9-0.7c0-0.4,0.4-0.6,0.9-0.3c1.3,0.4,2.8-0.2,2.8-1.2
		c0-0.5-1.1-1.1-2.6-1.3l-2.7-0.5l2.5-0.3c1.7-0.2,2.6-0.6,2.7-1.4c0.2-0.9-0.2-1.1-2-1.1c-1.2,0-2.2-0.2-2.2-0.6
		c0-0.3,1.2-0.4,2.8-0.2c2.8,0.3,3.4-0.2,2.1-1.7c-0.5-0.4,0.2-0.3,1.5,0.3c3,1.4,3.6,2.7,1.2,2.7c-1.4,0-1.9,0.3-2.1,1.6
		c-0.3,1.6-0.2,1.6,2.3,1.3c9.7-1.4,10.2-1.3,19.7,1.4c4.9,1.4,9.7,2.5,10.6,2.4c2.5-0.3,2.4-2.6-0.4-7.2c-4-6.5-5.7-7.9-14.6-12.4
		c-4.6-2.2-10.3-5.5-12.9-7.2c-2.5-1.7-6.1-3.5-7.9-4c-4.4-1.2-15.7-1.1-18.5,0.1c-1.2,0.5-3.4,1.2-5,1.6c-1.6,0.3-4.6,1.7-6.9,3.1
		c-2.2,1.4-5.8,3-7.9,3.6c-2.1,0.7-4.6,1.7-5.6,2.4c-0.9,0.7-2.7,1.5-3.9,1.7c-1.2,0.2-3.6,1.6-5.2,2.9c-1.7,1.4-3.8,2.6-4.7,2.8
		c-6.2,1.5-8.7,4.4-12.9,14.8c-1.2,2.9-2,5.1-2.6,7h74.3C75.4,142.8,75.7,138.9,76.7,136.8z M69.7,124c0-0.9,1.5-1.9,2.8-1.9
		c0.7,0,1.9,0.8,2.7,1.9c0.8,1,1.2,1.9,1.1,1.9C75,125.8,69.7,124.3,69.7,124z"/>
	<path fill="#FFFFFF" d="M558.9,232.2c-0.5,0-25.2,1.9-25.2,0.6s2-9.7,0-15.2s-10.7-9.2-8.1-10.4c2.5-1.2,13.6-4.3,13-9.1
		c-0.4-5-7.5-4.3-10.5-6.1c-0.2-0.2-0.5-0.4-0.9-0.6c-0.2,0-0.5,0-0.7,0c-1.8,0-3.4,0-4.8,0c0.9,0.9,1.5,1.6,1.5,1.9
		c0,0.1-0.2,0.4-0.4,0.6c2.7,1.6,6.6,3.4,6.6,3.4s-0.2,0.2-0.6,0.7c0.1,0,0.1,0,0.2,0c2.9,0.2,6.8-1.3,6.8-1.3s-4.6,5.2-7.5,7.1
		c-1.5,1-3.2,0.5-4.6-0.3c-0.6,0.7-1.3,1.3-2,2c2.5,3.2,7,9.1,8.5,11.9c1.9,3.5,1,7.8,0.8,8.7c0.1,1.3,0.2,2.6,0.2,4
		c-0.1,2.7-1.2,4.5-2.6,5.7h27v0v0h0.1v57.1l-0.1,0v18.5c0.7,0,1.3,0.1,1.9,0.1c0.3,0,0.7,0.1,1.1,0.1
		C558.5,283.4,559.3,232.2,558.9,232.2z"/>
	<path fill="#FFFFFF" d="M403.4,235.9L403.4,235.9l117.5-0.1c-1.9-1.7-4.2-4.1-4.9-5.7c-0.6-1.5-0.6-5.3-0.4-8.5
		c-0.2-0.6-0.5-1.3-1-1.8c-0.7-0.7-2.5-6.2-3.1-7.9c-4.6,1.3-9.3,2.2-14,2.7l1.9,7c2.3,8.4,5.2,9.9,5.2,9.9s-3.4-0.2-6.3,0
		c-2.8,0.2-9.4-1.5-12.3-3.6c-1.9-1.5-5.3-8.7-7.5-13.4c-2.5-0.3-4.8-0.8-7-1.4c-1.9,0.9-4.4,2-7.2,2.9c0.5,1.6,1,3.1,1.6,4.6
		c1.2,3.4,3.3,6.3,6.2,8.5c0.4,0.2-3.1,2.8-11.9,3.2c-7.3,0.3-12.5-10.3-14.1-14.4c-7.5-2.1-10.1-8.6-10.1-11c0-1.5,0.9-3.3,1.8-4.8
		c-1.7-0.3-3.4-0.7-5.3-1.2c-0.9,1.9-1.9,4.1-1.3,6.1c1,3.7,5.5,9.8,5.5,9.8s-6.5,4.8-6.5,8s1,6,1,6l-29.3,1.2c0,0-1.1,48-1.3,75.3
		h2.4c0.1,0,0.2,0,0.3,0v-71.6H403.4z"/>
	<path fill="#00389B" d="M516,222.4c-0.1,0-0.2-0.4-0.4-0.8c-0.2,3.3-0.2,7.1,0.4,8.5c0.7,1.6,3.1,4,4.9,5.7h7.6
		c1.4-1.2,2.6-3,2.6-5.7c0-1.4,0-2.7-0.2-4c0,0.1,0,0.2,0,0.2S516.2,222.4,516,222.4z"/>
	<path fill="#00389B" d="M446.1,218.1c1.7,4.1,6.8,14.7,14.1,14.4c8.8-0.4,12.3-3,11.9-3.2c-2.9-2.2-5-5.1-6.2-8.5
		c-0.6-1.5-1.2-3.1-1.6-4.6c-4.3,1.5-9.3,2.7-13.8,2.6C448.8,218.7,447.4,218.5,446.1,218.1z"/>
	<path fill="#00389B" d="M478.5,214.6c2.1,4.7,5.6,11.9,7.5,13.4c2.9,2.1,9.5,3.8,12.3,3.6c2.9-0.2,6.3,0,6.3,0s-2.9-1.5-5.2-9.9
		l-1.9-7c-4,0.5-8.1,0.7-12.1,0.6C483,215.1,480.7,214.9,478.5,214.6z"/>
	<path fill="#005120" d="M446.1,218.1c1.3,0.4,2.7,0.6,4.4,0.6c4.5,0.1,9.5-1.1,13.8-2.6c2.8-1,5.4-2,7.2-2.9
		c-3.2-0.9-6.3-2.1-9.3-4c-3.3-2-6.7-4-9.4-5.8c-0.1,0-0.2,0-0.3,0c-5.7,0-9.8-0.2-14.7-1.1c-0.9,1.5-1.8,3.2-1.8,4.8
		C436,209.5,438.6,216,446.1,218.1z"/>
	<path fill="#005120" d="M511.5,211.9c0.5,1.7,2.3,7.2,3.1,7.9c0.5,0.5,0.8,1.2,1,1.8c0.2,0.5,0.3,0.8,0.4,0.8c0.2,0,15,3.9,15,3.9
		s0-0.1,0-0.2c0.2-0.9,1.1-5.2-0.8-8.7c-1.5-2.8-6-8.7-8.5-11.9c-2.5,2.4-5.2,4.7-7,5.4C513.6,211.3,512.6,211.6,511.5,211.9z"/>
	<path fill="#005120" d="M528.3,203.8c2.9-1.9,7.5-7.1,7.5-7.1s-3.9,1.5-6.8,1.3c-0.1,0-0.1,0-0.2,0c-0.9,1.1-2.8,3.2-5.1,5.5
		C525,204.3,526.8,204.9,528.3,203.8z"/>
	<path fill="#005120" d="M471.5,213.2c2.2,0.6,4.6,1,7,1.4c2.2,0.3,4.5,0.5,6.9,0.7c4,0.1,8.1-0.1,12.1-0.6c4.7-0.5,9.4-1.5,14-2.7
		c1.1-0.3,2.1-0.6,3.2-0.9c1.9-0.8,4.5-3,7-5.4c0.7-0.6,1.3-1.3,2-2c2.2-2.3,4.2-4.5,5.1-5.5c0.4-0.4,0.6-0.7,0.6-0.7
		s-3.9-1.8-6.6-3.4c-1.2,1.3-4.6,3.6-5.5,3.4c-0.9-0.3-2.2-2.9-5-5.6c-1.4,0.1-2.3,0.3-2.9,0.5c4.7,3.2,6.7,5.5,6.8,6.6
		c0.1,1.2-8.6,4.9-10,4.3c-0.8-0.3-3.3-4.9-5.4-9.3c-0.7,0.2-1.5,0.4-2.3,0.6c2.3,3.8,4.7,9,4.3,10c-0.6,1.6-15.4,4-16.5,3.3
		c-0.7-0.4-0.4-4.8,0.2-8.9c-0.8,0.2-1.6,0.5-2.4,0.7c-0.3,3.8-0.8,7.4-1.3,7.8c-1,1-9.7-1.7-10.4-2.6c-0.2-0.2-0.3-1.3-0.4-2.7
		c-0.8,0.1-1.6,0.2-2.5,0.3c-0.1,0.2-0.2,0.4-0.3,0.4c-0.2,0-0.5-0.1-0.8-0.3c-4.9,0.6-10.1,0.9-15.3,1c2.7,1.8,6.1,3.7,9.4,5.8
		C465.2,211.1,468.3,212.3,471.5,213.2z"/>
	<path fill="#001707" d="M517.2,197.3c1,0.3,4.4-2.1,5.5-3.4c0.2-0.2,0.4-0.5,0.4-0.6c0.1-0.3-0.5-1-1.5-1.9c-4.4,0-7.5,0.1-9.5,0.3
		C515,194.4,516.3,197,517.2,197.3z"/>
	<path fill="#001707" d="M486.2,207.7c1.2,0.7,16-1.8,16.5-3.3c0.3-1-2-6.1-4.3-10c-1.4,0.4-2.8,0.9-3.9,1.4c-2.5,1.1-5.2,2.1-8.2,3
		C485.8,202.9,485.5,207.3,486.2,207.7z"/>
	<path fill="#001707" d="M469.3,202.3c-0.4,0-0.8,0.1-1.1,0.1c0.3,0.2,0.6,0.3,0.8,0.3C469.1,202.7,469.2,202.6,469.3,202.3z"/>
	<path fill="#001707" d="M482.6,207.3c0.4-0.5,0.9-4,1.3-7.8c-3.8,1-7.8,1.9-12.1,2.5c0.1,1.5,0.3,2.5,0.4,2.7
		C472.9,205.5,481.7,208.3,482.6,207.3z"/>
	<path fill="#001707" d="M506,203.1c1.5,0.6,10.2-3.1,10-4.3c-0.1-1.2-2.1-3.4-6.8-6.6c-0.1,0-0.2,0-0.2,0.1c-1.4,0.4-4.2,1-6.4,1.2
		c-0.6,0.1-1.2,0.2-1.9,0.3C502.8,198.2,505.3,202.8,506,203.1z"/>
	
		<line fill="none" stroke="#FFFFFF" stroke-width="0" stroke-linecap="round" stroke-linejoin="round" x1="555.6" y1="235.8" x2="555.6" y2="235.8"/>
	<path fill="#FFFFFF" d="M544.8,292.2c-10.9,0.7-10.9,13.4-21.2,14.2c-11.5-0.7-11.5-13.4-22.3-13.4c-5.5,0-8.3,3.3-11,6.5
		c0.6,0.5,1.4,1.1,2.2,1.8c13.1,10.7,14,11.1,18.3,8.8c2-1.1,2.9-1.2,4.2-0.7c0.4,0.1,1.3,0.3,2.4,0.4l0.5-1.2l0.5,1.3
		c1.3,0.1,2.8,0.2,4.3,0.3c5.3,0.2,6.4,0.4,8.6,1.9c2.4,1.6,2.8,1.7,6.2,1.1c1.2-0.2,2.4-0.4,3.5-0.6c1.1-0.4,2.4-0.6,3.9-0.6h1
		c3.9-0.4,7.3-0.6,9.8-0.6v-18.5L544.8,292.2z"/>
	<path fill="#FFFFFF" d="M457.8,292.9c-10.9,0-10.9,12.7-21.7,12.7c-10.9,0-11.8-12-21.8-12.7c-10-0.7-10.7,0.5-10.7,0.5l-0.1-57.5
		h-0.1v71.6c8,0,8.3,0.1,10.5,1.7c3,2.3,7.2,2.7,13.2,1.4c2.6-0.6,5.9-1.7,7.3-2.4c1.4-0.7,3.1-1.4,3.8-1.4c0.6,0,2.6-1,4.5-2.2
		c1.9-1.2,3.9-2.2,4.4-2.2c0.6,0,1.6-0.4,2.2-0.9s3.1-1.6,5.2-2.6c3.5-1.4,4.9-1.7,12.2-2C464.5,294.8,461.9,292.9,457.8,292.9z"/>
	<path fill="#D40F0F" d="M501.3,292.9c10.9,0,10.9,12.7,22.3,13.4c10.3-0.7,10.3-13.4,21.2-14.2l10.8,0.7l0.1,0v-57.1h-0.1h-27h-7.6
		H403.4l0,0.1l0.1,57.5c0,0,0.7-1.2,10.7-0.5c10,0.7,10.9,12.7,21.8,12.7c10.9,0,10.9-12.7,21.7-12.7c4.1,0,6.7,1.9,8.9,4.1
		c0.4,0,0.8,0,1.2,0c5.2-0.1,9.7-0.5,10.1-0.8c0.4-0.3,2.5-0.4,4.7-0.2c3.2,0.4,4,0.6,7.7,3.4C493,296.2,495.8,292.9,501.3,292.9z
		 M434,249c-0.3,0.2-3.7-0.6-4-1.2l0.5-3.5C430.5,244.3,434.4,248.9,434,249z M493.1,283c0,0-2.7,0-3.9,0.4c-1.2,0.4-2.7,2.9-3.2,3
		c-0.2,0.1-0.5,0-0.9-0.1c-1.2,0.8-2.4,1.6-3.6,2.2c-0.6,0.1,1-3.1,1.7-4l0.7-1.8l-3.7,0.2l-5.1,0.8c0,0,2.7-1.8,3.8-2.5l-0.5-1
		l5.3-0.3l-2.6-1.3l-0.1,0.3l-3.5-1.5l4.3-1l-0.2,0.5c0.2-0.4,0.5-0.7,0.9-0.7c1.1-0.1,4.5,2.1,4.5,2.1s11.7-0.3,11.7-1.3
		c-0.1-0.8-4.1-3.8-5.8-5.2c-6.5,1.3-18,5-24,4.8c-1,0-2.1,0-3.2,0c0.5,2.2,1.2,6.3,0.3,6.6c-1.2,0.5-4.4,2.7-5,2.7s0-3.8-1.2-2.6
		c-1.2,1.2-1.8,2.6-1.8,2.6s-1.4-1.6-2-1.6s-1.8,1.6-1.8,1.6s0-1.6-0.6-1.6c-0.6,0-3.8,2.6-3.8,2.6l-3-2.1c0,0-2,2.6-2.6,2.6
		c-0.6,0-4.4-2.1-4.4-2.1l-6,3.3c0,0,0-4.8-1.4-4.3c-1.2,0.5-8,0.5-8,0.5s-2,3-2.6,3c-0.2,0-0.5-0.2-0.9-0.6h-6.5
		c1.6-1.3,3.2-2.4,5-3.4l0.6,1.1c0.5-0.5,1.1-1.4,0.6-1.9c-0.6-0.5-3.8,0-3.8-0.5c0,0,0,0,0-0.1c-1.6,0.1-7.5-0.1-7.6-0.1
		c-0.1,0,5.4-3,6.3-3.2c0,0,0,0,0,0h0.1c0,0-0.1,0-0.1,0c0.2,0.1,0.4,0.6,0.7,1.2c-0.2-0.8-0.3-1.5,0-1.5l3,0.5v-2.6l-4.3-3l5.9,1.6
		l-0.5,0.7h2.1l0.6,3.3v0.1c1.4,0,12.5,1.6,20.4,1c6.9-0.4,10.1-2.5,10.9-3.4c-0.8,0.1-1.9-0.1-3.3-0.7c-0.5-0.2-0.8-0.4-1.2-0.7
		c0,1.5-0.1,2.7-0.3,2.7c-0.6,0-8,1.7-8,0.7c0-1.2,0-2.2-0.6-2.2l-7.5,0.5l0.6-2.1l-6-1l2.4-2.2c0,0-9.9-3.8-9.3-3.8
		c0.6,0,4.4-2.1,4.4-2.1l-7.5-4.3h4.5c0,0-6.3-4.3-5.7-4.3l3.8,0.5L419,254h1.8l-1.8-3.1l0.7-0.3l-0.9,0.2c0,0-1.7-3.8-1.5-3.8
		l4.1,2.9l0.5-0.2l2,2.7l-0.8-6.5l0.4,0.1l0.4-2.2c0,0,4.2,2.8,4,2.8c0,0-0.2,0-0.5,0l0.2,0v5.2c0,0,1.8-3.1,1.8-3.7
		c0-0.4,3.2,1.1,4.4,1.3c0.2-0.1,0.3-0.2,0.4-0.2c0,0,0,0,0,0h0.2c0,0-0.1,0-0.1,0c0.1,0.2,0,0.3-0.4,0.2c-1.4,1-4.4,4.7-4,8.9
		c0.7,4.6,10.5,11.2,11.2,11.7c-0.2-0.7-0.2-1.9-0.1-4c0.3-5,5.7-5.6,6.3-5.9c0.6-0.3,1.2-6.4,1.2-6.5c0-0.1-3.8,1-3.9-3.4
		c-0.2-4.4,6.3-1.7,6.3-1.7s1.2-2.3,3-2.6c1.8,0,4.4-2.3,4.8-2.6c0.5-0.3,2.6,4.2,2.6,4.2s2.6-1.7,2.9-1.7c0.3-0.1,0.2,2.7,0.9,2.7
		c0.8,0.1,4.7,0.8,5,3.7s-3.6,2-3.6,2s-0.2,3.1-1.1,4.7c-0.9,1.6-0.2,2,0.7,4.3h53.6c6,0,11.7-2.1,11.7-5.4c0-3.3-9.9-3.8-13.5-2.6
		c-3.8,1-19.8,7.4-26.6,6.9c-6.8-0.5-13.1-4.3-13.7-8.1c-0.6-3.8,3-6.9,9.9-6.9s15.5,2.1,17.3,1.6s6.2-4.8,8-5.4c2-0.5,7.5-1,7.5-1
		l-2.6,1.6l8.1-1.6c0,0-6.2,5.9-12.5,7.4c-6,1.7-19.1,1-24,1s-7.5-0.5-6.8,2.7c0.6,3.3,4.4,5.4,7.5,4.8c3-0.5,12.2-3.3,12.2-3.3
		l-2.4-1.6l11.1-0.5c0,0-0.6-1.6,0-1.6l6.2,0.5c0,0-3.8-1.7-3-1.7s3,0,8,0.5s15.5,2.2,14.9,6.5c-0.8,4.3-4.5,8-8.7,8
		c-4.2,0-8-1-8,0.7c0,1.6,5,2.6,8,2.6c3,0,6.8-2.1,7.5-2.1s1.8,3.1,2.4,3.1s4.4-1,4.4-1l-2.6,5.9l4.4,1c0,0-2.4,2.2-1.8,2.2
		s4.2,0,4.2,0.5s-4.8,3.8-4.8,4.3c0,0.5,3.6,2.1,3.6,2.1s-0.4,0.6-1,1.2c0.3,0.9,0.6,2.3,1,2.8c0.2,0.4-1-0.6-2.2-1.6
		c-0.3,0.3-0.6,0.4-0.8,0.3l-3-3.3c0,0-0.8,2.2-2,2.2c-0.2,0-0.5,0-0.8-0.1c-0.6,0.8-2.4,2.9-2.9,3.1c-0.5,0.2,0-2.2,0.3-3.5
		c-0.2,0-0.4-0.1-0.4-0.1s1.8-3.3,1.2-3.3c-0.5,0-2.4,1.3-3.2,1.6c0.1,0,0.1,0.1,0.2,0.2l-5,0.4c0,0,1.8-1.2,2.8-1.9l-0.3-0.2
		c0,0,5-1.7,5-4.3s-2-5.1-11-5.5c-5.9-0.3-7.9,0.6-10.5,1.2c-0.1,1.2-0.1,2.6,0,3.5c0.3,2,2.3,3,2.3,3.3c0,0.3-2.7,0.7-3.3,0.7
		c-0.6,0-1.1,3.7-1.5,3.9c-0.5,0.3-3.9-3.4-3.9-3.4s-4.4,3.3-4.8,3.3c-0.5,0-0.5-2.6-0.5-2.6l-3,3.3c-0.2,0-1.1-2.9-1.1-2.9
		s-4.2,3.1-5.1,3.1C491,286,493.1,283,493.1,283z"/>
	<path fill="#D40F0F" d="M454.9,272.5c0.1-0.1,0.1-0.3,0.2-0.4l-0.5-0.5C454.7,271.9,454.8,272.2,454.9,272.5z"/>
	<path fill="#D40F0F" d="M443.9,266.4c-0.2,0.6-0.6,2.1-1.1,3.2c0.1,0,0.3-0.1,0.5-0.1C443.4,268.2,443.7,266.9,443.9,266.4z"/>
	<path fill="#0062BB" d="M540.9,312.6c1.7-0.2,3.3-0.5,4.9-0.6h-1C543.3,312,542.1,312.2,540.9,312.6z"/>
	<path fill="#FDC400" d="M454.6,277.4c-0.8,0.9-4,3-10.9,3.4c-8,0.5-19.1-1-20.4-1v-0.1l-0.6-3.3h-2.1l-0.7,1l0,0l0,0l0,0l-0.4-0.3
		v2.6l-3-0.5c-0.3,0-0.2,0.7,0,1.5c0.4,0.9,0.9,2,1,2c0,0-0.1,0-0.4,0.1c0,0,0,0,0,0.1c0,0.5,3.2,0,3.8,0.5c0.4,0.5-0.1,1.4-0.6,1.9
		l1.4,2.3h-0.5c0.4,0.3,0.7,0.6,0.9,0.6c0.6,0,2.6-3,2.6-3s6.8,0,8-0.5c1.4-0.5,1.4,4.3,1.4,4.3l6-3.3c0,0,3.8,2.1,4.4,2.1
		c0.6,0,2.6-2.6,2.6-2.6l3,2.1c0,0,3.2-2.6,3.8-2.6c0.6,0,0.6,1.6,0.6,1.6s1.2-1.6,1.8-1.6s2,1.6,2,1.6s0.6-1.4,1.8-2.6
		c1.2-1.2,0.6,2.6,1.2,2.6s3.8-2.2,5-2.7c0.9-0.4,0.1-4.5-0.3-6.6c-3.6-0.1-7.1-0.2-9.5-0.3C455.9,277,455.4,277.4,454.6,277.4z"/>
	<path fill="#FDC400" d="M434.4,249.2c-0.1,0-0.2,0.1-0.4,0.2C434.3,249.5,434.5,249.4,434.4,249.2z"/>
	<path fill="#FDC400" d="M448.8,272.4l-0.5,2.9c-1.5-0.4-2.9-1.1-4.2-2c-0.9-0.6-1-2.3-0.8-3.9c-0.2,0-0.3,0.1-0.5,0.1
		c-0.2,0.6-0.5,1.1-0.7,1.1c-0.3,0.1-0.7,0.2-1-0.7c-0.7-0.5-10.5-7.1-11.2-11.7c-0.4-4.1,2.6-7.9,4-8.9c-1.2-0.2-4.4-1.7-4.4-1.3
		c0,0.5-1.8,3.7-1.8,3.7v-5.2l-0.2,0c-1.1,0-3.7-0.1-3.9-0.4l0-0.2l-0.4-0.1l0.8,6.5l-2-2.7l-0.5,0.2l0.2,0.1l-1.9,0.6l-0.7,0.3
		l1.8,3.1H419l1.8,4.3l-3.8-0.5c-0.6,0,5.7,4.3,5.7,4.3h-4.5l7.5,4.3c0,0-3.8,2.1-4.4,2.1c-0.6,0,9.3,3.8,9.3,3.8l-2.4,2.2l6,1
		l-0.6,2.1l7.5-0.5c0.6,0,0.6,1,0.6,2.2c0,1,7.4-0.7,8-0.7c0.3,0,0.4-1.2,0.3-2.7C449,275,448.7,273.5,448.8,272.4z"/>
	<path fill="#FDC400" d="M434.3,249.1C434.4,249.2,434.4,249.2,434.3,249.1c0.1,0,0.1,0,0.2,0H434.3z"/>
	<path d="M531.3,284l-1.7-1.3c-1,0.8-2.8,1.9-2.8,1.9l5-0.4c-0.1,0-0.1-0.1-0.2-0.2C531.5,284.1,531.3,284.1,531.3,284z"/>
	<path d="M481.5,277.1l0.2-0.5l-4.3,1l3.5,1.5l0.1-0.3l-0.1,0C480.9,278.8,481.1,277.8,481.5,277.1z"/>
	<path d="M415.8,279.5C415.8,279.5,415.8,279.5,415.8,279.5c0,0,0.1,0,0.1,0H415.8z"/>
	<path d="M483.2,284.5c-0.7,1-2.4,4.1-1.7,4c1.3-0.6,2.5-1.4,3.6-2.2c-0.9-0.4-2.1-1.2-2.1-1.2L483.2,284.5z"/>
	<path d="M434,249c0.4-0.1-3.5-4.7-3.5-4.7l-0.5,3.5C430.3,248.4,433.7,249.2,434,249z"/>
	<path d="M543.2,287c1.2,1,2.4,2,2.2,1.6c-0.3-0.5-0.7-1.9-1-2.8C544.1,286.2,543.6,286.7,543.2,287z"/>
	<path d="M533.8,289.3c0.5-0.2,2.2-2.3,2.9-3.1c-0.9-0.1-2-0.3-2.5-0.4C533.8,287.1,533.3,289.5,533.8,289.3z"/>
	<path d="M478.9,281.3c-1.2,0.7-3.8,2.5-3.8,2.5l5.1-0.8l-0.3,0L478.9,281.3z"/>
	<polygon points="420.6,276.4 421.1,275.7 415.2,274.1 419.5,277.1 419.9,277.4 	"/>
	<path d="M420.2,285.3l-0.6-1.1c-1.8,1-3.4,2.1-5,3.4h6.5h0.5L420.2,285.3z"/>
	<path d="M416.5,280.7c-0.3-0.6-0.6-1.1-0.7-1.2c-0.9,0.2-6.4,3.2-6.3,3.2c0.1,0,6,0.1,7.6,0.1c0.3,0,0.4,0,0.4-0.1
		C417.4,282.6,417,281.6,416.5,280.7z"/>
	<polygon points="419.9,277.4 419.9,277.4 419.9,277.4 	"/>
	<path d="M421.5,249.9l-4.1-2.9c-0.2,0,1.5,3.8,1.5,3.8l0.9-0.2l1.9-0.6L421.5,249.9z"/>
	<path d="M427.5,246.5c0.3,0,0.4,0,0.5,0c0.2,0-4-2.8-4-2.8l-0.4,2.2l0,0.2C423.8,246.4,426.5,246.5,427.5,246.5z"/>
	<path fill="#FDC400" d="M498.2,285.7l3-3.3c0,0,0,2.6,0.5,2.6c0.5,0,4.8-3.3,4.8-3.3s3.5,3.7,3.9,3.4c0.5-0.3,0.9-3.9,1.5-3.9
		c0.6,0,3.3-0.4,3.3-0.7c0-0.3-2-1.3-2.3-3.3c-0.1-0.9-0.1-2.3,0-3.5c-1.4,0.3-2.9,0.5-5.2,0.4c-6.6-0.3-6.6-2.6-11.6-2.6
		c-0.8,0-2,0.2-3.3,0.4c1.7,1.4,5.7,4.4,5.8,5.2c0,1-11.7,1.3-11.7,1.3s-3.5-2.2-4.5-2.1c-0.4,0-0.7,0.3-0.9,0.7
		c-0.4,0.7-0.6,1.7-0.6,1.7l0.1,0l2.6,1.3l-5.3,0.3l0.5,1l1,1.7l0.3,0l3.7-0.2l-0.7,1.8l-0.2,0.6c0,0,1.2,0.9,2.1,1.2
		c0.4,0.1,0.7,0.2,0.9,0.1c0.5-0.1,2-2.6,3.2-3c1.2-0.4,3.9-0.4,3.9-0.4s-2.1,3-1.1,3c0.9,0,5.1-3.1,5.1-3.1S498,285.7,498.2,285.7z
		"/>
	<path fill="#FDC400" d="M507.6,274.2c2.3,0.1,3.9-0.1,5.2-0.4c2.6-0.6,4.6-1.4,10.5-1.2c9,0.4,11,2.9,11,5.5s-5,4.3-5,4.3l0.3,0.2
		l1.7,1.3c0,0.1,0.1,0.1,0.4,0c0.8-0.3,2.8-1.6,3.2-1.6c0.6,0-1.2,3.3-1.2,3.3s0.1,0,0.4,0.1c0.6,0.1,1.6,0.3,2.5,0.4
		c0.3,0,0.6,0.1,0.8,0.1c1.2,0,2-2.2,2-2.2l3,3.3c0.2,0.1,0.5,0,0.8-0.3c0.4-0.3,0.8-0.8,1.2-1.2c0.5-0.6,1-1.2,1-1.2
		s-3.6-1.6-3.6-2.1c0-0.5,4.8-3.8,4.8-4.3s-3.6-0.5-4.2-0.5s1.8-2.2,1.8-2.2l-4.4-1l2.6-5.9c0,0-3.8,1-4.4,1s-1.7-3.1-2.4-3.1
		s-4.5,2.1-7.5,2.1c-3,0-8-1-8-2.6c0-1.7,3.8-0.7,8-0.7c4.2,0,8-3.7,8.7-8c0.6-4.3-9.9-6-14.9-6.5s-7.2-0.5-8-0.5s3,1.7,3,1.7
		l-6.2-0.5c-0.6,0,0,1.6,0,1.6l-11.1,0.5l2.4,1.6c0,0-9.2,2.7-12.2,3.3c-3.2,0.5-6.9-1.6-7.5-4.8c-0.8-3.3,1.8-2.7,6.8-2.7
		s18,0.7,24-1c6.3-1.6,12.5-7.4,12.5-7.4l-8.1,1.6l2.6-1.6c0,0-5.6,0.5-7.5,1c-1.8,0.5-6.2,4.8-8,5.4s-10.4-1.6-17.3-1.6
		s-10.5,3.1-9.9,6.9c0.6,3.8,6.9,7.6,13.7,8.1c6.8,0.5,22.8-5.9,26.6-6.9c3.6-1.2,13.5-0.7,13.5,2.6c0,3.3-5.7,5.4-11.7,5.4h-53.6
		c0,0.1,0.1,0.1,0.1,0.2c0.9,2.7,3.9,3.7,2.7,6.4c-0.6,1.3-1.6,1-2.4,0.3c0.5,0.9,0.6,1.9-0.3,2.5c-0.9,0.6-2.2,0.2-3.4-0.4l1.3,0.9
		c0,0,2.6,2.2-1.1,3c-3.9,1-5.1-1-5.4-1.3l-2.5-2.6c-0.1,0.1-0.1,0.3-0.2,0.4c0.4,1.1,0.7,2.2,1,3.3c0.1,0.2,0.1,0.4,0.1,0.6
		c2.4,0.1,6,0.3,9.5,0.3c1.1,0,2.2,0,3.2,0c6,0.2,17.5-3.5,24-4.8c1.3-0.3,2.5-0.4,3.3-0.4C501,271.6,501,274,507.6,274.2z"/>
	<path fill="#FDC400" d="M456,276.5c0-0.2,0-0.4-0.1-0.6c-0.3-1.1-0.7-2.2-1-3.3c-0.1-0.3-0.2-0.6-0.3-1l0.5,0.5l2.5,2.6
		c0.3,0.3,1.5,2.3,5.4,1.3c3.6-0.8,1.1-3,1.1-3l-1.3-0.9c1.2,0.6,2.5,1,3.4,0.4c0.9-0.6,0.7-1.6,0.3-2.5c0.9,0.7,1.9,1.1,2.4-0.3
		c1.2-2.7-1.8-3.7-2.7-6.4c0-0.1-0.1-0.1-0.1-0.2c-0.9-2.4-1.5-2.7-0.7-4.3c0.9-1.6,1.1-4.7,1.1-4.7s3.9,0.9,3.6-2s-4.2-3.5-5-3.7
		c-0.8,0-0.6-2.9-0.9-2.7c-0.3,0-2.9,1.7-2.9,1.7s-2.1-4.4-2.6-4.2c-0.5,0.3-3,2.6-4.8,2.6c-1.8,0.3-3,2.6-3,2.6s-6.5-2.7-6.3,1.7
		c0.2,4.4,3.9,3.3,3.9,3.4c0,0.1-0.6,6.3-1.2,6.5c-0.6,0.3-6,0.9-6.3,5.9c-0.1,2.1-0.1,3.3,0.1,4c0.2,0.9,0.6,0.8,1,0.7
		c0.2-0.1,0.4-0.5,0.7-1.1c0.4-1.1,0.9-2.5,1.1-3.2c-0.1,0.5-0.5,1.8-0.6,3c-0.2,1.6-0.1,3.2,0.8,3.9c1.3,0.9,2.7,1.5,4.2,2l0.5-2.9
		c0,1.2,0.2,2.6,1.4,3.6c0.3,0.3,0.7,0.5,1.2,0.7c1.4,0.6,2.5,0.8,3.3,0.7C455.4,277.4,455.9,277,456,276.5z M460.3,252.1
		c1.3-0.1,2.4,0.8,3.2,1v0.1c-0.6,0.1-1.4,0.7-2.6,1c-1.1,0.2-1.8,0-2.8-0.5C457.1,253.1,459,252.2,460.3,252.1z M454.6,267
		c-0.3,0.4-0.9-5.2-0.9-5.9l3.5,0.1L454.6,267z M450.9,253.3c0.7-0.3,1.8-1.2,3-1.1c1.2,0.1,3.4,1,2.4,1.6c-1,0.5-1.8,0.8-3,0.5
		C452.3,254,451.3,253.5,450.9,253.3z"/>
	<path d="M458.1,253.7c1,0.5,1.7,0.7,2.8,0.5c1.2-0.3,2-0.9,2.6-1v-0.1c-0.8-0.2-1.9-1.1-3.2-1C459,252.2,457.1,253.1,458.1,253.7z"
		/>
	<path d="M456.3,253.8c1-0.6-1.2-1.5-2.4-1.6c-1.2-0.1-2.3,0.8-3,1.1c0.4,0.2,1.4,0.7,2.4,1C454.5,254.6,455.3,254.3,456.3,253.8z"
		/>
	<path fill="#000039" d="M454.6,267l2.6-5.7l-3.5-0.1C453.7,261.8,454.3,267.4,454.6,267z"/>
	<path fill="#FDC400" d="M517.3,309.7c0.3,0,0.6,0.1,1,0.1l-0.5-1.3L517.3,309.7z"/>
</g>
</svg>
