<?xml version="1.0" encoding="utf-8"?>
<!-- Generator: Adobe Illustrator 17.1.0, SVG Export Plug-In . SVG Version: 6.00 Build 0)  -->
<!DOCTYPE svg PUBLIC "-//W3C//DTD SVG 1.1//EN" "http://www.w3.org/Graphics/SVG/1.1/DTD/svg11.dtd">
<svg version="1.1" id="flag-icon-css-kz" xmlns="http://www.w3.org/2000/svg" xmlns:xlink="http://www.w3.org/1999/xlink" x="0px"
	 y="0px" viewBox="0 0 640 480" enable-background="new 0 0 640 480" xml:space="preserve">
<g>
	<path fill="none" d="M640.7,216.8c-0.2-0.3-0.5-0.5-0.7-0.7v4.7c0.4-0.2,0.8-0.3,1.4-0.3C643.7,220.5,643.6,219.9,640.7,216.8z"/>
	<path fill="#6FDCFF" d="M636.8,209.1c0.6-1,0.6-1.3-0.2-1.8c-1.4-0.9-1.6-0.8-2.4,0.9c-0.4,0.8-1.6,1.9-2.6,2.5
		c-1.1,0.5-2.1,1.6-2.3,2.5c-0.3,1.2-0.6,1.4-1.4,1c-2.3-1.2-5.2-1.3-6.8-0.3c-1.6,1-1.6,1-3-0.6c-2.8-3.5-5.3-7.2-5.7-8.4
		c-0.4-1.4-5.3-4.7-6.8-4.7c-1.3,0-3-2.4-3-4.4c0-1.3-1.3-3-5.2-6.7l-5.2-5.1l-4.3-0.4c-3.6-0.4-4.4-0.3-4.9,0.6
		c-0.3,0.6-1.4,1-2.4,1c-1.2,0-1.9,0.3-1.9,0.9c0,2-7.7,3.3-11.1,1.8c-1.4-0.6-3.1-0.8-4.4-0.5c-2.1,0.4-2.1,0.3-2.1-1.9v-2.3
		l-2.3,0.4c-1.3,0.3-3,0.3-3.8,0.1c-1.3-0.4-1.4-0.6-1-3.5c0.4-2.6,0.3-3.1-0.6-3.1c-0.6,0-2.2-0.6-3.6-1.3
		c-2.3-1.2-2.6-1.2-3.1-0.3c-0.3,0.6-1.1,1-1.7,1c-1.6,0-2.3,2.6-0.9,3.6c0.8,0.6,0.7,1-1.3,2.9c-1.3,1.3-2.3,1.9-2.5,1.5
		c-0.1-0.4-0.3-0.1-0.3,0.6c-0.1,2.1-0.9,1.8-2.6-1.3c-6-10.6-22.3-37.4-29.7-48.8l-8.9-13.6l-12.1-11.9
		c-6.7-6.5-12.1-12.1-12.1-12.4s0.7-0.6,1.4-0.6c1.7,0,3.2-2.6,2.6-4.4c-0.2-0.7,0-1.3,0.6-1.5c0.5-0.2,0.9-0.6,0.9-1
		c0-1.1-1.9-0.7-3.6,0.6c-1.9,1.5-3.5,1.6-5.8,0.3c-1.6-1-1.8-1-3.1,0.3c-0.9,0.9-2.1,1.3-3.6,1.3c-1.3,0-3.2,0.6-4.3,1.2
		c-1.4,0.9-2.3,1.1-2.9,0.7c-1.4-0.9-1.9-0.8-1.9,0.6c0,1.6-5.3,5.3-7.9,5.5c-5.5,0.4-8.5,1.1-8.5,1.7c-0.1,0.4,0,1.8,0.1,3
		c0.1,1.9-0.1,2.3-0.9,2c-0.5-0.2-1-0.9-1.1-1.7c-0.1-0.9-0.7-1.4-1.8-1.6c-0.9-0.1-1.8-0.4-1.9-0.8c-0.6-0.9-4.3-1.8-4.7-1.1
		c-0.3,0.3-1.3,0.5-2.4,0.3c-1.4-0.2-2.3,0.1-3.3,0.9l-1.3,1.3l-0.7-0.6l-7.2,17.7c-6.2,13.4-23.3,2.3-13.2-8.4
		c2.9-2.5,10.9-10.2,17.5-16.3c1-2.2,1.8-3,3.2-3.1c1.3-1.2,2.5-2.3,3.5-3.2c0-1.8-0.3-2-1.5-2c-0.8,0-1.8,0.4-2.3,0.9
		c-0.5,0.6-1.9,0.9-3.9,0.9c-2.8,0-3.4-0.3-5.4-2.3c-2-2-6.7-4.6-8.5-4.6c-0.3,0-0.3,0.7-0.1,1.6c0.3,1.2,0.2,1.4-0.6,1.2
		c-0.5-0.3-1.4-0.1-1.9,0.4c-0.6,0.5-1.1,0.6-1.3,0.4c-1.4,10.4-3.2,24.6-3.2,24.6c-1.6,2.1-4,3.3-6.6,3.3c-4.6,0-8.3-3.7-8.4-8.3
		c1.7-2.3,5.3-8.2,9-14.2c-0.3-0.1-0.6-0.2-0.8-0.3c-0.7-0.4-1.8-0.4-3,0.1c-1.1,0.4-2,0.6-2.1,0.6c-0.1-0.1-0.6-0.9-1.1-1.8
		c-1.6-2.3-1.4-3.8,0.6-3.8c1.5,0,1.6-0.2,1.2-1.8c-0.3-0.9-0.5-3.5-0.6-5.7c-0.1-3.3-0.3-4.1-1.4-5c-2.1-1.6-2.8-3.5-2.8-7.7
		c0-3.2-0.3-4.2-1.6-6c-2.3-3-5.2-2.7-8.2,0.8c-1.5,1.8-2.3,1.6-6.7-1.8c-2.2-1.7-2.6-1.8-5.7-1.4c-3.1,0.4-3.5,0.3-4.6-1.2
		c-1.3-1.6-2.1-2-2.9-1.2c-0.3,0.2-0.4,0.9-0.4,1.6c0,1.4-1.1,1.4-2.6,0.1c-1.1-0.9-1.1-0.9-1.1,0.3c0,0.7-0.3,1.5-0.6,1.7
		c-0.4,0.3-0.5,0.9-0.3,1.6c0.3,0.9-0.1,1.2-2,1.6c-1.3,0.3-2.8,0.4-3.3,0.3c-0.6-0.1-0.8,0.4-0.4,2c0.3,1.4,0.1,2.4-0.3,2.6
		c-0.5,0.4-0.5,0.6,0.1,0.9c1.5,0.9-0.6,2.5-3.3,2.5c-1.8,0-2.8,0.4-3.6,1.3c-0.6,0.8-1.8,1.4-2.7,1.5c-0.9,0.1-2.2,0.5-2.9,0.9
		c-0.7,0.4-1.8,0.7-2.5,0.7c-0.7,0-3.3,0.8-5.8,1.9c-0.5,0.2-0.9,0.4-1.4,0.5c4.1,7.5,14.4,26.3,14.4,26.3
		c6.6,13.2-13.3,18.1-15.4,3.9c0-4.7-1.4-20.3-1.9-29.3c-0.9,0.2-1.5,0.4-1.9,0.4c-0.9,0-2.5,0.7-3.7,1.6c-1.9,1.5-2.1,1.5-2.1,0.3
		c0-1.9-1-2.1-2.5-0.6c-1,1.1-1.8,1.3-3.4,1c-1.9-0.3-2.5-0.1-4.1,1.7c-1.3,1.4-1.9,2.6-1.9,4c0,1.9-0.1,1.9-1.6,1.3
		c-1.2-0.6-1.8-0.4-3.1,0.4l19,21.7c9.6,11.6-9,20.5-14.1,6.9c-1-4.5-5.7-18.9-8.3-27.6c-0.7,0.1-1.5,0.1-2.5,0.1c-4.6,0-7,1-7,3
		c0,1.4-1.3,1.6-2.3,0.6c-0.6-0.6-1.3-0.6-2.8,0c-1.1,0.4-3,0.7-4,0.7c-1.1,0-2.4,0.4-2.8,0.9s-1.5,0.9-2.5,0.9
		c-0.9,0-2.8,0.6-4.3,1.3c-2.1,0.9-2.6,1.5-2.5,2.6c0.1,0.9-0.3,1.4-0.9,1.6c-0.9,0.2-1.1-0.2-1.1-1.7c0-1.9-0.1-1.9-2.6-1.9
		c-1.6,0-3.1,0.4-3.8,1.1c-1.1,0.9-1.2,0.9-2-0.2c-0.8-0.9-1.2-1.1-2.6-0.6c-1.6,0.6-2,0.4-3.1-0.8c-1.8-2-4.2-1.4-4,1
		c0.2,1.4,0,1.6-1.5,1.4c-2.1-0.2-2.5,1.4-0.5,2.1c1.6,0.5,1.6,1.6-0.1,4.4c-1.6,2.8-1.2,3.4,2.6,3.9c3.1,0.4,5,1.8,4.5,3.1
		c-0.1,0.3-0.4,0.5-0.8,0.6l33.2,16.5c13.6,7.3,0,22.2-10.2,11.5c-3.8-5.2-21.9-25.7-23-28c-0.4,0.1-1.1,0.1-1.9,0
		c-2.1-0.2-2.5-0.1-2.5,1.1c0,0.7,0.3,1.6,0.5,2.1c1,1.5,4.8,3.9,6.3,4c2.3,0.1,6.8,5.2,5.7,6.5c-0.6,0.7-1,0.7-1.8,0.2
		c-0.8-0.4-1.4-0.5-2.3-0.1c-0.8,0.5-1.9,0.3-4-0.6c-2.8-1.2-3-1.2-5-0.1c-1.1,0.6-2.1,1.5-2.1,1.9c0,0.7-2.6,3.2-4.1,4.2l31.9,10.4
		c14.5,5.2,3.5,21.9-8.3,12.9c-3.8-3.9-18.8-16.5-24.8-22c0.1,0.8,0.7,2,1.4,2.4c0.5,0.3,0.9,1,0.9,1.6s0.7,1.8,1.6,2.6
		c2.3,2.1,2,4.3-0.8,7.1c-1.6,1.6-3,2.3-4.2,2.3c-1.1,0.1-2.8,0.8-4.1,1.9c-1.2,1.1-2.8,1.9-3.6,1.9c-0.8,0-1.4,0.4-1.4,0.8
		c0,0,0,0,0,0l35.6,5.3c15.3,2.9,7.5,21-5.9,14.1c-3.4-2.4-14-8.7-22-13.5c0,0.3-0.2,0.7-0.6,1.5c-1.3,2.5-0.3,4,2.4,3.4
		c1.5-0.4,2.3,0.1,5.3,2.6c2.4,2.1,4,3,5.2,3c1.1-0.1,2.1,0.6,3.4,2.1c1,1.2,1.5,2.1,1.2,2.1c-0.1,0-0.3,0.3-0.5,0.8l4.8,0
		c15.6,0.4,11,19.5-3.3,14.7c-1.3-0.7-3.7-1.7-6.6-2.9l-2.3,1c-4.1,1.7-4.7,1.8-7.7,1.1c-3.3-0.6-5.8-2.3-5.8-3.8
		c0-0.4-0.6-1.1-1.3-1.5c-1.1-0.6-1.4-0.3-3.2,2.8c-1.1,1.9-2.1,3.5-2.3,3.5c-0.3,0-1-0.4-1.6-0.9c-0.7-0.5-1.9-0.9-2.7-0.9
		c-1.9,0-8.8-3.3-11-5.3c-0.9-0.8-1.9-2.6-2.3-4c-0.5-1.8-1.2-2.7-2.8-3.5c-1.4-0.6-2.5-0.8-3.1-0.4c-0.6,0.4-1.6,0.3-2.8-0.4
		c-2.6-1.4-4-1.2-4.4,0.6c-0.5,2.1-2.7,2.1-5.3-0.1c-1.6-1.3-3.1-1.8-6.2-2.2c-2.7-0.3-4.3-0.3-4.5,0.2c-0.3,0.4-1.1,0.4-2.1,0.2
		c-1.3-0.3-1.7-0.1-1.7,0.6c0,0.7-0.8,1.1-2.3,1.2c-2.3,0.2-2.4,0.3-2.9,3c-0.4,2.3-0.9,3.1-2.6,4.3c-2.8,1.8-3.8,1.8-6-0.4
		c-1-1.1-2.3-2-3-2.2c-1.4-0.4-3.3-3.6-3.3-5.3c0-1-0.5-1.4-1.8-1.7c-1-0.2-2.5-1.2-3.2-2.3c-0.8-1-1.8-1.8-2.4-1.6
		c-0.9,0.2-1.1,1.1-1.1,5.5c0,5.2-0.1,5.3-1.5,5.5c-1.3,0.2-1.4,0.1-1-1.6c0.9-3.5,0.5-5-1.8-7.9c-1.4-1.6-2.3-3.5-2.5-4.9
		c-0.2-1.9-0.5-2.3-2.8-3.1c-3.6-1.3-5-2.8-5.5-5.7c-0.5-3.1-1.4-4.3-4.5-5.6c-1.7-0.8-3-0.9-3.9-0.6c-0.9,0.3-1.9,0.3-2.6-0.2
		c-0.8-0.5-1.7-0.5-3,0c-1.8,0.6-1.9,0.5-3.1-1.6c-0.6-1.3-1.3-3.2-1.5-4.2c-0.3-1.6-0.6-1.9-2.2-1.7c-1,0.1-2.6,0.2-3.5,0.2
		c-2.9,0-4.4,1.2-4.4,3.5c0,2.4-0.6,2.6-2.2,0.8c-0.6-0.7-1.9-1.3-2.9-1.3c-1.3,0-2.1-0.4-2.3-1c-2.2,0.8-4.8,1.3-7.8,1.4
		c12.7,0.5,17.6,7.9,17.6,13.6c0,5.9-28,54-29,62.8c-1,8.6,4.8,11,9.5,11c4.8,0,8.1-2.7,8.1-5.1c0-2.4-2.4-3.2-5.7-3.2
		s1.4,1.8-1.4,3.2c-2.8,1.4-4.8-2.1-4.8-4.2c0-2,7.2-2.8,12-1.2c0.9-4.7,1.3-5-5.3-13c4.8,3.1,5.2,3.8,10.5,2
		c-5.3,4.6-1.4,13.8-1.2,16s-1,5.2-3.1,6.6c-3.8,3.5-12.2,3.6-17.2,1.4c-4.4-2-6.3-6.3-6.6-10.1c-0.3,3.8-2.2,8.1-6.6,10.1
		c-5,2.2-13.4,2-17.2-1.4c-2.1-1.4-3.3-4.2-3.1-6.5c0.2-2.3,4-11.5-1.2-16c5.3,1.7,5.8,1,10.5-2.1c-6.6,8-6.2,8.3-5.2,13
		c4.7-1.6,11.9-0.9,11.9,1.2c0,2-2,5.5-4.8,4.1c-2.8-1.3,2-3-1.4-3c-3.3,0-5.7,0.6-5.7,3c0,2.4,3.3,5.2,8,5.2c4.7,0,10.5-2.4,9.6-11
		c-0.9-8.1-25.5-50.9-28.7-61.2c-0.2-0.2-0.5-0.3-0.7-0.4c-1.3-0.6-2.2-0.6-3.8-0.1c-2,0.7-2.1,0.9-2.1,3.6c0,1.9-0.5,3.8-1.4,5.5
		c-1.3,2.2-1.7,2.5-3.4,2.3c-2.4-0.3-3.2,0.9-4.5,6.2c-0.4,1.9-0.9,4.1-1.2,4.9c-0.3,1,0.2,2.1,1.4,3.8c2.6,3.4,2.3,6-1.1,7.7
		c-1.9,1-2.5,1.6-2.5,3c0,0.9-0.9,2.8-2.1,4.2c-3.4,4.1-3.8,5.2-2.7,7c0.6,0.8,2.3,1.9,4.1,2.5c3.5,1.1,4.1,1.7,4.7,4.4
		c0.3,1,1.1,2.4,1.8,3l1.4,1.2l-1.7-0.4c-1.9-0.4-2.1-0.1-0.8,2.1c0.5,0.9,0.9,2.3,0.9,3.2c0,1.1,0.6,2.1,1.6,2.7
		c1.4,0.9,1.6,0.9,1.6,0.1c0-1.1,1.9-0.8,4.1,0.7c0.7,0.5,2.4,0.9,3.8,0.9h2.6l2.4,5.5c1.4,3,3.1,6.2,3.8,7c0.3,0.4,0.7,1,1.3,1.9
		c0.5-1.3,1.4-2.5,2.6-3.3c3.8-3.4,12.2-3.6,17.2-1.4c4.4,2,6.3,6.3,6.6,10.1c0.3-3.8,2.2-8.1,6.6-10.1c5-2.2,13.4-2,17.2,1.4
		c2.1,1.4,3.3,4.3,3.1,6.6s-4.1,11.4,1.2,16c-0.3-0.1-0.5-0.2-0.7-0.2c2,2,2.6,2.3,2.9,1.5c0.3-0.9,0.6-0.7,1.8,1
		c1.4,2.1,3.5,3,3.5,1.5c0-0.4,0.7-1.2,1.6-1.6c0.9-0.4,1.6-1,1.6-1.3s1.3-0.1,3,0.6c1.6,0.7,3.8,1.4,4.8,1.6l1.8,0.4l-0.4,5
		c-0.4,4.3-0.3,5,0.5,5c2.4,0,0.5,7.5-2.5,9.7c-2.4,1.8-3.2,3.8-2.1,5c0.6,0.8,0.4,0.9-1.2,0.9c-1.1,0-1.9,0.3-1.9,0.6
		c0,0.8-7.2,0.8-10.2-0.1c-2-0.6-2.7-0.4-4.1,0.5c-0.5,0.3-1.1,0.6-1.6,0.8c5.3,10.3,9.5,19,9.5,21.3c0,5.6-4.7,12.8-17.1,13.5
		c0,0,0,0,0,0c12.3,0.7,17,7.9,17,13.5c0,1.1-0.9,3.5-2.4,6.9l1.6,0c2.3,0,3.4,0.3,3.6,0.9c0.3,0.6,0.9,0.8,2.3,0.6
		c1.8-0.4,1.9-0.2,3.1,2.4l1.3,2.8l-1.9,5.6c-2,5.9-2,6.5-0.5,14.2l0.8,4.1l2.9-1.6c5.1-2.9,11.1-4.5,17-4.5h5.4l4.2,3.5
		c2.3,1.9,4.2,3.9,4.2,4.4c0,0.5,2.1,4,4.8,7.8l4.8,6.9h3.9h4l0.4-6.2c0.2-3.3,0.6-20.7,0.8-38.6l0.4-32.5l1.9-0.4
		c1.1-0.2,10.6-2.1,21.1-4.2l0.3-0.1c-1.5-1.9-2.7-3.6-2.7-4.3c0-1.1,3,1.7,5.4,3.8l1.5-0.3c-3.2-3.7-11-11-10.8-12.1
		c0.5-1.5,13,10.1,14,9s-15.4-20-17.9-24.2s19.1,17.4,22.1,18.5c3,1.1-0.9-6.4-1.4-9c-0.5-2.2-18.6-29.7-16.3-30.8
		c2.1-0.9,11.9,18.3,18.2,23.8h0c5.1,4,10.5,6.8,9.3,9c-0.9,2-7-1.3-7.2-1.1c-0.2,0.2,2.2,10.1,2.7,14.3l2-0.4l0.7-2.6
		c0.9-3.6,1.4-4,5.7-4.2c2.1-0.1,4.1-0.3,4.5-0.6c0.7-0.4,0.6-0.1-0.1,1.3c-1.8,3.5,1.4,5.1,3.6,1.9c0.5-0.8,0.9-1,0.9-0.6
		s0.3,0.6,0.6,0.4c0.7-0.4,0.4-6.8-0.3-9.9c-0.4-1.6-0.3-1.8,1-1.6c1.3,0.2,1.5,0.6,1.7,3.5c0.1,2,0.6,3.5,1.2,4.1
		c0.8,0.6,1.1,0.6,1.3,0c0.1-0.3,0.3-0.5,0.6-0.6c-4.4-7.5-5.8-12.2-7.6-12.2c-2.1,0-9.8,4.8-9.8,4.8s-7-9.9-13-25.8
		c-6.3-15.9-5.6-25.1-4.2-25.8c1.6-0.7,1.6,11.7,6.3,22.9c4.7,11.4,11.2,15,11.2,15s-4.2-5.9-7.5-20.7s-4.7-29.1-2.3-33.5
		c2.3-4.4,4.4-5.7,4.7-5.5c0.5,0.4-4,6.8-0.9,23.8c3,17,11.2,31.3,13,30.6c1.9-0.7-1.2-4.2-2.3-14.1c-1.2-9.9,1.2-16.1,3.7-17
		c1.2-0.9,3,11,3.3,16.3l0,0c1.6,5.5,1.9,36.3,34.7,66.1c32.6,29.5,88.5,36.1,88.5,36.1s0.2,4.2-3.7,4.4c-3.5,0.4-19-2.5-29.1-5.2
		c1.1,0.7,2.2,2.3,4.2,6.1c2.1,3.8,3.4,5.7,4,5.4c0.4-0.2,1.3-0.5,1.8-0.7c0.8-0.3,0.9,0.8,0.9,8.4c0,2.2,0,3.9,0,5.2
		c1.7-0.9,3.4-2,4.9-3.3c2.8-2.9,4.7,1.5,3,4c-0.7,0.9-3,2.4-5.5,3.7c0.7,0.1,1.5,0.1,2.6,0.1h2.2l0.8,4.7c0.2,1.6,0.6,3.1,1,4.5
		c4.6-0.5,9.5-0.9,13.8-0.6c8.4,0.2,27.3-1.3,26.6,0.9c-0.5,2.4-1.6,1.8-7.5,1.8s-18.2,3.3-23.8,2.9c-2.2-0.2-4.3,0.1-6.6,0.5
		c0.6,0.7,1.1,1.2,1.7,1.4c0.7,0.2,3.2,0.3,6.2,0.4c1-0.2,2.4-0.2,4.2,0c3.3,0.1,5.7,0.3,7.4,0.8c4.3,0.3,9.4,0.3,15.4-1.1
		c1.2-0.3,2.4-0.6,3.6-0.9c0.5-0.6,0.9-1.2,0.9-1.6c0-1.1,4.1-4.8,5.3-4.8c0.5,0,1.6-1.1,2.6-2.5c0.9-1.4,2.3-2.6,3.1-2.8
		c1.1-0.3,1.6-1,1.9-2.3c0.2-1,0.8-2.2,1.2-2.6c0.5-0.4,0.9-1.1,0.9-1.6c0-1.3,1.6-1.6,3.1-0.8c1.1,0.6,1.6,0.4,3.3-1.6
		c1.1-1.2,2.3-2.2,2.8-2.2c1.5,0,4.6-3.1,5.3-5.3c0.8-2.2,3.6-4.8,6.3-5.7c0.9-0.3,2.1-0.9,2.7-1.5c1.9-1.6,12.9-1.1,17.3,0.9
		c2.8,1.3,4,1.4,6.4,1.1c2.3-0.3,3.5-0.1,4.6,0.6c1.8,1.1,4,1.3,5.4,0.4c0.8-0.5,0.8-0.8,0.1-1.7c-1.5-2.1-1.6-2.8-0.5-4.6
		c0.6-1,1-2.6,1-3.6c0-1.1,0.6-2.4,1.4-3.1c2-1.8,6.9-3.3,9.6-2.9c1.8,0.3,2.2,0.1,2.2-0.7c0-1.2,0.8-1.3,3.8-0.1
		c4.3-2.1,7.9-3.9,7.7-4.2c-0.2-0.7-7.7,2.2-7,0c0.9-2.4,45.9-14.8,45.2-16.3c-0.7-1.3-20.7,3.1-22.6,3.5
		c-0.7-1.3,28-11.4,27.5-13.2c-0.9-1.5-15.4,5.9-16.3,4c-0.5-2.2,25.4-11.7,23.8-13.2c-1.6-1.5-13.3,4-14.9,2.4
		c-1.6-1.5,24.5-18.5,20.5-18.9c-4-0.2-8.9,5.3-9.3,1.8c0.5-4.4,20.3-11.7,15.8-15.2c-7-2-30.5,1.5-40.3,7s-42.4,36.1-50.3,41
		c-7.9,4.6-34.9,15.4-40.1,17.6c-7.9,2.6-9.3,6.6-17.5,10.6c-14.7,3.7-14.4,7.9-21.4,10.3c-2.6,0.7-28.9,12.5-29.1,11.7l0,0
		c-3-3.1-0.5-5.3,4-7.7c6.5-3.3,4.7-7.9,13-11.7c3.7-2.2,55.9-22,72.9-32.6s64.8-44.7,77.6-68.3c12.6-23.3,6.5-25.1,8.4-26
		c1.6-1.1,3.5,3.3,3.3,8.6c-0.5,5.1-4.7,20.5-3.3,22c1.4,1.5,19.1-12.1,26.6-28.6s13-33.7,16.5-33.7c3.7,0-6.1,28.2-12.3,39.2
		c-6.1,11-13.3,16.5-11.6,18.9c1.9,2.2,20-12.1,26.3-22.7c6.1-10.8,11.9-20.3,13-18.3c1.2,2.2-5.8,24.9-15.6,35.4
		s-21.4,18.3-19.6,19.8c1.6,1.8,14.9,3.5,28.7-5.3c14-9,15.4-22,17-21.4c1.9,0.7-1.6,18.5-14.9,29.5c-13.3,11-30.7,12.1-30.3,14.5
		c0.9,2.2,38-10.1,37.3-7.3c-0.7,2.6-48,20.3-48.4,22c0,1.3,8.2,1.8,21-1.1c12.6-2.6,24.7-12.1,26.3-9.9c0.5,3.1-9.1,10.6-23.5,14.1
		c-14.7,3.5-21.9,8.1-22.4,9.2c-0.2,1.1,26.1-3.1,26.1-1.8s-34.5,7.7-34.7,9.5c-0.5,1.5,32.6-6.4,32.1-4.4
		c-0.9,1.5-45,13.9-44.5,14.5c0.2,0.9,36.8-7.5,36.1-6.2c-0.9,1.5-61.5,17.6-62,18.7c-0.5,0.9,53.6-11.4,53.1-10.3
		c-0.5,1.1-28,7.5-28,8.1c0,0.7,22.1-3.3,21.7-2.2c-0.2,0.6-25.3,6.8-42.2,11.5c0.9,0.1,1.7,0.1,2.6,0.1c5.1,0,5.7-0.1,6-1.3
		c0.4-1.4,0.8-1.4,8.5-1.6c3.5-0.1,5.5-0.4,7.9-1.5c2.7-1.3,3.6-1.4,7.2-1c4.7,0.6,4.7,0.6,14.8-0.3c10.4-0.9,10.1-0.9,15.6-0.8
		c4.7,0.1,5,0.2,7.6,2.6c2.6,2.4,3,2.5,6.7,2.5c2.9,0,4.9,0.4,7.2,1.4l3.1,1.5v-6c0-3.8,0.3-6.1,0.7-6.2c0.4-0.1,1.3-0.6,1.9-1.1
		c1.1-0.8,1.1-1.1,0.4-2.2c-0.4-0.8-0.8-1.4-0.6-1.4c2.8-1.4,4-2.3,4.1-3.2c0.4-2.1-0.5-5.2-2.7-8.5c-1.2-1.9-2.2-3.9-2.2-4.5
		c0-0.6-0.4-1.4-0.9-1.8c-0.5-0.4-0.9-1.6-0.9-2.6c0-1-0.4-2.8-1-4.1c-0.6-1.4-0.9-3.6-0.8-5.5l0.2-3.1h-3.3c-6.1,0-5.2-3.3,1.4-5.3
		c1.4-0.4,4.5-1.3,6.9-1.9c2.5-0.6,6.5-2.1,9-3.4l4.7-2.3l1.3,1.3c1.1,1,2.4,1.3,5.9,1.4c5.1,0.3,5.7-0.3,5.7-4.2
		c0-2.1-0.1-2.3-1.9-2.3h-1.9l0.4-3.6c0.3-1.9,0.4-5.2,0.4-7c-0.1-2.4,0.7-6.2,2.5-12.1c1.4-4.7,2.5-9.2,2.5-10.1
		c0-2.8,1.2-3,6.7-1.3c4.5,1.4,5.6,1.6,11.1,1.3c3.3-0.2,6.1-0.2,6.1,0.1c0,0.3,0.3,0.9,0.5,1.3c0.4,0.6,1.6,0.3,4.8-1.4
		c2.3-1.2,4.6-2.2,5.2-2.2c0.4,0,1-0.8,1.3-1.8c0.2-0.9,0.4-2.1,0.6-2.5c0.1-0.4-0.1-2.1-0.7-3.8c-1.5-5-2.1-11.4-1.4-15.2
		c0.8-4,2.3-5.7,5-5.7c2.3,0,5.5-1.6,5.5-2.8c0-0.4,0.4-1.2,0.9-1.6c0.6-0.4,0.8-2.1,0.9-4.8c0-3.4,0.4-5,1.6-5.7v-4.7
		C636.7,212.5,635.9,210.7,636.8,209.1z M495.7,184.3v0.1C495.7,184.4,495.7,184.4,495.7,184.3L460.2,196
		c-14.8,4.4-17.1-15.2-1.8-14.9C465,182,493.8,183.6,495.7,184.3L495.7,184.3z M486.3,153.5l-31.8,19.1c-13.3,7.5-20.3-11-5.3-14.1
		C456.1,157.8,486.1,152.8,486.3,153.5z M470.8,126.9l-26.7,25.3c-11.3,10-22.3-6.6-8.5-12.7C442.3,137.4,470.3,126.2,470.8,126.9z
		 M418,124.2c5.8-3.6,29.5-21.9,30.1-21.3L430,134.1C422.1,146.8,406.6,133.8,418,124.2z M362.1,103.4c3-6,13-33.2,13.8-33.1
		l0.1-0.1l1.8,35.8C378.1,120.7,357.7,117.3,362.1,103.4z M340,103.5c1.5-6.4,5.5-35,6.4-35v-0.1l9.4,34.6
		C359.2,117.4,338.5,117.9,340,103.5z M262.3,96.9l28.8,22.8c11.6,9.9-4.9,21.7-12.6,9.2C275.9,122.8,261.7,97.3,262.3,96.9z
		 M209,205.3C209,205.3,209,205.4,209,205.3l37-6.3c15.4-2.1,14.3,17.4-0.6,14.9C238.9,212.1,210.9,206.5,209,205.3v0.1V205.3z
		 M207.4,232.4l34.6-14.1c14.5-5.2,18.1,14.1,3,14.8C238,232.6,207.5,233.1,207.4,232.4z M217.3,263.1l30.4-21.1
		c12.8-8.3,20.9,9.6,6.4,13.7C247.2,256.7,217.6,263.7,217.3,263.1z M233.5,289.4l24.7-26.9c10.6-10.8,22.7,5.1,9.5,12.1
		C261.3,277,233.9,290.1,233.5,289.4z M252.8,309.6h0.1l20.3-30c8.9-12.2,23.3,1.9,11.2,10.7C278.4,293.6,253.4,310.1,252.8,309.6z
		 M277.9,327.2l11.3-34c5.2-13.9,23.1-3.9,13.8,7.5C298.1,305.3,278.5,327.5,277.9,327.2z M321.7,307.9
		c-4.3,5.2-20.9,29.5-21.7,29.1l7-35.1C310.6,287.6,329.5,295.5,321.7,307.9z M340.3,311.2c-3.4,5.9-15.5,32.4-16.2,32.2H324
		l0.9-35.8C325.6,293.1,345.7,297.8,340.3,311.2z M259.9,205.9c0-47.5,40.7-86.1,90.8-86.1h0h0l0,0c50.2,0,90.8,38.5,90.8,86.1
		S400.9,292,350.7,292l0,0h0h0C300.5,292,259.9,253.5,259.9,205.9z M362.6,311.2c-2,6.3-8.2,34.6-9,34.6l-7-35
		C344.4,296.3,365.1,297,362.6,311.2z M386.3,341.8h-0.1l-14.9-32.8c-5.8-13.7,14.6-17.3,15.6-2.9
		C386.3,312.8,387.1,341.7,386.3,341.8z M415.8,331.7c0,0,0-0.1,0-0.2l-22-28.7c-8.6-12.4,10.5-19.9,14.6-6
		c0.9,6.3,7.5,32.4,7.4,34.7l0.1,0.1L415.8,331.7z M438.2,318.8L411.1,294c-10.8-10.6,6.5-21.2,13.2-8.3
		C426.5,291.9,438.8,318.4,438.2,318.8z M464.8,297.2l-34.7-13.9c-14.1-6.2-2-22.1,9.2-12.3c4.5,5,26,25.5,25.5,26V297.2z M440,268
		c-14.1-6.2-1.9-22.1,9.2-12.4c4.5,5.1,25.9,25.6,25.5,26.3L440,268z M449.5,252.7c-15-3.8-6-21.5,6.8-13.6
		c5.3,4.3,30.2,21,29.9,21.7L449.5,252.7z M456.1,236.9c-15.5-1.5-9.4-20.3,4.5-14.5c6,3.5,33.4,16.1,33.1,16.8L456.1,236.9z
		 M462.1,216.4c-15.2,2.7-15-16.9,0-15c6.7,1.7,36.8,6.6,36.8,7.4L462.1,216.4z"/>
	<path fill="#6FDCFF" d="M65,310.5c0.2,0,0.4,0.1,0.6,0.1C65.4,310.5,65.2,310.4,65,310.5z"/>
	<path fill="#6FDCFF" d="M399.1,85.5c0.4-0.8,0.5-1.3,0.1-1.6c-0.1,0.6-0.1,1.1-0.2,1.8C399,85.7,399.1,85.6,399.1,85.5z"/>
	<path fill="#6FDCFF" d="M78,336.1c0,0.4,0,0.8,0,1.2c-0.1,1.6-0.1,3.2,0,3.6c0.1,0.9,4.1,3.6,6.4,4.1c0.8,0.2,1.6,0.8,2.3,2
		l0.2-0.5C88.4,344.4,85.3,337.4,78,336.1z"/>
	<path fill="#6FDCFF" d="M76.1,326.7c8.6-0.3,12.4-8.3,10.9-10.7l-7.5-16.1c-0.2,0.5-0.4,0.9-0.6,1.4c-0.4,1.2-1.1,1.9-1.9,2.1
		c-1.8,0.3-1.8,2-0.1,3.5c0.7,0.6,1.3,1.6,1.3,2.3c0,2.3,0.8,3.2,2.5,3.2c1,0,2,0.3,2.2,0.6c0.3,0.4-0.6,0.6-2.3,0.6
		c-1.5-0.1-3.2,0-3.8,0c-0.4,0-1.1-0.2-1.8-0.6c0,1-0.2,1.9-0.2,1.9l-12.2-1c0,0.1,0,0.1,0,0.2c0.2,0.5,0.4,1,0.6,1.6
		c0.3,0.4,0.7,0.9,1.1,1.3c1.4,1.3,2.3,1.7,3.4,1.4c1.8-0.5,4.2,1.1,4.2,2.6c0,0.6,0.4,1.6,0.9,2.3c0.4,0.7,1,2.2,1.3,3.4
		C74.6,326.7,75.3,326.8,76.1,326.7z"/>
	<path fill="#6FDCFF" d="M395.8,79.1c-0.2,0-0.4,1.9-0.4,4.2c0.7-1.2,1.4-2.2,2-3.1C396.8,79.6,396.2,79.1,395.8,79.1z"/>
	<path fill="#6FDCFF" d="M218.7,158.1c-0.4-0.2-0.7-0.5-1-0.7C218,157.8,218.3,158,218.7,158.1z"/>
	<path fill="#6FDCFF" d="M223.2,161.1c0.2,0,0.4,0.1,0.6,0.1c-1-0.6-1.9-1.2-2.8-1.7C221.1,160.2,222,160.9,223.2,161.1z"/>
	<path fill="#6FDCFF" d="M71.9,148.7c-1.2-0.1-2.3-0.5-3.2-1c-1.5,1.3-3.4,2.4-4.5,2.4c-0.9,0-2.6,0.8-4,1.9
		c-2.7,2.1-2.5,2.1-5.2,1.3c-0.6-0.2-1.1-0.2-1.5-0.2c2.3,2.6,4,5.8,5.6,7.5C62.1,157.7,64.6,149.6,71.9,148.7z"/>
	<path fill="#6FDCFF" d="M76.1,144.2c2.2-0.1,4.1-0.7,5.7-1.6c-0.5-0.2-1.1-0.3-1.7-0.4c-1.8-0.3-2.9-0.8-3.3-1.6
		c-0.9-1.6-1.8-0.8-1.8,1.5c0,1.9-0.1,1.9-1.2,0.9c-1.3-1.2-2.3-0.9-2.5,0.5C72.6,144,74.2,144.3,76.1,144.2z"/>
	<path fill="#6FDCFF" d="M44.1,244c-4.7,0-8,2.8-8,5.2c0,2.4,2.4,3,5.7,3c3.4,0-1.4-1.6,1.4-3c2.8-1.4,4.8,2.1,4.8,4.1
		c0,2-6.1,2.7-10.7,1.5c1.7,3.3,3,6.2,2.8,6.5c-0.5,0.8-1.7,0.8-3.5,0c0.5,0.9,1.2,1.9,2.2,3.2c0.4,0,0.8,0.1,1.2,0.1
		c3.5,0.4,6.6,0.9,6.9,1.2c0.9,0.8-2.8,1.4-4.1,0.6c-1.1-0.7-2.1-0.8-2.8-0.5c0.4,0.5,0.8,1,1.3,1.6c-0.7-0.5-1.3-0.9-1.8-1.2
		c-0.1,0.1-0.2,0.2-0.3,0.3c-0.9,1.1,1,2.9,5.3,5c0.7,0.3,1.3,0.6,2,0.9c3.9-8,6.9-14.7,7.2-17.4C54.6,246.4,48.8,244,44.1,244z"/>
	<path fill="#6FDCFF" d="M58.9,254.3c-0.1,1.3-0.4,2.4-0.9,3.2l-7.4,16c1.6,0.1,3-0.2,4.5-0.8c1.4-0.6,3.6-1.4,4.9-1.6
		c1.3-0.2,2.9-1,3.7-1.9l1.1-1.1l-0.2-0.4h-1.9c-1.4,0-2.7-0.2-2.9-0.4c-0.8-0.7,0.8-1.9,2.1-1.6c0.8,0.2,1.3,0,1.3-0.4
		c0-0.2,0.1-0.3,0.2-0.3l-3.4-7.3C59.3,256.7,59,255.6,58.9,254.3z"/>
	<path fill="#6FDCFF" d="M81.8,254.5c-4.8,1.6-12,0.9-12-1.2c0-2.1,2-5.5,4.8-4.1c2.8,1.4-1.9,3,1.4,3s5.7-0.5,5.7-3
		s-3.3-5.2-8.1-5.2c-4.7,0-10.5,2.4-9.5,11.1c0.2,1.8,1.6,5.2,3.6,9.7c0.4,0,0.7-0.2,1-0.6c0.4-0.4,1.1-0.8,1.5-0.6s1.3-0.4,1.8-1.3
		c0.8-1.1,1.8-1.7,3.8-1.9c2-0.3,3.7-0.1,5.5,0.8C82.7,258.7,82.4,257.5,81.8,254.5z"/>
	<path fill="#6FDCFF" d="M200.7,311c-0.4,0.6-0.8,2.1-0.8,3.2c0,1.7,0.7,2.7,4.2,6c3.3,3.1,4.3,3.8,5,3.2c0.6-0.5,0.8-1.4,0.4-3.3
		c-0.6-3.5-1.1-4.1-1.6-2.3c-0.4,1.1-0.4,0.7-0.4-1.5c0.1-2.6-0.1-3.2-1.6-4.3c-1.9-1.4-3.1-1.1-1.8,0.5c0.7,0.8,0.5,0.9-0.9,0.9
		c-1.5,0-1.7-0.2-1.4-1.6C202.4,309.9,201.7,309.4,200.7,311z"/>
	<path fill="#6FDCFF" d="M184.6,309.6c0,0.5,1.6,2.9,3.1,5.2l3.2-0.6C188.1,312.2,184.6,308.9,184.6,309.6z"/>
	<path fill="#6FDCFF" d="M221.1,310c-0.3,0.5-2.1,0.9-4.4,0.9c-3.3,0.1-4,0.6-3.6,2.8c0.3,1.6,0.5,1.8,2.6,1.4
		c6-1.1,8.9-1.2,9.1-0.3c0.1,0.5,1,4.2,1.9,8.2c1.4,6.3,1.6,7.6,0.9,9.6c-0.7,2.1-0.6,2.5,0.8,4c0.8,0.9,5.3,6.8,10.1,13.1L247,361
		l10.9-1.4l10.9-1.4l4.4,0.7c-4.2-2.4-15.8-13.5-21.3-16.7C240.2,332.7,229.9,321.9,221.1,310z"/>
	<path fill="#6FDCFF" d="M58.9,225.7c0.1-1.3,0.4-2.4,0.9-3.2L87,164c1.5-2.4-2.3-10.4-10.9-10.7c-9-0.7-12.1,8.8-13.7,12.9l12.3-1
		c0,0,0.5,2,0,3.2c-6.4,0.4-12.3,1.6-12.3,1.6l-0.5,6.2h6l-0.4,2.8c0,0-5.1-0.3-5.6,0s-1,6.3-1,6.3s-1,0.3-2,0.3s-2-0.3-2-0.3
		s-0.4-6-0.9-6.3s-5.6,0-5.6,0l-0.5-2.8H56l-0.5-6.2c0,0-6-1.2-12.3-1.6c-0.4-1.2,0-3.1,0-3.1l12.3,0.9c-0.7-1.8-1.7-4.7-3.4-7.3
		c-0.6,0.3-1.5,0.7-2.4,1.2c-1.7,0.8-3,1.7-3,2.1c0,0.8-3.6,0.5-5.9-0.4c-0.9-0.4-1.1-0.3-0.8,0.9c0.3,0.7,0.7,3.6,1,6.5
		c0.3,2.8,0.8,6.2,1,7.4c0.4,2.4-0.6,3.8-3.3,4.5L58,222.5C58.5,223.3,58.8,224.4,58.9,225.7z"/>
	<path fill="#6FDCFF" d="M275.6,359.3l3.4,0.5l10.2,1.6l1.6-0.7c-5.7-2.3-10-4.6-10.6-4.5C279.1,356.7,277.6,358.8,275.6,359.3z"/>
	<path fill="#6FDCFF" d="M31.6,262.2c0,0.5,0.2,0.8,0.8,1.1c0.4-0.8,0.7-1.7,0.9-2.6C32.3,260.9,31.6,261.5,31.6,262.2z"/>
	<path fill="#6FDCFF" d="M69.9,311.1c0.8,0.1,1.7,0.2,2.5,0.3C71.7,311.1,70.9,311,69.9,311.1z"/>
	<path fill="#6FDCFF" d="M183.2,315.8l0.4-0.1C183.4,315.6,183.2,315.7,183.2,315.8z"/>
	<path fill="#FFE400" d="M76.1,331.4c0.1,0.1,0.1,0.2,0.2,0.3c1.2,1.8,1.7,2.9,1.8,4.4c7.2,1.3,10.3,8.3,9,10.5l-0.2,0.5
		c0.3,0.4,0.5,0.9,0.8,1.5l1.5,3.1l1.6,0c1.5-3.4,2.4-5.8,2.4-6.9C93.1,339.3,88.4,332.1,76.1,331.4z"/>
	<polygon fill="#FFE400" points="65.1,267.6 64.5,267.6 64.7,268.1 	"/>
	<path fill="#FFE400" d="M36.1,261.1c-0.9-0.4-2-0.5-2.8-0.4c-0.2,0.9-0.4,1.8-0.9,2.6c0.9,0.4,2.8,0.7,6.4,1.1
		c-1-1.3-1.7-2.3-2.2-3.2C36.5,261.3,36.3,261.2,36.1,261.1z"/>
	<path fill="#FFE400" d="M85.8,249.5c0.2-2.3-1-5.2-3.1-6.6c-3.8-3.4-12.2-3.6-17.2-1.4c-4.4,2-6.3,6.3-6.6,10.1
		c-0.3-3.8-2.2-8.1-6.6-10.1c-5-2.2-13.4-2-17.2,1.4c-1.2,0.8-2,2-2.6,3.3c1.3,2.2,3.2,5.6,4.7,8.7c4.6,1.2,10.7,0.5,10.7-1.5
		c0-2-2-5.5-4.8-4.1c-2.8,1.4,2,3-1.4,3c-3.3,0-5.7-0.6-5.7-3c0-2.4,3.3-5.2,8-5.2c4.7,0,10.5,2.4,9.6,11c-0.3,2.7-3.3,9.4-7.2,17.4
		c1.5,0.6,2.9,1,4.1,1.1l7.4-16c0.5-0.8,0.8-1.9,0.9-3.2c0.1,1.3,0.4,2.4,0.9,3.2l3.4,7.3c0.2-0.2,0.5-0.2,0.8-0.1
		c0.5,0.3,1.1,0.1,1.3-0.2c0.3-0.4,0.8-0.4,1.6,0c0.3,0.2,0.6,0.3,0.9,0.3c-2-4.4-3.4-7.9-3.6-9.7c-1-8.7,4.8-11.1,9.5-11.1
		c4.8,0,8.1,2.7,8.1,5.2s-2.4,3-5.7,3s1.4-1.6-1.4-3c-2.8-1.4-4.8,2-4.8,4.1c0,2.1,7.2,2.8,12,1.2c0.6,3,0.9,4.2-0.5,6.7
		c1.5,0.7,3,1.9,4.6,3.7c0.1,0.1,0.3,0.3,0.4,0.4c0.2,0.1,0.5,0.1,0.7,0.2C81.7,260.9,85.6,251.8,85.8,249.5z"/>
	<path fill="#FFE400" d="M63.1,315.6c-0.2-0.6-0.4-1.1-0.6-1.6C62.5,314.5,62.7,315,63.1,315.6z"/>
	<path fill="#FFE400" d="M93.1,317.8c0-2.3-4.3-11-9.5-21.3c-0.4,0.1-0.7,0.2-0.8,0.2c-0.8-0.2-2.3,1.5-3.2,3.2L87,316
		c1.5,2.4-2.3,10.4-10.9,10.7c-0.8,0.1-1.5,0-2.2,0c0,0,0,0,0,0c0.2,1.1,1.1,3.1,2.1,4.6C88.4,330.6,93.1,323.4,93.1,317.8z"/>
	<path fill="#FFE400" d="M74.9,312.9c-0.4-0.2-0.8-0.4-1.2-0.7c-0.5-0.3-0.9-0.6-1.3-0.8c-0.8-0.1-1.7-0.2-2.5-0.3
		c-0.1,0-0.2,0-0.3,0c-1.3,0.3-2.8,0.1-3.5-0.4c-0.2-0.1-0.3-0.2-0.5-0.2c-0.2,0-0.4-0.1-0.6-0.1c-0.4,0-0.8,0.3-1.4,1
		c-0.8,0.8-1.2,1.6-1.2,2.4l12.2,1C74.7,314.8,74.9,313.9,74.9,312.9z"/>
	<path fill="#FFE400" d="M40,265.9c-0.2,0.1-0.4,0.2-0.5,0.4c0.5,0.4,1.1,0.7,1.8,1.2C40.8,266.9,40.4,266.4,40,265.9z"/>
	<path fill="#FFE400" d="M44.1,236c-4.7,0-8-2.8-8-5.2c0-2.4,2.4-3,5.7-3c3.4,0-1.4,1.7,1.4,3c2.8,1.4,4.8-2.1,4.8-4.1
		c0-2.1-7.2-2.8-11.9-1.2c-1-4.7-1.4-5,5.2-13c-4.7,3.1-5.2,3.8-10.5,2.1c5.2,4.5,1.4,13.7,1.2,16c-0.2,2.3,1,5.1,3.1,6.5
		c3.8,3.4,12.2,3.6,17.2,1.4c4.4-2,6.3-6.3,6.6-10.1c0.3,3.8,2.2,8.1,6.6,10.1c5,2.2,13.4,2.1,17.2-1.4c2.1-1.4,3.3-4.4,3.1-6.6
		s-4.1-11.4,1.2-16c-5.3,1.8-5.7,1.1-10.5-2c6.6,8,6.2,8.3,5.3,13c-4.8-1.6-12-0.8-12,1.2c0,2.1,2,5.6,4.8,4.2
		c2.8-1.4-1.9-3.2,1.4-3.2s5.7,0.8,5.7,3.2c0,2.4-3.3,5.1-8.1,5.1c-4.7,0-10.5-2.4-9.5-11c1-8.8,29-56.9,29-62.8
		c0-5.7-4.9-13-17.6-13.6c-0.5,0-0.9,0.1-1.4,0.1c-0.8,0.1-1.5,0-2.2,0c-7.3,0.9-9.8,9-12.8,11.9c-1.6-1.7-3.2-4.8-5.6-7.5
		c-1.6,0-2.1,1.2-1.2,3.3c0.4,1.1,0.7,2,0.6,2.1c-0.1,0-0.4,0.2-0.8,0.4c1.7,2.6,2.7,5.5,3.4,7.3l-12.3-0.9c0,0-0.4,1.9,0,3.1
		c6.3,0.4,12.3,1.6,12.3,1.6l0.5,6.2h-6.1l0.5,2.8c0,0,5.1-0.3,5.6,0s0.9,6.3,0.9,6.3s1,0.3,2,0.3s2-0.3,2-0.3s0.5-6,1-6.3
		s5.6,0,5.6,0l0.4-2.8h-6l0.5-6.2c0,0,5.9-1.2,12.3-1.6c0.5-1.2,0-3.2,0-3.2l-12.3,1c1.6-4.1,4.7-13.6,13.7-12.9
		c8.6,0.3,12.4,8.3,10.9,10.7l-27.2,58.5c-0.5,0.8-0.8,1.9-0.9,3.2c-0.1-1.3-0.4-2.4-0.9-3.2L38.7,181c-0.3,0.1-0.6,0.1-0.9,0.2
		c-2.1,0.4-2.5,0.3-4.5-2.2c-1.5-1.8-2.5-3.8-3-6.1c-0.8-3.7-3.1-7.6-5.3-9.1c3.1,10.3,27.7,53,28.7,61.2
		C54.6,233.6,48.8,236,44.1,236z"/>
	<path fill="#FFE400" d="M74.1,148.7c0.5,0,0.9,0,1.4-0.1c3-0.1,5.6-0.6,7.8-1.4c-0.1-0.4,0.1-0.8,0.6-1.1c1.3-1,0.1-2.7-2.1-3.5
		c-1.6,0.9-3.5,1.5-5.7,1.6c-1.9,0.1-3.5-0.2-4.8-0.8c0,0.2-0.1,0.5-0.1,0.7c0,0.9-1.1,2.3-2.5,3.5c1,0.5,2,0.8,3.2,1
		C72.6,148.7,73.3,148.8,74.1,148.7z"/>
	<polygon fill="#FFE400" points="350.7,119.8 350.7,119.8 350.7,119.8 	"/>
	<polygon fill="#FFE400" points="350.7,292 350.7,292 350.7,292 	"/>
	<ellipse fill="#FFE400" cx="350.7" cy="205.9" rx="90.8" ry="86.1"/>
	<path fill="#FFE400" d="M247.7,241.9l-30.4,21.1c0.3,0.6,29.9-6.4,36.8-7.5C268.6,251.5,260.5,233.6,247.7,241.9z"/>
	<path fill="#FFE400" d="M430,134.1l18.1-31.3c-0.6-0.5-24.3,17.7-30.1,21.3C406.6,133.8,422.1,146.8,430,134.1z"/>
	<path fill="#FFE400" d="M454.5,172.6l31.8-19.1c-0.2-0.6-30.2,4.4-37.1,5C434.3,161.6,441.2,180,454.5,172.6z"/>
	<path fill="#FFE400" d="M273.2,279.6l-20.3,30h-0.1c0.5,0.5,25.6-16,31.6-19.3C296.5,281.5,282.1,267.4,273.2,279.6z"/>
	<path fill="#FFE400" d="M355.8,103l-9.4-34.6v0.1c-0.9,0-4.9,28.6-6.4,35C338.5,117.9,359.2,117.4,355.8,103z"/>
	<path fill="#FFE400" d="M346.6,310.8l7,35c0.7,0,6.9-28.3,9-34.6C365.1,297,344.4,296.3,346.6,310.8z"/>
	<path fill="#FFE400" d="M252.6,161.4L217,156c0,0.5,0.3,1,0.7,1.4c0.3,0.2,0.7,0.4,1,0.7c0.3,0.1,0.5,0.2,0.8,0.2
		c0.6,0,1.2,0.6,1.4,1.2c0,0,0,0,0,0c0.9,0.5,1.8,1.1,2.8,1.7c0.7,0.2,1,0.3,1,0.6c7.9,4.8,18.6,11.2,22,13.5
		C260.1,182.4,267.9,164.2,252.6,161.4z"/>
	<path fill="#FFE400" d="M307,301.9l-7,35.1c0.7,0.3,17.4-23.9,21.7-29.1C329.5,295.5,310.6,287.6,307,301.9z"/>
	<path fill="#FFE400" d="M246,199l-36.9,6.4c1.8,1,29.9,6.7,36.3,8.6C260.3,216.4,261.4,196.9,246,199z"/>
	<path fill="#FFE400" d="M415.8,331.7l0.1-0.1l-0.1-0.1C415.8,331.6,415.8,331.7,415.8,331.7z"/>
	<path fill="#FFE400" d="M308.5,111.1l-19-21.7c0,0,0,0,0,0c-0.8,0.5-1.9,0.8-3.4,1c2.6,8.7,7.3,23.1,8.3,27.6
		C299.6,131.6,318.1,122.7,308.5,111.1z"/>
	<path fill="#FFE400" d="M272.8,131.3l-33.2-16.5c0,0-0.1,0-0.1,0c1.1,2.3,19.2,22.8,23,28C272.8,153.5,286.3,138.5,272.8,131.3z"/>
	<path fill="#FFE400" d="M408.4,296.8c-4.2-13.9-23.3-6.4-14.6,6l22,28.7C416,329.2,409.4,303,408.4,296.8z"/>
	<path fill="#FFE400" d="M389,115c2.6,0,5-1.2,6.6-3.3c0,0,1.8-14.2,3.2-24.6c-0.2-0.2-0.1-0.7,0.2-1.4c0.1-0.7,0.2-1.2,0.2-1.8
		c0,0,0,0-0.1-0.1c-0.3-0.2-0.6-0.9-0.6-1.5c0-0.6-0.5-1.4-1.1-2.1c-0.6,0.9-1.3,2-2,3.1c0,0,0,0,0,0.1c0,4-0.1,4.4-1.6,5
		c-1.1,0.5-1.6,1.3-1.6,2.3c0,1.4-1.2,2.2-2.5,1.8c-3.7,6-7.3,11.9-9,14.2C380.7,111.3,384.4,115,389,115z"/>
	<path fill="#FFE400" d="M209,205.3v0.1V205.3C209,205.4,209,205.3,209,205.3z"/>
	<path fill="#FFE400" d="M456.4,239.2c-12.8-7.9-21.9,9.7-6.8,13.6l36.7,8.1C486.6,260.2,461.7,243.4,456.4,239.2z"/>
	<path fill="#FFE400" d="M462.1,216.4l36.8-7.7c0-0.7-30.1-5.7-36.8-7.4C447.1,199.6,447,219.1,462.1,216.4z"/>
	<path fill="#FFE400" d="M439.3,271.1c-11.2-9.8-23.3,6.1-9.2,12.3l34.7,13.9v-0.1C465.3,296.6,443.8,276.1,439.3,271.1z"/>
	<path fill="#FFE400" d="M449.2,255.6c-11.1-9.7-23.3,6.2-9.2,12.4l34.7,13.9C475.1,281.2,453.7,260.7,449.2,255.6z"/>
	<path fill="#FFE400" d="M460.6,222.4c-13.9-5.8-20,13-4.5,14.5l37.6,2.2C494,238.5,466.6,225.9,460.6,222.4z"/>
	<path fill="#FFE400" d="M241.9,218.3l-34.6,14.1c0.1,0.6,30.6,0.2,37.6,0.7C260.1,232.4,256.4,213.1,241.9,218.3z"/>
	<path fill="#FFE400" d="M371.3,309.1l14.9,32.8h0.1c0.7-0.1,0-29,0.5-35.6C385.9,291.8,365.5,295.4,371.3,309.1z"/>
	<path fill="#FFE400" d="M411.1,294l27.1,24.8c0.6-0.4-11.7-26.9-13.9-33.1C417.6,272.8,400.3,283.4,411.1,294z"/>
	<path fill="#FFE400" d="M324.9,307.7l-0.9,35.8h0.1c0.7,0.2,12.8-26.4,16.2-32.2C345.7,297.8,325.6,293.1,324.9,307.7z"/>
	<path fill="#FFE400" d="M258.2,262.5l-24.7,26.9c0.4,0.6,27.7-12.4,34.2-14.8C280.9,267.7,268.7,251.8,258.2,262.5z"/>
	<path fill="#FFE400" d="M303,300.6c9.3-11.4-8.5-21.3-13.8-7.5l-11.3,34C278.5,327.5,298.1,305.3,303,300.6z"/>
	<path fill="#FFE400" d="M260.4,144.4L228.5,134c-0.4,0.3-0.8,0.4-1,0.4c-0.3,0-0.4,0.4-0.3,0.9c6,5.5,21,18.1,24.8,22
		C263.9,166.3,274.9,149.6,260.4,144.4z"/>
	<path fill="#FFE400" d="M291.1,119.7l-28.8-22.8c-0.6,0.4,13.6,25.9,16.2,32C286.2,141.4,302.8,129.7,291.1,119.7z"/>
	<path fill="#FFE400" d="M331.2,104.7c0,0-10.3-18.8-14.4-26.3c-1,0.4-2,0.7-2.9,1c0.6,8.9,1.9,24.6,1.9,29.3
		C317.8,122.8,337.8,117.9,331.2,104.7z"/>
	<path fill="#FFE400" d="M422.1,93.8l2.2,0.4v-2.9c0-0.3,0-0.6,0-0.9c-1,0.9-2.1,2-3.5,3.2C421.2,93.7,421.6,93.8,422.1,93.8z"/>
	<path fill="#FFE400" d="M245.9,177.4l-4.8,0c-0.4,1-1,2.9-1.5,5.1l-1.4,5.9l-2.1,0.9c2.9,1.2,5.2,2.2,6.6,2.9
		C256.9,196.9,261.5,177.8,245.9,177.4z"/>
	<path fill="#FFE400" d="M413.3,121.5l7.2-17.7l-1.6-1.2c-2.5-1.9-2.7-3-1.5-5.7c0,0,0-0.1,0.1-0.1c-6.5,6.2-14.5,13.9-17.5,16.3
		C390.1,123.9,407.2,135,413.3,121.5z"/>
	<path fill="#FFE400" d="M444.1,152.2l26.7-25.3c-0.4-0.6-28.5,10.6-35.2,12.6C421.8,145.6,432.8,162.2,444.1,152.2z"/>
	<path fill="#FFE400" d="M377.8,106L376,70.2l-0.1,0.1c-0.7-0.1-10.8,27.1-13.8,33.1C357.7,117.3,378.1,120.7,377.8,106z"/>
	<path fill="#FFE400" d="M460.2,196l35.4-11.7c-1.9-0.8-30.6-2.3-37.3-3.2C443.1,180.9,445.4,200.4,460.2,196z"/>
	<path fill="#FFE400" d="M495.7,184.3L495.7,184.3c0,0.1,0,0.1,0,0.1V184.3z"/>
	<path fill="#FFE400" d="M331.3,369.7c4-0.2,3.7-4.4,3.7-4.4s-55.9-6.6-88.5-36.1c-32.8-29.7-33.1-60.5-34.7-66.1l0,0
		c-0.2-5.3-2.1-17.2-3.3-16.3c-2.6,0.9-4.9,7-3.7,17c1.2,9.9,4.2,13.4,2.3,14.1c-1.9,0.7-10-13.7-13-30.6c-3-17,1.4-23.3,0.9-23.8
		c-0.2-0.2-2.3,1.1-4.7,5.5c-2.3,4.4-0.9,18.7,2.3,33.5s7.5,20.7,7.5,20.7s-6.5-3.5-11.2-15c-4.7-11.2-4.7-23.6-6.3-22.9
		c-1.4,0.7-2.1,9.9,4.2,25.8c6.1,15.9,13,25.8,13,25.8s7.7-4.8,9.8-4.8c1.8,0,3.2,4.8,7.6,12.2c0.8-0.4,2.1-0.1,2.8,0.8
		c0.4,0.5,0.6,1.6,0.4,2.5c-0.3,0.9-0.1,1.8,0.4,2c0.3,0.2,0.3,0.4,0.2,0.5c8.8,11.9,19.2,22.7,30.8,32.2
		c5.5,3.2,17.1,14.3,21.3,16.7l2.4,0.4c2.1-0.5,3.5-2.7,4.5-3c0.7-0.2,4.9,2.2,10.6,4.5l1.7-0.8l3.3-1.5l1.3,1.5
		c0.7,0.9,1.6,2,2,2.6c0.4,0.6,1.5,1.3,2.6,1.6c0.3,0.1,0.5,0.2,0.8,0.4C312.3,367.2,327.8,370.1,331.3,369.7z"/>
	<path fill="#FFE400" d="M321.1,389.5c1.6-2.4-0.2-6.8-3-4c-1.5,1.3-3.2,2.4-4.9,3.3c0.1,3.3,0.6,4.1,2.4,4.3
		C318.1,391.9,320.3,390.5,321.1,389.5z"/>
	<path fill="#FFE400" d="M493.7,355.6c0-0.7,27.5-7,28-8.1c0.5-1.1-53.6,11.2-53.1,10.3c0.5-1.1,61-17.2,62-18.7
		c0.7-1.3-35.9,7-36.1,6.2c-0.5-0.7,43.6-13,44.5-14.5c0.5-2-32.6,5.9-32.1,4.4c0.2-1.8,34.7-8.1,34.7-9.5s-26.3,2.9-26.1,1.8
		c0.5-1.1,7.7-5.7,22.4-9.2c14.4-3.5,24-11,23.5-14.1c-1.6-2.2-13.7,7.3-26.3,9.9c-12.8,2.9-21,2.4-21,1.1
		c0.5-1.8,47.8-19.4,48.4-22c0.7-2.9-36.3,9.5-37.3,7.3c-0.5-2.4,17-3.5,30.3-14.5c13.3-11,16.8-28.8,14.9-29.5
		c-1.6-0.7-3,12.3-17,21.4c-13.7,8.8-27,7-28.7,5.3c-1.9-1.5,9.8-9.2,19.6-19.8s16.8-33.2,15.6-35.4c-1.2-2-7,7.5-13,18.3
		c-6.3,10.6-24.5,24.9-26.3,22.7c-1.6-2.4,5.6-7.9,11.6-18.9c6.3-11,16.1-39.2,12.3-39.2c-3.5,0-9.1,17.2-16.5,33.7
		s-25.2,30.2-26.6,28.6c-1.4-1.5,2.8-17,3.3-22c0.2-5.3-1.6-9.7-3.3-8.6c-1.9,0.9,4.2,2.6-8.4,26c-12.8,23.6-60.6,57.7-77.6,68.3
		s-69.2,30.4-72.9,32.6c-8.4,3.7-6.5,8.4-13,11.7c-4.4,2.4-7,4.6-4,7.7l0,0c0.2,0.9,26.6-11,29.1-11.7c7-2.4,6.8-6.6,21.4-10.3
		c8.2-4,9.6-7.9,17.5-10.6c5.1-2.2,32.1-13,40.1-17.6c7.9-4.8,40.5-35.4,50.3-41s33.3-9,40.3-7c4.4,3.5-15.4,10.8-15.8,15.2
		c0.5,3.5,5.4-2,9.3-1.8c4,0.4-22.1,17.4-20.5,18.9c1.6,1.5,13.3-4,14.9-2.4c1.6,1.5-24.2,11-23.8,13.2c0.9,2,15.4-5.5,16.3-4
		c0.5,1.8-28.2,11.9-27.5,13.2c1.9-0.4,21.9-4.8,22.6-3.5c0.7,1.5-44.3,13.9-45.2,16.3c-0.7,2.2,6.8-0.7,7,0c0.2,0.3-3.4,2-7.7,4.2
		c0.7,0.3,1.4,0.6,2.3,1c6.3,2.6,11.7,4,17,4.4c16.9-4.6,42-10.9,42.2-11.5C515.8,352.3,493.7,356.3,493.7,355.6z"/>
	<path fill="#FFE400" d="M331.3,407.4c5.6,0.4,17.9-2.9,23.8-2.9s7,0.7,7.5-1.8c0.7-2.2-18.2-0.7-26.6-0.9
		c-4.3-0.2-9.2,0.2-13.8,0.6c0.7,2.3,1.6,4.2,2.5,5.4C327,407.5,329.1,407.2,331.3,407.4z"/>
	<path fill="#FFE400" d="M191.1,299.3c0.2-0.2,6.3,3.1,7.2,1.1c1.2-2.2-4.2-5.1-9.3-9h0c-6.3-5.5-16.1-24.7-18.2-23.8
		c-2.3,1.1,15.8,28.6,16.3,30.8c0.5,2.6,4.4,10.1,1.4,9c-3-1.1-24.7-22.7-22.1-18.5s18.9,23.1,17.9,24.2s-13.5-10.6-14-9
		c-0.2,1,7.6,8.4,10.8,12.1l2.1-0.4c0-0.1,0.2-0.1,0.4-0.1l4.1-0.8c-1.5-2.3-3.1-4.8-3.1-5.2c0-0.7,3.5,2.6,6.2,4.6l3-0.6
		C193.3,309.4,190.9,299.5,191.1,299.3z"/>
	<path fill="#FFE400" d="M174.3,312.7c0,0.7,1.2,2.4,2.7,4.3l2.6-0.5C177.3,314.4,174.3,311.6,174.3,312.7z"/>
	<path fill="#FFE400" d="M332.6,409.6c0.7,0,1.5,0,2.3,0c0.7,0,1.3,0,1.9,0C335,409.4,333.6,409.4,332.6,409.6z"/>
	<path fill="#FFE400" d="M344.1,410.5c0.2,0.1,0.3,0.1,0.5,0.2l2.9,0.9l-0.6,2.3c-0.4,1.8-0.3,2.6,0.6,3.5c1.8,1.9,3.2,2.5,5.8,2
		l2.5-0.4v-3c0-2.9,0.1-3,2.4-4c1.8-0.8,3.8-2.3,4.9-3.5c-1.2,0.3-2.4,0.6-3.6,0.9C353.5,410.8,348.4,410.8,344.1,410.5z"/>
</g>
</svg>
