<?xml version="1.0" encoding="utf-8"?>
<!-- Generator: Adobe Illustrator 17.1.0, SVG Export Plug-In . SVG Version: 6.00 Build 0)  -->
<!DOCTYPE svg PUBLIC "-//W3C//DTD SVG 1.1//EN" "http://www.w3.org/Graphics/SVG/1.1/DTD/svg11.dtd">
<svg version="1.1" id="flag-icon-css-la" xmlns="http://www.w3.org/2000/svg" xmlns:xlink="http://www.w3.org/1999/xlink" x="0px"
	 y="0px" viewBox="0 0 640 480" enable-background="new 0 0 640 480" xml:space="preserve">
<g>
	<path fill="#CE1126" d="M369.2,364.4c3,1.1,5.6,2.3,5.7,2.6c0.2,0.4-0.4,1.1-1.9,2.1c-1.3,0.9-2.3,1.9-2.3,2.3
		c0,0.4,0.4,1.4,0.9,2.4c0.5,0.9,1,2.4,1.2,3.2c0.3,1.6,2.1,2.9,3.9,2.9c2.6,0,5.3,3,6.6,7.3c0.6,1.9,0.5,2-1.1,3.8
		c-1,1.1-1.8,2.5-1.9,3.6c-0.6,3.7-0.9,4.1-2.8,4.4c-2.2,0.3-4.4,1.2-4.4,1.7c0,0.9,2.2,2.4,3.6,2.4c1.3,0,1.5,0.2,1.5,1.2
		c0,0.8-0.3,1.3-1.2,1.7c-0.7,0.2-2.2,1.3-3.4,2.3c-2.9,2.4-3.3,4.1-1.5,6.3c0.7,0.9,1.5,1.6,1.9,1.6c0.3,0,0.6,0.4,0.6,0.9
		c0,0.5,0.6,1.6,1.2,2.6c1.3,1.9,1,2.5-1,2.5c-0.8,0-0.9,0.2-0.8,1.6c0.1,1.2,0,1.7-0.6,1.9c-0.5,0.2-0.6,0.6-0.5,1.1
		c0.2,0.6,0,0.9-0.8,1c-1,0.1-1.1,0.5-1.4,3.7c-0.2,1.9-0.6,4.4-0.8,5.4c-0.3,1.2-0.3,2.2,0,3c0.4,1.1,0.2,1.4-2.8,3.8
		c-1.8,1.4-3.2,2.9-3.2,3.2c0,0.5-1.8,1-5.2,1.3c-0.7,0-1.5,0.4-1.9,0.7c-0.4,0.3-1,0.4-1.4,0.2c-0.4-0.1-0.8,0-1,0.2
		c-0.1,0.3-0.8,0.5-1.3,0.5c-0.9,0-1.2,0.3-1.3,1.5c-0.1,0.9,0,1.6,0.4,1.8c0.3,0.2,0.7,0.9,0.9,1.6c0.4,1.5,3.1,5.7,4.4,6.9
		c0.9,0.8,1.5,0.8,6.1,0.6c4.2-0.3,5.3-0.2,6.5,0.4c0.8,0.4,1.4,1.1,1.4,1.5c0,0.5,0.3,0.6,0.9,0.4c0.5-0.1,1.1,0,1.3,0.3
		s1.4,1,2.6,1.5c1.4,0.6,2.1,1.2,2.1,1.8c0,1.1,0.6,2.3,2.8,5.2c1.7,2.4,1.8,2.4,4.7,2.7c1.7,0.2,3.8,0.7,4.7,1.3
		c1.7,0.9,1.8,0.9,2.4,0.1c0.3-0.5,0.6-1.2,0.6-1.5c0-1.3,1.3-2.6,2.8-2.9c1.8-0.4,1.8-1.3,0-3.4c-1.1-1.3-1.4-2-1.4-3.6
		c0-1.8-0.2-2.1-1.3-2.7c-1.5-0.8-1.9-1.6-1.9-3.6c0-0.8-0.2-1.8-0.5-2.3c-0.5-1-0.1-2.8,0.4-2c0.6,0.9,3,1.7,3.3,1.1
		c0.2-0.4,1.2-0.4,3.2-0.2c1.5,0.2,3.2,0.2,3.7,0c0.8-0.3,2.2-2.8,2.5-4.6c0.1-0.8,0.3-0.8,1.6,0.4c1.2,1,1.9,1.2,4,1.2
		c2.6,0,3.6-0.6,3.6-2c0-0.7,0.2-0.8,1.2-0.6c1.1,0.3,1.2,0.2,1-0.6c-0.2-0.7,0.1-1.1,1.6-1.7c2.2-0.9,2.6-0.6,2.6,2.1
		c0,1.4,0.2,1.7,1,1.9c0.7,0.1,1.2,0.6,1.5,1.6c0.2,0.8,0.6,1.5,0.8,1.5c0.2,0,0.8,0.4,1.3,0.9c0.5,0.5,1.4,0.9,2,0.9
		c0.9,0,1.2,0.4,1.6,2.1c0.3,1.2,1.3,2.9,2.1,3.8c1.4,1.5,1.7,1.6,2.6,1.1c1-0.5,2.3-0.5,4.6,0.2c0.6,0.2,1,0.1,1-0.2
		c0-0.7,4.2-4.6,5-4.6c0.3,0,0.6,0.2,0.6,0.4c0,0.2,0.3,0.7,0.6,1.2c0.6,0.8,0.8,0.7,4.1-0.8c1.9-0.9,3.8-1.7,4.4-1.8
		c0.6-0.1,1-0.6,1.1-1.2c0.1-0.6,0.6-1.5,1.3-2.2c0.6-0.6,1.1-1.3,1.1-1.6c0-0.7,2.2,0.9,2.5,1.9c0.3,0.8,2.4,2.3,3.4,2.3
		c0.2,0,0.8-0.9,1.4-2.1c0.6-1.4,1.4-2.2,2.1-2.4c0.6-0.1,1.7-1,2.4-1.9c1.1-1.4,1.2-1.8,0.7-2.5c-0.5-0.7-0.4-1,0.2-1.5
		c0.6-0.5,0.7-0.7,0.1-1.6c-0.8-1.3-0.2-2.4,2-3.5c1.9-0.9,2.2-1.9,0.9-2.4c-0.5-0.2-1.5-0.9-2.3-1.7c-1.2-1.1-1.5-1.9-1.5-3.2
		c0-1.7,0-1.8,1.9-2c1.1-0.1,2.3,0,2.8,0.3c0.7,0.5,1,0.4,1.8-0.6c0.5-0.6,0.9-1.5,0.9-1.9c0-0.5,0.5-1.1,1.1-1.4
		c0.6-0.2,1.4-1.4,1.9-2.5c0.5-1.2,1.2-2.1,1.5-2.1c1.2,0,0.6-2.3-1.1-4.2c-1.4-1.6-1.6-2.1-1.4-3.3c0.4-1.9-0.3-3.1-2-3.4
		c-1.7-0.4-2-0.9-1.4-2c0.7-1.3-1.3-3.2-3.9-3.6c-2.3-0.3-2.5-0.5-3.5-4.5c-0.4-1.7-0.9-2.5-1.9-3c-1-0.6-1.3-1.1-1.3-2.4
		c0-1.3-0.3-1.9-1.4-2.9c-1.3-1.2-1.3-1.3-0.7-2.1c0.4-0.5,0.7-1.4,0.7-2.2c0-1.3,0.1-1.4,3.6-2.4c2-0.6,4.3-1,5.1-1
		c1.6,0,1.8-0.2,3.6-3c1-1.5,1.1-2.1,0.9-3.6l-0.3-1.8h-2.7H470l-1.2-2c-0.9-1.6-1.7-2.3-3.3-2.9c-2.5-1-3.1-1.9-2.7-4.7
		c0.4-3-0.9-4.5-4.4-5c-2.4-0.3-2.7-0.6-5.1-3.5c-0.2-0.2-0.3-0.4-0.5-0.7h-91.6C363,361.9,365.6,363,369.2,364.4z"/>
	<path fill="#CE1126" d="M368.7,116.7c-0.2-1-0.8-1.6-1.9-2.1c-0.9-0.4-1.6-1-1.6-1.3s-0.4-0.7-0.8-0.8c-0.5-0.2-1.5-1.6-2.2-3.2
		c-1.2-2.5-1.5-2.9-2.6-2.8c-0.9,0-1.3-0.1-1.3-0.7c0-1-2.4-2.8-3.8-2.8c-0.6,0-1.3-0.2-1.6-0.5c-0.7-0.7-3.8-0.1-4.4,1
		c-0.4,0.6-0.9,0.8-1.7,0.6c-1-0.2-5.3,0.8-7.2,1.8c-0.6,0.3-1,0.3-1.2-0.1c-0.2-0.4-0.8-0.5-1.6-0.3c-0.9,0.2-1.2,0.6-1.2,1.4
		c0,0.6-0.3,1.2-0.7,1.4c-0.5,0.2-0.6,0.6-0.4,1.7c0.3,1.3,0.2,1.4-1.3,1.4c-1.6,0-1.7,0.1-1.9,1.9c-0.2,1.6-0.5,1.9-1.4,1.9
		c-0.6,0-1.2-0.3-1.2-0.6c0-0.3-1-1.7-2.2-3c-1.6-1.8-2.6-2.4-3.5-2.4c-1.5,0-3.1-1.5-3.1-2.8c0-1-0.7-1.2-2.5-0.5
		c-0.9,0.3-1.7,0.1-4-1.1c-1.6-0.9-3.2-1.4-3.5-1.3c-0.3,0.1-0.7,0-0.9-0.2c-0.1-0.3-0.6-0.5-1-0.5c-1.2,0-5.3-3.8-5.2-4.8
		c0-0.5-0.6-2.7-1.5-4.7c-1.2-2.9-1.8-3.9-2.8-4.2c-0.9-0.4-1.3-0.9-1.5-2.3c-0.2-1-0.6-2.4-1-3.2c-0.4-0.7-0.7-1.9-0.7-2.6
		c0-1.5-1.1-2.8-2.3-2.8c-0.5,0-1.1-0.3-1.4-0.6c-0.4-0.5-0.1-0.7,1.6-1.3c1.9-0.6,2.1-0.8,2.1-1.9c0-0.8,0.6-2.1,1.6-3.4
		c2.2-2.9,2.2-3.6-0.1-2.1c-1.2,0.8-1.3,0.8-0.9,0c0.2-0.5,0.3-1.1,0.3-1.3s0.4-0.6,0.8-0.8c0.4-0.2,1.9-1.5,3.3-3l2.5-2.7l-0.2-2.8
		c-0.2-3.2-1-4.1-3.5-4.1h-1.5v-3.5c0-3.1-0.1-3.5-0.9-3.5c-0.7,0-0.9,0.5-1.2,2.4c-0.3,2.5-1.3,3.7-4.1,5.3
		c-1.1,0.6-1.5,0.6-2.6,0.2l-1.3-0.6v-4.5c0-3-0.2-4.9-0.6-5.5c-0.5-0.8-0.5-1.1,0-1.4c1-0.6,0-2-2.7-3.7c-2.4-1.6-3.2-2.7-2.4-3.5
		c0.8-0.8,0.5-1.9-0.9-3.3c-0.7-0.7-1.4-1.8-1.4-2.4c0-0.6-0.4-1.3-0.9-1.5c-0.5-0.2-1.1-0.9-1.2-1.4c-0.1-0.5-0.6-0.9-0.8-0.9
		c-0.3,0-0.8-0.5-1-1.1c-0.3-0.6-0.9-1.2-1.5-1.5c-0.6-0.2-1.1-0.8-1.3-1.3c-0.1-0.5-0.4-0.7-0.7-0.6c-0.6,0.4-3.2-4.7-4.4-8.4
		c-0.4-1.3-1.3-3.1-1.9-3.8c-1-1.2-1.3-1.3-2.5-0.9c-0.7,0.2-2.5,0.4-4,0.4c-2.5,0-3.1,0.2-3.6,1.7c-0.1,0.3-0.8,0-1.6-0.6
		c-1-0.7-1.6-1.7-2.1-3.4c-0.6-2.2-0.8-2.5-2-2.5c-0.7,0-2.1,0.1-3.1,0.5c-2.3,0.7-3.3,2.2-2.7,3.8c0.4,1.1,0.2,1.5-1.5,3.5
		c-1.1,1.3-2.5,2.4-3.1,2.5c-2.4,0.5-2.5,0.6-2.2,2.2c0.1,0.8,0.5,2.2,0.8,3c0.6,1.4,0.6,1.6-0.2,2c-1,0.6-1,1.5,0.1,4.4
		c0.6,1.6,0.8,3,0.6,4.1c-0.2,1.5-0.1,1.9,0.8,2.5c0.6,0.4,1.5,0.7,1.9,0.6c0.5-0.1,0.8,0.1,0.8,0.8c0,0.6-0.2,1-0.5,1
		c-0.8,0-0.5,0.8,0.5,1.1c0.6,0.1,0.9,0.6,0.9,1.4c0,0.6,0.3,1.4,0.7,1.7c0.6,0.5,0.6,0.8-0.2,2.4c-0.6,1.1-0.9,2.7-0.9,4.2
		c0,2.1,0.2,2.6,1.4,3.9c1.7,1.8,1.4,2.5-0.8,2.5h-1.6l0.3,2.1c0.3,1.9,0.2,2.2-0.6,2.8c-0.6,0.4-1,1.1-1,1.7c0,0.6-0.4,1.8-0.9,2.6
		c-1.5,2.9-1.6,3.7-0.4,5.4c0.6,0.8,1.3,1.6,1.6,1.6c0.8,0,2,1.6,2,2.7c0,0.7-0.3,1-1.5,1.1c-1.3,0.1-1.5,0.3-1.7,1.6
		c-0.1,1.3-0.3,1.4-1.6,1.2c-1-0.1-1.7-0.7-2.4-1.8c-0.9-1.5-1.1-1.6-3-1.4c-1.6,0.2-2,0.1-1.8-0.4c0.1-0.4,0.4-0.9,0.5-1.3
		c0.4-0.9-3.6-2.6-6.2-2.6c-1.3,0-3.6,0.4-5.2,0.9c-3.9,1.2-4.4,1.2-5.2-0.4c-0.7-1.3-0.5-3.9,0.5-8c0.3-1,0.1-1.3-0.9-2
		c-1.4-1-1.5-1.9-0.3-3.7c1.3-1.9,1.2-4-0.2-5.3l-1.1-1l-1,1.7c-1.5,2.4-6,5.3-9.8,6.3c-1.8,0.5-3.8,1.3-4.7,2
		c-2.1,1.6-3.2,1.8-5.1,1c-3.1-1.3-3.3-1.2-5.9,4.3c-3.1,6.5-4.6,8.4-6.9,8.6c-1.5,0.1-1.8,0.3-1.9,1.5c-0.1,0.7-0.7,2.3-1.3,3.4
		c-0.8,1.5-0.9,2.2-0.6,2.9c0.6,1.1,0.5,1.1,3,0.5c2.4-0.6,3.6,0,2,1c-0.6,0.4-1.9,1-2.8,1.3c-1.6,0.6-2,0.5-4.2-0.5
		c-3.5-1.6-5.2-1.7-6.6-0.6c-0.6,0.5-2.1,1.3-3.4,1.8c-4.4,1.7-7.2,5.3-9.2,12.5c-1.3,4.7-1.6,5.2-3.2,6.2c-1.6,1.1-1.7,1.2-1.7,4
		c0,3.3,0.6,4.3,2.7,4.7c1.5,0.3,1.5,0.3,1.5-1.6c0-1.7,0.1-1.9,1.3-2c0.8-0.1,1.3-0.5,1.4-1.1c0.1-1.1,2.5-2.5,4-2.5
		c1.9,0,2.9,1.3,3.8,4.5c0.5,1.8,1.7,4.8,2.7,6.7c1.8,3.5,2.8,4.4,3.4,2.9c0.4-1,1.6-0.8,1.6,0.2c0,0.5-0.3,1.4-0.6,2.1h199.7
		C369.5,118.2,368.9,117.6,368.7,116.7z"/>
	<path fill="#002868" d="M451.7,354.4c0.7-0.8,0.6-0.9-0.3-2.2c-1.3-1.8-2-1.8-3.2,0c-0.5,0.8-1.3,1.8-1.9,2.1c-0.6,0.3-1,0.9-1,1.2
		c0,1.3-1.6,1-3.1-0.6c-1.6-1.7-2.4-4.4-1.5-5.3c0.7-0.9,0.1-2.1-1.7-3.8l-1.6-1.5v-5.7c0-3.6,0.3-6.7,0.7-8.2
		c0.9-3.5,0.9-4.1-0.2-3.8c-0.6,0.1-1.4-0.2-2.4-1c-0.8-0.6-1.6-1.2-1.8-1.2c-0.6,0-1.3-2.6-0.9-3.3c0.6-0.9,0.5-1.3-0.2-1.3
		c-0.7,0-1.7-1.9-1.7-3.2c0-0.5-0.3-1.1-0.7-1.4c-0.8-0.7-0.9-2.2-0.1-2.5c0.4-0.1,0.3-0.4-0.2-1.1c-0.5-0.5-0.8-1.5-0.8-2.1
		c0-1.5-1.3-1.8-1.7-0.3c-0.1,0.5-0.6,0.9-1.1,0.9c-0.8,0-2.3-1.4-2.3-2.2c0-0.2-0.5-0.7-1.2-1.1c-0.6-0.3-1.2-1-1.2-1.4
		c0-0.4-0.6-1.2-1.3-1.8c-1.3-1-2.5-2.7-5-7.3c-1.5-2.8-3-5.3-4.4-7.2c-12.8,23.8-34.7,42-61.1,50c1,1.4,1.4,2.4,1.6,3.9
		c0.3,1.9,0.6,2.5,1.9,3.5c2.2,1.7,3.8,5.1,3.8,7.9c0,2.7,1,4.6,3.8,6.4h91.6C450.7,357.9,450.3,355.8,451.7,354.4z"/>
	<path fill="#002868" d="M320,136.6c24.5,0,47,8.5,64.8,22.8c0,0,0,0,0,0h1.8v-2c0-1.2,0.2-2.2,0.5-2.4c0.3-0.2,0.1-0.7-0.5-1.5
		c-1.1-1.4-1.2-1.9-0.2-3c0.6-0.7,0.6-0.8-0.4-1.1c-0.6-0.2-1.8-1-2.6-1.7c-1.3-1.2-1.9-1.3-3.9-1.3c-3,0.1-5.7-0.6-5.6-1.3
		c0-0.3,0.1-1.2,0.1-1.9c0-0.9,0.4-1.5,1-1.7c1.3-0.4,1.2-1.9-0.3-3.4c-0.7-0.7-1.7-1.9-2.1-2.5c-0.6-1-1.2-1.3-2.5-1.3
		c-0.9,0-2.5-0.4-3.6-0.7c-1-0.4-2.3-0.8-2.9-1c-1.3-0.3-2.6-1.8-2.3-2.4c0.2-0.3,1.5-0.8,2.9-1.3c2-0.6,2.7-0.7,3.4-0.2
		c1.5,0.9,2.7,0.6,3.4-0.8c0.4-0.7,1.6-2.1,2.6-2.9c1-0.9,1.9-1.9,1.9-2.3c0-0.4-1.4-1.6-3.2-2.7c-0.4-0.3-0.8-0.5-1.1-0.7H171.4
		c0,0,0,0.1-0.1,0.1c-0.3,0.7-0.7,1.9-0.9,2.8c-0.1,0.9-0.8,2.3-1.4,3.1c-0.6,0.8-1.2,2.2-1.3,3.1c-0.1,1.2-0.5,1.8-1.8,2.6
		c-1.6,1-2.1,1.4-3.8,3.3c-1.4,1.6-1.3,7.6,0.3,11.3c2.1,5,3.9,6.3,6.3,4.3l1.4-1.2l1.4,1.2c0.7,0.6,1.7,1.2,2.2,1.2
		c0.5,0,1.2,0.4,1.7,0.9c0.5,0.5,1.1,0.9,1.3,0.9c0.3,0,2.1-1.4,3.9-3.1l3.3-3.1l3.1,0.5c2.7,0.5,3.3,0.7,4.7,2.4
		c1.9,2.1,4.5,2.8,6.5,1.7c0.9-0.5,1.3-0.5,2.3,0c1,0.6,1.2,0.9,1,2.3c-0.2,1.7-2.2,4-3.5,4c-0.8,0-1.6,3-1.3,5.1
		c0.1,1,0.4,1.9,0.6,1.9c0.2,0,0.2,2.7,0.1,5.9l-0.2,6l1.9,1.6l1.9,1.6l-1.2,1.6c-0.6,0.9-1.5,2.2-1.9,2.9c-0.5,0.8-1.4,1.9-2.1,2.6
		c-1.1,1-1.4,1.9-2,5.6c-0.4,2.4-0.6,4.9-0.5,5.6c0.2,0.9-0.1,1.5-1,2.4c-0.7,0.6-1.6,1.3-2.1,1.4c-0.4,0.2-1,0.8-1.3,1.4
		c-0.6,1.2-2.2,2.1-3.7,2.1c-0.6,0-0.9,0.3-0.9,0.9c0,0.5-0.5,1.5-1.1,2.2l-1.2,1.4l1.1,2.3c0.6,1.3,1.5,2.5,2,2.6
		c1.2,0.4,1.7,1.6,0.8,1.9c-1,0.4-1,4.6,0,5c0.6,0.2,0.5,0.5-0.5,1.8c-1.3,1.7-1.7,4.6-0.8,5.5c0.4,0.4,0.1,0.8-1.5,1.9
		c-1.5,0.9-2.2,1.7-2.4,2.6c-0.2,1-0.8,1.6-2.7,2.5c-2.1,1-2.5,1.4-2.7,2.9c-0.2,0.9-0.6,1.8-0.9,1.9c-0.4,0.1-0.8,0.9-1,1.7
		c-0.4,1.6-0.5,2-1,5.7c-0.2,1.3-0.7,2.8-1.3,3.4c-1,1.1-1,1.1,0,1.6c0.5,0.3,2.4,2,4.1,3.8c1.8,1.9,3.4,3.4,3.6,3.4
		s0.6-0.6,0.9-1.4c0.4-1.1,0.8-1.4,1.8-1.4s1.9-0.7,4.3-3.3c2.5-2.6,3.4-3.3,4.8-3.5c2.2-0.3,3.1-1,2.8-2.1c-0.2-0.7,0-0.8,1.4-0.7
		c1,0.1,1.9,0.3,2,0.5c0.1,0.2,1.3-0.2,2.7-0.9c1.9-1,2.3-1.5,2.2-2.2c-0.3-1.3,0.2-1.9,1.8-2.2c4-0.8,6.3-1.9,7.7-3.8
		c0.7-1,1.4-2.5,1.6-3.2c0.1-0.6,0.5-1.3,0.6-1.4c0.2-0.1,1.5,0.3,3,1C219,180.6,264.3,136.6,320,136.6z"/>
	<path fill="#FFFFFF" d="M411.1,289c-1.4-2.1-2.7-3.5-3.5-3.9c-1.1-0.5-1.6-1.1-1.6-1.8c0-0.6-0.7-1.9-1.6-3.1
		c-1.9-2.3-1.8-2.1-1.1-3.4c0.5-0.9,0.3-1.2-1-2.3l-1.6-1.3l0.7-2c0.4-1.1,0.9-2.4,1.1-2.8c0.2-0.6,0-1.2-0.9-2
		c-0.6-0.6-1.2-1.6-1.2-2.1c0-0.5-0.6-1.8-1.4-2.9c-0.9-1.3-1.4-2.6-1.4-3.8c0-1.4-0.2-1.8-1.5-2.3c-1.4-0.6-1.6-0.6-2.5,0.5
		c-1.2,1.3-2.4,1.4-3.8,0.1c-0.8-0.7-1-1.3-0.7-3c0.2-2,0.2-2-1.2-2c-1,0-1.4-0.3-1.6-0.9c-0.1-0.5-0.9-1.3-1.7-1.7
		c-1.6-0.9-1.9-2.2-0.6-3.5c0.7-0.8,0.6-0.9-0.7-1.3c-0.8-0.3-1.7-0.9-1.9-1.3c-0.7-1.4-0.6-5.5,0.3-7.1c1.4-2.6,2-3.1,3-2.6
		c0.8,0.4,0.9,0.3,0.9-1.1c0-0.9-0.3-1.9-0.7-2.2c-0.4-0.3-0.7-1-0.7-1.4c0-0.6-0.3-0.9-1.1-0.9c-0.6,0-2.1-0.5-3.3-1.1
		c-1.2-0.6-2.9-1.3-3.8-1.4c-1.1-0.2-1.6-0.6-1.6-1.2c0-1.4-1.5-2.4-3.3-2.1c-1.3,0.2-1.9,0.1-2.5-0.7c-0.5-0.5-1.3-1-1.9-1
		c-0.8,0-1.3-0.5-1.7-1.6c-0.5-1-1.2-1.8-2-2.1c-1.9-0.7-6.1-5-6.4-6.5c-0.3-1.4-1.8-2.5-3.3-2.3c-1.1,0.1-2.5-1.7-2.5-3.1
		c0-0.6-0.6-1-1.6-1.4c-0.9-0.3-2.1-1.2-2.6-1.9c-0.6-0.7-1.4-1.3-2-1.3c-1.2,0-2.1-0.8-1.8-1.7c0.1-0.4,0-0.6-0.3-0.6
		s-0.5-0.4-0.5-0.9s-0.6-1.1-1.3-1.4c-0.7-0.3-1.9-1.2-2.6-1.9c-1.1-1.1-1.7-1.3-3.4-1.3c-2.2,0-4.2-1-4.2-2.1
		c0-0.4-0.3-0.6-0.7-0.6c-0.4,0-0.7-0.4-0.7-0.9c0-0.6-0.3-0.9-1-0.9c-0.5,0-0.8-0.2-0.6-0.5c0.1-0.3,0.7-0.5,1.2-0.5
		s1.5-0.6,2.3-1.2c0.8-0.6,2.2-1.3,3.2-1.4c3.1-0.5,4.2-1.1,4.4-2.5c0.2-0.8,0.7-1.4,1.3-1.6c1.4-0.5,1.2-2.5-0.7-5.1
		c-1.6-2.2-1.9-3.5-1.3-5c0.4-1,1.9-0.9,2.5,0.2c0.5,1,3.5,1.3,3.8,0.5c0.4-1.2,7.8-0.3,7.8,0.9c0,0.3,1.1,0.3,2.5,0.2
		c2.5-0.2,2.5-0.2,3.2,1.2c0.4,0.8,1,1.4,1.2,1.4c0.2,0,1,0.6,1.6,1.2c1,0.9,1.6,1.2,3.2,1.1c1.1,0,2.4,0.1,2.9,0.4
		c0.9,0.5,1.1,0.3,1.9-1.7c1.3-2.9,3.6-4.8,4.8-4.1c0.7,0.5,1,0.4,1.3-0.3c0.3-0.5,1-0.8,1.8-0.8c0.7,0,1.6-0.3,1.9-0.7
		c0.8-1,0.1-3.2-1.3-3.9c-1-0.4-1.1-0.6-0.6-1.2c1.1-1.3,6.6-3.9,8.4-3.9c-17.7-14.3-40.2-22.8-64.8-22.8c-55.6,0-101,44-103.3,99.1
		c0,0,0,0,0,0c1.8,0.9,2.8,1.1,3.2,0.8c0.3-0.3,2.1-1.5,4-2.7c1.9-1.3,3.9-2.9,4.5-3.6c1.9-2.2,5.1-1.4,5.8,1.4
		c0.2,0.9,1.2,2.8,2.2,4.2c1.4,2,2.2,2.7,3.6,3.2c1,0.3,2.2,1.1,2.8,1.8c1.8,2.5,4.7,4.1,7.7,4.3c2.6,0.2,2.8,0.3,3.3,1.6
		c0.4,1.1,0.3,1.4-0.6,2.1c-0.6,0.5-1,1.3-1,1.9c0,1.4,2.2,3.7,3.6,3.7c0.9,0,1.1-0.2,1.1-1.6c0-1.4,0.2-1.6,1.5-1.9
		c0.8-0.1,1.9-0.7,2.5-1.2c0.5-0.5,1.6-1,2.3-1.1c0.8-0.1,2.3-0.6,3.5-1c2.9-1.1,5.4-1,6.7,0.2c0.8,0.8,1.3,0.9,2,0.5
		c1.4-0.7,2.6-2.9,2.9-5.1c0.2-1.5,0.5-2.2,1.3-2.6c1.8-0.8,2.8-2,3.1-3.5c0.3-1.7,2.6-3.2,5-3.2c0.9,0,2-0.1,2.4-0.3
		c0.6-0.2,0.6-0.4-0.2-1.4c-0.5-0.6-0.9-1.4-0.9-1.6c0-0.2,0.8-1.2,1.8-2c1.4-1.3,1.9-1.6,3.1-1.3c0.8,0.1,2.8,0.5,4.5,0.7
		c3.3,0.4,7.9,2.6,10.8,5.2c1.2,1,2.2,1.4,4.1,1.6c2.3,0.2,2.7,0.4,3.3,1.7c1,1.9,1.5,2.2,3,1.3c1.9-1.2,3.3-0.5,5.7,2.7
		c1.6,2.4,2.2,3.6,2.6,6.2c0.5,2.6,1,4,2.9,6.8c1.3,2,2.6,4.7,3.1,6.3c0.5,1.8,1.2,3.2,2.2,4.3c0.8,0.9,2.6,3.8,3.9,6.5
		c2.8,5.8,2.9,6,5.7,7.6c1.2,0.7,3.5,2.6,5.1,4.2c2.4,2.4,3.3,3.7,4.5,6.5c1.3,3.2,1.4,3.8,1.2,6.6c-0.5,4.5-2.8,11.1-4.7,13.1
		l-1.6,1.7l-0.2,7.7c-0.2,6.7-0.3,8-1.3,10.1c-0.6,1.5-1,3.4-1.1,5c0,2.3,0.2,2.8,1.9,5c0.3,0.3,0.5,0.6,0.7,0.9
		C376.3,331,398.2,312.8,411.1,289z"/>
</g>
</svg>
