<?xml version="1.0" encoding="utf-8"?>
<!-- Generator: Adobe Illustrator 17.1.0, SVG Export Plug-In . SVG Version: 6.00 Build 0)  -->
<!DOCTYPE svg PUBLIC "-//W3C//DTD SVG 1.1//EN" "http://www.w3.org/Graphics/SVG/1.1/DTD/svg11.dtd">
<svg version="1.1" id="flag-icon-css-lb" xmlns="http://www.w3.org/2000/svg" xmlns:xlink="http://www.w3.org/1999/xlink" x="0px"
	 y="0px" viewBox="0 0 640 480" enable-background="new 0 0 640 480" xml:space="preserve">
<g>
	<path fill="#FF0000" d="M489,119.6c3.5-4,3.4-3.6,2.7-5.9l-0.6-2.1l-4.5-1.3c-4.7-1.4-5-1.7-5-5.2c0-0.9-0.3-1.2-1.4-1.4
		c-1.7-0.3-2.2-1.3-3.4-6.6l-0.8-3.5l2.9-5.7c3.5-7,3.5-7.6-0.3-9.7c-1.4-0.7-3.9-1.8-5.5-2.2c-3.1-0.9-3.9-1.8-3.9-4.6
		c0-1.4-0.2-1.6-4.8-4.2c-4.5-2.6-4.8-2.8-5.8-5.1c-0.5-1.3-1.3-3.4-1.7-4.7l-0.7-2.4l-9.6-0.2c-9.2-0.2-9.6-0.1-11.2,0.8
		c-3.8,2.3-3.3,2.5-5.8-1.9c-1.2-2.2-2-4.1-1.9-4.3c0.2-0.2,3.8-2.4,8.1-5l7.7-4.6v-6.5c0-6,0.1-6.7,1-7.9l1-1.3l2.5,2.3
		c2.6,2.5,5.3,3.9,5.9,3.2c0.4-0.5,2.8-9.4,2.8-10.3c0-0.5-1-0.5-4.1-0.3c-3.8,0.3-4.3,0.2-6.7-0.8c-1.4-0.6-3.7-1.5-5.1-1.9
		c-2.1-0.6-3.1-1.3-5.8-4.1c-1.9-2-3.4-4-3.6-4.8c-0.7-3.3-1.3-4.4-2.5-5.1c-1.7-0.9-4.9-0.8-6.8,0.1c-1.3,0.6-1.5,1.1-2,3.3
		c-0.3,1.4-0.6,4-0.6,5.8c-0.1,5.9-0.1,5.9-4.1,6.7c-3.2,0.6-3.6,0.6-7-0.4c-2.8-0.8-3.8-0.9-4.6-0.6c-0.5,0.3-1.5,0.4-2.1,0.2
		c-0.7-0.2-1.7,0-2.5,0.6c-1.3,0.8-1.4,0.8-3.6-0.5c-2.1-1.3-2.2-1.3-6.1-0.7c-3.3,0.5-4.1,0.5-5-0.1c-1-0.6-3.4-0.9-10.4-0.9
		c-1.3,0-3.5,0.4-4.8,0.8c-1.9,0.6-3.6,0.7-8.9,0.6c-7.4-0.3-11.6-1.3-15-3.7c-1.5-1.1-2.4-1.3-4.3-1.3c-2,0-2.4,0.1-2.4,0.9
		c0,0.5,1,4,2.2,7.8l2.2,6.9l-0.1,7.4c-0.1,4.1-0.4,8.9-0.6,10.6c-0.5,3.1-0.6,3.2-2.6,4.4c-1.2,0.7-3.2,2.2-4.7,3.3
		c-1.5,1.1-3.2,2.3-4,2.7c-0.7,0.4-3,2.2-5,3.9c-4.8,4.2-6.4,5.2-10.5,6.6c-3.1,1.1-4.2,1.2-9.5,1.2c-3.3,0-6.4,0-6.8,0.2
		c-1.5,0.6-1.1,3.3,0.8,5.4c1.8,2,1.9,2.5,1.1,6c-0.6,2.5-1.4,3.4-5.5,5.6c-2.3,1.2-9.2,5.8-10.9,7.3c-1.2,1-3,4.4-3,5.6
		c0,0.5-0.7,2.4-1.6,4.3c-0.8,1.9-1.9,4.4-2.3,5.6c-0.9,2.5-1.9,3-5.6,2.3c-1.8-0.3-2.6-0.3-3.7,0.3c-1.8,0.9-2.1,1.4-2.1,3.4
		c0,1.3-0.6,2.3-2.4,4.6l-1.4,1.7h225.8C488.8,119.9,488.9,119.8,489,119.6z"/>
	<path fill="#FF0000" d="M242.4,360l-1.7,0.7c0.1-0.2,0.2-0.4,0.3-0.7h-69.3c-0.2,0.5-0.4,1.2-0.6,2.2c-0.3,1.4-1.5,4.7-2.6,7.3
		c-3.1,7-5.4,15.6-5.6,21l-0.2,4.4l-4,7.9l-4,7.9l-2.3,0.6c-2.2,0.6-2.2,0.6-2,2.3c0.2,0.9,0.7,2.5,1.3,3.6c0.6,1,1.3,2.5,1.8,3.3
		c1.2,2.2,0.9,9.4-0.4,13.3c-1.4,4.3-4.6,8.3-6.9,8.9c-2.4,0.5-4.2,2.8-4.3,5.2c0,4.2-0.2,4.5-6,9.2c-4.9,3.9-5.5,4.7-6.2,6.7
		l-0.7,2.3l2.8,0.2c1.5,0.2,6.4,0.4,10.7,0.6c4.4,0.2,8.9,0.6,10.2,0.9c2.1,0.6,2.4,0.5,2.8-0.2c0.3-0.4,1.1-1.3,1.8-2l1.3-1.3
		l2.4,1.2c2.2,1.1,2.6,1.2,6.1,0.9c2-0.2,5.1-0.7,6.7-1.3c2.4-0.7,3.7-0.8,6-0.6l2.9,0.3v2.2c0,2,0.2,2.4,2.3,4.5
		c1.7,1.7,2.3,2.6,2.3,3.6v1.3h4.5c3.3,0,4.8-0.2,5.6-0.7c0.7-0.5,2.6-0.8,6.2-1l5.1-0.3l0.7-1.9c0.6-1.3,1.4-2.3,3.2-3.4l2.5-1.6
		h5.8h5.8l0.5-1.8c0.2-0.9,0.6-2.5,0.8-3.6c0.3-1.5,0.6-1.9,1.9-2.3c2-0.6,3.1-2.9,3.8-8c0.3-2,0.8-4.4,1.2-5.2
		c0.9-2.1,0.8-8.1-0.1-13.1l-0.7-4.1l1.3-2.2c0.7-1.3,1.7-3.3,2.1-4.7c0.5-1.4,1.5-3.2,2.3-4.1c1.7-1.9,2.3-3.3,2.3-5.4
		c0-2.4,0.5-2.7,2.2-1.7c1.3,0.7,1.5,1.2,1.8,3.4c0.3,2.4,0.5,2.6,2.5,3.9c1.9,1.2,5,2.4,6.4,2.4c0.4,0,0.5-0.7,0.3-2.4l-0.2-2.5
		l3-1.6c2.7-1.4,3.2-1.6,5.6-1.3l2.5,0.3l2.4-3c2.1-2.6,2.7-3.1,4.9-3.7c2.9-0.8,3.3-1.3,3.8-3.8c0.2-1.1,0.9-2.5,1.8-3.3
		c1.3-1.4,1.7-1.5,4.5-1.5c2.9,0,3.4-0.2,8.6-3.1c6.6-3.6,8.8-5.5,9.8-8.7c1.3-3.9,4.7-9.8,6.4-10.7c0.8-0.5,3.8-2.4,6.6-4.2
		c2.8-1.9,6.2-3.8,7.5-4.3c1.9-0.8,2.8-1.7,4.7-4.2c0.7-0.9,1.7-2.1,2.8-3.1H242.4z"/>
	<path fill="#FFFFFF" d="M245.6,260.7v-4.9l-2.4-2.4c-8.2,3.3-17.6,8.8-24.3,6.8c-0.6,2.3-1.4,3.9-2.6,5.6
		c-3.2,4.4-4.2,7.5-4.3,11.6c0,0.3,0,0.6,0,0.9c5.2-3,9.3-5.3,9.3-5.3L245.6,260.7z"/>
	<path fill="#FFFFFF" d="M287,316.8c2.5-7.3-4.9-14.6-12.2-14.6l-31.7,9.7c-12.2,2.4-21.9,2.4-36.6,2.4v-9.8
		c17.8-1.8,34.7-8.5,48.8-19.5c-14.6,0-17.1,4.9-29.3,9.8c-5.9,2.9-13.5,3.2-20.8,2.5c-0.4,1.5-1,2.7-1.7,3.5
		c-3.1,3.3-4,6.1-5.1,15.2c-0.3,3-0.7,4.1-2.5,7c-1.3,2.1-2.4,4.7-2.9,6.9c-0.8,3.5-5.1,12.5-9.5,20.4c-2.7,4.8-6.7,8.3-9.4,8.3
		c-1.4,0-2,0.2-2.5,1.5H241C251.1,338.8,279.9,343.3,287,316.8z"/>
	<path fill="#FFFFFF" d="M268.2,186c1.8-1.2,15.7-8.6,14-10.6c-0.4-2.1-9.8,2.4-9.8,2.4l-2.4-2.4c4.9-9.8,9.8-12.2,19.6-17
		c-9.8-5-2.4-7.4,2.4-12.2c12.2-9.8,17.1-9.8,24.4-24.4l0-0.1c14.6,7.2,14.6,12.1,24.5,19.4c14.6,9.8,39,7.3,48.8,29.3l-14.6,2.4
		c9.8,2.4,19.5,7.3,24.4,17.1c-17.5-5.1-33.8-12.7-34.7-6.1c0.2,2.3,42.1,28,42.1,28c5.1,2.6,10.7,5.2,14.9,8c0.4-0.7,0.7-1.4,1-2.1
		c3.2-6.8,5-9,12.8-16.2c3.1-2.9,5.2-5.2,5.6-6.1c0.4-1.2,0.8-1.6,1.9-1.7c1.4-0.1,1.4-0.2,1.6-2.6c0.1-2.5,0.5-2.8,2.6-2
		c0.7,0.3,1.5,0,3-1.1c2-1.5,2.1-1.5,3.7-0.8c1.2,0.5,2.9,0.6,6.6,0.5l5-0.2l2.1-2.1l2.1-2.1l-0.1-3.2c-0.1-3.8,0.8-6.3,3.6-9.6
		c1-1.3,1.9-2.6,1.9-3c0-0.7,3.7-2.7,7-3.7c1.5-0.4,1.7-0.7,2-2.2c0.1-0.9,0.3-2.2,0.3-2.9c0-0.9,0.5-1.4,2.6-2.5
		c2.6-1.4,2.7-1.4,4.7-6.1c1.9-4.2,2.2-4.8,3.5-5.1c1.2-0.3,1.4-0.6,1.6-2c0.1-1.5-0.1-1.9-2.3-3.8c-1.3-1.2-2.5-2.1-2.8-2.1
		s-0.4-0.4-0.4-0.8c0-0.5-0.9-2.3-2.1-4.2c-2-3.2-2.1-3.5-2.1-6.8c0-3.1,0-3.5,1.4-5.1H262.9l-1,1.2l0.6,3.8
		c1.4,8.6,1.4,8.5-2.1,14.3c-2.5,4.1-3.3,5.9-4,8.9c-0.7,3.5-0.7,3.9,0,7.7c0.6,3.1,1,4.1,1.6,4.4c0.7,0.2,0.8,0.7,0.8,2.8
		c0,2.3,0.2,2.8,1.6,4.4l1.6,1.8l-0.9,2.4c-0.6,1.3-1.2,4.5-1.4,7c-0.4,4.3-0.6,4.8-2.8,8.7c-2,3.6-2.3,4.4-2.3,6.8
		c0,0.3,0,0.6,0,0.8c1.1-0.7,2.1-1.5,3.3-2.4L268.2,186z"/>
	<path fill="#FFFFFF" d="M359.3,327c1.5-1.8,1.9-2.5,1.9-4.1c0-1.7-0.2-2-1.3-2.6c-1.3-0.7-3.8-3.6-4.4-5c-0.1-0.5-1-0.9-2.3-1.1
		c-0.6-0.1-1.3-0.3-2-0.5c0.7,5.4,2.8,11.5,5.7,17C357.4,329.6,358.4,328.1,359.3,327z"/>
	<path fill="#FFFFFF" d="M255.3,212l-5.1,0.5c-1,2.1-2,4.7-3,8c-0.7,2-1.9,4.2-3.4,6.2c-2.8,3.7-4.5,4.3-9.5,3.8
		c-3.8-0.4-13.8-0.5-15.2-0.1c-1.6,0.4-1.4,3.2,0.3,6.4c1.2,2.2,1.6,3.7,1.3,8.5l10.3-6.4C243.1,231.5,260.2,229,255.3,212z"/>
	<path fill="#FFFFFF" d="M279.7,345.9L242.4,360h87.1c0.9-0.9,1.8-1.7,2.6-2.3c1.7-1.2,3.2-2.5,3.3-2.9c0,0,0-0.1,0.1-0.2
		c-10.1-5.1-12.6-12-24.1-15.9C299.2,336.3,289.4,341.1,279.7,345.9z"/>
	<path fill="#FFFFFF" d="M411,246.2c1.3,0.5,3,1.3,4.2,1.9c1.5,0.8,2.9,1.4,3.2,1.4c0.3,0,2.4,0.7,4.7,1.7c3.5,1.4,5,1.7,8.9,1.9
		l4.6,0.3l2.6-1.8l2.6-1.8v-3.2v-3.1l-1.7-0.6c-1-0.3-2.5-1.4-3.4-2.4c-1.2-1.3-1.5-1.6-3.2-1.9v4.8L411,246.2z"/>
	<path fill="#FFFFFF" d="M391.6,227.5c0.7,0.3,21,5.7,33.1,8.8c-0.2-0.4-0.4-0.9-0.5-1.5c-0.5-1.9-0.7-2.1-3.9-3.6
		c-1.9-0.8-3.6-1.9-3.7-2.2c-0.1-0.2,0.1-0.8,0.5-1.4c-7.6-0.4-16.9-1.4-21.3-4.3C392.9,224.4,391.9,226.3,391.6,227.5z"/>
	<path fill="#FFFFFF" d="M402.8,249.2c0.1-0.2,0.2-0.3,0.3-0.5c0.4-0.6,0.9-1.2,1.4-1.8l-12.6,1.5
		C396,248.4,399.6,248.7,402.8,249.2z"/>
	<path fill="#007900" d="M226.1,294.8c12.2-4.9,14.6-9.8,29.3-9.8c-14.1,11-31,17.7-48.8,19.5v9.8c14.6,0,24.4,0,36.6-2.4l31.7-9.7
		c7.3,0,14.7,7.3,12.2,14.6c-7.1,26.5-35.9,22.1-46,43.2c-0.1,0.2-0.2,0.4-0.3,0.7l1.7-0.7l37.3-14.1c9.8-4.9,19.5-9.7,31.7-7.2
		c11.6,3.9,14,10.8,24.1,15.9c0.1-0.6,0.3-2.2,0.5-3.8c0.2-3.2,0.2-3.5-1-5c-1.3-1.7-1.4-2.4-0.9-4.9c0.2-1.2,0.5-1.4,1.5-1.4
		c0.6,0,2.5-0.4,4.1-0.9c1.6-0.5,4-1,5.3-1.2c1.5-0.2,4.1-1.1,6.7-2.5c3.8-1.9,4.4-2.4,5-4c0-0.1,0.1-0.2,0.1-0.3
		c-2.9-5.6-5-11.6-5.7-17c-0.7-0.3-1.5-0.6-2.1-0.8c-6.7-3.5-9.4-4.4-12.7-4.4c-2.7,0-3.5-0.2-4.6-1.1l-1.4-1.1l1.1-2.5
		c0.9-2.2,1.3-2.7,3.7-4c3.8-2.1,4.7-4.1,4.7-10v-4.4l3.3-2.6c2.8-2.3,3.6-3.3,5.8-7.5l2.6-4.7h2.2c3.1,0,4.5-1.5,5.7-6.2
		c0.5-1.9,1.9-5.3,3.1-7.5l2.1-3.9l1.5,0.9c2.1,1.3,5.2,0.8,7-1c1.1-1.2,1.6-1.3,3.8-1.3c2.4,0,2.5,0,3.9-2.3c1.7-2.6,3.3-3.4,6-3
		c1.5,0.2,2,0.6,3.2,2.5c1.1,1.8,1.8,2.4,3.1,2.7c3.7,0.9,5,1,5.9,0.3c0.5-0.4,1.3-0.7,1.9-0.7c0.5,0,1.2-0.6,2-1.7
		c-3.2-0.5-6.8-0.8-10.8-0.8l12.6-1.5c0.5-0.5,1.1-1,1.5-1.2c1.5-0.7,1.7-0.7,3.9,0.1c0.3,0.1,0.6,0.2,1,0.4l22.6-2.7v-4.8
		c-0.6-0.1-1.5-0.1-2.6-0.2c-3.9-0.3-5.4-0.7-6.2-2.2c-12.1-3.2-32.4-8.5-33.1-8.8c0.3-1.2,1.3-3.1,4-4.2c4.4,2.9,13.7,3.9,21.3,4.3
		c0.3-0.5,0.6-1,1-1.5c0.7-1,2.2-3.5,3.6-6.2c-4.2-2.8-9.7-5.4-14.9-8c0,0-41.9-25.8-42.1-28c0.8-6.6,17.2,1,34.7,6.1
		c-4.9-9.8-14.6-14.6-24.4-17.1l14.6-2.4c-9.8-21.9-34.1-19.5-48.8-29.3c-9.8-7.3-9.8-12.2-24.5-19.4l0,0.1
		c-7.3,14.5-12.2,14.5-24.4,24.4c-4.9,4.8-12.2,7.2-2.4,12.2c-9.8,4.8-14.7,7.2-19.6,17l2.4,2.4c0,0,9.4-4.5,9.8-2.4
		c1.7,2-12.2,9.4-14,10.6l-10.3,6.6c-1.1,0.9-2.2,1.7-3.3,2.4c0,1.8,0.4,2.2,2.3,4.4c1.6,1.8,2.3,2.9,2.3,3.8c0,1.2-0.3,1.4-2.3,2.1
		c-2.7,0.9-4.7,2.9-6.7,7.2l5.1-0.5c4.9,17.1-12.2,19.5-24.4,26.8l-10.3,6.4c-0.1,1.3-0.2,2.9-0.4,4.8c-0.4,4.6-0.8,7.8-1.5,10.2
		c6.7,2.1,16.1-3.5,24.3-6.8l2.4,2.4v4.9l-24.4,12.2c0,0-4.1,2.4-9.3,5.3c-0.2,4.2-1.9,9.5-3.6,10.9c-2.2,1.9-2.4,2.2-2.4,3.7
		c0,1.5-0.2,3.1-0.6,4.4C212.6,298.1,220.2,297.8,226.1,294.8z M376,217.4c4.6-2.2,12.3,3.3,11.6,4.5
		C387.6,222.8,374.8,221.4,376,217.4z M361.5,208.8L361.5,208.8c-2.8,3.4-22.4-1.1-12.8-5.8C358.3,198.2,363,206.7,361.5,208.8z
		 M351.3,177.3c2.5,4-8.1,0-8,0C343.3,177.3,349.4,174.5,351.3,177.3z M311.6,227.5c6.1-1.9,5.9,5.1,3.8,5.9
		C313.7,234.8,305.7,229.3,311.6,227.5z M321.1,281.5c-8,2.1-7.9-9.2-5.6-9.9v0.1C321.1,270.8,329.2,279.6,321.1,281.5z
		 M339.5,197.6c6.6,5-7.8,6.5-8.1,6.2C331.4,203.8,333.8,196.1,339.5,197.6z M330.4,175.5c-0.2-3.7,6.6-3.4,7.8-0.9
		C339.2,177.8,329.3,178.3,330.4,175.5z M330.3,242.8c-2.3,0.8-13.9-4.6-6.9-9.4C330.2,228.8,332,240,330.3,242.8z M325.8,198
		L325.8,198c2.1,5-20.6,8.1-13.7,3.7C319,197.1,324.9,195.8,325.8,198z M322.1,174.6c2.2,3.7-8.4,8.1-13.1,5.8
		C311.8,174.6,321.4,173.2,322.1,174.6z M294.3,231.6c3.3-1.2,7.5,4.6,7.5,4.6C302.1,236.3,290.3,235.5,294.3,231.6z M303.9,283
		c-4.4-2.3-3.2-10.2-1-10.5C304.8,272.6,308.8,283.8,303.9,283z M301.5,180.5c3.6-0.8,2.2,4.6,2.2,4.6s-15.4,13.7-15.8,8.8
		C288.9,188.3,301.4,180.5,301.5,180.5L301.5,180.5z M294.2,168.5c0.5,1.6-4.8,5.9-6.7,5C287.8,171.8,293.8,168.2,294.2,168.5z
		 M291.5,203.1c1,1-4.4,10.8-9.3,4.9C276.5,200.9,291.8,200.7,291.5,203.1z M283.3,268.2c10.9,5,8.5,10.1,6.8,15.8v0.1
		C288.7,288,272.4,263.3,283.3,268.2z M261.8,210.5c0.8-1.5,9.9-3.4,11.7-3.4c2.1,0.4,3.2,4.5,3.9,6l0.1,0c-0.3,0.8-8.8,7-10.5,6.4
		C265.6,219.3,261.4,211.7,261.8,210.5z M274.9,247.4c-4.6,5.2-17.8,7.5-19.6,7.3c-1.3-0.5-3.9-5-3.9-5.1S279.5,242.3,274.9,247.4z"
		/>
	<path fill="#FFFFFF" d="M302.8,272.5c-2.2,0.3-3.4,8.3,1,10.5C308.8,283.8,304.8,272.6,302.8,272.5z"/>
	<path fill="#FFFFFF" d="M288,193.9c0.4,4.9,15.8-8.8,15.8-8.8s1.3-5.4-2.2-4.6h-0.1C301.4,180.5,288.9,188.3,288,193.9z"/>
	<path fill="#FFFFFF" d="M301.8,236.2c0,0-4.2-5.8-7.5-4.6C290.3,235.5,302.1,236.3,301.8,236.2z"/>
	<path fill="#FFFFFF" d="M294.2,168.5c-0.5-0.3-6.4,3.4-6.7,5C289.4,174.4,294.7,170.1,294.2,168.5z"/>
	<path fill="#FFFFFF" d="M267,219.5c1.7,0.7,10.2-5.6,10.5-6.4l-0.1,0c-0.8-1.5-1.9-5.6-3.9-6c-1.8,0-11,1.9-11.7,3.4
		C261.4,211.7,265.6,219.3,267,219.5z"/>
	<path fill="#FFFFFF" d="M322.1,174.6c-0.7-1.4-10.3,0-13.1,5.8C313.6,182.6,324.2,178.2,322.1,174.6z"/>
	<path fill="#FFFFFF" d="M255.3,254.7c1.8,0.2,15-2.2,19.6-7.3s-23.5,2.2-23.5,2.3S254,254.3,255.3,254.7z"/>
	<path fill="#FFFFFF" d="M291.5,203.1c0.3-2.3-15-2.2-9.3,4.9C287.1,213.8,292.5,204.1,291.5,203.1z"/>
	<path fill="#FFFFFF" d="M290,284.2L290,284.2c1.8-5.8,4.1-11-6.8-15.9S288.7,288,290,284.2z"/>
	<path fill="#FFFFFF" d="M325.8,197.9L325.8,197.9c-0.9-2.1-6.8-0.8-13.7,3.8C305.2,206.1,327.9,203,325.8,197.9z"/>
	<path fill="#FFFFFF" d="M351.3,177.3c-1.9-2.8-8,0-8,0C343.3,177.3,353.8,181.3,351.3,177.3z"/>
	<path fill="#FFFFFF" d="M361.5,208.9L361.5,208.9c1.5-2.2-3.3-10.7-12.8-5.9C339.1,207.7,358.7,212.2,361.5,208.9z"/>
	<path fill="#FFFFFF" d="M315.3,233.4c2.2-0.8,2.3-7.8-3.8-5.9C305.7,229.3,313.7,234.8,315.3,233.4z"/>
	<path fill="#FFFFFF" d="M387.6,221.9c0.7-1.2-7-6.7-11.6-4.5C374.8,221.4,387.6,222.8,387.6,221.9z"/>
	<path fill="#FFFFFF" d="M330.3,242.8c1.7-2.8-0.1-14.1-6.9-9.4C316.4,238.2,328.1,243.6,330.3,242.8z"/>
	<path fill="#FFFFFF" d="M315.5,271.7L315.5,271.7c-2.3,0.7-2.3,11.9,5.6,9.8C329.2,279.6,321.1,270.8,315.5,271.7z"/>
	<path fill="#FFFFFF" d="M338.2,174.6c-1.2-2.4-8-2.7-7.8,0.9C329.3,178.3,339.2,177.8,338.2,174.6z"/>
	<path fill="#FFFFFF" d="M331.4,203.8c0.3,0.3,14.6-1.2,8.1-6.2C333.8,196.1,331.4,203.8,331.4,203.8z"/>
</g>
</svg>
