<?xml version="1.0" encoding="utf-8"?>
<!-- Generator: Adobe Illustrator 17.1.0, SVG Export Plug-In . SVG Version: 6.00 Build 0)  -->
<!DOCTYPE svg PUBLIC "-//W3C//DTD SVG 1.1//EN" "http://www.w3.org/Graphics/SVG/1.1/DTD/svg11.dtd">
<svg version="1.1" id="flag-icon-css-lc" xmlns="http://www.w3.org/2000/svg" xmlns:xlink="http://www.w3.org/1999/xlink" x="0px"
	 y="0px" viewBox="0 0 640 480" enable-background="new 0 0 640 480" xml:space="preserve">
<g>
	<path fill="none" d="M327.3,480c1.2,1.1,1.6,1.1,2.5,0.3c0.1-0.1,0.3-0.2,0.5-0.3H327.3z"/>
	<path fill="#65CFFF" d="M333.4,479.2c3.3-0.7,3.9-1.1,4.3-3.2c0.4-2-0.5-3.4-3.2-5.3c-1.3-0.9-2.4-2.3-3.3-4.1
		c-1.5-3-1.6-3.9-0.6-4.8c0.4-0.3,1.5-2.1,2.4-3.8c1.1-2.1,2-3.2,2.5-3.2c0.5,0,1.3-0.4,1.9-0.9c1.1-0.8,1.1-1.2,1.1-6.2
		c0-5,0.4-7.2,2.8-9.8l-67.4,0.1c0.7,1,1,1.7,1,2.8c0,1.2,0.3,2,1.2,2.8c0.7,0.6,1.6,1.9,2.1,2.8c0.8,1.5,1.1,1.8,2.5,1.8
		c0.9,0,1.6,0.2,1.6,0.5c0,0.4,0.9,0.4,2.9,0.2c3.5-0.4,4.5,0.2,7.1,3.6l1.7,2.2h6.2c3.7,0,7.2,0.3,9,0.7c1.5,0.4,3.9,0.7,5.3,0.7
		c1.8,0,2.4,0.2,2.4,0.7c0,1.3,1,2.9,2.2,3.5c0.7,0.3,2.1,1.3,3.3,2.2c2.2,1.8,2.1,1.5,1,5.8c-0.3,1.4-1.3,2.4-3.9,4.6
		c-4.2,3.5-4.6,4.7-1.6,5.6c1.4,0.5,2.1,0.5,2.8,0c0.5-0.3,1.7-0.7,2.7-0.8c1.6-0.2,2-0.1,3.4,1.4c0.3,0.3,0.5,0.5,0.7,0.8h3
		C331.1,479.7,332.2,479.4,333.4,479.2z"/>
	<path fill="#65CFFF" d="M320.1,45c1.8-1.5,1.8-3.3,0-4.9c-2.7-2.3-4-1.6-4.7,2.6c-0.7,3.7-1.4,4.3-5.3,4.7
		c-3.3,0.3-4.8,1.3-5.8,3.9c-0.9,2.4-0.9,2.4-1.8,1.5c-0.7-0.5-1.9-0.7-5-0.7c-4.1,0-4.2,0-4.6,1.3c-0.4,1-0.3,1.5,0.3,2.1
		c1,1.1,1,3.8,0,5.1c-0.7,1-0.7,1.2,0.3,2.2c0.8,0.8,1,1.5,0.9,3.5c-0.1,1.7,0.1,3,0.7,4.2c0.7,1.2,0.9,3.3,1.3,8.4
		c0.5,7.9,0.3,9.4-1.2,12.2c-0.9,1.5-1.9,2.4-3.8,3.5c-2.3,1.3-2.7,1.6-3.1,3.4c-0.4,1.8-0.8,2.1-2.9,3.2c-1.3,0.7-3.6,2.3-5.1,3.6
		c-2.5,2.3-3,2.5-5.7,2.8c-3.7,0.4-4.9,0-4.9-1.4c0-2.3-2.1-3.1-5.6-2.1c-1.2,0.3-1.8,0.3-2.3-0.1c-0.5-0.5-0.8-0.4-1.3,0.3
		c-1.2,1.6,0.2,4.6,2.7,5.9c1,0.5,1.9,1.3,2.1,1.8c0.4,1.2,2.4,1.3,3.5,0.2c1.1-1,1.9-0.4,1.8,1.1c-0.2,2.7,0,3.4,1.1,3.8
		c0.8,0.3,1.4,0.1,2.6-0.7c1.9-1.4,2.6-1,2.3,1.3c-0.1,1.3-0.4,1.6-1.3,1.7c-0.7,0.1-1.4,0.4-1.6,0.7c-0.4,0.5-0.9,0.5-2.8-0.1
		c-1.3-0.4-3.1-0.7-4.1-0.7c-1.7,0-1.9-0.1-2.7-2.1c-0.8-1.8-1.1-2.1-2.6-2.1c-0.9,0-2-0.1-2.4-0.1c-0.5,0-1,0.6-1.3,1.4
		c-0.3,0.8-1.5,2.3-2.7,3.4c-1.9,1.7-2.3,1.9-2.9,1.4c-0.6-0.5-1-0.5-1.9,0c-1,0.5-1.2,0.8-1.1,2.3c0.1,1.1-0.3,2.6-1,4l-1.1,2.3
		l1.1,2.1c1.4,2.7,1.6,7.1,0.4,9.2c-0.7,1.2-0.8,1.8-0.4,2.8c0.2,0.7,0.7,1.2,0.9,1.2c0.2,0,0.5,0.7,0.7,1.5
		c0.2,1.1,0.4,1.4,0.8,0.9c1.3-1.3,3.6-0.1,3.6,2c0,0.5-0.6,1.5-1.3,2.2c-1.9,2-4.2,1.8-9.2-0.7c-6.8-3.5-7.3-3.3-7.3,2.8
		c0,3.3-0.1,3.7-1.2,4.5c-1,0.7-1.2,1.3-1.2,3.5c0,1.6-0.3,3.2-0.9,4.4c-1.3,2.5-1.2,3.8,0.4,5.2c0.9,0.9,1.9,1.3,3.7,1.4
		c1.4,0.1,2.7,0.5,3,0.7c0.7,0.7-3.2,1.7-5.2,1.3c-4.2-0.8-4.3-0.8-5.6,2.9l-1.1,3.4l-3.5,1.9c-2.8,1.6-3.5,2.2-3.9,3.6
		c-1.7,5.4-4.4,11.7-5.4,12.7c-1,1-1.1,1.5-0.8,2.9c0.3,2-0.7,3.5-2.4,3.5c-1.2,0-2.4,1.2-3.1,3.2l-0.5,1.5h-4.1h-4.2l-0.9,2.6
		c-1.2,3.2-1.2,3.4,0,4c1.4,0.7,1.2,2.6-0.5,4.7c-1,1.3-1.4,2.3-1.4,3.5c0,1.2-0.5,2.6-1.4,4c-1.2,1.9-1.7,2.3-3.4,2.8
		c-2.7,0.7-5.1,3.6-4.9,6c0.1,1.4,0.4,1.7,1.7,2.1c2,0.6,2,1.8,0,3.3c-2.1,1.6-3.7,4.9-4.8,9.1c-0.4,1.9-1.3,4.3-2,5.3
		c-0.6,1-1.7,3.3-2.4,5.2c-0.8,2-2.2,4.6-3.5,6.1l-2.1,2.7l0.2,12.1l0.2,12.2l2.5,1.3c1.4,0.7,3,1.3,3.7,1.3c1.3,0,2.5,1,4.9,4.4
		c1.3,1.7,1.4,1.8,3.3,1.4c2.8-0.5,4.9-0.5,5.5,0.1c0.3,0.3,0.7,1.6,0.8,2.9c0.2,1.8,0.1,2.6-0.5,3.4c-1.1,1.4-1.8,3.6-2.6,7.9
		c-0.5,2.9-1.2,4.4-3.3,7.9c-2.4,3.9-2.6,4.5-2.3,6.2c0.5,3.3,1.2,4.2,3.3,4.3c1.2,0.1,2.3,0.5,2.8,1c0.7,0.8,0.7,1.2,0.2,3.1
		c-1,3.6-2.2,5.2-9.3,11.8c-9.7,9.1-9.7,9.1-2.2,15.6c1.5,1.3,2.6,2.3,3.5,3.1L318.9,42L320.1,45z"/>
	<path fill="#65CFFF" d="M407.4,255.2c0.1-1.3-0.3-1.9-1.6-2.1l1.5,3.6C407.3,256.3,407.3,255.8,407.4,255.2z"/>
	<path fill="#65CFFF" d="M395.7,227.9c0-6.1,2-9.8,5.5-9.8c1.9,0,3.4-0.5,3.4-1.1c0-0.2,0.7-1.4,1.6-2.4c1-1.3,1.7-2.7,1.9-4
		c0.2-1.1,0.7-2.4,1-2.9c0.6-0.7,0.6-1.2,0.1-3.3c-0.5-2.2-0.5-2.8,0.1-4c0.4-0.7,1.1-1.5,1.6-1.7c0.8-0.2,0.9-0.7,0.7-4.8
		c-0.3-6-0.4-6.5-1.8-6.8c-1.6-0.4-2.1-2.1-0.8-3c1.1-0.8,1.3-1.6,0.3-2.4c-0.4-0.3-0.7-1.5-0.9-2.8c-0.1-1.2-0.4-2.6-0.6-3.2
		c-0.2-0.8-0.1-1,1.1-1.3c1.3-0.3,1.4-0.5,1.7-2.7c0.2-1.4,0.7-3.1,1.2-3.9s0.9-1.9,0.9-2.5c0-0.6,0.2-1.2,0.5-1.3
		c0.7-0.4,0.6-2.1-0.2-2.4c-0.4-0.2-0.7-0.9-0.7-1.6c0-1-0.5-1.6-2.1-2.8l-2.2-1.5l1.1-0.8c0.6-0.5,1.3-0.9,1.5-0.9
		c0.2,0,0.3-0.5,0.3-1.1c0-0.6,0.4-2,1-3.1c1-2.2,0.9-3.3-0.2-3.3c-0.4,0-1.4-0.7-2.1-1.5c-1-1-2.1-1.6-3.5-1.7l-1.9-0.3l-0.5-3.1
		c-0.2-1.7-0.7-3.4-1-3.7c-0.3-0.3-0.6-0.9-0.6-1.3c0-0.4-0.7-2.1-1.4-3.7c-0.8-1.6-1.4-3.3-1.4-3.7c0-0.5-0.3-1.2-0.7-1.7
		c-1.1-1.4-0.8-2.9,0.6-4c2.5-1.9,2.6-2,2.2-4.2c-0.1-1.2-0.6-2.5-1-2.9c-0.4-0.4-0.7-1.2-0.7-1.7c0-1.4-0.9-2.1-2.6-2.1
		c-0.8,0-1.8-0.4-2.2-0.8c-0.7-0.7-0.7-1.1-0.2-2.5c0.3-1,0.9-2.1,1.4-2.6c0.9-1.1,1.5-5.5,0.9-6.6c-0.4-0.7-1.3-1-3.4-1.2
		c-4.9-0.6-6.5-2.4-3.4-3.8c1.7-0.8,2.2-2.1,0.9-2.7c-0.4-0.1-0.7-0.7-0.7-1.2c0-0.5-0.6-1.4-1.4-2.1c-0.7-0.7-1.4-1.4-1.4-1.5
		c0-0.2,2-0.2,4.4-0.1c5.2,0.2,4.9,0.6,4.9-6.3v-4.6l1.6-0.7c1.7-0.7,2.6-1.9,2.2-2.9c-0.4-1.2-4.3-4.8-6-5.4
		c-1.3-0.6-1.6-1-1.6-1.9c0-1.4-1-3.5-2.7-5.6c-0.8-1.1-1.6-1.5-3-1.8c-1.4-0.2-2.6-0.9-4.2-2.4c-2.6-2.4-4.8-2.8-6.3-1.1
		c-0.6,0.6-1.3,0.9-2,0.7c-0.8-0.1-1.7,0.4-3.6,2.2c-1.5,1.4-2.5,2.8-2.5,3.4c0,1.5-1.4,1.7-2,0.4c-0.5-1-0.3-1.6,0.9-4
		c1.7-3.3,1.8-3.9,0.8-6.2c-1.1-2.7-0.9-3.8,0.7-4.4c1.9-0.7,1.7-2.1-0.4-2.5c-2.1-0.4-2.2-0.7-1.3-1.9c0.4-0.6,0.7-1.4,0.7-1.9
		c0-0.7-0.2-0.8-1-0.6c-0.6,0.1-1.5,0.3-2.1,0.3c-0.6,0-1.2,0.5-1.5,1.2c-1.4,3.1-6.2-0.3-6.2-4.4c0-1.3-0.2-2.1-0.7-2.2
		c-0.4-0.2-0.7-0.7-0.7-1.4c0-1.6-1.2-2.3-4.4-2.4c-1.6,0-3.1-0.2-3.5-0.4c-0.3-0.2-0.5-1.1-0.5-2c0-1.6,0-1.6,1.4-1.4
		c0.9,0.2,2,0,3.1-0.6c1.7-0.9,1.8-0.9,2.8,0c1.1,0.9,1.1,0.9,2.8-0.3c0.9-0.7,2-1.6,2.3-2c0.9-1.2,0.7-3.1-0.6-4.3
		c-1.4-1.4-1.5-3.8-0.2-6c0.9-1.5,0.9-1.5,0-1.5c-0.6,0-1.2-0.5-1.5-1.2c-0.6-1.3-0.6-1.3-2.6-0.7c-1.4,0.4-1.5,0.4-2-1.1
		c-0.4-1.4-0.8-1.6-2.4-1.9c-1.8-0.3-2.1-0.2-3.2,1.2c-1.4,1.8-2.8,1.7-2.8-0.2c0-0.7-0.2-1.7-0.5-2.3c-0.4-1.2-0.6-1.2-4.1-1.2
		c-2,0-4.8,0.3-6.3,0.7c-2.5,0.6-2.6,0.6-3.9-0.5c-2-1.8-2.8-1.4-4.8,2c-1,1.8-2.1,3.7-2.2,4.3c-0.7,2.2-3.5,7-4.4,7.2
		c-0.6,0.2-1,1.1-1.4,2.6c-0.5,2.2-0.6,2.3-1.8,1.8c-2.2-0.8-7.6-1.8-10.1-1.8c-2.3,0-2.4,0-3,1.5c-1.1,3.1-0.4,4.2,1.7,2.7
		c1.6-1.2,2.8-1.2,5.1-0.2c3.3,1.4,5.7,4.4,5.7,7.3c0,2.8,1.2,6.2,2.1,6.3c0.5,0,1.6,0.3,2.5,0.6c0.9,0.2,2.2,0.6,2.9,0.7
		c1.4,0.3,1.8,1.8,0.5,2.3c-0.7,0.3-0.7,0.4,0,1.4c0.9,1.3,1,2.1,0.2,2.1c-0.3,0-1.5,0.8-2.7,1.9c0,0-0.1,0.1-0.1,0.1l74.8,181.7
		L395.7,227.9z"/>
	<path fill="#65CFFF" d="M402.3,236.1c0-1.4-0.2-1.6-3.3-3.1l-1.8-0.9l2.8,6.8C402,237.7,402.3,237.3,402.3,236.1z"/>
	<path fill="#FFFFFF" d="M400.2,291.4c0.4-0.3,0.7-1,0.7-1.4c0-1.2,1.8-2.3,3.6-2.3c1.9,0,2.3-0.7,0.8-1.4c-1.8-0.8-3.9-0.6-6.6,0.7
		c-0.2,0.1-0.4,0.2-0.6,0.2l1.9,4.5C399.9,291.6,400,291.5,400.2,291.4z"/>
	<path fill="#FFFFFF" d="M404.9,301.2c3.3,0,3.9-0.3,3.9-1.9c0-0.8,0.3-1.5,0.9-1.8c2-1,0.6-3.6-1.8-3.3c-0.7,0-2.1,1-3.3,2
		c-1.1,0.9-1.7,1.4-2.3,1.5l1.5,3.5C404.1,301.2,404.5,301.2,404.9,301.2z"/>
	<path fill="#FFFFFF" d="M319,96.5l73.7,177.9c1.3-0.4,3-0.2,3.6,0.5c0.7,0.8,2.4,1.7,4.1,2.2c1.2,0.4,1.4-0.7,0.3-1.6
		s-0.8-1.8,0.9-2.3c2.1-0.7,2.5-1.7,1.1-3.1c-0.9-0.9-0.9-1.2-0.4-1.5c0.4-0.2,1.2-0.3,1.7-0.2c1.5,0.4,2-1.9,0.7-3.1
		c-1.2-1.1-1.2-1.3-0.2-2.7c0.5-0.7,1.2-1,2.1-1c1.3,0,1.4-0.1,1-1.1c-0.3-0.8-0.3-1.8-0.2-3.7l-1.5-3.6c-0.3,0-0.6-0.1-1-0.1
		c-1.8,0-3.5-1.2-3.5-2.4c0-0.5-0.4-0.7-1.3-0.6c-1.1,0.1-1.3-0.1-1.7-1.7c-0.3-1.2-0.8-1.9-1.5-2.2c-0.8-0.3-1.1-0.8-1.1-1.8
		c0-2.3,0.8-3.5,3.8-5.1c0.2-0.1,0.3-0.2,0.5-0.3l-2.8-6.8l-1.4-0.7l0-2.8L320.9,47c-1.2,1-2.3,1.8-2.6,1.8c-0.7,0-1.4-2-0.7-2.2
		c0.3-0.1,1.2-0.6,2.1-1.2c0.2-0.1,0.3-0.2,0.4-0.3l-1.2-3L185.6,372.2c2.4,2.4,2.4,3.7,2.4,9c0,3.4,0,3.4,2,5.2
		c1.3,1.3,2.9,2.1,4.9,2.7c1.6,0.5,2.3,0.8,2.7,1.2l4.5-5.6L319,96.5z"/>
	<path d="M202.1,384.8l116.8-144.7h0l74.7,90.8c0.8-0.2,2.3-0.1,4.2,0.5c0.8,0.2,0.9,0,0.9-1.4c0-1.6,0.1-1.8,1.5-2.1
		c1.8-0.5,1.9-1.2,0.3-2.9c-1.4-1.5-1.4-1.4-0.2-3.4c0.9-1.5,1-1.8,0.4-4.3c-0.5-2.2-0.5-3.1,0-4.2c0.3-0.8,0.5-2.1,0.3-2.9
		c-0.2-1.4-0.1-1.6,0.9-2.1c1.6-0.7,1.5-1.5-0.2-1.5c-1.2,0-1.4-0.2-1.4-1.2c0-0.9-0.4-1.3-1.6-1.8c-0.8-0.4-1.7-0.8-1.9-1.1
		c-0.3-0.4,3.2-0.9,6.9-1l-1.5-3.5c-0.3,0.1-0.7,0.1-1,0c-1.5-0.4-1.6-0.5-0.9-1.6c0.4-0.8,0.4-1.2-0.2-1.8
		c-0.8-0.9-0.9-1.8-0.3-2.5l-1.9-4.5c-3.4,1.4-7.1,1.3-9.4-0.2c-1.7-1.2-2.4-3-1-3c0.4,0,1-0.6,1.5-1.3c0.5-0.7,1.3-1.6,1.9-2.1
		c1.4-1.1,1.4-1.4-0.1-2.1c-1.2-0.5-1.2-0.6-0.5-2c0.4-0.7,1.1-1.6,1.6-1.9c0.2-0.1,0.5-0.2,0.7-0.3L319,96.5L202.1,384.8z"/>
	<path fill="#FFCE00" d="M344.3,435.1c0.5-0.4,1.4-2.6,2.1-4.9c1.6-5.5,1.8-5.7,4.4-7.3c3.3-2,3.4-2.6,0.2-2.6c-2.3,0-2.6-0.1-3-1.2
		c-0.7-1.9-0.6-2.5,0.8-3.3c0.7-0.4,1.7-1.4,2.1-2.1c0.5-0.8,1.2-1.4,2.1-1.4c1-0.1,1.4-0.4,1.4-1.4c0.1-1.2,0.3-1.3,1.6-1
		c1.7,0.4,3.1,1.5,3.1,2.4c0,0.6,0.5,0.6,2.5,0.4c3-0.4,4.5,0.6,5.4,3.5c0.3,1,0.7,2,1,2.1c0.2,0.1,1.1-1.1,2-2.8
		c1.8-3.5,2.9-4.5,3.9-3.3c0.8,1.2,2.8,1.5,3.5,0.7c0.5-0.6,0.4-1.5-0.4-4.9c-0.6-2.3-0.9-4.4-0.7-4.7c0.1-0.3,1.1-0.5,2.1-0.5
		c1.7,0,1.9-0.1,2.8-1.9l0.9-1.9L381,397c-0.9-1.4-1-1.8-0.6-2.3c0.4-0.5,1-0.5,2.2-0.1c2.3,0.7,4.4-0.1,4-1.6
		c-0.8-2.7-0.8-3.5,0.2-4c1.4-0.7,1.2-1.9-0.4-2.5c-1.7-0.6-1.9-1.6-1.9-7.6c0-4.3,0-4.4,1.2-4.9c0.7-0.3,1.5-1.3,2.1-2.7
		c0.8-1.9,1-3.2,1-10.5c0-8.2,0-8.3,1.2-9.2c0.7-0.6,2.2-1.1,4-1.3c1.5-0.1,3.5-0.5,4.4-0.7l1.6-0.4l-1.9-0.8
		c-1.4-0.6-2.5-0.7-4.4-0.6c-2.5,0.3-2.6,0.2-3.4-1.1c-0.5-0.9-1.3-1.5-2.2-1.6c-1.7-0.4-1.8-1.4-0.2-1.8c1.9-0.5,1.5-2.1-0.5-2.4
		c-1.7-0.3-2.1-1.1-0.9-2.1c0.6-0.5,1.4-0.4,4.1,0.5c5,1.5,7.8,0.8,7.8-1.9c0-1.1-0.4-1.5-2.8-2.8c-2.9-1.6-3.7-2.8-2.6-3.7
		c0.1-0.1,0.3-0.2,0.4-0.2l-74.7-90.8h0L202.1,384.8l-4.5,5.6c0.2,0.2,0.2,0.4,0.2,0.6c0,0.6,1.7,2.7,4.4,5.4c3.5,3.5,4.5,4.8,5,6.5
		c0.4,1.5,1.8,3.6,4.5,6.9l3.9,4.8l2.7,0.1l2.7,0.1l1.3,2.4c1,1.8,1.7,2.6,3.3,3.2c1.1,0.5,3,1.8,4.2,2.9c1.5,1.4,2.7,2.1,4,2.3
		c1,0.1,2.5,0.8,3.4,1.4c1.4,1.1,1.8,1.1,5,0.8c3.4-0.3,3.5-0.3,4.8,0.9c1.5,1.4,4.1,2,6,1.3c0.9-0.3,4.1-0.3,9.2-0.1
		c8.6,0.4,9.1,0.6,9.1,3.4c0,0.9,0.6,2.1,1.9,3.5c0.4,0.4,0.6,0.8,0.9,1.1l67.4-0.1C342.1,437.1,343.1,436.2,344.3,435.1z"/>
</g>
</svg>
