<?xml version="1.0" encoding="utf-8"?>
<!-- Generator: Adobe Illustrator 17.1.0, SVG Export Plug-In . SVG Version: 6.00 Build 0)  -->
<!DOCTYPE svg PUBLIC "-//W3C//DTD SVG 1.1//EN" "http://www.w3.org/Graphics/SVG/1.1/DTD/svg11.dtd">
<svg version="1.1" id="flag-icon-css-li" xmlns="http://www.w3.org/2000/svg" xmlns:xlink="http://www.w3.org/1999/xlink" x="0px"
	 y="0px" viewBox="0 0 640 480" enable-background="new 0 0 640 480" xml:space="preserve">
<g>
	<path fill="#002B7F" d="M370.3,225.3c-2-1.1-5.9-3.8-8.6-6c-5.7-4.5-6.7-4.7-10.7-2.7c-2.1,1-3,1.2-7.1,1.2c-4,0-5.1-0.2-7.3-1.2
		l-2.6-1.2l0.3-2c0.4-2.2,1-3.2,2.2-3.2c0.4,0,1.3-0.4,2-0.9c0.7-0.5,1.5-0.9,1.8-0.9s1.6-1.5,2.8-3.3c1.2-1.8,2.4-3.4,2.7-3.5
		c0.8-0.5,0.6-14.1-0.2-17.8c-0.4-1.8-0.7-5.2-0.7-7.6v-4.4l5.2-5.5c5-5.2,5.2-5.7,6.5-9.5c2.3-6.9,4.7-13.2,5.7-14.6
		c0.5-0.7,0.8-1.6,0.6-1.9s-2.5-2.6-5.1-5c-4.2-3.8-4.7-4.6-5.3-6.7c-0.3-1.3-1.2-3-1.9-3.9c-0.7-0.8-1.6-2.2-2-3
		c-0.4-0.9-1.3-2.3-1.9-3c-0.7-0.8-2.3-3.2-3.6-5.4c-2.5-4-2.6-4.2-6.9-5.4c-1.9-0.6-3.5-1.5-5.9-3.7c-3.5-3.1-4.7-3.5-9.4-3.6
		c-1.5,0-2.7-0.3-3.1-0.7c-0.4-0.5-0.9-0.6-1.8-0.2c-0.7,0.2-1.4,0.3-1.5,0.2c-0.4-0.4,3.7-9.9,5.8-13.6c3.3-5.6,7.8-12,11.1-15.9
		c5.2-6.1,5.4-10.2,0.6-16.4c-1.4-1.8-3.2-4.6-4.1-6.2c-2.7-4.9-19.2-20-24.3-22.2c-1.3-0.6-2.5-1.5-2.8-2c-0.3-0.6-1.3-1.8-2.1-2.7
		c-1.4-1.5-3.7-7.2-4.2-10.5c-0.1-0.6-0.7-1.1-1.7-1.3c-1-0.3-3-1.8-5.8-4.6c-2.4-2.3-4.6-4.2-5.1-4.2c-0.6,0-0.8,0.6-0.8,3.4
		c0,5.6-1.6,13.7-3.5,18.4c-1,2.3-2.5,6.6-3.2,9.6c-2.5,9.2-4.8,15.5-8.4,22.9c-4.5,9-12.7,23.7-15.8,28.3c-1,1.5-2.4,3.7-3.5,5.6
		c1.6,0.5,2.8,2,2.8,3.7c0,2.2-1.8,3.9-3.9,3.9c-1,0-1.9-0.4-2.6-1c-0.1,0.2-0.2,0.3-0.3,0.4c-0.1,0.1-0.2,0.2-0.3,0.3
		c4,4.3,6.2,9.9,6.2,15.6c0,7-1.3,13.1-3.4,18.9c4.8-0.3,9.9,1.3,14.3,4.8c-9.4,7.6-13.5,30.2-21.4,40h-0.2c0,2.6-9.3,5.4-23.7,7.2
		c-0.2,6.5,0.3,13.4,1.4,21.4c2,14.3,4.2,23.2,7.2,29c0.7,1.4,1.5,3.7,1.7,5.2c0.1,0.6,0.3,1.2,0.5,2H387
		C384.8,235.5,378.7,230.1,370.3,225.3z M246.5,99.5c0-2.2,1.8-3.9,3.9-3.9s3.9,1.8,3.9,3.9c0,2.2-1.8,3.9-3.9,3.9
		S246.5,101.7,246.5,99.5z M251,129.7c-2.2,0-3.9-1.8-3.9-3.9c0-2.2,1.8-3.9,3.9-3.9c2.2,0,3.9,1.8,3.9,3.9
		C255,127.9,253.2,129.7,251,129.7z M252.8,121c-2.2,0-3.9-1.8-3.9-3.9c0-2.2,1.8-3.9,3.9-3.9c2.2,0,3.9,1.8,3.9,3.9
		C256.7,119.2,255,121,252.8,121z M252.9,112.1c-2.2,0-3.9-1.8-3.9-3.9c0-2.2,1.8-3.9,3.9-3.9c2.2,0,3.9,1.8,3.9,3.9
		C256.8,110.3,255,112.1,252.9,112.1z"/>
	<path fill="#CE1126" d="M227,245c1.3,2.4,2.8,5.8,3.4,7.5c0.6,1.7,3,5.9,5.3,9.4c4.9,7.5,10.7,17.9,12.1,21.8
		c1.4,4.1,4.1,15.9,4.5,19.9c0.2,1.9,1,6.1,1.7,9.2c1.5,6.4,3.3,16.1,4.8,26.6c0.6,3.8,1.9,10.3,3,14.3l2,7.3v10.8
		c0,10.2,0,11-1.2,14.1c-1.2,3.3-3.7,7.6-6.8,11.5c-1.8,2.3-9.1,8.3-17.9,14.7c-2.8,2-7.7,5.8-10.9,8.4c-8.8,7.2-11,8.8-17.4,12
		c-3.2,1.6-8.4,4.7-11.7,6.7c-5.4,3.4-6,4-6.4,5.6c-0.6,2.2-0.1,9.1,0.8,11.5c0.3,0.9,1.2,3,1.8,4.7c0.6,1.7,1.4,5,1.8,7.4l0.6,4.4
		l1.4-0.1l1.5-0.1l-0.1-3.1c-0.1-3.5,0-3.7,3.3-4.6c1.2-0.3,2.6-0.7,3-0.8c0.7-0.2,0.8,0,0.7,2.5c-0.1,2.3,0.2,3.3,1.8,6.7
		c1.7,3.5,3.7,6.1,4.2,5.6c0-0.1,1.7-3,3.6-6.5c5.1-9.3,6-10.1,9.4-8.4c1.2,0.6,2.8,1.6,3.6,2.4c1,0.9,1.9,1.4,2.7,1.2
		c1-0.1,1.3-0.6,1.9-3l0.7-2.9l1.4,0.7c1.6,0.8,3.7,0.8,11.5,0.2c7-0.6,9.1-1.4,10-4c1.2-3.4,2-3.9,10.3-5.7
		c4.2-0.9,8.8-2.2,10.3-2.8c1.4-0.7,3.3-1.2,4.1-1.2c0.9,0,1.7-0.5,2.5-1.5c1.2-1.5,3.5-2.4,7.4-3c1.5-0.2,4.1,0.8,9.4,3.8
		c1.4,0.8,3.7,1.9,4.9,2.3c1.9,0.7,2.5,1.2,3.5,3c0.7,1.3,2.2,3.2,3.4,4.5c2.3,2.3,2.8,4,3.4,11c0.5,5.5,1.2,7.7,2.6,9
		c2.5,2.2,7,2.6,9.1,0.8c3.5-3,5.7-4.1,10-4.8c2.4-0.4,5-1.2,5.9-1.7c1.5-0.9,2.4-1.1,8.1-1.1l6.3,0l3.9-2.2
		c2.1-1.2,4.8-2.4,5.9-2.7c1.3-0.4,2.2-1,2.5-1.7c0.7-1.6,2.5-2.5,5.9-3.1c2.4-0.4,3.4-0.8,4.5-2c0.8-0.8,2.6-1.9,3.9-2.4
		c2.1-0.8,2.5-1.2,2.8-2.7c0.3-1.4,0.8-1.9,2.2-2.4c1.6-0.6,1.8-0.6,2.9,0.2c2.7,2.1,5.4,0.6,8.2-4.7c1.1-2.2,2-4.3,2-4.9
		s0.8-3.1,1.7-5.7c2.2-6,2.2-7.8,0-11.3c-2.3-3.6-2.4-4.2-1.6-8.2l0.6-3.3h2.4c1.3,0,3.6,0.4,5.3,1c1.6,0.6,3,0.9,3,0.8
		c0.1-0.1,1.6-2.3,3.4-4.9c1.8-2.6,3.4-4.7,3.4-4.8c0-0.1,3.2-0.5,7-0.8c8.4-0.8,8.6-1,8.6-5.3c0-2.3,0.3-3.7,1.2-5.6
		c2-4.3,1.5-12.3-1.2-20c-1.2-3.2-9.2-18.6-11.8-22.3c-1-1.4-1.8-2.7-1.8-2.8c-0.1-0.1-0.8-0.7-1.6-1.3c-2.3-1.5-2.4-2.9-0.7-6.1
		c1.9-3.6,2.9-7,3.3-11.7c0.3-3.7,0.3-3.9,3.1-7.5c2.3-2.9,3.3-3.8,5.2-4.6c2.7-1.2,3.8-2.7,4.2-6c0.1-1.1,0.8-2.8,1.4-3.6l1.2-1.5
		l-1.4-0.3c-0.7-0.1-3.5-1.7-6.1-3.4c-2.6-1.7-5-3.1-5.4-3.1c-1.4,0-2.1-3-2.1-8.7c0-4.4-0.2-5.8-0.9-7.2c-0.5-0.9-1.2-2.6-1.4-3.7
		c-0.5-1.8-0.4-2.2,0.6-3.8c0.6-1,1.6-3.2,2.1-4.9l1-3.1l-1.6-1.5c-1.7-1.6-4.4-6.4-5.3-9.5l-0.5-1.8l-4.2,3.1
		c-2.3,1.7-4.3,3.5-4.5,3.9c-0.3,1-3.8,1.9-7.3,1.9c-5.7,0-9.2-3.6-10.9-11.1c-1.1-4.8-1.8-6.6-3.1-7.6c-0.5-0.4-0.7-1-0.4-2.1
		c0.2-1.3-0.1-2.8-0.9-4.4H224.8C225.3,241.4,226,243.2,227,245z"/>
	<path fill="#FFD83D" d="M235.6,131.5v-13.6c-0.5,4.1-1.2,8.1-1.8,9.7c-0.5,1.3-1.1,2.6-1.9,4.5
		C233.1,132.4,234.4,132.2,235.6,131.5z"/>
	<path fill="#FFD83D" d="M239.6,102.2v22c1.3-4.4,2.1-8.8,2.1-13.5C241.7,107.3,240.9,104.5,239.6,102.2z"/>
	<path fill="#FFD83D" d="M237,130.2h0.4c0.8-2,1.5-4,2.1-6v-22c-0.1-0.2-0.2-0.3-0.3-0.5c0,0,0,0.1,0,0.1c-0.2,1-1,2.6-1.8,3.5
		c-1.3,1.5-1.4,2-1.4,5.2c0,2-0.2,4.7-0.5,7.4v13.6C236.1,131.2,236.6,130.7,237,130.2z"/>
	
		<line fill="none" stroke="#FFD83D" stroke-width="0" stroke-linecap="round" stroke-linejoin="round" x1="239.6" y1="124.2" x2="239.6" y2="102.2"/>
	
		<line fill="none" stroke="#FFD83D" stroke-width="0" stroke-linecap="round" stroke-linejoin="round" x1="235.6" y1="131.5" x2="235.6" y2="117.9"/>
	<path d="M229.4,143.2c1.4-4.1,3.6-7.2,6.3-9.3c0.6-1.2,1.2-2.5,1.7-3.7H237c-0.5,0.6-0.9,1-1.4,1.3c-1.2,0.8-2.5,0.9-3.8,0.6
		c-0.7,1.4-1.5,3.2-2.6,5.5C229.5,139.4,229.6,141.3,229.4,143.2z"/>
	<path fill="#FFD83D" d="M249.3,92.2c0-1.8-1.2-3.2-2.8-3.7c-0.3,0.6-0.6,1.1-0.9,1.6c-0.9,1.8-2.1,3.9-2.9,5c0.7,0.6,1.6,1,2.6,1
		C247.5,96.2,249.3,94.4,249.3,92.2z"/>
	<circle fill="#FFD83D" cx="250.4" cy="99.5" r="3.9"/>
	<circle fill="#FFD83D" cx="252.9" cy="108.2" r="3.9"/>
	<circle fill="#FFD83D" cx="252.8" cy="117" r="3.9"/>
	<circle fill="#FFD83D" cx="251" cy="125.8" r="3.9"/>
	<path fill="#FFD83D" d="M241.7,110.7c0,4.6-0.8,9.1-2.1,13.5c-0.6,2-1.3,4-2.1,6c-0.5,1.2-1.1,2.5-1.7,3.7c2.7-2.1,5.8-3.3,9.1-3.5
		c2.1-5.9,3.4-12,3.4-18.9c0-5.7-2.2-11.3-6.2-15.6c-1.6,2-2.4,3.8-2.8,5.8c0.1,0.2,0.2,0.3,0.3,0.5
		C240.9,104.5,241.7,107.3,241.7,110.7z"/>
	<path fill="#FFD83D" d="M216.6,167.6l-0.4,2.2c1.5,0.1,2.9,0.3,4.3,0.4l0.4-2.6l-0.4,2.6c1.4,0.2,2.8,0.3,4.1,0.5l0.6-2.7l-0.6,2.7
		c1.2,0.2,2.2,0.3,3.3,0.5l0.5-2.6l-0.5,2.6c1.2,0.2,2.2,0.4,3.2,0.6l0.7-2.6l-0.7,2.6c1.2,0.3,2.2,0.5,3.1,0.8l0.8-2.5l-0.8,2.5
		c2.2,0.8,3.5,1.6,3.5,2.5h0.2c7.8-9.8,12-32.4,21.4-40c-4.4-3.5-9.5-5.2-14.3-4.8c-3.3,0.2-6.5,1.4-9.1,3.5
		c-2.7,2.1-4.9,5.2-6.3,9.3c0.2-1.9,0.1-3.8-0.2-5.6c-1,2.1-2.2,4.6-3.8,7.8c-2.6,5.2-5.8,12.4-7.4,16.1c-1.6,3.8-2.3,5.9-2.8,8.2
		c0.3,0,0.7,0.1,1,0.1L216.6,167.6z M250.9,136.9c0.3-0.2,0.6-0.2,0.8-0.2h0.1c0.6,0,0.6,0.6,0,1c-0.6,0.6-1.6,1.1-2.4,1.8
		c-1,0.8-1.4,0.1-0.9-0.6C249,138.2,249.6,137.6,250.9,136.9z M245.5,138.6l1.5-2.2c0.3-0.6,0.6-0.8,0.9-0.8c0.6,0,0.7,1,0.2,1.6
		c-0.6,0.8-1.3,1.5-2.1,2.2C245.4,140,245.2,139.2,245.5,138.6z M241.7,140.3l1-3c0.2-0.6,0.8-0.9,1.3-0.9h0h0l0,0
		c0.4,0,0.7,0.3,0.3,1c-0.4,1-1,2.2-1.4,3C242.4,141.3,241.2,141.5,241.7,140.3z M239.6,137.6c0.5,0,0.8,0.3,0.6,1
		c-0.3,1.1-1,2.2-1.1,2.9c-0.2,0.7-1,0.4-0.8-0.6l0.3-2.5C238.6,137.9,239.1,137.6,239.6,137.6z M236.2,139.4c0.3,0,0.6,0.2,0.5,1
		l-0.7,2.4c-0.2,0.9-0.8,0.7-0.8-0.1l0.2-2.6C235.4,139.7,235.8,139.4,236.2,139.4L236.2,139.4z M233.5,152.4
		c-0.4-2.2-0.9-3.7-0.9-5c0.1-1.2,0.8-1.1,1.1,0c0.2,0.8,0.4,1.6,0.8,2.3c0.2,0.3,1.4,0.6,2.4-0.8c1.3-1.7,2.8-3.2,4.4-4.6
		c0.3-0.3,0.6-0.5,0.9-0.5c0.4,0,0.5,0.2,0,1c-1.2,1.6-2.6,4.1-2.6,5.1c-0.1,1.1,0.5,1.1,1,1.1c1.4,0,2.2-1.1,3.5-1.4
		c1.4-0.2,1.5,0.4,0.6,1.1c-4.6,2.9-8.5,6.6-11.7,11c-0.8,1.4-1.9,2-1.3,0.6C233.5,158.2,233.9,154.6,233.5,152.4z"/>
	<path d="M237.7,175.2c0-0.9-1.2-1.8-3.5-2.5l-0.8,2.4l0.8-2.4c-0.9-0.3-1.9-0.6-3.1-0.8l-0.6,2.3l0.6-2.3c-1-0.2-2-0.4-3.2-0.6
		l-0.5,2.5l0.5-2.5c-1-0.2-2.1-0.3-3.3-0.5l-0.5,2.3l0.5-2.3c-1.3-0.2-2.6-0.3-4.1-0.5l-0.4,2.5l0.4-2.5c-1.4-0.1-2.8-0.3-4.3-0.4
		l-0.5,2.9l0.5-2.9c-0.3,0-0.7-0.1-1-0.1c-0.2,1.2-0.4,2.4-0.6,4c-0.4,2.9-0.6,5.8-0.7,8.7C228.4,180.6,237.7,177.8,237.7,175.2z"/>
	<path d="M249.4,139.5c0.8-0.7,1.8-1.3,2.4-1.8c0.6-0.4,0.6-1,0-1h-0.1c-0.2,0-0.5,0-0.8,0.2c-1.3,0.7-1.8,1.4-2.4,2
		C248,139.6,248.4,140.3,249.4,139.5z"/>
	<path d="M246.1,139.4c0.8-0.6,1.5-1.4,2.1-2.2c0.5-0.6,0.3-1.6-0.2-1.6c-0.2,0-0.6,0.2-0.9,0.8l-1.5,2.2
		C245.2,139.2,245.4,140,246.1,139.4z"/>
	<polygon points="243.9,136.4 243.9,136.4 243.9,136.4 	"/>
	<path d="M231.7,162.5c-0.6,1.4,0.5,0.8,1.3-0.6c3.2-4.4,7.1-8.1,11.7-11c1-0.7,0.8-1.4-0.6-1.1c-1.4,0.3-2.1,1.4-3.5,1.4
		c-0.5,0-1,0-1-1.1c0.1-1,1.4-3.5,2.6-5.1c0.5-0.8,0.4-1,0-1c-0.2,0-0.6,0.2-0.9,0.5c-1.6,1.4-3.1,3-4.4,4.6c-1,1.4-2.2,1.1-2.4,0.8
		c-0.4-0.7-0.6-1.5-0.8-2.3c-0.3-1.1-1-1.2-1.1,0c0,1.3,0.5,2.7,0.9,5C233.9,154.6,233.5,158.2,231.7,162.5z"/>
	<path d="M242.8,140.5c0.4-0.8,1-2,1.4-3c0.4-0.7,0.1-1-0.3-1c-0.5,0-1,0.3-1.3,0.9l-1,3C241.2,141.5,242.4,141.3,242.8,140.5z"/>
	<path d="M238.2,140.9c-0.2,1,0.6,1.3,0.8,0.6c0.2-0.6,0.8-1.8,1.1-2.9c0.2-0.6-0.1-1-0.6-1c-0.5,0-1,0.3-1,0.8L238.2,140.9z"/>
	<path d="M235.4,140.1l-0.2,2.6c0,0.8,0.6,1,0.8,0.1l0.7-2.4c0.2-0.7-0.2-1-0.5-1v0.1C235.8,139.4,235.4,139.7,235.4,140.1z"/>
	
		<line fill="none" stroke="#FFD83D" stroke-width="0" stroke-linecap="round" stroke-linejoin="round" x1="234.2" y1="172.7" x2="235" y2="170.2"/>
	
		<line fill="none" stroke="#FFD83D" stroke-width="0" stroke-linecap="round" stroke-linejoin="round" x1="220.6" y1="170.2" x2="221" y2="167.6"/>
	
		<line fill="none" stroke="#FFD83D" stroke-width="0" stroke-linecap="round" stroke-linejoin="round" x1="234.2" y1="172.7" x2="233.4" y2="175"/>
	
		<line fill="none" stroke="#FFD83D" stroke-width="0" stroke-linecap="round" stroke-linejoin="round" x1="224.2" y1="173" x2="224.6" y2="170.7"/>
	
		<line fill="none" stroke="#FFD83D" stroke-width="0" stroke-linecap="round" stroke-linejoin="round" x1="220.2" y1="172.7" x2="220.6" y2="170.2"/>
	
		<line fill="none" stroke="#FFD83D" stroke-width="0" stroke-linecap="round" stroke-linejoin="round" x1="216.3" y1="169.8" x2="215.8" y2="172.7"/>
	
		<line fill="none" stroke="#FFD83D" stroke-width="0" stroke-linecap="round" stroke-linejoin="round" x1="231.8" y1="169.2" x2="231.1" y2="171.8"/>
	
		<line fill="none" stroke="#FFD83D" stroke-width="0" stroke-linecap="round" stroke-linejoin="round" x1="227.9" y1="171.2" x2="227.4" y2="173.7"/>
	
		<line fill="none" stroke="#FFD83D" stroke-width="0" stroke-linecap="round" stroke-linejoin="round" x1="228.4" y1="168.6" x2="227.9" y2="171.2"/>
	
		<line fill="none" stroke="#FFD83D" stroke-width="0" stroke-linecap="round" stroke-linejoin="round" x1="216.3" y1="169.8" x2="216.6" y2="167.6"/>
	
		<line fill="none" stroke="#FFD83D" stroke-width="0" stroke-linecap="round" stroke-linejoin="round" x1="231.1" y1="171.8" x2="230.5" y2="174.2"/>
	
		<line fill="none" stroke="#FFD83D" stroke-width="0" stroke-linecap="round" stroke-linejoin="round" x1="225.2" y1="168" x2="224.6" y2="170.7"/>
</g>
</svg>
