<?xml version="1.0" encoding="utf-8"?>
<!-- Generator: Adobe Illustrator 17.1.0, SVG Export Plug-In . SVG Version: 6.00 Build 0)  -->
<!DOCTYPE svg PUBLIC "-//W3C//DTD SVG 1.1//EN" "http://www.w3.org/Graphics/SVG/1.1/DTD/svg11.dtd">
<svg version="1.1" id="flag-icon-css-lk" xmlns="http://www.w3.org/2000/svg" xmlns:xlink="http://www.w3.org/1999/xlink" x="0px"
	 y="0px" viewBox="0 0 640 480" enable-background="new 0 0 640 480" xml:space="preserve">
<g>
	<path fill="#FFB700" d="M262.6,0.7c-1,2.7,3.5,5.7,8.5,5.8l2.8,0l4.9,5.7c3,3.5,7.6,7.9,11.8,11.5c1.3,1.1,2.4,2.1,3.4,2.9h3.6
		l-7.6-5.9l-6.3-8.1c-4.3-5.5-6.5-8.8-7-10.4L275.9,0h-6.5C263.8,0,262.8,0.1,262.6,0.7z"/>
	<path fill="#FFB700" d="M229.2,158.2v4.8c0,4.7,0,4.8-1.5,6.6c-1.4,1.7-1.5,2-1.3,4.7c0.2,2.5,0,3.3-1,5.5c-1,2-1.4,3.6-1.6,7
		c-0.3,3.9-0.5,4.7-1.8,6.5l-1.4,2.1l1,1.7c0.7,1.2,1,2.6,1,4c0,1.2,0.2,3,0.5,3.9c0.5,1.5,0.3,2-1.5,5.7l-2,4.1l2.2,2.9
		c2.2,2.8,2.2,2.9,1.9,5.1c-0.4,2.8-1.5,3.5-5.1,3.2c-2.1-0.2-2.9-0.5-4-1.5c-1.9-1.9-2.2-2.9-1-4.5c1.2-1.6,1.2-1.9,0.1-2.9
		c-0.7-0.6-0.9-1.7-1.2-4.8c-0.2-3.4-0.1-4.3,0.7-6.1c0.5-1.2,0.9-3.1,0.9-4.3c0-1.8,0.3-2.4,1.5-3.7c0.9-1,1.5-2.1,1.7-3.4
		c0.2-1.8,0.2-2-1.2-2.4c-0.8-0.3-1.5-0.8-1.5-1.2c0-0.4,0.9-2.4,1.9-4.5l1.9-3.8l-2.6,2.8c-1.8,2-2.8,3.6-3.4,5.3
		c-0.4,1.4-1.6,3.7-2.7,5.1l-1.9,2.5l0.4,4.9c0.2,2.9,0.2,5.1,0,5.3c-0.8,0.8,2.1,15,5.8,29.3c3.8,14.8,5.6,24.5,5.6,31.6
		c0,3.3-0.1,3.7-0.7,3.2c-0.4-0.4-0.7-0.4-0.7-0.1c0,0.3,1.4,9.5,3,20.5c2.8,18,3,20.5,2.8,24.3c-0.3,4.3-0.3,4.4,0.9,5.3
		c1.2,0.9,2.2,4.1,2.2,7c0,2.4-0.7,1.6-2.4-2.7c-1-2.5-1.9-4.2-2.4-4.3c-0.6-0.1,0,2.1,2.5,10.5c2.7,8.9,3.2,11.2,3.2,14
		c0,3-0.2,3.7-1.5,5.8l-1.5,2.3l1.3,7.8c0.8,5,1.3,7.4,2.7,11.4V158.2L229.2,158.2z"/>
	<path fill="#FFB700" d="M236.2,19.8c-0.1-0.4-1.2-0.9-2.3-1.2l-2.1-0.5l-0.1-3c-0.1-1.6,0.1-3.6,0.4-4.4c0.2-0.8,0.3-1.6,0.1-1.8
		c-0.7-0.7-2.2-0.8-3.2-0.4c-0.7,0.4-1.1,1.3-1.5,3.7c-0.8,4.5-0.7,4.9,0.7,6.6c0.7,0.8,1.5,2.1,1.6,2.7c0.8,2.9,2.5,3.7,8.4,3.7
		h4.8l-3.3-2.4C237.9,21.6,236.3,20.2,236.2,19.8z"/>
	<path fill="#FFB700" d="M287.5,24.8c-3.3-2.2-5-3.7-5.7-4.9c-0.6-1-2-2.8-3.2-3.9s-2.9-3.3-3.8-4.9c-1.7-2.7-1.7-2.7-3.6-2.5
		c-1.4,0.2-2.5,0-4.3-0.9c-1.3-0.6-3.3-1.3-4.4-1.6c-1.9-0.5-2-0.6-2.5-3c-0.7-2.9-0.6-2.9-4.9-1.9c-2.3,0.5-3.6,0.5-7.3-0.1
		l-4.5-0.7l-2.5,2.3c-1.3,1.3-3.2,2.9-4.2,3.6l-1.7,1.3l1.5,2.6c0.8,1.5,1.6,3.5,1.7,4.5l0.2,1.9l3,0.7c2.5,0.5,3.4,1,5.1,2.7
		c1.2,1.2,3.3,2.5,4.9,3.2c1.5,0.6,4,1.8,5.4,2.6c0.7,0.4,1.4,0.7,2,1h1.8c-0.1-0.3-0.5-0.6-1-1.2c-0.8-0.9-1.4-1.8-1.2-1.9
		c0.1-0.1,1.4,0.5,2.7,1.5c0.7,0.5,1.5,1.1,2.4,1.7h5.2c-0.2-0.2-0.4-0.4-0.6-0.7c-2.1-2.1-2.5-3.6-1-3.6c0.8,0,4.5,1.8,8.6,4.2
		h14.9C289.5,26.1,288.4,25.4,287.5,24.8z"/>
	<path fill="#FFB700" d="M211.8,39c-0.4-2-1.1-2.5-3.5-2.5c-0.6,0-1.8-0.7-2.8-1.4c-1-0.8-2-1.4-2.2-1.4c-0.2,0-0.4,1.4-0.4,3v3
		l2.1,1.2C209.7,43.6,212.6,42.8,211.8,39z"/>
	<path fill="#FFB700" d="M229.3,94.9c-3.5-2.5-10.8-6.1-12-5.9c-0.3,0-2.5,0.2-4.9,0.2c-3.8,0.1-4.4,0.3-4.4,1c0,1,2.5,2.3,7.3,3.8
		c4.4,1.5,10.6,5.2,12.7,7.8l1.2,1.5v-4.7l-0.8-0.8l0.8,0.1V94.9z"/>
	<path fill="#FFB700" d="M258.5,455.7c1.1,0.7,2.1,1.4,2.1,1.6c0,0.2,0.6,0.7,1.3,1.1c0.7,0.4,2.5,2.2,4,4c2.2,2.7,3,3.3,4.1,3.3
		c1.9,0,3.5,0.7,5.8,2.6c1.5,1.3,2.7,1.7,5,2.1c1.6,0.3,3.7,0.9,4.5,1.4c1.1,0.7,1.9,0.8,3.2,0.6c1.5-0.3,1.9-0.1,3.3,1.3
		c1.4,1.3,1.9,1.5,3.6,1.4c1,0,2.3-0.3,2.8-0.6c1.1-0.6,2.2,0.2,2.2,1.5c0,1.2,0.9,1.4,7.2,1.4c4.5,0,6.3,0.2,8.6,1l2.9,1l2.8-2.2
		l2.8-2.2h3.9c3.6,0,4.1-0.1,5.1-1.2c0.6-0.7,1.4-1.2,1.7-1.2c0.3,0,1-0.6,1.5-1.4c0.5-0.7,1.5-1.5,2.3-1.6c0.7-0.1,2.5-1.2,3.9-2.4
		c2.5-2.1,2.7-2.2,4.9-1.8c2.2,0.3,2.3,0.2,2.7-1c0.4-1.1,1.4-1.6,8.2-4.1c6.8-2.5,8.5-2.9,14.7-3.7c3.9-0.5,7.3-0.9,7.6-0.9
		c0.3,0,0.9-0.6,1.4-1.4c0.3-0.6,0.7-0.9,1.2-1.3H256.3C256.6,454.4,257,454.8,258.5,455.7z"/>
	<path fill="#FFB700" d="M227.8,32.1v-1.8c0-1.7-0.1-1.8-1.3-1.7c-0.8,0.1-1.9-0.3-2.8-0.9l-1.5-1l-0.2,1.8
		c-0.3,2.7,0.2,3.3,3.2,3.5L227.8,32.1z"/>
	<path fill="#8D2029" d="M297.4,29.8c-0.4,0.3-3.5-1.2-6.8-3.1h-14.9c3.6,2.1,7.7,4.6,10.6,6.6c5.9,4.1,6.3,4.3,8.5,3.7
		c0.8-0.3,1.5-0.1,2,0.4c0.7,0.7,0.9,0.7,1.3,0c1.1-1.8,1.3-2,2.3-1.7c1,0.3,16.9,10.1,18,11.1c0.2,0.2-0.2,0.4-1.2,0.4
		c-1.7,0-4.8-1.3-6.9-2.8c-0.7-0.5-3-1.6-5.2-2.6c-3.5-1.5-4.4-1.7-7.2-1.7c-1.9,0-3.8,0.4-4.7,0.8c-5.5,2.9-14.7,4.4-15.4,2.7
		c-0.5-1.3-0.3-1.9,0.9-2.4c1.4-0.7,1.2-1.1-1.3-3.9c-1.5-1.7-1.6-1.8-6.2-2.3c-4.4-0.5-5-0.7-9.9-3.3c-4.2-2.2-5.6-2.8-7.4-2.8
		c-2,0-2.2,0.1-1.7,0.9c0,0.1,0.2,0.2,0.3,0.3c3.4,0.7,5.6,2.4,7,4.7c1.7,1,3.3,1.9,4.5,2.5c1.8,0.9,2.3,1.5,3.1,3.4l1,2.3l-2.2,0.9
		c-1.9,0.8-2.3,1.3-3.3,3.4l-0.3,0.7c0.1,1.1,0.1,2.2,0.2,3.3c0.6,3.6,2,8.4,2.9,12c0.7,3,0.8,8,0.8,8l0,0v0v0c0,0-3.6-7.3-7.6-10.4
		c-1.7-1.3-4-2.1-6.4-2.9v3.4l3.4,2.2l3.4,2.2l0.6,3.1c0.5,2.9,0.5,3.5-0.6,7.9c-0.8,3.2-1.7,5.6-2.8,7.2c-1.2,1.7-1.9,3.8-2.9,8
		c-0.7,3.1-1.5,5.9-1.7,6.4c-0.2,0.4-1.4,1-2.6,1.4c-1.5,0.5-3.3,1.6-6.3,4.2c-2.2,2-4.7,3.9-5.5,4.4l-1.5,0.7l0,9.2v9.1l1.7,3.6
		l1.6,3.6l-0.6,6.4c-0.5,5.7-0.7,6.6-1.8,8.1c-0.8,1.1-1.4,2.7-1.6,4.1c-0.3,2.3-0.4,2.4-3.1,3.7l-2.7,1.3V375
		c0.5,1.6,1.2,3.5,2.1,5.8c2.1,5.5,4.1,10.2,5,11.5c1.1,1.5,2.2,4.2,3.7,9.6c2.1,7.3,2.2,7.6,1.5,9.4s-0.6,2,0.4,2.9
		c0.7,0.7,1.3,2,1.6,4.1c0.3,1.9,0.8,3.7,1.4,5.3c4.8-1.3,10-2.2,13.3-4.7c4-3.1,7.6-10.4,7.6-10.4s-0.1,5-0.8,8
		c-0.9,3.6-2.3,8.4-2.9,12c-0.6,7.9-0.3,17.1-7.4,20.3c0.6,1.1,1.1,2.3,1.2,3.3c0.1,0.4,0.1,0.7,0.2,1h127.5
		c0.5-0.3,1.2-0.5,2.2-0.8c2.2-0.6,2.7-0.8,3.4-2.2c1.5-3.1,2.7-3.7,2.7-1.4c0,0.7,0.1,1.4,0.3,1.4c0.1,0,1.3-0.6,2.4-1.4
		c1.5-0.9,3-1.5,5.1-1.6c3.4-0.4,7.6-2.1,10.2-4.2c1-0.8,2.9-2.1,4.2-2.9c1.3-0.7,3.5-2.3,4.9-3.5c1.4-1.2,3.7-2.9,5-3.9
		c1.3-0.9,3.2-2.7,4.2-3.9c1.3-1.6,2.7-2.6,5.3-3.8c1.9-0.9,4.2-2.2,5.1-3c0.9-0.7,2.4-1.8,3.5-2.3c4.2-2.2,8.3-6.9,14.4-16.6
		c5.9-9.3,6.6-11,6.6-13.8c0-0.8,0.3-2,0.7-2.6c0.4-0.6,1.5-3,2.6-5.5c1.6-3.7,1.9-4.9,1.9-7.3c-0.1-2.5,0.1-3.2,1.3-4.9
		c1-1.5,1.5-2.8,1.7-5c0.1-1.7,0.8-4,1.4-5.2c0.6-1.2,1.3-3.8,1.6-5.8c0.3-2,0.8-4.2,1.3-5c0.6-1.2,0.7-2.1,0.2-5.9
		c-0.1-0.6-0.1-1.2-0.2-1.8c-0.5-0.2-0.9-0.5-1.1-1l-0.9-1.6c-0.1-0.1-0.9,0.5-1.9,1.5c-2.1,2.1-4.8,2.2-7,0.1l-1.7-1.6l-2.5,1.6
		l0,0c-1.4,0.9-3.1,1.6-3.8,1.6c-1.1,0-1.2-0.3-0.9-1.8c0.4-2.1,1.6-4,3.4-5.3c1.5-1.4,2.7-1.7,8-2c4.5-0.2,5.8-0.5,7-1.4
		c0-1.7,0.1-3.9,0.2-7c0.2-4.9,0.6-9.2,0.7-9.6c0.4-1.1-0.8-6.4-2.4-11.8c-0.9-1.2-1.9-2.6-3.2-4.2c-1.3-1.7-2.5-3.3-3.5-4.7
		c-0.4,1.2-0.8,2-0.9,1.8c-0.1-0.3-0.4-1.4-0.7-2.4c-0.5-1.9-0.6-2-1.7-1.5c-1.5,0.6-1.8,0.3-1-0.8c0.4-0.7,0.3-1.3-0.5-2.9l-1-2.1
		l1-0.8l0.5-0.4c0-0.3-0.1-0.5-0.1-0.8l-0.4-0.3c-0.9-0.7-1-1-0.7-3.7c0.1-0.6,0.1-1.1,0.1-1.6c-9.8,0-16.5,2-32.9,9.4
		c-6.6,3-13,5.7-14,6l-1.9,0.4l2-3.8c5-9.6,8.4-22.9,6.5-26c-0.4-0.8-0.7,0.4-0.7,4c0,7.9-5.1,20.4-13.4,33.4
		c-5.2,7.8-3.9,12,4.1,13c2,0.2,3.6,0.6,3.6,0.8c0,1-4.2,5.9-5.7,6.8c-1.8,0.8-3.6,1.4-5.4,2c-3.7,1.4-3.8,1.4-3.6,4
		c0.1,1.8,0.3,3.5,0.6,5.3c0.3,2.3,0.1,3.2-1.5,5.5c-1.8,2.8-1.8,2.8-5,2.4c-1.7-0.3-3.7-0.9-4.4-1.5c-1-1-1.3-0.9-3,0.3
		c-2.5,1.9-6.3,1.9-8.3,0l-1.6-1.4l-1.9,1.5c-2.4,1.7-6.1,1.8-7.4,0l-1-1.4l-2.3,1.4l-0.1,0c-2.6,1.5-4,1.7-4,0.4
		c0.5-3.2,2-6.3,4.3-8.6c1.9-1.6,2.6-1.6,8.6-1.6c5.5,0.1,6.8-0.1,8.8-1.3c6.4-3.7,7-9.4,2.6-22.6c-5-14.6-6-20.8-4-28.7
		c0.6-2.1,0.7-3.5,0.3-3.1c-2.4,2.3-2.5,16-0.1,23.3c0.6,1.6-8.3-2.8-13.9-7c-11.6-8.9-17.5-21.1-15.6-32.9
		c2.1-13.1,10.1-24.6,21.7-31c6.2-3.8,8.4-6.3,7.4-8.8c-0.9-2.3-2.5-2.8-4.7-1.3c-1.1,0.8-2,2-2.1,2.8c-0.4,2.2-2.2,0.8-4-3
		c-1.9-4-2.9-4.4-3.2-1.4c-0.3,2.9-1.6,3-3.3,0.3c-1.4-2.3-1.6-2.3-3.4-1.5c-1,0.5-2.8,1.1-4,1.4l-2.2,0.4l1.4-2.4
		c0.7-1.4,1.2-2.6,1-2.7c-0.7,0-1.5,0.1-2.2,0.3c-1.8,0.5-3.6,0.8-5.5,1l-3.6,0.3l1-3l1.7-5.6c1-3.1,1.8-3.4,5-2.1
		c3.4,1.3,12.1,3,15.6,3c3,0,3.3,0.3,1.8,2.3c-1.5,1.8-1.3,2.1,1,1.8c1.2-0.2,4,0.1,6.2,0.5c3,0.6,4.4,0.6,5,0.1
		c1.3-1.2-1.3-6.5-5.4-11.2c-2.1-2.5-4.4-5.6-5.1-7l-1.3-2.5l-0.7,1.8c-0.4,1-0.7,2.3-0.7,2.9c0,0.8-0.3,0.8-2-0.2
		c-1-0.6-2.3-1.7-2.8-2.3c-1.4-1.9-1.9-1.5-1.6,1.1l0.3,2.4l-2.2-1.2c-1.2-0.6-2.2-1.5-3-2.5c-0.4-0.7-2.8-3.4-5.4-6
		c-2.1-1.9-3.9-4.1-5.2-6.6c-0.3-1.3-0.6-2.5-1-3.8c-1.9-5.8,0.3-10.2,5.2-10.2c3.7,0,6.2,2.6,5.7,6c-0.3,2.2-0.3,2.6,0.7,2.2
		c0.7-0.2,3-0.6,5-0.8c2.1-0.2,4.7-0.7,5.7-1.2s3.4-0.9,5.4-0.9c4.2,0,6.9-1.2,9-4c1.3-1.7,1.4-2.4,0.8-3.9l-0.7-1.8l4-0.4
		c4-0.5,6.3-0.3,8.3,0.9c-0.1-0.3-0.3-0.7-0.6-1c-0.6-0.5-0.9-1.5-0.9-2.6c0-1.6,0.1-1.8,1.2-1.8c1,0,1.2,0.3,1.5,1.8
		c0.3,1.7,0.4,1.8,1.4,1.4c1.7-0.8,1.5-2.9-0.5-5.9c-0.9-1.3-2-2.4-2.3-2.4c-1.3,0-0.7-0.8,0.7-1.1c1.2-0.3,1.4-0.5,1.4-1.8
		c0-1.2-0.4-1.8-1.6-2.9c-0.9-0.7-2.3-2.6-3.1-4.1c-1.1-2.2-1.5-2.7-2-2.3c-0.8,0.7-1.2-0.7-1.2-3.7c0-2.2,0-2.2-3.5-4.8
		c-2.9-2.2-3.8-3.2-5.5-6.3c-1.6-3-2.3-3.9-4.1-4.8c-1.9-1-2.2-1.4-3.1-4.2c-0.8-2.7-1.4-3.5-3.8-5.8c-1.6-1.5-3-2.6-3.2-2.6
		c-0.1,0-0.3,0.5-0.3,1.1c0,1.4-1.7,2.9-3.6,3.4c-2.8,0.6-4.7-1.9-2.4-3.1c0.7-0.4,0.8-0.7,0.5-0.8c-0.3-0.1-0.6-0.7-0.6-1.5
		c0-1-0.6-1.7-3-3.5c-1.7-1.2-3-2.4-3-2.7c0-0.2,0.9-0.5,2-0.5c1.7,0,2.2,0.3,3.8,1.9c1.9,2,3.3,2.4,3.8,1.1
		c0.2-0.5-0.5-1.5-1.9-2.9c-1.5-1.5-2.7-3.5-3.8-5.9c-1.6-3.6-1.7-3.7-3.1-3.6c-1.3,0.1-1.4,0-1.4-1.3c0-1.4-0.1-1.5-1.8-1.5
		c-2.1,0-3.3-0.9-2.2-1.8c0.5-0.4,1.2-0.3,2.9,0.1c1.2,0.4,2.3,0.6,2.4,0.5c0.1,0-1.5-3.4-3.4-7.5c-2.6-5.4-3.8-7.3-4.4-7.3
		c-0.5,0-1.2-0.1-1.6-0.3c-0.7-0.2-0.7-0.1-0.5,0.8c0.3,1.1,0.3,1.1-1.5-0.3c-1-0.8-2.5-1.7-3.3-2c-1.2-0.5-2.5-2.3-2.5-3.6
		c0-0.6,1.9,0,3.5,1.2c1.5,1.1,2,1.3,2.7,0.9c0.8-0.4,0-1.4-7.1-8.8c-6.5-6.8-9.2-9.2-14.2-12.8c-3.4-2.4-11.7-8.7-18.5-13.9
		l-4.7-3.6H294C296.1,28.5,297.4,29.8,297.4,29.8z M345.5,193.2c0.5-0.6,2.4-0.1,7.5,2.2c9,4,17.6,6.4,23,6.4c1.7,0,2.2,0.4,3.4,3
		c0.8,1.6,1.3,3.3,1,3.6c-0.4,0.6-0.4,0.6-3.4-0.1l-5-0.6h-3l1-1.6c1.6-2.3,1.5-2.3-1.2-2.3c-6.2-0.3-12.4-1.6-18.3-3.7
		C346.5,198.2,343.9,194.7,345.5,193.2z M329.4,301.2c-0.6,1.7-4.2,3.9-6.4,3.9c-2.2,0-1.9,1.5,0.6,3.5l2,1.7l-3.1,0.4
		c-2.6,0.4-3.2,0.8-3.2,1.8c0,1.1-0.4,2.1-1,3v-0.1c-0.6,0.8-1.4,1.5-1.8,1.5c-0.6,0-2.6-3.9-2.6-5.2c0-0.3-1.4-0.7-3-1l-3-0.4
		l2-1.5c2.4-1.8,2.5-3.7,0.2-3.7c-0.9,0-2.7-0.8-3.9-1.8c-1.8-1.6-2.1-2.2-1.8-3.6c0.6-2.2,2.7-2.3,4.3-0.3l1.1,1.5l1.7-1.8
		c2.1-2.4,2.3-7.1,0.3-9.9l-1.3-1.9l1.7-2c2.3-2.6,2.2-4.4-0.2-4.3c-3.3,0.2-5-0.6-5-2.4c0-1.9,1.7-2.7,3.5-1.7
		c2.2,1.3,3.4,0.9,3.4-1.1c0-1.9,0-1.9,2.7-1.2c1.5,0.4,2.8,1.2,3,1.8c0.2,0.8,0.8,1,2.4,0.8c3.8-0.6,6.3,1.8,4,3.7
		c-0.8,0.6-1.5,0.6-3.5,0c-1.3-0.5-2.6-0.7-2.8-0.5c-0.8,0.8,0.4,3.8,2,5.4c1.5,1.5,1.5,1.5,0.4,2.9c-2.6,3-2.5,8.1,0,10.6
		c1.8,1.6,2.5,1.6,3,0c0.4-1.6,2.7-1.8,3.9-0.4C329.4,299.4,329.7,300.4,329.4,301.2z M315.4,257.8c7.3,2.6,8.2,3.1,8,4.4h-0.1
		c-0.2,1.6-2,2-5,1c-1.1-0.4-3.4-0.9-5.1-1.1c-2.3-0.4-3.3-0.9-3.9-2C307.5,256.8,309.9,255.8,315.4,257.8z M315.8,252.9
		c5.2,1.1,7.8,2.5,7.6,4.1c-0.3,1.9-2,1.9-7.9,0.1c-3.5-1.1-4.8-1.8-5-2.8C310.2,252.5,311.9,252,315.8,252.9z M318.1,268.5
		c-0.9-0.4-2.7-0.8-4.1-0.9c-3.3-0.4-4.7-2.6-2.6-4.3c1.1-0.9,5.7,0,9.7,1.7c1.8,0.9,2.4,1.5,2.3,2.5v0
		C323.1,269,320.7,269.5,318.1,268.5z M323.2,272.8c0,1.8-4.6,2-8.4,0.3c-2.5-1-3-1.6-3-3c0-1.7,0-1.8,3.5-1.3
		C319.6,269.2,323.2,271.1,323.2,272.8z M327.2,272.6c-2.4,2.1-3,2.2-3,0.6c0-1.2,3.2-4,4.4-4C329.7,269.2,328.9,271,327.2,272.6
		L327.2,272.6z M340,261.1c8.2,8,11.1,11.2,11.7,13.2c1.2,3.6,5.7,9.9,9.7,13.5c2,1.8,3.6,3.6,3.6,4c0,1.1-5.8,6.1-8.5,7.1l0-0.1
		c-1.4,0.7-2.8,1-3.1,1l-2.2-0.4c-0.9-0.1-4.2-2.8-7.3-5.8c-3.1-3-6-5.5-6.5-5.5c-1.5,0-3.5,1.4-3.5,2.4s-0.2,1-1.2,0
		c-1-0.9-1.2-2.3-1.2-7.7c0-6.4,0-6.6-2-8c-1.4-1-1.7-1.7-1.2-2c1.3-0.8,2-3.2,1.3-4.5c-0.4-0.7-0.4-1.5,0-2.2
		c0.7-1.2,0.3-3.6-0.6-3.2c-0.3,0.2-0.3,1-0.1,1.7c0.3,1.4-2.8,5.2-4.4,5.2c-1.6,0-0.1-3.3,1.9-4.3c1.1-0.6,1.8-1.3,1.6-1.6
		c-0.2-0.4,0.2-1.4,1-2.2c1.2-1.6,1.3-4.7,0-4c-0.2,0.2-0.4,0.9-0.2,1.6c0.4,1.3-2.8,5.3-4.3,5.3c-1.6,0-0.1-3.3,1.9-4.3
		c1.1-0.6,1.8-1.3,1.5-1.6c-0.1-0.3,0.3-1.4,1-2.3c0.8-0.9,1.2-2.2,1-2.9c-0.3-1.3-0.4-1.3-3.1,0.3l-3,1.6l-2-1.6
		c-2-1.6-2-1.6-0.5-1.6c0.8,0,2.9-0.4,4.7-0.8l3.1-0.8L340,261.1z M327.1,257.3c-2.5,2.5-3.6,2.6-3,0.3c0.6-2,4.9-4.8,4.9-3.3
		c0,0.6-0.9,1.9-2,3H327.1z M328.4,249.6c-7.2,2.3-14.9,2.2-22-0.4c-6.4-3-6.6-10.4-0.3-12c2.7-0.8,4.7-0.2,5.3,1.8
		c0.5,1.3-0.1,3.3-1.1,3.3c-1.1,0-0.6,2,0.9,2.7c4.2,2.1,14.4,1,14.4-1.7c0-0.5-0.3-1-0.7-1c-1,0-1.5-2.4-0.7-3.8
		c1-1.7,2.6-2.2,5.2-1.4C335.7,239.1,335.2,246.6,328.4,249.6z M330.4,140.8c3.8-2.6,4-2.6,2.5,0c-3.6,6.8-6.4,34.7-7.1,71.8
		c-0.4,21.5-0.5,23.7-1.7,25.1c-1.5,1.9-1.6,3.6-0.2,4.7c0.6,0.4,0.8,1,0.4,1.4h0c-1.4,1.5-11.4,1.8-12.8,0.5
		c-0.2-0.2,0-1.4,0.5-2.5c0.6-1.8,0.6-2.4-0.4-4.2c-1.1-1.7-1.2-4.2-1.2-23c0-33.2,2.1-48.7,8.3-60.2
		C321.4,149,325.4,144.3,330.4,140.8z"/>
	<path fill="#8D2029" d="M420.9,216.6c0,1.7,5.2,4.8,9.3,6c-0.2-0.2-0.4-0.5-0.5-1c-2.4-0.6-4.7-1.8-6.6-3.5
		C421.9,216.9,420.9,216.2,420.9,216.6z"/>
	<path fill="#8D2029" d="M413.7,202.2c0.3,1.3,0.1,2.6-0.5,3.8l-1,1.7l-2.2-2.3c-1.3-1.3-2.6-2.3-3-2.3c-0.4,0,0.1,0.8,1.3,1.8
		c1.1,1,2.1,2.2,3,3.4l1,1.5l1.4-2.7c0.6-1,1.1-1.9,1.4-2.4c0.1-0.8,0.1-1.4,0.3-1.6c-0.5-0.5-1-1-1.4-1.6
		C413.4,200.3,413.3,200.4,413.7,202.2z"/>
	<path fill="#8D2029" d="M260.3,27.1c0.4,0,0.5-0.1,0.3-0.4h-1.8C259.5,27,260,27.1,260.3,27.1z"/>
	<path fill="#8D2029" d="M437.3,226c0-0.3-0.1-0.5-0.3-0.9c-0.4-0.7-0.7-0.9-1.5-0.8C435.8,224.7,436.4,225.3,437.3,226z"/>
	<path fill="#8D2029" d="M231,98.1c1.3,0.1,2.4,0.2,2.4,0c0-0.1-1.6-1.5-3.6-2.9c-0.1-0.1-0.3-0.2-0.5-0.4v3L231,98.1z"/>
	<path fill="#8D2029" d="M431.2,222.8c0.2,0,0.3,0.1,0.5,0.1C431.6,222.9,431.4,222.8,431.2,222.8z"/>
	<path fill="#8D2029" d="M431.6,229.2l-0.1,3.7c0,2-0.2,3.8-0.4,4c-3.3-0.3-6.6-1.2-9.5-2.8c-1.4-0.9-1.7-1-2-0.2
		c-0.1,0.5-1.6,2-3.1,3.4c-2.5,2.3-2.9,2.3-3.3,1.3c-0.9-2.1-1.7-4.2-2.6-6.3c-1.2-2.8-2-5.4-1.8-5.6c0.2-0.4,0.1-0.8-0.3-1
		c-1-0.6-2.5,2-3.5,6c-0.5,1.9-1.1,3.6-1.5,3.8c-0.6,0.4-4-4.2-4-5.4c0-1.8-1.2-0.7-2,1.7c-0.4,1.3-1.4,3.3-2.3,4.3l-1.5,1.8l-1-2.8
		c-0.4-1.6-1-3.3-1-3.7c-0.4-1.5-1.2-1.7-1.2-0.3c0,2.9-2.1,6.5-4.3,7.5l-2.2,1l-0.9-3c-0.5-1.7-0.9-3.7-0.9-4.5v-1.4l-3.2,1.6
		c-1.8,0.8-3.4,1.4-3.5,1.3c-0.1-0.1,0.3-1.1,0.9-2.1c0.5-1.1,1-2.4,1-2.9c0.1-0.9,0.5-1.8,1.1-2.6c0.9-1.2,0.9-1.4,0.2-1.2
		c-0.5,0.2-1.5,1.9-2.2,3.9c-0.6,1.9-1.8,4-2.6,4.6c-2.1,1.6-0.7,1.9,3.3,0.6c2.6-0.8,3.8-1,4-0.5l1,3.2c0.4,1.4,0.6,3,0.4,3.8
		c-0.5,1.5,0.5,1.7,1.7,0.4c0.5-0.6,1.3-1,1.7-1c1.2,0,4.5-3.8,4.5-5c0-0.5,0.3-1,0.7-1s0.7,1.4,0.7,2.9c0,1.7,0.3,3,0.6,3
		c1,0,4.9-4.7,5.4-6.3c0.2-0.9,0.5-1.5,0.7-1.5c0.6,0,2.2,2.2,3.2,4.2l1,1.9l1.5-2.2c0.8-1.4,1.4-3,1.8-4.6c0.3-1.2,0.7-2.7,1-3.2
		c0.5-0.9,0.7-0.8,1,0.3c0.3,0.7,1.2,3.1,2.2,5.2c1.1,2.4,1.8,4.9,2.2,7.5c0.8,0,6.4-4.2,7-5.2c0.7-1.3,0.9-1.3,2.8-0.3
		c1.6,0.7,3.3,1.2,5,1.6c1.7,0.3,3.6,0.8,4.3,1.1c1,0.4,1.2,0.2,0.8-0.8c-0.3-1.3-0.3-2.7,0-4l0.4-2.8h3c-0.2-0.2-0.3-0.4-0.3-0.5
		c0-0.1,0-0.2,0-0.3c-0.8,0-1.4-0.1-1.8-0.2L431.6,229.2z"/>
	<path fill="#8D2029" d="M265.9,28.4c2.6,1.8,3.4,2,3.8,0.6c0.2-0.6,0-1.2-1-2.3h-5.2C264.4,27.3,265.2,27.9,265.9,28.4z"/>
	<path fill="#8D2029" d="M419.2,206.3l-2.2-1.8c-0.1-0.1-0.3-0.2-0.4-0.4c0.2,0.5,0.5,1.1,0.9,1.8c0,0,0,0,0.1,0.1
		c0.8,0.9,1.8,1.7,2,1.7c0.3,0,0.8-1,1.3-2.3l0.3-0.8c0-0.5-0.1-1-0.2-1.5c-0.1,0.2-0.2,0.3-0.3,0.5L419.2,206.3z"/>
	<path fill="#8D2029" d="M416.3,190.2c-0.2,0.2,0.5,0.8,1.5,1.6c-0.1-0.3-0.1-0.5-0.2-0.8l-0.1-0.3
		C416.9,190.3,416.4,190.1,416.3,190.2z"/>
	<polygon fill="#8D2029" points="229.8,104 231,102.8 232.2,101.6 230.3,99.7 229.3,98.6 229.3,103.4 	"/>
	<path fill="#FFB700" d="M262.3,428.6c0.6-3.6,2-8.4,2.9-12c0.7-3,0.8-8,0.8-8s-3.6,7.3-7.6,10.4c-3.3,2.4-8.5,3.4-13.3,4.7
		c0.6,1.6,1.4,3.2,2.3,4.7c1.4,2.3,1.5,2.7,1.3,5.6s-0.2,3.2,0.9,4.2c0.7,0.6,1.5,2.4,2.1,4.4c0.6,1.8,1.7,4.3,2.5,5.4
		c0.2,0.3,0.4,0.6,0.6,1C262,445.7,261.7,436.5,262.3,428.6z"/>
	<path fill="#FFB700" d="M252.4,30.2c1,0.9,4,3,7,4.7C257.9,32.7,255.8,31,252.4,30.2z"/>
	<polygon fill="#FFB700" points="266.1,71.4 266.1,71.4 266.1,71.4 	"/>
	<path fill="#FFB700" d="M266.1,71.4c0,0-0.1-5-0.8-8c-0.9-3.6-2.3-8.4-2.9-12c-0.1-1.1-0.1-2.2-0.2-3.3l-0.8,1.8l-4.6,1.5l-4.7,1.5
		v4.3v0.9c2.4,0.7,4.7,1.6,6.4,2.9C262.5,64.1,266.1,71.4,266.1,71.4z"/>
	<path fill="#FFB700" d="M412.8,178.6c0.4,0.8,0.8,1.1,1.3,1.1c0.5,0,0.9-0.2,0.9-0.5c0-0.1-0.1-0.3-0.2-0.8c-0.4,0-0.9,0.1-1.4,0.1
		C413.3,178.6,413,178.6,412.8,178.6z"/>
	<path fill="#FFB700" d="M385.7,159l-4,0.4l0.7,1.8c0.6,1.5,0.5,2.2-0.8,3.9c-2.1,2.8-4.8,4-9,4c-2,0-4.4,0.4-5.4,0.9
		s-3.6,1-5.7,1.2c-2,0.2-4.3,0.6-5,0.8c-1,0.4-1,0-0.7-2.2c0.5-3.4-2-6-5.7-6c-4.9,0-7.1,4.4-5.2,10.2c0.4,1.3,0.7,2.5,1,3.8
		c1.3,2.5,3.1,4.7,5.2,6.6c2.6,2.6,5,5.3,5.4,6c0.8,1,1.8,1.9,3,2.5l2.2,1.2l-0.3-2.4c-0.3-2.6,0.2-3,1.6-1.1
		c0.5,0.6,1.8,1.7,2.8,2.3c1.7,1,2,1,2,0.2c0-0.6,0.3-1.9,0.7-2.9l0.7-1.8l1.3,2.5c0.7,1.4,3,4.5,5.1,7c4.1,4.7,6.7,10,5.4,11.2
		c-0.6,0.5-2,0.5-5-0.1c-2.2-0.4-5-0.7-6.2-0.5c-2.3,0.3-2.5,0-1-1.8c1.5-2,1.2-2.3-1.8-2.3c-3.5,0-12.2-1.7-15.6-3
		c-3.2-1.3-4-1-5,2.1l-1.7,5.6l-1,3l3.6-0.3c1.9-0.2,3.7-0.5,5.5-1c0.7-0.2,1.5-0.3,2.2-0.3c0.2,0.1-0.3,1.3-1,2.7l-1.4,2.4l2.2-0.4
		c1.2-0.3,3-0.9,4-1.4c1.8-0.8,2-0.8,3.4,1.5c1.7,2.7,3,2.6,3.3-0.3c0.3-3,1.3-2.6,3.2,1.4c1.8,3.8,3.6,5.2,4,3c0.1-0.8,1-2,2.1-2.8
		c2.2-1.5,3.8-1,4.7,1.3c1,2.5-1.2,5-7.4,8.8c-11.6,6.4-19.6,17.9-21.7,31c-1.9,11.8,4,24,15.6,32.9c5.6,4.2,14.5,8.6,13.9,7
		c-2.4-7.3-2.3-21,0.1-23.3c0.4-0.4,0.3,1-0.3,3.1c-2,7.9-1,14.1,4,28.7c4.4,13.2,3.8,18.9-2.6,22.6c-2,1.2-3.3,1.4-8.8,1.3
		c-6,0-6.7,0-8.6,1.6c-2.3,2.3-3.8,5.4-4.3,8.6c0,1.3,1.4,1.1,4-0.4l0.1,0l2.3-1.4l1,1.4c1.3,1.8,5,1.7,7.4,0l1.9-1.5l1.6,1.4
		c2,1.9,5.8,1.9,8.3,0c1.7-1.2,2-1.3,3-0.3c0.7,0.6,2.7,1.2,4.4,1.5c3.2,0.4,3.2,0.4,5-2.4c1.6-2.3,1.8-3.2,1.5-5.5
		c-0.3-1.8-0.5-3.5-0.6-5.3c-0.2-2.6-0.1-2.6,3.6-4c1.8-0.6,3.6-1.2,5.4-2c1.5-0.9,5.7-5.8,5.7-6.8c0-0.2-1.6-0.6-3.6-0.8
		c-8-1-9.3-5.2-4.1-13c8.3-13,13.4-25.5,13.4-33.4c0-3.6,0.3-4.8,0.7-4c1.9,3.1-1.5,16.4-6.5,26l-2,3.8l1.9-0.4c1-0.3,7.4-3,14-6
		c16.4-7.4,23.1-9.4,32.9-9.4c0-3-1.1-5.5-3-7.2c-1.7-1.5-2.9-1.8-2.9-0.7c0,0.4-0.2,0.7-0.4,0.7c-0.6,0-1-1.2-1-2.8
		c0-0.9-0.7-2-2.5-3.8c-1.5-1.5-2.6-3-2.7-3.7c-0.1-0.9-0.5-1.3-1.7-1.6c-1-0.2-1.7-0.2-2.1,0.1c-0.7,0.7-1.3,0.7-2.9,0l-1.3-0.5
		l1.1-1.2c1-1.1,1.4-1.2,3.8-0.9c3.3,0.3,3.4,0.4,4.6,2.7l0.9,1.9l1.5-0.8c1.1-0.7,1.5-1.3,1.6-2.3c0.1-1.3-0.3-1.8-3.2-4.4
		c-1.8-1.6-3.9-3.8-4.7-4.9c-1-1.5-1.8-2.1-2.9-2.3c-1.3-0.2-1.7-0.7-3-3.3c-1.7-3.5-2.1-7-0.7-8c0.7-0.5,0.5-0.7-1.4-2.3
		c-0.8-0.7-1.6-1.4-2-1.9h-3l-0.4,2.8c-0.3,1.3-0.3,2.7,0,4c0.4,1,0.2,1.2-0.8,0.8c-0.7-0.3-2.6-0.8-4.3-1.1c-1.7-0.4-3.4-0.9-5-1.6
		c-1.9-1-2.1-1-2.8,0.3c-0.6,1-6.2,5.2-7,5.2c-0.4-2.6-1.1-5.1-2.2-7.5c-1-2.1-1.9-4.5-2.2-5.2c-0.3-1.1-0.5-1.2-1-0.3
		c-0.3,0.5-0.7,2-1,3.2c-0.4,1.6-1,3.2-1.8,4.6l-1.5,2.2l-1-1.9c-1-2-2.6-4.2-3.2-4.2c-0.2,0-0.5,0.6-0.7,1.5
		c-0.5,1.6-4.4,6.3-5.4,6.3c-0.3,0-0.6-1.3-0.6-3c0-1.5-0.3-2.9-0.7-2.9s-0.7,0.5-0.7,1c0,1.2-3.3,5-4.5,5c-0.4,0-1.2,0.4-1.7,1
		c-1.2,1.3-2.2,1.1-1.7-0.4c0.2-0.8,0-2.4-0.4-3.8l-1-3.2c-0.2-0.5-1.4-0.3-4,0.5c-4,1.3-5.4,1-3.3-0.6c0.8-0.6,2-2.7,2.6-4.6
		c0.7-2,1.7-3.7,2.2-3.9c0.7-0.2,0.7,0-0.2,1.2c-0.6,0.8-1,1.7-1.1,2.6c0,0.5-0.5,1.8-1,2.9c-0.6,1-1,2-0.9,2.1
		c0.1,0.1,1.7-0.5,3.5-1.3l3.2-1.6v1.4c0,0.8,0.4,2.8,0.9,4.5l0.9,3l2.2-1c2.2-1,4.3-4.6,4.3-7.5c0-1.4,0.8-1.2,1.2,0.3
		c0,0.4,0.6,2.1,1,3.7l1,2.8l1.5-1.8c0.9-1,1.9-3,2.3-4.3c0.8-2.4,2-3.5,2-1.7c0,1.2,3.4,5.8,4,5.4c0.4-0.2,1-1.9,1.5-3.8
		c1-4,2.5-6.6,3.5-6c0.4,0.2,0.5,0.6,0.3,1c-0.2,0.2,0.6,2.8,1.8,5.6c0.9,2.1,1.7,4.2,2.6,6.3c0.4,1,0.8,1,3.3-1.3
		c1.5-1.4,3-2.9,3.1-3.4c0.3-0.8,0.6-0.7,2,0.2c2.9,1.6,6.2,2.5,9.5,2.8c0.2-0.2,0.4-2,0.4-4l0.1-3.7l2,0.4c0.4,0.1,1.1,0.2,1.8,0.2
		c0.1-0.5,0.4-1.2,1-2c0.6-0.9,0.9-1.4,0.9-1.8c-0.8-0.7-1.5-1.3-1.8-1.7c-0.2,0-0.4,0-0.6,0.1c-1.3,0.3-1.7,0.1-2.1-0.7
		c-0.2-0.4-0.6-0.7-1.1-0.8c-0.2,0-0.3-0.1-0.5-0.1c0,0-0.1,0-0.1,0c-0.4,0-0.7-0.1-0.9-0.2c-4.1-1.2-9.3-4.3-9.3-6
		c0-0.4,1,0.3,2.2,1.4c1.9,1.7,4.2,2.9,6.6,3.5c0,0,0-0.1,0-0.1c-0.1-0.8-1-2.1-2.1-3c-1.7-1.5-1.8-1.7-1.8-4.1
		c0-2.3-0.1-2.6-1.2-3.1c-1.1-0.5-1.4-0.4-2.5,0.7c-1.8,1.7-2.6,1.5-4-1.1c-0.6-1.3-1.6-2.4-2.1-2.6c-0.7-0.2-0.9-0.7-0.9-2
		c0-0.5,0-0.9,0.1-1.3c-0.4,0.5-0.9,1.3-1.4,2.4l-1.4,2.7l-1-1.5c-0.9-1.2-1.9-2.4-3-3.4c-1.2-1-1.7-1.8-1.3-1.8c0.4,0,1.7,1,3,2.3
		l2.2,2.3l1-1.7c0.6-1.2,0.8-2.5,0.5-3.8c-0.4-1.8-0.3-1.9,0.3-0.7c0.4,0.6,0.9,1.1,1.4,1.6c0.2-0.5,0.6-0.1,1.2,1.1
		c0.1,0.1,0.3,0.3,0.4,0.4l2.2,1.8l1.5-2.7c0.1-0.2,0.2-0.3,0.3-0.5c-0.1-1-0.3-1.7-0.5-2.1c-0.3-0.5-1.5-4.6-2.7-9.3
		c-1-0.8-1.6-1.4-1.5-1.6c0.1-0.1,0.6,0.1,1.2,0.4l-2.3-8.8l-1.7-0.1c-1.9-0.2-2.9-1.2-3-3c-1.6,0-3.1-0.2-4.6-0.6
		c-3.4-1-3.6-0.9-2.9,0.2c0.4,0.7,1,1.2,1.3,1.2c0.4,0,0.7,0.4,0.7,0.8c0,1.3-7.4,0.1-11-1.6c-8-4.1-9-4.5-11-3.9
		c-1.1,0.4-1.9,1.2-2.4,2.3c-1.3,3.3,3.4,5.9,5.3,3c0.6-0.9,0.5-1.4-0.5-2.5c-1.4-1.4-1.2-1.6,0.6-1c1.3,0.5,1.4,3.6,0.2,4.8
		c-1.3,1.3-4.5,1-5.7-0.7c-1.4-2-1.3-3.2,0.5-5.4c1.2-1.5,1.8-1.7,4-1.4c1.5,0.1,4.6,1.4,6.9,2.8c3.3,2,7.1,3,11,3l-1.7-2.8
		c-2.2-3.3-2.2-3.7,0.4-1.7c2.1,1.7,4.5,2.4,9,2.5c0-0.1,0-0.2,0-0.3c0.2-1,0.4-1.9,0.6-1.9c0.1,0,0.7,0.9,1.1,2.1c0,0,0,0.1,0,0.1
		c0.6,0,1.2,0,1.9,0l0.4,0c-0.3-1.2-0.7-2.9-1.2-4.9c-0.5,0-0.9-0.1-1.1-0.2h0.1c-0.6-0.6-0.5-0.9,0.7-1.1c-1.5-5.4-2.1-7.2-3-7.9
		c-0.6-0.5-1.5-1.6-1.8-2.5c-0.8-1.5-1.4-1.9-2-1c-0.1,0.3-0.9,0.8-1.8,1.1c-1.3,0.6-1.4,0.8-1.3,2.3c0.1,1.4-0.1,2-1.2,3.1
		c-1.5,1.6-2,1.6-6,0.6c-2.9-0.7-3-0.8-3.3-2.3c-0.2-1.3-0.6-1.7-2.5-2.5l-2.2-0.9l-1.5,1.1c-1.3,1-1.6,1-2.2,0.5s-0.5-0.8,0.1-1.9
		c1.4-2.1,2.2-2.2,4.9-0.9c1.4,0.6,2.9,1.1,3.6,1.1c1,0,1.5-0.8,1.3-1.6C392,158.7,389.7,158.5,385.7,159z M388.6,191.7l0.3,1.7
		c0.2,1,1.4,2.6,2.8,3.8l2.6,2l1.5-1.8c0.9-1,1.6-2.2,1.6-2.6c0-1.2,0.2-1.1,3.2,1.5c2.6,2.3,2.7,2.3,3,0.8c0.3-0.8,0.2-2.4,0-3.5
		c-1-3-0.8-3.4,0.5-1.6l2.4,2.8c1,1.1,1.1,1.1,1.5-0.3c0.3-0.9,0.5-2.4,0.5-3.4v-1.9l2.3,2.7c2.3,2.6,2.5,2.7,3.1,1.4
		c0.5-0.7,0.8-2.4,0.8-3.7c0-1.8,0.2-2.2,0.6-1.6c0.8,1.2,0.3,4.2-1.1,6.8l-1,2l-1.3-2.1c-1.7-2.6-2.3-2.6-3.3,0.2
		c-1,2.7-1.7,2.9-2.7,0.8c-0.6-1.3-0.8-1.1-1.2,1.7l-0.5,3l-3-2.3l-3-2.3l-1.5,1.5c-0.7,0.9-1.3,2-1.3,2.4c0,1-0.8,1-1.9,0
		c-4.4-3.6-5-4.4-5-6.2L388.6,191.7z M383.6,217.5l1.6,4.1l1.6-2.5c0.7-1,1.3-2.2,1.6-3.4c0-0.5,0.3-0.7,0.7-0.5s0.9,1.9,1.1,3.7
		l0.5,3.4l1.8-2c0.9-1,1.8-2.1,2.6-3.2c0.7-1.2,0.8-1.2,2.3,0c0.8,0.8,2.1,2.5,2.9,3.9c0.8,1.4,1.5,2.4,1.6,2.3l0.6-3.2l0.4-3
		c0.1-0.5,5.4,3,7.4,4.7c1.2,1.1,2.4,1.9,2.6,1.7s0.4-1.8,0.4-3.7c0-2.8-0.3-3.6-2-5.1c-2-1.8-2-1.8-2.8-0.5c-1,1.7-2.1,1.7-2.1,0
		c0-1.2-3.8-5.9-4.7-5.9c-0.3,0-1.1,1-1.8,2.3c-0.7,1.3-1.5,2.3-1.7,2.3c-1,0-6.3-6-6.3-7c0-0.8,0.4-0.6,1.3,0.8
		c0.9,1.3,1.9,2.5,3.1,3.6c2,1.8,2.8,1.4,3.6-2.1c0.3-1,0.7-1.8,1-1.8c0.8,0,5.4,4.9,6,6.5l0.7,1.6l0.5-1.8c0.6-2.2,1.3-2.2,2.3-0.2
		c0.4,0.8,2.4,2.6,4.4,3.8l3.7,2.4l0.7-2.4c0.4-1.3,1-2,1.2-1.6c0.4,0.5-0.6,4.5-1.3,5.3c0,0.1-1.3-0.6-2.6-1.5l-2.5-1.8v3.2
		c0,1.7-0.2,3.8-0.4,4.6c-0.5,1.6-1.7,2-1.7,0.6h0.1c0-1-2.9-3.5-5.7-5.2c-2.3-1.3-2.7-1.4-2.7-0.3c0,1.6-1.4,5.7-2,5.7
		c-0.3,0-0.8-0.8-1-1.7c-0.3-1-1.4-3-2.5-4.3l-2-2.5l-1.4,2.3c-1.4,2.2-3.9,4.3-5,4.3c-0.2,0-0.3-1.2,0-2.5c0.1-1.6,0-2.8-0.5-3
		c-0.4-0.3-0.8-0.2-0.8,0.2c0,0.8-3.4,4.6-4,4.6c-0.4,0-0.8-1-1-2.4l-0.8-4.8C382.4,214.3,382.9,215.1,383.6,217.5z"/>
	<path fill="#FFB700" d="M419.5,207.7c-0.2,0-1.2-0.8-2-1.7c0,0,0,0-0.1-0.1c0.1,0.3,0.2,0.6,0.4,0.9c1.1,2.6,2.2,4.8,2.3,4.8
		c0.1,0,0.5-0.2,0.8-0.5c0.4-0.4,0.4-3.7,0.2-6.5l-0.3,0.8C420.3,206.7,419.8,207.7,419.5,207.7z"/>
	<path fill="#FFB700" d="M459.2,334c-1.8,1.3-3,3.2-3.4,5.3c-0.3,1.5-0.2,1.8,0.9,1.8c0.7,0,2.4-0.7,3.8-1.6l0,0l2.5-1.6l1.7,1.6
		c2.2,2.1,4.9,2,7-0.1c1-1,1.8-1.6,1.9-1.5l0.9,1.6c0.2,0.4,0.6,0.7,1.1,1c-0.3-2.1-0.7-4.2-0.9-5.3c-0.3-1.2-0.4-2.4-0.4-4.5
		c-1.2,0.9-2.6,1.1-7,1.4C461.9,332.3,460.7,332.6,459.2,334z"/>
	<path fill="#FFB700" d="M325.1,299.3c-0.5,1.6-1.2,1.6-3,0c-2.5-2.5-2.6-7.6,0-10.6c1.1-1.4,1.1-1.4-0.4-2.9
		c-1.6-1.6-2.8-4.6-2-5.4c0.2-0.2,1.5,0,2.8,0.5c2,0.6,2.7,0.6,3.5,0c2.3-1.9-0.2-4.3-4-3.7c-1.6,0.2-2.2,0-2.4-0.8
		c-0.2-0.6-1.5-1.4-3-1.8c-2.7-0.7-2.7-0.7-2.7,1.2c0,2-1.2,2.4-3.4,1.1c-1.8-1-3.5-0.2-3.5,1.7c0,1.8,1.7,2.6,5,2.4
		c2.4-0.1,2.5,1.7,0.2,4.3l-1.7,2l1.3,1.9c2,2.8,1.8,7.5-0.3,9.9l-1.7,1.8l-1.1-1.5c-1.6-2-3.7-1.9-4.3,0.3c-0.3,1.4,0,2,1.8,3.6
		c1.2,1,3,1.8,3.9,1.8c2.3,0,2.2,1.9-0.2,3.7l-2,1.5l3,0.4c1.6,0.3,3,0.7,3,1c0,1.3,2,5.2,2.6,5.2c0.4,0,1.2-0.7,1.8-1.5v0.1
		c0.6-0.9,1-1.9,1-3c0-1,0.6-1.4,3.2-1.8l3.1-0.4l-2-1.7c-2.5-2-2.8-3.5-0.6-3.5c2.2,0,5.8-2.2,6.4-3.9c0.3-0.8,0-1.8-0.4-2.3
		C327.8,297.5,325.5,297.7,325.1,299.3z"/>
	<path fill="#FFB700" d="M462.3,283.7l-0.6-0.4c0,0.3,0.1,0.5,0.1,0.8L462.3,283.7z"/>
	<path fill="#FFB700" d="M472.8,302.2c-1.8-6.1-4-12.2-4.8-12.2c-0.4,0-1,1-1.6,2.8c-0.1,0.2-0.1,0.3-0.2,0.5c1,1.4,2.1,3,3.5,4.7
		C470.9,299.6,471.9,301,472.8,302.2z"/>
	<path fill="#FFB700" d="M326,251.4c-1.8,0.4-3.9,0.8-4.7,0.8c-1.5,0-1.5,0,0.5,1.6l2,1.6l3-1.6c2.7-1.6,2.8-1.6,3.1-0.3
		c0.2,0.7-0.2,2-1,2.9c-0.7,0.9-1.1,2-1,2.3c0.3,0.3-0.4,1-1.5,1.6c-2,1-3.5,4.3-1.9,4.3c1.5,0,4.7-4,4.3-5.3
		c-0.2-0.7,0-1.4,0.2-1.6c1.3-0.7,1.2,2.4,0,4c-0.8,0.8-1.2,1.8-1,2.2c0.2,0.3-0.5,1-1.6,1.6c-2,1-3.5,4.3-1.9,4.3
		c1.6,0,4.7-3.8,4.4-5.2c-0.2-0.7-0.2-1.5,0.1-1.7c0.9-0.4,1.3,2,0.6,3.2c-0.4,0.7-0.4,1.5,0,2.2c0.7,1.3,0,3.7-1.3,4.5
		c-0.5,0.3-0.2,1,1.2,2c2,1.4,2,1.6,2,8c0,5.4,0.2,6.8,1.2,7.7c1,1,1.2,1,1.2,0s2-2.4,3.5-2.4c0.5,0,3.4,2.5,6.5,5.5
		c3.1,3,6.4,5.7,7.3,5.8l2.2,0.4c0.3,0,1.7-0.3,3.1-1l0,0.1c2.7-1,8.5-6,8.5-7.1c0-0.4-1.6-2.2-3.6-4c-4-3.6-8.5-9.9-9.7-13.5
		c-0.6-2-3.5-5.2-11.7-13.2l-10.9-10.5L326,251.4z"/>
	<path fill="#FFB700" d="M315.3,268.8c-3.5-0.5-3.5-0.4-3.5,1.3c0,1.4,0.5,2,3,3c3.8,1.7,8.4,1.5,8.4-0.3
		C323.2,271.1,319.6,269.2,315.3,268.8z"/>
	<path fill="#FFB700" d="M321.1,265c-4-1.7-8.6-2.6-9.7-1.7c-2.1,1.7-0.7,3.9,2.6,4.3c1.4,0.1,3.2,0.5,4.1,0.9c2.6,1,5,0.5,5.3-1v0
		C323.5,266.5,322.9,265.9,321.1,265z"/>
	<path fill="#FFB700" d="M329.4,237.1c-2.6-0.8-4.2-0.3-5.2,1.4c-0.8,1.4-0.3,3.8,0.7,3.8c0.4,0,0.7,0.5,0.7,1
		c0,2.7-10.2,3.8-14.4,1.7c-1.5-0.7-2-2.7-0.9-2.7c1,0,1.6-2,1.1-3.3c-0.6-2-2.6-2.6-5.3-1.8c-6.3,1.6-6.1,9,0.3,12
		c7.1,2.6,14.8,2.7,22,0.4C335.2,246.6,335.7,239.1,329.4,237.1z"/>
	<path fill="#FFB700" d="M328.6,269.2c-1.2,0-4.4,2.8-4.4,4c0,1.6,0.6,1.5,3-0.6h-0.1C328.9,271,329.7,269.2,328.6,269.2z"/>
	<path fill="#FFB700" d="M315.5,257.1c5.9,1.8,7.6,1.8,7.9-0.1c0.2-1.6-2.4-3-7.6-4.1c-3.9-0.9-5.6-0.4-5.3,1.4
		C310.7,255.3,312,256,315.5,257.1z"/>
	<path fill="#FFB700" d="M324.1,257.6c-0.6,2.3,0.5,2.2,3-0.3H327c1.1-1.1,2-2.4,2-3C329,252.8,324.7,255.6,324.1,257.6z"/>
	<path fill="#FFB700" d="M309.3,260.1c0.6,1.1,1.6,1.6,3.9,2c1.7,0.2,4,0.7,5.1,1.1c3,1,4.8,0.6,5-1h0.1c0.2-1.3-0.7-1.8-8-4.4
		C309.9,255.8,307.5,256.8,309.3,260.1z"/>
	<path fill="#FFB700" d="M350.5,200.1c5.9,2.1,12.1,3.4,18.3,3.7c2.7,0,2.8,0,1.2,2.3l-1,1.6h3l5,0.6c3,0.7,3,0.7,3.4,0.1
		c0.3-0.3-0.2-2-1-3.6c-1.2-2.6-1.7-3-3.4-3c-5.4,0-14-2.4-23-6.4c-5.1-2.3-7-2.8-7.5-2.2C343.9,194.7,346.5,198.2,350.5,200.1z"/>
	<path fill="#FFB700" d="M311.6,237.6c1,1.8,1,2.4,0.4,4.2c-0.5,1.1-0.7,2.3-0.5,2.5c1.4,1.3,11.4,1,12.8-0.5h0
		c0.4-0.4,0.2-1-0.4-1.4c-1.4-1.1-1.3-2.8,0.2-4.7c1.2-1.4,1.3-3.6,1.7-25.1c0.7-37.1,3.5-65,7.1-71.8c1.5-2.6,1.3-2.6-2.5,0
		c-5,3.5-9,8.2-11.7,13.6c-6.2,11.5-8.3,27-8.3,60.2C310.4,233.4,310.5,235.9,311.6,237.6z"/>
	<path d="M401.2,176.9l1.7,2.8c-3.9,0-7.7-1-11-3c-2.3-1.4-5.4-2.7-6.9-2.8c-2.2-0.3-2.8-0.1-4,1.4c-1.8,2.2-1.9,3.4-0.5,5.4
		c1.2,1.7,4.4,2,5.7,0.7c1.2-1.2,1.1-4.3-0.2-4.8c-1.8-0.6-2-0.4-0.6,1c1,1.1,1.1,1.6,0.5,2.5c-1.9,2.9-6.6,0.3-5.3-3
		c0.5-1.1,1.3-1.9,2.4-2.3c2-0.6,3-0.2,11,3.9c3.6,1.7,11,2.9,11,1.6c0-0.4-0.3-0.8-0.7-0.8c-0.3,0-0.9-0.5-1.3-1.2
		c-0.7-1.1-0.5-1.2,2.9-0.2c1.5,0.4,3.1,0.5,4.6,0.6c0-0.3,0-0.6,0-1c-4.5-0.1-6.9-0.8-9-2.5C399,173.2,399,173.6,401.2,176.9z"/>
	<path d="M383.4,220.3c0.2,1.4,0.6,2.4,1,2.4c0.6,0,4-3.8,4-4.6c0-0.4,0.4-0.5,0.8-0.2c0.5,0.2,0.6,1.4,0.5,3
		c-0.3,1.3-0.2,2.5,0,2.5c1.1,0,3.6-2.1,5-4.3l1.4-2.3l2,2.5c1.1,1.3,2.2,3.3,2.5,4.3c0.2,0.9,0.7,1.7,1,1.7c0.6,0,2-4.1,2-5.7
		c0-1.1,0.4-1,2.7,0.3c2.8,1.7,5.7,4.2,5.7,5.2h-0.1c0,1.4,1.2,1,1.7-0.6c0.2-0.8,0.4-2.9,0.4-4.6v-3.2l2.5,1.8
		c1.3,0.9,2.6,1.6,2.6,1.5c0.7-0.8,1.7-4.8,1.3-5.3c-0.2-0.4-0.8,0.3-1.2,1.6l-0.7,2.4l-3.7-2.4c-2-1.2-4-3-4.4-3.8
		c-1-2-1.7-2-2.3,0.2l-0.5,1.8l-0.7-1.6c-0.6-1.6-5.2-6.5-6-6.5c-0.3,0-0.7,0.8-1,1.8c-0.8,3.5-1.6,3.9-3.6,2.1
		c-1.2-1.1-2.2-2.3-3.1-3.6c-0.9-1.4-1.3-1.6-1.3-0.8c0,1,5.3,7,6.3,7c0.2,0,1-1,1.7-2.3c0.7-1.3,1.5-2.3,1.8-2.3
		c0.9,0,4.7,4.7,4.7,5.9c0,1.7,1.1,1.7,2.1,0c0.8-1.3,0.8-1.3,2.8,0.5c1.7,1.5,2,2.3,2,5.1c0,1.9-0.2,3.5-0.4,3.7s-1.4-0.6-2.6-1.7
		c-2-1.7-7.3-5.2-7.4-4.7l-0.4,3l-0.6,3.2c-0.1,0.1-0.8-0.9-1.6-2.3c-0.8-1.4-2.1-3.1-2.9-3.9c-1.5-1.2-1.6-1.2-2.3,0
		c-0.8,1.1-1.7,2.2-2.6,3.2l-1.8,2l-0.5-3.4c-0.2-1.8-0.7-3.5-1.1-3.7s-0.7,0-0.7,0.5c-0.3,1.2-0.9,2.4-1.6,3.4l-1.6,2.5l-1.6-4.1
		c-0.7-2.4-1.2-3.2-1-2L383.4,220.3z"/>
	<path d="M412.4,177.7c0.2,0.4,0.3,0.7,0.4,0.9c0.2,0,0.5,0,0.7,0c0.5,0,0.9-0.1,1.4-0.1c-0.1-0.2-0.1-0.5-0.2-0.8l-0.4,0
		C413.6,177.7,413,177.7,412.4,177.7z"/>
	<path d="M393.5,199.7c1.1,1,1.9,1,1.9,0c0-0.4,0.6-1.5,1.3-2.4l1.5-1.5l3,2.3l3,2.3l0.5-3c0.4-2.8,0.6-3,1.2-1.7
		c1,2.1,1.7,1.9,2.7-0.8c1-2.8,1.6-2.8,3.3-0.2l1.3,2.1l1-2c1.4-2.6,1.9-5.6,1.1-6.8c-0.4-0.6-0.6-0.2-0.6,1.6c0,1.3-0.3,3-0.8,3.7
		c-0.6,1.3-0.8,1.2-3.1-1.4l-2.3-2.7v1.9c0,1-0.2,2.5-0.5,3.4c-0.4,1.4-0.5,1.4-1.5,0.3l-2.4-2.8c-1.3-1.8-1.5-1.4-0.5,1.6
		c0.2,1.1,0.3,2.7,0,3.5c-0.3,1.5-0.4,1.5-3-0.8c-3-2.6-3.2-2.7-3.2-1.5c0,0.4-0.7,1.6-1.6,2.6l-1.5,1.8l-2.6-2
		c-1.4-1.2-2.6-2.8-2.8-3.8l-0.3-1.7l-0.1,1.8C388.5,195.3,389.1,196.1,393.5,199.7z"/>
	<path d="M412.4,172.6h-0.1c0.2,0.1,0.6,0.2,1.1,0.2c-0.1-0.4-0.2-0.8-0.3-1.2c0-0.1,0-0.1,0-0.2C411.9,171.7,411.8,172,412.4,172.6
		z"/>
</g>
</svg>
