<?xml version="1.0" encoding="utf-8"?>
<!-- Generator: Adobe Illustrator 17.1.0, SVG Export Plug-In . SVG Version: 6.00 Build 0)  -->
<!DOCTYPE svg PUBLIC "-//W3C//DTD SVG 1.1//EN" "http://www.w3.org/Graphics/SVG/1.1/DTD/svg11.dtd">
<svg version="1.1" id="flag-icon-css-lr" xmlns="http://www.w3.org/2000/svg" xmlns:xlink="http://www.w3.org/1999/xlink" x="0px"
	 y="0px" viewBox="0 0 640 480" enable-background="new 0 0 640 480" xml:space="preserve">
<g>
	<path fill="#FFFFFF" d="M466.7,343.6c0.6-1.9,0.6-2.8,0.3-3.8c-0.5-1.5-0.3-1.9,0.8-1.9c1,0,0.9-0.8-0.4-3.1
		c-0.6-1-1.5-3.1-1.9-4.7c-0.4-1.5-1.3-4.4-1.9-6.4c-0.9-2.8-1.1-3.9-0.8-4.8c0.2-0.7,0.4-3.6,0.4-6.5c0-5.9-0.2-6.3-2.8-6.3
		c-1.1,0-1.3,0.2-1.9,2.3c-0.8,2.8-1.2,2.7-2.7-0.9c-0.3-0.8-0.7-1.5-0.9-1.9h-1c-0.4,0.3-0.9,0.6-1.4,1l-1.8,1.4l-1.1-2.3H203.7
		l0.1,0.5l0.5,3.5l2.9,3c1.6,1.7,3.5,3.6,4.2,4.3c0.7,0.7,2.6,2.3,4.1,3.8c1.5,1.4,3.6,3.1,4.6,3.7c1.3,0.8,2.2,1.8,2.9,3.3
		c1.6,3.4,5.5,8,10.4,12.2c2.5,2.1,5.5,4.9,6.7,6.3c0.8,0.8,2.1,2,3.3,3.1h222.3C465.9,347.2,466.4,344.9,466.7,343.6z"/>
	<path fill="#FFFFFF" d="M450.3,427.5c-1.3-2.3-1.3-2.6-1.3-7.6c0-4.7,0.1-5.2,0.7-5.2c0.4,0,1.1-0.4,1.5-0.9
		c0.4-0.5,1.2-0.9,1.7-0.9c0.8,0,0.9-0.2,0.9-1.9c0-1.2-0.3-2.5-1-3.6c-0.9-1.6-1-2.1-1-7.1c0-2.9,0.2-5.6,0.3-5.9
		c0.4-0.7,1.5-1.4,2.7-1.7h-171c0.2,0.1,0.4,0.1,0.6,0.1c0.6,0,2,1.2,4,3.3c1.7,1.8,4.2,3.9,5.4,4.7c1.3,0.7,3,1.9,3.7,2.7
		c4.5,4.3,7.5,6.2,13.3,8.3c3.1,1.1,6.2,2.2,6.7,2.3c1.6,0.4,8.2,5.3,10.4,7.8c1.8,2,2.4,2.3,4.4,2.8c4.4,0.9,12.2,4.6,14.8,7.1
		c0.7,0.6,2.1,1.4,3.2,1.9c1.4,0.6,3,1.4,4.3,2.3h97.3C451.6,430.1,451.5,429.5,450.3,427.5z"/>
	<path fill="#FFFFFF" d="M218.2,174.4h158.4c-0.2-1-0.5-2.3-0.8-3.4c-1.1-3.9-1.3-8.1-0.4-9.5c0.8-1.2,0.8-4.8,0-5.1
		c-0.3-0.2-1.8-1.4-3.4-2.7l-2.8-2.4l-0.3-2.9c-0.4-4.8-0.6-5.4-1.8-6c-0.9-0.5-1.2-1.1-1.6-3.2c-0.2-1.4-0.5-3.8-0.5-5.2
		c0-1-0.1-2-0.3-2.9h-39.1c-0.1,0-0.3,0.1-0.4,0.1c-1.1,0.1-1.5,0.7-3.1,3.7c-1,2-1.9,3.7-2,3.9c-0.1,0.2,0.4,1.3,1.2,2.3l1.3,1.9
		l-0.9,2.1c-0.7,1.4-1.2,2.1-2,2.3c-0.7,0.1-1.8,0.5-2.7,0.7c-1.6,0.5-2.3,0.3-2.3-0.7c0-0.3-0.4-1.1-1-1.6c-0.9-1-1-1-2-0.3
		c-0.6,0.5-1.1,1-1.1,1.2c0,0.2-0.6,1.1-1.3,2c-1,1.3-1.6,1.7-3.1,1.9c-3.2,0.5-3.6,0.7-5.4,2.3c-1.4,1.3-2,1.6-3.5,1.6
		c-1,0-1.8-0.1-1.8-0.2c0-0.2,0.3-0.9,0.6-1.6c0.6-1.3,0.6-1.4-1.2-2.7c-1.3-0.9-1.8-1.6-1.8-2.4c0-0.9-0.2-1-1.5-1
		c-2.8,0-4.9-2.2-5.9-6.3c-0.2-0.9-0.2-2,0.1-2.9c0.9-2.8-0.7-3.5-6-2.8l-2.4,0.3l-0.8-2l-0.8-2H270c-0.2,0.2-0.4,0.4-0.5,0.7
		c-1.1,2.3-3.2,2.5-4.3,0.3l-0.5-1.1h-0.5l-2.1,2.7l-2.4,3.1l0-3.3c0-0.9,0.1-1.8,0.2-2.6h-41.6V174.4z"/>
	<path fill="#FFFFFF" d="M416.7,260.9c-1.1-2.1-3.8-3.4-6.7-3.4c-1.4,0-2.3-0.2-2.7-0.7c-0.8-1.1-3.1-1.4-6-0.5
		c-2.1,0.6-2.8,0.7-3.3,0.2c-0.5-0.5-0.9-0.3-1.9,0.9c-0.7,0.8-2,1.6-2.7,1.8c-1.8,0.6-5.6-0.3-7.2-1.6c-0.7-0.6-2.7-1.4-4.4-2
		c-2.1-0.7-3.7-1.5-4.5-2.3c-2-2.2-7.6-3.8-9.8-2.9c-0.9,0.4-1.3,0.4-1.7,0c-0.5-0.5-0.5-0.6,0-1.1c0.6-0.5,0.5-0.8-0.2-3.3
		l-0.8-2.8l1.1-1.3c0.9-1.1,1-1.4,0.5-2c-0.3-0.4-0.9-0.7-1.4-0.7s-1.4-0.7-2.1-1.4c-0.7-0.8-1.6-1.4-2.1-1.4c-0.7,0-1,0.4-1.4,2.3
		c-0.4,1.8-0.7,2.3-1.2,2.2c-0.4-0.1-1.1-0.4-1.7-0.5c-0.6-0.2-1.5-1.1-2.2-2.2c-1.6-2.8-3.3-3.7-6.3-3.7c-2.3,0-2.6-0.1-2.6-0.9
		c0-0.6,0.3-0.9,0.8-0.9c0.9,0,2.9-3,2.9-4.5c0-0.8,0.2-1.1,0.9-1.1c1.5,0,2.4-0.9,2.4-2.3c0-1.6,0-1.6,1.4-0.9
		c1,0.4,1.1,0.3,1.8-1.4c0.5-1.4,1-2,2.2-2.4c1-0.3,1.6-0.8,1.6-1.3c0-0.2,0.1-0.3,0.2-0.5H218.2H86.8c0.6,0.3,1.1,0.6,1.6,0.9
		c2.2,1.3,8,4.3,13,6.5c4.9,2.3,9.9,4.8,10.9,5.5s2.7,1.7,3.7,2.3c1,0.6,4.2,3.2,7,5.9c4.9,4.8,5.2,5.1,6.7,8.8
		c1.2,2.9,1.6,4.5,1.6,6.5l0,2.6l-1.3,0c-0.7,0-1.3,0.1-1.3,0.3c0,0.2,0.9,1.4,2.1,2.5c0.9,0.9,1.6,1.5,2.2,1.8h284.4
		C417.1,261.5,416.9,261.2,416.7,260.9z"/>
	<path fill="#FFFFFF" d="M218.2,87.5h49.8c-0.1-0.1-0.2-0.3-0.3-0.4c-0.7-1-1.7-2.3-2.3-2.9c-0.9-0.8-1.1-1.7-1.5-4.9
		c-0.7-5.6-0.6-9.2,0.3-11.4c1.3-3.2,1.4-5.5,0.6-7.2c-0.6-1.2-0.9-1.4-1.9-1.3c-1,0.1-1.1,0.1-0.5-0.4c0.6-0.5,0.6-0.7-0.3-2.4
		c-0.8-1.5-1-2.4-1-5.7c0-4.3,0.4-3.8-3.8-4.6c-1-0.2-1.8-0.7-2.3-1.6l-0.7-1.1h-35.9V87.5z"/>
	<path fill="#000066" d="M218.2,174.4v-43.3V87.5V43.6V8c-1.2-0.1-2,0.3-4.3,1.6c-2,1.1-3.7,2.4-4.6,3.7c-0.9,1.3-1.8,2-2.4,2
		c-0.5,0-1.3,0.5-1.7,1.2c-0.7,1.2-0.8,1.2-2.3,0.5l-1.5-0.7V12V7.9l-1.4-1c-1.1-0.8-2-1-4.8-1c-3,0-3.5,0.1-4.2,1
		c-1.6,2-4.2,3.7-5.2,3.4c-0.5-0.1-1.1,0-1.2,0.2c-0.2,0.3-0.9,0.5-1.8,0.5h-1.5l0.2,2c0.2,1.4,0,2.5-0.7,4.1
		c-1.2,2.7-1.9,6.3-1.9,9.7c0,2.2-0.2,2.9-1.3,4.7c-1.7,2.7-2,5.2-0.9,7c1,1.6,1.5,4.9,0.9,6.1c-0.2,0.5-1.4,1.6-2.6,2.5
		c-2.2,1.5-2.2,1.5-6.7,1.4c-6.4-0.1-8,0.4-11.2,3.7c-1.5,1.5-2.9,3.5-3.3,4.5c-0.5,1.3-1.4,2.2-3.1,3.5l-2.4,1.8l-0.3,8.3
		c-0.4,11.8-0.5,16.7-0.8,18.8H185l-47,29.7l17.9,47.6h0l-47.5-29.1l-16.8,10.4c0,1.1-0.5,1.3-3.8,2.6c-0.4,0.2-0.7,0.3-1.1,0.5
		L80,155c-0.4,0.5-0.6,0.9-0.7,1.3c-0.2,0.7-1.1,2.7-2.2,4.3c-1.9,2.8-1.9,2.9-1.7,5.6c0.3,2.6,0.2,2.8-0.7,3.3
		c-1.6,0.8-2.5,2.7-2.2,4.5c0.2,1.3,0,1.9-1,3.2c-0.7,0.9-1.6,1.8-2,2c-1.1,0.4-2.2,3.6-1.9,5.2c0.4,1.5-0.2,2-2.4,2.1
		c-0.9,0-2,0.2-2.4,0.4c-0.7,0.3-0.7,0.4-0.1,1c0.4,0.3,1.6,2.1,2.7,3.9c1.5,2.4,2.7,3.8,4.3,4.9c3.5,2.5,4.5,5.5,3.4,10.6
		c-0.4,1.8-0.3,2.2,0.4,3.8c0.7,1.4,1.4,2,3.6,3c1.5,0.7,3.8,1.6,5,2c1,0.3,2.8,1.2,4.6,2.2h131.3V174.4z"/>
	<path fill="#CC0000" d="M354.7,435.8c0.2,0.2,0.5,0.3,0.7,0.5h96.7c0-0.2,0-0.3,0-0.5H354.7z"/>
	<path fill="#CC0000" d="M254.1,43.6l-0.1-0.2l0.9-2.2c0.7-1.8,0.8-2.3,0.4-3.5c-0.3-1.1-0.3-1.5,0.2-2.1c0.6-0.7,0.6-0.9,0.1-2.3
		c-0.9-2.3-0.7-4.8,0.3-6.1c0.5-0.6,0.9-1.3,0.9-1.6c0-0.8-1.4-1.9-3-2.2c-1.1-0.2-2.2-1-3.5-2.5l-1.9-2.1l-1.9,0.7
		c-1.1,0.4-2.3,0.7-2.8,0.7c-0.5,0-1.4,0.3-2.1,0.7c-1.5,0.9-1.5,0.7,0-2.6c1.6-3.3,1.4-5.5-0.6-7.2c-1.3-1.1-3.3-1.5-4.2-0.8
		c-0.2,0.2-0.8,1.6-1.2,3.1l-0.8,2.8l-1.3-3.5c-1.1-2.8-1.3-3.9-1.1-5.3c0.2-1.6,0.1-2.2-1-4.1c-0.7-1.2-1.5-2.2-1.6-2.2
		c-0.2,0-0.7,0.5-1.1,1.2c-0.4,0.7-0.9,2-1.1,3c-0.2,1.8-0.3,1.9-3.1,2.9c-1.9,0.7-3,0.9-3.3,0.6c-0.3-0.3-1.4-0.6-2.4-0.7
		c-0.2,0-0.5-0.1-0.7-0.1v35.6H254.1z"/>
	<path fill="#CC0000" d="M218.2,131.1h41.6c0.4-2.3,1.4-4,3.3-5.6c1.3-1.1,2.7-4.8,2.7-6.8c0-0.4,0.4-1.2,1-1.8
		c0.6-0.7,1.4-2.8,2-5.1c1-3.8,1-3.9,0.2-5.6c-0.4-0.9-0.7-2.1-0.7-2.6c0-1,1-5.3,1.9-8.1c0.7-2.3,0.4-5-0.6-5.8
		c-0.3-0.3-1-1.2-1.6-2.1h-49.8V131.1z"/>
	<path fill="#CC0000" d="M456.6,392.3c1.6,0.1,2.4-0.7,3.8-4.2c0.8-1.9,0.8-2-0.1-6c-0.9-3.9-0.9-4.3-0.3-7.1
		c0.6-2.7,0.7-2.9,1.8-2.9c0.6,0,1.6-0.3,2.2-0.7c0.5-0.4,1.1-0.7,1.1-0.6c0.1,0.1,0.3,0.7,0.6,1.4l0.4,1.2l0.6-1.6
		c0.3-0.9,1.2-2.1,1.8-2.7l1.2-1l-0.6-3.9c-0.3-2.1-0.7-4-0.8-4.1c-0.1-0.1-0.5,0.4-1,1.1l-0.9,1.2l-1.3-2c-1.8-2.6-2.2-6.3-0.9-6.5
		c0.7-0.1,0.9-0.7,1.3-3.9c0-0.2,0.1-0.4,0.1-0.6H243.4c0.7,0.6,1.3,1.1,1.9,1.6c1.9,1.4,2.9,2.5,2.9,3.1c0,1.7,1.1,4.1,2,4.1
		c1.3,0,4.6,1.9,6.3,3.6c0.9,0.9,2.2,2.9,2.8,4.3c1.7,3.8,5.7,8.9,9.3,11.8c1.7,1.4,3.5,2.9,3.9,3.5c0.4,0.6,2.4,2.1,4.4,3.4
		c3.1,2,3.5,2.5,3,2.9c-0.4,0.3-0.5,0.8-0.4,1.3c0.4,1,3,3,4.4,3.5h171C455.5,392.3,456.1,392.2,456.6,392.3z"/>
	<path fill="#CC0000" d="M218.2,218.3h141.7c0.4-0.8,1.7-1.9,3.8-3.3c0.9-0.6,1.3-1.4,1.6-2.4c0.2-1,1-2.3,2.5-3.8
		c1.6-1.6,2.2-2.6,2.2-3.5c0-0.7,0.3-1.3,0.8-1.4c0.8-0.2,1.6-2.6,1.6-4.5c0-0.5,0.3-2,0.7-3.4c0.7-2.4,0.7-2.5-0.2-3.6
		c-1.1-1.3-1.1-2.8-0.2-4.3c0.5-0.9,0.6-1.8,0.4-3.7c-0.3-2.3-0.2-2.6,0.6-2.9c1.3-0.5,3.3-3.9,3.3-5.6c0-0.3-0.1-0.9-0.2-1.5H218.2
		V218.3z"/>
	<path fill="#CC0000" d="M454.8,305.2c-0.1,0-0.3,0.2-0.7,0.4h1C454.9,305.4,454.8,305.2,454.8,305.2z"/>
	<path fill="#CC0000" d="M449.5,305c-1.1-2.4-1.7-3.1-2.7-3.5c-2-0.7-5.7-3.1-6.5-4.2c-1.2-1.5-2.2-1.2-2.5,0.7
		c-0.2,1-0.5,1.6-0.9,1.6c-0.8,0-6.9-4.6-8-6c-0.8-1-0.9-2.2-0.4-5.7c0.2-1.8,0.1-2.5-0.8-4.7c-0.6-1.4-1.3-2.7-1.6-2.9
		c-0.2-0.2-1.4-0.4-2.6-0.4c-2.6,0-2.6,0-1.3-6.6c1.3-7,1.3-7.1-1.8-9.1c-1.2-0.8-2.2-1.6-2.9-2.4H132.9c0.4,0.2,0.8,0.3,1.2,0.3
		c0.7,0,2.2,0.7,3.6,1.6c2.9,2.1,10.5,5.2,13.4,5.7c3.8,0.6,12.6,3.9,14.9,5.7c1.5,1.1,2.4,1.6,3.3,1.4l1.2-0.1l-1.6-1.7
		c-0.9-1-2.3-2-3.1-2.3c-0.9-0.3-1.9-0.9-2.3-1.4c-0.7-0.8-0.7-0.8,0.3-0.8c0.6,0,1.2,0.2,1.4,0.4c0.7,0.7,5,3.3,5.6,3.3
		c0.3,0,0.7,0.5,0.9,1c0.2,0.6,0.9,1.7,1.8,2.6l1.5,1.5l-1.3,0c-1.6,0-1.7,0.5-0.2,2.1c1.4,1.5,3.9,2.8,6.9,3.5
		c2.2,0.5,2.6,0.8,7.1,5.8c3.1,3.5,5.3,5.7,6.5,6.2c1,0.5,2.6,1.7,3.6,2.6c1,0.9,2.7,2.1,3.8,2.5l2,0.8l0.4,3h246.1L449.5,305z"/>
	<path fill="#CC0000" d="M364.5,130c-0.2-0.7-0.6-3.3-0.8-5.7c-0.3-3.9-0.5-4.7-2-7.6c-1.7-3.2-1.8-3.3-5.4-5.2
		c-2.1-1.1-4.4-2.8-5.3-3.6c-1.5-1.5-1.6-1.8-2-5.7l-0.4-4.1h-3.8c-4.4,0-6.4,0.7-9,3.1c-1.5,1.4-1.8,1.9-2.3,4.8
		c-0.9,4.6-0.9,9.2,0.1,11.4l0.8,1.7l-2.4,3.3c-1.3,1.8-2.6,3.3-2.9,3.3c-0.7,0-2.2,2.4-2.4,3.9c-0.1,1.1-0.3,1.4-1,1.6h39.1
		C364.7,130.6,364.6,130.2,364.5,130z"/>
	<path fill="#CC0000" d="M275.8,131l-2.9-0.1c-1.7-0.1-2.5-0.1-2.9,0.2L275.8,131L275.8,131z"/>
	<polygon fill="#CC0000" points="264.4,130.7 264.1,131.1 264.6,131.1 	"/>
	<path fill="#CC0000" d="M357.6,438.3c3,3.6,9,7.6,12.9,8.4c3.3,0.7,5.6,2.1,8.6,5.2c1.9,2.1,3.4,3.4,4.5,3.7c1,0.3,4.2,0.6,8.1,0.6
		h6.4l5.4,2.6c3,1.4,7.1,3.4,9.2,4.2c2.1,0.9,5.1,2.2,6.7,3c1.6,0.8,3.4,1.4,4.2,1.4c1.9,0,2.4,0.6,2.6,3.2l0.2,2.4h1.5
		c1.2,0,1.7,0.3,2.4,1.4c0.7,1.1,1.3,1.4,2.3,1.4c0.7,0,2.5,0.5,3.9,1.2c2,0.9,2.9,1.1,4.5,0.9c1.6-0.2,2.3-0.1,3.7,0.7
		c2.3,1.4,5,1.7,8.5,1c3.6-0.7,3.8-1.4,1.1-4.1c-1.8-1.8-1.9-1.8-1.5-3.6c0.6-3.2,0.4-10.9-0.5-15.3c-0.8-3.9-0.8-4.2-0.1-5.5
		c0.9-1.7,0.9-3.1,0.2-13.3c0-0.5-0.1-1-0.1-1.5h-96.7C356.3,437,357.1,437.7,357.6,438.3z"/>
	<path fill="#FFFFFF" d="M80,155l6.7-4.2C83.3,152.2,81,153.7,80,155z"/>
	<path fill="#FFFFFF" d="M155.9,166.4L155.9,166.4L138,118.8l47-29.7h-37.7c-0.2,1.4-0.4,1.5-0.8,1.5c-0.5,0-1.3,0.4-1.9,0.8
		c-2.3,1.8-7.1,7-8.3,9c-6.3,10.7-14.9,20.6-17.8,20.6c-1.5,0-3.7,1.3-6.7,4.2c-2.9,2.7-8.9,7.3-12.2,9.5c-1.2,0.7-2,1.9-3.2,4.3
		c-0.9,1.8-2.3,4.1-3.2,5.1c-1.3,1.4-1.7,2.2-1.7,3.3c0,0.2,0,0.3,0,0.4l16.8-10.4L155.9,166.4z"/>
</g>
</svg>
