<?xml version="1.0" encoding="utf-8"?>
<!-- Generator: Adobe Illustrator 17.1.0, SVG Export Plug-In . SVG Version: 6.00 Build 0)  -->
<!DOCTYPE svg PUBLIC "-//W3C//DTD SVG 1.1//EN" "http://www.w3.org/Graphics/SVG/1.1/DTD/svg11.dtd">
<svg version="1.1" id="flag-icon-css-ls" xmlns="http://www.w3.org/2000/svg" xmlns:xlink="http://www.w3.org/1999/xlink" x="0px"
	 y="0px" viewBox="0 0 640 480" enable-background="new 0 0 640 480" xml:space="preserve">
<g>
	<path fill="#FFFFFF" d="M462.7,334.2c0.7,0,1.8-0.4,2.5-0.9c0.8-0.6,1.9-0.9,3.1-0.9c1.7,0,2-0.2,3-1.8c1.6-2.7,2.8-3.8,5.4-5
		c1.4-0.7,2.8-1.7,3.2-2.5c0.8-1.4,1.3-1.7,6.6-4.6c2.4-1.4,3.1-1.5,4.3-1.2c1.8,0.6,2,0.3,2.4-3.1c0.2-2.3,0.4-2.7,1.9-3.4
		c0.9-0.5,2.8-1.1,4.2-1.5c3.9-0.8,6.7-3.4,5.3-4.8c-0.1-0.2-0.2-1.6-0.2-3.1c0.1-2.7,0-2.8-1-2.8c-1.5,0-2-0.4-3-2.3
		c-1.3-2.5-4-5.1-5.7-5.4c-1.4-0.3-2.7-1.1-1.6-1.1c0.3,0,0.9-0.5,1.5-1.2c0.6-0.6,1.5-1.2,1.9-1.2c1.1,0,2.2-3.5,1.5-4.7
		c-1.1-1.7-1.2-3.9-0.1-5.9c1.1-2.2,1.2-4,0.2-4c-1.1,0-0.8-0.9,0.5-1.5c0.9-0.4,1.1-0.8,0.9-1.5c-0.1-0.6-0.4-1.3-0.5-1.7
		c-0.1-0.5,0.1-0.8,0.8-1c1.1-0.3,1.2-1.6,0.2-3.9c-0.8-2.1-0.2-3.9,1.6-4c1.2-0.1,1.2-0.3,1.4-3.3c0.1-3.1,0.1-3.1,1.5-3.1
		c0.8,0,1.6-0.4,2.1-1c0.4-0.6,1-0.9,1.4-0.8c0.5,0.2,1-0.2,1.5-1.1c0.5-0.8,1.6-1.9,2.6-2.3c1.2-0.6,1.7-1.2,1.7-1.9
		c0-0.8,0.1-0.9,0.7-0.4c0.6,0.5,1,0.4,2.3-0.4c1.3-0.8,2.3-1,5.8-1c2.9,0,4.4-0.2,4.7-0.6c0.4-0.5,1.4-7.1,1.7-11.1
		c0.1-1.5,0.2-1.6,2.1-1.9c4.1-0.5,5.3-3.5,2.3-6c-1.5-1.2-1.6-1.4-1.2-3c0.4-1.4,0.3-1.8-0.8-3.5c-1-1.5-1.1-2-0.7-2.7
		c0.8-1.3,0.6-3.7-0.4-4.8c-0.8-0.9-0.8-1.1-0.3-1.9c0.6-0.8,0.8-0.8,2.3-0.4c1.9,0.6,2.2,0.4,2.2-1c0-0.6,0.3-1.5,0.8-2.1
		c0.6-0.8,0.9-0.9,1.6-0.6c0.7,0.4,1,0.3,1.2-0.3c0.2-0.6,0.7-0.7,2.8-0.4c1.7,0.2,2.5,0.1,2.5-0.2c0-0.3,0.3-0.5,0.7-0.5
		c0.4,0,0.8-0.5,0.8-1c0.1-0.8,0.6-1.1,1.6-1.4c0.8-0.1,2-0.8,2.7-1.3c0.7-0.5,1.5-1,1.9-1c0.3,0,0.9-0.9,1.3-2
		c0.6-1.7,0.8-2,1.9-1.9c1.2,0.1,1.2,0,1.2-2.5c0-2.3,0.1-2.5,1.1-2.5c2.6,0,3-0.4,3.5-3.7c0.3-1.7,0.4-4.4,0.2-5.9
		c-0.3-2.6-0.3-2.7,1-2.7c1,0,1.2-0.2,1.2-1.5c0-0.8-0.6-2.3-1.4-3.4c-1.3-1.8-1.4-2.4-1.7-7.5c-0.4-6-0.7-6.7-3.2-7
		c-1.6-0.2-2.1-1.1-0.8-1.5c1.6-0.5,1.3-2.8-0.6-4.3c-1.3-1-1.5-1.4-1.2-2.1c0.3-0.6,0.2-1.3-0.2-2.2c-0.6-1.1-1.3-1.5-3.5-2.2
		c-1.5-0.4-3.5-0.8-4.5-0.8c-0.9,0-1.4-0.1-1.7-0.4H188.4c-1.1,1.6-2.5,2.8-4.3,3.6c-1,0.4-1.6,1-1.4,1.3c0.1,0.3,0.3,1.3,0.3,2.2
		c0,1.6,0,1.6,2,1.5c1.8-0.1,2,0,2.7,1.3c0.4,0.8,0.8,1.6,0.8,1.8c0,0.2-1.3,1.2-2.8,2.2c-1.5,1-2.9,2.1-3.1,2.5
		c-0.1,0.5-1.2,1.4-2.5,2.1c-1.2,0.7-2.6,1.7-3.1,2.2c-0.6,0.7-1.2,0.9-2.2,0.7c-3-0.6-4.6,0.7-3.7,2.9c0.2,0.7,0.3,1.8,0.2,2.5
		c-0.2,1.1-0.8,1.6-3,2.5l-2.7,1.2l-0.4,4.1c-0.3,3.5-0.4,4-1.1,3.7c-3.3-1.4-3.3-1.4-4.1-0.4c-0.6,0.8-0.6,1,0.7,2.1
		c0.8,0.7,1.5,2,1.8,2.9c0.5,1.7,0.4,1.8-1.4,3.4c-1.1,0.9-2.5,1.7-3.4,1.8c-1.3,0.1-1.5,0.3-1.7,1.9c-0.3,1.8-3.2,5.9-4.6,6.4
		c-1.8,0.7-1.9,2.7-0.4,5.6c1.2,2.3,1,2.7-1.5,3.2c-1.4,0.2-1.9,0.1-3.1-0.9c-1.4-1.2-1.5-1.2-2.8-0.3c-0.8,0.5-2.1,2-2.9,3.3
		c-1.3,2-1.5,3-1.5,5c0,2.3-0.1,2.5-1.2,2.8c-0.8,0.2-1.5,0-2.1-0.5c-1.4-1.3-3.4-0.9-5.1,0.8c-0.8,0.8-1.5,2-1.5,2.6
		c0,1.4-2.5,2.1-4.3,1.2c-1.6-0.8-2.3-0.8-2.3,0c0,0.4-0.6,1-1.4,1.4c-0.8,0.4-1.5,1.2-1.6,1.7c-0.3,1-0.4,1-5.4,0.7
		c-4.9-0.3-5.2-0.3-7.9,0.9c-4.2,1.9-6.3,3.8-6.6,5.9c-0.3,1.5-0.7,2-2.3,2.9l-2,1.1l-0.9-1.6c-1.5-2.6-2-2.2-2.6,2.4
		c-0.2,1.3-0.6,2.8-1,3.4c-0.7,1-0.7,1-2.1,0.2c-0.8-0.4-1.9-1.5-2.5-2.4c-0.6-0.9-1.5-1.6-2.1-1.7c-1-0.1-1,0-0.9,2.9
		c0,2.3-0.1,3.3-0.7,3.9c-0.9,1-1,3.8-0.2,4.9c0.3,0.4,1.4,1.3,2.5,1.9c1.4,0.8,2.2,1.8,3,3.6c0.8,1.9,1.8,3,4.7,5.3
		c2,1.6,4.3,3.3,5,3.7c1.2,0.7,2.8,4.2,13.6,29.6c6.7,15.9,12.4,30,12.8,31.4c0.8,3.1,1.1,3.6,3,3.9c0.8,0.1,2,0.7,2.8,1.2
		c0.7,0.5,1.6,0.9,2.1,0.9c0.5,0,0.8,0.4,0.8,1c0,1.3,0.8,2.6,2,3.6h324.5C460.6,334.9,461.9,334.2,462.7,334.2z M243.6,308l12.7-27
		l7.2,2.6l49-66v-18.5h-8.3l10.3-10.7l-0.3-32.4c0,0,2.7-3,5.4-3v-0.1c2.8-0.1,5.5,2.9,5.5,2.9V188l11.2,10.6h-8.2v19.1l49.6,65.6
		l6.5-2.8l13,26.6c0,0-27.1,19.4-76.9,19.9C274.9,327.6,243.6,308,243.6,308z"/>
	<path fill="#009543" d="M298.3,471.6c-0.3-0.5-0.6-2.6-0.5-4.7v-3.7l2.5-1.6c1.4-0.9,2.8-1.6,3.1-1.6s1.1-0.8,1.8-1.8
		c0.9-1.4,1.2-2.4,1.2-4.3c0-2,0.4-3.2,1.6-5.6c1.2-2.3,1.5-3.5,1.3-4.6c-0.2-0.8,0-1.9,0.5-2.8c1-2,0.9-3.2-0.2-3.6
		c-0.6-0.2-0.9-0.7-0.9-1.4c0-0.8-0.5-1.4-1.7-2.2l-1.7-1.1l2.4-2.1c2-1.8,2.4-2.4,2.4-3.7c0-1.5,0-1.5,2.5-1.5c1.3,0,3-0.3,3.6-0.7
		c0.7-0.4,1.7-0.7,2.4-0.7c0.7,0,1.7-0.5,2.3-1.2c0.6-0.7,1.9-1.3,2.8-1.5c1.6-0.3,1.7-0.4,2.7-3.6c0.6-1.9,1-3.7,1-4.1
		c0-0.4,0.3-1.1,0.7-1.6c0.4-0.6,0.7-2,0.7-3.4c0-2.1-0.2-2.5-1.2-3.2c-0.9-0.6-1.2-1.2-1.2-2.6c0-1.6-0.1-1.9-1.7-2.5
		c-1.2-0.5-2.2-1.4-3-2.6c-0.8-1.3-1.5-1.9-2.3-2c-0.8-0.1-1.5-0.7-2.3-2.1c-1.1-2-1.1-2-0.1-2c0.5,0,1.2-0.5,1.5-1
		c0.3-0.6,1.4-2,2.3-3.1c1-1.1,1.8-2.2,1.8-2.5c0-0.2,0.4-0.5,1-0.5c0.6,0,1.7-0.3,2.6-0.8c1.3-0.6,1.7-0.7,2.3-0.2
		c0.4,0.3,2.3,0.7,4.2,0.8c3.4,0.2,3.5,0.2,3.5-0.8c0-2,0.8-2.8,4.2-3.6l3.2-0.8l0.3-3.2c0.1-1.8,0.6-3.6,1-4
		c0.4-0.4,0.9-1.7,1.2-2.9c0.7-2.5,2-4.1,3.8-4.5c1.6-0.4,2.6-1.5,3.1-3.5l0.3-1.6l2.3,0.3c1.3,0.1,3.1,0.7,4.2,1.2
		c2.7,1.4,6.9,1.3,11.3-0.2c4.5-1.5,8.2-3.3,9.3-4.6c0.8-0.9,1.1-0.9,7.4-0.6c3.6,0.2,7.9,0.3,9.4,0.3c1.6,0,4.1,0.2,5.5,0.7
		c2.6,0.8,2.6,0.8,5-0.5c1.4-0.7,5.1-2.4,8.3-3.8l5.9-2.5l2.3,0.9c2.8,1.1,5.2,0.6,6.6-1.4c0.9-1.3,1.1-1.4,3.7-1.1
		c1.8,0.2,3.1,0,3.9-0.4c0.6-0.3,2-0.7,3-0.8c1.6-0.2,1.9-0.5,2.3-1.8c0.7-1.9,0.8-2,5.9-3.7c2.2-0.7,4.4-1.6,5-2
		c0.5-0.4,2.3-1.7,3.9-3c0.2-0.1,0.3-0.2,0.5-0.4H134.5c0.6,0.5,1.2,0.9,1.9,1.2c2.4,0.9,1.9-0.5,5.1,14.2l1.5,7.1l2,0.3
		c2.3,0.3,11.8,0,13.2-0.5c1.1-0.4,1.2-0.1,1.8,3.1c0.2,1.5,0.1,1.8-0.8,2c-1.2,0.3-2.8,2.5-3.1,4.5c-0.2,0.8-0.6,1.2-1.5,1.3
		c-1.2,0.1-1.2,0.3-1.5,4c-0.5,5.7-0.4,13.7,0.1,15.1c0.3,0.8,0.8,1.2,1.6,1.2c1,0,1.2,0.2,1.4,2.7c0.6,5.8,0.6,6-0.4,6.2
		c-0.7,0.2-0.9,0.7-0.9,1.8c0,2.5,1.1,2.9,4.3,1.3c1.5-0.8,3.7-1.5,5-1.6c1.8-0.2,2.4-0.5,2.8-1.4c0.5-1,3.2-1.9,4.1-1.4
		c1.1,0.7,2,3.4,2.2,6.8c0.2,3.3,0.4,3.7,1.9,5.3c0.9,1,2.1,1.8,2.5,1.8c0.5,0,1.1,0.6,1.5,1.6c0.7,1.6,0.7,1.6,4.1,1.7l3.4,0.1
		l1.5,2c1.2,1.6,1.5,2.5,1.5,4.2c0,1.7,0.3,2.6,1.7,4.4c1.6,2.3,1.7,2.3,4.2,2.3c2.5,0,2.5,0,2.5,1.5c0,1,0.5,2.1,1.7,3.3
		c1.5,1.7,1.6,2.1,1.5,4.3c-0.2,3.2,0.4,4.1,3.9,6.2c1.6,0.9,4.6,2.9,6.6,4.3c3.3,2.3,3.7,2.8,4.2,4.7c0.4,1.7,0.8,2.2,2.1,2.7
		c1,0.5,2.1,1.6,3.3,3.6c1.7,2.8,2,3,7,5.5l5.2,2.6l8.9-0.3c8.3-0.3,9-0.4,10.5-1.5c1.7-1.2,5.6-2,6.2-1.3c0.2,0.2,0.8,1.8,1.2,3.6
		c1,3.8,2.9,5.8,6.9,7.4c2.3,0.9,2.7,0.9,4.1,0.4c1.5-0.6,1.7-0.6,4.1,0.7l2.5,1.4l6-0.7c5.7-0.7,6.1-0.7,7.2,0.1
		c0.7,0.5,2.2,1.5,3.4,2.4l2.3,1.6l0.9-1.2C298.9,477.5,299.1,473.3,298.3,471.6z"/>
	<path fill="#00209F" d="M543.4,143c-0.3-0.8-0.8-1.4-1.3-1.4c-1.5,0-1.8-0.9-1.6-4.8c0.2-2.9,0.5-4.1,1.1-4.8
		c0.5-0.6,0.9-1.6,0.9-2.6c0-1.4-0.8-2.6-4.3-7.2l-4.2-5.6l-3.1-0.6c-3.1-0.6-3.1-0.6-5.2,0.8c-2.3,1.7-3.6,1.6-3.8-0.1
		c-0.1-0.9-0.8-1.6-2.3-2.6c-1.1-0.7-2.1-1.5-2.1-1.9c0-1.4-1.1-3-2.2-3c-1,0-1.1-0.2-1.1-2.5c0-2.3-0.1-2.7-1.6-4
		c-0.9-0.8-2-1.5-2.3-1.5c-0.4,0-0.7-0.3-0.7-0.7c0-1-1.9-1.6-4.6-1.6c-2.1,0-2.3-0.1-3.8-2.3c-1.1-1.6-2-2.4-3-2.6
		c-1.3-0.2-1.4-0.4-1.2-1.6c0.2-1.2-0.1-1.7-2.9-4.5c-2.3-2.3-3.7-3.2-5.1-3.6c-1.9-0.5-2-0.6-2-2.3v-1.7l-3.5-1.1
		c-2.8-0.9-3.6-1.3-4-2.3c-0.3-0.7-1.3-2.2-2.3-3.3c-1.6-1.9-1.9-2-2.8-1.5c-0.7,0.4-1,1-1,1.9c0,1.3-0.1,1.4-2.4,1.5
		c-2.3,0.2-2.7,0-5.2-1.7c-2.3-1.6-2.7-2.2-2.7-3.4c0-1.2-0.3-1.7-1.4-2.3c-1.6-0.9-1.8-2-0.5-3.2c0.7-0.6,0.8-1,0.5-1.4
		c-0.2-0.2-0.5-1.2-0.5-2c0-0.8-0.2-1.6-0.4-1.8c-0.2-0.2-0.8-1.2-1.1-2.3c-0.7-1.9-0.7-2.1,0.3-3.1l1-1l-1-1
		c-0.8-0.8-0.9-1.2-0.5-2.4c0.3-0.8,0.4-1.4,0.3-1.5c-0.1,0-1.7-1-3.6-2.2l-3.4-2l-2,1.9c-1.1,1.1-2.2,2-2.3,2s-1-1-1.9-2.3
		c-1.5-2.1-1.9-2.3-3.9-2.6c-1.9-0.2-2.5-0.1-4.7,1.1c-1.4,0.8-3,1.4-3.4,1.4c-1.1,0-1.9-1.3-1.9-3c0-0.7-0.2-1.7-0.6-2.4
		c-0.5-1.1-0.4-1.5,0.8-3.8l1.4-2.5l-1.6-1.7c-1.3-1.4-1.9-1.6-3.5-1.6c-1.6,0-2.2-0.3-3.6-1.7c-1.5-1.6-1.7-1.7-4.2-1.4l-2.6,0.3
		l-2.6-2.6c-2.8-2.7-2.8-2.9-3.4-9.2c-0.4-4.4-0.8-5.2-3.9-8.5c-4-4.3-9.4-8-9.4-6.5c0,0.5-4.4,4.8-6.6,6.4c-1.2,0.9-2,1.2-3,1
		c-0.8-0.2-1.6,0-2,0.3c-0.5,0.4-1,0.4-2.3,0c-1.2-0.4-1.8-0.4-2.6,0c-0.8,0.4-1.1,0.4-1.4,0c-0.3-0.4-0.6-0.4-1.3,0
		c-0.5,0.3-1.7,0.5-2.5,0.5c-0.9,0-2,0.3-2.5,0.7c-1.3,0.9-2.4,0.8-3.1-0.2c-0.9-1.5-5.2-1.3-7,0.2c-0.8,0.7-1.9,1.2-2.5,1.2
		c-0.7,0-2,0.4-3.1,1c-1.9,0.9-2,0.9-2.9,0.1c-0.9-0.8-0.9-0.8-1.6,0.1c-0.4,0.5-0.7,1.7-0.7,2.7c0,1.5-0.2,1.8-0.9,1.8
		c-0.6,0-1.7,1.1-3.1,2.8c-1.7,2.2-2.2,3.2-2.2,4.6c0,1.6-0.3,2.1-2.2,3.6l-2.1,1.8l-1.1-1l-1-1l-1.6,1.6c-1.9,2-3.1,2.1-3.8,0.4
		c-0.6-1.5-1-1.2-3.8,1.9l-1.7,1.9l-1.9-1.3c-1-0.7-2.3-1.3-2.9-1.3c-0.6,0-0.9-0.3-0.9-0.9c0-0.7-0.6-1.1-2.3-1.6
		c-3-1-3.8-0.9-3.8,0.1c0,1.2-2,2.4-4.7,2.7c-2.2,0.2-2.3,0.2-2.6-1c-0.3-1.4-1.1-1.6-1.1-0.3c0,0.5-0.1,1.2-0.3,1.6
		c-0.2,0.6-0.4,0.6-1.1-0.3l-0.8-1l-1.5,2.2c-0.9,1.3-1.3,2.3-1,2.4c0.6,0.4,0.6,2.1,0,2.1c-0.2,0-0.9-0.4-1.5-0.9l-1.1-0.8
		l-2.3,2.5c-1.3,1.4-2.7,2.5-3.1,2.5c-0.6,0-1,0.5-1.2,1.5c-0.4,1.9-1,2.7-2.4,3.2c-0.7,0.3-1.3,1.2-1.8,2.9
		c-0.5,1.4-1.1,2.7-1.5,2.9c-0.4,0.2-0.7,0.8-0.7,1.2c0,1.6-2,3.2-4.3,3.6c-2,0.3-2.2,0.5-2.7,2c-0.4,1.4-0.4,1.9,0.1,2.5
		c0.4,0.4,0.7,1,0.7,1.2c0,0.7-2.1,2.8-3.6,3.7c-1.3,0.8-1.4,1-1.2,2.9l0.2,2.1l-1.8,0c-1,0-2.6-0.3-3.5-0.6
		c-1.5-0.6-1.7-0.5-2.3,0.5l-0.7,1.1l-2.4-1.5c-2-1.2-2.8-1.5-4.4-1.3c-1.5,0.1-1.9,0.4-1.9,1.1c0,1.5-0.9,2.7-2,2.7
		c-3.3,0-4.2,1.4-2.6,3.9l1,1.7l-1,1.4c-1.2,1.6-3,2.2-4.8,1.4c-1.1-0.4-1.3-0.8-1.3-2.1c0-1.5-0.1-1.6-1.6-1.6
		c-1.4,0-1.6,0.2-1.6,0.9c0,0.5-0.4,1.1-0.8,1.3c-0.5,0.1-1.5,0.9-2.3,1.7l-1.5,1.4l-2.3-0.8c-1.2-0.4-2.7-1.1-3.2-1.6
		c-0.8-0.7-5.9-2.9-6.7-2.9c-0.1,0-0.2,0.6-0.2,1.4c0,0.8,0.4,1.6,1,2c1,0.6,1,0.7,0.2,2.1c-0.4,0.8-0.8,1.9-0.8,2.5
		c0,0.8-0.3,0.9-2.6,0.9c-2.5,0-2.6,0-4.2,2.2c-1.1,1.5-1.6,2.7-1.6,3.8c0,2.1-0.4,3-1.5,3c-1.1,0-1.1,0.1,0,2.3
		c1,2,1.1,2.7,0.5,3.7c-0.4,0.6-0.8,0.5-2.9-0.4c-3-1.3-3.3-1-3.7,2.3c-0.2,2.1-0.3,2.3-1.1,2.1c-0.8-0.2-0.8-0.2-0.1,1.5
		c0.4,1,0.7,1.8,0.7,1.9c0,0.1-0.9,0.5-2.1,0.8c-1.8,0.6-2.2,0.6-2.7,0c-0.6-0.8-1.6-0.9-2-0.3c-0.1,0.2,0.2,1.1,0.8,1.9
		c0.8,1.1,1.3,1.5,2,1.3c0.8-0.1,1.2,0.2,2,1.6l1,1.8l-1.6,1c-1.4,0.8-1.9,0.9-3.1,0.5c-1.7-0.6-2.3,0.3-1.4,2.1s-0.3,6.1-1.8,6.2
		c-0.8,0.1-1,0.5-1,1.8c0,1.4-0.2,1.6-1.3,1.8c-0.8,0.1-1.9,0.4-2.6,0.6l-1.3,0.3l1.2,2.2l1.1,2.2l-1,1c-0.8,0.8-1.6,1-3.4,1
		c-2.7,0-3.7,0.8-4.4,3.5c-0.4,1.4-0.8,1.9-2.5,2.6c-1.1,0.5-2.3,1.4-2.8,2c-0.1,0.1-0.2,0.2-0.3,0.3h355.5
		C543.7,143.8,543.6,143.5,543.4,143z"/>
	<path d="M384.2,280.5l-6.5,2.8l-49.6-65.6v-19.1h8.2L325.1,188v-32.2c0,0-2.7-3-5.5-2.9v0.1c-2.7,0-5.4,3-5.4,3l0.3,32.4
		l-10.3,10.7h8.3v18.5l-49,66l-7.2-2.6l-12.7,27c0,0,31.3,19.6,76.7,19c49.8-0.5,76.9-19.9,76.9-19.9L384.2,280.5z M260.5,292.1
		l2.3,7.4l-7,1.5C255.8,301,259.9,292.8,260.5,292.1z M257.1,305l7.4-2.4l1.5,5.9L257.1,305z M267.8,292.3L267.8,292.3l10.4,3.1
		l2.3,5.2l-9,2.6L267.8,292.3z M274.8,311.5l-1.2-4.4h0l8.4-2.8l4.8,10.2L274.8,311.5z M286.8,297.8l10.3,2.2l3,4.5l-9,3.5
		L286.8,297.8z M294.2,315.5l-1.4-3.8l-0.1,0l9.6-3.4l5.9,9.2L294.2,315.5z M306.3,300.8L306.3,300.8l-0.1-0.1L306.3,300.8l16.7,0.7
		l1.4,3.5l-13,4.8L306.3,300.8z M316.5,317.9l-2.7-4.8h-0.1l13-4.7l6,9L316.5,317.9z M330.9,301.1l12-1.4l2.8,4l-10.4,5L330.9,301.1
		z M340.3,316.5l-2.7-4.5l10.3-5.1l6.2,7.4L340.3,316.5z M351.2,298.9L351.2,298.9L351.2,298.9L351.2,298.9l11-3.2l3,3l-8.7,6.9
		L351.2,298.9z M361,312.6l-2.2-3.9l8.3-6.3h0l5.3,7.2L361,312.6z M368.9,293.2l9.6-3.8l2,2.9l-5.7,8.5L368.9,293.2z M378.3,302.8
		l4-6l0.1-0.1l3.5,7l-7,2.4L378.3,302.8z"/>
	<polygon fill="#FFFFFF" points="351.2,298.9 351.2,298.9 351.2,298.9 	"/>
	<polygon fill="#FFFFFF" points="337.6,312 340.3,316.5 354.1,314.3 347.9,306.9 	"/>
	<polygon fill="#FFFFFF" points="342.9,299.7 330.9,301.1 335.3,308.7 345.7,303.7 	"/>
	<polygon fill="#FFFFFF" points="313.7,313.1 313.8,313.1 316.5,317.9 332.7,317.4 326.7,308.4 	"/>
	<polygon fill="#FFFFFF" points="362.2,295.7 351.2,298.9 356.5,305.6 365.2,298.7 	"/>
	<polygon fill="#FFFFFF" points="382.4,296.7 382.3,296.8 378.3,302.8 378.9,306.1 385.9,303.7 	"/>
	<path fill="#FFFFFF" d="M260.5,292.1c-0.6,0.7-4.7,8.9-4.7,8.9l7-1.5L260.5,292.1z"/>
	<polygon fill="#FFFFFF" points="367.1,302.4 358.8,308.7 361,312.6 372.4,309.6 367.1,302.4 	"/>
	<polygon fill="#FFFFFF" points="378.5,289.4 368.9,293.2 374.8,300.8 380.5,292.3 	"/>
	<polygon fill="#FFFFFF" points="278.2,295.4 267.8,292.3 267.8,292.3 271.5,303.2 280.5,300.6 	"/>
	<polygon fill="#FFFFFF" points="257.1,305 266,308.5 264.5,302.6 	"/>
	<polygon fill="#FFFFFF" points="273.6,307.1 273.6,307.1 274.8,311.5 286.8,314.5 282,304.3 	"/>
	<polygon fill="#FFFFFF" points="323,301.5 306.3,300.8 311.4,309.8 324.4,305 	"/>
	<polygon fill="#FFFFFF" points="306.2,300.8 306.3,300.8 306.2,300.7 	"/>
	<polygon fill="#FFFFFF" points="297.1,300 286.8,297.8 291.1,308 300.1,304.5 	"/>
	<polygon fill="#FFFFFF" points="292.7,311.7 292.8,311.7 294.2,315.5 308.2,317.5 302.3,308.3 	"/>
</g>
</svg>
