<?xml version="1.0" encoding="utf-8"?>
<!-- Generator: Adobe Illustrator 17.1.0, SVG Export Plug-In . SVG Version: 6.00 Build 0)  -->
<!DOCTYPE svg PUBLIC "-//W3C//DTD SVG 1.1//EN" "http://www.w3.org/Graphics/SVG/1.1/DTD/svg11.dtd">
<svg version="1.1" id="flag-icon-css-lv" xmlns="http://www.w3.org/2000/svg" xmlns:xlink="http://www.w3.org/1999/xlink" x="0px"
	 y="0px" viewBox="0 0 640 480" enable-background="new 0 0 640 480" xml:space="preserve">
<g>
	<path fill="none" d="M0,313.2c-0.7,2.6-0.7,4.2-0.4,9.1c0.3,5.4,0.2,7.4-0.6,9.6c-1.3,3.7-1.3,5.9,0.9,13.3V313.2z"/>
	<path fill="#FFFFFF" d="M624.9,283.2c0.9-1.2,1.6-2.6,1.6-3.2c0-1.8-3.3-3.7-6.2-3.7c-2.3,0-2.8-0.3-4.1-2.4
		c-0.9-1.4-1.9-3.9-2.1-5.8c-0.3-1.9-0.9-4.2-1.3-5.2c-1.1-2.8-4.3-6.9-6.3-8.1c-2.4-1.4-2.4-2.9,0.4-8.7c1.4-2.9,2.1-5.4,2-6.5
		c-0.2-1.6-0.4-1.8-2.2-1.6c-1.7,0.1-2.5-0.4-4.9-2.8c-1.6-1.6-3.8-4.2-4.8-5.9c-1-1.6-2.3-3.2-2.8-3.4c-1.6-0.6-4.2-6.6-3.8-8.8
		c0.4-2.3-0.1-4.1-1.2-4.1c-1.4,0-2.9-2.3-2.3-3.6c0.4-0.6,1-2.3,1.4-3.8c0.7-2.4,0.6-2.9-0.8-5.7c-1.4-2.8-1.5-3.1-0.6-3.7
		c0.8-0.5,0.9-0.8,0.2-1.6c-0.7-0.9-0.4-1.2,2.8-2.9H292.3c-1,1.1-2,2.2-3.2,3.4c-7.4,7.6-13.6,12.3-19.9,15.4
		c-3.4,1.7-4.1,2.3-4.4,3.9c-0.7,3.3-4.2,5.5-12.8,8.3c-8.4,2.7-18.8,4.4-22.8,3.6c-2.1-0.4-2.7-1-5.3-5.1c-3.2-5-5.5-6.6-11.3-7.4
		c-3.6-0.5-6.8-2.3-9.4-4.9c-1.7-1.8-2.3-3.3-3.6-9c-0.6-2.7-1.5-5.9-2.2-8.3H42.6c-0.1,5.5-0.1,9.8,0,10.2c0.2,0.5-0.4,3.9-1.4,7.7
		l-1.8,6.8l-5.3,5c-2.9,2.8-5.7,5.8-6.3,6.7c-0.6,0.9-4.4,4.4-8.5,7.7c-4.1,3.3-7.9,6.7-8.4,7.5c-0.8,1.2-1,3.3-1,9.8
		c0,10.8-2.1,22.3-5.1,28.1l-2.1,3.9l0,2.6h621.7C623,286.3,623.2,285.6,624.9,283.2z"/>
	<path fill="#981E32" d="M196.8,189.7c-0.6-2.1-1.5-5.8-1.8-8.1c-0.4-2.5-1.4-6.1-2.6-8.4c-1.3-2.8-1.9-4.9-1.8-6.6
		c0.1-2.6,0.1-2.6-2.9-3.6c-1.6-0.6-5-2.3-7.5-4c-4.1-2.6-5.2-3.8-9.9-10.4c-3.5-5.1-6.3-8.3-8.5-10c-5.3-4-11.6-10.1-13.6-13.3
		c-1-1.6-2.3-4.4-2.9-6.3c-1-3.1-1-3.8-0.1-8.9c0.6-3,1-6.3,1-7.2v-1.7l-3.6,0.4c-4.4,0.6-10.8,3-17.4,6.8
		c-2.8,1.6-8.1,4.3-11.9,5.9c-3.8,1.8-9.6,4.6-12.8,6.3l-5.9,3.1h-6.7c-6.4,0-6.9,0.1-12.9,2.6l-6.1,2.6l-1,4.1
		c-1.9,7.7-6.6,16-10.2,18.4c-0.9,0.6-3.2,3.9-5.2,7.5c-1.9,3.6-4.8,8.2-6.4,10.4l-2.9,3.9l-0.4,14c-0.1,1.7-0.1,3.3-0.1,4.8h154.8
		C197.2,191.1,197,190.3,196.8,189.7z"/>
	<path fill="#981E32" d="M0.6,347.2c1.3,4.6,2.6,10.1,2.9,12.4c0.3,2.3,0.6,4.5,0.9,4.9c0.3,0.5,1.6,0.4,4.4-0.6
		c2.2-0.7,4.9-1.3,5.9-1.3c2.4,0,5.1-2.6,5.9-6c0.6-2.2,0.6-2.5-0.9-3.7l-1.6-1.3l3.3-1.4c2.4-1,4.1-2.3,5.8-4.6
		c1.9-2.4,3.6-3.8,7.4-5.6c2.6-1.3,4.8-2.6,4.8-2.9c0-0.3,1.1-1.8,2.6-3.4c2.1-2.3,2.9-2.9,4.6-2.9c1.4,0,2.6-0.6,4.1-2.1
		c2.6-2.7,3.9-3,9.2-2.3l4.1,0.6l3.3-2.4c5.3-3.9,6.6-4.4,12.4-4.4h5.3l1.9-2.4c4.1-5.1,3.9-4.9,10.6-5.3c5.9-0.3,6.2-0.2,9.1,1.6
		c3.1,1.9,6.7,2.4,15.4,2.3c1.6,0,5.7,0.2,9.3,0.4l6.4,0.4l3.5,3c4,3.4,8.3,5.1,9.9,3.8c0.9-0.8,12.3-0.6,14.1,0.3
		c0.8,0.3,1.6-0.6,3.7-4.1c1.5-2.5,2.7-4.6,2.8-4.7c0.1,0,1.1-0.3,2.3-0.5l2.2-0.4l1.1,5.2c1.3,6.1,3.4,9.6,6.4,10.6
		c1.9,0.7,2.4,0.5,5.9-1.6c2.1-1.3,4.2-3.1,4.6-4c0.9-1.6,1.3-1.8,7.6-2.5l6.7-0.8l3.5,2.1c8.1,4.9,12.1,5.4,18.5,2.1
		c3.7-1.9,5-2.3,8.4-2.3c5.1,0,5.9,0.5,5.3,3c-0.4,2.1,0.6,3.3,1.8,2.1c1-1,6.1-0.8,7.9,0.3c0.9,0.5,3.1,0.9,5,0.9
		c2.8,0,4,0.4,6.2,1.9c1.5,1.1,3.1,1.9,3.4,1.9c0.4,0,1.3,0.8,1.8,1.9c0.6,1,2.1,2.6,3.4,3.6l2.2,1.7l2.9-1.1
		c1.6-0.6,4.6-1.6,6.6-2.3c2-0.7,4.2-1.7,4.8-2.3c1-0.9,1.3-0.8,3,0.7c1.3,1.1,2.7,1.6,4.3,1.6c1.4,0,2.8,0.5,3.6,1.3l1.4,1.3
		l2.4-1.3c1.3-0.7,3.6-1.6,5.1-1.9c3.4-0.8,6.4-3.4,6.4-5.4c0-1,0.5-1.8,1.5-2.2c1.2-0.6,1.6-1.3,1.9-4.1c0.4-3.4,0.4-3.5,4.4-4.3
		c1.2-0.2,2.3-1,2.9-2.1c0.9-1.4,1.6-1.8,4.3-2.2c1.8-0.3,3.9-0.9,4.6-1.4c0.7-0.5,1.9-0.9,2.6-0.9c1.4,0,2.1-1.1,2.1-3.2
		c0-1.3,0.1-1.3,1.9-0.2c1.3,0.8,2.3,2.3,3.2,4.6c0.8,1.9,1.9,4.3,2.5,5.4c0.6,1,1.3,3.7,1.5,5.9c0.4,3.8,0.7,4.3,3.5,7.2
		c3.1,3.1,4.9,7.1,5.9,12.3c0.4,2,0.8,2.4,3.9,3.8c5.4,2.4,6.2,2.5,6.9,1.3c1.6-2.8,1.7-2.9,3.3-2.1c0.8,0.4,2.8,2.1,4.4,3.6
		c2.9,2.7,3.1,2.8,6.2,2.3c2.3-0.3,4.6-0.1,7.8,0.8l4.6,1.1l1.9-1.8l1.8-1.8l2.6,2.3c2.8,2.6,4.3,2.8,7.7,1.4
		c1.3-0.5,2.4-0.9,2.6-0.9c0.1,0,0.4,1.8,0.7,3.9c0.6,5.1,1.7,6.6,5.9,8.4c2.3,1.1,5.2,3.3,8.8,6.7c4.1,3.9,6.7,5.9,11.1,8.1
		c3.3,1.6,6.1,3.5,6.5,4.3c2.8,5.4,5.3,8.1,10.6,11.1c5.4,3.1,5.5,3.2,6.2,6.4c0.4,1.8,1.8,4.9,2.9,7.1c1.6,2.9,2.7,4.1,4.6,4.9
		c2.9,1.3,5.4,3.7,6.3,6.2c0.6,1.6,0.8,1.8,3.1,1.4c2.6-0.4,5.1,0.4,8.4,2.7c1.1,0.7,2.9,1.4,4.3,1.7c2.1,0.3,3.2,0,7.8-2.3l5.3-2.8
		l2,1.1c1.1,0.7,2.7,1.6,3.6,2.1c1.5,0.9,1.7,0.8,3.8-1.2c1.2-1.1,3.1-2.8,4.3-3.6c1.7-1.3,2.2-2.3,2.7-4.9c0.5-3,1.1-4,5.1-8.3
		c4.1-4.4,4.7-4.9,6.9-4.9c2.8,0,5.1-1.1,7.3-3.4c2.7-2.9,4.6-2.3,11.3,3.7l5.9,5.2l3.9-2.8l3.9-2.8l3.3,1.8
		c2.9,1.5,4.2,1.8,10.3,1.9l6.9,0.3l1.1-2.6c0.6-1.6,1-4.4,1-7.1c0-4.9,2.3-14.7,4.1-17.8c1.5-2.6,3-3.4,6.9-3.8
		c3.3-0.4,3.4-0.4,3.4-2.3c0-1.3,0.6-2.6,1.9-3.9c1.9-1.9,1.9-1.9,0.6-3.1c-1.6-1.4-1.6-2.2-0.1-2.2c0.6,0,1.8-0.7,2.6-1.6
		s1.9-1.6,2.5-1.6c0.6,0,2.4-1.9,4.3-4.6c3.7-5.3,4-5.6,7.2-6.8c1.3-0.4,2.3-1.2,2.3-1.6c0-0.4,0.9-0.9,1.9-1.2
		c1.1-0.3,1.9-0.8,1.9-1.3c0-0.4,0.9-1.3,2.1-1.9c3.4-1.8,4.8-3.4,5.5-6.9c0.7-2.9,0.6-3.5-0.3-4.4c-0.9-0.9-0.8-1.3,1.3-5.1
		l2.3-4.1l-3.6-7c-3.7-7.4-4.4-11.3-2.8-14.8c0.7-1.4,0.4-1.9-2.1-4.9c-1.5-1.8-3-4.2-3.2-5.3c-0.3-1.1-1.1-2.7-2-3.6
		c-0.2-0.2-0.3-0.4-0.5-0.5H2.7l0,7.4c-0.1,9.1-0.3,10.4-1.8,15c-0.4,1.1-0.7,2-0.9,2.8v32C0.2,345.9,0.4,346.5,0.6,347.2z"/>
	<path fill="#981E32" d="M590.1,192l3.7-1.8l0.8-5.3c0.4-2.9,1.4-7.5,2.1-10.3l1.3-5.1l-1.3-3c-1.2-2.8-1.6-3.1-4.1-3.8
		c-2.3-0.6-2.9-1-4.1-3.4c-1.2-2.3-2-3-5.3-4.5c-2.1-0.9-5-2.8-6.4-4.2c-2.3-2.2-3.8-2.9-10.8-4.8c-1.3-0.3-0.9-4,0.8-8.1
		c2.1-5.1,2.1-7.4-0.1-8.8c-1.6-1.1-1.8-1.1-5-0.1c-1.8,0.6-4.6,1.1-6.3,1c-1.7-0.1-3.9,0.1-5.1,0.4c-1.6,0.3-2.6,0.1-4.6-1.3
		c-1.8-1.3-3.8-1.8-7.3-2.3c-5.6-0.6-6.7-0.9-9.2-2.8c-1.1-0.8-2.8-1.6-3.9-1.8c-1.1-0.3-2.6-1.1-3.2-1.9c-1.1-1.3-1.3-1.4-3.1-0.6
		c-2.6,1.1-5.5,0.1-6-2c-0.6-2.5-1.8-1.9-4.4,2.4c-2.1,3.4-3.7,4.3-7.4,4.3c-2.3,0-3.4,0.5-6.6,2.9c-2.9,2.2-4.1,3.6-4.5,5
		c-0.4,1.6-0.9,2.1-2.1,2.1c-1,0-1.7-0.4-2.1-1.4c-0.5-1.3-0.5-1.3-1.7-0.1c-0.6,0.7-1.5,1.8-1.8,2.4c-1.1,1.9-4,0-5.3-3.6
		c-0.6-1.7-1.4-3.4-1.8-3.8c-0.4-0.4-2.6-1-4.9-1.2c-2.9-0.3-4.8-0.9-6.4-1.9c-1.3-0.8-3.1-1.9-4.1-2.3c-1.1-0.5-2.3-1.9-2.9-3.1
		c-0.6-1.2-1.9-4.1-3-6.3c-1.1-2.3-3.4-6.1-5.3-8.4l-3.3-4.3l-5.1-1.2l-5.1-1.2l0.4-4.1c0.2-2.3,0.8-4.6,1.3-5.1
		c0.9-1,1.1-3.6,0.4-6.1l-0.4-1.4l-2.1,1.6c-5.4,3.9-17,0.2-18.2-5.9c-0.4-2.3-4.4-3.3-7-1.8c-1.8,1.1-1.8,1-5.9-1.8
		c-2.4-1.6-4.4-3.5-4.9-4.5c-0.6-1.5-1.5-2-5.6-3.2c-4.6-1.3-4.9-1.5-5.9-4.1c-0.8-1.8-2.3-3.6-4.5-5.3c-1.9-1.4-4.2-3.4-5.2-4.5
		c-2.1-2.3-5-2.6-5.9-0.8c-0.5,0.9-0.3,1.6,1.2,3.3c2.3,2.6,2.6,6.7,0.7,9.1l-1.2,1.5l-1.9-3.1c-1.1-1.7-2.1-4.3-2.3-5.6
		c-0.9-5.4-4.1-6.9-10.1-4.6c-2.5,1-2.7,1.3-4.3,5.9l-1.7,4.9h-4.2c-3.6,0-4.8,0.3-7.9,2c-3,1.6-3.9,1.9-5.3,1.3
		c-0.9-0.3-2.7-0.5-4-0.3c-2,0.3-2.8,0.8-4.9,3.6c-2.3,3.1-2.7,3.3-4.1,2.7c-1.3-0.5-1.9-0.4-3.1,0.8L317,74l-1.8-1.8l-1.8-1.7
		l-4.9,2.4c-4.8,2.3-4.9,2.4-5.4,5.2c-0.8,3.8-1.9,5.1-4,4.3c-0.8-0.3-2.3-0.6-3.3-0.6c-1.7,0-1.8,0.1-2.1,3.9
		c-1.1,13.8-0.5,25.3,1.9,35c1,3.9,1,4.3,0,5.8c-1.3,2-1.4,7.4-0.2,10.8c0.4,1.4,1,5.1,1.3,8.4s0.9,7.1,1.4,8.6
		c0.6,1.7,0.9,5.3,0.9,10c0,5.5,0.3,7.7,0.9,8.6c0.5,0.6,0.9,2.6,0.9,4.3c0,3.9-2.4,8.2-8.4,14.8L590.1,192
		C590,192,590,192,590.1,192z"/>
</g>
</svg>
