<?xml version="1.0" encoding="utf-8"?>
<!-- Generator: Adobe Illustrator 17.1.0, SVG Export Plug-In . SVG Version: 6.00 Build 0)  -->
<!DOCTYPE svg PUBLIC "-//W3C//DTD SVG 1.1//EN" "http://www.w3.org/Graphics/SVG/1.1/DTD/svg11.dtd">
<svg version="1.1" id="flag-icon-css-ly" xmlns="http://www.w3.org/2000/svg" xmlns:xlink="http://www.w3.org/1999/xlink" x="0px"
	 y="0px" viewBox="0 0 640 480" enable-background="new 0 0 640 480" xml:space="preserve">
<g>
	<path fill="#239E46" d="M415.7,410.6c76.6,36.5,139.4,66.3,139.8,66.3s0.4-0.5,0.3-1.2c-0.2-0.6-0.4-3.4-0.6-6.1
		c-0.2-3.8-0.2-4.9,0.4-4.9c11-0.2,35.1-1.1,35.3-1.3c0.1-0.1-2.1-42.9-5.3-103.4H309.5L415.7,410.6z"/>
	<path fill="#239E46" d="M203.9,365.1c5.7,4.2,10.7,7.8,11,8.1c0.4,0.3,11.5-4.8,28.9-13.2h-47C198.8,361.4,201.3,363.2,203.9,365.1
		z"/>
	<path d="M573,127l-4.3-5.5l-1.2-1.5h-509c0,0.1,0.1,0.2,0.2,0.3c2.7,5.6,7.5,19.5,8.7,25.2c0.9,3.9,0.8,4.3-0.5,18.5l-1.4,14.4
		l1.4,4.3c0.7,2.3,1.5,5.6,1.8,7.2c0.4,2.6,0.4,3.2-0.5,4.7c-0.6,1-1.1,2.7-1.1,3.9c0,1.8-0.3,2.4-1.7,3.4c-1.4,1.1-1.7,1.7-1.9,4.2
		c-0.3,3.7,1.7,13.3,3.2,15.4c1.1,1.4,1.1,1.7,0.5,5.8c-1,6.5-1,6.5-4.9,9.6c-3.3,2.6-4,2.9-6.3,2.9h-2.5l-2.7,4.2
		c-1.5,2.4-2.7,4.3-2.7,4.5c0,0.1,4.8,7.2,10.6,15.7l10.6,15.5v4.2c0.1,5.9,0.6,8.3,2.5,10.7c1.4,1.6,1.7,2.5,1.7,4.6v2.5l3.8,1.9
		l3.8,1.9l3.2-1.4c3.9-1.6,3.8-1.6,4.2-0.4c0.3,1.2,4.8,1.9,6.4,1c0.7-0.4,1.9-0.4,3.7,0.1c2.5,0.6,2.9,0.8,4.5,3.5
		c1,1.5,2.1,3,2.7,3.1c0.5,0.1,4.9,0.9,9.8,1.7c8.6,1.4,8.9,1.5,9.4,2.9c0.4,1.3,0.2,2-1.6,4.9l-2.1,3.5l7.3,9.2
		c4,5,7.5,9.4,7.8,9.8c0.3,0.3,12.9,3.4,27.9,6.7c15,3.4,27.8,6.4,28.4,6.6c0.3,0.1,2,1.3,4.4,3h47c0.7-0.3,1.5-0.7,2.2-1.1
		l30.4-14.7l33,15.7h275.9c-1.1-20-2.2-41.9-3.5-64.9L573,127z M277.6,282.4c-23.4-23.4-23.4-61.4,0-84.9
		c23.4-23.4,61.4-23.4,84.8,0c-23.4-16.7-56-11.3-72.7,12.2c-16.7,23.4-11.3,56,12.2,72.7c18.1,12.9,42.4,12.9,60.6,0
		C339,305.9,301,305.9,277.6,282.4z M429.9,266.2l-30.8-10L380,282.4V250l-30.8-10l30.8-10v-32.4l19.1,26.2l30.8-10L410.9,240
		L429.9,266.2z"/>
	<path fill="#E70013" d="M564.4,116.1l0.3-3.2c0.2-1.7,0.3-3.8,0.4-4.5c0.1-0.7-1-4.1-2.4-7.5c-2.4-6.1-2.4-6.2-1.9-9.8
		c0.4-3.1,1.1-4.5,4.5-10.1l4-6.5l-2.4-3.9c-2.3-3.7-2.5-4.5-4-12.5l-1.6-8.4l4.5-4.3c2.5-2.3,4.6-4.7,4.8-5.3
		c0.3-1-1.5-3.1-3.7-4.2c-0.7-0.4-1.2-1.2-1.3-2.3c-0.2-1.6-0.3-1.7-3.1-2c-1.6-0.2-4-0.7-5.2-1.2c-2.1-0.8-2.7-0.8-5.4-0.1
		c-1.7,0.4-5.7,0.8-9,0.9c-5,0.1-6-0.1-6.5-0.8c-0.3-0.5-0.9-0.8-1.4-0.8s-2.7-0.6-4.9-1.4c-3.4-1.3-5-1.4-12.6-1.7
		c-7.4-0.3-8.7-0.5-9.3-1.3c-0.4-0.5-1.4-0.9-2.2-0.9c-2.1,0-2.7-0.5-3.3-2.8c-0.6-2-0.5-2.1,0.7-1.7c1,0.3,1.3,0.2,1.3-0.7
		c0-0.5-0.4-1.3-0.8-1.6c-0.4-0.4-0.8-1.5-0.8-2.4c0-2.1-0.6-2.4-5.9-3.4c-3.9-0.7-14.6-4.1-15.7-5c-0.4-0.3-2.7-0.6-5-0.6
		c-3.8-0.1-4.3-0.2-5.1-1.3c-0.8-1.1-1.1-1.1-2.7-0.6c-1,0.3-4.8,0.7-8.4,0.8L453.4,5l-2.5,2.1c-3.1,2.7-4.6,3.2-9.2,3.7
		c-2,0.2-4.9,0.7-6.4,1.2c-4.2,1.2-13.4,6.4-17.4,9.9c-2,1.7-4.5,3.6-5.6,4.1c-1.5,0.7-2.8,1.9-4.6,4.7c-1.4,2.1-3.2,4.7-4.2,5.9
		c-2.9,3.6-4.1,6.6-4.4,10.6c-0.2,3.5-0.1,4,1.7,7.6c1.1,2.1,1.9,4.3,1.9,5c0,0.8,0.8,2,2.4,3.4l2.4,2.1v3.9c0,5.5-1.7,9.9-6.4,16.3
		c-4.7,6.4-8.6,10.5-11.3,11.9c-1.2,0.6-4.8,2-8,3.1c-4.6,1.5-6.2,1.9-7.2,1.5c-0.7-0.3-2.8-0.7-4.7-1c-2.2-0.3-4-1-5-1.7
		c-1-0.7-2.4-1.5-3.3-1.7c-0.8-0.2-2.8-1.4-4.2-2.6c-1.4-1.2-3.8-3-5.3-4c-1.4-1-3.6-2.6-4.8-3.6c-3.1-2.7-8.1-5.4-9.9-5.4
		c-1.5,0-3.7-1.6-3.7-2.7c0-0.3-0.7-0.5-1.6-0.5c-2.4,0-7.7-1.5-10.6-3c-1.4-0.7-3.3-1.3-4.2-1.3c-2.4,0-7.9-1.5-9.8-2.7
		c-2-1.2-6.5-1.9-19.3-2.9c-5.4-0.4-11-1-12.6-1.3c-2.9-0.6-9.7-3.9-15.1-7.4l-3.3-2.1l-2.9-7.3c-2.7-6.9-2.9-7.7-3.2-13.2
		c-0.4-7.5-1-8.9-4.8-9.7c-1.5-0.4-4-0.6-5.5-0.6c-3.1,0-8.1-0.8-11.6-1.9c-1.4-0.4-3.2-0.7-4-0.7c-1.6,0-7.2-4-9.2-6.5
		c-0.8-1.1-1.7-1.4-4.1-1.7c-1.7-0.2-3.9-0.7-4.9-1.1c-2.5-1-7.6-1.8-10.8-1.8c-2,0-3.3-0.4-5.7-1.9c-4-2.3-5.7-2.4-14-0.1
		c-5.7,1.5-7.1,1.7-12.8,1.6l-6.5-0.1l-11-5.6c-10.8-5.5-12.6-6.3-13.7-5.9c-0.3,0.1-1.4,0.3-2.6,0.5c-2.8,0.5-4.6,2.3-4.6,4.8
		c0,1-0.5,3.3-1.1,5.1c-1.3,3.7-1.1,6.2,0.6,7.7c2.9,2.6,2.4,5.4-1.2,6.6c-1.1,0.4-3,1.4-4.1,2.4c-1.1,0.9-4.6,2.9-7.7,4.4
		c-4.2,2.1-6.4,3.6-8.6,5.7c-1.6,1.6-3.3,2.9-3.8,2.9c-1.5,0.1-3.1,1.7-4.5,4.5c-1.1,2.3-1.5,2.7-4.5,3.7c-5.9,2.2-7.4,3.2-8.4,5.6
		c-1.5,3.9-1.1,8.2,1.3,14l2.2,5.2l-0.6,4.6c-0.5,4-0.8,4.8-2.3,6.4c-1,1-2.5,3-3.4,4.5c-2.6,4.2-4.7,5.9-7.8,6.4
		c-1.4,0.2-5.2,1.3-8.4,2.4c-4.8,1.6-6.2,2.4-8.1,4.3l-2.2,2.3l1.8,5c0.9,2.6,2.6,6.8,3.8,9.5h509L564.4,116.1z"/>
	<path fill="#FFFFFF" d="M301.9,282.4c-23.4-16.7-28.9-49.3-12.2-72.7c16.7-23.4,49.3-28.9,72.7-12.2c-23.4-23.4-61.4-23.4-84.8,0
		c-23.4,23.4-23.4,61.4,0,84.9c23.4,23.4,61.4,23.4,84.9,0C344.3,295.4,320,295.4,301.9,282.4z"/>
	<polygon fill="#FFFFFF" points="399.1,223.8 380,197.6 380,230 349.2,240 380,250 380,282.4 399.1,256.2 429.9,266.2 410.9,240 
		429.9,213.8 	"/>
</g>
</svg>
