<?xml version="1.0" encoding="utf-8"?>
<!-- Generator: Adobe Illustrator 17.1.0, SVG Export Plug-In . SVG Version: 6.00 Build 0)  -->
<!DOCTYPE svg PUBLIC "-//W3C//DTD SVG 1.1//EN" "http://www.w3.org/Graphics/SVG/1.1/DTD/svg11.dtd">
<svg version="1.1" id="flag-icon-css-ma" xmlns="http://www.w3.org/2000/svg" xmlns:xlink="http://www.w3.org/1999/xlink" x="0px"
	 y="0px" viewBox="0 0 640 480" enable-background="new 0 0 640 480" xml:space="preserve">
<path fill="#C1272D" d="M618.5,185.9c-11.8-8-14-10.2-15-14.1c-0.4-1.8-0.5-4.3-0.3-6.3c0.4-3.1,0.3-3.5-1.2-5.5
	c-0.9-1.2-2.4-3.4-3.3-4.7c-0.9-1.4-2.1-2.7-2.8-3.1c-1.9-1.1-2.3-7.4-0.7-11.6c0.7-1.8,1.2-4.3,1.2-5.4c0-2.3-3-8.1-4.5-8.7
	c-0.7-0.2-0.9-1.2-0.8-3.4c0-1.7-0.2-5.1-0.4-7.4c-0.2-2.5-0.1-6.1,0.4-8.7c0.8-5.4,0.4-7.6-3.1-14.2c-1.2-2.4-2.2-4.9-2.2-5.6
	s0.7-2.2,1.6-3.5l1.6-2.4l-4-3.7l-4-3.6l1.8-3c1-1.7,2-3.6,2.2-4.4c0.4-1.4,0.1-1.7-3.6-3.2c-3.7-1.5-5.3-2.8-7.3-6.2
	c-0.7-1-2.1-1.9-4.7-2.7c-3.7-1.2-3.8-1.3-4.7-4.2l-0.9-3l-5.3-1.9l-5.3-1.9l-1.2,1.4c-0.8,0.8-2.5,1.7-4.4,2.1
	c-2.8,0.6-3.5,0.5-9.4-1.4c-3.5-1.1-6.7-2.3-7.1-2.5c-0.4-0.3-0.9-1.5-1.1-2.8c-0.2-1.2-0.9-4.2-1.5-6.4c-0.7-2.3-1.4-4.6-1.5-5
	c-0.2-0.5-1.3,1.1-2.6,3.7c-1.9,3.7-2.6,4.6-3.7,4.6c-0.8,0-2.4,1.1-4,2.7l-2.7,2.7l-5.6-0.4c-4.2-0.2-6.9-0.8-10.6-2.1
	c-4.6-1.7-5-1.8-6.4-0.9c-0.8,0.5-1.7,1.6-2,2.4c-0.5,1.2-0.9,1.4-3.3,1.4c-2.2,0-2.7-0.2-2.7-1.2c0-0.9-0.4-1.2-2-1.2
	c-1.1,0-3,0.5-4.3,1.2c-1.3,0.7-2.8,1.2-3.5,1.2c-0.7,0-2.7,0.7-4.4,1.6c-4,1.9-8.4,1.9-16,0.1c-8.1-2-10.8-3-12.7-4.7
	c-0.9-0.9-4-3.1-6.8-4.9c-5.3-3.4-14.6-12.1-15.7-14.6c-2.6-5.9-3.4-12.1-1.8-14.3c0.5-0.7,0.9-1.5,0.9-1.7c0-0.4-3.5-1.9-3.8-1.7
	c-0.1,0-1,0.3-2.1,0.7c-1.1,0.3-3,1.5-4.1,2.5c-2.4,2.3-4.6,3.3-7.6,3.3c-1.2,0.1-2.8,0.4-3.7,0.9c-0.8,0.5-3.1,0.8-5.1,0.9h-3.7
	l-0.7,4c-0.9,5.9-2.7,11.3-6.2,20c-1.7,4.2-3.3,9-3.5,10.6c-0.2,1.6-1.6,5.3-3,8c-1.5,3-3.1,7.4-3.8,10.6c-1.4,6.1-2,7.3-7.2,16.4
	c-2,3.4-6.5,11.7-10.2,18.4c-7.8,14.4-11.9,19.6-17.7,22.5c-2,1-4.2,2.2-5,2.8c-0.8,0.6-3.2,1.8-5.3,2.7c-2.1,0.9-4.8,2.5-5.9,3.5
	c-1.1,1.1-3,2.2-4.1,2.6c-1.1,0.4-2.9,1.3-4,2.1c-1.2,0.9-2.7,1.5-4,1.5c-1.6,0-3.1,0.7-6.1,3c-2.2,1.6-4.4,3-4.9,3
	c-0.5,0-3.7,1.2-7.3,2.7c-3.5,1.5-7.9,3.1-9.6,3.5c-2.1,0.5-4.3,1.8-7.2,4.1c-2.5,2.1-4.7,3.3-5.6,3.3c-1.8,0-5.1,3.4-7,7.2
	c-0.7,1.4-2.8,4.1-4.7,6.1c-1.8,2-5.1,5.6-7.2,8c-4.4,5.1-8.9,9.5-15.5,14.8l-4.6,3.8l0.3,3c0.2,1.6,0,4.2-0.4,5.8
	c-0.5,2-0.4,3,0.1,3.5c1,1,0.2,8.7-1.2,10.6c-0.6,0.9-1.5,2.7-2,4.1c-0.6,1.6-2.4,4.1-4.9,6.7c-5.2,5.4-12.2,14.4-12.8,16.3
	c-0.2,0.8-0.9,2.3-1.5,3.3c-0.5,1-1.4,2.8-1.8,4.1c-0.4,1.2-1.6,3.7-2.7,5.4c-1.7,2.7-1.8,3.5-1.6,6.1c0.2,1.7-0.2,4.6-0.8,7.1
	c-1.1,4.3-1.1,7.9,0.1,19.9c0.4,4,0.3,4.4-1.5,7.5c-1.3,2.2-1.8,3.9-1.7,5.2c0.2,1.7,0.4,2,2.1,2.1c1.4,0.1,2.7,1,5,3.5
	c3.1,3.4,6.1,9.1,5.6,10.5c-0.1,0.4-0.7,3.7-1.2,7.4c-1.7,11.2-7.6,22.6-13.9,26.8c-3,2-7.6,8.7-8.7,12.9
	c-0.8,2.8-4.6,7.9-10.2,13.8c-2.5,2.6-6,6.7-7.8,9.2c-5.5,7.4-7.4,8.9-17.9,13.7c-5.2,2.3-11.1,5.4-13.1,6.9
	c-4.7,3.3-15,13.6-17.9,17.9c-3.4,5-6.4,6.9-20.4,12.8c-8.1,3.5-15.1,5.4-23.9,6.7c-2.4,0.4-7.2,1.3-10.5,2.1
	c-3.7,0.8-8,1.4-10.7,1.4c-5.2,0-10.4,0.8-14.1,2.2c-2,0.8-2.8,1.5-4.3,4.1c-1.9,3.3-4.7,6.1-7.7,7.6c-1.5,0.8-3,2.5-3,3.4
	c0,0.1,7.1,0.4,15.8,0.6c8.7,0.2,32.3,1.2,52.4,2.2c37.2,1.8,161,5.5,161.8,4.8c1.1-0.9,1.7-23.8,1.1-39.4
	c-0.4-8.8-0.7-16.7-0.7-17.5c0-1.3,0.8-2.1,4.9-4.7c2.7-1.7,7-5,9.6-7.3c2.6-2.3,5.9-5,7.4-6c1.5-1,3.1-2.4,3.8-3
	c0.6-0.7,2.4-1.7,4.1-2.2c1.8-0.6,4.4-2.2,6.4-4c2-1.7,4.9-4.3,6.6-5.8c1.7-1.5,3.7-2.9,4.5-3.1c0.7-0.2,2.6-1.4,4.1-2.5
	c2.5-1.8,3.5-2.1,7.3-2.4l4.4-0.4l3-3.7c2-2.5,4.7-4.9,8.3-7.4l5.4-3.6l4,1.5c2.5,1,5.1,1.5,7.2,1.5c1.8,0,5.8,0.7,8.9,1.5l5.6,1.4
	l1.9-1.8c2.1-2.1,3.7-7.4,3.7-12.1v-2.7l1.7,0.9c2.2,1.1,10.5,0.8,13-0.5c1.4-0.7,2.7-0.9,5-0.6c2.3,0.2,4.6-0.1,8.8-1.2
	c3.1-0.8,8.5-1.8,12.1-2.1c4.7-0.5,6.7-0.9,7.6-1.7c0.7-0.7,3.2-2.4,5.7-4c3.4-2.1,5.6-4.1,8.3-7.6c6.6-8.2,11-14.7,12.6-18.4
	l1.6-3.7l6.9-2.8c3.8-1.5,7.9-3.5,9.2-4.3c2-1.2,2.7-1.4,5.4-1l3.1,0.4l2.9-3.1c2.2-2.3,3.8-3.4,6.4-4.3c3.2-1.1,3.7-1.6,6.1-5.3
	l2.7-4l9.7-2c8.6-1.8,9.9-2.2,11.5-3.7c1.6-1.6,1.7-2,1.2-4.3c-0.4-2.1-0.8-2.6-2-2.7c-0.8-0.1-2.3-1.1-3.3-2.3l-1.9-2.2l-2,1.7
	l-2,1.7l-0.2-1.4c-0.2-0.8,0.2-1.7,0.8-2.2c0.9-0.7,0.9-1.1,0.3-4.1l-0.8-3.3l1.8-1.9c1-1.1,1.8-2.1,1.8-2.3s-1.1-0.9-2.4-1.6
	l-2.4-1.2v-6.1c0-6.2,0.2-6.7,2.7-8.8c1.1-0.9,1.5-0.9,4.7-0.2c5,1.2,9.4,1.1,12-0.2c3.3-1.7,8.3-3.6,11.9-4.6
	c4-1.1,7.5-2.8,9.5-4.7c1.5-1.4,1.5-1.7,1.2-5.3c-0.3-3.7-0.2-3.9,1.7-5.9c1.4-1.4,2.6-2.1,4.7-2.4c1.5-0.2,7-1.3,12.2-2.5l9.5-2.1
	l10.9,0.7c6,0.4,19,0.7,28.8,0.7h18l-0.4-2c-0.2-1-1.1-3.4-1.9-5.3c-1.2-2.7-1.5-4-1.2-6.3c0.5-4.1,1.2-5.1,4-5.6
	c2-0.4,2.7-0.9,4.1-3c1-1.4,1.8-2.7,1.8-2.8C627.2,192,623.3,189.2,618.5,185.9z"/>
<path fill="none" stroke="#006233" stroke-width="11.7" d="M360.7,163.6l-35.6,109.6l93.2-67.6H303.1l93.2,67.6L360.7,163.6z"/>
</svg>
