<?xml version="1.0" encoding="utf-8"?>
<!-- Generator: Adobe Illustrator 17.1.0, SVG Export Plug-In . SVG Version: 6.00 Build 0)  -->
<!DOCTYPE svg PUBLIC "-//W3C//DTD SVG 1.1//EN" "http://www.w3.org/Graphics/SVG/1.1/DTD/svg11.dtd">
<svg version="1.1" id="flag-icon-css-mc" xmlns="http://www.w3.org/2000/svg" xmlns:xlink="http://www.w3.org/1999/xlink" x="0px"
	 y="0px" viewBox="0 0 640 480" enable-background="new 0 0 640 480" xml:space="preserve">
<g>
	<path fill="#F31830" d="M504,56.5l-2.7-1.8l0.4-5.3c0.4-6.6,0.4-7.5,0-15.4c-0.4-6.2-0.3-6.5,0.8-9.1c1.9-4.4,1.9-5.2,0.2-7.8
		c-2.1-3.3-5.6-6.4-9.6-8.4c-1.9-1-4.8-2.7-6.4-3.8c-1.6-1.1-3.1-2-3.3-2c-0.2,0-0.8,0.4-1.3,0.8c-0.6,0.4-1.3,1.9-1.7,3.3l-0.7,2.5
		l2.2,2.1c1.2,1.2,2.8,3.1,3.5,4.2l1.3,2l-1.3,3c-1.2,2.8-1.9,3.6-9.5,10.5l-8.2,7.5l-6.3-0.3l-6.4-0.3l-3.2,3.2
		c-6.1,6-5.2,5.6-15.7,6l-9.2,0.3l-4.7,2.9c-2.6,1.6-6.2,3.5-8.2,4.2c-3.3,1.2-3.8,1.3-8.9,1c-3-0.1-5.8-0.3-6.1-0.4
		c-0.4-0.1-1.2,1.8-2.5,6.4c-1,3.6-2,6.6-2,6.6c0,0.1-1.5,0.5-3.2,1l-3.1,0.7l-4.1,10c-3.4,8.5-4.6,10.8-7.7,15.3l-3.6,5.3l-0.3,9.8
		l-0.2,9.8l-2.2,4.4c-1.2,2.4-2.7,5.9-3.3,7.7c-0.6,1.8-1.9,5.4-2.9,8.1c-1.6,4.1-2.3,5.3-4.5,7.6c-1.4,1.5-4.4,4.1-6.6,5.7l-4,3
		l-3.1,6c-2.9,5.8-3.2,6.1-11,14.4c-7.3,7.7-8.1,8.4-9.9,8.6c-1.8,0.3-2,0.6-4.6,4.5c-1.5,2.3-2.9,4.1-3.1,4.1
		c-0.2,0-4.4-2.7-9.3-5.9l-8.8-5.9l-4.6,2.8c-2.5,1.5-5.2,3.2-6,3.6c-0.8,0.4-3.2,2.4-5.2,4.4c-4.1,4-4.4,4.7-3,7.7l0.8,1.7
		l-4.2,4.2c-5.7,5.8-10,8.7-13.3,9.1l-2.5,0.3l-26.6,23.3c-0.1,0.1-0.3,0.2-0.4,0.3h151.5c0.1-0.7,0.4-1.3,0.8-1.7
		c0.6-0.5,1.2-2.2,1.7-4.4c0.4-2,1-4.6,1.4-5.8c0.4-1.3,0.7-3.2,0.7-4.2c0-1.1,0.4-3,0.9-4.4c0.5-1.3,0.9-3.2,0.9-4.2
		c0-0.9,0.5-3.8,1.1-6.4c0.7-2.6,1.9-8.4,2.8-13c1.7-9,2.6-11.3,5.7-16c1.1-1.7,2.8-4.9,3.7-7.2c1.9-4.6,5.3-9.3,10.2-13.9
		c2.7-2.5,3.1-3.2,4.4-7c1.3-3.6,1.5-4.7,1.4-8.5c-0.1-4.1,0-4.3,1.4-6.3c1.1-1.5,2.3-2.5,4.2-3.3c1.6-0.7,3.2-2,4-3
		c0.8-1,1.4-1.9,1.4-2c0-0.1-0.6-0.3-1.3-0.5c-0.9-0.2-1.8,0.2-3.5,1.6c-2.8,2.3-3.6,2.3-3.6,0.2c0-3.2,1-6.7,3-10.8
		c2.6-5.1,4.7-7.3,8.3-8.6c3.3-1.2,5.1-1.2,6.1,0c0.7,0.8,2.1,1.3,2.1,0.7c0-0.1-0.4-1-0.9-2c-0.5-1-0.9-2-0.9-2.3s2.2-2.3,4.9-4.4
		c2.7-2.1,5.3-4.2,5.9-4.7c1-0.8,9.3-3.1,11.3-3.1c0.6,0,1.2,0.2,1.3,0.5c0.6,0.9-1.1,4.4-2.6,5.2c-0.7,0.5-1.6,1.3-1.9,1.8
		c-0.4,0.7-0.3,0.9,0.5,0.9c0.6,0,1.8-0.2,2.8-0.6c1.6-0.5,1.9-0.8,2.8-3.3c0.8-2.3,1.3-2.9,2.7-3.6c1-0.5,1.9-1.2,2-1.6
		c0.3-0.8-1-1.4-1.7-0.7c-1.1,1.1-2.5,0.5-3.5-1.6l-1.1-2l1-1.7c0.6-0.9,2.3-2.8,3.9-4.3c2.6-2.3,3-2.6,5-2.6h2.2l4.6,8.2l4.6,8.3
		l3.9,2.7c3.2,2.1,4.5,2.7,6.9,3.2l3.1,0.5l6-2.2l5.9-2.2l0.2-1.9c0.1-1.5-4.8-33.7-6-38.7C506.7,58.7,505.4,57.4,504,56.5z"/>
	<path fill="#FFFFFF" d="M186.2,281.6l-21.9,18.6v2.1c0,1.2,0.6,4,1.3,6.3l1.3,4.2l-2.3,2.1c-2.3,2-2.3,2.1-2.3,4.8
		c0,2.4,0.3,3.3,2.5,7.4l2.5,4.7l-0.9,2.3c-0.7,1.8-1.1,4.4-1.4,10.9c-0.4,6.8-0.7,8.7-1.3,9.2c-0.4,0.3-2.6,0.7-4.9,0.8
		c-3.1,0.3-4.6,0.6-5.5,1.3c-0.9,0.7-3.1,1.3-6.4,1.8l-5,0.8l-4.3,3.4c-4.1,3.2-4.7,4-13.2,15.7c-4.9,6.7-8.8,12.6-8.8,12.9
		s8.8,6.5,19.5,13.8c19.3,13,19.9,13.4,58,43.7l38.5,30.6l1.7-1.5c1-0.8,8.4-7.8,16.6-15.4l14.8-14l19.4-12
		c10.6-6.6,19.4-12.2,19.4-12.6c0.1-0.3,0-0.9-0.3-1.2c-0.3-0.5-2.6,0.5-9.7,4.3c-5.1,2.7-9.5,4.9-9.7,4.9c-0.4,0-1.7-1.7-7.7-9.9
		c-3.1-4.2-3.1-4.4-3.2-7.1c0-2.4,0.1-3,1-3.5c0.7-0.5,0.9-0.9,0.7-1.5c-0.3-0.7-1.2-0.8-14.2-0.5l-13.8,0.3L246,406
		c-0.9-3.7-1.1-3.8-5.7-3.8h-2.9v-7.9v-7.9l1.9-0.5c1-0.2,2.7-0.7,3.7-0.9c1.9-0.5,2.6-1.1,2.1-1.8c-0.1-0.2-3.6,0-7.8,0.4
		c-10.8,1.2-10.4,1.2-11.5-0.9l-0.9-1.8l6.5-5.6c3.6-3,6.7-5.6,6.8-5.6c0.2-0.1,1.7,0.9,3.4,2.1c2.4,1.8,3.2,2.6,3.4,3.8l0.3,1.6
		l1.3-1.5l1.2-1.5l2.2,1.2c2.1,1.2,2.2,1.4,4.4,6.8c1.8,4.4,2.6,5.8,4,6.9l1.6,1.3l3.2-2c3.9-2.6,7.2-3.7,9.3-3.3
		c1.6,0.3,1.8,0.6,2.4,3.8c0.3,1.8,3.1,5.9,5.3,8c0.6,0.6,2,1.2,3,1.3c2.5,0.4,6.2,1.6,6.5,2.1c0.1,0.2-0.3,2.9-0.9,6
		c-0.7,3.2-1.2,5.8-1.2,5.9s0.6-0.1,1.3-0.5c1.1-0.6,1.4-1.3,2.7-6.4l1.4-5.8l5.3,0h5.3l4.2-2.2c2.3-1.2,6-3.7,8.1-5.5
		c2.2-1.8,5.3-3.9,6.9-4.7c1.6-0.8,3.3-2,3.6-2.7c0.4-0.7,1.9-2,3.3-3l2.6-1.8l3.1,0.4c2.6,0.4,3.6,0.3,6.5-0.6
		c2.9-0.8,3.7-1.3,5.2-3c1.8-2.1,2.7-4.7,2.7-7.7c0-2.2,2.4-6.2,6.5-10.9c1.7-1.9,3.9-4.6,4.9-6l1.8-2.5l-0.9-3.4
		c-0.8-3.4-0.8-3.4,0.2-6.6c1.5-4.7,1.4-6-0.5-9.3c-1.3-2.2-2-2.9-3.1-3.2c-0.8-0.2-1.4-0.4-1.4-0.5c0,0-1.1-5.3-2.3-11.6
		c-1.3-6.3-2.3-11.5-2.3-11.7c0-0.1-0.5-0.2-1.1-0.2h-1.1l2,10.1c1.1,5.5,2,10.4,2,10.8c0,0.6-1.8,1.1-8.9,2.5
		c-4.9,1-9.2,1.8-9.5,1.7c-0.3,0-0.7-0.7-0.9-1.5c-0.7-2.3-1.8-1.9-2,0.7c-0.1,1.9-0.3,2.2-1.1,2.2c-0.7,0-0.9-0.3-0.9-1.9
		c0-1.8,0-1.9-1.4-1.9h-1.5l0.3,2.3l0.3,2.3h-1.6h-1.6v-2.6c0-1.4-0.1-2.6-0.2-2.6c-0.1,0-0.7,0.2-1.4,0.6c-1.2,0.6-1.2,0.7-0.9,3.3
		c0.3,2.5,0.3,2.7-0.7,2.9c-3.4,0.8-5.6,1.2-5.7,1.1c-0.1-0.1-0.6-1.7-1.1-3.6c-0.9-3.4-0.9-3.4,0-4.7c0.5-0.7,0.9-1.3,0.9-1.5
		c0-0.2-4.8,0.1-5,0.4c-0.1,0,0.1,0.7,0.6,1.4c0.4,0.7,1.1,3,1.6,5.2l0.9,3.8l-1,0.2c-1.6,0.4-8.7,1.6-9.1,1.6
		c-0.2,0-0.7-2.5-1.2-5.6c-0.8-5.3-0.9-5.6-2-5.6c-1.3,0-1.3,0,0.1,6.3c0.6,2.8,1,5.3,0.8,5.4c-0.7,0.6-7.6,1.9-8,1.4
		c-2.4-3.7-3.3-5.3-3.8-7.1c-0.3-1.2-1.8-4.6-3.3-7.5l-2.7-5.5l2.1-0.8c2.6-1,3.1-2,3-6.6c0-2,0.1-3.3,0.4-3.3c0.6,0,0.8,1,1.2,5
		c0.3,3.3,0.3,3.3,1.7,3.3c1.1,0,1.3-0.2,1.1-0.8c-0.7-2.2-1.6-7.7-1.4-8c0.1-0.2,1.5-0.4,3-0.4h2.7l0.6,3.3c0.7,4.4,1,5.1,1.8,4.6
		c0.6-0.4,0.5-1.9-0.8-10.1c-1.9-12.2-1.8-11.6-3.1-11.9c-1.3-0.2-1.4,0.4-0.5,5.6l0.6,3.3l-2.4,0.5c-1.3,0.3-2.5,0.4-2.7,0.3
		c-0.1-0.1-0.7-2-1.1-4.1c-0.5-2.2-1-4.1-1.3-4.2c-1.1-0.7-1.2,0.8-0.3,4.9c0.5,2.4,0.8,4.5,0.7,4.5c-0.1,0.1-0.8,0.3-1.6,0.5
		l-1.5,0.3v-2c0-1.1-0.1-2.5-0.3-3c-0.3-1.1-2.7-2.3-5.4-2.7c-1.5-0.2-1.8-0.5-2.1-2c-0.2-0.9-0.3-5.2-0.3-9.4
		c0-8.4,0.3-10.2,2.4-12.2c1.3-1.2,1.8-1.3,31.7-4.7c16.7-2,30.5-3.4,30.6-3.3c0.1,0.1,1,4.7,2,10.3c1,5.6,1.9,10.2,2,10.3
		c0.1,0.1,0.7,0,1.3-0.3l1.1-0.5l-1.7-10.8c-2.3-14.3-2.4-13.3,0.5-13.3c2,0,3.3-0.5,9.7-3.8c4-2.1,8.1-4.3,9-4.9
		c1.5-1,2.1-1.2,4-0.9c2.1,0.3,2.3,0.2,3.4-1.3c0.9-1.3,1.8-1.7,4.4-2.4c4.1-1.1,6.6-3.3,6.6-5.8c0-0.3,0-0.6,0.1-0.9H234.3
		C219.7,252.8,198.2,271.4,186.2,281.6z"/>
</g>
</svg>
