<?xml version="1.0" encoding="utf-8"?>
<!-- Generator: Adobe Illustrator 17.1.0, SVG Export Plug-In . SVG Version: 6.00 Build 0)  -->
<!DOCTYPE svg PUBLIC "-//W3C//DTD SVG 1.1//EN" "http://www.w3.org/Graphics/SVG/1.1/DTD/svg11.dtd">
<svg version="1.1" id="flag-icon-css-md" xmlns="http://www.w3.org/2000/svg" xmlns:xlink="http://www.w3.org/1999/xlink" x="0px"
	 y="0px" viewBox="0 0 640 480" enable-background="new 0 0 640 480" xml:space="preserve">
<g>
	<path fill="#00319C" d="M213.3,100.7V13.2c-0.9,0.8-1.8,2-3.1,3.6l-3.6,4.5l-3.8,0.3l-3.8,0.3l-6.3-3.3c-3.8-2-6.6-3.2-7.1-3
		c-0.6,0.2-0.7,1-0.7,3.3v3h-2c-1.3,0-2.4,0.3-3.2,0.9c-1.1,0.9-1.1,0.9-4.4-0.7c-2-0.9-4.6-2.6-6.5-4.4c-3.2-2.8-3.8-3.2-3.8-2.2
		c0,0.3-0.2,1.4-0.5,2.3c-0.5,1.7-0.5,1.8-2.7,1.8c-2.6,0-3,0.7-1.6,2.7c0.6,0.8,0.6,1.2,0.2,1.6c-0.3,0.3-0.5,2.1-0.5,4.3V32
		l-2.6,0.3c-1.5,0.2-2.7,0.1-2.8-0.1s-1-2-2.1-3.9c-1.8-3.1-2.1-3.5-3.5-3.6l-1.5-0.1v2.3c0,2.6-0.9,3.8-2.9,3.8
		c-1.3,0-1.3,0-1.3,3.2c0,3,0.1,3.2,0.9,3.2c0.6,0,1.2,0.5,1.5,1.2c0.6,1.3,1.2,1.4,2.3,0.4c0.7-0.7,0.9-0.7,1.7,0.3l0.8,1.1
		l0.8-1.6L152,37l0.9,1.3c0.8,1.2,1.2,1.3,4.1,1.3c4,0,4.5,0.2,5.6,2.4c0.5,1,1.2,1.8,1.6,1.8c0.9,0,4.9,3.8,4.9,4.7
		c0,2.2,1.2,2.8,2.5,1.3c0.5-0.5,1.2-0.9,1.7-0.9c0.6,0,0.8,0.4,0.8,1.6c0,1.4,0.2,1.7,2.5,3.1c1.4,0.8,2.5,1.7,2.4,2
		c-0.1,0.3-1.1,0.6-2.1,0.6c-1.9,0.1-1.9,0.2-1.2,1c0.6,0.6,1.8,1,3.6,1.2c2.6,0.3,2.8,0.4,3.4,1.9c0.4,0.8,0.6,2.4,0.6,3.3
		c0,3.3,0.6,4.6,3.3,7.7c2.8,3.1,3.1,3.8,2.2,4.7c-0.6,0.6,1.6,2.5,3.1,2.5c1,0,1.1,0.2,1.1,1.6c0,1.1,0.3,1.7,0.9,2.1
		c0.6,0.3,0.9,1,0.9,1.8c0,0.7,0.3,2.2,0.7,3.3c0.4,1.1,0.7,2.8,0.7,3.8c0,1.9,1.4,3.4,3.6,3.9c1,0.3,1.1,0.5,1.1,4.4v4.2l1.6,0.9
		c1.6,0.9,1.9,2.4,0.5,2.9c-0.9,0.3-0.8,2.8,0.1,4.4c0.2,0.3,0.5,0.7,0.9,1.2C206.2,108.6,209.1,104.4,213.3,100.7z"/>
	<path fill="#FFDE00" d="M284.8,113.9v3.4c4.5-2.4,10.8-4.2,16.9-4.6l0.1-0.1l-0.1-0.1C296,112.4,290.4,112.9,284.8,113.9z"/>
	<path fill="#FFDE00" d="M386.6,370.9c-0.2-0.3-0.4-0.6-0.5-0.9c-0.3-0.3-0.5-0.6-0.8-1c-1.4-2-2-7.1,0-8.4s0.7-3.2-0.7-5.2
		L365,327.1c-5.7-2.4-12-7-17.6-13.3c0,0,0,0,0,0c-2.6,1.1-5.3,2.3-8.1,3.6c1.3,4.8,2.7,9.1,4.1,12.2c7.3,16.3,29.2,30.7,29.2,30.7
		s-13.1,4-17,6.6c-1-0.3-19.5-4.7-24.5-30.3c2.5,25.6,14.7,37.3,14.7,37.3s-24.4,7-24.4,23.3c0-16.3-24.4-23.3-24.4-23.3
		s17-11.7,14.6-37.3c-1.4,14.4-8.6,22.1-14.8,26.1c0.3,2.7,0.2,5.6-0.3,7.5c-0.2,0.9-1.6,3.6-2.9,6c-2.3,4-2.5,4.5-2.1,6.3
		c0.2,1,0.4,3,0.4,4.4c0,1.4,0.6,4.3,1.3,6.5c1.2,3.8,1.3,4.4,1.2,12.1c0,4.4-0.1,9.5-0.2,11.4c-0.1,3.1,0,3.5,2.4,8.3l2.5,5.1
		l-0.3,8.6c-0.2,4.7-0.6,9.1-0.8,9.8c-0.4,1.2-0.7,1.3-2.6,1.3c-1.6,0-2.5,0.3-3.7,1.3c-1.5,1.3-1.5,1.3-1,3.5
		c0.6,2.4,3.4,5.4,5,5.4c1.7,0,2.8,1.9,3.8,6.5c1.5,6.9,1.9,8,3.8,9.7c1.5,1.3,1.9,1.4,2.5,0.9c0.4-0.4,1.1-2.1,1.6-3.8
		c1.2-4.2,2.8-6.8,4.8-7.9c1.7-0.9,1.8-0.9,6.4-0.1c2.9,0.5,5.7,1.3,7.3,2.1c2.5,1.3,2.6,1.3,5.8,0.7c5.7-1.1,6.9-1.6,7.6-3.1
		c0.4-1.1,0.4-1.7-0.2-3.4c-0.5-1.2-1-2.2-1.3-2.3c-0.8-0.5-0.4-1.6,0.5-1.6c0.5,0,1.6-0.6,2.4-1.3c1.4-1.3,1.5-1.4,0.7-2.2
		c-0.6-0.7-0.8-1.8-0.8-4.9c0-2.5-0.2-4-0.5-4c-1,0-2.8-2.5-2.8-3.7c0-1.5,2.1-5.4,3.2-6c0.5-0.3,1.4-0.5,2.2-0.5
		c2,0,2.3-0.5,2.7-3.7c0.5-4.2,1-4.6,5.3-4.6c3.4,0,3.6,0,5-1.5c1.3-1.3,1.5-1.9,1.5-3.9c0-2.2,0.1-2.4,1.1-2.4c1.2,0,6.6-3.8,7-4.8
		c0.2-0.5-1.2-10.5-1.9-14.2c-0.2-1,0-1.3,2-2.2c1.7-0.8,20.8-7.5,21.3-7.5c0.1,0,0.5-0.3,0.8-0.7c1-1,0.9-3.6-0.4-7.9
		c-1.7-5.8-1.9-7-0.8-7.3c0.6-0.2,1.3-0.8,2.1-1.6C387.7,372.1,387.1,371.6,386.6,370.9z"/>
	<path fill="#FFDE00" d="M411.7,331.9c0,0.7,0.1,1.2,0.3,1.4l0.3-0.8L411.7,331.9z"/>
	<path fill="#FFDE00" d="M394.7,129c0,0,0-10.3,20.2-30.9c-0.3-0.8-1.4-1.3-3.4-1.9c-2.9-0.9-3.8-2.1-4.3-5.8
		c-0.5-3.2-1.3-5-3.6-7.5c-1.6-1.7-1.8-1.8-4.5-1.8c-1.5,0-3.3,0.1-3.9,0.3c-1,0.3-1.1,0.5-0.8,3.2c0.2,2.6,0.2,2.9-0.8,3.6
		c-0.6,0.5-2.5,0.9-4.8,1.1l-3.7,0.3l-6.2-7.5c-6.1-7.3-6.2-7.5-6.5-10.2c-0.2-1.8-0.7-3.2-1.3-3.8c-0.5-0.6-1.1-1.9-1.3-2.9
		c-0.7-4.5-0.6-4.3-2.9-4.7c-1.2-0.2-3-0.8-4-1.4c-1.5-0.8-2.6-1.1-5-1.1c-2.6,0-3.3-0.2-4.5-1.2c-2-1.7-6.1-2.6-9.3-2.3
		c-2.1,0.2-3.3,0.8-7.1,3.3l-4.6,3l0.3,3.6c0.4,4.4-0.2,4.9-2.7,2.3l-1.8-1.9l0.1-5.8l0.1-5.7h-1.3c-2,0-4.2,1.7-4.9,3.8
		c-0.5,1.4-1,2.1-2.1,2.5c-1.4,0.6-1.5,0.6-2.7-1c-1.2-1.5-1.2-1.6-0.4-3.1c0.4-0.8,1.9-2.8,3.3-4.3c2.6-2.9,2.8-3.6,1.5-6.9
		c-0.6-1.6-3.6-2.3-6-1.4c-1.1,0.4-2.3,0.7-2.8,0.7s-1.9,0.7-3.3,1.6c-1.9,1.3-2.7,1.6-3.8,1.3c-2.5-0.5-3.1-1-3.1-2.9
		c0-2.2-0.4-2.6-2.3-3.1c-1.4-0.2-1.8-0.1-2.9,1.1c-1.1,1.1-1.7,1.4-3.2,1.4h-1.9l0.3-1.8c1.5-9.9,0.8-10.8-8.1-11.5l-4.8-0.3
		l-2.9-2.6c-1.6-1.4-3.1-3.2-3.4-3.9c-0.6-1.9-2.5-4-5-5.5c-1.2-0.7-3.7-2.9-5.6-4.9l-3.5-3.5l-2.4,0.3c-1.3,0.2-3.8,0.7-5.3,1.3
		l-3,1l-3.5-1.8l-3.5-1.8l0.3-2.5c0.1-1.3,0.1-2.4,0-2.4c-0.2,0-1.9,0.9-3.7,2c-1.9,1.2-5.5,2.9-8.1,4c-2.7,1.1-5.3,2.5-6,3.2
		l-1.2,1.3l-0.8-1.3c-0.7-1.2-1.1-1.3-3.2-1.3c-2.9,0-4.4,0.3-6.2,2v87.6c2.8-2.5,6.2-4.8,10.3-6.8c0,0,0,0,0,0l0.1,0c0,0,0,0,0,0
		c24.4,23.3,24.4,35,24.4,35v60c0,0,0.1,0.1,0.1,0.1v-13.5v-11.7l0.1,0l36.6,11.7c12.1,0,24.4-11.7,24.4-23.4
		c0.3-18.7-4.9-28.6-8.7-32.7c-0.8,0.5-1.8,0.9-2.7,0.9c-6.7,0-10.3,0.6-13,1.4v11.8h-7.4v-17.8c-0.8,0.2-1.6,0.5-2.4,0.7
		c0-2.3,0.8-4.6,2.4-6.8v-11h-12.2v-7h-0.1h0.1h12.1v-9.3h7.4v9.3H297v7h-12.2v5.1c3.4-1.7,7.6-2.7,12.6-2.8c3.2-3.4,10-7.2,24-7
		c24.4,0.5,24.4,11.7,24.4,23.3s-12.2,11.7-12.2,35c0,11.7,12.2,23.4,24.4,23.4l36.6-11.7v11.7h0v70v35c0,10.7-7.7,16.5-19.6,21.9
		c4.4,6.8,6.6,13.5,6.2,18.5l2,2.9c0.4-0.8,1.8-2.5,3.4-4.3c3.7-4,7.4-6.4,10.7-7c0.1,0,0.3-0.1,0.5-0.1c-2.2-6.7-3.1-14-3.1-20.1
		V129z"/>
	<path fill="#DE2110" d="M507.8,322.7c-1.7-0.2-2.6-0.6-3-1.2c-0.3-0.5-1.1-0.9-1.8-0.9s-1.9-0.3-2.9-0.7c-2-0.8-2.5-2.4-1.2-3.8
		c1.1-1.2,0.9-1.9-1.2-3.4l-1.7-1.1l-1.1,1.1l-1.2,1.1l-1.3-1.3c-0.7-0.7-1.9-1.4-2.7-1.7c-1-0.4-1.7-1.1-2.4-2.6
		c-0.6-1.1-1-2.4-1-2.7c0-1.2,3.3-3.5,5.7-3.8c2.7-0.4,2.7-0.6,1.1-7.3c-1.1-4.6-1.1-4.6-0.2-6.6c0.7-1.7,0.9-3.2,0.9-7.7
		c0-5-0.2-6.3-1.6-11.6c-0.9-3.3-1.9-6.2-2.1-6.6c-0.7-0.8-2.1-0.7-2.5,0.2c-0.2,0.6-0.6,0.2-1.4-1.5c-0.6-1.3-1.9-2.8-2.7-3.5
		c-1.5-1.2-2-1.3-5.5-1.3c-2.1,0-4.9-0.3-6.2-0.6c-2.3-0.6-2.4-0.6-3.9-3.9c-1.5-3.2-1.7-3.3-3.2-3.3c-2.5,0-5.2-0.9-7.6-2.6
		c-0.6-0.4-1.2-0.8-1.9-1.1c-2.4,2.8-4.5,4.9-4.5,4.9l-1.8-0.6l-5.7,14.8c0,17.8,0.1,35.4,0.1,51.2c0,0,0,0,0,0
		c1.2,0.7,1.3,0.9,1,2.8c-0.5,2.9,0.1,5.7,1.4,6.7c0.6,0.5,2.1,0.9,3.6,1l2.5,0.1l0.8,2.4c1.3,3.8,2,4.6,4.7,5.3l2.4,0.6l1.6-1.6
		c1.3-1.3,1.6-1.9,1.7-3.9c0-1.3-0.1-2.6-0.3-3c-0.3-0.6,0.3-0.9,2.5-1.5c3.1-0.9,3-0.8,3.5-4.2l0.3-2.3l5.5,5.5l5.5,5.5l-0.9,3
		c-0.5,1.7-0.8,3-0.8,3.1c0,0,0.9,0.4,1.9,0.8c3.2,1.4,4.4,1.1,7.2-1.8l2.5-2.6l9.7-0.2l9.7-0.2l1.6-2.4c0.9-1.3,1.6-2.6,1.6-3
		C512.3,323.7,510.9,323.2,507.8,322.7z"/>
	<path fill="#DE2110" d="M445.4,247.4l-1.7-0.5c0,0-1.8-21.2,5.3-18.9l5.3,1.7c0,0,0,0,0,0c-1.9-0.6-3.1-2.2-2.6-3.6
		c0.4-0.9,1.4-1.5,2.6-1.6l0.6-1.6V221l-1.6-0.7c-2.7-1.1-4.2-0.9-5.7,1c-0.7,0.9-1.5,1.6-1.8,1.6c-0.3,0-1.7-1.7-2.8-3.3
		c0,10.9,0,22.2,0,33.6L445.4,247.4z"/>
	<path fill="#DE2110" d="M443.1,215.9c1.3-0.6,3.3-1.3,4.6-1.6c3.2-0.6,4-4.4,1.9-9.4c-1.1-2.8-1.5-6.7-0.8-7.8
		c0.2-0.3,0.9-0.7,1.6-0.8c1.6-0.4,2.2-1.5,2.2-4c0-1.9-1.1-7.6-1.4-8c-2.8-2.4-4.4-3.1-6.9-3.1h-1.2
		C443.1,191.6,443.1,203.4,443.1,215.9z"/>
	<path fill="#FF1900" d="M378.3,327.1c-3,2.4-7.9,2.2-13.3,0l19.6,28.3c1.4,2,2.7,3.9,0.7,5.2s-1.4,6.4,0,8.4c0.3,0.4,0.5,0.7,0.8,1
		c-1.7-3.6,0.6-8.9,5.3-13c-0.5-0.5-1.1-1.1-1.8-1.8l-4.6-4.6v-2.4c0-1.3,0.2-2.9,0.5-3.5c0.4-0.8,0.3-2.1-0.2-5
		c-0.8-4.2-2.1-13.9-2.1-15.3c0-0.1,0.1-0.2,0.2-0.4l-2-2.9C381,323.6,380.1,325.7,378.3,327.1z"/>
	<path fill="#A77B3B" d="M347.4,313.8c5.5,6.3,11.9,10.9,17.6,13.3c5.4,2.3,10.3,2.4,13.3,0c1.7-1.4,2.7-3.5,2.9-6.1
		c0.4-5-1.8-11.7-6.2-18.5C367.3,306,357.7,309.3,347.4,313.8C347.4,313.8,347.4,313.8,347.4,313.8z"/>
	<path fill="#A77B3B" d="M311.6,336.6c2.4,25.6-14.6,37.3-14.6,37.3s24.4,7,24.4,23.3c0-16.3,24.4-23.3,24.4-23.3
		s-12.2-11.7-14.7-37.3c5,25.6,23.5,30,24.5,30.3c3.9-2.6,17-6.6,17-6.6s-21.9-14.4-29.2-30.7c-1.4-3.1-2.8-7.4-4.1-12.2
		c-5.9,2.8-11.9,6-17.9,9.8c-4.3-2.7-8.5-5.1-12.7-7.2c0.5,1.9,0.4,3.7-0.6,4.6c-0.6,0.6-0.9,1.4-0.9,2.9c0,1.6-0.3,2.5-1.6,4.2
		c-3.1,4.2-3.7,6.5-2.5,9c0.4,0.9,0.3,1.8-0.3,4.2c-0.8,3.2-0.7,3.1-4.9,3.6c-0.4,0-0.9,1.1-1.3,2.9c-0.3,1.5-0.9,2.9-1.3,3.2
		c-0.5,0.3-0.4,0.9,0.5,3.7c0.4,1.3,0.8,2.9,0.9,4.5C303,358.7,310.2,351,311.6,336.6z"/>
	<path fill="#A77B3B" d="M333.6,152.2c0-23.3,12.2-23.4,12.2-35s0-22.8-24.4-23.3c-14-0.2-20.8,3.7-24,7c0.1,0,0.3,0,0.4,0
		c3.2,0,6.5,7.8,6.5,11.7c-0.9,0-1.7-0.1-2.6-0.1l0.1,0.1l-0.1,0.1c0.8-0.1,1.7-0.1,2.5-0.1c0,2.8-1.6,5.6-3.7,6.9
		c3.8,4.1,9,14,8.7,32.7c0,11.7-12.3,23.4-24.4,23.4H358C345.8,175.6,333.6,163.9,333.6,152.2z M316.5,108c0,2.5-2.2,4.6-4.9,4.6
		c-2.7,0-4.9-2.1-4.9-4.7c0-2.6,2.2-4.6,4.9-4.6C314.3,103.3,316.5,105.3,316.5,108L316.5,108z"/>
	<polygon fill="#A77B3B" points="248.2,163.9 248.1,163.9 248.1,175.6 284.8,175.6 	"/>
	<polygon fill="#A77B3B" points="394.6,163.9 358,175.6 394.6,175.6 	"/>
	<path fill="#A77B3B" d="M223.6,94c-4.1,2-7.5,4.3-10.3,6.8c-4.2,3.7-7.1,7.8-9.2,12.1c0.7,0.9,1.6,2,2.5,3c2.2,2.5,2.7,3.3,2.7,4.7
		c0,1.4-0.2,1.8-1.4,2.3c-0.8,0.3-1.5,0.7-1.6,1c-0.1,0.2,0.6,1.7,1.5,3.3c1,1.6,2,3.4,2.2,4c0.2,0.6,1,1.9,1.8,2.8
		c1.9,2,5.6,7.4,6,8.5c0.2,0.5,1.3,1.5,2.6,2.3c2.1,1.3,2.4,1.7,3.2,4.4c0.6,1.9,1.3,3.3,2.1,3.9c1,0.8,1.2,1.3,1.2,3.9
		c0,3.4,0.1,3.5,4.9,4.4c1.9,0.3,2.6,0.8,4,2.4c1.5,1.8,1.7,2.3,1.8,4.4c0,1.3,0.2,2.9,0.5,3.4c0.2,0.5,0.5,2.2,0.6,3.8
		c0.1,2.4,0.3,3.2,1.4,4.4c0.7,0.8,1.3,1.7,1.3,1.9s0.8,1.5,1.7,2.8c1.1,1.5,3,3.1,4.9,4.5v-60C248,129,248,117.3,223.6,94z"/>
	<path fill="#A77B3B" d="M223.6,94C223.6,94,223.6,94,223.6,94C223.6,94,223.6,94,223.6,94L223.6,94z"/>
	<path fill="#A77B3B" d="M443.1,253.2c0-11.4,0-22.8,0-33.6c-0.9-1.2-1.6-2.4-1.6-2.6c0-0.2,0.7-0.6,1.6-1c0-12.5,0-24.3,0-34.7
		h-1.5l-0.8,3.3c-1,4.3-1.8,5-5.5,5h-2.8l-1.7-2.7c-1.7-2.5-1.8-2.9-1.8-6.5c0-3.7,0-3.8-1.4-4.5c-0.7-0.4-2-0.7-2.9-0.7
		c-1.5,0-1.6-0.1-2.1-2c-0.3-1.2-0.5-2.5-0.5-3c0-0.6-0.6-1.2-1.9-1.7c-1-0.4-2.1-0.7-2.4-0.7c-0.7,0-1.7-1.5-1.8-2.7
		c0-1.3-1.7-1.4-3.3-0.2c-0.6,0.5-1.6,1-2.3,1.2c-1,0.2-1.3,0-2-1.1c-0.4-0.8-0.8-2.3-0.8-3.4c0-1.8-0.3-2.3-2.5-4.8
		c-2.3-2.5-2.5-3-2.8-5.5l-0.3-2.7l3.7-4c2-2.2,4-4.8,4.4-5.8c1.3-2.8,1.8-9.6,0.9-11.6c-0.4-0.9-0.7-2.5-0.7-3.6
		c0-1.6,0.3-2.2,1.4-3.3c1.5-1.4,3.2-4.3,3.2-5.4c0-1-1.4-2-4-2.9c-2.4-0.7-2.5-0.8-2.5-2.4c0-1.3,0.6-2.4,3.2-5.7
		c2.5-3.1,3.5-4.7,3.1-5.7c-20.2,20.6-20.2,30.9-20.2,30.9v163.3c0,6.2,0.9,13.5,3.1,20.1c1.3-0.4,3.9-1.6,6.2-2.9
		c2.7-1.5,5.6-2.7,6.3-2.7c0.7,0,1.9,0.5,2.5,1.1l1.3,1l0,8.3c0,8,0,8.4-1,10.1c-0.9,1.4-1.4,3.3-1.5,4.6l0.7,0.6L443.1,253.2z"/>
	<path fill="#A77B3B" d="M416.5,331.9c0.2-0.2,0.4-0.4,0.6-0.6c1.7-1.7,2.8-2.4,4-2.6l1.8-0.3v-3.6c0-4.6,0.9-7.1,2.8-7.8
		c1.3-0.4,1.3-0.4,1.6,0.8c0.1,0.7,0.9,2.6,1.7,4.4c1.3,2.8,1.5,3.2,2.7,3.2c1.3,0,1.3-0.1,1.3-1.9c0-1.7,0.3-2.1,4-5.8
		c2.2-2.2,4.2-3.9,4.4-3.9c0.3,0,1,0.3,1.7,0.7c0-15.8-0.1-33.4-0.1-51.2L416.5,331.9z"/>
	<path fill="#FF0000" d="M295.7,235.8c0,0-4.5-1-9.8-3.3c1.2,1.3,3,4.1,4.7,7.3C293,235.8,295.7,235.8,295.7,235.8z"/>
	<path fill="#FF0000" d="M270.1,213.8c0-16.4,24.4-33.6,24.4-33.6s-15.9,22.6-15.9,33.6c0,10.9,17.1,16.4,25.6,16.4
		c4.7-5.5,6.4,1.5,8.5,0c5.1-5.5,7.3,1.9,8.6,0c3.6-5.5,8.5,0,8.5,0c4.2-5.5,8.5,0,8.5,0c17.1,0,23.5-11,23.5-16.4
		c0-10.9-13.7-33.6-13.7-33.6s24.5,17.1,24.5,33.6c0,16.4-25.7,21.9-25.7,21.9s5,0,7.3,9.8h3.7l0,0h0.1l14.6-7l14.7,7l0,0h7.3v-70h0
		H358h-73.2h-36.7v13.5c1.9,1.3,3.8,2.3,5.1,2.6c1.1,0.1,2.1,0.6,2.4,0.8c0.9,1.1,1.3,3.4,1,5.1c-0.3,1.7-0.1,2,1.8,4.1
		c1.6,1.7,2.3,2.9,2.9,5.3c0.5,1.7,0.9,3.8,0.9,4.4c0,1,0.6,1.9,1.9,3.2c1.3,1.3,1.9,2.3,1.9,3.2c0,1.1,0.3,1.5,1.8,2.2
		c2.7,1.4,8.3,6.6,8.4,7.8c0,0.8,0.7,1.3,4,2.4c1.6,0.6,3.1,1,4,1.3C277.3,228.2,270.1,222.5,270.1,213.8z M307.5,188.1l8.6,1.2
		l5.2-6.6l5.2,6.6l8.5-1.2l-1.1,8.2l6.9,5l-6.9,5l1.1,8.2l-8.6-1.1l-5.2,6.6l-5.2-6.6l-8.6,1.1l1.2-8.2l-6.9-4.9l6.9-5L307.5,188.1z
		"/>
	<path fill="#564DFF" d="M312.4,297.3c0.3-0.3,0.4-0.7,0.4-1.2c-0.3-8.7,0-21.9,0-27.4c0-3.2-8.5-2.7-15.8-3.8
		c0.3,0.8,0.6,1.6,1,2.2c1.5-0.9,3.5-1.4,5.7-1.4c4.9,0,8.9,2.8,8.9,6.2c0,3.4-4,6.2-8.9,6.2c-0.7,0-1.4-0.1-2-0.2
		c0,0.1,0.1,0.2,0.1,0.3c3.7,0.2,7.6,0.7,8.6,1.3C311.9,280.4,313,293.9,312.4,297.3z"/>
	<path fill="#564DFF" d="M339.3,317.4c2.7-1.3,5.4-2.5,8.1-3.6c10.3-4.4,19.9-7.8,27.6-11.3c11.9-5.4,19.6-11.2,19.6-21.9v-35h-7.3
		l-14.7,7l-14.7-7h-3.7c0.7,3,1.2,6.9,1.2,12c0,11-25.6,5.5-25.6,11V296c0,0.6,0.2,1.1,0.6,1.4c-0.7-3,0.4-17.1,2-18.1
		c1.7-1.1,14.2-1.9,15.4-1.1h0c1.7,1.1-2.2,19-3.4,19.7c-0.6,0.4-2.5,0.7-4.6,0.8c3.7,0,7.1,0.3,7.1,2.7c0,2.7-12.8,16.4-25.6,16.4
		c-5.6,0-11.2-2.6-15.8-5.8l-0.8,2.3l1.6,1.6c1.1,1.2,1.9,2.6,2.3,4c4.2,2.1,8.5,4.5,12.7,7.2C327.4,323.4,333.5,320.2,339.3,317.4z
		 M339,277.9c-4.9,0-8.9-2.8-8.9-6.2s4-6.2,8.9-6.2c4.9,0,8.9,2.8,8.9,6.2S343.9,277.9,339,277.9z M360.7,282.2
		c7.1-3.3,15.6-1.1,19.9,5.1c0,0,0,0,0,0l0,0.1c0,0,0,0,0-0.1c-4.5-2.8-12.1-1.4-16.3,0.9c-4.2,2.3-8.5,4.7-9.1,13.1
		C350.4,293.2,354.2,285.7,360.7,282.2z"/>
	<path fill="#FFFF00" d="M347,301.5c0-2.4-3.4-2.7-7.1-2.7c-3.6,0.2-8.1-0.1-9.1-0.8c-0.1-0.1-0.2-0.3-0.3-0.6
		c-0.4-0.4-0.6-0.8-0.6-1.4v-27.4c0-5.5,25.6,0,25.6-11c0-5.1-0.5-9-1.2-12c-2.3-9.8-7.3-9.8-7.3-9.8s25.7-5.5,25.7-21.9
		c0-16.4-24.5-33.6-24.5-33.6s13.7,22.6,13.7,33.6c0,5.5-6.4,16.4-23.5,16.4c0,0-4.3-5.5-8.5,0c0,0-4.9-5.5-8.5,0
		c-1.3,1.9-3.5-5.5-8.6,0c-2.1,1.5-3.9-5.5-8.5,0c-8.5,0-25.6-5.5-25.6-16.4c0-10.9,15.9-33.6,15.9-33.6s-24.4,17.2-24.4,33.6
		c0,8.7,7.2,14.3,14,17.7c0.4,0.1,0.6,0.2,0.8,0.2c0.3,0,0.6,0.3,1.1,0.7c5.2,2.3,9.8,3.3,9.8,3.3s-2.7,0-5.1,3.9
		c2.1,4,4.1,8.5,4.6,11.2c0.4,1.9,0.6,4.2,0.4,5.6c-0.3,2.1,0.4,5.5,1.4,8.3c7.2,1.1,15.8,0.6,15.8,3.8c0,5.5-0.3,18.7,0,27.4
		c0,0.5-0.1,0.9-0.4,1.2c-0.1,0.4-0.2,0.7-0.3,0.7c-0.5,0.3-1.9,0.6-3.6,0.7c-0.1,0.3-0.2,0.7-0.4,1.1c-0.6,1.5-1,3.8-1,5.2
		c0,0.2,0,0.5,0,0.7c0.8-0.6,1.9-0.9,3.2-0.9c2.3,0,4.2,1.2,4.2,2.7s-1.9,2.7-4.2,2.7c-1.6,0-3-0.6-3.7-1.4
		c-0.2,0.7-0.4,1.4-0.6,2.1l-0.4,1.2c4.5,3.2,10.2,5.8,15.8,5.8C334.2,317.9,347,304.2,347,301.5z M332.5,304.8
		c2.3,0,4.3,1.2,4.3,2.7s-2,2.7-4.3,2.7c-2.4,0-4.3-1.2-4.3-2.7S330.2,304.8,332.5,304.8z"/>
	<path fill="#FFFF00" d="M312.4,297.3c0.6-3.4-0.5-16.9-2-17.9c-0.9-0.6-4.9-1.1-8.6-1.3c0.4,1,1.1,2.3,2.1,4.3
		c2.3,4.4,2.9,6.2,3.2,8.6c0.2,1.7,0.7,3.7,1.2,4.6c0.7,1.2,0.8,1.5,0.2,3.1c1.7-0.1,3.1-0.4,3.6-0.7
		C312.2,297.9,312.3,297.7,312.4,297.3z"/>
	<path fill="#FFFF00" d="M339.9,298.8c2.1-0.1,3.9-0.4,4.6-0.8c1.2-0.8,5.1-18.6,3.4-19.7h0c-1.3-0.7-13.7,0-15.4,1.1
		c-1.5,1-2.7,15-2,18.1c0.1,0.3,0.2,0.5,0.3,0.6C331.8,298.7,336.3,298.9,339.9,298.8z"/>
	<path fill="#FFFF00" d="M312.6,271.8c0-3.4-4-6.2-8.9-6.2c-2.2,0-4.2,0.5-5.7,1.4c0.5,0.9,0.9,1.6,1.4,2.1c1.6,1.6,1.7,1.9,1.7,4.7
		c0,1.6,0,2.5,0.6,3.9c0.6,0.1,1.3,0.2,2,0.2C308.6,277.9,312.6,275.2,312.6,271.8z"/>
	<ellipse fill="#FFFF00" cx="339" cy="271.8" rx="8.9" ry="6.2"/>
	<path d="M328.2,307.5c0,1.5,1.9,2.7,4.3,2.7c2.3,0,4.3-1.2,4.3-2.7s-2-2.7-4.3-2.7S328.2,306,328.2,307.5z"/>
	<path d="M310.3,310.2c2.3,0,4.2-1.2,4.2-2.7s-1.9-2.7-4.2-2.7c-1.3,0-2.4,0.4-3.2,0.9c-0.1,0.9-0.3,2-0.5,3.1
		C307.3,309.6,308.7,310.2,310.3,310.2z"/>
	<polygon fill="#FFFF00" points="308.7,206.3 307.5,214.5 316.1,213.4 321.4,220 326.6,213.4 335.2,214.5 334,206.3 340.9,201.3 
		334,196.3 335.2,188.1 326.6,189.2 321.4,182.6 316.1,189.2 307.5,188.1 308.7,196.3 301.8,201.3 	"/>
	<polygon fill="#FFFF00" points="372.6,238.6 358,245.6 358,245.6 358,245.6 372.6,252.6 387.3,245.6 387.3,245.6 	"/>
	<path fill="#FFFF00" d="M380.6,287.3C380.6,287.3,380.6,287.3,380.6,287.3C380.6,287.4,380.6,287.4,380.6,287.3L380.6,287.3z"/>
	<path fill="#FFFF00" d="M355.3,301.3c0.6-8.4,4.8-10.8,9.1-13.1c4.2-2.3,11.8-3.7,16.3-0.9c-4.3-6.3-12.9-8.5-19.9-5.1
		C354.2,285.7,350.4,293.2,355.3,301.3z"/>
	<path fill="#DA4500" d="M304.2,112.6c-0.8,0-1.7,0-2.5,0.1c-6.1,0.4-12.4,2.2-16.9,4.6v4.5c2.7-0.8,6.3-1.4,13-1.4
		c0.9,0,1.8-0.3,2.7-0.9C302.6,118.2,304.2,115.4,304.2,112.6z"/>
	<path fill="#CAC9C7" d="M311.6,103.3c-2.7,0-4.9,2-4.9,4.6c0,2.6,2.2,4.7,4.9,4.7c2.7,0,4.9-2.1,4.9-4.6v-0.1
		C316.5,105.3,314.3,103.3,311.6,103.3z"/>
	
		<line fill="none" stroke="#FFFF00" stroke-width="0" stroke-linecap="round" stroke-linejoin="round" x1="265.2" y1="91.7" x2="265.2" y2="91.7"/>
	<path fill="#FFFF00" d="M284.8,113.9c-2.5,0.5-4.9,1.1-7.4,1.8v17.8h7.4v-11.8v-4.5V113.9z"/>
	<path fill="#FFFF00" d="M284.8,103.7v-5.1H297v-7h-12.2v-9.3h-7.4v9.3h-12.1v7h12.2v11C279.1,107.4,281.6,105.3,284.8,103.7z"/>
	<path fill="#DA4500" d="M301.7,112.5c0.9,0,1.7,0,2.6,0.1c0-3.9-3.3-11.7-6.5-11.7c-0.1,0-0.3,0-0.4,0c-5,0.1-9.2,1.1-12.6,2.8
		c-3.2,1.6-5.7,3.7-7.4,6c-1.6,2.2-2.4,4.6-2.4,6.8c0.8-0.3,1.6-0.5,2.4-0.7c2.4-0.7,4.9-1.3,7.4-1.8
		C290.4,112.9,296,112.4,301.7,112.5z"/>
	<path fill="#FFFF00" d="M454.9,224.3v-1.6l-0.6,1.6C454.5,224.3,454.7,224.3,454.9,224.3z"/>
	<path fill="#FFFF00" d="M443.1,263.3l5.7-14.8l-3.5-1.1l-2.3,5.8l-30.7,79.3l-0.3,0.8c0,0,0.1,0,0.1,0.1c1.5,0.5,2.6,0.2,4.4-1.5
		L443.1,263.3z"/>
	<path fill="#FFFF00" d="M443.7,246.8l1.7,0.5l3.5,1.1l1.8,0.6c0,0,2.1-2.1,4.5-4.9c-0.9-0.4-1.7-0.7-2.5-0.8l-2.1-0.3l0.3-3.4
		c0.3-3.6,1.8-8,3.2-9.9c0.1-0.1,0.2-0.2,0.2-0.3l-5.3-1.7C441.9,225.7,443.7,246.8,443.7,246.8z"/>
	<path fill="#FFFF00" d="M454.3,224.3c-1.2,0.1-2.2,0.7-2.6,1.6c-0.5,1.4,0.6,3,2.6,3.6c0.5-0.8,0.6-1.9,0.6-4.7v-0.6
		C454.7,224.3,454.5,224.3,454.3,224.3z"/>
	<path fill="#FF1900" d="M386.1,370c0.1,0.3,0.3,0.6,0.5,0.9c0.5,0.7,1.1,1.2,1.8,1.7c2.6-2.8,5.9-8.5,5.9-10.9c0-1.5-0.2-2-2.8-4.7
		C386.6,361.1,384.4,366.4,386.1,370z"/>
</g>
</svg>
