<?xml version="1.0" encoding="utf-8"?>
<!-- Generator: Adobe Illustrator 17.1.0, SVG Export Plug-In . SVG Version: 6.00 Build 0)  -->
<!DOCTYPE svg PUBLIC "-//W3C//DTD SVG 1.1//EN" "http://www.w3.org/Graphics/SVG/1.1/DTD/svg11.dtd">
<svg version="1.1" id="flag-icon-css-mg" xmlns="http://www.w3.org/2000/svg" xmlns:xlink="http://www.w3.org/1999/xlink" x="0px"
	 y="0px" viewBox="0 0 640 480" enable-background="new 0 0 640 480" xml:space="preserve">
<g>
	<path fill="none" d="M229.3,466.7c-0.2,0-0.2,0.4-0.1,0.9c0.1,0.6,0.7,0.9,1.2,0.9c0.9,0,0.9,0,0.1-0.9
		C230,467.2,229.5,466.7,229.3,466.7z"/>
	<path fill="none" d="M391.5,3.8c-0.3,0-0.3,0.3,0.1,0.7c0.7,0.8,1.2,0.6,0.7-0.2C392.2,4,391.8,3.8,391.5,3.8z"/>
	<path fill="none" d="M255.2,480c0.3,0.3,0.4,0.6,0.4,0.9c0,0.8,0.2,0.9,1.3,0.7c0.7-0.1,3.6-0.4,6.4-0.6c2.9-0.2,4.9-0.4,6.5-1
		H255.2z"/>
	<polygon fill="none" points="394.4,0 394.4,0 394.4,0 	"/>
	<path fill="#FF3319" d="M420.3,169.2c0-1.7-0.9-1-1.8,1.4c-0.6,1.5-1,2.8-1,3c0,0.2-0.5,0.8-1.2,1.5c-0.7,0.6-1.2,1.6-1.2,2.4
		c0,0.7-0.2,1.4-0.4,1.6c-0.8,0.8-1.9,4-1.5,4.2C414.1,183.7,420.3,171.4,420.3,169.2z"/>
	<path fill="#FF3319" d="M363.7,50c-0.8-5.4-0.8-5.7-1.7-5.7c-0.7,0-0.9,0.3-0.9,1.2c0,1.1-0.1,1.2-1.4,1c-1.4-0.2-1.4-0.1-1.4,1.6
		c0,2.4,1.3,3.7,3.8,3.7h1.9L363.7,50z"/>
	<path fill="#FF3319" d="M394.5,236.7c0.8-2.4,1.9-5.2,2.4-6.1c0.6-1,1.3-3.2,1.6-5.5c0.4-2.4,0.9-4,1.5-4.7
		c0.6-0.6,0.8-1.2,0.5-1.6c-0.6-1.1,0.2-6.4,1.7-10.6c1.2-3.6,1.3-3.9,0.7-6.8c-0.3-1.7-0.6-3.6-0.6-4.4s-0.2-1.3-0.6-1.3
		c-0.4,0-0.7-0.5-0.7-1.4c0-0.8-0.2-1.6-0.5-1.7c-0.9-0.6-0.5-2.6,1.2-5.9c0.9-1.8,1.6-3.7,1.6-4.1c0-0.5,0.6-2.3,1.4-4
		c1.6-3.4,2.5-4.1,6.8-4.5c3.2-0.3,3.4-1,1-2.5c-1.9-1.2-2.2-3-0.7-3.8c0.5-0.3,0.9-0.8,0.9-1.1c0-0.3,0.5-1.4,1.1-2.3
		c1.1-1.6,2.1-6.5,1.4-6.5c-0.9,0-1.1-3.7-0.3-5.6c0.9-2.2,0.6-2.9-1.9-4.1c-0.8-0.4-1.8-1.2-2.3-1.7c-1-1.3-1.1-4.9-0.1-6.3
		c0.4-0.6,0.5-1,0.3-1c-0.3,0-0.6-0.5-0.8-1.1c-0.1-0.6-0.8-2.2-1.3-3.4c-0.5-1.2-1-2.9-1.1-3.7c0-0.8-0.2-1.7-0.4-2.1
		c-0.2-0.4,0.2-1.6,1-2.9c1.3-2.1,1.5-2.2,4.3-2.5c1.6-0.2,3-0.2,3.2,0c0.1,0.2,0.2,1.5,0.2,2.9c-0.1,2.4,0,2.6,1,3
		c1,0.4,1.1,0.7,0.9,2.1c-0.2,1.4,0,1.8,1,2.8c0.9,0.8,1.2,1.6,1.2,2.8c0,1.3,0.3,1.9,1.5,2.8c0.8,0.6,1.9,1.5,2.4,2
		c1.5,1.4,3.1,1,3.9-0.9c0.3-0.9,0.8-1.7,1.1-1.9c0.6-0.3,1.9-3,1.9-3.8c0-0.3,0.9-2.6,2.2-5c2.4-5.1,3.7-10,3.2-13.1
		c-0.3-2.5-2-5.9-3.7-7.5c-0.7-0.7-1.2-1.5-1.2-1.9s-0.4-1.6-1-2.6c-1.6-3.2-2.8-6.6-2.5-7.4c0.1-0.4-0.2-1.6-0.8-2.5
		c-1.1-1.8-1.3-4-0.9-10.1c0.1-1.4-0.1-2.5-0.5-3c-0.4-0.4-0.7-2.3-0.8-4.6c-0.2-6.9-0.9-13.7-1.5-14.8c-0.3-0.6-0.6-1.5-0.6-2
		c0-0.5-0.3-1.5-0.7-2c-0.4-0.6-0.9-2.6-1.2-4.5c-0.4-2.2-0.9-3.8-1.5-4.4c-0.5-0.5-0.8-1-0.7-1.2c0.1-0.1-0.2-1.2-0.7-2.4
		c-0.7-1.6-0.8-2.8-0.7-4.5c0.2-1.7,0-2.7-0.8-4.4c-0.6-1.1-1.3-2.1-1.6-2.1c-0.3,0-0.6-0.4-0.6-0.8c0-0.8-3.1-5.7-4-6.3
		c-0.4-0.2-0.8,0.1-1.1,0.8c-0.8,1.7-1.7,1.5-1.8-0.5c0-1.1-0.4-2.1-1.2-3c-1.3-1.3-2.4-5.3-1.4-4.6c0.7,0.4,0.7-1.7,0.1-2.9
		c-0.3-0.4-0.6-1.4-0.8-2.1c-0.2-1.1-0.5-1.3-2-1.3c-1.7,0-1.8-0.1-2.5-2.2c-0.7-2.4-2.3-3.5-2.3-1.6c0,1.2-0.9,1.8-1.5,0.9
		c-0.3-0.5-0.5-0.5-1,0c-0.7,0.7-2.3,0.8-2.3,0.1c0-0.3,0.4-0.5,0.9-0.5c1.3,0,1.7-1,0.8-1.6c-0.8-0.6-1.1-2.1-0.4-2.1
		c0.2,0,0.7,0.3,1,0.7c0.5,0.6,0.7,0.6,1,0.1c0.3-0.4,0.6-0.4,1.4,0.3l1,0.9l-0.4-1.4c-0.2-0.8-0.4-2-0.3-2.7c0-0.7-0.2-1.4-0.6-1.5
		c-0.4-0.1-0.7-0.7-0.7-1.2c0-1-1.6-2.8-2.4-2.8h0c-0.3,0-0.8,0.6-1.3,1.3c-0.4,0.7-1.5,1.8-2.3,2.4c-1.8,1.3-2,1.9-0.7,1.9
		c1.4,0,2.2,1.3,1.6,2.4c-0.3,0.5-0.6,1.3-0.6,1.8c0,0.6-0.3,0.9-0.9,0.9c-0.5,0-1.1,0.3-1.2,0.7c-0.2,0.4-0.8,0.7-1.3,0.7
		c-1.3,0-2.9,1.7-3,3.2c0,0.6-0.4,1.6-0.8,2.3l-0.8,1.2l-1.3-1.2c-1.6-1.5-3.9-2-4.7-1.1c-0.5,0.6-0.4,0.8,0.1,1
		c0.4,0.1,0.7,0.5,0.7,0.8c0,0.8,2.4,3.5,3.1,3.3c0.4-0.1,0.5,0.4,0.3,1.7c-0.1,1.1,0,2,0.3,2.2c0.3,0.2,0.5,0.9,0.5,1.6
		c0,0.7,0.3,1.7,0.7,2.3c1,1.4,0.5,4.3-1.5,8.5c-1.2,2.5-1.6,4.1-1.7,6.1c0,1.5-0.3,3-0.7,3.3s-0.6,1.1-0.6,1.7c0,1.7-1,2.5-4,3.3
		c-3.6,0.9-4.6,0.5-5.6-2.7l-0.8-2.4l0,2.3c0,1.2,0.3,3,0.7,4c0.9,2.2,0.9,2.6-0.1,2.1c-0.5-0.3-1.1-0.3-1.6,0
		c-0.5,0.2-1.3,0.7-1.8,0.9c-0.7,0.3-0.9,0.3-0.9,0c0-0.3-0.2-0.4-0.5-0.3c-0.3,0.1-0.6,1.8-0.8,4.1c-0.1,3.6-0.3,4.1-1.4,5.1
		c-1.1,1-1.3,1-2,0.4c-0.5-0.4-1.2-2-1.6-3.4c-0.5-1.5-1.4-3.3-2.1-4c-0.7-0.7-1.5-1.6-1.8-2.1c-0.6-0.8-0.6-0.8-1.2-0.1
		c-0.8,1-1.3,1.1-1.3,0.1c0-0.4-0.2-0.7-0.5-0.7c-0.2,0-0.5,0.3-0.5,0.7c0,0.4-0.6,1.3-1.2,1.9c-1,0.9-1.2,1.5-1,2.7
		c0.1,0.9-0.1,2.1-0.5,2.9c-0.6,1.2-0.6,1.6,0,3.8c0.8,2.5,1.4,3.1,3.2,3.1c1.2,0,1.1,0.8-0.2,1.7c-1.4,0.9-1.2,1.8,0.7,2.5
		c1.6,0.7,2,2,1.1,4.2c-0.4,0.9-0.6,1.9-0.4,2.3c0.1,0.3-0.1,1.1-0.5,1.6c-0.7,1-0.7,0.9-0.7-0.6c0-0.9,0.3-2.2,0.7-2.8
		c1-1.7,0.8-2.2-0.8-2.8c-1.8-0.7-2.2-0.3-1.1,0.8c0.6,0.6,0.7,1.3,0.5,2.2c-0.3,1.2-0.5,1.2-2.3,1.1c-1-0.1-2.2-0.3-2.6-0.4
		c-0.4-0.1-0.8,0.4-1.2,1.5c-0.3,0.9-1,2.4-1.6,3.3c-0.8,1.2-0.9,2-0.7,2.8c0.1,0.7,0.3,1.8,0.4,2.6c0.2,2.8,0.1,2.7,1.7,2.4
		c0.9-0.1,1.8,0,2.2,0.2c0.5,0.4,0.9,0.4,1.8,0c1.1-0.6,1.3-0.5,2.5,0.8c1.4,1.4,2.3,3.5,1.6,3.5c-0.2,0-0.7-0.5-0.9-1.2
		c-0.7-1.4-1.5-1.6-1.5-0.2c0,0.5-0.2,0.9-0.5,0.9c-0.2,0-0.5-0.3-0.5-0.6c0-0.5-3.2-2.7-3.9-2.7c-0.4,0-4,4.9-5.3,7.3
		c-0.7,1.3-1.6,2.8-1.9,3.3c-0.4,0.5-0.7,1.5-0.7,2.2c0,0.8-0.3,1.4-0.9,1.6c-0.5,0.1-0.9,0.7-0.9,1.2c0,0.5-0.6,1.2-1.4,1.6
		l-1.4,0.8v-2.5c0-1.9,0.3-3.1,1.3-4.8c1.2-1.9,1.3-2.5,1-4.6c-0.5-3.5-1-3.8-3.4-1.6c-3.7,3.3-4.6,5.9-1.9,5.2
		c0.8-0.2,1.1-0.1,1,0.3c-0.1,0.3-0.9,0.8-1.8,1c-1.3,0.3-1.8,0.8-2.5,2.5c-0.6,1.2-1.9,2.9-3.2,4c-1.2,1-2.4,2.4-2.7,3
		c-0.5,1.2,0.3,3.4,1.3,3.4c0.3,0,1,1,1.6,2.2s1.5,2.4,1.9,2.7c1.3,0.8,1.1,1.3-0.7,1.3c-0.8,0-2.4,0.4-3.4,0.9
		c-1,0.5-2.2,0.9-2.7,0.9c-0.5,0-0.8,0.3-0.8,0.9c0,0.5-0.2,0.9-0.4,0.9c-0.7,0,0.3-3.3,1.3-4.7c0.6-0.7,1.3-1.8,1.6-2.4
		c0.7-1.2,0.7-1.3-0.9-2.1c-1.1-0.6-1.6-1.2-1.6-1.9c0-1.5-0.7-1.7-2.3-0.8c-1.6,0.8-6.4,4.7-9.5,7.6c-1.2,1.1-3.1,2.4-4.3,2.9
		c-3.1,1.4-5.1,4-5.1,6.7c0,1.2-0.3,2.6-0.8,3.2c-0.8,1.2-0.5,2,0.8,2c0.6,0,1.4,0.5,1.9,1c0.9,1.2,1.2,2.3,0.3,1.4
		c-0.8-0.8-1.8-0.7-1.8,0.3c0,1.1-1.7,1.2-2.1,0.1c-0.1-0.5-0.8-1.6-1.4-2.5c-0.8-1.2-0.9-1.7-0.5-1.9c0.4-0.1,0.5-0.8,0.4-1.6
		c-0.1-1.2-0.4-1.5-2-1.7c-1.9-0.3-3.2,0.1-5,1.8c-1.2,1.1-1.5,2.8-0.4,2.4c0.4-0.2,0.7,0,0.7,0.4c0,1.2-2.7,0.5-3-0.8
		c-0.4-1.5-1.8-1.9-3.5-1c-1.4,0.7-5,0.6-5.6-0.2c-0.4-0.7-1.1-0.5-1.1,0.2c0,0.4-0.4,1-0.9,1.5c-0.7,0.6-0.8,1.2-0.7,2.6
		c0.1,1.1,0,1.9-0.3,2.1c-0.3,0.2-0.4,0.8-0.2,1.5c0.2,0.8,0.1,1.1-0.5,1.1c-0.5,0-0.8-0.4-0.8-1.5v-1.5l-2.2,0.3
		c-4.3,0.6-4.8,0.8-4.8,1.7c0,0.5,0.2,0.9,0.5,0.9c1.1,0,0.3,0.9-1.4,1.8c-2,1-2.5,0.9-1.9-0.4c0.6-1.1,0-4.2-0.8-4.6
		c-1.3-0.5-4.4,1.4-6,3.7c-0.9,1.2-2.3,2.6-3.1,3.1s-1.5,1-1.5,1.2c0,0.2-0.4,0.4-0.8,0.4s-1.2,0.3-1.6,0.8c-0.6,0.6-1,0.7-1.4,0.3
		c-0.3-0.3-2.7-0.6-5.3-0.8c-2.6-0.1-5.3-0.3-6.1-0.4c-1.3-0.1-1.4,0-2.2,2.9l-0.8,3l1.4,1.6c1.7,1.9,1.7,2.5,0.4,4.8
		c-0.8,1.5-0.9,2.1-0.6,3.9c0.5,2.1,0.4,2.2-1.1,3.4c-0.9,0.7-1.6,1.6-1.6,2.2c0,0.5-0.2,1-0.5,1.2c-0.3,0.2-0.8,1.1-1.2,2
		c-0.4,0.9-1.2,2.2-1.7,2.7c-1.5,1.5-4.2,5.9-4.2,6.9c0,0.5-0.4,1.1-0.9,1.4c-0.5,0.3-0.9,0.7-0.9,1s-0.8,1.9-1.9,3.6
		c-1.1,1.7-2.3,4.3-2.6,5.7c-0.7,2.3-0.7,2.6,0.1,4.3c0.4,1,1.3,2.5,1.9,3.3c1.3,1.8,1.4,3,0.3,6.4c-0.8,2.4-0.8,2.6,0.3,7.1
		c0.7,2.6,1.1,5.8,1,7.4c0,3.6,1,6.8,2.7,8.4c0.8,0.7,1.4,1.5,1.4,1.8s0.8,2.4,1.6,4.5c0.2,0.4,0.3,0.7,0.4,1.1h168.6
		C393.8,238.9,394.2,237.8,394.5,236.7z M391.6,4.5c-0.4-0.4-0.4-0.7-0.1-0.7s0.7,0.2,0.8,0.5C392.8,5.1,392.3,5.3,391.6,4.5z"/>
	<path fill="#FF3319" d="M364,54.6c0.8,0.5,0.9,0.4,0.7-0.3c-0.2-0.4-0.3-0.9-0.3-1s-0.3-0.2-0.7-0.2s-0.7,0.2-0.7,0.5
		C362.9,53.9,363.4,54.3,364,54.6z"/>
	<path fill="#00CC28" d="M274,477.4c2.6-2.3,13.5-7.9,16.2-8.3c1.3-0.2,4.5-0.9,7.1-1.6c4.7-1.3,4.8-1.3,7.2-0.5
		c2.4,0.8,2.4,0.8,4.4-0.2c1.1-0.6,3-1.8,4.2-2.8c2-1.6,2.4-1.8,3.2-1.3c0.9,0.6,1.1,0.5,2.2-0.7c0.7-0.8,1.7-1.5,2.4-1.7
		c0.9-0.3,1.3-0.7,1.2-1.4c0-0.6,0.2-1,0.6-1s0.6-0.6,0.6-1.4c0-0.8,0.5-2,1.1-2.7c0.7-0.8,1.3-2.3,1.4-3.6c0.2-1.2,0.8-3.1,1.2-4
		c0.5-1,1.4-3.7,2-6c0.6-2.3,1.2-4.4,1.4-4.7c1.2-1.6,4-7.8,3.5-7.9c-0.3-0.1-0.1-0.6,0.5-1.1c1.5-1.4,3.9-7.2,4.4-10.8
		c0.8-5.9,1.3-7.5,3.4-12.2c1.5-3.5,2.1-5.4,2.1-7.3c0-1.5,0.4-3.3,0.9-4.2c1-1.9,2.1-7.1,3.2-14.8c0.5-3.1,1-6,1.2-6.4
		c0.7-1.3,2.8-7.8,2.8-8.4c0-0.3,1.3-3.3,2.9-6.5c1.6-3.2,3.2-7.2,3.6-8.8c0.4-1.6,0.9-3.2,1.2-3.7c0.2-0.4,0.8-2.4,1.3-4.4
		c0.5-2,1.4-4.3,1.9-5.1c0.5-0.8,1.1-2.8,1.4-4.3s0.9-4.3,1.5-6.3c0.8-2.8,0.9-3.5,0.4-3.9c-0.5-0.3-0.5-0.5,0.2-0.9
		c0.9-0.5,2.2-4.5,4.9-15c1.1-4.2,2.4-8.2,3.6-10.5c1.8-3.6,4.5-10.4,4.8-12.3c0.1-0.5,0.6-3,0.9-5.4c0.5-2.8,1.4-5.7,2.4-7.8
		c0.9-1.8,1.8-4.2,2.1-5.2c1.4-6,2.5-9.3,3.8-12c1.6-3.4,2.9-6.7,4.2-10.3H224.8c0.9,2.2,1,3.2,0.7,3.9c-0.2,0.6-0.7,2.4-0.9,4
		c-0.5,2.7-0.5,3,0.8,5.1c0.7,1.3,1.7,2.9,2.4,3.7c0.6,0.8,1.1,1.6,1.1,1.8c0,0.2,0.9,1.8,2.1,3.5c2.5,3.9,2.6,5.3,1,9.2
		c-1.6,3.9-2,5.9-1.1,6.5c0.9,0.7,2.7,3.8,2.7,4.6c0,0.4-0.3,1-0.7,1.3c-0.4,0.3-0.8,1.1-0.9,1.7c-0.2,0.7-1,1.9-1.8,2.7
		c-0.8,0.8-2.5,3.6-3.8,6.1c-1.2,2.5-2.4,4.6-2.7,4.6c-0.2,0-1.2,1-2.1,2.2c-1.2,1.6-1.6,2.7-1.6,3.9c0,1.9-2.1,5.7-3.1,5.7
		c-1,0-2.4,1.8-3.5,3.9v131.9c2,2.1,2.2,2.8,1.9,3.4c-0.8,1.5-0.6,2.5,1.2,5.2c0.9,1.4,1.7,3.3,1.9,4.1c0.1,0.8,0.5,1.7,0.8,1.9
		c0.3,0.2,0.8,0.8,1,1.3c0.3,0.6,1.1,1,2.1,1.1c0.8,0.1,2.4,0.8,3.3,1.6s1.9,1.4,2.2,1.4c0.2,0,0.6,0.9,0.9,2l0.4,2l4.5,0.3
		c2.4,0.2,6.5,0.9,9,1.6c4.2,1.2,4.6,1.4,5.4,2.9c0.7,1.3,1.6,2,4.3,3.2c1.6,0.7,2.5,1.2,3,1.7h14.7
		C271.4,479.5,272.6,478.6,274,477.4z M230.4,468.6c-0.6,0-1.1-0.4-1.2-0.9c-0.1-0.5-0.1-0.9,0.1-0.9c0.2,0,0.8,0.4,1.2,0.9
		C231.3,468.6,231.3,468.6,230.4,468.6z"/>
	<path fill="#FFFFFF" d="M211.8,318.8c-0.6,4.5-1.4,7.5-2.3,8.7c-0.7,1-1.3,1.2-4.1,1.4c-1.9,0.2-4,0.7-5,1.2
		c-1.5,0.8-1.8,1.3-2.3,3.2c-0.6,3-0.6,4.3,0.2,7.3c0.6,2.2,0.6,2.4-0.2,2.4c-0.4,0-1.5,1-2.3,2.2c-1.3,1.9-1.5,2.5-1.3,4.2
		c0.1,1.1,0,2-0.2,2s-0.4-0.3-0.4-0.8c0-0.7-0.1-0.7-0.7-0.2c-0.4,0.3-0.7,1-0.7,1.6c0,0.5-0.3,1.3-0.7,1.7
		c-1.6,1.8-1.3,7.5,0.4,7.5c0.4,0,0.8,0.3,0.9,0.7c0.2,0.5-0.1,0.7-1.1,0.7c-1.2,0-1.4,0.2-1.6,1.7c-0.1,1,0,2,0.2,2.3
		c0.7,0.8,1.8,5,1.8,6.5c0,0.8,0.5,3.5,1.1,6c1.1,5,2.1,6.6,7.2,12c2.2,2.3,2.4,2.9,2.7,5.2c0.1,1.4,0.1,3.2,0,3.9
		c-0.2,1,0.1,1.6,2.3,3.7c2.4,2.3,2.6,2.6,2.2,3.7c-0.3,0.8-0.3,1.4,0,1.8c0.6,0.8,0.1,1.2-1.5,1.2c-1.9,0-2.1,1.3-1.4,10.2
		c0.3,4.2,0.4,7.9,0.3,8.1c-0.2,0.3-0.2,2.6,0,5.1l0.3,4.6l4.9,5.1c1,1.1,1.9,1.9,2.5,2.6V314.5C212.6,315.9,212,317.4,211.8,318.8z
		"/>
</g>
</svg>
