<?xml version="1.0" encoding="utf-8"?>
<!-- Generator: Adobe Illustrator 17.1.0, SVG Export Plug-In . SVG Version: 6.00 Build 0)  -->
<!DOCTYPE svg PUBLIC "-//W3C//DTD SVG 1.1//EN" "http://www.w3.org/Graphics/SVG/1.1/DTD/svg11.dtd">
<svg version="1.1" id="flag-icon-css-mk" xmlns="http://www.w3.org/2000/svg" xmlns:xlink="http://www.w3.org/1999/xlink" x="0px"
	 y="0px" viewBox="0 0 640 480" enable-background="new 0 0 640 480" xml:space="preserve">
<g>
	<path fill="none" d="M200.5,480l1.7,1.3l2.3-1.2c0.1,0,0.2-0.1,0.3-0.2H200.5z"/>
	<path fill="none" d="M170.2,481.6l3.5-0.2c2.5-0.2,3.4-0.3,4.7-1.4h-9.2L170.2,481.6z"/>
	<path fill="#D20000" d="M369.2,180.6L490.5,55.3l-0.3-0.2l-3.7-1.8l-3.5-7.5c-3.1-6.4-3.8-7.6-5.6-8.3c-1.6-0.7-2.5-1.8-4.4-5.8
		c-2.3-4.7-2.8-5.2-7-7.9c-3.4-2.2-18.4-14-21.9-17.1c-0.2-0.2,0-1.4,0.5-2.7c0.8-1.9,0.8-2.4,0.2-3c-0.6-0.6-2-0.2-7.2,2.3
		c-5.9,2.7-6.5,3.1-6.5,4.6c0,2.7-2.2,4.2-6.3,4.2c-3.5,0-3.6,0.1-7,3.4c-3.3,3.3-3.5,3.4-5.4,2.7c-2.1-0.7-3.2-0.2-3.8,1.8
		c-0.3,1-0.8,1.1-3.8,0.8c-2.9-0.3-4.1-0.1-8,1.4c-4.1,1.6-4.9,1.7-7.6,1.2c-2.4-0.4-3.4-0.4-4.9,0.5l-1.9,1l-4-3.9
		c-3.3-3.2-4.4-4-6.5-4.2c-1.7-0.2-3.7-1.2-6.3-3.1c-3.3-2.3-4.1-2.6-5.6-2.2c-1.7,0.4-1.7,0.5-1.8,4.9l-0.1,4.4l-2.4,1.3
		l-27.5,141.4C343.7,165,357.8,171.2,369.2,180.6z"/>
	<path fill="#D20000" d="M243.7,251.4L21.8,284.7c0.4,1,0.6,2.1,0.6,3c0,1.5,0.4,3.2,0.9,3.8c0.5,0.7,0.9,1.8,0.9,2.6
		c0,2.1,1.7,4.4,3.3,4.4c1,0,2.3,1.1,4.4,3.5c3.7,4.3,4.3,6.1,2.6,8.3c-0.8,1-1.3,2.5-1.3,3.8c0,2.8-1.6,6.4-3.8,8.5
		c-0.9,0.9-1.6,2.3-1.6,3.1c0,0.9-0.5,1.8-1.3,2.2c-1.1,0.5-1.5,0.4-2.9-0.9c-2-1.9-3.2-1.6-4.1,1.1c-0.6,1.8-0.5,2.2,1.1,3.7
		c1.6,1.5,1.7,2,1.7,5.8c0,2.4,0.4,5,1,6.4c0.8,1.9,0.8,2.7,0.2,5.4c-0.7,3.1-0.7,3.2,1,4.9c1.7,1.7,1.7,1.7,0.9,5.4l-0.8,3.7
		l1.9,1.9c1.6,1.7,1.9,2.4,1.9,5.3v3.4l3.2,1.4c2.4,1.1,3.3,1.9,3.6,3.1c0.2,0.9,1.2,2.6,2.2,3.8s2,3.1,2.2,4.3
		c0.2,1.1,1.2,3.7,2.1,5.5l1.7,3.4l-1.2,2.8c-1.4,3.2-1.3,3.9,1.4,7c1.7,2,2.6,2.5,6.7,3.5c2.6,0.6,5,1.1,5.2,1.1
		c0.3,0,0.4-1.7,0.2-3.8c-0.3-3.2-0.1-4.1,1.1-6.4c3.1-5.8,4-7.9,3.8-9.8c-0.2-1.6,0.1-2,2.2-3.3c2.2-1.3,2.9-1.4,8.1-1.1
		c4.1,0.2,6.2,0.5,7.5,1.3c1.9,1.1,8.3,10.6,9,13.2c0.4,1.4,2.8,2.8,5,2.8c2,0,2.3,1.1,1.2,4.4c-0.4,1.1-0.7,2.2-0.8,3.2
		l165.5-124.1C250.8,276.3,245.7,264.4,243.7,251.4z"/>
	<path fill="#D20000" d="M117,463.2l1.6-1.2c1.1-0.8,2-1.1,3.1-0.8c0.8,0.2,2,0.1,2.6-0.2c1-0.5,2,0.3,7,5.4
		c6.1,6.3,7.7,7.4,9.5,6.4c1-0.5,0.9-0.7-0.7-2.1l-1.6-1.6l1.3-0.5c0.7-0.3,1.3-0.7,1.3-1c0-1-2.1-2.5-4.5-3.2
		c-1.8-0.6-2.5-1.2-2.8-2.6c-0.6-2.3-2.2-3.3-6.6-3.9c-3.4-0.5-5.8-2.1-5.9-4c0,0,0,0,0,0l-7.3,7.6L117,463.2z"/>
	<path fill="#D20000" d="M311.8,163.3L287.8,40.2c-0.8-0.1-1.4-0.4-1.5-0.8c-0.2-0.5-1.1-0.9-2.3-0.9c-1,0-2.4-0.4-3-0.9
		c-1.6-1.3-2.5-1.1-5,0.6c-1.9,1.2-2.6,1.4-4.1,1c-1.3-0.4-2.2-0.3-2.9,0.3c-0.6,0.5-2.2,0.8-3.4,0.8c-2,0-2.3-0.2-2.3-1.4
		c0-2.2-2.9-4.3-8.1-6.1c-3.9-1.3-5.2-1.5-6.5-1c-0.9,0.3-2.3,0.6-3.1,0.6c-1.2,0-1.4,0.3-1.4,2c0,1.1-0.4,2.6-1,3.3
		c-0.9,1.3-0.8,1.6,0.7,3.8c0.8,1.4,1.4,2.6,1.3,2.8c-0.4,0.4-2.4-0.2-7-2c-1.8-0.7-3.4-1-4.8-0.7c-1.7,0.3-2.3,0.9-4,4
		c-1.1,2-2.4,3.6-2.9,3.6s-1.4,1.1-2.1,2.6c-1.1,2.3-1.4,2.6-3.1,2.3l-1.8-0.3l0.4,2.9c0.3,2.6,0.1,3.2-2,6.1
		c-1.8,2.5-2.2,3.5-1.9,4.5c0.4,1.1-0.1,2.3-2.8,6l-3.2,4.7l0.9,2.8c1,2.6,0.9,2.8-0.4,4.1c-0.7,0.8-1.6,1.4-2,1.4
		c-0.4,0-1.2,0.6-1.9,1.3c-1.1,1.2-1.6,1.3-6.4,0.9c-7.3-0.5-7.4-0.5-7.8-6.3c-0.4-4.8-0.4-4.9-5.8-13.7c-2.9-4.9-5.4-9.5-5.4-10.1
		c0-0.9-1.2-1.6-5.4-3.1c-5.2-1.9-5.5-1.9-7.7-1c-1.2,0.5-2.9,1.6-3.8,2.4c-0.8,0.8-3.1,2-5,2.8c-2.1,0.8-3,1.2-3.6,2.1l115.1,118.9
		C282.2,171.2,296.3,165,311.8,163.3z"/>
	<path fill="#D20000" d="M258.3,193.7l-142.7-107l-3.9,0.6c-5.5,0.8-6.5,1.1-8.1,2.8c-1.5,1.4-2.9,2-6.9,2.8c-4.3,0.9-5,1.2-5.2,2.3
		c-0.1,0.7-1.4,2.5-3,3.8c-2.3,2.2-2.7,2.9-2.6,4.7c0.1,1.6-0.3,2.5-1.8,4l-1.9,2l0.3,7c0.3,6.8,0.4,7.1,1.9,8.3
		c0.9,0.7,1.8,2.1,2.1,3.1c0.6,2.2-0.2,5.7-1.4,6.4c-0.8,0.5-0.6,1,1.3,3.2c1.9,2.3,2.1,2.9,1.8,4.7c-0.2,1.2-0.8,2.3-1.3,2.5
		c-0.4,0.2-0.8,0.9-0.8,1.6c0,1.6-0.5,2.2-2.8,3.8c-1.2,0.9-2.3,2.6-3.3,5c-1.5,3.8-1.7,4-6.9,5.6c-1.6,0.5-3.4,1.1-4,1.3
		c-0.7,0.3-1.1-0.2-1.7-1.9c-0.4-1.3-0.9-2.5-1.1-2.7c-0.2-0.2-1.8-0.1-3.6,0.2c-2.8,0.6-3.4,1-5.3,3.6c-1.2,1.6-2.6,2.9-3.2,2.9
		c-0.7,0-1.8-1.2-3.1-3.4l-1.9-3.4l-3.1,0.4c-1.7,0.2-3.8,0.4-4.6,0.4c-1.1,0-2,0.7-3.4,2.5c-1.7,2.5-1.8,2.8-1.7,8.6
		c0.2,5,0.5,6.7,2,10.5l1.8,4.5l-1.3,1.3c-0.7,0.8-2.1,1.5-3.1,1.7c-1.1,0.2-2.8,0.8-3.8,1.5c-1.7,1-1.9,1.4-1.9,3.9
		c0,1.4-0.2,2.4-0.8,3.6l214.3,32.1C245.7,215.6,250.8,203.7,258.3,193.7z"/>
	<path fill="#D20000" d="M217,476.4l10.1-2.5l7-5.6l7-5.6l5.5,1.8c5.1,1.7,5.5,1.8,6.5,0.9c1-0.9,2-1,7.1-0.6l6,0.4l4.7,6.3l4.7,6.3
		l4-0.4c0.3,0,0.7-0.1,1-0.1l31.3-160.8c-15.5-1.6-29.6-7.9-40.9-17.3L138.3,436.3c0.3-0.2,0.6-0.5,1-0.9c1.9-2,2.6-1.8,3.9,1.1
		c1.3,2.9,2.3,3.5,2.8,1.7c0.6-2.4,2.2-2.1,5.3,1c2.2,2.1,2.9,3.4,2.9,4.6c0,2.2,1.4,5,4.1,7.7c1.7,1.9,2.2,2.9,2.6,5.9
		c0.5,4.2,2,7.5,4.8,11.2c1.6,2.2,1.9,3.1,1.8,5.4c-0.1,2,0.3,3.5,1.3,5.2l0.5,0.8h9.2c0.5-0.4,1-0.8,1.6-1.5c2.1-2,3.2-2.6,4.7-2.6
		c1.1,0,2.4-0.2,3-0.5c1.6-0.8,9.1,1.7,12,4.1l0.7,0.6h4.3C206.6,479.3,211.8,477.7,217,476.4z"/>
	<path fill="#D20000" d="M381.7,286.3l142.4,106.8c1.8-1.3,2.7-2.8,5.5-7.1c2.2-3.5,4-7.1,4-7.9c0-1.3,0.5-1.7,2.6-2.4l2.6-0.9
		l5,6.3l5,6.3l2.4-0.4c3-0.5,6.3-3.8,6.3-6.5c0-0.9,0-1.9,0.1-2.2c0.1-0.5-1.1-1.1-3.1-1.6c-1.1-0.2-1.8-1-2.6-3.2
		c-0.6-1.6-1.9-4.4-2.8-6.2c-1-1.9-1.9-4.3-2.1-5.5c-0.4-2.1-0.2-2.3,3.4-5.9c3.8-3.7,4-3.8,7.5-2.7c1.6,0.5,1.6,0.2,2.6-8
		c0.5-4.1,0.5-5.8,0-6.4c-0.8-1,0.4-7.1,1.6-8.4c0.5-0.4,1.8-1,2.9-1.2c1.7-0.3,2.3-0.8,3.1-2.7c1.3-3.2,3.2-3.7,5.6-1.4
		c1.7,1.6,1.8,1.7,2.9,0.7c1.9-1.7,5.6-2.2,16-2.4l9.7-0.1l3.1-2.7l3.2-2.8l-0.1-6.5c-0.1-5.3-0.4-7.1-1.6-10l-1.4-3.5l3-3.2
		c3.4-3.7,3.7-5.3,1.5-8.6c-0.4-0.7-0.8-1.6-1.2-2.7l-212.5-31.9C394.3,264.4,389.2,276.3,381.7,286.3z"/>
	<path fill="#D20000" d="M396.3,228.6l222.6-33.4l-3.6-7.8l-4.3-0.5c-4.1-0.5-4.3-0.6-4.3-2.2c0-1-1.4-3.6-3.9-7.1
		c-3-4.2-3.9-5.9-3.9-7.5c0-1.2-1.3-5.2-2.9-8.9c-2.9-6.8-2.9-6.8-5.1-7l-2.2-0.2v-4.2c0-3.9-0.2-4.6-2.5-8.5l-2.6-4.3l-0.3-10.2
		c-0.2-5.6-0.7-11-1.1-12c-0.4-1-0.8-2.8-1-4.1l-0.4-2.2h-4.7h-4.7l-2.8-3.3l-2.8-3.3l-1.7,1.4l-1.7,1.4l-5.7-1.3
		c-5-1.2-6.2-1.7-8.9-4.1c-2.8-2.4-3.5-2.7-7-3.1c-5.9-0.7-7.7-1.4-12.2-5.2c-2.4-2.1-3.9-3-5.3-3.5L381.7,193.7
		C389.2,203.7,394.3,215.6,396.3,228.6z"/>
	<path fill="#D20000" d="M456.4,390.8c0.6,3.3,1.8,4.2,4.3,3.2l-4.6-4.8L456.4,390.8z"/>
	<path fill="#D20000" d="M328.2,316.7l21.6,111.2c1.1-1,1.3-1.7,1.4-2.9c0.2-1.9,0.4-2.2,2.1-2.6c1-0.2,2.5-0.8,3.3-1.3
		c1.4-0.9,1.4-1.1,1-6c-0.4-4.9-0.4-5.2,1.2-7.2c0.9-1.2,4.5-4.4,8-7.1c5.5-4.3,6.7-5.1,9.3-5.4c3-0.4,14.3-4.6,15.8-5.8
		c0.4-0.4,0.7-1.3,0.7-2c0-3.1,0.5-3.4,3.1-1.7c1.3,0.8,2.5,2,2.6,2.5c0.2,0.5,2.5,2.2,5.2,3.8c3.8,2.3,5.4,2.9,7.4,2.9
		c2.6,0,2.8-0.1,6.9-5.1c2.3-2.8,4.3-5.1,4.4-5.1s2-0.5,4.3-1.2c2.3-0.7,6.4-1.4,9.1-1.8l4.9-0.5l7.7,3.5l6.3,2.8l-85.4-88.2
		C357.8,308.8,343.7,315,328.2,316.7z"/>
	<path fill="#FFE600" d="M270.8,180.6L155.8,61.7c-0.3,0.4-0.5,1-0.8,1.8c-1.1,3.4-4.6,5.7-14.7,9.7c-6.5,2.6-8,2.9-9.6,2.5
		c-1.6-0.5-2.3-0.3-4,0.8c-1.1,0.8-2.4,1.4-2.8,1.4c-0.4,0-0.8,0.6-0.8,1.3c-0.1,0.8-1.2,2.6-2.6,4.2l-2.5,2.8l-2.4,0.4l142.7,107
		C262,188.9,266.2,184.5,270.8,180.6z"/>
	<path fill="#FFE600" d="M242.9,240c0-3.9,0.3-7.7,0.8-11.4L29.4,196.4c-0.3,0.6-0.7,1.3-1.3,2.1c-1.3,1.7-2.4,4.1-2.8,6.2
		c-0.7,3.1-0.6,3.4,0.9,5.7c1.4,2.2,1.6,2.9,1.6,7.9c0,4.1-0.2,5.8-0.9,6.5c-0.8,1-0.8,1.3,0.3,4.1c0.7,1.7,1.2,3.7,1.2,4.5
		c0,0.7,0.7,2,1.5,2.8c1.5,1.4,2.2,3.2,3.3,8.7c0.3,1.6,0.7,3.5,0.9,4.1c0.3,1-0.5,1.9-4.5,5c-3.2,2.5-5.4,3.7-6.5,3.7
		c-1,0-2.2,0.4-2.9,0.9c-0.6,0.5-2.4,0.9-3.9,0.9c-2.5,0-2.9,0.2-3.2,1.4c-0.2,0.8-0.1,2.3,0.2,3.5c0.9,3,0.8,3.3-1.6,4.7
		c-1.7,1-2.1,1.6-1.9,2.9c0.1,1.2,0.6,1.7,1.7,2c0.9,0.2,1.8,1.1,2.3,2.2c0.6,1.3,1.4,2,2.6,2.3c1.9,0.4,4.2,3.4,5.3,6.3l221.9-33.3
		C243.2,247.7,242.9,243.9,242.9,240z"/>
	<path fill="#FFE600" d="M320,162.9c2.8,0,5.5,0.2,8.2,0.4l27.5-141.4l-0.2,0.1c-3.1,1.6-4.1,1.7-4.1,0.6c0-0.9-2.6-1.6-6.4-1.6
		c-2,0-2.6-0.2-2.9-1.2c-0.5-1.6-3.8-3-5.2-2.3c-0.6,0.3-1.3,1.3-1.4,2.2c-0.2,0.9-1,2.8-1.9,4.1c-1.4,2.5-1.6,2.6-4.4,2.6
		c-2.4,0-3,0.2-3,1c0,0.5-1.2,2-2.7,3.4c-2.3,2-2.7,2.8-2.7,4.6c0,3.5-0.7,4.1-3.5,3.2c-3.9-1.2-6.8-0.9-8.7,0.8
		c-0.9,0.8-1.6,1.9-1.6,2.2c0,0.4-0.7,1.4-1.6,2.3l-1.6,1.6l-2.8-1.7c-1.9-1.1-3.5-1.7-5.2-1.7c-1.4-0.1-3.1-0.4-4-0.9
		c-0.8-0.5-2.4-0.8-3.5-0.9c-0.3,0-0.5,0-0.8-0.1l23.9,123.1C314.5,163.1,317.2,162.9,320,162.9z"/>
	<path fill="#FFE600" d="M258.3,286.3L92.8,410.4c-0.5,2.8-0.2,5.2,0.8,6.7c1,1.4,1.3,3.1,1.6,11.6l0.4,10l-1.9,4.1
		c-1.1,2.2-2.2,5.4-2.5,7.1c-0.3,1.6-1,4-1.5,5.2c-0.5,1.3-1,3.1-1,4.1c0,2.7-1.6,5.4-3.7,6.1c-1,0.3-1.7,0.8-1.7,1s2.2,1,4.8,1.7
		l4.8,1.3l2.6-2.3c1.5-1.3,2.9-3,3.1-3.7c0.2-0.7,1.6-2.6,3.1-4.1l2.7-2.8l6.2,3.5l3.1,1.7l7.3-7.6c0-1.3,2.5-6.4,3.7-7.5
		c0.7-0.6,2.6-3.2,4.5-5.9c3.4-4.9,4.1-5.3,7-4.2c0.8,0.3,1.3,0.3,1.9,0l132.5-136.9C266.2,295.5,262,291.1,258.3,286.3z"/>
	<path fill="#FFE600" d="M320,317.1c-2.8,0-5.5-0.2-8.2-0.4l-31.3,160.8c3-0.3,3.9-0.8,9.4-4.8c4.5-3.2,7-4.6,8.1-4.6
		c2.2,0,3.2-1.7,2.8-4.8c-0.3-1.9-0.1-2.6,1.7-4.9c1.1-1.5,2.9-3.1,4-3.5c1.7-0.7,2.2-0.7,4.7,0.6c1.6,0.7,4.3,2,6.1,2.7
		c3.2,1.2,3.5,1.3,7.4,0.4l4.1-0.8l2-4.4c1.4-2.9,2-5.3,2-7.1c0-1.4,0.2-3.1,0.4-3.7c0.2-0.5,2.5-2.2,5.1-3.7c4.1-2.3,4.7-3,4.7-4.4
		c0-1.3,0.8-2.2,4.1-4.6c1.3-1,2.2-1.6,2.8-2.2l-21.6-111.2C325.5,316.9,322.8,317.1,320,317.1z"/>
	<path fill="#FFE600" d="M397.1,240c0,3.9-0.3,7.7-0.8,11.4l212.5,31.9c-0.4-1.2-0.7-2.6-1-4.1c-0.8-4.6-0.7-4.7,0.6-6.1l1.4-1.5
		l-1.6-4.9c-1.6-4.9-1.6-5-0.6-7c0.9-1.6,1-2.8,0.7-6.9c-0.4-4.7-0.5-5-2.5-6.6l-2.1-1.7v-8c0-7.8,0-8,1.5-8.9c0.8-0.5,2.3-1,3.3-1
		c1.8,0,2-0.3,5.5-7.7c2.6-5.6,4.4-8.4,6.6-10.7l2.9-3.1l-4.1-8.9l-0.5-1.1l-222.6,33.4C396.8,232.3,397.1,236.1,397.1,240z"/>
	<path fill="#FFE600" d="M381.7,193.7L523.2,87.6c-0.5-0.2-1-0.3-1.6-0.4c-2.3-0.4-3.8-1.3-9.3-5.9c-3.6-3-7.6-6.1-8.7-6.8
		s-3.4-2.6-4.8-4.1c-2.3-2.6-2.8-3.5-3.8-8.1l-1.1-5.3l-3.3-1.6L369.2,180.6C373.8,184.5,378,188.9,381.7,193.7z"/>
	<path fill="#FFE600" d="M369.2,299.4l85.4,88.2l1.4,0.6l0.2,1l4.6,4.8c0.7-0.3,1.5-0.7,2.4-1.3c2.1-1.3,3.8-1.8,7.3-2.1l4.6-0.4
		l3.2,3.1l3.1,3.1l6.5-0.6c3.6-0.4,9.5-1.3,13.1-2.1c3.7-0.8,8.3-1.7,10.2-1.9l3.7-0.3l1.1,2.6c0.5,1.5,1.1,2.7,1.3,2.7
		s2.1-1,4.3-2.2c1.1-0.6,1.9-1,2.6-1.5L381.7,286.3C378,291.1,373.8,295.5,369.2,299.4z"/>
	<path fill="#FFE600" d="M328.2,316.7c15.5-1.6,29.6-7.9,40.9-17.3c4.7-3.9,8.9-8.3,12.5-13.1c7.5-10,12.6-21.9,14.6-34.8
		c0.6-3.7,0.8-7.6,0.8-11.4s-0.3-7.7-0.8-11.4c-1.9-12.9-7.1-24.8-14.6-34.8c-3.6-4.9-7.8-9.3-12.5-13.1
		c-11.4-9.4-25.5-15.6-40.9-17.3c-2.7-0.3-5.5-0.4-8.2-0.4s-5.5,0.2-8.2,0.4c-15.5,1.6-29.6,7.9-40.9,17.3
		c-4.7,3.9-8.9,8.3-12.5,13.1c-7.5,10-12.6,21.9-14.6,34.8c-0.6,3.7-0.8,7.6-0.8,11.4s0.3,7.7,0.8,11.4c1.9,12.9,7.1,24.8,14.6,34.8
		c3.6,4.9,7.8,9.3,12.5,13.1c11.4,9.4,25.5,15.6,40.9,17.3c2.7,0.3,5.5,0.4,8.2,0.4S325.5,316.9,328.2,316.7z"/>
</g>
</svg>
