<?xml version="1.0" encoding="utf-8"?>
<!-- Generator: Adobe Illustrator 17.1.0, SVG Export Plug-In . SVG Version: 6.00 Build 0)  -->
<!DOCTYPE svg PUBLIC "-//W3C//DTD SVG 1.1//EN" "http://www.w3.org/Graphics/SVG/1.1/DTD/svg11.dtd">
<svg version="1.1" id="flag-icon-css-ml" xmlns="http://www.w3.org/2000/svg" xmlns:xlink="http://www.w3.org/1999/xlink" x="0px"
	 y="0px" viewBox="0 0 640 480" enable-background="new 0 0 640 480" xml:space="preserve">
<g>
	<path fill="#FF0000" d="M429.8,320.2c4.1,0,4.3,0,4.8,1.2l0.5,1.2l2.6-1.2c1.4-0.6,2.8-1.2,3.1-1.2c0.3,0,2.4,0.8,4.7,1.8
		c3.9,1.7,4.3,1.7,6.6,1.2c1.4-0.3,3.5-0.4,4.7-0.2c1.2,0.1,3.2,0,4.3-0.2c1.7-0.4,2.7-0.4,5.4,0.2c3,0.7,3.6,0.8,7.4,0
		c4-0.8,4.1-0.8,6.8-3.9c1.5-1.7,3.6-4,4.7-5.2l2-2.1l26.6-1.3l26.6-1.4l1-1.6l1-1.7l5.5,0.3c3,0.1,6.1,0.4,6.9,0.6
		c1.2,0.3,1.3,0.1,1.3-0.9c0-0.6,0.3-1.5,0.7-1.8c0.4-0.3,1.1-1.7,1.7-3c1-2.4,2.6-3.5,5-3.5c0.9,0,3.5-2.5,3.5-3.5
		c0-0.3,0.6-2.5,1.4-4.7c0.8-2.2,1.5-5.5,1.7-7.3c0.3-4.5,2.2-8.4,4.4-8.8l1.5-0.3l-0.2-9.5c-0.1-6,0-9.8,0.2-10.4
		c0.5-0.8-3.5-66.5-4.1-67.3c-0.1-0.2-6.4,0.7-13.7,2c-12.5,2.3-13.4,2.4-13.8,1.5c-0.2-0.4-1.4-1.2-2.5-1.7c-3.2-1.2-3.5-1.8-2-4.1
		c0.7-1,1.3-2.4,1.3-3c0-0.6,0.3-1.2,0.7-1.4c1-0.4,1.4-1.6,0.7-2.7c-0.2-0.5-1-3.4-1.6-6.3c-0.7-3.2-1.5-6-2.2-6.9
		c-1.5-2.1-4.3-3-11.1-3.7c-3.1-0.3-7-0.9-8.7-1.3c-2.7-0.7-3.2-1.2-5.8-4.2c-1.5-1.8-3.2-3.4-3.7-3.4s-1.6,0.4-2.5,0.8
		c-1.8,0.9-2.9,0.9-6.7-0.1c-4.2-1.1-7.1-4.4-7.1-7.9c0-1-0.3-1.3-1.3-1.5c-3.5-0.7-7-1.9-8.4-3c-0.8-0.6-2.4-1.2-3.5-1.3l-2-0.1
		l0-5.4c0-4-0.2-5.5-0.7-6c-0.4-0.3-8.9-5.8-18.8-12c-12.9-8.1-20.1-12.9-32.1-21.7v228H429.8z"/>
	<path fill="#009A00" d="M160.4,304.8c-1.5-0.5-1.6-0.6-1.3-2.8c0.2-1.7,0.1-2.2-0.5-2.5c-1.4-0.5-2.8,1.2-2.8,3.5
		c0,3-1,3.7-5.2,3.7c-1.9,0-3.9,0.3-4.7,0.7c-0.8,0.4-3.8,0.9-6.7,1.1c-5.3,0.3-5.3,0.3-6.9-1c-1.5-1.2-1.8-1.3-6.6-1.3
		c-3.1,0-5.9-0.2-7.4-0.6l-2.3-0.7l-0.3,1.5c-0.2,0.8-0.7,2-1.3,2.5c-2,2-4,4.9-4,5.8c0,1.5-0.8,1.1-2.2-1.2
		c-1.3-2.2-5.2-6.1-8.4-8.3c-1-0.7-2.1-2-2.6-3c-1.1-2.4-3-4.5-4.1-4.5c-0.5,0-1.9,0.9-3.1,2c-1.9,1.7-2.3,1.8-3.4,1.3
		c-1.5-0.7-1.6-0.6-3.9,5.9c-1.4,4.1-1.8,5.8-1.9,9.6c-0.1,4.5-0.1,4.6-1.8,6.3c-1.9,2-6.2,3.7-7.2,2.9c-0.3-0.2-1.3-0.3-2.2-0.2
		c-1.3,0.2-1.6,0.4-1.3,1.1c1.4,3.4,1.4,3.4,0,6.1l-1.3,2.6l2,1.7c1.1,1,2.2,2.4,2.5,3.1c0.3,0.9,0.8,1.4,1.5,1.4c0.9,0,1,0.3,1,5.1
		c0,5.1,0,5.1,1.4,5.9c1.2,0.7,1.4,1,1.2,2.7c-0.2,1.7-0.4,1.9-2.6,2.8c-2.2,0.9-2.4,1.1-2.4,2.7c0,1.4,0.5,2.3,2.4,4.4
		c2,2.2,2.5,3.1,2.6,4.8c0.1,1.9,0.2,2.1,1.7,2.2c1.2,0.1,1.8-0.1,2.6-1.1c0.9-1.1,1.3-1.2,2.7-1c1.3,0.2,1.9,0.7,2.6,2.1
		c0.4,1,0.9,2.6,0.9,3.6c0,1.2,0.8,2.8,2.3,4.8l2.1,3.1l-0.3,3.8c-0.2,2.7-0.5,4-1,4.3c-1.2,0.6-1,5.6,0.3,7.4l1,1.4l-1,2.1
		c-0.6,1.2-1,2.7-1,3.4c0,0.9-0.3,1.3-1.2,1.6c-1.6,0.4-1.6,2-0.1,2.8c0.6,0.3,2,1.6,3,2.8c2.5,2.8,4.3,2.9,7.7,0.2
		c1.3-1,2.7-2.3,3.1-2.7c0.3-0.5,1.4-0.8,2.2-0.8c2,0,4.8,2.6,4.8,4.6c0,1.8,2.2,4.4,3.8,4.4c1.6,0,5.4-3,5.8-4.7
		c0.1-0.7,0.8-1.4,1.3-1.5c0.6-0.2,1.8-0.9,2.9-1.6c2.3-1.6,5.4-1.4,9.4,0.7c7.3,3.7,8.9,4.5,9.9,4.8c0.7,0.2,1.4-0.2,2.9-2.2
		c1.5-1.9,2.2-2.4,3.3-2.4c0.9,0,1.6-0.3,2-1c0.4-0.7,1-1,2.6-1c2.6,0,3.3-0.6,3.3-2.8c0-1.1-0.3-1.8-1-2.1
		c-1.6-0.8-1.2-1.9,1.1-2.5c2.6-0.7,4.4-0.3,8.1,1.6c2.3,1.2,2.9,1.8,2.8,2.6c-0.1,0.5-0.5,1.2-0.9,1.4c-1.1,0.6-0.8,2,0.8,3.6
		c1.2,1.1,1.5,1.8,1.5,3.5c0,1.9,0.1,2.1,1.5,2.3c1.4,0.3,1.5,0.5,1.5,2.4c0,1.2-0.3,3.4-0.7,5c-0.7,3.2-0.4,3.9,2.6,4.9
		c1.1,0.4,1.7,0.9,1.9,2c0.3,1.7,2.2,3.9,3.4,3.9c0.4,0,0.7,0.3,0.7,0.6c0,0.4,0.8,0.9,1.9,1.2c3.5,1.1,4.1,3.4,1,4.3
		c-0.9,0.3-3,1.7-4.6,3.2c-2.2,2.1-2.8,3.1-3,4.5l-0.1,1.7l2.3,0.1c2.1,0.1,2.4,0,3-1.1c0.4-1.1,0.9-1.3,2.6-1.3
		c3.4,0,4.5,2.4,3.3,7.5c-0.2,1.2-0.1,3.5,0.3,6.7c0.7,4.5,0.9,4.9,2.3,5.8c0.8,0.5,1.9,0.9,2.4,0.9c0.4,0,0.9,0.4,1,1.1
		c0.1,0.7,0.6,1.2,1.9,1.5c2.5,0.6,3,1.2,3,3.4c0,1.9,0,1.9,1.9,1.9c1.8,0,2-0.2,3.5-2.6c2.8-4.6,3.2-4.8,7.2-4.8
		c1.6,0,2.5,0,3.1,0.2V306.4C186.3,305.8,161.2,305.1,160.4,304.8z"/>
	<path fill="#FFFF00" d="M229.3,477c-0.7-1.9-0.1-2.6,3-3.2c1.8-0.4,2.6-0.4,3.6,0.2c2.2,1.2,4.7-0.8,2.7-2.2
		c-0.7-0.5-0.8-1.1-0.6-3.4c0.1-1.5,0.5-3.2,0.8-3.8c0.6-1,0.6-1,2.3,0.7c2,2,4.4,2.4,4.9,0.9c1-3.2,1.3-3.6,2.7-3.6
		c0.7,0,1.5-0.2,1.7-0.5c0.5-0.8,1.7,0.4,2.6,2.4c0.6,1.4,0.5,1.7-0.2,2.9c-0.8,1.3-0.8,1.3,0.2,2.2c1.4,1.2,1.4,3-0.1,4.5
		c-1.3,1.2-1.7,3.4-0.6,3.7c0.3,0.1,1.4,0.4,2.5,0.7c1.6,0.5,2,0.5,3.6-0.4c0.9-0.6,1.7-1.5,1.7-2c0-2.2,7.5-5.4,12.8-5.5
		c3.3,0,3.9-0.7,4.4-4.9c0.4-4.6,0.4-5,0-11c-0.4-5-0.2-5.5,2-5.6c0.5,0,1.8-0.8,2.8-1.7c2.2-2.1,3.4-5.5,3.4-9.6
		c0-2.4-0.2-3-1.7-4.8c-0.9-1.1-2.2-3.1-2.9-4.4c-0.9-2-1-2.4-0.4-2.8c1.2-0.7,9.5-3.4,11.7-3.7c7.5-1.1,7.1-0.9,13.3-7l5.8-5.6
		l-0.5-2.9c-0.3-1.6-0.7-4-1-5.5c-0.7-3.6-0.1-4.3,3.2-3.9c3.4,0.5,4.4-0.4,4.4-4c0-1.8-0.2-2.8-0.8-3.3c-0.4-0.3-1.3-1.7-2-3.1
		l-1.2-2.5l1.2-1.1c0.7-0.6,1.7-1.4,2.2-1.8c0.5-0.3,1.5-1.7,2.3-3c0.7-1.3,2-2.7,2.8-3.1c1.6-0.8,2.2-0.9,1.7-0.3
		c-0.1,0.3,0.8,0.6,2.1,0.8c1.6,0.2,3.9,1.3,7.1,3.2c5.4,3.3,8,3.9,8,1.7c0-1.3,0.6-1.6,4.2-1.8l1.9-0.1l-0.1-4.5
		c0-2.5,0.1-5.4,0.4-6.5c0.4-1.7,0.8-2.1,2.1-2.3c1.2-0.2,1.9,0,3.2,1c1.2,0.9,2.1,1.2,3.3,1.1l1.6-0.1l0.3-3.5
		c0.5-5.5,1.3-7,6.1-11.8c5.8-5.9,6.4-6,13-1.9l4.9,3l1.6-1.6c1.5-1.5,1.7-2,2.5-7.5l0.9-5.9l13.7-4.9c7.5-2.7,14.5-5.2,15.5-5.7
		c1-0.4,3.5-2.2,5.6-4l3.7-3.2h1.4v-228c-1.6-1.1-3.2-2.4-5-3.7c-10.5-7.7-42.2-30.2-70.5-49.9L299.9,2.7l-20.4-0.3
		c-11.2-0.1-22.8-0.4-25.7-0.6c-3.2-0.2-5.4-0.1-5.4,0.1c0,0.2,0.4,4,1,8.4c0.5,4.3,2,19.5,3.2,33.6c5.9,67.3,10.7,118.3,14.9,161.3
		c1.2,12.2,3.1,32.1,4.2,44.3c1.1,12.2,2.1,22.9,2.3,23.8c0.2,1.5,2.1,3.2,8.1,7.4c0.3,0.2-5,26.2-5.4,26.6
		c-0.3,0.3-33.2-0.2-63.9-0.9v164.8c0.6,0.2,0.8,0.5,1.1,1.1c0.3,0.7,0.9,1.4,1.3,1.5c0.4,0.2,0.7,0.8,0.7,1.5
		c0,1.1,0.1,1.2,2.9,1.2c2.3,0,3.1,0.2,3.9,1c1.1,1.2,3.3,2.4,4.5,2.4c0.5,0,1.2-0.3,1.7-0.8C229.7,478.6,229.8,478.2,229.3,477z"/>
</g>
</svg>
