<?xml version="1.0" encoding="utf-8"?>
<!-- Generator: Adobe Illustrator 17.1.0, SVG Export Plug-In . SVG Version: 6.00 Build 0)  -->
<!DOCTYPE svg PUBLIC "-//W3C//DTD SVG 1.1//EN" "http://www.w3.org/Graphics/SVG/1.1/DTD/svg11.dtd">
<svg version="1.1" id="flag-icon-css-mm" xmlns="http://www.w3.org/2000/svg" xmlns:xlink="http://www.w3.org/1999/xlink" x="0px"
	 y="0px" viewBox="0 0 640 480" enable-background="new 0 0 640 480" xml:space="preserve">
<g>
	<path fill="#FECB00" d="M388.3,140c-0.6,0-1.6-0.5-2.4-1c-1.4-1-1.4-1-2-0.3c-0.8,1.2-3.1,1.2-5.7,0c-1.2-0.6-2.6-1.1-3.1-1.3
		c-0.7-0.2-0.7-0.5-0.3-1.2c0.7-1.4-0.6-5.7-2.1-6.6c-0.4-0.2-0.3-0.5,0.1-0.9c1.1-1.1,0.7-3-1.3-5.1c-2.8-3.1-3-5.8-0.4-7.1
		c1.3-0.7,3.1-2.8,2.7-3.3c-0.1-0.1-1,0-2.1,0.2c-2.5,0.6-5.2,0.6-6.3,0c-1.3-0.7-9.6,0.4-11.9,1.5c-1,0.5-2.9,1.8-4.2,2.9
		c-3.2,2.6-4.2,2.9-5.5,1.7l-1-0.9l1.7-2.5c1.8-2.5,2.2-4.8,1.1-5.3c-0.4-0.1-0.5-0.7-0.4-1.3c0.3-1.3-0.6-3.1-1.4-3.1
		c-1.4,0-1.8-1.3-1.4-4.5c0.3-3.2,1.1-4.4,3.9-6.2c1-0.7,1-0.8,0.5-2.2c-0.5-1.3-0.4-2,0.1-4.2c0.7-2.6,0.7-2.7,2.9-3.3
		c3.2-0.9,6-4.3,6.7-8.2c0.3-1.9,1.2-2.2,2.9-1c1,0.7,1.1,0.6,3-2.8c2-3.5,2-3.5,3.7-3.4c1.6,0.1,3.2-0.6,3.2-1.5
		c0-0.2-0.8-1.4-1.9-2.5c-1-1.2-1.9-2.3-1.9-2.6s0.8-1.2,1.9-2.1c2.1-2,2.2-2.3,0.9-2.8c-0.7-0.2-0.9-0.6-0.7-1.3
		c0.1-0.6,0.7-2.7,1.3-4.8c1-3.9,1-5.3,0-12.4c-0.3-1.7-0.6-5.7-0.7-8.9c-0.1-3.2-0.2-6.2-0.2-6.7c0-0.6-0.4-0.8-1.4-0.8
		s-1.5-0.3-1.7-0.9c-0.4-1.2-3-1.4-3-0.2c0,0.4-0.6,1.4-1.4,2.2l-1.4,1.5l0-1.3c0-0.7-0.4-2.1-0.9-3c-0.5-0.9-1-2.7-1.2-3.9
		c-0.2-1.2-0.6-2.6-1-3c-0.4-0.5-0.7-1.9-0.7-3c0-1.8-0.3-2.5-1.4-3.6c-0.8-0.8-1.5-1.9-1.7-2.4c-0.4-1.3-2.9-2.4-4.7-2.1
		c-1.5,0.2-1.5,0.2-1.7-1.4c-0.1-1.5-0.3-1.7-1.4-1.7c-0.7,0-1.5-0.3-1.9-0.6c-0.6-0.6-1.1-0.7-2.2-0.2c-1,0.4-1.4,1.1-1.4,3
		c0,1.1-0.3,2-1,2.6c-2.2,2-3,6.1-1.3,7.1c1.4,0.9,1,2.9-0.7,3.5c-1.9,0.6-5.4,3-5.4,3.7c0,0.3-0.7,1-1.7,1.5c-1.8,1-2.9,3-2.9,5.1
		c0,0.8,1.1,2.4,3.3,4.9c2.8,3.2,3.2,3.8,2.8,4.7c-0.6,1.2-1.4,1.2-3.7,0c-1-0.5-2.1-0.9-2.5-0.9c-0.4,0-0.7-0.6-0.8-1.5
		c-0.1-1.3-0.5-1.7-2.3-2.7c-2.1-1.1-2.2-1.1-3.9-0.3c-1,0.5-2.8,0.8-4.5,0.8c-3.3,0-3.9,0.3-9.2,5.5c-5.1,4.9-6.3,5.9-7.1,5.9
		c-0.4,0-0.7,0.5-0.8,1c-0.1,0.8-0.5,1.1-1.5,1.1c-0.8,0-1.5,0.4-2.1,1.2c-0.9,1.4-2.7,2.4-5,2.8c-0.9,0.2-2.4,1-3.4,1.8l-1.7,1.4
		l0.2,4.1c0.1,2.8,0.5,4.6,1.1,5.9c1.1,2.1,0.9,2.7-1.9,5.6c-1.3,1.4-1.4,1.6-0.9,3.1c0.6,1.8,0.4,2.1-0.9,2.1c-0.6,0-1.5,1-2.6,2.8
		c-1.4,2.2-2,2.8-2.9,2.8c-1,0-1.4,0.4-2.2,2.6c-1.3,3-1.4,4.1-0.3,5c1.1,0.9,2.1,3,2.1,4.6c0,0.8-0.6,2.5-1.4,3.7
		c-0.7,1.3-1.4,2.5-1.4,2.8c0,0.3-0.5,0.9-1.2,1.3c-0.7,0.4-1.2,1.2-1.2,1.6c0,0.5-0.4,1.1-0.9,1.4c-0.6,0.3-1.4,1.6-2.1,3
		c-0.6,1.4-1.3,2.6-1.6,2.8c-0.3,0.1-1.4,2.9-2.4,6.1c-1.1,3.2-2.2,5.8-2.5,5.8c-0.3,0-1.4-0.4-2.4-0.9c-1-0.5-2.6-0.9-3.5-0.9
		c-1.4,0-1.8-0.2-2.1-0.9c-0.4-1.2-3.3-1.3-4.7-0.2c-1.4,1-2.3,0.8-3.8-0.7c-1.2-1.1-1.6-1.3-2.5-1c-1.3,0.5-1.2,1.1,0.1,4.4
		c1,2.4,1.9,8,1.3,8.6c-0.5,0.6-1.4,6-1.5,9.1c-0.1,3.5-0.8,4.3-3.3,3.9l-2-0.3l-0.3,3.9c-0.5,5.4-0.4,7.6,0.5,11.4
		c0.4,1.9,0.6,3.3,0.4,4.3h51.4L320,79.1l32.4,80.9h30.7c0.3-0.9,0.8-2,1.2-2.9c1.6-3.5,1.7-3.8,1.2-6c-0.4-2-0.4-2.5,0.2-3.1
		c0.4-0.4,0.9-1.3,1.2-2.1c0.3-0.7,0.8-1.3,1.2-1.3c0.5,0,0.7-0.5,0.7-1.6c0-0.9,0.1-1.9,0.3-2.3C389.2,140.1,389,140,388.3,140z"/>
	<path fill="#EA2839" d="M350.9,356c1.2-0.2,1.2-0.2,1.3,3.1c0.1,3.6,0.8,6.2,2.6,9c1.5,2.4,1.7,3.8,1.1,5.7c-0.6,1.8,0,7,1.3,10.6
		l0.7,1.9l0.5-1.6c0.3-0.9,0.7-2.8,0.8-4.2c0.4-2.8,1.2-2.4,1.2,0.7c0,1.5,0.3,2.1,1.4,3.3c1.6,1.5,3.7,5.7,3.7,7.4
		c0,2.4,0.6,4,1.4,4c0.6,0,1,0.5,1.2,1.3c0.2,0.7,0.6,1.6,0.9,2c0.7,0.7,1,2.7,1.4,7.5c0.2,3.1-0.3,6.8-1.4,8.9
		c-0.3,0.7-0.4,1.7-0.3,2.3c0.2,0.7,0.1,1.4-0.1,1.7c-1.2,1.4,1,3.3,2.3,2c0.3-0.3,0.9-0.4,1.3-0.3c0.7,0.1,0.7,0.3-0.2,1.4
		c-0.9,1.2-0.9,1.4-0.3,2.3c0.4,0.6,0.7,1.4,0.7,1.9c0,1.3-2.1,1.1-3.4-0.3c-0.6-0.7-1.3-1.2-1.5-1.2c-0.7,0-2.1,1.5-2.1,2.4
		c0,1.3,2.1,2.7,3.9,2.7c1.4,0,1.7,0.2,1.7,0.9c0,0.5-0.2,1.1-0.5,1.2c-0.8,0.5-0.5,1,0.7,1.6c1.4,0.6,2.8,0.3,3.2-0.7
		c0.2-0.6,0.4-0.6,1.1,0.1c0.8,0.8,0.7,0.8-0.5,1.4c-1.4,0.6-1.7,1.9-0.8,4.1c0.4,1,0.3,1.5-0.5,2.4c-0.9,1.1-0.9,1.3-0.2,2.3
		c1,1.5,0.9,3.3-0.2,4.7c-1.2,1.5-1.2,2.8-0.1,3.4c0.7,0.5,0.7,0.5,0,0.9c-0.5,0.3-0.8,0.9-0.8,1.4c0,0.6-0.6,1.2-1.6,1.6
		c-1.1,0.5-1.6,1-1.6,1.6c0,1.5-0.5,2.3-1.2,2.1c-0.9-0.3-0.9,3.6,0,7.3c0.7,2.7,0.7,2.9-0.2,4.7l-1,1.9l1.4,2.1
		c1.9,2.8,2.2,2.9,2.6,0.9c0.2-1.1,0.8-2.1,1.9-2.9c1.1-0.9,1.7-1.9,2.1-3.6c0.3-1.3,0.7-2.6,1.1-3c0.3-0.4,0.6-2,0.6-3.6
		c0-2.9,0-3.1,1.7-4.4c1-0.7,2.2-2.3,2.7-3.5c0.5-1.1,1.2-2.1,1.4-2.1c0.8,0,4.2-3.9,4.5-5.3c0.1-0.7,1.1-2.2,2.1-3.4s2.1-3,2.6-4.3
		c0.4-1.2,1-2.8,1.3-3.5c0.3-0.7,0.7-1.3,1.1-1.3c0.6,0,3.5-3,3.5-3.5c0-0.1-0.3-0.7-0.7-1.4c-0.4-0.6-0.7-1.7-0.7-2.4
		c0.2-2.6,0-3.4-1.3-4.9c-1.7-2.1-3.7-9.2-2.9-10.6c0.8-1.5,0.1-2.7-1.9-3.4c-2.1-0.6-5-3.6-5.4-5.5c-0.1-0.7-0.5-2.1-0.9-3.3
		c-1.4-3.9-1.4-4.6,0-5.2c1.6-0.7,1.9-1.9,1.2-6.1c-0.3-1.9-0.7-4.6-0.9-6c-0.2-1.4-1-3.8-1.8-5.2c-0.8-1.4-1.6-3.4-1.8-4.3
		c-0.1-0.9-0.5-1.6-0.7-1.6c-0.2,0-1.7-1.2-3.4-2.6c-1.6-1.4-3.8-2.9-5-3.4c-1.3-0.5-1.8-0.8-2.1-1.6l-20.6-13
		C348.8,355.3,349.4,356.3,350.9,356z"/>
	<path fill="#EA2839" d="M356,431.4c-0.3,0-0.5,0.6-0.5,1.3c0,1.4,0.7,2.8,1.2,2.4C357.2,434.5,356.5,431.4,356,431.4z"/>
	<path fill="#EA2839" d="M368.4,438.7c0-0.1,0.2-1.4,0.4-3.1c0.2-2.8,0.2-3-0.9-3.4c-2.5-0.9-2.9-0.7-2.9,2c0,1.4,0.2,2.7,0.4,3
		C365.6,437.8,368.2,439,368.4,438.7z"/>
	<path fill="#EA2839" d="M357.8,421.2c-0.1-0.5-0.5-0.9-1-1c-0.7-0.1-0.8,0-0.3,0.8C357.1,422.2,358,422.4,357.8,421.2z"/>
	<path fill="#EA2839" d="M362.1,416.2c0,1.8,0,1.8,2.1,1c1.5-0.6,2.1-1.4,2.1-3.7c0-0.9-0.2-1.2-0.7-1c-0.5,0.2-0.7,0-0.7-0.6
		c0-0.9-0.8-2-1.5-2c-0.2,0-0.6,0.5-0.8,1.2c-0.2,0.7-0.7,1.2-0.9,1.2c-0.6,0-0.6,1.7,0,2.1C361.9,414.5,362.1,415.4,362.1,416.2z"
		/>
	<path fill="#EA2839" d="M355.1,416.9c-0.8-0.4-1-0.3-1.2,0.7c-0.4,1.6,0,1.9,1.5,1.3C356.6,418.2,356.5,417.7,355.1,416.9z"/>
	<path fill="#EA2839" d="M362.1,438.1c0.7-1.5,0.9-2.5,0.7-3.6c-0.4-1.9-1-2.9-1.3-2.4c-0.4,0.7-1.7,6.3-1.7,7.2
		C359.8,440.9,361.1,440.3,362.1,438.1z"/>
	<path fill="#34B233" d="M365.6,193.2l51.3,3.4c-0.1-0.2-0.5-0.2-1.3-0.4c-1.4-0.3-1.7-0.5-1.7-1.7c0-0.9,0.2-1.4,0.7-1.4
		c0.9,0,3-3.2,3-4.5c0-1.8,0.5-2.5,1.6-2.2c0.7,0.2,2-0.7,5.5-3.7l4.5-4l-0.6-2.7c-0.3-1.5-0.7-2.7-1-2.6c-0.2,0.1-1.8,0.6-3.5,1.2
		c-1.7,0.6-3.3,1.1-3.6,1.1c-0.3,0.1-0.6,0.8-0.6,1.5c0,2-0.4,2.8-1.8,3.5c-2.4,1.3-4.1,1.4-5.1,0.3c-1-1-2.6-1.3-3.7-0.6
		c-0.4,0.3-1.4,0.1-2.7-0.6c-1.7-0.8-2-1.2-1.9-2.1c0.1-1-0.1-1.3-1.7-1.8c-2.6-0.8-3-1.5-2.5-4.2c0.4-2.4,0.3-3.6-0.8-5
		c-0.5-0.7-0.8-0.7-1.3-0.4c-1,0.8-4.2,0.1-4.4-0.8c-0.2-0.7-0.7-0.9-3.5-0.9c-1.7,0-3.7,0.2-4.4,0.5c-0.9,0.4-1.7,0.4-2.7,0
		c-1.3-0.6-1.4-0.7-1.1-2.5c0.1-0.6,0.4-1.6,0.8-2.6h-30.7L365.6,193.2z"/>
	<path fill="#34B233" d="M287.6,160h-51.4c-0.3,1.3-1.1,1.9-2.6,2.2c-1.7,0.3-1.8,0.4-1.8,2c0,0.9-0.2,1.9-0.4,2.2
		c-0.6,0.9-2.7,0.1-3.6-1.3c-0.8-1.2-1.2-1.4-2.6-1.3c-1.5,0.1-1.6,0.2-1.5,1.7c0,0.8-0.2,2-0.6,2.6c-0.8,1.2-0.9,7.4-0.3,11.6
		c0.6,3.5,0.2,6-0.9,6c-0.5,0-1.1-0.3-1.4-0.7c-0.3-0.4-1.1-0.8-1.7-0.9c-0.7-0.2-1.2-0.6-1.2-1c0-0.8-1.9-1.4-3.2-1
		c-0.5,0.2-1.3,0.7-1.8,1.2c-0.8,0.8-0.9,1.2-0.6,3c0.2,1.2,0.3,2.4,0.2,2.7c-0.1,0.3,0.5,2.9,1.4,5.7c0.3,0.9,0.5,1.7,0.7,2.3
		l59.9-4L287.6,160z"/>
	<path fill="#FFFFFF" d="M264.5,295.3c0,0.4-0.1,0.8-0.1,1.1l0.8-0.6L264.5,295.3z"/>
	<path fill="#FFFFFF" d="M281.3,309.3l-17.4-11c-0.1,0.3-0.3,0.5-0.5,0.7c-0.4,0.3-0.8,0.9-0.8,1.3c0,1.5-1.9,8.5-2.3,8.6
		c-0.2,0.1-0.5,0.5-0.5,0.9c0,0.4-0.3,1.4-0.7,2.1c-0.7,1.6-1.3,8.3-0.8,9c0.2,0.2,0.7,0.7,1.2,1.1c0.7,0.6,1.1,0.4,3.1-1.6
		c1.3-1.3,2.3-2.7,2.3-3.1c0-0.5,0.5-1.1,1.2-1.3c0.7-0.2,1.7-1,2.3-1.7l1.1-1.3l0,1.6c0,1.5-0.3,2-3.3,4.4
		c-1.8,1.5-3.3,2.9-3.3,3.1c0,0.2-0.1,0.7-0.3,1c-0.1,0.4,0.1,0.8,0.8,0.9c0.8,0.2,1.4,0,2.4-1.1c1.5-1.6,1.9-1.8,1.5-0.5
		c-0.2,0.7,0,1,0.5,1.2c0.4,0.2,1,0.8,1.2,1.4c0.6,1.5,1.6,1.4,2.5-0.1c0.4-0.7,1.2-2,1.9-2.7c1-1.2,1.3-1.3,1.6-0.7
		c0.3,0.5,0.1,1-0.9,1.9c-1.4,1.2-1.9,3.3-0.8,3.3c0.4,0,1.1,0.5,1.7,1.1c0.7,0.7,1.4,1,1.9,0.9c0.9-0.2,2.3-3.2,2.3-5
		c0-1.2,1.6-3.5,2.4-3.5c0.3,0,0.3,0.3-0.1,0.7c-0.9,1-0.3,6.3,0.8,7.1c0.7,0.5,0.9,0.5,1-0.2c0.1-0.4,0.6-1.2,1.2-1.8
		c0.6-0.5,1.2-1.9,1.4-3l0.4-2.1l0.2,2c0.1,1.4-0.1,2.3-0.8,3.2c-0.7,0.9-0.8,1.4-0.5,2.1c0.7,1.3,1.2,1.4,3.4,1.1
		c1.6-0.3,2.2-0.7,3.6-2.5c0.9-1.2,2.4-3.6,3.4-5.3c0,0,0,0,0,0L281.3,309.3z"/>
	<path fill="#FFFFFF" d="M244.8,247.4c-0.3,0-1.2,0.2-1.9,0.3c-1,0.2-1.3,0.4-1,1c0.1,0.4,0.4,1.3,0.5,1.8c0.1,0.7,0.6,1.1,1.1,1.1
		s0.9,0.2,0.9,0.5c0,0.3,0.6,0.7,1.3,1c0.9,0.4,1.4,0.3,1.9-0.2C249,251.3,246.9,247.2,244.8,247.4z"/>
	<path fill="#FFFFFF" d="M320,256h-59.6c0.2,1.1,0.9,2.2,2.4,4.1c1.3,1.7,1.4,1.8,0.6,2.7c-0.8,0.9-0.8,1,0.4,2.1
		c1.3,1.2,2.1,4.5,1.5,6.5c-0.1,0.7-0.1,1.3,0.2,1.4c0.2,0.1,0.5,1.2,0.5,2.3c0,1.1,0.2,2.2,0.6,2.5c0.3,0.3,0.6,2.5,0.7,5.7
		c0.1,4.1,0,5.2-0.6,5.4c-0.4,0.1-0.5,0.6-0.4,1c0.2,0.4,0,1-0.6,1.4c-0.6,0.5-0.9,1.5-1.1,4c0,0.1,0,0.2,0,0.2l0.7,0.5L320,256z"/>
	<path fill="#FFFFFF" d="M274.4,193.2l-59.9,4c0.8,2.6,1.2,3,2.4,3.6c1,0.6,1.9,1.6,2.6,3c0.6,1.2,1.5,2.6,2,3.2
		c0.5,0.5,1.2,1.7,1.4,2.6c1.6,4.7,4.2,6.6,6.2,4.7l1.1-1l0.8,1.2c0.5,0.7,0.6,1.2,0.2,1.2c-0.7,0-0.1,6,0.6,6.9
		c0.8,1.1,1.3,0.7,1.4-1.4l0.1-2l1.4,1.4c1.1,1.2,1.3,1.3,1,0.4c-0.2-0.6-0.2-1.5,0-2.2c0.2-1,0.6-1.2,1.9-1.2
		c2.7,0,3.5,1.3,3.5,5.4c0,3.4,0,3.5,1.1,3.5c0.7,0,1.3-0.3,1.4-0.9c0.4-1.2,2.1-3.3,2.6-3.3c0.7,0,0.5,1.2-0.3,1.9
		c-1.1,0.9-0.8,1.8,0.7,2.1c1.3,0.3,1.4,0.5,1.4,2.1c0,1.3,0.2,1.9,0.8,2.1c0.4,0.1,1.4,0.8,2.2,1.4l1.4,1.2l-1.6-0.3
		c-0.9-0.1-2-0.6-2.4-0.9c-1-0.8-2.3-0.4-2.3,0.8c0,0.5,0.5,1.5,1.2,2.3c0.7,0.7,1.2,1.8,1.2,2.2c0,0.8,0.2,0.8,1.4,0.4
		c0.7-0.3,1.5-0.4,1.6-0.2c0.4,0.4-0.7,2.2-1.4,2.2c-1.1,0-5.2-2.7-6.1-4c-0.7-1.2-0.8-1.2-1.7-0.4c-0.5,0.4-0.9,1-0.9,1.3
		s0.9,1.5,2.1,2.7c1.4,1.4,2.1,2.7,2.1,3.5c0,0.7,0.4,1.5,0.8,1.9c0.4,0.4,1.8,1.5,2.9,2.6c0.9,0.8,2,1.5,2.6,1.8l1-2.5
		c0-0.3-0.1-0.7-0.1-1.1c-0.2-2.1-0.2-3.7,0-3.7c1.1,0.2,1.5-0.2,1.6-1.4c0-1.2,0.1-1.2,0.5,0.4c0,0.1,0.1,0.3,0.1,0.4L274.4,193.2z
		"/>
	<path fill="#FFFFFF" d="M296,321.5c0.5-0.9,0.9-1.6,1.3-2.1l-16-10.1L296,321.5z"/>
	<path fill="#FFFFFF" d="M320,256l-21.9-67.3l67.5,4.5L352.4,160L320,79.1L287.6,160l-13.3,33.2l-19,47.5c0.5,1.9,0.5,3.3,0.1,5.5
		c-0.3,1.5-0.1,2.1,0.6,3c0.7,0.9,1,1,1.6,0.6c0.9-0.7,1.4,0,1.1,1.5c-0.2,0.7,0,1.4,0.7,1.9c0.5,0.5,0.9,1.4,0.9,2
		c0,0.3,0,0.6,0.1,0.8H320L320,256z"/>
	<path fill="#FFFFFF" d="M252.6,248.8c0.7,0,0.8-0.3,0.6-2.6l-1,2.5C252.4,248.7,252.5,248.8,252.6,248.8z"/>
	<path fill="#FFFFFF" d="M298.1,188.7L320,256l28.9-21c0.4-2.1,1-4,1.6-4c1,0,3.2-2.5,3.5-4l0.3-1.6l3.1,1.6c0.6,0.3,1,0.5,1.4,0.7
		l18.4-13.4l1.1,4.5c0.1-0.2,0.1-0.4,0.2-0.5c0.6-1.1,0.8-1.2,4.6-1.2c4.9,0,6.7-0.9,6.4-3.2c-0.1-0.8-0.3-1.8-0.6-2.3
		c-0.3-0.7,0-0.8,2.5-0.8c2.3,0,3.3-0.3,5.7-1.6l2.8-1.6l2.2,1.1l2.2,1.1l0.8-4.2c0.8-4.2,0.8-4.2,3-5.8c1.9-1.4,2.6-1.6,4.8-1.6
		c2,0,2.8-0.2,3.4-0.9c0.4-0.4,0.6-0.7,0.5-0.8l-51.3-3.4L298.1,188.7z"/>
	<path fill="#FFFFFF" d="M358.8,227.8c1.5,0.7,2.2,0.8,3,0.4c0.7-0.3,2-0.4,2.9-0.2c1.3,0.2,1.9,0.1,3-0.7c2-1.4,4.9-2.4,7.5-2.4
		h2.2l0.3-2.7c0.1-1.2,0.4-2.5,0.6-3.3l-1.1-4.5L358.8,227.8z"/>
	<path fill="#FFFFFF" d="M320,256L320,256l-54.8,39.8l-0.8,0.6c-0.1,0.8-0.3,1.5-0.5,1.9l17.4,11l16,10.1c1.3-1.8,2.7-2.4,4.7-2.4
		c1.3,0,2.1-0.5,4-2.1c1.3-1.2,2.7-2.1,3-2.1c1.1,0,1.3-0.8,0.5-2c-0.5-0.7-0.7-2.1-0.7-3.5c0-1.4-0.2-2.9-0.5-3.4
		c-0.4-0.7-0.3-0.9,0.1-0.9c0.4,0,0.7,0.7,0.9,1.8c0.6,4.3,2,5.6,5.7,5c3.7-0.6,6.3-2.7,8.8-7.5c2-3.6,2.2-4.4,2-6.1
		c-0.2-1-0.4-2.1-0.6-2.3c-0.1-0.2-0.3-2-0.4-4c-0.1-3.4-0.1-3.5,0.7-2.3c0.4,0.7,1.8,2.1,3,3.2c1.3,1.1,2.2,2.3,2.2,2.6
		c0,0.3,0.3,0.8,0.7,1.1c0.4,0.3,0.7,1.7,0.8,3.3c0.1,1.7,0.5,3.1,1,3.6c0.4,0.5,0.8,1.3,0.8,1.8c0,0.5,0.7,1.5,1.4,2.1
		c0.8,0.7,1.4,1.7,1.4,2.3c0,2.1,0.6,2.4,2.8,1.7c2-0.7,5.1-0.7,5.1,0c0,0.2-0.4,0.8-0.8,1.4c-0.7,1-1,1-2.1,0.5
		c-1-0.5-1.4-0.4-2,0.1c-1,0.8-0.6,4,0.7,5.2c1.2,1.2,2,0.7,2-1.1c0-1.1,0.2-1.4,0.8-1.3c1.4,0.2,1.2,2.2-0.3,4.7
		c-0.8,1.3-1.4,2.6-1.4,2.9c0,0.3,1.1,1.6,2.3,2.8c3.3,3.2,3.9,5.4,3.4,12.1c-0.3,4.5-0.3,5.1,0.4,5.5c0.4,0.2,1,1,1.3,1.8
		c0.4,1.1,0.3,1.5-0.2,2c-0.6,0.5-0.7,1.3-0.4,4.5c0,0.4,0.1,0.7,0.1,1l20.6,13c-0.1-0.3-0.1-0.6-0.2-0.9c-0.3-2-1.8-4.1-2.8-4.1
		c-0.4,0-0.9-0.5-1.2-1c-0.3-0.6-1.4-2-2.3-3c-1.6-1.8-1.8-2.2-1.8-4.4c0-1.7-0.3-2.8-0.9-3.6c-1.1-1.4-1.1-1.5-0.5-3.8
		c0.4-1.5,0.7-1.7,2.3-2c1.4-0.2,1.9-0.6,2.1-1.5c0.2-1.1,0.4-1.2,2.1-0.9c1.7,0.2,1.9,0.1,2.3-1c0.3-0.9,0.4-2.2,0-4.3
		c-0.6-3.5-0.2-12.1,0.5-13c0.3-0.3,1.5-0.6,2.9-0.6h2.5l1.2-3.5l1.2-3.5l-1.3-1.2c-1.7-1.6-2.2-1.5-3.2,0.4
		c-1.1,2.2-1.9,2.1-2.3-0.5c-0.1-1.2-1.1-3.5-2.1-5.1c-1.6-2.7-1.8-3.1-1.3-4.4c1.1-3.2-0.4-5.7-3.8-6.4c-1-0.2-1.5-0.6-1.7-1.5
		c-0.2-0.7-1.3-2.3-2.5-3.5c-1.2-1.3-2.6-3-2.9-3.7c-0.4-0.8-2.8-3.5-5.4-6.1c-2.6-2.6-4.7-5-4.7-5.5c0-0.5,0.4-1.6,0.8-2.5
		c0.8-1.6,0.8-1.8,0-3.1c-0.4-0.7-0.8-1.8-0.8-2.4s-0.4-1.7-0.9-2.6c-0.7-1.2-1.2-1.5-2.5-1.5c-1.8,0-3.1-1.3-3.1-3.1
		c0-0.5-0.4-1.4-0.9-1.8c-0.8-0.8-1.3-2.1-0.7-2.1c0.1,0,1.1,0.4,2.1,0.9c1.8,0.9,1.8,0.9,2.6,0c0.6-0.7,1.2-0.8,2.3-0.6
		c1.2,0.2,1.6,0,2.3-0.8c0.4-0.6,0.7-1.8,0.7-2.8c0-0.9,0.3-2.1,0.7-2.7c0.4-0.6,0.5-1,0.3-1c-0.2,0-1.1-0.7-2-1.4l-1.6-1.4l1.4-0.6
		c1.6-0.7,3.3-4.2,2.7-5.7c-0.4-1-0.3-3.3,0.1-5.5L320,256z"/>
</g>
</svg>
