<?xml version="1.0" encoding="utf-8"?>
<!-- Generator: Adobe Illustrator 17.1.0, SVG Export Plug-In . SVG Version: 6.00 Build 0)  -->
<!DOCTYPE svg PUBLIC "-//W3C//DTD SVG 1.1//EN" "http://www.w3.org/Graphics/SVG/1.1/DTD/svg11.dtd">
<svg version="1.1" id="flag-icon-css-mn" xmlns="http://www.w3.org/2000/svg" xmlns:xlink="http://www.w3.org/1999/xlink" x="0px"
	 y="0px" viewBox="0 0 640 480" enable-background="new 0 0 640 480" xml:space="preserve">
<g>
	<path fill="none" d="M640,208.4v6.2C641.5,213.8,641.5,211.9,640,208.4z"/>
	<path fill="#C4272F" d="M210.4,97.5c-1.6-0.9-3.5,1.1-4.4,4.6c-0.4,1.7-1.4,3.9-2,4.8c-1.4,2-1.4,5.3-0.1,6.8
		c0.6,0.6,1.1,1.9,1.2,2.9c0.3,2.7,2.6,7.5,3.9,8.4c1.1,0.7,1.2,1.2,0.9,4.9c-0.4,4.2-3.2,10-4.9,10c-0.4,0-1.5,0.6-2.3,1.2
		c-1.2,0.9-2.1,1.1-3.7,0.9c-2.3-0.4-4.2,0.8-4.2,2.6c0,1-3.6,2.7-5.5,2.7c-0.6,0-1.6-0.7-2-1.6c-0.5-0.9-2.2-2.4-4-3.5
		c-3-1.9-3.2-1.9-5.1-1c-1.7,0.9-2.1,0.9-2.4,0.1c-0.2-0.5-0.9-0.9-1.6-0.9c-0.7,0-2.3-0.7-3.5-1.6c-1.7-1.3-2.6-1.6-4.1-1.2
		c-1.4,0.2-2.3,0.1-3.1-0.7c-0.9-0.9-1.4-0.9-2.6-0.2c-0.9,0.5-2.4,0.6-3.9,0.4c-1.3-0.2-3.7-0.6-5.5-0.8c-3.6-0.4-4.5-0.9-4.8-2.9
		c-0.2-1.2-0.7-1.4-3.9-1.7c-3.3-0.2-3.7-0.5-3.9-1.7c-0.1-0.7-0.7-1.7-1.4-2c-1.1-0.6-1.2-1.4-1.2-6.5c0-3.6-0.2-6-0.7-6.3
		c-0.4-0.2-2.8-0.6-5.5-0.9c-2.6-0.3-5.7-0.9-6.9-1.4c-3.7-1.6-8.4-2.9-9.5-2.9c-1.3,0-2.1-1.7-1.2-2.6c0.9-0.9-0.2-3-1.7-3
		c-0.5,0-1.2,0.4-1.8,0.9c0.5,0.7,0.9,1.3,1.3,2c2.4,3.9,3.1,5.5,3.1,10.4c0,4.7-3.1,7.9-3.1,11c0.2,1.3,1.3,2.4,2.6,2.6
		c1.7,0.3,3.4-0.8,3.7-2.6c0-3.1-1.6-3.1-1.6-7.1s4-4.8,1.6-8.8c4.8,4,2.4,7.2,2.4,9.6c0,2.3,4,3.2,4,9.5c0,2.2-0.4,4.2-1.2,6.1
		c13.8,5.8,23.5,19.4,23.5,35.3c0,5.5-1.2,10.6-3.2,15.3c0,0.2,0,0.4,0,0.6c0,19.3-15.7,35-35,35s-35-15.7-35-35c0-0.2,0-0.4,0-0.6
		c-2.1-4.7-3.2-9.9-3.2-15.3c0-15.9,9.7-29.5,23.5-35.3c-0.8-1.9-1.2-4-1.2-6.1c0-6.4,4-7.1,4-9.5c0-2.4-2.4-5.6,2.4-9.6
		c-2.4,4,1.6,4.8,1.6,8.8s-1.6,4-1.6,7.1c0.2,1.3,1.3,2.4,2.6,2.6c1.7,0.3,3.4-0.8,3.7-2.6c0-3.1-2.4-4.1-2.4-8.8s3.2-7,3.2-11
		c0-1.3-0.2-2.8-0.4-4.3c-0.1-0.1-0.2-0.3-0.4-0.5c-2.4-3.2-3-3.4-3.7-1.3c-0.8,2.1-2.3,2.4-6.7,1.6c-3.5-0.7-4-0.7-5.5,0.4
		c-0.9,0.6-2.2,1.5-2.9,1.9c-0.7,0.4-1.4,1.1-1.7,1.5c-0.4,0.6-1.9,0.8-5.4,0.6c-3.9-0.1-5.1,0.1-5.7,0.8c-0.5,0.6-1.5,1-2.3,1
		c-0.8,0-1.7,0.6-2.1,1.2c-0.4,0.9-1.3,1.2-2.7,1.2c-1.1,0-3.4,0.4-5.1,0.9c-1.7,0.5-3.7,0.9-4.4,0.9c-0.7,0-1.7,0.6-2.2,1.3
		c-0.6,0.8-1.9,1.4-3.7,1.6c-4.2,0.6-5.1,1.2-4.7,3.5c0.4,2.7-0.1,3.6-1.7,3.6c-0.8,0-2.2,0.3-3.1,0.7c-1.2,0.6-1.7,0.6-2.3,0
		c-1.2-1.2-3-0.9-3,0.4c0,1.8-4.6,2.9-5.2,1.1c-0.2-0.6-0.7-0.6-2.2-0.1c-1.6,0.6-2.1,0.6-3-0.4c-0.8-0.9-1.9-1.2-4.7-1.2
		c-4.5,0-5.9,0.7-6.4,3.1c-0.2,1-0.7,1.9-1.1,1.9c-0.4,0-1.9,0.5-3.4,1.1c-2.7,1.2-4.3,3.3-3.2,4.4c0.9,0.9,0.1,2-1.4,2
		c-0.9,0-1.2,0.4-1.2,2.4c0,2.1,0.3,2.6,2.2,3.9c2.1,1.4,2.1,1.5,1,2.7c-2.1,2.2-1.9,3,1.1,5.2c1.6,1.2,3,2.4,3.1,2.8
		c0.1,0.3,0.9,1.2,1.7,2c1,0.9,1.6,2.2,1.7,3.8c0.2,1.9,0.8,2.9,3.2,5.2c1.6,1.6,3.5,3.6,4.1,4.5c1.2,1.8,4.4,2.9,5.7,1.8
		c1.1-0.9,4.7-0.2,4.7,0.9c0,0.4,0.6,2.1,1.2,3.7c1.3,2.8,1.6,3.1,5,3.1c1.2,0.1,1.6,0.4,1.7,1.8c0.1,1.1,0.9,2.2,2.3,3.1
		c2.3,1.5,2.7,2.7,3.1,9.5c0.2,2.4,0.7,5.6,1.2,7.1c0.5,1.4,0.9,3.2,0.9,3.8c0,0.6,0.7,1.7,1.7,2.4c2.1,1.7,2.9,5.6,2.6,13.4
		c-0.1,2-0.5,2.8-2.2,4.2l-2.1,1.7l0.2,3.2h21.5v42.3c2.3,0.9,4.8,1.3,7,1.1c2.4-0.2,3.7-0.1,5.2,0.8c1.1,0.6,3.4,1.3,5.1,1.6
		c1.2,0.1,3,0.6,4.5,1.3c4.9-2.7,10.5-4.3,16.5-4.3c18.6,0,33.7,15.1,33.7,33.7c0,6.8-2,13.1-5.5,18.4c0.9,3.5,1.6,6.8,1.6,8.1
		c0,2.7,0.4,3.7,4.3,9.4c2,2.9,3.3,5.3,4.1,7V230.4H177v127.8c6.8,1.9,12.9,3.2,23.1,4.9l13.2,2.2v-270
		C212.1,97.7,211.5,98.1,210.4,97.5z M138.8,268.6H75.2v-12.7l63.6,0V268.6z M107,249.5l-31.8-19.1h63.6L107,249.5z"/>
	<path fill="#C4272F" d="M639.1,206.6c-1.7-3.5-2.6-4.5-6.4-7c-2.4-1.6-5.3-3.8-6.5-4.9c-1.2-1.1-2.8-1.9-3.8-1.9
		c-1.5,0-1.8-0.3-2.1-2.1c-0.4-2.1-0.5-2.1-4.6-2.7c-4.1-0.6-4.2-0.6-5.8-3.4l-1.6-2.8l-4.9-0.2c-3.1-0.1-5.5,0.1-6.4,0.6
		c-1.1,0.6-1.9,0.6-3.2,0.1l-1.8-0.7l-3.5,6.8l-3.4,6.7l-4.7-2.1c-6.5-2.9-9.5-3.3-11.8-1.4c-1.6,1.3-2.2,1.4-4.4,0.9
		c-2.1-0.5-2.7-0.4-3.2,0.4c-1.8,3.1-4.2,5.9-4.9,5.9c-0.4-0.1-2.5-1.4-4.6-3.2c-3.7-2.9-3.9-3.2-3.9-5.7c0-2.2,0.4-3.1,2.2-4.9
		l2.3-2.3l-0.8-4c-0.7-3.8-0.6-4.2,0.9-8c0.9-2.2,1.6-4.7,1.6-5.5s1.7-8,3.7-16l3.7-14.3l-1.3-1.4c-0.7-0.8-1.9-1.4-2.4-1.4
		c-0.6,0-2.1-0.5-3.3-1.1c-1.9-0.9-2.6-0.9-4.7-0.3c-1.4,0.4-3.1,1.6-3.9,2.6c-1.3,1.5-2.1,1.8-6,2.1l-4.6,0.4l-1.9-2.2
		c-4.4-4.8-10.6-7.2-14-5.4c-1,0.5-1.7,0.5-3-0.2c-2.2-1.2-3.5-0.6-6.6,2.9c-1.4,1.7-3.1,3-3.6,3c-0.6,0-3.7,2.5-6.8,5.5
		c-5.7,5.3-5.8,5.5-5.8,8.3c0,2.8-0.1,2.9-2.5,3.7c-1.4,0.4-2.8,1.2-3.2,1.6c-0.4,0.6-1.6,0.7-3.3,0.5c-2.1-0.3-3.1-0.1-4.9,1.2
		c-2.8,1.9-9.3,4.2-12,4.2c-1.1,0-2.5,0.4-3.2,0.9s-1.7,0.7-2.2,0.6c-1.1-0.4-4.5,1.2-5,2.4c-0.4,1-7.6,5.4-8.9,5.4
		c-0.5,0-1.9-0.4-3.1-1.1c-1.9-0.9-2.3-0.9-3.6-0.1c-1.9,1.2-10.8,1.4-11.8,0.1c-0.4-0.5-1.3-0.7-2.4-0.4c-0.2,0-0.4,0.1-0.6,0.1
		v204.2c0.6,0,1.3,0,2.1,0.1c2.1,0.2,3.8,0.2,4.2-0.2c0.4-0.4,1.9-0.8,3.3-1.1c1.4-0.3,4.1-1.6,6.2-3.2c2.4-1.7,4.4-2.7,5.5-2.7
		c2.9,0,9.7-4.1,10.7-6.5c0.4-1.1,1.6-2.6,2.5-3.4c0.9-0.9,1.6-1.9,1.6-2.3c0-0.4,1.6-3,3.7-5.7c2.9-3.9,4.2-5.2,6.4-6
		c1.5-0.6,3.6-1.9,4.7-2.9c1.2-1,2.5-1.8,2.9-1.8s1.6-1.1,2.5-2.5c0.9-1.4,2.4-2.9,3.4-3.4c1-0.6,1.9-1.6,2.1-2.5
		c0.4-2.2-3-7.2-7.2-10.4c-4.9-3.9-6.4-7.8-4.5-11.2c0.5-0.9,0.9-2.7,0.9-4c0-1.4,0.9-4.6,2.1-7.3c2.6-6,4.7-7.4,11.4-7.4
		c4.3,0,4.4,0.1,6.7,2.4c2.6,2.8,2.9,2.9,14,3.8l8.4,0.7l2.6-2.4c1.4-1.3,3.7-3,5.1-3.8c1.5-0.8,3-2.3,3.6-3.5
		c0.6-1.1,2.2-3.5,3.8-5.2c1.9-2.1,2.9-3.8,2.9-4.9c0-1.2,0.6-2.1,2.2-3.1c1.9-1.4,2.4-1.4,4.4-0.7c1.9,0.6,2.7,0.6,4.9-0.2
		c1.4-0.6,3.9-1.2,5.4-1.4c4.1-0.7,6.8-2.2,8.3-5.1c0.8-1.4,2.8-3.4,4.7-4.7c4.1-2.7,4.6-3.6,3.7-6.1c-0.9-2.7-0.4-5.1,2.2-9.4
		c3.6-5.9,8.1-8.8,13.8-8.8c3.2-0.1,4.7-1.2,4.7-3.7c0-4.1,1.7-5.4,4.7-3.4c2,1.3,3.3,0.7,4.1-1.6c0.4-1,1.1-1.9,1.6-1.9
		s2.1-1.2,3.7-2.7c2.6-2.6,2.8-2.7,4-1.8c1.1,0.7,1.7,0.7,3.6,0.2c1.2-0.4,2.8-0.6,3.5-0.4c0.9,0.2,1.4,0,1.6-0.9
		c0.3-1.2,3.2-1.7,4.2-0.7c0.2,0.3,1.6,0.8,3.1,1.1c2.1,0.6,3.2,0.4,5.7-0.4c1.7-0.6,3.9-1.1,4.9-1.1c1.1,0,1.7-0.3,1.7-0.9
		c0-0.5,0.6-1.2,1.2-1.6c0,0,0,0,0.1,0v-6.2C639.7,207.8,639.5,207.2,639.1,206.6z"/>
	<path fill="#015197" d="M424.1,165.9c-1.9-2.1-4.2-2.6-5.9-1.4c-0.7,0.5-1.8,0.7-2.3,0.6c-0.6-0.2-2.9-0.1-5.2,0.4l-4.2,0.8
		l-2.9-3.1c-1.6-1.7-3.6-3.4-4.6-3.6c-1.9-0.4-4.2-3.6-4.2-5.9c0-4.2-3.4-6.4-10-6.4c-3.2,0-3.4-0.1-7.7-4.3c-2.4-2.3-5.1-4.6-5.8-5
		s-3.4-0.7-5.9-0.6c-3.3,0.1-5.4-0.3-7.9-1.2c-1.8-0.7-4.5-1.3-5.9-1.3c-1.4,0-3.7-0.4-5.2-1c-2.6-1-2.7-1-4.6,0.6
		c-2,1.7-7.2,3.5-9.9,3.5c-2.8,0-5.7,1.1-7.9,3.1c-2.2,2-4.1,2.4-6.8,1.3c-1.2-0.4-2.4-0.4-4.1,0.1c-1.9,0.6-2.6,0.6-3.7-0.2
		c-1-0.7-1.8-0.8-2.9-0.4c-1.2,0.5-1.6,0.3-2.2-0.8c-1.1-1.9-2.5-2.9-4.5-2.9c-0.9,0-2.7-0.6-4.1-1.4c-1.2-0.7-2.9-1.7-3.6-2.1
		c-0.7-0.4-1.3-1.2-1.4-1.9c-0.1-0.7-1-1.6-2.1-2c-1.8-0.7-1.9-0.9-1.6-3.2c0.2-1.9,0.1-2.7-0.9-3.6c-0.9-0.8-1-1.2-0.4-1.9
		c0.6-0.7,0.6-1.4-0.1-3.1c-0.4-1.2-0.9-4.4-0.9-7.1c-0.1-2.7-0.4-5.2-0.7-5.5c-1.2-1.2-9.5-3.9-11.8-3.9c-1.8,0.1-3.2-0.4-5-1.7
		c-1.4-1-4.9-3.1-7.9-4.7c-4.4-2.2-6.1-2.8-8.6-2.8c-3.9,0-7-1.2-8.4-3.2c-0.6-1-2.3-1.9-4.6-2.6c-2-0.6-4.3-1.8-5.2-2.7
		c-1.7-1.7-6-4.6-6.9-4.6c-0.3,0-1.2,1.7-1.9,3.7c-1.5,4.2-3.3,6-6.6,6.6c-1.9,0.4-2.4,0.9-3.4,3.2c-0.3,0.6-0.5,1.2-0.8,1.7v270
		l2.4,0.4l4.7-1c2.9-0.6,5.8-0.9,7.5-0.6c1.7,0.2,3.4,0.1,4.2-0.3c2.5-1.3,12,0.2,23,3.9l10.1,3.3l3.1,4.1c2.8,3.6,3.5,4.1,7.2,5.4
		c2.2,0.8,5.4,1.4,7,1.4c2.4,0,4.3,0.7,10.7,4.1c10.2,5.4,15.3,7.1,21.3,7.1c2.6,0,5.8-0.3,7.1-0.7c3.6-1,4.6-0.4,4.6,2.7l-0.1,2.6
		l4,0.2c2.2,0.1,4.6,0.6,5.4,1.2c1.4,0.9,1.6,0.9,4.6-1.9c1.7-1.6,3.4-2.9,3.8-2.9c0.4,0,2.4-1,4.4-2.2c7.2-4.4,29.6-14.4,34-15.2
		c2.3-0.4,5-1.4,6-2.2c2.8-2.1,4.4-2.4,6.5-1.2c1.6,0.8,2.6,0.9,6,0.3c2.2-0.4,4.8-0.9,5.7-1.3c0.9-0.3,2.4-0.4,3.3-0.2
		c2.7,0.7,13.7,0.5,14.6-0.2c0.4-0.3,1.1-0.4,2.2-0.4V167.2C425.7,167.2,425,166.9,424.1,165.9z"/>
	<path fill="#F9CF02" d="M107,211.4c-15.6,0-29.1-9.4-35-22.9c0,0.2,0,0.4,0,0.6c0,19.3,15.7,35,35,35s35-15.7,35-35
		c0-0.2,0-0.4,0-0.6C136.1,202,122.6,211.4,107,211.4z"/>
	<path fill="#C4272F" d="M107,147.7c-6.6,0-12.3-4-14.7-9.8c-13.8,5.8-23.5,19.4-23.5,35.3c0,5.5,1.2,10.6,3.2,15.3
		c5.9,13.5,19.3,22.9,35,22.9s29.1-9.4,35-22.9c2.1-4.7,3.2-9.9,3.2-15.3c0-15.9-9.7-29.5-23.5-35.3
		C119.3,143.7,113.6,147.7,107,147.7z M107,204.9c-14,0-25.4-11.4-25.4-25.4S93,154.1,107,154.1s25.4,11.4,25.4,25.4
		S121,204.9,107,204.9z"/>
	<path fill="#F9CF02" d="M101.4,119.8c0,4.7,2.4,5.7,2.4,8.8c-0.3,1.7-2,2.9-3.7,2.6c-1.3-0.2-2.4-1.3-2.6-2.6
		c0-3.1,1.6-3.1,1.6-7.1s-4-4.8-1.6-8.8c-4.8,4-2.4,7.2-2.4,9.6c0,2.4-4,3.1-4,9.5c0,2.2,0.4,4.2,1.2,6.1c2.4,5.7,8.1,9.8,14.7,9.8
		c6.6,0,12.3-4,14.7-9.8c0.8-1.9,1.2-4,1.2-6.1c0-6.3-4-7.2-4-9.5c0-2.4,2.4-5.6-2.4-9.6c2.4,4-1.6,4.8-1.6,8.8s1.6,4,1.6,7.1
		c-0.3,1.7-2,2.9-3.7,2.6c-1.3-0.2-2.4-1.3-2.6-2.6c0-3.1,3.1-6.3,3.1-11c0-4.9-0.7-6.5-3.1-10.4c-0.4-0.7-0.9-1.4-1.3-2
		c-0.1,0.1-0.3,0.2-0.4,0.4c-1.5,1.7-2.2,1.6-4.3-1.1c0.2,1.5,0.4,3.1,0.4,4.3C104.6,112.8,101.4,115.1,101.4,119.8z"/>
	<circle fill="#F9CF02" cx="107" cy="179.5" r="25.4"/>
	<path fill="#F9CF02" d="M47.3,230.4l0.1,2c0.2,3.9,0.2,5.3-0.4,5.3c-0.4,0-2.1,1.3-3.9,2.9c-2.4,2.3-3.3,3.7-4.2,6.7
		c-1.1,3.4-1.1,3.9-0.2,4.9c0.6,0.7,0.8,1.7,0.6,2.8c-0.5,2.5,1.3,7,2.8,7c0.7,0,2.4,0.8,3.9,1.9c1.5,1,3.4,1.9,4.3,1.9
		c0.9,0,1.7,0.2,1.9,0.6c0.7,1.2,4.2,2.5,7.9,2.9c2.1,0.2,4.4,0.9,5.1,1.5c1,0.8,2.2,1.4,3.5,1.9v-42.3H47.3z"/>
	<rect x="75.2" y="255.9" fill="#F9CF02" width="63.6" height="12.7"/>
	<polygon fill="#F9CF02" points="107,249.5 138.8,230.4 75.2,230.4 	"/>
	<path fill="#F9CF02" d="M145.2,230.4v119.3c0.3,0.8,0.6,1.4,0.6,1.9l0.4,2.6l3.8,0.4c5.3,0.6,10.3,0.5,11.6-0.2
		c0.7-0.3,4.6,0.6,12,2.8c1.2,0.4,2.3,0.7,3.4,1V230.4H145.2z"/>
	<path fill="#F9CF02" d="M107,273.1c-6,0-11.6,1.6-16.5,4.3c0.7,0.3,1.4,0.6,2,0.9c2.4,1.2,6.3,4.3,9.6,7.4c1.2-1.3,2.9-2.2,4.8-2.2
		c3.5,0,6.4,2.9,6.4,6.4c0,2.3-1.3,4.4-3.1,5.5c0.2,0.2,0.4,0.3,0.5,0.4c0.7,0.4,2.1,1.7,3.1,2.8c0.9,1.1,3.2,2.9,5.2,4.1
		c3.1,1.7,3.9,1.9,7.5,1.7c2.2-0.1,4-0.1,4,0.1c0,0.2-0.6,1-1.2,1.9c-0.7,0.9-1.2,2.6-1.2,3.7c0,1.8,0.4,2.4,2.1,3.5
		c1.9,1.2,2.3,2.1,4.4,9c0.3,0.9,0.5,1.7,0.7,2.6c3.4-5.3,5.5-11.6,5.5-18.4C140.7,288.2,125.6,273.1,107,273.1z"/>
	<path fill="#C4272F" d="M113.4,289.9c0-3.5-2.9-6.4-6.4-6.4c-1.9,0-3.6,0.9-4.8,2.2c2.9,2.7,5.5,5.5,6.1,7c0.5,1,1.3,2.1,2,2.7
		C112.1,294.3,113.4,292.2,113.4,289.9z"/>
</g>
</svg>
