<?xml version="1.0" encoding="utf-8"?>
<!-- Generator: Adobe Illustrator 17.1.0, SVG Export Plug-In . SVG Version: 6.00 Build 0)  -->
<!DOCTYPE svg PUBLIC "-//W3C//DTD SVG 1.1//EN" "http://www.w3.org/Graphics/SVG/1.1/DTD/svg11.dtd">
<svg version="1.1" id="flag-icon-css-mo" xmlns="http://www.w3.org/2000/svg" xmlns:xlink="http://www.w3.org/1999/xlink" x="0px"
	 y="0px" viewBox="0 0 640 480" enable-background="new 0 0 640 480" xml:space="preserve">
<g>
	<path fill="none" d="M200.4,407.4c1.2,0.9,0.9,1.8-0.4,1.4c-1-0.3-1.2-0.1-1.2,1c0,2.1-1.9,7.2-3.6,9.5c-1.4,1.9-2,2.2-5.6,3.4
		c-6.6,2.1-9.2,3.9-9.7,6.2c-0.1,0.8,0,3.2,0.2,5.4c0.6,4.7,0.1,7.9-2.2,13.4c-2.1,5-4,6.7-8.3,7.6c-3.5,0.7-6.6,0.6-8.2-0.5
		c-0.6-0.3-1.3-0.4-1.9-0.2c-2.5,1-5-0.2-5.5-2.6c-0.1-0.6-1.8-1.6-5.6-3.4c-5.6-2.5-6.8-2.9-6.8-2c0,1,2.9,5.7,5.5,8.9
		c4.7,5.9,11.8,9.3,30,14.7c6.7,2,7.7,2.2,13.4,2.4c5.5,0.1,6.8,0,12.1-1.1l5.9-1.3l-0.2-2.1l-0.1-2.1l1.6,0
		c2.6-0.1,2.7-0.1,1.1-1.1c-0.8-0.5-1.5-1.1-1.5-1.4c0-0.8,0.8-1,1.7-0.3c0.5,0.4,1.2,0.7,1.6,0.7c0.5,0,0.4-0.2-0.3-0.7
		c-0.6-0.4-1.1-1-1.1-1.4c0-0.8,0.2-0.8,1.5-0.1c1,0.5,1,0.5-0.1-0.7l-1.1-1.2h1.5c1.4,0,1.5,0,0.8-0.8c-0.5-0.5-0.8-1.1-0.8-1.4
		c0-0.8,6.6-6.2,8.8-7.2c1.8-0.8,2-1,2-2.6c0-1-0.4-2.2-0.9-2.9c-1.2-1.4-1.3-6.2-0.2-8.7c0.6-1.4,0.7-2.2,0.2-4.1
		c-0.3-1.3-0.5-3.2-0.6-4.2c-0.1-1.8-0.1-1.9-2.6-2.6c-3.4-1-4-2-3.4-5.9c0.3-2,0.3-3.5,0-4c-0.7-1.3,0-2.7,2.4-5.2
		c2.1-2.2,2.2-2.6,2.5-5.6c0.2-1.8,0.4-4.1,0.6-5c0.2-1.5-0.1-2.2-0.8-1.5c-0.5,0.5-9,2.7-13,3.4c-3.3,0.5-4.8,1-5.9,1.9
		C199.9,404.8,199.2,406.6,200.4,407.4z"/>
	<path fill="#00785E" d="M281.8,364.4H303c0.1-0.1,0.1-0.2,0.2-0.3c1.2-2.1,1.7-2.6,4.3-3.7h-32.8C277.6,362,280,363.4,281.8,364.4z
		"/>
	<path fill="#00785E" d="M208,262.6c-0.1-0.2-0.3-0.4-0.4-0.6C207.5,262.4,207.6,262.5,208,262.6z"/>
	<path fill="#00785E" d="M210.5,275.6c15.1,14.7,35.3,22.8,56.4,22.8c4.9,0,9.7-0.5,14.4-1.3c-28.6,2.3-55.6-10.5-72-32.8
		c-0.3,0.5-1.1,0.5-3.3,0l-1.4-0.3l-0.8,3.1c-0.4,1.7-0.7,3.3-0.7,3.5c0,0.2,0.8,0.5,1.9,0.5s1.9,0.2,1.9,0.5c0,0.3-0.5,1.5-1.1,2.7
		c-0.9,1.7-1.5,2.3-2.6,2.7c-0.4,0.1-0.7,0.3-1,0.5C204.9,277.2,207.7,276.6,210.5,275.6L210.5,275.6z"/>
	<path fill="#00785E" d="M490.1,244.4c1.7-0.4,7.6-4.8,7.6-5.8c0-0.4,0.2-0.7,0.5-0.7c0.3,0,1.2-1.5,2-3.5c1.7-4.2,1.5-4.1,8.8-6.1
		c2.7-0.8,6.4-2.1,8.1-2.8c2.6-1.3,3.3-1.8,4.1-3.4l0.9-2l-0.9-4.4c-0.7-3.3-15.1-50.4-16.5-54.2c-0.2-0.4,0.6-0.8,2.1-1.2
		c1.5-0.4,2.4-0.8,2.4-1.3c0-0.4-0.6-2.8-1.4-5.5c-2.6-8.8-3-13.9-2.4-26.3c0.3-6,0.4-12.1,0.2-13.7c-0.2-2.1-0.2-2.9,0.3-3.2
		c2-1.3-0.1-18.1-3.4-27C499.3,74.6,493.4,67,485,61c-5.3-3.8-14.2-7.5-23.8-10.1c-3.2-0.8-12.1-3.9-19.6-6.8
		c-15-5.7-16-6.1-17.6-6.3c-1-0.1-45.5-17.5-67.9-26.5c-6.4-2.6-14.1-5.4-17-6.2c-5.3-1.6-5.4-1.6-11.5-1.4c-5,0.2-6.4,0.2-7.2-0.4
		c-0.7-0.4-3-0.8-6.7-0.9l-5.6-0.3l-4.8,3.4c-4.3,3.1-4.9,3.7-7,7.4c-1.3,2.2-4.5,8.6-7.1,14.2c-3.2,6.9-6.6,13.2-10.4,19.4
		l-5.6,9.1l-3.3,0.3c-3.1,0.3-3.7,0.2-11.6-2.3c-8.3-2.7-8.3-2.7-24.8-4.6l-16.5-2l-12,5.5c-6.6,3-12.1,5.5-12.3,5.6
		c-0.2,0.1,0.6,2.7,1.6,5.8c1.9,5.2,2.1,5.7,3,5.5c0.8-0.2,1.1,0,1.4,0.9c0.2,1,0.5,1.2,1.5,1.1c1-0.1,1.3,0.1,1.4,1
		c0.2,1.4-0.7,2-2.2,1.6c-1-0.2-1.1-0.2-0.8,1.1c0.2,0.7,0.4,1.4,0.5,1.5s1-0.3,2.1-0.8c1-0.6,2-1,2.1-1c0.1,0,0.5,0.8,0.8,1.7
		c0.5,1.6,0.5,1.8-0.7,2.7c-0.8,0.8-1.2,1.5-1.2,2.7c0,2.1,1.3,5.7,2.7,7.9c1.1,1.6,1.1,1.8,0.4,2.6c-0.8,1-0.6,1.5,0.8,1.5
		c1.4,0,3.8,6.3,2.9,7.5c-0.8,1-0.4,1.9,0.9,1.9c0.9,0,1.2,0.4,1.9,2.6c0.8,2.7,0.6,3.4-1.1,3.4c-0.8,0-0.7,0.4,0.7,3
		c1.2,2.1,1.4,2.3,3.2,2.5c1.6,0.1,2,0.4,2.5,1.5c0.7,1.5,0.5,1.5,3.2,0.7c2.8-0.8,3.2-1.9,0.6-1.5c-1.7,0.3-2.4-0.1-2.4-1.3
		c0-0.2,5.7-2.1,6.4-2.1c0.3,0,1,0.7,1.4,1.6c0.4,0.9,1,1.6,1.3,1.5c0.3-0.1,3.2-1,6.4-2c4.4-1.4,6-2,6-2.6c0-0.7-0.3-0.7-2.9-0.1
		c-3.8,0.8-3.6,0.8-3.6-0.2s-0.7-0.7,17.4-6.2c7.8-2.4,9.6-3.1,9.6-3.7c0-1-0.5-1-3.4-0.1c-3.1,0.9-3.1,0.9-3.1-0.9
		c0-1.6,0-1.6,3.3-2.4c1.9-0.5,3.3-1,3.3-1.4c0-0.5-0.8-0.4-3.6,0.3c-2,0.4-3.7,0.8-3.7,0.7c0,0-0.4-1.4-0.8-3.1
		c-0.5-2.1-0.6-3.1-0.3-3.3c0.3-0.1,2-0.7,3.7-1.1c2.8-0.7,4.3-1.8,3.6-2.5c-0.1-0.1-2.7,0.3-5.9,0.9c-5.6,1.1-5.8,1.1-5.9,0.2
		c-0.1-0.5-0.1-1,0-1.1s1.8-0.5,3.9-0.8c3.7-0.6,3.7-0.6,4.1-2.3l0.4-1.7l4.9-0.8c4.8-0.7,4.9-0.7,5.8,0.1
		c0.7,0.7,11.6,34.1,11.6,35.5c0,0.3-0.4,0.7-0.9,0.9c-0.5,0.3-12.5,4.2-27.1,8.9l4.9,3.7l10.8-7.6l-4.3,12.6l10.6,8l-13.3-0.2
		l-0.7,2l0.7-0.2l1.3,4.4l1.3,4.4l2-0.3c1.7-0.2,2-0.2,1.7,0.4c-0.1,0.5-1.3,0.8-3.4,1c-1.7,0.2-7.7,1.3-13.3,2.4l-10.2,2.1
		l-1.6-1.4c-0.8-0.8-1.9-1.4-2.2-1.4c-2,0-5.5,1.3-7,2.6c-1.5,1.2-1.8,1.8-2.1,3.9c-0.1,1.4-0.1,2.5,0.1,2.6c0.2,0,0.2,0.9-0.1,2
		c-0.7,2.7-0.7,4.8,0.2,5.1c1.2,0.5-0.4,3-2,3.2c-0.8,0.1-1.1,0.2-1.5,1.7l12.7,1.6l-11.6,6.4l2.6,13l-3.4-3.1
		c-0.1,0.3-0.3,0.4-0.8,0.4c-1.3,0-1.9,2.5-0.8,3.7c1,1.1,1,2.4,0,2.4c-0.7,0-0.7,0.3-0.5,1.9c0.2,1.9,0.2,1.9-1.4,1.9
		c-1.7,0-1.6-0.2-3.2,6.5c-1,4.4-1,4.7,0.7,4.7c1.4,0,1.5,0,1.2,2c-0.1,1.1-0.7,4-1.3,6.3c-0.9,4-1.1,4.3-2.1,4.3
		c-1.4,0-1.8,0.7-2.7,5.6c-0.5,2.2-0.9,4.3-1,4.8c-0.2,0.7,0,0.8,1.7,0.8c0,0,0,0,0,0c7.5-1.9,15.2-2.8,23-2.8
		c22.3,0,43.9,7.9,61,22.2c-17.9-18.7-42.7-29.4-68.6-29.4c-1.7-3.3-4-6.3-6.8-8.9c27.6-1.3,54.4,9.4,73.4,29.4
		c-10-13.4-15.9-30.1-15.9-48.1c0-14,3.6-27.8,10.5-40c1.5,4.9,4,9.3,7.5,13c-5,10.5-7.8,22.3-7.8,34.7c0,17.9,6,35.3,17,49.5
		c-8.9-13.3-13.7-29-13.7-45c-0.1-7.8,1-15.6,3.2-23.1c5.8-19.6,18.2-32.3,24.8-38.3c6.6,6,19,18.7,24.8,38.3
		c2.2,7.5,3.3,15.3,3.2,23.1c0,16-4.8,31.7-13.7,45c11-14.2,17-31.6,17-49.5c0-12.4-2.8-24.2-7.8-34.7c3.5-3.7,6-8.1,7.5-13
		c6.9,12.2,10.5,26,10.5,40c0,18-5.9,34.7-15.9,48.1c19-20,45.8-30.7,73.4-29.4c-2.8,2.6-5.1,5.6-6.8,8.9
		c-25.9,0-50.7,10.7-68.6,29.4c17.1-14.3,38.7-22.2,61-22.2c12.6,0,25.1,2.5,36.7,7.3c-12.8,33.9-46.5,55.2-82.6,52.2
		c4.7,0.8,9.5,1.3,14.4,1.3c21.1,0,41.3-8.1,56.4-22.8h0.1c3.1,1.2,6.4,1.8,9.7,2c-15.4,17.5-37.5,27.5-60.8,27.5
		c-22.1,0-43.2-9-58.5-25c-15.3,16-36.4,25-58.5,25c-23,0-44.9-9.8-60.2-26.9c-0.1,0.2-0.3,0.5-0.4,0.7c-0.6,1.5-0.6,1.5,0.7,2.1
		c1.5,0.5,1.6,0.7,0.9,4.1c-0.5,2.5-0.9,2.7-3,1.9c-0.7-0.3-1.4-0.4-1.4-0.3c-0.1,0.1-0.6,1.9-1.1,4c-1.2,4.8-4.9,12.1-6.2,12.1
		c-0.6,0-1.9,1.3-3.5,3.4c-17.6,23.3-20.5,27.4-20,28.1c0.5,0.6,0.2,1.2-1.2,3.1c-1.6,2.2-1.7,2.4-0.9,3c1.2,0.8,0.5,1.7-0.9,1.1
		c-1.4-0.6-1.4-0.6-8.4,8.6c-2.7,3.6-6.7,9.5-8.8,13.1l-3.9,6.7l0.9,1.2c0.7,0.8,0.9,1.5,0.7,2.6c-0.3,1.3-0.1,1.5,2.7,3.4
		c1.7,1.1,3.1,2.1,3.1,2.3s-0.7,1.6-1.7,3.2c-0.9,1.5-1.9,3.4-2.1,4.2c-0.3,1-0.7,1.4-1.6,1.4c-1.5,0-2.5,1.8-1.4,2.6
		c1.1,0.8,0.6,2-0.8,1.7c-0.9-0.2-1.3,0-1.7,1c-0.8,1.7-0.7,2.1,0.5,3.4s0.8,1.3-3,0.4l-2.6-0.7l-0.5,1.9c-0.5,2.1-0.7,1.9,3.5,3.1
		c2.6,0.7,2.7,0.9,3,2.7l0.4,1.9l4.5,0.7c2.5,0.5,4.6,0.9,4.7,1c0.1,0.1,0,1.6-0.4,3.3l-0.6,3l-2.4-0.8c-4-1.4-4-1.4-4-3
		c0-2.8-0.5-3.5-2.1-3.5c-2.7,0-4.4,0.5-4.4,1.4c0,1.6-2.6,1.8-6.9,0.5c-2.8-0.9-3.3-1.2-4-2.7c-0.5-0.9-0.9-1.5-1-1.3
		c-0.1,0.2-0.7,2.3-1.3,4.5c-1,3.8-1.1,4.4-0.7,9.8c0.7,9.7,1.1,11,4.7,18.2c3.3,6.6,6.4,11,7.8,11.1c0.4,0,0.5,0.1,0.2,0.2
		c-0.8,0.3,0,3.2,1.7,6.5c0.9,1.8,2.6,3.7,4.3,5.3c2.8,2.5,9.4,6.4,12.9,7.8l1.9,0.7v3.4c0,1.8-0.2,3.6-0.4,4
		c-0.7,1,0.1,3.1,1.3,3.2c1.4,0.2,2.9-0.7,2.9-1.7c0-0.4-0.4-1.4-0.9-2.2c-0.6-0.8-0.9-2.2-0.9-3.4v-2l2.2,0.3
		c1.2,0.2,3.4,0.9,4.8,1.6c2.6,1.3,12.5,3.7,22.4,5.5c7.4,1.3,22.2,1.2,33.3-0.3c11.8-1.5,19.4-4.1,34.3-11.5
		c8.3-4.1,12.4-7.3,23.5-17.9c3.4-3.2,6.6-6.2,7.2-6.5s3.9-1.1,7.2-1.7c3.4-0.6,6.7-1.5,7.5-2c0.8-0.5,4.1-1.6,7.4-2.6
		c4.9-1.4,7.5-1.8,14-2.4c4.4-0.3,8.5-0.8,9.1-1.1c3.4-1.3,11.8-6.8,19.1-12.5c0.2-0.2-2.4-2.5-2.8-2.5c-0.2,0-2.7,2-5.5,4.3
		c-2.9,2.3-5.6,4.7-6.2,5.1c-0.9,0.7-21.2,5.7-32.9,8.1c-2.2,0.5-5.4,1.3-7,1.9c-3.8,1.4-5.5,1.4-11.6,0.2c-9.3-1.9-14-3.3-19.2-5.9
		c-4.4-2.2-5.1-2.7-5.4-4c-0.5-2-2.5-3.4-3.7-2.7c-0.9,0.5-1.4,0.2-4.3-2.6c-6.4-6.1-12.8-15.2-15.9-22.8l-1-2.5l1.4-2
		c0.7-1.1,1.3-2.1,1.2-2.3c-0.1-0.2-1.2-0.9-2.3-1.6l-2.1-1.3l-0.3-4.1c-0.2-2.3-0.2-6.2,0-8.8c0.3-4.4,0.6-5.3,3.7-12.9l3.3-8.2
		l2.4-0.7c0.5-0.2,1.1-0.3,1.5-0.5c-0.4-0.2-0.8-0.5-1.2-0.7h2.4c0-0.4-0.1-1.1-0.4-2c-0.5-1.6-0.5-2.1,0.3-3.8
		c0.1-0.2,0.2-0.4,0.3-0.5h-11.7c-2.7-2-5.3-4-7.8-6.2H320h93.6c-2.5,2.2-5.1,4.2-7.8,6.2H320h-70.7c2.4,1.3,6.6,3.7,11.3,6.3H320
		h76.7c-4.6,2.9-9.5,5.6-14.4,8H320h-7.6c0.1,0.2,0.2,0.5,0.3,0.8c0.7,2,0.7,2.2,0,2.2c-0.4,0-0.6,0.3-0.5,0.6c0,0,0.1,0.2,0.2,0.4
		h7.6h53.1c-16.9,6.7-34.9,10.1-53.1,10.1c-1.2,0-2.4,0-3.6,0c1.7,4.2,3.8,9.4,6,14.9c5.5,13.7,10.1,25,10.3,25.1
		c0.1,0.1,5.8-2.3,12.7-5.4c6.9-3.1,12.8-5.6,13.1-5.6c0.3,0,0.8,0.3,1.2,0.7c0.5,0.6-0.2,1.5-5.1,6.4c-5.5,5.5-5.6,5.7-4.8,6.5
		c1.1,1,2.1,1,2.9,0c0.4-0.4,4.3-4.2,8.8-8.3l8.2-7.5l13.7-5.5c7.5-3,13.8-5.5,14-5.5c0.9,0,2,4.2,1.7,6.7c-0.1,1.4-0.1,2.7,0,2.9
		c0.6,0.8,2.1,1.2,2.7,0.6c1.2-1,0.7-3.7-1.3-7.3c-1-1.9-1.8-3.5-1.7-3.5c0.1-0.1,6.5-2.7,14.4-5.9c7.8-3.1,26.3-10.7,41-16.8
		l26.8-11l16.5-0.8c23.7-1.1,23.9-1.1,23.7-2.3c-0.2-1.1,1.3-1.1-24.4,0.1l-16.3,0.8l-8.1,3.3c-4.4,1.9-8.2,3.4-8.4,3.4
		s-0.8-0.6-1.3-1.2l-0.9-1.2l-4.8,1.5c-2.7,0.8-5.1,1.6-5.4,1.7c-0.4,0.1-0.8-0.6-1.3-2.1c-0.5-1.6-1-2.4-1.9-2.8
		c-0.7-0.3-1.3-1.1-1.5-1.9c-0.1-0.7-2.4-11-5.1-22.9c-2.2-9.6-3.4-15.3-4-18.6c-1.5,2.1-3,4.2-4.6,6.3h-61
		c-20,0-38.2-7.2-52.3-19.1c-14.1,11.9-32.3,19.1-52.3,19.1h-61c-2-2.6-4-5.3-5.8-8H264c8,0,15.9-1.2,23.5-3.5
		c12.2-3.7,23.3-10.2,32.5-19c9.2,8.8,20.3,15.3,32.5,19c7.6,2.3,15.5,3.5,23.5,3.5h61.6c-0.2-1.5-0.2-2.2-0.1-2.5
		c0.5-1.1,0.5-1,1.4,1.5c0.9,2.7,0.9,2.7,2.4,2.4c2.9-0.7,3.3-0.6,4,1.6c0.7,2,0.7,2.1-0.4,2.9c-3.1,2.5-1.2,11.3,3.1,14.2
		c1.7,1.1,1.9,1.2,4,0.5c2-0.6,2.2-0.6,2.2,0c0,0.4-0.3,1-0.7,1.3c-0.6,0.4-0.6,0.8,0,2.8c0.6,2.3,0.6,2.3,2.5,2.2
		c1.9,0,1.9,0,2.3,2c0.5,2.1,0.5,2.1-0.8,2.8c-0.7,0.4-1.4,0.9-1.4,1.2c0,1.1,1.5,6,1.9,6c0.2,0,1.2-0.3,2.3-0.7c2.1-0.7,8-0.7,12,0
		l2,0.3l1.3-2.6c1.2-2.5,1.4-2.6,2.7-2.3c2.5,0.5,0.9-0.7-3.7-2.9c-4.2-2-4.3-2.1-5.7-4.8c-0.8-1.5-1.4-3-1.4-3.2s1.1-0.9,2.3-1.5
		c1.3-0.6,2.3-1.4,2.3-1.7c0-0.8-0.4-0.7-2.8,0.1c-2.5,0.9-3.3,0.9-3.3,0c0-0.6-1.6-4.2-2.1-4.8c-0.1-0.1-0.6,0.1-1.2,0.4
		c-1,0.5-1,0.5-0.7-1.4c0.3-1.8,0.3-1.9-0.9-1.9c-0.7,0-1.2-0.3-1.2-0.7c0-0.4,0.3-0.7,0.7-0.7c0.8,0,0.8-0.2-1.3-5.7
		c-1.1-2.8-1.6-3.6-2.5-3.8c-1.1-0.3-1.6-1.7-0.6-1.7c1,0,0.2-2.1-0.8-2.2c-1.7-0.2-1.3-0.7,1.7-2.2c1.5-0.7,2.8-1.4,2.8-1.5
		c0-0.1-1.4-2.8-3-6c-2.7-5.2-3-6-3-8.4c0-1.5,0.2-3.5,0.5-4.5c0.6-2.6-0.1-3.3-6.8-7.5c-3.2-2-5.7-3.9-5.7-4.2
		c0-0.3,0.2-1.1,0.5-1.8l0.6-1.2l2.4,1.6c1.3,0.9,2.5,1.6,2.7,1.6c0.4,0,4.6-5.8,4.6-6.4c0-0.2-1-1.2-2.3-2.2l-2.3-1.8l1-1.5
		c7.2-10.2,7.9-10.9,9.8-11c0.7,0,0.7,0.1,0.3,0.8c-0.2,0.5-0.5,1.1-0.5,1.4c0,0.4,27.4,14.5,28.1,14.5c0.2,0,13.6-24.6,14.2-26.2
		c0.3-0.7,0.3-1.3,0.1-1.3c-0.6,0-3.4,2.7-3.4,3.2c0,0.3-0.4,0.5-0.9,0.5c-0.7,0-1.4,0.7-2.2,2.1c-0.7,1.2-1.6,2.7-2.1,3.5l-0.8,1.4
		l-3.3-1.8c-2-1.1-3.3-2.1-3.3-2.5C484.9,246.5,488,244.8,490.1,244.4z M329.6,120l5.9,18.2L320,126.9l-15.5,11.3l5.9-18.3
		L295,108.7h19.1l5.9-18.2l5.9,18.2h19.2L329.6,120z M385.5,155.7l-4.3-12.5l-13.3,0.2l10.6-8l-4.3-12.6l10.8,7.6l10.6-8l-3.9,12.7
		l10.9,7.7l-13.3,0.2L385.5,155.7z M435.4,195.8l-11.6-6.4l-9.7,9l2.6-13l-11.6-6.4l13.1-1.6l2.6-13l5.6,12l13.1-1.6l-9.7,9
		L435.4,195.8z M320,327.6h106.3c-1.2,1.4-2.5,2.7-3.8,4H320H217.5c-1.3-1.3-2.6-2.6-3.8-4H320z M201.8,403.3
		c1.2-0.9,2.7-1.4,5.9-1.9c4-0.7,12.4-2.8,13-3.4c0.7-0.7,1.1,0,0.8,1.5c-0.2,1-0.4,3.2-0.6,5c-0.3,3-0.5,3.4-2.5,5.6
		c-2.4,2.6-3.1,4-2.4,5.2c0.3,0.5,0.3,2.1,0,4c-0.5,3.9,0,4.9,3.4,5.9c2.4,0.7,2.5,0.8,2.6,2.6c0.1,1,0.3,2.9,0.6,4.2
		c0.4,1.9,0.4,2.7-0.2,4.1c-1,2.5-0.9,7.3,0.2,8.7c0.5,0.7,0.9,1.9,0.9,2.9c0,1.6-0.2,1.8-2,2.6c-2.2,1-8.8,6.4-8.8,7.2
		c0,0.3,0.3,0.9,0.8,1.4c0.7,0.8,0.7,0.8-0.8,0.8h-1.5l1.1,1.2c1.1,1.2,1.1,1.2,0.1,0.7c-1.3-0.7-1.5-0.7-1.5,0.1
		c0,0.3,0.5,1,1.1,1.4c0.7,0.5,0.8,0.7,0.3,0.7c-0.4,0-1.1-0.3-1.6-0.7c-0.9-0.7-1.7-0.6-1.7,0.3c0,0.2,0.7,0.8,1.5,1.4
		c1.6,1,1.5,1-1.1,1.1l-1.6,0l0.1,2.1l0.2,2.1l-5.9,1.3c-5.2,1.2-6.6,1.3-12.1,1.1c-5.6-0.2-6.7-0.4-13.4-2.4
		c-18.2-5.4-25.3-8.9-30-14.7c-2.5-3.1-5.5-7.9-5.5-8.9c0-0.9,1.2-0.6,6.8,2c3.9,1.8,5.5,2.8,5.6,3.4c0.5,2.3,3,3.5,5.5,2.6
		c0.6-0.2,1.3-0.1,1.9,0.2c1.6,1,4.7,1.2,8.2,0.5c4.4-0.9,6.3-2.7,8.3-7.6c2.3-5.5,2.8-8.8,2.2-13.4c-0.3-2.2-0.4-4.6-0.2-5.4
		c0.5-2.4,3.1-4.1,9.7-6.2c3.6-1.2,4.2-1.5,5.6-3.4c1.7-2.3,3.6-7.3,3.6-9.5c0-1.2,0.1-1.3,1.2-1c1.4,0.3,1.6-0.6,0.4-1.4
		C199.2,406.6,199.9,404.8,201.8,403.3z"/>
	<path fill="#00785E" d="M237.4,142.8l10.9-7.7l-2.2-7.2c-14,4.5-25.2,8.2-25.5,8.3c-0.2,0.1-0.4,1.6-0.4,3.2v3l4.4,3.1l4.4,3.1
		l7.1-2.3l7.1-2.3l0.6,1.4c0.3,0.8,0.8,1.3,1.2,1.2c5.3-2,5.9-2,6.5-0.1c0,0,0,0.1,0.1,0.1l-1.1-3.5L237.4,142.8z"/>
	<path fill="#00785E" d="M285.1,370.9c0.6,0.5,2,1.3,3.1,1.9c1.9,1,2,1,4.5,0.2c1-0.3,1.6-0.5,2-0.8c-3.5-0.6-6.9-1.4-10.4-2.2
		C284.4,370.3,284.6,370.5,285.1,370.9z"/>
	<polygon fill="#FBD116" points="320,90.5 314.1,108.7 295,108.7 310.4,119.9 304.5,138.2 320,126.9 335.5,138.2 329.6,120 
		345.1,108.7 325.9,108.7 	"/>
	<path fill="#FFFFFF" d="M320,331.6c-0.9-0.3-1.4-1.2-1.4-2c0-0.9,0.6-1.7,1.4-2H213.7c1.2,1.4,2.5,2.7,3.8,4H320z"/>
	<path fill="#FFFFFF" d="M318.7,343c0-1.8,1-2.9,1.3-3.1h-93.6c2.5,2.2,5.1,4.2,7.8,6.2h11.7c0.5-0.9,0.9-1.3,1.3-1.1
		c0.1,0,0.9,0.5,2.1,1.1H320C319.2,345.3,318.7,344.2,318.7,343z"/>
	<path fill="#FFFFFF" d="M318.8,356.2c0.1-1.4,0.5-2.7,1.2-3.8h-59.4c4.7,2.6,9.9,5.5,14.2,8h32.8c0.2-0.1,0.4-0.2,0.6-0.3
		c2-0.8,3.6-1.4,3.7-1.3c0,0.1,0.3,0.7,0.6,1.6h7.6C319.2,359.1,318.8,357.7,318.8,356.2z"/>
	<path fill="#FFFFFF" d="M318.7,369.5c0-1.8,0.5-3.5,1.3-5.1h-7.6c0.5,1.2,2,4.9,4.1,10.1c1.2,0,2.4,0,3.6,0
		C319.2,373,318.7,371.2,318.7,369.5z"/>
	<path fill="#FFFFFF" d="M244.5,353.1c0.6-0.2,1.1-0.4,1.2-0.5c0,0,0.1-0.1,0.1-0.2h-2.4C243.7,352.6,244.1,352.9,244.5,353.1z"/>
	<path fill="#FFFFFF" d="M284.3,365.9c0.7,0.5,0.7,0.8,0.2,2.4c-0.3,0.9-0.4,1.4-0.3,1.7c3.4,0.9,6.9,1.6,10.4,2.2
		c0.5-0.3,0.6-0.7,0.6-1.4c0-1.7,0.6-2.1,2.2-1.2c1.3,0.7,1.4,0.6,2.8-0.3c0.8-0.6,1.5-1.4,1.5-1.9c0-0.4,0.6-1.7,1.2-3h-21.3
		C283.2,365.2,284.2,365.8,284.3,365.9z"/>
	<path fill="#FFFFFF" d="M318.8,292.7c0.2-1.3,0.6-2.6,1.2-3.8c-9.2,8.8-20.3,15.3-32.5,19c-7.6,2.3-15.5,3.5-23.5,3.5h-63.1
		c1.8,2.7,3.8,5.4,5.8,8h61c20,0,38.2-7.2,52.3-19.1C318.8,297.9,318.4,295.3,318.8,292.7z"/>
	<path fill="#FFFFFF" d="M261.5,305.1c22.1,0,43.2-9,58.5-25c-2.8-19.5-4.3-39.1-4.5-58.8c-0.2-22.6,1.3-45.3,4.5-67.7
		c-6.6,6-19,18.7-24.8,38.3c-2.2,7.5-3.3,15.3-3.2,23.1c0,16,4.8,31.7,13.7,45c-11-14.2-17-31.6-17-49.5c0-12.4,2.8-24.2,7.8-34.7
		c-3.5-3.7-6-8.1-7.5-13c-6.9,12.2-10.5,26-10.5,40c0,18,5.9,34.7,15.9,48.1c-19-20-45.8-30.7-73.4-29.4c2.8,2.6,5.1,5.6,6.8,8.9
		c25.9,0,50.7,10.7,68.6,29.4c-17.1-14.3-38.7-22.2-61-22.2c-7.8,0-15.5,0.9-23,2.8c1.9,0,1.9,0,1.6,1.4c-0.1,0.8-0.3,1.6-0.3,1.9
		c0,0.2-0.3,0.4-0.7,0.4c-0.9,0-1.2,1.1-1.2,4.2c0,2.7,0,2.7-1.4,2.7c-1.3,0-1.4,0.2-1.9,2.3c-0.7,2.7-0.4,3.6,1,3.8
		c1.5,0.2,1.7,1.8,0.2,1.8c-0.9,0-1.3,0.4-1.9,1.7c-0.2,0.6-0.4,0.9-0.4,1.2c0.1,0.2,0.3,0.4,0.4,0.6c0.1,0,0.3,0,0.5,0.1
		c0.8,0.1,1.1,0.4,1,1.2c0,0.2-0.1,0.4-0.2,0.5c16.4,22.2,43.4,35.1,72,32.8c-4.7,0.8-9.5,1.3-14.4,1.3c-21.1,0-41.3-8.1-56.4-22.8
		h-0.1c-2.7,1-5.5,1.6-8.4,1.9c-0.3,0.2-0.5,0.4-0.8,0.8C216.6,295.3,238.5,305.1,261.5,305.1z"/>
	<path fill="#FBD116" d="M272.1,143.4l-10.6-8l4.3-12.6l-10.8,7.6l-4.9-3.7c-0.5,0.1-0.9,0.3-1.4,0.4c-0.9,0.3-1.7,0.6-2.6,0.8
		l2.2,7.2l-10.9,7.7l13.3,0.2l1.1,3.5c0.4,0.1,1.8-0.1,3.6-0.6l2.8-0.8l0.7-2L272.1,143.4z"/>
	<path fill="#FBD116" d="M223.3,185.4l11.6-6.4l-12.7-1.6c-0.2,0.8-0.4,2.1-0.8,4c-0.6,3.1-1.3,6.3-1.5,7.2
		c-0.7,2.5-0.7,2.8,0.9,2.8c0.9,0,1.4,0.2,1.4,0.7c0,0.3,0.1,1.3,0.3,2.1c0.1,0.5,0.2,0.9,0.1,1.1l3.4,3.1L223.3,185.4z"/>
	<path fill="#FFFFFF" d="M352.5,307.9c-12.2-3.7-23.3-10.2-32.5-19c-0.6,1.2-1,2.5-1.2,3.8c-0.4,2.6,0,5.2,1.2,7.6
		c14.1,11.9,32.3,19.1,52.3,19.1h61c1.6-2,3.1-4.1,4.6-6.3c-0.1-0.7-0.2-1.2-0.3-1.7H376C368,311.4,360.1,310.2,352.5,307.9z"/>
	<path fill="#FFFFFF" d="M318.6,329.6c0,0.8,0.5,1.7,1.4,2h102.5c1.3-1.3,2.6-2.6,3.8-4H320C319.2,327.9,318.6,328.7,318.6,329.6z"
		/>
	<path fill="#FFFFFF" d="M320,360.4h62.3c4.9-2.4,9.8-5.1,14.4-8H320c-0.7,1.1-1.1,2.4-1.2,3.8C318.8,357.7,319.2,359.1,320,360.4z"
		/>
	<path fill="#FFFFFF" d="M320,374.5c18.2,0,36.2-3.4,53.1-10.1H320c-0.8,1.6-1.3,3.3-1.3,5.1C318.7,371.2,319.2,373,320,374.5z"/>
	<path fill="#FFFFFF" d="M315.5,221.3c0.2,19.7,1.7,39.3,4.5,58.8c15.3,16,36.4,25,58.5,25c23.3,0,45.4-10,60.8-27.5
		c-3.3-0.2-6.6-0.8-9.7-2h-0.1c-15.1,14.7-35.3,22.8-56.4,22.8c-4.9,0-9.7-0.5-14.4-1.3c36.1,3,69.8-18.3,82.6-52.2
		c-11.6-4.8-24.1-7.3-36.7-7.3c-22.3,0-43.9,7.9-61,22.2c17.9-18.7,42.7-29.4,68.6-29.4c1.7-3.3,4-6.3,6.8-8.9
		c-27.6-1.3-54.4,9.4-73.4,29.4c10-13.4,15.9-30.1,15.9-48.1c0-14-3.6-27.8-10.5-40c-1.5,4.9-4,9.3-7.5,13c5,10.5,7.8,22.3,7.8,34.7
		c0,17.9-6,35.3-17,49.5c8.9-13.3,13.7-29,13.7-45c0.1-7.8-1-15.6-3.2-23.1c-5.8-19.6-18.2-32.3-24.8-38.3
		C316.8,176,315.3,198.7,315.5,221.3z"/>
	<path fill="#FFFFFF" d="M318.7,343c0,1.2,0.5,2.3,1.3,3.1h85.8c2.7-2,5.3-4,7.8-6.2H320C319.7,340.1,318.7,341.2,318.7,343z"/>
	<polygon fill="#FBD116" points="426.4,176.4 420.8,164.4 418.2,177.4 405.1,179 416.7,185.4 414.1,198.4 423.8,189.4 435.4,195.8 
		429.8,183.8 439.5,174.8 	"/>
	<polygon fill="#FBD116" points="391.7,135.1 395.6,122.4 385,130.4 374.2,122.8 378.5,135.4 367.9,143.4 381.2,143.2 385.5,155.7 
		389.3,143 402.6,142.8 	"/>
</g>
</svg>
