<?xml version="1.0" encoding="utf-8"?>
<!-- Generator: Adobe Illustrator 17.1.0, SVG Export Plug-In . SVG Version: 6.00 Build 0)  -->
<!DOCTYPE svg PUBLIC "-//W3C//DTD SVG 1.1//EN" "http://www.w3.org/Graphics/SVG/1.1/DTD/svg11.dtd">
<svg version="1.1" id="flag-icon-css-mq" xmlns="http://www.w3.org/2000/svg" xmlns:xlink="http://www.w3.org/1999/xlink" x="0px"
	 y="0px" viewBox="0 0 640 480" enable-background="new 0 0 640 480" xml:space="preserve">
<g>
	<path fill="none" d="M466.6,480c0.1,0,0.1,0,0.1,0c0,0,0.1,0,0.2,0H466.6z"/>
	<path fill="#FFFFFF" d="M425.8,212.3c-4.9,1.6-6.7,3-7.7,5.9c-0.3,1-1.3,1.9-3,3c-4.3,2.5-4.7,2.5-8.6-1.2
		c-2.9-2.8-3.4-3.5-3.7-5.3c-0.4-2.7-1.5-3.8-5.3-5.6c-2.6-1.3-3-1.6-2.8-2.5c0.1-0.5,0.3-1.6,0.3-2.4c0-1.2,0.3-1.5,2-2.3
		c1.7-0.7,2.1-1.1,2.6-3c0.6-1.9,0.9-2.3,2.8-3c2.5-1.1,3.2-0.9,3.7,0.8c0.3,1.1,0.5,1.2,3.5,1.2c4,0,4.2-0.6,0.9-3
		c-1.6-1.2-2.3-2.1-2.3-2.8c0-1.4,2.2-3.2,3.2-2.8c0.4,0.1,1.7,0.4,3,0.5c2,0.2,2.2,0.2,2.2-0.7c0-0.8,0.5-1.1,2-1.5
		c1.1-0.3,2.9-0.8,4-1.2c1.9-0.7,2-0.6,2,0.5c0,1.6,0.9,1.8,2,1v-12c-0.7-0.6-1.6-1.5-2.2-2.2l-1.8-2.2l0.3-5.2l0.3-5.1h-2.1
		c-2,0-2.1,0-2.9,2.1c-0.8,2-1.2,2.3-5.3,4.5l-4.5,2.4l-1.7-2c-2.6-2.9-2.4-4.1,0.8-6.3c2.1-1.4,2.5-1.9,2.3-2.6
		c-0.2-0.7,0-1.1,0.9-1.5c1.5-0.7,1.5-1.1,0-2.1c-1.8-1.2-3.3-0.5-5.5,2.4c-1.1,1.4-2.2,2.6-2.5,2.6c-0.3,0-1.3-1-2.2-2.3
		c-1.6-2.1-3-3.3-5.2-4.5c-1-0.5-2.5-4.4-2.6-6.7c0-0.8,0-1.5,0.1-1.5c0.1,0,1.2-0.2,2.6-0.5c1.7-0.3,2.7-0.3,3.6,0.1
		c1.5,0.7,1.6,0.5,2-1.9c0.2-1.5,0.1-1.9-0.5-1.9c-0.4,0-1.8-0.2-3.1-0.5l-2.3-0.5v-2.6c0-2.5,0.1-2.7,1.4-3.5
		c0.8-0.4,1.9-1.8,2.6-3.1c1.1-2.2,1.4-2.4,3.6-2.9c1.3-0.3,3.8-0.5,5.5-0.5c2.6,0,3.7,0.3,6.5,1.6c1.9,0.9,4.9,2.7,6.8,4
		c3.5,2.3,3.5,2.3,4,5.1c0.3,1.7,0.7,2.8,1.1,3.2v-31.2c-2.5,0.7-5,2.4-8,5.2l-3.4,3.2l-1.7-1.9c-1.6-1.9-1.8-1.9-4.7-1.9
		c-2.2,0-3.3,0.2-4.3,0.9c-0.7,0.5-2.7,1.3-4.5,1.7c-5.6,1.4-8.2,3.1-11.9,8.2l-2.4,3.2v5.3v5.2h-2.9c-5.9,0-6.9-0.8-6.9-5.1
		c0-1.2-0.5-2.9-1.2-4.3c-0.7-1.3-1.2-3-1.2-4c0-2.1-1.6-5.3-4.6-9.2c-1.3-1.6-3-4.2-3.8-5.7c-1.3-2.3-1.7-2.7-2.9-2.7
		c-0.8,0-1.4-0.2-1.4-0.6s-0.6-1.5-1.4-2.6c-1.7-2.3-1.7-2.4-0.5-2.4c1.3,0,1.3-1.8,0-3.4c-0.9-1.2-1.1-1.2-3.8-0.9
		c-2.4,0.2-2.8,0.2-2.8-0.6c0-0.4-0.6-1.4-1.4-2.1c-1.3-1.2-1.3-1.5-0.9-2.9c0.9-3,0.7-3.4-1.4-3c-2.4,0.4-2.9,0-5-4
		c-1.5-3-2.3-3.8-6.8-7.4c-1-0.8-1.1-1-0.6-1.8c0.3-0.5,0.7-1.2,0.8-1.5c0.1-0.4,0.5-1.4,0.9-2.1c1.6-3.5,1.1-4.8-1.8-4.3
		c-0.8,0.1-2,0-2.7-0.4c-1.1-0.6-1.3-0.5-2.4,0.5l-1.3,1.2l-2.7-1.5c-3.5-2-4.1-2.8-4.5-6.2c-0.2-2.4-0.5-3-2.3-4.7
		c-1.9-1.9-2.2-2.1-5.3-2.3c-3.1-0.3-3.2-0.4-2.5-1.2c0.8-0.9,1-2.7,0.3-3.1c-0.3-0.2-0.4-0.7-0.2-1.2c0.2-0.7-0.2-1.2-1.5-2.1
		c-1.5-1-2.3-1.2-4.7-1.2h-3l-1.3-2.1c-0.7-1.1-1.7-2.3-2.2-2.4c-1.5-0.5-3.8-0.3-5.3,0.5c-0.9,0.5-2.7,0.7-5,0.7h-3.6l-3.9-3
		c-3.1-2.3-3.9-3.2-4.2-4.5l-0.3-1.5l-2.5,0.3c-2.3,0.3-2.6,0.2-4.7-1.4c-1.8-1.4-2.6-1.7-4.1-1.6c-2.2,0.1-4.1-1.1-4.1-2.6
		c0-0.6-0.6-1.7-1.4-2.5c-0.8-0.8-1.4-1.6-1.4-1.9c0-0.3-0.7-0.5-1.4-0.5c-2.1,0-5.3-1.8-9.8-5.5c-2.2-1.7-5.5-4.2-7.3-5.5
		c-1.8-1.3-4-3-4.8-3.8c-1.5-1.4-1.8-1.5-5.6-1.6c-3.9-0.2-4.3-0.3-9.6-3c-5.4-2.7-5.5-2.7-7.8-2.2v241.7c0.2-0.1,0.4-0.1,0.6-0.2
		c1.2-0.3,9.8,2.6,13.2,4.5c1.3,0.7,3.2,1.5,4.2,1.8c1.5,0.4,2.9,1.6,7.4,6.6c3.6,4,6.2,7.3,7.4,9.6c1.4,2.5,2.3,3.7,3.5,4.4
		c0.9,0.5,1.9,1.5,2.2,2.2c0.3,0.8,1.1,2,1.7,2.8l1.1,1.4l1.6-1.2l1.6-1.3l1.5,0.9l1.5,0.9l2.5-1.6c2.2-1.5,3-1.7,6-1.9
		c3.4-0.2,3.5-0.2,5.4,1.5c1.1,0.9,2.3,1.7,2.9,1.9c0.8,0.2,0.9,0,0.9-2.2v-2.3l1.2,1.1l1.2,1.1l1.2-1.5c0.7-0.8,1.6-1.5,2.1-1.5
		c0.8,0,0.9,0.4,0.9,4.9v4.9l3-0.3c1.6-0.1,3-0.3,3.1-0.4c0.1-0.1-0.5-0.7-1.2-1.3c-1.1-1-1.3-1.3-0.7-1.6c0.4-0.3,1.6-0.4,2.8-0.2
		c1.7,0.2,2.4,0.6,4,2.3c1.8,2,2,2.1,4.7,2.1c1.7,0,3-0.2,3-0.5c0.1-0.3-0.2-2.5-0.7-5c-0.7-3.7-0.8-4.7-0.3-5.9
		c0.5-1.1,0.8-1.3,1.7-1.1c0.6,0.1,2.7,0,4.6-0.3c3.4-0.6,3.7-0.7,6.2-3.2l2.7-2.7l1.7,0.6c2.3,0.8,2.8,1.4,2.2,2.5
		c-0.3,0.7-0.3,1.1,0,1.5c0.4,0.4,0.3,0.8-0.5,1.6c-0.6,0.6-1,1.3-1,1.5c0,0.2,1.3,1.5,2.8,3c2.9,2.8,3.1,3.4,2.5,6.6
		c-0.2,1.2-0.5,1.5-1.6,1.5c-0.7,0-1.6,0.4-2.1,0.9c-0.5,0.6-1.5,0.9-2.4,0.9h-1.5l-0.4,3.1c-0.3,2.9-0.2,3.2,0.7,3.9
		c1.1,0.9,2.8,0.7,3.2-0.3c0.5-1.2,1.5-0.7,2.5,1.2c0.5,1,1.5,2.2,2.2,2.6c1.7,1.1,2.9,3.8,2.5,5.6c-0.8,3.5-0.5,6,1.2,8.6l1.6,2.6
		l-1.2,1.2c-0.7,0.7-1.2,1.5-1.2,1.8c0,0.7,2,0.8,2.7,0c0.3-0.3,1.9-0.4,4.4-0.2c5.8,0.4,6.2,0.4,7.2,0.2c0.8-0.2,1,0.2,1.4,3
		c0.6,3.6,0.7,3.7,2.7,4.4c0.9,0.3,1.5,0.8,1.6,1.5c0.1,0.5,0.5,1.2,0.8,1.5c0.8,0.7,0.9,2.2,0.2,2.6c-0.2,0.1-0.8-0.3-1.2-0.9
		c-0.6-0.9-1.1-1.2-2.8-1.2c-2.3,0-2.5,0.4-1,2.3c1.3,1.7,0.7,2.6-2,3c-2,0.3-3.3,1.3-7.6,5.3l-2.7,2.6l0.3-2.4
		c0.4-2.9-0.1-3.4-2-2.1c-1,0.8-1.4,1.5-1.6,3.3c-0.2,1.5-0.6,2.5-1,2.7c-1.1,0.4-3-0.7-3-1.6c0-0.5-0.4-1.5-1-2.2
		c-0.8-0.9-1.4-1.2-2.8-1.2c-2.4,0-4.1,0.8-4.4,2.2c-0.3,1.1-1.7,1.6-1.7,0.7c0-0.3-0.8-0.5-1.6-0.5c-1.5,0-1.6-0.1-1.6-1.2
		c0-1.1-0.1-1.2-2.3-1.2c-1.7,0-2.8-0.3-4-1.2c-0.9-0.7-2.2-1.2-2.8-1.2c-2.2,0-3.7-4.7-1.6-5.4c0.5-0.1,1.5-0.7,2.1-1.2
		c1-0.8,1.2-1.4,1.2-2.9c0-1.1-0.1-2.4-0.3-3c-0.4-1.3-1.4-1.2-6.1,1c-1.8,0.8-3.6,1.4-3.9,1.2c-0.3-0.2-0.7-1.5-0.8-3
		c-0.2-2.1-0.5-2.8-1.1-2.9c-0.5-0.1-0.9-0.8-1-1.5c-0.1-1.1-0.2-1-1.2,1.1c-0.6,1.3-1,3-1.1,3.8c0,1.8-0.5,3-1.4,4.4
		c-0.7,1-0.8,1-2.6,0.4c-1.7-0.6-2-0.6-3.3,0.3c-1.2,0.7-1.5,1.4-1.8,3.1c-0.2,1.5-0.9,3-2.2,4.6c-1,1.4-2,2.5-2.2,2.5
		c-0.1,0-1.8-0.3-3.6-0.7c-5.2-1.1-5.2-1.1-10.5,3.1c-4.6,3.8-4.8,3.9-4.5,5.4c0.1,0.8,0.4,1.9,0.6,2.3c0.2,0.6-0.1,0.7-2,0.6
		l-2.3-0.2l0.1,2.2c0.1,2.1,0.1,2.3-1.5,2.9c-1.2,0.5-1.7,1-1.9,2.2c-0.2,0.8-0.8,2.1-1.3,2.8c-0.6,0.8-0.9,2.1-0.9,3.1
		c0,1.4-0.5,2.6-2,4.8c-1.1,1.7-1.8,3-1.5,3.3c1,0.9,5.2,2.2,6.3,1.9c0.7-0.2,2.8-0.5,4.8-0.7l3.6-0.3l0.1,1.3
		c0.1,2.4-0.1,4.5-0.8,5.8c-0.5,1-1.1,1.4-2.8,1.6c-1.7,0.2-2.1,0.4-1.8,1.1c0.2,0.4,0.4,1.5,0.6,2.5c0.2,1.5,0.5,1.8,3,3.2
		c1.9,1,2.9,1.3,3,1c0.1-0.3,0.6-0.6,1-0.6c1.7,0,2.3,1.5,2.8,7.6c0.3,3.3,0.5,6.2,0.5,6.4c0,0.2-0.8,0.7-1.9,0.9
		c-1.7,0.5-1.9,0.7-1.9,2.1c0,2.3,0.3,2.8,3,4.9c2.3,1.8,2.6,1.9,6.3,2.1c2.1,0.1,4.1,0.4,4.5,0.8s0.7,1.3,0.7,2.2
		c0,2.5,1.1,4.4,3.8,6.9c1.7,1.6,3.4,2.6,5.2,3.2c3.4,1,3.9,1,4.8-0.4c0.4-0.7,1.2-1.2,1.7-1.2c1.4,0,4.1-2.6,5.3-5.3
		c0.6-1.4,1.4-4.2,1.7-6.3l0.6-3.9l4.5-2.3c2.5-1.3,7.1-3,10.3-4c4.9-1.5,6.4-1.7,9.2-1.5c2.9,0.1,3.6,0.3,4,1.1
		c1.3,2.3,4.4,5,6,5.3c1.6,0.2,1.8,0.1,2.3-1c0.2-0.7,0.5-1.8,0.5-2.5c0-1.5,1-2.9,2.1-2.9c0.5,0,0.8,0.4,0.8,1.1
		c0,0.6,0.6,1.7,1.4,2.4c0.8,0.8,1.5,2,1.6,3c0.2,1.5,0.8,2.2,2.8,3.7c1.3,1,3.1,2,4,2.1c1.4,0.2,1.6,0,2.1-1c0.3-0.8,0.3-2.1,0-3.8
		c-0.3-1.4-0.6-3.3-0.7-4.2c-0.2-1.6-0.2-1.6,0.6-0.5c3.3,4.7,5.3,5.5,5.6,2.4c0.1-0.9,0.4-2,0.8-2.3c0.3-0.4,0.8-1.6,0.9-2.7
		c0.6-3.6,3.1-3.3,4.9,0.5c1,2.2,1.1,2.8,0.8,4.9c-0.3,2.2-0.3,2.7,0.6,3.9c0.8,1.2,1.3,1.4,2.3,1.1c2.8-0.6,3.8-1.3,4-2.6
		c0.3-1.3,0.4-1.4,3.2-1.4c4.5,0,5,0.3,5,2.4c0,1.5,0.2,1.9,1.4,2.5c0.8,0.4,2,0.7,2.7,0.7c0.8,0,2.1,0.2,2.9,0.5
		c1.1,0.4,1.6,0.4,2.1,0c1.2-1.2,9.3-0.2,13.6,1.7c1.5,0.7,3.9,1.3,5.4,1.4c2.6,0.2,2.6,0.2,5.3-2.1c2.3-2.1,3-2.4,5.4-2.6
		c2.3-0.2,2.9-0.5,3.7-1.5l0.9-1.2l1.3,1.2c1.1,1,1.5,1.2,2.3,0.8c0.6-0.3,0.9-0.5,1.2-0.4V212C426.4,212.1,426.1,212.2,425.8,212.3
		z"/>
	<path fill="#FFFFFF" d="M426.6,411.6c0,0.2,0,0.5,0.1,0.7v-1.6C426.6,411.1,426.6,411.4,426.6,411.6z"/>
	<path fill="#00267F" d="M213.2,2.9c-2.3,0.5-2.4,0.5-4.3-1.1l-2-1.6L194.5,0c-11.8-0.1-12.5-0.1-14,0.8c-0.8,0.5-2,0.9-2.5,0.9
		c-0.5,0-1.8,0.5-2.9,1c-1.5,0.8-2.6,1-4.7,0.9c-3-0.1-4.1,0.4-11.4,5.4c-1.6,1.1-3.4,2-3.9,2c-0.5,0-2,0.8-3.3,1.6
		c-1.8,1.3-3,1.8-5.8,2.2c-3.4,0.5-3.6,0.7-5,2.5c-0.8,1.1-1.8,2.1-2.3,2.2c-0.6,0.1-1.1,1-1.4,2.3c-0.3,1.1-1.1,3-1.6,4.2
		c-1.1,2.2-4,5.1-5.1,5.1c-0.3,0-0.9,1.2-1.4,2.7s-1.5,3.4-2.2,4.4c-1,1.3-1.4,2.3-1.4,3.6c0,1.5-0.2,2-1.1,2.4
		c-0.6,0.3-1.2,1-1.4,1.6c-0.8,2.9-3.1,9-3.8,9.8c-0.7,0.8-0.8,1.1-0.3,2.2c0.8,1.5,0.7,3.4-0.1,4.9c-0.9,1.6-0.8,2.7,0.2,4.1
		c0.5,0.7,0.9,1.6,0.9,2.1c0,0.5,0.7,1.3,1.6,1.8l1.6,1l-1,1.2c-1.3,1.6-0.9,3,1.9,6c1.6,1.8,2.4,3.1,2.8,4.9
		c0.8,3.5,2.4,6.8,3.4,7.1c0.4,0.1,1.4,1.3,2.2,2.7c1.4,2.4,1.4,2.5,5.1,3.6c2.1,0.6,4.1,1.1,4.5,1.1c0.5,0,1.9,2,4,6
		c1.7,3.3,3.5,6.5,3.9,7c0.4,0.6,3,2.6,6,4.6c4.6,3,5.6,3.9,7.2,6.4c1,1.6,1.9,3.1,1.9,3.4c0,0.2,0.9,1.4,2,2.5
		c1.8,1.8,2,2.2,2.5,6.1l0.7,4.2l-2.8,5.8c-3.2,6.7-5.7,15.1-5.7,19c0,1.5,0.3,3.8,0.7,5c0.4,1.3,0.7,2.9,0.7,3.6
		c0,2.3,3.3,9.8,6.2,14.2c1.5,2.3,4.3,6.9,6.1,10.1c3.7,6.6,9.6,15.8,11.1,17c0.6,0.5,1,1.3,1,1.8c0,1.3,3,5,5,6.1
		c1.2,0.7,1.6,1.4,2.3,3.8c0.8,2.9,0.9,3,2.8,3.5c1,0.3,3.2,1.1,4.9,1.8c2.6,1.1,3.1,1.5,3.8,3.2c0.5,1.1,1,2.9,1.2,4
		c0.2,1.1,0.7,2.5,1.1,3c0.5,0.5,1.3,1.7,1.9,2.7c0.7,1.2,1.3,1.7,1.7,1.5c0.3-0.1,0.7-0.3,1.1-0.4L213.2,2.9
		C213.3,2.8,213.3,2.8,213.2,2.9z"/>
	<path fill="#F31830" d="M449.1,242c-0.3-0.6-0.5-0.6-1.2,0.4c-0.9,1.3-0.9,2-0.3,3.2c0.5,0.9,0.5,0.9,2.1,0c2.1-1.2,2.5-2.2,1-2.6
		C450,242.8,449.3,242.4,449.1,242z"/>
	<path fill="#F31830" d="M469,478.6c1.9-1.5,4-1.8,4.9-0.7c0.8,1,1.5,0.9,3-0.7c0.8-0.8,1.7-1.4,2.2-1.4c1.9,0,2.3-0.5,2-2.5
		c-0.3-2.3-0.1-2.8,2.9-7.4c1.1-1.7,2.1-3.4,2.1-3.6c0-1,2.6-2.9,3.9-2.9c0.8,0,2.3,0.7,3.4,1.5l2.1,1.5l1.4-1.4
		c1.6-1.5,1.8-2.1,0.6-2.1c-0.5,0-1.6-0.2-2.6-0.5c-1.5-0.4-2-0.8-2.7-2.5c-0.5-1.1-1.5-2.6-2.4-3.3c-1.3-1.1-1.5-1.6-1.7-3.8
		l-0.2-2.6l1.4,0.3c2.9,0.6,5.7,2.2,6,3.4c0.2,0.8,0.8,1.3,2.1,1.7c2.3,0.7,3.1,0.4,4-1.5c0.7-1.3,1-5,0.6-6.4
		c-0.2-0.8,2.9-4.3,4.7-5.3c1.8-0.9,1.7-0.8,4.5-8.7c0.5-1.2,1.5-3,2.3-3.9l1.5-1.7l-1.1-0.7c-1.7-1.1-1.3-2.5,1.7-5.4
		c2.3-2.2,3.1-2.7,4.5-2.7c3.2,0,2.7-2.2-0.6-2.6l-2.2-0.3l-0.9-3.7l-0.8-3.7h-3c-3.7,0-4.3-0.9-2.3-3.5c1.3-1.7,2.4-2.1,3.4-1.1
		c0.5,0.5,0.7,0.5,0.8,0c0.1-0.3,0.8-0.6,1.6-0.6c1.5,0,1.8-0.3,5.4-4.6l1.4-1.6l-2-3c-1.1-1.6-2.2-3.6-2.3-4.3
		c-0.9-4.3-1.8-6.7-2.7-6.7c-0.5,0-0.8,0.2-0.8,0.5c0,1-1,0.4-2.2-1.5c-1-1.6-1.2-2.4-1.2-4.9c0-1.6,0.2-3.4,0.5-3.8
		c0.3-0.5,0.3-1.4,0-2.3c-0.2-0.8-0.4-2.2-0.4-3.2c0-5-4.4-6.8-8.3-3.2c-1.3,1.2-2.5,1.9-3.2,1.9c-1,0-1.2-0.2-1.2-1.6
		c0-1,0.4-2.1,1.1-3c0.7-0.8,1.2-2.2,1.4-3.6c0.4-3.5,3-5,5.3-3.1c0.7,0.6,1.4,1,1.6,1c0.2,0,0.5-1.6,0.6-3.7c0.1-2,0.4-4.1,0.5-4.8
		c0.2-0.8,0.1-1.5-0.3-2.1c-0.7-0.9-0.7-0.9-2.9,0.4c-2.5,1.4-3.3,1.3-4.8-0.7c-0.9-1.1-1-1.4-0.3-1.4c0.9,0,4.1-1.6,5.1-2.6
		c0.4-0.4,0.8-1.5,0.8-2.5c0-2-1.4-3.6-4.5-5.2c-2.7-1.4-5.3-3.7-5.3-4.8c0-0.5,0.5-1.5,1.2-2.3c0.7-0.8,1.2-1.7,1.2-2
		c0-0.4,0.4-0.9,0.9-1.2c1.4-0.7,4-5.1,4.4-7.3c0.2-1.3,1-2.5,2.3-3.8l1.9-1.9l-2.1-0.3c-3-0.5-4.7,0.5-9.3,5.1
		c-2.2,2.2-4.1,4-4.4,4c-0.2,0-0.9-0.3-1.5-0.8l-1.2-0.8l2.1-2.3c1.2-1.3,2.1-2.5,2.1-2.8c0-0.6-1.5-0.5-3.8,0.3
		c-4.4,1.5-5.6,0.4-2.1-2c2.3-1.6,2.9-3.2,1.1-2.8c-0.6,0.1-2.4,0.4-4,0.6l-2.9,0.3l-0.8-2.7c-0.4-1.5-0.7-2.8-0.6-2.9
		c0.1-0.1,2.3-0.5,5-0.8c4.5-0.5,4.7-0.6,4.7-1.6c0-1.3-1.5-2-4.2-2c-3.6,0-3.6-2.4,0-3c1.6-0.3,3.1-1.2,1.9-1.2
		c-1,0-2.9-2.3-2.9-3.7c0-0.8-0.4-1.9-0.9-2.6c-0.5-0.7-1.1-1.8-1.2-2.6c-0.2-0.8-0.4-1.5-0.6-1.5c-0.1,0-1,0.7-2,1.6
		c-1.9,1.7-4.3,2.5-6.4,1.9c-0.7-0.2-2.5-0.5-4-0.6c-2.9-0.3-3-0.4-5-4.8c-0.3-0.7-0.8-1.7-1.2-2.3c-0.7-1.1-0.6-1.2,0.7-1.6
		c1.1-0.3,1.4-0.7,1.4-1.5c0-1.7-0.7-2.6-4-5.3c-3.5-2.9-5.1-5.4-4.3-6.6c0.3-0.4,1.4-1.2,2.4-1.7c1-0.5,2.6-1.6,3.5-2.4
		c1.6-1.4,1.6-1.4,0.5-1.5c-0.7,0-2.1-0.4-3-0.9c-1.7-0.9-2-0.9-3.7-0.2c-1.1,0.5-2.4,0.6-3.6,0.4l-1.9-0.3v2c0,1.9,0,1.9-1.6,1.9
		c-1.5,0-1.6-0.1-2.2-2.3c-0.3-1.3-0.8-2.3-0.9-2.3c-0.2,0-1.2,0.4-2.1,1c-1.3,0.8-2.1,0.9-3.6,0.7c-2.7-0.5-4-1.6-4-3.8
		c0-1-0.1-2.1-0.3-2.5c-0.3-0.6,0.2-1,1.6-1.8c3.1-1.7,4.1-2.8,4.1-4.5c0-1-0.3-1.7-0.9-2c-0.5-0.3-1-1.1-1.1-1.8
		c-0.2-1.2-2.6-5.5-4.3-7.9c-0.5-0.7-1.5-1.1-3-1.3c-1.6-0.2-2.5-0.6-2.8-1.2c-0.6-1.1-0.2-1.5,1.5-1.5c1.4,0,1.7-0.8,0.8-1.8
		c-0.5-0.5-0.5-0.6,0.1-0.3c0.4,0.2,1.3,0.8,2,1.3c1.1,0.8,1.8,0.9,4.8,0.7c1.9-0.1,3.8-0.4,4-0.6c0.2-0.1,0.5-1.4,0.5-2.6
		c0-1.3,0.2-2.8,0.5-3.2c0.6-1.1,1.7-0.8,2.1,0.5c0.4,1.2,2.4,1.2,3,0c0.2-0.5,0.5-1.8,0.5-2.8c0-1.1,0.4-3,0.9-4.3l0.9-2.3h-1.5
		c-3.6,0-6.9,1.6-6.9,3.4c0,1.2-2,1.1-3-0.1c-0.6-0.7-1.5-0.9-2.8-0.9c-1.5,0-2.2-0.3-3.6-1.7c-2.4-2.3-4.2-2.5-9.2-0.9v193.5
		c0.3,0.1,0.4,0.4,0.7,1.2c0.3,1,0.3,1.6-0.2,2.5c-0.2,0.4-0.4,1-0.5,1.5v1.6c0.7,2,3.5,5.6,6.8,8.3c1.8,1.5,3.7,3.3,4.2,3.9
		l0.9,1.2l1.9-1.3c1-0.7,2.3-1.3,2.7-1.3c1.4,0,1.9-0.6,2.4-2.7c0.6-2,2.3-4.4,5.2-6.9c3.1-2.8,7.6-7.5,8-8.6c0.5-1.3,2-1.4,4-0.1
		c1.5,0.8,1.7,0.9,4.5,0.3l3-0.6l1.2,4.2l1.2,4.2l-1.4,1.6c-1.6,1.8-1.7,2.2-0.7,3c1.5,1.2,0.7,1.5-3.5,1.1l-4.2-0.3l-0.6,2.1
		c-0.4,1.4-0.4,2.5-0.1,3.6l0.5,1.5h-2.9c-1.8,0-3.2-0.3-3.8-0.7c-1.2-0.9-2.2-0.9-3.5,0.2l-1.1,0.9l2.1,3c2.8,4,3,5.4,1.5,8.4
		c-0.7,1.4-1.5,3.2-1.9,4.3s-1.7,3.8-3,6c-2.3,4.1-2.4,4.2-4.2,4.2c-1.8,0-1.8,0-1.8,1.6c0,1.4,0.2,1.7,2,2.5c1.1,0.5,3,1.9,4.2,3
		c2.1,1.9,2.2,2.2,1.7,3.3c-0.5,1-0.4,1.5,0.3,2.8c0.5,0.9,0.8,2.1,0.6,2.8c-0.2,0.9,0,1.3,0.5,1.3c0.4,0,1.4,0.4,2.2,0.9
		c0.8,0.5,2.1,1,3,1.2c1.7,0.3,2.4,2,1.5,3.5c-0.3,0.5-0.5,1-0.4,1.1c0.9,0.8,5.8,3.7,6.7,4h0.3C467.2,479.9,468.1,479.3,469,478.6z
		"/>
	<path fill="#F31830" d="M451.5,180.8c-1.4-0.7-2.5-0.8-3.5-0.7c-4.1,0.8-5.8,0.8-7.5,0.1c-2.3-0.9-2.3-0.9-2.1,0.3
		c0.1,0.8,0.8,1.4,2.6,2.3c1.4,0.7,2.5,1.4,2.5,1.7s0.6,1.1,1.3,1.8l1.3,1.2l0.8-1c0.5-0.7,1.8-1.2,3.6-1.5c2.5-0.5,3-0.5,3.8,0.3
		c0.9,0.8,1,0.8,1.7,0.1c1.1-1.1,0.5-3.1-1.2-3.5C454.1,181.9,452.6,181.3,451.5,180.8z"/>
	<path fill="#F31830" d="M509.9,445.1c0.7-0.9,0.5-4.7-0.2-5.4c-0.2-0.2-1.2,0.2-2.3,0.8c-1.1,0.7-2,1.5-2,1.9c0,1.2,0.9,2.3,2.4,3
		C509,445.9,509.3,445.9,509.9,445.1z"/>
	<path fill="#F31830" d="M482,261.1c-0.2,0-1.4,0.9-2.6,1.9c-1.3,1-2.9,2.3-3.5,2.7l-1.2,0.9l1.8,0.3c1.4,0.3,2,0.1,2.7-0.5
		c0.8-0.7,1.5-0.8,3.3-0.8l2.3,0.2l-1.2-2.4C482.9,262.2,482.2,261.1,482,261.1z"/>
	<path fill="#F31830" d="M428.6,141.5c0.8-0.6,1.9-0.9,3.3-0.9c1.9,0,2.2,0.1,2.4,1.2c0.3,1.1,0.5,1.2,2.2,0.9c1-0.2,2.5-0.6,3.2-1
		c0.7-0.4,2.3-0.7,3.6-0.7c1.2,0,2-0.2,1.7-0.4c-0.3-0.2-0.7-1.1-0.8-2.2c-0.3-1.5-0.7-1.9-1.9-2.4c-0.8-0.4-2.4-0.7-3.4-0.7
		c-2.3,0-3.6-0.9-3.2-2.2c0.2-0.8,3.5-2.5,4.9-2.5c0.3,0,1.2-0.6,1.8-1.2c0.7-0.7,1.9-1.5,2.7-1.8c2.3-1,4.4-3.5,4.7-5.8l0.3-2.1
		l-2.4,0.3c-1.4,0.2-3,0.5-3.7,0.6c-1.9,0.4-4.4-2-4-3.8c0.3-1.1,0.6-1.3,1.9-1.3c1.5,0,1.6-0.1,1.6-1.4c0-1.1,0.3-1.5,1.9-2.3
		c2.7-1.4,3.5-1.2,6.4,1.5c2,2,2.5,2.7,2.5,3.9c0,1.7,1.4,2.6,3.4,2.3c0.7-0.1,1.7,0,2.3,0.3c1.5,0.8,2.9-0.6,2.7-2.5
		c-0.1-1.2-0.4-1.5-2.1-1.9c-2.6-0.6-3-1.2-3.4-4c-0.2-2-0.2-2.3,0.5-2.3c1,0,3.5-2.3,4.1-3.8c0.7-1.5,0.5-1.7-4.4-3.9
		c-3.1-1.4-3.9-1.6-4.8-1.2c-1.5,0.7-1.5,0.7-1.5-0.4c0-1.4-1.2-2.2-2.5-1.6c-0.6,0.3-3.1,2.5-5.7,4.9c-4.2,3.9-5.1,4.5-8.2,5.6
		c-1.9,0.7-4.5,1.3-5.7,1.5c-0.7,0.1-1.4,0.2-2.2,0.4v31.2C427.2,142.3,427.7,142.2,428.6,141.5z"/>
	<path fill="#F31830" d="M429.2,184.4c1.2-2.3,1.4-2.6,2.8-2.6c1.3,0,1.6-0.2,2.3-1.8c0.6-1.1,0.8-2.5,0.7-4c-0.1-2.2-0.2-2.3-1.4-2
		c-0.7,0.1-1.9,1-2.7,1.9l-1.5,1.6l-1.5-0.9c-0.3-0.2-0.8-0.5-1.2-0.9v12C427.5,187.2,428.5,186,429.2,184.4z"/>
</g>
</svg>
