<?xml version="1.0" encoding="utf-8"?>
<!-- Generator: Adobe Illustrator 17.1.0, SVG Export Plug-In . SVG Version: 6.00 Build 0)  -->
<!DOCTYPE svg PUBLIC "-//W3C//DTD SVG 1.1//EN" "http://www.w3.org/Graphics/SVG/1.1/DTD/svg11.dtd">
<svg version="1.1" id="flag-icon-css-mr" xmlns="http://www.w3.org/2000/svg" xmlns:xlink="http://www.w3.org/1999/xlink" x="0px"
	 y="0px" viewBox="0 0 640 480" enable-background="new 0 0 640 480" xml:space="preserve">
<g>
	<path fill="#CD2A3E" d="M259.7,475.5c0,0-0.2-1.7-0.5-3.6l-0.6-3.6l4-7.6c4-7.5,4.1-7.6,6.6-8.9c1.4-0.7,3.3-2.1,4.2-3l1.7-1.6
		l1.9,1.3c1.9,1.3,1.9,1.4,1.9,4.2v2.8l7.6,6.7l7.6,6.7l4-4.3l4.1-4.2h2.3c2.4,0,2.9-0.4,2.9-2.4c0-0.8,0.4-0.9,3.5-0.9
		c1.9,0,4.9-0.2,6.7-0.5l3.2-0.5l6.5,2.7l6.5,2.7l7.4-0.4l7.4-0.4l0.1-3.1l0.1-3.1l2.4-1.4c1.3-0.8,2.4-1.4,2.5-1.3
		c0,0.1-0.3,1.5-0.8,3.3c-0.5,1.7-0.8,3.2-0.7,3.3c0.2,0.2,137,10.6,138.8,10.5c0.8,0,1.4-1.8,5.3-16c2.3-8.8,4.3-16.2,4.3-16.5
		s-1.8-2-3.9-3.6l-3.9-3.1l-0.3-2.8c0-0.5-0.1-7.2-0.2-18.6H180.8c3,3.2,3.5,4.1,3.5,6.5c0,2,0.6,2.4,3.6,2.4c1.4,0,1.7,0.3,2.7,2.3
		l1.2,2.2l4.6,1c2.5,0.6,4.9,1.1,5.3,1.3c0.4,0.1,1.6,1,2.7,1.9c1.6,1.5,2.8,3.5,6.7,12c2.6,5.6,4.9,10.5,5.2,10.8
		c0.2,0.3,1,0.7,1.7,0.8c0.7,0.1,2.1,1.2,3.3,2.2c1.9,1.8,2,2.1,2,4.6c0,3.8,1.6,7,4.5,8.7c5.1,3,9.3,6.7,11.5,10.1l2.2,3.4l5.3,0.8
		l5.3,0.8l3.9-2.2C257.9,476.6,259.7,475.6,259.7,475.5z"/>
	<path fill="#CD2A3E" d="M92.6,411.3c0.1,0,0.8-0.3,1.5-0.7c1-0.5,1.9-1.3,3-2.6h-3.8C92.8,410,92.5,411.3,92.6,411.3z"/>
	<path fill="#CD2A3E" d="M432.7,2.2c-0.3-0.2-0.6-0.2-0.6,0c0,0.7-7.6,49.4-7.7,49.5c-0.1,0.1-25.4-2.1-56.4-5
		c-30.9-2.8-56.9-5.2-57.6-5.2h-1.3l-3.2,18.5c-0.5,3-1.2,7.1-2,11.8h213.8C493.3,51.8,433.7,2.8,432.7,2.2z"/>
	<path fill="#006233" d="M491.4,97.4c0.1-0.1,12.7,0.7,28,1.6c15.3,0.9,29.1,1.8,30.7,1.9c1.6,0.1,2.9,0,2.9-0.1
		c0-0.1-2.6-2.2-5.7-4.7c-3.1-2.4-14.9-12.1-26.2-21.5c-1-0.8-2.1-1.7-3.3-2.7H304c-1.8,11.2-4.2,26-6.1,38.2
		c-1.6,10.2-3,19.3-3.9,25.1h12.5L320,93.8l13.6,41.5h43.6l-35.3,25.6l13.5,41.4l-35.3-25.6l-35.3,25.6l13.5-41.4l-20.6-15
		c-0.3,0-0.5,0-0.8-0.1l-3.3-0.3l-9.2,5.3c-8.5,4.9-9.4,5.5-12,8.5l-2.8,3.3l0.3,7.2c0.2,6.3,0,9.9-1.7,28c-1,11.4-2,20.9-2.1,21
		c-0.1,0.1-23.4-1.6-51.9-3.8c-4-0.3-8-0.6-11.9-0.9c23,53.2,76,90.4,137.7,90.4c82.8,0,150-67.2,150-150c3.3,12.8,5,26,5,39.2
		c0,85.6-69.4,155-155,155c-79.1,0-144.4-59.3-153.8-135.9c-16.2-1.2-28.7-2.2-31.5-2.3c-7.2-0.4-8.2-0.6-13.2-2.3
		c-4.9-1.7-5.8-1.9-10-1.9h-4.6l-2,3.4c-1.1,1.9-2.8,5.4-3.8,7.8c-1.6,3.8-1.8,4.8-1.8,8.1c0,3.6,0,3.7,1.1,3.4
		c1.4-0.4,1.2-0.1,2.4-4.2c0.6-2.1,1.7-4.9,2.6-6.4c1.8-3.2,2.1-3,3.1,2.8c1.1,6.2,2.3,9.5,4.9,13.5l2.5,3.7l0.1-2.8
		c0.1-2.5,0.2-2.7,1.2-2.4c0.6,0.1,1.2,0.3,1.4,0.3c0.7,0,2.2,3.7,2.2,5.5c0,3.5,1.2,7,3.4,10.1c2.4,3.4,2.8,5.3,1.3,7.1
		c-0.5,0.6-1,2.2-1.2,3.6c-0.3,2.1-0.7,2.7-2.4,4.3c-1.4,1.4-2.1,2.3-2.1,3.2c0,0.9,0.2,1.3,0.9,1.3c1.1,0,1.1,0.1,0.4,2.6
		c-0.4,1.4-1.5,2.9-4.5,5.9c-3,3-3.9,4.3-3.8,5.1l0.1,1l1.3-1c0.8-0.7,1.4-0.8,1.5-0.5c0.2,0.3,0.7,0.4,1.2,0.3
		c0.8-0.2,0.8-0.1,0.1,0.8c-1,1.5-3.1,2.2-5.5,2l-2-0.2l0.4,2.1c0.7,3.7,0.8,4,3.5,7.7c1.5,2.1,2.9,4.8,3.3,6.1
		c0.8,2.8,1.2,13,1.2,31.7c0,13.2,0,13.7-1.4,19.9c-1.4,6.3-1.4,6.5-5.9,14.4c-2.6,4.6-5.4,10.2-6.5,13.2c-1.1,2.9-3.4,8.1-5.1,11.6
		c-2.6,5-3.5,7.6-4.9,13.2c-0.3,1.3-0.6,2.6-0.9,3.6H97c0.8-1,1.8-2.4,2.9-4.2c1.9-3.2,2.4-3.6,4.5-4.4c3.2-1.1,5.9-0.7,8.7,1.5
		c2.1,1.6,2.2,1.6,5.8,1.4c2.2-0.2,4.7-0.7,6.5-1.5c3.3-1.3,5.4-1.4,13.9-0.7c4.9,0.4,5.4,0.3,6.8-0.5c2.1-1.3,10.5-1.3,14.8,0
		c2.1,0.6,4.4,0.9,7.2,0.9c6.6,0,7.4,0.2,8.7,2.5c0.6,1,2.2,3.2,3.7,4.7c0.1,0.1,0.1,0.1,0.2,0.2h311.7
		C492,338.5,491.2,97.6,491.4,97.4z"/>
	<path fill="#FFC400" d="M320,348.8c85.6,0,155-69.4,155-155c0-13.2-1.7-26.4-5-39.2c0,82.8-67.2,150-150,150
		c-61.7,0-114.7-37.2-137.7-90.4c-5.6-0.4-11.1-0.8-16.1-1.2C175.6,289.5,240.9,348.8,320,348.8z"/>
	<path fill="#FFC400" d="M284.8,202.3l35.3-25.6l35.3,25.6l-13.5-41.4l35.3-25.6h-43.6L320,93.8l-13.5,41.5H294
		c-0.6,4-1,6.4-1.1,6.4c0,0-2.9,1.1-6.4,2.2c-5.4,1.9-6.3,2.1-8.8,2l20.6,15L284.8,202.3z"/>
</g>
</svg>
