<?xml version="1.0" encoding="utf-8"?>
<!-- Generator: Adobe Illustrator 17.1.0, SVG Export Plug-In . SVG Version: 6.00 Build 0)  -->
<!DOCTYPE svg PUBLIC "-//W3C//DTD SVG 1.1//EN" "http://www.w3.org/Graphics/SVG/1.1/DTD/svg11.dtd">
<svg version="1.1" id="flag-icon-css-ms" xmlns="http://www.w3.org/2000/svg" xmlns:xlink="http://www.w3.org/1999/xlink" x="0px"
	 y="0px" viewBox="0 0 640 480" enable-background="new 0 0 640 480" xml:space="preserve">
<g>
	<path fill="#000066" d="M387,226v28.5h-0.1h-43.3L225.7,177v77.4h-12.9v0h-24.4c0,0.1,0,0.3-0.1,0.5c-0.4,2.3-0.4,2.2,0.2,9.9
		c0.8,10,0.4,16.8-1.1,20.6c-0.7,1.7-1.2,3.8-1.2,4.8s-0.6,2.9-1.4,4.5c-1.1,2.1-1.4,3.4-1.4,5.6c0,4.6-2.4,9.9-6.1,13.3
		c-0.8,0.7-4,3.2-7.1,5.4c-4.1,2.9-5.8,4.3-6,5.2c-0.3,1.3,0.1,1.8,1.9,1.8c0.5,0,1.4,0.5,2.2,1.1c0.7,0.6,3.7,2.2,6.7,3.5
		c2.9,1.3,6.4,3.1,7.7,4c1.3,0.8,3.1,1.7,4,1.8c1.7,0.4,4.8,2.2,12.7,7.8c4.7,3.3,5.4,3.9,9.7,9.7c3.4,4.6,4.8,6.7,4.9,7.9
		c0.6,4.4,1.3,8,1.9,10.1c0.8,2.6,3.3,7.2,3.8,7.2c0.2,0,0.9,0.5,1.6,1.2c1,0.9,1.2,1.5,1.2,3.5c0,2.3,0.6,3,1.7,1.9
		c0.4-0.4,1.9,0.8,4.9,3.6c3.9,3.7,4.8,4.3,7.2,5c2.8,0.7,2.8,0.8,4.3,3.6c0.8,1.6,1.6,3.8,1.7,4.9c0.4,2.7,2.4,5.8,4.8,7.5
		c2.3,1.7,5.6,5.7,9,11c2.6,4.2,3.7,7.1,3.7,10.1c0,1.6,0.2,1.8,2.2,2.8c1.2,0.7,3.4,1.5,4.8,2c4.5,1.5,7.2,2.9,9.1,4.8
		c1.1,1,3.8,2.8,6.2,4.1c2.3,1.2,4.9,2.9,5.8,3.9c0.8,0.9,2.4,2.1,3.6,2.7c1.2,0.6,2.6,1.8,3.2,2.8c0.8,1.3,1.6,1.8,3.7,2.4
		c3.4,1,5.6,2.9,6.8,5.7c1.4,3.2,5.1,7.2,8.2,8.7c1.4,0.7,3.7,2,5.1,2.8c4.3,2.6,7.2,3.2,14.7,3.1c3.6-0.1,6.7-0.3,7-0.6
		c0.2-0.2,1.1-0.4,2-0.4c0.9,0,3.5-0.9,6.1-2.1c2.5-1.2,5.4-2.3,6.5-2.4c1.8-0.2,2.4,0,5.6,2c4.2,2.6,6.7,2.9,9.8,1.3
		c1.7-0.8,2-0.9,3.7-0.3c2.5,0.9,6.3,0.6,8.1-0.7c1.3-1,1.6-1,3.7-0.5c1.2,0.3,3,0.9,4.1,1.4c1.9,0.8,3.6,0.7,5.7-0.7
		c1.3-0.8,3.3-0.9,5.1-0.2c0.8,0.3,3.1,0.4,6,0.1l4.7-0.3l0.8-2.1c2.4-5.8,5.9-9.4,11.2-11.4l2.6-1l4.2-7.8c2.3-4.2,4.7-8.7,5.2-9.8
		c1.3-2.6,5.4-7.3,6.7-7.7c0.5-0.1,2.2-1.1,3.8-2.2c-22.1-17.7-37.9-44-37.9-84.3l0.3-153.8c-0.7-0.6-1.2-1.1-1.5-1.6
		c-0.4-0.7-0.8-1.9-1-2.8c-0.6-2.6-1.5-3.6-4.6-5c-2.6-1.2-4.8-2.9-12.2-9.9c-1-1-2.5-2.9-3.2-4.4c0-0.1-0.1-0.1-0.1-0.2h-84.3
		L387,226z"/>
	<path fill="#000066" d="M354.9,84.8c-0.7-1.1-1.5-1.6-3.2-2.5c-2.7-1.4-3-1.7-3.7-4c-0.4-1.3-0.7-2.6-0.7-2.8c0-0.5,5-0.1,6.8,0.5
		c0.8,0.3,1.1,0,2-2.1c0.6-1.3,1-2.5,1-2.8c0-0.3-1.1-0.5-2.8-0.5c-1.5,0-2.8-0.2-2.8-0.5s2.3-0.5,6.1-0.5h6.1v-1.4
		c0-2.1-2-3.9-3.9-3.5c-5.5,1.1-6.1,1.1-7.7,0.1c-1.9-1.2-3.3-3.3-2.9-4.7c0.1-0.6,1.8-2.3,3.6-4c2.6-2.2,3.8-2.9,4.9-2.9h1.4
		l-0.2-4.2c0-0.7-0.1-1.4-0.2-2l-57.2,37.7H354.9z"/>
	<path fill="#000066" d="M312.7,8.4c-2.8-1.1-3.5-1.6-3.6-2.5c-0.2-1.5-3.5-1.5-5.2,0.1c-1.2,1.1-1.4,1.2-2.6,0.5
		c-0.7-0.4-1.9-0.8-2.6-1c-0.8-0.1-1.5-0.8-2-1.6c-0.4-0.7-1.1-1.5-1.6-1.7C294.4,2.1,294,1.6,294,1c0-0.7-0.2-0.9-1-0.6
		c-2.6,0.8-3.2,0.8-4,0c-0.7-0.6-1-0.6-1.4-0.2c-0.4,0.4-0.4,0.8,0,1.4c0.7,1.3,0.2,1.6-2.4,1.9c-5,0.6-7,2.7-8.5,9
		c-0.3,1.5-1.2,4.4-1.8,6.4l-1.1,3.6l1.3,2.4c1.4,2.8,1.6,4.9,0.5,5.3c-0.4,0.1-1.4,1.5-2.1,3.1c-1.6,3.5-1.8,7-0.5,8.7
		c0.6,0.8,1,2,1.2,3.5l48.7-32c-1.1-0.5-2.2-1.1-3.3-1.8C317.7,10.7,314.7,9.1,312.7,8.4z"/>
	<path fill="#FFFFFF" d="M445.9,431.7c0.1-0.1,0.2-0.1,0.2-0.2c3-1.9,3.2-2.1,3.4-4.1c0-0.2,0.1-0.4,0.1-0.7
		c-21.5-17-36.8-42.4-36.8-81.4L413,197l-0.1-0.1h0.8c-2.2-1-4.1-2.2-5.4-3.2L408,347.4C408.1,387.7,423.8,414,445.9,431.7z"/>
	<path fill="#00A2BD" d="M413,197l-0.2,148.5c0,39.1,15.3,64.4,36.8,81.4c0.1-0.2,0.1-0.5,0.2-0.8c-17.6-14.1-31-34.2-35.4-64.5
		l31.2,0l-0.1-3l2.4-3.4c1.3-1.9,3.3-4.2,4.3-5.3l1.9-1.9l-0.3-4.6c-0.2-2.7-0.1-5.5,0.1-6.6c0.4-1.8,0.3-2.3-0.6-3.9
		c-0.6-1-1.3-2.4-1.7-3c-0.4-0.7-0.7-2.1-0.9-3.3c-0.2-1.6,0-2.3,0.8-3.4c0.9-1.2,1-1.8,0.8-4.5c-0.1-1.7-0.4-6-0.7-9.4
		c-0.2-3.5-0.6-7-0.7-7.9c-0.6-2.9-3.3-8.1-4.8-9.4c-2.2-1.9-3.3-4.3-4.3-10.4c-1.1-6.5-1.2-10.8-0.3-13c0.4-0.8,1.8-2.5,3.3-3.7
		l2.7-2.3v-7c0-6.8,0-7-1.4-9.8c-0.7-1.5-1.4-3.1-1.4-3.6c0-2-2.5-9.9-3.3-10.2c-0.4-0.1-1.5-1-2.3-1.9c-1.6-1.7-1.6-1.7-1.9-7.1
		c-0.2-4.9-0.4-5.8-1.7-8.5c-0.8-1.7-1.5-3.3-1.5-3.6c0-0.3-0.5-0.8-1-1.1c-0.6-0.3-3.2-2.6-5.7-5.1c-4.6-4.5-4.7-4.6-9.3-6.1
		c-1.4-0.5-2.9-1.1-4.2-1.7h-0.8L413,197z"/>
	<path fill="#A53D08" d="M449.9,426.1c0.4-1.2,1.3-2.7,2.8-5c1.6-2.3,3.5-4.6,4.1-5s2.1-2.2,3.3-4.1c2.2-3.3,2.2-3.4,2.2-7
		c0-5.2-1.1-8.2-4.3-12.4c-4.2-5.3-6.6-9.1-7.4-11.3c-0.4-1.1-1.3-2.5-2-3.1c-1.7-1.5-2.5-5.3-2.7-13.4l-0.1-3.2l-31.2,0
		C418.9,391.9,432.2,412,449.9,426.1z"/>
	<path fill="#FFFFFF" d="M274.1,50.2c-0.3,2.6-0.4,2.8-2.6,4.1c-2,1.3-3.6,3.5-4,5.4l64.1-42.2c-0.8-0.3-1.5-0.8-2.3-1.4
		c-0.5-0.5-2.1-1.1-3.7-1.4c-0.8-0.2-1.7-0.5-2.7-0.9l-48.7,32C274.3,47,274.3,48.6,274.1,50.2z"/>
	<path fill="#FFFFFF" d="M268.6,79.5c-0.6,2.2-1.1,3.3-2.1,4c-0.4,0.2-0.9,0.7-1.6,1.3h36.3l57.2-37.7c-0.1-1.5-0.3-2.6-0.5-2.8
		c-0.2-0.3-0.9-1.8-1.5-3.4c-1.5-4.1-3.2-7.3-4.7-9c-1.1-1.3-1.4-2-1.4-4.1c0-2.2-0.1-2.5-1.2-3.2l-80,52.6
		C269.1,78,268.8,78.8,268.6,79.5z"/>
	<polygon fill="#FFFFFF" points="386.9,254.5 386.9,254.4 258.1,169.7 225.7,169.7 225.7,177 343.6,254.5 	"/>
	<polygon fill="#FFFFFF" points="386.9,254.4 386.9,254.5 387,254.5 387,226 301.4,169.7 287,169.7 386.9,235.5 	"/>
	<path fill="#FFFFFF" d="M265,84.8c-0.6,0.6-1.3,1.2-1.9,1.8c-2.1,2.1-3.6,2.8-3.6,1.8c0-0.3-0.5-0.5-1.2-0.5
		c-1.1,0-1.2,0.1-1.2,3.2c0,2.4-0.2,3.5-0.8,4.3c-0.5,0.6-1.6,2.5-2.4,4.1c-0.4,0.8-0.9,1.6-1.4,2.3c49,0,94.4,0,108.1,0
		c-0.3-0.7-0.6-1.5-1-2.3c-1.4-2.7-1.6-3.6-1.4-4.8c0.5-2,0.4-2.3-1.8-6.9c-0.7-1.5-1.1-2.4-1.6-3.1h-53.6H265z"/>
	<path fill="#FFFFFF" d="M229.3,152.7c-0.1,1.9-0.2,3.9-0.2,6c0,4.6,0,4.8-1.5,6.8c-0.8,1.1-1.8,2.9-2.1,4.1
		c-0.3,1.2-1.1,3.1-1.7,4.3c-0.9,1.8-1.1,2.9-1.1,5.8c0,2.7-0.2,4.1-0.9,5.3c-0.5,0.9-1.1,2.7-1.4,4c-0.8,3.7-2.1,6.4-4,8.1
		c-0.9,0.8-1.9,1.5-2.1,1.5c-0.3,0-0.5,0.3-0.5,0.7c0,0.3-0.4,0.9-1,1.5v53.6h12.9V177v-7.3h32.4l-0.2-0.1h28.9l0.2,0.1h14.4h84.3
		c-1.1-2.2-1.1-2.6-0.6-4c0.4-1.2,0.5-2.2,0-4.3c-0.3-1.4-0.6-3.9-0.6-5.4c0-2-0.1-2.6-0.8-3.3H229.3z"/>
	
		<line fill="none" stroke="#CC0000" stroke-width="0" stroke-linecap="round" stroke-linejoin="round" x1="386.9" y1="254.4" x2="386.9" y2="254.5"/>
	<path fill="#CC0000" d="M212.8,254.4v-53.6c-0.2,0.2-0.4,0.5-0.7,0.7c-1,1-1.6,2-1.6,2.8c0,0.7-0.2,1.4-0.5,1.5
		c-0.3,0.1-0.8,1-1.2,1.9c-0.4,1-1.3,1.9-2.5,2.5c-1.5,0.8-1.9,1.3-2.1,2.7c-0.8,4.7-1.6,6.1-4.4,7.9c-2.3,1.5-2.9,2.3-4.8,5.9
		c-2.5,4.9-4.2,6.7-7.9,8.5c-3.1,1.4-3,1.3-3.6,9.7l-0.3,4.1l2.1,2.1c1.1,1.1,2.3,2.1,2.7,2.1c0.4,0,0.6,0.3,0.4,1.3L212.8,254.4
		L212.8,254.4z"/>
	<polygon fill="#CC0000" points="386.9,235.5 287,169.7 286.8,169.6 257.9,169.6 258.1,169.7 386.9,254.4 	"/>
	<path fill="#CC0000" d="M267.4,60.5c0,1.1,2.5,3.8,4.6,5c1.9,1,1.1,5.7-1.8,9.8c-0.3,0.4-0.6,1.1-0.9,2l80-52.6
		c-0.1-0.1-0.2-0.1-0.3-0.2c-0.8-0.5-2.4-1.1-3.4-1.3c-2.8-0.5-4.7-2.1-5.3-4.7c-0.4-1.8-0.7-2.1-1.6-2.1c-0.6,0-1.2,0.3-1.4,0.7
		c-0.2,0.5-0.9,0.7-2.6,0.7c-1.2,0-2.2-0.1-3-0.5l-64.1,42.2C267.5,59.9,267.4,60.2,267.4,60.5z"/>
	<path fill="#CC0000" d="M252.5,101.8c-0.5,0.7-0.9,1.2-1.3,1.4c-1.3,0.8-5.5,7-6.6,9.6c-0.5,1.1-1.1,3.3-1.4,4.9
		c-0.3,1.6-0.8,2.9-1,2.9c-0.2,0-0.4-0.3-0.4-0.6c0-0.4-0.2-0.3-0.5,0.1c-0.2,0.4-0.5,1.9-0.5,3.4s-0.2,2.8-0.5,2.9
		c-0.3,0.2-0.9,1.1-1.4,2.1c-0.7,1.4-1.3,1.9-2.7,2.2c-1.6,0.4-1.8,0.6-1.9,2.2c-0.1,1-0.4,2.2-0.8,2.6c-2.2,2.5-3.7,8.9-4.3,17.2
		h154.4c-0.2-0.2-0.5-0.4-0.8-0.7c-1.5-1.3-1.6-1.4-1.2-2.9c0.3-0.9,0.5-2.9,0.5-4.6c0-2.6-0.2-3.4-1.9-6.3c-2.3-4.2-3.2-5-6.9-6.3
		c-3-1.1-4.3-2.5-4.3-4.7c0-0.5-1.2-2.5-2.6-4.4c-3.1-4.2-3.3-4.6-3.7-9.3c-0.2-2.1-0.6-4.5-1-5.6c-0.4-1-0.7-2.6-0.7-3.5
		c0-0.6-0.2-1.5-0.6-2.6C346.9,101.8,301.5,101.8,252.5,101.8z"/>
</g>
</svg>
