<?xml version="1.0" encoding="utf-8"?>
<!-- Generator: Adobe Illustrator 17.1.0, SVG Export Plug-In . SVG Version: 6.00 Build 0)  -->
<!DOCTYPE svg PUBLIC "-//W3C//DTD SVG 1.1//EN" "http://www.w3.org/Graphics/SVG/1.1/DTD/svg11.dtd">
<svg version="1.1" id="flag-icon-css-mv" xmlns="http://www.w3.org/2000/svg" xmlns:xlink="http://www.w3.org/1999/xlink" x="0px"
	 y="0px" viewBox="0 0 640 480" enable-background="new 0 0 640 480" xml:space="preserve">
<g>
	<path fill="#D21034" d="M305.8,6.9c1.4,0.8,2.8,2.2,3.5,3.3c1.2,1.9,2.5,2.4,3.2,1.3c0.2-0.3,0.7-1.5,1.2-2.7
		c0.7-2.1,0.7-2.3,0-3.9c-0.4-0.9-0.9-1.7-1.1-1.7c-0.2,0-1.1-0.7-2.1-1.6c-1.4-1.4-2-1.6-3.9-1.6c-1.6,0-2.5,0.3-3.4,1
		C301.2,2.7,302.1,4.7,305.8,6.9z"/>
	<path fill="#D21034" d="M325.6,114.1c-0.4-2.5-4.2-4-7.2-3c-0.6,0.2-3.6,0.4-6.6,0.4c-3,0-5.7,0.2-5.9,0.4
		c-0.3,0.2-0.5,1.6-0.6,3.1c-0.1,2-0.4,3.2-1.1,4.2c-0.1,0.2-0.2,0.4-0.3,0.7h17.9C325.6,115.9,325.9,115.4,325.6,114.1z"/>
	<path fill="#D21034" d="M313.4,111.1c4-0.1,4.6-0.3,5.5-1.2l1-1l-1.2-1.6c-0.7-0.9-1.4-1.7-1.7-1.6c-0.3,0-2.5,0.8-4.8,1.9
		c-3.9,1.7-4.2,2-3.8,2.8C308.8,111.2,309.2,111.2,313.4,111.1z"/>
	<path fill="#D21034" d="M348.8,101.3c-1.6-0.9-3.2-2.1-3.4-2.6c-1-2-2.5-4-3-3.9c-0.3,0-1.1,0.2-1.7,0.5c-0.7,0.3-1.3,0.9-1.4,1.4
		s-1.1,1.6-2.1,2.5c-1.3,1.2-2,2.2-2.4,3.7c-0.3,1.1-0.8,2.5-1.2,3c-0.7,1.3-0.3,1.6,1.9,1.3c1.1-0.1,2.2,0,3.1,0.4
		c1.7,0.7,4.5,4.2,4.8,6.1c0.3,1.6,1.4,1.7,3.8,0.4c0.9-0.5,2.1-0.9,2.6-0.9c0.6,0,1.3-0.2,1.6-0.4c0.9-0.7,1.8-3.8,1.5-5.7
		C352.3,103.7,351.8,103,348.8,101.3z"/>
	<path fill="#D21034" d="M303.2,93.7c-1.8,3.5-1.8,3.9-0.7,3.9c0.6,0,1.1,0.5,1.3,1.2c0.3,0.7,0.9,1.8,1.4,2.4
		c0.7,1.1,0.8,1.6,0.6,4.4c-0.2,2.6-0.2,3.2,0.4,3.2c0.7,0,8.4-4.2,9.5-5.3c2.1-1.9,1.7-11.1-0.8-22.2c-1.9-7.9-1.9-8-3.1-8
		c-1,0-1.4,0.4-2.4,2.5c-0.7,1.4-1.6,2.9-2.1,3.4c-1.8,1.7-2.5,4.1-2.5,7.9C304.8,90.4,304.6,91.1,303.2,93.7z"/>
	<path fill="#D21034" d="M290.5,55.9c0.8-0.2,1.1-0.7,1.3-2.2c0.4-2.7,2.8-7.7,4.3-8.9c0.7-0.6,1.3-1.3,1.3-1.6c0-0.7,0-0.7-2.5-0.1
		c-1.1,0.3-1.9,0.8-2.1,1.3c-0.1,0.4-1,1.8-1.8,3.1c-0.9,1.3-1.7,2.8-1.8,3.5c-0.1,0.7-0.5,1.5-0.8,1.9c-0.4,0.5-0.4,1.1-0.2,1.7
		C288.6,55.8,289.3,56.2,290.5,55.9z"/>
	<path fill="#D21034" d="M324.4,471c-1.7,0.9-2.2,1-3.2,0.6c-0.6-0.3-1.1-0.7-1.1-0.9c0-0.2-0.3-0.4-0.7-0.4c-0.8,0-0.8,0.9,0,2.1
		c0.3,0.5,0.7,1.4,0.9,2.1c0.4,1.4,2.4,3.7,3.2,3.7c1,0,3.1-2.8,3.6-4.8c0.3-1,0.6-2.1,0.7-2.4C328.2,469.9,326.4,469.9,324.4,471z"
		/>
	<path fill="#D21034" d="M306.2,34.4c0.3,0.4,0.5,2.5,0.6,5.3c0.1,5.4,0.6,6.5,3.2,7.4c2.5,0.8,3.1,2,3.3,6.8
		c0.1,3.5,0.3,4.2,1.1,4.9c0.6,0.5,1.1,1.7,1.4,3.2c0.4,1.9,0.9,2.8,2.1,4.1c2,2,4.4,7.7,4.4,10.5c0,1.4,0.4,2.7,1.6,4.7
		c0.8,1.5,1.7,2.8,1.8,2.8c0.2,0,0.7,0.7,1.1,1.5c1.1,2.2,3.6,5,4.9,5.3c1.4,0.3,5.7-1.1,6.7-2.2c0.4-0.5,0.8-2,0.9-3.4
		c0.2-2.1,0.5-2.9,1.9-4.7c1-1.2,1.7-2.6,1.7-3.1s-0.7-1.7-1.4-2.6c-0.8-1-1.8-2.3-2.2-3c-0.5-0.9-1.2-1.4-2.4-1.5
		c-3.1-0.5-3.7-0.9-4.8-3c-1.1-2.3-1.3-4.2-0.6-8c0.5-2.5,0.4-2.6-1.1-5c-0.9-1.4-1.6-3-1.6-3.6c0-1.8-2.5-4.3-5-5
		c-4.6-1.2-5.8-3-6-8.8c-0.1-4.9,1.1-9.6,2.7-10.5c0.6-0.3,1.8-1.9,2.6-3.5c1.7-3,3.9-5.9,4.9-6.2c0.6-0.2,0.6-0.4-1.1-6.2
		c-0.3-1-0.8-1.9-1.2-2s-1.9,0.6-3.4,1.4c-1.5,0.8-2.7,1.7-2.7,2c0,0.3-0.6,1.2-1.3,2c-1.6,1.9-4.9,2.6-6.2,1.3
		c-0.7-0.7-0.8-0.7-1.3,0.2c-0.3,0.5-0.7,2.1-0.9,3.4c-0.3,1.4-1.3,4.2-2.2,6.4c-1.3,2.7-1.8,4.2-1.6,5.1c0.1,0.7,0,1.8-0.2,2.4
		C305.8,33.4,305.8,34,306.2,34.4z"/>
	<path fill="#D21034" d="M338.8,453.4c-0.3,0.5,1.2,2,1.6,1.6c0.4-0.4-0.5-2.1-1-2.1C339.2,453,338.9,453.2,338.8,453.4z"/>
	<path fill="#D21034" d="M344.8,412.7c1.6-1.1,3-4,3-6.3c0-1-0.5-2.6-1.1-3.6c-0.6-1-1.5-2.7-1.9-3.7c-0.5-1-1.7-2.7-2.6-3.7
		c-1-1-1.7-2-1.5-2.2c0.4-0.7-0.7-7.8-1.5-9.4c-1.8-3.8-2.9-5-4.4-5.2c-4-0.7-4.1-0.7-6.8,1.2c-1.4,1-2.7,1.9-2.8,2
		c-0.4,0.4,1.2,2.9,2.7,4.4c1.6,1.5,1.8,2.2,1.2,3.2c-0.4,0.7-5.9,4.2-6.9,4.5c-0.4,0.1-1.2,0.8-1.7,1.5c-0.5,0.8-1.6,1.8-2.5,2.2
		c-2.9,1.5-3.8,4.4-2.9,9.2c0.3,1.7,0.8,3.7,1.1,4.4c0.3,0.7,0.5,1.9,0.5,2.6c0,0.9,0.4,1.6,1.3,2.3c0.7,0.6,1.4,1,1.6,1
		c0.1,0,1,0.7,1.9,1.5c0.9,0.8,2.5,2.1,3.6,2.7c2.2,1.3,1.6,1.4,7.2-2c1.6-1,3.6-1.9,4.5-2.1c3-0.4,3.6-0.7,5.2-2.1
		C342.8,414.2,344.1,413.1,344.8,412.7z"/>
	<path fill="#007E3A" d="M332,324.3c1.9,1.2,4.9,1.3,6.1,0c0.7-0.7,1.6-0.9,2.9-0.9c1.9,0,2.1-0.1,3.7-2.6l0.6-1
		c-5.7-0.3-11.2-1.3-16.6-2.7C328.7,319.9,330.1,323.1,332,324.3z"/>
	<path fill="#007E3A" d="M334.6,160c0,0.5-0.1,1-0.1,1.6c5-1,10.2-1.5,15.5-1.5c1.4,0,2.9,0,4.3,0.1c-1.2-1.4-2.6-2.7-3-2.7
		c-0.4,0-3.7-4.6-4.9-6.9c-1.2-2.3-4.3-3.9-6.1-3c-1.3,0.6-4.4,4.7-4.9,6.3C335.2,154.6,334.8,157.4,334.6,160z"/>
	<path fill="#007E3A" d="M315.7,163.7c-1.7-0.5-2.4-0.3-3.1,0.6c-1,1.1-0.9,2.1,0,3c1.7,1.6,4,0.5,4-1.9
		C316.6,164.4,316.4,164,315.7,163.7z"/>
	<path fill="#007E3A" d="M303.9,165.4c-0.4,0-1.2,0.2-1.8,0.3c-1.8,0.3-2.9,2.6-2.9,5.6c0,1.3-0.2,2.5-0.4,2.7
		c-0.6,0.4-1,2.9-1.1,5.7c3.6-3.2,7.6-6,11.7-8.5C306.7,167.8,304.4,165.3,303.9,165.4z"/>
	<path fill="#007E3A" d="M303.8,126.1c0.3,0,0.6,0.4,0.6,1c0,0.5,0.4,1.4,0.9,1.8c0.8,0.7,1.4,0.7,3.6,0.4c3.9-0.6,5.8-1.9,11.7-8.1
		c0.4-0.4,0.8-0.8,1.1-1.2h-17.9C303,122.1,302.9,126.1,303.8,126.1z"/>
	<path fill="#007E3A" d="M314.8,133.5c-0.4-0.2-2.1-0.4-4-0.4c-2.9,0-3.6,0.1-4.3,0.9c-1.8,1.9-0.8,3.3,2.5,3.3
		C312.7,137.3,316.6,134.7,314.8,133.5z"/>
	<path fill="#007E3A" d="M336.7,143.5c-1,0.8-1.2,1.3-1,2.3c0.4,1.4,1.4,1.6,5,0.7c2.5-0.6,3-1.7,1.3-2.9
		C340,142.4,338,142.3,336.7,143.5z"/>
	<path fill="#007E3A" d="M342.1,131.4c0-0.7-1.2-0.8-2.2-0.2c-0.5,0.3-0.5,0.6-0.1,1C340.3,132.9,342.1,132.3,342.1,131.4z"/>
	<path fill="#FFFFFF" d="M297.9,187.1c0.2,1-0.6,14.6-1,15.9c-0.4,1.1-0.3,2.1,0.2,3.7c0.4,1.2,0.9,3.5,1.1,5c0.6,3.2,1.1,4,2.4,4
		c0.5,0,1.3,0.3,1.8,0.7c0.3,0.3,0.7,0.4,1,0.5c2.3-7.7,5.7-14.9,10.1-21.4c-0.3-4-0.5-9.3-0.6-11.8c0-5.2-0.7-8.6-2-10.5
		c-0.5-0.8-1.1-1.5-1.6-2.2c-4.2,2.5-8.1,5.3-11.7,8.5C297.4,182.4,297.4,185.5,297.9,187.1z"/>
	<path fill="#FFFFFF" d="M334.5,161.5c-0.2,2.2-0.5,4.4-0.7,5.4c-0.6,2.7-0.4,5.3,0.4,7.5c6.6-4.6,13.8-8.2,21.6-10.7
		c0.2-0.4,0.3-0.8,0.3-1c0-0.4-0.8-1.5-1.8-2.6c-1.4-0.1-2.8-0.1-4.3-0.1C344.7,160,339.5,160.5,334.5,161.5z"/>
	<path fill="#FFFFFF" d="M309.6,282.9c-0.9,1.2-1,1.6-0.7,4.6c0.1,1.8,0.6,3.9,0.9,4.7c0.4,0.7,0.9,2.6,1.3,4c0.8,3.3,2.3,4.9,5,5.5
		c1.9,0.4,2.3,0.4,5.1-1.2c1.2-0.6,2.6-1.5,3.8-2.3c-5.3-5-9.9-10.7-13.7-17C310.7,281.7,310.1,282.3,309.6,282.9z"/>
	<path fill="#FFFFFF" d="M346.4,318.3l-0.4-3.7c-0.1-0.8-0.2-1.6-0.2-2.2c-2.5-1.2-4.9-2.5-7.2-3.9c-0.5,0.3-1.1,0.7-1.8,1.1
		c-2.1,1.5-4.7,3.2-5.8,3.9c-1.8,1.1-2,1.4-2.1,3.5c0,0.1,0,0.1,0,0.2c5.3,1.5,10.9,2.4,16.6,2.7L346.4,318.3z"/>
	<path fill="#007E3A" d="M308.4,215.4c2.8-2,3.5-3.1,4.7-8.5c0.8-3.5,0.8-4.2,0.4-11.1c0-0.1,0-0.2,0-0.2
		c-4.4,6.5-7.8,13.7-10.1,21.4C304.7,217.4,306.4,216.9,308.4,215.4z"/>
	<path fill="#007E3A" d="M347.1,305.9c1.4-1.5,1.3-1.9-0.2-1.3c-0.6,0.2-1.3,0.7-1.5,1.1c-0.3,0.4-1.4,0.8-2.6,1
		c-1.2,0.2-2.5,0.7-4.3,1.8c2.3,1.4,4.7,2.7,7.2,3.9C345.5,308.9,345.9,307.3,347.1,305.9z"/>
	<path fill="#007E3A" d="M337.4,201.8c1.9,0,3.8-1.6,3.8-3.3c0-0.6,0.9-3,2.1-5.5c1.8-3.8,2.1-4.9,2.1-7.2c0-1.9-0.2-2.8-0.6-3.1
		c-1.1-0.8-6.2-0.5-7.5,0.3c-2,1.3-2.9,5.1-3,11.4C334.2,199.8,335,201.7,337.4,201.8z"/>
	<path fill="#007E3A" d="M332.2,224.2c1.5,0,4.9,3.2,5.8,5.5c1.1,2.7,1.7,3.3,3.7,3.6c1.3,0.2,1.6,0.1,2-0.9
		c0.6-1.3,2.7-2.1,5.2-2.2c2,0,8.2-1.1,8.8-1.5c0.3-0.2,0.8-1.4,1.1-2.8c0.5-2,0.5-2.5-0.1-2.9c-0.4-0.3-0.7-0.9-0.9-1.4
		c-0.4-1.1-0.5-1-5.2,0.8c-2.2,0.9-4.4,1.5-4.9,1.4c-0.4-0.2-1.1-0.9-1.4-1.6s-1.2-2-1.8-2.7c-1.1-1.2-1.1-1.6-0.9-4
		c0.1-1.4,0.1-3.1,0-3.6c-0.4-1.4-2.4-2.3-4.9-2.3c-2.1,0-2.2,0-4.1,2.7c-2.5,3.5-4.7,8-4.7,9.6
		C329.8,223.2,330.8,224.2,332.2,224.2z"/>
	<path fill="#007E3A" d="M342.2,180.7c2.5,0,4.3-2.1,4.3-5.4c0-1.5,0.4-2.1,2.5-4.5c1.4-1.5,2.8-2.7,3.2-2.7c0.7,0,2.8-2.7,3.5-4.4
		c-7.8,2.5-15.1,6.1-21.6,10.7C335.5,178.1,338.5,180.7,342.2,180.7z"/>
	<path fill="#007E3A" d="M339.3,265.7c0.4-2,3.9-4.7,6.2-4.7c1.9,0,3.1-1.2,3.1-3c0-0.5,0.6-2.1,1.3-3.5c0.7-1.5,1.3-3.3,1.3-4.3
		c0-1,0.3-2.4,0.7-3.2c0.4-0.8,0.6-1.5,0.5-1.6c-0.1-0.1-1.3-0.4-2.7-0.7c-1.6-0.3-3.3-1-4.4-1.9c-2.5-1.9-6.2-2.7-8.4-1.8
		c-0.6,0.2-1,0.7-1.1,1c0,0.3-0.1,4.9-0.1,10.2c-0.1,5.3-0.3,10.4-0.4,11.4c-0.3,1.5-0.2,2.1,0.5,3
		C337,268.2,338.9,267.7,339.3,265.7z"/>
	<path fill="#007E3A" d="M305.4,267.6c0.4,0.7,1.2,1.6,1.9,1.9c1.1,0.5,1.6,0.5,3.2-0.2c2-0.8,4.6-2.7,5.4-3.9
		c0.7-1,1.2-13,0.6-14.8c-0.8-2.2-1.4-2.4-6.1-1.6c-1.3,0.2-2.8,0.8-3.2,1.2c-1.2,1.1-2.5,5.2-2.1,6.7c0.2,0.7,0.2,1.6,0,2.1
		C304.6,260.6,304.7,266.2,305.4,267.6z"/>
	<path fill="#007E3A" d="M340.2,237.9c1.7-1.5,1.4-2.3-0.7-3c-2.1-0.7-2.1-0.7-2.4,0.2c-0.3,0.9,0.3,2.7,1.2,3.4
		C338.8,239,339.1,238.9,340.2,237.9z"/>
	<path fill="#007E3A" d="M325,298.1c0.6-0.4,1.1-0.8,1.4-1.1c1.2-0.9,3.3-2.6,4.6-3.6c1.3-1,2.9-2.4,3.6-3.1
		c1.1-1.1,1.1-1.3,0.7-3.2c-0.3-1.1-0.8-2.5-1.2-3c-0.4-0.5-1-1.4-1.4-2.1c-0.6-1-1.1-1.2-2.9-1.3c-1.5,0-3.1-0.6-4.7-1.5
		c-2.8-1.6-5.5-1.8-9.1-0.7c-1.7,0.6-3.3,1.5-4.6,2.5C315.1,287.4,319.8,293.1,325,298.1z"/>
	<path fill="#007E3A" d="M306.8,229.1c-3,0.9-3.6,1.7-3,3.6c0.3,0.8,0.5,1.9,0.5,2.4s0.5,1.7,1.1,2.8c1,1.9,1.1,2.2,0.6,3.7
		c-0.5,1.4-0.4,1.8,0.2,2.8c0.7,1.1,1,1.2,2.6,1c2.5-0.3,5.6-1.6,6.8-2.8c0.5-0.6,1.3-1.9,1.7-3c0.7-2,0.7-2.2,0-4.7
		c-1-3.5-2.1-5-4.2-5.9C311,228.2,309.7,228.2,306.8,229.1z"/>
</g>
</svg>
