<?xml version="1.0" encoding="utf-8"?>
<!-- Generator: Adobe Illustrator 17.1.0, SVG Export Plug-In . SVG Version: 6.00 Build 0)  -->
<!DOCTYPE svg PUBLIC "-//W3C//DTD SVG 1.1//EN" "http://www.w3.org/Graphics/SVG/1.1/DTD/svg11.dtd">
<svg version="1.1" id="flag-icon-css-mw" xmlns="http://www.w3.org/2000/svg" xmlns:xlink="http://www.w3.org/1999/xlink" x="0px"
	 y="0px" viewBox="0 0 640 480" enable-background="new 0 0 640 480" xml:space="preserve">
<g>
	<path fill="#F41408" d="M278.6,160.4c-0.6,2-1.6,4.6-2.2,5.7c-1.4,2.6-1.4,4,0.1,5c1,0.7,1.2,1,0.9,2.3c-0.3,1.3,0,2.2,1.7,5.2
		c1.1,2,2.2,3.6,2.5,3.7c0.3,0,2.3,0.4,4.6,0.7c2.6,0.4,4.1,0.8,4.1,1.1c0,0.3-0.6,1.2-1.4,1.9c-0.8,0.7-1.4,1.9-1.5,2.5
		c-0.1,0.9-0.6,1.3-1.7,1.7c-1.2,0.4-1.8,0.9-2.1,2c-0.8,2.4-1.5,2.8-4.7,2.5l-2.8-0.3l-3.1,2.4c-3.1,2.4-3.1,2.4-4.2,1.6
		c-0.7-0.5-2.3-0.9-3.7-1l-2.6-0.2l-3.4,4.8c-2.9,4.2-3.4,5-3.4,6.8c0,3,0.4,4.1,1.6,4.3c1.8,0.5,2,3.7,0.5,10.1
		c-1.1,5-1.2,5.5-0.5,7.8l0.7,2.6l-1.7,2.2c-1,1.4-2.1,3.9-3,6.7c-1.6,5.3-1.4,5-3.2,5.7c-0.9,0.4-1.6,1.2-2.1,2.4
		c-0.6,1.5-1.2,2.1-3.5,3.1c-1.5,0.7-3.3,1.4-4.1,1.5c-1.3,0.3-1.4,0.5-1.3,2c0.2,1.9,0.5,2.1,3.2,2.5c1.7,0.2,2.2,0.6,3.4,2.3
		l1.4,2l-2.1,1.3c-1.8,1.1-2,1.4-1.6,2.1c0.3,0.6,1.5,1.2,3.2,1.7l2.7,0.8l1.8,3.6c1,2.2,2.3,4,3.1,4.5c1,0.7,1.4,1.4,1.6,2.9
		c0.5,3,2.7,3.8,4.5,1.7c0.7-0.8,1.8-1.3,3.4-1.6c1.3-0.2,2.3-0.4,2.4-0.4c0,0,0.7,0.9,1.5,2c0.9,1.3,2.1,2.1,3.3,2.4
		c2.3,0.7,3.1,2.3,2.7,5.6c-0.4,2.6,0.7,4.7,2.9,6c1.1,0.7,1.8,1.8,3.3,5.6c1.7,4.5,2,4.9,6,8.9c3.8,3.8,4.2,4.4,4.5,6.4
		c0.2,1.3,0.3,1.9,0.8,2.3h4.5c0.4-0.5,0.5-1.2,0.5-2.7c0-2.1,0.1-2.5,0.9-2.8c0.7-0.2,1.4,0.3,2.5,1.6l1.6,1.9l0.8-1.2
		c0.5-0.7,1.9-1.8,3.3-2.6l2.5-1.4l4.3,0.6c4.2,0.7,4.3,0.7,4.8-0.4c0.4-0.9,0.9-1.1,4.3-1.4c2.1-0.2,5.4-0.7,7.4-1.2
		c3.5-0.8,3.6-0.8,4.2,0c0.4,0.5,2.6,3,5,5.6l3.6,3.8h71.4l-3.1-4.1c-7.4-9.8-9.2-12.4-10-14.9c-0.8-2.3-2.4-4.9-7.1-11.1
		c-8.4-11.2-27.3-34.7-27.9-34.7c-0.7,0.1-1.7,5.3-1.5,7.2c0.1,1.1,0,2.1-0.5,2.7c-0.4,0.6-0.5,1.3-0.3,1.5c0.2,0.3,0.4,0.9,0.4,1.4
		c0.1,1.4,2.1,2.8,3.7,2.4c5.8-1.1,7.9-0.6,8.6,2.1c0.2,0.9,0.5,1.9,0.5,2.1c0,0.2,0.4,1,0.9,1.6c0.8,1.3,1.4,3.8,1.7,7.3
		c0.1,1,0.7,3,1.4,4.4c0.9,1.9,1.3,3.2,1.2,4.5c-0.1,1.1,0,2.1,0.3,2.3c0.3,0.1,0.5,0.9,0.5,1.6c0,0.7,0.3,1.6,0.7,1.9
		c0.4,0.4,0.7,1.4,0.7,2.6c0,1.5,0.2,2.1,0.9,2.5c0.6,0.3,0.9,1,0.9,1.9c0,0.9,0.3,1.5,0.9,1.9c1.4,0.7,1.2,2.4-0.5,4
		c-1.2,1.2-1.5,1.3-1.9,0.7c-0.2-0.4-0.5-0.8-0.5-1.1c0-0.2-0.5-0.6-1.2-0.9c-0.7-0.3-1.3-1-1.4-1.6c-0.2-0.6-1.2-1.7-2.3-2.5
		c-1.5-1-2.1-1.8-2.3-3c-0.3-1.9-2.8-5.1-3.8-5.2c-0.5,0-1.3-0.3-2-0.6c-0.7-0.3-1.5-0.6-1.9-0.7c-0.7-0.2-1.8-4.2-1.8-6.7
		c0-0.7-0.5-1.4-1.6-2.1c-0.9-0.5-1.8-1.5-2.1-2.3c-0.6-1.4-1.6-2.1-2.4-1.6c-0.2,0.1,0.1,0.9,0.7,1.7c1.3,1.5,1.2,2.5-0.2,1.8
		c-1-0.5-1.9,0.3-1,0.9c0.7,0.4,2.9,3.7,2.9,4.4c0,0.3-0.6,0.9-1.3,1.3c-1.1,0.7-1.4,1.2-1.8,4.2l-0.5,3.4l-2.6,0.8
		c-1.4,0.5-3,0.9-3.6,0.9c-0.9,0-1-0.1-0.6-0.9c0.7-1.4,0.6-1.8-1.9-3.3c-1.4-0.8-2.6-2-2.8-2.8c-0.3-0.7-1.1-1.9-1.8-2.7
		c-1.2-1.2-1.4-2-1.9-6l-0.6-4.7l1.4-1.2c1.5-1.4,2.9-3.9,2.9-5.4c0-0.6,0.3-1.5,0.7-2.1c0.4-0.6,0.7-1.5,0.6-2.1
		c-0.1-0.6,0.2-1.6,0.7-2.4c0.9-1.4,0.9-1.4-0.1-2.1c-0.6-0.4-1-1.1-1-1.5c0-0.5-0.3-0.9-0.6-0.9c-0.9,0-2.1-1.4-2.4-3.1
		c-0.3-1.5-1.2-2.6-1.2-1.5c0,0.4-0.3,0.3-0.8-0.2c-0.7-0.7-1.1-0.7-2.4-0.2c-1.4,0.5-1.6,0.5-2-0.3c-0.2-0.5-1.1-1.5-1.8-2.4
		c-0.7-0.9-1.5-2.3-1.6-3.1c-0.2-0.9-0.8-2.1-1.4-2.8c-1.5-1.6-2.8-5.3-2.3-6.6c0.2-0.6,0.8-1.7,1.4-2.5c1.4-1.7,1.4-4.1,0.3-7.2
		c-0.7-2.1-0.7-2.4,0.1-5.8c0.7-3.1,0.7-3.9,0.2-5.4c-0.4-1.3-0.4-2,0-2.8c0.7-1.3,0.7-1.5-0.2-1.5c-0.4,0-0.7-0.4-0.7-1.1
		c0-0.6-0.4-1.6-0.9-2.3c-1-1.3-1.3-5.2-0.5-5.7c0.8-0.5,0.5-1.4-0.7-2c-0.6-0.3-1.7-1.4-2.5-2.4c-1.7-2.4-2.4-7.4-1.2-9.2
		c0.5-0.7,0.7-1.7,0.5-2.8c-0.1-1-0.4-2.7-0.6-3.8c-0.3-2-1.7-3.5-3.1-3.3c-1.4,0.1-2.3-0.1-2-0.5c0.2-0.3-0.3-1.1-1-1.8
		c-0.7-0.7-1.6-2.2-1.9-3.2c-0.3-1.1-0.7-2-1-2.1c-0.7-0.4,0.4-5.4,1.8-8.4c1-2.1,1.3-3.4,1.1-4.8c-0.2-1.6,0-2.1,1.2-3.4
		c0.8-0.8,1.6-1.5,1.9-1.5c0.2,0,0.8-0.4,1.3-0.9c0.2-0.2,0.5-0.5,0.8-0.6h-47.7C278.7,160.1,278.7,160.3,278.6,160.4z"/>
	<path fill="#21873B" d="M292.4,320.6c1.4,0.7,1.7,0.7,2.8,0c0.3-0.2,0.6-0.4,0.7-0.6h-4.5C291.6,320.2,291.9,320.4,292.4,320.6z"/>
	<path fill="#21873B" d="M342.2,320.8l-0.1,3.6c-0.1,3.6,0.6,7.2,1.5,7.8c0.4,0.2,0.4,1.6,0.2,4.1c-0.3,3.5-0.2,4,1.1,7l1.4,3.3
		l-1.1,1.6c-0.9,1.4-1.1,2.2-1.1,5c0,1.8,0.3,4.8,0.7,6.5l0.7,3.2l-2.6,2.4c-1.4,1.4-2.6,2.8-2.6,3.1s-0.7,1.3-1.6,1.9
		c-2.9,2.2-3.5,3.8-3.2,8.4l0.3,3.9l-2.2,3.5c-1.7,2.7-3.1,4.2-5.7,6.2l-3.5,2.7v3.4c0,3.3,0,3.4,1.3,3.7c0.8,0.2,2.3,1.5,4.3,3.9
		c1.7,2,3.2,3.9,3.4,4.2c0.2,0.4-0.2,1.3-1.1,2.4l-1.4,1.8l1.2,4.8l1.3,4.8l3.2,1c3.6,1.2,4.7,2.4,5.3,5.9c0.4,2.1,2.1,4.2,3.6,4.2
		c0.4,0,0.8,0.3,0.8,0.7c0,0.4,2.3,3,5.1,5.7c4.1,4.1,5.1,5.3,5.4,6.7c0.2,1.4,0.9,2.3,3.1,4.2c1.6,1.4,3.4,3.4,4,4.7
		c0.9,1.9,1.4,2.2,2.8,2.5c1,0.2,2,0.1,2.6-0.2c0.9-0.6,1.4-0.4,3.1,1c0.8,0.7,1,1.4,1,3.3c0,1.9-0.2,2.5-1.4,3.5
		c-0.7,0.7-2.2,1.6-3.3,2.1c-2.2,1-2.8,2.2-1.8,3.7c0.4,0.6,0.8,1.8,0.9,2.7c0.1,1.4,0.3,1.6,2,1.9c1,0.2,3.7,0.3,6.1,0.3l4.2-0.1
		v-4.6c0-2.6-0.1-4.7-0.3-4.9c-0.7-0.4-0.3-3.1,0.8-6c1-2.5,1.1-3.3,0.7-4.5c-0.2-0.8-0.6-2.5-0.8-3.8c-0.3-2-0.7-2.7-2.7-4.7
		c-1.3-1.3-2.8-3.2-3.3-4.1l-0.9-1.8l1.6-1.4c0.9-0.8,2.2-1.5,2.9-1.7c1.5-0.4,2.2-1.7,2.2-4.4c0-1,0.4-2.5,0.9-3.4
		c0.5-0.8,0.8-1.9,0.7-2.5c-0.1-0.5,0.1-2.4,0.5-4.2c0.6-2.8,1-3.5,2.5-4.8c3.6-3.2,5.1-4,6.9-3.6c0.9,0.2,1.8,0.7,2.1,1.2
		c0.5,1,2.6,1.3,4.1,0.5c0.4-0.2,2.7-1,5-1.7c2.3-0.7,4.7-1.7,5.4-2.3c0.7-0.6,2.1-1.6,3.1-2.2c2.5-1.6,2.7-1.9,1.7-3.5
		c-0.8-1.4-0.8-1.8,0.2-9.7c0.6-4.6,1.8-12.7,2.7-17.9l1.7-9.6l-1-4.2c-0.6-2.3-1.2-5.6-1.5-7.3l-0.5-3.2l3.3-7
		c1.8-3.8,3.3-7.2,3.3-7.6c0-0.9-3.3-2-4.9-1.6l-1.3,0.3l1-1.8c0.5-1,1.4-2.5,1.8-3.3c0.7-1.2,0.9-2.3,0.8-5.2l-0.1-3.7l-6-7.8
		h-71.4L342.2,320.8z"/>
	<path d="M278.9,154.6c0.7,1.9,0.7,2.2-0.2,5.4h47.7c0.3-0.2,0.7-0.4,0.9-0.4c0.8-0.1,0.9-0.5,0.8-2.1c0-1.1,0.1-2.1,0.4-2.2
		c0.2-0.1,0.4-0.6,0.4-1.1h-50.2C278.8,154.3,278.9,154.4,278.9,154.6z"/>
	<path d="M279.2,141.5h58.6c0-0.2,0-0.3,0-0.5h-58.4C279.2,141.2,279.2,141.3,279.2,141.5z"/>
	<path d="M286,36c-0.5,2.9-1,5.7-1.2,6.3c-0.1,0.7,0.5,1.5,3.2,3.7c1.1,0.9,2.2,1.9,3.2,2.7c-1.9-5.4-3.5-10.6-4.8-15.2L286,36z"/>
	<path d="M264.1,3.9c0,1.9,0.1,2.1,1.6,2.6c1.8,0.7,1.9,0.7,1.1,3.3c-0.4,1.4-0.4,2.2,0,3.6c0.3,1,0.6,1.6,1.5,2.1
		c0.6-0.4,1.2-0.7,1.9-0.8c1-0.2,2.3,0,3.4,0.6c0.2-0.3,0.6-0.4,1.2-0.4c0.7,0,1.6-0.1,2-0.2c0.4-0.1,1,0.5,1.7,1.6
		c0.8,1.4,1,2.2,0.7,3.7c-0.3,1.9-0.2,2,3.7,6.3l2.2,2.4c-1.6-5.9-2.5-10.2-2.6-11.7c-0.4-4,1.8-5,3.7-5.3c2-0.3,5,1,5.6,3.8
		c0.9,4.4,3.9,20.6,4.8,38.5c0.1,0.1,0.2,0.3,0.2,0.4c0.3,0.6,0.3,1.5,0,2.8c0,0.1,0,0.2-0.1,0.3c0,1.6,0.1,3.1,0.1,4.7
		c0,0.1,0,0.2,0,0.2c0.6,2.9,0.9,3.8,3.9,7.8c1.8,2.5,3.5,4.7,3.6,5c0.2,0.3-1,1.6-3,3.4c-1.4,1.2-3.4,3.2-5.1,5.1
		c12.2-2.4,24.9-2.9,37.5-1.3c0.4-1.6,0.4-2-0.3-2.7c-1.2-1.3-1-2.2,0.7-3.5c1.2-1,1.4-1.4,1.1-2.7c-0.4-1.7,0.5-3.7,1.5-3.7
		c0.4,0,1,0.4,1.4,0.8c0.6,0.8,0.7,0.7,0.4-0.3c-0.2-0.7-0.5-2.1-0.6-3.2c-0.2-1.6-0.7-2.7-2.5-4.8c-1.3-1.5-2.3-3-2.3-3.4
		c0-0.3-0.5-0.8-1.1-1.3c-0.4,1.6-0.9,3.2-1.4,4.8h0c-0.2-2.1-0.4-4.1-0.5-6.2c-0.5-0.5-1-1-1.2-1.3c-0.3-0.6-1.3-1.8-2.1-2.6
		c-2.3-2.3-3-3.5-3-5.1c0-1.2-0.7-3.1-1.7-4.6c-0.7,6.2-1.7,12.9-3.1,19.5v-0.2c-3.4-16.8-4.7-34.8-4.9-43.4c-0.9-0.9-2-1.8-2.7-2.3
		c-1.3-0.8-1.5-0.8-3.9-0.1c0,0,0,0,0,0c0.7,7.4,2.2,27,0.2,46.3h-0.1c-4.7-15.2-7.9-30.8-9.6-46.6c-2.9,1-6.3,0.3-7-1.5
		c-0.2-0.6-1.7-2.4-3.2-4.1c-2.3-2.5-2.9-2.9-3.5-2.5c-0.5,0.4-2.1,0.5-5.3,0.4l-4.6-0.2l-3.7-3.7L267.1,0l-1.5,0.9
		C264.3,1.8,264.1,2.1,264.1,3.9z"/>
	<path fill="#F31509" d="M307.9,62c2-19.3,0.4-38.9-0.2-46.3c-2.3,0.7-2.6,0.7-4.9-0.2c-2.2-0.9-2.5-0.9-4-0.3
		c-0.2,0.1-0.4,0.2-0.6,0.2c1.7,15.8,4.9,31.4,9.6,46.6H307.9z"/>
	<path fill="#F31509" d="M286.2,11.6c-1.9,0.3-4.1,1.3-3.7,5.3c0.1,1.5,1,5.8,2.6,11.7l1.9,2l-0.5,2.8c1.3,4.6,2.9,9.8,4.8,15.2
		c2.5,2.2,4.6,4.2,5.3,5.2c-0.8-17.9-3.9-34-4.8-38.5C291.2,12.6,288.2,11.3,286.2,11.6z"/>
	<path fill="#F31509" d="M270.2,14.7c-0.6,0.2-1.3,0.4-1.9,0.8c0.4,0.3,0.9,0.6,1.6,0.9c1.4,0.7,2.7,1.3,2.8,1.3
		c0.1,0,0.3-0.7,0.5-1.4c0.1-0.5,0.2-0.8,0.4-1C272.5,14.7,271.2,14.5,270.2,14.7z"/>
	<path fill="#F31509" d="M319.1,61.7c1.4-6.6,2.4-13.3,3.1-19.5c-0.5-0.8-1.1-1.6-1.7-2c-1.2-0.9-1.3-1.2-1-3.2
		c0.2-1.6,0.1-2.7-0.5-3.7c-0.5-0.8-0.7-1.9-0.5-2.3c0.1-0.5,0-1.9-0.2-3.1c-0.5-2.1-0.4-2.3,0.7-3.5l1.3-1.3l-2.1-1.4
		c-1.1-0.8-2.8-2.2-3.6-3.1c-0.1-0.1-0.2-0.2-0.3-0.3c0.2,8.6,1.5,26.7,4.9,43.4V61.7z"/>
	<path fill="#F31509" d="M296.3,83.4c-0.6,0.6-1.1,1.3-1.5,1.8l-3.2,4.1l-4.1-0.1c-3.9-0.2-4.1-0.1-5,1c-0.7,0.8-1.4,1.2-2.2,1.2
		c-1.1,0-2.5,1-2.6,1.9c0,0.1,0.7,0.7,1.6,1.1l1.6,0.9l-0.2,2.8l-0.3,2.8l3,4.6l3,4.6l-3.7,6.8c-2,3.7-3.6,7.3-3.6,7.9
		c0,1.2-0.6,1.4-1.4,0.4c-0.4-0.5-0.8-0.6-1.6-0.2c-1,0.5-1,0.7-0.6,2.8c0.4,2.1,0.3,2.6-0.6,4.6c-1.3,2.7-1,3.4,1.4,3.2
		c1.6-0.1,1.8,0,2.5,1.5c0.5,1.2,0.6,2,0.4,3.7h58.4c-0.2-2.1-0.6-3.5-1.5-5.1c-1.1-2-1.2-2.5-0.7-3.2c1-1.5,1.2-2.1,0.7-3
		c-0.3-0.5-0.6-1.8-0.6-2.8c0-1.3-0.4-2.7-1.3-4.1c-1.1-1.8-1.2-2.3-0.7-3.9c0.4-1.4,0.3-2-0.1-2.6c-0.8-1.1-0.8-3.3,0-4.2
		c0.6-0.5,0.7-1.6,0.7-4c0-1.9,0-7.3,0-12.1c0-5-0.1-9.3-0.4-10c-0.3-0.9-0.3-1.9,0.1-3.5c0-0.1,0.1-0.2,0.1-0.3
		C321.1,80.5,308.4,81,296.3,83.4z"/>
	<path fill="#F31509" d="M330.7,62c0.5-1.6,1-3.2,1.4-4.8c-0.2-0.2-0.5-0.4-0.8-0.5c-0.4-0.2-0.8-0.6-1.2-0.9
		C330.3,57.9,330.5,59.9,330.7,62L330.7,62z"/>
	<path fill="#F31509" d="M296.8,62c0-1.6,0-3.2-0.1-4.7C296.4,58.5,296.4,59.8,296.8,62z"/>
	<path d="M279.1,141.7c-0.4,2.3-0.3,3.1,0.5,5.2l1,2.5l-1.2,1.5c-1.1,1.4-1.2,1.6-0.6,3.2H329c0-0.1,0-0.2,0-0.3
		c0-0.8,0.3-1.2,1-1.3c0.6-0.1,1.7-1,2.5-2.1c0.7-1.1,2.1-2.2,2.8-2.5c2.1-0.7,2.7-2.1,2.4-6.2c0-0.1,0-0.2,0-0.3h-58.6
		C279.2,141.6,279.1,141.6,279.1,141.7z"/>
</g>
</svg>
