<?xml version="1.0" encoding="utf-8"?>
<!-- Generator: Adobe Illustrator 17.1.0, SVG Export Plug-In . SVG Version: 6.00 Build 0)  -->
<!DOCTYPE svg PUBLIC "-//W3C//DTD SVG 1.1//EN" "http://www.w3.org/Graphics/SVG/1.1/DTD/svg11.dtd">
<svg version="1.1" id="flag-icon-css-mz" xmlns="http://www.w3.org/2000/svg" xmlns:xlink="http://www.w3.org/1999/xlink" x="0px"
	 y="0px" viewBox="0 0 640 480" enable-background="new 0 0 640 480" xml:space="preserve">
<g>
	<path fill="#009A00" d="M323.5,150c1-1.7,1.1-4.1,0.1-5.2c-0.5-0.4-0.8-0.5-0.8-0.2c0,0.7-1.2,1.1-2.1,0.8
		c-0.4-0.1-0.6-0.6-0.4-0.9c0.3-0.8,3.7-2.3,4.7-2.2c0.8,0.2,0.7-1.8-0.2-3.1c-0.4-0.6-0.5-1-0.3-1c0.3,0,0.6,0.3,0.7,0.7
		c0.2,0.5,3.1,1.4,3.1,0.9c0-0.8-1.3-2.5-1.9-2.5c-1.6,0-1.3-0.8,0.5-1.1c2.6-0.4,3.7-1.5,3.9-3.8c0-1-0.2-2.3-0.5-2.9
		c-0.4-0.8-0.4-1.1,0.1-1.6c0.7-0.6,1-2.3,0.4-2.3c-0.1,0-0.7,0.3-1.2,0.8c-0.5,0.5-0.8,0.6-0.8,0.2c0-0.3,0.5-0.8,1.2-1.1
		c1-0.4,1.2-0.8,1.1-2c-0.2-2-1.8-2.2-3-0.5c-0.5,0.7-1.2,1.7-1.7,2.2c-0.8,1-0.8,1-0.5-0.6c0.2-0.9,0.3-2.2,0.3-2.7
		c-0.1-0.8,0.3-1.3,1.3-1.6c1.4-0.5,1.6-1.1,1.4-3.6c-0.1-1.7-1-2-2.2-0.8c-0.9,0.8-1.1,0.9-1.1,0.2c0-0.4-0.3-0.8-0.7-0.8
		c-1,0-0.8-1.3,0.2-1.9c0.5-0.3,0.9-0.7,0.8-0.8c0-0.2,0.2-0.9,0.5-1.7c0.4-0.9,0.4-1.5,0.1-1.8s-0.2-0.8,0.3-1.5
		c0.6-0.9,0.6-1.4,0.2-2.4c-0.3-0.7-0.7-2.8-0.8-4.6c-0.3-3-0.2-3.4,0.7-4c0.9-0.7,0.9-0.7-0.7-1.3c-0.9-0.4-1.6-0.7-1.6-0.8
		c0,0,0.7-1.2,1.4-2.4c1.3-2.1,1.4-2.7,1.4-6.3c0-2.5,0.3-4.6,0.7-5.7c1.1-2.7,0.9-3.2-0.8-3c-1.2,0.1-1.5,0.3-1.4,1
		c0.1,0.5-0.1,1-0.4,1.3c-1.1,0.7-1.8-0.1-1.8-2c0-1.9,0-1.9,2.6-2c0.5,0,1-0.4,1.1-0.9c0.2-1.2,1.1-2.1,1.8-1.8
		c0.8,0.3,1.6-1,1.3-1.9c-0.2-0.5-0.6-0.7-0.9-0.6c-0.4,0.1-0.7-0.1-0.7-0.6c0-0.5,0.4-1,0.8-1.2c0.6-0.3,0.7-0.4,0.2-0.7
		c-0.3-0.2-0.7-1.2-0.7-2.1c-0.1-1.6-0.2-1.7-1.3-1.5c-1,0.2-1.3,0-1.5-0.7c-0.2-0.7,0.1-1.2,1.4-1.9c1.7-1,2.1-1.8,0.9-1.8
		c-0.5,0-0.7-0.5-0.7-1.4c0-0.8-0.3-1.5-0.8-1.8c-0.5-0.2-0.7-0.6-0.5-0.8c0.2-0.2,0.6-0.1,0.7,0.2c0.5,0.7,0.8,0.2,0.9-1.4
		c0.1-1.2,0.8-6.3,1.4-9.3c0.1-0.9,0-2.1-0.3-2.6c-0.3-0.6-0.5-1.2-0.5-1.5c0-0.2,0-0.7-0.2-1.2c-0.2-0.4-0.1-1.5,0.1-2.3
		c0.3-1,0.2-1.8-0.1-2.3c-0.3-0.6-0.3-1.1,0.1-2.1c1.5-3,1.5-3.4,1.3-4.1c-0.1-0.4-0.5-0.7-0.7-0.5c-0.3,0.1-0.9-0.1-1.5-0.6
		c-1-0.9-1.2-1.5-0.5-1.5c0.2,0,0.9-0.5,1.6-1.2s1.5-1.2,2-1.2c0.6,0,0.7-0.3,0.6-1.1c-0.1-0.7,0.1-1.6,0.8-2.5
		c1.3-1.5,1.5-2.9,0.4-2.9c-0.5,0-0.7-0.4-0.6-1.5c0.1-1.1,0.6-1.8,1.6-2.5c0.8-0.5,1.5-1.2,1.5-1.5c0-0.5-2.1-1.4-2.9-1.2
		c-0.2,0-0.4-0.3-0.4-0.7c0-1,1.8-2,3.9-2l1.5,0l-1.3-0.9c-0.9-0.7-1.2-1.3-1-1.9c0.2-0.7,0-0.9-0.7-0.9c-0.5,0-1.1-0.2-1.2-0.5
		c-0.1-0.3,0-0.5,0.2-0.5c0.3,0,0.5-0.5,0.5-1.2c0-0.7-0.3-1.2-0.7-1.2c-0.4,0-0.7-0.1-0.8-0.4c0-0.2-0.8,0.4-1.7,1.4
		c-1,1.1-2,1.8-2.7,1.8c-1.7,0-4,1.1-5.2,2.5c-1.1,1.4-5.1,3.9-7.3,4.8c-7.4,2.9-9.3,3.5-10.2,3.5c-0.6,0-1.5,0.5-2.2,1.2
		c-0.6,0.6-2.2,1.7-3.5,2.4c-2.2,1.2-2.8,1.3-7.8,1.3c-5.1,0-5.5,0.1-7.3,1.3c-1,0.7-2.4,1.3-3.1,1.3c-1.7,0-3.6,1.1-5.1,2.9
		c-1.8,2.1-3.9,2-6.1-0.3c-1.9-2.1-3.7-2.6-9.2-2.8c-4.8-0.2-5.3,0.1-7,4c-1.1,2.6-1.6,3.1-4,4.5c-2.6,1.5-3,1.6-7,1.5
		c-2.8,0-4.6-0.3-5.3-0.7c-0.7-0.5-1.6-0.6-2.7-0.4c-0.9,0.1-2,0-2.5-0.2c-0.7-0.4-1.2-0.4-1.6,0c-0.6,0.5-2.3,0.4-4-0.3
		c-1-0.4-1.4-0.3-2.7,1.1c-2.5,2.7-6.4,3.8-7.7,2.2c-0.5-0.7-1.3-0.7-5-0.4l-4.4,0.3v-1.2c0-1.6-0.8-3.6-1.5-3.6
		c-0.3,0-1-0.4-1.5-0.8c-0.5-0.5-1.5-0.8-2.2-0.9c-0.8,0-1.2-0.3-1.1-0.7c0.1-1-0.7-1.6-2.8-2c-1.5-0.3-1.8-0.1-2.2,0.7
		c-0.3,0.5-1,1-1.5,1.2c-0.6,0.2-1.3,0.7-1.5,1.3c-0.8,1.8-2.9,2.4-5.8,1.8c-1.5-0.3-5.5-0.6-9-0.6h-6.4l-0.3,3.1
		c-0.3,3.7-1.1,7.1-1.8,8c-0.3,0.4-0.6,1.5-0.7,2.6c-0.2,1.3-0.6,2.1-1.2,2.4c-0.5,0.2-1.4,0.9-1.9,1.4s-1.4,1.2-1.8,1.4
		c-0.7,0.4-0.7,0.7-0.3,1.5c0.4,0.7,0.4,1.3,0,1.9c-0.2,0.5-0.5,1.5-0.5,2.2c0,0.7-0.2,1.6-0.5,1.9c-0.4,0.4-0.2,0.9,0.7,2
		c0.7,0.8,1.2,1.9,1.2,2.3c0,0.5,0.2,1.4,0.6,2.1c0.4,1,0.3,1.9-0.5,5c-0.9,3.4-0.9,3.9-0.3,5.3c0.5,1.2,0.6,2.7,0.4,5.4
		c-0.2,3.4-0.2,3.9,0.7,5.1c0.5,0.7,1,1.8,1,2.3c0,0.5,3.4,5.3,7.6,10.6c4.2,5.4,8.2,10.9,8.9,12.3c0.7,1.4,3.2,5,5.5,7.9l4.2,5.4
		v2.9c0,1.7,0.2,3.4,0.5,3.9c0.4,0.7,0.1,1.6-1.1,4.1l-1.6,3.2l0.7,3c0.5,2.3,0.6,5.1,0.3,7.6l5.5,4.2H323.5z"/>
	<path fill="#009A00" d="M153.7,114.6c-2.9-3.1-3-3.2-4.2-2.7c-0.4,0.2-1.2,0.4-2,0.5l9.1,6.9C156.5,117.8,156,117.2,153.7,114.6z"
		/>
	<path fill="#FFFFFF" d="M216.6,165h93.1c2.6-2.2,5.3-4.8,5.7-5.6c0.3-0.6,1.7-1.9,3-2.9c1.7-1.4,2.4-2.3,2.4-3
		c0-0.7,0.5-1.4,1.2-1.9c0.6-0.4,1-0.9,1.4-1.6H196.9L216.6,165z"/>
	<path d="M261,198.8c0.4-0.1,0.8-0.1,1.4-0.1c1.7-0.1,2.8-0.4,3.1-0.8c0.3-0.5,0.6-0.6,0.8-0.3c0.4,0.7,3.6,0.6,4.9-0.2
		c0.7-0.4,2-0.7,3-0.7c2.3,0,3.5-0.7,2.7-1.5c-0.5-0.5-0.4-0.8,0.2-1.5c0.4-0.5,0.9-0.8,1.2-0.8s1-0.5,1.8-1
		c1.1-0.8,1.2-1.2,0.8-1.8c-0.6-0.9-0.1-3.3,0.6-3.3c0.2,0,0.3,0.6,0.2,1.4c-0.1,0.7-0.1,1.5,0.1,1.6c0.6,0.4,6.7-2.3,8-3.6
		c0.7-0.6,2.7-1.9,4.5-2.9c4-2.2,4.3-2.4,3.6-3.2c-0.3-0.3-0.6-1.5-0.7-2.6c-0.2-1.8-0.2-2,0.9-2c0.7,0,1.3-0.3,1.4-0.7
		c0.4-0.9,0.9-0.9,1.8,0c1,1,1.7,0.5,3.2-2c0.7-1.2,1.7-2.9,2.3-3.8c1-1.6,0.6-1.6-1.1-0.1c-0.5,0.4-0.8,0.5-0.8,0.2
		c0-0.2,0.8-1.1,1.8-1.8c0.8-0.6,1.9-1.5,2.9-2.3h-93.1L261,198.8z"/>
	<path fill="#FFCA00" d="M51.8,444.2c-1.2,3.5-0.8,6.1,1.1,7.8l1.4,1.2l-0.4,4.1c-0.4,4.6-0.4,6.4,0.1,14.6c0.5,7.3,0,7,10.9,7.3
		l7.3,0.2l1.5-3.3c0.8-1.9,1.5-4.1,1.5-5.2c0-3,1.8-12.6,2.8-15c1.2-2.7,1.2-2.7,0-2.7c-1.2,0-2.5,2.1-2.5,4c0,2-0.3,2-1.4,0.2
		c-0.5-0.9-1.3-1.5-2.2-1.7c-1.1-0.2-1.4-0.6-1.6-2.2c-0.2-1-0.6-2.3-1-2.9c-0.7-1-0.6-1.2,0.9-2.7c1.1-1.1,1.5-1.9,1.4-2.6
		c-0.1-0.5,0-1.3,0.2-1.8c0.4-0.7,0.5-0.7,1.2,0.6l0.7,1.4l0.3-1.4c1.1-5.2,2-6.4,6.9-9.3c5.8-3.4,20.5-9.3,30.3-12.2
		c16.3-4.8,27.5-8.5,31.1-10.5c2.6-1.4,3.7-2.4,5.8-5.1c1.4-1.8,3.1-3.8,3.9-4.4c1.8-1.5,4.1-4.9,4.1-6.3c0-0.7,0.6-2.2,1.2-3.3
		c0.8-1.4,1.1-2.6,1-3.6c-0.2-1.9-1.5-2.4-2-0.7c-0.4,1.5-1.1,1.6-1.3,0.3c-0.2-1.6-1-1.3-1.4,0.7c-0.5,2.6-0.7,3.1-1.3,2.9
		c-0.2-0.2-0.1-1.3,0.3-2.8c0.4-1.3,0.8-3.2,1.1-4.1c0.2-1.2,0.4-1.3,0.4-0.6c0.1,2.1,1,0.5,1-1.8c0-1.7,0.5-3.5,1.6-6.1
		c1-2.3,1.6-4.5,1.6-5.7c0-1.5,0.5-2.5,2.1-4.9c2.4-3.4,2.7-4.2,1.6-4c-1,0.1-1.3-1-1.4-5.3L52.7,439.8
		C52.4,441.8,52.1,443.5,51.8,444.2z"/>
	<path fill="#FF0000" d="M109.3,198.1c0.9-6.6,5.7-6.4,8.7-5.3l8.2,8.9l-0.1,0.3l12-37.5l13.9,43.4l1.3-1.2l5.3,0.3l7-6.6l0.2-4.4
		c0.8,1.7,4.6,3,4.9,3c0.2,0,1.8-2.5,2.9-1.2c0.9,1.5,0,1.6,0,2.4l0.9,0.7l27.5-19.4l-25.2,24.3c-0.8,0.4-2.1,0-2.4-0.4L159,218.2
		c-0.8-1.3-2.1-2.3-3.6-2.8l-0.8,0.7l1.6,5.1l59.5-0.3l-39.7,28.6l1.8,6c1-0.9,1.9-1.6,2.5-2c1.3-0.9,2.4-1.8,2.4-2
		c0-0.2,1.2-0.7,2.7-1.2c1.5-0.5,3-1.3,3.5-1.9c0.6-0.6,0.8-0.7,0.8-0.3c0,0.5,0.4,0.6,1.6,0.4c1.8-0.3,2-0.1,0.8,1.2
		c-0.8,0.8-0.8,0.9,0.3,0.7c0.8-0.1,1.2-0.5,1.3-1.3c0.2-1.1,1-1.5,1-0.3s0.7,0.8,1.6-0.7c0.4-0.8,0.7-2,0.7-2.7
		c-0.1-1.2,1.2-3.8,1.9-3.8c0.6,0,14.5-13.3,14.5-13.9c0-0.1-0.5-0.1-1,0c-1.1,0.3-1.1,0.3,0-0.6c0.6-0.5,1.5-0.8,1.9-0.7
		c0.4,0.1,1.1-0.4,1.5-1.1c3.8-6.1,5.1-7.9,6.2-8.4c1.2-0.6,1.4-1,1.3-2.5c0-0.5,0-0.5,0.2-0.1c0.3,0.8,1.5,0.8,1.9,0
		c0.2-0.3,1.6-1.2,3.2-1.9s3.1-1.5,3.5-1.7c0.4-0.2,1-0.6,1.4-0.7c2.2-0.9,5.6-2.7,7-3.7c0.9-0.7,2.1-1.2,2.6-1.2
		c0.6,0,2.1-0.3,3.4-0.7c2.2-0.7,2.4-0.9,2.4-2c0-1.8,0.7-2.8,1.1-1.5c0.3,1.2,1.4,1.3,4.7,0.3c1.4-0.4,3-0.8,3.7-0.9
		c0.7-0.2,1.3-0.6,1.2-0.8c0-0.2,0.3-0.4,1.1-0.6L216.6,165l-19.7-15l-5.5-4.2c-0.2,1.5-0.5,2.9-0.9,4.1c-0.5,1.4-0.8,3.8-0.9,6.8
		l-0.1,4.7l-2.7,1.4c-2.2,1.2-3.2,1.4-6.4,1.5c-2,0-3.9,0.2-4.1,0.5c-0.7,0.7-1.4,3-2.2,6.8c-0.5,2.2-1,3.6-1.4,3.6
		s-0.9,0.4-1.3,0.8c-0.9,1-0.5,2.4,1.2,3.7c1.5,1.1,2,3.7,1.3,6c-0.4,1.2-0.4,1.9,0,2.2c0.3,0.4,0.3,0.8,0,1.3
		c-0.3,0.4-0.5,1.4-0.5,2.2c0,1.7-0.6,1.9-3.6,1.3c-1.1-0.2-1.5-0.6-1.7-1.7c-0.2-1.2,0-1.7,1.4-3.1c0.9-0.9,1.6-1.9,1.6-2.2
		c0-0.7-2.2-2.1-2.8-1.8c-0.7,0.4-1.9-0.2-1.9-0.9c0-0.4-0.5-0.9-1.1-1.1c-1.3-0.5-2.6-2.2-2.6-3.3c0-0.4-1.5-2.2-3.3-4.1
		c-1.8-1.9-3.3-3.7-3.3-4c0-0.9-1.4-2.1-3.1-2.7c-1.2-0.4-1.5-0.8-2-2.8c-0.5-1.9-0.4-2.4,0.2-3.4c1-1.5,0.7-2.1-1.8-4
		c-1.7-1.3-2.1-1.8-2.1-3c0-1.2,0.3-1.6,1.9-2.5c2.3-1.3,4-4.5,3.5-6.7c-0.3-1.5,0.3-3.1,1.7-4c0.5-0.3,0.8-0.9,0.8-1.2
		c0-0.3,0.4-1,1-1.5c0.7-0.7,0.9-1.3,0.7-2.8c-0.1-1,0-3.1,0.3-4.6c0.3-1.8,0.3-2.9,0-3.3c-0.4-0.5-0.7-3-0.7-7.9c0-0.2,0-0.4,0-0.6
		l-9.1-6.9c-0.4,0.1-0.9,0.1-1.3,0.1c-1.2,0-2.2,0.3-2.6,0.7c-0.4,0.5-0.8,0.6-1.4,0.3c-0.9-0.5-3.9,0.4-5.1,1.5
		c-0.8,0.7-0.9,0.7-1.1,0c-0.5-1.3-2-0.8-2.5,0.8c-0.5,1.8-1.4,2.2-1.8,0.7c-0.2-0.6-1.2-2-2.3-3.2c-1.1-1.2-2.3-3.2-2.8-4.4
		c-0.5-1.3-1.5-3-2.2-3.9c-0.7-0.8-1.3-2-1.3-2.6c0-0.6-0.4-1.5-0.9-1.9c-1-0.9-3.1-0.7-5.8,0.5c-0.8,0.3-8.8,2.5-17.9,4.9
		c-12.9,3.3-17,4.5-18.7,5.6c-1.2,0.8-2.7,1.4-3.4,1.4c-1.4,0-2.4,0.5-5.1,2.4c-1.5,1.1-3.3,1.6-10.9,3c-9.1,1.7-9.2,1.7-17.9,5.7
		c-8.6,3.9-8.8,4-9.1,5.6c-0.3,1.9,0.3,3.6,2.5,7c1.3,2,1.5,2.7,1.3,4c-0.1,0.9-0.3,2-0.2,2.5c0,0.5,0.2,3.8,0.4,7.3l0.3,6.3
		l6.4,0.1c5.6,0.1,6.5,0.2,7.2,1c0.8,0.9,0.8,0.9,2.5-0.2c1.2-0.8,2.3-1.1,3.9-1.1c2,0,2.4,0.2,4.8,2.5c2.2,2.1,3,2.6,5.9,3.3
		c2.6,0.7,4,1.4,5.8,2.9c1.4,1.1,2.6,2.5,2.8,3c0.6,1.5,3.9,2.6,8.6,3c3.6,0.2,4.9,0.6,9,2.4l4.8,2.2v1.7c0,1.7,0,1.7,2.2,2.1
		c1.2,0.1,2.9,0.3,3.7,0.3c0.9,0,1.6,0.1,1.6,0.2c0,0.9-2.7,5.4-3.4,5.7c-0.8,0.2-0.8,0.3,0.1,1.8c0.5,0.8,1.3,3.3,1.6,5.3
		c0.4,2.1,0.9,4.2,1.2,4.8c0.3,0.5,0.3,0.8,0.2,1.1C107.7,198.9,109,198.7,109.3,198.1z"/>
	<path fill="#FF0000" d="M100.2,256.6c0.3-1.4,0.3-1.5,0.7-2.9l-0.9,0.8l0.4-4.8l-2.2-1.6c0,0.6,0.2,1.1,0.5,1.3
		c0.2,0.1,0.3,0.7,0,1.3c-0.2,0.6-0.6,2.1-0.7,3.5c-0.2,1.4-0.7,2.7-1.2,3.2c-0.5,0.4-1,1.5-1.2,2.2c-0.1,0.3-0.1,0.6-0.1,0.8
		l3.7-3.7H100.2z"/>
	<path fill="#FF0000" d="M96.5,246.8l-2-1.5C94.3,246.1,95.2,246.9,96.5,246.8z"/>
	<path fill="#FF0000" d="M123.5,210l-1.8-2c-1.4,0.8-2.8,0.7-4.4,0.5l-4.5-5.1l-0.7,7.8l-7.8,9.8l15.5,0L123.5,210z"/>
	<path fill="#FF0000" d="M161.6,350.4c0.4-0.9,0.8-3.2,1-5.1c0.2-2.8,0.1-3.7-0.5-5l-0.8-1.6l-1.3,1.5c-2.2,2.5-2.6,2.1-2.6-3.1
		c0-2.5,0-5.5-0.1-6.6c0-1.2,0-2.9,0.2-3.8c0.3-1.4,0.1-2.2-0.9-4c-1.2-2.1-1.2-2.5-1-6.5l0.2-4.2l-0.7,2.2c-0.4,1.2-0.9,2.1-1.2,2
		c-0.6-0.4-0.5-1.6,0.1-1.6c0.6,0,0.1-2.9-0.6-3.3c-0.2-0.1,0.2-0.9,1-1.7c1.7-1.7,1.9-2.7,0.4-2.2c-0.6,0.1-1.9,0.4-2.9,0.5
		l-1.9,0.3l2-0.8c1.1-0.5,2.2-1.1,2.4-1.3c0.7-0.7-0.7-7.8-1.8-8.9c-0.9-0.9-0.9-0.9-0.9,0.1c0,0.6-0.4,1.1-0.9,1.2
		c-0.7,0.2-0.9,0-0.9-1c0-0.8-0.5-1.8-1.4-2.7c-0.7-0.7-1.4-1.8-1.4-2.4s-0.2-1-0.4-0.8c-0.6,0.4-1.1-1.1-0.6-1.8
		c0.2-0.3,0.8-1.6,1.4-2.9c0.6-1.5,0.8-2.1,0.7-2.5l-9.8-7.2l-48,35.2l13-39.5h-1.4c-0.2,1-0.4,2.2-0.5,3.1
		c-0.2,1.5-0.6,2.3-1.1,2.5c-1.8,0.6-3.9,2.9-4.1,4.4c-0.1,0.9-0.4,1.7-0.6,1.8c-0.2,0.1-1.6,1.9-3,3.9c-1.9,2.6-3,3.6-4,3.9
		c-0.7,0.1-1.9,0.9-2.6,1.6l-1.3,1.3l0.5,3.8l0.5,3.8l-2.4,2.9c-1.3,1.6-2.3,3.2-2.3,3.6c0,0.3,0.5,1.6,1.2,2.9
		c1.1,2.2,1.2,2.3,0.2,2.3c-0.6,0-4.3,3.1-9.5,8c-4.7,4.4-12.5,11.7-17.4,16.2c-10.1,9.4-9.2,7.2-8,18.8c0.8,8,0.9,14.6,0.2,16.9
		c-0.5,1.6-0.3,2.2,1.1,5.2c1.2,2.5,1.7,4.4,2,7.2c0.3,3.6,0.4,3.7,2.4,5.6l2.1,1.9v3.8c0,2.8,0.2,4.3,0.8,5.4
		c1,1.9,0.9,5.1-0.3,14.4c-0.5,3.7-1.4,10.6-1.9,15.2c-0.3,2.3-0.6,4.6-1,6.6l108.1-82.4c0-0.3,0-0.6,0-1
		C160.9,353.7,161.1,351.6,161.6,350.4z"/>
	<path fill="#FFCA00" d="M138.1,164.4l-12,37.5l-0.7,2.4l13.1,14.5c0.3,0.6,4.8-4.2,5.2-4.5l1.1,1.9l-0.1,0.3l0.8-2.4l6.4-6.3
		L138.1,164.4z"/>
	<path fill="#FFCA00" d="M168.2,231.4l3.7,3.9l4.3,14.1l39.7-28.6l-59.5,0.3l-1.6-5.1l-4.8,4.1c0,1.3-0.2,1.6-0.9,2.4l-3.6,3.8
		l1.5,1.8C160.8,227,168.2,231.4,168.2,231.4z"/>
	<path fill="#FFCA00" d="M100.4,248.8l1.7-0.2c1.4-6.1,3.1-13.3,3.1-13.3l4.1-4.1c3.7-1.9,16.5-3.4,16.5-3.4s0.1,0,0.3,0.1l5.2-4.3
		c-0.1,2.2,1.6,3.6,3.3,4.7c1-0.6,1.9-1.4,2.9-2l-0.8-1.2l-2.3,1.5l-1.9-2.1l2.2-2.2L123.5,210l-3.5,11.1l-15.5,0l-0.9,1.1
		c0.4,1.1,0.7,2.3,0.7,2.7c0,0.6,0.3,1.6,0.7,2.3c0.6,1.2,0.6,1.5,0,2.3c-0.4,0.6-0.7,1.4-0.7,1.9c0,0.5-0.2,0.7-0.5,0.6
		c-0.6-0.4-3.1,0.6-3.4,1.4c-0.1,0.3,0.3,1.6,1,2.9c1.2,2.2,1.2,2.3,0.4,3.6c-0.6,0.9-1.2,1.3-2.4,1.3c-2.3,0-4,0.9-3.8,2.1
		c0.1,0.6-0.2,1.2-0.6,1.5c-0.2,0.2-0.4,0.4-0.4,0.6l2,1.5c0.1,0,0.1,0,0.2,0c1.3-0.1,1.5,0,1.5,1c0,0.1,0,0.1,0,0.2l2.2,1.6
		L100.4,248.8z"/>
	<path fill="#FFCA00" d="M145.9,219.5l-1.2-2.5l-0.3,1.4l-3.6,3.2c0.1,0.1,0.9,0.9,0.9,1.2C141.8,223,145.9,219.5,145.9,219.5z"/>
	<path fill="#FFCA00" d="M131.1,272.7h-27.9l-13,39.5l48-35.2l9.8,7.2c-0.1-0.2-0.2-0.4-0.5-0.7c-0.7-0.7-0.7-0.8,0.7-0.5
		c1.2,0.2,1.5,0.1,1.5-0.4c0-0.4-0.2-0.8-0.5-1c-0.3-0.2-0.4-1-0.2-2c0.2-0.9,0.4-2.2,0.5-2.7c0-0.6,0.5-1.5,0.9-2
		c0.7-0.8,0.7-0.9-0.4-2.3c-0.4-0.5-0.7-0.9-0.9-1.2c-1.1,0.4-2.1,0.8-3.1,1.3C140,277.1,133.9,275.8,131.1,272.7z"/>
	<path fill="#FFCA00" d="M149.4,271.3c0.3,0.2,0.7,0.5,1.2,1c1.7,1.5,2.1,1.7,3.6,1.4c1.6-0.3,4.7-1.8,7.2-3.5
		C157.4,269.9,153.1,270.2,149.4,271.3z"/>
	<path fill="#FFFFFF" d="M101.1,256.6l13.1-11.6l0.9,0.8l1.7-1.5l0.2-0.9c0,0,9.4-8.7,9.7-8.7s-0.5-0.9-0.5-0.9l-10.9,8.7l-1.4-1.2
		v1.7l-13,10.9c-0.3,1.5-0.4,1.5-0.7,2.9H101.1z"/>
	<path fill="#FFFFFF" d="M131.1,272.7c2.8,3.1,8.9,4.4,14.8,0c1-0.5,2-1,3.1-1.3c-0.4-0.6-0.2-0.7,0.5-0.1c3.7-1.1,8-1.3,12.1-1.1
		c1-0.6,1.9-1.3,2.6-1.9c1.1-1,2.2-1.8,2.4-1.8c0.2,0,0.5-0.4,0.7-0.9s0.6-0.9,0.9-0.9c0.2,0,0.9-0.5,1.8-1.4l-29.1-33.1l-8.2,6.9
		l-3.7-4.5l-0.5,1.7l2.3,3c0,0-5.2,0.6-4.7,4.7c0.5,4.1,21.3,6.3,21.3,6.3s-0.3,9-0.5,9c-7.8,3.4-27.8-9.2-27.8-9.2l-1.5,1.9
		l2.2,3.4l-5.7,6.3l2.6,9.4l-4.1,2.9l-3.3-9.2l-2.3-1.9l5.1-4.6h2.6c0.3,0,2.7-3.2,2.7-3.2l-1.7-2.2l-2.3,1.7c-0.7,1,0,1.5,0.9,1.7
		l-2.1-0.2l-9.8,8.7c0.1,0.8-0.1,1.9-0.9,2.8l-2.2,2.8c0.1,0,0.1,0.1,0.2,0.1c2.5,1.7,2.5,1.8,2.1,3.5c0,0.2-0.1,0.5-0.2,0.8h1.4
		H131.1z"/>
	<path fill="#FFFFFF" d="M109.3,231.2l-4.1,4.1c0,0-1.7,7.2-3.1,13.3l0.2,0l21.5-17.8l0.3-1.1l2-1.7c-0.2-0.1-0.3-0.1-0.3-0.1
		S113,229.3,109.3,231.2z"/>
	<path fill="#FFFFFF" d="M171.8,235.3l-3.7-3.9c0,0-7.4-4.4-21.3-3.2l27.1,31.1c1.3-1.4,2.8-2.7,4-3.8l-1.8-6L171.8,235.3z"/>
	<path d="M102.8,262.7l9.8-8.7l2.1,0.2c-0.9-0.2-1.6-0.7-0.9-1.7l2.3-1.7l1.7,2.2c0,0-2.4,3.2-2.7,3.2h-2.6l-5.1,4.6l2.3,1.9
		l3.3,9.2l4.1-2.9l-2.6-9.4l5.7-6.3l-2.2-3.4l1.5-1.9c0,0,20,12.6,27.8,9.2c0.2,0,0.5-9,0.5-9s-20.8-2.2-21.3-6.3
		c-0.5-4.1,4.7-4.7,4.7-4.7l-2.3-3l0.5-1.7l3.7,4.5l8.2-6.9l29.1,33.1c0.9-0.8,2.2-2,3.4-3.3c0.2-0.2,0.4-0.4,0.6-0.6l-27.1-31.1
		l-1.5-1.8l3.6-3.8c0.8-0.8,0.9-1.1,0.9-2.4l4.8-4.1l0.8-0.7c1.5,0.5,2.7,1.5,3.6,2.8l15.4-12.8c0.4,0.4,1.6,0.8,2.4,0.4l25.2-24.3
		l-27.5,19.4l-0.9-0.7c0-0.8,0.9-0.9,0-2.4c-1.1-1.3-2.7,1.2-2.9,1.2c-0.3,0-4-1.3-4.9-3l-0.2,4.4l-7,6.6l-5.3-0.3l-1.3,1.2
		l-6.4,6.3l-0.8,2.4l0.1-0.3l-1.1-1.9c-0.4,0.3-4.9,5.1-5.2,4.5l-13.1-14.5l0.7-2.4l0.1-0.3l-8.2-8.9c-3-1-7.8-1.2-8.7,5.3
		c-0.3,0.6-1.6,0.8-3,0.7c-0.1,0.2-0.2,0.4-0.4,0.6c-1.4,1.7-1.8,3.6-1.1,5.2c0.8,2,0.1,6.9-1.2,7.8c-0.6,0.4-0.7,1.1-0.6,2.6
		c0.1,1.1,0,2.5-0.2,3.2c-0.3,0.9-0.2,1.7,0.4,3.4c0.1,0.2,0.1,0.3,0.2,0.5l0.9-1.1l7.8-9.8l0.7-7.8l4.5,5.1c1.6,0.2,3,0.3,4.4-0.5
		l1.8,2l11.1,12.4l-2.2,2.2l1.9,2.1l2.3-1.5l0.8,1.2c-1,0.6-1.9,1.4-2.9,2c-1.7-1.1-3.4-2.5-3.3-4.7l-5.2,4.3l-2,1.7l-0.3,1.1
		l-21.5,17.8l-0.2,0l-1.7,0.2l-0.1,0.8l-0.4,4.8l0.9-0.8l13-10.9v-1.7l1.4,1.2l10.9-8.7c0,0,0.8,0.9,0.5,0.9s-9.7,8.7-9.7,8.7
		l-0.2,0.9l-1.7,1.5l-0.9-0.8l-13.1,11.6h-0.9h-1l-3.7,3.7c0,0.6,0.3,1.1,1,1.9c1,1.1,1.2,1.6,0.9,2.9c-0.2,1.5-0.1,1.7,2.1,3.2
		l2.2-2.8C102.7,264.6,102.8,263.5,102.8,262.7z M144.4,218.4l0.3-1.4l1.2,2.5c0,0-4.1,3.6-4.1,3.4c0-0.3-0.8-1.1-0.9-1.2
		L144.4,218.4z"/>
</g>
</svg>
