<?xml version="1.0" encoding="utf-8"?>
<!-- Generator: Adobe Illustrator 17.1.0, SVG Export Plug-In . SVG Version: 6.00 Build 0)  -->
<!DOCTYPE svg PUBLIC "-//W3C//DTD SVG 1.1//EN" "http://www.w3.org/Graphics/SVG/1.1/DTD/svg11.dtd">
<svg version="1.1" id="flag-icon-css-na" xmlns="http://www.w3.org/2000/svg" xmlns:xlink="http://www.w3.org/1999/xlink" x="0px"
	 y="0px" viewBox="0 0 640 480" enable-background="new 0 0 640 480" xml:space="preserve">
<g>
	<path fill="#FFFFFF" d="M200.3,417.4c2.5,4,3.8,6.4,4.3,7.9l168.2-111.4c0.2-7.4,0.4-15.1,0.7-22.7L196.2,410
		C197.3,412.3,198.6,414.7,200.3,417.4z"/>
	<path fill="#FFFFFF" d="M166.2,224.3c0.3,1.7,0.5,4.8,0.5,7c0,3.8-0.1,3.9-1,3.4c-0.7-0.4-1.3-0.4-2,0c-1.3,0.7-1.3,2.4,0.1,11.6
		c0.1,1,0.3,1.8,0.4,2.5L418.4,84.5c0.5-12.2,0.7-20.9,0.7-23.1v-1.3l8.8-0.4c7.7-0.3,10.4-0.7,22.5-3.1c4.2-0.9,9.8-2,16-3.1
		L494,35.6c-1.5,0.3-3,0.7-4.5,1c-15.7,3.5-40.5,8.4-49.2,9.8L165.9,222.7C166,223.2,166.1,223.8,166.2,224.3z"/>
	<path fill="#3662A2" d="M433.3,45.9c-1.9-0.8-3.9-0.9-11.9-0.9c-5.3,0.1-11.1,0.3-12.8,0.6c-3,0.5-3.3,0.5-7.6-1.3
		c-6.5-2.6-9-3.2-14.4-3.2c-4.7,0-32.8-2.3-33.5-2.8c-0.2-0.1-2.7-0.5-5.6-0.7c-7.8-0.8-9.2-1.6-19.4-11.8l-8.4-8.5h-81.2h-81.3
		l-1.7,1.3c-3.2,2.4-9.2,1.4-13.6-2.1c-1.9-1.6-3.1-2.2-4.3-2.2c-2,0-2.4-0.3-4-2.8c-0.7-1.1-2.5-3.4-4.1-5.1l-2.8-3l-4.2,0.1
		c-2.8,0.1-4.7-0.2-5.6-0.7C114.6,1.7,112,2,106.5,4c-2.8,1.1-5.8,2.4-6.7,3c-2.1,1.6-8.6,4.2-10.2,4.2c-0.7,0-2.6,0.3-4.2,0.6
		c-2.8,0.6-2.8,0.6-6.7-1.5c-2.2-1.2-4.5-2.1-5.3-2.1c-0.8,0-3.9,1-6.8,2.1c-6.3,2.5-6.1,2.1-6.5,12c-0.3,6.6-0.2,7.3,1.6,15.7
		c1.8,8.4,2,8.9,3.6,10.3c1.2,0.9,2.1,2.6,3.1,5.1c2,5.2,3.5,8.2,6.5,12.6c2.1,3.3,2.9,4.1,4.8,4.7c1.9,0.8,2.7,1.5,5.8,6.2
		c3.9,5.8,14.5,24,24,41.1c4.9,8.8,6.7,12.7,10.9,23.8c4.9,12.8,5.3,13.6,10.6,21.8c7.5,11.6,15.5,26.7,15.1,28.3
		c-0.3,1,0.4,1.8,4.2,5.4c3.6,3.4,5,5.1,6.9,8.6c1.4,2.7,3.3,5.3,5,6.9c2.6,2.5,2.6,2.4,3.8,9.4L440.3,46.4c-1.6,0.3-2.7,0.4-3,0.4
		C436.3,46.8,434.6,46.4,433.3,45.9z M244.8,147.1l-25.4-0.6l0.2,25.5l-21.8-13.2l-12.6,22.1L173,158.7l-22,12.9l0.6-25.4l-25.4,0.2
		l13.2-21.8l-22.1-12.5l22.2-12.3l-12.8-22l25.4,0.6L152,52.9l21.7,13.2L186.3,44l12.2,22.2l22-12.9l-0.6,25.4l25.4-0.2l-13.2,21.8
		l22.1,12.5L232,125.1L244.8,147.1z"/>
	<path fill="#38A100" d="M204.8,426.3c0,1.3,0.7,2.4,3,5c1.7,1.9,3.2,4.1,3.5,5c0.3,1.1,1.7,2.8,4.2,5c5.9,5.4,21.8,22.1,22.6,23.8
		l0.7,1.5l1.8-1.9c1.7-1.8,1.9-1.9,5.8-2.2c5.7-0.4,6.1-0.8,7.3-7.5c0.3-1.6,0.9-2.8,1.5-3.3c0.6-0.4,1-1.1,1-1.5s0.5-1.8,1-2.9
		c0.8-1.6,1.4-2.3,2.8-2.7c2.8-1,4.2-0.4,4.9,2.2c0.8,2.9,1,3.1,4.5,4.2c4,1.2,4.5,2.3,2.5,5.2c-1.8,2.6-1.9,4.2-0.2,5.7
		c0.8,0.7,1.5,2.2,1.8,3.9c0.7,3,1.3,3.3,5.1,2.1c1.9-0.6,2-0.5,3.6,1c1.4,1.4,2.2,1.7,5.3,2.1c3.7,0.5,4.2,0.7,6.7,2.9
		c1.5,1.3,3.8,1.6,11.5,1.8c5.3,0.1,5.8,0.1,6.9-1c0.8-0.7,1.8-1.1,2.9-1.1c1,0,2.9-0.4,4.5-0.8c3.6-0.9,7-0.4,8.3,1.4
		c2.8,3.8,2.5,3.7,5.8,3c1.7-0.3,3.7-0.6,4.5-0.6c2.2,0,2.7-0.8,2.4-3.4c-0.4-3,0.3-3.8,3.7-3.8c2.5,0,2.7-0.1,3.6-1.6
		c1.8-3.6,4.4-6.5,5.8-6.5c3.1,0,12.4-3.3,13.7-4.8c0.6-0.7,2.2-47.6,4.6-128.8c0.1-4.4,0.3-9.1,0.4-13.9L204.6,425.3
		C204.7,425.7,204.8,426,204.8,426.3z"/>
	<path fill="#C70000" d="M510.4,45.4c0.1,0.1,0.6,2.1,1.2,4.5c0.7,2.6,1.8,5.4,2.8,7c1.5,2.3,1.7,3.1,1.7,5.6c0,2.3,0.2,3.2,1,3.9
		c1.5,1.4,4,0.7,5-1.5c0.6-1.3,1.5-2,4-3c2.7-1.1,3.3-1.6,4.1-3.4c2.2-4.9,3.4-6.1,9.7-10.1l6-3.8l6.7-0.6c4.5-0.4,7.6-1,9.4-1.7
		c1.9-0.8,4.5-1.2,8.6-1.5c5.5-0.4,6.1-0.5,7.7-1.8c1-0.8,1.8-1.6,1.8-1.8c0.1-0.2-0.9-1.5-1.9-2.8c-1.9-2.3-2.4-2.6-6.9-4.2
		c-4.5-1.5-5.2-1.6-9-1.3c-3.9,0.4-4.4,0.3-10.8-1.8l-6.8-2.2l-12.9,2.8c-7.1,1.6-15.8,3.4-19.5,4.1c-3,0.6-10.7,2.2-18.3,3.9
		l-27.7,17.9C485.8,49.8,510.2,45.2,510.4,45.4z"/>
	<path fill="#C70000" d="M164.1,255.5c-0.7,1.7-0.7,2.1,0.2,4.3c0.5,1.3,1.3,4.6,1.7,7.4c0.4,2.7,0.9,5.3,1,5.7
		c0.2,0.4-0.2,2-0.7,3.7c-1,2.9-1,2.9,0,8.8c0.6,3.2,1.7,7.5,2.5,9.5c0.8,2.1,1.8,5.2,2.3,6.9c0.5,1.8,1.7,4.5,2.7,6
		c3.8,5.5,4.5,7.5,4.9,13.3c0.3,4.6,0.2,5.7-0.5,7.1c-0.8,1.4-0.8,2.1-0.3,5.1c0.3,1.9,0.6,6.4,0.6,10v6.6l2,4.2
		c2.1,4.5,2.6,7.2,1.2,7.2c-0.7,0-0.8,0.4-0.5,2.1c0.9,5.7,0.8,5.5,3.4,7.1c2.2,1.4,2.8,2.1,5,6.6c1.4,2.7,2.5,5.1,2.5,5.2
		c0,0.2-0.6,0.3-1.4,0.4c-1.4,0.2-1.4,0.3-1.6,3.1c-0.2,2.5,0.1,3.3,1.1,4.6c1,1.3,1.4,2.7,1.8,6.2c0.6,4.8,1.8,8.8,4.1,13.4
		l177.3-118.9c0.6-19.8,1.1-38.9,1.5-50c0.6-18.2,1-34.3,1-36v-3l18.7,0.2c18.2,0.2,18.6,0.2,18.7-0.8c0.5-4,3.6-78,5-117
		L164.1,248.9C164.7,253.2,164.6,254,164.1,255.5z"/>
	<path fill="#FFE700" d="M232.1,100.3l13.2-21.8l-25.4,0.2l0.6-25.4l-22,12.9L186.3,44l-12.6,22.1L152,52.9l0.1,25.5l-25.4-0.6
		l12.8,22l-22.2,12.3l22.1,12.5l-13.2,21.8l25.4-0.2l-0.6,25.4l22-12.9l12.2,22.2l12.6-22.1l21.8,13.2l-0.2-25.5l25.4,0.6l-12.8-22
		l22.2-12.3L232.1,100.3z M185.8,158.7c-25.7,0-46.6-20.7-46.6-46.3c0-25.6,20.8-46.2,46.6-46.2s46.6,20.7,46.6,46.2
		C232.4,138,211.5,158.7,185.8,158.7z"/>
	<path fill="#3662A2" d="M185.8,66.2c-25.8,0-46.6,20.6-46.6,46.2c0,25.6,20.9,46.3,46.6,46.3s46.6-20.7,46.6-46.3
		C232.4,86.9,211.6,66.2,185.8,66.2z M185.8,148.9c-20.2,0-36.5-16.3-36.5-36.5c0-20.2,16.3-36.5,36.5-36.5s36.5,16.3,36.5,36.5
		C222.3,132.6,206,148.9,185.8,148.9z"/>
	<circle fill="#FFE700" cx="185.8" cy="112.4" r="36.5"/>
</g>
</svg>
