<?xml version="1.0" encoding="utf-8"?>
<!-- Generator: Adobe Illustrator 17.1.0, SVG Export Plug-In . SVG Version: 6.00 Build 0)  -->
<!DOCTYPE svg PUBLIC "-//W3C//DTD SVG 1.1//EN" "http://www.w3.org/Graphics/SVG/1.1/DTD/svg11.dtd">
<svg version="1.1" id="flag-icon-css-nc" xmlns="http://www.w3.org/2000/svg" xmlns:xlink="http://www.w3.org/1999/xlink" x="0px"
	 y="0px" viewBox="0 0 640 480" enable-background="new 0 0 640 480" xml:space="preserve">
<g>
	<path fill="none" d="M640,264.3c0.4-4.1,0.5-7.3,0-7.9c0,0,0,0,0,0V264.3z"/>
	<path fill="#FFFFFF" d="M424.4,95.3c1.1-1.1,1.8-2.4,1.8-3.6c0-0.9,0.1-1.4,0.6-1.7V76.2c-1.2-1.2-2.6-1.1-4,0.2
		c-0.6,0.6-2.2,0.9-5,0.9c-3.7,0-4.1,0.1-4.1,1.2c0,1.4,1.8,2.1,4,1.6c1.1-0.3,1.6-0.1,1.6,0.4c0.1,0.5,1.1,1.6,2.4,2.5
		c3.5,2.4,3.8,4.8,1.1,9.9c-2.3,4.4-3.1,7.6-4.1,15.6c-1,7.6-2.6,10.8-8,15.6c-3.3,2.8-4.5,4.4-4.5,5.4c0,1.1,0.3,1.5,1.4,1.5
		c2-0.1,6.1-1.1,10-2.5c3-1.1,3.5-1.6,3.8-3.3c0.2-1.1,1.8-4.1,3.5-6.6c0.7-1.1,1.3-2.1,1.8-3v-5c0,0,0,0-0.1,0
		c-0.8,0.2-2.1,0.6-2.8,0.8c-2.3,0.6-2.8-1.3-1.9-8.3C422.5,97.7,422.8,96.8,424.4,95.3z"/>
	<path fill="#FFFFFF" d="M394,132.9c-3.1-0.2-4.7,0.8-2.4,1.6c0.6,0.3,1.6,0.8,2.2,1.2c1.3,0.9,5.6-0.4,8-2.4l1.6-1.4h-1.6
		c-0.9,0-2.3,0.3-3.1,0.6C397.8,132.8,395.7,133,394,132.9z"/>
	<path fill="#FFFFFF" d="M214.3,285c-0.5,2.2,1.2,5.4,3.4,6.5c0.9,0.5,3.8,1.5,6.4,2.3c2.6,0.8,5.4,1.8,6.3,2.2
		c1.9,0.9,6.4,2.2,9.4,2.6c1.5,0.2,2.4,0,3-0.7c0.5-0.6,1.5-1,2.3-1c1.3,0,1.4,0.1,0.8,1.2c-0.4,0.6-0.6,1.6-0.4,2.2
		c0.4,1.1,2.6,1.4,3.3,0.4c0.5-0.8,1.6-0.8,1.6-0.1c0,0.3-0.6,0.7-1.3,0.9c-2.1,0.6-1.4,2.1,2.9,5.9c4.3,3.9,6.7,4.9,12.9,5.6
		c3.2,0.4,4.2,0.8,6.9,3.1c3.4,2.9,4.8,3.4,4.8,1.6c0-1.9,1-2.8,2.4-2.3c1.3,0.4,1.9,2.8,0.7,2.8c-1.1,0-0.7,1.5,0.5,2.3
		c1.6,0.9,5.4,0.6,5.5-0.5c0.1-1.4,2.4-4.9,3.1-4.8c0.4,0.1,0.7,1.1,0.8,2.3c0.2,1.6,0.8,2.4,3,3.8c2.4,1.5,2.7,1.9,1.8,2.4
		c-1,0.6-0.9,0.8,0.4,3.3c1.9,3.4,3.1,3.9,3.1,1.4c0-2.2,1.7-4,2.5-2.6c0.3,0.4,0.2,1.3-0.2,2c-0.6,1-0.5,1.4,0.5,2.1
		c0.7,0.5,1.9,1.5,2.8,2.3l1.4,1.4l-0.4-2.1c-0.2-1.1-0.1-2,0.3-2c0.4,0,0.6,0.6,0.6,1.4c0,0.8,0.4,2,0.9,2.6
		c1.4,1.9,1.1,2.3-1.6,2.3c-2.1,0-2.5,0.2-2.5,1.3c0,2.1,2.2,2.8,5.1,1.6c3.3-1.3,4.4-1.3,8.3,0.3c3.9,1.6,7.5,5.3,6.6,6.9
		c-0.5,0.9-0.1,1.1,2.9,1.5c2.4,0.3,3.5,0.8,3.8,1.5c0.4,1.4,3.8,5.1,4.6,5.1c0.4,0,0.7-1.1,0.7-2.4c0-2.8,0.8-3.6,1.9-2.3
		c0.4,0.5,1.2,0.9,1.8,0.9c0.8,0,0.9-0.6,0.6-2.7c-0.4-2.5-0.3-2.9,1.4-4.1c2.1-1.6,3.1-1.8,3.1-0.4c0,0.5,0.6,1.4,1.3,2
		c0.7,0.6,1.3,1.6,1.3,2.1c0,1.5,2.8,3.1,5.4,3.1c3.1,0,4.6,1.9,4.6,6.1c0,3.9,0.4,5.2,1.8,5.2c0.6,0,1.8,0.9,2.6,2l1.4,1.9
		l-2.8-0.4c-1.5-0.2-3.8-0.6-4.9-0.8l-2.2-0.4l1.3,1.4c0.8,0.8,2.4,1.5,3.9,1.7c2.4,0.3,2.5,0.4,2.4,2.4c-0.1,1.8-0.3,2.1-1.4,2.1
		c-0.8,0-1.9-0.4-2.6-0.9c-0.6-0.5-1.7-0.9-2.4-0.9c-0.9,0-1.1,0.3-0.8,1.4c0.2,0.8,0.4,2.2,0.4,3.1c0,2.3,2.1,2.9,4,1.2
		c1.9-1.8,3.1-1.6,4.2,0.6c0.7,1.4,1.7,2.2,4,3c2.6,0.9,3.3,1.4,3.8,3.1c0.5,1.4,1.5,2.4,3.7,3.5c3.3,1.6,8.5,2.7,8.5,1.7
		c0-0.6,3.8-2.8,4.2-2.3c0.2,0.1-0.1,0.9-0.5,1.7c-0.6,1.3-0.6,1.6,0.6,2.5c0.7,0.6,1.3,1.4,1.3,1.8c0,0.9,1.7,0.9,2.1-0.1
		c0.2-0.5,0.4-0.4,0.8,0.4c0.3,0.6,0.1,1.7-0.6,2.6c-1.4,2.1-1.3,2.8,0.4,2.8c1.1,0,1.6-0.5,2-2c0.4-1.4,1.1-2.1,2-2.3
		c0.8-0.1,1.6-0.9,2-2.1c0.8-2.3,2.7-2.4,6.4-0.6c1.8,0.9,2.6,1.8,2.9,3.1c0.2,1.1,0.8,1.9,1.2,1.9c0.5,0,0.9,0.5,0.9,1.2
		c0,1-0.7,1.2-4.4,1.6c-2.4,0.3-4.4,0.7-4.4,1c0,1.1,2.1,2.5,3.8,2.5c1,0,1.8,0.3,1.8,0.6c0,0.8-2.4,1.3-4.5,0.9
		c-1.8-0.3-2.9,0.4-3,1.8c0,0.6,3.6,1.8,5.4,1.8c1.2,0,1.4,0.4,1.6,2.3c0.2,2.1,0.4,2.4,2.1,2.6c1.8,0.2,2,0,2.4-1.9
		c0.3-1.1,0.6-1.7,0.8-1.3c0.7,1.8,1.4,0.6,1.4-2c0-1.6,0.6-3.9,1.3-5.3c1-2.1,1.6-2.4,3.6-2.8c1.6-0.2,2.8,0.1,3.4,0.6
		c0.8,0.7,1.8,0.8,3.7,0.5c2.6-0.4,2.6-0.4,2.2,1c-1.1,3.5-1.2,4.5-0.4,4c0.5-0.3,1.6,0.3,2.9,1.6c0.3,0.3,0.6,0.6,0.9,0.8v-67.2
		c-3.5-1.7-4.4-2.5-5.5-4.8c-0.9-1.8-2.5-3.6-5-5.4c-2.1-1.4-3.6-2.9-3.5-3.3c0.1-0.4-1-1.9-2.5-3.4c-1.8-1.8-2.6-3-2.4-3.8
		c0.3-0.9-0.4-1.9-2.4-3.7c-1.5-1.3-3.1-2.4-3.4-2.5c-0.4,0-1.8-1-3.1-2.3l-2.4-2.3l2.9,0.4c1.6,0.3,3.1,0.2,3.3-0.1
		c0.2-0.3-0.3-1.3-1.1-2.3c-1.4-1.7-1.4-1.7-3.4-0.7c-1.1,0.6-2.1,1.4-2.1,1.9c0,1.4-3.6,1.1-5.8-0.5c-2.5-1.7-5.4-4.4-5.4-4.9
		c0-0.3,0.7-0.3,1.6-0.1c1.3,0.2,1.6,0,1.6-1.1c0-0.8-0.4-1.3-1.1-1.4s-2.6-0.1-4.4-0.3c-2.6-0.1-4-0.6-6.7-2.4
		c-1.9-1.3-4.1-2.4-5-2.7c-0.9-0.2-2.1-1.2-2.7-2.1c-0.6-1-2.2-2.4-3.6-3.2c-3.9-2.2-8.8-5.9-10.7-8.2c-1.6-1.9-3.8-2.9-6.9-3.2
		c-0.9-0.1-1.2,0.3-1.3,1.4c0,1.3-0.3,1.6-2.1,1.8c-1.9,0.2-2.1,0.1-1.7-1.1c0.2-0.7,0.1-2.4-0.3-3.8c-0.6-2.1-0.9-2.5-2.2-2.5
		c-1.8,0-2-0.8-0.6-1.9c1.4-1.2,1.1-2.1-0.6-1.6c-1.1,0.3-1.6,0.1-1.6-0.5c0-0.5-1-1.3-2.2-1.7c-1.2-0.4-2.2-1.2-2.2-1.6
		c0-0.4-0.6-1-1.3-1.2c-0.7-0.2-1.3-0.8-1.3-1.3s-0.4-0.9-0.8-0.9c-0.5,0-1.5-0.7-2.3-1.6c-2.1-2.2-2.7-1.9-2.3,0.8
		c0.7,4.8,1.4,6.8,2.8,7.4c1.4,0.6,1.9,1.6,0.6,1.6c-0.4,0-0.3,0.4,0.3,1.1c0.6,0.6,1.1,2.1,1.1,3.1c0,1.9-0.1,2-2.3,2
		c-1.3,0-2.1-0.3-1.8-0.6c0.2-0.4,0.8-0.6,1.3-0.6c0.5,0,0.9-0.2,0.9-0.5c0-0.7-4.8-3.3-6.1-3.3c-0.7,0-1.6-0.4-2-0.9
		c-0.8-1-0.4-1.3,2.2-1.7c1.7-0.3,2-3,0.5-4.4c-0.6-0.6-2.1-1.8-3.1-2.7c-1.1-0.9-2.1-2.2-2.1-2.9c0-1.7-2.9-6.5-4.4-7.3
		c-1.1-0.6-1.2-0.5-0.9,1.3c0.2,1,0.4,2.7,0.6,3.8c0.4,2.7-1.3,2.4-2.4-0.3c-1.1-2.6-3-2.9-4-0.6c-0.7,1.4-0.6,1.9,0.9,3.8l1.6,2.1
		h-1.6c-1.2,0-1.8-0.4-2.3-1.6c-0.4-0.9-0.9-1.4-1.3-1.2c-1.1,0.6-0.8-4.4,0.3-5.3c1.6-1.3,1.1-1.9-1.7-1.9c-2.4,0-2.9-0.3-4.1-2.2
		c-0.8-1.2-1.4-2.4-1.4-2.7c0-0.3-0.9-1.4-2.1-2.5c-2.3-2.2-4.8-2.6-7.6-1.3c-1.5,0.7-1.8,0.6-2.8-0.7c-0.8-1.1-1.9-1.6-4.1-1.8
		c-1.9-0.3-4.2-1.1-6.2-2.4c-3.9-2.6-4.8-3.3-6.1-5.9c-0.6-1.1-2-2.4-3.1-3.1c-3.1-1.7-5.6-3.9-5.6-4.9c0-0.9,0.1-0.9,1.1,0
		c0.6,0.6,1.4,1.1,1.7,1.1s1,0.4,1.5,0.9c1.6,1.4,5,1.9,5.4,0.8c0.6-1.6-1.4-4.6-3.3-5.1c-0.9-0.2-2.6-1.3-3.7-2.3
		c-1.7-1.6-2.2-1.8-3.3-1.2c-1.3,0.8-1.6,0.6-1.4-1.3c0.2-1.4-5.2-2.3-7-1.1c-1.4,0.8-2.3,0.1-2.3-1.9c0-1.3-1.5-2.5-5.8-4.6
		c-4.1-1.9-6.8-5-7.9-9.1c-0.4-1.6-1.1-3.2-1.4-3.6c-0.5-0.6-0.3-0.8,0.7-0.8c1.2,0,1.3-0.3,1-2.1c-0.3-1.5-0.1-2.8,0.9-4.6
		c2.6-5.2,2-5.7-7.4-6.3l-6-0.4l-3.4-4.1c-1.3-1.6-3-3.2-4.4-4.3v107.9C214,282.2,214.5,283.6,214.3,285z"/>
	<path fill="#FFFFFF" d="M344.2,359.9c-0.4-0.4-0.9-0.4-1.5,0.1c-0.8,0.6-1,0.5-1.3-0.3c-0.2-0.5-1-0.9-1.8-0.9
		c-1.3,0-1.4,0.3-1.3,2c0.5,3.7,0.6,3.8,3.6,1.7C344,361.2,344.7,360.4,344.2,359.9z"/>
	<path fill="#FFFFFF" d="M333.6,360c1.8-0.6,2.1-1.4,1.4-3.3c-0.3-0.8-2.6-1.4-2.8-0.9c-0.1,0.1-0.1,1.2-0.2,2.4
		C331.8,360.6,331.9,360.6,333.6,360z"/>
	<path fill="#FFFFFF" d="M329.6,358.2c0.8,0,0.8-0.2,0.2-0.9c-0.9-1.1-1.3-1.1-2.4-0.4c-0.7,0.4-0.6,0.6,0.2,0.9
		C328.1,358.1,329.1,358.2,329.6,358.2z"/>
	<path fill="#FFFFFF" d="M341.4,367.5c-0.9,1.1-1,1.5-0.3,2.8c0.8,1.4,0.8,1.4,1.3-0.6C343.2,366.8,342.8,366,341.4,367.5z"/>
	<path fill="#00267F" d="M2.1,45.7c1.6,0.6,2,1.2,2,2.5c0,2.1,1.9,3.6,2.8,2.3c0.4-0.6,0.6-0.4,0.9,0.9c0.2,0.9,0.1,2-0.3,2.3
		c-0.9,1-0.7,3.5,0.4,3.5c0.5,0,0.9-0.6,0.9-1.3c0-0.7,0.4-1.3,0.8-1.3c1.6,0,4.6,2.4,5.4,4.3c0.8,1.9,0.7,2.1-1.3,4.1
		c-2.1,2.1-2.1,2.2-0.9,3.4c0.6,0.7,1.5,1.3,2,1.3c0.5,0,0.8,0.8,0.8,1.9v1.9l-3.6-0.2c-3.8-0.1-6.4,0.8-6.4,2.3
		c0,0.4,1.1,2.1,2.5,3.7c1.4,1.6,2.4,3.2,2.1,3.8c-0.4,1.2,1.1,1.8,3.5,1.3c2.3-0.4,2.7-0.9,2.8-3.9c0.1-1.6,0.4-2.3,1.1-2.4
		c1.4-0.3,2.1,2.6,1.2,4.6c-0.6,1.3-0.5,1.6,0.3,1.9c1.5,0.6,1.1,1.8-0.9,2.6c-2.3,0.9-2.4,1.8-0.1,2.2c0.9,0.2,2.2,0.6,2.8,0.8
		c0.9,0.4,1.1,0.1,1.1-2.4v-2.9H25c2.9,0,3.1,0.1,5.3,2.9c1.3,1.6,2.3,3.5,2.3,4.3c0,0.8,0.7,1.9,1.7,2.6l1.6,1.2L34,96.3
		c-2.1,2.6-3.6,2.8-7.1,1c-3-1.6-3.1-1.6-2.7,0c0.2,0.7,1.2,1.9,2.2,2.7c5,3.8,6.1,5,7,7.8c0.6,1.6,1,3.6,1,4.6
		c0,1.1,0.9,2.5,2.9,4.4c1.6,1.6,3.4,3.8,4.1,4.9c1.4,2.3,5.4,5.1,7.4,5.1c0.8,0,1.3,0.4,1.3,1.1s0.3,1.6,0.6,2.1
		c0.5,0.8,0.7,0.8,1.7-0.1c1.3-1.1,2.7-0.8,2.7,0.7c0,0.6,0.8,2,1.9,3.2c1,1.2,1.8,2.8,1.9,3.4c0,0.7,1.1,2.6,2.5,4.4
		c1.4,1.7,3,3.9,3.6,4.9c1.9,3.3,3.6,4.7,6,5.5c3.1,1,4,2.4,3.1,4.7c-0.6,1.6-0.9,1.8-3.9,1.8c-1.8,0-3.3,0.2-3.3,0.4
		c0,0.9,2.4,2.4,3.9,2.4c1.5,0,3.6,1.7,3.6,2.9c0,0.3,1.4,2,3.1,3.7c1.8,1.8,3.1,3.6,3.1,4.4c0,1.1,0.8,1.5,4.8,2.6
		c4.8,1.2,4.8,1.2,5.4,3.7c0.6,2.3,0.9,2.5,2.9,2.7c1.2,0.1,2.6,0.5,3,0.9c0.6,0.5,1,0.4,1.6-0.4c0.8-1.1,0.9-1.1,1.8,0.3
		c0.7,1,0.8,1.7,0.4,2.2c-0.8,0.9-0.1,1.4,3.2,2.9c2.5,1.1,3.1,0.9,3.1-0.9c0-1.7,1.5-1.1,1.8,0.7c0.2,1.3,0.5,1.4,2.2,1.1
		c2.5-0.3,6.4,2.4,5.3,3.8c-0.4,0.4-1.1,0.8-1.5,0.8c-0.6,0-0.9,0.7-0.9,1.9c0,1.9,0.1,2,2.5,1.6c1.9-0.3,2.5-0.1,2.5,0.5
		c0,1.3,1.2,1.8,2.3,0.8c0.9-0.7,1-0.7,0.7,0.1c-0.1,0.5-1.2,1-2.3,1.1c-2.5,0.3-2.7,2-0.4,3.5c0.9,0.6,1.6,1.4,1.6,1.9
		c0,0.5,0.4,0.9,0.9,0.9c0.5,0,1.4,0.9,2.1,1.9c1.1,1.9,1.4,1.9,4.5,1.1c0.6-0.1,1.1,0.3,1.2,1c0.4,1.9,1.4,2.8,2.9,2.8
		c1.1,0,1.6-0.6,2.3-2.6c0.5-1.6,1.3-2.8,1.9-2.9c1.4-0.3,1.4,1.9,0.1,3c-0.8,0.6-0.8,1-0.3,1.6c0.4,0.5,1.1,0.9,1.6,0.9
		c0.6,0,0.8,0.5,0.5,1.9c-0.4,1.9,0.2,2.4,1.4,1.2c0.9-0.9,2.7-0.3,2.7,1.1c0,0.6,0.4,1.6,1.1,2.3c0.6,0.7,0.7,1.1,0.3,1.1
		c-0.5,0-0.8,1.5-0.8,4.4c0,4.3,0.1,4.6,2.2,6.6c1.2,1.2,2.2,2.4,2.2,2.6c0,0.2,1.5,1.7,3.4,3.3c1.9,1.6,4,4.3,4.8,5.8
		c1.2,2.5,1.6,2.8,3.4,2.8c2.6,0,4,1.5,2.9,3.2c-0.9,1.3-1,3.7-0.3,3.7c0.3,0,0.5,1,0.5,2.2c0,3.1,0.8,3.7,3.3,2.5
		c2.5-1.3,2.9-1.9,2-3.4c-0.8-1.6-0.2-5.2,0.8-4.8c0.4,0.1,0.8,0.9,0.8,1.8c0.1,2.8,0.3,3.1,1.2,3.1c0.6,0,1.3-0.7,1.6-1.6
		c0.7-1.9,1.3-2,2.3-0.4c0.6,0.9,0.4,1.3-0.5,1.9c-0.6,0.4-1.2,1.2-1.2,1.7c0,1.2,0.6,1.2,2.1,0c0.7-0.5,1.4-0.9,1.8-0.9
		c0.6,0,3.6,3.3,3.6,3.9c0,0.3-1.1,1-2.3,1.6l-2.3,1.2l1.8,1.1c0.9,0.6,1.8,1,1.9,0.9c0.1-0.1,0.4-0.8,0.8-1.4
		c0.6-1.1,0.6-1.1,2.1,0.1l1.5,1.3l2.6-2.1c2.6-2.1,2.6-2.1,3-0.8c0.2,0.8,0.4,2.1,0.4,2.8c0,0.8,0.3,1.4,0.6,1.4
		c0.4,0,0.6,0.4,0.6,0.9c0,0.4,0.7,1.6,1.6,2.5c0.9,0.9,1.6,2.1,1.6,2.6c0,1.6,3.4,6.6,4.5,6.6c1.4,0,5.7,2,6.3,2.9
		c0.3,0.4,1.2,0.8,2.1,0.8c1.1,0,1.8,0.4,1.9,1.3c0.4,1.4,2.1,1.6,3.3,0.4c0.4-0.4,0.8-0.4,1.2-0.1V173.7c-0.6-0.5-1.2-0.9-1.6-1.1
		c-1.4-0.8-2.4-1.6-2.1-1.9c0.3-0.3,0.3-2.3,0.1-4.3c-0.3-2.8-0.2-3.9,0.4-4.6c1.1-1.1,1.1-1.3-1.3-3.9c-1.4-1.6-2.3-2.2-2.8-1.8
		c-0.4,0.4-1.7,0.1-3.8-1c-3.6-1.8-4.9-2-5.4-0.9c-0.2,0.6-0.5,0.5-1-0.3c-0.6-0.8-1.6-1.1-4.6-1.1c-2.5,0-4.9-0.4-6.7-1.2
		c-1.5-0.7-4.4-1.5-6.3-1.9c-2.8-0.6-4.9-1.7-10-5.3c-3.6-2.5-6.8-4.4-7.2-4.3c-0.4,0.1-0.9,1-1.1,1.9l-0.4,1.6l-1.3-1.3
		c-0.6-0.8-1.2-1.9-1.2-2.6c0-2.3-6.6-6.3-10.3-6.3c-1.9,0-2.2-0.2-2.2-1.4c0-1.5-6.5-10.6-7.8-11c-0.4-0.1-1.1-1-1.6-2
		c-0.4-1-1.3-2-1.9-2.2c-0.7-0.3-1.5-0.9-1.9-1.7c-1.6-2.9-5.1-6.1-6.8-6.1c-2.4,0-5.4-1.2-5.9-2.3c-0.2-0.5-0.9-0.9-1.5-0.9
		s-2.5-1.4-4.2-3.1c-2.1-2.2-3.6-3.1-4.7-3.1c-0.9,0-2.2-0.4-2.9-0.9c-0.6-0.5-1.7-0.9-2.3-0.9c-1.4,0-1.8-0.8-2.6-4.4
		c-0.5-2.2-1.2-3.4-2.7-4.4c-1.1-0.8-3.8-2.8-5.9-4.4c-5.1-3.9-17.8-9.3-23.7-10.1c-2.6-0.4-3.3-0.8-3.8-1.9
		c-0.7-1.9-2.5-2.9-4.3-2.4c-0.8,0.2-2.3,0-3.3-0.4c-2.2-0.9-4.4-0.4-3.3,0.8c0.4,0.4,0.8,1.9,0.8,3.3c0,1.6,0.6,3.3,1.5,4.7
		c0.8,1.3,1.6,3.2,1.9,4.3l0.4,2.1l-1.6-1.1c-0.8-0.6-1.6-1.3-1.6-1.6c0-0.3-0.6-1-1.3-1.7c-1.3-1.3-5.6-1.8-5.6-0.6
		c0,1.4-1.4,0.4-2.4-1.8c-0.9-1.9-1.3-2.3-2.8-2.1c-1.9,0.3-8.4-2.9-10.3-4.9c-0.8-0.8-1.5-2.3-1.8-3.2c-0.8-3.4-6.1-7.8-10.6-9
		c-1.4-0.3-2.1-1.3-3.6-4.4c-1.3-2.9-2.1-3.9-2.7-3.8c-0.6,0.3-1.1-0.2-1.3-1.4c-0.4-1.8-1.7-2.6-5.4-3.4c-0.9-0.3-2.7-1.4-3.9-2.6
		C0.8,40.5,0,40.4,0,42.9C0,44.4,0.4,44.9,2.1,45.7z"/>
	<path fill="#00267F" d="M29.5,45.4c-0.4,0-0.1,0.9,0.7,2c2.2,3.2,6.3,7.4,7.3,7.4c0.4,0,1.7,0.4,2.7,1c2.5,1.3,3,0.7,1.3-1.6
		c-0.7-0.9-1.7-2.8-2.2-4c-0.6-1.2-1.6-2.6-2.4-2.9c-1.6-0.8-4.9-4.2-4.9-4.9c0-0.3-0.4-1-0.9-1.6c-0.8-1.1-0.9-1.1-1.3,0.1
		c-0.3,0.8-0.3,2.1,0,2.9C30,44.8,29.9,45.4,29.5,45.4z"/>
	<path fill="#F31830" d="M634.9,257.1c-1.6,1.3-3.1,1.6-7.9,1.9c-5.8,0.4-6.1,0.4-7.9-1.2c-1-0.9-2.9-3.6-4.2-5.9
		c-2.2-4.2-2.3-4.5-1.4-6.3c0.5-0.9,1.4-1.9,1.9-2.1c0.5-0.3,0.9-1.1,0.9-1.9c0-1.9-1.7-2.6-2.2-1c-0.6,1.8-6.3,5.6-8.4,5.6
		c-1.1,0-2.1,0.4-2.3,0.9c-0.5,1.3-2.7,1.2-6.2-0.3c-1.6-0.7-4.3-1.3-6-1.3c-3,0-3.1,0-3.1,1.9c0,1.3,0.9,3.4,2.6,5.8l2.6,3.8
		l-0.4,4.9c-0.4,5.7,0.7,8.8,3.8,10.6c2.6,1.5,4,3.3,3.6,4.5c-0.2,0.6-0.8,1-1.3,1c-0.8,0-3.3,3.5-4.2,5.9c-0.4,1.1-0.3,1.1,2.5,0.8
		c4.3-0.6,11.5-0.4,12.8,0.3c0.7,0.4,1.1,1.3,1.1,2.3s0.8,2.6,1.8,3.9c1.6,1.9,2.3,2.1,5.8,2.6c2.2,0.3,4.4,0.6,5,0.9
		c0.7,0.3,1.5-0.1,2.2-0.8c1.6-1.6,7.2-3.9,9.5-3.9c3.1,0,3.4-1.1,3-8c-0.2-3.4-0.1-7.7,0.3-9.8c0.5-2.7,0.9-5.5,1.1-7.9v-7.9
		C639,255.2,637.1,255.4,634.9,257.1z"/>
	<path fill="#F31830" d="M426.7,110.7v5C428.5,112.3,428.6,110.2,426.7,110.7z"/>
	<path fill="#F31830" d="M428.3,89.4c1.3-0.3,3-0.1,4.1,0.4c1.5,0.6,2.1,0.6,2.8,0c1.6-1.3,1.1-2.6-2.3-5.6
		c-1.8-1.6-3.9-4.2-4.7-5.9c-0.5-1-1-1.7-1.6-2.2V90C427,89.7,427.5,89.6,428.3,89.4z"/>
	<path fill="#F31830" d="M458,430.8c-1.4,0-1.6,0.6-0.5,2.8c0.4,0.9,1.2,1.6,1.8,1.6s1.3,0.3,1.5,0.6c0.7,1.1,3.5,0.7,4.8-0.8
		c1.8-2.1,1.4-2.5-1.3-2.1c-2.3,0.3-2.5,0.2-2.5-1.2c0-1.4,0.3-1.5,3-1.5c2.8,0,3-0.1,3.6-2.3c0.7-2.1,0.6-2.3-1.3-3.4
		c-2.4-1.5-3.2-1.5-4.7,0c-0.8,0.8-1.4,0.9-2.1,0.6c-0.6-0.3-1.4-0.2-2.1,0.3c-1.1,0.9-1.1,0.9-0.1,2.1
		C459.7,429.1,459.6,430.8,458,430.8z"/>
	<path fill="#F31830" d="M430.2,406.8c1.5-0.3,2.4-0.9,2.8-1.8c0.4-1.3,0.5-1.3,2.4,0.6c1.1,1.1,3.1,2.4,4.5,3.1
		c1.5,0.8,2.6,1.6,2.6,2.3s0.4,1.1,0.9,1.1s1.8,0.7,2.8,1.6c1.4,1.3,2.4,1.6,4.2,1.4c1.4-0.1,2.4,0.1,2.6,0.6
		c0.2,0.4-0.2,0.8-0.7,0.8c-1.5,0-2.6,2.6-1.7,4.2c1,1.9,10.7,2.9,10.7,1.1c0-1.3,2.1-1.2,4.1,0.1c0.8,0.6,1.8,0.9,1.9,0.6
		c0.8-0.7-1.5-3.8-2.9-4c-1.6-0.3-1.8-2.1-0.4-3.3c0.5-0.4,0.9-1.1,0.9-1.5c0-0.4,0.3-1.8,0.7-3.1c0.4-1.6,0.9-2.3,1.8-2.3
		c1.1,0,1.1,0.2,0.6,1.5c-0.6,1.1-0.4,1.9,0.6,4.1c1.5,2.9,2.8,2.9,1.9,0.1c-0.4-1.4-0.3-1.9,0.4-2.2c1.1-0.4,2.1,0.1,2.1,1.1
		c0,0.4,0.7,1.7,1.6,2.9c1.1,1.4,1.4,2.3,0.9,2.8c-0.3,0.3-0.6,0.9-0.6,1.1c0,0.8,2.8,0.6,3.6-0.3c0.6-0.6,0.8-0.6,0.8,0.2
		c0,0.5-0.6,1.3-1.3,1.7c-1.6,1-1.1,2,1.1,2c2,0,8.3-5.8,7.1-6.5c-0.4-0.3-0.7-0.9-0.7-1.5c0-0.8,0.2-0.8,0.8-0.3
		c1.2,1.2,3.1,0.9,2.9-0.4c-0.1-0.9,0.2-1,1.8-0.9c1.8,0.2,2.1,0,2.4-1.6c0.3-0.9,1.1-3.8,1.9-6.3c1.2-3.8,1.3-4.6,0.6-4.9
		c-1.4-0.5-1-1.9,0.5-2.2c2.5-0.4,1.9-2-1.5-3.9c-2.2-1.3-3.4-2.4-3.7-3.6c-0.3-0.9-1.3-2.4-2.4-3.4c-1.1-0.9-2.4-2.4-3-3.4
		c-0.9-1.5-1.4-1.8-2.8-1.5c-2.3,0.5-2.8-0.6-0.9-1.4c1.4-0.6,1.6-1.1,1.6-4.2c0-3.3-0.1-3.6-3.8-7.6c-4-4.4-9.8-8.4-12.3-8.4
		c-0.8,0-2.9-0.6-4.8-1.3c-1.8-0.7-4.6-1.3-6.3-1.3c-3,0-3,0-3-2.1c0-1.9-0.3-2.2-2-2.6c-2.1-0.4-4.9-0.5-8.6-0.2
		c-1.3,0.1-2.3-0.1-2.4-0.6c-0.2-0.4,0.3-0.8,1.3-0.8s1.6-0.4,1.6-0.9c0-0.6,0.6-0.9,1.9-0.9c2.9,0,2.3-1.5-1.9-4.3
		c-3.9-2.6-5.3-2.8-4.6-0.6c0.6,1.8-1.6,1.6-3.9-0.3c-0.9-0.8-2.3-1.6-3-1.8c-0.8-0.1-1.2-0.6-1.1-1.5c0.1-1-0.7-1.7-4.2-3.4
		c0,0-0.1,0-0.1-0.1V406C427.9,407,428.6,407.1,430.2,406.8z"/>
	<path fill="#F31830" d="M496.8,152.8c3.9,2.1,5.5,4.4,4.3,6.3c-0.6,1-0.4,1.6,0.9,3.5c0.9,1.3,2.2,2.8,2.9,3.3
		c0.8,0.5,2,2.3,2.9,3.9c0.8,1.6,3.4,4.9,5.8,7.3c2.3,2.3,5,5.3,5.9,6.4l1.6,2.1l6.9,0.2c3.8,0.1,7.8,0.5,9,0.8
		c1.2,0.4,4.3,0.6,6.8,0.6h4.5v3.1c0,4.1,1.8,5.9,6,6.6c3.6,0.4,5.3,1.8,6.8,5.9c1.2,2.9,5.4,7,7.3,7c0.7,0,2.1-0.4,3.1-1
		c1.1-0.6,2.6-0.9,3.4-0.7c1.6,0.3,6.3-1.9,7.7-3.7c0.6-0.6,0.7-2.5,0.4-6.7c-0.6-8.3,0-10.1,4.5-14.2c5.6-5.2,6.1-6.9,2.6-9
		c-1.1-0.6-1.9-1.3-1.9-1.7c0-0.3-1.1-0.6-2.5-0.6c-3.5,0-7.1-1.6-8.3-3.7c-0.8-1.3-1.1-3.3-1.1-6.9c0-8.4-2.5-11.8-9.3-12.4
		c-3.9-0.4-6.5-1.4-8.9-3.7c-1.1-1.1-2.7-1.7-4.8-1.9c-4.7-0.5-5.2-1.4-2.7-5c2.1-2.9,2.1-2.9,1.6-7.9c-0.3-2.8-0.4-8.9-0.3-13.5
		l0.1-8.4l2.8-3.1c3.9-4.4,3.8-7.9-0.3-7.9c-4,0-5-0.6-5.8-3.3c-0.9-3.2-4.6-5.6-10.6-6.9c-5.1-1.2-7.7-1.2-10.4,0
		c-1.6,0.7-2.2,1.4-2.9,3.8s-1.3,3.3-3.1,4.3c-1.9,1.1-2.5,1.1-3.4,0.4c-3.6-2.6-6.7-3.4-11-3.1c-3.7,0.3-4.6,0.6-7,2.7
		c-2.7,2.3-3.9,4.3-5.4,9.4c-1.4,4.7-1.2,4.8,8.5,4.3l8.4-0.5l1.3,1.6c1.1,1.4,1.8,1.6,4.3,1.6c2.2,0,3.1,0.3,3.4,1
		c0.3,0.8,0.9,0.9,2.1,0.7c0.9-0.2,2.4,0.1,3.3,0.6c1.4,0.9,1.7,1.5,1.9,4.8c0.2,2.1,0.1,3.9-0.3,4.1c-1.4,0.5-3,2.9-3,4.4
		c0,1.1-0.9,2.4-2.5,4.1c-1.4,1.3-2.8,3.3-3.1,4.3c-0.4,1.1-1.6,2.6-2.7,3.3c-1.1,0.8-2.9,2.1-3.9,3c-1.9,1.5-7.6,3.4-10.3,3.4
		c-0.8,0-2.1-0.6-3.1-1.3c-1.4-0.9-2.6-1.2-5.1-1.1c-3.3,0.2-3.3,0.2-3.5,2.4C490.5,148.8,491.8,150.2,496.8,152.8z"/>
</g>
</svg>
