<?xml version="1.0" encoding="utf-8"?>
<!-- Generator: Adobe Illustrator 17.1.0, SVG Export Plug-In . SVG Version: 6.00 Build 0)  -->
<!DOCTYPE svg PUBLIC "-//W3C//DTD SVG 1.1//EN" "http://www.w3.org/Graphics/SVG/1.1/DTD/svg11.dtd">
<svg version="1.1" id="flag-icon-css-ne" xmlns="http://www.w3.org/2000/svg" xmlns:xlink="http://www.w3.org/1999/xlink" x="0px"
	 y="0px" viewBox="0 0 640 480" enable-background="new 0 0 640 480" xml:space="preserve">
<g>
	<path fill="#0DB02B" d="M141.3,325.8l-0.6,1.9l-11.4-0.5c-9.8-0.5-11.6-0.4-13.2,0.4c-1.5,0.7-8.5,1.3-33.3,2.6
		c-17.2,0.9-32.2,1.7-33.3,1.9c-1.5,0.2-2.5,1-4.3,3.6l-2.3,3.4h-6.4c-5.1,0-7.7,0.4-12.9,1.8l-6.5,1.8l-2.4-1.8l-2.4-1.8l-2.1,1.6
		L8,342.2l-0.1,6.2c-0.4,16.6-0.4,16.8,2.9,18.3c2.4,1.1,2.4,1.2,2.8,5.2c0.3,3.3,0.9,5,2.8,8.4c2.3,3.9,2.9,4.6,9.6,9
		c4,2.6,8.3,5.2,9.7,5.7c1.8,0.7,3.6,2.1,6,4.9c1.8,2.2,3.4,4.3,3.4,4.6c0,0.3-0.4,1.2-0.9,1.8c-0.9,1.2-0.9,1.2-3.3-0.2
		c-1.3-0.7-2.6-1.3-2.8-1.3s-0.2,3.1-0.2,6.8l0.2,6.9l5.5,3c3.5,1.9,7.2,4.7,10.1,7.4l4.5,4.3l5.7,0.9l5.8,0.9l3.9-1.7
		c2.1-1,4.1-1.6,4.4-1.6c0.3,0.1,2.1,2.1,4.1,4.4l3.7,4.3l-4,4.1c-3,3-3.9,4.3-3.4,4.9c0.3,0.4,3.4,4.3,6.8,8.6l6.3,7.9l1.2-2
		c1.2-1.9,1.2-2.4,0.5-6.2c-0.4-2.3-0.6-4.3-0.5-4.3c0.1-0.1,2.8-1.6,6-3.4l5.7-3.2l5.2,5.2c2.9,2.8,6.6,5.9,8.2,6.9
		c2.3,1.4,3.5,2.7,5.4,6.1c1.3,2.4,2.8,4.5,3.3,4.8c0.5,0.2,2.9,1.9,5.4,3.8l4.6,3.4l2-1.4c1.1-0.7,2.1-1.4,2.2-1.5
		c0.1-0.1-0.4-2.3-1-4.9c-1.1-4.3-1.2-4.9-0.2-6.5c0.6-1.3,0.8-2.7,0.5-4.6c-0.2-1.5,0.1-5.5,0.6-8.8l1-6.2l5.2-4
		c5-3.8,5.6-4.5,10.4-12.4l5-8.3v-6.2v-6.3l4.4-3.7c2.4-1.9,4.9-4,5.5-4.4c0.6-0.4,5-1.9,9.7-3.2l8.5-2.4l2,1.3
		c1.9,1.2,2.4,1.2,8.5,0.5c5.8-0.6,6.7-0.9,9.3-2.7c6-4.3,14.7-3,26.1,3.7c5.6,3.3,5.8,3.4,10.4,3.4l4.7,0.1l5.6,5
		c4.5,4,6.7,6.6,10.8,12.7c4.4,6.6,5.4,7.7,7.1,8.1c3,0.6,3.2,0.5,7.1-2.4c3.4-2.6,3.8-2.7,7.7-2.7c3.7,0,5-0.4,12.2-3.6l8.1-3.6
		l6.9,1.3l7,1.2l3.4,3.7c2.9,3.1,5.1,4.6,12.5,8.6l9.1,4.9l14.8,1.2l14.9,1.2l4.6-5c2.6-2.9,7.2-6.9,10.8-9.5l6.2-4.5l4.7,0.6
		c4.3,0.5,5.1,0.4,10.7-1.3c9-2.7,17-3.8,23.6-3.1c10.5,1.1,20.8,3.5,28.1,6.7l6.8,3h8.8h8.8l10.9-8.2c7.4-5.6,11.4-8.2,12.5-8.2
		c3.9,0,5.2-0.7,6.9-3.5c1.2-2,1.6-3.3,1.3-4.5c-0.4-1.9-2.9-5.9-6.6-10.4l-2.4-2.9l0.8-3.6l0.8-3.7h2.7c2.1,0,3.3-0.4,5.7-2.3
		c3-2.2,3.4-2.2,4.3-0.1c0.1,0.2,1.2,0.5,2.3,0.6l2.1,0.2l-0.2-3.7l-0.2-3.7l2.7-0.7c2.6-0.7,2.8-1,3.5-3.7c0.5-1.8,1.7-3.8,3.4-5.5
		c2.5-2.6,2.6-3,3-7.5l0.4-4.8l21.1-24.3H147.5C143.3,323,141.7,324.5,141.3,325.8z"/>
	<path fill="#FFFFFF" d="M236.1,163c-1.1,0.6-13.6,3.2-30.5,6.3c-15.7,2.9-28.7,5.3-28.8,5.4c-0.1,0.1-3.1,64.9-4.1,89.9
		c-0.5,12.5-1.1,25.3-1.3,28.4l-0.4,5.5l-4.9,2.4l-4.9,2.4l-3.3,5.8c-3.2,5.7-3.5,6-9.7,10.4c-0.3,0.2-0.5,0.4-0.8,0.6h418.8
		l12.6-14.6l33.6-38.9l0.4-14.3c0.8-26.4,4.1-64,7.4-84.2c0.4-2.6,0.8-5.4,1.2-8.1H240C237.7,161.8,236.3,162.9,236.1,163z M320,172
		c37.6,0,68,30.4,68,68s-30.4,68-68,68s-68-30.4-68-68S282.4,172,320,172z"/>
	<path fill="#E05206" d="M624,123.9c-4.6-1.9-7.5-4.2-9.2-7.1c-1-1.8-2.2-2.8-3.6-3.3c-1.7-0.5-2.1-1-2.4-3
		c-0.4-2.1-0.2-2.8,1.7-5.3c3.5-4.8,3.5-4.6-2.6-12.8c-3-4.1-5.7-8-6.2-8.7c-0.4-0.7-0.9-6.6-1.2-13.3c-0.7-14-1.2-18.4-3.4-28.7
		c-0.9-4.2-1.9-10.3-2.3-13.6l-0.7-6L579.4,29l-14.7,6.8l-14-9.9c-7.7-5.4-14.6-10.1-15.4-10.4c-1.2-0.5-53.9-14-54.7-14
		c-0.2,0-38.8,23-85.8,51l-85.4,51l-35.7,29.2C259.3,144.6,246.3,155,240,160h381.5c0.6-4.6,1.1-8.9,1.3-11
		c0.4-6.2,0.5-6.5,3.4-11.6c1.7-2.9,3.4-5.7,3.9-6.2c0.5-0.5,0.9-1.6,0.9-2.4C631,127.1,629.8,126.3,624,123.9z"/>
	<circle fill="#E05206" cx="320" cy="240" r="68"/>
</g>
</svg>
