<?xml version="1.0" encoding="utf-8"?>
<!-- Generator: Adobe Illustrator 17.1.0, SVG Export Plug-In . SVG Version: 6.00 Build 0)  -->
<!DOCTYPE svg PUBLIC "-//W3C//DTD SVG 1.1//EN" "http://www.w3.org/Graphics/SVG/1.1/DTD/svg11.dtd">
<svg version="1.1" id="flag-icon-css-nf" xmlns="http://www.w3.org/2000/svg" xmlns:xlink="http://www.w3.org/1999/xlink" x="0px"
	 y="0px" viewBox="0 0 640 480" enable-background="new 0 0 640 480" xml:space="preserve">
<g>
	<path fill="#FFFFFF" d="M440.4,180c-3.3,0.3-5.1,0.1-10.3-1.1c-3.4-0.8-7.1-1.8-8.2-2.3c-2.7-1.4-6.4-4.7-9.1-8.3l-2.4-3.2
		l-4.5-1.1c-2.5-0.6-5-1.1-5.5-1.1c-0.6,0-1.5-0.3-2-0.7c-0.6-0.3-2.1-1.2-3.3-1.8c-3.7-2-6.5-4.7-7.9-7.3c-1.7-3.4-4.8-7.9-6.4-9.4
		c-0.7-0.7-1.6-2.2-1.9-3.3c-0.4-1.3-1.2-2.6-2.4-3.7c-1.1-0.9-2.6-3-3.6-4.8c-0.9-1.8-2.3-4.1-3.1-5.2c-1-1.4-1.6-3-1.8-4.7
		c-0.3-2.4-0.2-2.8,0.8-3.4c0.7-0.5,1.1-1.3,1.1-2.3c0-1.2-0.2-1.5-1.3-1.5c-1.5,0-1.3-0.9,0.6-3.2c0.7-0.8,1.2-1.7,1.2-2
		c0-1-3-2.4-4.3-2.1c-0.9,0.2-2.2-0.4-4.8-2c-2-1.3-3.6-2.6-3.8-2.9c-0.1-0.4,0.1-1.3,0.5-2.1c0.4-0.8,0.6-1.9,0.4-2.4
		c-0.3-0.9-0.8-1-4.6-0.9c-5.9,0.2-6.4-0.5-3-3.6c1.9-1.8,2.5-2.7,2.3-3.5c-0.3-1.5-1.3-1.4-5.1,0.5l-3.2,1.7l0.2,3.1l0.2,3.1
		l-1.8,0.3c-2.3,0.3-3.4-0.3-2.3-1.1c1.1-0.9,1-3,0-3.4c-0.5-0.2-1.5,0.1-2.2,0.6c-2,1.2-2.6,1.1-4.7-1.1l-1.9-2l2.1-1.4
		c2.2-1.6,2.3-1.6,1.3-2.9c-0.6-0.8-0.9-0.8-3.1-0.3c-2.2,0.6-2.5,0.6-3-0.4c-0.3-0.5-1.1-1.4-1.6-2c-0.9-0.8-1-1.1-0.5-1.6
		c0.6-0.4,0.6-1-0.2-3.1c-0.7-2.2-1.2-2.8-2.8-3.5c-1.5-0.7-2.2-1.5-3.2-3.5c-1.4-2.8-2.1-3.4-2.1-1.7c0,0.6-0.1,1-0.3,1
		c-0.9,0-2.9-1.9-3.5-3.3c-0.8-1.9-2-2.3-2.5-0.7c-0.4,1.3-3.8,3-5.7,3c-0.8,0-2-0.5-2.7-1c-0.7-0.6-1.6-1-1.9-1
		c-0.5,0-0.6-0.5-0.3-1.5c0.3-1.3,0.1-1.5-0.7-1.5c-0.6,0-1.9,0.6-2.9,1.3c-1.9,1.3-1.9,1.3-3,0.3c-1.3-1.2-3.6-1.9-4.1-1.1
		c-0.2,0.4-1,0-2.1-1c-2.1-1.8-2.3-1.8-3.5-0.5c-0.9,1-0.9,1-3.1-1c-2.3-2.1-3.1-2.3-6.4-1.6c-1.8,0.4-1.9,0.4-3.7-1.9
		c-1.9-2.5-8.2-7-10.4-7.5c-1.8-0.4-6.3-5.6-8.6-9.8c-2.1-4-3.9-4.9-6.9-3.4c-2.2,1.1-2.2,1.1-2.2-0.2c0-1.3-1.5-1.9-2.1-1
		c-0.5,0.7-0.3,2.9,0.4,5.3c0.2,0.8-0.2,1.3-1.3,1.9c-2,1.2-11.6,1.2-14.8,0.1c-1.6-0.6-4.4-0.8-11-0.8c-8,0-9-0.1-10.9-1.1
		c-2.2-1.1-3.9-2.8-4-3.9c0-0.9-1.7-0.8-3.1,0.3c-0.8,0.6-2,1.2-3.2,1.6v390.9c1.4,1.2,2.2,2.5,2.2,3.4c0,0.7,0.5,1.9,1,2.8
		c0.9,1.4,1,2.3,0.8,6.9c-0.3,6.5,0.3,8.4,2.8,10.2c1.1,0.8,2,1.7,2,2.1c0,1-1.4,2-2.3,1.6c-1-0.4-2.2,0.5-2.8,2.2
		c-0.4,1-0.2,1.7,1.2,3.9c1.3,2.2,1.8,2.7,2.7,2.4c0.6-0.2,1.1-0.6,1.2-0.8c0.5-1.2,1.1,0.4,1.1,2.6c0,2.6,1.2,4.5,2.8,4.5
		c0.4,0,0.8,0.5,0.8,1.1c0,2.1,0.9,3,2.7,2.6c0.9-0.2,1.8-0.6,2-1c0.2-0.4,0.9-0.7,1.4-0.7c1.2,0,1.4-2.1,0.3-3
		c-0.9-0.7-1-3.1-0.2-4.6c0.4-0.8,0.9-1,1.9-0.7c1.1,0.3,1.8-0.1,3.8-1.8c2.6-2.2,3.9-2.3,3.9-0.3c0,1.2,0.8,1.8,2.3,1.8
		c0.4,0,0.7-0.5,0.7-1.1c0-1,0.2-1.1,2.7-0.8c1.4,0.2,3.8,0.3,5.3,0.4c2.6,0.1,2.7,0.1,4.4-2.2c2.5-3.3,3.8-4,7.4-4
		c3.9,0,5.3-0.7,4.6-2c-0.5-0.8-0.3-1.1,0.9-1.7l1.4-0.7l-2.4-1.2c-1.4-0.7-2.5-1.6-2.6-2.2c-0.4-1.4-0.4-6.2,0.1-8.6
		c0.3-1.9,0.4-1.9,2.1-1.6c1,0.2,2.1,0.7,2.4,1.2c2,3,1.7,2.9,5,1.7c1.7-0.6,3.8-1.1,4.8-1.1c1,0,3.6-0.5,5.8-1
		c3.3-0.9,4.3-1.3,5.4-2.8c0.8-0.9,1.9-1.9,2.4-2c0.9-0.3,1-0.8,1-3.9c0-4.1,0.3-4.2,4.4-2.5c3.6,1.4,4.8,1.5,6.5,0.1l1.5-1.2
		l0.3,2.5c0.2,1.3,0.5,2.7,0.7,3.1c0.7,1,1.4,0.2,1.4-1.4c0-0.8,0.2-1.6,0.5-1.8c0.3-0.2,0.5,0.1,0.5,0.5c0,1.1,0.6,1,2.2-0.2
		c1.7-1.4,3.1-1.4,2.4-0.1c-0.7,1.4-0.8,1.4,1.9,2.7c2.1,1,3.2,1.2,10.6,1.3c5.5,0.1,8.6,0.3,9,0.7c1,0.8,0.9,2.3-0.2,2.9
		c-1.3,0.8-0.4,2,1.7,2.3c1.1,0.2,5.2,0.6,9.3,0.9c4.1,0.4,7.9,0.9,8.6,1.3s2.8,0.9,4.6,1.2c4.2,0.8,10.6,3.8,14.1,6.6
		c1.5,1.2,3.1,2.5,3.6,2.9c1.1,0.8,3.5,0.3,3.5-0.7c0-0.9,1.9-1.9,2.9-1.5c0.5,0.2,2.6,1.3,4.7,2.6c3.5,2.1,4,2.6,5,5
		c1.1,2.6,1.1,2.8,0.3,4c-0.8,1.2-1.2,1.3-3.8,1.3c-2.9,0-3,0.1-4.8,2.2c-2.2,2.6-2.3,3.2-0.4,3.6c0.8,0.2,2.4,0.6,3.6,0.9
		c1.3,0.3,4.4,0.7,6.9,0.7c3,0.1,5.2,0.4,6.2,0.9c0.8,0.5,1.8,0.8,2.1,0.8c0.9,0,7.1-6.4,7.1-7.3c0-0.5,0.6-0.9,1.4-1.1
		c0.8-0.2,1.9-0.8,2.5-1.3c0.6-0.6,2-1.1,3.1-1.3c1.9-0.3,2.1-0.5,2.1-1.7c0-1.6,1.3-4.9,2.4-6.2c0.6-0.7,0.7-1.3,0.3-2.8
		c-0.5-1.9,0-4.2,1-4.2c0.2,0,0.4-1,0.4-2.1c0-1.6,0.5-3,2.1-5.6c1.1-1.9,2.5-3.6,2.9-3.8c1.4-0.6,4.6-3.5,4.6-4.3
		c0-0.6,0.9-0.7,4-0.5l4,0.2l4.1-2.8l4.1-2.8h5.1c2.3,0,4.4,0.2,6.5,0.5V179.4C443.8,179.6,442.2,179.9,440.4,180z M361.8,327.2
		c9,1.1,25.3-0.6,27,3.5c4.5-2.2,9.9-2,14.2,0.6c2.6-1.9,19.5-2.6,13.6,3.3c-2.9,2-53.1-1.9-50.5,0.7c0,0,20,2.2,24.4,5.5
		c4.8-4,13.1,0,15.1,0c2.2-0.3,10.5-6.2,12.9,0.2c-9.2,11.4-51.5-0.7-53.7-0.4c-2.2,0.2-0.9,4.3-3.3,5.2c-7.4-0.6-5.7,4-7.2,4.6
		c-1.5,0.7-15.4-3.5-15.4-3.5s-3.5-0.8-7.2,5.2c-3.7,6.2,3.1,52,3.1,52l-21.3-0.2v-52.6l0,0H312l-6.2,2.6c-0.2,0-0.4-7.9-6.8-2.2
		c-6.3,5.7-10.8-2.4-10.8-2.4s-16,7.2-42,6.4c-26.6-4.2-13.6-14.5,7.4-6.6c-6.7-9.4,2-8,15-5.4c11.3-13.8,22.1,2.1,23.2-1.7
		c1-3.6-4.4-5.6-16-7c-11.6-1.2-24.5,10.3-45.6,1c-21.1-9.3-1.3-15.2,2.8-14.8c4.2,0.5,16.5,7,16.9,7c0.5,0-1.3-4.8-1.5-5
		c-0.3-0.2,8.4,1.6-10.3-8.5c-18.7-10.1,6.1-3.8,5.7-4c-0.5-0.2-1-7.5,18,4c-0.7-3.8,14-4.8,14-4.8s-33.6-6.6-35.3-11.2
		c-1.8-4.6,10.7,1.3,15.6,3.2c-1.4-6.7,13.5,3.6,11.8,2c-1.8-1.5,0.4-4.8,0.4-4.8s22.8,7.2,21.5,2.6c-1.3-4.6-40.1-8.3-40.1-8.3
		s-2.4-2-2.6-5.5c-0.3-3.5,18.4,4,19.6,1.3c1.4-2.6,16.5,4,13,0c-3.5-3.9-41.8-6.1-33.3-10.3c8.6-4.2,25.4,3.8,25.4,3.8
		s-1.5-6-1.3-6c6.7,1,12.7,7,12.7,7l1.8-5c15.1,4.5,32.5,14.9,31.1,9.9c-2-9.5-70.4-18-66-21.5c4.4-3.5,20-0.7,20-0.7l13.1,4.9
		c0,0,4.2-0.9-1.1-6.6c-5.2-5.7-37.4-2.6-30.7-7.5c12.1-7.7,18.2,0,18.2,0l0.9-3.5c7.4,0.4,11.9,2.9,16.9,6.6c0.5-0.9,0.3-2.1,0.8-3
		c5.6,1.1,9.9,3.6,14.6,6.3c0,0,0.4-4.6,0.8-4.9c2,0.4,19.6,13.4,12.3,4c-7.2-9.4-37.9-10.6-49.1-12.3c-11.2-1.7-9.9-9.3,5.7-5.2
		c-10.5-6-17.1-4-14-10.3c-5.7-2.4-5.5-6.4-5.5-6.4c5.5-4,11.4-2.9,16.2,1.1l-1.1-5.7c0-0.4,15.5,7.7,10.3,4.4
		c-5.2-3.3-4.1-4.4-2.8-7.7c-3.8-0.4-18.6-3-16-6.4c14-8.1,22.5,5.1,25,4.2c2.4-0.9,0-4.2,0-4.2s43.2,20.2,32.2,11s-52-17.8-52-19.5
		c0-1.8,9.7-2.4,9.4-4.4c-0.1-2-7.8-3.6-8.1-4.6c-0.2-1.1,16-5.7,21.7-2.9c5.8,2.9,31.2,13.2,27.9,7.9c-3.3-5.2-35.7-12-35.7-12
		s-3.4-2-1.2-5.3c-19.5-0.4-1-7.2-1-7.2s45.8,16.9,39,10.3c-6.8-6.6-37.5-14-37.5-14s2.9-3.6,0.7-2.7c-2.2,0.9-4.4-3.5-4.4-3.5
		s3.7-3.5,7-5c3.2-1.5,25.2,1.5,25.2,1.5s15.8,5.3,10.5,0.4c-5.2-4.8-37.5-2.3-29.1-6.3c8.3-4,30.4,2.8,29.4,0.6
		c-1.1-2.2-17.4-5.2-24.4-5c-7,0.2-11.1-5-11.8-6.3c0.1-2.5,25.9,2.8,33.5,1c-5.7-3.7-21.4-3.1-21.5-4.1c0.1-4.2,15.3-1.8,22.2,1.5
		c3.6-0.2,3.8-2.2,1.7-4.6c-7.1-2.4-24-0.7-22.3-3.7c-0.6-2.6,15.6-0.6,23.4-0.9c-1.5-2.8-23-5.9-23.4-7c0.7-4.2,21.2,2.5,21.2,0.8
		c-8.4-7.3-21.2-8.3-17.2-10.3c7.4-2.8,19,7.3,19,7.3s0.4-1.6,0-4.4c-0.5-2.9-7.5-7.9-7.5-7.9s8.4-0.4,7.9-2.2
		c-0.4-1.7-6.1-6.5-6.1-6.5s7,0.8,6.2-2c-1-2.9-6-5.8-6-5.8l7.2-1l2-21.5l2.2,23c0,0,5.5,0.2,5,2.2c-0.4,2-4.6,2.4-4.6,2.4v4.4
		c0,0,5.7-2,6.2-0.9c0.4,1.1-4.8,5.1-4.8,5.1s-0.5,5,0,5c1.8,0.4,3.6,1.1,5.2,2c0.2,0.4-6.1,3.3-6.1,3.3s-1.5,4.6,1.5,4.6
		c3.1,0,19.3-7.3,18.4,0c-0.3,0.3-23.2,2.1-19.3,4.8c5.1-0.2,19.9-2.2,20.2,0.6c0.2,2.5-23.6,1.2-21.3,4.4c0,0,5.5,0.7,9.3-0.2
		c3.6-0.9,12.8-3,13.6,1c1,4.4-13.2,2.7-19.6,3.4c-2.7,1.6-3,4.4,1.3,5c0.3,0,25.2-6,20.4,0c-2.3,1.2-22.9,2.4-24.3,6.7
		c5.3,0.3,16.5-2.7,26.1-1c0.2,4.1,0,8.8,0.2,12.8c-7.5,0.3-14.6-0.1-22.1,0.2c-3.6,1.3-3.3,3.5-0.3,4.8c7.4,0,20-4,22.2,0
		c-1.3,2.2-21.6,2.8-19.5,5.5c5.3-0.2,9-3.5,20.6-1.8c11.6,1.8-2.4,6-2.4,6s-12.5-3.6-20.4-0.9c-7.9,2.6,0.6,5.7,0.6,5.7
		s8.2-4.6,21.3-3.3c13.2,1.3,17.3,11.8,13.6,10.5s-28.5,3.6-35.5,5.4c-7,1.8,0.2,4,0.4,4l27.4-4.1l15.2-2c13.6-1.8,4,5.9,4,5.9
		l1,4.6l-16.4,6.2c0,0,5,3.3,14.7,3.3c9.6,0,15,7.4,5,7.1c-10.1-0.1-20.8,4-20.8,4s13.4,1.6,23.6,1.4c10.4-0.3,4,6.3,4,6.3
		s4.6,2.4,3.1,5.3c-1.6,2.8-10.1-5.3-13,2.4c-2.8,7.7-8.6,7.2-13.6,7.8c-5,0.7-4.8,5,2.5,4c7.2-0.8,19.6-12.1,20.6-1.5
		c0,0,12.3-12.7,11.6-4.6c-9.9,13.4-30.7,14.2-30.9,14.5c-0.3,0.2-7.9,7.6-3.3,7.6c3.4-1.6,28.9-12.5,32.2-3.2
		c-1.6,3.6-15.2,3.7-15.2,3.7c-1.9,1.5-9.1,1.9-13.9,3.1c0,0-5.5,2.1-2,4.1c0,0.2,18.2-6.5,18.2,0c0.2,0,19.7-4.2,19.3,4.8
		c-0.3,1.2-23.7,3.3-23.7,3.3s-18.1,1.6-1.6,3.3c2.9-0.2,7.3,0.2,14.7-0.4c21.5-5.4,5.7,2.6,2.7,3.1c-3.1,0.4-18.4,1.5-18.4,1.5
		s-12.6,7.7-12.6,8.3c4.6,0.1,9.1-0.5,13.4-2c4.6-1.5,9.5-5.8,14.6-1.8c8.2-6.1,24.1-5.2,8.4,3.2c-3.2,0.8-9.1,2.6-19.5,2.8
		c0,0-26.8,4.4-22.5,7c4.3-1.1,17.2-3.7,22.8-0.6c4.1-1.3,13.1-5.3,17.1-1.3c11.9-3.2,15.7,0.2,13.3,3.5c-2.4,3.3-15.3,4.7-22.5,3.7
		c-7.2-1.1-9.9,5.9-4.2,6.5c5.7,0.7,14.2-6,18.4,1c7.1-5.8,18.7-3.2,13.6,3.5c-19,0.8-37.8-1.7-56.8-2.5
		C359.3,324.5,358.8,325.5,361.8,327.2z"/>
	<path fill="#198200" d="M571.5,235.7l2.5-2.3c1.4-1.3,4-3.2,5.9-4.3l3.4-2l-0.2-4.2c-0.1-3.5-0.3-4.4-1.2-5c-0.9-0.7-1-0.7-1.2,0.3
		c-0.2,1-0.5,1.1-4,1.1c-2.9,0-3.9-0.2-4.1-0.8c-0.2-0.4-0.6-0.8-1-0.8c-0.9,0-0.9-0.8-0.2-3c0.3-0.9,0.4-2.2,0.3-2.9
		c-0.3-1.2-0.5-1.3-3.2-1.1l-2.9,0.2l-0.2,2.1c-0.2,2.2-0.6,2.5-2.3,1.9c-0.5-0.2-0.8-0.9-0.8-1.8c0-0.9-0.4-1.6-1-2
		c-0.8-0.5-0.9-0.7-0.4-1.5c0.8-1.4,0.2-2.8-1-2.1c-0.5,0.3-2.9,1-5.3,1.6c-4,1-4.5,1-5.9,0.3c-0.9-0.5-2.1-1.8-2.9-3.1
		c-1-1.7-1.6-2.3-2.5-2.3c-0.7,0-3.2-1-5.7-2.2c-2.4-1.2-6.2-2.8-8.3-3.6c-3.9-1.4-6.4-3.4-9-7.1c-1.1-1.6-4.7-3.2-6.9-3.2
		c-1.4,0-2.1-0.3-2.6-1c-0.5-0.8-0.9-0.9-1.5-0.6c-1.4,0.8-7.7,0.7-9.5-0.2c-1.5-0.6-2-0.6-3.5,0.1c-2.9,1.2-5.9,0.9-10-1
		c-2-0.9-4.9-1.8-6.2-2c-1.4-0.2-2.9-0.8-3.4-1.2c-0.6-0.5-1.9-0.9-3.3-0.9c-2.6-0.1-3.9-0.3-8.7-1.7c-7.6-2.2-13-2.7-15-1.4
		c-1,0.6-2.5,1.2-4.5,1.6v250.2c3.5,0.6,7,1.8,11.2,3.8c4.2,2,5.1,2.2,8.4,2.2c2.8,0,4-0.3,5.2-1c0.9-0.6,2.1-1,2.8-1
		c0.8,0,1.6-0.4,2-0.8c0.9-1.1,2-1,3.4,0.4l1.2,1.2l1.2-1.5c1.4-1.7,3.6-2.2,12.4-2.7c5.7-0.3,8.8,0.5,9.4,2.4
		c0.4,1.1,1.2,1.3,1.6,0.3c0.2-0.4,0.7-0.6,1.3-0.5c1.4,0.4,1.3-1.7-0.1-2.4c-1-0.6-1-0.7-0.3-1.5c0.5-0.5,0.8-1.3,0.8-1.7
		c0-1.1,1.9-2.3,4.2-2.7c1-0.2,2.4-0.9,3-1.5c0.6-0.7,1.6-1.2,2.1-1.2c1.2,0,4,3.9,4,5.7c0,1.6,0.2,1.7,1.6,0.9
		c0.8-0.4,5.5-7,5.5-7.8c0-0.1-0.8-0.7-1.8-1.3c-2-1.2-2.2-2-0.9-3.2c0.6-0.6,1.1-0.7,1.6-0.4c1.2,0.8,1.5,0.6,1.5-0.8
		c0-0.9,0.5-1.5,1.6-2c1.8-0.9,1.8-2.4,0.1-2.7c-1.7-0.3-2.5-1.6-3.1-4.9c-0.6-3.2-1.3-4.1-4-4.8c-1-0.3-2.8-1.5-4.2-2.8
		c-1.4-1.3-2.8-2.3-3.3-2.3c-1.2,0-6.3-5-7.4-7.2c-0.7-1.4-1.3-1.9-2.2-1.9c-0.7,0-1.7-0.5-2.4-1c-1.1-0.9-1.2-1.3-1.2-5
		c0.1-5.5,1.2-9.1,4-13.3c4.4-6.6,9.2-9.1,17.8-9.1c6,0,9.4,0.9,14.8,3.9l3.2,1.8l6.3-0.4c4.4-0.3,6.5-0.2,6.9,0.2
		c0.5,0.4,1,0.2,2.1-1c0.8-0.9,1.8-1.5,2.2-1.5c2.1,0,5-1.5,7.7-3.9c1.7-1.5,3.4-2.7,4-2.7c0.6,0,1.7-0.8,2.7-1.8
		c1-1,2.2-1.8,2.8-1.8c1.6,0,1.9-0.8,0.7-1.9c-1.2-1.2-3.5-1.8-4.2-1.1c-0.3,0.3-0.7,0.5-0.9,0.5c-0.6,0-1.5-4-1.2-5
		c0.4-1.3,3.6-1.8,5.2-0.8c1.5,1,1.7,1,1.7-0.2c0-0.5,0.6-1.3,1.3-1.6c1.1-0.6,1.2-0.9,1-2.5c-0.4-2.4-1.5-3.2-3.9-2.9
		c-1.5,0.2-2,0.1-2.4-0.7c-0.9-1.7-0.6-4.8,0.5-5.8c1.1-1,1.3-3.2,0.6-4.8c-0.8-1.4,0.1-2.3,1.3-1.5c0.6,0.4,1.4,0.5,1.8,0.3
		c0.7-0.3,0.7-0.6-0.1-3.4c-0.8-3.1-0.8-3.2,0.6-5.7c1.2-2.3,2.7-10.3,2.1-10.9c-0.1-0.1-0.9-0.2-1.7-0.2c-1.7,0-2.1-1.1-0.5-1.5
		c1.4-0.4,1.3-2.3-0.1-2.5c-1.1-0.2-1.2-0.5-1.3-3.8c-0.1-3,0-3.7,0.9-4.5c0.8-0.7,1.2-0.8,2-0.4c0.6,0.3,1.1,0.6,1.3,0.6
		c0.6,0,0.3-1.4-0.5-2c-1.2-1-0.9-2.5,0.6-3.1c2.2-0.8,3.2-2,3.2-3.6c0-1.2-0.3-1.6-1.5-2.1c-1.1-0.4-1.5-0.9-1.5-1.7
		c0-0.7-0.4-1.2-1-1.4c-0.8-0.3-1-0.8-1-2.4c0-1.2-0.4-2.7-0.7-3.5c-0.4-0.8-0.6-1.5-0.4-1.7c0.3-0.1,0.6-0.8,0.7-1.5
		c0.2-1-0.1-1.4-1.2-1.8c-1.7-0.7-2.1-1.9-1.7-4.3c0.3-1.3,0.2-1.8-0.5-2.2c-0.9-0.5-0.9-2.2,0.1-7.4c0.3-1.6,0.2-1.9-0.7-1.9
		c-0.6,0-1.4-0.4-1.8-0.9c-0.8-0.8-0.8-1.7-0.4-6.9L571.5,235.7z"/>
	<path fill="#198200" d="M192,42.8c-0.7,0-2.3,0.4-3.6,0.8c-3.3,1.2-11.3,1.2-13.9,0c-1.1-0.5-3.9-1-6.1-1.2l-4.1-0.3l-1.8-2.3
		c-1-1.3-2.8-3-4-3.9c-2.1-1.5-2.3-1.5-8.3-1.5c-5.8-0.1-6.3-0.1-9.2-1.6l-3-1.6l-0.2-2.9c-0.1-1.7,0.3-4.8,0.9-7.5
		c1.5-6.2,1.4-6.3-1.2-7.9c-1.5-0.9-2.2-1.7-2.3-2.4c0-0.6-0.6-1.9-1.4-2.8c-0.8-1-2.1-3-2.9-4.6c-1.7-3.3-3.3-3.9-6-2.2
		c-1.4,0.9-1.8,0.9-2.9,0.3c-1.1-0.7-1.7-0.7-4.1,0.1c-1.6,0.4-3.2,1.1-3.6,1.4c-0.5,0.5-1.4,0.6-2.3,0.4c-1.1-0.2-2-0.1-3,0.6
		c-1.2,0.7-1.8,0.8-2.7,0.4c-1.5-0.7-4.8-1.5-8.9-2.3c-2.5-0.5-3.4-0.5-4.4,0.1l-1.3,0.7l3.5,3.4c2,1.8,3.9,3.4,4.3,3.5
		c0.9,0.2,0.9,0.6-0.1,2c-0.7,1-0.7,1.3,0.5,3c0.7,1.1,1.2,2.3,1,2.7c-0.2,0.5-0.6,2.1-0.9,3.6s-1.3,3.8-2.1,5
		c-1.5,2.2-2.9,6.3-2.9,8.7c0,1-0.9,2.2-3.3,4.5c-3.5,3.2-4.3,5.3-2.3,5.8c1.5,0.4,1.8,2.7,0.9,7.2c-0.6,2.9-0.7,5.5-0.5,9.1
		c0.3,4.6,0.2,5.5-1.1,9c-0.7,2.1-1.3,4.4-1.3,5.1c0,2.3-1.6,9.2-2.5,10.4c-0.5,0.6-1.7,1.6-2.7,2.2c-1.8,1-2,1-2.8,0.3
		c-1.3-1.2-4-1-5.8,0.5c-1.1,0.8-2.3,1.3-3.6,1.3c-1.5,0-2.3,0.4-3.9,2c-2.4,2.4-2.7,4.6-0.7,4.6c0.8,0,1.7-0.5,2.3-1.3
		c1.4-1.8,2.6-1.6,3.6,0.6c1.7,3.8,1.8,3.9,6.1,3.1c3.4-0.6,3.9-0.6,5.1,0.4c1,0.7,1.3,1.4,1.4,2.8c0,1,0.3,2,0.6,2.2
		c1.1,0.7,5.7,0.2,8.5-1.1c1.5-0.7,3.3-1.4,4.1-1.5c1.1-0.3,1.1-0.2-0.4,0.8c-1.1,0.8-1.7,1.5-1.7,2.3c0,1.7,0.8,1.5,3.3-0.6
		c1.2-1,2.6-1.8,3.2-1.8c0.7,0,1.3-0.5,1.7-1.3c0.6-1.2,2.7-2.3,4.6-2.3c0.8,0,0.9,0.3,0.7,1.3c-0.4,1.4-0.2,1.5,2.1,0.8
		c2.9-0.8,3.1-0.2,4,13.5c0.9,13.6,1,12.9-2.3,17.6c-1.8,2.4-3.6,7.1-4.5,10.9c-0.5,2.3-0.9,3-2.3,4c-2.2,1.4-2.3,3.1-0.3,4.2
		c1.1,0.6,1.6,1.5,2.1,3.2c0.6,2.2,0.6,2.9-0.7,8.1c-0.8,3.1-1.4,6.2-1.4,6.9c0,0.8-0.6,1.8-1.5,2.7l-1.5,1.5l1.1,0.9
		c1.1,0.9,1.1,0.9-0.9,1.5c-2.7,0.9-4.3,2-4.3,3c0,1.4,0.6,1.6,1.8,0.8c1.1-0.7,1.2-0.7,1.7,0.3c0.4,0.7,0.9,0.9,1.4,0.7
		c0.5-0.2,1.1-0.5,1.5-0.6c0.4-0.2,0.7,1,0.9,3.7c0.3,3.2,0.6,3.9,1.3,4.1c1.4,0.4,1.2,2-0.7,6.3c-1,2.1-2,4.7-2.4,5.8
		c-0.8,2.5-1.7,3.3-4.1,3.3c-2,0-5.8,2.2-5.4,3.2c0.1,0.4,1.1,1.3,2.2,2.1c1.1,0.8,2.7,2.6,3.6,3.9c1.3,2,1.5,2.4,0.8,2.6
		c-0.7,0.3-0.7,0.4,0,1.2c0.4,0.5,1,1.8,1.2,2.9s1.4,3.9,2.8,6.1c2.2,3.6,2.5,4.5,2.8,8.1c0.2,2.2,0.8,5,1.3,6.1
		c0.5,1.2,1,3.2,1,4.5c0,2.2-0.3,2.9-2.5,6.1c-1.7,2.4-2.5,4.1-2.5,5.1c0,3.1-1,5.1-4.2,8.5c-2.2,2.4-3.5,3.4-4.4,3.4
		c-1.1,0-1.4,0.5-2.6,3.8c-1.2,3.3-1.3,4.1-0.8,5.9c0.6,2.3,2.1,5,4.6,8.2c1.1,1.3,1.7,2.8,2,4.8c0.3,1.6,1.1,4,1.9,5.4
		c0.9,1.6,1.7,4.1,2.1,6.2c0.5,3,0.8,3.6,1.5,3.6c1.8,0,1,1.2-3.4,5.4c-3.8,3.5-4.3,4.3-4.2,5.6c0.2,1.4,0.3,1.5,3.4,1.7
		c2.8,0.2,3.3,0.4,4,1.6c0.8,1.5,0.4,4-0.6,4c-0.4,0-1.9,0.4-3.3,0.8c-2.4,0.7-2.6,0.9-2.6,2.3c0,1.3,0.2,1.5,1.2,1.5
		c0.7,0,1.9,0.3,2.6,0.5c0.9,0.4,1.7,0.4,2.4-0.1c1.4-0.7,1.8-0.2,0.8,1c-1.1,1.2-1.1,2.1-0.1,3.5c0.7,1,0.7,1.3-0.2,3.1l-1,2l1.2,2
		c0.7,1.1,1.3,2.8,1.3,3.9c0,2.2,0.8,2.4,3.2,1.2c0.8-0.4,1.5-0.8,1.6-0.8s0.2,1.1,0.2,2.4c0,1.4,0.3,3.8,0.6,5.3l0.6,2.9l2.1-0.3
		c1.1-0.2,2.3-0.5,2.5-0.8c0.5-0.5,1.5,1.7,2.3,5.1c0.3,1,1,3.1,1.7,4.9l1.2,3l-1.2,3.4c-1,2.6-1.9,3.9-4,5.9c-2.8,2.6-3.3,4-2,5.1
		s0.9,1.8-3.1,4.6c-2.2,1.5-5.1,3.7-6.4,5c-2,1.9-2.4,2.5-2.1,3.5c0.3,1.1,0,1.6-1.8,3.1l-2.2,1.8l1.9,0.6c2,0.7,2.1,0.9,1.4,2.8
		c-0.3,0.7-0.4,1.7-0.2,2.1c0.4,0.9,2,1,2.5,0.3c0.2-0.3,0.8-0.5,1.4-0.5c0.7,0,1.7-0.4,2.3-0.8c1.1-0.8,1.2-0.7,2.6,0.8
		c1.9,2,3.4,2.1,3.9,0.1c0.4-1.7,1.3-2.1,4.9-2.1c3.9,0,7.5-1,8.1-2.1c0.5-1,0.9-1,5.3-0.8c4.1,0.3,5.2,0.5,8.2,2
		c5.6,2.9,10.7,4.4,14.6,4.4c1.4,0,3.9,0.3,5.5,0.6l2.9,0.6l1.7,3.6c1,2,2.1,4.1,2.6,4.7c1.3,1.6,6.6,3.5,7.7,2.9
		c0.5-0.3,2.5-0.8,4.6-1.2c3.6-0.6,3.8-0.6,5,0.7c1,1,1.2,1.5,0.8,2.2c-0.7,1.3,0.3,3.8,1.5,3.8c1.7,0,4.8,1.9,5.4,3.2
		c0.5,1,0.4,1.7-0.2,3.2c-0.8,1.7-0.8,1.9,0.2,2.5c0.4,0.2,0.7,0.5,1,0.8V42.3C193.8,42.6,192.8,42.8,192,42.8z"/>
	<path fill="#198200" d="M361.3,323.4c19,0.8,37.8,3.3,56.8,2.5c5.1-6.7-6.5-9.3-13.6-3.5c-4.2-7-12.7-0.3-18.4-1
		c-5.7-0.6-3-7.6,4.2-6.5c7.2,1,20.1-0.4,22.5-3.7c2.4-3.3-1.4-6.7-13.3-3.5c-4-4-13,0-17.1,1.3c-5.6-3.1-18.5-0.5-22.8,0.6
		c-4.3-2.6,22.5-7,22.5-7c10.4-0.2,16.3-2,19.5-2.8c15.7-8.4-0.2-9.3-8.4-3.2c-5.1-4-10,0.3-14.6,1.8c-4.3,1.5-8.8,2.1-13.4,2
		c0-0.6,12.6-8.3,12.6-8.3s15.3-1.1,18.4-1.5c3-0.5,18.8-8.5-2.7-3.1c-7.4,0.6-11.8,0.2-14.7,0.4c-16.5-1.7,1.6-3.3,1.6-3.3
		s23.4-2.1,23.7-3.3c0.4-9-19.1-4.8-19.3-4.8c0-6.5-18.2,0.2-18.2,0c-3.5-2,2-4.1,2-4.1c4.8-1.2,12-1.6,13.9-3.1
		c0,0,13.6-0.1,15.2-3.7c-3.3-9.3-28.8,1.6-32.2,3.2c-4.6,0,3-7.4,3.3-7.6c0.2-0.3,21-1.1,30.9-14.5c0.7-8.1-11.6,4.6-11.6,4.6
		c-1-10.6-13.4,0.7-20.6,1.5c-7.3,1-7.5-3.3-2.5-4c5-0.6,10.8-0.1,13.6-7.8c2.9-7.7,11.4,0.4,13-2.4c1.5-2.9-3.1-5.3-3.1-5.3
		s6.4-6.6-4-6.3c-10.2,0.2-23.6-1.4-23.6-1.4s10.7-4.1,20.8-4c10,0.3,4.6-7.1-5-7.1c-9.7,0-14.7-3.3-14.7-3.3l16.4-6.2l-1-4.6
		c0,0,9.6-7.7-4-5.9l-15.2,2l-27.4,4.1c-0.2,0-7.4-2.2-0.4-4c7-1.8,31.8-6.7,35.5-5.4s-0.4-9.2-13.6-10.5
		c-13.1-1.3-21.3,3.3-21.3,3.3s-8.5-3.1-0.6-5.7c7.9-2.7,20.4,0.9,20.4,0.9s14-4.2,2.4-6c-11.6-1.7-15.3,1.6-20.6,1.8
		c-2.1-2.7,18.2-3.3,19.5-5.5c-2.2-4-14.8,0-22.2,0c-3-1.3-3.3-3.5,0.3-4.8c7.5-0.3,14.6,0.1,22.1-0.2c-0.2-4,0-8.7-0.2-12.8
		c-9.6-1.7-20.8,1.3-26.1,1c1.4-4.3,22-5.5,24.3-6.7c4.8-6-20.1,0-20.4,0c-4.3-0.6-4-3.4-1.3-5c6.4-0.7,20.6,1,19.6-3.4
		c-0.8-4-10-1.9-13.6-1c-3.8,0.9-9.3,0.2-9.3,0.2c-2.3-3.2,21.5-1.9,21.3-4.4c-0.3-2.8-15.1-0.8-20.2-0.6c-3.9-2.7,19-4.5,19.3-4.8
		c0.9-7.3-15.3,0-18.4,0c-3,0-1.5-4.6-1.5-4.6s6.3-2.9,6.1-3.3c-1.6-0.9-3.4-1.6-5.2-2c-0.5,0,0-5,0-5s5.2-4,4.8-5.1
		c-0.5-1.1-6.2,0.9-6.2,0.9v-4.4c0,0,4.2-0.4,4.6-2.4c0.5-2-5-2.2-5-2.2l-2.2-23l-2,21.5l-7.2,1c0,0,5,2.9,6,5.8
		c0.8,2.8-6.2,2-6.2,2s5.7,4.8,6.1,6.5c0.5,1.8-7.9,2.2-7.9,2.2s7,5,7.5,7.9c0.4,2.8,0,4.4,0,4.4s-11.6-10.1-19-7.3
		c-4,2,8.8,3,17.2,10.3c0,1.7-20.5-5-21.2-0.8c0.4,1.1,21.9,4.2,23.4,7c-7.8,0.3-24-1.7-23.4,0.9c-1.7,3,15.2,1.3,22.3,3.7
		c2.1,2.4,1.9,4.4-1.7,4.6c-6.9-3.3-22.1-5.7-22.2-1.5c0.1,1,15.8,0.4,21.5,4.1c-7.6,1.8-33.4-3.5-33.5-1c0.7,1.3,4.8,6.5,11.8,6.3
		c7-0.2,23.3,2.8,24.4,5c1,2.2-21.1-4.6-29.4-0.6c-8.4,4,23.9,1.5,29.1,6.3c5.3,4.9-10.5-0.4-10.5-0.4s-22-3-25.2-1.5
		c-3.3,1.5-7,5-7,5s2.2,4.4,4.4,3.5c2.2-0.9-0.7,2.7-0.7,2.7s30.7,7.4,37.5,14c6.8,6.6-39-10.3-39-10.3s-18.5,6.8,1,7.2
		c-2.2,3.3,1.2,5.3,1.2,5.3s32.4,6.8,35.7,12c3.3,5.3-22.1-5-27.9-7.9c-5.7-2.8-21.9,1.8-21.7,2.9c0.3,1,8,2.6,8.1,4.6
		c0.3,2-9.4,2.6-9.4,4.4c0,1.7,41,10.3,52,19.5s-32.2-11-32.2-11s2.4,3.3,0,4.2c-2.5,0.9-11-12.3-25-4.2c-2.6,3.4,12.2,6,16,6.4
		c-1.3,3.3-2.4,4.4,2.8,7.7c5.2,3.3-10.3-4.8-10.3-4.4l1.1,5.7c-4.8-4-10.7-5.1-16.2-1.1c0,0-0.2,4,5.5,6.4
		c-3.1,6.3,3.5,4.3,14,10.3c-15.6-4.1-16.9,3.5-5.7,5.2c11.2,1.7,41.9,2.9,49.1,12.3c7.3,9.4-10.3-3.6-12.3-4
		c-0.4,0.3-0.8,4.9-0.8,4.9c-4.7-2.7-9-5.2-14.6-6.3c-0.5,0.9-0.3,2.1-0.8,3c-5-3.7-9.5-6.2-16.9-6.6l-0.9,3.5c0,0-6.1-7.7-18.2,0
		c-6.7,4.9,25.5,1.8,30.7,7.5c5.3,5.7,1.1,6.6,1.1,6.6l-13.1-4.9c0,0-15.6-2.8-20,0.7c-4.4,3.5,64,12,66,21.5c1.4,5-16-5.4-31.1-9.9
		l-1.8,5c0,0-6-6-12.7-7c-0.2,0,1.3,6,1.3,6s-16.8-8-25.4-3.8c-8.5,4.2,29.8,6.4,33.3,10.3c3.5,4-11.6-2.6-13,0
		c-1.2,2.7-19.9-4.8-19.6-1.3c0.2,3.5,2.6,5.5,2.6,5.5s38.8,3.7,40.1,8.3c1.3,4.6-21.5-2.6-21.5-2.6s-2.2,3.3-0.4,4.8
		c1.7,1.6-13.2-8.7-11.8-2c-4.9-1.9-17.4-7.8-15.6-3.2c1.7,4.6,35.3,11.2,35.3,11.2s-14.7,1-14,4.8c-19-11.5-18.5-4.2-18-4
		c0.4,0.2-24.4-6.1-5.7,4c18.7,10.1,10,8.3,10.3,8.5c0.2,0.2,2,5,1.5,5c-0.4,0-12.7-6.5-16.9-7c-4.1-0.4-23.9,5.5-2.8,14.8
		c21.1,9.3,34-2.2,45.6-1c11.6,1.4,17,3.4,16,7c-1.1,3.8-11.9-12.1-23.2,1.7c-13-2.6-21.7-4-15,5.4c-21-7.9-34,2.4-7.4,6.6
		c26,0.8,42-6.4,42-6.4s4.5,8.1,10.8,2.4c6.4-5.7,6.6,2.2,6.8,2.2l6.2-2.6h1.5l0,0v52.6l21.3,0.2c0,0-6.8-45.8-3.1-52
		c3.7-6,7.2-5.2,7.2-5.2s13.9,4.2,15.4,3.5c1.5-0.6-0.2-5.2,7.2-4.6c2.4-0.9,1.1-5,3.3-5.2c2.2-0.3,44.5,11.8,53.7,0.4
		c-2.4-6.4-10.7-0.5-12.9-0.2c-2,0-10.3-4-15.1,0c-4.4-3.3-24.4-5.5-24.4-5.5c-2.6-2.6,47.6,1.3,50.5-0.7c5.9-5.9-11-5.2-13.6-3.3
		c-4.3-2.6-9.7-2.8-14.2-0.6c-1.7-4.1-18-2.4-27-3.5C358.8,325.5,359.3,324.5,361.3,323.4z M318.8,154c0,0-7.5-0.3-5.7-1.6
		c1.8-1.3,5.7-1.1,5.7-1.4V154z M280.1,332.2c0,0-6.2-1.8-8.2-5.3c3.6-1,8.5,1.9,8.4,1.8L280.1,332.2z M302.7,295.6
		c9.3,1,12.8,4.5,13.8,5.8v0.1C314.4,305.1,296.2,295.6,302.7,295.6z M303.4,318.5c-1.9,0-7.7-3.1-7.2-4.3c2.9-1.5,5.2,0.3,7.5,1.6
		c4.1-0.8,12.3,0.7,12.3,0.7v3.7l0.1,0C311.8,320.3,307.5,319.7,303.4,318.5z M316.1,331.1c-2,1-11.2-0.8-11.7-4.5
		c3.3-3.5,11.6-0.4,11.6-0.4v-0.1C316.1,326.3,318,330.1,316.1,331.1z M317.9,236.1L317.9,236.1c-0.1,0.4-0.1,3.6-0.3,3.5
		c0,0-22.8-9.5-23.7-8.7C290.9,223.9,317.9,236.3,317.9,236.1z M285,242.5c0.1,0-1.6-5.4,32.3,6.9v0l0.6,3.7L285,242.5z M317,172.8
		c0,0.3,0.3,4,0,3.8c-0.3-0.2-21.2-6.1-23.2-6C291.9,170.6,291.4,165.7,317,172.8z M317.5,208.7l0.1,3.5c0,0-23.7-7.2-24.5-8.4
		S290,197,317.5,208.7z M318.5,220.5l-32.2-11.3c0,0-2.6-8.4,32.1,8h0.1V220.5z M318.4,184.1c-0.7-0.2-14.3-4.5-12.9-5.8
		c1.4-1.3,13.2,1.7,13.2,1.4v0C318.7,180.4,319.2,184.3,318.4,184.1z M325.8,155L325.8,155c0.3,0.1,11.4,0.2,10.6,1.7
		c-0.7,1.5-10.4,2.5-10.4,2.5L325.8,155C325.8,155.1,325.8,155.1,325.8,155L325.8,155z M325.2,161L325.2,161
		c0.4,0.3,5.9,0.3,5.1,1.3s-4.5,1.3-4.7,1.3C325.4,163.6,325.2,161,325.2,161z M326.2,187.5c-0.1,0,20.7-2.7,18.4,0
		c-2.2,2.6-18.2,4.8-18.2,4.8L326.2,187.5z M362,283.8c0.2,0-0.8,3.2-5.4,4.5c-5.1-0.5-27.1,6.1-27.1,6.1l0.2-2.7
		C339.1,286.1,358,280.9,362,283.8z M337.9,307.6c-1.5,2.8-8,1.8-8,1.8v-2C330.1,307.6,339.3,304.8,337.9,307.6z M342.1,276.5
		c-2.2,2-12.5,2.4-12.5,2.4v-2.6C332.9,276.2,343.4,274.4,342.1,276.5z M349.6,280.5c-4.2,3-19.7,6-19.7,6l0.3-2.6h0
		C330.4,284,353.7,277.5,349.6,280.5z M356.6,263c-1.6,1.4-26.5,9.3-26.5,9.3l-0.1-5.7l0,0v0v0C361.6,257,358.1,261.5,356.6,263z
		 M328.2,209.1c0,0.3,16.2-4.2,14-1.7s-14,5-14,5V209.1z M328.4,224L328.4,224c0.4,0.3,24.2-5.1,21.4-2.6
		c-2.9,2.7-21.1,5.7-21.5,5.7C327.9,227.1,328.4,224.2,328.4,224z M328.4,232.5c-0.3,0,18.7-2.9,17-1.4c-1.6,1.4-17,4.4-17,4.4
		V232.5z M328.9,242c0,0.1,16-2.5,15.2-1.1c-0.8,1.4-14.8,4.3-14.8,4.3L328.9,242L328.9,242z M336.1,251c-0.9,1.3-6.5,1.8-6.5,1.8
		s-0.2-2.6-0.4-3.3C329.2,249.5,336.9,249.7,336.1,251z M329.3,258.7c0,0.1,19.2-4.1,14.6-0.3c-4.6,3.7-14.6,4.5-14.6,4.5V258.7z
		 M341.6,330c-1.8,2.1-11.6,0.2-11.6,0.2v-2.6h-0.1C333.6,326.5,343.3,327.9,341.6,330z M341.7,317.5c-3.3,4.7-11.9,2.8-11.9,2.8
		l-0.3-2.9C334.2,317.5,345,312.8,341.7,317.5z M351.2,298c0,0.2,6.2-3.6,6.4-0.8C356.6,298.8,351.2,298,351.2,298z"/>
	<path fill="#FFFFFF" d="M342.2,207.4c2.2-2.5-14,2-14,1.7v3.3C328.2,212.4,340,209.9,342.2,207.4z"/>
	<polygon fill="#FFFFFF" points="330,266.6 330,266.6 330,266.6 	"/>
	<path fill="#FFFFFF" d="M330.2,283.9l-0.3,2.6c0,0,15.5-3,19.7-6C353.7,277.5,330.4,284,330.2,283.9L330.2,283.9z"/>
	<path fill="#FFFFFF" d="M326.2,187.5l0.2,4.8c0,0,16-2.2,18.2-4.8C346.9,184.8,326.1,187.5,326.2,187.5z"/>
	<path fill="#FFFFFF" d="M329.5,294.4c0,0,22-6.6,27.1-6.1c4.6-1.3,5.6-4.5,5.4-4.5c-4-2.9-22.9,2.3-32.3,7.9L329.5,294.4z"/>
	<path fill="#FFFFFF" d="M329.9,307.4v2c0,0,6.5,1,8-1.8C339.3,304.8,330.1,307.6,329.9,307.4z"/>
	<path fill="#FFFFFF" d="M329.6,276.3v2.6c0,0,10.3-0.4,12.5-2.4C343.4,274.4,332.9,276.2,329.6,276.3z"/>
	<path fill="#FFFFFF" d="M330.1,272.3c0,0,24.9-7.9,26.5-9.3c1.5-1.5,5-6-26.6,3.6L330.1,272.3z"/>
	<path fill="#FFFFFF" d="M329.3,258.7v4.2c0,0,10-0.8,14.6-4.5C348.5,254.6,329.3,258.8,329.3,258.7z"/>
	<path fill="#FFFFFF" d="M329.9,327.6L329.9,327.6l0.1,2.6c0,0,9.8,1.9,11.6-0.2C343.3,327.9,333.6,326.5,329.9,327.6z"/>
	<path fill="#FFFFFF" d="M351.2,298c0,0,5.4,0.8,6.4-0.8C357.4,294.4,351.2,298.2,351.2,298z"/>
	<path fill="#FFFFFF" d="M328.4,232.5v3c0,0,15.4-3,17-4.4C347.1,229.6,328.1,232.5,328.4,232.5z"/>
	<path fill="#FFFFFF" d="M328.5,224L328.5,224c-0.1,0.2-0.6,3.1-0.2,3.1c0.4,0,18.6-3,21.5-5.7C352.6,218.9,328.8,224.3,328.5,224z"
		/>
	<path fill="#FFFFFF" d="M344.1,240.9c0.8-1.4-15.2,1.2-15.2,1.1l0,0.1l0.4,3.1C329.3,245.2,343.3,242.3,344.1,240.9z"/>
	<path fill="#FFFFFF" d="M336.1,251c0.8-1.3-6.9-1.5-6.9-1.5c0.2,0.7,0.4,3.3,0.4,3.3S335.2,252.3,336.1,251z"/>
	<path fill="#FFFFFF" d="M329.5,317.4l0.3,2.9c0,0,8.6,1.9,11.9-2.8C345,312.8,334.2,317.5,329.5,317.4z"/>
	<path fill="#FFFFFF" d="M317.3,249.4c-33.9-12.3-32.2-6.9-32.3-6.9l32.9,10.6L317.3,249.4L317.3,249.4z"/>
	<path fill="#FFFFFF" d="M316,326.2c0,0-8.3-3.1-11.6,0.4c0.5,3.7,9.7,5.5,11.7,4.5c1.9-1,0-4.8-0.1-5V326.2z"/>
	<path fill="#FFFFFF" d="M317.6,239.6c0.2,0.1,0.2-3.1,0.2-3.5h0.1c0,0.2-27-12.2-24-5.2C294.8,230.1,317.6,239.6,317.6,239.6z"/>
	<path fill="#FFFFFF" d="M316.1,320.2l-0.1,0v-3.7c0,0-8.2-1.5-12.3-0.7c-2.3-1.3-4.6-3.1-7.5-1.6c-0.5,1.2,5.3,4.3,7.2,4.3
		C307.5,319.7,311.8,320.3,316.1,320.2z"/>
	<path fill="#FFFFFF" d="M325.3,161L325.3,161c-0.1,0,0.1,2.6,0.3,2.6c0.2,0,3.9-0.3,4.7-1.3S325.6,161.3,325.3,161z"/>
	<path fill="#FFFFFF" d="M316.5,301.5v-0.1c-1-1.3-4.5-4.8-13.8-5.8C296.2,295.6,314.4,305.1,316.5,301.5z"/>
	<path fill="#FFFFFF" d="M313.1,152.4c-1.8,1.3,5.7,1.6,5.7,1.6v-3C318.8,151.3,314.9,151.1,313.1,152.4z"/>
	<path fill="#FFFFFF" d="M317,172.8c-25.6-7.1-25.1-2.2-23.2-2.2c2-0.1,22.9,5.8,23.2,6C317.3,176.8,317,173.1,317,172.8z"/>
	<path fill="#FFFFFF" d="M318.7,179.7c0,0.3-11.8-2.7-13.2-1.4c-1.4,1.3,12.2,5.6,12.9,5.8C319.2,184.3,318.7,180.4,318.7,179.7
		L318.7,179.7z"/>
	<path fill="#FFFFFF" d="M336.4,156.7c0.8-1.5-10.3-1.6-10.6-1.6l0.2,4.1C326,159.2,335.7,158.2,336.4,156.7z"/>
	<polygon fill="#FFFFFF" points="325.8,155 325.8,155.1 325.8,155.1 	"/>
	<path fill="#FFFFFF" d="M317.6,212.2l-0.1-3.5c-27.5-11.7-25.2-6.1-24.4-4.9S317.6,212.2,317.6,212.2z"/>
	<path fill="#FFFFFF" d="M286.3,209.2l32.2,11.3v-3.3h-0.1C283.7,200.8,286.3,209.2,286.3,209.2z"/>
	<path fill="#FFFFFF" d="M271.9,326.9c2,3.5,8.2,5.3,8.2,5.3l0.2-3.5C280.4,328.8,275.5,325.9,271.9,326.9z"/>
</g>
</svg>
