<?xml version="1.0" encoding="utf-8"?>
<!-- Generator: Adobe Illustrator 17.1.0, SVG Export Plug-In . SVG Version: 6.00 Build 0)  -->
<!DOCTYPE svg PUBLIC "-//W3C//DTD SVG 1.1//EN" "http://www.w3.org/Graphics/SVG/1.1/DTD/svg11.dtd">
<svg version="1.1" id="flag-icon-css-nl" xmlns="http://www.w3.org/2000/svg" xmlns:xlink="http://www.w3.org/1999/xlink" x="0px"
	 y="0px" viewBox="0 0 640 480" enable-background="new 0 0 640 480" xml:space="preserve">
<g>
	<path fill="#FFFFFF" d="M372.5,160.2c0,0.9-0.3,1.7-0.6,1.9c-0.5,0.2-0.5,0.3,0,0.6c0.9,0.4,2.7,4.7,3.4,8.2c0.6,3,0.6,3.2-0.7,7
		c-2.6,7.6-9.5,16.2-14.2,17.8c-0.9,0.3-2.5,1.4-3.6,2.3c-1.1,1-2.6,1.8-3.3,1.9c-0.8,0.1-1.6,0.7-2.2,1.6c-0.5,0.8-1.7,2.1-2.7,2.8
		c-2,1.4-3.2,3.8-4.1,7.9c-0.5,2.3-0.9,3-2.5,4.3c-1.6,1.3-2.8,1.7-8.1,2.9l-6.2,1.3l-2.7-2.3c-2.3-1.9-3.1-2.3-5.1-2.5
		c-2.3-0.2-2.4-0.3-3.7-2.7c-1.6-3-3.2-3.6-7.9-3.3c-1.8,0.1-4.4,0.1-5.9-0.1c-2.4-0.4-2.9-0.7-4.8-2.8c-1.7-1.9-2.4-2.3-3.6-2.3
		c-0.9,0-2.2,0.4-2.9,0.8c-1.1,0.7-1.5,0.7-2.1,0.1c-0.4-0.3-0.7-0.9-0.7-1.4c0.1-0.6-0.3-0.8-1.5-0.9c-2-0.2-4.4-1.9-4-2.9
		c0.1-0.4,1.4-1.2,2.6-1.8c1.7-0.8,2.7-1.7,3.7-3.3c0.7-1.2,1.9-2.5,2.5-2.8s1.2-0.9,1.2-1.4c0-1.2,4.4-5.2,5.6-5.2
		c1.3,0,1.2-1.2-0.3-3c-0.7-0.8-1.6-2-2.1-2.6l-0.8-1.2l0.2,1.3c0.3,1.4-0.9,5.8-2,7.1c-0.6,0.7-0.8,0.8-1.4,0.3
		c-0.4-0.4-1.2-1.5-1.7-2.5c-1-2-0.7-2.7,1.2-2.7c0.6,0,0.8-0.4,0.8-1.9c0-1.2,0.4-2.6,1-3.5l0.9-1.6l-1.2-1.1c-0.9-0.8-1.4-2-2-4.8
		c-0.4-2-1-4-1.3-4.4c-0.6-0.7-1.6-3.5-2.2-5.7h-42.8c-0.1,0.8-0.3,1.5-0.4,2c-0.4,1.1-0.9,3.4-1.2,5.1c-0.2,1.7-1.1,5.1-1.8,7.6
		c-0.7,2.4-1.5,5.7-1.6,7.3c-0.6,4.9-2.1,10.1-5.1,17.3c-3,7.3-13.6,27.9-16.9,32.7c-2.9,4.3-7.1,9.7-8.5,11
		c-0.7,0.7-2.5,2.6-3.9,4.4c-1.5,1.8-4.8,5.4-7.4,7.9c-2.7,2.7-5.1,5.4-5.6,6.4c-0.5,1.1-1.1,1.8-1.6,1.8c-1.5,0-3.2,1.1-3.2,1.9
		c0,0.5,1.5,1.8,4.3,3.5c2.4,1.5,5.2,3.4,6.2,4.2c3.1,2.5,7.5,5.4,8.8,5.7c0.7,0.2,1.6,0.8,2.2,1.4l1,1.1l-2.7-0.6
		c-1.5-0.3-3.5-1-4.4-1.6l-1.8-1.1v1.4v1.3l-1.9-2.1c-1-1.2-2.5-2.9-3.1-3.9c-1.6-2.2-3.2-2.9-4.4-1.9c-0.7,0.7-0.9,0.7-0.9,0.1
		c0-0.7-1.7-3.2-2.2-3.2c-1.2,0-1.5,0.8-1.1,3.2c0.3,2.2,0.3,2.4-0.5,2.4c-1.5,0-2.6-2.3-2.4-4.7c0.1-1.2,0.4-2.3,0.7-2.7
		c0.5-0.7-1.1-2.5-2.2-2.5c-3.4,0-4.6,6.2-2.2,11.4c1.1,2.3,1.1,2.8,0.6,4.2c-0.5,1.5-0.5,1.7,0.7,3.1c1.9,2.2,2.2,4.5,1,7.2
		c-0.3,0.7-0.1,0.8,1.1,0.8c0.8,0,1.6,0.3,1.8,0.7c0.4,0.7,3.4,1.7,5.2,1.7c1.7,0,9.3,5.1,10.3,7c1.4,2.5,2.8,3.5,6.4,4.7
		c1.8,0.6,5.1,2,7.3,3c2.2,1.1,5.1,2.3,6.5,2.8c1.4,0.5,3.5,1.2,4.7,1.5c7.4,2.6,9.3,2.5,13.6-0.6c1.6-1.1,3.6-2.4,4.4-2.9
		c0.7-0.4,2.1-1.4,2.9-2.2l1.6-1.3v1.7c0,0.9,0.1,1.7,0.4,1.7c0.7,0,5-2.7,5.9-3.7c1.4-1.5,1.8-1.2,0.9,0.7
		c-1.2,2.5-0.3,2.5,1.9,0.1c2.2-2.3,3.2-2.8,2.8-1.3c-0.2,0.9-0.1,0.9,1.8,0.7c1.1-0.1,2.3-0.4,2.7-0.5c0.5-0.1,0.5,0.1,0.3,0.8
		c-0.2,0.8-0.1,0.9,0.6,0.6c0.5-0.2,1.5-0.5,2.2-0.6c1.6-0.2,1.8,1,0.2,1.8l-1,0.6l1,0.5l1,0.6l-1,0.9c-0.6,0.5-0.9,1.3-0.8,1.7
		c0.2,0.7-0.1,0.8-2.2,0.8c-1.4,0-3.6-0.3-5-0.7c-1.6-0.5-4.2-0.8-7.2-0.7c-4.7,0-4.7,0-9.6,2.3c-5,2.4-9.5,3.8-12.1,3.8
		c-0.7,0-2.3-0.3-3.4-0.7c-2.1-0.7-4.5-0.9-7-0.4c-1.1,0.2-1.8,0.9-3.1,3c-0.3,0.5-0.5,0.9-0.8,1.2h183.1c-0.5-0.2-1-0.4-1.5-0.6
		c-2.8-1-3.3-1.8-3.3-4.9c0-1.2,0.3-2,0.7-2.2c0.7-0.4,0.7-0.6-0.1-1.9c-1-1.7-4.4-3.4-6.9-3.4c-0.9,0-1.7-0.3-1.8-0.6
		c-0.4-1,0.7-3.6,1.5-3.9c0.7-0.2,1.5-1.4,2.1-3.2c0.3-1-1.1-3.9-2.7-5.4c-1.9-1.7-1-3.8,1.6-3.8c1.9,0,5.1-1.4,6.7-2.9
		c1.8-1.7,2.6-1.7,5.5,0.1c2.1,1.3,2.7,1.5,4.9,1.3c1.4-0.1,2.6-0.4,2.8-0.5c0.3-0.3-1.5-4.8-2.3-5.9c-0.3-0.4-1.2-0.9-2-1.3
		c-1.8-0.7-2-1.4-0.5-1.8c5.4-1.2,6.2-1.2,6.6,0.6c0.1,0.7,0.8,1.8,1.5,2.5c1.5,1.5,5.4,2.2,7.7,1.3c1.4-0.6,1.5-0.5,2.9,1.1
		c1.6,1.8,3.5,2.8,4.8,2.4c0.6-0.2,1.6,0.4,3,1.6c1.2,1.1,2.6,1.9,3.2,1.9c1,0,1-0.1,0.8-2.7c-0.1-1.5-0.4-3.2-0.6-3.8
		c-0.3-0.8-0.1-1,0.4-1c0.4,0,0.9,0.3,1,0.7c0.2,0.4,0.9,0.7,1.9,0.7c0.8,0,2.4,0.3,3.5,0.7c2.2,0.9,3.2,0.7,3.4-1
		c0.1-1,0.6-1.4,2.8-2.1c1.5-0.5,4.2-1.7,6.1-2.8c1.9-1,5.3-2.4,7.6-3.1c3.6-1.1,4.3-1.2,5.3-0.6c0.7,0.3,2.1,0.6,3.2,0.6
		c1.6,0,2.3-0.3,3.7-1.6c2.2-2.1,2.7-3,3-5.4c0.3-1.7,0.5-1.9,2.3-2.5c1.9-0.6,2-0.7,2-2.4c0-1.5-0.3-2.1-1.8-3.4
		c-1-0.9-2.5-2-3.2-2.4c-0.8-0.4-1.9-1.5-2.4-2.3c-0.8-1.3-1.5-1.7-3.4-2.1c-1.3-0.3-2.8-0.5-3.2-0.5c-0.8,0-0.9-0.3-0.9-2.3
		c0-2.1,0.1-2.5,1.5-3.5c0.9-0.7,2.1-1.2,2.6-1.2c0.9,0,1-0.2,1-2.8c0-4.4-0.1-4.3,5.1-4.3c3.7,0,4.8-0.2,6.1-1
		c2.3-1.4,2.8-2.2,2.8-4.4c0-1.7,0.2-2.2,2-3.6c1.2-1,2.4-1.7,3.2-1.7c1.6,0,4-2.6,5.8-6.5c1.2-2.5,1.5-2.9,2.3-2.7
		c3,0.9,4.5,1.3,4.8,1c0.7-0.7,0.2-3.2-1-4.9c-3-4.4-2.6-9.5,1.1-13.4c1.2-1.3,1.4-1.8,1.5-5.6l0.1-4.2l-2.2-1.2
		c-1.9-1-2.5-1.7-4.5-5.6c-1.3-2.4-2.6-4.5-3-4.6c-0.4-0.1-1.6,0.7-2.8,1.8l-2.1,2l-4.4-1.5c-2.4-0.8-6-1.6-8.1-1.9
		c-3.6-0.4-5-0.8-8.7-2.9c-0.9-0.5-2.1-0.9-2.6-0.9c-0.8,0-1.1-0.4-1.5-2.1c-0.3-1.2-0.5-2.8-0.5-3.7c0-0.8-0.3-2.6-0.7-3.8
		c-0.8-2.5-0.7-3,0.9-2.2c1.4,0.6,1.7,0.3,1.7-1.4c0-1.2,0.1-1.4,2.3-1.6c1.3-0.2,2.3-0.4,2.3-0.6c0-0.1-0.9-0.9-2-1.7
		c-1-0.7-1.7-1.4-2.1-2.2h-95.1C372.5,159.6,372.5,159.9,372.5,160.2z"/>
	<path fill="#FFFFFF" d="M186.8,319.8c-1-0.9-5.8-2.7-7.4-2.7c-1.3,0-2-1.2-3.3-5.3c-1.2-3.9-1.6-4.2-5.5-3.5l-3.2,0.5l-1-1.3
		c-0.6-0.7-1.2-1.2-1.5-1.2c-0.3,0-1.3,0.2-2.3,0.5c-1,0.2-4.5,0.4-7.7,0.4c-7.5,0-10.1,0.8-11.6,3.6c-1.7,3-1.4,6.8,0.8,7.9
		c1.8,1,2.6,0.9,5.8-0.7c3.2-1.6,6.7-1.9,7.8-0.7c0.4,0.5,1.1,0.7,2.2,0.5c1.4-0.2,1.6-0.1,2.4,1.2c0.3,0.5,0.5,1,0.7,1.5h24.4
		C187.4,320.4,187.1,320.1,186.8,319.8z"/>
	<path fill="#FFFFFF" d="M341.3,163.7c-2.5,2.4-3.1,2.8-5.1,3c-3.1,0.3-4.1,1.3-4.1,4.2c0,3.6-1,4.6-7.9,7.9
		c-4.8,2.4-6.5,3.5-9.4,6.2c-1.9,1.8-5.9,4.8-8.7,6.7c-2.9,1.9-5.3,3.6-5.3,3.8c0,0.3-1.1,1-2.3,1.6c-1.3,0.7-2.5,1.5-2.6,1.9
		c-0.4,1.1,1.9,5.6,3.5,6.7c1.5,1.1,1.5,1.1,4.5,0.3c2.9-0.8,3.1-0.8,5.5,0.1c1.4,0.6,4.1,2.1,6.1,3.4c2,1.3,4,2.4,4.4,2.4
		s2.1,1.5,3.9,3.3c2.8,2.9,3.3,3.3,5,3.4c2.5,0.1,8-1.5,10.2-2.9c3.1-2,4.8-6.6,3.9-10.7c-0.6-2.5,0.2-3.3,3.9-3.9
		c2.6-0.4,3.3-0.7,3.3-1.4c0-0.4,0.8-1.7,1.8-2.8c1.4-1.5,2.9-2.4,6.8-4c2.8-1.2,5.5-2.1,5.9-2.1c0.4,0,1.5-1,2.4-2.2
		c0.9-1.2,2.2-2.9,2.9-3.9c0.7-0.9,1.9-3.5,2.8-5.7c1.3-3.6,1.4-4.4,1.3-8c-0.1-3.1-0.4-4.3-1-5c-1.1-1.2-7.5-4.3-9.9-4.8
		c-2.4-0.5-5-1.2-6.8-2h-8.5C345.3,160.4,343.1,162,341.3,163.7z"/>
	<path fill="#FFFFFF" d="M218.5,315.2c0-1.4,0.5-1.2-6.3-2.1c-1.5-0.2-2.7-0.8-4.6-2.5c-1.5-1.2-4.1-3.2-5.9-4.5
		c-2.3-1.7-3.4-2.8-3.6-3.7c-0.4-1.3-0.6-1.4-2.9-1.7c-1.9-0.2-3.2-0.7-5.2-2.2c-1.5-1-3.3-2.2-4-2.4c-0.7-0.3-1.7-1.2-2.1-1.9
		c-0.6-0.9-1.3-1.4-2.6-1.6c-1.3-0.2-2-0.7-2.5-1.6c-0.7-1.3-1-1.4-3-1.4c-1.5,0-3.2,0.5-5.1,1.4c-1.6,0.7-3.6,1.5-4.4,1.7
		c-4,0.9-5.5,4.1-3,6.5c1.2,1.3,1.9,1.5,2.3,0.7c0.1-0.3,1.1-0.5,2.2-0.5c1.7,0,1.8,0.1,1.4,0.9c-0.7,1.4-0.6,1.5,1.2,1.5
		s2-0.5,0.9-2.3c-0.6-1-0.5-1.3,0.1-2c1-1.1,3.5-1,5.3,0.3c1.5,1,1.6,1.2,1.7,4.3c0.1,3.8,1.1,6.2,3.7,9.1c1.8,2,1.9,2.1,5.5,2.3
		c3.5,0.3,3.7,0.4,5.2,2.1c1.1,1.3,1.9,1.7,3,1.7c0.8,0,3.5,1,6,2.2c1.1,0.6,2,1,2.7,1.3h8.8c0.7-0.4,1.4-0.9,2.5-1.8
		C217.9,317,218.5,316.3,218.5,315.2z"/>
	<path fill="#21468B" d="M167.4,327c0.6,0,1.2-0.2,1.3-0.5c0.5-0.7,1-0.6,3.2,1.1c1.9,1.5,2.2,1.5,4.4,1.2c5-0.8,9.5-2.9,9.5-4.2
		c0-0.5,0.4-1.3,0.9-1.7c0.8-0.7,1.1-1.5,0.8-2.2h-24.4c0.1,0.4,0.2,0.9,0.2,1.2C163.3,323.5,166,327,167.4,327z"/>
	<path fill="#21468B" d="M181.9,331c-0.7,0.7-1.6,1.2-2.3,1.2c-1.8,0-4.5,1.3-4.5,2.1c0,0.4,1.2,2,2.6,3.4c1.5,1.5,3,3.4,3.6,4.2
		c0.6,0.8,1.4,1.7,1.7,1.8c1.3,0.5,7.7,1.6,9.7,1.6c1.8,0,2.1,0.2,2.9,1.6c1.4,2.2,2.3,1.6,3.9-2.6c1.4-3.6,1.3-4.5-0.5-6.5
		c-0.6-0.7-1.7-2.4-2.4-3.8l-1.3-2.6h-3.5c-2.5,0-3.8-0.2-4.6-0.8C185.5,329.4,183.2,329.6,181.9,331z"/>
	<path fill="#21468B" d="M212.8,324c-3.6,1.7-4.3,1.8-8.5,2c-4.3,0.2-4.8,0.1-7.7-1.2c-4.5-2.1-6.4-2.3-7.8-1
		c-1.4,1.3-1.5,2.3-0.2,3.4c0.5,0.5,1,1.4,1.2,2c0.3,1.1,0.3,1.2,3.4,0.8c2.3-0.2,3.3-0.1,3.9,0.3c0.8,0.7,2.3,4.1,2.3,5.4
		c0,0.4,0.7,1.3,1.6,1.9c2,1.2,2,2,0.7,6.1c-0.9,2.8-0.9,2.9-0.2,3.8c0.5,0.5,1.2,1,1.7,1.2c0.5,0.2,0.9,0.6,0.9,1
		c0,0.4,0.4,1.3,0.9,1.9c0.5,0.7,1.4,2.4,1.9,3.7c1.2,2.8,0.8,3.9-1.4,3.9c-0.7,0-1.9,0.2-2.8,0.4c-0.8,0.3-4.2,0.5-7.3,0.6
		l-5.8,0.1l-2.1-2.1c-1.2-1.2-2.9-3.5-3.7-5.1c-2.9-5.4-5.6-7.6-10.7-8.7c-2-0.5-3.6-1-3.6-1.4c0-0.3-0.4-0.9-0.9-1.4
		c-0.8-0.7-1.9-0.8-9.7-0.7c-9.4,0.1-9.6,0.2-13,2.9c-2.1,1.7-3.8,1.5-4.3-0.6c-0.1-0.7-0.7-1.7-1.2-2.2c-1.7-1.6-4.2-5.2-4.2-6.2
		c0-2,1.3-1.5,4.6,1.8c3,2.9,3.3,3.4,3,4.7c-0.3,1.8,0.2,1.8,2.4,0c1-0.8,2.3-1.6,3-1.7c1.7-0.5,8.3-0.4,10.4,0
		c1.3,0.3,2.2,0.2,3.5-0.4c1-0.5,1.9-1,2.1-1.3c0.2-0.3-0.5-2-1.4-3.8l-1.7-3.3l-5.8,0.1c-3.2,0.1-8,0.2-10.5,0.4
		c-2.6,0.2-7.2,0.3-10.3,0.4c-6.5,0.1-5.4-0.4-15.5,6.4c-1.1,0.7-2.4,1.5-3,1.6c-2.9,0.9-3.6,3.3-1.7,5.4c0.6,0.7,2.5,2.1,4.1,3.2
		c2.6,1.6,3.4,2.5,5.1,5.5c2.6,4.5,3.5,5.1,7.7,5.1c2.9,0,3.5-0.2,5.6-1.5c2.6-1.7,4-2,3.7-0.7c-0.2,1,0.1,1.5,1.8,2.6
		c0.8,0.5,1.3,1.2,1.3,1.9c0,1.5,1.5,2.7,4.1,3.1c1.2,0.2,2.5,0.7,2.7,1.1c0.3,0.3,1.1,0.9,1.9,1.4c0.8,0.4,1.7,1.1,2,1.5
		c0.8,1,1.9,0.9,3,0c0.6-0.6,1.7-0.8,3.7-0.9c3.2,0,3.3-0.1,4.4-4.4c0.9-3.6,2.4-5.4,5-6.1c2-0.5,1.4-0.9,7.5,4.3
		c4.6,3.9,7.6,5.6,10.7,6.1c2.8,0.5,3.1,0.5,4.4-0.4c0.8-0.6,2.4-1,4.1-1.2l2.7-0.2l0.7,1.6c0.5,1.2,0.5,1.8,0.1,2.2
		c-0.9,1,4,1.9,6.8,1.2c2.2-0.6,2.9-0.3,3,1.2c0,0.5,3.4,2.6,5.1,3.1c0.7,0.2,1.8,0,2.9-0.4c1.7-0.7,1.8-0.8,1.8-2.7
		c0-1.4-0.3-2.2-1-2.9c-2.2-2-2.8-4.7-1.8-7.6c0.4-1.2,0.3-1.6-0.3-2.7c-0.4-0.7-0.7-1.3-0.6-1.4s3.6-1.4,7.9-2.8l7.7-2.7l1.3,1.3
		l1.3,1.3l-1.2,2.5c-1.5,3.2-1.5,4.5,0,5.5c1.1,0.7,1.3,0.7,2,0.1c1.5-1.3,3.2-1.4,4.9-0.4s3.8,1.2,5.7,0.5c1-0.4,1.2-0.7,1.2-2
		c0-1.9,0.6-2.7,3.2-4.3c1.1-0.7,2.5-2,3-2.9c1.2-2,3-3,6.2-3.3c3.2-0.3,5.2,0.5,5.8,2.4c0.9,2.9,0.9,3.8,0.3,4.8
		c-0.4,0.5-0.9,1.9-1.2,3.1c-0.4,1.7-0.7,2.2-1.3,1.9c-1.3-0.5-4.2-0.8-4.9-0.6c-1.1,0.5,0,2.5,1.5,2.8c3.5,0.7,7,0.8,8.8,0.4
		c1.9-0.6,2-0.5,3.4,1.1c0.8,0.9,1.8,1.6,2.2,1.6c1.1,0,7.5-6,8.5-7.9c0.5-0.9,1.1-2.6,1.4-3.6c0.3-1.1,1.1-2.4,1.8-2.9l1.2-1
		l1.2,1.2c0.7,0.7,1.8,1.3,2.4,1.5c1.1,0.3,1.3,0.7,1.7,3.2c0.7,3.9,0.7,6.4-0.1,7.5c-1,1.4-0.8,3.3,0.4,4.8c2.1,2.6,5,7.7,5.4,9.4
		l0.4,1.7l4.2,0.6c3.3,0.5,4.4,0.8,5.3,1.7c1.1,1.1,1.1,1.3,0.7,3.8c-0.3,1.5-0.4,2.9-0.2,3.1c0.6,0.6,10.9-0.6,12.4-1.4
		c1-0.5,1.6-0.6,2.6-0.2c0.7,0.3,2.1,0.7,3.2,0.9c1.8,0.4,2.1,0.3,2.7-0.7c0.4-0.7,1.8-1.6,3-2.1c1.4-0.6,2.3-1.3,2.5-1.9
		c0.2-0.8,0.5-0.9,1.8-0.6c2.1,0.5,1.9,0.3,4.4,3.6c1.9,2.5,2.2,3.1,2.4,5.7c0.3,3.4,0.6,3.7,5.1,4.8c1.8,0.4,3.6,0.9,4,1
		c0.4,0.1,1.1,0.9,1.4,1.7c1,2.5,2.8,3.2,8.2,3.2h4.7l0.6,1.7c0.3,1,0.7,2,0.9,2.2c0.2,0.2,1.5-0.1,2.8-0.8l2.4-1.2l0.4,1
		c1,2.9,1,3.4-0.5,4.8c-2.1,2-2.5,3.4-1.4,4.7c1.2,1.3,1.2,1.5-0.5,2.3c-1.1,0.6-1.4,0.9-1.1,1.8c0.4,1.6-0.9,4.4-2.2,4.6
		c-0.7,0.1-1.5,0.8-2,1.7l-0.9,1.6l1.5,1.3c1.9,1.5,1.8,1.9-1.6,6.4c-3.1,4.2-3.2,5.8-0.4,6.3c1.5,0.2,1.4,1.4-0.6,4.8
		c-1.4,2.5-2.1,3.3-3.5,3.9c-1.2,0.5-1.9,1.1-2.2,2.2c-0.3,0.8-0.7,1.9-0.8,2.3c-0.2,0.4-1.1,1.3-2,1.9c-1.5,1-1.6,1.2-1.6,3.9
		c0,3.1,0.9,4.7,3.4,6.1c2.2,1.2,2.4,2.9,1.3,8.2c-0.2,1.1-0.1,1.3,0.6,1.3c0.5,0,1.3-0.3,1.8-0.7c0.8-0.6,1-0.6,2,0.2
		c1.5,1.1,1.8,0.9,2.2-1.4c0.4-2.7,1.4-2.8,4.1-0.3l2.3,2.1l1.9-1c1.5-0.7,2-0.8,2.5-0.4c0.6,0.5,2.1,0.4,4.3-0.3
		c0.8-0.3,1-0.1,1.2,0.8c0.1,0.8,0.4,1,1.1,0.9c0.5-0.1,2.5-0.3,4.4-0.4c3.1-0.2,3.6-0.1,4.5,0.8c0.9,0.8,1.4,0.9,2.4,0.6
		c0.7-0.2,1.5-0.9,1.6-1.4c0.6-1.5-1.4-4.9-3.2-5.8c-0.9-0.4-1.5-1-1.5-1.6c0-0.8,0.2-0.9,2.5-0.8c3,0.2,3.6-0.6,2.2-3.2l-0.9-1.8
		l1.6-1.8c1.5-1.6,1.7-1.7,3-1.2c0.8,0.3,1.5,0.5,1.5,0.4c0,0,0.4-0.9,0.9-1.8c0.8-1.6,0.8-1.8,0.1-2.9c-0.6-0.9-0.7-1.7-0.5-3
		c0.1-0.9,0.1-2.3-0.2-3c-0.5-1.3-3.3-3.4-5-3.7c-0.7-0.1-1-0.7-1.2-2.7c-0.3-2.5-0.3-2.6,1-3.8c1.4-1.2,1.4-1.2,0.5-2.1
		c-0.7-0.7-1.3-0.7-2.7-0.5c-1,0.2-3.2,0.4-5.1,0.5c-1.8,0-4.1,0.4-5,0.8c-1,0.4-2.2,0.7-2.8,0.7c-1,0-1,0,0.2-1.3l1.3-1.3l-1.5-2.9
		c-0.7-1.7-2.2-4-3-5.3l-1.7-2.2h1.6c2.5,0,3.5-0.5,3.9-1.8c0.5-1.3,0.5-1.3,1.8,1.2c1.1,1.9,1.7,2.5,2.5,2.5c1.4,0,3.1-1.8,4.5-4.9
		c1.2-2.6,3.4-4.5,8-6.8c1.9-1,2.4-1.5,2.9-3.1c0.5-1.4,1-2.1,1.7-2.2c0.6-0.1,2.4-0.8,4.2-1.5c3.5-1.5,3.9-2.2,2.1-4l-1-1l1-0.7
		c0.6-0.4,1-1,1-1.3c0-0.8-1.5-0.5-4.6,0.8c-2.1,0.9-3.7,1-5,0.6c-1-0.4-1.1-5.9,0-6.7c0.9-0.7,0.9-1.5,0-3.3
		c-0.7-1.5-0.7-1.5,1.2-3.4c4.2-4.4,6.1-6.8,7.4-9.8c1-2.2,1.7-3.1,2.3-3.1c1.3,0,5-6.8,4.6-8.4c-0.2-0.7-0.3-2-0.3-3
		c0-1.6-0.1-1.7-1.4-1.7c-1.6,0-2.2-1.1-1.2-2.2c1.3-1.5,1.5-7.2,0.4-12.9c-0.6-2.8-1.1-5.3-1.3-5.6c-0.2-0.3-2.4-3.1-5-6.3
		l-4.6-5.8l0.3-2.2c0.1-1.2,0.4-3.4,0.6-4.8l0.3-2.6l-1.8-0.9c-0.7-0.3-1.8-0.8-2.9-1.2H217.5C216.5,322.1,215.6,322.6,212.8,324z"
		/>
	<path fill="#21468B" d="M107.7,381.7c0.3,1.2,0.7,3,0.9,4c0.2,1.6,0.7,2.2,3.9,4.8c2.9,2.3,3.9,2.9,4.9,2.7
		c0.7-0.1,2.3-0.3,3.5-0.5c2.6-0.3,2.8-0.7,3.3-5l0.3-2.7l2.7-0.3c2.3-0.3,2.9-0.5,3.7-1.7c0.6-0.8,1.3-1.4,1.6-1.4
		c0.3,0,3.6,1.7,7.3,3.7c6.2,3.5,7,3.7,9.4,3.7h2.7l0.6,2.7c0.3,1.5,0.5,3.1,0.5,3.6c0,0.6,0.5,1.3,1.1,1.7c1.4,1,8.6,2.1,13,1.9
		c3.3-0.1,3.6-0.2,5.4-1.9c1-0.9,2.9-2.4,4.1-3.3c1.9-1.3,2.5-1.5,4-1.2c2.9,0.5,5.7-1.3,12.8-8.3c8-7.9,9.1-9.4,8.4-10.9
		c-0.3-0.7-0.5-1.6-0.5-2.1c0-0.6-0.2-0.8-0.5-0.7c-0.3,0.2-0.3,0.9-0.2,1.7c0.2,0.7,0.2,1.4,0.1,1.4c-0.1,0-1-0.7-2-1.4
		c-1.2-1-2-1.3-2.3-0.9c-0.2,0.2-1.3,0.5-2.2,0.5c-1.4,0-1.8,0.2-1.8,0.8c0,0.5,0.5,1.1,1.1,1.4c0.9,0.5,1,0.5,0.1,0.5
		c-0.5,0-1.4-0.3-1.8-0.7c-0.5-0.4-1.4-0.7-2-0.7c-0.9,0-1,0.1-0.6,1.2c0.8,2,0.6,2-1.6-0.1c-1.1-1.2-2.5-2.1-3-2.1
		c-2.1,0-4.2-1.3-5.4-3.4c-1.2-2.1-3-3.5-5-3.7c-0.9-0.1-1.2,0.1-1.3,1c-0.1,0.7-0.3,1.4-0.6,1.6c-0.2,0.2-0.5,1.3-0.7,2.2
		c-0.3,1.8-0.3,1.8-2.6,1.8c-2.1,0-2.5,0.2-4,1.9c-2.4,2.6-6.8,3.7-8.1,2.1c-0.3-0.4-1.1-0.7-1.7-0.7c-0.7,0-1.5-0.2-2.1-0.6
		c-0.7-0.5-1.2-0.4-2.6,0.2c-1.5,0.7-1.8,0.7-3.2,0.1c-0.8-0.4-2.8-1.7-4.4-3c-2.5-1.9-3.3-2.3-5.7-2.6c-2.2-0.3-3.2-0.7-4.7-1.9
		c-1.8-1.5-7.2-3.6-8.9-3.5c-0.4,0-1.9,0.6-3.5,1.4c-1.6,0.7-3.6,1.4-4.7,1.4c-2.6,0-4.8,0.8-6.4,2.3c-1.6,1.5-1.6,1.8-0.3,4.8
		l1,2.3l-1.3,1.7C107.1,379.5,107,379.6,107.7,381.7z"/>
	<path fill="#21468B" d="M209.4,321.5c1.8-0.1,2.7-0.2,3.7-0.8h-8.8C206.3,321.6,207,321.6,209.4,321.5z"/>
	<path fill="#AE1C28" d="M514.4,68.4l-1-4.4l1.1-2.6c0.7-1.5,1.4-4.4,1.6-6.6c0.6-5.1,0.6-5.7,0-7.3c-0.4-1.1-0.7-1.3-2.5-1.3
		c-2.9,0-6.3-1.2-8.8-3l-2.2-1.6l-0.1-3.1l-0.1-3.2l-3.8-0.1c-3.6-0.1-4.2-0.3-7.3-2.1c-1.9-1.1-4.2-2.6-5.2-3.4
		c-2.9-2.4-5.1-7.7-5.8-13.9c-0.3-2.8-0.4-3.1-3.2-5.9c-2.5-2.7-2.9-2.9-3.5-2.2S472,8.4,467,8.3l-5.9-0.1l-6.8,2.9
		c-5.3,2.3-7.6,3-10.5,3.4c-2.1,0.2-4.9,0.7-6.4,0.9c-1.4,0.3-3.5,0.5-4.6,0.5c-1.5,0-2.7,0.4-4.2,1.4c-3.9,2.4-5,2.6-9.5,1.7
		c-2.2-0.4-5-0.7-6.3-0.7h-2.3l1.4,1.4c1.2,1.3,1.3,1.4,0.4,1.4c-0.5,0-1.4-0.3-1.9-0.7c-1.3-1-1.6-0.8-1.6,0.9c0,2,1.4,3.1,3.8,3.1
		h1.8l-0.3,1.9c-0.3,2.1-0.5,1.9,3.6,2.8c2.3,0.5,2.9,0.8,4.4,2.9c1,1.3,2.3,2.4,3,2.6c1,0.3,1.1,0.4,0.3,0.7
		c-1,0.6-3.3-0.9-4.2-2.7c-0.4-0.9-1.4-1.5-3.4-2.2c-3-1-4-0.9-4,0.4c0,0.5-0.6-0.2-1.3-1.5l-1.2-2.3l-0.7,1.2
		c-0.5,0.8-0.6,0.9-0.7,0.3c0-1-1.3-1.1-1.7,0c-0.1,0.4,0.2,1.2,0.8,1.9l1.1,1.2l-1.2-0.3c-0.7-0.2-1.4-0.3-1.7-0.3
		c-0.3,0-0.7-0.8-0.8-1.8c-0.2-0.9-0.5-2.7-0.8-3.8c-0.4-1.7-0.3-2.4,0.2-3.8c1.2-2.8,0.8-2.9-6.8-2.6c-6.9,0.3-9.6,0.9-18.2,3.5
		C377.1,23.7,361,31.6,356,35c-1.5,1-2.9,1.5-5.1,1.7c-3.5,0.4-5.1,1.4-7.6,4.8c-0.9,1.3-3.5,3.6-6,5.4c-2.4,1.7-4.8,3.5-5.4,3.9
		c-1.5,1.2-2.4,4.7-2.9,10.5c-0.5,5.7-0.9,6.9-2.8,9.3c-1.7,2.2-1.9,5-0.5,7c1.4,2,0.5,2.1-1.5,0.1c-1-0.9-1.9-1.6-2-1.5
		c-0.3,0.3,2.8,6.6,4,8.2c0.7,0.9,0.7,1.6,0.6,4.4c-0.2,2.5-0.1,3.8,0.4,4.8c0.4,0.8,0.8,2.4,1,3.6c0.3,2,0.2,2.2-0.7,2.4
		c-0.9,0.2-1,0.5-0.7,2.9l0.3,2.6l-2.4,2.2c-1.3,1.2-2.4,2.5-2.4,2.9c0,1.3,1.1,2.7,3.3,4.4c2.3,1.8,4.6,2.2,5.6,1
		c0.8-1,4-0.9,5.5,0.1c3.6,2.5,8.3,3.1,10,1.4c0.6-0.6,1.4-1,1.9-0.9c0.4,0.1,1.4-0.2,2.2-0.6c1.7-0.9,2.4-0.9,2.4,0
		c0,1.1,1.6,1.6,4.7,1.6c2.6,0,2.8,0,2.4,0.9c-0.4,0.6-1.2,0.9-3,1.1c-2.2,0.2-2.7,0.4-3.9,1.8c-0.7,0.8-1.5,2-1.6,2.4
		s-1.2,2.1-2.2,3.6l-1.8,2.7l-0.3,9.4l-0.3,9.3l1.8,2.5c1,1.4,2.9,3.4,4.4,4.5l2.6,2l5.6,0.1c5.2,0.1,6,0,11-1.5
		c2.9-0.9,7.2-1.9,9.3-2.2c4.1-0.6,4.1-0.7,6.7-3.8c0.7-0.8,0.8-0.8,2.6,0.2c1.1,0.6,1.9,1.4,1.9,1.7s-0.8,1.4-1.8,2.2
		c-1.6,1.4-2,1.5-6.4,1.8c-4.3,0.2-8.6,1.1-11.3,2.2c-0.6,0.2-0.9,0.6-1,1.2h95.1c-0.7-1.5-0.6-3.3,0.3-6.2c0.6-1.9,1.6-3.9,2.2-4.4
		c1-1,1.1-1,4.2-0.2c2.4,0.6,3.5,0.7,4.5,0.3c1.8-0.7,4.9-0.7,5.3,0c0.1,0.2,0.8,0.5,1.5,0.5s1.5,0.3,1.7,0.7s1.4,0.8,2.4,1
		c1.5,0.2,2.2,0.1,3.5-0.9c1.5-1.1,1.6-1.2,3.3-0.4c0.9,0.4,2,0.8,2.4,0.9c0.9,0.3,3-2.3,3.4-4.3c0.2-0.8,0.5-6.8,0.7-13.5l0.4-12.1
		l1.4-2.4c0.9-1.7,1.5-3.4,1.7-5.6c0.3-3.3,1.7-6.2,5.8-11.7c1.2-1.6,1.9-3.3,2.5-6.3c0.5-2.2,0.9-4.5,0.9-5.1s0.3-1.3,0.7-1.6
		c1.3-1,1.3-3.6,0.2-9.5C515.9,75.3,515,70.8,514.4,68.4z"/>
	<path fill="#AE1C28" d="M347.7,159.3c0,0-0.1,0-0.1,0.1h8.5c-0.8-0.3-1.5-0.7-1.7-0.9C353,157.3,351.5,157.4,347.7,159.3z"/>
	<path fill="#AE1C28" d="M359,14.2c1-1.4,1.8-1.4,7-0.6c3.4,0.5,3.8,0.5,7.7-0.7c2.2-0.7,5.7-1.6,7.6-2.1c2.6-0.7,3.6-1.1,3.6-1.7
		c0.2-0.8-0.1-0.8-5.1-0.5c-2.9,0.2-5.8,0.6-6.5,0.8c-1.5,0.6-16.4,1.2-16.7,0.7c-0.2-0.4-4.2-2.2-4.7-2.2c-0.2,0-0.8,0.4-1.4,0.9
		c-1.5,1.3-1.9,4.4-0.7,5.7c0.5,0.6,1.5,1.2,2.3,1.5C354.1,16.9,357.9,15.9,359,14.2z"/>
	<path fill="#AE1C28" d="M336.1,16.9c1.3-1.2,2-1.5,2.8-1.4c2.2,0.6,5.8-2.8,4.9-4.4c-0.4-0.6-1.6-0.6-2.6,0
		c-0.4,0.2-5.9,2.2-12.4,4.4c-10.7,3.7-12.1,4.1-16.4,4.4c-5.8,0.3-6.6,0.7-7,2.4c-0.1,0.8-1,2.1-1.9,2.9c-1.7,1.6-1.9,2.2-1,4
		c0.4,1,0.8,1.2,2.5,1.2c1.7,0,2.2-0.2,3-1.5c1.6-2.4,2.2-2.7,5.7-2.7h3.3l4-3c3.9-2.9,4.1-2.9,7.6-3.2
		C332.6,19.7,333.6,19.2,336.1,16.9z"/>
	<path fill="#AE1C28" d="M402.2,9.3c0.4,1.3,1.1,1.2,2.6-0.2c0.9-0.9,2.1-1.3,5.8-1.8c3.3-0.5,4.9-1,5.6-1.6
		c0.6-0.5,1.8-1.3,2.9-1.7c2.5-1,4.4-2.4,4.4-3.3c0-1-2.8-0.7-5.1,0.5c-1.4,0.7-2.9,1.1-4.4,1.2c-3.3,0-9.7,1.8-11.4,3.1
		c-1.4,1.1-2.1,3-1.1,3C401.6,8.4,402,8.8,402.2,9.3z"/>
	<path fill="#AE1C28" d="M268,59.8c-0.9,1-3.1,4.3-5.1,7.3c-1.9,3.1-4.4,7.1-5.6,8.9c-1.9,3-2.2,3.6-2.4,7c-0.2,2.1-0.4,4.4-0.6,5.1
		c-0.5,2.2,1,3.6,3.9,3.9c2.1,0.2,2.3,0.1,2.3-0.7c0-0.6-0.2-1.1-0.5-1.3c-0.2-0.1-0.5-0.7-0.5-1.2c0-0.8,0.1-0.8,1.6-0.2
		c2.1,0.8,1.9,0.9,2.6-0.7c0.3-0.8,1.4-1.8,2.7-2.5c1.2-0.7,3.1-2.1,4.2-3.2c1.8-1.8,2.1-2.5,3.5-7.9c1.7-6.5,1.6-8.1-0.3-10.9
		c-0.6-0.9-1.1-2.2-1-2.9c0.1-1-0.2-1.4-1.6-1.8C269.7,58.1,269.6,58.1,268,59.8z"/>
	<path fill="#AE1C28" d="M287.3,157.1c0-0.7,0.3-2,0.7-2.8c0.7-1.4,0.8-1.4,3-1.2c1.4,0.2,2.4,0,2.8-0.3c0.7-0.7,3.8,0.8,4.1,2
		c0.2,0.7,0.7,0.9,2.3,0.9c1.8,0,2.6-0.4,5.4-2.4c3.3-2.4,4.1-3.6,4.1-5.8c0-1.8,2-3.5,4.1-3.5c1.5,0,2-0.2,2.6-1.3
		c0.7-1.2,0.7-1.3-0.4-2.6c-0.6-0.7-1.1-1.9-1.1-2.7c0-2.7-0.8-3.6-3.5-4c-1.4-0.1-2.8-0.6-3.1-1c-0.3-0.4-1.1-0.7-1.9-0.7
		c-1,0-1.5,0.3-2.1,1.4c-0.6,1.1-1,1.4-2.2,1.4c-2.2,0-3.4-1-4.1-3.5c-0.6-2-0.5-6.5,0.3-10.7c0.4-2.4-1.6-7.8-4.3-11.3
		c-1.2-1.6-2.3-3.8-2.8-5.4c-0.7-2.6-0.8-2.7-2.5-3c-4.5-0.7-7,0-8.7,2.5c-0.7,1-2.3,2.5-3.6,3.2c-2,1.1-2.6,1.3-3.8,0.9
		c-0.8-0.2-2.3-0.5-3.3-0.7c-2.6-0.4-5.5-3.1-5.5-5.2c0-0.9,0.2-2,0.5-2.4c0.4-0.6,0.4-1.3,0.1-2.2c-0.5-1.6-2.2-2-5.3-1.1
		c-2.8,0.7-3.7,2.5-3.7,7c0,3.6-2.2,15.3-3.5,19.1c-0.4,1.1-1.5,3.2-2.3,4.7c-1.3,2.2-1.6,3.2-1.8,6.4c-0.1,2.1-0.6,4.7-1,5.9
		c-0.7,1.8-0.7,2.9-0.3,6.3c0.4,3.7,0.3,4.2-0.5,5.2c-0.7,0.9-0.8,1.9-0.8,5c0,1.3-0.1,2.7-0.3,3.8h42.8
		C287.5,158.4,287.3,157.6,287.3,157.1z"/>
	<path fill="#AE1C28" d="M285.5,43c1.5-0.5,3.4-1.4,4.2-2c0.9-0.6,2.3-1.3,3.1-1.5c1.5-0.3,2.9-1.3,2.9-2.2c0-0.5-2.1-0.5-3.8,0
		c-2.3,0.7-11.2,5.7-11.9,6.7c-0.4,0.6-0.7,1.4-0.7,1.9c0,0.6-0.9,1.3-3,2.2c-1.7,0.8-3.1,1.6-3.3,1.9c-0.1,0.2-0.7,0.4-1.4,0.4
		c-1,0-1.2,0.2-1,1.3c0.1,1.3,0.3,1.3,2.8,1.5l2.7,0.1l3.2-2.9c3.7-3.5,4-3.8,3.8-5.4C282.9,43.9,283.1,43.7,285.5,43z"/>
</g>
</svg>
