<?xml version="1.0" encoding="utf-8"?>
<!-- Generator: Adobe Illustrator 17.1.0, SVG Export Plug-In . SVG Version: 6.00 Build 0)  -->
<!DOCTYPE svg PUBLIC "-//W3C//DTD SVG 1.1//EN" "http://www.w3.org/Graphics/SVG/1.1/DTD/svg11.dtd">
<svg version="1.1" id="flag-icon-css-no" xmlns="http://www.w3.org/2000/svg" xmlns:xlink="http://www.w3.org/1999/xlink" x="0px"
	 y="0px" viewBox="0 0 640 480" enable-background="new 0 0 640 480" xml:space="preserve">
<g>
	<path fill="none" d="M366.6,68.7c0,0.6,0.2,1.1,0.5,1.1c0.3,0,0.5-0.1,0.5-0.4c0-0.2-0.2-0.7-0.5-1
		C366.7,67.8,366.6,67.9,366.6,68.7z"/>
	<path fill="none" d="M409,39.1c-0.7,0-1,0.6-1,1.8c0,1.3,0.7,0.9,1.2-0.8C409.3,39.6,409.3,39.1,409,39.1z"/>
	<path fill="none" d="M341.5,97.3l-1.1,0.9l1.3-0.8c0.7-0.4,1.3-0.8,1.3-0.9C342.9,96.1,342.5,96.3,341.5,97.3z"/>
	<path fill="none" d="M341.6,91.9c0.3-0.8,0-0.9-0.4-0.2c-0.2,0.3-0.2,0.6-0.1,0.7C341.3,92.5,341.5,92.3,341.6,91.9z"/>
	<path fill="none" d="M361.4,79.1c-0.9,0-0.9,0.1-0.4,0.5c0.9,0.6,1.4,0.6,1.4,0C362.4,79.3,362,79.1,361.4,79.1z"/>
	<path fill="none" d="M303,156.6c0.4,0.1,1.1,0.1,1.4,0c0.3-0.1,0-0.2-0.8-0.2C302.9,156.4,302.6,156.5,303,156.6z"/>
	<path fill="none" d="M363.5,59.6c0.1-0.5,0-0.9-0.2-0.9s-0.4,0.4-0.4,0.9s0.1,0.9,0.2,0.9S363.4,60.1,363.5,59.6z"/>
	<path fill="#ED2939" d="M179.7,313.4c0-1.7-2-1.6-2.5,0.2c-0.2,0.9-0.3,0.9-1.2-0.3c-1.1-1.4-2-1.6-2.8-0.6c-0.6,0.7-2.3,1-2.3,0.3
		s-3.5-0.4-4.6,0.4c-0.7,0.5-1.1,1.3-1.2,2.3c-0.1,1.4-0.3,1.6-1.4,1.8c-0.7,0.1-1.3,0.5-1.3,0.8c0,1.1,1.6,1.6,4.5,1.6l2.7,0
		l-1.9,0.7c-4,1.6-5.4,1.3-6.3-1.1c-0.3-0.8-0.7-1.1-1.6-0.9c-1.3,0.1-1.8,0.8-2.3,2.8c-0.2,1.1-0.4,1.2-1.1,0.8
		c-0.5-0.2-1.5-0.3-2.4-0.2c-1.3,0.3-1.4,0.5-1.3,1.8c0.1,1.1,0.4,1.5,1.3,1.6c0.6,0.1,1.5,0,2.1-0.3c2.3-1.1,2.4-1,3.8,2l1.3,2.9
		l-1.7,0.2c-1,0.1-1.8,0.1-1.8,0.1s0.3-0.7,0.7-1.3c0.4-0.7,0.6-1.6,0.4-2.1c-0.2-0.7-0.6-0.8-3.2-0.6c-2.5,0.2-3.2,0.1-4-0.7
		c-0.9-0.8-1-0.8-1.6,0c-0.4,0.5-0.7,1-0.7,1.1c0,0.6,1.2,1.8,1.9,2c0.6,0.2,0.5,0.3-0.3,0.7c-0.9,0.5-1.1,0.4-1.8-0.6
		c-0.4-0.7-0.7-1.7-0.7-2.4c0-1.3-1.7-2.7-3-2.4c-1.3,0.2-1.2,2.7,0.1,3.2c1.3,0.5,2,1.3,2.3,2.8c0.3,1.1,0.1,1.3-1,1.5
		c-1,0.3-1.4,0.1-2.1-0.7c-0.5-0.6-0.8-0.9-0.8-0.7s-0.3,0.1-0.7-0.2c-0.9-0.7-1.8-0.2-1.2,0.8c0.6,1-0.2,2.4-1.3,2.4
		c-1.3,0-2,1.6-1.4,3c0.7,1.4,0.7,1.4,4.2,0.2c3.1-1.1,4-0.8,2,0.7c-0.9,0.7-1.3,1.3-1.1,1.8c0.4,1-1.9,1.6-2.5,0.7
		c-0.3-0.5-0.6-0.4-1.4,0.3c-1.3,1.2-1.1,3.1,0.6,3.9c1.5,0.7,1.7,1.5,0.3,1.5c-1.3,0-1.2,0.8,0.5,2.2c1.7,1.4,1.8,2,0.3,2
		c-0.7,0-1.7,0.2-2.5,0.5c-1.2,0.5-1.3,0.6-0.4,0.9c0.7,0.3,0.8,0.4,0.2,0.6c-3.2,1-4.7,1.3-5.5,1.1c-1.4-0.5-2.3,1.3-1,2
		c0.7,0.3,0.9,0.4,0.9,0c0-0.7,2.4-1.5,2.9-1c0.3,0.3,0.8,0.2,1.5-0.3c1.1-0.7,1.1-0.7,1.1,0.6c0,0.8-0.3,1.3-0.9,1.5
		c-1.3,0.3-1.2,1.8,0.3,2.4c0.7,0.3,1,0.8,0.9,1c-0.4,0.7-1.3,0.6-2.6-0.5c-0.7-0.5-1.9-0.9-2.7-0.9h-1.5l1.1,0.9
		c1,0.8,1,0.9,0.3,1.2c-0.5,0.2-0.8,0.8-0.8,1.4s-0.2,1.1-0.5,1.1c-0.2,0-0.5-0.4-0.5-0.8c0-0.6-0.4-0.4-1.4,0.8l-1.4,1.5l1,1
		c0.9,0.9,1,0.9,1.8,0.2c0.8-0.7,2.1-1.3,3.2-1.3c0.7,0,2.2-1.5,2.6-2.6c0.4-1,0.5-1,1.8-0.3c0.7,0.4,1.4,0.9,1.4,1.1
		c0,0.2,0.4,0.5,0.9,0.6s0.9,0.6,0.9,1c0,0.9,1.5,1,2.9,0.1c0.6-0.4,2.5-0.8,4.3-1.1c1.8-0.3,3.6-0.6,4.1-0.8
		c0.6-0.2,0.7-0.1,0.6,0.4c-0.3,0.8,1.6,1.5,2.3,0.8c0.2-0.2,0.8,0,1.3,0.7c1,1.2,3,1.5,4.6,0.6c0.5-0.2,1.3-0.4,1.9-0.3
		c0.9,0.1,0.8,0.3-0.5,1.8c-1.2,1.3-1.8,1.6-3.3,1.6c-1.2,0-2-0.3-2.4-0.8c-0.3-0.4-1.7-1.1-3-1.5c-2.3-0.7-2.6-0.7-3.6,0
		c-1,0.7-1.2,0.7-1.2,0c0-0.4-0.3-0.7-0.6-0.7c-0.3,0-1.1-0.1-1.6-0.3c-0.8-0.2-1.1-0.1-1.1,0.4c0,0.5-0.8,0.9-2.3,1.3
		c-2.1,0.5-2.5,0.5-3.9-0.4c-1.8-1.1-3.8-1.3-4.4-0.4c-0.2,0.3-1.3,1.1-2.6,1.7c-2,1-2.1,1.2-1.2,1.4c1,0.2,1,0.3,0.2,0.7
		c-0.6,0.3-0.8,0.7-0.6,1.3c0.3,0.7,0.4,0.7,0.8,0.2c0.4-0.5,0.6-0.6,0.7-0.1c0.1,0.3,0.6,0.6,1.1,0.6c0.5,0,0.9,0.2,0.9,0.5
		c0,0.7,3,1.8,4.1,1.5c0.6-0.1,1,0,1,0.3c0,0.3-0.3,0.5-0.7,0.5c-1,0-0.9,2,0.2,3c0.5,0.5,0.8,1,0.7,1.2c-0.1,0.2-1.5-1-3.2-2.7
		c-2.5-2.6-3.2-3-4.1-2.7c-1.6,0.5-1.6,0.7-0.4,1.6c2.1,1.6,2.8,2.3,2.8,3c0,1-0.8,0.9-1.1-0.1c-0.3-0.8-3.5-3.2-3.5-2.6
		c0,1,2.2,4.1,3.2,4.6c0.6,0.2,1,0.8,1,1.3c0,0.8,0,0.8-1.4,0c-1.1-0.6-1.5-0.7-2-0.2c-0.9,0.9-1.2,0.7-1.5-1.4
		c-0.5-3-1.3-1.5-1,1.7c0.4,2.7,1.1,3.4,1.9,1.7c0.5-1.1,0.9-0.8,2.4,1.3c1.2,1.7,1.3,3.2,0.3,3.6c-0.5,0.2-0.7,0-0.7-0.8
		c0-0.7-0.3-1.2-1-1.3c-0.9-0.2-1-0.1-0.8,1.1c0.1,0.8,0,1.6-0.4,1.9c-0.5,0.4-0.5,0.7,0,1.2c1,1,0.9,2-0.2,1.7
		c-1.1-0.3-1.3,0.8-0.2,1.7c0.4,0.3,0.7,0.9,0.7,1.4s0.3,1.1,0.7,1.4c0.8,0.7,1.3-0.1,1.4-2.3c0-0.7,0.1-1.7,0.1-2.3
		c0.1-1.8,1-1.1,1,0.8c0,2.3,0.4,3.3,1.3,3.3c0.5,0,0.6,0.3,0.4,1c-0.3,0.9,0.3,1.8,1.3,1.8c0.2,0,1.1-0.8,2-1.7
		c1.6-1.8,2.5-1.9,1.6-0.2c-0.9,1.8-0.7,2.4,0.9,2.1l1.4-0.3l-0.7,1.6c-0.6,1.5-0.8,1.6-3,1.7c-2,0.1-2.4,0-2.4-0.6
		c0-0.4-0.3-0.7-0.7-0.7c-0.5,0-0.7,0.5-0.7,2c0,1.3-0.1,1.8-0.4,1.3c-0.2-0.4-0.3-1.3-0.2-2.1c0.3-1.8-0.4-2.8-1.4-2.4
		c-0.6,0.2-0.7,0.7-0.6,1.7c0.2,1.4,0.2,1.4-1.6,1.1c-2.1-0.4-2.2,0.5-0.1,1.6c1.1,0.6,1.3,0.6,1.7,0c0.4-0.6,0.5-0.6,0.7,0.1
		c0.4,0.9-1.4,3.5-1.9,2.7c-0.1-0.2-0.8-0.5-1.5-0.5c-1,0-1.1,0.1-0.8,1c0.7,2.1,1.2,6.7,0.9,8.4c-0.3,2.2,0.4,2.3,1.6,0.1
		c0.9-1.6,2-2.1,2.6-1.2c0.1,0.2-0.1,1.1-0.7,1.9c-0.5,0.7-1.3,2-1.9,2.8c-0.5,0.7-0.9,1.8-0.9,2.3c0,0.6-0.6,1.7-1.3,2.7
		c-0.7,1-1.3,2.4-1.4,3.3c0,0.9-0.2,2.6-0.4,3.7c-0.3,1.9-0.3,2,0.9,2c1,0,1.4-0.3,1.9-1.6c0.4-0.8,1-1.7,1.4-1.9
		c1.1-0.4,1.5,0.1,0.5,0.7c-0.9,0.5-1.1,2.9-0.2,2.7c0.3-0.1,0.8-0.9,1.2-1.7c0.4-0.8,1-1.5,1.4-1.5s1-0.2,1.3-0.6
		c0.4-0.4,0.6-0.4,0.6,0.2c0,0.7,0.1,0.7,1.3-0.2c2.4-1.8,7-0.7,7.6,2c0.4,1.3-0.6,1.6-1.1,0.2c-0.3-1-0.7-1.2-2-1.2
		c-2.1,0-3.7,0.5-3.3,1c0.1,0.2,0.7,0.4,1.2,0.4c0.6,0,0.9,0.3,0.9,1c0,0.5,0.4,1.1,0.8,1.2c0.4,0.1,1,0.7,1.3,1.4
		c0.6,1.3,0.6,1.3-1.9,1.8c-1.5,0.4-2.1,1.6-1.2,2.3c1.2,0.9,2.3,2.7,2.3,3.9c0,1.4-0.5,1.3-2.1-0.3c-0.7-0.8-1.7-1.3-2-1.3
		c-0.5,0.1-0.8-0.3-0.9-1.2c-0.1-0.7-0.4-1.3-0.8-1.3c-1,0-0.8-0.6,0.5-1.8c1.3-1.3,1.2-2.1-0.7-2.8c-1.8-0.7-2.5-0.2-2.1,1.4
		c0.1,0.7,0.1,1.3-0.1,1.3s-0.5,1.4-0.7,3.1c-0.2,3.1-1.7,7.1-2.6,7.1c-0.9,0,2,7.4,3.8,9.5c2.5,3,7.6,7.9,10.6,10
		c1.2,0.8,2.4,2,2.7,2.4c0.3,0.5,1.2,0.8,1.9,0.9c0.7,0,1,0.1,0.6,0.3c-0.9,0.3-2.8,2.6-2.8,3.2c0,0.6,2.7,1.8,5.7,2.6
		c1.2,0.3,2.2,0.7,2.2,0.9c0,0.2,0.5,0.1,1.2-0.3c1.3-0.8,1.4-0.7,0.6,0.7c-0.7,1.2-0.1,1.7,0.9,0.8c1.1-1,2.4-1,2.7-0.1
		c0.2,0.5,0.9,0.7,2.3,0.7c1.1,0,2.2,0.2,2.3,0.5c0.5,0.7,1.8,0.5,3-0.5c0.8-0.7,1.9-0.9,3.9-0.9c2.4,0,2.7-0.1,2.7-0.9
		c0-1.4,1.1-1.6,2.2-0.5V314.5C179.8,314.4,179.7,314,179.7,313.4z"/>
	<path fill="#ED2939" d="M357.6,50.3c-1.6,0.7-1.5,2,0.2,2.2c1.5,0.2,2.4-0.8,2.2-2.8c-0.1-1.2-0.4-1.6-1.2-1.7
		c-0.7-0.1-1.1,0.1-1.1,0.5s0.3,0.8,0.6,0.9C358.7,49.6,358.4,49.9,357.6,50.3z"/>
	<path fill="#ED2939" d="M178.3,303.6c-0.1,0,0,0.3,0.4,0.5c0.3,0.2,0.7,1,0.8,1.8c0.2,1.2,0.1,1.5-1.3,2.4c-0.9,0.6-2,0.8-2.7,0.7
		c-0.8-0.1-1.6,0.1-2.6,0.9c-0.7,0.7-1.2,1.3-1.1,1.5c0.2,0.1,1.6,0,3.3-0.3c2.3-0.4,3.8-0.7,4.9-0.7v-8.2
		C179.2,302.9,178.4,303.5,178.3,303.6z"/>
	<path fill="#ED2939" d="M504.1,44.3c-0.4-0.4-0.9-1.4-1.2-2.3c-0.4-1.6-0.6-1.7-2.2-1.8c-2.6-0.1-3.9,0.2-3.9,1
		c0,1.1-0.7,0.8-1.4-0.6c-0.4-0.7-0.7-1.3-0.7-1.4c0,0-0.4,0-0.8,0.2c-0.6,0.2-0.7,0.6-0.5,1.4c0.4,1.4-0.4,2.3-2.7,3.5
		c-2.4,1.2-2.4,1.2-0.7-0.8c1.5-1.6,1.7-3.2,0.5-4c-0.9-0.7-2.6-0.4-3,0.4c-0.5,0.8-0.5,0.8-0.5,0c0-0.7-0.2-0.7-1.1-0.4
		c-1.1,0.4-1.1,0.4-0.9-1.1c0.2-1.4,0.1-1.6-1.4-2.1c-1.3-0.4-1.9-0.4-2.7,0c-0.7,0.4-1.1,0.4-1.3,0c-0.2-0.3-1.6-0.7-3.1-0.9
		c-2.4-0.3-2.7-0.5-2.9-1.4c-0.1-0.9,0-1,0.7-0.7c1.2,0.6,12.6,0.5,14.5-0.1c1.5-0.5,2.1-1.2,3.8-5c0.7-1.5,1.3-2.1,4.3-4.3
		c1.5-1.1,2.1-1.9,2-2.4c-0.1-0.4-0.3-1.3-0.3-2c0-1-0.3-1.4-1.3-1.8s-1.5-0.3-2,0.2c-0.5,0.6-0.7,0.5-1.4-0.7
		c-0.4-0.7-1.3-1.7-1.9-2c-0.9-0.7-1.2-0.7-3.3,0.4l-2.3,1.2l0.8-1.2c0.9-1.5,0.6-2.6-0.9-2.6c-0.9,0-1.1-0.2-0.9-1
		c0.2-0.8,0.1-0.9-1.3-0.8c-1.3,0.1-1.6,0.3-1.7,1.4c-0.2,1.6-1,1.7-1,0.2c0-0.6-0.3-1.3-0.7-1.7c-0.6-0.5-1-0.3-2.6,0.9
		c-1.1,0.9-1.9,1.3-1.8,0.9c0.2-1.4,0-2.8-0.4-2.5c-0.2,0.1-0.9-0.4-1.4-1.2c-0.7-1-1.4-1.4-2.3-1.4c-1.9,0-3.7,0.8-4,1.7
		c-0.1,0.5-0.6,1.4-0.9,2.1c-0.7,1.5-0.9,10.1-0.2,10.1c0.3,0,0.5,0.2,0.5,0.5c0,0.2-0.9,0.5-2,0.5c-1.5,0-2.3,0.3-3.3,1.3
		c-1.7,1.6-1.6,1,0.3-2.7c1.3-2.7,1.5-3.2,1.1-4.7l-0.5-1.6l-0.6,1.2c-0.4,0.7-1.2,1.4-1.8,1.7c-1.5,0.7-1.5,0.7,0-1.3
		c1-1.4,1.1-1.6,0.4-2c-0.4-0.2-1.2-0.3-1.9-0.1c-0.6,0.2-1.1,0.1-1.1-0.1c0-0.5,1.6-1,3.1-1c0.8,0,1.3-0.6,2.2-2.3
		c1.4-2.7,1.4-4,0.2-5.6c-0.7-0.9-1-1.1-1.4-0.6c-0.9,0.9-1.3,0.7-1.3-0.7c0-1.9-0.4-2-2.3-0.7c-1.1,0.7-1.9,1-2.6,0.7
		c-0.6-0.2-1.5-0.3-2.1-0.3c-1.1,0-1.2,0.1-1.1,1.8c0.1,1.5,0,1.7-0.7,1.5c-2.1-0.6-2.2-0.6-2.2,0.5c0,0.6-0.3,1.3-0.7,1.5
		c-0.5,0.3-0.6,0.7-0.1,1.6c0.4,0.9,0.9,1.2,2.2,1.3c1.9,0.1,2.6,1,1.1,1.4c-0.5,0.1-0.9,0.6-0.9,1.2c0,0.5-0.3,1.2-0.7,1.5
		c-0.4,0.3-0.7,1.3-0.7,2.5c0,1.1-0.1,2.7-0.3,3.7c-0.2,1.2-0.1,2,0.4,2.8c0.9,1.4,0.7,1.7-1.3,1.3c-1.5-0.2-1.6-0.2-1.6,1
		c0,0.7-0.3,1.3-0.7,1.5s-0.6,0.6-0.4,1.1c0.1,0.5-0.1,1-0.6,1.2c-0.7,0.3-0.7,0-0.5-1.5c0.1-1,0.1-2-0.1-2.1
		c-0.2-0.1-0.2-1.2,0-2.4c0.4-1.9,0.4-2.3-0.5-3.1c-0.9-0.9-1.1-0.9-2-0.4l-1,0.7l0.9-1.1c0.5-0.6,1.1-1.2,1.2-1.3
		c0.9-0.7,1.3-2.6,1.3-5.1c-0.1-3.1-0.7-4.4-1.8-4c-0.8,0.3-3.3,4-3.3,4.8c0,0.3-0.4,0.9-1,1.4c-0.7,0.6-1.1,1.7-1.4,4.5
		c-0.3,2.3-0.8,4.1-1.3,4.7c-0.5,0.5-1.1,1.7-1.3,2.7c-0.3,1-0.9,2.4-1.4,3.1c-1,1.4-1.3,4-0.6,4.5c0.5,0.3,0,2.2-1.1,4.3
		c-0.4,0.8-0.7,2-0.8,2.7c0,1.3,0,1.3-0.5-0.2c-0.6-1.9-1.3-1.7-2.1,0.4l-0.6,1.6l0-2.4c0-1.8,0.2-2.7,0.9-3.6
		c0.7-1,0.9-1.7,0.7-2.9c-0.2-1,0-2,0.5-2.9c0.7-1.2,0.7-1.4-0.2-3.3l-1-2l1.4-2.6c0.8-1.4,1.8-3.1,2.3-3.7c0.5-0.6,0.9-1.4,0.9-1.9
		c0-0.5,0.3-1.2,0.7-1.7c0.4-0.5,0.7-1.4,0.7-2.2c0-1.1-0.1-1.3-1.6-1.3c-0.9,0-1.7,0.2-1.8,0.6c-0.1,0.4-0.6,0.2-1.2-0.5
		c-1.2-1.2-2.9-1.3-2.9-0.3c0,0.7,0.2,1.2,1.3,3.3c0.4,0.8,0.4,1-0.2,1.3c-0.4,0.1-0.7,0-0.8-0.3c-0.6-1.9-0.8-2.2-1.4-2.5
		c-0.4-0.2-1,0-1.4,0.6c-0.7,0.8-0.7,0.8-0.4-0.6c0.3-1.5-0.5-2.6-1-1.3c-0.4,1.1-1.4,0.9-1.8-0.4c-0.2-0.8-0.6-1.2-1.4-1.2
		c-1.3,0-1.9,1.3-1.3,3.4c0.6,2.5,0.2,3.6-0.9,2.7c-1.1-0.9-1.7-0.2-1.7,1.9c0,1.8,0,1.8,1.6,1.8c1.2,0,1.9,0.3,2.8,1.4
		c0.7,0.8,1.2,1.9,1.2,2.4c0,0.9-0.1,0.8-1.3-0.6c-1.7-2.1-3-1.9-3.4,0.7c-0.4,2.1-1.4,4.9-1.9,4.9c-0.2,0-0.1-0.8,0.1-1.8
		c0.5-2.3,0.3-2.8-2-4.7c-2.7-2.1-3.6-2-3.6,0.6c0,1.7-0.2,2.2-1.3,3l-1.3,0.9l1.6,0.7c0.9,0.4,2.4,0.8,3.4,1
		c1.6,0.3,1.7,0.4,1.1,1.1c-0.4,0.4-1.2,1.7-1.9,2.8l-1.2,2.1l0.3-1.7c0.3-1.5,0.1-1.8-1.1-2.7c-1.3-1-4-1.3-5-0.6
		c-0.6,0.4-2.7,3.7-3.1,4.8c-0.3,0.8,1.1,2.4,2.4,2.8c0.4,0.1,0.5,0.3,0.1,0.5c-0.3,0.2-1.1-0.2-1.7-0.8c-0.7-0.7-1.8-1.2-2.4-1.2
		c-1.3,0-3.6,2-3.3,2.9c0.3,1,3.3,2.2,5.6,2.2c2,0,2.2-0.1,2.2-1.2c0-0.8,0.2-1.1,0.6-0.9c0.3,0.1,0.9,0.4,1.4,0.6
		c0.5,0.2,0.8,0.8,0.8,1.6c0,0.7,0.2,1.3,0.6,1.3c0.3,0,0.2,0.2-0.2,0.5c-2.1,1.3,0.1,5.1,2.8,5.1c0.8,0,1,0.1,0.6,0.4
		c-0.3,0.2-1,0.3-1.4,0.2c-0.6-0.1-1.1,0.2-1.5,1l-0.7,1.3l-0.3-1.5c-0.2-0.8-0.6-1.4-1-1.4s-0.8-0.7-0.9-1.6
		c-0.2-0.9-0.5-1.6-0.7-1.6c-0.3,0-0.5-0.7-0.5-1.4c0-1.4,0-1.4-2.7-1.4c-1.6,0-3.1-0.3-3.6-0.7c-1.3-0.8-4.8-2.1-6-2.1
		c-1,0-2,1.6-2,3.1c0,1-1.9-0.1-2.2-1.2c-0.2-0.7-0.4-0.7-2.2,0.6c-1.1,0.8-2.2,1.9-2.3,2.3c-0.3,0.9,0.9,2.7,1.9,2.7
		c0.3,0,0.8,0.4,1.1,0.8c0.5,0.9,4.7,3.3,6,3.4c0.5,0,0.6,0.1,0.2,0.3c-0.3,0.1-0.6,0.8-0.6,1.6c0,1.3-0.7,1.9-1,0.8
		c-0.1-0.4-0.4-0.4-1.2,0c-0.8,0.4-1.1,0.4-1.3-0.4c-0.4-1.2-2.7-2.4-3.7-2c-0.6,0.2-0.7,0.7-0.5,2c0.2,1.5,0.1,1.9-1.1,3.2
		c-1.2,1.3-1.4,1.3-1.4,0.6c0-0.5,0.2-1,0.5-1.2c0.8-0.5,0.5-1.2-0.5-1.2c-0.5,0-1.2,0.4-1.5,0.9c-0.5,0.8-0.7,0.8-1.3,0.2
		c-0.7-0.6-0.9-0.6-1.6-0.1c-0.7,0.5-0.9,1.7-1.2,7c-0.2,3.5-0.6,6.6-0.8,6.8c-0.6,0.6-0.7-6.6-0.1-9.7c0.5-2.6,0-4.3-1.5-5.6
		c-0.8-0.7-1.9,0.3-2.4,2.2c-0.2,0.7-0.9,1.9-1.7,2.8c-0.7,0.9-1.5,2.4-1.7,3.3l-0.5,1.6l-0.3-2c-0.2-1.1-0.6-2-0.9-2
		c-1.2,0-6.7,2.9-6.7,3.5c0,0.4-0.3,0.7-0.7,0.7c-0.8,0-0.9-0.2-0.1-1.3c0.7-1.2-0.3-2.7-2.6-4c-2.2-1.2-3-0.6-2,1.5
		c0.9,1.7,1,3.2,0.1,1.6c-0.5-0.9-0.7-0.9-1.4-0.4c-0.5,0.4-1.4,0.6-2.1,0.4c-1-0.2-1.4,0-2.1,1c-0.8,1.2-0.8,1.3,0.3,1.5
		c0.9,0.3,0.9,0.3-0.6,0.6c-1.5,0.2-1.6,0.4-1.9,2.3c-0.2,1.2-0.1,2.2,0.2,2.3c0.2,0.1,0.8,0.6,1.3,1.1c1,1,3,0.8,4.8-0.3
		c0.5-0.3,1.4-0.7,2.1-0.8c0.8-0.1,1.4-0.7,2.2-2.4c1.2-2.4,2.3-2.4,1.4,0c-0.3,1.1-0.3,1.7,0,2.4c0.3,0.5,0.5,1.3,0.5,1.9
		c0,0.5,0.5,1.7,1,2.7l1,1.8l-1.2-1.4c-0.7-0.8-1.3-2.2-1.4-3.1c-0.1-0.9-0.5-1.8-0.7-2c-0.2-0.1-1.5,0.1-2.9,0.7
		c-1.3,0.5-2.6,0.9-2.6,0.9c-0.1,0-0.1,0.5-0.1,1.2c0,0.7,0.7,2,1.9,3.2c2,2.2,2,2.9,0,1.9c-0.8-0.4-1.7-1.4-2.1-2.5
		c-0.5-1.2-1.1-1.9-1.6-1.9c-1,0-2.3,1.2-2.3,2.1c0,0.4-0.2,0.6-0.5,0.4c-0.3-0.2-0.3-0.9-0.2-1.6c0.4-1.7-2.3-5-3.3-4.1
		c-0.5,0.4-0.7,0.4-0.7,0c0-0.5-0.1-0.5-0.7,0c-0.5,0.5-0.9,0.5-1.7,0c-1-0.6-1-0.5-0.7,1.1c0.2,1.5,0.2,1.6-0.6,1.2
		c-1.2-0.7-1.9-0.6-1.9,0.2c0,0.4-0.3,0.7-0.7,0.7c-0.9,0-0.9,0.5,0,1.7c0.7,0.9,0.7,1.1-0.2,1.5c-0.5,0.2-1.5,0.5-2.3,0.5
		s-1.4,0.1-1.6,0.3c-0.4,0.5,0.2,1.6,0.9,1.6c0.4,0,0.7,0.2,0.7,0.5c0,0.2-0.3,0.5-0.7,0.5c-1,0-0.8,1.3,0.2,1.6
		c1.1,0.3,1.3,1.2,0.3,1.2c-1.9,0-1,2.3,0.8,2.4c0.8,0,0.8,0.1-0.3,0.6c-0.7,0.3-1.3,0.7-1.3,0.9c0,0.2-0.3,0.4-0.7,0.4
		c-1,0-1.3,1.3-0.5,2.1c0.5,0.5,0.9,0.6,1.6,0.2c1.2-0.6,1.4-0.6,1.4,0.2c0,0.3,0.3,0.9,0.7,1.2c0.9,0.8,2.1-0.1,2.1-1.7
		c0-0.6,0.6-1.7,1.3-2.5c1.2-1.3,1.4-1.3,4-1c3.1,0.3,3.2,0.2-1.8,2c-1.5,0.5-2,0.9-2.2,2.2c-0.5,1.8-0.1,2.5,0.7,1.3
		c0.8-1.1,1.1-1,0.9,0.2c0,0.6-0.1,1.5-0.1,2c0,0.8-0.3,0.9-2.4,0.7l-2.3-0.1l0.3,1.7c0.3,1.6,0.3,1.7-0.7,1.2
		c-0.8-0.4-1.1-0.3-1.7,0.5c-0.9,1.3-1,3.9-0.1,4.2c0.6,0.2-1.2,1.1-2.7,1.3c-0.7,0.1-0.9-0.2-1.1-2.5c-0.1-1.4-0.4-2.7-0.6-2.9
		c-0.1-0.2,0.2-1.1,0.8-2c1.2-1.8,1.4-2.5,0.7-2.5c-0.2,0-0.7-0.7-1.2-1.4c-0.4-0.8-1-1.4-1.3-1.4c-0.8,0-1.3,1.6-0.6,2.3
		c0.3,0.3,0.3,0.5,0,0.5c-0.3,0-0.7-0.2-1-0.5c-0.7-0.7-1.6,0-1.3,1c0.2,0.7,0.1,0.8-0.4,0.6c-0.5-0.2-0.6,0-0.5,0.9
		c0.2,0.8,0,1.3-0.8,1.7c-0.8,0.5-1,0.8-0.8,2.1c0.3,1.9-0.5,2.6-0.9,0.9c-0.2-1-0.4-1.1-1-0.6c-0.7,0.5-0.7,0.5-0.4-0.3
		c0.2-0.5,0.5-1.8,0.6-2.9c0.3-2,0.2-2-1.2-2.3c-2-0.4-2.2-0.9-0.8-1.8c0.7-0.4,1.3-1.3,1.4-2.1c0.1-0.7,0.6-1.5,0.9-1.8
		c0.8-0.7,2.3-5.3,2-6.3c-0.7-1.8-3.8,0.2-4.5,3c-0.4,1.3-0.9,2-1.7,2.4c-2.7,1.3-4,7.7-2,9.6c0.9,0.8,0.9,1,0.2,1.3
		c-0.5,0.1-0.8,0.8-0.8,1.3c0,0.6-0.2,1.3-0.5,1.4c-0.8,0.6-1-0.1-0.5-1.6c0.5-1.1,0.5-1.6-0.1-2.7c-0.4-0.8-0.7-1.9-0.7-2.4
		c0-0.5-0.2-0.9-0.4-0.9c-0.2,0-0.6-0.6-0.8-1.2l-0.4-1.2l-1.3,1c-0.7,0.6-1.3,1.3-1.3,1.7c0,0.5-0.3,0.7-0.9,0.5
		c-1-0.2-1.7,1.3-1,2.2c0.2,0.3,0.6,1,0.7,1.7c0.3,1,0.2,1-0.2,0.3c-0.7-1-1-1-3.5,0.1c-2,0.9-2.2,1.3-2.1,2.9
		c0,0.4-0.1,0.9-0.4,1.1c-0.7,0.5-0.6,2.4,0.4,3.5c0.7,0.9,1,1,1.9,0.5c1.1-0.6,3.3-0.3,3.3,0.5c0,0.3-0.6,0.5-1.3,0.5
		c-1.7,0-2.1,0.6-1.4,1.9c0.4,0.7,1,0.9,2.4,0.9c1.5,0,1.9-0.2,2.4-1.2c0.5-1,2.3-2.5,4.9-3.9c0.8-0.4,1-0.4,1,0
		c0,0.4-0.7,1-1.7,1.5c-1.4,0.7-1.6,1.1-1.4,2.1c0.2,1.1,0,1.4-1.4,2.2c-0.9,0.6-2.1,1-2.6,1c-0.9,0-2.7,0.5-5.6,1.5
		c-0.7,0.2-1.3,0.8-1.3,1.2c0,0.4-0.2,0.7-0.6,1v6c0.1-0.1,0.3-0.1,0.5-0.2c2.2-0.9,5.9-3.5,7.3-5.3l1-1.2l-0.2,1.4
		c-0.1,0.8,0,1.8,0.1,2.2c0.3,0.7,0.4,0.7,1.2,0c0.5-0.4,1.3-1.7,1.9-2.8c0.6-1.1,1.3-2.1,1.8-2.3c0.6-0.2,0.6-0.1,0,0.9
		c-0.7,1.1-0.7,1.2,0.7,1.4c0.8,0.2,1.5,0.6,1.7,1c0.5,1.3,1.4,0.7,2.3-1.4c0.7-1.8,0.9-2,1.7-1.5c0.7,0.4,1,0.3,2-0.8
		c0.8-0.9,1.1-1.1,1.1-0.6c0,0.4,0.3,0.8,0.7,1c0.9,0.4,3.4-0.8,3.7-1.7c0.2-0.5,0.8-0.7,2.6-0.5c1.9,0.1,2.5,0,3.3-0.8
		c1.1-1.1,2.4-1.3,2-0.3c-0.5,1.3,3.2,0.9,4.5-0.5c0.6-0.7,1.3-1.2,1.4-1.2c0.2,0,0.2,0.5,0.1,1.2c-0.1,0.7-0.5,1.2-0.8,1.2
		s-0.9,0.5-1.3,1.2c-0.4,0.7-1.2,1.2-1.6,1.2s-1.4,0.4-2,0.9c-1.3,1.1-2.2,1.2-2.2,0.3c0-0.3-0.3-0.9-0.7-1.3
		c-0.6-0.5-1.2-0.4-3.3,0.3c-1.4,0.5-2.8,1.2-3,1.5c-0.2,0.3-1,0.6-1.7,0.6c-1.7,0-1.7,0.4-0.4,1.9c0.6,0.7,1.5,1.8,2.1,2.7
		c0.9,1.3,0.9,1.6,0.4,2.2c-0.4,0.4-0.7,1-0.7,1.3c0,0.6-1.1,2.2-1.4,2.2c-0.1,0-0.2-1.4-0.3-3.1c0-1.9-0.3-3.3-0.7-3.7
		c-0.7-0.7-2.2-0.4-2.2,0.6c0,0.3-0.3,0.8-0.7,1.1c-0.4,0.3-0.8,1.2-1,2c-0.4,1.9-1.3,2.3-1.1,0.5c0.1-0.8,0-1.6-0.1-1.7
		c-0.8-0.5-4.1,2-4.9,3.7c-0.7,1.6-0.7,1.8,0,2.6c0.4,0.5,1.7,1,2.7,1.2l2,0.3l-1.9,0.9c-2.2,1-3.1,1.1-2.8,0.3
		c0.1-0.3-0.1-1.3-0.7-2.3l-0.8-1.7l-1.5,1.1c-0.8,0.6-2.2,2.3-3.1,3.7c-1.3,2-1.5,2.9-1.2,3.9c0.4,1.4,0.4,3.7-0.1,4.1
		c-0.6,0.5-0.4,1.1,0.3,1.1c1.3,0,5.4-2.5,5.4-3.2c0-0.9,2.6-2.6,3.5-2.2c0.9,0.3,0.8,1.2,0,1.2c-0.4,0-0.7,0.3-0.7,0.7
		c0,0.4-0.2,0.6-0.4,0.5c-0.7-0.4-1.9,0.2-1.9,0.9c0,0.4-0.3,1.2-0.7,1.9c-0.6,0.9-0.7,1.3-0.2,1.7c0.3,0.3,0.5,0.8,0.5,1.3
		c0,0.5,0.7,0.9,2,1.2c1.7,0.4,2,0.6,2.1,1.8l0.1,1.4l-0.8-1c-0.5-0.6-1.4-1.2-2.1-1.3c-0.7-0.2-1.6-0.8-2-1.6
		c-0.4-0.8-1.1-1.3-1.6-1.3c-1.2,0-5.3,3.7-4.9,4.5c0.1,0.3-0.1,0.7-0.5,0.8c-0.4,0.1-0.7,0.7-0.7,1.2s-1.1,1.8-2.4,3L300,155v1.6
		c1.5,0.3,1.6,1.6,0.2,1.6c0,0-0.1,0-0.2,0V180h19.1c1.1-1.7,2.2-3.9,2.9-5.7c1.1-3,2-4.5,3.9-6.5l2.5-2.7v-4.5
		c0-4.1-0.1-4.7-1.3-6.7c-1.7-3-1.6-5,0.6-6.8c1.4-1.3,1.9-2.2,3.4-7.4c1.8-5.7,2-6.1,4.9-9.4c1.7-1.9,3.3-3.4,3.5-3.4
		s2,0.6,3.9,1.4c2,0.7,3.7,1.4,4,1.4c0.6,0,3.7-6.2,3.7-7.3c0-0.5-0.4-2.1-0.9-3.6c-0.5-1.5-0.9-3.7-0.9-4.9c0-2.1,0-2.2,1.8-2.9
		c1.5-0.6,2.8-0.7,7.6-0.4c5.7,0.4,6.8,0.7,14,3.5c0.6,0.2,1.1-0.3,2-1.8l1.2-2.1l-1.6-1.3l-1.7-1.4l2-2.1c3.1-3.4,3.6-5.8,1.9-10.1
		c-0.6-1.3-1.2-2.9-1.4-3.5c-0.3-0.9-0.2-1.1,1.3-1.3c0.9-0.1,2.5-0.9,3.4-1.6s1.8-1.3,1.9-1.3c0.1,0,0.4,0.7,0.5,1.6
		c0.2,1.3,0.6,1.6,1.7,1.8c1.2,0.2,1.4,0,1.7-0.9c0.2-0.6,0.7-1.4,1.2-1.7c0.9-0.6,0.8-0.7-0.6-2.8l-1.5-2.1l1.8-1.9
		c1.5-1.6,2.1-1.9,3.7-1.9c1.7,0,2.1,0.3,5.7,3.8c3.5,3.6,4,4.2,6,9.1c2.4,5.8,2.3,5.8,8,6.5c1.3,0.2,2.8,0.6,3.6,1
		c1.2,0.6,1.5,0.5,4.4-1c1.7-0.9,3.3-1.6,3.7-1.6c0.4,0,0.6-0.5,0.6-1.3c0-1.3,1-2.8,1.9-2.8c0.2,0,1.2,0.5,2.1,1
		c0.9,0.6,3.3,1.5,5.3,2c2.9,0.8,3.7,1.3,4.2,2.3c0.8,1.6,3,1.6,3.3-0.1c0.1-0.6,0.6-1.3,1.1-1.5c0.9-0.5,0.9-0.8,0.7-3.5l-0.3-3
		l2.1-2.1c2-2,3.4-4.8,3.5-6.7c0-0.4-0.4-1.8-1-2.9c-0.8-2-0.9-2.8-0.7-8.1c0.4-10.3,0.4-11.2,0.1-11.7c-0.2-0.3,0.1-1.3,0.7-2.2
		c0.5-1,1.6-3.4,2.5-5.3c1.8-3.9,2.5-4.6,5.4-4.6c1.6,0,2.3-0.3,4.5-2.2c1.4-1.2,2.7-2.6,2.9-3.1c0.5-1.1,4.7-2.7,5.8-2
		c0.4,0.2,0.7,0.8,0.7,1.3c0,0.9,2.2,3,3.7,3.5c0.5,0.2,1.3,0.9,1.6,1.6c0.7,1.4,4.4,2.8,7.3,2.8c2.3,0,4,1.4,6.1,4.9l1.9,3.2
		l-1.9,4.2c-1.1,2.3-2,5.3-2.2,6.5c-0.2,2.1-0.2,2.4,1.1,3.7c0.8,0.7,1.7,1.2,2,1.1c0.3-0.1,1-1.3,1.4-2.6c0.7-1.9,0.8-3,0.6-5.3
		c-0.3-2.8-0.3-3,0.9-3.6c0.7-0.4,1.3-1,1.4-1.4s1.2-1.6,2.3-2.7c2.5-2.3,3-4.2,1.9-6.8c-0.9-2.1-0.9-2,0-2.3c0.5-0.2,1.2,0.1,2,0.9
		c1.4,1.5,2.8,1.8,5.4,1.4c1.7-0.2,2.2-0.6,2.8-1.7C505.7,46.4,505.5,45.4,504.1,44.3z M409.2,40.1c-0.5,1.7-1.2,2.1-1.2,0.8
		c0-1.3,0.3-1.8,1-1.8C409.3,39.1,409.3,39.6,409.2,40.1z M304.4,156.6c-0.3,0.1-1,0.1-1.4,0c-0.5-0.1-0.2-0.2,0.6-0.2
		C304.4,156.4,304.7,156.5,304.4,156.6z M341.3,91.7c0.4-0.7,0.7-0.6,0.4,0.2c-0.1,0.4-0.4,0.7-0.5,0.5
		C341,92.2,341.1,92,341.3,91.7z M341.6,97.4l-1.3,0.8l1.1-0.9c1.1-1,1.4-1.2,1.4-0.8C342.9,96.6,342.3,97,341.6,97.4z M361,79.6
		c-0.6-0.4-0.5-0.5,0.4-0.5c0.6,0,1,0.2,1,0.5C362.4,80.2,361.9,80.2,361,79.6z M367.1,69.8c-0.2,0-0.5-0.5-0.5-1.1
		c0-0.8,0.1-0.9,0.5-0.3c0.2,0.4,0.5,0.8,0.5,1C367.5,69.6,367.4,69.8,367.1,69.8z"/>
	<path fill="#ED2939" d="M393.8,30.5c-0.5-0.1-1.1,0-1.4,0.2c-0.5,0.4-0.7,0.4-0.7,0c0-0.3-0.5-0.5-1.2-0.5c-1,0-1.1,0.1-0.7,1
		c0.3,0.8,0.7,1,1.8,0.9c1.8-0.2,2.2,0.5,1.5,2.3c-0.5,1.1-0.5,1.5,0,2c0.6,0.7,0.7,0.6,1.7-0.3c0.7-0.6,1.3-0.9,1.9-0.7
		c1.7,0.7,3.7-0.2,5.5-2.6c1-1.3,2.3-3.1,2.8-4.1c0.5-1,1.4-2.7,2-3.8c1-1.9,1-2,0.2-2.6c-1.1-0.8-1.4-0.7-1.8,0.1
		c-0.2,0.6-0.7,0.7-2.2,0.4c-1.8-0.3-1.9-0.3-1.4,0.6c0.3,0.5,0.9,1.1,1.4,1.3c1.3,0.4,1.2,0.7-0.7,2.2l-1.6,1.3l-0.8-1.6
		c-0.4-0.9-0.9-1.5-1.2-1.4c-0.6,0.4-0.4,2.2,0.4,3.3c0.6,0.9,0.6,1,0,1c-0.4,0-0.9-0.4-1.2-0.8c-0.3-0.7-0.9-0.8-2.3-0.7
		c-1.8,0.2-1.9,0.3-1.6,1.4C394.6,30.7,394.5,30.8,393.8,30.5z"/>
	<path fill="#ED2939" d="M355.3,58.3c0.8,1,0.8,1-0.5,0.7c-1.1-0.3-1.3-0.2-1,0.4c0.1,0.4,0.3,1,0.3,1.2s0.4,0.4,0.9,0.4
		c0.5,0,1.5,0.7,2.2,1.6c1.4,1.9,2.9,2.1,4.5,0.6c0.6-0.6,1.6-1.1,2.4-1.2c2.2-0.2,2.5-0.4,2.8-2.1c0.2-0.8,0.4-2.1,0.6-2.8
		c0.1-0.8,0-1.3-0.4-1.3c-0.3,0-1.2,0.6-2,1.3c-1.3,1.3-1.3,1.3-0.6,0.1c1-1.5,1-1.5-0.7-2.3c-1.3-0.6-1.5-0.6-2,0.1
		c-0.6,0.8-0.6,0.8-1.2-0.1c-0.7-1.3-3.1-1.3-3.2-0.2c0,0.5,0,1,0,1.2c0,0.2-0.5,0.4-1.1,0.4C354.6,56.3,354.2,57.1,355.3,58.3z
		 M363.3,58.6c0.2,0,0.3,0.4,0.2,0.9s-0.3,0.9-0.4,0.9s-0.2-0.4-0.2-0.9S363.1,58.6,363.3,58.6z"/>
	<path fill="#ED2939" d="M374,53.8c1.1,0.8,1.4,0.9,2.6,0.4c1.3-0.6,1.4-0.7,1.3-3.3c-0.2-4.3-1.9-5.3-4-2.2
		C372.3,51,372.3,52.6,374,53.8z"/>
	<path fill="#ED2939" d="M355.5,54.2c-0.8,0.2-1,0.1-1-0.7c0-1-0.7-1.3-1.1-0.6c-0.6,1-0.8,4.3-0.3,4.3c0.3,0,0.5-0.2,0.5-0.4
		c0-0.3,0.6-0.7,1.3-1.1C356.4,55,356.9,53.7,355.5,54.2z"/>
	<path fill="#ED2939" d="M361,50.9c0,0.9,1,1.7,2,1.7c1.2,0,1.1-0.7-0.2-1.6C361.5,50.1,361,50.1,361,50.9z"/>
	<path fill="#ED2939" d="M364.9,52.1c0.5,2.2,3.2,2.5,4.5,0.4c0.6-0.9,0.6-1.1-0.2-1.5c-0.5-0.2-1.9-1.4-3.1-2.7
		c-1.3-1.2-2.3-2.2-2.4-2.2c-0.1,0-0.4,0.2-0.7,0.6c-0.9,0.9-0.7,2,0.6,3.1C364.2,50.3,364.8,51.4,364.9,52.1z"/>
	<path fill="#ED2939" d="M379.1,57.2c1.3,0,2.2-1.3,1.6-2.2c-0.7-1.1-1.7-1.2-2.4-0.4C377.5,55.6,378.1,57.2,379.1,57.2z"/>
	<path fill="#FFFFFF" d="M298.1,118.7c-0.3-0.2-1.3-0.4-2.3-0.4c-1.3,0-1.9,0.2-2.4,0.9c-0.6,0.9-0.8,0.9-1.6,0.4
		c-1.3-0.8-3.3,0.6-3,2.1c0.4,1.6-0.2,3-1,2.7c-0.4-0.2-1,0.1-1.5,0.7c-0.5,0.7-1.3,1.1-2.1,1.1c-1.1,0-1.4,0.4-2.5,3.1
		c-0.7,1.7-1.5,3.4-1.8,3.7c-0.7,0.7-0.7,3.2,0,3.2c0.8,0,3.2-2.4,4-4c0.4-0.7,1.2-1.4,1.7-1.5c0.5-0.1,1.3-0.6,1.8-1.1
		c0.4-0.5,1.2-0.9,1.6-0.9c0.4,0,0.9-0.2,1-0.5s1-0.7,2-0.8c1.6-0.3,1.9-0.5,1.9-1.5c0-1.4,0-1.4,2-2.1c1.3-0.5,1.7-0.5,2.1,0.2
		c0.5,0.6,0.7,0.7,2,0.2v-6C299.4,118.7,298.6,119.1,298.1,118.7z"/>
	<path fill="#FFFFFF" d="M199,300c0.2,1.3,0.1,1.8-0.2,1.6c-0.3-0.1-0.5-0.9-0.5-1.6h-2.1c-0.4,0.7-0.7,0.6-0.8,0h-8c0,0,0,0,0,0
		c-0.5,0.7-1.1,0.9-3.1,0.9c-2,0-2.8,0.2-4.1,1.3c0,0,0,0,0,0v8.2c1.5-0.1,2.4,0.1,3.7,0.6c3.4,1.3,3.7,1.6,2.2,2.8
		c-1.1,0.8-1.5,0.9-2.4,0.5c-0.7-0.3-1.4-0.3-2.2,0c-0.6,0.3-1.1,0.4-1.3,0.2v160.8c0.1,0.1,0.2,0.2,0.3,0.3
		c1.3,1.4,2.2,1.2,2.2-0.6c0-0.6,0.2-1.1,0.4-1.1s1.2-0.7,2.2-1.6c1-0.9,2-1.6,2.4-1.6c1,0,4-2.3,5.1-3.8c0.6-0.8,1.7-1.7,2.6-2
		c1-0.4,1.8-1.1,2.6-2.6c1-2,3.1-4.2,3.8-4.2c0.2,0,0.5-0.3,0.7-0.7c0.1-0.4,0-0.7-0.2-0.7c-0.2,0-0.3-0.3-0.2-0.7
		c0.1-0.3,0.7-0.5,1.3-0.4c0.8,0.2,1.4-0.2,2.7-1.6c0.9-1,2-2,2.4-2.1s0.8-0.8,0.8-1.4c0-0.8,0.3-1.2,1-1.4V300H199z"/>
	<path fill="#FFFFFF" d="M270.6,375.8c0.2-0.9,0.8-2.1,1.3-2.8c0.6-0.7,1.3-2.1,1.6-3.2l0.6-2l-2.8-4c-0.5-0.7-0.9-1.3-1.4-1.9v15.5
		C270.3,377,270.4,376.5,270.6,375.8z"/>
	<path fill="#FFFFFF" d="M298.5,156.3l1.4,0.3c0,0,0,0,0,0V155L298.5,156.3z"/>
	<path fill="#FFFFFF" d="M300,158.2c-0.5,0.1-1.2,0.5-1.7,1.1c-0.6,0.7-1.3,1-1.7,0.9c-0.8-0.3-1.7,1.9-1.3,3.3
		c0.4,1.4-0.2,3.4-0.7,2.5c-0.3-0.5-0.6-0.5-1.1,0c-0.3,0.3-1.5,0.9-2.7,1.3c-3.1,1.1-3.4,1.5-2.5,3c0.4,0.7,1.1,1.4,1.4,1.7
		c0.6,0.4,0.1,0.7-2.1,1.4c-1.5,0.5-2.8,1.1-2.8,1.4c0,0.3-0.3,0.7-0.7,0.8c-1.1,0.4-0.8,1,0.8,1.6l1.5,0.5l-1.4,0
		c-1.4,0-1.4,0.1-1.3,1.8c0,0.2,0,0.4,0.1,0.6H300V158.2z"/>
	<path fill="#FFFFFF" d="M195.3,299c0.3-1.3,0.2-1.4-0.8-1.1c-0.6,0.2-1.4,0.6-1.7,0.8c-0.4,0.3-0.8,0.2-1.5-0.4
		c-0.9-0.8-1-0.8-1.7,0.2c-0.4,0.6-1,0.9-1.3,0.8c-0.3-0.1-0.8,0.2-1.1,0.6h8C195.2,299.8,195.2,299.4,195.3,299z"/>
	<path fill="#FFFFFF" d="M286.9,271.4c4.4,2,4.9,2.2,6.2,1.6c1-0.4,1.8-1.4,2.3-3h-11.6L286.9,271.4z"/>
	<path fill="#FFFFFF" d="M283.7,180c0.1,0.9,0.2,2.1,0.4,2.8l0.3,1.6l-0.7-1.3c-0.8-1.4-0.9-1.4-2.1-0.7c-0.9,0.5-0.9,0.6-0.2,1.6
		c0.9,1.4,1,2.6,0.1,2.6c-0.3,0-0.7,0.7-0.9,1.5c-0.2,1.1,0,1.7,0.7,2.6l1,1.1H281c-0.7,0-1.4,0.3-1.7,0.6c-0.7,0.8,0.6,2.7,1.8,2.7
		c1.5,0,0.6,0.8-1.3,1.1c-1.8,0.3-4.8,2.3-4.8,3.3c0,0.3-0.5,0.8-1,1.1c-0.9,0.4-3.4,4.5-4,6.3v1.1c0.3,0.5,1.4-0.2,2.9-2
		c1-1.2,1.9-2,2-1.9c0.3,0.4-2.1,4-3.1,4.6c-0.5,0.3-0.8,1-0.9,1.5h32.8c0.2-2.5,0.1-3.9-0.2-5.5c-0.3-1.6-0.5-3.5-0.5-4.3
		c0-0.8,0-1.8-0.1-2.3c-0.1-0.8,0.2-0.9,3.3-1.2c2.8-0.2,4-0.6,6.4-1.8c3.3-1.8,4.2-3.3,3.3-5c-1-2-0.1-5.4,2.4-8.8
		c0.3-0.4,0.5-0.8,0.8-1.2H300H283.7z"/>
	<path fill="#FFFFFF" d="M270,279.8c0.1-0.2,0.2-0.4,0.3-0.6c2.6-4.8,5.4-7.7,8.9-9l0.5-0.2H270V279.8z"/>
	<path fill="#FFFFFF" d="M198.3,300c0-1.1-0.2-1.3-0.9-1.1c-0.5,0.1-1,0.5-1.2,0.9c0,0.1-0.1,0.1-0.1,0.2L198.3,300
		C198.3,300,198.3,300,198.3,300z"/>
	<path fill="#FFFFFF" d="M210,288.2c-0.3,0.1-0.7,0.3-1.2,0.5c-1,0.5-2.8,1.3-3.9,1.7c-1.2,0.5-1.8,1-1.5,1.3
		c0.2,0.2,0.8,0.2,1.4-0.1c0.6-0.3,1.2-0.4,1.3-0.2c0.5,0.5-1.3,1.6-2.7,1.6c-2.4,0-7.6,2.1-7.3,2.9c0.1,0.3,0.9,0.6,1.9,0.7
		s1.7,0.3,1.7,0.6c0,0.2-0.2,0.4-0.5,0.4c-0.4,0-0.4,0.7-0.2,2.1c0,0.1,0,0.1,0,0.2h11V288.2z"/>
	<path fill="#002664" d="M269.9,207.3c0,0.2,0,0.4,0.1,0.5v-1.1C269.9,206.9,269.9,207.1,269.9,207.3z"/>
	<path fill="#002664" d="M228.2,270c0.1,0.2,0.3,0.3,0.6,0.4c1.1,0.4,0.9,2.1-0.2,2.1c-0.6,0-0.9,0.3-0.9,0.9c0,0.8-0.1,0.9-0.8,0.5
		c-0.7-0.4-1.1-0.1-2.4,1.7c-1.3,1.8-1.4,2.2-0.8,2.6c0.6,0.4,0.6,0.6-0.2,1.3c-0.9,0.9-1.2,2.7-0.4,2.7c0.2,0,0.7-0.3,1.1-0.6
		c0.7-0.7,3.4-1.7,4.5-1.7c0.4,0,0.3,0.3-0.5,0.9c-0.7,0.5-1.3,0.9-1.6,0.9c-0.6,0-3.9,1.7-4.7,2.5c-1.2,1.1-4.6,2.7-5.6,2.7
		c-0.5,0-0.9,0.3-0.9,0.7s0.3,0.7,0.7,0.7c0.4,0,0.7,0.4,0.7,1.1c0,0.7,0.2,1.3,0.5,1.4c0.8,0.5,0.5,1-0.7,1.5
		c-1.2,0.6-1.2,0.5-0.9-1c0.2-0.9,0.1-2-0.2-2.6c-0.6-1.1-1.7-1.3-2-0.5c-0.1,0.4-0.5,0.4-1.3,0c-0.6-0.3-1.1-0.4-1.8-0.2V300v149.1
		c0,0,0,0,0.1,0c1.1-0.3,3.1-3,3.1-4.3c0-0.6,0.2-0.6,1.4,0.1c1.1,0.5,1.3,0.9,0.9,1.3c-1.1,1.1-0.6,1.8,1.1,1.5
		c0.9-0.1,2.3-0.4,3.2-0.6c1.3-0.2,1.7-0.6,1.9-1.6c0.2-0.7,0.6-1.3,1-1.3s0.7-0.2,0.7-0.5c0-1.1,1.3-0.4,1.5,0.8
		c0.1,0.9,0.4,1.3,1.2,1.4c1,0.1,1.4-0.6,0.6-1.1c-0.6-0.4,0-6.4,0.7-6.8c0.8-0.6,0.4-5.6-0.6-6.4c-1.2-1-0.7-2.2,0.9-2.7
		c0.8-0.3,1.8-0.8,2.3-1.3c0.7-0.7,0.8-0.6,1.1,0.5c0.2,0.7,0.1,1.5-0.1,1.8c-0.2,0.3-0.7,1.2-0.9,2c-0.4,1.2-0.4,1.5,0.2,1.7
		c0.4,0.1,0.7,0.9,0.7,1.7c0,1.1,0.2,1.5,0.9,1.7c0.6,0.2,0.9,0.6,0.9,1.3c-0.2,2.1,0.1,3.1,0.9,3.4c0.9,0.3,2.9,2,2.9,2.5
		c0,0.2-0.7,0.2-1.6,0.1c-2.2-0.4-2.1,0.4,0.6,2.4l2.2,1.7l1.7-1.9c1.7-1.9,3.2-2.3,4.6-1.4c0.5,0.3,0.7,1.3,0.6,4.4
		c-0.1,4.4,0.1,4.7,2.7,4c1.3-0.3,1.6-0.7,1.9-2c0.1-0.9,0.7-2.2,1.3-2.9c0.7-0.8,1-2,1-3.2c0-1,0.3-2.9,0.7-4.3
		c0.7-2.3,0.7-2.5-0.4-6.6c-1.3-4.9-1.2-6.5,0.7-7.5c0.8-0.4,1.6-1.5,2-2.7c0.7-1.7,0.7-2.2,0.2-3.6c-0.7-2-0.2-2.6,2.6-2.6
		c1.7,0,2.2-0.3,4.2-2.5c4.8-5,5-5.3,4.6-8.4c-0.3-2.7-0.2-2.8,1.1-4.2c1.7-1.8,2.5-6.2,1.3-7.2c-0.7-0.7-4-10.3-4-11.9
		c0-0.5-0.6-1.7-1.3-2.7c-1.2-1.8-1.3-1.9-0.4-2.5c0.5-0.4,2-0.7,3.7-0.7c2.2,0,3.1-0.1,3.7-0.8v-15.5c-1.2-1.6-2.2-2.5-3-2.9
		c-1-0.5-2.1-1.6-2.8-2.8l-1.2-2l0.8-10.5l0.8-10.5l-1.6-4.4c-1.7-4.6-1.7-4.8-0.4-9.3c0.6-2,0.6-3,0.2-4.7c-0.4-2-0.4-2.5,0.9-5.1
		l1.4-2.8l-1.6-3.6c-0.9-2-1.6-4.1-1.6-4.7c0-0.7,0.8-2.2,1.8-3.5l1.8-2.4L265,290l-0.6-2.7l2-2.2c1-1.1,2.5-3.3,3.6-5.2V270H228.2z
		"/>
	<path fill="#002664" d="M270.8,210c0,0,0,0.1,0,0.1c0,0.6-0.3,1.4-0.7,1.8c-0.5,0.5-0.7,1.2-0.4,2.3c0.2,1.2,0.1,1.5-0.4,1.5
		c-0.8,0-1.3,1.4-1.2,3.4c0.1,0.8-0.2,2-0.7,2.7c-1.2,1.8-2.1,5.3-2.1,7.9c0,1.2-0.2,2.4-0.5,2.5c-0.3,0.2-0.5-0.2-0.5-0.9
		s-0.3-1.2-0.6-1.2c-0.9,0-2.2,1.2-2.2,2c0,0.7-0.9,1.8-1.5,1.8c-0.2,0-0.2-0.4,0.1-1c0.3-0.5,0.4-1.3,0.3-1.6
		c-0.2-0.6-0.4-0.6-1.5,0c-2.7,1.4-3.2,2-2.5,2.8c0.3,0.4,1.1,0.7,1.7,0.7c1.1,0,1.1,0,0.2,0.9c-0.5,0.5-0.9,1.2-0.9,1.4
		s-0.5,0.4-1.3,0.2c-0.7-0.1-1.9,0-2.6,0.2c-1,0.4-1.3,0.3-2.1-0.7c-0.7-0.9-1.3-1.1-3.5-1.2c-1.4,0-2.7,0-2.8,0.1
		c-0.1,0.1-0.3,1.2-0.5,2.3c-0.3,2-0.2,2.2,0.7,2.5c0.8,0.2,1.3,0,1.9-0.7c0.7-0.8,0.9-0.9,1.3-0.3c0.2,0.3,0.4,0.8,0.4,1
		c0,0.2,0.7,1.1,1.6,2c1.1,1.1,1.4,1.6,0.9,1.6c-0.4,0-0.7,0.3-0.7,0.7s0.1,0.7,0.2,0.7c0.6,0,3.6-1.3,5-2.1c1.6-1,1.7-1,2.7-0.2
		l1.1,0.8l-1.7,0.3c-2,0.3-4.6,2-4.2,2.7c0.2,0.3-0.1,0.4-0.8,0.2c-0.8-0.2-1.4-0.1-1.8,0.4c-0.3,0.4-1,0.7-1.5,0.7
		c-0.5,0-1,0.3-1.1,0.7c-0.2,0.4-0.9,0.7-1.7,0.7c-0.7,0-1.7,0.3-2,0.7c-0.4,0.4-0.5,0.7-0.2,0.7c0.3,0,0.5,0.2,0.5,0.5
		c0,0.4-0.6,0.4-1.7,0.2c-1.7-0.3-1.7-0.3-0.9,0.6c1,1.1,1,1.5,0.1,1.5c-0.4,0-0.7,0.2-0.7,0.4s-0.7,0.6-1.6,0.7
		c-1.3,0.3-1.7,0.6-1.9,1.7c-0.2,0.7-0.6,1.4-1,1.6c-0.6,0.2-0.6,0.4-0.1,1.1c0.6,0.7,0.5,0.7-0.4,0.5c-1.1-0.3-1.8,0.9-1.6,2.5
		c0,0.5-0.2,0.8-0.6,0.8s-0.7,0.4-0.7,0.8c0,0.8-1.5,2.1-4.5,3.9c-1.2,0.7-1.7,1.5-1.4,2H270h9.8l2.2-0.8l1.8,0.8h11.6
		c0.5-1.8,0.7-4.4,0.6-7.7l-0.2-4.8l-3.3-2.4c-1.9-1.3-3.3-2.6-3.4-2.9c0-0.3,2.5-4.8,5.6-10c4.5-7.4,5.6-9.7,5.6-11.1
		c0-1,0.4-2.2,0.9-2.9c0.6-0.8,1-2.2,1.2-4.4c0.1-1.8,0.6-6.2,1-9.9c0.2-1.7,0.3-3,0.4-4.1H270.8z"/>
</g>
</svg>
