<?xml version="1.0" encoding="utf-8"?>
<!-- Generator: Adobe Illustrator 17.1.0, SVG Export Plug-In . SVG Version: 6.00 Build 0)  -->
<!DOCTYPE svg PUBLIC "-//W3C//DTD SVG 1.1//EN" "http://www.w3.org/Graphics/SVG/1.1/DTD/svg11.dtd">
<svg version="1.1" id="flag-icon-css-np" xmlns="http://www.w3.org/2000/svg" xmlns:xlink="http://www.w3.org/1999/xlink" x="0px"
	 y="0px" viewBox="0 0 640 480" enable-background="new 0 0 640 480" xml:space="preserve">
<g>
	<path fill="none" d="M641.6,353.3c-0.3-4.6-0.4-5.9-1.6-8v18.4c0.1-0.1,0.1-0.3,0.2-0.4C642.1,359.6,642.1,359.4,641.6,353.3z"/>
	<path fill="#FFFFFF" d="M638.1,342.4c-3.2-4.8-3.3-5-3.1-7.8c0.1-1.8-2.1-3.8-7-6.4c-2.3-1.2-2.3-1.4-3.1-6.6
		c-0.9-6.1,0-14.5,1.7-16.4c0.9-1.1,0.9-1.3-0.3-3.3c-1.1-1.8-1.3-3.1-1.3-7.5c0-5,0.1-5.6,2.2-9c1.2-2,2.9-5.8,3.8-8.3
		c1.3-3.9,1.6-5.4,1.2-8.5c-0.3-3.1-0.2-4.2,0.7-5.5c1.5-2.3,1-6.6-1.2-9.2c-0.9-1.1-1.8-2.7-2-3.5l-0.4-1.6l-1.5,1.4
		c-0.8,0.8-1.5,1.9-1.5,2.6c0,1.5-1.6,1.4-4.8-0.3c-2.4-1.3-2.8-1.3-4.3-0.5c-0.9,0.5-2.4,2.2-3.3,3.6c-2.6,4.3-2.8,4.5-4.3,4.1
		c-1.1-0.3-1.4-0.9-1.4-2.1c0-1.6-0.3-1.8-2.4-2.2c-1.4-0.2-3.4-0.1-4.8,0.4c-2,0.6-2.8,1.4-3.8,3.6c-2.2,4.5-6.1,5.5-10.2,2.6
		c-2.6-1.8-4.5-1.6-7.6,0.6c-2.3,1.7-3.1,1.9-5.5,1.6c-2.3-0.3-3.3,0-5.1,1.2c-1.9,1.3-3,1.5-7.3,1.5c-5,0-5.2-0.1-9.2-2.8
		c-8.3-5.7-10.2-6.6-13.7-6.5c-2.3,0.1-4.4-0.3-6.5-1.3c-1.7-0.7-5.3-2-7.8-2.8c-4.4-1.3-4.8-1.6-6-4c-1.7-3.4-2.8-4.6-4.1-4.6
		c-0.8,0-1.2,0.4-1.2,1.4c0,2.8-2.6,3.8-5.6,2.1c-3.3-1.9-5.3,1.6-4.4,7.9c0.9,6-0.8,7.5-9.1,8.1l-5.6,0.4l-3.4-2.6
		c-3.7-2.8-4.1-3.5-4.7-8.6c-0.3-1.9-0.8-4.1-1.3-4.6c-1.3-1.7-4.4-0.7-6.6,2.2c-1.8,2.3-1.9,2.6-1.9,8.7c0,5.9-0.1,6.5-1.5,7.9
		c-1.3,1.3-1.8,1.4-4.1,0.9c-3-0.7-7-2.6-8-3.8c-0.3-0.4-0.8-1.4-1-2.1c-0.7-2.6-5.2-12-6.4-13.6c-0.7-0.8-2-1.9-2.8-2.4
		c-2.1-1.1-5-4.5-5-5.8c0-0.6-0.6-2.6-1.3-4.5c-1.2-3.2-1.4-3.4-2.9-2.9c-1.3,0.3-1.8,1-2.3,2.6c-0.3,1.2-0.8,2.4-1,2.6
		c-0.8,0.8-6.3-0.7-8.1-2.1c-2.4-1.9-6.5-1.6-11.1,0.7l-3.8,1.9l-8.5-0.4c-7.6-0.3-8.7-0.6-10.8-1.9c-4.6-3.1-5-4.8-2.4-11.6
		c2.6-6.9,1.1-12.3-3.6-13.7c-4.8-1.4-7.1-0.4-8.3,3.7c-1,3.2-2.3,3.9-7.5,3.9c-5.2,0-6.8-0.8-13.4-6.9c-5.8-5.3-7.5-6.2-12.4-6.8
		c-3.1-0.3-3.9-0.8-7-3.4c-3.6-3.3-5.8-4.4-8.3-4.4c-2.4,0-4.7-2.4-5.1-5.3c-0.6-5.1-2.4-9.3-4.2-10.3c-1.2-0.7-1.8-1.7-2.1-3.3
		c-0.3-1.6-0.8-2.5-1.9-3c-1.6-0.8-1.7-0.9-0.4-6.8c0.4-1.8,0.3-2.1-1.7-2.9c-1.2-0.5-3.3-2.1-4.6-3.4c-1.3-1.4-2.7-2.6-2.9-2.6
		c-0.3,0-1.1,0.7-1.9,1.6c-1.7,1.9-2.6,1.9-6-0.1c-3-1.8-4.3-1.6-7.4,0.6c-1,0.8-2.6,1.8-3.6,2.2c-1,0.5-1.8,1.1-1.8,1.3
		c-0.1,1.4-3.4,4.1-6.3,5c-2.9,0.9-3.4,1.4-3.9,3.1c-0.3,1.3-0.9,2-1.6,2c-0.6,0-3.4-1.7-6.3-3.8c-2.9-2-5.8-4.1-6.4-4.5
		c-0.7-0.4-1.5-2.4-2-4.6c-0.8-3.5-1.3-4.1-6-8.7c-2.8-2.6-5.6-4.8-6.3-4.8c-2.3,0-3.1-0.8-3.1-2.6c0-1.4-0.6-2.2-2.6-3.5
		c-2.1-1.4-2.8-1.6-3.8-0.9c-0.9,0.6-1.6,0.6-2.7,0.1c-1.2-0.6-1.8-0.5-2.9,0.3c-2.2,1.5-4.1,1.3-5.1-0.6c-0.6-1.1-2.4-2.3-5.8-3.8
		c-4.2-1.9-5.6-2.2-9.2-2.1c-0.2,0-0.3,0-0.5,0L370,238.5l-241.2-0.3l73,74.1c9.4-2.9,10.7-2.9,10.7,0.1c0,0.8,0.8,2.4,1.7,3.8
		c1.1,1.7,1.9,3.9,2.4,6.9c0.8,5.8,1.9,6.4,8.7,4.9l4.7-1l1.9,1.6c1.5,1.3,2.8,1.6,6.7,1.9c2.9,0.3,5.9,0.1,7.6-0.3
		c2.6-0.7,2.9-0.6,4.3,0.6c0.8,0.7,2,1.3,2.8,1.3c0.9,0,1.7,0.7,2.4,2.3c1.3,2.8,4.4,4.6,7.8,4.6c1.9,0,2.4-0.4,3.8-2.3
		c0.8-1.3,2.4-2.8,3.5-3.3c1.9-0.9,1.9-1,1.1-2.5c-1.2-2.1-1.1-2.3,0.3-3.7c0.9-0.9,2.5-1.3,5.8-1.6c5.2-0.5,10,0.6,16.2,3.8
		c2.6,1.3,9.5,4,10.3,4c0.1,0,1.4-1.8,2.9-4.1c2.1-3.1,3.1-4.1,4.3-4.1c1,0,2.9-1.4,5.8-4.1c2.3-2.3,4.5-4.1,4.9-4.1
		s1.1,0.8,1.6,1.7c0.6,1.3,2.1,2.3,4.8,3.3s4.1,2.1,4.6,3.1c0.4,0.9,1,1.8,1.3,1.9c0.3,0.3,4.6,0.6,9.5,0.9
		c11.6,0.6,12.7,0.8,17.1,4.5c4.2,3.4,4.2,3.5,5,14.1l0.4,5.4l3.6,1.9c2.8,1.6,4.4,2,7,2c2.9,0,3.6,0.3,5.2,1.9
		c1.4,1.5,2.3,1.9,4.5,1.9c2.4,0,2.8,0.2,3.8,2.1c0.8,1.6,1.5,2.3,3.1,2.6c1.5,0.3,2.1,0.7,2.1,1.5c0,0.6,0.8,1.6,1.6,2.3
		c1.4,0.9,1.7,0.9,2.3,0.1c0.8-0.9,7.6-1.8,9.8-1.3c1,0.3,1.3,0.9,1.3,2.7c0,1.4-0.4,2.8-1,3.4c-0.9,0.9-0.8,1.1,1.1,1.9
		c2.6,1.1,9.1,0.6,11.2-0.9c0.9-0.6,4.1-2.3,7.2-3.7c3.6-1.7,6.2-3.4,7.3-4.7c1-1.2,2.8-2.3,4.3-2.8c2.4-0.8,2.6-0.7,3.8,0.8
		c0.9,1.3,1.9,1.6,3.6,1.6c1.9,0,2.5,0.3,3.4,1.8c0.6,1,1.1,2.3,1.1,2.9c0,0.6,0.6,3.6,1.3,6.6c1.1,5,1.4,5.6,2.7,5.6
		c0.8,0,2,0.4,2.8,1c0.8,0.6,2.1,0.9,3,0.7c1.3-0.2,1.5,0,1.5,1.2c0,2.1,1.6,1.9,2.8-0.4c0.5-1,1.8-2.3,2.8-2.8
		c1.1-0.6,1.9-1.5,1.9-2.1c0-0.9,0.9-1.6,2.8-2.3c2.6-1,2.9-1,4,0c0.6,0.6,2.3,1.3,3.6,1.4c1.4,0.2,2.9,0.8,3.5,1.3
		c0.9,0.7,1.8,0.8,4.4,0.4c7-1,15.2-0.3,17,1.5c0.4,0.4,1.8,0.7,3.3,0.7c1.4,0,3.1,0.4,3.7,0.9c0.7,0.5,1.9,0.9,2.8,0.9
		c0.9,0,3,1.3,5.2,3.1c4.1,3.4,7,4.3,12.6,3.6c4.9-0.6,12-4.3,14-7.3c0.9-1.4,2.4-2.8,3.3-3.2c1-0.4,2.4-1.5,3.1-2.6
		c0.8-1,1.6-1.8,1.9-1.8c0.3,0,1.2,1.8,1.9,4.1c1.9,5.6,3.5,7.4,7.9,8.7c3.1,0.9,3.7,0.9,4.3,0.1c0.6-0.7,1.2-0.8,3.5-0.1
		c1.6,0.4,3.5,1.3,4.4,1.9c1.5,1.1,1.6,1.1,2.5-0.1c0.5-0.6,1.4-2,1.9-3c0.9-1.6,1.5-1.9,5.7-2.7c4.5-0.8,5-0.7,8.9,0.6l4.1,1.4
		l1.8-1.5c1.1-0.8,1.9-1.9,1.9-2.6c0.1-1.3,2.1-1.4,3.2-0.1c0.4,0.5,1.7,0.9,2.8,0.9c1.8,0,2.1-0.3,2.4-2.2c0.4-2.1,0.4-2.1,3.2-1.8
		c1.9,0.3,3.1,0.1,3.8-0.4c0.8-0.7,1.1-0.5,1.6,1.1c0.5,1.3,1.8,2.5,4.7,4.1c2.2,1.3,4.1,2.3,4.3,2.3c0.2,0,1.4-1.9,2.9-4.3
		c1.7-2.8,2.6-5,2.6-6.5c0-3.9,1.2-9.1,3.1-12.9v-18.4C639.6,344.5,639,343.6,638.1,342.4z"/>
	<path fill="#FFFFFF" d="M203.1,129.7c0-1-1.2-1.8-5.4-3.8c-2.9-1.4-5.5-3-5.7-3.6c-1.4-3.9-5.1-6.4-9.4-6.4c-1.8,0-3.3-0.3-3.3-0.6
		c0-1.2-3.9-2.9-7.5-3.5l30.4,19.4C202.7,130.9,203.1,130.2,203.1,129.7z"/>
	<path fill="#FFFFFF" d="M160.1,102.1l-5.9-6l-6-6l-5.6,0.1c-2,0.1-3.5,0-4.8-0.1l21.8,13.9L160.1,102.1z"/>
	<path fill="#FFFFFF" d="M2.8,221.1c-3.2,4.1-3.6,6.5-1.5,8.7c1.1,1.2,1.8,1.4,3.9,1.1c0.3,0,0.6-0.1,0.9-0.1v-13.3
		C5.2,218.3,3.9,219.7,2.8,221.1z"/>
	<path fill="#CE0000" d="M370,238.5L210.6,136.7c-3.1,0.1-4.2-0.2-6.5-1.6c-3.5-2.1-3.9-2.6-2.3-3.5c0.1-0.1,0.3-0.2,0.4-0.3
		l-30.4-19.4c-0.1,0-0.3,0-0.4-0.1c-3.9-0.4-10.8-2.5-12-3.7c-0.6-0.5-0.6-1.3,0-3.4l0.2-0.7l-21.8-13.9c-1.9-0.2-3.6-0.7-6.1-1.5
		c-6.4-2.1-17.5-2.8-21.3-1.3c-1.2,0.4-3.6,0.9-5.5,0.9c-3.1,0.1-3.4,0.2-4.9,2.4c-1.3,1.9-1.6,3.1-1.6,6.6c0,3.9-0.2,4.5-2,6.8
		c-1.4,1.8-2.4,2.4-3.6,2.4c-0.9,0-2.2,0.6-2.8,1.2c-0.9,1-1,1.6-0.4,3.8c0.6,2.4,0.6,2.8-0.5,3.9c-1.1,1.2-1.3,1.2-3.1,0.3
		c-1.1-0.6-3.4-2.6-5.2-4.5c-2.9-3.1-13.6-11.6-14.6-11.6c-0.2,0-0.4,0.8-0.4,1.7c0,2.3-0.6,3.1-3.3,4.8c-1.3,0.8-3.3,2.8-4.5,4.5
		c-1.2,1.7-3.4,3.9-4.9,4.8c-2.3,1.3-2.8,1.9-2.9,3.8c-0.1,1.3-0.9,2.9-1.9,4c-0.9,1-2,2.6-2.4,3.6c-0.4,0.9-1.8,2.4-3.1,3.3
		c-1.7,1.1-3.4,3.1-5.5,6.6c-3.1,5.4-5.9,7.5-9.6,7.5c-1.5,0-2,0.5-3.4,3.4l-1.7,3.4l1.8,2.3l1.8,2.4l-1.5,2.7
		c-0.8,1.5-2.4,3.3-3.6,4c-1.8,1.1-2.1,1.8-2.5,4.5c-0.4,2.8-0.6,3.1-2.3,3.5c-1.4,0.3-1.8,0.7-1.8,1.8c0,0.9-0.6,1.9-1.6,2.5
		c-1.8,1.2-2,2.6-0.6,4.4c0.5,0.6,0.9,1.9,0.9,2.9s0.6,2.6,1.3,3.8c0.8,1.3,1.3,3.2,1.3,5c0,1.6,0.3,3.6,0.6,4.5
		c0.8,2.1-0.1,2.6-2.5,1.3c-1-0.5-1.9-0.8-1.9-0.6c0,0.3,1,1.7,2.2,3.3s2.2,3.1,2.2,3.4c0,0.3-1.3,1.5-2.8,2.8
		c-1.9,1.5-2.9,2.9-3.2,4.3c-1.1,5.3-1.6,6.5-3.1,7.2c-0.3,0.1-0.7,0.4-1.1,0.8v13.3c1.5-0.1,2.1,0.2,3.5,1.7
		c1.3,1.3,2.4,1.9,3.8,1.9c1.5,0,2.2,0.4,2.9,1.8c1,1.8,8,7,9.3,7c0.8,0,7.2,4,9.7,6.1c1,0.8,2.2,1.4,2.7,1.4c0.8,0,0.8-1.7,0-7.8
		c0-0.3,1.2-1,2.8-1.5c2.8-0.9,2.9-0.9,6.3,1.1c1.8,1.1,4.1,2.8,5,3.8c0.9,0.9,2.8,2.1,4.4,2.8s4.1,1.9,5.8,3
		c2.4,1.6,3.5,1.8,6.2,1.7c2.9-0.2,3.4,0,4.6,1.6c1.3,1.6,1.5,1.7,4.5,1.1c3.9-0.7,6.5,0.4,6.5,2.7c0,0.9,0.3,1.6,0.8,1.6
		c0.4,0,2.8,1.1,5.4,2.3c3.9,1.9,4.8,2.6,5.8,4.8c0.6,1.4,2.8,5.3,4.9,8.5c3.8,6.1,5.3,7.3,7.3,5.6c0.6-0.6,1.6-0.4,4.1,0.4
		c2.5,0.9,3.4,1.6,4.1,3c0.4,1,1.2,1.8,3.3,3l5.1-5.1l-0.5,7.6c3.9,1.9,8.5,4,10.1,4.6c2.1,0.8,3.4,1.7,4.2,3.1
		c0.8,1.3,1.9,2.2,3.4,2.7l6.3-2.7l-2.5,5c0.4,0.2,0.9,0.3,1.5,0.3c1.5,0,2.3-0.6,3.9-2.8l2-2.8h4.8c4.3,0,5,0.2,6.3,1.6
		c1.1,1.3,2.1,1.6,4.4,1.6c2.5,0,3.2,0.3,5,2.2c1.2,1.3,2.8,2.2,3.6,2.2c0.8,0,4.6,2.1,8.4,4.6l7,4.6l9.1-2.8c0.1,0,0.1,0,0.2-0.1
		l-73-74.1L370,238.5z M98.1,219c-36.6,0.5-66.6-28.8-67-65.3c0-0.2,0-0.4,0-0.6c9.4,17.1,15.2,25.3,30,34.2l4.4-4.1l-9.9-8.3
		l12.8-3.4l-6.9-11.6l13.5,0.9l-1.7-13.5l11.8,6.9l3.8-12.7l8.4,10.1l8-9.7l4.3,13.1l11.1-7.7l-1.4,13.4l13.3-1.6l-6.3,12.4
		l12.8,3.8l-10.6,7.9l5.3,4.3c12.3-8.6,22.2-20.2,28.8-33.8C164.2,173.8,145.9,218.5,98.1,219z"/>
	<path fill="#FFFFFF" d="M162.5,153.8c-6.6,13.5-16.5,25.1-28.8,33.8l-5.3-4.3l10.6-7.9l-12.8-3.8l6.3-12.4l-13.3,1.6l1.4-13.4
		l-11.1,7.7l-4.3-13.1l-8,9.7l-8.4-10.1L85,154.2l-11.8-6.9l1.7,13.5l-13.5-0.9l6.9,11.6l-12.8,3.4l9.9,8.3l-4.4,4.1
		c-14.8-8.9-20.6-17.2-30-34.2c0,0.2,0,0.4,0,0.6c0.5,36.6,30.5,65.8,67,65.3C145.9,218.5,164.2,173.8,162.5,153.8z"/>
	<path fill="#FFFFFF" d="M119.7,288.5c1.1,0.7,2.6,1.4,4.6,2.4c0,0,0,0,0,0l0.5-7.6L119.7,288.5z"/>
	<path fill="#FFFFFF" d="M142,301.3c0.1,0,0.1,0.1,0.2,0.1c1.3,0.4,2.6,1.1,2.8,1.6c0.1,0.3,0.3,0.5,0.7,0.6l2.5-5L142,301.3z"/>
</g>
</svg>
