<?xml version="1.0" encoding="utf-8"?>
<!-- Generator: Adobe Illustrator 17.1.0, SVG Export Plug-In . SVG Version: 6.00 Build 0)  -->
<!DOCTYPE svg PUBLIC "-//W3C//DTD SVG 1.1//EN" "http://www.w3.org/Graphics/SVG/1.1/DTD/svg11.dtd">
<svg version="1.1" id="flag-icon-css-nr" xmlns="http://www.w3.org/2000/svg" xmlns:xlink="http://www.w3.org/1999/xlink" x="0px"
	 y="0px" viewBox="0 0 640 480" enable-background="new 0 0 640 480" xml:space="preserve">
<g>
	<polygon fill="none" points="297.9,480 312.1,481.2 315,480 	"/>
	<path fill="#002170" d="M316.9,479.2c5.6-2.3,12.1-3.9,25.1-6.2l9.7-1.7l9.9-4.6c8.2-3.8,12.1-6,23-13c7.3-4.7,23-14.4,35.1-21.6
		l22-13.1l2.7,0.3c1.5,0.1,3.3,0.3,4,0.4c1,0.1,2.4-0.6,5.9-3.1c3.6-2.5,6-3.8,11.1-5.7l6.4-2.4l8.1-9.6l8-9.6v-6.1
		c0-4.5-0.2-7.1-1-10c-0.8-2.9-1.1-6.5-1.5-14.4c-0.2-5.8-0.8-15.4-1.3-21.5c-0.5-6.6-0.7-13.3-0.5-16.7c0.3-5.7,0.3-5.8,4.1-16.1
		c2.1-5.7,4.1-11.6,4.5-13.1c0.3-1.5,1.5-5.8,2.7-9.5c1.2-3.8,2.9-9.9,3.9-13.7c0.6-2.2,1.4-5,2.2-7.9H160.3l10.7,39.9l29.8-31.9
		l-11.3,42.2l41.7-12.7l-30.9,30.9l42.6,9.8l-42.2,11.3l31.9,30l-42.2-11.4l12.7,41.8L172,379.7l-9.8,42.6L151,380.1l-29.1,31.1
		c3.4,2.6,11,8.2,19.8,14.5L163,441l9.1,2.3l9.1,2.3l5.2,4.1c2.9,2.3,5.5,4.3,5.8,4.6c0.3,0.2,6.2,2.4,12.9,4.8
		c9.1,3.2,19.4,6.2,38.3,11.4l25.9,7l21.4,1.8l7.2,0.6H315L316.9,479.2z"/>
	<path fill="#002170" d="M95.4,381l10.9,11.2c11,11.4,12.9,13.5,13.1,15.1c0.2,1,0.4,2.1,0.5,2.3c0,0.1,0.5,0.5,1.4,1.1l11-41
		L95.4,381z"/>
	<path fill="#002170" d="M79,341.5l42.2-11.3l-31.9-29.8l42.2,11.3L118.8,270l30.9,30.9l9.4-40.3H72.5l-1,3.9l-0.3,21.2L70.8,307
		l2,8.3c1.1,4.7,2.7,14,3.8,21.6l1.9,13.3l2.3,1.9c2.2,1.9,2.5,2,5.5,2c2.8,0,3.3,0.1,4.5,1.4l1.3,1.4l-1.5,3l-1.5,3l2.3,8l2.2,8
		l0.4,0.4l27.8-27.8L79,341.5z"/>
	<path fill="#002170" d="M524,216.2c4.1-4.2,4.6-4.5,8.6-5.9c4.2-1.5,4.3-1.5,7-5.1c1.6-2,5.6-6.7,9-10.5c3.4-3.8,8.6-9.8,11.5-13.3
		c4.3-5.3,5.3-6.8,5.3-8.1c0-0.9,0.6-2.5,1.2-3.6c1-1.6,1.2-2.6,1.2-5.8c0-3.3,0.2-4.2,1.5-6.7l1.5-3l-0.3-6.9l-0.3-6.9l-3.4-9.3
		c-3-8.3-3.5-10-4.1-15.9l-0.8-6.6l-2-2.2c-1.9-2-2.3-3.1-4.9-11.4l-2.9-9.2l-3.8-2.2c-3.5-2.1-4.5-3.1-12.3-12.3
		c-12.5-14.8-17.2-19.3-27.6-26.1l-8.6-5.6l-1.4-3.6c-0.8-2-1.5-3.7-1.5-3.8c0,0-4.3-1.7-9.5-3.5c-9.3-3.4-9.5-3.5-13.5-6.9
		c-2.2-2-4.9-4.2-5.8-5c-1.2-1-5.6-2.7-14.8-5.9L440,6.6l-29-0.8c-27.1-0.7-29.4-0.9-34.6-2c-4.3-0.9-9.3-1.4-23.1-2.2
		c-9.7-0.6-18.1-1-18.8-1c-0.7,0-6.8,1.5-13.7,3.3l-12.4,3.3l-8.8,8.1c-7,6.4-9.5,9.1-12.4,13.1c-2.8,4-6.5,7.9-16.6,17.7
		c-7.1,7-20.8,20.4-30.3,29.9c-13.1,13-18.5,18-21.9,20.4c-3.7,2.5-5,3.8-6.8,6.5c-2.8,4.1-5.5,6.5-19.6,17.7
		c-6.1,4.8-12.1,10-13.4,11.5c-1.6,1.9-7.5,6.6-17,13.8c-17.3,13-50,39.4-56.1,45.5c-5.6,5.5-11.7,14.9-18.2,27.9H521
		C521.8,218.5,522.8,217.5,524,216.2z"/>
	<path fill="#FFB20D" d="M159.7,258.4l0.6,2.3H501c1.8-5.8,3.8-11.7,4.7-13.4c0.4-0.7,1-2.5,1.3-3.9c0.3-1.5,1.2-3.4,2.3-4.8
		c1-1.3,3.7-5.8,6.1-10.1c2.6-4.7,3.9-6.9,5.7-9H87.3c-0.8,1.6-1.6,3.3-2.4,5.1c-5.8,12.4-8.2,19-11.6,33.2l-0.7,2.9h86.7
		L159.7,258.4z"/>
	<path fill="#FFFFFF" d="M162.2,422.3l9.8-42.6l30.9,30.9l-12.7-41.8l42.2,11.4l-31.9-30l42.2-11.3l-42.6-9.8l30.9-30.9l-41.7,12.7
		l11.3-42.2l-29.8,31.9l-10.7-39.9l-0.6-2.3l-0.5,2.3l-9.4,40.3L118.8,270l12.8,41.7l-42.2-11.3l31.9,29.8L79,341.5l42.6,9.9
		l-27.8,27.8l1.6,1.7l37-11.2l-11,41c0.1,0.1,0.3,0.2,0.5,0.3l29.1-31.1L162.2,422.3z"/>
</g>
</svg>
