<?xml version="1.0" encoding="utf-8"?>
<!-- Generator: Adobe Illustrator 17.1.0, SVG Export Plug-In . SVG Version: 6.00 Build 0)  -->
<!DOCTYPE svg PUBLIC "-//W3C//DTD SVG 1.1//EN" "http://www.w3.org/Graphics/SVG/1.1/DTD/svg11.dtd">
<svg version="1.1" id="flag-icon-css-nz" xmlns="http://www.w3.org/2000/svg" xmlns:xlink="http://www.w3.org/1999/xlink" x="0px"
	 y="0px" viewBox="0 0 640 480" enable-background="new 0 0 640 480" xml:space="preserve">
<g>
	<path fill="none" d="M257.5,427.2c0.4,0,0.8-0.3,0.8-0.7s0.3-0.7,0.6-0.7c0.3,0,1-0.3,1.5-0.7c0.8-0.6,0.8-0.7,0.1-0.7
		c-0.4,0-1.5,0.6-2.3,1.4C257.1,426.9,256.9,427.2,257.5,427.2z"/>
	<path fill="none" d="M355.3,25.5c0.2,0,0.6-0.3,0.8-0.7c0.1-0.4,0.2-0.7,0.1-0.7s-0.4,0.3-0.8,0.7C355,25.2,355,25.5,355.3,25.5z"
		/>
	<path fill="none" d="M188.8,453.4c-0.1-0.6-0.5-1.2-1-1.3c-0.8-0.1-0.8,0-0.4,0.8C188.3,454.4,189,454.7,188.8,453.4z"/>
	<path fill="none" d="M174.4,380.3c-1.2-0.8-1.5-0.4-0.6,0.6c0.6,0.6,0.9,0.8,1,0.4C174.9,381,174.7,380.5,174.4,380.3z"/>
	<path fill="none" d="M146.1,406c-0.8-0.1-1.1,0-1,0.3c0.2,0.7,2.2,1,2.2,0.4C147.2,406.5,146.7,406.1,146.1,406z"/>
	<path fill="none" d="M344.9,40.7c0.2-0.2,0.8-1,1.5-1.7c0.9-1,1-1.3,0.4-1.3c-1,0-2.2,1.3-2.2,2.5C344.6,40.7,344.7,41,344.9,40.7z
		"/>
	<path fill="none" d="M188.1,450.3c0.7-0.1,0.7-0.4,0.3-1.1c-0.7-1.3-0.9-1.3-1.1,0.3C187.3,450.3,187.4,450.5,188.1,450.3z"/>
	<path fill="none" d="M162.2,480c0.2,0,0.4,0.1,0.6,0.1c0.5,0.1,0.9,0,1.2-0.1H162.2z"/>
	<path fill="#00247D" d="M410.7,72.3c1.1-0.2,1.1-2.1,0-2.8c-1-0.6-1.3-2-0.5-2.5s0.5-1.2-0.6-1.7c-0.6-0.3-1.4-1.2-1.7-2.1
		c-0.7-1.7-1.5-2.3-2.3-1.5c-0.3,0.3-0.5,1-0.5,1.6s-0.2,1.1-0.4,1.1c-0.2,0-0.4,0.5-0.3,1c0,0.6,0.4,1.1,0.8,1.1
		c0.4,0,0.7,0.4,0.6,0.8C405.4,68.4,409.6,72.5,410.7,72.3z"/>
	<path fill="#00247D" d="M336.1,12.6c-1-1.3-2.2-3.1-2.7-4.1c-0.6-1.2-1.3-1.9-2.3-2.3c-1-0.4-1.5-0.8-1.3-1.2
		c0.1-0.3,0.2-0.9,0.2-1.2s0.5,0,1.1,0.5c1.3,1.2,1.7,0.9,1.7-1.2c0-1.1,0.2-1.5,0.8-1.5c0.9,0,0.6-1.1-0.4-1.3
		c-0.4-0.1-0.9,0.1-1.1,0.4c-0.2,0.4-0.9,0.4-2,0.2c-1.2-0.2-1.9-0.1-2.5,0.5c-0.8,0.7-1.2,0.8-2.5,0.3c-2.2-0.8-3-0.7-3.2,0.4
		c-0.2,0.7,0.2,1.4,1.6,2.7c5.3,4.8,8,7.8,10.1,11.6c0.3,0.5,0.6,1,0.9,1.4l3.5-2.1C337.7,14.9,336.9,13.6,336.1,12.6z"/>
	<path fill="#00247D" d="M185.1,451.2c-1,0.1-1,0.2,0.6,2c1.7,1.8,1.7,1.8,4.9,1.7c1.8,0,3.9-0.4,4.8-0.8s3-0.7,4.6-0.7
		c2.6,0,3,0.1,3,0.8c0,2,1,2.5,5.1,2.6c3.2,0,4-0.1,4.5-0.8c0.5-0.7,0.6-0.8,0.9-0.1c0.3,0.8,1.9,0.9,2.4,0.2c0.1-0.3,1-0.5,1.8-0.5
		c2.3,0,4.6-0.8,5.4-1.9c0.6-0.8,1-0.9,2.3-0.8c1,0.2,1.7,0,2.1-0.4c0.3-0.4,1.2-0.8,2-0.9c0.8-0.2,1.5-0.7,1.6-1.1
		c0.1-0.5,0.9-1.1,1.8-1.5c1.2-0.5,1.5-0.8,1.4-1.4c-0.2-0.4-0.4-1.3-0.6-2c-0.2-1.1,0-1.3,1.2-1.5c1.6-0.3,10.2-6.1,10.8-7.4
		c0.3-0.5,0.5-1.4,0.5-2.1c0-2.8,5.8-5.9,11.4-6.1c2.8-0.1,3.3-0.3,4.3-1.4c1.3-1.4,1.6-3.6,0.5-3.6c-0.4,0-0.8-0.3-1-0.8
		c-0.1-0.4-0.8-0.9-1.4-1.2c-1.1-0.4-1.1-0.5-0.4-1.5c0.4-0.6,0.9-1.5,1.2-2c0.2-0.6,0.8-1.3,1.2-1.6c1.3-1.1,3.5-4.5,3.5-5.6
		c0-0.5,0.4-1.1,0.8-1.4c0.7-0.4,0.7-0.6,0.2-1.4c-0.3-0.6-0.6-1.4-0.6-1.8c0-1.3,1.8-4.9,3-6.2c0.6-0.7,1.8-1.9,2.7-2.8
		c1.6-1.6,3.6-4.4,3.6-4.9c0-0.1-0.7-0.5-1.5-0.7l-1.5-0.4l1.7,0c1.6,0,1.8-0.2,2-1.6c0.3-1.4,0.3-4.3,0.2-9.3
		c0-1.2,0.4-2.5,1.4-4.1c0.8-1.3,1.5-3.1,1.6-4.1c0.1-1.5,0.6-2.2,3.7-4.8c2.8-2.4,3.5-3.3,3.4-4.3c0-0.7,0-0.8,0.2-0.4
		c0.1,0.5,0.4,0.8,0.7,0.8c0.7,0,8.3-4.4,8.3-4.8c0-0.2,0.3-0.2,0.6-0.1c0.3,0.1,2.1-0.5,4-1.4c7.2-3.4,12.4-5.2,17.2-5.6
		c1.5-0.1,3.7-0.5,4.8-0.8c1.6-0.4,2.2-0.4,2.4,0c0.5,0.8,5,2.9,6.2,2.9c1.1,0,1.2-0.6,0.2-1.4c-0.8-0.7-1-4.2-0.2-4.2
		c0.3,0,0.5,0.4,0.6,0.8c0,0.5,0.1,1.3,0.1,1.8s0.1,1.2,0.2,1.5c0.1,0.9,2,0.7,3.2-0.2c0.9-0.7,2.5-4.1,2.5-5.3
		c0-0.6-4.5-2.8-7.4-3.5c-1.9-0.5-3-0.6-4.3-0.2c-2.1,0.6-2.4,0.6-2.4,0c0-0.3,0.6-0.5,1.3-0.5c1.8,0,2.2-0.5,1.2-1.5
		c-1-1.1-1.4-8.4-0.6-11.6c0.8-3.5,2.6-4.9,8.3-6.8c1.4-0.5,2.8-1.2,3.1-1.7s1.5-1.2,2.5-1.6s2.1-1.2,2.4-1.9c0.3-0.6,0.8-1.1,1-1.1
		c0.2,0,0.5-0.4,0.5-1c0-0.5,0.5-1.6,1.1-2.4c1.9-2.5,5-9.2,4.7-10.1c-0.2-0.6,0.3-1.4,1.6-2.6c1.9-1.7,3-2.1,3.5-1.2
		c0.5,0.8,1.1,0.1,0.8-1.1c-0.2-1.3,0.4-2.1,4.7-6.3c2.2-2.2,2.7-2.9,2.7-4.2c0-1.2,0.5-2.1,2-3.8c3-3.3,8.8-10.4,8.8-10.9
		c0-0.2-0.7-0.4-1.4-0.4c-1.7,0-2.3-1.3-2.3-4.5c0-1.7-0.1-2.1-1.1-2.3c-2.8-0.7-3.4-3.2-1.5-5.7c0.7-0.8,1.2-1.7,1.2-2
		s0.2-0.5,0.5-0.5c0.3,0,0.5,0.3,0.5,0.7s0.3,0.7,0.7,0.7s0.7-0.2,0.7-0.5c0-0.3,0.2-0.5,0.5-0.5c0.8,0,1.8-1.5,1.8-2.4
		c0-0.5,0.7-1.3,1.6-1.9c1.1-0.7,1.7-1.5,1.8-2.5c0.3-1.7,0.2-1.8-1-1.1c-0.7,0.5-0.8,0.8-0.5,1.2c0.4,0.4,0.2,0.7-0.6,0.8
		c-0.6,0.2-1.4,0.2-1.6,0.1s-1.1,0.4-1.8,1.1c-0.8,0.8-1.8,1.3-2.3,1.3c-0.5,0-1.5,0.3-2.1,0.7s-1.7,0.7-2.3,0.7
		c-2.2,0,0.2-1.6,3.2-2.2c3.1-0.7,3.9-1.5,2.5-2.7c-0.8-0.7-0.8-0.7,0.4-0.4c1.1,0.2,1.4,0.1,1.6-0.7c0.1-0.5,0.4-0.9,0.7-0.9
		c0.6,0,0.5-1.3,0-1.6c-0.3-0.2-0.8,0-1.2,0.2c-0.6,0.5-0.7,0.4-0.7-0.4c0-0.5,0.3-1,0.6-1c0.3,0,0-0.2-0.8-0.5
		c-1-0.3-1.5-0.2-2.2,0.4c-0.8,0.7-0.8,0.7-0.8-0.7c0-1.6-0.9-2-1.3-0.6c-0.3,1-0.7,1.2-1.4,0.5c-0.3-0.3-0.7-0.1-1.2,0.4
		c-0.7,0.8-0.7,1-0.1,1.5c0.4,0.4,0.7,0.4,0.9,0c0.4-0.7,1.2-0.6,1.2,0.2c0,0.4-0.2,0.7-0.5,0.7c-0.2,0-0.3,0.3-0.2,0.7
		c0.2,0.4,0,0.7-0.4,0.7c-0.4,0-0.8-0.3-0.9-0.6c-0.1-0.4-0.6-0.2-1.5,0.6c-1.3,1.2-1.7,4-0.6,4.4c0.3,0.1-0.1,0.5-0.9,0.9
		c-1.9,1-3,1-1.6,0c1.2-0.8,1.4-2.4,0.3-2.8c-1-0.4-0.8-1.1,0.2-1.1c0.5,0,1.1-0.4,1.3-0.8c0.2-0.4,0.8-1.2,1.3-1.6
		c0.9-0.8,0.9-0.8-0.9-0.6c-1,0.1-2.1,0.6-2.4,1.1c-0.6,0.8-0.7,0.7-0.6-0.7c0-1.3,0.2-1.5,1.3-1.5c1.4,0,4.2-2.1,4.2-3.2
		c0-0.4,0.3-0.5,0.9-0.3c0.7,0.2,0.9,0.1,0.9-0.4c0-1.2-1.7-0.9-3.4,0.7c-0.9,0.8-1.7,1.4-1.9,1.4c-0.7,0-0.2-2.3,0.8-3.4
		c2.6-3,2.9-3.6,2.7-5.1c-0.2-2.3-0.6-2.5-1.3-0.9c-0.5,1.2-0.8,1.5-1.5,1.3c-2-0.7-4.6,6-2.9,7c0.6,0.4-1.7,2.5-2.7,2.5
		c-0.3,0-0.6,0.5-0.6,1.1s-0.3,1.4-0.8,1.7c-0.6,0.5-0.8,0.5-1.2-0.2c-0.7-1.2-1.2-1-3,0.8c-0.9,0.9-2,1.6-2.5,1.6
		c-1.8,0-3.4,1.1-3.7,2.4c-0.2,0.9-0.7,1.5-1.8,1.9c-0.9,0.3-1.6,0.8-1.6,1.2s-0.2,0.6-0.5,0.6c-0.2,0-0.5-0.2-0.5-0.5
		c0-0.3-0.5-0.7-1.2-0.9c-0.6-0.2-1.5-1.1-1.9-2s-1.2-1.8-1.7-2.2c-0.6-0.4-0.8-0.8-0.5-1.2c0.5-0.6,0.4-3.9-0.1-4.4
		c-0.6-0.6-0.3-1.1,0.6-1.1c0.7,0,0.9-0.4,0.9-2.1c0-1.4-0.2-2.3-0.7-2.5c-0.4-0.2-0.7-0.6-0.7-0.8c-0.1-1.3-0.6-2.1-1.1-2.1
		c-0.4,0-0.7,0.2-0.7,0.6c0,0.3-0.1,0.4-0.3,0.2c-0.2-0.1-0.8,0-1.3,0.4c-1.2,0.9-3.1,0.9-3.1,0c0-0.4-0.8-1.1-1.6-1.6
		c-0.9-0.5-1.8-1.4-1.9-1.8c-0.1-0.5-0.5-1.2-0.7-1.7c-0.3-0.5-0.3-0.8,0-0.8c0.2,0,0.5-0.6,0.5-1.3c0-0.7,0.4-1.8,0.9-2.4
		c1.1-1.5,4.7-1.9,7.2-0.8c2.1,0.9,2.3,0.7,0.3-0.4c-0.9-0.5-2.7-0.7-5.7-0.7c-3.7,0-4.5,0.2-5.6,1c-1.4,1-1.8,2.1-0.6,1.6
		c1-0.4,0.8,0.6-0.2,1.1c-1.2,0.6-1.6,0.6-1.2,0c0.1-0.3,0-0.5-0.4-0.5s-2.3,1.4-4.2,3.1c-1.9,1.8-4.5,3.9-5.8,4.8l-2.3,1.6
		l-0.2,7.3c-0.1,4-0.5,7.9-0.8,8.6c-0.3,0.8-0.6,2-0.6,2.9c0,0.9-0.3,1.9-0.8,2.2c-0.4,0.4-2,2.3-3.5,4.4s-3.1,4.1-3.6,4.6
		c-1.4,1.4-3.9,2.5-6.6,2.9c-4.3,0.6-4.7,0.8-4.5,3.2c0.2,1.7,0.1,2.3-0.8,3c-0.7,0.6-1,1.4-1,2.6c0,1-0.2,1.8-0.5,1.8
		c-0.2,0-0.5,0.4-0.5,0.9c0,0.6-0.4,1.4-0.9,1.9c-0.7,0.7-0.9,1.8-1.1,4.2c-0.1,2.8-0.4,3.5-1.6,5.1c-0.8,1-1.6,2.5-1.8,3.2
		c-0.6,2.6-4.1,7.7-7.3,10.9c-1.8,1.7-3.6,3.7-4,4.4c-0.4,0.8-0.9,1.3-1.2,1.3s-1.4,0.8-2.7,1.9c-1.4,1.2-3.4,2.3-5.2,2.8
		c-1.6,0.5-3.9,1.5-5.1,2.3c-1.1,0.8-2.3,1.4-2.6,1.4c-0.6,0-3.1,2.3-3.1,2.9c0,0.2,0.4,0.4,0.8,0.4c0.7,0,0.7,0.1-0.1,0.7
		c-0.5,0.4-1.2,0.7-1.5,0.7c-0.8,0-5.7,3.7-6.2,4.7c-0.2,0.5-1.3,0.9-2.3,1.1c-1.8,0.3-3.9,2.1-4.5,3.9c-0.4,1.1-4.4,3.7-5.4,3.5
		c-0.4,0-1.1,0.2-1.4,0.6c-0.3,0.4-1.2,0.7-2,0.7c-1.4,0-6.3,2.6-9.5,5.2c-1,0.8-2.5,1.9-3.3,2.5c-0.8,0.6-2.2,1.5-3,1.9
		c-0.9,0.5-2.4,1.5-3.4,2.4c-1.5,1.4-2.1,1.6-4,1.6c-1.6,0-2.4-0.2-2.6-0.7c-0.2-0.7-0.5-0.6-2.1,0.2c-1,0.5-2.4,0.9-3,0.9
		c-2,0-3,0.5-4.1,2.3c-1.5,2.3-3,3.6-6,5.3c-2.7,1.5-2.9,1.9-1.8,2.8c1,0.8,0.4,1.9-1.1,1.9c-0.9,0-1.5,0.3-1.6,0.8
		c-0.1,0.5-0.8,1.1-1.4,1.4c-1.3,0.6-4,3.9-3.7,4.6c0.4,1-0.8,3-1.7,3c-1.6,0-4.3,1.5-4.3,2.4c0,0.5-0.4,0.9-1,1
		c-0.7,0.1-1.1,0.5-1.2,1.2s-0.5,1.1-1,1.1c-0.5,0-0.9,0.3-1.1,0.7c-0.1,0.4-0.6,0.7-1.1,0.7c-0.5,0-1.4,0.4-1.9,0.9
		c-1.1,0.9-1.1,0.9-0.3,3.3c0.4,1.3,0.7,2.6,0.6,2.9c-0.1,0.3-0.5-0.4-0.8-1.6c-1-3.6-3.1-3.4-5.6,0.3l-1.4,2.1l1,0.7
		c1,0.7,1,0.7-0.3,0.2c-1.2-0.5-1.4-0.5-2.2,0.5c-0.5,0.6-1.1,1-1.3,1s-0.8,0.3-1.1,0.8c-0.5,0.7-0.4,0.9,0.7,1.7
		c0.7,0.5,1.3,1.1,1.3,1.4s-0.4,0-1-0.6c-0.5-0.5-1.2-0.8-1.5-0.8c-0.7,0.2-0.8,3.3-0.1,5c0.6,1.7-0.6,0.7-1.4-1.2l-0.7-1.6
		l-0.9,1.1c-0.8,0.9-0.8,1.2-0.2,1.8c0.9,1,0.8,1.3-0.5,1c-1.5-0.3-3.1,0.6-3.1,1.7c0,0.5-0.3,1.2-0.6,1.5s-0.9,1.4-1.3,2.3
		s-0.8,1.7-1,1.9c-0.2,0.2-0.5,0.9-0.7,1.8c-0.4,1.9,0.7,2.4,2.8,1.3c0.8-0.4,2-0.7,2.4-0.6c0.7,0.1,0.2,0.5-1.5,1
		c-1.9,0.7-2.5,1-2.5,1.8s-0.1,0.8-0.3,0.2c-0.1-0.6-0.7-0.8-1.5-0.8c-2.6,0-4,0.9-5.4,3.4l-1.3,2.4l1.9-1.8l1.9-1.8l0.5,1.1
		c0.4,1,0.2,1.2-1.1,1.6c-2.1,0.6-2.8,1.4-0.9,1c0.8-0.1,2.2-0.4,3-0.6s2-0.4,2.3-0.5s2.3-0.3,4.2-0.4c3.2-0.2,3.4-0.1,2.6,0.5
		c-0.6,0.5-1.9,0.7-3.8,0.7c-1.6,0-3.7,0.3-4.5,0.7c-0.9,0.4-2.3,0.7-2.9,0.7c-1.5,0-3.6,1.8-3.6,3.3c0,0.7,0.3,2,0.7,3
		c0.7,1.5,0.9,1.7,2.1,1.5c0.7-0.2,1.7-0.7,2.3-1.2c0.5-0.5,1.5-0.9,2.3-0.9l1.4,0l-1.4,0.7c-1.8,1-2.6,2-2.6,3.4
		c0,0.9,0.1,1,0.6,0.6c0.5-0.4,0.8-0.3,1.2,0c0.4,0.4,0.7,0.3,1.2-0.4c0.7-0.8,0.7-0.8,1,0c0.4,0.9-0.5,2.2-1.4,2.2
		c-0.4,0-0.7-0.2-0.8-0.5c-0.1-0.3-0.4-0.2-0.8,0.2c-1.4,1.7,4.4,5,6.5,3.7c0.5-0.3,1.3-0.3,2.5,0.1c0.9,0.3,3.3,0.7,5.2,0.9
		c1.9,0.1,4.6,0.4,6.1,0.5c2.6,0.2,2.7,0.2,2.7-0.9c0-2.9,4.3-3.7,7.6-1.3c2.6,1.8,3.8,3.1,3.2,3.6c-0.8,0.4-0.6,1.2,0.2,1.2
		c0.4,0,0.7,0.4,0.7,0.9c0,0.7,0.4,0.9,2.3,1.1c1.4,0.1,2.4,0,2.8-0.3c0.5-0.5,1.1-0.5,2.3-0.1c1.4,0.4,1.7,0.4,2.2-0.3
		c0.5-0.8,0.7-0.8,2.4,0c2.4,1,3.4,1.9,4.2,3.9S186.3,451,185.1,451.2z M258.2,425.8c0.8-0.8,1.9-1.4,2.3-1.4c0.7,0,0.7,0.1-0.1,0.7
		c-0.5,0.4-1.2,0.7-1.5,0.7c-0.3,0-0.6,0.3-0.6,0.7s-0.4,0.7-0.8,0.7C256.9,427.2,257.1,426.9,258.2,425.8z M187.3,449.5
		c0.2-1.6,0.4-1.6,1.1-0.3c0.4,0.7,0.3,0.9-0.3,1.1C187.4,450.5,187.3,450.3,187.3,449.5z M187.9,452.2c0.5,0.1,0.9,0.7,1,1.3
		c0.2,1.3-0.6,1-1.4-0.5C187.1,452.1,187.1,452,187.9,452.2z M145,406.3c-0.1-0.3,0.3-0.5,1-0.3c0.7,0.1,1.2,0.5,1.2,0.7
		C147.2,407.3,145.2,407,145,406.3z M174.8,381.3c-0.1,0.3-0.5,0.2-1-0.4c-0.9-1-0.6-1.3,0.6-0.6C174.7,380.5,174.9,381,174.8,381.3
		z"/>
	<path fill="#00247D" d="M335.9,19.9c0.8,0.9,2.1,5,2.1,6.8c0,1.6-1,2.8-2.1,2.3c-1.4-0.5-1.3,1.2,0.1,2.7c0.8,0.8,1.9,2.5,2.5,3.8
		c0.7,1.5,1.9,3.1,3.5,4.5c1.4,1.2,2.5,2.4,2.5,2.9c0,0.4,0.4,1,0.8,1.4s0.7,0.9,0.7,1.4c0,0.5,2.3,3.5,5.2,6.8
		c6.2,7.2,12.2,16.1,13.2,19.3c0.6,2.2,0.8,2.3,2.3,2.4c0.9,0.1,2-0.1,2.4-0.5c0.8-0.6,0.8-0.8,0.1-2.1c-0.4-0.7-1-1.5-1.4-1.6
		c-0.4-0.1-1.4-1.3-2.2-2.5c-1.1-1.6-1.3-2.2-0.7-1.9c0.5,0.2,1,0.3,1.2,0.3c0.2,0,1.3,0.8,2.3,1.6c2.9,2.4,5.2,2.2,2.6-0.2
		c-1.3-1.2-1.5-2.3-0.6-2.3c0.3,0,1,0.8,1.5,1.6c0.5,0.9,1.2,1.6,1.5,1.6s0.8,0.4,1.1,0.9s0.8,0.9,1.2,0.9c0.4,0,0.7,0.2,0.6,0.6
		c-0.4,1-1.1,0.9-1.8-0.3c-0.8-1.4-2.1-1.6-1.7-0.2c0.1,0.5,0,0.9-0.2,0.9s-0.4,0.7-0.4,1.6c0,1.4,0.2,1.7,1.3,1.9
		c0.7,0.2,1.6,0.1,2.1-0.2c0.5-0.3,1-0.5,1.1-0.5s0.2,2.1,0.2,4.7c0,4.3,0,4.7-0.9,4.7c-1.3,0-1.7-1-0.8-1.7
		c0.8-0.6,0.8-0.7-0.8-1.3c-1-0.4-1.8-1.1-1.9-1.8c-0.2-0.6-0.6-1.5-0.9-2c-0.6-0.8-0.8-0.8-1.5-0.3c-0.4,0.3-0.8,0.5-0.8,0.2
		c0-0.6-0.9,0.9-0.9,1.5c0,0.3,1,1.6,2.2,3c3,3.5,5.8,8.7,6.4,12c0.9,5.1,2.2,6.8,3.7,5.1c0.3-0.4,0.9-0.7,1.3-0.5
		c0.3,0.1,0.6,0,0.6-0.4c0-0.8,2-1.9,4.5-2.3c1.4-0.2,1.6-0.1,0.8,0.2c-0.6,0.2-1.1,0.6-1.1,0.7c0,0.9,1.1,2.1,1.8,2.1
		c0.5,0,1.6,0.3,2.4,0.7c1.6,0.7,1.5,0.8-1.1,1.4c-2,0.4-4.2,2.6-3.8,3.7c0.2,0.7,0.1,0.9-0.3,0.8c-0.4-0.1-0.7-0.9-0.8-1.7
		c-0.1-0.8-0.3-1.5-0.6-1.5c-0.2,0-0.4-0.5-0.3-1.1c0.1-0.9-0.1-1-1.6-1.2c-1-0.1-1.8,0-1.8,0.2c0,0.2,0.9,2.8,2.1,5.6
		c1.1,2.9,2.5,6.7,3,8.4c0.5,1.7,1.4,5,2.1,7.3c0.7,2.3,1.2,4.6,1.2,5.2c0,0.9,0.2,1,1.2,0.8c0.7-0.1,1.3-0.5,1.5-0.8
		c0.4-1,1.5-0.8,1.2,0.2c-0.1,0.7-0.8,0.9-2.3,1.1c-3,0.3-3.6,0.9-3.2,3.8c0.4,3.2,1,4,2.1,2.5c0.8-0.9,0.9-1,1.1-0.3
		c0.4,1.1-0.1,1.8-1.5,1.8c-0.9,0-1.1,0.2-1.1,1.5v1.4l1.4-0.8c1.1-0.6,1.5-0.7,1.9-0.3c1,1-0.4,2.1-2.6,2c-3.6-0.3-3.8,0-3.7,4
		c0.1,2.7,0,3.7-0.5,4.4c-0.5,0.6-0.8,2.4-1,6.2c-0.2,3-0.6,6.8-1,8.7c-0.7,3-0.9,3.5-3.6,6.2l-2.9,3h-3.1c-2.6,0-3.4,0.2-5.2,1.4
		c-1.2,0.7-2.4,1.4-2.9,1.4s-1,0.3-1.3,0.7c-0.3,0.3-1.8,1.2-3.3,1.9c-2.3,1-3,1.6-3.8,3.2c-0.6,1.1-1,2.4-1,2.8
		c0,1.5,1.5,4.8,3.1,6.7c2.1,2.6,4.1,3.8,7.2,4.1c5,0.5,7.7,1.6,8.9,3.4c0.6,0.9,1.7,2,2.3,2.4c0.7,0.4,1.8,1.4,2.7,2.3
		c0.8,0.9,2,1.5,2.6,1.5s1.6,0.3,2.2,0.8c0.7,0.4,1.6,0.7,2.3,0.5c2.3-0.4,5.9,1.4,8.7,4.3c4.8,5.1,6.4,9.9,5.3,17.5l3.8-11.7
		l-17.2-12.5l-2.2-1.1h0.7l-1.3-1l5.9,1h18.5l5.7-17.6l0.9-5.9l0.5,1.6l0.2-0.6l0.4,2.4l6.6,20.2H441l5.9-1l-1.3,1h0.7l-2.2,1.1
		L426.9,214l5.4,16.7l2.7,5.3l-1.3-1l0.2,0.6l-1.7-1.7L415.9,222l-16.3,11.9l-1,1c-1.1,2.4-2.3,4.6-3.4,5.6
		c-0.8,0.7-1.4,1.7-1.4,2.3c0,1.4-0.9,2.8-2.4,4c-0.8,0.6-1.3,1.3-1.3,1.7c0,0.4-1.6,2.3-3.6,4.1c-3.9,3.7-4.3,5-2,6.3
		c1.1,0.6,1.5,0.6,3.2,0c1.4-0.4,1.9-0.9,1.9-1.5c0-0.5-0.2-0.8-0.4-0.6c-0.2,0.1-0.6,0-0.8-0.3c-0.4-0.6,1.1-1.8,2.3-1.8
		c1,0,1.1,1.9,0.1,3.5c-0.5,0.8-0.6,1.4-0.3,2.3c0.7,1.7,1.7,1.9,3.9,0.7c2.1-1.1,4.2-1.3,5.1-0.4c0.3,0.3,0.8,0.6,1.2,0.6
		c0.5,0,0.6,0.4,0.4,1.8c-0.3,2.2,0.7,5.4,1.8,5.6c1,0.2,5.2-1.5,7.1-3c0.8-0.6,1.7-1.1,2-1.1c0.3,0,1.4-0.7,2.3-1.6s2.3-1.8,3-1.9
		c0.7-0.2,2.1-1.3,3.2-2.5c1.1-1.2,2.6-2.6,3.3-3c0.7-0.5,1.3-1.1,1.3-1.4s0.7-1.5,1.6-2.6c0.8-1.1,1.9-3,2.4-4.2
		c0.5-1.2,1.5-3,2.3-3.9s1.7-2.4,1.9-3.3c0.6-2.6,2.5-6.1,3.4-6.1c0.5,0,1.6-1.3,2.6-2.9c1.1-1.7,2.3-3,3-3.3
		c2.5-0.9,2.8-1.4,4.2-7.6c0.2-0.9,1-1.9,2.3-2.9c2.9-2,3.7-3.3,4.3-6.6c0.3-1.5,1.1-4,1.9-5.4s1.4-3.1,1.4-3.8
		c0-1.1,0.6-2.3,2.7-5.1l1.1-1.5h-1.8c-2.3,0-3.4-1.1-3.4-3.7c0-1.6-0.1-2-0.9-2c-1.8,0-0.9-3.6,1.6-6.5c1.1-1.2,2.1-2.8,2.2-3.4
		c0.2-1.5,3.3-3.2,8.5-4.9c2.9-0.9,4.6-1.2,8.3-1.2c2.9,0,4.7,0.2,5,0.5c0.2,0.3,0.9,0.4,1.7,0.2c1.5-0.3,2.3,0.7,1.3,1.8
		c-0.5,0.6-0.4,2,0.3,4.5c0.4,1.4,1.1,1,1.9-0.9c0.4-0.9,1.2-2.2,1.7-2.8c0.9-1,0.8-2-0.3-2c-1.3,0-1.5-1.2-1.1-5.9
		c0.2-2.5,0.7-4.9,0.9-5.2c0.2-0.3,0.3-1.1,0.2-1.7c-0.3-1.3,1.3-3.2,1.9-2.3c0.5,0.9,2,0.6,2.5-0.7c0.3-0.7,0.9-1.2,1.5-1.2
		c0.5,0,0.9-0.2,0.9-0.4c0-0.2,0.8-1.2,1.9-2.3c1.2-1.2,1.9-2.3,1.9-3c0-0.7,0.5-1.6,1.3-2.3l1.3-1.1l-1.1-0.4c-0.8-0.3-1-0.5-0.6-1
		c0.3-0.3,0.4-0.8,0.2-0.9c-0.1-0.2,0-0.6,0.3-1c0.4-0.5,0.4-0.8,0-1c-0.7-0.4-0.6-1.9,0.2-2.6c0.7-0.6,0.7-0.7,0-1.4
		c-1-1.1-0.9-1.6,0.3-2.4c1-0.7,1-0.8,0.4-2c-0.2-0.3-0.3-0.6-0.3-0.8l-6.8,5l-1.7,1.7l0.2-0.6l-1.3,1l2.7-5.3l5.4-16.7l-4.9-3.6
		c-0.3,0-0.7,0-1,0c-3.4,0-3.6,0-4.3,1.3c-0.4,0.7-1.3,1.4-2,1.5c-0.7,0.2-1.4,0.6-1.5,1s-0.7,0.7-1.2,0.7s-1.1,0.2-1.2,0.5
		c-0.1,0.2-0.7,0.5-1.3,0.5c-0.6,0-0.8,0.2-0.7,0.7s-0.2,1-0.9,1.4c-0.6,0.4-1.1,1.2-1.1,1.7c0,0.5-0.4,1-0.8,1.1
		c-0.4,0.1-1.3,1.1-2,2.2c-0.6,1-2,2.4-3,3c-1.5,1-2.3,1.2-5.5,1.2c-3,0-3.8,0.1-4.2,0.8c-0.4,0.7-0.6,0.7-1.7,0.2
		c-1-0.4-1.2-0.7-0.7-1c0.9-0.6-1.8-1.9-3.8-1.9c-0.8,0-2-0.3-2.5-0.7c-0.5-0.4-1.2-0.7-1.6-0.7c-0.9,0-7.1-3-9.8-4.7
		c-1.2-0.7-2.9-1.5-3.8-1.6s-2.7-1.2-4-2.2c-2.4-1.7-3.7-2-2.3-0.4c0.4,0.5,0.6,1.1,0.4,1.3c-0.5,0.8-1.1,0.6-1-0.3
		c0-0.5-0.2-0.8-0.8-0.7c-0.5,0.1-1.8-0.3-2.9-0.9c-2.2-1.1-3.3-3-2.8-4.6c0.2-0.6,0.1-1-0.2-1s-0.5-0.3-0.5-0.7
		c0-0.4,0.2-0.7,0.5-0.7c0.7,0,0.1-3.3-0.9-5.6c-0.4-0.9-0.9-3.6-1.1-5.9c-0.4-5.1-0.8-7.8-1.4-8.4c-0.2-0.2-0.4-1-0.4-1.7
		c0-1.7-1-2.4-2.5-1.8c-0.7,0.2-1.2,0.7-1.2,0.9c0,0.2-0.2,0.5-0.5,0.5c-1.3,0,1.9-3.7,3.2-3.8c0.4,0,0.6-0.4,0.5-1.1
		c-0.1-1.1-1.1-1.2-3.8-0.6c-1.8,0.5-4.2-1.4-3.8-2.9c0.4-1.8-1.7-5.4-2.9-5c-0.3,0.1-0.9-0.1-1.2-0.5c-0.3-0.4-1.2-0.7-1.9-0.7
		c-1.2,0-1.4,0.2-1.4,1.4c0,1,0.4,1.7,1.6,2.6c1.4,1.1,1.6,1.5,1.6,3.2c0,4.2,0.1,4.6,0.8,4.1c0.4-0.4,0.7-0.3,0.9,0.3
		c0.4,1.1,0.4,1.1-0.8,1.1c-1.8,0-1.9,1.7-0.1,4.9c0.8,1.5,1.7,3.7,1.8,4.7c0.1,1,0.4,2.2,0.6,2.7c0.2,0.5-0.1,1-1,1.5
		c-3.2,1.7-3.5,1.8-4.7,0.7c-0.9-0.9-1.1-1.5-1.1-3.8c0-2.2-0.2-3.1-1.2-4.4c-1.3-1.7-3.9-2.4-5.6-1.5c-0.8,0.4-0.8,0.3-0.6-0.4
		c0.1-0.5,0-1.1-0.2-1.5c-0.6-0.8-3-0.9-2.5-0.2c0.6,0.9-1.1,0.4-1.8-0.6c-0.7-0.9-0.7-0.9-1-0.2c-0.4,1-1.1,1-1.1,0.1
		s-4.6-1.5-5.2-0.8c-0.3,0.4-0.5,0.3-0.9-0.5c-0.6-1.2-0.4-1.7,0.6-1.1c0.7,0.4,4.1,0.6,4.1,0.2c0-0.2-0.5-1.5-1.2-3.1l-1.1-2.8
		l1.6-0.8c2-1,2.2-1.9,0.2-1.2c-2.1,0.7-3,0.2-2.6-1.6c0.1-0.8,0-1.7-0.2-2.1c-0.4-0.5-0.2-0.8,0.7-1.1c1.4-0.5,1.6-1.3,0.5-1.7
		c-1.1-0.4,0-1.5,1.8-1.9c1.5-0.3,1.5-0.3,0.4-0.7c-0.7-0.3-1-0.7-0.8-1.1c0.1-0.4,0.4-1,0.6-1.4c0.1-0.4-0.1-0.8-0.7-1
		c-1.4-0.4-3.6-3.2-5.9-7.4c-0.2-0.5-0.8-0.8-1.3-0.8c-0.4,0-1.2-0.6-1.8-1.3c-0.9-1.1-1-1.6-0.8-3.9c0.3-2.9,0-3.2-2.5-3.2
		c-0.9,0-1.4-0.3-1.6-1.1c-0.5-1.7-0.3-1.8,1.3-0.8c0.8,0.5,1.8,0.9,2.1,0.9c0.3,0,1.1,0.6,1.7,1.2c0.7,0.8,1.5,1.1,1.9,0.9
		c0.8-0.3,0.9-1,0.2-1.5c-0.7-0.4-0.6-2.9,0.1-3.2c0.3-0.1,0.2-0.3-0.2-0.3c-1.2,0-1.8-1.6-1.5-4c0.3-1.8,0.2-2.2-0.5-2.2
		c-0.5,0-0.8-0.4-0.8-1.1c0-0.6-0.3-1.2-0.7-1.4c-0.4-0.1-0.7-0.8-0.7-1.5c0-0.8-0.2-1.2-0.8-1.2c-1.2,0-1.6-0.5-1-1.2
		c0.3-0.3,0-1-0.9-2.1c-1.1-1.3-1.3-1.9-1.1-3c0.1-0.8,0.5-1.7,0.8-2.1c0.3-0.4,0.2-0.6-0.6-0.6c-0.6,0-1,0.3-1,0.8
		c0,0.6-0.3,0.7-1.2,0.5c-0.9-0.2-1.2-0.1-1.5,0.9c-0.2,1-0.5,1.2-1.8,1.1c-1-0.1-1.5-0.4-1.7-1.1s-0.6-0.9-1.4-0.8
		c-0.9,0.1-1.1-0.1-1.2-1.1c0-0.9,0.1-1.1,0.5-0.7c0.6,0.6,2.5,0.7,2.9,0.1c0.4-0.7-1.7-1.9-3.4-1.9c-1.2,0-1.5-0.2-1.5-0.8
		c0-0.9-1.4-2.4-2.2-2.4c-0.3,0-0.8-0.3-1.1-0.7c-0.4-0.5-1-0.7-1.9-0.5c-0.9,0.2-1.5,0-2.3-0.7c-0.6-0.6-1.4-1-1.9-1
		c-0.5,0-1.1-0.2-1.2-0.5c-0.1-0.3-0.8-0.5-1.4-0.5c-0.8,0-1.2,0.3-1.5,1.1c-0.3,1.4-1.4,1.9-2.5,1.2c-2.1-1.1-2.3-3.9-0.4-4.4
		c1-0.3,1-0.3,0.1-1.5c-1-1.5-1.4-1.5-1.7-0.3c-0.1,0.6-0.7,0.9-1.2,0.9c-1.4,0-1.7,1.1-0.7,2.8c1,1.6,0.5,3-1.2,3.2
		c-1.4,0.2-1.8-1.2-0.8-2.9c0.4-0.8,0.7-1.4,0.7-1.5c-0.1,0-0.7-0.3-1.5-0.7c-0.8-0.4-1.4-1-1.5-1.9c0-0.1-0.1-0.3-0.2-0.5l-3.5,2.1
		C335.2,18.8,335.7,19.6,335.9,19.9z M355.3,24.8c0.3-0.4,0.7-0.7,0.8-0.7s0,0.3-0.1,0.7c-0.2,0.4-0.5,0.7-0.8,0.7
		C355,25.5,355,25.2,355.3,24.8z M346.8,37.7c0.6,0,0.6,0.3-0.4,1.3c-0.6,0.8-1.3,1.5-1.5,1.7c-0.2,0.3-0.4,0-0.4-0.5
		C344.6,39,345.7,37.7,346.8,37.7z"/>
	<path fill="#00247D" d="M425.7,115.6c0,0.4,0.3,1,0.7,1.4s0.7,1.1,0.7,1.7c0,1.4,2,2.6,2.9,1.7c0.5-0.5,0-1.1-1.9-3
		C426.5,115.7,425.7,115.1,425.7,115.6z"/>
	<path fill="#00247D" d="M397.4,67.3c0.1-1-0.4-1.4-1-0.7c-0.2,0.1-0.3,0.7-0.3,1.2C396.1,69,397.3,68.6,397.4,67.3z"/>
	<path fill="#00247D" d="M391.9,87.3c0,0.2-0.5,0.7-1.2,0.9c-1.4,0.6-1.5,1.5-0.3,1.5c0.8,0,2.9-1.8,2.9-2.5c0-0.2-0.3-0.3-0.7-0.3
		S391.9,87.1,391.9,87.3z"/>
	<path fill="#00247D" d="M394.3,89.1c0,0.6,4.2,2.2,4.9,1.8c0.5-0.1,0.7,0,0.7,0.6c0,0.5,0.3,1.1,0.7,1.5c0.6,0.5,0.7,0.4,0.7-0.9
		c0-0.8-0.2-1.5-0.5-1.5s-0.4-0.7-0.3-1.5c0.1-1.5-0.2-1.8-1.6-1.5c-0.5,0.1-0.8,0.4-0.8,0.7s-0.5,0.4-1,0.4
		C395.3,88.6,394.3,88.7,394.3,89.1z"/>
	<path fill="#00247D" d="M164.7,479.5c0.2-0.4,0.7-0.6,1.1-0.4c0.5,0.1,1.4-0.4,2.3-1.5c1.5-1.5,1.8-1.7,3.2-1.4c1.2,0.2,2,0,3-0.6
		c1.4-1,4.9-2,6.9-2c0.8,0,1.2-0.2,1.2-0.8c0-0.6,0.3-0.7,1-0.5c0.8,0.2,0.9,0.1,0.5-0.2c-0.4-0.4-0.3-0.7,0.2-1.2
		c1-1,0.8-2-0.4-2.3c-0.6-0.2-1.3-0.2-1.5-0.2c-0.2,0-0.8,0-1.1,0c-0.5,0-0.6-0.1-0.1-0.4c0.4-0.2-0.3-0.6-1.8-1
		c-1.3-0.3-2.3-0.8-2.3-1c0-0.7,1.4-1,2.1-0.4c0.8,0.7,4.1,0.2,3.8-0.6c-0.1-0.3-0.9-0.9-1.8-1.4c-1.9-1-3.2-2.5-3.2-3.6
		c0-1.4-1.6-2.4-4.3-2.6c-1.8-0.1-2.9,0-3.6,0.5c-0.7,0.5-1,1.2-1,2.1c0,0.8-0.2,1.4-0.6,1.4s0.1,0.7,1,1.5c1.4,1.5,1.5,1.7,0.9,2.8
		c-0.3,0.7-0.8,1.3-1.2,1.3s-0.6,0.6-0.6,1.8c0,1.7,0,1.8-1.8,2.1c-2,0.3-2.5,1-2.1,3.1c0.3,1.2,0.1,1.5-1.4,2.2
		c-1.5,0.7-1.7,1-1.6,2.3c0.1,0.9,0.3,1.3,0.9,1.4h1.8C164.3,479.9,164.5,479.8,164.7,479.5z"/>
	<path fill="#FFFFFF" d="M497.8,119.5c-0.1-0.2-0.2-0.3-0.2-0.6c-0.2-0.7-0.7-1.1-1.1-1.1c-0.5,0-1-0.1-1.2-0.3
		c-0.2-0.2-1.3-0.3-2.8-0.4l4.9,3.6L497.8,119.5z"/>
	<polygon fill="#FFFFFF" points="490.4,142.3 492.1,140.6 490.6,141.7 	"/>
	<path fill="#FFFFFF" d="M492,137.4l8.7-16.7l0.1-0.2c-0.3-0.1-0.5-0.1-0.8-0.1c-1.3-0.2-1.9-0.4-2.2-0.8l-0.4,1.2L492,137.4z"/>
	<path fill="#FFFFFF" d="M496.5,133.5l0.1-0.4l-0.9,0.6l1.8-3.5l3.1-9.6l-8.7,16.7l-2.7,5.3l1.3-1l1.5-1.1l6.8-5
		c-0.2-0.6,0-1,0.5-1.8c0.4-0.8,0.8-1.9,0.8-2.5c0-0.2,0.1-0.6,0.3-1l-2.9,2.1L496.5,133.5z"/>
	<polygon fill="#CC142B" points="497.6,132.4 496.6,133.1 496.5,133.5 	"/>
	<path fill="#CC142B" d="M497.6,130.2l4.8-9.3c-0.5-0.2-1.1-0.3-1.7-0.5l-0.1,0.2L497.6,130.2z"/>
	<path fill="#CC142B" d="M497.6,130.2l-1.8,3.5l0.9-0.6l1-0.7l2.9-2.1c0.8-1.9,3.1-5.6,3.9-6.1c0.2-0.1,0.5-0.7,0.5-1.2
		c0-0.8-1-1.5-2.5-2.1L497.6,130.2z"/>
	<polygon fill="#FFFFFF" points="441,200.5 423.5,200.5 424.4,203.2 	"/>
	<polygon fill="#FFFFFF" points="446.2,200.5 445.5,200.5 444.1,201.5 	"/>
	<polygon fill="#FFFFFF" points="424.5,203.5 432.5,203.5 436.4,202.9 435.5,203.5 435.9,203.5 434.5,204.3 425.8,210.6 426.9,214 
		444.1,201.5 445.5,200.5 446.9,199.5 441,200.5 424.4,203.2 	"/>
	<polygon fill="#FFFFFF" points="409.3,200.5 390.7,200.5 408.3,203.4 	"/>
	<polygon fill="#FFFFFF" points="385.5,200.5 387.7,201.5 386.2,200.5 	"/>
	<polygon fill="#FFFFFF" points="406,210.6 397.3,204.3 395.8,203.5 396.3,203.5 395.4,202.9 399.3,203.5 408.3,203.5 408.3,203.4 
		390.7,200.5 384.9,199.5 386.2,200.5 387.7,201.5 404.9,214 	"/>
	<polygon fill="#FFFFFF" points="433.9,235.6 433.7,235 432.2,233.9 	"/>
	<polygon fill="#FFFFFF" points="425.8,210.6 423.2,212.5 423.6,213.9 432.3,230.7 426.9,214 	"/>
	<polygon fill="#FFFFFF" points="423.6,213.9 426.7,223.5 428.5,227 427.7,226.3 427.8,226.8 426.7,225.6 418.8,219.9 415.9,222 
		432.2,233.9 433.7,235 435,235.9 432.3,230.7 	"/>
	<polygon fill="#FFFFFF" points="416.6,177.9 416.4,178.5 417,180.3 	"/>
	<polygon fill="#FFFFFF" points="408.3,203.5 411.5,203.5 412.2,201.4 415,182.8 409.3,200.5 408.3,203.4 	"/>
	<polygon fill="#FFFFFF" points="412.2,201.4 415.3,191.9 415.9,188 416.2,189.1 416.4,188.6 416.6,190.2 420.9,203.5 424.5,203.5 
		424.4,203.2 423.5,200.5 417,180.3 416.4,178.5 415.9,177 415,182.8 	"/>
	<path fill="#FFFFFF" d="M398.7,234.5c-0.1,0.1-0.1,0.3-0.2,0.4l1-1L398.7,234.5z"/>
	<path fill="#FFFFFF" d="M408.1,213.9l0.5-1.5l-2.6-1.9l-1.1,3.4l-3.8,11.7c-0.1,0.9-0.3,1.8-0.5,2.8L408.1,213.9z"/>
	<path fill="#FFFFFF" d="M415.9,222l2.9-2.1l-2.9-2.1l-10.8,7.8l-1.1,1.1l0.1-0.4l-0.9,0.6l1.8-3.5l3.1-9.6l-7.6,14.6
		c-0.1,0.5-0.2,1-0.4,1.6c-0.3,1.4-0.9,2.9-1.5,4.4l0.8-0.6L415.9,222z"/>
	<polygon fill="#CC142B" points="435.9,203.5 435.5,203.5 434.5,204.3 	"/>
	<polygon fill="#CC142B" points="421.5,205.4 432.5,203.5 424.5,203.5 420.9,203.5 	"/>
	<polygon fill="#CC142B" points="421.5,205.4 422.1,207.1 419.3,208 419.3,208.4 421.6,207.7 423.2,212.5 425.8,210.6 434.5,204.3 
		435.5,203.5 436.4,202.9 432.5,203.5 	"/>
	<polygon fill="#CC142B" points="395.8,203.5 397.3,204.3 396.3,203.5 	"/>
	<polygon fill="#CC142B" points="410.9,205.5 411.5,203.5 408.3,203.5 399.3,203.5 	"/>
	<polygon fill="#CC142B" points="410.2,207.7 410.9,205.5 399.3,203.5 395.4,202.9 396.3,203.5 397.3,204.3 406,210.6 408.6,212.5 	
		"/>
	<polygon fill="#CC142B" points="427.8,226.8 427.7,226.3 426.7,225.6 	"/>
	<polygon fill="#CC142B" points="421.6,207.7 419.3,208.4 419.5,209.6 426.7,223.5 423.6,213.9 423.2,212.5 	"/>
	<polygon fill="#CC142B" points="427.7,226.3 428.5,227 426.7,223.5 419.5,209.6 419.7,210.8 417.7,212.8 419.4,215.2 415.9,217.8 
		418.8,219.9 426.7,225.6 	"/>
	<polygon fill="#CC142B" points="416.4,188.6 416.2,189.1 416.6,190.2 	"/>
	<polygon fill="#CC142B" points="410.9,205.5 410.2,207.7 412.8,208.5 415.3,191.9 412.2,201.4 411.5,203.5 	"/>
	<polygon fill="#CC142B" points="419.3,208.4 419.3,208 415.2,209.3 419.7,210.8 419.5,209.6 	"/>
	<polygon fill="#CC142B" points="412.8,208.5 412.8,208.5 413.5,207.1 415.2,209.3 415.2,209.3 419.3,208 422.1,207.1 421.5,205.4 
		420.9,203.5 416.6,190.2 416.2,189.1 415.9,188 415.3,191.9 	"/>
	<polygon fill="#CC142B" points="404,226.8 405.1,225.6 404.1,226.3 	"/>
	<polygon fill="#CC142B" points="412.8,208.5 412.8,208.5 410.2,207.7 408.6,212.5 408.1,213.9 405,223.5 	"/>
	<polygon fill="#CC142B" points="415.2,209.3 415.2,209.3 417.7,212.8 419.7,210.8 	"/>
	<polygon fill="#CC142B" points="419.4,215.2 417.7,212.8 415.2,209.3 413.5,207.1 412.8,208.5 405,223.5 403.2,227 404.1,226.3 
		405.1,225.6 415.9,217.8 	"/>
	
		<line fill="none" stroke="#000000" stroke-width="0" stroke-linecap="round" stroke-linejoin="round" x1="338" y1="15.7" x2="334.5" y2="17.8"/>
</g>
</svg>
