<?xml version="1.0" encoding="utf-8"?>
<!-- Generator: Adobe Illustrator 17.1.0, SVG Export Plug-In . SVG Version: 6.00 Build 0)  -->
<!DOCTYPE svg PUBLIC "-//W3C//DTD SVG 1.1//EN" "http://www.w3.org/Graphics/SVG/1.1/DTD/svg11.dtd">
<svg version="1.1" id="flag-icon-css-om" xmlns="http://www.w3.org/2000/svg" xmlns:xlink="http://www.w3.org/1999/xlink" x="0px"
	 y="0px" viewBox="0 0 640 480" enable-background="new 0 0 640 480" xml:space="preserve">
<g>
	<path fill="#EF2D29" d="M145.4,329.9c-32.9,10.6-36.1,11.7-35.9,12.5c0.1,0.5,8.9,22.2,19.6,48.1c10.7,26,19.5,47.6,19.5,48
		c0,0.4,0.9,1.3,2.1,2l2.1,1.3l7.6,18c4.2,9.9,7.7,18.1,7.9,18.4c0.3,0.3,3.3-0.2,6.5-1.2V320.4C164.4,323.7,154.5,327,145.4,329.9z
		"/>
	<path fill="#EF2D29" d="M309,171.6l-10,31.2c-5.6,17.2-13.8,43.1-18.3,57.7l-8.3,26.4l-15.1,5.4c-20.7,7.3-47.5,16.4-73.4,25.1
		h239.4c-0.5-0.9-1.2-2.1-2-3.4l-2.6-3.8l-0.1-5.2c-0.1-5.1,0-5.3,1.2-7.2c1.7-2.5,2.9-5.7,3.5-9.7c0.3-1.8,0.8-4.6,1.2-6.3
		c0.4-1.7,0.7-4.4,0.7-6.1c0-3.7,1.2-5.7,4.7-8c2.3-1.4,2.3-1.6,2.3-3.7c0-2.1,0.1-2.3,2.6-4.5c2.4-2.1,2.6-2.4,2.6-4.3
		c0-2.6,1-4,3.7-4.9c2.2-0.8,6-0.9,7-0.3c0.6,0.4,0.6,0.7,0.1,1.7c-0.3,0.7-0.7,2.3-1,3.6c-0.2,1.3-0.7,2.7-1.2,3.1
		c-0.5,0.6-0.7,1.3-0.5,2c0.3,1.3,1.7,1.7,5.3,1.7c1.1,0,2.6,0.3,3.2,0.8c0.7,0.4,2.1,0.9,3.2,1.1c2,0.3,2.1,0.2,2.6-1
		c0.3-0.7,1.1-1.8,1.7-2.3c1-0.8,1.4-1.8,2.3-6.3c1.2-5.8,2.2-8.3,4.4-10.5c0.7-0.7,1.4-1.6,1.4-1.8c0-0.2,0.8-0.8,1.9-1.4
		c1.7-0.9,1.9-1.1,1.9-2.9l0-2l-1.4,1.6c-1.9,2.2-1.9,0.7,0-1.6c0.8-1,1.4-2.1,1.4-2.7c0-0.5,0.7-1.5,1.6-2.3c1.1-1,1.8-2.1,2.1-3.7
		c0.6-2.5,3.1-5.8,7.6-10.2c1.2-1.2,2.7-2.9,3.3-3.9c1.5-2.5,5.8-6.2,11.8-10.2c4.8-3.1,5.3-3.6,5.9-5.5c0.4-1.1,1.5-3.1,2.5-4.4
		c2.1-2.9,3.8-7,3.9-9c0-1.4,1.3-3.6,3.5-6.4c0.6-0.7,1.1-1.6,1.1-1.9c0-0.3,1.1-1.6,2.4-2.8c2.2-2.1,2.4-2.4,2.1-3.9
		c-0.1-1,0-2.1,0.4-2.9c0.4-0.7,0.7-1.6,0.7-2.1c0-0.4,1.5-2.8,3.4-5.2l2.9-4H298.7L309,171.6z"/>
	<path fill="#EF2D29" d="M470.7,272.7c0.5-0.5,1.2-0.9,1.7-0.9c0.5,0,1.2-0.6,1.5-1.4c0.4-0.7,1.2-1.7,1.9-2.1
		c1.1-0.7,1.2-1.1,1.2-3.8c0-3.8,1.5-6.5,3.9-7c4.2-0.8,5.4-5.2,2.5-8.5c-1.8-2-2.2-2-4.3-0.1c-2.1,1.7-2.9,3.5-2.9,5.5
		c0,1.8-2,4.2-3.8,4.5c-1.3,0.3-1.7,0.7-2.8,3c-1.1,2.4-1.2,3-1,6.7C468.7,273.2,469.3,274.2,470.7,272.7z"/>
	<path fill="#009025" d="M174.6,320.4v156.6c1.3-0.4,2.6-0.8,3.9-1.3c4.6-1.8,11-2.6,13.7-1.9c2.6,0.7,3.8,0.2,6.6-3
		c2.5-3,5.1-4.4,8-4.4c1.1,0,3.2-0.1,4.8-0.3c2.8-0.3,2.9-0.4,4.5-2.7c2.8-4.2,2.9-4.2,25.5-4.8l11.9-0.3l0.3,1.2
		c0.2,0.8,1,1.6,2.7,2.4c2.2,1.1,2.7,1.2,4.8,0.8c3.6-0.7,11.1-3,12.4-3.8c2.2-1.4,8.4-7.8,8.9-9.3c0.3-1.1,0.9-1.6,2.1-2
		c1.5-0.5,1.6-0.6,1.3-2.3c-0.2-1.3,0-2.5,0.5-3.8c1.9-4.7,1.8-5.7-0.7-8.7c-2.1-2.4-2.1-3.5-0.4-6.4c1.5-2.5,5.8-6.7,6.9-6.7
		c0.2,0,0.7-0.9,1-2c0.3-1.1,1-2.8,1.6-3.8c1.2-2.1,2.6-2.8,9-4.6c5.3-1.4,6.6-1.7,14.2-2.2c4.1-0.3,8-0.7,8.6-1
		c0.7-0.2,5.4-0.5,10.5-0.6l9.3-0.1l0.2-1.5c0.1-1,0.7-1.7,1.6-2.3c0.8-0.5,2-1.8,2.6-3c0.9-1.7,1.4-2.1,2.4-2.1
		c1.9,0,3.6-2.5,3.6-5.3c0-1.7,0.4-2.9,1.6-5.1c1.2-2.1,1.6-3.5,1.6-5c0-1.1,0.4-3.4,0.9-5c0.5-1.6,0.9-4.2,0.9-5.6
		c0-2.6,0.1-2.8,2.2-4.8c1.2-1.2,3.1-3.2,4.2-4.5c3.9-4.7,7.9-6.8,20.4-10.7c2.1-0.6,5.4-1.8,7.5-2.6c3.7-1.4,3.8-1.4,13.8-1.6
		c9.3-0.1,10.1-0.2,11.1-1.1c0.7-0.7,1.4-0.9,2.2-0.7c0.9,0.2,1.4,0,2.1-0.9c1.2-1.6,1.2-2.8,0-4.8c-0.7-1.3-0.9-2.1-0.7-3.5
		c0.3-1.8,0.2-2-1.1-2.4c-1.2-0.5-1.4-0.9-1.9-3.1c-0.5-2.4-0.4-2.9,0.7-6.4c0.7-2.1,1.2-4.2,1.2-4.6c0-0.2-0.2-0.6-0.5-1.2H183.8
		C180.7,318.3,177.7,319.4,174.6,320.4z"/>
	<path fill="#FFFFFF" d="M527.7,136.9c-1.2-0.4-2.1-0.4-2.8,0c-0.8,0.4-1.5,0.1-3.6-1.1c-2.3-1.4-2.8-1.5-4.9-1.3
		c-2.1,0.3-2.3,0.2-4.2-1.5c-1-1-2.6-2.3-3.4-2.8c-0.8-0.5-3.4-3-5.9-5.5c-4.3-4.3-4.5-4.7-5.5-8.1c-1.2-4.2-2.7-6-6.7-8.1
		c-1.8-0.9-2.7-1.7-2.7-2.3c0-0.5-0.9-1.9-2.1-3.2c-1.2-1.3-2.1-2.7-2.1-3c0-0.4-0.6-1.7-1.4-2.8c-0.7-1.2-1.5-2.9-1.7-3.8
		c-0.2-1.1-0.7-1.8-1.8-2.5c-2.8-1.7-6.8-6.4-6.8-7.9s-1.8-3.3-3.4-3.3c-1.2,0-4.4-2.4-6.3-4.8c-0.3-0.4-1.6-0.9-2.9-1.3
		c-2.2-0.5-2.5-0.5-3.9,0.5c-1.2,0.9-2.3,1.1-5.7,1.4l-4.2,0.2l-3-1.8c-4.2-2.5-8.4-3.5-14.7-3.5c-4.9,0-5.2,0-6.4-1.2
		c-1.5-1.4-3.8-2-7.8-2.1c-2.4,0-3.5-0.3-6.1-1.6c-1.8-0.9-5-2.1-7.1-2.6c-10-2.4-15.9-5.1-23.8-10.6l-4.6-3.2l-3.6-6.5
		c-3.6-6.5-3.6-6.5-7-8.6c-2.9-1.9-3.6-2.6-5.9-6.2c-1.4-2.3-3.1-4.8-3.7-5.6c-1.6-2.1-4.2-7.7-5.6-12.5c-1.2-4-1.3-4.1-2.5-3.8
		c-0.7,0.2-1.6,0.5-2.1,0.7c-0.4,0.2-1.7,0.4-2.8,0.4c-2.6,0-4.3,1.3-5,3.8c-0.4,1.4-0.8,1.8-1.6,1.8c-0.6,0-1.3,0.3-1.6,0.7
		c-0.9,1.2-1.9,0.8-4.1-1.4c-1.9-2-2-2.3-2-4.7c0-1.4,0.2-2.7,0.5-2.8c0.8-0.5,0.5-2-0.7-2.8c-1.3-0.8-1.4-0.8-4.5-0.2
		c-1.2,0.3-2.6,0.9-3.2,1.6c-1.5,1.6-1.7,5.6-0.7,10.7l0.8,3.9l-1.3,2c-1.6,2.4-2.2,5.3-1.5,6.7c0.3,0.5,0.7,2.3,1.1,4
		c0.5,2.8,0.5,3.1-0.4,4.9c-1.4,2.8-2.3,6.9-1.6,7.3c1,0.6,4.9,0.4,6.7-0.3c1.7-0.7,1.8-0.7,2.6,0.3c0.5,0.6,1,1.6,1.1,2.2
		c0.1,0.7,0.6,2.1,0.9,3.4c1.1,3.8,1.1,3.9-2.9,5.3c-2.8,1-5,1.4-9.7,1.6c-3.3,0.2-7,0.7-8.1,1.1c-1.1,0.4-2.4,0.7-2.9,0.7
		c-0.5,0-1.4,0.5-2.1,1.1l-1.3,1.1l1.9,1.2c1.1,0.7,2.1,1.7,2.2,2.2c0.2,0.5,0.2,2.7,0,4.8c-0.3,3.5-0.6,4.3-4.8,12.6
		c-3.4,6.8-5.1,11.1-7.6,18.5c-1.7,5.3-3.6,10.8-4.2,12.2c-0.8,2.1-1.1,4-1.4,10.7c-0.2,5.3-0.2,8.5,0.1,9.1c0.3,0.5,6,10,12.8,21.1
		l2,3.2h229.8l0.4-0.5l0.4-4.2c0.2-2.3,0.6-5.2,0.8-6.4c0.3-1.4,0.3-2.9,0-4.1C529.5,137.7,529.2,137.4,527.7,136.9z"/>
</g>
</svg>
