<?xml version="1.0" encoding="utf-8"?>
<!-- Generator: Adobe Illustrator 17.1.0, SVG Export Plug-In . SVG Version: 6.00 Build 0)  -->
<!DOCTYPE svg PUBLIC "-//W3C//DTD SVG 1.1//EN" "http://www.w3.org/Graphics/SVG/1.1/DTD/svg11.dtd">
<svg version="1.1" id="flag-icon-css-pf" xmlns="http://www.w3.org/2000/svg" xmlns:xlink="http://www.w3.org/1999/xlink" x="0px"
	 y="0px" viewBox="0 0 640 480" enable-background="new 0 0 640 480" xml:space="preserve">
<g>
	<path fill="#FFFFFF" d="M420.7,233.9c-0.2-2.4-0.9-3.6-1.5-2.6c-0.1,0.2-0.4,1.4-0.6,2.7c0,0.2-0.1,0.5-0.1,0.7l2.3-0.2
		C420.8,234.3,420.7,234.1,420.7,233.9z"/>
	<path fill="#FFFFFF" d="M294.5,208.8c0.5-0.5,1.1-0.9,1.5-1.1c0.8-0.4,1.6-1,1.8-1.3c0.2-0.3,1.6-2.2,3.2-4.1
		c0.1-0.1,0.1-0.2,0.2-0.2l-0.1-17.9c-1.4,0-2.7-0.2-3.7-0.6c-1.5-0.6-1.6-0.9-1.6-2.4c0-1.2-0.2-1.7-0.8-1.9
		c-0.2-0.1-0.6-0.2-1.1-0.4c-0.2,6.9-0.2,12.1-0.2,12.1l-9.8-20c-0.7-0.2-1-0.2-1.2,0.2c-0.2,0.4-0.3,1.1-0.1,1.6
		c0.7,2.3,0.7,4.5,0,6c-0.1,0.1-0.1,0.3-0.2,0.4l12.1,19.1V208.8z"/>
	<path fill="#FFFFFF" d="M259.8,260.9c0.6,0,1.2-0.1,1.7-0.2c-0.1-7.9-0.1-19.6-0.2-29.8c-2,0.5-4.3,0.6-5,0c0,0-0.1-0.1-0.1-0.1
		l0,0.6l-39.3-3.9l0,0.1l0-0.1l0,0l0.3-11.8c-1.3-0.4-2.7-1.3-2.7-1.9c0-1-1.3-2.1-2.3-1.8c-0.5,0.1-1,0-1.2-0.3
		c-0.6-1-1.9-0.5-2.7,1c-0.4,0.8-1.2,1.7-1.7,2c-0.9,0.4-1,0.7-0.7,2.1c0.3,1.7,1.4,3.4,2.9,4.8c0.8,0.7,0.9,1.1,0.4,2.1
		c-0.5,1-0.4,1.3,0.4,2c0.5,0.4,1.2,1.4,1.4,2.2c0.4,1.1,0.7,1.4,1.9,1.4c0.8,0,1.6,0.1,2,0.4c0.3,0.2,0.8,0.2,1.2,0.1
		c0.3-0.1,0.9,0.4,1.4,1.2c0.7,1.2,1.1,1.4,2.7,1.4c1.3,0,2.1,0.3,2.5,0.9c0.3,0.5,1.6,1.3,2.9,1.9c0.1,0.1,0.3,0.1,0.4,0.2
		l29.8,1.5v23.1l-0.2,0c0.1,0,0.1,0.1,0.2,0.1C256.9,260.9,257.7,261,259.8,260.9z"/>
	<path fill="#FFFFFF" d="M495.8,281c-0.7,0-1.2,0.5-1.6,1.2c-0.5,1-0.4,1.5,0.4,2.7c0.6,1,0.8,2,0.7,2.9c-0.2,1.1-0.1,1.3,0.3,0.8
		c0.6-0.5,0.7-1.5,0.5-4.5c-0.1-0.8,0.2-1.6,0.7-1.9C497.6,281.5,497.2,281,495.8,281z"/>
	<path fill="#FFFFFF" d="M274.1,201.6c0,2.3-3.5,2.5-3.4,4.3c0.1,1.9,2.6,3,2.6,3s-0.5,34-0.1,50.6c0.5,0,0.9,0,1.4,0
		c9.2,0.1,10.2,0.1,10.8-0.8l-8.4,0l8.4,0c0-0.1,0.1-0.1,0.1-0.2c0.3-0.5,0.9-0.9,1.4-0.9s1.1-0.3,1.4-0.7c0.3-0.4,1.1-0.7,1.8-0.9
		c4.9-0.9,7.6-3.6,7.8-7.9c0-2.2,0-2.4-2.1-4.2c-1.3-1.1-2.6-1.8-3.4-1.9c-0.8,0-1.4-0.3-1.5-0.9c-0.1-0.5-0.7-1.2-1.2-1.7
		c-0.5-0.5-0.9-1.4-0.9-2c0-0.6-0.5-1.5-1-2c-0.6-0.5-1.6-2.3-2.2-4.1c-0.1-0.3-0.2-0.5-0.3-0.7l-8.3-0.2v-7l8,3.4
		c0.5-1.1,0.4-1.2-0.4-1.5c-1-0.3-1.1-0.3-0.4-1.7L277,220v-11.8c0,0-2,0.3-1.8-2c0.1-3.6,7,2.9,13.2,8.3c0.2-0.3,0.4-0.7,0.6-1
		c0.7-1.3,1.1-1.8,1.7-1.9l-12.7-12.3c0,0-2.4-0.1-2.4-1.8c0-0.1,0-0.3,0-0.4c-1.4,0.2-3,0-4.7-0.4c-0.3,0.3-0.4,0.6-0.4,1.1
		C270.5,200.2,274.1,199.3,274.1,201.6z"/>
	<path fill="#FFFFFF" d="M516.7,218.6c-2.1-0.7-4-1.2-4.4-1.2c-0.3,0-1.3,0.1-2.1,0.2c-0.9,0.1-1.7,0.6-2.1,1.1
		c-0.3,0.6-0.4,1-0.3,1.1c0.1,0,0.9,0.5,1.8,0.9c1.5,0.7,1.6,0.7,1.8,0c0.1-0.6,0.6-0.7,2.1-0.4c2.3,0.4,2.9,0.8,3.6,2.6
		c0.3,0.8,0.8,1.4,1.2,1.4s0.8,0.3,1.2,0.7c1.4,1.6,2.5-1.5,1.5-4.1C520.6,220.1,519.6,219.5,516.7,218.6z"/>
	<path fill="#FFFFFF" d="M383.9,258.5c-0.9,0.8-2.5,2-3.9,3l0,4.9c1.1,0.3,2.6,0.4,5,0.6c0.8,0.1,1.6,0.1,2.5,0.2
		c0.9,0,1.8,0.1,2.7,0.3c1,0.1,1.9,0.3,2.5,0.4c3.1,0.8,3.7,0.5,5.4-3c0.8-1.7,2.2-3.3,3.7-4.6c0.1-0.1,0.3-0.3,0.5-0.4h-18.2
		L383.9,258.5z"/>
	<path fill="#FFFFFF" d="M402.7,127.3c0.7,0.1,1.2,0.5,1.2,0.8c0,0.3,1.1,1.8,2.5,3.4c1.4,1.6,2.7,3.5,2.9,4.2
		c0.2,0.7,1.2,2,2.1,2.8c1,0.7,2.1,2,2.3,2.8c0.3,0.7,0.8,1.4,1.1,1.4c0.8,0,5.1,4.7,6.1,6.7c0.5,1,1.4,2,1.9,2.2
		c0.6,0.2,1.5,1,2,1.7c1.1,1.5,1.1,1.5,3.5,3.5c1.3,1.1,1.7,1.8,1.6,2.7c-0.1,1.6,0.4,2.5,1.4,2.2c0.5-0.2,1.2,0.3,2,1.4
		c0.7,0.9,1.7,1.9,2.5,2.3c0.7,0.4,1.3,0.9,1.3,1.1s1.6,2.2,3.5,4.4c1.9,2.2,3.9,4.6,4.4,5.4c0.4,0.8,0.9,1.4,1.1,1.4
		c0.8,0,6.1,4.1,10.6,8.2c4.1,3.7,5.2,5.1,5.7,6.6c0.4,1.3,1,2.2,1.9,2.7c1.4,0.8,1.4,0.8,1.4-0.3c0-0.6,0.1-1.5,0.3-2.1
		c0.2-0.7-0.2-1.5-1.4-2.9c-0.9-1.1-1.7-2.3-1.9-2.8c-0.1-0.5-0.9-1.2-1.7-1.7c-2.9-1.7-14.2-12.5-15.4-14.7
		c-0.7-1.2-2.8-3.9-4.8-5.9c-2-2.1-4-4.5-4.6-5.4c-0.6-0.9-1.7-2.2-2.6-2.7c-1.8-1.2-19.8-20.9-23.5-25.8c-1.5-1.9-3-3.8-3.5-4.2
		c-0.4-0.3-1.4-1.9-2.2-3.5c-0.5-1-1.2-2.2-1.7-3.1h-4.6c0.5,0.7,1.2,2.2,1.9,3.7C401.1,126.2,401.7,127,402.7,127.3z"/>
	<path fill="#FFFFFF" d="M265,198.1c-0.1-1.9-3.4-2.9-3.3-4.5c0.2-1.4,2.5-2.6,2.5-4.3c0-0.8-0.4-1.4-0.8-1.9
		c-1.1-0.5-2.5-0.9-3.2-0.9c-0.9,0-1.8-0.5-2.7-1.5c-0.7-0.8-1.5-1.4-1.6-1.2c-0.4,0.4,0.2,2.5,1.2,4.2l1.8,1.6c0,0-0.2,0.1-0.4,0.4
		c0.8,0.9,1.6,2.2,1.7,3c0.2,1.1,0.8,1.8,1.9,2.5c1.4,0.8,1.8,1.3,2.4,3.7C264.7,198.9,265,198.6,265,198.1z"/>
	<path fill="#FFFFFF" d="M397.6,357.9c-1.8-1.8,0.2-5.4,4-7.3c1.4-0.7,3.1-1.3,3.8-1.3c1.5,0,2.7-0.4,2.7-1c0-0.2-0.3-0.4-0.6-0.4
		c-0.4,0-1.3-0.3-2-0.7c-1.7-0.8-3.6-0.5-10,1.8c-3.7,1.3-5,1.3-6.6-0.1c-2.2-1.9-2.8-2-8.7-2.2c-4.6-0.1-5.3,0-5.5,0.6
		c-0.7,2.2-1.1,2.8-2.4,3c-1.9,0.4-3.1,4.3-2.7,8.5c0,0.4,0.1,0.8,0.2,1.1h27.5C398.5,359.9,398.7,358.9,397.6,357.9z"/>
	<path fill="#FFFFFF" d="M335.4,173.8c0.4-0.2,0.8-0.4,1.2-0.6c1.7-1,2.6-1.2,2.9-0.8c0.3,0.3,1.4,0.5,2.5,0.5c1.2,0,2,0.2,3.4,1v-2
		c0,0,2.2-3.2-1.2-3c-3.4,0.3-7.5-0.2-7.5-0.2l8.1-28.3c-0.1-0.5-0.2-0.8-0.3-0.8c-0.2,0-0.5,0.7-0.7,1.5c-0.3,1.5-2.4,3.8-5.9,6.5
		c-2.2,1.6-2.9,1.7-9.4,0.7c-1.7-0.3-1.7-0.3-1.3,1c0.7,1.9,0.6,2.9-0.7,4.4c-0.7,0.7-1.5,2.3-1.9,3.5c-0.4,1.3-1.5,2.6-2.7,3.6
		C324.2,166.9,329.4,172.2,335.4,173.8z"/>
	<path fill="#FFFFFF" d="M504.4,218.8c1.7,0.4,2.2,0.4,2.5-0.1c0.7-1.1,0.5-1.7-0.8-2c-3.5-0.7-5.8-1.5-8.3-2.9
		c-5.9-3.2-7.5-4.3-8.2-5.1c-0.4-0.6-1.2-1.4-1.8-1.9c-0.6-0.5-2.2-1.9-3.5-3.1c-4.4-3.9-11-7.4-13.9-7.4c-0.7,0-1.8,0.5-2.5,1.1
		c-1.3,1.1-1.3,1.1-0.6,2.2c0.7,1.1,1.1,1.2,4.9,1.4c3.6,0.2,4.4,0.4,6.2,1.6c2.7,1.8,4.7,3.7,4.7,4.4c0,0.2,0.3,0.5,0.7,0.5
		s1.1,0.5,1.5,1.2c0.9,1.3,14.1,9,16,9.4C501.8,218.2,503.3,218.6,504.4,218.8z"/>
	<path fill="#FFFFFF" d="M171.7,324.3c1.1-1.8,1.2-2.1,0.8-5.4c-0.2-2-0.4-4.2-0.4-5c-0.1-2.2-1.2-5.4-1.8-5.4
		c-0.3,0-1.2-0.1-2.1-0.1c-0.8-0.1-1.6,0-1.8,0.1c-0.1,0.1-0.2,0.6-0.2,0.9c0,1.1-1.9,3.4-2.8,3.4c-0.5,0-1.3,0.6-1.7,1.4
		c-0.5,0.7-1.3,1.6-1.8,1.8c-0.9,0.4-0.9,0.7-0.8,4.2c0.1,3.7,0.1,3.8-1.1,4.3c-1.7,0.6-2,1.7-0.8,2.9c1.2,1.1,1.9,1.1,3.2,0.2
		c1-0.7,1.1-0.6,2.7,1c1,1.1,1.7,2.2,1.7,3c0,0.7,0.3,1.6,0.7,2.1c0.7,0.9,0.7,0.9,1.4,0c0.5-0.6,0.6-1.5,0.5-2.4
		c-0.2-1.3-0.1-1.5,1.2-1.8c1.3-0.3,1.5-0.5,1.3-1.5c-0.1-0.7,0-1.3,0.2-1.4C170.3,326.4,171,325.4,171.7,324.3z"/>
	<path fill="#FFFFFF" d="M424.9,250.6c0.5,0.3,1,0.5,1.1,0.5c0.1,0,0.1-1.6,0-3.6c-0.1-2.1-0.3-3.3-0.9-4.8l-1,7.6
		C424.5,250.4,424.8,250.5,424.9,250.6z"/>
	<path fill="#FFFFFF" d="M371.3,334.6c-0.9,0.6-1.1,1.1-1.1,3.7c0,2.8,0,3,1,2.9c0.7-0.1,1.2-0.7,1.8-2.5
		C374.6,334.3,373.9,332.8,371.3,334.6z"/>
	<path fill="#FFFFFF" d="M184.3,261.1c0.1-0.7,0.6-1.4,0.9-1.7c1-0.8,0.8-1.7-0.7-2.5c-0.8-0.4-1.7-1.1-2-1.5
		c-0.7-0.9-5.5-4.3-6.2-4.3c-0.2,0-0.7,0.3-0.9,0.7c-0.3,0.4-1,0.8-1.5,0.9c-0.7,0.2-1.1,0.1-1.3-0.7c-0.2-0.7-0.6-0.9-1.7-0.9
		c-1.2,0-1.5,0.1-1.2,0.7c0.1,0.4,0.3,1.4,0.3,2.1c0,0.8,0.2,1.4,0.6,1.4c0.4,0,0.9,0.5,1.2,1.2c0.3,0.7,0.9,1.3,1.3,1.5
		c0.4,0.2,0.7,0.9,0.7,1.8c0,1.2-0.5,2.1-2.2,3.8c-1.3,1.2-2.4,2.7-2.7,3.1c-0.5,1-1.1,1.3-3.6,2.1c-3.1,1-3.9,0.7-5.8-1.8
		c-0.9-1.3-1.9-2.3-2.1-2.3c-0.2,0-0.8-0.5-1.4-1c-0.7-0.7-1.3-0.9-2.1-0.7c-1.6,0.4-1.8,2.1-0.5,4.7c0.4,0.7,0.7,1.6,0.7,2
		c0,1.1-1.7,1.2-3.5,0.2c-1.9-1.1-3.6-0.9-3.6,0.5c0,1.1,2.1,2.7,4,3.1c2,0.4,3.9,2.2,3.9,3.6c0,1.5-1.2,4.5-2.2,5.6
		c-0.5,0.5-1.8,1.5-3,2.3l-2.1,1.4l-3.6-0.5c-4.4-0.6-5.5-1.1-5.5-2.6c0-1-0.2-1.2-1.4-1.2c-0.7,0-1.6-0.3-1.9-0.7
		c-0.8-1-1.8-0.8-2.3,0.5c-0.2,0.6-1.3,1.7-2.3,2.4c-1.5,1-1.8,1.4-1.4,1.9c0.3,0.4,0.7,0.7,1,0.7c0.3,0,1,0.6,1.8,1.4
		c0.9,1,1.2,1.7,1,2.6c-0.2,1.3-2.2,2.6-3.7,2.6c-2.4,0-7.5,3.6-6.8,4.8c0.1,0.2,0,0.7-0.3,1c-0.4,0.5-0.4,1.1,0,2.3
		c0.7,2.2,0.2,3.4-1.7,4.3c-1.6,0.7-2.1,1.9-1,2.9c0.8,0.8,1.8,0.7,1.8-0.2c0-0.5,0.3-0.7,0.9-0.5c0.5,0.1,1.3,0,1.7-0.4
		c0.5-0.4,1.3-0.6,1.8-0.4c0.6,0.1,1.3-0.1,1.8-0.7c0.5-0.6,1.4-1,1.9-1c0.6,0,1.4-0.5,1.8-1.1c0.8-1.3,3.1-2,3.6-1.2
		c0.4,0.7,3.3,0.4,6.4-0.7c1.4-0.5,3.3,0.3,3.7,1.5c0.4,1.3,1.2,1.3,1.5,0c0.1-0.5,0.6-0.9,0.9-0.9c0.4,0,0.7-0.5,0.7-1.2
		c0-1.4,0-1.4,1.6-0.6c0.9,0.4,1.5,0.4,2.3-0.1c1.1-0.6,3.7-0.5,8.8,0.3c1.3,0.2,1.9,0.1,2.2-0.3c0.6-0.9,3.3-0.6,5.8,0.8
		c3.3,1.7,4.2,1.5,5.6-1.2c1.2-2.4,2.7-3.8,4.1-3.8c0.4,0,0.9-0.4,1.1-1c0.2-0.5,0.8-1.2,1.5-1.5c1.3-0.6,1.5-1.5,0.4-2
		c-0.4-0.1-0.7-0.6-0.7-1c0-0.4-0.6-1.5-1.3-2.3c-1.3-1.5-1.4-1.6-1.2-6.6c0-2.9,0.3-5.7,0.7-6.3c1-1.9,2.9-3.7,4-3.7
		c0.6,0,1.3-0.3,1.5-0.7c0.7-0.7,0.2-2.2-0.7-2.2c-1,0-2.1-1.4-2.1-2.6c0-0.6,0.5-2,1.2-2.9C183.5,263.1,184.1,261.8,184.3,261.1z"
		/>
	<path fill="#FFFFFF" d="M492.1,314.1c-0.1,0.2-0.4,1.5-0.6,3c-0.3,2.2-0.1,2.8,0.7,4.2c0.6,0.8,1.1,1.6,1.1,1.6
		c0,0,0.5,0.2,1.1,0.4c1,0.3,1,0.2,1-2.4C495.6,316.5,493.3,312.2,492.1,314.1z"/>
	<path fill="#FF0000" d="M307.7,197.8c0.8,0.3,1.5-0.1,2.3-1.9c0.4-0.8,1.4-1.9,2.1-2.3c0.7-0.5,1.5-1.1,1.6-1.5
		c0.2-0.3,1.1-1.2,1.9-1.9c0.8-0.7,2.5-2.2,3.8-3.4c1.3-1.2,3-2.3,3.8-2.5c1.1-0.2,2.4-1.3,4.8-4c1.8-2,3.3-3.8,3.4-4.1
		c0.1-0.3,0.7-0.7,1.4-1.1c0.5-0.3,1.5-0.8,2.5-1.4c-6-1.6-11.2-7-13.6-13.1c-1.1,0.8-2.3,1.4-3.3,1.4c-2.3,0-2.9,0.8-3.2,4.4
		c-0.2,2.7-0.5,3.6-2,5.8c-0.9,1.4-2.1,2.7-2.6,2.8c-0.5,0.1-0.9,0.5-0.9,0.8s-0.5,0.9-1,1.3c-0.8,0.6-0.9,0.8-0.5,1.2
		c1.1,0.7-0.6,4-2.5,4.9c-1.1,0.5-2.9,0.8-4.7,0.8l0.1,17.9C304,198.7,306.2,197.2,307.7,197.8z"/>
	
		<line fill="none" stroke="#083D9C" stroke-width="0" stroke-linecap="round" stroke-linejoin="round" x1="285.4" y1="258.7" x2="277" y2="258.7"/>
	<path fill="#EF7D08" d="M344.2,169c3.4-0.2,1.2,3,1.2,3v2c0.6,0.3,1.2,0.7,2,1.3c3,2,3.5,2.2,4.1,1.6c0.6-0.6,0.6-0.8-0.3-1.8
		c-1.2-1.3-1.4-3.6-0.4-7.1c0.8-2.9,3.1-7.7,4.4-8.8c0.6-0.5,1-1.2,1-1.5c0-0.7-0.1-0.7-1.5-0.1c-0.9,0.4-1.5,0.3-2.6-0.2
		c-0.8-0.4-2.1-0.7-2.8-0.7c-1.8,0-2.7-0.8-3.8-3.4c-1-2.3-1.2-4.5-0.6-5.3c0.4-0.5,0.2-5.4-0.1-7.4l-8.1,28.3
		C336.7,168.8,340.8,169.3,344.2,169z"/>
	<path fill="#EF7D08" d="M293.9,178.8c-0.7-0.3-1.6-0.7-2.4-1.1c-2.6-1.2-2.7-1.3-2.7-3c0-1.3-0.2-1.9-0.8-2.1
		c-0.5-0.1-1.8-0.7-2.9-1.2c-0.5-0.2-0.9-0.4-1.2-0.5l9.8,20C293.7,190.9,293.7,185.7,293.9,178.8z"/>
	<path fill="#EF7D08" d="M275.2,206.2c-0.2,2.3,1.8,2,1.8,2V220l7.2,3.7c0.1-0.2,0.2-0.5,0.4-0.8c0.5-1,0.9-2.5,0.9-3.4
		c0-0.9,0.4-1.9,1.2-2.7c0.5-0.5,1.1-1.4,1.7-2.3C282.2,209.1,275.3,202.6,275.2,206.2z"/>
	<path fill="#EF7D08" d="M277,230.5l8.3,0.2c-0.7-2.2-0.8-2.9-0.4-3.8c0,0,0,0,0,0l-8-3.4V230.5z"/>
	<path fill="#EF7D08" d="M277.9,199.3l12.7,12.3c0.1,0,0.3,0,0.4,0c0.7,0.1,1.5-0.4,2.3-1.5c0.3-0.4,0.8-0.9,1.2-1.3v-10.6
		l-12.1-19.1c-0.3,0.8-0.6,1.5-0.6,1.8c0,0.3-0.4,1-0.8,1.5c-0.6,0.7-0.7,1.1-0.3,1.7c1,1.6,1.1,3.6,0.4,5.4c-0.6,1.3-0.6,2-0.2,2.7
		c0.4,0.7,0.3,1.3-0.5,2.4c-1.1,1.5-2.7,2.4-4.8,2.6c0,0.1,0,0.2,0,0.4C275.5,199.2,277.9,199.3,277.9,199.3z"/>
	<path fill="#EF7D08" d="M257,188c0.4,0.7,0.8,1.3,1.3,1.8c0.1,0.1,0.1,0.1,0.2,0.2c0.2-0.2,0.4-0.4,0.4-0.4L257,188z"/>
	<path fill="#EF7D08" d="M421.9,237.2c-0.6-0.4-0.9-1.2-1.1-2.7l-2.3,0.2c-0.6,2.7-2.1,5.6-3.3,6.4c-0.5,0.3-1.4,1.4-1.9,2.3
		c-0.5,1-1.7,2.2-2.7,2.9c-8.1,4.9-7.9,4.8-12.2,5.1c-2.2,0.1-4.7,0.6-5.5,1c-2.3,1.1-8.2,4.9-8.2,5.2c0,0.1-0.3,0.5-0.8,0.9l0,1.4
		h18.2c1.4-1.2,3.8-3.3,5.5-4.9c2.4-2.2,4.5-3.8,6.5-4.6c2.8-1.3,3-1.3,6.5-0.7c1.4,0.2,2.8,0.5,3.7,0.7l1-7.6
		c-0.2-0.5-0.5-1.1-0.9-1.8C423.5,239.2,422.4,237.5,421.9,237.2z"/>
	<polygon fill="#EF7D08" points="216.9,227.7 216.9,227.6 216.9,227.6 	"/>
	<path fill="#EF7D08" d="M256.2,231.5l0-0.6c-0.3-0.3-0.8-0.9-1.2-1.5c-0.5-0.7-1.5-1.5-2.7-1.8c-1-0.3-2.2-1.1-2.6-1.7
		c-0.9-1.3-1.5-1.4-1.8-0.2c-0.2,1-3.9,2.4-6.4,2.4c-0.9,0-3-0.5-4.6-1c-2.2-0.8-3.5-1.6-5.8-3.9l-2.9-2.9l-0.1-3
		c0-2.9-0.1-3.1-1.2-3.4c-1.3-0.3-1.8-1-1.9-2.3c0-0.5-0.3-1.6-0.7-2.3l-0.7-1.4l-0.5,1.3c-0.3,0.7-0.7,1.3-1,1.3
		c-0.3,0-0.4,0.3-0.2,0.7c0.1,0.4,0,0.7-0.4,0.7c-0.8,0-0.9,0.6-0.1,1.4c0.5,0.5,0.3,0.8-0.8,1.7c-0.7,0.6-1.9,1.1-2.5,1.1
		c-0.3,0-0.7-0.1-1.1-0.2l-0.3,11.8L256.2,231.5z"/>
	<path fill="#EF7D08" d="M255.6,236.8l-29.8-1.5c2.3,1.2,6.9,5.4,6.9,6.3c0,0.2,0.3,0.7,0.7,1c0.4,0.3,0.7,1,0.7,1.5
		c0,1.5,1.5,6.4,1.9,6.4c0.2,0,1.4,0.7,2.6,1.6c1.2,0.9,2.5,1.6,3,1.6c0.5,0,1.5,0.5,2.2,1.2c0.8,0.7,1.6,1.2,1.9,1.2
		c0.3,0,1.8,0.6,3.5,1.4c1.6,0.7,3.3,1.4,3.8,1.4c0.4,0,1.5,0.4,2.4,0.9l0.2,0V236.8z"/>
	<path fill="#FF0000" d="M377.5,263c-1.7,0.8-2.3,2.1-1,2.1c0.4,0,1.3,0.4,2,0.8c0.3,0.2,0.8,0.4,1.4,0.6l0-4.9
		C379,262.2,378.1,262.7,377.5,263z"/>
	<path fill="#FF0000" d="M262.9,260.3c0.3-0.2,1.3-0.3,2.2-0.1c1.1,0.2,2,0.1,2.3-0.2c0.4-0.3,2.3-0.5,5.7-0.5
		c-0.4-16.6,0.1-50.6,0.1-50.6s-2.5-1.1-2.6-3c-0.1-1.8,3.4-2,3.4-4.3s-3.6-1.4-3.7-3.8c0-0.5,0.2-0.8,0.4-1.1
		c-0.5-0.1-1-0.3-1.6-0.5c-2.6-0.9-2.9-1.1-2.6-2c0.9-2.7-0.3-5.3-3.1-6.7c-0.1,0-0.1-0.1-0.2-0.1c0.4,0.5,0.8,1.1,0.8,1.9
		c0,1.7-2.3,2.9-2.5,4.3c-0.1,1.6,3.2,2.6,3.3,4.5c0,0.5-0.3,0.8-0.7,1.1c0.1,0.6,0.2,1.2,0.4,2.1c0.7,3.7,1.7,5.7,3.1,5.9
		c0.7,0.1,1.2,0.8,1.8,2.7c1.3,4.1,1.5,5.2,0.9,5.6c-0.4,0.3-0.3,0.7,0.2,1.5c0.9,1.4,1,5,0.1,7.2c-0.9,2.1-3.9,5.4-5,5.4
		c-0.5,0-1.8,0.4-3,0.9c-0.5,0.2-1,0.4-1.6,0.5c0.1,10.2,0.2,21.8,0.2,29.8C262.2,260.6,262.8,260.5,262.9,260.3z"/>
	<path fill="#083D9C" d="M390.1,267.5c-0.9-0.2-1.8-0.3-2.7-0.3C388.3,267.3,389.3,267.4,390.1,267.5z"/>
	<path fill="#DE2010" d="M393.1,102.7c-1.1,0.4-1.1,0.4,0.5,1.4c0.9,0.5,1.8,1,2.1,1c0.5,0,0.1-2.6-0.7-5.8c-0.5-2-0.7-2.2-1.9-2.2
		c-0.7,0-1.5,0.2-1.6,0.5c-0.2,0.2,0,0.8,0.4,1.3c0.6,0.6,0.6,0.9,0.2,1.4c-0.4,0.4-0.4,0.6,0.2,0.6c0.4,0,1,0.3,1.3,0.7
		C394.1,102.1,394,102.3,393.1,102.7z"/>
	<path fill="#DE2010" d="M485.5,402.6c-1.8,1-3.7,1.8-4.4,1.9c-0.6,0-1.8,0.7-2.7,1.6c-0.8,0.9-2.4,2.1-3.5,2.7
		c-1.5,0.8-1.8,1.2-1.4,1.9c0.4,0.8,0.6,0.7,2.7-0.7c1.3-0.9,2.6-1.6,2.9-1.6s1.1-0.4,1.5-0.9c0.5-0.5,1.3-0.9,1.7-0.9
		c2,0,6.9-3.6,6.9-5C489.5,400.4,489.1,400.5,485.5,402.6z"/>
	<path fill="#DE2010" d="M274.3,410.1c1.1,0,1.1,0-0.4-0.9c-1.7-1-2-1.1-2-0.6C272,409.3,273.1,410.1,274.3,410.1z"/>
	<path fill="#DE2010" d="M374.7,364.9c1.9,0.5,2.5,0.9,3.6,2.7c3,4.9,3.5,7.9,1.7,11.5c-0.7,1.6-1.5,2.3-3.5,3.3
		c-1.4,0.7-2.5,1.4-2.5,1.6s1,0.4,2.3,0.4c1.9,0,2.4-0.2,2.6-0.9c0.1-0.5,0.8-1.1,1.5-1.2c0.6-0.1,1.1-0.6,1.1-0.9
		c0-0.8,1.9-2.1,3.3-2.1c2,0,4.6-0.9,4.9-1.7c0.2-0.4,0-1.1-0.4-1.5c-0.7-0.7-0.7-1,0-2.5c0.4-0.9,1.2-2.2,1.9-2.7
		c0.8-0.7,1.2-1.5,1.2-2.5c0-0.8,0.8-3,1.7-4.9c1.5-2.9,1.9-3.4,3-3.4c0.1,0,0.2,0,0.3,0h-27.5C370.3,362.8,371.6,364.1,374.7,364.9
		z"/>
	<path fill="#DE2010" d="M327,446.5c-0.4,0.5-0.8,1.1-0.8,1.4c0,0.3-0.3,0.7-0.7,1c-0.8,0.7-1.2,2.6-0.7,3.5c0.7,1.4,2.2,0.9,3-0.9
		c0.4-1,1-2,1.4-2.4c0.9-0.9,0.8-1.2-0.4-2.4C327.8,445.6,327.8,445.6,327,446.5z"/>
	<path fill="#DE2010" d="M276.8,423.2c1.7,0,2.5,0.3,3.7,1.4c0.9,0.7,1.8,1.4,2.1,1.4c0.7,0,4.2,3.9,4.6,5.1c0.5,1.7,2.2,4.3,2.6,4
		c0.2-0.1-0.1-1.5-0.8-3.1c-0.7-1.9-1.1-3.4-0.9-4.2c0.2-1.2,0.2-1.3-1.4-1.3c-2.3,0-4.1-1.2-5.2-3.6c-0.6-1.1-1.7-2.9-2.7-3.8
		c-0.9-1-1.6-2.1-1.6-2.4c0-0.3-0.2-0.5-0.5-0.5c-0.3,0-0.4,0.6-0.2,1.6c0.2,1,0.1,1.7-0.2,1.9c-0.3,0.2-0.5,0.7-0.4,1.1
		c0.1,0.5-0.1,1.2-0.5,1.6C274.7,423.1,274.9,423.2,276.8,423.2z"/>
	<path fill="#DE2010" d="M363.1,387.2c0.5,0,1.3,0.3,1.8,0.7c0.5,0.4,1.2,0.7,1.5,0.7c0.7,0,3.8-2.4,3.8-2.9c0-0.5-6.2-0.4-7.1,0.2
		C362,386.4,362,387.2,363.1,387.2z"/>
	<path fill="#DE2010" d="M300.5,476.2c0,2.1,0.1,2.5,1.1,3c0.8,0.5,1.3,0.4,2.4-0.1c0.8-0.4,1.6-0.7,1.9-0.7c0.3,0,1-0.6,1.6-1.2
		c0.6-0.7,1.3-1,1.5-0.9c0.3,0.1,0.8,0,1.2-0.3c1-0.8,0.8-11.2-0.3-12.5c-0.7-0.8-0.8-0.8-4.7,1.2c-3.9,2.1-4,2.1-6.2,1.5
		c-2.6-0.7-3-0.5-2.3,1.2c0.4,0.8,0.9,1.2,1.7,1.2c1.7,0,3.2,2.3,2.6,4C300.7,473.2,300.5,474.9,300.5,476.2z"/>
	<path fill="#DE2010" d="M385.3,54.9c-0.9,0.4-0.7,1.1,0.3,1.1c1.2,0,1.6-0.9,1-2.5c-0.5-1.3-2-1.7-3.2-0.8
		c-0.5,0.3-0.5,0.5,0.1,1.2c0.4,0.4,1.1,0.7,1.5,0.8C385.6,54.6,385.6,54.7,385.3,54.9z"/>
	<path fill="#DE2010" d="M389.3,93.4h2c1.7,0,1.9,0.1,1.4,0.7c-0.7,0.8-0.2,1.6,1,1.6c0.8,0,0.9-0.2,0.7-3.2
		c-0.4-3.9-0.6-5.2-1.1-5.2c-0.2,0-1.1,0.3-2,0.7l-1.6,0.6l1.3,0.3c1.6,0.4,1.6,1.4-0.2,3.1L389.3,93.4z"/>
	<path fill="#DE2010" d="M349.4,18.4c-0.6,0.6-0.1,1.9,0.9,2.9c0.8,0.8,1.2,0.9,1.4,0.4c0.2-0.4,0.3-0.4,0.3,0.2
		c0,1.2,1,1.5,1.6,0.6c0.6-0.7,0.7-0.7,3.2,0c2.6,0.8,5.7,0.7,4.8-0.2C360.9,21.7,349.7,18.1,349.4,18.4z"/>
	<path fill="#DE2010" d="M378.7,38.7c2,0,2.5-5.9,0.7-9.1c-2.1-3.6-7.5-5.9-8.7-3.6c-0.8,1.6-0.6,2.9,0.5,2.9c1.5,0,5.1,1.9,5.7,3
		c0.3,0.5,0.4,1.9,0.2,3C376.8,37.3,377.4,38.7,378.7,38.7z"/>
	<path fill="#DE2010" d="M391.5,85.9c0.7,0,1.2-0.3,1.2-0.7c0-0.7-0.1-0.7-1.5-0.4C389.9,85.2,390.1,85.9,391.5,85.9z"/>
	<path fill="#DE2010" d="M388.6,72.6c1.2,0.5,2.4,0,2.4-1c0-1.3-1.9-1.5-2.6-0.2C388,72.1,388.1,72.4,388.6,72.6z"/>
	<path fill="#DE2010" d="M390.8,68.3c0-1.4-0.9-1.5-2.4-0.2l-1.1,0.9l1.3,0.5C390.2,70.1,390.8,69.8,390.8,68.3z"/>
	<path fill="#DE2010" d="M389.9,80.8c1.3,0.3,2.2-0.6,2.3-2.2c0-1.3-0.9-1.3-2.5,0C388.2,79.6,388.3,80.4,389.9,80.8z"/>
	<path fill="#DE2010" d="M388,63.9c0.8,0,1.4-0.2,1.4-0.5c0-0.3-0.6-0.5-1.4-0.5c-0.7,0-1.4,0.2-1.4,0.5
		C386.6,63.7,387.2,63.9,388,63.9z"/>
	<path fill="#DE2010" d="M382.4,50.3c-0.7,0.6-0.7,0.6,0.1,0.4c0.5-0.1,1.3-0.3,1.8-0.3s0.9-0.3,0.9-0.8c0-1.3-0.9-4.3-1.3-4.3
		c-0.2,0-0.8,0.2-1.5,0.4c-1.7,0.5-1.8,1.5-0.1,1.5c1.4,0,1.5,0.1,1.2,1.3C383.3,49.1,382.8,49.9,382.4,50.3z"/>
	<path fill="#DE2010" d="M401.8,118.9c-0.6-0.8-1.2-1.9-1.4-2.6c-0.2-0.7-0.8-2.4-1.5-3.8c-0.6-1.5-1.1-3.2-1.1-3.8
		c0-0.6-0.3-1.4-0.6-1.8c-0.7-0.9-3.5-1.5-3.9-0.9c-0.4,0.7,3.4,12.7,4.3,13.7c0.1,0.1,0.2,0.2,0.3,0.4h4.6
		C402.2,119.5,402,119.1,401.8,118.9z"/>
	<path fill="#DE2010" d="M331.1,9.2c-4.9-4.6-8.4-6.5-11.9-6.5c-1,0-1.9-0.2-2.2-0.4c-0.4-0.3-10.9-1.5-13.3-1.5
		c-0.4,0-1.7,0.6-3,1.4c-1.3,0.7-2.9,1.9-3.5,2.6c-1.1,1.2-1.1,1.2-0.2,1.9c1.5,1.1,2.8,0.7,2.8-0.9c0-1.8,0.9-1.7,3.7,0.3
		c1.4,1.1,2.2,1.4,3.2,1.2c0.7-0.1,1.4,0,1.6,0.3c0.2,0.3,1.7,0.4,4.7,0.2c3.9-0.2,4.4-0.1,5.4,0.7c0.8,0.7,1.5,0.9,3.1,0.7
		c2.2-0.3,3.9,0.4,7,3.1c2.7,2.3,5.3,3.7,6.3,3.5c0.6-0.1,1.2,0,1.5,0.5c0.5,0.7,0.7,0.7,1.8-0.1l1.3-0.8l-1.3-1.3
		c-0.7-0.7-1.9-1.5-2.7-1.6C334.6,12,332.8,10.7,331.1,9.2z"/>
	<path fill="#DE2010" d="M289,16.7c2.2,0.8,3.3,0.4,2-0.8c-0.7-0.7-2.5-0.7-2.9-0.1C288,16,288.4,16.4,289,16.7z"/>
	<path fill="#DE2010" d="M294.2,7.8c-1.8,1.5-1.5,3,0.5,2.5c0.7-0.2,0.9-0.7,1-1.9c0-0.9,0-1.6-0.1-1.6
		C295.5,6.8,294.9,7.3,294.2,7.8z"/>
</g>
</svg>
