<?xml version="1.0" encoding="utf-8"?>
<!-- Generator: Adobe Illustrator 17.1.0, SVG Export Plug-In . SVG Version: 6.00 Build 0)  -->
<!DOCTYPE svg PUBLIC "-//W3C//DTD SVG 1.1//EN" "http://www.w3.org/Graphics/SVG/1.1/DTD/svg11.dtd">
<svg version="1.1" id="flag-icon-css-pg" xmlns="http://www.w3.org/2000/svg" xmlns:xlink="http://www.w3.org/1999/xlink" x="0px"
	 y="0px" viewBox="0 0 640 480" enable-background="new 0 0 640 480" xml:space="preserve">
<g>
	<path fill="none" d="M1.3,246.4c-0.2,0.5-0.5,1-0.8,1.5c-2.2,3.9-2.2,4.1-1.4,7.1c0.5,1.7,1.1,3,2.2,4.3L1.3,246.4z"/>
	<path d="M266.1,200.5c0.4-0.2,0.7-0.5,0.9-0.9l-8.4-6.3c-0.6,1.5-0.5,3.3,0.5,4.5C260.6,199.6,264.8,201.2,266.1,200.5z"/>
	<path d="M2.6,260.7l2.7,2.4L5.4,287c0.1,13.1,0.3,35.4,0.5,49.5l0.4,25.6l3.3,0.6c3,0.5,3.4,0.4,5.1-1.1c3.3-2.7,5.1-2.8,9.9-0.1
		c4.2,2.3,4.2,2.3,8,1.6c2.1-0.4,5.4-0.7,7.4-0.7c2,0,5.9-0.6,8.7-1.3c7-1.8,11.6-1.1,19.6,3.3l5.8,3.1l8.8-5
		c7.2-4.1,9.6-5.2,13.6-5.9c2.6-0.5,5.6-1.4,6.8-2.1c1.9-1.1,1.9-1.1,2.1-7l0.2-5.9l-3.6-3.6c-5.9-6.1-10.9-9.3-15.1-9.8
		c-2.1-0.3-4.8-1.1-6.4-2.1c-2.3-1.4-3.6-1.7-7.1-1.7c-2.3,0-4.1-0.3-3.9-0.6c0.6-0.9,7.8-2.1,10.4-1.7c1.4,0.2,3.8,1,5.4,1.8
		l2.8,1.4l4.8-1.7c3-1.1,6.8-1.8,10.1-2.1c6.3-0.4,12.4-1.5,12.9-2.3c0.7-1.1-2.6-5.6-5-7c-1.4-0.8-3.1-2.3-3.8-3.5l-1.2-2.1
		l1.5,0.4c0.8,0.3,2.4,1.1,3.4,1.9c1.6,1.3,2.7,1.5,5.9,1.5c2.3,0,4.4,0.3,4.7,0.6c0.4,0.4,1.6,0.4,2.7,0.3c1.6-0.3,1.9-0.7,1.8-1.6
		c-0.3-0.9,0-1.1,1.8-0.8c1.7,0.3,2.1,0.1,2.5-1c0.3-1-1-3.3-5.6-10c-3.3-4.8-6.2-9.2-6.4-9.8c-0.9-2.2,2.3,0.6,4.4,3.8
		c1.9,2.9,2.5,3.4,8.3,5.8c7.5,3.3,9.4,3.3,10.5,0.1c0.9-2.8,2.1-3,4.4-0.6c1.4,1.4,2.3,1.9,4.2,1.9h2.4l-1.6-2.7
		c-2.1-3.7-2-4.9,0.3-2.7l1.8,1.7l0.4-2.3l0.4-2.4l1.3,2c1.4,2.3,2.1,2.4,3.8,0.9c1.1-0.9,1.2-0.9,2.3,0c0.6,0.6,2,1.2,3,1.4
		c1.5,0.3,2,0.1,2.5-0.9c0.4-0.9,0.8-1.1,1.4-0.8c0.7,0.4,0.7,0.9,0.1,2.9c-0.6,1.9-0.6,2.5,0.1,3.1c0.8,0.8,12.2,3.4,14.8,3.4
		c0.7,0,2.7,1,4.5,2.2c3,2.1,3.6,2.2,8.2,2.2c1.3,0,2.3,0,3.3,0.1l2.3-0.4l3-6.6l3.5,6.4l7.2,0.8l-3.5,3.7c0.6,0.2,1.1,0.3,1.6,0.4
		c1.6,0.4,3.6,0.8,4.3,0.9c0.8,0.2,1.7,1.2,2.2,2.3c0.4,1.1,2.1,3.4,3.7,5.2c1.6,1.8,3.5,4.8,4.3,6.9c1.1,2.6,2.8,5.1,5.6,8.1
		c9.6,10.1,9.2,9.6,8.3,11.1c-0.8,1.2-0.5,1.6,3.4,5.5c2.9,2.9,5,4.5,7.2,5.3c2.9,1.1,3.1,1.2,2.7,2.9c-0.5,2.7,0.2,4.7,1.9,5.5
		c0.9,0.4,2.2,1.9,2.9,3.4c1.8,3.4,1.7,3.4,2.6,2.2c0.7-1,1.3-0.7,6.5,3c6.6,4.6,11.1,9.9,11.8,13.8c0.6,3.3,0.7,3.4,5,7.1
		c3.1,2.6,4.2,3.2,6.1,3.2c1.6,0,3.3,0.6,5.1,1.9c2.3,1.6,3.3,1.9,6.8,1.9c3.5,0,4.2-0.2,4.9-1.4c0.9-1.4,0.9-1.4,3.4-0.3
		c1.4,0.6,3,1.9,3.6,2.9c0.9,1.6,1.4,1.8,2.8,1.6c0.9-0.2,3.6-0.6,5.9-1c2.3-0.4,4.9-0.9,5.7-1.2c1.3-0.5,2.2-0.1,5.8,2.4
		c2.4,1.7,4.6,3.1,5.1,3.1c0.4,0,2.4-0.8,4.5-1.6l3.8-1.6l3.2,1.9c2.4,1.5,3.9,1.9,6.3,1.9c1.8,0,3.8,0.4,4.6,0.9
		c0.9,0.6,3.8,1.1,7.9,1.4c5,0.3,7.2,0.7,9.4,1.8c1.6,0.8,3.9,1.6,5.3,1.8c3.7,0.6,4,0.8,3.6,1.9c-0.3,0.8-0.9,0.9-2.7,0.6
		c-1.6-0.3-2.6-0.1-3,0.4c-0.5,0.6,0.7,1.6,5.1,4.1c5.5,3.1,6,3.3,10.3,3.3c3.6,0,5.4-0.4,9.1-1.9c8.9-3.7,8.8-4.9-0.3-8.8
		c-3.5-1.4-6.3-3-6.3-3.5c0-1.1,3.4-1.3,9.1-0.4c2.1,0.3,3.3,0.1,6.3-1.4c3.5-1.6,3.6-1.8,1.8-1.9c-5.6-0.6-7.2-0.9-7.2-1.6
		c0-0.6-0.8-0.7-2.5-0.6c-4.8,0.5-8.1-0.4-10.9-3c-2.4-2.3-2.8-2.4-8.3-2.8l-5.7-0.4l-4.6-4.6c-3.6-3.7-4.4-4.8-4.1-5.9
		c0.3-1.1,0.9-1.3,4.1-1.3c3,0,4-0.3,5.6-1.6c1.1-0.9,1.9-1.8,1.9-2.1c0-0.3-1.5-1.3-3.3-2.4c-3.1-1.7-3.9-1.8-12.3-2.2l-8.9-0.4
		l-4.8-3c-2.6-1.6-5-3.1-5.3-3.3c-0.3-0.2-0.7-1.4-0.9-2.8c-0.4-2.4-0.1-2.8,3.4-7.1l3.8-4.6l-1.1-1.8c-0.8-1.3-1.8-1.9-3.3-2.2
		c-1.2-0.2-3.3-0.6-4.7-0.9c-2.3-0.4-2.7-0.3-4.4,1.3c-1.6,1.6-2.4,1.9-4.9,1.9c-2.1,0-3.1,0.3-3.3,0.9c-0.6,1.4-4.7,1.1-9.1-0.6
		l-3.9-1.6l-1.8-7.5l-1.8-7.4l-3.1-2.4c-4.1-3.1-6.8-7.3-6.8-10.6c-0.1-1.3-0.8-4.8-1.8-7.8l-1.8-5.3l-3.9-0.9
		c-3.1-0.8-4-1.3-4.3-2.3c-0.4-1.4-1.1-1.7-6.9-2.4l-3.3-0.4l-1.9-4.3c-2.4-5.3-3.9-6.6-14.3-12.9l-8.1-4.9l-0.4-5.6
		c-0.4-5.1-0.6-5.9-2.6-8.5c-1.1-1.6-2.9-3.3-3.8-3.8c-1.6-0.9-1.6-1.1-1.3-4.4c0.6-6,0.9-6.9,2.4-7.3c0.8-0.2,6.6-0.1,12.9,0.3
		c10.9,0.6,11.6,0.6,13.5-0.6c1.1-0.7,2.9-1.3,4.1-1.3c1.3,0,3.2-0.4,4.4-0.9l2.2-0.9l-0.8-3.6c-0.5-2-1.2-5.3-1.6-7.2
		c-0.6-2.9-1.1-3.8-2.7-4.8c-1.1-0.7-3-2.8-4.2-4.8c-1.6-2.4-3.4-4.3-6.1-6c-5.8-3.8-8.1-4.4-13-3.7c-4.4,0.7-5.4,0.4-12-3.8
		c-1.9-1.3-3.8-1.9-5.3-1.9c-1.9,0-3.9-1-9.5-4.4c-5.8-3.6-7.6-4.4-9.7-4.4c-1.8,0-4.1-0.8-7.1-2.3c-3.6-1.8-6.1-2.6-12.3-3.6
		l-7.8-1.3l-0.2-2.4c-0.2-2,0.1-2.8,1.8-4.4l2-2.1l-0.7-8.3l-0.6-8.3l-5.3-5.4c-2.9-2.9-6.8-7-8.6-8.9c-3.3-3.6-3.5-3.6-7.9-4.3
		c-4.2-0.6-5-0.9-8.9-4c-2.4-1.8-5.9-5.1-7.8-7.2c-2.4-2.6-4.1-3.8-5.1-3.8c-3.6,0-6.1-1.8-8.4-5.8c-2.8-4.8-3.8-5.2-13.7-4.4
		l-7.2,0.6l-5.1-4.5c-2.9-2.6-5.9-4.8-7-5c-1.1-0.2-2.4-1.1-3.1-1.9c-1.7-2.3-19.6-8.4-24.6-8.4c-3.1,0-7.3-1.1-22.3-6
		C54,100.9,52.3,100.2,50,98c-2.3-2.1-2.9-2.4-5.6-2.4c-2.3,0-3.6-0.4-5.1-1.6c-1.1-0.8-4.8-2.6-8.2-3.8c-3.4-1.3-8.7-3.6-11.8-5.3
		c-4.6-2.4-6.4-3.1-10-3.4L5,81.2l0.2,78.3c0.2,78.3,0.2,78.3-1.1,79.5c-0.7,0.6-1.3,1.9-1.3,3c0,0.8-0.6,2.6-1.5,4.4l0,12.9
		C1.7,259.7,2.1,260.2,2.6,260.7z M221,246.3l6.6-14.4l7.6,14l15.8,1.8l-11,11.5l3.2,15.6l-14.5-7l-13.9,7.8l2.3-15.7l-11.8-10.8
		L221,246.3z M151.6,177.8l8-17l8.7,16.7l18.8,2.3l-13.3,13.4l3.6,18.6l-17-8.5l-16.5,9.1l2.8-18.6l-13.8-13L151.6,177.8z
		 M91.5,243.4l7.7-18.3l7.9,18.2l19.8,1.6l-14.9,13l4.6,19.3l-17-10l-17,10.3l4.3-19.3l-15.1-13L91.5,243.4z"/>
	<path d="M215.7,163.2c-1.6-0.1-2.1,0.3-3.4,2.1c-1.3,1.9-1.4,2.6-0.9,3.9c0.6,1.8,1.5,1.9,5.1,1.1c1.3-0.3,1.4-0.6,1.3-3.6
		C217.6,163.5,217.5,163.4,215.7,163.2z"/>
	<path d="M412.8,380.6c6.7-0.8,6.9-0.8,8.6,0.6c1.6,1.3,1.8,1.3,2.3,0.3c0.4-0.6,0.3-1.6-0.1-2.4c-0.4-0.8-0.5-2.1-0.3-2.8
		c0.6-2.2-2.6-5-5.6-5c-1.5,0-3.2-0.5-4.4-1.4c-1.3-0.9-3.3-1.6-5.6-1.8l-3.6-0.4v2.2c0,1.6,0.5,2.6,2.2,4.1l2.1,1.9l-1.9,2
		C403.5,381.1,404.5,381.5,412.8,380.6z"/>
	<path d="M435.7,394.5c-0.9,3.8-3.3,4.1-5.2,0.6c-0.8-1.3-2.8-3.5-4.4-4.8c-1.7-1.3-3.4-3-3.9-3.8c-0.4-0.8-1.3-1.5-2-1.5
		c-1.1,0-1.2,0.3-0.8,1.9c0.2,1.1,0.4,2.3,0.4,2.6s0.8,0.9,1.8,1.2c1.1,0.4,2,1.3,2.2,2.2c0.3,0.9,1,3.1,1.7,4.9
		c1.1,3.1,1.4,3.4,3.1,3.4c1,0,3.3,0.6,5.1,1.3c1.8,0.8,3.3,1.2,3.4,1.1c0.7-0.7,3.4-8.5,3.4-9.6
		C440.4,390.8,436.4,391.3,435.7,394.5z"/>
	<path d="M430.1,339.2c-0.8,0.4-0.8,0.8,0.6,2c0.9,0.9,1.8,1.3,2.1,0.9c0.3-0.3,0.8-3.8,1-7.6c0.5-7.6,0.5-7.6-2.8-6.3
		c-0.9,0.3-2.1,1.4-2.6,2.3c-1.1,1.8-1,1.8,0.8,2.9c1.4,0.9,1.8,1.5,1.8,3.2C431,337.8,430.7,338.9,430.1,339.2z"/>
	<path d="M395.7,360.7c-4.3,2.3-5.8,5.8-3.8,9.2c0.9,1.6,5.7,5.1,6.9,5.1c0.5,0,0.9-1.4,1.2-3.7c0.3-2.9,0.1-4.4-0.9-7.2
		C397.6,360.1,397.4,359.9,395.7,360.7z"/>
	<path fill="#FF0000" d="M389.3,71.3c-3.2,1.6-3.8,2.9-2.1,4.3c0.7,0.5,1.4,1.7,1.6,2.6c0.5,1.9,2.8,3.7,5.6,4.5
		c0.6-3.5,1.5-7.1,2.9-11c-2.2-1-4.1-1.7-4.5-1.7C392.3,70,390.8,70.6,389.3,71.3z"/>
	<path fill="#FF0000" d="M519.4,152.6c0.3-1.9,0.1-2.1-2.4-3.7c-1-0.6-2.5-1.8-3.8-3.1c1.8,4.4,3.5,9.1,4.5,11.6
		C518.4,155.8,519.3,153.6,519.4,152.6z"/>
	<path fill="#FF0000" d="M295.4,212.8l4.6,4.6l1.8-1.7c1.4-1.4,1.8-2.2,1.8-4.7c0-2.8-0.2-3.1-2.3-4.4c-6.7-4.2-7.9-4.7-9.5-4
		c-1.3,0.6-1.4,1-1.1,3.2C290.9,207.8,291.7,209.1,295.4,212.8z"/>
	<path fill="#FF0000" d="M243.6,63.5c1.7-0.5,2.4-1.1,2.4-1.9c0-1.5,1.4-1.4,7.1,0.3c3.9,1.3,4.9,1.4,6.8,0.8c1.2-0.4,3.4-1,4.9-1.3
		c1.6-0.3,3.6-1.1,4.6-1.9c1-0.8,2.6-1.5,3.6-1.5c1.6,0,1.8-0.2,1.8-2.1v-2.1l-5.1,0.3c-3.1,0.1-7.4-0.1-10.8-0.8
		c-5.4-0.9-13.4-1.3-15.3-0.6c-1.9,0.7-3.8,2.9-3.8,4.6c0,1-0.5,2-1.4,2.6c-1.4,0.9-1.4,1-0.3,2.6C239.2,64.5,240.1,64.6,243.6,63.5
		z"/>
	<path fill="#FF0000" d="M436.6,89.1v4.2l4-0.4l-1.1,3.3c1,0.6,1.8,1,2.3,1.2c1.9-1.1,3.9-2.2,5.9-3.1c-4.2-2.9-6.1-3.7-8-4.1
		C439,90.1,437.9,89.7,436.6,89.1z"/>
	<path fill="#FF0000" d="M436.2,210.1c-7.9-1.4-13.8-4.3-18.5-8.1c-0.2,0.3-0.5,0.7-0.8,1.1l-1.6,2.4l-4.9-2.4
		c-2.7-1.4-5.3-2.5-5.7-2.5s-1.9,0.9-3.3,1.9c-3.9,3-5.4,2.6-9.2-2.4c-2.9-3.9-3.1-4.4-2.9-7.1c0.1-1.8,0.9-3.9,1.9-5.5
		c1.9-3,1.9-2.9,0.3-3.3c-2.5-0.7-6,2.1-8.6,6.8l-2.4,4.3l1.8,2.8l1.8,2.8l-3.5,2.6c-3.3,2.5-3.6,2.6-5.4,1.9c-4-1.7-6.1-1.7-9-0.1
		c-2.3,1.4-3.5,1.6-8.3,1.6c-5.4,0-5.8-0.1-9.9-2.5c-2.4-1.4-4.6-2.5-4.9-2.5c-0.4,0-2.3,0.7-4.2,1.6c-2.6,1.1-3.8,1.4-4.6,0.9
		c-1.5-0.8-6.3-0.8-8.5,0c-1.5,0.6-2,0.4-4.1-1.3c-3.9-3.1-6.4-1.8-7.4,4.1c-0.4,2.1-0.2,2.8,1.4,5.2c2.2,3.2,4.8,4.5,12.1,6.1
		c4.1,0.9,5.5,1.6,8.1,3.8c1.8,1.4,4.3,3.3,5.8,4c1.5,0.8,3.2,2.2,3.8,3.3c0.6,1,1.3,1.8,1.4,1.8c0.2,0,1.3-0.7,2.4-1.6
		c1.8-1.3,2.8-1.6,6.2-1.6c5.1,0,7.1,1.1,10.7,6l2.7,3.7l9.1-0.1c5-0.1,10.5-0.4,12.1-0.8c1.7-0.4,3.3-0.6,3.7-0.3
		c0.3,0.2,2,0.8,3.7,1.2c2.9,0.8,3.3,0.8,6.7-0.8c1.9-0.9,4.9-2.4,6.4-3.4c1.9-1.2,3.8-1.8,5.5-1.8c2.3,0,2.8-0.3,3.7-1.9
		c1.9-3.5,2.3-3.7,7.1-4.6c4.2-0.7,5.6-1.3,10.8-4.7c3.3-2.2,7.4-5.4,9.2-7.4c3-3.1,3.1-3.4,2.2-4.5c-0.2-0.3-0.4-0.6-0.6-1
		c-4.8-2.2-9.5-4.4-14.3-6.5L436.2,210.1z"/>
	<path fill="#FF0000" d="M475,174.7l-3.3,2.2l3.3,5l1,0.1l5.4,0.4l3.5-4.4c1.3-1.7,2.3-3.1,3-4.5c-4.7-2.2-9.6-3.9-14-5.4L475,174.7
		z"/>
	<path fill="#FF0000" d="M476.1,193.8l1.2,3.1C477.3,195.4,477.1,194.8,476.1,193.8z"/>
	<path fill="#FF0000" d="M606.3,241.3c-1.2,0.6-1.5,1.2-1.5,2.9c0,1.8,0.6,2.7,4.8,6.6c2.6,2.5,6.4,5.3,8.3,6.3
		c3.4,1.8,3.7,1.8,10.6,1.4c8.1-0.4,9.3-1,9.9-5.2c0.6-4.1-0.8-7.1-5.8-13.1c-3.6-4.3-6-6.4-10.3-9.2c-3.8-2.4-6.3-4.6-7.8-6.7
		c-1.5-2.1-2.8-3.3-4.1-3.5c-2.1-0.4-3.3-2.4-3.9-6.2c-0.5-2.8-3.5-7.5-5.1-8.1c-0.6-0.2-2-0.4-3.2-0.4c-1.2,0-3.8-0.9-5.9-1.9
		c-3.6-1.8-3.8-1.8-3.8-0.6c0,0.8-0.4,2.1-0.9,3.1c-1.1,2.1-1.4,8.9-0.7,13c0.4,2.3,0.9,2.9,3.1,4.3c1.4,0.9,4.4,3.3,6.7,5.3
		c2.3,2.1,5.2,4.3,6.6,5c1.8,0.9,2.8,1.9,3.6,3.7C607.9,240.6,607.9,240.6,606.3,241.3z"/>
	<path fill="#FF0000" d="M497,354.4c1.9,0.9,3.3,2.2,4.3,3.8c1.1,1.9,1.9,2.6,4.1,3.2c2.4,0.7,3,0.6,5.5-0.6
		c1.5-0.8,2.8-1.6,2.8-1.9c0-1.3-5.2-4.9-7.8-5.6c-2.6-0.6-11.6-1-11.6-0.4C494.2,352.9,495.4,353.6,497,354.4z"/>
	<path fill="#FF0000" d="M580,185.1c-0.8,0.8-1.6,2.4-1.9,3.6c-0.5,1.9-0.3,2.8,1.8,7l2.4,4.8l1.9-0.6c1.7-0.6,1.9-0.9,1.9-3.4
		c0-4.1-1.3-9.1-2.7-11.1C581.8,183.3,581.6,183.3,580,185.1z"/>
	<path fill="#FF0000" d="M293.4,68.4c2.4-1.2,2.8-1.9,1.9-3.4c-0.8-1.4-3.3-1.7-4.2-0.5c-0.4,0.4-1,1.4-1.4,2.2
		c-0.6,1.2-0.5,1.5,0.6,2.1C291.3,69.2,292.1,69.1,293.4,68.4z"/>
	<path fill="#FF0000" d="M265.3,192.4c-2.2-2.8-2.6-2.8-5-1.4c-0.8,0.5-1.4,1.3-1.7,2.2l8.4,6.3
		C267.8,197.9,267.2,194.8,265.3,192.4z"/>
	<path fill="#FFCC00" d="M420.4,94.2c-2.1,1-2.6,2.5-0.6,2.1c1.1-0.3,4.8-0.3,6.6,0c1.9,0.3,1.9-1.7,0-2.5
		C424.2,92.8,423,92.9,420.4,94.2z"/>
	<path fill="#FFCC00" d="M441.9,97.4c1.4,0.4,4.3,2,6.4,3.5c2.2,1.4,4.4,2.8,5.1,3c0.6,0.2,2.6,2.1,4.3,4.2c1.8,2.1,4.4,4.9,6.1,6.1
		c2.8,2.3,3.3,2.4,8.7,2.8c3.2,0.3,5.8,0.5,5.9,0.6c0.1,0.1,3.9,4.9,8.6,10.9c12.9,16.3,12.6,15.8,13.8,25.8c0.9,7.1,1.4,8.9,3,11.9
		c1.1,1.9,2.8,4.2,3.9,5.1l2,1.7l2.1-1.6c2.5-1.8,4.2-5.3,4.3-8.5c0.1-1.3,0.8-3.6,1.6-5.3c0-0.1,0.1-0.1,0.1-0.2
		c-0.9-2.5-2.7-7.2-4.5-11.6c-0.7-0.7-1.4-1.4-1.9-2.1c-3.1-3.9-7.6-8-11.9-10.8c-3.4-2.2-13.1-11.5-13.6-13
		c-0.2-0.6-1.6-1.6-3.1-2.2c-2-0.8-3.4-1.9-5.1-4.4c-2.8-3.9-5.6-5.8-12.2-8.1c-2.6-0.9-6.1-2.7-7.9-4c-4.3-3.2-7.4-5.4-9.7-7
		C445.8,95.2,443.8,96.3,441.9,97.4C441.9,97.4,441.9,97.4,441.9,97.4z"/>
	<path fill="#FFCC00" d="M454.4,205.3c4.6,0.3,6.6,0.6,7.1,1.3c1.4,1.8,4.2,0.9,10.1-2.9l5.8-3.7v-2.8c0-0.1,0-0.2,0-0.3l-1.2-3.1
		c-0.5-0.5-1.3-1.1-2.5-2c-4.1-2.9-4.9-4.8-3.7-8.3l0.7-2l4.4,0.3l-3.3-5l3.3-2.2l-1.1-6.6c4.4,1.5,9.4,3.2,14,5.4
		c1.4-2.8,1.4-5.1,0.4-8.1c-0.5-1.6-0.7-3-0.5-4.7c-4.1-2.2-7.2-4-7.7-5c0.9,0.3,4.2,0.9,8.1,2c0.5-3.4,0.2-4.1-1.2-4.8
		c-1.1-0.5-1.8-0.5-2.8,0c-1.3,0.7-2-0.1-2-2.4c0-0.8-3.7-3.9-4.6-3.8c-0.1,0.1-0.8,0.4-1.7,0.9c-0.9,0.5-2.3,0.9-3.2,0.9
		c-1.3,0-1.8,0.4-2,1.9c-0.4,1.7-0.6,1.9-2.8,1.9c-1.9,0-2.8-0.4-4.5-2.2l-2.1-2.2l-5.6,0.1c-8.4,0.1-8.4,0-4.8,5.6
		c1.8,2.6,3.1,5.3,3.1,6.1c0,0.8,0.4,2.1,0.9,2.9c0.8,1.3,2.6,15.2,2.1,15.8c-0.1,0.1-3.3,0.5-7.1,0.9c-3.8,0.4-8.3,1.3-10.1,1.9
		c-2.8,1.1-3.6,1.9-6.8,6.4c-2.7,3.9-3.5,5.7-3.5,7.4c0,3.6-1.5,4.8-6.7,5.3c-3.5,0.4-4.3,0.5-5.4,1.7c4.7,3.8,10.5,6.6,18.5,8.1
		l-2.2-8.8c4.8,2.1,9.6,4.3,14.3,6.5c-0.2-0.5-0.4-1-0.4-1.5C447.9,205.1,448.1,205,454.4,205.3z"/>
	<path fill="#FFCC00" d="M397.2,83c4.2,0,6.1-0.9,6.6-3.3c0.9-4.6,0.8-4.8-4.9-7.4c-0.5-0.2-1.1-0.5-1.6-0.7
		c-1.5,3.9-2.4,7.5-2.9,11C395.3,82.9,396.3,83,397.2,83z"/>
	<path fill="#FFCC00" d="M436.6,93.3v-4.2c-4.2-2-10.2-6-11.8-8.1c-0.9-1.3-2.1-2.4-2.6-2.4s-2.6,1.3-4.6,2.9
		c-1.9,1.6-3.5,3.1-3.5,3.3c0,0.2,1.3,0.8,2.8,1.4c2.1,0.9,3.6,1.1,6.4,0.8l3.6-0.4l6.3,4.9c2.2,1.7,4.5,3.4,6.3,4.5l1.1-3.3
		L436.6,93.3z"/>
	<path fill="#FF0000" d="M487.8,160.7c0-0.4,0.1-0.7,0.1-1.1c0.1-0.7,0.2-1.3,0.3-1.8c-3.9-1.1-7.2-1.7-8.1-2
		C480.7,156.7,483.8,158.5,487.8,160.7z"/>
	<polygon fill="#FFFFFF" points="143.9,212.4 160.4,203.3 177.4,211.8 173.8,193.2 187.1,179.8 168.3,177.5 159.6,160.8 
		151.6,177.8 132.9,180.8 146.7,193.8 	"/>
	<polygon fill="#FFFFFF" points="214.8,275.6 228.7,267.8 243.2,274.8 240,259.2 251,247.7 235.2,245.9 227.6,231.9 221,246.3 
		205.3,249.1 217.1,259.9 	"/>
	<path fill="#FFFFFF" d="M207.5,307l-3.5-6.4l-3,6.6l-2.3,0.4c2.1,0.2,3.7,0.7,6.3,1.7c2,0.8,4.4,1.6,6.1,2.1l3.5-3.7L207.5,307z"/>
	<polygon fill="#FFFFFF" points="82.6,277.5 99.6,267.2 116.6,277.2 112,257.9 126.9,244.9 107.1,243.3 99.2,225.1 91.5,243.4 
		71.8,245.2 86.9,258.2 	"/>
</g>
</svg>
