<?xml version="1.0" encoding="utf-8"?>
<!-- Generator: Adobe Illustrator 17.1.0, SVG Export Plug-In . SVG Version: 6.00 Build 0)  -->
<!DOCTYPE svg PUBLIC "-//W3C//DTD SVG 1.1//EN" "http://www.w3.org/Graphics/SVG/1.1/DTD/svg11.dtd">
<svg version="1.1" id="flag-icon-css-ph" xmlns="http://www.w3.org/2000/svg" xmlns:xlink="http://www.w3.org/1999/xlink" x="0px"
	 y="0px" viewBox="0 0 640 480" enable-background="new 0 0 640 480" xml:space="preserve">
<g>
	<path fill="none" d="M245.7,480c0,0.1,0.1,0.2,0.2,0.3c0.7,0.5,1.2,0.4,1.5-0.3H245.7z"/>
	<path fill="#0038A8" d="M301.1,20.6c1.4,0.8,2.7,0.5,2.9-0.7c0.1-0.6,0.1-1.3,0-1.4c-0.6-0.5-1.9-0.2-2.7,0.7
		C300.6,20,300.6,20.2,301.1,20.6z"/>
	<path fill="#0038A8" d="M299.4,12.7c-0.4-1.4-1.9-1.5-2.2-0.2c-0.3,1.3,0.4,3,1.3,3C299.2,15.4,299.7,14,299.4,12.7z"/>
	<path fill="#0038A8" d="M267.5,152.7c1.4-1,2.2-0.3,1.4,1.2c-0.2,0.4-0.3,0.8-0.4,1.2l10.5,6.1c0.2-1.7,0-3.7-0.5-5.1
		c-0.7-1.8-0.7-1.9,0.2-2.9l1-1.1l1.9,1.4c1.1,0.7,3.5,1.8,5.5,2.4c3.1,0.9,3.7,1.3,4.6,2.6c0.8,1.3,0.9,1.8,0.5,2.8
		c-0.5,1.2-2.5,1.6-3.1,0.7c-0.6-1-1.6-0.4-1.9,1.1c-0.1,0.6-0.5,1.3-1.2,2.3l28.5,16.5c1-0.7,1.5-0.8,3.6-0.5
		c3.5,0.4,8.1,3.1,11.4,6.8c2.1,2.4,2.9,2.8,5.8,3.8c3.7,1.2,5.2,2.4,5.9,5.5l6.2,3.6c0-0.3-0.1-0.7-0.1-1.1
		c-0.4-3.2-1.2-4.9-3.3-7.5c-1.5-1.7-1.6-2.1-1.5-4.6c0-1.8-0.2-3.5-0.9-5.2c-0.5-1.4-1-2.8-1-3.1c0-1.5,2-0.6,5.3,2.5
		c1.9,1.8,3.9,3.4,4.5,3.8c0.6,0.3,1.5,1.7,2.1,3.1c1,2.2,1.3,2.5,2.5,2.5c0.8,0,2,0.5,2.9,1.3c2.8,2.3,8.5,7.8,9.5,9.2
		c0.9,1.3,1,1.5,0.3,2.7c-0.4,0.7-0.6,2-0.5,2.8c0.1,1.4,0.3,1.5,2.5,2c1.3,0.3,3.1,1.1,4,1.7c0.9,0.7,2.4,1.3,3.4,1.4
		c0.9,0.1,2.3,0.7,3,1.2l1.2,1l2.4-2c3.2-2.7,3.3-2.8,5.2-2.4c2.6,0.5,2,3-0.7,3c-2.3,0-2.8,0.4-2.8,2.8c0,2.8,0.5,3.5,2.4,3.5
		c1.3,0,1.6,0.2,1.7,1.2c0.2,1.3,1.4,3.3,2,3.3c0.2,0,1.1-1.2,2.1-2.7c2-3,2.6-6.2,1.6-8.5c-0.4-1.1-0.4-1.6,0.2-2.8
		c0.4-0.8,0.7-2.2,0.6-3.2c-0.1-1.4-0.4-1.8-1.2-1.9c-0.8-0.1-1.1,0.1-1.1,0.8c0,0.5-0.3,1.3-0.7,1.6c-0.7,0.7-0.8,0.7-2.1-0.7
		c-1.2-1.3-1.6-1.4-3.8-1.4c-4.7,0.2-5-0.2-3.1-3.8c0.5-1.1,0.9-2,0.8-2c-0.1,0-0.7-0.5-1.4-0.9c-0.9-0.6-1.3-1.2-1.3-2
		c0-1.7-2.6-4.8-4-4.8c-0.7,0-1.3-0.4-1.8-1.4c-1.6-3.2-0.4-4,6.2-4h4.9l0.8-1.4l0.9-1.5l-6.3-3.1c-3.4-1.7-6.5-3.1-6.9-3.1
		s-0.9,0.3-1.4,0.7c-0.7,0.6-1.1,0.6-2.4,0.1c-1.9-0.6-2.3-1.1-2.3-2.8c0-1.5-0.7-1.6-3.6-0.5c-2.1,0.8-2.7,2-1.1,2
		c1.2,0,1.4,0.7,1,4.6c-0.4,4.5-1.5,5.3-4.6,3.4c-1.4-0.9-1.5-1.1-1.3-2.9c0.5-3.3-0.7-7-3.2-9.6c-1.5-1.6-2.1-2.8-2.4-4.2
		c-0.2-1.7-0.4-2-1.1-1.6c-0.4,0.2-3.6,0.4-7.1,0.4h-6.3l-2.2,1.6c-1.8,1.3-2.2,1.9-2.2,3c0,1.7-1,3.4-3.1,5.1
		c-2.2,1.8-6.2,1.7-10.1-0.2c-3.4-1.7-5.5-3.5-5.5-4.8c0-0.6-0.5-2.1-1.1-3.3c-0.6-1.3-1.3-3.1-1.4-4c-0.1-0.9-0.8-2.3-1.4-3.3
		c-1.4-2.1-1.1-3.7,0.7-4.8c1.6-0.9,1.6-1.2,0.4-2.3c-0.5-0.4-0.9-1.2-0.9-1.7c0-0.5-0.6-1.6-1.4-2.4c-0.7-0.8-1.6-2.4-1.9-3.4
		s-0.8-2.2-1.2-2.6s-0.7-1.4-0.9-2.1c-0.2-0.8-1-2.1-1.7-2.8c-2.3-2.2-3.4-4.8-2.1-4.8c0.4,0,1.2-0.8,1.8-1.8c0.6-0.9,1.5-2.1,2-2.5
		c3.2-2.8,3.4-3.1,3.7-5.2c0.3-1.7,0.2-2.4-0.4-3c-1.1-1.2-0.9-2.7,0.6-5.9c2-3.9,2.9-4.8,6-5.8c1.5-0.5,3.6-1.5,4.8-2.3
		c2.4-1.7,2.8-1.4,1.4,1.3c-2.1,4.2-0.7,4.4,2.9,0.5c2.2-2.4,2.6-3.1,2.8-5c0.4-4.5,2.3-10.2,4.2-12.6c2.2-2.8,4.5-8.3,4.8-11.5
		c0.3-2.7,0.2-3.1-0.9-4.7c-0.7-1-1.2-2.2-1.2-2.7c0-1.4-2.3-4.1-3.5-4.1c-1.9,0-4.3-4.3-4.9-8.6c-0.2-1.5-0.5-3.4-0.7-4.1
		c-0.1-0.7-0.1-2.1,0.2-3c0.3-1,0.7-3.3,1-5.2c0.4-2.8,0.8-3.8,1.9-4.9c3-3.2,3.3-4.6,1.4-7.3c-0.5-0.7-1.2-2-1.5-2.9
		c-1.1-2.7-3-2.1-3,0.8c0,1.5-3.3,4.5-5.4,5c-3,0.7-4.8,0.5-7.6-0.9c-1.4-0.7-4.1-1.8-5.9-2.4c-1.8-0.6-5.3-2.3-7.7-3.9l-4.4-2.8
		l-4-0.1c-2.2,0-4.7-0.2-5.6-0.4c-1.5-0.3-1.8-0.2-3.7,1.8c-1.4,1.5-2.4,2.1-3.3,2.1c-1.5,0-1.7,0.5-2.1,5.3
		c-0.4,5.4-1,7.8-3.1,12.2c-1,2.1-2.1,5-2.5,6.4c-0.4,1.4-1,3.3-1.4,4c-1.1,2.1-0.9,4.1,0.4,6.6c1.5,2.8,2.1,6.5,2.1,12.8v5.1
		l-1.6,1.8l-1.5,1.8l0.2,8.8c0.2,8.6,0.2,8.8,1.5,10.9c1.4,2.2,1.2,3.2-0.5,3.2c-0.4,0-1.4,0.6-2.3,1.4c-2.5,2.1-6.1,1.7-6.1-0.7
		c0-1.3-1.1-2.5-4.3-4.5c-1.8-1.1-2.2-1.7-2.2-2.7c0-0.7-0.3-1.6-0.6-2.1c-0.5-0.7-0.7-0.7-1.5-0.1c-0.9,0.6-1,1.3-1.3,5.7
		c-0.1,2.8-0.4,5.6-0.6,6.2c-0.3,1,0,1.4,1.4,2.3c1.9,1.3,2.1,2.2,2.3,11.6c0.1,6.4,0.2,6.8,3.3,10.7c1.7,2.3,2,2.9,2.3,5.8
		c0.5,4.9,0.7,6.8,1.2,7.7l2.3,1.3C266.2,153.3,266.9,153.1,267.5,152.7z"/>
	<path fill="#0038A8" d="M391.3,189.3c0.4,0.6,2.4,0.6,3.5,0c0.6-0.3,1.3-0.3,2.1,0c0.7,0.2,2.1,0.3,3.1,0.2
		c1.5-0.3,1.9-0.6,2.7-2.4c0.5-1.2,0.9-3,0.9-4c0-1.6-0.3-2.2-2.3-4.3c-1.3-1.4-2.3-2.8-2.3-3.4c0-1.1-1.9-2.9-3.1-2.9
		c-0.5,0-1.3,0.3-1.7,0.6c-0.7,0.5-0.7,1.1-0.3,4.8l0.5,4.3l-1.7,3.3C391.8,187.4,391.2,189.1,391.3,189.3z"/>
	<path fill="#0038A8" d="M321.3,19c0.5-1.1,0.6-1.5,0.1-1.8c-1.1-0.7-2.6-0.3-3.6,0.9c-1.1,1.4-1.1,2.8,0.1,3.6
		C319,22.3,320.3,21.2,321.3,19z"/>
	<path fill="#0038A8" d="M362.2,207.9c-2.2-2.4-2.8-2.7-4.3-2.7c-0.8,0-1.5,0.1-1.8,0.4l9.5,5.5C364.6,210.3,363.3,209,362.2,207.9z
		"/>
	<path fill="#0038A8" d="M436.6,231c-1-0.9-2.1-1.6-2.3-1.6c-0.2,0-0.4-0.7-0.4-1.6c0-1.2-0.5-2.1-1.7-3.5c-1.6-1.8-2.1-2-4.8-2.4
		c-1.7-0.2-3.6-0.6-4.3-0.9c-2.1-0.8-4.5-0.7-4.8,0.3c-0.2,0.5-0.5,1-0.7,1.1c-0.6,0.4-13.8,0.1-15.4-0.3c-0.7-0.2-1.7-0.1-2.2,0.2
		c-1,0.6-1,0.6-0.1,1.5c1.4,1.5,2.3,3.6,2.6,5.9c0.1,1.2,0.8,2.4,1.8,3.5l6.9,4c0.9,0.3,1.5,0.6,1.9,1.1l2.7,1.6h23.4
		c0-0.1,0-0.2,0-0.3c0-0.7-0.1-2.5-0.3-4.1C438.5,232.9,438.3,232.5,436.6,231z"/>
	<path fill="#0038A8" d="M379.6,217.9c-0.2-0.1-0.8,0.1-1.5,0.4l2.5,1.4C380.2,218.7,379.8,218,379.6,217.9z"/>
	<path fill="#0038A8" d="M305.3,7.1c1.6,0.5,2,0.5,2.8-0.3c1.2-1,1.2-1.7,0.1-2.7c-1.1-1-3.3-1-4.7,0C302.1,5.1,302.9,6.4,305.3,7.1
		z"/>
	<path fill="#0038A8" d="M323.7,144.7c-1.1-0.8-1.2-0.8-2.4,0c-0.6,0.4-1.1,0.6-1.2,0.4c-0.1-0.1-0.5,0.1-0.8,0.5
		c-0.7,0.8,0.2,3.3,1.8,4.7c0.7,0.6,1,1.4,1,2.6c0,1.6,0.6,2.3,1.7,2.3c0.1,0,0.1-1.1,0-2.5c-0.1-1.3,0-3.5,0.3-4.9
		C324.6,145.6,324.6,145.4,323.7,144.7z"/>
	<path fill="#CE1126" d="M342.6,284.4c5.8-1.3,8.6-3.1,9.4-5.8c0.2-0.8,0.7-1.8,1.4-2.7l-18.4,10.6
		C336.8,285.8,339.2,285.2,342.6,284.4z"/>
	<path fill="#CE1126" d="M324.6,294.6c0.1,0.1,0.8,0,1.6-0.1c1.1-0.2,1.4-0.5,1.3-1.5c-0.1-1,0.5-1.7,2.6-3.4
		c0.1-0.1,0.3-0.2,0.4-0.3l-5.7,3.3C324.6,293.6,324.5,294.4,324.6,294.6z"/>
	<path fill="#CE1126" d="M447.2,290.7c-0.3-0.8-0.5-0.9-2-0.1c-1.7,0.8-2.8,3.4-2.9,7.1c-0.1,2.6,0,3.5,0.6,4.1
		c0.4,0.4,0.9,1.8,1.1,3c0.4,2.7,1.4,4.3,2.5,4.3c1.2,0,1.4-0.9,1.4-5.3c0-3.3-0.1-4-0.9-4.7c-1.1-1-1.2-2.9-0.2-4.1
		C447.5,294,447.7,292,447.2,290.7z"/>
	<path fill="#CE1126" d="M414.3,240.8c1.4,2.4,3.3,4.2,5.6,5.3c1.4,0.7,2.9,1.2,3.3,1.1c0.6-0.1,0.7,0.3,0.5,2.8
		c-0.2,2.7-0.5,3.3-1.8,4.7l-1.5,1.6l1.4,0.7c0.8,0.4,1.6,1.2,1.9,1.7c0.3,0.5,1.4,2.1,2.6,3.4c5,5.9,5.6,6.2,12.6,5.8l5.3-0.3
		l2.9,1.8c1.5,1,3.3,1.9,3.8,1.9c0.7,0,0.2-0.7-2.2-3c-1.7-1.6-3.1-3.2-3.1-3.4c0-0.3-0.5-0.6-1-0.7c-0.8-0.1-1-0.4-0.9-1.1
		c0.7-4.3,0.8-4-1.3-5.8l-2-1.7l-0.7-5.8c-0.7-5.3-0.8-7.4-0.6-9.9h-23.4L414.3,240.8z"/>
	<path fill="#CE1126" d="M247.7,478.5c0.2-1.6,0.1-2.5-0.5-3.5c-1.3-2.2-1.9-1.7-1.9,1.8c0,1.4,0.2,2.7,0.4,3.2h1.7
		C247.5,479.7,247.6,479.2,247.7,478.5z"/>
	<path fill="#CE1126" d="M463.1,305c-1.3-2.5-1.8-2.6-3.9-0.7c-1.8,1.7-2.9,3.3-2.9,4.2c0,0.7,5,3.9,6.2,4c0.8,0.1,1.1-0.2,1.2-1.4
		c0.1-1.1,0-1.5-0.6-1.5c-0.9,0-0.9-0.2,0-1.9C463.7,306.5,463.7,306.2,463.1,305z"/>
	<path fill="#CE1126" d="M304.7,436.5c-1.6-0.2-2.8-0.6-3-0.9c-0.1-0.5-1.1-0.7-2.9-0.7c-2.1,0-3,0.2-4.4,1.3
		c-1.6,1.2-1.7,1.4-1.5,2.9c0.3,2,0.3,1.9,2.7,2.4c1.5,0.4,2.5,0.3,4.2-0.3c1.6-0.5,3-0.7,4.7-0.5c1.3,0.2,3,0.1,3.8-0.2
		c1.3-0.4,1.5-0.7,1.3-1.8C309.4,437.2,309.1,437.1,304.7,436.5z"/>
	<path fill="#CE1126" d="M478.7,380.6v-3.7l-1.8-0.8c-1-0.4-2.5-1.5-3.3-2.3l-1.5-1.5l1-3c0.6-1.6,1.2-4.2,1.3-5.9l0.3-2.9h-1.7
		c-2.1,0-2.6-1-1.5-2.8c0.9-1.7,0.9-2.6,0-4.3c-1.1-1.9-3.6-3.3-6.2-3.6c-2.4-0.3-3.2-1.5-1.3-2.1c0.6-0.2,2.1-1.3,3.2-2.5
		c1.2-1.2,2.4-2.3,2.8-2.4c0.5-0.1-0.2-1.6-2.3-5.3c-2.5-4.3-3-5.5-3.2-7.8c-0.2-2.5-0.3-2.7-1.4-2.7c-0.7,0-1.8-0.3-2.5-0.6
		c-1.5-0.7-3.6-3.7-3.6-5.2c0-0.9-0.6-1.4-2.9-2.8c-1.6-0.9-3.2-1.6-3.5-1.6c-0.2,0-2.6-1.6-5.1-3.5s-4.8-3.5-5.1-3.5
		c-0.2,0-0.9,0.3-1.4,0.7c-1,0.7-1.1,1-0.7,3.8c0.2,1.9,0.9,4.3,1.9,6.5c2,4.4,3.4,9.5,3.4,12.3c0,1.6-0.2,2.4-1.1,3.1
		c-2,1.9-6.2,1.1-7.9-1.4c-0.5-0.8-1.3-1.2-2.4-1.4l-1.7-0.2v2c0,3.4-0.6,6.2-1.2,6.2c-1.4,0-2.9-1.1-3.9-2.8
		c-0.9-1.6-1.3-1.8-2.7-1.8c-2.3,0-5.3,0.9-5.3,1.7c0,0.3,0.2,1.2,0.6,1.8c0.4,0.9,0.4,1.6-0.1,3.1c-0.6,1.6-0.6,2.3,0,4.6
		c0.8,3.2,0.4,4.4-1.5,4.8c-3,0.6-4.8,0.3-6-0.9c-1.4-1.4-3.3-1.5-4.6-0.1c-0.5,0.6-1.6,2.5-2.4,4.3c-1.4,3.1-1.4,3.4-0.7,4.8
		l0.7,1.4l-4.1,0.6c-6.3,0.8-6.6,0.9-6.9,2c-0.1,0.7-1.1,1.4-2.8,2.1c-1.4,0.7-3.3,1.9-4,2.7c-0.8,0.8-1.6,1.5-1.8,1.5
		c-0.9,0-0.2-1.4,1.3-2.8c1.5-1.3,1.8-2,2.7-6l1.1-4.5l-1-2.9c-1-3.1-2-3.9-4.7-3.8c-1.9,0-4.7-0.7-7.2-1.8c-2.4-1.1-2.8-1-2.8,0.7
		c0,0.9-0.6,1.7-2.3,3c-2.1,1.6-2.6,1.8-5,1.8c-3,0-5.7,1.3-5.7,2.7c0,0.5-0.3,1.7-0.7,2.7c-0.5,1.4-0.5,2.1-0.1,2.8
		c0.8,1.4-1.2,2.8-5.1,3.5c-1.7,0.3-6.1,1.7-9.6,3.1c-3.5,1.4-7,2.6-7.8,2.8c-1,0.2-2,1-3.3,2.8l-1.8,2.4l0.9,3.9
		c1.1,4.1,1.1,3.9-1.3,5.4c-0.6,0.4-0.8,1.3-1,3.3c-0.1,1.5-0.5,3.2-0.8,3.7c-0.4,0.5-0.7,1.3-0.7,1.7c0,0.4-0.7,1-1.4,1.4
		c-1.9,0.8-2.5,2.4-1.8,5.1c0.9,3.5,2.1,4.5,5.9,5.1c1.9,0.3,3.6,0.4,3.8,0.3c0.2-0.1,0.6-1,0.7-2c0.2-0.9,0.7-2.5,1.2-3.5
		c0.5-0.9,0.9-2.5,0.9-3.3c0-0.9,0.3-1.9,0.7-2.2c0.4-0.3,1-1.7,1.4-3.1c0.6-2.1,1.1-2.8,2.8-4c1.6-1.2,2.1-1.7,2.1-2.8
		c0-1-0.3-1.4-1-1.6c-0.9-0.3-0.9-0.3,0.1-1.4c0.6-0.6,1.3-1.1,1.6-1.1s1-0.5,1.6-1.1c1.2-1.2,4.4-1.9,5.7-1.2
		c0.7,0.4,0.8,1,0.8,3.2c0,2.5,0.1,2.9,1.4,4c1.2,1,1.6,1.1,2.6,0.7c0.8-0.4,1.3-0.4,1.7,0c0.4,0.4,0.9,0.2,1.9-0.6
		c0.7-0.7,1.6-1.2,1.8-1.2c0.2,0,0.4-0.6,0.4-1.3c0-1.3,1.6-3.4,2.1-2.8c0.1,0.1,0.4,0.8,0.5,1.6c0.2,1.2,0.1,1.5-0.7,1.8
		c-0.9,0.3-0.9,0.4-0.2,1.2c0.6,0.7,1.3,0.8,3.2,0.6l2.4-0.2l0.8,1.9c0.5,1,1.5,2.3,2.2,2.9c1.4,0.9,1.4,0.9,2.3,0.2
		c1.2-1.2,1.2-1.4-1-3.8l-1.9-2.1l1.6-1.8c0.9-1,1.6-1.9,1.6-2.1s-0.3-1-0.7-2c-1.3-3-1.2-3.1,3.2-2.7c3.2,0.3,4.1,0.6,5.5,1.6
		c1.9,1.5,5.7,3.3,9.5,4.5c2.5,0.7,2.9,1.2,4.9,3.8c1.7,2.4,2.4,2.9,3.5,2.9c1.2,0,1.3,0.1,1,1.3c-0.1,0.7-1.8,3.3-3.6,5.6
		c-1.8,2.4-3.5,5.1-3.9,5.9c-0.3,0.9-0.8,1.7-1.1,1.9c-0.3,0.2-0.8,1.1-1.2,2l-0.7,1.7l1.8,1.5l1.8,1.5l-0.5,3.5l-0.4,3.5l1.9,3.2
		c1,1.7,3.2,4.4,4.8,6c2.8,2.8,3.3,3,13.1,6.9c12.1,4.8,13.8,5.1,16.5,2.5c1.1-1.1,1.6-2,1.6-2.9c0-1.8,1.9-3,3-2
		c1.4,1.2,1.7,2.2,0.9,3.6c-0.4,0.7-0.7,1.5-0.7,1.7c0,0.2-0.5,0.8-1,1.2c-1.3,1.1-0.9,2.4,1.2,5.3c0.9,1.2,1.7,2.8,1.8,3.7
		c0.2,2.6,1.5,2.3,4.9-1.1c2.1-2.1,3.1-3.5,3.4-4.8c0.3-1,1.3-2.7,2.3-3.8c1.2-1.3,1.9-2.7,2.3-4.3c0.6-2.6,0.5-3.4-1-10.4l-1-4.6
		l-2.9-1.8c-3.1-1.9-5-4.1-5.5-6.3c-0.6-2.3,3.7-9.6,5.7-9.6c1.3,0,2.9-2.2,2.9-4.1c0-1.6,0.3-2.1,2.6-4.3l2.6-2.5v1.9
		c0,1.7,0.2,2.1,2.1,3.6c1.2,1,2.1,2.1,2.1,2.5c0,0.4,0.4,2.3,1,4.1c0.8,2.6,1.3,3.4,2.3,4.1c1.3,0.8,1.4,0.9,1.4,4.4
		c0,4.4,1,7.6,3.1,9.9c1.4,1.6,1.5,1.6,1.8,0.7c0.1-0.6,0.3-3.7,0.3-6.9c0-4.6-0.1-6-0.7-6.5c-0.7-0.6-1.4-3.6-1-4.1
		c0.1-0.2,1,0.6,2,1.6c2.3,2.8,3.3,2.6,3-0.6c0-0.5-0.3-1.1-0.5-1.4c-0.7-0.8-0.5-1.2,0.7-1.2c1.7,0,3.3-1.6,4.2-4.1
		c0.5-1.2,1.6-3.4,2.7-4.9c2.2-3.3,2.4-5.6,0.6-7.7C478.8,384.4,478.7,383.8,478.7,380.6z"/>
	<path fill="#CE1126" d="M321.2,425.5c0.7,0.6,1.4,0.4,6.3-2.1c3.9-1.9,5.8-3.1,6.3-4c0.6-0.9,1.4-1.4,2.9-1.8
		c2.9-0.7,2.6-1.6-0.8-2.2c-2.3-0.4-3.1-0.7-4-1.9c-1.4-1.8-2.1-1.8-4.9,0c-1.2,0.7-2.8,1.4-3.5,1.4c-0.7,0-1.6,0.4-2.1,0.8
		c-0.7,0.8-0.7,0.9,1.4,2.6l2.1,1.8l-2.2,2.3C320.8,424.5,320.6,424.9,321.2,425.5z"/>
	<path fill="#CE1126" d="M264.2,465.5c0.9-0.9,1.8-1.2,3.2-1.2c2.3,0,2.8-0.7,2.1-2.9c-0.6-2-1.5-2-5.6,0c-3,1.5-7.6,5.5-7.6,6.6
		C256.4,468.8,263,466.8,264.2,465.5z"/>
	<path fill="#CE1126" d="M431.1,286.8c-0.6-2.2-1.4-3.6-3.2-5.5c-2.5-2.8-2.6-3.1-3.1-9.5c-0.4-5.4-1.4-9.7-2.8-11.4
		c-1-1.3-1.1-1.4-1.7-0.6c-0.4,0.5-2.1,1.3-3.9,1.8c-5.2,1.4-7.2,1.1-7.2-1.2c0-1.4-0.9-2.1-2-1.6c-0.7,0.4-1.1,0.2-2.3-1.2
		c-0.9-1.1-1.8-1.7-2.6-1.7c-0.9,0-1.1,0.2-0.9,0.8c0.1,0.5,0.5,1.9,0.8,3.2c0.3,1.3,1,3.3,1.5,4.5c0.7,1.5,0.9,2.6,0.7,3.8
		c-0.3,1.7,0.8,7,1.7,7.6c0.2,0.1,1,0.4,1.8,0.7c1.4,0.4,1.4,0.3,2.6-1.9l1.2-2.3l2.1,1.5c2.8,2,2.7,1.9,4,6.5l1.2,4l-1.1,1.3
		c-1.3,1.5-1.3,2.2-0.4,4.9c0.4,1.1,0.7,3.5,0.7,5.3c0,4.2,0.8,5.6,3,5.3c1.2-0.2,1.7,0,2.7,1.2c0.7,0.8,1.4,1.3,1.7,1.1
		c0.9-0.5,0.7-3.6-0.4-5.2c-1.2-1.8-1.2-2.1,0-3.7l1-1.3l1.2,1.6c1.3,2,2.8,2.2,5.1,0.7l1.5-0.9l-1-2.4
		C432.4,290.9,431.6,288.5,431.1,286.8z"/>
	<path fill="#CE1126" d="M378.3,331.2c-1.3,1.5-1.3,1.6-0.5,2.8c0.6,0.9,1.2,1.2,2.5,1.2c1,0,2.2-0.4,2.8-0.8l1-0.8l-2-2
		c-1.1-1.1-2.1-2-2.2-1.9C379.8,329.7,379,330.4,378.3,331.2z"/>
	<path fill="#CE1126" d="M365.9,311.2c0-4,0.5-5.3,3.4-10.2c1.3-2.1,1.7-3.3,1.7-4.8c0-2.1,0.8-4.2,2-5.2c0.4-0.3,1.5-2.7,2.6-5.3
		c3.5-9,3.1-10.3-3.6-10.7c-3-0.1-4.6,0-6.3,0.6c-1.3,0.5-3.1,0.8-4.1,0.9c-1.3,0-2.1,0.3-2.9,1.3c-1.1,1.2-1.2,1.6-1,3.8
		c0.2,2.4,0.2,2.5-1.9,4.7c-1.1,1.2-2.1,2.6-2.1,3.1c0,0.5,0.4,2.3,0.9,4.1c0.5,1.8,1,4.4,1.2,5.9c0.3,2.4,0.1,2.9-0.7,4.1
		c-0.7,0.9-1.4,1.4-2.1,1.4c-0.7,0-1.4,0.5-1.9,1.4c-0.7,1.2-1.2,1.4-4.2,1.9c-1.9,0.3-4,0.5-4.6,0.5c-0.9,0-1.2,0.3-1.6,1.7
		c-0.3,1-0.5,2.8-0.5,4.1c0,2.3,0.1,2.5,4.2,7.2c3,3.5,4.6,4.9,5.5,5c2.6,0.3,4.9,2.7,7.6,7.5c1.1,2.1,2,3.1,2.6,3.2
		c3,0.4,8.1-2.6,8.1-4.8c0-0.6,0.4-1.8,0.9-2.6c1.7-2.8,0.9-5.1-2.9-8.7l-2-1.9l0.8-2.3C365.6,315.7,365.9,313.4,365.9,311.2z"/>
	<path fill="#CE1126" d="M345.9,293.4c1.7-0.1,3.3-1.5,3.3-2.8c0-0.4,0.5-1.7,1-2.8c0.8-1.6,0.9-2.4,0.6-3.3
		c-0.8-2.2-2.1-1.8-4.8,1.4c-2.8,3.4-3.2,4.5-2.3,6.3C344.2,293.3,344.5,293.5,345.9,293.4z"/>
	<path fill="#CE1126" d="M409.1,256.7c1-0.3,1.2-0.5,1-2.1c-0.1-1.4-0.5-1.9-1.7-2.8c-1.9-1.3-3.2-1.4-3.5-0.2
		C404.1,254.2,406.7,257.3,409.1,256.7z"/>
	<path fill="#CE1126" d="M388.6,294.6c1.8-0.7,3-1.6,3.9-2.8l1.3-1.8l-0.7-4.1c-0.6-3.5-0.6-4.4,0.1-7.2c0.4-1.7,0.7-4.8,0.7-7
		c0-2.1,0.2-4.8,0.5-6c0.2-1.2,0.4-2.1,0.3-2.1c0,0-0.7-0.2-1.4-0.4c-1-0.2-1.4-0.1-1.5,0.5c-0.2,0.5-0.8,2-1.4,3.4
		c-0.7,1.5-1.3,3.9-1.4,5.8c-0.2,2.8-0.6,4-2.6,7.7c-1.3,2.4-3.4,7-4.8,10.3c-1.3,3.2-4.1,8.5-6.1,11.9c-4.7,7.6-5.6,11.7-4.7,19.1
		l0.3,2.2l1.8-1.7c1.4-1.4,1.8-2.1,1.8-3.4c0-1.2,0.5-2.5,1.9-4.3c1.3-1.8,2.4-4.4,3.5-8.1C382.4,299.5,384.6,296.2,388.6,294.6z"/>
	<path fill="#CE1126" d="M430.7,301.4c0,1.6,1.2,3.4,2.9,4.2c1.8,0.9,2.1,0.6,1.4-1.6c-0.6-2-1.6-3.1-3.2-3.5
		C430.8,300.3,430.7,300.3,430.7,301.4z"/>
	<path fill="#CE1126" d="M415.5,329.2c-0.3,0.3-0.7,1.4-0.8,2.3c-0.3,1.4-0.1,1.8,0.7,2.5c2.2,1.5,4.1,0.6,4.1-2.1
		c0-0.6-0.3-1.5-0.6-1.9C418.1,328.9,416.1,328.5,415.5,329.2z"/>
	<path fill="#CE1126" d="M387.7,318.4c0.7-0.3,4.6-0.5,8.6-0.6l7.3-0.1l2.2-2.1c1.5-1.5,2.8-2.3,4-2.5c1.6-0.3,1.8-0.5,1.4-1.4
		c-0.2-0.6-0.4-2.3-0.5-4c-0.1-3.6-0.7-4.4-3-4.1c-1.6,0.3-1.8,0.2-2.3-1.2c-1-2.3-4.4-3.4-6.3-2.1c-0.5,0.3-1.7,0.8-2.6,1.2
		c-1.5,0.5-1.7,0.8-2,2.3c-0.4,2.5-1.6,3.8-5.2,5.6c-1.8,0.9-3.3,1.7-3.4,1.7c-0.1,0.1,0.2,1.1,0.7,2.2c0.8,2.3,0.7,2.8-1.4,4.5
		l-0.9,0.8h1C385.9,318.9,386.9,318.7,387.7,318.4z"/>
	<path fill="#FFFFFF" d="M388.9,236.3c-0.6-1.4-1.3-2.1-3.4-3.1c-1.5-0.7-3.2-2-3.9-2.8c-0.7-0.8-2.9-2.3-5-3.4l-3.8-2.1l-1.8,1.1
		c-1.8,1.1-1.8,1.1-2.3,0.1c-0.3-0.5-0.4-1.5-0.2-2.3c0.3-1.4,0-1.6-1.2-0.9c-1,0.6-0.7,10.2,0.3,11c0.4,0.3,0.7,0.7,0.7,0.9
		c0,0.3-1,2-2.5,4.1l3,1.1l-4.6,1.6c0,0.3,0.2,0.7,0.5,1.3c0.4,0.8,0.8,1.4,0.9,1.4c0.7,0,4.5-4.8,5.4-6.7c0.9-1.9,1.2-2.2,2.5-2.2
		c1.1,0,1.9,0.5,3.1,1.7c2.1,2.2,7.7,6,15.4,10.3l2.7,1.5l-0.4-1.3c-0.2-0.7-0.8-2.2-1.4-3.3c-0.5-1.1-1-2.5-1-3.1s-0.6-1.6-1.2-2.2
		C390.1,238.5,389.3,237.2,388.9,236.3z"/>
	<path fill="#FFFFFF" d="M377.6,218.5l-1.6,0.7l1.7,1.7c0.9,0.9,2.1,2.7,2.6,3.9c0.8,1.9,2.1,3.2,3,3.2c0.1,0,0.3-0.8,0.3-1.9
		c0-1.3-0.2-2-0.9-2.3c-0.5-0.2-1.3-1.6-1.8-3.1c-0.1-0.3-0.2-0.6-0.4-0.9l-2.5-1.4C377.9,218.4,377.8,218.4,377.6,218.5z"/>
	<path fill="#FFFFFF" d="M355.8,205.9c-0.4,1,0.1,1.5,1.6,1.8c0.9,0.2,1.9,1,3,2.5c1.9,2.7,4.3,4.1,6.1,3.7c1.6-0.4,1.6-0.9-0.2-2.2
		c-0.2-0.1-0.4-0.3-0.7-0.5l-9.5-5.5C355.9,205.6,355.9,205.7,355.8,205.9z"/>
	<path fill="#FFFFFF" d="M341.8,199.3c0.4,3.6,1.4,4.9,3.7,4.9c1.6,0,2.3-1.1,2.1-3.5l-6.2-3.6C341.6,197.7,341.7,198.5,341.8,199.3
		z"/>
	<path fill="#FFFFFF" d="M310.1,205.1c-3.2-1.3-4.2-2-4.9-3.4c-1-2.1-5-4.4-7.5-4.4c-1.7,0-4.5-1.1-6.9-2.8c-1.5-1.1-1.4-1.1-2.8,0
		c-1.4,1.2-4.5,1.2-10.1,0.2c-6.2-1.1-6.2-1.1-7,2.5c-0.4,1.6-0.2,1.8,3,2.1c1.1,0.1,1.4,0.4,1.5,1.3c0.1,0.9,1.2,2,4.3,4.2
		c2.2,1.7,4.2,3.4,4.4,4s0.5,2.8,0.8,5.1l0.6,4.1l2.7,2.6c2.2,2.1,2.7,2.8,2.7,4.1c0,2.1,3.6,6.9,5.6,7.6c0.8,0.2,1.6,1,1.8,1.6
		c0.2,0.6,1.1,1.4,1.9,1.7c1.3,0.5,1.5,0.5,2.5-0.4c0.6-0.5,1.8-1.1,2.7-1.4c1.4-0.4,1.7-0.7,2.2-2.3c0.3-1,0.6-2.5,0.6-3.3
		c0-0.9,0.6-2.1,1.4-3c0.7-0.8,1.6-2,1.9-2.6c0.7-1.4,0.2-3.8-0.9-4.9c-1.3-1.2-1.2-6.1,0-8.2C311.8,207.3,311.6,205.7,310.1,205.1z
		"/>
	<path fill="#FFFFFF" d="M320.4,199.7c1.8,1.2,3.1,2.5,3.4,3.3c0.3,0.7,0.7,1.3,0.9,1.3c0.2,0,1.2-0.7,2.1-1.6
		c3.2-2.9,3.4-7.4,0.4-8c-1.1-0.2-1.4-0.6-1.4-1.4c0-1.2-0.5-1.4-1.9-0.7c-0.7,0.4-0.9,0.3-0.9-0.5c0-1.2-2.1-1.3-2.5-0.2
		c-0.1,0.4-0.3,1.1-0.3,1.5c0,0.4-0.6,1.4-1.4,2.1c-0.7,0.7-1.4,1.5-1.4,1.7C317.4,197.5,318.8,198.6,320.4,199.7z"/>
	<path fill="#FFFFFF" d="M327.4,223.1c-1.3,0.8-1.5,1.2-1.5,2.8l3.4,1C330.2,221.9,329.8,221.4,327.4,223.1z"/>
	<path fill="#FFFFFF" d="M324.8,232.9c0.3,1.2,0.6,2.7,0.6,3.4c0,0.8,0.5,1.8,1.1,2.4l1.1,1.1l0.3-4.1c0-0.3,0.1-0.6,0.1-0.9
		l-3.3-4.7C324.3,230.8,324.4,231.4,324.8,232.9z"/>
	<path fill="#FFFFFF" d="M340.3,228.2l1.8-2.4c-0.6,0.1-1.2,0.4-1.5,0.8C339.8,227.4,339.7,227.5,340.3,228.2z"/>
	<path fill="#FFFFFF" d="M266.3,237.4c-1.4-0.1-3.1-0.8-5-2.1c-1.5-1-3-1.8-3.3-1.8c-0.3,0-1,0.5-1.5,1.1l-1,1.1l1.2,1.1
		c0.7,0.6,1.2,1.5,1.2,2.1c0,0.6,0.8,1.9,1.8,3c1.8,2.1,1.8,2.1,2.9,1.3c1.2-0.8,3-1.1,3.4-0.4c0.8,1.4,6.3,0.7,6.3-0.7
		c0-0.4-0.8-1.5-1.9-2.6C268.8,238,268.1,237.6,266.3,237.4z"/>
	<path fill="#FFFFFF" d="M413,238.4c0.2,0.3,0.4,0.6,0.6,1.1c0.2,0.4,0.4,0.9,0.7,1.3l1.4-0.8L413,238.4z"/>
	<path fill="#FFFFFF" d="M265.6,153.4l-2.3-1.3c0.1,0.2,0.2,0.4,0.4,0.5C264.2,153.1,264.9,153.4,265.6,153.4z"/>
	<path fill="#FFFFFF" d="M270.3,157.8c1,0.2,1.7,0.9,2.7,2.7c1.6,2.9,3.8,4.4,5,3.4c0.5-0.4,0.9-1.5,1-2.8l-10.5-6.1
		C268.4,156.4,269.1,157.6,270.3,157.8z"/>
	<path fill="#FFFFFF" d="M410.9,237.3c0,0,0.1,0,0.1,0l-6.9-4C405.7,235.1,408.1,236.5,410.9,237.3z"/>
	<path fill="#FFFFFF" d="M283.5,167.9l-3.5,3.4l0.7,6.2c0.4,3.4,0.8,6.3,1,6.5c0.4,0.4,2.6-1.8,2.6-2.6c0-1,2.1-0.7,3.6,0.6
		c0.9,0.7,1.6,1.9,1.9,3.3c0.4,1.6,0.7,2.1,1.1,1.6c0.9-0.9,2-0.6,4,1.1c2.1,1.8,5.8,2.9,8.1,2.4c0.8-0.1,2.6-0.4,4-0.6
		c2.1-0.2,2.4-0.3,2.4-1.3c0-0.6-0.5-1.5-1.1-2c-1.7-1.4-1.1-2.3,1.9-3c1.4-0.3,3.2-1.1,4-1.7c0.1-0.1,0.3-0.2,0.4-0.3l-28.5-16.5
		C285.5,165.9,284.7,166.8,283.5,167.9z"/>
	<path fill="#FFFFFF" d="M326.6,245.3c-1-1.2-1.8-1.3-2.5-0.5c-0.2,0.3-0.6,1.6-0.8,2.8c-0.3,1.7-0.3,2.1,0.8,3.2l3.3-4.8
		C327,245.8,326.7,245.5,326.6,245.3z"/>
	<path fill="#FFFFFF" d="M324.8,292.5l5.7-3.3c1.3-1,2.7-1.8,4.3-2.5l18.4-10.6c1.6-2.1,4.2-4.2,6.8-5.4c2-0.8,3-1.5,3-2.1
		c0-3.2,1.1-11.2,1.7-12.1c0.4-0.6,0.6-1.2,0.4-1.4c-0.5-0.5-4.6,0.9-6.8,2.3l-2.1,1.4l-0.1-1.2c-0.1-0.8-0.8-1.6-1.9-2.4
		c-1.8-1.3-2.6-1.4-3.7-0.6l-0.2,10.6l-7.9-10.4c-0.1-0.1-0.2-0.2-0.3-0.2c-0.9-0.8-3.1-2.2-5.8-3.7l-9.4,2.9l0.7,0.6l-0.3,6.9
		c-0.2,4.8-0.2,8.1,0.3,10.9l0.6,4.1l-1.5,1.2c-2.2,1.8-2.5,3.2-1.9,7.8c0.4,3.1,0.4,4.5,0,6.6C324.9,292,324.9,292.2,324.8,292.5z"
		/>
	<path fill="#FFFFFF" d="M254.7,262.7c2.3-0.3,2.6-0.4,2.6-1.4s-0.2-1.1-1.7-1.1c-1,0-2.3,0.4-3,0.8
		C250.2,262.4,251,263.1,254.7,262.7z"/>
	<path fill="#FFFFFF" d="M220.6,316.9c0.7,0.5,0.8,0.2,1.1-2c0.3-2.5,0.4-2.6,3.1-4.5c1.8-1.2,4-2.2,5.9-2.7l3.1-0.8l2.1-4
		c3.1-5.9,4-6.7,8-7c3.5-0.3,4.4-0.8,5.8-3.3c0.8-1.5,0.8-1.5-0.7-3.9c-1-1.6-1.4-2.9-1.4-4.1c0-1.2-0.4-2.4-1.2-3.5
		c-1.3-1.9-1.4-3.5-0.6-5.8c0.4-1.1,0.4-2,0-3.5c-0.4-1.6-0.4-2.2,0.2-3.2c0.7-1.2,0.7-1.4-0.6-3.4c-1.4-2.4-3-3-3-1
		c0,0.8-0.2,1.2-0.9,1.2c-1.1,0-1.8,2.7-1,4c0.5,0.9-0.2,3.5-1.2,4.1c-1.1,0.7-0.6,2.6,1.5,5.7c1.8,2.5,2.1,3.3,1.8,4.3l-0.3,1.3
		l-1-1.2c-0.6-0.7-1.4-1.4-1.8-1.5c-0.4-0.1-1-1.1-1.4-2.1c-0.5-1.7-1.2-2.3-1.9-1.7c-0.2,0.3,0.9,4.6,2.1,7.9l0.7,1.9l-2.2,2.3
		c-1.2,1.3-2.6,2.9-3.2,3.7c-0.8,1.1-1.2,1.2-1.7,0.8c-1.2-1-4.2,1.5-5.6,4.4c-0.8,1.8-1.7,2.8-2.8,3.5c-0.3,0.2-0.5,0.3-0.7,0.5
		v8.2h-6.6c-1.6,1.9-4.1,4.4-6.7,6.9c-4.1,3.9-6.7,6.7-7.4,8.1c-0.6,1.2-1.4,2.4-1.8,2.8c-0.4,0.4-0.7,1.1-0.7,1.7
		c0,1.1-0.1,1.1-2.9,1.1c-2.6,0-3.1,0.1-4.1,1.2c-0.6,0.7-1.6,1.4-2.1,1.6c-0.6,0.2-1.4,1.2-1.9,2.1c-0.6,1-1.4,1.9-2.3,2.2
		c-1.4,0.5-11.6,11.2-13.8,14.5c-0.8,1.1-1.3,2.5-1.3,3.5c0,0.9-0.4,2.3-0.9,3.2c-1,1.5-1.2,2.9-0.6,2.9c0.2,0,1.3-0.9,2.4-2.1
		c1.9-1.9,2.3-2.1,4.2-2.1c2.6,0,4.2-1.4,5.3-4.4c0.6-1.7,1.1-2.1,6.3-5c6.9-3.8,8.2-4.8,10.4-8.5c2.2-3.6,2.8-4,5.9-4
		c2.4,0,2.6-0.1,5.2-2.7c1.5-1.5,3.2-3.1,3.8-3.4c0.7-0.4,1.9-2.2,2.8-4c1-1.9,2.2-3.5,3-4c1.3-0.7,1.4-0.9,1.2-3.7
		C219.9,316.7,220,316.4,220.6,316.9z"/>
	<path fill="#FFFFFF" d="M259,255.2l1.5-0.9c1.9-1.1,2.2-1.7,2.6-4.4c0.3-2.1,0.3-2.1-1-2.4c-0.8-0.1-2.3-1-3.4-1.9
		c-1.8-1.5-3.6-2.2-3.2-1.4c0.9,2.1,3.3,6.2,3.6,6.4c0.2,0.1,0.3,1.2,0.1,2.4L259,255.2z"/>
	<path fill="#FFFFFF" d="M163.9,378.3c1.4,0.3,1.2,0.5,1.9-1.8c0.9-3.1-0.3-4.7-2.9-3.6C160.6,373.9,161.4,377.7,163.9,378.3z"/>
	<path fill="#FFFFFF" d="M172.9,365.6c-0.4,0.7-0.4,1.1,0,1.5c0.6,0.6,1.4-0.3,1.4-1.4C174.3,364.6,173.4,364.5,172.9,365.6z"/>
	<path fill="#FCD116" d="M340.7,228.7c0.6,0.7,1.3,1.2,1.6,1.2s1.3,0.5,2.2,1.2c2,1.4,2.9,1.4,3.5,0.4c0.6-1,0.2-2.6-1-4.1
		c-1.1-1.3-3.4-1.9-5-1.6l-1.8,2.4C340.4,228.3,340.5,228.5,340.7,228.7z"/>
	<path fill="#FCD116" d="M325.8,226c0,1.1-0.4,2.7-0.8,3.4c-0.1,0.2-0.2,0.4-0.3,0.6l3.3,4.7c0.2-2.2,0.6-5,1-6.7
		c0.1-0.4,0.2-0.7,0.2-1.1l-3.4-1C325.8,225.9,325.8,226,325.8,226z"/>
	<path fill="#FCD116" d="M368.8,240l-3-1.1c-0.3,0.4-0.6,0.9-0.9,1.4c-0.4,0.6-0.6,0.9-0.6,1.3L368.8,240z"/>
	<path fill="#FCD116" d="M330.5,247.7c-1.1-0.5-2.3-1.2-3-1.7l-3.3,4.8c0.3,0.3,0.7,0.7,1.3,1.2l1.7,1.6l9.4-2.9
		C334.6,249.7,332.4,248.6,330.5,247.7z"/>
	<path fill="#FCD116" d="M350.7,254.7c-0.1,0.1-0.2,0.2-0.3,0.2c-0.7,0.6-1.7,0.8-3.8,0.8c-2.3,0-3.1-0.2-4-1l7.9,10.4L350.7,254.7z
		"/>
	<path fill="#FCD116" d="M222.8,303.1c-0.6,0.4-0.8,0.8-0.7,1.1c0.1,0.4,0.4,0.9,0.5,1.2c0.1,0.3,0,0.9-0.2,1.3
		c-0.3,0.6-0.6,0.6-1,0.1c-1-1-1.6-0.6-3.6,2.4c-0.3,0.5-0.9,1.2-1.6,2h6.6V303.1z"/>
</g>
</svg>
