<?xml version="1.0" encoding="utf-8"?>
<!-- Generator: Adobe Illustrator 17.1.0, SVG Export Plug-In . SVG Version: 6.00 Build 0)  -->
<!DOCTYPE svg PUBLIC "-//W3C//DTD SVG 1.1//EN" "http://www.w3.org/Graphics/SVG/1.1/DTD/svg11.dtd">
<svg version="1.1" id="flag-icon-css-pk" xmlns="http://www.w3.org/2000/svg" xmlns:xlink="http://www.w3.org/1999/xlink" x="0px"
	 y="0px" viewBox="0 0 640 480" enable-background="new 0 0 640 480" xml:space="preserve">
<g>
	<path fill="#0C590B" d="M567.8,69.4c-0.4-0.5-1-1.5-1.2-2.2c-0.1-0.7-1.8-3.3-3.7-5.8c-2.5-3.4-3.5-5.2-3.7-6.7
		c-0.2-1.6-0.9-2.6-2.7-4.4c-1.3-1.3-2.7-3.2-3.2-4.1c-0.7-1.7-0.8-1.8-2.6-1.4c-1,0.2-2.5,0.6-3.3,1c-0.8,0.4-2.4,0.6-3.9,0.5
		c-2.5-0.1-2.6-0.2-3-2c-0.4-1.9-3.5-4.8-4.9-4.8c-1.6,0-1.8-2.9-0.3-4.2c0.9-0.8,0.9-1.2,0.7-4.1c-0.6-6.2-1.7-9.9-3.2-11.6
		c-0.8-0.9-1.7-2.4-2-3.4c-0.5-1.6-0.6-1.7-4.5-2.2l-4-0.6l-1.8,1.5l-1.8,1.5l-0.5-3.3c-0.5-2.8-0.8-3.5-2.3-4.9
		c-1-0.9-2.3-1.6-3-1.6c-0.6,0-1.4-0.3-1.8-0.7c-0.8-0.9-4.4-1-5.7,0c-0.5,0.4-1.8,0.8-2.7,1c-1.6,0.3-1.8,0.2-2.7-1.4
		c-1-1.8-1.5-2.1-2.7-1.3c-0.5,0.3-1.2,0.1-2.3-0.8c-0.8-0.6-1.6-1.2-1.7-1.2s-0.9,0.9-1.8,2c-1.3,1.6-1.9,1.9-2.8,1.7
		c-0.8-0.2-2.2,0.2-4.1,1.2c-1.6,0.8-3.6,1.5-4.4,1.5c-1,0-1.7,0.3-2.3,1.2c-1.2,1.8-2.7,1.9-7.9,0.2c-4.7-1.5-5.1-1.5-10.1-1.2
		c-2.9,0.2-7.4,0.4-10.1,0.5c-2.7,0-5.9,0.3-7.1,0.6c-1.2,0.2-4.8,0.6-7.9,0.8c-3.1,0.2-6.1,0.6-6.7,1c-0.5,0.3-2.7,1.1-4.8,1.7
		c-2.1,0.6-4.2,1.4-4.7,1.8c-4,3.4-5,4.2-5.6,4.2c-0.4,0-1.9,0.8-3.3,1.7c-1.4,0.9-2.8,1.7-3,1.7c-0.2,0-0.8,0.4-1.3,0.9
		c-0.8,0.9-0.8,1,0,1.4c0.4,0.2,0.7,0.7,0.5,1c-0.4,0.7-2.4,0-3.4-1.2c-1.1-1.3-2.2-1.5-2.7-0.3c-0.9,2-2.3,3.9-3.8,5.1
		c-0.9,0.7-1.9,1.7-2.2,2.3c-0.3,0.6-0.8,1.1-1,1.1c-0.6,0-5.4,3.9-6.2,5c-0.5,0.8-0.4,1.1,1,2.4c0.9,0.8,2.1,1.5,2.8,1.5
		c0.8,0,1.1,0.3,1.1,1c0,0.6,0.5,1.4,1.1,1.9c0.6,0.5,1.6,1.7,2.1,2.8c0.5,1,1.3,2.1,1.7,2.5c0.6,0.5,0.6,0.8,0,2.4
		c-0.3,1-0.5,1.9-0.4,1.9c0,0.1,0.8,0.5,1.7,0.9c1.4,0.7,1.6,1.1,1.8,3.4c0.2,2,0,3-0.7,4.1c-1.3,2.2-1.2,3.2,0.6,4.7l1.6,1.3
		l-2,2.2c-1.7,1.9-2.1,2.6-2.1,4.3c0,1.9-0.1,2.1-1.9,2.9c-3.1,1.4-5.5,3.5-6.5,5.8c-0.6,1.4-1.2,2.2-1.8,2.2
		c-1.6,0-3.1,1.4-3.2,3.1c-0.1,1.3-0.4,1.6-1.4,1.7s-1.4,0.5-1.6,1.7c-0.3,1.7,1.2,4.5,3.5,6.4c1.2,0.9,1.2,1,0.3,2.2
		c-0.6,0.9-0.7,1.8-0.5,3.2c0.2,1.5,0.1,2.2-0.8,3.6c-1.8,2.9-8.5,5.4-13.8,5.2c-1.2,0-2.9,0.2-3.7,0.7c-1.3,0.7-1.6,0.6-2.9,0
		c-0.8-0.4-3.1-0.9-5-1.1c-1.9-0.2-4.4-0.8-5.6-1.4c-1.8-0.9-2.3-0.9-3.8-0.4c-2.1,0.7-3,2.9-2.1,5.4c0.6,2,4.2,5.4,6.2,6.1
		c0.9,0.3,1.5,0.8,1.6,1.5c0.1,0.6,0.4,1.1,0.6,1.1c0.3,0,0.4,0.9,0.4,2c-0.1,1.6,0.1,2.2,1.4,3.5c2.5,2.6,3,6.3,0.9,6.3
		c-0.3,0-1.4,0.6-2.5,1.5c-1,0.8-2.2,1.5-2.5,1.5c-0.3,0-1,0.6-1.7,1.3c-1.9,2-2.8,2.3-8.3,2.5c-4.6,0.1-5.4,0.3-7.1,1.5
		c-1.8,1.2-1.9,1.4-1.7,3.3c0.1,1.1,0.4,2.6,0.6,3.1c0.2,0.8,0.1,1.1-0.8,1.4c-0.6,0.1-1.5,0.8-2,1.5c-0.8,1.1-0.8,1.3,0,2.5
		c0.7,1,0.7,1.7,0.4,3.6c-0.4,2.1-0.6,2.4-2.2,2.9c-1.1,0.3-2.1,1.2-2.9,2.4c-1,1.6-1.1,2-0.5,3.2c0.3,0.7,0.8,4,1,7.4
		s0.5,6.9,0.7,7.9c0.3,1.6,0.2,1.8-2.1,3.6c-1.7,1.3-2.7,2.5-3.3,4c-0.7,2-1.1,2.3-4.2,3.7c-1.9,0.8-4,1.5-4.6,1.5
		c-1.7,0-3.6-1.7-3.9-3.7c-0.3-1.4-0.5-1.7-1.5-1.7c-0.6,0-1.7-0.4-2.5-1l-1.3-1l-1.6,1.2c-1.5,1.1-1.9,1.1-4.7,0.9
		c-2.2-0.2-3.4-0.6-4.1-1.4l-1-1l-3.6,3.7c-3.2,3.3-3.8,3.7-4.9,3.4c-1.1-0.3-1.7,0-3.8,2.1c-2.5,2.5-2.6,2.5-4.4,2
		c-1-0.3-2-0.4-2.1-0.3c-0.1,0.1,0.1,1.3,0.4,2.7l0.6,2.5l1.6-0.7c2.2-0.9,4.1-0.4,4.1,1.1c0,0.8-0.3,1.2-0.9,1.2
		c-0.5,0-1.4,0.4-2.1,0.9c-2.5,1.9-7.5,3.1-12.9,3c-1.9,0-3.3-0.1-4.4-0.1c0,28.8,11.7,57.5,34.7,78.3c41,37,103.6,36,143.5-2.2
		c0-0.1,0-0.1,0.1-0.2h0.1c-0.1,0.1-0.1,0.1-0.2,0.2c-0.9,2-1.9,3.9-2.9,5.8c0.1-0.1,0.3-0.1,0.4-0.2c4.5-2.3,4.8-2.5,5.3-4.4
		c0.3-1.1,1.3-2.8,2.2-3.7c0.9-0.9,3-4.3,4.6-7.4c2.7-5.1,3.2-6.5,4.4-12.7c0.8-3.8,1.5-7,1.6-7.1c0.1-0.1,2.9-1.1,6.2-2.2
		c5.7-2,6.2-2.3,9-5.2c2.9-2.9,3-3.2,2.5-4.4c-0.2-0.7-1-2.1-1.7-2.9l-1.2-1.6l2.6-2.3c1.4-1.3,3.1-2.4,3.7-2.6
		c0.6-0.2,1.1-0.8,1.1-1.4c0-0.7,0.9-1.7,2.4-3c1.4-1,3-2.8,3.6-4.2c1.1-2.2,3.2-4.5,7.3-8.3c1.3-1.2,1.8-1.4,2.6-1
		c1.4,0.8,2.6-0.6,1.9-2.2c-0.4-0.9-0.8-1.1-2.1-0.9c-2.3,0.3-2.5-1.3-0.5-7c0.9-2.8,1.5-5.3,1.3-6.1c-0.1-0.7-1-3.2-2-5.5l-1.8-4.2
		l3.3-3.1c1.9-1.7,3.7-3.1,4.2-3.1s1.8-1,3-2.3c2-2.1,2.2-2.2,3.4-1.7c1.1,0.5,1.7,0.5,3.4-0.2c1.1-0.4,2.5-0.8,3.2-0.8
		s1.3-0.3,1.4-0.7c0.2-0.4,1.2-1.1,2.3-1.7c2.9-1.5,3.2-3.3,0.8-6.8c-1.6-2.3-2.1-2.7-3.5-2.7c-1.3,0-1.8-0.3-2.5-1.5
		c-0.9-1.6-3.3-2.1-3.8-0.7c-0.2,0.7-0.4,0.7-1.4,0c-0.7-0.5-2.2-0.8-4.3-0.8h-3.3l-0.8-2.4c-0.5-1.7-0.6-2.6-0.2-3
		c0.3-0.3,0.3-0.9-0.1-1.7c-0.5-1-0.5-1.4,0.1-2.3c0.4-0.6,0.8-1.4,0.8-1.8c0-1.1-1.5-0.7-2.1,0.6c-0.4,0.9-0.9,1.2-2.2,1.2
		c-1.4,0-1.8-0.3-3.1-2.7c-1.2-2.1-1.8-2.7-3.1-3l-1.5-0.3l1-1.1l1.1-1.2l-1-0.9c-0.6-0.5-2-1.1-3.1-1.4c-1.6-0.4-2.2-0.9-3-2.2
		c-0.5-0.9-1.6-2.1-2.4-2.5c-2.1-1-2.1-1.6,0.1-2.9c4.6-2.7,4.5-8.7-0.3-10.7c-1.3-0.5-1.6-1-1.9-2.9c-0.4-2.9,0.9-5.1,4.6-7.5
		c2.9-1.9,3.3-3.1,1.5-5.3c-1-1.3-1.2-1.3-4.4-1c-2.1,0.2-3.7,0.1-4.3-0.2l-1.1-0.5l1.6-3.2l1.5-3.1l-1.6-2.3
		c-1.4-2.1-1.6-2.2-3.3-2c-1.6,0.2-1.7,0.2-1.7-1c0-0.9,0.5-1.6,2-2.6c1.7-1.1,2-1.6,2-3c0-1.2,0.5-2.4,1.5-3.7
		c1.4-1.8,1.7-1.9,3.6-1.8c1.7,0.1,2.5-0.2,5.1-2c2.8-1.9,3.4-2.1,6.1-2.1s3.3,0.2,6.1,2.1c2.8,1.9,3.5,2.2,7.2,2.6
		c2.3,0.2,5.7,0.4,7.4,0.5c2.8,0,3.5,0.2,5.2,1.7c2.2,1.8,6,2.5,12.4,2.6c3.9,0,7.2-1.2,9.4-3.6c1-1.1,1.6-1.3,4.1-1.3
		c2.2,0,3.5-0.3,5.2-1.2c1.3-0.7,2.7-1.2,3.1-1.2s1.4-0.4,2.1-1l1.2-1l1.8,1c1,0.6,2.4,0.9,3.4,0.8c1.4-0.1,1.7-0.4,2.8-3.3
		c0.9-2.4,1.4-3.1,2.2-3.1c0.6,0,1.5-0.3,2.1-0.8c0.7-0.5,1.5-0.6,2.9-0.4c1.7,0.3,1.8,0.2,1.8-1c0-0.7,0.2-1.2,0.4-1
		c0.2,0.1,1.1,0,2-0.2c1.3-0.4,1.5-0.7,1.2-1.6C570,72.8,568.8,70.5,567.8,69.4z M427.5,211.3l-29.3-6.2l-15.4,25.6l-3.2-29.6
		l-29.1-6.8l27.2-12.2l-2.5-29.7l20.1,22.1l27.5-11.6l-14.9,25.9L427.5,211.3L427.5,211.3z"/>
	<path fill="#0C590B" d="M407.8,328.1l0.4-1.4c-1,0.9-2.1,1.7-3.1,2.5L407.8,328.1z"/>
	<path fill="#0C590B" d="M287.8,342.8c-0.2-0.1-0.4-0.2-0.6-0.3c-34-15.8-56.7-46.1-63.9-80.2c-2.5,0.8-5.5,1.7-9.3,2.9
		c-15.1,4.7-19.6,5.9-20.3,5.5c-1.2-0.7-14.6-0.6-17.8,0c-1.4,0.3-3.6,1.1-4.9,1.7c-1.3,0.6-2.6,1.2-2.9,1.2c-0.3,0-0.7,0.8-0.9,1.7
		c-0.3,1.9-0.5,2-1.9,1c-0.5-0.3-4-1.4-7.6-2.2l-6.7-1.6l-10.7,1.2v81.8c1,1,1,1.2,0.3,1.9c-0.1,0.1-0.2,0.3-0.3,0.4v7.6
		c0.1,0.2,0.1,0.3,0,0.4v59c0.8,0.1,1.5,0.1,2.1,0.2c1.2,0,2.7,0.4,3.4,0.7c0.6,0.3,1.5,0.5,1.9,0.3c0.6-0.2,0.5-0.5-0.3-1.9
		c-0.5-0.9-1-1.8-1-2c0-1.5,9.6-3.1,11.1-1.8c0.5,0.4,2.6,0.8,5.1,1c5.5,0.4,10.4,1.3,11.4,2.1c0.4,0.4,1.5,0.8,2.4,1
		c1.2,0.2,1.6,0.1,1.6-0.4c0-0.4,0.4-0.8,0.9-0.8c1.3,0,3.1,1.4,3.1,2.5c0,1.2,0.7,1.6,2.3,1.2c1.1-0.3,1.2-0.3,0.4-1.2
		c-1-1.1-1-1.7,0-2.8c0.7-0.7,1.9-0.8,7.7-0.7c6.9,0.1,6.9,0.1,8.1-1.2c1.6-1.7,5.1-2,11.2-0.8c2.6,0.5,3.1,0.5,5.9-0.7
		c2.8-1.2,5.1-1.6,15.1-2.8c3.6-0.4,3.7-0.4,5.5,1c1.4,1.1,1.9,1.3,2.1,0.7c0.2-0.4,0.1-0.8-0.2-1c-0.2-0.1-0.3-0.7-0.2-1.2
		c0.2-0.7,0-0.9-0.8-0.9c-0.6,0-1.7-0.4-2.4-1c-1.6-1.2-2.7-1.2-3.5,0c-0.6,0.9-4.7,2.1-4.2,1.2c1.2-2.8,1.7-3.2,3.5-3.7
		c3-0.8,5.5-0.2,7.5,1.8c0.9,0.9,1.7,1.9,1.7,2.1c0,0.2,0.4,0.8,0.9,1.3c0.8,0.7,0.9,1.1,0.5,2.2c-0.4,1.1-0.2,1.5,2.1,3.8
		c2.8,2.8,2.7,2.6,1.5,8.1c-0.2,1.2-0.5,3.2-0.5,4.3c0,1.1-0.2,2.2-0.5,2.4c-1.3,0.8-0.2,1.1,3.3,1c2.4,0,4,0.1,4.6,0.5
		c0.6,0.4,1,0.4,1.1,0.1c0.1-0.3,0.7,0,1.5,0.5c0.8,0.7,1.7,0.9,2.3,0.7c1.7-0.5,2.9,0.2,3.3,2.1c0.2,1.3,0.1,1.9-0.5,2.2
		c-1.2,0.6-0.9,1.4,0.4,1.4c1.3,0,1.6,0.9,0.6,1.9c-0.4,0.4-0.4,0.6,0,0.6c0.4,0,0.5,0.3,0.3,0.8c-0.3,0.8,0.7,3.2,1.9,4.1
		c0.6,0.5,0.7,1.2,0.4,2.9c-0.3,2.7,1,7.3,3.1,10.3c0.7,1,1.4,2.5,1.5,3.2c0.3,1.6,0.8,2.1,3.3,2.9c1.2,0.4,2.1,1,2.3,1.8
		c0.6,1.6,1.7,2,3.2,1c0.9-0.6,1.5-0.7,2.2-0.3c1.4,0.7,1.4,0.6,1.6-1l0.1-1.6l2.1,1.8c3.3,2.7,3.8,2.4,3.5-1.9
		c-0.1-1.8,0.5-1.2,1.4,1.4c0.5,1.6,0.5,2-0.1,3.1c-0.8,1.1-0.8,1.2,0.4,1.7c0.7,0.3,1.5,0.5,1.8,0.5c0.8,0,2.4-3.2,2.4-4.7
		c0-1.5,1.2-3.2,2.3-3.2c0.3,0,0.6-0.5,0.8-1c0.2-0.9,0.5-1,2-0.7c2,0.3,11.2,0.5,11.5,0.1c0.1-0.1,0.3-2.7,0.5-5.7
		c0.3-5.3,0.8-6.9,1.7-5.4c0.2,0.4,0.7,1.1,1.1,1.7c0.7,1,0.7,0.9,1.2-0.4c0.6-1.5,0.9-1.6,1.8-0.5c0.5,0.6,0.9,0.7,2,0.3
		c0.8-0.3,4.6-0.5,8.5-0.6c3.9,0,7.4-0.3,7.9-0.5c0.6-0.3,1.3,0.1,3.1,1.7l2.3,2.2h4.6c2.5,0,4.9-0.2,5.2-0.4
		c0.3-0.2,1.1-1.1,1.8-2.1c1.1-1.5,2-1.9,7.7-3.8c3.6-1.1,6.7-2.1,6.8-2.1s0.2,1.1,0.3,2.5c0,1.4,0.3,2.8,0.6,3.1
		c0.3,0.3,2.4,0.7,4.8,0.8c4.1,0.1,4.2,0.1,3.9-0.9c-0.2-0.8,0.1-1.3,1.5-2.2c1-0.7,2.5-1.3,3.4-1.5c2.7-0.5,3.5-2.7,0.9-2.7
		c-1.6,0-2.4-2-2-4.8c0.2-1.4,0.6-2.3,1.3-2.7c1.3-0.7,0.9-2.1-2.1-7.3c-1.3-2.3-2.7-5.6-3.1-7.2c-0.4-1.9-1.3-3.9-2.5-5.5
		c-1-1.3-1.8-2.9-1.8-3.4s-0.5-1.5-1.2-2.1c-1.2-1.1-1.2-1.4-1.2-6.8c0-5.5,0-5.6-1.2-5.9c-0.6-0.1-1.6,0-2.2,0.2
		c-0.6,0.3-2.7,0.5-4.8,0.5c-3.5,0-3.7-0.1-4.1-1.1c-0.2-0.6-1.3-2.4-2.4-3.9c-2.5-3.5-3.5-7.7-2.7-9.9c2.4-5.7,2.6-6.9,2.3-11
		c-0.3-4.7-0.5-5.3-2-6.3c-0.9-0.5-1.8-0.6-4.3-0.3c-3.1,0.4-3.3,0.3-8.2-1.8c-2.8-1.2-5.3-2.6-5.8-3c-0.5-0.5-0.7-2.1-0.8-4.5
		c0-3.4,0.1-4,1.7-7.5c1-2.1,2.1-3.8,4.1-6.3C322.2,353.8,304.6,350.5,287.8,342.8z"/>
	<path fill="#FFFFFF" d="M140,365c0.2,0.2,0.4,0.4,0.4,0.6V358C139.6,359.7,139.2,364.3,140,365z"/>
	<path fill="#FFFFFF" d="M139.4,366.6c-0.9,0.2-1.2,0.8-1.7,4c-0.3,2.1-0.7,3.9-0.9,4.2c-0.4,0.7-2.8,0.5-5.2-0.3
		c-2.6-0.9-6.3-0.6-8.5,0.7c-0.9,0.5-3.2,1.2-5.1,1.5c-1.9,0.3-3.9,0.9-4.4,1.3c-0.5,0.4-1.4,0.7-2,0.7c-0.6,0-1.2,0.3-1.3,0.7
		c-0.1,0.4-0.4,1.1-0.5,1.6c-0.2,0.5-0.3,1.5-0.2,2.3c0.1,1.5,0.3,1.5-3.3,0.5c-0.8-0.2-1.1,0-1.4,1.2c-0.2,1.1-0.6,1.5-1.6,1.7
		c-0.7,0.1-2.7,0.7-4.3,1.3l-3.1,1.1l-0.8,4.5c-0.4,2.5-0.9,5.7-1.1,7.2c-0.3,3-0.8,3.9-2.2,3.9c-0.7,0-0.9,0.3-0.9,1.4
		c0,0.7,0.2,1.6,0.6,2c0.4,0.4,0.4,0.7,0,1.2c-0.3,0.3-0.8,3.4-1.1,6.7c-0.4,5-0.8,6.4-1.8,8l-1.2,1.9l1.3,0.2
		c0.7,0.1,2.2,0.4,3.2,0.6c2.1,0.3,2.2,0.7,1.1,2.4s-0.6,2.7,1.5,2.7c1.2,0,1.8-0.2,2-0.9c0.3-0.9,2.4-1.5,5.8-1.5
		c1.9,0,2.2-0.4,1.2-1.4c-1-1,0.3-1.7,3.6-2l3-0.2l-0.2,2.1c-0.1,1.9-0.1,2,1.2,2c1.4,0,2.2-0.7,1.4-1.2c-1-0.6-0.4-1.3,1.5-2.1
		c1.1-0.4,1.8-0.9,1.7-1.1c-0.7-1.1,8.5-1.3,13.6-0.3c2.7,0.5,3.5,0.5,4.9-0.1c1.1-0.4,2.5-0.6,3.9-0.4c0.7,0.1,1.5,0.2,2.4,0.3v-59
		C140.3,366.2,140,366.4,139.4,366.6z"/>
	<path fill="#FFFFFF" d="M132.9,274.7l-18.2,2l-24.1-8.2c-13.3-4.5-24.2-8.2-24.3-8.2c-0.8,0,6.3,9,10.4,13.2
		c4.7,4.8,4.9,5.2,4.8,6.9c0,1.3,0.1,2.1,0.7,2.6c0.4,0.3,0.6,1,0.5,1.5c-0.2,0.6,0.1,1.1,1.2,1.6c1.1,0.6,1.5,1.2,1.8,2.8
		c0.4,2.6,7.5,13.2,10.3,15.4c2.8,2.2,7.5,4.2,12.3,5.2c3.9,0.8,4.1,0.9,7.4,4.2l3.5,3.4l3-0.5c1.6-0.3,3.1-0.5,3.2-0.4
		c0.1,0.1,0,2.1-0.3,4.3c-0.4,3.3-0.3,4.3,0.2,5.2c0.4,0.6,1,4.1,1.4,9.4c0.6,7.2,0.6,8.8,0,11.4c-0.4,1.7-0.6,3.4-0.4,3.7
		c0.1,0.3-0.1,1-0.4,1.6c-1.1,1.4-0.9,2.6,0.4,2.6c0.6,0,1.8,0.2,2.7,0.5c1.1,0.4,2,0.3,3.8-0.2c3.5-1.2,6.1-1,7.7,0.5
		c0.1,0.1,0.2,0.2,0.3,0.3v-81.8L132.9,274.7z"/>
	<polygon fill="#FFFFFF" points="422.8,162.9 395.3,174.6 375.3,152.4 377.8,182.2 350.6,194.3 379.7,201.1 382.8,230.7 
		398.2,205.1 427.5,211.3 427.6,211.3 407.9,188.8 	"/>
	<path fill="#FFFFFF" d="M438.4,286.9c0,0.1,0,0.1-0.1,0.2C438.4,287,438.5,286.9,438.4,286.9L438.4,286.9z"/>
	<path fill="#FFFFFF" d="M294.9,289.2c-23-20.8-34.7-49.5-34.7-78.3c-3.1-0.2-3.4-0.5-3.1-1.6c0.3-1.2,0.3-1.2-2.3-0.9
		c-2,0.2-3,0.7-4.3,1.9c-0.9,0.9-2.1,1.7-2.6,1.9c-0.5,0.2-1.3,1.3-1.8,2.6c-1.8,4-2.7,5-5.7,5.7c-3.2,0.7-3,0.3-5.2,9.1l-1.6,6.2
		l1.1,1.2c1,1.1,1.1,1.5,0.8,4.3c-0.2,1.7-0.9,4.6-1.5,6.5c-1.6,4.5-1.5,5.2,0.6,7l1.9,1.6l-1.5,1.4c-1,1-3,1.9-11.6,4.6
		c7.2,34.1,29.9,64.4,63.9,80.2c0.2,0.1,0.4,0.2,0.6,0.3c16.8,7.7,34.4,10.9,51.7,10.3c1.7-2,3.9-4.4,7.4-7.9
		c2.9-3.1,3.9-4.5,5.3-7.8c0.9-2.3,1.7-4.4,1.7-4.8s0.7-1.1,1.7-1.7c0.9-0.5,2.1-1.8,2.7-2.7c1.2-1.9,3.2-2.7,6.4-2.3
		c1.7,0.1,2.4,0.5,3.5,1.9c0.8,1,1.7,2.7,2,3.8c0.7,2.7,2.5,4.7,4.5,5.2c1.3,0.3,2.2,0.1,4.1-0.8c7.6-3.7,9.6-4.4,15.8-4.7
		c4.8-0.2,6.6-0.6,9.5-1.7l0.9-0.4c1-0.8,2.1-1.7,3.1-2.5l0.5-2.2c0.9-3.5,1.1-3.8,5-7.6l4-3.9l1.7-5.6c1.5-4.8,1.9-5.8,3.6-7.2
		c1-0.9,2.2-1.7,2.7-1.7c0.4,0,1.8-0.7,3.1-1.7c1.2-0.9,4.1-2.6,6.7-3.8c1-1.9,2-3.8,2.9-5.8C398.5,325.3,335.9,326.3,294.9,289.2z"
		/>
</g>
</svg>
