<?xml version="1.0" encoding="utf-8"?>
<!-- Generator: Adobe Illustrator 17.1.0, SVG Export Plug-In . SVG Version: 6.00 Build 0)  -->
<!DOCTYPE svg PUBLIC "-//W3C//DTD SVG 1.1//EN" "http://www.w3.org/Graphics/SVG/1.1/DTD/svg11.dtd">
<svg version="1.1" id="flag-icon-css-pm" xmlns="http://www.w3.org/2000/svg" xmlns:xlink="http://www.w3.org/1999/xlink" x="0px"
	 y="0px" viewBox="0 0 640 480" enable-background="new 0 0 640 480" xml:space="preserve">
<g>
	<path fill="#FFFFFF" d="M215.1,384.5c1.6-1.1,1.8-1.1,6.5-0.7c4.3,0.3,5.1,0.6,6.8,1.8c1.1,0.7,2.2,1.4,2.5,1.4
		c1.6,0,2.7,7.2,1.3,9.3c-0.5,0.7-0.5,1.3,0,2.5c0.5,1.3,0.5,2-0.1,3.6c-0.3,1.1-1,3.6-1.4,5.5c-0.4,1.9-1.1,4.2-1.4,5.1
		c-0.9,2.1-0.8,2.4,0.8,4.8c1.1,1.6,1.4,2.7,1.4,4.3c0,1.2,0.1,2.6,0.4,3.2c0.3,0.9,0.4,0.9,1-0.4c0.9-2,2.8-5,3.6-5.7
		c1-0.8,3.2-0.7,3.5,0.1c0.1,0.4,0.6,0.7,1,0.7c0.4,0,0.6,0.2,0.5,0.5c-0.3,0.6,0.7,3.3,1.3,3.3c0.2,0,0.9-0.3,1.5-0.7
		c0.8-0.5,1.3-0.6,1.8-0.3c0.3,0.2,1.5,0.8,2.7,1.2c1.6,0.6,2,0.9,2,1.6c-0.1,0.5-0.4,0.9-0.6,1c-0.4,0.1-1.8,3-1.8,3.6
		c0,0,0.8,0,1.7-0.1c1.5-0.3,1.7-0.2,1.3,0.6c-1.1,2.8-1.4,4.9-0.8,5.3c0.4,0.3,0.5,0.8,0.3,1.7l-0.4,1.3l1.3-1.3
		c0.7-0.7,1.7-1.3,2-1.3c0.7,0,3.6-2.7,6.8-6.3c1.9-2.1,2-2.2,2.7-1.3c0.7,0.9,0.7,0.9,2.4-0.1c1.1-0.7,1.8-1.4,1.8-2
		c0.1-1.8,7.1-11.7,8.2-11.7c0.2,0,2.1-1.3,4.1-2.8c2-1.5,4.4-3.1,5.3-3.4c0.8-0.4,2.2-1.3,3-2c0.8-0.8,1.7-1.4,1.9-1.4
		c0.3,0,1.3-1,5.6-5.4c1-1,2.1-2.4,2.4-3.1c0.4-1,0.8-1.3,1.8-1.2c0.7,0,2.6-0.7,4.3-1.6c1.7-1,3.5-1.7,4-1.7c0.7,0,2.1-1.1,4-2.9
		c1.6-1.6,3.5-3.3,4.2-3.8c0.7-0.5,1.7-1.4,2.1-2.2c0.5-0.7,1.1-1.3,1.5-1.3c0.4,0,1.3-0.7,2.1-1.6s1.8-1.6,2.1-1.6
		c0.8,0,8.2-7,8.2-7.8c0-0.3,1-1.3,2.3-2.2c2-1.4,2.5-2.1,3.3-4.7c0.6-1.6,1.3-3.1,1.5-3.2c0.4-0.1,0.4-0.5,0-1.3
		c-0.6-0.9-0.5-1.2,1-2.6c2.2-2.1,2.5-3.8,0.9-5.4c-1-1.1-1-1.3-0.4-1.3c1,0,1-0.4,0.1-1.7c-0.6-0.9-0.6-1.2,0-2.3
		c1.9-3.8,2.2-7.5,0.7-7.9c-0.5-0.1-0.8-0.4-0.7-0.6c0.1-0.2,0-0.5-0.2-0.7c-0.3-0.2-0.1-0.7,0.5-1.5c1.2-1.6,1.2-2.3-0.2-3.2
		c-0.7-0.4-1.2-1.2-1.2-1.7c0-1.5-1.5-3.6-2.6-3.6c-1.5,0-2.1-1-2-3.3c0-2-0.7-7-1.2-7.8c-0.1-0.3,0-0.5,0.4-0.5
		c0.5,0,0.7-0.4,0.7-1.2c0-1.1-0.1-1.2-1.4-0.9c-0.8,0.1-1.8,0.3-2.3,0.3c-0.5,0-1.2,0.6-1.7,1.4l-0.9,1.3l-3.2-2.2
		c-2.5-1.7-3.3-2.6-3.5-3.6c-0.2-0.9-0.5-1.3-1.2-1.3c-0.5,0-1.3-0.7-2-1.6c-0.6-0.9-1.7-2.3-2.4-3l-1.3-1.4l-1.3,0.9
		c-1.1,0.8-1.5,0.8-3.8,0.5c-2.7-0.5-4.7,0-5.8,1.4c-0.9,1.1-5,2.3-6.2,2c-1.3-0.4-3.6-2.5-3.6-3.3c0-0.3-0.7-1.2-1.6-2
		c-1-0.9-1.6-1.9-1.6-2.6c0-1-0.4-1.3-2.4-2c-1.3-0.4-2.7-1-3-1.2c-0.3-0.3-2-0.5-3.9-0.5l-3.3,0l-0.5-1.6c-0.3-0.9-1.1-2.4-1.7-3.2
		c-2.7-3.6-4.3-8.1-5.5-15.8c-1.2-7.2-1.2-7.5-0.7-16.5c0.6-9.4,1.7-17.9,2.6-19c0.3-0.4,0.7-1.7,0.8-3c0.1-1.3,1.1-5.7,2.1-9.8
		c1.6-6.4,2.2-8,4.1-11.4c1.3-2.1,2.8-4.9,3.3-6.1c0.5-1.3,2-3.2,3.1-4.2c1.7-1.6,2.1-2.2,2-3.3c-0.1-1.3-0.3-1.3-2.3-1.5
		c-1.8-0.1-2.2,0-2.2,0.6c0,0.9-0.9,0.9-2.2,0c-0.7-0.5-1.1-1.3-1.2-2.5c-0.2-2.7-1.7-2.6-4.1,0.5c-1.1,1.3-3,3.5-4.2,4.8
		c-6.9,7.5-6.8,7.4-8.2,5.8c-1.3-1.4-1.7-1.1-1.3,0.9c0.1,1,0.1,1.9-0.1,1.9c-0.7,0-1.4-2.1-1.2-3.2c0.1-0.7-0.2-1.3-1.3-2
		c-1.9-1.4-6.5-9.8-6.5-11.7c0-2-1.4-7.4-2.1-8.2c-1.6-1.9-8.1-17.4-7.5-18c0.1-0.1,0.7,0.1,1.4,0.5c1.4,0.9,11.1,3.5,13.2,3.5
		c0.8,0,1.7,0.2,1.8,0.5c0.1,0.2,1,0.5,1.8,0.5c0.8,0,2.8,0.7,4.5,1.4c2.2,1,4.1,1.5,7.2,1.9c5.2,0.6,6.1,0.4,6.5-1.4
		c0.2-0.7,0.6-1.4,0.9-1.4s0.7-0.3,0.9-0.7c0.1-0.4,0.5-0.6,0.7-0.4c0.4,0.3,4.3-0.2,8.5-1c1.3-0.2,1.3-0.2,0.7,0.9
		c-1.1,1.7-1.4,4.8-0.6,5.6c0.4,0.4,0.9,0.8,1.1,0.9c0.5,0.2,2.7,5.4,3,7.2c0.4,1.9-0.8,3.6-2,3.2c-0.7-0.2-1.8,0.6-4.9,3.7
		c-4.2,4.2-4.2,4.3-1,5.1c1.7,0.4,2.3,0,7.1-4.2c6.3-5.5,9.3-7.4,12-7.4c1.4,0,2.4-0.3,2.7-0.7c0.6-0.9,0.5-1.2-0.1-1.6
		c-0.3-0.2,0.3-1.1,1.5-2.5c2.3-2.4,5-6.6,5-7.9c0-0.4,0.3-1.4,0.7-2.1c0.4-0.7,1.3-3.3,1.9-5.5c0.6-2.2,1.7-5.5,2.3-7.2
		c0.7-1.7,2-6,3-9.6c1-3.6,2.4-7.9,3.2-9.5s1.4-3.3,1.4-3.5c0-0.3,0.3-0.8,0.7-1.1c0.3-0.3,0.7-1.6,0.9-2.9c0.2-1.3,0.7-2.7,1.2-3.2
		c1.2-1.2,1.2-2.6,0-3.7c-0.8-0.8-0.9-1.5-0.9-6c0-3.1-0.2-5.2-0.5-5.4c-0.3-0.2-0.3-0.5-0.1-0.8c0.2-0.3,0.2-2.5,0-5.2
		c-0.4-4.5-0.5-4.7-2.1-6.4c-0.9-1-2.3-2.1-3.1-2.5c-0.7-0.4-1.9-1.2-2.6-1.8c-2.5-2.2-7.4-4.4-12-5.4c-8.5-1.7-23.3-8.2-30.5-13.3
		c-3-2.1-6.9-6-11.2-11.1c-2-2.5-3.3-3.5-5.3-4.5c-1.8-0.8-3.3-2-4.7-3.7c-1.1-1.3-2.9-2.8-4-3.3c-2.2-1-7.4-1.2-7.8-0.3
		c-0.1,0.3-1.2,0.8-2.4,1.2c-1.2,0.3-2.5,1-2.9,1.5c-0.6,0.6-1.4,0.9-2.6,0.9c-1,0-1.8,0.2-1.8,0.5c0,0.2,0.2,0.5,0.5,0.5
		c0.8,0,0.5,1-0.5,1.3c-0.8,0.2-0.9,0.7-0.9,2.5c0,1.7-0.4,3.2-1.6,5.6c-1.9,3.8-4.6,7.6-5.8,8.3c-0.5,0.2-1,1.1-1.2,1.9
		c-0.2,0.7-0.5,1.5-0.7,1.6c-0.6,0.4-0.5,2.4,0,2.8c0.4,0.2,0.3,0.5,0,1c-0.3,0.4-0.4,1.1-0.3,1.6c0.1,0.5,0,1.1-0.4,1.3
		c-0.3,0.2-0.8,1.1-1,2c-0.8,3.3-1.3,1.3-1.6-6.8c-0.2-6.8-0.5-8.8-1.3-11.3c-0.6-1.7-1.2-4.8-1.3-7.2l-0.3-4.1l6.6,0.3
		c6.3,0.3,6.7,0.2,7.6-0.7l1-1l-2.8-2.6c-1.6-1.5-2.8-3-2.8-3.5c0-0.4-1.1-1.8-2.5-3.1c-2.5-2.4-2.5-2.4-3.1-6.4
		c-0.8-5.1-0.8-9.2,0-10c0.7-0.9,6.3-2.7,7.2-2.3c0.5,0.2,1.7-0.5,3.3-1.6c1.4-1.1,3.1-2.1,3.7-2.5c0.8-0.3,1.3-1,1.5-2.1
		c0.1-0.8,0.7-1.8,1.1-2c0.4-0.2,1.5-1.4,2.4-2.8c1.2-1.7,1.9-2.3,2.6-2.2c0.5,0,2.2-0.7,3.7-1.7c1.5-0.9,3.5-2.1,4.3-2.6l1.5-0.9
		l-0.2-4.8c-0.2-4.4-0.9-7.3-1.7-7.3c-0.2,0-0.4,0.3-0.6,0.6c-0.1,0.3-1.3,0.9-2.6,1.2c-1.7,0.4-2.4,0.8-2.4,1.4
		c0,1.3-2.6,3.8-4,3.8c-2,0-4,1.3-4,2.6c0,1-0.2,1.2-1.7,1.2c-1.3,0-1.7,0.2-1.9,0.9c-0.1,0.6-1.1,1.3-2.7,1.9
		c-3,1.1-3.8,1.2-5.8,0.3c-1.3-0.6-1.7-0.6-2.5,0c-0.5,0.3-1.1,0.5-1.3,0.3c-0.3-0.1-0.7,0-1,0.4c-0.3,0.4-1,0.9-1.5,1.3
		c-0.6,0.3-1.1,0.9-1.1,1.4c0,0.6-0.6,1-2.1,1.4c-1.7,0.5-2.1,0.8-2.1,1.7c0,0.6-0.2,1.1-0.5,1.1c-0.2,0-0.5,0.7-0.5,1.5
		s-0.4,2.4-0.9,3.3c-0.6,1-0.9,2.2-0.7,2.7c0.1,0.5,0,0.7-0.3,0.7c-0.1,0-0.2,0.1-0.3,0.2V51c2.1,1.2,4.4,6.4,4.9,12
		c0.1,1.8,0.7,4.2,1.2,5.3c1.4,3.3,2.3,9.6,2.6,18.2l0.3,8.2l-1.7,4.1c-2.4,6-2.7,8.4-2.2,14.4c0.2,2.8,0.9,6.7,1.4,8.6
		c0.8,2.9,0.9,4.7,0.8,11.2c0,6.9,0,8,1,10.8c0.8,2.4,1,3.7,0.7,5.4c-0.3,2.5,0,3.3,2,5.5c0.7,0.8,1.6,2,1.9,2.8
		c0.4,0.9,1,1.5,1.9,1.6c0.7,0.2,1.4,0.7,1.6,1.1c0.1,0.5,0.9,1.5,1.6,2.4c1.2,1.3,1.4,1.5,2.1,1c0.7-0.5,1.1-0.4,2.9,0.9
		c1.9,1.3,2.3,1.4,3.4,1c0.8-0.3,1.4-0.3,1.6,0c0.1,0.2,0,0.4-0.2,0.4c-0.9,0-0.6,1.3,1.4,5.2c3,6,12.4,30.8,14,36.9
		c0.5,2,2.2,7.8,3.7,12.8c2.4,8.1,4.3,17.5,5.4,25.8c0.1,1.3,0.7,5,1.2,8.4c1.1,7.6,1.9,19.1,1.4,21.4c-0.2,1-0.2,3.5,0,5.5
		c0.2,2.1,0.2,4.6-0.1,5.8c-0.8,3.9-1,8.2-0.5,8.6c1,0.6,2.3-1.2,2.4-3.2v-1.9l0.7,1.5c0.5,1,1.1,1.5,1.8,1.5c0.6,0,1.3,0.5,1.8,1.2
		l0.8,1.2l-2-0.1c-1.3,0-2.1,0.1-2.5,0.6c-0.5,0.6-3.1,2-3.3,1.7c0-0.1-0.3-0.7-0.6-1.3c-0.5-1.1-0.5-1.1-1.1,0.9
		c-1.1,3.6-3.7,6.7-5.4,6.3c-0.7-0.1-1.1,0.1-1.5,1c-0.7,1.6-0.7,1.6,0.6,1.6c1,0,1.1,0.1,0.7,0.8c-0.2,0.5-0.6,1.3-0.8,1.8
		c-0.3,0.9-0.3,0.9-0.6-0.1c-0.3-1-0.3-1-1.3-0.3c-0.9,0.7-1,1.1-1.2,8.3l-0.1,7.5l-1.4,2.1c-0.8,1.2-1.6,2.6-1.8,3.3
		s-0.8,2.1-1.4,3.3c-0.9,1.8-1.4,2.3-3,2.8c-1.4,0.5-2.2,1.1-2.8,2.3c-1.3,2.6-1.8,2.8-3.5,2.5c-1.5-0.3-3.7,0.5-5.3,1.9
		c-0.8,0.7-5.5,2.6-6.6,2.6c-1.2,0-5.7,2.1-6.6,3.1c-0.8,0.9-2,3.7-2.4,5.9c-0.2,0.7-0.6,1.3-1,1.3c-0.4,0-1.3,0.8-2,1.9
		c-0.7,1-1.5,1.8-1.8,1.9c-0.3,0-0.7,0.4-0.8,0.8c-0.2,0.5-0.8,1.2-1.4,1.5c-0.4,0.2-0.8,0.7-1.1,1.2v21.9
		C213.8,385.3,214.5,384.9,215.1,384.5z"/>
	<path fill="#FFFFFF" d="M339.7,459.2l0.1,2c0.1,1.8,0.3,2,1.9,2.6c1.5,0.6,2.2,0.6,4,0.1c2-0.5,2.5-0.5,3.7,0.2
		c0.9,0.6,1.4,1.2,1.4,1.9c0,0.6,0.2,1.1,0.5,1.1c0.3,0,0.5-0.7,0.4-1.5c-0.1-2.1,1-4.9,2.1-5.2c2.2-0.6,5.8-0.3,6.8,0.7
		c0.7,0.5,0.8,0.9,0.5,0.9c-1,0-2.9,2.4-2.9,3.5c0,1.4-1.3,2.1-3.8,2c-1.4-0.1-2,0-1.9,0.5c0,0.3-0.3,1.2-0.8,1.8
		c-1.3,1.7-1.2,2.4,0.9,4.2c1.4,1.2,1.9,2,1.9,3c0,1.8,1.3,1.8,1.9,0c0.2-0.7,1.1-1.8,1.8-2.4c1.3-0.9,1.3-1.2,1.1-2.8
		c-0.4-2.5,0-3.8,1.6-5.4c1.1-1.2,1.8-1.5,3.5-1.6c1.8-0.1,2.3,0,2.9,0.9c0.5,0.7,0.9,0.9,1.2,0.6c0.3-0.3,1.2-0.4,2-0.2
		c1.3,0.2,1.6,0.1,1.9-0.9c0.2-0.7,1.3-2.4,2.5-3.8c1.9-2.4,2.2-2.6,4.1-2.6h2v2.1c0,1.4-0.2,2.2-0.7,2.5c-0.7,0.4-0.7,0.7-0.2,2
		c0.3,0.9,0.7,2.4,0.8,3.3c0.2,1.2,0.8,2,1.6,2.6c1.2,0.7,1.3,0.7,2.6-0.2c1.6-1.2,4-2,5.7-2c1.3,0,2.7-1.3,3.6-3.4
		c0.7-1.5,2.3-1.7,4-0.5c1.3,0.9,1.1,1.6-0.6,1.6c-1.2,0-1.2,0-0.4,0.9c1.2,1.3,3.2,1.2,3.7-0.1c0.3-0.7,0.9-1.1,2-1.2
		c0.8-0.1,2.4-0.7,3.3-1.3c1.2-0.8,2.2-1.1,3-1c1.9,0.4,4.3-2.1,4.7-4.8c0.3-2.5,0.8-2.1-4.6-3.2c-1.7-0.3-2.8-0.8-3-1.3
		c-0.3-0.6,0.2-2.5,1.4-5.3c0.2-0.6,0-0.8-0.9-1.1c-3.3-0.8-4.3-2.9-2.8-5.9c0.6-1.2,0.6-1.4,0-1.4c-1.3,0-1.9,1.5-1.9,4.4v2.8
		l-1.5,0.1c-1.7,0.2-1.9-0.2-1-2.7c0.4-1.1,0.4-1.7,0-2c-0.4-0.4-0.7,0.3-1.3,2.3c-0.8,2.8-1.2,3.4-1.8,2.4
		c-0.2-0.3-1.1-0.3-2.1-0.2c-1.3,0.2-1.8,0.1-1.8-0.2c0-0.9,2.6-3.3,3.6-3.3c0.5,0,1.3-0.7,1.9-1.6s1.6-1.7,2.2-1.9
		c1.3-0.3,1.1-1.2-0.3-1.2c-1.2,0-1.1-0.5,0.4-1.7c1.1-0.9,1.2-1.1,0.6-1.5c-0.6-0.4-0.5-0.5,0.3-0.5c1.8,0,1.6-0.8-0.3-1.2
		c-1.1-0.2-1.9-0.6-1.9-1c0-0.7,1.8-2.9,4.4-5.3c7.3-6.6,7.3-6.6,7.5-9.7c0.3-3.6,0-5.2-1.4-5.7c-0.8-0.3-0.8-0.4-0.2-0.4
		c0.9,0,1-1.3,0.4-4.6c-0.4-2.2-2.5-4.7-3.8-4.7c-0.4,0-0.9-0.4-1-0.8c-0.1-0.5-1.1-1.5-2.1-2.3l-1.9-1.4l-1,1.1
		c-1,1.1-1.7,1.3-7.4,2c-2.3,0.3-3.2,0.6-3.8,1.5c-0.8,1.1-1.2,1.2-4.4,1.1c-2.7,0-3.5,0.1-3.5,0.6c0,0.3-1.1,1.1-2.3,1.6
		c-1.6,0.7-2.3,1.3-2.3,1.8c0,0.4-0.1,1.1-0.3,1.6c-0.2,0.5-0.1,1.2,0.1,1.7c0.8,1.3,0.7,1.5-0.5,1.2c-0.9-0.2-1.2,0-1.6,0.8
		c-0.3,0.7-1.1,1.3-2,1.4c-2.4,0.6-3.2,1.2-4.6,4c-1,2-1.8,2.9-3.2,3.6c-1.6,0.8-1.8,1.1-1.6,2.2c0.2,1,0,1.3-0.8,1.7
		c-0.6,0.2-1.5,1.3-2,2.3s-1.7,3.1-2.5,4.6c-0.8,1.5-1.5,3.3-1.5,3.9c0,1.2-2.1,5-4,7.1c-0.6,0.7-2.1,3.3-3.4,6
		c-1.7,3.4-2.7,4.7-3.3,4.7c-0.7,0-0.8,0.3-0.7,1.5l0,1.5l-2.7,0.1L339.7,459.2z"/>
	<path fill="#FFFFFF" d="M401.5,393.6c4.3,0,4.3,0,5-1.3c0.4-0.8,1.2-1.4,1.7-1.5l1.1-0.1l-1.3-1.3c-1.2-1.2-1.4-1.3-3.9-1
		c-1.6,0.2-2.8,0.1-3.2-0.2c-0.5-0.4-1.2,0-3.3,1.9c-2.7,2.4-2.7,2.4-1.6,3C396.8,393.3,398.9,393.5,401.5,393.6z"/>
	<path fill="#FFFFFF" d="M421.7,428c-2.3,0-2.4,0-2.1,1.2c0.3,1.3-0.2,1.5-1.7,0.6c-1.2-0.7-1.9,0.1-1.9,2.3c0,1.1-0.5,1.9-2.1,3.4
		c-1.1,1-2.4,1.9-2.8,1.9c-0.8,0-0.9,0.8-0.2,2.6c0.4,1.1,0.7,1.2,1.7,1c0.8-0.2,1.5-0.1,2.1,0.4c1,0.9,1.8,0.6,1.8-0.8
		c0-0.6,0.4-1.7,0.9-2.6c1.1-1.9,1.2-2.7,0.1-3c-0.9-0.2,3.8-4.4,5.2-4.6c0.6-0.1,1-0.7,1.1-1.3C424,428.1,423.8,428,421.7,428z"/>
	<path fill="#00267F" d="M213.3,363.5c-0.1,0.3-0.3,0.5-0.3,0.8c-0.2,0.7-1,2.1-1.9,3c-0.8,0.9-1.5,1.9-1.3,2
		c0.1,0.2-0.4,0.6-1.2,0.9c-0.8,0.3-1.7,1.1-2.1,1.7c-0.4,0.6-1.1,1.1-1.6,1.1c-1.9,0-0.8,5.7,1.4,7.6c1.3,1.2,1.3,5.4,0,7.9
		c-0.8,1.6-0.8,2-0.2,3c0.7,1.2,0.7,1.2,0.7,0.1c0-2,1.8-4.8,3.5-5.5c0.9-0.4,2-0.7,2.4-0.7c0.2,0,0.4-0.1,0.7-0.2V363.5z"/>
	<path fill="#00267F" d="M212.6,33.1c-0.4,1-1.3,2.5-2.1,3.4c-2.5,2.8-3.1,4.6-2.5,6.7c0.3,1.3,0.4,2.5,0,3.5
		c-0.6,2.1-0.2,3.1,1.5,4.1c1.1,0.6,1.6,0.7,2,0.3c0.5-0.5,1.2-0.6,1.8-0.2V31.7C213.1,31.9,212.8,32.5,212.6,33.1z"/>
	<path fill="#F31830" d="M432.1,427.1c-0.1,0.3-0.2,0.9,0,1.4c0.3,1-1,3.3-1.9,3.3c-0.4,0-0.7,0.2-0.7,0.5c0,0.8,1.4,1.1,2.4,0.6
		c0.5-0.3,1.2-0.6,1.5-0.6c0.9,0,1.3-3.2,0.5-4.6C433.2,426.5,432.6,426.3,432.1,427.1z"/>
	<path fill="#F31830" d="M431,422.8c1.1-1.1,0.7-2-0.6-1.3c-0.5,0.3-0.8,0.9-0.8,1.3C429.5,424,429.8,424,431,422.8z"/>
</g>
</svg>
