<?xml version="1.0" encoding="utf-8"?>
<!-- Generator: Adobe Illustrator 17.1.0, SVG Export Plug-In . SVG Version: 6.00 Build 0)  -->
<!DOCTYPE svg PUBLIC "-//W3C//DTD SVG 1.1//EN" "http://www.w3.org/Graphics/SVG/1.1/DTD/svg11.dtd">
<svg version="1.1" id="flag-icon-css-pn" xmlns="http://www.w3.org/2000/svg" xmlns:xlink="http://www.w3.org/1999/xlink" x="0px"
	 y="0px" viewBox="0 0 640 480" enable-background="new 0 0 640 480" xml:space="preserve">
<g>
	<path fill="#00247D" d="M381.1,332.1c3.9-0.4,7.5,0.6,10.6,2.6c2.2-5.3,5.1-10.3,8.6-14.7H381C384,323,385.1,328.5,381.1,332.1z"/>
	<path fill="#00247D" d="M363,324.7c3.7,2.7,13.2,2.9,15.2-4.7H375l-8.7,6c1.8-1.7,4.8-3.8,8.5-6h-15.2
		C360.4,322.1,361.7,323.8,363,324.7z"/>
	<path fill="#00247D" d="M394.1,349.4C394,349.4,394,349.4,394.1,349.4c-0.3,3.5-0.4,6.9-0.2,10.1c0.3,3.9,1.3,6.7,2.8,8.6
		c-1.5-1.9-2.5-4.7-2.7-8.6C393.7,356.4,393.8,353,394.1,349.4z"/>
	<path fill="#00247D" d="M396.6,380.2c4.7,9.3,4.7,25.5,7.1,30.5c0.3,0.6,0.5,1.2,0.7,1.7c0.6,0.1,1.3,0.4,1.7,1.1l1.4-1.3l-1.6-4.7
		c-1.6-4.7-1.6-6.2-0.1-6.2c0.4,0,3.2,1,6.2,2.2c3.7,1.5,6.4,2.2,8.6,2.2c0.8,0,2.2,0.2,3.7,0.4c-5.3-11.6-8.7-24.2-9.9-37.2
		C414.7,382.8,404,385.5,396.6,380.2z"/>
	<path fill="#00247D" d="M550.2,320c3.2,3.9,5.8,7.6,7.7,11.1c0,0,0,0,0,0C556,327.6,553.5,323.9,550.2,320L550.2,320z"/>
	<path fill="#00247D" d="M400.8,414.9c-0.2-0.2-0.4-0.4-0.7-0.6c-11.8-10.8-17.1-23.4-17.1-37.9c-6,9.1-19.6,7.9-19.6-7.7
		c11.1,5.6,18.6,1.2,24.4-20.1c-3.9-0.3-7.7-0.7-10.1-3.2c0.8,5.5-0.4,12.4-5,15c0.3-10-11-8.5-9-20.4c-4.9-2.3-12-9.9-10.3-20H320
		H173.7l0.2,0.6l-3.4,3.8c-3.1,3.5-3.4,4.2-3.8,7.5c-0.2,2.1-0.4,3.8-0.2,3.9s5.2,2.1,11.2,4.3c8.8,3.3,11.7,4.1,14.5,4.1
		c2.5,0,4.2,0.4,5.6,1.3l2.1,1.3l2.5-2c1.6-1.3,3.3-3.6,4.7-6.3c1.2-2.4,2.3-4.3,2.5-4.3c0.2,0,2,0.4,3.9,0.9
		c1.9,0.5,4.2,1.1,5.1,1.2c1.4,0.3,1.8,0.9,2.7,4.5c1.1,3.9,1.1,4.2,0.1,6.2c-1.4,2.9-1.2,3.7,1.1,7.9c1.9,3.4,2.3,3.8,6.6,5.7
		c4.5,2.1,5,2.1,17.4,2.8c12.6,0.7,12.9,0.7,21.2,3.5c4.6,1.5,8.7,3,9,3.2c0.3,0.2,1.5,2.4,2.5,4.8l2,4.4l7.6,4.7l7.6,4.7l-0.4,5.7
		c-0.4,5.7-0.4,5.8,1.8,10.1c1.2,2.4,2.7,4.5,3.3,4.7c0.7,0.2,1.7,1.6,2.3,2.9c1.1,2.2,4.5,4.9,6.3,4.9c0.3,0,1.1-2.4,1.7-5.3
		l1.2-5.3l4-1.2c2.2-0.7,4.1-1.2,4.2-1.2s1.7,1.1,3.5,2.5l3.4,2.5l9-0.4c10.9-0.4,15.7-1.7,22.9-5.9l5.2-3l6.6,0.9
		c5.7,0.7,6.8,1.1,7.6,2.2c0.5,0.8,3.2,4.4,5.9,8c5.3,7,5.5,7.1,11.9,7.8l3.6,0.4l0.9-0.8C400.7,417,400.5,415.9,400.8,414.9z"/>
	<path fill="#00247D" d="M401.1,356.2c-0.1-0.5-0.3-1-0.5-1.4c-1.9,5.7-2.9,10.8-3.2,14c-0.2-0.2-0.4-0.5-0.7-0.7
		c3.8,4.6,10.7,3.6,17.6-0.4c-0.3-4-0.4-8.1-0.3-12.1v-24.1c-5.9,6.1-10,14-12.6,21.2C401.4,353.8,401.3,355,401.1,356.2z"/>
	<path fill="#00247D" d="M627.1,343.8c2.8-0.4,3-0.6,4.5-3.8c1.5-3.4,6.2-18.1,5.8-18.5c-0.1,0-0.8-0.6-1.8-1.5H602
		c-1.2,6.2-5.8,11.2-10.1,11.1c2.9-0.1,5.2-3,1.1-6.7c-1.8-1.6-3.7-3.1-5.7-4.4H576h-21.8c4.9,4.5,9,9.3,12.3,14.6l3.2-0.9
		c4.7-1.2,4.7-1.2,7.5-0.1c2.5,1.1,3.2,1.2,6.9,0.5l4-0.7l6.2,3.9c4.7,3,6.8,4,9.3,4.2c1.7,0.2,4,0.9,5.1,1.5c1.6,1,3.2,1.2,8.8,1.2
		C621.2,344.2,625.5,344,627.1,343.8z"/>
	<path fill="#00247D" d="M378.9,186.8c0.9-1.8,2.5-3.1,4.5-3.8C381.4,183.7,379.8,185,378.9,186.8c-0.4,0.7-0.7,1.4-0.9,2.2l2.9,1.5
		C380.6,189.2,379.9,188,378.9,186.8z"/>
	<path fill="#00247D" d="M320,160L150.5,75.2c-1.4,0.9-2.8,1.8-3.9,2.4c-2.2,1.1-5.7,3.2-7.6,4.6l-3.6,2.5l0.2,3.7
		c0.2,3.6,0.2,3.8-2,5.9c-1.7,1.7-2.4,3-3,5.8c-0.9,4.6-4.3,9.2-8.7,12.1c-3.7,2.4-5.2,4.9-5.2,9.3v2.7l-4.4,2.2
		c-2.4,1.2-5.7,3.2-7.2,4.4c-1.8,1.4-3.5,2.2-4.7,2.2c-2.2,0-7.8,2.2-9.6,3.7c-0.7,0.6-2.1,1.4-3.1,1.7c-1,0.3-2.1,1.1-2.5,1.8
		c-0.6,1.1-1.1,1.1-4.4,0.8c-2.1-0.2-4.1-0.6-4.5-0.8c-1.9-1.2-9.4-1.6-13.8-0.7c-3.1,0.7-5.1,0.7-6.9,0.4c-3.3-0.7-4.8-0.1-6.8,2.9
		c-1.4,2.1-2.1,2.5-4.6,3c-2.9,0.6-3,0.7-3.5,3c-0.6,2.8-1.1,3.2-9,8.5c-1.6,1.1-2.8,2-3.8,2.7H256H320z"/>
	<path fill="#00247D" d="M452.3,295.3c0.4,2.3,1.2,4.9,2.9,7.6c-1.4-2.2-2.4-4.9-2.8-7.7C452.4,295.2,452.3,295.2,452.3,295.3z"/>
	<path fill="#00247D" d="M482,241l3.7,1.8c0.2-0.4,0.4-0.8,0.7-1.2c3.8,3.1,10.5,3.3,12.4-1.4c0.1-0.4,0.3-0.7,0.3-1.1
		C497.3,236.8,489.1,238.7,482,241z"/>
	<path fill="#00247D" d="M505.5,227c0.3-0.3,0.6-0.9,0.4-2c0,0.2,0.1,0.4,0.1,0.6l-0.2-2.7c0,0-0.1,0-0.1-0.1l0.2,3.2
		C505.9,226.4,505.8,226.7,505.5,227z"/>
	
		<rect x="481.8" y="241.9" transform="matrix(-0.8944 -0.4472 0.4472 -0.8944 808.451 674.714)" fill="#00247D" width="4.1" height="0"/>
	<rect x="443.5" y="218.3" fill="#00247D" width="0" height="6.9"/>
	<path fill="#00247D" d="M585.7,271.4c-5.8,6.7-11.9,10.7-17.9,12.5l61.5,30.7l-1.1-1v-6.3v-6.3l-3.2-3.2c-2.4-2.4-4-3.5-5.9-4
		c-1.5-0.4-2.7-0.9-2.7-1.2c0-0.2-1.9-1.9-4.1-3.5c-5.2-3.9-12.7-11.9-12.7-13.5c0-0.6-1.4-2.7-3-4.4c-1.4-1.5-2.9-3.6-4.3-5.7
		C589.8,267.2,587.6,269.3,585.7,271.4z"/>
	<path fill="#00247D" d="M478.1,222.7c0.2,1.1-4.7,2-6-1.2l-0.3-0.6c0.5,1.4,0.3,1.9-0.2,2.5c-0.9,1.3-4.7,0.8-5.6-1
		c-0.2,1.2-3.5,1-5.2,0.1c-0.6-0.3-1.2-0.9-1.7-1.6c0.2,0.8,0.1,1.5-0.2,2c-1,1.4-3.8,0.7-4.5-0.7c-1.5,1.7-3,2.6-4.2,2.9l25,12.5
		c8.7-3.8,18.8-6.6,23.7-4.1c-0.9-2.8-2.8-5.9-6.2-8.8c0,0,0.1,0,0.1,0c0,0-0.1-0.1-0.1-0.1c-0.8-0.1-1.7-0.3-2.1-1
		c-1.3,0.8-5.3,0.1-6.2-2C484.7,223.5,479.6,224.3,478.1,222.7z"/>
	<path fill="#00247D" d="M511.9,229.1c4.6,14,12.7,26.7,23.6,36.7c3,2.7,6.3,4.6,9.8,5.6l15.9-36.2c-2.6-1.6-5.3-3.1-6.6-3.6
		c-2.7-1.1-3.4-1.2-6.8-0.6c-2.1,0.4-4.5,1.2-5.4,1.9c-0.9,0.6-3.9,1.5-7,2l-5.3,0.8l-5.7-3.6c-2.4-1.5-6.6-3.7-10.4-5.5
		c-0.2,0.8-0.6,1.5-1,2C512.8,228.9,512.4,229,511.9,229.1z"/>
	<path fill="#00247D" d="M515.7,291.1h2.5L516,290C515.9,290.4,515.8,290.7,515.7,291.1z"/>
	
		<rect x="377.8" y="189.7" transform="matrix(0.8944 0.4472 -0.4472 0.8944 124.9063 -149.6643)" fill="#00247D" width="3.3" height="0"/>
	<path fill="#00247D" d="M495.8,221.8C495.8,221.8,495.8,221.8,495.8,221.8c0,0.1,0,0.1,0,0.2c0.1,0.6,0.4,1.3,0.9,1.9
		C496.3,223.3,495.9,222.6,495.8,221.8z"/>
	
		<rect x="448.7" y="231.3" transform="matrix(0.8944 0.4472 -0.4472 0.8944 152.306 -182.4949)" fill="#00247D" width="28" height="0"/>
	<path fill="#00247D" d="M501.4,225.1C501.4,225.1,501.3,225.1,501.4,225.1c0.1,0.3,0.2,0.5,0.4,0.7
		C501.7,225.6,501.5,225.4,501.4,225.1z"/>
	<path fill="#00247D" d="M440.5,252.2l-19.5-9.8c-1,3.1-3.4,5.8-6.8,6.9c2.2-6.9-3.1-12.8-9.8-9.5c-4.3,2.2-20.2,9.6-18.1,26l0,0
		C405.6,270.9,426,265.7,440.5,252.2z"/>
	
		<rect x="564.2" y="299.3" transform="matrix(-0.8944 -0.4472 0.4472 -0.8944 1000.0632 834.6294)" fill="#00247D" width="68.7" height="0"/>
	<path fill="#00247D" d="M481.8,215.5L481.8,215.5c1,2.2,1.5,3.7,2.1,5.1C483.2,218.7,482.5,217,481.8,215.5z"/>
	<path fill="#00247D" d="M495.3,219.8c-0.2-0.7-0.5-1.4-0.8-2.1C494.8,218.5,495.1,219.2,495.3,219.8z"/>
	<path fill="#00247D" d="M456.3,304.4C456.3,304.4,456.3,304.4,456.3,304.4c-0.3-0.4-0.6-0.8-0.8-1.2
		C455.7,303.6,456,304,456.3,304.4z"/>
	<path fill="#00247D" d="M536.9,306.3c6.4,4.5,12.2,8.9,17.3,13.7H576l-39.1-19.5V306.3z"/>
	<path fill="#00247D" d="M550.2,320L550.2,320c-3.5-4.3-7.9-8.8-13.3-13.5v0.1C542.3,311.3,546.7,315.7,550.2,320z"/>
	<path fill="#00247D" d="M497,224.1C497,224.1,497,224.1,497,224.1C497,224.1,497,224.1,497,224.1z"/>
	<path fill="#00247D" d="M494.5,217.7c-0.4-0.8,0.3-1.6,1.3-2.1c-1.4-0.6-1.9-0.7-2.8,0C493.6,216.1,494.1,216.8,494.5,217.7z"/>
	
		<rect x="107.3" y="218.7" transform="matrix(0.8944 -0.4472 0.4472 0.8944 -76.3963 113.7185)" fill="#00247D" width="190.8" height="0"/>
	<path fill="#00247D" d="M320,192l-32-16l-170.7,85.3l12.7,7.6l9.6,0.2l9.6,0.2l6.4,4.3c5.7,3.8,6.6,4.7,8.6,8.1
		c2.2,4,2.7,7.3,1.3,9.1c-0.4,0.6-2.9,2-5.6,3.2l-4.8,2.2v4.2c0.1,4.3,0.9,7.6,2.7,10.4c1,1.5,1.1,1.5,4.3,0.6
		c3.2-0.8,3.4-0.8,6.3,0.9c2.5,1.5,3.2,2.2,4.2,5l1,2.7H320V192z"/>
	<path fill="#00247D" d="M320,104.3c-2.6-1.8-6.4-3.8-7.7-3.8c-1.1,0-2.9-1.1-5.3-3.2c-3.7-3.3-8.2-5.7-12.2-6.4
		c-1.2-0.2-2.6-0.9-3-1.5c-2.4-3.2-13.4-9.4-16.7-9.4c-1.7,0-4-2.5-5.7-6.5c-1.8-3.9-3.2-5.3-5.1-5.3c-1.4,0-3.1-0.7-5.9-2.6
		c-1.1-0.7-3.2-1.2-6.5-1.3c-3.5-0.2-6.2-0.7-8.9-1.9c-4.1-1.7-7.1-2.1-7.8-1c-0.2,0.3-2.4,1.2-4.8,1.9l-4.4,1.3l-1.7-1.2
		c-1.4-1.1-2.3-1.2-5.7-0.9c-2.2,0.2-5.8,1.2-8.1,2.1l-4.2,1.7l-2.6-3.4c-2.6-3.3-2.7-3.4-5.8-3.3c-1.7,0-5.2,0.6-7.8,1.4
		c-0.7,0.2-1.5,0.5-2.3,0.8L320,128V104.3z"/>
	<polygon fill="#00247D" points="320,160 320,160 320,160 	"/>
	<rect x="342.1" y="146.3" fill="#00247D" width="0" height="49.4"/>
	<rect x="429.7" y="208.2" fill="#00247D" width="0" height="13.3"/>
	<path fill="#00247D" d="M320,160l44.2,22.1c2.3-1.5,4.7-2.2,7.5-0.7c5.9-5.8,13.9-8.2,21.9-1c4.2,3.6,5.4,9.5,4.8,15.2
		c0,0,0,0.1,0,0.1v-0.1c-0.1,1.1-0.3,2.2-0.6,3.3v0l21.4,10.7c1.5-0.9,3-1.9,4.3-3.3c0.4,1.4,0.5,3.5,0.3,5.6l11.9,6
		c2.9,0,5.2-0.4,6.6-1.7c-0.5,1.4-1.2,2.8-1.9,4.1l6.2,3.1c0-0.1-0.1-0.2-0.1-0.3c-0.7-2.8,2-4,1-6.5c-1-2.2,1.3-3.3,2.6-2.4
		c-0.7-1.1-1.4-2.6-1.4-3.9c1.5,0,3,0.6,4.1,1.6c-0.1-1.2-0.6-3.8-0.3-5c1.3,0.5,4,2,5,3.8l-5.6,3.6c1.5-0.4,3.5-1.1,4.7,0.8
		c0.1-1.2,3.3-3.1,5.5-1.5c2.5,1.8,5.9-1.5,7.3,1.7c0.4,0.8,0.7,1.5,1,2.1l-0.7-1.6c-0.7-1.5,3-4.6,5-2.4c1.9,2.1,4.9-2.4,6.5,1
		c0.2,0.3,0.3,0.6,0.4,0.9c0-0.5,0.6-1,1.5-1.3c-0.1-0.4-0.1-0.8-0.2-1.2c-8.5-0.7-17.6-2-20.4-5.8l0,0.1c-1.4-3.4-3.3-6.5-5.7-9.3
		l-0.4-0.2l0-0.3c-2.8-3.2-6-5.8-9.8-7.9l-0.2-4c3.9-2.2,7.5-4.9,10.7-8c3.7,1.7,7.6,2.6,11.7,2.8c-2.2-2.2-4.8-4.8-7.9-7.9
		c-0.6,0.8-0.9,1.6-0.9,2.4c-2.7-1.7-2.5-3.9-3-6.2c-3.2-3.1-6.2-6-8.7-8.4H384H320z"/>
	<path fill="#00247D" d="M447.7,255.8c-4.3,5.9-13,13.6-21.3,16.8c1.9-2.2,2.5-5,2.6-7.2c-13.9,4-28.7,4.2-42.7,0.5
		c2.1,15.7,23.4,19,36.2,13.4c0.6-0.3,1.1-0.5,1.7-0.8l0,0c-0.5,0.3-1.1,0.5-1.7,0.8c-20.9,9.6-42.5,2-48.3-9.6
		c-3.7-7.4-8.3-9.6-14.3-10.1c-6.1-0.5-11.3-2.9-16.5-8.8c3.8,0,4.7-4.2,8.2-4.5c-6-3-11.7-10.2-8.2-17.3c3.4,4.2,12.4,0.7,15,3.5
		c-0.4-2.6,0.8-6.4,2.9-7.8c1.4,5.4,8.8,6.2,9.8,17.4c1.8-4.2,3.8-13.2,5.4-21.8l-14.8-7.4c-2.7,1.2-6.2,1.3-10.4-0.1
		c1.4-1.3,2.2-2.6,2.7-3.8l-34-17v128h33.4c0.8-4.7,3.5-9.9,9.3-15.3c0,0,0,0,0,0v0c0,0,0,0,0,0c-4.7,5.3-4.8,11.1-3.1,15.3h15.2
		c0.4-0.2,0.8-0.5,1.2-0.7l38-26.3V291h2.8l36.8-25.5C451.8,262.1,449.8,258.9,447.7,255.8z"/>
	<path fill="#00247D" d="M408.4,311.9c0.5-0.5,1-1,1.6-1.5c-0.2,0.2-0.5,0.4-0.7,0.6C409,311.3,408.7,311.6,408.4,311.9z"/>
	<path fill="#00247D" d="M27.9,160c-1.4,1.1-2.1,2-2.3,2.5c-0.6,2.7-3,4.4-7,5.2c-2.5,0.5-4.2,1.2-5.2,2.2c-0.7,0.8-2,1.5-2.7,1.5
		c-2.5,0-3,0.9-1.8,2.9c1,1.8,1,2.1,0.1,5.3c-0.8,2.5-0.9,4.6-0.7,8.7c0.3,4.8,0.2,5.5-1.1,7.5c-0.7,1.1-2.1,2.7-3,3.5l-1.6,1.4
		l3,2.7c2.7,2.4,2.9,2.9,2.9,5.5c0,2.5-0.5,3.6-3.4,7.8c-1.9,2.7-3.5,5.8-3.8,7c-0.4,1.8-0.1,2.3,2.2,4.7l2.7,2.7l3-1.6
		c3.9-2,9.3-2,9.3,0c0,0.4,0.7,2.7,1.7,5.2l1.7,4.5h3.3c2.1,0,4.2-0.4,5.7-1.2c2.2-1.2,2.4-1.4,3.1-5.7c0.6-3.8,1.1-5,3.2-7.5
		c2.4-2.9,2.6-3,4.1-2.2c0.9,0.4,2.4,1.9,3.2,3.2c1.5,2.1,2.1,2.5,5.3,3.2c2.1,0.4,8,1,13.1,1.2c5.7,0.2,10.4,0.7,12.1,1.3
		c6.7,2.2,13.5,3.9,16,3.9c2.3,0,2.9,0.3,5,2.9c0.3,0.4,0.6,0.8,0.9,1.2L256,160H27.9z"/>
	<path fill="#00247D" d="M375,320h3.2c0.1-0.5,0.3-1.1,0.3-1.7c0.9,0.4,1.8,1,2.5,1.7h19.3c2.6-3.3,5.7-6.3,9-9
		c0.2-0.2,0.4-0.4,0.6-0.6c1.3-1.1,2.7-2.3,4.1-3.4v-5.3c-11.5,3.8-27.3,11.2-38,17.5L375,320z"/>
	<path fill="#00247D" d="M352,144l26.5-13.3c-4-0.6-7.8-1.3-9.8-1.9c-2.1-0.6-6.1-2.2-9-3.5c-2.9-1.4-5.7-2.4-6-2.4
		s-2.1-0.6-3.7-1.3c-4-1.8-9.6-3-14-3c-4.5,0-5.5-0.4-5.5-2.4c0-2.3-3.4-7.3-5.7-8.2c-1-0.4-2.2-1.2-2.6-1.8
		c-0.4-0.5-1.2-1.2-2.2-1.9V128L352,144z"/>
	<path fill="#00247D" d="M497.3,280.7c-4.5,2.1-9.3,6.2-14.7,10.4h0.1C488.1,286.9,492.9,282.8,497.3,280.7L497.3,280.7z"/>
	<path fill="#00247D" d="M448.3,160c-3.4-3.2-5.9-5.4-6.5-5.8c-1.2-0.8-3.7-1.9-5.4-2.4c-2.4-0.7-3.5-1.4-4.7-3.2
		c-0.9-1.2-1.9-2.6-2.3-3c-0.6-0.6-4.8-2.1-9.5-3.6l-36,18H448.3z"/>
	<rect x="408.5" y="192.3" fill="#00247D" width="0" height="23.9"/>
	<path fill="#00247D" d="M398.4,194.2c0,0.4,0,0.9,0,1.4c0,0,0,0,0,0C398.4,195.1,398.4,194.7,398.4,194.2z"/>
	<path fill="#00247D" d="M388.2,234.9c1.6-2.4,3.1-4.6,4.6-6.5l-2.4-1.2C389.6,230.1,388.8,232.8,388.2,234.9z"/>
	
		<line fill="none" stroke="#000000" stroke-width="0" stroke-linecap="round" stroke-linejoin="round" x1="423.8" y1="211.9" x2="435.7" y2="217.8"/>
	
		<line fill="none" stroke="#000000" stroke-width="0" stroke-linecap="round" stroke-linejoin="round" x1="419.2" y1="209.6" x2="397.8" y2="198.9"/>
	
		<line fill="none" stroke="#000000" stroke-width="0" stroke-linecap="round" stroke-linejoin="round" x1="446.6" y1="223.3" x2="440.4" y2="220.2"/>
	
		<line fill="none" stroke="#000000" stroke-width="0" stroke-linecap="round" stroke-linejoin="round" x1="320" y1="160" x2="320" y2="160"/>
	
		<line fill="none" stroke="#000000" stroke-width="0" stroke-linecap="round" stroke-linejoin="round" x1="482" y1="241" x2="485.7" y2="242.9"/>
	
		<line fill="none" stroke="#000000" stroke-width="0" stroke-linecap="round" stroke-linejoin="round" x1="450.2" y1="225.1" x2="475.2" y2="237.6"/>
	
		<line fill="none" stroke="#000000" stroke-width="0" stroke-linecap="round" stroke-linejoin="round" x1="288" y1="176" x2="117.3" y2="261.3"/>
	
		<line fill="none" stroke="#000000" stroke-width="0" stroke-linecap="round" stroke-linejoin="round" x1="364.2" y1="182.1" x2="320" y2="160"/>
	
		<line fill="none" stroke="#000000" stroke-width="0" stroke-linecap="round" stroke-linejoin="round" x1="378" y1="189" x2="380.9" y2="190.5"/>
	
		<line fill="none" stroke="#000000" stroke-width="0" stroke-linecap="round" stroke-linejoin="round" x1="629.3" y1="314.6" x2="567.8" y2="283.9"/>
	<path fill="#FFFFFF" d="M320,128L187.7,61.8c-2.3,0.9-4.9,2.1-6.7,3.2c-5.1,3.1-4.5,2.9-15.2,3.9l-8.3,0.7l-3.5,3
		c-0.9,0.8-2.2,1.8-3.6,2.7L320,160V128z"/>
	<path fill="#FFFFFF" d="M288,176l32,16v-32h-64L97,239.5c1.3,1.8,2.2,3.8,3.2,7.1l1.6,5.4l14.1,8.5l1.4,0.9L288,176L288,176z"/>
	<path fill="#FFFFFF" d="M380.9,190.5L378,189c-1.1,3.6-0.7,7,2.7,8.9C381.2,195.1,381.5,192.6,380.9,190.5z"/>
	<path fill="#FFFFFF" d="M516.2,284.2c0.4,1.9,0.4,3.9-0.1,5.8l2.2,1.1h5.2C520.8,289.1,518.3,286.8,516.2,284.2z"/>
	<path fill="#FFFFFF" d="M357.5,196.6c-5,1.8-7.6-0.5-9.3-6c6.8,1.9,11.1-5.2,16-8.5L320,160l0,0v32l34,17
		C355.7,204.5,353.4,200.3,357.5,196.6z"/>
	<path fill="#FFFFFF" d="M421.8,216.6c4.6,0.3,9.7,1.2,13.9,1.2l-11.9-6C423.5,213.7,422.9,215.4,421.8,216.6z"/>
	<path fill="#FFFFFF" d="M536.9,300.5L576,320h11.3c-14.6-9.9-34.2-13.7-50.4-21.1V300.5z"/>
	<path fill="#FFFFFF" d="M390.4,227.2l2.4,1.2c10.8-13.8,19.6-14.8,26.4-18.8l-21.4-10.7C395.9,207.1,392.8,218.5,390.4,227.2z"/>
	<path fill="#FFFFFF" d="M542,279L542,279c0-0.1-0.1-0.1-0.1-0.1c-5-2.8-9.2-1.3-4.3,3c7.4,6.7,23.6,11.7,42.7,15.8
		c18.8,4,23.2,14.2,21.7,22.3h33.6c-0.8-0.7-1.8-1.5-2.9-2.5l-3.4-2.9l-61.5-30.7C559,286.5,550.1,284.4,542,279z"/>
	<path fill="#FFFFFF" d="M380.1,200.8c-3.6,2.2-8.7,1.7-12.1-1.4c0.3,6.6-1.9,11.5-6.3,13.5l14.8,7.4c1.2-6.2,2.2-12.2,2.9-16.1
		C379.6,203,379.9,201.8,380.1,200.8z"/>
	<path fill="#FFFFFF" d="M503.8,279.2c-2.1-0.2-4.3,0.4-6.5,1.5l0,0C499.6,279.6,501.7,279,503.8,279.2z"/>
	<path fill="#FFFFFF" d="M472.2,244.6c-5.3,2.4-7.7,5.8-5.8,13.3c-3.1-2.6-2-5.1-5.3-7c0.6,1.4,1.2,3.3,1.6,5.4l36.2,16
		c0.3-0.1,0.7-0.2,1-0.2c-0.3-2-1.8-9.3-2.6-13.4c-8.7,2.5-18.7-3.7-11.6-15.8L482,241C477.9,242.3,474.2,243.8,472.2,244.6z"/>
	<path fill="#FFFFFF" d="M512.1,278.2c-0.2-0.4-0.4-0.8-0.6-1.1c-2.5-2-5.9-3.3-10-3.5L512.1,278.2z"/>
	<path fill="#FFFFFF" d="M320,128v32h0h64l36-18c-4.3-1.3-8.9-2.6-11.8-3.2c-4-0.7-6.5-1.7-10.3-3.9c-4-2.3-5.7-2.9-8.4-3
		c-2.9-0.1-7-0.6-11-1.2L352,144L320,128z"/>
	<path fill="#FFFFFF" d="M455.9,249.9c0.6,1.4,1.1,2.7,1.6,4.1l2.5,1.1C458.9,253.2,457.6,251.4,455.9,249.9z"/>
	<path fill="#FFFFFF" d="M508,273.4c-0.6-1.9-3.1-13.1-4.2-18.9c-1.1,1.3-2.4,2.3-3.8,3.1c1,4.9,2.1,9.7,3.5,14.4
		C504.5,272.2,506.3,272.6,508,273.4z"/>
	<path fill="#FFFFFF" d="M463,244c2.9-1.9,7.3-4.3,12.2-6.4l-25-12.5c-1.7,0.4-3.1-0.4-3.6-1.8l-6.2-3.1c-4.5,8.2-12.4,13.6-20.7,13
		c0.5,0.8,0.9,1.6,1.2,2.5c0.8,2.3,0.7,4.7,0,6.8l19.5,9.8c0.9-0.8,1.7-1.6,2.5-2.5c-1-1.2-2.1-2.4-3.2-3.6l5.9,2.6
		c-0.6-0.6-1.1-1.2-1.7-1.8C450.5,248.6,457.3,247.5,463,244z"/>
	
		<line fill="none" stroke="#000000" stroke-width="0" stroke-linecap="round" stroke-linejoin="round" x1="320" y1="160" x2="320" y2="128"/>
	
		<line fill="none" stroke="#000000" stroke-width="0" stroke-linecap="round" stroke-linejoin="round" x1="320" y1="128" x2="320" y2="104.3"/>
	
		<line fill="none" stroke="#000000" stroke-width="0" stroke-linecap="round" stroke-linejoin="round" x1="384" y1="160" x2="448.3" y2="160"/>
	
		<line fill="none" stroke="#000000" stroke-width="0" stroke-linecap="round" stroke-linejoin="round" x1="320" y1="192" x2="320" y2="320"/>
	
		<line fill="none" stroke="#000000" stroke-width="0" stroke-linecap="round" stroke-linejoin="round" x1="256" y1="160" x2="27.9" y2="160"/>
	
		<line fill="none" stroke="#000000" stroke-width="0" stroke-linecap="round" stroke-linejoin="round" x1="320" y1="160" x2="320" y2="192"/>
	
		<line fill="none" stroke="#000000" stroke-width="0" stroke-linecap="round" stroke-linejoin="round" x1="256" y1="160" x2="320" y2="160"/>
	
		<line fill="none" stroke="#000000" stroke-width="0" stroke-linecap="round" stroke-linejoin="round" x1="320" y1="160" x2="320" y2="160"/>
	
		<line fill="none" stroke="#000000" stroke-width="0" stroke-linecap="round" stroke-linejoin="round" x1="384" y1="160" x2="320" y2="160"/>
	<path fill="#F7E017" d="M395.8,338.2c2.3-10.3,6.6-20.3,12.7-26.3c0.3-0.3,0.6-0.6,0.9-0.9c-3.3,2.7-6.3,5.7-9,9
		c-3.6,4.5-6.5,9.4-8.6,14.7C393.2,335.7,394.6,336.9,395.8,338.2z"/>
	<path fill="#F7E017" d="M396.7,368.1C396.7,368.1,396.7,368.1,396.7,368.1c-1.5-1.9-2.6-4.7-2.8-8.6c-0.2-3.1-0.2-6.6,0.1-10.1
		c-2-0.5-4.1-0.7-6.2-0.8c-5.8,21.3-13.3,25.7-24.4,20.1c0,15.6,13.6,16.8,19.6,7.7c0,14.5,5.3,27.1,17.1,37.9
		c0.2,0.2,0.5,0.4,0.7,0.6c0.2-0.7,0.7-1.4,1.4-1.8c0.7-0.4,1.5-0.7,2.2-0.7c-0.2-0.5-0.4-1.1-0.7-1.7c-2.4-5-2.4-21.2-7.1-30.5
		c7.4,5.3,18.1,2.6,17.9-11.2c0-0.4-0.1-0.9-0.1-1.3C407.4,371.7,400.5,372.7,396.7,368.1z"/>
	<path fill="#F7E017" d="M398.4,195.6C398.4,195.6,398.4,195.6,398.4,195.6l0,0.1C398.4,195.7,398.4,195.6,398.4,195.6
		C398.4,195.6,398.4,195.6,398.4,195.6C398.4,195.6,398.4,195.6,398.4,195.6z"/>
	<path fill="#F7E017" d="M409.9,310.4c-0.2,0.2-0.4,0.4-0.6,0.6C409.5,310.8,409.8,310.6,409.9,310.4L409.9,310.4z"/>
	<path fill="#F7E017" d="M348.2,190.6c1.7,5.5,4.3,7.8,9.3,6c-4.1,3.7-1.8,7.9-3.5,12.4c-0.5,1.3-1.3,2.5-2.7,3.8
		c4.3,1.3,7.8,1.3,10.4,0.1c4.4-1.9,6.6-6.8,6.3-13.5c3.5,3.1,8.5,3.5,12.1,1.4c0.2-1,0.4-1.9,0.6-2.9c-3.4-1.9-3.9-5.3-2.7-8.9l0,0
		c0.2-0.8,0.6-1.5,0.9-2.3c0.9-1.7,2.5-3,4.5-3.7c6-2.2,14.9,0.5,15,11.2c0,0.4,0,0.9,0,1.3c0.6-5.7-0.6-11.6-4.8-15.2
		c-8-7.2-16-4.8-21.9,1c-2.8-1.5-5.2-0.9-7.5,0.7l0,0C359.3,185.4,355,192.5,348.2,190.6z"/>
	<path fill="#337321" d="M424.2,278.5c-0.6,0.3-1.1,0.5-1.7,0.8C423.1,279,423.7,278.8,424.2,278.5L424.2,278.5z"/>
	<path fill="#337321" d="M398.4,195.6c0-0.5,0-0.9,0-1.4c-0.1-10.7-9-13.5-15-11.2c-2,0.7-3.7,2.1-4.5,3.8c1,1.2,1.7,2.4,2,3.7h0
		c0.6,2.2,0.3,4.6-0.2,7.4c-0.2,0.9-0.4,1.9-0.6,2.9c-0.2,1.1-0.5,2.2-0.7,3.4c-0.7,3.9-1.7,9.9-2.9,16.1
		c-1.7,8.6-3.6,17.6-5.4,21.8c-1-11.2-8.4-12-9.8-17.4c-2.1,1.4-3.3,5.2-2.9,7.8c-2.6-2.8-11.6,0.7-15-3.5
		c-3.5,7.1,2.2,14.3,8.2,17.3c-3.5,0.3-4.4,4.5-8.2,4.5c5.2,5.9,10.4,8.3,16.5,8.8c6,0.5,10.6,2.7,14.3,10.1
		c5.8,11.6,27.4,19.2,48.3,9.6c-12.9,5.6-34.1,2.3-36.2-13.4h0h0l0,0c-2.1-16.4,13.8-23.8,18.1-26c6.7-3.3,12,2.6,9.8,9.5
		c3.4-1.1,5.8-3.8,6.8-6.9c0.7-2.1,0.7-4.5,0-6.8c-0.3-0.9-0.7-1.7-1.2-2.5c8.4,0.6,16.3-4.8,20.7-13l0,0c0.7-1.3,1.3-2.7,1.9-4.1
		c-1.4,1.3-3.8,1.8-6.6,1.7l0,0c-4.2,0-9.3-0.9-13.9-1.2c1.1-1.2,1.7-2.9,2-4.7l0,0c0.3-2.1,0.1-4.2-0.3-5.6
		c-1.3,1.4-2.8,2.4-4.3,3.3l0,0c-6.8,4-15.6,5-26.4,18.8c-1.5,1.9-3,4.1-4.6,6.5c0.6-2.1,1.4-4.8,2.2-7.7c2.4-8.7,5.5-20.1,7.4-28.3
		l0,0v0C398.1,197.8,398.3,196.7,398.4,195.6C398.4,195.6,398.4,195.6,398.4,195.6C398.4,195.6,398.4,195.6,398.4,195.6z"/>
	<path fill="#F7E017" d="M375,320l1.1-0.7c-0.4,0.2-0.8,0.5-1.2,0.7c-3.7,2.2-6.6,4.3-8.5,6L375,320z"/>
	<path fill="#F7E017" d="M414,301.8v-8.9l-38,26.3C386.7,312.9,402.5,305.6,414,301.8z"/>
	<path fill="#F7E017" d="M454.2,266.7c-0.2-0.4-0.4-0.8-0.6-1.2L416.8,291h18.2C443,284.3,450.1,276.8,454.2,266.7z"/>
	<path fill="#337321" d="M394.1,349.4c-0.3,3.5-0.3,7-0.1,10.1c0.3,3.8,1.2,6.7,2.7,8.6c0,0,0,0,0,0c0.2,0.3,0.4,0.5,0.7,0.7
		c0.3-3.2,1.3-8.3,3.2-14C399.3,351.6,396.9,350.1,394.1,349.4z"/>
	<path fill="#337321" d="M410,310.4c-0.5,0.5-1.1,1-1.6,1.5c-6,6-10.4,16-12.7,26.3c3.4,3.8,5.5,9,5.6,14.4
		c2.7-7.2,6.7-15.1,12.6-21.2V307C412.6,308.1,411.2,309.3,410,310.4L410,310.4z"/>
	<path fill="#337321" d="M458.4,276.4c-1.2-3.3-2.6-6.6-4.2-9.7c-4.1,10.1-11.2,17.6-19.3,24.3H452c0,1.2,0.1,2.7,0.3,4.3
		c0,0,0.1-0.1,0.1-0.1C451.3,288.4,453.2,280.8,458.4,276.4z"/>
	<path fill="#316D3A" d="M440.5,252.2c-14.5,13.4-34.9,18.7-54.2,13.7h0h0c14,3.7,28.8,3.5,42.7-0.5c-0.1,2.2-0.7,5-2.6,7.2
		c8.3-3.2,17-10.9,21.3-16.8c-1.5-2.1-3-4.1-4.7-6.1C442.2,250.6,441.3,251.4,440.5,252.2z"/>
	<path fill="#337321" d="M394.1,349.4c2.8,0.7,5.2,2.2,6.6,5.3c0.2,0.4,0.4,0.9,0.5,1.4c0.2-1.2,0.3-2.4,0.3-3.6
		c-0.1-5.4-2.2-10.6-5.6-14.4c-1.2-1.4-2.6-2.5-4.1-3.5c-3.1-2-6.7-3-10.6-2.6c4-3.6,2.9-9.1-0.1-12.1c-0.7-0.7-1.6-1.3-2.5-1.7
		c-0.1,0.6-0.2,1.2-0.3,1.7c-2,7.6-11.4,7.4-15.2,4.7c-1.3-0.9-2.6-2.6-3.4-4.7c-1.7-4.2-1.6-10,3.1-15.3
		c-5.8,5.4-8.5,10.6-9.3,15.3c-1.7,10.1,5.4,17.7,10.3,20c-2,11.9,9.3,10.4,9,20.4c4.6-2.6,5.8-9.5,5-15c2.4,2.5,6.2,2.9,10.1,3.2
		C389.9,348.8,392.1,348.9,394.1,349.4C394,349.4,394,349.4,394.1,349.4z"/>
	<polygon fill="#337321" points="362.7,304.7 362.7,304.7 362.7,304.7 	"/>
	<path fill="#F7E017" d="M404.4,412.4c-0.8-0.1-1.6,0.2-2.2,0.7c-0.8,0.4-1.2,1.1-1.4,1.8c-0.3,1-0.1,2.1,0.5,3.1l2.7-2.4l2.2-2
		C405.7,412.8,405.1,412.5,404.4,412.4z"/>
	<path fill="#F7E017" d="M536.9,306.6v18.8c1.4-0.6,2.9-1.1,3.2-1.1c1.5,0.1,12.2,4.2,17.8,6.8c-2-3.5-4.5-7.2-7.7-11.1
		C546.7,315.7,542.3,311.3,536.9,306.6z"/>
	<path fill="#337321" d="M486.8,338v17.2c0,1.1-0.3,1.4-1.5,1.4h-0.4c-0.1,0.1-0.3,0.2-0.4,0.4c-0.8,0.9-1,1.3-1.5,1.4
		c-0.1,0.7-0.4,1-1.4,1h-15.7c-0.8,0-1.1-0.2-1.3-0.6l-43.1,40.3l53.9-99l17.5,32.1l38.5-36.1c-0.6-0.3-1.1-0.6-1.6-0.9
		c0.1,0,0.1,0.1,0.2,0.1c-2.3-1.3-4.5-2.7-6.6-4.3h-5.2h-2.5h-4.5v0.1h-28.6c0,0,0.1-0.1,0.1-0.1h-0.1c-7.5,5.9-16,12-26.2,13.4
		c0,0,0-0.1-0.1-0.1c0,0,0,0,0,0c-0.3-0.4-0.6-0.8-0.8-1.2c-0.1-0.1-0.2-0.3-0.3-0.4c-1.7-2.6-2.5-5.2-2.9-7.6
		c-0.3-1.6-0.3-3-0.3-4.3h-17.1h-18.2H414v1.9v8.9v5.3v24.4v24.1c-0.1,4.1,0,8.1,0.3,12.1c0,0.4,0.1,0.9,0.1,1.3
		c1.2,13,4.6,25.5,9.9,37.2c1.7,0.3,3.7,0.7,5.5,1.2l5.8,1.5l2.6-2.9c2.5-2.9,2.9-3,9.7-4.6c3.9-0.9,9.4-1.8,12.2-2
		c5.1-0.3,5.2-0.4,9.3-3.7c0.8-0.7,1.5-1.2,2-1.6v-6.9c-0.4,0-0.8,0-1.2-0.1c-0.1,0-0.1,0-0.2,0v-0.1c-5.5-0.4-13-1-16.3-1
		c-1.2,0-2.2-1.9-2.2-4.1s1-4,2.2-4c3.8,0,13.5-0.9,18.9-1.2v-10c0-2.4,0.5-5.9,2.6-5.9c2.2,0,2.7,3.5,2.7,5.9v10
		c2.5,0.1,5.8,0.4,9.1,0.7c0.7-0.5,1.4-1,2.1-1.3c1.9-1.1,3.7-2.6,3.9-3.4c0.2-0.7,1.1-4.4,1.9-8.1l1.4-6.8l4.7-3.4
		c0.9-0.7,1.9-1.4,2.6-2l-10.9-19.9L486.8,338z"/>
	<path fill="#337321" d="M479.3,392c2.3-1.3,2.8-1.8,2.5-2.8c-0.1-0.5-0.3-1.4-0.5-2.5c-0.7,0-1.4,0.1-2,0.1V392z"/>
	<path fill="#006EC7" d="M475.4,300.1l-53.9,99l43.1-40.3c-0.1-0.2-0.1-0.4-0.1-0.8v-21.3c0,0,0,0,0,0v-0.1c0,0,0,0,0,0l0-0.2v0.2
		c0,0,0,0,0-0.1c0-0.1,0-0.2,0-0.3c0,0,0,0,0,0c0-0.1,0.1-0.3,0.1-0.3c0.3-0.7,1.1-1.1,1.9-1.7c1.3-1,1.9-1.5,3.1-1.5h15.6
		c1.2,0,1.5,0.3,1.5,1.4v4l6.1-5.7L475.4,300.1z"/>
	<path fill="#006EC7" d="M536.9,306.6L536.9,306.6c-0.4-0.5-0.9-0.8-1.3-1.2c-0.2-0.1-0.4-0.3-0.6-0.4v-0.1c0.2,0.2,0.4,0.3,0.6,0.5
		c0.4,0.3,0.9,0.6,1.3,0.9v-5.9v-1.6c-1.9-0.8-3.7-1.7-5.4-2.7l-38.5,36.1l10.9,19.9c1.3-1,2.2-1.7,2.3-1.9c0.2-0.3-0.4-1.4-1.2-2.5
		c-2.7-3.5-2.7-6.3-0.2-11.4c1.4-2.7,3.2-5.1,4.9-6.5l2.7-2.3l10.9-0.4c8.5-0.4,11.4-0.7,13.5-1.6c0.1,0,0.1,0,0.2-0.1V306.6z"/>
	<path fill="#F7E017" d="M475.4,387.1c-0.9,0-2.2-0.1-3.8-0.2v6.9c2-1.5,2.5-1.5,3.4-0.9c1.1,0.7,1.6,0.6,4.2-0.9c0,0,0.1,0,0.1-0.1
		v-5.1C477.7,387,476.3,387.1,475.4,387.1z"/>
	<path fill="#F7E017" d="M478.1,376.5v-10c0-2.4-0.5-5.9-2.7-5.9c-2.1,0-2.6,3.5-2.6,5.9v10c1.1-0.1,2-0.1,2.7-0.1
		C476.2,376.4,477.1,376.4,478.1,376.5z"/>
	<path fill="#F7E017" d="M475.5,376.4c-0.7,0-1.6,0-2.7,0.1c-5.4,0.3-15.1,1.2-18.9,1.2c-1.2,0-2.2,1.8-2.2,4s1,4.1,2.2,4.1v-8
		c0.7,0,1.4,0.7,1.8,1.7v-1.7c1.2,0,2.2,1.8,2.2,4s-1,4-2.2,4v-1.7c-0.4,1-1.1,1.7-1.8,1.7c3.3,0,10.8,0.7,16.3,1v-10.1
		c1.5,0,2.8,2.3,2.8,5.1c0,2.7-1.2,4.8-2.6,5.1c0.4,0,0.8,0.1,1.2,0.1c1.6,0.1,2.9,0.2,3.8,0.2c0.9,0,2.3-0.1,3.9-0.2
		c0.6,0,1.3-0.1,2-0.1c-0.1-0.4-0.1-0.8-0.2-1.1c-0.5,0.8-1.1,1.2-1.8,1.2v-10.3c1.6,0,2.8,2.3,2.8,5.1c0-0.1,0.1-0.1,0.2-0.2l0-4.8
		c1,0,1.9,1,2.4,2.5c0.8-0.7,1.7-1.4,2.6-2.1c-3.3-0.3-6.7-0.6-9.1-0.7C477.1,376.4,476.2,376.4,475.5,376.4z M467.4,386.6v-9.7
		c1.5,0,2.7,2.2,2.7,4.9C470.1,384.5,468.9,386.6,467.4,386.6z"/>
	<path fill="#F7E017" d="M455.7,384.1v-4.6c-0.4-1-1.1-1.7-1.8-1.7v8C454.6,385.8,455.3,385.1,455.7,384.1z"/>
	<path fill="#F7E017" d="M455.7,385.8c1.2,0,2.2-1.8,2.2-4s-1-4-2.2-4v1.7v4.6V385.8z"/>
	<path fill="#F7E017" d="M479.3,376.6v10.3c0.7,0,1.3-0.5,1.8-1.2c0,0,0-0.1,0-0.1c-0.2-1.7-0.2-2.4,1-3.8
		C482.1,378.9,480.9,376.6,479.3,376.6z"/>
	<path fill="#F7E017" d="M467.4,376.9v9.7c1.5,0,2.7-2.1,2.7-4.8C470.1,379.1,468.9,376.9,467.4,376.9z"/>
	<path fill="#F7E017" d="M482.2,376.8l0,4.8c0.3-0.3,0.7-0.7,1.1-1.2c0.3-0.4,0.8-0.8,1.2-1.2C484.1,377.8,483.2,376.8,482.2,376.8z
		"/>
	<path fill="#F7E017" d="M473,381.8c0-2.8-1.3-5.1-2.8-5.1v10.1v0.1c0.1,0,0.1,0,0.2,0C471.8,386.6,473,384.5,473,381.8z"/>
	<polygon fill="#FFFFFF" points="464.5,336.6 464.5,336.6 464.5,336.4 	"/>
	<path fill="#FFFFFF" d="M464.5,336.6L464.5,336.6C464.5,336.6,464.5,336.6,464.5,336.6C464.5,336.6,464.5,336.6,464.5,336.6z"/>
	<path fill="#FFFFFF" d="M464.5,336.2C464.5,336.2,464.5,336.2,464.5,336.2C464.5,336.2,464.5,336.2,464.5,336.2z"/>
	<path fill="#FFFFFF" d="M485.3,332.6h-15.6c-1.2,0-1.8,0.5-3.1,1.5c-0.8,0.6-1.6,1-1.9,1.7c0.2-0.3,0.6-0.4,1.2-0.4h0.8
		c0.2-0.2,0.4-0.3,0.6-0.5c1.3-1,1.8-1.4,2.9-1.4h14.4c1.1,0,1.4,0.3,1.4,1.3v19.4c0,1.3,0.1,1.3-1.1,2.4h0.4c1.2,0,1.5-0.3,1.5-1.4
		V338v-4C486.8,332.9,486.5,332.6,485.3,332.6z"/>
	<path fill="#E5E5E5" d="M486,354.2v-19.4c0-1-0.3-1.3-1.4-1.3h-14.4c-1.1,0-1.6,0.4-2.9,1.4c-0.2,0.2-0.4,0.3-0.6,0.5h14.9
		c1.1,0,1.4,0.3,1.4,1.4V358c0,0.2,0,0.3,0,0.4c0.5-0.1,0.7-0.5,1.5-1.4c0.2-0.2,0.3-0.3,0.4-0.4C486.1,355.5,486,355.5,486,354.2z"
		/>
	<path fill="#FFFFFF" d="M483,336.8c0-1.1-0.3-1.4-1.4-1.4h-14.9h-0.8c-0.7,0-1,0.1-1.2,0.4c-0.1,0.1-0.1,0.2-0.1,0.3c0,0,0,0,0,0
		c0,0.1,0,0.2,0,0.3c0,0.1,0,0.1,0,0.2c0,0,0,0,0,0V358c0,0.3,0,0.6,0.1,0.8c0.2,0.5,0.5,0.6,1.3,0.6h15.7c0.9,0,1.3-0.3,1.4-1
		c0-0.1,0-0.3,0-0.4V336.8z"/>
	<path fill="#96877D" d="M516.2,284.2c-1.5-1.8-2.9-3.8-4.1-6l-10.6-4.7c-2.7-0.2-5.7,0.1-8.9,1c2-1,4.1-1.7,6.3-2.2l-36.2-16
		c0.5,2.5,1,5.3,1.2,7.8c-0.8-2-1.9-5.6-3.9-9l-2.5-1.1c3.7,10.4,5.2,21.6,4.3,32.7c3.2,0,10.3-3.2,13.1-5.5
		c-2.5,3.6-9.7,6.1-14.3,7c-2,2.6-3.5,9-3.4,12.6c-0.3-4.4,1-15.2,3.3-15.9c-1-14.9-6.7-27.2-14.8-36.1l-5.9-2.6
		c1.1,1.2,2.2,2.4,3.2,3.6c1.7,2,3.2,4,4.7,6.1c2.2,3.1,4.1,6.3,5.9,9.6c0.2,0.4,0.4,0.8,0.6,1.2c1.6,3.1,3,6.4,4.2,9.7
		c-5.2,4.4-7.1,12-6,18.8c0.4,2.8,1.4,5.4,2.8,7.7c0.1,0.1,0.2,0.3,0.3,0.4c0.3,0.4,0.6,0.8,0.9,1.2c0,0,0,0.1,0.1,0.1
		c10.2-1.4,18.7-7.5,26.2-13.4c5.4-4.2,10.2-8.3,14.7-10.4c2.2-1.1,4.4-1.6,6.5-1.5c8.1,0.7,9.3,6.2,7.4,11.9h4.5
		c0.1-0.4,0.2-0.7,0.3-1.1C516.6,288.1,516.6,286.1,516.2,284.2z"/>
	<path d="M475.2,237.6L475.2,237.6c-4.9,2.1-9.3,4.5-12.2,6.4c-5.7,3.5-12.5,4.6-19,3c0.6,0.6,1.2,1.2,1.7,1.8
		c8.1,8.9,13.8,21.2,14.8,36.1c-2.3,0.7-3.6,11.5-3.3,15.9c-0.1-3.6,1.4-10,3.4-12.6c4.6-0.9,11.8-3.4,14.3-7
		c-2.8,2.3-9.9,5.5-13.1,5.5c0.9-11.1-0.6-22.2-4.3-32.7c-0.5-1.4-1-2.8-1.6-4.1c1.7,1.5,3,3.3,4.1,5.2c1.9,3.4,3.1,6.9,3.9,9
		c-0.2-2.5-0.6-5.3-1.2-7.8c-0.5-2.1-1-4.1-1.6-5.4c3.3,1.9,2.2,4.4,5.3,7c-1.9-7.5,0.5-10.9,5.8-13.3c2-0.8,5.7-2.3,9.8-3.6l0,0
		c7.1-2.3,15.3-4.2,17.1-1.9c0.2-0.6,0.2-1.3,0.3-2.1c0-1.1-0.2-2.3-0.6-3.6C494,231,483.9,233.8,475.2,237.6z"/>
	<path d="M498.9,272.3c-2.2,0.5-4.3,1.2-6.3,2.2c3.2-0.9,6.2-1.2,8.9-1c4.1,0.3,7.4,1.6,10,3.5c-2.6-5.1-4.4-11.2-5-18.6
		c0-0.1,0-0.2,0-0.4c-0.1-0.6-0.1-1.3-0.1-1.9c0-0.2,0-0.4,0-0.6c0-0.6,0-1.2-0.1-1.8c0-0.2,0-0.5,0-0.7c0-0.8,0-1.5,0-2.3
		c0-0.1,0-0.1,0-0.2c-0.6,1.5-1.5,2.9-2.4,4c1.1,5.9,3.6,17,4.2,18.9c-1.7-0.8-3.5-1.2-4.5-1.4c-1.4-4.8-2.5-9.6-3.5-14.4
		c-0.9,0.5-1.8,0.8-2.7,1.1c0.8,4.2,2.3,11.4,2.6,13.4C499.6,272.2,499.2,272.3,498.9,272.3z"/>
	<path fill="#96877D" d="M503.8,279.2c-2.1-0.2-4.2,0.4-6.5,1.5c-4.4,2.1-9.2,6.2-14.6,10.4c0,0-0.1,0.1-0.1,0.1h28.6v-0.1
		C513.1,285.4,511.9,279.9,503.8,279.2z"/>
	<path fill="#337321" d="M554.2,320c-5.1-4.7-10.9-9.2-17.3-13.7c-0.4-0.3-0.9-0.6-1.3-0.9c0.4,0.4,0.9,0.7,1.3,1.1
		c5.4,4.7,9.8,9.2,13.4,13.5c3.2,3.9,5.8,7.6,7.7,11.1c1,0.5,1.9,0.9,2.5,1.3l4.6,2.6l1.4-0.4C563.2,329.3,559,324.5,554.2,320z"/>
	<path fill="#337321" d="M494.6,224.4c-0.5,0.2-1.3,0.3-2,0.3c0,0,0.1,0.1,0.1,0.1C493.2,224.7,494,224.6,494.6,224.4z"/>
	<path fill="#337321" d="M498.3,225c0.1,0,0.2,0.1,0.2,0.1C498.4,225,498.4,225,498.3,225z"/>
	<path fill="#337321" d="M503.2,227.2c-0.5-0.3-1-0.7-1.4-1.4c-0.2-0.2-0.3-0.4-0.5-0.7c0,0,0,0,0,0
		C501.9,226.1,502.6,226.8,503.2,227.2z"/>
	<path fill="#337321" d="M498.2,224.9c-0.5-0.2-0.9-0.5-1.2-0.8c0,0,0,0,0,0c-0.1-0.1-0.1-0.1-0.2-0.2c-0.5-0.6-0.8-1.3-0.9-1.9
		c0,0,0,0,0,0C496,223.1,496.7,224.4,498.2,224.9z"/>
	<path fill="#337321" d="M580.3,297.7c-19.1-4.1-35.3-9.1-42.7-15.8c-4.9-4.3-0.7-5.8,4.3-3c0,0,0.1,0,0.1,0.1l3.3-7.6
		c-3.5-1-6.9-2.9-9.8-5.6c-10.9-10-19-22.7-23.6-36.7c-2,0.3-5.6-1.1-5.9-3.5l0,0c0-0.2-0.1-0.4-0.1-0.6c0.3,1.1-0.1,1.7-0.4,2
		c-0.5,0.5-1.3,0.7-2.2,0.3c0.1,0,0.2,0.1,0.2,0.1c4.5,6.5,7,14.4,3.6,19.9c-0.7-2.8-3.4-2.6-3.4-4.8c-4.8,12.8-17.9,9.4-17.4-0.7
		c3.8,3.1,10.4,3.3,12.4-1.4c0.4-0.9,0.6-2.1,0.6-3.3c0,0.7-0.1,1.4-0.3,2.1c-0.1,0.4-0.2,0.8-0.3,1.1c-1.9,4.7-8.6,4.5-12.4,1.4
		c-0.3,0.4-0.5,0.8-0.7,1.2l0,0c-7.1,12.1,2.9,18.3,11.6,15.8c0.9-0.3,1.8-0.6,2.7-1.1c1.4-0.8,2.7-1.8,3.8-3.1c1-1.1,1.8-2.4,2.4-4
		c0,0.1,0,0.1,0,0.2c0,0,0-0.1,0-0.1h0c3.7,12.6,14.4,9.7,18.4,15.9c-2.8,1-7.2,0.3-9.2,0.6c7.7,0.9,11.1,7.8,13.1,12.3
		c-4.2,1-6.8-1.3-8.5-1.3c6.9,3.5,4.9,14,9.8,17.2c0.5,0.3,1.1,0.6,1.6,0.9c1.8,1,3.6,1.8,5.4,2.7c16.3,7.4,35.8,11.2,50.4,21.1
		c2,1.3,3.9,2.8,5.7,4.4c4.1,3.7,1.8,6.6-1.1,6.7c4.3,0.1,8.9-4.9,10.1-11.1C603.5,311.9,599.1,301.7,580.3,297.7z"/>
	<path fill="#337321" d="M535,305c0.2,0.1,0.4,0.3,0.6,0.4c-0.2-0.2-0.4-0.3-0.6-0.5V305z"/>
	<path fill="#337321" d="M506.2,253.7c0-0.2,0-0.5,0-0.7C506.2,253.3,506.2,253.5,506.2,253.7z"/>
	<path fill="#337321" d="M506.3,255.5c0,0.2,0,0.4,0,0.6C506.3,255.9,506.3,255.7,506.3,255.5z"/>
	<path fill="#337321" d="M506.4,258c0,0.1,0,0.2,0,0.4C506.5,258.3,506.4,258.2,506.4,258z"/>
	<path fill="#F7E017" d="M542,279L542,279c8.1,5.4,17,7.6,25.8,4.9c0,0,0,0,0,0c6-1.8,12.1-5.8,17.9-12.5c1.9-2.1,4.1-4.2,6.5-5.8
		c-2.1-3.3-3.8-6.6-3.8-8c0-1.5-0.2-1.6-5.5-1.9c-9.3-0.6-12.3-1.4-14.1-3.4c-1.7-1.9-1.7-1.7-0.6-9.8l0.4-2.7l-5.5-3.6
		c-0.6-0.4-1.3-0.8-1.9-1.2l-15.9,36.2L542,279z"/>
	<path fill="#F7E017" d="M492.6,224.7c3.5,2.8,5.4,5.9,6.2,8.8c0.4,1.3,0.6,2.5,0.6,3.6c0,1.2-0.2,2.4-0.6,3.3
		c-2,4.7-8.6,4.5-12.4,1.4c-0.5,10.1,12.6,13.5,17.4,0.7c0,2.2,2.7,2,3.4,4.8c3.4-5.5,0.9-13.4-3.6-19.9c-0.1,0-0.2-0.1-0.2-0.1
		c0,0-0.1,0-0.1-0.1c-0.7-0.4-1.3-1.1-1.9-2.1c-1.1,0.2-2,0.2-2.8,0c-0.1,0-0.2-0.1-0.2-0.1c0,0-0.1,0-0.1,0c-1.4-0.6-2.1-1.9-2.3-3
		c0.1,1-0.1,1.7-0.7,2.1c-0.1,0.1-0.3,0.2-0.5,0.3c-0.6,0.3-1.4,0.3-1.9,0.3C492.7,224.7,492.6,224.7,492.6,224.7z"/>
	<path fill="#F7E017" d="M520,278.1c1.7,0,4.3,2.3,8.5,1.3c-2-4.5-5.4-11.4-13.1-12.3c2-0.3,6.4,0.4,9.2-0.6
		c-4-6.2-14.7-3.3-18.4-15.9h0c0,0,0,0.1,0,0.1c0,0.8,0,1.6,0,2.3c0,0.2,0,0.5,0,0.7c0,0.6,0,1.2,0.1,1.8c0,0.2,0,0.4,0,0.6
		c0,0.6,0.1,1.3,0.1,1.9c0,0.1,0,0.2,0,0.4c0.6,7.4,2.4,13.5,5,18.6c0.2,0.4,0.4,0.8,0.6,1.1c1.2,2.2,2.6,4.2,4.1,6
		c2.2,2.6,4.6,4.9,7.3,6.9c2.1,1.6,4.3,3,6.6,4.3c-0.1,0-0.1-0.1-0.2-0.1C524.9,292.1,526.9,281.6,520,278.1z"/>
	<path fill="#96877D" d="M446.4,185.3l0.2,4c3.7,2.1,7,4.7,9.8,7.9l-0.4-2.3l-0.1,0v-0.6l-0.9-5.9h0.9v5.9l0.1,0.6l0.5,0.3l5.6-3.2
		l0.5,0.9l-5.7,3.2c0,0.2,0,0.4,0,0.6l5.7,3.3l-0.5,0.8l-5.3-3c2.3,2.8,4.2,5.9,5.7,9.3l0-0.1c2.8,3.8,11.9,5.1,20.4,5.8
		c-0.3-1.9-0.5-4.4-0.7-7.9c-0.7-10.3-1-12.1-13.4-24.6c-4.1-0.2-8-1-11.7-2.8C453.9,180.4,450.3,183.1,446.4,185.3z"/>
	<path fill="#337321" d="M460,174.6c0-0.8,0.3-1.6,0.9-2.4c0,0,0,0-0.1-0.1c-1.3-1.3-2.6-2.6-3.9-3.8
		C457.5,170.7,457.3,172.9,460,174.6z"/>
	<path fill="#96877D" d="M462.6,199.9l-5.7-3.3c0-0.2,0-0.4,0-0.6l5.7-3.2l-0.5-0.9l-5.6,3.2l-0.5-0.3l0.4,2.3l0,0.3l0.4,0.2l5.3,3
		L462.6,199.9z"/>
	<polygon fill="#96877D" points="455,188.3 455.9,194.2 455.9,188.3 	"/>
	<polygon fill="#96877D" points="455.9,194.8 456,194.8 455.9,194.2 	"/>
	<path fill="#337321" d="M451.9,214.2l5.6-3.6c-1-1.8-3.7-3.3-5-3.8c-0.3,1.2,0.2,3.8,0.3,5c-1.1-1-2.6-1.6-4.1-1.6
		c0,1.3,0.7,2.8,1.4,3.9c0,0,0.1,0.1,0.1,0.1C450.6,214.5,451.2,214.4,451.9,214.2z"/>
	<path fill="#F7E017" d="M494.5,217.7C494.5,217.7,494.5,217.7,494.5,217.7C494.5,217.7,494.5,217.7,494.5,217.7
		c0.3,0.7,0.6,1.4,0.8,2.1c0.3,0.8,0.4,1.4,0.5,2c0,0,0,0,0,0c0.1,0.8,0.5,1.5,1,2.1c0.1,0.1,0.1,0.1,0.2,0.2c0,0,0,0,0,0
		c0.3,0.3,0.7,0.6,1.2,0.8c0,0,0.1,0,0.1,0c0.1,0,0.2,0.1,0.2,0.1c0.8,0.2,1.7,0.3,2.8,0c0,0,0,0,0,0c0,0,0.1,0,0.1,0
		c0.1,0.3,0.3,0.5,0.4,0.7c0.5,0.7,0.9,1.1,1.4,1.4c0,0,0.1,0,0.1,0.1c0.9,0.4,1.7,0.2,2.2-0.3c0.3-0.3,0.4-0.6,0.4-1l-0.2-3.2
		c-2.6-1.3-3.9-2.3-5.2-3.7c-1.4-1.4-3.4-3-4.5-3.5c0,0,0,0-0.1,0C494.8,216.1,494.1,216.9,494.5,217.7z"/>
	<path fill="#F7E017" d="M472.1,221.5c1.3,3.2,6.2,2.3,6,1.2c1.5,1.6,6.6,0.8,6.2-1.1c0,0,0-0.1-0.1-0.1c-0.1-0.3-0.2-0.6-0.3-0.9
		c-0.5-1.4-1-2.9-2.1-5.1l-0.1,0.1c-0.1-0.1-0.1-0.3-0.1-0.4c-0.1-0.3-0.3-0.6-0.4-0.9c-1.6-3.4-4.6,1.1-6.5-1c-2-2.2-5.7,0.9-5,2.4
		l0.7,1.6c0.7,1.6,1.2,2.7,1.5,3.5L472.1,221.5z"/>
	<path fill="#F7E017" d="M450.2,225.1L450.2,225.1c1.3-0.3,2.8-1.2,4.2-2.9c0.7,1.4,3.5,2.1,4.5,0.7c0.4-0.5,0.4-1.2,0.2-2
		c-1.1-1.7-2-4.1-2.4-5.6c-0.1-0.1-0.1-0.2-0.1-0.3c-1.2-1.9-3.2-1.2-4.7-0.8c-0.7,0.2-1.4,0.3-1.7,0c0,0-0.1-0.1-0.1-0.1
		c-1.2-0.9-3.5,0.2-2.6,2.4c1,2.5-1.7,3.7-1,6.5c0,0.1,0.1,0.2,0.1,0.3l0,0C447.1,224.7,448.5,225.5,450.2,225.1z"/>
	<path fill="#337321" d="M481.6,215.2c0,0.1,0,0.3,0.1,0.4l0.1-0.1l0,0c0.7,1.5,1.4,3.2,2.1,5.1c0.1,0.3,0.2,0.6,0.3,0.9
		c0,0,0,0.1,0.1,0.1c1,2.1,5,2.8,6.2,2c0.5,0.7,1.3,1,2.1,1c0.7,0.1,1.5-0.1,2-0.3c0.2-0.1,0.4-0.2,0.5-0.3c0.6-0.4,0.8-1.1,0.7-2.1
		c0,0,0,0,0,0c0-0.1,0-0.1,0-0.2c-0.1-0.6-0.2-1.2-0.5-2c-0.2-0.6-0.5-1.3-0.8-2.1c0,0,0,0,0,0c0,0,0,0,0,0
		c-0.4-0.9-0.9-1.6-1.5-2.1c-0.3,0.3-0.7,0.6-1.2,1.1c-2.2,2.1-2.9,2.3-5.8,1.2c-1.5-0.5-2.3-1.5-2.8-4.1
		C482.3,214.2,481.7,214.7,481.6,215.2z"/>
	<path fill="#337321" d="M506,225.6c0.3,2.4,4,3.8,5.9,3.5c0.5-0.1,0.9-0.2,1.1-0.5c0.4-0.5,0.8-1.3,1-2c-1.1-0.5-2.2-1-3.2-1.4
		c-2.1-0.9-3.7-1.6-5-2.2L506,225.6L506,225.6z"/>
	<path fill="#337321" d="M456.7,215.3c0.5,1.5,1.3,3.9,2.4,5.6c0.5,0.7,1,1.3,1.7,1.6c1.7,0.9,5,1.1,5.2-0.1c0.9,1.8,4.7,2.3,5.6,1
		c0.5-0.7,0.7-1.1,0.2-2.5c-0.3-0.8-0.7-1.9-1.5-3.5c-0.3-0.6-0.6-1.3-1-2.1c-1.4-3.2-4.8,0.1-7.3-1.7c-2.2-1.6-5.4,0.2-5.5,1.5
		C456.6,215.1,456.6,215.2,456.7,215.3z"/>
</g>
</svg>
