<?xml version="1.0" encoding="utf-8"?>
<!-- Generator: Adobe Illustrator 17.1.0, SVG Export Plug-In . SVG Version: 6.00 Build 0)  -->
<!DOCTYPE svg PUBLIC "-//W3C//DTD SVG 1.1//EN" "http://www.w3.org/Graphics/SVG/1.1/DTD/svg11.dtd">
<svg version="1.1" id="flag-icon-css-pr" xmlns="http://www.w3.org/2000/svg" xmlns:xlink="http://www.w3.org/1999/xlink" x="0px"
	 y="0px" viewBox="0 0 640 480" enable-background="new 0 0 640 480" xml:space="preserve">
<g>
	<path fill="#ED0000" d="M413.2,239.7L329.8,288h231.8c0-0.2,0-0.5-0.1-0.9c-0.2-1.3,0.2-2.3,1.9-4.6c1.5-2,2.1-3.3,1.8-4
		c-1-2.4,0.2-5.3,5-11.3c2.5-3.1,3.8-4.2,5.9-4.8c2-0.6,2.8-1.2,3.6-3c3-6.7,7.5-9,12-6.4c1,0.7,2.2,1.1,2.5,0.9
		c0.3-0.2,1.1,0.1,1.7,0.7c1.3,1.2,2.2,0.4,1.5-1.6c-0.6-1.9,1.7-4,5.6-5.2c1.9-0.6,3.6-1.4,4-1.9c1-1.2,3.3-1,5.6,0.4
		c2.7,1.7,3,1.6,5.7-0.9c1.9-1.8,2.2-2.3,1.6-3.4c-0.4-0.7-1.1-1.2-1.6-1.2c-0.9,0-0.9-0.6,0.4-4.1c0.7-1.9,3.3-2.2,5.2-0.7
		c0.9,0.7,1.5,1.6,1.5,2.1s0.4,0.9,0.9,0.9c0.6,0,0.9,0.6,0.9,1.5c0,1.9,1,2.6,2.2,1.5c0.7-0.6,0.9-1.4,0.6-2.7
		c-0.5-2.6,0-2.9,2.6-1.8c1.7,0.7,2.3,0.7,2.7,0.1c0.7-1.2,0.6-1.7-0.2-1.7c-2.3-0.1-6.5-6.8-5.9-9.3c0.4-1.4,0.2-1.4-2.6-1
		c-2.8,0.3-3.6,0.1-6.1-1.8c-0.1-0.1,0.1-0.8,0.6-1.5c0.4-0.8,0.8-2.3,0.9-3.5c0.1-1.8-0.1-2-1.7-2.4c-1-0.2-1.8-0.4-1.8-0.6
		c0-0.7,1.9-3.8,2.7-4.4c1.4-1.2,1-12.9-0.4-13.8c-0.6-0.3-1-1.2-1-2c0-0.8-0.4-1.5-0.7-1.7c-0.3-0.1-0.1-0.7,0.5-1.5H330.9
		L413.2,239.7z"/>
	<path fill="#FFFFFF" d="M619.8,192c0.3-0.4,0.8-0.9,1.3-1.5c1.4-1.5,2.6-3,2.6-3.3c0-0.2,0.4-1,1-1.6c0.6-0.6,1.2-2,1.5-3.1
		c0.2-1.1,0.7-2.5,0.9-3c0.3-0.7-0.1-1.2-1.4-1.8c-2.3-0.9-3.8-0.1-3.8,2.2c0,2.7-3.9,4.6-4.5,2.2c-0.5-1.8-2.6-1.5-4.3,0.6
		c-2.6,3.2-8.1,5-8.9,2.8c-0.2-0.6-1.3-0.9-3.8-0.8c-4.6,0.1-10.4-2.3-11-4.7c-0.2-0.8-0.7-1.7-1.2-1.9s-0.9-0.7-0.9-1.3
		c0-1.3-2.3-1.2-3,0.2c-0.4,0.6-1.4,1.5-2.4,1.9c-2.3,1-4.3,0.2-7.3-2.8c-1.3-1.3-3.2-2.7-4.2-3c-1.6-0.6-1.9-1-2-3.3
		c-0.2-2.6-0.2-2.7-2-2.3c-1,0.2-2.7,0.9-3.6,1.6c-1.9,1.4-3.7,1.6-3.7,0.6c0-0.4,0.7-1.5,1.6-2.7c1.8-2.4,0.9-3.6-1.2-1.7
		c-0.7,0.7-2.3,1.7-3.3,2.2c-1.8,0.9-2.2,0.9-4.2,0.1c-1.2-0.5-2.2-1.4-2.2-1.9c0-0.6-0.4-1-0.9-1c-0.4,0-1.8-1-3-2.3
		c-2.2-2.4-3.1-2.7-14.7-4.4c-2.2-0.3-4.8-1.4-7.5-3c-4.3-2.6-6.7-3.2-6.7-1.7c0,2.1-12.7,1.4-20-1.2c-5.8-2-11.7-2.2-12.7-0.3
		c-1,1.9-4.1,3.1-7.1,3c-1.5-0.1-3,0-3.1,0.2c-0.5,0.5-4.4-1.1-5.9-2.4c-0.7-0.6-2.6-1-5.3-1.1c-3.3-0.1-4.9-0.6-7.1-1.9
		c-3.5-2-10.4-3.8-17-4.3l-5.1-0.4l1.1,1.5c1.8,2.4,3.3,3.1,4.3,2c0.5-0.5,1.5-0.7,2.3-0.6c1.1,0.2,1.4,0.6,1.2,1.7
		c-0.2,1,0.2,1.8,1.9,3.1c1.2,0.9,2.7,1.5,3.4,1.4c1.4-0.2,3.2,1.1,3.2,2.3c0,0.5-0.5,0.9-1.2,0.9c-0.6,0-2.4,0.7-4,1.5
		c-3.8,2-4.3,2-5.2-0.6c-0.7-2-0.9-2.1-3.4-2c-3.3,0.1-6.2-1.5-5.7-3.3c0.2-0.7,0.1-1.7-0.3-2.5c-0.8-1.5-4-1.7-5.6-0.2
		c-0.6,0.5-2.8,1.2-5,1.6c-4.9,0.9-6.7-0.1-7.8-3.9c-0.6-1.9-0.9-2.3-1.5-1.9c-0.6,0.5-3.6,0.5-10.3,0.1c-10.1-0.6-10.3-0.7-15.2-3
		c-3.3-1.6-6.2-1.5-8.2,0.1c-1.7,1.4-3.6,1.6-5.9,0.6c-1.3-0.5-3.6-0.9-5.2-0.9c-1.5,0-4.6-0.6-6.9-1.3c-2.3-0.7-4.8-1.1-5.8-0.9
		c-1,0.2-2.1,0.1-2.5-0.2c-2.1-1.6-16.7-2.7-24.8-1.9c-9.8,1.1-9.4,1-11.5,4c-1,1.5-2.7,3-3.6,3.3c-1.9,0.6-8.2,0-10.9-1.1
		c-1-0.4-4.1-1-6.8-1.3c-2.7-0.3-6.1-1.2-7.5-1.8c-1.4-0.7-3.8-1.2-5.4-1.2c-1.5,0-4.4-0.6-6.2-1.2c-3-1.1-3.5-1.2-5.1-0.4
		c-2.8,1.5-7.6,1.9-8.8,0.8c-0.6-0.6-3.4-1.5-6.3-2.3c-6.2-1.6-13.5-1.4-15.5,0.4c-0.2,0.2-0.3,0.3-0.5,0.4l92.6,53.7H619.8z"/>
	<path fill="#FFFFFF" d="M249.2,334.7c0.1,1.1,0.4,1.4,1.6,1.5c0.9,0.1,1.9-0.2,2.4-0.7c1-1.2,5.3-1.3,7.7-0.1
		c0.9,0.5,2.3,0.9,3.1,0.9c1.5,0,9-2.3,9.9-3c0.4-0.3,2.1-0.7,3.8-1c1.7-0.2,6-1.5,9.6-2.8c9-3.3,12.2-4,13.8-2.9
		c0.8,0.6,1.8,0.7,2.5,0.4c2.7-1,5.6-0.6,7.7,1.1c3.4,3,5.2,4.9,7.3,7.5c1.9,2.4,2.3,2.6,5.1,2.6c1.7,0,3,0.2,3,0.6
		c0,0.3,0.9,1,2,1.5c1,0.6,3.4,1.8,5.1,2.8c1.7,1,3.3,1.9,3.6,1.9c0.3,0,1.9-1.4,3.5-3.1c1.7-1.7,3.3-3.1,3.6-3.1s0.7-0.9,0.7-1.9
		c0-1.9,0.4-2.1,2.8-1.9c0.7,0.1,2.3-0.7,3.6-1.8c2.1-1.6,2.9-1.9,6.3-1.9c3.5,0,4,0.2,5.3,1.8c0.8,1,3,3,4.8,4.4
		c1.9,1.4,3.8,3.1,4.4,3.8c0.8,1,1.4,1.1,3.3,0.8c1.9-0.4,3.3-0.1,7,1.5c6.2,2.7,9.6,2.3,13.3-1.2c1.4-1.4,2.8-2.5,3.2-2.5
		s1.4-0.7,2.2-1.5c0.8-0.9,1.7-1.5,2-1.5c0.3,0,2.3,0.8,4.5,1.9c2.2,1,4.7,1.9,5.6,1.9c2.3,0,2.6,1.5,0.6,3.3
		c-1.5,1.3-2,1.4-3.9,0.9c-1.2-0.3-3.5-0.7-4.9-0.9c-2.4-0.3-2.7-0.2-2.3,0.7c0.2,0.6,0.4,2.2,0.4,3.5c0,1.3,0.2,2.4,0.5,2.4
		c0.3,0,1.8-0.8,3.3-1.9c3.1-2.1,6.3-2.3,11.7-0.9c4.9,1.3,6.5,1.2,8.8-0.9c2.8-2.4,5.7-3.8,9.8-4.8c2.2-0.5,5.4-2,8.1-3.8
		c4.1-2.7,4.8-2.9,7.8-2.8c2,0.1,4,0.6,4.9,1.2c4.6,3.2,7,3.6,8.2,1.3c0.4-0.6,1-1,1.5-0.8c0.4,0.2,1.5-0.7,2.4-2.2
		c0.9-1.4,2.8-3.1,4.3-3.8c2.3-1.2,2.8-1.2,6.3-0.6c5.7,1.1,5.9,1.2,6.5,2.8c0.7,1.9,2.5,1.9,4.1,0.2c1-1.1,1.6-1.2,4.4-0.9
		c2.1,0.2,5.8,0,9.9-0.6c9.3-1.4,8.9-1.3,12.1-3.7c2.3-1.9,3.3-2.2,5.3-2.1c2.3,0.2,2.6,0,4.1-2.2c2.3-3.4,3.1-4,6.3-4
		c1.6,0,3.5-0.5,4.8-1.3c1.4-0.9,2.7-1.2,4-1c2.2,0.4,3.3-1.2,2.8-3.9c-0.2-1-0.1-1.8,0.4-1.9c0.5-0.2,0.4-0.7-0.1-1.7
		c-1-2-0.3-5.9,1.6-8.2c2.3-2.8,3.6-3.2,5.6-2.2c3.5,1.9,5.4-0.1,6.1-6.1c0.4-3.6,1.1-5.2,2.3-5.2c0.4,0,0.6-0.2,0.7-0.8H329.8
		L249.2,334.7z"/>
	<path fill="#0050F0" d="M31.5,343.4c0,2.5,0.1,2.8,2.5,4c2.9,1.4,3.2,0.7,1.2-2.5c-1.7-2.8-1.5-4.9,0.6-7c1.6-1.5,2.2-1.7,4.4-1.4
		c1.4,0.2,3.6,1,4.9,1.9c1.4,1,3.1,1.6,4.4,1.6c1.1,0,3.2,0.4,4.6,0.9c1.4,0.5,5.2,1,8.6,1.3c5.7,0.4,6.3,0.3,7.9-0.9
		c0.9-0.7,1.7-1.7,1.7-2.2c0-0.5,0.8-0.9,2-1c1.5-0.1,2-0.5,2.2-1.5c0.3-2.3,2.1-3.3,6.1-3.3c13.6,0,17.5,0.3,18.9,1.6
		c2.4,2.2,3.4,2.2,3.8,0.2c0.3-1.6,0.6-1.8,1.7-1.5c3.3,0.9,4.2,1.7,4.2,3.7c0,2.4,0.5,2.8,6.3,5.8c3.3,1.7,4.5,2.7,4.5,3.5
		c0,1,0.6,1.2,3.4,1.5c1.9,0.2,4.2,0.7,5.2,1.1c2,0.9,4.6,0.4,4.6-0.7c0-1.2-1.3-2.3-2.6-2.3c-2.5,0-1-1.8,2.2-2.7
		c4.6-1.4,4.8-2.3,1-6.1c-1.7-1.7-3.1-3.3-3.1-3.6c0-0.9,1.1-0.6,2.9,0.9c1,0.8,2.5,1.6,3.3,1.7c1.3,0.1,1.5,0.6,1.5,2.2
		c0,3.1,0.9,3.6,5.8,2.8c8.3-1.4,9.8-0.9,8,2.4c-0.6,1.2-0.6,1.2,0.6,0.6c0.7-0.4,1.7-1.5,2.2-2.5c1.1-2.2,2.8-2.4,6.1-0.8
		c2.8,1.3,5.6,0.6,12.1-3.2c2.5-1.4,5.7-3,6.9-3.4c2.6-0.8,4.2-2.7,4.2-4.8c0-1.7-0.2-1.7-2.3-0.2c-2.3,1.7-5.7,2.3-5.7,1
		c0-0.6,0.6-1,1.4-1.2c0.9-0.1,1.4-0.6,1.4-1.4c0.1-0.7,0.1-1.5,0.2-1.9c0.1-0.4,1.1-0.9,2.5-1.1c1.3-0.2,2.7-0.7,3.1-1.3
		c0.4-0.5,1.9-1.5,3.4-2.4c2.7-1.4,2.7-1.4,3.8-0.3c0.7,0.8,1.5,1,2.5,0.8c1.9-0.5,1.9,0.6,0,1.6c-1.4,0.7-1.4,0.9-0.6,1.7
		c1.1,1.2,1.1,2.6-0.1,4c-0.6,0.7-0.8,1.4-0.4,2c0.6,1.1,1.4,0.6,2.7-1.7c1.4-2.8,3.8-3.7,9.1-3.4c3.7,0.2,4.8,0.6,5.5,1.6
		c1,1.5,8.1,5.1,10.1,5.1c0.7,0,2.3,0.4,3.6,1c3.1,1.4,5.6,1.1,7.5-0.7c3-2.9,11.4-4.4,14-2.5c0.8,0.6,1.2,1.7,1.2,3.3
		c0,0.4,0,0.7,0,1l80.6-46.7l83.3-48.3L330.9,192l-92.6-53.7c-0.9,0.5-2.2,0.5-5.6,0.3c-4.9-0.3-5-0.3-6.8,1.5
		c-1.7,1.7-2,1.8-5.2,1.4c-3.2-0.4-3.3-0.3-3.6,1l-0.2,1.5l-7.7-0.2c-6.1-0.2-8-0.4-9.3-1.3c-0.9-0.6-2.1-1.2-2.8-1.4s-3-1-5.2-2
		c-3.8-1.6-4.2-1.7-12.7-1.3c-11.4,0.6-12.4,0.6-20.7,0.3c-5.6-0.2-7.7,0-10.1,0.9c-4.6,1.7-8.6,1.4-19.3-1.4
		c-1-0.2-3.4-0.3-5.2-0.1c-4.1,0.4-10.3-0.5-12.3-1.9c-0.9-0.6-2.7-1.2-4-1.5c-1.4-0.2-3.8-1-5.4-1.9c-1.6-0.8-3.7-1.5-4.7-1.5
		c-1,0-3-0.4-4.5-0.9c-4.2-1.4-24.6-1.6-32-0.4c-5.1,0.8-6.4,1.2-9.1,3.3c-1.8,1.4-3.6,2.8-4,3.5c-0.4,0.6-1.7,1.4-2.8,1.9
		c-3.1,1.2-4.1,4-2.8,8.2c0.5,1.7,1.5,4.1,2.1,5.2c1.5,2.5,2.5,7.8,2.1,10.9c-0.4,2.6-2.1,4.2-7.3,6.9c-1.7,0.9-4,2.5-4.9,3.5
		c-2,2.2-9.4,5.9-13.1,6.5c-1.2,0.2-4.1,1.2-6.4,2.2c-2.3,0.9-5.4,1.9-7,2.2c-3.9,0.5-4.4,1.4-3.1,4.9c0.6,1.5,1.7,3.5,2.5,4.4
		c0.7,0.9,3,4.8,5,8.7c4.1,7.8,5.8,9.3,11.1,9.3c5.8,0,10.4,3.9,11.7,9.9c0.2,1.2,1.4,3.5,2.5,5.2c1.4,2,2.3,4.4,2.7,6.8
		c0.8,4.6,1.6,6.5,2.7,6.5c1.1,0,3,2.1,2.5,2.7c-0.2,0.2,0.2,0.8,0.9,1.4c0.9,0.6,1.4,1.6,1.4,2.9c0,1.5-0.7,2.7-3.8,5.7
		c-5.2,5.1-8,8.6-7.5,9.8c0.2,0.6,0.7,1,1.2,1c1.4,0,1,4.3-0.4,6.7c-0.9,1.5-1.1,2.5-0.7,3.4c0.3,0.7,0.4,3.1,0.2,5.4
		c-0.3,4.4-0.9,5.6-4.7,8.1c-1.2,0.9-1.5,1.5-1.2,2.5c0.2,0.8,0.1,1.7-0.3,1.9c-1.4,0.9-0.6,2.1,2.5,3.3c3.5,1.5,3.7,2.5,0.6,3.6
		c-2.8,0.9-3.9,2.5-3.5,5.2c0.3,1.8,0.1,2.5-1.6,4.1l-1.9,2l1.8,0.4c1,0.2,3,0.9,4.4,1.6c1.4,0.6,3.1,1.2,3.8,1.2
		c1.4,0,4.4,2.3,4.4,3.4c0,1.4-3.7,4-7.3,5c-4.5,1.3-7.1,3.3-8,6.1c-1,3.3,0.9,8.8,4.1,12.1C31.1,340.4,31.5,341.2,31.5,343.4z
		 M65.2,217.2l54.7-0.4l17-54.4l17.3,54.2l54.7,0.1l-44,34l16.9,54.4h-0.1l-44.4-33.3l-44.3,33.6l16.5-54.5L65.2,217.2z"/>
	<polygon fill="#FFFFFF" points="92.9,305.4 137.2,271.9 181.6,305.2 181.7,305.2 164.8,250.8 208.8,216.8 154.2,216.7 136.8,162.5 
		119.8,216.8 65.2,217.2 109.4,251 	"/>
</g>
</svg>
