<?xml version="1.0" encoding="utf-8"?>
<!-- Generator: Adobe Illustrator 17.1.0, SVG Export Plug-In . SVG Version: 6.00 Build 0)  -->
<!DOCTYPE svg PUBLIC "-//W3C//DTD SVG 1.1//EN" "http://www.w3.org/Graphics/SVG/1.1/DTD/svg11.dtd">
<svg version="1.1" id="flag-icon-css-pt" xmlns="http://www.w3.org/2000/svg" xmlns:xlink="http://www.w3.org/1999/xlink" x="0px"
	 y="0px" viewBox="0 0 640 480" enable-background="new 0 0 640 480" xml:space="preserve">
<g>
	<path fill="none" d="M240.7,121c-0.2,0.1-0.3,0.9-0.3,1.7v1.4l0.7-1.3c0.4-0.7,0.7-1.5,0.7-1.7C241.8,120.6,241.1,120.5,240.7,121z
		"/>
	<path fill="#FF0000" d="M352.5,193.8C352.5,193.8,352.5,193.8,352.5,193.8C352.5,193.8,352.4,193.8,352.5,193.8L352.5,193.8z"/>
	<path fill="#FF0000" d="M345.7,183.7C345.7,183.7,345.7,183.7,345.7,183.7L345.7,183.7C345.7,183.7,345.7,183.7,345.7,183.7z"/>
	<path fill="#FF0000" d="M394.9,45.8c-2.6,0-3.4,0.1-3.6,0.7c-0.5,1.3-2.9-1-4.9-4.7l-1.8-3.5l0.9-2.6c0.5-1.4,0.9-3.4,0.9-4.3
		s0.2-1.9,0.6-2.2c0.7-0.7-0.3-2-1.6-2c-1.3,0-1.6-1.3-0.7-3.6c0.7-2,0.7-2-0.5-3.2c-1.5-1.3-1.3-1.3-4-0.2
		c-1.6,0.7-2.9,0.9-5.3,0.8c-3.2-0.1-3.2-0.1-4.1-2c-1.7-3.3-4.4-3.2-4.4,0.2c0,2,0.4,1.9-5.7,2c-2.6,0.1-2.7,0-3.6-1.5
		c-1-1.8-1.9-1.9-3.6-0.6c-0.7,0.6-1.9,0.9-3.1,0.9c-1.7,0-2-0.1-2.5-1.4c-0.5-1.2-0.7-1.4-2.2-1.4c-2.3,0-5.4,0.9-5.7,1.7
		c-0.1,0.3,0.1,1.5,0.6,2.6c1.3,3.3,0.9,4-3.5,6.7c-3.6,2.3-4.1,2.5-6.1,2.2c-2.4-0.2-3,0-3.3,1.3c-0.4,2-4.1,0.9-4.1-1.1
		c0-2.7-3.8-3.9-4.1-1.3c-0.1,1.3-1.2,1.9-4.8,2.5c-1.5,0.3-1.7,0.2-2-0.7c-0.3-0.8-0.1-1.3,0.7-1.9c1.4-1.1,0.8-1.8-1.5-1.8
		c-1.3,0-2.4-0.3-3.3-1c-1.3-1-1.3-1-5.5-0.2c-3.3,0.6-4.6,1.1-5.9,2.1c-0.9,0.8-1.8,1.4-2,1.4c-0.1,0-0.6-1.5-0.9-3.4
		c-0.7-4.1-0.9-4.5-2.2-4.1c-0.8,0.2-1,0.6-1,2c0,1.6-0.1,1.8-2,2.4c-1.8,0.7-2,0.9-2.1,2.4c-0.1,1.4-0.4,1.8-1.9,2.5
		c-2.6,1.1-6,1.7-7.5,1.1c-1.2-0.4-1.3-0.8-1.8-3.3c-0.4-2.5-1.3-4-2.4-4.1c-0.1,0-0.5-0.5-0.8-1.2c-0.5-1.1-0.4-1.4,1.3-3.6
		c1-1.3,1.9-2.9,2.1-3.4c0.1-0.6,1.1-1.3,2.1-1.8c1.8-0.8,1.9-0.9,1.9-3c0-1.7-0.2-2.4-1.1-3.2c-0.9-0.9-1.3-1-2.1-0.6
		c-0.5,0.3-1.5,0.4-2.2,0.2c-1.2-0.3-1.2-0.4-1-3.3c0.1-1.6,0.1-3-0.1-2.9c-0.1,0-1.9,0.9-3.9,2c-2,1.1-4.1,2.4-4.6,3
		c-1.3,1.2-6.2,2.1-8.9,1.7V134h3.4v-1.2h-0.1h0.1h2.2v1.9c33.7,1.8,63.2,19.5,81.3,45.6c1,0.5,1.9,0.9,2.8,1.4l0.9,1.4c0,0,0,0,0,0
		l0.3,0.5l1.3,2.1c-0.1-0.1-0.2-0.2-0.2-0.3l0.1,0.3c-0.2,0.2-0.5,0.4-0.9,0.6l1.9,3.3c0.8,0.4,1.4,0.8,1.7,1.2l1.7,3v0.1l0-0.1
		c-0.2,0.2-0.6,0.5-1.3,0.8c4.3,9.1,7.4,18.9,9,29.1c0.8-2.9,1.4-6,1.2-6.8c-0.2-0.9,0.1-1.4,1.4-2.5c2-1.6,2.5-3.3,1.5-4.7
		c-0.8-1.2-0.9-2-0.1-3.6c0.4-0.7,0.7-2.6,0.9-4.3c0.3-2.8,0.2-3.2-1.1-5.1c-0.8-1.1-1.9-2.7-2.4-3.6s-1.8-1.9-3-2.4
		c-2-0.8-2-0.9-2-3.1c0-1.3,0.3-3.2,0.7-4.3c0.9-2.7,4.2-6.5,5.6-6.5c3,0,3.9-0.5,4.7-2.8c0.6-1.5,1.4-2.7,2.6-3.7
		c1-0.8,1.8-1.6,1.8-1.9c0-0.3-0.8-1.2-1.8-2.1c-2-1.8-3.3-4.8-3.3-7.4c0-1.1,0.5-2.1,1.9-3.6c1.2-1.3,1.9-2.6,1.9-3.3
		c0-1.3-1.9-3.5-2.9-3.5c-1.4,0-1.2-1.8,0.4-3.3c1.4-1.3,1.6-1.6,1.6-4.1c0-1.4-0.2-5.1-0.5-8s-0.6-6.8-0.7-8.6
		c-0.1-3.2-1-5.6-2.3-6.7c-0.4-0.3-0.7-1.2-0.7-1.9c0-2-0.7-3.3-2.5-5.1c-1.3-1.3-3.1-4-3.1-4.9c0-0.1,0.6-0.2,1.2-0.2
		c0.7,0,2.6-0.4,4.4-1c4.2-1.3,5.6-2.8,7.2-7.7c0.9-2.9,1.9-4.7,4-7.5c3-4,4-4.9,6.4-5.4c0.8-0.2,2.1-0.8,2.8-1.3
		c0.7-0.6,1.8-1.2,2.4-1.3c4.7-1.1,6-1.7,6-2.9c0-0.3,0.8-1.4,1.9-2.5s2-2.5,2.1-3.1c0.2-0.8,0.9-1.4,2.6-2.1
		c1.7-0.7,2.5-1.4,2.9-2.4c0.3-0.8,1.7-3.3,3.1-5.7c1.4-2.3,2.8-5.1,3.1-6.1l0.7-1.9l-2.6-2.9C404.5,47.9,400,45.8,394.9,45.8z"/>
	<path fill="#FF0000" d="M349,291.2c0.3,0,0.5-0.1,0.7-0.1c0-0.3-0.1-0.7-0.2-1.1l-0.1,0.5L349,291.2z"/>
	<path fill="#FF0000" d="M351,290.4l0.1,0.1l-1.7,2.6c0.2-0.3,0.3-0.6,0.3-0.9l-0.4,0.8c-0.3,0.2-0.8,0.3-1.6,0.2l-6.1,9.6l0,0
		c0.2,0.7,0.2,1.4-0.1,1.8l-1.3,2.1l-0.1,0.1c-0.5,0.7-1.3,0.7-2.6,0.6c-18.3,22.1-45.3,36.7-75.8,38.3v1.8h-2.2v-1.2H256v119.4
		c2.4,0,3.1,0.3,4.4,1.2c1.6,1.1,2,1.2,3,0.6c0.6-0.3,1.5-0.5,2.1-0.3s1.6,0,2.3-0.2c1.6-0.7,3.3-0.6,4.2,0.3c0.4,0.3,1.3,0.8,1.9,1
		c1.4,0.4,9.8,5.2,13.6,7.8c4,2.7,5,3,7.4,1.8c1.1-0.6,2.6-1.6,3.4-2.3c0.8-0.7,2.3-1.9,3.5-2.6c1.2-0.7,1.7-1.1,1.2-0.9
		c-0.5,0.2-1.6,0.5-2.4,0.7c-0.8,0.2-2,1.1-2.6,2c-0.7,0.8-1.9,1.9-2.8,2.4c-1.5,0.8-1.9,0.8-3.2,0.2l-1.5-0.6l1.9-0.6
		c2.2-0.7,6.2-2.9,6.2-3.5c0-0.2,0.6-0.5,1.3-0.7c0.7-0.2,1.8-0.6,2.4-1c0.7-0.4,1.6-0.6,2.4-0.4c0.7,0.1,1.9,0,2.5-0.2
		c1.6-0.6,7.3-6.2,7.3-7.3c0-0.5,0.8-1.6,1.9-2.4c1.7-1.3,2.2-1.5,5-1.6c4.6-0.1,5.8,0.1,6.4,0.9c1,1.3,1.3,0.2,0.5-1.6
		c-1.6-3.7-1.9-5.6-1.3-7.6c0.5-1.6,0.4-2-0.2-3c-0.6-0.8-0.8-2.6-0.9-7.4l-0.2-6.3l-1.8-2.8c-1.8-2.7-3-5.8-2.9-7.4
		c0.1-2,1.2-4.7,3.5-8.4c2.3-3.7,2.5-4.2,2.3-6.1l-0.2-2l4.9-4.5l4.9-4.5l2.2-6.5l2.3-6.5l3.7-1c2-0.5,4.2-1.3,4.7-1.7
		c0.8-0.5,1.5-0.6,3.3-0.2c2.8,0.5,6-0.5,5.3-1.7c-0.3-0.5,0.2-2.6,1.6-6.6c1.9-5.6,2.7-8.9,2.4-8.9c-0.1,0-2.1,0.7-4.5,1.6
		l-4.3,1.6l-1.3-1c-1-0.8-1.5-1.8-1.9-3.6c-0.5-2.3-1.1-3.1-5-7.2c-2.9-3.1-4.9-5.7-6-7.8c-0.9-1.7-2.3-3.8-3.1-4.5l-1.4-1.3l1-2.2
		c0.6-1.3,1.1-3.7,1.3-5.7c0.2-2.6,0.5-3.9,1.3-4.9c0.8-1.1,1.1-2.4,1.4-5.9c0.2-2.4,0.4-5,0.4-5.6c0-1,0.5-1.4,3.4-2.8
		c3.8-1.9,4.3-2.3,5.1-4.8c0.6-1.6,0.9-1.9,2.7-2.2c1.1-0.2,2.6-0.9,3.3-1.5c0.7-0.6,1.7-1.2,2.2-1.4c1.2-0.4,1.2-1,0-1.4
		c-1.4-0.5-1.1-2.2,1.1-5.3c3.2-4.6,4-6.2,4-7.5c0-3.2-3.2-8.6-5.3-8.9c-0.6-0.1-2,0-3.3,0.2c-0.1,0-0.1,0-0.2,0
		c-0.6,1.3-1.2,2.7-1.9,4C351.3,288.4,351.4,289.6,351,290.4z"/>
	<path fill="#006600" d="M199.5,334.4c0,3.7-0.2,4.7-1.2,6.6c-0.6,1.3-1.3,2.4-1.6,2.6c-0.7,0.4-0.6,1.2,0.2,0.9
		c0.4-0.1,1.1,0,1.6,0.2c0.7,0.4,1.1,0.3,1.7-0.4c0.6-0.7,1.4-0.9,2.7-0.9c1.1,0,2.7-0.3,3.8-0.7c1-0.4,2.5-0.7,3.3-0.7
		c0.8,0,1.9-0.3,2.6-0.7c0.7-0.4,2.3-1.2,3.6-1.9c0.5-0.2,1-0.5,1.3-0.7c-6.6-2.6-12.8-5.8-18.6-9.5
		C199.4,330.1,199.5,331.2,199.5,334.4z"/>
	<path fill="#006600" d="M180,313.8l-0.5,0.5l-1,1.1l1.5,1.4c1.4,1.3,1.8,1.4,3.5,1.1c0.2,0,0.5-0.1,0.7-0.1
		C182.8,316.5,181.4,315.2,180,313.8z"/>
	<path fill="#006600" d="M250.4,132.8L250.4,132.8L250.4,132.8h2.3v1.2h3.3V9.2c-0.2,0-0.4-0.1-0.5-0.1c-1.6-0.4-2-0.3-4.3,1.1
		c-1.4,0.9-3.4,1.7-4.5,1.9c-1.7,0.2-2,0.6-2.9,2.3c-0.8,1.6-1.3,2.1-2.5,2.3c-3.1,0.6-3.2,0.7-3.2,2.6c0,1.2-0.2,1.8-0.6,1.8
		c-0.8,0-3.6,2.6-3.6,3.4c0,0.4-0.6,0.8-1.3,0.9c-0.8,0.2-2.1,1.3-3.3,2.7c-2,2.3-2,2.6-1.8,4.6c0.2,1.2,0.1,2.7-0.1,3.3
		c-0.4,0.9-0.3,1.3,0.2,1.7c0.3,0.3,0.7,1.2,0.7,2c0,0.9,0.5,1.9,1.3,2.7c0.7,0.7,1.1,1.4,0.8,1.5c-0.3,0.1-0.3,0.4,0,1
		c0.3,0.5,0.7,3.1,1.1,5.7c0.3,2.9,0.8,5,1.2,5.3c0.8,0.7,0.8,1.4,0,1.1c-1.2-0.5-1.2,0.5,0.2,3.8c1,2.5,1.3,4,1.3,6.3
		c0,2.2,0.3,4,1.2,6.2c0.7,1.7,1.4,4.8,1.7,6.7c0.2,2,1.1,5.7,1.9,8.2c1.9,6.1,2.7,10.5,2.7,13.9c0,4.7-1.7,16-3.3,21.4
		c-0.8,2.8-1.6,5.6-1.7,6.3c-0.1,0.7-0.7,2.6-1.2,4.4c-0.3,1-0.5,1.7-0.6,2.3c0.6-0.1,1.2-0.2,1.8-0.3c0.1-0.4,0.2-0.7,0.5-0.9
		c0.4-0.3,0.9-1.9,1.2-3.4c0.2-1.6,0.7-3.5,1.2-4.2c0.4-0.7,0.6-1.8,0.4-2.3c-0.1-0.6,0-1,0.3-1c0.3,0,0.5,0.2,0.5,0.5
		c0,0.3,0.5,0.4,1.4,0.2s1.4-0.1,1.4,0.2c0,0.3-0.4,0.5-0.8,0.5c-1.2,0-2.3,1.3-2.6,3.3c-0.4,2.1,0.5,2.9,3.2,2.9
		c1.5,0,2,0.2,1.8,0.6c-0.1,0.3-0.7,0.7-1.3,0.7c-0.5,0-1.2,0.1-1.5,0.1c-0.9,0.1-4.1,1.9-5,2.7c4.2-0.8,8.5-1.2,12.9-1.5V132.8z
		 M241.1,122.8l-0.7,1.3v-1.4c0-0.8,0.1-1.6,0.3-1.7c0.4-0.5,1.1-0.4,1.1,0.1C241.8,121.3,241.5,122.1,241.1,122.8z"/>
	<path fill="#006600" d="M252.7,346.3v1.2h-2.3v-1.7c-4.5-0.2-9-0.7-13.3-1.5l0.9,1h-1.5c-1.1,0-2.1-0.5-3.5-1.7
		c-0.1-0.1-0.2-0.1-0.2-0.2c-0.8-0.2-1.6-0.4-2.4-0.6c0,0,0,0-0.1,0c-1.2-0.3-2.4-0.6-3.5-0.9c0.2,0.6,0.2,1.1,0.1,1.1
		c-0.3,0-1.1-0.8-2-1.6c-1-0.3-2-0.6-2.9-0.9c0.4,0.4,0.8,0.8,1.3,1.2c3.4,3.1,4.3,5.3,5.2,13.2c1.1,9.4,1.1,10.5,0.1,12.3
		c-0.5,0.9-1.3,2.7-1.7,4c-0.4,1.3-1.4,4.5-2.2,7.2c-1.3,4.4-1.7,5-3,5.6c-1.7,0.8-2.1,2.3-0.8,3c2.6,1.3,4.7,3.2,5,4.1
		c0.1,0.6,0,1.8-0.2,2.6c-0.2,1-0.2,2.1,0,3c0.7,2.1,0.5,4.5-0.4,6.1c-0.8,1.5-0.7,3.4,0.4,4.4c0.7,0.7,0.3,6.4-0.7,11.5
		c-0.5,2.5-0.5,3.1,0.2,4.5c1.3,2.9,1.4,4.8,0.4,7.2c-0.5,1.2-1.2,3.7-1.5,5.5c-0.4,2.4-0.9,3.9-1.9,5.2c-1.4,1.9-2.1,5.8-1.4,7.7
		c0.6,1.7-1.5,5.7-3.4,6.4c-0.7,0.2-0.7,0.6-0.5,1.4c1,3.1,0.8,3.9-1.1,6c-1.1,1.1-1.9,2.3-1.9,2.6s-0.3,0.8-0.7,1.2
		c-0.4,0.3-0.7,1-0.5,1.6c0.1,0.6-0.1,1.2-0.7,1.5c-1.2,0.7-1.1,2,0.1,1.7c0.6-0.2,1.3,0.1,2.1,0.9c0.7,0.7,1.3,1.2,1.4,1.2
		c0.1,0,1-0.8,2-1.7c1.5-1.4,2.1-1.7,3.4-1.6c1.3,0.1,1.8-0.1,2.2-0.8c0.5-0.8,1.1-1,3-1c1.3,0,2.5-0.2,2.6-0.4
		c0.4-0.7,4-1.1,4.7-0.5c0.9,0.7,1.6,0.1,1.5-1.3c-0.1-1,0-1.3,0.8-1.3c0.5,0,1.2-0.2,1.5-0.4c0.3-0.2,0.8-0.2,1.2,0
		c0.3,0.3,2,0.3,4,0.1c2.5-0.2,3.4-0.2,3.6,0.2c0.3,0.8,3,1.2,7.9,1.2c0.7,0,1.2,0,1.7,0V346.3H252.7z"/>
	<path fill="#FFFF00" d="M339.9,305c0-0.1-0.1-0.3-0.1-0.4c-0.1,0.2-0.2,0.3-0.4,0.5C339.6,305,339.7,305,339.9,305z"/>
	<path fill="#FFFF00" d="M339.9,305c-0.2,0-0.3,0-0.5,0c-0.6,0.8-1.3,1.6-1.9,2.4c1.3,0.1,2.2,0,2.6-0.6l-0.5,0.4
		C339.7,307.1,340.2,306.4,339.9,305z"/>
	<path fill="#FFFF00" d="M349.7,291.3c0-0.1,0-0.2,0-0.3c-0.2,0.1-0.4,0.1-0.7,0.1l-1.3,2c0.8,0.1,1.4,0,1.6-0.2l0.4-0.8
		C349.7,292,349.7,291.7,349.7,291.3z"/>
	<path fill="#FFFF00" d="M345.7,183.7C345.7,183.7,345.7,183.7,345.7,183.7l1.5,2.6c0.4-0.2,0.7-0.4,0.9-0.6l-0.1-0.3
		C347.4,184.9,346.6,184.3,345.7,183.7z"/>
	<path fill="#FFFF00" d="M346.6,183.1C346.6,183.1,346.6,183.1,346.6,183.1l0.3,0.5L346.6,183.1z"/>
	<path fill="#FFFF00" d="M350.1,192.5c0.4,0.7,0.7,1.4,1.1,2.1c0.7-0.3,1.1-0.6,1.3-0.8l-0.1-0.1C351.8,193.3,351,192.9,350.1,192.5
		z"/>
	<path fill="#FFFF00" d="M352.5,193.9L352.5,193.9C352.5,193.8,352.5,193.8,352.5,193.9L352.5,193.9z"/>
	<path fill="#FFFF00" d="M349.1,284.4c0.3-0.6,0.5-1.1,0.8-1.7c-0.1-0.1-0.2-0.2-0.3-0.4c-0.4-0.6-0.8-1.9-0.8-2.8
		c0-1.3-0.2-1.9-1-2.3c-0.6-0.3-1.2-0.8-1.9-1.6c-0.4,1.1-0.9,2.2-1.4,3.3C346.4,281,347.9,282.8,349.1,284.4z"/>
	<path fill="#FFFF00" d="M332.2,295.5c-4.6-4.2-11.1-9.5-19.5-15.7c-3,6.1-7.1,11.8-12,16.7c-10.5,10.5-24.4,17-39.1,18.3v19.5
		C290.5,332.5,316,317.6,332.2,295.5z"/>
	<path fill="#FFFF00" d="M350.7,287.1c0.6-1.3,1.3-2.6,1.9-4c-0.1,0-0.1,0-0.2,0c-0.6,1.3-1.2,2.5-1.8,3.7
		C350.6,286.9,350.6,287,350.7,287.1z"/>
	<path fill="#FFFF00" d="M319.3,231.3v20.6c0,2.1-0.1,4.2-0.3,6.3c9.9,7.2,18.1,13.8,23.7,19.2c0.5-1.2,1-2.5,1.5-3.7
		c-0.3-0.4-0.6-0.9-1-1.4c-1.4-2.1-1.7-2.7-1.3-3.7c0.3-0.9,0.2-1.3-0.7-1.8c-0.6-0.4-2-1.7-3.1-2.9c-2.2-2.3-2.2-2.4-1.1-9.5
		c0.6-3.3,0.1-4.6-2.2-5.6c-1-0.4-2.1-1.3-2.5-2.1c-0.4-0.7-2-2.4-3.4-3.8c-1.4-1.4-3-3.3-3.5-4.4c-0.5-1-1.5-3-2.3-4.4
		c-1.5-2.5-1.5-2.5-0.4-2.2c0.3,0.1,0.9,0.2,1.7,0.3c-0.2,0-0.4-0.1-0.6-0.1C322.3,231.8,320.8,231.5,319.3,231.3z"/>
	<path fill="#FFFF00" d="M261.6,145.8v21.5l54.5,0.1C301.1,154.9,282.2,147,261.6,145.8z"/>
	<path fill="#FFFF00" d="M319.3,170.1v2.3c1.1,0.2,2.1,0.4,3.2,0.7C321.4,172.1,320.3,171.1,319.3,170.1z"/>
	<path fill="#FFFF00" d="M334.1,187.1c-4.4-1.2-9.4-2.3-14.8-3.3v36.1c1.7,0.3,3.4,0.6,5,0.9c10.1,2,18.7,4.3,25.3,6.9
		C347.6,212.7,342.1,198.9,334.1,187.1z"/>
	<path fill="#FFFF00" d="M326.6,174.1c4.1,1.1,8.1,2.5,12,4.2c-17.8-23.8-45.7-39.7-77-41.4v6.6C287.1,145,310.1,156.5,326.6,174.1z
		"/>
	<path fill="#FFFF00" d="M250.4,136.8c-2.8,0.1-5.5,0.4-8.2,0.8c-0.3,0.9-2.4,2.6-3.2,2.6c-1,0-2.3,1.7-2.3,3.1
		c0,0.4-0.2,1.2-0.4,2.1c4.6-1,9.3-1.6,14.2-1.9V136.8z"/>
	<path fill="#FFFF00" d="M209.3,325.3c0,1.7-0.3,1.7-0.9,0.2c-0.5-1.3-2.3-2.2-3.4-1.8c-1,0.4-1.3-0.6-0.5-1.2
		c0.2-0.2,0.3-0.3,0.4-0.5c-1.3-0.9-2.7-1.7-4-2.7c0,0-0.1,0-0.1,0.1c-1.1,0.6-2.1,0.8-3.1,0.6c-1.7-0.3-5.1,0.1-5.1,0.7
		c0,0.2,0.8,0.8,1.8,1.3c1.5,0.8,2.8,2,3.3,3.1c6.6,4.6,13.8,8.4,21.3,11.3c0.2-0.3,0.6-0.5,1-0.8c1.7-0.8,3.4-0.4,5.8,1.7
		c1.3,1.1,2.8,1.6,4.7,1.4c0.8,0,1.5-2.9,1-3.9c-0.2-0.4-0.2-0.9-0.2-1.3c-7.8-2.1-15.2-5.1-22.1-9
		C209.2,324.8,209.3,325,209.3,325.3z"/>
	<path fill="#FFFF00" d="M235.2,144.6c0.8-2.5,1-3.8,0.7-4.1c-0.3-0.3-0.7,0.1-1,1.3c-0.3,1.3-0.7,2.7-1,4.1c0.3-0.1,0.7-0.2,1-0.2
		C234.9,145.4,235,145,235.2,144.6z"/>
	<path fill="#FFFF00" d="M236.8,138.5c-0.5,0.1-0.9,0.2-1.4,0.3C236.2,140.1,236.8,139.9,236.8,138.5z"/>
	<path fill="#FFFF00" d="M198.5,328.7c0.1,0.1,0.2,0.3,0.3,0.4c5.8,3.8,12.1,7,18.6,9.5c0.1-0.1,0.2-0.1,0.3-0.2
		c-6.8-2.7-13.3-6-19.4-10C198.4,328.6,198.4,328.7,198.5,328.7z"/>
	<path fill="#FFFF00" d="M230,342.4c-1.1-0.3-2.3-0.6-3.4-0.9c0,0.1,0,0.1,0,0.2c0,0,0,0.1,0,0.1c1.2,0.3,2.4,0.7,3.5,0.9
		C230.1,342.7,230.1,342.6,230,342.4z"/>
	<path fill="#FFFF00" d="M224.4,340.9c-1-0.3-2-0.6-3-1c0.1,0.1,0.3,0.3,0.4,0.4c1,0.3,1.9,0.6,2.9,0.9
		C224.7,341.1,224.6,341,224.4,340.9z"/>
	<path fill="#FFFF00" d="M220.2,336.9c0.5,0.2,1,0.4,1.5,0.6C221.3,337.1,220.7,336.9,220.2,336.9z"/>
	<path fill="#FFFF00" d="M232.3,343c-0.6-0.1-1.1-0.3-1.7-0.4c-0.1,0.1-0.2,0.2-0.3,0.2c0.8,0.2,1.6,0.4,2.4,0.6
		C232.5,343.2,232.4,343.1,232.3,343z"/>
	<path fill="#FFFF00" d="M181.7,301.7c-0.1,0.4-0.2,0.8-0.3,1.2c-0.7,3.3-1.2,4.2-2.3,5.2c-0.1,0.1-0.2,0.2-0.4,0.3
		c3.6,4,7.4,7.7,11.6,11.2c0.6-0.1,1.2-0.3,1.8-0.6c0.7-0.4,2.6-0.7,5.1-0.7c0.8,0,1.5,0,2.1-0.1
		C192.7,313.4,186.8,307.9,181.7,301.7z"/>
	<path fill="#FFFF00" d="M250.4,314.7c-12.4-1.1-24.3-6-33.9-13.8c0.1,1,0,2.1-0.3,2.7c-0.5,1-0.5,1.3,0.3,1.9
		c0.5,0.4,0.7,0.7,0.6,0.9c-0.1,0.2,0,1.2,0.3,2.3c0.6,2,0.6,2-0.5,2.7c-0.7,0.4-1.7,0.7-2.4,0.7c-1.9,0-4.8,2.1-4.8,3.4
		c0,1.4,1.3,1.8,3.2,1c0.8-0.4,1.5-0.5,1.7-0.4c0.6,0.7,0.2,1.5-0.7,1.6c-0.7,0.1-1.1,0.5-1,1.1c0,0.9-0.2,0.9-2.9,0.9
		c-1.6,0-2.6,0.1-3.2,0.4c7.8,4.8,16.3,8.5,25.4,10.9c0,0,0.1,0,0.1,0c0.1,0,0.2,0.1,0.3,0.1c5.8,1.5,11.8,2.5,17.9,2.8V314.7z"/>
	<path fill="#FFFF00" d="M192.8,255.3c-1.1,1.2-1.5,1.3-1.7,0.9c-0.6-1-1.2-0.9-1.5,0.3c-0.2,1-0.3,1-0.9,0.1
		c-0.7-0.8-0.7-0.8-1.9,0c-1.8,1.1-1.4,2.4,0.6,2.2c1.4-0.1,1.5,0,1.4,1.3c0,0.8,0.2,1.8,0.7,2.3c1.9,2,0.2,11.9-2.4,13.9
		c-0.4,0.3-0.8,0.8-1.1,1.3c3.7-1,7.4-1.9,11.2-2.6C194.6,268.6,193.2,262.1,192.8,255.3z"/>
	<path fill="#FFFF00" d="M250.4,336.6c-6-0.4-11.9-1.3-17.6-2.7c0.1,0.5,0.2,0.8,0.3,0.9c0.2,0.1,0.3,1.6,0.1,3.4
		c-0.1,1.2-0.2,1.9-0.1,2.5c5.6,1.3,11.4,2.1,17.3,2.4V336.6z"/>
	<path fill="#FFFF00" d="M250.4,145.8c-5.1,0.3-10.1,1-15,2.1c-0.6,1.7-1.2,3.3-1.5,3.6c-0.5,0.5-0.4-0.8,0.2-3.3
		c-0.3,0.1-0.6,0.2-0.9,0.2c-1.3,5.2-2.4,10.4-3,13.5c-0.4,1.8-0.8,3.6-1.3,5.3l21.6,0V145.8z"/>
	<path fill="#FFFF00" d="M250.4,345.6c-4.6-0.2-9.2-0.8-13.6-1.6l0.3,0.3c4.4,0.8,8.8,1.3,13.3,1.5V345.6z"/>
	<path fill="#FFFF00" d="M202.6,285.5c-5.8,1.1-11.5,2.4-16.9,4c-0.8,0.2-1.7,0.5-2.6,0.8c-0.3,4.4-0.5,6.5-0.8,8.4
		c5.7,7.2,12.5,13.5,20,18.7c1.2-0.6,2.2-1.5,3.5-3.2c1.4-1.8,1.8-2.6,2-4.6c0.1-2,0.4-2.6,1.3-3c0.7-0.4,1.6-2,2.6-4.4
		c0.4-0.9,1.1-2.3,1.9-3.8c-0.8-0.7-1.5-1.5-2.3-2.2C208,293,205.1,289.4,202.6,285.5z"/>
	<path fill="#FFFF00" d="M180.2,313.5l-0.2,0.2c1.4,1.4,2.8,2.8,4.2,4.1c0.2,0,0.3,0,0.5,0C183.2,316.5,181.7,315,180.2,313.5z"/>
	<path fill="#FFFF00" d="M339.4,305c0.1-0.2,0.2-0.3,0.4-0.5c0-0.1-0.1-0.2-0.1-0.3c-18.2,23.8-46.3,39.6-78.1,41.2v0.2
		c30.5-1.6,57.6-16.2,75.8-38.3C338.1,306.7,338.7,305.8,339.4,305z"/>
	<path fill="#FFFF00" d="M346.7,191c-2.6-1-5.8-2-9.4-3.1c7.7,12,12.9,25.8,14.6,40.5c1.8,0.7,3.4,1.5,4.8,2.3
		c0.6-0.5,1.2-1,1.4-1.3c0.1-0.1,0.2-0.4,0.4-0.7C357.1,215.3,353,202.5,346.7,191z"/>
	<path fill="#FFFF00" d="M261.6,336.6v6.5c31.2-1.7,58.9-17.6,76.8-41.2c-1-1.3-2.5-2.9-4.4-4.8
		C317.4,319.7,291.3,334.8,261.6,336.6z"/>
	<path fill="#FFFF00" d="M235.3,138.7C235.4,138.7,235.4,138.7,235.3,138.7c0.5,0,1-0.1,1.5-0.2c0-0.2,0-0.5,0-0.8
		c0-0.6,0-1.1,0.1-1.5c-0.6,0.1-1.2,0.2-1.8,0.3C234.8,137.6,234.9,138,235.3,138.7z"/>
	<path fill="#FFFF00" d="M350.1,192.5c-1-0.5-2.1-1-3.4-1.5c6.3,11.5,10.4,24.3,11.9,37.8c0.5-1.1,1.1-3,1.6-5.1
		c-1.6-10.3-4.7-20.1-9-29.1C350.8,193.9,350.5,193.2,350.1,192.5z"/>
	<path fill="#FFFF00" d="M261.6,136.9c31.3,1.7,59.1,17.7,77,41.4c1.5,0.6,2.9,1.3,4.3,2c-18.1-26.2-47.6-43.8-81.3-45.6V136.9z"/>
	<path fill="#FFFF00" d="M350.6,286.8c0.6-1.2,1.2-2.5,1.8-3.7c-1.5,0.2-1.9,0.2-2.5-0.4c-0.3,0.6-0.5,1.1-0.8,1.7
		C349.7,285.3,350.2,286.1,350.6,286.8z"/>
	<path fill="#FFFF00" d="M197.9,326.6c-0.2,0.5,0,1.2,0.5,1.9c6.1,4,12.6,7.3,19.4,10c0.6-0.4,0.8-0.8,0.8-1.2
		c0-0.3,0.2-0.6,0.4-0.9c-7.6-2.9-14.7-6.7-21.3-11.3C197.9,325.7,198,326.2,197.9,326.6z"/>
	<path fill="#FFFF00" d="M230.6,342.5C230.6,342.5,230.6,342.6,230.6,342.5c0.5,0.2,1.1,0.4,1.7,0.5
		C231.3,342.3,230.8,342.1,230.6,342.5z"/>
	<path fill="#FFFF00" d="M229.9,342.2c-0.2-0.5-0.7-0.7-1.2-0.6c-0.5,0.1-0.9,0-1.1-0.4c-0.4-1.1-1.2-0.8-1.1,0.3
		c1.1,0.3,2.2,0.6,3.4,0.9C230,342.4,229.9,342.3,229.9,342.2z"/>
	<path fill="#FFFF00" d="M223,338.8c-0.1-0.5-0.6-1-1.2-1.4c-0.5-0.2-1-0.4-1.5-0.6c-0.1,0-0.2,0-0.3,0c-0.6,0,0.2,1.5,1.6,3
		c1,0.3,2,0.7,3,1C223.7,340,223.1,339.2,223,338.8z"/>
	<path fill="#FFFF00" d="M250.4,134.6c-4.4,0.2-8.7,0.7-12.9,1.5c-0.1,0.1-0.2,0.2-0.2,0.2c-0.4,1.1,0.1,1.1,2,0
		c1.3-0.7,2.2-0.9,3.1-0.7c1.3,0.3,1.7,1.2,0.6,1.2c-0.4,0-0.7,0.2-0.7,0.5c0,0.1,0,0.1-0.1,0.2c2.7-0.4,5.4-0.6,8.2-0.8V134.6z"/>
	<path fill="#FFFF00" d="M250.4,343.2c-5.9-0.3-11.7-1.1-17.3-2.4c0,0.6,0.2,0.9,0.4,1.2c0.4,0.3,0.9,0.5,1.1,0.4
		c0.3-0.1,1.1,0.6,1.9,1.3l0.2,0.3c4.4,0.8,9,1.4,13.6,1.6V343.2z"/>
	<path fill="#FFFF00" d="M178.7,308.4c-1.4,1.3-1.3,2.5,0.4,3.8l1.4,1.1l-0.3,0.3c1.4,1.5,2.9,2.9,4.5,4.3c0.9,0,1.5,0.2,2.4,0.8
		c1.2,0.7,2.2,1,3.2,0.9C186.2,316.1,182.3,312.4,178.7,308.4z"/>
	<path fill="#FFFF00" d="M261.6,343.1v2.4c31.7-1.7,59.8-17.5,78.1-41.2c0-0.1,0-0.1-0.1-0.2c-0.2-0.6-0.6-1.3-1.2-2.2
		C320.5,325.6,292.8,341.4,261.6,343.1z"/>
	<path fill="#FFFF00" d="M334.1,187.1c8.1,11.9,13.5,25.6,15.5,40.5c0.8,0.3,1.7,0.6,2.4,1c-1.8-14.8-6.9-28.6-14.6-40.5
		C336.3,187.7,335.2,187.4,334.1,187.1z"/>
	<path fill="#FFFF00" d="M326.6,174.1c-16.5-17.7-39.5-29.2-65-30.7v2.3c20.6,1.2,39.5,9.1,54.5,21.6l3.1,0v2.7c1.1,1,2.1,2,3.2,3
		C323.8,173.4,325.2,173.8,326.6,174.1z"/>
	<path fill="#FFFF00" d="M344.4,279c0.5-1.1,1-2.2,1.4-3.3c-0.5-0.5-1-1.2-1.6-2.1c-0.5,1.3-1,2.5-1.5,3.7
		C343.3,277.9,343.8,278.5,344.4,279z"/>
	<path fill="#FFFF00" d="M250.4,334.2c-6.1-0.4-12.1-1.3-17.9-2.8c0.2,0.2,0.3,0.7,0.3,1.5c0,0.4,0,0.7,0.1,1
		c5.7,1.4,11.6,2.3,17.6,2.7V334.2z"/>
	<path fill="#FFFF00" d="M206.6,320.3c-0.2,0.1-0.3,0.2-0.4,0.3c-0.7,0.7-0.6,0.8,1.2,2c1.1,0.7,1.6,1.2,1.8,1.9
		c6.9,3.9,14.3,6.9,22.1,9c0-0.1,0-0.2,0.1-0.3c0.2-0.4,0.3-1.1,0.2-1.4c0-0.2,0.1-0.5,0.4-0.5C223,328.9,214.4,325.2,206.6,320.3z"
		/>
	<path fill="#FFFF00" d="M250.4,143.5c-4.8,0.3-9.6,0.9-14.2,1.9c-0.2,0.8-0.5,1.7-0.8,2.5c4.9-1.1,9.9-1.8,15-2.1V143.5z"/>
	<path fill="#FFFF00" d="M182.3,298.7c-0.1,0.9-0.3,1.8-0.6,2.9c5.2,6.2,11.1,11.7,17.6,16.5c1.2-0.1,2.2-0.3,3-0.7
		C194.7,312.2,188,305.9,182.3,298.7z"/>
	<path fill="#FFFF00" d="M204.5,321.4c-0.3-0.2-0.6-0.7-0.6-1.2c0-1.5-1.4-1.9-3.1-1c1.3,0.9,2.6,1.8,4,2.7
		C204.9,321.8,204.8,321.6,204.5,321.4z"/>
	<path fill="#FFFF00" d="M234.8,145.7c-0.3,0.1-0.7,0.2-1,0.2c-0.2,0.8-0.4,1.7-0.6,2.5c0.3-0.1,0.6-0.2,0.9-0.2
		C234.3,147.5,234.6,146.6,234.8,145.7z"/>
	<path fill="#FFFF00" d="M261.6,334.2v2.4c29.7-1.8,55.8-17,72.3-39.5c-0.5-0.5-1.1-1.1-1.7-1.6C316,317.6,290.5,332.5,261.6,334.2z
		"/>
	<polygon fill="#FFFF00" points="252.7,167.3 259.4,167.3 259.4,134 256,134 252.7,134 	"/>
	<path fill="#FFFF00" d="M259.4,314.9c-1.2,0.1-2.3,0.1-3.5,0.1c-1.1,0-2.1,0-3.2-0.1v31.4h3.3h3.4V314.9z"/>
	
		<line fill="none" stroke="#FFFF00" stroke-width="0" stroke-linecap="round" stroke-linejoin="round" x1="259.3" y1="132.8" x2="259.4" y2="132.8"/>
	
		<line fill="none" stroke="#FFFF00" stroke-width="0" stroke-linecap="round" stroke-linejoin="round" x1="250.3" y1="132.8" x2="250.4" y2="132.8"/>
	<path fill="#FFFF00" d="M261.6,343.1v-6.5v-2.4v-19.5c-0.7,0.1-1.5,0.1-2.2,0.2v31.4v1.2h2.2v-1.8v-0.2V343.1z"/>
	<path fill="#FFFF00" d="M252.7,314.9c-0.8,0-1.5-0.1-2.3-0.2v19.5v2.4v6.5v2.4v0.2v1.7h2.3v-1.2V314.9z"/>
	<polygon fill="#FFFF00" points="259.4,167.3 261.6,167.3 261.6,145.8 261.6,143.5 261.6,136.9 261.6,134.7 261.6,132.8 
		259.4,132.8 259.4,134 	"/>
	<polygon fill="#FFFF00" points="252.7,134 252.7,132.8 250.4,132.8 250.4,134.6 250.4,136.8 250.4,143.5 250.4,145.8 250.4,167.3 
		252.7,167.3 	"/>
	<path fill="#FFFF00" d="M323.8,223.1c-1.5-0.3-3-0.6-4.5-0.8v6.6c1.7,0.3,3.4,0.6,5,0.9c5.1,1,9.7,2.1,14,3.3
		c1.1-0.2,2.7-0.3,3.7-0.2c1.2,0.1,2.5,0.1,2.9-0.1c0.5-0.2,2.3-0.1,4.5,0.2l3.7,0.7l1.7-1.3C346.3,228.3,334,225.1,323.8,223.1z"/>
	<path fill="#FFFF00" d="M345.6,183.7c-5.4-3.4-15.9-6.5-26.4-8.6v6.3c13,2.5,25.1,5.9,29.8,8.3l-1.9-3.3L345.6,183.7L345.6,183.7z"
		/>
	<path fill="#FFFF00" d="M349.6,227.6c-6.6-2.5-15.2-4.8-25.3-6.9c-1.6-0.3-3.3-0.6-5-0.9v2.5c1.5,0.3,3.1,0.5,4.5,0.8
		c10.2,2,22.5,5.2,30.9,9.3l0.4-0.3c0.5-0.4,1.1-0.8,1.6-1.2c-1.4-0.8-3-1.5-4.8-2.3C351.2,228.2,350.4,227.9,349.6,227.6z"/>
	<path fill="#FFFF00" d="M319.3,228.9v2.4c1.5,0.3,3.1,0.5,4.5,0.8c0.2,0,0.4,0.1,0.6,0.1c0.9,0.1,2,0.2,3.2,0.3
		c2,0.1,4.7,0.5,6,0.7c1.7,0.4,2.7,0.3,4.3-0.1c0.1,0,0.3-0.1,0.4-0.1c-4.2-1.1-8.9-2.2-14-3.3C322.7,229.5,321,229.2,319.3,228.9z"
		/>
	<path fill="#FFFF00" d="M201.3,283.4c-1.2-2.1-2.3-4.2-3.3-6.3c-4.4,0.9-8.8,1.9-13.1,3.1c-0.3,1-0.6,1.9-0.9,2.2
		c-0.2,0.3-0.6,2.6-0.8,5.5c0.6-0.2,1.2-0.4,1.9-0.5C190.6,285.7,196,284.5,201.3,283.4z"/>
	<path fill="#FFFF00" d="M338.6,178.3c-3.9-1.7-7.9-3-12-4.2c-1.4-0.4-2.8-0.7-4.2-1c-1-0.2-2.1-0.5-3.2-0.7v2.6
		c10.5,2.1,21,5.2,26.4,8.6c0,0,0,0,0,0c0.9,0.6,1.7,1.2,2.3,1.8c0.1,0.1,0.2,0.2,0.2,0.3l-1.3-2.1l-0.3-0.5l-0.9-1.4
		c-0.9-0.5-1.9-1-2.8-1.4C341.4,179.6,340,178.9,338.6,178.3z"/>
	<path fill="#FFFF00" d="M319.3,181.4v2.4c5.4,1.1,10.4,2.2,14.8,3.3c1.1,0.3,2.2,0.6,3.3,0.9c3.6,1,6.8,2,9.4,3.1
		c1.3,0.5,2.4,1,3.4,1.5c0.9,0.4,1.6,0.8,2.3,1.2c0,0,0.1,0,0.1,0.1l-1.7-3c-0.3-0.3-0.9-0.7-1.7-1.2
		C344.4,187.3,332.2,183.9,319.3,181.4z"/>
	<path fill="#FFFF00" d="M202.6,285.5c-0.5-0.7-0.9-1.4-1.3-2.1c-5.3,1-10.7,2.3-16.2,3.9c-0.6,0.2-1.3,0.3-1.9,0.5
		c0,0.5-0.1,1-0.1,1.5c0,0.3,0,0.7-0.1,1c0.9-0.3,1.8-0.6,2.6-0.8C191.2,287.9,196.8,286.6,202.6,285.5z"/>
	<path fill="#FFFF00" d="M197.1,274.8c-3.8,0.8-7.5,1.6-11.2,2.6c-0.4,0.6-0.6,1.2-0.8,2c-0.1,0.2-0.1,0.5-0.2,0.7
		c4.3-1.2,8.7-2.2,13.1-3.1C197.7,276.3,197.4,275.6,197.1,274.8z"/>
	<path fill="#FFFF00" d="M349.4,290.5l0.1-0.5c-1.7-6-15-17.2-30.9-28.9c-0.9,5.7-2.5,11.3-4.9,16.5c15.7,11.4,26.4,20.7,27.9,25.2
		l0,0l6.1-9.6l1.3-2L349.4,290.5z"/>
	<path fill="#FFFF00" d="M318.6,261.1c16,11.7,29.2,22.9,30.9,28.9c0.1,0.4,0.2,0.7,0.2,1.1c0,0.1,0,0.2,0,0.3c0,0.4,0,0.7,0,0.9
		c0,0.3-0.1,0.5-0.3,0.9l1.7-2.6l-0.1-0.1c0.4-0.8,0.3-2-0.3-3.3c0-0.1-0.1-0.1-0.1-0.2c-0.4-0.7-0.9-1.6-1.5-2.4
		c-1.1-1.6-2.7-3.4-4.7-5.4c-0.6-0.6-1.1-1.1-1.8-1.7c-5.6-5.4-13.8-11.9-23.7-19.2C318.8,259.2,318.7,260.1,318.6,261.1z"/>
	<path fill="#FFFF00" d="M313.7,277.6c-0.3,0.7-0.7,1.4-1,2.2c8.4,6.2,15,11.5,19.5,15.7c0.6,0.6,1.2,1.1,1.7,1.6
		c2,1.9,3.5,3.5,4.4,4.8c0.6,0.9,1.1,1.6,1.2,2.2c0,0.1,0,0.1,0.1,0.2c0,0.1,0.1,0.2,0.1,0.3c0,0.1,0.1,0.3,0.1,0.4
		c0.3,1.5-0.2,2.1-0.3,2.2l0.5-0.4l0.1-0.1l1.3-2.1c0.3-0.5,0.3-1.1,0.1-1.8C340.1,298.4,329.4,289,313.7,277.6z"/>
	<path fill="#FFFFFF" d="M195,252.7c-0.3,0.3-0.5,0.6-0.8,1c-0.6,0.7-1,1.2-1.4,1.7c0.4,6.7,1.9,13.3,4.4,19.5
		c0.3,0.8,0.6,1.5,0.9,2.2c1,2.2,2,4.3,3.3,6.3c0.4,0.7,0.9,1.4,1.3,2.1c2.5,3.8,5.4,7.4,8.7,10.7c0.7,0.8,1.5,1.5,2.3,2.2
		c0.4-0.7,0.8-1.4,1.2-2.1c-0.6-0.6-1.3-1.2-1.9-1.8C201.7,283.5,195.3,268.4,195,252.7z"/>
	<path fill="#FFFFFF" d="M250.4,314.7c0.8,0.1,1.5,0.1,2.3,0.2c1.1,0.1,2.1,0.1,3.2,0.1c1.2,0,2.3,0,3.5-0.1c0.7,0,1.5-0.1,2.2-0.2
		c14.7-1.3,28.6-7.8,39.1-18.3c4.9-4.9,9-10.6,12-16.7c0.4-0.7,0.7-1.4,1-2.2c2.4-5.2,4-10.8,4.9-16.5c0.1-1,0.3-2,0.4-3
		c0.2-2.1,0.3-4.2,0.3-6.3v-20.6v-2.4v-6.6v-2.5v-36.1v-2.4v-6.3v-2.6v-2.3v-2.7l-3.1,0l-54.5-0.1l-2.2,0l-6.7,0l-2.3,0l-21.6,0
		c-0.3,0.9-0.6,1.8-0.9,2.7h88.6v82.1c0,16-6.4,31.4-17.8,42.7c-11.4,11.3-26.8,17.7-42.9,17.7c-14.4-0.1-28.3-5.3-39.2-14.5
		c-0.2,0.9-0.3,1.8-0.2,2.5c0,0.2,0,0.3,0,0.5C226.1,308.8,238,313.6,250.4,314.7z"/>
	<path fill="#FFFFFF" d="M219.7,252c0,9.6,3.9,18.8,10.7,25.6c6.6,6.6,15.5,10.9,25.5,10.9c9.6,0,18.8-3.9,25.6-10.7
		c6.9-6.7,10.7-16,10.7-25.6l0.1-5.4v-52.2l-68.7-0.2c-0.3,0.9-0.5,1.9-0.8,2.8c-1,3.4-2,6.6-3.1,9.5V252z M264.1,242.6
		c0,2.3-0.8,4.4-2.3,6.1c-1.4,1.5-3.4,2.6-5.7,2.6c-2.2,0-4.2-0.9-5.7-2.6c-1.5-1.7-2.4-3.8-2.3-6.1v-11.5h16V242.6z M225.9,231.1
		h16v11.5c0,2.3-0.8,4.4-2.3,6.1c-1.4,1.5-3.4,2.6-5.7,2.6c-2.2,0-4.2-0.9-5.7-2.6c-1.5-1.7-2.4-3.8-2.3-6.1V231.1z M264.1,270.1
		c0,2.3-0.8,4.4-2.3,6.1c-1.4,1.5-3.4,2.6-5.7,2.6c-2.2,0-4.2-0.9-5.7-2.6c-1.5-1.7-2.4-3.8-2.3-6.1v-11.5h16V270.1z M286.3,242.6
		c0,2.3-0.8,4.4-2.3,6.1c-1.4,1.5-3.4,2.6-5.7,2.6c-2.2,0-4.2-0.9-5.7-2.6c-1.5-1.7-2.4-3.8-2.3-6.1v-11.5h16V242.6z M264.1,214.9
		c0,2.3-0.8,4.4-2.3,6.1c-1.4,1.5-3.4,2.6-5.7,2.6c-2.2,0-4.2-0.9-5.7-2.6c-1.5-1.7-2.4-3.8-2.3-6.1v-11.5h16V214.9z"/>
	<path fill="#FF0000" d="M291.4,289.9c0.2-0.4,0.4-0.8,0.5-1.1C291.8,289.1,291.6,289.5,291.4,289.9z"/>
	<path fill="#FF0000" d="M308.5,237.9c-0.1-0.4-0.3-0.8-0.5-1.1C308.2,237.1,308.3,237.5,308.5,237.9z"/>
	<path fill="#FF0000" d="M308.6,238.5C308.6,238.5,308.6,238.4,308.6,238.5C308.6,238.4,308.6,238.5,308.6,238.5z"/>
	<path fill="#FF0000" d="M308.5,188.5c-0.1-0.4-0.3-0.8-0.5-1.1C308.2,187.7,308.3,188.1,308.5,188.5z"/>
	<path fill="#FF0000" d="M291.1,290.4C291.1,290.4,291.1,290.4,291.1,290.4C291.1,290.4,291.1,290.4,291.1,290.4z"/>
	<path fill="#FF0000" d="M308.6,189.1C308.6,189.1,308.6,189.1,308.6,189.1C308.6,189.1,308.6,189.1,308.6,189.1z"/>
	<path fill="#FF0000" d="M220.7,290.4C220.7,290.4,220.7,290.4,220.7,290.4C220.7,290.4,220.7,290.4,220.7,290.4z"/>
	<path fill="#FF0000" d="M210.8,229.4c-0.2,0.4-0.4,0.9-0.6,1.3h0.6V229.4z"/>
	<path fill="#FF0000" d="M255.8,312.5c16.1,0,31.5-6.4,42.9-17.7c11.4-11.3,17.8-26.6,17.8-42.7V170h-88.6c-0.2,0.6-0.4,1.2-0.7,1.8
		c-1.1,2.5-2.3,5.3-2.6,6.2c-0.3,0.9-0.8,2-1.2,2.2c-1,0.8-0.4,2.6,1.4,4.4c1,1,1.4,1.8,1.2,2.2c-0.2,0.3-1.2,3.5-2.4,7.7l68.7,0.2
		v52.2l-0.1,5.4c0.1,9.6-3.8,18.9-10.7,25.6c-6.8,6.8-16,10.6-25.6,10.7c-10,0-18.9-4.3-25.5-10.9c-6.8-6.8-10.6-16-10.7-25.6v-45.2
		c-1.9,5.3-3.8,9.4-5.2,11.4c-1.2,1.6-2.5,5-2.8,7.2h0.6v-1.1h1.3v1.1h1v-1.1h1.3v2.1c0,0.4-0.2,0.6-0.5,0.6H215v3.6h1
		c0.3,0,0.6,0.4,0.6,0.9c0,0.3-0.3,0.6-0.6,0.6h-6.5c0,0,0,0.1-0.1,0.1h6c0.3,0,0.6,0.3,0.6,0.7c0,0.4-0.3,0.7-0.6,0.7h-0.2l0.8,6.5
		h-4.4c0,0,0,0.1,0,0.1h4.6c0.3,0,0.6,0.3,0.6,0.7c0,0.5-0.3,0.9-0.6,0.9h-11.2c-1,1.4-2.1,2.5-2.5,2.7c-0.5,0.2-1.7,1.1-2.5,2
		l-1.6,1.6l1,2.2c0.6,1.3,1.3,2.4,1.5,2.6c0.3,0.2,0.3,0.6,0,1.1c-0.3,0.6-0.6,0.7-0.8,0.3c-0.2-0.4-0.5-0.3-1,0.3
		c-0.6,0.7-0.6,0.7-0.3-0.9c0.2-1.4,0.1-2-0.7-2.6c-0.6-0.5-1.1-0.9-1.2-0.9c0,0-0.9,1-2,2.3c0.3,15.7,6.7,30.8,17.9,41.9
		c0.6,0.6,1.3,1.2,1.9,1.8c0.7-1.2,1.4-2.3,2.1-3.3c0-0.1,0.1-0.1,0.1-0.2l-2.4-2.9l-0.2,0.2c-0.3,0.3-0.7,0.2-1-0.1
		c-0.3-0.3-0.4-0.7-0.1-1l0.1-0.1l11.6-11.7c0.2-0.2,0.7-0.2,1,0.1c0.3,0.3,0.3,0.8,0.1,1l-0.1,0.1l5.2,4l-3.1,3.1
		c0,0,0.1,0,0.1,0.1l3.2-3.3c0.2-0.2,0.7-0.2,1,0.1c0.4,0.4,0.4,0.8,0.2,1.1l-12.8,12.9c-0.2,0.2-0.7,0.2-1.1-0.1
		c-0.3-0.3-0.3-0.8,0-1.1l-0.1,0.1l0.1-0.1l0,0l3.2-3.3c0,0,0-0.1-0.1-0.1l-3.1,3.1l-0.8-1c-0.7,1.4-1.2,2.6-1.4,3.8
		C227.5,307.2,241.4,312.4,255.8,312.5z M313.6,192.7h-18.1c-0.3,0-0.6-0.3-0.6-0.9c0-0.4,0.3-0.7,0.6-0.7h4.6c0,0,0-0.1,0-0.1h-4.4
		l0.8-6.5h-0.2c-0.3,0-0.6-0.3-0.6-0.7c0-0.4,0.3-0.7,0.6-0.7h16.4h0.1c0.4,0,0.6,0.3,0.6,0.7c0,0.4-0.2,0.7-0.6,0.7h-0.3l0.7,6.5
		h-4.4c0,0,0,0.1,0,0.1h4.6h0.1h-0.1c0.4,0,0.7,0.3,0.7,0.7C314.2,192.4,313.9,192.7,313.6,192.7z M313.2,181.4v0.1
		c0.3,0,0.6,0.3,0.6,0.6c0,0.4-0.3,0.7-0.6,0.7h-17.4c-0.3,0-0.6-0.3-0.6-0.6c0-0.4,0.3-0.9,0.6-0.9h1v-3.6h-0.2
		c-0.3,0-0.5-0.2-0.5-0.6V175h1.3v1.1h1V175h1.3v1.1h1V175h1.3h0v2.1c0,0.3-0.3,0.6-0.6,0.6H301v3.6h1.2l0.3-6.8v-0.1h3.9l0.3,6.9
		h1.3v-3.6h-0.2c-0.3,0-0.5-0.2-0.5-0.6V175h1.3v1.1h1V175h1.3v1.1h1V175h1.3v2.1c0,0.3-0.3,0.6-0.6,0.6h-0.1v3.6H313.2z
		 M306.1,171.7h1.3h0v2.1c0,0.3-0.3,0.5-0.6,0.5h-4.7c-0.3,0-0.5-0.2-0.5-0.6v-2.1h1.3v1.1h1v-1h1.4v0.9h1V171.7z M253.1,171.7h1.3
		v0.9h1v-0.9h1.4v1h1v-1.1h1.3v2.1c0,0.4-0.2,0.6-0.5,0.6h-4.7c-0.3,0-0.6-0.2-0.6-0.5V171.7z M248.2,177.7h-0.1
		c-0.3,0-0.6-0.3-0.6-0.6V175h0h1.3v1.1h1V175h1.3v1.1h1V175h1.3v2.1c0,0.4-0.2,0.6-0.5,0.6h-0.2v3.6h1.3l0.3-6.9h3.9v0.1l0.3,6.8
		h1.2v-3.6h-0.1c-0.3,0-0.6-0.3-0.6-0.6V175h0h1.3v1.1h1V175h1.3v1.1h1V175h1.3v2.1c0,0.4-0.2,0.6-0.5,0.6h-0.2v3.6h1
		c0.3,0,0.6,0.4,0.6,0.9c0,0.3-0.3,0.6-0.6,0.6h-17.4c-0.3,0-0.6-0.3-0.6-0.7c0-0.3,0.3-0.6,0.6-0.6v-0.1h0.9V177.7z M265.1,192.7
		h-18.1c-0.3,0-0.6-0.3-0.6-0.9c0-0.4,0.3-0.7,0.7-0.7h-0.1h0.1h4.6c0,0,0-0.1,0-0.1h-4.4l0.7-6.5h-0.3c-0.4,0-0.6-0.3-0.6-0.7
		c0-0.4,0.2-0.7,0.6-0.7h0.1h16.4c0.3,0,0.6,0.3,0.6,0.7c0,0.4-0.3,0.7-0.6,0.7H264l0.8,6.5h-4.4c0,0,0,0.1,0,0.1h4.6
		c0.3,0,0.6,0.3,0.6,0.7C265.7,192.4,265.4,192.7,265.1,192.7z M211.7,274.7l0.7,0.7l0.7-0.7l-0.8-0.8l0.9-0.9l1.5,1.5
		c0.3,0.3,0.3,0.6,0.1,0.8l-3.3,3.3c-0.2,0.2-0.6,0.3-0.8,0.1l-1.5-1.5l0.9-0.9l0.6,0.6l0.7-0.7l-0.6-0.6L211.7,274.7z M219.8,280.4
		l-3.2,3.3l-4.7-5.1l2.8-2.8l0.1,0.1L219.8,280.4z M209.1,285.1l-1.5-1.5l0.9-0.9l0.8,0.8l0.7-0.7l-0.8-0.8l0.9-0.9l0.8,0.8l0.7-0.7
		l-0.8-0.8l0.9-0.9l1.5,1.5c0.3,0.3,0.3,0.6,0.1,0.8l-3.2,3.3C209.7,285.4,209.3,285.4,209.1,285.1z M225.3,276.9l-12.3,12.3
		c-0.2,0.2-0.7,0.2-1-0.1c-0.2-0.2-0.2-0.7,0-0.9l-0.1-0.1l0.6-0.6l-2.6-2.6l3-3l2.6,2.6l5-5L218,277l2.1-2.2l-2.2,2.2
		c-0.2,0.2-0.7,0.2-0.9,0l-1.5-1.5h0l0.9-0.9l0.8,0.8l0.7-0.7l-0.8-0.8l0.9-0.9l0.8,0.8l0.7-0.7l-0.8-0.8l0.9-0.9l1.5,1.5
		c0.3,0.3,0.3,0.6,0.1,0.8L221,274l2.6,2.6l0.7-0.7c0.2-0.2,0.8-0.2,1.1,0.1C225.5,276.3,225.5,276.7,225.3,276.9z M298.3,290.1
		c-0.3,0.3-0.7,0.4-1,0.1l-0.2-0.2l-4.1,5.1l-3.1-3.1c0,0,0,0.1-0.1,0.1l3.3,3.3l-0.1-0.1c0.3,0.3,0.3,0.8,0,1.1
		c-0.4,0.4-0.8,0.4-1.1,0.1l-12.8-12.9c-0.2-0.2-0.2-0.7,0.2-1.1c0.3-0.3,0.8-0.3,1-0.1l3.2,3.3c0,0,0.1,0,0.1-0.1l-3.1-3.1l5.2-4
		l-0.1-0.1c-0.2-0.2-0.2-0.7,0.1-1c0.3-0.3,0.8-0.3,1-0.1l11.6,11.7l0.1,0.1C298.7,289.4,298.6,289.8,298.3,290.1z M297,274.6
		l1.5-1.5l0.9,0.9l-0.8,0.8l0.7,0.7l0.7-0.7l1,1l-0.6,0.6l0.7,0.7l0.6-0.6l0.9,0.9l-1.5,1.5c-0.2,0.2-0.6,0.1-0.8-0.1l-3.3-3.3
		C296.7,275.2,296.7,274.9,297,274.6z M297.1,275.8L297.1,275.8l2.9,2.7l-4.7,5.1l-3.2-3.3L297.1,275.8z M291.2,279.6l5,5l2.6-2.6
		l3,3l-2.6,2.6l0.6,0.6l-0.1,0.1c0.2,0.2,0.2,0.7,0,0.9c-0.3,0.3-0.8,0.3-1,0.1l-12.3-12.3c-0.2-0.2-0.2-0.7,0-0.9
		c0.3-0.3,0.8-0.4,1.1-0.1l0.7,0.7l2.6-2.6l3,3L291.2,279.6z M302.6,283.5l0.8-0.8l0.9,0.9h0l-1.5,1.5c-0.2,0.2-0.7,0.2-0.9,0
		l-3.2-3.3c-0.2-0.2-0.2-0.5,0.1-0.8l1.5-1.5l0.9,0.9l-0.8,0.8l0.7,0.7l0.8-0.8l0.9,0.9l-0.8,0.8L302.6,283.5z M306.8,223.7h-4.7
		c-0.3,0-0.5-0.2-0.5-0.6v-2.1h1.3v1.1h1v-1h1.4v0.9h1V221h1.3h0v2.1C307.4,223.5,307.1,223.7,306.8,223.7z M296.5,227.1
		c-0.3,0-0.5-0.2-0.5-0.6v-2.1h1.3v1.1h1v-1.1h1.3v1.1h1v-1.1h1.3h0v2.1c0,0.3-0.3,0.6-0.6,0.6H301v3.6h1.2l0.3-6.8v-0.1h3.9
		l0.3,6.9h1.3v-3.6h-0.2c-0.3,0-0.5-0.2-0.5-0.6v-2.1h1.3v1.1h1v-1.1h1.3v1.1h1v-1.1h1.3v2.1c0,0.3-0.3,0.6-0.6,0.6h-0.1v3.6h0.9
		v0.1c0.3,0,0.6,0.3,0.6,0.6c0,0.4-0.3,0.7-0.6,0.7h-17.4c-0.3,0-0.6-0.3-0.6-0.6c0-0.4,0.3-0.9,0.6-0.9h1v-3.6H296.5z M294.8,241.2
		c0-0.4,0.3-0.7,0.6-0.7h4.6c0,0,0-0.1,0-0.1h-4.4l0.8-6.5h-0.2c-0.3,0-0.6-0.3-0.6-0.7c0-0.4,0.3-0.7,0.6-0.7h16.4h0.1
		c0.4,0,0.6,0.3,0.6,0.7c0,0.4-0.2,0.7-0.6,0.7h-0.3l0.7,6.5h-4.4c0,0,0,0.1,0,0.1h4.6h0.1h-0.1c0.4,0,0.7,0.3,0.7,0.7
		c0,0.5-0.3,0.9-0.6,0.9h-18.1C295.1,242.1,294.8,241.7,294.8,241.2z M290.7,273l1.5-1.5l0.9,0.9l-0.8,0.8l0.7,0.7l0.8-0.8l0.9,0.9
		l-0.8,0.8l0.7,0.7l0.8-0.8l0.9,0.9l-1.5,1.5c-0.2,0.2-0.7,0.2-0.9,0l-3.2-3.3C290.4,273.6,290.4,273.3,290.7,273z"/>
	<path fill="#FF0000" d="M251.9,189C251.9,189.1,251.9,189.1,251.9,189C251.9,189.1,251.9,189.1,251.9,189z"/>
	<path fill="#FF0000" d="M252.5,187.4c-0.2,0.3-0.3,0.7-0.5,1.1C252.2,188.1,252.4,187.7,252.5,187.4z"/>
	<path fill="#FFFF00" d="M211.7,240.5c0,0,0-0.1,0-0.1h-0.1c-0.1-3.4-1.9-5.1-3.1-5.8c-0.2,0.6-0.3,1-0.2,1c0.5,0,0.6,1,0.4,1.6
		c0.5,0.7,1,1.8,1,3.3h-3.5c0,0,0,0.1-0.1,0.1H211.7z"/>
	<path fill="#FFFF00" d="M216.3,242.1c0.3,0,0.6-0.3,0.6-0.9c0-0.4-0.3-0.7-0.6-0.7h-4.6h-5.5c-0.1,0.2-0.3,0.4-0.4,0.7
		c-0.2,0.3-0.4,0.6-0.6,0.9H216.3z"/>
	<path fill="#FFFF00" d="M211.6,240.4L211.6,240.4h4.5l-0.8-6.5h-6.5c-0.1,0.2-0.2,0.5-0.3,0.7C209.8,235.3,211.6,236.9,211.6,240.4
		z"/>
	<path fill="#FFFF00" d="M216.6,231.6c0-0.4-0.3-0.9-0.6-0.9h-1h-4.3h-0.6c-0.2,0.3-0.3,0.7-0.5,1c-0.1,0.2-0.2,0.3-0.2,0.5h6.5
		C216.3,232.2,216.6,231.9,216.6,231.6z"/>
	<path fill="#FFFF00" d="M215.5,233.8c0.3,0,0.6-0.3,0.6-0.7c0-0.4-0.3-0.7-0.6-0.7h-6c-0.3,0.5-0.5,1.1-0.7,1.5h6.5H215.5z"/>
	<path fill="#FFFF00" d="M209.7,240.4c0-1.5-0.5-2.6-1-3.3c-0.1,0.2-0.2,0.4-0.3,0.5c-0.2,0.1-1.1,1.3-2.1,2.8H209.7z"/>
	<path fill="#FFFF00" d="M215,230.8v-3.6h-3.5c-0.1,0.6-0.4,1.4-0.7,2.3v1.3H215z M213.3,228.4v1.3h-0.9v-1.3
		C212.5,227.8,213.3,227.8,213.3,228.4z"/>
	<path fill="#FFFF00" d="M215,227.1h0.2c0.3,0,0.5-0.2,0.5-0.6v-2.1h-1.3v1.1h-1v-1.1h-1.3v1.1h-0.6c-0.1,0.4-0.1,0.8-0.1,1.1
		c0,0.2,0,0.4-0.1,0.6H215z"/>
	<path d="M212.5,228.4v1.3h0.9v-1.3C213.3,227.8,212.5,227.8,212.5,228.4z"/>
	<path fill="#FFFF00" d="M220.7,290.4c0.3,0.5,0.7,1,1.2,1.4l-0.1,0.1c0,0,0,0.1,0.1,0.1l6.2-6.3c0,0-0.1,0-0.1-0.1l-0.1,0.1
		c-3.8-3.6-7.5-1.5-7.6-1.4c0,0-1.2,1.9-0.5,4.4c0.6-0.8,1.1-1.1,1.6-1.2c-0.1-1.1,0.2-1.8,0.2-1.8s2.5-1,4.9,1.4l-3.5,3.5
		c-0.8-0.8-1.3-1.6-1.5-2.3c-0.4,0.1-0.6,0.3-0.7,0.6c-0.1,0.2-0.3,0.6-0.6,1.1C220.5,290.1,220.6,290.2,220.7,290.4
		C220.7,290.4,220.7,290.4,220.7,290.4z"/>
	<polygon fill="#FFFF00" points="218.6,295.4 218.7,295.3 218.7,295.3 	"/>
	<path fill="#FFFF00" d="M218.7,295.3c-0.3,0.3-0.3,0.8,0,1.1c0.4,0.4,0.8,0.4,1.1,0.1l12.8-12.9c0.2-0.2,0.2-0.7-0.2-1.1
		c-0.3-0.3-0.8-0.3-1-0.1l-3.2,3.3l-6.2,6.3L218.7,295.3z"/>
	<path fill="#FFFF00" d="M221.8,291.9L221.8,291.9c-0.4-0.5-0.8-1-1.1-1.5c0,0,0,0,0-0.1c-0.1-0.1-0.2-0.3-0.2-0.4
		c-0.3,0.5-0.6,1-1,1.5c-0.6,0.9-1.1,1.7-1.5,2.6l0.8,1L221.8,291.9z"/>
	<path fill="#FFFF00" d="M220.4,284.3c0.1-0.1,3.8-2.2,7.6,1.4l0.1-0.1l3.1-3.1l-5.2-4L214.6,290l2.4,2.9c1.4-2.1,2.3-3.4,2.9-4.2
		C219.1,286.2,220.4,284.3,220.4,284.3z"/>
	<path fill="#FFFF00" d="M214.6,275.8l-2.8,2.8l4.7,5.1l3.2-3.3L214.6,275.8L214.6,275.8z M215.1,278.4l1.2,1.2l-0.7,0.7l-1.2-1.2
		C214,278.6,214.7,277.9,215.1,278.4z"/>
	<path fill="#FFFF00" d="M211.4,276.3l-0.7,0.7l-0.6-0.6l-0.9,0.9l1.5,1.5c0.2,0.2,0.6,0.1,0.8-0.1l3.3-3.3c0.2-0.2,0.2-0.5-0.1-0.8
		l-1.5-1.5l-0.9,0.9l0.8,0.8l-0.7,0.7l-0.7-0.7l-1,1L211.4,276.3z"/>
	<path fill="#FFFF00" d="M224.3,275.9l-0.7,0.7l0,0l-3,3l0,0l-5,5l0,0l-3,3l0,0l-0.6,0.6l0.1,0.1c-0.2,0.2-0.2,0.7,0,0.9
		c0.3,0.3,0.8,0.3,1,0.1l12.3-12.3c0.2-0.2,0.2-0.7,0-0.9C225,275.7,224.5,275.7,224.3,275.9z"/>
	<path fill="#FFFF00" d="M226.6,287.1c-2.4-2.4-4.9-1.4-4.9-1.4s-0.3,0.7-0.2,1.8c0.3-0.1,0.6-0.1,1-0.2c1.2-0.1,2.5-0.1,2.9,0.1
		c0.6,0.3,0.1,0.5-1.6,0.6c-1,0-1.6,0.2-2.1,0.3c0.2,0.7,0.7,1.5,1.5,2.3L226.6,287.1z"/>
	<path fill="#FFFF00" d="M226,278.6l0.1-0.1c0.2-0.2,0.2-0.7-0.1-1c-0.3-0.3-0.8-0.3-1-0.1L213.4,289l-0.1,0.1
		c-0.3,0.3-0.2,0.7,0.1,1c0.3,0.3,0.7,0.4,1,0.1l0.2-0.2L226,278.6z"/>
	<path fill="#FFFF00" d="M215.6,284.6L215.6,284.6L213,282l-3,3l2.6,2.6l0,0L215.6,284.6z M212.7,284.1l0.9,0.9l-0.6,0.6l-0.9-0.9
		C211.7,284.3,212.3,283.7,212.7,284.1z"/>
	<path fill="#FFFF00" d="M223.6,276.6L223.6,276.6L221,274l-0.9,0.9L218,277l2.6,2.6l0,0L223.6,276.6z M220.7,276.1l0.9,0.9
		l-0.6,0.6l-0.9-0.9C219.7,276.3,220.3,275.7,220.7,276.1z"/>
	<path fill="#FFFF00" d="M213.2,281.9c0.2-0.2,0.2-0.5-0.1-0.8l-1.5-1.5l-0.9,0.9l0.8,0.8l-0.7,0.7l-0.8-0.8l-0.9,0.9l0.8,0.8
		l-0.7,0.7l-0.8-0.8l-0.9,0.9l1.5,1.5c0.2,0.2,0.7,0.2,0.9,0L213.2,281.9z"/>
	<path fill="#FFFF00" d="M221.2,273.9c0.2-0.2,0.2-0.5-0.1-0.8l-1.5-1.5l-0.9,0.9l0.8,0.8l-0.7,0.7l-0.8-0.8l-0.9,0.9l0.8,0.8
		l-0.7,0.7l-0.8-0.8l-0.9,0.9h0l1.5,1.5c0.2,0.2,0.7,0.2,0.9,0l2.2-2.2l0.9-0.9L221.2,273.9z"/>
	<path d="M214.5,279.1l1.2,1.2l0.7-0.7l-1.2-1.2C214.7,277.9,214,278.6,214.5,279.1z"/>
	<path d="M213.7,285l-0.9-0.9c-0.5-0.5-1.1,0.2-0.6,0.6l0.9,0.9L213.7,285z"/>
	<path d="M221.6,277l-0.9-0.9c-0.5-0.5-1.1,0.2-0.6,0.6l0.9,0.9L221.6,277z"/>
	<path fill="#FFFF00" d="M260.5,191.1c0,0,0-0.1,0-0.1h-0.1c-0.1-5.2-4.3-6.4-4.4-6.4c0,0-2.2,0.5-3.5,2.8c-0.2,0.3-0.3,0.7-0.5,1.1
		c-0.1,0.2-0.1,0.4-0.1,0.5c0,0,0,0,0,0.1c-0.1,0.6-0.2,1.2-0.2,1.9h-0.1c0,0,0,0.1,0,0.1H260.5z M256,186.5c0,0,2.5,1.1,2.5,4.5
		h-4.9C253.5,187.4,256,186.5,256,186.5z"/>
	
		<line fill="none" stroke="#FFFF00" stroke-width="0" stroke-linecap="round" stroke-linejoin="round" x1="246.9" y1="191.1" x2="247" y2="191.1"/>
	<path fill="#FFFF00" d="M265.1,191.1h-4.6h-8.8H247c-0.4,0-0.7,0.3-0.7,0.7c0,0.5,0.3,0.9,0.6,0.9h18.1c0.3,0,0.6-0.3,0.6-0.9
		C265.7,191.4,265.4,191.1,265.1,191.1z"/>
	<path fill="#FFFF00" d="M251.9,189.1C251.9,189.1,251.9,189.1,251.9,189.1c0.1-0.3,0.1-0.4,0.2-0.6c0.1-0.4,0.3-0.8,0.5-1.1
		c1.2-2.3,3.5-2.8,3.5-2.8c0.1,0,4.3,1.2,4.4,6.4h0.1h4.4l-0.8-6.5H248l-0.7,6.5h4.4h0.1C251.7,190.3,251.8,189.7,251.9,189.1z"/>
	<path fill="#FFFF00" d="M248.2,181.4h-0.9v0.1c-0.3,0-0.6,0.3-0.6,0.6c0,0.4,0.3,0.7,0.6,0.7h17.4c0.3,0,0.6-0.3,0.6-0.6
		c0-0.4-0.3-0.9-0.6-0.9h-1h-4.3h-1.2l-0.3-6.8v-0.1h-3.9l-0.3,6.9h-1.3H248.2z M255.6,176.7c0-0.6,1-0.6,1,0v1.7h-1V176.7z"/>
	<path fill="#FFFF00" d="M253.8,174.3h4.7c0.3,0,0.5-0.2,0.5-0.6v-2.1h-1.3v1.1h-1v-1h-1.4v0.9h-1v-0.9h-1.3v2.1
		C253.1,174.1,253.4,174.3,253.8,174.3z"/>
	<path fill="#FFFF00" d="M258.5,191c0-3.4-2.5-4.5-2.5-4.5s-2.5,1-2.5,4.5H258.5z"/>
	<path fill="#FFFF00" d="M264,184.5h0.2c0.3,0,0.6-0.3,0.6-0.7c0-0.4-0.3-0.7-0.6-0.7h-16.4h-0.1c-0.4,0-0.6,0.3-0.6,0.7
		c0,0.4,0.2,0.7,0.6,0.7h0.3H264z"/>
	<path fill="#FFFF00" d="M252.5,181.4v-3.6h-4.3v3.6H252.5z M249.9,180.3V179c0-0.6,0.9-0.6,0.9,0v1.3H249.9z"/>
	<path fill="#FFFF00" d="M263.8,181.4v-3.6h-4.3v3.6H263.8z M262.1,180.3h-0.9V179c0-0.6,0.9-0.6,0.9,0V180.3z"/>
	<path fill="#FFFF00" d="M252.5,177.7h0.2c0.3,0,0.5-0.2,0.5-0.6V175h-1.3v1.1h-1V175h-1.3v1.1h-1V175h-1.3h0v2.1
		c0,0.3,0.3,0.6,0.6,0.6h0.1H252.5z"/>
	<path fill="#FFFF00" d="M263.8,177.7h0.2c0.3,0,0.5-0.2,0.5-0.6V175h-1.3v1.1h-1V175H261v1.1h-1V175h-1.3h0v2.1
		c0,0.3,0.3,0.6,0.6,0.6h0.1H263.8z"/>
	<path d="M255.6,178.4h1v-1.7c0-0.6-1-0.6-1,0V178.4z"/>
	<path d="M250.8,179c0-0.6-0.9-0.6-0.9,0v1.3h0.9V179z"/>
	<path d="M261.2,179v1.3h0.9V179C262.1,178.4,261.2,178.4,261.2,179z"/>
	<path fill="#FFFF00" d="M308.9,191L308.9,191c-0.1-0.7-0.1-1.3-0.3-1.9c0,0,0,0,0-0.1c0-0.2-0.1-0.4-0.1-0.5
		c-0.1-0.4-0.3-0.8-0.5-1.1c-1.2-2.3-3.5-2.8-3.5-2.8c-0.1,0-4.3,1.2-4.4,6.4h-0.1c0,0,0,0.1,0,0.1h8.8
		C308.9,191,308.9,191,308.9,191z M302.1,191c0-3.4,2.5-4.5,2.5-4.5s2.5,1,2.5,4.5H302.1z"/>
	
		<line fill="none" stroke="#FFFF00" stroke-width="0" stroke-linecap="round" stroke-linejoin="round" x1="313.5" y1="191.1" x2="313.6" y2="191.1"/>
	<path fill="#FFFF00" d="M314.2,191.8c0-0.4-0.3-0.7-0.7-0.7h-4.6h-8.8h-4.6c-0.3,0-0.6,0.3-0.6,0.7c0,0.5,0.3,0.9,0.6,0.9h18.1
		C313.9,192.7,314.2,192.4,314.2,191.8z"/>
	<path fill="#FFFF00" d="M304.5,184.6c0,0,2.2,0.5,3.5,2.8c0.2,0.3,0.3,0.7,0.5,1.1c0.1,0.2,0.1,0.4,0.1,0.5c0,0,0,0,0,0.1
		c0.1,0.6,0.2,1.2,0.2,1.9h0.1h4.4l-0.7-6.5h-16.1l-0.8,6.5h4.4h0.1C300.3,185.7,304.4,184.6,304.5,184.6z"/>
	<path fill="#FFFF00" d="M308.1,181.4h-1.3l-0.3-6.9h-3.9v0.1l-0.3,6.8H301h-4.3h-1c-0.3,0-0.6,0.4-0.6,0.9c0,0.3,0.3,0.6,0.6,0.6
		h17.4c0.3,0,0.6-0.3,0.6-0.7c0-0.3-0.3-0.6-0.6-0.6v-0.1h-0.9H308.1z M304,176.7c0-0.6,1-0.6,1,0v1.7h-1V176.7z"/>
	<path fill="#FFFF00" d="M305.2,172.5v-0.9h-1.4v1h-1v-1.1h-1.3v2.1c0,0.4,0.2,0.6,0.5,0.6h4.7c0.3,0,0.6-0.2,0.6-0.5v-2.1h0h-1.3
		v0.9H305.2z"/>
	<path fill="#FFFF00" d="M304.5,186.5c0,0-2.5,1.1-2.5,4.5h4.9C307,187.4,304.5,186.5,304.5,186.5z"/>
	<path fill="#FFFF00" d="M312.6,184.5h0.3c0.4,0,0.6-0.3,0.6-0.7c0-0.4-0.2-0.7-0.6-0.7h-0.1h-16.4c-0.3,0-0.6,0.3-0.6,0.7
		c0,0.4,0.3,0.7,0.6,0.7h0.2H312.6z"/>
	<path fill="#FFFF00" d="M312.3,177.7h-4.3v3.6h4.3V177.7z M309.8,179c0-0.6,0.9-0.6,0.9,0v1.3h-0.9V179z"/>
	<path fill="#FFFF00" d="M301,177.7h-4.3v3.6h4.3V177.7z M298.5,179c0-0.6,0.9-0.6,0.9,0v1.3h-0.9V179z"/>
	<path fill="#FFFF00" d="M312.4,177.7c0.3,0,0.6-0.3,0.6-0.6V175h-1.3v1.1h-1V175h-1.3v1.1h-1V175h-1.3v2.1c0,0.4,0.2,0.6,0.5,0.6
		h0.2h4.3H312.4z"/>
	<path fill="#FFFF00" d="M301.1,177.7c0.3,0,0.6-0.3,0.6-0.6V175h0h-1.3v1.1h-1V175h-1.3v1.1h-1V175H296v2.1c0,0.4,0.2,0.6,0.5,0.6
		h0.2h4.3H301.1z"/>
	<path d="M305,176.7c0-0.6-1-0.6-1,0v1.7h1V176.7z"/>
	<path d="M310.6,180.3V179c0-0.6-0.9-0.6-0.9,0v1.3H310.6z"/>
	<path d="M299.3,180.3V179c0-0.6-0.9-0.6-0.9,0v1.3H299.3z"/>
	<path fill="#FFFF00" d="M308.9,240.4L308.9,240.4c-0.1-0.7-0.1-1.3-0.3-1.9c0,0,0,0,0-0.1c0-0.2-0.1-0.4-0.1-0.5
		c-0.1-0.4-0.3-0.8-0.5-1.1c-1.2-2.3-3.5-2.8-3.5-2.8c-0.1,0-4.3,1.2-4.4,6.4h-0.1c0,0,0,0.1,0,0.1h8.8
		C308.9,240.4,308.9,240.4,308.9,240.4z M302.1,240.4c0-3.4,2.5-4.5,2.5-4.5s2.5,1,2.5,4.5H302.1z"/>
	
		<line fill="none" stroke="#FFFF00" stroke-width="0" stroke-linecap="round" stroke-linejoin="round" x1="313.6" y1="240.5" x2="313.5" y2="240.5"/>
	<path fill="#FFFF00" d="M295.5,242.1h18.1c0.3,0,0.6-0.3,0.6-0.9c0-0.4-0.3-0.7-0.7-0.7h-4.6h-8.8h-4.6c-0.3,0-0.6,0.3-0.6,0.7
		C294.8,241.7,295.1,242.1,295.5,242.1z"/>
	<path fill="#FFFF00" d="M304.5,234c0,0,2.2,0.5,3.5,2.8c0.2,0.3,0.3,0.7,0.5,1.1c0.1,0.2,0.1,0.4,0.1,0.5c0,0,0,0,0,0.1
		c0.1,0.6,0.2,1.2,0.2,1.9h0.1h4.4l-0.7-6.5h-16.1l-0.8,6.5h4.4h0.1C300.3,235.1,304.4,234,304.5,234z"/>
	<path fill="#FFFF00" d="M295.8,230.8c-0.3,0-0.6,0.4-0.6,0.9c0,0.3,0.3,0.6,0.6,0.6h17.4c0.3,0,0.6-0.3,0.6-0.7
		c0-0.3-0.3-0.6-0.6-0.6v-0.1h-0.9h-4.3h-1.3l-0.3-6.9h-3.9v0.1l-0.3,6.8H301h-4.3H295.8z M304,226.1c0-0.6,1-0.6,1,0v1.7h-1V226.1z
		"/>
	<path fill="#FFFF00" d="M307.4,221L307.4,221h-1.3v0.9h-1V221h-1.4v1h-1v-1.1h-1.3v2.1c0,0.4,0.2,0.6,0.5,0.6h4.7
		c0.3,0,0.6-0.2,0.6-0.5V221z"/>
	<path fill="#FFFF00" d="M304.5,235.9c0,0-2.5,1.1-2.5,4.5h4.9C307,236.8,304.5,235.9,304.5,235.9z"/>
	<path fill="#FFFF00" d="M312.6,233.8h0.3c0.4,0,0.6-0.3,0.6-0.7c0-0.4-0.2-0.7-0.6-0.7h-0.1h-16.4c-0.3,0-0.6,0.3-0.6,0.7
		c0,0.4,0.3,0.7,0.6,0.7h0.2H312.6z"/>
	<path fill="#FFFF00" d="M312.3,227.1h-4.3v3.6h4.3V227.1z M309.8,228.4c0-0.6,0.9-0.6,0.9,0v1.3h-0.9V228.4z"/>
	<path fill="#FFFF00" d="M296.7,230.8h4.3v-3.6h-4.3V230.8z M299.3,229.7h-0.9v-1.3c0-0.6,0.9-0.6,0.9,0V229.7z"/>
	<path fill="#FFFF00" d="M312.4,227.1c0.3,0,0.6-0.3,0.6-0.6v-2.1h-1.3v1.1h-1v-1.1h-1.3v1.1h-1v-1.1h-1.3v2.1
		c0,0.4,0.2,0.6,0.5,0.6h0.2h4.3H312.4z"/>
	<path fill="#FFFF00" d="M301,227.1h0.1c0.3,0,0.6-0.3,0.6-0.6v-2.1h0h-1.3v1.1h-1v-1.1h-1.3v1.1h-1v-1.1H296v2.1
		c0,0.4,0.2,0.6,0.5,0.6h0.2H301z"/>
	<path d="M305,227.8v-1.7c0-0.6-1-0.6-1,0v1.7H305z"/>
	<path d="M310.6,229.7v-1.3c0-0.6-0.9-0.6-0.9,0v1.3H310.6z"/>
	<path d="M298.5,228.4v1.3h0.9v-1.3C299.3,227.8,298.5,227.8,298.5,228.4z"/>
	<path fill="#FFFF00" d="M291.1,290.4C291.1,290.4,291.1,290.4,291.1,290.4c0.1-0.2,0.2-0.4,0.3-0.6c0.2-0.4,0.4-0.8,0.5-1.1
		c0.8-2.5-0.5-4.4-0.5-4.4c-0.1-0.1-3.8-2.2-7.6,1.4l-0.1-0.1c0,0-0.1,0-0.1,0.1l6.2,6.3c0,0,0-0.1,0.1-0.1l-0.1-0.1
		C290.4,291.4,290.8,290.9,291.1,290.4z M285.2,287.1c2.4-2.4,4.9-1.4,4.9-1.4s1,2.4-1.5,4.9L285.2,287.1z"/>
	<path fill="#FFFF00" d="M280.4,282.5c-0.2-0.2-0.7-0.2-1,0.1c-0.4,0.4-0.4,0.8-0.2,1.1l12.8,12.9c0.2,0.2,0.7,0.2,1.1-0.1
		c0.3-0.3,0.3-0.8,0-1.1l0.1,0.1l-3.3-3.3l-6.2-6.3L280.4,282.5z"/>
	<path fill="#FFFF00" d="M285.8,278.6l-5.2,4l3.1,3.1l0.1,0.1c3.8-3.6,7.5-1.5,7.6-1.4c0,0,1.2,1.9,0.5,4.4
		c-0.1,0.4-0.3,0.7-0.5,1.1c-0.1,0.2-0.2,0.3-0.3,0.5c0,0,0,0,0,0.1c-0.3,0.5-0.7,1-1.2,1.4l0.1,0.1l3.1,3.1l4.1-5.1L285.8,278.6z"
		/>
	<path fill="#FFFF00" d="M298.3,289l-11.6-11.7c-0.2-0.2-0.7-0.2-1,0.1c-0.3,0.3-0.3,0.8-0.1,1l0.1,0.1l11.3,11.4l0.2,0.2
		c0.3,0.3,0.7,0.2,1-0.1C298.6,289.8,298.7,289.4,298.3,289L298.3,289z"/>
	<path fill="#FFFF00" d="M288.2,276.6L288.2,276.6l-0.7-0.7c-0.2-0.2-0.8-0.2-1.1,0.1c-0.2,0.2-0.2,0.7,0,0.9l12.3,12.3
		c0.2,0.2,0.7,0.2,1-0.1c0.2-0.2,0.2-0.7,0-0.9l0.1-0.1l-0.6-0.6l0,0l-3-3l0,0l-5-5l0,0L288.2,276.6z"/>
	<path fill="#FFFF00" d="M300.3,278.7c0.2,0.2,0.6,0.3,0.8,0.1l1.5-1.5l-0.9-0.9l-0.6,0.6l-0.7-0.7l0.6-0.6l-1-1l-0.7,0.7l-0.7-0.7
		l0.8-0.8l-0.9-0.9l-1.5,1.5c-0.3,0.3-0.3,0.6-0.1,0.8L300.3,278.7z"/>
	<path fill="#FFFF00" d="M295.3,283.7l4.7-5.1l-2.8-2.8l-0.1,0.1l-5.1,4.6L295.3,283.7z M297.3,279.1l-1.2,1.2l-0.7-0.7l1.2-1.2
		C297.1,277.9,297.8,278.6,297.3,279.1z"/>
	<path fill="#FFFF00" d="M290.1,285.7c0,0-2.5-1-4.9,1.4l3.5,3.5C291.1,288.1,290.1,285.7,290.1,285.7z"/>
	<path fill="#FFFF00" d="M299.2,287.6L299.2,287.6l2.6-2.6l-3-3l-2.6,2.6l0,0L299.2,287.6z M299.6,284.7l-0.9,0.9l-0.6-0.6l0.9-0.9
		C299.5,283.7,300.1,284.3,299.6,284.7z"/>
	<path fill="#FFFF00" d="M288.2,276.6L288.2,276.6l3,3l0,0l2.6-2.6l-3-3L288.2,276.6z M291.7,276.7l-0.9,0.9l-0.6-0.6l0.9-0.9
		C291.5,275.7,292.1,276.3,291.7,276.7z"/>
	<path fill="#FFFF00" d="M302.7,282l-0.9-0.9l-0.8,0.8l-0.7-0.7l0.8-0.8l-0.9-0.9l-1.5,1.5c-0.3,0.3-0.3,0.6-0.1,0.8l3.2,3.3
		c0.2,0.2,0.7,0.2,0.9,0l1.5-1.5h0l-0.9-0.9l-0.8,0.8l-0.7-0.7L302.7,282z"/>
	<path fill="#FFFF00" d="M293.9,277.1c0.2,0.2,0.7,0.2,0.9,0l1.5-1.5l-0.9-0.9l-0.8,0.8l-0.7-0.7l0.8-0.8l-0.9-0.9l-0.8,0.8
		l-0.7-0.7l0.8-0.8l-0.9-0.9l-1.5,1.5c-0.3,0.3-0.3,0.6-0.1,0.8L293.9,277.1z"/>
	<path d="M296.1,280.3l1.2-1.2c0.5-0.5-0.2-1.1-0.7-0.7l-1.2,1.2L296.1,280.3z"/>
	<path d="M299,284.1l-0.9,0.9l0.6,0.6l0.9-0.9C300.1,284.3,299.5,283.7,299,284.1z"/>
	<path d="M290.8,277.6l0.9-0.9c0.5-0.5-0.1-1.1-0.6-0.6l-0.9,0.9L290.8,277.6z"/>
	<path fill="#003399" d="M248.1,231.1v11.5c0,2.3,0.8,4.4,2.3,6.1c1.4,1.6,3.5,2.5,5.7,2.6c2.2,0,4.3-1.1,5.7-2.6
		c1.5-1.7,2.4-3.8,2.3-6.1v-11.5H248.1z M256.2,238.1c0.9,0,1.6,0.7,1.6,1.6s-0.7,1.6-1.6,1.6s-1.6-0.7-1.6-1.6
		S255.3,238.1,256.2,238.1z M251.8,233.8c0.9,0,1.6,0.7,1.6,1.6s-0.7,1.6-1.6,1.6c-0.9,0-1.6-0.7-1.6-1.6S251,233.8,251.8,233.8z
		 M250.2,244.2c0-0.9,0.7-1.6,1.6-1.6c0.9,0,1.6,0.7,1.6,1.6c0,0.9-0.7,1.6-1.6,1.6C251,245.8,250.2,245.1,250.2,244.2z
		 M262.3,244.2c0,0.9-0.7,1.6-1.6,1.6s-1.6-0.7-1.6-1.6c0-0.9,0.7-1.6,1.6-1.6S262.3,243.3,262.3,244.2z M262.3,235.4
		c0,0.9-0.7,1.6-1.6,1.6s-1.6-0.7-1.6-1.6s0.7-1.6,1.6-1.6S262.3,234.6,262.3,235.4z"/>
	<circle fill="#FFFFFF" cx="251.8" cy="235.4" r="1.6"/>
	<circle fill="#FFFFFF" cx="260.7" cy="235.4" r="1.6"/>
	<circle fill="#FFFFFF" cx="256.2" cy="239.7" r="1.6"/>
	<circle fill="#FFFFFF" cx="251.8" cy="244.2" r="1.6"/>
	<circle fill="#FFFFFF" cx="260.7" cy="244.2" r="1.6"/>
	<path fill="#003399" d="M248.1,203.3v11.5c0,2.3,0.8,4.4,2.3,6.1c1.4,1.6,3.5,2.5,5.7,2.6c2.2,0,4.3-1.1,5.7-2.6
		c1.5-1.7,2.4-3.8,2.3-6.1v-11.5H248.1z M256.2,213.6c-0.9,0-1.6-0.7-1.6-1.6s0.7-1.6,1.6-1.6s1.6,0.7,1.6,1.6
		S257.1,213.6,256.2,213.6z M250.2,207.7c0-0.9,0.7-1.6,1.6-1.6c0.9,0,1.6,0.7,1.6,1.6s-0.7,1.6-1.6,1.6
		C251,209.3,250.2,208.6,250.2,207.7z M251.8,214.9c0.9,0,1.6,0.7,1.6,1.6s-0.7,1.6-1.6,1.6c-0.9,0-1.6-0.7-1.6-1.6
		S251,214.9,251.8,214.9z M262.3,216.5c0,0.9-0.7,1.6-1.6,1.6s-1.6-0.7-1.6-1.6s0.7-1.6,1.6-1.6S262.3,215.6,262.3,216.5z
		 M262.3,207.7c0,0.9-0.7,1.6-1.6,1.6s-1.6-0.7-1.6-1.6s0.7-1.6,1.6-1.6S262.3,206.8,262.3,207.7z"/>
	<circle fill="#FFFFFF" cx="251.8" cy="207.7" r="1.6"/>
	<circle fill="#FFFFFF" cx="260.7" cy="207.7" r="1.6"/>
	<circle fill="#FFFFFF" cx="256.2" cy="212" r="1.6"/>
	<circle fill="#FFFFFF" cx="251.8" cy="216.5" r="1.6"/>
	<circle fill="#FFFFFF" cx="260.7" cy="216.5" r="1.6"/>
	<path fill="#003399" d="M233.9,251.2c2.2,0,4.3-1.1,5.7-2.6c1.5-1.7,2.4-3.8,2.3-6.1v-11.5h-16v11.5c0,2.3,0.8,4.4,2.3,6.1
		C229.7,250.3,231.8,251.2,233.9,251.2z M236.9,235.4c0-0.9,0.7-1.6,1.6-1.6s1.6,0.7,1.6,1.6s-0.7,1.6-1.6,1.6
		S236.9,236.3,236.9,235.4z M234,241.3c-0.9,0-1.6-0.7-1.6-1.6s0.7-1.6,1.6-1.6s1.6,0.7,1.6,1.6S234.9,241.3,234,241.3z
		 M238.5,245.8c-0.9,0-1.6-0.7-1.6-1.6c0-0.9,0.7-1.6,1.6-1.6s1.6,0.7,1.6,1.6C240.1,245.1,239.4,245.8,238.5,245.8z M231.3,235.4
		c0,0.9-0.7,1.6-1.6,1.6s-1.6-0.7-1.6-1.6s0.7-1.6,1.6-1.6S231.3,234.6,231.3,235.4z M229.7,242.6c0.9,0,1.6,0.7,1.6,1.6
		c0,0.9-0.7,1.6-1.6,1.6s-1.6-0.7-1.6-1.6C228.1,243.3,228.8,242.6,229.7,242.6z"/>
	<circle fill="#FFFFFF" cx="229.7" cy="235.4" r="1.6"/>
	<circle fill="#FFFFFF" cx="238.5" cy="235.4" r="1.6"/>
	<circle fill="#FFFFFF" cx="234" cy="239.7" r="1.6"/>
	<circle fill="#FFFFFF" cx="229.7" cy="244.2" r="1.6"/>
	<circle fill="#FFFFFF" cx="238.5" cy="244.2" r="1.6"/>
	<path fill="#003399" d="M270.3,231.1v11.5c0,2.3,0.8,4.4,2.3,6.1c1.4,1.6,3.5,2.5,5.7,2.6c2.2,0,4.3-1.1,5.7-2.6
		c1.5-1.7,2.4-3.8,2.3-6.1v-11.5H270.3z M274,245.8c-0.9,0-1.6-0.7-1.6-1.6c0-0.9,0.7-1.6,1.6-1.6s1.6,0.7,1.6,1.6
		C275.6,245.1,274.9,245.8,274,245.8z M274,237c-0.9,0-1.6-0.7-1.6-1.6s0.7-1.6,1.6-1.6s1.6,0.7,1.6,1.6S274.9,237,274,237z
		 M278.4,241.3c-0.9,0-1.6-0.7-1.6-1.6s0.7-1.6,1.6-1.6s1.6,0.7,1.6,1.6S279.3,241.3,278.4,241.3z M282.9,245.8
		c-0.9,0-1.6-0.7-1.6-1.6c0-0.9,0.7-1.6,1.6-1.6s1.6,0.7,1.6,1.6C284.5,245.1,283.8,245.8,282.9,245.8z M282.9,237
		c-0.9,0-1.6-0.7-1.6-1.6s0.7-1.6,1.6-1.6s1.6,0.7,1.6,1.6S283.8,237,282.9,237z"/>
	<circle fill="#FFFFFF" cx="274" cy="235.4" r="1.6"/>
	<circle fill="#FFFFFF" cx="282.9" cy="235.4" r="1.6"/>
	<circle fill="#FFFFFF" cx="278.4" cy="239.7" r="1.6"/>
	<circle fill="#FFFFFF" cx="274" cy="244.2" r="1.6"/>
	<circle fill="#FFFFFF" cx="282.9" cy="244.2" r="1.6"/>
	<path fill="#003399" d="M264.1,258.6h-16v11.5c0,2.3,0.8,4.4,2.3,6.1c1.4,1.6,3.5,2.5,5.7,2.6c2.2,0,4.3-1.1,5.7-2.6
		c1.5-1.7,2.4-3.8,2.3-6.1V258.6z M262.3,263c0,0.9-0.7,1.6-1.6,1.6s-1.6-0.7-1.6-1.6c0-0.9,0.7-1.6,1.6-1.6S262.3,262.1,262.3,263z
		 M254.6,267.2c0-0.9,0.7-1.6,1.6-1.6s1.6,0.7,1.6,1.6s-0.7,1.6-1.6,1.6S254.6,268.1,254.6,267.2z M250.2,263c0-0.9,0.7-1.6,1.6-1.6
		c0.9,0,1.6,0.7,1.6,1.6c0,0.9-0.7,1.6-1.6,1.6C251,264.6,250.2,263.9,250.2,263z M251.8,273.3c-0.9,0-1.6-0.7-1.6-1.6
		s0.7-1.6,1.6-1.6c0.9,0,1.6,0.7,1.6,1.6S252.7,273.3,251.8,273.3z M262.3,271.7c0,0.9-0.7,1.6-1.6,1.6s-1.6-0.7-1.6-1.6
		s0.7-1.6,1.6-1.6S262.3,270.8,262.3,271.7z"/>
	<circle fill="#FFFFFF" cx="251.8" cy="263" r="1.6"/>
	<circle fill="#FFFFFF" cx="260.7" cy="263" r="1.6"/>
	<circle fill="#FFFFFF" cx="256.2" cy="267.2" r="1.6"/>
	<circle fill="#FFFFFF" cx="251.8" cy="271.7" r="1.6"/>
	<circle fill="#FFFFFF" cx="260.7" cy="271.7" r="1.6"/>
</g>
</svg>
