<?xml version="1.0" encoding="utf-8"?>
<!-- Generator: Adobe Illustrator 17.1.0, SVG Export Plug-In . SVG Version: 6.00 Build 0)  -->
<!DOCTYPE svg PUBLIC "-//W3C//DTD SVG 1.1//EN" "http://www.w3.org/Graphics/SVG/1.1/DTD/svg11.dtd">
<svg version="1.1" id="flag-icon-css-pw" xmlns="http://www.w3.org/2000/svg" xmlns:xlink="http://www.w3.org/1999/xlink" x="0px"
	 y="0px" viewBox="0 0 640 480" enable-background="new 0 0 640 480" xml:space="preserve">
<g>
	<path fill="#4AADD6" d="M525.9,177.6c-0.7-1.8-1.7-5.5-2.2-8.3c-0.7-3.7-1.8-7.2-4.3-13.3l-3.3-8.3l-3.6-3.6l-3.6-3.6l-1.3,0.8
		c-1,0.6-1.3,1.3-1.8,3.6c-0.3,1.5-0.7,3-0.8,3.3c-0.6,0.9-2.8,0.8-5.7-0.2c-1.7-0.6-3.9-1.1-5-1.1c-1.5,0-2.6-0.4-4.8-1.9
		c-2.5-1.6-3.1-2.2-4.5-5.2c-0.9-1.9-3.5-6.5-5.7-10.4c-3.1-5.5-4.4-7.3-6-8.5c-1.6-1.2-2-1.8-2-2.9s-0.4-1.6-1.8-2.6
		c-1.5-1-1.8-1.5-2.1-3.3c-0.2-1.4,0-2.5,0.4-3.4c0.9-1.8,0.9-1.7-0.7-2.1c-1.1-0.2-1.6-0.8-2.4-2.4c-0.5-1.1-1.3-2.1-1.7-2.3
		c-0.5-0.1-1-1.1-1.3-2.1c-0.3-1-0.8-1.9-1.2-1.9c-0.4,0-0.7-0.8-0.9-2.1c-0.3-1.9-0.5-2.1-1.6-2.1c-1,0-1.3-0.3-1.8-1.6
		c-0.3-0.8-1.4-2.6-2.5-3.7l-1.9-2.1l-1.4,1c-0.7,0.6-1.6,1.5-1.9,2.1c-0.3,0.6-0.9,1.1-1.4,1.1c-0.7,0-0.8-0.4-0.8-2.3
		c0-2.2-0.1-2.4-1.6-3.3c-0.9-0.5-1.7-1.4-1.9-2c-0.4-1.7-2-1.4-4.5,0.8c-3.1,2.9-7.8,6.4-8.4,6.4c-0.3,0-1.5-0.5-2.7-1.1
		c-1.6-0.8-6-5.1-16.1-15.6l-13.9-14.5l-0.5-6.1c-0.3-3.9-0.8-6.6-1.3-7.6c-0.4-0.8-0.7-2.2-0.7-3c0-1.1-0.7-2.4-2.3-4.7
		c-1.3-1.8-2.3-3.6-2.3-4s-0.3-1.7-0.8-2.8c-0.6-1.4-0.6-2.1-0.3-2.7c0.3-0.4,1.5-2.6,2.7-4.8l2.1-4l-2.2-3
		c-1.9-2.5-2.9-3.4-6.2-5.2c-2.6-1.5-4.4-2.8-5.4-4.1c-1.2-1.6-1.8-2-3.5-2.2c-1.1-0.1-2.5-0.2-3.1,0c-0.7,0.1-1.7-0.2-2.9-1
		c-1.9-1.2-2-1.2-3.6-0.6c-3,1.3-3.5,1.3-4.5,0.3c-1.4-1.6-2.6-1.2-4.3,1.5c-1.3,2.1-1.8,2.6-3.7,3.2c-1.8,0.5-2.4,1-2.9,2.1
		c-0.5,1.2-1.2,1.7-3.4,2.5c-4,1.5-5.5,3-7.1,7.2l-1.3,3.5l-5.9,3.3c-3.3,1.8-8.1,4.1-10.7,5.2c-4.6,1.9-5.3,2-17.8,3.7l-13,1.7
		l-4.6-1c-2.5-0.5-5.4-1.4-6.3-1.9c-1.3-0.7-2.7-0.9-5.9-0.9c-2.8,0-5-0.3-6.6-0.8c-2.5-0.8-2.6-0.8-23.2,0.9
		c-20.3,1.7-20.7,1.7-21.5,0.8c-0.4-0.5-0.8-1.2-0.9-1.4c-0.2-0.5-1.3-0.4-5.2,0.1c-4.8,0.7-5,0.7-7.3-0.3c-2.1-0.8-2.8-0.9-5.5-0.5
		c-3,0.4-3.2,0.4-5.8-1l-2.6-1.5h-8.5c-11.6,0-24.3,0.8-26.5,1.7c-1.6,0.7-1.9,0.7-2.8,0c-1.9-1.3-3.3-0.5-6.1,3.1
		c-3.2,4.2-4.1,7.2-3.7,11.7l0.3,3.3l3.6,3.7c2,2,4.9,5.5,6.4,7.7c2.3,3.3,2.8,4.4,3,6.4c0.2,2,0.6,2.8,2.2,4.7
		c1.9,2.2,2,2.5,2.4,6.8c0.4,3.7,1.3,6.9,4.7,17.3c2.3,7,4.7,13.7,5.3,14.9c1.4,2.6,3,9.4,4.7,18.7c22.8-18.7,52.3-30.4,84.7-31.2
		c75-1.9,137.5,54.7,139.5,126.5c0.1,2.4,0.1,4.7,0,7.1c2,71.8-57.1,131.6-132.2,133.6c-38.2,1-73.1-13.2-98.5-36.9l-0.1,1.1
		l-0.7,6.4l1.5,4.5c1.4,4.1,3.2,7.8,5.6,11.4c0.5,0.7,2.1,1.9,3.7,2.6c1.6,0.7,3.7,2.1,4.6,2.9l1.8,1.6l-0.7,2.6
		c-1.1,3.7-4.4,7.7-10.3,12.4c-4.7,3.8-5.2,4.5-6.4,7.2c-1.3,2.9-1.4,3-5.3,5.2c-3.3,2-4.8,3.3-9.1,7.9c-2.8,3-6.5,7.7-8.3,10.3
		s-6.1,8.3-9.6,12.5c-3.5,4.3-7.2,8.8-8,10c-2.6,3.5-13,16.1-16.6,20.3c-4.3,4.8-4.6,6.2-2.4,9l1.5,2l6.9-0.3
		c6.3-0.3,8-0.2,13.2,0.9c0.6,0.1,1.9,1.5,3.2,3.4c1.9,2.7,2.7,3.4,5.7,5.1c2,1,5.9,2.9,8.9,4.2c4.9,2.1,5.8,2.3,10.2,2.6
		c2.6,0.2,8.3,0.7,12.4,1c7,0.6,7.8,0.6,9.7-0.1c1.7-0.7,2.5-0.7,5.2-0.2c2.6,0.4,4.2,0.4,8.5-0.2c6.6-0.9,11.7-0.7,15.8,0.9
		c1.7,0.7,4.6,1.4,6.5,1.7c3.1,0.5,4,0.5,9-0.5l5.5-1l5.1-4.1c2.8-2.3,8.8-7.3,13.2-11.3l8.1-7.2l8.1-3.4c4.5-1.9,9.3-3.9,10.9-4.6
		c2.4-0.9,3.2-1.6,7-6.2c5.9-7.1,17.5-19.1,21.2-22.3c1.7-1.4,7.5-6,12.8-10.2c9-7,10.3-8.2,16.5-15.2c4.9-5.6,9-9.7,15.5-15.3
		c4.8-4.2,11.6-10.4,15.1-13.7c9.7-9.3,17.5-15.7,26.1-21.3c2-1.3,3.9-2.9,4.3-3.6c0.8-1.4,3.7-2.9,6.7-3.4c2.6-0.5,6.2-2.7,8.7-5.3
		c2.2-2.3,2.3-2.4,4.4-2.2c1.2,0.1,2.8,0.7,3.5,1.2c2.4,1.7,3.2,1.7,5.6,0.1c1.2-0.7,2.5-1.4,2.8-1.4c0.3,0,0.8-1.1,1.1-2.3
		c0.4-1.9,0.9-2.6,2.3-3.6c0.9-0.7,2.6-2.1,3.8-3.2c1.5-1.4,2.7-2.1,4.6-2.5c2-0.5,2.6-0.9,3.3-2c2.2-4,3.3-5.5,4.2-5.5
		c1.3,0,4.6-2.7,4.6-3.7c0-0.5,0.5-1.6,1.2-2.5c1.6-2.4,1.6-5.6,0-6.9c-0.9-0.7-1.2-1.3-1.2-3c0-2,0.2-2.3,2.3-4.2
		c1.6-1.4,2.4-2.6,2.6-3.6c0.2-0.9,1.3-2.8,2.6-4.3c2.3-2.8,5.6-8.9,5.6-10.5c0-0.5,1-2.8,2.3-5.1c1.3-2.4,3-6.6,3.9-9.4
		c1.5-4.6,2-5.5,4.7-8.7c1.7-2,3.6-3.7,4.2-3.9c1.4-0.4,2.8-2.3,3.2-4.5c0.4-2,3.3-6.3,5.3-8.1c0.8-0.6,1.7-1.7,2.1-2.4
		c0.4-0.7,2-2,3.5-2.8c1.7-1,3.3-2.3,4.1-3.5c2.3-3.2,3.2-3.9,5.7-4.2c3.1-0.4,4.5-2,3.1-3.4c-0.4-0.4-0.2-0.6,0.8-0.6
		c1.2,0,1.7-0.4,2.8-2c0.8-1.1,1.7-2.8,2-3.9c0.4-1.4,0.9-2.1,2-2.7c1-0.5,1.9-1.7,3.3-4.5c1-2,1.8-4.1,1.8-4.5
		c0-0.4,0.6-1.6,1.2-2.7c1-1.6,1.1-2.3,0.7-3.1c-0.3-0.7-0.3-2.1,0-4.6C527.1,180.9,527,180.6,525.9,177.6z"/>
	<path fill="#FFDE00" d="M273.7,365.7c75-1.9,134.2-61.8,132.2-133.6c0.1-2.4,0.1-4.7,0-7.1c-2-71.8-64.5-128.5-139.5-126.5
		c-32.4,0.8-61.9,12.5-84.7,31.2c0.3,1.6,0.6,3.2,0.8,5c1.4,8.9,2,11.3,3.9,16.5c1.2,3.3,2.4,6.9,2.6,8c0.2,1.1,0.5,2,0.7,2
		c0.2,0,0.4,0.5,0.4,1.2s0.5,2.1,1,3.2c0.8,1.5,0.9,2.2,0.6,3.1c-0.6,1.5,0,2.9,1.7,3.9c1.2,0.7,1.3,1.2,1.7,3.9
		c0.2,2,0.8,4,1.7,5.7c0.7,1.4,3.2,7,5.5,12.4l4.2,9.8l-0.3,18.3l-0.3,18.3l-2.8,6.3c-2.3,5.1-4.8,12.5-4.4,12.8
		c1.7,1.3,2.1,1.1,4.7-1.9c3.4-3.9,4.5-6.8,4.5-12.5c0-6.6,0.2-7.3,2.9-9.3c2.2-1.8,2.3-1.8,3.2-0.9c0.7,0.7,1,2.1,1.4,7.3
		c0.3,3.6,0.3,6.6,0.1,6.8c-0.2,0.2-1.3,0.7-2.5,1c-2,0.6-2,0.7-0.9,1l1.2,0.3l-1,0.3c-1.5,0.5-1.3,1.1,0.8,3.3l1.9,1.9l-0.3,3.3
		l-0.3,3.3h-6.7c-5.6,0-6.9,0.1-7.6,0.7c-0.8,0.7-0.8,0.8,0.1,2.1c0.9,1.3,1,1.3,5.6,1.3h4.6v2l0,2l1.5-1.7l1.6-1.7l0.3,1.4
		c0.5,2.6,0.3,6.5-0.7,11.7c-0.9,5-1,5.2-3.1,7.3c-1.9,2-2.4,2.2-4.7,2.5c-2.4,0.3-2.7,0.5-4.2,2.4c-1.5,2-1.5,2.3-1.3,5
		c0.1,1.5,0.4,3.3,0.6,3.8c0.2,0.8-0.7,1.8-6.5,6.4c-3.7,3-7.9,6.1-9.2,7c-1.3,0.9-3.9,2.9-5.6,4.6l-3.1,2.9l-0.6,5.3
		C200.6,352.5,235.5,366.7,273.7,365.7z"/>
</g>
</svg>
