<?xml version="1.0" encoding="utf-8"?>
<!-- Generator: Adobe Illustrator 17.1.0, SVG Export Plug-In . SVG Version: 6.00 Build 0)  -->
<!DOCTYPE svg PUBLIC "-//W3C//DTD SVG 1.1//EN" "http://www.w3.org/Graphics/SVG/1.1/DTD/svg11.dtd">
<svg version="1.1" id="flag-icon-css-py" xmlns="http://www.w3.org/2000/svg" xmlns:xlink="http://www.w3.org/1999/xlink" x="0px"
	 y="0px" viewBox="0 0 640 480" enable-background="new 0 0 640 480" xml:space="preserve">
<g>
	<path fill="#0038A8" d="M322.1,321.3c2,0.3,2.3,0.4,5,4.2c1.6,2.1,3.2,3.9,3.6,3.9c0.4,0,1.7-0.7,2.8-1.7l2.1-1.7l2.4,2.4
		c1.3,1.3,3.1,2.6,3.9,3.1c0.8,0.4,1.5,1.1,1.5,1.4c0,0.5,0.5,0.7,1.8,0.7c1,0,1.9,0.2,2.2,0.4c0.3,0.2,1.9,0.5,3.6,0.6
		c3.1,0.2,3.2,0.2,6.3,3.2c2.6,2.4,3.2,3.3,3.3,4.4c0,0.9,0.8,2.4,2.2,4.2c1.2,1.5,2.6,3.6,3.2,4.6c0.6,1.1,1.7,2.2,2.7,2.8
		c1.9,1.1,2.1,1.9,1.1,6.3c-0.6,2.6-2.9,5.5-4.3,5.5c-0.3,0-0.9,0.4-1.4,0.9c-0.5,0.5-1.3,0.9-1.7,0.9c-0.5,0-1.4,0.4-2,0.8
		c-1.1,0.6-1.2,1-0.9,2.5c0.2,1.6,0.1,1.8-1.6,2.9c-1.7,1.1-1.8,1.3-1.3,2.3c0.8,1.8,0.2,3.2-1.7,3.9c-0.9,0.3-1.6,0.8-1.5,1.1
		c0.9,2.1,0.9,2.2,0.1,2.2c-1.1,0-1.9,1.9-1.2,2.4c0.4,0.2,0.9,0.4,1.3,0.4c1.2,0,0.5,1.8-1.3,3.2c-1,0.8-2,1.5-2.1,1.5
		s-1,0.7-1.9,1.6c-0.9,0.9-2.2,1.8-2.9,1.9c-3,0.6-3.8,1.2-3.8,2.6c0,0.7-0.3,1.4-0.7,1.6c-0.6,0.2-0.6,0.4,0,1.3
		c1,1.5,0.4,2.6-1.5,2.6c-1.5,0-1.6,0.1-1.3,1c0.6,1.9,0.2,4.3-0.9,6c-1.4,2-1.4,2.9-0.2,3.8c0.9,0.7,0.9,0.7,0,1.3
		c-0.5,0.3-1.1,1.4-1.4,2.4c-0.5,1.6-0.4,1.8,0.9,2.8c1.3,1.1,1.3,1.2,0.8,3c-0.5,1.7-0.7,1.9-1.9,1.9c-1.3,0-1.3,0-1.3,3.1
		c0,2.8-0.1,3.2-1.3,4.3c-0.7,0.7-1.9,1.5-2.6,1.8c-1.4,0.6-1.5,1.7-0.4,3c0.7,0.8,0.7,0.8-0.2,0.8c-0.5,0-1.3,0.4-1.8,0.9
		c-0.4,0.5-1.6,1.1-2.5,1.4c-2,0.6-3.3,2.1-3,3.5c0.4,1.6-1,3.7-2.6,4c-1.3,0.3-1.5,0.6-1.7,2.2c-0.3,1.6-0.5,1.9-1.6,1.9
		c-2.8,0-3.9,4-1.6,5.9c0.9,0.8,1.2,1.4,1.2,3c0,1.1,0.1,2.1,0.2,2.3s1.6-0.1,3.1-0.6c2-0.6,4-0.9,6.9-0.8c2.9,0.1,4.6-0.1,6.2-0.7
		c1.4-0.6,2.6-0.7,3.7-0.5c0.8,0.2,3.9,0.5,6.9,0.7c13.9,1,18.3,1.9,21.2,4.1c1.3,1.1,4.6,2.1,8.3,2.6c1.3,0.2,2.9,0.7,3.7,1.2
		c0.9,0.6,2.3,0.9,4.3,0.9c2.3,0,3.5,0.3,6.2,1.6c2.4,1.2,4,1.6,5.6,1.6c2.4,0,5.8-1.3,7.1-2.8c0.6-0.6,1.4-0.9,2.9-0.9
		c1.9,0,2.3,0.2,4.5,2.6c1.4,1.4,2.8,2.6,3.2,2.6c0.4,0,1.5-0.6,2.5-1.4c1.7-1.3,2-1.4,6-1.4c3.6,0,4.2,0.1,4.2,0.7
		c0,1.8,3.8,6,5.7,6.5c1.7,0.4,3.4-1,3.9-3.1c0.2-0.9,0.6-1.3,1.2-1.3c1.3,0,1.9-1.4,1.9-4.1c0-2.2,0.1-2.4,1.1-2.4
		c0.8,0,1.8-0.7,3.2-2.3c1.9-2.2,2.1-2.3,4.5-2.3c1.3,0,3.2,0.3,4.1,0.7c0.9,0.4,2.6,0.7,3.9,0.7c2.2,0,2.3,0,3.5,2.1
		c1.1,1.9,5.1,4.8,6.5,4.8c0.3,0,1.2-1,2-2.1c0.9-1.3,2.4-2.5,3.7-3.1c1.9-0.9,2.3-1.3,2.7-3.2c0.3-1.2,0.8-2.6,1.2-3.1
		c0.6-0.9,0.5-1.2-0.4-2.3c-0.9-1.1-0.9-1.4-0.4-1.5c0.4-0.1,1.1-1.1,1.7-2.1c0.8-1.8,1.1-2,2.1-1.8c0.6,0.1,1.7,0.1,2.4,0
		c1-0.3,1.2-0.6,1.2-2.2c0-1.1,0.4-2.7,1-3.7c0.9-1.7,1.3-1.8,4-2.3c1.6-0.3,3.5-0.7,4.2-1c1-0.4,1.4-0.3,2.2,0.5
		c1.2,1.1,1.3,1.1,3.6,0.4c1.7-0.5,1.7-0.5,1.7-2.6c0-2,0.2-2.4,2.1-4.3c1.3-1.3,3-2.4,4.3-2.8c2-0.6,2.2-0.9,2.9-2.9
		c1.1-3.4,2.1-4.2,4.6-3.9c2.1,0.3,2.2,0.3,3.3-1.6c1-1.8,1.1-2.1,0.6-4.6l-0.5-2.7l2.4-2.1c1.7-1.5,2.6-2.7,2.9-4.1
		c0.3-1.1,0.8-2.6,1.3-3.3c0.7-1.3,1.6-6.4,1.4-8.4c0-0.5,0-1.9,0.1-3c0.3-4.4,0.2-6.8-0.1-8.2c-0.3-1.3-0.3-1.5,0.5-1.5
		c1.4,0,2-1,2-3.2c0-1.2,0.3-2.6,0.7-3c1-1.3,0.9-2.7-0.3-4.2c-0.7-0.9-1.1-2.1-1.3-4.4c-0.2-3.1-0.2-3.2,0.8-2.9
		c0.9,0.2,1,0.1,0.9-1.8c0-1.1,0.1-2.5,0.4-3.1c0.6-1.1,0.2-3.5-0.8-6.4c-0.6-1.6,0.6-4.4,3.3-7.6c1.2-1.3,2.4-3.2,2.6-4.2
		c0.3-1,1.3-2.9,2.2-4.2c1.6-2.4,1.6-2.6,1.1-4.1c-0.6-1.8-0.4-4.6,0.7-7.7c0.4-1.1,0.8-3.3,1.1-5.1c0.2-2.3,0.7-3.5,1.6-4.7
		c0.2-0.3,0.5-0.7,0.8-1.3H313.7C315.5,320.4,318.3,320.8,322.1,321.3z"/>
	<path fill="#FFFFFF" d="M344.6,236.6c0.3,0.4,0.6,0.9,0.9,1.5c0-0.6,0-1.2,0.1-1.7C345.3,236.5,345,236.5,344.6,236.6z"/>
	<path fill="#FFFFFF" d="M341.6,228.1c0.5,0.2,1.3,0.7,2.3,1.5c0,0,0.1,0.1,0.1,0.1c-0.4-1-0.7-1.8-0.8-2.4
		C342.8,227.5,342.4,227.9,341.6,228.1z"/>
	<path fill="#FFFFFF" d="M346.7,235.3c0.1,0.1,0.1,0.3,0.2,0.5h0.4C347.1,235.7,346.9,235.5,346.7,235.3z"/>
	<path fill="#FFFFFF" d="M280.8,262.5c-0.1-0.1-0.3-0.2-0.5-0.2c-0.2,0-0.3,0-0.5,0.1l-0.4,0.6c0,0.2,0.1,0.5,0.4,0.9l0.5,1l1.5-0.9
		l-0.6-1L280.8,262.5z"/>
	<path fill="#FFFFFF" d="M343.1,244.3c0.1,0.4,0.2,0.9,0.3,1.4c0,0,0,0,0,0c0.1-0.4,0.2-0.8,0.3-1.2
		C343.5,244.5,343.3,244.4,343.1,244.3z"/>
	<path fill="#FFFFFF" d="M302.5,257.4c-0.1-0.3-0.2-0.6-0.3-0.9C302.3,256.8,302.4,257.1,302.5,257.4L302.5,257.4z"/>
	<path fill="#FFFFFF" d="M340.8,217.8c-0.1,0.1-0.1,0.1-0.2,0.2l-0.5,0.8c0,0,0,0.1,0,0.1c0,0,0,0,0,0c0.4,0.3,0.8,0.7,1.3,1.1
		C341,219.1,340.8,218.3,340.8,217.8z"/>
	<path fill="#FFFFFF" d="M300.9,251.8c0,0.1,0.1,0.2,0.1,0.2c-0.1-0.2-0.2-0.4-0.2-0.6C300.8,251.5,300.8,251.7,300.9,251.8z"/>
	<path fill="#FFFFFF" d="M296.9,234.9c-0.9,1.7-2,3.7-3,5.5l0.1,0.2C295,238.9,296,236.8,296.9,234.9z"/>
	<path fill="#FFFFFF" d="M313.5,216.5c-0.7-0.3-1.5-0.7-2.3-1l-0.9-0.2C311.3,215.8,312.4,216.1,313.5,216.5z"/>
	<path fill="#FFFFFF" d="M358.3,214.7c0.2,0.2,0.3,0.2,0.5,0.2c0.2,0,0.3,0,0.5-0.1c0.2-0.1,0.3-0.4,0.3-0.6c0-0.2,0-0.5-0.3-0.9
		l-0.7-0.9l-1.4,1l0.7,0.9L358.3,214.7z"/>
	<polygon fill="#FFFFFF" points="352.1,205.7 349.4,207.3 350.7,208.5 	"/>
	<path fill="#FFFFFF" d="M339.7,253.5C339.7,253.5,339.8,253.5,339.7,253.5c0.1-0.1,0.1-0.1,0-0.1
		C339.7,253.5,339.7,253.5,339.7,253.5z"/>
	<polygon fill="#FFFFFF" points="362.1,252.7 361.6,254.4 364.6,254.5 	"/>
	<polygon fill="#FFFFFF" points="363.7,222.6 360.6,222.9 361.3,224.6 	"/>
	<path fill="#FFFFFF" d="M332.4,258.3c-0.3,0.9-1,2.1-1.9,3.4c1.2-0.4,2.3-0.8,3.2-0.9l-0.4-1.3C333.1,259,332.8,258.7,332.4,258.3z
		"/>
	<path fill="#FFFFFF" d="M344.3,201.2c0.3,0,0.5-0.2,0.6-0.4c0.1-0.2,0.1-0.5,0-0.7c0-0.3-0.2-0.5-0.6-0.8l-0.6-0.3l-1,1.6l0.6,0.3
		L344.3,201.2z"/>
	<path fill="#FFFFFF" d="M347.5,236h-0.6c0.2,0.5,0.3,1.1,0.4,1.8c0.1-0.7,0.3-1.2,0.4-1.7C347.7,236.1,347.6,236.1,347.5,236z"/>
	<path fill="#FFFFFF" d="M345.9,244.4c0,0.1,0,0.2,0,0.3c0.1,0,0.2,0.1,0.3,0.1C346.1,244.7,346,244.6,345.9,244.4z"/>
	<path fill="#FFFFFF" d="M290.6,238.5l0.1,0.3c0,0,0,0,0.1,0.1C290.7,238.7,290.7,238.6,290.6,238.5z"/>
	<path fill="#FFFFFF" d="M345.3,226.9c0,0,0-0.1-0.1-0.1c-0.3,0-0.7,0.1-1,0.2c0.4,0.3,0.8,0.9,1.2,1.5
		C345.3,227.8,345.3,227.3,345.3,226.9z"/>
	<path fill="#FFFFFF" d="M341.8,254.8c-0.2,0.2-0.3,0.4-0.5,0.7c0.2-0.1,0.4-0.2,0.6-0.3C341.9,255.1,341.8,254.9,341.8,254.8z"/>
	<path fill="#FFFFFF" d="M345.9,244.9c0,0.2,0,0.3-0.1,0.5c0,0.1,0,0.2,0,0.3c0.1-0.2,0.2-0.4,0.3-0.6L345.9,244.9z"/>
	<path fill="#FFFFFF" d="M308.3,265.2l2.4-0.7l-0.3-0.1C309.7,264.7,309,265,308.3,265.2z"/>
	<path fill="#FFFFFF" d="M280.1,224.3c-0.2-0.1-0.5-0.1-0.7,0l-0.5,0.9l-0.4,1.2l1.5,0.5l0.5-1.2c0.1-0.4,0.2-0.7,0-1
		C280.4,224.5,280.3,224.4,280.1,224.3z"/>
	<path fill="#FFFFFF" d="M299.8,217.9L299.8,217.9c0,0.1-0.1,0.2-0.1,0.2C299.8,218.1,299.8,218,299.8,217.9z"/>
	<path fill="#FFFFFF" d="M275,244.2c-0.2-0.2-0.4-0.2-0.7-0.2c-0.2,0.1-0.5,0.2-0.6,0.4c-0.2,0.1-0.2,0.5-0.2,1l0.1,0.7l1.9-0.3
		l-0.1-0.6C275.4,244.7,275.2,244.4,275,244.2z"/>
	<path fill="#FFFFFF" d="M277,223.5c-0.2-0.1-0.4-0.1-0.6,0c-0.2,0.2-0.4,0.4-0.5,0.8l-0.4,1l1.5,0.6l0.4-1.1c0-0.4,0.1-0.7,0-0.8
		C277.4,223.8,277.2,223.6,277,223.5z"/>
	<polygon fill="#FFFFFF" points="300.6,200.9 298.4,198.7 299,201.7 	"/>
	<path fill="#FFFFFF" d="M105.1,180.2c1.5,1.3,3.2,2.5,3.7,2.5c0.5,0,2.3,1.1,4,2.5c2.2,1.8,3.7,2.6,5.1,2.8
		c1.3,0.2,2.6,0.9,3.7,1.8c1.6,1.4,1.7,1.6,1.5,3.9c-0.2,2.4-0.1,2.4,1.3,2.7c1.3,0.3,1.4,0.5,1.4,1.8c0,1,0.4,1.9,1.2,2.6
		c0.7,0.6,1.6,2,2.1,3.1c0.5,1.1,1.8,3.1,2.9,4.4c2.3,2.7,3.3,4.6,4.3,7.8c0.7,2.5,3.7,5.6,5.4,5.6c0.5,0,2,0.8,3.3,1.8
		c1.3,1,2.9,2.1,3.6,2.6c0.8,0.6,1.3,1.3,1.5,2.6c0.2,1.5,0.6,2,2.3,3c1.2,0.6,2.6,1.2,3.2,1.2c1.3,0,2.8,1.5,3.5,3.3
		c0.3,0.9,0.8,1.3,1.5,1.3c0.6,0,1.6,0.6,2.5,1.6c0.9,1.1,2.9,2.3,5.8,3.5c2.4,1.1,5.1,2.6,5.9,3.2c0.8,0.7,2.9,2,4.6,3
		c4.4,2.3,4.6,2.6,5,4.9c0.2,1.4,1,2.9,2.4,4.6c1.2,1.5,2.1,3,2.1,3.4c0,1.2,1.6,2.2,3.6,2.2c1,0,3.1,0.4,4.5,0.9
		c1.5,0.5,3.2,0.9,3.9,0.9s3.2,0.5,5.5,1c3.8,0.9,4.4,1.2,5.2,2.5c0.5,0.8,1.8,2.1,3,2.9c1.9,1.3,2.4,1.5,5.7,1.5
		c2.9,0,3.9,0.2,4.8,0.9c1,0.8,1.9,0.9,6,0.9c3,0,5.8-0.3,7.2-0.7l2.3-0.7l5.4,3.6c2.9,1.9,9.2,6,13.9,9.1
		c5.2,3.3,10.6,7.2,13.6,9.9c2.8,2.4,5.2,4.4,5.5,4.4c0.2,0,0.7,0.4,1.1,0.8c0.7,0.9,2.4,2,3.2,2c0.3,0,1.5,0.7,2.6,1.7
		c1.1,0.9,2.8,1.9,3.8,2.1c0.9,0.2,2.1,0.8,2.6,1.3c0.5,0.5,2.4,1.6,4.1,2.6c1.8,1,4.9,2.9,6.9,4.3c2.8,1.9,4.1,2.5,5.3,2.5
		c1,0,2.1,0.4,2.6,0.8c0.3,0.3,1.2,0.6,2.6,1h222.9c1.5-3,3.6-9,3.6-10.7c0-0.7-0.5-2.2-1-3.4l-1-2.1l1.9-2c3.5-3.7,4.4-9,1.7-10.9
		c-0.9-0.7-1.2-1.4-1.6-4.4c-0.5-3.2-0.4-3.8,0.3-5.4c0.7-1.5,1.1-1.9,2.2-1.9c2.1,0,1.8-1.8-0.6-3.2c-1.1-0.6-3.1-2.3-4.5-3.8
		c-2-2.1-3.7-3.2-8-5.2c-5.1-2.4-5.5-2.5-6.6-1.9c-0.7,0.4-2.3,0.8-3.6,0.9c-1.7,0.2-3,0.7-4.5,1.9c-6.2,4.5-7.2,5-13,5.7
		c-1.7,0.2-4,0.6-5.1,0.8c-1.5,0.4-2.5,0.3-3.9-0.2c-1.1-0.4-2.9-0.6-4.1-0.6c-1.7,0.1-2.5-0.1-3.8-1.1l-1.6-1.2l-0.3-6.4
		c-0.4-7.9-0.7-9.3-2.8-11.3l-1.7-1.6l0-7c0-3.9-0.1-9.8-0.2-13.3c-0.2-6.4-0.2-6.4-1.6-7.5c-1.1-1-1.3-1.5-1.3-3.2
		c0-1.1-0.4-3-0.9-4.2c-0.5-1.2-0.9-2.8-0.9-3.6c0-0.8-0.3-2.6-0.7-4c-0.9-3.4-0.9-3.9,0.4-5.4c0.9-1.1,1-1.8,1-4.9
		c0-3.9-0.4-4.5-2.8-5.7c-2.6-1.2-3.5-3.7-3.2-7.8l0.3-3.4l-2.8-2c-2-1.4-3-2.4-3.4-3.6l-0.5-1.6l-2.9,0.3c-1.6,0.1-3.1,0.1-3.2,0
		c-0.5-0.5-4.9-0.5-6.1,0c-0.6,0.2-1.2,0.2-1.3,0c-0.2-0.3-0.9-0.5-1.7-0.5c-3.6,0-11-6-12.1-9.8l-0.5-1.8l-3.8,0.1l-3.8,0.1
		l-0.5,2.5c-0.4,2.4-0.6,2.6-3.2,4.4c-1.4,1-2.6,2.1-2.6,2.5c0,1-0.5,0.8-2-0.6c-1.3-1.2-1.3-1.2-1.9-0.5c-0.4,0.6-1.3,0.8-2.5,0.8
		c-1.7,0-2,0.2-2.8,1.7l-0.8,1.6l-1.7-1.4c-1.9-1.5-5.9-2.2-9.8-1.8c-1.8,0.2-2,0.1-2.5-0.8c-0.4-0.9-0.9-1.1-2.2-1.1
		c-1,0-2.3-0.3-2.9-0.6c-0.6-0.4-1.4-0.5-1.9-0.3c-0.4,0.2-1.9,0.5-3.2,0.6c-2,0.2-3.1,0.1-5-0.6c-1.3-0.5-3.5-0.9-5-0.9
		c-1.3,0-2.6-0.2-2.8-0.5c-0.3-0.5-1.4-0.3-3.1,0.3c-0.4,0.2-1.2-0.5-2.2-2c-1.3-1.9-1.7-2.4-3-2.5c-2.6-0.1-4.2,0.1-5.6,1
		c-1.1,0.6-1.9,0.7-3.5,0.4c-2.6-0.5-5.8-2.6-5.7-3.9c0-0.3,0.1-0.7,0.1-1.1H105.4C101,177.2,101.5,177,105.1,180.2z M271.8,244.6
		c-0.2-1,0-1.6,0.4-2.1c0.4-0.6,1-0.9,1.8-1c0.8,0,1.5,0.1,2,0.6c0.5,0.4,0.8,1.2,1,2.2l0.1,1.4l3-0.4l0.4,2.6l-8.3,0.9L271.8,244.6
		z M272.9,252l1.7-0.6l1.3,4.1l1.3-0.4l-1.3-3.8l1.6-0.5l1.3,3.7l1.5-0.5l-1.4-4.2l1.8-0.5l2.2,6.6l-7.8,2.6L272.9,252z
		 M280.2,267.9l-2.2-3.7c-0.3-0.5-0.5-1-0.7-1.6c-0.1-0.4-0.1-0.9,0.1-1.3c0.2-0.4,0.5-0.7,1-1c0.4-0.2,0.7-0.3,1.1-0.3
		c0.4,0,0.8,0,1.1,0.2l0.8,0.6v-0.7v-0.6l0.3-0.5l1.5-2.3l1.4,2.5l-1.4,2.4l-0.3,0.8l0.1,0.6l0.1,0.2l3-1.7l1.2,2.2L280.2,267.9z
		 M359.4,250.8l0.8-2.5l7,5.6l-1,2.6l-8.8,0.4l0.9-2.5h1.4l0.9-2.8L359.4,250.8z M358.8,261.5l5.8-0.3l-1.5,2.4h-3.3l1.5,2.9
		l-1.4,2.4l-2.5-5.2l-3-1.8l1.4-2.2L358.8,261.5z M369.4,240.3l-0.3,2.5l-5-0.4c-0.5,0-0.9,0-1.1,0.3c-0.3,0.2-0.5,0.6-0.5,1
		c0,0.4,0,0.8,0.3,1c0.2,0.3,0.5,0.5,1,0.5l5,0.4l-0.2,2.6l-5-0.4c-0.5-0.1-0.9-0.2-1.3-0.4c-0.4-0.2-0.7-0.5-1-0.8
		c-0.3-0.4-0.5-0.7-0.6-1.1c-0.2-0.6-0.2-1.2-0.2-1.8l0.2-1.3l0.5-1.2c0.2-0.3,0.5-0.6,0.8-0.8c0.3-0.2,0.6-0.3,1-0.4
		c0.5-0.1,0.9-0.2,1.4-0.2L369.4,240.3z M368,230.6c0.4,0.6,0.6,1.3,0.8,2.2v2c-0.1,0.5-0.3,0.9-0.6,1.3c-0.3,0.4-0.7,0.6-1.2,0.9
		l-0.8-2.4c0.3-0.1,0.5-0.3,0.7-0.6s0.1-0.6,0-1c-0.1-0.5-0.3-0.9-0.7-1.2c-0.4-0.3-1-0.4-2-0.2c-0.8,0.1-1.4,0.4-1.7,0.7
		c-0.4,0.4-0.5,1-0.4,1.5c0,0.3,0.1,0.6,0.3,0.8l0.5,0.8h0.8l-0.3-1.8l1.7-0.2l0.6,3.9l-3.5,0.5c-0.5-0.5-1-1.1-1.3-1.8
		c-0.3-0.6-0.5-1.3-0.6-2c-0.2-0.8-0.1-1.7,0.1-2.5c0.3-0.6,0.7-1.2,1.3-1.6c0.6-0.5,1.4-0.8,2.2-0.9c0.8-0.1,1.6-0.1,2.4,0.2
		C367,229.5,367.6,230,368,230.6z M365.2,220.6l1,2.6l-6.5,6l-1-2.6l1.1-0.8l-1-2.8l-1.5,0.2l-1-2.5L365.2,220.6z M358.6,209.3
		l2.3,3.5l1,1.7l-0.1,1.2c-0.2,0.5-0.6,0.9-1,1.1c-0.3,0.3-0.7,0.4-1,0.4c-0.4,0-0.8,0-1.2-0.2c-0.2,0-0.5-0.3-0.8-0.5l0.2,0.7
		l-0.2,0.6c0,0.2-0.1,0.4-0.2,0.6l-1.3,2.3l-1.6-2.3l1.3-2.6l0.3-0.7c0-0.3,0-0.5-0.2-0.7l-0.1-0.2l-2.8,2l-1.5-2.2L358.6,209.3z
		 M352.6,203.2l2,2l-3.4,8.1l-2-1.8l0.7-1.3l-2.1-2l-1.2,0.7l-2-1.7L352.6,203.2z M342.3,196.2l3.7,2.2c0.8,0.4,1.3,1,1.4,1.6
		c0.2,0.6,0,1.3-0.3,2c-0.3,0.7-1,1.1-1.7,1.3c-0.6,0.1-1.4,0-2.3-0.6l-1.2-0.7l-1.6,2.6l-2.2-1.3L342.3,196.2z M329.1,191.8
		l2.4,0.6l-1.5,6l4,1l-0.6,2l-6.3-1.6L329.1,191.8z M319.1,191l6.8,0.3v1.8l-4.3-0.2l-0.1,1.3l4,0.2l-0.1,1.7l-4-0.2v1.6l4.4,0.2
		l-0.1,1.9l-7-0.3L319.1,191z M327.6,249.5L327.6,249.5L327.6,249.5l-7.6-5.3l-7.6,5.3l2.9-8.4l-6.7-5.2h8.6l2.8-8.4l2.8,8.4h8.6
		l-6.7,5.2L327.6,249.5L327.6,249.5z M312.2,191.8c0.6-0.1,1.2-0.1,1.8,0c0.5,0.1,1,0.3,1.3,0.7c0.3,0.4,0.7,0.7,0.9,1.2
		c0.2,0.4,0.4,1,0.4,1.5c0.2,0.9,0.2,1.6,0.1,2c-0.1,0.5-0.3,1-0.6,1.4c-0.3,0.4-0.6,0.7-1,0.9c-0.5,0.2-1,0.4-1.5,0.5l-3.7,0.6
		l-1.5-8.2L312.2,191.8z M305.2,212.3l-0.5,0.9c-0.1,0.5-0.3,1-0.4,1.5c1.4-2.1,2.7-4.5,3.7-6.2c-0.8,1.7-1.7,3.9-2.4,5.8l0.1-0.1
		c0.8-1.8,1.6-3.8,2.1-5.2c-0.2,1.1-0.6,2.4-0.9,3.7c0.7-1.3,1.4-2.6,2-3.6c-0.3,1-0.7,2.1-1.1,3.2l0.4-0.4l-0.6,0.8
		c0,0.1-0.1,0.2-0.1,0.3c1.1-1.5,2.2-3.1,3-4.3c-0.6,1.3-1.4,2.7-2,4.1l1.1-0.8c0.8-1.1,1.6-2.1,2.3-2.9c-0.4,0.7-0.8,1.4-1.2,2.2
		l0.2-0.2l-0.4,0.5c-0.2,0.3-0.4,0.7-0.5,1l2.8-3.1c-0.5,0.9-1.3,1.9-1.9,3l0.2-0.1c1.1-1.1,2.1-2.2,2.9-3c-0.5,0.8-1.2,1.6-1.8,2.5
		l1.5-0.7l0.5-0.2c0,0-0.1,0.1-0.1,0.1l2.5-1.2c-0.9,0.6-2.1,1.3-3.1,1.9l0,0c-0.4,0.3-0.7,0.6-1.1,0.9l2.8-0.8l-2.2,1l0.4,0
		l1.9-0.5l-0.9,0.5l0.2,0l4.4-0.6l-2,0.5l2.5,0l-5.7,0.9l3,0.1l-3.1,0.4c0.9,0.4,1.9,0.9,2.7,1.2c-1.1-0.3-2.4-0.7-3.7-1.1l-0.9,0.1
		l-0.4,0.2c1.6,0.6,3.7,0.9,5.3,1.4c0,0,0,0,0,0l0,0c0,0,0,0,0,0c-1.1-0.1-2.4-0.3-3.8-0.4c0.7,0.2,1.4,0.4,2,0.6l-2.1-0.4
		c0.5,0.3,1,0.6,1.5,1c0.2,0.1,0.4,0.1,0.6,0.2v0.1c-0.6-0.1-1.2-0.3-1.9-0.4c0.3,0.1,0.6,0.2,0.9,0.3h-0.1c-1.4-0.3-3.2-0.7-4.9-1
		c1.4,0.4,3,0.7,4.2,1v0.1c-1.1-0.1-2.5-0.3-3.9-0.4c1.3,0.3,2.7,0.5,3.9,0.7h0c-0.6,0-1.2,0-1.9,0c0.3,0,0.5,0.1,0.8,0.1
		c-1.8,0-4.2,0-6.4,0c1.8,0.1,3.9,0.1,5.4,0.2h0.1c-1.3,0.2-2.9,0.4-4.5,0.6c1,0.1,2.1,0.1,2.9,0.2c-1.6,0.2-3.7,0.3-5.8,0.5
		c1.7,0,3.6-0.2,5.1-0.2c-1.1,0.2-2.4,0.5-3.8,0.8c1.3-0.1,2.6-0.3,3.7-0.4h0.1c-1.7,0.5-3.8,1-5.8,1.5c1.6-0.2,3.3-0.5,4.6-0.6h0h0
		h0c-1.2,0.4-2.7,0.8-4.2,1.3c1.1-0.1,2.2-0.2,3.1-0.2v0.1c-0.4,0.1-0.9,0.2-1.3,0.3c-0.5,0.2-1.1,0.5-1.7,0.7
		c0.7,0,1.3,0.1,1.9,0.1c-0.9,0.1-2,0.3-3.2,0.4c-1.1,0.4-2.2,0.9-3.3,1.3c1.3-0.3,2.6-0.7,3.8-1c0.1-0.1,0.2-0.1,0.2-0.2l0.1,0.1
		c0.5-0.1,1-0.3,1.5-0.4c-0.7,0.3-1.5,0.7-2.4,1.1c0.4-0.1,0.7-0.2,1.1-0.3c-0.7,0.3-1.5,0.7-2.3,1.1c-0.1,0.1-0.2,0.2-0.3,0.3
		c0.4-0.2,0.8-0.5,1.2-0.7c0,0,0,0,0,0v0c0.1-0.1,0.3-0.1,0.4-0.2c-0.3,0.2-0.6,0.4-0.9,0.7c-0.9,0.9-2,2-3.1,3.1
		c1-0.6,1.9-1.2,2.8-1.7v0.1c-0.6,0.6-1.3,1.3-1.9,2c-1.1,1.6-2.5,3.5-3.8,5.4c1.2-1.5,2.3-3.2,3.4-4.5v0.1
		c-0.6,1.1-1.3,2.4-2.1,3.8c0.7-0.9,1.4-1.8,2-2.6h0.1c-0.7,1.2-1.5,2.6-2.4,4.1c0.9-1.1,1.8-2.2,2.6-3.1c-0.4,0.6-0.9,1.4-1.3,2.1
		c0.2-0.2,0.4-0.4,0.5-0.5c-0.6,0.9-1.3,1.9-2,2.9c-0.1,0.2-0.3,0.5-0.4,0.7c0.8-1.1,1.6-2.2,2.4-3.1c0-0.1,0.1-0.2,0.1-0.3l0,0.1
		c0,0.1-0.1,0.1-0.1,0.2c-0.1,0.2-0.3,0.5-0.4,0.8c-0.3,1-0.8,2.2-1.2,3.4c0.4-0.9,0.8-1.7,1.2-2.5c-0.2,0.5-0.3,1-0.5,1.6
		c-0.3,1.7-0.7,3.7-1.2,5.7c0.4-1.8,0.9-3.6,1.3-5.1c0-0.1,0-0.1,0-0.2v0.1c0,0,0,0,0,0.1c-0.1,1-0.2,2.2-0.4,3.4
		c0.2-0.8,0.4-1.5,0.6-2.2c0,0,0,0,0,0h0c0,0,0,0,0,0c-0.2,1.9-0.5,4.3-0.8,6.7c0.4-1.8,0.7-3.7,1.1-5.2v0.1c-0.1,1-0.2,2.2-0.3,3.5
		c0.1-0.6,0.2-1.3,0.4-1.8v0.1c-0.2,2.3-0.4,5.2-0.6,8.1c0.3-2.3,0.4-4.9,0.7-7c0,0,0,0,0,0l0,0c0,0,0,0,0,0c0,1,0.1,2.1,0.1,3.2
		c0-1,0.1-1.9,0.2-2.8c0.2,2,0.3,4.5,0.6,7c0-1.9,0-3.9,0-5.5h0c0.1,0.9,0.2,2,0.4,3.1c0-0.5-0.1-1-0.1-1.5c0.4,2.4,1,5.5,1.6,8.5
		c-0.2-1.8-0.6-3.6-0.9-5.4c0-0.1-0.1-0.2-0.1-0.3c0,0,0,0,0,0h0c0,0,0,0,0,0c0,0,0.1,0.1,0.1,0.2c-0.1-0.6-0.2-1.3-0.3-1.9v-0.1
		c0.3,0.9,0.6,2,0.9,3.1c0,0,0,0.1,0.1,0.1c-0.1-0.7-0.2-1.4-0.3-2.1c0.2,0.8,0.5,1.7,0.7,2.7c1,1.8,2.2,4.1,3.5,6.2
		c-1-2.1-2.1-4.2-3-6c0.8,1.1,1.7,2.5,2.6,3.9c1.3,1.4,2.7,3.1,4.1,4.6c-1.5-1.8-3.2-3.8-4.5-5.5c1.3,1.2,3,2.8,4.6,4.3
		c-0.7-0.9-1.4-1.8-2-2.6c-0.1-0.1-0.2-0.2-0.3-0.3l0-0.1c0.1,0.1,0.2,0.2,0.3,0.4c1.5,1.4,3.4,3.2,5.3,5c-1.5-1.5-3.1-3.1-4.3-4.5
		c-0.1-0.1-0.2-0.2-0.4-0.3h0.1c0.1,0.1,0.2,0.2,0.3,0.3c2.8,2.2,6.7,5.4,9.6,7.4c1.8,0.9,3.4,2,4.8,3c0.9-0.5,1.9-1.1,3-1.6
		c0-0.1,0.1-0.2,0.1-0.2c0.3-1.2,1.3-3.1,2.7-5c1.5-2,3.2-3.4,4.2-3.9c-0.2-1.1,0.1-1.5,0.6-1.2c0.9,0.5,1.6,1.3,1.9,2.3
		c0.3,1.2-0.4,1.6-0.3,2c0.1,0.4,0.2,0.8,0.3,1.2c0.1,0,0.1,0,0.2,0c0.1-0.2,0.2-0.5,0.4-0.9c-0.1-0.8,0.3-2.2,1-3.9
		c0.7-1.6,1.5-3.1,2.3-4.3c0-0.3,0.1-0.5,0.4-0.5c0.6-0.7,1.1-1.2,1.5-1.4c0.7-0.3,0.9,0.5,0.5,2.1c0.1,0.1,0.3,0.2,0.4,0.3
		c0.1,0.1,0.2,0.2,0.3,0.3c0.1-0.1,0.3-0.2,0.4-0.3c-0.1-0.6-0.1-1.3-0.1-1.9c-0.5-2.8-0.3-6,0.2-7.3c0.4-0.8,0.8-0.6,1.2,0.3
		c0.5-0.1,1-0.2,1.5-0.1c0.2-0.4,0.4-0.8,0.5-1.1c-0.1-0.2-0.1-0.3-0.2-0.5c-0.8-2.1-1.3-4.2-1.2-5.1c-0.3-0.2-0.4-0.4-0.1-0.7
		c0.6-0.5,1.3-0.8,2.1-0.8c0.2,0,0.3,0,0.5,0.1c0.1-0.1,0.1-0.2,0.2-0.3c-0.5-0.4-1-0.9-1.4-1.4c-1.8-1.6-3.5-3.7-3.7-4.8
		c0-0.2,0-0.4,0.1-0.5c-0.7,0-0.9-0.3-0.7-0.6c0.3-0.4,1.1-1,2-1.2c0.5-0.1,0.8,0,1,0.2c0.1-0.1,0.4,0,0.7,0.2l0.7-0.2
		c-0.8-0.2-2-0.8-3.4-1.7c-2.2-1.5-3.7-3.1-3.6-3.7c0.1-0.4,1.1-0.2,2.5,0.5c-0.5-0.7-0.9-1.4-1.2-2l-0.6,0.3
		c-0.3,0.2-0.5,0.8-1.2,1.1c-0.7,0.4-1,0.2-0.9-0.1c0.1-0.3,0.5-0.9,1.1-1.2c0.6-0.3,0.9,0,1.2,0l0.3-0.2c0-0.1-0.1-0.2-0.1-0.3
		c-0.5,0.1-1.3,0-2.3-0.2c-1.6-0.5-2.8-1.3-2.5-1.7c0.1-0.2,0.6-0.3,1.3-0.2c-1-0.8-1.6-1.5-1.5-1.8c0.1-0.2,0.8-0.1,1.7,0.4
		c-0.3-0.2-0.6-0.5-0.9-0.7c-0.3,0-0.7-0.1-1.3-0.3c-0.4,0.2-1.3,0.2-2.4,0.1c-2-0.1-4.2-0.7-4.8-1.2s0.5-0.8,2.5-0.7
		c0.4,0,0.8,0.1,1.2,0.1c-1.7-1-2.9-1.9-2.7-2.2c0.2-0.3,1.3,0,2.9,0.7c-1-1-1.6-1.9-1.3-2.2c0.3-0.3,1.8,0.5,3.4,1.9
		c0.2,0.1,0.3,0.3,0.5,0.4c1.1,1,1.8,1.9,1.9,2.4c0.4,0.3,0.6,0.6,0.5,0.7c0,0,0,0,0,0c0.3,0.2,0.6,0.4,0.8,0.5
		c-0.4-0.6-0.5-1-0.4-1.2c0.2-0.2,1,0.2,1.9,1.1c-0.5-1.3-0.7-2.2-0.4-2.3c0.2-0.1,0.6,0.3,1,0.8c-0.2-1-0.2-1.9-0.1-2.3
		c0.2-0.7,0.9,0,1.5,1.5c0.3,0.8,0.5,1.8,0.6,2.6c0.1,0.9,0,1.5-0.1,1.7c0.2,0.4,0.3,0.8,0.3,1.1l0.4-0.7c0.3-0.4,0.1-1,0.3-1.4
		c0.2-0.5,0.8-1.1,1.2-1.3s0.5,0.3,0.2,0.9c-0.2,0.5-0.6,0.9-1,1.2c0.5,0.2,1.2,1.1,2.1,2.4c-0.2-1.9-0.1-3.2,0.3-3.2
		c0.4,0,0.8,0.8,1.3,2.1c0.2-1.6,0.5-2.7,0.9-2.6c0.6,0.1,1.1,2.6,1.2,5.5c0,1.5-0.1,2.9-0.3,3.8l0.3-0.3c0.5-0.5,0.4-1.4,0.9-2
		c0.5-0.6,1.2-1,2-1.3c0.7-0.1,0.7,0.7,0,1.5s-2.2,1.3-2.7,1.8c-0.2,0.1-0.4,0.3-0.6,0.5c-0.1,0.4-0.2,0.7-0.4,0.8
		c0.4,0.5,0.8,1.4,1.3,2.5c0-2,0.3-3.5,0.8-3.6c0.4-0.1,0.7,0.8,1,2.3c0.4-1.3,0.9-2,1.2-1.9c0.6,0.3,0.6,2.8,0.2,5.5
		c-0.3,1.6-0.7,2.9-1,3.7c0.2-0.1,0.4-0.3,0.5-0.3c0.6-0.4,0.7-1.3,1.2-1.7c0.6-0.4,1.6-0.9,2.3-0.9c0.6,0,0.4,0.8-0.3,1.4
		c-0.9,0.7-2.4,0.9-3,1.3l-1,0.6c-0.1,0.1-0.1,0.2-0.2,0.2c0.1,0.2,0.2,0.4,0.2,0.5c0.1,0.4-0.1,0.6-0.4,0.6c0,0.5,0.1,1,0.1,1.6
		c0.8-1.6,1.6-2.6,1.9-2.4c0.3,0.2,0.3,1.2-0.1,2.5c0.9-1.1,1.7-1.7,2-1.4c0.4,0.5-0.5,2.7-2,5.1c-0.8,1.3-1.7,2.4-2.3,3
		c0.2,0,0.4-0.1,0.5-0.1c0.7,0,1.1-0.9,1.8-1c0.8-0.2,1.5-0.2,2.3,0c0.6,0.2,0.2,0.9-0.7,1.2c-1.1,0.4-2.6-0.1-3.2,0
		c-0.3,0-0.7,0.1-1.1,0.2c0,0-0.1,0-0.1,0.1c-0.1,0.3-0.2,0.7-0.3,1.1c-0.2,0.6-0.4,1.1-0.6,1.7c1.4-1.5,2.6-2.3,2.9-1.9
		c0.2,0.3,0,1.1-0.6,2.2c1.3-1,2.5-1.6,3.1-1.6c1,0,0.1,1.8-2,3.9c-0.8,0.8-1.7,1.6-2.6,2.2h0.1c-1.1,1.1-2.3,2-3.3,2.6l0.3,0
		c0.7,0.2,1.4-0.6,2.2-0.6c0.9,0.1,1.8,0.4,2.6,1c0.6,0.5-0.2,1-1.2,1c-1.3,0-2.8-1.1-3.5-1.1l-0.8-0.1c-0.3,0.2-0.6,0.3-0.9,0.4
		c-0.1,0.1-0.1,0.2-0.2,0.3c-0.1,0.1-0.2,0.2-0.2,0.3c-0.2,0.2-0.3,0.4-0.5,0.5c-0.3,0.2-0.5,0.3-0.6,0.1c-0.1,0.1-0.2,0.2-0.3,0.3
		c2.6-0.8,4.5-1,4.6-0.4c0.1,0.4-0.8,1.2-2.3,2c1.6,0,2.6,0.3,2.5,0.8c-0.1,0.8-2.8,1.9-6.1,2.4c-2.2,0.4-4,0.4-5,0.1c0,0,0,0,0,0
		c0.3,0.3,0.6,0.5,0.7,0.7c0.7,0.5,1.8,0.2,2.5,0.8c0.9,0.6,1.5,1.4,2,2.4c0.2,0.7-0.8,0.9-1.8,0.2c-1.2-0.7-2.1-2.6-2.7-3.1l-1-0.8
		c-0.4,0.3-0.9,0.5-1.3,0.7c-0.5,0.4-1.2,0.7-1.8,1.1c2.4,0.3,3.8,1.1,3.1,2c-0.5,0.7-2.3,1.2-4.5,1.4c-2.4-0.1-4.2-0.7-4.6-1.4
		c-0.5,0-0.9,0-1.2,0c0,0,0,0,0,0c0,0-0.1,0-0.1,0c-0.7,0.4-1.4,0.9-2.3,1.5c0.8,0.6,1.4,1,1.7,1.1c3,1.6,4.8,0.3,8-0.5
		c-1.1,2.9-4,3.6-6,3.6c-0.9-0.2-2.9-1.6-5.2-3.1c-2.4,1.7-5.1,3.4-7.4,3c-4.1-0.5-3.9-4-3.9-4s2.7,1.6,4.7,2c1.2,0.3,2.9-0.7,5-2
		c-1.3-0.9-2.7-1.7-4-2.4l-0.2,0.2h-1.4c-2.6,1.2-5.4,2.6-7.4,3.6c1.3-1,2.9-2.1,4.3-3.2c-2.4,0.7-4.9,1.6-6.7,2.2
		c1.4-0.8,3.2-1.7,4.9-2.6h-2.9c-1.4,0.5-2.7,1.1-3.8,1.5c1.3-0.8,3-1.8,4.5-2.8c-2.4,0.6-4.9,1.2-6.7,1.8c1.5-0.7,3.4-1.5,5.1-2.4
		l-3.8-0.2l3.4-0.7l-1.2-0.3c-2.3,0.3-4.7,0.7-6.5,1.1c1.3-0.5,2.8-1,4.3-1.5l-1.7-0.3c-1.6,0.1-3.2,0.1-4.4,0.2
		c1.6-0.4,3.6-0.8,5.5-1.2l-1.5-0.4c-1.9,0-3.7,0.1-5.1,0.1c1-0.2,2.2-0.4,3.4-0.6l-0.4-0.1l0.8,0c0,0,0,0,0,0l-2.5-0.6h0.4
		c-1.3-0.3-2.6-0.5-3.6-0.7c1.7,0,3.6,0.1,5.5,0.1c-2.2-0.5-4.4-0.9-6.1-1.2c1.6,0,3.6,0.1,5.4,0.1l0,0l0,0c0,0,0,0,0.1,0
		c-2.4-0.9-5-1.7-6.9-2.3c1.5,0.2,3.2,0.5,4.9,0.7l-2.9-1.4l2.5,0.5c-1.9-0.9-3.9-1.7-5.3-2.3c1.7,0.4,3.8,1,5.8,1.5
		c-0.4-0.2-0.7-0.4-1.1-0.7c-2-1.1-4.1-2.1-5.7-2.9c0.5,0.1,1,0.3,1.6,0.5c-0.7-0.4-1.4-0.8-2.2-1.2c1.5,0.5,3.4,1.3,5.2,1.9
		c-2.1-1.6-4.4-3.3-6.1-4.5c1.9,0.9,4.2,2.3,6.2,3.2l-0.7-0.8c-2-1.5-4-3-5.6-4.1c1.4,0.7,3.1,1.6,4.7,2.4l-1.2-1.4
		c-1.5-1.2-2.9-2.4-4-3.4c1.5,0.8,3.3,2,5,3c-1.8-1.5-3.7-3-5.1-4.2c1.4,0.8,3.2,2,4.9,2.9c-1.9-2.1-3.9-4.1-5.4-5.6
		c1.2,0.9,2.6,2,3.9,3l0-0.4c-1.4-1.9-2.8-3.7-3.9-5.1c0.9,0.9,1.9,1.9,3,2.9l-0.2-0.3l0.4,0.4c-1.2-1.6-2.3-3.1-3.2-4.3
		c1.1,1.1,2.3,2.4,3.6,3.6l-0.1-0.5c-0.1-0.3-0.2-0.6-0.3-0.9c-1-2-2-4-2.8-5.5c0.5,0.7,1,1.4,1.6,2.2c-0.6-1.5-1.1-2.9-1.6-4.1
		c0.8,1.5,1.8,3.3,2.7,5.1l-0.2-1.7c-0.7-1.5-1.3-3-1.8-4.2c0.2,0.3,0.4,0.6,0.6,0.9c-0.3-0.6-0.5-1.1-0.8-1.6
		c1,1.5,2.1,3.4,3.3,5.1c-1-2.3-2.1-4.7-2.9-6.4c1,1.5,2.1,3.5,3.3,5.2c-0.9-2.8-1.9-5.7-2.7-7.8c0.6,1.1,1.2,2.4,1.8,3.7
		c-0.5-1.8-1-3.4-1.4-4.8c0.7,1.4,1.4,3.1,2.1,4.7c-0.5-2.3-0.9-4.6-1.3-6.3c0.6,1.8,1.3,4,2,6c-0.2-1.9-0.3-3.8-0.5-5.6
		c-0.1-0.5-0.2-0.9-0.2-1.3c0,0.1,0.1,0.3,0.1,0.5c-0.1-0.6-0.1-1.1-0.1-1.7c0.3,1.3,0.6,2.8,1,4.4c0.2,0.7,0.4,1.5,0.7,2.2
		c-0.4-2.6-0.9-5.3-1.3-7.3c0.5,1.5,1,3.4,1.6,5.1l0.1-0.4c-0.2-2.2-0.3-4.3-0.5-6c0.4,1.7,0.8,3.8,1.2,5.7l0.1-0.5
		c-0.2-2.2-0.3-4.4-0.5-6.1c0.3,1.3,0.6,2.9,0.9,4.5c0.3-2.4,0.6-4.8,0.9-6.6c0,2.1-0.1,4.7,0,7.1l0.5-2.1l0,0.3l0.1-0.5
		c0.3-2.1,0.6-4.2,0.8-5.8c0,2-0.1,4.5-0.1,6.8c0.6-3,1.2-6.2,1.6-8.6c0,2-0.2,4.5-0.3,6.7c0.9-2.3,1.7-4.7,2.3-6.5
		c-0.4,1.8-0.9,3.9-1.3,5.9l0-0.1c0.7-2.2,1.3-4.5,1.8-6.2c-0.2,1.3-0.5,2.9-0.7,4.4c0.4-1.8,0.7-3.5,1-4.9c-0.1,1.4-0.2,3-0.3,4.6
		l0.4-0.5c0.5-1.9,0.9-3.9,1.3-5.4c-0.1,1.3-0.4,2.9-0.5,4.4l0.4-0.5l-0.5,0.9c0,0.4-0.1,0.8-0.1,1.3c0.8-2.1,1.6-4.3,2.2-5.9
		c-0.3,1.4-0.7,3-1,4.5c1-2,2-4,2.7-5.5c-0.5,1.3-1,2.9-1.5,4.4l0,0l0,0.1c0,0.1-0.1,0.2-0.1,0.3l0.8-1c0.7-1.6,1.3-3.2,1.8-4.4
		c-0.2,1-0.6,2.1-0.9,3.3L305.2,212.3z M298.7,196.2l6.6,5.8l-2.4,1.3l-1-1.1l-2.5,1.4l0.3,1.4l-2.3,1.2l-1.2-8.7L298.7,196.2z
		 M288.6,202.6c0.6-0.6,1.4-0.9,2.3-1c0.7-0.1,1.5,0,2.3,0.5l-1.4,1.9c-0.2-0.1-0.4-0.2-0.6-0.3c-0.2-0.1-0.5-0.1-0.7,0
		c-0.2,0.1-0.4,0.2-0.6,0.4c-0.4,0.3-0.7,0.9-0.6,1.4c0,0.4,0.4,0.9,0.8,1.4c0.6,0.7,1.1,1.1,1.6,1.2c0.4,0,0.8,0,1.2-0.4
		c0.4-0.3,0.6-0.6,0.6-1c0-0.4-0.1-0.8-0.4-1.3l2.2-1c0.3,0.6,0.4,1.2,0.5,1.7c0,0.5-0.1,1-0.3,1.5c-0.3,0.6-0.7,1.1-1.2,1.5
		c-0.7,0.6-1.3,1-2,1.1c-0.7,0.2-1.3,0.2-2,0c-0.8-0.3-1.5-0.9-2-1.6c-1-1-1.4-2-1.3-3.1C287.1,204.4,287.7,203.3,288.6,202.6z
		 M283.6,207.7l6.4,5.3l-1.6,2l-6.4-5.3L283.6,207.7z M278.3,215.1l5.4,3.2l2-3.4l1.8,1l-3.4,5.6l-7.1-4.2L278.3,215.1z
		 M274.7,222.7c0.2-0.8,0.6-1.3,1.1-1.5c0.5-0.3,1.1-0.4,1.6-0.2c0.5,0.2,0.8,0.5,1,0.9c0.2,0.3,0.3,0.6,0.3,1
		c0.3-0.5,0.7-0.8,1.1-1c0.5-0.2,0.9-0.2,1.4,0c0.8,0.3,1.4,1,1.5,1.8v1l-0.3,1l-1.5,4.2l-7.9-2.6L274.7,222.7z M271.7,236.1l5,0.5
		c0.4,0,0.8,0,1-0.2c0.4-0.2,0.5-0.6,0.6-1c0-0.4-0.1-0.7-0.3-1c-0.2-0.4-0.6-0.5-1-0.6l-5-0.5l0.3-2.6l4.8,0.6
		c0.5,0.1,1,0.2,1.4,0.4c0.4,0.2,0.8,0.4,1,0.8c0.4,0.3,0.5,0.7,0.6,1c0.2,0.6,0.2,1.2,0.1,1.9l-0.2,1.3c-0.1,0.5-0.3,0.8-0.5,1.1
		c-0.4,0.6-1.1,1.1-1.8,1.3h-1.4l-4.9-0.5L271.7,236.1z"/>
	<path fill="#FFFFFF" d="M312.7,198.2c0.5-0.1,0.9-0.2,1-0.4c0.3-0.1,0.4-0.4,0.5-0.7v-1.4c-0.2-0.9-0.5-1.4-0.8-1.7
		s-0.8-0.4-1.5-0.3l-0.6,0.1l0.8,4.5L312.7,198.2z"/>
	<path fill="#D52B1E" d="M357,97.4c-0.9-0.4-2.2-1.3-2.8-1.9l-1.1-1.1l0.9-1c0.6-0.6,1-1.6,1-2.2c0-1-0.4-1.3-1.7-1.9l-1.8-0.7
		l2.2-1.3c1.2-0.7,2.2-1.4,2.2-1.6c0-0.1-0.8-1.2-1.9-2.5c-1.8-2-1.9-2.1-2.9-1.5c-0.9,0.6-1,0.6-1.6-1.1c-0.3-0.9-0.6-2.5-0.6-3.3
		c0-0.9-0.3-2.5-0.6-3.5c-0.5-1.5-0.5-2,0.1-2.9c0.6-1,0.5-1.2-1.5-3.5c-2.6-3-3.1-4.2-3.1-7.3c0-2.5-0.1-2.6-3-1.5
		c-0.6,0.2-0.7,0-0.7-0.7c0-0.6-0.2-1-0.5-1c-0.2,0-0.5-0.2-0.5-0.5c0-0.3,0.4-0.5,0.8-0.5s1.1-0.2,1.4-0.6c0.4-0.4,0.3-0.8-0.4-1.6
		c-0.9-0.9-1-1.2-0.4-3.1c0.3-1.1,0.5-2.6,0.4-3.4c-0.1-0.7,0.1-2,0.5-2.9c0.6-1.3,0.6-1.8-0.2-3.2c-0.4-0.9-0.9-3-1.1-4.6l-0.2-2.9
		l-24.9-13.9c-13.7-7.7-25.2-14-25.6-14.2c-0.7-0.3-44.5-2.2-48.2-2.1c-1.3,0-7.9,1.8-17,4.6l-14.9,4.6L180,18.4
		c-16.2,3.1-30.5,5.8-31.8,6l-2.4,0.5L142,35.7c-2.1,5.9-4.2,11.5-4.7,12.4c-0.5,0.9-4.8,7.9-9.6,15.7l-8.8,14l0.2,14.8l0.2,14.7
		l-3.1,11.5c-1.7,6.3-5.6,21.2-8.7,33c-0.8,3.2-1.5,5.9-2.2,8.3h244.5c0.3-2,1-4.4,1.6-5.7c0.6-1.3,0.6-2,0.3-2.9
		c-0.4-1.1-0.3-6.3,0.3-8.9c0.1-0.6,0.9-1.4,1.8-1.9l1.7-0.8l-1.7-0.6l-1.7-0.6l0.2-2.6c0.2-2.1,0-2.8-0.7-3.6
		c-0.8-0.9-0.9-1.3-0.4-3.3c0.3-1.5,1.3-3.4,2.6-5.2c2.4-3.2,2.7-4.8,1-5.2c-1.7-0.4-1.7-2.1-0.1-3.5c2.2-1.9,2.8-3.5,2.4-7
		c-0.2-1.7-0.5-3.4-0.8-3.9c-0.4-0.6-0.2-1.1,0.7-2.1c0.6-0.6,1.3-1.8,1.4-2.5C358.7,98.4,358.5,98.1,357,97.4z"/>
	<path d="M363,240c-0.4,0.1-0.7,0.2-1,0.4c-0.3,0.2-0.6,0.5-0.8,0.8l-0.5,1.2l-0.2,1.3c0,0.6,0,1.2,0.2,1.8c0.1,0.4,0.3,0.7,0.6,1.1
		c0.3,0.3,0.6,0.6,1,0.8c0.4,0.2,0.8,0.3,1.3,0.4l5,0.4l0.2-2.6l-5-0.4c-0.5,0-0.8-0.2-1-0.5c-0.3-0.2-0.3-0.6-0.3-1
		c0-0.4,0.2-0.8,0.5-1c0.2-0.3,0.6-0.3,1.1-0.3l5,0.4l0.3-2.5l-5-0.5C363.9,239.8,363.5,239.9,363,240z"/>
	<path d="M283.1,263.2L283,263l-0.1-0.6l0.3-0.8l1.4-2.4l-1.4-2.5l-1.5,2.3l-0.3,0.5v0.6v0.7l-0.8-0.6c-0.3-0.2-0.7-0.2-1.1-0.2
		c-0.4,0-0.7,0.1-1.1,0.3c-0.5,0.3-0.8,0.6-1,1c-0.2,0.4-0.2,0.9-0.1,1.3c0.2,0.6,0.4,1.1,0.7,1.6l2.2,3.7l7.1-4.2l-1.2-2.2
		L283.1,263.2z M280.3,264.9l-0.5-1c-0.3-0.4-0.4-0.7-0.4-0.9l0.4-0.6c0.2-0.1,0.3-0.1,0.5-0.1c0.2,0,0.4,0.1,0.5,0.2l0.4,0.5l0.6,1
		L280.3,264.9z"/>
	<path d="M280.1,245.3l-3,0.4l-0.1-1.4c-0.2-1-0.5-1.8-1-2.2c-0.5-0.5-1.2-0.6-2-0.6c-0.8,0.1-1.4,0.4-1.8,1
		c-0.4,0.5-0.6,1.1-0.4,2.1l0.4,4.2l8.3-0.9L280.1,245.3z M273.6,246.1l-0.1-0.7c0-0.5,0-0.9,0.2-1c0.1-0.2,0.4-0.3,0.6-0.4
		c0.3,0,0.5,0,0.7,0.2c0.2,0.2,0.4,0.5,0.4,1l0.1,0.6L273.6,246.1z"/>
	<path d="M358.3,254.4l-0.9,2.5l8.8-0.4l1-2.6l-7-5.6l-0.8,2.5l1.2,0.8l-0.9,2.8H358.3z M362.1,252.7l2.5,1.8l-3-0.1L362.1,252.7z"
		/>
	<polygon points="280.7,249.3 278.9,249.8 280.3,254 278.8,254.5 277.5,250.8 275.9,251.3 277.2,255.1 275.9,255.5 274.6,251.4 
		272.9,252 275.1,258.5 282.9,255.9 	"/>
	<polygon points="354.4,261.9 357.4,263.7 359.9,268.9 361.3,266.5 359.8,263.6 363.1,263.6 364.6,261.2 358.8,261.5 355.8,259.7 	
		"/>
	<path d="M353.2,216.2l2.8-2l0.1,0.2c0.2,0.2,0.2,0.4,0.2,0.7l-0.3,0.7l-1.3,2.6l1.6,2.3l1.3-2.3c0.1-0.2,0.2-0.4,0.2-0.6l0.2-0.6
		l-0.2-0.7c0.3,0.2,0.6,0.5,0.8,0.5c0.4,0.2,0.8,0.2,1.2,0.2c0.3,0,0.7-0.1,1-0.4c0.4-0.2,0.8-0.6,1-1.1l0.1-1.2l-1-1.7l-2.3-3.5
		l-6.9,4.7L353.2,216.2z M358.6,212.4l0.7,0.9c0.3,0.4,0.3,0.7,0.3,0.9c0,0.2-0.1,0.5-0.3,0.6c-0.2,0.1-0.3,0.1-0.5,0.1
		c-0.2,0-0.3,0-0.5-0.2l-0.4-0.4l-0.7-0.9L358.6,212.4z"/>
	<path d="M299.7,205l-0.3-1.4l2.5-1.4l1,1.1l2.4-1.3l-6.6-5.8l-2.5,1.3l1.2,8.7L299.7,205z M300.6,200.9l-1.6,0.8l-0.6-3
		L300.6,200.9z"/>
	<path d="M363.9,229c-0.8,0.1-1.6,0.4-2.2,0.9c-0.6,0.4-1,1-1.3,1.6c-0.2,0.8-0.3,1.7-0.1,2.5c0.1,0.7,0.3,1.4,0.6,2
		c0.3,0.7,0.8,1.3,1.3,1.8l3.5-0.5l-0.6-3.9l-1.7,0.2l0.3,1.8h-0.8l-0.5-0.8c-0.2-0.2-0.3-0.5-0.3-0.8c-0.1-0.5,0-1.1,0.4-1.5
		c0.3-0.3,0.9-0.6,1.7-0.7c1-0.2,1.6-0.1,2,0.2c0.4,0.3,0.6,0.7,0.7,1.2c0.1,0.4,0.2,0.7,0,1s-0.4,0.5-0.7,0.6l0.8,2.4
		c0.5-0.3,0.9-0.5,1.2-0.9c0.3-0.4,0.5-0.8,0.6-1.3v-2c-0.2-0.9-0.4-1.6-0.8-2.2c-0.4-0.6-1-1.1-1.7-1.4
		C365.5,228.9,364.7,228.9,363.9,229z"/>
	<polygon points="334,199.4 330,198.4 331.5,192.4 329.1,191.8 327.1,199.8 333.4,201.4 	"/>
	<path d="M290.3,210.2c0.7,0.2,1.3,0.2,2,0c0.7-0.1,1.3-0.5,2-1.1c0.5-0.4,0.9-0.9,1.2-1.5c0.2-0.5,0.3-1,0.3-1.5
		c-0.1-0.5-0.2-1.1-0.5-1.7l-2.2,1c0.3,0.5,0.4,0.9,0.4,1.3c0,0.4-0.2,0.7-0.6,1c-0.4,0.4-0.8,0.4-1.2,0.4c-0.5-0.1-1-0.5-1.6-1.2
		c-0.4-0.5-0.8-1-0.8-1.4c-0.1-0.5,0.2-1.1,0.6-1.4c0.2-0.2,0.4-0.3,0.6-0.4c0.2-0.1,0.5-0.1,0.7,0c0.2,0.1,0.4,0.2,0.6,0.3l1.4-1.9
		c-0.8-0.5-1.6-0.6-2.3-0.5c-0.9,0.1-1.7,0.4-2.3,1c-0.9,0.7-1.5,1.8-1.6,2.9c-0.1,1.1,0.3,2.1,1.3,3.1
		C288.8,209.3,289.5,209.9,290.3,210.2z"/>
	<polygon points="325.8,197.7 321.4,197.5 321.4,195.9 325.4,196.1 325.5,194.4 321.5,194.2 321.6,192.9 325.9,193.1 325.9,191.3 
		319.1,191 318.7,199.3 325.7,199.6 	"/>
	<path d="M277.7,239.1c0.7-0.2,1.4-0.7,1.8-1.3c0.2-0.3,0.4-0.6,0.5-1.1l0.2-1.3c0.1-0.7,0.1-1.3-0.1-1.9c-0.1-0.3-0.2-0.7-0.6-1
		c-0.2-0.4-0.6-0.6-1-0.8c-0.4-0.2-0.9-0.3-1.4-0.4l-4.8-0.6l-0.3,2.6l5,0.5c0.4,0.1,0.8,0.2,1,0.6c0.2,0.3,0.3,0.6,0.3,1
		c-0.1,0.4-0.2,0.8-0.6,1c-0.2,0.2-0.6,0.2-1,0.2l-5-0.5l-0.3,2.5l4.9,0.5H277.7z"/>
	<path d="M282.4,225.7l0.3-1v-1c-0.1-0.8-0.7-1.5-1.5-1.8c-0.5-0.2-0.9-0.2-1.4,0c-0.4,0.2-0.8,0.5-1.1,1c0-0.4-0.1-0.7-0.3-1
		c-0.2-0.4-0.5-0.7-1-0.9c-0.5-0.2-1.1-0.1-1.6,0.2c-0.5,0.2-0.9,0.7-1.1,1.5l-1.7,4.6l7.9,2.6L282.4,225.7z M277.4,224.8l-0.4,1.1
		l-1.5-0.6l0.4-1c0.1-0.4,0.3-0.6,0.5-0.8c0.2-0.1,0.4-0.1,0.6,0c0.2,0.1,0.4,0.3,0.4,0.5C277.5,224.1,277.4,224.4,277.4,224.8z
		 M280.5,225.7l-0.5,1.2l-1.5-0.5l0.4-1.2l0.5-0.9c0.2-0.1,0.5-0.1,0.7,0c0.2,0.1,0.3,0.2,0.4,0.4
		C280.7,225,280.6,225.3,280.5,225.7z"/>
	<path d="M341.9,202l1.2,0.7c0.9,0.6,1.7,0.7,2.3,0.6c0.7-0.2,1.4-0.6,1.7-1.3c0.3-0.7,0.5-1.4,0.3-2c-0.1-0.6-0.6-1.2-1.4-1.6
		l-3.7-2.2l-4.2,7.1l2.2,1.3L341.9,202z M343.7,199l0.6,0.3c0.4,0.3,0.6,0.5,0.6,0.8c0.1,0.2,0.1,0.5,0,0.7
		c-0.1,0.2-0.3,0.4-0.6,0.4l-1-0.3l-0.6-0.3L343.7,199z"/>
	<polygon points="287.5,215.9 285.7,214.9 283.7,218.3 278.3,215.1 277,217.3 284.1,221.5 	"/>
	<polygon points="290,213 283.6,207.7 282,209.7 288.4,215 	"/>
	<path d="M313.6,200c0.5-0.1,1-0.3,1.5-0.5c0.4-0.2,0.7-0.5,1-0.9c0.3-0.4,0.5-0.9,0.6-1.4c0.1-0.4,0.1-1.1-0.1-2
		c0-0.5-0.2-1.1-0.4-1.5c-0.2-0.5-0.6-0.8-0.9-1.2c-0.3-0.4-0.8-0.6-1.3-0.7c-0.6-0.1-1.2-0.1-1.8,0l-3.8,0.6l1.5,8.2L313.6,200z
		 M311.9,193.7c0.7-0.1,1.2,0,1.5,0.3s0.6,0.8,0.8,1.7v1.4c-0.1,0.3-0.2,0.6-0.5,0.7c-0.1,0.2-0.5,0.3-1,0.4l-0.6,0.1l-0.8-4.5
		L311.9,193.7z"/>
	<path d="M346.6,208.9l1.2-0.7l2.1,2l-0.7,1.3l2,1.8l3.4-8.1l-2-2l-8,4L346.6,208.9z M352.1,205.7l-1.4,2.8l-1.3-1.2L352.1,205.7z"
		/>
	<path d="M357.3,223.2l1.5-0.2l1,2.8l-1.1,0.8l1,2.6l6.5-6l-1-2.6l-8.9,0.1L357.3,223.2z M363.7,222.6l-2.4,2l-0.7-1.7L363.7,222.6z
		"/>
	<path fill="#009B3A" d="M335.7,215.6c-0.3-0.2-0.6-0.4-0.8-0.5c0,0.1-0.1,0.1-0.2,0.1c0.3,0.2,0.6,0.4,0.9,0.7
		c0.2,0.1,0.3,0.2,0.5,0.3C335.9,215.9,335.8,215.7,335.7,215.6z"/>
	<path fill="#009B3A" d="M345.3,226.7C345.3,226.7,345.3,226.7,345.3,226.7c0,0,0,0.1,0,0.1C345.3,226.8,345.3,226.8,345.3,226.7z"
		/>
	<path fill="#009B3A" d="M335.6,262.7C335.6,262.7,335.6,262.7,335.6,262.7C335.6,262.7,335.6,262.7,335.6,262.7
		C335.6,262.7,335.6,262.7,335.6,262.7z"/>
	<path fill="#009B3A" d="M340.1,219C340.1,219,340.1,219,340.1,219C340.1,219,340.1,219,340.1,219C340.1,219,340.1,219,340.1,219z"
		/>
	<path fill="#009B3A" d="M334,263.6c0.4-0.2,0.9-0.4,1.3-0.7l-0.2-0.2C334.9,263,334.5,263.3,334,263.6z"/>
	<path fill="#009B3A" d="M314.6,270.2c-2-0.4-4.7-2-4.7-2s-0.2,3.5,3.9,4c2.3,0.4,5-1.3,7.4-3c-0.5-0.3-1-0.7-1.5-1
		C317.5,269.5,315.8,270.5,314.6,270.2z"/>
	<path fill="#009B3A" d="M324.9,266.6c-0.3-0.1-0.5-0.2-0.6-0.4c-0.1-0.2,0-0.4,0.1-0.6c-1.1,0.5-2.1,1.1-3,1.6
		c0.5,0.3,0.9,0.6,1.3,0.9C323.5,267.5,324.3,266.9,324.9,266.6z"/>
	<path fill="#009B3A" d="M339.8,217.5c0.2-0.2,0.3-0.8,0.1-1.7c-0.1-0.8-0.3-1.8-0.6-2.6c-0.6-1.6-1.2-2.2-1.5-1.5
		c-0.1,0.4-0.1,1.3,0.1,2.3c0.4,0.5,0.8,1.2,1.2,2C339.4,216.5,339.6,217.1,339.8,217.5z"/>
	<path fill="#009B3A" d="M339.9,218.9l0.1-0.2c0-0.3-0.2-0.7-0.3-1.1c-0.2-0.5-0.4-1-0.7-1.5c-0.4-0.8-0.8-1.5-1.2-2
		c-0.4-0.6-0.8-0.9-1-0.8c-0.3,0.1-0.1,1.1,0.4,2.3c0.3,0.2,0.6,0.5,0.9,0.8C339.1,217.3,339.8,218.3,339.9,218.9z"/>
	<path fill="#009B3A" d="M340.1,218.8L340.1,218.8c0,0.1,0,0.1,0,0.1c0,0,0,0,0,0C340.1,218.9,340.1,218.9,340.1,218.8z"/>
	<path fill="#009B3A" d="M336.4,218c-0.4-0.3-0.7-0.5-1-0.8c-0.7-0.1-1.1,0-1.3,0.2c-0.2,0.4,0.9,1.1,2.5,1.7c1,0.3,1.9,0.3,2.3,0.2
		c0,0,0,0,0,0C338.3,219.1,337.4,218.7,336.4,218z"/>
	<path fill="#009B3A" d="M338.9,219.3c-0.1-0.2-0.1-0.4-0.1-0.5c-0.5-0.3-1.1-0.9-1.7-1.5c-0.4-0.4-0.8-0.9-1.1-1.3
		c-0.2-0.1-0.3-0.2-0.5-0.3c-0.9-0.4-1.5-0.6-1.7-0.4c-0.1,0.3,0.5,1,1.5,1.8c0.3,0.3,0.7,0.5,1,0.8
		C337.4,218.7,338.3,219.1,338.9,219.3z"/>
	<path fill="#009B3A" d="M337.1,217.3c0.6,0.6,1.2,1.2,1.7,1.5c0-0.1,0-0.2,0.1-0.3c0.2-0.2,0.5,0,1.1,0.3l0,0
		c-0.1-0.5-0.8-1.5-1.8-2.6c-0.3-0.3-0.6-0.6-0.9-0.8c-0.9-0.8-1.7-1.3-1.9-1.1c-0.1,0.1,0,0.6,0.4,1.2c0.1,0.1,0.2,0.3,0.3,0.5
		C336.3,216.4,336.7,216.9,337.1,217.3z"/>
	<path fill="#009B3A" d="M346.2,226c0,0.1,0,0.2,0,0.3c0,0,0.1,0.1,0.1,0.1c0.1-0.2,0.3-0.4,0.4-0.8
		C346.5,225.7,346.4,225.9,346.2,226z"/>
	<path fill="#009B3A" d="M338.7,219.8c-0.3,0-0.6-0.3-1.2,0c-0.6,0.3-1,0.9-1.1,1.2c-0.1,0.3,0.2,0.5,0.9,0.1
		c0.7-0.3,0.9-0.9,1.2-1.1l0.6-0.3c0,0,0-0.1,0-0.1L338.7,219.8z"/>
	<path fill="#009B3A" d="M345.7,221.6L345.7,221.6c0.5,1.7,0.6,3.2,0.6,4.2l0.4-0.4c0.2-0.9,0.3-2.2,0.3-3.8c0-2.9-0.6-5.4-1.2-5.5
		c-0.4-0.1-0.8,1-0.9,2.6C345.2,219.5,345.5,220.5,345.7,221.6C345.7,221.6,345.7,221.6,345.7,221.6z"/>
	<path fill="#009B3A" d="M339.9,218.9L339.9,218.9C340,218.9,340,218.9,339.9,218.9l0.2,0l0.5-0.8c0-0.1,0.1-0.1,0.2-0.2
		c0-0.2,0-0.4,0.1-0.4c0.1,0,0.2,0,0.3,0c0.4-0.3,0.8-0.7,1-1.2c0.3-0.6,0.2-1.1-0.2-0.9s-1,0.8-1.2,1.3c-0.2,0.4,0,1-0.3,1.4
		l-0.4,0.7L339.9,218.9z"/>
	<path fill="#009B3A" d="M346,226l0.2-0.2c0.1-1-0.1-2.5-0.5-4.3l-0.1,0.1c0,0,0,0,0,0c-0.2-1.1-0.5-2.1-0.8-2.9
		c-0.5-1.3-1-2.1-1.3-2.1c-0.4,0-0.5,1.3-0.3,3.2c0.3,0.5,0.7,1.1,1,1.7C345.3,223.4,346,225.1,346,226z"/>
	<path fill="#009B3A" d="M346.2,226c-0.1,0.1-0.1,0.1-0.2,0.2c0,0,0.1,0.1,0.1,0.1C346.2,226.2,346.2,226.1,346.2,226z"/>
	<path fill="#009B3A" d="M345.1,226.5c-0.7-0.1-2.2-1.4-3.7-3.3c-0.4-0.5-0.8-1.1-1.2-1.6c-1.3-0.7-2.3-0.9-2.5-0.5
		c-0.2,0.6,1.4,2.3,3.6,3.7c1.4,0.9,2.6,1.5,3.4,1.7L345.1,226.5z"/>
	<path fill="#009B3A" d="M345.1,226.5l0.2,0c0,0,0,0,0,0c-0.7-0.5-1.8-2-2.8-3.9c-0.5-0.8-0.8-1.6-1.1-2.4c-0.5-0.5-0.9-0.9-1.3-1.1
		c0,0,0,0,0,0c0,0,0,0-0.1,0c0,0-0.1-0.1-0.1-0.1c-0.5-0.4-0.9-0.5-1.1-0.3c-0.1,0.1-0.1,0.2-0.1,0.3c0,0.1,0,0.3,0.1,0.5
		c0,0,0,0,0,0c0,0.1,0.1,0.2,0.1,0.3c0,0,0,0.1,0,0.1c0.2,0.5,0.6,1.2,1.2,2c0.3,0.5,0.7,1,1.2,1.6
		C343,225.1,344.5,226.4,345.1,226.5z"/>
	<path fill="#009B3A" d="M340.9,217.4c-0.1,0.1-0.1,0.2-0.1,0.4c0,0.5,0.2,1.3,0.6,2.3c0.3,0.7,0.7,1.5,1.1,2.4
		c1,1.9,2.1,3.4,2.8,3.9c0-0.3,0.1-0.5,0.3-0.5c0.1,0,0.2,0,0.4,0.2l0.1-0.1c-0.1-0.9-0.7-2.6-1.7-4.5c-0.3-0.6-0.7-1.2-1-1.7
		c-0.8-1.3-1.6-2.2-2.1-2.4C341.1,217.4,341,217.3,340.9,217.4z"/>
	<path fill="#009B3A" d="M341.6,228.1c0.8-0.2,1.3-0.6,1.6-0.8c0-0.4,0-0.7,0.1-0.8c0,0,0,0,0,0c-0.2-0.2-0.5-0.3-1-0.2
		c-0.9,0.2-1.7,0.8-2,1.2c-0.2,0.3,0,0.7,0.7,0.6C341.1,228,341.3,228,341.6,228.1z"/>
	<path fill="#009B3A" d="M345.2,226.7C345.3,226.7,345.3,226.7,345.2,226.7c0.1-0.1,0.1-0.2,0.1-0.3l-0.2,0l-0.4,0.1l-0.7,0.2
		c0.1,0.1,0.1,0.1,0.2,0.2C344.5,226.8,344.9,226.8,345.2,226.7z"/>
	<path fill="#009B3A" d="M349.3,235.7C349.3,235.7,349.3,235.7,349.3,235.7c0.1-0.1,0.1-0.1,0.2-0.2l-0.1,0.1
		C349.3,235.6,349.3,235.6,349.3,235.7z"/>
	<path fill="#009B3A" d="M349.6,231c0.1,1.7,0,3.2-0.2,4.2c0.1-0.1,0.2-0.1,0.3-0.2c0.4-0.8,0.8-2.1,1-3.7c0.5-2.8,0.4-5.3-0.2-5.5
		c-0.3-0.2-0.8,0.6-1.2,1.9c0.1,0.7,0.2,1.5,0.2,2.4C349.6,230.3,349.6,230.7,349.6,231z"/>
	<path fill="#009B3A" d="M346,226L346,226c0,0.1,0,0.1,0.1,0.2c0-0.1,0.1-0.1,0.2-0.2c0.1-0.1,0.3-0.3,0.4-0.4
		c0.2-0.2,0.4-0.4,0.6-0.5c0.5-0.5,2-1,2.7-1.8s0.7-1.6,0-1.5c-0.8,0.3-1.5,0.7-2,1.3c-0.5,0.6-0.4,1.5-0.9,2l-0.3,0.3l-0.4,0.4
		L346,226z"/>
	<path fill="#009B3A" d="M348.1,230.7c0.6,1.8,0.9,3.5,0.9,4.4c0.1,0.1,0.1,0.2,0.1,0.3c0.1-0.1,0.2-0.1,0.3-0.2
		c0.2-1,0.3-2.5,0.2-4.2c0-0.3,0-0.7,0-1c0-0.9-0.1-1.7-0.2-2.4c-0.2-1.5-0.6-2.4-1-2.3c-0.4,0.2-0.7,1.7-0.8,3.6
		C347.8,229.5,348,230.1,348.1,230.7L348.1,230.7z"/>
	<path fill="#009B3A" d="M349.3,235.5L349.3,235.5c-0.1,0.1-0.1,0.1,0,0.1C349.3,235.6,349.3,235.6,349.3,235.5z"/>
	<path fill="#009B3A" d="M347.5,236c0.1,0.1,0.2,0.1,0.3,0.2c0-0.1,0-0.1,0.1-0.2H347.5z"/>
	<path fill="#009B3A" d="M346.7,235.3c0.2,0.2,0.4,0.3,0.6,0.5h0.7c0,0,0,0,0-0.1c-0.7-0.3-1.9-1.9-3-3.9c-0.4-0.7-0.7-1.5-1-2.1
		c0,0-0.1-0.1-0.1-0.1c-1-0.8-1.8-1.4-2.3-1.5c-0.3-0.1-0.4-0.1-0.5,0.1c-0.1,0.1-0.1,0.2-0.1,0.5c0.2,1.1,1.9,3.2,3.7,4.8
		c0.4,0.5,0.9,1,1.4,1.4c0,0,0,0,0,0C346.3,234.7,346.5,235,346.7,235.3z"/>
	<path fill="#009B3A" d="M349,235.1c0,0.1,0,0.3,0,0.4c0.1,0,0.1-0.1,0.2-0.1C349.1,235.3,349,235.2,349,235.1z"/>
	<path fill="#009B3A" d="M349.2,235.6l-0.3,0.2c0.1,0.3,0.1,0.6,0.2,1c0.3,0,0.5-0.1,0.4-0.6C349.4,236.1,349.3,235.9,349.2,235.6
		C349.3,235.7,349.3,235.7,349.2,235.6C349.2,235.7,349.2,235.6,349.2,235.6z"/>
	<path fill="#009B3A" d="M343.2,227.3c0.1,0.6,0.3,1.4,0.8,2.4c0.3,0.7,0.6,1.4,1,2.1c1.1,2.1,2.3,3.6,3,3.9c0-0.1,0.1-0.1,0.1-0.2
		c-0.6-0.7-1.3-2.3-1.9-4.1c-0.3-1.1-0.6-2.1-0.7-2.9c-0.5-0.7-0.9-1.2-1.2-1.5c-0.1-0.1-0.1-0.1-0.2-0.2c-0.3-0.2-0.5-0.3-0.7-0.2
		c0,0,0,0,0,0C343.2,226.6,343.2,226.9,343.2,227.3z"/>
	<path fill="#009B3A" d="M346.1,226.2c0-0.1-0.1-0.1-0.1-0.1c-0.1-0.1-0.3-0.2-0.4-0.2c-0.1,0-0.2,0.2-0.3,0.5c0,0,0,0,0,0
		c0,0.1,0,0.2,0,0.3c0,0,0,0.1,0,0.1c0,0.4,0.1,1,0.2,1.6c0.2,0.9,0.4,1.9,0.7,2.9c0.6,1.9,1.3,3.4,1.9,4.1c0.1-0.2,0.3-0.4,0.4-0.4
		c0.1,0,0.2,0.2,0.3,0.4c0,0,0.1,0,0.1-0.1c0-0.1,0-0.2,0-0.4c0-0.9-0.3-2.6-0.9-4.4h0.1c-0.2-0.6-0.4-1.2-0.6-1.7
		c-0.4-1.1-0.9-2-1.3-2.5c0,0-0.1-0.1-0.1-0.1C346.2,226.3,346.1,226.2,346.1,226.2z"/>
	<path fill="#009B3A" d="M348.3,244.8c0,0.1-0.1,0.2-0.1,0.3c0.1,0,0.3-0.1,0.4-0.1c0.6-0.6,1.5-1.6,2.3-3c1.5-2.3,2.3-4.6,2-5.1
		c-0.3-0.3-1,0.3-2,1.4c-0.2,0.8-0.5,1.8-0.9,2.9C349.5,242.8,348.9,244,348.3,244.8z"/>
	<path fill="#009B3A" d="M344.6,236.6c0.4,0,0.7-0.1,1-0.2c0.1-0.6,0.2-1,0.3-1.3c-0.1-0.1-0.3-0.1-0.5-0.1c-0.8,0-1.5,0.3-2.1,0.8
		c-0.3,0.3-0.2,0.5,0.1,0.7c0-0.3,0.1-0.5,0.2-0.6C343.8,235.7,344.2,236,344.6,236.6z"/>
	<path fill="#009B3A" d="M348.2,245.4c0,0,0.1,0,0.1-0.1C348.3,245.4,348.2,245.4,348.2,245.4C348.2,245.4,348.2,245.4,348.2,245.4z
		"/>
	<path fill="#009B3A" d="M349.1,235.4c-0.1,0-0.1,0.1-0.2,0.1c0,0-0.1,0-0.1,0.1c0,0.1,0,0.2,0.1,0.2l0.3-0.2l0.1-0.1l0.1-0.1l1-0.6
		c0.6-0.4,2.1-0.6,3-1.3c0.7-0.6,0.9-1.4,0.3-1.4c-0.7,0-1.7,0.5-2.3,0.9c-0.5,0.4-0.6,1.3-1.2,1.7c-0.1,0.1-0.3,0.2-0.5,0.3
		c-0.1,0.1-0.2,0.1-0.3,0.2C349.3,235.3,349.2,235.3,349.1,235.4z"/>
	<path fill="#009B3A" d="M347.9,236c0-0.1,0.1-0.1,0.1-0.2h-0.7h-0.4c0,0.1,0,0.1,0.1,0.2h0.6H347.9z"/>
	<path fill="#009B3A" d="M345.8,241.8c-0.1-0.5-0.1-1-0.2-1.6c-0.1-0.8-0.1-1.5-0.1-2.2c-0.3-0.6-0.6-1.1-0.9-1.5
		c-0.4-0.6-0.8-0.8-1-0.7c-0.1,0.1-0.2,0.3-0.2,0.6c-0.1,1,0.4,3,1.2,5.1c0.1,0.2,0.1,0.3,0.2,0.5c0.1-0.1,0.2-0.3,0.2-0.3
		C345.4,241.3,345.6,241.3,345.8,241.8z"/>
	<path fill="#009B3A" d="M346.2,244.9c0.1-0.2,0.2-0.3,0.2-0.4c-0.2-0.4-0.3-1-0.5-1.7c0,0.5,0,1.1,0,1.7
		C346,244.6,346.1,244.7,346.2,244.9C346.2,244.9,346.2,244.9,346.2,244.9z"/>
	<path fill="#009B3A" d="M349,240.4c-0.1,1.1-0.3,2.1-0.4,2.9c0,0.4-0.1,0.9-0.2,1.5c0.5-0.8,1.2-2,1.8-3.5c0.4-1,0.7-2,0.9-2.9
		c0.3-1.3,0.4-2.3,0.1-2.5c-0.4-0.2-1.2,0.8-1.9,2.4C349.1,239,349.1,239.7,349,240.4z"/>
	<path fill="#009B3A" d="M345.5,238c0,0.7,0,1.4,0.1,2.2c0.1,0.6,0.1,1.1,0.2,1.6c0.1,0.2,0.1,0.5,0.2,1c0.1,0.7,0.3,1.3,0.5,1.7
		c0.2-0.3,0.3-0.5,0.5-0.7c-0.1-0.9-0.1-2.1,0.1-3.4c0.1-0.9,0.2-1.7,0.4-2.5c-0.1-0.7-0.3-1.3-0.4-1.8c0-0.1,0-0.1-0.1-0.2
		c-0.1-0.2-0.1-0.3-0.2-0.5c-0.2-0.4-0.4-0.6-0.5-0.6c0,0,0,0,0,0c-0.1,0-0.2,0.1-0.2,0.3c-0.1,0.3-0.2,0.7-0.3,1.3
		C345.5,236.8,345.5,237.4,345.5,238z"/>
	<path fill="#009B3A" d="M348.9,235.8c0-0.1,0-0.2-0.1-0.2c-0.1-0.2-0.2-0.4-0.3-0.4c-0.1,0-0.3,0.1-0.4,0.4c0,0.1-0.1,0.1-0.1,0.2
		c0,0,0,0,0,0.1c0,0.1-0.1,0.1-0.1,0.2c0,0.1,0,0.1-0.1,0.2c-0.2,0.4-0.3,1-0.4,1.7c-0.1,0.7-0.3,1.6-0.4,2.5
		c-0.1,1.3-0.1,2.5-0.1,3.4c0.3-0.4,0.6-0.8,0.8-1c0.5-0.5,0.8-0.2,0.8,0.6c0.2-0.8,0.3-1.8,0.4-2.9c0.1-0.7,0.1-1.4,0.1-2.1
		c0-0.6,0-1.1-0.1-1.6C349,236.4,349,236.1,348.9,235.8z"/>
	<path fill="#009B3A" d="M343.6,256.2c0.3-0.1,0.6-0.3,0.9-0.4l-0.6-0.1C343.9,255.9,343.7,256.1,343.6,256.2z"/>
	<path fill="#009B3A" d="M343.7,244.6c0.2-0.5,0.3-1,0.5-1.4c-0.5-0.1-1-0.1-1.5,0.1c0.1,0.3,0.3,0.6,0.4,1.1
		C343.3,244.4,343.5,244.5,343.7,244.6z"/>
	<path fill="#009B3A" d="M344.4,255c-0.1,0.2-0.2,0.3-0.3,0.5l0.8,0.1c1-0.6,2.2-1.5,3.3-2.6h-0.1c0.9-0.6,1.8-1.4,2.6-2.2
		c2.1-2.1,3-3.8,2-3.9c-0.6,0-1.8,0.6-3.1,1.6c-0.5,1-1.3,2.2-2.3,3.4C346.2,253.3,345.2,254.3,344.4,255z"/>
	<path fill="#009B3A" d="M346.2,244.9C346.2,244.9,346.2,244.9,346.2,244.9c-0.1-0.1-0.2-0.1-0.3-0.1c0,0.1,0,0.1,0,0.2l0.2,0.1
		C346.1,245,346.2,244.9,346.2,244.9z"/>
	<path fill="#009B3A" d="M348.2,245.4C348.2,245.4,348.3,245.4,348.2,245.4c0.5-0.1,0.9-0.1,1.2-0.2c0.6-0.1,2.1,0.4,3.2,0
		c0.9-0.3,1.3-1,0.7-1.2c-0.8-0.2-1.5-0.2-2.3,0c-0.7,0.1-1.1,1-1.8,1c-0.1,0-0.3,0-0.5,0.1c-0.1,0-0.3,0-0.4,0.1
		C348.2,245.2,348.2,245.3,348.2,245.4z"/>
	<path fill="#009B3A" d="M344.4,255c0.8-0.6,1.9-1.7,2.9-3.1c1-1.2,1.7-2.4,2.3-3.4c0.6-1.1,0.8-1.9,0.6-2.2
		c-0.3-0.4-1.5,0.4-2.9,1.9c-0.3,0.8-0.6,1.5-1,2.2C345.8,252,345.1,253.7,344.4,255z"/>
	<path fill="#009B3A" d="M342.8,249c0.1-1.1,0.4-2.2,0.6-3.3c0,0,0,0,0,0c-0.1-0.5-0.2-1-0.3-1.4c-0.1-0.4-0.2-0.8-0.4-1.1
		c-0.4-0.9-0.9-1-1.2-0.3c-0.6,1.2-0.7,4.5-0.2,7.3c0,0.6,0,1.3,0.1,1.9c0.5-0.3,0.9-0.6,1.2-0.7C342.6,250.7,342.7,249.9,342.8,249
		z"/>
	<path fill="#009B3A" d="M342.6,253.7c-0.2,0.3-0.3,0.5-0.5,0.8c0.1,0.1,0.2,0.1,0.2,0.2C342.4,254.4,342.5,254,342.6,253.7z"/>
	<path fill="#009B3A" d="M342.2,255.1c0,0,0-0.1,0-0.1c-0.1-0.1-0.2-0.2-0.3-0.3c0,0.1-0.1,0.1-0.1,0.2c0,0.1,0.1,0.3,0.1,0.4
		C342,255.1,342.1,255.1,342.2,255.1z"/>
	<path fill="#009B3A" d="M343.4,256.5c-0.1,0.1-0.2,0.2-0.2,0.3C343.3,256.8,343.4,256.7,343.4,256.5z"/>
	<path fill="#009B3A" d="M343.4,245.7c-0.3,1-0.5,2.2-0.6,3.3c-0.1,0.9-0.2,1.7-0.2,2.4c0.3-0.1,0.5-0.1,0.6,0
		c0.1,0,0.1,0.1,0.1,0.2c0.3-0.7,0.6-1.3,0.9-1.9c0.4-1.4,1-2.7,1.6-3.9c0-0.1,0-0.2,0-0.3c0-0.2,0-0.3,0.1-0.5c0-0.1,0-0.1,0-0.2
		c0-0.1,0-0.2,0-0.3c0.1-0.7,0.1-1.3,0-1.7c0-0.4-0.1-0.7-0.2-1c-0.2-0.4-0.4-0.5-0.8-0.1c-0.1,0.1-0.2,0.2-0.2,0.3
		c-0.2,0.3-0.4,0.7-0.5,1.1c-0.2,0.4-0.3,0.9-0.5,1.4C343.6,244.9,343.5,245.3,343.4,245.7z"/>
	<path fill="#009B3A" d="M343.6,255.6c-0.3,0.5-0.8,1.1-1.5,1.8c0.1,0.1,0.3,0.1,0.6-0.1c0.1-0.1,0.3-0.3,0.5-0.5
		c0.1-0.1,0.2-0.2,0.2-0.3c0.1-0.1,0.1-0.2,0.2-0.3c0.1-0.2,0.2-0.3,0.3-0.5L343.6,255.6z"/>
	<path fill="#009B3A" d="M348.3,245.1c0-0.1,0.1-0.2,0.1-0.3c0.1-0.6,0.2-1.1,0.2-1.5c0-0.8-0.3-1.1-0.8-0.6c-0.2,0.2-0.5,0.6-0.8,1
		c-0.2,0.2-0.3,0.5-0.5,0.7c-0.1,0.1-0.2,0.3-0.2,0.4c0,0.1-0.1,0.1-0.1,0.2c-0.1,0.2-0.2,0.4-0.3,0.6c-0.6,1.2-1.2,2.6-1.6,3.9
		c-0.3,0.6-0.6,1.3-0.9,1.9c0.1,0.3-0.2,1.1-0.8,2.1c-0.1,0.4-0.2,0.7-0.3,1c0.1,0.1,0.2,0.2,0.3,0.2c0.8-0.3,1.3-0.3,1.3,0.2
		c0,0.1,0,0.2-0.1,0.3l0.4,0c0.1-0.2,0.2-0.3,0.3-0.5c0.7-1.3,1.4-2.9,1.9-4.6c0.3-0.7,0.7-1.5,1-2.2c0.2-0.6,0.4-1.1,0.6-1.7
		c0.1-0.4,0.2-0.7,0.3-1.1c0,0,0,0,0-0.1C348.2,245.3,348.2,245.2,348.3,245.1z"/>
	<path fill="#009B3A" d="M342.2,255.1c0,0,0.1,0,0.1-0.1c0,0-0.1-0.1-0.1-0.1C342.2,255,342.2,255,342.2,255.1z"/>
	<path fill="#009B3A" d="M339.8,253.4c0.4-0.4,0.8-0.7,1.2-1c-0.1-0.1-0.2-0.2-0.3-0.3c-0.1-0.1-0.3-0.2-0.4-0.3
		C340.1,252.3,340,252.8,339.8,253.4C339.8,253.4,339.8,253.4,339.8,253.4z"/>
	<path fill="#009B3A" d="M340.5,261c-2,0.8-3.8,1.2-4.9,1.3c-0.1,0.1-0.1,0.1-0.2,0.2c0.1,0.1,0.1,0.1,0.2,0.2c0,0,0,0,0,0
		c1,0.3,2.8,0.2,5-0.1c3.3-0.5,6-1.6,6.1-2.4c0.1-0.5-1-0.8-2.5-0.8C343.2,260,341.9,260.6,340.5,261L340.5,261z"/>
	<path fill="#009B3A" d="M337.9,251.6c0.1-0.2,0.2-0.4,0.4-0.5C338,251.2,337.8,251.4,337.9,251.6z"/>
	<path fill="#009B3A" d="M342.2,254.9C342.2,254.9,342.3,255,342.2,254.9c0.2,0,0.3,0,0.3,0c-0.1-0.1-0.2-0.2-0.3-0.2
		c-0.1-0.1-0.2-0.1-0.2-0.2c0,0.1-0.1,0.1-0.1,0.2C342,254.7,342.1,254.8,342.2,254.9z"/>
	<path fill="#009B3A" d="M343.7,255.4c0,0.1-0.1,0.2-0.1,0.2l0.3,0.1l0.6,0.1l0.8,0.1c0.7,0,2.2,1.1,3.5,1.1c1,0,1.8-0.5,1.2-1
		c-0.8-0.6-1.7-0.9-2.6-1c-0.8,0-1.5,0.8-2.2,0.6l-0.3,0l-0.8-0.1L343.7,255.4z"/>
	<path fill="#009B3A" d="M335.6,262.2C335.6,262.3,335.6,262.3,335.6,262.2c1.1,0,2.9-0.5,4.9-1.2v0.1c1.4-0.5,2.7-1.1,3.7-1.7
		c1.5-0.8,2.4-1.6,2.3-2c-0.1-0.6-2.1-0.4-4.6,0.4c-0.4,0.4-1,0.9-1.5,1.3C338.7,260.4,337,261.6,335.6,262.2z"/>
	<path fill="#009B3A" d="M339.7,253.5c0,0,0-0.1,0-0.1c0.2-0.6,0.4-1.2,0.5-1.7c0.4-1.5,0.2-2.4-0.5-2.1c-0.4,0.2-0.9,0.7-1.5,1.4
		c-0.1,0.2-0.2,0.3-0.4,0.5c-0.8,1.2-1.6,2.7-2.3,4.3c-0.7,1.7-1,3.1-1,3.9c0.6-1.1,1.6-2.6,3-4.1
		C338.3,254.9,339,254.2,339.7,253.5z"/>
	<path fill="#009B3A" d="M336.9,258.5c0.6-0.5,1.2-0.9,1.8-1.4c1-0.7,1.9-1.2,2.6-1.6c0.2-0.2,0.3-0.4,0.5-0.7
		c0-0.1,0.1-0.1,0.1-0.2c0-0.1,0.1-0.1,0.1-0.2c0.2-0.3,0.4-0.6,0.5-0.8c0.6-1,0.9-1.8,0.8-2.1c0-0.1,0-0.1-0.1-0.2
		c-0.1-0.1-0.4,0-0.6,0c-0.3,0.1-0.7,0.4-1.2,0.7c-0.1,0.1-0.3,0.2-0.4,0.3c-0.4,0.3-0.8,0.6-1.2,1c0,0-0.1,0.1-0.1,0.1
		c-0.7,0.6-1.4,1.4-2.1,2.2c-1.4,1.5-2.4,3-3,4.1c-0.2,0.3-0.3,0.6-0.4,0.9c0.1,0,0.2,0,0.3,0C335.2,260,336,259.3,336.9,258.5z"/>
	<path fill="#009B3A" d="M343.6,255.6c0-0.1,0.1-0.2,0.1-0.2c0.1-0.1,0.1-0.2,0.1-0.3c0-0.4-0.5-0.5-1.3-0.2c-0.1,0-0.2,0.1-0.3,0.1
		c0,0-0.1,0-0.1,0.1c-0.1,0-0.2,0.1-0.3,0.1c-0.2,0.1-0.4,0.2-0.6,0.3c-0.8,0.4-1.7,0.9-2.6,1.6c-0.6,0.4-1.2,0.9-1.8,1.4
		c-1,0.8-1.7,1.5-2.3,2.2c0.8,0,1.4,0.1,1.5,0.5c0.1,0.3-0.1,0.7-0.4,1.1c1.3-0.7,3-1.8,4.7-3.1c0.6-0.5,1.1-0.9,1.5-1.3
		c0.1-0.1,0.2-0.2,0.3-0.3C342.8,256.7,343.4,256.1,343.6,255.6z"/>
	<path fill="#009B3A" d="M332.5,256.4c0.3,0.3,0.3,0.9-0.1,1.8c0.4,0.4,0.7,0.8,0.9,1.1l0.4,1.3c0.1,0,0.2,0,0.3,0
		c-0.1-0.4-0.2-0.8-0.3-1.2c-0.1-0.4,0.6-0.8,0.3-2c-0.3-1-1-1.8-1.9-2.3c-0.5-0.3-0.8,0.1-0.6,1.2
		C331.9,256.3,332.3,256.2,332.5,256.4z"/>
	<path fill="#009B3A" d="M335.3,262.5c-0.1,0.1-0.1,0.1-0.2,0.2l0.2,0.2l1,0.8c0.6,0.5,1.5,2.4,2.7,3.1c1,0.7,2,0.5,1.8-0.2
		c-0.5-1-1.1-1.8-2-2.4c-0.7-0.6-1.8-0.3-2.5-0.8c-0.1-0.2-0.4-0.4-0.7-0.7c0,0,0,0,0,0C335.5,262.7,335.4,262.6,335.3,262.5z"/>
	<path fill="#009B3A" d="M326.2,266.6c0.4,0.7,2.1,1.2,4.6,1.4c2.2-0.2,4-0.7,4.5-1.4c0.7-0.8-0.7-1.6-3.1-2
		c-0.4,0.2-0.9,0.5-1.4,0.7C329.1,266,327.4,266.5,326.2,266.6z"/>
	<path fill="#009B3A" d="M325.1,266.6C325.1,266.6,325.1,266.6,325.1,266.6C325.1,266.6,325.1,266.6,325.1,266.6z"/>
	<path fill="#009B3A" d="M329.6,262c0.3-0.1,0.6-0.3,0.9-0.4c0.9-1.2,1.5-2.4,1.9-3.4c0.3-0.9,0.4-1.6,0.1-1.8
		c-0.2-0.2-0.5-0.1-0.9,0c-1.1,0.4-2.7,1.9-4.2,3.9c-1.5,1.9-2.5,3.8-2.7,5C325.2,264.4,327.2,263,329.6,262z"/>
	<path fill="#009B3A" d="M329.8,213.3c-0.4-0.1-0.8-0.1-1.2-0.1c-2-0.1-3.2,0.2-2.5,0.7s2.8,1,4.8,1.2c1.1,0.1,2,0,2.4-0.1
		c-0.8-0.2-1.7-0.6-2.7-1.2C330.3,213.6,330.1,213.4,329.8,213.3z"/>
	<path fill="#009B3A" d="M334.4,214.3c-0.1-0.5-0.8-1.4-1.9-2.4c-0.2-0.1-0.3-0.3-0.5-0.4c-1.6-1.4-3.1-2.2-3.4-1.9
		c-0.2,0.3,0.4,1.1,1.3,2.2c0.5,0.2,0.9,0.4,1.4,0.7C332.7,213.1,333.8,213.8,334.4,214.3z"/>
	<path fill="#009B3A" d="M324.3,266.2c0.1,0.2,0.3,0.3,0.6,0.4c0,0,0.1,0,0.1,0c0,0,0,0,0,0c0.3,0.1,0.7,0.1,1.2,0
		c1.2-0.1,2.8-0.6,4.6-1.3c0.5-0.2,1-0.4,1.4-0.7c0.7-0.4,1.3-0.7,1.8-1.1c0.4-0.3,0.8-0.6,1.1-0.8c0.1-0.1,0.1-0.1,0.2-0.2
		c0.1-0.1,0.1-0.1,0.2-0.2c0,0,0.1-0.1,0.1-0.1c0.4-0.4,0.5-0.8,0.4-1.1c-0.1-0.4-0.7-0.5-1.5-0.5c-0.1,0-0.2,0-0.3,0
		c-0.1,0-0.1,0-0.2,0c-0.1,0-0.2,0-0.3,0c-0.9,0.1-2,0.4-3.2,0.9c-0.3,0.1-0.6,0.2-0.9,0.4c-2.4,1-4.4,2.4-5,3.3
		c-0.1,0.1-0.1,0.2-0.1,0.2C324.3,265.8,324.3,266,324.3,266.2z"/>
	<path fill="#009B3A" d="M334.9,215c0.1-0.1-0.1-0.4-0.5-0.7c-0.6-0.5-1.7-1.2-3-1.9c-0.5-0.2-1-0.5-1.4-0.7
		c-1.5-0.6-2.7-0.9-2.9-0.7c-0.2,0.3,1,1.2,2.7,2.2c0.3,0.1,0.5,0.3,0.8,0.4c1,0.5,2,0.9,2.7,1.2c0.6,0.2,1,0.3,1.3,0.3
		C334.7,215.1,334.8,215.1,334.9,215C334.9,215,334.9,215,334.9,215z"/>
	<path fill="#009B3A" d="M316.3,265.1l-0.6,0.7c1.3,0.7,2.7,1.5,4,2.4c0.5,0.3,1,0.7,1.5,1c2.4,1.6,4.4,2.9,5.2,3.1
		c2,0,4.9-0.7,6-3.6c-3.2,0.8-5,2.1-8,0.5c-0.4-0.1-1-0.5-1.7-1.1c-0.4-0.3-0.8-0.6-1.3-0.9c-1.4-1-3-2.1-4.8-3
		c0.2,0.2,0.5,0.3,0.7,0.5C317,264.8,316.6,264.9,316.3,265.1z"/>
	<polygon fill="#009B3A" points="315.1,212.4 313.2,212.9 314.2,212.9 	"/>
	<path fill="#009B3A" d="M313.5,216.5c-1.1-0.3-2.2-0.7-3.3-1.2l-0.5-0.1c-0.1,0-0.2,0-0.2,0l-0.2,0.1c1.1,0.5,2.4,0.9,3.6,1.3
		c0.7,0.1,1.3,0.3,1.9,0.4v-0.1c-0.2-0.1-0.4-0.1-0.6-0.2c0.1,0.1,0.2,0.1,0.3,0.2C314.2,216.8,313.9,216.6,313.5,216.5z"/>
	<path fill="#009B3A" d="M311.8,209.2c-0.6,0.8-1.4,1.8-2.3,2.9l1-0.7C311,210.6,311.4,209.9,311.8,209.2z"/>
	<path fill="#009B3A" d="M309.9,212.7L309.9,212.7c0.2-0.3,0.3-0.7,0.5-1l-1.1,1.3L309.9,212.7z"/>
	<path fill="#009B3A" d="M312.3,212.7c0.4-0.3,0.7-0.6,1.1-0.9l0,0c-0.5,0.3-1,0.6-1.4,0.9L312.3,212.7z"/>
	<path fill="#009B3A" d="M308.5,212.9c0.6-1.4,1.5-2.9,2-4.1c-0.8,1.2-1.9,2.8-3,4.3c-0.1,0.3-0.2,0.5-0.2,0.8L308.5,212.9z"/>
	<path fill="#009B3A" d="M309.4,215.3l-1,0.4c0.1,0,0.3,0.1,0.4,0.1c1.7,0.3,3.5,0.7,4.9,1h0.1c-0.3-0.1-0.6-0.2-0.9-0.3
		C311.8,216.2,310.5,215.8,309.4,215.3z"/>
	<path fill="#009B3A" d="M311,214.4c0.1,0,0.2,0.1,0.2,0.1l0.4-0.2L311,214.4z"/>
	<path fill="#009B3A" d="M308.2,215.2c0.1-0.1,0.1-0.1,0.2-0.2l-0.1,0l-0.6,0.5c0.2,0.1,0.4,0.1,0.7,0.2l1-0.4l0.2-0.1
		C309.1,215.2,308.6,215.2,308.2,215.2z"/>
	<path fill="#009B3A" d="M306.6,214.3l0.6-0.5c0.1-0.2,0.2-0.5,0.2-0.8c0-0.1,0.1-0.2,0.1-0.3l-1,1.3
		C306.6,214.1,306.6,214.2,306.6,214.3z"/>
	<path fill="#009B3A" d="M307.8,212.3c0.4-1.1,0.8-2.2,1.1-3.2c-0.5,1-1.2,2.3-2,3.6c0,0.1-0.1,0.3-0.1,0.4L307.8,212.3z"/>
	<path fill="#009B3A" d="M308.4,215.7c-0.2-0.1-0.4-0.1-0.7-0.2l-0.6,0.6c0.6,0.2,1.3,0.3,2,0.5c1.4,0.1,2.8,0.3,3.9,0.4v-0.1
		c-1.2-0.3-2.8-0.6-4.2-1C308.7,215.8,308.5,215.8,308.4,215.7z"/>
	<path fill="#009B3A" d="M306.6,214.3c0,0,0,0.1,0,0.1l2.7-1.4l1.1-1.3l0.4-0.5l-0.2,0.2l-1,0.7l-1.1,0.8l-1.2,0.9L306.6,214.3z"/>
	<path fill="#009B3A" d="M306.9,213.1c0-0.1,0.1-0.3,0.1-0.4c0.3-1.3,0.6-2.6,0.9-3.7c-0.6,1.4-1.3,3.4-2.1,5.2L306.9,213.1z"/>
	<path fill="#009B3A" d="M307.1,216.1l-0.4,0.4c1.4,0.3,3,0.5,4.4,0.8c0.7,0,1.3,0,1.9,0h0c-1.1-0.2-2.6-0.5-3.9-0.7
		C308.4,216.4,307.7,216.3,307.1,216.1z"/>
	<path fill="#009B3A" d="M306.6,214.4c0,0,0-0.1,0-0.1c0-0.1,0-0.1,0-0.2l-0.4,0.5L306.6,214.4z"/>
	<path fill="#009B3A" d="M308.3,215l-0.5-0.1l-1.7,1.4c0.2,0.1,0.4,0.1,0.6,0.2l0.4-0.4l0.6-0.6L308.3,215z"/>
	<path fill="#009B3A" d="M305.6,214.1l-0.3,0.4l0.3-0.2c0.7-1.9,1.7-4,2.4-5.8c-0.9,1.7-2.3,4.1-3.7,6.2c-0.1,0.3-0.1,0.5-0.2,0.8
		L305.6,214.1z"/>
	<path fill="#009B3A" d="M306.1,216.3l-1.2,1c0.2,0,0.4,0,0.6,0.1c2.2-0.1,4.6,0,6.4,0c-0.2,0-0.5-0.1-0.8-0.1
		c-1.4-0.2-3-0.5-4.4-0.8C306.5,216.4,306.3,216.4,306.1,216.3z"/>
	<path fill="#009B3A" d="M307.3,214.8l-0.1,0l0.5-0.3h-0.1l0.8-0.8l0.7-0.2l0.1-0.1c0,0-0.1,0-0.1,0l0.2-0.1l0.6-0.6l-0.6,0.3
		l-2.7,1.4l-0.3,0.2l-0.9,1.3L307.3,214.8z"/>
	<path fill="#009B3A" d="M304.1,215.4c0.1-0.2,0.1-0.5,0.2-0.8c0.1-0.5,0.3-1,0.4-1.5l-1.7,3.3L304.1,215.4z"/>
	<path fill="#009B3A" d="M304,213.8l0.9-1.1c0.3-1.1,0.7-2.3,0.9-3.3C305.3,210.6,304.6,212.2,304,213.8z"/>
	<path fill="#009B3A" d="M304.9,217.4l-0.7,0.6c0.8,0.1,1.6,0.1,2.3,0.2c1.6-0.2,3.2-0.4,4.5-0.6h-0.1c-1.6-0.1-3.7,0-5.4-0.2
		C305.3,217.4,305.1,217.4,304.9,217.4z"/>
	<polygon fill="#009B3A" points="303.8,216.7 305.4,215.9 306.3,214.6 306.7,214.1 307.6,212.7 308.2,211.9 307.8,212.3 
		306.9,213.1 305.7,214.2 305.6,214.3 305.3,214.5 	"/>
	<path fill="#009B3A" d="M303.2,214.8c0-0.1,0.1-0.2,0.1-0.3l-0.2,0.4L303.2,214.8z"/>
	<path fill="#009B3A" d="M303.3,214.4c0.5-1.5,1.1-3.1,1.5-4.4c-0.8,1.5-1.7,3.5-2.7,5.5c0,0.2-0.1,0.4-0.1,0.7L303.3,214.4z"/>
	<path fill="#009B3A" d="M303.1,218.9c0.2,0,0.3,0,0.5,0c2-0.2,4.2-0.3,5.8-0.5c-0.8-0.1-1.9-0.1-2.9-0.2c-0.8,0-1.6-0.1-2.3-0.2
		L303.1,218.9z"/>
	<path fill="#009B3A" d="M302.7,218.4l2.1-1.4l-1.9,1.9c0,0,0.1,0,0.1,0l1.1-0.9l0.7-0.6l1.2-1l1.7-1.4l-0.4-0.1l-2,1.1l-1.5,0.8
		L302.7,218.4z"/>
	<path fill="#009B3A" d="M301.8,216l-0.6,1.1l0.8-1c0-0.2,0.1-0.4,0.1-0.7c0.3-1.5,0.7-3.1,1-4.5c-0.6,1.6-1.4,3.8-2.2,5.9
		c0,0.1,0,0.1,0,0.2L301.8,216z"/>
	<path fill="#009B3A" d="M303.1,218.9c-0.1,0-0.1,0-0.1,0l-0.7,0.7c0.8,0,1.7-0.1,2.6-0.2c1.4-0.3,2.7-0.5,3.8-0.8
		c-1.5,0.1-3.4,0.2-5.1,0.2C303.4,218.9,303.3,218.9,303.1,218.9z"/>
	<polygon fill="#009B3A" points="303.2,214.8 303.1,214.9 301.8,217.6 303,216.5 304.7,213.2 305.2,212.3 304.9,212.7 304,213.8 	
		"/>
	<path fill="#009B3A" d="M301.6,210.8c-0.4,1.5-0.8,3.4-1.3,5.4l0.8-0.9C301.2,213.7,301.5,212.1,301.6,210.8z"/>
	<path fill="#009B3A" d="M299.8,218.1c0,0.1,0,0.2,0,0.2l1.1-1.3c0-0.1,0-0.1,0-0.2c0-0.4,0.1-0.8,0.1-1.3l-1.2,2.3
		C299.8,218,299.8,218.1,299.8,218.1z"/>
	<path fill="#009B3A" d="M301.1,220.8c0.6,0,1.1-0.1,1.7-0.2c2-0.5,4.1-1.1,5.8-1.5h-0.1c-1.1,0.1-2.4,0.3-3.7,0.4
		c-0.9,0.1-1.8,0.1-2.6,0.2L301.1,220.8z"/>
	<polygon fill="#009B3A" points="300.9,219.5 302.7,218.4 303.8,216.7 305.3,214.5 305.6,214.1 304.1,215.4 303,216.5 301.8,217.6 	
		"/>
	<polygon fill="#009B3A" points="307.5,220 307.5,220 307.5,220 	"/>
	<path fill="#009B3A" d="M299.3,216.7l-0.2,0.6c0,0.1,0,0.2,0,0.3l0.8-1c0.1-1.6,0.2-3.2,0.3-4.6c-0.3,1.4-0.6,3.1-1,4.9
		c0,0,0,0,0,0L299.3,216.7z"/>
	<path fill="#009B3A" d="M300.5,221.4c0.9,0,1.8,0,2.8-0.1c1.5-0.5,3-0.9,4.2-1.3c-1.4,0.1-3,0.4-4.6,0.6c-0.6,0.1-1.2,0.1-1.7,0.2
		L300.5,221.4z"/>
	<path fill="#009B3A" d="M299.8,218.4c0-0.1,0-0.1,0-0.2c0,0,0-0.1,0-0.1l-0.4,0.8L299.8,218.4z"/>
	<polygon fill="#009B3A" points="301.2,217.1 299.6,220 300.5,219.1 299.7,220.3 300.9,219.5 301.8,217.6 303.1,214.9 303.3,214.5 
		303.3,214.4 303.3,214.4 301.9,216.2 	"/>
	<path fill="#009B3A" d="M299,217.6c0-0.1,0-0.2,0-0.3l-0.2,0.5L299,217.6z"/>
	<path fill="#009B3A" d="M299.1,217C299.1,217,299.1,217,299.1,217c0.2-1.5,0.5-3.1,0.7-4.4c-0.5,1.7-1.2,4-1.8,6.2L299.1,217z"/>
	<path fill="#009B3A" d="M300.5,221.4l-0.6,0.6c0.6,0,1.3,0.1,1.9,0.1c1.3-0.3,2.6-0.6,3.7-0.8h0h0c0,0,0,0,0,0
		c-0.1,0.1-0.3,0.1-0.4,0.2c0.5-0.1,0.9-0.2,1.3-0.3v-0.1c-0.9,0-2,0.1-3.1,0.2C302.4,221.4,301.4,221.4,300.5,221.4z"/>
	<path fill="#009B3A" d="M304.8,217l-2.1,1.4l-1.7,1.1l-1.2,0.8l-1,1.6c0.4,0.1,0.8,0.1,1.2,0.1l0.6-0.6l0.6-0.6l1.1-1.1l0.7-0.7
		L304.8,217z"/>
	<path fill="#009B3A" d="M305.2,222.3c-0.6-0.1-1.2-0.1-1.9-0.1c-0.4,0.2-0.8,0.3-1.3,0.5C303.2,222.6,304.3,222.4,305.2,222.3z"/>
	<path fill="#009B3A" d="M297,219.8l-0.1,0.3l0.8-1l0.2-0.3c0.4-2,0.9-4.1,1.3-5.9c-0.6,1.8-1.4,4.2-2.3,6.5c0,0.2,0,0.4,0,0.5
		L297,219.8z"/>
	<path fill="#009B3A" d="M298.7,221.9l-0.6,0.9c1.2-0.1,2.5-0.4,3.8-0.7c-0.6,0-1.3-0.1-1.9-0.1C299.5,222,299.1,222,298.7,221.9z"
		/>
	<polygon fill="#009B3A" points="298.9,217.8 297.8,220.6 299.4,218.8 299.8,218 299.8,217.9 301,215.6 301.5,214.7 301.1,215.2 
		300.3,216.2 299.8,216.7 299,217.6 	"/>
	<path fill="#009B3A" d="M296.9,220.5l0.9-1.4l-0.8,1l0,0.1C296.9,220.4,296.9,220.5,296.9,220.5z"/>
	<polygon fill="#009B3A" points="305.5,221.3 305.5,221.3 305.5,221.3 	"/>
	<path fill="#009B3A" d="M301.8,222.1c-1.3,0.3-2.6,0.6-3.8,0.7l-0.3,0.5l-0.6,1.1c0.5-0.1,1-0.2,1.5-0.3c1.1-0.5,2.2-0.9,3.3-1.3
		c0.4-0.2,0.9-0.3,1.3-0.5c0.6-0.2,1.2-0.5,1.7-0.7c0.1-0.1,0.3-0.1,0.4-0.2C304.4,221.5,303.1,221.8,301.8,222.1z"/>
	<path fill="#009B3A" d="M295.7,222.4l0.2-0.3l1-2.1c0-0.2,0-0.3,0-0.5c0.1-2.2,0.3-4.7,0.3-6.7c-0.4,2.3-0.9,5.6-1.6,8.6
		C295.6,221.7,295.7,222.1,295.7,222.4z"/>
	<path fill="#009B3A" d="M296.8,220.7l0.1-0.2c0-0.1,0-0.2,0-0.3L296.8,220.7z"/>
	<polygon fill="#009B3A" points="299.6,220 301.2,217.1 301.8,216 300.9,217.1 299.8,218.4 299.4,218.8 297.8,220.6 297.2,222.4 	
		"/>
	<path fill="#009B3A" d="M297.1,224.4c0,0,0.1,0,0.1,0l0.6-1.1L297.1,224.4z"/>
	<path fill="#009B3A" d="M295.3,223l0.4-0.6c0-0.3,0-0.7,0-1.1c0-2.3,0.1-4.8,0.1-6.8c-0.2,1.6-0.5,3.6-0.8,5.8l0.7-2.6L295.3,223z"
		/>
	<path fill="#009B3A" d="M302.2,223.2c-0.2,0.2-0.4,0.3-0.6,0.5c0.1,0,0.2-0.1,0.3-0.1c0.9-0.4,1.7-0.8,2.4-1.1
		c-0.5,0.1-1,0.2-1.5,0.4l0,0C302.6,223,302.4,223.1,302.2,223.2z"/>
	<path fill="#009B3A" d="M297.1,224.4l-0.5,0.7c1.4-0.3,3-0.8,4.4-1.3c0.4-0.2,0.8-0.4,1.2-0.6c0.1-0.1,0.2-0.2,0.3-0.2
		c-1.2,0.3-2.5,0.7-3.8,1c-0.5,0.1-1,0.2-1.5,0.3C297.1,224.4,297.1,224.4,297.1,224.4z"/>
	<polygon fill="#009B3A" points="296.9,220.5 296.8,220.7 296.1,223.5 297.2,222.4 297.8,220.6 298.9,217.8 299.1,217.3 
		299.3,216.7 299.1,217 298,218.8 297.9,218.9 297.7,219.2 	"/>
	<polygon fill="#009B3A" points="295.9,222.1 295.7,222.4 295.3,223 295.3,223.3 	"/>
	<path fill="#009B3A" d="M294.3,222.6c-0.1-2.3,0-5,0-7.1c-0.3,1.8-0.6,4.2-0.9,6.6c0.1,0.7,0.3,1.4,0.5,2L294.3,222.6z"/>
	<path fill="#009B3A" d="M296,226l-0.2,0.7c1.6-0.8,3.5-1.9,5.3-2.9c-1.4,0.4-3,0.9-4.4,1.3L296,226z"/>
	<path fill="#009B3A" d="M300.7,224.4c0.8-0.4,1.6-0.8,2.3-1.1c-0.3,0.1-0.7,0.2-1.1,0.3c-0.1,0-0.2,0.1-0.3,0.1
		C301.3,223.9,301,224.2,300.7,224.4z"/>
	<polygon fill="#009B3A" points="299.7,220.3 300.5,219.1 299.6,220 297.2,222.4 296.1,223.5 295.7,225 297.3,222.4 296,226 
		296.6,225.1 297.1,224.4 297.8,223.3 298.1,222.8 298.7,221.9 	"/>
	<path fill="#009B3A" d="M293.3,225.9C293.3,226,293.3,226,293.3,225.9l0.3-0.7l0.2-0.9l0-0.2c-0.2-0.7-0.3-1.4-0.5-2
		c-0.3-1.6-0.6-3.2-0.9-4.5c0.1,1.7,0.3,3.9,0.5,6.1l0.2-1.3L293.3,225.9z"/>
	<path fill="#009B3A" d="M302.8,222.9L302.8,222.9l-0.1-0.1c-0.1,0.1-0.2,0.1-0.2,0.2c-0.1,0.1-0.2,0.2-0.3,0.2
		C302.4,223.1,302.6,223,302.8,222.9z"/>
	<path fill="#009B3A" d="M301.6,223.7c0.2-0.2,0.4-0.3,0.6-0.5c-0.4,0.2-0.8,0.4-1.2,0.6c-1.7,1-3.6,2.1-5.3,2.9l-0.2,0.7
		c1.6-0.7,3.2-1.8,4.8-2.7c0.1-0.1,0.2-0.2,0.3-0.3C301,224.2,301.3,223.9,301.6,223.7z"/>
	<polygon fill="#009B3A" points="294.6,224.7 295.3,223.3 295.3,223 295.6,217.8 294.9,220.4 294.8,220.8 	"/>
	<polygon fill="#009B3A" points="293.8,224.3 293.6,225.2 293.7,224.9 	"/>
	<path fill="#009B3A" d="M301.3,224.3c0,0-0.1,0.1-0.1,0.1c0.3-0.2,0.6-0.5,0.9-0.7c-0.1,0.1-0.3,0.1-0.4,0.2v0.1
		C301.5,224.2,301.4,224.3,301.3,224.3z"/>
	<path fill="#009B3A" d="M292.3,225.3c0.1,0.3,0.2,0.6,0.3,0.9l0.3-2c-0.4-1.9-0.8-4-1.2-5.7c0.1,1.6,0.3,3.8,0.5,6l0-0.2
		L292.3,225.3z"/>
	<path fill="#009B3A" d="M295,228.7c2-1.2,4.4-3,6.3-4.4c0.1-0.1,0.2-0.2,0.3-0.3c-0.4,0.2-0.8,0.4-1.2,0.7
		c-1.6,0.9-3.3,1.9-4.8,2.7L295,228.7z"/>
	<path fill="#009B3A" d="M293.3,225.9l0,0.2L293.3,225.9C293.3,226,293.3,226,293.3,225.9z"/>
	<polygon fill="#009B3A" points="294.8,225.3 294.7,226.6 295.7,225 296.1,223.5 296.8,220.7 296.9,220.3 296.9,220.1 297,219.8 
		296.9,220 295.9,222.1 295.3,223.3 294.6,224.7 294.5,226.1 	"/>
	<path fill="#009B3A" d="M292.1,224.9c-0.6-1.7-1.1-3.6-1.6-5.1c0.4,2,0.9,4.6,1.3,7.3c0,0,0,0,0,0.1L292.1,224.9z"/>
	<path fill="#009B3A" d="M295,228.7l-0.3,0.7c1.1-0.6,2.2-1.2,3.3-1.9c1.1-1.1,2.2-2.2,3.1-3.1c0,0,0.1-0.1,0.1-0.1
		C299.4,225.7,297,227.5,295,228.7z"/>
	<path fill="#009B3A" d="M292.3,225.3l0.1,1.9l0.2-1C292.5,225.9,292.4,225.6,292.3,225.3z"/>
	<path fill="#009B3A" d="M301.6,224.1L301.6,224.1L301.6,224.1C301.6,224,301.6,224,301.6,224.1c-0.1,0-0.2,0.1-0.3,0.2
		C301.4,224.3,301.5,224.2,301.6,224.1z"/>
	<polygon fill="#009B3A" points="293.8,224.3 293.7,224.9 294.2,223.3 293.7,228.2 294.2,227.4 294.5,226.1 294.6,224.7 
		294.8,220.8 294.8,220.5 294.3,222.6 293.9,224.1 	"/>
	<path fill="#009B3A" d="M290.2,220.5c0,0.5,0.1,1.1,0.1,1.7c0.3,0.8,0.5,1.8,0.8,2.7C290.8,223.3,290.5,221.8,290.2,220.5z"/>
	<path fill="#009B3A" d="M291.5,229.6c-0.4-2.3-0.8-4.6-1.1-6.6c0.2,1.7,0.3,3.7,0.5,5.6c0.2,0.5,0.4,1,0.5,1.5L291.5,229.6z"/>
	<path fill="#009B3A" d="M294.8,229.4l-0.5,1.4c0.7-0.4,1.4-0.9,2.2-1.5c0.9-0.7,1.7-1.4,2.5-2c0,0,0.1-0.1,0.1-0.1l0,0
		c0.2-0.1,0.4-0.3,0.6-0.4c-0.1,0.1-0.2,0.2-0.2,0.3c0.5-0.4,1-0.7,1.4-1.1v-0.1c-0.8,0.5-1.8,1.1-2.8,1.7
		C296.9,228.2,295.8,228.9,294.8,229.4z"/>
	<path fill="#009B3A" d="M296,226l1.3-3.6l-1.6,2.6l-1,1.6l-0.4,4.2c0,0,0,0,0,0l0.5-1.4l0.3-0.7l0.5-1.3l0.2-0.7L296,226z"/>
	<polygon fill="#009B3A" points="293.5,229.5 294.2,227.4 293.7,228.2 	"/>
	<path fill="#009B3A" d="M298.2,228.3c-0.3,0.4-0.6,0.8-0.9,1.2c0.5-0.6,1.1-1.1,1.6-1.6c0,0,0,0,0,0.1c0.7-0.7,1.4-1.4,1.9-2
		c-0.5,0.3-0.9,0.7-1.4,1.1C299,227.4,298.6,227.9,298.2,228.3z"/>
	<path fill="#009B3A" d="M291.8,227.1C291.8,227.1,291.8,227.1,291.8,227.1c-0.2-0.8-0.5-1.5-0.7-2.2c-0.3-0.9-0.6-1.9-0.8-2.7
		c0-0.1-0.1-0.3-0.1-0.5c0.1,0.4,0.1,0.9,0.2,1.3c0.3,1.9,0.7,4.3,1.1,6.6L291.8,227.1z"/>
	<path fill="#009B3A" d="M294.2,231c0.7-0.5,1.5-1.1,2.2-1.7c-0.7,0.5-1.5,1.1-2.2,1.5c0,0,0,0,0,0L294.2,231z"/>
	<polygon fill="#009B3A" points="292.4,227.2 292.5,228.7 293.3,226.1 293.3,225.9 293.2,222.4 293,223.7 292.9,224.2 292.6,226.2 	
		"/>
	<path fill="#009B3A" d="M290.1,226.8l1.1,3.7l0-1l0.2,1.1l0.1-0.5c-0.2-0.5-0.4-1-0.5-1.5c-0.7-2-1.4-4.2-2-6
		c0.3,1.8,0.8,4,1.3,6.3c0.1,0.1,0.1,0.2,0.2,0.3L290.1,226.8z"/>
	<path fill="#009B3A" d="M299.1,227.3c-0.2,0.1-0.3,0.3-0.5,0.4c-0.1,0.2-0.3,0.4-0.4,0.6c0.4-0.4,0.8-0.8,1.1-1.2
		c0.1-0.1,0.2-0.2,0.2-0.3C299.4,226.9,299.2,227.1,299.1,227.3L299.1,227.3z"/>
	<path fill="#009B3A" d="M294.2,231l-0.1,0.9c1.5-1.3,3.1-2.9,4.5-4.2c0.1-0.1,0.2-0.3,0.3-0.4c-0.8,0.6-1.6,1.3-2.5,2
		C295.7,229.9,294.9,230.5,294.2,231z"/>
	<polygon fill="#009B3A" points="293.5,229.5 293.7,228.2 294.2,223.3 293.7,224.9 293.6,225.2 293.4,226 293.3,226.1 292.5,228.7 
		292.8,232.1 	"/>
	<path fill="#009B3A" d="M290.3,229.3c-0.1-0.1-0.1-0.2-0.2-0.3c-0.7-1.6-1.4-3.3-2.1-4.7c0.4,1.4,0.9,3,1.4,4.8
		c0.3,0.7,0.7,1.4,1,2L290.3,229.3z"/>
	<path fill="#009B3A" d="M298.6,227.7c-1.4,1.3-3,2.9-4.5,4.2l-0.1,1c1.1-1,2.2-2.3,3.3-3.4c0.3-0.4,0.6-0.8,0.9-1.2
		C298.4,228.1,298.5,227.9,298.6,227.7z"/>
	<path fill="#009B3A" d="M298.6,227.7c0.2-0.1,0.3-0.3,0.5-0.4l-0.1-0.1l0,0c0,0-0.1,0.1-0.1,0.1
		C298.8,227.4,298.7,227.6,298.6,227.7z"/>
	<polygon fill="#009B3A" points="291.5,229.6 291.5,230.1 291.4,230.6 291.7,232.3 291.8,232.6 292.2,228.3 292.6,232.5 
		292.8,232.1 292.5,228.7 292.4,227.2 292.3,225.3 292.2,224.3 292.2,224.5 292.1,224.9 291.8,227.1 	"/>
	<path fill="#009B3A" d="M290.5,231c-0.3-0.7-0.7-1.3-1-2c-0.6-1.3-1.2-2.6-1.8-3.7c0.7,2.1,1.7,5,2.7,7.8c0.1,0.2,0.2,0.4,0.4,0.6
		L290.5,231z"/>
	<path fill="#009B3A" d="M297.3,229.5c-1.1,1.1-2.2,2.4-3.3,3.4l-0.2,2.1c0.4-0.5,0.9-1.1,1.3-1.6c1.3-1.9,2.7-3.9,3.8-5.4
		c0,0,0,0,0-0.1C298.4,228.4,297.9,228.9,297.3,229.5z"/>
	<path fill="#009B3A" d="M294.2,231l0-0.2l0.4-4.2l0.1-1.3l-0.3,0.8l-0.4,1.3l-0.6,2l-0.8,2.6l-0.1,0.4l0,0.2l0.6-2.2l-0.4,4.5
		l0.1,1c0.3-0.3,0.5-0.5,0.8-0.8l0.2-2.1l0.1-1L294.2,231z"/>
	<path fill="#009B3A" d="M290.7,233.7c-0.1-0.2-0.2-0.4-0.4-0.6c-1.1-1.8-2.2-3.7-3.3-5.2c0.8,1.8,1.8,4.1,2.9,6.4
		c0.3,0.5,0.6,0.9,0.9,1.4L290.7,233.7z"/>
	<path fill="#009B3A" d="M293,235.9l0.1,0.8c1.1-1.1,2.2-2.6,3.2-4c0.8-1.4,1.5-2.7,2.1-3.8v-0.1c-1,1.3-2.2,3-3.4,4.5
		c-0.4,0.6-0.9,1.1-1.3,1.6C293.5,235.3,293.3,235.6,293,235.9z"/>
	<polygon fill="#009B3A" points="291.8,232.6 291.7,232.3 291.8,232.7 	"/>
	<path fill="#009B3A" d="M291.2,230.5l-1.1-3.7l0.2,2.5l0.2,1.7l0.2,2.7l0.2,2c0.1,0.1,0.2,0.2,0.3,0.3L291.2,230.5z"/>
	<path fill="#009B3A" d="M288.5,232.1l0.3,0.9c0.8,1.3,1.6,2.6,2.4,3.7l0-0.6c-0.1-0.1-0.2-0.2-0.3-0.3c-0.3-0.4-0.6-0.9-0.9-1.4
		c-1.1-1.7-2.3-3.6-3.3-5.1c0.2,0.5,0.5,1,0.8,1.6c0.4,0.6,0.7,1.2,1.1,1.8L288.5,232.1z"/>
	<path fill="#009B3A" d="M293.1,236.7l0.1,0.7l0,0.1c0.9-0.9,1.9-2.1,2.8-3.2c0.9-1.5,1.7-2.9,2.4-4.1h-0.1c-0.6,0.8-1.3,1.7-2,2.6
		C295.3,234.2,294.2,235.6,293.1,236.7z"/>
	<polygon fill="#009B3A" points="292.9,234.9 292.8,235.9 293.2,237.5 293.1,236.7 293,235.9 	"/>
	<polygon fill="#009B3A" points="292.1,234.4 292.7,232.6 292.6,232.5 292.2,228.3 291.8,232.6 291.8,232.7 	"/>
	<polygon fill="#009B3A" points="292.7,237.1 292.9,237.5 292.8,236 	"/>
	<path fill="#009B3A" d="M295.4,236.4c0.1-0.2,0.3-0.5,0.4-0.7c-0.5,0.7-0.9,1.3-1.4,2C294.7,237.3,295.1,236.9,295.4,236.4z"/>
	<path fill="#009B3A" d="M290.8,238.9l0.1-0.4l-0.8-2.9l0.9,1.9l0-0.8c-0.8-1.1-1.6-2.4-2.4-3.7l1.8,5.6c0,0.1,0.1,0.2,0.1,0.3
		C290.8,238.9,290.8,238.9,290.8,238.9z"/>
	<path fill="#009B3A" d="M288.6,232.6c-0.4-0.6-0.7-1.2-1.1-1.8c-0.2-0.3-0.4-0.6-0.6-0.9c0.5,1.2,1.2,2.6,1.8,4.2L288.6,232.6z"/>
	<path fill="#009B3A" d="M293.2,237.6l0,0.1c1.4-1.4,2.8-3,4-4.3c0.5-0.8,0.9-1.5,1.3-2.1c-0.8,0.9-1.7,2-2.6,3.1
		C295.1,235.5,294.1,236.6,293.2,237.6z"/>
	<polygon fill="#009B3A" points="291.1,237.5 291.2,237.6 291.7,235.9 291.3,233.1 292,235 292.1,234.4 291.8,232.7 291.7,232.3 
		291.4,230.6 291.2,229.5 291.2,230.5 291.1,236 291.1,236.7 	"/>
	<path fill="#009B3A" d="M288.9,235.8c-1-1.7-1.9-3.6-2.7-5.1c0.4,1.2,1,2.6,1.6,4.1c0.4,0.6,0.8,1.2,1.3,1.9L288.9,235.8z"/>
	<path fill="#009B3A" d="M289,238.1c0.1,0.3,0.2,0.6,0.3,0.9l0-0.3C289.2,238.5,289.1,238.3,289,238.1z"/>
	<path fill="#009B3A" d="M290.8,238.9c0,0,0-0.1-0.1-0.1c0,0,0,0-0.1-0.1l0.1,0.3L290.8,238.9z"/>
	<path fill="#009B3A" d="M293.2,237.7l0.3,1.2c0.3-0.4,0.6-0.8,0.9-1.2c0.5-0.7,0.9-1.4,1.4-2c0.7-1,1.4-2,2-2.9
		c-0.2,0.2-0.4,0.4-0.5,0.5C296,234.7,294.6,236.3,293.2,237.7z"/>
	<polygon fill="#009B3A" points="292.1,234.4 292,235 292.7,237.1 292.8,236 292.8,235.9 292.8,235.9 292.9,234.9 293.3,230.4 
		292.7,232.6 	"/>
	<polygon fill="#009B3A" points="292.2,239.7 291.7,235.9 291.2,237.6 	"/>
	<path fill="#009B3A" d="M291.3,239.7l-0.3-1.2l-0.1,0.4l0,0.1l0,0.1C291,239.4,291.1,239.6,291.3,239.7z"/>
	<path fill="#009B3A" d="M297.9,233c0,0.1-0.1,0.2-0.1,0.3C297.8,233.2,297.9,233.2,297.9,233L297.9,233z"/>
	<path fill="#009B3A" d="M289,236.6c-0.4-0.6-0.9-1.2-1.3-1.9c-0.5-0.8-1.1-1.5-1.6-2.2c0.8,1.5,1.8,3.5,2.8,5.5
		c0.1,0.2,0.2,0.4,0.3,0.6L289,236.6z"/>
	<path fill="#009B3A" d="M293.5,238.9l0.3,1.3l0.1,0.3c1-1.9,2-3.8,3-5.5c0.2-0.4,0.3-0.7,0.5-1c0,0,0,0.1,0,0.1
		c0.1-0.3,0.3-0.5,0.4-0.8c-0.8,0.9-1.6,2-2.4,3.1c-0.3,0.4-0.6,0.9-0.9,1.3C294.1,238.1,293.8,238.5,293.5,238.9z"/>
	<path fill="#009B3A" d="M291.3,239.7c-0.1-0.2-0.3-0.4-0.4-0.6l0.4,1.3l0.4,0.7L291.3,239.7z"/>
	<path fill="#009B3A" d="M289.7,242.3l0,0.4c0.2,0.1,0.4,0.3,0.6,0.4C290.1,242.9,289.9,242.6,289.7,242.3z"/>
	<path fill="#009B3A" d="M291.5,241.5L291,240l0.3,0.5l-0.4-1.3l0-0.1l-0.1-0.3l-0.1-0.3l-1.8-5.6l-0.3-0.9l0.1,0.5l0.2,1.5l0.2,1.7
		l0.1,0.9l0.2,2.1l0,0.3l0.1,0.5C290.1,240.3,290.8,240.9,291.5,241.5z"/>
	<path fill="#009B3A" d="M296.9,234.9c-0.9,1.8-1.9,3.9-2.9,5.7l0.3,0.7c0.7-1.2,1.3-2.6,1.9-3.9c0.4-1.2,0.8-2.4,1.2-3.4
		c0,0,0-0.1,0-0.1C297.2,234.2,297.1,234.6,296.9,234.9z"/>
	<path fill="#009B3A" d="M289.7,241c0.8,0.8,1.6,1.5,2.3,2.1l-0.5-1.6c-0.7-0.6-1.4-1.3-2.1-2c-1.2-1.2-2.5-2.6-3.6-3.6
		c0.9,1.2,2,2.7,3.2,4.3L289.7,241z"/>
	<path fill="#009B3A" d="M294.1,241.5c0-0.1,0.1-0.1,0.1-0.2l-0.3-0.7l-0.1-0.2l-0.1-0.3L294.1,241.5z"/>
	<polygon fill="#009B3A" points="292.7,237.1 292,235 291.3,233.1 291.7,235.9 292.2,239.7 293,241.2 292.9,237.5 	"/>
	<path fill="#009B3A" d="M290.5,243.3l-1.7-3.2c-1.1-1-2.1-2.1-3-2.9c1.1,1.4,2.5,3.2,3.9,5.1c0.2,0.3,0.4,0.6,0.6,0.8
		C290.4,243.2,290.5,243.3,290.5,243.3z"/>
	<path fill="#009B3A" d="M289.7,241l2.5,2.9l-0.2-0.7C291.2,242.5,290.5,241.8,289.7,241z"/>
	<path fill="#009B3A" d="M294.1,241.5l0.3,1.4c0.9-2.3,1.7-5,2.5-7.1c0,0.2-0.1,0.4-0.1,0.7c0.2-0.5,0.4-1.1,0.5-1.6
		c-0.4,0.8-0.8,1.6-1.2,2.5c-0.6,1.3-1.3,2.7-1.9,3.9C294.2,241.4,294.2,241.5,294.1,241.5z"/>
	<polygon fill="#009B3A" points="292.2,239.7 291.2,237.6 291.1,237.5 290.2,235.6 291,238.5 291.3,239.7 291.6,241.1 293.1,243.7 
		293,242.8 293,242.6 293,242.7 293,241.2 	"/>
	<path fill="#009B3A" d="M291.3,244.7l-0.7-1.4c-0.1-0.1-0.2-0.1-0.2-0.2c-0.2-0.1-0.4-0.3-0.6-0.4c-1.4-1-2.8-2.2-3.9-3
		c1.5,1.5,3.5,3.5,5.4,5.6c0.2,0.1,0.3,0.2,0.5,0.3L291.3,244.7z"/>
	<path fill="#009B3A" d="M294.5,243l0.5,2.1c0.3-0.9,0.5-1.8,0.7-2.7c0.4-2,0.8-4,1.2-5.7c0-0.2,0.1-0.5,0.1-0.7
		C296.2,238,295.4,240.7,294.5,243z"/>
	<path fill="#009B3A" d="M292.8,235.9L292.8,235.9L292.8,235.9l0,1.5l0.1,3.8l0.1,1.5l1.6,3.5c0.1-0.4,0.2-0.7,0.4-1.1l-0.5-2.1
		l-0.3-1.4l-0.3-1.4l-0.3-1.3l-0.3-1.2l0-0.1l0-0.1L292.8,235.9z"/>
	<polygon fill="#009B3A" points="293.1,243.7 293.4,244.2 293,242.8 	"/>
	<path fill="#009B3A" d="M291.7,245.6c-0.2-0.1-0.3-0.2-0.5-0.3c-1.7-0.9-3.5-2.1-4.9-2.9c1.4,1.1,3.2,2.6,5.1,4.2
		c0.4,0.2,0.8,0.4,1.1,0.6L291.7,245.6z"/>
	<path fill="#009B3A" d="M297,237c0,0.1,0,0.1,0,0.2C297,237.1,297,237.1,297,237L297,237z"/>
	<path fill="#009B3A" d="M294.6,246.2l0.3,0.7c0.6-1.9,1.1-4.2,1.7-6.3c0.1-1.2,0.3-2.4,0.4-3.4c-0.4,1.5-0.8,3.3-1.3,5.1
		c-0.2,1-0.5,1.9-0.7,2.7C294.9,245.4,294.7,245.8,294.6,246.2z"/>
	<polygon fill="#009B3A" points="290.5,243.3 291.3,244.7 290.4,242.9 292.8,246 292.2,243.9 289.7,241 289,240.2 288.6,239.8 
		288.8,240.1 	"/>
	<polygon fill="#009B3A" points="297.2,238.4 297.2,238.4 297.2,238.4 	"/>
	<path fill="#009B3A" d="M293.3,248.7l-0.8-1.5c-0.4-0.2-0.8-0.4-1.1-0.6c-1.7-1-3.5-2.1-5-3c1.1,0.9,2.6,2.1,4,3.4l-0.4-0.5
		L293.3,248.7z"/>
	<path fill="#009B3A" d="M294.9,246.9l0.2,0.4l0.6,1c0.3-1,0.5-2.1,0.7-3.2c0.3-2.4,0.6-4.8,0.8-6.7c-0.2,0.7-0.4,1.4-0.6,2.2
		C296.1,242.7,295.6,245,294.9,246.9z"/>
	<polygon fill="#009B3A" points="294.1,247.6 293.4,244.2 293.1,243.7 291.6,241.1 291.3,240.5 291,240 291.5,241.5 292,243.1 
		292.2,243.9 292.8,246 	"/>
	<path fill="#009B3A" d="M295.6,248.5c0-0.1,0-0.1,0-0.2l-0.6-1L295.6,248.5z"/>
	<path fill="#009B3A" d="M294.1,251.1l-2.5-2.8c-1.6-0.8-3.3-1.8-4.7-2.4c1.6,1.1,3.6,2.6,5.6,4.1l-0.2-0.2L294.1,251.1z"/>
	<path fill="#009B3A" d="M295.7,248.3c0,0.1,0,0.1,0,0.2l0.4,0.9c0.4-1.9,0.8-4,1.2-5.9c0.1-1.3,0.2-2.5,0.3-3.5v-0.1
		c-0.4,1.5-0.7,3.4-1.1,5.2C296.2,246.2,296,247.3,295.7,248.3z"/>
	<polygon fill="#009B3A" points="292.3,246.3 294.4,248.7 294.1,247.6 292.8,246 290.4,242.9 291.3,244.7 291.7,245.6 292.5,247.2 
		293.3,248.7 293.9,249.2 	"/>
	<path fill="#009B3A" d="M293.2,250.9c-2-0.9-4.3-2.2-6.2-3.2c1.7,1.2,3.9,2.8,6.1,4.5c0.6,0.2,1.2,0.4,1.8,0.6L293.2,250.9z"/>
	<path fill="#009B3A" d="M296.1,249.4l0.8,1.8c0.1-0.4,0.1-0.8,0.2-1.3c0.2-2.9,0.4-5.8,0.6-8.1v-0.1c-0.1,0.6-0.3,1.2-0.4,1.8
		C296.9,245.4,296.5,247.6,296.1,249.4z"/>
	<path fill="#009B3A" d="M293,242.7L293,242.7l0,0.1l0.3,1.4l0.8,3.4l0.2,1.1l0.5,0.6l-0.3-0.6l2,2.3l0.3,0.2c0,0,0,0,0,0l-0.8-1.8
		l-0.4-0.9l-0.5-1.2l-0.2-0.4l-0.3-0.7L293,242.7z"/>
	<polygon fill="#009B3A" points="297.7,242.9 297.7,242.9 297.7,242.9 	"/>
	<path fill="#009B3A" d="M294.2,253.9c0.4,0.2,0.7,0.4,1.1,0.7c0.1,0,0.2,0,0.3,0.1C295.1,254.4,294.6,254.1,294.2,253.9z"/>
	<path fill="#009B3A" d="M295.2,253.1l-0.3-0.3c-0.6-0.2-1.2-0.3-1.8-0.6c-1.8-0.6-3.6-1.3-5.2-1.9c0.7,0.4,1.4,0.8,2.2,1.2
		C291.7,252,293.5,252.6,295.2,253.1z"/>
	<path fill="#009B3A" d="M296.9,251.2C296.9,251.2,296.9,251.2,296.9,251.2l0.7,0.5c0.2-1.7,0.2-3.7,0.3-5.6c0-1.2-0.1-2.2-0.1-3.2
		c-0.3,2.1-0.4,4.7-0.7,7C297,250.3,296.9,250.8,296.9,251.2z"/>
	<polygon fill="#009B3A" points="295.5,252.1 293.9,249.2 293.3,248.7 290,246.5 290.4,247 291.6,248.3 294.1,251.1 	"/>
	<path fill="#009B3A" d="M296.6,251l0.9,1.1c0-0.1,0-0.3,0-0.4l-0.7-0.5L296.6,251z"/>
	<path fill="#009B3A" d="M295.9,254.7l-1.6-1.3l2,1l-1.1-1.3c-1.6-0.4-3.5-1-5.1-1.6c-0.5-0.2-1.1-0.3-1.6-0.5
		c1.6,0.8,3.6,1.8,5.7,2.9c0.5,0.2,0.9,0.5,1.3,0.7C295.6,254.6,295.8,254.7,295.9,254.7z"/>
	<path fill="#009B3A" d="M297.5,252.1l1,1.1c0.1-0.9,0.1-1.9,0.1-2.9c-0.2-2.5-0.4-5-0.6-7c-0.1,0.9-0.1,1.8-0.2,2.8
		c-0.1,1.9-0.1,3.8-0.3,5.6C297.5,251.8,297.5,251.9,297.5,252.1z"/>
	<polygon fill="#009B3A" points="294.9,249.3 294.4,248.7 292.3,246.3 293.9,249.2 295.5,252.1 297,253.1 	"/>
	<path fill="#009B3A" d="M295.9,254.7c-0.1,0-0.2-0.1-0.4-0.1c-0.1,0-0.2,0-0.3-0.1c-1.9-0.5-4-1.1-5.8-1.5c1.5,0.6,3.4,1.4,5.3,2.3
		l2.6,0.5L295.9,254.7z"/>
	<path fill="#009B3A" d="M298.5,253.2l0.9,1c0-2-0.3-4.3-0.4-6.4c-0.1-1.1-0.2-2.1-0.4-3.1h0c-0.1,1.7,0,3.6,0,5.5
		C298.5,251.3,298.5,252.3,298.5,253.2z"/>
	<polygon fill="#009B3A" points="295.2,253.1 296.3,254.4 298.1,255.3 297.2,254.4 297.9,254.8 297,253.1 295.5,252.1 294.1,251.1 
		292.3,249.8 292.5,250 293.2,250.9 294.9,252.7 	"/>
	<path fill="#009B3A" d="M298.3,257.9l-0.7-0.4l-2.4-1.2c-1.7-0.2-3.4-0.6-4.9-0.7c1.9,0.6,4.5,1.4,6.9,2.3
		C297.6,257.9,297.9,257.9,298.3,257.9z"/>
	<path fill="#009B3A" d="M300.6,255.7c0-0.3-0.1-0.5-0.1-0.8c-0.6-2.9-1.1-6.1-1.6-8.5c0,0.5,0,1,0.1,1.5c0.1,2.1,0.3,4.4,0.4,6.4
		L300.6,255.7z"/>
	<path fill="#009B3A" d="M296.6,251l-2-2.3l0.3,0.6l2.1,3.8l0.9,1.7l2.8,1.7c0-0.2,0-0.5-0.1-0.8l-1.2-1.5l-0.9-1l-1-1.1L296.6,251z
		"/>
	<path fill="#009B3A" d="M299.3,247.4v0.1c0.1,0.6,0.2,1.2,0.3,1.9c0.2,0.4,0.4,0.8,0.6,1.2C299.9,249.4,299.6,248.3,299.3,247.4z"
		/>
	<path fill="#009B3A" d="M299.4,259l-2.3-1.1c-1.8,0-3.8-0.1-5.4-0.1c1.7,0.3,3.9,0.7,6.1,1.2C298.4,259,298.9,259,299.4,259z"/>
	<path fill="#009B3A" d="M299.1,258.4l-0.8-0.5c-0.4,0-0.7,0-1.1,0c0,0,0,0-0.1,0L299.1,258.4z"/>
	<path fill="#009B3A" d="M300.6,255.7c0,0.3,0.1,0.5,0.1,0.8l0.4,0.3l0.1,0c-0.2-1.6-0.5-3.3-0.7-4.9c-0.3-0.8-0.6-1.6-0.8-2.3
		c0.3,1.7,0.6,3.6,0.9,5.4C300.5,255.2,300.6,255.4,300.6,255.7z"/>
	<polygon fill="#009B3A" points="295.4,256.3 299.1,257.3 297.4,256 294.8,255.4 292.3,254.9 295.2,256.3 297.6,257.5 	"/>
	<path fill="#009B3A" d="M301.2,256.8C301.2,256.7,301.2,256.7,301.2,256.8L301.2,256.8L301.2,256.8L301.2,256.8z"/>
	<path fill="#009B3A" d="M300.8,251.4c0-0.1-0.1-0.2-0.1-0.2c-0.1-0.2-0.2-0.3-0.3-0.5l0.1,0c0.1,0.2,0.1,0.3,0.2,0.5c0,0,0,0,0,0.1
		c-0.3-1-0.5-1.9-0.7-2.7c0.1,0.6,0.2,1.3,0.3,2.1c0.2,0.4,0.4,0.7,0.6,1.1C300.8,251.7,300.8,251.5,300.8,251.4z"/>
	<path fill="#009B3A" d="M300.6,259.6l-1.2-0.6c-0.5,0-1,0-1.6,0c-1.9,0-3.8-0.1-5.5-0.1c1,0.2,2.3,0.4,3.6,0.7H300.6z"/>
	<path fill="#009B3A" d="M302.5,257.4c-0.1-0.3-0.2-0.6-0.3-0.9c-0.5-1.5-1.2-3.2-1.8-4.7c0.3,1.6,0.6,3.3,0.7,4.9c0,0,0,0,0,0
		L302.5,257.4z"/>
	<polygon fill="#009B3A" points="300.7,257.7 298.1,255.3 296.3,254.4 294.3,253.4 295.9,254.7 297.4,256 299.1,257.3 	"/>
	<path fill="#009B3A" d="M301.2,256.8L301.2,256.8l1.4,0.8c0-0.1,0-0.1-0.1-0.2l0,0L301.2,256.8z"/>
	<polygon fill="#009B3A" points="298,260.2 298,260.2 298,260.2 	"/>
	<polygon fill="#009B3A" points="299.5,249.2 299.5,249.2 299.5,249.2 	"/>
	<path fill="#009B3A" d="M294.2,260.9c1.4,0,3.2,0,5.1-0.1l-1.7-0.5C296.4,260.5,295.2,260.7,294.2,260.9z"/>
	<path fill="#009B3A" d="M302.2,256.5c0.1,0.3,0.2,0.6,0.3,0.9c0,0.1,0,0.1,0.1,0.2l0.7,0.4c-0.7-2-1.6-4.1-2.3-6
		c0-0.1-0.1-0.2-0.1-0.2c-0.2-0.4-0.4-0.8-0.6-1.1c0,0,0-0.1-0.1-0.1c-0.2-0.4-0.4-0.8-0.6-1.2c0-0.1-0.1-0.1-0.1-0.2
		c0,0.1,0.1,0.2,0.1,0.3c0.3,0.7,0.5,1.5,0.8,2.3C301,253.4,301.7,255,302.2,256.5z"/>
	<polygon fill="#009B3A" points="300.1,258.1 301.6,258.6 300.7,257.7 299.1,257.3 295.4,256.3 297.6,257.5 298.3,257.9 
		299.1,258.4 301.4,258.9 	"/>
	<path fill="#009B3A" d="M302.8,261.9l-2-0.6c-1.8,0.4-3.9,0.8-5.5,1.2c1.2-0.1,2.8-0.2,4.4-0.2l-0.5-0.1L302.8,261.9z"/>
	<path fill="#009B3A" d="M300.4,250.7c0.1,0.2,0.2,0.3,0.3,0.5c-0.1-0.2-0.1-0.3-0.2-0.5L300.4,250.7z"/>
	<path fill="#009B3A" d="M300.8,251.4c0.1,0.2,0.1,0.4,0.2,0.6c0.7,1.9,1.6,4,2.3,6l1.6,0.9c-0.2-0.5-0.4-1-0.7-1.5
		c-1.2-2.2-2.4-4.4-3.5-6.2c0,0,0,0,0-0.1C300.7,251.3,300.7,251.3,300.8,251.4z"/>
	<path fill="#009B3A" d="M297.9,254.8l-0.7-0.4l0.9,0.9l2.6,2.5l0.9,0.9l3,1h0.5c-0.1-0.2-0.2-0.4-0.3-0.6l-1.6-0.9l-0.7-0.4
		l-1.4-0.8l-0.1,0l-0.4-0.3L297.9,254.8z"/>
	<path fill="#009B3A" d="M301.5,262.6c-1.5,0.5-3,1-4.3,1.5c1.8-0.4,4.1-0.8,6.5-1.1l-0.2,0L301.5,262.6z"/>
	<path fill="#009B3A" d="M304.8,259c0.1,0.2,0.2,0.4,0.3,0.6h0.2l0.3,0.3l1.1,0.3c-1.4-2.1-3-4.4-4.3-6.2c0.4,0.4,0.8,1,1.3,1.5
		c-1-1.4-1.9-2.8-2.6-3.9c0.8,1.8,2,3.9,3,6C304.4,258,304.6,258.5,304.8,259z"/>
	<polygon fill="#009B3A" points="313.6,213.7 319.3,212.8 316.8,212.8 313.5,213.7 	"/>
	<polygon fill="#009B3A" points="312.3,213.1 314.4,212.9 314.2,212.9 313.2,212.9 312.9,212.9 	"/>
	<polygon fill="#009B3A" points="303.6,261.8 299.3,260.5 298,260.2 298,260.2 297.2,260.2 297.6,260.3 299.3,260.8 300.8,261.3 
		302.8,261.9 	"/>
	<path fill="#009B3A" d="M313.6,211.2l-1.5,0.7c0,0.1-0.1,0.1-0.1,0.2L313.6,211.2z"/>
	<path fill="#009B3A" d="M311,212.5l-0.2,0.1c0,0.1-0.1,0.2-0.1,0.2C310.8,212.7,310.9,212.6,311,212.5z"/>
	<path fill="#009B3A" d="M316.2,215.4c-0.8-0.4-1.8-0.8-2.7-1.2l-1,0.1C313.8,214.7,315.1,215.1,316.2,215.4z"/>
	<path fill="#009B3A" d="M311.5,212.9l0.4-0.1c0.4-0.3,0.9-0.6,1.4-0.9c1.1-0.6,2.2-1.3,3.1-1.9l-2.5,1.2
		C313.2,211.6,312.4,212.2,311.5,212.9z"/>
	<path fill="#009B3A" d="M309.2,213.4l0.1-0.1L309.2,213.4C309.1,213.4,309.2,213.4,309.2,213.4z"/>
	<polygon fill="#009B3A" points="312.3,213.1 312.1,213.2 314.1,213 312.5,213.7 313.5,213.7 316.8,212.8 318.8,212.3 314.4,212.9 	
		"/>
	<polygon fill="#009B3A" points="316.5,215.9 316.5,215.9 316.5,215.9 	"/>
	<path fill="#009B3A" d="M308.4,215c-0.1,0.1-0.1,0.1-0.2,0.2c0.4,0,0.9,0,1.4,0c0.1,0,0.2,0,0.2,0L308.4,215z"/>
	<path fill="#009B3A" d="M311,214.4l-0.2,0c0.3,0.2,0.6,0.5,1,0.7c0.3,0.1,0.7,0.2,1,0.3c1.3,0.1,2.7,0.3,3.8,0.4
		c-1.6-0.4-3.7-0.8-5.3-1.4C311.1,214.5,311,214.5,311,214.4z"/>
	<path fill="#009B3A" d="M310.6,212.9l1.3-0.7c0-0.1,0.1-0.1,0.1-0.2c0.6-0.9,1.3-1.7,1.8-2.5c-0.8,0.8-1.8,1.9-2.9,3
		C310.9,212.6,310.8,212.7,310.6,212.9C310.7,212.8,310.7,212.9,310.6,212.9z"/>
	<path fill="#009B3A" d="M312.5,213.7l-1.8,0.8c0,0,0,0,0.1,0l0.2,0l0.6-0.1l0.9-0.1l1-0.1l3.1-0.4l-3-0.1l-0.1,0L312.5,213.7z"/>
	<path fill="#009B3A" d="M312.6,215.7l2.1,0.4c-0.6-0.2-1.3-0.4-2-0.6c-0.3-0.1-0.7-0.2-1-0.3C312,215.4,312.3,215.5,312.6,215.7z"
		/>
	<path fill="#009B3A" d="M309.3,215l-1-0.4l0.1-0.1h-0.6l-0.5,0.3l0.1,0l0.4,0.1l0.5,0.1l0.1,0l1.4,0.2l0.5,0.1l0.9,0.2
		c-0.5-0.2-1.1-0.4-1.6-0.6L309.3,215z"/>
	<path fill="#009B3A" d="M310.6,212.9c0,0.1-0.1,0.1-0.1,0.2l1-0.3c0.8-0.6,1.7-1.2,2.4-1.8c0,0,0.1-0.1,0.1-0.1l-0.5,0.2l-1.7,0.9
		L310.6,212.9z"/>
	<path fill="#009B3A" d="M308.4,213.7l-0.8,0.8h0.1h0.6l0-0.1c0,0-0.1,0-0.1,0l0.3-0.4l0.3-0.4l0.1,0l0.1-0.1L308.4,213.7z"/>
	<path fill="#009B3A" d="M311.5,212.9l-1,0.3c-0.1,0.1-0.1,0.2-0.2,0.3l1.7-0.2l0.2-0.1l0.5-0.2l2.2-1l-2.8,0.8l-0.3,0.1
		L311.5,212.9z"/>
	<path fill="#009B3A" d="M309.3,213.3l-0.1,0.1l-0.1,0.1l-0.1,0.1l1.3-0.2c0.1-0.1,0.1-0.2,0.2-0.3c0-0.1,0.1-0.1,0.1-0.2
		c0,0,0-0.1,0.1-0.1c0-0.1,0.1-0.2,0.1-0.2c0.6-1,1.3-2.1,1.9-3l-2.8,3.1l0,0L309.3,213.3z"/>
	<path fill="#009B3A" d="M311.7,215.2c-0.3-0.2-0.7-0.5-1-0.7c0,0,0,0-0.1,0l-1,0.4c0.5,0.2,1,0.4,1.6,0.6c0.8,0.3,1.6,0.7,2.3,1
		c0.3,0.1,0.7,0.3,1,0.4c-0.1-0.1-0.2-0.1-0.3-0.2c-0.5-0.3-1-0.6-1.5-1C312.3,215.5,312,215.4,311.7,215.2z"/>
	<path fill="#009B3A" d="M308.6,214l-0.3,0.4c0,0,0.1,0,0.1,0L308.6,214z"/>
	<polygon fill="#009B3A" points="305,259.7 305.6,259.9 305.3,259.6 305.1,259.6 304.6,259.6 	"/>
	<polygon fill="#009B3A" points="299.3,260.5 298.8,260.4 301.1,260.5 300.6,260.3 302.2,260.6 302.6,260.6 300.6,259.6 
		295.9,259.6 295.5,259.6 298,260.2 298,260.2 	"/>
	<polygon fill="#009B3A" points="308.6,214 308.4,214.4 308.4,214.5 308.3,214.6 309.3,215 309.6,214.9 310.7,214.4 312.5,213.7 
		314.1,213 312.1,213.2 310.4,213.4 309,213.6 308.9,213.6 	"/>
	<polygon fill="#009B3A" points="300.6,259.6 302.6,260.6 304.4,260.7 304.3,260.6 303.7,260.3 303.9,260.3 301.4,258.9 
		299.1,258.4 297.1,257.9 297.1,257.9 297.1,257.9 299.4,259 	"/>
	<path fill="#009B3A" d="M305,259.7l1.9,0.6c0-0.1-0.1-0.2-0.1-0.2l-1.1-0.3L305,259.7z"/>
	<polygon fill="#009B3A" points="301.1,260.5 298.8,260.4 299.3,260.5 303.6,261.8 304.3,261.8 	"/>
	<polygon fill="#009B3A" points="305,261 304.4,260.7 302.6,260.6 302.2,260.6 	"/>
	<path fill="#009B3A" d="M305.3,264.1c-1.7,0.8-3.6,1.6-5.1,2.4c1.8-0.5,4.3-1.2,6.7-1.8c0.2-0.2,0.5-0.3,0.7-0.5L305.3,264.1z"/>
	<path fill="#009B3A" d="M306.8,260.1c0,0.1,0.1,0.2,0.1,0.2l1.7,0.6c-0.2-0.3-0.5-0.6-0.7-0.9c-1.4-1.6-2.9-3.2-4.1-4.6
		c-0.5-0.5-0.9-1-1.3-1.5C303.7,255.8,305.4,258,306.8,260.1z"/>
	<path fill="#009B3A" d="M305,259.7l-0.4-0.1l-3-1l-1.5-0.5l1.3,0.8l2.4,1.4l4.4,1.1l0.7-0.1l0,0h0.1l-0.1,0l0.2,0.1
		c-0.2-0.2-0.3-0.4-0.5-0.6l-1.7-0.6L305,259.7z"/>
	<polygon fill="#009B3A" points="305,261 305.2,261.1 304.3,260.6 304.4,260.7 	"/>
	<path fill="#009B3A" d="M308.3,265.2c0.7-0.3,1.4-0.5,2.1-0.8l-0.2-0.1l-2.5-0.2c-0.2,0.2-0.5,0.3-0.7,0.5c-1.5,1-3.2,1.9-4.5,2.8
		c1.1-0.4,2.4-1,3.8-1.5h-0.7L308.3,265.2z"/>
	<path fill="#009B3A" d="M308.6,260.9c0.2,0.2,0.3,0.4,0.5,0.6l0.3,0.2l0.1,0l0.9,0.2c-0.8-1-1.6-2.1-2.5-3.1
		c-1.7-1.5-3.3-3.1-4.6-4.3c1.3,1.7,3,3.7,4.5,5.5C308.2,260.3,308.4,260.6,308.6,260.9z"/>
	<polygon fill="#009B3A" points="310.1,264.4 304.9,263.2 301.5,263.9 305.3,264.1 307.6,264.3 	"/>
	<polygon fill="#009B3A" points="302.5,262.7 306.4,262.6 304.3,261.8 303.6,261.8 302.8,261.9 299.2,262.2 299.7,262.3 
		301.5,262.6 303.5,262.9 	"/>
	<polygon fill="#009B3A" points="308.9,261.4 308.9,261.4 309,261.4 	"/>
	<polygon fill="#009B3A" points="308.3,261.5 309.5,261.8 309.1,261.5 308.9,261.4 	"/>
	<path fill="#009B3A" d="M310.6,262c0,0-0.1-0.1-0.1-0.1l-0.9-0.2L310.6,262z"/>
	<polygon fill="#009B3A" points="305.2,261.1 305,261 302.2,260.6 300.6,260.3 301.1,260.5 304.3,261.8 306.4,262.6 308.2,262.6 	
		"/>
	<polygon fill="#009B3A" points="310.1,264.4 310.4,264.5 310.7,264.5 311.6,264.3 308.2,262.6 306.4,262.6 302.5,262.7 
		303.5,262.9 303.7,263 304.9,263.2 	"/>
	<path fill="#009B3A" d="M309.2,266c-1.6,0.9-3.4,1.8-4.9,2.6c1.8-0.6,4.3-1.4,6.7-2.2c0.2-0.1,0.4-0.3,0.6-0.4H309.2z"/>
	<path fill="#009B3A" d="M305.7,256c0.1,0.1,0.2,0.2,0.3,0.3C305.9,256.1,305.8,256,305.7,256L305.7,256z"/>
	<path fill="#009B3A" d="M310.5,261.9c0,0,0.1,0.1,0.1,0.1l1.8,0.5c-0.4-0.4-0.7-0.8-1.1-1.2c-1.9-1.8-3.7-3.6-5.3-5
		c0.6,0.8,1.3,1.7,2,2.6C308.9,259.9,309.7,260.9,310.5,261.9z"/>
	<path fill="#009B3A" d="M308.3,261.5l-4.4-1.1l-0.2,0l0.6,0.3l0.9,0.4l3,1.5l3.4,1.7l1.9-0.5c-0.3-0.4-0.7-0.8-1.1-1.3l-1.8-0.5
		l-1-0.3l-0.1,0L308.3,261.5z"/>
	<path fill="#009B3A" d="M306.6,256.5c0.1,0.1,0.2,0.2,0.4,0.3C306.9,256.7,306.8,256.6,306.6,256.5L306.6,256.5z"/>
	<path fill="#009B3A" d="M311.5,266c-0.2,0.1-0.4,0.3-0.6,0.4c-1.4,1.1-3,2.2-4.3,3.2c2-1,4.8-2.4,7.4-3.6H311.5z"/>
	<path fill="#009B3A" d="M312.4,262.5c0.4,0.4,0.7,0.9,1.1,1.3l1.4-0.4v0.1l2,1l-0.5,0.6c0.3-0.1,0.7-0.3,1-0.4
		c-0.2-0.1-0.5-0.3-0.7-0.5c-2.9-2-6.8-5.2-9.6-7.4c1.2,1.4,2.8,2.9,4.3,4.5C311.6,261.7,312,262.1,312.4,262.5z"/>
	<polygon fill="#009B3A" points="316.8,264.5 314.8,263.5 314.8,263.4 313.4,263.8 311.6,264.3 310.7,264.5 308.3,265.2 305.5,266 
		306.2,266 309.2,266 311.5,266 314.1,266 315.5,266 315.7,265.8 316.3,265.1 	"/>
	<polygon fill="#FEDF00" points="331.4,235.9 322.8,235.9 320,227.5 317.2,235.9 308.6,235.9 315.3,241.1 312.4,249.5 320,244.2 
		327.6,249.5 324.7,241.1 	"/>
	<polygon fill="#FEDF00" points="327.6,249.5 327.6,249.5 327.6,249.5 	"/>
</g>
</svg>
