<?xml version="1.0" encoding="utf-8"?>
<!-- Generator: Adobe Illustrator 17.1.0, SVG Export Plug-In . SVG Version: 6.00 Build 0)  -->
<!DOCTYPE svg PUBLIC "-//W3C//DTD SVG 1.1//EN" "http://www.w3.org/Graphics/SVG/1.1/DTD/svg11.dtd">
<svg version="1.1" id="flag-icon-css-ro" xmlns="http://www.w3.org/2000/svg" xmlns:xlink="http://www.w3.org/1999/xlink" x="0px"
	 y="0px" viewBox="0 0 640 480" enable-background="new 0 0 640 480" xml:space="preserve">
<g>
	<path fill="none" d="M0,225.7c-0.9,0.8-0.9,1.9,0,3.6V225.7z"/>
	<path fill="#00319C" d="M0.7,230.5c0.8,1.4,2.1,3.8,2.8,5.3c0.8,1.6,1.5,3.2,1.8,3.7c0.3,0.5,1.8,1.4,3.5,1.9
		c2.2,0.8,3.4,1.6,4.1,2.9c0.9,1.5,1.6,1.9,4.1,2.2c2.5,0.3,3.4,0.8,5.6,3.1c2.1,2.3,2.7,3.4,3.1,6c0.6,4.2,2.4,6.7,4.7,6.1
		c0.9-0.2,2.1-0.9,2.7-1.6c0.9-1.1,1.2-1.2,1.5-0.4c0.8,1.9-0.2,10.2-1.3,12.2l-1.2,2l2,2.1c2.4,2.4,2.6,4.8,0.7,6.6
		c-1.8,1.6-1.2,2.9,1.6,3.4c1.9,0.4,2.3,0.7,2.3,2.3c0,1.2,0.4,1.9,1.2,2.2c0.6,0.2,2.8,2.1,4.8,4.1c2.2,2.3,4.3,3.9,5.4,4.1
		c1,0.2,1.8,0.7,1.8,1.1c0,0.4,1.1,1.1,2.5,1.5c2.1,0.6,2.8,0.6,4-0.2c1.4-0.9,1.5-0.9,2.1,0.8c0.4,0.9,0.8,2.3,1.1,3.1
		c0.6,2.2,6.6,4.1,12.4,4c1.6,0,2.4,0.3,2.7,0.9c0.3,0.6,1.8,1.7,3.3,2.5c3.9,1.9,4.8,3,3.8,4.6c-0.4,0.8-1.1,1.3-1.5,1.3
		c-0.8,0-2.7,3.3-3.7,6.3c-0.2,0.6-1.4,1.4-2.6,1.8c-2.7,0.9-2.8,1.6-0.5,4.5c1.8,2.4,5.3,4.4,8.8,5.1c2.4,0.6,2.7,2.2,0.7,4.2
		c-1.1,1.1-1.9,1.3-6.3,1.1c-6.4-0.3-7.1,0.4-5,4.8c1.6,3.3,3.1,4.1,8.1,4.1c1.9,0,4.2,0.2,4.9,0.4c2,0.6,3.9,4,3.9,7.1v2.6l6.4-0.1
		c7.9-0.1,19.8,2.1,19.8,3.8c0,0.6,0.4,1.8,1,2.9c0.6,1,1.4,3,1.8,4.4c0.4,1.5,1.6,3.2,3,4.3c3.6,3,4.7,2.3,9.2-6.1
		c4.4-8.4,6.4-11,8.4-11c0.8,0,1.9-0.4,2.6-0.9c2.6-1.9,5.3-1.2,9.8,2.8c3.3,2.8,4.9,3.8,6.9,4.1c1.8,0.3,3.5,1.2,5.3,2.8
		c2.6,2.3,2.7,2.4,1.6,3.8c-0.6,0.8-1.7,1.8-2.6,2.1c-1.3,0.4-1.9,0.3-3.4-1c-2.1-1.8-2.3-1.8-4.5-0.9c-1.3,0.4-1.6,1.1-1.6,2.4
		c0,2.3-1.4,3.2-4.7,3.2c-2,0-2.3,0.2-1.9,1.1c0.7,1.7,1.4,3.9,2.2,6.9c0.7,2.6,3.9,7,5.1,7c0.3,0,2,0.6,3.7,1.4l3.2,1.3l-0.3,3.1
		l-0.2,3.1l2.9,1c1.6,0.6,3.6,1.6,4.4,2.3c3.4,3.2,11,7.4,14.3,8.1c3.2,0.7,3.4,0.9,3.6,2.6c0.2,1.6-0.1,2-3.1,3.5
		c-1.8,0.9-3.8,1.8-4.4,2c-0.6,0.2-1.8,1.4-2.7,2.8c-1.4,2-1.7,3.3-1.8,6.7c-0.1,4.8-0.6,4.3,6.8,7.4c3.3,1.4,4.4,1.6,7.8,1.3
		c2.2-0.2,6.1-1.1,8.6-1.9c4.1-1.4,5.3-1.6,11.9-1.3c1.3,0.1,2.5,0.1,3.4,0.2v-378c-2.6-1-5.2-2.5-5.2-3.5c0-0.8-0.5-1.1-1.8-1.1
		c-1.3,0-1.9-0.4-2.4-1.8c-0.6-1.4-1.4-2-4.5-3.1c-4.8-1.6-5.8-1-7.3,4.4c-1,3.7-1.3,4-4,5.3l-2.9,1.4l-2.3-1.5
		c-1.3-0.9-2.5-1.6-2.6-1.6c-0.2,0-0.5,1-0.8,2.2c-0.2,1.2-0.6,2.2-0.9,2.2s-2.1,1.4-3.9,3.1s-4,3.4-4.7,3.8
		c-0.9,0.5-1.3,1.3-1.3,2.8c0,1.9-0.2,2.2-2.2,2.6c-1.5,0.3-2.4,0.9-2.9,2c-0.7,1.4-1.5,1.8-4.9,2.4c-3.7,0.6-4.3,0.6-6.6-0.6
		c-3.4-1.6-5.6-1.1-6.2,1.4c-0.4,1.7-0.6,1.9-3.9,2.1c-5.4,0.4-7.9,1.3-8.2,2.6c-0.1,0.7-0.9,2.1-1.8,3.3c-1,1.3-1.7,3.1-1.9,5.1
		l-0.3,3.1H127c-2.3,0-2.9,0.3-4.1,1.8c-0.8,1.1-2.2,2.2-3.1,2.6c-2.8,1.1-3.4,4.5-1.9,8.9l1.2,3.4l-2.1,1.6
		c-1.2,0.9-2.8,1.6-3.6,1.6s-1.8,0.3-2.1,0.5c-1.3,0.9-4.8,9-5.1,11.8c-0.2,1.8-0.8,3.3-1.7,4.2c-0.8,0.8-1.8,2.8-2.2,4.6
		c-0.7,2.6-1.2,3.3-2.3,3.6c-0.8,0.2-2.7,1.6-4.1,3.1c-2.1,2.1-2.6,3.1-2.2,4c0.3,0.7,0.3,2.2,0.1,3.4c-0.3,1.7-0.8,2.4-2.4,3.1
		c-2,1-2.1,1.1-1.8,3.8c0.4,2.7,0.3,2.8-2.7,5.3c-2.1,1.8-3.4,3.5-4.1,5.6c-1.1,3-1.1,3,0.3,4.1l1.4,1.1l-1.3,1.7
		c-0.8,1-2.3,1.9-3.9,2.3c-2.4,0.6-2.6,0.8-1.6,1.5c0.9,0.8,0.9,1.1-0.9,2.9c-1.9,1.9-2.1,2-3.1,1.1c-0.8-0.8-1.4-0.8-2.3-0.3
		c-1.3,0.7-2.4,3.9-1.7,5c0.2,0.4-0.5,2.3-1.5,4.4l-1.9,3.8l1.6,1.3c1.4,1.1,1.6,1.5,1.1,3c-0.4,1.2-1.1,1.8-2.5,2.1
		c-1.1,0.2-2.8,1-3.8,1.7c-1.7,1.3-1.8,1.5-1.4,4c0.6,3.4-0.7,5.4-3.6,5.5c-1.6,0-2.1,0.3-2.1,1.3c0,1.8-2.8,3.5-4.6,2.6
		c-1.6-0.8-5.4-1.4-8.3-1.4c-1,0-2.4-0.3-3.1-0.8c-0.7-0.4-1.9-1-2.8-1.2c-2.2-0.5-5,2-5,4.4c0,2-1.9,4.4-6,7.7l-2.2,1.8l-3.3-2.1
		c-4.9-3.1-5.8-3.1-7.3-0.6c-1.4,2.4-1.9,2.5-5.8,1.2c-2.4-0.8-3.1-0.9-5.3-0.1c-0.9,0.3-1.5,0.6-1.9,1v3.6
		C0.2,229.7,0.4,230.1,0.7,230.5z"/>
	<path fill="#FFDE00" d="M221.1,436.8c3.1,1.3,4.9,1.7,8.4,1.7c3.9,0,5.3,0.3,9.2,2.2c3.7,1.8,5.3,2.2,8.5,2.2c4.2,0,7.1,0.9,10,3.3
		c1.6,1.3,2.6,1.4,8.6,1.7c8.4,0.3,13.7-0.7,17.1-3.1c2.3-1.6,3.1-1.8,7-1.8c3.6,0,5.1,0.3,7.8,1.7c4.4,2.3,8.1,2.8,12.3,1.7
		c5.1-1.3,8.9-1.1,12.5,0.7c2.8,1.4,3.6,1.5,8.4,1.1l5.3-0.4l4.3,3.1c2.3,1.7,4.6,3.3,5,3.5c0.9,0.6,13.7-2.7,17.9-4.5
		c1.7-0.8,3.6-1.3,4.3-1.3c1.6,0,5-2.6,11.8-9.1c2.9-2.8,6.9-6.3,8.9-7.7c1.9-1.4,4.4-3.8,5.4-5.3c1.6-2.3,2.4-2.9,5.8-3.8
		c2.1-0.6,6.1-2.2,8.9-3.6c3.9-1.9,5.9-2.5,8.3-2.5c1.8,0,4.8-0.6,6.8-1.3c0.9-0.3,2-0.6,3-0.8V36.2c-1,0.3-2.2,0.6-3.3,0.6
		c-1.8,0-3.5,0.5-4.7,1.3c-1,0.7-2.9,1.3-4.1,1.3c-3.4,0-5,1.4-5,4.4c0,2.6-1.5,5.3-6.1,11c-1.9,2.4-2.4,2.7-4.8,2.7
		c-1.4,0-5.1,0.4-8.1,1c-3.1,0.5-5.9,0.8-6.5,0.6c-0.5-0.2-1.6,0.1-2.4,0.6c-0.8,0.5-1.8,0.8-2.3,0.6c-0.5-0.2-2.6,0.5-4.6,1.5
		l-3.6,1.9l-5-1c-4.6-0.9-5.8-0.9-14.5,0.1c-13,1.4-13.9,1.8-18.7,10l-3.8,6.3l-4.3,1.5c-2.9,0.9-5.8,1.4-8.8,1.4h-4.4l-1.1-3.6
		c-0.9-3.3-1.4-3.8-3.4-4.7c-1.3-0.5-3.2-1.1-4.3-1.4c-2.5-0.6-4.7-2.7-4.7-4.5c0-1.5-2.2-3.8-5.7-5.9c-1-0.6-3.3-1.1-5.7-1.2
		c-3.5-0.2-4.3,0-6.1,1.4c-1.8,1.4-2.4,1.5-4.1,1.1c-1.6-0.4-2.7-0.3-5.4,0.9c-2.7,1.2-3.6,1.4-4.6,0.8c-0.6-0.4-1.9-0.6-2.9-0.5
		c-0.9,0.1-2.6-0.5-4.1-1.4c-3.2-2.1-6.6-2.6-11.4-1.4c-4.2,1-5.8,0.7-6.6-1.2c-0.2-0.5-1.1-1.3-2.1-1.6c-2.1-0.9-18.6-1.3-21.2-0.6
		c-1.1,0.3-3.1-0.2-5.1-1v378C216.9,435.3,218.5,435.7,221.1,436.8z"/>
	<path fill="#DE2110" d="M430.1,414.1c5.1,0,10.3-1.3,15.8-3.9c4.9-2.4,5.9-2.6,11.6-2.9c4.6-0.2,7.4,0,10.5,0.8
		c2.3,0.6,4.8,0.9,5.6,0.7c1.4-0.4,1.6-0.2,1.9,1.8c0.4,1.8,0.8,2.3,2.7,2.9c1.2,0.4,3.3,1.7,4.6,2.9c2.1,1.9,2.8,2.2,4.6,1.9
		c1.2-0.2,3.7,0.1,5.5,0.6c3,0.8,3.5,0.8,5.3-0.2c2.6-1.4,5.2-0.4,5.2,1.9c0,2.6,1.8,3.6,6.3,3.6c3.8,0,4.3-0.2,5.9-1.9
		c3.1-3.2,3.9-2.5,7,5.4l2.8,6.9l4.2,1.9c2.3,1.1,7.8,3.1,12.3,4.5c6.9,2.2,9.1,2.6,15.5,2.9l7.4,0.4v-3.9c0-4,0.8-7,3.9-14.8
		c1.9-5,2.1-6.8,0.9-9.8c-0.5-1.1-1.1-3.8-1.3-5.9c-0.4-3.4-0.3-4.1,0.9-5.2c1.6-1.6,1.6-2.3,0-4.7c-0.9-1.3-1.3-2.9-1.3-5.5
		c0-3.8-0.2-3.5,4.6-7.8c1.9-1.8,11-14.1,12.5-17c0.8-1.6,2.4-4.1,3.5-5.6c1.1-1.6,2.6-3.8,3.3-5.1c1.8-3.6,7.3-8.6,11.8-10.6
		c3.1-1.5,5.3-2,10.6-2.4c3.6-0.4,7.8-0.9,9.1-1.3c1.4-0.3,3.5-0.6,4.7-0.6c3,0,6.3-2.1,6.3-4c0-0.8,0.4-1.8,0.9-2.2
		c0.6-0.4,1.1-2.5,1.3-4.9c0.9-10,1.8-15.6,2.6-17c0.8-1.3,0.8-1.6,0.1-2c-0.5-0.3-1.2-0.6-1.6-0.6c-0.4,0-0.9-0.5-1.1-1.1
		c-0.1-0.6-0.5-1.6-0.8-2.3c-0.4-1-0.3-1.1,0.9-0.9c1.2,0.3,1.4,0.1,1.4-1.7c0-7.8-2.9-12.6-8.6-14.4c-2-0.6-4.4-1.5-5.4-2
		c-2.8-1.4-8.6-2.1-10.1-1.1c-0.7,0.4-2.5,1.1-4.1,1.5c-1.6,0.4-3.5,1.3-4.4,1.9c-2.1,1.5-5.4,2.8-8.3,3.4c-1.4,0.3-3.7,1.6-6,3.5
		l-3.6,3.1l-2.1-1.8c-2.5-2.1-5.6-2.5-5.6-0.7c0,0.6-0.6,1.6-1.4,2.1c-1.1,0.7-1.4,1.4-1.3,3.1c0.1,1.8-0.1,2.3-1.4,2.9
		c-1.4,0.6-3.2,0.2-13.9-3.6c-6.8-2.4-12.9-4.9-13.7-5.6c-0.8-0.8-1.9-2.9-2.4-4.9c-1.8-5.8-2.6-7-4.6-7c-2.7,0-5.1-2.2-5.1-4.7
		c0-2.1-1.3-4.1-2.7-4.1c-0.4-0.1-1.4-1-2.1-2.2l-1.4-2.2l1.4-0.8c0.8-0.4,2.1-0.7,3.1-0.6c1.5,0.1,1.7-0.1,1.7-1.6
		c0-1,0.3-2.7,0.7-3.8c0.6-1.7,0.5-2.2-0.6-3.6c-2.3-2.9-3.5-8-3-12.8c0.3-3.4,0.1-5.1-0.9-8.1c-0.7-2.1-1.4-5.3-1.6-6.9
		c-0.4-2.7-0.2-3.4,1.1-5.1c1.1-1.5,1.6-3.1,1.9-6c0.2-2.1,0.1-3.9-0.3-3.9s-0.6-1.4-0.6-3.1c0-2.9,0.2-3.3,2.7-5.5
		c2.3-2,2.9-3,3.5-5.9c0.4-1.9,1.2-3.9,1.7-4.3c1.3-1.1,1.2-7.7-0.1-8.8c-0.8-0.6-0.9-1.6-0.6-4.6c0.3-2.1,0.7-4.1,1-4.6
		c0.3-0.4,0.4-2.4,0.1-4.6c-0.3-2.9-0.8-4.3-2.2-5.9c-1.4-1.5-1.8-2.7-1.8-4.6c0-2.2-0.2-2.6-1.9-3.1c-1.1-0.4-1.9-1.2-2.1-2.1
		c-1.3-6-1.6-8.1-1.9-11.1c-0.3-1.9-0.8-4.1-1.3-4.8c-0.5-0.8-0.9-1.8-0.9-2.3c0-0.9-3.4-2.3-5.8-2.3c-0.7,0-1.1-0.5-1.1-1.3
		c0-1-0.4-1.3-2.1-1.3c-1.9,0-2.2-0.3-2.6-1.8c-0.3-1.1-0.9-1.9-1.7-2.1c-0.7-0.2-1.1-0.6-0.9-0.9s-0.8-1.1-2.1-1.7
		c-2.4-1.1-2.5-1.3-2.5-4.1c0-2.3-0.3-3.2-1.6-4.4c-0.9-0.8-1.6-1.8-1.6-2.3c0-1.9-1.4-3.9-2.6-3.6c-0.6,0.2-1.2,0-1.2-0.4
		c0-0.4-0.7-0.7-1.6-0.7c-1,0-1.6-0.4-1.6-0.9c0-0.5-0.3-0.9-0.6-0.9c-0.4,0-1.4-0.7-2.3-1.6c-0.8-0.8-2.1-1.9-2.8-2.3l-1.3-0.7
		l1.4-1.5c1.1-1.3,1.3-1.7,0.6-2.1c-0.6-0.4-0.6-0.8-0.1-1.8c0.9-1.8,0.9-2.6-0.2-2.6c-0.5,0-1.1-0.4-1.3-1
		c-0.3-0.8-0.9-0.9-2.8-0.6c-2.1,0.3-2.5,0.3-2.8-0.8c-0.3-0.6-0.3-1.6-0.1-2.1c0.2-0.5-0.1-1.3-0.6-1.8c-0.5-0.4-0.9-1.1-0.9-1.5
		c0-0.9-3.3-4-6.6-6.1c-2.3-1.4-2.9-2.3-3.8-5.3c-0.7-2.4-0.8-3.8-0.4-3.9c0.8-0.3-0.2-3.1-1.8-4.8c-0.6-0.7-1.4-2.6-1.9-4.4
		c-0.4-1.7-1.1-3.3-1.6-3.6c-0.4-0.3-1-1.3-1.3-2.3c-0.3-1.1-0.8-1.9-1.3-1.9c-0.6,0-0.8-0.3-0.5-0.8c0.3-0.4,0.6-2.1,0.6-3.8
		c0.1-2.3-0.1-3-0.8-3c-0.5,0-0.9-0.4-0.9-0.8c0-0.4-0.9-1.2-1.9-1.7c-2.3-1.1-3.3-2.8-4.6-7.7c-0.8-3.1-1.2-3.6-2.5-3.6
		c-1.6,0-4.7-2.8-4.7-4.3c0-0.5-0.6-0.8-1.4-0.6c-1,0.1-1.6-0.3-2-1.1c-0.4-0.8-1.8-1.9-3.3-2.6c-3.1-1.5-12.4-2.6-13-1.4
		c-0.3,0.4-1,0.7-1.6,0.7c-0.7,0-2.1,0.6-3.3,1.3c-0.4,0.3-1,0.5-1.6,0.7v378.3C428,414.3,429.3,414.1,430.1,414.1z"/>
</g>
</svg>
