<?xml version="1.0" encoding="utf-8"?>
<!-- Generator: Adobe Illustrator 17.1.0, SVG Export Plug-In . SVG Version: 6.00 Build 0)  -->
<!DOCTYPE svg PUBLIC "-//W3C//DTD SVG 1.1//EN" "http://www.w3.org/Graphics/SVG/1.1/DTD/svg11.dtd">
<svg version="1.1" id="flag-icon-css-rw" xmlns="http://www.w3.org/2000/svg" xmlns:xlink="http://www.w3.org/1999/xlink" x="0px"
	 y="0px" viewBox="0 0 640 480" enable-background="new 0 0 640 480" xml:space="preserve">
<g>
	<path fill="#20603D" d="M231.6,445.4c-0.5,0.5,0.9,3,2.8,4.8c1.5,1.4,1.9,1.5,3.2,1c1.8-0.6,2.9-0.4,2.9,0.7c0,0.4,0.4,0.9,0.9,1
		c2.5,0.9,2.6-2.4,0.2-4.6c-2-1.9-2.7-2-2.7-0.5c0,1.8-3,1.5-4.2-0.4C233.2,445.3,232.3,444.6,231.6,445.4z"/>
	<path fill="#20603D" d="M200.4,361.2c1.1,2.2,1.5,2.5,2.9,2.5c0.9,0,1.6,0.1,1.6,0.1c0,0.1,0.4,1.1,0.8,2.3
		c0.7,1.9,0.7,2.2-0.1,2.7c-0.7,0.5-0.3,1,1.9,3.1c2.2,2.1,2.8,3.1,3.6,6.1c1,3.7,2,5,3.9,5.4c1.1,0.2,1.1,0.4,0.4,3.7
		c-0.2,1,0.1,1.7,0.9,2.4c0.7,0.7,1.1,1.7,1.1,2.8c0,2.5,0.8,4.4,2.1,4.8c1.4,0.4,3.7,3.9,4.1,6.1c0.2,1,1.1,2.9,2,4.4
		c0.9,1.4,1.6,3,1.6,3.5c0,0.5,0.4,1.2,0.8,1.6c0.4,0.3,1.4,1.7,2.2,3.1c1,1.7,2.1,2.7,3.8,3.4c1.3,0.5,2.9,1.7,3.5,2.7
		c0.7,0.9,2.3,2.4,3.5,3.3c2.6,1.7,4.1,4.9,5.2,10.4c0.5,2.8,0.7,3.1,1.9,2.8c1.7-0.3,4.1,2.2,4.1,4.3c0,1,0.5,1.8,1.6,2.6
		c2,1.5,3.4,4.7,3,6.7c-0.2,1,0.1,1.7,1.1,2.7c0.8,0.7,1.4,1.7,1.4,2.3c0,1.3,0.1,1.3,3.2-0.3c2.9-1.5,4.4-3.4,4.4-5.5
		c0-1.1,0.3-1.4,1.7-1.4c1.8,0,1.8-0.2,0.2-4.3c-0.9-2.2-0.9-3.3-0.2-9.4l0.7-4.8l2.6-1.9c3.7-2.7,6.7-2.7,10.2,0
		c3.4,2.6,6.3,3.3,9.4,2.5c1.4-0.4,2.8-1,3.3-1.5c0.5-0.5,2.1-0.8,4.4-0.8c3.6,0,7.4,1.4,47.3,17.8l6.1,2.5v14.5
		c0,8,0.2,14.4,0.5,14.2c0.2-0.1,14.8-16.4,32.5-36.3c17.6-19.9,32.2-36.2,32.4-36.2c0.2,0,19.2-4.4,42.1-9.8l41.8-9.9l40.5-14.2
		l35.2-12.3H199.8C200,360.4,200.2,360.7,200.4,361.2z"/>
	<path fill="#20603D" d="M234.6,446c0.4,0.8,1.1,1.6,1.7,1.7c0.8,0.2,0.9-0.2,0.9-1.9c0-2.7-1.1-4.7-2.6-5c-0.7-0.1-1.2,0-1.2,0.2
		s0.4,0.7,0.9,1c0.8,0.6,0.8,0.8,0.2,1.5C234,444.3,234,444.7,234.6,446z"/>
	<path fill="#FAD201" d="M133.2,242c0.4,0,1.7,0.8,2.8,1.8c1.1,1,3.2,2.6,4.6,3.6c1.6,1,2.7,2.3,2.9,3.1c0.2,0.8,0.4,2,0.5,2.6
		c0.1,0.7,1.6,3.1,3.2,5.4c2.2,3.1,3.1,4.9,3.8,7.8c0.5,2.3,1.4,4.4,2.4,5.6c3.4,4.2,4.1,5.2,3.3,5.2c-0.4,0-1.1-0.3-1.5-0.7
		c-0.9-0.8-0.9-0.9,1.8,4.8c1.1,2.4,2.4,4.8,2.9,5.3c0.4,0.5,1,1.9,1.3,3c0.4,1.7,0.3,2.2-0.6,3.2c-1.1,1.2-2.7,7.4-2.7,10.9
		c0,1.3,0.4,2.8,1.1,3.8c0.6,0.9,1.7,3,2.5,4.6c1.5,3.2,1.5,6.6,0.1,9.6c-0.5,1.1-0.2,2.1,2.3,6.8c2.4,4.6,3.3,5.7,4.7,6.4
		c1.5,0.6,1.7,0.9,1.2,1.5c-0.4,0.5-0.3,0.9,0.5,1.5c0.6,0.4,2,2.5,3.2,4.6c1.5,2.7,3,4.6,4.9,6.1c2.5,2,3.1,2.2,5.8,2.2
		c2.8,0,3.2,0.2,5.6,2.4c1.5,1.3,4.1,3.1,6,4c2.1,1.1,3.1,1.7,3.8,2.9h378.1l5.3-1.9l8.6-28.1c4.7-15.5,8.4-28.4,8.2-28.8
		c-1.1-1.9-11.4-18.2-11.8-18.7c-0.3-0.3-0.8-0.2-1.3,0.5c-0.7,1-1.9,0.9-33.1-3.4c-17.8-2.5-33-4.6-33.8-4.7
		c-1.1-0.2-4.6-4.3-14.6-16.8c-10.4-13.1-12.8-16.3-13.2-18.1H128.5C130.4,241,132.5,242,133.2,242z"/>
	<path fill="#00A1DE" d="M489.7,236.3c-1.7-0.9-2.3-0.9-3.2-0.4c-0.7,0.5-1.3,0.5-1.6,0.2c-0.9-0.9,0.1-3.3,2.3-5.8
		c1.8-2,2.1-2.5,1.4-2.8c-0.4-0.2-1.5,0.2-2.3,0.8c-1.5,1.1-1.5,1.1-2.2,0.1c-0.7-0.9-1.1-1-4.1-0.7l-3.4,0.3l-2.1-2.4
		c-1.4-1.6-2.5-2.4-3.5-2.5c-1.1,0-1.6-0.4-2.1-1.9c-0.4-1-0.7-2.4-0.7-3.1c-0.1-0.7-0.8-2-1.7-2.9c-1.8-1.9-2.1-2.6-2.6-7.6
		c-0.4-3.4-0.5-3.6-2.5-4.6c-1.8-1-7.5-6.7-7.5-7.6c0-0.2,0.8,0,1.6,0.5c0.9,0.5,1.6,0.7,1.6,0.5c0-0.2-0.7-1.2-1.6-2.2
		c-0.9-1-1.6-2.3-1.6-3c0-0.6-0.9-2.1-1.9-3.2c-1.4-1.6-1.9-2.6-1.9-4c0-2.4,0.6-2.8,2.3-1.4l1.4,1.1l0.9-1.4
		c0.5-0.8,0.9-2.5,0.9-3.9c0-2.3-0.2-2.8-2.4-4.8c-2.6-2.3-3.4-4.3-2.8-6.6c0.3-1.3,0.4-1.4,1.7-0.5c2.2,1.5,2.1,0.4-0.3-2.2
		c-1.5-1.6-2.3-2.2-3.3-2.4l-4.5,2.3l3.6-2.4c-1,0-2.1-0.4-2.4-0.9c-0.4-0.5-1.9-2.1-3.2-3.7c-1.4-1.5-2.8-3.3-3.2-4
		c-0.5-0.9-1-1.1-1.6-0.9c-2.4,1-2.6,0.9-3.9-1.9c-0.7-1.5-2.1-3.5-3.1-4.4l-1.9-1.6h1.6c2,0,2.4-0.6,1.4-2.1
		c-0.7-1-1.4-1.2-3.8-1.2s-3.1-0.2-3.5-1.1c-0.4-0.8-1.1-1.1-2.5-1.1c-1.5,0-2-0.3-2.4-1.4c-0.7-1.8-0.7-4.2,0-3.8
		c0.3,0.2,0.5,0.9,0.6,1.5c0,1,0.1,1,0.6-0.3c0.7-1.9-0.2-3.3-3.4-6c-3.1-2.5-5.2-6.8-5.7-11.6c-0.6-5.8-0.3-5.7-12-5.7h-10
		l-1.4-1.9c-0.8-1-1.4-2.6-1.4-3.4s-0.9-3-1.9-4.9l-1.9-3.4l-12-1.7c-9.2-1.4-12.2-1.7-13.1-1.2c-0.6,0.3-2.1,0.6-3.2,0.6
		c-2.6,0-43.8-4.3-44.3-4.6C309.7,91,294,78,275,62.2l-34.5-28.6l-8.9-3.9c-7.9-3.5-10.5-5-21.7-12.8c-7-4.8-13.3-9-13.9-9.2
		c-0.6-0.2-7.9-1.7-16.1-3.2c-8.2-1.5-15.3-2.9-15.6-3c-0.3-0.1-1.7,0.9-3,2.2l-2.4,2.4l-25.4,7.4c-14,4.1-25.9,7.6-26.6,7.8
		c-1.2,0.4-0.4,1.5,11.2,14.6c6.8,7.8,12.8,14.6,13.2,15.1c0.6,0.8,0.2,1.2-3.6,3.5c-4.3,2.6-4.3,2.6-6.4,7.3
		c-1.1,2.6-2.3,4.9-2.6,5.2c-0.3,0.3-4.8,1.4-10,2.5s-9.6,2.1-9.7,2.2s-1.7,2.6-3.7,5.5c-2.5,3.7-5,6.6-8.7,9.9l-5.3,4.7l-14.8-2.3
		l-14.8-2.4l-0.8,1.5c-1,1.9-2.9,12.4-3.5,18.9c-0.5,5.4-2.6,11.7-5.2,15.7c-0.9,1.4-0.9,1.5,0.2,3.2l1.1,1.7v-1.4
		c0-2,1.2-2.9,2.6-2.2c1.3,0.7,5.4,0.9,7,0.4c2.5-0.9,10.9,9.2,12.4,14.9c0.8,2.7,1.5,3.9,4.1,6.6c1.8,1.9,3.4,4,3.6,4.8
		c0.7,3.1,1.5,4.6,4.1,6.9c1.7,1.6,2.9,3.1,3.3,4.4c0.3,1.1,1.5,3.2,2.8,4.6c1.3,1.5,3.8,5.7,5.6,9.3c3.2,6.6,3.6,7,7.7,9.5
		c0.9,0.5,1,0.8,0.3,2.6c-1.2,3.2,0.4,6,3.5,6.1c0.9,0,4.9,4.8,6.2,7.5c0.5,1.1,1,2.6,1,3.3c0,0.8,0.9,2.2,2.5,3.7
		c2.4,2.3,2.5,2.5,2.5,5.7c0,4.3-0.4,5.7-1.7,5.7c-1.4,0-1.3,0.3,0.5,2.7c2.6,3.3,6.1,9.1,6.1,10.2c0.1,2.5,3.1,4.3,5.6,3.3
		c0.6-0.3,1.3-0.1,1.9,0.8c0.5,0.6,1.9,1.5,3.5,2.4h363.6c0-0.2-0.1-0.4-0.1-0.5C491.9,237.6,491.6,237.2,489.7,236.3z"/>
	<path fill="#E5BE01" d="M448.4,161.8c-0.3-0.1-0.5-0.1-0.9-0.1c0,0,0,0-0.1,0l-3.6,2.4L448.4,161.8z"/>
</g>
</svg>
