<?xml version="1.0" encoding="utf-8"?>
<!-- Generator: Adobe Illustrator 17.1.0, SVG Export Plug-In . SVG Version: 6.00 Build 0)  -->
<!DOCTYPE svg PUBLIC "-//W3C//DTD SVG 1.1//EN" "http://www.w3.org/Graphics/SVG/1.1/DTD/svg11.dtd">
<svg version="1.1" id="flag-icon-css-sa" xmlns="http://www.w3.org/2000/svg" xmlns:xlink="http://www.w3.org/1999/xlink" x="0px"
	 y="0px" viewBox="0 0 640 480" enable-background="new 0 0 640 480" xml:space="preserve">
<g>
	<path fill="none" d="M355.5,480c0.1,0.6,0.1,1,0.2,0.9c0,0,0.3-0.3,0.9-0.9H355.5z"/>
	<path fill="#199D00" d="M233.7,447.5c-0.5,0.5,0.9,3,2.8,4.8c1.5,1.4,1.9,1.5,3.2,1c1.8-0.6,2.9-0.4,2.9,0.7c0,0.4,0.4,0.9,0.9,1
		c2.5,0.9,2.6-2.4,0.2-4.6c-2-1.9-2.7-2-2.7-0.5c0,1.8-3,1.5-4.2-0.4C235.4,447.4,234.5,446.7,233.7,447.5z"/>
	<path fill="#199D00" d="M457.1,184.1c0.5-0.8,0.9-2.5,0.9-3.9c0-2.1-0.2-2.7-1.8-4.3c0.1,2.8,0.2,6,0.3,9.2L457.1,184.1z"/>
	<path fill="#199D00" d="M236.7,448.1c0.4,0.8,1.1,1.6,1.7,1.7c0.8,0.2,0.9-0.2,0.9-1.9c0-2.7-1.1-4.8-2.6-5c-0.7-0.1-1.2,0-1.2,0.2
		s0.4,0.7,0.9,1c0.8,0.6,0.8,0.8,0.2,1.5C236.1,446.4,236.1,446.8,236.7,448.1z"/>
	<path fill="#199D00" d="M457.9,197.7c0.9,0.5,1.6,0.7,1.6,0.5c0-0.2-0.7-1.2-1.6-2.2c-0.5-0.6-1-1.3-1.3-2c0,1.1,0,2.1,0,3.2
		C457,197.2,457.4,197.4,457.9,197.7z"/>
	<path fill="#199D00" d="M347.3,132.1c-1.7,0.1-4.1-0.6-1.2,2.9c0.9,1.1,1.7,2.3,2.5,3.5c-0.1-0.6-0.3-1.2-0.4-1.8
		C348.1,135.1,347.7,133.6,347.3,132.1z"/>
	<path fill="#199D00" d="M388.2,444.6c17.7-19.9,32.2-36.2,32.4-36.2c0.2,0,19.2-4.4,42.2-9.8l41.9-9.9l40.5-14.3l40.5-14.2
		l8.6-28.1c4.7-15.5,8.4-28.4,8.2-28.8c-1.1-1.9-11.4-18.2-11.8-18.7c-0.3-0.3-0.8-0.2-1.3,0.5c-0.7,1-1.9,0.9-33.2-3.4
		c-17.8-2.5-33.1-4.6-33.8-4.8c-1.1-0.2-4.6-4.3-14.6-16.8c-11.5-14.4-13.2-16.8-13.3-18.7c-0.2-1.9-0.4-2.2-2.3-3.2
		c-1.7-0.9-2.3-0.9-3.2-0.4c-0.7,0.5-1.3,0.5-1.6,0.2c-0.1-0.1-0.1-0.2-0.2-0.3c-5.7,4-12.3,4.6-18.2,5.3c-4.7-0.1-4.7-3.9,1.1-7.3
		c1.8-1.5,7.4-3.4,10-5.3c0.3-0.2,0.6-0.5,0.9-0.8l-2,0.2l-2.1-2.4c-1.4-1.6-2.5-2.4-3.6-2.5c-1.1,0-1.6-0.4-2.1-1.9
		c-0.4-1-0.7-2.4-0.7-3.1c0-0.4-0.3-0.9-0.6-1.5c-2.1,2.6-4.1,4.3-3.9,3.1c0.2-4.7,0.2-9.3,0-13.9c-0.3-1.8-0.7-2.1-2.2-2.9
		c-1.5-0.8-5.8-5.1-7.1-6.9c0.1,9.1-0.1,17.1-1.1,19.8c-1.8,4.4-3.8,6.6-6.8,8.3c-4.5,3-9,2.3-12.8-0.9c-2.3-1.1-4.3-2.9-5.8-5
		c-1.6-1.8-5-2.4-6.3,1.5c-1.9,2.1-2,12.8-6,17.1c-1.7,2.1-4.9,3.8-8.9,0.9c-4.4-2.3-6.2-5.2-8.4-9.7c-1.6-2.8-4.6-15.7,2.3-23.4
		c0-0.1,0-0.1,0-0.2c0.1-0.6,0.1-0.6,0,0c-0.4,2.3-2,13.5,4.1,21.9c3,2.9,5.8,1.7,6.8,0.1c3.8-6.9,6.3-16.9,11.9-22.3
		c2-1.9,3.8-2.5,6.7,0c0,0,5.5,8.7,6.9,9.3c1.9,1.8,4.7,0.2,4.7,0.2c1.9-0.8,3.8-6.4,4-12.8c-1.2-15.1-1.5-27.5-2.7-42.5l0-0.2
		c-0.4-0.5-0.8-1-1.2-1.5c-0.9-1-1.8-2.2-2.4-3c-0.5-0.6-0.9-1.2-1.4-1.7c-0.2-0.1-0.4-0.1-0.7,0c-2,0.8-2.5,0.9-3.4-0.7
		c0.4,1.5,0.6,3.1,0.6,4.3c0,1.2-1.9-0.2-3.1,0c-1,0.4-1.3,1.7-1.4,2.8c-0.2,3.1-0.6,8.1-0.7,11.7v0.1c-3.7-0.2-11.3-7.2-13.5-11.3
		c-0.7-2-0.6-4.2,0.4-6.1c1.4-0.9,3.5-1.9,5.1-0.9c0,0,1.6,2.3,1.3,2.5c1.9,0.9,2.8,0.5,3-0.4c0.1-1.4-0.6-2.3-0.6-3.8
		c0.7-3.6,4.2-4.7,6.4-3.3c-0.4-0.6-0.9-1.1-1.2-1.4l-1.9-1.6h1.6c0.6,0,1-0.1,1.3-0.2c-0.8-1-1.7-2.1-2.5-3.1c-0.3,0-0.7,0-1.2,0
		c-2.4,0-3.1-0.2-3.6-1.1c-0.4-0.8-1.1-1.1-2.5-1.1c-1.5,0-2-0.3-2.4-1.4c-0.7-1.8-0.7-4.2,0-3.8c0.3,0.2,0.5,0.9,0.6,1.5
		c0,1,0.1,1,0.6-0.3c0.7-1.9-0.2-3.3-3.4-6c-3.1-2.5-5.2-6.8-5.7-11.6c-0.6-5.8-0.3-5.7-12-5.7h-10l-1.4-1.9c-0.8-1-1.4-2.6-1.4-3.4
		c0-0.8-0.9-3-1.9-4.9l-1.9-3.4l-12-1.7c-9.2-1.4-12.2-1.7-13.1-1.2c-0.6,0.3-2.1,0.6-3.2,0.6c-2.6,0-43.8-4.3-44.3-4.6
		c-0.2-0.1-16-13.1-35-28.9l-34.5-28.6l-8.9-3.9c-7.9-3.5-10.5-5-21.7-12.8c-7-4.8-13.3-9-13.9-9.2c-0.6-0.2-7.9-1.7-16.1-3.2
		s-15.3-2.9-15.6-3c-0.3-0.1-1.7,0.9-3,2.2l-2.4,2.4l-25.4,7.4c-14,4.1-26,7.6-26.7,7.8c-1.2,0.4-0.4,1.5,11.2,14.6
		c6.8,7.8,12.8,14.6,13.2,15.1c0.6,0.8,0.2,1.2-3.6,3.5c-4.3,2.6-4.3,2.6-6.4,7.3c-1.1,2.6-2.3,4.9-2.6,5.2
		c-0.3,0.3-4.8,1.4-10.1,2.5s-9.6,2.1-9.7,2.2c-0.1,0.1-1.7,2.6-3.7,5.5c-2.5,3.7-5,6.6-8.7,9.9l-5.3,4.8l-14.8-2.3l-14.9-2.4
		l-0.8,1.5c-1,1.9-3,12.4-3.5,19c-0.5,5.4-2.6,11.7-5.2,15.7c-0.9,1.4-0.9,1.5,0.2,3.2l1.1,1.7v-1.4c0-2,1.2-3,2.6-2.2
		c1.3,0.7,5.4,0.9,7,0.4c2.5-0.9,10.9,9.2,12.5,14.9c0.8,2.7,1.5,3.9,4.2,6.6c1.8,1.9,3.4,4,3.6,4.8c0.7,3.1,1.5,4.6,4.2,6.9
		c1.7,1.6,2.9,3.1,3.3,4.4c0.3,1.1,1.5,3.2,2.8,4.6c1.3,1.5,3.8,5.7,5.6,9.3c3.2,6.6,3.6,7,7.7,9.5c0.9,0.5,1,0.8,0.3,2.6
		c-1.2,3.2,0.4,6,3.6,6.1c0.9,0,4.9,4.8,6.2,7.5c0.5,1.1,1,2.6,1,3.3c0,0.8,0.9,2.2,2.5,3.7c2.4,2.3,2.5,2.5,2.5,5.7
		c0,4.3-0.4,5.7-1.7,5.7c-1.4,0-1.3,0.3,0.5,2.7c2.6,3.3,6.1,9.1,6.1,10.2c0.1,2.5,3.1,4.3,5.6,3.3c0.6-0.3,1.3-0.1,1.9,0.8
		c1.1,1.3,6.8,4.4,8.1,4.4c0.4,0,1.7,0.8,2.8,1.8c1.1,1,3.2,2.6,4.6,3.6c1.6,1,2.7,2.3,2.9,3.1c0.2,0.8,0.4,2,0.5,2.6
		c0.1,0.7,1.6,3.1,3.2,5.4c2.2,3.1,3.1,4.9,3.8,7.8c0.5,2.3,1.4,4.4,2.4,5.6c3.4,4.2,4.1,5.2,3.3,5.2c-0.4,0-1.1-0.3-1.5-0.7
		c-0.9-0.8-0.9-0.9,1.8,4.8c1.1,2.4,2.4,4.8,2.9,5.3c0.4,0.5,1,1.9,1.3,3c0.4,1.7,0.3,2.2-0.6,3.2c-1.1,1.2-2.7,7.4-2.7,10.9
		c0,1.3,0.4,2.8,1.1,3.8c0.6,0.9,1.7,3,2.5,4.6c1.5,3.2,1.5,6.6,0.1,9.6c-0.5,1.1-0.2,2.1,2.3,6.8c2.4,4.6,3.3,5.7,4.8,6.4
		c1.5,0.6,1.7,0.9,1.2,1.5c-0.4,0.5-0.3,0.9,0.5,1.5c0.6,0.4,2,2.5,3.2,4.6c1.5,2.7,3,4.6,4.9,6.1c2.5,2,3.1,2.2,5.8,2.2
		c2.8,0,3.2,0.2,5.6,2.4c1.5,1.3,4.2,3.1,6,4c2.7,1.4,3.5,2.1,4.5,4.2c1.1,2.2,1.5,2.5,2.9,2.5c0.9,0,1.6,0.1,1.6,0.1
		c0,0.1,0.4,1.1,0.8,2.3c0.7,1.9,0.7,2.2-0.1,2.7c-0.7,0.5-0.3,1,1.9,3.1c2.2,2.1,2.8,3.1,3.6,6.1c1,3.7,2,5,3.9,5.4
		c1.1,0.2,1.1,0.4,0.4,3.7c-0.2,1,0.1,1.7,0.9,2.4c0.7,0.7,1.1,1.7,1.1,2.8c0,2.5,0.8,4.4,2.1,4.8c1.4,0.4,3.7,3.9,4.1,6.1
		c0.2,1,1.1,2.9,2,4.4c0.9,1.4,1.6,3,1.6,3.6c0,0.5,0.4,1.2,0.8,1.6c0.4,0.3,1.4,1.7,2.2,3.1c1,1.7,2.1,2.7,3.8,3.4
		c1.3,0.5,2.9,1.7,3.6,2.7c0.7,0.9,2.3,2.4,3.6,3.3c2.6,1.7,4.2,4.9,5.2,10.4c0.5,2.8,0.7,3.1,1.9,2.8c1.7-0.3,4.1,2.2,4.1,4.3
		c0,1,0.5,1.8,1.6,2.6c2,1.5,3.4,4.7,3,6.7c-0.2,1,0.1,1.7,1.1,2.7c0.8,0.7,1.4,1.7,1.4,2.3c0,1.3,0.1,1.3,3.2-0.3
		c2.9-1.5,4.4-3.4,4.4-5.5c0-1.1,0.3-1.4,1.7-1.4c1.8,0,1.8-0.2,0.2-4.3c-0.9-2.2-0.9-3.3-0.2-9.5l0.7-4.8l2.6-1.9
		c3.7-2.7,6.7-2.7,10.2,0c3.4,2.6,6.3,3.3,9.5,2.5c1.4-0.4,2.8-1,3.3-1.5c0.5-0.5,2.1-0.8,4.4-0.8c3.6,0,7.4,1.4,47.4,17.8l6.1,2.5
		v14.5c0,6.1,0.1,11.3,0.3,13.3h1.1C360,476.3,373,461.8,388.2,444.6z M443.7,198.9c0,5.1-3.1,9-4.4,8.4c-1.3-0.7,0.2-6.3-0.5-8.3
		c-0.8-2.8-3.5-8-3-9.5c-0.9-3.2,1.7-4.9,3.8-4.3h-0.1C442.7,186.9,444,196.4,443.7,198.9z M422.8,185.5L422.8,185.5
		c0.5-0.5,18.8-13.5,18.8-13.5c1.9-0.7,1.4,6.8,0.6,6.7c-5.7,5.5-12.3,10-19.4,13.4C421.8,192.8,421,187.1,422.8,185.5z
		 M455.2,237.7l3.5-3c1.4-1.7,0.8-2.6,0.1-3.6V231c-1.4-0.8-2.7-0.7-2.8-2.8c0.3-1.4,0.7-2,1.8-2.2c2.2-0.2,3-0.4,5,0
		c1.9,0.7,2.3,1.4,1.9,2.5c-0.4,1-0.9,1.9-1.5,2.7c-0.8,1.7,0.9,1.9,1.5,1.9c1.1,0.2,2.8-0.4,3.6,0.5c0.2,0,0.6,1.9-0.8,2.8
		c0,0.1-7.9,5.3-11.3,4.3C454.3,240.3,454.6,238.6,455.2,237.7z M398.4,121.2c2.4-3.3,2-1.4,3.1,0.5c1.8,4.6,7.5,12.4,9.8,17.6
		c0.8,4.3-6-2.1-4.6,5.3c1.1,3.8,6.7,42.4,6.8,47.4c0.2,5.1,1.4,10.3,0.8,18.9h0c-1.4,6.2-4.5,12.5-7.3,12.5
		c0.9-28.8-5-53.9-10.8-84.2C395.5,133.1,396.3,127,398.4,121.2z M383.5,119.9c1.7-3.6,2.2-2.3,3.1-0.2c2.8,4.4,8,16.1,6.6,17.5
		c-0.9,1.6-2.7,0.9-3.3,1.6c-0.2,0.6-0.5,2.8-0.2,4.7c4,19.6,6,40.7,5.4,67.9c-0.6,4.8-2.3,9.3-5,13.3c-6.6,12-13.7,16.5-21.8,17.4
		c-4.9,0-8.6-5.2-7.5-6.4h0c9.7-4.3,18.3-10.6,25.4-18.5c1.8-1.5,2.2-5.3,1.9-7.9c-2.4-26.7-3.7-50.1-7.5-76.8
		C380.5,128.2,381.4,123.8,383.5,119.9z M369.7,118.7L369.7,118.7c3.6,1.5,6,8.7,5.3,12.3c-0.8,4.2-2.6,8.9-3.9,8.3
		c-1.5-0.6,0.9-4.3-0.5-8.3c-0.8-2.6-5.6-7.3-5.1-8.6C364.5,119.5,367.5,118.2,369.7,118.7z M367.4,146.5c0.4,0.1,0.8,0.2,0.9,0.5
		c0.2,0.4,0.3,1.1,0.3,1.6s0.3,0.6,0.6,0.8c0.4,0.2,0.3,0.2,0.8,0.2s0.8-0.3,0.8-0.9l0.3-1.4c0.3-0.5,0.3-0.7,0.7-0.7
		c0.6,0,0.7,0,0.9,0.2c0.3,0.4,0.7,0.9,0.7,1.5c-0.1,1.8,1.2,2,1.5,1.7c0.7-0.4,0.2-1.4,0.4-2.1c0.5-1.9,2.6-2.3,3.5-0.5l0.2,3
		c0.3,6.3-7.1,7.1-11.1,5.3h0.1c-3-1.2-2.9-5.6-2.8-5.8C365.1,149,365.3,146.5,367.4,146.5z M328.8,117.2c0.8-3.9,5.3-1.5,7.1-0.2
		l8.3,7c1,1.2,1.7,2.2,2.3,3c0-1.8,0.3-3.8,1.3-6c2.5-3.4,2.5-2.9,4.1-0.6c5.2,7,9.5,12.4,10.9,20.2c0.6,4.6-3.8-4.1-2.6,3.8
		c0.4,1.6,0.9,6.6,1.5,12.8c2.6,3.8,5.1,7.7,7.6,11.6c2.3,4.4,9.9,16,15.4,27.8c1.4,2,2,15.8-0.5,17.1c-6.9-13.7-13.8-26.1-21-37.9
		c0.2,3.8,0.4,7.5,0.5,10.4c0.1,5.4,1.4,21.8,0.5,31h0c-1.6,6.7-5.9,11.2-8.7,11.1c0.8-15.3,0.7-30.6-0.4-45.9
		c-0.5-7.7-1.4-15.4-2.6-23.3c-6-9-12.2-17.8-18.7-26.5c-1.4-1.9-4.2-5.2-4.7-7C328.6,122.6,328.4,120.8,328.8,117.2z M333,228.4
		c-1.1,0.8-2.3,1.1-2.8-0.3c-0.3-0.9-0.4-1.5,0.5-2.1h0c1.5-1.8,3.3-3.3,5.3-4.6c1.9-0.9,3.6,0.8,3.5,0.7c0.3,1.9-1.1,3.5-0.7,5.9
		c0.4,0.9,0.7,2.1,2.4,1.7c2.9-2.3,5.6-2.5,8.4-2.6c2.3,0.1,2.4,3.9,0.9,3.9c-5.3,1.1-7.7,2.6-11.5,4c-1.9,1.1-3.4-0.3-3.4-0.4
		s-1-1-0.4-3.5C335.5,229.3,334.7,228.2,333,228.4z M348.5,209.1c-10.2,3.4-20.8,4.7-31.5,6.1c-3.8,1.9-5.6,4.4-4.9,7.2
		c1.3,3.1,9.6,6.3,9.6,6.4c1.6,0.9,3.4,3.3-0.5,8.1c-16.7-0.8-29.7-7.9-34.2-17.9c-1.3-1-2.8,0-3.8,1.3
		c-6.6,8.4-12.9,15.9-24.1,20.1c-6.6,1.7-13.4-1-16.6-5.3c-2.2-2.5-2.1-5.3-2.8-5.8c-3.7,1.6-34.6,14.7-30.7,8.5
		c7.5-8,20.6-14,32.1-21.8c0.8-2.7,2.3-11.7,6.8-14.6c0.3,0-0.7,5.3-0.6,7.5c0,1.9-0.2,2.5,0.2,2.1c0.8-0.5,14.7-11.4,15.9-14.8
		c1.3-1.9,0.3-6.8,0.3-6.9c-2.6-6.8-6.3-7.3-7.6-10.7c-1.2-4.4-0.7-9.5,1.9-11c2.3-2,4.9-1.8,7.4,0.5c2.8,2.5,5.3,7.5,6,11.2
		c-0.5,1.4-3.8-0.9-4.7-0.3c1.8,2.1,3,4.6,3.5,7.3c1.9,7.7,1.3,10.7-0.6,15.7c-6.2,13-14.1,16.9-21,21.8c-0.2,0-0.3,3.3,2.3,5.1
		c0.9,0.9,4.6,1.4,8.8,0c9-5,16.3-12.6,20.9-21.8c0.8-7,0-14.1-2.3-20.8c-2.7-6.3-5.9-15.2-5.9-15.4c-0.1-3.9,0.2-5.3,1.9-7.2
		c2.7-1.9,1.5-3.2,5.4,0.8c5.1,9,8,19,8.6,29.3c-0.2,2.4,1.5,3.9,2.3,3.4c0.4-5.6,14.2-13.5,26.8-14.6c1.9-0.5,0.9-4.1,1.2-6
		c-0.8-7,3.9-13.4,10.5-13.9c9,1.3,12,6.1,12.2,13.3c-1,14.1-15.7,16.4-23.8,17.5c-1.2,0.5-1.8,1,0,1.7l34.3,0.2l1.8,0.9
		c0.2,0.9-0.6,0.2-1.9,2.4C350.1,201.6,348.9,205.3,348.5,209.1z M239.7,204.3c-0.8,3.5-2.3,7.2-3.6,6.7c-1.2-0.4,0.3-5.1-0.3-6.6
		c-0.3-3.5-4.6-5.3-4.5-6.8c-0.8-2.8,1.9-3.3,3.8-2.9H235C238.1,195.8,239.9,202.4,239.7,204.3z M299.9,166.8
		c0.4,0.1,0.8,0.3,0.9,0.6l0.3,1.5c0,0.5,0.3,0.6,0.6,0.8c0.4,0.3,0.3,0.3,0.8,0.3c0.5-0.2,0.7-0.4,0.8-0.9c0-0.6,0.1-1,0.3-1.5
		c0.3-0.5,0.3-0.7,0.8-0.7c0.6,0,0.7,0.1,0.9,0.2c0.3,0.4,0.7,1,0.7,1.6c-0.1,1.7,1.2,1.9,1.5,1.5c0.7-0.3,0.2-1.3,0.4-1.9
		c0.5-2,2.6-2.4,3.5-0.6l0.2,3c2.3,6.1-7.1,7.1-11.1,5.3h0.1c-3-1.1-2.9-5.6-2.8-5.8C297.6,169.2,297.8,166.8,299.9,166.8z
		 M288.2,128.2c0.2-3.5,0.7-7,1.5-10.4c1.8-4.4,4.5-4.5,5.2-0.5c-0.2,2.5-0.2,5.2-2.4,11.3C291,131.9,287.7,130.8,288.2,128.2z
		 M263.3,123c0.1-4.1,3.6-7.8,5.4-9h-0.1c2.5-1.4,2.5-0.2,2.5,1.7c-2.1,2.6-4.2,3.8-3.5,6.6c0.4,3,3.8-0.9,3.2,1.7
		c-0.2,1.3-1,2.5-2.2,3.2c-2.3,1.2-3.3,1.3-4.5-0.4C262.7,125.3,263.2,125.3,263.3,123z M256.8,126.8L256.8,126.8
		c3.7-3.7,3.9,18.6,6.9,21.4c1.2,2.2,3,3.8,4.7-1.7c1.5-8.2,5.2-15.8,10.8-22c1.2-1.1,4.1-2.4,5.9,1.1c1.2,2.3,0.8,13,0.7,19.6
		c0.9,4.2,2.4,4.9,4.3,6.1c2.1,1,4.8,1.8,7.2-1c1.8-2,2.1-2.6,3.5-4.7c1-6,0.3-12.2-1.9-17.8c-2.3-6.3,0.9-9.4,1.7-11.4
		c2.8-5.2,3.7-2.3,4.9,0.8c3.2,5,2,15.7,3,23.2c1.3,10.1,3.8,10.8,5.4,11.1c3.8,0.5,5.9-2.9,5.9-2.9c1.2-7.3-2.4-12.5-4.5-16.4
		c-1.9-2.3-2.6-5.3-1.9-8.2c0.4-2,0.1-4,2.2-5.9c2.9-2.4,5.9-2.2,8.1,0.2c2.5,2.8,6.1,8.3,5,10.3c-0.4,2-2.7,1.3-3.8,1.1
		c-2.3,0.3,0.2,5.3,0.2,5.4c1.3,3.3,1.3,7.9,3.1,11.1c1.8,2.7,5.3,1.5,7.1,1.2l2.9-2c1.1-0.8,2.8-0.9,2.7,2.1c0,0-2.8,8.1-6.6,9.9
		c-1,0.3-1.4,1.1-3.3-0.2c-1-2.1,0.5-3.1,0.8-4.2c0-0.7-2.5-1.5-4,0.5c-0.9,1.3-1.5,2.5-3.6,6.2c-1.6,2.7-8.3,3.7-11.4,2.3
		c-3.8-1.9-3.5-4.6-5.3-6.2c-1.8-1.1-3.5-1.1-4.8,0.3l-5.6,5.7c-0.5,0.5-6.6,5.3-13.9-0.3c-3.3-3.8-4.4-6.8-4.2-19.5
		c-0.7-1.4-1.6-1.1-3,1.6c-1.9,9.6-4.7,18.4-9.4,16.5C260.2,161.9,251,143.5,256.8,126.8z M244.5,131.7c1.3-1.1-0.7-3.2-2.6-4.1
		c-2.1-2.4-1.5-6.5,1.1-9c2.6-1.3,5.6-1.4,8.2-0.1c1.9,2.3,3.1,6.9-0.7,9.2c-0.8,0.7-0.8,1.4,0,2.1l2.3,1.9c0,0-15,17.3-18.1,18.4
		h-0.1c-0.3,0.6-10.7,0.6-11.1,0C221.6,149.6,238.3,138.3,244.5,131.7z M244.6,154.8c0.5,0.9,0.6,1.6,2.3,1.3c4-3.7,3.9-1.8,3.9-1.8
		s-2.1,6.8-5.5,6.5c-0.4,0-3.6,1-5.6-1.8c-2.2-3.4-0.8-9,2.7-10.9c2-1.1,3.3-0.4,2.6,1.3C244.4,151.1,244.2,153,244.6,154.8z
		 M184.2,117.8c0.4,0.1,0.8,0.3,0.9,0.6l0.3,1.5c0,0.6,0.3,0.7,0.5,0.9c0.5,0.2,0.4,0.2,0.9,0.2c0.4-0.1,0.8-0.3,0.8-0.9
		c0-0.6,0.2-1,0.3-1.5c0.3-0.5,0.3-0.6,0.8-0.6c0.5,0,0.7,0,0.8,0.2c0.3,0.4,0.7,0.9,0.7,1.5c0,1.8,1.2,2,1.6,1.6
		c0.6-0.3,0.1-1.3,0.3-2c0.5-1.9,2.7-2.3,3.5-0.5l0.2,2.9c0.4,6.4-7.1,7.2-11.1,5.3c-2.9-1.2-2.8-5.6-2.6-5.8
		C181.8,120.3,182,117.8,184.2,117.8z M152.6,116.6c4.5,1.3,4.8,8.1,4.5,10c-0.7,3.6-2.3,7.4-3.4,6.9c-1.3-0.5,0-5.3-0.7-6.8
		c-0.7-2.1-4.5-6-4.1-7.1C148.1,117.3,150.8,116.2,152.6,116.6z M141.4,136L141.4,136c2.9-3.4,4,11,5.7,16.9
		c2.1,8.1,4.9,4.9,5.5,0.6c0.5-3.8,1.6-8.2,1.6-8.2c1.3-8.4,5.9-13.4,7.7-13.4c2.3-0.4,3.4,0.2,4.3,2.6c1.2,2.4,1.6,12.1,0.3,18.2
		c-0.3,4.8,5.4,10.1,5.2,0.7c-0.9-7-1.6-13.2-3.5-20.2c-0.4-4.2-0.5-8.4-0.3-12.6c0.9-2.1,3.5-3.2,5.2-0.9
		c2.9,2.4,3.5,11.6,3.9,15.9c-0.1,5.5,0.6,11,2,16.3c1.2,2.5,2.8,3.1,3.6,0.9c0.9,0-1-2.4-2.3-6.3c-1.8-4.2-3-13.5-0.5-17.8
		c0.9-1.5,2.8-1.5,4.2,0c1.4,2.4,3.2,3.7,3.8,7.3c0.8,2.7,2.1,3.8,0.6,13.4c0,1,5.6,5.3,5.6,5.3c1.8,1.8,3.8,2.3,5.9,1.1
		c0.5-3-0.7-6.4-1.5-8.3c-3.8-5.3-6.5-11.5-5.7-16.9c1.2-4.7,5-5.1,7.5-2.8c3,1.6,4.9,5.4,6.1,9.4c-0.4,1.9-2.3,2.1-3.6,0
		c-0.4,0.9,1.3,3.5,0.9,4.4c2.3,5.2,2.9,10.4,3.3,15.6c-0.1,5.4-4.4,8.9-11.5,11c-4.7,0.9-6-1.7-9-3.8c-1.9-1-4.7-0.9-4.7,1.2
		c-1.5,2.2,1,11.4,0.8,22.7c-0.4,19-7.3,17-7.3,17l-1.5-30.3c-1.1-2.8-3.2-3-6.2-2.8c-2.8-1.1-6.6-2.8-6.6-8.4v-17.5
		c-0.1-2.3-1.5-2.3-2.3-0.5c-4.2,3.8,2.2,24.4-9.4,23.3C139.5,167,140.7,147.3,141.4,136z M147.1,239.4c-2,0.7-4.7-0.2-6.4-2.1
		c-3.1-4-2.6-17.4,3-26.4c1.3-1.7,2-2.8,1.3,1.1c-0.8,4.7-1,9.5-0.8,14.3c0.3,2.8,1.3,6.3,3.8,1.2c1.2-1.5,2.2-1.2,3.4,0.7
		C152.3,230.7,150.7,237.9,147.1,239.4z M142.8,196.5c0.3-6.8,14.2-19.1,23.7-19.2c6.1,0.1,4.6,2.3,6.2,4.8h0.1L142.8,196.5z
		 M157.3,222.2c0-4.2-0.2-5.4,0.5-9.8c0.7-7.9,4.9-11,5.8-3c0,4.7,0.8,9.3,2.3,13.7c6.8,12.8,46.4,10,47.6-30.6
		c-0.4-3-2.6-1.2-3.2,0.7c-5.9,44.8-58.7,39.1-42.9-1.7c5.4-3.7,3.1,12.2,5.3,16.4c3.5,6.7,10,5.9,18.2,2.2
		c13.5-7.1,14.1-16.5,13.4-17.3c-1-0.7-3.4,2.2-6.2,3.4c-3.5,0.8-7.4,1.2-10.7-2.7c-1.1-3.4-0.8-7.6,0-11.5c0.7-4.9,5.9-10,10.6-10
		c6.6-0.2,7.5,5,11.3,7.5c2.3,0.3,3.9-2.4,3.5-4.4c-2.9-17.7-4.8-31.1-7.6-48.8c-0.8-4.1,1.5-6.2,3.9-6.9c1.5-0.4,2.4-1.2,3.5,0.1
		c2.3,0.9,6.6,13.3,8.4,19.4c-1.8,2.3-3.7,0.8-5.5,0.8l4.5,33.9c4.7-2.7,7-2,6.6,3.8c0.4,2.5,4.1,2.2,6.1,0.5c3.1-8.6,8.2-8,9.4-2.3
		c0.2,1.8,2.9,1.8,3.2,0.4l0.7-4.3c0.3-1.4,2.6-2.1,5.9-3c-0.2,5.2-0.8,10.2-1.7,15.2c-1.5,5-8.4,6.3-12.4,3.5
		c-1.1-1.2-2.8-0.6-3.5,0.4c-1.6,1.9-8.7,6.6-13.8,1.1c-2.3,0,2.8,10.8-1.6,25.4C210.5,240.5,159.4,254.3,157.3,222.2z M301.2,348.6
		c-27,0.1-53.6,1.2-80.3,2.3c-14.3-0.2-25.1-2.4-32.6-13.4c0.8,0,36.4,2,46.8,1.3c19.2-0.2,36.8-1.8,56.4-2.3
		c38.6,0.7,77,0.7,115.6,3.4c-3.8-2.5-3.8-8.4,1.9-9.9c0.5-0.4,0.8,2.9,1.6,2.8c4.6-0.3,2.5,5.9,1.6,7.1h0
		c8.6,0.4,14.3,0.5,21.8,1.3l9-0.9c9.9-0.9,10.3,14.2,10.3,14.2c0,8.9-3.5,9.4-7.9,10.3c-2.5,0.4-3.8-1.5-5.2-3.4
		c-1.6,0.7-3.8,0.7-6.6,0.4c-3.7-0.2-7.2-0.2-10.8-0.5c-3.8-0.3-5.8,0.5-9.7,0.1c-0.7,1.2-1.9,2.9-4.1,2.4c-1.9-0.3-4.2-5.6-3.6-9.8
		c1.4-3,0.9-2,0.9-3.3C371.2,349.7,335.7,348.1,301.2,348.6z"/>
	<path fill="#FFFFFF" d="M149.2,169c11.5,1.1,5.2-19.5,9.4-23.3c0.8-1.9,2.2-1.9,2.3,0.5v17.5c0,5.6,3.8,7.3,6.6,8.4
		c3-0.2,5.1,0,6.2,2.8l1.5,30.3c0,0,6.9,2.1,7.3-17c0.3-11.3-2.3-20.5-0.8-22.7c0-2.2,2.8-2.3,4.7-1.2c3,2.1,4.3,4.7,9,3.8
		c7.1-2.1,11.4-5.5,11.5-11c-0.4-5.2-0.9-10.4-3.3-15.6c0.4-0.9-1.3-3.5-0.9-4.4c1.2,2.1,3.2,1.9,3.6,0c-1.2-3.9-3.1-7.8-6.1-9.4
		c-2.5-2.3-6.3-1.9-7.5,2.8c-0.8,5.3,1.9,11.6,5.7,16.9c0.8,2,2,5.3,1.5,8.3c-2.1,1.2-4.1,0.7-5.9-1.1c0,0-5.6-4.2-5.6-5.3
		c1.5-9.6,0.3-10.7-0.6-13.4c-0.6-3.7-2.3-4.9-3.8-7.3c-1.4-1.5-3.3-1.5-4.2,0c-2.5,4.3-1.3,13.6,0.5,17.8c1.3,3.8,3.3,6.3,2.3,6.3
		c-0.8,2.2-2.3,1.6-3.6-0.9c-1.4-5.3-2-10.8-2-16.3c-0.5-4.3-1-13.5-3.9-15.9c-1.7-2.3-4.2-1.1-5.2,0.9c-0.2,4.2-0.2,8.4,0.3,12.6
		c1.9,6.9,2.5,13.1,3.5,20.2c0.3,9.5-5.4,4.1-5.2-0.7c1.3-6.1,0.9-15.8-0.3-18.2c-0.9-2.4-2-3-4.3-2.6c-1.8,0-6.4,5-7.7,13.4
		c0,0-1.1,4.3-1.6,8.2c-0.7,4.3-3.5,7.5-5.5-0.6c-1.7-5.9-2.8-20.3-5.6-16.9h-0.1C140.7,147.3,139.5,167,149.2,169z"/>
	<path fill="#FFFFFF" d="M172.7,182.1c-1.6-2.4-0.1-4.7-6.2-4.8c-9.6,0.1-23.4,12.4-23.7,19.2L172.7,182.1L172.7,182.1z"/>
	<path fill="#FFFFFF" d="M218.8,214c4.4-14.6-0.8-25.4,1.6-25.4c5.1,5.4,12.2,0.8,13.8-1.1c0.7-0.9,2.3-1.6,3.5-0.4
		c3.9,2.8,10.9,1.5,12.4-3.5c0.8-5,1.5-10,1.7-15.2c-3.3,0.9-5.6,1.6-5.9,3l-0.7,4.3c-0.3,1.4-3,1.4-3.2-0.4
		c-1.2-5.6-6.3-6.3-9.4,2.3c-2,1.7-5.7,2.1-6.1-0.5c0.5-5.8-1.9-6.6-6.6-3.8l-4.5-33.9c1.9,0,3.8,1.4,5.5-0.8
		c-1.9-6.1-6.1-18.5-8.4-19.4c-1-1.3-2-0.5-3.5-0.1c-2.4,0.8-4.7,2.8-3.9,6.9c2.8,17.6,4.7,31,7.6,48.8c0.5,2-1.2,4.7-3.5,4.4
		c-3.8-2.5-4.7-7.7-11.3-7.5c-4.7,0-9.9,5.2-10.6,10c-0.8,3.9-1.1,8.2,0,11.5c3.3,3.9,7.2,3.6,10.7,2.7c2.8-1.2,5.2-4,6.2-3.4
		c0.7,0.8,0.1,10.2-13.4,17.3c-8.2,3.8-14.7,4.5-18.2-2.2c-2.2-4.2,0.2-20.1-5.3-16.4c-15.8,40.8,37,46.5,42.9,1.7
		c0.6-1.9,2.8-3.7,3.2-0.7c-1.2,40.6-40.9,43.3-47.6,30.6c-1.6-4.4-2.4-9-2.3-13.7c-0.9-8-5.2-4.9-5.8,3c-0.7,4.4-0.5,5.6-0.5,9.8
		C159.4,254.3,210.5,240.5,218.8,214z M199.1,186.4c-0.3,0.6-1.8,0.3-2.8,0.3c-1.1,0-1.8-0.3-2.4-1.2c-0.4-1,0.7-2.1,1.1-2.9
		c0.6-0.9,3.6-2.1,4.7,0.8C200,184.5,199.6,185.7,199.1,186.4z"/>
	<path fill="#FFFFFF" d="M223.5,150c0.4,0.6,10.8,0.6,11.1,0h0.1c3.1-1.1,18.1-18.4,18.1-18.4l-2.3-1.9c-0.8-0.7-0.8-1.4,0-2.1
		c3.8-2.3,2.5-6.9,0.7-9.2c-2.6-1.3-5.6-1.2-8.2,0.1c-2.6,2.5-3.2,6.6-1.1,9c2,0.9,3.9,3,2.6,4.1C238.3,138.3,221.6,149.6,223.5,150
		z M245.8,123c0.9-0.3,2.2,0.7,2.8,1.9s0.3,2.5-0.8,2.8l0.1-0.1c-0.9,0.3-2.3-0.6-2.8-1.9S244.8,123.3,245.8,123z"/>
	<path fill="#FFFFFF" d="M384.3,213.7c2.4-1.2,1.9-15.1,0.5-17.1c-5.4-11.8-13-23.4-15.4-27.8c-2.5-3.9-5-7.8-7.6-11.6
		c0.5,5.7,1.1,12.5,1.4,18.6C370.5,187.5,377.4,200,384.3,213.7z"/>
	<path fill="#FFFFFF" d="M333.9,132.6c6.5,8.7,12.7,17.4,18.7,26.5c-1-6.7-2.3-13.5-3.9-20.6c-0.8-1.2-1.7-2.3-2.5-3.5
		c-2.9-3.5-0.5-2.7,1.2-2.9c-0.4-1.6-0.7-3.3-0.7-5.1c-0.6-0.9-1.4-1.9-2.3-3l-8.3-7c-1.9-1.3-6.4-3.8-7.1,0.2
		c-0.4,3.6-0.2,5.4,0.4,8.3C329.7,127.4,332.5,130.7,333.9,132.6z"/>
	<path fill="#FFFFFF" d="M148.1,227.5c-2.4,5.1-3.5,1.6-3.8-1.2c-0.3-4.8,0-9.5,0.8-14.3c0.7-3.9,0-2.8-1.3-1.1
		c-5.6,9-6.1,22.4-3,26.4c1.7,1.9,4.4,2.7,6.4,2.1c3.6-1.5,5.2-8.7,4.3-11.3C150.2,226.3,149.3,226,148.1,227.5z"/>
	<path fill="#FFFFFF" d="M388.2,209.4c0.3,2.6-0.1,6.4-1.9,7.9c-7.1,7.9-15.7,14.2-25.4,18.5h0c-1.1,1.2,2.6,6.4,7.5,6.4
		c8.1-0.9,15.2-5.4,21.8-17.4c2.7-4,4.4-8.5,5-13.3c0.6-27.2-1.4-48.3-5.4-67.9c-0.3-1.9,0-4.1,0.2-4.7c0.6-0.7,2.3,0,3.3-1.6
		c1.4-1.4-3.8-13.1-6.6-17.5c-0.9-2.1-1.4-3.4-3.1,0.2c-2,3.9-3,8.3-2.8,12.8C384.5,159.4,385.7,182.7,388.2,209.4z"/>
	<path fill="#FFFFFF" d="M470.1,235.7c-5.8,3.4-5.8,7.2-1.1,7.3c5.8-0.7,12.5-1.2,18.2-5.3c-0.6-1.1,0.4-3.3,2.5-5.6
		c1.8-2,2.1-2.5,1.4-2.8c-0.4-0.2-1.5,0.2-2.3,0.8c-1.5,1.1-1.5,1.1-2.2,0.1c-0.7-0.9-1.1-1-4.1-0.7l-1.4,0.1
		c-0.3,0.3-0.6,0.6-0.9,0.8C477.5,232.3,471.9,234.2,470.1,235.7z"/>
	<path fill="#FFFFFF" d="M466,221.6c-0.2,1.2,1.8-0.5,3.9-3.1c-0.3-0.5-0.6-0.9-1.1-1.4c-1.8-1.9-2.1-2.6-2.6-7.7
		c-0.1-0.7-0.2-1.3-0.2-1.8C466.1,212.3,466.1,217,466,221.6z"/>
	<path fill="#FFFFFF" d="M427.3,152.3c0,1.5,0.7,2.3,0.6,3.8c-0.2,0.8-1.1,1.3-3,0.4c0.3-0.3-1.3-2.5-1.3-2.5
		c-1.6-0.9-3.7,0-5.1,0.9c-1,1.9-1.1,4.1-0.4,6.1c2.3,4,9.8,11.1,13.5,11.3v-0.1c0.1-3.7,0.5-8.6,0.7-11.7c0.1-1.1,0.4-2.4,1.4-2.8
		c1.2-0.2,3.1,1.2,3.1,0c-0.1-1.3-0.2-2.9-0.6-4.3c-0.2-0.3-0.4-0.7-0.6-1.2c-0.4-1-1.2-2.1-1.9-3
		C431.4,147.7,428,148.7,427.3,152.3z"/>
	<path fill="#FFFFFF" d="M347.3,132.1c0.4,1.5,0.8,3,1,4.6c0.1,0.6,0.3,1.2,0.4,1.8c1.6,7.1,2.8,13.9,3.9,20.6
		c1.2,7.9,2.1,15.6,2.6,23.3c1.1,15.3,1.2,30.6,0.4,45.9c2.8,0.1,7.1-4.4,8.7-11.1h0c0.9-9.2-0.4-25.6-0.5-31
		c-0.1-3-0.3-6.6-0.5-10.4c-0.4-6.1-0.9-12.9-1.4-18.6c-0.6-6.2-1.1-11.1-1.5-12.8c-1.1-7.9,3.2,0.8,2.6-3.8
		c-1.4-7.8-5.7-13.1-10.9-20.2c-1.6-2.3-1.6-2.8-4.1,0.6c-1,2.2-1.3,4.2-1.3,6C346.6,128.8,346.9,130.5,347.3,132.1z"/>
	<path fill="#FFFFFF" d="M441,154.9c-0.3-0.5-0.6-0.8-0.9-0.9c0.5,0.6,0.9,1.2,1.4,1.7C441.3,155.4,441.1,155.1,441,154.9z"/>
	<path fill="#FFFFFF" d="M445.2,160.1c-0.3-0.4-0.7-0.8-1-1.1c-0.1-0.1-0.2-0.2-0.2-0.3c0.4,0.5,0.8,1,1.2,1.5L445.2,160.1z"/>
	<path fill="#FFFFFF" d="M454.7,166.7l0.4,1.9C456.5,169.5,456.3,168.6,454.7,166.7z"/>
	<path fill="#FFFFFF" d="M433.6,144c-0.5-0.8-1.1-1.1-2.6-1.2c0.8,1,1.7,2.1,2.5,3.1C434.3,145.7,434.3,145.1,433.6,144z"/>
	<path fill="#1BA400" d="M194.9,182.5c-0.5,0.8-1.5,1.9-1.1,2.9c0.7,0.9,1.3,1.2,2.4,1.2c1,0,2.5,0.3,2.8-0.3
		c0.6-0.7,0.9-1.9,0.6-3.1C198.5,180.5,195.5,181.6,194.9,182.5z"/>
	<path fill="#FFFFFF" d="M405.5,353.9c-0.7,4.2,1.7,9.6,3.6,9.8c2.3,0.5,3.4-1.2,4.1-2.4c3.8,0.4,5.9-0.4,9.7-0.1
		c3.6,0.3,7.1,0.3,10.8,0.5c2.7,0.4,5,0.3,6.6-0.4c1.4,1.9,2.6,3.8,5.2,3.4c4.4-0.9,7.9-1.4,7.9-10.3c0,0-0.4-15.1-10.3-14.2l-9,0.9
		c-7.6-0.8-13.2-0.9-21.8-1.3h0c0.9-1.2,3-7.4-1.6-7.1c-0.8,0.1-1.1-3.2-1.6-2.8c-5.6,1.5-5.6,7.4-1.9,9.9
		c-38.6-2.7-77-2.7-115.6-3.4c-19.6,0.6-37.2,2.2-56.4,2.3c-10.4,0.7-46-1.3-46.8-1.3c7.5,11,18.4,13.2,32.6,13.4
		c26.7-1.1,53.3-2.3,80.3-2.3c34.5-0.5,70,1.1,105.3,2.1C406.4,351.9,406.9,350.9,405.5,353.9z M413,351.6c8.8,0.4,17.1,0,25.8,0.5
		c1.6,1.4,0.5,4.7-0.6,4.5l-7.3-0.3c-0.1-2.8-7.2-2.3-7,0.1c-3.8,0.5-7.3-0.1-11.3-0.3C411.5,354.7,411.7,352.1,413,351.6z"/>
	<path fill="#FFFFFF" d="M266.6,160.1c4.7,1.9,7.5-6.9,9.4-16.5c1.4-2.7,2.3-3,3-1.6c-0.2,12.8,0.9,15.7,4.2,19.5
		c7.3,5.6,13.4,0.8,13.9,0.3l5.6-5.7c1.3-1.4,3-1.4,4.8-0.3c1.8,1.6,1.5,4.3,5.3,6.2c3.2,1.3,9.8,0.4,11.4-2.3
		c2.1-3.7,2.6-4.9,3.6-6.2c1.5-2,4-1.1,4-0.5c-0.3,1.1-1.8,2.2-0.8,4.2c1.9,1.3,2.3,0.5,3.3,0.2c3.8-1.9,6.6-9.9,6.6-9.9
		c0.1-3-1.6-2.8-2.7-2.1l-2.9,2c-1.9,0.3-5.3,1.5-7.1-1.2c-1.8-3.2-1.8-7.8-3.1-11.1c0-0.2-2.4-5.2-0.2-5.4c1.1,0.2,3.5,0.8,3.8-1.1
		c1.1-2-2.4-7.5-5-10.3c-2.2-2.3-5.2-2.6-8.1-0.2c-2.1,1.9-1.8,3.9-2.2,5.9c-0.7,2.9,0,5.9,1.9,8.2c2.1,3.9,5.7,9.1,4.5,16.4
		c0,0-2.2,3.4-5.9,2.9c-1.6-0.3-4.1-0.9-5.4-11.1c-1-7.5,0.2-18.2-3-23.2c-1.2-3.1-2.1-6-4.9-0.8c-0.8,2.1-4,5.2-1.7,11.4
		c2.2,5.7,2.9,11.8,1.9,17.8c-1.4,2.1-1.7,2.7-3.5,4.7c-2.4,2.8-5.2,2.1-7.2,1c-1.9-1.2-3.4-1.9-4.3-6.1c0.2-6.6,0.6-17.3-0.7-19.6
		c-1.8-3.6-4.7-2.3-5.9-1.1c-5.6,6.2-9.3,13.8-10.8,22c-1.7,5.4-3.5,3.8-4.7,1.7c-3-2.8-3.3-25-6.9-21.4h0
		C251,143.5,260.2,161.9,266.6,160.1z"/>
	<path fill="#FFFFFF" d="M184.6,127c3.9,1.9,11.4,1,11.1-5.3l-0.2-2.9c-0.8-1.9-3-1.4-3.5,0.5c-0.2,0.7,0.3,1.7-0.3,2
		c-0.4,0.4-1.6,0.2-1.6-1.6c0-0.6-0.4-1.1-0.7-1.5c-0.2-0.2-0.4-0.2-0.8-0.2c-0.6,0-0.6,0.1-0.8,0.6c-0.1,0.5-0.3,0.9-0.3,1.5
		c0,0.7-0.4,0.8-0.8,0.9c-0.6,0-0.5,0-0.9-0.2c-0.2-0.3-0.5-0.4-0.5-0.9l-0.3-1.5c-0.2-0.3-0.6-0.5-0.9-0.6c-2.2,0-2.3,2.5-2.2,3.5
		C181.8,121.4,181.7,125.8,184.6,127z"/>
	<path fill="#FFFFFF" d="M353.8,195.8l-1.8-0.9l-34.3-0.2c-1.8-0.7-1.2-1.2,0-1.7c8.2-1.1,22.8-3.5,23.8-17.5
		c-0.2-7.2-3.2-12-12.2-13.3c-6.6,0.5-11.3,6.8-10.5,13.9c-0.3,1.9,0.7,5.5-1.2,6c-12.7,1.1-26.4,9-26.8,14.6
		c-0.8,0.6-2.5-0.9-2.3-3.4c-0.6-10.3-3.5-20.4-8.6-29.3c-3.9-3.9-2.7-2.6-5.4-0.8c-1.7,2-2,3.3-1.9,7.2c0,0.2,3.2,9.1,5.9,15.4
		c2.3,6.7,3,13.8,2.3,20.8c-4.6,9.2-11.9,16.8-20.9,21.8c-4.2,1.4-7.9,0.9-8.8,0c-2.5-1.8-2.4-5.1-2.3-5.1c6.9-4.9,14.8-8.7,21-21.8
		c1.9-5,2.4-8,0.6-15.7c-0.5-2.7-1.7-5.2-3.5-7.3c0.9-0.7,4.2,1.7,4.7,0.3c-0.8-3.7-3.2-8.6-6-11.2c-2.5-2.2-5.2-2.4-7.4-0.5
		c-2.5,1.5-3.1,6.6-1.9,11c1.3,3.4,5,3.9,7.6,10.7c0,0.2,1,5.1-0.3,6.9c-1.2,3.4-15.1,14.3-15.9,14.8c-0.4,0.5-0.2-0.2-0.2-2.1
		c-0.1-2.3,0.8-7.5,0.6-7.5c-4.5,2.9-6,11.9-6.8,14.6c-11.4,7.9-24.6,13.9-32.1,21.8c-3.9,6.2,27-6.9,30.7-8.5
		c0.8,0.6,0.7,3.3,2.8,5.8c3.2,4.3,10,7,16.6,5.3c11.2-4.1,17.5-11.6,24.1-20.1c0.9-1.3,2.4-2.3,3.8-1.3c4.5,10,17.5,17.2,34.2,17.9
		c3.8-4.8,2.1-7.1,0.5-8.1c0-0.1-8.3-3.3-9.6-6.4c-0.8-2.8,1.1-5.3,4.9-7.2c10.7-1.4,21.3-2.7,31.5-6.1c0.4-3.8,1.6-7.5,3.5-10.8
		C353.3,196,354,196.8,353.8,195.8z M325.6,174.6c0.6-0.8,2.2-0.8,3.8,0s2.4,2.4,2,3.3c-0.5,0.9-2.2,0.9-3.8,0
		S325.1,175.4,325.6,174.6z M311.8,209.3c-3.8,1.2-7.2,2.3-7.3,7.5c1.4,7.5-1.9,4.9-3.8,3.9c-2.3-1.7-8.6-5.6-9.6-14.1
		c-0.1-2,1.5-3.8,4-3.8c3.8,1,9.4,1.1,14.3,1.7C313.5,204.8,315.5,207.9,311.8,209.3z"/>
	<path fill="#FFFFFF" d="M445.3,160.4c1.2,15,1.5,27.4,2.7,42.5c-0.2,6.4-2.2,11.9-4,12.8c0,0-2.8,1.6-4.7-0.2
		c-1.4-0.6-6.9-9.3-6.9-9.3c-2.8-2.5-4.7-1.9-6.7,0c-5.6,5.4-8.1,15.4-11.9,22.3c-0.9,1.6-3.8,2.8-6.8-0.1
		c-6.1-8.4-4.5-19.6-4.1-21.9c0,0.1,0,0.1,0,0.2c-6.8,7.8-3.8,20.6-2.3,23.4c2.3,4.5,4,7.4,8.4,9.7c4,2.9,7.2,1.1,8.9-0.9
		c4-4.2,4.1-15,6-17.1c1.3-3.9,4.7-3.3,6.3-1.5c1.5,2.1,3.5,3.8,5.8,5c3.8,3.3,8.3,3.9,12.8,0.9c3-1.8,5-3.9,6.8-8.3
		c1-2.8,1.2-10.8,1.1-19.8c-0.2-0.3-0.4-0.6-0.4-0.7c0-0.1,0.1-0.1,0.4-0.1c0-1,0-2.1,0-3.2c-0.2-0.4-0.3-0.8-0.3-1
		c0-0.6-0.9-2.1-1.9-3.2c-1.4-1.6-1.9-2.6-1.9-4c0-2.4,0.6-2.8,2.3-1.4l1.4,1.1l0.2-0.3c-0.1-3.2-0.2-6.4-0.3-9.2
		c-0.2-0.2-0.4-0.3-0.6-0.5c-2.6-2.3-3.4-4.3-2.8-6.6c0.3-1.3,0.4-1.4,1.7-0.5c0.2,0.2,0.4,0.3,0.6,0.4l-0.4-1.9
		c-0.2-0.2-0.4-0.4-0.6-0.6c-1.9-2-2.7-2.5-4.2-2.5c-1,0-2.1-0.4-2.5-0.9c-0.3-0.4-1.2-1.4-2.2-2.6l0,0.1L445.3,160.4z"/>
	<path fill="#FFFFFF" d="M300.5,176L300.5,176c3.8,1.9,13.3,0.8,11-5.3l-0.2-3c-0.8-1.9-3-1.4-3.5,0.6c-0.2,0.6,0.3,1.6-0.4,1.9
		c-0.3,0.4-1.6,0.2-1.5-1.5c0-0.6-0.4-1.2-0.7-1.6c-0.3-0.1-0.4-0.2-0.9-0.2c-0.5,0-0.5,0.2-0.8,0.7c-0.2,0.5-0.3,0.9-0.3,1.5
		c-0.1,0.6-0.4,0.8-0.8,0.9c-0.5,0-0.4,0-0.8-0.3c-0.3-0.3-0.6-0.4-0.6-0.8l-0.3-1.5c-0.2-0.3-0.6-0.5-0.9-0.6
		c-2.2,0-2.3,2.4-2.3,3.4C297.6,170.3,297.5,174.8,300.5,176z"/>
	<path fill="#FFFFFF" d="M402.9,206.5C403.1,205.8,403,205.9,402.9,206.5L402.9,206.5z"/>
	<path fill="#FFFFFF" d="M370.5,131.1c1.4,3.9-1,7.7,0.5,8.3c1.3,0.6,3.2-4.1,3.9-8.3c0.8-3.6-1.7-10.8-5.3-12.2v-0.1
		c-2.2-0.5-5.2,0.8-4.2,3.8C364.9,123.8,369.8,128.4,370.5,131.1z"/>
	<path fill="#FFFFFF" d="M368,155.7L368,155.7c3.8,1.9,11.3,1,11-5.3l-0.2-3c-0.8-1.9-3-1.4-3.5,0.5c-0.2,0.7,0.3,1.7-0.4,2.1
		c-0.3,0.3-1.6,0.1-1.5-1.7c0-0.6-0.4-1.1-0.7-1.5c-0.3-0.2-0.4-0.2-0.9-0.2c-0.5,0-0.5,0.2-0.7,0.7l-0.3,1.4
		c-0.1,0.7-0.4,0.9-0.8,0.9s-0.4,0-0.8-0.2c-0.3-0.3-0.6-0.4-0.6-0.8s-0.1-1.2-0.3-1.6c-0.2-0.3-0.6-0.4-0.9-0.5
		c-2.2,0-2.3,2.4-2.3,3.4C365.1,150.1,365,154.5,368,155.7z"/>
	<path fill="#FFFFFF" d="M231.3,197.5c-0.1,1.5,4.2,3.4,4.5,6.8c0.6,1.5-0.9,6.2,0.3,6.6c1.2,0.6,2.8-3.2,3.6-6.7
		c0.3-1.9-1.6-8.4-4.7-9.7h0.1C233.2,194.3,230.6,194.7,231.3,197.5z"/>
	<path fill="#FFFFFF" d="M407,223.4c2.8,0,5.9-6.3,7.3-12.5h0c0.7-8.6-0.6-13.9-0.8-18.9c-0.2-5.1-5.7-43.7-6.8-47.4
		c-1.4-7.3,5.3-0.9,4.6-5.3c-2.3-5.3-8.1-13-9.8-17.6c-1.1-1.9-0.7-3.8-3.1-0.5c-2.1,5.8-2.8,11.9-2.2,18
		C402,169.5,407.9,194.6,407,223.4z"/>
	<path fill="#1B9D00" d="M309.6,204.6c-5-0.6-10.6-0.7-14.3-1.7c-2.5,0-4.1,1.8-4,3.8c0.9,8.4,7.3,12.4,9.6,14.1
		c1.9,0.9,5.2,3.6,3.8-3.9c0.1-5.3,3.6-6.3,7.3-7.5C315.5,207.9,313.5,204.8,309.6,204.6z"/>
	<path fill="#FFFFFF" d="M439.4,185.3L439.4,185.3c-2-0.6-4.6,1.1-3.7,4.3c-0.5,1.5,2.3,6.7,3,9.5c0.7,2-0.8,7.6,0.5,8.3
		c1.3,0.6,4.4-3.4,4.4-8.4C444,196.4,442.7,186.9,439.4,185.3z"/>
	<path fill="#FFFFFF" d="M335.7,234.7c0,0.1,1.5,1.5,3.4,0.4c3.8-1.4,6.2-2.9,11.5-4c1.5,0,1.4-3.8-0.9-3.9
		c-2.8,0.1-5.5,0.3-8.4,2.6c-1.8,0.4-2.1-0.8-2.4-1.7c-0.5-2.4,0.9-4,0.7-5.9c0.1,0.1-1.6-1.6-3.5-0.7c-2,1.3-3.7,2.8-5.3,4.6h0
		c-0.8,0.6-0.8,1.1-0.5,2.1c0.6,1.4,1.7,1,2.8,0.3c1.7-0.2,2.4,0.9,2.3,2.8C334.6,233.6,335.7,234.6,335.7,234.7z"/>
	<path fill="#FFFFFF" d="M242.5,148.1c-3.6,1.9-4.9,7.5-2.7,10.9c2.1,2.8,5.3,1.8,5.6,1.8c3.5,0.4,5.5-6.5,5.5-6.5s0.1-1.9-3.9,1.8
		c-1.8,0.3-1.9-0.4-2.3-1.3c-0.4-1.8-0.3-3.7,0.5-5.3C245.8,147.8,244.4,147,242.5,148.1z"/>
	<path fill="#FFFFFF" d="M264.2,126.8c1.2,1.7,2.3,1.6,4.5,0.4c1.1-0.7,1.9-1.9,2.2-3.2c0.6-2.6-2.8,1.3-3.2-1.7
		c-0.8-2.8,1.4-3.9,3.5-6.6c0-1.9,0-3.1-2.5-1.7h0.1c-1.9,1.2-5.3,4.9-5.4,9C263.2,125.3,262.7,125.3,264.2,126.8z"/>
	<path fill="#FFFFFF" d="M292.4,128.5c2.3-6.1,2.3-8.7,2.4-11.3c-0.7-4-3.4-3.9-5.2,0.5c-0.8,3.4-1.3,6.9-1.5,10.4
		C287.7,130.8,291,131.9,292.4,128.5z"/>
	<path fill="#FFFFFF" d="M456.1,240.8c3.4,0.9,11.3-4.2,11.3-4.3c1.3-0.9,0.9-2.8,0.8-2.8c-0.8-0.8-2.4-0.3-3.6-0.5
		c-0.6,0-2.3-0.2-1.5-1.9c0.6-0.8,1.1-1.7,1.5-2.7c0.5-1.1,0-1.9-1.9-2.5c-2-0.4-2.8-0.2-5,0c-1.1,0.2-1.5,0.8-1.8,2.2
		c0.1,2.2,1.4,2.1,2.8,2.8v0.1c0.8,0.9,1.3,1.9-0.1,3.6l-3.5,3C454.6,238.6,454.3,240.3,456.1,240.8z"/>
	<path fill="#FFFFFF" d="M422.8,192.1c7.2-3.4,13.7-7.9,19.4-13.4c0.8,0.1,1.3-7.3-0.6-6.7c0,0-18.4,13-18.8,13.5h-0.1
		C421,187.1,421.8,192.8,422.8,192.1z"/>
	<path fill="#FFFFFF" d="M153,126.8c0.7,1.5-0.7,6.4,0.7,6.8c1.1,0.5,2.7-3.4,3.4-6.9c0.3-2,0-8.7-4.5-10c-1.8-0.5-4.5,0.7-3.7,3
		C148.5,120.8,152.4,124.7,153,126.8z"/>
	<path fill="#259F00" d="M247.9,127.6L247.9,127.6c0.9-0.2,1.3-1.5,0.7-2.7s-1.9-2.2-2.8-1.9s-1.2,1.4-0.7,2.7
		S247,127.9,247.9,127.6z"/>
	<path fill="#259F00" d="M327.6,177.8c1.6,0.9,3.3,0.9,3.8,0c0.5-0.8-0.4-2.4-2-3.3s-3.2-0.8-3.8,0S326,176.9,327.6,177.8z"/>
	<path fill="#209000" d="M423.9,356.3c-0.2-2.4,6.9-2.9,7-0.1l7.3,0.3c1,0.2,2.2-3.1,0.6-4.5c-8.7-0.5-17-0.1-25.8-0.5
		c-1.3,0.6-1.5,3.1-0.4,4.5C416.6,356.3,420,356.8,423.9,356.3z"/>
</g>
</svg>
