<?xml version="1.0" encoding="utf-8"?>
<!-- Generator: Adobe Illustrator 17.1.0, SVG Export Plug-In . SVG Version: 6.00 Build 0)  -->
<!DOCTYPE svg PUBLIC "-//W3C//DTD SVG 1.1//EN" "http://www.w3.org/Graphics/SVG/1.1/DTD/svg11.dtd">
<svg version="1.1" id="flag-icon-css-sb" xmlns="http://www.w3.org/2000/svg" xmlns:xlink="http://www.w3.org/1999/xlink" x="0px"
	 y="0px" viewBox="0 0 640 480" enable-background="new 0 0 640 480" xml:space="preserve">
<g>
	<path fill="#0000D6" d="M251.5,77.4c-2.4,0.6-1,2.3,4,4.9c2.8,1.5,5.1,2.9,5.1,3.1c0,0.2,0.2,0.8,0.4,1.3c0.3,0.7-0.4,1-3.5,1.1
		l-3.8,0.2l2.9,1.4c1.5,0.8,2.8,1.8,2.8,2.1c0,1,2,2.7,3.2,2.7c0.5,0,1-0.4,1-0.9c0-1.4,4.1-0.5,6,1.3c1.7,1.7,4.1,1.9,4.1,0.4
		c0-0.5-1.1-2-2.4-3.3c-1.9-1.7-2.9-2.3-4.6-2.3c-2,0-2.1-0.1-1.7-2c0.1-0.5,0.1-1,0-1.5l-12.9-8.8
		C251.9,77.3,251.7,77.4,251.5,77.4z"/>
	<path fill="#0000D6" d="M161.1,149.5c0-0.8-0.2-1.7-0.6-1.8c-0.3-0.2-0.6-1.3-0.6-2.3c0-0.9-0.2-1.6-0.4-2.3l-2.3-1.6l-3.7,2.5
		c0.2,0.2,0.4,0.3,0.6,0.3c0.2,0,0.6,0.8,0.8,1.8c0.6,2.7,2.5,4.8,4.5,4.8C160.8,150.9,161.1,150.7,161.1,149.5z"/>
	<path fill="#0000D6" d="M147.6,34.4c-1.5-3.1-2.6-4.6-3.7-5.1c-2.7-1.1-4.1-2-5.8-4.1c-1.2-1.4-2.1-1.9-3.6-1.9
		c-1.9,0-8.1-3.6-9.8-5.7c-0.4-0.5-2.2-1.3-3.9-1.8c-1.8-0.5-3.3-1.2-3.5-1.5c-0.2-0.3-1.1-0.5-2-0.5c-1.4,0-2.1-0.7-4.2-3.9
		c-2.1-3.1-3-3.9-4.8-4.5c-1.2-0.3-2.5-0.6-2.8-0.6c-0.4,0-1.5-0.8-2.7-1.8C98,0.7,94.6,0.7,92.3,3c-1.4,1.5-1.5,1.9-1.2,4.9
		c0.5,4.9,2.6,8.3,5,8.3c1.2,0,2.9,1.8,2.9,3.2c0,0.5,0.7,1.4,1.7,1.8c0.9,0.5,2.1,1.4,2.7,2.1c0.7,0.7,1.7,1.3,2.5,1.3
		c1.8,0,8.1,6,10.2,9.5c0.8,1.5,2.1,3.3,2.9,4.2c0.7,0.8,1.6,2.2,2,3.1s1.5,2.2,2.6,3c1.1,0.7,2.7,2.5,3.5,4c2.4,4.5,7.6,9,11,9.6
		c1.8,0.3,2.2,1.4,1.2,3.7c-0.3,0.8-0.2,1.1,0.5,1.1c0.5,0,1-0.4,1.3-0.9c0.4-1.2,4.2-1.2,5.4,0c0.5,0.5,1.1,2.3,1.3,3.9
		c0.4,3.3,1.1,3.8,2.1,1.5c0.4-0.8,1-1.4,1.3-1.3c0.4,0.1,3.2,1,6.1,1.9c5.2,1.5,5.6,1.6,6.6,0.7c1.5-1.4,1.9-1.3,1.9,0.7
		c0,2.7,0.6,2.9,10.6,4.1c2.7,0.3,3.3,0.1,5.2-1.3c1.2-0.9,2.4-1.4,2.6-1.2c0.2,0.2,0.1,0.6-0.3,0.7c-0.4,0.2-0.8,0.8-0.8,1.4
		c0,0.8,0.4,1.1,1.4,1.1c0.7,0,2,0.5,2.7,1c0.9,0.6,2.7,1,4.5,1l3,0.1l-1.4-2.6l-1.4-2.5l-2.9,0.4c-1.8,0.2-3,0.1-3.2-0.3
		c-0.2-0.4-0.1-0.7,0.4-0.7c2,0,1.7-2.9-0.7-5.5c-1.1-1.3-3.8-1.3-6.1-0.1c-2,1-2.9,0.8-2.9-0.8c-0.1-0.8-0.2-0.8-1.2,0.4l-1.2,1.4
		l-2.1-1.9c-1.2-1-3.3-2.4-4.8-3.2c-1.9-0.9-2.9-1.8-3.3-3.2c-0.4-1.1-1.1-2-1.7-2c-1.9-0.1-5.8-2.4-9.1-5.5l-3.5-3.3v-4
		C149.7,39.3,149.4,38,147.6,34.4z"/>
	<path fill="#0000D6" d="M164.7,182.6c1.5,0.8,3,2.3,4.2,4.1c1.4,2.2,2.3,3,3.7,3.3c1,0.2,2.4,0.9,3.2,1.5c1,1,1.6,1.1,3,0.7
		c2.6-0.9,2-2.1-1.3-3.2l-3-1v-4.7v-4.7h1.7c1.3,0.1,1.7-0.3,2-1.5c0.2-0.8,0.8-2.7,1.3-4.2c1.1-3.3,0.8-4.9-1.6-7.9
		c-2.4-2.9-4.1-2.9-6.5-0.1c-1,1.2-1.8,2.4-1.8,2.7c0,0.3-2,2.7-4.5,5.4l-4.5,4.8l0.9,1.8C161.8,180.5,163.4,181.9,164.7,182.6z"/>
	<path fill="#0000D6" d="M184.7,149.7c0.9-0.3,1.5-0.2,2,0.4s1.3,0.8,2.4,0.6c1.9-0.4,3.1,1,4.1,4.4c0.4,1.5,1.3,2.6,3.3,3.9
		c1.4,1,2.7,2.1,2.7,2.6c0,1-1.8,1.7-2.3,0.8c-0.8-1.3-6.6-2.4-6.6-1.3c0,1,3.8,4.6,5.1,4.9c0.8,0.2,1.3,0.9,1.5,2
		c0.2,1,0.8,2,1.7,2.4c0.7,0.4,2,1.2,2.7,1.8c2.4,2.1,3.2,2.1,5.7-0.5c2.1-2.1,2.6-2.3,3.4-1.6c0.8,0.7,0.8,0.9-0.4,1.8
		c-1.4,1-1.4,1.1-0.2,2.3c0.9,1,1.7,1.7,2.8,2.1h7.5c0.2-0.2,0.4-0.5,0.7-0.8c0.6-0.8,1.4-2.4,1.8-3.6c0.6-1.8,0.5-2.2-0.5-3.3
		c-0.7-0.7-1.2-1.8-1.2-2.5c0-1.5-2.6-4.7-4.2-5.2c-0.9-0.3-1.2-0.9-1.2-2.7c0-1.9-0.4-2.6-1.8-3.7c-1-0.7-1.8-1.8-1.8-2.4
		c0-3.4-3.5-5.5-8.2-4.9c-3.5,0.4-5.5-0.5-5.5-2.6c0-0.5-0.4-1.5-0.9-2.1c-0.6-0.8-0.9-2.7-0.9-6c0-4.6-0.1-4.9-1.7-6.5
		c-1-1-2.1-2.5-2.5-3.5c-1-2.4-4-3.7-7.8-3.3l-7.8,5.4c-0.3,0.4-0.6,0.8-0.8,1.1c-0.1,0.1-0.2,0.2-0.3,0.4l7,20.4
		C183.4,150,184.3,149.8,184.7,149.7z"/>
	<path fill="#0000D6" d="M162.2,147c0,1.7,3.8,8.2,5.1,8.8c1.6,0.8,3.9-0.4,5.1-2.6c0.2-0.3,0.3-0.6,0.5-0.8l-10.3-7.1
		C162.4,145.8,162.2,146.4,162.2,147z"/>
	<path fill="#0000D6" d="M62,22.9l1-3c-0.3-0.1-0.9,0.1-1.3,0.7c-1.4,1.8-1.8,4.6-1,6.2l0.6-1.8C61.2,24.5,61.4,23.8,62,22.9z"/>
	<path fill="#0000D6" d="M156,156.3c1.6,0,2-0.8,0.7-1.6c-1.6-1-3.4-4-3.4-5.7c0-1.2-0.7-2.6-1.8-3.6l-3.6,2.5
		c0.4,0.5,0.6,1,0.6,1.3C148.5,150.7,154.4,156.3,156,156.3z"/>
	<path fill="#0000D6" d="M38.3,38c-1.4-1.8-3.5-3.3-4.8-3.3c-0.3,0-0.8,0.7-1.1,1.5c-0.4,0.8-0.6,1.7-0.6,1.8s-0.7,1.3-1.5,2.3
		c-0.1,0.1-0.2,0.2-0.3,0.4h14.1c-0.4-0.2-1-0.3-1.8-0.4C40.3,40.1,39.4,39.5,38.3,38z"/>
	<path fill="#0000D6" d="M103.6,111.9c0.7-0.8,0.6-1.4-0.1-2.7c-1.1-2.1-1.1-2.1-2.4-0.2c-0.5,0.8-0.8,1.9-0.7,2.5
		C100.6,112.8,102.7,113.1,103.6,111.9z"/>
	<path fill="#0000D6" d="M116.9,114.1l-7.1-4.8H120c1.7-1.3,2.9-4,2.9-6.4c0-2.8-0.5-3.2-4.2-3.2c-3.4,0-4.4-0.7-6.6-4.8
		c-1.4-2.7-2.6-4.1-4.6-5.4c-3.8-2.4-5.8-2.3-7.9,0.5c-2.2,2.9-2.2,6.3-0.1,11c1.5,3.2,1.8,3.6,4.4,4.3c2.7,0.7,2.7,0.8,3.3,3.7
		c0.4,2.1,0.4,3-0.2,3.2c-0.4,0.1-0.7,1-0.7,2c0,1.7,0.1,1.8,2.4,1.5l2.4-0.2v2.2c0,2.2,1.7,4.6,2.2,3.1c0.1-0.4,1-1.8,2-3.1
		C115.9,116.7,116.5,115.3,116.9,114.1z"/>
	<path fill="#0000D6" d="M139.1,129.3l-0.5-0.4c0.1,0.3,0.2,0.6,0.4,0.8L139.1,129.3z"/>
	<path fill="#0000D6" d="M59.1,18.6c0-0.8-0.6-0.7-1.9,0.1c-1.1,0.6-1.5,3.5-0.5,3.5C57.3,22.2,59.1,19.5,59.1,18.6z"/>
	<path fill="#0000D6" d="M235.6,173.6c-0.7,1.1-1.1,1.3-4.2,1c-3.3-0.4-5,0.2-3.6,1.1c0.1,0.1,0.2,0.3,0.3,0.6h6.9l1.1-3.1
		C235.9,173.3,235.7,173.5,235.6,173.6z"/>
	<path fill="#0000D6" d="M247.3,76.4c2.1,0.8,2.6,0.8,2.6-0.2c0-0.1,0-0.2,0.1-0.4l-3.2-2.2C245.3,74.8,245.5,75.8,247.3,76.4z"/>
	<path fill="#0000D6" d="M443.2,229.1c-0.7-0.1-2-1.3-2.8-2.6c-0.9-1.3-1.6-2.3-1.7-2.3c-0.1,0-0.5,0.2-0.8,0.4
		c-0.4,0.1-0.8,0.8-0.8,1.5c0,0.7-0.7,2-1.5,3c-0.8,1-1.5,2.1-1.5,2.5c0,1.3,2,2.6,4.9,3.4c0.1,0,0.1,0,0.2,0.1l5.6-2.8
		c0-0.2,0-0.3,0-0.5C444.6,229.8,444.3,229.3,443.2,229.1z"/>
	<path fill="#0000D6" d="M435.4,225c-0.7-1.8-4.1-4.4-5.6-4.3c-0.8,0.1-2.2-0.2-3.1-0.6c-2.5-1-3.4-0.8-7.1,1.5
		c-3.2,2-3.3,2.3-2.7,3.6c0.6,1.2,1.1,1.4,3.5,1.4c2.3,0,3,0.3,4.5,1.8c1.9,2,3.9,2.3,7,1C434.6,228.2,436,226.5,435.4,225z"/>
	<path fill="#0000D6" d="M430.6,232.7c-0.2,0.1-1,0.2-1.7,0.4c-2,0.4-2,3.2,0,3.2c0.8,0,1.9-0.4,2.5-0.8c1-0.7,1-1,0.4-1.8
		C431.3,233,430.8,232.7,430.6,232.7z"/>
	<path fill="#0000D6" d="M101.3,123.8c1.3,0.9,2.1,8.3,1.1,10c-0.5,0.8-0.1,1.5,1.6,3.5c1.3,1.3,2.4,3.2,2.6,4.2
		c0.4,2.4,1.2,2.3,2.3-0.4c1.3-3,1.1-5.4-0.6-8.9c-0.8-1.7-1.5-3.5-1.5-4.2c0-0.6-0.5-2.4-1-3.9c-1.7-4.5-3.6-6-4.9-3.6
		C100,122.1,100.1,123,101.3,123.8z"/>
	<path fill="#0000D6" d="M499,204.2c-0.8-0.2-2.5-0.5-3.7-0.9l-2.3-0.6v-3.3c0-2.4,0.3-3.8,1.3-4.9c0.8-1,1.1-2,0.8-2.9
		c-0.2-1.1,0-1.4,1.3-1.7c1-0.2,2-0.4,2.3-0.5c0.4-0.1,0.8-1.2,1-2.4c0.2-1.9-0.1-2.7-2.2-5.2c-1.3-1.7-3.5-3.6-4.6-4.2
		c-1.7-0.9-2.2-1.5-2.2-2.8s-0.6-2-2.6-3.4c-2.7-1.9-4.8-4.8-6.3-8.7c-0.7-1.9-1.3-2.4-2.6-2.6c-1-0.1-2.3-1-3.2-2
		c-1.1-1.3-2-1.7-3.5-1.7c-1.7,0-1.9,0.2-1.6,1c0.2,0.6,1.1,1.7,1.9,2.5c1.9,1.8,0.8,2.4-1.9,1.1c-1.1-0.5-2.7-1.1-3.6-1.3
		c-1-0.2-2.5-1.1-3.5-2.1c-1-1-1.8-1.7-2-1.7c-0.1,0-0.7,0.6-1.1,1.3c-2.2,3.2-0.8,6.1,5.3,11.1c3.4,2.8,4.9,4.6,6.3,7.3
		c2.1,4.1,2.1,4.1,0.7,4.1c-0.6,0-1.8,0.8-2.7,1.7c-2,2.1-2.2,5.1-0.4,6.1c1,0.6,1.1,1,0.8,3c-0.6,3.6,1,8,4.6,12.8l3.2,4.1l0.2,6.3
		c0,0.7,0.1,1.3,0.1,1.8l21.3-10.6C499.6,204.4,499.3,204.3,499,204.2z"/>
	<path fill="#0000D6" d="M392.2,245.8c-1.3-0.3-2.3-1.1-3.1-2.3c-1.1-1.6-1.5-1.8-3.9-1.8c-2-0.1-3.4,0.4-5.5,1.8
		c-2.1,1.4-2.9,2.3-2.9,3.3c0,0.8-0.6,2.2-1.3,3.2c-1,1.4-1.1,2-0.6,2.5c0.4,0.4,0.7,2.1,0.7,3.9c0,2.3,0.4,3.7,1.3,4.9l1.3,1.7
		l-1.3,1.7c-0.6,0.8-1.2,1.9-1.2,2.4l26.8-13.4C398.6,249.5,394.3,246.2,392.2,245.8z"/>
	<path fill="#0000D6" d="M340.8,221.4c-0.9-0.7-2.5-1.4-3.6-1.7c-1.1-0.2-2.2-0.6-2.4-0.9c-0.7-1.2-3-0.4-4.9,1.5
		c-1,1.2-1.9,2.4-1.9,2.7c0,0.4-0.4,0.6-0.8,0.6c-1.1,0-0.5,2.4,0.8,2.8c0.5,0.2,1.5,0.5,2.2,0.9c0.9,0.4,1.7,0.4,2.5-0.1
		c2.1-1.1,3.7-0.8,4.3,0.8c0.3,0.8,1,1.5,1.4,1.5c1.3,0,3.3-2.6,3.7-4.8C342.3,222.9,342.2,222.5,340.8,221.4z"/>
	<path fill="#0000D6" d="M385.8,170.3c1.5,1,4.3,3.2,6.3,5c4.5,4.1,5.9,4.8,7.2,3.5c1-1,0.9-1.1-0.6-2.7c-1.1-1.2-1.6-2.3-1.6-3.8
		c0-1.8-0.2-2.2-1.5-2.5c-1.3-0.3-1.4-0.6-1-1.5c0.8-1.5,0.3-1.8-2.4-1.8c-2,0-4.6-1.4-4.6-2.4c0-0.2,1-0.4,2.2-0.3
		c1.9,0.1,2.4-0.2,4.2-2.6l2-2.6l-2.2-0.8c-1.2-0.4-2.4-1.1-2.7-1.5c-0.3-0.4-1.6-2.3-3-4.2c-1.8-2.6-2.9-3.4-3.9-3.4
		c-0.8,0-2.3-0.7-3.3-1.5c-1-0.8-2.1-1.5-2.4-1.5c-0.4,0-2.3-1.4-4.1-3.2c-2.5-2.3-3.5-3.6-3.5-4.7c0-1.3-0.7-1.9-3.8-3.7
		c-2.1-1.1-4.2-2.1-4.8-2.1c-0.5,0-2-1-3.4-2.1c-2.9-2.4-6.3-3.5-10.5-3.4c-2.2,0.1-3.5-0.2-4.5-1c-2.1-1.7-6.3-3.6-7.6-3.6
		c-1,0-1.2-0.3-0.8-1.8c0.3-1.7,0.2-1.8-1.8-1.8c-1.2,0-2.1,0.2-2.1,0.6c0,1-1.6,0.7-4.2-0.6c-1.7-0.8-2.4-1.6-2.4-2.5
		c0-1.6-1.6-2.8-3.8-2.9c-2.1,0-5.2-1.5-5.2-2.6c0-1.3-5.2-5.7-7.3-6.1c-1.2-0.2-3.2-1.6-5.3-3.7c-7.5-7.3-9.8-9-12.2-9
		c-1.7,0-2.8-0.5-4.6-2.1c-2.9-2.5-5-2.7-5.5-0.6l-0.4,1.5l-1.8-1.5c-1-0.8-2.4-1.5-3.2-1.5c-0.5,0-1.6-0.3-2.7-0.7l2.3,6.6
		l-2.4-1.6c0.5,0.4,1,0.7,1.6,1.1c4,2.7,5.1,4.4,5.1,7.7c0,1-0.4,1.8-1,2c-0.8,0.3-0.6,0.8,1.3,2.4c1.3,1.1,2.8,2,3.4,2.1
		c2.2,0,4,1.8,4,3.9c0,2,0.1,2,2.4,2c1.9,0,2.5,0.2,2.7,1.2c0.2,0.8,0.8,1.2,2,1.2c1.3,0,1.8,0.4,2.7,2.4c0.8,1.7,1.4,2.4,2.3,2.4
		c0.7,0,1.6,0.5,2,1.1c0.5,0.8,1.1,1.1,2,0.8c1-0.3,1.2-0.1,1.2,1.5c0,1.5,0.3,1.9,1.7,2.2c2.4,0.5,4.2,1.5,6.3,3.3
		c1,1,2.1,1.7,2.6,1.7c0.5,0,2.1,1,3.8,2.1c2.1,1.5,3.5,2.1,5.1,2.1c2.1,0,2.2,0.1,1.9,1.8l-0.4,1.8h3.1c1.7,0.1,3.8,0.4,4.6,0.9
		c0.8,0.5,2,0.8,2.7,0.9c0.7,0,1.5,0.6,1.9,1.4c0.4,1,1.6,1.7,3.7,2.4c2.6,0.8,2.9,1.1,2.3,1.9c-0.6,0.7-0.5,1.1,0.4,1.7
		c1,0.8,1.3,0.8,1.9-0.1c0.6-0.9,0.8-0.9,2.4-0.1c1.3,0.7,1.9,1.5,2,2.6c0.1,1.4,0.5,1.7,1.8,1.7c0.9,0.1,2,0.4,2.4,0.7
		c0.4,0.4,1.7,0.8,2.8,1.1c1.1,0.2,3.4,1.3,5.1,2.4c3.6,2.4,6.8,3.7,10.4,4.5c3.9,0.9,9.4,4.6,9.7,6.5
		C383,168,384,169.1,385.8,170.3z"/>
	<path fill="#0000D6" d="M188.2,193.8c2.1,0,7.2,1.7,10.7,3.5c1.3,0.7,2.7,1.3,3.1,1.3c1.3,0,0.8-2.7-0.7-4.2
		c-0.8-0.8-1.5-1.7-1.5-2.1c0-1.8-5.7-2.8-12.9-2.2c-2.6,0.2-3,0.4-2.7,1.3C184.7,193,186.2,193.8,188.2,193.8z"/>
	<path fill="#0000D6" d="M19.1,71.1c2.9,0,3.7-0.2,4.2-1.1c0.9-1.7-1.6-3.7-4.6-3.7c-2,0-2.6,0.2-3.2,1.4
		C14.4,70.3,15.2,71.1,19.1,71.1z"/>
	<path fill="#0000D6" d="M377.8,164.5c-1.5-0.6-6-0.9-8.1-0.5c-1.1,0.2-2.1,0.8-2,1.1c0.1,0.4,0.1,1.4,0.2,2.3
		c0.1,2.1,4,6.3,5.8,6.3c1,0,1.4,0.4,1.4,1.1c0,2.1,5.7,3.3,7.9,1.7c1.8-1.4,1.3-2.9-1.7-4.1l-2.7-1.1v-3.2
		C378.6,165.8,378.4,164.6,377.8,164.5z"/>
	<path fill="#006000" d="M413.2,467.9l4.9,0.4c2.7,0.2,6.6,0.5,8.5,0.8c3.6,0.4,3.8,0.3,6.5-1.8c3.1-2.3,3.6-2.4,6-1.5
		c1.2,0.5,1.5,0.9,1.3,1.8c-0.2,1.1,0,1.2,2.1,1.2c2.1,0,2.9,0.4,5.6,3c2.9,2.7,3.4,3,5.9,3c1.5,0,3.8,0.5,5.1,1.2
		c3.4,1.7,4.8,1.6,4.8-0.5c0-1.5,0.2-1.8,2.4-2.1c2.1-0.4,3.6-1.6,3.6-3c0-0.2-1.4-1-3.1-1.8c-2.2-1.1-4.1-1.5-6.4-1.4L457,467
		l2.9,0.8c1.5,0.4,3.3,1.1,3.8,1.5c1.5,1.3-2.3,2.9-6.6,2.9c-3.6,0-3.6,0-5.8-2.8c-2-2.5-2.1-2.9-1.2-3.2c0.6-0.2,1.9-0.5,2.9-0.5
		c1.6-0.1,1.7-0.1,0.6-0.7c-0.6-0.4-4.2-0.9-8-1.1c-7.3-0.4-20.5-3.3-24.6-5.4c-1.5-0.8-3.5-1.1-6.1-1.1c-3.8,0-3.9,0.1-5.1,2.1
		l-1.3,2l2.4,3.2L413.2,467.9z"/>
	<path fill="#006000" d="M513.9,252.5c0.8,0.8,2,1.5,2.6,1.5s1.3,0.5,1.5,1c0.2,0.6,1,1.9,1.8,2.9c0.8,1,1.4,2.3,1.4,2.9
		c0,1.8,1.6,4.1,5.1,7.5c1.8,1.8,3.9,4.4,4.5,5.8c0.8,1.8,1.4,2.5,2.1,2.4c0.9-0.2,1.1-0.8,1-4.1c-0.1-2.1-0.5-5.1-1.1-6.6
		c-0.5-1.5-1.3-3.5-1.7-4.5c-0.4-1.1-1-2.3-1.5-2.8c-0.4-0.5-1.3-2-2-3.3c-0.7-1.3-2.1-3.6-3.1-5.2c-1.1-1.9-1.5-2.9-1-3.1
		c0.7-0.2,0.8-1.7,0.6-3.2l-13.1,6.5C512,250.9,513.2,251.8,513.9,252.5z"/>
	<path fill="#006000" d="M534.8,280.2c0.9,2,5.6,5.5,5.3,3.9c-0.1-0.5,0.4-1.4,1.1-1.8c1.3-0.8,1.4-0.7,3.2,2.4
		c2.2,3.9,5.4,6.3,6.2,4.7c0.3-0.5,0.4-2.2,0.2-3.8c-1.8-11.9-2.9-14.8-7.1-18.9c-2.3-2.2-3.3-3.8-3.6-5.2c-0.5-2.8-3.5-7.1-5.4-8
		c-1-0.4-1.5-1.2-1.5-1.9c0-1.3-0.8-1.6-1.5-0.6c-0.5,0.8,2.2,8.4,3.5,9.7c1.1,1.1,1.1,1.2,0.1,2.2c-1,1.1-1,1.3-0.1,3.6
		c1.3,3.1,1.2,7.2-0.1,9.8C534.2,278.1,534.2,278.7,534.8,280.2z"/>
	<path fill="#006000" d="M587.5,281.2c-1.1-0.4-1.8-0.4-3.8,0.2c-1.4,0.4-1.5,0.7-1.4,4c0,5.2,3.2,10.7,5,8.8
		c0.5-0.5,0.3-1.6-0.6-4.1l-1.3-3.3l1.5-2.6C588.2,282,588.3,281.5,587.5,281.2z"/>
	<path fill="#006000" d="M567,334.6c0,0.7,0.4,1.3,0.9,1.5c1.3,0.5,3.9-1.4,3.9-2.7c0-1.7-3.6-5.2-4.9-4.9c-1.2,0.3-1.5,4-0.5,4.6
		C566.8,333.2,567,333.9,567,334.6z"/>
	<path fill="#006000" d="M617.9,384c-4,0-4.4-0.1-4.4-1.2c0-0.7,0.4-1.2,1-1.2c1.5,0,2.6-1.8,2.6-4.3c0-3.8-0.8-5-3.6-5.5
		c-3.5-0.5-4.2-1.2-3.3-3.3c0.7-2-0.2-3.6-2-3.6c-1,0-1.1-0.5-1.1-2.7s-0.4-3.2-2.3-5.5c-1.3-1.5-2.6-3.6-2.8-4.5
		c-0.4-1.5-0.5-1.6-2.3-1.3c-1,0.2-2.9,0.9-4.2,1.5l-2.3,1.2l-4.1-1.6c-2.8-1.1-5.7-1.7-9.4-1.9c-5.1-0.4-5.4-0.4-7.3-2.3
		c-1.7-1.7-2.4-2-4.8-2c-2.3,0-2.9-0.2-3.8-1.5c-0.5-0.8-1.3-1.5-1.8-1.5c-0.4,0-3.4-2.3-6.6-5.1c-4.1-3.5-6.4-5.1-7.4-5.1
		c-0.8,0-2.9-1-4.6-2.1c-1.7-1.1-4.6-2.5-6.6-2.9c-4.5-1.1-4.5-1.1-5.4,0.3c-0.4,0.7-1.4,1.2-2.2,1.2s-1.5,0.2-1.5,0.4
		c-0.4,1.8-0.4,6.4-0.2,8.9l0.3,3.2h5.7c6,0,7.9,0.5,11.1,3.2c1.7,1.3,1.7,1.5,1,3.6c-0.6,1.9-0.6,2.4,0.4,3.4
		c0.5,0.6,1.5,1.1,2.2,1.1c0.8,0,1,0.2,0.7,1c-1,2.4-1.7,5.4-1.3,6.3c0.2,0.6,1.5,1.1,3.6,1.3c2.2,0.3,3.3,0.7,3.3,1.3
		c0,1,4.1,4.5,5.2,4.5c1.7,0,4.2,1.8,5.7,4.1c1.4,2,2.9,3,10.1,6.6c8.2,4.1,8.7,4.2,13.9,4.5c3,0.2,6.1,0.6,6.9,0.9
		c0.9,0.4,3.2,1,5.2,1.4c3.2,0.7,3.8,0.7,4.5-0.2c0.8-1,1.1-0.9,4,0.5c2.6,1.3,4.2,1.5,9.2,1.7c5.4,0.2,6.1,0.1,6.1-0.7
		C625.4,384.7,622.9,384,617.9,384z"/>
	<path fill="#006000" d="M437.2,294.6c3.8,0,7.1,0.2,7.3,0.5c0.2,0.4,1.9,1.8,3.8,3.2c3.1,2.4,3.9,2.7,7.6,3.1
		c3.5,0.3,4.7,0.8,7.1,2.4c3.2,2.3,5.3,2.3,9.1,0.1c1.1-0.6,3.9-1.5,6.3-2c5.5-1,6.7-1.8,8-4.8l1-2.4l-1.8-1.6l-1.8-1.6l1.1-1.9
		c0.6-1,1-2,0.9-2c-0.1-0.1-1.9-1.3-4-2.6c-3.4-2.2-4.2-2.4-7.5-2.4h-3.6l-1.1-3.8c-0.8-2.6-1.5-3.9-3.6-6.2l-42.1,21
		c0.8,0,1.7,0.1,2.7,0.2C428.6,294.4,433.4,294.6,437.2,294.6z"/>
	<path fill="#FFCC00" d="M443.3,235c1.2-0.6,1.5-1.1,1.4-2.7l-5.6,2.8C441.3,235.7,442.1,235.6,443.3,235z"/>
	<path fill="#FFCC00" d="M523,236.4l1.2-1.3l-2.6-1l-2.6-1l0.3-2.6c0.2-2.4,0.1-2.6-1.1-2.8s-1.5-0.7-2-3.8
		c-0.5-2.9-0.9-3.7-2.3-4.5c-1.7-1-2.1-2.4-0.7-2.4c0.7,0,0.8-0.4,0.5-1.4c-0.5-1.5-2.7-3.6-5.7-5.1c-1.1-0.7-3.3-2.3-4.8-3.6
		c-1.1-1-2.3-1.9-3.2-2.4l-21.3,10.6c0.2,4.4,0.4,4.8,2.2,6.8c1.1,1.3,2,2.7,2,3.1c0,0.5,0.5,1.1,1.2,1.4c0.7,0.4,1.8,2.1,2.6,3.8
		c1.2,2.7,1.8,3.3,3.6,3.9c1.3,0.4,3,1.7,4.1,3.1c1,1.3,2.4,2.9,3,3.4c0.5,0.5,2.3,2.2,3.9,3.8c2,2,3.4,2.9,4.5,2.9
		c0.9,0,1.7,0.4,1.9,0.8c0.2,0.5,1.3,1.3,2.5,1.7c0.2,0.1,0.4,0.2,0.6,0.3l13.1-6.5c-0.2-1.1-0.5-2.2-1.1-2.9
		C521.4,239,521.4,238.1,523,236.4z"/>
	<path fill="#FFCC00" d="M464.9,271.5c-2.3-2.3-4.2-3.7-5-3.7c-2.5,0-5.5-1.8-5.8-3.7c-0.4-1.8-2-3.2-4.6-3.8
		c-0.8-0.2-2.1-1.1-2.9-1.8c-1.1-1.1-2-1.4-4.2-1.4c-1.5,0-3.5-0.2-4.4-0.6c-2.8-1-12.3-0.9-15.5,0.2c-2.8,1-3,1-4.9-0.1l-2-1.2
		l-2.1,1.3c-1.7,1-2.8,1.1-4.9,0.9c-2.4-0.2-3.2-0.7-5.5-3.3c-0.2-0.2-0.4-0.5-0.7-0.7l-26.8,13.4c0,0,0,0,0,0c0,0.4,1.5,2,3.3,3.6
		l3.3,2.9l-0.4,3l-0.4,3.1l3.3,0.8c3.2,0.7,3.4,0.8,3,2.3c-0.3,1.3,0.2,2,3.6,4.8c5.2,4.3,5.8,4.5,8.3,3.3c2.7-1.3,3.9-1.2,5.4,0.2
		c0.8,0.8,2.4,1.4,4.5,1.5c1.8,0.2,4.2,0.8,5.5,1.3c1.8,0.8,2.7,0.8,5.1,0.3c1.2-0.3,2.4-0.4,3.7-0.3l42.1-21
		C465.7,272.3,465.4,271.9,464.9,271.5z"/>
	<path fill="#FFFFFF" d="M139,129.8c0.1,0.2,0.2,0.3,0.3,0.5c0.5,0.7,1.5,2.1,2.2,3.2c1.3,2,3,2.6,10.4,3.8c1.7,0.2,3.8,0.7,4.8,0.8
		c1.7,0.4,1.9,0.2,3.3-2.8c1.4-2.9,1.5-3.3,0.8-5.2c-0.4-1.1-0.8-3.2-0.8-4.6c-0.1-1.7-0.4-2.8-1.3-3.5c-0.7-0.6-1.2-1.3-1.2-1.7
		c0-0.4-1.1-2.1-2.4-4c-2.6-3.6-2.7-3.7-8-2.9c-1.3,0.2-3.2,1-4.1,1.7c-0.9,0.7-2,1.3-2.4,1.3s-1.2,1.3-1.8,2.7
		c-1,2.7-1,7.2-0.1,9.8l0.5,0.4L139,129.8z"/>
	<path fill="#FFFFFF" d="M252.3,191.4c-1-1.2-1.1-1.3-1.6-0.4c-0.3,0.5-1.7,1.7-3,2.7c-3.1,2.3-3.3,4.2-0.8,7.1
		c1.4,1.6,2,1.9,3.2,1.6c0.9-0.2,1.8-0.8,2.3-1.3c0.4-0.5,1-0.8,1.5-0.8c1.3,0,1.6-2.3,0.6-3.7c-0.5-0.7-1-1.9-1-2.6
		S253,192.2,252.3,191.4z"/>
	<path fill="#FFFFFF" d="M30.7,47c1.7,1.7,2.4,1.8,7.1,2.2l5.2,0.4l1.5-2c1.4-1.8,1.5-2.3,0.9-4.5c-0.4-1.4-0.6-2-1.3-2.3H30
		C28.2,43.2,28.4,44.9,30.7,47z"/>
	<path fill="#FFFFFF" d="M116.9,114.1c0.2-0.5,0.3-0.9,0.4-1.3c0.2-1.7,0.8-2.5,1.8-3c0.3-0.1,0.6-0.3,0.9-0.5h-10.1L116.9,114.1z"
		/>
	<path fill="#FFFFFF" d="M250.7,71.7c-0.6,0-2,0.6-3,1.3c-0.4,0.2-0.7,0.4-0.9,0.7l3.2,2.2c0.2-0.5,0.6-1.1,1.2-1.4
		C252.6,73.4,252.3,71.6,250.7,71.7z"/>
	<path fill="#FFFFFF" d="M159.4,143.1c-0.7-1.6-2.4-2.3-5.2-2.3c-1.8,0-3.3,0.2-3.3,0.6c0,0.5,1.5,2.1,2.5,2.7l3.7-2.5L159.4,143.1z
		"/>
	<path fill="#FFFFFF" d="M258.9,195.3c-0.5,0.6-0.5,1,0.1,1.5c1,0.8,1.6,0.3,1.6-1.3C260.6,194.3,259.8,194.1,258.9,195.3z"/>
	<path fill="#FFFFFF" d="M147.1,143.2c-1.5,0-2.1,0.2-2.1,1c0,0.5,0.8,1.7,1.8,2.5c0.4,0.4,0.8,0.8,1.1,1.2l3.6-2.5
		C150.3,144.1,148.6,143.2,147.1,143.2z"/>
	<path fill="#FFFFFF" d="M228.1,176.3c0.2,0.5,0.3,1.2,0.2,2c0,1.9-0.1,2-0.5,0.8c-0.6-1.4-1.5-1.7-2.1-0.7
		c-0.2,0.3-1.1,0.6-2.1,0.6c-2,0-2.2,0.5-2.7,5.5c-0.3,3.3-0.2,3.9,1.1,5.8c1.8,2.7,7.5,6.5,9.5,6.6c3.3,0,9.7-7.5,10.1-11.7
		l0.2-2.3l-2.6-0.3c-3.5-0.4-3.7-1.4-0.7-2.3c2.5-0.7,4.8-3.4,4.8-5.6c0-2.1-5.3-2.9-7.2-1.4l-1.1,3.1H228.1z"/>
	<path fill="#FFFFFF" d="M273.1,86.4c-0.6-0.2-1.2-0.5-1.7-0.8c-3.5-1.8-3.6-1.8-3.6-0.4c0,1.5,1.8,3.6,5.2,6.1l2.4,1.6L273.1,86.4z
		"/>
	<path fill="#FFFFFF" d="M259.2,80.9c-1.2-0.2-3.2-1.1-4.2-2.1c-1.1-1-2.1-1.7-2.2-1.7c-0.1,0-0.4,0.1-0.7,0.2L265,86
		c-0.1-0.7-0.4-1.5-0.9-2.3C262.9,81.6,262.7,81.5,259.2,80.9z"/>
	<path fill="#FFFFFF" d="M61.2,28.7c-0.2,0.4-0.5,1.7-0.6,2.9c-0.1,1.2-0.4,2.9-0.7,3.8c-0.2,1.1-0.1,1.7,0.3,1.7
		c0.4,0,0.7-0.4,0.7-0.8c0-1.4,1.4-1.5,2.2-0.1c0.6,1.1,0.7,1,1.4-1.3c0.4-1.4,1.1-2.7,1.5-2.9c1.2-0.4,1.1-1.7-0.4-3.2
		c-0.7-0.7-1.2-1.6-1.2-2.1c0-0.5-0.5-0.9-1.4-0.9c-1.1,0-1.7-0.3-1.8-0.8l-0.6,1.8c0.1,0.2,0.2,0.4,0.4,0.6
		C61.3,27.8,61.4,28.4,61.2,28.7z"/>
	<path fill="#FFFFFF" d="M62.1,22.6c0.7-1.1,1.2-2.1,1.2-2.4c0-0.2-0.1-0.3-0.3-0.4l-1,3C62,22.8,62.1,22.7,62.1,22.6z"/>
	<path fill="#FFFFFF" d="M178.9,150.6c1.2-0.1,2.3-0.2,3.4-0.4l-7-20.4c-0.7,1-1.7,2.8-2.3,4.4c-2.6,7.3-4.8,11-5.7,9.5
		c-0.2-0.3-1.1-0.6-2-0.6c-1.1,0-2.2,0.9-2.7,2.1l10.3,7.1C173.7,151.2,174.7,151,178.9,150.6z"/>
	<path fill="#FFFFFF" d="M216.4,176.9c2.1,0.1,2.9,0,3.6-0.7h-7.5C213.4,176.7,214.7,176.9,216.4,176.9z"/>
	<path fill="#FFFFFF" d="M182.2,123.3c-0.7,0.1-1.8,0.4-2.4,0.5c-0.8,0.2-1.6,1.1-2,2.2c-0.3,0.7-0.8,1.6-1.3,2.4l7.8-5.4
		C183.6,123.1,182.9,123.2,182.2,123.3z"/>
</g>
</svg>
