<?xml version="1.0" encoding="utf-8"?>
<!-- Generator: Adobe Illustrator 17.1.0, SVG Export Plug-In . SVG Version: 6.00 Build 0)  -->
<!DOCTYPE svg PUBLIC "-//W3C//DTD SVG 1.1//EN" "http://www.w3.org/Graphics/SVG/1.1/DTD/svg11.dtd">
<svg version="1.1" id="flag-icon-css-sc" xmlns="http://www.w3.org/2000/svg" xmlns:xlink="http://www.w3.org/1999/xlink" x="0px"
	 y="0px" viewBox="0 0 640 480" enable-background="new 0 0 640 480" xml:space="preserve">
<g>
	<path fill="#FF0000" d="M537.9,71.3c0.7,0,1-0.5,1-2.3c0-1.2-0.3-2.5-0.7-2.8c-0.3-0.2-1-0.8-1.8-1.5l-3.1,2.4
		C534.5,69.3,536.5,71.2,537.9,71.3z"/>
	<path fill="#FF0000" d="M551.1,74.8c0.5-0.5,0.5-1.1-0.1-2.5c-0.4-1-0.9-2.5-1-3.3c-0.1-0.8-0.3-2-0.5-2.7c-0.2-0.9-1-1.6-2.3-2.2
		c-2.5-1-2.1-1.1-3.4,0.3c-1,1.1-0.9,1.3,1.4,5.2C547.9,74.1,549.9,75.9,551.1,74.8z"/>
	<path fill="#FF0000" d="M459.2,126.2c3-0.4,3.8-1,3.8-3c0-2.2,0.5-2.4,2.2-1.1c0.9,0.6,2.2,1.2,3.1,1.3c1.5,0.1,1.7-0.1,2.7-3.3
		c0.8-2.4,1-4.1,0.7-5.2L457,126.2C457.6,126.4,458.3,126.4,459.2,126.2z"/>
	<path fill="#FF0000" d="M258.9,337.7c-1.2-0.2-2.8-0.9-3.4-1.5c-1.2-1.1-1.2-1.1-2.7,0.3c-1.8,1.7-1.8,1.6-0.6,3.7
		c0.6,1,1.8,1.8,3.3,2.3c1.3,0.4,3.1,1.3,4,2.1c0.9,0.7,2.1,1.3,2.6,1.2c1.3-0.2,1.4-3.2,0.2-5.6
		C261.4,338.6,260.8,338.1,258.9,337.7z"/>
	<path fill="#FF0000" d="M587.1,104.8c-0.8,1.1-1.1,2.6-1.1,5c0.1,4.9,0.6,6.6,2.2,6.6c1,0,1.7-0.9,3.1-3.8l1.9-3.8l-1.2-2.8
		C590.5,102.7,588.8,102.3,587.1,104.8z"/>
	<path fill="#FF0000" d="M487.5,102.8c0,0,0-0.1-0.1-0.1l-1.8,1.4C486.7,103.5,487.5,103,487.5,102.8z"/>
	<path fill="#FF0000" d="M266.7,320c1.7-3.1,1.7-4.6,0.2-6.6c-1.4-1.8-1.6-1.9-5-1.9c-2.1,0.1-3.9,0.3-4.5,0.8c-0.9,0.6-1,1.7-1,6.8
		v6.1h1.5C259.7,325.3,265.8,321.6,266.7,320z"/>
	<path fill="#FF0000" d="M275.8,356.9c-0.4,0.5-0.6,1.7-0.5,2.7c0.2,1.7,0.3,1.9,1.9,1.9c3.1,0,3.5-4.9,0.5-5.3
		C277,356.1,276.2,356.5,275.8,356.9z"/>
	<path fill="#FF0000" d="M467.6,297.8c1.9-1.4,2.2-3,0.6-3.8c-0.8-0.5-1.3-0.3-2,0.5c-1,1-1.1,2.2-0.6,3.7
		C465.9,298.9,466.2,298.8,467.6,297.8z"/>
	<path fill="#FF0000" d="M153.2,366c1.8,1.1,5.9,1.7,6.3,0.7c0.4-1.1-0.6-3.3-1.6-3.3c-0.5,0-1.9-0.6-3-1.4c-0.6-0.4-1-0.7-1.4-0.9
		l-2.7,2.1C151.1,364.3,152,365.3,153.2,366z"/>
	<path fill="#FF0000" d="M283,380c1.8-2.1,2.8-5,2.4-7.1c-0.2-0.8-0.9-1.1-3.7-1.4c-4.6-0.4-8.3-2.3-12.2-6.1l-3.1-3.1l-1.4,1.3
		c-0.9,0.9-1.3,1.8-1.1,2.6c0.3,1.6-0.7,1.7-2.1,0.2c-0.5-0.6-1.9-1.2-3.1-1.4c-1.2-0.2-2.5-0.7-2.9-1.2c-0.4-0.5-1-0.9-1.4-0.9
		c-1.4,0-4.3-3.9-4.3-5.9c0-2.5-0.5-3-3.2-4.1c-1.3-0.5-3.3-1.9-4.4-3.2c-1.2-1.3-2.8-2.4-3.8-2.6c-0.9-0.2-2.3-1-3-1.7
		c-1.3-1.3-1.3-1.4-0.2-2.5c1-1,1-1.2,0.1-2.6c-1-1.4-1-1.5-2.4-0.6l-1.4,0.9v-2.5c0-2.2-0.2-2.8-1.7-3.9c-1.1-0.9-1.7-1.7-1.7-2.7
		c0-1.6-1.2-3-3.1-3.7c-0.9-0.3-1-0.7-0.6-3.4c0.3-1.6,0.5-5.7,0.5-9c0-4.9,0.2-6,0.9-6.2c0.5-0.1,1.2-0.9,1.5-1.8
		c0.4-1.1,1.1-1.7,1.9-1.9c1.2-0.2,1.4-0.5,1.5-3.1c0-0.6,0-1.1,0-1.6l-67.3,52.1c0.9-0.1,1.3-0.3,2-1c1.9-1.8,3.5-1.5,6.2,1.1
		c1.7,1.7,2.1,2.3,1.4,2.3c-0.8,0-1,0.5-1,2c0,1.6,0.3,2.1,1.6,2.8c0.9,0.5,2,1.3,2.6,1.9c0.6,0.6,1.8,1.5,2.8,1.9
		c1.6,0.6,1.9,0.6,2.8-0.6c1.3-1.7,3.6-1.4,3.8,0.3c0.2,1.6,4.3,6.3,6,6.7c0.7,0.2,3.3,1.4,5.8,2.6c3.9,1.8,5.6,2.3,12,3
		c5.9,0.6,7.5,1,8,1.8c0.3,0.6,1.2,1.8,1.9,2.6c1.2,1.4,1.3,1.9,0.7,3.4c-0.6,1.7-0.5,1.9,2.2,4.7c6.1,6.5,7.5,8.2,7.5,9.7
		c0,0.9,0.3,1.6,0.9,2l49.5-17C281.3,382.1,282.2,380.8,283,380z"/>
	<path fill="#FF0000" d="M208.2,386.3c2-0.2,2.6-2.6,1-3.7c-1.4-1-1.7-1-2.5,0.6C205.7,385.2,206.4,386.5,208.2,386.3z"/>
	<path fill="#FF0000" d="M182.8,377.2c1.5,0.9,3.4-0.7,3.4-2.8c0-2.3-2.5-5.5-4.6-6c-2.3-0.5-2.3-0.5-3.5,0.3
		c-1.5,0.9-1.3,2,1.3,4.5c1.3,1.3,2.3,2.5,2.3,2.9S182.1,376.9,182.8,377.2z"/>
	<path fill="#FF0000" d="M529.9,134.6c1-0.8,2.4-1.5,3-1.7c0.6-0.2,1.4-0.8,1.7-1.4c0.3-0.6,1-1.4,1.5-1.8c1.3-1.1,0.9-4.3-1.2-7.6
		c-1-1.7-3-5.1-4.4-7.4c-3.4-5.7-4.9-7.2-8.5-8.6c-1.7-0.6-3.1-1.1-3.2-1.1s-0.6,0.3-1.1,0.6c-0.6,0.3-1,0.9-1,1.3
		c0,0.5-0.4,0.9-0.9,1.1c-0.7,0.2-0.8,0.9-0.5,2.6s0.1,2.9-0.8,4.7c-0.7,1.4-1.7,4.9-2.2,7.8c-0.9,4.8-0.9,5.5-0.1,8.3
		c1,3.5,4.6,8.5,6.7,9.5c0.9,0.3,2.3,1.5,3.4,2.6c1,1.1,2.2,1.9,2.6,1.9c0.8,0,1.4-1.3,1.4-3.2c0-1,0.3-1.4,1.2-1.4
		c1.1,0,1.2-0.2,0.9-2.5C528.1,136.2,528.2,136,529.9,134.6z"/>
	<path fill="#FF0000" d="M544.3,96.2c0.7,1,1.9,3.2,2.6,4.9c1.8,4.7,3.1,6.5,5.6,7.6c2.7,1.2,4.8,0.9,7.1-1.3
		c1.9-1.8,1.9-2.5,0.3-3.9c-1.6-1.4-2.9-3.8-3.9-7.4c-0.8-2.5-1.1-2.9-3-3.3c-1.2-0.3-2.7-1.3-3.5-2.2c-1.7-1.9-4.2-2.2-5.7-0.6
		C542.5,91.5,542.7,94,544.3,96.2z"/>
	<path fill="#FF0000" d="M485.6,111.5c1.2,0.5,3.1-1.1,3.1-2.6c0-0.8-0.5-1-2-1c-1.8,0-2,0.2-2,1.7
		C484.7,110.5,485,111.2,485.6,111.5z"/>
	<path fill="#009900" d="M243.7,439.4c1.3,0.4,2.4,0.9,2.4,1.1s-0.5,1.4-1.1,2.7c-1.7,3.3-1.5,5.7,0.5,7.1c0.9,0.7,2.5,1.4,3.5,1.5
		c1,0.2,2.2,1,2.7,1.8c0.9,1.3,0.9,1.4-0.9,3.3c-2.2,2.2-1.9,3.8,0.6,3.8c1,0,2.7,0.3,4,0.7c2.1,0.6,2.2,0.7,1.9,2.4
		c-1.1,5.6-1.1,5.9,1,6.5c1,0.3,2.5,0.7,3.3,0.8c1.1,0.1,1.5,0.6,1.6,1.7c0.2,1.7,0.6,1.9,4.7,2.5c1.5,0.2,3.1,0.8,3.7,1.4
		c1.1,1.3,2.4,0.9,3.9-1c1.3-1.7,2.6-1.7,5.7-0.1c3.5,1.8,6.6,2.2,8.2,1.2c1.8-1.2,1.9-5.8,0.2-8c-0.6-0.8-1.1-2.3-1.1-3.3
		c0-1.7-0.3-2-2.7-3c-1.5-0.6-3.7-1.4-4.9-1.8c-2.5-0.8-3-2.2-2.8-7.6c0.1-2.8-0.1-4.2-0.7-5.3c-0.5-0.7-0.9-2-0.9-2.8
		c0-0.7-0.9-4.2-2.1-7.8c-0.6-1.8-1-3.1-1.3-4.1l-31.9,5.5C241.7,438.8,242.7,439.1,243.7,439.4z"/>
	<path fill="#009900" d="M234.8,443.6c0.9-0.5,1.9-1.5,2.3-2.1c0.5-1.1,1.3-2,1.9-2.6l-9.1,1.6C232.7,444.6,233,444.6,234.8,443.6z"
		/>
	<path fill="#FFFFFF" d="M573.2,311.5c-1.1,0.7-0.2,2.9,1.3,2.9c1.6,0,3.8-1.5,3.8-2.6C578.3,310.9,574.6,310.7,573.2,311.5z"/>
	<path fill="#FFFFFF" d="M604.5,294.5c-0.1,0-1.8,0.4-3.8,0.9c-2,0.5-3.8,1.2-3.9,1.7c-0.7,1.9,0.5,4.9,3.3,7.7l2.7,2.9l3.3-0.4
		c1.9-0.2,4.3-0.9,5.5-1.5c1.8-1,2.1-1.4,2.1-3.1c0-1.6-0.4-2.3-2.4-3.9C608.9,297,604.9,294.4,604.5,294.5z"/>
	<path fill="#FFFFFF" d="M272.9,427.2c0.8-4.2,1.5-5.1,5.9-7.2l3.3-1.7l-1-1.8c-0.6-1-1.3-2.2-1.7-2.9c-0.3-0.6-0.9-4.2-1.1-8
		c-0.2-3.8-0.7-7.8-1.2-8.9c-0.5-1-0.8-2.7-0.8-3.8c0-1.5,2-5.9,4.1-9.4l-49.5,17c1.2,1,3.4,0.8,5.3-0.8c1.7-1.4,1.9-1.4,3.5-0.8
		c2.2,0.9,2.2,2.3-0.1,4.2c-1.1,0.9-1.8,2.2-2.1,3.4c-0.3,1.9-0.2,2.1,3.1,4.1c6,3.7,9,8.1,6.7,10c-1.1,0.9-7.8,3.5-9,3.5
		c-0.5,0-1.9-0.4-3-0.9c-1.9-0.9-2-0.9-3.7,0.3c-0.9,0.6-2.5,2.5-3.5,4.1c-1.7,2.6-1.8,3.1-1.4,6c0.2,2.2,1,4.1,2.4,6.2
		c0.2,0.3,0.4,0.6,0.5,0.8l9.1-1.6c0.7-0.6,1.3-0.9,1.6-0.6c0.1,0.1,0.3,0.2,0.5,0.3L273,433C272.3,430.5,272.4,429.6,272.9,427.2z"
		/>
	<path fill="#000099" d="M32.1,230c1.8,3,2.9,4.1,4.2,4.6c2,0.6,6.6,6,7.9,9.2l0.8,2l5.7,0.7c5.4,0.7,5.8,0.7,8-0.5
		c1.9-1,2.4-1.5,2.7-3.3c0.3-2.1,1.8-5.1,5.1-11c2.5-4.4,1.8-6.7-3.1-9.9c-1.1-0.7-1.7-2.1-2.6-5.4l-1.1-4.4l-3.4-1.2
		c-1.9-0.6-4.5-1.7-5.7-2.3c-3.8-1.9-6.6-2-9.3-0.2c-1.4,0.9-3.5,1.7-5.3,1.9c-3.5,0.4-4.2,1-5.8,4.1c-1,2-1.1,2.9-0.8,7.1
		C29.7,225.5,30,226.5,32.1,230z"/>
	<path fill="#FFFF00" d="M391.8,9.6c1.8-0.7,2.5-1.3,2.6-2.3c0.1-1.3-0.2-1.4-4.1-2.4c-4.6-1.1-7-1.3-7.5-0.5
		c-0.8,1.3,0.8,3.3,3.6,4.6C389.3,10.4,389.5,10.4,391.8,9.6z"/>
	<path fill="#FFFF00" d="M387.1,98.5c-1.5,0.5-3.4,2.6-3.4,3.7c0,1.3,1.4,2.3,3,2.1c1.7-0.2,3-2.7,2.5-4.6
		C388.7,98,388.6,98,387.1,98.5z"/>
	<path fill="#FFFF00" d="M468.6,112.9c-1.9,0-4.3-2.7-4.7-5.4c-0.5-2.6,0.9-5.5,3.4-7.5l2.1-1.6l1.4,1.7c3.4,4.2,6.2,6,9.2,6
		c0.9,0,3.8-1.1,5.7-2l1.8-1.4c-0.3-0.4-1.5-1.3-2.9-2.3c-5.5-3.7-6.2-4.5-6.2-6.9c0-3-1.6-3.9-7.8-4.7c-4.2-0.5-5-0.5-5.4,0.3
		c-1.4,2.6-2.6,3.4-5.5,3.8l-3,0.3l-3.4-3.3c-1.9-1.8-4.1-4.5-4.8-5.9c-1.7-3.4-3.7-3.9-6.2-1.5c-1.4,1.3-2.2,1.6-5.8,1.8
		c-5.2,0.3-6.3-0.2-7.1-3.5c-1-3.8-5.8-10.7-9.1-13.1c-1.6-1.1-3.1-2.1-3.4-2.1c-0.3,0-1.4,1.3-2.3,2.9c-2,3.2-2.7,3.4-7.3,2
		c-4.3-1.3-6.7-1.1-8.8,0.7c-1.7,1.4-1.8,1.7-1.4,4.4c0.2,1.6,1.5,5.3,2.9,8.3c2.8,5.9,2.9,6.4,1.7,8.3c-1.1,1.7-0.5,3.4,2.2,6.1
		l2.1,2l8.1,0.3c7.6,0.3,8.3,0.5,11.7,2.2l3.5,1.8v2.9c0,3.7,1.5,6.5,4.8,8.9c3,2.3,4.3,2.3,6.1,0.5c1.7-1.8,3.1-1.5,5.3,1.1
		c0.9,1,2.9,2.8,4.6,3.9c1.7,1.2,3.9,2.7,4.9,3.5c0.8,0.6,1.4,0.9,2.1,1l14.7-11.4C471.4,113.6,470.3,112.9,468.6,112.9z"/>
	<path fill="#FFFF00" d="M373.8,119.4c1,0.6,2.1,1,2.2,0.8c0.6-0.6-0.4-3.1-1.9-4.9c-1.6-1.9-2.9-2.3-3.4-1
		C370.2,115.7,371.8,118.2,373.8,119.4z"/>
	<path fill="#FFFF00" d="M228.5,294.1c-2.5-4.9-3.1-5.7-5.6-7c-1.5-0.9-3.7-2.1-4.6-2.7c-1.5-0.9-2.1-1-3-0.4
		c-1.5,1-2.5,0.9-4.2-0.4c-2.1-1.6-3.9-1.4-6.8,0.7c-2.8,2.2-3.6,4.6-2.4,7.7c1.1,2.7,1.1,5.9,0.1,7.9c-1.2,2.2-1.4,6.3-0.5,8.1
		c0.5,0.9,0.6,2.9,0.3,7c-0.3,5.5-0.5,5.8-2.2,7.1c-1.1,0.9-3,1.5-4.9,1.8c-4.1,0.5-12.3,2.8-13.9,3.9c-0.7,0.5-2.2,0.9-3.3,0.9
		c-1.3,0-4.3,1-8,2.8c-3.3,1.5-6.8,3.1-8,3.5c-1.4,0.5-2.4,1.4-3,2.7c-0.9,1.8-0.9,2.1,0,3.8c0.5,1,1.3,2.3,1.8,2.8
		c0.7,0.9,0.7,1-0.7,1.6c-1.2,0.5-1.8,0.4-2.8-0.3c-4-2.8-6.3,1-3,5c1.1,1.4,1.9,1.7,6,2.2c2.1,0.3,3.2,0.4,4,0.4l67.3-52.1
		C231,299.4,230.4,297.9,228.5,294.1z"/>
	<path fill="#FFFF00" d="M443.2,62.9c2.6-0.4,7.7-3.4,7-4.1c-0.2-0.2-2.5-0.3-5-0.2c-3.8,0.1-5.1-0.2-6.6-1.1
		c-1.1-0.6-2-1.1-2.1-1.1c-0.1,0.1-0.9,0.5-1.8,0.9c-1.2,0.7-1.9,0.7-2.9,0.3c-1.5-0.7-6.1-0.2-6.7,0.7c-0.9,1.2-0.5,2.5,1.4,4.8
		c1,1.3,2.2,3,2.7,3.9c0.7,1.3,1.8,1.9,4.5,2.9l3.7,1.2l1.9-1.1c2.2-1.4,2.3-2.1,0.7-4.1C438.7,64.1,439.5,63.5,443.2,62.9z"/>
	<path fill="#FFFF00" d="M150.8,361.5c-0.4,0.4-0.3,1.1,0,1.8l2.7-2.1C152.1,360.5,151.5,360.6,150.8,361.5z"/>
	<path fill="#FFFF00" d="M532.4,63.2c-0.3,1,0.2,2.5,1,3.9l3.1-2.4c-0.3-0.3-0.7-0.6-1-0.9C533,61.9,532.8,61.8,532.4,63.2z"/>
</g>
</svg>
