<?xml version="1.0" encoding="utf-8"?>
<!-- Generator: Adobe Illustrator 17.1.0, SVG Export Plug-In . SVG Version: 6.00 Build 0)  -->
<!DOCTYPE svg PUBLIC "-//W3C//DTD SVG 1.1//EN" "http://www.w3.org/Graphics/SVG/1.1/DTD/svg11.dtd">
<svg version="1.1" id="flag-icon-css-sd" xmlns="http://www.w3.org/2000/svg" xmlns:xlink="http://www.w3.org/1999/xlink" x="0px"
	 y="0px" viewBox="0 0 640 480" enable-background="new 0 0 640 480" xml:space="preserve">
<g>
	<path d="M421.9,320.2c0-0.1,0-0.1,0-0.2H213.4l-46.5,34.9c1.2,0.4,2.7,0.6,5.4,0.7c7.1,0.4,7.9,0.6,7.9,2c0,0.6-0.5,2.1-1.2,3.3
		c-1.7,3.2-1.5,4.9,0.6,6.7c1.8,1.6,1.8,1.6,10.2,0.7c2.3-0.3,2.4-0.2,4.2,1.8c2.5,2.7,5.7,5,7,5c1.2,0,3.5,2.7,3.5,4.1
		c0,0.5-0.3,1.2-0.7,1.5c-2,1.7-1.5,4.6,1,5.7c0.7,0.3,1.2,0.9,1.2,1.3c0,0.5,0.6,1.1,1.4,1.4c0.8,0.3,1.7,1,2.1,1.5
		c0.5,0.7,1.4,1,3.1,1.2c1.8,0.1,2.9,0.6,4.2,1.5c0.9,0.7,2.5,1.6,3.6,2.1c1.5,0.6,2.2,1.3,3.3,3.1c1.1,2.1,1.5,2.4,3.7,3
		c1.5,0.5,2.8,1.2,3.6,2.1l1.2,1.4l-1.2,1.8c-1.2,1.8-1.2,1.8-0.3,3.6c0.6,1.4,1.5,2.2,3.3,3.1l2.5,1.4l-2,1.8
		c-1.7,1.5-1.9,1.8-1.2,2.1c0.5,0.2,1.2,0,1.7-0.4c1.1-1,1.3-0.9,1.6,0.2c0.1,0.5,0.6,0.9,1.1,0.9c1.1,0,4.8,1.7,5.5,2.5
		c0.3,0.4,2.1,1.4,4.2,2.2c3.1,1.3,3.8,1.8,4.5,3.2c0.5,0.9,1.2,2,1.6,2.3c0.5,0.4,0.6,1.1,0.4,2.1c-0.1,0.8,0,2.7,0.3,4.2
		c0.5,2.4,0.7,2.7,2.1,3.2c1.5,0.5,1.6,0.7,1.6,2.7c0,2.9,0.8,3.6,5.4,4.2c4.2,0.6,6.8,2.1,7.7,4.4c0.3,0.9,1.1,1.7,2,2.1
		c0.9,0.4,1.8,1.3,2.4,2.7l1,2h2.8c2.2,0,3,0.2,4.2,1.2c1.4,1.2,2.6,1.4,5.7,0.8c1.5-0.2,1.9-0.6,2.6-2.1c0.6-1.4,1-1.8,2-1.8
		c0.7,0,1.5,0.3,1.8,0.7c0.7,0.8,6.9,2.9,9.9,3.4l2.2,0.3l1.8-2.8l1.8-2.9l2.8,0.3c4.2,0.4,5,0.9,5.8,3.9c0.6,2.3,1.2,3.1,5.6,7.6
		c4.6,4.7,5.1,5,6.8,5c1.5,0,2.1,0.3,3.1,1.6c0.7,1,1.3,2.2,1.3,3c0,1.1,0.4,1.6,2.1,2.6c1.2,0.7,2.2,1.2,2.3,1.2
		c0.1,0,0.8-0.9,1.6-2.1c0.8-1.4,1.6-2.1,2.3-2.1c0.5,0,1.4-0.4,1.8-0.9c1.3-1.4,4.3-1.2,7.6,0.4c2.6,1.3,2.7,1.3,4.5,0.6
		c1-0.4,2.6-1.2,3.5-1.8c1.9-1.3,2.8-0.9,4.6,1.9c0.6,1,1.4,1.7,1.7,1.7c0.4,0,0.7,0.5,0.9,1.2c0.2,1,0.6,1.2,2.1,1.2
		c1.6,0,1.8-0.1,1.8-1.1c0-1.7,4.5-4.5,7.2-4.5c3.7,0,9.7-1.4,11.2-2.6l1.5-1.2l1.4,1.2c1.3,1.1,1.7,1.2,6.5,1.2h5.1l11.1-11.4
		l11.1-11.4l8.3-3.5c4.6-2,8.8-3.5,9.4-3.5c0.5,0,1.6-0.5,2.4-1c1.7-1.2,2.5-0.7,1.8,1.1c-0.5,1.3,0,1.7,1.9,1.7
		c0.8,0,0.9,0.2,0.7,1.4c-0.1,0.8,0,2.1,0.4,3c0.6,1.4,0.8,1.6,2.3,1.6c0.9,0,1.7-0.2,1.7-0.4c0-0.8,1.5-1,2.3-0.3
		c1.7,1.5,2.9,0.3,1.5-1.5c-1.4-1.8-1.9-9.2-0.8-10.4c0.6-0.7,0.7-1.4,0.5-3.1c-0.3-2.9-1.1-3.5-4.5-3.1c-2.4,0.2-2.8,0.1-3.2-0.7
		c-0.7-1.2-1.5-1.3-2.6,0c-1.2,1.3-2.6,0.5-2.6-1.6c0-1.2-0.4-1.8-1.8-2.9c-1-0.8-2.5-2.8-3.3-4.3c-1.4-2.5-1.5-3.2-1.3-5.3
		c0.2-2.1,0.1-2.5-1-3.6c-1.5-1.7-2.4-4.1-2.8-8c-0.2-2.4-0.4-3.1-1-3.1c-0.4,0-1.2-0.5-1.8-1.1c-0.6-0.6-2-1.4-3.2-1.9
		c-1.6-0.6-2.1-1.1-2.1-1.8c0-1.5-0.5-2.1-2.9-3.1c-2.3-1-3.6-2.5-3.6-4.1c0-0.8-0.5-1.3-2.1-2c-1.6-0.7-2.1-1.2-2.1-2
		c0-0.6-0.9-2.1-2-3.4c-1.1-1.3-2.4-2.9-2.8-3.6c-0.9-1.4-3.8-2.7-5.8-2.7c-0.7,0-1.6-0.3-2-0.7c-0.4-0.5-1-0.7-2.1-0.4
		c-1.2,0.2-2,0-3.2-0.7c-0.9-0.6-2.6-1.2-3.9-1.4l-2.2-0.3v-2.8c0-1.5,0.2-2.8,0.5-2.9c0.3-0.1,1.2-0.6,2-1.1
		c1.3-0.8,1.5-1.2,1.5-2.7c0-2.4,0.8-5.3,1.5-5.3c1.6-0.2,6.1-0.4,9-0.4c1.8,0,4.2-0.3,5.3-0.6c1.7-0.5,2.2-0.9,2.6-2.1
		c0.3-0.8,0.9-1.9,1.5-2.3l1-0.8l-0.6-11.4l-0.7-11.4l1.8-2.7C421.7,323.4,421.9,322.9,421.9,320.2z"/>
	<path fill="#FFFFFF" d="M320,240l-106.6,80h208.6c0-2.4,0.2-2.8,1-3.1c1.4-0.5,2-2.3,1.2-3.9c-0.4-0.7-0.7-2.3-0.8-3.6
		c-0.2-2.1,0-2.7,2.4-6.6c2.4-4,2.7-4.3,4.1-4.3c1.2,0,1.7,0.3,2.8,1.9c0.7,1,1.6,1.8,2.1,1.9c1.2,0,2.1-1.3,2.1-2.9
		c0-0.7,0.5-2.3,1.2-3.6c1.4-2.7,1.4-3.4,0.5-4.2c-1.2-1-0.8-3.4,0.7-5.4c0.8-1,1.4-1.9,1.4-2.1c0-0.1,0.2-1.2,0.4-2.2
		c0.3-1.6,0.2-2.1-0.5-2.8c-0.8-0.7-0.8-0.8,0-2c0.4-0.7,1.9-2.4,3.2-3.9c1.4-1.5,2.6-3.3,2.8-4c0.7-3.4,1.7-5.5,4.6-9.4
		c1.7-2.4,3.2-4.6,3.3-4.9c0.1-0.3,1.8-0.8,4-1.2c3.4-0.6,3.8-0.5,4.7,0.3c1.4,1.2,1.8,0.3,1.8-4.1c0-3,0.5-5,3-13.5
		c1.7-5.5,3-10.7,3-11.6c0-1,0.5-2.2,1.2-3.1c0.7-0.8,1.2-2.1,1.2-2.8c0-0.7-0.9-6.1-2.1-11.8c-1.7-8.7-2-10.5-1.4-10.9
		c0.8-0.7,1.7-3.3,1.7-5.4c0-1.7,2.5-9.8,3.5-11.5c0.3-0.5,0.8-2.8,1.1-5.1c0.3-2.3,0.7-4.3,1-4.5c0.3-0.1,0.6-1.4,0.7-2.8
		c0.2-2.4,0.2-2.6-1-3.2c-1.2-0.6-1.3-0.8-1.1-3.1c0-0.2,0-0.3,0.1-0.5H213.4L320,240z"/>
	<path fill="#FF0000" d="M213.4,160h262.4c0.2-1.6,0.6-2.4,1.6-3.7c0.8-0.9,1.5-1.8,1.5-1.9c0-0.1-0.4-1-0.9-2.1
		c-0.5-1-0.9-2.5-0.9-3.3c0-1.4,0-1.5,1.8-1.2c0.9,0.1,2.8,0.3,4.2,0.4l2.5,0.1l0.6-2.1c0.4-1.2,0.7-2.7,0.7-3.4
		c0-1.4,3-4.1,4.6-4.1c0.7,0,1-0.3,1-0.8c0-0.5,0.3-1.3,0.7-1.8c0.7-0.8,0.7-0.8,1.4-0.1c0.8,1.1,2.1,1.1,2.1,0c0-0.5,0.4-1.4,0.9-2
		l0.8-1.1l0.3,1c0.5,1.4,1.1,1.3,1.8-0.1c0.4-1,0.7-1.2,1.8-0.9c1.1,0.2,1.4,0,2.1-1.5c1-2.3,3.1-4.6,4.5-5c1.7-0.5,2.3-1.2,2.3-2.4
		c0-1.1-1.2-1.6-1.5-0.7c-0.3,0.8-3.2-0.8-3.2-1.8c0-1.3-0.7-1.6-1.8-0.9c-1.1,0.7-1.9,0.1-1.1-0.7c0.3-0.3,0.6-0.7,0.6-0.9
		c0-0.7-1.4-0.4-1.7,0.3c-0.4,1.1-3-0.1-3.3-1.6c-0.6-2.4-0.7-2.8-1.3-2.8c-0.3,0-1.1-0.9-1.8-1.9c-1-1.5-1.7-1.9-3.2-2.1
		c-1.4-0.2-2.1-0.7-2.8-1.6c-0.9-1.3-1.1-1.4-3.5-1.1c-2.7,0.3-2.7,0.4-3.3-2.3c-0.2-1.1-0.4-1.3-0.9-0.8c-0.4,0.3-0.7,0.5-0.7,0.4
		c-0.4-3.9-0.4-5.8,0.1-6.1c0.4-0.3,0.1-0.7-1-1.7c-1.1-0.9-1.5-1.6-1.5-2.6c0-0.7-0.4-2-0.9-2.8c-1.2-1.9-1.7-4.9-1.5-9.1
		c0.1-2.9,0-3.4-0.7-3.4c-0.4,0-0.6-0.2-0.5-0.5c0.2-0.3-0.1-1.2-0.7-2c-0.7-1.1-0.8-1.7-0.5-2.3c0.3-0.4,0.3-1.1,0.1-1.4
		c-0.3-0.5-1-4.4-1.2-7.3c0-0.7,0.2-1.4,0.5-1.8c0.7-0.8,0.7-2.5-0.1-3.6c-0.4-0.5-0.7-1.5-0.7-2.4c0-1.7-1.7-6.5-2.7-7.7
		c-0.3-0.4-0.5-1.1-0.4-1.5c0.2-0.4,0-1.4-0.5-2.1c-0.9-1.8-0.7-1.8,1.6-0.3c1.9,1.2,2.5,2,1.2,1.4c-0.7-0.2-0.6,0,0.1,1.1
		c0.8,1.4,2.5,1.9,2.5,0.7c0-1.8-1.1-3.2-4.2-5.2c-3.8-2.5-4.9-3.8-5.6-6.2c-0.3-0.9-1.1-2.4-1.8-3.3c-1.1-1.4-1.4-2.3-1.7-5.3
		c-0.4-4.6-0.5-4.8-2.3-5.5c-2.1-0.8-4.5-2.4-4.5-3.1c0-0.3-0.9-0.7-2.1-0.9c-2.2-0.3-3.5-1.5-3.5-3.1c0-0.5-0.7-1.2-1.8-1.8
		c-1-0.5-2.1-1.4-2.5-1.8c-0.8-1.2-2.8-1.9-5-1.9c-1.2,0-2.1-0.3-2.6-0.9c-0.4-0.5-1.6-1.2-2.5-1.4c-2.2-0.7-2.8-1.3-3.6-3.1
		c-0.7-1.7-1.4-1.9-2-0.5c-0.3,0.8-0.5,0.5-1.5-2.1l-1.2-3.1l-4.4,3.6L418,8.3L414.9,8l-3-0.3l-2.2,6.4l-2.2,6.4l-5.6,2.5
		c-3.1,1.4-5.8,2.9-6,3.3c-0.2,0.4-0.6,2.4-0.7,4.5c-0.2,2.1-0.4,4.1-0.6,4.5c-0.3,1-5.2,2-7.8,1.6c-2.4-0.4-6.8-2.5-8.7-4.2
		c-1.4-1.2-1.7-1.2-5-1c-8.2,0.6-55.3,2.2-118.3,4.2c-36.9,1.1-67.2,2.1-67.2,2.2c-0.1,0.1,0.1,10.8,0.4,23.7
		c0.3,13.6,0.4,23.7,0.1,23.8s-5.3,0.4-11.2,0.6c-6,0.2-11,0.5-11.2,0.7c-0.1,0.2,0.2,16.9,0.7,37.8L213.4,160z"/>
	<path fill="#009A00" d="M320,240l-106.6-80l-47-35.2c0,0.9,0.1,1.9,0.1,2.9c0.6,22.2,1.2,45,1.3,50.7l0.2,10.4l-3.2-0.3
		c-2.5-0.2-3.8-0.1-6.4,0.7c-2,0.6-4.5,1-6.5,1c-2.5,0-3.7,0.2-5,1c-2.2,1.3-3.2,3.2-2.6,4.9c0.6,1.6,0.6,4.3,0,4.7
		c-0.2,0.1-0.5,1.1-0.5,2.1c0,1.4-0.3,2.1-1.8,3.3c-2.8,2.4-3.5,4-2.9,6.1c0.3,0.9,0.5,1.8,0.5,1.9c0,0.1-1.3,0.4-2.9,0.6
		c-4.2,0.5-5,0.7-5.3,1.8c-0.2,0.7,0.2,1.5,1.2,2.7s1.4,2.3,1.4,3.4c0,1,0.3,1.7,0.9,2.1c1.4,0.8,1.2,2.6-0.2,3.3
		c-0.7,0.3-1.9,1.2-2.7,2c-0.8,0.7-2.6,2.2-3.9,3.4c-2.8,2.2-3.1,3.4-1.4,6c1.5,2.3,2,5.7,1,8c-0.6,1.4-1.2,2-3.2,2.9
		c-3.7,1.7-4.9,2.9-5.3,6.1c-0.3,2.4-0.2,2.8,0.9,4.2c1.2,1.5,1.3,1.6,4.7,1.6c3,0,3.5-0.1,3.7-0.9c0.1-0.5,0.5-0.9,0.7-0.9
		c0.4,0,4.1,1.7,4.6,2.1c0.1,0-0.1,1.2-0.5,2.5c-0.6,2.2-0.5,2.5,0.7,5.4c0.7,1.7,2,3.8,2.7,4.8c1.1,1.4,1.4,2.1,1.1,3.4
		c-0.1,0.9-0.4,2.9-0.6,4.5l-0.3,2.8l3,3.1c2.6,2.6,3.3,3.1,4.6,3.1c0.9,0,1.8,0.2,2.1,0.6c0.8,0.8,0.7,3.6-0.5,6.3l-1,2.4l1.6,3.6
		c1.5,3.3,1.7,3.6,3.8,4.5c2.1,0.8,2.7,1.5,8.5,10.1l6.3,9.2v5.8v5.8l-1.8,2.5c-2.7,3.7-2.9,4.4-2.4,5.7c0.3,0.7,0.8,1.2,1.4,1.2
		c0.8,0,0.9,0.3,0.8,1.7c-0.1,1.5,0.1,1.8,1.7,2.7c0.4,0.3,0.9,0.5,1.4,0.6l46.5-34.9L320,240z"/>
</g>
</svg>
