<?xml version="1.0" encoding="utf-8"?>
<!-- Generator: Adobe Illustrator 17.1.0, SVG Export Plug-In . SVG Version: 6.00 Build 0)  -->
<!DOCTYPE svg PUBLIC "-//W3C//DTD SVG 1.1//EN" "http://www.w3.org/Graphics/SVG/1.1/DTD/svg11.dtd">
<svg version="1.1" id="flag-icon-css-se" xmlns="http://www.w3.org/2000/svg" xmlns:xlink="http://www.w3.org/1999/xlink" x="0px"
	 y="0px" viewBox="0 0 640 480" enable-background="new 0 0 640 480" xml:space="preserve">
<g>
	<path fill="#FECC00" d="M268.4,288.2v-96h3v-15.5c-0.4-0.2-0.9-0.5-1.5-0.8c-4.9-2.5-6-2.6-9-1.1c-2.4,1.2-6.2,5-8.3,8.3
		c-1.2,1.9-2.9,4.2-3.9,5.3c-1.8,2-1.8,2.1-0.9,5.7c0.2,0.8-0.3,1.9-2.1,4.3l-2.3,3.2l1.4,4.3l1.4,4.3l-1.4,2.4
		c-1.4,2.2-1.4,2.5-1.1,4.8c0.4,2.2,0.3,2.8-0.8,5l-1.3,2.5l1.3,5l1.3,5l-1.2,9.3c-0.6,5.1-1.2,10.1-1.2,11c0,2.2,2.2,5.3,4.1,5.7
		c1.1,0.2,1.7,1,3.5,4.2l2.2,3.9l-0.7,2.7c-0.3,1.5-0.9,2.9-1.4,3.1s-1.2,1.2-1.7,2.2c-0.9,1.7-0.9,1.8-4,2.1
		c-1.9,0.1-3.4,0.5-3.8,0.9c-0.7,0.7-0.6,0.8,0.3,2c0.5,0.7,1,1.8,1,2.4c0,1.7,2.3,10.5,3,11.6c1,1.5,0.4,5.2-1.3,7.3
		c-1.3,1.7-1.4,2-1.1,4.5l0.3,2.8l-3.9,3.7c-3.7,3.6-3.9,3.8-5.6,3.5c-2.7-0.4-3.6,0.6-3,3.3c0.6,2.6-0.2,4.9-1.8,4.9
		c-1.3,0-2.6,1.8-2.6,3.6c0,0.7,0.3,2.5,0.7,3.9c0.8,3.1,1,6.5,0.4,7.7c-0.3,0.5-0.6,1.7-0.8,2.6c-0.1,0.9-0.7,2.5-1.2,3.5
		c-0.5,1-1.1,2.4-1.4,3.1c-0.3,0.8-0.9,1.4-1.4,1.4c-2.6,0.2-2.6,0.2-2.4-1.3c0.2-2.1-1.6-6.7-2.7-6.7c-1.5,0-3.3,2-3.3,3.5
		c0,0.7,0.1,4.8,0.3,9c0.1,4.2,0.4,8,0.7,8.5c0.7,1.3,0.6,1.9-0.5,1.9c-1.5,0-1.1,1.6,0.6,2.4c0.9,0.4,1.5,1,1.6,1.7
		c0.1,0.6,0.3,1.1,0.6,1.1c0.7,0,2.3,2,2.3,2.7c0,0.5-0.3,0.6-1.1,0.4c-0.8-0.2-1.4,0-1.9,0.7c-0.6,0.9-0.6,1.1,0.2,2
		c0.8,0.8,2.2,1.3,4.8,1.3c0.4,0,0.8,0.2,0.8,0.5c0,0.2-0.5,0.4-1.1,0.4c-0.6,0-1.8,0.5-2.8,1.2c-1.7,1.2-1.7,1.2-1,2.3
		c0.8,1.3,1.4,1.4,1.8,0.7c0.1-0.3,0.9-0.8,1.6-1.2l1.4-0.7l-0.3,1.8c-0.1,0.9-0.7,2.2-1.2,2.7c-0.8,0.9-0.8,1.2-0.3,2
		c0.4,0.5,0.9,1,1.4,1.1c0.5,0.1,0.3,0.4-0.6,0.8c-1.8,0.8-1.4,2.1,0.6,2.3c1.1,0.1,1.4,0.4,1.1,0.6c-0.8,0.5-0.7,1.5,0.1,2.4
		c0.4,0.4,0.6,1,0.4,1.3c-1,1.6-0.6,8.8,0.5,8.8c0.3,0,1.1-1,1.6-2.2c1.2-2.4,1.7-2.1,1,0.6c-0.3,1.2-0.3,2,0,2.6
		c0.4,0.7,0.4,1-0.1,1.6s-0.5,0.8,0,1.2c0.4,0.2,0.5,0.4,0.1,0.7s-0.2,0.7,0.4,1.6c0.6,0.7,0.9,1.6,0.7,2.2c-0.2,0.7,0.1,1.5,1,2.5
		c0.7,0.8,1.3,2,1.3,2.7c0,1,0.3,1.4,1.5,2c1.8,0.8,3.3,3.5,3.5,6.4c0.1,1.1,0.4,2,0.7,2c0.3,0,0.7,0.5,0.8,1c0.2,0.8,0.6,1,1.7,0.8
		c1.2-0.2,1.4,0,1.7,0.9c0.4,1.6-0.9,5.4-1.9,5.6c-0.5,0.1-1-0.1-1.2-0.4c-0.3-0.5-0.7-0.5-1.8,0c-1.7,0.7-1.8,1.4-0.5,2.5
		c0.5,0.5,0.9,1.1,0.9,1.5c0,0.3,0.3,0.7,0.7,0.9c0.4,0.2,0.7,0.8,0.7,1.4c0,1.6-1.8,1.5-3.5-0.3c-1.4-1.5-3-1.9-3-0.7
		c0,1,1.4,4.5,2.4,5.9c0.5,0.7,1.3,2.5,1.8,3.9c0.8,2.7,0.8,2.7-0.1,3.5c-1.2,1-0.9,1.6,1.5,2.8c1.6,0.8,1.8,1.1,1.7,2.4
		c-0.1,1.2,0.1,1.6,1.2,2.1c2.3,1.1,1.2,3.5-1.9,4.1c-1.7,0.4-2,1.5-0.6,2.8c1.3,1.2,1.2,2.3-0.2,2.9c-1.4,0.6-1.5,1.5-0.3,1.5
		c0.4,0,1.4,0.3,2,0.7c0.7,0.3,2,0.7,3,0.9c1,0.2,2.5,0.7,3.4,1.3l1.6,0.9l2.1-1.5c1.6-1.2,2.7-1.5,4.2-1.6c1.2,0,2.6-0.2,3.2-0.4
		c0.7-0.2,1.6,0,3.1,0.8c2.5,1.5,4.9,1.6,4.9,0.3c0-0.5,0.3-1,0.7-1.1c0.4-0.2,1.1-1.2,1.6-2.2c1-2,1-2.5-0.5-5.1
		c-1.1-1.8-1.3-2.8-0.8-4.8c0.4-2.4,2-4.8,3.3-5.3c0.4-0.1,1.2-0.8,1.6-1.6c0.9-1.5,1.4-1.6,2.6-0.7V288.2H268.4z"/>
	<path fill="#FECC00" d="M271.4,192.2h-3v96h3V288h53.8c-0.1-0.3-0.1-0.6-0.2-0.8c-0.7-1.7-0.7-1.7,0.2-2.8c0.7-0.8,0.7-0.8,0-0.8
		c-0.9,0-0.8,0.1-1.1-3c-0.1-1.6,0-2.5,0.6-3.1c0.5-0.5,0.6-1.2,0.4-2c-0.2-0.7-0.1-1.2,0.2-1.2c0.7,0,0.6-1.4-0.2-1.7
		c-1-0.4-1.3-1.8-0.7-3.2c0.4-0.9,0.4-1.5,0-2.3c-1-2.1-1.1-3.2-0.3-4.3c0.5-0.7,0.7-1.6,0.5-2.3c-0.3-1.3-0.2-1.3,1.9-0.6
		c1,0.4,1.7,1,2,1.9c0.8,2.3,1.4,1.7,2.1-1.8c0.3-1.4,0.2-1.4-1.1-1.4c-1.3,0.1-1.4,0-1-1.2c0.3-1,0.2-1.3-0.4-1.5
		c-0.7-0.2-0.8-0.7-0.7-2.2c0.1-1.1,0.4-2.5,0.7-3.2c0.2-0.7,0.4-1.4,0.2-1.6c-0.1-0.2,0.2-1.4,0.8-2.7c0.7-1.4,1-2.7,0.8-3.4
		c-0.2-1-0.2-1.1,0.7-0.5c0.8,0.5,1.1,0.5,1.6,0c0.4-0.4,0.1-0.7-1.2-1.3c-0.9-0.4-1.9-1.1-2-1.5c-0.2-0.4-0.6-1-0.9-1.3
		c-0.5-0.4-0.6-0.8-0.1-1.9c0.3-0.7,0.4-1.8,0.3-2.3c-0.1-0.5,0-1.3,0.2-1.6c0.3-0.6,0.5-0.6,1.1-0.1c0.4,0.4,0.7,0.9,0.7,1.3
		c0,0.7,1.7,1.7,2.3,1.4c0.2-0.1,0.3-0.6,0.1-0.9c-0.4-1.1,0.2-2.3,0.9-1.7c0.7,0.6,1.7-0.1,1.7-1.2c0-0.3,0.4-0.7,0.9-0.8
		c1.2-0.3,1.8-1.7,0.8-2.2s-0.9-3.1,0-4.7c0.8-1.4,1.5-1.7,1.5-0.6c0,1,0.4,0.9,1.6-0.6c0.6-0.7,1-1.6,0.9-2.1c-0.3-1,0.7-1.6,1-0.7
		c0.3,0.9,1.1,0.9,2.2,0.1c0.7-0.5,0.7-0.7,0.1-1.8c-0.6-1.2-0.6-1.3,0.3-1.4c0.6-0.1,1-0.5,1-0.8c0-0.5-0.6-0.7-1.9-0.7
		c-2.7-0.1-2.8-0.1-2.3-0.7c0.3-0.3,1.3-0.5,2.3-0.6c2.1-0.1,3.5-1.3,3.2-2.7c-0.2-0.8,0.2-1.5,2-3.2l2.2-2.1l0.9,1.1
		c0.8,1,0.9,1,1.8,0.2c0.5-0.5,1-1.3,1.2-1.8c0.1-0.5,0.7-1.4,1.1-1.9c0.5-0.5,0.9-1.5,1-2.3c0.1-1.1,0.4-1.4,1.7-1.8
		c1.6-0.4,1.6-0.7,0.7-2.8c-0.2-0.4-0.1-0.8,0.1-0.8c0.5,0,2.9,3,2.9,3.6c0,0.3,0.4,0.4,0.9,0.2c0.7-0.2,0.9-0.7,0.9-1.6
		c0-1.7,1.6-3.9,2.9-3.9c0.8,0,1-0.2,0.9-1.4c0-0.1,0-0.1,0-0.2L271.4,192.2L271.4,192.2z"/>
	<path fill="#006AA7" d="M361,388c-0.3,0-1.2,0.6-1.8,1.4c-1,1.1-1.6,1.4-3,1.4c-1.4,0-1.9,0.2-2.1,0.9c-0.1,0.5-0.5,0.9-0.7,0.9
		s-0.5-0.4-0.5-0.9c0-1.2-1.6-1.3-2.4,0c-0.3,0.5-1.3,1.2-2.1,1.6c-1.1,0.6-1.9,1.5-2.9,3.8c-0.9,2-2.1,3.7-3.4,4.8
		c-2,1.8-2,1.8-1.4,3.3c1,2.5,1.2,6.1,0.3,6.6c-0.9,0.5-1,1.6-0.1,2.1c0.6,0.3,1.1,2.1,1.4,4.8c0,0.7,0.5,1.2,0.9,1.3
		c0.8,0.2,1.1,1,0.3,1c-0.2,0-0.7,0.7-1.1,1.6s-0.9,1.8-1.2,1.9c-0.9,0.6,0,1.2,1.8,1.2c2.1,0,2.8-1.2,2.5-3.6c-0.2-1,0-1.7,0.7-2.3
		c0.5-0.5,0.8-1.1,0.7-1.4c-0.2-0.7,3.4-3.5,4.5-3.5c1.4,0,1.7-1,0.5-1.9c-1-0.7-1-0.8-0.2-1.5c0.4-0.4,1.7-1.4,2.8-2
		c1.1-0.7,2.1-1.4,2.1-1.6s-0.6-0.7-1.3-1.1c-2-1-2.7-2-2-2.8c0.3-0.4,0.5-1.4,0.5-2.2c-0.2-3,0-4.1,0.9-4.1c1,0,2-0.8,2-1.7
		c0-0.4,0.7-1.3,1.6-2.1c0.9-0.8,1.6-1.7,1.6-2.1s0.5-1.1,1.1-1.6C362.2,389.3,362.2,388,361,388z"/>
	<path fill="#006AA7" d="M308.3,449.4c1.4-0.9,2.5-3.5,2.6-5.7c0-1.8,0.7-4,2.5-8.8c0.4-1,0.7-2.3,0.7-2.8c0-0.6,0.5-1.7,1.1-2.6
		c1.3-2,2.1-3.9,2.3-6.1c0.1-1,0.9-3.1,1.7-4.8c0.8-1.6,1.4-3.5,1.4-4.2c0-0.6,0.4-1.7,0.9-2.3c0.9-1.1,0.9-1.2,0-2
		c-1.3-1.1-1.7-0.9-2.8,1.2c-0.5,1.1-1.4,3.7-2,5.7c-1,3.8-3.8,9.4-5.1,10.4c-0.7,0.5-1.1,1.3-3.9,7.8c-1.3,2.9-1.6,6.7-0.7,7.6
		c0.3,0.3,0.5,1.8,0.3,3.8C307.4,450,307.4,450,308.3,449.4z"/>
	<path fill="#006AA7" d="M271.4,288v0.2v167.2c0.1,0.1,0.2,0.2,0.3,0.3c1.6,1.2,3.5,0.6,3-1.1c-0.9-3.8-1-3.5,0.7-3.6
		c0.9,0,1.9,0,2.3,0c2.6,0.3,4.2,0.3,4.5,0c0.4-0.7,2.1-0.5,2.1,0.2c0,1.1,0.9,1.4,2.1,0.6c0.6-0.4,1.4-0.6,1.9-0.5
		c0.4,0.2,1,0.1,1.3-0.1c1.4-1,5.5,0.4,5.5,1.8c0,1.1,1.2,1.1,2.3,0c1.2-1.2,3.1-5,4-8c0.4-1.4,1.2-3.5,1.6-4.7
		c0.5-1.2,1-2.7,1.2-3.4c0.1-0.7,0.7-1.4,1.3-1.7c1.4-0.5,2-2.5,2.7-8.7c0.3-2.9,0.8-4.8,1.2-5c0.9-0.5,0.8-3.4,0-4.2
		c-0.8-0.8-0.9-2-0.2-2.4c0.3-0.1,0.5-0.8,0.5-1.4c0-0.6,0.2-1.1,0.5-1.1c0.3,0,0.5-0.3,0.5-0.7s0.4-1,0.9-1.3
		c0.5-0.3,1.1-1.4,1.4-2.5c0.3-1,0.8-2.5,1.1-3.3c0.8-2.4,0.7-2.8-0.4-2.7c-1.5,0.2-1.4-1.6,0.2-2.9l1.3-1l-1.7-2.3
		c-2.2-3.1-2.2-3.6,0.1-3.2c1.6,0.2,1.8,0.2,2.1-0.8c0.1-0.7,0-1.7-0.3-2.4c-0.4-1-0.4-1.3,0-1.6c0.4-0.2,0.6-0.8,0.4-1.5
		c-0.1-0.8,0-1.3,0.5-1.5c0.4-0.1,0.6-0.5,0.4-0.9c-0.1-0.3,0-0.9,0.3-1.2c0.4-0.4,0.2-0.9-0.5-1.9c-0.7-1-0.8-1.4-0.4-1.6
		c0.4-0.1,0.2-0.6-0.5-1.4c-0.7-0.8-0.9-1.2-0.5-1.4c1-0.3,0.1-1.7-1.6-2.4c-0.9-0.4-1.8-0.9-1.9-1.2c-0.4-0.7-0.2-0.7,2.1,0.2
		c1.6,0.7,2.1,0.7,3.7,0.2c1.4-0.5,1.8-0.8,1.8-1.6c0-0.8-0.3-1.1-1.4-1.3c-1.1-0.2-1.3-0.5-1.1-1.2s-0.1-1-1.3-1.4
		c-1.5-0.5-1.5-0.5,0.5-0.3c4.4,0.5,5.4,0.1,4.8-1.8c-0.2-0.7-0.1-0.8,0.9-0.6c0.9,0.2,1.4,0,1.8-0.7c0.4-0.6,1.1-0.9,2.1-0.9
		c1.2,0,1.6-0.2,1.8-1.2c0.1-0.7,0.6-1.2,0.9-1.2s0.7-0.5,0.7-1.2c0-0.7,0.2-1.1,0.5-0.9c0.3,0.1,0.5,0,0.5-0.4
		c0-0.4,0.3-0.7,0.6-0.7c0.3,0.1,0.5-0.3,0.5-1.2c-0.1-1.4,0.3-1.6,1.1-0.7c0.3,0.3,0.6-0.1,0.8-1.7c0.2-1.3,0.6-2.6,0.9-3.1
		c0.5-0.7,0.6-0.5,0.4,1.4c-0.1,1.9,0,2.8,1.1,5l1.3,2.7l0.3-1.5c0.6-2.6,2.7-5.7,4.6-6.7c1-0.5,1.9-1.2,2.1-1.6
		c0.2-0.4,0.8-0.9,1.5-1.3c1.5-0.7,1.9-2.1,0.9-3.2c-0.9-1-0.6-1.1,0.7-0.4c0.7,0.4,1.2,0.2,2.5-1.1c1.5-1.5,1.6-1.7,1.1-3.1
		c-0.6-1.7-1.6-2.1-4.8-2.1c-2.4,0-3.5-0.8-1.5-1.1c0.6,0,1.8-1,2.8-2c0.9-1,2.1-1.8,2.7-1.8c0.6,0,1-0.3,1-0.7s0.4-0.9,0.8-1
		c1.1-0.4,1.5-1.2,1.2-2.1c-0.2-0.7-0.1-0.7,1-0.3c1.6,0.6,2,0.3,0.9-0.9c-0.9-1-0.5-1.4,1.6-1.3c1,0.1,1.2-0.1,1.2-1.5
		c0-0.9,0.2-2,0.4-2.4c0.4-0.9-1.2-2.7-2.3-2.7c-0.4,0-0.7-0.4-0.7-0.8c0-0.9-0.9-3.6-1.8-5c-0.5-0.9-0.8-1-2.7-0.8
		c-2,0.2-2.1,0.2-2.1-0.9c0-0.7,0.4-1.6,0.9-2.1c1.3-1.2,1.7-2.9,0.8-2.9c-0.4,0-0.8-0.5-1-1.2c-0.1-0.6-0.6-1.4-0.9-1.7
		c-0.4-0.3-0.7-1.1-0.7-1.8c0-1.6-1.2-2.8-2-2c-0.4,0.4-0.4,1,0.2,2.2c0.4,0.9,0.8,1.9,0.8,2.1c0,0.8-1.9,0.5-2.7-0.5
		c-0.5-0.5-1-0.9-1.2-0.9c-0.6,0-2.1-2-2.2-2.7c0-0.3-0.3-0.6-0.7-0.6c-0.5,0-0.7-0.5-0.7-1.9c0-1.7-0.1-1.9-1.3-1.9
		c-0.7,0-2.1,0.5-3,1.2c-0.9,0.7-2,1.1-2.2,0.9c-0.3-0.1-0.5-1.1-0.5-2.1v-1.8h-2.6c-2.2,0-2.6-0.1-2.6-0.9c0-0.6-0.3-0.9-0.8-0.9
		c-0.7,0-0.7-0.1,0.1-0.7c1-0.8,1.3-3.1,0.3-3.1c-0.4,0-0.6-0.4-0.5-1.1c0-0.4,0-1-0.2-1.5H271.4z"/>
	<path fill="#006AA7" d="M271.4,192.3h97.4c-0.1-1,0-1.1,0.9-0.9c1.3,0.3,2.3,0,2.3-0.9c0-0.4,0.2-1.1,0.5-1.6
		c0.5-0.9,0.6-0.9,1.3,0.6l0.7,1.6l0.4-1.8c0.3-0.9,0.7-1.7,1.1-1.7s0.7-0.3,0.7-0.7s0.5-0.7,1-0.8c0.7-0.1,1.2-0.7,1.6-2.1
		c0.3-1.1,0.9-2.4,1.3-2.8c0.7-0.8,2.7-5.9,2.7-7c0-0.4,1.4-2,3-3.5c1.6-1.6,3.5-3.9,4.2-5.3c1.3-2.6,1.7-4.5,0.7-3.5
		c-0.7,0.7-1.3,0.7-1.3-0.1c0-0.4-0.2-0.7-0.5-0.7c-0.3,0-0.4-0.5-0.2-1.1c0.2-0.8,0-1.3-0.7-1.6c-0.5-0.3-1-0.4-1.1-0.2
		c-0.1,0.1-0.6-0.3-1-0.9c-0.7-1-0.7-1.2,0-1.4c0.7-0.3,0.7-0.4,0-1.1c-0.4-0.5-0.7-1.1-0.7-1.3s-0.4-0.8-0.9-1.3
		c-1.1-0.9-1.2-1.4-0.2-2.4c0.4-0.4,0.7-1,0.7-1.4c0-0.5,0.2-0.7,0.7-0.6c0.5,0.2,0.6,0,0.4-1.1c-0.2-1.2-0.1-1.4,0.7-1.4
		c0.6,0,0.9-0.2,0.8-0.4c-0.4-0.6,1.5-2.8,2.3-2.8c0.5,0,0.6-0.3,0.4-1.1c-0.2-0.6-0.3-1.4-0.3-1.9c0-0.5-0.5-1.9-1.1-3.3
		c-0.6-1.4-1.1-2.8-1.1-3.4c0-1.1,1.5-2.7,2-2.2c0.2,0.1,0.3,0.1,0.3-0.2c0-0.3,0.7-0.4,1.8-0.3c2.9,0.4,4.9-1.9,2.8-3.2
		c-1.4-0.9-1.1-1.3,0.7-1.3c0.9,0,1.8-0.2,1.9-0.5c0.1-0.3,1-0.5,1.8-0.5h1.5l-0.5-1.6c-0.3-1-0.7-1.4-0.9-1.2s-0.7,0.5-0.8,0.5
		c-0.6,0-0.5-2.2,0.1-2.6c0.3-0.1,0.5,0,0.5,0.2s0.2,0.4,0.4,0.3c0.2-0.1,0.4-1.2,0.4-2.3c0-2.6,0.4-3.3,1.4-2.6
		c0.4,0.3,0.7,0.8,0.7,1.2c0,0.7,1.6,1.3,2.4,0.8c0.3-0.2,0.4-1.1,0.3-2.3c-0.1-1.1-0.1-2.1,0-2.3c0.4-0.4,2,1.3,2,2.1
		c0,0.5,0.2,1,0.5,1.1c0.3,0.1,0.5,0.8,0.5,1.4c0,1.3,1.4,2.8,1.4,1.6c0-0.4,0-0.8,0-1c0-0.2,0.3-0.3,0.7-0.3c0.4,0,0.7,0.4,0.7,1
		c0,1.1,0,1.1,0.9-0.1c0.5-0.7,0.9-1.9,0.9-2.7c0-1.4,0.1-1.5,0.9-1.3c0.5,0.1,1.4,0.4,1.9,0.6c1.3,0.4,7.3-0.7,9-1.5
		c1-0.5,1.3-0.9,1-1.4c-0.2-0.4-0.7-1.7-1.1-2.9c-0.4-1.2-1-2.6-1.4-3.1s-0.6-1.4-0.6-2c0-0.6-0.6-1.2-1.6-1.7
		c-1.9-0.9-3.2-3.2-3.8-6.9c-0.4-2.1-0.3-2.6,0.9-5.1c1.3-2.6,1.4-3,1.1-6.4c-0.2-2.2-0.1-3.6,0.1-3.6c0.7,0,0.5-1.4-0.4-3.1
		c-0.4-0.8-1.3-2.4-1.9-3.5c-0.6-1.1-1.2-2.1-1.4-2.3c-0.7-0.6-2.4-4.2-2.4-5.3c0-0.9,0.3-1.4,1.2-1.7c1.2-0.4,1.2-0.6,0.9-3.1
		c-0.4-3.2-0.7-3.7-3.1-4.1c-1.8-0.3-1.9-0.3-1.6-1.8c0.1-0.8,0.5-2,0.8-2.6c0.4-0.8,0.4-1.4-0.2-2.6c-1.8-3.6-1.8-5.1-0.1-8.3
		c0.6-1.1,0.6-1.4,0-2.6c-0.4-0.7-1.2-1.8-1.9-2.3c-0.7-0.6-1.2-1.5-1.2-2c0-0.9-0.4-1.1-1.9-1c-0.6,0-0.9-0.4-1.1-1.7
		c-0.5-2.6-1.5-4.3-2.9-4.9c-0.7-0.3-1.4-0.7-1.5-0.8c-0.6-0.7-4.2-2.3-5.4-2.3c-0.7,0-1.2-0.2-1.2-0.5c0-0.3-0.5-0.5-1.2-0.5
		c-1.8,0-3.9-1.2-4.6-2.8c-0.4-0.7-1.2-1.4-1.9-1.6c-0.7-0.1-1.3-0.7-1.4-1.2c-0.1-0.5-1-1.4-1.9-1.9s-1.6-1.3-1.6-1.7
		c0-0.4-0.8-1.2-1.8-1.8c-0.9-0.6-2-1.4-2.4-1.9s-1.3-0.7-2.2-0.7c-1.4,0-1.6-0.1-1.3-0.8c0.7-1.8,0.8-2.5,0-3.6
		c-0.4-0.6-0.7-1.5-0.7-2c0-0.8-0.8-2-1.5-2c-0.2,0-0.4,0.2-0.4,0.5c0,0.3-0.5,1-1.2,1.6c-0.8,0.9-1.6,1.2-3.2,1.2h-2.1l1.4,3.5
		l1.4,3.5l-1.4,3.3c-0.7,1.8-1.9,4.1-2.6,4.9c-0.7,0.9-1.2,1.7-1.1,1.8c0.1,0.1,0.9,0.6,1.7,1.1l1.5,0.9l-1.4,2
		c-0.8,1.1-1.5,2-1.6,2s-2.3-1-4.8-2.3l-4.6-2.3l-5.8-0.1c-3.5,0-6.3,0.1-7,0.4c-1.2,0.5-1.3,0.7-1.3,3c0,1.4,0.3,3.8,0.7,5.4
		l0.7,2.9l-1.9,3.7l-1.9,3.7l-3.9-1.9l-4-1.9l-1.3,0.9c-0.7,0.5-2.3,2-3.5,3.2c-2.1,2.2-2.8,3.7-5.3,12.7c-0.1,0.4-0.9,1.1-1.7,1.5
		c-1.2,0.7-1.7,1.4-2.3,3.2l-0.7,2.4l1.4,2.1c1.4,2,1.4,2.1,1.1,6.5l-0.3,4.4l-2.7,2.4c-2.1,2-3,3.1-4,5.7c-0.8,2-2.5,4.7-4.3,7
		l-2.9,3.7l0.2,2.9c0.3,4-0.1,4.8-3.6,6.3c-2.4,1-3.6,1.3-6.7,1.3h-3.8l0.4,2c1.5,7.9,1.5,8.1,0,15.5c-0.8,3.8-1.4,8.1-1.4,9.5
		c0,1.8-0.3,2.9-0.9,3.8c-0.5,0.7-1.1,2-1.3,2.8c-0.1,0.8-3,5.6-6.3,10.5c-3.3,4.9-6,9.1-6,9.1c0,0.1,1.4,1.2,3,2.4
		c3.3,2.5,3.2,2.1,3.7,9.4c0.3,4.1-0.8,7.2-3,8.3c-1.2,0.6-1.5,0.7-4.5-0.9V192.3L271.4,192.3z"/>
</g>
</svg>
