<?xml version="1.0" encoding="utf-8"?>
<!-- Generator: Adobe Illustrator 17.1.0, SVG Export Plug-In . SVG Version: 6.00 Build 0)  -->
<!DOCTYPE svg PUBLIC "-//W3C//DTD SVG 1.1//EN" "http://www.w3.org/Graphics/SVG/1.1/DTD/svg11.dtd">
<svg version="1.1" id="flag-icon-css-sg" xmlns="http://www.w3.org/2000/svg" xmlns:xlink="http://www.w3.org/1999/xlink" x="0px"
	 y="0px" viewBox="0 0 640 480" enable-background="new 0 0 640 480" xml:space="preserve">
<g>
	<path fill="#FFFFFF" d="M180.7,362.8c0.8-0.8,0.8-1.2-0.1-3.5c-1.4-3.7-2.4-4.4-3.7-2.4c-1.2,2,0.4,6.8,2.4,6.9
		C179.6,363.7,180.2,363.3,180.7,362.8z"/>
	<path fill="#FFFFFF" d="M135.1,375.5c-2,0-3-0.4-4.4-1.7c-0.9-0.9-1.7-2-1.7-2.5c0-1.2-1.5-1-2.8,0.4c-0.6,0.7-1.6,1.4-2.2,1.6
		c-0.6,0.2-1.2,1.2-1.5,2.2c-0.2,1.4-0.9,2.1-2.9,2.9l-2.6,1.1l2.4,2c1.5,1.2,2.8,1.9,3.4,1.6c0.5-0.2,2.3-0.7,3.9-1.1
		c2.7-0.6,3.1-0.5,4.4,0.7l1.5,1.4l0.4-1.7c0.2-0.9,1.4-2.9,2.5-4.3l2.2-2.7H135.1z"/>
	<path fill="#FFFFFF" d="M139.8,387.7c0.3-0.9,0.6-1,1.4-0.3c0.8,0.6,1.1,0.6,1.6-0.1c1.2-1.9,0.2-5.8-1.7-6.7c-2.4-1.1-4-0.9-4,0.5
		c0,0.7-0.6,2.5-1.2,4.2c-1.2,2.7-1.2,3-0.3,4.4C137,391.9,138.7,391.2,139.8,387.7z"/>
	<path fill="#FFFFFF" d="M158,350.8c0.3-0.9,0.8-2.1,1.1-2.7c0.5-1.3-2.7-2.6-4.2-1.7c-1.9,1.1-2.5,2.9-1.4,4.6
		C154.9,353.2,157.2,353.1,158,350.8z"/>
	<path fill="#FFFFFF" d="M161.9,352.4c0,0.4-0.5,0.8-1.1,0.8c-0.6,0-1.5,0.2-2,0.6c-0.7,0.4-0.6,0.9,0.5,2.5
		c1.2,1.7,1.7,1.9,4.3,1.9c2.9,0,3,0.1,2.7,1.5c-0.2,1.1,0.1,1.7,1,2.2c1.2,0.6,1.3,0.6,1.3-0.7c0-0.8,0.6-2,1.2-2.6
		c0.7-0.6,1.2-1.6,1.2-2.2c0-1.2,1.2-1.9,3.2-1.9c1,0,1.1-0.3,0.8-1.7c-0.4-1.8-3.9-7-4.9-7.4c-0.4-0.1-0.6,0.7-0.6,1.8
		c0,2-0.1,2-2.8,2.2C164,349.5,161.9,350.8,161.9,352.4z"/>
	<path fill="#FFFFFF" d="M171,339.3c-0.2,0.2-0.4,1.1-0.4,1.9c0,1.1,0.4,1.4,1.3,1.4c1,0,1.2-0.3,1.1-1.7
		C172.7,339.4,171.8,338.6,171,339.3z"/>
	<path fill="#FFFFFF" d="M148.9,372.7c1.9,0.8,4.9,2.5,6.5,3.9c1.7,1.4,3.9,3,5,3.5c1.9,0.9,2,0.9,3.3-0.7c0.7-0.9,1.4-2.3,1.6-3.1
		c0.2-0.7,0.6-1.4,1-1.4c0.7,0,3.6-2.9,3.6-3.6c0-0.3-1.5-0.6-3.2-0.6c-4.5,0.1-9.1-2.2-10.7-5.3c-0.7-1.3-2-2.7-2.9-3
		c-1.4-0.6-1.7-1.1-1.7-2.7c0-2.2-0.8-2.8-3.7-2.8c-1.2,0-2.2,0.6-3.1,1.9l-1.3,1.8l1.5,3.3c1.1,2.4,1.4,3.6,0.9,4.4
		C144.6,370.3,145.4,371.3,148.9,372.7z"/>
	<path fill="#FFFFFF" d="M25.2,240l-0.2,0.3c-7.7,12.6-11.5,22.5-18.7,48.6l-4.1,14.9l1.4,1c0.7,0.6,5.3,3.4,10.1,6.3
		c11.2,6.8,19.7,9.6,20.4,6.8c0.7-2.6-0.9-5.2-7.8-12.3l-7.1-7.4l2.8-3.9l2.8-3.8l-3.8-3.5c-2.2-1.9-4.3-3.8-4.7-4
		c-0.7-0.4-0.6-1.1,0.7-3.7l1.6-3.1l1.9,1.8c1.1,1,5,4.6,8.7,7.9l6.8,6l4.5-4.4L45,283l1.4,1.9l1.4,1.9l-4.4,5l-4.3,5l2.3,2.7
		c1.2,1.6,2.5,2.8,2.6,2.8c0.2,0,2.5-2.1,5.1-4.7c4.4-4.3,4.8-4.7,6.1-3.9c0.7,0.5,1.3,1.3,1.3,1.8c0,0.5-2.9,3.8-6.3,7.3l-6.3,6.3
		l1.6,2.5c1.7,2.5,2.5,3,3.2,1.9c0.2-0.4,0.8-0.6,1.4-0.6c0.8,0,0.7,0.3-0.4,1.6c-1.9,2.1-1.2,2.7,1.2,0.9c1.6-1.2,2.1-1.2,2.5-0.6
		c0.7,1.2,0.7,2-0.4,3.5c-0.9,1.4-0.8,1.6,4.5,7.3l5.4,5.9l3-2.9l2.9-2.9l1.1,1.6c1,1.6,1,1.7-0.4,4.2c-0.9,1.7-1.2,2.7-0.8,3.1
		c0.7,0.7,16.1-12.2,16-13.3c-0.1-0.4-1.7-2.9-3.6-5.4c-3.4-4.5-3.5-4.7-3.5-8.7v-4.2h3.1h3.1v3.5c0,3.5,0.2,3.8,3.7,8.3
		c2,2.5,3.9,4.7,4.2,4.8c0.3,0.1,1.9-0.6,3.6-1.6l3.1-1.7l0.1-7.3c0.1-6.9,0.7-9.7,1.8-7.9c0.2,0.4,0.6,3.6,0.7,7.1l0.4,6.4l4.8,0.4
		c3.5,0.3,5.6,0.1,7.6-0.6l2.9-1v-4.2c0-4.8,0.6-5.8,4.7-6.8c2.9-0.7,4.6-0.4,4.6,1c0,0.5,1.2,2.4,2.8,4.1c1.6,1.8,2.8,3.8,2.8,4.6
		c0,1.4,0.2,1.4,4.3,1.4h4.3l1.2-2.5c0.7-1.3,1.2-3.1,1.2-3.9c0-1.1,0.8-1.9,4-3.7l3.9-2.2l4,2.8c2.2,1.5,5.3,4,6.9,5.5
		c2.7,2.5,9.7,7.4,10.1,6.9c1.6-2.1,2.2-3.6,2.2-5.3v-2h-3.7c-4.5,0-4.7-0.6-1.2-4c2.6-2.5,3.2-4.9,1.7-6.5
		c-0.7-0.6-0.6-0.7,0.2-0.4c0.7,0.2,1.5-0.2,2.4-1.5c1.2-1.8,3.1-2.6,3.1-1.4c0,0.3-0.7,1.4-1.6,2.5l-1.6,1.9l1.1,3.4
		c0.9,3.3,1.1,3.4,3.1,3.4c1.7,0,2.2,0.2,2.2,1.2c0,0.8-0.6,1.5-1.6,1.9c-1.4,0.5-1.4,0.7-0.9,2.4c0.4,1,1.2,2.3,1.8,2.9
		c1.4,1.2,6.9,2.8,10.2,2.8c1.8,0,2.7,0.3,3.3,1.2c1.4,2.3,5.9,1.3,6.6-1.5c0.4-1.4,0.6-1.5,2.2-0.9c1.7,0.6,1.8,0.8,1.2,2.1
		c-1.9,4,1.8,7,9.2,7.5c4.2,0.3,5.2,0.2,6.8-0.9c1.1-0.7,2.3-2.1,2.8-3.1c0.8-1.9,0.9-1.9,5.6-1.8c4.7,0.1,4.7,0.1,3.8,1.5
		c-0.6,0.9-0.7,1.9-0.5,2.8c0.6,1.9,6,9.2,6.8,9.2c0.4,0,2.4,1.6,4.4,3.7c2.5,2.4,4.9,4.1,7.3,5c3,1.2,3.7,1.7,4.5,4
		c1.4,3.7,4.7,6.7,9.6,9.1c3.3,1.6,4.3,2.4,4.3,3.4c0,4.1,8.1,7.6,15.9,7c5-0.4,5.2-0.2,5.2,3.5c0,2.2,2.1,4.7,4,4.7
		c0.6,0,3.4,2.3,6.1,5.1c4.5,4.7,5,5,5.3,3.7c0.1-0.8-0.8-4.4-2-7.9c-1.2-3.6-2.2-6.6-2-6.8c0.2-0.1,2.2,2.1,4.6,5
		c3.7,4.6,4.5,5.3,6.3,5.3c1.4,0,2.7-0.6,4.1-1.9c1.9-1.7,2.6-1.9,6.2-1.9c4.3,0,4.7,0.2,5.3,3.4c0.4,2,0.9,2.4,7.4,5
		c4.7,1.9,5.5,1.7,10.2-2.5c1.8-1.7,4.2-3.7,5.3-4.4c1.1-0.8,2-1.9,2-2.4c0-0.7,0.3-0.8,1.1-0.4c0.6,0.3,3.4,0.6,6.2,0.7
		c3.9,0.2,5.1,0.4,5.1,1.1s-1.2,0.9-5.6,0.9c-4.2,0-5.6,0.2-5.4,0.7c0.3,0.8,1.9,1.2,8.3,2.2c3.6,0.6,6.5,2.2,6.5,3.6
		c0,1.1,2.7,4,3.7,4c0.4,0,0.6-0.8,0.2-2.2c-0.7-3.5,0.9-2.4,3.9,2.9c1.9,3.3,2.7,4.3,3,3.6c0.2-0.6,0.1-1.6-0.2-2.3
		c-0.6-1.1-0.4-1.4,1.2-2.2c1-0.5,1.9-1.2,1.9-1.4c-0.1-0.2-0.6-2.9-1.2-5.8c-1.3-6.3-1.1-7.1,2.7-7.6c2.4-0.4,2.5-0.3,3.9,2.2
		c1.6,2.8,6.4,6.2,8.9,6.2c1.2,0,3-1.6,7.8-6.4c3.5-3.5,7.1-7.6,8.1-9.1c1.1-1.6,2.5-3.4,3.2-4c0.7-0.7,2-2.3,2.7-3.6
		c1-1.7,1.7-2.4,2.8-2.4c1.5,0,4.7-1.4,6.4-2.8c0.5-0.4,2.5-1.2,4.3-1.8c1.9-0.6,4.4-1.9,5.6-2.8c1.2-0.9,4.7-2.7,7.8-4l5.6-2.4
		l6.3,0.9c6.3,0.9,6.3,0.9,10.8-0.6c2.5-0.9,8.3-2.4,12.8-3.4c7-1.6,8.9-2.3,12-4.4c7.1-4.8,18.1-7.7,32.1-8.6
		c7.7-0.5,8.7-0.7,11.9-2.4c3.1-1.7,4.3-2,9.6-2.3c4-0.2,9.3-1.1,15.4-2.6c9.2-2.3,9.3-2.3,12-5.3c1.6-1.6,4.2-3.7,6-4.7
		c1.7-1.1,5.8-4,9.1-6.8c6.7-5.6,9.2-7,11-6.5c0.7,0.2,3.2,0,5.5-0.4c5.4-0.9,9.4-3.9,14.8-11c3.5-4.7,4-5.8,6.5-14
		c1.5-4.8,3.8-12.2,5.3-16.3c1.7-4.8,2.6-8.3,3.2-12.4H25.2z"/>
	<path fill="#FFFFFF" d="M188.2,361c1.6-1.2,1.6-5.2,0-6.3c-0.7-0.5-1.8-1.4-2.5-2.1c-1-0.9-1.5-1-2-0.5c-0.4,0.4-0.7,1.2-0.7,1.8
		c0,0.6-0.2,1.3-0.6,1.5c-1.2,0.8-0.6,3.3,1.3,4.9C185.8,362.1,186.6,362.3,188.2,361z"/>
	<path fill="#FFFFFF" d="M343.6,395.5c0.3-1,1.4-0.9,1.4,0.1c0,0.5,2.1,1.5,5.3,2.5l5.2,1.7l1.8-1.4c1-0.8,2.3-1.8,2.9-2.1
		c1.7-1.1,0.2-3-4.2-5.6c-2.1-1.2-4.4-2.7-5.1-3.3c-3-2.6-4-2.5-8.7,0.3c-2.4,1.5-4.7,2.7-5.1,2.7c-0.4,0-1,0.5-1.3,1.1
		c-0.5,0.9,0.1,1.4,3.5,2.9C342.1,395.8,343.4,396.1,343.6,395.5z"/>
	<path fill="#FFFFFF" d="M309.5,392.1c0,0.3,1.2,1.6,2.7,2.7c1.4,1.1,6.4,5.8,11,10.2c8.9,8.6,10.1,9.6,12.7,9.6
		c2,0,7.3,4.3,8.4,6.8c0.6,1.5,1.2,1.9,3.4,2.2c2.9,0.4,4.2-0.1,6.5-2.5l1.5-1.6h-2.9c-3.4,0-4.2-1-2.8-3.5l0.9-1.6l0.6,2
		c0.4,1.6,0.9,1.9,2.3,1.9c0.9,0,2.4,0.2,3.3,0.6c1.1,0.4,2.2,0.4,3.2,0c1.3-0.5,1.6-1,1.6-3c0-1.4,0.3-2.7,0.6-2.9
		c0.4-0.2,0.6-1.1,0.6-1.9c0-1.8-4.4-4.7-7.2-4.7c-1.4,0-2.4-0.6-4.2-2.8c-2.6-3.1-3.4-3.3-8.1-1.9c-3.2,0.9-3,1-5.9-2.4
		c-0.9-1.1-3-1.3-3.5-0.4c-0.2,0.3-1.4,0.6-2.5,0.6c-1.8,0-2.4-0.4-3.2-1.9c-1.7-3.1-7.4-5.6-13.6-6
		C311.5,391.6,309.5,391.7,309.5,392.1z"/>
	<path fill="#FFFFFF" d="M316.5,387.5c2.1-2,2.2-4.2,0.4-5.8c-1.7-1.3-1.6-1.3-3.5-0.4c-1.3,0.6-1.4,0.9-1.1,3.4
		C313.1,389.8,313.7,390.2,316.5,387.5z"/>
	<path fill="#FFFFFF" d="M149.8,314.7c1.1,0,1.6,0.3,1.6,1.1c0,1.3,4.7,3.8,7.1,3.8c1.6,0,4.2-2.8,3.9-4.3c-0.1-0.5-1.2-1.2-2.4-1.5
		c-2.9-0.7-4.3-2.1-4.3-4.2c0-1.3-0.4-2-1.9-2.7c-2-1.1-1.8-1.1-5.4-0.1c-2.3,0.5-2.7,0.8-2.7,2.2
		C145.7,311.6,147.9,314.7,149.8,314.7z"/>
	<path fill="#FFFFFF" d="M144.4,326.5c-1.4-0.9-3-0.6-3.5,0.4c-0.4,1.1-5.8,4-7.3,4c-0.6,0,0.6,1.4,2.7,3.4c2.7,2.4,3.7,3.8,3.8,5.1
		c0.1,1,0.1,3.5,0.2,5.6c0.1,3.3,0.4,4.1,1.9,5.7c1.1,1.1,2.1,1.9,2.4,1.9c0.3,0,1.2-1.5,2-3.4c1.5-3.3,1.6-3.4,4.5-3.8
		c8.7-1.1,15.5-2.4,15.8-3c1.1-1.6,0.4-3-2.5-5.9c-3.5-3.5-5.3-4-11.6-3.4c-2.5,0.2-5.5,0.2-6.7,0c-1.9-0.4-2.2-0.7-2.2-2
		c0-0.9,0.3-2.2,0.7-2.9C145.1,327.3,145.1,326.8,144.4,326.5z"/>
	<path fill="#FFFFFF" d="M103.2,347.4c2.4,1.5,3.7,0.9,3.9-1.7c0.2-2.7,1.5-3.9,3.9-3.7c1.7,0.1,1.8,0,1.8-2c0-2.9,0.9-4.5,3.3-5.9
		c1.3-0.8,1.6-1.3,1-1.5c-0.5-0.1-1.8-0.6-3-0.9c-3.4-1.1-4.8-0.8-8.1,1.8c-2.7,2.1-3.1,2.8-2.8,4c0.2,0.9-0.1,2.3-0.6,3.4
		C101.2,343.6,101.4,346.2,103.2,347.4z"/>
	<path fill="#FFFFFF" d="M126.7,316.6c2.1,0,2.3-0.1,2.3-1.8c0-3.2-1.1-4.8-4.3-6.8c-3.2-2-4.7-2.4-5.3-1.4
		c-0.2,0.3,0.1,1.4,0.7,2.5c0.7,1.6,0.8,2.3,0.2,3.2c-0.4,0.6-0.7,2.1-0.7,3.3c0,1.9,0.2,2.2,2.5,3.1c3,1.2,7.1,1.4,6.7,0.2
		c-0.2-0.4-0.9-0.9-1.8-0.9C124.5,317.6,124.2,316.6,126.7,316.6z"/>
	<path fill="#FFFFFF" d="M173.7,334.1c-1.3-2.1-2.5-2.5-3.5-1.2c-1.9,2.4-1.1,4.8,1.6,4.8S175.1,336.4,173.7,334.1z"/>
	<path fill="#FFFFFF" d="M111.7,354.9c-0.2,1.3,0,1.4,2.9,1.4c2.4,0,3.2,0.2,3.2,0.9c0,1.5-3.9,4.1-6.1,4.1c-1.1,0-2,0.2-2,0.6
		c0,0.8,3.7,1.7,9.2,2.1c5,0.4,6.3-0.1,6.3-2.4c0-2,1.4-2.9,3.8-2.5c2,0.4,6.1,3.5,6.1,4.7c0,0.3,0.6,0.9,1.3,1.3
		c1.1,0.6,1.6,0.4,2.8-0.7c0.8-0.7,1.5-2,1.5-2.9c0-0.8,0.5-2.2,1.1-3.1c1.1-1.6,1-1.6-0.6-3c-0.9-0.8-2.9-1.8-4.2-2.2
		c-2.9-0.8-3.7-2.2-3.7-6.3c0-2.7-1.2-4.8-3.5-6c-1.8-0.9-1.8-0.9-3.2,1.1c-0.7,1-2.1,2-3.1,2.2c-2.5,0.6-3,1.4-3.3,5.3l-0.2,3.4
		l-4,0.3C112.4,353.4,111.9,353.6,111.7,354.9z"/>
	<path fill="#DF0000" d="M567.1,168.1c0.8,0.4,1.8,1.4,2.2,2.3c1,1.9,0.9,1.8,5.3,0.9c13.7-2.7,17.2-3.9,17.2-5.9
		c0-0.4,0.6-1,1.4-1.2c1.2-0.4,2.7-1.5,5.2-4.2c0.9-0.9,1.1-0.9,2.9,0.2c1.7,1,2.8,1.1,10,0.7c10.4-0.4,12-1.6,9.1-6.1
		c-0.9-1.3-1.2-2.9-1.2-5.5c0-3.2-0.2-3.8-1.7-5.4c-1.6-1.6-3.1-2.2-8.3-3.4c-1-0.2-2.5,0.1-3.9,0.9c-1.8,0.9-2.2,0.9-2,0.2
		c0.4-1.1,0.1-1.1-2.9-0.2c-1.6,0.4-2.4,1-2.4,1.7c0,1.1-4.2,3.8-5.7,3.8c-0.4,0,0.3-1.1,1.7-2.5c1.3-1.4,2.2-2.6,2-2.9
		c-0.2-0.2-7.2-0.5-15.5-0.6s-16-0.4-17.2-0.6c-1.5-0.2-3.6-1.7-7.1-5c-2.7-2.5-5.3-4.6-5.7-4.6c-0.4,0-2.4-0.7-4.3-1.6
		c-9.2-4.2-15.6-5.5-19.3-4c-0.7,0.3-1.6,1.3-1.8,2.2c-0.4,1.4-0.6,1.6-4,1.6c-3.2,0-3.7,0.1-3.7,1.2c0,0.7,1.2,3.2,2.8,5.6
		c2.6,4,3.2,4.5,7.3,6.4c2.5,1.1,5.5,2.4,6.8,2.9c1.4,0.4,4.3,2,6.5,3.6c2.3,1.6,5.8,3.4,7.9,4c4.8,1.6,6,2.3,7.4,5.2
		c0.7,1.4,1.6,2.6,1.9,2.9c1.1,0.9,2.2,0.5,2.2-0.6c0-1.7,1.6-3.6,2.2-2.7c0.2,0.4,0.2,1.1-0.2,1.4
		C561.3,160,565.3,167.1,567.1,168.1z"/>
	<path fill="#DF0000" d="M120.6,98.5c-3.6,0.3-6.2,0.8-8,1.5c-0.4,0.2-0.8,0.3-1.3,0.5l8.7-0.1L120.6,98.5z"/>
	<path fill="#DF0000" d="M506.5,148.1c-1.4-1.2-2.7-2.1-3-2.1c-0.2,0-0.4,0.9-0.3,2c0,1.1,0.5,3.3,1.1,4.8c1,2.4,1.4,2.9,3.5,3.2
		c1.3,0.3,2.5,0.4,2.6,0.3c0.1-0.2-0.1-1.6-0.6-3.2C509.2,150.9,508.4,149.6,506.5,148.1z"/>
	<path fill="#DF0000" d="M633.4,238.4c0.4-3.8,1.6-8.8,2.6-12c1.7-4.8,1.9-6.1,1.6-10.5c-0.2-4.8-0.4-5.3-2.8-8.4l-2.5-3.4l1.1-2.2
		c1.9-3.7,2.7-6.8,2.3-8.6c-0.4-1.4-1.2-2-6.5-4.1c-6.1-2.5-9.5-3-13.4-1.9c-2,0.6-2.5,0-3.5-3.8c-0.6-2.2-1-2.7-2.5-3
		c-2.9-0.6-9.6,0.9-11.7,2.5c-0.9,0.8-2,1.5-2.5,1.5c-0.6,0-0.6,0.2-0.2,0.7c1.1,1.4,1.5,4.8,0.6,5.3c-0.4,0.2-0.9,1.1-1.1,1.9
		c-0.3,1.1-0.1,1.4,0.7,1.4c2.4,0,3.5,3.3,1.3,3.9c-0.7,0.2-1.2,0-1.2-0.5c0-1.1-1.6-1.6-3.6-1.2c-0.9,0.2-3.9,1.5-6.7,2.7
		c-5.6,2.6-9.1,3.5-15.7,4.1c-2.5,0.2-5.7,0.9-7.1,1.6c-3.8,1.7-6.2,1.6-7.8-0.6c-1.4-2-3.9-2.9-11.4-4.1c-2.8-0.5-6.5-1.5-8-2.2
		c-3-1.4-9.3-7.6-11.4-11.1c-0.7-1.3-1.7-1.9-3.3-2.2c-1.2-0.2-2.9-0.8-3.7-1.4c-1.1-0.7-2.7-0.9-6.9-0.7c-5,0.2-5.6,0.4-7.4,2
		c-1,1-2,2.4-2.2,3c-0.2,0.7-1.1,2.3-1.9,3.5c-1.8,2.7-5.5,4-8.9,3c-4.9-1.4-7.8-0.1-11.2,5.2l-1.7,2.5l2.2,2.2
		c2.4,2.5,2.4,3.4-0.2,4.3c-1.7,0.7-2.6-0.1-2.6-2.3c0-1.4-2.2-2.7-4.3-2.7c-0.6,0-1.6,0.6-2.1,1.4c-0.7,0.9-1,1.1-1,0.5
		c0.1-1.4,1.2-2.5,4.7-4.9c2.1-1.4,3.7-3,4.5-4.8c1.7-3.6,3.3-4.5,9.4-5.3c5.8-0.7,7.6-2,8.4-5.9c0.2-1.5,1.1-2.5,3.4-3.9
		c1.7-1.1,3.2-2.6,3.5-3.4c0.2-0.7,0.9-2,1.4-2.9c0.6-0.9,1.3-3.1,1.7-5c0.7-3.4,0.7-3.6-1.2-6.9c-1.1-1.9-3.7-5.5-5.9-7.9
		c-4.9-5.6-5.4-7.6-3-12.8c0.9-2,1.6-4.3,1.6-5.3c0-1.7-0.2-1.8-2.4-1.8c-1.3,0-4-0.2-6.1-0.4l-3.8-0.4l-2.2,3.5
		c-1.2,1.9-3.1,3.9-4.1,4.5c-2.7,1.4-4.4,5-4.4,9.7v3.8l-6-0.4l-6.1-0.4l-2.1,2.2c-1.4,1.4-3,2.4-4.3,2.6c-1.2,0.2-2.9,1-3.6,1.7
		c-1.2,1.1-1.4,1.9-1.4,6c0,5.3-0.6,6.2-5,8.4c-1.2,0.6-3.1,2-4.2,3.3l-2,2.3l0.9-2.4c0.6-1.3,1-2.5,1-2.5c0-0.1,1.2-0.7,2.7-1.4
		c3.9-1.9,4.8-3.6,4.7-8.7c-0.1-3.2,0.1-4.7,0.9-5.9c1.5-2.2,12.3-7.7,16.5-8.3c4-0.5,4.8-1.4,3.5-3.8c-1.4-2.6-5.1-5.5-8.7-6.9
		c-4.8-1.8-14.8-2.9-19.2-2c-2,0.4-3.8,0.5-4,0.2c-0.2-0.3-1.7-2.5-3.2-4.9c-3.4-5.2-7.4-8.6-10.5-9.2c-2.5-0.4-11,0.6-13.4,1.7
		c-1,0.4-1.7,1.7-2.5,4.4c-0.7,2.1-2.4,5.6-3.8,7.8c-2,3.2-3.6,4.7-7.9,7.6c-3,2-6.1,3.8-7.1,4c-1.1,0.2-1.9,1-2.4,2.2
		c-0.3,1-1.7,2.5-3.1,3.5c-2.3,1.5-2.9,1.6-6.1,1.2c-2-0.2-4.4-0.5-5.5-0.6l-1.9-0.1l-0.3,4.8c-0.3,4.5-1.4,6.6-1.7,3.4
		c-0.4-3.7-0.7-4.3-1.7-3.6c-0.8,0.7-0.9,0.4-0.9-1.4c0-1.7,0.6-2.9,2.8-5.3c3.9-4.3,3.8-4.5-2.3-5.4c-1.6-0.2-3.5-0.9-4.3-1.6
		l-1.4-1.2l2.8,0.2c4.5,0.4,9.2,2,11,3.7c2.2,2,5.4,3.6,6.5,3.2c0.4-0.2,1.4-1.4,2.2-2.8c0.7-1.4,1.7-2.5,2-2.5c0.4,0,2.7-0.9,5.2-2
		c5.7-2.7,8.1-5.8,8.7-11.7c0.6-5.7,5.8-16.3,9.2-18.7c3-2.1,4.9-5.9,4.2-8.7c-0.6-2.9-7.3-11.6-8.9-11.6c-2.2,0-12.8,9.5-12.8,11.5
		c0,2-0.6,3.4-1.6,3.4c-1.1,0-1.1-0.9-0.2-2.6c0.8-1.4-0.1-2.4-2.3-2.4c-2.7,0-3.3,1.2-2.8,6c0.4,4.4,0.4,4.5-1.5,6
		c-1.1,0.8-2.5,1.7-3.4,2c-1.4,0.4-1.4,0.3,0.6-2.5c2-2.9,2.1-3.3,1.9-7.8c-0.2-4.5-0.1-4.8,1.5-5.8c1.5-1,1.7-1,2.2-0.1
		s1,0.8,4.4-0.6c4.5-2,6.7-3.6,9.6-7.4c1.8-2.4,2-3.2,1.7-5c-0.2-1.2-1.2-3-2.1-4.1l-1.7-1.9l-3,1c-1.7,0.6-4.3,1.1-6,1.1h-2.9
		l0.3,2.4c0.4,3.2-0.8,4.3-4,3.4c-1.2-0.4-3.7-0.5-5.5-0.3c-2.4,0.2-3.6,0.1-4.8-0.7c-1.4-0.9-1.7-0.9-3.5-0.1
		c-2.5,1.3-4.7,1.3-4.2,0c0.2-0.6,0.4-1.1,0.4-1.3s0.4,0,0.9,0.4c0.8,0.7,1.2,0.6,2.5-0.6c1.5-1.4,1.7-1.4,5.8-0.7
		c2.4,0.4,5.5,0.6,7,0.4c2.7-0.4,2.7-0.4,2.7-2.9c0-3.8,1.2-4.6,7-4.3c3.8,0.1,5-0.1,5.6-0.8c0.7-0.9,0.6-1.4-0.7-3.4
		c-2.7-4.1-6.7-6.8-12.7-8.7c-3-0.9-6.1-2-6.8-2.4c-1.1-0.6-1.7-0.5-3.7,0.6c-1.7,1-2.2,1.1-2,0.5c0.2-0.5,0.6-1.4,0.8-2
		c0.6-1.5-1.7-2.7-7-3.7c-3.4-0.6-4.8-0.6-6-0.1c-1.3,0.6-1.9,0.4-4.5-1.7c-2.7-2.1-8.1-4.5-9.7-4.3c-0.4,0.1-5.4,0.4-11.2,0.9
		c-10.6,0.8-32.9,3.8-40.9,5.6c-5.4,1.2-6.7,1.9-12.9,6.8c-5.3,4.3-6,4.5-11.8,3c-1.4-0.4-2.1,0-4.3,2c-1.4,1.3-3.5,2.9-4.5,3.4
		c-1,0.5-5.5,4.8-9.9,9.6l-8.1,8.6l-8.1,0.4c-3.4,0.2-7,0.5-9.2,0.7l1.3,4h16l-12.8,9.5l4.9,15.1l-13-9.2l-12.8,9.3l3-9.3
		c-1.8,1.7-3.2,3.4-3.2,4.1c0,0.8-0.7,1.2-3.1,1.5c-2.1,0.3-3.4,0.8-3.7,1.6c-0.6,1.1-0.4,1.2,2.3,1c2.8-0.1,3,0,4,2
		c0.6,1.2,1.1,2.4,1.1,2.6c0,1-2.7,0.4-4.2-0.7c-0.9-0.7-2-1.2-2.5-1.2c-1.5,0-5.4,2.3-7.3,4.3c-2.1,2.3-6.1,5-7.3,5
		c-1.6,0-2.9,2.2-2.9,4.6c0,3,0.8,4.5,3.1,5.6c1.6,0.8,3.7,3.7,3.7,5c0,0.2-1.1-0.4-2.3-1.5c-2.4-2-5.2-2.5-6.2-1.2
		c-0.4,0.4-0.8,3.4-0.9,6.6c-0.4,6.6-0.6,6.9-6,10.1c-3.3,1.9-3.8,2.5-4.3,4.7l-0.6,2.5l-0.1-2c-0.1-2.4,1.6-5.2,4.7-7.8
		c1.7-1.4,2-2.2,1.9-3.7c-0.1-1.4-0.6-2-1.7-2.4c-0.9-0.2-1.1-0.4-0.5-0.5c1.5-0.1,2.5-2.2,3-6.5c0.2-2,0.9-4.1,1.4-4.7
		c1.1-1.1,1.3-3.6,0.5-4.8c-1.2-1.9-5.5-2.7-6.8-1.4c-1.4,1.4-3.5,0.2-6-3.4c-1.4-2-2.9-3.5-3.5-3.5c-0.6,0-2.6,1.7-4.5,3.7
		c-3.8,4.2-5.2,4.8-4.1,1.9c0.5-1.6,0.4-2.1-0.4-3.1c-1.1-1.2-1.1-1.2,0.9-0.6c1.9,0.7,2.2,0.6,4.1-1.3c1.9-1.8,2.4-2,4.4-1.6
		c1.5,0.3,3.2,1.3,4.8,3c2.3,2.3,2.7,2.5,4.7,2c1.2-0.2,3.7-0.5,5.4-0.6c3-0.1,3.2-0.2,6.6-4c1.9-2.2,3.6-4.5,3.7-5.3
		c0.1-1.1,0.9-1.6,3.7-2.3c2.7-0.7,4.2-1.6,6.5-4c4.9-4.8,6.5-7.3,6.5-9.8c0-2-0.2-2.4-1.7-2.7c-1-0.2-2.2-1-2.9-1.6
		c-1.1-1.2-1.8-1.2-4.3-0.2c-0.9,0.4-1.1,0.2-0.9-0.4c0.4-1.2,4.5-1.4,6.2-0.3c1.8,1.3,2.6,1.3,2.9-0.1l-5.3-3.9l5,0
		c-0.1-0.2-0.2-0.3-0.2-0.3c-0.3-0.2-0.6-0.9-0.6-1.5c0-0.9-0.4-1.1-1.5-0.9c-2.4,0.5-2.8-2-0.7-4.1c3.1-3.2,2.2-5.2-6.3-14.7
		c-4.9-5.4-5.8-6.2-8.4-6.8l-4.6,3.4l5,15.2l-13-9.3L159.2,91l4.8-15.2l-1.6-1.2c-3.7,1.2-7,2.9-12.3,6.1c-9.7,5.6-18,12-19.8,15
		l-1.3,2.1l0.9,2.8h15.8L133,110l4.9,15l-13-9.2l-12.8,9.4l4.7-15.2l-10.9-7.9c-0.2,0-0.4,0.1-0.5,0.1c-5.8,1.1-9.2,3.2-10.9,6.6
		c-0.7,1.5-2.7,7.2-4.2,12.7c-2.2,7.3-3.4,10.4-4.6,11.7c-1.2,1.3-3.1,2.2-5.3,2.7c0.2,1.6,0.5,3.1,0.9,4.7
		c2.8,13.2,8.7,25.2,16.8,35.3c0-0.3,0-0.5,0-0.8c0.1-2.5,0.4-4.1,0.8-4c0.3,0.1,0.6,0.9,0.5,1.7c-0.2,2.1,0.2,4.1,1,5.8
		c11.9,13.5,28,23.1,46.4,26.9c-20.5,5.9-41.4,3.9-59.4-4.3c-0.1,4.9-1,4.7-1.7-0.6c0-0.1,0-0.1,0-0.2c-2.7-1.3-5.3-2.7-7.9-4.3
		c-0.1,0.1-0.2,0.1-0.3,0.2c-2.2,1-3.1,0.5-1.2-0.7c0.1-0.1,0.2-0.2,0.3-0.3c-2.4-1.6-4.8-3.2-7.1-5c0,0.1,0,0.1,0,0.1
		c0,0.6-0.6,0.9-1.5,0.9c-0.8,0-1.6,0.4-1.9,0.9c-0.2,0.7-1.2,0.9-3.4,0.9c-6.1,0-6.3-1.1-2.2-9.4c0.2-0.4,0.4-0.8,0.6-1.2
		c-0.5-0.5-0.9-1-1.4-1.5c-0.4,0.7-0.9,1.5-1.4,2.5c-3.5,6.2-5,8.4-6.1,8.7c-2.4,0.6-3.2,2.4-2.4,4.9c0.7,2.2,1.2,2.7,1.9,1.6
		c0.3-0.5,3.2-0.2,3.9,0.4c0.1,0.1-0.4,0.7-1.1,1.4c-1.4,1.4-1.7,3.5-0.7,5c0.4,0.6,0.7,0.6,0.9,0.1c0.2-0.4,0.7-0.7,1.1-0.7
		c0.4,0-0.1,0.7-1.1,1.4l-1.7,1.5l1.4,1.9c0.8,1.1,1.9,2,2.7,2c0.9,0,1.1,0.2,0.7,1.1c-0.5,1.2-0.5,2.7-0.1,4.8
		c0.1,0.8-0.2,1.2-0.7,1.2c-0.7,0-1-0.8-1.1-2.9c-0.1-2.2-0.5-3-1.3-3.3c-0.7-0.2-1.3-0.9-1.5-1.6c-0.2-1-0.9-1.2-3.2-1.2
		c-1.7,0-2.9-0.3-2.9-0.7s-0.6-0.6-1.2-0.4s-1.4,0.1-1.5-0.1c-0.3-0.5,1.1-4.9,2.2-7.1c1.4-2.7-0.7,0.1-4.8,6.4
		c-2.2,3.5-4,6.8-3.8,7.3c0.2,0.6-0.4,0.9-2,1.2c-1.2,0.2-2.6,0.5-2.9,0.6c-0.4,0.1-1.2,3.5-1.8,7.5l-1.1,7.4l-5,8.1h608
		C633.3,239.5,633.4,238.9,633.4,238.4z M155.5,177.1l-13-9.2l-12.9,9.3l4.8-15.1l-12.8-9.4l15.9-0.1l4.9-15.1l5,15h16l-12.9,9.5
		L155.5,177.1z M213.9,176.8l-13-9.3l-12.8,9.3l4.7-15.1l-12.8-9.3l15.9-0.2l5-15l5,15h15.8l-12.7,9.4L213.9,176.8z"/>
	<path fill="#DF0000" d="M215.5,94c-0.2-0.2-0.4-0.5-0.6-0.8c-3.3-4.1-5.4-4.9-6.1-2.4c-0.4,1.7-2.7,2.9-5.5,2.9
		c-1.1,0-2.4,0.3-2.9,0.6c-0.7,0.4,0.2,0.6,2.8,0.6h3.7l3.6,5.5l3,0L215.5,94z"/>
	<path fill="#DF0000" d="M554,162.8c0-0.3-0.8-1.4-1.8-2.5c-2-2.1-4-2.6-3.5-0.9c0.1,0.6,0.4,2,0.7,3.2c0.3,1.6,1.4,2.7,5.2,5.6
		c8.4,6.2,8.8,6.3,8.8,2.1c0-3.5-1.2-5.1-4-5.1C557.5,165.2,554,163.6,554,162.8z"/>
	<path fill="#FFFFFF" d="M80.3,135.8c-0.8,0.2-1.7,0.3-2.6,0.3c-1.1,0-2.2,0.4-2.5,0.7c-1.4,1.9-2.7,8.8-2.7,14.9
		c0,5.5-0.2,7.2-1.9,12.1c-1.6,4.7-2.2,5.9-4,7.1c-2.7,1.9-3,3.2-1.2,5.7c0.7,1.2,1.6,2.9,2,3.8l0.6,1.7l1.7-1.7
		c1-0.9,2.4-1.6,3.2-1.6c1.1,0,1.8-0.6,2.6-2.2c0.9-1.7,1.3-2.1,1.7-1.4c0.2,0.5,0.5,1.4,0.6,2.1c0,0.9,0.5,1.3,2,1.4
		c1.2,0.1,2.3,0.7,2.7,1.4c0.9,1.6,1.4,1.5,3.7-0.7c1.4-1.5,2-1.7,2.4-1c0.2,0.4,1.6,2,2.8,3.4c2,2.2,2.5,2.4,3.8,1.9
		c1.8-0.6,2.8-3.2,3-8.1c-8.1-10.1-14-22.1-16.8-35.3C80.9,138.9,80.6,137.3,80.3,135.8z"/>
	<path fill="#FFFFFF" d="M82.4,193.1c-2-0.8-3.1-0.4-3.1,1.1c0,0.5-0.7,1.2-1.6,1.8c2.6,1.6,5.2,3,7.9,4.3
		C84.7,194.2,84.5,194,82.4,193.1z"/>
	<path fill="#FFFFFF" d="M146.8,205.4c-18.4-3.8-34.5-13.4-46.4-26.9c0.3,0.5,0.6,1,1,1.5c0.9,1.1,1.4,2.2,1.2,2.8
		c-0.5,1.2-1.5,0.7-1.5-0.9c0-1.4-0.6-1.5-2.1-0.4c-1.2,0.9-1.4,2.7-0.7,5.7c0.4,1.7,0.3,1.7-0.3,0.4c-0.9-1.6-1.8-1.8-1.9-0.3
		c0,1-0.1,0.9-0.6-0.1c-0.4-0.8-1.8-1.6-3.8-2.1c-6.5-1.7-6.9-1.7-9,0.9c-1.8,2.2-1.9,2.4-0.9,3.7c0.6,0.9,1.6,1.5,2.4,1.5
		c1,0,1.4,0.2,1.1,0.9c-0.2,0.5,0.2,1.9,0.9,3c0.9,1.5,1.3,3.2,1.3,5.5c0,0.2,0,0.3,0,0.5C105.4,209.3,126.3,211.3,146.8,205.4z"/>
	<path fill="#FFFFFF" d="M77.5,193.3c0-0.7,0.3-1.6,0.6-1.7c0.9-0.6,0.8-2.2-0.1-2.2c-0.4,0-1.5-0.7-2.4-1.6l-1.6-1.6l-2.3,1.6
		c-1.1,0.7-2.1,1.7-2.3,2.3c2.3,1.8,4.6,3.5,7.1,5C77.1,194.7,77.5,193.9,77.5,193.3z"/>
	<path fill="#FFFFFF" d="M63.1,176.6c-0.1-1-1,0.2-3.4,4.5c0.5,0.5,0.9,1,1.4,1.5C62.3,179.8,63.2,177.4,63.1,176.6z"/>
	<polygon fill="#FFFFFF" points="147.4,152.5 142.4,137.5 137.5,152.6 121.6,152.7 134.4,162.1 129.6,177.2 142.5,167.9 
		155.5,177.1 150.5,162 163.4,152.5 	"/>
	<path fill="#FFFFFF" d="M202.7,104.6c0.1-0.4,0.1-0.8,0.1-1.4c0-1-0.1-2-0.4-2.5l-5,0L202.7,104.6z"/>
	<polygon fill="#FFFFFF" points="205.9,152.2 200.9,137.2 195.9,152.2 180,152.4 192.8,161.7 188.1,176.8 200.9,167.5 213.9,176.8 
		209,161.6 221.7,152.2 	"/>
	<path fill="#FFFFFF" d="M218.3,115.9l13,9.2l-4.9-15.1l12.8-9.5h-16l-1.3-4c-0.6,0.1-1.1,0.1-1.4,0.2c-2.3,0.3-2.5,0.3-5-2.6
		l-2.1,6.6l-3,0l0,0c1.9,3,3.5,6.2,3.5,7.1c0,2,0.6,2,3.4-0.2c2.5-2,4.7-2.4,4.7-1c0,0.6-0.8,1-2.3,1.1c-1.6,0.1-2.4,0.5-2.4,1.1
		c0,0.5-1.2,1.6-2.8,2.4c-1.7,0.9-4.2,2.9-6.1,4.8l-3,9.3L218.3,115.9z"/>
	<path fill="#FFFFFF" d="M159.2,91l12.9-9.4l13,9.3l-5-15.2l4.6-3.4c-0.1,0-0.3-0.1-0.4-0.1c-4.3-1-6.8-0.9-14,0.4
		c-3.1,0.6-5.6,1.2-7.9,1.9l1.6,1.2L159.2,91z"/>
	<path fill="#FFFFFF" d="M112.1,125.2l12.8-9.4l13,9.2l-4.9-15l12.7-9.5h-15.8l-0.9-2.8l-0.2,0.4l-6.5,0.4c-0.6,0-1.1,0.1-1.7,0.1
		l-0.7,2l-8.7,0.1c-1.6,0.6-3.6,1.1-5.3,1.5l10.9,7.9L112.1,125.2z"/>
</g>
</svg>
