<?xml version="1.0" encoding="utf-8"?>
<!-- Generator: Adobe Illustrator 17.1.0, SVG Export Plug-In . SVG Version: 6.00 Build 0)  -->
<!DOCTYPE svg PUBLIC "-//W3C//DTD SVG 1.1//EN" "http://www.w3.org/Graphics/SVG/1.1/DTD/svg11.dtd">
<svg version="1.1" id="flag-icon-css-sh" xmlns="http://www.w3.org/2000/svg" xmlns:xlink="http://www.w3.org/1999/xlink" x="0px"
	 y="0px" viewBox="0 0 640 480" enable-background="new 0 0 640 480" xml:space="preserve">
<g>
	<path fill="#000066" d="M62.6,300.1c0,1,0.8,1.8,3.1,3.2l3.1,1.8v-1.6c0-2.2-1.6-3.9-4.1-4.4C62.8,298.8,62.6,298.9,62.6,300.1z"/>
	<path fill="#000066" d="M89.1,261.5h-4.4v1.9c0,1.7,0.5,2.3,3.2,4.5c3.1,2.4,3.2,2.5,5.7,1.9c1.4-0.3,2.4-0.9,2.3-1.2
		c-0.2-0.3-0.7-2.1-1.3-3.9l-1-3.2H89.1z"/>
	<path fill="#000066" d="M161.2,478c0-0.7-5.2-6.8-5.7-6.8c-0.3,0-0.5,1.8-0.5,3.9c0,2.2,0.1,4,0.3,4.2
		C155.7,479.7,161.2,478.5,161.2,478z"/>
	<path fill="#000066" d="M602.2,266.1L602.2,266.1c0,1.3,0,2.6,0,3.9c0.4-0.1,0.7-0.1,1.1-0.2c2.5-0.6,2.6-0.6,2.7-3.2
		c0.1-2.1-2.1-13.1-2.8-13.7c0-0.1-0.5-0.3-1.1-0.7C602.2,256.7,602.2,261.4,602.2,266.1L602.2,266.1z"/>
	<path fill="#000066" d="M605.8,170.6l-3.7-3.2h-4.3h-4.2v-2.5c0-2.4,0-2.4-2.9-3.6l-3-1.1l-0.2-3.2c-0.1-2.5-0.4-3.3-1.2-3.8
		c-1.1-0.6-1.6-3.4-0.7-3.4c0.2,0,1-0.5,1.8-1.1l1.4-1.1l-2.7-1.3l-2.7-1.3v-3.7c0-3.6-0.1-3.8-1.9-4.9c-1.7-1.1-2-1.1-5.4-0.4
		c-2,0.4-5.4,1.2-7.5,1.9c-3.9,1.2-3.9,1.2-6.5,0.1c-1.6-0.7-5.2-3.7-10.3-8.7l-7.8-7.7l1.2-3.9c0.7-2.2,1.5-5.8,1.9-8.1
		c0.4-2.6,1.1-5,1.9-6.2c0.7-1.1,1.9-3.3,2.5-4.9l1.1-2.9l-1.4-1.3c-1-1-1.4-1.9-1.4-3.7c0-2.3,0-2.4-2.6-3c-1.5-0.4-4.1-1.4-6-2.4
		c-3.3-1.6-3.3-1.7-3.3-4.1c0-2.3-0.2-2.7-1.9-3.7c-2-1.2-2.3-1.9-2.9-6.3c-0.3-2.2-0.1-2.9,1.5-5.6c1.8-2.8,2.2-3.2,5.7-4.4
		c2.1-0.7,4.6-1.8,5.5-2.5l1.7-1.2l-3.1-2.6c-2.7-2.2-3.2-2.8-3.7-5.6c-0.6-2.8-0.5-3.3,0.5-5.4c0.7-1.2,1.2-2.4,1.2-2.6
		s-2.9-1.8-6.5-3.7c-6.1-3.2-6.7-3.7-9.7-7.8c-1.8-2.3-3.6-4.6-4-5.1c-0.4-0.5-4-1.2-11.1-2.2c-11.8-1.6-13-1.5-23.2,1.8
		c-4.4,1.5-6.4,2.4-7.7,3.7c-0.9,1-4.2,3.7-7.3,6.1l-5.7,4.3l-4.5,0.5c-2.5,0.2-6,0.6-7.7,0.7l-3.1,0.3l-3.1-3.1
		c-1.7-1.8-3.6-3.2-4.1-3.2c-0.6,0-2,0.6-3.2,1.2l-2.2,1.2l-3.9-1.8c-2.2-1-3.9-2-3.7-2.4c0.1-0.3,0.2-0.9,0.3-1.3
		c0.1-0.3-0.7-0.9-1.8-1.2c-1.7-0.5-2-0.4-3.7,1.2c-1.1,1-4.4,2.9-7.3,4.3l-5.4,2.4l-4.3-3.7c-4.3-3.6-4.4-3.7-6.3-3.1
		c-1.7,0.5-2.8,0.3-8-1.2l-6.1-1.8l-0.6-3.5c-0.3-1.9-0.8-3.7-1.1-4c-0.3-0.3-2.8-1.5-5.5-2.7l-5-2.2v-2.9c0-2.9-0.1-2.9-4.7-7.6
		c-5-5-4.8-4.9-10.9-3.8c-0.4,0.1-1,0.2-1.6,0.4v25.4l-40.8,24.9l-0.7,3.2l-3.4,1.2l-3.4,1.2l-0.8-0.7l-16,9.7
		c0.7,2.7,1.2,4.9,1.2,5.2c0,0.3-0.5,0.9-1.2,1.7H360v15.3v43v15.1h-76.4l76.4,46.6V220h-0.1H316l-106.4-64.7V220h-11.8h-35.2H150
		v-46.1c-0.6,0.1-1.2,0.2-1.7,0.3l-4.1,0.7l-3.1,3.7l-3.1,3.7v4.3c0,7-3.2,14-11.8,25.3l-5.6,7.5l-1.9,9.3l-1.8,9.4l2.3,4
		c1.2,2.3,2.3,4.1,2.3,4.3s-1.1,0.3-2.4,0.6c-6.5,1-6,0.7-6.5,3.6c-0.2,1.6-0.9,3.1-1.7,3.8l-1.3,1.2l1.7,2.3
		c1.6,2.2,1.7,2.6,1.1,4.3c-0.8,2.6-3.2,4-7.9,4.8c-2,0.3-3.7,0.7-3.7,0.7c-0.1,0.1-1,2.7-1.9,5.7l-1.9,5.6h-4.9h-5l-1,2.7
		c-0.6,1.5-2,3.7-3.2,4.9c-2.4,2.6-2.8,4.3-1.5,8.4c0.7,2.2,0.7,2.3-1.7,4.3c-2.3,1.9-2.4,2.2-2.4,5.3c0,1.8,0.3,3.9,0.6,4.8
		c0.6,1.5,0.4,1.8-2.4,4.6c-2.7,2.7-3.2,3-4.3,2.4c-1-0.6-1.8-0.2-5.4,2.3l-4.3,3l-0.1,3.8v3.7l-9.1,11c-5,6-9.4,11.1-9.7,11.3
		c-0.3,0.2-2.5,0.6-4.9,0.8c-2.4,0.2-4.5,0.5-4.6,0.6c-0.2,0.1-0.1,1.9,0.3,4l0.5,3.7l-2.4,2.4c-2.2,2.3-2.4,2.7-1.9,4.1
		c0.5,1.5,0.6,1.6,5.2,1.8c5.2,0.2,7.9-0.8,11.3-4l1.8-1.8v3.4c0,2.7,1.7,10.8,2.4,11.3c0.1,0.1,2.4-0.2,5.1-0.5
		c6.2-0.7,8.4,0.1,11.4,4.2l2,2.8h3.7c3.6,0,3.7,0.1,5,2.1c0.7,1.2,1.8,3.9,2.3,6l1,3.9h6.6c6.5,0,6.6,0,11.8-2.3
		c2.9-1.3,5.3-2.3,5.4-2.2s1.8,2.6,3.7,5.4c1.9,2.9,3.6,5.3,3.7,5.3c0.2,0,1.6-0.8,3.2-1.8l2.9-1.8l2.7,2.7c2.6,2.6,2.7,2.6,6.3,2.6
		h3.7l2.2,2.8c2.2,2.8,2.2,2.8,5.4,2.9c3.2,0,3.2,0,5.6,3.1c3.4,4.4,3.7,5.5,2.9,9.9c-0.7,3.7-0.7,3.7,1.2,7.7
		c1.1,2.2,2.8,6.5,3.9,9.7c1.6,4.8,2.2,5.9,3.7,6.9c1.1,0.7,3.2,3.5,5.6,7.4c3.6,6,3.9,6.3,7.9,8.6c2.2,1.4,6.6,3.3,9.7,4.3l5.7,1.9
		h14.1c13.5,0,14.1-0.1,17-1.4c1.6-0.7,3.6-2,4.4-2.9s3.7-2.9,6.5-4.6c2.8-1.8,5.3-3.5,5.5-3.7c0.2-0.3,0.5-2,0.7-3.9l0.4-3.2
		l4.4-1.2c4-1.1,4.6-1.5,6-3.5c0.9-1.2,3.1-3.5,5-5c2.2-1.7,3.9-3.6,4.5-5l1-2.3l4.6-0.2c3.6-0.2,6-0.7,10.9-2.6
		c3.5-1.2,7.9-2.6,9.7-3l3.5-0.7v-2.1c0-1.2,0.8-3.9,1.8-6.2l1.8-4h2.9c1.6,0,4.4-0.3,6.1-0.6c2.3-0.5,3.6-0.5,5,0
		c1.4,0.5,2.7,0.5,5.2,0c2.8-0.6,3.6-1.1,5.6-3.1c1.2-1.4,2.3-2.8,2.3-3.2c0-0.5-1-2.1-2.3-3.7c-2.2-2.8-2.3-2.9-2.3-7.4v-4.5l2-0.3
		c2.6-0.5,2.9-0.2,3.3,2.2c0.5,2.8,2.4,2.7,6-0.2c2.2-1.8,3.2-2.3,5.4-2.4c2.6-0.2,2.8-0.3,3.3-2l0.5-1.8h8.2
		c7.2,0,8.4,0.1,10.5,1.2l2.4,1.2l3.2-3.5l3.2-3.6l2.6,3.6c2.5,3.6,2.6,3.6,6.5,4.4c2.2,0.5,5.6,0.8,7.5,0.7l3.5-0.1l0.4,2.2
		c0.4,2.4,0.7,2.6,4.3,3.1c1.8,0.3,3.7,0,6.7-0.8c2.3-0.7,4.3-1.2,4.4-1.2c0.1,0,1.4,2.2,3.1,4.8c2.6,4.3,3.9,5.7,3.9,4.4
		c0-0.2,0.7-1.2,1.6-2.3c1.5-1.8,1.6-1.9,3.5-1.1c1.1,0.5,3.1,1,4.3,1.2l2.4,0.3l1.8-4.6c1-2.7,1.5-4.2,1.6-6.3
		c-2-3.4-3.9-7-5.6-10.5c-0.2-0.4-0.4-0.7-0.5-1c0,0,0,0,0,0c-2.2-4.7-4.2-9.5-6-14.4c0,0,0,0,0-0.1c-0.1-0.4-0.3-0.8-0.4-1.2
		c-11.1-30.8-13.6-64.7-13.8-97.4h0c0-27.8,1.8-54.7,0.9-78.1c35.4-15.7,82.1-19.3,105.9-19.3c34.3-0.3,68.3,5.5,100.5,17.3l0.2-1
		h3.8c3.7,0,3.9-0.1,4.5-1.6c0.4-0.9,1.7-2.6,2.9-3.8C610.8,176.2,610.5,174.5,605.8,170.6z"/>
	<path fill="#FFFFFF" d="M162.6,220v-54l-0.4,0.8l-3.1,5.5l-3.3,0.7c-1.4,0.3-3.8,0.7-5.8,1V220H162.6z"/>
	<path fill="#FFFFFF" d="M209.6,220v-64.7L316,220h43.9v-0.1l-119.7-73.2H269l90.9,55.9v17.3l0.1,0.1v-26.7l-76.4-46.6H360v-15.1
		H222.6c-0.2,0.8-0.4,1.7-0.6,2.4l-1.1,3.7l-3.7,0.2c-3.6,0.2-3.7,0.2-5.7,2.6c-1.1,1.3-3.1,2.9-4.3,3.5l-2.4,1l-1.8-1.8
		c-1.6-1.6-2.3-1.8-5-1.8h-0.2V220H209.6z"/>
	<path fill="#FFFFFF" d="M310.1,56c-2.3-1.9-4.9-1.8-9.2,0.6c-3.2,1.8-3.7,1.9-5.6,1.4c-1.2-0.3-2.2-0.5-2.3-0.4
		c-0.1,0.1,0.5,3.1,1.4,6.7c0.2,0.7,0.4,1.5,0.5,2.1l16-9.7L310.1,56z"/>
	<path fill="#FFFFFF" d="M360,1.4c-1.2,0.3-2.7,0.7-4.3,1.2l-18,11c-0.6,4-2.6,12.5-3.2,12.9c-0.1,0.1-1.6,0.9-3.3,2
		c-5.6,3.4-14.7,12-14.7,13.9c0,0.3,0.8,1.6,1.7,2.9c1.7,2.3,1.7,2.3,1,5.9l-0.1,0.4L360,26.8V1.4z"/>
	<path fill="#FFFFFF" d="M360,73.3h-65.1c-0.8,0.8-1.8,1.8-3,2.7c-3.7,3.2-4.4,3.5-6.7,3.5c-2.4,0-2.7,0.2-5.3,3.5
		c-3.1,3.9-3.6,4.2-8.6,4.8c-1.9,0.2-2.9,0.4-3.5,0.8H360V73.3z"/>
	<polygon fill="#CE1126" points="269,146.7 240.2,146.7 359.9,219.9 359.9,202.6 	"/>
	<polygon fill="#CE1126" points="359.9,220 360,220 359.9,219.9 	"/>
	<path fill="#CE1126" d="M351.2,4.2c-5.7,2.1-6.6,2.3-8.2,1.7c-1.6-0.6-1.9-0.5-3.3,1c-1.2,1.3-1.6,2.4-1.9,5.8
		c0,0.3-0.1,0.6-0.1,0.9l18-11C354.2,3.1,352.6,3.6,351.2,4.2z"/>
	<path fill="#CE1126" d="M197.8,220v-78.7h-2.9l-1.1,3.5l-1.1,3.6l-3.9,0.3L185,149l-1.9,4.3l-1.8,4.3l-2.8,0.2
		c-1.6,0.1-5.2,0.9-8,1.9l-5.2,1.7l-2.6,4.7v54H197.8z"/>
	<path fill="#CE1126" d="M360,88.6h-92.2c-0.4,0.3-0.8,0.8-1.2,1.4c-1,1.5-2.2,2.3-7.3,4.4c-6.1,2.4-6.2,2.5-10.7,7.5
		c-2.5,2.8-5.8,6.1-7.3,7.4c-3.3,2.7-3.5,2.8-3.9,5.3c-0.2,1.1-1.5,3.4-2.9,5.2c-2.4,3.1-2.5,3.1-6.6,3.7l-4.1,0.6l-0.4,3.1
		c-0.1,1.1-0.4,2.8-0.8,4.4H360V88.6z"/>
	
		<line fill="none" stroke="#8FC5FF" stroke-width="0" stroke-linecap="round" stroke-linejoin="round" x1="602.2" y1="266.1" x2="602.2" y2="266.1"/>
	<polygon fill="#8FC5FF" points="498.6,283.6 498.6,283.6 498.6,283.6 	"/>
	<path fill="#8FC5FF" d="M516.3,316.1c-1.6,0-3.1-0.5-4.2-2c-3.6,2.7-10.3,3.1-10.8-4l13.9,0.4h0.9l-0.3-16
		c-0.4-0.6-0.8-1.4-1.1-2.4c-4.8,4.3-11.2,1.9-11.6-2.7h0c-0.2,0-0.3,0-0.3,0s0.1,0,0.3,0h0c0-0.1,0-0.3,0-0.4h12.6l-0.2-10.2
		c-1.2-0.1-2.4-0.5-3-1.5c-2.2,3.6-8.5,1.8-8.5-2.7l11.4-0.2v0l-11.4,0.2l11.4-0.2l-0.2-8.3h1.3l0,0H388.7
		c0.2,32.7,2.7,66.6,13.8,97.4c-7.5-21.1-10.9-43.6-12.4-66c2.7-4.9,6.3-8.5,7.2-10.3c2.2-0.9,3.1-3.1,4.5-4.5
		c1.3-1.8,3.1-2.2,6.3,0v6.7c3.6,3.1,4.9,3.6,4.9,5.8c0.4,2.2,0.4,4.5,6.7,12.1c3.1-4.9,7.2-3.6,9-7.2c1.8-3.6,3.1-6.3,3.1-8.1
		c0-2.2,0.4-2.2,1.8-3.1s2.7-3.1,4.9-3.6c1.8,4,2.2,8.1,4,10.3c2.2,0.9,3.6,0.4,6.7,2.7c1.8,1.8,0.9,12.1,1.8,16.6
		c1.8,7.6,2.7,17.9,6.3,21.1c1.3,1.2,2.1,2.8,2.2,4.5c0,1.3,0.4,1.8,1.3,2.7c1.8,2.2,1.8,3.1,3.6,6.7c1.8,4,1.8,6.3,3.1,8.5
		c0.5,1.3,1.2,3.5,1.7,6c0.9-1.1,2.1-2.9,3.1-4.7c1.2-2.2,3.1-5.2,4.3-6.7l2-2.7H475h-3.7v-3.6v-2.6c-2.4,0.2-5.5-1.3-4.1-5.9v-0.4
		l13.9,0.2v-13.6c-1.4-0.2-2.7-0.9-3.6-2.3c-2.2,1.3-8.5,1.8-8.1-3.1h11.7v0h-11.7c-0.4,0,0-0.4,0-0.4h11.7v-13.3
		c-1.8-0.1-3.5-0.8-4-2c-6.1,3.5-13.1,1-8.1-4c-0.4,0-0.4-0.4,0-0.4h12.1v-9.6c-1.4,0.1-3-0.5-4.9-1.7c-2.7,1.3-10.3,1.8-9-4.5
		l0.3,0c0.1-0.2,0.2-0.5,0.2-0.5l13.5,0.2v-11.4c0-3.6,2.2-4.5,2.2,0l0.1,11.4l15.6,0.2l-0.4,0c0.4,0,0.4,0.4,0.1,0.4
		c0.6,4.2-3.3,7.1-6.8,4.1c-1.3,1.8-4.9,2.2-7.6,0c-0.2,0.3-0.5,0.5-0.7,0.8l0.1,10.5h17.2c0,0,0,0,0,0h0.4c-1.8,6.3-5.8,5.8-9,4.5
		c-1.8,1.8-5.4,3.1-8.1,1.3c-0.2,0.1-0.4,0.2-0.6,0.3l0.1,13.7h16.2c0.4,0,0.4,0.4,0,0.4h-16.2v0h16.2c0.4,2.7-2.7,6.3-5.8,3.6
		c-1.3,1.8-4,2.2-7.2,0c-0.7,0.8-1.8,1.5-3.1,1.8l0.1,13.7l8.3,0.1v-0.4c0-4.7-0.5-4.2,5.2-5.2c1.8-0.3,2.2-0.7,2.7-2.3
		c0.6-1.9,0.7-1.9,4.1-1.9c2.8,0,4,0.3,5.6,1.4c0.2,0.2,0.5,0.3,0.7,0.4h5.9L516.3,316.1z"/>
	<path fill="#8FC5FF" d="M545.7,290.8l0.4,18.6c0.1,0,0.2-0.1,0.3-0.1c2.5-0.5,2.7-0.9,4-6.1c0.9-3.9,1.2-4.5,2.9-5.6
		c2.4-1.5,2.4-3.1,0.2-8.2c-0.1-0.1-0.1-0.2-0.2-0.4c-0.3-0.2-0.6-0.4-0.9-0.7C551,290.8,548.1,291.4,545.7,290.8z"/>
	<rect x="518.8" y="330.7" fill="#8FC5FF" width="4.3" height="0"/>
	<rect x="511.5" y="330.7" fill="#8FC5FF" width="5" height="0"/>
	<rect x="523.9" y="267.2" fill="#8FC5FF" width="0" height="14.1"/>
	<path fill="#8FC5FF" d="M602.2,266.1h-85.7l0.3,8.3l14.1-0.2c0.4,4-2.7,5.4-5.8,3.1c-0.9,0.9-3.6,3.1-5.4,0
		c-0.5,0.7-1.6,1.2-2.7,1.4l0.4,10.3h15.4v0.4c2.2,3.6-5.4,9-9,4.5c-1.4,1.4-4.1,2.6-6.2,1.9l0.5,14.7h10.6v0.4l0.4,0h0
		c0.9,4.5-4.9,6.7-8.1,3.1c-0.7,0.7-1.7,1.3-2.8,1.7l0.5,14.5h4.5l3.3-5.8l3.8-6.8h2.5c2.2,0,2.6-0.2,3.2-1.4c0.2-0.5,0.9-1.2,1.9-2
		c-3.1,2.1-7.9,0.7-7.9-3.7h13.6c0,0,0,0,0,0H530c-0.4,0-0.7,0-0.7,0s0.2,0,0.7,0h13.6c0.1-0.1,0.2-0.1,0.3-0.2l-0.4-20.8
		c-0.3-0.3-0.6-0.7-0.9-1.1c-3.1,2.7-7.6,1.8-7.6-1.8c-2.1,1.3-5.1,0.1-5.4-2.7h0c-0.4,0-0.4-0.4,0-0.4h13.7l-0.3-13.5
		c0-2.7,2.2-3.1,2.2-0.4l0.3,13.9h6.2c0-0.4,0-0.7,0-1.1c0-3.7-0.3-3.5,6.4-4.3c2.8-0.3,3.4-0.6,4.3-2c0.5-0.9,2.4-2.5,4.1-3.6
		c3-1.8,3.4-1.9,10.8-2.2c4.2-0.2,10.3-0.5,13.6-0.7c3.3-0.2,6.9-0.1,7.9,0.2c1,0.3,2.2,0.3,3.4,0.1
		C602.2,268.7,602.2,267.4,602.2,266.1L602.2,266.1z"/>
	<path fill="#8FC5FF" d="M402.9,364.7C402.9,364.7,402.9,364.7,402.9,364.7C402.9,364.7,402.9,364.7,402.9,364.7z"/>
	<path fill="#366CC9" d="M408.9,379.1c0.2,0.4,0.4,0.7,0.5,1C409.2,379.8,409.1,379.5,408.9,379.1
		C408.9,379.1,408.9,379.1,408.9,379.1z"/>
	<path fill="#366CC9" d="M467.2,373.3l-5.4,2.7c-3.1,0.9-4.9,0.9-6.7,0c-0.4-0.2-0.9-0.4-1.4-0.5v3.9v0.9c2.1-0.3,5.5-1.1,8.4-3.3
		l0-0.1c0.7,0.5,1.7,1.2,2.9,1.7c0.2-0.1,0.5-0.2,0.7-0.3c3.8-1.5,4.2-1.8,4.6-3.7c0.1-0.4,0.1-0.7,0.2-0.9c-0.6-0.5-1.2-1-1.8-1.5
		C468.3,372.6,467.9,372.9,467.2,373.3z"/>
	<path fill="#366CC9" d="M453.7,382C453.7,382,453.7,382,453.7,382l0,2.5h2.2c1.9,0,2.5-0.3,4-2.2c-1.2,0.2-2.6,0.7-4.5,1.7
		C454.8,382.3,454.8,382,453.7,382z"/>
	<path fill="#5D3100" d="M464.5,350c-1.8-3.6-1.8-4.5-3.6-6.7c-0.9-0.9-1.3-1.3-1.3-2.7c-0.1-1.7-0.9-3.3-2.2-4.5
		c-3.6-3.1-4.5-13.5-6.3-21.1c-0.9-4.5,0-14.8-1.8-16.6c-3.1-2.2-4.5-1.8-6.7-2.7c-1.8-2.2-2.2-6.3-4-10.3c-2.2,0.4-3.6,2.7-4.9,3.6
		s-1.8,0.9-1.8,3.1c0,1.8-1.3,4.5-3.1,8.1c-1.8,3.6-5.8,2.2-9,7.2c-6.3-7.6-6.3-9.9-6.7-12.1c0-2.2-1.3-2.7-4.9-5.8v-6.7
		c-3.1-2.2-4.9-1.8-6.3,0c-1.3,1.3-2.2,3.6-4.5,4.5c-0.9,1.8-4.5,5.4-7.2,10.3c1.5,22.5,4.9,45,12.4,66c0.1,0.4,0.3,0.8,0.4,1.2
		c0,0,0,0,0,0.1c1.8,4.9,3.8,9.7,6,14.4c0.2,0.4,0.3,0.7,0.5,1.1c1.7,3.6,3.6,7.1,5.6,10.5c0.1-1,0.1-2.2,0.1-3.7
		c0-5.2,0.1-5.3,1.3-5.3c0.5,0,1.8,0.7,3.1,1.6c-0.2-0.2-0.3-0.3-0.5-0.5c-1.9-1.6-2.8-0.2-3.4-4c-0.5-4-1.7-11.9-2.8-13.1
		s-1.7-2.3-2.8-2.6c-1.1-0.3-1.7-0.1-1.8-2.3c-0.1-2.2-0.8-5-2.2-6.4l-2.7-2.5l0,0h-0.1c-0.7-0.6-0.9-1.6,0-3.6c1-2,0.6-4.7,0.5-6
		c-0.1-1.1-0.3-2.5-0.3-3.8v0c0,0,0,0,0.1-0.1c0-0.1,0-0.3,0-0.4c0.2-1.4,0.1-3.1-0.2-4c-0.3-0.9-0.8-1.2-0.2-2c0,0,0,0-0.1,0l0.1,0
		c0,0,0,0,0,0c1,0.7,1.9,0.9,3.2,0.3c1.4-0.7,3-2.7,5-0.7c1.8,2,2.8,5.3,2.8,7.8c0,0.9,0,2,0.1,3.2c0.2,1.3,0.4,2.7,0.9,4
		c0,0.1,0.1,0.1,0.1,0.2c0.1,0.1,0.1,0.3,0.2,0.4c0.4,0.8,0.9,1.5,1.7,2.1c2.9,2.7,4.4,5.5,4.5,9c0,0,0,0,0,0c0,0,0,0,0,0
		c0.1,1.6,0.3,3.2,0.6,4.8c0.4,2.4,1,4.7,1.2,5.5h-0.1c0.1,0.3,0.2,0.7,0.4,1c0.1,0.2,0.2,0.4,0.3,0.6c0.4,0.9,0.9,1.8,1.5,2.4
		c0.9,1,1.7,3.6,1.8,6.4c0.1,1.9-0.1,3.3-0.2,4.5c0,0,0,0,0.1,0.1c0,0.2,0,0.4,0,0.6c0,0.3,0,0.5,0.1,0.7c0.6-0.3,1.2-0.5,1.9-0.8
		c-0.4-3.5-0.9-9.4-0.7-10.8c0.2-1.8-0.3-2.5-2.1-3.3c-1.7-0.8-2-2.8-2-7.2c0-4.3-3.2-11.6-4.6-13.4c-1.4-1.7-1.5-2.9-1.2-3.6
		s0.9-2.2,0.5-2.7c-0.4-0.5-0.9-1.2-0.6-2.4c0.2-1.2-0.9-2.9-1.5-3.9c-0.6-1-0.6-1.4-0.6-3.2s-1.5-3.8-4.3-4.3
		c-2.8-0.7-4.3-1.1-6.3,0.3c-0.5-0.1-2,0.5-2.6,0.2c-3.7-8-1.2-11-4.6-19c0.4-3.9,2.7-5,3.5-10.7c0.2-2.1,0.5-3.5-0.8-4.4
		c-1.2-0.8-0.9,0-0.4,1.2s-0.9,3.1-1,4.2c-0.1,1.1-0.8,1.8-1.6,3.5c-0.2-1.8-2.3-4.9-3.5-6.8h0.1c0-3.3,1.6-4.8,3-7.8
		c1.4-3,2-2.2,3-4c0.9-1.7,1.9-3,3.4-3.2s2.1,0.5,2.1,1.8v5.4c1.8,1.2,3.3,2.6,4.6,4.3c0.4,0.5,0.7,1.1,1,1.8c0,0,0,0,0,0
		c0,0,0,0,0,0.1c0.6,1.7,1.1,4,2,6.5c1.2,3.6,4.3,6.4,7,9.3c2.6,2.9,2.3,4,3,7.5s0.2,6.4-0.6,9c-0.8,2.6-1.4,5-1,6.5
		c0.4,1.5,0.4,2,1,1.3c0.6-0.7,0.8-3.3,1-4.2c0.3-1,0.5-1.4,1-0.8c0.4,0.5,0.2,1.6,0,3.3c-0.2,1.7,0,2.3,0.8,2.9
		c0.8,0.6,1.6,1.7,2.4,3s1.1,1.4,1.3,0.5c0.2-0.8,0.5-2-1-3c-3.9-2.3-2.2-3.6-2-4.7c0.2-1.1,0.7-3.2,0-4c-0.7-0.8-0.8-5.6-0.7-7.6
		c0.1-2.1,0.7-1.9,1.5-0.5s0.7,3.4,0.8,5.2c0.1,1.8,0.5,2.3,1.6,4.3c1.2,2,1.6,6.7,2.8,14.1c1.2,7.4,4.2,11.5,5.9,14
		c1.6,2.4,0.6,1.9,0.4,3.2s-0.5,1.4-1,0.9s-0.9-1.4-0.9-3c-0.2-1.5-1.6-3.2-3-5c-1.4-1.8-1.5-0.5-0.4,1.4c1.1,1.9,3.7,10.1,4,11.7
		c0.4,1.7,0.4,2-0.2,2.7c-0.6,0.7-0.4,1.1-0.1,1.4c0.3,0.3,0.5,0.6,0,1.1s0.1,1.2,0.8,0.6s1.2,0.2,1.7,1.2c0.7,1.2,1,2.5,1,3.8
		c-0.1,1.3,0.6,1.5,1.3,0.7s0.3-1.6,0-2.4s-0.9-1.6-0.3-2.8c0.6-1.2,0.3-1.2-1.1-2c-1.4-0.8-1.4-2-1.4-4.2s0.6-1.1,1.1-0.1
		c0.6,1,1.9,3.5,2.8,4.4c0.9,0.9,1,1.3,1,3.9c0,0.5,0,0.8,0.1,1.2c0-0.1,0.1-0.1,0.1-0.2c0.7-0.9,1.3-1.7,1.8-2.4
		c-0.2,0-0.4-0.1-0.5-0.2c-0.2-0.1-0.3-0.4-0.3-0.6c-0.1-0.3-0.1-0.6-0.1-1.1c0-0.4-0.2-0.9-0.3-1.5s-0.4-1.1-0.7-1.8
		c-0.1-0.3-0.3-0.6-0.5-0.9c-0.3-0.6-0.7-1.2-1.1-1.8c-0.2-0.3-0.4-0.5-0.7-0.8c-1.8-2-1.3-3.3-0.8-5c0,0,0,0,0,0
		c0.1-0.5-0.1-1.5-0.6-2.8c0,0,0,0,0,0c-0.7-1.9-1.8-4.4-2.9-6.7c0,0,0,0,0,0l-0.3-0.7c-1.5-0.9-1.6-1.8-1-2.1l-0.8-1.9
		c-1.8-4.3-1.8-10.7-2.5-13.7c-0.6-2.9-0.4-4.2-1.8-5.4c-1.4-1.2-1.4-2.5-1.4-5.7v0l-0.2-2c0,0,0-0.1,0.1-0.1
		c-0.3-1.2-0.9-1.2-2.1-1.5c-1.5-0.4-2-2.2-2.4-4.2c-0.2-2-1.5-2.3-3-5c-1.6-2.6,1.2-3.8,3.4-5.4c2-1.5,3.9-3.2,5.4-5.2h0
		c1.1-1.5,1.3-0.9,1.5,1c0.2,1.9,0.7,5.9,2,7.6c1.2,1.7-0.5,3.3-2.4,4.5c-1.8,1.3-2.5,2.8-1.8,5.5c0.5,2.6,1.7,1.4,1.5-0.5
		c-0.2-1.8-0.6-2.5,2.8-5.1c3.4-2.7,0.7-7.4,0.3-10.3c-0.4-2.9-0.6-3.3-1.2-4.3c-0.6-1.1-1-1.7-1-3.6c0-3,0.7-3.4,2.5-5
		c1.9-1.6,2.4-1.4,2.7-0.6c0.2,0.8,1.2,4.3,2.2,6.3c0.8,2,1.4,2.7,3.8,3c2.5,0.4,3.2,2.2,3.8,4.4c0.6,2.2,0.7,4.7,0.1,5.7
		c-0.6,1-0.9,2.7-0.6,3.6c0.3,0.9,0.9,1.7,0.7,2.5c-0.4,0.8,0.1,2.2,1,2.6c0.9,0.4,1.1,0.4,1.1,1.4s0.8,4.9,1.8,10.3
		c0.8,3.7,1.5,5.5,2.1,6.6c0.3,0.5,0.6,0.8,0.9,1.1c0.2,0.2,0.4,0.5,0.7,0.7c0.9,0.8,1.7,1.7,1.8,2.6c0.1,0.9,0.5,2.4,1,3.6
		c0.3,0.6,0.6,1.1,1,1.4c1.2,1.1,2.4,5.3,4.2,8.7c1.1,1.9,1.7,3.5,2.1,4.7c0.3,1.1,0.5,1.9,0.6,2.7c0.1,0.8,0,1.7,0,2.4
		c0.1,0.6,0.2,1.1,0.6,1.5c0.6,0.6,0.9,0.8,0.9,1.1c0.1,0.2,0,0.4-0.1,0.8c-0.1,0.1-0.1,0.3-0.2,0.4l1.2-1.1
		c0.2-0.2,0.4-0.4,0.6-0.7c-0.5-2.5-1.2-4.6-1.7-6C466.3,356.3,466.3,354,464.5,350z"/>
	<path fill="#5D3100" d="M423.6,384.2c-0.2,0-0.3,0.5,0,1.5c0,0,0,0,0,0c0.1,0.3,0.3,0.6,0.4,0.9l0.9-0.5c-0.2-0.3-0.5-0.7-0.8-1.2
		C423.9,384.5,423.7,384.2,423.6,384.2z"/>
	<path fill="#5D3100" d="M461.8,376l5.4-2.7c0.7-0.4,1.1-0.7,1.5-1c-0.9-0.8-1.9-1.5-3-2.3c-0.4,0.6-0.9,1.2-1.5,1.7
		c-1.4,0-2.1,1.4-3.6,2.4c-1.6,0.8-4.3,0-6-1c-1.7-0.9-3-1.1-3.6-0.3c-0.2,0.3-0.5,0.6-0.9,0.8c0.2,0.1,0.5,0.1,0.7,0.2l2.8,0.6v1.1
		c0.5,0.1,1,0.3,1.4,0.5C456.9,376.9,458.7,376.9,461.8,376z"/>
	<path fill="#FFFF00" d="M389.6,188c0.9,23.3-0.9,50.3-0.9,78.1h0h127.9h85.7h0c0-4.7,0-9.4-0.1-14c-0.5-0.3-1.2-0.7-1.9-1.1
		c-2.2-1.2-3.5-2.7-5.9-6.4c-1.7-2.7-3.7-6.6-4.4-8.7l-1.3-3.9l2.6-1.2c1.8-0.9,2.4-1.5,2.2-2.2c-0.2-0.5-0.5-3.2-0.7-6.1
		c-0.2-4.7-0.4-5.4-1.5-6.1c-0.8-0.5-1.5-1.9-1.9-3.3c-0.6-2.2-0.5-2.9,0.7-6.2c0.7-2,2.1-4.6,3.1-5.8c1.5-1.9,1.8-2.8,2.1-7
		c0.2-2.7,0.5-5.8,0.7-7l0.2-1.1c-32.2-11.7-66.2-17.6-100.5-17.3C471.7,168.7,425,172.3,389.6,188z M500.4,202.4
		c4,1.8,9,7.2,17,11.7c4.9,2.7,9.9,2.7,19.3,2.7c3.6,0,4.5,0.4,3.6,1.3c-2,1.8-4.5,3.1-7.2,3.6c2.2,0,7.6,1.8,7.6,2.7
		s-4.5,0.9-8.1,0.9c4.5,2.9,8.2,6.9,10.8,11.7c1.3,2.7,0.4,2.2-0.4,1.8c-1.3,0-2.7-0.4-3.6,0c-0.9,0.9-1.3,1.3-3.1,0
		c-1.3-1.3-10.8-7.2-17-9.9c-3.6-1.3-5.8,2.2-8.1,0.9l-5.4,18.8c4,0.9,8.5,2.2,9,5.4c0.9,2.7,0,2.2-0.9,1.3c-1.3-0.9-6.7-4.5-9-1.8
		c-1.3,1.3-2.2,3.6-1.3,5.8c0.4,1.3,0.4,2.2-0.9,1.3c-1.8-0.9-2.2-4.5-2.2-6.7c-2.2,0.4-4.5,2.2-5.8,4.5c-0.4,1.3-1.3,0.9-1.3,0
		c0-3.1,2.2-5.4,5.4-6.7c1.3-0.4,0.9-1.3,0-1.3c-1.3,0-3.1,0.4-4.5,1.3c-1.3,0.4-2.7,0-1.8-1.3c1.8-3.1,4.5-3.1,9.9-3.1
		c0.4-1.3,2.2-5.4,2.2-7.2v-2.7l-4.5-6.7l-2.7,0.9l-3.1,6.3c-0.4,1.3-1.3,1.3-1.3,0.9c-0.9-0.4-1.8,0-1.8,0.9l-4.5,7.6
		c1.8,0,3.1,2.2,4.5,4c1.3,1.8,0.4,4-0.9,1.8c-0.9-1.8-3.6-2.7-6.3-0.9c-2.2,0.9-2.2,4-2.2,5.8c0.4,1.3,0,1.8-0.9,0.9
		c-0.9-0.9-1.8-3.6-1.3-4.9s0.4-1.3-0.4-0.9c-1.3,1.3-3.1,3.1-3.6,4.9c-0.9,2.2-1.8,1.3-1.8,0c-0.4-1.8,0.4-4.5,2.2-7.6
		c-3.1,0.9-4.5,2.7-5.8,4.5c-0.9,1.8-0.9,0.9-0.9,0c0-8.1,6.3-9,13.5-8.1c1.6-2.3,3.1-4.7,4.5-7.2c-1.3,0.4-0.9-0.4-0.9-1.3l1.3-4.9
		c0.4-1.8,0-2.2-0.4-2.7c-10.1-5.6-15.5-16.9-13.5-28.3c0-4.5-1.8-7.2-4.5-9c-2.7-1.3-7.6-3.1-10.3-3.6s-2.2-0.9-0.9-1.8
		c1.8-0.9,9.9-0.9,13.5-0.9v0c3.1-3.1,10.8-5.8,16.6-3.6c5.8,2.2,5.8,5.8,8.1,12.6C497.3,198.3,498.6,201,500.4,202.4z"/>
	<path fill="#CF6200" d="M443.3,372.5c-0.9-0.9-2.2-3.4-2.8-4.4c-0.5-1-1.1-2.1-1.1,0.1s0,3.4,1.4,4.2c1.4,0.8,1.7,0.8,1.1,2
		c-0.6,1.2,0,2,0.3,2.8s0.7,1.6,0,2.4s-1.4,0.6-1.3-0.7c0-1.3-0.3-2.6-1-3.8c-0.5-1-1-1.8-1.7-1.2s-1.3-0.1-0.8-0.6s0.3-0.8,0-1.1
		c-0.3-0.3-0.5-0.7,0.1-1.4c0.6-0.7,0.6-1,0.2-2.7c-0.3-1.6-2.9-9.8-4-11.7c-1.1-1.9-1-3.2,0.4-1.4c1.4,1.8,2.8,3.5,3,5
		c0,1.6,0.4,2.5,0.9,3s0.8,0.4,1-0.9s1.2-0.8-0.4-3.2c-1.7-2.5-4.7-6.6-5.9-14c-1.2-7.4-1.6-12.1-2.8-14.1c-1.1-2-1.5-2.5-1.6-4.3
		c-0.1-1.8,0-3.8-0.8-5.2s-1.4-1.6-1.5,0.5c-0.1,2,0,6.8,0.7,7.6c0.7,0.8,0.2,2.9,0,4c-0.2,1.1-1.9,2.4,2,4.7c1.5,1,1.2,2.2,1,3
		c-0.2,0.9-0.5,0.8-1.3-0.5s-1.6-2.4-2.4-3c-0.8-0.6-1-1.2-0.8-2.9c0.2-1.7,0.4-2.8,0-3.3c-0.5-0.6-0.7-0.2-1,0.8
		c-0.2,0.9-0.4,3.5-1,4.2c-0.6,0.7-0.6,0.2-1-1.3c-0.4-1.5,0.2-3.9,1-6.5c0.8-2.6,1.3-5.5,0.6-9s-0.4-4.6-3-7.5
		c-2.7-2.9-5.8-5.7-7-9.3c-0.9-2.5-1.3-4.8-2-6.5c0.8,2.6,1.7,6.5,2.4,7.7c-1.1,0.1-2,1.1-1.3,4.7c0.5,2.2-1.2,1.7-1.8,0.6
		c-0.6-1.1-1.1-3.4-2.4-5.4c-1.2-2-0.6,1.3-0.7,3.2c-0.2,1.9,1,1.9,2.1,3.4c1.1,1.6,0.2,2.2-1,2.2s-0.7,2.5-0.4,4.2
		c0.3,1.7-0.3,2-1.2,0.6c-1-1.4-0.3-3.5-0.2-6.2c0.2-2.6,0.4-2-1.4-2.6c-1.7-0.7-1.4-1-0.7-2.5c0.6-1.6,1.2-2.4,0.4-3.1
		c-0.7-0.8-0.6-1.3,0.7-1.4c1.2-0.2,0.7-1.1,1.8-1.4s1.6,0.1,1.7-1.9c0.2-1.7,0.7-2.7,2-2.2c-0.3-0.7-0.6-1.3-1-1.8
		c-1.3-1.7-2.8-3.1-4.6-4.3v-5.4c0-1.3-0.6-2-2.1-1.8s-2.5,1.5-3.4,3.2c-1,1.8-1.6,1-3,4c-1.4,3-3,4.5-3,7.8h-0.1
		c1.2,1.9,3.3,5,3.5,6.8c0.8-1.7,1.5-2.4,1.6-3.5c0.1-1.1,1.5-3,1-4.2s-0.8-2,0.4-1.2c1.3,0.9,1,2.3,0.8,4.4
		c-0.8,5.7-3.1,6.8-3.5,10.7c3.4,8,0.9,11,4.6,19c0.6,0.3,2.1-0.3,2.6-0.2c2-1.4,3.5-1,6.3-0.3c2.8,0.5,4.3,2.5,4.3,4.3
		s0,2.2,0.6,3.2c0.6,1,1.7,2.7,1.5,3.9c-0.3,1.2,0.2,1.9,0.6,2.4c0.4,0.5-0.2,2-0.5,2.7s-0.2,1.9,1.2,3.6c1.4,1.8,4.6,9.1,4.6,13.4
		c0,4.4,0.3,6.4,2,7.2c1.8,0.8,2.3,1.5,2.1,3.3c-0.2,1.4,0.4,7.4,0.7,10.8c3.6-1.4,7.7-2.6,9.8-2.6c2.6,0,2.6-0.1,5.5-4.1
		c0-0.3-0.1-0.7-0.1-1.2C444.3,373.8,444.2,373.4,443.3,372.5z"/>
	<path fill="#CF6200" d="M403,332C403,332,403,332,403,332c0.1,0,0.1,0,0.1,0L403,332z"/>
	<path fill="#CF6200" d="M421.6,358.4c-0.1-3.5-1.6-6.3-4.5-9c-0.7-0.6-1.2-1.4-1.7-2.1c0.4,0.8,0.9,1.5,1.6,2.1
		C419.9,352.1,421.5,354.9,421.6,358.4z"/>
	<path fill="#CF6200" d="M415.1,346.6c0,0.1,0.1,0.1,0.1,0.2C415.2,346.8,415.2,346.7,415.1,346.6z"/>
	<path fill="#CF6200" d="M423.7,369.7c-0.1-0.3-0.3-0.7-0.4-1l0,0C423.4,369,423.5,369.4,423.7,369.7z"/>
	<path fill="#CF6200" d="M421.6,358.4c0,1.4,0.3,3.1,0.6,4.8C421.9,361.6,421.7,360,421.6,358.4z"/>
	<path fill="#CF6200" d="M445.1,361.7c1.1,2,2.1,4,3.4,4.5c1.3,0.5,3.9,1.7,4.7,3.6c0.8,1.9,1,1.7,2,0.6c0.9-1.1,0.3-1.8,1.9-1.1
		c1.5,0.8,4-0.4,2-2.1c-1.9-1.7-3.9-2.3-4.3-4.5L438,351.6c-0.1,0.1-0.2,0.2-0.3,0.3c1.1,2.4,2.2,4.9,2.9,6.7
		C442.5,358.9,444.2,360,445.1,361.7z"/>
	<path fill="#CF6200" d="M444.3,369.9c0.3,0.6,0.5,1.2,0.7,1.8C444.8,371.1,444.6,370.5,444.3,369.9z"/>
	<path fill="#CF6200" d="M441.2,361.4C441.2,361.4,441.2,361.4,441.2,361.4C441.2,361.4,441.2,361.4,441.2,361.4c-0.5,1.7-1,3,0.8,5
		c0.2,0.3,0.5,0.5,0.7,0.8c-0.2-0.3-0.4-0.5-0.7-0.8C440.2,364.4,440.7,363.1,441.2,361.4z"/>
	<path fill="#CF6200" d="M443.8,369c-0.3-0.6-0.7-1.2-1.1-1.8C443.1,367.7,443.5,368.3,443.8,369z"/>
	<path fill="#CF6200" d="M459.4,344c1.2,1.1,2.3,5.3,4.2,8.7C461.8,349.3,460.6,345.1,459.4,344z"/>
	<path fill="#CF6200" d="M451.9,328c0.8,3.7,1.4,5.6,2.1,6.6C453.4,333.5,452.7,331.7,451.9,328z"/>
	<path fill="#CF6200" d="M455.6,336.4c0.8,0.8,1.7,1.7,1.8,2.6C457.3,338.1,456.4,337.2,455.6,336.4z"/>
	<path fill="#CF6200" d="M457.4,339c0.1,0.9,0.4,2.4,1,3.6C457.9,341.4,457.5,339.9,457.4,339z"/>
	<path fill="#CF6200" d="M467.8,365.1c0,0.2-0.1,0.4-0.2,0.8c-0.1,0.1-0.1,0.3-0.2,0.4c0,0,0,0,0,0l0.1-0.1c0.1-0.2,0.1-0.3,0.2-0.4
		C467.9,365.5,467.9,365.3,467.8,365.1z"/>
	<path fill="#CF6200" d="M431.9,319.2c1.9-0.4,1.6-0.1,1.1,1.4c-0.5,1.6-0.8,2.5,0.5,2.8c1.2,0.3,1.6,1.4,1,2.8
		c-0.6,1.4-0.7,2.5,0.2,5c0.9,2.5,0.9,4.1,2.6,4.7c1.8,0.6,3,0.8,1.9,3c-1.1,2.4-2.3,3-1.2,5c1,1.8,2.4,4,2,5
		c-0.1,0.2-0.2,0.4-0.3,0.6l13.8,8.4c-0.6-1.2-1.3-2.3-1.9-2.9c-1.4-1.3-2.5-3.6-2.7-5.3c-0.4-1.7-0.7-1.8-2-3.3
		c-1.2-1.6-1.2-2.9-1-6c0.1-3.1,0-3.3-1.2-5.3c-1-2,0-2.3,1-3.6c1.1-1.2,1.3-0.9,1.5-6.2c0-5.3-1.6-2.8-3-1.5
		c-1.4,1.2-1.1,4.6-1.6,8v0.1c-0.4,3.3-2,1.3-1.7-0.7s1-4.4,0.6-5.6c-0.4-1.2-0.7-2.3-0.1-4.2c0.6-1.8,0.9-3.1,0.3-3.7
		c-0.7-0.6,0.9-2.3,1.3-5.1c0.2-2.8,0.7-2.5,1-0.2c0.4,2.4-0.5,3.6,0.4,3.6c0.9,0,1,0.1,1,0.9c0,0.8,0.2,2.6,0.8,1.6
		c0.7-0.9,1.2-0.2,1.7,1.2c0.4,1.3,1.2,0.8,2.3-1c0.2,1.7,0.9,5,1.7,9.3c-1-5.4-1.8-9.3-1.8-10.3s-0.2-1-1.1-1.4
		c-0.9-0.4-1.4-1.8-1-2.6c0.2-0.8-0.4-1.6-0.7-2.5c-0.3-0.9,0-2.6,0.6-3.6c0.6-1,0.5-3.5-0.1-5.7c-0.6-2.2-1.3-4-3.8-4.4
		c-2.4-0.3-3-1-3.8-3c-1-2-2-5.5-2.2-6.3c-0.3-0.8-0.8-1-2.7,0.6c-1.8,1.6-2.5,2-2.5,5c0,1.9,0.4,2.5,1,3.6c0.6,1,0.8,1.4,1.2,4.3
		c0.4,2.9,3.1,7.6-0.3,10.3c-3.4,2.6-3,3.3-2.8,5.1c0.2,1.9-1,3.1-1.5,0.5c-0.7-2.7,0-4.2,1.8-5.5c1.9-1.2,3.6-2.8,2.4-4.5
		c-1.3-1.7-1.8-5.7-2-7.6c-0.2-1.9-0.4-2.5-1.5-1h0c-1.5,2-3.4,3.7-5.4,5.2c-2.2,1.6-5,2.8-3.4,5.4c1.5,2.7,2.8,3,3,5
		c0.4,2,0.9,3.8,2.4,4.2c1.2,0.4,1.8,0.3,2.1,1.5C430.1,319.9,430.6,319.6,431.9,319.2z"/>
	<path fill="#CF6200" d="M466.3,362.5c-0.1-0.8,0-1.6,0-2.4c-0.1-0.7-0.3-1.6-0.6-2.7c0.3,1,0.5,1.9,0.5,2.6
		C466.3,360.9,466.2,361.8,466.3,362.5z"/>
	<path fill="#CF6200" d="M464.2,371.7c-1.4,0-2.2,1.3-3.7,2.3c-1.6,0.9-4.2,0-5.9-0.9c-1.7-1-3-1.1-3.6-0.3c0.6-0.8,1.9-0.6,3.6,0.3
		c1.7,1,4.4,1.8,6,1C462.1,373.1,462.8,371.7,464.2,371.7c0.6-0.5,1.1-1,1.5-1.7c0,0,0,0,0,0C465.3,370.7,464.8,371.2,464.2,371.7z"
		/>
	<path fill="#CF6200" d="M427.1,385.1C427.1,385,427.1,385,427.1,385.1c0-0.3,0-0.5,0-0.8C427.1,384.5,427.1,384.8,427.1,385.1z"/>
	<path fill="#CF6200" d="M446.3,375L446.3,375c-0.2,0-0.4-0.1-0.5-0.2C445.9,374.9,446.1,375,446.3,375z"/>
	<path fill="#CF6200" d="M445,371.6c0.2,0.6,0.3,1.1,0.3,1.5c0,0.4,0.1,0.8,0.1,1.1c-0.1-0.3-0.1-0.6-0.1-1.1
		C445.3,372.7,445.1,372.2,445,371.6z"/>
	<path fill="#CF6200" d="M423.6,384.2c0.2,0.1,0.4,0.3,0.6,0.7c0.3,0.5,0.5,0.9,0.8,1.2l0.1,0c-0.2-0.3-0.4-0.7-0.7-1.2
		C424,384.4,423.7,384.2,423.6,384.2z"/>
	<path fill="#CF6200" d="M423.6,385.7C423.6,385.7,423.6,385.7,423.6,385.7c0.1,0.3,0.2,0.6,0.4,0.9l0,0
		C423.9,386.3,423.7,386,423.6,385.7C423.6,385.7,423.6,385.7,423.6,385.7z"/>
	<path fill="#CF6200" d="M419,382.7c-1.9-1.6-2.8-0.2-3.4-4l-0.5-3.6c1.2,1,1.8,0.6,1.8-1.3c0.1-2.3,1.2-1.6,1.8,0.7
		c0.6,2.3,1.2,3.4,1.6,1.7c0.3-1.6,1.9-1.7,1.9,0.7c0,2.4,0.1,3.3,1.2,2.5c1.2-0.8,1.6-0.8,1.4,0.7c-0.1,1.6-0.7,1.7,1.3,2.6
		c0.4,0.2,0.7,0.5,0.9,0.9c0-1.2,0.2-2.7,0.2-4.5c-0.1-2.8-0.9-5.4-1.8-6.4c-0.6-0.6-1.1-1.5-1.5-2.4c0,0.1,0.1,0.1,0.1,0.2
		c-0.8,0.3-1.5,0.7-2.2-0.5c-0.8-1.5-1.4-2.4-2.4-1.4c-1.1,0.9-1-0.9-0.4-1.9c0.6-1.1,0.6-3-0.1-3.8c-0.5-0.7-1.6-1-1.5-2
		c0.2-1.1,0.1-2.3-1-2.7c-1-0.4-1-1.5-0.2-2.1c0.7-0.5,0.1-2.1-1.3-3.5c-1.4-1.4-1.4-0.7-1-3.7c0.2-3.1-1.9-4.1-2-6.1
		c-0.2-2,0.5-2.4,2.2-1.4c0,0.4,0.1,0.8,0.1,1.2c-0.1-1.2-0.1-2.3-0.1-3.2c0-2.5-1-5.8-2.8-7.8c-2-2-3.6,0-5,0.7
		c-1.4,0.7-2.3,0.4-3.2-0.3c-0.5,0.8-0.1,1.1,0.2,2c0.3,0.9,0.4,2.6,0.2,4c0,0.1,0,0.3,0,0.4c1.1-1.1,2.4-1.1,1.8,0.8
		c-0.6,2.2-0.6,2.2,0,3c0.5,0.8,0.5,1.4-0.1,2.5c-0.7,1.1-0.7,2.4-0.2,3.5c0.5,1,0.3,3.1-1.7,3.7l0,0l0,0l2.7,2.5
		c1.4,1.4,2.1,4.2,2.2,6.4c0.1,2.2,0.7,2,1.8,2.3c1.1,0.3,1.7,1.4,2.8,2.6s2.3,9.1,2.8,13.1c0.6,3.8,1.5,2.4,3.4,4
		c0.2,0.2,0.4,0.3,0.5,0.5c0.1,0.1,0.2,0.1,0.3,0.2C419.6,383.2,419.3,383,419,382.7z"/>
	<path fill="#CF6200" d="M451,372.8c-0.2,0.3-0.6,0.5-0.9,0.8c0,0,0,0,0.1,0C450.5,373.4,450.8,373.1,451,372.8z"/>
	<path fill="#00B800" d="M409.8,298.4c-0.1,2-0.6,1.6-1.7,1.9s-0.6,1.2-1.8,1.4c-1.3,0.1-1.4,0.6-0.7,1.4c0.8,0.7,0.2,1.5-0.4,3.1
		c-0.7,1.5-1,1.8,0.7,2.5c1.8,0.6,1.6,0,1.4,2.6c-0.1,2.7-0.8,4.8,0.2,6.2c0.9,1.4,1.5,1.1,1.2-0.6c-0.3-1.7-0.8-4.2,0.4-4.2
		s2.1-0.6,1-2.2c-1.1-1.5-2.3-1.5-2.1-3.4c0.1-1.9-0.5-5.2,0.7-3.2c1.3,2,1.8,4.3,2.4,5.4c0.6,1.1,2.3,1.6,1.8-0.6
		c-0.7-3.6,0.2-4.6,1.3-4.7c-0.7-1.2-1.6-5.1-2.4-7.7c0,0,0,0,0-0.1c0,0,0,0,0,0C410.5,295.7,410,296.7,409.8,298.4z"/>
	<path fill="#00B800" d="M438.9,349.1l0.7,0.4c0.1-0.2,0.2-0.4,0.3-0.6c0.4-1-1-3.2-2-5c-1.1-2,0.1-2.6,1.2-5c1.1-2.2-0.1-2.4-1.9-3
		c-1.7-0.6-1.7-2.2-2.6-4.7c-0.9-2.5-0.8-3.6-0.2-5c0.6-1.4,0.2-2.5-1-2.8c-1.3-0.3-1-1.2-0.5-2.8c0.5-1.5,0.8-1.8-1.1-1.4
		c-1.3,0.4-1.8,0.7-2.1,1.1c0,0,0,0.1-0.1,0.1l0.2,2v0c0,3.2,0,4.5,1.4,5.7c1.4,1.2,1.2,2.5,1.8,5.4c0.7,3,0.7,9.4,2.5,13.7l0.8,1.9
		C437,348.7,437.9,348.7,438.9,349.1z"/>
	<path fill="#00B800" d="M411.9,342.8c0.1,2,2.2,3,2,6.1c-0.4,3-0.4,2.3,1,3.7c1.4,1.4,2,3,1.3,3.5c-0.8,0.6-0.8,1.7,0.2,2.1
		c1.1,0.4,1.2,1.6,1,2.7c-0.1,1,1,1.3,1.5,2c0.7,0.8,0.7,2.7,0.1,3.8c-0.6,1-0.7,2.8,0.4,1.9c1-1,1.6-0.1,2.4,1.4
		c0.7,1.2,1.4,0.8,2.2,0.5c0-0.1-0.1-0.1-0.1-0.2c-0.1-0.2-0.2-0.4-0.3-0.6c-0.1-0.3-0.3-0.7-0.4-1l0,0h0.1
		c-0.2-0.8-0.8-3.1-1.2-5.5c-0.3-1.6-0.5-3.4-0.6-4.8c0,0,0,0,0,0c0,0,0,0,0,0c-0.1-3.5-1.7-6.3-4.6-9c-0.7-0.6-1.2-1.3-1.6-2.1
		c-0.1-0.1-0.1-0.3-0.2-0.4c0-0.1-0.1-0.1-0.1-0.2c-0.5-1.3-0.8-2.7-0.9-4c0-0.4-0.1-0.8-0.1-1.2
		C412.4,340.4,411.7,340.8,411.9,342.8z"/>
	<path fill="#00B800" d="M405,348.2c-0.5-1.1-0.5-2.4,0.2-3.5c0.6-1.1,0.6-1.7,0.1-2.5c-0.6-0.8-0.6-0.8,0-3
		c0.6-1.9-0.7-1.9-1.8-0.8c0,0,0,0-0.1,0.1v0c0,1.3,0.2,2.7,0.3,3.8c0.1,1.3,0.5,4-0.5,6c-0.9,2-0.7,3,0,3.6h0.1l0,0
		C405.3,351.3,405.5,349.2,405,348.2z"/>
	<path fill="#00B800" d="M447.9,319.7c-0.5-1.4-1-2.1-1.7-1.2c-0.6,1-0.8-0.8-0.8-1.6c0-0.8-0.1-0.9-1-0.9c-0.9,0,0-1.2-0.4-3.6
		c-0.3-2.3-0.8-2.6-1,0.2c-0.4,2.8-2,4.5-1.3,5.1c0.6,0.6,0.3,1.9-0.3,3.7c-0.6,1.9-0.3,3,0.1,4.2c0.4,1.2-0.3,3.6-0.6,5.6
		s1.3,4,1.7,0.7v-0.1c0.5-3.4,0.2-6.8,1.6-8c1.4-1.3,3-3.8,3,1.5c-0.2,5.3-0.4,5-1.5,6.2c-1,1.3-2,1.6-1,3.6c1.2,2,1.3,2.2,1.2,5.3
		c-0.2,3.1-0.2,4.4,1,6c1.3,1.5,1.6,1.6,2,3.3c0.2,1.7,1.3,4,2.7,5.3c0.7,0.6,1.3,1.7,1.9,2.9l10.6,6.4c1.2,0.7,2.3,1.4,3.4,2
		c0.1-0.2,0.1-0.3,0.2-0.4c0.2-0.4,0.3-0.6,0.2-0.8c0-0.3-0.4-0.5-0.9-1.1c-0.4-0.4-0.5-0.9-0.6-1.5c-0.1-0.8,0-1.7-0.1-2.5
		c0-0.7-0.2-1.6-0.5-2.6c-0.4-1.3-1-2.8-2.1-4.7c-1.9-3.4-3-7.6-4.2-8.7c-0.4-0.3-0.7-0.9-1-1.4c-0.6-1.2-0.9-2.7-1-3.6
		c-0.2-0.9-1-1.8-1.8-2.6c-0.2-0.2-0.5-0.5-0.7-0.7c-0.3-0.3-0.6-0.6-0.9-1.1c-0.7-1.1-1.3-2.9-2.1-6.6c-0.8-4.3-1.5-7.6-1.7-9.3
		C449.1,320.5,448.3,321,447.9,319.7z M453.2,336.2c1.4,1.1,1.1,2.2,1.3,4.4c1.4,0.8,3.8,4.9,4.7,8.1c0.7,3.1,2.1,7.6,4,8.6
		c1.8,0.8,1.5,2.2,1.8,4c0.3,1.8-1.7,1-3.1-0.8c-1.4-1.8-2.4-2.5-3.6-2.8s-1.6-0.4-1.6-1c0-0.6,0.1-0.7-1-1.2
		c-1.1-0.5-2-1.4-1.9-2.3c0.2-1-0.6-2.5-1.7-3.4c-1.5-1.4-2.2-3.5-2-5.5c0.3-2.2-0.2-1.7-1.1-2.2s-1.6-1.7-1.2-3.5s0.2-2.9-0.3-3.9
		s-0.8-1.9-0.4-2.5c0.5-0.6,0.5-1.6,0.7-3.4l0,0c0.2-1.8,1.2-2,1.2-1s0.3,1.7,0.9,2c0.7,0.4,1.4,1.8,1.4,2.8
		C451.3,334,452,335.4,453.2,336.2z"/>
	<path fill="#00B800" d="M437.6,351.3c-0.1,0-0.1-0.1-0.2-0.1l0.3,0.7c0,0,0,0,0,0c0.1-0.1,0.2-0.2,0.3-0.3L437.6,351.3z"/>
	<path fill="#00B800" d="M427.1,384.3c0-0.2,0-0.4,0-0.6c0,0,0,0-0.1-0.1c-0.3-0.5-0.6-0.7-0.9-0.9c-2-0.9-1.4-1-1.3-2.6
		c0.2-1.5-0.2-1.5-1.4-0.7c-1.1,0.8-1.2-0.1-1.2-2.5c0-2.4-1.6-2.3-1.9-0.7c-0.4,1.7-1,0.6-1.6-1.7c-0.6-2.3-1.7-3-1.8-0.7
		c0,1.9-0.6,2.3-1.8,1.3l0.5,3.6c0.6,3.8,1.5,2.4,3.4,4c0.3,0.3,0.6,0.5,0.8,0.8c0.3,0.2,0.7,0.5,1,0.7l3.1,2.5l0.1-0.1
		c-0.2-0.3-0.3-0.6-0.4-0.9c0,0,0,0,0,0c-0.3-1-0.3-1.5,0-1.5c0.2,0,0.4,0.2,0.7,0.7c0.3,0.5,0.5,0.9,0.7,1.2l1.1-0.6
		c0.3-0.2,0.6-0.3,0.9-0.5C427.1,384.8,427.1,384.5,427.1,384.3z"/>
	<path fill="#00B800" d="M451,372.8c0.6-0.8,1.9-0.7,3.6,0.3c1.7,0.9,4.3,1.8,5.9,0.9c1.5-1,2.3-2.3,3.7-2.3c0.6-0.5,1.1-1,1.5-1.7
		c-1-0.7-2-1.4-3-2.1l-7.9-5.2c0.4,2.2,2.4,2.8,4.3,4.5c2,1.7-0.5,2.9-2,2.1c-1.6-0.7-1,0-1.9,1.1c-1,1.1-1.2,1.3-2-0.6
		c-0.8-1.9-3.4-3.1-4.7-3.6c-1.3-0.5-2.3-2.5-3.4-4.5c-0.9-1.7-2.6-2.8-4.5-3.1c0,0,0,0,0,0c0.5,1.3,0.7,2.3,0.6,2.8c0,0,0,0,0,0
		c-0.5,1.7-1,3,0.8,5c0.2,0.3,0.5,0.5,0.7,0.8c0.4,0.6,0.8,1.2,1.1,1.8c0.2,0.3,0.3,0.6,0.5,0.9c0.3,0.6,0.5,1.2,0.7,1.8
		c0.2,0.6,0.3,1.1,0.3,1.5c0,0.4,0.1,0.8,0.1,1.1c0.1,0.3,0.2,0.5,0.3,0.6c0.1,0.1,0.3,0.2,0.5,0.2c0.8-1.1,1.4-1.8,1.4-1.8
		c0.1,0,1.1,0.2,2.3,0.5C450.4,373.3,450.8,373.1,451,372.8z"/>
	<path fill="#5D3100" d="M449.9,329.8c-0.6-0.3-0.9-1-0.9-2s-1-0.8-1.2,1l0,0c-0.2,1.8-0.2,2.8-0.7,3.4c-0.4,0.6-0.1,1.5,0.4,2.5
		s0.7,2.1,0.3,3.9s0.3,3,1.2,3.5s1.4,0,1.1,2.2c-0.2,2,0.5,4.1,2,5.5c1.1,0.9,1.9,2.4,1.7,3.4c-0.1,0.9,0.8,1.8,1.9,2.3
		c1.1,0.5,1,0.6,1,1.2c0,0.6,0.4,0.7,1.6,1s2.2,1,3.6,2.8c1.4,1.8,3.4,2.6,3.1,0.8c-0.3-1.8,0-3.2-1.8-4c-1.9-1-3.3-5.5-4-8.6
		c-0.9-3.2-3.3-7.3-4.7-8.1c-0.2-2.2,0.1-3.3-1.3-4.4c-1.2-0.8-1.9-2.2-1.9-3.6C451.3,331.6,450.6,330.2,449.9,329.8z"/>
	<path fill="#00D860" d="M462.1,377.1c-2.9,2.1-6.3,3-8.4,3.3v1.6c0,0,0,0,0,0c1.1,0,1.1,0.3,1.7,2c1.8-1,3.3-1.5,4.5-1.7
		c0,0,0,0,0,0c1.2-1.4,2.6-2.4,5.1-3.5C463.8,378.2,462.8,377.5,462.1,377.1L462.1,377.1z"/>
	<path fill="#FFFF00" d="M483.8,324.4c-0.9,0.2-1.8,0.3-2.7,0.1V338l2.8,0L483.8,324.4z"/>
	<path fill="#FFFF00" d="M515.5,278.8l0.2,10.2h1.6l-0.4-10.3C516.5,278.8,516,278.8,515.5,278.8z"/>
	<path fill="#FFFF00" d="M515.8,294.5l0.3,16h1.9l-0.5-14.7C516.9,295.6,516.3,295.2,515.8,294.5z"/>
	<path fill="#FFFF00" d="M483.7,304.9c-0.8,0.3-1.7,0.4-2.5,0.4v13.3h2.7L483.7,304.9z"/>
	<path fill="#FFFF00" d="M516.6,330.2h2.2l-0.5-14.5c-0.6,0.2-1.3,0.3-2,0.3L516.6,330.2z"/>
	<path fill="#FFFF00" d="M483.5,288.4c-0.7,0.6-1.5,0.9-2.4,0.9v9.6h2.5L483.5,288.4z"/>
	<path fill="#FFFF00" d="M545.3,269.7c0-2.7-2.2-2.2-2.2,0.4l0.3,13.5h2.3L545.3,269.7z"/>
	<rect x="481.1" y="319" fill="#FFFF00" width="2.7" height="0"/>
	<polygon fill="#FFFF00" points="515.2,266.1 515.4,274.4 516.8,274.4 516.5,266.1 516.5,266.1 	"/>
	
		<rect x="515.4" y="274.4" transform="matrix(-0.9999 1.666865e-002 -1.666865e-002 -0.9999 1036.7122 540.1593)" fill="#FFFF00" width="1.5" height="0"/>
	<path fill="#FFFF00" d="M483.3,271.5c0-4.5-2.2-3.6-2.2,0v11.4l2.3,0L483.3,271.5z"/>
	<path fill="#FFFF00" d="M543.4,289.6l0.4,20.8c0.9-0.4,1.6-0.8,2.2-0.9l-0.4-18.6C544.8,290.5,544.1,290.1,543.4,289.6z"/>
	<rect x="517.7" y="329.6" fill="#FFFF00" width="0" height="2.2"/>
	<path fill="#FFFFFF" d="M529,310.9c0,0-0.1,0-0.3,0l-26.9-0.4c-0.2,0-0.3,0-0.3,0s0.1,0,0.3,0h13.5l-13.9-0.4
		c0.4,7.2,7.2,6.7,10.8,4c1.1,1.5,2.6,2.1,4.2,2c0.7,0,1.3-0.1,2-0.3c1.1-0.4,2-0.9,2.8-1.7c3.1,3.6,9,1.3,8.1-3.1h0l-0.4,0v0
		C528.9,310.9,529,310.9,529,310.9z"/>
	<path fill="#FFFFFF" d="M516.8,274.4l-1.5,0l-11.4,0.2c0,4.5,6.3,6.3,8.5,2.7c0.6,1,1.7,1.4,3,1.5c0.5,0,1,0,1.5-0.1
		c1.1-0.2,2.2-0.7,2.7-1.4c1.8,3.1,4.5,0.9,5.4,0c3.1,2.2,6.3,0.9,5.8-3.1v0L516.8,274.4z"/>
	<path fill="#FFFFFF" d="M537.9,314.2c1.6-1.3,3.8-2.7,5.7-3.7H530C530,314.9,534.7,316.3,537.9,314.2z"/>
	<path fill="#FFFFFF" d="M503.1,289c0,0.2,0,0.3,0,0.4h29.1c0.2,0,0.3,0,0.3,0s-0.1,0-0.3,0h-29.1c0.4,4.6,6.8,7,11.6,2.7
		c0.2,1,0.6,1.8,1.1,2.4c0.5,0.7,1.1,1.1,1.8,1.3c2.1,0.7,4.8-0.5,6.2-1.9c3.6,4.5,11.2-0.9,9-4.5V289h-15.4h-1.6H503.1z"/>
	<path fill="#FFFFFF" d="M484.2,287.6c2.7,2.2,6.3,1.8,7.6,0c3.5,3,7.3,0.2,6.8-4.1c0,0,0,0-0.1,0v0l0,0h-30.9
		c-0.2,0-0.2-0.2-0.2-0.4l-0.3,0c-1.3,6.3,6.3,5.8,9,4.5c1.9,1.2,3.5,1.7,4.9,1.7c0.9,0,1.7-0.3,2.4-0.9
		C483.8,288.2,484,287.9,484.2,287.6z"/>
	<path fill="#FFFFFF" d="M483.8,324.4c1.3-0.3,2.5-0.9,3.1-1.8c3.1,2.2,5.8,1.8,7.2,0c3.1,2.7,6.3-0.9,5.8-3.6h-16.2h-2.7h-11.7
		c-0.4,4.9,5.8,4.5,8.1,3.1c0.9,1.4,2.2,2.1,3.6,2.3C482,324.6,483,324.6,483.8,324.4z"/>
	<path fill="#FFFFFF" d="M483.7,304.9c0.2-0.1,0.4-0.2,0.6-0.3c2.7,1.8,6.3,0.4,8.1-1.3c3.1,1.3,7.2,1.8,9-4.5h-0.4
		c0.4,0,0.4,0.4,0,0.4H469c0,0,0,0,0,0c-5,5.1,2,7.5,8.1,4c0.6,1.1,2.2,1.9,4,2C481.9,305.3,482.8,305.2,483.7,304.9z"/>
	<path fill="#FFFFFF" d="M516.6,330.7h-5c1.2,0.4,2.6,0.5,5.9,0.5h5.3l0.3-0.5h-4.3H516.6z"/>
	<path fill="#FFFFFF" d="M467.2,338.8v-0.4c-1.4,4.6,1.6,6.1,4.1,5.9v-1l3-1.7l3.1-1.8l3.9,1.1c2.2,0.6,5.5,1.1,7.4,1.1h3.6v-3.2
		H467.2z"/>
	<path fill="#FFFFFF" d="M529.6,284c0.3,2.8,3.2,4,5.4,2.7c0,3.6,4.5,4.5,7.6,1.8c0.2,0.4,0.5,0.8,0.9,1.1c0.6,0.6,1.4,1,2.3,1.2
		c2.4,0.7,5.3,0,6.7-2.3c0.3,0.3,0.6,0.5,0.9,0.7c-0.9-2-1.3-3.5-1.5-5.2H529.6z"/>
	<path d="M464.1,364.3l-10.6-6.4l-13.8-8.4l-0.7-0.4c-1-0.4-2-0.4-2.5,0c-0.6,0.4-0.6,1.2,1,2.1c0.1,0,0.1,0.1,0.2,0.1l0.4,0.3
		l16.8,11.1l7.9,5.2c1.1,0.7,2.1,1.4,3,2.1c0,0,0,0,0,0c1.1,0.8,2,1.5,3,2.3c0.6,0.5,1.2,1,1.8,1.5c0.1-1.2-0.2-2-1.4-4.2l-1.8-3.1
		l0.2-0.2c0,0,0,0,0,0C466.4,365.7,465.3,365.1,464.1,364.3z"/>
	<path fill="none" stroke="#000000" stroke-width="0" stroke-linecap="round" stroke-linejoin="round" d="M501.7,310.5
		c-0.2,0-0.3,0-0.3,0"/>
	<path fill="none" stroke="#000000" stroke-width="0" stroke-linecap="round" stroke-linejoin="round" d="M529,310.9
		c0,0-0.1,0-0.3,0"/>
	<path d="M499.9,319c0.4,0,0.4-0.4,0-0.4h-16.2h-2.7h-11.7c0,0-0.4,0.4,0,0.4h11.7h2.7H499.9z"/>
	<polygon points="515.2,310.5 501.7,310.5 528.7,310.9 528.7,310.9 528.7,310.5 518.1,310.5 516.1,310.5 	"/>
	<polygon points="481.1,338 467.2,337.9 467.2,338.3 467.2,338.8 492.2,338.8 492.2,338.2 483.9,338.1 	"/>
	<path d="M500.8,299.3c0.4,0,0.4-0.4,0-0.4c0,0,0,0,0,0h-17.2h-2.5H469c-0.4,0-0.4,0.4,0,0.4c0,0,0,0,0,0H500.8z"/>
	<path d="M467.6,283.6h30.9h0c0,0,0,0,0.1,0c0.4,0,0.4-0.4-0.1-0.4l0.4,0l-15.6-0.2l-2.3,0l-13.5-0.2c0,0-0.1,0.2-0.2,0.5
		C467.4,283.4,467.4,283.6,467.6,283.6z"/>
	
		<line fill="none" stroke="#FFFFFF" stroke-width="0" stroke-linecap="round" stroke-linejoin="round" x1="515.4" y1="274.4" x2="504" y2="274.6"/>
	
		<line fill="none" stroke="#FFFFFF" stroke-width="0" stroke-linecap="round" stroke-linejoin="round" x1="516.8" y1="274.4" x2="515.4" y2="274.4"/>
	
		<line fill="none" stroke="#FFFFFF" stroke-width="0" stroke-linecap="round" stroke-linejoin="round" x1="530.9" y1="274.2" x2="516.8" y2="274.4"/>
	<path fill="none" stroke="#000000" stroke-width="0" stroke-linecap="round" stroke-linejoin="round" d="M529.3,310.5
		c0,0,0.2,0,0.7,0h13.6"/>
	<path fill="none" stroke="#000000" stroke-width="0" stroke-linecap="round" stroke-linejoin="round" d="M502.8,289.4
		c0,0,0.1,0,0.3,0h0"/>
	<path fill="none" stroke="#000000" stroke-width="0" stroke-linecap="round" stroke-linejoin="round" d="M532.6,289.4
		c0,0-0.1,0-0.3,0h-29.1"/>
	<path d="M516.6,330.2h-5.9c0.3,0.2,0.6,0.3,0.9,0.4h5h2.2h4.3l0.3-0.4h-4.5H516.6z"/>
	<path d="M543.3,283.6h-13.7c-0.4,0-0.4,0.4,0,0.4h0h22.2c0-0.1,0-0.3,0-0.4h-6.2H543.3z"/>
	<path d="M487.8,183.5c-5.8-2.2-13.5,0.4-16.6,3.6v0c-3.6,0-11.7,0-13.5,0.9c-1.3,0.9-1.8,1.3,0.9,1.8s7.6,2.2,10.3,3.6
		c2.7,1.8,4.5,4.5,4.5,9c-2,11.3,3.4,22.7,13.5,28.3c0.4,0.4,0.9,0.9,0.4,2.7l-1.3,4.9c0,0.9-0.4,1.8,0.9,1.3
		c-1.4,2.5-2.9,4.9-4.5,7.2c-7.2-0.9-13.5,0-13.5,8.1c0,0.9,0,1.8,0.9,0c1.3-1.8,2.7-3.6,5.8-4.5c-1.8,3.1-2.7,5.8-2.2,7.6
		c0,1.3,0.9,2.2,1.8,0c0.4-1.8,2.2-3.6,3.6-4.9c0.9-0.4,0.9-0.4,0.4,0.9s0.4,4,1.3,4.9c0.9,0.9,1.3,0.4,0.9-0.9c0-1.8,0-4.9,2.2-5.8
		c2.7-1.8,5.4-0.9,6.3,0.9c1.3,2.2,2.2,0,0.9-1.8c-1.3-1.8-2.7-4-4.5-4l4.5-7.6c0-0.9,0.9-1.3,1.8-0.9c0,0.4,0.9,0.4,1.3-0.9
		l3.1-6.3l2.7-0.9l4.5,6.7v2.7c0,1.8-1.8,5.8-2.2,7.2c-5.4,0-8.1,0-9.9,3.1c-0.9,1.3,0.4,1.8,1.8,1.3c1.3-0.9,3.1-1.3,4.5-1.3
		c0.9,0,1.3,0.9,0,1.3c-3.1,1.3-5.4,3.6-5.4,6.7c0,0.9,0.9,1.3,1.3,0c1.3-2.2,3.6-4,5.8-4.5c0,2.2,0.4,5.8,2.2,6.7
		c1.3,0.9,1.3,0,0.9-1.3c-0.9-2.2,0-4.5,1.3-5.8c2.2-2.7,7.6,0.9,9,1.8c0.9,0.9,1.8,1.3,0.9-1.3c-0.4-3.1-4.9-4.5-9-5.4l5.4-18.8
		c2.2,1.3,4.5-2.2,8.1-0.9c6.3,2.7,15.7,8.5,17,9.9c1.8,1.3,2.2,0.9,3.1,0c0.9-0.4,2.2,0,3.6,0c0.9,0.4,1.8,0.9,0.4-1.8
		c-2.6-4.7-6.3-8.7-10.8-11.7c3.6,0,8.1,0,8.1-0.9s-5.4-2.7-7.6-2.7c2.7-0.5,5.2-1.8,7.2-3.6c0.9-0.9,0-1.3-3.6-1.3
		c-9.4,0-14.4,0-19.3-2.7c-8.1-4.5-13-9.9-17-11.7c-1.8-1.3-3.1-4-4.5-6.3C493.7,189.4,493.7,185.8,487.8,183.5z M480.8,223.8
		c-1.1,0-1.4-1.3-1.4-2s-0.3-0.8-1.3-1s-0.4-1.4,0.4-1.5c0.5,0,1.5,0.6,1.5,1.4c0.1,0.9,0.9,1.2,1.8,1.6
		C482.8,222.7,481.8,223.9,480.8,223.8z M493.1,234.8c-0.3,0.8-0.4,0.9-0.5-0.3c0-1.2-0.7-2-1.3-0.7l-1.2,2.2
		c-0.3,0.5-0.8,0.7-0.6-0.6c0.2-1.3,0.1-2.6,0-3.7c0.9,0.3,3.9,0.6,5,0.6L493.1,234.8z M531.4,226.1l4.5,4c1.3,1.3,0.4,1.8-0.9,0.9
		s-2.2,0,0,2.2s1.8,2.2,0.4,2.2c-0.8,0.2-1.6,0-2.2-0.4c-3.7-2.7-7.8-5-12.1-6.7c-4.5-1.3-9.9-0.9-11.2,0c0.4-3.6-1.3-2.7-1.3-1.3
		l-2.7,7.6c0,0.9-0.9,1.8-1.3,0.9l-2.7-4.9c-0.4-1.3-0.9-1.3-1.3-1.3c-0.2,0.1-0.5,0.2-0.7,0.3c0.2,0,0.5-0.1,0.6-0.1
		c-5.8,2.3-10.1,1.6-13.4-0.3c-1.4-0.7-2.7-1.7-3.8-2.8c-0.2-0.2-0.3-0.3-0.5-0.5c0,0,0,0,0.1,0c-0.1-0.1-0.1-0.1-0.2-0.2
		c0.2,0.1,0.4,0.2,0.6,0.3c0.5,0.1,0.9,0.1,1.2-0.1c0-0.1,0-0.1,0-0.3c0-0.3,0-0.5,0.1-0.6c0-0.1,0-0.1,0.1-0.2
		c0.3-0.4,0.8-0.2,1.2,0.8l0.8,1.2c0-0.1,0.1-0.1,0.1-0.2c0.1-0.4,0.2-0.5,0.5-0.3c0.2,0,0.3,0.2,0.4,0.5c0.1,0.1,0.2,0.2,0.2,0.4
		c0,0.1,0.1,0.1,0.1,0.1c0.7,0.6,1.1,0.5,1.9-0.3c0.9-0.4,0.4-0.9-0.9-0.9c-0.7,0-0.9-0.1-0.8-0.3c-0.2-0.2,0.1-0.6,0.8-0.8
		c0.2-0.1,0.3-0.1,0.4-0.2c0-0.1,0-0.2,0-0.2c-0.2-0.3-1-0.5-1.9-0.6c-0.8-0.1-0.9-0.3-0.6-0.5c-0.1-0.3,0.3-0.6,0.8-0.6
		c0.3-0.1,0.4-0.2,0.5-0.3c-0.2-0.2-0.9-0.4-1.8-0.5l0,0l-0.4-0.1c-0.9,0-0.5,0,0.3-0.4c0.9-0.4,0.4-1.3-2.7-1.3
		c-1.3-0.4-0.4-0.9,0-0.9c1.3-0.4,0.4-0.4-0.9-0.4s-1.3-0.9-0.4-0.9c0.9-0.4,0.4-0.4,0-0.4h-3.1c-1.6,0-1.8-0.5-1.5-0.7
		c0-0.2,0.2-0.4,0.5-0.4c0.4,0,0.7-0.2,0.8-0.4c-0.2-0.2-0.8-0.3-2.1-0.3c-1.2,0-2-0.4-1.5-0.7c-0.2-0.3,0.3-0.5,1.9-0.5
		c1.2,0,1.8-0.2,1.8-0.4c0-0.3-1-0.6-2.2-0.6c-1.2,0.2-1.6,0.1-1.5,0c-0.5-0.2,0.6-0.8,1.6-0.7c0.1,0,0.1,0,0.2,0
		c-0.3-0.1-0.7-0.3-1.2-0.6c-1.3-0.9,0.4-1.3,0.9-0.9c0,0,0.1,0.1,0.1,0.1c0.3-0.1,0.4-0.2,0.2-0.4c-0.1-0.1-0.2-0.1-0.4-0.1l-1-0.8
		l-0.5-0.3l0.1-0.1l-0.8-0.6c0.9-12.1,0-13.5-4.5-16.6c-0.9-0.9,0-1.3,0.9-0.9c0.9,0.4,1.3-0.9,0-0.9l-6.7-1.8c0,0-0.4,0-0.4,0
		c0,0,0.4,0,0.4,0h7.2c1.8-1.3,4.5-4.5,8.5-3.6c3.6,0.9,6.3,3.1,4.5,5.8c-2.2,3.1-4.9,2.2-8.1,0.9c-1.8-0.9-2.7-0.9-2.7,0
		s0.9,0.9,2.2,0.9c1.3,0,1.8,0,2.2,0.9c0.9,0.4,1.3,1.3,3.6,0.4s3.1,1.3,4.5,1.3c0,0.9,0.9,1.8,1.8,2.2v1.3c0.4,0.9,0.4,1.3,0,1.3
		s-0.4,0.9,0.4,1.8c-5.8,3.6-5.8,12.1-2.2,16.2c7.2,7.6,17,6.3,29.2,4.9c5.4,2.2,13.9,7.2,16.2,9s1.8,0,0.4-0.9s-6.3-4.5-9-5.4
		c-2.7-0.9-1.8-0.9-0.9-0.9h6.7C530.9,225.2,530.9,226.1,531.4,226.1z M493.7,193.3l0.5,1.8c0,0,0,0,0,0.1c0.4,1.8,1,3.7,2.2,5.9
		c0.9,0.9,0.9,1.3,0,1.3c-0.9,0.4-0.9,1.3,0,1.8c1.8,1.8,3.1,0.9,2.7,0s0-1.3,1.3,0c1.3,1.3,0.4,2.2-0.4,1.3c-0.9-0.9-0.9-0.4-1.3,0
		c-0.4,0.4,0.4,0.9,0.9,1.8c0.4,0.9,1.8,0.9,2.2,0c0.4-0.9-0.9-2.2,1.3-0.9s0.9,1.8,0,2.7c-1.3,0.4,0,1.3,1.3,1.8
		c1.3,0.4,1.3-0.4,0.9-1.8c-0.4-1.3,0-1.3,1.8,0c1.3,1.3,1.8,1.8,0.4,2.2c-1.3,0.4-0.9,0.9,0,1.8c0.1,0.1,0.2,0.1,0.3,0.2
		c0.8,0.4,2-0.2,1.8-0.6c-0.2-0.4-0.7-1.6,0.1-1.4c0.2-0.2,0.5-0.1,1.1,0.5l2.3,1.7l8.2,5.7c0.8,0.5,1.1,0.9,1.1,1.2
		c0.1,0.1,0.1,0.1,0,0.2c-0.1,0.3-0.8,0.2-1.4,0c-0.4-0.2-1.3-0.6-2.2-1c-0.8-0.3-1.6-0.7-2.3-1.1c-0.4-0.2-0.8-0.4-1.2-0.6
		c-1.7-1-2-0.6-2.2-0.3c-0.1,0.1-0.1,0.4,0,0.6c0.2,0.4,0.6,1,1.2,1.3c0.9,0.4,0.4,1.3-0.9,1.3c-1.3,0-5.4-2.2-8.1-4
		c-1.3-0.4-1.3,0.9-1.3,0.9s0.4,0.9-0.4,0.9l-4,1.8c-0.2,0.1-0.4,0.3-0.5,0.4c0.1,0.2,0.2,0.3,0.3,0.5c0.3,0,0.7,0,1,0l4.5-2.2
		c0.9-0.9,1.8,0,2.2,0c0.4,0,0.9,0.9,0.4,1.3c-0.4,0.4,0,0,1.3,0s3.1,0.9,5.8,2.7h-14.8c-7.9,0-12.7-3.5-13.7-8.7
		c-0.2-0.3-0.2-0.8-0.2-1.5c0-0.1,0-0.1,0.1-0.2c0-0.2,0-0.3,0-0.5c-0.4-2.2,0.4-2.2,1.3-2.2l2.2-0.9c0.4-0.4,1.3-1.3,2.2-0.4
		c0.9,0.9,1.8-0.9,0.9-1.3l-2.2-0.4l-3.1,1.8c-0.9,0.4-0.9,0-0.9-1.3c0.4-1.3,1.8-0.9,3.1-1.3c1.3-0.4,0.4-0.9-0.4-0.9
		s-0.4-0.4,0-1.3s0.4-1.3,2.2-0.9s1.8,0.4,1.8-0.9s-1.3-1.8-1.8-2.7c0-0.9-0.4-0.9-1.8-0.9c0.4-0.2,0.7-0.6,0.8-1c0,0-0.1,0-0.1,0
		c0.1-0.4,0-0.9-0.3-1h-0.5c0-0.1,0-0.1,0-0.2h-0.4c0-0.4,0.9-1.3,0-1.3c-0.3,0-0.5-0.2-0.7-0.4c0,0-0.1,0-0.1,0.1
		c-0.1-0.2-0.1-0.4-0.1-0.5c-0.1-0.3-0.1-0.5-0.1-0.5h-0.9c-0.3,0.2-0.7,0.2-0.9,0c-0.5-0.2-0.8-0.9-0.8-1.5c-0.1-0.6,0-1.3,0.3-1.6
		c1.3,0,0.9-0.9,0-1.3v-2.7c-0.4-0.4-0.4-1.3,0.9-1.3c1.7,0.6,3.2,1.5,4.5,2.7l-0.4,0c0.5,0.6,0.9,1.1,1.2,1.7
		c0.1,0.2,0.3,0.4,0.4,0.7c0,0,0,0,0,0C493.1,191,493.4,192.2,493.7,193.3z"/>
	<path fill="none" stroke="#FFFFFF" stroke-width="0" stroke-linecap="round" stroke-linejoin="round" d="M463.7,188.9
		c0,0,0.4,0,0.4,0"/>
	<path fill="#FFFFFF" d="M476.4,213.6c-0.7,0.1-1.1,0.1-1.3,0c-0.1,0.1,0.3,0.2,1.5,0c1.2,0,2.2,0.3,2.2,0.6
		C478.9,213.8,478,213.4,476.4,213.6z"/>
	<path fill="#FFFFFF" d="M489.8,227.3c0.9-0.6,0.3-1.2-1-1.2c-0.5,0-0.8-0.1-0.9-0.2c-0.1,0.2,0.1,0.3,0.8,0.3
		c1.3,0,1.8,0.4,0.9,0.9c-0.8,0.8-1.2,0.9-1.9,0.3C488.3,228,488.9,227.8,489.8,227.3z"/>
	<path fill="#FFFFFF" d="M476.7,215.6c-0.8,0-1.5-0.2-1.6-0.5c-0.5,0.3,0.3,0.7,1.5,0.7c1.2,0,1.8,0.1,2.1,0.3
		C478.7,215.9,478.3,215.6,476.7,215.6z"/>
	<path fill="#FFFFFF" d="M484.4,225.3c0-0.1,0-0.2-0.1-0.2c-0.1,0.2-0.1,0.4-0.1,0.6c0,0.1,0,0.2,0,0.3
		C484.4,225.8,484.5,225.6,484.4,225.3z"/>
	<path fill="#FFFFFF" d="M485.5,225.9c0.3,0.9,0.7,1.3,0.9,1l-0.8-1.2c-0.3-1-0.9-1.2-1.2-0.8C484.6,224.8,485.2,225.2,485.5,225.9z
		"/>
	<path fill="#FFFFFF" d="M493.4,229.7c-0.2,0-0.4,0-0.6-0.1C493,229.7,493.2,229.8,493.4,229.7z"/>
	<path fill="#FFFFFF" d="M487.4,226.8c-0.1-0.3-0.2-0.4-0.4-0.5C487.1,226.5,487.2,226.6,487.4,226.8z"/>
	<path fill="#FFFFFF" d="M482.5,225.7c0.1,0.1,0.1,0.1,0.2,0.2c0.1,0,0.3,0.1,0.4,0.1C482.9,225.9,482.7,225.8,482.5,225.7z"/>
	<path fill="#FFFFFF" d="M476.5,210.6l-0.9-0.5l1,0.8c0.2,0,0.3,0,0.4,0.1C476.9,210.9,476.8,210.7,476.5,210.6z"/>
	<path fill="#FFFFFF" d="M489.1,224.7c0,0.1,0,0.2,0,0.2C489.1,224.8,489.1,224.8,489.1,224.7z"/>
	<path fill="#FFFFFF" d="M483.1,226.4c1.1,1.2,2.4,2.1,3.8,2.8c-0.3-0.2-0.7-0.4-1-0.6C484.8,228,483.9,227.2,483.1,226.4z"/>
	<path fill="#FFFFFF" d="M522.8,226.1c2.7,0.9,7.6,4.5,9,5.4s1.8,2.7-0.4,0.9s-10.8-6.7-16.2-9c-12.1,1.3-22,2.7-29.2-4.9
		c-3.6-4-3.6-12.6,2.2-16.2c-0.9-0.9-0.9-1.8-0.4-1.8s0.4-0.4,0-1.3v-1.3c-0.9-0.4-1.8-1.3-1.8-2.2c-1.3,0-2.2-2.2-4.5-1.3
		s-2.7,0-3.6-0.4c-0.4-0.9-0.9-0.9-2.2-0.9c-1.3,0-2.2,0-2.2-0.9s0.9-0.9,2.7,0c3.1,1.3,5.8,2.2,8.1-0.9c1.8-2.7-0.9-4.9-4.5-5.8
		c-4-0.9-6.7,2.2-8.5,3.6h-7.2l6.7,1.8c1.3,0,0.9,1.3,0,0.9c-0.9-0.4-1.8,0-0.9,0.9c4.5,3.1,5.4,4.5,4.5,16.6l0.8,0.6l1.2-1.4
		c0.8-1.1,1.1-1.4,1.1-2.8c0-1.4,0.7-2.1,1.8-2.9c1.2-1,2-1.5,2.2-3c0.2-1.5,1.2-1.8,1.9-1.5c0.8,0.3,1.1,0.4,1.8,0.4
		c0.7-0.1,1.1,0.2,1.5,1.5l0,0.1c0.4,1.3-0.2,3.2-1.2,4c-1,0.8-2.7,4.3-2.7,5c0,0.7-0.6,1.9-1.6,2.7c-1.1,0.7-1.4,3.4-1.7,4.4
		l-0.7,1.1c-1.1,0.1-1.4-0.2-1.4-0.4c-0.3,0.3-0.1,0.7,1.5,0.7h3.1c0.4,0,0.9,0,0,0.4c-0.9,0-0.9,0.9,0.4,0.9s2.2,0,0.9,0.4
		c-0.4,0-1.3,0.4,0,0.9c3.1,0,3.6,0.9,2.7,1.3c-0.8,0.4-1.2,0.4-0.3,0.4l-0.4-0.1c1.2-0.4,1.9-0.9,2.5-0.1c0.7,0.9,1.3,1.6,1.4,1.1
		c0.1-0.5,0.6-0.7,0.7,0.5c0.1,1.2,0.2,1.4,0.7,1.2c0.5-0.2,0.8,0.1,0.5,0.7c-0.3,0.6,0.3,1.6,0.5,1c0.2-0.6,0.9-0.8,0.9,0.2
		c-0.1,1.2,0,2,0.6,1.5c0.5-0.7,0.5-1,1,0c0.8,1.1,1.5,1.9,2.5,1.8c0.8,0,2.1-0.1,3.1-0.3c0.2-0.1,0.5-0.2,0.7-0.3
		c0.4,0,0.9,0,1.3,1.3l2.7,4.9c0.4,0.9,1.3,0,1.3-0.9l2.7-7.6c0-1.3,1.8-2.2,1.3,1.3c1.3-0.9,6.7-1.3,11.2,0c4.3,1.7,8.4,4,12.1,6.7
		c0.6,0.5,1.5,0.6,2.2,0.4c1.3,0,1.8,0-0.4-2.2s-1.3-3.1,0-2.2s2.2,0.4,0.9-0.9l-4.5-4c-0.4,0-0.4-0.9-2.7-0.9h-6.7
		C521,225.2,520.1,225.2,522.8,226.1z M482,187.5h0.1c2.7,1.8-0.2,6.1-3,4.2C476,189.5,479.2,185.6,482,187.5z"/>
	<path fill="#FFFFFF" d="M485.9,228.6c0.5-0.2,1.1-0.2,1.6-0.2C487,228.4,486.4,228.4,485.9,228.6z"/>
	<path fill="#FFFFFF" d="M487.5,223.1c0.4-0.1,0.5-0.2,0.4-0.4c-0.1,0.1-0.2,0.2-0.5,0.3c-0.5,0-0.9,0.3-0.8,0.6
		C486.7,223.4,487.1,223.2,487.5,223.1z"/>
	<path fill="#FFFFFF" d="M476,211.9c-1.4-0.3-0.5-0.7,0.3-0.5c0.2,0,0.3,0,0.4,0c0,0-0.1,0-0.1-0.1c-0.4-0.4-2.2,0-0.9,0.9
		c0.5,0.3,0.9,0.5,1.2,0.6C477.9,212.8,477.3,212.2,476,211.9z"/>
	<path fill="#FFFFFF" d="M491,190.9c-1.2,0.1-1-1.2-0.4-1.7c0.6-0.4,0.7-0.3,1-0.8c0.2,0.3,0.4,0.5,0.6,0.8
		c-0.3-0.6-0.7-1.1-1.2-1.7l0.4,0c-1.3-1.2-2.8-2.1-4.5-2.7c-1.3,0-1.3,0.9-0.9,1.3v2.7c0.9,0.4,1.3,1.3,0,1.3
		c-0.3,0.3-0.4,1-0.3,1.6c0-0.6,0.2-1.1,0.7-1.4c0.6-0.3,0.7-0.7,0.4-1.1c1.9-0.2,2.9,0.3,1.5,1.2c-1.5,0.9-1.1,1.2,0.5,1.2
		c1.6,0,2.6-0.1,1.6,1.2c-0.5,0.6-1.2,1-1.9,1.3c0.1,0.2,0.3,0.4,0.7,0.4c0.9,0,0,0.9,0,1.3h0.4c0.2-0.7,0.8-1.4,1.5-1.2
		c0.8,0.2,1-0.2,1.2-1c0.2-0.5,0.8-1.6,1.2-1.8l0.3,1.2c-0.3-1.2-0.6-2.3-1.1-3.4C492.3,190.3,491.8,190.7,491,190.9z M489.4,187.9
		c-0.3-0.6-0.3-0.5-0.8,0s-1.7,0.2-1.2-0.4c0.3-0.7,0.6-0.7,0-0.7c-0.4,0-0.3-0.4,0.6-1.3c0.9,0.5,2,1.2,2.8,2
		C490.4,187.9,489.5,188.4,489.4,187.9z"/>
	<path fill="#FFFFFF" d="M502.1,222.9c-1.3,0.2-5.6-0.1-6.8-0.4c-1.7-0.5-2.8-0.8-3.1-1.4c-0.3-0.6,0.1-2-0.3-3
		c-0.1-0.3-0.4-0.5-0.7-0.5c-0.2,0-0.5,0.1-0.7,0.1c-0.3,0-0.5,0-0.8-0.1c-0.3,0-0.7,0-1.1,0c-1.6-0.2-1.4-1.3-1-2
		c0.3-0.7,0.2-0.9-0.7-0.9c-0.4,0-0.6-0.2-0.8-0.3c1,5.1,5.8,8.7,13.7,8.7h14.8c-2.7-1.8-4.5-2.7-5.8-2.7s-1.8,0.4-1.3,0
		c0.4-0.4,0-1.3-0.4-1.3c-0.4,0-1.3-0.9-2.2,0l-4.5,2.2c-0.3,0-0.7,0-1,0c0.5,0.4,1.3,0.6,2.2,0.7
		C502.9,221.9,503.4,222.7,502.1,222.9z"/>
	<path fill="#FFFFFF" d="M487.4,193.3c-0.4,0.2-0.7,0.2-0.9,0.1C486.7,193.6,487,193.6,487.4,193.3l0.9,0.1c0,0,0,0.2,0.1,0.5
		c0-0.1,0-0.2,0.1-0.3C488.4,193.2,488,193,487.4,193.3z"/>
	<path fill="#FFFFFF" d="M522.4,220.5c0.1,0,0.1-0.1,0-0.2C522.4,220.4,522.4,220.5,522.4,220.5z"/>
	<path fill="#FFFFFF" d="M493.7,195.5c-0.9,0.5-1.5,0.9-0.6,1.9h0c0.8,0.9,1.5,2,1.2,2.6c-0.3,0.7-0.7,0.8-1.1-0.3
		c-0.4-1-0.8-2.3-2.8-2.4c-0.2,0.4-0.4,0.8-0.8,1c1.3,0,1.8,0,1.8,0.9c0.4,0.9,1.8,1.3,1.8,2.7s0,1.3-1.8,0.9s-1.8,0-2.2,0.9
		s-0.9,1.3,0,1.3s1.8,0.4,0.4,0.9c-1.3,0.4-2.7,0-3.1,1.3c0,1.3,0,1.8,0.9,1.3l3.1-1.8l2.2,0.4c0.9,0.4,0,2.2-0.9,1.3
		c-0.9-0.9-1.8,0-2.2,0.4l-2.2,0.9c-0.9,0-1.8,0-1.3,2.2c0,0.2,0,0.3,0,0.5c0.3-0.7,2.2-0.9,2.4-1.3c0.7-0.7,2.3-0.9,3.5-1
		c1.3,0,1.3,0.1,1.7-0.8c0.2-0.3,0.6-0.3,1.2-0.3c1.6,0.2,1.1,2.3,2.6,2.8c0.8,0.2,1.4,0.7,1.8,1.3c0.3,0.3,0.4,0.6,0.4,0.8
		c0.2,0.4,0.3,0.8,0.5,1.2c0.2,0.6,0.1,1,0,1.4l0.2-0.1v0c0,0,0.9-0.9,0-1.3c-0.9-0.4,0.9-1.8,2.7-0.4c1.8,1.3,0,1.8,0,1.8l-1.8,0.9
		c-0.5,0.3-1.5,1.1-2.6,1.8c0,0.3,0.2,0.7,0.3,1.2c0,0,0,0.1,0,0.1c0.1-0.1,0.2-0.2,0.5-0.4l4-1.8c0.9,0,0.4-0.9,0.4-0.9
		s0-1.3,1.3-0.9c2.7,1.8,6.7,4,8.1,4c1.3,0,1.8-0.9,0.9-1.3c-0.6-0.3-1-0.9-1.2-1.3c0.1,0.3,0.3,0.7,0.6,1c-1,0.1-2.7,0-3.2-1.2
		c-0.6-1.3-2-3-3-4.2c-0.4-0.5-0.5-0.8-0.4-1l-0.1-0.1l0.6,0.6c0.1,0.1,0.2,0.1,0.2,0.1c-0.1-0.1-0.2-0.1-0.3-0.2
		c-0.9-0.9-1.3-1.3,0-1.8c1.3-0.4,0.9-0.9-0.4-2.2c-1.8-1.3-2.2-1.3-1.8,0c0.4,1.3,0.4,2.2-0.9,1.8c-1.3-0.4-2.7-1.3-1.3-1.8
		c0.9-0.9,2.2-1.3,0-2.7s-0.9,0-1.3,0.9c-0.4,0.9-1.8,0.9-2.2,0c-0.4-0.9-1.3-1.3-0.9-1.8c0.4-0.4,0.4-0.9,1.3,0
		c0.9,0.9,1.8,0,0.4-1.3c-1.3-1.3-1.8-0.9-1.3,0s-0.9,1.8-2.7,0c-0.9-0.4-0.9-1.3,0-1.8c0.9,0,0.9-0.4,0-1.3
		c-1.2-2.1-1.8-4.1-2.2-5.9C494,195.3,493.9,195.4,493.7,195.5z"/>
	<path fill="#FFFFFF" d="M513,213.5l-2.3-1.7c-0.6-0.6-0.9-0.7-1.1-0.5c0.2,0,0.5,0.2,0.9,0.5L513,213.5z"/>
	<path fill="#FFFFFF" d="M518.8,219.5c-0.8-0.3-1.6-0.7-2.3-1.1C517.2,218.8,518,219.2,518.8,219.5z"/>
	<path fill="#CF6200" d="M492.2,189.2c-0.2-0.3-0.4-0.6-0.6-0.8c-0.3,0.5-0.4,0.4-1,0.8c-0.6,0.5-0.8,1.8,0.4,1.7
		c0.8-0.2,1.3-0.6,1.6-1c0,0,0,0,0,0C492.5,189.7,492.3,189.4,492.2,189.2z"/>
	<path fill="#CF6200" d="M488,185.5c-0.9,0.9-1,1.3-0.6,1.3c0.6,0,0.3,0,0,0.7c-0.5,0.6,0.7,0.9,1.2,0.4s0.5-0.6,0.8,0
		c0.1,0.5,1,0,1.4-0.4C490,186.7,488.9,186,488,185.5z"/>
	<path fill="#CF6200" d="M488.8,191.8c-1.6,0-2-0.3-0.5-1.2c1.4-0.9,0.4-1.4-1.5-1.2c0.3,0.4,0.2,0.8-0.4,1.1
		c-0.4,0.2-0.7,0.8-0.7,1.4c0,0.7,0.2,1.3,0.8,1.5c0.2,0.1,0.6,0.1,0.9-0.1c0.6-0.3,1-0.1,1,0.3c0,0.1,0,0.2-0.1,0.3
		c0,0.2,0,0.3,0.1,0.5c0,0,0.1,0,0.1-0.1c0.7-0.3,1.4-0.8,1.9-1.3C491.4,191.7,490.4,191.8,488.8,191.8z"/>
	<path fill="#CF6200" d="M492.2,193.9c-0.2,0.8-0.4,1.2-1.2,1c-0.6-0.2-1.3,0.5-1.5,1.2c0,0.1,0,0.1,0,0.2h0.5
		c0.3,0.1,0.4,0.6,0.3,1c0.1,0,0.1,0,0.1,0c2,0.1,2.4,1.4,2.8,2.4c0.4,1.1,0.8,1,1.1,0.3c0.3-0.6-0.4-1.7-1.2-2.6h0
		c-0.9-1-0.3-1.4,0.6-1.9c0.2-0.1,0.3-0.2,0.5-0.3c0,0,0,0,0-0.1l-0.5-1.8l-0.3-1.2C493,192.3,492.4,193.4,492.2,193.9z"/>
	<path fill="#FFFF00" d="M487.7,215.6c-0.4,0.7-0.6,1.8,1,2c0.4,0,0.7,0,1.1,0c-1.4-0.3-1.2-1.3,0.3-1.3l6.3-1.8
		c0.9,0,1.8-0.4,1.3-1.3c-0.4-0.9,0-1.3,1.3,0h0c0.1,0.1,0.2,0.2,0.3,0.3c-0.4-0.6-1-1.1-1.8-1.3c-1.5-0.5-1-2.6-2.6-2.8
		c-0.6,0-1,0-1.2,0.3c-0.4,0.9-0.4,0.8-1.7,0.8c-1.2,0.1-2.8,0.3-3.5,1c-0.3,0.4-2.1,0.6-2.4,1.3c0,0.1-0.1,0.1-0.1,0.2
		c0,0.6,0,1.1,0.2,1.5c0.1,0.2,0.4,0.3,0.8,0.3C487.9,214.7,488,214.9,487.7,215.6z M488.3,212.7h4.5c1.3-0.4,1.8-1.8,1.3-2.2
		c-0.4-0.4,0-1.3,1.8,0h-0.4c1.8,1.3,0.9,2.2,0,2.2l-7.2,1.3C486,214.5,487.4,212.7,488.3,212.7z"/>
	<path fill="#FFFF00" d="M498.7,219.4c-0.9,0.5-1.8,0.9-2.8,0.9c-2.2,0-1.3-1.3,0-1.3l4.3-2.1c0.1-0.4,0.2-0.8,0-1.4
		c-0.1-0.4-0.3-0.8-0.5-1.2c0.1,0.5-0.4,0.6-0.7,0.3c-0.4-0.4-0.9,0.9-1.3,0.9c-0.4,0-4.2,1.9-6.5,2.2c0.3,0.1,0.6,0.2,0.7,0.5
		c0.4,1,0,2.4,0.3,3c0.3,0.6,1.4,0.9,3.1,1.4c1.2,0.3,5.5,0.6,6.8,0.4c1.3-0.2,0.8-1-0.5-1c-1-0.1-1.8-0.3-2.2-0.7
		c-0.1-0.1-0.2-0.3-0.3-0.5c0,0,0-0.1,0-0.1C498.9,220.1,498.7,219.7,498.7,219.4z"/>
	<path fill="#CF6200" d="M487.5,228.4c0.9,0,1.6,0.2,2,0.2c0.5,0,2.4,0.5,3.3,1c0.2,0.1,0.5,0.2,0.6,0.1c0.6-0.1,1-0.8,0.7-1.6
		c-0.5-1-0.5-0.7-1,0c-0.6,0.5-0.7-0.3-0.6-1.5c0-1-0.7-0.8-0.9-0.2c-0.2,0.6-0.8-0.4-0.5-1c0.3-0.6,0-0.9-0.5-0.7
		c-0.5,0.2-0.6,0-0.7-1.2c-0.1-1.2-0.6-1-0.7-0.5c-0.1,0.5-0.7-0.2-1.4-1.1c-0.6-0.8-1.3-0.3-2.5,0.1l0.4,0.1l0.4,0.1l0,0
		c0.9,0.1,1.6,0.3,1.8,0.5c0.1,0.1,0,0.3-0.4,0.4c-0.4,0.1-0.8,0.3-0.9,0.5c-0.3,0.2-0.2,0.5,0.6,0.5c0.9,0.1,1.6,0.3,1.9,0.6
		c0.1,0.1,0.1,0.2,0,0.2c-0.1,0.1-0.2,0.1-0.4,0.2c-0.7,0.2-1,0.5-0.8,0.8c0.1,0.1,0.4,0.2,0.9,0.2c1.3,0,1.9,0.6,1,1.2
		c-0.9,0.5-1.5,0.7-2.1,0c0,0-0.1-0.1-0.1-0.1c-0.1-0.1-0.2-0.3-0.2-0.4c-0.2-0.2-0.3-0.4-0.4-0.5c-0.2-0.2-0.4-0.1-0.5,0.3
		c0,0.1-0.1,0.2-0.1,0.2c-0.2,0.3-0.6-0.2-0.9-1c-0.3-0.7-0.9-1.1-1.1-1c0,0-0.1,0.1-0.1,0.2c0,0.1,0,0.1,0.1,0.2
		c0.1,0.3,0,0.5-0.2,0.6c-0.3,0.2-0.7,0.2-1.2,0.1c-0.1,0-0.3-0.1-0.4-0.1c0,0,0,0-0.1,0c0.2,0.2,0.3,0.3,0.5,0.5
		c0.8,0.8,1.7,1.6,2.8,2.2C486.4,228.4,487,228.4,487.5,228.4z"/>
	<path fill="#FFFF00" d="M494.1,228.1c0.3,0.8-0.1,1.5-0.7,1.6c-0.2,0-0.4,0-0.6-0.1c-0.9-0.5-2.8-1-3.3-1c-0.4,0-1.1-0.2-2-0.2
		c-0.5,0-1.1,0-1.6,0.2c0.3,0.2,0.7,0.4,1,0.6c3.3,1.9,7.6,2.5,13.4,0.3c-0.2,0-0.4,0.1-0.6,0.1c-1,0.2-2.3,0.3-3.1,0.3
		C495.6,230,494.9,229.2,494.1,228.1z"/>
	<path fill="#FFFF00" d="M478.8,217.3l0.7-1.1c0.3-1,0.6-3.7,1.7-4.4c1-0.8,1.6-2,1.6-2.7c0-0.7,1.7-4.2,2.7-5c1-0.8,1.6-2.7,1.2-4
		l0-0.1c-0.4-1.3-0.8-1.6-1.5-1.5c-0.7,0-1-0.1-1.8-0.4c-0.7-0.3-1.7,0-1.9,1.5c-0.2,1.5-1,2-2.2,3c-1.1,0.8-1.8,1.5-1.8,2.9
		c0,1.4-0.3,1.7-1.1,2.8l-1.2,1.4l-0.1,0.1l0.5,0.3l0.9,0.5c0.3,0.1,0.4,0.3,0.5,0.4c0.1,0.2,0,0.4-0.2,0.4c-0.1,0-0.3,0-0.4,0
		c-0.8-0.2-1.7,0.2-0.3,0.5c1.3,0.3,1.9,0.9,0.9,1c-0.1,0-0.1,0-0.2,0c-1-0.1-2.2,0.5-1.6,0.7c0.2,0.1,0.6,0.1,1.3,0
		c1.6-0.2,2.5,0.2,2.4,0.6c-0.1,0.2-0.6,0.4-1.8,0.4c-1.6,0-2.1,0.3-1.9,0.5c0.1,0.2,0.8,0.5,1.6,0.5c1.6,0,2,0.3,2,0.5
		c-0.1,0.2-0.4,0.4-0.8,0.4c-0.3,0-0.5,0.2-0.5,0.4C477.4,217.1,477.7,217.4,478.8,217.3z M478.5,212.1c-0.2-0.7-0.2-0.7-0.8-1.2
		c-0.5-0.5-0.4-1.2,0.4-2c0.7-0.9,0.5-1.6,0.5-2.7c0.2-1.1,1-2.1,2-2.7c0.9-0.5,1.7-1,1.7-2.3c0-1,0.7-1.5,1.4-1.3
		c0-0.5,0.3-1,0.7-0.9v0.1c0.8,0.3,0.9,1.1,0.4,1.3c0.6,0.3,1.2,0.7,1,1c-0.3,0.3-0.6,0.6-0.6,1.5c0,0.8-1,0.9-2,1.8
		c-1.1,0.8-0.3,1.4,0,2c0.3,0.6-1.1,2.9-2,3.3c-0.8,0.5-1.1,0.5-1.1,1.3S478.8,212.8,478.5,212.1z"/>
	<path fill="#CF6200" d="M480.1,211.3c0-0.8,0.3-0.8,1.1-1.3c0.9-0.4,2.3-2.7,2-3.3c-0.3-0.6-1.1-1.2,0-2c1-0.9,2-1,2-1.8
		c0-0.9,0.3-1.2,0.6-1.5c0.2-0.2-0.4-0.6-1-1c-0.1,0.1-0.3,0.1-0.5,0.1c-0.4-0.1-0.6-0.4-0.6-0.6c-0.8-0.2-1.4,0.3-1.4,1.3
		c0,1.3-0.8,1.8-1.7,2.3c-1,0.6-1.8,1.6-2,2.7c0,1.1,0.2,1.8-0.5,2.7c-0.8,0.8-0.9,1.5-0.4,2c0.6,0.5,0.6,0.5,0.8,1.2
		C478.8,212.8,480.1,212.1,480.1,211.3z M484.3,201C484.3,201,484.2,201,484.3,201L484.3,201C484.3,201,484.3,201,484.3,201
		c1.4,0,0.9,0.9-0.4,1C482.6,202.1,483.5,201.1,484.3,201z M482.7,202.9c2-1,1.8-0.1,0.6,0.7S481.9,203.3,482.7,202.9z M479.9,205.3
		c0.5-0.3,0.9-0.4,1.2-0.4c0.1-0.1,0.2-0.3,0.4-0.4c2-1,1.7,0,0.5,0.7c-0.3,0.2-0.5,0.3-0.7,0.3c-0.1,0.2-0.3,0.4-0.6,0.5
		C479.6,206.7,479.1,205.7,479.9,205.3z M479.4,206.7c0.7-0.3,1.1-0.4,1.4-0.4c2-1,2.1,0,0.9,0.7c-0.4,0.3-0.8,0.3-1,0.2
		c-0.1,0.1-0.2,0.1-0.3,0.2C479.2,208.1,478.7,207.1,479.4,206.7z M479,209.5c0.1,0,0.1,0,0.1-0.1c-0.6,0-0.7-0.6-0.1-0.9
		c0.4-0.2,0.8-0.3,1-0.4c0.1-0.1,0.2-0.2,0.4-0.3h-0.1c2-1,2.1-0.1,0.9,0.7c-0.3,0.2-0.5,0.2-0.7,0.2c-0.1,0.1-0.2,0.3-0.4,0.4
		c1-0.2,0.9,0.5,0,1.1C478.8,211,478.3,209.9,479,209.5z"/>
	<path d="M484.3,200.5c0.2,0,0.4,0,0.5-0.1c0.5-0.2,0.3-1-0.4-1.3V199c-0.4-0.1-0.7,0.4-0.7,0.9
		C483.7,200.1,483.9,200.4,484.3,200.5z"/>
	<path d="M483.3,203.6c1.2-0.8,1.4-1.7-0.6-0.7C481.9,203.3,482.1,204.4,483.3,203.6z"/>
	<path d="M481.3,205.5c0.2,0,0.4-0.1,0.7-0.3c1.2-0.7,1.5-1.7-0.5-0.7c-0.2,0.1-0.3,0.2-0.4,0.4
		C481.5,204.9,481.5,205.1,481.3,205.5z"/>
	<path d="M484.2,201C484.2,201,484.3,201,484.2,201C484.3,201,484.3,201,484.2,201L484.2,201z"/>
	<path d="M483.9,202c1.3-0.1,1.8-1,0.4-1C483.5,201.1,482.6,202.1,483.9,202z"/>
	<path d="M480.7,207.2c0.2,0.1,0.6,0.1,1-0.2c1.2-0.7,1.1-1.7-0.9-0.7C481.3,206.3,481.2,206.8,480.7,207.2z"/>
	<path d="M480.7,206c0.3-0.2,0.5-0.4,0.6-0.5c0.3-0.3,0.2-0.6-0.2-0.6c-0.3,0-0.6,0.1-1.2,0.4C479.1,205.7,479.6,206.7,480.7,206z"
		/>
	<path d="M480.4,207.4c0.1-0.1,0.2-0.1,0.3-0.2c0.5-0.4,0.6-0.8,0.1-0.9c-0.3,0-0.7,0.1-1.4,0.4
		C478.7,207.1,479.2,208.1,480.4,207.4z"/>
	<path d="M480.5,208.7c0.2,0,0.5-0.1,0.7-0.2c1.2-0.8,1.1-1.7-0.9-0.7h0.1c-0.2,0.1-0.3,0.2-0.4,0.3
		C480.7,208,480.8,208.3,480.5,208.7z"/>
	<path d="M480.5,208.7c0.3-0.4,0.2-0.7-0.4-0.6c-0.3,0-0.6,0.2-1,0.4c-0.6,0.3-0.5,0.9,0.1,0.9c0.4-0.2,0.6-0.3,0.9-0.3
		C480.2,209,480.4,208.9,480.5,208.7z"/>
	<path d="M480,210.2c0.9-0.6,1-1.3,0-1.1c-0.2,0.1-0.5,0.2-0.9,0.3c0,0-0.1,0-0.1,0.1C478.3,209.9,478.8,211,480,210.2z"/>
	<path fill="#CF6200" d="M481.8,222.3c-0.9-0.4-1.7-0.7-1.8-1.6c0-0.8-1-1.4-1.5-1.4c-0.8,0.1-1.4,1.3-0.4,1.5s1.3,0.3,1.3,1
		s0.3,2,1.4,2C481.8,223.9,482.8,222.7,481.8,222.3z"/>
	<path fill="#FFFF00" d="M507,212.6l0.1,0.1c-0.1,0.2,0,0.5,0.4,1c1,1.2,2.4,2.9,3,4.2c0.5,1.2,2.2,1.3,3.2,1.2
		c-0.3-0.3-0.5-0.7-0.6-1c-0.1-0.3-0.1-0.5,0-0.6c0.2-0.3,0.5-0.7,2.2,0.3c0.3,0.2,0.7,0.4,1.2,0.6c0.8,0.4,1.6,0.8,2.3,1.1
		c0.9,0.4,1.8,0.8,2.2,1c0.6,0.3,1.3,0.3,1.4,0c0,0,0-0.1,0-0.2c-0.1-0.2-0.4-0.6-1.1-1.2l-8.2-5.7l-2.4-1.7
		c-0.4-0.3-0.7-0.5-0.9-0.5c-0.7-0.2-0.2,1-0.1,1.4c0.2,0.5-1,1-1.8,0.6c-0.1,0-0.2-0.1-0.2-0.1L507,212.6z"/>
	<path d="M488.3,214l7.2-1.3c0.9,0,1.8-0.9,0-2.2h0.4c-1.8-1.3-2.2-0.4-1.8,0c0.4,0.4,0,1.8-1.3,2.2h-4.5
		C487.4,212.7,486,214.5,488.3,214z"/>
	<path d="M495.9,220.3c1,0,1.9-0.4,2.8-0.9c1.1-0.7,2.1-1.5,2.6-1.8l1.8-0.9c0,0,1.8-0.4,0-1.8c-1.8-1.3-3.6,0-2.7,0.4
		c0.9,0.4,0,1.3,0,1.3v0l-0.2,0.1l-4.3,2.1C494.6,219,493.7,220.3,495.9,220.3z"/>
	<path d="M499.1,213.1c-1.3-1.3-1.8-0.9-1.3,0c0.4,0.9-0.4,1.3-1.3,1.3l-6.3,1.8c-1.6,0-1.8,1-0.3,1.3c0.2,0,0.5,0.1,0.8,0.1
		c0.2,0,0.4,0,0.7-0.1c2.4-0.3,6.1-2.2,6.5-2.2c0.4,0,0.9-1.3,1.3-0.9c0.3,0.3,0.8,0.2,0.7-0.3c0-0.2-0.2-0.5-0.4-0.8
		C499.2,213.3,499.2,213.2,499.1,213.1L499.1,213.1z"/>
	<path d="M479.1,191.7c2.8,1.9,5.7-2.4,3-4.2H482C479.2,185.6,476,189.5,479.1,191.7z M479.3,189.2c-0.1,1,0.8,2.3,2,2
		c-1,0.8-3-0.2-2.8-2H479.3z"/>
	<path fill="#FFFFFF" d="M489.5,235.4c-0.2,1.3,0.3,1.1,0.6,0.6l1.2-2.2c0.6-1.3,1.3-0.5,1.3,0.7c0.1,1.2,0.2,1.1,0.5,0.3l1.4-2.5
		c-1.1,0-4.1-0.3-5-0.6C489.6,232.8,489.7,234.1,489.5,235.4z"/>
	<path fill="#FFFFFF" d="M481.3,191.2c-1.2,0.3-2.1-1-2-2h-0.8C478.3,191,480.3,192,481.3,191.2z"/>
</g>
</svg>
