<?xml version="1.0" encoding="utf-8"?>
<!-- Generator: Adobe Illustrator 17.1.0, SVG Export Plug-In . SVG Version: 6.00 Build 0)  -->
<!DOCTYPE svg PUBLIC "-//W3C//DTD SVG 1.1//EN" "http://www.w3.org/Graphics/SVG/1.1/DTD/svg11.dtd">
<svg version="1.1" id="flag-icon-css-si" xmlns="http://www.w3.org/2000/svg" xmlns:xlink="http://www.w3.org/1999/xlink" x="0px"
	 y="0px" viewBox="0 0 640 480" enable-background="new 0 0 640 480" xml:space="preserve">
<g>
	<path fill="#FFFFFF" d="M90.2,133.5l-4.7,1.1l-3.6-2c-3.1-1.6-4.3-1.9-8.1-1.9c-4.2,0-4.4,0.1-4.4,1.4c-0.1,0.8-0.4,2.1-0.9,3
		s-0.9,3.2-0.9,5.3c0,2.6-0.5,4.7-1.5,7c-0.9,1.9-1.5,3.8-1.5,4.5c0,1.9-2.9,2.4-7.6,1.2c-1.8-0.5-4.3-0.6-7.6-0.2l-4.8,0.6
		l-1.6,2.8c-0.7,1.2-1.4,2.7-1.7,3.9H93C92,152.4,91.1,143.6,90.2,133.5z"/>
	<path fill="#FFFFFF" d="M570.3,155.5c0.2-2-0.1-3.6-1.1-5.4c-0.9-1.8-1.3-3.7-1.3-6.6c0-3.6,0.2-4.2,1.7-5.6c0.9-0.8,2.9-2.7,4.5-4
		c1.8-1.7,3.3-2.5,4.4-2.5c2.3,0,3.7-0.6,3.7-1.5c0-1.2,1.7-1.6,3.5-0.9c1,0.4,2.6,0.5,3.7,0.2c1.3-0.2,2.2-0.1,2.7,0.6
		c0.4,0.5,1.2,0.9,1.9,0.9c0.6,0,1.5,0.6,2.2,1.2c1.4,1.5,5.1,2.9,6,2c1.2-1.2,8.9,4.6,11.2,8.6c1.4,2.5,2.2,2.9,3.4,1.7
		c0.4-0.4,1.5-0.2,3.8,0.9c3.2,1.6,6.1,2,8.5,1.1c0.7-0.3,2-0.2,3,0.1c1.3,0.4,2.2,0.4,3.8-0.4c3.7-1.8,2.2-3.1-3.3-2.9
		c-2.5,0.1-3.8-0.2-6.7-1.9c-7.1-4-8.3-4.9-8.3-6.4c0-1.4-0.9-7.3-1.6-10.8c-0.5-2.5-2.7-4.5-5.3-5.1c-1.7-0.4-2.1-0.8-2.7-2.7
		c-1-3.5-5.5-8.9-9-10.7c-1.7-0.9-3.2-2-3.3-2.6c-0.2-0.6-1.6-1.9-3.2-2.8c-3.4-2.1-3.8-3-2.7-6c0.8-2,1.1-2.3,2.9-2.2
		c1.7,0.2,2,0,2.3-1.9c0.2-1.1,0.3-3.4,0.2-5.1l-0.2-3.1l-2.5-0.2c-1.4-0.1-3.5-0.4-4.8-0.9c-2-0.6-2.4-0.9-2.2-2.3
		c0.2-2.2-0.6-3.2-2.6-3.2c-1.6,0-1.9-0.3-2.9-3.5c-0.7-2.2-1.9-4.3-3.2-5.5c-2-2-2-2-1.1-3.9c1.2-2.2,0.7-3.7-1.2-4.5
		c-1.1-0.4-1.5-1-1.5-2.3c0-1.4,0.4-2,2.7-3c2.2-1.1,2.8-1.7,3.6-4.3c0.8-2.7,0.8-3.3-0.1-6.3c-0.7-2.4-1.3-3.3-2.3-3.6
		c-0.8-0.2-1.4-0.7-1.4-1.2c0-0.4-0.7-1-1.7-1.2c-1-0.2-2.5-1.2-3.3-2.3c-1.3-1.5-2.4-2-5-2.4c-4.6-0.7-7.1-0.6-11.1,0.5
		c-1.9,0.5-4.1,1.4-5,2c-0.9,0.6-3.2,1.5-5.2,1.9c-3.6,0.9-3.8,0.8-6.6-0.8c-2.9-1.6-3-1.6-5.6-0.6c-1.4,0.6-3.9,2.2-5.5,3.6
		c-2.9,2.7-6.3,4.4-7.4,3.7c-0.4-0.2-2,0.2-3.5,0.9c-1.6,0.7-3.4,1.3-4,1.3c-1.6,0-2.1,2.2-0.9,4.2c0.7,1.1,0.9,2.2,0.6,3.8
		c-0.2,1.2-0.6,6-0.7,10.6l-0.2,8.4l4.9,5l5,5l0.4,4.8c0.4,4.6-0.4,8.6-1.7,8.6c-1.4,0-6.3-4.1-7.5-6.4c-1.2-2.1-2.1-2.9-5.2-4.2
		c-2-0.9-4.9-2.7-6.3-4.1c-2.9-2.8-5.5-3.8-13.1-4.9c-6.2-0.9-9.4,0.1-14.4,4.5l-3.8,3.2l-7.2-0.3c-5.8-0.3-7.5-0.6-8.9-1.6
		c-2.4-1.6-4.3-1.1-6,1.7c-1.9,3-5.6,4.8-8.7,4.3c-2.9-0.5-6.3,0.5-9.1,2.7c-1.7,1.2-2,1.9-2,3.9c0,1.3-0.4,3.7-0.7,5.2
		c-0.7,2.5-1.2,3.1-4.2,4.9c-1.9,1.2-4.5,2.2-5.9,2.4c-1.4,0.2-3,0.5-3.5,0.7c-1.3,0.6-3.6-2.9-3.6-5.5c0-1.8-1.7-2.9-4.6-2.9
		c-0.8,0-1.9-0.5-2.4-1.1c-0.9-1.1-2.2-1.1-13.6-1.1c-11.8,0.1-12.8,0.2-15.3,1.5c-2.6,1.4-2.9,1.4-8.1,0.7c-3.3-0.5-6.1-1.2-7.1-2
		c-1.5-1-2.8-1.2-10.2-1.2c-7.4,0-8.7,0.2-10.5,1.2c-1.7,1.1-2.1,1.1-3.2,0.3c-2-1.5-5.8-1.1-8.7,0.8c-2.8,1.9-6.1,6-6.7,8.3
		c-0.2,0.8-0.9,2.1-1.6,2.9c-1,1.2-1.4,1.3-2.1,0.7c-0.5-0.4-0.9-1.4-0.9-2.1c0-0.7-0.5-2-1.1-3c-1-1.5-1.2-1.6-2.4-0.9
		c-0.6,0.4-2.2,1.2-3.5,1.5c-1.3,0.4-2.8,1.4-3.3,2.2c-0.9,1.4-1.1,1.4-3.5,0.6c-2.1-0.7-2.7-0.7-4.2,0.1c-1.9,0.9-5.6,6-7.9,10.5
		c-1.4,2.8-3.3,12.5-3,15.7c0.1,1.5-0.2,2.4-1.4,3.2c-1.8,1.4-7.3,2.4-9.1,1.7c-0.6-0.2-2.9-0.5-5-0.5c-4.3-0.1-4.8,0.2-7.1,5.3
		c-1.4,3-3.2,4.5-5.3,4.5c-0.6,0-0.9,0.6-0.9,1.4c0,2.1-1.9,3.5-4.7,3.5c-1.3,0.1-3.1,0.4-4,0.9c-0.9,0.5-2.4,0.9-3.3,0.9
		c-2.4,0-5.8,2.7-6.3,4.8c0,0.1,0,0.2,0,0.3h333.4C570.2,158.3,570.1,157.4,570.3,155.5z"/>
	<path fill="#FFFFFF" d="M222.8,160C222.8,160,222.8,160,222.8,160l3.5,0.1C225.1,158.8,223.9,158.8,222.8,160z"/>
	<path fill="#DE2918" d="M39.7,322c0.7,1.2,1.2,2.9,1.2,4.6c0,3.8,2.3,7.1,5.5,8c1.2,0.4,4,0.7,6.2,0.7h3.9l5.1,4.8
		c7.1,6.7,8.9,8,12.3,8.7c1.6,0.4,3.6,1,4.4,1.4c2.4,1.1,8.5,9.9,11.9,17.3l3.1,6.8l4.8,3.1c5.9,3.8,6.2,5.1,2.2,9.1
		c-1.5,1.4-3.2,3.5-3.9,4.7c-1.5,2.6-7.7,6.1-10.8,6.1c-2.9,0-7.1-1.4-10.7-3.4c-2.8-1.6-3.3-1.7-7.4-1.3c-4.2,0.4-5.8,0.9-4.5,1.4
		c0.4,0.1,1.5,0.9,2.7,1.7c1.2,0.7,2.7,1.7,3.3,2.1c1.7,1,2.3,2.1,1.9,3.7c-0.3,1.1,0,1.5,1.2,2c2,0.7,2,2.2,0,2.7
		c-1.1,0.3-2,0.1-2.7-0.6c-1.4-1.2-1.9-1.2-3.2,0.1c-0.8,0.7-1.4,0.8-2.4,0.3c-0.7-0.4-1.7-0.7-2.4-0.7c-2,0-7.7,2-8.9,3.2
		c-1.1,1.1-2.9,1.1-7.1-0.2c-1.7-0.6-2.1-0.4-3.6,1.1c-1.4,1.4-2,1.5-3.8,1.2c-1.9-0.4-2.1-0.3-2.1,1.1c0,1.8,1.8,3.5,3.6,3.5
		c1.7,0,1.7,0.4,0.1,3.4c-1.4,2.8-1.6,5.2-0.4,6.6c2.4,2.9,12.5,8.2,16.9,8.8c2.5,0.3,3.7,0.1,6.4-1.2c1.9-0.9,3.7-1.5,4-1.5
		c0.4,0,1.5-0.8,2.6-1.9l1.9-1.8l3.7,1.3c3.5,1.3,3.7,1.3,6.6,0.3c4.5-1.6,5-1.5,5,1.6c0,3.7,1.5,5,5,4.5c2.1-0.4,2.7-0.2,3.4,0.7
		c0.6,0.8,1.1,0.9,1.7,0.5c0.5-0.4,1.5-1.1,2.4-1.7c1.1-0.8,3.2-1.2,7.7-1.4c7.9-0.4,9.9-1,13.1-4.1l2.6-2.6l-1.2-1.7
		c-0.8-1.1-1-1.9-0.6-2.5c0.3-0.4,0.6-1.9,0.6-3c0-2,0.3-2.4,3.1-3.9l3.2-1.8l2.7,2.2c1.5,1.2,3.3,3,4,4c1.2,1.6,1.7,1.8,6.1,2.2
		c6.8,0.6,6.9,0.6,9.6-0.8l2.5-1.2l3,3.4c2,2.2,3.6,3.3,4.5,3.3c1.4,0,5.9-2.2,5.9-2.9c0-0.2-0.6-0.8-1.3-1.4
		c-2.9-2.3,0.7-7.5,5.1-7.5c1.7,0,1.7,0,1.9,5.1c0.2,4.6,0.3,5.1,1.4,5.3c0.9,0.1,1.7-0.6,2.7-2c1.5-2.4,2.7-2.6,7.3-1.5
		c5.8,1.4,8.9,1,14.5-1.7c2.9-1.4,6.5-2.9,8.1-3.3c3.6-0.9,3.9-1.3,6.3-5.6c1.4-2.5,2.4-3.7,3.2-3.7c0.7,0,2.2-0.6,3.3-1.4l2-1.4
		v-7.8c0-6.9,0.1-7.9,1.2-8.9c0.7-0.6,1.7-1,2.4-0.9c0.6,0.1,2-0.2,3-0.6c1.7-0.7,2.1-1.4,2.9-4.6c0.6-2.1,1.2-5.3,1.4-6.9
		c0.5-3.8,1.3-5,2.5-4c0.6,0.6,1.2,0.6,2.4,0c0.9-0.4,1.8-0.7,2.1-0.7c0.4,0,0.6,2.7,0.6,6.4v6.4l2.9,2.8c1.5,1.5,3.5,3.8,4.3,5.1
		c1.9,2.9,6.1,6,8.3,6c1,0,2.4,0.7,3.6,2l2,2l-0.9,2.8c-0.6,1.5-1.2,4.6-1.4,6.9l-0.4,4.2h1.7c1,0,2.4-0.6,3.3-1.2
		c1.5-1.2,1.5-1.2,3.3,0.1c1,0.7,2.2,2.1,2.7,3.1c0.7,1.4,1.4,1.8,2.7,1.8c1,0,1.9,0.4,2.1,0.9c0.2,0.5,1.7,1.2,3.3,1.7
		c2.7,0.7,3.1,1.1,4.8,4.5c1.1,2,2.2,4.4,2.5,5.3c0.9,2.2,3.6,2.3,10.8,0.3c8.4-2.4,9-3,9.4-10.7l0.3-6l1.9,0.1
		c1.2,0.1,2.4,0.8,3.4,2c3,3.7,6.9,6.3,9.4,6.3c1.2,0,3,0.3,4,0.7c0.9,0.4,3.1,0.8,4.8,0.9c5,0.4,7.2,1.4,8.2,3.7
		c1.2,3,4.3,6.3,6.6,7c1.3,0.4,2.9,1.9,4.3,3.8c2.7,3.7,6,5,9.4,3.8c1.1-0.4,3-0.7,4.3-0.7c2.1,0,2.5-0.3,5.1-4
		c3.7-5.1,6.1-6.1,11-4.5c1.8,0.6,4.4,1.1,5.8,1.1c2.3,0,3-0.4,6.4-3.8c2.2-2,4.5-4.3,5.3-5.1c0.7-0.7,1.4-1.7,1.4-2.3
		c0-1.1-2.6-3.3-4.8-4c-0.7-0.2-2.4-1.2-3.8-2.2c-3.3-2.5-7.5-10.5-7.9-15.4c-0.1-1.9-0.8-4.6-1.4-6c-2.1-4.6-2.2-5.5-0.1-6.3
		c1.2-0.4,2.2-1.5,3-3c1.1-2.4,1.2-2.4,4.4-2.2c3.1,0.1,3.2,0.1,3.2-1.4c0-1.1,0.2-1.5,0.9-1.2c1.1,0.4,3.5-2.6,3.5-4.5
		c0-1.7-2.5-6.3-4.3-7.9c-0.9-0.7-1.7-1-3.1-0.7c-2.5,0.6-2.5-0.9,0-3.4c1.2-1.2,1.7-2.1,1.3-2.6c-0.3-0.4-0.9-2.3-1.4-4.3
		c-0.4-2-1.1-4-1.5-4.6c-1.1-1.5-3.5,0-5.3,3.5c-1.4,2.7-1.4,3.1-0.7,6.6c1.2,5.9,0.2,6.7-3.7,3.1c-1.3-1.2-2.6-3.2-3-4.6
		c-0.7-2.1-1-2.5-2.5-2.5c-1.7,0-1.7-0.1-1.7-2.7c0-3.2,0.5-3.7,2.7-2.9c1.4,0.5,1.8,0.2,4.2-2.4c1.5-1.7,3.6-3.5,4.7-4
		c1.7-0.9,2-1.4,2-3.3c0.1-3.5,2-5.3,7.4-6.9c3.1-0.9,5-1.9,5.8-3c1.2-1.5,1.4-1.5,7.7-1.3l6.5,0.2l-0.1-3.9c-0.1-3.2,0.1-4.1,1-4.8
		c1.8-1.4,3.7-1.1,5.1,0.9c1.1,1.4,1.7,1.7,3.1,1.5c2-0.3,4.1-2.3,4.5-4.2c0.2-1.1,0.6-1.2,3.8-1.1c3.5,0.2,3.5,0.2,4.5-1.9
		c0-0.1,0.1-0.2,0.1-0.3H38.7C38.9,320.6,39.2,321.3,39.7,322z"/>
	<path fill="#DE2918" d="M435.3,320c0.6,0.4,1.3,0.8,1.9,1.2l5.5,3.7l1.2-1.5c0.8-1.1,1.9-1.6,3-1.6c1,0,2.6-0.3,3.7-0.7
		c0.7-0.3,1.2-0.5,1.6-1.1H435.3z"/>
	<path fill="#08399C" d="M453.7,316.6c0.7-2.4,1-4.2,0.6-4.9c-1.1-2.2-0.6-5.8,1.1-7.4c0.9-0.8,2.2-2.6,2.9-3.9
		c1.3-2.6,1.3-2.4,0.1-15.6c-0.2-2.5-0.1-4.3,0.5-5.3c0.4-0.8,1-2.6,1.2-4c0.2-1.4,1.1-4.2,1.8-6.3l1.4-3.8l-1.4-1.7
		c-2.1-2.7-5.7-5.1-8.4-5.6c-1.7-0.3-3.2-1.2-4.7-2.9c-1.3-1.4-3.1-2.6-4.2-2.8c-1.2-0.2-2-0.9-2.3-1.7c-0.2-0.7-1.1-2-1.8-3
		c-2-2.4-2.5-8.5-1-12.9c0.7-1.9,1.5-3.5,1.9-3.6c0.4-0.1,2-2.2,3.5-4.5c2.5-3.7,2.9-4.5,2.2-5.8c-1.1-2.4,0.1-2.9,7.3-2.9
		c5,0,6.9-0.2,7.9-1c1.7-1.2,3-0.4,3.3,2.1c0.2,1.5,0.5,1.7,2.7,1.8c2.1,0.1,2.7-0.1,4-1.8c1.4-1.9,2.4-6.5,2.6-13.3
		c0-1.1,1.5-1.9,8.8-4.9c7.4-3,9.5-3.7,14-4c4.1-0.3,5.9-0.7,8.1-2c1.5-0.9,3.7-1.8,4.9-2c1.3-0.2,3.6-1.6,5.6-3.4
		c1.9-1.6,4.2-3.2,5-3.5c2.4-0.7,5.4-3.3,6.1-5.2c0.6-1.2,0.6-2.5,0.1-4.5c-0.4-1.5-0.7-2.9-0.7-3.2c0-0.2,1.5-0.5,3.3-0.7
		c5.2-0.4,7.9-1.4,10.3-3.8c1.2-1.2,2.7-2.2,3.1-2.2s2,1.2,3.5,2.8c2.9,2.9,3.3,3,12.4,2.9c1.1,0,3-0.1,4.3-0.1
		c1.9-0.1,2.7,0.2,3.3,1.2c0.6,0.9,1.5,1.2,3.7,1.2c4.2,0,4.6-0.4,4.3-5c-0.2-3.3-0.6-4.5-2.7-7.7c-0.6-0.8-1-1.5-1.3-2H237.7
		c-0.1,1,0,2.3,0.3,3.1c0.6,1.6,0.2,4.3-1.2,8c-1.2,3-5.5,2.3-5.5-0.9c0-0.6-0.9-3-2-5.4c-1-2.3-2-3.9-2.9-4.8h-3.6
		c-0.3,0.3-0.5,0.5-0.7,0.8c-2,14.1-4.6,24-8.5,30.5c-9.6,15.8-18.8,27.3-56,41.3c-37.1-14-46.3-25.5-55.9-41.3
		c-4-6.6-6.6-16.8-8.6-31.2H41.2c-0.1,0.3-0.2,0.6-0.2,0.8c-0.4,1.5-1.2,2.2-5.3,4.2c-2.7,1.3-6,3.3-7.1,4.5c-2.5,2.5-6,4-8.8,4
		c-4.5,0-4.8,0.3-4.8,5c0,3.1-0.2,4.5-1,5c-2,1.7-3.2,2.8-4,4c-0.5,0.7-2.1,1.9-3.7,2.8c-3.2,1.7-3.7,2.9-1.9,5.3
		c0.7,0.9,1.7,3.5,2.3,5.8c0.6,2.2,1.5,4.5,2,5.1c0.9,1,0.9,2.6,0,8.2c-0.1,1,0.2,1.3,2,1.4c1.9,0.2,2.6-0.2,4.4-2
		c1.7-1.7,2.3-2,3.2-1.5c0.6,0.3,2.1,0.5,3.3,0.3c1.9-0.2,2.5,0,3.8,1.5c1.4,1.7,1.7,1.7,3.5,1.1c1.7-0.7,2.2-0.6,4.2,0.6
		c2.7,1.7,4.8,4.2,4.8,5.7c0,1.2,1.4,1.4,12.4,1.5c3.5,0.1,6.5,1.1,7.1,2.5c0.5,1.3-2.4,9.3-4.2,11.3c-0.9,1.1-1.7,2.4-1.9,3
		c-0.2,0.6-1.8,1.9-3.5,2.9c-1.8,1-5.1,3.5-7.5,5.7c-3.1,2.9-4.8,4-6,4c-1.3,0-2.1,0.6-3.2,2.3c-1.2,1.9-1.9,2.4-4,2.7
		c-2.4,0.3-2.5,0.4-2.7,2.9c-0.1,1.7,0.1,2.8,0.8,3.3c1.9,1.5,1.2,4.6-1.9,8.1c-1.5,1.7-2.8,3.5-2.8,3.9c0,1.2,2.5,4.3,6.4,7.9
		l3.6,3.3l2.8-1.3c1.5-0.7,3-1.4,3.4-1.4c0.4,0,1.4-0.6,2.2-1.2c1.3-1.1,2.5-1.2,7-1.2h5.4l0.4,2.3c0.2,1.3,0.4,4.4,0.4,6.9
		c0,4.3-0.1,4.6-2.2,6.8c-1.2,1.2-2.6,3-3,3.9c-0.5,0.9-1.9,2.7-3.3,4c-1.7,1.7-2.6,3.2-2.9,4.9c-0.2,1.4-0.8,3.3-1.3,4.5
		c-0.8,1.8-1,3.2-0.6,4.6h390.8c0.5-1.1,1.1-2,1.5-2.2c0.3-0.1,2.1,0.8,4.3,2.2h16.9C452.7,319.3,453.1,318.3,453.7,316.6z"/>
	<path fill="#DE2918" d="M101.7,191.3c9.6,15.8,18.8,27.3,55.9,41.3c37.2-14,46.4-25.5,56-41.3c3.9-6.5,6.5-16.4,8.5-30.5
		c-1.6,1.4-2.7,1.5-5.4,0.5c-0.1,0-0.3-0.1-0.4-0.1c-1.4,9.5-2.9,16.2-4.7,20.9c-9,21.8-23.3,33.7-54,45c-30.8-11.3-45-23.3-54.1-45
		c-3.2-8.6-5.5-23.4-7.7-49.8c-0.9,0.2-1.9,0.5-3.2,0.8l-2.3,0.5c0.8,10.1,1.7,18.9,2.8,26.5C95,174.5,97.7,184.6,101.7,191.3z"/>
	<path fill="#08399C" d="M138.8,147.9l3.1,2.8l3.5-2.7l2.1-3.8c-0.9-1-1.8-1.3-3.3-1.9c-1.7-0.6-4.7-1.5-6.7-2
		c-2.7-0.7-3.4-0.9-5-0.2l3.8,3.4L138.8,147.9z"/>
	<path fill="#08399C" d="M103.4,182.1c9.1,21.8,23.3,33.7,54.1,45c30.8-11.3,45-23.3,54-45c1.8-4.7,3.3-11.4,4.7-20.9
		c-5.1-1.7-7-3.5-7-6.2c0-1.4-0.2-1.5-2.2-1.4c-2.8,0.1-6.9,0.6-10.2,1.2l1.3,2.1l5.1,4.4l2.5,4.3l3.7,2.8c-0.7,5.9-2.5,11.3-4.8,16
		l0.1,0.2l-1.2,2c-1.4,2.6-2.8,4.9-4.3,7.1l0.1,0h0.1l-1.8,2.2c-0.8,1.1-1.7,2.1-2.5,3.1l-0.3,0.3l0,0c-1,1.2-2,2.3-2.9,3.2
		c-10.1,8.7-21.8,15.2-34.5,19.2c-15.6-5.3-28.1-13.3-34.3-19.2c-2.5-2.5-4.8-5.2-6.8-8L116,194v-0.1c-0.8-1.2-1.6-2.4-2.3-3.6
		l-0.1,0l-3.4-5.8l0.1-0.2l0.3,0c-2.3-5.1-4-10.4-4.8-16l3.7-2.8l2.5-4.3l5.1-4.4l2.7-4.4l5.1-4.6l2.4-4.4l2.4-2
		c-3,1.2-4.5,0.6-8.1-2.4c-4-3.5-9.5-5.8-16.1-6.8c-4.7-0.7-5.8-0.8-9.7,0C98,158.7,100.3,173.5,103.4,182.1z"/>
	<path fill="#FFFFFF" d="M124.7,147.8l-5.1,4.6l-2.7,4.4l-5.1,4.4l-2.5,4.3l-3.7,2.8c0.9,5.6,2.5,10.9,4.8,16l10.2,1.7l6.5-0.5
		l7.8-3.8h8.8l7.7,3.8l6,0.6l6.1-0.6l7.6-3.8h8.8l7.9,3.8l6.5,0.6l10.1-1.9l0.1,0.2c2.3-4.8,4.1-10.2,4.8-16l-3.7-2.8l-2.5-4.3
		l-5.1-4.4l-1.3-2.1c-2.1,0.4-3.9,0.8-4.8,1.1c-3.3,1.3-5.2,1.2-8.4-0.7l-2.8-1.6l-5.5,1.1c-4.6,0.9-5.8,1-7.2,0.3
		c-1.1-0.4-4.1-0.7-7.9-0.7l-6.3,0.1l-2.1-3.5c-2.2-3.7-3.4-5.5-4.4-6.6l-2.1,3.8l-3.5,2.7l-3.1-2.8l-2.5-4.4l-3.8-3.4
		c-0.5,0.2-1,0.4-1.7,0.8c-0.4,0.2-0.8,0.4-1.2,0.5l-2.4,2L124.7,147.8z"/>
	<path fill="#FFFFFF" d="M180,195h-8.8l-7.7,3.8l-6,0.5l-6-0.5l-7.7-3.8H135l-7.8,3.8l-6.9,0.5h-0.1l-3.9-4.8c2,2.8,4.3,5.5,6.8,8
		c6.2,5.9,18.8,13.9,34.3,19.2c12.7-4,24.4-10.5,34.5-19.2c0.9-0.9,1.8-2,2.9-3.2l-7-0.5L180,195z"/>
	<path fill="#FFFFFF" d="M201.3,190.3L201.3,190.3h-6.9l-6.6-0.5l-7.8-3.8h-8.8l-7.6,3.8l-6.1,0.6l-6-0.6l-7.6-3.8H135l-7.9,3.8
		l-6.5,0.6l-7-0.1c0.7,1.2,1.5,2.4,2.3,3.6v-0.1l4.7,1.2l6.5-0.6l7.9-3.8h8.9l7.6,3.8l6.1,0.6l6-0.6l7.7-3.8h8.8l7.8,3.8l6.5,0.5
		l4.8-1.3c1.5-2.1,3-4.5,4.3-7.1L201.3,190.3L201.3,190.3z"/>
	<path fill="#FFFFFF" d="M197.6,195.8l-2.5,3.1C195.9,198,196.7,196.9,197.6,195.8z"/>
	
		<line fill="none" stroke="#08399C" stroke-width="0" stroke-linecap="round" stroke-linejoin="round" x1="201.2" y1="190.3" x2="201.3" y2="190.3"/>
	<polygon fill="#08399C" points="187.9,194.4 180.1,190.7 171.3,190.7 163.6,194.4 157.6,195 151.5,194.4 143.9,190.7 135,190.7 
		127.2,194.4 120.7,195 116,193.8 116,193.9 116,194 116.4,194.4 120.2,199.2 120.3,199.2 127.3,198.8 135,195 143.9,195 
		151.5,198.8 157.5,199.2 163.5,198.8 171.2,195 180,195 187.8,198.8 194.8,199.2 194.8,199.2 195.1,198.9 197.6,195.8 199.3,193.6 
		199.3,193.6 199.2,193.6 194.4,194.9 	"/>
	<polygon fill="#08399C" points="194.4,186.1 187.9,185.5 180,181.8 171.2,181.8 163.6,185.5 157.5,186.1 151.5,185.5 143.9,181.8 
		135,181.8 127.3,185.6 120.8,186.1 110.5,184.4 110.3,184.3 110.2,184.5 113.6,190.3 113.7,190.3 120.7,190.4 127.2,189.8 
		135,186.1 143.9,186.1 151.5,189.8 157.5,190.4 163.6,189.8 171.2,186.1 180,186.1 187.8,189.8 194.4,190.3 201.2,190.3 
		203.5,186.6 204.7,184.6 204.6,184.4 204.5,184.2 	"/>
</g>
</svg>
