<?xml version="1.0" encoding="utf-8"?>
<!-- Generator: Adobe Illustrator 17.1.0, SVG Export Plug-In . SVG Version: 6.00 Build 0)  -->
<!DOCTYPE svg PUBLIC "-//W3C//DTD SVG 1.1//EN" "http://www.w3.org/Graphics/SVG/1.1/DTD/svg11.dtd">
<svg version="1.1" id="flag-icon-css-sj" xmlns="http://www.w3.org/2000/svg" xmlns:xlink="http://www.w3.org/1999/xlink" x="0px"
	 y="0px" viewBox="0 0 640 480" enable-background="new 0 0 640 480" xml:space="preserve">
<g>
	<polygon fill="none" points="0,227.1 -0.8,227.1 0,227.9 	"/>
	<path fill="#EF2B2D" d="M615.8,177.6c-6.4-0.5-16.1-0.9-21.6-0.9c-6.7,0-15.9-0.6-27.7-1.9c-23.7-2.5-26.7-3.1-33-6.2l-5.2-2.6
		l-1.9,1.8c-1.1,1.1-3.4,2.6-5.2,3.5c-2.7,1.4-4.1,1.6-8.4,1.6c-4.7,0-5.4,0.2-8,1.9c-2.7,1.7-3.1,1.9-9.3,1.9c-3.6,0-9,0.3-12,0.7
		c-3.1,0.4-5.7,0.6-5.8,0.4c-0.1-0.1,2.1-1.6,5-3.2l5.3-2.9v-4.6c0-2.6-0.1-4.6-0.1-4.5c-0.1,0-2.9,0.6-6.1,1.2
		c-3.2,0.7-8.4,1.9-11.5,2.7c-4.4,1.3-7,1.6-12.3,1.6h-6.7l1.1,2c0.6,1.1,1.7,2.7,2.5,3.6l1.5,1.6l-1.6,2.3
		c-0.8,1.2-1.9,2.3-2.4,2.3s-4-0.7-7.9-1.6c-5.3-1.2-8.1-2.2-11.5-4.3l-4.6-2.7l-6.1,0.8c-3.4,0.4-12.1,0.8-19.4,0.9h-13.2l-4.9-2.7
		c-2.7-1.6-7.3-3.5-10.6-4.4c-5.4-1.6-6.5-1.6-17.1-1.5l-11.3,0.2l4.2,2.5c2.3,1.3,4.2,2.6,4.2,2.8c0,0.2-0.7,1.1-1.5,1.8L351,173
		l-8.9-1.6c-10-1.8-11.3-1.9-13.8-0.8l-1.9,0.8l3,2.3c1.7,1.2,2.7,2.3,2.3,2.3c-0.4,0-3.3-0.6-6.5-1.3c-10.7-2.4-19-3.6-25.2-3.7
		v8.9h335.7v-1.5h-4.2C629.2,178.5,622.1,178.1,615.8,177.6z"/>
	<path fill="#FFFFFF" d="M300,171.1c-0.1,0-0.3,0-0.4,0l-6.2,0.1l-3.7,2.7c-2.4,1.8-4.4,2.8-5.5,2.8c-1.7,0-1.7,0.1-1.7,2.8v0.5H300
		V171.1z"/>
	<path fill="#FFFFFF" d="M183.6,300c2.7,1.1,5.3,2.2,7.2,3.1c8.8,4.1,12.1,5.2,18.4,6.2c0.3,0,0.5,0.1,0.8,0.1V300H183.6z"/>
	<path fill="#FFFFFF" d="M414.9,270c-0.7,0.5-1.4,1-2.1,1.4l-7,4.9h-6.9c-3.7,0-6.9,0.2-6.9,0.5s1.4,1.6,3.2,2.9l3.2,2.4l22.5-1.7
		c20.7-1.5,22.9-1.8,28.2-3.5l5.7-1.9l5.2,2.2c2.8,1.2,5.4,2.4,5.8,2.6c0.3,0.2-1.5,1.5-4.1,2.8c-4.9,2.4-5.4,3.1-4,5.2
		c0.8,1.1,1.3,1.1,12.6-1.2c9.4-1.9,13.7-2.4,21.1-2.7l9.3-0.3l10.3-5.1l10.3-5.2l14.3-1.8c5.9-0.8,9.3-1.2,11.2-1.5H414.9z"/>
	<path fill="#FFFFFF" d="M324.1,210c-0.3-0.5-0.6-1.2-1-2c-1.6-3.4-1.9-3.6-8.5-6.9l-6.9-3.4l-5.2,0.7c-5.5,0.8-13.3,3.5-17.1,6
		c-1.3,0.8-2.5,1.5-2.6,1.5c-0.1,0-0.6-1-1-2.2c-1-3,0-5.3,3.2-7.4c1.4-0.9,2.2-1.9,2-2.2c-0.3-0.2-2.1-0.9-4-1.6
		c-1.9-0.6-6.7-2.4-10.7-4.1c-0.9-0.4-1.6-0.7-2.3-1V210H324.1z"/>
	<path fill="#FFFFFF" d="M196.3,210c-2.4-1.3-5.1-2.8-8.2-4.4c-3-1.7-6.7-4.1-8.2-5.5c-3.9-3.4-15.8-7.3-23.4-7.7l-5.5-0.2l-4.3,3.5
		l-4.4,3.5h-6.2c-3.5,0-6.3,0.2-6.3,0.4c0,0.2,1.1,1.9,2.5,3.7c2.2,3,2.4,3.5,1.7,4.9c-0.4,0.9-0.9,1.6-1.1,1.6
		c-0.2,0-4.2-1.5-8.8-3.4c-4.6-1.9-9.6-3.7-11-4.2c-2.6-0.7-2.7-0.8-2.7-3.5c0-2,0.2-2.7,0.9-2.7c1.1,0,11.8-1.1,15.7-1.6l2.6-0.3
		l-0.8-2.3l-0.8-2.3l-5.5,0.3c-6.2,0.4-24.2,0.4-35.5,0c-9.2-0.2-34.6,0.8-35.8,1.6c-0.4,0.3-5.5,0.7-11.2,0.9
		c-9.2,0.3-10.8,0.6-14.1,1.9c-3.8,1.6-3.9,1.6-6.6,0.6c-1.5-0.6-3.9-1.8-5.2-2.7c-1.9-1.3-3.2-1.7-5.7-1.7c-1.8,0-3.3,0.2-3.3,0.6
		c0,0.7,3,12,3.2,12.2c0.1,0.1,1.2,0.7,2.4,1.6c1.2,0.8,3.9,3.1,5.9,5c0.1,0.1,0.2,0.2,0.4,0.3H196.3z"/>
	<path fill="#FFFFFF" d="M210,270h-54.9c1.4,0.1,2.6,0.1,3.5,0.1c3,0,5.4,0.1,5.4,0.3c0,0.4-2.5,5.4-2.8,5.8
		c-0.1,0.1-2.2-0.1-4.8-0.6c-4.2-0.7-5.3-0.6-13.9,0.9c-5.1,0.9-9.4,1.8-9.5,1.9s1.2,1.7,2.7,3.7c2.4,3.1,3.9,4.1,9.2,6.9
		c6.2,3.2,6.4,3.2,13.1,3.6c6.2,0.4,7.7,0.7,15.9,3.7c2.7,1,6.3,2.4,9.6,3.8H210V270z"/>
	<path fill="#FFFFFF" d="M270,270v15.7c7.1-5.5,11.2-7.3,17.4-8.1c4.7-0.6,6.4-1.1,8.4-2.5c2.3-1.6,4-3.2,5.4-5.1H270z"/>
	<path fill="#FFFFFF" d="M208.5,181.6l-3,3.1c-1.6,1.6-4.4,3.7-6,4.4c-1.7,0.8-3.1,1.7-3.1,1.9c0,1.6,5.6,8.4,13.6,16.7v-26.1H208.5
		z"/>
	<path fill="#FFFFFF" d="M282.4,180v2.3h3.6h3.7l0.7,2.4c0.7,2.6,0.9,2.7,6.4,3.8c2,0.4,6.1,1.8,9.2,3.1c9.8,4.2,10.5,4.4,34,4.4
		c20.3,0,22-0.1,44.4-2.5c30-3.2,31.7-3.2,39-0.2l5.6,2.4l-20.9,0.4c-11.5,0.2-25.9,0.8-32.1,1.4c-6.2,0.6-14.4,1.2-18.2,1.4l-7,0.4
		v2.1v2.1h6.1c4.7,0,9.1,0.6,18.5,2.5l12.4,2.5h17.8c11.8,0,20.4-0.3,25.6-0.9c4.4-0.5,13.1-0.9,20-0.9h12.2l2.7,3.4h78.5
		c4.3-1,10.8-2,15.6-2.5c14.6-1.5,19.8-2.1,25.1-3.2c4-0.8,4.8-1.2,4.4-2c-1.1-2.8-1.1-2.8,5.2-4.6c5.5-1.5,7.2-1.7,15.8-1.7h9.6
		l8.1-3.2c4.5-1.8,8.3-3.4,8.6-3.7c0.2-0.2,0.1-1.6-0.5-3.1c-0.5-1.5-0.9-3.8-0.9-5.1V180H300H282.4z"/>
	<path fill="#002868" d="M210,270v30v9.5c2.8,0.5,5.2,1.5,8.4,3.3l4.8,2.7h6.5c8.6,0,15.1-1.4,21.6-4.7l5.3-2.6l-2.6-1.7
		c-1.4-0.9-2.6-1.8-2.6-1.9s1.5-1.2,3.4-2.6c2.6-1.8,3.8-3.3,5.1-6c1.4-2.9,2.8-4.4,7.4-8.2c1-0.8,1.9-1.6,2.8-2.3V270H210z"/>
	<path fill="#002868" d="M270,187.5c-5.1-2.1-5.9-2.1-11.7-2c-3.7,0-8.8,0.4-11.4,0.8l-4.7,0.9l-7.4-2.7l-7.4-2.7h-9.5H210v26.1
		c0.7,0.7,1.4,1.5,2.2,2.2H270V187.5z"/>
	<path fill="#002868" d="M5.7,233.6l6.4,6.5l4.8,0.7c5.2,0.8,14.5,3.4,29.3,8.2c8.8,2.9,9.8,3.1,12,2.4c1.3-0.4,2.4-0.9,2.4-1.2
		c0-0.6-3.9-4.3-7.3-6.9c-2.1-1.6-4.1-2.3-10-3.6c-4.1-0.9-9.5-2.6-12-3.7c-2.6-1.2-5.5-2.3-6.4-2.6c-0.9-0.2-3.6-1.7-5.9-3.4
		l-4.2-3.1H7H0v0.8L5.7,233.6z"/>
	<path fill="#002868" d="M466.9,210.9l3.4,4.3H493c20.9,0.1,23.6-0.1,32.7-1.4c5.5-0.9,13.3-2.4,17.4-3.4c0.5-0.1,1-0.2,1.5-0.4
		h-78.5L466.9,210.9z"/>
	<path fill="#002868" d="M547.6,269c-6.4-1.9-19.2-3.2-31.3-3.2c-14-0.1-17.1-0.6-25.7-4.2c-3.2-1.4-7-2.9-8.4-3.4l-2.5-0.7l4.9-1.6
		c2.6-0.9,4.8-1.7,4.8-1.9c0-0.2-2.1-1.1-4.5-1.9c-4.2-1.4-5.8-1.5-19.2-1.8l-14.6-0.3l-1.4-3.7c-0.7-2.1-1.9-4.7-2.5-5.9L446,238
		l-11.5-0.3c-9.5-0.2-12-0.6-14.5-1.6c-1.7-0.7-3-1.4-3-1.6c0-0.2,0.9-0.6,2.1-0.9c1.8-0.6,2-0.8,2.2-3.4l0.2-2.8l-12.3-2.3
		c-6.8-1.3-13.1-2.5-14.1-2.7c-1.1-0.2-2.1-1-2.6-2.1c-0.9-1.7-1.1-1.7-7.6-2.2c-3.7-0.3-11.9-0.7-18.3-0.9
		c-9.8-0.4-12.3-0.7-16.8-2.1c-3.1-0.9-8.3-1.9-12.5-2.3c-10.5-0.9-12.1-0.9-13.2-2.8H270h-57.8c0.2,0.2,0.5,0.5,0.7,0.7l11.2,11.3
		l-5.2-1.4c-4.3-1.2-8.5-3.1-22.5-10.7H17c2.1,1.9,5.1,4.6,7,6.1c3.4,2.7,4,2.9,7,2.9c2.8,0,4.4-0.5,9-2.8c5.6-2.8,5.6-2.8,12.3-2.8
		H59l-3.5,3.5l-3.5,3.5l-6.5,0.8c-3.6,0.5-8.2,0.9-10.3,0.9c-3.9,0-3.9,0-3.9,1.8c0,2,0.3,2.1,6.9,2.9c6.3,0.7,6.8,0.9,7,2.7
		c0.2,1.4,0.7,1.9,3.9,3.1c2.1,0.7,7.5,2.2,12.1,3.4l8.3,2.1l5.4,5c2.9,2.7,6.5,5.9,7.9,7l2.6,2.1h20.7c20.4,0,20.9-0.1,26.1-1.6
		c2.9-0.9,10.1-2.3,15.9-3.2c14-2.1,13.4-1.9,13.4-4c0-1.7-0.2-1.8-3.6-2.5c-5.4-1.1-5.2-0.9-5.2-4.6v-3.4l4.9-1.6
		c2.6-0.9,5-1.6,5.2-1.6c0.2,0,2.9,3.4,5,6.4c0.2,0.3,2.3,0.1,4.7-0.4l4.4-0.9l5.6,2.4c7.9,3.4,11.5,4.4,16.9,4.4
		c5.4,0,19.1,1.4,19.7,1.9c0.2,0.2-1.8,0.6-4.5,0.8c-5.2,0.5-13.8,2.4-28.5,6.5c-15.6,4.4-17.3,4.5-43.4,4.9l-23.6,0.4l3.5,6
		l3.4,6.1h5.7c3.2,0,9.2,0.4,13.5,0.9c3,0.3,6.7,0.7,9.7,0.8H210h60h31.2c1.1-1.4,1.9-3,2.7-4.9l1.6-4.1l7.9-1.7
		c4.4-0.9,8.3-2.1,8.7-2.4c1.2-1.2,2.6-7.1,2.6-11.5v-3.9h6.4c8.2,0,42-4.4,51.3-6.7l7-1.7l5,2.4l5,2.5l-2.7,0.5
		c-1.5,0.2-8.9,0.7-16.4,0.9l-13.7,0.4l9.5,2.6c11.5,3.1,15.5,5.5,19.1,11.8c1.2,2.1,2.6,4.1,3,4.4c0.4,0.3,5.9,1.2,12.3,2
		c6.4,0.7,12.3,1.6,13.3,1.8l1.9,0.4l-3.1,1.7c-1.4,0.8-4.7,3-8,5.2h132C549.2,269.6,548.9,269.4,547.6,269z"/>
	<path fill="#002868" d="M611,229.9l-3-0.4l4.1,2.6c4.1,2.5,4.1,2.5,10.3,2.5l6.2-0.1l-7.3-2.1C617.2,231.2,612.6,230.1,611,229.9z"
		/>
</g>
</svg>
