<?xml version="1.0" encoding="utf-8"?>
<!-- Generator: Adobe Illustrator 17.1.0, SVG Export Plug-In . SVG Version: 6.00 Build 0)  -->
<!DOCTYPE svg PUBLIC "-//W3C//DTD SVG 1.1//EN" "http://www.w3.org/Graphics/SVG/1.1/DTD/svg11.dtd">
<svg version="1.1" id="flag-icon-css-sk" xmlns="http://www.w3.org/2000/svg" xmlns:xlink="http://www.w3.org/1999/xlink" x="0px"
	 y="0px" viewBox="0 0 640 480" enable-background="new 0 0 640 480" xml:space="preserve">
<g>
	<path fill="none" d="M640,182.4v1.1C640.2,183.2,640.2,182.8,640,182.4z"/>
	<path fill="none" d="M640,167.8v11.4c0.2-0.8,0.4-2,0.4-3c0-1.4,0.3-3.3,0.6-4.2C641.9,169.9,641.3,168.3,640,167.8z"/>
	<path fill="#EE1C25" d="M162.9,320H20.7c0.2,0.1,0.4,0.2,0.6,0.3c2,0.7,2.8,1.5,4.4,4.4c1.8,3.3,1.9,3.6,0.9,4.3
		c-1.2,0.9-1.3,1.4-1.2,6.5l0.1,3.9h1.9c1.1,0,2.9,0.6,4.1,1.2c1.9,1.1,3.1,1.2,7.5,0.9c4.4-0.3,5.3-0.3,5.3,0.6
		c0,1.8,2.8,3.6,6.2,4.1c3.1,0.4,3.4,0.6,5.6,3.7c1.3,1.9,2.8,3.5,3.3,3.7c1.4,0.6,5.7,6.4,6.4,8.8c0.6,2.5,4.9,6.2,7.8,6.8
		c1.6,0.3,2.1,0.9,2.8,2.7c1.1,3.4,2.9,5.1,5.3,5.1c1.9,0,4.6,1.9,4.6,3.3c0,0.3,2.1,2.3,4.7,4.5c3.2,2.7,5.5,4.1,7.1,4.4
		c1.3,0.3,2.7,0.8,3.2,1.1c0.8,0.7,6.1,1,16,1.1c1.8,0,4.2-0.4,5.4-1c2.3-1.1,2.4-1,3.6,0.4l1.2,1.5l1.5-1.4
		c1.9-1.7,3.9-1.8,9.6-0.1c2.4,0.7,7.1,1.5,10.6,1.9c3.5,0.4,7.9,0.9,9.9,1.3c3.1,0.5,4.6,0.3,11.3-1.3c4.3-1.1,7.9-2.1,8.2-2.4
		c0.3-0.3,1.6,0,2.8,0.6c2.6,1.3,4.6,1.5,5.6,0.5c0.8-0.8,3.3-0.8,10.4-0.2c3.1,0.3,5.8,0.1,7.2-0.3c2.9-0.9,6-3.8,7.2-6.6
		c0.8-1.9,1.2-2.2,4-2.6c1.9-0.3,3.6-0.1,4.4,0.3c2.2,1.1,4.5,0.9,4.5-0.6c0-0.6-0.6-1.5-1.2-1.9c-0.7-0.3-1.3-1.3-1.4-2
		c-0.1-0.9-1.1-1.8-2.8-2.6c-2.8-1.4-3.6-2.6-4.3-6.9c-0.3-1.9-0.1-3,1.1-5.1c0.1-0.3,0.3-0.5,0.4-0.8
		C198.1,351.9,178.8,338.2,162.9,320z"/>
	<path fill="#EE1C25" d="M332.9,320.6c1.2,1.4,1.2,1.5,0.1,3.3c-0.8,1.4-0.9,2.1-0.4,2.6c0.4,0.4,0.9,0.4,1.3-0.1
		c0.4-0.4,1.6-0.6,2.5-0.4c1.3,0.3,1.9,0.1,2.2-0.7c0.4-0.9,0.6-0.9,2.4,0.3c1.1,0.7,2.4,1.3,3,1.3c1.1,0,1.9,2.5,1,3.6
		c-0.4,0.4-0.5,1.1-0.3,1.4c0.8,1.3,2.4,0.6,5.3-2.4c3.7-3.8,6.4-5.1,10.2-4.6c2.7,0.3,2.9,0.2,3.5-1.2c0.2-0.7,1.4-2.2,2.8-3.6
		h-34.4C332.5,320.2,332.7,320.4,332.9,320.6z"/>
	<path fill="#EE1C25" d="M284.7,338c1.5,0.1,3,0.3,3.6,0.5c1.3,0.3,2.1,0.1,3.3-1l1.5-1.4l1.2,1.4l1.1,1.4l1.7-2
		c1.3-1.4,1.7-2.7,1.7-4.6c0-1.6,0.5-3.2,1.3-4.2c0.7-0.9,1.3-2.4,1.3-3.6c0-1.1,0.3-2.2,0.6-2.4c0.3-0.2,0.5-0.8,0.6-1.5
		C296.9,327,290.9,332.8,284.7,338z"/>
	<path fill="#0B4EA2" d="M128.4,227.6c0-20,0.2-37.3,0.6-52.1l-2.2,0.1l-1.3,1.9c-0.6,1.1-1.4,3.4-1.6,5.1c-0.3,1.7-1,4.3-1.7,5.6
		l-1.3,2.6l-5.4,0.1c-6,0.1-4.9-0.5-10.9,6.7c-2.7,3.3-5.4,4.7-8.8,4.7c-2.7,0-6.5,1.8-6.9,3.2c-0.4,1.3-4.9,2.1-8.4,1.5
		c-1.6-0.3-2.6-0.8-3-1.8c-0.9-2-4.7-2.5-6.3-0.8c-2,2.3-4.3,3-7,2.4c-2.3-0.5-4.3-2.1-4.4-3.3c0-0.3-0.7-0.8-1.5-1.3
		c-6.3-3.4-8.1-4.3-10.8-4.6c-2.9-0.4-3.3-0.3-5.7,1.6c-1.4,1.2-3.6,2.7-4.7,3.4c-1.4,0.9-2.7,2.6-4.1,5.4c-1.3,2.6-2.5,4.3-3.3,4.6
		c-0.7,0.2-1.9,1.6-2.6,3c-0.7,1.4-1.9,3.4-2.7,4.5c-0.8,1-1.6,2.6-1.9,3.4c-0.3,0.9-1.1,2.4-1.9,3.4c-0.8,1-1.7,3.1-2.1,4.7
		c-1.3,4.6-2,6.1-3.6,7.2c-1.3,0.8-1.5,1.5-1.5,4.1c0,1.7,0.3,4.4,0.7,5.9c0.7,2.8,0.7,2.9-1.2,4.8c-1,1.1-2.1,2.6-2.3,3.4
		c-0.3,0.8-1,1.6-1.7,1.8c-0.9,0.3-1.1,0.8-0.9,1.6c0.3,0.9,0,1.2-1.1,1.4c-0.9,0.1-2.1,1.3-3.2,3.1c-1.6,2.6-1.8,3-0.9,4.6
		c0.8,1.4,0.8,2.1,0,4.4c-0.5,1.5-1.1,2.8-1.4,2.8c-0.3,0-0.6,1.6-0.6,3.4c0,2.9,0.2,3.4,1.2,3.4c1.9,0,5.8,4.3,5.3,5.8
		c-0.5,1.6,0.9,6.8,1.9,6.8c1.7,0,3,2.4,2.6,4.9c-0.3,1.7-0.1,3.1,0.6,4.4c0.6,1.1,1.3,3.7,1.7,5.8c0.8,4.2,3.1,7.3,6.3,8.6h142.2
		C143,297.2,128.4,267.1,128.4,227.6z"/>
	<path fill="#0B4EA2" d="M636.7,168.3c-1.8,1-2,1-4.6,0.1c-1.7-0.7-3.5-0.9-4.7-0.7c-1.8,0.3-2.1,0.1-4.1-3.1
		c-2.6-3.8-4.3-4.6-8.5-3.9c-1.3,0.2-4.3,0.1-6.6-0.3c-0.9-0.2-1.7-0.3-2.2-0.5H336.6c0.6,17.7,1,40.1,1,67.6
		c0,38.8-14,68.3-33.2,91c0.2,0,0.4-0.1,0.6-0.1c1.8-0.3,3.4-1.3,5.6-3.4c2.8-2.8,3.4-3.1,5.3-2.8c3.2,0.6,3.4,0.7,3.8,2.6
		c0.9,3.6,4,5.2,5.7,2.9c0.7-0.9,0.9-0.9,3.5,0.2c1.2,0.5,2.5,1.4,3.4,2.1h34.4c0.4-0.4,0.8-0.8,1.2-1.2c2.7-2.5,3.5-3.8,3.5-5.1
		c0-1.8,0.1-1.8,3.4-1.8c3.6,0,7.2-1.8,7.2-3.6c0-1.2,0.9-1,4.3,0.8l3,1.5l1.3-1.4c0.8-0.8,2.1-2.6,2.9-4.1c0.9-1.5,2.1-2.8,2.6-3
		c0.4-0.2,1.1-1.3,1.3-2.3c0.3-1.1,1.3-2.9,2.4-4.1c1.9-1.9,2.4-3.3,4.1-10.8c0.9-3.6,1.4-4.4,2.9-4.8c1.6-0.4,3.1-2.4,2.4-3.4
		c-0.2-0.3,0-0.8,0.4-1.1c3.2-2,5.4-7.5,3.5-8.7c-1.1-0.7,1.4-2.1,3.1-1.8c1.1,0.3,1.4,0.1,1.4-0.6c0-1.6,1.2-1.9,2.9-0.8
		c1.4,0.9,1.7,0.9,3.3-0.1c2.6-1.8,6.3-3.3,7.8-3.3c0.8,0,1.9-0.4,2.6-0.9c0.7-0.4,3.9-1,7.5-1.3c3.4-0.3,6.8-0.6,7.5-0.8
		c0.9-0.3,1.4,0.1,2,1.6c0.5,1.3,1.1,1.9,2.2,1.9c6.5,0.2,6.9,0.3,7.6,1.4c1.8,3,2.8,3.6,6.5,3.4c4.1-0.1,9.5,0.6,10.6,1.5
		c0.4,0.3,0.8,1.1,0.8,1.8c0,0.8,0.7,1.4,1.6,1.8c2.1,0.8,2.1,0.8,2.8-0.9c0.4-1,1.6-1.9,3.6-2.6c1.6-0.6,3.4-1.4,4-1.9
		c0.5-0.4,1.4-0.8,2-0.8c0.6,0,1.2-0.3,1.4-0.7c0.3-0.4,0.8-0.3,1.4,0.3c1.6,1.4,5.8,2.4,7,1.7c0.6-0.3,1.3-1.7,1.5-3.1
		c0.4-2.8,1-3.1,8.2-3.4c3.2-0.1,3.8-0.3,3.9-1.4c0.4-2,1.2-2.4,2.4-1.3c2,1.8,5.9,4.7,6.4,4.7c0.3,0,0.7,1.2,1,2.6
		c0.7,3.3,3.7,5.1,8.7,5.1c2.5,0.1,2.5,0.1,2.9,2.9c0.8,4.9,1.3,6.5,2.5,7.8c1.6,1.4,3,4.8,3,6.9c0,1.1,0.4,1.6,1.4,1.8
		c0.9,0.1,1.4,0.7,1.6,1.5c0.1,0.8,0.8,1.9,1.4,2.5c0.6,0.6,1.2,1.4,1.2,1.9c0,0.4,0.7,0.8,1.8,0.8c0.9,0.1,2.4,0.4,3.2,0.9
		c1,0.6,2.1,0.7,3.3,0.4c1-0.3,2.4-0.4,3.1-0.2c1.5,0.4,2.4-0.6,2.4-2.8c0-1.6,1.4-1.8,2.5-0.4c1,1.2,2.1,1.2,3.2-0.1
		c0.6-0.7,1.4-0.9,2.9-0.7c1.1,0.2,2.1,0.1,2.1-0.2c0-1.3,2.1-2.5,4.1-2.5c1.2,0,3-0.4,4.1-0.9c1.8-0.9,2-0.9,3.6,0.3
		c1.6,1.2,1.8,1.2,2.8,0.2c0.9-0.9,1.1-0.9,1.6-0.2c0.7,1.1,6.9,0.3,6.9-0.9c0-0.5,0.5-1.1,1.1-1.4c1-0.6,1-0.7,0-1.7
		c-1.4-1.4-1.4-8.4-0.1-14.4c0.6-2.4,1.2-7.1,1.4-10.4c0.4-6.1,1.6-9.3,3.4-9.3c0.5,0,1-0.4,1.3-0.9c0.2-0.6,1.3-1.6,2.6-2.3
		c1.3-0.8,2.2-1.8,2.2-2.5c0-0.8,1.8-2.4,4.9-4.6c4.8-3.3,4.9-3.6,5.9-7.2c1.3-4.4,1.3-6.1,0.4-6.7c-1.1-0.6-0.2-3.8,1.7-5.6
		c1.4-1.4,1.6-2,1.3-4.6c-0.1-1.6-0.4-3.3-0.4-3.6c-0.1-0.4-0.1-1.8-0.1-3.3c0.1-2.4,0.3-2.9,2.6-4.3l2.5-1.7v-4.2
		c0-3.4,0.3-4.4,1.3-5.3c0.7-0.6,2.2-3.2,3.4-5.7c2.2-4.5,2.3-4.6,4.3-4.3c1.8,0.3,3.4-0.3,3.9-1.1v-1.1c0-0.1-0.1-0.2-0.2-0.2
		c-0.6-0.8-0.6-1.3-0.1-2.3c0.1-0.2,0.2-0.5,0.3-0.8v-11.4C639.2,167.4,638,167.6,636.7,168.3z"/>
	<path fill="#FFFFFF" d="M319.1,107.6l-2.3,0.2c-2.8,0.3-5.5-1.3-5.5-3.3c0-0.7-0.4-1.9-0.9-2.5c-0.5-0.7-0.9-2-0.9-3
		c0-1.1-0.4-1.9-1.3-2.4c-1.2-0.6-1.3-1.1-0.9-4.3s0.3-3.7-1-4.9c-0.8-0.7-2.1-1.6-2.8-2c-0.9-0.4-1.4-1.3-1.4-2.2
		c0-2.5-3.1-3.1-4.6-0.9c-0.6,0.8-3.1,3.6-5.7,6.4l-4.7,4.9l-4.1-0.4c-3.6-0.4-4.3-0.3-6,0.9C275.7,95,275,96,275,97
		c0,0.8-0.6,2.9-1.2,4.6c-0.9,2.2-1,3.3-0.6,4.1c0.7,1.2-0.2,2.3-1.8,2.3c-0.3,0-0.7,0.5-1.1,1.3h48.8L319.1,107.6z"/>
	<path fill="#FFFFFF" d="M337.2,138.9c1.7-1.1,1.6-3.1-0.3-4.1c-0.9-0.4-1.1-0.9-0.6-1.6c0.8-1.5,0.1-11.4-1.1-14.4
		c-0.3-0.6-0.5-1.2-0.8-1.6c0.4,5.2,0.9,12.9,1.4,23.4C336.3,139.7,336.8,139.1,337.2,138.9z"/>
	<path fill="#FFFFFF" d="M245.7,107.7c-0.7-1.7-1.3-4.3-1.3-5.9c0-4.8-1-5.4-9.5-5.9c-5.8-0.4-6.3-0.4-10.3,1.4
		c-4.3,1.8-4.3,1.8-6.1,0.6c-2.2-1.3-4.6-1.4-9.1-0.4c-2.8,0.6-3.3,0.6-4-0.4c-0.6-0.8-1.3-1-3.3-0.7c-2.9,0.5-4.3,2-4.8,5.3
		c-0.3,2-0.8,2.6-2.6,3.5c-1.5,0.7-2.8,2-3.8,4c0,0.1-0.1,0.1-0.1,0.2h55.5C246.2,108.8,246,108.3,245.7,107.7z"/>
	<path fill="#FFFFFF" d="M606,160c-1.4-0.4-1.7-0.7-1.3-1.2c0.4-0.4,0.6-1.4,0.5-2.3c-0.2-1.3-0.6-1.5-4.1-1.8
		c-2.7-0.3-4.3-0.8-5.3-1.7c-0.8-0.7-3.6-1.9-6.3-2.8c-3-0.9-5.2-2-5.6-2.7c-0.4-0.7-0.8-3-0.8-5.3c-0.1-3.5-0.3-4.1-1.8-5.2
		c-0.9-0.6-1.6-1.4-1.6-1.8s-1.1-2.3-2.3-4.3c-2.4-3.9-4.8-5.4-7-4.7c-0.9,0.3-1.6-0.1-2.7-1.7c-1-1.4-1.8-2-2.8-1.9
		c-0.9,0.1-1.6-0.4-2.4-1.7c-1.3-2.1-2.3-2.1-5.3,0c-1.3,0.9-1.6,1.5-1.3,2.8c0.3,1.4,0.1,1.6-0.8,1.3c-0.6-0.3-1.3-0.4-1.4-0.4
		c-0.1,0-0.3-0.6-0.3-1.4c0-0.8-0.8-2.3-1.8-3.2c-1-1-2-2.4-2.2-3.3c-0.3-1.2-0.8-1.5-2.5-1.5c-3.8,0-6.1-0.8-7.9-2.6
		c-1.7-1.8-2-1.8-3.6-1.1c-1,0.4-2.3,0.6-2.9,0.6c-0.7-0.1-2.8,0.3-4.8,0.9c-1.9,0.7-3.8,1-3.9,0.8s-1.3,0.1-2.4,0.6
		c-3,1.3-5.5,1.1-7.4-0.4c-0.9-0.7-2.2-1.3-3-1.3c-0.8,0-2-0.5-2.7-1.1c-1.6-1.4-8.1-2.9-9.3-2.2c-0.4,0.3-1.8,0.8-3,1.1
		c-1.9,0.6-2.2,0.9-2.4,3c-0.1,1.6-0.6,2.6-1.7,3.3c-1.9,1.3-3.4,0.8-6.6-2.3c-2.3-2.3-2.7-2.4-3.6-1.6c-0.6,0.5-2.4,1.1-4,1.3
		c-2.8,0.4-3,0.6-3,2.2c0,1.7,2.6,5.1,3.8,5.1c0.3,0,0.6,0.4,0.6,0.9c0,0.7-0.7,0.9-2.4,0.9c-1.8,0-2.9,0.5-4.4,1.8
		c-1.1,1.1-2,2.2-2,2.6c0,0.4-0.7,1.4-1.6,2.2c-0.9,0.8-1.6,1.9-1.6,2.6c0,0.9-0.8,1.4-2.9,1.9c-2.8,0.8-2.9,0.8-4.6-0.9
		c-1.2-1.1-2.1-1.5-3-1.2c-1.4,0.4-1.6-0.1-0.8-1.5c0.4-0.6,0.1-1.5-0.8-2.7c-1.3-1.8-1.3-1.8-2.6-0.6c-1.2,1.1-1.6,1.1-3.6,0.5
		c-1.6-0.5-2.4-1.1-2.4-1.9c0-0.6-0.4-1.3-0.9-1.4c-0.5-0.3-0.9-0.9-0.9-1.6c0-0.9-0.3-1.1-1.1-0.9c-1.1,0.4-2.1-0.6-2.1-2.3
		c0-0.6-0.8-2.1-1.6-3.3c-1.9-2.5-4.6-2.8-7.1-0.9c-2,1.6-2.6,1.6-4.6-0.1l-1.6-1.3v1.4c0,0.9-1,2.4-2.5,3.9
		c-2.4,2.4-2.5,2.4-4.8,1.6c-1.3-0.4-3.1-1.5-3.9-2.3c-2-1.8-4.1-2.9-6.8-3.5c-1.8-0.4-2.2-0.3-3,0.9c-0.5,0.8-1.6,1.8-2.6,2.2
		c-1.4,0.7-1.8,0.6-2.5-0.3c-0.6-0.9-1.5-1.1-3.8-0.9c-1.6,0.1-3,0.3-3.1,0.3c-0.1,0.1,0.1,0.9,0.5,1.9c0.4,1.2,0.4,2.6-0.1,4.5
		l-0.7,2.8l-3.3-0.1c-1.8-0.1-3.9-0.3-4.8-0.5c-2.6-0.8-5.9,1.6-8.5,5.9c-0.6,1-0.9,1.1-1.7,0.4c-0.9-0.8-1.1-0.4-1.9,2.4
		c-0.6,1.8-1,3.6-1,4c0,0.4-0.6,1.5-1.3,2.4c-0.7,0.9-1.6,3.1-1.9,4.9c-1.8,8.7-2.2,9.5-3.6,7.8c-0.4-0.5-1.8-1.2-3.1-1.6
		c-1.7-0.6-2.6-1.2-2.8-2.3c-0.4-1.7-5.7-6-7.4-6c-1.9,0-3.4,1.1-4.2,3c-0.4,1-1.5,2.1-2.3,2.6c-2,0.9-6,0.8-9.1,0.1
		c0.1,3,0.2,6.1,0.3,9.5H606z"/>
	<path fill="#FFFFFF" d="M158.1,299.6c0-0.1-0.1-0.1-0.1-0.2c-0.5-0.8-1-1.6-1.5-2.4c-0.1-0.1-0.2-0.3-0.3-0.4c0,0,0,0,0,0
		c-11.5-18.3-19.1-40.7-19.1-68c0-20.9,0.3-38.6,0.7-53.3c-0.9,0-1.9,0.1-3.1,0.1l-5.6,0.2c-0.4,14.7-0.6,32.1-0.6,52.1
		c0,39.5,14.6,69.6,34.5,92.4c15.9,18.2,35.2,31.9,53.2,42c0.9-1.8,0.8-2.3,0.2-4.2c-0.8-2.1-0.8-2.4,0.3-3.2
		c0.6-0.4,1.7-0.8,2.4-0.8c0.6,0,1.1-0.1,1.5-0.2C198.9,341.8,174.8,324.6,158.1,299.6z"/>
	<path fill="#FFFFFF" d="M336.6,160c-0.1-3.3-0.2-6.5-0.3-9.5c-2.4-0.5-4.3-1.4-4.3-2.3c0-1.3,2.1-5.4,3.8-7.7
		c-0.5-10.4-1-18.2-1.4-23.4c-0.4-0.7-0.8-1.1-1.1-1.1c-0.5,0-2,0.8-3.4,1.7c-1.5,1.1-2.6,1.4-2.8,1c-0.6-0.9-3.3-2.2-5.4-2.7
		c-1.8-0.4-1.9-0.5-2.2-4.4l-0.2-2.5h-48.8c-0.8,1.4-1.6,3.6-1.6,4.6c0,1.1-7,1.9-8.7,1c-1.8-0.9-6.1-0.8-6.9,0.3
		c-0.9,1.2-7.5,1.3-7.5,0.2c0-0.4,0.3-1.6,0.7-2.7c0.5-1.2,0.5-2,0-3.4h-55.5c-2.3,4.4-3.1,5.1-4.8,4.7c-2.1-0.5-3.3,1.1-3.8,4.9
		c0,0.4-0.1,0.8-0.2,1.2h143.3c0,0,3.5,34,3.5,108.6c0,27.3-7.5,49.7-19,68c0,0,0,0,0,0c-0.1,0.1-0.1,0.2-0.2,0.3
		c-0.5,0.8-1,1.5-1.5,2.3c-0.1,0.2-0.2,0.4-0.4,0.5c-1.2,1.8-2.5,3.7-3.8,5.4c-0.1,0.1-0.1,0.1-0.2,0.2c-0.6,0.8-1.2,1.6-1.9,2.4
		c-0.1,0.1-0.2,0.2-0.3,0.3c-0.7,0.8-1.3,1.7-2,2.5c0,0,0,0,0,0c-10.5,12.7-22.9,23.1-35.3,31.5c1,0.3,2.1,0.7,3.3,1
		c1.6,0.5,2,0.4,2.8-0.7c0.4-0.7,2.6-2.1,4.7-3c3.3-1.5,4.5-1.8,7.6-1.6c0.6,0,1.2,0.1,1.9,0.2c6.2-5.3,12.2-11,17.8-17.4
		c0-0.1,0-0.2,0-0.4c0-1,0.3-1.4,1.8-1.7c19.3-22.6,33.2-52.2,33.2-91C337.6,200.1,337.2,177.7,336.6,160z"/>
	<path fill="#EE1C25" d="M158.1,299.6c16.7,25,40.8,42.2,62.4,54c0,0,0,0,0,0C198.9,341.7,174.8,324.6,158.1,299.6z"/>
	<path fill="#EE1C25" d="M299.8,310.6c-10.5,12.7-22.9,23-35.3,31.5c0,0,0,0,0,0C276.9,333.7,289.2,323.3,299.8,310.6z"/>
	<path fill="#EE1C25" d="M303.9,305.3c-0.6,0.8-1.2,1.6-1.9,2.4C302.7,307,303.3,306.2,303.9,305.3z"/>
	<path fill="#EE1C25" d="M156.1,296.6c5.2-9.1,13.2-18.8,24.2-18.8c16.2,0,22.2,13,22.2,13s7.6-19.8,22.1-25.8v-38.5
		c-12-0.1-33.1,0-50.1,5.7c0,0,0.5-6.7,0.5-14.4c0-7.8-0.5-14.4-0.5-14.4c18.5,6.2,39.4,5.8,50,5.6v-25.9c-9.7,0-23.7,0.4-39.6,5.7
		c0,0,0.5-6.6,0.5-14.4c0-7.7-0.5-14.4-0.5-14.4c15.9,5.3,29.9,5.8,39.6,5.7c-0.5-16.4-5.3-37-5.3-37s9.9,0.7,13.8,0.7
		c4,0,13.8-0.7,13.8-0.7s-4.8,20.6-5.3,37c9.7,0.1,23.7-0.4,39.6-5.7c0,0-0.5,6.7-0.5,14.4c0,7.8,0.5,14.4,0.5,14.4
		c-15.9-5.3-30-5.8-39.7-5.7V209c10.7,0.2,31.6,0.6,50.1-5.6c0,0-0.4,6.7-0.4,14.4s0.5,14.4,0.5,14.4c-17-5.7-38.1-5.8-50.2-5.7V265
		c14.5,6,22.1,25.8,22.1,25.8s6-13,22.2-13c11,0,19,9.8,24.2,18.8c11.5-18.3,19-40.7,19-68c0-74.6-3.5-108.6-3.5-108.6H182.1
		c-0.6,2.7-2.4,4.3-7.3,7c-2.3,1.3-15.4,5.3-17.1,5.3c-0.1,0-0.3,0.4-0.3,0.8c0,0.5-0.8,1.6-1.8,2.5c-1.3,1.1-2,2.4-2.3,4.4
		c-0.3,1.5-0.3,3.1-0.1,3.4c0.2,0.4-0.3,2.1-1.2,4c-0.9,1.8-1.6,4-1.6,4.9c0,0.9-0.6,2.3-1.3,3.1c-0.9,1.1-1.3,2.6-1.3,5
		c-0.1,5.6-1.5,10.5-3.7,12.8c-1.6,1.6-2,1.9-6.6,2c-0.4,14.7-0.7,32.4-0.7,53.3C137,255.9,144.6,278.3,156.1,296.6z"/>
	<path fill="#EE1C25" d="M156.4,297c0.5,0.8,1,1.6,1.5,2.4C157.4,298.6,156.9,297.8,156.4,297z"/>
	<path fill="#EE1C25" d="M301.8,308.1c-0.7,0.8-1.3,1.7-2,2.5C300.4,309.8,301.1,308.9,301.8,308.1z"/>
	<path fill="#EE1C25" d="M309.7,296.9c-0.5,0.8-1,1.5-1.5,2.3C308.7,298.4,309.2,297.7,309.7,296.9z"/>
	<path fill="#EE1C25" d="M307.9,299.7c-1.2,1.8-2.5,3.7-3.8,5.4C305.4,303.4,306.6,301.6,307.9,299.7z"/>
	<path fill="#FFFFFF" d="M291.6,232.2c0,0-0.5-6.7-0.5-14.4s0.4-14.4,0.4-14.4c-18.5,6.2-39.4,5.8-50.1,5.6v-25.9
		c9.7-0.1,23.8,0.4,39.7,5.7c0,0-0.5-6.6-0.5-14.4c0-7.7,0.5-14.4,0.5-14.4c-15.9,5.3-29.9,5.8-39.6,5.7c0.5-16.4,5.3-37,5.3-37
		s-9.8,0.7-13.8,0.7c-3.9,0-13.8-0.7-13.8-0.7s4.8,20.6,5.3,37c-9.7,0.1-23.7-0.4-39.6-5.7c0,0,0.5,6.7,0.5,14.4
		c0,7.8-0.5,14.4-0.5,14.4c15.9-5.3,29.9-5.7,39.6-5.7V209c-10.6,0.2-31.5,0.6-50-5.6c0,0,0.5,6.6,0.5,14.4c0,7.7-0.5,14.4-0.5,14.4
		c17-5.7,38.1-5.8,50.1-5.7V265c2.6-1.1,5.4-1.7,8.4-1.7c3,0,5.8,0.6,8.4,1.7v-38.5C253.5,226.4,274.6,226.5,291.6,232.2z"/>
	<path fill="#0B4EA2" d="M299.8,310.6C299.8,310.6,299.8,310.6,299.8,310.6c0.7-0.8,1.4-1.7,2-2.5c0.1-0.1,0.2-0.2,0.3-0.3
		c0.6-0.8,1.2-1.6,1.9-2.4c0.1-0.1,0.1-0.1,0.2-0.2c1.3-1.8,2.6-3.6,3.8-5.4c0.1-0.2,0.2-0.4,0.4-0.5c0.5-0.7,1-1.5,1.5-2.3
		c0.1-0.1,0.1-0.2,0.2-0.3c0,0,0,0,0,0c-5.2-9-13.2-18.8-24.2-18.8c-16.2,0-22.2,13-22.2,13s-7.6-19.8-22.1-25.8
		c-2.6-1.1-5.4-1.7-8.4-1.7c-3,0-5.8,0.6-8.4,1.7c-14.5,6-22.1,25.8-22.1,25.8s-6-13-22.2-13c-11,0-19,9.7-24.2,18.8c0,0,0,0,0,0
		c0.1,0.1,0.2,0.3,0.3,0.4c0.5,0.8,1,1.6,1.5,2.4c0,0.1,0.1,0.1,0.1,0.2c16.7,25,40.8,42.1,62.4,54c1.2-0.4,1.6-1.6,1.7-3.6
		c0.1-3.9,0.9-6,2.4-6.5c1.3-0.4,8.8-0.9,14.2-0.9c1.6,0.1,2.6-0.4,3.5-1.6l1.4-1.7l2.2,1.7c2.2,1.7,2.3,1.7,4.3,0.7
		c1.3-0.7,2.8-0.9,4-0.8c1.1,0.2,2.3,0.1,2.6-0.3c0.4-0.4,3.1,0.1,7.7,1.5C276.9,333.6,289.3,323.3,299.8,310.6z"/>
</g>
</svg>
