<?xml version="1.0" encoding="utf-8"?>
<!-- Generator: Adobe Illustrator 17.1.0, SVG Export Plug-In . SVG Version: 6.00 Build 0)  -->
<!DOCTYPE svg PUBLIC "-//W3C//DTD SVG 1.1//EN" "http://www.w3.org/Graphics/SVG/1.1/DTD/svg11.dtd">
<svg version="1.1" id="flag-icon-css-sm" xmlns="http://www.w3.org/2000/svg" xmlns:xlink="http://www.w3.org/1999/xlink" x="0px"
	 y="0px" viewBox="0 0 640 480" enable-background="new 0 0 640 480" xml:space="preserve">
<g>
	<text transform="matrix(1 0 0 1 282.2322 340.2012)" font-family="'TrebuchetMS-Bold'" font-size="14.9913">L</text>
	<text transform="matrix(1 0 0 1 290.5615 340.7009)" font-family="'TrebuchetMS-Bold'" font-size="14.9913">I</text>
	<text transform="matrix(1 0 0 1 295.7247 341.5331)" font-family="'TrebuchetMS-Bold'" font-size="14.9913">B</text>
	<text transform="matrix(1 0 0 1 305.5526 342.1991)" font-family="'TrebuchetMS-Bold'" font-size="14.9913">E</text>
	<text transform="matrix(1 0 0 1 315.0468 342.3663)" font-family="'TrebuchetMS-Bold'" font-size="14.9913">R</text>
	<text transform="matrix(1 0 0 1 324.375 342.0332)" font-family="'TrebuchetMS-Bold'" font-size="14.9913">T</text>
	<text transform="matrix(1 0 0 1 333.3692 340.5331)" font-family="'TrebuchetMS-Bold'" font-size="14.9913">A</text>
	<text transform="matrix(1 0 0 1 343.6973 340.2012)" font-family="'TrebuchetMS-Bold'" font-size="14.9913">S</text>
</g>
<g>
	<path fill="#19B6EF" d="M366.4,343.1c-0.2,0.2-0.3,0.3-0.5,0.5c0.8-0.6,1.7-1.3,2.7-1.9C367.8,342.1,366.9,342.5,366.4,343.1z"/>
	<path fill="#19B6EF" d="M372.4,339.7c-1.1,0.5-2.4,1.2-3.7,2C369.9,341.2,371.3,340.6,372.4,339.7z"/>
	<path fill="#19B6EF" d="M365.9,343.6c-0.3,0.3-0.6,0.5-0.8,0.8l0,0.1C365.4,344.2,365.7,343.9,365.9,343.6z"/>
	<path fill="#19B6EF" d="M269.3,344.4c-0.1-0.1-0.3-0.3-0.4-0.4C269.1,344.1,269.2,344.2,269.3,344.4L269.3,344.4z"/>
	<path fill="#19B6EF" d="M227.3,240.1c-0.1,0-0.1,0-0.2-0.1h-2.6c-0.2,0.9-0.4,1.7-0.6,2.5c-0.6-0.8-1.1-1.7-1.6-2.5h-2.6
		c3.1,4.4,5.2,9.3,8,15.3C227.2,250.5,227,245.5,227.3,240.1z"/>
	<path fill="#19B6EF" d="M262.1,339.7c1.2,1,2.8,1.6,4.1,2.2C264.7,341,263.2,340.2,262.1,339.7z"/>
	<path fill="#19B6EF" d="M228.9,240.3c0,0-0.1,0-0.1,0c-0.5,0-1-0.1-1.4-0.3c-0.4,9.9,1,18.8,3.8,26.9c0.6-0.3,1.2-0.6,1.9-0.6
		c2,0,3.6,1.6,3.6,3.6c0,1.7-1.2,3.2-2.9,3.5c5.9,12.9,15.5,23.5,27,33c0.3-1.7,1.8-3,3.5-3c2,0,3.6,1.6,3.6,3.6
		c0,1.5-0.9,2.8-2.2,3.3c7.4,5.7,15.4,11,23.6,16.2l13,0.9c-29.3-25.2-50.2-57.9-54.8-87.6h-5.1c-1.6,7.6-4.9,14.8-10.5,23
		C230.6,256.9,227.4,248.4,228.9,240.3z M241.4,251.6c3.8,8.6,5.1,12.3,10.4,18.3c6.3,8,5.7,16.9,3.6,30.4
		C236.4,284.1,240.3,269.4,241.4,251.6z"/>
	<path fill="#19B6EF" d="M268.1,343.1c-0.5-0.5-1.2-0.9-2-1.2c1.1,0.7,2.1,1.4,2.8,2.1C268.7,343.7,268.4,343.4,268.1,343.1z"/>
	<path fill="#19B6EF" d="M414.2,249.8c-0.2,1.2-1,2.3-2.1,2.8c0.1,1,0.2,2,0.5,3l-2.1,2.7c2.3-2.3,5.7-5.6,5.7-5.6
		c0.6-5,5.4-10.6,8.4-7.1c0.7-2.2,1.5-4.1,2.6-5.6h-4.1c-0.8,0.7-1.7,1.4-2.9,2.1C420,242.1,415.2,248.5,414.2,249.8z"/>
	<path fill="#19B6EF" d="M408.8,244.5c0.5,0.4,0.9,0.8,1.3,1.3c0.4-0.1,0.8-0.1,1.1,0c0.4,0.1,0.8,0.2,1.1,0.4
		c-0.7-2-1.2-4.4-1.3-6.2h-1.3C410.3,241.5,410,243.2,408.8,244.5z"/>
	<path fill="#19B6EF" d="M442.5,243.2c1.1,5.5-4,8.7-6.9,11.8c0,0,0.6,5.9-9.7,9.1c-0.1,0-1.1,4.9-6,5.7c1.8,5.3-15.5,9.8-15.7,10
		l0,0l-2.2-7.3l5.4-10l-2.9,3.9h0h0l0,0c-4.1-3.1-6.4-6.9-5.7-10.6c-2.7-3.7-4.6-5.9-2-9.2L395,240h-6.3
		c-5.4,31-30.5,63.9-57.6,87.7l17.2-1.2c4.7-3.2,9.5-6.6,14.5-10.3c-1-0.6-1.7-1.8-1.7-3c0-2,1.6-3.6,3.6-3.6c1.6,0,3,1.1,3.4,2.6
		c10.7-8.3,22.2-18.1,35-30.4c-11.8,12.8-23.9,23.7-35.3,33.2c-0.4,0.7-1.1,1.3-1.9,1.5c-4.1,3.4-8.2,6.6-12.2,9.6l1.2-0.1
		c2.4,1.5,17.2,0,19.4,10.2c-0.3,1.6-1,2.6-2,3.4c1-0.5,1.7-0.8,1.9-0.8c3.6,1.1,10.8,0.7,10.8,0.7c0,0,0,0,0,0
		c0.3-2.7-1.3-4.4,0.6-7.9c2.3-1.7,24.2-2,35.6,2.3c1.5,7.7-3.6,10.8-6.6,15.4c0.1,0,0.1,0,0.2,0l11.8,1.3c-2.3-2.4-3.7-4.7-2-6.6
		c4-5.2,16.3-3,24.4-4.5l0,0.1l-8.2,6l3.7,3.2c0.1-0.1,0.2-0.2,0.3-0.3c0.4-0.3,0.9-1.3,1.1-2.1c0.3-1.3,2.3-4.4,4.2-6.7
		c-0.3-0.5-0.5-1.2-0.5-1.9c0-2,1.6-3.7,3.7-3.7c1.2,0,2.2,0.6,2.9,1.4c1.4-0.4,2.9-0.5,4.3-0.3c2.1,0.3,2.6,0.1,5.5-1.4
		c5.8-3.1,7.3-4.4,9.4-8.7c1.9-3.7,1.9-4.1,1.9-8.2c0-3.9,0.1-4.5,1.2-5.9c0.7-1,1.2-2.1,1.2-3.2c0-3.2,1.3-7.3,3-9
		c2.5-2.6,6.1-9.6,6.5-12.5c0.4-2.9,1.5-4.4,5.6-7.4c2.6-1.9,4.2-4.3,5.6-8.3c1.3-3.7,4.3-6,9-7l3.5-0.7l2.5-6.5l2.5-6.5v-7.9V240
		h-75.1C442.6,241,442.6,242,442.5,243.2z M398.8,282.4c-2.2,0-4-1.8-4-4.1c0-0.6,0.1-1.1,0.3-1.6c-0.4,0-0.8,0-1.2-0.1
		c0.9,4.7-0.7,8.9-5.9,8.7c2.3,3.4,1.6,7.9-1,10L368,309.5c0,0,0,0.1,0,0.1l-0.1,0l0.1-0.1c0.6-3.8-2-10.5,2-11.1
		c-0.7-6.3,0.3-13.3,7.5-12.7c1.2-5.9,1-11.4,7.8-12.2c0,0,5.5-19.1,11.2-5.9c1.2,2.1,1.6,4.9,1,6.9c0.4-0.1,0.8-0.2,1.2-0.2
		c2.2,0,4,1.8,4,4h0.1C402.8,280.5,401,282.4,398.8,282.4z M423.7,322c-1.1,2.9-3.3,3.4-6.3,2.6c-1.9,3.3-4.4,5.5-8.1,2.5
		c-3.5,3.1-8.8,4.4-12.8,1.4c-4.6,1.3-7.9,1.3-10.6-2.7c-3.4,2.5-8,3.1-9-1.2c-1.9,0.5-4.5-1.3-5.3-4.1l-3.6-2.2l16.2-14.7
		c5.7-3.2,9.6-3.2,12.9-0.4c2.5-2.3,8-3.9,9.5-0.6c4.6-3.3,8.7-2.6,9.4,0.4c2.6-1.2,6.1-1.5,7.9-0.2c5.9,1,1.7,7.8-2,11
		C426.6,316.1,429.4,321.5,423.7,322z M428.7,297.9c-11.9-7.2-18.6-6.2-37.3-2l9.7-10.2v0l6-1.2c6-4,8.5-5.7,11.5-1.2
		c5.1-1,10-0.6,9.8,3.4c6,0.5,6,4.3,5.3,7.4C434.7,299.4,432.3,306.4,428.7,297.9z"/>
	<path fill="#19B6EF" d="M265.2,317.9c0-0.2,0-0.4,0.1-0.5l-1.1-0.1C264.5,317.5,264.9,317.7,265.2,317.9z"/>
	<path fill="#19B6EF" d="M428.4,350.9l-1.7-0.2c4.3,4.4,12.1,9,10.2,12c-6.2,6.6-12.5,3.9-19.4,0.3c-1.6-3.5-2.9-9.8-3.8-11.7
		c0.3-0.7,0.6-1.3,1-1.9c-8.6,1.8-16.1-4.4-24-0.8c-1.8-3.3-3.8-5.7-5.6-9c0,0.1,0,0.2,0,0.3c2,3.6,6.8,9.8,6.8,13
		c-12,4.3-15.1-0.6-25.8-0.3c-12.6,0.2-20.3,3.5-23-1.5c0.5-1.1,1.7-1.7,3.2-2c2.3-2.1,3.8-3.5,4.7-5.8c-7.8,0.1-16.7,1.6-24,2.2
		c-1.3,0.9-2.6,1.8-3.8,2.6c8.6,5.8,16.7,11.8,23.8,18.5l-13.4-0.2l0,0c-4.3-5.6-9.3-10.6-14.8-15.3c-9.3,6.5-15.8,11.3-18,14.9v0.1
		l-12.4-0.3c9.3-6.7,18-12.4,26.6-17.8c-1-0.8-2-1.6-3-2.3c-7.9-0.1-19.1-2.2-28.6-2.4c1.1,2.3,2.7,4.2,4.8,5.7l-0.2,0
		c1.6,0.3,2.9,0.9,3.4,2.1c-2.8,5-10.4,1.6-23,1.4c-10.8-0.2-13.8,4.6-25.8,0.4c0-3.3,4.8-9.4,6.7-13.1c0-0.1,0-0.1,0-0.2
		c-1.7,3.2-3.8,5.6-5.5,8.9c-8-3.5-15.4,2.6-24.1,0.9c0.4,0.6,0.7,1.2,1,1.8c-0.8,1.9-2.1,8.2-3.8,11.7c-6.9,3.6-13.2,6.3-19.4-0.2
		c-1.8-3,5.8-7.6,10.2-12l-1.7,0.2l-8.6-0.8l-13.2,3.8l9.4-8.3l-8.3-6v0c8.2,1.5,20.5-0.8,24.5,4.5c1.7,1.9,0.3,4.2-2.1,6.6
		l11.9-1.3c0,0,0.1,0,0.1,0c-2.9-4.6-8.1-7.8-6.5-15.5c11.3-4.2,33.2-3.9,35.6-2.2c1.8,3.5,0.2,5.1,0.5,7.9c0,0,0,0,0,0
		c0,0,7.2,0.3,10.9-0.7c0.2,0,0.9,0.3,1.9,0.8c-0.9-0.8-1.7-1.9-2-3.5c2.2-10.2,17-8.6,19.3-10.2l4.3,0.3c-3.8-2.5-7.6-5-11.4-7.6
		c-0.4,1.6-1.8,2.8-3.5,2.8c-1.5,0-2.7-0.9-3.3-2.2c-8.6,2.2-19.5,9.6-22.9,9.4c-9.5-1.1-18.5-5-27.7-8c-3.8-1.2-7.7,0-11.6,0
		c7.1-3.3,13.1-5.9,18.5-7.6c-5.8-2.2-12.1-3.4-18.1-6c27.3-9.5,47-2.9,61.8,9.5c0.3-0.7,0.8-1.3,1.5-1.8
		c-15-11.1-28.1-23.7-34.9-41.4c-1.5-0.4-2.7-1.8-2.7-3.5c0,0,0,0,0,0c0-0.8,0.3-1.6,0.8-2.2c-1-3.6-1.8-7.3-2.3-11.3
		c-8.5-0.8-17.4-7.7-24.1-16.5h-74c0.8,3,2.5,5.4,5.4,8.6c1.9,2,3.2,3,5.1,3.7c1.5,0.6,4.6,2.6,8,5.3c5.8,4.6,7.5,6.6,9,11
		c0.6,1.6,1.3,2.6,2.3,3.3c1.4,0.9,1.6,1.4,2.3,4.6c0.4,2,1.3,4.9,1.9,6.4c1,2.2,1.4,2.7,2.6,2.9c1.3,0.3,1.3,0.4,1.6,3.3
		c0.1,1.7,0.4,3.5,0.6,3.9c0.3,0.6,0.1,0.8-0.7,0.8c-2.2,0-2.3,0.5-1.3,4.2c0.9,3.4,0.9,3.6,0,6.9c-0.8,2.9-1.3,3.8-3.9,6.7
		c-1.6,1.8-4.3,4.4-5.9,5.8c-3,2.5-4.4,4.5-9.9,14.3c-2.5,4.5-2.6,4.8-2.9,9.1c-0.3,4.4-0.3,4.7,3.9,23.6
		c3.6,16.3,4.8,20.7,7.7,29.3l3.4,10l-0.7,2.2c-0.6,1.9-1,2.2-2.5,2.7c-1.6,0.5-2,0.9-4.4,5.5c-2.2,4.3-2.6,5.3-2.6,7.5
		c0,2.3-0.2,2.8-3,6.9l-3.1,4.4l4.1,1.3c3.2,1.1,4.7,1.9,7.4,4c1.8,1.5,3.7,2.7,4.1,2.7c0.5,0,1.9,0.6,3.4,1.5
		c4,2.3,8.8,3.1,15.6,2.5c7.4-0.6,15.5-2.8,16.1-4.2c0.3-0.6,1.1-1.2,1.8-1.3c1.5-0.4,1.9-0.8,3.9-4.5l1.5-2.9l4.5-1.8
		c4.1-1.7,4.5-1.7,5.1-1c0.4,0.6,1,0.7,2.6,0.5l2.1-0.3l2,3.4l2,3.4l3.2,0.3c2.8,0.2,3.6,0.1,6-0.9c1.5-0.6,3.9-1.9,5.3-2.8
		c1.4-0.9,3.4-1.7,4.5-1.8c1.7-0.2,1.9-0.1,2.5,1.1l0.6,1.3l1.2-1.2c1.2-1.2,1.3-1.2,2.6-0.4c1.3,0.7,1.3,0.7,2.3-0.2
		c0.9-0.9,0.9-1.2,0.5-2.8c-0.3-1-0.6-2-0.6-2.3c0-0.3,1.3-1.7,3-3.2c2.9-2.6,3.3-2.7,8.4-4c2.9-0.7,5.5-1.3,5.7-1.1
		c0.2,0.1,0.6,0.7,0.7,1.4c0.2,0.6,0.7,2.3,1.2,3.7c0.9,2.4,1.1,2.6,8.1,7c5.7,3.6,7.3,4.9,8.3,6.5l1.2,1.9l-1.1,2.7
		c-0.9,2.2-1,2.9-0.6,3.6c0.4,0.7,0.4,1.1-0.2,1.7c-1.6,1.8-0.2,4.7,3.1,6.8l2.1,1.3l-0.6,1.8c-0.4,1-0.6,2.3-0.6,2.9
		c0,2,5.1,6.6,8,7.4c0.7,0.2,1.7,1,2.2,1.9s1.5,1.7,2.2,1.9c0.7,0.1,2.2,0.9,3.3,1.7c1.3,0.9,4,2,6.8,2.8l4.7,1.3l2.4-1.5
		c3-1.9,4.3-2.4,6.9-2.8c1.8-0.3,2.6-0.1,5.9,1.4c2.1,1,3.9,1.8,4,1.8c0,0,0.6-1.4,1.3-3.2c1-3.1,1.2-3.3,3.2-4c2.8-1,4.7-2.2,8-5
		l2.8-2.3l1.1,1.3l1.1,1.3l1.8-1.2c2-1.3,3.5-1.5,11.2-1c3.9,0.2,5.6,0.1,8.4-0.6c3.3-0.8,4.4-0.8,25.4-0.2c12,0.4,22,0.6,22.1,0.5
		c0.4-0.3,5-18.2,5.6-21.5c0.5-2.8,1-3.9,3.9-7.9c1.8-2.6,3.8-6.1,4.5-7.9c0.7-1.8,2-4.5,3-6c1.4-2.3,1.6-3.1,1.5-5.1l-0.1-2.3
		l4.2-4.1l4.2-4.1v-2.7c0-2.6,0-2.7-1.6-3.5c-0.9-0.4-1.9-0.7-2.3-0.7c-0.5,0-0.7-0.4-0.7-1.5c0-0.9-0.4-1.9-1-2.6
		c-0.9-1-1-1.2-0.5-3.7c0.6-2.6,0.5-16.2-0.1-17.8c-0.3-0.8-0.7-4.2-1.1-8.6c-0.3-3.6-0.6-3,4-8.9c0.1-0.1,0.2-0.2,0.3-0.3l-5.2-1.4
		L428.4,350.9z M245.2,296c0.1,0,0.2,0,0.2,0L245.2,296C245.3,296.1,245.3,296,245.2,296c-1.4,0.2-11.2,1.6-15.7,1.9
		c-4.8-0.3-12-4.8-19.8-13c-4-4.6-13.4-4-13.4-4C216.9,276.5,232.9,280.7,245.2,296z M197.3,248.9c24.4,6.2,26,11.2,33.1,25.9
		c-14.9-1-33.5-14.3-37.7-30.2C192.7,244.8,198.2,248.1,197.3,248.9z M177.5,338c0-2,1.6-3.6,3.6-3.6c2,0,3.6,1.6,3.6,3.6
		c0,2-1.6,3.6-3.6,3.6C179.1,341.6,177.5,340,177.5,338C177.5,338,177.5,338,177.5,338z M183.7,356c0,2-1.6,3.6-3.6,3.6
		c-2,0-3.6-1.6-3.6-3.6c0,0,0,0,0,0c0-2,1.6-3.7,3.7-3.7C182.2,352.3,183.8,354,183.7,356L183.7,356z"/>
	<path fill="#FFFFFF" d="M225,237.9c-0.2,0.7-0.4,1.4-0.5,2.1h2.6C226.2,239.6,225.4,238.8,225,237.9z"/>
	<path fill="#FFFFFF" d="M419.4,216.9c-0.1-0.3-0.2-0.6-0.3-0.8l-0.3,0.9C419,216.9,419.2,216.9,419.4,216.9z"/>
	<path fill="#FFFFFF" d="M233.2,209c0.3,0.2,0.7,0.4,0.9,0.7c0.1-0.5,0.1-0.9,0.2-1.4C234,208.5,233.6,208.8,233.2,209z"/>
	<path fill="#FFFFFF" d="M228.2,230.8c-0.4-0.9-0.7-1.9-1.1-2.8c-0.2,1.8-0.5,3.5-0.9,5.2c0.5-0.4,1.1-0.7,1.8-0.8
		C228,231.9,228.1,231.3,228.2,230.8z"/>
	<path fill="#FFFFFF" d="M415.3,229.3c-0.2-0.5-0.3-1-0.4-1.6l-0.6,1.6C414.6,229.3,414.9,229.3,415.3,229.3z"/>
	<path fill="#FFFFFF" d="M511.6,210.4l-1.5-6.2l-7.8-13.5c-4.3-7.5-9.5-16.2-11.6-19.4l-3.8-5.9l4.2-10.5l4.1-10.6l-2.2-3.9
		c-2.1-3.7-2.3-4.3-2.6-8.2c-0.2-2.3-0.8-7-1.4-10.4c-0.6-3.4-1.6-8.9-2.1-12.1c-0.6-3.2-1.1-6.2-1.2-6.8c-0.2-0.9,0-1,4.3-1.3
		c4.1-0.3,4.6-0.4,5.9-1.6c0.8-0.7,2.4-1.7,3.5-2.1c6.9-2.6,7.5-4,4.6-11.6c-1.5-4-1.9-5.6-1.9-8.1c0-4.1-1.3-14.1-2.1-16.8
		c-0.3-1.2-0.9-3.3-1.2-4.7c-0.5-2.3-0.4-2.8,0.4-4.4c0.5-1,1.4-2.2,1.9-2.7c1.7-1.5,3.7-4.7,3.7-5.9c0-1.8,4.3-4.8,8.5-6
		c2.8-0.8,3.5-1.2,3.2-1.8c-0.2-0.4-0.4-3.9-0.5-8c0-4.3-0.4-8.7-0.8-10.9c-0.4-2-1-6-1.3-9l-0.6-5.3l-1.5-0.5c-2-0.6-2.8,0.2-3,2.9
		c-0.1,1.7-0.4,2.3-1.3,2.7c-0.9,0.5-1.3,0.4-2.6-0.4c-0.9-0.5-1.8-1.2-2.1-1.6C502.5,4.9,501,5,499,6.1L497.3,7l-0.9-1
		c-0.5-0.6-1.2-1.9-1.5-3c-0.5-1.6-0.7-1.9-1.6-1.9c-0.8,0-1.2,0.3-1.4,1.2c-0.2,0.6-0.8,1.5-1.4,1.9c-1.1,0.7-1.3,0.7-2.1,0
		c-1.2-1.1-2.4-0.6-3.7,1.6c-1.1,1.8-1.3,1.9-3.5,1.9c-1.3,0-2.6,0.2-2.8,0.4c-1,0.7-2,2.6-2,3.8c0,1-0.3,1.3-1.9,1.9
		c-1.2,0.4-2.2,1.2-2.6,1.9c-0.6,1.1-0.6,1.3,0.1,2.1c1.1,1.2,1,1.5-0.9,4.7l-1.7,2.8h-2.9c-2.1,0-3.8,0.4-6.7,1.6
		c-2.1,0.9-5.2,1.7-6.8,1.9c-3.7,0.4-5,1.6-7.5,6.8c-1.6,3.3-1.8,3.6-3.9,4.4c-1.2,0.5-2.6,1.3-3.2,2c-1,1.3-0.9,1.3-6.9,0.1
		c-2.3-0.4-3.6,0.1-7.4,3.2c-1.5,1.2-4.5,3.3-6.5,4.7l-3.7,2.5h-8.4c-8.3,0-8.4,0-10.5,1.3c-1.2,0.7-2.5,1.3-2.8,1.3
		c-0.3,0-1.4,0.4-2.3,0.9c-1,0.5-3.3,1.1-5.6,1.3c-5.4,0.6-9.3,2.3-12,5.2c-1.8,2-2.5,2.4-5.3,3.2c-3.6,0.9-6.9,2.7-11.1,6.1
		c-1.5,1.2-4.1,3.1-5.8,4.2s-13.8,9.6-27,18.8l-5.9,4.1h2.3v2.5h3.5l-0.1,3.4h-3.6v4.5h-0.3c3.9,0.8,6.8,4.3,6.8,8.4
		c0,4.7-3.9,8.6-8.6,8.6c-4.7,0-8.6-3.9-8.6-8.6c0-4.1,2.9-7.6,6.8-8.4h-0.1l0.1-0.1v-4.2l-3.6-0.1l0.1-2.3l-12.8,9l-5.9,6.5
		l-4.4,4.8c0.4,1.8-0.7,3.6-2.5,4c-1.2,0.3-2.4-0.1-3.3-0.9l-0.7,0.2l-4.9,1.6l-2.3,3.5c-1.2,1.8-6.4,8.9-11.9,16.2
		c0.9,0.5,1.5,1.4,1.7,2.4c0.3,1.9-0.9,3.6-2.8,3.9c-1.1,0.2-2.2-0.2-3-0.9c-6.1,8.1-7.9,10.2-9.3,10.8c-1.3,0.7-2.5,1.9-4.1,4.4
		l-2.3,3.5l-3.3,0.3c-1.9,0.2-5.8,0-9.5-0.4c-11.7-1.3-21.6-2.1-26.3-2.1c-4.2,0-5-0.1-8.6-1.6c-2.1-0.8-5-1.7-6.3-1.9l-2.4-0.3
		l-4.2,6.2c-2.3,3.4-5.7,8.2-7.4,10.6l-3.2,4.4l-2.7,0.3c-5.5,0.7-5.7,0.7-5.7,2.2c0,2-2.6,3.8-3.5,2.4c-0.4-0.6-2.9-0.6-3.2,0
		c-0.5,0.7-3.2,0-5-1.5c-1.1-0.8-3.5-1.9-6.3-2.6c-2.5-0.7-6.2-2-8.2-2.8l-3.7-1.5l-1.7,1.7c-2.2,2.1-3.6,6.6-4.5,13.9l-0.6,5.1
		l1.6,6.6l1.7,6.6l-0.9,8.7c-0.8,7-1,11.2-0.1,14.5h74c-5-6.5-8.9-13.9-10.7-20.6c0,0.2,5.5,3.4,4.6,4.2c12,5.4,17.9,10.4,22.1,16.4
		h2.6c-9.5-14.9-11.3-26.8-9.7-45c0.3,1.4,3.5,9.7,4.2,10.9c0.7-7.7,4.3-15.6,5.4-20.9c5.4,7.8,7.7,15.5,8.5,23.4c0.1,0,0.2,0,0.4,0
		c0.1,0,0.2,0,0.3,0c0.4-14.8,3.3-29,21.3-42.4c-2,5.5-1.5,11.6-2,17.8c3.1-2.6,6.5-5.4,10.5-8.3c-8,13.2,0,25.9-25.9,38
		c-0.4,2-2.1,3.5-4.2,3.5c0,0,0,0,0,0c-0.1,4.9-0.5,10.1-1,15.6c0.6,0.2,1.1,0.5,1.5,1c1.6-2.5,4-4.9,7.4-7c0.2,0,3.9-9.5,4.2-11
		c0.9,9.4,0.8,17.2-0.7,24.5h5.1c-3.9-25.1,4-48.1,28.4-62.6c0.5-0.1,0.9-0.3,1.4-0.4l-0.6-9.5c0.3,0,0.6-0.1,0.9-0.1l-8.2-15.7
		c5.9-4.2,10.4-6,16.9-4.4c1.7-6.9,8.2-7.1,15.2-6.2c0.2,0,3.6-3.4,8-3.8l6.1-0.2c-2.2-0.7-3.7-2.7-3.7-5.1c0,0,0,0,0,0
		c0-3,2.4-5.4,5.4-5.4c3,0,5.4,2.4,5.4,5.4c0,2.3-1.4,4.2-3.4,5l6.8-0.2c3.6,0.6,5.5,1.9,7.6,4c7-0.6,11.7,0.5,16,6.7
		c7.7-1.7,11.3,1.1,16.7,4.8l-8.9,15.4c0.7,0.1,1.5,0.3,2.2,0.4l-3.1,9c-1.1-0.1-2.1-0.2-3.2-0.3c2.2,0.2,4.3,0.5,6.5,1
		c25.9,16.5,33,38.8,28.9,62.2h6.3l-0.2-0.9c-5.4-2-3.1-6.5-1.7-8.1c-2.5-3.5-2.6-7.2-0.2-10.4c0-6.5,4.6-4,8.3,0
		c0,0,6.4,4.5,1.7,8.5c4.7,1.7,6,5.7,3.4,7.4c1.9,0.9,3.1,2.1,3.5,3.5h1.3c0-1.1,0.1-2,0.7-2.3c0.1-0.1-0.3-1.2-0.6-2.5
		c-1.7-2.1-5.9-8-4.4-8.5c-0.4-2.1-1.8-4.4-1.7-6.6l-2.6-3.6l-1.9-2.2c-0.2,0.1-0.3,0.1-0.5,0.1c-2,0.3-3.8-1-4.1-3
		c-0.1-0.4-0.1-0.8,0-1.2c0-0.1,0-0.2,0.1-0.2c-3.9-0.6-3.9-2.3-2.9-5.6c-2.7,1.3-7-2.1-4.5-5.2c-3.6,0.2-6.3-3.4-4.6-6
		c-9-0.2-6-7.7-6.6-8.3c-7.5-3.5-4.6-8-4.6-8c-3.2-6.7,0.1-8.3,6.3-3c2.7-4.8,6.5-0.7,8.3,3.4c1.9-13.7,13.7-6.5,16.1-0.8
		c4.3,2.5,3.1,7.8,1.6,10.8l4.7,4.7c0.8-0.3,1.6-0.6,2.4-0.8c2.3-8,6-6,8.2,0.2c3.2,2.8,2.7,7,1.6,10.2c3.8,2.5,1.5,5.7-0.2,7
		l-0.1,0.2c0.4-0.2,0.8-0.4,1.3-0.5c4-5.3,8.9-6,8.8,2c2.8,1,0.8,8.6,0.8,9.4c1,2.4,0.5,5.2-1.4,7.1c-0.5,0.6,1.4,5.5-4.5,7.3
		c0,0-0.4,2.9-3.6,5.8h4.1c1.6-2.1,3.9-3.3,7.7-2.9c6.9-3.3,7.8-1.4,7.7,2.9h75.1v-5.8l-2.3-8.8
		C514.1,220.5,512.4,213.8,511.6,210.4z M262.5,158.2c-0.1-0.5-0.1-1.1,0-1.6c0.3-1.9,2.1-3.1,3.9-2.8c1.4,0.2,2.5,1.4,2.8,2.8h-0.1
		c0.5,1.8-0.7,3.7-2.5,4.1C264.8,161.2,263,160.1,262.5,158.2z M272.7,164.3L272.7,164.3c0.2,1.9-1,3.6-2.9,3.9
		c-1.9,0.3-3.6-0.9-3.9-2.8c-0.1-0.4-0.1-0.8,0-1.2c0-1.9,1.5-3.4,3.4-3.4C271.2,160.9,272.7,162.4,272.7,164.3z M295.5,127.2
		c-1.9,0.3-3.6-0.9-3.9-2.8c-0.1-0.4-0.1-0.8,0-1.2c0.3-1.9,2.1-3.1,3.9-2.8c1.4,0.2,2.5,1.4,2.8,2.8
		C298.6,125.2,297.4,126.9,295.5,127.2z M304,126.9c-1.8,0.5-3.7-0.7-4.1-2.5c-0.1-0.5-0.1-1.1,0-1.6c0.3-1.9,2.1-3.1,3.9-2.8
		c1.4,0.2,2.5,1.4,2.8,2.8h-0.1C307,124.6,305.8,126.5,304,126.9z M331.6,126.1c-1.9,0-3.4-1.5-3.4-3.4c0,0,0,0,0,0
		c0.3-1.9,2.1-3.1,3.9-2.8c1.4,0.2,2.5,1.4,2.8,2.8h0.1C335,124.6,333.5,126.1,331.6,126.1z M378,135.3c0.3,1.9-0.9,3.6-2.8,3.9
		c-1.9,0.3-3.6-0.9-3.9-2.8c-0.1-0.4-0.1-0.8,0-1.2c0.3-1.9,2.1-3.1,3.9-2.8C376.6,132.8,377.8,133.9,378,135.3z M368.4,128.1
		c0.3-1.9,2.1-3.1,3.9-2.8c1.4,0.2,2.5,1.4,2.8,2.8c0.3,1.9-0.9,3.6-2.8,3.9c-1.9,0.3-3.6-0.9-3.9-2.8
		C368.3,128.9,368.3,128.5,368.4,128.1z M341.1,127.5c-1.8,0.5-3.7-0.7-4.1-2.5c-0.1-0.5-0.1-1.1,0-1.6c0.3-1.9,2.1-3.1,3.9-2.8
		c1.4,0.2,2.5,1.4,2.8,2.8h-0.1C344.1,125.2,342.9,127.1,341.1,127.5z M349.3,126.9c-1.9,0.3-3.6-0.9-3.9-2.8
		c-0.1-0.4-0.1-0.8,0-1.2c0.3-1.9,2.1-3.1,3.9-2.8c1.4,0.2,2.5,1.4,2.8,2.8C352.4,124.9,351.2,126.6,349.3,126.9z M356.4,126.6
		c-1.9,0.3-3.6-0.9-3.9-2.8c-0.1-0.4-0.1-0.8,0-1.2c0.3-1.9,2.1-3.1,3.9-2.8c1.4,0.2,2.5,1.4,2.8,2.8
		C359.5,124.6,358.3,126.3,356.4,126.6z M365.3,127.6c-1.9,0.3-3.6-0.9-3.9-2.8c-0.1-0.4-0.1-0.8,0-1.2c0.3-1.9,2.1-3.1,3.9-2.8
		c1.4,0.2,2.5,1.4,2.8,2.8C368.4,125.6,367.2,127.3,365.3,127.6z M366.6,167.9c-1.9,0.3-3.6-0.9-3.9-2.8c-0.1-0.4-0.1-0.8,0-1.2
		c0.3-1.9,2.1-3.1,3.9-2.8c1.4,0.2,2.5,1.4,2.8,2.8C369.7,165.9,368.5,167.6,366.6,167.9z M373.3,154.4c-0.7,0.1-1.3,0-1.9-0.2
		c0.8,0.5,1.4,1.3,1.5,2.3h0.1c0,1.9-1.5,3.4-3.4,3.4c-1.9,0-3.4-1.5-3.4-3.4c0,0,0,0,0,0c0.3-1.9,2.1-3.1,3.9-2.8
		c0.2,0,0.5,0.1,0.7,0.2c-0.8-0.5-1.4-1.3-1.5-2.3c-0.1-0.4-0.1-0.8,0-1.2c0.3-1.9,2.1-3.1,3.9-2.8c1.4,0.2,2.5,1.4,2.8,2.8
		C376.4,152.4,375.2,154.1,373.3,154.4z M375.8,147.2c-1.9,0.3-3.6-0.9-3.9-2.8c-0.1-0.4-0.1-0.8,0-1.2c0.3-1.9,2.1-3.1,3.9-2.8
		c1.4,0.2,2.5,1.4,2.8,2.8C378.9,145.2,377.7,146.9,375.8,147.2z"/>
	<path fill="#FFFFFF" d="M293.8,175.9c4.7,0.7,9.4,2.2,13.6,4.5c5-1.5,7.5-0.1,10,2.9c3.5-3.7,6.3-3.9,9.8-1.9
		c5-3.9,13.8-5.3,23-4.8C331.4,175.2,312.6,174.9,293.8,175.9z"/>
	<path fill="#FFFFFF" d="M228.7,232.3C228.7,232.3,228.7,232.3,228.7,232.3c-0.1-0.5-0.3-1-0.5-1.5c-0.1,0.5-0.1,1-0.2,1.6
		C228.2,232.3,228.5,232.3,228.7,232.3z"/>
	<polygon fill="#FFFFFF" points="315.1,100.2 313.3,101.5 315.1,101.5 	"/>
	<path fill="#FFDD00" d="M302.3,327.6l4.6,0.3c-91.7-85.4-50.7-147.3-22.3-144.8c16,1,8,21-2.4,11V194c12-3.9-2.8-11.6-5.3,0
		c-3.8,0.7-4.3,3.5-12.7,2.3c-19.2,31-7,80.1,43.7,131.7l3.7,0.3c-36-36.6-69.5-98.8-32.8-131.1c6.8,3.8,14.9,0.4,26-4
		c3.4,3.7,7.7,4.6,12,1.8c4.8,2,8.3,0.4,10.7-2.1c11,6.3,24.9,9.6,28.2,3.3c36,34.3,2.9,96.8-33.4,132.1l4.2-0.3
		c51.4-52,63.8-101.4,44.6-132.5c-8.4,1.2-8.9-1.7-12.8-2.3c-2.5-11.7-17.3-3.9-5.3,0h0l0,0c0,0,0,0,0,0c-10.4,10-18.4-10-2.4-11
		c28.5-2.4,69.8,59.9-23.2,145.8l3.6-0.2c27.1-23.8,52.2-56.7,57.6-87.7c4.1-23.4-3-45.7-28.9-62.2c-2.1-0.4-4.3-0.7-6.5-1
		c-1.1-0.1-2.2-0.2-3.3-0.3c-9.2-0.5-18,0.9-23,4.8c-3.5-2-6.3-1.8-9.8,1.9c-2.5-3-5-4.4-10-2.9c-4.3-2.3-8.9-3.8-13.6-4.5
		c-5.5,0.3-11,0.7-16.5,1.2l0-0.1c-0.5,0.1-0.9,0.3-1.4,0.4c-24.4,14.5-32.2,37.5-28.4,62.6C252.1,269.7,273.1,302.4,302.3,327.6z"
		/>
	<path fill="#4FD46B" d="M368,309.6C368,309.6,368,309.5,368,309.6L368,309.6L368,309.6z"/>
	<path fill="#4FD46B" d="M421.9,313.8c3.7-3.2,7.9-10,2-11c-1.8-1.3-5.3-1-7.9,0.2c-0.7-3-4.8-3.7-9.4-0.4c-1.5-3.3-7-1.7-9.5,0.6
		c-3.3-2.8-7.2-2.8-12.9,0.4L368,318.3l3.6,2.2c0.8,2.8,3.4,4.6,5.3,4.1c1,4.3,5.6,3.7,9,1.2c2.7,4,6,4,10.6,2.7
		c4,3,9.3,1.7,12.8-1.4c3.7,3,6.2,0.8,8.1-2.5c3,0.8,5.2,0.3,6.3-2.6C429.4,321.5,426.6,316.1,421.9,313.8z"/>
	<path fill="#4FD46B" d="M397.5,274.5c0.6-1.9,0.2-4.8-1-6.9c-5.7-13.2-11.2,5.9-11.2,5.9c-6.8,0.8-6.6,6.3-7.8,12.2
		c-7.2-0.6-8.2,6.4-7.5,12.7c-4,0.6-1.4,7.3-2,11.1l18.9-14.2c2.6-2.1,3.3-6.6,1-10c5.2,0.2,6.8-4,5.9-8.7c0.5,0.1,0.9,0.1,1.2,0.1
		C395.5,275.7,396.4,274.8,397.5,274.5z"/>
	<path fill="#4FD46B" d="M416.2,252.7c0,0-3.4,3.3-5.7,5.6l-3.1,4.2l-5.4,10l2.2,7.3l0,0c0.2-0.2,17.5-4.7,15.7-10
		c4.9-0.8,5.9-5.7,6-5.7c10.3-3.2,9.7-9.1,9.7-9.1c2.9-3.1,8-6.3,6.9-11.8c0.1-1.2,0.1-2.2,0.1-3.2c0.1-4.3-0.8-6.2-7.7-2.9
		c-3.7-0.4-6,0.8-7.7,2.9c-1.1,1.5-1.9,3.4-2.6,5.6C421.6,242.1,416.8,247.7,416.2,252.7z"/>
	<path fill="#4FD46B" d="M428.4,286.7c0.2-4-4.7-4.4-9.8-3.4c-3-4.5-5.5-2.8-11.5,1.2l-6,1.2v0l-9.7,10.2c18.7-4.2,25.4-5.2,37.3,2
		c3.6,8.5,6,1.5,5-3.8C434.4,291,434.4,287.2,428.4,286.7z"/>
	<path fill="#4FD46B" d="M414.2,248.7c0.1,0.4,0,0.8,0,1.1c1-1.3,5.8-7.7,6-7.7c1.2-0.7,2.1-1.4,2.9-2.1c3.2-2.9,3.6-5.8,3.6-5.8
		c5.9-1.8,4-6.7,4.5-7.3c1.9-1.9,2.4-4.7,1.4-7.1c0-0.8,2-8.4-0.8-9.4c0.1-8-4.8-7.3-8.8-2c-0.5,0.1-0.9,0.3-1.3,0.5l-2.6,7.2
		c0.1,0.3,0.2,0.6,0.3,0.8c-0.2,0-0.4,0-0.6,0.1l-3.9,10.8c0.1,0.6,0.3,1.1,0.4,1.6c-0.4,0-0.7,0-1,0l-2.5,6.8l0-0.1
		c0,0-0.3-0.3-0.6-0.8c0.3,1.3,0.7,2.3,0.6,2.5c-0.6,0.3-0.8,1.2-0.7,2.3c0.1,1.7,0.7,4.1,1.3,6.2
		C413.3,246.7,414,247.6,414.2,248.7z"/>
	<polygon fill="#4FD46B" points="404.5,266.4 404.5,266.4 404.5,266.4 	"/>
	<path fill="#4FD46B" d="M398.8,255.8c-0.7,3.7,1.6,7.5,5.7,10.6l2.9-3.9l3.1-4.2l2.1-2.7c-0.3-1-0.4-2-0.5-3
		c-0.3,0.1-0.5,0.2-0.8,0.2c-2,0.3-3.8-1-4.1-3c-0.1-0.4-0.1-0.8,0-1.2c0.3-1.6,1.5-2.7,3-2.9c-0.4-0.4-0.8-0.9-1.3-1.3
		c1.2-1.3,1.5-3,1-4.5c-0.4-1.4-1.6-2.6-3.5-3.5c2.6-1.7,1.3-5.7-3.4-7.4c4.7-4-1.7-8.5-1.7-8.5c-3.7-4-8.3-6.5-8.3,0
		c-2.4,3.2-2.3,6.9,0.2,10.4c-1.4,1.6-3.7,6.1,1.7,8.1l0.2,0.9l1.8,6.6C394.2,249.9,396.1,252.1,398.8,255.8z"/>
	<path fill="#4FD46B" d="M411.8,236.1l2.5-6.8l0.6-1.6l3.9-10.8l0.3-0.9l2.6-7.2l0.1-0.2c1.7-1.3,4-4.5,0.2-7
		c1.1-3.2,1.6-7.4-1.6-10.2c-2.2-6.2-5.9-8.2-8.2-0.2c-0.8,0.2-1.6,0.5-2.4,0.8l1,1v0l-3.8,29.5l-1.9-2.5c-0.1,2.2,1.3,4.5,1.7,6.6
		c-1.6,0.5,2.7,6.4,4.4,8.5C411.5,235.7,411.8,236,411.8,236.1L411.8,236.1z"/>
	<path fill="#4FD46B" d="M410.8,193.1L410.8,193.1l-1-1l-4.7-4.7c1.5-3,2.7-8.3-1.6-10.8c-2.4-5.7-14.2-12.9-16.1,0.8
		c-1.8-4.1-5.6-8.2-8.3-3.4c-6.2-5.3-9.5-3.7-6.3,3c0,0-2.9,4.5,4.6,8c0.6,0.6-2.4,8.1,6.6,8.3c-1.7,2.6,1,6.2,4.6,6
		c-2.5,3.1,1.8,6.5,4.5,5.2c-1,3.2-1,4.9,2.9,5.6c0.4-1.8,2.2-3,4.1-2.7c1.5,0.3,2.7,1.4,3,3c0.3,1.8-0.8,3.5-2.4,4l1.9,2.2l2.6,3.6
		l1.9,2.5L410.8,193.1z"/>
	<path fill="#65C7FF" d="M344.2,269.9c0.4,0.1,0.8,0.2,1.2,0.3l0-0.3H344.2z"/>
	<path fill="#65C7FF" d="M314.4,270.5L314.4,270.5l-3.1-0.1c3.5,0.6,7,0.6,10.5,0L314.4,270.5L314.4,270.5z"/>
	<path fill="#65C7FF" d="M274.7,274.8c2-1.7,2.9-2.2,3.9-5c5.8,0.8,8.9,1,16.5-0.4c0.4,1.4,0.7,2.8,1,4.1l0.4,0v1.7
		c0.8,3.4,1.8,6.5,4.1,9.6l7.7-15c0.5,0.1,1.1,0.2,1.6,0.4v-15l-1.5-1.2v-3.7l2.8-0.2l0.5-17l-1.8-1l-0.2-2.8c0,0,2,0.8,2,0.3
		l0.5-3.4c0,0-1.2-0.2-1.2-0.7s1.5-1.9,1.5-1.9s-0.8-0.7-1-1.2l-0.8-2.9l0.8-2.8l-0.5-1.5l-1.3-2.3l1.8-1.8l-0.5-2.9
		c0.3-1,0.8-2,1.5-2.8c0.3-0.2,2.3-3,2.3-3l4.4-1l5.1,0.7l2.8,1.8l0.6,4.6c0,0-0.6,2.8-0.8,2.8l-2.3,1c0,0-2.6,0.3-2.8,0
		c-0.2-0.3,0.7,3.1,0.7,3.1v3.1l-0.2,3.9c0,0,0,1.8-0.3,2l-0.8,1l-0.2,3.9l4,1l-0.2,2.3l-2.8,0.3l0.5,15.7l4.1,0.7v4.4l-1.8,1
		l-0.5,15.2c0.2,0,0.3-0.1,0.5-0.1c0.8,1,1.3,2.1,1.7,3.3h0.2c0.2,0.7,0.3,1.5,0.4,2.1c0.9,3.4,1.8,7.1,5.4,10.2
		c3.3-9.7,6.5-10.6,9.8-15.5h-0.8v-15.2l-1.5-1.3v-3.6l2.8-0.2l0.5-17l-1.8-1l-0.2-2.8c0,0,2,0.7,2,0.2l0.5-3.3c0,0-1.3-0.3-1.3-0.8
		s1.6-1.8,1.6-1.8s-0.8-0.7-1-1.3l-0.8-2.8l0.8-2.8l-0.6-1.5l-1.2-2.3l1.8-1.8l-0.6-2.9c0.4-1,0.9-2,1.6-2.8l2.3-3l4.4-1.1l5.1,0.8
		l2.8,1.8l0.5,4.6c0,0-0.5,2.8-0.7,2.8l-2.3,1c0,0-2.6,0.3-2.9,0c-0.3-0.3,0.8,3.1,0.8,3.1v3.1l-0.3,3.9c0,0,0,1.7-0.2,2l-0.8,1
		l-0.2,3.9l4,1l-0.2,2.3l-2.8,0.3l0.5,15.6l4.1,0.8v4.4l-1.8,1l-0.5,15.7h-0.4c1,1.4,1,1.8,2.6,3.5c0.6,0.1,1.3,0.3,2,0.5l-0.5,0.9
		c0.1,0.1,0.2,0.2,0.3,0.3c-9.7,19.8-22.8,37.9-38.6,53.3l1.1-0.1c36.4-35.4,69.4-97.9,33.4-132.1c-3.3,6.3-17.2,3-28.2-3.3
		c-2.4,2.5-5.9,4.1-10.7,2.1c-4.3,2.8-8.6,1.9-12-1.8c-11.1,4.4-19.2,7.8-26,4c-36.7,32.2-3.2,94.5,32.8,131.1l1.3,0.1
		C297.5,312.6,284.6,294.5,274.7,274.8z M279.1,231.3l-0.2-2.8c0,0,2,0.8,2,0.3l0.5-3.4c0,0-1.3-0.2-1.3-0.7s1.6-1.8,1.6-1.8
		s-0.8-0.8-1-1.3l-0.8-2.8l0.8-2.9l-0.5-1.5l-1.3-2.3l1.8-1.8l-0.5-2.8c0.3-1,0.8-2,1.5-2.9c0.3-0.2,2.3-3,2.3-3l4.4-1l5.1,0.7
		l2.8,1.8l0.5,4.6c0,0-0.5,2.8-0.7,2.8l-2.3,1c0,0-2.6,0.3-2.9,0s0.8,3.2,0.8,3.2v3l-0.2,3.9c0,0,0,1.8-0.3,2c-0.3,0.2-0.8,1-0.8,1
		l-0.2,4l4,1l-0.2,2.3l-2.8,0.2l0.5,15.7l4.1,0.7v4.4l-1.8,1l-0.5,15.7h-3.9v0.4l-5.4-0.4h-5.1v-15.2l-1.5-1.2v-3.6l2.8-0.3l0.5-17
		L279.1,231.3z"/>
	<path fill="#65C7FF" d="M351.5,270c0.2,0,0.4-0.1,0.6-0.1h-0.6V270z"/>
	<path fill="#65C7FF" d="M349.3,270.4l-3.8-0.2C346.9,270.5,348.1,270.5,349.3,270.4z"/>
	<path fill="#8FC753" d="M359.9,275.1c-0.1-0.1-0.2-0.2-0.3-0.3l-4.6,8.3c-1,0.2-2.4-0.5-3.6-0.8c-1.2-2.5-0.8-5.3,0.2-8h-0.1
		c1.8-1.1,4-1.4,6.6-0.9c-1.6-1.7-1.6-2.1-2.6-3.5h-3.4c-0.2,0.1-0.4,0.1-0.6,0.1v0.5l-2.2-0.1c-1.2,0.1-2.4,0.1-3.8-0.2l0,0h-0.1
		l0,0c-0.4-0.1-0.8-0.2-1.2-0.3h-1.9c-3.3,4.9-6.5,5.8-9.8,15.5c-3.6-3.1-4.4-6.8-5.4-10.2c0.3,2,0,3.7-0.4,5.5v0l-3.6,0.6
		c-1.1-0.8-3.3-0.3-4-2.4c-1.7,0.4-3-3.8-3-3.8l4.2-2h6.2c-0.4-1.2-0.9-2.3-1.7-3.3c-0.2,0-0.3,0.1-0.5,0.1l0,0.5h-2.5
		c-3.5,0.6-7,0.6-10.5,0H310l-0.1,0v-0.2c-0.5-0.1-1.1-0.2-1.6-0.4l-7.7,15c-2.3-3.1-3.3-6.2-4.1-9.6v4.5c-1.8,1.2-3.6,1.2-5.9,0.6
		c-0.9-0.8-2.5-1.7-3.8-3.2l3.1-1.6c0.6-0.8,1.6-1.2,2.2-2.2l4,0.2c-0.3-1.3-0.6-2.7-1-4.1c-7.6,1.4-10.7,1.2-16.5,0.4
		c-1,2.8-1.9,3.3-3.9,5c9.9,19.7,22.8,37.8,38.2,53.6l0.2,0l-2.3-2.4v-2.6c-1-1.1-1.3-3.2-1.9-4.7l-0.3-2.5c-0.7-3.2,2.5-3.3,4-1.5
		l1.5,6.4c1.6,0.3,3,1.1,4.6,1c1-1.3,2.4-2.8,4-3.1l1.8,2.1l-2.4,3.7c-2.4,0.9-4.5,1.2-7.4,0.4l-0.5,3.2l3,0.2l4.1-0.3
		C337.1,313,350.2,294.9,359.9,275.1z M285.3,288.5c-0.4,0.9-2.7,0.5-2.6,0.3v0l-2.4-4c1.6-0.4,3.2-0.3,4.7,0.3
		C285,285.1,286,287.6,285.3,288.5z M297.2,297c-0.3-1.2-0.1-2.3-0.8-3.6c-1.4-0.3-2.4,0.6-3.9,0.4c-1.5-0.9-1.6-1.9-2.3-2.9
		c1-3,2.8-5.7,6-6.5c1,1.7,0.5,3.2,0.7,4.8l4.6,5.2l3.4,0.6c0,0,1.3,3.3-0.5,4.5c0,1.7-3.6,2.4-3.8,2.4h0
		C299.5,300.2,299.1,298.3,297.2,297z M308,309.2c-2.5-0.1-4.4,2-7.4,1.3c0.6-1.6,1.9-1.9,2.8-2.8c-0.7-4.1,1.5-5.5,2.1-5.5
		c0.6,0,3.1,0.6,3.1,0.6l2.4,0.3c1.5,2.7,3.5,5,4.3,8C313.3,312.1,310.7,310.3,308,309.2z M319.2,292.9c-0.4,0-5.4-4.8-6.6-7.4
		c-1.6-0.3-2.8-2.3-2.8-2.3c1.2,0,2.6,0.2,3.6,1.2l4,0.1l4.5,5.1C321.6,291.2,320.5,292.3,319.2,292.9z M331.1,314.8
		c-1,1.6-0.6-1.1-0.5-1.3c-1-0.9,1.2-7.5,2-9.2c0.1-1.9,4.9-7.6,4.9-7.6c2.3,1.1,4,3,4.9,5.4C342.4,302.1,332.5,315.2,331.1,314.8z
		 M345.1,282.5l-3.4,3l1,3l4.4-0.1l4.2-1.7c0,0,2.8-2,3-2l-5.3,8.6c-1.3,1-3.4,1.4-5.4,1c0,0-3.4-2.6-4.5-4c-2-1.7-2-5-2-5
		C339.4,283.2,342.3,282,345.1,282.5z M323.3,297.5c-1-2,0.3-4.3,0.2-4c0-0.1,4-1.4,6-1.3c-0.1-1.6,3-5.3,3-5.3l5.6,7.3
		c-1,0.8-2.8,0.6-4.2,0.8c0,0-2.7,2.6-3,2.7C330.6,297.8,325.7,299,323.3,297.5z"/>
	<path fill="#FFFFFF" d="M262.3,153.4c1.9-0.3,3.1-2.1,2.8-3.9c-0.2-1-0.8-1.9-1.7-2.4c-0.3,0.4-0.6,0.8-1,1.3
		c-1.1,1.5-2.2,2.9-3.1,4.1C260.1,153.2,261.2,153.6,262.3,153.4z"/>
	<path fill="#FFFFFF" d="M266.6,160.7c1.8-0.5,2.9-2.3,2.5-4.1h0.1c-0.2-1.4-1.4-2.5-2.8-2.8c-1.9-0.3-3.6,0.9-3.9,2.8
		c-0.1,0.5-0.1,1.1,0,1.6C263,160.1,264.8,161.2,266.6,160.7z"/>
	<path fill="#FFFFFF" d="M265.9,164.3c-0.1,0.4-0.1,0.8,0,1.2c0.3,1.9,2.1,3.1,3.9,2.8c1.9-0.3,3.1-2.1,2.8-3.9h0.1
		c0-1.9-1.5-3.4-3.4-3.4C267.4,160.9,265.9,162.4,265.9,164.3z"/>
	<path fill="#FFFFFF" d="M286.4,126.6c1.8-0.4,2.9-2.2,2.5-4l-1.5,1.7l-4.2,1.4C284,126.5,285.2,126.9,286.4,126.6z"/>
	<path fill="#FFFFFF" d="M303.8,120c-1.9-0.3-3.6,0.9-3.9,2.8c-0.1,0.5-0.1,1.1,0,1.6c0.5,1.8,2.3,2.9,4.1,2.5
		c1.8-0.5,2.9-2.3,2.5-4.1h0.1C306.4,121.4,305.2,120.3,303.8,120z"/>
	<path fill="#FFFFFF" d="M295.5,120.5c-1.9-0.3-3.6,0.9-3.9,2.8c-0.1,0.4-0.1,0.8,0,1.2c0.3,1.9,2.1,3.1,3.9,2.8
		c1.9-0.3,3.1-2.1,2.8-3.9C298.1,121.9,296.9,120.8,295.5,120.5z"/>
	<path fill="#FFDD00" d="M308.7,117.5c0,4.7,3.9,8.6,8.6,8.6c4.7,0,8.6-3.9,8.6-8.6c0-4.1-2.9-7.6-6.8-8.4h-3.7
		C311.6,109.9,308.7,113.4,308.7,117.5z"/>
	<path fill="#FFFFFF" d="M372.3,132c1.9-0.3,3.1-2.1,2.8-3.9c-0.2-1.4-1.4-2.5-2.8-2.8c-1.9-0.3-3.6,0.9-3.9,2.8
		c-0.1,0.4-0.1,0.8,0,1.2C368.7,131.1,370.5,132.4,372.3,132z"/>
	<path fill="#FFFFFF" d="M332.1,119.9c-1.9-0.3-3.6,0.9-3.9,2.8c0,0,0,0,0,0c0,1.9,1.5,3.4,3.4,3.4c1.9,0,3.4-1.5,3.4-3.4h-0.1
		C334.7,121.3,333.5,120.2,332.1,119.9z"/>
	<path fill="#FFFFFF" d="M349.3,120.2c-1.9-0.3-3.6,0.9-3.9,2.8c-0.1,0.4-0.1,0.8,0,1.2c0.3,1.9,2.1,3.1,3.9,2.8s3.1-2.1,2.8-3.9
		C351.9,121.6,350.7,120.5,349.3,120.2z"/>
	<path fill="#FFFFFF" d="M368.1,123.7c-0.2-1.4-1.4-2.5-2.8-2.8c-1.9-0.3-3.6,0.9-3.9,2.8c-0.1,0.4-0.1,0.8,0,1.2
		c0.3,1.9,2.1,3.1,3.9,2.8C367.2,127.3,368.4,125.6,368.1,123.7z"/>
	<path fill="#FFFFFF" d="M340.9,120.6c-1.9-0.3-3.6,0.9-3.9,2.8c-0.1,0.5-0.1,1.1,0,1.6c0.5,1.8,2.3,2.9,4.1,2.5
		c1.8-0.5,2.9-2.3,2.5-4.1h0.1C343.5,122,342.3,120.9,340.9,120.6z"/>
	<path fill="#FFFFFF" d="M356.4,119.9c-1.9-0.3-3.6,0.9-3.9,2.8c-0.1,0.4-0.1,0.8,0,1.2c0.3,1.9,2.1,3.1,3.9,2.8
		c1.9-0.3,3.1-2.1,2.8-3.9C359,121.3,357.8,120.2,356.4,119.9z"/>
	<path fill="#E40000" d="M357.5,167.7l8.9-15.4c-5.4-3.7-9-6.5-16.7-4.8c-4.3-6.2-9-7.3-16-6.7c-2.1-2.1-4-3.4-7.6-4l-6.8,0.2
		c-0.1,0.1-0.3,0.1-0.4,0.1c2.7,0.6,4.7,3,4.7,5.9c0,3.3-2.7,6-6,6s-6-2.7-6-6c0-2.8,1.9-5.1,4.4-5.8c-0.1,0-0.2-0.1-0.4-0.1
		l-6.1,0.2c-4.4,0.4-7.8,3.8-8,3.8c-7-0.9-13.5-0.7-15.2,6.2c-6.5-1.6-11,0.2-16.9,4.4l8.2,15.7
		C312.2,162.6,331.2,163.1,357.5,167.7z M312.6,154.4c0-2.8,2.2-5,5-5s5,2.2,5,5c0,2.8-2.2,5-5,5S312.6,157.2,312.6,154.4z"/>
	<path fill="#FFFFFF" d="M366.6,161.2c-1.9-0.3-3.6,0.9-3.9,2.8c-0.1,0.4-0.1,0.8,0,1.2c0.3,1.9,2.1,3.1,3.9,2.8
		c1.9-0.3,3.1-2.1,2.8-3.9C369.2,162.6,368,161.5,366.6,161.2z"/>
	<path fill="#FFFFFF" d="M373.3,147.7c-1.9-0.3-3.6,0.9-3.9,2.8c-0.1,0.4-0.1,0.8,0,1.2c0.2,1,0.8,1.8,1.5,2.3
		c-0.2-0.1-0.5-0.2-0.7-0.2c-1.9-0.3-3.6,0.9-3.9,2.8c0,0,0,0,0,0c0,1.9,1.5,3.4,3.4,3.4c1.9,0,3.4-1.5,3.4-3.4H373
		c-0.2-1-0.7-1.8-1.5-2.3c0.6,0.2,1.2,0.3,1.9,0.2c1.9-0.3,3.1-2.1,2.8-3.9C375.9,149.1,374.7,148,373.3,147.7z"/>
	<path fill="#FFFFFF" d="M375.8,140.5c-1.9-0.3-3.6,0.9-3.9,2.8c-0.1,0.4-0.1,0.8,0,1.2c0.3,1.9,2.1,3.1,3.9,2.8
		c1.9-0.3,3.1-2.1,2.8-3.9C378.4,141.9,377.2,140.8,375.8,140.5z"/>
	<path fill="#FFFFFF" d="M371.3,135.3c-0.1,0.4-0.1,0.8,0,1.2c0.3,1.9,2.1,3.1,3.9,2.8c1.9-0.3,3.1-2.1,2.8-3.9
		c-0.2-1.4-1.4-2.5-2.8-2.8C373.4,132.2,371.6,133.4,371.3,135.3z"/>
	<circle fill="#FFFFFF" cx="317.6" cy="154.4" r="5"/>
	<path fill="#FFFFFF" d="M316,137.2c-2.5,0.7-4.4,3-4.4,5.8c0,3.3,2.7,6,6,6s6-2.7,6-6c0-2.9-2-5.3-4.7-5.9c-0.5,0.2-1,0.3-1.6,0.3
		C316.8,137.4,316.4,137.3,316,137.2z"/>
	<path fill="#FFFFFF" d="M317.3,137.4c0.6,0,1.1-0.1,1.6-0.3c0.1,0,0.3-0.1,0.4-0.1c2-0.8,3.4-2.7,3.4-5c0-3-2.4-5.4-5.4-5.4
		c-3,0-5.4,2.4-5.4,5.4c0,0,0,0,0,0c0,2.4,1.6,4.4,3.7,5.1c0.1,0,0.2,0.1,0.4,0.1C316.4,137.3,316.8,137.4,317.3,137.4z"/>
	<polygon fill="#FFDD00" points="315.5,104.8 315.5,109 315.4,109.1 315.5,109.1 319.1,109.1 319.4,109.1 319.4,104.6 323,104.6 
		323.1,101.2 319.6,101.2 319.6,98.7 317.3,98.7 315.1,100.2 315.1,101.5 313.3,101.5 312,102.4 311.9,104.7 	"/>
	<path fill="#FFDD00" d="M293.8,175.9c18.8-1,37.7-0.8,56.4,0.7c1.1,0.1,2.2,0.2,3.3,0.3c1.1,0.1,2.1,0.2,3.2,0.3l3.1-9
		c-0.7-0.1-1.5-0.3-2.2-0.4c-26.3-4.6-45.2-5.1-79.9-0.3c-0.3,0-0.6,0.1-0.9,0.1l0.6,9.5l0,0.1C282.8,176.6,288.3,176.2,293.8,175.9
		z"/>
	<path fill="#C76E2E" d="M308.6,302.8c0,0-2.5-0.6-3.1-0.6c-0.6,0-2.8,1.4-2.1,5.5c-0.9,0.9-2.2,1.2-2.8,2.8c3,0.7,4.9-1.4,7.4-1.3
		c2.7,1.1,5.3,2.9,7.3,1.9c-0.8-3-2.8-5.3-4.3-8L308.6,302.8z"/>
	<path fill="#C76E2E" d="M322.1,324.8l2.4-3.7l-1.8-2.1c-1.6,0.3-3,1.8-4,3.1c-1.6,0.1-3-0.7-4.6-1l-1.5-6.4c-1.5-1.8-4.7-1.7-4,1.5
		l0.3,2.5c0.6,1.5,0.9,3.6,1.9,4.7v2.6l2.3,2.4l1.1,0.1l0.5-3.2C317.6,326,319.7,325.7,322.1,324.8z"/>
	<path fill="#FFE100" d="M367.9,315c11.5-9.5,23.5-20.5,35.3-33.2c-12.8,12.3-24.3,22.1-35,30.4c0.1,0.3,0.2,0.7,0.2,1
		C368.4,313.9,368.2,314.5,367.9,315z"/>
	<path fill="#FFE100" d="M288.4,365.8l12.4,0.3V366c2.2-3.6,8.7-8.4,18-14.9c-1.2-1.1-2.5-2.1-3.8-3.1
		C306.4,353.4,297.7,359.1,288.4,365.8z"/>
	<path fill="#FFE100" d="M319.5,345.7c1.2,0.8,2.4,1.6,3.7,2.4c1.2-0.8,2.5-1.7,3.8-2.6C324.2,345.7,321.7,345.8,319.5,345.7z"/>
	<path fill="#FFE100" d="M366,316.6c-0.4,0.1-0.8,0.2-1.2,0.2c-0.7,0-1.4-0.2-1.9-0.6c-5,3.7-9.8,7.1-14.5,10.3l5.5-0.4
		C357.8,323.2,361.9,320,366,316.6z"/>
	<path fill="#9D4916" d="M414.2,249.8c0.1-0.4,0.1-0.8,0-1.1c-0.2-1.1-0.9-2-1.8-2.5c-0.4-0.2-0.7-0.3-1.1-0.4c-0.4-0.1-0.8,0-1.1,0
		c-1.5,0.2-2.7,1.4-3,2.9c-0.1,0.4-0.1,0.8,0,1.2c0.3,2,2.2,3.3,4.1,3c0.3,0,0.6-0.1,0.8-0.2C413.2,252.1,414,251.1,414.2,249.8z"/>
	<path fill="#9D4916" d="M398.7,274.3c-0.4,0-0.8,0.1-1.2,0.2c-1.1,0.3-2,1.2-2.5,2.2c-0.2,0.5-0.3,1-0.3,1.6c0,2.2,1.8,4.1,4,4.1
		s4-1.8,4-4.1h-0.1C402.7,276.1,400.9,274.3,398.7,274.3z"/>
	<path fill="#9D4916" d="M403,210.3c-0.3-1.5-1.4-2.7-3-3c-1.9-0.3-3.6,0.9-4.1,2.7c0,0.1-0.1,0.2-0.1,0.2c-0.1,0.4-0.1,0.8,0,1.2
		c0.3,2,2.2,3.3,4.1,3c0.2,0,0.4-0.1,0.5-0.1C402.2,213.8,403.3,212.1,403,210.3z"/>
	<path fill="#9D4916" d="M366,316.6c0.8-0.3,1.5-0.8,1.9-1.5c0.3-0.5,0.5-1.2,0.5-1.8c0-0.4-0.1-0.7-0.2-1c-0.4-1.5-1.8-2.6-3.4-2.6
		c-2,0-3.6,1.6-3.6,3.6c0,1.3,0.7,2.4,1.7,3c0.6,0.4,1.2,0.6,1.9,0.6C365.2,316.8,365.6,316.7,366,316.6z"/>
	<path fill="#FFFFFF" d="M280.4,249.3l-2.8,0.3v3.6l1.5,1.2v15.2h5.1l-1.3-0.1h0.1v-12h6.6v12.1h3.9l0.5-15.7l1.8-1v-4.4l-4.1-0.7
		l-0.5-15.7l2.8-0.2l0.2-2.3l-4-1l0.2-4c0,0,0.5-0.8,0.8-1c0.3-0.2,0.3-2,0.3-2l0.2-3.9v-3c0,0-1.1-3.5-0.8-3.2s2.9,0,2.9,0l2.3-1
		c0.2,0,0.7-2.8,0.7-2.8l-0.5-4.6l-2.8-1.8l-5.1-0.7l-4.4,1c0,0-2,2.8-2.3,3c-0.7,0.9-1.2,1.9-1.5,2.9l0.5,2.8l-1.8,1.8l1.3,2.3
		l0.5,1.5l-0.8,2.9l0.8,2.8c0.2,0.5,1,1.3,1,1.3s-1.6,1.3-1.6,1.8s1.3,0.7,1.3,0.7l-0.5,3.4c0,0.5-2-0.3-2-0.3l0.2,2.8l1.8,1
		L280.4,249.3z M288.4,234.2v6.1h-3.8v-6.1H288.4z"/>
	<path fill="#FFFFFF" d="M345.4,269.9l-0.4-11.2l6.5-0.2v11.4h0.6h3.4h0.4l0.5-15.7l1.8-1v-4.4l-4.1-0.8l-0.5-15.6l2.8-0.3l0.2-2.3
		l-4-1l0.2-3.9l0.8-1c0.2-0.3,0.2-2,0.2-2l0.3-3.9v-3.1c0,0-1.1-3.4-0.8-3.1c0.3,0.3,2.9,0,2.9,0l2.3-1c0.2,0,0.7-2.8,0.7-2.8
		l-0.5-4.6l-2.8-1.8l-5.1-0.8l-4.4,1.1l-2.3,3c-0.7,0.8-1.2,1.8-1.6,2.8l0.6,2.9l-1.8,1.8l1.2,2.3l0.6,1.5l-0.8,2.8l0.8,2.8
		c0.2,0.6,1,1.3,1,1.3s-1.6,1.3-1.6,1.8s1.3,0.8,1.3,0.8l-0.5,3.3c0,0.5-2-0.2-2-0.2l0.2,2.8l1.8,1l-0.5,17l-2.8,0.2v3.6l1.5,1.3
		v15.2h0.8h1.9H345.4z M345.9,234.9h4.6v5.7H346L345.9,234.9z"/>
	<path fill="#FFFFFF" d="M310,270.4h1.3h3.1v0l0,0l0.3-12.1h6v11.9l-6.3,0.2v0h7.4h2.5l0-0.5l0.5-15.2l1.8-1v-4.4l-4.1-0.7
		l-0.5-15.7l2.8-0.3l0.2-2.3l-4-1l0.2-3.9l0.8-1c0.3-0.2,0.3-2,0.3-2l0.2-3.9v-3.1c0,0-0.9-3.4-0.7-3.1c0.2,0.3,2.8,0,2.8,0l2.3-1
		c0.2,0,0.8-2.8,0.8-2.8l-0.6-4.6l-2.8-1.8l-5.1-0.7l-4.4,1c0,0-2,2.8-2.3,3c-0.7,0.8-1.2,1.8-1.5,2.8l0.5,2.9l-1.8,1.8l1.3,2.3
		l0.5,1.5l-0.8,2.8l0.8,2.9c0.2,0.5,1,1.2,1,1.2s-1.5,1.4-1.5,1.9s1.2,0.7,1.2,0.7l-0.5,3.4c0,0.5-2-0.3-2-0.3l0.2,2.8l1.8,1
		l-0.5,17l-2.8,0.2v3.7l1.5,1.2v15L310,270.4L310,270.4z M314.9,234.4h5.3v6h-5.3V234.4z"/>
	<polygon points="314.4,270.4 314.4,270.4 314.4,270.4 314.4,270.4 314.4,270.5 	"/>
	<polygon points="283,257.5 283,269.5 282.9,269.5 284.2,269.6 289.6,270 289.6,269.6 289.6,257.5 	"/>
	<rect x="284.6" y="234.2" width="3.8" height="6.1"/>
	<rect x="314.9" y="234.4" width="5.3" height="6"/>
	<polygon points="320.7,258.3 314.7,258.3 314.4,270.4 320.7,270.2 	"/>
	<polygon points="351.5,258.5 345,258.7 345.4,269.9 345.4,270.2 345.4,270.2 345.5,270.2 345.5,270.2 349.3,270.4 351.5,270.5 
		351.5,270 351.5,269.9 	"/>
	<polygon points="350.5,240.6 350.5,234.9 345.9,234.9 346,240.6 	"/>
	<path fill="#B97700" d="M264.2,196.3c8.4,1.2,8.9-1.6,12.7-2.3c2.5-11.6,17.3-3.9,5.3,0v0.1c10.4,10,18.4-10,2.4-11
		c-28.4-2.5-69.4,59.4,22.3,144.8l1,0.1C257.2,276.4,245,227.3,264.2,196.3z"/>
	<path fill="#C76E2E" d="M289.9,275.5l-3.1,1.6c1.3,1.5,2.9,2.4,3.8,3.2c2.3,0.6,4.1,0.6,5.9-0.6v-4.5v-1.7l-0.4,0l-4-0.2
		C291.5,274.3,290.5,274.7,289.9,275.5z"/>
	<path fill="#C76E2E" d="M351.5,274.3h0.1c-1,2.7-1.4,5.5-0.2,8c1.2,0.3,2.6,1,3.6,0.8l4.6-8.3l0.5-0.9c-0.7-0.2-1.4-0.4-2-0.5
		C355.5,272.9,353.3,273.2,351.5,274.3z"/>
	<path fill="#C76E2E" d="M280.3,284.8l2.4,4v0c-0.1,0.2,2.2,0.6,2.6-0.3c0.7-0.9-0.3-3.4-0.3-3.4
		C283.5,284.5,281.9,284.4,280.3,284.8z"/>
	<path fill="#C76E2E" d="M313.4,284.4c-1-1-2.4-1.2-3.6-1.2c0,0,1.2,2,2.8,2.3c1.2,2.6,6.2,7.4,6.6,7.4c1.3-0.6,2.4-1.7,2.7-3.3
		l-4.5-5.1L313.4,284.4z"/>
	<path fill="#C76E2E" d="M330.9,297.7c0.3-0.1,3-2.7,3-2.7c1.4-0.2,3.2,0,4.2-0.8l-5.6-7.3c0,0-3.1,3.7-3,5.3c-2-0.1-6,1.2-6,1.3
		c0.1-0.3-1.2,2-0.2,4C325.7,299,330.6,297.8,330.9,297.7z"/>
	<path fill="#C76E2E" d="M304.4,299.5c1.8-1.2,0.5-4.5,0.5-4.5l-3.4-0.6l-4.6-5.2c-0.2-1.6,0.3-3.1-0.7-4.8c-3.2,0.8-5,3.5-6,6.5
		c0.7,1,0.8,2,2.3,2.9c1.5,0.2,2.5-0.7,3.9-0.4c0.7,1.3,0.5,2.4,0.8,3.6c1.9,1.3,2.3,3.2,3.4,4.9h0
		C300.8,301.9,304.4,301.2,304.4,299.5z"/>
	<path fill="#C76E2E" d="M316.1,275.1c0,0,1.3,4.2,3,3.8c0.7,2.1,2.9,1.6,4,2.4l3.6-0.6v0c0.5-1.7,0.7-3.5,0.4-5.5
		c-0.1-0.7-0.2-1.4-0.4-2.1h-0.2h-6.2L316.1,275.1z"/>
	<path fill="#B97700" d="M350.7,182.2c-16,1-8,21,2.4,11c-12-3.9,2.8-11.7,5.3,0c3.9,0.6,4.4,3.5,12.8,2.3
		c19.2,31.2,6.8,80.6-44.6,132.5l1-0.1C420.5,242.1,379.2,179.8,350.7,182.2z"/>
	<polygon fill="#B97700" points="353.1,193.2 353.1,193.2 353.1,193.2 	"/>
	<path fill="#C76E2E" d="M339.1,290.3c1.1,1.4,4.5,4,4.5,4c2,0.4,4.1,0,5.4-1l5.3-8.6c-0.2,0-3,2-3,2l-4.2,1.7l-4.4,0.1l-1-3l3.4-3
		c-2.8-0.5-5.7,0.7-8,2.8C337.1,285.3,337.1,288.6,339.1,290.3z"/>
	<path fill="#C76E2E" d="M337.5,296.7c0,0-4.8,5.7-4.9,7.6c-0.8,1.7-3,8.3-2,9.2c-0.1,0.2-0.5,2.9,0.5,1.3
		c1.4,0.4,11.3-12.7,11.3-12.7C341.5,299.7,339.8,297.8,337.5,296.7z"/>
	<path fill="#006800" d="M264.2,317.3l1.1,0.1c0-0.3,0.1-0.5,0.2-0.7c-14.7-12.4-34.4-19-61.8-9.5c6,2.5,12.3,3.8,18.1,6
		C240.1,307,250.2,309.4,264.2,317.3z"/>
	<path fill="#006800" d="M265.2,317.9c-0.4-0.2-0.7-0.4-1-0.6c-13.9-7.8-24.1-10.3-42.4-4.2c-5.4,1.8-11.4,4.3-18.5,7.6
		c3.9,0,7.8-1.2,11.6,0c9.2,3,18.2,6.9,27.7,8c3.4,0.3,14.3-7.2,22.9-9.4C265.3,318.9,265.2,318.4,265.2,317.9
		C265.2,317.9,265.2,317.9,265.2,317.9z"/>
	<path fill="#006800" d="M255.4,300.3c2.1-13.5,2.7-22.4-3.6-30.4c-5.3-6-6.6-9.7-10.4-18.3C240.3,269.4,236.4,284.1,255.4,300.3z"
		/>
	<path fill="#006800" d="M230.4,274.8c-7.1-14.7-8.7-19.7-33.1-25.9c0.9-0.8-4.6-4.1-4.6-4.3C196.9,260.5,215.5,273.8,230.4,274.8z"
		/>
	<path fill="#006800" d="M196.3,280.9c0,0,9.4-0.6,13.4,4c7.8,8.2,15,12.7,19.8,13c4.6-0.3,14.4-1.7,15.7-1.9
		C232.9,280.7,216.9,276.5,196.3,280.9z"/>
	<path fill="#006800" d="M245.4,296c0,0-0.1,0-0.2,0c0,0,0,0.1,0.1,0.1L245.4,296z"/>
	<path fill="#006800" d="M232.8,236.3c0,2.2-1.7,4-3.9,4c-1.5,8,1.8,16.5,3.1,22.7c5.6-8.2,8.9-15.4,10.5-23
		c1.6-7.3,1.6-15.1,0.7-24.5c-0.3,1.5-4,11-4.2,11c-3.4,2.1-5.8,4.5-7.4,7C232.3,234.3,232.7,235.2,232.8,236.3L232.8,236.3z"/>
	<path fill="#006800" d="M227.1,228c0.4,0.9,0.7,1.9,1.1,2.8c0.1-0.5,0.1-1.1,0.2-1.6c-0.1,0.5-0.1,1.1-0.2,1.6
		c0.2,0.5,0.4,1,0.6,1.5c0.5,0,0.9,0.1,1.3,0.3c0.5-5.5,0.9-10.6,1-15.6c-2.4,0-4.3-1.9-4.3-4.3c0-2.2,1.7-4.1,3.9-4.3
		c-0.8-8-3.2-15.6-8.5-23.4c-1.1,5.3-4.7,13.1-5.4,20.9c0,0.1,0.1,0.1,0.1,0.1C226.6,212.1,228,220.3,227.1,228z"/>
	<path fill="#006800" d="M234.4,208.3c1.7-9.1,6.9-16.4,16.4-24.5c0.5-6.2,0-12.3,2-17.8c-18,13.4-20.8,27.6-21.3,42.4
		c0.6,0.1,1.2,0.2,1.8,0.5C233.6,208.8,234,208.5,234.4,208.3z"/>
	<path fill="#006800" d="M224.5,240c0.2-0.7,0.4-1.4,0.5-2.1c-0.2-0.5-0.3-1-0.3-1.6c0-1.2,0.6-2.4,1.5-3.1c0.4-1.7,0.7-3.4,0.9-5.2
		c0.9-7.7-0.5-15.9-10.2-22c0,0-0.1-0.1-0.1-0.1c-0.7-1.1-3.9-9.5-4.2-10.9c-1.6,18.2,0.1,30.1,9.7,45c0.5,0.8,1.1,1.7,1.6,2.5
		C224.1,241.7,224.3,240.9,224.5,240z"/>
	<path fill="#006800" d="M227.9,256.5c0-0.4-0.1-0.8-0.1-1.2c-2.8-5.9-4.9-10.9-8-15.3c-4.2-6-10.1-11-22.1-16.4
		c0.9-0.8-4.6-4-4.6-4.2c1.8,6.7,5.7,14.1,10.7,20.6C210.5,248.7,219.3,255.7,227.9,256.5z"/>
	<path fill="#006800" d="M234.4,208.3c-0.1,0.4-0.2,0.9-0.2,1.4c0.8,0.8,1.2,1.8,1.2,3c0,0.3,0,0.5-0.1,0.8
		c25.8-12.1,17.8-24.8,25.9-38c-3.9,2.9-7.4,5.7-10.5,8.3C241.3,191.9,236,199.2,234.4,208.3z"/>
	<path fill="#FFE100" d="M231.1,267c-2.8-8-4.1-16.9-3.8-26.9c0,0,0,0,0,0c-0.3,5.4-0.1,10.5,0.4,15.2c0,0.4,0.1,0.8,0.1,1.2
		c0.5,4,1.3,7.8,2.3,11.3C230.4,267.5,230.7,267.2,231.1,267z"/>
	<path fill="#FFE100" d="M265.7,310.5c-0.4,0.2-0.9,0.3-1.4,0.3c-2,0-3.6-1.6-3.6-3.6c0-0.2,0-0.4,0.1-0.6
		c-11.5-9.5-21.1-20.2-27-33c-0.2,0.1-0.5,0.1-0.7,0.1c-0.3,0-0.6-0.1-0.9-0.1c6.8,17.7,19.8,30.3,34.9,41.4
		c0.5-0.3,1.2-0.5,1.9-0.5c2,0,3.6,1.6,3.6,3.6c0,0.3,0,0.5-0.1,0.8c3.7,2.6,7.5,5.1,11.4,7.6l5.7,0.4
		C281.1,321.5,273.1,316.2,265.7,310.5z"/>
	<path fill="#FFE100" d="M228,232.4c0.1-0.5,0.1-1,0.2-1.6c0.1-0.5,0.1-1.1,0.2-1.6c-0.1,0.5-0.1,1.1-0.2,1.6
		C228.1,231.3,228,231.9,228,232.4C228,232.4,228,232.4,228,232.4z"/>
	<path fill="#FFE100" d="M316.9,345.3c-1.4,0.2-3.1,0.3-4.9,0.3c1,0.8,2,1.5,3,2.3c1.3,1,2.6,2.1,3.8,3.1
		c5.5,4.7,10.5,9.7,14.8,15.3l0,0l13.4,0.2c-7.1-6.7-15.2-12.7-23.8-18.5c-1.2-0.8-2.4-1.6-3.7-2.4
		C318.6,345.6,317.7,345.5,316.9,345.3z"/>
	<path fill="#9D4916" d="M228.7,232.3c-0.2,0-0.5,0-0.7,0.1c0,0,0,0,0,0c-0.7,0.1-1.3,0.4-1.8,0.8c-0.9,0.7-1.5,1.8-1.5,3.1
		c0,0.6,0.1,1.1,0.3,1.6c0.4,0.9,1.2,1.7,2.1,2.1c0.1,0,0.1,0,0.2,0.1c0,0,0,0,0,0c0.4,0.2,0.9,0.3,1.4,0.3c0,0,0.1,0,0.1,0
		c2.2-0.1,3.9-1.8,3.9-4h-0.1c0-1.1-0.4-2-1.1-2.8c-0.4-0.4-0.9-0.8-1.5-1C229.7,232.4,229.2,232.3,228.7,232.3
		C228.7,232.3,228.7,232.3,228.7,232.3z"/>
	<path fill="#9D4916" d="M226.8,212.7c0,2.4,1.9,4.3,4.3,4.3c0,0,0,0,0,0c2.1,0,3.8-1.5,4.2-3.5c0-0.3,0.1-0.5,0.1-0.8
		c0-1.2-0.5-2.2-1.2-3c-0.3-0.3-0.6-0.5-0.9-0.7c-0.5-0.3-1.1-0.5-1.8-0.5c-0.1,0-0.2,0-0.3,0c-0.1,0-0.2,0-0.4,0
		C228.5,208.6,226.8,210.5,226.8,212.7z"/>
	<path fill="#9D4916" d="M233.7,273.5c1.6-0.3,2.9-1.8,2.9-3.5c0-2-1.6-3.6-3.6-3.6c-0.7,0-1.4,0.2-1.9,0.6
		c-0.4,0.2-0.7,0.5-0.9,0.8c-0.5,0.6-0.8,1.4-0.8,2.2c0,0,0,0,0,0c0,1.7,1.1,3.1,2.7,3.5c0.3,0.1,0.6,0.1,0.9,0.1
		C233.3,273.6,233.5,273.6,233.7,273.5z"/>
	<path fill="#9D4916" d="M264.3,310.8c0.5,0,1-0.1,1.4-0.3c1.3-0.5,2.2-1.8,2.2-3.3c0-2-1.6-3.6-3.6-3.6c-1.8,0-3.2,1.3-3.5,3
		c0,0.2-0.1,0.4-0.1,0.6C260.7,309.2,262.3,310.8,264.3,310.8z"/>
	<path fill="#9D4916" d="M268.8,314.3c-0.7,0-1.3,0.2-1.9,0.5c-0.7,0.4-1.2,1-1.5,1.8c-0.1,0.2-0.2,0.5-0.2,0.7
		c0,0.2-0.1,0.3-0.1,0.5c0,0,0,0,0,0c0,0.5,0.1,1,0.3,1.4c0.6,1.3,1.8,2.2,3.3,2.2c1.7,0,3.1-1.2,3.5-2.8c0.1-0.3,0.1-0.5,0.1-0.8
		C272.4,315.9,270.8,314.3,268.8,314.3z"/>
	<path fill="#FFFFFF" d="M270.4,345.4c1,0.9,1.9,1.7,3.2,2.1c3.1,2,10.1,0.7,14.4,1.5l0.2,0c-2-1.5-3.7-3.5-4.8-5.7
		C278.4,343.2,273.8,343.8,270.4,345.4z"/>
	<path fill="#FFFFFF" d="M270.4,345.4c-0.3-0.3-0.6-0.6-0.9-0.9c0.3,0.4,0.5,0.7,0.6,1.1C270.2,345.5,270.3,345.5,270.4,345.4z"/>
	<path fill="#FFFFFF" d="M269.5,344.5c0,0-0.1-0.1-0.1-0.1l0,0C269.4,344.4,269.4,344.5,269.5,344.5z"/>
	<path fill="#FFFFFF" d="M248.8,331.7c-2.4-1.7-24.3-2-35.6,2.2c-1.6,7.7,3.6,10.9,6.5,15.5c8.6,1.7,16.1-4.4,24.1-0.9
		c1.7-3.3,3.8-5.7,5.5-8.9C249,336.8,250.6,335.2,248.8,331.7z"/>
	<path fill="#FFFFFF" d="M209.8,344.1c-4-5.3-16.3-3-24.5-4.5v0l8.3,6l-9.4,8.3l13.2-3.8l8.6,0.8l1.7-0.2
		C210.1,348.3,211.5,346,209.8,344.1z"/>
	<path fill="#FFFFFF" d="M207.7,350.7c-4.4,4.3-12,9-10.2,12c6.2,6.5,12.5,3.8,19.4,0.2c1.7-3.5,3-9.8,3.8-11.7
		c-0.3-0.6-0.6-1.2-1-1.8c0,0-0.1,0-0.1,0L207.7,350.7z"/>
	<path fill="#FFFFFF" d="M316.9,345.3c-0.3-0.1-0.6-0.1-0.9-0.2c-2.8-0.1-6.7-0.3-10.7-0.6l5.1-15.8c1.6,0.1,2.7,0.1,4.3,0.3
		c0.6-0.2,1.2-0.3,1.9-0.3l0.6,0l-3-0.2l-1.1-0.1l-0.2,0l-1.3-0.1l-3.7-0.3l-1-0.1l-4.6-0.3l-13-0.9l-5.7-0.4l-4.3-0.3
		c-2.3,1.6-17.1,0-19.3,10.2c0.3,1.6,1,2.7,2,3.5c1.1,0.5,2.7,1.3,4.1,2.2c0.8,0.4,1.5,0.7,2,1.2c0.3,0.3,0.6,0.6,0.8,0.9
		c0.1,0.1,0.3,0.3,0.4,0.4c0,0,0.1,0.1,0.1,0.1c0.3,0.3,0.6,0.6,0.9,0.9c3.4-1.7,8-2.2,13-2.2c9.5,0.1,20.7,2.3,28.6,2.4
		C313.9,345.7,315.5,345.6,316.9,345.3z"/>
	<path fill="#FFFFFF" d="M273.6,347.5c-1.2-0.4-2.2-1.1-3.2-2.1c-0.1,0.1-0.2,0.1-0.3,0.2c-0.1-0.3-0.3-0.7-0.6-1.1
		c0,0-0.1-0.1-0.1-0.1c-0.1-0.1-0.3-0.3-0.4-0.4c-0.7-0.7-1.7-1.4-2.8-2.1c-1.3-0.6-2.8-1.2-4.1-2.2c-1-0.5-1.7-0.8-1.9-0.8
		c-3.7,1-10.9,0.7-10.9,0.7c0,0,0,0,0,0c0,0.1,0,0.1,0,0.2c-1.9,3.7-6.7,9.8-6.7,13.1c12,4.2,15-0.6,25.8-0.4
		c12.6,0.2,20.2,3.6,23-1.4c-0.5-1.2-1.8-1.8-3.4-2.1C283.7,348.2,276.7,349.5,273.6,347.5z"/>
	<path fill="#FFFFFF" d="M180.2,352.3c-2,0-3.7,1.6-3.7,3.7c0,0,0,0,0,0c0,2,1.6,3.6,3.6,3.6c2,0,3.6-1.6,3.6-3.6h0.1
		C183.8,354,182.2,352.3,180.2,352.3z"/>
	<path fill="#FFFFFF" d="M181.1,341.6c2,0,3.6-1.6,3.6-3.6c0-2-1.6-3.6-3.6-3.6c-2,0-3.6,1.6-3.6,3.6c0,0,0,0,0,0
		C177.5,340,179.1,341.6,181.1,341.6z"/>
	<path fill="#FFFFFF" d="M364.6,345c-0.2,0.2-0.3,0.3-0.5,0.5c0.1,0,0.1,0.1,0.2,0.1C364.4,345.4,364.5,345.2,364.6,345z"/>
	<path fill="#FFFFFF" d="M360.9,347.6c1.2-0.4,2.2-1.2,3.2-2.1c-3.4-1.7-8-2.3-13.1-2.2c-0.9,2.3-2.4,3.7-4.7,5.8
		C350.6,348.2,357.7,349.6,360.9,347.6z"/>
	<path fill="#FFFFFF" d="M365.1,344.4c-0.2,0.2-0.4,0.4-0.5,0.6c0.2-0.2,0.3-0.3,0.5-0.5L365.1,344.4z"/>
	<path fill="#FFFFFF" d="M414.7,349.4c3-4.6,8.1-7.7,6.6-15.4c-11.4-4.3-33.3-4-35.6-2.3c-1.8,3.6-0.3,5.2-0.6,7.9
		c1.8,3.3,3.8,5.7,5.6,9C398.6,345,406.1,351.2,414.7,349.4z"/>
	<path fill="#FFFFFF" d="M365.9,343.6c-0.3,0.3-0.6,0.6-0.8,0.9c-0.2,0.2-0.3,0.4-0.5,0.5c-0.1,0.2-0.2,0.4-0.3,0.6
		c-0.1,0-0.1-0.1-0.2-0.1c-1,0.9-1.9,1.7-3.2,2.1c-3.2,2-10.3,0.6-14.6,1.5c-1.5,0.3-2.7,0.9-3.2,2c2.7,5,10.4,1.7,23,1.5
		c10.7-0.3,13.8,4.6,25.8,0.3c0-3.2-4.8-9.4-6.8-13c0-0.1,0-0.2,0-0.3c0,0,0,0,0,0c0,0-7.2,0.4-10.8-0.7c-0.2,0.1-0.9,0.4-1.9,0.8
		c-1.1,0.9-2.5,1.5-3.7,2C367.7,342.3,366.7,343,365.9,343.6z"/>
	<path fill="#FFFFFF" d="M449.1,339.7l0-0.1c-8.1,1.5-20.4-0.7-24.4,4.5c-1.7,1.9-0.4,4.2,2,6.6l1.7,0.2l8.7-0.7l5.2,1.4
		c0.9-1.1,1.8-2.2,2.3-2.7l-3.7-3.2L449.1,339.7z"/>
	<path fill="#FFFFFF" d="M417.5,363c6.9,3.6,13.2,6.3,19.4-0.3c1.8-3-5.9-7.6-10.2-12l-11.8-1.3c-0.1,0-0.1,0-0.2,0
		c-0.4,0.6-0.7,1.2-1,1.9C414.6,353.2,415.9,359.5,417.5,363z"/>
	<path fill="#FFFFFF" d="M326.6,328l-4.2,0.3l-1.1,0.1l-4.1,0.3l-0.6,0c-0.7,0-1.3,0.1-1.9,0.3c0.6,0.1,1.4,0.2,2.3,0.3
		c-0.1,0.1-1.2,14.9,3.6,15.9c0,0-1.8,0-4.6-0.1c0.3,0.1,0.6,0.2,0.9,0.2c0.8,0.2,1.7,0.3,2.6,0.3c2.2,0.1,4.7,0,7.4-0.2
		c7.3-0.6,16.2-2.1,24-2.2c5.1-0.1,9.7,0.5,13.1,2.2c0.2-0.2,0.3-0.3,0.5-0.5c0.1-0.2,0.3-0.4,0.5-0.6c0.2-0.3,0.5-0.5,0.8-0.8
		c0.1-0.2,0.3-0.3,0.5-0.5c0.5-0.6,1.4-1,2.3-1.4c1.3-0.8,2.7-1.5,3.7-2c1-0.8,1.7-1.8,2-3.4c-2.2-10.2-17-8.7-19.4-10.2l-1.2,0.1
		l-5.5,0.4l-17.2,1.2l-3.6,0.2L326.6,328z"/>
	<path fill="#FFFFFF" d="M453.4,334.3c-2,0-3.7,1.6-3.7,3.7c0,0.7,0.2,1.3,0.5,1.9c0.6-0.7,1.1-1.3,1.6-1.8c1.1-1.1,2.7-1.9,4.4-2.3
		C455.5,334.9,454.5,334.3,453.4,334.3z"/>
	<path fill="#FFFFFF" d="M310.4,328.7l-5.1,15.8c4,0.4,7.9,0.5,10.7,0.6c2.8,0.1,4.6,0.1,4.6,0.1c-4.8-1-3.7-15.8-3.6-15.9
		c-0.9-0.2-1.6-0.3-2.3-0.3C313.1,328.8,312,328.8,310.4,328.7z"/>
</g>
</svg>
