<?xml version="1.0" encoding="utf-8"?>
<!-- Generator: Adobe Illustrator 17.1.0, SVG Export Plug-In . SVG Version: 6.00 Build 0)  -->
<!DOCTYPE svg PUBLIC "-//W3C//DTD SVG 1.1//EN" "http://www.w3.org/Graphics/SVG/1.1/DTD/svg11.dtd">
<svg version="1.1" id="flag-icon-css-sr" xmlns="http://www.w3.org/2000/svg" xmlns:xlink="http://www.w3.org/1999/xlink" x="0px"
	 y="0px" viewBox="0 0 640 480" enable-background="new 0 0 640 480" xml:space="preserve">
<g>
	<path fill="#377E3F" d="M209.1,385.7c2.2,0.7,2.6,1.5,1.9,3.6c-0.5,1.4-0.4,1.7,0.5,3.2c0.6,0.9,1.8,2,2.6,2.5s1.5,1.2,1.5,1.7
		c0,1.3,1.2,3.2,3.2,5.2c1.4,1.4,1.9,2.2,1.9,3.3c0,1.2,0.3,1.7,1.4,2.3c0.7,0.5,1.6,1.4,1.9,2.2c0.5,1.3,0.5,1.4-1.2,2.7l-1.8,1.4
		l3.3,1.5c2.2,1.1,3.5,2,4,2.8c0.7,1.3,0.6,1.5-0.4,3.5l-1.1,2.2l2.2,1.3c1.2,0.7,3.2,2.2,4.5,3.4l2.3,2.1l-0.2,2.8
		c-0.2,3.4,0.7,5.3,5.4,10.5c1.8,1.9,4.5,5.3,6.1,7.5l2.9,4l7.2,0.2l7.2,0.2l1.9,2c1.9,2,4.9,3.7,6.7,3.7c0.8,0,1.1,0.4,1.5,2.1
		c0.5,2,0.6,2.1,2.9,2.8c4.2,1.2,6.1,1.4,9,0.6c2.6-0.7,2.9-0.7,4.8,0.2c1.1,0.5,3.1,1.7,4.3,2.6c2.9,2.1,6,2.5,10.4,1.4l3-0.8
		l3.1,2c3.5,2.2,11.7,4.7,15.3,4.7c1.2,0,3.5-0.4,5.1-0.8c2.4-0.7,3.3-1.3,5.3-3.2c2.8-2.8,3.4-4.7,2.3-7.3c-0.9-2.1-0.9-4.1,0-8.3
		c0.4-1.9,0.6-3.9,0.5-4.5c-0.1-0.6-2.4-3.2-4.9-5.9c-2.6-2.6-4.7-5.1-4.7-5.5c0-0.9-0.4-1.2-3.5-2.5c-2.3-0.9-2.3-1-2.7-3.4
		c-0.2-2.1-0.6-2.7-1.9-3.8c-1.5-1.3-5.3-2.8-6.9-2.8c-2.5,0-3.2-2.1-1.3-3.6c0.6-0.5,1.4-1.6,1.7-2.5c0.3-0.9,1.1-2.7,1.7-3.9
		l1.1-2.2l1.6,1c1.9,1.2,1.8,1.2,6-2.5c2.8-2.5,3.1-3,2.8-4.1c-0.1-0.7-0.1-3.5,0-6.2c0.3-4.3,0.5-5.1,1.5-6.3
		c0.8-1,1.6-1.4,2.6-1.4c2.3,0,6.2,2.1,8.7,4.6c2.3,2.3,2.5,2.4,6.9,3.3c6.4,1.3,6.9,1.5,7.2,3.6c0.3,1.5,0.6,1.9,2.3,2.8
		c1.9,1,2.1,1,4.1,0.3c1.2-0.4,3.4-0.9,4.9-1c1.7-0.2,3.6-0.7,5-1.5c2.1-1.1,2.4-1.2,4.9-0.8c2,0.4,4.2,0.3,8.6-0.3l5.9-0.7l3.2,1.1
		l3.2,1.1l1.5-1.6c1.1-1.1,1.7-2.3,2.1-4.2l0.5-2.6l3-1.2c2.1-0.8,3.5-1,4.8-0.8c6.7,0.9,5.9,1.1,8.3-1.6c1.2-1.4,2.2-2.6,2.2-2.7
		c0-0.6,3.4-1.4,5.3-1.4c1.5,0,1.8,0.2,2.5,1.6c1.2,2.4,2.6,2.6,4.7,0.6c3-2.8,7.5-5.5,9.5-5.5c1.3,0,2.3-0.4,3.9-1.6
		c1.2-0.9,2.2-1.6,2.4-1.6c0.7,0,0,2.5-1.4,4.5c-0.9,1.4-1.6,2.7-1.6,3.2c0,0.4,1.1,1.4,2.5,2.3c1.7,1.2,2.8,2.3,3.5,3.8
		c0.6,1.2,1.7,2.9,2.5,3.9c1.3,1.6,1.7,1.8,5.5,2.6l4.1,0.8l2.5-2.2l2.5-2.1l3.3,0.3c1.8,0.1,4,0.4,4.9,0.6l1.6,0.2l-0.5,2.2
		c-0.3,1.5-0.3,2.6,0,3.3c0.4,0.9,0.3,1.3-0.8,2.2c-1.5,1.3-1.6,2.5-0.4,4.3c0.5,0.7,1.1,1.8,1.4,2.4c0.3,0.8,0.9,1.3,1.9,1.5
		c3.1,0.6,4.5,0.3,7.5-1.6l2.9-1.9l2.9,1l2.9,1.1l1.7-1.3c1.5-1.2,2.1-2.2,3.8-7.2c0.1-0.3,1.1-0.6,2.7-0.6h2.5l4-4.3
		c3.4-3.7,4.1-4.8,4.8-7.1c0.4-1.5,1.6-4,2.6-5.5c1-1.6,2.1-4,2.4-5.5c0.3-1.6,0.8-2.6,1.8-3.9H207.2
		C207.2,385,207.5,385.3,209.1,385.7z"/>
	<path fill="#377E3F" d="M184.1,95.4c-1,0-1.9,0.2-2.6,0.6h4.8C185.7,95.5,185.2,95.4,184.1,95.4z"/>
	<path fill="#377E3F" d="M554.5,24.4c-0.4-0.8-1.4-2.2-2.4-3.2c-1.4-1.5-2-1.7-3.8-1.7c-3.1,0-5.1-0.7-9.6-3.3
		c-3.7-2.1-4.2-2.3-6.2-2c-1.5,0.2-4-0.1-8.2-1c-3.3-0.7-7.4-1.4-9.1-1.7c-1.7-0.2-4.3-0.6-5.8-0.8c-1.5-0.2-4.9-0.5-7.5-0.5
		c-6.8,0-11.6-1-16-3.3c-3-1.5-4.2-1.9-6.3-1.9c-1.6,0-3.6-0.4-5.5-1.1c-2.7-1-4-1.2-16-1.6c-9.9-0.4-14.1-0.7-17.4-1.4
		c-5-1.1-4.9-1.1-6.8-0.2c-0.7,0.4-2.1,0.7-2.9,0.7c-0.8,0-2.6,0.5-3.8,1.2c-3.1,1.6-3.1,2.5,0.5,6.4c2.7,2.9,2.9,3.1,4.8,3.1
		c1.1,0,3.2,0.5,4.8,1c1.9,0.7,4.3,1.1,7.9,1.2c2.8,0.1,5.8,0.6,6.7,0.9l1.5,0.7l-1,1.5c-0.6,0.8-1.1,1.5-1.1,1.6
		c0,0-1.7-0.7-3.7-1.6c-3.5-1.7-3.6-1.7-5.1-0.9c-1.4,0.7-1.6,0.7-4-0.2c-3.6-1.4-4.2-1.3-6.3,1.4c-0.9,1.3-2,2.3-2.2,2.3
		c-0.9,0-1.1-1.5-0.4-2.8c0.7-1.2,0.7-1.3-0.5-2.4c-2.7-2.5-6.8-3.4-10.7-2.5c-2.2,0.6-2.3,0.6-4.8-1.1C411,9.3,402,6,396.2,4.7
		c-2.5-0.6-5.5-0.7-12.4-0.7c-5,0-10.7-0.1-12.7-0.4c-4.1-0.5-8.9,0-14.9,1.5c-2,0.5-5.7,1.1-8.2,1.4L343.3,7l-1.8,2.1
		c-1.5,1.8-3.8,6.4-3.8,7.5c0,0.2,0.6,0.6,1.3,0.8c1.2,0.4,1.3,0.6,1.1,2.6c-0.1,1.5-0.5,2.4-1.4,3.3l-1.3,1.2l-4.8-0.6
		c-4.1-0.5-4.8-0.7-5.5-1.6c-0.7-1-1.1-1.1-4.1-1.1c-3,0-3.6-0.1-5.2-1.3c-2.4-1.7-2.8-1.9-7.9-2.6c-3.2-0.5-5.1-1.1-7.5-2.4
		c-3.3-1.7-9.1-3-13.3-3c-1.2,0-2.3-0.4-3.3-1.1c-1.8-1.3-3.4-1.9-9.1-3.1c-8.2-1.8-9.6-1.9-13.7-0.9l-3.7,0.9l-3.5-1.6
		c-5-2.2-5.3-2.3-10.5-2.1c-4,0.1-5.2-0.1-8.1-1.1c-1.9-0.7-4.3-1.2-5.3-1.2c-1.1,0-4-0.3-6.6-0.7c-2.7-0.4-5.7-0.6-7.1-0.4
		c-2.4,0.3-2.5,0.4-3.6,2.6l-1.1,2.3h-2.6c-2.3,0-2.6,0.1-3.7,1.5c-0.7,0.9-1.2,2.2-1.2,3s-1.4,4.8-3.2,8.8
		c-3.6,8.3-3.8,8.9-4.2,15.1c-0.7,8.3-2.3,15.9-4.3,19.3c-0.9,1.6-1.5,2-4,2.8c-2.8,0.9-2.9,1-4.1,3.6c-0.6,1.4-1.4,4.4-1.7,6.6
		c-0.6,4.4-1.2,5.4-5.4,9.5c-1.6,1.6-2.9,3.1-2.9,3.3c0,0.2,0.3,0.8,0.7,1.3c0.6,0.8,0.9,0.8,2.8,0.4l2.1-0.5v4.1
		c0,3.1,0.2,4.5,0.8,5.5c0.5,0.7,0.9,1.4,1.1,1.4c0.3,0,1.5-2.4,1.5-2.8c0-0.1-0.2-0.8-0.4-1.4c-0.3-1.1-0.1-1.3,0.9-1.4
		s1.6,0.2,3.6,2.4c3.4,3.7,4.3,5.9,3,8.1h326.2c0.4-0.6,0.7-1.2,1-1.7c0.9-1.8,2.5-4.7,3.5-6.5c1.9-3.2,2-3.3,6.2-5.2
		c5.5-2.6,7.5-4.8,13.7-15.1c0.7-1.1,3.6-4.2,6.6-7l5.5-5.1l0.2-2.9c0.2-2.1,0-3.5-0.6-5.1c-1.4-3.7-1.2-6.5,1-10.7
		c1.4-2.8,3.7-8.2,3.7-9c0,0-0.8-0.5-1.9-0.9C556,26.2,554.9,25.3,554.5,24.4z"/>
	<path fill="#FFFFFF" d="M189.4,345.4c-0.4,2.2-0.3,3.3,0.1,4.9c0.6,1.9,0.8,2.1,2.2,2.3c1.3,0.2,1.6,0.5,1.9,1.5
		c0.3,1.3,0.2,1.4-1.7,2.2l-2.1,0.9l0.7,1.6c0.4,0.9,0.7,2.5,0.7,3.7c0,2,0,2.1,2.6,3.5c1.4,0.8,3.2,1.4,4,1.4c1.1,0,1.4,0.2,1.4,1
		c0,2.1,0.6,3,2.1,3.8c1.2,0.6,1.6,1.1,1.6,1.9c0,0.7,0.7,1.9,1.4,2.8c1.5,1.7,2.8,4.8,2.8,6.8c0,0,0,0.1,0,0.1h315.9
		c0.3-0.5,0.8-0.9,1.3-1.5c1.4-1.5,4.2-5.4,6.4-8.5c3.5-5.1,4-6.1,4-7.8c0-1.7,0.3-2.3,1.7-3.7c1.6-1.7,1.7-1.7,0.7-2.2
		c-1.5-0.8-1.4-4.7,0.3-7.5c1.1-1.7,2.4-4.8,2.4-5.5c0-0.1-0.7-0.9-1.5-1.8c-1.3-1.5-1.5-2.1-1.7-5c-0.1-2.7,0-3.5,0.6-4
		c0.1-0.1,0.2-0.2,0.3-0.4H187.1C189.9,338.7,190.3,340.4,189.4,345.4z"/>
	<path fill="#FFFFFF" d="M190.7,97.7l-2.1,2l-1.3-2.1c-0.5-0.7-0.8-1.2-1.1-1.5h-4.8c-1.1,0.6-1.8,1.7-1.8,3.1c0,1-0.5,3-1.2,4.6
		c-1.5,3.7-1.4,4.3,0.2,5.9c0.8,0.7,1.4,1.7,1.4,2.2c0,0.7-0.2,0.8-1.8,0.6c-1.4-0.2-2.2,0-3.9,0.9c-1.1,0.7-2.5,1.2-3.1,1.2
		c-0.6,0-1.6,0.3-2.3,0.7c-1.7,0.9-10.9,0.9-13.1,0c-2.4-1-4.9-0.8-7.9,0.7l-2.7,1.4l-1.8-1.4c-1.5-1.2-2.2-1.4-4.6-1.4
		c-2.7,0-3,0.1-6,2.4c-2.3,1.7-3.4,2.9-4.1,4.4c-0.7,1.7-1.2,2.1-2.6,2.4c-0.9,0.1-3.1,0.2-4.9,0.1l-3.2-0.2l-2.7,3.5
		c-1.5,2-3.6,4.4-4.8,5.5l-2.1,1.9l0.6,3c0.6,2.9,0.7,3,2.3,3.4c1.7,0.4,1.7,0.4,1.9,3.1h389.2l-0.3-5.8c-0.1-3.4-0.5-7.3-0.8-8.7
		L501,127l1.6-1.4c1.9-1.7,2.7-4.3,2.7-8.7c0-4,1.5-6.8,5.3-9.8c2.9-2.3,3.5-3.3,3.5-5.4c0-0.5,0.7-1.7,1.7-2.6
		c0.6-0.6,1.5-1.8,2.3-3.1H192.1C191.8,96.5,191.3,97.1,190.7,97.7z"/>
	<path fill="#B40A2D" d="M113.5,144.2c0.2,2.5,0.4,3.1,1.9,4.7c1.6,1.6,1.7,2.1,2,5.3c0.4,5.2-0.5,8.1-5.3,17.7
		c-2.3,4.6-4.2,8.5-4.2,8.8c0,0.2-0.6,0.9-1.4,1.4c-1.6,1.2-1.8,2.6-0.7,6.6c0.4,1.4,0.7,3.6,0.7,4.9v2.3l-4.9,3.7
		c-3.3,2.5-5.5,4.6-6.8,6.4c-1.6,2.4-1.8,2.9-1.8,5.6c0,1.6,0.3,4,0.7,5.2c0.4,1.3,0.7,3.8,0.7,5.6c0,5.1,1,8.2,3.1,9.8
		c1,0.7,2.6,2.3,3.6,3.4c1,1.1,3,3.3,4.5,4.9c1.7,1.9,3,4,3.9,6.1c0.7,1.8,2.5,4.7,4,6.5c2.6,3.2,2.6,3.3,2.8,7.1
		c0.2,3.5,0.4,4.1,2.1,6.5c1.6,2.3,2.5,3,6.5,5.2c4.8,2.6,6,3.6,8,7.2c0.9,1.6,1.9,2.6,3.8,3.6c2.5,1.4,2.7,1.6,3.7,4.6l1.1,3.2
		l-1.2,4.7c-0.7,2.6-1.2,4.9-1.2,5.2c0,1,3.4,2.8,6.1,3.4c1.4,0.2,3.1,0.7,3.7,0.9c0.7,0.3,1.8,0.2,3-0.1c1.7-0.5,2.1-0.4,5.2,1
		c1.9,0.8,3.7,1.5,4,1.5c1.2,0,4.8-3.2,5.3-4.8c0.5-1.4,0.7-1.5,2-1.4c0.8,0,2.3,0.5,3.3,1c2.7,1.4,4,1.2,5.3-0.7
		c1.3-1.9,1.4-1.8,3,1.4c1.2,2.5,1.7,6.7,1,9c-0.4,1.5-0.4,2.2,0.3,4.3c0.7,2.3,0.7,2.5,0,4.5s-0.7,2.3,0,5.3
		c0.8,3.4,1.1,3.6,3.2,2.8c0.9-0.4,1.4-0.3,1.9,0.4c0.7,0.8,0.7,0.9-0.4,1.2c-1,0.2-1.2,0.6-1.2,2.1c0,1.5,0.3,2.1,1.8,3.4
		c0.2,0.1,0.3,0.3,0.5,0.4h350.5c0.3-0.5,0.4-1.4,0.4-2.7c0-2.4,0-2.6-1.4-2.8c-0.8-0.2-1.8-0.7-2.2-1.2c-0.7-0.8-0.7-1.1,0.8-4.6
		c1.1-2.7,2-4,2.8-4.4c1.4-0.8,3.6-3.4,5-6.1c0.5-1,2-2.9,3.3-4.2c2.3-2.2,2.4-2.3,2.4-5.1c0-2.6,0.1-2.8,1.8-4.3
		c1-0.9,2.7-3.2,4-5.5c2-3.6,2.1-4.2,2.1-7.2c0-3.4,1-9.6,1.9-11.7c0.4-1.1,0.3-1.6-1.3-3.9c-1.3-1.9-2-2.6-2.5-2.4
		c-3.3,1.3-4.6,0.3-6.3-4.9c-0.7-1.9-2.2-5.1-3.5-7c-2.2-3.4-2.5-3.6-6-5.2l-3.6-1.6l-0.6-2.6c-0.4-2.2-0.8-2.7-2.4-3.9
		c-1-0.7-2.3-2.1-2.7-2.9c-0.5-0.9-1.9-2.7-3.2-4c-1.7-1.7-2.4-2.7-2.6-4.1c-0.3-1.9-2.7-5.1-5.1-6.9c-3.4-2.5-3.3-2.1-2.1-3.8
		c0.6-0.8,1.4-2.7,1.7-4.1s1.1-3.4,1.6-4.3l0.9-1.8l-2-1.6c-1.1-0.9-2.3-1.7-2.7-1.7c-0.4,0-1.5-0.2-2.4-0.5
		c-1.4-0.4-1.8-0.8-2.2-2.3c-0.3-1-0.6-2.8-0.6-4c0-4.5-1.1-11.3-2.4-15.5c-0.9-3-1.5-6.3-2-11.1c-0.6-6.4-0.6-6.9,0.2-8.3
		c0.7-1.3,0.8-2.6,0.8-10.9l0-9.5l-2.4-1.6l-2.4-1.6l0-0.4H113.5C113.5,144.1,113.5,144.1,113.5,144.2z M320,153.2l21.5,66.3h69.8
		l-56.4,41l21.5,66.3l-56.4-41l-56.4,41l21.5-66.3l-56.4-41h69.8L320,153.2z"/>
	<polygon fill="#ECC81D" points="285.1,260.5 263.6,326.8 320,285.8 376.4,326.8 354.9,260.5 411.3,219.5 341.5,219.5 320,153.2 
		298.5,219.5 228.7,219.5 	"/>
</g>
</svg>
