<?xml version="1.0" encoding="utf-8"?>
<!-- Generator: Adobe Illustrator 17.1.0, SVG Export Plug-In . SVG Version: 6.00 Build 0)  -->
<!DOCTYPE svg PUBLIC "-//W3C//DTD SVG 1.1//EN" "http://www.w3.org/Graphics/SVG/1.1/DTD/svg11.dtd">
<svg version="1.1" id="flag-icon-css-ss" xmlns="http://www.w3.org/2000/svg" xmlns:xlink="http://www.w3.org/1999/xlink" x="0px"
	 y="0px" viewBox="0 0 640 480" enable-background="new 0 0 640 480" xml:space="preserve">
<g>
	<polygon fill="none" points="641.1,415.9 640,414.5 640,415.9 	"/>
	<path fill="#078930" d="M640,414.5l-0.3-0.4c-7.1-8.8-6.6-7.9-7.7-15.3l-0.9-6.9l1.4-1.1c0.8-0.6,1.7-1.1,2-1.1
		c0.3,0,0.4-1.3,0.1-3c-0.2-1.6-0.1-3.9,0.3-5.1c0.6-1.9,0.4-2.3-1.3-4.1c-1.4-1.5-3.5-2.4-8.6-4l-6.8-2.1l-4.7,2.6l-4.8,2.6
		l-1.3-1.4c-0.8-0.8-1.5-2.7-1.8-4.3c-0.4-2.9-0.6-3.1-5.6-6.3l-5.1-3.2l-3.6-7.1c-3.3-6.6-3.5-7.4-3.5-11.5c0-3.4-0.1-4.4-1.5-6.8
		H249.4l-81.3,47c0,0.1,0,0.2,0.1,0.2c0.2,0.7,2.9,3.2,6,5.6c5.6,4.3,5.6,4.3,4.1,5.1l-1.6,0.8l1.8,3.9c1.7,3.8,1.8,3.9,5.6,5.1
		c2.8,0.9,4.3,1.8,5.3,3.1c0.7,1.1,1.9,2.6,2.7,3.4c0.8,0.9,1.6,2.9,1.8,4.7c0.3,2.1,0.9,3.7,2.1,4.8c1.5,1.6,2,1.8,6.4,1.8h4.8
		l1.4,3.4c1.4,3.1,1.7,3.5,3.2,3.3c1.4-0.2,1.8,0.2,3.1,2.8c1.5,3.3,1.8,3.4,6.6,2.4c2.5-0.5,2.8-0.4,4.1,1.4l1.4,1.8l6.9-3.4
		c5.9-3,7.4-4,10.1-7.2l3.1-3.8l2.7,2.1c2.8,2.3,3.3,2.3,8.8,1.5c3.4-0.5,3.4-0.5,9.9,3.3c5.8,3.4,6.5,3.7,7.5,2.9
		c8.8-7.4,8.6-7.3,9.8-11.5c1.1-4,1.1-4.1,3.2-4.1c2.1,0,5.5,1.2,12.3,4.2l3.5,1.6l0.4,4.9l0.4,4.9l3.3,2.3c2.1,1.5,3.2,2.6,3,3.3
		c-0.2,0.6,1.6,2.3,5.4,5c5.4,3.9,5.8,4.3,6.9,7.9l1.3,3.8l9.5,2.8c7.4,2.1,9.5,3,10,4c0.3,0.7,0.7,3.8,0.9,6.8l0.4,5.6l4.8-0.4
		c3.9-0.3,4.9-0.6,5.8-1.8c0.6-0.8,1.1-1.3,1.3-1.1c0.2,0.2,1.4,1.7,2.7,3.4c1.4,1.7,2.6,3.4,2.9,3.7c0.3,0.3,1.5-1.5,2.8-3.9
		l2.3-4.5l5.2-2.4c2.9-1.3,6.6-2.6,8.4-2.8c2.9-0.4,3.8-0.2,11.3,3.1l8.1,3.5l4.1-2.5c2.3-1.4,5.2-3.1,6.6-3.8l2.6-1.3l3.4,3.2
		c1.9,1.8,3.5,3.6,3.5,4.1c0,1.8,10.6,7.8,13.9,7.8c0.3,0,0.5-0.9,0.5-2.1c0-2,0.4-2.4,5.8-6.3l5.8-4.1h8.2h8.2l8.6-3.8l8.5-3.8
		l4.5,3.5l4.5,3.6l9.8-0.4l9.7-0.4l23.2-23l23.2-23.1l30.4-0.6c16.7-0.4,35.8-0.9,42.4-1.1l11-0.3V414.5z"/>
	<path fill="#FFFFFF" d="M291,168h245.1c-0.3-4.5-0.5-7.8-0.6-8.6l-0.4-2.8l-5.9-2.8c-6.6-3.1-8.6-5.2-9.3-9.7H249.4L291,168z"/>
	<path fill="#FFFFFF" d="M249.4,336h336.9c-0.3-0.5-0.6-1-1-1.7c-3.6-5.6-8-15.8-8.8-20.1c-0.1-0.8-0.3-1.5-0.5-2.2H291L249.4,336z"
		/>
	<path d="M519.9,144c0-0.1,0-0.2,0-0.3c-0.3-2.7-0.2-3.1,3.8-8.4c2.3-3.1,4.1-5.8,4.1-5.9c0-0.8-2.5-14.6-2.6-14.7s-1.1-0.4-2.3-0.8
		c-1.9-0.5-2.4-1.1-3.9-4.6c-1.4-3.4-2.7-5-7.6-9.7c-3.3-3.1-7.3-7.4-8.8-9.6l-2.9-3.9h-4.3c-4.1,0-4.3-0.1-6.6-2.4l-2.4-2.4
		l1.1-1.9c1.1-1.8,1.1-2.3-2.4-20.8c-1.9-10.5-3.5-19.8-3.5-20.7c0-0.9,0.7-4.2,1.6-7.1c1.4-4.9,2.4-10.5,3.3-19.7
		c0.2-1.9,0.9-4.2,1.6-5.1l1.1-1.7l-2.6-0.3c-2.8-0.4-21.7-1.6-24-1.6c-0.8,0-1.6,0.6-1.9,1.3c-0.4,0.8-0.4,3.1-0.1,5.9
		c0.3,2.5,0.4,5.6,0.1,6.9l-0.4,2.3l-16.3-0.4c-8.9-0.3-16.2-0.4-16.2-0.2c0,0.1,3.4,3.3,7.5,7.1l7.5,6.8v14.7v14.7l2.1,2.3l2.2,2.2
		l-10.1,9.1c-5.5,5-11.6,10-13.5,11.2c-3.3,2-3.7,2.6-6.4,8.3c-2.6,5.5-4.4,7.9-17.6,23.7l-14.7,17.6h-9.6c-7.3,0-10.5,0.3-13,1.1
		l-3.3,1.1l-2.7-2.5c-1.4-1.3-4.2-3.9-6.1-5.7c-4.3-4.1-34-22.7-36.2-22.7c-0.3,0-5.3,2.6-11,5.7l-10.5,5.7l-0.1,4.8
		c0,5.4-0.8,10.6-1.6,11.4c-0.3,0.3-5.1,0.9-10.6,1.3c-8.2,0.6-10.6,1.1-13,2.3l-3,1.4v-12v-12l-30.2,0.4
		c-16.6,0.3-30.3,0.6-30.4,0.7c0,0-0.1,0.4-0.2,1l45.9,26.5H519.9z"/>
	<path fill="#DA121A" d="M415.7,240L291,312h285c-1.5-6.2-4.2-8.5-10.7-9.9l-3.8-0.8v-3.1c0-2.8-0.2-3.3-2.6-5.5
		c-2.1-1.8-3.3-2.4-4.9-2.4c-5.6-0.1-6.1-0.4-8.8-5.9c-2.4-4.8-2.8-5.3-6.2-7.1c-3.6-2-3.7-2.1-3.7-4.8c0-2.6-0.2-3-4.2-6.6
		c-2.4-2.1-6.5-6.1-9.3-9c-4.4-4.6-5.3-5.2-7.8-5.6c-1.6-0.3-4.4-1-6.4-1.8c-3.6-1.3-3.7-1.3-7.3-0.2l-3.6,1.1l-2.7-1.8
		c-2.5-1.7-3.2-1.8-7.9-1.7c-5.1,0.1-5.2,0.1-5.6-1.6c-0.2-0.9-0.6-2.6-0.9-3.8c-0.3-1.3-0.3-2.8,0-3.6c0.8-2.1,5.3-7.9,6.8-8.9
		c0.8-0.4,1.3-1.4,1.3-2.3s0.3-2.1,0.8-2.8c0.6-0.9,0.5-1.4-0.3-2.6c-1.8-2.5-1.4-5.6,1-7.9c1.9-1.9,2.3-2,11.3-2.9
		c10.4-1.1,10-1.1,15.7,3l3.1,2.3l1.9-2.3c1.4-1.7,2.4-2.2,3.9-2.2c4.9,0,7.2-1.1,10.1-5.1l2.8-3.8l-1.1-20.1
		c-0.3-5.2-0.5-10.3-0.8-14.3H291L415.7,240z"/>
	<path fill="#0F47AF" d="M291,312l124.7-72L291,168l-41.6-24l-45.9-26.5c-0.2,1.8-0.3,5.7-0.5,10.1c-0.3,10.3-0.3,11,1.1,13.6
		c0.8,1.4,1.3,2.8,1.1,3c-0.2,0.2-9.8,0.1-21.5-0.3l-21.2-0.6l-3.4,1.7c-3.8,1.9-12.4,4.9-15.3,5.4c-1.8,0.3-13-2.1-16.6-3.5
		c-2.2-0.8-5.2-6.3-7.2-13.1c-1.3-4.6-2.1-5.9-5.9-10.4c-2.4-2.8-5.9-6.5-7.8-8.1l-3.5-2.9l0.4-5.4c0.4-6.4,0.8-6.1-6.9-6.7
		c-4.8-0.4-5.5-0.3-7.4,0.9c-1.8,1.1-3.1,1.3-7.7,1.3c-10.3,0-21.3,3.4-24,7.4c-1.4,2.1-1.4,2.3-0.4,4.3c1.6,3.5,0,6.1-8.7,14
		l-7.5,6.7l-0.2,8.1l-0.3,8.1l-3.7,3c-3.6,2.9-3.7,3.1-3.7,5.9c0,1.9-0.4,3.4-1.3,4.5c-1.4,1.9-1.6,7-0.6,13.8
		c0.7,4.1,0.7,4.3-0.9,6.3c-1.4,1.9-3.1,2.7-13.5,6.5l-12,4.3l-0.4,2.2c-0.4,1.8-0.2,2.3,1.1,3.3c1.7,1.3,1.7,1.1-3.1,6.3
		c-1.8,1.9-2.1,2.6-1.7,4.4c0.6,2.8,0.6,2.9,5.2,6.1l3.9,2.7l4.1-0.6c3.8-0.6,4.1-0.5,5.4,0.8c1.3,1.2,2.8,1.6,10.9,2.5l9.5,1.1
		l2.4,5.6c2,4.7,2.9,6,5.4,8c2.6,2.1,3.2,2.3,4.6,1.8c0.9-0.4,1.9-0.6,2.3-0.6c1.2,0,3.4,3.9,4.6,7.9c0.6,2.1,1.2,4,1.3,4.4
		c0.1,0.4-0.8,1.1-1.9,1.5l-2.3,0.8v3.9v3.9l2.3,0.9c1.5,0.6,3.9,2.8,7.4,6.8l5.1,5.9l11.6,4.4l11.6,4.4l9.7,10.6
		c6.3,6.9,9.2,9.8,11.5,11.3v-48.3L61.7,240l53.2-17.3V167l32.7,45.1l53.1-17.3L167.9,240l32.8,45.1l-53.1-17.2l-28.9,39.8
		c0.6,0.4,0.9,0.7,0.9,0.9c0,0.3-0.9,1.6-1.9,2.6l-1.9,2.1l0.4,5.8l0.4,5.8l6.2,3.7l6.3,3.6l-1.9,3.4c-1,1.9-1.9,3.6-1.9,4
		c0,0.3,0.9,0.6,1.9,0.6c1.4,0,2.8,0.7,4.7,2.5c2.6,2.4,2.9,2.5,6.9,2.5l4.3,0.1l9.7,6.8c8.6,5.9,10,7.1,12,10.5
		c2.2,3.6,2.3,3.9,2.6,11.5c0.2,4,0.5,7.7,0.7,8.9l81.3-47L291,312z"/>
	<path fill="#FCDD09" d="M200.7,285.1L167.9,240l32.8-45.2l-53.1,17.3L114.9,167v55.7L61.7,240l53.2,17.3v48.3
		c0.5,0.3,1,0.6,1.5,0.8c0.9,0.4,1.8,0.9,2.3,1.3l28.9-39.8L200.7,285.1z"/>
</g>
</svg>
