<?xml version="1.0" encoding="utf-8"?>
<!-- Generator: Adobe Illustrator 17.1.0, SVG Export Plug-In . SVG Version: 6.00 Build 0)  -->
<!DOCTYPE svg PUBLIC "-//W3C//DTD SVG 1.1//EN" "http://www.w3.org/Graphics/SVG/1.1/DTD/svg11.dtd">
<svg version="1.1" id="flag-icon-css-st" xmlns="http://www.w3.org/2000/svg" xmlns:xlink="http://www.w3.org/1999/xlink" x="0px"
	 y="0px" viewBox="0 0 640 480" enable-background="new 0 0 640 480" xml:space="preserve">
<g>
	<path fill="#12AD2B" d="M169.2,347.8c-0.3,1.1-0.2,1.3,0.6,1.3c0.5,0,1.2,0.3,1.5,0.7c0.3,0.4,0.8,0.7,1.1,0.7s0.9,0.8,1.3,1.9
		c0.5,1.1,1.3,2,1.9,2.3c1.5,0.6,2,2.3,0.6,2.3c-1.3,0-3.3,1.7-2.9,2.3c0.1,0.2,0.7,0.5,1.1,0.5c0.5,0,1.1,0.6,1.4,1.4
		c0.6,1.3,0.7,1.4,2.1,1.2c1.3-0.3,1.7-0.1,3.2,1.7c1.7,2,2.1,3.9,1.1,4.9c-0.4,0.4-0.4,0.6,0,0.6c0.4,0,0.5,0.6,0.2,2.2
		c-0.3,2.4-0.7,2.9-2.4,2.9c-0.7,0-1.1,0.4-1.3,1.4c-0.4,1.9,0,2.1,1.9,1.2c1.5-0.7,1.8-0.7,2.8,0c0.6,0.4,1.1,1.1,1.1,1.6
		s0.3,0.9,0.7,0.9s0.7,0.3,0.7,0.7c0,0.9,2.6,1.8,3.7,1.2c1.2-0.7,5.6-0.6,5.6,0c0,0.3,0.9,2,2,3.8c2,3.4,2.3,5,1.2,6.3
		c-0.3,0.4-0.9,1.3-1.2,2c-0.5,1.2-0.5,1.3,0.3,1.6c1.3,0.3,2.1,2.5,1.4,4c-0.5,0.9-0.4,1.4,0.2,2.6c1,1.9,0.9,2.7-0.2,3.5
		c-0.6,0.4-0.8,0.9-0.7,1.2c0.6,1-0.2,2.8-1.3,2.8l-1,0l1.1,0.9c0.9,0.8,1.1,1.3,0.9,3c-0.1,1.1,0,2.4,0.2,2.8
		c0.4,0.7,0.2,1-0.6,1.7c-1,0.8-1,2.2,0,3.4c0.6,0.7,0,3-1,3.5c-0.5,0.3-1.3,0.3-2,0c-0.7-0.2-1.7-0.5-2.4-0.5
		c-0.9,0-1.1,0.2-1.1,1.3c0,0.7-0.3,1.6-0.8,2.1c-0.7,0.8-0.7,0.8,0.5,0.8c1,0,1.5,0.5,2.6,2.2c0.7,1.3,1.4,2.5,1.4,2.8
		c0,0.3,0.4,1,0.9,1.5c0.7,0.7,0.9,1.3,0.7,2.7c-0.1,1-0.5,2.1-0.8,2.5c-1.1,1.4-1.2,1.8-0.2,1.5c1.1-0.3,1.3,1.1,0.2,1.5
		c-0.8,0.3-1,4.4-0.2,4.4c0.3,0,0.5,0.3,0.5,0.7c0,0.6,0.3,0.7,1.2,0.5c1-0.2,1.2,0,1.4,1.2c0.2,0.9,0.5,1.3,0.9,1.1
		c0.4-0.2,0.8-0.3,1.1-0.3c0.2,0,0.5-0.8,0.6-1.9c0.3-2.4,0.5-2.6,2.1-2c1.2,0.4,1.5,0.3,2.3-0.5c0.8-0.8,1.2-0.9,2.6-0.5
		c1.5,0.5,1.7,0.4,2.4-0.6c0.4-0.6,1.1-1.1,1.6-1.1c1.3,0,1.9-1.3,1.3-2.6c-0.4-0.8-0.3-1.3,0-1.6c0.4-0.4,0.6-0.4,0.6,0.3
		c0,1.2,1.6,0.7,1.8-0.5c0.1-0.7-0.3-1.3-1-1.7c-1.1-0.7-1.1-0.8-0.4-2.6c0.4-1.1,0.6-2.2,0.4-2.7c-0.5-1.1-0.3-2,0.6-3.1
		c0.9-1,2.4-1,2.7-0.1c0.1,0.4,0.7,0.8,1.1,0.9c0.5,0.2,0.7,0.6,0.6,1.1c-0.1,0.6,0.1,0.9,0.9,1.2c0.8,0.2,1.3,0.8,1.7,2.4
		c0.3,1.1,0.5,2.4,0.3,2.8c-0.2,0.5,0,0.7,1,0.7c0.8,0,1.4-0.3,1.6-0.7c0.1-0.4,0.5-0.6,0.7-0.4c0.2,0.1,0.9,0,1.6-0.5
		c1.1-0.7,1.1-0.7,1.4,0.7c0.3,1.3,1.6,2.1,1.6,0.9c0-0.3,0.4-0.4,0.9-0.2c1.1,0.3,1.6-1.3,0.9-2.7c-0.4-0.7-0.3-1,0.3-1.3
		c0.7-0.4,0.7-0.5,0-1.8c-0.7-1.1-0.7-1.6-0.2-2.6c0.3-0.7,0.6-1.7,0.6-2.3c0-1.2,2.4-3.3,3.3-2.8c0.3,0.2,0.5-0.4,0.5-1.3
		c0-1.7,0.8-2.4,2.1-1.9c0.9,0.4,0.9-0.9,0-1.6c-1-0.8-1.4-3.2-0.7-4c0.5-0.6,0.5-1.2,0-3c-0.8-3.3-0.3-5.8,1.7-7.6
		c1.4-1.3,1.5-1.6,1.1-2.7c-0.7-2-0.2-2.8,2.7-3.9c3.1-1.1,5.1-0.9,5.7,0.5c0.2,0.6,0.7,1.3,1.1,1.6c0.6,0.5,0.8,0.4,1.3-0.4
		c0.3-0.5,0.7-0.8,1-0.7c0.2,0.2,0.7,0,0.8-0.3c0.6-0.9,1.4-0.1,1.4,1.4c0,0.8,0.3,1.5,0.8,1.8c0.7,0.4,0.7,0.6,0.2,1.3
		c-0.4,0.7-0.4,1,0.4,1.7c0.7,0.6,1.1,0.7,1.6,0.2c0.4-0.3,0.7-0.8,0.7-1.2c0-0.8,0.5-0.8,2.8,0.1c1,0.4,2.2,0.7,2.6,0.5
		c0.4-0.1,0.7,0,0.7,0.2c0,0.3,0.3,0.5,0.7,0.5c0.6,0,0.6-0.4,0.4-2c-0.3-1.8-0.1-2.1,0.7-2.7c0.5-0.3,1-0.9,1-1.3
		c0-0.4,0.3-0.5,1.1-0.3c0.6,0.2,1.7,0.4,2.4,0.4c0.8,0,1.5,0.2,1.7,0.5c0.3,0.5,5,1.3,5,0.8c0-0.1-0.6-0.8-1.3-1.6
		c-1.3-1.3-1.3-1.3-0.4-2c0.5-0.4,1.3-0.7,1.7-0.7c0.5,0,1-0.4,1.1-0.9c0.2-0.5,0.9-1.3,1.7-1.6c0.7-0.4,1.3-1,1.3-1.4
		c0-0.4,0.7-1.4,1.6-2.2c2.9-2.7,2.9-2.7,3.5-2c0.3,0.4,0.9,0.7,1.3,0.7c0.5,0,0.5-0.2,0.1-0.9c-0.3-0.6-0.3-1.3,0-2.1
		c0.4-1,0.7-1.1,1.7-0.8c1.4,0.3,1.7,0.4,4.5,0.2c1.7-0.1,1.8-0.2,1.5-1.3c-0.5-2.7,0.8-3.3,7.3-3.6c4.4-0.2,5.4-0.7,6.5-3
		c0.7-1.5,0.7-2.1,0.3-2.8c-0.3-0.6-0.4-1-0.1-1.2c0.7-0.4,0.6-3.5-0.1-3.5c-0.3,0-1.5-0.7-2.5-1.6c-1.1-0.9-2.2-1.6-2.6-1.6
		c-0.6,0-0.7-0.5-0.7-1.6c0-2.2,2-4.2,3.3-3.4c0.5,0.3,1.7,0.4,2.6,0.2c1.6-0.3,1.6-0.3,1.4-2.2c-0.4-2.6,0-3.2,1.8-3.2
		c1,0,1.7-0.3,1.9-0.7c0.4-0.9,3.1-2.6,4.2-2.6c0.5,0,1.9-0.7,3.1-1.4c1.2-0.8,2.5-1.4,2.8-1.4c0.5,0,1.2-0.9,1.2-1.6
		c0-0.5-2-0.5-2.6,0c-1.3,1-1.5,0.8-1.5-1.9c0-1.7,0.3-2.8,0.8-3.5c0.8-1,0.9-1,2.4-0.3c0.8,0.5,1.8,0.7,2.2,0.6
		c0.9-0.3,0.8-1.2-0.1-1.8h-158C169.5,345.2,169.4,347.1,169.2,347.8z"/>
	<path fill="#12AD2B" d="M195.1,472.3c-0.3,0-0.6,0.3-0.6,0.7c0,0.6,0.4,0.7,1.8,0.4c1.6-0.2,1.9-0.1,2.1,0.7c0.1,0.5,0.1,1.2,0,1.5
		c-0.2,0.3,0.1,0.9,0.6,1.3c0.8,0.8,1,0.8,2,0.1c0.8-0.6,1.3-0.7,2-0.2c1.1,0.7,3.3-0.6,2.8-1.7c-0.2-0.4,0-1,0.4-1.3
		s1.2-1.1,1.8-1.8l1.1-1.3l-1.3-1.4c-1.4-1.7-1.5-2.3-0.5-2.3c0.4,0,0.7-0.4,0.7-1.1c0-0.7,0.2-1.3,0.5-1.4c0.6-0.3,0.7-1.6,0.1-1.6
		c-0.2,0-1,0.5-1.8,1.1c-0.9,0.8-1.8,1.1-2.4,0.9c-0.8-0.2-1.1,0-1.1,0.5c0,0.6-0.3,0.7-1.1,0.5c-0.7-0.2-1.3,0-2.1,0.8
		c-0.7,0.7-1.4,1.1-2,0.9c-1-0.3-2.4,0.7-2,1.3c0.1,0.2-0.1,0.9-0.5,1.5c-0.4,0.6-0.6,1.3-0.4,1.4
		C195.4,472.1,195.3,472.3,195.1,472.3z"/>
	<path fill="#12AD2B" d="M316.6,137.1h1.3C317.3,136.8,317,136.8,316.6,137.1z"/>
	<path fill="#12AD2B" d="M482.4,17.9c0.3-0.1,0.9-0.4,1.3-0.7c1.1-0.8,0.5-3-0.9-3.6c-0.6-0.2-1.2-0.7-1.4-0.9
		c-0.2-0.4-0.6-0.4-1.2,0c-1.3,0.7-2.4,0.6-3.3-0.3c-0.5-0.4-1.3-1-1.9-1.3c-0.6-0.3-1.1-1.1-1.2-1.7c-0.2-1.4-0.9-2.3-1.8-2.3
		c-0.4,0-1.7-0.7-3-1.6s-2.4-1.6-2.6-1.6s-0.2,0.6-0.2,1.4c0,2.2-0.8,3.4-3.4,5l-2.4,1.4l-0.6-1.2c-0.3-0.7-0.6-1.5-0.6-1.8
		c0-0.7-0.7-0.9-1.2-0.2c-0.1,0.2-0.6,0.5-1,0.5c-0.4,0-1,0.3-1.4,0.7c-1.1,1-1.9,0.8-2.8-0.6c-1-1.6-1.5-2-2.7-2
		c-0.5,0-1.4-0.5-2-1.2c-1.1-1.3-2-1.4-2.8-0.6c-0.5,0.5-0.9,0.4-2-0.3c-0.7-0.5-1.7-0.7-2.1-0.6c-0.9,0.3-3-0.5-4.2-1.7
		c-1.2-1.1-1.2-1.1-1.8,0.8c-0.6,1.8-1.9,2-2.6,0.6c-0.5-1.1-2.1-2.2-3.3-2.2c-0.3,0-0.4,0.7-0.2,2c0.2,1.1,0.7,2.4,1.1,2.8
		c0.7,0.7,0.6,0.9-0.4,2c-0.6,0.7-1.5,1.2-2,1.2c-0.6,0-1.3,0.6-1.8,1.4c-0.7,1.2-1.1,1.4-2.6,1.4c-1.1,0-2.1,0.3-2.4,0.7
		c-0.7,0.9-1.9,0.9-3.2,0c-0.6-0.4-1.6-0.7-2.2-0.5c-0.9,0.1-1.3-0.1-2.1-1.1c-1-1.4-2-1.7-2.4-0.7c-0.1,0.4-0.7,0.7-1.3,0.8
		c-0.7,0.1-1.1,0.6-1.3,1.7c-0.2,0.8-0.1,1.6,0.1,1.8c0.8,0.5,0.4,2.7-0.8,4l-1.2,1.3l1.4,2.1l1.4,2.1l-0.7,2.6
		c-0.4,1.4-1.1,3-1.4,3.4c-0.8,0.9-0.8,1.3,0,1.3c1.5,0,3.1,1.2,3,2.2c-0.1,0.6,0.4,1.5,0.9,2.1c1.4,1.5,1.2,2.7-0.6,3.4
		c-3.3,1.1-4.2,2-4.7,4.6c-0.2,1.3-0.3,2.7-0.1,3.1c0.2,0.4,0.5,1.3,0.6,2c0.1,0.7,0.7,1.4,1.2,1.5c0.7,0.2,0.9,0.7,0.9,2.4
		c0,1.2,0.3,2.6,0.7,3.3c1.4,2.5,0.7,6-1.5,6.9c-1.1,0.5-1.4,1-2,3c-0.5,1.9-0.5,2.7,0,3.5c0.7,1.3,0.1,2.2-2.1,2.6
		c-2,0.4-3.4,1.2-3.4,2c0,0.9-1.1,1-2,0.2c-0.8-0.7-0.9-0.7-1.8,0.4c-0.9,1.1-0.9,1.1-2.5,0.3c-1.4-0.8-1.7-0.8-3.7-0.1
		c-2.6,0.9-3.5,0.7-3.5-1.1c0-1-0.5-1.7-1.9-2.8c-1.7-1.3-2-1.4-4.1-1.2c-1.9,0.3-2.4,0.6-3.4,2.1c-1.4,2-1.8,4.6-0.6,4.6
		c1.4,0,3.5,1.4,3.5,2.4c0,0.9,0.2,0.9,1.9,0.7c2-0.3,2.4,0.1,1.2,1.2c-0.4,0.3-0.7,1-0.7,1.5c0,0.5-0.3,1.5-0.7,2.2
		c-0.6,1.1-0.6,1.6,0,4c0.4,1.5,1.1,3,1.6,3.3c0.6,0.4,0.9,1.2,0.9,2.2c0,1.1,0.2,1.6,0.9,1.9c0.8,0.2,0.8,0.5,0.4,1.7
		c-0.4,1.1-0.3,1.8,0.4,3.3c0.9,2,0.9,1.8-1.3,6.1c-0.2,0.5,0,1.7,0.8,3.6c1.2,2.8,1.3,2.8,2.9,2.7c1.5-0.1,1.7-0.3,2.1-1.9
		c0.3-1.2,0.7-1.7,1.1-1.5c0.3,0.1,1.2-0.3,1.9-0.9c0.7-0.6,1.5-1,2-0.9c0.4,0.1,1.5,0.3,2.5,0.5c1,0.1,1.7,0.6,1.7,0.9
		c0,0.4,0.4,0.7,0.9,0.9c0.5,0.1,1.1,0.8,1.4,1.4c0.2,0.7,0.7,1.2,0.9,1.2c0.2,0,0.5,0.3,0.5,0.7c0,1.3,2.1,3.1,4.6,4
		c3,1.1,4.4,1.2,4,0.3c-0.1-0.4,0.2-0.9,0.9-1.3c1-0.5,1.3-0.5,1.4,0c0.1,0.3,1.2,1.5,2.4,2.7c2,1.9,2.2,2.3,2,3.5
		c-0.2,1-0.1,1.5,0.5,1.9c0.4,0.2,0.7,0.7,0.5,1c-0.2,0.4,0.3,0.7,1.3,0.9c1.3,0.2,1.8,0,3-1.3c1.4-1.5,1.5-1.5,4.4-1.2
		c1.6,0.2,3.1,0.3,3.3,0.1c0.5-0.3,1,1.7,0.9,3.6c0,1.1,0.1,1.8,0.5,1.8c0.3,0,0.5,0.6,0.4,1.5c0,0.8,0,2,0.2,2.6l0.4,1.1l1.3-1.3
		c0.7-0.7,1.7-2.2,2.1-3.3c0.7-2,0.7-2.2,0.1-2.6c-0.4-0.3-0.9-1.4-1.2-2.5c-0.3-1-0.8-2.1-1.2-2.5c-0.4-0.3-0.7-0.8-0.7-1.2
		c0-0.4-0.2-0.7-0.5-0.8c-1-0.3,0.1-2.2,1.7-2.7c1.3-0.5,1.5-0.7,1.1-1.4c-0.4-0.7-0.3-0.9,0.4-0.9c0.5,0,1.2-0.3,1.5-0.7
		c2.4-2.8,3.6-3.9,4.5-3.9c0.6,0,1.2-0.4,1.5-0.9c0.6-1.1,2.6-1.2,3.9-0.2c0.7,0.5,0.9,1.1,0.7,2.3c-0.1,2,0.8,2.6,2.6,1.2
		c0.7-0.6,1.5-1,1.9-1c2,0,1.6-4.8-0.5-5.3c-1.5-0.4-2-2.1-0.9-2.9c0.5-0.3,1.1-0.6,1.4-0.6c0.3,0,0.4-0.5,0.3-1.2
		c-0.1-0.9,0-1.2,0.8-1.4c0.7-0.2,0.9-0.6,0.9-1.5c-0.2-2.6,0.1-3.7,1-4c0.8-0.2,0.9-0.8,1.1-3.9c0.1-2,0-3.7-0.2-3.8
		c-0.1-0.1-0.5-0.8-0.6-1.5c-0.2-0.7-0.7-1.4-1-1.6c-0.4-0.1-0.7-0.6-0.7-1s-0.4-1-0.9-1.3c-1-0.6-1.3-3.5-0.5-4
		c0.2-0.2,0.2-0.8-0.1-1.6c-0.7-1.7-0.2-2.7,1.4-3.1c2.3-0.6,8.8-6.4,9.1-8.1c0.1-0.8,0.6-1.3,1.5-1.5c0.8-0.2,2-0.7,2.6-1
		c0.8-0.4,1.5-0.4,2-0.1c0.4,0.2,1,0.3,1.3,0.1c0.3-0.1,1,0.3,1.6,1l1.1,1.3l1.9-1.6c1-0.9,2.1-2.1,2.4-2.7c0.3-0.6,1.2-1.3,1.9-1.6
		c1.4-0.5,3.1-3.2,2.6-4c-0.1-0.3,0-0.9,0.2-1.4c0.4-0.8,0.3-1-0.6-1.4c-0.6-0.3-1.3-1.1-1.6-1.9c-0.6-1.5-2-1.9-2-0.4
		c0,0.7-0.3,0.9-1.6,0.9c-0.9,0-1.7-0.2-1.9-0.4c-0.1-0.2,0.4-1.2,1.1-2.1c1.8-2.3,1.9-3.9,0.1-3.9c-0.7,0-1.6-0.3-2-0.7
		c-0.7-0.7-0.9-0.6-1.8,0.7l-1,1.4l-1.9-1c-1.1-0.6-2.1-1.3-2.3-1.7c-0.2-0.3-0.7-0.6-1-0.6c-0.7,0-1.8-1.9-1.6-2.6
		c0.2-0.6-0.5-2.5-0.9-2.5c-0.2,0-0.7,0.4-1.2,0.9c-0.5,0.6-1.3,0.9-2.4,0.9c-2.6,0-5.1,1.5-6,3.7c-0.8,2.1-1,2.2-2.5,1.1
		c-1.1-0.7-1.3-2.2-0.6-2.7c0.3-0.1,0.5-0.7,0.5-1.2c0-0.6,0.5-1.1,1.2-1.3c0.7-0.3,1.2-0.8,1.2-1.3c0-1.1,1.1-2,2-1.6
		c0.9,0.3,1.7-1.1,1.7-3c0-0.9,0.3-1.6,0.9-1.9c0.6-0.3,1.2-1,1.4-1.6c0.3-0.8,0.9-1.2,2.5-1.4c1.2-0.2,2.4-0.2,2.8-0.1
		c0.4,0.2,1.7,0,2.9-0.4c1.2-0.4,2.5-0.8,2.9-0.9c0.5-0.1,0.3-0.6-0.8-1.7c-0.8-0.8-1.5-1.7-1.5-1.9c0-0.6,2.7-3.8,4.2-4.8
		c1.3-0.9,1.4-1,3-0.3c0.9,0.4,1.7,1.1,1.9,1.6c0.1,0.5,0.7,0.9,1.1,0.9c0.5,0,1.2,0.4,1.7,0.9c0.9,1,1.5,1.1,2.5,0.5
		c0.8-0.5,0.3-2.1-1-3.4C482.3,18.5,482.1,18.1,482.4,17.9z"/>
	<path fill="#FFCE00" d="M316,137.7c-0.9,1.1-2.8,1.2-4.6,0.4c-0.9-0.4-1.4-0.4-2,0c-0.5,0.3-1.3,0.4-2,0.3c-0.9-0.2-1.5,0.1-2.3,1
		c-0.9,1-1.5,1.2-3.5,1.2c-1.7,0-2.5,0.2-2.6,0.7c-0.4,1-2.6,0.9-4.7-0.2c-3.6-1.8-6.6-1.5-8.6,0.8c-0.8,0.9-0.8,0.9-2.9,0
		c-2-0.8-2.3-0.9-3.9-0.2c-1.5,0.6-1.8,0.6-2.2-0.1c-0.7-1.2-2,0.1-1.7,1.7c0.2,0.9-0.2,1.9-1.2,3.5c-0.8,1.2-1.4,2.5-1.4,2.9
		s-0.5,0.9-1,1.2c-1.4,0.7-5.3,4.6-5.6,5.6c-0.1,0.5-0.9,0.9-1.6,1.1c-2.3,0.6-5.1,2.5-5.7,3.9c-0.7,1.7-3.4,4.2-4.6,4.2
		c-0.6,0-1.9,1.5-3.9,4.8c-2.9,4.6-3.2,4.8-5.6,5.8c-1.4,0.6-3.6,1.7-5,2.6c-2.3,1.4-2.6,1.5-3.9,1c-0.8-0.4-3.5-0.7-6-0.7l-4.6-0.1
		l-2.2,2.2c-1.8,1.8-2.2,2.5-2.5,4.4c-0.4,2.6-0.7,3-2.9,3c-1.5,0-4.4,1.6-6.7,3.7c-0.8,0.7-1.7,2.5-2.5,4.7c-0.7,2-1.5,3.9-1.9,4.2
		c-0.5,0.4-1.6,0.5-3.8,0.3c-0.3,0-0.6-0.1-0.9-0.1L240,240l-78.3,78.3c0.3,0.3,0.6,0.7,1,1.1c1.2,1.2,2.1,2.4,2.1,2.6
		s0.4,0.7,0.9,0.8c0.5,0.1,0.9,0.6,0.9,1s0.4,1.1,0.9,1.6c1.4,1.4,2,3.1,1.3,4.1c-0.4,0.6-0.4,1.5,0,3.6c0.4,1.9,0.6,6.3,0.6,9.9
		h158c-0.2-0.1-0.4-0.2-0.7-0.3c-1.1-0.4-1.4-0.7-1.1-1.3c0.2-0.5,0.5-1.2,0.6-1.7c0.4-1.2,2.9-1,5,0.4c0.9,0.7,1.8,1.2,1.9,1.2
		c0.1,0,0.2-1.3,0.2-3c0-2.6-0.1-3-0.9-3c-1.3,0-1.8-2.6-0.8-3.6c0.7-0.7,0.9-0.7,2.3,0c1.5,0.7,3.9,0.6,5.3-0.3
		c0.9-0.6,0.6-1.8-0.7-2.8c-1-0.8-1.2-1.3-0.9-2.2c0.4-1.6,2.5-3.1,3.1-2.2c0.7,1.1,2.7-0.1,2.9-1.7c0.1-1.1,0.4-1.3,1.9-1.4
		c1.8-0.1,2-0.5,1.7-3.3c0-0.6,0.5-1.6,1.3-2.5c1.1-1.1,1.4-1.8,1.4-3.3c0-1.5,0.2-1.9,1.2-2.1c0.8-0.2,1.2-0.6,1.2-1.4
		c0-1.2,1.6-2,3-1.4c1,0.4,3.5-0.6,5.4-2.1c1.4-1.2,1.8-1.3,2.7-0.8c0.8,0.5,1.1,0.4,1.5,0c1.2-1.9,1.8-3.3,1.8-4.8
		c0-1.5,0.1-1.6,1.6-1.6c2.1,0,3.1-0.4,3.1-1.3c0-0.5-0.3-0.7-0.9-0.5c-0.6,0.1-1,0-1.1-0.7c-0.2-0.7-0.1-0.9,0.7-0.7
		c0.7,0.1,1.5-0.2,2.6-1.1c0.9-0.8,1.9-1.4,2.2-1.4c0.4,0,0.7-0.8,0.9-2.5c0.2-1.3,0.7-3.1,1.2-3.8c0.1-0.2,0.3-0.4,0.4-0.7
		l-25.9-18.8l-40.3,29.3l15.4-47.4l-40.3-29.3h49.8l15.4-47.4l0,0v0l15.4,47.4h21.1c0-1.9-1.9-4.4-3.3-4.4c-0.8,0-1.4-0.5-2.1-1.5
		c-0.8-1.3-0.9-1.9-0.6-4c0.2-1.4,0.4-3.2,0.5-3.9c0-0.8,0.2-1.9,0.4-2.4c0.2-0.7,0-1.2-0.7-1.8c-1-0.7-1.1-1.1-1.2-5.1
		c0-3.4-0.3-4.6-0.9-5.6c-1-1.3-1.6-1.5-1.6-0.5c0,0.4-0.5,1.3-1.2,1.9s-1.2,1.5-1.2,2c0,1.3-0.4,1.4-3.3,0.9
		c-2.3-0.4-2.9-0.7-4.6-2.5c-2.5-2.7-2.6-4.9-0.2-7.6c1.9-2,2.1-4.1,0.8-5.3c-1.1-1-3.1-1-4.5,0c-1.8,1.2-3.1,0.7-4.3-1.7
		c-1.3-2.5-1.4-5.6-0.2-6.6c1.8-1.8,3.7-3,4.9-3.3c1-0.2,1.3-0.5,1-1.1c-0.2-0.4-0.5-1.5-0.7-2.4c-0.3-1.6-0.4-1.6-2.3-1.5
		c-1.6,0.1-2.3-0.1-3.1-0.9c-1-0.9-1.3-1-2.6-0.6c-1.1,0.3-1.9,0.3-2.9-0.1c-0.7-0.3-1.9-0.6-2.4-0.7c-0.6,0-1.2-0.3-1.4-0.6
		c-0.2-0.3-1.5-1.3-3-2.3c-2.7-1.8-2.8-1.9-3.4-6.6c-0.4-2.8-1.3-4.6-2.6-5.3c-1.5-0.8-5.2-1.9-10.1-2.8c-4.9-0.9-7.9-2-7.9-2.7
		c0-0.3-0.5-0.5-1-0.5c-0.6,0-1.9-0.6-2.9-1.2c-0.6-0.4-1-0.6-1.4-0.8h-1.3C316.4,137.2,316.3,137.4,316,137.7z"/>
	<path fill="#FFCE00" d="M385.7,276.4C385.7,276.4,385.7,276.4,385.7,276.4c1.5-0.8,1.6-1.1,1.6-3.1c0-1.7-0.2-2.3-0.8-2.5
		c-1.9-0.6-2.1-0.9-2.1-3c0-1.2,0.1-2.6,0.3-3.2c0.3-0.8,0.1-1.3-0.7-1.8c-1.4-1-1.1-2.6,0.6-2.8c1.4-0.2,2.1-1.6,1.6-3.3
		c-0.1-0.5,0-1.2,0.3-1.5c0.7-0.9,3-1.4,3.8-0.8c0.4,0.4,0.7,0.3,0.8-0.1c0.1-0.4-0.7-1.2-2.3-2.2c-1.6-1-2.5-1.8-2.5-2.4
		c0-0.5-0.3-1.4-0.7-2c-0.7-1.1-0.7-1.3,0.3-3.3c0.7-1.3,1.3-2.1,1.9-2.1c0.5,0,1.3-0.2,1.8-0.5c0.9-0.5,0.9-0.6,0.1-1.9
		c-0.3-0.5-0.5-0.9-0.5-1.1l-12.8,9.3L385.7,276.4z"/>
	<path fill="#FFCE00" d="M391.8,237.5c2.1,1,3.7,0.7,4.4-0.7c0.3-0.7,0.6-1.6,0.5-2.1c0-0.4,0.1-1,0.4-1.5l-5.7,4.2
		C391.5,237.4,391.6,237.4,391.8,237.5z"/>
	<path fill="#D21034" d="M201.1,201.1c-2.9-0.3-3.2,0.1-7.8,4.8c-3.1,3.2-3.9,3.8-5.2,3.8c-0.8,0-1.7,0.3-2,0.7
		c-0.3,0.4-1.1,0.7-1.8,0.7c-2,0-3.4,1-4.1,3c-0.3,1-0.9,2.1-1.3,2.5c-0.5,0.5-0.5,1,0,3c0.6,1.8,0.6,2.6,0.2,3.5
		c-0.3,0.6-0.5,1.6-0.5,2.2s-0.2,1.2-0.4,1.3c-0.2,0.1-0.5,1.5-0.7,3c-0.2,1.8-0.6,3-1.2,3.5c-0.5,0.5-1.1,1.6-1.2,2.5
		c-0.2,0.9-0.7,2-1.2,2.5c-0.5,0.5-0.9,1.5-0.9,2.4c0,0.9-0.5,2.6-1.2,3.8c-0.7,1.2-1.2,2.5-1.2,2.8c0,0.7-1.9,1.5-3.7,1.5
		c-1.8,0-7,5.3-7.1,7.3c-0.3,4.7-1,8.4-2,9.4c-0.4,0.4-0.8,1.5-1,2.4c-0.5,2.8-0.7,3.3-1.4,3.3c-0.4,0-0.7,0.2-0.7,0.5
		c0,0.2,0.2,0.5,0.5,0.5c0.3,0,0.4,0.4,0.2,0.9c-0.2,0.6,0.2,1.4,1.4,2.6c1.6,1.7,2.1,3,1.2,3c-0.3,0-0.3,0.3,0,0.9
		c0.6,1.2,0.1,2.4-1,2.4c-1,0-1.2,0.9-0.4,1.7c0.4,0.4,0.3,0.7,0,1.4c-0.5,0.7-0.3,1.3,0.9,3.3c1.2,2,1.3,2.6,0.9,3.4
		c-0.7,1.2-0.8,3.6-0.4,4.6c1.3,2.7,1.5,3.3,1.3,4.7c-0.1,0.9,0,2.2,0.5,3c0.6,1.2,0.6,1.6,0.1,2.2c-0.3,0.4-1,0.7-1.4,0.7
		c-0.5,0-1.1,0.4-1.3,0.9c-0.6,1,0,1.3,0.8,0.4c0.4-0.4,0.8-0.3,1.9,0.7c1.2,1.2,1.3,1.4,0.9,3.2c-0.7,3.1-0.6,4.5,0.8,6.2L240,240
		L201.1,201.1z"/>
	<polygon points="351.6,171.4 351.6,171.4 336.2,218.8 344.5,218.8 	"/>
	<polygon points="348.2,218.8 355,218.8 367,218.8 351.6,171.4 351.6,171.4 344.5,218.8 	"/>
	<path d="M355,218.8v10.3l0.5-0.1l1.1-1.6l0.7,1.3l31.7-5.3c-0.6-1.1-1.1-3.1-0.9-4.1c0-0.2,0-0.3,0-0.5H367H355z"/>
	<path d="M357.2,228.7l1.1,2.1l3.7,0.6l-1.6,2.2l10.3-3.4l5.8,17.8l12.8-9.3c-0.1-0.4,0.1-0.6,0.5-1.1c0.5-0.5,0.9-0.6,1.6-0.4
		l5.7-4.2c0.1-0.1,0.1-0.3,0.2-0.4c0.7-1.2,0.2-2.3-0.9-1.8c-0.4,0.1-1.5-0.6-2.6-1.7c-1.1-1.1-2.1-1.9-2.3-1.9
		c-0.2,0-0.7-0.7-0.9-1.6s-0.7-1.6-1-1.6c-0.2,0-0.4-0.3-0.7-0.7L357.2,228.7z"/>
	<polygon points="355.4,229 355,229.1 355,229.7 	"/>
	<path d="M385.6,282.4c0.6-0.6-0.3-2.1-1.3-2.3c-0.2-0.1-0.3-0.1-0.5-0.2l1.4,2.7C385.4,282.6,385.5,282.5,385.6,282.4z"/>
	<path d="M370.7,230.3l-10.3,3.4l-0.3,0.5l3.2,6.2l1.9,0.6l-1,1l19.1,36.7c0-0.4-0.1-0.9-0.3-1.2c-0.2-0.6-0.1-0.7,0.5-0.5
		c0.5,0.2,1.5-0.1,2.3-0.5l-9.2-28.3L370.7,230.3z"/>
	<polygon points="355,230.2 358.3,230.8 357.2,228.7 356.6,227.4 355.4,229 355,229.7 	"/>
	<path d="M364.1,241.9l-4,4.1l6.7,9.2l-15.2,11l25.9,18.8c0.3-0.6,0.5-1.2,0.5-1.6c0-0.6,0.4-0.8,1.4-0.8s1.5-0.3,1.8-1l0.4-0.9
		l0.8,0.9c0.7,0.8,2.1,1.2,2.8,0.9l-1.4-2.7c-0.4-0.2-0.6-0.6-0.6-0.9c0-0.1,0-0.2,0-0.4L364.1,241.9z"/>
	<polygon points="363.2,240.3 360,234.1 357,238.2 	"/>
	<polygon points="366.8,255.2 360.1,246 355,251.1 355,253.1 353.7,252.5 311.3,295.5 351.6,266.2 	"/>
	<polygon points="357,238.2 355,241.1 355,251.1 360.1,246 364.1,241.9 365.1,240.9 363.2,240.3 	"/>
	<polygon points="353.7,252.5 348.6,249.9 341.9,259.1 326.7,248.1 311.3,295.5 	"/>
	<polygon points="355,241.1 357,238.2 360,234.1 360.4,233.6 362,231.4 358.3,230.8 355,230.2 	"/>
	<polygon points="341.9,259.1 348.6,249.9 286.4,218.8 326.7,248.1 	"/>
	<polygon points="348.6,249.9 353.7,252.5 355,253.1 355,251.1 355,241.1 355,230.2 355,229.7 355,229.1 355,218.8 348.2,218.8 
		344.5,218.8 336.2,218.8 286.4,218.8 	"/>
</g>
</svg>
