<?xml version="1.0" encoding="utf-8"?>
<!-- Generator: Adobe Illustrator 17.1.0, SVG Export Plug-In . SVG Version: 6.00 Build 0)  -->
<!DOCTYPE svg PUBLIC "-//W3C//DTD SVG 1.1//EN" "http://www.w3.org/Graphics/SVG/1.1/DTD/svg11.dtd">
<svg version="1.1" id="flag-icon-css-sx" xmlns="http://www.w3.org/2000/svg" xmlns:xlink="http://www.w3.org/1999/xlink" x="0px"
	 y="0px" viewBox="0 0 640 480" enable-background="new 0 0 640 480" xml:space="preserve">
<g>
	<path fill="none" d="M462.8,480c0.7,0.8,1.2,1.4,1.4,1.4c0.6,0,2.9-0.6,5-1.4H462.8z"/>
	<path fill="#ED2939" d="M563.2,240c-1.2-0.2-2.8-0.6-4.9-1c-11.2-2.6-11.1-2.5-13.8-5.3c-2.1-2.1-3-2.6-5.2-2.9
		c-1.7-0.3-4.2-1.3-7.4-3.3c-5.2-3.1-6.2-3.3-12-2.3c-2.6,0.4-3.5,0.9-5.3,2.6c-1.9,1.8-2.5,2.1-5,2.2c-2.4,0.2-3,0-3.6-1
		s-0.6-1.6,0.2-4.4c0.8-2.8,1.4-3.8,3.5-5.8c1.4-1.3,2.5-2.8,2.5-3.4c0-0.5,0.8-2,1.9-3.2c1.8-2.3,1.9-2.3,5.3-2.3
		c3.3,0,3.6-0.1,7-2.6c1.9-1.4,4.7-3.2,6.2-4c2.4-1.2,2.9-1.6,3.3-3.6c0.3-1.3,0.7-2.6,0.8-3.1c0.1-0.5,1.6-2.2,3.3-3.9
		c2.9-2.9,3.4-3.1,7.2-4c2.3-0.5,4.3-0.8,4.5-0.7c0.8,0.5,0.4,2.8-0.9,5.8c-0.7,1.6-2,5.3-2.7,8.2c-1.6,6.1-1.8,5.3,3.1,18.4
		c2.9,7.6,3.3,8.2,8,12.2c2.5,2.2,3.4,2.6,5.2,2.6c2.1,0,2.2-0.1,2.8-2.7c0.3-1.3,0.1-1.5-1.9-2.1c-2.7-1-4-2.8-8.7-13.5
		c-4-9.1-4.2-10.7-1.5-14.4c1-1.4,1.8-3,1.8-3.6c0-0.5,0.2-1.7,0.3-2.6c0.3-1.5,0.7-1.7,3.8-2.7l3.5-1.1l3.3,1.1
		c3.3,1.1,3.4,1.1,6,0.2l2.6-1v-3.2c0-2.7,0.3-3.6,2.2-6.9c1.2-2.1,3.4-5.5,4.9-7.7c1.5-2.2,2.9-4.2,3.1-4.6
		c0.5-0.9-3.8-2.9-8.4-4.1c-7.6-1.9-16.7-8.2-25.7-18.1c-3.6-3.9-6.9-8-7.3-9.1c-0.4-1.1-1.8-4.3-3-7.2l-2.3-5.4v-10.8
		c0-10.2-0.1-11.1-1.3-14.5c-0.7-2-1.3-4.7-1.3-6c0-2.1-0.4-2.7-4.4-7.6c-4.2-5-4.4-5.4-5-8.9l-0.6-3.6l2.4-3.9l2.4-3.9l3.5-0.2
		c4.1-0.2,11.1,0.5,11.9,1.1c0.3,0.2,1.9,1.2,3.5,2.1l2.9,1.6l3.1-2.1c2.6-1.7,3.3-2.5,4.1-4.6c1.5-4.3,1.2-7.3-1-11
		c-1.1-1.7-2.7-4-3.8-5.1c-1.8-1.9-1.8-2-2.6-9.2c-0.4-4-0.7-11.2-0.7-16v-8.8l-3.6-3.2c-3.9-3.5-7.8-5.7-13.6-7.6
		c-2-0.7-5.3-1.9-7.2-2.7l-3.5-1.4l-3.1,1.8c-1.7,1-4,2.7-5.2,3.9c-2.6,2.5-5.1,2.9-11.9,1.8c-2.7-0.4-7.8-0.8-11.4-0.8h-6.4
		l-4.2,2.5l-4.2,2.5l-0.4,2.9c-0.3,2.2-0.8,3.3-2.1,4.6l-1.7,1.7l2.2,9.1c1.2,5,2.2,9.2,2.2,9.5c0,0.2-1.1,0.7-2.4,1.2
		c-1.8,0.7-3.1,0.8-5.8,0.5c-3.4-0.4-3.5-0.4-4.3-2.4c-0.7-1.7-1.3-2.2-4.1-3.4c-2.4-1-4.2-1.4-6.6-1.4c-3,0-3.7-0.2-6.3-2
		c-1.6-1.1-5.9-3.2-9.3-4.6c-6.2-2.7-6.3-2.7-9-2.2c-2.3,0.5-2.9,0.9-3.9,2.7s-1.2,2.9-1.2,7.5c0,3-0.3,6.6-0.6,8
		c-0.5,2.1-0.4,3.5,0.1,6.3c0.6,3.2,0.6,4.1-0.2,7.1c-0.5,1.9-1.1,6.3-1.4,9.7c-0.6,7.2-1,8.8-2.9,13c-2.3,5-7.1,10-14.8,15.5
		l-6.9,4.9l-2.6-0.3c-1.4-0.2-6-0.6-10.1-1c-7.3-0.7-7.7-0.8-11.1-2.9c-2.7-1.6-3.9-2.7-4.9-4.5c-1.6-2.9-4.3-4.2-8.6-3.9
		c-2.7,0.2-2.8,0.2-3.6,2.5c-0.7,1.8-1.3,2.5-2.7,3.1c-1.8,0.7-2,0.8-1.6,2.7c0.3,1.5,0,2.6-1.1,4.7l-1.4,2.7h-2.9h-2.9l0.4,7l0.3,7
		l-3.4,2.4c-1.8,1.3-5,3.7-7,5.3c-2,1.6-4.5,3.1-5.5,3.4c-3,0.9-6.6,5-8.6,9.8l-1.7,4.1l-5.7,3l-5.7,3.1l-0.7,3.4l-0.7,3.4l3.1,7.6
		c1.7,4.2,3.1,7.9,3.1,8.2c0,0.4,0.3,1.5,0.5,2.5c0.4,1.5,1.1,2.3,3.9,3.9l3.4,2l0.4,2.9l0.4,3l-4.8,6.9
		c-2.6,3.9-7.2,10.7-10.2,15.2l-5.6,8.2l0.4,3.4l0.4,3.3l-2.6,2.6L320,240H563.2z"/>
	<path fill="#ED2939" d="M589.2,151.8c1.8-1.3,2.9-4.3,2.6-7.1c-0.2-1.7-0.2-1.7-2.2-1.2c-1.5,0.4-2.1,0.8-2.3,1.9
		c-0.5,1.6-0.4,6.8,0,7.3C587.5,152.8,588.3,152.4,589.2,151.8z"/>
	<path fill="#ED2939" d="M574.1,86.7l2.7-1.5c1.5-0.8,5.1-2.1,8-2.7l5.2-1.2l-0.3-3.4c-0.2-1.9-0.4-3.5-0.5-3.5
		c-0.1-0.1-1.8-1.3-3.8-2.8c-3.3-2.5-3.9-2.7-6.3-2.7c-1.7,0.1-3.9,0.6-6.1,1.5c-3,1.3-3.6,1.8-5.1,4.3c-1.3,2.1-1.7,3.5-1.7,5.3
		v2.4l4,2.2L574.1,86.7z"/>
	<path fill="#ED2939" d="M585.7,238.8c-0.6-2.6-1-3.2-3-4.6l-2.3-1.6l-2.6,1.4c-1.5,0.7-3.1,1.3-3.7,1.3c-0.6,0-2.2,1-3.5,2.2
		c-1.6,1.4-2.6,2.3-3.8,2.6h19.2C585.8,239.6,585.8,239.2,585.7,238.8z"/>
	<path fill="#002395" d="M471.6,479.1c1.1-0.5,2.6-1.7,3.4-2.8c0.8-1.1,2.7-3.4,4.2-5.2c4.1-4.8,6.6-8.8,6.6-10.6
		c0.1-1.3,0.5-2,3.2-3.9c1.7-1.2,4.3-2.7,5.9-3.2c6.5-2.3,7.2-2.7,8-4.8c0.7-1.8,1.1-2.1,3.2-2.4c2-0.3,2.7-0.8,4.4-2.9
		c1.3-1.5,2.2-3.2,2.4-4.5c0.2-1.2,1-3.3,1.8-4.7c1.3-2.4,1.8-2.8,5.3-4.2c3.5-1.4,4-1.8,5.2-4.1c1.8-3.7,1.7-8-0.4-15.1
		c-1.7-5.4-1.7-5.6-0.7-6.2c0.5-0.3,2.2-1.7,3.7-3c1.4-1.3,4.1-3.4,5.9-4.6c1.8-1.2,4.3-3.5,5.7-5.2c2.1-2.5,2.4-3.3,2.4-5.2
		c0-2,0.3-2.6,2.6-5.2c1.5-1.6,2.6-3,2.6-3.2c0-0.1-2.1-1.4-4.5-2.8l-4.5-2.5l0.4-3.7c0.2-2.1,1-5.7,1.6-8c0.7-2.3,1.5-5.9,1.9-7.9
		c0.5-3.5,0.7-3.9,3.8-7.1c2.4-2.5,4.3-3.9,7.3-5.4c3.8-1.8,4.3-2.3,6.4-5.6c1.7-2.6,3-4,4.6-4.9c2.2-1.2,2.3-1.4,2.4-4
		c0.1-1.5-0.3-4.5-1-7.1c-0.6-2.4-1.3-7.2-1.6-10.5c-0.2-3.3-0.6-6.4-0.7-6.9c-0.2-0.6,0.7-1.7,3.3-3.8c2.7-2.2,3.9-3.5,4.7-5.6
		l1.2-2.7l-1.3-0.8c-1-0.6-2.1-0.7-5.4-0.5l-4.1,0.3l-3.8-3.9l-3.8-3.9l1.6-2.5c2.3-3.4,3.6-3.6,7.9-1.2c1.8,1.1,4.1,2.7,5.1,3.5
		c1.5,1.4,2,1.5,4.5,1.4l2.8-0.2l0.8,3.3l0.8,3.3h3h2.9l2.5-3.4l2.5-3.5l-0.4-3.8c-0.2-2.1-0.8-4.7-1.4-5.8
		c-0.6-1.2-1.8-4.2-2.9-6.8l-1.8-4.8l0.8-3.2c0.5-1.8,1.4-4.8,2.2-6.7c1.4-3.5,1.7-6.7,1-10.5h-19.2c-0.9,0.3-1.9,0.3-3.5,0H320
		L178.9,345.8c3.5,0.9,3.8,1.4,4.6,3.3c1,2.5,2,3.1,5,2.7c1.6-0.2,1.9-0.5,5-6.4c4.1-7.9,5.1-8.7,12-9.4c2.7-0.2,8.8-0.5,13.5-0.5
		c13,0,17.9,1.5,29.7,9c3.4,2.2,7.6,4.6,9.2,5.4c3,1.4,3.4,1.9,7.1,7.4c4.6,6.8,5.3,8.5,5.3,12.8l0.1,3.2l-2.4,1.6
		c-1.4,1-3.3,3-4.5,4.9l-2.2,3.3l0.7,3.2l0.7,3.2l4.4,1.6c3.9,1.4,4.5,1.9,5.9,4c0.8,1.3,2.6,3.1,3.8,4.1c2.8,2.1,6,2.3,11.3,0.6
		c2-0.6,4.2-1.1,5-1.1c4.4,0.1,23.8,5,25.7,6.6c0.4,0.2,0.7,1.2,1,2.1c0.2,0.8,1.2,3.8,2.3,6.6l2,5h2c1.2,0,3.8-0.8,6.4-2.1
		c7-3.3,6.7-3.4,13.1,1.5c3.1,2.3,6.3,5.3,7.3,6.6c2.2,2.9,5.6,4.3,9.4,3.7c2.8-0.4,3-0.6,5.7-4.9l2-3.2h3.2c2.6,0,12.9,2,18.3,3.5
		c0.9,0.3,1.5,1.3,2.5,4.4c1.2,3.4,4.5,16.9,4.5,18.1c0,0.3,0.8,0.4,1.8,0.4c1.7,0,1.8-0.1,2.7-3.4c1-3.7,0.9-5.3-1.3-17.6
		c-0.6-3.3-1-6.1-1-6.1c0.1-0.1,2.1-1.5,4.4-3.3c2.3-1.8,7.1-4.6,10.7-6.4c6.2-3.1,6.7-3.2,10.3-3.2c2.1,0,5.3,0.3,7,0.7
		c1.7,0.4,4.8,0.9,6.8,1.1c4.7,0.5,16,5.3,18.3,7.8c2.2,2.4,2.3,3.4,1.3,9.9l-0.9,5.8l1.5,3.5c0.9,2,2,4.9,2.4,6.6
		c0.5,1.6,1.6,3.9,2.7,5.2c1.5,1.8,1.7,2.4,1.3,3.5c-1,2.4-1.7,3.6-4,6.1l-2.2,2.5l-0.7,7.1l-0.7,7.1l2.4,3.8
		c0.6,0.9,1.2,1.7,1.7,2.4h6.4C470.1,479.7,470.9,479.4,471.6,479.1z"/>
	<path fill="#FFFFFF" d="M57.1,228.4c-0.4,0.8-1.7,2.2-2.7,3.2c-1.7,1.4-2.1,2.2-2.6,5.4c-0.4,2.1-0.7,4-0.7,4.3
		c0,0.3,1.8,1.4,4.1,2.4c0.7,0.3,1.4,0.7,2.3,1.1c1.5-6.3,2.9-12.7,3.4-19.3C59,226.5,57.5,227.7,57.1,228.4z"/>
	<path fill="#FFFFFF" d="M300.3,225.2l-4.2,4.1c-8,7.8-12,10.1-21.7,12.7c-9.7,2.6-9.3,2.4-9.7,4.7c-0.3,1.7-0.9,2.4-4,4.8l-3.7,2.9
		l-7.2,0.8l-7.2,0.8l-7.1-2.8c-3.9-1.5-8.7-3.7-10.7-4.9c-3.1-1.8-4-2.1-6.9-2.1l-3.3-0.1l-0.4-0.4c0.4,2.1,0.7,4.1,0.9,5.9l4.6-0.3
		h0.1c2.4,18.3-0.9,63.3-47.4,71l0.1,4.8c-3.8,2.1-9.2,3.7-14.9,5c2.8,2.7,4.3,3.7,7.2,5c3.4,1.6,4.4,2.3,5.9,4.5
		c1.3,2,2.2,2.7,3.6,3c2.1,0.5,3.6,0.8,4.8,1.2L320,240L300.3,225.2z"/>
	<path fill="#FFFFFF" d="M154.7,308.1c40.3-1.9,49.2-29.1,51.2-45.7l-3.8-0.6l0-0.2H202l0-0.1l-4.3-21.7l8-2.6
		c-0.8-0.5-1.6-1-2.7-1.5c-4-2-4.3-2.3-8.2-7.7c-4-5.6-5-7.4-5-9.1c0-1.4,6.7-7.8,9.5-9.1c4.2-2,4.3-3.4,0.4-5.7
		c-1.5-0.9-3-2.1-3.1-2.7c-0.2-0.7,0.6-2.3,2.5-5c2.4-3.3,5-8.6,5-10c0-0.5-5.8-0.5-8.6-0.1c-1.4,0.3-2.1,0.7-2.3,1.5
		c-0.2,0.6-1.3,2.7-2.5,4.7c-1.7,3-2.6,3.9-4.8,5c-0.2,0.1-0.5,0.2-0.7,0.3c-2.6,16.5-3.9,33.3,2,48.8c0.5,2.8,1.2,5.4,1.4,8.3
		c2.2,8.4,2.8,19.7-2.2,27.2v0.8c-9.1,13.4-27.4,12.5-42.2,14.3c-5,0.5-10.1,1.4-14.6,3.3c0.8,0.4,1.6,0.8,2.5,1.2
		c10.4,5.1,13.6,7.1,16.6,10.6c2.3-0.6,4.4-1.3,6.2-2L154.7,308.1z"/>
	<path fill="#FF0000" d="M69.2,220.8c-0.1-1-0.1-2-0.2-2.9c-0.4,0.5-0.8,1.1-1.2,1.6c-2.1,2.9-3.3,4-6.2,5.5
		c-0.3,0.2-0.6,0.3-0.9,0.5c-0.4,6.6-1.9,13-3.4,19.3c1.9,1,4.1,2.2,5.5,3.1c0.5,0.3,1.2,0.7,2.1,1.2
		C66.8,239.8,69.8,230.7,69.2,220.8z"/>
	<path fill="#FF0000" d="M186.6,283v-0.8c5-7.5,4.3-18.8,2.2-27.2c-0.2-2.9-0.9-5.5-1.4-8.3c-5.8-15.5-4.6-32.3-2-48.8
		c-3.5,1.8-6.4,3.5-8.6,5.1c-2.3,14.1-3.5,28.3,1.6,42.2c0,1.5,0.8,2.8,1.1,4.2c1.8,10.5,3.4,24.4-7.3,30.8
		c-12,7.5-27.6,4.3-41.3,8.3c-2.8,0.7-6.6,3.3-8.4,5.1c-1.3-0.8-2.5-2.1-4.1-2.8c-3.2-1.7-6.7-2.8-10.4-3.5c0.7,0.8,1.6,1.8,2.8,3.3
		l4.2,5.1l3.8,0.6c2.8,0.4,5.2,1.3,11.1,4.2c4.5-1.9,9.6-2.8,14.6-3.3C159.2,295.5,177.5,296.4,186.6,283z"/>
	
		<rect x="83.7" y="255.5" transform="matrix(9.217446e-003 -1 1 9.217446e-003 -170.906 338.5504)" fill="#80CFE1" width="3.5" height="0"/>
	<polygon fill="#80CFE1" points="105.9,273.9 102.4,273.9 102.3,274.1 105.9,274.1 	"/>
	<path fill="#80CFE1" d="M122.3,293.6c1.9-1.8,5.6-4.3,8.4-5.1c13.8-4,29.3-0.8,41.3-8.3c10.7-6.5,9.1-20.3,7.3-30.8
		c-0.3-1.4-1.1-2.7-1.1-4.2c-5-13.9-3.8-28.1-1.6-42.2c-2.8,2-4.6,3.9-5.6,5.7c-0.2,0.4-0.4,0.8-0.7,1.2c1.4,1,2.6,2.2,3.5,3.2h-5.4
		c-0.1,0.1-0.2,0.2-0.2,0.3c-1.5,2.2-1.9,2.5-6.5,3.9c-6.1,1.8-12.4,2-18.2,0.5l18.9,12.2h-2.3v19v0.1v-0.1h-21.8l0,0.3l25.3,0.1
		v4.2h-1.4l0.2,20.3l-3.8,0v0.2h10.5l0.1,0.1v5.9h-68.4c-0.3,1.2-0.5,2-0.6,2.2c-0.2,0.7,0.4,1.1,3,2.1c2,0.7,2.9,1.2,4.5,2.9
		c3.7,0.7,7.2,1.8,10.4,3.5C119.8,291.6,121,292.8,122.3,293.6z"/>
	<path fill="#80CFE1" d="M80,253.7v-4.4l25.9,0.1l0-0.2H83.3v-19H81l29-18.8v-9.8h-2.8l2.1-1.5c-4.2-2-5.9-2.5-10.2-3.2
		c-0.4,0.4-0.9,0.8-1.4,1.1c0,1.9,1.9,3.2,1.8,5.2c-0.3,0.8,0,1.9-1.1,2.2c-1.5-0.3-2.8-0.4-4-1.2c-0.2-0.1-0.3-0.4-0.6-0.3
		c-0.2,0.7,0.9,1.3,1.3,2c-0.8,1.2-1.9,0.1-2.9,0.1c-0.3,0.8,0,1.6-0.8,2.1c-1.2,0-1.5-1.4-2.3-2.1c-0.8,0.8,0.6,1.3,0.8,2
		c-0.6,2.6-0.5,5.2-3,6.8l-1.8,0.8c-0.5-1.3-0.2-3.3-0.5-4.7c-0.9,1.7-1.9,3.2-3.3,4.6c-1.9-0.6-2.8-2.6-3.2-4.4
		c-0.8-2-0.3-4.3,1.2-5.8c-0.5-0.9-2.3-0.8-2.6-2.3c-2.3-1.5-3.7,1.5-5.1,1.3l-0.1,3.2c-0.2,3.9-0.5,7.5-0.7,7.9
		c-0.2,0.3-0.9,1.4-1.9,2.7c0.1,1,0.2,1.9,0.2,2.9c0.7,9.9-2.4,19-4.3,28.3c4,2.1,11.5,5.1,16.8,6.9v-2.2L80,253.7z"/>
	<polygon fill="#80CFE1" points="138.7,273.9 138.7,274.1 158.7,274.1 158.7,273.9 	"/>
	
		<line fill="none" stroke="#FFFFFF" stroke-width="0" stroke-linecap="round" stroke-linejoin="round" x1="160.3" y1="249.1" x2="160.3" y2="249.2"/>
	<path fill="#FFFFFF" d="M110,201.5v9.8l-29,18.8h2.3v19h22.5l0-7.4h32.5h0.1l0,7.4h21.8v-19h2.3l-18.9-12.2c-0.2,0-0.3-0.1-0.5-0.1
		c-4.3-1.2-12.7-5.5-20.3-10.4c-2.5-1.6-7.6-4.4-11.3-6.3c-0.8-0.4-1.6-0.8-2.2-1.1l-2.1,1.5H110z"/>
	<path fill="#FFFFFF" d="M169.3,274.2L169.3,274.2l-10.6-0.1h-20.1h-32.7h-3.6l-0.4,1.6c-0.4,1.6-0.8,3.2-1.1,4.4h68.4V274.2z"/>
	<path fill="#FFFFFF" d="M105.9,249.3L80,249.3v4.4l1.7,0v2.2c0.7,0.2,1.5,0.5,2.1,0.7c0.3,0.1,0.9,0.3,1.6,0.6l0-3.5h0l0,3.5
		c1.3,0.6,3.2,1.4,5,2.3c4.4,2.1,5.9,3.1,9.1,6.4l3.9,3.9l-0.9,4l3.5,0L105.9,249.3z"/>
	<polygon fill="#FFFFFF" points="158.7,273.9 158.7,274.1 158.7,273.9 162.6,273.9 162.4,253.7 163.8,253.7 163.8,249.5 
		138.5,249.4 138.7,273.9 	"/>
	<polygon fill="#FFFFFF" points="138.4,241.7 105.8,241.7 105.9,249.1 105.9,249.3 105.9,273.9 105.9,274.1 138.7,274.1 
		138.7,273.9 138.5,249.4 138.5,249.1 138.5,241.7 	"/>
	<path fill="#FFFFFF" d="M170.5,210c-0.6,1.1-1.3,2.3-2,3.2h5.4C173.1,212.1,171.9,211,170.5,210z"/>
	<path fill="#FFFF00" d="M172.3,322.3c-4.8,0.8-10,1.2-15.7,1.1l-1.6-13.1c-1.8,0.7-3.8,1.4-6.2,2c0.2,0.2,0.3,0.4,0.5,0.6
		c2.3,3,2.3,2.7,1.2,9.9c-0.3,1.7-0.1,2.1,4.9,7.1c0.8,0.8,1.5,1.5,2.1,2.1c5.8-1.2,11.1-2.9,14.9-5L172.3,322.3z"/>
	<path fill="#FFFF00" d="M202.1,261.6L202.1,261.6v0.2l3.8,0.6c0,0,0-0.1,0-0.1L202.1,261.6z"/>
	<path fill="#FFFF00" d="M202.1,261.5l4.5-8.8c0-0.1,0-0.3,0-0.4l8.5-0.6c-0.2-1.8-0.5-3.8-0.9-5.9l-3.2-3.7
		c-2.1-2.4-3.4-3.7-5.1-4.8l-8,2.6L202.1,261.5z"/>
	<path fill="#7E7E7E" d="M205.9,262.3c0.5-4,0.6-7.3,0.6-9.6l-4.5,8.8l0,0.1h0.1h0L205.9,262.3z"/>
	<path fill="#FFFF00" d="M200.4,298.2c-0.8-0.8-1.6-1.2-2.4-1.2c-0.8-0.1-1.4,0.2-2.2,0.9l-1.4,1.6l5.3,4.5l1.4-1.5
		c0.3-0.3,0.5-0.6,0.7-0.9c0.1-0.5,0.2-0.9,0-1.5C201.5,299.4,201,298.7,200.4,298.2z"/>
	<path fill="#FFFF00" d="M180.8,308.3c-0.3,0-0.7,0-1,0.2l-2.8,1l1.1,2.8l2.6-0.9c0.6-0.2,0.9-0.5,1.2-0.8c0.2-0.4,0.2-0.8,0-1.4
		C181.7,308.7,181.3,308.3,180.8,308.3z"/>
	<path fill="#FFFF00" d="M206.5,252.7c0,2.2-0.1,5.6-0.6,9.6c0,0,0,0.1,0,0.1c-2,16.6-10.9,43.8-51.2,45.7l0.3,2.3l1.6,13.1
		c5.7,0.1,11-0.3,15.7-1.1c46.6-7.7,49.8-52.7,47.4-71h-0.1l-4.6,0.3l-8.5,0.6C206.5,252.4,206.5,252.5,206.5,252.7z M172.7,318.6
		l-0.5-0.9l-0.9,0.9c-0.5,0.5-1.1,0.7-1.9,0.8c-1,0.2-2.1-0.1-3-0.7c-1-0.8-1.6-1.9-1.8-3.2c-0.3-1.3-0.1-2.6,0.7-3.8
		c0.7-0.9,1.7-1.5,2.8-1.6H168c0.9-0.1,1.7-0.1,2.3,0.1c0.9,0.4,1.6,1,2.1,2.2l-1.2,0.2c-0.2-0.5-0.6-1-1.1-1.2
		c-0.6-0.2-1.2-0.3-1.9-0.2c-0.8,0.1-1.4,0.6-1.9,1.2c-0.5,0.7-0.7,1.6-0.5,2.8c0.1,0.9,0.5,1.8,1.1,2.4c0.6,0.6,1.4,0.8,2.4,0.7
		c0.7-0.1,1.4-0.5,1.9-1c0.6-0.6,0.7-1.3,0.5-2.3l-2.8,0.5l-0.1-0.9l3.9-0.7l0.8,4.7H172.7z M185.6,314.7l-1.4,0.6L184,315l-0.3-0.7
		l-0.6-1.3c-0.3-0.6-0.7-0.8-1.1-0.9c-0.4,0-0.7,0.1-1,0.3l-2.6,0.9l1.3,3.5l0,0.1l-1.1,0.4l-3.2-8.3l3.9-1.4
		c0.6-0.2,1.2-0.3,1.8-0.3c0.9,0,1.5,0.6,1.9,1.5c0.2,0.5,0.2,0.9,0.2,1.3l-0.6,1.1c0.3,0,0.6,0.1,0.9,0.2c0.2,0.2,0.5,0.5,0.7,0.9
		l0.5,1.1c0.1,0.3,0.2,0.6,0.4,0.7c0.1,0.3,0.3,0.4,0.6,0.4V314.7z M190,312.5l-5-7.3l5.4-3.6l0.7,0.9l-4.5,2.8l1.5,2.3l4.2-2.6
		l0.6,0.8l-4.2,2.6l1.7,2.5l4.7-3l0.6,0.9L190,312.5z M202,302.9L202,302.9l-2.4,2.7l-6.8-5.9l2.4-2.6c0.8-0.9,1.8-1.3,2.9-1.2
		c1.1,0.1,2.1,0.6,2.9,1.3c0.7,0.5,1.2,1.2,1.6,2C203.3,300.7,203.1,301.8,202,302.9z M207.3,296.1L207.3,296.1l-7.8-4.6l0.7-0.9
		l7.8,4.6L207.3,296.1z M210.4,290.8L210.4,290.8l-8.4-3.4l2.4-5.9l1,0.4l-2,4.9l2.5,0.9l1.9-4.4l0.9,0.4l-1.9,4.5l2.8,1.1l2.2-4.9
		l0.9,0.4L210.4,290.8z M215.4,275l-8.2,2.8l7.2,1.6l-0.3,1.1h-0.1l-8.8-1.9l0.4-1.4l8.2-2.8l-7.2-1.6l0.3-1l8.8,1.9L215.4,275z
		 M216.6,263.6c0.4,0.8,0.6,1.5,0.5,2.5c-0.1,0.9-0.5,1.8-1.1,2.4c-0.7,0.6-1.4,0.8-2.4,0.7l0,0l0.1-1.1c0.6,0,0.9,0,1.3-0.2
		c0.7-0.4,0.9-1,1.1-2c0.1-0.4,0-0.9-0.1-1.3c-0.2-0.7-0.6-1.1-1.2-1.1c-0.6-0.1-0.9,0-1.1,0.3c-0.3,0.3-0.5,0.8-0.7,1.4l-0.5,1.1
		c-0.2,0.7-0.5,1.3-0.8,1.6c-0.4,0.6-0.9,0.8-1.7,0.7c-0.7,0-1.4-0.4-1.9-0.9c-0.6-0.6-0.8-1.4-0.7-2.4c0.1-0.9,0.4-1.7,0.9-2.3
		c0.5-0.6,1.2-0.9,2.3-0.8l-0.1,1.1c-0.5,0-0.9,0-1.1,0.3c-0.6,0.3-0.8,0.9-0.9,1.8c0,0.7,0,1.1,0.4,1.5c0.3,0.4,0.6,0.6,0.9,0.6
		c0.5,0,0.8,0,1-0.4l0.7-1.6l0.4-1.2c0.2-0.6,0.5-0.9,0.8-1.3c0.5-0.5,1.1-0.7,1.9-0.7C215.5,262.4,216.3,262.9,216.6,263.6z"/>
	<path fill="#009FC5" d="M185.1,314.2c-0.2-0.1-0.3-0.4-0.4-0.7l-0.5-1.1c-0.2-0.5-0.5-0.8-0.7-0.9c-0.3-0.1-0.6-0.2-0.9-0.2
		l0.6-1.1c0-0.4,0-0.8-0.2-1.3c-0.4-0.9-0.9-1.5-1.9-1.5c-0.6,0-1.2,0.1-1.8,0.3l-3.9,1.4l3.2,8.3l1.1-0.4l0-0.1l-1.3-3.5l2.6-0.9
		c0.3-0.2,0.7-0.3,1-0.3c0.5,0.1,0.8,0.4,1.1,0.9l0.6,1.3l0.3,0.7l0.2,0.3l1.4-0.6v-0.2C185.3,314.5,185.2,314.4,185.1,314.2z
		 M181.9,310.7c-0.3,0.3-0.7,0.6-1.2,0.8l-2.6,0.9l-1.1-2.8l2.8-1c0.4-0.2,0.8-0.2,1-0.2c0.6,0,0.9,0.4,1.1,0.9
		C182.1,309.8,182.1,310.3,181.9,310.7z"/>
	<polygon fill="#009FC5" points="190.4,311 188.7,308.4 192.9,305.8 192.4,305 188.2,307.6 186.7,305.3 191.2,302.5 190.5,301.6 
		185.1,305.2 190,312.5 195.7,308.9 195.1,308 	"/>
	<polygon fill="#009FC5" points="209.7,289.3 206.9,288.2 208.8,283.7 207.8,283.3 206,287.7 203.4,286.8 205.4,281.9 204.4,281.5 
		201.9,287.4 210.4,290.8 210.4,290.8 212.8,284.8 211.9,284.4 	"/>
	<polygon fill="#009FC5" points="199.5,291.5 207.3,296.2 207.3,296.1 207.9,295.1 200.2,290.5 	"/>
	<path fill="#009FC5" d="M201.1,297.2c-0.8-0.8-1.8-1.2-2.9-1.3c-1.1-0.1-2.1,0.3-2.9,1.2l-2.4,2.6l6.8,5.9l2.4-2.6v-0.1
		c1-1.1,1.2-2.3,0.7-3.8C202.3,298.4,201.8,297.7,201.1,297.2z M201.8,301.6c-0.2,0.3-0.4,0.7-0.7,0.9l-1.4,1.5l-5.3-4.5l1.4-1.6
		c0.8-0.8,1.4-1,2.2-0.9c0.8,0,1.6,0.5,2.4,1.2c0.6,0.5,1,1.1,1.3,1.9C201.9,300.7,201.8,301.1,201.8,301.6z"/>
	<path fill="#009FC5" d="M168.8,314.5l0.1,0.9l2.8-0.5c0.2,1,0.1,1.8-0.5,2.3c-0.5,0.6-1.1,0.9-1.9,1c-1,0.1-1.9-0.1-2.4-0.7
		c-0.6-0.7-1-1.5-1.1-2.4c-0.2-1.2,0-2.2,0.5-2.8c0.4-0.6,1.1-1.1,1.9-1.2c0.6-0.1,1.3-0.1,1.9,0.2c0.5,0.2,0.9,0.7,1.1,1.2l1.2-0.2
		c-0.5-1.1-1.1-1.8-2.1-2.2c-0.7-0.2-1.4-0.2-2.3-0.1h0.1c-1.1,0.1-2.2,0.7-2.8,1.6c-0.7,1.1-1,2.5-0.7,3.8c0.1,1.3,0.8,2.4,1.8,3.2
		c0.9,0.6,2,0.8,3,0.7c0.8-0.2,1.4-0.4,1.9-0.8l0.9-0.9l0.5,0.9h0.8l-0.8-4.7L168.8,314.5z"/>
	<polygon fill="#009FC5" points="206.6,272.8 213.8,274.4 205.7,277.2 205.3,278.6 214.1,280.5 214.2,280.5 214.5,279.4 
		207.3,277.8 215.4,275 215.7,273.7 206.9,271.8 	"/>
	<path fill="#009FC5" d="M212.6,263c-0.3,0.4-0.6,0.8-0.8,1.3l-0.4,1.2l-0.7,1.6c-0.2,0.4-0.6,0.4-1,0.4c-0.4,0-0.7-0.2-0.9-0.6
		c-0.4-0.4-0.4-0.8-0.4-1.5c0.1-0.8,0.4-1.5,0.9-1.8c0.2-0.3,0.7-0.3,1.1-0.3l0.1-1.1c-1-0.2-1.8,0.2-2.3,0.8
		c-0.6,0.6-0.8,1.3-0.9,2.3c-0.1,1,0.1,1.9,0.7,2.4c0.5,0.6,1.1,0.9,1.9,0.9c0.8,0.1,1.3-0.1,1.7-0.7c0.3-0.3,0.6-0.8,0.8-1.6
		l0.5-1.1c0.2-0.7,0.4-1.1,0.7-1.4c0.2-0.3,0.6-0.4,1.1-0.3c0.7,0,1,0.5,1.2,1.1c0.1,0.4,0.1,0.9,0.1,1.3c-0.2,0.9-0.5,1.6-1.1,2
		c-0.4,0.2-0.8,0.2-1.3,0.2l-0.1,1.1l0,0c1,0.1,1.8-0.1,2.4-0.7c0.7-0.6,1.1-1.5,1.1-2.4c0.1-1-0.1-1.8-0.5-2.5
		c-0.3-0.8-1-1.2-2.1-1.3C213.8,262.3,213.1,262.5,212.6,263z"/>
	<path fill="#008737" d="M76.8,202.8c0.3,1.5,2.2,1.3,2.6,2.3c-1.5,1.5-2,3.8-1.2,5.8c0.4,1.8,1.3,3.8,3.2,4.4
		c1.4-1.4,2.3-2.9,3.3-4.6c0.3,1.4,0,3.4,0.5,4.7l1.8-0.8c2.5-1.7,2.4-4.2,3-6.8c-0.2-0.7-1.6-1.1-0.8-2c0.8,0.7,1,2.1,2.3,2.1
		c0.8-0.5,0.5-1.3,0.8-2.1c1,0,2.2,1.1,2.9-0.1c-0.4-0.7-1.5-1.3-1.3-2c0.3-0.1,0.4,0.2,0.6,0.3c1.2,0.8,2.5,0.9,4,1.2
		c1.1-0.3,0.8-1.4,1.1-2.2c0.1-2-1.8-3.3-1.8-5.2c0.5-0.3,1-0.7,1.4-1.1c-0.2,0-0.3-0.1-0.5-0.1c-4.2-0.7-5.8-0.9-8.1-0.6
		c0,0.3,0,0.7-0.4,0.9l-1.1-0.3c0.1-0.1-0.1-0.2-0.2-0.4c-0.3,0-0.7,0.1-1,0.2c0,0,0,0,0,0c-0.1,0.1-0.1,0.1-0.2,0.2
		c0.3,0.4,0.9,0.7,0.8,1.1c-0.7,0.7-0.9-0.6-1.7-0.2c-0.3-0.1-0.2-0.5-0.3-0.9c-0.4,0.1-0.8,0.1-1.2,0.2c-0.1,0.1-0.2,0.2-0.5,0.1
		c-0.4,0.1-0.8,0.2-1.1,0.3c0.4,0.3,0.9,0.8,1.4,0.6c-0.5,2.2-2.1-0.1-2.8-0.2c0,0,0,0,0-0.1c-0.4,0.1-0.7,0.2-1,0.3
		c0,0.5-0.1,1.1,0.3,1.5c0.9-1.9,1.9,0.4,3,0.2c0.4,0.5,0.1,1,0.2,1.5c-1.4,0.4-3.1,0.8-4.3-0.3l-0.4,0.4c0.8,0.7,1.4,1.5,0.8,2.6
		c-1,0.2-2.7,0.3-3.2-0.8c-0.3-0.9,0.7-1.5-0.4-2.3c-0.7,0.9-0.7,2.1-2.1,1.2c-0.8-0.4-1.2-1.5-0.8-2.3l-2.6,0.5l-0.1,4
		C73.1,204.3,74.5,201.2,76.8,202.8z M89,198.1c0.4,0.5,0.7,1.4,1,2.1c-1.1,0.3-0.9-1.1-1.5-1.7L89,198.1z M81.9,202.3
		c1.3,0,2.9,0.3,3.5-1.2c0.4-1-0.7-2.1,0.3-2.8c1.4-0.4,2.2,0.6,2.8,1.4c0.3,0.8-0.8,1.4,0.2,1.9l0.8-0.7c0.8,0.2,1.7,0.4,2.3,1.1
		c0.6,1.6-1,1.6-1.9,2.1h-0.9c0.2-0.6-0.5-0.8-0.6-0.9c-0.4-0.1-0.8,0-1,0.3c0.2,0.9,1.4,1.9,0.2,2.7c-1.1,0-2.8,0.4-2.7-1.1
		c-0.4-0.9,1.1-2.2-0.5-2.3c-0.6,1.2-1.1,2.3-2.5,1.2L81.9,202.3z"/>
	<path fill="#008737" d="M78,198.9C78,198.9,78,198.9,78,198.9c-0.3,0-0.6,0.1-0.9,0.2C77.5,199.1,77.8,199.1,78,198.9z"/>
	<path fill="#FFFF00" d="M86.5,197.5c0.8-0.4,1,0.8,1.7,0.2c0.2-0.5-0.5-0.8-0.8-1.1c0.1-0.1,0.1-0.1,0.2-0.2
		c-0.5,0.1-0.9,0.1-1.4,0.2C86.3,197,86.2,197.4,86.5,197.5z"/>
	<path fill="#FFFF00" d="M85.1,196.9c-0.2,0-0.3,0.1-0.5,0.1C84.9,197,85,197,85.1,196.9z"/>
	<path fill="#FFFF00" d="M89,196.6l1.1,0.3c0.4-0.1,0.4-0.5,0.4-0.9c-0.5,0.1-1.1,0.1-1.7,0.2C88.9,196.4,89,196.5,89,196.6z"/>
	<path fill="#FFFF00" d="M75.2,201.9c1.4,0.8,1.4-0.3,2.1-1.2c1,0.8,0.1,1.3,0.4,2.3c0.5,1.1,2.2,1,3.2,0.8c0.6-1.1-0.1-2-0.8-2.6
		l0.4-0.4c1.2,1.1,2.9,0.7,4.3,0.3c-0.1-0.5,0.2-1-0.2-1.5c-1.1,0.2-2.1-2.1-3-0.2c-0.4-0.5-0.3-1-0.3-1.5c-0.1,0-0.2,0.1-0.3,0.1
		c-0.6,0.3-1.7,0.6-2.9,0.9c0,0,0,0,0,0c-0.2,0.2-0.5,0.2-0.9,0.2c-0.6,0.1-1.2,0.3-1.8,0.4l-0.9,0.2
		C74,200.5,74.4,201.5,75.2,201.9z"/>
	<path fill="#FFFFFF" d="M90,200.2c-0.4-0.7-0.7-1.6-1-2.1l-0.5,0.4C89.1,199,88.9,200.4,90,200.2z"/>
	<path fill="#FFFFFF" d="M84.9,197.8c-0.6,0.2-1-0.3-1.4-0.6c-0.5,0.1-0.9,0.2-1.3,0.4c0,0,0,0,0,0.1
		C82.9,197.7,84.5,200,84.9,197.8z"/>
	<path fill="#FFFF00" d="M84.3,202.8c1.6,0.1,0.1,1.3,0.5,2.3c-0.1,1.5,1.6,1.1,2.7,1.1c1.2-0.8,0-1.8-0.2-2.7
		c0.3-0.3,0.7-0.4,1-0.3c0.1,0.2,0.8,0.4,0.6,0.9h0.9c0.8-0.5,2.4-0.5,1.9-2.1c-0.6-0.8-1.4-0.9-2.3-1.1l-0.8,0.7
		c-0.9-0.5,0.1-1.1-0.2-1.9c-0.7-0.8-1.4-1.8-2.8-1.4c-0.9,0.8,0.1,1.8-0.3,2.8c-0.6,1.5-2.2,1.2-3.5,1.2l-0.2,1.7
		C83.2,205,83.7,204,84.3,202.8z M86.2,201.4c0.7-0.3,0.9,0.5,1.4,0.8c0.3,0.8-0.6,0.9-1,1.3c-0.6,0-0.9-0.2-1.3-0.6
		C84.9,201.9,85.7,201.8,86.2,201.4z"/>
	<path d="M86.5,203.4c0.5-0.4,1.3-0.5,1-1.3c-0.5-0.3-0.8-1-1.4-0.8c-0.5,0.4-1.2,0.6-0.9,1.5C85.6,203.3,86,203.4,86.5,203.4z
		 M86.7,202.7c-0.1,0.2-0.4,0.1-0.6,0.2l-0.2-0.9C86.4,201.9,86.9,202,86.7,202.7z"/>
	<path fill="#FFFFFF" d="M86.7,202.7c0.2-0.7-0.3-0.8-0.8-0.8l0.2,0.9C86.3,202.8,86.6,202.9,86.7,202.7z"/>
</g>
</svg>
