<?xml version="1.0" encoding="utf-8"?>
<!-- Generator: Adobe Illustrator 17.1.0, SVG Export Plug-In . SVG Version: 6.00 Build 0)  -->
<!DOCTYPE svg PUBLIC "-//W3C//DTD SVG 1.1//EN" "http://www.w3.org/Graphics/SVG/1.1/DTD/svg11.dtd">
<svg version="1.1" id="flag-icon-css-sz" xmlns="http://www.w3.org/2000/svg" xmlns:xlink="http://www.w3.org/1999/xlink" x="0px"
	 y="0px" viewBox="0 0 640 480" enable-background="new 0 0 640 480" xml:space="preserve">
<g>
	<path fill="#3E5EB9" d="M468,81.5c-0.2-0.1-5.7,1.7-12.5,4.2h14.8C469.1,83.4,468.2,81.5,468,81.5z"/>
	<path fill="#3E5EB9" d="M381.9,45.7c-31.3-24.6-57.2-44.7-57.7-44.6c-0.4,0-6.6,1.2-13.6,2.7l-12.8,2.7l-8.3,10l-8.2,10l-18.7,12.8
		l-18.7,12.8l-7.6,20.4l-4.9,13.2h201.4C423.1,78.1,403.8,63,381.9,45.7z"/>
	<path fill="#3E5EB9" d="M200.5,394.3l3.8,3.5l10.2,16l10.3,16l44.4,20.4l44.4,20.4l63.1,4.4c34.7,2.4,63.4,4.4,63.8,4.4
		c1.3,0,1.4-3.4,1.5-29.9l0.1-25.5l2.6-10.5c2.1-8.4,2.7-11.6,2.8-15.9c0.1-1.3,0.1-2.4,0.3-3.4H200.5z"/>
	<path fill="#FFD900" d="M494.2,107.1l1.9-3.7c1.4-2.6,1.7-3.8,1.3-3.9c-0.3-0.1-5-1.4-10.4-2.8c-9.3-2.5-9.8-2.6-10.9-1.8
		c-0.7,0.4-1.2,0.6-1.3,0.3c-0.5-1.4-2.7-6-4.4-9.5h-14.8c-0.6,0.2-1.2,0.4-1.7,0.6c-9.5,3.5-14,4.9-14.4,4.6
		c-0.1-0.1-2.5-2-6.6-5.2H231.4l-2.7,7.2l-6.6,11.4c-2.1,3.7-5.6,9.6-9.1,15.7h282.2L494.2,107.1z"/>
	<path fill="#FFD900" d="M450.3,384.3c1.3-4.4,2.8-10.7,3.3-14c0.3-1.9,1-5.8,1.9-10.3H181.4l-2.1,6.9l2.6,6.4l2.6,6.4l9.9,9.1
		l6.1,5.6h247.3C448.2,391.6,448.8,389.2,450.3,384.3z"/>
	<path fill="#B10C0C" d="M320,137.2C320,137.2,320,137.2,320,137.2C320,137.2,320,137.2,320,137.2c56.8,0,96,26.5,125.7,54.8h40.8
		l0.5-9.4l5.1-18.1l5-18.2l-1.5-19.6l-0.5-6.7H212.9c-2.6,4.4-5.2,9-7.5,12.9c-9.1,15.8-10.2,17.4-12.8,19.7
		c-1.6,1.4-6.5,5.6-11,9.4c-7.8,6.7-8.3,7.1-11.4,12.1c-2.3,3.8-4.6,6.5-8.3,10.3l-5.1,5.2l-0.9,2.3h41.3
		C229.3,163.7,270.3,137.2,320,137.2z"/>
	<path fill="#B10C0C" d="M168.7,219.4H147c-0.7,3.8-1.3,8.5-2.2,15.5h8.8C158.3,230.1,163.3,224.9,168.7,219.4z"/>
	<path fill="#B10C0C" d="M189.7,198.8h-36.3c-2.3,6.1-3.7,9.9-4.7,13.7h26.9C180,208,184.7,203.4,189.7,198.8z"/>
	<path fill="#B10C0C" d="M486.4,234.8h5.7l-0.2-0.4l-5.9-15.1h-13.9C477.1,224.9,481.9,230.1,486.4,234.8z"/>
	<path fill="#B10C0C" d="M465.8,212.5h19.6l0.7-12.6l0.1-1h-33.4C457.3,203.4,461.7,208,465.8,212.5z"/>
	<path fill="#B10C0C" d="M457.5,350.2l3.2-14.2l2-1.6c1.8-1.5,2.1-1.6,3.3-1.1c0.8,0.3,1.7,1.3,2.1,2.2c0.7,1.6,0.8,1.6,3,1.4
		c1.2-0.1,3-0.6,4.1-0.9c1.9-0.7,7.4-1,9.5-0.5c0.8,0.2,1,0.6,1,2c0,2.6,2,6.4,3.5,6.8c0.7,0.2,1.4,0.2,1.4,0.1s2-21,4.1-46.4
		l3.9-46.2l-2.6-6.6h-9.7c-29.1,30.6-67,81-132.6,94.4c-2.3,0.6-5.6,1.1-9.3,1.6c-7.8,1.1-16,1.7-24.6,1.7
		c-68.6,0-120.5-50.5-155.4-86.5c-3.8-4-7.5-7.7-10.9-11.2h-10.1l-2.5,19.2l0.4,24.5c0.4,20.1,0.6,25,1.2,27.5l0.8,2.9l2.3-0.3
		c2.1-0.3,2.6-0.6,4.5-2.6c2-2.2,2.2-2.3,4.3-2.3c1.8,0,2.6-0.4,5.3-2.2c3-2.1,3.3-2.4,4.3-5.2c0.6-1.7,1.1-2.9,1.1-2.8
		c0,0.1,0.6,4.1,1.2,8.9c0.7,4.7,1.5,9.5,1.9,10.6c0.9,2.6,5.4,7.7,8.5,9.7c1.3,0.9,3.7,2.8,5.3,4.3l3,2.8l-0.6,5.8
		c-0.5,4.4-1.1,7.6-2.8,13.4l-0.2,0.7h274.1C456.1,356.8,456.8,353.4,457.5,350.2z"/>
	<path fill="#FFD900" d="M148.5,240c1.6-1.6,3.3-3.4,5.1-5.2h-8.8c-0.2,1.9-0.5,3.9-0.8,6.1l-0.5,4.2h10.1
		C151.9,243.4,150.2,241.6,148.5,240z"/>
	<path fill="#FFD900" d="M491.4,240c-1.6,1.6-3.3,3.4-5,5.1h9.7l-4-10.3h-5.7C488.1,236.6,489.8,238.4,491.4,240z"/>
	<path fill="#FFD900" d="M452.8,198.8h33.4l0.4-6.9h-40.8C448.1,194.2,450.5,196.5,452.8,198.8z"/>
	<path fill="#FFD900" d="M197.3,192h-41.3l-2.5,6.5c0,0.1-0.1,0.2-0.1,0.3h36.3C192.1,196.5,194.7,194.2,197.3,192z"/>
	<path fill="#FFD900" d="M472.1,219.4H486l-0.9-2.2l0.3-4.6h-19.6C468,214.8,470.1,217.1,472.1,219.4z"/>
	<path fill="#FFD900" d="M175.5,212.5h-26.9c-0.6,2.2-1.1,4.3-1.6,6.9h21.6C170.9,217.1,173.2,214.8,175.5,212.5z"/>
	<path fill="#FFFFFF" d="M164.5,256.4c35,36,86.8,86.5,155.4,86.5c8.6,0,16.8-0.6,24.6-1.7c-7.4,1-16.8,1.7-24.6,1.7
		C251.4,342.8,199.6,292.4,164.5,256.4z"/>
	<path fill="#FFFFFF" d="M486.4,234.8c-4.5-4.8-9.2-10-14.3-15.5c-2.1-2.3-4.2-4.5-6.3-6.9c-4.1-4.5-8.5-9.1-13.1-13.7
		c-2.3-2.3-4.6-4.6-7-6.9c-29.7-28.3-68.9-54.8-125.8-54.8c0,0,0,0,0,0c-1,0.9-23.4,21.9-12,35.8v-0.1c9.2,10.3,1.5,14.4,11.3,15.1
		c10.1,0.8,4.3,10.9,12.9,11.3c6,0.2-0.7,24.1,5.2,32.1c5.9,8.2,10.8,2.3,10.9,8.3c0.1,6.1-15.9,5.5-16.2,24.4
		c-0.5,11-13.6,11.7-14.3,18.8c-0.8,6.6,25.8,10.3,25.5,16.2c-0.4,5.9-28.8,5-30,11.6c-0.6,6.1,39,11.1,42.2,28.5
		c-0.5,0.1-1,0.3-1.6,0.4c65.6-13.4,103.5-63.8,132.6-94.4c1.7-1.8,3.4-3.5,5-5.1C489.8,238.4,488.1,236.6,486.4,234.8z
		 M354.9,203.4h8.3v27.4h-8.3V203.4z M413.1,230.8h-8.3v-27.4h8.3V230.8z M396.5,230.8h-8.4l0.1-27.4h8.3V230.8z M379.8,230.8h-8.3
		v-27.4h8.3V230.8z M429.7,230.8h-8.3v-27.4h8.3V230.8z M338.3,230.8v-27.4h8.3v27.4H338.3z M346.6,276.6h-8.3v-27.4h8.3V276.6z
		 M363.2,276.6h-8.3v-27.4h8.3V276.6z M379.8,276.6h-8.3v-27.4h8.3V276.6z M396.5,276.6h-8.4l0.1-27.4h8.3V276.6z M413.1,276.6h-8.3
		v-27.4h8.3V276.6z M429.7,276.6h-8.3v-27.4h8.3V276.6z"/>
	<path d="M313.3,310.6c1.2-6.7,29.6-5.7,30-11.6c0.3-5.9-26.3-9.7-25.5-16.2c0.7-7,13.8-7.8,14.3-18.8c0.3-18.8,16.3-18.3,16.2-24.4
		c-0.1-6-5-0.2-10.9-8.3c-5.8-8,0.8-31.9-5.2-32.1c-8.6-0.4-2.8-10.5-12.9-11.3c-9.8-0.7-2.1-4.8-11.3-15.1v0.1
		c-11.5-13.9,11-34.9,12-35.8c0,0,0,0,0,0c-49.7,0-90.7,26.5-122.7,54.8c-2.6,2.3-5.1,4.6-7.6,6.9c-5,4.6-9.7,9.2-14.2,13.7
		c-2.3,2.3-4.6,4.6-6.8,6.9c-5.4,5.5-10.4,10.7-15.1,15.5c-1.7,1.8-3.4,3.5-5.1,5.2c1.6,1.6,3.3,3.4,5.1,5.2
		c3.4,3.5,7.1,7.3,10.9,11.2c35,36,86.8,86.4,155.5,86.4c7.8,0,17.1-0.7,24.6-1.7c3.7-0.5,7-1.1,9.3-1.6c0.6-0.1,1.1-0.3,1.6-0.4
		C352.3,321.7,312.7,316.7,313.3,310.6z M212.6,203.4h8.3v27.4h-8.3V203.4z M237.5,230.8h-8.3v-27.4h8.3V230.8z M299.5,201.4
		c-3.2-2-4.8-1.7-5.8-4.1c0,2.2,1.3,4,2.1,6.4v-0.3h8.3v27.4h-8.3v-23.3c-1.7-1.3-3.6-2.6-5.5-3.6c3,5.2-5.5,15.4-1.3,18.8
		c-0.5-0.1-1-0.2-1.6-0.3v8.4h-8.3v-11.7c-3.6-2.1-6.6-4.7-8.2-7.5c0,0-0.1,0-0.1,0.1v19.1h-8.3v-20.4c-2.3-2.3-4.2-4.8-3.7-6.2
		c-1.6,2.2-1.8,3.4-2.1,5.9c-0.9-0.9-1.7-1.7-2.5-2.6v23.3h-8.3v-27.4h4.8c-1.6-2.2-2.9-4.6-3.7-7.3l-3.9,4.9
		c-1.4-8.6-1.4-8.3,1.4-15.7c-2,1.4-3.8,2.8-5.6,4.4c2.5-14.1,11.7-26.5,25.5-34.3c-4.7,9.2,8.4-3,28.8,12.3
		c5.1,5.6,8.4,12.3,9.3,19.3c-4.3-0.9-12.1-5.2-12.1-5.2S299.5,190.9,299.5,201.4z M220.9,276.6h-8.3v-27.4h8.3V276.6z M237.5,276.6
		h-8.3v-27.4h8.3V276.6z M254.2,276.6h-8.3v-27.4h8.3V276.6z M270.9,276.6h-8.3v-27.4h8.3V276.6z M287.5,276.6h-8.3v-27.4h8.3V276.6
		z M304.1,276.6h-8.3v-27.4h8.3V276.6z"/>
	<rect x="212.6" y="203.4" fill="#FFFFFF" width="8.3" height="27.4"/>
	<path fill="#FFFFFF" d="M245.9,203.4v27.4h8.3v-23.3c-1.2-1.3-2.4-2.6-3.4-4H245.9z"/>
	<rect x="229.2" y="203.4" fill="#FFFFFF" width="8.3" height="27.4"/>
	<path fill="#FFFFFF" d="M269.1,216.2c0.1,0.1-3.5-2.7-6.6-5.8v20.4h8.3v-19.1C269.3,212.7,269.2,214.4,269.1,216.2z"/>
	<rect x="245.9" y="249.2" fill="#FFFFFF" width="8.3" height="27.4"/>
	<path fill="#FFFFFF" d="M295.8,207.5v23.3h8.3v-27.4h-8.3v0.3c0.4,1.2,0.7,2.6,0.7,4.4C296.3,207.9,296.1,207.7,295.8,207.5z"/>
	<rect x="262.5" y="249.2" fill="#FFFFFF" width="8.3" height="27.4"/>
	<rect x="229.2" y="249.2" fill="#FFFFFF" width="8.3" height="27.4"/>
	<rect x="212.6" y="249.2" fill="#FFFFFF" width="8.3" height="27.4"/>
	<rect x="279.1" y="249.2" fill="#FFFFFF" width="8.3" height="27.4"/>
	<rect x="295.8" y="249.2" fill="#FFFFFF" width="8.3" height="27.4"/>
	<path fill="#FFFFFF" d="M279.1,219.1v11.7h8.3v-8.4C284.6,221.8,281.7,220.6,279.1,219.1z"/>
	<polygon points="388.1,276.6 396.5,276.6 396.5,249.2 388.2,249.2 	"/>
	<polygon points="388.1,230.8 396.5,230.8 396.5,203.4 388.2,203.4 	"/>
	<rect x="354.9" y="249.2" width="8.3" height="27.4"/>
	<rect x="421.4" y="249.2" width="8.3" height="27.4"/>
	<rect x="404.8" y="249.2" width="8.3" height="27.4"/>
	<rect x="404.8" y="203.4" width="8.3" height="27.4"/>
	<rect x="354.9" y="203.4" width="8.3" height="27.4"/>
	<rect x="371.6" y="249.2" width="8.3" height="27.4"/>
	<rect x="338.3" y="249.2" width="8.3" height="27.4"/>
	<rect x="371.6" y="203.4" width="8.3" height="27.4"/>
	<rect x="421.4" y="203.4" width="8.3" height="27.4"/>
	<rect x="338.3" y="203.4" width="8.3" height="27.4"/>
	<path fill="#3D5DA7" d="M302.6,187.1c-0.9-7.1-4.2-13.8-9.3-19.3c-20.5-15.4-33.5-3.2-28.8-12.3c-13.7,7.8-23,20.3-25.5,34.3
		c1.8-1.5,3.7-3,5.6-4.4c-2.8,7.4-2.8,7.1-1.4,15.7l3.9-4.9c0.7,2.7,2,5,3.7,7.3c1,1.4,2.2,2.7,3.4,4c0.8,0.9,1.7,1.7,2.5,2.6
		c0.3-2.5,0.5-3.7,2.1-5.9c-0.5,1.5,1.4,3.9,3.7,6.2c3,3.1,6.7,5.9,6.6,5.8c0.2-1.8,0.3-3.5,1.8-4.5c0,0,0.1,0,0.1-0.1
		c1.6,2.8,4.6,5.5,8.2,7.5c2.6,1.5,5.4,2.6,8.3,3.3c0.5,0.1,1,0.2,1.6,0.3c-4.3-3.4,4.3-13.6,1.3-18.8c1.9,1.1,3.8,2.3,5.5,3.6
		c0.2,0.2,0.5,0.4,0.7,0.6c0-1.7-0.3-3.1-0.7-4.4c-0.8-2.5-2.1-4.2-2.1-6.4c1,2.4,2.6,2.1,5.8,4.1c0-10.5-9-19.5-9-19.5
		S298.2,186.2,302.6,187.1z M269.9,169.8c1.3-2.1,5.2,1.8,11.6,5.2c3.7,2,6.7,2,12.2,5c0.1,0,0.2,0,0.2,0l-0.1,0.1
		c-0.1,0-0.1-0.1-0.2-0.1c-7.9,0.5-10,0.2-16.6-2.8C270.4,174,268.6,171.9,269.9,169.8z M255.7,187.5c0.9-7.2-0.1-12.4,2.4-12.3
		s3.3,2.8,2.1,9.9c-1.3,7.1-2.3,8.9-7.3,15.1C253.6,194,255.2,191.5,255.7,187.5z M286.8,221.3c-5.5-3.5-6.9-4.5-9.8-9.6
		c-2.8-5.2-3-7.4-0.9-8.2c2-0.8,2.4,3.5,5.1,8.7C282.6,215.3,284.6,216.8,286.8,221.3L286.8,221.3z M266.1,211.9
		c-0.5-5.3,0.5-7.6,0.2-11.1c-0.6-6-2.4-10.1-0.3-10.5c2.3-0.4,3.4,1.6,3.6,7.8C269.8,204.2,269.3,205.8,266.1,211.9z M296.1,197.3
		c-6.9-0.9-8.6-1.4-13.6-5.2c-5-3.7-6-5.7-4.5-7.3c1.6-1.5,4,2.3,8.7,6.2C289.4,193.2,291.9,193.8,296.1,197.3z"/>
	<path fill="#A70000" d="M277.2,177.1c6.6,3.1,8.7,3.3,16.6,2.8c-5.5-3-8.5-3-12.2-5c-6.5-3.4-10.3-7.2-11.6-5.2
		C268.6,171.9,270.4,174,277.2,177.1z"/>
	<path fill="#A70000" d="M294,179.9c-0.1,0-0.2,0-0.2,0C293.8,179.9,293.9,180,294,179.9L294,179.9z"/>
	<path fill="#A70000" d="M278,184.8c-1.5,1.6-0.5,3.7,4.5,7.3c5,3.8,6.7,4.2,13.6,5.2c-4.2-3.5-6.7-4-9.4-6.3
		C282,187.1,279.6,183.3,278,184.8z"/>
	<path fill="#A70000" d="M260.2,185.2c1.2-7.1,0.5-9.8-2.1-9.9s-1.5,5.1-2.4,12.3c-0.5,4-2.1,6.5-2.8,12.8
		C257.8,194.1,258.9,192.3,260.2,185.2z"/>
	<path fill="#A70000" d="M266,190.3c-2.2,0.4-0.3,4.5,0.3,10.5c0.3,3.5-0.7,5.7-0.2,11.1c3.2-6.1,3.8-7.7,3.5-13.8
		C269.4,191.9,268.3,189.9,266,190.3z"/>
	<path fill="#A70000" d="M281.2,212.3c-2.6-5.3-3.1-9.5-5.1-8.7c-2.1,0.8-1.9,3,0.9,8.2c2.8,5.1,4.2,6.1,9.8,9.6v-0.1
		C284.6,216.8,282.6,215.3,281.2,212.3z"/>
</g>
</svg>
