<?xml version="1.0" encoding="utf-8"?>
<!-- Generator: Adobe Illustrator 17.1.0, SVG Export Plug-In . SVG Version: 6.00 Build 0)  -->
<!DOCTYPE svg PUBLIC "-//W3C//DTD SVG 1.1//EN" "http://www.w3.org/Graphics/SVG/1.1/DTD/svg11.dtd">
<svg version="1.1" id="flag-icon-css-tc" xmlns="http://www.w3.org/2000/svg" xmlns:xlink="http://www.w3.org/1999/xlink" x="0px"
	 y="0px" viewBox="0 0 640 480" enable-background="new 0 0 640 480" xml:space="preserve">
<g>
	<path fill="none" d="M545.2,195c-1.1,0.9-1.1,0.9,0.4,0.6c0.9-0.2,1.7-0.4,2.1-0.4c0.2,0,0.4-0.3,0.4-0.6
		C548.1,193.7,546.6,193.9,545.2,195z"/>
	<path fill="#000066" d="M602.7,150.6c0.4-1.2-2.2-0.9-2.6,0.2c-0.2,0.6-0.2,1.2-0.1,1.4C600.6,152.7,602.4,151.5,602.7,150.6z"/>
	<path fill="#000066" d="M605.2,145c-0.1-0.3-0.6-0.4-0.9-0.3c-0.9,0.4-1.1,2.7-0.2,2.7C604.9,147.3,605.6,145.8,605.2,145z"/>
	<path fill="#000066" d="M569.8,132.8c-2.3-0.4-2.5-0.4-3.7,0.2c-0.5,0.2-1.5,0.8-2.2,1.1c-0.7,0.4-3.1,0.9-5.2,1.1
		c-3.6,0.4-3.9,0.6-4.7,2.5c-0.7,1.7-1.3,2.1-3.4,2.4c-1.4,0.2-2.6,0.7-2.6,1c0,0.4-0.8,0.6-1.8,0.6c-1.6,0-2.1,0.4-3.8,3.9
		c-3.1,6.2-2.6,11.5,1.2,12.8c1.7,0.6,3.9,0.1,4.7-1.1c0.2-0.4,1-0.5,1.7-0.2c1.6,0.5,2.4-0.6,2.4-3.4c0-1.7,0.3-2.1,2.5-3
		c1.9-0.7,2.5-1.4,2.5-2.4c0-0.7,0.6-1.9,1.2-2.4c1.5-1.4,2.1-3.5,1-3.5c-0.5,0-1.1,0.4-1.4,1c-0.8,1.5-2,0.5-2-1.6
		c0-1.6,0.2-1.8,2.9-2.4c2.5-0.6,3.1-0.4,4,0.6c1.5,1.5,2.7,1.5,4.3-0.1c0.7-0.7,1.2-1.7,1.2-2.2c0-1.2,2.3-1.2,3,0.1
		c0.3,0.6,1.9,1.2,3.7,1.6c2.7,0.5,4,0.3,8.2-1.1c2.8-0.9,5.5-1.6,6.1-1.6c0.6,0,1.4-0.2,1.9-0.6c0.7-0.4,0.4-0.7-0.9-1.4
		c-1.5-0.7-2.1-0.8-3.4-0.1c-0.9,0.5-2.1,0.9-2.8,0.9c-0.7,0-1.9,0.4-2.8,0.9c-1.9,1.1-7.7,1.2-9.5,0.2c-0.9-0.5-1.1-1.1-0.9-2.1
		C571.7,133.4,571.4,133.1,569.8,132.8z"/>
	<path fill="#000066" d="M594.5,153.6c-0.7,0.3-3.4,0.6-5.9,0.6c-6.9,0.1-7.2,0.2-7.9,3.9c-0.7,3.4-0.9,3.1,4.6,7.3
		c1.5,1.2,2.7,1.7,3,1.4s1.5-1.2,2.9-1.9c1.3-0.7,2.4-1.7,2.4-2.2c0-0.6,1.2-2.4,2.7-4.1C600,154.1,599.1,151.6,594.5,153.6z"/>
	<path fill="#000066" d="M173.1,336.9c0,1.4,3.7,8.5,4.5,8.5c0.9,0,0.1-2.9-1.8-6C174.1,336.4,173.1,335.5,173.1,336.9z"/>
	<path fill="#000066" d="M584.3,168.9c-0.4-1-0.6-0.9-1.9,0.9c-0.8,1.1-1.7,2.7-1.9,3.6L580,175l-0.1-1.6c-0.1-0.9,0.3-2.1,0.8-2.7
		c0.7-0.9,0.7-1.5,0.1-3s-1.6-2.2-4.7-3.3c-5.3-1.9-9.9-2-11.6-0.1c-0.6,0.8-2.6,4.2-4.2,7.5c-2.7,5.4-3,6.4-2.6,8.7
		c0.5,3.3,3.9,7.4,10.7,13c2.6,2.1,4.7,4.3,5,4.9c0.3,1.1,0.6,1,2.6-0.8c3.5-3.1,4.2-4.9,3.7-9.8c-0.5-4.9,0.2-8,2.8-10.8
		C584.1,175,585.1,170.9,584.3,168.9z"/>
	<path fill="#000066" d="M43.7,301.7c0.6-3,0.6-2.9-0.9-2.6c-0.9,0.2-1.1,0.7-0.9,2.8C42,305.4,43.1,305.2,43.7,301.7z"/>
	<path fill="#000066" d="M16.3,341.9c-0.5-0.9-0.7-0.7-1.3,1c-0.9,2.7-0.9,5.6,0.1,5.6c1.1,0,2.4-2.3,1.6-2.8
		c-0.3-0.2-0.4-0.9-0.2-1.6C16.7,343.5,16.6,342.5,16.3,341.9z"/>
	<path fill="#000066" d="M32.4,348.1c0.3,0.4,0.9-0.2,1.5-1.6c1.4-2.9,2.2-4.2,4.2-6.9c0.9-1.2,1.7-2.6,1.7-2.9
		c0-0.4,0.6-1.1,1.4-1.6c1.1-0.8,1.2-1,0.3-1c-1.4-0.1-1.4-1.5-0.2-2.6c0.5-0.4,0.9-1.7,0.9-2.7c0-1.1,0.3-2.3,0.7-2.7
		c0.8-0.8,0-1-1.1-0.2c-0.4,0.2-0.8,0.9-1.1,1.5c-0.2,0.6-0.8,1.1-1.3,1.1c-1.3,0-3.5,3.3-3.5,5.2c0,0.9-0.4,2.4-1,3.2
		C33.7,339.1,31.7,347.5,32.4,348.1z"/>
	<path fill="#000066" d="M628.3,91c-6.5,2.4-14.6,7.6-20.4,13.3c-1.6,1.5-4.2,3.4-6,4.2c-8.2,3.9-17.8,10.3-17.8,11.8
		c0,0.4,0.8,1.4,1.7,2.1c1.5,1.1,1.7,1.6,1.5,3.4c-0.2,2.1-0.1,2.2,1.3,2.2c0.8,0,1.9-0.4,2.2-0.9c0.6-0.7,0.5-1-0.5-1.3
		c-1.6-0.5-1.7-2.1-0.3-2.6c0.6-0.2,1.6,0.3,2.7,1.3c0.9,0.9,1.9,1.6,2.2,1.6s1.4,0.6,2.4,1.4c2.6,1.8,5.7,2.9,7.3,2.5
		c0.9-0.2,1.2-0.9,1.2-2.3c0-1.7,0.3-2.1,2.2-2.8c1.2-0.4,2.5-1.4,2.8-2.2c1.2-2.6,3.7-3.4,16.8-5.4c4.7-0.7,6.7-1.8,8.3-4.7
		c1.4-2.6,2.9-10.2,2.9-14.8v-4.8l-2.3-1.6C634.1,89.8,631.8,89.7,628.3,91z"/>
	<path fill="#000066" d="M36.6,319.7c0.9-0.9,0.9-1.1-0.2-2.3c-1.2-1.3-1.7-1.5-2.4-0.8c-0.8,0.7-0.4,3.4,0.6,3.7
		C35.1,320.5,36,320.2,36.6,319.7z"/>
	<path fill="#000066" d="M119.2,351.6c-1-0.4-3-1.2-4.4-1.9c-7.2-3.2-8.4-3.6-8.4-2.5c0,1.1,5.6,6.2,6.7,6.2c1.6,0,4.5,4.7,4.5,7.2
		c0,1.2,0.3,2.1,0.6,2.1c0.4,0,0.6,0.4,0.6,0.8c0,0.5,1.1,1.7,2.4,2.7l2.3,1.9l-0.1-6.4C123.5,354.9,122.7,352.9,119.2,351.6z"/>
	<path fill="#000066" d="M91.8,308.7c0.5,0,0.7,0.5,0.5,1.2c-0.2,0.8,0.1,1.4,0.7,1.6c0.7,0.3,0.9,0.6,0.4,1.2
		c-0.7,0.9,0.9,1.6,3.9,1.6c1.6,0,2.4-1.4,1.1-2.2c-0.3-0.2-0.7-1.2-1-2.2c-0.2-1.1-0.8-1.9-1.2-1.9c-0.5,0-0.9-0.6-1.1-1.4
		c-0.1-1.1-0.6-1.4-2.2-1.2c-1.1,0.1-2.2-0.1-2.4-0.4c-0.6-0.9-1.6-0.7-2,0.4C88.1,306.4,90.3,308.7,91.8,308.7z"/>
	<path fill="#000066" d="M402.9,341.5l2.6,0.4c2.1,0.3,2.9,0.1,4-0.9c0.7-0.7,2.1-1.2,3.6-1.2c0.1,0,0.1,0,0.2,0
		c-0.7-2.9-1.3-5.9-1.8-8.9c-0.4,0.1-0.8,0.2-1.4,0.2c-2.8,0-6.5,1.7-6.5,3c0,0.5,0.4,1.4,1,2.1c0.9,1.1,0.9,1.3-0.3,3.2
		L402.9,341.5z"/>
	<path fill="#000066" d="M180,367.8c-1.4,0-1.9-0.3-2.1-1.4c-0.1-1-0.7-1.4-2-1.6c-1.4-0.2-1.7,0-1.4,0.8c0.2,0.6,0.4,1.3,0.4,1.6
		c0,0.3,1,1.6,2.2,2.8c2.1,2,4.2,3.2,7.7,4.3c1.3,0.4,1.3,0.3,0.6-0.9c-0.4-0.7-1.7-1.7-2.9-2.2c-1.8-0.8-2-1.1-1.4-2.2
		S181.7,367.8,180,367.8z"/>
	<path fill="#000066" d="M18.3,336.7c-0.5,1.4,0.4,2.8,1.5,2.2c0.4-0.2,0.7-1.1,0.7-2C20.5,335.1,18.9,334.9,18.3,336.7z"/>
	<path fill="#000066" d="M88.1,302.4c-0.4,0.7,1.4,1.4,2.2,0.9c0.3-0.2,0.4-0.6,0.2-0.9C90.1,301.6,88.6,301.6,88.1,302.4z"/>
	<path fill="#000066" d="M91.9,300.6c1,0,1-0.1-0.1-1.2c-1.2-1.4-1.5-1.4-2.7-0.7c-0.7,0.4-0.6,0.7,0.4,1.2
		C90.2,300.2,91.3,300.6,91.9,300.6z"/>
	<path fill="#000066" d="M151.3,336.5c0.5,1.3,1.2,2.1,1.9,2.1c2.1,0,1.9-1.2-0.7-4.5c-3.1-3.9-4.2-4.7-4.7-3.3
		c-0.2,0.7,0.2,1.6,1.2,2.4C149.8,333.9,150.9,335.4,151.3,336.5z"/>
	<path fill="#000066" d="M104,287.5c-0.8,0-1.3,0.6-1.6,1.9c-0.8,4.1-0.4,6.2,1.4,8c1,1,2.4,2.9,3.1,4.4c1.2,2.2,1.2,2.7,0.4,3.9
		c-0.9,1.2-0.7,1.6,1.3,4.3c1.6,2.2,2.6,3,3.7,3c1.4,0,1.4-0.2,0.9-1.2c-0.4-0.7-1.1-1.2-1.6-1.2c-0.9,0-1.3-1.4-0.9-2.8
		c0.1-0.4,0.3-1.7,0.4-3.2c0.2-2.1-0.1-2.8-1.4-4c-1-0.9-1.6-2.1-1.6-3.3c0-1.5-0.2-1.7-0.9-1.1c-1.1,0.9-2-0.2-1.7-1.9
		c0.1-0.6-0.1-1.7-0.5-2.4c-0.6-1-0.5-1.6,0-2.2C106.1,288.5,105.5,287.5,104,287.5z"/>
	<path fill="#000066" d="M135.8,341c0.7-1.2,0.1-1.8-2-1.8c-1.1,0-1.8,0.3-1.8,0.9C132,341.2,135.2,342,135.8,341z"/>
	<path fill="#000066" d="M107.5,318.6c1.7,0,1.9-5.9,0.2-6.9c-1.6-0.8-1.9-0.8-2.4,0.4c-0.2,0.6,0,1.2,0.4,1.5
		c0.6,0.3,0.6,0.8,0.1,1.6C105.3,316.5,106.3,318.6,107.5,318.6z"/>
	<path fill="#000066" d="M123.3,326.8c1.4,1.4,4.3,6.6,4.3,7.8c0,0.9,2.4,2.7,3.6,2.7c1.2,0,1-0.6-2.1-5.9c-5.5-9.1-6.4-10.3-7.7-11
		c-1-0.5-1.2-0.4-1.2,0.6c0,0.7,0.4,1.6,0.9,2c0.5,0.4,0.9,1.2,0.9,1.6C122,325.1,122.6,326,123.3,326.8z"/>
	<path fill="#000066" d="M11.3,376.5c-0.9,1.4-0.7,1.6,4,5.6c2.2,1.9,2.7,2.7,3,5.4c0.4,3.1,0.4,3.2-1.6,4.8l-2.1,1.7h1.6
		c0.9,0,2.1-0.6,2.7-1.2c0.6-0.6,2.1-1.4,3.2-1.6c3.7-0.7,6.5-2.6,11.7-7.6c1.2-1.1,3-2.1,4.4-2.4c1.2-0.2,2.8-0.9,3.4-1.6
		c0.6-0.6,2.1-1.3,3.4-1.6c1.3-0.2,2.9-1,3.6-1.7c0.6-0.6,1.7-1.2,2.4-1.2c0.7,0,2-0.4,2.8-1c0.8-0.5,2.6-0.9,3.9-0.9
		c3.9,0.2,4.3,0.1,6.7-1.8c1.6-1.2,3.2-1.9,5.8-2.2c2-0.2,4.5-0.8,5.7-1.3c1.1-0.4,3.6-1,5.3-1.2c1.8-0.2,3.6-0.6,3.9-0.9
		c0.4-0.2,2.7-0.7,5.3-1.2c2.6-0.4,5.5-1.1,6.5-1.4c1.5-0.5,2.6-0.4,5.6,0.7c2.1,0.7,4.6,1.6,5.7,1.7c2.7,0.4,6.2-1.7,6.6-4.1
		c0.2-1,0.6-2.5,0.8-3.4c0.3-1.4,0.2-1.6-0.6-1.2c-0.6,0.2-1.6-0.1-2.4-0.8c-0.7-0.7-1.9-1.4-2.4-1.6c-0.6-0.2-1.1-1-1.1-1.7
		c0-0.7-0.4-1.2-0.9-1.2s-1.8-0.8-2.9-1.9c-1.1-1-3-2.3-4.1-2.8c-1.1-0.6-2.1-1.2-2.1-1.6c0-0.4-0.4-0.6-0.9-0.6
		c-0.4,0-1-0.6-1.2-1.2c-0.2-0.7-0.9-1.3-2.1-1.4c-1.4-0.1-1.9-0.6-2-1.9c-0.2-1.3-0.6-1.8-1.9-2.1c-0.9-0.2-3.1-1.1-4.8-1.9
		c-4.4-2.2-10.3-2.2-13.1-0.1c-1.7,1.3-7.2,2.9-10.1,2.9c-1.4,0-0.9-2.2,0.7-3.7c1.7-1.7,1.9-2.7,0.7-5.6c-1-2.4-0.2-6.6,1.5-8.1
		c0.6-0.5,1.4-1.6,1.9-2.4c0.7-1.4,0.7-1.4-0.9-1.1s-1.6,0.3-1.6-2.4c0-2.9,1.6-5.3,3.4-5.3c0.5,0,0.9-0.6,0.9-1.2
		c0-1.6,0.5-1.6,2.4-0.1c1.2,0.9,1.4,1.3,0.7,2.4c-0.4,0.7-0.7,2.6-0.7,4.1c0,2.4,0.2,2.9,1.2,2.9c1.9,0,3.2,0.7,3.2,1.6
		c0,0.5,0.2,0.9,0.6,0.9c1,0,2.7,3.9,2.6,5.7c-0.1,1.1,0.2,1.9,1.1,2.4c1.1,0.6,1.3,0.5,1.3-0.3c0-0.5,0.2-0.9,0.5-0.9
		c0.3,0,0.9-1.1,1.4-2.4c0.9-2.7,1-2.4-5.1-9.7c-1.9-2.2-2.2-4.1-0.8-5.3c0.5-0.4,0.9-1.1,0.9-1.6c0-0.9-2.7-2.2-4.7-2.2
		c-1.1,0-1.7-0.4-1.9-1.2c-0.2-0.8-0.9-1.2-1.8-1.2c-1.7,0-1.8-0.3-0.5-3.5c1.2-2.9,1.8-3.4,4.7-3.4c2,0,2.4,0.2,2.7,1.6
		c0.6,2.4,1.9,3.2,3.4,1.9c1.3-1.2,1.6-3.1,0.6-3.7s-0.7-2.5,0.6-4.2c1.7-2.1,1.7-3.2-0.1-2.3c-1.9,1.1-2.4,0.1-0.6-1.2
		c1.3-1,1.4-1.4,0.9-2.4c-0.5-0.7-0.6-2.1-0.2-3.9c0.2-1.5,0.5-2.9,0.6-3.2c0-0.2,0.6-0.4,1.3-0.4c0.9,0,1.6,0.7,2.2,2.2
		c0.9,2.2,0.9,2.3-0.7,4c-1.9,1.9-1.6,3.2,0.4,1.9c1.6-1,1.9-0.9,1.9,0.5c0,0.7,0.6,1.6,1.2,2c1.1,0.7,1.1,0.8,0.2,1.6
		c-0.9,0.7-0.9,0.9-0.1,1.4c2.1,1.4,2.6-0.1,1.6-5.5c-0.4-2.4-0.4-2.6,0.8-2.6c0.7,0,1.4,0.2,1.6,0.6c0.6,0.9,2.6,0.7,3.4-0.3
		c1.1-1.3,1.9-1.2,1.9,0.3c0,1.7,1.8,2.4,2.8,1.1c0.8-1.1,2.2-1.3,4.4-0.7c1,0.2,1.2,0.7,1,1.7c-0.3,1.2-0.2,1.3,0.7,0.4
		c1-0.8,1.3-0.7,2.8,1.1c0.9,1.1,2.1,2,2.7,2c0.8,0,1.1,0.5,1.1,2c0,3.5,0.8,4,3.1,2.2c2.6-2.2,4-2.1,5.4,0.2c0.6,1,1.4,1.9,1.9,1.9
		c0.4,0,1.4,0.7,2.2,1.6c1.1,1.2,1.9,1.6,4.3,1.6c2.4,0,2.9,0.2,2.7,0.9c-0.2,0.5-1,0.9-1.8,0.9c-2.9,0-5.3,0.8-5.3,1.7
		c0,0.7,0.6,0.9,2.8,0.6c2.4-0.3,2.8-0.2,3.2,0.9c0.3,1.1,0.7,1.2,4.8,0.8c8.2-0.7,16.1-0.4,23.2,1.2c5.9,1.2,7,1.3,8,0.6
		c1.2-0.9,6.2-1.2,8-0.5c0.6,0.2,1,1.1,1,1.9c0,0.8,0.7,2.4,1.6,3.6c1.7,2.3,2,5.4,0.9,11l-0.6,3.4l2.3,2c1.9,1.6,2.9,2,5.2,2.1
		c1.8,0,3.2,0.4,3.7,0.9c0.4,0.5,1.4,0.9,2.1,0.9c0.8,0,1.7,0.7,2.4,1.9c0.6,1.1,1.6,1.9,2.2,1.9c1.4,0,9.2,5.5,10.3,7.2
		c1.2,1.8,1.6,4.2,1.1,6.2l-0.5,1.8l-2.6-3.4c-6.8-9.1-12.8-12.9-7.7-4.9c1,1.6,2.1,3.1,2.5,3.2c0.4,0.2,0.7,1,0.7,1.6
		c0,0.7,0.6,1.5,1.2,1.9c0.7,0.4,1.2,1.2,1.2,1.9c0,0.7,0.5,1.4,1.2,1.6c0.7,0.2,1.2,0.9,1.2,1.5s0.4,1.4,0.9,1.6
		c0.4,0.2,2.3,2.3,4.2,4.5c2.8,3.4,3.2,4.1,2.6,5.1c-0.4,0.6-0.7,1.9-0.7,2.7c0,1.2-0.5,1.7-2.2,2.2c-1.5,0.5-2.2,1.1-2.2,1.9
		c0,0.6,0.4,1.2,0.9,1.2c1.4,0,1.1,1.2-0.6,2.9c-1,0.9-1.6,2.1-1.6,3.2c0,1-0.6,2.6-1.2,3.4c-0.9,1.1-1.2,2.5-1.2,4.9
		c0,2.1-0.4,3.7-0.9,4.3c-1.2,1.3-1.4,6.9-0.5,10.4c0.6,2.5,0.6,2.7-0.5,2.7c-0.7,0-1.4-0.5-1.6-1.1c-0.7-2-3.3-3.9-5.4-3.9
		c-2.4,0-6.7-3.9-6.7-6.1c0-1.6-1.2-2.2-4.2-2.2c-1.1,0-2.1-0.3-2.1-0.7c0-0.4-0.7-1.1-1.6-1.4s-1.6-1.2-1.6-1.7
		c0-1.2-5.2-6.5-6.5-6.5c-0.6,0-1-0.3-1-0.6c0-1-5-6.2-5.7-5.9c-0.3,0.1-0.4,1.2-0.1,2.2c0.3,1.7,0.2,1.8-0.9,1.2
		c-1.8-1-6.8-5.9-7.2-7.1c-0.2-0.6-1.2-1.2-2.1-1.5c-0.9-0.2-2.3-0.9-3-1.5c-0.7-0.6-2.1-1.6-3.1-2.1c-1-0.5-2.9-1.9-4-3.2
		c-1.2-1.2-2.5-2.2-2.9-2.2s-1.2-0.8-1.7-1.9c-0.6-1.1-1.4-1.9-1.8-1.9c-0.3,0-1.9-1.1-3.4-2.5c-1.6-1.4-3.2-2.5-3.6-2.5
		c-0.4,0-1.2-1.1-1.7-2.5c-0.7-1.8-1.3-2.5-2.2-2.5c-0.7,0-1.6-0.5-1.9-1.1c-0.4-0.7-2-2.7-3.7-4.5c-2.9-3.2-3.2-3.4-5.9-3.2
		l-2.7,0.1l-0.7-2.8c-0.4-1.6-1.1-2.9-1.5-2.9c-1.7,0-6-6-6-8.3c0-0.5,0.7-1.7,1.5-2.7c1.6-1.9,1.5-3.3-0.2-3.3
		c-1.4,0-3.2-1.9-3.2-3.3c0-0.6-0.2-1.2-0.6-1.4c-0.3-0.2-1.1-1.4-1.7-2.7c-1-2-1.1-2.1-1.3-0.9c-0.3,2-3,3.9-5,3.6
		c-2.2-0.4-4.9,2-5.2,4.7c-0.2,1.6,0.2,2.8,2.1,5.7c1.3,2,2.4,4,2.4,4.5s0.4,1.2,0.8,1.4c0.5,0.2,1.7,2,2.6,3.8
		c2.2,4.2,8.7,9.2,10.8,8.4c0.4-0.2,1.8,0.3,3.1,1.1c1.2,0.8,3.3,1.4,4.5,1.4c1.9,0,2.6,0.4,4.7,3c1.5,1.9,2.9,3,3.8,3.1
		c0.7,0,1.5,0.5,1.7,1.1c0.2,0.6,1.9,2.3,3.8,3.8c1.9,1.5,3.4,3.1,3.4,3.6c0,0.5,0.4,0.9,0.9,0.9c0.4,0,1.1,0.4,1.4,0.8
		c0.2,0.5,0.9,1,1.5,1.2c0.6,0.2,1.4,1.7,1.8,3.4c1,3.7,1.6,4.5,3.5,4.5c0.8,0,1.8,0.6,2.2,1.2c0.4,0.7,1.4,1.2,2.2,1.2
		c0.9,0,1.4,0.4,1.4,0.9c0,0.5,0.3,0.9,0.6,0.9c0.4,0,0.6,0.4,0.6,0.9s0.6,0.9,1.2,0.9c0.9,0,1.2,0.4,1.2,1.3c0,0.7,0.5,1.4,1.2,1.6
		c1.6,0.4,1.6,2.1,0.1,2.1c-1.4,0-3-1.2-3.4-2.5c-0.2-0.6-1-0.9-2.8-0.7c-1.8,0.2-2.6-0.1-2.9-0.7c-0.2-0.5-1.4-1.4-2.5-1.9
		c-1.2-0.5-2.7-1.7-3.3-2.8c-0.6-1.1-1.8-2.1-2.6-2.3c-0.8-0.2-1.4-0.7-1.4-1.2c0-1.1-4.9-3.4-7.1-3.4c-2.1,0-2.1,1.5-0.1,2.8
		c0.8,0.6,1.6,1.6,1.8,2.2c0.2,0.7,0.9,1.2,1.6,1.2c0.7,0,1.6,0.6,2.1,1.2c0.4,0.7,1.1,1.2,1.6,1.2c0.4,0,0.8,0.7,0.8,1.5
		c0,1.2,0.4,1.6,1.7,1.7c1.2,0.1,1.8,0.7,2.4,2.4c0.6,1.6,1.2,2.3,2.6,2.7c1,0.3,2.7,0.8,3.7,1.2c1.1,0.4,5.5,0.9,10.1,1.1
		c7.5,0.4,8.3,0.5,9.8,1.9c1.7,1.7,2.2,3.8,0.7,3.8c-0.5,0-1.2,0.5-1.5,1.2c-1.1,2,1.8,2.8,11.1,3.2c6.7,0.2,8.3,0.5,8.2,1.2
		c-0.4,1.9,0.6,4.4,1.8,4.4c1,0,1.1,0.3,0.8,1.6c-0.3,1.2-0.1,1.6,1.2,2.1c1.6,0.6,2.9,3.4,2.9,6c0,1-0.5,1.6-1.6,1.8
		c-1.9,0.5-2.1,1.6-0.4,2.1c0.7,0.2,1.3,0.8,1.5,1.5c0.4,1.6,1.7,1.5,5.4-0.3c3-1.6,4.4-1.4,4.4,0.6c0,1.7,3.2,1.3,7.6-0.9
		c3.9-1.9,5.3-2.3,9.9-2.5c3.4-0.1,5.9,0,6.8,0.5c1.9,1,5.7-0.9,5-2.4c-3.1-6.4-3.2-8.1-0.3-10.9c1.2-1.2,2.2-2.6,2.2-3
		c0-0.4,0.6-2.4,1.3-4.2c1.9-5,2.4-6.7,3.4-11.8c1.3-6.1,2.7-9.5,3.7-8.7c0.6,0.5,0.5,1.1-0.4,2.6c-1.3,2.2-2.2,10.3-1.4,11.6
		c1.1,1.6,2.2,0.1,1.7-2.6c-0.3-1.7-0.1-3.2,0.8-5.2c1.4-3.1,1.9-3.3,3.1-1.5c0.4,0.7,1.2,1.2,1.7,1.2c0.6,0,0.9,0.6,0.9,1.6
		c0,1.5,2.1,3.3,2.7,2.4c0.2-0.3,0.1-2.6,0-5c-0.4-4.5-0.4-4.5-2.2-4.5c-1.4,0-1.7-0.2-1.5-1.1c0.2-0.6,0.5-1.9,0.7-2.9
		c1.9-7.7,11.4-21.1,18-25.3c8.5-5.4,9.8-5.7,9.5-2.6c-0.1,1.3,0.1,1.7,1.1,1.7c0.9,0,1.3-0.5,1.4-2.1c0.2-1.9,0.3-2,2.8-2
		c1.4,0.1,3.3,0.4,4.2,0.9c2,1.1,5,1.2,5,0.1c0-0.5-0.6-1.2-1.4-1.6l-1.4-0.7h1.4c0.7-0.1,2.1,0.2,2.9,0.6c0.9,0.3,1.6,0.4,1.6,0.1
		c0-0.2-0.9-0.7-2-1.1c-2.4-0.7-2.3-1.6,0.4-2.5s2.4-1.7-0.9-2.7c-7-2.1-7.5-2.9-1.1-1.7c3.4,0.6,4.2,0.6,4.2,0c0-0.4-0.2-1-0.6-1.2
		c-0.3-0.2-0.6-1.2-0.6-2.2c0-1.5-0.2-1.8-1.5-1.8c-0.8,0-4-1.4-7.3-3c-4.4-2.2-5.9-3.3-6-4.4c-0.2-1.9,2.2-2.7,6.9-2.5
		c3,0.1,3.7-0.1,4.9-1.2c1.2-1.4,3.3-1.7,5.2-1c1.6,0.6,1.2,1.7-1.8,4.6c-1.6,1.5-2.8,3-2.8,3.2s0.9,0.5,2.1,0.5
		c1.7,0,2.4,0.4,3.5,1.9c1.4,2.1,2.5,2.4,2.5,0.9c0-0.5,0.4-2.1,0.7-3.4c0.7-2.4,1.9-3.2,2.7-1.9c0.2,0.4,0.9,0.6,1.6,0.6
		c0.7,0,1.2,0.6,1.6,1.7c0.2,0.9,0.9,2.4,1.6,3.3c1.1,1.5,1.1,1.7,0.2,2.6c-0.7,0.7-0.8,1.4-0.2,3.7c0.7,2.7,1.2,12,0.7,13.5
		c-0.1,0.4-0.9,0.8-1.7,0.8c-1.7,0-2-1.6-0.7-3.8c0.6-1.1,0.6-1.4,0-1.6c-0.4-0.2-0.8-1.1-0.8-2.1c0-2.6-0.6-3.7-1.9-3.7
		c-0.7,0-1.2-0.4-1.2-1.2c0-0.6-0.4-1.6-1-2c-0.6-0.4-1.2-1.5-1.6-2.2c-0.4-1.2-0.7-1.4-1.8-0.8c-1.1,0.6-1.2,1.1-0.9,3.5
		c0.2,1.9,0.1,3.1-0.4,3.7c-0.6,0.7-0.6,1.1-0.1,1.6s0.5,1.1,0.1,1.9c-1,1.9-0.2,3,2.1,3c2.5,0,4.4,1.7,3.8,3.4
		c-0.6,1.3,0.7,2.2,3.2,2.2c2.1,0,6.2,3.7,4.7,4.2c-0.6,0.2-0.6,0.6,0.2,1.8c0.6,0.9,1.1,3.5,1.2,6.9c0.5,8.2,0.9,11,2.2,12.3
		c0.6,0.7,1.2,1.7,1.4,2.3c0.6,1.7,5,1.5,6.7-0.3c0.7-0.7,1.6-1.7,1.9-2c3.4-3.2,6.8-7,6.8-7.6c0-0.4,2.1-1.7,4.5-2.9
		c3.9-1.9,5.4-2.2,10.6-2.6c4.9-0.4,6-0.6,5.7-1.3c-0.2-0.5-0.3-1.1-0.3-1.2s-0.6-0.2-1.2-0.2c-1.6,0-8.7-3.6-8.7-4.3
		c0-0.3-1.1-2-2.5-3.7c-2.6-3.2-3.1-4.7-1.9-5.4c1.1-0.7-0.6-2.2-2.3-2.2c-0.8,0-3.5,1-5.9,2.2s-4.5,2.1-4.7,1.9
		c-0.6-0.6,2.4-4.2,4.3-5.2c0.9-0.5,1.7-1.4,1.7-1.9c0-0.7,0.3-0.9,1.1-0.6c2.1,0.9,7.6,1.1,9.4,0.4c0.9-0.4,2.1-1.4,2.4-2.3
		c0.6-1.1,1.2-1.5,2.7-1.5c2.4,0,3.2,0.4,4.2,2.3c0.5,1,0.6,1.8,0.1,2.6c-0.3,0.7-0.6,2-0.6,3c0,4.2-1.5,5.8-6.2,6.4l-2.7,0.3
		l2.6,2.9c2.1,2.4,3.3,3.1,6.9,4.2c2.4,0.7,4.7,1.3,5.2,1.3c0.4,0,1.4,0.4,2.1,0.9c1.2,0.9,1.2,1-0.2,2.3c-1.2,1.2-1.6,1.3-2.7,0.6
		c-1.3-0.8-1.6-0.7-3.8,1.9l-2.4,2.7l2.7,1.4c4.2,2.2,5.6,1.9,8.2-1.6c1.2-1.7,3.3-3.9,4.6-4.8c1.3-1,2.7-2.3,3.2-2.9
		c0.4-0.6,1.2-1.1,1.7-1.1c0.4,0,2-0.9,3.4-2.1c1.4-1.2,3.6-2.5,4.9-2.9c1.2-0.4,3.1-1.2,3.9-1.9c2.7-1.9,6.8-3,12.8-3.4
		c4.5-0.3,6-0.2,7.6,0.6c1.1,0.6,2.9,1,4.1,1c3.4,0,5.4,1.1,5.4,3.2c0,2.6,2.6,3.7,4.5,1.9c1-0.9,2-1.5,4.2-1.8
		c-0.8-2.5-1.5-5-2.2-7.5c-0.7,0.1-1.4,0-1.8-0.1c-0.9-0.4-1.9-0.3-2.6,0.1c-0.7,0.4-1.3,0.4-1.9-0.1s-1.4-0.4-3.1,0.2
		c-2.1,0.9-2.4,0.9-4.6-0.2c-2.1-1.1-2.3-1.4-2.1-3.1c0.2-1.2,0-1.9-0.5-1.9c-0.4,0-1.7-0.4-2.9-1c-2.5-1.2-5.6-0.8-7.9,1
		c-1.7,1.4-7.3,1.8-7.3,0.6c0-1.1-4-0.2-6.3,1.3c-1,0.7-3,1.5-4.4,1.7c-1.4,0.2-3.1,0.9-3.9,1.8c-0.7,0.8-1.7,1.5-2.1,1.5
		c-1.7,0-4,2.6-4,4.6c0,2.5-1.6,4.7-3.2,4.7c-0.7,0-2.2-0.7-3.4-1.6s-2.2-1.6-2.6-1.6c-0.2,0-0.9-0.2-1.4-0.6
		c-0.7-0.4-0.4-1.1,1.7-3.1c2.5-2.4,2.9-2.6,6.3-2.6c2.1,0,3.9-0.3,4.1-0.7c0.4-0.6-0.9-2-2.5-2.6c-1.6-0.6,0.4-1.2,3.4-1.1
		c2.9,0.1,3.1,0,3.1-1.5c0-1.3,0.3-1.6,1.8-1.6c1.1,0,2.1-0.3,2.2-0.6c0.2-0.4,1.3-0.5,2.6-0.2c2,0.4,2.1,0.2,2.1-1.2
		c0-1.6,0.8-2.2,1.6-0.9c0.9,1.4,8.1-1.2,8.7-3.2c0.2-0.7,0.6-1.2,0.9-1.2c0.9,0,3.4-2.7,4.2-4.5c0.7-1.7,0.8-1.8,4.5-1.4
		c5.7,0.7,8.2,0,9.9-2.5c0.9-1.4,2.3-2.4,3.7-2.9c1.1-0.4,1.8-0.7,2.4-1.5c-1-8.7-1.5-17.6-1.5-26.6v-6.7c-0.6,0.3-1.1,0.6-1.7,0.9
		c-2.7,1.4-6,3.6-7.2,4.9c-1.3,1.2-2.8,2.3-3.4,2.3c-0.6,0-2.1,0.6-3.2,1.3c-2,1.2-2.7,1.3-9,0.9c-5.9-0.4-7.8-0.8-12.3-2.6
		c-2.9-1.2-6.7-3-8.5-3.9c-10.3-6-15.8-8.7-18.6-9.1l-2.9-0.4l-5.2,4.7l-5.1,4.7l-4.4-0.4c-2.4-0.2-5.3-0.8-6.5-1.3
		c-1.1-0.5-2.9-0.9-3.8-0.9s-2.1-0.4-2.5-0.9c-0.4-0.5-1.6-0.9-2.6-0.9s-2.9-0.6-4.1-1.2c-1.3-0.7-3.5-1.4-4.8-1.7
		c-1.4-0.2-3.5-0.9-4.7-1.5c-1.2-0.6-4.5-2-7.5-3.1s-6.4-2.8-7.6-3.8s-2.7-1.8-3.2-1.8c-1,0-1.7,2.6-1.7,6.6c0,2.2-0.2,2.6-1,2.3
		c-0.8-0.3-0.9-0.9-0.6-3.1c0.4-3,0.6-2.9-6.9-3.7c-4.6-0.6-7-1.7-7.5-3.7s-12-11.7-16.2-13.6c-1.1-0.5-3.1-2.5-4.6-4.4
		c-1.5-1.9-3.6-4.3-4.7-5.2c-1.1-0.9-2.4-2.6-3-3.7c-0.6-1.1-2.7-3.1-4.7-4.5s-4.2-3.4-4.9-4.5c-0.5-0.8-1-1.6-1.4-2.2H218h-12.5
		h-37.3h-12.5h-114H27.8h-5.6c-1.6,2.2-4.1,4.5-7.5,6.9c-7.8,5.6-9.5,8.3-6.2,9.7c3.2,1.3,4.5,2.1,4.9,3.1c0.2,0.5,0.6,5.3,0.8,10.7
		c0.3,8.4,0.6,10,1.6,11.1s1.1,1.6,0.5,2.9c-0.4,0.8-0.7,3-0.7,4.8c0.1,3,0.1,3.1,0.9,2.1c0.5-0.7,1.1-2.2,1.3-3.4
		c0.2-1.2,0.6-3,0.9-3.9c0.4-1.3,0.2-1.9-1-3.1c-1.9-1.8-1.9-2.7,0.4-6.1c2.1-3.1,2.3-4.1,1-4.9c-1.2-0.7-2.9-4.2-2.9-6.2
		c0-1-0.5-2.8-1.2-4c-1.2-2.4-1.1-5.5,0.1-5.5c0.4,0,1.1-0.4,1.6-0.9c0.6-0.4,1.8-1,2.8-1.2l1.8-0.4l-0.4,3.4
		c-0.6,5,0.1,7.3,1.9,7.3c1.3,0,1.5,0.3,1.5,2.2s0.2,2.2,1.2,1.8c0.7-0.2,1.2-0.1,1.2,0.2c0,0.7-1.7,5-2.6,6.6
		c-3.1,5.4-5.5,14.6-3.4,12.9c0.5-0.4,1-1.5,1.2-2.4c0.4-2.1,1.7-5.6,3.8-10.1l1.6-3.4l-0.4,3.4c-0.2,1.9-0.6,3.9-0.8,4.4
		s-0.2,1.6-0.1,2.4c0.4,1.3,0.5,1.2,1.8-1.3c0.9-2,1.4-3.9,1.4-6.6c0-2.7,0.2-3.8,0.9-4.1c0.8-0.3,0.9,0.1,0.6,2.7l-0.4,3.1l2.7-0.6
		c3.3-0.7,4.9-2.1,4.9-4.1c0-1.4,0.2-1.5,1.9-1.1c1.7,0.4,1.9,0.2,1.9-1.2c0-1.2,0.2-1.6,1.1-1.4c1.5,0.3,1.6,2.5,0.4,6.4
		c-1.2,3.8-0.9,7.3,0.7,9.1c1.4,1.6,0.9,8.6-1.1,12.5c-0.9,1.8-1.2,3.3-0.9,4c0.4,0.9,1.1,0,3.1-4.1c2.4-4.9,2.6-5.7,2.8-11.5
		c0.2-5,0.4-6.2,1.3-6.4c0.8-0.2,0.9-0.9,0.7-3.1c-0.1-2.2,0-2.7,0.6-2.6c0.5,0.2,0.9,0.8,1.1,1.5c0.1,0.6,0.7,2.4,1.3,4
		c0.7,1.6,1.7,4.1,2.2,5.7l1,2.9l2.1-1.3c1.9-1.2,2.1-1.7,2.2-4c0-1.4,0.3-3.4,0.7-4.2c0.9-2,0.2-2.7-1.2-1.4c-1.7,1.6-2,1.3-2-1.4
		c0-2.8,0.1-2.9,2.2-1.5c1.7,1.1,2.8,0.7,2.8-0.9c0-0.6,0.2-1.4,0.6-1.9c0.4-0.7,0.9-0.6,2.6,0.6c1.4,1,2.2,1.2,2.7,0.7
		c0.7-0.7-0.9-2.9-2.7-3.5c-0.7-0.2-1.2-0.7-1.2-1.1s-0.8-1.6-1.8-2.7c-2.6-3-3.2-7.6-1.3-10.6c0.9-1.6,1.3-2.9,1.1-4.7
		c-0.1-2,0.1-2.7,1-3.3c0.9-0.6,1.2-0.5,1.5,0.2c0.2,0.5,1,1.6,1.7,2.4c1.1,1.1,1.5,2.2,1.5,4.1c0,1.5-0.3,3-0.7,3.4
		c-0.7,0.7,0.7,5.9,1.9,7.3c0.3,0.4,0.7,1.9,0.9,3.4c0.2,1.6,0.6,3.5,0.9,4.4c0.9,2.6,1.2,7.5,0.6,7.5c-0.3,0-0.9-1.1-1.2-2.6
		c-0.6-2.2-0.9-2.5-2.1-2.2c-0.8,0.2-2-0.1-2.7-0.6c-3-2.1-3.6,1.1-0.7,3.8c2.1,2.1,3,4.4,3.7,10.3c0.3,2.2,0.9,5.2,1.3,6.7
		c1.6,5.1-2.4,16.6-12,34.6c-1.4,2.8-1.6,3.4-1.1,5.2c0.3,1,0.4,4.4,0.4,7.5c-0.1,5.2-0.2,5.6-1.5,5.8c-0.8,0.1-1.6,0.9-2.1,2.1
		l-0.8,1.9l-0.6-1.7c-0.6-1.9-2.7-2.1-2.6-0.2c0,0.6,0.1,3.1,0.1,5.5l0.1,4.4l1.6-1c1.5-1,1.6-0.9,1.6,0.1c0,0.6-0.7,1.8-1.6,2.6
		c-0.9,0.8-1.6,2-1.6,2.6c0,1.8-4.2,7.9-5.8,8.5c-0.8,0.3-2,1.4-2.6,2.4c-1.4,2.2-4.1,5.2-4.8,5.2c-0.9,0-0.6-3.6,0.4-4.4
		c0.5-0.4,0.9-1.3,0.9-1.9s0.6-1.5,1.2-1.9c1.7-1.1,1.7-3.6,0-3.6c-0.6,0-1.5,0.5-1.9,1.1c-0.5,0.8-0.8,0.9-1,0.4
		c-0.5-1.2-5.2-0.3-6.9,1.2c-1.5,1.4-3.1,4.7-2.5,5.3c0.2,0.2,0.9,0,1.5-0.4c0.6-0.4-0.2,0.5-1.9,2.1c-2.5,2.5-4.8,3.7-4.8,2.6
		c0-0.7,1.5-3.4,2-3.4c0.2,0,1-0.9,1.6-2.1c0.6-1.1,1.8-3.3,2.6-4.8c1.1-1.9,1.2-2.5,0.4-1.9c-1.3,1.1-1.2,0.7,0.5-3.4
		c0.9-1.9,1.4-3.4,1.1-3.4c-1.6,0-5,5.4-5,8c0,1.7-1.4,4.3-4.7,8.7c-2.9,3.8-3.8,4.2-5.5,2.3c-0.8-0.9-1.7-1.6-2.2-1.6
		c-0.8,0-0.9-0.7-0.1-3.9c0.7-3.3-0.1-2.9-2.4,1.1l-1.9,3.4l-3.6,0.2l-3.6,0.2v2.2v2.2l4.4,0.5C10.8,373.6,12.5,374.6,11.3,376.5z"
		/>
	<path fill="#000066" d="M130.4,359.7c0-1.2-0.4-1.6-1.6-1.7c-0.9-0.1-2.1-0.8-2.7-1.6c-1.1-1.4-1.1-1.3-0.7,1.4
		c0.6,4.2,0.6,4.3,2.9,3.8C130.1,361.3,130.4,360.9,130.4,359.7z"/>
	<path fill="#000066" d="M16,286.7c-0.7,0.7-0.4,2.1,0.8,3.7c0.7,1,1.2,2.6,1.2,4c0,2.7,1.6,6.1,2.9,6.1c1.1,0,1-0.9-0.1-2.7
		c-0.5-0.7-1.1-2.7-1.3-4.4c-0.2-1.7-0.9-3.6-1.6-4.2c-0.7-0.7-1.1-1.7-0.9-2.2C17.4,286.2,16.7,285.9,16,286.7z"/>
	<path fill="#000066" d="M578.4,210.4c-0.6-1.2-2.1-3.1-3.4-3.9c-2.3-1.7-2.4-1.7-3.8-0.5c-0.8,0.6-1.9,1.2-2.4,1.2
		c-1.4,0-6.4-2.5-6.4-3.2c0-0.3-0.6-0.6-1.2-0.6s-1.3-0.4-1.5-0.9c-0.2-0.5-1.1-1.2-2.1-1.7c-1.2-0.6-1.9-1.4-2.1-2.8
		c-0.2-1.1-1-2.5-2-3.2c-0.9-0.7-1.8-2.2-2.1-3.2c-0.2-1-1.1-2.5-1.7-3.3c-0.7-0.7-1.9-2-2.5-2.8l-1.1-1.4l-3.3,2.5
		c-2.2,1.7-3.2,2.7-3.1,3.6c0.4,2.1,1.3,2.5,3.2,1.4c1-0.6,2-0.8,2.1-0.6c0.2,0.2-0.7,0.8-1.9,1.2c-1.1,0.4-2.1,1.1-2.1,1.4
		c0,1.4,1.3,3.1,2.1,2.6c0.5-0.3,0.5-0.1-0.1,0.6c-0.6,0.7-0.6,1.3-0.1,2.6c0.9,2.1,1.2,2.1,3.7-0.2c1.1-1.1,2.2-1.7,2.3-1.6
		c0.2,0.2-0.7,1.2-1.9,2.2c-1.2,1.1-2.2,2.5-2.2,3.1c0,3.3-1.4,1.1-3.7-6c-2.6-7.6-2.6-7.9-2.2-13.4c0.4-4.9,0.6-5.5,1.6-5.5
		c1.5,0,1.6,2.9,0.2,4.7c-0.9,1.1-1.3,4-0.6,4c0.2,0,1.6-0.9,3.2-1.9c2.2-1.5,2.7-2.2,2.5-3.3c-0.2-0.7-0.6-3.7-0.7-6.7
		c-0.6-7.2-1.1-7.4-7.9-2.7c-2.1,1.4-4.4,3.7-5.5,5.5c-1.1,1.7-3.3,4.2-5,5.7c-2.1,1.9-3.1,3.2-3.2,4.5c-0.3,2.6-2.1,5.7-4.9,9
		c-1.4,1.5-2.4,3.1-2.4,3.5c0,0.4-1.8,2.9-4,5.5c-3.1,3.7-3.8,4.6-4.1,7h71.6C579.3,212,578.8,211.2,578.4,210.4z M547.6,195.3
		c-0.3,0-1.2,0.2-2.1,0.4c-1.5,0.3-1.5,0.3-0.4-0.6c1.4-1.1,2.9-1.3,2.9-0.4C548.1,195,547.9,195.3,547.6,195.3z"/>
	<path fill="#000066" d="M15.6,338.3c1.1-0.1,1.5-0.6,1.9-2.7c0.4-2.5,3.7-8.3,4.7-8.3c0.2,0,0.9-0.8,1.5-1.8
		c0.8-1.4,0.9-2.1,0.3-2.8c-0.6-0.9-1-0.5-2.6,2.4c-1,1.9-2,3.4-2.2,3.4c-0.9,0-5,6.7-5,8.2C14.3,338.1,14.6,338.4,15.6,338.3z"/>
	<path fill="#000066" d="M21.3,316.6c0.9,0.2,1.1-0.3,1.1-3.8c0-2.8,0.5-5.5,1.7-8.9c1.6-4.6,1.9-7.1,0.8-7.1
		c-0.2,0-0.9,1.1-1.5,2.3c-0.6,1.3-1.4,3.1-1.9,3.9c-0.5,0.9-1.4,3.5-1.9,5.9C18.6,313.6,19.1,316.2,21.3,316.6z"/>
	<path fill="#000066" d="M82.6,77.3L59,62.6c-0.1,0.8,0.1,1.7,0.5,2.5c0.7,1.4,0.5,1.8-1.6,4.2c-1.7,2-2.5,2.4-3.1,1.9
		c-0.5-0.5-0.9-0.5-1.6,0.2c-1,1.1-1.8,3.7-2.1,6.1L82.6,77.3C82.7,77.4,82.7,77.4,82.6,77.3z"/>
	<polygon fill="#000066" points="41.7,232.2 155.7,232.2 155.7,161.4 	"/>
	<path fill="#000066" d="M222.2,232.2c-2.1-3.2-3.2-4.5-3.7-4.5c-0.3,0-0.5-0.2-0.6-0.4v4.9H222.2z"/>
	<path fill="#000066" d="M49.2,154.8c-0.9,2.5-2.1,4.7-3.5,6.4c-2.4,2.8-2.6,3.9-1.2,5.7c1.1,1.4,1.2,4.5,0.3,5
		c-0.3,0.2-0.6,0.8-0.6,1.4c0,1.3-1.9,5.2-3.4,7.6l42-26.1H49.2z"/>
	<polygon fill="#FFFFFF" points="155.7,154.8 152.4,154.8 27.8,232.2 41.7,232.2 155.7,161.4 	"/>
	<path fill="#FFFFFF" d="M82.7,154.8l-42,26.1c-0.6,0.9-1.1,1.6-1.5,1.8c-0.9,0.5-1.3,1.4-1.3,2.9c0,1.2-0.2,2.3-0.6,2.6
		c-0.3,0.2-1.3,1.7-2.2,3.3c-1.6,2.7-1.6,3.3-1.2,7.7c0.4,4.3,0.3,5-0.9,6.5c-1.5,1.9-1.7,4.1-0.4,5.2c0.2,0.2,0.4,0.4,0.5,0.8
		l91.5-56.8H82.7z"/>
	<path fill="#FFFFFF" d="M76.3,73.2c-0.5,0-1.3-0.6-1.7-1.2c-0.4-0.7-1.1-1.2-1.5-1.2c-0.4,0-1.2-0.7-1.7-1.4
		c-0.6-0.9-2.6-2.1-4.6-2.9c-4.8-1.8-5.7-2.6-5.9-5c-0.1-1.7-0.3-1.9-0.9-1.2c-0.6,0.7-0.9,1.6-1,2.5l23.6,14.7
		C80.1,75.1,77.3,73.2,76.3,73.2z"/>
	<path fill="#FFFFFF" d="M218,232.2v-4.9c0-0.1-0.1-0.2-0.1-0.2c0-0.4-1.6-2.2-3.4-4c-1.9-1.8-4-4.5-4.6-6.1c-0.7-1.6-1.7-3-2.4-3.2
		c-0.4-0.2-1.2-1.2-2-2.6v21.1H218z"/>
	<path fill="#FFFFFF" d="M91.2,86.9c-1.2-0.9-2.8-2.7-3.6-4.2c-0.7-1.3-2.7-3.4-4.9-5.3H51.1c-0.3,2-0.2,3.8,0.5,4.2
		c0.3,0.2,0.4,0.7,0.2,1.2c-0.2,0.5,0.1,1.8,0.7,3c0.6,1.1,1.3,3.3,1.6,4.9c0.2,1,0.2,1.7,0.2,2.2h40.4C94,90.4,92.7,88,91.2,86.9z"
		/>
	<path fill="#FFFFFF" d="M124.6,154.8h27.8h3.3v6.6v70.8h12.5v-74.7c-0.9-0.6-1.9-1.1-3.1-1.7c-1.9-1-3.8-2.5-4.4-3.6
		c-0.6-1-1.3-1.8-1.6-1.8c-0.8,0-7.2-7.1-8.5-9.3c-0.3-0.5-0.7-1.2-1.2-1.9H54.3c-0.8,1.6-1.4,2.7-1.4,3c0,0.3-0.4,0.7-0.9,0.9
		c-0.5,0.2-1,1.9-1.2,4.4c-0.3,2.6-0.8,5.1-1.6,7.3h33.6H124.6z"/>
	<path fill="#CC0000" d="M152.4,154.8h-27.8l-91.5,56.8c0.4,1.2-0.2,3.4-1.8,8.2c-1.7,5-4.2,8.5-5.9,8.5c-0.7,0-1.4,0.6-1.7,1.4
		c-0.3,0.8-0.8,1.7-1.5,2.5h5.6L152.4,154.8z"/>
	<path fill="#CC0000" d="M205.5,232.2v-21.1c-0.4-0.7-0.8-1.4-1.1-2.2c-1.2-2.4-2.6-4.6-3.3-5c-0.6-0.3-1.2-0.9-1.2-1.2
		c0-0.3-1.1-2.4-2.5-4.5c-1.4-2.2-2.5-4.3-2.5-4.7c0-0.4-1-1.8-2.2-3.1c-1.2-1.2-2.4-3.1-2.8-4.3c-0.4-1.2-0.9-2.1-1.2-2.1
		c-0.7,0-5.7-5.1-5.7-5.9c0-0.4-1.4-2.8-3.2-5.4c-1.8-2.6-4.2-6.4-5.5-8.5c-1.9-3.3-3.5-5.1-6.1-6.8v74.7H205.5z"/>
	<path fill="#CC0000" d="M149.5,139.3c-2.4-3.5-6.7-8.2-7.7-8.2c-0.6,0-1.5-0.6-2-1.2c-0.4-0.6-2.4-2.1-4.2-3.2
		c-1.9-1.1-4.2-2.7-5.2-3.4c-3.2-2.2-8.3-4.6-10-4.6c-0.9,0-3.2-1-5.2-2.2c-2-1.2-4.7-2.3-6.1-2.6c-1.6-0.2-3.1-1-3.9-1.9
		c-0.7-0.8-1.6-1.5-1.9-1.5c-0.3,0-1.1-1.1-1.8-2.4c-0.7-1.3-1.7-2.8-2.3-3.3c-1.4-1.1-4-6.7-4-8.5c0-1.1-0.2-2.3-0.5-3.5H54.4
		c-0.1,0.8-0.4,1.3-1,1.9c-1,1.1-1.2,1.9-0.9,4c0.6,5,1.7,7,4.7,8.7L60,109l-0.1,3.2c-0.1,1.9-0.7,4.5-1.6,6.2
		c-1.2,2.5-1.4,3.4-0.9,5.5c1.4,6.6,1.4,7.3-1.7,12.6c-0.5,1-1,1.9-1.5,2.7H149.5z"/>
	<path fill="#FFFFFF" d="M423.3,351.9c-1.2-3.6-2.2-7.3-3.1-11c-0.2,0.3-0.1,0.9,0.2,1.3c0.6,1-3.2,2.5-5.8,2.7
		c0.7,2.5,1.4,5,2.2,7.5C418.2,352.3,420.2,352.1,423.3,351.9z"/>
	<path fill="#FFFFFF" d="M417.9,336.6c0-0.4-0.6-2.6-1.4-4.9c-1-3.1-1.8-4.5-2.9-4.9c-1.9-0.9-2-0.9-2.4,0.3
		c-0.2,0.5-0.1,1.2,0.4,1.7c1,1,0.9,1.8-0.2,2.1c0.5,3,1.1,5.9,1.8,8.9C415.4,339.7,417.9,338.1,417.9,336.6z"/>
	<path fill="#FFFFFF" d="M587.4,219.3c-2.5-0.5-5-1.3-5.5-1.8c-0.8-0.8-0.7-0.9,0.8-0.6l1.7,0.3l-1.4-1.9c-0.7-1.1-1.9-2.1-2.4-2.2
		c-0.2-0.1-0.5-0.3-0.8-0.6h-71.6c-0.1,0.7-0.2,1.5-0.3,2.6c-0.2,2.4-0.3,4.1-0.6,5.4h86.1C592.5,220.3,589.9,219.8,587.4,219.3z"/>
	<path fill="#FFFFFF" d="M409.6,318.9c0.3-0.4,0.6-1,1-1.8c0.6-1.4,1.1-3.1,1.1-3.7s0.4-1.2,0.9-1.4c0.5-0.2,0.9-0.7,0.9-1.2
		c0-0.5,0.7-0.8,2-0.9c-0.3-4.9-0.5-9.9-0.5-14.9v-13.1c-2.1,1.2-4.4,2.5-6.9,3.8v6.7C408.1,301.3,408.6,310.2,409.6,318.9z"/>
	<path fill="#FFFFFF" d="M419.4,337.9c-0.2,0.4-0.1,1.1,0.3,1.6c0,0.1,0.1,0.1,0.1,0.2C419.7,339.1,419.6,338.5,419.4,337.9
		C419.5,337.9,419.4,337.9,419.4,337.9z"/>
	<path fill="#FFFFFF" d="M600.7,216.8c-2.6,0.4-3.1,0.2-5.1-1.6c-1.8-1.6-2.6-1.9-4.2-1.6c-2.1,0.4-4,1.9-3.3,2.6
		c0.2,0.2,1.1,0.1,2-0.2c1.3-0.6,1.7-0.6,2.7,0.4c0.6,0.6,1.8,1.6,2.6,2.1c1.3,0.9,1.4,1.2,0.6,1.7c-0.2,0.1-0.4,0.2-0.7,0.3h5.7
		C604.4,217.2,604.3,216.2,600.7,216.8z"/>
	<path fill="#FDC300" d="M415.5,309.9c0.1,0,0.2,0,0.3,0c1.2,0,2.7-0.2,3.3-0.6c1.3-0.7,5.6-0.9,9-0.3c1.6,0.2,3,0.1,4-0.4
		c1.5-0.8,5.7-0.9,16.8-0.5c2.7,0.1,3.5-0.1,5.6-1.8c1-0.8,2.4-1.6,3.5-2c-1.1-1.9-2.3-3.8-3.5-5.1c-3.5-4.7-4.3-2.7-6.6-5.1
		c-2.3-2.7-5.9-4.7-11.3-7c-3.1-1.6-6.3-2.7-8.2-8.2c0.4-2.3,3.1-3.9,4.3-4.7c2-0.8,3.9-3.1,3.9-5.5c0.2-1,0.6-1.9,1.1-2.8
		c-1.3,1-2.8,2.1-4.1,2.9c-2.2,1.5-6,4.4-8.4,6.3c-2.8,2.3-6,4.4-10,6.8V295C415,300,415.2,305,415.5,309.9z"/>
	<path fill="#FDC300" d="M424.8,351.9l7.4-0.3v1.8c0,1.1,0.4,2,0.9,2.2c0.5,0.2,1,1.1,1.1,2.1c0.1,1.4,0.6,1.8,1.9,1.9
		c0.9,0.1,1.7-0.1,1.7-0.3c0-0.3,0.4-1.1,0.9-1.7c0.8-1.2,0.9-1.2,2.3,0.2c0.8,0.7,2.1,1.7,2.7,2.2c1.7,1.2,0.9,5.2-1.2,6
		c-0.8,0.3-1.5,0.9-1.5,1.2c0,0.8,5.9,2.6,8.6,2.6c1.4,0,2.5,0.4,3.2,1.3l1.1,1.4l1.7-1.7c1.4-1.4,1.9-1.6,3.7-1.1
		c1.1,0.2,3.6,0.4,5.5,0.4c3.4,0,3.4,0,4-2.3c0.9-3.4,2.6-4.7,6.9-5.7c5.3-1.2,5.1-2.6-0.4-2.8c-3.7-0.2-4.7,0.1-8.8,2
		c-3.7,1.8-5,2.1-6.9,1.8c-2.1-0.3-2.6-0.7-3.9-3.2c-1.6-3.2-3.5-4.4-7-4.4c-1.4,0-3.2-0.6-4.6-1.6c-1.2-0.9-2.6-1.6-2.9-1.6
		c-0.4,0-0.8-1-1-2.2c-0.4-2.3-0.9-2.6-2.8-1.6c-0.9,0.4-1.4,0.2-2.2-0.6c-0.9-1-1.6-1.2-3.1-0.9c-2.6,0.4-3.6-1.4-1.6-3
		c1.4-1.1,1.6-2.4,0.7-4.3c-0.6-0.9-1.4-1.2-4.4-1.2c-2,0-3.9-0.3-4-0.6c-0.5-0.8-2.6-0.8-3.1,0c0.1,0.6,0.3,1.2,0.4,1.8
		c0.3,0.5,0.4,1,0.3,1.2c0,0,0,0,0,0c0.9,3.7,1.9,7.4,3.1,11C423.7,351.9,424.3,351.9,424.8,351.9z"/>
	<path fill="#FDC300" d="M487.3,256.1c-0.4,1.6,0.4,2.7,2,3.9c1.6,1.2,2.3,2.7,2.3,5.1c-0.5,1.9-0.2,3.8,0.8,5.5
		c0.8,2,2.3,3.1,1.6,5.9c-0.5,2.4-0.4,5,0.3,7.4c0.4-0.2,0.8-0.3,1.5-0.5l2.4-0.7l-1.2,1.7c-0.6,0.9-1.4,2.4-1.6,3.5
		c-0.2,1-1.1,2.5-1.8,3.4c-1.1,1.1-1.5,2.6-1.7,5c-0.3,4-6,17.9-8.7,21.1c-0.9,1.1-1.7,2.7-1.7,3.4c0,1.7-1.1,2.9-2.8,2.9
		c-2,0-3.7,4.2-3.1,7.3c0.2,1.3,0.6,3.1,0.7,4.1c0.2,0.9-0.1,2.6-0.7,3.8c-0.6,1.2-1,2.4-1,2.7c0,0.4,1.2,2.3,2.8,4.4
		c1.8,2.4,2.7,4.1,2.4,4.7c-0.6,1.6-1.9,1.2-2.7-0.9c-0.6-1.6-1.1-1.9-2.9-1.9s-2.1,0.2-2.1,1.2c0,1.7-1.6,2.2-3.4,1
		c-2-1.3-2.2-1.3-2.2,0.7c0,3.1,1.4,4.9,3.7,4.9c1.2,0,3.1,0.4,4.2,0.9c1.8,0.7,2.2,0.7,3.9-0.3l1.9-1.1l0.6,1.9
		c0,0.1,0,0.1,0.1,0.2c0.1-0.1,0.3-0.2,0.5-0.3c3.5-1.6,0-4.7,3.1-5.9c2.7-1.6,0-4.7,2.7-5.9c3.1-1.2,0.8-4.7,3.5-5.5
		c1.6-0.8,1.4-1.9,1.4-3.2c-0.8-1-0.4-2,0.5-3.1c0.3-0.4,0.7-0.7,1.2-0.7c0.5-21.1,4.3-28.6,16.4-28.6c6.7,0,11,2.5,13.5,8.7
		c3.7-5.9,6.3-10.2,6.8-11.4c0.4-1,1.3-2.8,2.4-5.1c-0.3-6.8-0.8-14.7-1.1-21.8c-7.7,0.5-16.3,5.3-17.5,4.3c0-1,7.5-6.6,17.4-7.1
		c-0.1-2.2-0.2-4.3-0.2-6.2c-8-1.4-18-0.9-19.3-1.9c0-0.9,9.7-2.7,19.2-1.4c0-0.8,0-1.5,0-2.1c0-2,0.2-3.9,0.5-5.6
		c-7.9-2.4-17.6-2.5-18.8-3.6c0-1,10.2-1.6,19.6,0.7c0.6-1.9,1.5-3.5,2.5-5c-6.6-4.5-13.8-9.7-13.8-10.8c1.2-0.9,7.4,3,16.1,8.3
		c2.2-2,4.7-3.2,7.3-3.6c0.6-4.2,4.4-9.6,6.6-10.5c-0.8-1.7-1.3-3-1.1-3.6c4.2,4.2,6.6,9.6,6.6,15.1c0,1.7-0.1,3.3-0.2,4.6
		c0.7,1.5,1.2,3.3,1.2,5.2c0,0,0,0,0,0c0,0,0,0.3,0,0.4c0,0.1,0,0.1,0,0.2c0-0.1,0-0.1,0-0.2c0,0,0-0.4,0-0.4c0,0,0,0,0,0
		c0.1-1.9,0.5-3.7,1.2-5.2c-0.1-1.3-0.2-2.8-0.2-4.6c0-5.5,2.4-10.9,6.6-15.1c0.2,0.7-0.4,1.9-1.1,3.6c2.2,0.8,6,6.3,6.6,10.5
		c1.9,0.3,3.7,1,5.4,2.1c3-4,5.5-6.3,7.3-6.5c1.1-0.1,2.2-1.1,3.4-3.1c2.2-3.5,4.6-4,5.8-1.4c0.7,1.6,2,2.1,2,0.9
		c0-0.4,0.6-1.2,1.3-1.7c0.9-0.7,1.4-2,1.6-4.2c0.3-2.7,0.7-3.6,3.1-5.9c0.1-0.1,0.2-0.2,0.3-0.3h-5.7c-0.5,0.1-1.2,0.1-1.8,0
		c0,0-0.1,0-0.1,0h-86.1c-0.5,2.5-1.2,3.6-3.2,5.9c-1.5,1.7-2.7,3.5-2.7,3.8c0,0.3-1,1.7-2.2,3c-1.7,1.9-2.3,3.2-2.6,5.7
		c-0.4,3.1-0.7,3.6-4.5,7.4c-3.2,3.2-5,5-6.8,6C486.5,253.5,487.3,254.6,487.3,256.1z"/>
	<path fill="#FDC300" d="M462.9,343.4c1.2-0.1,2-0.6,2-1.1c0-1.1-3.8-2.8-4.4-1.9c-0.2,0.4-0.2,1.2,0,1.9
		C460.9,343.3,461.4,343.5,462.9,343.4z"/>
	<path fill="#FDC300" d="M553.5,250.7c0.1-0.6,0.2-1.2,0.3-1.9c-1.1-2.7-3.5-4.5-6.4-4.8C548.6,246.5,551.5,249.1,553.5,250.7z"/>
	<path fill="#FDC300" d="M535.9,252.8c0.6,0.2,1.1,0.4,1.7,0.6c3.7,1.7,6.8,3.2,9.2,4.5c0,0,0.1-0.1,0.1-0.1c0.2-0.3,0.5-0.8,1-1.4
		c-2.6-2.1-6.4-5.1-10-7.6C537.1,249.9,536.4,251.2,535.9,252.8z"/>
	<path fill="#FDC300" d="M534.6,260.2c0,0.8-0.1,1.7-0.1,2.7c1,0.2,2,0.5,3,0.8c2.8,0.9,5.2,1.7,7.2,2.4c0.2-1,0.4-1.9,0.8-2.4
		c0,0,0,0,0.1,0c0,0-0.1-0.1-0.1-0.1s0-1.3,0.2-2.6c-2.9-1.6-6.8-3.6-10.7-5.3C534.9,257.2,534.7,258.6,534.6,260.2z"/>
	<path fill="#FDC300" d="M540.3,246.1c4.5,2.8,8,5.6,10.3,7.6c0.3-0.2,0.6-0.4,0.9-0.6c-1.9-1.9-5.2-5.7-6.5-9.1
		C543.3,244.4,541.7,245,540.3,246.1z"/>
	<path fill="#FDC300" d="M534.6,271.9c0.3,0,0.7,0,1,0.1c3.4,0.3,6.2,1,8.6,1.7c-0.2-1.4-0.3-3.3,0.3-4h0c0,0,0-0.1,0-0.2
		c-2.8-1.1-6.4-2.2-10-3.1C534.6,268,534.6,269.9,534.6,271.9z"/>
	<path fill="#FDC300" d="M534.7,274.7c0.1,5.5,0.3,11.5,0.5,17.2c0.6-1.3,1.3-2.5,2-3.8c2.8-5.2,4.5-8.6,5.9-11.5
		c-2.4-0.9-5.2-1.6-8.3-2C534.8,274.7,534.7,274.7,534.7,274.7z"/>
	<path fill="#FDC300" d="M568.1,244c-3,0.2-5.4,2.1-6.4,4.8c0.1,0.7,0.2,1.3,0.3,1.9C564,249.1,566.9,246.5,568.1,244z"/>
	<path fill="#FDC300" d="M561,241.7c0,0.5,0,1.1,0.1,1.7c1.9-1.8,4.5-2.9,7.6-2.9c-0.5-3.9-3.3-7.6-4.6-9.8
		C562.8,233.6,561,237.5,561,241.7z"/>
	<path fill="#FDC300" d="M564,253.2c0.3,0.2,0.6,0.4,0.9,0.6c1.9-1.7,4.7-3.9,8.1-6.2c0.1-0.2,0.2-0.4,0.4-0.6c0.3-0.5,0.7-1,1-1.5
		c-1.2-0.7-2.5-1.2-3.9-1.4C569.2,247.5,565.8,251.2,564,253.2z"/>
	<path fill="#FDC300" d="M557.8,252.1L557.8,252.1L557.8,252.1c0,0.2,0,1,0,1.6c0,0,0,0,0.1,0C557.8,253.1,557.8,252.3,557.8,252.1
		L557.8,252.1z"/>
	<path fill="#FDC300" d="M551.4,230.7c-1.3,2.2-4.1,5.9-4.6,9.8c3.1,0,5.7,1.1,7.6,2.9c0-0.6,0.1-1.1,0.1-1.7
		C554.5,237.5,552.7,233.6,551.4,230.7z"/>
	<path fill="#FF9E3D" d="M432.5,274.1c-1.2,0.8-3.9,2.3-4.3,4.7c2,5.5,5.1,6.6,8.2,8.2c5.5,2.3,9,4.3,11.3,7
		c2.3,2.3,3.1,0.4,6.6,5.1c1.2,1.3,2.3,3.2,3.5,5.1c0.4-0.2,0.8-0.3,1.1-0.3c1.2-0.2,4-1.7,6.4-3.2c0.6-0.4,1.1-0.7,1.6-1
		c-0.7-4.9-1.8-10.3-7.9-14.7c-6.6-5.1-3.9-13.7,1.6-17.6c3.8-2,5.1-7,5.3-11.9c-0.4,0-0.7,0.1-1.1,0.1c-2.7,0.4-6.9,0.9-9.2,1.1
		c-2.9,0.4-4.6,0.9-5.6,1.8c-0.8,0.7-2.7,1.7-4.4,2.1c-1.8,0.5-4,1.7-5.6,3.1c-0.7,0.6-1.6,1.3-2.6,2.1c-0.6,0.9-1,1.8-1.1,2.8
		C436.4,271,434.5,273.3,432.5,274.1z"/>
	<path fill="#FF927F" d="M477.1,271c-2,6.3,0.8,13.7,2,19.2c0.3,1.1,0.5,2.5,0.6,4.1c1.7-0.7,3.4-1.2,4.3-1.2c0.5,0,1.9-1,3.1-2.2
		c1.2-1.2,2.7-2.2,3.4-2.2c1.7,0,2.8-1.2,2.8-3.1c0-0.9,0.2-1.4,1-1.8c-0.7-2.4-0.9-4.9-0.3-7.4c0.8-2.7-0.8-3.9-1.6-5.9
		c-1-1.7-1.2-3.6-0.8-5.5c0-2.3-0.8-3.9-2.3-5.1c-1.6-1.2-2.3-2.3-2-3.9c0-1.5-0.7-2.6-2-3.7c-2.2,1.3-4.2,1.6-8.5,2
		c-0.5,0.1-1.1,0.1-1.7,0.2C476,258.6,479.5,264.8,477.1,271z"/>
	<path fill="#FF927F" d="M460.7,267.5c-5.5,3.9-8.2,12.5-1.6,17.6c6.1,4.4,7.2,9.8,7.9,14.7c1.9-1.1,3.6-1.7,4.5-1.7
		c0.9,0,2.1-0.4,3.1-1c-0.9-4.6-2.4-9.3-3.5-11.6c-1.2-3.1-2.7-5.9,1.2-12.5c3.1-6.6,0.8-11.7,0-15.2c-0.3-0.9-0.6-1.9-0.7-2.8
		c-2.1,0.2-4.2,0.5-5.7,0.7C465.8,260.5,464.5,265.5,460.7,267.5z"/>
	<path fill="#FF9EE1" d="M472.4,273c-3.9,6.6-2.3,9.4-1.2,12.5c1.1,2.3,2.6,6.9,3.5,11.6c0.3-0.2,0.5-0.3,0.8-0.5
		c1-0.7,2.6-1.5,4.2-2.2c-0.1-1.6-0.4-3-0.6-4.1c-1.2-5.5-3.9-12.9-2-19.2c2.4-6.2-1.1-12.4-2.1-16.4c-1.1,0.1-2.2,0.2-3.4,0.3
		c0.1,0.9,0.4,1.9,0.7,2.8C473.2,261.2,475.5,266.3,472.4,273z"/>
	<path fill="#00A728" d="M493.9,337.9L493.9,337.9L493.9,337.9c-0.8-0.4-1.3-0.8-1.7-1.2c-0.1,1.2,0.1,2.4-1.4,3.2
		c-2.7,0.8-0.4,4.3-3.5,5.5c-2.7,1.2,0,4.3-2.7,5.9c-3.1,1.2,0.4,4.3-3.1,5.9c-0.2,0.1-0.3,0.2-0.5,0.3c0.9,2.3,2.7,2.3,7.8,0.2
		c1.6-0.6,3.3-1.2,4.4-1.4c2.2-2.7-0.4-4.2,1.5-6.5c0.8-1.2,0.8-2.3,0.8-3.1l0-0.4c1.6-3.1,1.6,3.1,0.8,3.9c-1.1,1.8,0.2,4-0.9,5.9
		c1.8-0.3,2.9-1.3,2.9-2.6c0-0.6,2.8-5.3,7.4-12.5c-3.6-0.3-7.1-1-9.8-2.1C495.1,338.4,494.4,338.1,493.9,337.9z"/>
	<path fill="#FDC300" d="M496.3,350c0.8-0.8,0.8-7-0.8-3.9l0,0.4c0,0.8,0,2-0.8,3.1c-1.9,2.3,0.7,3.9-1.5,6.5c0.4-0.1,0.8-0.1,1-0.1
		c0.4,0,0.8,0,1.1-0.1C496.5,354,495.1,351.8,496.3,350z"/>
	<path fill="#EF072D" d="M510.3,304.2c-5.9,0-9.4,4.7-10.6,7.8c-1.2,3.1-0.4,2.7,0.8,1.6c1.2-1.2,0.8,1.6,0,2.7
		c-1.2,1.6-2.3,5.5-0.8,3.9c1.6-0.8,2.7,0.4,0.8,2.7c-2,2.3-2.7,7.8-1.2,5.9c1.6-2,2,1.2,0.8,2.7c-0.8,1.6-0.8,2.7,0,2.3
		c0.5-0.3,0.7,0,0.7,0.6c2.7,0.6,5.4,0.9,8.1,1c1.4-2.2,3-4.6,4.6-7c0.7-1,1.4-2.1,2-3.1c-0.2-1.3-0.6-2.4-1.1-3.2
		c-1.6-2.3-1.6-4.7,0-2s2.7,1.2,1.6-1.2l-3.1-7.8c0.8-0.8,1.2-0.4,2.3,1.2c1.2,1.6,1.2-0.4,0-2.3c-1.2-2-1.2-2.3,1.6-1.2
		c2.3,0.9,4,2.8,5.1,6.6c0.6-0.9,1.1-1.8,1.7-2.6C521.3,306.7,517.1,304.2,510.3,304.2z"/>
	<path fill="#EF072D" d="M510.3,304.2c-12.1,0-15.9,7.5-16.4,28.6c0,0,0,0,0,0C494.5,311.7,498.6,304.2,510.3,304.2z"/>
	<polygon points="493.9,337.9 493.9,337.8 493.9,337.9 	"/>
	<path d="M517,308.9c-2.7-1.2-2.7-0.8-1.6,1.2c1.2,2,1.2,3.9,0,2.3c-1.2-1.6-1.6-2-2.3-1.2l3.1,7.8c1.2,2.3,0,3.9-1.6,1.2
		s-1.6-0.4,0,2c0.5,0.7,0.9,1.8,1.1,3.2c2.3-3.4,4.4-6.8,6.4-9.8C520.9,311.7,519.2,309.9,517,308.9z"/>
	<path d="M494,332.8c1.3-0.2,2.9,0.6,4.6,1.1c0.8,0.2,1.5,0.4,2.3,0.6c-0.1-0.6-0.3-0.9-0.7-0.6c-0.8,0.4-0.8-0.8,0-2.3
		c1.2-1.6,0.8-4.7-0.8-2.7c-1.6,2-0.8-3.5,1.2-5.9c2-2.3,0.8-3.5-0.8-2.7c-1.6,1.6-0.4-2.3,0.8-3.9c0.8-1.2,1.2-3.9,0-2.7
		c-1.2,1.2-2,1.6-0.8-1.6c1.2-3.1,4.7-7.8,10.6-7.8C498.6,304.2,494.5,311.7,494,332.8z"/>
	<path fill="#EF072D" d="M498.6,333.9c-1.7-0.6-3.4-1.3-4.6-1.1c0,0,0,0,0,0c-0.5,0.1-0.9,0.3-1.2,0.7c-0.9,1.1-1.3,2.2-0.5,3.1
		c0.3,0.4,0.9,0.8,1.7,1.2c0,0,0,0,0,0c0.5,0.3,1.2,0.5,2,0.8c2.7,1.1,6.2,1.8,9.8,2.1c1-1.6,2.2-3.4,3.4-5.3
		c-2.7-0.1-5.5-0.4-8.1-1C500.1,334.3,499.4,334.2,498.6,333.9z"/>
	<path fill="#B95A1E" d="M566.7,255.3c0.1-0.1,0.3-0.2,0.4-0.3c1.2-1.1,3.8-4.3,5.9-7.4c-3.4,2.3-6.2,4.5-8.1,6.2
		C565.6,254.2,566.2,254.8,566.7,255.3z"/>
	<path fill="#B95A1E" d="M568.7,240.5c0,0,0.1,0,0.1,0c0.7,0,1.4,0.1,2.1,0.2c-0.6-4.2-4.4-9.6-6.6-10.5c-0.1,0.2-0.1,0.3-0.2,0.5
		C565.3,232.9,568.1,236.6,568.7,240.5z"/>
	<path fill="#B95A1E" d="M562,250.7c0.1,0.6,0.2,1.2,0.3,1.7c0.6,0.2,1.2,0.5,1.7,0.8c1.9-1.9,5.2-5.7,6.5-9.1
		c-0.5-0.1-1.1-0.1-1.7-0.1c-0.2,0-0.4,0-0.6,0C566.9,246.5,564,249.1,562,250.7z"/>
	<path fill="#B95A1E" d="M561.1,243.4c0-0.6-0.1-1.1-0.1-1.7c0-4.2,1.7-8.1,3-11c0.1-0.2,0.1-0.3,0.2-0.5c0.8-1.7,1.3-3,1.1-3.6
		c-4.2,4.2-6.6,9.6-6.6,15.1c0,1.7,0.1,3.3,0.2,4.6C559.5,245.1,560.2,244.2,561.1,243.4z"/>
	<path fill="#B95A1E" d="M562,250.7c-0.1-0.6-0.2-1.2-0.3-1.9c-0.4,1-0.6,2-0.6,3.1c0.4,0.1,0.8,0.2,1.2,0.4
		C562.2,251.8,562.1,251.3,562,250.7z"/>
	<path fill="#B95A1E" d="M557.8,252.1c0,0,0-0.3,0-0.3C557.8,251.9,557.8,251.9,557.8,252.1C557.8,252,557.8,252.1,557.8,252.1
		L557.8,252.1z"/>
	<path fill="#B95A1E" d="M568.8,240.5c0,0-0.1,0-0.1,0c-3.1,0-5.7,1.1-7.6,2.9c-0.8,0.8-1.6,1.8-2.1,2.9c-0.7,1.5-1.2,3.3-1.2,5.2
		c1.2,0,2.3,0.2,3.3,0.5c0-1.1,0.2-2.2,0.6-3.1c1.1-2.7,3.5-4.5,6.4-4.8c0.2,0,0.4,0,0.6,0c0.6,0,1.1,0.1,1.7,0.1
		c1.4,0.2,2.7,0.7,3.9,1.4c0.7-1,1.3-1.9,1.9-2.7c-1.7-1.1-3.5-1.8-5.4-2.1C570.2,240.5,569.5,240.5,568.8,240.5z"/>
	<path fill="#B95A1E" d="M564,253.2c-0.5-0.3-1.1-0.6-1.7-0.8c-0.4-0.2-0.8-0.3-1.2-0.4c-1-0.3-2.1-0.5-3.3-0.5c0,0,0,0,0,0
		c0,0,0,0.3,0,0.4c0,0,0,0.2,0,0.3c0,0.2,0,1.1,0,1.6c1.1,0.2,2.2,0.9,2.7,2c1,1.8,3.6,1.6,6.2-0.4c-0.5-0.5-1.1-1.1-1.8-1.6
		C564.6,253.5,564.3,253.3,564,253.2z"/>
	<path fill="#B95A1E" d="M537.9,248.7c3.6,2.5,7.4,5.5,10,7.6c0.6-0.8,1.6-1.8,2.8-2.6c-2.3-2-5.8-4.8-10.3-7.6
		C539.4,246.8,538.6,247.7,537.9,248.7z"/>
	<path fill="#B95A1E" d="M537.3,244.3c-8.7-5.3-14.9-9.2-16.1-8.3c0,1.1,7.3,6.3,13.8,10.8C535.8,245.9,536.5,245,537.3,244.3z"/>
	<path fill="#B95A1E" d="M513,251.1c1.2,1,10.9,1.2,18.8,3.6c0.2-1,0.4-2,0.7-2.9C523.2,249.4,513,250.1,513,251.1z"/>
	<path fill="#B95A1E" d="M535.9,252.8c-0.3,0.9-0.6,2-0.8,3.1c3.9,1.7,7.8,3.7,10.7,5.3c0.1-1.3,0.4-2.6,1-3.2c0,0,0,0,0,0
		c-2.4-1.3-5.5-2.8-9.2-4.5C537,253.2,536.5,253,535.9,252.8z"/>
	<path fill="#B95A1E" d="M512.2,263.7c1.3,1.1,11.3,0.6,19.3,1.9c0-1.2-0.1-2.3-0.1-3.3C521.9,261.1,512.2,262.8,512.2,263.7z"/>
	<path fill="#B95A1E" d="M534.6,262.9c0,1,0,2.2,0,3.4c3.6,0.8,7.1,2,10,3.1c0-0.5,0.1-1.9,0.3-3.2c-2-0.7-4.4-1.5-7.2-2.4
		C536.6,263.4,535.6,263.1,534.6,262.9z"/>
	<path fill="#B95A1E" d="M535.6,271.9c-0.3,0-0.7,0-1-0.1c0,0.9,0,1.8,0.1,2.8c0,0,0.1,0,0.1,0c3.1,0.3,5.9,1.1,8.3,2
		c0.4-0.9,0.8-1.8,1.2-2.7c0-0.1,0-0.2,0-0.3C541.8,272.9,539,272.3,535.6,271.9z"/>
	<path fill="#B95A1E" d="M514.3,278.9c1.2,1,9.9-3.7,17.5-4.3c0-1-0.1-1.9-0.1-2.8C521.8,272.3,514.3,277.9,514.3,278.9z"/>
	<path fill="#B95A1E" d="M544.5,269.6L544.5,269.6c-0.6,0.7-0.5,2.6-0.3,4c0,0.1,0,0.2,0,0.3c0.5-1.2,1-2.4,1.5-3.8
		C544.9,269.9,544.5,269.6,544.5,269.6C544.5,269.6,544.5,269.6,544.5,269.6z"/>
	<path fill="#B95A1E" d="M546.8,240.5c0.5-3.9,3.3-7.6,4.6-9.8c-0.1-0.2-0.1-0.3-0.2-0.5c-2.2,0.8-6,6.3-6.6,10.5
		c0.7-0.1,1.4-0.2,2.1-0.2C546.8,240.5,546.8,240.5,546.8,240.5z"/>
	<path fill="#B95A1E" d="M547.4,244c-0.2,0-0.4,0-0.6,0c-0.6,0-1.1,0.1-1.7,0.1c1.3,3.4,4.6,7.1,6.5,9.1c0.5-0.3,1.1-0.6,1.7-0.8
		c0.1-0.5,0.2-1.1,0.3-1.7C551.5,249.1,548.6,246.5,547.4,244z"/>
	<path fill="#B95A1E" d="M554.5,241.7c0,0.5,0,1.1-0.1,1.7c0.8,0.8,1.6,1.8,2.1,2.9c0.1-1.3,0.2-2.8,0.2-4.6
		c0-5.5-2.4-10.9-6.6-15.1c-0.2,0.7,0.4,1.9,1.1,3.6c0.1,0.2,0.1,0.3,0.2,0.5C552.7,233.6,554.5,237.5,554.5,241.7z"/>
	<path fill="#B95A1E" d="M553.8,248.8c-0.1,0.7-0.2,1.3-0.3,1.9c-0.1,0.6-0.2,1.2-0.3,1.7c0.4-0.2,0.8-0.3,1.2-0.4
		C554.4,250.8,554.2,249.7,553.8,248.8z"/>
	<path fill="#B95A1E" d="M545.6,263.8c-0.4,0.4-0.7,1.4-0.8,2.4c-0.2,1.3-0.3,2.7-0.3,3.2c0,0.1,0,0.2,0,0.2c0,0,0,0,0,0
		s0.4,0.3,1.2,0.6c0.5-1.4,1.1-2.9,1.7-4.8c0.1-0.2,0.2-0.5,0.2-0.7C546.4,264.3,545.8,263.9,545.6,263.8
		C545.7,263.8,545.6,263.8,545.6,263.8z"/>
	<path fill="#B95A1E" d="M546.7,258c0,0,0-0.1,0.2-0.2c0,0-0.1,0.1-0.1,0.1c0,0,0,0,0,0c-0.5,0.6-0.8,1.9-1,3.2
		c-0.2,1.4-0.2,2.6-0.2,2.6s0,0,0.1,0.1c0.2,0.1,0.7,0.6,2.1,1c0.6-1.6,1.2-3,1.7-4.2c-0.2-0.1-0.4-0.2-0.5-0.3L546.7,258z"/>
	<path fill="#B95A1E" d="M557.7,252.1L557.7,252.1C557.8,252.1,557.8,252,557.7,252.1c0-0.2,0-0.2,0-0.3
		C557.7,251.8,557.7,252.1,557.7,252.1L557.7,252.1z"/>
	<path fill="#B95A1E" d="M534.6,271.9c0-2-0.1-3.8-0.1-5.6c0-1.2,0-2.3,0-3.4c0-1,0-1.9,0.1-2.7c0.1-1.6,0.2-3,0.5-4.4
		c0.2-1.1,0.5-2.1,0.8-3.1c0.5-1.5,1.2-2.9,2-4c0.7-1,1.5-1.9,2.4-2.6c1.4-1.1,3-1.8,4.8-2c0.5-0.1,1.1-0.1,1.7-0.1
		c0.2,0,0.4,0,0.6,0c3,0.2,5.4,2.1,6.4,4.8c0.4,1,0.6,2,0.6,3.1c1-0.3,2.1-0.5,3.3-0.5c-0.1-1.9-0.5-3.7-1.2-5.2
		c-0.5-1.1-1.2-2.1-2.1-2.9c-1.9-1.8-4.5-2.9-7.6-2.9c0,0-0.1,0-0.1,0c-0.7,0-1.4,0.1-2.1,0.2c-2.6,0.4-5.1,1.6-7.3,3.6
		c-0.8,0.7-1.6,1.6-2.2,2.5c-1,1.4-1.9,3.1-2.5,5c-0.3,0.9-0.5,1.9-0.7,2.9c-0.3,1.7-0.5,3.6-0.5,5.6c0,0.7,0,1.4,0,2.1
		c0,1,0.1,2.1,0.1,3.3c0.1,1.9,0.1,4,0.2,6.2c0,0.9,0.1,1.9,0.1,2.8c0.3,7.1,0.7,15,1.1,21.8c0.7-1.4,1.5-3,2.3-4.6
		c-0.2-5.7-0.4-11.7-0.5-17.2C534.7,273.7,534.6,272.8,534.6,271.9z"/>
	<path fill="#B95A1E" d="M557.7,251.8c0,0,0-0.4,0-0.4c0,0,0,0,0,0c-1.2,0-2.3,0.2-3.3,0.5c-0.4,0.1-0.8,0.2-1.2,0.4
		c-0.6,0.2-1.2,0.5-1.7,0.8c-0.3,0.2-0.6,0.4-0.9,0.6c-1.2,0.9-2.1,1.8-2.8,2.6c-0.5,0.6-0.8,1.1-1,1.4c-0.1,0.2-0.2,0.3-0.2,0.2
		l2.2,2.2c0.1,0.1,0.3,0.2,0.5,0.3c1.6-3.4,3.2-5.2,5.6-6.4c0.9-0.5,1.8-0.6,2.7-0.4c0-0.6,0-1.4,0-1.6
		C557.7,252.1,557.7,251.8,557.7,251.8z"/>
</g>
</svg>
