<?xml version="1.0" encoding="utf-8"?>
<!-- Generator: Adobe Illustrator 17.1.0, SVG Export Plug-In . SVG Version: 6.00 Build 0)  -->
<!DOCTYPE svg PUBLIC "-//W3C//DTD SVG 1.1//EN" "http://www.w3.org/Graphics/SVG/1.1/DTD/svg11.dtd">
<svg version="1.1" id="flag-icon-css-td" xmlns="http://www.w3.org/2000/svg" xmlns:xlink="http://www.w3.org/1999/xlink" x="0px"
	 y="0px" viewBox="0 0 640 480" enable-background="new 0 0 640 480" xml:space="preserve">
<g>
	<polygon fill="#000067" points="214,13.3 214,13.6 214,13.3 	"/>
	<path fill="#000067" d="M209.4,210.4c-14.8,14.9-21.2,22.4-28.1,32.5c-2.4,3.6-5,7.1-5.8,7.9c-1.2,1.3-1.4,1.8-1.4,4.1
		c0,2.6,0,2.6-2,3.8c-1.8,1-2,1.3-2,3.2c0,1.8-0.2,2.1-1.5,2.4c-4,1.2-3.7,0.7-3.5,6.1c0.2,2.8,0.9,7.5,1.9,11.5
		c1.5,6.7,1.6,6.8,6,13.9c2.4,3.9,4.5,7.5,4.7,7.9c0.1,0.4,1.2,1.4,2.4,2.1c2.1,1.3,2.3,1.3,6,1c3.4-0.3,3.9-0.2,5.2,0.7
		c1.7,1.2,2.6,4,2.2,6.6c-0.3,1.7-0.2,1.8,2.2,3.6c1.3,1,2.7,1.9,3.1,1.9c0.3,0,0.9,0.3,1.2,0.8c0.4,0.4,1.4,1,2.2,1.4
		c1.1,0.5,1.5,0.9,1.5,1.7c0,0.6,0.3,2,0.8,3.1c0.5,1.5,0.7,2.9,0.4,5.2c-0.4,3.9-0.1,4.7,1.9,5.9c1.6,0.9,1.6,1,1.3,3.3
		c-0.2,2.1-0.1,2.5,1,3.8c1.4,1.6,1.6,3.5,0.5,4.7c-0.7,0.7-0.6,1,0.7,3l1.5,2.2l-1,1c-0.5,0.6-1,1.6-1,2.4c0,0.7-0.4,2.6-1,4.2
		c-0.9,2.4-1,3.4-0.7,8.4c0.2,4.9,0.5,5.9,1.7,8.5c0.8,1.6,1.4,3.6,1.4,4.3c0,0.9,0.3,1.4,0.9,1.6c0.6,0.2,1.3,1,1.8,1.9V205.7
		C212.5,207.2,211,208.8,209.4,210.4z"/>
	<path fill="#000067" d="M210.2,401.5c-0.9,0.3-1.9,0.3-3,0c-1.3-0.4-2.2-0.2-4.7,0.7c-2.8,1.1-3.2,1.1-4.9,0.5
		c-2.9-1-11.2-2.2-13.1-1.9c-1.9,0.4-2.9,1.4-4.3,4.4c-0.7,1.6-1.4,2.4-2.8,3c-1.5,0.7-2.9,2.2-2.9,3.4c0,0.2,0.9,0.8,1.9,1.5
		c1.1,0.7,2.7,2.3,3.8,4c1,1.5,2.8,3.6,4,4.5c1.1,1,2.3,2.4,2.7,3.3c0.4,1.2,2.2,2.8,7.4,6.6c3.8,2.8,7.7,5.4,8.6,5.8
		c1.2,0.5,1.7,0.9,1.7,1.7c0,1.2,1.4,2.6,2.5,2.6c0.4,0,0.8,0.1,0.8,0.4c0,0.2,1,1.4,2.2,2.8c1.4,1.6,2.5,3.4,3.8,6.7v-50
		C212.5,401.1,211.1,401.1,210.2,401.5z"/>
	<path fill="#FF0000" d="M428.2,372.5c4.4-2.6,5.7-2.8,13.2-1.8c2.2,0.3,4.1,0.4,4.2,0.3c0.4-0.4,2.6-8.8,2.6-10
		c0-0.8-1.1-3.5-1.7-4.2c0,0-1,0.2-2.1,0.6c-2,0.7-2,0.7-2-0.4c0-0.9-0.5-1.3-2-2c-1.1-0.5-2.8-1.7-3.8-2.7l-1.7-1.8l0.4-4
		c0.2-2.2,0.8-5,1.1-6.3c0.4-1.3,0.8-2.4,0.8-2.4c0,0-0.9-0.1-2-0.2l-2-0.1l-1.3-5.8c-0.7-3.2-1.3-7-1.3-8.3l0-2.5l-3-1.3l-1.5-0.6
		v55.1C426.6,373.4,427.4,373,428.2,372.5z"/>
	<path fill="#FF0000" d="M469.5,113.9c-0.2-0.2-18-9.1-43.5-22v188c1.2-0.9,2.6-1.8,3.6-2.5c3.2-1.9,4.6-3.2,4.6-4.1
		c0-0.1-1.1-0.5-2.4-0.8c-1.9-0.5-2.3-0.7-2.1-1.3c0.7-1.5-0.1-5.7-1.3-6.5c-0.7-0.5-0.8-0.8-0.3-2c0.4-1.3,0.9-1.5,4.7-2.7
		c3.4-1,4.2-1.4,4-2c-1.6-3.6-1.6-4-0.1-4.8c1-0.6,1.4-1.2,1.4-2.1c0-1.6,2.2-4.4,4.2-5.2c1-0.4,1.6-0.9,1.6-1.5
		c0-0.5,0.2-1,0.5-1.2c0.2-0.1,0.8-1.4,1.2-2.7l0.8-2.4l-1.7-1.5c-2.5-2.2-2.3-3.6,0.9-6.3l2.6-2.2l4.3,0.3c3.7,0.3,4.5,0.2,6.2-0.7
		c2.4-1.2,7.9-1.7,12.1-1.1c1.7,0.2,3.2,0.4,3.3,0.3c0.1-0.1-0.8-25.4-1.9-56.3C470.7,130.8,469.9,114.3,469.5,113.9z"/>
	<path fill="#FFFF00" d="M242.5,0c-0.4-0.1-7,2.8-14.6,6.5L214,13.3v0.3l2.1,13.1c1.6,10.3,2.2,15.4,2.4,22l0.3,8.6l5.5,7.8
		c5.2,7.6,5.4,7.9,4.9,9.3c-0.3,0.8-0.5,2.4-0.5,3.5c0,1.9,0.1,2.1,1.9,3c1.1,0.6,3.3,2.6,5.4,5c1.9,2.3,3.7,4.4,4.1,4.9
		c0.5,0.6,0.1,1.6-2.5,6.6c-3.1,5.9-3.1,5.9-4.7,14.9c-2,10.7-2.4,15.7-5.3,53.2c-2.1,27.5-2.2,28.7-3.3,29.8
		c-0.5,0.5-4.7,4.8-10.1,10.3v181.5c0.4,0.8,0.7,1.6,0.7,2.3c0,0.8,0.5,1.6,1.7,2.4c0.9,0.7,2.2,2.2,2.8,3.4
		c0.8,1.5,1.9,2.6,3.8,3.8c1.5,0.9,2.7,1.8,2.7,1.9c0,0.2-1.6,0.7-3.4,1.3c-3.3,0.8-3.6,0.9-5.2,0.1c-0.9-0.4-2-0.8-3.1-1v50
		c0.2,0.4,0.3,0.8,0.5,1.3c1.2,3,2.6,6.3,3.1,7.2c0.5,1,0.9,2.7,0.9,4.1c0,2.2,0.1,2.4,1.8,3.6c1,0.7,2.2,1.2,2.6,1.2
		c1.1,0,1.1-0.3-0.1,2.7c-0.5,1.4-1,2.9-1,3.6c0,1.1,0.1,1.2,2.4,1.2c1.8,0,2.6,0.2,3.4,1c0.9,0.9,1.4,1,3.6,0.7
		c1.7-0.2,3.3-0.7,4.5-1.4c1-0.7,2.4-1.2,3.1-1.2c1.6,0,4.5-1.2,5.8-2.4c0.6-0.5,1.6-1.1,2.4-1.3c1.1-0.2,1.4-0.7,1.5-1.6
		c0.1-0.7,0.5-1.4,1-1.5c0.4-0.2,1.4-0.8,2.2-1.4c1.8-1.4,2.1-1.4,2.5,0.7c0.2,1,0.5,2.1,0.8,2.3c0.3,0.3,0.4,0.9,0.2,1.3
		c-0.2,0.5,0.7,1.4,2.8,2.8c2.6,1.7,3.2,2,3.6,1.4c0.3-0.4,0.8-0.7,1.1-0.7c0.3,0,1.4-0.4,2.4-0.9c1-0.5,2.6-1.1,3.4-1.2
		c1-0.2,2.8-1.4,4.7-3c2.9-2.5,3.4-2.8,6.6-3.3c2.2-0.4,4-1,5.1-1.7c1.5-1.1,1.8-1.1,5.6-0.8c3.4,0.2,4.3,0.1,5.8-0.6
		c1.4-0.7,3.3-0.9,10.4-1.2c4.7-0.2,8.8-0.6,9.2-0.8c0.3-0.2,0.9-1.5,1.3-2.7c0.7-2,1.1-2.5,3.3-3.7c2.6-1.4,6.5-5.7,8.8-9.7
		c0.6-1.1,1.5-2.1,2.1-2.2c1.2-0.4,1.1-0.9-0.4-2c-1.9-1.2-5.5-5.1-5.2-5.7c0.1-0.2,1.1-1,2.2-1.7c1.7-1.2,2.5-1.4,7.8-1.7
		c14.9-1.1,20.6-1.9,23.6-3.6c1.1-0.7,2.3-0.8,5.6-0.7c3.8,0.1,4.4,0,6.6-1.2c1.3-0.7,2.7-1.8,3-2.5c0.4-0.9,1.1-1.3,2.5-1.4
		c1.5-0.2,2-0.5,2.1-1.3c0.1-0.8,0.5-1.1,1.5-1.1c1,0,1.7-0.4,2.5-1.4c0.6-0.8,2.1-2.6,3.3-4c1.5-1.6,2.5-3.3,2.8-4.7
		c0.4-1.5,0.8-2.1,1.4-2.1c0.5,0,1.5-0.9,2.3-2.2c1.6-2.4,4.4-4.3,6.5-4.3c1,0,1.4-0.4,2.2-2c1.8-3.6,3.1-4.8,5.5-5.5
		c2.8-0.7,3.1-1.5,3.1-7c0-5.9,0.7-7,4.4-7c0.7,0,1.6-0.3,1.9-0.7c0.3-0.4,1.1-0.9,1.7-1.2c0.6-0.2,1.1-0.8,1.1-1.3c0-1.3,1-2,3-2
		c1,0,2-0.3,3.6-1.1v-55.1l-1.5-0.7l-1.9,0.9c-1.7,0.8-6.6,2.3-6.7,2.1c0,0-0.7-0.8-1.3-1.8c-1.6-2.1-1.7-4.2-0.2-8.5
		c0.8-2.6,1.3-3.5,2.5-4.1c6.8-3.9,7.4-4.3,7.9-6.6c0.4-1.9,0.4-2.4-0.2-3.4c-0.4-0.6-0.8-1.8-0.8-2.5c0-0.9-0.4-1.6-1.1-2.1
		c-0.8-0.5-1.3-1.7-1.9-3.7l-0.7-3l2.9-2.8c0.8-0.7,1.9-1.6,3-2.5v-188C360.3,58.9,243.4,0.3,242.5,0z"/>
</g>
</svg>
