<?xml version="1.0" encoding="utf-8"?>
<!-- Generator: Adobe Illustrator 17.1.0, SVG Export Plug-In . SVG Version: 6.00 Build 0)  -->
<!DOCTYPE svg PUBLIC "-//W3C//DTD SVG 1.1//EN" "http://www.w3.org/Graphics/SVG/1.1/DTD/svg11.dtd">
<svg version="1.1" id="flag-icon-css-tf" xmlns="http://www.w3.org/2000/svg" xmlns:xlink="http://www.w3.org/1999/xlink" x="0px"
	 y="0px" viewBox="0 0 640 480" enable-background="new 0 0 640 480" xml:space="preserve">
<g>
	<path fill="none" d="M197.9,376.5c0.5-0.3,1-0.7,1-1c0-0.6-1.7-0.7-2.2-0.2c-0.2,0.2-0.2,0.6,0,1
		C196.9,376.9,197.2,376.9,197.9,376.5z"/>
	<path fill="#002395" d="M293.7,133c0.2-0.7,1.2-1.9,2.4-2.6c1.1-0.7,2.2-1.7,2.3-2.3c0.2-0.5,1-1.5,1.8-2.3
		c0.9-0.7,1.5-1.8,1.5-2.3c0-0.5,0.5-1.5,1-2.2c1-1.2,1-1.2-0.1-2.4c-0.8-0.9-1.3-1-2.3-0.6c-1.6,0.6-3.2-0.3-3.2-1.7
		c0-1-0.2-1-4.3-0.7v18.1C293.4,134,293.6,133.6,293.7,133z"/>
	<path fill="#002395" d="M297.4,174.5c-1.7,0-1.9,0.2-3.3,3.3c-0.7,1.5-1.2,3-1.2,3.7v0.2c0,0,0,0.1,0,0.1c0.1,0.1,0,0.3,0,0.5v3
		c0.4-0.1,0.8-0.2,1.2-0.4c1.4-0.7,1.6-0.7,2.1,0.2c0.5,0.8,0.6,0.8,1.3-0.2c0.5-0.6,0.7-1.5,0.5-2.4c-0.2-0.7,0.1-2.4,0.5-3.8
		C299.7,175.2,299.5,174.5,297.4,174.5z"/>
	<path fill="#002395" d="M244.8,418.1c-1.7,0.7,0.1,4.3,2.1,4.3c1,0,1.1-0.8,0.3-3C246.6,417.8,246.2,417.5,244.8,418.1z"/>
	<path fill="#002395" d="M292.8,63.4v2.9c0.4,0.1,1,0.1,1.9,0c2.4-0.4,3-0.9,3-3c0-1.3-0.2-1.4-2.1-1.4
		C293.9,61.9,293.4,62.1,292.8,63.4z"/>
	<path fill="#002395" d="M346.6,240.4l1.7-0.5l-2.2-1.1c-3.1-1.6-6.4-1.5-9.9,0.4c-1.5,0.9-3.1,1.5-3.5,1.5c-0.9,0-3.3,2.5-2.9,3.1
		c0.1,0.2,1.7,0.8,3.6,1.3c1.9,0.5,3.3,1.2,3.2,1.5c-0.3,0.9-2.2,1-3,0.2c-1.8-1.9-6.4-1.1-7.6,1.2c-0.3,0.6-1,1-1.5,1
		c-1.3,0-8.9,2.8-10.4,3.8c-0.6,0.5-1.5,0.8-2,0.8c-1.1,0-4.2,4-3.9,4.9c0.2,0.4,1.1,0.9,2.1,1.1c1,0.2,2,0.5,2.1,0.8
		c0.5,0.7,5.9,3,8.4,3.5c8.1,1.6,11.5,2,12,1.5c0.3-0.3,1.4-0.5,2.4-0.5c2.3,0,3.5-1.2,2.2-2c-0.8-0.4-0.5-0.5,1.2-0.6
		c2.3,0,3.5-0.9,3-2.3c-0.3-0.7,0.1-0.8,2-0.7c2.5,0.2,3.2-0.5,1.5-1.4c-0.6-0.3-1.5-1.1-2.1-1.8c-0.8-1-0.9-1.4-0.3-2.2
		c0.4-0.5,0.9-0.9,1.3-0.9c0.9-0.1-1.4-2.1-2.4-2.1s-0.9-1.2,0.1-2.1c0.5-0.4,0.7-1,0.6-1.4c-0.2-0.4,0-1.2,0.4-1.7
		c0.5-0.9,0.4-1.1-0.6-1.8c-1.6-1.2-1.4-2,0.4-1.5c1.6,0.4,3.3-0.5,2.8-1.3C345.1,241.1,345.7,240.7,346.6,240.4z"/>
	<path fill="#002395" d="M321.3,275.5c-3.1-0.4-3.4-0.3-4.5,0.9c-2.7,2.9-0.2,4.7,6.3,4.3c2.1-0.2,4.1-0.4,4.3-0.6
		c0.3-0.2,0-0.8-0.7-1.4c-0.6-0.6-1.4-1.5-1.6-2C324.8,276.1,323.6,275.7,321.3,275.5z"/>
	<path fill="#002395" d="M370.2,450.4c0,0.5,0.5,0.8,1.6,0.8c1.9,0,6.6,1.5,6.6,2.1c0,0.3,0.7,0.5,1.5,0.5c1.4,0,1.4-0.1,1.8-3.2
		c0.3-3,0.2-3.3-1.1-4.7c-0.8-0.9-1.9-2.2-2.3-3c-0.5-0.8-1.2-1.4-1.6-1.4c-0.4,0-0.9-0.6-1.2-1.3c-0.7-1.5-3.4-1.9-3.9-0.5
		c-0.2,0.5-0.3,1.4-0.3,2.1c0,0.7-0.4,1.4-0.8,1.5c-0.4,0.2-1,1.1-1.3,2.1c-0.5,1.5-0.5,2,0.2,3C369.8,449,370.2,449.9,370.2,450.4z
		"/>
	<path fill="#002395" d="M301,47c0.8-0.4,1.3-1.1,1.3-1.9c0-0.9-0.4-1.3-1.9-1.7c-2.4-0.7-2.2-0.7-3.9,0.4c-1.4,0.8-1.4,1-1.1,3.2
		c0.2,1.3,0.5,3.5,0.6,5c0.3,2.3,0.5,2.8,1.8,3.5c1,0.5,2.1,0.7,3.2,0.4c1.5-0.3,1.8-0.6,1.8-1.6c0-0.9-0.4-1.4-1.5-1.7
		c-1.4-0.5-1.5-0.8-1.5-2.7C299.7,48,299.9,47.5,301,47z"/>
	<path fill="#002395" d="M485.4,322.7v-0.1C485.4,322.7,485.4,322.7,485.4,322.7z"/>
	<path fill="#002395" d="M443.3,324.6h15.1c-0.2-3.3-0.1-3.5,0.9-3.8l-6.9-12.4L443.3,324.6z"/>
	<path fill="#002395" d="M557,244.2h-44v15h34.5l-14.7,23.4H513V330l33-51.6l23.5,37.5c0.2-0.6,0.3-1.1,0.4-1.7
		c0.4-2.7,0.8-3.2,3-3.7c1.9-0.4,2.8-1.5,3.5-4.3c0.3-1.3,1-3,1.5-4c0.6-0.9,1.3-3.9,1.8-6.7c0.5-2.8,1.2-5.8,1.6-6.6
		c1.1-2.2,4.3-12.2,4.3-13.4c0-0.5-0.4-1.4-0.9-2c-0.9-0.9-0.9-1,0-1.6c0,0,0,0,0.1-0.1l-10-7.3h9.4c0-0.5,0-1,0-1.6
		c0.1-2.3-0.2-3.5-1.4-5.9c-0.9-1.6-2.2-3.4-2.9-4c-1.7-1.2-2.8-3.4-3.4-6.8c-0.3-1.4-1-4.3-1.5-6.4c-1.5-5.6-1.4-7.7,0.5-9.5
		c1.4-1.4,1.5-1.7,1.5-5.3c0-3.2-0.2-3.9-1-4.6c-0.6-0.5-1.4-1.7-2-2.7c-0.7-1.5-1.4-2-4.2-2.9c-1.9-0.6-4-1.7-4.9-2.4
		c-0.8-0.7-2.1-1.5-2.7-1.8c-0.6-0.4-1.2-1.1-1.3-1.7c-0.2-1.5-3-2.3-4.9-1.3c-1.6,0.8-2.4,0.7-4.4-1c-0.8-0.7-2.4-1.4-3.5-1.7
		c-1.1-0.3-2.9-1-3.9-1.6c-1.3-0.8-3.1-1.2-6.4-1.4c-2.7-0.2-4.8-0.6-5.4-1.1c-0.6-0.5-1.7-0.7-3.5-0.6c-2,0.2-3.1-0.1-4.5-0.9
		c-1.9-1.1-1.9-1.1-2.6-0.1c-0.4,0.6-2.2,1.6-4,2.4c-3.8,1.6-4.8,2.4-5.7,4.3c-0.8,2-4,4.3-5.4,3.9c-0.9-0.2-1.3-0.1-1.5,0.8
		c-0.2,0.6-0.9,1.2-1.5,1.4c-0.7,0.2-1.5,0.9-1.9,1.6c-0.4,0.8-1.1,1.7-1.6,2.2c-0.6,0.5-1.1,2-1.5,4h73.8L557,244.2z"/>
	<path fill="#002395" d="M101.4,200.2c-1.2,0-1.3,0.2-1.1,2.2c0.2,2,0,2.2-1,2.4c-0.9,0.1-1.2,0.5-1.2,1.4c0,0.7-0.3,1.3-0.6,1.4
		c-0.3,0.1-0.6,1-0.6,1.9c-0.1,1.3,0.3,2.1,1.5,3.1c1,0.9,1.4,1.6,1.2,2.1c-0.3,0.4-0.1,1.4,0.3,2.3c0.8,2,2.9,2.5,7.3,2
		c2.3-0.3,2.8-0.2,2.8,0.5c0,0.5-0.6,1.1-1.4,1.5c-2,0.9-3.2,4.7-2,6c0.8,0.8,1.1,0.8,4.3-0.2c5.5-1.5,7.1-1.6,8-0.3
		c0.6,0.9,1.2,1.1,3.7,1.1c1.6,0,3.8-0.4,4.8-0.8c1-0.4,2.2-0.8,2.6-0.8c1.9,0-1.3,2-5,3.1c-3.9,1.2-6.1,1.4-9.2,0.7
		c-1.5-0.4-1.6-0.3-2,1.2c-0.2,0.9-0.7,1.9-1,2.2c-1.5,1.2-0.8,2.9,2.1,5.1c1.5,1.1,3,2.1,3.3,2.1c0.3,0,0.5,0.4,0.5,0.8
		c0,0.9,4.6,2.4,5.7,1.7c1-0.5,1.5-0.1,1.5,1.1c0,1.7,4,2,5.5,0.4c1.7-1.9,5.2-4.1,6.6-4.1c0.7,0,1.9-0.3,2.7-0.6
		c4.5-1.8,7.1-1.3,4,0.8c-0.9,0.7-2.2,1.3-2.9,1.5s-2.3,1.1-3.5,2c-1.3,0.9-3.4,2.1-4.8,2.6c-2.7,1-3.1,2.3-1.3,4.2
		c0.9,0.9,1.4,1.1,3.1,0.9l2-0.3v2c0,2.8-0.5,3.4-2.9,3.2c-1.5-0.1-2.2-0.5-2.5-1.3c-0.9-2-3.9-1-3.9,1.2c0,1.9-1.4,1.1-1.7-1
		c-0.3-1.4-0.9-2-3.8-3.7c-3.3-1.9-3.6-2-8.1-2h-4.6l0.2,1.3c0.1,0.7,0.3,3,0.4,5.1c0.3,4.1,0.6,4.8,2.8,5.7
		c1.6,0.7,2.1,2.4,0.8,2.9c-1.3,0.5-2.8-0.8-3.8-3.3c-0.5-1.3-1.4-3.1-2-4c-1.1-1.3-1.2-1.3-1.5-0.5c-0.2,0.5-0.1,1.4,0.3,2
		c0.4,0.6,0.6,1.1,0.5,1.1c-0.1,0.1-0.8,0.4-1.5,0.7c-1.3,0.5-1.4,0.9-1.4,3.1c0,1.4,0.2,2.7,0.5,2.9c0.3,0.2,0.5,0.9,0.5,1.7
		c0.1,3.5,0.7,7.6,1.2,7.9c0.3,0.2,1.2,0.4,2.1,0.4c1.4,0,1.4,0.1,1.1,1.6c-0.2,0.9-0.1,2,0.3,2.3c0.7,0.8,2.5,1,2.5,0.2
		c0-0.3,0.3-0.5,0.7-0.5c0.4,0,1.6,1.7,2.7,3.7c1.3,2.4,2.5,4,3.4,4.4c1.7,0.9,2,0.7,2.3-2.1c0.3-1.9,0.5-2.2,1.7-2.3
		c1.3-0.2,5,1.2,5,1.9c0,0.2-1.5,1-3.3,1.9c-1.9,0.8-3.3,1.7-3.2,2c0.1,0.3,1.1,0.8,2.3,1.3c2.1,0.7,2.2,0.7,3.4-0.5l1.3-1.2v1.3
		c0,1.6-0.4,1.9-4,2.4c-4.4,0.6-5.6,1.3-6.5,3.4c-0.7,1.7-0.7,2,0.1,2.8c0.6,0.6,0.7,1.4,0.5,2.2c-0.3,1.1,0.1,1.5,2.1,2.9
		c2,1.3,2.6,1.5,3.3,1c1.3-0.8,1.3-0.8,1.7,1.1c0.7,3.7,5.7,5.7,10.6,4.2c3.1-0.9,4.1-1.9,4.1-4c0-0.9,0.5-2.8,1.1-4.3
		c0.9-2.1,1.4-2.7,2.5-2.9c0.7-0.2,2-0.5,2.7-0.7c1.2-0.3,1.5-0.1,2,1.1c0.7,1.9,0.3,2.9-1.6,4.1c-2.5,1.5-3.5,2.7-3.5,4.4
		c0,1.9,0.8,2.5,3.6,2.7l2.3,0.2l-1.5,0.7c-1.6,0.7-5.5,1.5-9.6,2c-1.4,0.2-3.4-0.1-4.9-0.5c-2.2-0.7-2.8-0.7-3.9-0.1
		c-0.7,0.4-1.7,0.7-2.4,0.7c-0.7,0-1.2,0.4-1.4,1.1c-0.2,0.6-1.3,1.4-2.6,2c-2.9,1.2-4.6,3.9-4.1,6.6c0.3,1.6,0.1,2.1-0.7,2.9
		c-1.7,1.5-1.4,3.6,1.3,7c2.1,2.6,2.6,3,4.1,3s1.7-0.2,1.7-1.2c0-0.9,0.7-1.7,2.5-3c1.3-1,3.5-2.6,4.8-3.7c2.7-2.2,4.2-2.2,4.4-0.2
		c0.2,1.7-1.5,3-4.3,3c-1.5,0-2.4,0.3-3.2,1.1c-1.4,1.5-2,4.7-1.1,6c0.5,0.8,0.5,1.2,0,1.7c-1.1,1.1-0.7,2,1.1,2
		c1.1,0,2.3,0.5,3.2,1.2c1.5,1.3,3.4,2.4,4.1,2.4c0.2,0,1.2-1.5,2.2-3.3s2-3.3,2.2-3.3c0.8,0,0.3,2.2-1.2,4.6
		c-1.5,2.5-1.6,2.7-1,4.9c0.4,1.2,0.9,2.5,1.3,2.7c1.2,0.7,1.1,2.4-0.1,4.1c-1,1.3-1.1,1.9-0.7,2.7c0.3,0.6,1,1,1.5,1
		c1.2,0,1.5,0.9,1.1,2.5c-0.3,0.9-1.1,1.5-3.8,2.5c-2.8,1-3.9,1.8-5.6,3.8c-1.1,1.4-2.9,3-3.8,3.5c-1,0.5-1.7,1.3-1.7,1.8
		c0,0.4-0.4,0.8-0.9,0.8c-0.5,0-2,0.4-3.3,0.9c-2.1,0.7-2.3,0.9-1.8,1.7c0.5,0.7,0.4,1.3-0.2,2.4c-1.7,3.1,0.1,4.8,4.9,4.8
		c2.9,0,3.4,0.4,2.1,1.5c-0.4,0.3-0.8,1.1-0.9,1.7c-0.1,0.7-0.6,1.2-1.3,1.3c-0.6,0.1-1.5,0.7-2,1.4c-0.7,1.1-0.7,1.3,0.1,2.8
		c0.5,0.9,1.2,1.7,1.6,1.9c1.1,0.4,0.9,1.7-0.6,3c-0.7,0.7-1.3,1.7-1.3,2.3c0,0.9-0.2,1-1,0.8c-1.3-0.4-2.6,0.6-2.2,1.6
		c0.2,0.4,0,1.4-0.4,2.3c-0.5,1.2-0.5,1.7,0,2.3c0.8,1,0.7,1-2.1,2.5c-2.2,1.1-2.3,1.2-2.5,4c-0.2,2.3-0.7,3.4-2.6,6.1
		c-1.3,1.8-2.9,4-3.7,4.8c-0.8,0.8-1.4,1.7-1.4,2.1c0,0.6,1.7,5.3,2.6,7.3c0.3,0.6,0.5,1.6,0.6,2.3c0.1,0.9,0.5,1.3,1,1.2
		c0.6-0.1,1.1,0.5,1.4,1.8c0.8,2.8,0.6,3.6-0.7,4.8c-0.7,0.6-1.6,1.9-2.1,2.8c-0.9,1.8-1.4,2-2.9,1.2c-1.3-0.7-3.4,1.1-3.9,3.2
		c-0.2,0.9-0.7,2.1-1,2.7c-1.2,1.7-0.8,2.6,2.2,5.4c2.4,2.3,3,2.6,4.3,2.4c1.3-0.3,1.4-0.2,1.2,0.8c-0.2,0.6-0.6,1.4-0.9,1.6
		c-0.3,0.3-1,1.2-1.4,2.1l-0.9,1.6l2.1,1.4c1.6,1.1,2,1.6,1.5,2.3c-0.4,0.8-0.2,1.1,1.3,2c2,1.2,2.2,1.8,0.9,2.6
		c-2,1.1-2.2,1.4-2,2.2c0.3,0.7,0.7,0.7,2.2,0.3c3-0.7,6.7-0.9,7-0.4c0.7,1.2,3.1,0.4,6.1-2c0.8-0.6,1.8-1.1,2.2-1.1
		s1.2-0.5,1.8-1.1c1-1,1.4-1.1,4.7-0.8c2.5,0.3,4.1,0.8,5.4,1.6c1,0.7,2.3,1.2,2.9,1.2c0.6,0,1.7,0.4,2.6,0.8
		c0.8,0.4,1.8,0.8,2.2,0.8c1.2,0,4.6-3,5-4.4c0.3-0.9,0.7-1.3,1.6-1.3c0.7,0,1.4,0.4,1.5,0.8c0.2,0.5,1.1,0.7,2.9,0.7
		c1.5,0,4,0.1,5.7,0.2c2.7,0.2,3.2,0,4.8-1.4c1.5-1.3,2.1-1.5,2.8-1c1.1,0.7,2-0.3,1.7-2c-0.1-0.9,0.3-1,3.7-1.2
		c3.4-0.2,4-0.3,5.6-1.6c1-0.9,2-1.5,2.3-1.5c0.4,0,1.3-0.6,2.1-1.4c0.8-0.8,2.8-1.9,4.4-2.5l2.9-1l-0.2-4.2
		c-0.2-2.6,0.1-4.6,0.4-5.3c0.5-1,0.4-1.3-0.6-2.2l-1.1-1.1l1.3-0.4c1-0.4,1.3-0.7,1.1-1.5c-0.2-0.5,0-1.6,0.3-2.4
		c0.7-1.6-0.2-4.4-2-6c-0.6-0.5-1.2-1.6-1.3-2.5c-0.2-0.9-0.8-1.6-1.3-1.8c-0.6-0.2-1-0.7-1-1.4c0-0.6-0.5-1.7-1-2.5
		c-0.6-0.7-1-1.7-1-2.3c0-0.5-0.5-1.8-1-2.9c-1.1-2.1-1.1-2.4-0.8-8c0.2-2.1,0.1-4.1-0.1-4.4c-0.2-0.3-0.3-1.9-0.2-3.4
		c0.1-1.7-0.1-3.1-0.4-3.2c-0.7-0.5-0.2-3.4,0.8-4.5c1-1.2,2.6-1.5,3.3-0.6c0.3,0.4,1.3,0.7,2.1,0.7c1.6,0,2.5,1.2,1.5,2.2
		c-0.3,0.3-0.6,1-0.6,1.4s-0.4,1.2-0.8,1.5c-0.6,0.5-0.7,1.2-0.6,2.4c0.2,0.9,0.1,2.4-0.3,3.3c-0.4,1.2-0.4,2,0.4,3.5
		c0.6,1.3,0.8,2.6,0.6,3.7c-0.2,1,0,2.6,0.5,3.8c0.4,1.1,0.7,2.8,0.8,3.7c0,1.3,0.3,1.7,2,2.5c1.1,0.5,2.2,0.8,2.5,0.6
		c0.2-0.1,0.9-0.1,1.6,0.2c0.9,0.4,1.1,0.7,0.9,1.5c-0.3,0.8,0,1.4,0.9,2.2l1.3,1.1l-1.2,2.8c-1.5,3.5-1.5,3.8-0.1,4.5
		c1.1,0.5,1.6,0.3,4.2-1.3c3.3-2.2,3.9-3.5,2.3-5.6c-1.1-1.4-1.1-1.4-0.1-2.2c1.5-1.1,1.9-2.9,1-4.3l-0.8-1.1l3,0.1
		c2.8,0.2,3,0.1,3.3-1.2c0.2-0.9,0.1-1.5-0.5-2c-0.7-0.5-0.4-0.8,2.3-1.7c2.4-0.9,3-1.4,2.9-2c-0.2-0.5-0.4-1.4-0.6-2.2
		c-0.3-1.1-0.7-1.4-2.5-1.5c-1.3-0.2-2.5,0-2.9,0.4c-0.4,0.4-1.9,0.9-3.1,1.2c-2.2,0.6-2.6,0.5-5-0.7c-2.4-1.2-2.6-1.5-2.6-3.1
		c0-1,0.4-2,0.8-2.4c0.7-0.6,0.9-0.5,1.5,0.3c0.4,0.5,0.7,1.3,0.7,1.6c0,1.3,2.4,1.7,4.5,0.9c1-0.4,2.4-0.8,3-0.8c1.7,0,3-3.3,2-5
		c-0.6-0.9-0.7-1.4-0.1-3c0.6-1.6,0.6-2.1-0.3-3.8c-1.2-2.2-2.4-3.3-4.9-4.6c-1-0.5-2.9-2.2-4.3-3.7c-2.2-2.4-2.3-2.8-1.5-3.2
		c0.7-0.4,1.1-0.2,1.9,0.9c0.6,0.7,1.3,1.3,1.7,1.3c0.4,0,0.8,0.5,0.9,1.1c0.1,0.6,0.8,1.4,1.5,1.9c1.3,0.8,1.4,0.8,2.4-0.2
		c1.1-0.9,1.1-0.9,1.1,0.1c0,1.1,1.6,2.8,4,4c1.6,0.8,2.1,1.6,3.4,7.1c0.5,1.9,0.6,3.5,0.4,4.4c-0.6,2.1,0.2,3.9,1.4,3.5
		c0.6-0.2,1.7,0.1,2.6,0.5c0.9,0.5,2.1,0.8,2.6,0.8c1,0,1.1-0.2,0.9-3.2c-0.5-5.1-0.9-7.1-1.9-7.5c-1.2-0.5-2.6-2.3-2.4-3
		c0.1-0.3-0.2-0.9-0.6-1.2c-1-0.9-0.9-2.1,0.3-2.1s1.3-0.8,0.4-3.6c-0.7-2.2-1.9-2.7-3-1.3c-1.1,1.3-5.1,0.7-6.3-1
		c-0.2-0.3-0.4-1.1-0.4-1.7c0-0.7-0.9-1.9-2.3-3c-2.5-2.1-2.9-2.8-1.3-2.8c1.3,0,5.7,4.4,5.7,5.7c0,0.6,0.5,1.1,1.3,1.3
		c1.6,0.4,2.3-0.4,2.3-2.7c0-0.9,0.2-1.7,0.5-1.9c0.8-0.5,1-2.8,0.3-3.4c-0.4-0.3-0.7-1-0.7-1.5c0-1.2-2.5-2.1-6.3-2.1
		c-2.6,0-3.5-0.3-6.3-1.9c-2.1-1.2-3.6-2.5-4.2-3.6c-0.9-1.7-2.1-2.1-3.8-1.2c-1,0.6-1.3,0.2-0.6-0.8c0.6-0.9,2.6-1.7,3.4-1.4
		c0.4,0.2,1.2,1.1,1.9,2.1c0.7,1.1,1.8,2.1,3.1,2.6c1.1,0.5,2.2,1.2,2.3,1.7c0.3,0.9,0.9,1,5.2,1c4.1,0,5.1-0.2,6.2-1
		c1.7-1.3,3.1-1.3,6.3,0.3c3.1,1.6,3.4,2.4,4.2,10.8c0.6,6,2.6,12.3,4.6,14.5c0.6,0.7,1,1.8,1,3.1c0,2.2,0.9,5.3,1.5,5.3
		c0.3,0,1.2,0.8,2.3,1.8c2.3,2.3,4.8,2.6,4.3,0.6c-0.2-0.9,0.1-1.6,1-2.7l1.3-1.4l1,1.3c0.6,0.7,1.1,1.9,1.3,2.7
		c0.4,1.7,1.4,2.7,2.5,2.3c0.5-0.2,0.7-1.1,0.6-3.5c-0.2-3.7-0.9-6.1-2-6.1c-0.4,0-0.9-0.7-1.1-1.5c-0.2-1-0.7-1.5-1.3-1.5
		c-1.2,0-1.6-1.9-0.7-2.7c0.8-0.6,0.8-1.3-0.4-6.4c-0.5-2.4-0.4-2.9,0.5-4.6c0.6-1.1,1-2.6,1-3.3c0-0.8,0.2-1.5,0.5-1.6
		c1.2-0.8,0.9-8.2-0.5-9.1c-1-0.6-3.1-5.9-2.5-6.2c1.4-0.9,5.5,2.5,6.9,5.7c0.8,1.6,0.4,6.6-0.6,7.8c-0.4,0.4-1.2,1.9-2,3.2
		c-2.2,4.1-2.6,15.4-0.6,14.6c0.5-0.2,0.7,0.1,0.7,0.9c0,0.7,0.4,1.5,0.8,1.9c0.4,0.4,0.8,1,0.8,1.4c0,1.9,1.6,3.7,3.7,4.3
		c1.2,0.4,2.7,1,3.3,1.4c0.6,0.4,2.5,0.8,4.1,0.9c2.6,0.1,3,0.3,4.1,1.6c0.7,0.9,1.2,1.9,1.2,2.3c0,0.4,0.7,1.5,1.5,2.5
		c1,1.1,1.5,2.3,1.5,3.4c0,2,0.4,2.6,2,3.4c0.6,0.3,1.1,0.9,1.1,1.3c0,0.4,0.8,1.7,1.9,2.8c1.1,1.3,1.9,2.8,2.1,4
		c0.2,1.1,0.7,2.4,1.2,3c0.5,0.6,1.4,1.5,2,2.2c0.6,0.7,2,1.3,3.1,1.5c1.1,0.2,2.1,0.5,2.1,0.8c0,0.3,0.5,0.5,1,0.5
		c0.6,0,1.2,0.3,1.3,0.5c0.2,0.3,2,0.5,3.9,0.5c2,0,4.4,0.4,5.4,0.8c1.4,0.6,2.3,0.6,4.5,0.2c1.5-0.3,2.9-0.8,3.3-1.1
		c0.4-0.3,1-0.3,1.6,0.1c0.9,0.5,6.8,0.7,11.1,0.4c0.9-0.1,2.1-0.5,2.8-1c2-1.3,4.1-1.7,4.1-0.7c0,0.5,1.3,1.5,3.4,2.5l3.4,1.6
		l-0.2,2.8c-0.1,2.1,0.1,2.8,0.6,3.1c0.4,0.2,1.7,0.8,2.9,1.4c1.2,0.6,2.7,1.1,3.4,1.1c0.7,0,3.6-1.4,6.5-3.1
		c4.1-2.4,5.2-3.4,5.5-4.5c0.2-0.8,0.8-2.6,1.4-4c0.8-1.9,1-3.6,1-6.4c-0.1-3.1,0.2-4.1,1-5.1c1-1.3,1-1.3-0.1-2.4
		c-0.6-0.6-0.9-1.5-0.8-1.9s-0.1-1.1-0.5-1.4c-1.1-1-0.9-2.4,0.5-3.4c1.6-1,1.6-1.9,0-4.9c-1-2-1.2-2.8-1-4.7
		c0.3-2.3,0.3-2.4-2.4-4.9c-2.3-2.3-2.7-2.8-2.5-4.2c0.2-1.3,0-1.6-1.2-2.1c-0.8-0.4-1.5-0.9-1.6-1.3c-0.2-0.4-0.9-0.8-1.7-1
		c-1.7-0.5-5.8-3-7.1-4.4c-0.8-0.9-0.8-1.4-0.4-3.6c0.5-2.3,0.4-2.6-0.4-2.6c-1.1,0-1.7-2.4-1-4.3c0.3-0.8,0.9-1.4,1.3-1.4
		c0.9,0,2.8,2.9,2.8,4.1c0,1.6,1.9,5.1,2.8,5.5c2.6,0.8,5.3,3,5.9,4.8c0.3,1.1,1.1,2.5,1.8,3.2c1.5,1.6,3.9,1.9,3.9,0.5
		c0-0.6,0.5-1.4,1-1.9c1.2-1.1,1.4-5.6,0.3-8.7c-0.7-1.9-2.5-3.9-3.7-3.9c-0.3,0-1.2-0.7-2-1.4c-1.1-1.2-1.3-1.9-1.2-3.4
		c0.1-1.7-0.2-2.2-1.9-3.7c-1.5-1.3-1.9-1.9-1.5-2.3c1-1,3.4,0.7,5,3.5c1.4,2.5,4,5.2,5.1,5.2c0.4,0,1.6,1.1,2.9,2.4
		c2,2.1,2.4,2.2,2.8,1.5c0.4-0.7-0.1-1.4-1.9-3.3c-3-3.1-3.1-3.9-0.1-1.1c1.2,1.1,2.6,2.1,3,2.1c1.7,0,3.4,1.2,3.4,2.5
		c0,1.6,3.4,7.2,4.7,7.6c0.6,0.2,1.8,1,2.8,1.9c2.2,2,2.4,4.4,0.5,6.2c-0.7,0.7-1.5,2.2-1.9,3.3c-0.6,1.7-0.5,2.5,0.5,5.2
		c0.6,1.7,1.1,4.4,1.1,6c0,1.5,0.4,3.5,0.8,4.4c0.4,0.9,0.9,2.7,1.1,4.2c0.3,2.6,2.1,7.6,2.8,7.6c0.7,0,2.5,3.5,2.5,4.7
		c0,1.7,1.5,3,3.4,3c0.9,0,2.1,0.4,2.8,1c1.1,0.9,1.1,1,0.5,3.8c-0.7,2.8-0.7,2.9,0.8,4.9c0.8,1.1,1.9,2.2,2.4,2.4
		c1.4,0.5,2.2,2.2,1.4,3.1c-1.6,2,2.4,5.1,6,4.7c1-0.1,1.8,0,1.8,0.3c0,0.3,0.5,1,1.1,1.7c0.8,0.9,0.9,1.2,0.4,1.2
		c-1.2,0-3.8,2.9-3.4,3.9c0.3,0.7,0.5,0.7,2.1,0.1c1.2-0.5,2.9-0.6,5.4-0.4l3.7,0.3v-1.5c0-2.1,0.5-2.6,3-3.5
		c2.7-0.9,9.9-1,11.4-0.2c0.8,0.5,1.3,0.5,2.7,0c1.4-0.5,1.7-0.5,2.1,0.2c0.2,0.4,0.8,0.8,1.2,0.8c0.9,0,3.8,2.9,3.8,3.8
		c0,1.9,5,3.3,6.4,1.9c0.3-0.3,1.7-0.4,3.3-0.2c2.4,0.3,2.9,0.6,3.5,1.8c0.4,0.8,0.9,1.4,1.2,1.4c1.2,0,4,1.7,4.3,2.6
		c0.5,1.5,3.9,3.1,5.1,2.4c0.6-0.3,1.2-0.8,1.4-1.1c0.2-0.4,1.5-0.8,2.8-1c1.7-0.3,2.5-0.6,2.6-1.3c0.2-0.6,0.7-1.1,1.1-1.3
		c0.5-0.2,1.7-1,2.8-2c1.9-1.5,2.1-2,2.4-5c0.2-1.8,0.1-3.5-0.1-3.8c-0.3-0.3-0.5-0.7-0.5-0.9c0-0.8,1.1-0.4,2.9,1.3
		c1,0.9,2.5,2,3.3,2.5c1.5,0.8,1.5,0.8,3.6-1.1c1.8-1.7,2.4-2,4.4-2c1.6,0,2.9-0.4,4.2-1.3c1-0.7,2.4-1.3,2.9-1.3
		c0.9,0,1,0.3,0.9,2.3c-0.2,1.6,0,2.3,0.4,2.3c0.7,0,5.1-3.4,5.8-4.5c0.2-0.4,0.7-0.7,1.1-0.7c1.5,0,3-7.9,2-10.5
		c-0.2-0.5-0.8-0.8-1.3-0.8c-0.5,0-1-0.3-1-0.6s-0.5-1.2-1.1-2c-0.1-0.1-0.2-0.2-0.3-0.3l-13.9,10.1l5.6-17.4l-2-1.4
		c-0.3-0.1-0.7-0.2-1.2-0.4c-3-0.8-3.1-0.8-5.6,0.4c-2.4,1.1-7.5,2-8.1,1.4c-0.5-0.6,0.7-2,2.8-3.5c1.6-1.1,3-1.6,5.6-1.9
		c0.3,0,0.6,0,0.9-0.1l-7.3-5.3h18.4l5.6-17.4l5.6,17.4H515c0.6-1.6,1.3-2.7,1.7-2.7c1,0,2.5-2.2,2.6-3.7c0-2.8,0.7-4.7,1.6-5
		c0.8-0.2,0.9-0.6,0.6-2.9c-0.4-3.5-1.1-5.3-2.3-5.7c-0.5-0.2-1-0.7-1-1.1c0-1.7-4.9-4.3-10.9-5.6c-0.8-0.2-1.6-0.9-2.1-1.7
		c-0.7-1.3-0.9-1.4-4.3-1.4c-2.9,0-4.1-0.3-6.2-1.4c-2-1-3.3-1.4-5.5-1.4c-2.4,0-3-0.2-4.1-1.3c-2.6-2.9-6-4.4-13.2-6.1l-2.7-0.7
		l-2.7,2.3c-1.9,1.6-2.7,2.2-4.4,2.6l-8,5.8L460,414l-14.8-10.7l-5.5,4c0,0,0,0,0,0.1c1.4,1.9,1.9,3.1,2.2,5.7
		c0.4,3.6,1.8,5.2,4.5,5.2c0.8,0,3.3,0.9,5.6,2.1c2.3,1.1,4.4,2.1,4.9,2.1c0.4,0,1.2,0.9,1.7,2c1,2,5.2,6.3,6.2,6.3
		c0.3,0,0.6,0.6,0.8,1.3c0.2,0.9,0.9,1.6,2.1,2.1c1,0.4,2,1.2,2.2,1.9c0.4,1,0.2,1.3-0.9,1.9c-1.1,0.6-1.5,0.6-2.9-0.3
		c-3.4-2-6.3-4.5-8.5-7.3c-2.6-3.3-5.3-4.8-9.9-5.9c-2.4-0.5-3.2-0.9-3.9-2.1c-0.5-0.8-1.2-1.4-1.7-1.4c-0.5,0-1.2-0.7-1.7-1.5
		c-1-1.9-1.1-1.9-3.3-0.3c-1.5,1.1-2.3,1.3-5.7,1.3c-2.6,0-4.3,0.3-5,0.8c-0.9,0.6-1.4,0.6-3.3,0.1c-1.9-0.6-2.4-1-3.9-3.8
		c-2.3-4.2-5.9-7.1-9.8-7.9c-1.6-0.4-4.3-1.4-6-2.3c-3.4-1.9-4.5-2.2-6.5-1.6c-1.1,0.3-2.1,0-4.9-1.5c-3.4-2-3.7-2-8-1.9
		c-2.8,0.1-4.5-0.1-4.5-0.4c0-0.3,0.5-0.5,1-0.5c0.5,0,1.5-0.2,2.2-0.5c0.7-0.3,1.6-0.6,2.1-0.8c0.9-0.3,0.8-0.5-0.6-2.1
		c-0.9-1-1.6-2.1-1.6-2.4s-0.5-0.4-1.1-0.3c-2.1,0.6-2.6-0.2-0.9-1.2c1.3-0.7,1.7-1.3,1.9-2.5c0.2-1.4,0.1-1.5-2.1-1.9
		c-1.2-0.2-2.8-0.7-3.5-1c-1.2-0.7-1.2-0.7,0.8-0.7c4.5,0,6.8-1.2,5.5-2.9c-0.4-0.4-0.5-1.5-0.3-2.7c0.3-2.2,0.5-2-3.8-4
		c-0.9-0.4-1.7-1-1.7-1.3c0-0.3,0-0.7,0-1c0-0.2,0.4-0.4,0.9-0.4c0.5-0.1,1.2-0.1,1.5-0.2c0.9-0.1,0.8-2.5-0.2-3
		c-0.5-0.3-1.3-0.4-1.9-0.2c-0.6,0.2-1.3-0.3-2-1.2c-0.7-0.9-1.4-1.3-2.1-1.1c-0.5,0.2-1.2-0.1-1.5-0.5c-0.4-0.4-1.9-1-3.4-1.5
		c-1.5-0.4-2.8-0.9-2.8-1c0-0.1,0.8-0.5,1.9-0.8c1.5-0.5,2-0.5,2.7,0.2c2.5,2.3,0.7-4.3-2.2-8.1c-1.1-1.5-1.7-1.9-3.2-1.9
		c-1,0-2.7-0.5-3.8-1c-1.9-0.9-4.2-3.2-4.2-4.2c0-0.2-1.5-2-3.3-3.9c-3-3.1-3.4-3.4-4.7-3.1c-4.5,1.1-4.6,1.1-7.6-1.8
		c-4.2-4.2-6.8-6.5-8-6.9c-1.3-0.4-1.4-1.3-0.1-1.3c1.6,0,4.4,1.4,5.9,2.9c4.9,5.1,5.1,5.3,6.6,5.3c0.9,0,2-0.3,2.6-0.6
		c0.8-0.4,1.3-0.4,2,0.3c0.5,0.5,1.2,0.8,1.7,0.8c1,0,2.6,1.8,3.9,4.4c0.6,1.2,2.3,3,4,4.3c3.3,2.5,4.6,2.8,4.2,0.9
		c-0.4-1.6,1-4.4,2-4.1c0.5,0.2,0.6,0.8,0.5,1.7c-0.5,2.2,1.5,5.7,3.1,5.7c1.1,0,1.3,0.3,1.6,3.2c0.5,4.1,0.9,4.9,2.8,5.1
		c1.6,0.3,2.1-0.5,2.1-3.1c0-2,1.6-1.1,2.5,1.3c0.5,1.5,1,2.3,2,2.5c0.9,0.2,1.2,0.7,1.2,1.5c0,1.9,1.1,2.5,3,1.5
		c1.7-0.9,2-1.5,0.9-1.9c-0.4-0.2-0.9-1.2-1.1-2.3c-0.2-1.1-1-2.7-1.9-3.7c-0.8-0.9-1.7-2.3-2.1-2.9c-0.3-0.6-1.5-1.7-2.7-2.3
		c-1.9-1-2.1-1.3-1.6-2.1c0.4-0.7,1.1-0.9,2.1-0.8c2.7,0.3,2.2-1.3-1.5-5c-1.9-1.9-3.4-3.5-3.4-3.8c0-0.3-0.5-0.7-1-0.8
		c-0.6-0.2-1-0.7-1-1.2c0-0.5-0.4-1.2-0.8-1.6c-0.9-0.7-1-2.1-0.3-2.1c0.7,0,2.6,1.9,2.6,2.6c0,0.3,2,2.6,4.4,5.1l4.4,4.5l2.3-2.2
		c2.4-2.3,3-4.7,1.5-5.2c-0.4-0.2-0.8-0.6-0.8-1c0-0.8-1.7-2.3-2.7-2.3c-0.4,0-1.4-0.3-2.2-0.5c-1.2-0.5-1.3-0.7-0.8-1.3
		c0.8-1,1.8-1,4.2,0.1c1.7,0.9,3.5,3.4,3.5,5.2c0,0.4,1,1.2,2.2,2c3,1.9,6,4.8,6,6c0,1,2.9,4.5,3.8,4.5c0.4,0,1.7,1.4,3.2,3.1
		c1.4,1.7,3.4,3.7,4.5,4.4c1.7,1.2,1.9,1.2,1.9,0.4c0-0.5-0.8-1.9-1.7-3c-1.7-2-2.1-2.8-1.9-4.2c0.1-1,0.9-0.7,2.6,1
		c1.4,1.5,2,2.5,2.8,5.2c0.3,0.9,0.5,0.9,1.9-0.5c1.4-1.3,1.5-1.8,1.5-4.9c0-3.3-0.1-3.5-1.5-4.3c-0.8-0.4-2-0.8-2.6-0.8
		c-0.6,0-1-0.2-1-0.5c0-0.3-0.7-0.7-1.5-1.1c-0.9-0.4-1.5-1-1.5-1.5c0-0.5-0.3-1.3-0.7-1.9c-0.9-1.2-0.2-2.8,1.1-2.8
		c0.5,0,1.2-0.3,1.6-0.6c0.4-0.4,2.1-0.7,4.3-0.7c0.1,0,0.2,0,0.3,0l2.1-3.4c-0.2-0.2-0.4-0.4-0.6-0.7c-2.7-2.9-4.6-3.1-5.9-0.7
		c-1,1.8-2.5,1.9-2.7,0.1c-0.2-0.8,0.2-1.3,1.2-1.6c1.8-0.7,1.4-1.5-1-2.4c-1.7-0.6-2.2-0.6-3.2,0.1c-1.3,0.9-3.2,1-3.2,0.2
		c0-0.3,0.5-1,1.1-1.5c1.1-0.9,1.1-0.9,0.2-2c-0.5-0.6-1.1-0.9-1.4-0.8c-0.6,0.4-2.5-0.7-2.5-1.5c0-0.9-3.7-4.4-6.7-6.4
		c-3.2-2.2-4.3-3.4-3.9-4.7c0.4-1.2,0.7-1.3,2.5-0.6c0.9,0.3,1.4,1,1.6,2.3c0.3,1.4,0.8,2.1,2.5,3.1c1.1,0.7,2.7,1.9,3.3,2.6
		c1.5,1.6,2.4,1.7,3.1,0.3c0.3-0.6,1-1,1.6-1c1,0,2.4-1.3,2.5-2.2c0-0.2-1.1-0.7-2.5-1.2c-1.4-0.5-2.9-1.2-3.3-1.7
		c-0.8-0.9-0.8-1,0.2-1.7c1.5-1,3.8-0.4,5.9,1.7c0.9,0.8,1.9,1.5,2.3,1.5c0.4,0,1.5,0.7,2.4,1.6c1.6,1.6,1.7,1.6,4.4,1.1
		c2.7-0.6,2.8-0.5,6.3,1.5c1.4,0.8,2.6,1.5,3.6,2.1l30-47.9l26.1,40.8c3,0.1,5.8,0.4,6.9,0.9v-75.9H478c0,0.1-0.1,0.2-0.1,0.4
		c-0.3,1.6-3.1,5-3.7,4.4c-0.2-0.1,0.1-1.4,0.5-2.8c0.1-0.5,0.3-1.2,0.4-2h-33.8l-5.9-9.4c-1.5,0.4-2.9,1-3.5,1.7
		c-1.6,1.9-1.5,3.8,0.2,4.4c0.7,0.3,1.2,0.8,1.1,1.2c-0.4,1.1-1.9,1-3.1-0.3l-1.1-1.3l-3.2,1.5c-2.4,1.1-3.9,2.3-5.8,4.6
		c-2.8,3.3-3.1,4.6-1.7,7.2c0.4,0.9,0.7,2.1,0.6,2.7c-0.2,1.4-1.7,1.7-2.2,0.5c-0.2-0.6-0.8-1.1-1.3-1.3c-0.6-0.2-1.4-1.1-1.9-2.1
		c-0.5-1-1.1-1.9-1.5-1.9c-0.4,0-0.9,1.2-1.2,2.6c-0.7,2.8-1.3,3.5-2.2,2.6c-1.5-1.5-4.7,0.4-5,2.8l0.6,1.8c0.4,0.3,1.1,0.5,2,0.5
		c0.5,0,1,0.4,1,0.8c0,0.6-0.6,0.8-2,0.8c-0.1,0-0.2,0-0.4,0l0.4,1.1h18.4l-14.9,10.8l5.6,17.4l-14.8-10.7l-2.9,2.1
		c0,0.4-0.1,0.7-0.2,1l-0.5,1l-1-0.8l-10,7.3c-0.1,1.9-0.4,2.4-1.7,3.6c-2.4,2.4-3.4,0.8-1.5-2.4c0.9-1.5,0.9-1.6-0.3-3.9
		c-0.6-1.3-1.1-2.9-1.1-3.7c0-0.7-0.4-1.4-0.7-1.5c-1.2-0.5-3.9,1.4-4.3,2.9c-1,4.2-3.5,7.4-8.9,11c-1.5,1-3.4,2.6-4.2,3.4
		c-1.3,1.4-1.8,1.5-4,1.5c-1.4-0.1-2.8,0.2-3.1,0.4c-0.4,0.3-1.9,0.7-3.3,0.9c-2.5,0.3-2.7,0.3-2.7-0.6c0-1.4-1.4-2.5-4.7-3.4
		c-3.5-1-6.5-1.1-8-0.3c-1.6,0.9-6.7,0.6-9.4-0.4c-2.7-1.1-3-1.7-1.3-2.5c1.7-0.8,2.6-0.8,4,0.1c0.9,0.6,2.5,0.7,7,0.6
		c6.3-0.2,9.6,0.4,10.8,1.9c0.8,1,2.4,1.2,7.7,1c3.1-0.1,3.2-0.1,2.2-1c-1.5-1.2-1.6-2.8-0.4-3.1c0.6-0.2,1.6-0.4,2.2-0.7l1.2-0.5
		l-1.2-1c-0.6-0.6-0.9-1-0.6-1c0.8,0,1.8-3,1.1-3.4c-0.7-0.4,2.5-2.2,3.9-2.3c0.7,0,0.9-0.5,0.9-2.5c0-1.4-0.3-2.9-0.6-3.3
		c-1.6-2.1-8.2-2-10.5,0.2c-0.9,0.9-1.5,1-3.5,0.7c-2.2-0.4-2.4-0.3-2.7,0.7c-0.2,0.9-0.7,1.1-2.3,1.1c-1.6,0-2,0.2-2,1
		c0,1.6-1.6,2.2-2.9,0.9c-1.1-1-1.2-1-2.1-0.3c-0.5,0.5-1.4,0.9-2,0.9s-1.2,0.2-1.5,0.5c-0.9,0.8-5.6,2.1-7.7,2.1
		c-1.4,0-3.3-0.6-5.2-1.5c-3.5-1.7-7.5-2.1-8.2-0.7c-0.3,0.5-2.4,1.3-5,2c-4.5,1.1-4.7,1.1-11.7,0.4c-5.9-0.7-7.4-0.7-8.7-0.1
		c-0.9,0.4-1.9,0.7-2.2,0.6c-0.3,0-2.1-0.2-4-0.4c-3.3-0.3-3.5-0.4-3.5-1.6v-1.3l5.9,0.4c5.1,0.3,6,0.3,6.2-0.5
		c0.2-0.4,0.1-1.1-0.3-1.5c-0.6-0.7-0.2-0.8,2.9-0.8c2.8,0,3.9-0.2,4.9-1c0.7-0.6,1.6-1,1.9-1c0.4,0,0.9-0.4,1.2-0.8
		c0.3-0.5,1.6-0.9,3.1-1c3.3-0.3,5.5-0.8,6.4-1.5c0.4-0.3,1.4-0.8,2.3-1.1c2.2-0.7,2-1.9-0.5-3c-1.8-0.9-2.5-0.9-5.9-0.4
		c-2.1,0.3-4,0.8-4.1,1.1c-0.3,0.4-1.2,0.4-3.2,0.1c-1.5-0.3-4.5-0.7-6.6-0.9c-2.3-0.3-3.8-0.6-3.6-0.9c0.2-0.3,0.8-0.5,1.5-0.5
		c0.7,0,2.4-0.2,3.8-0.5c2.7-0.5,3-1.4,0.6-1.9l-1.5-0.3l1.3-0.4c2.3-0.6,7.7-0.4,9.6,0.4c2.2,0.9,3.9,1,4.7,0.2
		c1-1,0.8-1.3-3.1-2.8c-2.1-0.8-4.2-1.9-4.6-2.4c-1.1-1-5.2-1.2-7.5-0.3l-1.4,0.6l1.4,0.5c1,0.4,1.9,0.4,2.8-0.1
		c1-0.5,1.4-0.5,1.7,0.1c0.4,0.5-0.4,0.8-3.3,1.1c-2.7,0.3-3.9,0.7-4.4,1.4c-0.8,1.1-2.3,1.3-1.9,0.3c0.2-0.4-0.1-0.8-0.5-1
		c-0.5-0.2-0.8-0.8-0.8-1.3c0-0.6-0.4-1.3-0.8-1.6c-0.7-0.5-1-0.5-1.7,0.2c-1.3,1.2-1.8,1-1.4-0.5c0.3-0.9,0-1.7-0.7-2.6
		c-1.4-1.8-1.3-2.2,0.5-2.2c1.5,0,4.6-1.2,4.6-1.9c0-0.1-0.5-0.5-1.1-0.8c-0.7-0.3-2-1.1-2.9-1.7c-1-0.7-2.3-1.3-2.9-1.3
		c-0.9,0-1.3-0.4-1.5-1.3c-0.3-1.1-0.6-1.3-2.5-1.3c-3.2-0.1-3.5,0-4.9,1.6c-1.1,1.2-1.6,1.5-3.4,1.4c-3.1-0.1-2.8-1.5,0.5-3.2
		c0.6-0.3,1.3-1.3,1.5-2.2c0.5-1.7,1.6-2.1,3.4-1.1c0.5,0.3,1.9,0.5,2.9,0.5c6.8,0.1,9.1-0.1,10.1-0.8c1.2-0.8,1.3-0.7-2.5-2.1
		c-0.4-0.1-0.7-0.4-0.7-0.6c0-0.5,4.1-2.2,5.2-2.2c1.4,0,4-2.8,4-4.5c0-2.3-1.3-3.8-3.4-3.8c-1.4,0-2.3,0.5-4.4,2.6
		c-1.4,1.4-2.8,2.6-3.1,2.6c-0.9,0-0.4-1.4,1.4-3.9c1.6-2.1,1.8-2.6,1.3-3.7c-0.5-1.1-0.9-1.2-3.7-1.2c-4.7,0-7,0.9-8.5,3.2
		c-1.4,2.1-2.2,2.2-2.2,0.2c0-1.5-1.4-2.1-2.9-1c-1.5,1-1.5,2.3-0.2,4c1.4,1.7,1.3,3.5-0.3,5c-0.7,0.7-1.3,1.6-1.3,2.2
		c0,0.5-0.4,1.6-0.9,2.5c-0.9,1.5-0.9,1.5-4.5,1.2l-3.6-0.3l-1.5,2.5c-0.8,1.3-1.9,2.5-2.3,2.5c-1.2,0-1.2-2,0-3.9
		c0.6-1,1.4-2.5,1.8-3.4c0.4-0.9,1.2-1.7,1.8-2c0.6-0.2,1-0.7,1-1.1c0-0.4,0.5-0.9,1-1c0.9-0.3,1-0.6,0.7-2.9
		c-0.3-2.7-0.3-2.7,1.3-3.4c2-0.8,3.1-3.2,3.1-6.8c0-1.7-0.2-2.6-0.8-2.8c-0.7-0.3-1.1-2.3-0.5-2.3c0.8,0,2.3,1.1,2.3,1.7
		c0,0.4,0.9,0.8,2.4,1c3.4,0.5,3.7,0.4,4-0.7c0.9-3.4,16.5-1.3,19.3,2.6c0.5,0.7,1.3,0.9,2.9,0.9c1.6,0,2.8,0.4,4.2,1.3
		c1.3,0.9,2.6,1.3,4.1,1.3c1.2,0,3.2,0.4,4.4,0.8c1.6,0.6,4.4,0.8,10.6,0.8c8.4,0,8.4,0,8.9-1.2c0.3-0.7,0.7-1.4,1-1.6
		c1.1-0.7,6.1-1.2,8.2-0.8c1.6,0.3,2.3,0.2,2.7-0.3c0.3-0.4,1-0.7,1.5-0.7c2,0,5.1-1.3,5.1-2.1c0-0.4-0.8-1.2-1.8-1.6
		c-1.5-0.8-2-0.8-3.5-0.1c-1,0.4-3.5,0.9-5.6,1.1c-4.6,0.4-8.6,1.4-10.4,2.5c-1.6,1.1-2.4,0.6-2.4-1.5c0-1.9,0.8-2.8,3.5-4.2
		c3.1-1.6,4.7-1.8,6.6-1c2.2,0.9,3.9,1,4.7,0.2c0.4-0.4,2.4-0.7,4.6-0.8c2.8-0.1,4.1-0.4,4.5-0.9c0.3-0.4,0.8-0.8,1.2-0.8
		c0.3,0,0.6-0.5,0.6-1c0-1-0.9-1.6-2.6-1.6c-0.5,0-1-0.4-1.2-0.8c-0.4-1.2-6.2-1-8.9,0.3c-2,0.9-2.4,0.9-4.1,0.3
		c-1-0.4-2.8-0.9-3.9-1.1c-2.5-0.4-1.6-1.3,1.3-1.3c2.6,0,5-0.9,6.9-2.6c1.3-1.1,2.3-1.4,5.3-1.7c4.7-0.4,6.2-1.1,7.5-3.5
		c1-1.8,1-1.9,0.1-2.9c-0.7-0.7-0.8-1.4-0.6-2.4c0.2-0.8,0.1-1.3-0.2-1.3c-0.3,0-0.6-0.5-0.8-1.2c-0.2-0.6-0.6-1.6-1-2.1
		c-0.7-0.9-0.8-0.9-2.3,0.2c-0.9,0.7-1.6,1.5-1.6,1.9c0,0.6-3,2-3.4,1.5c-0.2-0.1,0.1-0.8,0.5-1.4c0.4-0.6,0.9-1.7,1.1-2.3
		c0.4-1.1,0.2-1.1-2.9-1.1c-2.2,0.1-4.3-0.3-6.5-1.1l-3.2-1.2l-1.2,1.2c-1.6,1.5-2.8,1-2.8-1.2c0-1.6,0.2-1.9,1.4-2.2
		c1.2-0.3,4.6-1.2,8.3-2.2c1.7-0.5,2-2.9,0.5-4.5c-1.9-1.9-3.5-2-6.7-0.3c-2.6,1.4-3.6,1.6-3.6,0.6c0-0.3,1-0.8,2.3-1.3
		c1.3-0.5,2.7-1.4,3-2c0.7-1,0.9-1,2.4-0.4c2,0.8,4.3,0,3.8-1.3c-0.5-1.1-3.1-2.5-3.5-1.8c-0.2,0.3-1,0.5-1.8,0.5
		c-1.9,0-5.6,1.4-7,2.7c-1.3,1.1-1.7,1.2-1.7,0.2c0-1,9.2-5.4,11.3-5.4c0.9,0,1.9-0.4,2.2-0.8c0.4-0.4,1.1-1.2,1.6-1.6
		c2.4-2.2,3.3-6.5,1.5-7.1c-0.5-0.2-1.4-0.6-2.1-0.9c-1.5-0.7-3.1,0.6-3.5,3c-0.3,1.5-0.6,1.7-2.5,2.2c-1.2,0.3-2.4,0.3-2.7-0.1
		c-0.4-0.3-2.1-0.3-3.9-0.1c-2.9,0.3-3.1,0.3-2.2-0.4c0.6-0.4,2-1,3.2-1.3c2-0.6,3.4-1.6,2.3-1.6c-1.1,0-0.6-1.6,0.7-2.1
		c1.8-0.7,2.1-1.5,0.9-2.4c-0.7-0.5-1.1-1.3-1.1-2.2c0-0.8-0.1-1.7-0.1-2.2c-0.1-0.4,0-1.2,0.1-1.7c0.1-0.8-0.3-1.1-1.4-1.5
		c-1.3-0.4-2.1-0.2-4.7,1.1c-1.7,0.9-3.2,1.8-3.2,2.1c0,0.2-0.7,1.3-1.6,2.4c-0.9,1.1-2.3,3.4-3.1,5c-1.4,2.8-1.5,3.2-1.1,6.3
		c0.5,3,0.4,3.2-0.7,3.8c-0.7,0.4-1.2,1.3-1.4,2.5c-0.6,3.3-1.6,7.5-2,8.1c-0.6,0.9-1.4,0.8-1.4-0.1c0-0.4-0.5-0.8-1-0.8
		c-0.8,0-1.1,0.5-1.3,1.9c-0.5,3.1-0.5,8.4-0.1,10.8c0.5,2.5-0.5,4.7-2.4,6c-0.7,0.4-2.7,3.1-4.5,6c-2.7,4.2-3.4,5.1-4.3,4.8
		c-2.5-0.7-2.5-1.3,0.3-3.7l2.7-2.4l0.5-4.5c0.4-3.7,0.3-4.8-0.3-6c-0.3-0.7-0.5-1.6-0.5-2.4H273c-0.5,0.7-0.4,1.1-0.1,1.9
		c0.8,1.9-0.2,3.7-2.8,4.9c-1.4,0.7-1.9,1.3-2.4,2.9c-0.3,1.2-1.2,2.9-2.1,3.9c-0.8,0.9-1.5,1.9-1.5,2.1s-1,0.9-2.3,1.6
		c-2.2,1.2-2.3,1.3-2,3.1c0.3,1.6,0.2,2-0.8,2.3c-0.6,0.2-1.5,0.1-2-0.2c-0.7-0.4-1.8-0.3-3.8,0.2c-1.5,0.4-3.6,0.8-4.6,0.8
		c-2.2,0-9.1,1.6-10.9,2.6c-0.7,0.4-1.7,1.1-2.3,1.6c-0.6,0.6-1.6,0.9-2.3,0.9c-1.1-0.2-1.3,0.1-1.6,2.2c-0.3,1.4-0.9,2.8-1.9,3.8
		c-1.3,1.3-1.7,1.5-3.3,1.2c-1.6-0.3-1.8-0.5-2.1-2.4c-0.5-4-4-6.1-5-3.1c-0.7,2.1-2,2.5-2,0.6c0-0.8-0.4-1.8-0.9-2.3
		c-0.8-0.8-1.1-0.8-2.4-0.1c-0.8,0.4-1.6,0.6-1.9,0.5c-0.8-0.5-0.5-2.7,0.5-3.4c0.6-0.4,1.2-1.2,1.6-1.9c0.3-0.6,0.9-1.1,1.3-1.1
		c0.8,0,2.8-3.8,2.8-5.2c0-0.5-0.2-1.1-0.5-1.2c-1-0.6-0.5-2.2,0.8-3.1c1.2-0.8,1.3-1.1,1.1-3c-0.2-1.6-0.8-2.6-2.4-4.1
		c-1.9-1.8-2-1.9-2.3-5.9h-35.6c0,0.7,0,1.4,0.1,2.2c0.2,1.6,0.5,3.2,0.7,3.5c0.5,0.8,0.1,4.6-0.7,5.4c-2.2,2.6-0.4,7.5,3.9,10.6
		c1.6,1.2,2.6,2.3,2.6,3c0,0.6,0.3,1.4,0.5,1.8c0.4,0.6,0.2,0.8-0.9,1c-1,0.2-1.4,0.6-1.5,1.4c-0.2,1.2-0.2,1.2-1.2,0.3
		c-0.6-0.6-1-1.5-1-2.8c0-1.5-0.3-2-1.3-2.5c-0.7-0.3-1.7-1.5-2.3-2.6c-1.2-2.4-4.4-4.1-8.6-4.5c-3.3-0.4-4.1-1.2-1-1.2
		c2.1,0,2.3-0.1,3.2-2c0.6-1.3,0.8-2.7,0.6-4c-0.9-5.5-0.9-5.7-3.2-7.3c-1.2-0.9-2.7-1.6-3.2-1.6c-0.6,0-0.4-0.3,0.7-0.8h-46.6
		c1.1,0.4,1.4,0.7,1,1.3c-0.2,0.5-0.8,2-1.2,3.4c-0.6,2.1-0.8,2.4-1.1,1.5c-1-2.9-2.2-4.6-3.4-5.1c-0.7-0.3-1.2-0.7-1.4-1.1h-11.3
		C102.9,200,102.7,200.2,101.4,200.2z M196.7,375.4c0.5-0.5,2.2-0.4,2.2,0.2c0,0.3-0.5,0.7-1,1c-0.7,0.4-1,0.4-1.2-0.2
		C196.5,376,196.5,375.5,196.7,375.4z"/>
	<path fill="#002395" d="M226.5,207.2c-0.2,2.4-0.6,5-1,6c-1.4,3.4-1.9,5.8-1.5,8.4c0.4,2.2,0.6,2.6,1.6,2.7
		c0.8,0.2,1.7-0.3,2.8-1.3c4.1-3.9,8.4-5.3,15.6-5.3c8.1,0,11.7-1.2,8.4-2.9c-1.6-0.9-0.5-1.4,2.2-1c1.6,0.3,2.8,0.1,4.6-0.7
		c2.6-1.1,3.1-2.2,1.3-3.2c-0.6-0.3-2-1.5-3-2.6c-1.6-1.7-2.2-2-4.2-2c-1.6,0-3.1,0.4-4.6,1.3c-2.5,1.4-4.1,1.6-4.1,0.6
		c0-1.2,5-3.3,8.7-3.7c2.9-0.3,3.6-0.6,5.3-2.2c1.5-1.5,1.9-2.2,1.9-3.8c0-0.3,0-0.5-0.1-0.8h-36
		C226.2,198.7,226.9,202.3,226.5,207.2z"/>
	<path fill="#002395" d="M366.1,409.5c0.7,0,0.6-2.2-0.4-6.7c-0.7-3.6-1.1-4.3-3.1-6.4c-1.3-1.3-2.4-2.3-2.5-2.3
		c-0.2,0-0.3,0.7-0.3,1.6c0,2.5,2,8.4,3.1,9.5c0.6,0.5,1,1.3,1,1.9C364,408,365.3,409.5,366.1,409.5z"/>
	<path fill="#002395" d="M521.6,358.6c1.7,0.8,3.6,1.5,4.2,1.5c0.5,0,1.2,0.2,1.5,0.5c1.2,1.2,13.6,0.5,17.3-0.9
		c0.8-0.3,3.1-0.6,5.2-0.6c4.9,0,5.7-0.3,4.6-1.7c-0.4-0.6-0.8-1.9-0.8-2.7c0-2-1.7-3.2-6.5-4.6c-1.7-0.5-3.9-1.3-4.8-1.8
		c-1.1-0.6-3.3-1-5.5-1.2c-3-0.2-4-0.5-5.3-1.6c-0.9-0.7-2.2-1.3-2.9-1.3c-0.7,0-1.4-0.4-1.5-0.8c-0.1-0.3-0.2-0.4-0.4-0.6
		l-8.1,14.6C519.8,357.8,520.9,358.3,521.6,358.6z"/>
	<path fill="#002395" d="M231.6,425.3c-2.1,1.3-2.3,2.6-0.8,4c0.6,0.5,1,1.2,1,1.6c0,0.7,1.5,1.7,2.5,1.7c0.3,0,0.9-0.8,1.3-1.7
		c0.9-1.5,0.9-1.9,0.1-4.5c-0.5-1.5-0.8-3.4-0.8-4.2c0-1.1-0.4-1.7-1.6-2.5c-2.1-1.3-2.5-1.3-2.5-0.1c0,0.6,0.6,1.4,1.3,2
		C233.8,423.1,233.7,423.9,231.6,425.3z"/>
	<path fill="#002395" d="M365.5,438.6c0,3.2,0.1,3.3,1.2,3.3c1.5,0,2.2-0.8,2.5-2.8c0.1-1.1,0.6-1.7,1.6-2.2c1-0.5,1.4-1.1,1.4-2
		c0-1.9-1.3-4.7-2.5-5.3c-0.6-0.3-1.8-2-2.6-3.7c-2.4-5-3.3-5.6-4-2.9c-0.4,1.6-0.3,1.9,2.1,4.4c2.7,3,2.9,3.8,1.4,6.2
		C365.8,434.8,365.5,436.1,365.5,438.6z"/>
	<path fill="#002395" d="M419.5,329.8c-1.6-1.8-2.2-2.1-4.2-2.1c-1.2-0.1-3.3-0.3-4.6-0.6c-4.2-0.9-5.4-1-6.4-0.4
		c-1.3,0.7-2.5,2.4-2.1,3c0.2,0.3,0.9,0.5,1.5,0.5c0.6,0,1.3,0.4,1.5,0.8c0.3,0.9,1.9,1.1,1.9,0.3c0-1.3,1.1-0.5,5.4,3.7
		c0.9,0.8,1.8,1.5,2.1,1.5c0.3,0,0.6,0.3,0.8,0.8l4.4-7.1C419.8,330.1,419.6,329.9,419.5,329.8z"/>
	<path fill="#002395" d="M352.2,227.7c1.4-0.7,1.5-1,1.2-2.4c-0.4-1.7-2.9-4.5-4.2-4.5c-0.4,0-1.3,0.6-2,1.3
		c-1.5,1.5-1.9,5.6-0.5,6.1C348.2,228.7,350.6,228.5,352.2,227.7z"/>
	<path fill="#002395" d="M394.1,358.6c0.5,0,0.9,0.5,1.1,1c0.3,0.9,4.1,3.4,4.5,3c0.1-0.1-0.1-1.4-0.5-2.9c-0.5-2.1-1-3-2.2-4
		c-0.9-0.7-2.3-2.4-3.2-3.8c-0.9-1.4-1.9-2.6-2.2-2.6c-0.3,0-1.1-0.4-1.6-1c-0.6-0.5-1.4-0.8-1.7-0.7c-0.4,0.2-0.7,0.8-0.7,1.5
		c0,1-0.3,1.2-1.5,1.2c-1.7,0-2.1,0.7-2.1,3.7c0,1.7,0.4,2.4,2,4c1.1,1.1,2.3,2.9,2.6,4c0.4,1.2,1.7,3.1,3.1,4.5
		c2.1,2.1,2.8,2.4,5.2,2.7c2.2,0.3,3.1,0.7,4.2,1.9c0.8,0.8,1.4,2.1,1.4,2.7c0,1.9,0.6,2.8,1.6,2.8c0.5,0,1.7,0.4,2.6,0.8
		c1.5,0.8,1.6,0.8,2.3-0.1c0.8-1.1,0.9-1.9,0.1-2.6c-0.7-0.7-0.2-1.7,0.9-1.7s0.9-1-0.6-2.9c-0.8-1.1-1.7-1.7-2.6-1.7
		c-0.7,0-1.2-0.3-1.1-0.6c0.2-0.8-1.9-1.3-5.3-1.4c-3.2-0.1-4.2-0.6-5.1-3.1c-0.4-1-1-2.2-1.4-2.6
		C393,359.5,393.1,358.6,394.1,358.6z"/>
	<path fill="#002395" d="M343.7,184.9c0.7-0.4,1.8-0.6,2.3-0.6c1.5,0,1.3-2-0.3-2.6c-1.8-0.7-2.3-0.7-4.2,0.5
		c-2.1,1.2-2.1,1.9-0.4,2.7C342.1,185.3,342.7,185.3,343.7,184.9z"/>
	<path fill="#002395" d="M334.3,190.7c-1,0.4-2.6,0.8-3.5,0.8c-2.1,0-2.6,0.8-1.5,2.1c1.3,1.4,4.9,1.9,6.6,0.8
		c0.7-0.5,2.6-1.1,4.3-1.3c3.6-0.6,4.7-1.4,3.9-3c-0.7-1.2-0.8-1.2-2.4-0.6c-0.6,0.3-2,0.5-3.2,0.5
		C337.2,189.9,335.3,190.3,334.3,190.7z"/>
	<path fill="#002395" d="M76.9,324.1c-0.4,1.7,2.7,3,7.9,3.2c2.7,0.1,4.4,0.4,4.5,0.8c0.3,0.8,2.5,0.8,2.9,0.1
		c0.2-0.3,2.3-0.5,5.3-0.4c4.9,0.1,6.5-0.2,6-1.1c-0.8-1.2,1.6-0.3,3.8,1.5c2.3,2,2.4,2,4.3,1.3c1.6-0.5,2-0.5,2.2,0.1
		c0.4,1.1,1.9,0.9,1.9-0.3c0-0.5,0.4-1.3,0.8-1.6c0.7-0.5,0.8-1.2,0.6-3.1c-0.2-1.4-0.1-2.6,0.2-2.8s0.2-0.7-0.4-1.3
		c-0.6-0.7-1.2-0.9-2.2-0.6l-1.3,0.3l1.2-1.3c1.3-1.5,1.2-3.3-0.4-4.8c-0.8-0.8-1-0.7-2,0.5c-0.6,0.8-1.5,1.3-2.3,1.3
		c-1.9,0-2.9,0.5-2.9,1.3c0,0.4-0.5,0.7-1.3,0.7c-0.7,0-1.3,0.2-1.3,0.5c0,0.7-1.5,2.1-2.2,2.1c-0.3,0-0.4-0.6-0.2-1.6l0.4-1.5
		l-3.3,0.4c-5.1,0.6-5.2,0.6-5.6-0.8c-0.2-0.7-0.7-1.5-1.3-1.8s-1.1-0.7-1.3-0.9c-0.2-0.2-1.4-0.6-2.8-0.9c-1.4-0.4-3.2-1.1-4-1.6
		c-1.7-1.2-2-1.2-3.2-0.1c-1.2,1-2.5,4.5-2.1,5.3c0.3,0.3,1.1,0.4,2.4,0.2c1.3-0.2,2-0.2,2,0.2c0,0.3-0.4,0.6-1,0.6
		c-0.5,0-1.2,0.3-1.5,0.7c-0.3,0.4-1.2,0.6-2.1,0.5c-1.3-0.2-1.6,0-2.1,1.2c-0.4,1-0.4,1.6,0.1,2.1C76.9,322.8,77,323.6,76.9,324.1z
		"/>
	<path fill="#002395" d="M428.5,404.1c-0.9-2.3-2.2-3.2-5.9-4.2c-2.7-0.7-3.8-1.3-5.2-3c-1-1.2-2-2.7-2.2-3.4
		c-0.2-0.7-1.2-2.2-2.3-3.2c-2.2-2.1-6-3.3-10.4-3.3c-1.4,0-2.5-0.3-2.5-0.5c0-0.3-0.5-0.5-1.1-0.5c-1.7,0-4.4-1.9-5.5-3.6
		c-1-1.7-1.9-1.9-3.5-0.7c-1.4,1-1.5,2.2-0.2,3.4c0.6,0.5,1,1.5,1,2.4c0,1.3,0.2,1.5,1.3,1.5c1.1,0,1.3,0.2,1.3,2
		c0,1.8,0.2,2,1.7,2.4c0.9,0.3,2,0.5,2.4,0.5c0.4,0.1,1.5,0.8,2.4,1.7c1,1,2.1,1.7,2.9,1.7c1.9,0,3.3,0.7,6.5,3
		c1.6,1.2,3.7,2.3,4.8,2.5c1,0.2,2.1,0.5,2.2,0.7c0.2,0.3,0.8,0.5,1.5,0.5c0.7,0,1.6,0.4,2.2,0.8c0.5,0.5,1.7,1.5,2.8,2.4
		c1.1,0.9,2.3,2.2,2.7,2.9c0.4,0.7,1.7,2.4,2.9,3.8c2,2.1,2.5,2.5,4.9,2.7c2.3,0.3,2.8,0.2,3-0.5c0.4-1-0.4-3.7-1.4-5.2l-4.4,3.2
		l1.8-5.6C430.2,406.6,428.9,405.1,428.5,404.1z"/>
	<path fill="#002395" d="M546,308.4l-7.9,14.2c0.7,0.4,1,1,1.2,2h15.7L546,308.4z"/>
	<path fill="#002395" d="M292.9,195.9c0.1-0.6,0.1-1.4-0.1-2.2v2.8C292.8,196.3,292.8,196.1,292.9,195.9z"/>
	<path fill="#002395" d="M386.5,287.6c-1.4,0-1.4,0-1.4,3.5c0,0.4,0,0.7,0,1L386.5,287.6C386.5,287.6,386.5,287.6,386.5,287.6z"/>
	<path fill="#FFFFFF" d="M292.8,63.5c-0.9,1.6-0.9,2.5,0,2.8L292.8,63.5C292.8,63.4,292.8,63.4,292.8,63.5z"/>
	<path fill="#FFFFFF" d="M288,133.7c0.3,1,1.2,1.2,3.1,0.9c0.8-0.1,1.3-0.3,1.7-0.4v-18.1c0,0,0,0,0,0c-3.5,0.3-4.4,0.2-4.4-0.4
		c0-0.4,0.5-1,1-1.3c1.1-0.7,1.4-2.6,0.5-3.5c-0.4-0.4-0.3-0.8,0.3-1.2c0.7-0.6,0.7-0.8-0.6-2.2c-0.5-0.5-1-0.8-1.6-1.1V133.7z"/>
	<path fill="#FFFFFF" d="M224.4,196.6c0.1,0.1,0.1,0.1,0.2,0.2h36c-0.3-1.6-1.4-2.1-3-1.2c-0.6,0.3-1,0.4-1,0.3
		c0-0.6,1.1-2.6,2.1-3.6c0.1-0.1,0.1-0.1,0.2-0.2h-36.7C222.2,193.7,222.8,194.9,224.4,196.6z"/>
	<path fill="#FFFFFF" d="M292.2,183.2c-1.5,1.2-0.9,2.4,0.6,2.2v-3C292.7,182.7,292.5,183,292.2,183.2z"/>
	<path fill="#FFFFFF" d="M114.1,196.5c0-1.3-1.1-3.4-1.9-3.7c-1-0.4-1.7,0.1-2.1,1.3c-0.4,0.9-0.6,0.8-2.3-0.8c-3.2-3-5.2-2-5,2.7
		c0,0.3,0,0.6,0,0.8h11.3C114.1,196.7,114.1,196.6,114.1,196.5z"/>
	<path fill="#FFFFFF" d="M103.5,19.7c0.4,0,1.8,0.4,3.1,0.8c2.2,0.8,2.5,0.8,3.9-0.1c0.9-0.6,2-2,2.8-3.8c1.1-2.4,1.3-3.3,1.1-5.9
		c-0.3-2.7-0.5-3.3-2.1-4.7c-2.2-2-2.6-2.1-4.7-0.7c-1.3,0.8-1.6,1.4-1.9,3.7c-0.2,1.5-0.1,2.9,0.1,3.2c0.3,0.3,0.5,1.2,0.5,2
		c0,1.2-0.2,1.4-1.5,1.4c-0.8,0-1.7,0.4-2.1,0.8C102,17.3,102.5,19.7,103.5,19.7z"/>
	<path fill="#FFFFFF" d="M215.1,196c-0.1-1.7-0.3-3-0.5-4H192v-9.6c-0.3,0.3-0.8,0.5-1.3,0.8c-1.2,0.6-2.2,1.5-2.3,2.2
		c-0.1,0.6-0.4,2.2-0.7,3.4c-0.5,2.3-0.5,2.3-1,0.9c-0.8-1.9-1.6-1.7-3.8,0.5c-2.3,2.5-3.3,4.3-3.4,6.5h35.6
		C215.1,196.5,215.1,196.3,215.1,196z"/>
	<path fill="#FFFFFF" d="M292.8,196.6v-2.8c-0.1-0.7-0.3-1.4-0.5-2.1c-0.5-1.3-0.8-3-0.8-3.6c0-1.2-1.9-3.2-3.5-3.8v7.8h-2.5
		c0,0.6-0.3,1-0.7,1c-0.2,0-0.7-0.4-1.2-1h-5.2c-1,0.7-2.2,1.6-3.1,2.5c-1.2,1.1-1.9,1.8-2.2,2.3h19.7
		C292.8,196.7,292.8,196.6,292.8,196.6z"/>
	<path fill="#FFFFFF" d="M166.9,196.8c2.5-1.2,3.3-3.7,2.9-8l-0.4-3.4l2.6-0.4c1.4-0.2,2.8-0.6,2.9-0.8c0.2-0.3,0.7-0.5,1.3-0.5
		c1.6,0,1.2-2.2-0.8-4.1c-1-1-1.8-2.2-1.8-2.7c0-0.6-0.4-0.9-1.2-0.9c-2,0-3.9-0.9-3.9-1.9c0-0.6,0.3-0.7,0.9-0.5
		c0.5,0.2,1.7,0.5,2.8,0.6c1.4,0.2,2.3,0.8,3.5,2.3c1.4,1.7,1.9,2,3.7,2c1.9,0,2.4-0.4,6-3.8c2.2-2.1,4.5-4,5.2-4.2
		c0.4-0.1,0.9-0.3,1.3-0.5v-19.6c-0.2,0.2-0.3,0.4-0.5,0.6c-2.2,2.2-5.1,3.7-7.9,4.2c-1.6,0.3-2.3,0.1-3.1-0.8
		c-1.6-1.6-1.3-2.5,1.1-3.2c2.8-0.8,5-2.4,5-3.5c0-0.5,0.6-1.6,1.3-2.5c0.9-1,1.3-2.2,1.3-3.4c0-1,0.2-1.9,0.5-1.9
		c0.3,0,1.3-1.1,2.4-2.4V85.8c-0.8,0.9-2,2.2-3.6,4.1c-1.6,1.8-2.4,2.3-3.7,2.3c-1.1,0-2.5,0.7-4.9,2.6c-5.3,4.2-7.1,6.2-7.1,7.8
		c0,2,0.5,3,1.5,3c1.2,0,1.7,2.1,0.7,2.9c-0.5,0.4-0.7,1-0.5,1.6s-0.1,1.4-0.7,2.1c-0.6,0.6-1.1,1.7-1.1,2.6c0,1.5-1.1,2.9-1.7,2.3
		c-0.5-0.5-0.4-3.5,0.2-5.1c0.3-0.8,0.4-1.6,0.1-2c-0.3-0.3-0.6-1.3-0.8-2.3c-0.2-1.1-0.8-1.9-1.7-2.4c-1.4-0.7-1.5-0.6-3.1,0.9
		c-0.9,0.9-1.6,2-1.6,2.3s-0.8,0.6-2,0.6c-1.3,0-2.3,0.4-2.9,1c-0.5,0.6-1.5,1-2.2,1s-1.3,0.4-1.5,0.8c-0.2,0.4-0.8,0.8-1.4,0.8
		c-2.2,0-3.4,1.4-3.4,3.9c0,2.2,0.2,2.4,3,4.6c2.1,1.6,3.5,3.3,4.5,5.1c1.4,2.6,1.4,2.8,0.6,4c-1.2,1.9-1.2,4.8,0.2,5.1
		c0.6,0.2,1,0.6,1,1.1c0,0.7-0.2,0.8-1,0.3c-1.5-0.8-1.6-1.2-1.8-5.4c-0.2-4.6-0.6-5.1-5.2-7.4c-1.7-0.9-3.4-2-3.5-2.4
		c-0.2-0.4-0.8-0.8-1.5-0.8c-1,0-1.5,0.5-2.3,2.3c-0.6,1.2-1.1,3-1.1,4c0.1,3.6-0.5,6.2-1.3,7.2c-0.5,0.5-1.1,1.5-1.4,2.1
		c-0.3,0.6-0.9,1.2-1.2,1.3c-1,0.3-0.3-5.8,1.1-9.2c0.7-1.5,1.3-3.5,1.5-4.4c0.5-2.4,3.2-7.4,5.5-10c1.1-1.3,2.4-3.2,2.9-4.3
		c0.9-1.9,4.4-4.4,6-4.4c1.5,0,2.6-3.8,1.2-4.3c-1-0.4,0.6-1.4,2.1-1.4c0.7,0,2.2-0.7,3.4-1.5c1.2-0.8,2.7-1.6,3.2-1.8
		c0.5-0.2,2.3-1.5,3.9-3.1c2.9-2.8,9.4-7,10.9-7c1.1,0,1.7-1,2.1-3.2c0.2-1.4,1-2.6,3.2-4.7c1.6-1.6,3.2-2.9,3.5-2.9
		c0.3,0,1.2-0.6,2.1-1.4v-5.6c-0.9,0.5-2.5,1.1-4.2,1.7c-3.8,1.2-4.6,1.7-6.8,4.1c-1.4,1.5-3,2.9-3.8,3.1c-0.7,0.2-1.6,0.7-2,1
		c-2.5,2-10.7,5.5-13,5.5c-1.3,0,0.9-1.5,2.9-2c1.8-0.5,2.8-1.2,5.2-3.9c1.6-1.8,3.7-3.6,4.5-4c1.6-0.6,3.4-2,7.1-5.2
		c1.2-1,2.5-1.9,2.7-1.9c0.8,0,2.2-1.8,2.2-2.9c0-0.6-0.4-1.3-0.8-1.7c-0.7-0.5-1-0.5-2.3,0.2c-0.8,0.5-2.1,0.9-2.9,0.9
		s-1.8,0.3-2.2,0.7c-0.5,0.4-2.4,1.1-4.4,1.5c-3.7,0.8-9.3,3.2-10.5,4.7c-0.4,0.5-1.1,0.8-1.6,0.8c-1.4,0-1.2-1.9,0.2-2.4
		c0.6-0.2,2.7-1.2,4.6-2.3c2-1.1,3.8-2,4.1-2c0.3,0,1.7-0.9,3.2-2c1.4-1.1,3.3-2.3,4.2-2.7c0.9-0.4,2-1.2,2.5-1.9
		c0.5-0.7,2-1.6,3.2-2.2c1.2-0.5,2.2-1.2,2.2-1.4c0-0.3,0.2-0.8,0.3-1.3c0.4-1-1.1-1.1-1.7-0.2c-1.1,1.8-4.8,1.3-4.8-0.7
		c0-1.1-2.4-2.9-4.8-3.4c-0.8-0.2-1.3-0.6-1.2-0.9c0.2-0.4,1.4-0.6,3.7-0.5c3.5,0.2,4.9-0.4,4.9-1.7c0-0.4-0.6-1-1.3-1.2
		c-0.8-0.3-1.6-1.3-2.1-2.3c-0.9-2.2-2.9-3.2-5.7-2.9c-1.2,0.1-2.3-0.1-2.5-0.4c-0.4-0.7-1.2-0.7-1.5-0.2c-0.2,0.3-0.4,2.5-0.6,4.9
		l-0.4,4.6l-2.7-0.4c-6.4-0.8-6.4-0.7-7.4-2.7c-0.7-1.4-1.3-1.9-2.2-1.9c-0.7,0.1-1.5-0.4-1.9-0.9c-0.8-1.1-2.9-0.9-4.3,0.5
		c-0.7,0.7-0.8,1.4-0.5,4.6c0.5,4.7,1.5,6,5.1,6c1.9,0,2.4,0.2,2.6,0.9c0.2,0.7-0.2,0.9-1.2,0.9c-0.8,0-2.1,0.4-2.8,0.9
		c-1.3,0.8-1.7,0.8-4.3,0.1c-1.6-0.4-3-0.7-3.1-0.5c-0.7,0.7-0.2,3.8,0.8,4.3c0.6,0.4,1,1,1,1.5c0,1,1,1.5,3.1,1.5
		c0.8,0,1.5,0.2,1.5,0.5c0,0.3-0.6,0.5-1.3,0.5c-1,0-1.3,0.3-1.3,1.3c0,1.7-1.8,2.7-3,1.6c-1.3-1.2-5.1-2.4-5.7-1.7
		c-0.7,0.7,1.3,4.4,2.8,5.1c0.6,0.3,1.8,1.7,2.6,3.1c1.2,2.1,2,2.8,3.3,3.2c3.4,1,4,2,1.7,2.9c-3,1.1-4.7,4.7-2.9,6.1
		c0.4,0.4,1,1.1,1.3,1.7c0.5,1,0.4,1-2.7,0.7c-1.7-0.2-3.6-0.7-4.1-1.2c-1.2-1.1-1.7-0.2-1.2,2.7c0.3,2.1,0.2,2.4-1.2,3.9
		c-1.3,1.2-1.5,1.8-1.2,3c0.3,1.4,0.2,1.5-0.9,1.5c-2.4,0-2.8,0.6-2.1,4c1,4.8,1.1,4.5-0.8,4.4c-1.3-0.2-2.4,0.4-5.3,2.5
		c-3.6,2.6-3.7,2.6-5.5,2c-1.5-0.5-1.9-0.5-2.2,0.1c-1.2,2-1.2,2-3.9,1.5c-2.3-0.5-2.6-0.4-3.9,0.8c-0.7,0.7-1.4,1.1-1.6,0.9
		c-0.2-0.2-1.2,0.1-2.2,0.6l-1.9,0.9l0.3,5.2l0.3,5.2l1.7,1.2c0.9,0.7,2.5,1.4,3.4,1.7c1.6,0.5,1.7,0.7,1.7,2.8c0,2.4,1.3,6,2.4,6.6
		c0.4,0.2,0.7,1,0.7,1.9c0,1,0.7,2.2,2.5,4c1.3,1.4,2.7,3.1,2.9,3.8c0.6,2,2.8,4.1,4.6,4.4l1.6,0.3l-0.3,3.5
		c-0.3,3.9,0.5,5.8,2.7,6.6c0.8,0.3,1.4,1,1.6,1.9c0.5,2.3,1.7,5.5,2.5,6.3c0.5,0.5,0.6,1.6,0.4,3.5c-0.3,2.7-0.4,2.7-1.6,2.4
		c-0.7-0.2-1.3-0.4-1.3-0.4c0-0.1-0.3-0.9-0.7-1.9c-0.4-1-0.8-2.5-0.9-3.2c-0.2-0.8-0.8-1.8-1.5-2.3c-0.7-0.4-1.2-1.2-1.2-1.7
		s-0.2-1.1-0.5-1.2c-0.3-0.2-0.5-0.9-0.5-1.5c0-0.7-0.5-1.5-1-1.8c-1.3-0.7-3.1-0.2-2.8,0.8c0.2,0.4-0.2,0.8-0.9,0.9
		c-0.8,0.1-1.3,0.7-1.6,1.9c-0.3,0.9-0.8,1.8-1.1,2c-0.4,0.2-1.8-0.8-3.2-2.2l-2.5-2.4l-1.1,1.4c-0.6,0.8-1.9,2.3-2.9,3.3
		c-2,1.9-2.4,3-1.4,4c0.4,0.4,0.4,1,0.1,1.9c-0.4,1.1-0.3,1.5,0.5,2.3c1.4,1.3,1.2,2.2-0.7,3.3l-1.7,1l1,3c0.6,1.6,1.9,4.2,2.9,5.8
		c1,1.5,2.4,3.7,3.1,4.8c0.9,1.3,1.9,2.1,3.2,2.5c0.2,0.1,0.3,0.1,0.5,0.1L166.9,196.8C166.9,196.8,166.9,196.8,166.9,196.8z"/>
	<path fill="#FFFFFF" d="M292.8,181.8v-0.2C292.8,181.7,292.8,181.7,292.8,181.8z"/>
	<path fill="#002395" d="M60.4,34.9c0.4,0.6,1.3,1.1,2.4,1.3c1,0.2,2.2,0.5,2.5,0.8c0.4,0.3,1.9,0.8,3.4,1.1
		c2.7,0.6,2.9,0.6,4.6-0.9c1.1-0.9,1.9-2.1,2-2.9c0.1-0.8,1.1-2.3,2.2-3.4c1.1-1.1,2-2.2,2-2.5c0-0.8-1.8-1.5-3.6-1.5
		c-0.9,0-2-0.2-2.5-0.5c-0.6-0.3-1.2-0.3-1.8,0c-0.5,0.3-0.9,1-0.9,1.5c0,0.8-0.4,1-1.9,1c-1,0-2.3-0.4-2.8-0.9
		c-0.8-0.7-1.1-0.8-1.9-0.3c-0.5,0.4-1.4,0.9-2.2,1.1c-0.7,0.3-1.6,0.7-2.1,1c-0.9,0.5-1.3,3.1-0.7,3.6
		C59.6,33.7,60.1,34.3,60.4,34.9z"/>
	<path fill="#ED2939" d="M192.4,137.1c4.5-5.7,5-6.2,6.3-5.3c1.5,0.9,3.2,0.1,3.2-1.6c0-0.9-0.6-1.5-1.9-2.3c-2.5-1.4-2.1-2.4,1-2.2
		c2.2,0.1,2.4,0,3.2-1.6c0.5-0.9,1.4-2.2,2.2-2.8c1.1-1,1.3-1.6,1.7-6c0.4-4.5,0.3-8.3-0.3-11.1c-0.3-1.2-1.7-1.6-1.7-0.4
		c0,0.4-0.6,1.1-1.2,1.5c-0.8,0.5-1.5,1.7-1.8,3c-1.6,6.5-1.9,7.6-2.3,7.3c-0.2-0.2-0.4-1-0.4-1.8c0-1.1-0.4-1.6-1.4-2.1
		c-1.4-0.7-1.4-0.8-1.3-3.9c0.3-4.1-0.2-5.3-1.7-5.3c-1.1,0-1.2-0.3-1.2-1.7c0-2.4,0.5-3.4,1.6-3.4c1.9,0,5.1-1.6,6.4-3.3
		c0.9-1.2,1.9-1.9,3.2-2.1c1-0.2,2.8-0.9,3.8-1.6c1.2-0.7,2.7-1.2,4-1.2c1.6,0,2.2-0.3,2.6-1.1c0.4-0.6,0.5-1.1,0.4-1.2
		c-0.1-0.1-0.8-0.4-1.6-0.7c-1.3-0.6-1.4-0.8-1.1-2.6c0.3-2,0.3-2-2.3-3c-1.6-0.7-2.7-0.9-2.9-0.5c-0.2,0.3-0.9,0.4-1.6,0.3
		c-0.7-0.2-1.9,0.1-2.4,0.5c-1,0.7-1.2,0.6-1.8-0.1c-0.9-1-1.5-1-2.9,0.4c-2.6,2.5-3.3,3-4.9,3c-1.1,0-1.6,0.1-3.3,1.9v51.8
		C192.1,137.4,192.3,137.2,192.4,137.1z"/>
	<path fill="#ED2939" d="M197.9,165.3c1.4-2.1,1.6-2.8,1.6-5.2c-0.2-7.9-0.3-8.6-2.4-9.5c-0.3-0.1-0.3-0.5,0.2-0.9
		c0.8-0.8,0.8-3.3,0.1-3.8c-0.3-0.2-0.7-0.9-1-1.6c-0.7-1.9-2-1.5-2.3,0.7c-0.5,3.4-0.8,4.1-2,5.5v19.6
		C194.3,169.1,196.6,167.3,197.9,165.3z"/>
	<path fill="#ED2939" d="M192.2,74.2c1-0.8,3.2-2,5-2.6l3.2-1.1v-2.4c0-1.3-0.3-3-0.7-3.7c-0.8-1.6-2.4-2-2.4-0.6
		c0,0.7-0.7,1.5-2,2.3c-1,0.7-2.2,1.5-2.6,2c-0.1,0.1-0.4,0.3-0.8,0.6v5.6C192.1,74.3,192.1,74.3,192.2,74.2z"/>
	<path fill="#ED2939" d="M282.4,140.6c1.4-0.4,2-1,2.4-2.4c0.6-1.6,0.5-2-0.4-2.9c-0.6-0.6-1.4-1.7-1.9-2.5
		c-0.8-1.4-3.2-2.5-4.3-2.2c-0.4,0.2-0.7,0.9-0.7,1.6c0,0.8-0.5,2.1-1,2.9c-1.3,2-1.3,3.2,0,3.6c0.8,0.3,1,0.8,1,2.3
		c0,2.3,1.4,4.1,2.5,3c0.4-0.4,0.6-1.1,0.6-1.7C280.7,141.4,281.1,141,282.4,140.6z"/>
	<path fill="#ED2939" d="M207.4,169.8c0.4,2,2.2,3.4,3.8,2.9c1.2-0.4,6.7-5.6,6.7-6.4c0-1.1,2.7-5.2,4-6c2-1.3,3.4-4.6,3-6.9
		c-0.4-2.2,0.2-2.8,2.5-2.6c1.4,0.2,1.5,0.1,1.2-2.1c-0.5-4-1.2-5-3.2-5c-2.2,0-2.3-0.4-0.2-2.4c1.4-1.3,1.6-1.4,2.1-0.6
		c0.3,0.5,1,0.9,1.5,0.9c0.9,0,1-0.4,1-2.3s0.3-2.6,1.9-4.4c1.9-2.1,2-3.2,0.6-5c-0.9-1-1.4-0.7-3,2c-1.7,2.7-3.1,3.3-4.1,1.6
		c-0.7-1.3-0.7-3.5,0-3.9c0.9-0.5,0.6-2.6-0.5-3.6c-1.4-1.2-1.3-2.5,0.4-4.9c1.2-1.7,1.2-2.2,0.6-2.8c-0.6-0.6-0.9-0.6-2.1,0.2
		c-0.8,0.5-2.3,2.3-3.3,4.2s-2.6,4.1-3.3,4.9c-0.9,1-1.9,3.5-2.9,7c-2,6.9-4.3,12-5.7,12.8c-1.2,0.6-1.5,3.3-0.5,3.7
		c1,0.4,1.2,11,0.2,14.3C207.4,166.9,207.2,168.7,207.4,169.8z"/>
	<path fill="#ED2939" d="M283.2,191.6c-1-1.3-1.1-1.3-3.1-0.6c-0.4,0.2-1.1,0.5-1.8,1h5.2C283.5,191.9,283.4,191.8,283.2,191.6z"/>
	<path fill="#ED2939" d="M280.4,150.9c-0.2-0.1-2.4-0.3-5-0.5l-4.8-0.3l-3.2,2.2c-2.7,1.8-3.8,2.3-6.5,2.5c-2.8,0.3-3.6,0.7-6.3,2.8
		c-1.9,1.5-3.2,2.2-3.4,1.9c-0.9-1.4,5.9-6.4,14.3-10.5c4.7-2.4,5-2.6,4.7-3.8c-0.5-2-1.1-2.4-2.4-1.6c-1.8,1.1-1.9,0.1-0.1-1.4
		c1.1-1,1.6-2,1.7-3.2c0.1-1.4-0.3-2.1-2.6-4.4c-3.1-3-4.2-3.2-7.8-1.5c-1.6,0.8-2.6,1.7-3.2,3c-0.5,1.1-1.1,2-1.3,2
		c-0.3,0-0.6,0.9-0.8,2.1c-0.4,2.5-1.1,3-2.1,1.7c-0.9-1.2-1.4-0.7-2.3,2c-0.3,1.1-0.9,2-1.3,2c-2.8,0-7.5,4.4-9.4,8.8
		c-0.6,1.3-1.6,2.8-2.4,3.4c-0.8,0.6-1.6,1.8-2,2.8c-0.9,2.6-1.4,3.1-3,2.7c-1.1-0.3-1.5-0.1-1.7,0.9c-0.2,0.7-1.3,2.2-2.5,3.5
		s-2.9,3.6-3.9,5.1c-1.5,2.3-1.8,3.3-1.8,5.7c0,1.5,0.3,3.8,0.7,5c0.6,1.6,0.6,2.9,0.3,5.5c-0.2,1.1-0.2,2.1-0.2,2.9h36.7
		c0.5-0.6,0.9-1.8,1.1-2.7c0.4-2,0.4-2-1.7-2.3c-1.3-0.2-2.1-0.6-2.3-1.2c-0.4-1.4,0.6-2.1,3.1-2.1c1.9,0,2.6-0.3,4.1-1.8
		c1.6-1.6,1.7-2,1.4-3.9c-0.4-2.1-0.3-2.2,2.3-4.5c1.5-1.4,3.9-4.4,5.5-7.1c2-3.3,3.1-4.8,3.9-4.9c0.6-0.1,1.4-0.7,1.7-1.4
		C278.7,158.4,280.7,151.1,280.4,150.9z"/>
	<path fill="#ED2939" d="M282.2,107.2c-1,0.6-2.9,1.5-4.4,2.1c-1.4,0.6-2.7,1.3-2.9,1.6c-0.6,0.9-0.5,6,0.1,7.9
		c0.5,1.6,5.9,8.5,7.7,9.8c0.5,0.4,1.6,1.6,2.4,2.7c1.1,1.6,1.6,2,2.1,1.5c0.6-0.5,0.7-0.4,0.7,0.1c0,0.3,0.1,0.6,0.1,0.8v-27.2
		C286.3,105.8,284.2,106.1,282.2,107.2z"/>
	<path fill="#ED2939" d="M288,184.2c-0.5-0.2-1-0.3-1.3-0.2c-1.6,0.5-1.9,0.8-2.3,2.9c-0.2,1.3,0,2.3,0.6,3.1
		c0.4,0.6,0.5,1.3,0.5,1.9h2.5V184.2z"/>
	<path fill="#ED2939" d="M214.6,192c-0.5-2-1.3-2.6-3.1-2.6c-2.6,0-3.9-0.6-3.9-1.6c0-1.1-1.9-2.5-3.4-2.5c-0.9,0-1.2-0.4-1.5-1.5
		c-0.2-0.9-0.6-1.5-0.8-1.5c-0.3,0-0.8-0.6-1.3-1.3c-0.8-1.2-0.8-1.4,0.1-2.3c0.8-0.9,0.8-1.2,0.4-2.3c-0.5-1.1-1-1.3-2.6-1.3
		c-1.9,0-2.3,0.3-3.9,2.4c-1,1.3-1.8,2.9-1.8,3.6c0,0.5-0.2,1-0.7,1.4v9.6H214.6z"/>
	<path fill="#FFFFFF" d="M414.4,339l-2.1,3.4C416.2,342.4,416.8,341.7,414.4,339z"/>
	<path fill="#FFFFFF" d="M485.4,320.1c0.4,0.1,0.6,0.3,0.5,0.5c-0.1,0.4-0.3,1.2-0.4,1.7c-0.1,0.2-0.1,0.3-0.1,0.4v0.1
		c0,0.2,0.3,0.2,1.1-0.1c0.9-0.4,1.9-0.4,3,0.1c0.9,0.3,2.7,0.4,4.1,0.3c2.4-0.3,2.5-0.3,2.5,0.9c0,1.4,1.9,3,4.4,3.9
		c1.9,0.6,2.3,1.5,2.3,5c0,1.2,0.3,2.3,0.5,2.5c0.3,0.2,0.5,0.9,0.5,1.5c0,0.8,0.5,1.6,1.3,2.1c0.7,0.5,1.3,1.2,1.3,1.5
		c0,0.4,0.9,1.7,2.1,3c1.9,2,2.1,2.7,2.4,5.3c0.3,2.8,0.2,3.1-1,3.9c-1.2,0.8-1.2,0.9-0.5,2.5c1.1,2.2,1,2.2,1.9,1.1
		c0.7-0.9,0.8-0.9,4-0.1c1,0.3,2.2,0.7,3.5,1.2l8.1-14.6c-0.6-0.5-1.4,0-1.4,1.4c0,1.3-0.2,1.5-1.2,1.5c-1.6,0-3.4-1.4-3.4-2.7
		c0-0.6-0.6-2-1.2-3.1c-1.1-1.7-1.2-2.2-0.7-3.6c0.8-2.5,1.2-2.6,3.4-1.6c1.1,0.5,2.3,0.8,2.6,0.6c1-0.7,0.6-3.5-1-6.1
		c-0.8-1.3-1.5-2.7-1.5-2.9c0-0.3,0.6-1.6,1.3-3c1.1-2.2,1.5-2.6,3.2-2.9c2.9-0.5,3-0.4,3.7,1c0.6,1.2,0.7,1.2,3.8,0.9
		c1.8-0.1,3-0.1,3.8,0.4l7.9-14.2l9.1,16.2h-15.7c0.1,0.3,0.1,0.5,0.1,0.8c0.2,1.4,0.3,1.5,1.7,1.4c2.4-0.2,3.7,0.3,5.4,2.1
		c1.4,1.4,1.6,1.9,1.3,3.8c-0.2,1.2-0.1,2.3,0.3,2.7c0.7,0.7,3.6,0.8,4.2,0.3c0.2-0.2,1.1-0.6,2-0.9c1.4-0.5,1.6-0.8,1.6-2.3
		c0-1.5,0.3-1.9,2-2.9c1.6-0.9,2-1.4,2.1-2.8c0.2-2,1.4-3,3.4-3c1.1,0,1.6-0.5,2.8-2.5c0.8-1.3,1.9-2.9,2.3-3.4
		c0.3-0.3,0.6-1,0.8-1.8L546,278.4L513,330v-47.4h19.8l14.7-23.4H513v-15h44l15.4-24.6h-73.8c-0.6,3-0.9,7-0.5,10
		c0.4,3.5,0.4,4.1-0.4,4.8c-0.5,0.5-1.1,1.5-1.2,2.5c-0.6,3.1-1.5,6-1.9,6c-0.2,0-0.4-0.3-0.4-0.7c0-1.2-1.1-1.6-1.8-0.6
		c-0.4,0.5-1,0.7-1.4,0.6c-0.5-0.2-0.9,0.3-1.2,1.4c-0.8,2.5-2.1,2.5-2.8-0.1c-0.3-1.1-0.8-2.2-1.2-2.3c-0.4-0.2-0.2-0.6,0.6-1.1
		c1.4-1.1,1.5-3.3,0.2-3.3c-0.6,0-1.5,0.7-2.2,1.4c-0.7,0.8-2.3,2.2-3.5,3.1c-1.6,1.1-2.3,1.9-2.6,3h7.4V320.1z"/>
	<path fill="#FFFFFF" d="M475.2,244.2c0.2-1.4,0.4-3,0.4-4.3c0-3.6-0.1-3.8-2-5.7c-1.1-1.1-2.7-2.2-3.5-2.3c-0.8-0.2-2-0.9-2.5-1.5
		c-2.8-3.1-5.4-5-6.8-5c-0.8,0-2.3-0.4-3.3-0.9c-1.7-0.8-1.9-0.8-2.8,0.3c-0.6,0.6-1.7,1.1-2.5,1.1c-0.9,0-1.9,0.5-2.5,1.3
		c-0.6,0.7-1.5,1.3-1.9,1.3c-0.7,0-0.8,0.6-0.7,3.2c0.2,3.1,0.1,3.2-1.1,3.4c-0.7,0.1-2.2-0.1-3.2-0.5c-1.8-0.6-4.7-0.4-7.1,0.2
		l5.9,9.4H475.2z"/>
	<path fill="#FFFFFF" d="M422.4,326.3c2.5,1.4,4.1,2.1,6.5,3c2.6,1,3.1,1,5.4,0.5c5-1.2,5.3-1.2,6.5-0.1c1.3,1.2,3.1,0.8,3.7-0.9
		c0.3-1,0.6-1.1,2-0.8c0.9,0.2,3.4,0.5,5.5,0.6c2.1,0.2,4.2,0.5,4.5,0.8c0.4,0.3,1,0.4,1.4,0.2c0.7-0.2,0.8-1.1,0.6-4.4
		c0-0.2,0-0.4,0-0.6h-15.1l9.1-16.2l6.9,12.4c0.1,0,0.2-0.1,0.3-0.1c0.7-0.2,2.4-0.8,3.7-1.5c2.8-1.5,3.7-1.5,4.8-0.3
		c0.8,0.8,1.3,0.9,5,0.5c1.7-0.2,3.6-0.3,5.5-0.2l-26.1-40.8L422.4,326.3z"/>
	<path fill="#FFFFFF" d="M418.5,337c0.8-1.1,1.7-1.6,3.1-1.9c1.1-0.2,2.1-0.6,2.3-0.8c0.6-0.9-0.4-2.5-1.4-2.5
		c-0.5,0-1.6-0.7-2.6-1.6l-4.4,7.1c0,0.1,0.1,0.1,0.1,0.2C415.9,339,417.3,338.8,418.5,337z"/>
	<path fill="#FFFFFF" d="M484.4,454.8l13.9-10.1c-0.7-0.8-1.7-2.1-2.4-3c-0.9-1.1-2.3-2.1-3.4-2.5c-1.3-0.4-2-0.9-2.2-1.6
		c-0.2-0.7-0.7-1.1-2.2-1.6l2,1.4L484.4,454.8z"/>
	<path fill="#FFFFFF" d="M499.2,409.2l-5.6,17.4h-18.4l7.3,5.3c1.7-0.2,3.8-0.5,5-0.6c1.9-0.3,2.7-0.2,3.8,0.5
		c0.9,0.6,1.9,0.8,3,0.6c2.8-0.5,8.5,0.7,9.9,2.1c0.6,0.7,1.7,1.2,2.4,1.2c1.3,0,4-0.9,4.4-1.4c0.2-0.2,0.7-0.6,1.3-0.9
		c0.7-0.4,1.2-1.5,1.5-3.1c0.3-1.3,0.7-2.6,1.1-3.7h-10.2L499.2,409.2z"/>
	<path fill="#FFFFFF" d="M460,414l-5.6-17.4l8-5.8c-0.7,0.2-1.6,0.3-2.8,0.4c-1.6,0.2-2.6,0.6-3,1.2c-0.3,0.6-1.3,1-2.8,1.2
		c-1.3,0.2-3.3,0.9-4.5,1.6c-1.2,0.7-3.3,1.5-4.6,1.9c-2.7,0.7-5.1,3-6.1,6c-0.5,1.5-0.4,1.9,1.2,4.1l5.5-4L460,414z"/>
	<path fill="#FFFFFF" d="M434.9,410.8c-0.2-0.3-0.4-0.6-0.7-0.8c-0.7-0.6-1.4-1.1-2-1.6l-1.8,5.6L434.9,410.8z"/>
	<path fill="#FFFFFF" d="M414.4,292.8l-5.6-17.4l14.9-10.8h-18.4l-0.4-1.1c-1,0-2.4,0.2-3.2,0.5c-1.4,0.4-1.8,0.3-2.8-0.8
		c-0.6-0.7-1.5-1.2-2-1.2c-0.7,0-0.9,1-1,6.8c-0.1,3.8-0.2,7.5-0.2,8.4c-0.1,0.8,0.2,2.8,0.6,4.3c0.3,1.1,0.4,2.1,0.4,2.8l2.9-2.1
		L414.4,292.8z"/>
	<path fill="#FFFFFF" d="M394.7,285.1c-1.8-1.4-4.1-1-5.6,1.1c-0.8,1-1.5,1.5-2.6,1.5l-1.5,4.5c0,0.2,0,0.4,0,0.5l10-7.3
		L394.7,285.1z"/>
	<path fill="#FFFFFF" d="M403.6,260c0,0.7,0.2,1.1,0.6,1.5l-0.6-1.8C403.6,259.7,403.6,259.8,403.6,260z"/>
	<path fill="#FFFFFF" d="M584.8,271.9c1.1-0.9,1.1-4.4,0-5.3c-0.4-0.3-0.6-0.9-0.7-1.9h-9.4L584.8,271.9z"/>
</g>
</svg>
