<?xml version="1.0" encoding="utf-8"?>
<!-- Generator: Adobe Illustrator 17.1.0, SVG Export Plug-In . SVG Version: 6.00 Build 0)  -->
<!DOCTYPE svg PUBLIC "-//W3C//DTD SVG 1.1//EN" "http://www.w3.org/Graphics/SVG/1.1/DTD/svg11.dtd">
<svg version="1.1" id="flag-icon-css-tg" xmlns="http://www.w3.org/2000/svg" xmlns:xlink="http://www.w3.org/1999/xlink" x="0px"
	 y="0px" viewBox="0 0 640 480" enable-background="new 0 0 640 480" xml:space="preserve">
<g>
	<path fill="none" d="M354.8,480c0,0.1,0.1,0.2,0.1,0.3c0,0.1,0.5,0,1.3-0.3H354.8z"/>
	<path fill="#FFE300" d="M392.2,191.5l-3.4-2c-2.9-1.8-3.8-2.7-6.6-6.5c-1.8-2.4-3.3-4.6-3.5-4.9c-0.2-0.3-0.8-4.2-1.4-8.7
		s-1.3-8.7-1.6-9.4c-0.4-0.8-1.4-1.4-2.9-1.9c-2.2-0.8-2.3-0.8-2.4-2.8c-0.1-1.6,0.1-2.3,1.5-4.3l1.7-2.4l-0.8-18.4
		c-0.4-10.1-0.9-18.5-1.1-18.7c-0.2-0.2-9.1-6.5-20.9-14.9h-63.6v62.5c1.4,0.2,2.3,0.3,2.4,0.3c0.2,0,0.3,0.9,0.3,2.1
		c0,2,0.1,2.1,3.2,4.3c1.7,1.2,3.2,2.3,3.2,2.3c0.1,0-0.4,1.8-1,3.9c-0.7,2.4-1.8,4.9-3,6.5l-1.8,2.6l1.2,2.5c0.6,1.4,1,2.8,0.8,3.1
		s-1.1,1.6-2.1,3c-0.9,1.2-1.9,3.3-2.7,5.4h106.3L392.2,191.5z"/>
	<path fill="#FFE300" d="M232.1,0.1c-0.4-0.1-0.7-0.1-0.9,0.1h1.5C232.3,0.1,232.1,0.1,232.1,0.1z"/>
	<path fill="#FFE300" d="M398.2,335.5l0.2-43.9H297.6c0,0.7,0,1.4,0,2.2c0,7.4,0,7.9,1.4,11.2c1.8,4.6,2.3,8.8,1.3,10.7
		c-0.7,1.3-0.7,1.6-0.1,3c0.6,1.4,0.6,1.6-0.4,3.1l-1.1,1.6l0.9,1.5l1,1.5H299c-1.3,0-1.5,0.2-1.7,1.7c-1,5.9-1.2,6.3-3.8,7.2
		c-1.3,0.5-2.8,1.1-3.3,1.3l-1,0.5l0.9,4.4c0.5,2.5,0.8,5.1,0.6,6.1c-0.2,1.5,0.1,2.4,1.9,5.8c1.2,2.2,2.3,3.9,2.3,3.9
		c0.1,0,0.9-0.3,1.7-0.8c1-0.5,2-0.7,3.7-0.4c2.7,0.4,2.6,0.2,3.1,7.7c0.4,6.5-0.2,9.2-3.6,16l-1.8,3.5H398L398.2,335.5z"/>
	<path fill="#118600" d="M351,96.7c-2.1-1.5-4.2-3-6.4-4.6c-14.8-10.5-27.1-19.1-27.1-19.2c-0.1-0.1,0.1-3.3,0.4-7.1l0.6-7l1.8-1.3
		c2.2-1.5,2.1-1.5,1-9.8l-0.8-6l3.9-4.5l3.9-4.5l1.3-8.1c0.7-4.4,1.3-8.1,1.2-8.2c0,0-5.2-0.3-11.3-0.6l-11.3-0.5l-6.8,2.2
		c-3.8,1.2-7.1,2.2-7.4,2.2c-0.3,0-0.6-0.4-0.6-0.9c0-0.5-0.3-1.2-0.7-1.6c-0.3-0.4-0.8-1.2-0.9-1.8c-0.1-0.6-0.5-0.9-4.4-2v83.4
		H351z"/>
	<path fill="#118600" d="M398.5,277l-1.5-5.1c-1.8-6.7-1.7-8.8,1-14l2-3.9l-1-2.6c-0.9-2.4-1-3.1-0.7-10.1
		c0.2-4.2,0.1-12.8-0.2-19.6c-0.4-9.6-0.4-12.8,0-15.1l0.6-3l-3.2-6.1l-1.3-2.5H287.8c-0.1,0.4-0.3,0.7-0.4,1.1l-0.1,0.3v6.2
		l1.7,3.4c3.3,6.7,3.7,8.7,1.8,11.2c-1,1.3-1.1,1.8-0.8,3.8l0.3,2.3l-2.5-0.3c-0.2,0-0.4,0-0.5-0.1v21c0.7,0.4,1.5,0.8,2.3,1.1
		c2.1,0.8,3.9,2,5.4,3.6c2.2,2.2,2.3,2.3,4.9,2.3s2.6,0,3.4,1.8c0.8,1.6,0.8,1.9,0.1,3.2c-1.2,2.3-0.9,2.7,1.7,3.7
		c2.2,0.8,2.6,1.2,3.8,3.7c0.8,1.5,1.5,3.8,1.6,5.2l0.2,2.4l-3.4,1.4c-2.3,0.9-3.8,1.8-4.5,2.8c-0.6,0.8-2.3,2.3-3.8,3.3l-2.6,1.8
		l1.7,1.4l1.7,1.4l-1.2,1.5c-1,1.3-1.2,1.7-1.2,7.1h100.8L398.5,277z"/>
	<path fill="#118600" d="M232.7,0.2h-1.5c0,0-0.1,0.1-0.1,0.1h2C232.9,0.2,232.8,0.2,232.7,0.2z"/>
	<path fill="#D80000" d="M287.3,13.3c-3.8-1-11.1-2.8-25.1-6.1c-13.8-3.3-25.7-6.1-29.2-6.9h-2c-0.2,0.2-0.3,0.4-0.5,0.8
		c-0.3,0.7-0.6,1.3-0.6,1.4c0,0.1,1.4,0.8,3.2,1.5c2.3,1,4.2,1.4,7.4,1.6l4.2,0.2l1.5,4.3l1.5,4.3l-2.4,1.7
		c-2.2,1.6-2.3,1.9-2.1,3.3c0.2,0.9-0.2,3.8-0.9,6.9c-1.1,5.2-1.2,5.3-3.8,7.8c-2.5,2.4-2.6,2.6-2.8,5.4c-0.2,2.3,0,3.4,0.9,5.7
		c1.2,2.8,1.2,2.8,6,5.4c3.2,1.7,5.2,3.1,5.7,4c0.6,1,1.7,1.7,4.6,2.7l3.8,1.4l2,5.2c1.1,2.9,2.2,5.5,2.4,5.8
		c0.2,0.3,1.4,0.6,2.6,0.7c5.4,0.1,5.8,0.3,9.2,4.8l3.1,4.2l2.1-0.3l2.1-0.3V81c0,2.3,0,2.4-1.5,2.8c-1.3,0.3-1.5,0.7-2.3,3.5
		c-0.8,2.8-0.8,3.3-0.2,5.1c0.4,1.1,0.7,3.3,0.7,4.9v2.9l2.8,2c2.6,1.9,2.8,2.1,2.8,3.8c0,1,0,1.8-0.1,1.8c-0.1,0-1.3-0.3-2.7-0.7
		c-2.9-0.8-3.3-0.5-3.3,1.8c0,0.9,0.7,2.1,1.9,3.6l1.9,2.3l-1.5,1.7c-1.3,1.5-1.5,2.1-1.5,4.8s-0.2,3.2-1.9,5.8
		c-1.6,2.5-1.9,3.1-1.9,5.5c0,2.5,0.1,2.8,1.5,3.8c1.3,0.9,1.4,1.2,1.2,2.6c-0.2,1.1,0.2,2.7,1.4,5.6c0.9,2.2,1.6,4.1,1.5,4.2
		c-0.1,0.1-3.1,0.5-6.7,0.9s-6.7,0.8-6.8,1c-0.1,0.1-0.3,1.2-0.4,2.5l-0.2,2.3h3.6c2,0,3.6,0.1,3.6,0.2s-0.6,1.1-1.2,2.3l-1.2,2.2
		l-2.9-1.5c-1.5-0.8-2.9-1.3-3-1.2c-0.1,0.1,0.2,1.4,0.8,2.9c1.2,3.1,1,3,7,1.6c3.9-0.9,4.2-1,4.5-2.3c0.2-0.8,0.5-1.5,0.7-1.6
		s3.1,0,6.4,0.5c1.5,0.2,2.9,0.3,4,0.5V96.7V13.3z"/>
	<polygon fill="#D80000" points="286.1,200.3 287.3,202.7 287.3,196.5 	"/>
	<path fill="#D80000" d="M284.2,223.8c-1.1,1-1.1,1-3,0.2s-1.9-0.8-3.1,0.2l-1.2,1.1l1.1,1.2c0.8,0.8,1,1.5,0.8,2.1s0.7,2.9,2.9,7.3
		c1.8,3.5,3.6,6.7,4,7.1c0.2,0.2,0.8,0.6,1.5,1v-21C285.6,222.8,285.1,222.9,284.2,223.8z"/>
	<path fill="#118600" d="M362.2,478.1c12.2-4,24.4-7.5,29.1-8.3c3.7-0.6,22.9-5.6,23.5-6.1c0.2-0.2-5.5-18.7-5.9-19
		c-0.2-0.1-1.2-0.7-2.1-1.3c-1.5-1-1.7-1.4-1.7-3c0-1.8-0.1-1.9-4.7-4.9l-4.7-3v-2.7c0-2.2-0.2-2.9-1.1-3.8c-0.6-0.7-1.2-2-1.4-3
		c-0.3-1.7-0.2-1.8,1.6-2.3c1.8-0.5,1.8-0.6,1.8-2.5c0-1.4-0.4-2.5-1.4-3.8l-1.3-1.8l0.7-3.7l0.7-3.8l-1.2-1.6
		c-1.5-2-4.1-7.7-3.7-8.2c0.1-0.2,0.8-0.4,1.5-0.5c0.7,0,2.3-0.3,3.7-0.6l2.4-0.6l0-10.3h-99.9l-0.5,1l0.3,4.2l0.3,4.2l-3.8,2.5
		c-2.1,1.4-3.8,2.7-3.8,2.8c0,0.2,0.9,1.3,2.1,2.4s2.1,2.3,2.1,2.5s-0.9,1.6-2.1,3.1l-2.1,2.8l2.1,1.2c1.8,1.1,2.1,1.5,2.1,2.9
		c0,1.5,0.3,1.8,3.4,3.8c1.9,1.2,3.5,2.3,3.6,2.3c0.1,0.1-0.2,1.9-0.7,3.9l-0.8,3.8l1.8,2.7c1.5,2.2,2.3,2.8,4.4,3.6
		c4.3,1.5,5,2.6,3.3,5l-1,1.4l1.6,3.2c1.9,3.8,2.1,3.9,7.9,7.4c2.5,1.5,4.7,2.9,5,3.2c0.2,0.3,0.7,1.5,0.9,2.5
		c0.7,2.3,1.2,2.5,5.5,2.6c1.5,0,3.4,0.2,4.2,0.4c1.4,0.3,1.4,0.3,3.7,6.7c0.6,1.6,1.2,2.3,2.4,2.9c1.1,0.5,2,1.5,3,3.2l1.3,2.5
		l4.9,0.2l4.9,0.2l0.3,2.7c0.1,1.2,0.3,2.2,0.4,2.7h1.4C357.6,479.6,359.8,479,362.2,478.1z"/>
</g>
</svg>
