<?xml version="1.0" encoding="utf-8"?>
<!-- Generator: Adobe Illustrator 17.1.0, SVG Export Plug-In . SVG Version: 6.00 Build 0)  -->
<!DOCTYPE svg PUBLIC "-//W3C//DTD SVG 1.1//EN" "http://www.w3.org/Graphics/SVG/1.1/DTD/svg11.dtd">
<svg version="1.1" id="flag-icon-css-th" xmlns="http://www.w3.org/2000/svg" xmlns:xlink="http://www.w3.org/1999/xlink" x="0px"
	 y="0px" viewBox="0 0 640 480" enable-background="new 0 0 640 480" xml:space="preserve">
<g>
	<path fill="#FFFFFF" d="M267.1,354.6c0.2,0.4,0.5,1.7,0.5,2.9c0,1.3,0.2,2.2,0.5,2.2c0.8,0,3.6-2.8,4.2-4.2c0.5-1.2,0.5-1.5,0-1.9
		c-0.7-0.4-1.1-0.4-3.8,0C267,353.8,266.7,354,267.1,354.6z"/>
	<path fill="#FFFFFF" d="M364.9,84.4c-0.4-0.4-1.3-0.2-3.7,0.8c-3.8,1.6-4.3,1.9-5.1,3.8c-0.4,1-0.8,1.4-1.3,1.3
		c-1-0.4-2.2-2.5-1.9-3.3c0.5-1.2-0.6-2-2.7-2c-1,0-2.8-0.4-3.9-1c-1.2-0.5-2.3-0.8-2.6-0.7c-0.2,0.1-0.8-0.2-1.4-0.8h-11.8l0,0l0,0
		h-4.7c0,0,0,0,0,0c-0.3,0.7-0.8,1.9-0.9,2.6c-0.2,1.1-0.9,1.7-2.6,2.7c-1.7,1-2.3,1.5-2.1,2.1c0.2,0.6-0.3,1-2.4,1.7
		c-2.2,0.7-3.2,1.5-6.8,5.1l-4.2,4.3l-2.1-1.1c-1.2-0.6-2.3-1.1-2.6-1.1c-0.7,0-0.8-3.4-0.1-4.6c0.3-0.5,0.3-1.3,0.1-1.9
		c-0.5-1.3,1.2-4.9,2.5-5.6c0.6-0.3,1.1-1,1.1-1.6c0-0.6,0.4-1.3,0.9-1.6c0.4-0.2,0.6-0.5,0.8-1H195.7c0.1,0.1,0.1,0.3,0.2,0.4
		c1,1.3,0.8,2.8-0.2,3.4c-0.5,0.3-0.9,0.8-0.9,1.1c0,1.3,5.8,9.3,7.9,10.9c2.2,1.7,9.7,10.3,10.8,12.5c0.9,1.8,4.2,4.6,5.3,4.6
		c0.5,0,1.1,0.4,1.3,0.8c0.1,0.5,0.7,1.3,1.2,1.9c0.5,0.6,0.8,1.3,0.6,1.8c-0.1,0.4-0.1,1.2,0.2,1.6c0.3,0.6,0.3,0.9-0.2,1.1
		c-0.7,0.3-0.9,2-0.4,3.8c0.1,0.6,0.9,1.2,1.6,1.5c1,0.4,1.3,0.7,1.3,1.7c0,0.7,0.3,1.6,0.6,2c0.7,0.8,2.2,5.3,2.2,6.6
		c0,1.2,0.2,1.1,2.4-1c2-1.9,3.9-2.4,4.9-1.3c0.6,0.8-0.1,4.1-1.1,4.6c-0.4,0.2-0.6,1-0.6,1.9c0,2.4-0.5,2.8-2.6,2.2
		c-2.5-0.7-2.9-0.6-3.5,0.6c-0.4,0.9-0.6,1-1.2,0.6s-0.8-0.4-1.4,0.2c-0.6,0.6-0.6,0.9-0.1,2.2c0.4,1,0.5,2.3,0.2,4.8
		c-0.2,1.8-0.3,6-0.3,9.3h225.8c0.7-1.4,0.6-3.3-0.2-4.5c-0.4-0.6-1.8-1.5-3.2-1.9c-3.1-1.1-5.7-4-5-5.7c0.2-0.6,0.6-1,0.9-1
		c0.2,0,0.5-0.5,0.5-1.1c0-1-0.2-1.2-4-1.7c-5-0.7-7.6-1.9-7.6-3.3c0-1.5-2.4-5.1-3.9-5.9c-0.7-0.4-1.7-1.4-2.2-2.4
		c-0.5-1.1-1.3-1.8-2-2c-1.2-0.3-1.3-0.4-1.2-4.6c0-2.4-0.1-6.2-0.4-8.6c-0.5-4.1-0.4-4.4,0.7-6.6c1-1.9,1.2-3,1.2-6.1
		c0-4.4-0.7-5.9-3.8-7.5c-4.7-2.4-7.2-4.5-8.6-7.3c-1.2-2.3-1.6-2.7-3.2-3.2c-1.6-0.5-1.9-0.8-2.2-2.2c-0.1-0.8-1.2-2.8-2.5-4.5
		h-34.4C368,84.4,366.1,85.5,364.9,84.4z"/>
	<path fill="#FFFFFF" d="M202.4,357.1c-0.3-0.8-0.7-0.8-1.4-0.1c-0.6,0.6-0.7,2-0.1,2.5C201.4,359.8,202.7,357.9,202.4,357.1z"/>
	<path fill="#FFFFFF" d="M212.1,338.4c-0.6,0.2-1.1,0.8-1.1,1.3c0,0.5-0.4,1.2-0.9,1.4c-0.9,0.5-1.3,2.4-0.6,3.8
		c0.4,1.1,5.4-4.5,5.2-5.8C214.5,338,213.6,337.8,212.1,338.4z"/>
	<path fill="#FFFFFF" d="M230.2,325.5c-0.4,0.9-0.7,2.3-0.7,3c0,0.9-1,2.8-3.1,5.7c-3.8,5.5-3.8,5.4-4.4,4.6c-0.4-0.6-0.5-0.6-0.9,0
		c-0.2,0.4-0.5,1.3-0.5,2c0,1.3,0,1.5-2,5.2c-0.7,1.3-1.3,2.6-1.3,2.9c0,0.7,0.7,0.6,1.6-0.2c1.4-1.4,2.1,0.3,1.3,3.2
		c-0.2,0.8-0.9,3.1-1.5,5.1c-1.7,6.2-1.9,6.7-2.3,7c-0.3,0.1-0.7,0-1.1-0.3c-0.6-0.5-0.8-0.3-1.4,1.2c-0.8,1.9-0.8,3.9-0.5,34.1
		l0,0.9h7.2c0-0.2,0-0.3,0-0.5c0-1.1,0.1-1.3,0.9-1.1c0.6,0.2,0.8,0.5,0.9,1.5h56.9c-1.6-7.1-3.4-11.5-5.1-12.3
		c-1.8-0.9-2.1-0.8-0.9,0.4c0.6,0.6,1.2,1.8,1.3,2.6l0.3,1.6l-1.3-1.2c-0.7-0.6-1.6-1.9-2.1-2.8c-0.5-0.9-1.4-2.1-2.1-2.6
		c-1.2-0.8-1.2-1.2-1.8-8.4c-0.4-4.7-0.9-8.1-1.4-8.9c-0.4-0.8-0.7-2.1-0.7-3c0-3.1-3.5-4.3-8.1-2.7c-1.2,0.4-2.3,0.6-2.5,0.5
		c-0.2-0.1-0.7,0.1-1.3,0.6c-1.1,1-3.7,1.3-6.5,0.8c-1.4-0.3-2.1-0.7-2.7-1.7c-0.7-1.3-0.7-1.4,0.6-2.6c1.4-1.2,1.4-1.3,0.7-2.6
		c-0.4-0.8-0.7-2.1-0.7-3.1c0-1.3-0.4-2-1.6-3.2c-1.6-1.6-1.6-1.6-1.6-5.7c0-2.6,0.3-4.6,0.6-5.3c0.4-0.7,0.6-2,0.4-3.7
		c-0.2-2.2-0.1-2.7,0.7-3.5c1.3-1.2,1.3-1.7-0.2-1.7c-0.9,0-1.2-0.2-0.9-0.7c0.1-0.4,0.3-0.9,0.3-1.2c0-0.3,0.4-0.4,0.9-0.2
		c2,0.6,5.1-3.8,3.1-4.6c-0.6-0.2-0.7-1.1-0.5-2.2h-15.5C230.7,323.7,230.5,324.9,230.2,325.5z"/>
	<path fill="#FFFFFF" d="M271.7,350.3v-1.8c0-1.3-0.2-1.9-0.9-2.3c-1.3-0.6-1.3-0.6-1.8,1.3c-0.5,1.8-0.5,1.8,1.1,2.3L271.7,350.3z"
		/>
	<path fill="#001B9A" d="M352.5,287.8c0.4-2.8-0.7-4.5-1.9-3c-0.6,0.7-0.2,4.1,0.6,4.6C352,289.9,352.2,289.8,352.5,287.8z"/>
	<path fill="#001B9A" d="M346.1,277.7c2.5,1.2,3.1,0.9,1.7-0.9c-0.6-0.7-1.4-2-1.9-2.9c-0.5-0.9-1.4-1.9-2.1-2.2
		c-1.3-0.6-2.1-0.7-2.1-0.3c0,0.1,0.5,1.3,1.2,2.8C343.8,276.4,344.3,276.9,346.1,277.7z"/>
	<path fill="#001B9A" d="M223.9,162.7c0,5.9,0,6.1-0.8,5.7c-0.5-0.2-1.3-0.5-1.8-0.5c-1.1,0-2.9,1.9-2.9,3c0,0.6-0.2,0.7-0.8,0.5
		c-2-0.9-2.7-0.8-3.3,0.4c-0.3,0.7-0.9,1.2-1.4,1.2c-1.5,0-1.9,4-0.6,6.5c0.4,0.9,0.9,2.6,1.1,3.9c0.2,1.3,0.7,3.5,1.3,4.9
		c0.8,2.1,1.3,2.7,3.1,3.7c1.6,0.9,2.1,1.4,2.1,2.2c0,0.9,0.2,1.1,0.9,0.9c0.7-0.2,1,0.1,1.5,2.1c0.4,1.6,0.8,2.4,1.4,2.5
		c0.5,0.1,1.1,0.9,1.3,1.8c0.5,1.3,1.2,1.9,4.5,3.8c5.3,2.9,7.2,4.7,8,7.4c0.5,1.6,0.9,2.2,1.8,2.5c1.4,0.6,1.9,1.2,1.9,2.8
		c0,0.8,0.4,1.4,0.9,1.8c0.8,0.4,0.9,1,0.9,3.3c0,1.6,0.3,3.4,0.7,4.2c0.5,1,0.6,2,0.4,3.3c-0.1,1-0.4,3.1-0.5,4.5
		c-0.2,1.9-0.5,2.6-1.1,2.8c-1.3,0.3-1.6,4.4-0.5,5.7c0.5,0.5,0.9,1.5,0.9,2.2c0,1.6,2.4,6.2,3.9,7.4c0.6,0.5,1.2,1.2,1.2,1.5
		c0,0.3,0.7,1.2,1.5,1.8c1.3,1.1,1.5,1.4,1.5,3.6c0,1.3,0.3,3.6,0.7,5c0.4,1.4,0.7,2.9,0.8,3.3c0,0.5,0.1,1.4,0.1,2.1
		c0,1.2,0.2,1.3,1.4,1.1c1.4-0.2,1.4-0.1,0.5,2.5c-0.1,0.3,0.1,0.7,0.5,0.9c0.6,0.2,0.7,1.1,0.7,5.1c0,4.3-0.1,4.8-1,5.6
		c-0.6,0.5-1.5,2-2.1,3.4c-0.6,1.4-1.5,3.1-2,3.7c-0.5,0.6-0.9,1.5-0.9,2c0,0.6-0.5,1-1.2,1.2c-1,0.2-1.2,0.6-1.1,1.8
		c0.2,2.6-6.9,11.6-8.8,11.1c-1.1-0.3-1.6,0.6-1.7,2.4c0,1.1-0.2,1.4-1,1.4c-0.6,0-1.8,1-3.2,2.5c-2.1,2.5-2.1,2.6-2.1,5.7
		c0,0.5,0,1.1-0.1,1.7h15.5c0.3-1.6,1.3-3.5,2.6-4.8c1.3-1.2,2.3-3.1,2.3-4.4c0-1,0.5-1.2,1.3-0.4c1.5,1.5,2.5-5.8,1.1-7.8
		c-1.1-1.5-0.7-3.4,0.7-3.4c0.9,0,1.1-0.2,1.1-1.5c0-2.2,1.3-5.9,2.5-7.3c0.6-0.6,1.3-1.9,1.6-2.8c0.3-0.9,1.2-2.3,1.9-3
		c2-1.9,2.4-2.8,2.8-6c0.6-5.1,0.8-5.7,2.7-6.9c1.9-1.3,3.4-4.1,2.9-5.3c-0.1-0.4-0.4-2.6-0.4-5c-0.1-2.4-0.4-4.7-0.6-5.2
		c-1-1.8-0.6-6.7,0.6-9.5c0.6-1.3,1.3-3.2,1.4-4.1c0.2-0.9,0.6-2,0.9-2.5c0.5-0.7,0.3-1.3-0.9-3.8c-0.8-1.6-1.8-3.3-2-3.7
		c-0.9-1.1,0.6-3.3,3.2-4.4c1.2-0.5,2.6-0.9,3-0.9c0.5,0,1.4-0.6,2.1-1.3c1.2-1.2,1.3-1.2,1.3-0.3c0,1.5,0.4,1.6,3.1,0.6
		c1.4-0.5,3.3-0.9,4.3-0.9s1.9-0.2,2.3-0.4c0.4-0.3,1.2-0.1,2.1,0.4c0.8,0.5,2.9,0.9,4.9,1.1c2.5,0.2,3.6,0.5,4,1.1
		c0.7,0.9,0.8,8.3,0.2,10c-0.3,0.7-0.2,1.6,0.2,2.5c0.6,1.3,0.5,1.5-1.1,3.1c-1.5,1.6-1.6,1.9-1.1,2.9c0.8,1.8,0.7,3-0.3,3
		c-1.1,0-2.1,2.7-1.4,3.6c0.3,0.3,1.1,0.6,1.7,0.6c0.9,0,1.3,0.4,1.9,1.9c0.8,2.1,1.5,1.8,1.5-0.8c0-1.3,0.2-1.6,1.2-1.8
		c1.8-0.5,8.5,0.1,10,0.7c1.9,0.9,9.5-0.1,10.7-1.4c1.9-2,4.4-0.7,7.5,4c0.8,1.3,1.2,1.6,1.2,1c0-0.6,0.2-0.8,1.1-0.6
		c0.6,0.1,1.2,0.3,1.4,0.3c0.2,0,0.2,0.5,0,1.2c-0.2,1-0.1,1.2,0.9,1.2c1.9,0,3.2,1.1,6.1,4.9c1.4,1.9,2.8,3.4,3.2,3.4
		c1.4-0.2,2.3,0.2,4.5,1.9c1.4,1,2.7,1.9,3,1.9c0.3,0,0.5-0.7,0.5-1.8c0-1.1,0.2-1.7,0.5-1.7c0.7,0,1.3,1.1,5.4,9
		c1.7,3.2,3.5,6.6,4.2,7.6l1.2,1.9l-0.3-2.8c-0.2-2-0.6-3.1-1.3-4c-0.6-0.6-1.1-1.6-1.1-2.1c0-0.6-0.4-1.3-0.9-1.8
		c-0.6-0.5-0.9-1.4-0.9-2.3c0-0.8-0.5-2.1-1-2.8c-0.9-1.1-1.1-1.9-1.1-4.6c0-2.8,0.1-3.5,1.1-4.5l1-1.1l-1.1-0.5
		c-0.6-0.3-1.6-1.4-2.1-2.6c-0.6-1.3-1.7-2.5-2.9-3.3c-2.2-1.4-3.1-3.1-2.3-4.1c0.4-0.4,0.5-1.1,0.2-1.8c-0.3-1-0.6-3.5-0.7-5.7
		c0-0.5-0.8-1.9-1.8-3.2c-1-1.3-1.9-2.6-1.9-3c0-0.3-0.4-1.4-0.9-2.4c-0.6-1.1-0.7-1.9-0.5-2.4c0.2-0.4,0.3-2.2,0.1-4l-0.3-3.4
		l2.7,0.3c2.3,0.3,3.1,0.2,4.3-0.6c0.8-0.5,1.3-1.1,1.1-1.3c-0.7-0.8-1.1-2.5-0.5-2.5c0.3,0,1.4-0.4,2.5-1c1.6-0.8,2.1-1.4,3.4-4.1
		c1.1-2.4,1.9-3.5,3-4.2c1.3-0.7,1.7-1.4,2.2-3.3c0.8-3.2,1.3-4.1,2.3-4.1c0.4,0,1.7-0.7,2.7-1.6c1.6-1.3,2.5-1.7,5.3-2.1
		c1.9-0.3,3.9-0.7,4.6-1c0.6-0.3,1.4-0.5,1.7-0.4c0.3,0,1.3-0.3,2-0.7c0.9-0.5,2-0.6,2.8-0.5c0.9,0.2,1.4,0,1.6-0.4
		c0.2-0.6,0.6-0.5,2.3,0.5c1.5,0.9,3,1.3,6.3,1.6c6.1,0.6,9.6,0.2,10.7-1.1l0.8-1l1.8,1c2.2,1.3,7.3,1.4,8.6,0.3
		c0.5-0.4,1.1-0.6,1.4-0.4c0.4,0.1,0.9,0,1.3-0.1c0.4-0.2,1-0.2,1.5,0c0.6,0.4,1.1,0.3,1.7-0.3c0.7-0.6,1-0.6,2.8,0
		c1.1,0.4,2.4,0.9,2.9,1c0.8,0.2,1.1,1.1,1.3,3.6c0.1,1.1,0.4,1.4,1.7,1.8c1.3,0.4,1.7,0.2,2.4-0.6c0.5-0.6,0.9-1.4,0.9-1.8
		c0-1.1,1.9-2.2,4.5-2.7c1.8-0.4,2.6-0.9,4.7-3.1l2.5-2.6l-0.2-4.2c-0.2-4-0.2-4.3,0.8-5.3c0.9-0.9,1-1.3,0.6-2.3
		c-0.3-0.9-0.3-1.4,0.3-2c0.5-0.5,0.6-0.9,0.3-0.9c-0.2,0-1.3-1-2.2-2.3l-1.7-2.3l1-1.6c0.6-1.1,1.4-1.7,2.2-1.8
		c0.9-0.1,1.3-0.4,1.3-1.1c0-0.7-0.4-1-1.6-1.1c-0.9-0.1-1.9-0.4-2.2-0.7c-0.5-0.4-0.4-0.6,0.7-1.2c1.9-1,2.9-2,2.9-3
		c0-0.5,0.3-1.3,0.7-2c0.1-0.2,0.2-0.3,0.3-0.5H223.9C223.9,162.6,223.9,162.6,223.9,162.7z"/>
	<path fill="#E70000" d="M258.9,444.6c-1.5-0.7-1.6-0.7-1.6,0.3c0,0.5-0.3,1.3-0.7,1.9c-0.8,1.1-0.5,2,1.1,3.5
		c1.5,1.3,2.2,0.6,2.3-2.4C260.1,445.3,260,445,258.9,444.6z"/>
	<path fill="#E70000" d="M245,450.8c0.3-0.1,1.1,0,1.6,0.4c0.9,0.6,1,0.6,1.4-0.5c0.3-0.7,0.7-1.6,0.9-2.1c0.6-1,0.7-1-3.4,0
		c-1.8,0.5-3.3,1.1-3.4,1.3C242,450.5,244,451.2,245,450.8z"/>
	<path fill="#E70000" d="M257.6,454.5l1.5,0.9c1.6,0.9,2,1.8,2,4.2c0,1.2,0.2,1.5,0.9,1.5c0.6,0,1.2-0.5,1.5-1.2
		c0.3-0.7,0.9-1.2,1.5-1.2c2.5,0,3-2.5,1-5.2c-1-1.4-1-1.4-2.8-0.6c-0.7,0.3-2.3,0.8-3.5,1L257.6,454.5z"/>
	<path fill="#E70000" d="M307.1,76c-0.3-3.2-0.4-3.6-1.5-4c-2.4-0.9-2.7-1.3-1.8-2.2c1.9-1.9,3.1-3.6,3.1-3.9c0-0.2,0.3-0.4,0.7-0.4
		c0.4,0,1.2-1,1.8-2.1c0.9-1.9,0.9-2.2,0.3-2.6c-0.6-0.5-0.6-0.8-0.1-2.2c0.3-0.9,0.6-2.3,0.6-3.1c0-1.1,0.5-1.9,1.7-3.1
		c1.6-1.5,1.6-1.6,0.7-1.9c-1.3-0.4-2.8-3.5-2.8-5.9c0-1.1-0.2-2.2-0.4-2.5c-0.2-0.2-0.6-1.1-0.9-1.9c-0.5-1.4-0.5-1.6,0.8-2.3
		c1.6-0.9,1.9-2.5,0.6-3.8c-0.6-0.7-0.9-0.7-2.6-0.1c-1.7,0.6-1.9,0.6-2.8-0.2c-0.9-0.9-2.5-1.2-5-1.1c-0.6,0-2.2,0.8-3.4,1.8
		c-2.1,1.6-2.2,1.6-3.3,0.9c-1.2-0.8-3.6-0.6-4.1,0.3c-0.4,0.6-3-0.9-3-1.8c0-0.4-0.4-1.1-0.9-1.4c-0.5-0.3-0.9-1-0.9-1.5
		s-0.2-1.3-0.6-1.8c-0.8-1.3,0.2-3.2,1.9-3.6c1.4-0.3,1.9-1.3,2.6-6c0.2-1,0.4-2.5,0.6-3.2c0.2-1.3,0.2-1.3-0.9-1.1
		c-1.3,0.3-2.9-1.1-5-4.3c-2.1-3.2-4.4-4.2-4.9-2.1c-0.3,1.1-3.4,3.5-4.7,3.5c-0.6,0-0.7-0.4-0.5-2c0.3-2.2-0.5-3.5-2.2-3.5
		c-0.4,0-0.9-0.3-1-0.7c-0.3-0.7-2.4-0.9-3.2-0.3c-0.3,0.2-0.9,1-1.4,1.9c-0.7,1.3-1.1,1.5-2,1.3c-0.6-0.1-1.7,0-2.4,0.4
		c-1,0.6-1.5,0.6-3,0c-2.7-0.9-5.3-1.3-5.3-0.8c0,0.3,0.4,0.8,0.9,1.3c0.5,0.4,1.3,1.7,1.7,2.9l0.8,2l-1.6,1.6
		c-1.3,1.3-1.9,1.6-3.9,1.7c-1.3,0-3.3-0.2-4.4-0.5c-1.9-0.6-2.3-0.6-4.2,0.4l-2.1,1l-0.3,3.1c-0.6,5.4-0.6,5.6-2.5,6.1
		c-2.4,0.6-2.3,0.6-2.6-1.3l-0.3-1.7l-1.2,1.4c-0.7,0.9-2,1.7-3.1,2c-1,0.3-2.5,0.9-3.4,1.5c-0.9,0.5-1.7,0.7-1.9,0.5
		c-0.5-0.7-6.9-0.6-8.4,0.1c-1.8,0.9-1.7,0.9-2.2-0.6c-0.3-0.9-1.2-1.7-2.4-2.3c-3.1-1.6-3.8-1.2-3.8,2c0,1.4-0.2,1.6-2.8,2.8
		c-2.6,1.3-2.8,1.4-2.8,3c0,1.3-0.3,1.9-1,2.4c-0.9,0.6-1.1,1-1,3.2c0,1.4-0.1,2.6-0.4,2.8c-0.3,0.2-0.3,0.6,0.3,1.4
		c1.1,1.5,0.9,2.7-0.6,4.6c-0.8,0.9-1.4,1.9-1.4,2.2s-0.4,1-1,1.6l-1,1l1.2,1.3c0.9,0.9,1.2,1.7,1.2,3.2c0,1.1,0.3,2.5,0.6,3.2
		c1,1.9,0.5,3.2-1.3,3.5c-0.8,0.2-2.2,0.7-3.1,1.3c-2.2,1.3-5.8,0.9-7.2-0.8c-0.6-0.6-1.3-1.2-1.8-1.2c-1,0-0.9,0.1,1.1,2.9
		c1.4,1.9,1.6,2.5,1.6,5.3c0,2.8,0.2,3.2,1,3.3c0.6,0.1,1.3-0.3,1.9-1.1c0.9-1.2,1.2-1.3,2.2-0.7c0.8,0.4,1.2,0.9,1.2,1.6
		c0,0.6,0.3,1.5,0.7,2c0.4,0.5,0.7,1.5,0.7,2.3c0,0.6,0.2,1.4,0.5,1.9h111.5C307.5,81.5,307.4,79.7,307.1,76z"/>
	<path fill="#E70000" d="M213.6,409.7l1.3,1.4c1.8,1.8,3.6,1.9,4.8,0.2c0.8-1.1,0.8-1.5,0.5-3.5c-0.3-1.6-0.3-3,0-4.6
		c0.3-1,0.5-2.3,0.5-3.1h-7.2L213.6,409.7z"/>
	<path fill="#E70000" d="M398.6,76.2c-0.9-1.5-1.9-2.8-2.2-2.8c-0.2,0-1.1,0.6-1.9,1.2c-1.3,1.1-1.4,1.1-1.4,0.3
		c0-0.7-0.6-1-2.8-1.4c-1.5-0.3-3.8-1-4.9-1.5c-1.2-0.6-2.5-0.9-3.1-0.7c-0.6,0.1-1.6,0-2.3-0.4c-1.5-0.8-4.2-0.6-5.5,0.4
		c-0.4,0.3-0.7,1.3-0.7,2.2c0,1.4-0.1,1.6-1.7,2c-1.5,0.4-1.8,0.6-1.8,1.7c0,0.7-0.4,1.8-0.9,2.5c-0.5,0.6-0.9,1.6-0.9,2.1
		c0,0.3,0,0.6-0.1,0.9h34.4c-0.1-0.1-0.1-0.2-0.2-0.3C401.3,80.4,399.5,77.7,398.6,76.2z"/>
	<path fill="#E70000" d="M222.6,401.2c0,5,1.9,6.6,2.3,1.9c0.1-1.4,0.3-2.7,0.5-2.8c0.5-0.4,5.3,2.4,5.5,3.1
		c0.1,0.6,0.6,0.7,2.5,0.6c2.3-0.1,2.4-0.1,2.7,1.5c0.3,1.3,0.2,1.8-0.4,2.2c-0.7,0.6-0.7,0.7,0.2,1.6c1.1,1.3,2,4,2,6.5
		c0,1.3,0.4,2.2,1.5,3.4l1.4,1.7l0.6-1.4c0.3-0.8,0.6-2.6,0.6-4c0-1.4,0.2-2.5,0.5-2.5c0.2,0,1,0.8,1.6,1.9c0.6,1,1.6,2,2.1,2.3
		c0.6,0.3,0.9,1,0.9,1.7c0,0.6,0.4,1.9,0.9,2.9c0.5,0.9,1,2.3,1.2,3c0.3,1.8,2.1,2.8,3.6,2.3c1.2-0.5,1.3-0.3,2.4,2.9
		c0.1,0.5,0.7,0.8,1.6,0.8c2.1,0,2.6,0.8,2.5,4.2c0,1.6-0.2,3.7-0.4,4.5c-0.2,1.2-0.1,1.4,0.4,1.3c0.4-0.1,1,0,1.3,0.5
		c0.3,0.4,0.8,0.7,1.1,0.7c0.8,0,2.6,2,2.6,2.9c0,0.4,0.5,0.9,1.2,1c0.6,0.2,1.2,0.6,1.2,0.9s0.6,1.5,1.4,2.6
		c1.4,1.9,1.6,1.9,3.2,1.7c4.5-0.7,4.2-0.5,4.2-3.3v-2.5l1.8,0.3c2.2,0.4,2.4,0.5,2.4,1.6c0,1.8,1,3.2,2.6,3.5
		c0.8,0.1,1.8,0.6,2.1,0.9c0.3,0.4,0.8,0.6,1.3,0.6c0.4,0,1.8,0.4,3.2,0.8c2.3,0.7,2.5,0.7,3.3,0c1.1-1,1.5-1,1.5-0.1
		c0,0.4,0.4,0.7,0.9,0.7c1.1,0,1.5,0.9,1.9,4.2c0.3,2.4,0.4,2.5,1.6,2.7c0.7,0.1,1.6-0.1,2-0.4c0.5-0.4,0.8-0.4,1.6,0.3
		c0.8,0.7,1,0.8,2.1,0c1.2-0.7,1.2-0.7,1.2,0.4c0,0.7-0.2,1.6-0.5,2.1c-0.3,0.6-0.3,1,0.2,1.4c0.5,0.4,0.7,1.4,0.7,2.9
		c0,2.1-0.1,2.3-1.6,3.2c-0.9,0.6-1.6,1.3-1.6,1.8s-0.2,1-0.6,1.3c-0.6,0.6,1.4,3.5,3.3,4.5c0.7,0.4,1.5,1,1.6,1.4
		c0.3,0.7,0.5,0.6,1.7-0.6c0.8-0.7,1.7-2,2-2.9c0.5-1.1,0.9-1.5,1.9-1.5c0.6,0,1.5-0.4,1.9-0.9c0.5-0.5,1.2-0.9,1.6-0.9
		c0.5,0,1.7-0.6,2.7-1.2c2.1-1.4,2.5-1.3,4.4,1.9c0.6,1.2,1.4,1.9,1.6,1.8c0.2-0.1,1.3,0.1,2.3,0.6l1.8,0.9l0.6-1.3
		c0.3-0.8,1.2-1.6,2-1.9c0.8-0.3,1.5-0.6,1.6-0.7s-0.1-0.7-0.5-1.4c-0.6-1.1-0.6-1.5-0.1-2.8c0.4-0.8,0.9-1.5,1.2-1.5
		c0.6,0,2.1-1.5,4.2-4.2l1.3-1.7l-3-1.7c-5.1-3-8.5-6.4-12.7-13.2c-2.1-3.3-4.2-6.2-4.6-6.3c-0.4-0.1-2.3-0.8-4.2-1.6
		c-1.9-0.7-3.5-1.2-3.6-0.9c-0.1,0.3-0.6,1-1.1,1.7c-0.9,1.2-1.1,1.3-5.1,1.1c-3.7-0.1-4.2-0.3-5.4-1.4c-0.7-0.7-2-1.4-2.8-1.6
		c-1.2-0.2-1.9-1-4.1-4.3c-1.5-2.2-3.6-4.9-4.7-6.1c-2.6-2.8-4.4-7.9-5.7-16.2c-0.6-3.9-1.3-7.2-1.9-10.2h-56.9
		C222.6,400.3,222.6,400.7,222.6,401.2z"/>
	<path fill="#E70000" d="M340,79.4c-0.3-0.9-0.7-1.1-3.2-1.7c-1.3-0.2-1.7,0-3.8,2.3l-2.4,2.5h11.8C341.4,81.7,340.3,80.3,340,79.4z
		"/>
	<path fill="#E70000" d="M328.5,81.9c-2-0.6-2.1-0.6-2.7,0.6h4.7L328.5,81.9z"/>
</g>
</svg>
