<?xml version="1.0" encoding="utf-8"?>
<!-- Generator: Adobe Illustrator 17.1.0, SVG Export Plug-In . SVG Version: 6.00 Build 0)  -->
<!DOCTYPE svg PUBLIC "-//W3C//DTD SVG 1.1//EN" "http://www.w3.org/Graphics/SVG/1.1/DTD/svg11.dtd">
<svg version="1.1" id="flag-icon-css-tj" xmlns="http://www.w3.org/2000/svg" xmlns:xlink="http://www.w3.org/1999/xlink" x="0px"
	 y="0px" viewBox="0 0 640 480" enable-background="new 0 0 640 480" xml:space="preserve">
<g>
	<path fill="none" d="M640,363.8c0-0.3,0-0.5,0-0.7v1.2C640,364.1,640,363.9,640,363.8z"/>
	<path fill="#006600" d="M638.7,367c0.8-0.7,1.2-1.6,1.3-2.8V363c-0.3-3.1-2.7-5-9-7.5c-5.7-2.2-6-2.4-7.6-5.5
		c-1.9-3.5-2.8-5.4-3-7.1H345.1c-0.2,1.9-0.3,3.8-0.4,5.5c-0.1,5-1.2,12.5-1.9,13.7c-0.2,0.4-0.1,2.6,0.4,4.9
		c0.6,3.5,0.6,4.8-0.1,7.3c-0.4,1.6-0.9,5.7-0.9,8.9c-0.1,4.2-0.6,7.6-1.7,11.8c-1.9,6.7-2,10.8-0.7,17.1c0.5,2.4,0.9,5.2,0.9,6.1
		s0.7,2.7,1.9,4.1c1.6,2,1.7,2.6,1.3,4.2c-0.4,1.6-0.2,2.4,1.1,4.6c0.9,1.5,1.7,3.7,1.9,4.9c0.3,1.7,0.7,2.2,1.8,2.4
		c0.9,0.1,1.7,0.9,2.1,1.9c0.4,0.9,1.4,2.4,2.1,3.2c0.8,0.9,2.3,3.7,3.4,6.1c1,2.5,2.2,5,2.5,5.5c0.4,0.4,2,0.8,3.6,0.9
		c1.6,0.1,3.5,0.2,4.4,0.5c1.7,0.5,8.7-2,9.4-3.4c0.2-0.4,1.2-1.1,2.2-1.5c1-0.4,2.5-2,3.5-3.6c1.4-2.2,2.6-3.2,5.7-4.5
		c2.1-1,5-2.9,6.4-4.3c1.4-1.4,3.3-2.7,4.2-2.9c1-0.2,2.2-0.9,2.8-1.6c0.6-0.6,1.9-1.2,3-1.5c1.4-0.3,2.5-1.4,4.4-4.1
		c1.7-2.5,2.9-3.7,3.8-3.7c1.3,0,2.5-0.7,9.2-5.2l2.8-1.9l5.2,0.7c4.4,0.6,5.5,0.6,7.1-0.2c1.1-0.6,3.2-1.2,4.9-1.4
		c3.9-0.5,7.7-3.3,8.3-5.8c0.2-1.1,0.6-2.7,0.7-3.7c0.2-1.1,1.9-3.2,4.3-5.6c2.2-2,4-4.1,4-4.6s1-1.2,2.2-1.7
		c1.8-0.7,2.2-1.1,2.2-2.5c0-0.9,0.2-1.7,0.6-1.7c0.3,0,1-0.9,1.5-2.1c0.8-1.9,1.1-2.1,4.5-2.5c2-0.2,4.9-0.5,6.5-0.6
		c1.6-0.1,3.5-0.6,4.5-1.2c1.4-0.9,1.7-1.6,1.7-3.9c0-2.2,0.4-3,1.6-4.2c0.9-0.9,1.9-1.6,2.2-1.6c0.4,0,1.3-0.6,2.1-1.2
		c1.3-1.1,2.2-1.2,5.7-0.9c3.4,0.2,4.3,0.1,5-0.7c0.4-0.6,1.2-1,1.8-1c1,0,3.4-0.7,7.9-2.2c1.6-0.6,2.6-0.7,3-0.2
		c0.4,0.4,1.6,0.6,2.7,0.6c1.4,0,2.9,0.6,4.4,1.8c3.2,2.5,4.6,2.8,7.3,1.4c2-1,2.7-1.1,4.2-0.4c1.6,0.7,2.1,1.6,3.2,4.8l1.3,4.1
		l-2,1c-1.2,0.5-2.5,0.8-3,0.6c-0.6-0.2-1.1,0.2-1.6,1.3c-0.9,2.3-0.8,2.7,0.6,3.1c0.7,0.2,1.5,1.2,1.9,2.2c0.6,1.9,0.7,1.9,4.2,1.4
		c4-0.4,3.7-0.3,10.1-5.5l4.5-3.7l1.3,1.2l1.2,1.3l1.8-2c1.2-1.5,2.7-2.2,5.1-2.8c7.6-1.7,7.9-1.9,9.1-4.6c1-2.4,1.4-2.7,6-4.4
		c4.7-1.7,4.9-1.7,8-0.8c2.3,0.7,4.3,0.8,7.2,0.4c3.7-0.4,4.2-0.3,5.3,1c0.7,0.7,2.1,1.8,3.2,2.3c1.8,0.9,2,0.9,3.7-0.4
		c1-0.8,2.3-1.3,2.9-1.2c0.6,0.2,2.1,0,3.4-0.4c2-0.7,2.8-0.6,7,1c4.6,1.7,4.7,1.9,6.5,5.5c1.1,2,1.9,3.8,2,3.9
		c0.1,0.1,2.2-1.1,4.7-2.5c2.5-1.5,6-3.2,7.6-3.9c3.9-1.5,4.8-3.3,3.2-6C637.5,368,637.5,368,638.7,367z"/>
	<path fill="#006600" d="M64,343.4c-2.2,3.2-4.4,6.7-4.9,7.8c-1,1.9-8,9.3-15.6,16.5c-6.5,6.1-7.8,9.5-8.5,21.3
		c-0.6,10.1-0.2,11.8,2.9,13.9c1.3,0.9,1.6,1.5,1.6,4c0,4.2,1.4,7.3,3.5,8.1c4.3,1.6,7.1,3.4,11.2,7.1c2.5,2.2,5.7,4.6,7,5.3
		l2.5,1.2l2.2-1.5c4.3-2.9,9.1-5.3,11.9-6c1.6-0.4,3.7-1.5,4.7-2.4c3.3-3,7.3-4.8,14.3-6.5c3.8-0.9,8.1-2,9.6-2.5
		c1.6-0.4,3.8-1.1,5-1.4c1.7-0.4,2.2-0.9,2.5-2.4c0.2-1.3,0.8-2,2.1-2.5c1.6-0.5,1.9-0.4,3.1,1.1l1.4,1.7l2.2-2.4
		c1.2-1.4,2.4-3.1,2.7-3.9c0.3-1.1,0.7-1.2,1.7-1c3.9,1.1,4.8,1.1,5.1,0.1c0.2-0.6,0.4-1.5,0.6-2c0.2-0.7,0.5-0.9,1.1-0.3
		c1.2,1.2,3.6,0.9,3.6-0.4c0-1.6,1.6-2.7,3.1-2.2c0.7,0.2,2.2,1.2,3.3,2.1c3.2,2.9,14,10.1,16.1,10.7c2.3,0.8,8.1-0.3,10.6-2
		c0.9-0.7,2-2.4,2.5-3.9c0.9-2.5,0.8-2.7-0.6-4.5c-2.4-3-4.5-7.6-4.5-9.8c0-1.4,1.1-3.7,3.5-7.6c4.2-6.7,5.5-8.1,8.4-9.6
		c1.3-0.7,2.8-2,3.3-3c0.7-1.5,1.2-1.8,2.4-1.6c3.8,1,20.4-0.6,23.3-2.1c0.7-0.4,2.4-0.7,3.7-0.7c1.9,0,2.5,0.3,3.4,1.8
		c0.7,1.1,2.7,2.5,5.8,4.1c2.7,1.3,5.3,3,5.8,3.9c1.5,2.2,4.3,2,5.4-0.6c1.2-2.5,2-3.5,4.9-5.7c1.8-1.4,2.5-2.5,3.3-5.3
		c0.6-1.9,1.7-4.5,2.5-5.7c2.4-3.4,1.6-8.3-1.6-11.2c-0.2-0.2-0.4-0.3-0.5-0.5h-177C64.3,343.1,64.2,343.3,64,343.4z"/>
	<path fill="#FFFFFF" d="M620.4,340.2c0.4-2.4,0.9-3,4.1-5.5c4.5-3.4,4.8-4.9,1.3-6.5c-1.4-0.6-3.2-1.9-4.2-2.9l-1.7-1.8l1.9-2.4
		c3.9-4.8,3.2-9.4-2.6-16.5c-2.5-3.1-3.3-4.7-4.8-9.9c-3.5-12.4-3.7-14.1-1.9-21.3c1.9-8.2,1.9-9.4-0.4-13.1
		c-4.1-6.6-9.1-9.3-24-12.6c-6.2-1.4-6.5-1.4-8.8-0.2c-2.5,1.1-2.5,1.1-6.5-0.6c-2.2-0.9-4.6-1.6-5.3-1.4c-0.7,0.1-1.8-0.1-2.5-0.6
		c-1.5-1.1-7.1-0.9-11.3,0.4c-2.2,0.6-2.4,0.9-2.4,3c-0.1,1.2-0.4,3-0.9,3.9c-0.7,1.3-0.7,1.8,0.2,3.8l1.2,2.2l-3.5,0.8
		c-5,1.1-9.5,0.4-12.4-1.9c-1.7-1.4-2.9-1.8-4.1-1.6c-1.4,0.2-2-0.2-3.3-1.7c-0.8-1.1-1.5-2.8-1.5-3.8c0-1.4-0.8-2.7-3.4-5.2
		c-2.7-2.7-3.4-3.8-3.4-5.4c0-1.1-0.6-2.9-1.2-4c-0.7-1.1-1.6-3.9-2-6.2c-0.7-3.7-0.6-4.5,0.4-7c1.1-2.7,1.4-2.9,4.5-3.6
		c4.1-0.9,5-2.4,3.5-5.4c-0.7-1.3-2.2-2.5-4.4-3.6c-3-1.5-3.5-2-5-5.4c-1-2.1-2.4-5.9-3.1-8.4c-1.2-4.2-1.5-4.7-3.1-5
		c-1.7-0.3-1.8-0.4-2.3-5.6c-0.6-6.6-0.3-7.8,2.4-9.4l2.2-1.2l-1.5-2c-1.7-2.1-3.4-2.7-8.3-2.8c-3.5-0.1-6.8,1.4-15.8,7.1l-4.2,2.6
		l-13.2,1.6c-7.3,0.9-20.9,2.2-30.2,2.9c-16,1.2-17.4,1.4-24.5,3.5c-9.1,2.8-11.2,4.2-15.5,10.9c-5,7.9-6.5,7.9-18.1-0.4
		c-4.5-3.1-8.4-5.6-8.7-5.5c-0.4,0.1-2.2,0.9-4.1,1.8c-3.4,1.6-3.5,1.6-7,0.7c-3.3-0.9-3.7-0.9-5.2,0.2c-2.4,1.7-4.1,0.9-4.1-1.9
		c0-1.2-0.4-4.4-1.1-7c-0.9-4.5-1.1-4.8-3.2-5.8c-1.3-0.6-3.7-0.9-5.7-0.9c-4.7,0.1-8.5-2.2-11.1-6.8c-1.3-2.3-2.5-3.9-3.9-5l3.6,11
		l-10.4-7.5l-10.4,7.5l3.2-9.9c-0.8,0.3-1.6,0.7-2.5,1c-4.4,2-9.2,4.5-10.7,5.7c-1.4,1.2-6.6,3.9-11.4,6.1c-3,1.3-5.9,2.8-7.9,3.8
		l2,6.1l-5.6-4.1c-2.5,1.1-5.1,0.4-7-1.8l-8.1,5.9l4-12.2l-10.4-7.5H268l0.8-2.3c-0.3-0.5-0.7-1-1.5-1.8c-1.9-2-2.3-2.1-6.2-2.1
		c-2.2,0-5.3,0.4-6.7,0.9c-2.2,0.7-3.4,0.8-7.1,0.2c-4.4-0.7-4.5-0.6-7.8,1.3c-1.8,1.1-3.4,1.9-3.6,1.9s-2-1-4-2.2l-3.6-2.2
		l-2.7,1.6c-2.7,1.6-2.8,1.6-21.9,1.9c-10.6,0.2-22.1,0.6-25.6,0.7l-6.3,0.3l-1.2-2.5c-1.1-2-1.3-3.7-1.3-8.4
		c0-5.7-0.1-6.1-2.8-11.9c-1.6-3.3-2.8-6.3-2.8-6.8c0-0.4,0.5-1.8,1.1-3.4H125c-1.7,2.5-4.7,5.2-5.6,5c-0.4-0.1-1.1-1.6-1.4-3.2
		c-0.2-0.7-0.4-1.2-0.6-1.8h-4.2c-0.6,1.2-1.2,2.5-1.2,3.1c0,0.9-0.7,1.7-2.7,2.5c-1.4,0.7-3,1.7-3.6,2.4c-1,1.2-6.6,15.2-8.1,20.1
		c-0.7,2.4-1.2,2.9-3.6,3.9c-3.5,1.4-7.8,1.5-11.2,0.2c-1.5-0.6-5.2-1.1-8.1-1.2c-3-0.1-6-0.6-6.8-1c-0.8-0.4-6.1-1-12.3-1.3
		c-9.2-0.4-11.5-0.7-15.2-2.1c-3.7-1.4-5-1.6-8.4-1.2c-3.5,0.4-4.8,0.9-10.1,4.2c-3.4,2.1-7,5-8.2,6.4c-1.9,2.4-2.2,3.4-3.2,9.2
		c-1,6.4-1.1,6.5-3.4,8.3c-2.6,1.9-3.4,3.7-2.8,6c0.6,2.4,2.2,3.8,8.1,7.3c3.1,1.9,7.6,4.8,10.1,6.5c4.1,2.9,4.6,3.5,5.8,6.9
		c1.9,5,5.3,8.6,10.9,11.2c3.7,1.7,5.2,2.1,8.8,2.1c2.4,0,5.4-0.4,6.8-0.9l2.5-0.9l3.8,3.4c2.2,1.9,3.9,3.9,3.9,4.6
		c0,0.6-1,2.1-2.2,3.2l-2.2,2l1.1,2.3c0.9,1.8,1,2.7,0.5,4.6c-0.5,2-0.2,3.9,2,12.5c1.4,5.5,3,12,3.4,14.4c0.6,3.7,1.2,4.8,3.8,7.9
		c3,3.6,11,9.3,18.1,12.9c4.8,2.4,5.2,3,4,5.8c-0.6,1.2-1.5,4.2-2,6.6c-0.8,3.4-1.7,5.1-3.7,7.5c-3.2,3.8-5.8,12-4.7,15.1l0.6,1.8
		l-5,0.4c-6.8,0.5-9.2,2.1-14,9.2h177c-1.7-2-2.5-5.4-2.6-10.8v-4.2h1.8c0.9,0,2.5-0.6,3.4-1.2c0.9-0.7,2.7-1.7,4-2.1
		c2.6-0.9,3.9-2.9,5.2-8.1c0.6-2.4,1.1-3.2,2.7-3.8c3.2-1.4,5.4-3.5,7-6.8c0.8-1.7,1.5-4.1,1.5-5.2c0-0.5,0.1-1.1,0.3-1.7
		c-12.1,8.1-30.8,5.3-32.6-12.1c1.9,1.3,3.9,2.5,6,3.3c13.9,5.4,29.5-1.4,35-15.3c1.3,1.3,2.8,2.3,4.3,3.3c1.7-0.7,3.6-1.2,5.9-1.6
		c3-0.6,6.4-1,7.4-1.1c1.1-0.1,2.4-0.4,3.1-0.8c0.9-0.6,1.6-0.5,2.8,0.2c0.9,0.5,2.3,1.1,3.3,1.5c0.9,0.3,1.7,0.9,1.7,1.4
		c0,0.4,0.4,1,0.9,1.6c7.8-3.9,13.5-11.7,14.3-21v-20.7c-0.1-2.9-1.7-5.6-4.2-7c-4.1-2.4-9.4-1.1-11.8,3v0.1
		c-1.3-4.1-1.3-8.5,0-12.6c3.5-10.6,14.9-16.4,25.5-12.9c10.6,3.5,16.4,14.9,12.9,25.5c-1.5-2.5-4.1-4.1-7-4.2
		c-4.7-0.2-8.8,3.5-9,8.2v20.6c1.2,14.3,13.9,24.9,28.2,23.6c5.9-0.5,11.4-3,15.6-7c5.4,13.9,21.1,20.7,35,15.3
		c2.1-0.8,4.2-1.9,6-3.3c-2.5,25-40,19.9-42.8-4.4c-11.7,20.7-37.5,14.7-45.2-10.5H320c-2,6.6-5.2,11.8-9.1,15.6
		c1.1,0.9,3.4,1.7,6.7,2.3c0.7,0.1,1.5,0.3,2.2,0.6c0.1-0.1,0.3-0.2,0.4-0.3c0.3,0.2,0.5,0.5,0.8,0.8c3.1,1.3,5.4,3.2,5.4,4.9
		c0,0.7,0.7,1.9,1.6,2.6c0.6,0.5,1,0.9,1.1,1.3c2.3,0.6,3.5,1.5,3.7,1.7c0,0,0,0,0.1-0.1l0,0.1c0,0,0,0,0,0c-2,2.9-4.4,5-6.8,6.3
		c-0.1,0.5-0.2,1.2-0.2,2.1c0,1.7-0.3,3.3-0.6,3.6c-0.9,0.9-1.7,6.8-1.1,7.9c0.2,0.6,0.1,1.8-0.4,3.2c-0.5,1.2-0.9,3.3-0.9,4.7
		c0,2.2,0.2,2.7,1.9,3.5c1,0.5,2.2,0.9,2.7,0.9s1.1,0.6,1.4,1.2c0.6,1.2,0.6,1.2,3.3-0.6c1.7-1.1,3.9-1.9,6-2.2
		c2.7-0.3,3.5-0.7,4.6-2.2c1.1-1.6,1.4-1.7,3.1-1.1c2,0.7,2.2,1.3,1.2,4c-0.6,1.6-1.3,5.9-1.7,10.2h275.3
		C620.2,342,620.3,341.2,620.4,340.2z M230.4,262.7l4,12.2l-10.4-7.5l-10.4,7.5l4-12.2l-10.4-7.5H220l4-12.2l4,12.2h12.8
		L230.4,262.7z M243.3,214.7l4,12.2l-10.4-7.5l-10.4,7.5l4-12.2l-10.4-7.5h12.8l4-12.2l4,12.2h12.8L243.3,214.7z M373,306.8
		C373,306.8,373,306.8,373,306.8c-8.7,8.9-19.1,7.3-24.8-4.2c0,0,4.2-1.3,8.3-0.7c0.2-3.2,3.1-6.9,5.9-8.4c2.1,2.7,3.3,6.1,3.2,9.6
		C370.6,304.2,372.7,306.5,373,306.8C373,306.7,373,306.7,373,306.8L373,306.8z M386.4,207.2h12.8l4-12.2l4,12.2h12.8l-10.4,7.5
		l4,12.2l-10.4-7.5l-10.4,7.5l4-12.2L386.4,207.2z M426.4,274.8l-10.4-7.5l-10.4,7.5l4-12.2l-10.4-7.5H412l4-12.2l4,12.2h12.8
		l-10.4,7.5L426.4,274.8z"/>
	<path fill="#CC0000" d="M115.1,134.8c-0.4,0-1.1,1.1-1.8,2.3h4.2C116.8,135.6,116,134.8,115.1,134.8z"/>
	<path fill="#CC0000" d="M165.5,135.2c1.1-2.6,1.9-5.5,1.9-7.1c0-2,0.3-2.9,1.2-3.4c1.7-0.9,1.9-0.7,4,3.7c1,2.1,2,3.8,2.4,3.8
		s2.2-0.7,4-1.6l3.2-1.5v-4.3c0-3.7,0.2-4.5,1.2-5c0.8-0.4,1.2-1.3,1.2-2.4c0-1.6,0.2-1.7,1.3-1.5c0.7,0.2,2-0.2,3.2-1.1
		c1.7-1.2,2.2-1.3,3.7-0.8c1.6,0.6,2.2,0.4,6.1-2.1l4.4-2.9l5.9,0.4c6,0.4,18.9,3.8,28.9,7.6l4.7,1.7l6.9-2l6.9-2.1l6.4,0.9
		c5.1,0.7,6.4,1.1,6.3,1.9c-0.1,0.6-0.2,2.2-0.5,3.8c-0.4,2.7-0.4,2.9,1.5,3.6c1.9,0.7,2,0.7,4.7-1.9c1.8-1.7,2.8-3.4,3-4.8
		c0.6-3.4,4.2-8,6.7-8.5c1.2-0.2,3.2-1.6,5-3.3l3-2.9l8.5-0.9l8.6-1l0.2-3c0.2-2.7,0.1-2.9-1.3-2.9c-0.9,0-2.7,0.6-4.2,1.2
		c-1.5,0.7-4.4,1.4-6.5,1.7c-3,0.4-4.7,1.1-9.4,4.1c-3.6,2.3-6,3.5-6.5,3.2c-0.4-0.2-2.5-1.9-4.6-3.5c-3.5-2.7-3.9-3.2-4.3-6
		c-0.5-3.4-1.2-4.5-2.9-4.5c-0.6,0-1.5-0.6-1.9-1.2c-0.6-0.8-1.7-1.4-3.7-1.6c-1.7-0.2-3-0.6-3-0.9s-2-2.7-4.4-5.2
		c-3.8-4-4.3-4.7-3.3-5.1c0.7-0.2,2-1.1,3.1-1.9c1.1-0.8,2.6-1.4,3.5-1.4c1.1,0,2.3-0.7,3.4-2c1-1.1,3.2-2.7,4.9-3.5
		c1.9-0.9,3.1-2,3.2-2.8c0.2-1.2,1.7-2.5,10.6-9.4c5.2-4,5.2-3.9-0.5-6.8c-1.9-0.9-3.5-1.8-3.7-1.9c-0.1-0.1,0.4-1.2,1.1-2.4
		c1.5-2.5,1.1-3.8-1.5-5.5c-0.9-0.6-2.2-2.5-3-4.4c-1.4-3.2-1.6-3.3-4.9-4c-3.1-0.7-3.5-1.1-4.5-3.2c-1.2-2.7-2-3.5-3.4-3.3
		c-0.5,0.1-2,0.3-3.2,0.6c-2.2,0.4-2.4,0.5-2.4,2.7c-0.1,1.2-0.2,2.9-0.4,3.7c-0.7,2.3-9.2,8.6-16.3,12c-3.5,1.7-8.6,4.6-11.2,6.4
		c-3.8,2.7-5.5,3.4-9,4c-6,1.1-15.8,4.5-18.6,6.4l-2.4,1.6l-5-4.1c-4.6-3.7-12.4-8.3-14.2-8.3c-0.4,0-2.5,1.2-4.8,2.6
		s-4.2,2.6-4.2,2.6c0,0.1-0.5,3.3-1.1,7.2c-1.4,9.8-1.3,9.5-3.5,10.8l-2,1.2l0.4,4.2c0.2,3,0.9,5.3,2.2,8c1.1,2,1.9,4,1.9,4.4
		c0,0.3-1.6,1.6-3.4,2.9c-1.9,1.2-3.4,2.6-3.4,3c0,0.4,0.4,2,0.9,3.7l0.9,3l-2.1,2.1c-2.4,2.4-3.7,2.5-9.3,1.1
		c-7.5-1.9-24.6-0.6-37.2,2.9c-5.4,1.5-6.8,2.6-6,4.7c0.4,1.2,1,1.4,3.7,1.4c2,0,4.2-0.5,6.1-1.5c5.5-2.7,8.9-3.5,14.5-3.4
		c3.5,0.1,5.2,0.4,5.2,0.9c0,0.4-1.9,2.1-4.1,3.8c-6.8,5.2-7.4,6.1-7.4,12.1c0,3.6-0.4,5.8-1.2,7.6c-0.2,0.4-0.5,0.9-0.8,1.4h39.8
		C165,136.5,165.3,135.9,165.5,135.2z"/>
	<path fill="#F8C300" d="M323.2,258.3v-20.6c0.2-4.7,4.2-8.4,9-8.2c2.9,0.1,5.6,1.7,7,4.2c3.5-10.6-2.3-22-12.9-25.5
		c-10.6-3.5-22,2.3-25.5,12.9c-1.3,4.1-1.3,8.5,0,12.6v-0.1c2.4-4.1,7.7-5.5,11.8-3c2.5,1.5,4.1,4.1,4.2,7v20.7l3.2,13.6
		L323.2,258.3z M305.4,224.7c0.8-6.8,6.1-12.1,12.9-12.9c8.1-0.9,15.4,4.8,16.3,12.9c-5.8-1.2-11.6,1.4-14.6,6.5
		C317,226.1,311.2,223.5,305.4,224.7z"/>
	<path fill="#F8C300" d="M320,272L320,272c0.1,0,0-0.1,0-0.1C320,271.9,320,272,320,272z"/>
	<path fill="#FFFFFF" d="M334.6,224.7c-0.9-8.1-8.2-13.8-16.3-12.9c-6.8,0.8-12.1,6.1-12.9,12.9c5.8-1.2,11.6,1.4,14.6,6.5
		C323,226.1,328.8,223.5,334.6,224.7z"/>
	<path fill="#F8C300" d="M320,272c0,0,0-0.1,0-0.1l-3.2-13.6c-0.8,9.4-6.5,17.1-14.3,21c1.1,1.3,3,2.6,4,2.6c0.9,0,1.3,0.4,1.3,1.2
		c0,0.6,0.6,1.5,1.2,1.9c0.7,0.4,1.2,1.1,1.2,1.6c0,0.3,0.2,0.7,0.6,1C314.7,283.8,318,278.6,320,272z"/>
	<path fill="#F8C300" d="M238,290.2c-2.1-0.8-4.2-1.9-6-3.3c1.7,17.4,20.4,20.2,32.6,12.1c0.3-0.8,0.7-1.7,1.2-2.3
		c0.9-1.1,2.2-4.2,2.9-7c1.8-6.3,4.1-9.6,8.6-11.5c-1.5-0.9-3-2-4.3-3.3C267.6,288.8,251.9,295.6,238,290.2z"/>
	<path fill="#F8C300" d="M320,272c7.6,25.2,33.5,31.2,45.2,10.5c2.8,24.3,40.3,29.4,42.8,4.4c-1.9,1.3-3.9,2.5-6,3.3
		c-13.9,5.4-29.5-1.4-35-15.3c-4.3,4-9.8,6.5-15.6,7c-14.3,1.2-26.9-9.3-28.2-23.6l-3.2,13.6C320,271.9,320,272,320,272z"/>
	<path fill="#F8C300" d="M332.7,301.4c-0.2-0.2-1.4-1.1-3.7-1.7c0.2,0.6,0,1.3-0.3,2.9c-0.4,1.7-1.2,3.2-1.9,3.6
		c-0.5,0.3-0.8,0.7-0.9,1.5C328.4,306.4,330.7,304.3,332.7,301.4z"/>
	<path fill="#F8C300" d="M332.8,301.3C332.8,301.4,332.8,301.4,332.8,301.3C332.8,301.4,332.8,301.4,332.8,301.3L332.8,301.3z"/>
	<path fill="#F8C300" d="M319.7,290.5c0.4,0.1,0.8,0.3,1.2,0.4c-0.2-0.3-0.5-0.5-0.8-0.8C320,290.2,319.9,290.3,319.7,290.5z"/>
	<path fill="#F8C300" d="M373,306.8L373,306.8C373,306.7,373,306.7,373,306.8C373,306.8,373,306.8,373,306.8z"/>
	<path fill="#F8C300" d="M365.5,303.2c0.1-3.5-1-6.9-3.2-9.6c-2.8,1.5-5.7,5.2-5.9,8.4c-4-0.6-8.3,0.7-8.3,0.7
		c5.7,11.5,16.1,13.1,24.7,4.1C372.7,306.5,370.6,304.2,365.5,303.2z"/>
	<path fill="#F8C300" d="M320,171.3l10.4,7.5l-3.6-11c-3.1-2.3-7-1.8-13.9,1.1l-3.2,9.9L320,171.3z"/>
	<path fill="#F8C300" d="M255.3,172l10.4,7.5l-4,12.2l8.1-5.9c-0.8-0.9-1.5-2.1-2-3.6c-1.1-3.3-1.1-3.6-0.1-5.5
		c0.6-1.1,1.2-3,1.4-4.3c0.2-1.3,0.2-2-0.2-2.7L268,172H255.3z"/>
	<path fill="#F8C300" d="M280.4,185.6c-1.3,0.6-2.2,1.1-2.5,1.4c-0.4,0.3-0.8,0.5-1.2,0.7l5.6,4.1L280.4,185.6z"/>
	<polygon fill="#F8C300" points="236.9,195 232.9,207.2 220.1,207.2 230.5,214.7 226.5,226.8 236.9,219.3 247.2,226.8 243.3,214.7 
		253.6,207.2 240.8,207.2 	"/>
	<polygon fill="#F8C300" points="224,243 220,255.2 207.3,255.2 217.6,262.7 213.6,274.8 224,267.3 234.4,274.8 230.4,262.7 
		240.8,255.2 228,255.2 	"/>
	<polygon fill="#F8C300" points="403.1,219.3 413.5,226.8 409.5,214.7 419.9,207.2 407.1,207.2 403.1,195 399.2,207.2 386.4,207.2 
		396.7,214.7 392.8,226.8 	"/>
	<polygon fill="#F8C300" points="420,255.2 416,243 412,255.2 399.2,255.2 409.6,262.7 405.6,274.8 416,267.3 426.4,274.8 
		422.4,262.7 432.7,255.2 	"/>
</g>
</svg>
