<?xml version="1.0" encoding="utf-8"?>
<!-- Generator: Adobe Illustrator 17.1.0, SVG Export Plug-In . SVG Version: 6.00 Build 0)  -->
<!DOCTYPE svg PUBLIC "-//W3C//DTD SVG 1.1//EN" "http://www.w3.org/Graphics/SVG/1.1/DTD/svg11.dtd">
<svg version="1.1" id="flag-icon-css-tk" xmlns="http://www.w3.org/2000/svg" xmlns:xlink="http://www.w3.org/1999/xlink" x="0px"
	 y="0px" viewBox="0 0 640 480" enable-background="new 0 0 640 480" xml:space="preserve">
<g>
	<path fill="none" d="M449.3,480c0.6,0.4,1.3,0.7,2.1,0.7c0.7,0,1.4-0.3,2-0.7H449.3z"/>
	<path fill="#00247D" d="M301.9,127.5c-0.4,0-0.7,0.2-0.7,0.5c0,0.2,0.4,0.5,1,0.5c0.5,0,0.8-0.2,0.7-0.5
		C302.7,127.7,302.2,127.5,301.9,127.5z"/>
	<path fill="#00247D" d="M303.6,114.8c-0.3,0-0.6,0.2-0.7,0.5c-0.1,0.2,0,0.5,0.4,0.5c0.4,0,0.7-0.2,0.7-0.5
		C304,115,303.8,114.8,303.6,114.8z"/>
	<path fill="#00247D" d="M299.5,109.5c-1,0.2-2.4,2.7-1.9,3.3c0.2,0.1,1.2,0.4,2.3,0.7c1.8,0.3,2.1,0.3,3-0.7l1-1.2l-1.1-1.2
		C301.8,109.2,301.5,109.2,299.5,109.5z"/>
	<path fill="#00247D" d="M304.3,121.5c0.6,1.8,1.1,3.8,1.1,4.4c0,1.2,0.5,1.4,1.3,0.5c0.9-0.9,0.7-2.9-0.6-5.4
		c-0.7-1.3-1.2-2.6-1.2-2.9c0-0.6-1-0.7-1.5-0.2C303.3,118.1,303.7,119.7,304.3,121.5z"/>
	<path fill="#00247D" d="M454.9,477.8c0-1.9-3.3-2.9-6-1.8c-1.7,0.7-1.2,2.8,0.4,3.9h4.1C454.2,479.4,454.9,478.6,454.9,477.8z"/>
	<path fill="#00247D" d="M298.6,128.4c0.1,0.2,0.6,0.5,1,0.5s0.7-0.2,0.7-0.5c0-0.3-0.4-0.5-1-0.5
		C298.8,128,298.5,128.1,298.6,128.4z"/>
	<path fill="#00247D" d="M296.4,129.2c0.3,0.1,0.8,0.1,1.2,0c0.3-0.1,0-0.2-0.6-0.2C296.3,129,296.1,129.1,296.4,129.2z"/>
	<path fill="#00247D" d="M194.8,10.6c0-1.1-1.6-3.5-2.3-3.5c-0.2,0-0.4,0.7-0.4,1.6c0,1.2-0.3,1.9-1.2,2.7c-0.9,0.7-1.2,1.4-1,1.9
		C190.6,15,194.8,12.7,194.8,10.6z"/>
	<path fill="#00247D" d="M184.7,12.6c-0.5,1.2,1.1,2.2,2.5,1.7c1.9-0.7,1.8-1.4-0.3-2C185.3,12,184.9,12,184.7,12.6z"/>
	<path fill="#00247D" d="M183.1,9.4c0,0.7,1.4,1.5,2.1,1.3c1.3-0.5,0.8-1.7-0.7-1.7C183.8,9,183.1,9.1,183.1,9.4z"/>
	<path fill="#00247D" d="M185.4,6.8c-0.2-1.1-1-1.3-1.8-0.4c-0.5,0.5-0.5,0.9-0.1,1.3C184.2,8.4,185.6,7.7,185.4,6.8z"/>
	<path fill="#00247D" d="M189.7,1.5c-0.7,0-1.5,0.1-1.6,0.3c-1.2,1.2,1,3.4,3.4,3.4c1.1,0,1.2-0.5,0.2-2.3
		C191.2,1.8,190.7,1.5,189.7,1.5z"/>
	<path fill="#00247D" d="M288.8,123.7c0.8,0.9,0.9,0.9,1.5,0.2c0.7-1,0.8-5.8,0.1-5.8c-0.2,0-0.5,0.4-0.5,0.9c0,0.6-0.5,1.6-1,2.3
		C287.9,122.8,287.9,122.8,288.8,123.7z"/>
	<path fill="#00247D" d="M293.2,128.4c1.2,0,1.8-0.9,0.9-1.5c-0.8-0.5-1.1-0.5-1.5-0.1C292,127.5,292.3,128.4,293.2,128.4z"/>
	<path fill="#00247D" d="M289.8,114.3c-1,1.1-1,1.7-0.1,2.4c0.5,0.4,0.9,0.2,1.9-0.9c0.7-0.8,1.1-1.6,0.9-1.9
		C292.1,113.2,290.6,113.4,289.8,114.3z"/>
	<path fill="#00247D" d="M181.8,1.7c-0.5,0.6-0.4,0.8,0.4,1.2c0.5,0.3,1.3,0.5,1.7,0.5c0.9,0,3-1.4,3-1.9
		C186.9,0.7,182.4,1,181.8,1.7z"/>
	<path fill="#FED100" d="M419.7,168.5c0.3,0.4,0.7,0.6,1,0.4c0.6-0.4,0-1.1-0.8-1.1C419.3,167.8,419.3,167.9,419.7,168.5z"/>
	<path fill="#FED100" d="M423.5,169.3c0,1.9,0.1,2.2,0.9,2.2s0.9-0.3,0.9-2.4c0-1.3-0.3-3-0.7-3.8c-0.4-0.8-0.7-1.9-0.8-2.4
		c-0.1-0.5-0.5-1-1-1.1c-0.6-0.1-0.8,0.1-0.8,1.4c0,0.8,0.3,2.1,0.7,2.7C423.1,166.6,423.4,168.1,423.5,169.3z"/>
	<path fill="#FED100" d="M417.9,164.7c0.5-0.6,0.5-0.8,0-1.4c-0.7-0.9-1.1-0.9-1.8-0.1c-0.4,0.5-0.3,0.8,0.4,1.5
		C417.2,165.4,417.3,165.4,417.9,164.7z"/>
	<path fill="#FED100" d="M421.6,170.6c0,0.2,0.2,0.5,0.5,0.5c0.3,0,0.5-0.2,0.5-0.5c0-0.3-0.2-0.5-0.5-0.5
		C421.8,170.1,421.6,170.3,421.6,170.6z"/>
	<path fill="#FED100" d="M425.7,158.2c0.1-1.5-1.1-3-4.1-4.8c-1.4-0.8-1.8-0.8-2.4-0.4c-1.3,0.9-1,1.5,0.9,2c1.4,0.3,2,0.8,3,2.5
		C424.5,160,425.5,160.2,425.7,158.2z"/>
</g>
</svg>
