<?xml version="1.0" encoding="utf-8"?>
<!-- Generator: Adobe Illustrator 17.1.0, SVG Export Plug-In . SVG Version: 6.00 Build 0)  -->
<!DOCTYPE svg PUBLIC "-//W3C//DTD SVG 1.1//EN" "http://www.w3.org/Graphics/SVG/1.1/DTD/svg11.dtd">
<svg version="1.1" id="flag-icon-css-tl" xmlns="http://www.w3.org/2000/svg" xmlns:xlink="http://www.w3.org/1999/xlink" x="0px"
	 y="0px" viewBox="0 0 640 480" enable-background="new 0 0 640 480" xml:space="preserve">
<g>
	<path fill="none" d="M0,267.9c-0.6,3.6-1,7.6-1,9.9c0,0.3,0.4,0.9,1,1.6V267.9z"/>
	<path fill="#CB000F" d="M438.6,217.6c3.1-2,3.8-2.2,7.9-2.2h4.6l3.1-3.1c3.8-3.9,5.5-4.4,14.6-4.4c6.9,0,7.1-0.1,10.6-2.1
		c4.5-2.7,10-3.8,14.8-2.9c1.9,0.3,6.5,0.6,10,0.6h6.5l6.6-4.9c15.1-11.2,20.9-14,31.8-15.3c3.6-0.5,6.7-1.1,6.9-1.4
		c2.3-3.4,5.2-6.3,11.3-11.1c3.9-3.2,9.4-7.7,12.2-10.2c2.7-2.4,6.4-5.3,8.2-6.4c2.4-1.3,4.3-3.3,7.2-7.2c2.9-3.9,5.4-6.4,9.3-9.4
		c3.9-2.9,6-4.9,7.2-7.1l1.7-3.1h3.3c3.2,0,3.4-0.1,7.9-4.2c2.5-2.3,6.4-5.8,8.7-7.8c2.3-2,4.2-3.8,4.2-4.1s-2.7-2.2-5.9-4.4
		c-4.9-3.2-6.4-3.9-8.5-3.9c-2.1,0-4.1-0.8-8.6-3.3l-5.9-3.2l-0.6-3.7c-0.3-2.1-0.6-3.9-0.7-3.9c-0.3-0.4-7.4,2.4-14.1,5.7l-6.8,3.2
		l-6.6-1.4c-3.7-0.7-7.9-1.4-9.5-1.4c-2.6,0-3.1-0.3-6.6-3.8l-3.9-3.8l-8.6-1.7c-4.8-0.9-9.5-1.9-10.6-2.1c-1.7-0.3-2.3,0-5,2.7
		c-1.7,1.7-5.9,5.4-9.3,8c-5.7,4.4-6.8,5-12.2,6.5c-3.2,0.9-7.4,2.1-9.2,2.6c-1.7,0.5-5.3,2.4-7.9,4.3c-5.3,3.8-5.5,3.9-14,2.7
		l-5.4-0.7l-5.3,2.7c-2.9,1.5-8.9,4.2-13.3,6c-4.4,1.9-10.8,5-14.2,7.1c-6.2,3.7-6.2,3.7-11,3.7h-4.9l-2.4-3.1c-2.2-3-2.6-3.2-8.7-5
		c-3.5-1.1-8.7-2.9-11.5-4.1c-4.9-2-5.4-2.1-12.6-2.1c-4.1,0-10.3,0.3-13.8,0.7l-6.4,0.7l-5.7,4.2c-3.1,2.3-9.8,6.5-15,9.3l-9.3,5
		h-7.5c-11.4,0-26.9,2.1-33.5,4.4l-5.5,1.9l-5.1-2.2c-6.9-2.9-13.1-4.9-25.4-8.2l-8.5-2.3c69.5,35,137,69,179,90.2
		C437.4,218.4,438,218,438.6,217.6z"/>
	<path fill="#F8C00C" d="M227.2,309.7l0.6,0.1l6,0.6l3.7-3.1l3.7-3.1l10.5-0.4c16-0.6,15.3-0.4,21.4-5.8c4.3-3.7,6.7-5.2,13.6-8.5
		c6.8-3.1,10.8-5.5,20.4-12.5l12-8.6l8.5-1.5c4.7-0.8,10-1.9,11.7-2.5c9.5-3,8.2-3,14.7-0.1l5.9,2.7l6.2-1.4
		c3.4-0.7,10.8-3.1,16.4-5.2c9.3-3.5,10.5-3.8,15.2-3.8c2.8,0,7.6-0.3,10.7-0.7l5.7-0.7l3.8-3.7c3.4-3.2,4.3-4.7,7.4-11.6
		c6.6-14.6,8.7-18.6,11.3-20.9c-42-21.2-109.5-55.2-179-90.2l-1.6-0.4l-6.3,2.1c-5.8,2-6.8,2.1-14.1,2.1h-8l-8.2,4.5
		c-6.5,3.5-9.3,4.7-13.6,5.5c-6.7,1.4-9,1.4-15.7,0c-0.2,0-0.4-0.1-0.6-0.1c68.7,52,129.7,98.2,129.7,98.2L227.2,309.7z"/>
	<path d="M2.8,282l3.8,3.2h5.5h5.5l2.7-3.9l2.7-3.9l6.2-0.7c3.4-0.4,7.5-1.3,9.1-2c2.7-1.2,3-1.6,4.6-5.9c0.9-2.5,1.9-4.8,2.2-5.1
		c0.2-0.3,3.4,1.6,6.9,4.1c3.6,2.6,8.2,5.7,10.3,7.1l3.9,2.5v6.9c0,5.7-0.2,7.7-1.6,11.5s-1.6,5.8-1.6,11.3v6.7h-4.9h-4.9l-6,4.7
		c-3.3,2.6-6.1,4.6-6.2,4.5c-0.1-0.1-1.3-1.6-2.7-3.3c-2.4-2.9-2.7-3.2-7.7-4.4c-5.2-1.3-5.2-1.3-10.8-0.1c-3.1,0.7-5.9,1.5-6.3,1.9
		c-1.2,1.2-3.2,7.3-4.3,13.5l-1.1,6l4,6l4,6l7.4,3.2l7.3,3.3v4.7c0,4.7,0,4.7,2.5,7.2c3.1,3,5,8.7,5,14.8c0,4.6,1.1,11.1,2,11.1
		c1,0,7-3.2,9.9-5.4c2.7-1.9,3.2-2.1,7.5-2.1c3.5,0,6-0.5,10.5-1.9c6.7-2.2,10-4.8,14.5-11.5c3.9-5.8,8.5-10.2,11.4-11
		c1.7-0.4,3.7-1.9,6.5-4.6c2.2-2.2,5.6-4.7,7.5-5.6c1.9-0.9,5.4-3.1,7.8-4.7c2.4-1.6,6.7-3.8,9.7-4.9c4.4-1.7,6.2-2,10.6-2h5.3
		l4.6-3.4c4.2-3,5.2-3.4,10.6-4.4c7.2-1.3,6.8-1.2,15-7.2l6.5-4.8l4.1,2l4,2l6-0.7c5.3-0.6,6.4-1,9.6-3.1c1.9-1.3,5.6-3.3,8.1-4.5
		c2.6-1.1,6.2-3,8.2-4.2l3.6-2.1l5.4,0.6l92.1-69c0,0-61-46.3-129.7-98.2c-4.6-0.9-4.9-0.9-6.3,0.2c-0.9,0.6-3.6,1.9-6,2.7
		c-3.9,1.3-4.8,1.4-8.4,0.8c-3.3-0.6-4.9-0.4-10.4,0.7c-5.9,1.2-7,1.7-11.2,4.5l-4.6,3.2l-4-0.6c-8.3-1.2-28.2,2.9-43.4,9l-5.5,2.2
		l-6.3-0.6c-6.3-0.6-6.4-0.6-10.9,1.2c-4.1,1.6-8.6,3.1-20.2,6.4l-3.5,1.1L45.5,187c-1.9,7.6-3.6,15.6-3.9,17.8
		c-0.2,2.2-1,5.8-1.7,8l-1.3,3.9l-7.2,4.5c-6.7,4.1-7.5,4.9-10.2,8.8c-1.6,2.4-4.2,7.2-5.9,10.6c-2.2,4.3-4.6,7.9-7.9,11.6
		c-2.8,3.2-5.2,6.6-5.9,8.5c-0.5,1.2-1.1,4-1.6,7.1v11.5C0.7,280.1,1.7,281.1,2.8,282z M79.9,224.6L76.8,169l37.7,40.7l51.9-23.7
		l-27.1,50.6l36.8,42.9H176l-56.9-12.7L90,316.4l-4.7-56L28.4,248L79.9,224.6z"/>
	<polygon fill="#FFFFFF" points="90,316.4 119.1,266.9 176,279.6 176.1,279.6 139.3,236.6 166.4,186 114.5,209.7 76.8,169 
		79.9,224.6 28.4,248 85.3,260.4 	"/>
</g>
</svg>
