<?xml version="1.0" encoding="utf-8"?>
<!-- Generator: Adobe Illustrator 17.1.0, SVG Export Plug-In . SVG Version: 6.00 Build 0)  -->
<!DOCTYPE svg PUBLIC "-//W3C//DTD SVG 1.1//EN" "http://www.w3.org/Graphics/SVG/1.1/DTD/svg11.dtd">
<svg version="1.1" id="flag-icon-css-tm" xmlns="http://www.w3.org/2000/svg" xmlns:xlink="http://www.w3.org/1999/xlink" x="0px"
	 y="0px" viewBox="0 0 640 480" enable-background="new 0 0 640 480" xml:space="preserve">
<g>
	<path fill="#28AE66" d="M1.3,68.5c-0.1,0.2,0.7,1,1.9,1.8c0.6,0.4,1,0.7,1.3,1.1v-5.7C2.6,67.3,1.4,68.4,1.3,68.5z"/>
	<polygon fill="#28AE66" points="4.5,82.1 4.3,82.9 4.5,83.1 4.5,82.3 	"/>
	<path fill="#28AE66" d="M630.5,282.7c-1.7,0-4.2-0.9-8.2-3.1c-3.2-1.7-6.7-3.2-7.7-3.5c-1.1-0.2-2.6-1.1-3.4-1.9
		c-1.7-1.9-4.7-2.7-9.4-2.7c-3.1,0-3.7,0.2-5,1.9c-0.9,1-2,1.9-2.4,1.9c-3.2,0-14.6-6-28.2-14.9c-4.4-2.9-11.3-6.8-15.3-8.7
		c-7-3.4-11.6-6.5-20-14l-4.1-3.7l-3.5,1.1l-3.4,1.1l-11.3-6.8c-10.8-6.5-11.4-7-15.3-12c-3.7-4.7-4.7-5.4-9.5-7.9
		c-2.9-1.5-6.3-3.7-7.5-5c-2.4-2.6-20.4-14.6-28.8-19.3c-4.8-2.7-5.4-3.2-6.9-6.3c-1.1-2.3-1.7-4.4-1.7-6.5c0-2.3-0.4-3.7-1.9-6
		c-1.1-1.7-2.1-4.2-2.2-5.5c-0.2-1.3-0.9-3.7-1.6-5.4c-1.1-2.5-1.7-3.1-4.5-4.1c-2.9-1.1-3.2-1.4-3.4-3.2c-0.1-1.2-1-3.2-1.9-4.6
		c-3.7-5.5-6.3-11.4-6.3-14.8c0-1.8-0.5-4.7-1.1-6.3c-2.4-6.7-12.6-16-17.6-16c-1.2,0-3.5-0.4-4.9-0.9c-1.4-0.5-2.7-0.9-2.8-0.9
		c-0.1,0-0.4,1.2-0.6,2.7c-0.6,3.8-2.6,5.2-6.2,4.1c-1.4-0.4-3.6-1.4-4.9-2.2c-2.8-1.8-3.1-1.8-4.5-0.2c-1.1,1.1-1.2,1.1-3.1,0.2
		c-3.2-1.7-8.3-2.1-12.1-0.7c-6.5,2.2-11.8,0.3-22.3-8c-2.3-1.9-2.6-2.3-2.2-4c0.2-1.1,0.9-3.2,1.6-4.7l1.2-2.7l-1.9-4.4
		c-2.2-4.9-2.3-5.7-1-6.8c0.8-0.7,1.4-0.6,3.5,0.6c1.4,0.8,2.7,1.3,2.8,1.1c0.2-0.2,0.1-1.3-0.1-2.5c-0.4-1.8-1.2-2.7-5.2-5.6
		c-2.7-1.9-5.9-3.7-7.2-4.2l-2.5-0.8l1.4-1.1c0.7-0.6,1.7-1.2,2-1.3c0.4-0.1,0.3-1.1-0.1-2.6c-0.6-2.1-0.6-2.7,0.4-4.4
		c1-1.9,1-2.2,0.2-3.9c-1.7-3.3-5.6-5.7-11.5-7.1c-3-0.7-3.6-0.6-6.7,0.7l-3.4,1.4l-5.4-1.9l-5.5-1.8L297,42
		c-0.1-2.1-0.7-3.1-2.9-5.2c-2.4-2.3-2.9-2.6-4-2c-0.7,0.4-2.5,0.7-4,0.7c-2.6,0-2.9-0.2-10.1-7.5c-4.1-4.1-7.7-7.5-7.8-7.5
		c-0.2,0-0.6,1.1-0.8,2.4c-0.2,1.7-0.7,2.6-1.9,3.1c-1.9,0.9-5.9,0.9-9.3,0.1c-2.4-0.6-2.6-0.4-4.8,1.7c-2.9,2.8-2.4,4.3,1.6,4.9
		c2.5,0.4,2.9,0.7,3.7,2.7c0.5,1.2,0.9,2.3,0.8,2.4c-0.1,0.1-1.4-0.3-2.9-0.8c-3.5-1.2-5.5-1.2-10.8,0.4c-2.5,0.7-4.5,1.4-4.6,1.4
		c-0.1,0.1,0.1,1.2,0.5,2.4c0.5,1.9,0.4,2.8-1,6c-0.9,2.1-1.6,4.4-1.6,5c0,0.7-0.1,1.2-0.1,1.2c-0.1,0-2.3,0.4-5.4,1l0.1,0.2
		l-0.2-0.2c-1.2,0.2-2.5,0.5-3.9,0.8c-5.1,1-10,1.9-10.8,1.9c-2,0-6.3,3.7-8.5,7c-1.6,2.6-2,2.8-5.2,3.3c-3.2,0.5-3.5,0.7-4.9,3.1
		c-1.2,2.1-1.4,3.4-1.4,8.1c0,0,0,0,0,0l0.1,0l1.7-5.2l1.8,5.2h5.3l-4.2,3.4l1.6,5.2l-4.3-3.1l-1.2,0.9c0.3,0.7,0.8,1.4,1.5,2.5
		c1.3,2,2.2,4,2.2,5.2c0,1.1,0.3,3.2,0.7,4.7c0.6,2.1,1.1,2.9,2.2,3.1l1.5,0.4l-1.7,1.7c-0.9,0.9-2.2,2.3-2.8,3.1l-1,1.5l-3.9-1.1
		c-2.7-0.7-7.3-1.2-14.5-1.6c-6.5-0.3-13.1-1-17.1-1.8c-1.9-0.4-3.7-0.7-5.4-0.9v1v18.8v3.5v17.8l0.5-0.6v3.4l-0.5,0.6v19.4l0.4-1
		v-0.2h0.1l-0.1,0.2v20.4l-0.4-0.9v19.1l0.5,0.6v3.4v0.1v-0.1l-0.5-0.6v17.8v3.5v18.8v20.6v18.8v3.4v1.4c3.4-0.6,5-1.9,5.6-4.3
		c0.6-1.9,1.4-2.9,3.8-4.5c2.2-1.4,3.5-1.9,4.4-1.6c0.7,0.2,3.9,0.4,7.2,0.5c5.1,0.1,6.3,0.3,9.1,1.7c1.7,0.9,4.2,1.9,5.5,2.1
		c2,0.4,2.6,0.2,4.7-1.5c1.4-1.1,3.1-1.9,4.2-1.9c1.6,0,2.1,0.5,4.4,5.3c1.4,2.9,2.6,6,2.6,6.8c0,4.3,4.4,6.8,17.1,9.6
		c4.5,1,11,2.9,14.4,4.2l6.2,2.4l0.7,3c0.9,3.4,1.1,3.6,3.9,4.6c3.6,1.2,7.3,0.9,10.1-0.9l2.6-1.7l3.4,1.1c2.8,0.9,3.8,1,6.2,0.4
		c2.8-0.7,3.1-0.7,6.3,1.2c1.9,1.1,4.9,2.6,6.7,3.2c1.8,0.6,4.3,1.8,5.6,2.7c1.7,1.2,3.2,1.6,5.3,1.6h3v3.9c0,3.4,0.4,4.7,2.7,9.2
		c2.3,4.7,3,5.5,5.4,6.7c1.6,0.8,3.3,2,3.9,2.7c0.9,1.1,1.7,1.2,6.1,1.1l5-0.1l1.4,2.1c1.1,1.6,2.1,2.2,4.2,2.6
		c3.7,0.7,4.8,1.8,7,6.7c2.8,6.2,5.4,9.9,7.7,10.8c1.2,0.5,2.3,1.6,2.7,2.7c0.4,1,1.4,2.1,2.1,2.2c0.7,0.2,8.8,0.4,18,0.4h16.6
		l0.9,3.2c0.5,1.8,1.1,5.8,1.3,8.9c0.2,3.1,0.7,7.5,1.2,10c0.8,4,0.7,4.9-0.5,11.5c-1.4,7-1.4,7.1-0.1,7.9c3.7,2.4,3.6,2.3,3.8,8
		c0.1,3,0.4,6.2,0.6,7.2c0.4,1.6,0.6,1.8,3.1,1.8c2.5,0,2.9,0.2,6,3.9c4.2,5.1,6.5,6.6,11.1,7.7c3.5,0.8,4.3,0.7,8.3-0.2
		c6.2-1.6,9.8-0.9,11.7,2.1c0.7,1.2,2.2,2.6,3.2,3.1c3.3,1.7,4.7,3.4,5.7,6.8c0.6,1.9,1.2,3.4,1.5,3.4c0.3,0,2.8-2.2,5.5-5l5-5
		l3.1,1.6c1.9,1,4.2,1.6,5.9,1.6c2.6,0,3.1-0.3,8.2-5.1c3.1-2.9,6.8-5.9,8.5-6.7c2.7-1.5,2.9-1.7,2.9-4.1c0-1.4,0.2-3.9,0.4-5.4
		c0.4-2.7,0.5-2.9,3.2-3.6l2.7-0.7l-3.1-3.2c-1.9-1.9-3.3-4-3.5-5.2l-0.4-2l2.8,0.4c2.4,0.4,3.8,0.1,8.7-1.9c3.2-1.2,7.2-3.1,9-4.1
		c1.7-1,4-1.8,5-1.8c1,0,3.4-0.6,5.2-1.4c1.9-0.7,5.5-1.5,8.1-1.7c5-0.3,4.9-0.2,4.2-4.4c-0.3-1.4,0.1-1.7,3.5-3.3
		c2.1-0.9,4.6-1.7,5.6-1.7c1.1,0,1.7-0.3,1.7-0.9c0-0.5,1.2-1.4,2.7-2.1c2-0.9,3.5-2.3,5.5-5.2c5.9-8.4,6.1-8.9,6.1-16.6v-6.9l3.1-7
		c2.4-5.5,3.1-7.7,3.1-10.3c0-1.8,0.2-4.5,0.4-6.2c0.4-2.9,0.4-2.9,5.8-5.7c5-2.7,5.6-2.9,9.6-2.8c2.3,0.1,5.7-0.2,7.5-0.8
		c1.7-0.5,5.1-1.2,7.3-1.6l4.2-0.7l1.3-4.4c0.7-2.5,1.3-5.2,1.3-5.9c0-1.9,2.9-5.9,5-7.2c1.6-0.9,1.7-0.9,2.6,0.4
		c0.6,0.9,2.3,1.9,4.5,2.6c2.1,0.6,5.1,1.9,6.9,2.9c3.7,2.1,11,3.8,15.1,3.7c4.4-0.1,6.4-1.6,7-5.3c0.4-2.1,0.2-3.9-0.2-5.5
		c-0.5-1.8-0.5-3.2,0-5.6c0.5-2.1,0.6-4,0.2-5.4c-0.7-2.9,0.2-7.3,1.9-9.3c3.1-3.4,3.1-3.5,1.7-6C636.1,283.8,634,282.7,630.5,282.7
		z M249.8,65.2l1.8-5.2l1.7,5.1l5.3,0.1l-4.1,3.3l1.6,5.3l-4.4-3.1l-4.2,3.1l1.4-5.2l-4.2-3.3L249.8,65.2z M225.6,72l1.7-5.2L229,72
		h5.3l-4.2,3.4l1.6,5.2l-4.3-3.1l-4.3,3.2l1.5-5.3l-4.2-3.3L225.6,72z M223.8,97.7l1.7-5.2l1.8,5.2h5.3l-4.1,3.4l1.6,5.2l-4.4-3.1
		l-4.3,3.2l1.5-5.3l-4.2-3.2L223.8,97.7z M290.8,121.7c-20.6,27.5-66.2,26.6-84,7.2c26.2,12.6,57.3,0,68.5-17.4
		c11.6-16.3,13-43.6-6.9-68.6C299.4,68.5,306.3,97.7,290.8,121.7z"/>
	<path fill="#FFFFFF" d="M268.4,42.8c20,25,18.6,52.3,6.9,68.6c-11.3,17.4-42.4,30-68.5,17.4c17.8,19.4,63.4,20.3,84-7.2
		C306.3,97.7,299.4,68.5,268.4,42.8z"/>
	<path fill="#FFFFFF" d="M231.5,54.7c-0.1,0-0.1,0-0.2,0l0.2,0.2L231.5,54.7z"/>
	<path fill="#FFFFFF" d="M202.8,87.4l-1.6-5.2l4.2-3.4h-5.3l-1.8-5.2l-1.7,5.2l-0.1,0c0,3.6,0,4.9,0.7,6.3l1.2-0.9L202.8,87.4z"/>
	<polygon fill="#FFFFFF" points="223.1,80.6 227.4,77.4 231.7,80.5 230.1,75.4 234.3,72 229,72 227.3,66.8 225.6,72 220.3,72.1 
		224.6,75.4 	"/>
	<polygon fill="#FFFFFF" points="221.3,106.3 225.6,103.1 230,106.2 228.4,101.1 232.5,97.7 227.3,97.7 225.5,92.5 223.8,97.7 
		218.6,97.9 222.8,101.1 	"/>
	<polygon fill="#FFFFFF" points="247.3,73.7 251.6,70.6 256,73.7 254.4,68.4 258.5,65.2 253.3,65.1 251.6,60 249.8,65.2 244.5,65.3 
		248.8,68.5 	"/>
	<polygon fill="#CA3745" points="126.3,214.2 126.3,219.5 129.6,216.8 	"/>
	<polygon fill="#CA3745" points="126.3,222.8 126.3,228.1 129.6,225.5 	"/>
	<polygon fill="#CA3745" points="126.3,205.5 126.3,210.9 129.6,208.2 	"/>
	<polygon fill="#CA3745" points="153.7,238.3 149.9,243.4 151.2,245.2 153.8,241.7 155,243.4 146,255.4 144.8,253.7 146.1,252 
		143.5,248.7 137.1,257.2 143.4,265.8 146.1,262.3 144.8,260.5 146.1,258.8 155.1,270.8 153.8,272.5 151.2,269.2 149.9,270.8 
		153.8,276 152.5,277.7 158.8,286.3 158.8,267.5 157.5,264 157.5,258.8 153.7,258.8 151.2,257.2 153.8,255.5 157.5,255.5 
		157.5,250.3 158.8,246.8 158.8,228 152.5,236.5 	"/>
	<polygon fill="#CA3745" points="154.2,156 150.3,161.2 151.6,162.8 154.2,159.4 155.5,161.2 146.5,173.2 145.2,171.4 146.5,169.7 
		143.9,166.5 137.5,174.8 143.8,183.5 146.5,180 145.2,178.3 146.5,176.5 155.5,188.5 154.2,190.3 151.6,186.8 150.4,188.5 
		154.2,193.7 152.9,195.5 158.8,203.4 158.8,184.2 157.8,181.7 157.8,176.5 154.1,176.5 151.4,174.8 154.1,173.2 158,173.2 158,168 
		158.8,165.8 158.8,146.3 152.9,154.3 	"/>
	<polygon fill="#CA3745" points="69,186.1 74.5,186.1 71.8,183.9 	"/>
	<path fill="#CA3745" d="M32.6,210.3c1,0.2,1.8,0.4,2.5,0.6l-1.2-1.3L32.6,210.3z"/>
	<path fill="#CA3745" d="M86.4,322.8c1.9-0.7,3.3-2.1,4.2-4.1h-0.3L86.4,322.8z"/>
	<path fill="#CA3745" d="M68.1,321.3l2.5,2.6H58.2l2.5,2.6h12.4l2.4-2.6l-4.9-5.3H49.3c0.2,2.1,0.4,3.9,0.4,4.8
		c0,2.7,0.2,3.4,1.1,3.6c2.5,0.7,4.7,1.2,6.9,1.5l-6.9-7.3H68.1z"/>
	<path fill="#CA3745" d="M153.8,108l-2.6-3.5l-1.2,1.8l3.8,5.1l-1.3,1.8l6.4,8.5v-18.8l-0.4-1c-2.4-0.3-4.7-0.4-6.9-0.3l3.5,4.7
		L153.8,108z"/>
	<path fill="#CA3745" d="M28.4,206.8v-1.5h2.8l2.6,1.4l2.6-2.8H37v-6h-2.2v-2H37v-0.8c-0.7,0.3-1.6,0.4-3.6,0.4
		c-3.5,0-3.7-0.1-3.7-1.6c0-0.9,0.3-2.1,0.7-2.8c1.5-2.8,0-2.2-4.1,1.5c-3.1,2.8-4.9,5-6.1,7.7l-1.7,3.7l2.4,6.2l2.5,6.2v-4.2
		l0.1-4.2l2.1,0.6c0.7,0.2,1.9,0.5,3.1,0.8l2.6-1.3L28.4,206.8z"/>
	<polygon fill="#CA3745" points="88.9,186.1 94.3,186.1 91.6,183.9 	"/>
	<polygon fill="#CA3745" points="79,186.1 84.4,186.1 81.7,183.9 	"/>
	<polygon fill="#CA3745" points="37,210.7 37,205.7 33.9,208.2 	"/>
	<path fill="#CA3745" d="M9.7,159.4l2.5,3.4l1.3-1.7l-3.8-5.2l1.2-1.7l-4.3-5.8c-0.5,2.2-0.4,3.5,0.1,6.2c0.4,2.3,0.7,6.4,0.7,9.2
		c0,2.9,0.2,5.2,0.7,5.4c0.4,0.2,1.8,2.1,3.2,4.2l0.9,1.3l0.2,0.2l-0.1,0.1l1.5,2.3l-0.4-3.4c-0.4-3.1-0.4-3.3,0.7-2.8
		c0.2,0.1,1,0.2,2,0.3l-7.7-10.2L9.7,159.4z"/>
	<path fill="#CA3745" d="M158.8,289.7l-8.8-12l1.2-1.7l-3.8-5.2l2.6-3.5l-2.6-3.4l-3.8,5.2l-9.1-11.8l9.1-12.2l3.8,5.2l2.6-3.5
		l-2.5-3.5l3.8-5.1l-1.2-1.8l8.9-12v-17.8l-8.5-11.4l1.2-1.7l-3.8-5.2l2.5-3.4l-2.6-3.5l-3.8,5.2l-9.1-11.8l9.1-12.2l3.8,5.2
		l2.5-3.5l-2.5-3.4l3.8-5.2l-1.3-1.7l8.5-11.4v-17.8l-8.9-12l1.2-1.8l-3.8-5.1l2.6-3.5l-0.8-1c-1.4,0.2-2.8,0.4-4.2,0.7l-1.5,2
		l-1-1.3c-7.1,1.8-7.2,1.6-9.7-0.9c-7.3-7.2-9.8-10.8-11.8-16.8c-1.6-4.9-2.4-6.2-4.4-7.8c-1.3-1.1-2.8-2.4-3.4-2.9h-3.8l-10.7,5.7
		h-34l-10.7-5.7H41.3L35,69.1v-5.8l-6.4-7.6v-8.2c-3.3,0.7-4.3,1.5-15.3,10.7c-2.3,1.9-4.4,3.8-6.2,5.3l6.4,8.6l-1.3,1.7l3.8,5.2
		l-2.5,3.5l2.5,3.4l3.9-5.1l9.1,12.2L20,104.6l-3.8-5.2l-1,1.3c0.4,1.8,1,3.9,1.5,5.9c2.3,8.6,2.3,10.5-0.1,13.9
		c-1.6,2.2-2.1,3.9-2.6,8.2c-0.6,4.7-0.9,5.7-3.1,8.5c-1.6,2.1-2.8,4.9-3.7,8.2c0,0.1-0.1,0.3-0.1,0.4l6.3,8.4l-1.3,1.7l3.8,5.2
		l-2.5,3.4l2.5,3.5l3.8-5.2l7.2,9.7c6.1,1,12,2.9,12,4.1c0,0.5-0.6,2.3-1.2,4c-1.6,4.1-1.6,7.7,0.1,9.9c1.2,1.7,1.2,1.9,0.3,3.4h1v2
		H37v0.1h10.7v-8h-2.3l0.1-2h2.2v0.1h19.1V186l3.4-2.1l-1.7-1.9V180h1.7l1.6,2l1.7-2h1.7v2l-1.7,2.1l3.3,1.9l3.4-1.9l-1.7-2.1v-2
		h1.7l1.6,2l1.7-2H85v2l-1.6,2.1l3.3,1.9l3.3-1.9l-1.6-2.1v-2h1.6l1.7,2l1.7-2h1.6v2l-1.6,2.1l3.3,1.9v0.2h19.1V186h-2.2v-2h2.2v2h2
		v2h-2v8h10.6h2.2v1.9h-2.2v6h0.6l2.7,2.8l2.6-1.4h2.6v1.5l-2.6,1.4l2.6,1.4v1.5h-2.6l-2.6-1.5l-2.7,2.9l2.7,2.8l2.6-1.3h2.6v1.4
		l-2.6,1.4l2.6,1.4v1.5h-2.6l-2.6-1.5l-2.7,2.9l2.7,2.8l2.6-1.4h2.6v1.5l-2.6,1.4l2.6,1.5v1.4h-2.6l-2.6-1.4l-2.7,2.8h-0.6v6.1h2.2
		v1.9h-2.2v-0.1h-10.6v8.1h2v2h-2v2h-2.2v-2h2.2v-0.1H96.6v0.1l-3.3,2l1.6,2.1v1.9h-1.6l-1.7-1.9l-1.7,1.9h-1.6v-2l1.6-2.1l-3.3-1.9
		l-3.3,2l1.6,2.1v1.9h-1.6l-1.7-1.9l-1.6,1.9h-1.7v-2l1.7-2.1l-3.4-1.9l-3.3,2l1.7,2.1v1.9h-1.7l-1.7-1.9l-1.6,1.9h-1.7v-2l1.7-2.1
		l-3.4-1.9v-0.1H55.2c-0.6,1.1-1.3,2.1-2.1,3c-2.3,2.7-2.7,3.7-3.2,7.5c-0.3,2.4-0.4,5.9-0.1,7.8c0.4,2.9,0.5,5.6,0.4,8.5h20.4
		l4.9-5.1l-2.4-2.6H60.7l-2.5,2.6h12.4l-2.5,2.5H50.8l7.4-7.8h17.4l5,2.6l4.9-2.6h17.3l7.4,7.8H92.9l-2.4-2.5h12.3l-2.5-2.6H88.1
		l-2.7,2.6l5,5.1H120v5.3h7.4v5.1h7.5c0,0,0,3,0,4.3c0.3,0.1,0.7,0.2,1,0.3c1.4,0.5,5.3,1.1,8.7,1.4c6.7,0.6,11.2,0.7,14.2,0.3
		L158.8,289.7L158.8,289.7z M49.7,186h-1.9l-0.1-2h2V186z M126.3,195.9h-2l-0.1-2h2.2V195.9z M122.9,154v3.2h-13.7v9.5H93.7v4.8
		H69.8v-4.8H54.3v-9.5H40.6V154h-12v-31.8h12V119h13.6v-9.6h15.5v-4.8h24v4.8h15.5v9.6h13.6v3.1h12V154H122.9z M126.3,239.8h-2
		l-0.1-2h2.2V239.8z"/>
	<polygon fill="#CA3745" points="94.1,247.7 89.2,247.7 91.6,249.7 	"/>
	<path fill="#CA3745" d="M17.4,169.7l1.3,1.8l-0.1,0.2c1.1,0.1,2.2,0.2,3.4,0.3c0.7,0,1.5,0.1,2.2,0.2l-4.3-5.6L17.4,169.7z"/>
	<polygon fill="#CA3745" points="84.3,247.7 79.1,247.7 81.7,249.8 	"/>
	<polygon fill="#CA3745" points="74.3,247.7 69.2,247.7 71.8,249.8 	"/>
	<path fill="#CA3745" d="M18.7,96l-1.3,1.7l2.6,3.6l6.4-8.6l-6.5-8.3l-2.5,3.2l1.3,1.8l-1.3,1.7l-9-12l1.3-1.7l2.5,3.4l1.3-1.7
		l-3.8-5.2l1.2-1.7l-5.4-7.3c-0.3,0.3-0.7,0.6-1,0.8v5.7c0.7,0.8,0.9,1.6,1.2,3.2c0.1,1.6-0.1,4-0.6,5.5l-0.6,2v0.2h0.1v0.2l0.4,1.1
		l2.2,2.4c4.7,5.2,6.8,8.4,7.2,11.3c0,0.2,0.1,0.4,0.1,0.6l2.7-3.7L18.7,96z"/>
	<polygon fill="#CA3745" points="4.5,82.3 4.5,83.1 4.6,83.2 4.6,82.6 	"/>
	<path fill="#FAAE29" d="M20,104.6l9.1-11.8L20,80.6l-3.9,5.1l-2.5-3.4l2.5-3.5l-3.8-5.2l1.3-1.7l-6.4-8.6c-0.6,0.5-1.1,0.9-1.6,1.4
		l5.4,7.3l-1.2,1.7l3.8,5.2l-1.3,1.7l-2.5-3.4l-1.3,1.7l9,12l1.3-1.7l-1.3-1.8l2.5-3.2l6.5,8.3l-6.4,8.6l-2.6-3.6l1.3-1.7l-1.3-1.7
		L14.6,98c0.1,0.7,0.4,1.7,0.6,2.8l1-1.3L20,104.6z"/>
	<polygon fill="#FAAE29" points="4.6,82.3 4.5,82.3 4.6,82.6 	"/>
	<polygon fill="#FAAE29" points="4.6,83.2 5.1,83.7 4.6,82.6 	"/>
	<path fill="#FAAE29" d="M16.1,167.9l-2.5-3.5l2.5-3.4l-3.8-5.2l1.3-1.7l-6.3-8.4c-0.3,1-0.5,1.8-0.6,2.5l4.3,5.8l-1.2,1.7l3.8,5.2
		l-1.3,1.7l-2.5-3.4l-1.3,1.8l7.7,10.2c0.7,0.1,1.6,0.2,2.5,0.3l0.1-0.2l-1.3-1.8l2.5-3.2l4.3,5.6c1,0.1,1.9,0.2,2.9,0.4l-7.2-9.7
		L16.1,167.9z"/>
	<polygon fill="#FAAE29" points="12.1,174.7 12.2,174.9 12.3,174.8 	"/>
	<path fill="#FAAE29" d="M147.3,106.3l3.8,5.1l-1.2,1.8l8.9,12v-3.5l-6.4-8.5l1.3-1.8l-3.8-5.1l1.2-1.8l2.6,3.5l1.3-1.7l-3.5-4.7
		c-0.8,0-1.6,0.1-2.4,0.2l0.8,1L147.3,106.3z"/>
	<path fill="#FAAE29" d="M144.9,102.6c-0.2,0.1-0.4,0.1-0.7,0.1c-0.7,0.2-1.3,0.3-1.8,0.5l1,1.3L144.9,102.6z"/>
	<path fill="#FAAE29" d="M158.8,102c-0.1,0-0.3,0-0.4,0l0.4,1V102z"/>
	
		<line fill="none" stroke="#FAAE29" stroke-width="0" stroke-linecap="round" stroke-linejoin="round" x1="159.3" y1="207.5" x2="159.3" y2="207.4"/>
	<polygon fill="#FAAE29" points="151.6,156 147.8,161.2 150.3,164.5 147.8,168 143.9,162.8 134.8,175 143.9,186.8 147.7,181.7 
		150.3,185.2 147.8,188.5 151.5,193.7 150.3,195.4 158.8,206.8 159.3,207.4 159.3,204 158.8,203.4 152.9,195.5 154.2,193.7 
		150.4,188.5 151.6,186.8 154.2,190.3 155.5,188.5 146.5,176.5 145.2,178.3 146.5,180 143.8,183.5 137.5,174.8 143.9,166.5 
		146.5,169.7 145.2,171.4 146.5,173.2 155.5,161.2 154.2,159.4 151.6,162.8 150.3,161.2 154.2,156 152.9,154.3 158.8,146.3 
		159.3,145.7 159.3,142.3 158.8,142.9 150.3,154.3 	"/>
	<polygon fill="#FAAE29" points="159.2,164.5 159.2,164.8 159.3,164.5 	"/>
	<polygon fill="#FAAE29" points="158,173.2 154.1,173.2 151.4,174.8 154.1,176.5 157.8,176.5 157.8,181.7 158.8,184.2 159.2,185.2 
		159.2,164.8 158.8,165.8 158,168 	"/>
	<polygon fill="#FAAE29" points="151.2,238.3 147.4,243.4 149.9,246.8 147.3,250.3 143.5,245.2 134.4,257.3 143.5,269.2 147.3,264 
		149.9,267.4 147.3,270.8 151.2,276 149.9,277.7 158.8,289.7 158.8,289.7 158.8,286.3 152.5,277.7 153.8,276 149.9,270.8 
		151.2,269.2 153.8,272.5 155.1,270.8 146.1,258.8 144.8,260.5 146.1,262.3 143.4,265.8 137.1,257.2 143.5,248.7 146.1,252 
		144.8,253.7 146,255.4 155,243.4 153.8,241.7 151.2,245.2 149.9,243.4 153.7,238.3 152.5,236.5 158.8,228 158.8,224.5 149.9,236.5 
			"/>
	<polygon fill="#FAAE29" points="157.5,255.5 153.8,255.5 151.2,257.2 153.7,258.8 157.5,258.8 157.5,264 158.8,267.5 158.8,246.8 
		157.5,250.3 	"/>
	<path fill="#CA3745" d="M127.4,284.8v-5.1H120v-5.3H90.4l-5-5.1l2.7-2.6h12.3l2.5,2.6H90.6l2.4,2.5h17.3l-7.4-7.8H85.5l-4.9,2.6
		l-5-2.6H58.2l-7.4,7.8h17.3l2.5-2.5H58.2l2.5-2.6h12.4l2.4,2.6l-4.9,5.1H50.2c0,0.9-0.1,1.8-0.2,2.7h20.7l9.9-7.8l9.8,7.8h27.2v5.3
		h7.4v5.1h7.5v1.4c1,0,1.7,0.1,2.4,0.2c0-1.3,0-4.3,0-4.3H127.4z"/>
	<path fill="#CA3745" d="M80.6,324l-9.9-7.9H49c0.1,0.9,0.2,1.7,0.3,2.6h21.3l4.9,5.3l-2.4,2.6H60.7l-2.5-2.6h12.4l-2.5-2.6H50.8
		l6.9,7.3c2.2,0.3,4.5,0.5,7,0.5c5.9,0.1,6.1,0,11.2-2.6c3-1.6,6.5-2.9,8.1-3.1c0.9-0.1,1.7-0.3,2.4-0.6l3.9-4.1h0.3
		c0.3-0.7,0.6-1.6,0.8-2.5h-1L80.6,324z"/>
	<polygon fill="#28AE66" points="58.2,297.9 58.3,297.9 58.3,295.3 63.2,295.3 63.2,297.9 63.3,297.9 63.3,295.3 58.2,295.3 	"/>
	<rect x="102.7" y="295.3" fill="#28AE66" width="0.1" height="2.6"/>
	<path fill="#28AE66" d="M125.1,287.5v-5.1h-7.4v-5.3H90.5l-9.8-7.8l-9.9,7.8H50c-0.2,2.5-0.6,5.1-1.2,8.1
		c-1.9,9.5-2.1,17.7-0.3,27.7c0.2,1,0.3,2.1,0.5,3.2h21.7l9.9,7.9l9.8-7.8h1c0.4-1.7,0.6-3.6,0.6-5.8c0-2.7,0.1-2.8,2.7-4
		c1.6-0.7,2.6-1.5,3.5-2.7l-3-3.2h0.1l-0.1-2.5h-2.4v-2.6h2.5l-0.1-2.6h10v2.6h2.4v1.2c1.5-0.9,3.1-2,4.3-2.8l3.7-2.9l8.9-1.1
		c4-0.5,6.3-0.7,7.9-0.8v-1.4H125.1z M50.9,279.6h14.8l-14.8,13V279.6z M65.7,292.7h-9.8l4.9-5.2L65.7,292.7z M50.9,313.5v-13
		l14.8,13H50.9z M68.1,297.9h-2.4v2.6h-0.1l-4.9,5.2l-4.8-5.2h-0.1v-2.6h-2.4v-2.6h2.4v-2.6h9.9v2.6h2.4V297.9z M87.9,311h-2.5v2.6
		h0l-5,5.2l-5-5.2h0.1V311h-2.5v-2.6h14.9V311z M75.5,305.7l5-5.2l5,5.2H75.5z M85.4,305.8v2.5h-9.8v-2.5H85.4z M87.9,284.9h-2.5
		v2.5h0l0,0v0.1h0l-4.9,5.2l-5-5.2h0.1v-2.5h-2.5v-2.6h2.5v-2.6h-0.1l5-5.3l4.9,5.3h0v0l0,0h0v2.6h2.5V284.9z M95.3,292.7l5-5.2
		l5,5.2H95.3z M110.2,292.7l-14.9-13h14.9V292.7z"/>
	<rect x="97.8" y="295.3" fill="#28AE66" width="0.1" height="2.6"/>
	<path fill="#CA3745" d="M95.4,300.5h-0.1l3,3.2c0.2-0.3,0.4-0.6,0.6-1c0.5-0.9,1-1.6,1.7-2.2L95.4,300.5L95.4,300.5z"/>
	<polygon fill="#CA3745" points="60.7,305.7 65.6,300.5 55.9,300.5 	"/>
	<polygon fill="#CA3745" points="50.9,279.6 50.9,292.7 65.7,279.6 	"/>
	<polygon fill="#CA3745" points="65.7,292.7 60.7,287.4 55.8,292.7 	"/>
	<polygon fill="#CA3745" points="50.9,313.5 65.7,313.5 50.9,300.5 	"/>
	<polygon fill="#CA3745" points="95.3,292.7 105.2,292.7 100.3,287.4 	"/>
	<polygon fill="#CA3745" points="110.2,292.7 110.2,279.6 95.3,279.6 	"/>
	<polygon fill="#FAAE29" points="85.4,287.4 85.4,287.4 85.4,287.4 	"/>
	<polygon fill="#FAAE29" points="85.4,279.7 80.5,274.4 75.5,279.7 75.6,279.7 75.6,279.7 	"/>
	<polygon fill="#FAAE29" points="85.4,279.7 85.4,279.7 85.4,279.7 	"/>
	<polygon fill="#FAAE29" points="75.6,287.4 75.5,287.4 80.5,292.7 85.4,287.5 75.6,287.5 	"/>
	<polygon fill="#FAAE29" points="80.5,300.5 75.5,305.7 85.4,305.7 	"/>
	<polygon fill="#FAAE29" points="75.5,313.5 80.5,318.7 85.4,313.5 85.4,313.5 75.6,313.5 	"/>
	<path fill="#FAAE29" d="M97.8,295.3L97.8,295.3h5h0.1v0h2.5v-2.6h-10l0.1,2.6L97.8,295.3L97.8,295.3z M103.9,293.2
		c0.3,0,0.6,0.3,0.6,0.7s-0.3,0.7-0.6,0.7s-0.6-0.3-0.6-0.7S103.5,293.2,103.9,293.2z M96.6,294.5c-0.3,0-0.6-0.3-0.6-0.7
		s0.3-0.7,0.6-0.7s0.6,0.3,0.6,0.7S96.9,294.5,96.6,294.5z"/>
	<path fill="#CC0000" d="M97.9,295.3v2.6h4.9v-2.6H97.9z M100.2,297.2c-0.3,0-0.6-0.3-0.6-0.7s0.3-0.7,0.6-0.7s0.6,0.3,0.6,0.7
		S100.6,297.2,100.2,297.2z"/>
	<path fill="#CC0000" d="M58.3,295.3v2.6h4.9v-2.6H58.3z M60.8,297.4c-0.3,0-0.6-0.3-0.6-0.7s0.3-0.7,0.6-0.7s0.6,0.3,0.6,0.7
		S61.1,297.4,60.8,297.4z"/>
	<path fill="#990000" d="M85.4,279.7L85.4,279.7L85.4,279.7L85.4,279.7l-9.8,0v0v2.6h9.8V279.7z M76.8,281.6c-0.3,0-0.6-0.3-0.6-0.7
		s0.3-0.7,0.6-0.7s0.6,0.3,0.6,0.7S77.1,281.6,76.8,281.6z M84.2,281.6c-0.3,0-0.6-0.3-0.6-0.7s0.3-0.7,0.6-0.7
		c0.3,0,0.6,0.3,0.6,0.7S84.5,281.6,84.2,281.6z"/>
	<path fill="#990000" d="M75.6,287.4L75.6,287.4l9.8,0.1h0v-0.1v0v-2.5h-9.8V287.4z M84.2,285.5c0.3,0,0.6,0.3,0.6,0.7
		s-0.3,0.7-0.6,0.7c-0.3,0-0.6-0.3-0.6-0.7S83.9,285.5,84.2,285.5z M76.8,285.4c0.3,0,0.6,0.3,0.6,0.7c0,0.4-0.3,0.7-0.6,0.7
		s-0.6-0.3-0.6-0.7C76.2,285.7,76.4,285.4,76.8,285.4z"/>
	<path fill="#990000" d="M85.4,308.3v-2.5h-9.8v2.5H85.4z M84.2,306.4c0.3,0,0.6,0.3,0.6,0.7c0,0.4-0.3,0.7-0.6,0.7
		c-0.3,0-0.6-0.3-0.6-0.7C83.6,306.7,83.9,306.4,84.2,306.4z M76.9,306.4c0.3,0,0.6,0.3,0.6,0.7c0,0.4-0.3,0.7-0.6,0.7
		s-0.6-0.3-0.6-0.7C76.3,306.7,76.5,306.4,76.9,306.4z"/>
	<path fill="#990000" d="M73.1,311h2.5v2.6h9.8V311h2.5v-2.6H73.1V311z M76.8,312.8c-0.3,0-0.6-0.3-0.6-0.7s0.3-0.7,0.6-0.7
		s0.6,0.3,0.6,0.7S77.1,312.8,76.8,312.8z M84.2,312.9c-0.3,0-0.6-0.3-0.6-0.7s0.3-0.7,0.6-0.7c0.3,0,0.6,0.3,0.6,0.7
		S84.5,312.9,84.2,312.9z M86.7,308.9c0.3,0,0.6,0.3,0.6,0.7s-0.3,0.7-0.6,0.7c-0.3,0-0.6-0.3-0.6-0.7S86.4,308.9,86.7,308.9z
		 M80.5,308.9c0.3,0,0.6,0.3,0.6,0.7s-0.3,0.7-0.6,0.7s-0.6-0.3-0.6-0.7S80.2,308.9,80.5,308.9z M74.5,308.9c0.3,0,0.6,0.3,0.6,0.7
		s-0.3,0.7-0.6,0.7s-0.6-0.3-0.6-0.7S74.1,308.9,74.5,308.9z"/>
	<path fill="#990000" d="M75.6,282.3h-2.5v2.6h2.5h9.8h2.5v-2.6h-2.5H75.6z M80.5,282.9c0.3,0,0.6,0.3,0.6,0.7s-0.3,0.7-0.6,0.7
		s-0.6-0.3-0.6-0.7S80.2,282.9,80.5,282.9z M74.4,284.2c-0.3,0-0.6-0.3-0.6-0.7s0.3-0.7,0.6-0.7s0.6,0.3,0.6,0.7
		S74.7,284.2,74.4,284.2z M86.7,282.8c0.3,0,0.6,0.3,0.6,0.7c0,0.4-0.3,0.7-0.6,0.7c-0.3,0-0.6-0.3-0.6-0.7
		C86.1,283.1,86.4,282.8,86.7,282.8z"/>
	<path fill="#FAAE29" d="M65.7,292.7h-9.9v2.6h-2.4v2.6h2.4v2.6h0.1h9.8h0.1v-2.6h2.4v-2.6h-2.4V292.7z M67,295.9
		c0.3,0,0.6,0.3,0.6,0.7c0,0.4-0.3,0.7-0.6,0.7s-0.6-0.3-0.6-0.7C66.3,296.2,66.6,295.9,67,295.9z M64.4,293.5
		c0.3,0,0.6,0.3,0.6,0.7s-0.3,0.7-0.6,0.7c-0.3,0-0.6-0.3-0.6-0.7S64.1,293.5,64.4,293.5z M57.1,293.5c0.3,0,0.6,0.3,0.6,0.7
		s-0.3,0.7-0.6,0.7s-0.6-0.3-0.6-0.7S56.8,293.5,57.1,293.5z M54.6,297.4c-0.3,0-0.6-0.3-0.6-0.7s0.3-0.7,0.6-0.7s0.6,0.3,0.6,0.7
		S54.9,297.4,54.6,297.4z M63.8,299.3c0-0.4,0.3-0.7,0.6-0.7c0.3,0,0.6,0.3,0.6,0.7s-0.3,0.7-0.6,0.7
		C64.1,300,63.8,299.7,63.8,299.3z M56.4,299.2c0-0.4,0.3-0.7,0.6-0.7s0.6,0.3,0.6,0.7c0,0.4-0.3,0.7-0.6,0.7S56.4,299.6,56.4,299.2
		z M63.3,297.9L63.3,297.9h-5h-0.1v-2.6h5V297.9z"/>
	<path fill="#FAAE29" d="M105.3,295.3h-2.5v0v2.6h-0.1h-4.9h-0.1v-2.6v0h-2.4h-2.5v2.6h2.4l0.1,2.5l0,0h5.2c0.7-0.6,1.5-1.1,2.7-1.7
		c0.1-0.2,0.3-0.3,0.5-0.3c0,0,0.1,0,0.1,0c0.1,0,0.2-0.1,0.3-0.1c0.7-0.3,1.4-0.7,2.2-1.2c0,0-0.1,0-0.1,0c-0.3,0-0.6-0.3-0.6-0.7
		s0.3-0.7,0.6-0.7s0.6,0.3,0.6,0.7c0,0.2-0.1,0.3-0.2,0.4c0.3-0.2,0.5-0.3,0.8-0.5v-1.2H105.3z M94,297.2c-0.3,0-0.6-0.3-0.6-0.7
		s0.3-0.7,0.6-0.7s0.6,0.3,0.6,0.7S94.4,297.2,94,297.2z M97.1,299c0,0.4-0.3,0.7-0.6,0.7s-0.6-0.3-0.6-0.7s0.3-0.7,0.6-0.7
		S97.1,298.6,97.1,299z"/>
	<ellipse fill="#FFFFFF" cx="74.5" cy="309.5" rx="0.6" ry="0.7"/>
	<ellipse fill="#FFFFFF" cx="80.5" cy="309.5" rx="0.6" ry="0.7"/>
	<ellipse fill="#FFFFFF" cx="86.7" cy="309.5" rx="0.6" ry="0.7"/>
	<ellipse fill="#FFFFFF" cx="76.9" cy="307" rx="0.6" ry="0.7"/>
	<ellipse fill="#FFFFFF" cx="84.2" cy="307" rx="0.6" ry="0.7"/>
	<ellipse fill="#FFFFFF" cx="76.8" cy="312.1" rx="0.6" ry="0.7"/>
	<ellipse fill="#FFFFFF" cx="84.2" cy="312.3" rx="0.6" ry="0.7"/>
	<ellipse fill="#FFFFFF" cx="94" cy="296.5" rx="0.6" ry="0.7"/>
	<ellipse fill="#FFFFFF" cx="100.2" cy="296.5" rx="0.6" ry="0.7"/>
	<path fill="#FFFFFF" d="M106.4,295.8c-0.3,0-0.6,0.3-0.6,0.7s0.3,0.7,0.6,0.7c0,0,0.1,0,0.1,0c0.1-0.1,0.2-0.1,0.4-0.2
		c0.1-0.1,0.2-0.3,0.2-0.4C107,296.1,106.8,295.8,106.4,295.8z"/>
	<ellipse fill="#FFFFFF" cx="96.6" cy="293.9" rx="0.6" ry="0.7"/>
	<ellipse fill="#FFFFFF" cx="103.9" cy="293.9" rx="0.6" ry="0.7"/>
	<ellipse fill="#FFFFFF" cx="96.5" cy="299" rx="0.6" ry="0.7"/>
	<path fill="#FFFFFF" d="M103.3,298.8c0.2-0.1,0.4-0.2,0.7-0.3c0,0-0.1,0-0.1,0C103.6,298.4,103.5,298.6,103.3,298.8z"/>
	<ellipse fill="#FFFFFF" cx="74.4" cy="283.6" rx="0.6" ry="0.7"/>
	<ellipse fill="#FFFFFF" cx="80.5" cy="283.6" rx="0.6" ry="0.7"/>
	<ellipse fill="#FFFFFF" cx="86.7" cy="283.4" rx="0.6" ry="0.7"/>
	<ellipse fill="#FFFFFF" cx="76.8" cy="281" rx="0.6" ry="0.7"/>
	<ellipse fill="#FFFFFF" cx="84.2" cy="281" rx="0.6" ry="0.7"/>
	<ellipse fill="#FFFFFF" cx="76.8" cy="286.1" rx="0.6" ry="0.7"/>
	<ellipse fill="#FFFFFF" cx="84.2" cy="286.2" rx="0.6" ry="0.7"/>
	<ellipse fill="#FFFFFF" cx="54.6" cy="296.7" rx="0.6" ry="0.7"/>
	<ellipse fill="#FFFFFF" cx="60.8" cy="296.7" rx="0.6" ry="0.7"/>
	<ellipse fill="#FFFFFF" cx="67" cy="296.6" rx="0.6" ry="0.7"/>
	<ellipse fill="#FFFFFF" cx="57.1" cy="294.1" rx="0.6" ry="0.7"/>
	<ellipse fill="#FFFFFF" cx="64.4" cy="294.1" rx="0.6" ry="0.7"/>
	<ellipse fill="#FFFFFF" cx="57" cy="299.2" rx="0.6" ry="0.7"/>
	<ellipse fill="#FFFFFF" cx="64.4" cy="299.3" rx="0.6" ry="0.7"/>
	<polygon fill="#28AE66" points="129.6,208.2 126.3,210.9 126.3,214.2 129.6,216.8 126.3,219.5 126.3,222.8 129.6,225.5 
		126.3,228.1 126.3,229.8 126.9,229.8 129.6,227 132.2,228.4 134.8,228.4 134.8,227 132.2,225.5 134.8,224.1 134.8,222.6 
		132.2,222.6 129.6,224 126.9,221.2 129.6,218.3 132.2,219.8 134.8,219.8 134.8,218.3 132.2,216.8 134.8,215.4 134.8,214 132.2,214 
		129.6,215.3 126.9,212.5 129.6,209.6 132.2,211.1 134.8,211.1 134.8,209.6 132.2,208.2 134.8,206.8 134.8,205.3 132.2,205.3 
		129.6,206.7 126.9,203.9 126.3,203.9 126.3,205.5 	"/>
	<path fill="#28AE66" d="M33.9,208.2l3.1-2.5v-1.8h-0.5l-2.6,2.8l-2.6-1.4h-2.8v1.5l2.8,1.3l-2.6,1.3c0.7,0.2,1.4,0.3,2,0.4
		c0.7,0.1,1.4,0.3,1.9,0.4l1.3-0.7l1.2,1.3c0.8,0.2,1.4,0.4,2,0.7v-0.8L33.9,208.2z"/>
	<polygon fill="#28AE66" points="71.8,183.9 74.5,186.1 79,186.1 81.7,183.9 84.4,186.1 88.9,186.1 91.6,183.9 94.3,186.1 
		96.6,186.1 96.6,185.9 93.3,184 94.9,182 94.9,180 93.3,180 91.6,182 89.9,180 88.3,180 88.3,182 89.9,184 86.7,185.9 83.4,184 
		85,182 85,180 83.4,180 81.7,182 80.1,180 78.4,180 78.4,182 80.1,184 76.7,185.9 73.4,184 75.1,182 75.1,180 73.4,180 71.8,182 
		70.2,180 68.5,180 68.5,182.1 70.2,183.9 66.8,186 66.8,186.1 69,186.1 	"/>
	<polygon fill="#28AE66" points="91.6,249.7 89.2,247.7 84.3,247.7 81.7,249.8 79.1,247.7 74.3,247.7 71.8,249.8 69.2,247.7 
		66.8,247.7 66.8,247.8 70.2,249.7 68.5,251.7 68.5,253.7 70.2,253.7 71.8,251.8 73.4,253.7 75.1,253.7 75.1,251.8 73.4,249.8 
		76.7,247.8 80.1,249.7 78.4,251.7 78.4,253.7 80.1,253.7 81.7,251.8 83.4,253.7 85,253.7 85,251.8 83.4,249.8 86.7,247.8 
		89.9,249.7 88.3,251.7 88.3,253.7 89.9,253.7 91.6,251.8 93.3,253.7 94.9,253.7 94.9,251.8 93.3,249.8 96.6,247.8 96.6,247.7 
		94.1,247.7 	"/>
	<polygon fill="#28AE66" points="126.3,237.8 128.4,237.8 128.4,235.8 126.3,235.8 126.3,237.6 	"/>
	<polygon fill="#28AE66" points="47.8,186 49.7,186 49.7,184 47.7,184 	"/>
	<polygon fill="#28AE66" points="124.2,239.8 126.3,239.8 126.3,237.8 124.1,237.8 	"/>
	<polygon fill="#28AE66" points="47.7,186 45.5,186 45.4,188.1 47.7,188.1 47.7,186.1 	"/>
	<rect x="113.6" y="184" fill="#28AE66" width="2.2" height="2"/>
	<polygon fill="#28AE66" points="124.2,195.9 126.3,195.9 126.3,193.9 124.1,193.9 	"/>
	<rect x="126.3" y="196" fill="#28AE66" width="2.2" height="1.9"/>
	<path fill="#28AE66" d="M39.2,195.9v-2h-1c0,0,0,0,0,0c-0.4,0.6-0.7,1-1.2,1.2v0.8H39.2z"/>
	<polygon fill="#28AE66" points="115.7,188.1 117.8,188.1 117.8,186 115.7,186 115.7,186.1 115.7,186.1 	"/>
	<rect x="113.6" y="247.8" fill="#28AE66" width="2.2" height="2"/>
	<polygon fill="#28AE66" points="115.7,247.8 117.8,247.8 117.8,245.7 115.7,245.7 115.7,247.7 	"/>
	<polygon fill="#28AE66" points="34.8,198 37,198 37,196 37,195.9 34.8,195.9 	"/>
	<path fill="#970000" d="M69.2,247.7h5.2h4.8h5.2h4.9h4.9h2.5h19.1v-1.9v-8.1h10.6v-1.8v-6.1v-1.6v-5.4v-3.3v-5.3v-3.3v-5.4v-1.6v-6
		V196h-10.6v-8v-1.9h0H96.6h-2.2h-5.4h-4.5H79h-4.5H69h-2.2H47.7v1.9v8H37v1.9v6v1.8v5.1v0.8c1.5,0.7,2,1.7,2.9,3.8
		c0.9,1.9,1.7,4.2,2,5.1c0.4,1.4,2.2,4.8,4,7.5c0.4,0.6,2.1,1.1,4.2,1.2c3.3,0.3,3.6,0.4,3.8,1.9c0.1,0.9,1.3,2.6,2.7,3.8l2.5,2.3
		l-1.7,5.2c-0.7,2.2-1.5,3.9-2.3,5.4h11.6H69.2z"/>
	<path fill="#CA3745" d="M35,63.2v5.8l6.4,5.7h12.7l10.7,5.7h34l10.7-5.7h3.8c0,0,0,0,0,0c-0.3-0.3-0.7-0.9-1-1.8h-4.9l-10.6,5.6
		H85.7l-0.1,0.1h-3.8l-0.1,0.1l-0.1-0.1h-3.8l-0.1-0.1H66.9l-10.7-5.6h-4.8h-8l-6.4-5.8v-5.7l-6.4-7.7v-5.6V48v-1
		c-0.5,0.2-1.1,0.3-1.5,0.4c-0.2,0-0.4,0.1-0.6,0.1v8.2L35,63.2z"/>
	<path fill="#CA3745" d="M40.2,48.1L40.2,48.1C39.1,48,37.2,48,36.4,48l0.1,0.1H40.2z"/>
	<path fill="#CA3745" d="M32.5,48c-0.1,0-1.8,0-1.8,0v0.1L32.5,48L32.5,48z"/>
	<path fill="#CA3745" d="M34.5,48.1L34.5,48.1C34.5,48,34.5,48,34.5,48.1L34.5,48.1L34.5,48.1z"/>
	
		<line fill="none" stroke="#FAAE29" stroke-width="0" stroke-linecap="round" stroke-linejoin="round" x1="30.7" y1="48.1" x2="30.7" y2="48"/>
	<polygon fill="#FAAE29" points="34.5,48.1 34.5,48.1 34.5,48.1 	"/>
	<polygon fill="#FAAE29" points="38.4,53.7 36.7,51.3 38.4,53.7 	"/>
	<polygon fill="#FAAE29" points="38.5,51.9 38.5,51.9 40.3,53.7 40.3,53.7 	"/>
	<polygon fill="#FAAE29" points="40.4,51.8 40.3,51.8 42.3,53.7 41.2,54.8 43.3,54.8 47.4,52.2 44.4,50.1 44.4,51.8 	"/>
	<polygon fill="#FAAE29" points="38.4,49.9 40.2,48.1 36.5,48.1 	"/>
	<rect x="77.8" y="72.9" fill="#FAAE29" width="2" height="0.1"/>
	<polygon fill="#FAAE29" points="81.7,76.7 81.7,74.8 79.8,74.8 	"/>
	<polygon fill="#FAAE29" points="65.9,74.8 62,72.9 64,71.1 67.9,72.9 71.8,72.9 74.8,68.6 65.9,63.9 58.3,68.5 57.6,72.9 
		56.1,71.3 51.4,72.9 56.2,72.9 66.9,78.6 77.6,78.6 73.3,74.8 	"/>
	<polygon fill="#FAAE29" points="52.9,68 51.3,66.4 56,66.4 61.7,62.7 53.1,62.7 49.8,64.7 49.1,69.1 47.6,67.4 42.9,69.1 
		41.4,67.4 44.4,64.1 42.9,62.5 47.5,62.5 50.3,60.7 50.3,54.3 50.2,54.2 45.5,57 44.8,61.4 43.3,59.7 38.7,61.4 37.1,59.8 
		40.2,56.5 39.3,55.6 38.4,55.6 32.5,48.1 30.7,48.1 30.7,53.7 37.1,61.4 37.1,67.1 43.4,72.9 51.4,72.9 49.8,71.3 	"/>
	<polygon fill="#CA3745" points="57.6,72.9 58.3,68.5 65.9,63.9 63.8,62.7 61.7,62.7 56,66.4 51.3,66.4 52.9,68 49.8,71.3 
		51.4,72.9 56.1,71.3 	"/>
	<polygon fill="#CA3745" points="41.2,54.8 40.4,55.6 39.3,55.6 40.2,56.5 37.1,59.8 38.7,61.4 43.3,59.7 44.8,61.4 45.5,57 
		50.2,54.2 47.4,52.2 43.3,54.8 	"/>
	<polygon fill="#CA3745" points="42.9,62.5 44.4,64.1 41.4,67.4 42.9,69.1 47.6,67.4 49.1,69.1 49.8,64.7 53.1,62.7 50.3,62.7 
		50.3,60.7 47.5,62.5 	"/>
	<polygon fill="#CA3745" points="75.8,73 75.8,71.2 77.8,71.2 77.8,72.9 79.7,72.9 79.7,71.2 74.8,68.6 71.8,72.9 67.9,72.9 
		64,71.1 62,72.9 65.9,74.8 73.3,74.8 77.6,78.6 77.8,78.7 81.6,78.7 	"/>
	<path fill="#FFFFFF" d="M34.5,48c0,0,1.1-1.6,2.1-3.1c0,0-0.1,0-0.1,0.1L34.5,48C34.5,48,34.5,48,34.5,48z"/>
	<path fill="#FFFFFF" d="M32.5,48l1.7-2.1c-1.2,0.4-2.4,0.8-3.4,1.1v1C30.7,48,32.3,48,32.5,48z"/>
	<path fill="#FFFFFF" d="M38.4,46.1l-2,1.9c0.8,0,2.7,0,3.9,0L38.4,46.1z"/>
	<path fill="#FFFFFF" d="M40.4,44.2h3.9V46h-4l-1.8-1.8l0,0l2,1.9h3.9l3.1-2.2l-3-1.9c-0.9,0.1-1.7,0.3-2.6,0.6L40.4,44.2L40.4,44.2
		z"/>
	<path fill="#FFFFFF" d="M50.3,41.8L50.3,41.8c-0.1,0-0.1,0-0.2,0L50.3,41.8L50.3,41.8z"/>
	<polygon fill="#FFFFFF" points="105.9,72.9 105.1,68.5 97.5,63.8 88.6,68.6 91.5,72.9 95.5,72.9 99.5,71.1 101.4,72.9 97.4,74.8 
		90.2,74.8 85.7,78.6 96.6,78.6 107.2,72.9 112.1,72.9 112.1,72.9 107.4,71.3 	"/>
	<polygon fill="#FFFFFF" points="107.4,66.4 110.5,66.4 109.9,63.3 109.3,62.7 101.7,62.7 	"/>
	<rect x="83.7" y="72.9" fill="#FFFFFF" width="2" height="0.1"/>
	<polygon fill="#FFFFFF" points="83.7,74.8 81.7,74.8 81.7,76.7 	"/>
	<polygon fill="#FFFFFF" points="110.9,68.5 110.8,67.7 110.5,68 	"/>
	<polygon fill="#CA3745" points="97.4,74.8 101.4,72.9 99.5,71.1 95.5,72.9 91.5,72.9 88.6,68.6 83.7,71.2 83.7,72.9 85.6,72.9 
		85.6,71.2 87.6,71.2 87.6,73 81.8,78.7 85.6,78.7 85.7,78.6 90.2,74.8 	"/>
	<path fill="#CA3745" d="M50.2,41.9l-0.1-0.1c-0.1,0-0.1,0-0.2,0c-2.5,0-4.1,0-5.4,0.2l3,1.9L50.2,41.9z"/>
	<path fill="#FFFFFF" d="M81.7,78.6v-1.9l-1.9-1.9h1.9v-1.9v-2l-17-9.6h-4.2H52v-7.7L43.5,48c0,0-0.1,0-0.1,0c-1.2,0-2.1,0-3.1,0
		l-0.1,0.1l-1.9,1.8l-1.9-1.8L36.4,48c-0.4,0-1.6,0-1.9,0v0.1v0l2.2,3.1l1.7,2.5h1.8l-1.8-1.8l0,0l0,0l1.9-1.9h4v0.1l3,2.1l2.8,2
		l0.1,0.1v6.5v2h2.8h8.7h2.1l2.1,1.1l8.9,4.7l4.9,2.6v1.8V73h-2v-0.1v-1.8h-2V73L81.7,78.6v0.2V78.6L81.7,78.6z"/>
	<path fill="#FAAE29" d="M36.4,48l2-1.9l2,1.9c0.9,0,1.9,0,3.1,0c0,0,0.1,0,0.1,0l8.4-5.7v-0.5c-0.5,0-1.1,0-1.7,0v0l-0.1,0l-2.8,2
		l-3.1,2.2h-3.9l-2-1.9l0,0l0,0l0.1-0.1c-0.1,0-0.1,0.1-0.2,0.1c-0.5,0.2-1.1,0.5-1.7,0.7c-1.1,1.5-2.1,3.1-2.1,3.1
		C34.8,48,36,48,36.4,48z"/>
	<path fill="#28AE66" d="M81.7,57.6c0,0-2.9-2.2-5.8-4.4l-6,3l-0.9,5.2l-2.1-1.9l-6.4,1.9h4.2l17,9.6v-2V57.6z"/>
	<path fill="#28AE66" d="M52,53.7v7.7h8.5l-2.2-1.9l4.2-3.9l-2.1-1.9h6.4l5.6-3c-1.4-1.1-3.6-2.7-3.6-2.7c-9.5,0-15.8,0-25.4,0
		L52,53.7z"/>
	<path fill="#CA3745" d="M101.7,62.7h-2.1l-2.1,1.1l7.6,4.7l0.8,4.4l1.5-1.7l4.7,1.7c-0.4-1.1-0.8-2.6-1.1-4.4l0-0.1l-0.5-0.5
		l0.3-0.3l-0.3-1.3h-3.1L101.7,62.7z"/>
	<polygon fill="#FAAE29" points="98.8,61.4 81.7,71 81.7,72.9 81.7,74.8 83.7,74.8 81.7,76.7 81.7,78.6 81.7,78.7 81.7,78.8 
		81.8,78.7 87.6,73 87.6,71.2 85.6,71.2 85.6,72.9 85.6,73 83.7,73 83.7,72.9 83.7,71.2 88.6,68.6 97.5,63.8 99.6,62.7 101.7,62.7 
		109.3,62.7 107.9,61.4 103,61.4 	"/>
	<path fill="#CA3745" d="M43.5,48c9.6,0,15.9,0,25.4,0l3.6-2.7l-5.6-3h-6.4l2.2-1.9L62.3,40c-4.3,1.2-6.7,1.6-10.3,1.7v0.5L43.5,48z
		"/>
	<path fill="#CA3745" d="M75.9,42.8l2.1-1.6c-3.1-1.5-5.7-2.6-6.7-2.8c-0.3-0.1-0.9-0.1-1.6,0l0.3,1.4L75.9,42.8z"/>
	<path fill="none" stroke="#CA3745" stroke-width="0" stroke-linecap="round" stroke-linejoin="round" d="M43.5,48
		C43.5,48,43.5,48,43.5,48"/>
	<polygon fill="#CA3745" points="81.7,69 81.7,71 98.8,61.4 103,61.4 96.6,59.5 94.4,61.4 93.5,56.3 87.5,53.2 81.7,57.6 	"/>
	<path fill="#CA3745" d="M105.1,59.5l-2.2,1.9h5l-4-3.7c-0.8-0.8-1.8-1.6-2.7-2.4l-0.4,0.4L105.1,59.5z"/>
	<path fill="#CA3745" d="M96.6,53.7h2.8c-2.4-1.9-4.7-3.7-6.4-4.7l-2.2,1.6L96.6,53.7z"/>
	<path fill="#CA3745" d="M66.9,53.7h-6.4l2.1,1.9l-4.2,3.9l2.2,1.9l6.4-1.9l2.1,1.9l0.9-5.2l6-3c-0.9-0.7-0.9-0.7-1.8-1.4h-0.3v-0.2
		c-0.6-0.5-0.8-0.6-1.3-1L66.9,53.7z"/>
	<path fill="#28AE66" d="M60.5,42.3h6.4l5.6,3l1.3-1v-0.2h0.3l1.8-1.4l-5.9-3l-0.3-1.4c-1.5,0.2-3.8,0.7-6.8,1.5
		c-0.2,0.1-0.5,0.1-0.7,0.2l0.4,0.4L60.5,42.3z"/>
	<path fill="#28AE66" d="M90.9,50.7l-1.3,1v0.2h-0.3l-1.8,1.4l6,3l0.9,5.2l2.2-1.9l6.4,1.9l2.2-1.9l-4.3-3.9l0.4-0.4
		c-0.6-0.5-1.2-1-1.8-1.5h-2.8L90.9,50.7z"/>
	<path fill="#FFFFFF" d="M81.7,57.6l5.8-4.4l1.8-1.4h-5.7v3.8h-3.9v-3.8h-5.7c0.9,0.7,0.9,0.7,1.8,1.4
		C78.8,55.4,81.7,57.6,81.7,57.6z"/>
	<path fill="#FFFFFF" d="M72.5,50.7c0.5,0.4,0.7,0.5,1.3,1v-7.3l-1.3,1L68.9,48C68.9,48,71.1,49.6,72.5,50.7z"/>
	<path fill="#FFFFFF" d="M84.1,44.2c-0.1-0.1-0.3-0.1-0.4-0.2v0.2H84.1z"/>
	<path fill="#FFFFFF" d="M89.6,51.7l1.3-1l2.2-1.6c0,0,0,0,0,0c-0.9-0.6-2.1-1.3-3.5-2V51.7z"/>
	<path fill="#FFFFFF" d="M74.1,44.2h5.7V42c-0.6-0.3-1.1-0.5-1.7-0.8l-2.1,1.6L74.1,44.2z"/>
	<path fill="#CA3745" d="M38.4,55.6h0.9h1.2l0.8-0.8l1.1-1.1l-2-1.9h0.1h3.9v-1.8V50h-4l-1.9,1.9l0,0l1.8,1.8h-0.1h-1.8h0l-1.7-2.5
		l-2.2-3.1l0,0L34.4,48c-0.3,0-1.8,0-2,0l0.1,0.1L38.4,55.6z"/>
	<path fill="#CA3745" d="M34.4,48l2.1-3.1c-0.8,0.3-1.6,0.6-2.4,0.9L32.5,48C32.6,48,34.2,48,34.4,48z"/>
	<path fill="#CA3745" d="M38.5,44.2l1.8,1.8h4v-1.9h-3.9h-0.1l1.6-1.5c-0.9,0.3-2,0.8-3.4,1.4L38.5,44.2L38.5,44.2z"/>
	<rect x="79.7" y="51.8" fill="#CA3745" width="3.9" height="3.8"/>
	<path fill="#CA3745" d="M83.7,44.2v-0.2c-1.3-0.7-2.7-1.3-3.9-1.9v2.2H83.7z"/>
	<path fill="#CA3745" d="M79.7,44.2h-5.7h-0.3v0.2v7.3v0.2h0.3h5.7h3.9h5.7h0.3v-0.2V47c-1.7-0.9-3.6-1.9-5.5-2.9h-0.4H79.7z"/>
	<polygon fill="#CA3745" points="134.9,122.2 122.9,122.2 122.9,119 109.2,119 109.2,109.4 93.8,109.4 93.8,104.7 69.8,104.7 
		69.8,109.4 54.3,109.4 54.3,119 40.6,119 40.6,122.2 28.6,122.2 28.6,154 40.6,154 40.6,157.2 54.3,157.2 54.3,166.7 69.8,166.7 
		69.8,171.5 93.7,171.5 93.7,166.7 109.1,166.7 109.1,157.2 122.9,157.2 122.9,154 134.9,154 	"/>
</g>
</svg>
