<?xml version="1.0" encoding="utf-8"?>
<!-- Generator: Adobe Illustrator 17.1.0, SVG Export Plug-In . SVG Version: 6.00 Build 0)  -->
<!DOCTYPE svg PUBLIC "-//W3C//DTD SVG 1.1//EN" "http://www.w3.org/Graphics/SVG/1.1/DTD/svg11.dtd">
<svg version="1.1" id="flag-icon-css-tn" xmlns="http://www.w3.org/2000/svg" xmlns:xlink="http://www.w3.org/1999/xlink" x="0px"
	 y="0px" viewBox="0 0 640 480" enable-background="new 0 0 640 480" xml:space="preserve">
<g>
	<path fill="none" d="M301.9,480c0,0.1,0,0.2,0,0.2c0.1,0.1,0.4,0,1-0.2H301.9z"/>
	<path fill="#E70013" d="M311.4,477.3c6.9-2.4,10.8-3.5,15.6-4.3l6.5-1.1l8.8-10.8l8.8-10.8l1.5-9.6c0.8-5.3,1.5-10,1.5-10.6
		c0-0.6-1.7-6.5-3.8-13.2l-3.8-12.2l0.3-4.8l0.3-4.7l4.4-4.9l4.4-4.8l5.7-1.5l5.7-1.5l2.3-3.1c1.3-1.7,2.9-4.1,3.7-5.4
		c0.8-1.2,2.3-3,3.6-3.9c1.9-1.4,2.6-1.6,4.4-1.5l2.2,0.1l4.5-5.2l4.5-5.2l12.2-6.3c10.8-5.5,12.6-6.6,15.9-9.6
		c2.7-2.5,4.6-3.8,7.5-5l3.8-1.6l1.4-3.1l1.4-3.1l-3.7-5.5l-3.7-5.5l0.6-2.6c0.3-1.4,0.7-3.1,0.8-3.7c0.2-1,0.2-1-0.8-0.5
		c-1.1,0.6-1.1,0.5-0.8-1.2c0.2-1,0.9-2.7,1.7-3.8c1.3-1.8,1.5-2.5,1.7-6.3c0.2-3.6,0.1-4.4-0.5-5c-0.4-0.3-0.9-0.4-1.4-0.4
		c-20,39.2-60.8,66.1-107.9,66.1c-21.4,0-41.6-5.6-59.1-15.4c8.3,6.2,14.3,10.8,14.4,10.9c0,0,5.9,27.8,12.9,61.8
		c6.7,32.6,12.4,59.6,13,61.9h1.1C304.5,479.6,307.7,478.6,311.4,477.3z"/>
	<path fill="#E70013" d="M406.7,154.7c0.2-0.8,0.5-1,1-1.2c0.5-0.1,1.2-0.9,1.5-1.8c0.4-0.8,0.9-1.8,1.3-2.1c0.4-0.3,0.8-1.1,1-1.7
		c0.2-0.8,0.7-1.2,1.9-1.5c1.5-0.2,1.6-0.4,1.1-1c-0.3-0.4-1.7-1.2-3-1.8c-1.8-0.8-2.7-1.5-3.6-3.1c-1-1.8-1.1-2.4-0.9-5.3
		c0.1-1.8,0.5-3.7,0.8-4.2c1.1-1.7,1-2.8-0.1-4.4c-0.9-1.3-1.1-2-0.9-3.9c0.2-2.3,0.2-2.3-2.3-5.1c-2.1-2.3-2.8-2.8-4.5-3.1
		c-3.6-0.6-3.6-0.6-3.6-2.8c0-1.9-0.2-2.2-1.7-3.2c-1.6-1.1-1.8-1.1-2.8-0.5c-0.6,0.4-1.8,0.7-2.8,0.7c-1.6,0-2-0.3-5-4
		c-2.4-3-3.6-5-4.7-7.8c-0.8-2.1-2.1-4.6-2.8-5.6l-1.3-1.7l0.2-6.4l0.2-6.5l2.3-5.2l2.4-5.2l2.3-0.2c1.3-0.1,2.7-0.5,3.1-0.9
		c0.4-0.4,2.9-1.2,5.5-2c2.6-0.7,4.8-1.4,4.9-1.5c0-0.1,1.2-2.3,2.5-4.8c4.1-8.3,13.6-20.3,15.3-19.7c0.4,0.1,1.1-0.3,1.6-1
		c0.9-1.2,0.9-1.4,0.2-3c-0.4-1-0.8-2.5-1-3.4c-0.1-0.9-0.6-2.2-1.1-3c-0.6-0.9-0.8-1.7-0.6-2.6c0.2-1,0-1.6-1.3-2.8l-1.5-1.5
		l-3.4,1.6c-2.7,1.3-3.6,2-4.2,3.3c-1.3,2.7-7.7,6.2-13.6,7.5l-3.8,0.8l-1.9,3.4c-1.1,1.8-1.9,3.7-1.9,4.1c0,0.5-0.8,0.8-3.2,1.3
		c-4.6,0.8-6.6,0.7-8.4-0.4c-0.8-0.5-1.8-1.6-2.2-2.4c-0.6-1.5-0.7-1.5-3.3-1.4c-2.8,0.1-3.5-0.3-3.5-2c0-1.2,2.5-2.1,6.5-2.5
		c1.8-0.2,3.3-0.5,3.3-0.7c0-0.8-3.7-3.6-5.7-4.4c-2.4-0.9-3.1-1.9-3.9-6.1c-0.8-3.4-0.5-4,1.2-4c1,0,1.4-0.2,1.4-0.9
		c0-0.5-0.3-1-0.6-1.1c-0.3-0.1-1.6-0.5-2.9-0.8c-2.1-0.5-2.2-0.7-1.4-1.2c0.5-0.3,1.4-0.6,2.2-0.6c1.5,0,5.1-1.3,5.1-1.9
		c0-0.7-0.8-1-8.2-3.8l-7-2.6l-2,0.9c-1.7,0.8-2.3,0.8-3.8,0.4c-1.6-0.4-2-0.8-2.4-2.3c-0.2-0.9-0.5-2-0.5-2.3c0-0.3-0.5-0.7-1-0.8
		c-3.4-0.7-4.7-0.8-8.1-1c-3.1-0.1-4,0-4.9,0.7c-1.3,0.9-3.3,1.5-10.5,2.9c-2.5,0.5-4.9,1.1-5.3,1.4c-0.8,0.7-7.4,1.1-8.5,0.5
		c-0.8-0.4-1.4,0-3.9,2.4c-2.9,2.8-3.2,3-5.9,3.3c-2.8,0.3-3,0.4-5.9,3.4c-1.6,1.7-4.6,4.4-6.5,5.9l-3.5,2.9l-3.5,0
		c-2,0-4.3,0.4-5.3,0.8c-1.6,0.7-1.7,0.9-2.5,4.3l-0.8,3.6l-4,2.4c-2.3,1.3-4.2,2.6-4.4,2.9s-0.4,2.1-0.4,4.1v3.6l-4.9,1l-5,1
		l-3.8,3.4l-3.8,3.4l6.3,3.1l6.3,3.1l-3.1,6.8c-4.1,9.2-6.9,19.5-7.6,29.2l-0.6,6.9l2.6,4.5l2.6,4.5v6.2c0,6,0,6.2-1.5,8.7l-1.4,2.5
		l0.6,4.1l0.7,4.1l2.6,0.1l2.6,0.1l0.8,3.1l0.1,0.2c19.8-14.1,44-22.4,70.2-22.4C354.3,118.8,384.7,132.5,406.7,154.7z"/>
	<path fill="#E70013" d="M199.6,239.8c0-10.2,1.3-20.1,3.6-29.5c-0.9-0.1-2-0.2-3.5-0.3l-3.8-0.3l-2.8,2.3c-2.6,2.2-2.9,2.6-4,6.2
		c-0.9,3-1.4,5.7-1.7,11.6l-0.5,7.7l1.5,6.1c1.3,5.5,1.7,6.6,4.9,12c3,5,3.8,7.1,6,13.8l2.5,7.9l4.2,2.2c0.2,0.1,0.3,0.2,0.5,0.2
		C202,267.3,199.6,253.8,199.6,239.8C199.6,239.9,199.6,239.8,199.6,239.8z"/>
	<path fill="#E70013" d="M431.9,290.6c2.4,0,2.6,0,3.2-1.5c0.8-1.9,0.7-2.2-1.5-2.6c-0.3,0-0.6-0.1-1-0.3c-0.6,1.5-1.2,2.9-1.9,4.3
		C431,290.5,431.5,290.5,431.9,290.6z"/>
	<path fill="#FFFFFF" d="M428.5,294.8c-1.1,0-2.3,0.6-2.7,1.5c-1,2.2-1.7,1.7-2.3-1.3c-0.6-2.7-0.7-2.9-2.3-3.3
		c-1.5-0.4-2.3-1-2.3-1.7c0-0.1,1.4,0,3,0.3c2.4,0.5,3.2,0.5,4.2-0.1c0.9-0.5,1.5-0.5,2.2-0.1c0.4,0.2,1.3,0.4,2.3,0.5
		c0.7-1.4,1.3-2.9,1.9-4.3c-1-0.3-2.2-0.9-3.1-1.5c-3-2-6.3-3.7-6.6-3.4c-0.1,0.1,0.3,1,1,2c0.7,0.9,1.2,2,1.2,2.2s-2,0.3-4.7,0.1
		c-5.7-0.3-7.4-1.2-9.2-4.6c-1-2.1-1.1-2.3-0.4-2.6c0.4-0.1,2.2,0,3.8,0.4c1.8,0.5,3.5,0.6,4,0.4c0.8-0.3,0.3-0.6-2.5-1.4
		c-2.3-0.7-4-1.5-5-2.4c-1.1-1.1-1.7-1.3-2.5-1.1c-1,0.3-1.1,0.2-0.8-1.5c0.2-1,0.1-2.5-0.2-3.3c-0.4-1.2-0.3-1.7,0.5-3.3
		c0.6-1,1-2.3,1-2.9c0-1.1-2.3-5.6-2.8-5.6c-0.2,0-1.6-0.8-3.1-1.9l-2.8-1.9l-2.3,0.8c-1.3,0.4-2.3,0.8-2.4,0.8c0,0,0.1,0.7,0.4,1.4
		c1.3,3.3-1.4,6-7.2,7.2c-1.9,0.4-2.7,0.5-3.4,0.4l6.1,9.2l-36.5-13.3l-24.1,30.4l1.4-38.7l-36.4-13.6l37.3-10.7l1.6-38.7l13.5,19.9
		c1-0.7,2.1-1.8,2.5-2.4c0.8-1.1,1.4-1.4,3.6-1.5c1.4-0.1,3-0.6,3.4-0.9c0.5-0.4,1.6-0.9,2.5-1.1c2-0.4,4.7-2.3,5.9-4.1
		c0.5-0.8,2.1-1.8,3.7-2.5c6.3-2.8,7.6-3.5,8.5-4.9c0.5-0.8,1.3-1.5,1.8-1.7c0.4-0.1,1.1-0.9,1.5-1.6c0.4-0.8,1.3-1.5,2-1.6
		c2.8-0.7,3.8-1.5,3.8-3.2c0-1.3,0.4-1.9,2-3.4c1.1-1,2.6-2.1,3.4-2.4c0.8-0.4,2.5-2.2,4.1-4.2c2.1-2.8,2.7-3.9,2.7-5.3
		c0-2.2,0.8-3.3,3.6-5.5c2-1.6,2.4-2.2,2.7-3.9c0.3-1.9,0.5-3,0.7-3.7c-21.9-22.1-52.3-35.9-86-35.9c-26.2,0-50.4,8.3-70.2,22.4
		l0.7,2.9l-2,2.1c-1.1,1.2-3.2,3.4-4.7,5l-2.7,2.8l-4,13.7c-2.2,7.6-4,13.8-4,14c0,0.1-1.7,1-3.8,1.9l-3.7,1.7l0.3,2
		c0.3,2.4,0.4,2.4-6,2.8l-4.5,0.3l-3.7,5.4c-3.2,4.7-3.8,6-4.9,9.9c-1.1,4.1-0.8,4.7-4.3,4.5c-2.4,9.5-3.6,19.3-3.6,29.5
		c0,0,0,0,0,0.1c0,14,2.4,27.4,6.7,39.9c2.7,1.4,4.7,2.9,6.4,4.6c2.1,2.1,3.1,2.8,5.4,3.5c2.7,0.8,2.9,1,7.3,6.5
		c2.4,3.1,4.6,5.9,4.8,6.1c0.2,0.3,1,5.4,1.8,11.3c0.8,6,1.5,11.3,1.6,11.8c0.1,0.7,7.4,6.4,21.2,16.9c2.4,1.8,4.6,3.5,6.7,5.1
		c17.5,9.8,37.6,15.4,59.1,15.4C367.7,360.9,408.5,334,428.5,294.8z M243.1,237c1.4-42.2,35.3-76.1,77.6-77.6
		c11.1,0,23.7,2.6,32.3,8.9c-58.7,2.2-73.6,52-73.6,72.1s9.5,64.8,73.6,71.4c-7.3,4.7-21.2,8.2-32.3,8.2
		C276.3,318.5,241.6,281.4,243.1,237z"/>
	<path fill="#FFFFFF" d="M387.9,249.1c0-0.8,2.6-0.5,3.4,0.4c0.5,0.5,0.8,1.6,0.8,2.5c0,0.9,0.3,1.9,0.7,2.2
		c0.6,0.5,0.8,0.3,1.5-0.6c1.1-1.7,4.9-4.2,4.9-3.3c0,1.2,0.8,0.3,1.2-1.3c0.3-1.1,0.8-1.6,2.4-2.4l2.1-0.9l-0.1-2.4
		c-0.1-2.3-0.2-2.4-1.5-2.7c-1.7-0.3-3.1-1.2-4.2-3c-0.9-1.4-2.5-1.7-2.9-0.6c-0.4,1.1-2.8,1.4-4,0.6c-1.3-0.9-4-0.9-5.1-0.1
		c-1.9,1.4-2.4,7.3-0.9,10.2C386.9,249.4,387.9,250.2,387.9,249.1z"/>
	<path fill="#FFFFFF" d="M383.4,258.5c1.6-1.6,1.9-2.3,2-4.4c0.3-3.6-0.1-4-3.3-3.3c-1.2,0.2-3.3,0.9-4.9,1.5l5,7.5
		C382.5,259.5,382.8,259.1,383.4,258.5z"/>
	<path fill="#E70013" d="M279.3,240.5c0-20.1,14.9-69.9,73.6-72.1c-8.5-6.3-21.2-8.9-32.3-8.9c-42.2,1.4-76.1,35.3-77.6,77.6
		c-1.5,44.3,33.2,81.5,77.6,83c11.1,0,24.9-3.5,32.3-8.2C288.8,305.3,279.3,260.5,279.3,240.5z"/>
	<path fill="#E70013" d="M333.1,227.6l-37.3,10.7l36.4,13.6l-1.4,38.7l24.1-30.4l36.5,13.3l-6.1-9.2c-0.4-0.1-0.7-0.3-1.1-0.6
		c-0.7-0.5-1.5-1.5-1.9-2.2c-0.4-0.8-0.6-1.1,0-1.8l-5-7.5c-0.3,0.1-0.5,0.2-0.8,0.3c-2.7,1.1-3.2,1.2-5.5,0.8
		c-5.5-1.1-8.3-2.7-14.6-8.3c-7.2-6.5-8.5-8-10.3-12.6c-0.8-2-1.9-4.6-2.6-5.9c-1.6-3.1-1.6-6.7,0-9.8c0.6-1.2,1.4-3.1,1.7-4.2
		c0.4-1.5,1.1-2.4,2.6-3.4c0.1-0.1,0.3-0.2,0.4-0.3l-13.5-19.9L333.1,227.6z"/>
</g>
</svg>
