<?xml version="1.0" encoding="utf-8"?>
<!-- Generator: Adobe Illustrator 17.1.0, SVG Export Plug-In . SVG Version: 6.00 Build 0)  -->
<!DOCTYPE svg PUBLIC "-//W3C//DTD SVG 1.1//EN" "http://www.w3.org/Graphics/SVG/1.1/DTD/svg11.dtd">
<svg version="1.1" id="flag-icon-css-to" xmlns="http://www.w3.org/2000/svg" xmlns:xlink="http://www.w3.org/1999/xlink" x="0px"
	 y="0px" viewBox="0 0 640 480" enable-background="new 0 0 640 480" xml:space="preserve">
<g>
	<path fill="#C10000" d="M250,206.1c0.4,1.9,0.9,2.7,3.2,4.7c1.5,1.3,2.6,2.7,2.5,3c-0.1,0.4-0.3,1.7-0.5,3l-0.3,2.4l2.8,2l2.7,2
		l-0.8,1.8l-0.8,1.9l3.2,3.2c2.9,2.9,3.6,3.3,7.7,4.7c3.4,1.1,7.4,3.2,15.3,8c14.9,9,21.7,11.3,36,12.4l4.4,0.3l5-3.9
		c8.1-6.2,16.3-16.7,20.4-26.3l2.5-5.8l-0.3-6.5c-0.2-3.6-0.8-8.7-1.3-11.4c-1-4.5-1.3-5.2-3.6-8.2l-2.6-3.3l0.4-3.8
		c0.2-2.8,0.7-4.4,1.7-6.1c2.7-4.6,10.4-15.9,16.2-23.7c3.3-4.4,6-8.4,6-8.8c0-1.2,2.6-6.6,4.7-9.7c1.6-2.3,2.3-2.8,5.2-4
		c1.9-0.8,3.9-1.4,4.6-1.4c0.9,0,1.4-0.5,2-2c0.9-2.3,1.2-2.5,5.1-2.9c1.6-0.2,4.5-0.8,6.4-1.5c2-0.6,5.1-1.4,7.1-1.8
		c2.8-0.5,4.2-1,5.8-2.2c1.2-0.9,3.4-2,4.9-2.5c2.8-0.9,5.3-2.5,9.9-6.3l2.6-2.2v-3.8c0-4.6-0.6-5.7-4.3-8.3
		c-2.3-1.6-2.9-2.3-3.8-4.9c-1.1-2.8-1.4-3.2-4.8-5.5c-3-2.1-4-3.1-5.6-5.9c-1.8-3.2-2.1-3.4-4.2-3.8c-1.3-0.3-5.5-1.2-9.5-2.1
		s-9-2-11.2-2.3c-2.9-0.5-6-1.5-11.5-3.9l-7.6-3.3l-6.7,0.1h-6.7l-3.5,2.2c-3.2,1.9-4.3,2.3-11.3,3.5c-4.3,0.8-9.7,1.7-11.9,2
		c-3.6,0.5-4.4,0.8-7.6,2.9c-2,1.4-4.9,3.9-6.5,5.7c-3,3.4-4.1,3.9-8.2,4c-1.4,0.1-1.7-0.2-1.7-1c0-0.8-0.3-1-0.8-0.8
		c-0.5,0.2-5.4,1.8-11.1,3.6l-10.2,3.3h-8.6h-8.5l-8.9-3.2c-1.3-0.5-2.5-0.9-3.5-1.3v111.9h-2.8c0,0,0,0.1,0.1,0.1
		C248.6,202.4,249.7,204.8,250,206.1z"/>
	<path fill="#C10000" d="M572.6,420.9c0.3-7.2,0.6-13.7,0.8-14.5c0.1-0.8-1-6.3-2.6-12.4l-2.8-11l1.3-4.2c0.8-2.7,1.5-6.7,1.9-11.2
		l0.7-7l-1.6-4.4c-1.3-3.7-1.6-5.2-1.6-8.6c0-3.8-0.2-4.5-1.5-6.7l-1.4-2.4l1.5-3.8l1.5-3.7l-0.8-5.3c-0.5-2.9-0.8-6.4-0.8-7.7
		c0-1.7-0.5-3.3-1.5-5.3c-3.4-6.7-5.6-12.7-5.6-15.3c0-2.1-0.3-2.9-1.4-4.3c-1.3-1.5-1.4-1.9-1-3.6c0.2-1.1,1.2-3.2,2.1-4.8
		c1.5-2.7,1.6-3.1,1.6-7.6c-0.1-3.8-0.4-5.5-1.3-8.2c-0.7-1.9-1.4-3.5-1.5-3.6s-1.4,0.2-2.8,0.6c-2,0.6-3.7,1.7-7,4.6
		c-7.1,6.2-8.2,7.9-11.3,18.1c-1.6,4.8-2.9,10.3-3.1,12.3c-0.4,3.3-0.6,3.8-3.5,7.8c-4.3,5.8-4.6,6.4-5,9c-0.4,2.1-0.7,2.5-4.2,5.3
		c-2.1,1.7-6.7,6.1-10.3,9.9l-6.6,6.9l-2.4,6.6c-1.3,3.7-3.6,10.2-5.2,14.5c-1.9,5.4-2.8,8.7-2.8,10.3c0,1.4-0.6,4.1-1.5,6.4
		c-1.5,4-1.5,4.2-1,9.3c0.5,5.3,1.6,10.2,4.7,21.7c2.6,9.5,3,10.1,8.8,13.2c2.7,1.5,5.2,3,5.6,3.5c2.1,2.6,6.9,10.7,7.5,12.9
		l0.7,2.5l2.9-0.2l2.9-0.2l3.6,3.2c2,1.8,4.8,4.1,6.2,5.3c1.4,1.1,5.7,5.8,9.5,10.4c7,8.3,7.1,8.4,11.5,10.6
		c2.8,1.4,5.5,3.2,7.2,4.8l2.6,2.6l1.6-2c0.9-1.1,2.7-3.2,4-4.6c2.4-2.5,2.4-2.6,2.7-6.5c0.2-2.2,0.6-5.5,1-7.3
		c1-4.7,0.9-8.7-0.3-12.1C572.3,438.3,572.1,435.1,572.6,420.9z"/>
	<path fill="#FFFFFF" d="M97.7,121c0.8,0.4,1.7,0.7,2.8,1.2l2.4,1l0-2.2H97.7z"/>
	<path fill="#FFFFFF" d="M250,88.4c-8.9-3.3-8.7-3.3-10.1-5.8c-1.3-2.4-1.4-2.5-8.6-5.3c-6.3-2.5-7.7-2.9-10.7-3
		c-4.3,0-7.1-1.4-11.5-5.5c-4.1-3.9-13.2-8.8-18-9.8c-1.9-0.4-5-0.8-6.9-0.8h-3.4l-1.4,2.9l-1.4,2.9l-0.7-1.4
		c-0.9-1.6-1.3-1.7-2.2-0.6c-1.3,1.5-6.8,3.7-10.3,4c-3.3,0.4-3.7,0.5-6,2.8c-2.2,2.1-2.9,2.5-5.3,2.8c-1.5,0.2-3.6,0.9-4.6,1.6
		c-1.5,1-2.6,1.2-5,1.2c-0.5,0-1,0-1.4,0V81h49.9v40h-49.9v32.4c2.7,1.9,4.7,3.7,7.2,6.2l5,5h9.9c17.2,0,25.6,1.9,49.8,10.9
		c10.3,3.9,12,4.7,15.9,7.5c2.5,1.8,6.6,4.3,9.2,5.6c3.7,1.8,4.8,2.6,5.3,3.9c0.4,0.8,0.6,1.6,0.6,1.8c-0.1,0.2-0.2,0.9-0.4,1.6
		c-0.2,1,0.2,2,2,4.7h2.8V88.4z"/>
	<path fill="#FFFFFF" d="M102.8,61.8c-0.8-0.7-1.6-1.5-2.6-2.6c-1.7-1.9-4.6-4.6-6.5-6.1c-4.2-3.3-7-7.8-7.5-12
		c-0.2-1.4-0.5-4.9-0.8-7.6c-0.6-4.9-0.5-5.1,0.9-9.3l1.4-4.3l4.9-3.8c3.6-2.8,5.6-4.8,7.4-7.4l2.6-3.7l-1.5-1.8
		c-1.5-1.8-2.4-2.2-4.4-1.8c-1.6,0.3-6.9,5.3-10.3,9.5C79.6,19.8,73,27.2,68.1,32c-4.9,4.8-5.1,5.2-5.4,7.6
		c-0.4,2.5-0.3,2.7,2.4,6.8c1.6,2.5,3.5,6.4,4.6,9.4c1.8,4.9,1.9,5.8,2.4,13.8c0.3,5.6,0.6,9.1,0.8,11.5h30L102.8,61.8z"/>
	<path fill="#C10000" d="M142.7,81v-6.7c-1.7-0.1-2.4-0.5-4.1-1.7c-1.6-1.2-2.4-2.2-2.6-3.3l-0.3-1.6h-4.2
		c-2.3-0.1-7.8-0.4-12.2-0.7c-7.6-0.7-8.2-0.8-12.1-2.6c-2-1-3.2-1.7-4.5-2.7l0,19.2H142.7z"/>
	<path fill="#C10000" d="M102.9,121l0,2.2l4.9,2l4.1,4.4c5.1,5.6,15.3,13.6,25.4,20c2.2,1.4,4,2.6,5.6,3.7V121H102.9z"/>
	<path fill="#C10000" d="M142.7,121h49.9V81h-49.9h-39.9h-30c0.3,2.8,0.7,4.2,1.5,5.9c0.6,1.5,1.7,4.8,2.4,7.3
		c0.7,2.5,2.1,6.8,3.1,9.6l1.9,5.2l5.8,5.1c4.7,4.1,5.8,5,10.2,6.9h5.2H142.7z"/>
</g>
</svg>
