<?xml version="1.0" encoding="utf-8"?>
<!-- Generator: Adobe Illustrator 17.1.0, SVG Export Plug-In . SVG Version: 6.00 Build 0)  -->
<!DOCTYPE svg PUBLIC "-//W3C//DTD SVG 1.1//EN" "http://www.w3.org/Graphics/SVG/1.1/DTD/svg11.dtd">
<svg version="1.1" id="flag-icon-css-tr" xmlns="http://www.w3.org/2000/svg" xmlns:xlink="http://www.w3.org/1999/xlink" x="0px"
	 y="0px" viewBox="0 0 640 480" enable-background="new 0 0 640 480" xml:space="preserve">
<g>
	<path fill="#E30A17" d="M330.3,359.7l2.5,5.9c2.7,6.3,2.9,7.7,1.9,10.8c-1,2.9,0.5,4.2,5,4.5c3.3,0.2,3.4,0.2,3.9-1.8
		c0.4-1.1,1.1-2.2,1.7-2.4c0.6-0.2,1.8-0.9,2.7-1.6c1.5-1.1,1.6-1.7,1.6-5.6v-4.3h2.7c1.6,0,3.5,0.2,4.4,0.6
		c1.3,0.5,1.9,0.3,3.4-1.2l1.9-1.9l-1.8-0.9c-3.1-1.6-4.5-4.4-4.1-7.3c0.2-1.4,0.6-4.3,0.9-6.4c0.3-1.8,0.6-3.3,1.2-4.7
		c-8.2,6.1-17.2,11.1-26.9,15L330.3,359.7z"/>
	<path fill="#E30A17" d="M638.4,310.6c-0.9-0.4-2.4-1.9-3.4-3.3c-0.9-1.5-2.2-3.2-2.8-4c-0.8-0.9-1.2-2.9-1.6-6.9
		c-0.4-5.4-0.5-5.5-2.1-5.7c-1-0.1-1.9-0.7-2.1-1.4c-0.5-1.6-3.4-3.1-6.1-3.1c-1.9,0-2.2-0.2-2.4-2c-0.2-1.1,0.1-2.7,0.5-3.5
		c0.5-0.9,0.9-1.9,0.9-2.3c0-0.4,0.7-1.3,1.6-2.1c0.9-0.8,1.6-2.2,1.6-3.1c0-0.8,0.6-2.7,1.3-4.2c1.7-3.5,1.4-4.8-1.1-5
		c-1.1-0.1-2.3-0.6-2.7-1.1c-0.7-0.9-1.8-7.7-2.2-15.3c-0.3-4.1-0.5-4.8-1.7-5.3c-2.1-0.9-3-3.3-2.6-6.9c0.5-4,0-5.5-1.9-6.4
		c-1.1-0.5-1.6-1.2-1.6-2.5c0-1-0.3-2.7-0.7-3.9c-0.6-1.6-0.6-2.1,0.1-2.6c1.1-0.7,4.1-0.7,5.5,0c0.7,0.4,1.7,0.1,3.7-1.1
		c2.6-1.6,2.6-1.7,2.6-5.1c0.1-5.4,0.9-8,3.4-10.3c1.2-1.1,2.2-2.3,2.2-2.7c0-0.3-1.8-2.6-4-4.9l-4-4.3l-7.7-0.1
		c-10.5-0.1-17.9-2.1-16.1-4.3c0.5-0.6,0.5-0.9,0-1.2c-0.9-0.6-3.7-7-3.7-8.3c0-0.6-0.4-1.6-0.9-2.4c-0.8-1.2-0.7-1.5,0.9-3.7
		c1-1.4,2.3-4,2.9-6c1-3.2,1-3.6,0.1-6.2c-0.6-1.5-1.1-3.3-1.1-4c0-1.9-2.1-4.4-5.4-6.2c-1.9-1.1-2.7-2-2.7-3c0-0.7-0.4-2-1-2.7
		c-0.7-1.1-1.6-1.4-4.3-1.4c-3.1,0-3.5-0.2-4.2-1.7c-0.5-0.9-0.8-2-0.6-2.4c0.1-0.3-0.9-1.1-2.3-1.7c-1.5-0.6-3.4-2.2-4.5-3.9
		c-1.4-2-2.3-2.7-3.2-2.5c-0.9,0.2-1.5-0.2-2.2-1.7c-0.9-1.8-1.2-2-4.1-2.2s-3.4,0-4.5,1.5c-0.7,0.9-1.3,2.1-1.3,2.7
		c0,1.9-0.9,2.7-2.6,2c-0.8-0.4-5.1-0.9-9.5-1.2l-8-0.6l-1.6,1.8c-1.4,1.7-1.6,1.7-2.6,0.9c-0.6-0.5-1.7-0.9-2.7-0.9
		c-0.9,0-2.4-0.3-3.4-0.7c-1.7-0.6-1.9-0.5-5.8,3.7c-3.2,3.4-4.5,4.5-6.4,4.8c-1.2,0.2-3.7,1.6-5.4,2.9c-1.9,1.6-3.7,2.4-4.8,2.4
		c-3.2,0-6,1.2-8.3,3.4c-2.4,2.3-4.9,3.5-7.2,3.5c-0.8,0-1.8,0.4-2.3,1c-0.4,0.6-2.5,1.8-4.5,2.9c-3.6,1.9-3.9,1.9-5.5,0.9
		c-1-0.6-3.2-1-5-1c-2.4,0-4.8-0.7-9.6-2.7c-5.5-2.4-6.6-2.7-8.7-2.2c-1.3,0.3-3.7,0.6-5.2,0.6c-1.6,0-6.9,1.3-12.5,3.1
		c-5.3,1.7-10.8,3.2-12.3,3.5c-2.9,0.5-10.4-0.4-16.8-2c-3.7-0.9-3.9-1-4.2-3.4c-0.4-2.4-0.4-2.4-3.1-2.4c-2.2,0-2.8,0.2-3.1,1.3
		c-0.4,1.1-0.7,1.2-2.7,0.9c-1.2-0.2-3.1-0.8-4-1.3c-1-0.5-3.9-1.2-6.5-1.7c-4.5-0.7-4.7-0.8-6.2-3.4c-2.3-3.9-4.5-5.2-9.7-5.6
		l-4.4-0.4l-2.4,2.4c-2.3,2.2-2.4,2.3-4.7,1.6c-1.7-0.6-2.6-1.3-3.2-2.8c-0.6-1.6-1.4-2.2-3.2-2.6l-2.4-0.6l-0.4-4.5
		c-0.2-2.4-0.9-5.2-1.5-6c-1.4-2.2-5.5-2.7-11-1.3c-5.6,1.4-10.3,1-14.1-1.4c-3.4-2.1-6.6-6.5-7.1-10c-0.5-2.9-2.8-6.6-4.4-6.9
		c-0.6-0.1-1.7,0.4-2.4,1.3c-2.9,3.7-4.4,4.1-15.1,4.1c-7.3,0-10.4-0.2-12-0.9c-1.2-0.5-3.5-0.9-5.1-0.9s-6.1-0.4-10-1
		c-3.9-0.6-8.1-0.9-9.3-0.7c-4.8,0.6-10.5,2.6-12.5,4.2c-1.7,1.4-3.5,1.9-8.3,2.7c-4.5,0.7-6.8,1.4-9,2.8c-1.6,1-3.7,2.1-4.7,2.2
		c-1,0.2-3.1,1.5-4.7,2.8c-1.6,1.3-4,2.7-5.5,3.1c-1.5,0.4-4.4,2.1-6.5,3.9c-3.7,2.9-5.5,3.9-12,6.7c-2.4,1.1-2.9,1.6-3.8,4.4
		c-0.9,2.7-1.5,3.4-3.6,4.5c-2.3,1.2-3.4,1.3-11.3,1.1c-8.8-0.2-8.8-0.2-13.2-2.6c-5.7-3.1-8.3-3.5-10.6-1.9
		c-0.9,0.7-2.9,1.4-4.4,1.7c-2.9,0.4-10.8-0.5-15.4-1.9c-5.9-1.7-14-2.8-15.3-2.1c-1.7,0.9-1.9,0.8-1.9-0.9c0-1.8-0.2-1.9-1.9-0.8
		c-1.1,0.7-2.5,0.2-11.5-4.4c-8.6-4.4-10.9-5.9-14.6-9.5c-2.5-2.4-4.5-5-4.8-6c-0.2-0.9-0.9-2.8-1.6-4c-1.4-2.8-1.5-5.4-0.2-5.9
		c1.6-0.6,1.1-2.1-1.1-3.4c-2.7-1.6-5.2-1.6-6.2,0.1c-0.4,0.9-1.1,1.2-1.9,0.9c-0.7-0.1-2.4,0.2-3.6,0.9l-2.3,1.2l-2.1-2.9
		c-3.2-4.8-8.5-8.2-9.7-6.4c-0.2,0.3-1.2,0.6-2.2,0.6c-1,0-2-0.3-2.2-0.6c-0.6-1-1.9-0.7-3.2,0.7c-1.7,2-3.2,2.6-7.7,3.1
		c-3.9,0.5-4.2,0.7-6.6,3.4c-1.6,1.8-3,2.9-3.9,2.9c-2.1,0-5.1,3.6-4.2,5c0.2,0.3,2.3,1.7,4.7,3.1l4.4,2.6v4c0,2.6-0.4,4.5-0.9,5.5
		c-1.2,1.7-6.2,5.1-8.7,5.7l-1.8,0.4l0.4,5.2c0.5,6.3,0.2,7.1-5.5,12.7c-3.1,3-4.1,4.4-4.1,5.7c0,1.4,0.4,1.8,2.4,2.3
		c1.2,0.3,4.6,0.8,7.4,1.1c4.4,0.3,5.4,0.2,6.9-0.7c3.7-2.4,8.3-2.3,8.3,0.2c0,0.9-1.2,1.6-4.7,2.9c-2.6,0.9-5.9,2.6-7.3,3.6
		c-1.5,1.1-3.8,2.4-5.2,3c-2.4,1-2.5,1.1-2.6,4c0,1.7-0.6,4.3-1.3,5.9c-0.7,1.5-1.2,2.9-1,3.1c0.1,0.2,1.9-1.2,3.9-3.1
		c1.9-1.9,5.2-4.7,7.2-6.2c2-1.5,4.2-3.4,4.8-4.2c1.4-1.9,9.9-5.8,12.4-5.8c1.4,0,2.3-0.6,3.6-2.2c1.1-1.4,2.6-2.4,4-2.8
		c2.6-0.7,7.4-5.7,9.4-9.8c1.1-2.1,1.6-2.6,3-2.6c0.9,0,2.5-0.3,3.5-0.6c1.5-0.6,2.6-0.4,5,0.5l3.2,1.2l2.6-1.7
		c2.3-1.6,3.3-1.8,6.8-1.8s4.8,0.3,8.7,2.3c4.9,2.5,6.4,2.7,13.9,1.7l3.6-0.5l2.6,2.9c1.5,1.6,2.9,2.9,3.2,2.9
		c0.3,0,1.9,1.3,3.5,2.9l2.9,2.9l7,0.6c8.5,0.7,10.2,1.5,2.2,1c-3.5-0.2-6.6,0-8.4,0.5c-1.6,0.4-5.5,1.2-8.9,1.7
		c-4.4,0.7-6.8,1.4-8.6,2.6c-2.9,2-3.1,3-0.6,4.7c1.5,1.1,2.4,1.2,4.3,0.9c2.1-0.4,2.6-0.2,3.2,0.9c0.6,1.1,0.5,1.3-0.3,1.3
		c-0.5,0-0.9,0.4-0.9,1c0,0.9-0.5,1-3.9,0.6c-7-0.8-13.7-1.2-23.7-1.2c-9.9,0-12.2-0.6-8.8-2.1c2.7-1.2,1.9-2.9-2.1-4
		c-2-0.6-4.2-1-4.9-1c-1.3,0-1.3,0.1-0.3,2.6c0.5,1.5,1.4,3.2,1.9,3.7c1.5,1.8-1.1,2.6-7.8,2.2c-5.6-0.3-6-0.4-8-2.4
		c-1.2-1.1-2.1-2.4-2.1-2.9c0-0.7-0.6-0.8-3.2-0.5c-1.7,0.2-3.7,0.7-4.3,1.1c-1.4,0.7-5.3,0.7-8-0.1c-2.4-0.7-3.8,0.1-8.8,4.7
		c-1.6,1.4-3.4,2.8-4.2,3c-1,0.3-1.6,1.4-2.4,4.1c-1,3.5-1.1,3.6-3.7,4c-2.2,0.4-2.8,0.7-3.3,2.1c-1.3,3.4-2,6.7-2,10.1
		c0,1.9-0.6,5.2-1.2,7.4c-1.5,4.7-1.1,5.5,2,4.5c3.4-1.2,15.5-3.2,19.9-3.2c3.5,0,4.3,0.2,4.8,1.2c0.6,1,0.1,1.6-2.7,4
		c-2.4,2.1-3.9,2.9-5.3,2.9c-1.6,0-1.9,0.2-1.9,1.6c0,0.9,0.6,1.9,1.6,2.6c0.9,0.6,1.6,1.6,1.6,2.2c0,0.6,0.8,2.1,1.8,3.2
		c2.5,2.9,2.9,4.4,1.3,5.8c-2.4,2.2-0.9,4,3.4,4c2.7,0,3.7,2.1,1.7,3.5c-1.7,1.2-3.8,3.4-3.8,4c0,0.7-4.2,0.6-4.7-0.1
		c-0.9-1.4-1.6-0.4-1.6,2.1c0,2.2,0.3,3.1,1.6,4c1,0.8,1.6,1.9,1.6,3c0,2.6,0.5,3.1,5.3,5.3l4.4,2l-3.1,0.6
		c-3.6,0.6-7.5,0.1-9.5-1.1c-1.9-1.2-1.9-1.2-2.2,1.1l-0.2,2.1l-1.4-2.6c-1.2-2.1-1.3-2.9-0.7-4.4c0.6-1.7,0.4-2.3-1.6-5.4
		c-1.9-3-2.5-3.5-4.1-3.5H9.7v4.4c0,2.8,0.4,5.1,1,6.4c1.2,2.2,0.4,3.1-2.4,2.9c-1.4-0.1-2,0.2-2.8,1.5c-0.9,1.6-0.9,1.7,0.2,2.9
		c0.6,0.7,1.9,1.3,2.7,1.3c1,0,2.5,0.9,4.2,2.6l2.6,2.6l1.7-1.7c2.4-2.4,5.5-2.2,6.9,0.2c0.5,1,0.9,2.7,0.9,3.7
		c0,1.8,0.2,1.9,1.8,1.8c1.1-0.1,2.7,0.4,4.3,1.4c1.4,0.9,3.2,1.9,4.1,2.1c1.9,0.4,2.5,1.1,3.3,3.7c1,2.9-0.6,5-4.9,6.7
		c-2,0.8-3.6,1.6-3.6,1.8c0,0.2,0.7,0.6,1.5,0.8c2,0.5,3.5,4.9,3.5,10.4c0,3.4,0.2,4.2,1.1,4.6c0.7,0.2,1.6-0.2,2.7-1.5
		c1.8-2.2,4.8-2.8,3.7-0.7c-1,1.9-0.7,3.2,0.6,3.2c0.8,0,1.1,0.3,0.9,0.9c-0.3,0.7,0.2,1.1,1.6,1.3c1.9,0.4,1.9,0.6,1.8,3.1
		c-0.2,2.5-0.4,2.8-2.2,3.4c-1.5,0.5-2.6,0.4-4.2-0.1c-1.9-0.7-2.3-0.6-4,0.6c-1.7,1.3-1.8,1.5-1.2,3.5c0.6,1.9,0.8,2.1,1.8,1.4
		c0.8-0.5,1.7-0.4,3.5,0.1c1.6,0.6,4.3,0.7,8.6,0.4c16.8-1.1,22.2-1.1,22-0.2c-0.2,0.4-1,0.9-1.9,1c-0.9,0.1-1.9,0.6-2.3,1.1
		c-0.4,0.5-1.6,0.9-2.6,0.9c-1.5,0-1.9,0.4-2.5,2.5l-0.7,2.5l-3.8,0.1c-2.1,0.1-5.2,0.2-6.9,0.2c-1.9,0-4.8,0.7-7.7,1.8
		c-4.1,1.7-4.5,1.9-3.5,2.7c1.5,1.1,8.7,1.1,9.4,0c0.2-0.4,1.3-1.3,2.3-1.9c1.4-0.9,2.1-1,3.3-0.4c1.9,0.9,5.3,0.9,7.3-0.1
		c0.9-0.4,1.7-0.5,2-0.2c0.7,0.7-0.7,2.5-2.4,2.9c-1.2,0.3-1.3,0.4-0.4,0.8c1.3,0.5,1.4,2.3,0.1,2.3c-0.7,0-2.2,1.7-2.2,2.7
		c0,1.2,3,0,5.5-2.3c1.6-1.5,3.7-3,4.7-3.4c1.2-0.6,1.7-1.1,1.4-1.9c-0.2-1,0.2-1.2,3.2-1.6c5.4-0.6,7.3,0,8.2,2.5
		c0.6,1.6,1.4,2.4,3,3.1c1.3,0.5,2.7,1.6,3.4,2.2c0.9,1.2,1.2,1.2,2,0.6c0.6-0.4,1-1.2,1-1.6c0-0.4,0.4-1.4,1-2.1l0.9-1.4l2.6,2
		c2.1,1.7,2.3,2.1,1.5,2.6c-1.4,0.7-1.2,2.7,0.2,3.7c0.9,0.7,1.2,1.6,1.2,4.4l-0.1,3.6l3.7,3.4c2.6,2.4,4,3.2,4.9,3.1
		c0.8-0.2,1.7,0.2,2.4,0.9c0.9,0.9,1.9,1.3,3.8,1.3c2,0,2.9,0.4,3.9,1.6c1.7,1.9,2.8,1.9,5.4,0c1.1-0.9,2.7-1.6,3.7-1.6
		c2,0,6.7-2,7.8-3.3c0.7-0.9,1.1-0.9,3.3-0.1c1.4,0.5,3.3,1.4,4.4,2c2.2,1.3,2.7,0.9,3.7-3.9c0.4-1.7,1.2-4,1.9-5.3
		c0.8-1.3,1.4-3.6,1.6-5.9c0.4-7.3,0.9-9,2.8-10.3c1.7-1.2,2-1.2,4.4-0.3c1.7,0.7,4.4,1,8.6,1c4.8,0,6.9,0.3,9,1.2
		c1.6,0.6,2.9,1.5,2.9,1.8c0,0.3,0.9,0.8,2.1,1c1.1,0.2,3,1.2,4.2,2.2c1.2,0.9,5.7,3.5,10,5.6c8.4,4.2,9,4.7,14,12.1
		c4.2,6.3,7.3,9.7,9,9.7c0.7,0,2.1,0.6,3.1,1.3c2.7,2,6.3,2.2,9.7,0.6c2.4-1.2,3.2-1.3,4.5-0.7c1.6,0.7,2.6,0.2,2.7-1.4
		c0-0.2,3.6-0.4,8-0.4c6.4,0,8.2-0.2,8.8-0.9c0.9-1.1,2.6-1.2,3.5-0.3c0.4,0.4,1.4-0.3,3-1.9C204.1,353,163,304.9,163,247.4
		c0-66.3,54.6-119.8,122-119.8c43.4,0,81.5,22.3,103.1,55.8c14,15.3,23.1,35.1,24.7,56.9l16.9-4.6l1-44.3v-0.1l25.8,37l43.5-12
		l-28.3,33.9l23.2,34.1l-40.2-14l-26.5,31.8l1-40.7l-16.6-5.9c-1.8,21.3-10.7,40.7-24.4,55.7c-7,10.9-15.7,20.6-25.7,28.7
		c0.2,0.1,0.3,0.2,0.5,0.3c1.3,0.7,3.1,1.3,4,1.3c3.4,0,4.5,0.7,4.2,2.6c-0.4,2.6,1.7,4,4.5,3.1c1.1-0.4,4.2-0.7,6.8-0.7
		c3.9,0,5-0.2,5.9-1.2c1.2-1.4,6-3.2,8.4-3.2c0.9,0,3.1-0.9,4.7-1.9c6.8-4,9.3-5,12.6-5c4.1,0,8.8,2.2,12.1,5.9l2.4,2.6l13.6-0.1
		c16.9-0.1,21.4-0.7,28.9-4c3.2-1.4,7.5-3.2,9.5-4.1s4.7-2.5,5.9-3.7c1.2-1.1,3.2-2.5,4.4-3c1.2-0.5,2.7-1.5,3.4-2.2
		c0.7-0.8,1.9-1.3,3.2-1.3c1.1,0,3.4-0.3,5-0.7c2.5-0.6,4.2-0.5,9,0.3c7.3,1.2,11.1,1.2,13.9,0.1c1.2-0.5,3.5-1.1,5.1-1.3
		c5.5-0.7,12.5-3.4,14-5.3c0.8-0.9,2.4-2.2,3.5-2.7c1.9-1,2.2-1,4,0.1c1.6,0.9,2.1,1.7,2.3,3.7c0.2,1.8,0.6,2.4,1.4,2.4
		c0.6,0,1.9-0.1,3-0.1c2.4-0.1,5.6-3.4,6.8-7c0.4-1.4,1.5-2.9,2.4-3.5c1.4-0.9,1.7-0.9,4.2,0.1c2.6,1,2.9,1,5.8-0.1
		c2.4-0.9,3.4-0.9,5-0.3c1.1,0.4,3,0.7,4.2,0.7c1.1,0,3.2,0.7,4.5,1.6c1.3,0.9,2.9,1.4,3.4,1.2c0.5-0.2,1.4-0.1,1.9,0.4
		c0.6,0.5,2.5,0.7,5.7,0.5c4.4-0.2,4.9-0.4,6.2-2c1.4-1.7,1.6-1.8,5.1-1.4c2.6,0.2,3.9,0.7,4.7,1.7c1.2,1.4,1.4,4,0.4,4.6
		c-1.2,0.7-0.6,3.8,0.9,5.3c1.2,1.2,1.9,1.4,2.7,0.9c0.6-0.4,1.1-1.2,1.2-2c0.1-0.8,1.1-1.6,2.8-2.3c1.4-0.6,3.5-1.9,4.6-2.9
		c1.3-1.1,2.8-1.8,4-1.8c1.2,0,2-0.4,2.2-1.1c0.2-0.6,0.8-1.6,1.3-2.1C639.9,311.2,639.9,311.1,638.4,310.6z"/>
	<path fill="#FFFFFF" d="M217.9,247.4c0-53,43.7-95.8,97.6-95.8c28.8,0,54.8,12.3,72.6,31.8c-21.6-33.6-59.7-55.8-103.1-55.8
		c-67.4,0-122,53.5-122,119.8c0,57.5,41.1,105.6,96.1,117.3c0.2-0.2,0.4-0.4,0.6-0.6c3.4-3.4,4.3-3.7,5.4-1.7l0.7,1.3l1.1-1.6
		c0.5-0.9,1.4-1.7,2.1-1.7c0.9,0,1-0.4,0.7-1.8c-0.3-1.6,0.2-2.3,4.9-6.9c2.8-2.8,6.3-5.8,7.7-6.7s3.2-2.2,4-3.1
		c1-0.9,2.1-1.3,4.4-1.6C248.7,329.4,217.9,291.9,217.9,247.4z"/>
	<path fill="#FFFFFF" d="M388.3,311.3c-12,13.2-27.6,23.1-45.3,28.2c0.4,1.2,0.5,3.1,0.4,4.9c-0.2,2.9-0.6,3.9-2.4,5.6
		c-1.1,1.1-2.8,2.4-3.7,2.8c-0.9,0.4-2.9,2.1-4.3,3.7l-1.6,1.8c9.6-3.9,18.7-9,26.9-15c0.5-1.2,1.1-2.3,1.9-3.5
		c0.4-0.6,0.9-0.6,2.4,0.2C372.6,331.9,381.3,322.2,388.3,311.3z"/>
	<path fill="#FFFFFF" d="M300.7,342.3c0.6,0.3,1,0.6,1.2,0.6c0.4,0,2.1,1.1,3.8,2.5c1.6,1.4,3.4,2.5,3.9,2.5c0.6,0,1.9,0.6,3.1,1.3
		c1.6,1,2.4,1.1,3.3,0.6c0.7-0.4,2.4-0.7,3.9-0.7c1.5,0,3-0.2,3.4-0.5c0.8-0.5,1.9-3.7,2.1-5.7c-3.2,0.3-6.5,0.5-9.9,0.5
		C310.5,343.4,305.5,343,300.7,342.3z"/>
	<path fill="#E30A17" d="M388.3,311.3c13.7-15.1,22.6-34.4,24.4-55.7l-24.2-8.6l24.4-6.6c-1.6-21.8-10.7-41.6-24.7-56.9
		c-17.9-19.6-43.8-31.8-72.6-31.8c-53.9,0-97.6,42.8-97.6,95.8c0,44.5,30.8,82,72.7,92.8c0.6-0.1,1.2-0.1,1.9-0.2
		c4.5-0.4,4.9-0.3,6.7,1.2c0.5,0.4,1,0.8,1.4,1c4.8,0.7,9.8,1.1,14.8,1.1c3.3,0,6.6-0.2,9.9-0.5c0-0.1,0-0.3,0-0.4
		c0-1.2,0.3-1.5,1.6-1.5c1.1,0,2.8-1.1,5.4-3.4c2-1.9,3.9-3.4,4.3-3.4c1.4,0,5.5,3.4,6.2,5c0,0.1,0.1,0.2,0.1,0.3
		C360.7,334.5,376.3,324.5,388.3,311.3z"/>
	<polygon fill="#FFFFFF" points="388.4,247 412.6,255.6 429.2,261.5 428.2,302.2 454.7,270.4 494.9,284.4 471.7,250.3 500,216.4 
		456.5,228.4 430.7,191.4 430.7,191.5 429.7,235.8 412.8,240.4 	"/>
</g>
</svg>
