<?xml version="1.0" encoding="utf-8"?>
<!-- Generator: Adobe Illustrator 17.1.0, SVG Export Plug-In . SVG Version: 6.00 Build 0)  -->
<!DOCTYPE svg PUBLIC "-//W3C//DTD SVG 1.1//EN" "http://www.w3.org/Graphics/SVG/1.1/DTD/svg11.dtd">
<svg version="1.1" id="flag-icon-css-tt" xmlns="http://www.w3.org/2000/svg" xmlns:xlink="http://www.w3.org/1999/xlink" x="0px"
	 y="0px" viewBox="0 0 640 480" enable-background="new 0 0 640 480" xml:space="preserve">
<g>
	<path fill="#FFFFFF" d="M233,214.5c-1.2,0-1.4-0.2-1.4-1.2c0-1.3-0.4-1.5-3.6-2.1l-1.9-0.3v2.8v2.8l-4.7,0.8
		c-4.7,0.9-4.7,0.9-6.6-0.3l-1.9-1.1l-2.2,1.7c-0.2,0.2-0.5,0.3-0.7,0.5l187.6,193.8c0.3-2,0.8-6.8,1-11.2c0.4-7.9,1-11.7,2.8-14.8
		l-166.7-172C234.2,214.2,233.6,214.5,233,214.5z"/>
	<path fill="#FFFFFF" d="M361.8,192.9c-2.2,0.7-4.6,1-8.3,1c-5,0-5.4,0.1-7.3,1.5c-0.7,0.6-3.1,1.9-6,3.4l46.6,47.7
		c0.1-0.3,0.3-0.6,0.4-0.8c0.6-1,1.4-2.7,1.6-3.9l0.6-2l4.7-0.4l4.7-0.4l3.2-3.4c0.4-0.4,0.8-0.9,1.2-1.3l-40.4-41.7
		C362.4,192.7,362.1,192.8,361.8,192.9z"/>
	<path fill="#E00000" d="M144.5,240.8c-0.7,1.2-1.3,2.3-1.3,2.5c0,0.6,2,0.4,5.7-0.8c3.5-1,3.7-1.1,4.2-3l0.5-1.9l-1.8,0.1
		c-1,0.1-2.8,0.3-3.9,0.6C146.2,238.5,145.6,239,144.5,240.8z"/>
	<path fill="#E00000" d="M202.4,219.7c-3.5,0.2-7.3,0.7-8.7,1.1c-1.7,0.5-4.8,0.8-10,0.8c-7.3,0-7.6,0.1-9.9,1.4
		c-3.6,2.1-9.3,6.7-9.9,8.1c-0.5,1.1-0.7,1.2-4.4,0.8l-3.8-0.4l0.3,1.2c0.2,0.6,0.4,1.6,0.4,2s0.6,1.5,1.3,2.4
		c1.2,1.4,1.3,1.8,1,4.7l-0.3,3.2l1.8,0.6c1.6,0.5,2,0.4,3-0.4c0.7-0.5,1.9-1,2.7-1c1.3,0,1.6,0.3,2.9,3.3c0.8,1.8,1.6,3.3,1.9,3.3
		c0.9,0,4.9-1.6,4.9-2c0-0.2-0.7-0.9-1.6-1.6l-1.6-1.2l2.7-1.4c3.3-1.7,4-1.8,5.2-0.5c0.6,0.6,1.6,1,2.6,1c0.9,0,2.5,0.4,3.6,0.8
		c1,0.5,4,1,6.6,1.1c5.5,0.4,8.9,1.7,11.2,4.5c0.8,1,2.5,2.3,3.8,3.1c1.3,0.8,3.7,2.4,5.3,3.6c2.9,2.3,2.9,2.3,2.9,5
		c0,2.4,0.3,3.1,2.5,6.4c3.2,4.7,9.2,20.1,10.5,26.7l0.9,4.7l-1.6,2.4c-1.2,1.8-1.9,3.8-2.7,7.4c-0.6,2.8-1.9,8.1-2.8,11.8
		c-1,3.7-2,8.5-2.3,10.5c-0.5,3.1-0.8,4-2,4.9l-1.4,1.2l1.2,1c0.7,0.6,1.5,1,1.9,1c0.5,0,0.6,0.4,0.5,0.9c-0.1,0.5-0.5,2.2-0.9,3.8
		l-0.6,2.9l2.3,3c1.3,1.7,2.4,3.5,2.4,4.1c0,2,2.1,8,3.5,10.4c1.1,1.8,1.6,3.4,2,7.1c0.3,2.6,0.8,6.3,1.1,8.1
		c0.4,3.1,0.4,3.5-1.1,6.7c-0.8,1.9-1.9,4.7-2.3,6.4c-1,3.9-3.6,7.1-6.6,8.1c-1.2,0.5-3.6,1.9-5.3,3.2c-4,3.2-4.2,3.3-9.6,4.8
		c-4.1,1.1-5,1.2-9.3,0.8c-6.4-0.6-9.7-1.5-13.4-3.7c-3-1.7-3.3-1.8-7.7-1.8h-4.6l-1.7,1.8c-1.5,1.6-1.7,2.1-1.7,4.3
		c0,2.3-0.3,2.9-2.4,5.5c-2.9,3.5-10.3,8.9-13.4,9.5c-1.1,0.3-2.6,0.6-3.2,0.7c-0.8,0.2-1.2,0.8-1.4,2.3c-0.3,1.6-0.9,2.4-2.7,3.9
		c-5.1,4.2-12.8,6.1-24.8,6.1c-3.8,0-6.9,0.2-7.1,0.4c-0.8,1.3-4.9,3.4-9.9,5.1c-5.3,1.8-5.7,2.1-6,3.4c-0.5,2.2-4,8.2-5.7,9.7
		c-1.4,1.2-2.1,1.4-6.4,1.7c-2.7,0.2-6.2,0.8-7.7,1.3c-1.6,0.6-4,1-5.3,1c-4,0-5.7,1.6-8.3,7.3c-1.4,3.1-2.2,5.6-2.2,6.8v2l4.9-0.2
		c5.3-0.2,5.9-0.4,13.6-4.9c2.1-1.2,4.8-2.5,6-2.9c1.2-0.4,2.9-1.2,3.8-1.9c2.5-1.9,7.4-4.2,10.9-5.1c3.9-1,5.3-0.7,11.2,2.5l4,2.2
		l2.6-1.3c1.4-0.8,3.9-1.6,5.5-2c4.2-0.9,16.5-0.4,22,0.9c2.4,0.5,5.5,1,6.9,1c2.5,0,2.6,0.1,4.1,2.4c0.9,1.3,2.2,3.1,3,4.1
		c1.5,1.7,1.5,1.7,4.1,1.1c1.4-0.3,3.4-0.6,4.4-0.6c1,0,4.2-0.6,7-1.3c2.9-0.7,6.1-1.3,7.1-1.3c1.1,0,2.9-0.4,4-0.8
		c1.7-0.7,3.4-0.8,10.7-0.5c26.3,1,24.4,1,28.7-0.2c3.4-1,4.7-1.1,8.8-0.8c6.9,0.5,9,0.5,16.1,0c5.1-0.3,7.7-0.2,13.1,0.5
		c6.7,0.9,6.7,0.9,13.4-0.2c4.6-0.8,7.2-1.5,8.2-2.2c1.7-1.2,6.5-2.4,9.8-2.4c1.2,0,5.9,1.1,10.5,2.5c5.7,1.7,9.7,2.6,12.5,2.9
		c4.2,0.3,4.2,0.3,6.2-1.3c2.3-1.8,3.4-1.9,10.6-0.8c3.6,0.6,5.6,0.6,7.5,0.3c1.5-0.3,3.5-0.5,4.5-0.5c1.3,0,3.3-0.8,6.1-2.2
		c2.3-1.2,5.5-2.7,7.1-3.4c2-0.8,3.2-1.6,3.7-2.5c0.7-1.4,1.3-1.6,6-2.3c5.4-0.7,9.5-3.5,10.8-7.4c0.5-1.3,1.5-2.5,3-3.6
		c1.3-0.9,3.1-2.6,4.2-3.8c2.2-2.4,2.7-2.5,8.2-0.5c2.1,0.7,3.3,1.4,3.5,2.1c0.2,0.6,0.7,1.8,1.1,2.7l0.7,1.7l1.5-1.1l1.5-1.1
		l-2.3-4.4c-3-6.1-4.6-12.8-3.9-16.7c0.4-2,0.4-4,0-6.6c-0.4-2.9-0.4-4.5,0.1-6.7c0-0.1,0.1-0.3,0.1-0.5L210.1,218.1
		C208.5,219.3,207.8,219.4,202.4,219.7z"/>
	<path fill="#E00000" d="M573.2,5c-1.2-0.5-1.8-1.1-2-1.9c-0.2-1.1-0.4-1.2-3.7-1.3c-1.9-0.1-4.3,0.2-5.3,0.6
		c-1.9,0.7-1.9,0.8-1.3,4.1c0.3,1.8,0.2,2.2-0.8,2.8c-2.3,1.6-4,1.5-8.2-0.2c-3.7-1.4-4.3-1.5-7.8-1.2c-2.7,0.3-4.4,0.7-6,1.6
		c-3.4,2-6.1,4.6-6.1,6c0,1.2-0.2,1.2-2.9,1.2c-2.4,0-3.8,0.4-7.9,2.3c-2.8,1.3-6.8,2.8-9.1,3.4c-4,1-4.1,1.1-5.9,3.8
		c-3.4,5.1-6.9,8.3-11,9.9c-6.6,2.5-7.1,2.9-10.3,7.7c-1.7,2.5-3.7,5-4.6,5.6c-0.9,0.7-2.8,2.6-4.3,4.5c-2.3,2.8-3.2,3.5-5.6,4.3
		l-2.9,1l-0.2,2.6c-0.2,2.4-0.3,2.7-1.4,3c-0.7,0.2-1.7,1-2.2,1.7c-0.9,1.3-1.2,1.4-2.9,1c-3.8-0.9-3.8-0.8-3.5,2.4
		c0.7,6,0.3,5.6,5.5,5.8c4.4,0.2,4.8,0.3,7.4,2.1c2.1,1.4,3.3,1.9,4.9,1.9c1.8,0,2.2-0.2,2.2-1s0.4-1,1.9-1.2c1.6-0.1,1.9-0.4,2-1.4
		c0.1-0.7,0.9-2,1.7-3c0.8-0.9,1.7-2.2,2-2.9c0.4-0.7,1.5-1.5,2.8-2.1c1.3-0.5,2.9-1.4,3.8-2.1c1.4-1.2,1.6-1.2,4.3-0.6
		c5.6,1.3,6.5,1.3,7-0.1c0.3-0.8,1-1.4,1.6-1.5c0.8-0.1,1.3-0.7,1.7-2.2l0.6-2l9-0.3c11.2-0.4,13.7-1.1,15.8-4.3
		c0.8-1.3,2.2-2.6,3.6-3.4c1.3-0.7,3.2-2.2,4.3-3.4c1.3-1.5,2.6-2.3,3.9-2.7c1.8-0.5,2.1-0.8,2.2-2c0.1-0.9,0.8-2.1,1.5-2.9
		c0.7-0.7,1.1-1.6,1-1.9c-0.4-0.7,4.4-0.7,7.6-0.1c1.8,0.4,2.3,0.3,3.6-0.8c1.3-1,1.6-1.6,1.6-3.2c0-1.5,0.3-2.2,1.1-2.8
		c1.1-0.7,1.2-0.7,2.1,0.5c1.4,1.8,3.4,1.7,4.9-0.4c1.1-1.5,1.2-2.1,1.2-6.9c-0.1-2.9-0.3-6.1-0.5-7.2c-0.4-1.8-0.3-2.1,1.2-3.6
		c1-1,2.1-2.9,2.6-4.4c0.5-1.5,1-3.1,1.2-3.5C574.8,6,574.5,5.6,573.2,5z"/>
	<path fill="#E00000" d="M125.1,237.4c-0.2,0.2-0.4,0.7-0.4,1.1c0,0.4-0.5,1.3-1.1,1.9c-0.7,0.8-1.2,2.2-1.5,4.1
		c-0.2,1.6-0.4,3.2-0.5,3.6c-0.2,0.6,0.3,0.8,1.6,0.9c1.6,0.2,1.9-0.1,2.7-1.7c0.5-1,0.9-2.1,0.9-2.5c0-1.1,1.5-1.7,3.6-1.4
		c2.8,0.4,2.6-1-0.7-4C127.2,237.2,125.8,236.6,125.1,237.4z"/>
	<path fill="#E00000" d="M406.9,229.4c0.7-0.1,1.6-1,2.4-2.5c0.7-1.3,2.2-3.1,3.2-4c3.4-3,6.3-7.4,6.3-9.6c0-1.1,0.3-2.4,0.6-3
		c0.4-0.6,0.8-2.4,0.9-3.9l0.3-2.7l3.6-2.1c4.9-2.7,6.7-4.5,6.7-6.6c0-1.1,0.5-2.1,1.3-2.9c2.4-2.4,1.8-2.6-3.8-1.5
		c-1.1,0.2-1.5-0.1-2.5-1.8l-1.2-2l-1.8,0.8c-4.3,1.8-7.1,2.1-13.3,1.4c-15.9-1.8-22.9-1.6-26.2,0.7c-1.2,0.9-2,1.1-3.5,0.8
		c-2.3-0.4-12.3,0.9-16.9,2.1l40.4,41.7c1.2-1.5,2.2-2.9,2.3-3.4C405.7,230.1,406.2,229.5,406.9,229.4z"/>
	<path d="M336.5,200.7l-7.8,4h-9.8c-6.3,0.1-10.1,0.3-10.8,0.7c-0.8,0.5-1.7,0.4-4.3-0.5c-4.2-1.4-8.5-1.9-18-2.4
		c-7-0.4-8-0.5-10.4-1.7c-1.8-0.9-3.4-1.4-5.1-1.4h-2.4l-2.1,3.3l-2.1,3.3h-3.4c-3.1,0-3.5,0.1-5.3,1.8c-1.6,1.4-2.4,1.8-3.9,1.8
		c-2.5,0-5.1,2.2-5.1,4.4c0,1.4-0.2,1.5-2.6,2.1c-4.2,1-5,0.9-5-0.8c0-0.8-0.4-1.8-0.9-2.3c-0.9-0.8-1-0.8-2.1,0.4
		c-0.2,0.3-0.5,0.5-0.8,0.7l166.7,172c0.3-0.5,0.6-1,1-1.6c0.7-0.9,1.8-2.7,2.5-4.2l1.4-2.7l1.4,1.3l1.4,1.3l0.6-2.4
		c0.3-1.4,0.7-2.8,0.9-3.3c0.3-0.7,0.1-0.9-1.1-0.9c-0.8-0.1-2-0.4-2.7-0.8c-1.2-0.7-1.4-0.6-2.3,0.7l-1.1,1.3l-2.3-1.7l-2.3-1.8
		l-5.3-15.8c-6-18-9.3-30.5-9.3-35.2c0-1.8,0.3-4.9,0.6-7l0.6-3.9l3.8-2.2c2.1-1.3,4.3-2.4,5-2.6c1.3-0.4,1.3-0.6,0.4-4.5
		c-0.4-1.7-0.7-4.7-0.8-6.8c0-2.5-0.4-4.8-1-6.8c-0.6-1.6-1.7-7-2.5-12c-0.8-5-2.1-11.7-2.8-14.9c-1.4-6.7-1.6-10.6-0.5-13
		l-46.6-47.7C339,199.4,337.8,200.1,336.5,200.7z"/>
</g>
</svg>
