<?xml version="1.0" encoding="utf-8"?>
<!-- Generator: Adobe Illustrator 17.1.0, SVG Export Plug-In . SVG Version: 6.00 Build 0)  -->
<!DOCTYPE svg PUBLIC "-//W3C//DTD SVG 1.1//EN" "http://www.w3.org/Graphics/SVG/1.1/DTD/svg11.dtd">
<svg version="1.1" id="flag-icon-css-tz" xmlns="http://www.w3.org/2000/svg" xmlns:xlink="http://www.w3.org/1999/xlink" x="0px"
	 y="0px" viewBox="0 0 640 480" enable-background="new 0 0 640 480" xml:space="preserve">
<g>
	<path fill="none" d="M379.5,480c0.9,0.8,1.5,0.9,3,0.9c1.5,0,2.4-0.3,3.5-0.9H379.5z"/>
	<path fill="#0099FF" d="M386.4,479.7c2.9-2.1,5.2-4.5,5.2-5.3c0-1.1,0.4-1.1,1.9,0c0.9,0.7,2.6,0.9,9.1,1.1
		c6.8,0.2,8.2,0.4,9.8,1.3c1.6,0.8,2.8,1,6.6,1c5.1,0,4.2,0.3,12.5-4.6c2.4-1.4,2.5-1.5,3.7-5.3l1.2-3.9l7.1-0.3
		c9.4-0.4,11.8,0.2,13.8,3.4l1.4,2.2l2.5-0.4c1.4-0.3,2.9-0.9,3.6-1.5c1.3-1.2,4.9-2.1,8.5-2.1c2.3,0,2.6-0.2,5.2-2.5l2.9-2.5
		l7.5-0.3l7.5-0.2l2.3-1.6c1.3-0.9,3.3-2,4.7-2.4c1.3-0.4,3.6-1.4,5.1-2.4c1.5-0.9,3-1.6,3.4-1.6c3.3,0,15.2-5.2,20.8-9
		c2-1.3,4.6-3.4,5.8-4.6c2-2,2.4-2.2,4.6-2.2c2.5,0,3.3-0.6,4.8-3.3c0.9-1.7,1.3-5.1,0.7-7c-0.4-1.5-0.4-1.8,0.7-2.9
		c1.6-1.6,1.5-2-0.3-2.8c-1.3-0.5-1.6-0.5-2,0c-0.3,0.4-1.1,0.5-2.4,0.3l-1.9-0.3l-0.1-2.8l-0.1-2.8l-1.7-0.1
		c-1.2-0.1-1.8,0-1.8,0.5c0,0.3-0.2,0.9-0.4,1.3c-0.4,0.6-0.9,0.3-3.1-1.2c-1.4-1-3.3-2.6-4.2-3.5l-1.6-1.8v1.4
		c0,1.1-0.2,1.4-0.9,1.4c-0.7,0-0.9-0.3-0.9-1.4c0-0.8-0.2-2.3-0.6-3.3c-1.1-3.8-5.8-4.4-9-1.3l-1.6,1.5v-1.4c0-1,0.5-1.9,1.8-3.1
		c1-0.9,2-1.7,2.3-1.7s0.6-0.3,0.6-0.7s0.4-1,0.9-1.4c0.8-0.7,0.8-0.9-0.7-5.2c-0.9-2.5-2-5.8-2.4-7.4c-0.6-2.2-1.2-3.2-2.3-4.1
		c-0.9-0.7-1.8-1.7-2-2.3c-0.2-0.7-0.9-1.3-1.6-1.6c-1-0.4-1.1-0.6-0.7-1.2c0.3-0.4,1-0.7,1.4-0.7c0.5,0,1.2-0.6,1.5-1.3
		c0.6-1.1,0.6-1.4,0-2.4c-0.3-0.7-0.7-1.8-0.7-2.6c0-1.8-0.4-2.2-2.2-3.2l-1.5-0.8v1.4c0,1.3-0.1,1.4-1,1.3
		c-0.9-0.1-1.1-0.5-1.2-1.9c-0.1-1.6,0-1.7,1.1-1.7c1.4,0,2.1-1.4,2.1-4.2c0-2.2-1.3-3.3-3.9-3.3c-1.6,0-1.8-0.1-1.4-1.1
		c0.5-1.5,0.4-1.5,3.7-0.8c2.6,0.6,3.2,0.5,3.5,0c0.8-1.3,0.4-2.6-1.2-3.7c-0.9-0.6-2-1.6-2.3-2.3c-0.4-0.7-1.2-1.5-1.9-1.9
		c-1.3-0.7-1.5-1.9-0.7-4c0.4-0.9,0.3-1.4-0.2-2c-1.5-1.7-3-5.6-3.4-8.9c-0.4-3.2-0.4-3.6,0.4-4.7c0.6-0.9,0.9-2,0.9-3.9v-2.6
		l1.9,0.3l1.9,0.3l-0.1-2c-0.1-1.8,0-2,1-2.3c0.9-0.2,1.2-0.6,1.3-1.8c0.2-1.9-0.5-1.9-4.2,0l-2.8,1.4l0.3-1.7
		c0.2-1.4,0.1-1.7-0.6-1.7c-0.6,0-1-0.5-1.2-1.4c-0.4-2.2,0.1-3.6,1.9-4.6l1.6-1l-0.3-7.6l-0.3-7.6l1.2-0.3c1-0.2,1.3-0.9,2.2-3.8
		c0.6-1.9,1.5-3.8,2-4.1c0.7-0.5,0.8-0.8,0.3-1.6c-0.7-1.3-0.4-1.6,1.1-0.9c1.6,0.7,3.5,0.2,4-1.3c0.8-2,0.5-7-0.5-10.2
		c-0.9-2.9-1-3.1-2.9-3.5c-1.5-0.4-2.2-0.8-2.7-2c-0.7-1.3-2-3.1-6.2-7.8c-1.2-1.3-4.7-4.3-7.4-6.2c-1-0.7-2.7-2.1-3.8-3.2
		c-1.4-1.3-2.2-1.7-2.9-1.5c-0.9,0.3-0.9,0.2-0.5-1.2c0.2-0.8,0.4-2.7,0.4-4.3L268.2,388.6c0.3,0.2,0.6,0.4,1,0.6
		c1.5,0.9,3.3,2.1,3.9,2.6c0.9,0.9,1.1,0.9,1.8,0.2c0.4-0.4,0.8-1.9,1-3.6c0.2-2.5,0.5-3,1.5-3.8c2.1-1.5,2.9-1.2,4.6,1.7
		c0.8,1.4,2.1,3.1,2.9,3.6c0.7,0.5,1.4,1.4,1.6,1.9c0.2,0.5,1.4,2.1,2.8,3.5c1.3,1.4,2.8,3.4,3.3,4.5c0.4,1,1.9,3.3,3.3,5.1l2.6,3.3
		l0.2,7.6c0.1,4.2,0.2,8.1,0.3,8.8c0,0.7-0.1,2.1-0.3,3.3c-0.3,1.9-0.1,2.5,1.6,6c2,4,2.3,5.8,1.4,8.3c-0.4,1.2-0.4,1.7,0.3,2.6
		c0.7,1.2,0.7,1.3-0.7,2.7c-1.3,1.3-1.4,1.8-1.4,4.1c0,2.5,0.1,2.7,2,4.7c1.1,1.2,2.7,3.5,3.6,5.2c1.4,2.8,1.9,3.3,3.8,4.3
		c2.4,1.1,3,2.2,2.6,4.7c-0.2,1.3,0,1.4,1.4,1.8c0.9,0.2,7.5,0.5,14.7,0.6c15.4,0.2,16.6,0,17.7-2.9c0.4-1,1.1-1.9,1.4-1.9
		c0.3,0,1.2-0.6,1.9-1.3c1.1-1.1,1.6-1.2,3.5-1.1c2.6,0.1,4.6,1.3,4.3,2.2c-0.2,0.4-0.4,0.9-0.6,1.3c-0.2,0.5,0.3,0.8,1.8,1.2
		c5.9,1.5,7.5,2.7,8,5.8c0.3,1.8,0.5,2.1,2,2.7c1.4,0.6,2,0.6,3.3,0.1c0.9-0.3,2.2-0.6,2.9-0.6c0.7,0,1.7-0.3,2.2-0.5
		c0.7-0.4,1.2-0.2,2.5,1.2c0.3,0.3,0.5,0.5,0.7,0.7h6.5C386.1,479.9,386.2,479.8,386.4,479.7z"/>
	<path fill="#0099FF" d="M504.6,239.5c1,0.6,1.6,0.7,1.7,0.4c0.1-0.3,1,0.1,2,0.9c1.3,1,2.1,1.3,2.9,1.2c0.9-0.2,1.2,0,2.1,2.4
		c0.9,2.2,1.3,2.8,2.5,3.3c1.6,0.6,3.4,0,3.1-0.9c-0.1-0.3-0.7-2.4-1.3-4.6l-1.1-4.1l-2-0.6c-1.9-0.5-2-0.6-2-2.2
		c0-1.8-1-4.6-2.3-6.5c-0.2-0.3-0.4-0.6-0.5-1l-8,5.4C502,236.3,503.1,238.7,504.6,239.5z"/>
	<path fill="#009900" d="M191.1,68.8c1.4-0.5,1.7-0.7,1.4-1.5c-0.1-0.6-0.3-1.6-0.4-2.4c0-1.1-0.4-1.6-1.4-2.1
		c-1-0.5-1.4-1.1-1.5-2.1c-0.1-1.3-1.6-3-2.5-3c-0.2,0-0.4,1.3-0.4,2.8c0,1.6,0.2,2.8,0.5,2.8c0.9,0,2.3,3,2.1,4.3
		C188.4,69.2,188.9,69.4,191.1,68.8z"/>
	<path fill="#009900" d="M241.4,45.4c1.5-1.8,0.6-3.9-1.8-3.9c-1.3,0-1.3,0.1-1.3,1.8c0,1.4,0.3,2,1.1,2.6
		C240.3,46.6,240.4,46.5,241.4,45.4z"/>
	<path fill="#009900" d="M231.7,53.5c0.6,1.1,1.2,1.3,4.6,1.7c1.4,0.2,2.7,0.7,3.2,1.2c0.4,0.5,1.3,0.9,2,0.9s1.9,0.2,2.7,0.6
		c2,0.7,2.3,0.3,2.1-2.6c-0.1-1.8-0.4-2.2-1.2-2.4c-0.6-0.1-1.3-0.8-1.5-1.6c-0.5-1.3-0.6-1.3-3.5-1.3c-3.3,0-4.5-0.7-4.5-2.4
		c0-1.1-0.3-1.1-2.1,0c-2.1,1.3-2.4,1.9-1.1,2.8l1.1,0.8l-1.1,0.7C231.4,52.4,231.3,52.7,231.7,53.5z"/>
	<path fill="#009900" d="M374.2,58.2C367,54,344.8,41,324.7,29.3L288.2,8.2L287,9c-0.7,0.5-2.4,2-3.8,3.4c-1.4,1.4-3.1,2.7-3.7,2.8
		c-0.7,0.2-1.4,1-1.9,2c-0.8,1.6-0.8,1.7,0,2.3c0.5,0.3,1.4,0.6,2.1,0.6c0.9,0,1.4,0.4,2,1.4c0.4,0.7,0.7,1.4,0.6,1.4
		c-0.1,0-1.9-0.3-4.1-0.7c-2.2-0.4-4-0.7-4-0.7s0.1,0.6,0.3,1.2c0.7,1.9,0.6,2.2-0.8,1.3c-1.2-0.8-1.2-0.8-0.9,0
		c0.2,0.5,0.5,1.4,0.6,2.2c0.2,0.9,0.6,1.3,1.5,1.5c0.7,0.1,1.6,0.5,2,0.7c0.6,0.3,1.1,0.3,1.5-0.1c0.5-0.4,0.7-0.4,0.7,0.2
		c0,2.3-1.6,2.8-4.3,1.4c-0.8-0.4-2-0.7-2.8-0.6c-0.7,0.1-1.5,0-1.8-0.4c-0.6-0.7-2.1-0.8-2.5-0.1c-0.1,0.2,0,0.9,0.2,1.4
		c0.5,0.8,0.4,0.9-0.8,0.9c-2.2,0-2.1,0.6,0.2,2.6c3.1,2.6,2.7,3.4-1.7,3.4c-3.7,0-4.1,0.6-1.3,2c0.8,0.4,1.8,1,2,1.3
		c0.9,0.9,0,1.1-1.5,0.3c-1.9-1-1.9-1-1.9,0.8c0,1.2-0.2,1.6-1,1.9c-2.1,0.6-3.5,0.3-4.6-0.9c-1.1-1.2-1.1-1.2-2-0.3
		c-0.6,0.5-1.4,1.1-2,1.4c-0.6,0.3-1.1,0.8-1.1,1.2s-0.4,1.2-0.9,1.8l-0.9,1.2l1.1,0.5c0.8,0.4,1.3,0.3,1.8-0.2c1-1,4.9-2.1,5.3-1.5
		c0.1,0.3,0.4,1,0.6,1.7c0.3,1,0.7,1.3,2.6,1.7c1.3,0.2,2.3,0.7,2.3,0.9c0,0.9-2,0.7-4.2-0.2c-2.5-1.2-4.6-0.9-4.2,0.5
		c0.2,0.7,0,0.9-1.8,0.9c-1.2,0-2,0.2-2,0.5c0,0.5-0.8,0.4-3-0.3c-0.9-0.3-0.9-0.1-0.8,2.6c0.1,2.5,0.3,2.8,0.9,2.5
		c1.9-0.7,2.9-0.7,3.9,0.1c0.8,0.7,1.8,0.9,4.6,0.9c2,0,4.6,0.3,6,0.7c2,0.5,2.6,0.5,2.7,0c0.3-0.9,5-3.8,6.1-3.8
		c1.4,0,3.3,2,3.3,3.6c0,2-1.3,3.2-5.2,4.6c-2.1,0.7-3.9,1.7-4.5,2.3c-0.5,0.6-1.2,1.1-1.6,1.1c-0.9,0-2.6,2.2-2.6,3.3
		c0,0.6-0.4,0.8-1.3,0.8c-0.7,0-2.2,0.4-3.3,0.8c-1.1,0.4-3.4,0.9-5.2,1c-3.5,0.3-3.5,0.4-6.1-3.3c-1-1.4-1.7-2-3-2.2
		c-2.4-0.5-4.5,0-6.2,1.5c-1.5,1.2-1.5,1.4-1.8,5.5c-0.2,3.4-0.1,4.5,0.5,5.7c0.9,1.8,0.7,2.1-0.8,1.7c-0.8-0.2-1.3-0.7-1.4-1.6
		c-0.1-0.7-0.6-2.3-1-3.6c-0.6-1.9-0.7-2.6-0.2-3.4c0.7-1.4,0.4-1.6-2.4-1.6l-2.5,0l-1.3-2.6c-1.2-2.3-1.3-2.4-1.3-1.2
		c0,1.9-1.7,3.8-3.6,4.1c-1.3,0.2-1.5,0.1-1.5-0.7c0-0.7-0.3-0.9-1.3-0.9c-0.7,0-1.7-0.4-2.1-0.9c-0.8-0.9-0.8-0.9,0.7-1.6
		c1.6-0.7,3.6-3,3.6-4.1c0-0.3-0.3-1-0.7-1.5c-0.7-0.9-0.7-0.9-1.8,0.1c-1.3,1.2-1.7,1.3-1.7,0.3c0-0.5-0.3-0.7-0.8-0.6
		c-0.5,0.1-0.8,0.4-0.8,0.7c0,0.2,0.2,1.3,0.4,2.4l0.3,2h-2.3c-1.8,0-2.4-0.2-2.8-0.9c-0.7-1.3-0.6-1.4,1.3-1.5
		c1.5,0,1.6-0.1,0.8-0.6c-0.5-0.3-1.4-1.1-2-1.8c-0.7-0.7-1.4-1.1-1.8-1c-0.4,0.1-1,0-1.3-0.3c-0.9-0.7-0.8-0.7-1.6,1.7
		c-0.6,2.2-2.2,3.4-4.6,3.4c-0.7,0-1.6,0.3-1.9,0.7c-0.8,0.9,0.9,3.5,2.7,4.3c0.8,0.3,1.4,0.9,1.4,1.4c0,0.6-0.2,0.7-0.8,0.4
		c-0.5-0.2-1.4-0.4-2.1-0.4c-0.7,0-1.8-0.6-2.3-1.1l-1.1-1l-0.5,1.2c-0.3,0.7-0.4,2-0.3,3.1c0.2,1.5,0.2,1.8-0.5,1.8
		c-1,0-0.9,0.7,0.4,2.7c0.7,0.9,1.3,2.3,1.5,3.1l0.3,1.3l-1.5-1.1c-1-0.7-1.4-1.4-1.4-2.4c0-2-1.3-2.2-2.6-0.6
		c-0.6,0.7-1.4,1.3-1.8,1.3c-0.9,0-1.6,1.1-1.6,2.4c0,0.6-0.3,1.3-0.7,1.6c-0.6,0.5-0.7,0.2-0.7-2.3c0-3.2,0.6-4.7,1.8-4.7
		c0.4,0-0.3-0.5-1.6-1.1c-1.3-0.6-2.8-1.8-3.4-2.6c-1.1-1.5-1.1-1.5-0.2-2.1c0.5-0.4,1.2-0.7,1.6-0.7c0.4,0,1.2-0.3,1.7-0.7
		c0.9-0.7,0.9-0.7-0.2-1.6c-0.7-0.6-1-1.2-0.8-1.7c0.3-1.1-0.6-2.3-2.1-2.9c-1-0.3-1.3-0.2-1.7,0.5c-0.6,1-2.9,1.2-2.9,0.3
		c0-0.3,0.6-2,1.2-3.8c1.7-4.6,1.9-5.8,0.9-5.8c-0.8,0-0.8,0-0.1-0.8c0.8-0.9,1.1-4.3,0.4-4.3c-0.2,0-1,0.2-1.6,0.5
		c-1,0.4-1.2,0.3-1.2-0.4c0-1,1.6-4.2,2.8-5.5c0.7-0.7,1-2,1.2-4.6c0.1-2,0.7-4.7,1.2-6.1c0.7-1.7,0.8-2.9,0.6-4.2
		c-0.2-1.3-0.1-2,0.4-2.4c0.6-0.5,0.7-0.5,0.7,0c0,1.5,1.4-1.3,1.4-2.9c0-0.9,0.5-2.6,1-3.7c0.8-1.6,1-2.7,1.1-6.7
		c0-2.6,0.2-4.8,0.4-4.8c0.2,0,0.1-0.4-0.1-0.9c-0.5-1-2.1-1.2-3.3-0.5c-0.5,0.3-0.7,0.2-0.9-0.6c-0.2-0.9-0.7-1.1-4.4-1.4
		c-2.3-0.2-6.2-0.4-8.6-0.3c-6.5,0.2-10,0.2-19.3-0.1c-6.5-0.3-8.9-0.2-10.6,0.3c-1.4,0.4-2.9,1.3-4,2.3c-1.4,1.4-2.2,1.8-4.5,2.1
		c-4.7,0.7-5.4,0.9-5.1,2c0.1,0.5,0.5,2.4,0.8,4l0.6,3.1l4.8,4.3c4.5,4,4.9,4.6,6.9,8.8c2.1,4.5,2.1,4.6,2.1,9.5
		c0,4.6,0.1,5.2,1.1,6.5c2.5,3.3,2.6,4.1,1.9,7.5c-0.5,1.9-0.6,3.9-0.5,5.1c0.3,1.9,0.2,2-1.3,3.2c-0.9,0.7-2.2,1.3-3,1.3
		c-0.7,0-2.2,0.6-3.3,1.3c-1.1,0.8-2.9,1.5-4.2,1.7c-2.6,0.4-2.7,0.5-6,5.8c-2.7,4.2-2.7,4.5,0.6,5c2.6,0.5,2.4,2.1-0.4,4.6
		c-1.7,1.5-2.2,2.3-2.4,3.8c-0.2,1.8-0.1,1.9,1.5,2.7c1.4,0.7,2,0.7,3.4,0.3c1.6-0.5,2-0.4,4.6,1c2.6,1.3,3.1,1.4,4.3,1
		c0.8-0.3,1.6-0.5,1.8-0.5c0.9,0,1.8,3.4,1.9,7.6c0.1,4.5,0.1,4.5-1.3,5.9c-0.9,0.9-2.7,1.9-4.4,2.5c-2.8,0.9-3,1.1-3.1,2.6
		c-0.2,1.9-1.6,3.5-6.2,7.3l-3.2,2.5v3v3l-1.9,1.1c-1.5,0.8-2.5,2.1-4.8,5.9c-2.2,3.6-3.7,5.5-5.8,7.2c-2.4,2-2.9,2.7-3.6,5.1
		c-0.8,2.7-0.8,2.7-3.9,4.1c-2.4,1.1-3.3,1.3-4.2,0.9c-1-0.4-1.4-0.1-3.6,1.9l-2.4,2.3l-1.8-0.7l-1.9-0.7l-0.3,2.1
		c-0.1,1.1-0.3,3.9-0.3,6.1c0,2.2-0.3,5.3-0.7,7s-0.7,4.3-0.7,5.8c0,2.6,0.2,3.1,1.7,5.2c1.1,1.4,2.4,2.6,3.4,3.1
		c1.2,0.5,2,1.3,3,3.2c1.3,2.6,1.3,2.6,0.8,5.9c-1.3,7.5-0.7,11.7,2.1,14.9c1.3,1.5,3,4.5,4.6,7.7l2.5,5.3l-1.1,1.6
		c-0.6,0.8-1.3,2.2-1.7,3c-0.5,1.2-0.8,1.4-2,1.4c-0.7,0-2.2,0.2-3.3,0.5c-1.8,0.5-2,0.7-2.6,2.6c-0.4,1.2-0.7,3.8-0.9,5.8l-0.3,3.6
		l1.4,0.3c1.1,0.3,1.8,1.1,3.3,3.7c1,1.8,2.9,4.4,4.1,5.6l2.3,2.3l2.3-1.2c3.6-1.9,5.1-1.4,9,3c1,1.1,2.6,3.1,4.1,5.1L399.4,73
		C389.1,67,379.1,61.2,374.2,58.2z"/>
	<path fill="#009900" d="M195.5,65.3c1.9,1,2.8,0.2,2.8-2.4c0-3.5-1.1-4.1-3.6-2.1c-1.7,1.3-2,2-0.8,2c0.5,0,0.7,0.3,0.5,0.9
		C194.3,64.5,194.6,64.9,195.5,65.3z"/>
	<path d="M524.1,179.6c-0.4-0.2-0.5,0.6-0.5,2.7l2.8-1.9C525.4,180,524.4,179.7,524.1,179.6z"/>
	<path d="M497,196.8c2-3.3,2.2-4.1,1.2-3.7c-1,0.4-0.9-1,0.5-4.6c0.7-1.8,1.2-4.1,1.2-5.4c0-2.3,0.7-4.6,1.4-4.6
		c0.2,0,0.6,0.5,0.9,1c0.5,1,0.5,1,1.3-0.3c0.8-1.2,0.8-1.3-0.1-2.8c-0.7-1.3-0.9-2-0.7-3.6c0.3-1.8,0.2-2.1-1.2-3.4
		c-0.8-0.8-2.1-1.6-2.7-1.8c-0.7-0.1-13.1-10-27.6-21.8c-24.2-19.7-26.5-21.8-27.7-24c-0.7-1.5-2.4-3.6-4.3-5.2l-3-2.8l1.9-3l1.9-3
		l-0.1-5.5c-0.1-4-0.4-5.6-0.9-6.1c-0.2-0.2-4.4-2.7-10.7-6.4L133.4,286.3c0.7,1.7,1.5,4.3,1.7,6c0.5,2.8,0.9,4,2.4,6
		c4.1,5.7,5,7.4,5,9.1c0,1.4,0.1,1.6,1.2,1.6c0.9,0,1.4,0.5,2.3,2.2c0.6,1.3,1.5,2.6,2,3.1c0.8,0.7,0.9,1.2,0.7,3.1
		c-0.1,1.3,0,2.5,0.2,2.9c0.3,0.3,0.5,1,0.5,1.5c-0.1,1.8,1.5,5.8,2.4,5.8c1.4,0,2.8,1.4,2.8,2.7c0,0.7,0.5,1.7,1.2,2.4
		c0.7,0.6,1.2,1.6,1.2,2.3s0.1,1.7,0.3,2.3c0.2,1,0.5,1.1,1.7,0.8c4.1-0.8,4.4-0.8,7.3,0.7c1.6,0.7,3.5,1.9,4.2,2.6
		c1.2,1.1,1.2,1.4,1,3.9l-0.2,2.7l3.4,2.6l3.4,2.6l1.3-0.9c1-0.7,1.5-0.8,2.7-0.5c0.8,0.3,2.3,0.6,3.3,0.8c1.6,0.2,1.7,0.4,1.5,1.6
		c-0.2,1,0,1.9,1,3.3c1.4,2.1,1.5,2.1,3.9,1.4c2.6-0.7,5.1-0.1,7.3,2c2,1.8,2,1.8,4.9,1.5c1.6-0.1,3.9-0.1,5.2,0.1
		c2.2,0.4,2.3,0.4,2.8,2.4c0.5,2,0.5,2,3.8,3.1c1.9,0.6,4.5,1.2,5.8,1.3c2.1,0.3,2.7,0.6,3.8,1.9c1,1.3,1.6,1.6,2.9,1.6
		c1.2,0,2.1,0.4,3.6,1.9c0.5,0.5,1.1,0.9,1.5,1.2l261.7-174.5C495.3,200.2,495.9,198.7,497,196.8z"/>
	<path fill="#FFFF00" d="M489.6,240.6c0-2.9-0.1-3.3-1.8-5.6c-2.5-3.3-2.7-4.6-1.3-8.7c0.7-1.8,1.2-3.8,1.2-4.4
		c0-0.6,0.7-2.3,1.4-3.8c0.8-1.5,1.5-3.9,1.7-5.3c0.2-1.7,0.7-3.2,1.5-4.4c1.8-2.6,2.8-5.2,2.8-7.1c0-0.1,0-0.1,0-0.2L233.5,375.8
		c0.7,0.4,1.2,0.7,1.7,0.7c0.7,0,1.4,0.3,1.6,0.7c1,1.7,4.8,4,8.3,4.9c2,0.5,3.9,0.9,4.4,0.9c0.4,0,1.5,0.7,2.4,1.7
		c2.6,2.7,3.5,3,9.3,3c4.5,0,5.2,0,7,1.1L489.6,241C489.6,240.9,489.6,240.7,489.6,240.6z"/>
	<path fill="#FFFF00" d="M509.2,221.6c0.4-1.7,0.4-2-0.7-3.1c-0.7-0.6-1.3-0.9-1.4-0.7c-0.1,0.2-0.4,1.2-0.6,2
		c-0.2,0.9-0.8,2.1-1.4,2.8c-0.6,0.7-1.2,1.7-1.4,2.3l-0.4,1.2l-0.8-1c-0.5-0.5-0.9-0.8-1.1-0.7c-0.1,0.2-0.3,2.1-0.3,4.4
		c0,1.6,0.1,3,0.3,4.3l8-5.4C508.9,226.1,508.7,223.7,509.2,221.6z"/>
	<path fill="#FFFF00" d="M523.4,201.8c0.7,1.2,1,1.3,2.2,1.1c1.6-0.3,2.1-0.9,2.1-2.4c0-0.6,0.7-2.2,1.6-3.7c1.8-2.9,2-4.9,1.1-8.1
		c-0.5-1.4-0.4-2.2,0.2-4.1c0.4-1.3,0.7-2.9,0.7-3.6c0-1.3,0-1.3-0.9-0.4c-0.9,0.8-1.1,0.8-3.4,0c-0.2-0.1-0.4-0.2-0.7-0.2l-2.8,1.9
		c0,0.1,0,0.2,0,0.3c0,2.3,0.3,3.9,1.2,5.9c1.1,2.6,1.1,2.8,0.4,3.3c-0.7,0.6-0.7,0.7,0,2c0.8,1.3,0.8,1.3-0.9,3.5
		C522.4,199.8,522.3,200,523.4,201.8z"/>
	<path fill="#FFFF00" d="M412.7,80.7c-4.3-2.5-8.8-5.1-13.3-7.7L122.8,257.4c1.1,1.4,2.1,2.9,3,4.3c2.1,3.2,4.7,6.7,5.7,7.7
		c1.8,1.9,1.9,2,1.1,3.3c-0.4,0.8-0.7,1.8-0.7,2.2c0,0.4-0.5,1-1.2,1.3c-0.7,0.3-1.2,0.7-1.2,0.8c0,0.5,2,5.5,3.6,8.8
		c0.1,0.2,0.2,0.3,0.2,0.5L428.2,89.7C423.9,87.2,418.5,84.1,412.7,80.7z"/>
</g>
</svg>
