<?xml version="1.0" encoding="utf-8"?>
<!-- Generator: Adobe Illustrator 17.1.0, SVG Export Plug-In . SVG Version: 6.00 Build 0)  -->
<!DOCTYPE svg PUBLIC "-//W3C//DTD SVG 1.1//EN" "http://www.w3.org/Graphics/SVG/1.1/DTD/svg11.dtd">
<svg version="1.1" id="flag-icon-css-ug" xmlns="http://www.w3.org/2000/svg" xmlns:xlink="http://www.w3.org/1999/xlink" x="0px"
	 y="0px" viewBox="0 0 640 480" enable-background="new 0 0 640 480" xml:space="preserve">
<g>
	<path fill="none" d="M401.8,320H118.3l-0.1,0.1c0,0,0,0,0,0L401.8,320C401.8,320,401.8,320,401.8,320z"/>
	<path fill="none" d="M412.2,320.1h63.3c0,0,0-0.1,0-0.1c0,0,0,0,0,0L412.2,320.1C412.2,320,412.2,320,412.2,320.1z"/>
	<path fill="none" d="M503.1,80H196.6c0,0,0,0.1-0.1,0.1L503.1,80C503.1,80,503.1,80,503.1,80z"/>
	<path fill="#FFE700" d="M446.3,348.2c-0.4,0.3-0.5,0.8-0.3,1.6c0.3,1.2,0.4,1.3,4,1.3c3.2,0,3.7-0.1,4.3-1c0.7-1,0.7-1.1-0.2-1.4
		C452.5,348.1,447,347.7,446.3,348.2z"/>
	<path fill="#FFE700" d="M281.8,399.4c2.4-4.3,3.8-5.9,5.3-5.9c1.1,0,3.2-1.5,3.2-2.3c0-0.6,5.1-7.1,6-7.7c0.7-0.6,1-0.5,1.4,0
		c0.3,0.4,0.7,0.7,1,0.7c0.7,0,0.5-1.1-0.6-3.6c-0.7-1.8-1.4-2.5-2.3-2.8c-1.1-0.4-1.4-0.7-1.4-1.9c0-2.3-0.7-3.3-2.5-3.3h-1.5
		l0.2-2.7c0.1-2,0.5-2.9,1.4-4c1.2-1.2,1.4-1.3,5.8-1.3h4.6l-0.7-1c-0.4-0.7-1.3-1.1-2.1-1.2c-1.2-0.1-2.3-1.3-1.8-1.8
		c0.1-0.1,1.4-0.5,2.8-0.9c2.6-0.7,2.7-0.7,3.7,0.2c1.4,1.3,4.4,2.7,6.4,3.1c1.5,0.2,1.7,0.1,2.2-1c0.3-0.7,0.8-1.7,1.2-2.1
		c0.5-0.7,0.4-1-0.6-2c-1.7-1.8,0-1.5,2.6,0.5c1.9,1.4,2.3,1.5,3.3,1.1c1.6-0.7,1.6-3.3,0-4.4c-0.7-0.4-1.2-1-1.2-1.4
		c0-0.5,0.8-0.3,3.2,0.6c3.8,1.4,4.3,1.8,4.3,3.3c0,1.4,0.7,1.4,1.7,0c0.5-0.7,0.7-2.1,0.7-4c0-2.8,0-2.9,1.6-3.5
		c0.8-0.3,1.7-1.1,1.9-1.6c0.2-0.7,0.7-0.9,1.7-0.9c0.7,0,1.4,0.2,1.4,0.4s-0.7,1.5-1.6,2.8c-1.3,1.9-1.4,2.4-1,2.8
		c0.8,0.7,2.9,0.1,3.2-0.9c0.2-0.8,3-1.6,3.4-0.9c0.3,0.6,5.7,0.4,6.1-0.1c0.2-0.3-0.2-1-0.9-1.6c-0.9-0.8-1.2-1.4-1-2
		c0.2-0.6,0.6-0.8,1-0.7c0.4,0.1,1,0.4,1.4,0.6c0.6,0.2,0.7,0,0.4-0.9c-0.2-0.9-0.1-1.3,0.5-1.5c0.6-0.2,0.6-0.4-0.5-1.2
		c-1.7-1.4-1.4-3.6,0.5-4.2c0.8-0.2,1.8-0.7,2.2-1.1c0.4-0.4,1.8-0.8,2.9-0.9c1.9-0.2,2.1-0.1,2.1,0.7c0,0.6-0.3,1.2-0.7,1.5
		c-0.4,0.4-0.7,1.2-0.6,1.8c0.2,1.8,1.9,1.8,4.2,0l2-1.4l0.8,1c0.8,0.9,0.8,1-0.2,1.8c-0.6,0.5-1.9,1-2.9,1.2
		c-3.4,0.6-3.4,0.7-3.4,2.4v1.7l2.9-0.3c1.6-0.2,3.3-0.7,3.7-1.1c0.7-0.7,1.1-0.7,2.5-0.2c0.9,0.3,1.7,0.5,1.7,0.4
		c0.3-1,1.6-2.2,3.9-3.4c1.5-0.8,3.2-1.7,3.5-2c0.6-0.5,0.8-0.3,1.2,1.4c0.5,1.8,0.5,2-0.3,2.6c-0.8,0.6-0.8,0.7,0,2
		c0.4,0.7,0.8,1.7,0.8,2.1c0,0.9,1,0.7,5.5-0.9c3.3-1.2,5.8-2.9,9.1-5.9c2.5-2.4,2.7-3.2,1-4.3c-1.5-1-0.8-2,1.4-2
		c1.3,0,1.6,0.2,1.6,0.9c0,0.5,0.2,0.9,0.4,0.9c0.9,0,1.9-0.6,1.9-1.2c0-0.3,0.5-0.9,1-1.3c0.9-0.6,1-0.8,0.4-2
		c-0.6-1.5,0-3.9,0.8-3.9c0.6,0,8.3-4.6,8.6-5.1c0.1-0.2-0.6-1-1.5-1.6l-1.8-1.3l0.8-1.7c0.1-0.1,0.1-0.3,0.2-0.4H118.2
		c-3.7,4.3-3.8,4.5-5.3,9.5c-1.1,4-1.5,6-1.5,8.9v3.8l-2.6-0.3l-2.6-0.3v1.4c0,1.1-0.3,1.5-1.4,2c-1,0.4-1.7,1.3-2.4,2.9
		c-1,2.3-1,2.5-0.3,4.8c0.7,2.1,0.7,2.6,0,4.9c-1,3.7-0.9,4.1,0.9,4.7c0.9,0.3,2.3,1.4,3.2,2.4c0.9,1,2.4,2.6,3.4,3.4
		c1.8,1.5,1.9,1.6,3.5,0.9c0.9-0.4,2.2-0.7,2.9-0.7h1.3l-0.9,1c-0.7,0.8-1,1.9-1.2,4.6c-0.5,6.8-3.7,14-6.3,14
		c-0.7,0-2.4,0.8-3.9,1.9c-1.4,1-3,1.9-3.5,1.9c-1.4,0-4.9,4-4.6,5.3c0.1,0.4,0.3,1.8,0.5,3.2h183.9
		C281.6,399.8,281.7,399.6,281.8,399.4z"/>
	<path fill="#FFE700" d="M313.1,397.2c0-0.9,0.2-0.9,1.8-0.7c0.9,0.2,1.9,0.6,2,0.9c0.2,0.3,0.8,0.5,1.5,0.4
		c0.8-0.2,1.2-0.7,1.4-1.6c0.5-2.3,0.3-4.3-0.4-6.1c-0.4-0.9-0.7-1.9-0.7-2.1c0-0.2,1-1,2.3-1.8c2.3-1.3,2.3-1.4,1.6-2.4
		c-0.7-0.9-1-1-2.7-0.7c-2.9,0.5-9.1,0.5-9.6-0.1c-0.3-0.3-0.6-1.3-0.7-2.3c-0.2-1.7-0.1-1.9,1.3-2.8l1.4-0.9l-3.2-0.3
		c-5.3-0.5-6.9-0.4-7.7,0.5c-1.1,1.2-1,1.3,1,2.4c1,0.6,2.1,1.7,2.4,2.5c0.6,1.2,1.2,1.6,3.9,2.5c1.8,0.6,3.7,1.1,4.3,1.1
		c1.3,0,2.5,2,2.5,4.4c0,1.4-0.1,1.6-1,1.6c-1,0-5,3.8-6.7,6.2c-0.6,1-0.7,1.2-0.2,2.2h3.7C312.2,398.9,313.1,397.6,313.1,397.2z"/>
	<path fill="#FFE700" d="M428.4,345.2l-1.4,0.6l1.2,1.3c1.5,1.6,3.3,1.8,2.9,0.2c-0.1-0.6-0.3-1.4-0.3-1.9
		C430.9,344.4,430.2,344.4,428.4,345.2z"/>
	<path fill="#FFE700" d="M410.5,339.2c1.4,0.4,2.7-0.9,3-3.1c0.2-1.4,0.1-1.7-0.9-2.4c-1.2-0.8-1.2-0.8-1.9,0.6
		c-1,1.9-1.9,2-3.6,0.6c-1.3-1.2-1.4-1.5-0.9-2.3c0.5-0.9,0.5-1-1.9-0.9c-1.4,0-2.8,0.1-3.2,0.3c-0.7,0.2-4,4.3-3.6,4.6
		c0,0.1,1.2,0.7,2.5,1.3c1.9,0.8,2.4,1.4,2.5,2.4c0.1,1.1,0,1.3-1.2,1.3c-2.1,0-2.8,0.7-1.2,1.3c0.7,0.2,2.1,1.4,3.1,2.6
		c1.5,1.8,1.9,2,2.3,1.4c0.4-0.7,0.6-0.5,1.1,1.1c0.5,1.7,0.7,1.8,2,1.6c1.6-0.2,1.6-0.2,0.7-2c-0.4-0.9-0.6-1.9-0.4-2.8
		c0.3-1.2,0.2-1.4-0.7-1.4c-1.4,0-1.3-1.9,0.1-3.2C409,339.2,409.7,339,410.5,339.2z"/>
	<path fill="#FFE700" d="M411.8,321.7c0,1.2-0.1,1.4-0.8,1.3c-3.2-0.9-3.3-0.9-3.6,0.8c-0.5,2.4,0,2.8,2.7,2.5
		c2.3-0.3,2.3-0.3,1.5,0.6c-1.9,2,2.3,3.3,4.8,1.4c1.5-1.2,2.7-1.2,3.5,0c0.4,0.6,1.1,0.9,1.9,0.9c1.1,0,1.3,0.2,1.3,1.2
		c0,0.7,0.3,1.3,0.7,1.4c0.4,0.1,0.6,0.6,0.4,0.9c-0.3,0.7-2,0.9-2.7,0.2c-0.3-0.3-1.2-0.2-2.4,0.1c-1.6,0.4-1.9,0.6-1.4,1.1
		c0.4,0.5,0.3,0.9-0.3,1.9c-0.5,0.7-0.6,1.4-0.4,1.6c0.7,0.7,6.3,2.7,7.5,2.7c0.7,0,1.8,0.3,2.6,0.7c1.3,0.7,1.4,0.7,2.6-0.5
		c0.7-0.7,1.5-1.2,2-1.2c0.8,0,1.5-1.6,2-4.4c0.1-1,0.5-2.6,0.8-3.4c0.5-1.4,0.7-1.5,2-1.2c1,0.2,2.2,0,3.5-0.7
		c1.5-0.7,2.3-0.7,3-0.4l1,0.5l-1.4,1.7c-1.8,2.3-1.8,3.3,0,3.3h1.4l-0.9,1.9c-0.5,1-0.9,2.4-0.9,3c0,1.1,0.1,1.2,3,1.2
		c3,0,3,0,3-1.3c0-1.2,0-1.2,0.7-0.4c0.4,0.5,0.7,1.8,0.7,2.9c0,1.7,0.1,2,0.9,2c0.7,0,1-0.5,1.2-1.5c0.5-2.2,0.6-2.3,2.2-1.3
		c1.9,1.2,3,1.2,3.4,0c0.1-0.5,0.6-1,0.9-1.2c0.4-0.1,0.7-0.7,0.7-1.2c0-0.6,0.4-1,1.4-1.2c0.7-0.1,1.9-0.9,2.6-1.7
		c0.7-0.7,1.4-1.4,1.6-1.4c0.2,0,0.2,1.2,0,2.7c-0.6,3.9-0.3,4.4,1.1,2c0.7-1.2,2.3-3,3.5-4.1c1.4-1.2,3-3.3,4-5
		c1.4-2.5,1.7-3.4,1.7-5.9c0-1.8,0.3-3.4,0.9-4.5h-63.3C411.9,320.6,411.8,321.2,411.8,321.7z"/>
	<path fill="#FFE700" d="M365,355.5c-0.8-1.3-0.8-1.3-3-0.6c-1.2,0.4-1.6,0.9-2,2.2c-0.5,2-2.5,4.9-5.3,7.9l-1.9,2l2.2-0.3
		c1.7-0.2,2.5-0.1,3.4,0.5c1.2,0.7,1.3,0.7,3.2-0.3c1.1-0.6,2.3-1.7,2.7-2.4c0.9-1.4,0.7-1.5-1.5-0.9c-1.3,0.4-1.5,0.3-1.5-0.5
		c0-1,1.3-3,3.2-5.2C365.8,356.8,365.8,356.7,365,355.5z"/>
	<path d="M402.5,318.2c0-0.8,0.3-0.8,2.7,0.6c1.8,1,2.2,1.1,3.5,0.7c0.8-0.3,2-1.1,2.8-1.9c1-1.2,1.4-1.4,2-0.9
		c0.6,0.5,0.5,0.8-0.5,2c-0.3,0.4-0.5,0.8-0.7,1.3h63.3c1-2.1,3.5-8.8,4.2-11.5c0.5-1.9,0.6-2,4.5-3.5l4-1.6l1.6-3.3
		c0.9-1.8,1.9-4.3,2.2-5.6l0.5-2.3l2.2-0.2c3-0.3,5.4-2.2,5.4-4.3c0-1.2,0.5-2,1.9-3.4c1-1,2.5-2.8,3.3-4c1.2-1.8,1.4-2.6,1.4-5.4
		c0-3.4,0.8-6.1,2.7-9.2c0.7-1.2,1.3-1.7,1.9-1.5c3.3,1,3.1,1.1,4.2-2.2l1-3.1h2.1c1.7,0,2.5-0.3,4-1.5c1.4-1.1,2.7-1.6,5.2-2.1
		c1.8-0.3,4.4-0.8,5.8-1.1l2.4-0.5v-2.6c0-1.4-0.3-3.3-0.7-4.3c-0.4-0.9-0.9-2.6-1.1-3.6s-0.6-2.3-0.7-2.9c-0.1-0.1-0.1-0.3-0.1-0.4
		H394.7c0,41.3-33.5,74.7-74.7,74.7c-41.3,0-74.7-33.5-74.7-74.7h-47.5c-0.4,0.6-0.8,1.2-1.1,1.7c-0.8,1.4-3.4,4.6-5.9,7
		c-3.5,3.5-4.4,4.7-4.4,5.7c0,1.9-2,5.6-3.6,6.6c-0.7,0.5-2.8,2.3-4.6,4.1l-3.3,3.2l-3.2-0.4c-1.7-0.2-3.2-0.6-3.4-0.7
		s0-1.2,0.3-2.4c0.5-1.8,0.4-2.3-0.2-3.2c-0.4-0.6-0.7-1.7-0.7-2.7c0-0.9-0.2-2-0.4-2.6c-0.3-0.7-0.1-1.3,0.5-2.2l0.9-1.2l-1.8-0.3
		c-1.4-0.2-2.3,0-3.6,0.6c-1,0.5-2.7,1-3.9,1.2c-1.2,0.2-2.9,0.5-3.9,0.8c-1.5,0.5-1.7,0.7-1.7,1.9c0,1.4,0,1.4-1.4,0.7
		c-1.9-1-2.1-0.9-4.1,1c-2.9,2.6-4.6,5.6-5.4,9.8c-1.3,6.3-1.9,7.7-4.3,9.8c-1.3,1.1-3.2,2.1-4.3,2.5c-1.1,0.3-4.3,1.7-7,3.2
		c-4.8,2.6-5,2.7-5.5,4.7c-0.3,1.3-0.4,3.4-0.2,5.7c0.3,3.1,0.2,3.8-0.7,5.2c-0.8,1.4-0.9,1.9-0.5,5.3c0.2,2,0.7,4.1,1.1,4.5
		c0.4,0.5,0.7,1.8,0.7,3.6v2.8l-3.8,4.3h283.5C402.2,319.2,402.5,318.4,402.5,318.2z"/>
	<path fill="#DE3908" d="M320,165.3c41.3,0,74.7,33.5,74.7,74.7h138.8c-0.1-0.6,0.5-1,2.7-2c3.2-1.4,4.6-3.3,4.7-6.3
		c0.1-3.3,0.5-3.8,3.4-4.3c2.7-0.5,2.8-0.6,3.4-2.3c0.4-1,1.3-3.5,2-5.5c1.3-3.5,1.4-4,1.4-11.6c0-7.2,0.1-8.2,0.9-9.4
		c1.3-1.9,1.2-2.5-0.6-4.3c-1.3-1.4-1.6-2-2-5.4c-0.5-3.4-0.5-4,0.3-5.5l0.8-1.8l-1.4-2.7c-2.1-4.3-4.9-11.5-6.8-17.7
		c-0.1-0.4-0.2-0.8-0.3-1.1H215.4c0.1,0.3,0.2,0.6,0.1,0.9c-0.2,0.9,0,1.3,1.9,2.3c2,1.2,2.2,1.3,5.1,0.7c4.5-0.8,4.3-0.9,5.4,2.8
		c0.6,1.9,1.4,3.7,2,4.1c0.9,0.7,4.1,1.8,5.4,1.8c0.3,0,1.4-1.3,2.6-2.9c2-2.7,2.1-2.8,2.5-1.7c0.2,0.6,0.9,2.3,1.4,3.8
		c0.6,1.5,1.1,4,1.1,5.5c0.1,2,0.4,3.1,1.2,4.2c1.1,1.4,1.1,1.5,0.3,4.1c-0.7,2.3-0.7,3.1-0.2,6.3l0.6,3.6l-3.3,5
		c-1.8,2.9-3.4,5.8-3.5,6.8c-0.5,2.5-2.1,4.9-5,7.2c-1.4,1-3.2,2.8-4.2,3.9c-3.2,3.6-4.4,4.1-10.2,4.1h-5.1l-0.7,1.8
		c-0.6,1.4-1.3,2-3.5,3.2c-1.7,0.9-3.3,2.1-4.3,3.4c-0.8,1.1-2.7,3.4-4.1,5c-1,1.1-2.1,2.6-3,3.9h47.5
		C245.3,198.7,278.7,165.3,320,165.3z"/>
	<path fill="#FFE700" d="M544,152.6c1.5-0.9,1.6-1.1,1.3-3c-0.1-1.1-0.9-3-1.7-4.2c-0.7-1.2-1.4-2.8-1.4-3.5c0-0.7-0.1-1.9-0.3-2.6
		l-0.3-1.4l-1.8,1c-2.1,1.1-1.7,1.5-4.7-4.1c-1.5-2.7-1.8-3.6-1.8-5.9c0-2.9-2-9.3-3-9.5c-0.3-0.1-1-0.3-1.7-0.4
		c-0.8-0.2-1.5-0.9-2.2-2.4l-1.1-2.2l-1.4,1.4l-1.4,1.4l-2.3-2.6c-1.3-1.4-2.7-3.2-3.1-4c-1.1-2-2-5.7-2-8c0-1.2-0.6-3.3-1.7-5.6
		l-1.7-3.7l-2.5-0.6c-2.2-0.5-2.7-0.8-3.4-2.4c-0.5-1-0.9-2.3-0.9-3s-0.4-2.2-0.9-3.5c-0.4-1.1-0.8-2.6-0.9-3.7H196.5
		c-0.7,1.1-1.4,3-2.3,6c-0.9,2.9-2.1,6.8-2.8,8.6c-2,5.6-2,5.7,0.1,7.6c6.4,6,6.3,5.9,6.9,8.4c1.2,5.4,0.2,10.4-2.4,12.1
		c-1.2,0.7-1.6,1.4-2.2,4.1c-0.4,1.7-1.5,4.9-2.5,7.1c-1.2,2.8-1.7,4.7-1.7,6.4c0,2-0.3,2.8-1.4,4.4c-1.1,1.5-1.4,2.4-1.3,3.6
		l0.1,1.6l4.2,0.6c2.3,0.3,4.2,0.6,4.2,0.6c0,0,0.2,0.8,0.4,1.8c0.2,1,0.7,2.7,1.1,3.8c0.7,1.6,1.1,2,2.4,2.4
		c0.9,0.2,1.9,0.5,2.1,0.5c0.6,0,2-1.9,3.2-4.1c1.3-2.5,3-2.1,8.1,1.9c1.6,1.3,2.4,2,2.6,2.5h326.6
		C540.5,154.7,540.7,154.6,544,152.6z"/>
	<path d="M503.1,79.5c0-1.3-0.5-2.8-1.6-4.8l-1.6-2.9l0.7-2.4c0.7-2.2,0.7-2.5,0-4l-0.7-1.6l1.5-0.1c1.4-0.1,1.5-0.2,1.8-2.7
		c0.2-1.4,0.6-3.7,0.9-5.1c0.7-2.9,0.7-6.5-0.2-6.8c-0.3-0.1-1.1-0.3-1.8-0.4c-1.2-0.3-1.3-0.5-1.3-2.6v-2.3h-3.3
		c-2.6,0-3.7,0.2-4.9,1l-1.6,1l-0.5-1.3c-0.2-0.7-0.7-2.4-1-3.7c-0.3-1.3-0.5-2.4-0.6-2.4c0-0.1-1.7,0.2-3.7,0.6
		c-4.8,0.9-4.8,0.9-3.5-0.5c0.6-0.7,1-1.2,0.9-1.3c-0.1,0-0.9-0.5-1.8-0.8l-1.6-0.7l2.7-0.8c1.4-0.4,2.7-0.9,2.7-1
		c0-0.1-0.3-0.9-0.7-1.8c-0.6-1.4-0.9-1.6-2.7-1.7c-1.1-0.1-3.1,0.2-4.5,0.7l-2.5,0.8l0.3-3.7c0.3-3.7,0.3-3.7-1.2-5.6l-1.5-1.9
		l1-1.1c0.5-0.6,1.1-2,1.3-3.1c0.3-2,0.2-2.1-1.7-3.6c-1.6-1.3-1.9-1.8-1.7-2.7c0.1-0.6,0.4-1.6,0.6-2.2c0.2-0.9-0.2-1.4-2.3-3.1
		c-1.4-1.1-2.9-2-3.2-2.1c-0.3-0.1-9.7,8.5-20.9,19.1l-20.3,19.3l-14.2-0.3l-14.2-0.3l-6.8-5.3c-3.7-2.9-7-5.3-7.3-5.3
		c-0.2,0-2.6,1.5-5.3,3.4c-4.7,3.4-4.9,3.5-12.2,5.5l-7.5,2.1l-13.7,0.3l-13.7,0.3l-8.7,5.4l-8.7,5.4l-0.3,3.9
		c-0.1,2.2-0.3,4-0.4,4.1c0,0-1.8-0.1-4-0.4l-3.8-0.5l-1.4-2.5l-1.4-2.5l-4.3,0.3c-5.1,0.3-5,0.4-5.9-4.9c-0.4-2.5-0.8-3.6-1.6-4.2
		c-0.6-0.4-1.8-2-2.7-3.4c-0.9-1.4-2.9-3.8-4.4-5.3l-2.8-2.7l-2.4,2.2c-2.7,2.5-4.2,4.3-5.1,6.3c-0.6,1.4-0.9,1.4-10.2,2.6
		c-1.8,0.2-2.9,0.7-4.1,1.7l-1.6,1.4l-3.9-2c-2.1-1.1-6.8-3.5-10.3-5.4l-6.5-3.4l-5.2-0.3l-5.2-0.3l-2.8,2.2
		c-1.5,1.2-3.6,2.4-4.6,2.7c-1,0.2-2.8,1.2-4,2c-1.3,0.9-2.7,1.6-3.5,1.6c-1.6,0-3.4,1.7-3.4,3.2c0,0.7-0.6,1.3-1.9,2
		c-2.2,1.3-4.8,4.9-5.8,8.3c-0.4,1.4-0.7,2.7-0.7,2.8c0,0.6,3-0.6,3.6-1.4c0.6-0.7,0.7-0.7,1.2,0.2c0.3,0.5,0.8,2.4,1,4.2
		c0.5,3.2,0.5,3.3-1.1,6.3c-1.7,3.2-3.5,5.8-5.7,8.2c-0.2,0.2-0.3,0.4-0.5,0.6h306.5C503.1,79.8,503.1,79.6,503.1,79.5z"/>
	<path fill="#FFFDFF" d="M306.3,196.3l0-0.3c0,0-0.1,0-0.3,0v0C306.1,196.1,306.2,196.2,306.3,196.3z"/>
	<polygon fill="#FFFDFF" points="322.6,183.7 322.7,183.7 322.8,183.4 	"/>
	<path fill="#FFFDFF" d="M320,165.3c-41.3,0-74.7,33.5-74.7,74.7c0,41.3,33.5,74.7,74.7,74.7c41.3,0,74.7-33.5,74.7-74.7
		C394.7,198.7,361.3,165.3,320,165.3z M350.4,285c0,0.1,0.9-2.3,5.2-6.8c-5.3,4.6-5.8,2.9-5.8,2.9s0.2-1.3,2.3-3.1
		c-8.1,3.9-7.1,2.3-7.1,2.3l2.1-2c0,0-0.8,0.2-2.2-0.9c12-6.3,7.1-19.1,7.1-19.1s1.9,6.9-4.1,11c1.4-2.3,1.5-4.8,0.7-7.2
		c-0.2,1.7-0.3,2.7-0.3,2.7h-0.1c0,0-2.6-6.4-8.9-11.9l6.2,7.9c0,0-10.6-2.4-12.6-0.9c-2,1.6,2.8,9.4,4.4,11.4
		c1.7,2.1-0.4,5.3-1.5,5.3c0,0-9.2-1.2-11.3-0.1c-2.1,1.1,0.6,21.8,0.6,21.8s8.8-0.6,11.5,3.8c-18-2.2-27.3,8.3-27.3,8.3l0,0l0,0
		l0,0c-1.8-2.9,3.9-8.1,3.9-8.1s-3.3-0.8-10.4-0.4c0.8-3.1,12.9-4.8,18-3.6c0.8-1.9-1.6-21.9-1.6-21.9s-5.2,0.3-12.1-0.6
		c-7.1-0.9-7.1,9.4-8.4,8.4c-1.3-0.8-1.7-6.6-1.7-6.6s-2.3,3.6-2,8.8c-2.1-1.8-1.8-6.8-1.8-6.8l-3.1,7c-2.1-13.9,6.4-13.4,8.6-14.2
		c2.4-0.9,18.9-0.3,20.5,0.2c1.2-2,0.1-11.7,0-12.4c-0.1,0-0.9-0.6-5.9-5.7C306.6,253,300,245,300,245l-0.6,0.8
		c-18.8-19.1,5.6-41.3,5.6-41.3l0.1-0.8c0,0-0.1,0-0.1,0c-4.8-1.8-0.2-6.7,0.9-7.7c-2,0.3-12.2,1.9-11.8,0.2
		c0.4-1.9,11.2-4.8,11.2-4.8s-2.7-3.8,1.3-8.6c0,0,0.1-0.1,0.1-0.1h0l0.1,0c0,0,0,0,0,0l-4.9-8.9c1.9-1.9,5-3.4,10-3.4l-0.6,9.8
		c0,0,0.1,0,0.1,0l0.7-9.8c0,0,10-0.6,15.5,6l-0.1,0.1c3.1,3.4,4.5,5.8,5,9.4c0.1,0.1-7.3,1.9-7.7,1.9c0,0.1,0,0.2,0.1,0.3
		c0.2-0.1,1,6.6-6.4,12.7c-6.2,7-3.1,21.6-3.1,21.6l0.2,0.2c0.8-0.4,2-0.4,4.2,0.6c4.5,2.2,25.3,12.6,28.3,13.1
		c0.3,0.1,0.6,0.5,0.8,1.2C384.4,250.3,361.3,284.1,350.4,285z"/>
	<path fill="#DE3108" d="M306.8,182.7L306.8,182.7C306.8,182.7,306.8,182.7,306.8,182.7L306.8,182.7z"/>
	<path fill="#DE3108" d="M312,170.4c-5.1,0-8.2,1.5-10,3.4l4.9,8.9c1.4-1.2,3-2,4.6-2.4L312,170.4z"/>
	<path fill="#FFE700" d="M322.6,183.7l0.2-0.2l4.6-7.1c0.1,0.1,0.1,0.1,0.2,0.2l0.1-0.1c-5.4-6.6-15.5-6-15.5-6l-0.7,9.8
		C315.7,179.3,320.1,180.9,322.6,183.7z"/>
	<path fill="#DE3108" d="M322.8,183.4l-0.2,0.3c1.1,1.2,1.9,2.6,2.2,4.2c0.4,0,7.8-1.8,7.7-1.9c-0.5-3.7-1.8-6.1-5-9.4
		c-0.1-0.1-0.1-0.1-0.2-0.2L322.8,183.4z"/>
	<polygon points="309.3,310.4 309.3,310.4 309.3,310.4 	"/>
	<path d="M314,224.7c0.4-0.7,0.7-1.7,1.6-2.1l-0.2-0.2c0,0-3.1-14.5,3.1-21.6c7.4-6.1,6.6-12.8,6.4-12.7c0-0.1,0-0.2-0.1-0.3
		c-0.3-1.5-1.1-3-2.2-4.2c0,0,0,0,0,0c-2.6-2.8-6.9-4.4-11.1-3.5c0,0-0.1,0-0.1,0c-1.6,0.4-3.2,1.2-4.6,2.4c0,0,0,0,0,0c0,0,0,0,0,0
		c0,0-0.1,0.1-0.1,0.1c-4,4.9-1.3,8.6-1.3,8.6s-10.8,2.9-11.2,4.8c-0.4,1.7,9.7,0.1,11.8-0.2c0,0,0,0,0.1-0.1v0c0.2,0,0.3,0,0.3,0
		l0,0.3c1.3,1.2,3.5,1.9,3.5,4.1c-1.1,1.1,0.3,2-4.6,3.3l-0.1,0.8c0,0-24.4,22.1-5.6,41.3l0.6-0.8c0,0,6.6,8.1,13.4,9.8
		c5,5,5.8,5.7,5.9,5.7c0.1,0.7,1.2,10.4,0,12.4c-1.6-0.5-18.1-1.1-20.5-0.2c-2.3,0.8-10.7,0.3-8.6,14.2l3.1-7c0,0-0.3,5,1.8,6.8
		c-0.4-5.3,2-8.8,2-8.8s0.4,5.8,1.7,6.6c1.3,0.9,1.3-9.4,8.4-8.4c6.9,0.8,12.1,0.6,12.1,0.6s2.3,20.1,1.6,21.9
		c-5.1-1.2-17.3,0.5-18,3.6c7.1-0.5,10.4,0.4,10.4,0.4s-5.7,5.2-3.9,8.1c0,0,9.3-10.6,27.3-8.3c-2.7-4.4-11.5-3.8-11.5-3.8
		s-2.6-20.6-0.6-21.8c2.1-1.1,11.3,0.1,11.3,0.1c1.1,0,3.2-3.2,1.5-5.3c-1.6-2.1-6.4-9.8-4.4-11.4c2-1.5,12.6,0.9,12.6,0.9l-6.2-7.9
		c-3.3-2.8-7.5-5.4-12.8-6.7C310.7,242.4,312.8,225.8,314,224.7z M315.9,197c-1.4,0.4-2.4,0.8-2.8-1.1c-0.4-1.4,2-2.2,2.4-2.6
		c3.8-1.9,2.8-8.6,2.8-8.6C324.2,188.2,319.7,196.3,315.9,197z M308.9,190.3c0-0.8,0.6-1.4,1.4-1.4s1.4,0.6,1.4,1.4
		s-0.6,1.4-1.4,1.4S308.9,191.1,308.9,190.3z M312.1,201.4c0,0,0-0.1,0-0.1L312.1,201.4C312.1,201.4,312.1,201.4,312.1,201.4
		c-2.3,8-7,15.5-1.9,24.4l-2.8-0.2c-0.4,0,0.8,3.2,0.8,3.2l-3.5-0.4l1.4,2.6l-2.3-0.7c0,0,0.8,2.3,0.8,3.5c0.2,0.3-1.8-1.2-2-1.4
		c-0.2,0-0.1,1.3-0.4,3.3C294.6,221.2,311.3,202.3,312.1,201.4z M316.9,252.7c-1.5-3.2-0.4-7.3-0.1-8.4c2.9,4,4.3,5.3,7.8,8.1
		C323.2,251.3,321.2,250.8,316.9,252.7z M329.2,273.1c-1.5,0.6-4.9,0-4.9,0l-0.2-9.6C329.2,266.5,330.7,272.5,329.2,273.1z"/>
	<path fill="#9CA69C" d="M302.5,232.5c0.2,0.2,2.2,1.7,2,1.4c0-1.1-0.8-3.5-0.8-3.5l2.3,0.7l-1.4-2.6l3.5,0.4c0,0-1.2-3.2-0.8-3.2
		l2.8,0.2c-5-8.9-0.3-16.4,1.9-24.4c-0.8,0.9-17.5,19.8-10,34.4C302.5,233.8,302.3,232.5,302.5,232.5z"/>
	<path fill="#9CA69C" d="M312.1,201.3c0,0,0,0.1,0,0.1C312.1,201.4,312.1,201.4,312.1,201.3L312.1,201.3z"/>
	<path fill="#9CA69C" d="M318.3,184.6c0,0,0.9,6.8-2.8,8.6c-0.5,0.5-2.8,1.2-2.4,2.6c0.4,1.9,1.4,1.5,2.8,1.1
		C319.7,196.3,324.2,188.2,318.3,184.6z"/>
	<circle fill="#FFFFFF" cx="310.3" cy="190.3" r="1.4"/>
	<path fill="#DE3108" d="M309.8,200.3c0-2.2-2.2-2.8-3.5-4.1c-0.1-0.1-0.2-0.2-0.2-0.2v0v0c0,0,0,0-0.1,0.1c-1.1,1-5.7,5.9-0.9,7.7
		c0,0,0.1,0,0.1,0C310,202.4,308.7,201.5,309.8,200.3z"/>
	<path fill="#9CA69C" d="M316.8,244.2c-0.3,1.1-1.4,5.3,0.1,8.4c4.3-1.9,6.3-1.3,7.7-0.4C321.1,249.5,319.7,248.3,316.8,244.2z"/>
	<path fill="#FFFFFF" d="M324.3,273.1c0,0,3.4,0.6,4.9,0s0-6.6-5.1-9.6L324.3,273.1z"/>
	<path fill="#9CA69C" d="M333.3,246.1L333.3,246.1l0.3-0.3c-0.1,0-0.1,0-0.1,0s-5.7-5.4-6.8-5.9c-0.8,0-5.3-2.8-5.3-2.8
		c-2.2-1.1-4.2-8.7,3.9-6.6c8.4,4,9.7,4.3,9.7,4.3l9.2,2.9l0.2-0.1l-2-2.1c2.3,0.6,4.4,1.2,6.3,1.9c-0.2-0.7-0.5-1.1-0.8-1.2
		c-3-0.6-23.8-11-28.3-13.1c-2.1-1-3.4-1-4.2-0.6c-0.9,0.4-1.2,1.4-1.6,2.1c-1.2,1-3.3,17.7,12.4,21.5c5.3,1.3,9.6,3.9,12.8,6.7
		c6.3,5.5,8.9,11.9,8.9,11.9h0.1c0,0.1,0.2-1,0.3-2.7C345.9,253.8,333.1,246.2,333.3,246.1z"/>
	<path fill="#9CA69C" d="M334.3,242.4c0.8,0.6,1.4,1,1.9,1.4l1.1-0.8C336.3,242.8,335.3,242.6,334.3,242.4L334.3,242.4z"/>
	<path fill="#9CA69C" d="M339.3,239.3c0.5,0.4,0.9,0.8,1.3,1.2l0.7-0.5C340.3,239.6,339.6,239.4,339.3,239.3z"/>
	<path fill="#DE3108" d="M342.5,235.6l2,2.1l-0.2,0.1l0.8,0.3l5.8,6.5c0,0-6.2-3.1-9.6-4.5l-0.7,0.5c2,2,3.1,4.2,3.1,4.2
		c-2.2-0.6-4.3-1.3-6.4-1.8l-1.1,0.8c1.4,1.1,2,1.6,2.3,2.3c-2.3-0.5-4.4-0.4-4.9-0.4l-0.4,0.3h0.1c-0.2,0.1,12.6,7.7,15.2,16
		c0.8,2.4,0.7,4.8-0.7,7.2c6-4,4.1-11,4.1-11s4.9,12.8-7.1,19.1c1.3,1.1,2.2,0.9,2.2,0.9l-2.1,2c0,0-0.9,1.6,7.1-2.3
		c-2.2,1.8-2.3,3.1-2.3,3.1s0.6,1.7,5.8-2.9c-4.2,4.6-5.2,6.9-5.2,6.8c10.9-0.9,34-34.7-1.5-47.5
		C346.9,236.8,344.8,236.2,342.5,235.6z"/>
	<path fill="#FFFFFF" d="M325.4,230.5c-8.2-2.2-6.1,5.4-3.9,6.6c0,0,4.5,2.8,5.3,2.8c1,0.5,6.8,5.9,6.8,5.9s0,0,0.1,0
		c0.5,0,2.6-0.1,4.9,0.4c-0.3-0.7-0.9-1.3-2.3-2.3c-0.5-0.4-1.2-0.9-1.9-1.4h0c1.1,0.1,2.1,0.4,3.1,0.6c2.1,0.5,4.2,1.1,6.4,1.8
		c0,0-1.1-2.2-3.1-4.2c-0.4-0.4-0.8-0.8-1.3-1.2c0.3,0,1,0.3,2,0.7c3.4,1.4,9.6,4.5,9.6,4.5l-5.8-6.5l-0.8-0.3l-9.2-2.9
		C335.1,234.8,333.9,234.6,325.4,230.5z"/>
	<path fill="#DE3908" d="M89.7,451c0.1,3.5,0.3,4.5,1.2,6c0.9,1.5,1,2,0.7,3.5c-0.3,1-0.3,2.3-0.1,3.1c0.2,0.7,0.6,2.8,0.8,4.6
		s0.7,3.4,1,3.6c0.3,0.2,1.5,0.5,2.7,0.7c1.8,0.3,2.2,0.1,3.3-0.8c2.7-2.5,3.6-2.8,6.4-2.2c3.4,0.6,3.2,0.7,3.8-0.7
		c0.4-0.9,0.9-1.2,2-1.2c2,0,4.3,2.7,4.7,5.3c0.4,2.3,2.7,6.1,3.8,6.2c0.5,0.1,2.5-0.7,4.5-1.7c2.6-1.4,4-1.9,4.8-1.7
		c0.9,0.2,1.3,0,2-1c1.3-2,3.6-3.8,4.8-3.9c1.8,0,3.7-1.3,4.2-2.9c1.4-3.9,2.1-5,3.8-5.5c0.9-0.3,2.2-1.3,2.9-2.1
		c0.7-0.8,1.7-1.7,2.2-1.8c0.5-0.1,2-2,3.2-4.1c1.7-2.9,2.4-4.5,2.6-6.5l0.3-2.7h5.6c4.7,0,6,0.2,7.5,1l1.8,0.9l1-0.9
		c1.3-1.2,3.2-1.3,6.8-0.3c1.4,0.4,2.6,0.7,2.6,0.7c0,0,0.8-1.1,1.8-2.3c1.5-2,2.2-2.5,4.4-3.1c1.4-0.4,2.8-1.1,3-1.4
		c0.5-0.8,2.7-0.8,4.8,0c1.4,0.6,7.2,0.7,42.3,0.7c44.3,0,41.6,0.2,40.1-2.5c-0.4-0.7-0.5-2.4-0.4-4.9c0.2-4.8-0.4-5.7-3.4-5.7
		c-2.1,0-2.6-0.5-2.6-2.6c0-1.8,2.1-6,4-7.7c0.9-0.9,2-2.3,2.3-3.1c0.3-0.8,1.2-1.7,2-2c1.8-0.7,1.8-0.9,0.2-2.1
		c-1.2-0.9-1.2-0.9-0.6-4.3c0.3-1.8,0.8-3.4,1.1-3.4c0.2,0,1-1,1.7-2.3H97.6c0,0.4,0.1,0.8,0.1,1.1c0.3,3.2,0.3,3.3-0.7,3.8
		c-0.8,0.4-1.1,0.9-1.2,1.9c0,0.7-0.4,2.6-0.8,4.1c-0.5,1.5-1,5.6-1.2,9.1l-0.4,6.3l1.4,2c0.7,1.1,1.4,2,1.4,2.2s-1.3,0.3-2.8,0.3
		h-2.7l-0.5,1.7c-0.3,1-0.5,2.5-0.6,3.4c0,0.9-0.4,2.8-0.8,4.2c-0.8,2.5-0.8,2.6,0.1,4.7C89.4,446.2,89.6,448,89.7,451z"/>
	<path fill="#DE3908" d="M307.5,400c0.1,0.2,0.2,0.4,0.4,0.7l1,1.6l2-2.1c0.1-0.1,0.1-0.1,0.2-0.2H307.5z"/>
</g>
</svg>
