<?xml version="1.0" encoding="utf-8"?>
<!-- Generator: Adobe Illustrator 17.1.0, SVG Export Plug-In . SVG Version: 6.00 Build 0)  -->
<!DOCTYPE svg PUBLIC "-//W3C//DTD SVG 1.1//EN" "http://www.w3.org/Graphics/SVG/1.1/DTD/svg11.dtd">
<svg version="1.1" id="flag-icon-css-us" xmlns="http://www.w3.org/2000/svg" xmlns:xlink="http://www.w3.org/1999/xlink" x="0px"
	 y="0px" viewBox="0 0 640 480" enable-background="new 0 0 640 480" xml:space="preserve">
<g>
	<rect x="283.5" y="406.1" fill="none" width="47.2" height="0"/>
	<rect x="539.2" y="406.1" fill="none" width="22.7" height="0"/>
	<path fill="#BD3D44" d="M224.7,379.1c0,2.1,2.5,5.7,5.8,8.6c3.1,2.7,10.3,6.9,12.8,7.4c1.9,0.4,2.3,0.1,6.2-4
		c2.6-2.7,5.3-4.9,7.1-5.7c2.7-1.2,3.4-1.2,7.2-0.6c4,0.6,4.4,0.9,7.7,4.3c1.9,2,6.2,7.9,9.6,13.1c0.8,1.3,1.7,2.6,2.6,3.8h47.2
		c0.2-0.4,0.5-0.8,0.7-1.3c0.6-1.6,1.1-2,2-1.7c2.1,0.7,3.2-0.2,2.9-2l-0.3-1.7l4.5-0.1c2.9,0,5.2-0.4,6.5-1.1
		c4.6-2.4,10.2-10.5,8.9-12.9c-0.7-1.5-0.4-2.2,1.9-3.4c1.7-0.9,1.8-0.9,2.5,1.2c0.4,1.2,1,2.3,1.3,2.5c0.3,0.2,2.6-0.6,5-1.9
		c2.5-1.2,6.5-2.6,8.9-3.1c4.1-0.8,4.7-0.8,8.4,0.3c2.2,0.7,5.2,1.2,6.5,1.2c2.1,0,2.7-0.3,4.2-2.2c2-2.5,3-2.6,7-0.9
		c1.6,0.7,3,1.2,3.2,1.2c0.2,0-0.4-1.4-1.4-3c-1.9-3.5-1.7-4.1,0.7-3.2c2.1,0.8,3.5,3.9,3.5,8.1c0,2.3,0.3,3.4,1.2,4.4
		c1.6,1.6,2.3,1.6,4.7,0c1.4-0.9,2.4-1.1,4.4-0.8c2.2,0.3,2.7,0.1,3.6-1.1c1.4-2.1,1.2-2.9-0.9-4.9c-1.4-1.4-1.8-2.1-1.5-3.1
		c0.6-1.9,2.1-1.6,4.6,1.1c1.2,1.3,3.7,3.2,5.5,4s3.5,2.1,3.9,2.7c0.6,1.1,0.7,1.1,1.9-0.1c2.6-2.3,1.4-4.3-3.2-5.7
		c-2.2-0.6-2.7-1.1-2.9-2.4c-0.2-2.1,0.8-3.5,2.7-3.5c2,0,1.9-1.1-0.1-2c-1.2-0.6-1.9-0.6-2.8,0c-2.1,1.3-3.7,0.9-3.7-0.8
		c0-0.4,0-0.7-0.1-0.9h-1.5c-0.1,0.1-0.2,0.2-0.3,0.3c-1.2,1.4-4.1,1.2-6.2-0.3H221.1C222.8,372.4,224.7,377.2,224.7,379.1z"/>
	<path fill="#BD3D44" d="M380.2,110.8h3.6C383.7,109.7,383,109.8,380.2,110.8z"/>
	<path fill="#BD3D44" d="M601.9,147.7c-0.5,0.2-1,0.4-1.6,0.7c-2.9,1.2-5.8,2.7-6.5,3.2c-1.6,1.2-3.4,3.7-3.4,4.8
		c0,1.5,1.7,0.8,5.7-2.2c2.4-1.7,6-4.7,8.1-6.5H601.9z"/>
	<path fill="#BD3D44" d="M520.1,369.8c0.4,0.6,0.9,3.6,1.2,6.7c1.3,10.7,1.4,11.2,2,10c0.8-1.4,2.9-1.3,3.4,0.2
		c0.2,0.7,0.1,2.2-0.4,3.3c-0.6,1.8-0.6,2.4,0.6,4.7c2.1,4.2,3.5,5.2,6,4.7c1.7-0.3,2.2-0.2,2.2,0.6c0,0.6,0.9,1.7,2.1,2.6
		c1.3,1,2.1,2,1.8,2.6c-0.1,0.2,0,0.6,0.2,1h22.7c0-2.3,0-4.7-0.1-7.3c-0.2-3.8-0.6-5.4-1.6-6.8c-0.7-1.1-1.5-2.7-1.7-3.7
		c-0.2-1.1-2.8-5.7-5.7-10.4c-2.4-3.9-4.4-7.4-5-8.5h-28C519.8,369.5,520,369.6,520.1,369.8z"/>
	<path fill="#BD3D44" d="M614.5,34c-1,0-2.6,1-4.8,2.9h9C617.3,35,615.9,34,614.5,34z"/>
	<path fill="#BD3D44" d="M364.8,258.5h214.4c0.3-0.1,0.5-0.2,0.8-0.3c3.1-1,5.3-3.2,4.3-4.2c-0.4-0.4-1.4,0.1-2.6,1.1
		c-2.3,1.9-4.6,2-4.6,0.1c0-0.9,0.5-1.3,1.7-1.4c1.4-0.2,1.7-0.5,1.7-2c0-1.4-0.4-1.9-2-2.5c-1.9-0.7-2-0.7-0.7-1.2
		c0.7-0.3,1.7-1.1,2.1-1.8c0.7-1.5,1.9-1.6,3.8-0.6c1.1,0.7,1.4,0.6,2.7-0.9c2.1-2.3,3-6.2,2.1-8c-0.7-1.3-0.7-1.3-1.5,0.6
		c-0.8,1.9-0.8,1.9-3.9,1.2c-2.6-0.6-3.4-0.5-4.7,0.4c-0.9,0.6-1.7,1.1-1.9,1.1c-0.5,0-1.7-6.3-1.4-6.7c0.2-0.2,1.2,0.1,2.2,0.7
		c1.8,1.1,1.8,1.1,4.6-1l2.7-2.1l-1.2-1.8c-0.7-1.2-1.1-2.4-0.9-3.4c0.5-2.2-1.6-3.5-5.6-3.5c-1.4,0-3-0.2-3.9-0.5H364.8V258.5z"/>
	<path fill="#BD3D44" d="M372.3,110.8c0.6-0.7,1.4-1.7,2.4-2.7c1.7-1.9,4.1-4.9,5.2-6.6c2.7-4.2,4.8-6,9.9-8.6l4.4-2.2l-2.9-0.4
		c-1.7-0.2-3.9-0.2-5.1-0.1c-1.2,0.2-2.8,0.1-3.7-0.3c-1.3-0.6-2.1-0.6-3.9,0.3c-2.3,1-2.4,1-6.7-0.8c-2.7-1.2-4.6-1.6-5-1.2
		c-0.8,0.8-1.3,0.7-2-0.7v23.3H372.3z"/>
	<path fill="#BD3D44" d="M445.8,110.8h6.5c0-1.4,0.2-1.6,1.4-1.2c3.9,1.3,5.2,0.1,2.1-2.1c-1.9-1.3-2.3-1.4-4.9-0.7
		c-2.4,0.7-3,0.6-4.4-0.4c-1.2-0.7-1.7-1.6-1.7-2.8v-1.7l-5,1.9c-3,1.2-6.2,2.9-7.8,4.4c-2.6,2.2-3,2.4-5.4,2.1
		c-1.4-0.2-4.9-1.6-7.8-3c-4.4-2.2-5.3-2.5-6.3-1.9c-1.9,1.2-2.5,0.9-2.5-1.2c0-1.5,0.6-2.6,2.9-4.8c1.7-1.6,2.6-2.9,2.2-3
		c-2-0.6-5.7,1.6-11.4,7.1c-3.4,3.2-6.4,5.8-6.8,5.8c-0.4,0-1.4,0.7-2.4,1.6H444C444.5,110.7,445.1,110.7,445.8,110.8z"/>
	<path fill="#BD3D44" d="M60.4,302.4c1.3,2.7,2.1,5.3,2.1,7.2c0.1,1.7,0.4,3.2,0.9,3.3c0.4,0.2,0.7,1,0.7,1.9
		c0,1.8-1.1,1.5,16.5,4.4c9.3,1.6,13.2,2.4,13.6,3.1c0.6,1.1,4.1,3.4,15.5,10.1h423.1c-0.2-3.9,0.9-10.8,2.3-13.6
		c0.6-1.3,1.1-3.2,1.1-4.2c0-1,0.3-2.1,0.6-2.2c0.4-0.2,0.6-1.2,0.5-2.1c-0.1-1,0.1-1.6,0.5-1.6c0.4,0.1,1.2-0.4,1.8-1.1
		c0.6-0.7,1.4-1.2,1.7-1.2c1.2,0,6.6-5.2,7-6.6c0.2-0.8,0.7-1.5,1-1.5c0.5,0,1.6-1.4,2.5-2.9H54.5C57.6,297.5,58.6,298.8,60.4,302.4
		z"/>
	<path fill="#BD3D44" d="M510.2,161.4c-1.9,1.2-5.3,4-7.8,6.3c-4.4,4.2-11.6,8.9-14.8,9.7c-1.1,0.2-2.1,0.1-2.8-0.5
		c-0.6-0.6-2.2-1.1-3.5-1.3c-1.4-0.2-2.9-0.8-3.4-1.3c-0.8-0.8-0.8-1.1,0.1-2.6c0.7-1.1,1.3-3.7,1.6-7c0.6-6.7,0.9-7.5,3-8
		c3.2-0.8,3.3-2.8,0.4-9.1H439c0.1,3,0.4,3.8,1.2,5c3.7,5,4.7,10.3,3.1,17.6c-1.4,6.7-3.8,11.1-6.8,12.6c-2.2,1.1-2.6,1.2-4,0.4
		c-2.9-1.7-5.2-6.2-5.7-11.6c-0.2-2.6-1.1-6.8-1.9-9.3c-1.2-3.9-1.3-5-0.7-7.2c0.3-1.3,0.7-4.5,0.9-7.4h-60.3v36.9h203.1
		c0.7-0.9,1.4-1.6,2-1.9c1.4-0.8,2.2,0.3,1.7,1.9h5.8c-0.1-0.3-0.2-0.6-0.3-1c-0.2-1.2-0.4-2.4-0.2-2.5c0.1-0.1,1.6,0.1,3.4,0.5
		c3.1,0.7,4.8,1.7,5.2,3h0.5c1.3-3.3,5.1-18.7,5.1-21c0-0.6-0.7-0.9-2.2-0.9h-2.2v-3c0-2.6,0.4-3.7,3-7.7c1.2-1.8,2.2-3.2,3.3-4.4
		h-68.4C520.7,152,513.1,159.5,510.2,161.4z"/>
	<path fill="#BD3D44" d="M320.6,443.3c1.6,1.3,3.9,1.6,5.3,0.7c0.7-0.4,0.7-0.6-0.1-0.9c0,0,0,0,0,0h-5.4
		C320.4,443.1,320.6,443.2,320.6,443.3z"/>
	<path fill="#BD3D44" d="M596.4,76.6c-2.3,1-3.2,1.9-3.5,3.7c-0.3,1.5-6,4-22.3,10c-6.3,2.3-12.1,4.6-12.9,5.2
		c-2,1.3-4.4,5.5-5.8,10.2c-0.5,1.7-1.5,3.8-2.4,5.2h61.8c-1.2-1.1-1.1-2.9,0.4-8.9c1.4-5.9,2.6-8.5,4.4-9.6
		c0.7-0.4,2.3-2.2,3.6-3.9c1.9-2.6,2.4-3.8,2.7-6.7c0.3-4.2,1.9-6.6,3-4.7c0.9,1.7,0.9,2.2,5.9-3.2h-32.3
		C598.6,75.2,597.8,76,596.4,76.6z"/>
	<path fill="#FFFFFF" d="M605.9,146c-0.1,0.1-1.8,0.8-4,1.7h2.4C605.4,146.6,606.1,145.9,605.9,146z"/>
	<path fill="#FFFFFF" d="M290.4,415c3.6,3.4,4.7,5.6,7.7,15.1c2.2,7.3,2.7,7.8,8.8,9.1c2.2,0.5,4.9,1.4,5.9,1.9c1.1,0.6,2.9,1,4.1,1
		c1.2,0,2.6,0.4,3.6,1h5.4c-0.5-0.3-1-1.1-1-2c0-0.9-0.7-3.9-1.7-6.5c-1.5-4.5-1.6-5.1-0.8-7.5c0.8-2.4,0.8-2.6-0.6-3.7l-1.5-1.1
		l2-1.9c2.2-2.1,2.4-2.4,1.1-4.3c-0.9-1.2-0.9-1.4,0.3-2.2c0.7-0.4,1.7-1.9,2.2-3.2c0.6-1.2,1.2-2.1,1.6-1.9
		c0.7,0.5,2.3-0.8,3.4-2.7h-47.2C286.3,410.2,288.9,413.6,290.4,415z"/>
	<path fill="#FFFFFF" d="M364.8,147.7h60.3c0-0.4,0-0.7,0.1-1.1c0.2-4.2,0.7-7.2,1.9-10.3c0.9-2.4,1.6-4.8,1.6-5.2
		c0-1.4-1.8,0.6-3.8,4.4c-2.1,3.8-4,6-4.7,5.3c-1-0.9,1.7-10.8,4.6-16.5c1.6-3.2,3-6,3.1-6.2c0.1-0.1,0.6,0.1,1.1,0.5
		c0.6,0.5,1,0.6,1.3,0.1c0.6-0.9,2.8-0.8,2.8,0.1c0,0.4,0.6,0.1,1.4-0.8c0.7-0.9,3.2-3,5.3-4.6c2-1.5,3-2.3,4.2-2.5h-49.5
		c-0.2,0.1-0.3,0.3-0.5,0.4c-1.8,1.7-2.6,2.1-6.1,2.2l-4,0.2v-1.9c0-0.4,0-0.7,0-1h-3.6c-0.3,0.1-0.5,0.2-0.8,0.3
		c-3.1,1.2-8,1.7-8,0.9c0-0.1,0.3-0.5,0.8-1.2h-7.5V147.7z"/>
	<path fill="#FFFFFF" d="M540.2,407.5c0.8,0.9,1.7,2.4,1.9,3.4c0.2,1.2,0.9,2,1.8,2.2c0.7,0.2,2.8,1.8,4.5,3.4
		c1.7,1.6,3.8,3.3,4.6,3.7c1.1,0.6,1.3,1.1,1.1,2c-0.4,1.2-0.3,1.2,1.1,0.4c1.4-0.7,1.7-0.9,3.4-1.1c2.1-0.2,3.3-6.1,3.4-15.4h-22.7
		C539.4,406.6,539.8,407.1,540.2,407.5z"/>
	<path fill="#FFFFFF" d="M23.4,258.5c0.5,0.9,0.9,1.9,1.3,2.8c1.4,3.6,1.6,4.6,1.2,8.4l-0.4,4.4l2.1,1.2c1.2,0.7,3.7,1.7,5.7,2.3
		c3.1,0.9,4,1.6,7.4,5.3c2.2,2.6,5,4.9,6.8,5.8c2,1.1,3,2,3.2,2.9c0.1,0.7,1.2,2,2.4,2.8c0.6,0.3,1.1,0.7,1.5,1h497.4
		c0.7-1.1,1.2-2.3,1.2-2.9c0-0.7,0.6-1.8,1.2-2.6c0.7-0.7,2.3-3.4,3.6-6c1.9-3.8,2.9-5,5.4-6.6c4.7-2.9,6.5-4.9,6.5-6.8
		c0-2,2.6-6.6,5.2-9.4c0.9-1,2.6-2.1,4.1-2.7H364.8H23.4z"/>
	<path fill="#FFFFFF" d="M548.7,111.8c-1,1.3-1.9,2.5-1.9,2.7s1.1,0.6,2.5,0.7c2.7,0.4,3.2,1.6,1.7,4c-0.6,1-0.6,1.4,0.7,2.7
		l1.4,1.6l-2.1,1.9c-1.1,1.1-4.7,3.3-7.8,4.8c-4.5,2.2-6.5,2.9-9.4,3c-2.7,0.1-4.6,0.7-7.5,2.2c-2.3,1.2-3.7,2.3-3.4,2.7
		c0.2,0.4,1.2,1.7,2.2,3c1.3,1.7,1.7,2.7,1.4,3.7c-0.2,0.5-1,1.5-2.1,2.9H593c2.5-3,5-4.6,9.9-7.3c7-3.8,9.1-5.7,10.1-8.8
		c0.8-2.7,0.9-2.7,2.4-1.4c1,0.9,1.2,0.7,3.1-1.6c1.4-1.7,2.2-2.3,2.7-1.9c1.1,1.1,1.5,0.7,4-2.5c2.5-3.1,2.7-4.5,0.9-5.2
		c-1.4-0.6-1.7,0.1-0.9,1.1c1.1,1.4,0.3,3.2-1.8,4.1c-2.6,1.1-4.5,0.4-5.8-1.9c-0.6-1.1-2.1-2.3-3.2-2.8c-1.9-0.8-2.1-1.1-2.1-3.7
		c0-1.5,0.3-2.9,0.7-3.2c0.5-0.2,0.1-0.7-0.9-1.3c-0.3-0.2-0.5-0.3-0.7-0.5h-61.8C549.2,111.2,548.9,111.5,548.7,111.8z"/>
	<path fill="#FFFFFF" d="M482.5,146.3c-4.8-9.7-6-10.3-10.1-4.6c-3.4,4.7-5.2,5.3-6.1,2c-0.2-1.2,0-2.2,1-3.5c1.6-2.1,3-7.2,3-10.4
		c0-1.3-0.5-2.9-1.2-3.9c-0.7-0.9-1.2-2.4-1.2-3.4c0-1.7-0.2-1.9-5.7-3.5c-3.2-0.9-6.6-2-7.6-2.2c-2.1-0.7-3.7,0-4.8,2
		c-0.6,1.1-0.5,1.4,0.4,1.9c1.1,0.6,1.1,0.7-0.2,1.6c-1.1,0.7-1.4,1.8-1.6,4.5c-0.1,2-0.4,3.8-0.7,4c-0.6,0.6-2.4-0.6-3.2-2.2
		c-0.6-1.2-0.8-1.2-3,1.8l-2.4,3.2v8.6c0,2.4,0,4.1,0,5.4h44.1C482.9,147.2,482.7,146.8,482.5,146.3z"/>
	<path fill="#FFFFFF" d="M609.5,37.1l-3.4,3.1l-1.6-1.2c-1.6-1.2-1.6-1.2-2.2-0.1c-1.6,3-2.7,12.3-2.2,19.2c0.3,5.7,0.2,7.3-0.6,8.8
		c-0.6,1.3-0.9,2.7-0.6,4c0.2,1.2,0.2,2.1,0.1,2.9h32.3c1.1-1.1,2.4-2.6,4-4.3c2.3-2.4,3.7-4.4,3.7-5.3c0-2.1-2.1-4.4-5-5.6
		c-1.6-0.6-3-1.7-3.6-2.9c-0.6-1.1-1.7-2-2.8-2.2c-2.1-0.4-3.1-2.3-5.8-10.1c-0.9-2.7-2-4.9-3.1-6.5h-9
		C609.6,37,609.6,37,609.5,37.1z"/>
	<path fill="#FFFFFF" d="M113.6,334.5c6.5,3.8,13.7,8.2,15.9,9.8c2.2,1.6,5.2,3.5,6.5,4.2c3.2,1.6,12.1,3.6,19.6,4.4
		c11,1.2,23,2.1,23.4,1.8c0.2-0.2,0.4-1.9,0.4-3.6l0.1-3.3l9.3,0.4c5.2,0.2,10.3,0.6,11.6,0.9c2.7,0.6,9.3,6.8,10.2,9.6
		c0.4,1.2,1.8,2.7,4.2,4.2c1.9,1.3,4.2,3.3,5.2,4.5c0.3,0.5,0.7,1,1,1.6h195.8c-0.2-0.2-0.5-0.4-0.7-0.6c-1-1-1.8-2.1-1.8-2.4
		c0-0.2,1.2-1,2.7-1.6c2.7-1.1,2.7-1.1,6.8,0.4l4,1.6l3.6-2.5c3-2.1,4-2.4,7-2.4c3.8,0,6.8-1.1,8.5-3c1.5-1.7,1.9-1.7,2.7,0.2
		c0.6,1.4,1.1,1.6,4.5,1.6h3.7v-1.9c0-1.7,0.1-1.9,2.5-1.9c1.4,0,3.7-0.3,5.3-0.7c2.4-0.6,3.7-0.6,8.1,0.3c5,1,5.5,1.3,8.8,4.5
		l3.5,3.4l4.3-2.2c3.3-1.7,4.5-2.6,5-4c0.6-1.8,0.7-1.9,4.8-1.9c4.5,0,5.2,0.4,7.7,4.5c0.6,1,2.6,2.5,4.4,3.4
		c3.5,1.8,6.3,3.8,7.5,5.3h28c-0.1-0.2-0.2-0.4-0.2-0.4c0-0.1,0.6-0.2,1.2-0.2c1.1,0,0.6-0.9-2.7-5.2c-4.8-6.3-8.3-12.3-9.7-17
		c-0.9-2.9-1.2-3.4-1.7-2.3c-0.2,0.7-0.5,2.7-0.5,4.5c0,1.8-0.1,3.3-0.3,3.3c-0.6,0-1.9-5.3-1.9-7.4c0-1,0.4-2.1,0.9-2.6
		c1.1-0.9,1.2-4.3,0.2-7.7c-0.1-0.5-0.2-1.1-0.2-1.8H109.8C110.9,333,112.2,333.8,113.6,334.5z"/>
	<path fill="#FFFFFF" d="M450.9,112.1c1.2,0.3,1.4,0.2,1.4-1.3c0,0,0,0,0,0h-6.5C447,111,448.5,111.4,450.9,112.1z"/>
	<path fill="#FFFFFF" d="M585.5,185.1c0,0.3,0.2,0.1,0.4-0.5h-0.5C585.4,184.8,585.5,184.9,585.5,185.1z"/>
	<path fill="#FFFFFF" d="M571.2,185.3c-1.1,2.4-0.6,6.4,1.1,8.1c0.7,0.9,1.3,1.9,1.1,2.2c-0.2,0.3,0.7,1.6,2.1,2.9
		c1.3,1.3,2.6,3,2.7,3.8c0.3,1.2,0.8,1.5,2.2,1.5c2.2,0,2.4,0.8,0.9,4c-1,2.1-0.7,4.9,0.3,3.7c0.3-0.3,1.1-4.2,1.9-8.5
		c1.7-10.1,1.4-11.8-3-14.9c-1.9-1.4-2.7-2.3-3.2-3.5h-5.8C571.5,184.8,571.4,185.1,571.2,185.3z"/>
	<path fill="#FFFFFF" d="M364.8,221.5h208.3c-0.3-0.1-0.5-0.2-0.7-0.2c-1.4-0.7-1.4-0.9-0.4-1.4c0.6-0.4,1.8-0.5,2.6-0.3
		c1.5,0.2,1.4,0.2-0.5-1.5l-2.1-1.8l1.4-1.1l1.4-1l-3.2-2.2c-2.6-1.7-3-2.2-2.2-2.7c0.6-0.3,1.6-0.3,2.6,0.1c2.6,0.9,2.6-0.5,0.1-3
		c-2.4-2.5-2.7-3.2-1.4-3.2c1.6,0,1.7-1.2,0.2-1.9c-1.1-0.5-2.1-2.1-3.5-5.7c-1.1-2.7-1.9-5.5-1.9-6.3c0-1.1,1.1-3.1,2.3-4.7H364.8
		V221.5z"/>
	<path fill="#FFFFFF" d="M423.3,369.3h1.5C424.6,368.5,424.1,368.5,423.3,369.3z"/>
	<path fill="#192F5D" d="M364.8,221.5v-36.9v-36.9v-36.8V87.5c-0.1-0.3-0.3-0.6-0.5-1c-0.7-1.7-1.2-2.2-2-1.9c-0.6,0.2-3,0.7-5.5,1
		c-3.7,0.4-4.5,0.4-5.5-0.5c-0.7-0.6-2.6-1.1-5.2-1.2l-4-0.2l-1.8-3.2c-0.2-0.4-0.4-0.7-0.6-1.1l3.4,10.2l-8.7-6.4l-8.7,6.4l2.7-8.2
		c-9.5,0.7-29.4,1.2-48.3,1.3l2.2,6.9l-8.7-6.4l-8.6,6.4l2.2-6.9c-10-0.1-19-0.3-24.8-0.6c-8-0.5-16-1.1-24-1.9l3.1,9.4l-8.7-6.4
		l-8.7,6.4l3.4-10.3l-0.4-0.3c-13.9-1.5-27.8-3.4-41.4-5.7l-8.3,6.1l3.3,10.2l-8.7-6.4l-8.6,6.4l3.3-10.3l-8.7-6.3h10.8l0.8-2.5
		c-11.9-2.2-23.7-4.8-35.4-7.6l-1.2,0.9l0.4-1.1c-14.6-3.5-29-7.5-43.1-12l-3.9,2.8l3.2,10.2l-8.4-6.3l-2.7,2
		c0.7,2.5,0.3,3.5-1.2,4.9c-1.1,1-1.6,2.1-1.6,3.5c0,1.1-0.4,2.5-0.7,3c-0.9,1.1-4.1,3.2-5.6,3.8c-1.4,0.5-3.6-1.7-3.6-3.7
		c0-1.2,0.4-1.4,2.6-1.6c3.5-0.2,4.6-1.9,2.5-3.7l-1.5-1.2l1.4-1.5c1.4-1.5,1.4-1.6,0.2-2.9c-0.6-0.7-3.7-2.5-6.8-4
		c-3.1-1.5-6.5-3.4-7.5-4.3l-1.9-1.6l-0.7,1.7c-0.6,1.3-0.6,3.1-0.1,7c0.4,2.9,0.7,6.8,0.7,8.7c0,2.3,0.3,3.7,0.8,3.9
		c0.5,0.2,0.4,0.6-0.5,1.2c-0.2,0.1-0.3,0.3-0.5,0.4h10.3l-8.6,6.3l3.3,10.2l-5.3-3.9c-2.1,0.2-2.2,0.3-3.5,4.8
		c-0.7,2.6-2.2,6.3-3.2,8.4c-1.1,2.1-2.8,6-3.9,8.8c-1.1,2.7-3.4,7.3-5.1,10.2c-6.7,11.1-7.2,12.8-8.6,26c-0.2,2.6-0.3,5.7-0.2,7
		c0.6,3.8-1.6,10.2-4.4,13.4c-3.4,3.9-3.6,6-1.1,11.6l2.1,4.5l-1.1,6.9c-1.3,8-1.1,10,1.7,15.1c1.7,3.2,1.9,3.9,1.2,6
		c-0.8,3-0.1,5.1,2.1,6.1c1.2,0.6,1.7,0.5,2.7-0.4c1.1-1,1.2-1,1.6,0.4c0.2,0.8,0.4,2.4,0.4,3.5c0,1.6-0.2,2-0.9,1.7
		c-0.7-0.3-1.1,0.3-1.4,2.4c-0.6,4.5,0.1,6.7,3.2,9.6c1.6,1.4,2.8,2.8,2.8,3c0,0.2-0.7,1.6-1.6,2.9l-1.5,2.4l1.7,3.5
		c1,1.9,2,4.7,2.2,6.1c0.2,1.4,1.2,3.7,2.2,5c0.6,0.8,1.4,2.3,2.2,3.8h341.3V221.5z M343.1,192.8l-8.7-6.3l-8.7,6.3l3.4-10.2
		l-8.7-6.3h10.8l3.3-10.2l3.3,10.3h10.8l-8.7,6.3L343.1,192.8z M57.5,202.2l3.4-10.2l3.3,10.2h10.8l-8.7,6.3l3.3,10.3l-8.6-6.4
		l-8.7,6.3l3.3-10.2l-8.6-6.3H57.5z M85.9,182.6l-8.7-6.3h10.7l3.4-10.2l3.3,10.3h10.8l-8.7,6.3l3.4,10.1l-8.7-6.3l-8.7,6.3
		L85.9,182.6z M107.5,98.8h10.8l3.3-10.2l3.4,10.2h10.7l-8.7,6.3l3.4,10.3l-8.7-6.4l-8.7,6.3l3.4-10.2L107.5,98.8z M209.4,124.7
		l3.4-10.2l3.3,10.2h10.8l-8.7,6.3l3.4,10.3l-8.7-6.4l-8.7,6.3l3.4-10.2l-8.7-6.3H209.4z M270.3,124.7l3.3-10.2l3.4,10.2h10.7
		L279,131l3.3,10.3l-8.7-6.4l-8.6,6.3l3.3-10.2l-8.6-6.3H270.3z M246.6,150.6h10.7l-8.6,6.3l3.3,10.2l-8.7-6.4l-8.6,6.4l3.3-10.3
		l-8.7-6.3H240l3.2-10.1L246.6,150.6z M185.7,150.6h10.8l-8.7,6.3l3.3,10.2l-8.6-6.4l-8.7,6.4l3.3-10.3l-8.6-6.3h10.7l3.4-10.1
		L185.7,150.6z M160.6,141.3l-8.7-6.4l-8.6,6.3l3.3-10.2l-8.7-6.3h10.8l3.4-10.2l3.4,10.2h10.6l-8.6,6.3L160.6,141.3z M87.8,124.7
		l3.4-10.2l3.3,10.2h10.8l-8.7,6.3l3.3,10.2l-8.6-6.3l-8.7,6.3l3.3-10.2l-8.6-6.3H87.8z M121.6,140.3l3.4,10.2h10.7l-8.7,6.3
		l3.4,10.2l-8.7-6.4l-8.7,6.4l3.4-10.3l-8.7-6.3h10.8L121.6,140.3z M130.3,218.8l-8.7-6.4l-8.7,6.3l3.4-10.2l-8.7-6.3h10.8l3.3-10.2
		l3.4,10.2h10.7l-8.7,6.3L130.3,218.8z M146.5,182.6l-8.7-6.3h10.8l3.4-10.2l3.4,10.3h10.6l-8.6,6.3l3.3,10.1l-8.7-6.3l-8.6,6.3
		L146.5,182.6z M191.1,218.8l-8.6-6.4l-8.7,6.3l3.3-10.2l-8.6-6.3h10.7l3.4-10.2l3.3,10.2h10.8l-8.7,6.3L191.1,218.8z M207.5,182.6
		l-8.7-6.3h10.7l3.4-10.2l3.3,10.3h10.8l-8.7,6.3l3.4,10.1l-8.7-6.3l-8.7,6.3L207.5,182.6z M251.9,218.8l-8.7-6.4l-8.6,6.3l3.3-10.2
		l-8.7-6.3H240l3.2-10.2l3.4,10.2h10.7l-8.6,6.3L251.9,218.8z M268.2,182.6l-8.6-6.3h10.7l3.3-10.2l3.4,10.3h10.7l-8.6,6.3l3.3,10.1
		l-8.7-6.3l-8.6,6.3L268.2,182.6z M312.7,218.8l-8.6-6.4l-8.7,6.3l3.3-10.2l-8.6-6.3h10.7L304,192l3.3,10.2h10.8l-8.7,6.3
		L312.7,218.8z M307.3,150.6h10.8l-8.7,6.3l3.3,10.2l-8.6-6.4l-8.7,6.4l3.3-10.3l-8.6-6.3h10.7l3.4-10.1L307.3,150.6z M343.1,141.3
		l-8.7-6.4l-8.7,6.3l3.4-10.2l-8.7-6.3h10.8l3.3-10.2l3.3,10.2h10.8l-8.7,6.3L343.1,141.3z M300.7,98.8l3.4-10.2l3.3,10.2h10.8
		l-8.7,6.3l3.3,10.3L304,109l-8.7,6.3l3.3-10.2l-8.6-6.3H300.7z M240,98.8l3.2-10.2l3.4,10.2h10.7l-8.6,6.3l3.3,10.3l-8.7-6.4
		l-8.6,6.3l3.3-10.2l-8.7-6.3H240z M182.4,88.6l3.3,10.2h10.8l-8.7,6.3l3.3,10.3l-8.6-6.4l-8.7,6.3l3.3-10.2l-8.6-6.3h10.7
		L182.4,88.6z M77.2,72.9h10.7l3.4-10.2L94.5,73h10.8l-8.7,6.3l3.3,10.2l-8.6-6.4l-8.7,6.4l3.3-10.3L77.2,72.9z M46.8,98.8h10.7
		l3.4-10.2l3.3,10.2h10.8l-8.7,6.3l3.3,10.3l-8.6-6.4l-8.7,6.3l3.3-10.2L46.8,98.8z M27.2,124.7l3.2-10.2l3.4,10.2h10.7l-8.6,6.3
		l3.3,10.3l-8.7-6.4l-8.6,6.3L25,131l-8.7-6.3H27.2z M60.8,140.3l3.3,10.2h10.8l-8.7,6.3l3.3,10.2l-8.6-6.4l-8.7,6.4l3.3-10.3
		l-8.6-6.3h10.7L60.8,140.3z M25,182.6l-8.7-6.3h10.9l3.2-10.2l3.4,10.3h10.7l-8.6,6.3l3.3,10.1l-8.7-6.3l-8.6,6.3L25,182.6z
		 M39.1,244.6l-8.7-6.3l-8.6,6.3l3.3-10.3l-8.7-6.3h10.9l3.2-10.1l3.4,10.2h10.7l-8.6,6.3L39.1,244.6z M99.9,244.6l-8.7-6.3
		l-8.7,6.3l3.4-10.3l-8.7-6.3h10.7l3.4-10.1l3.3,10.2h10.8l-8.7,6.3L99.9,244.6z M160.8,244.6l-8.7-6.3l-8.6,6.3l3.3-10.3L138,228
		h10.8l3.2-10.1l3.4,10.2h10.6l-8.4,6.3L160.8,244.6z M221.5,244.6l-8.7-6.3l-8.7,6.3l3.4-10.3l-8.7-6.3h10.7l3.4-10.1l3.3,10.2
		h10.8l-8.7,6.3L221.5,244.6z M282.3,244.6l-8.7-6.3l-8.6,6.3l3.3-10.3l-8.6-6.3h10.7l3.3-10.1l3.4,10.2h10.7l-8.6,6.3L282.3,244.6z
		 M343.1,244.6l-8.7-6.3l-8.7,6.3l3.4-10.3l-8.7-6.3h10.8l3.3-10.1l3.3,10.2h10.8l-8.7,6.3L343.1,244.6z"/>
	<path fill="#192F5D" d="M57.7,46.8c-1.4-0.4-2.2-0.6-2.2-0.5c0,0.1,0.2,0.4,0.5,0.9h1.6L57.7,46.8z"/>
	<path fill="#192F5D" d="M164.3,73c-3.2-0.5-6.3-1.1-9.5-1.7l0.5,1.7H164.3z"/>
	<path fill="#FFFFFF" d="M334.4,83.2l8.7,6.4l-3.4-10.2c-2.5-4.4-2.3-4.1-3.3-1.6c-0.6,1.4-1.6,2.6-2.6,2.9
		c-0.7,0.3-2.6,0.5-5.5,0.7l-2.7,8.2L334.4,83.2z"/>
	<polygon fill="#FFFFFF" points="46.8,150.5 55.4,156.8 52.1,167.1 60.8,160.7 69.5,167.1 66.2,156.8 74.9,150.6 64.1,150.6 
		60.8,140.3 57.5,150.5 	"/>
	<polygon fill="#FFFFFF" points="33.8,228.1 30.4,217.9 27.2,228 16.3,228 25,234.3 21.8,244.6 30.4,238.3 39.1,244.6 35.8,234.4 
		44.4,228.1 	"/>
	<polygon fill="#FFFFFF" points="82.5,89.5 91.2,83.2 99.8,89.5 96.6,79.3 105.3,73 94.5,73 91.2,62.7 87.8,72.9 77.2,72.9 
		85.8,79.2 	"/>
	<polygon fill="#FFFFFF" points="94.5,228.1 91.2,217.9 87.8,228 77.2,228 85.9,234.3 82.5,244.6 91.2,238.3 99.9,244.6 96.6,234.4 
		105.3,228.1 	"/>
	<polygon fill="#FFFFFF" points="295.3,115.3 304,109 312.7,115.4 309.4,105.1 318.1,98.8 307.3,98.8 304,88.6 300.7,98.8 290,98.8 
		298.6,105.1 	"/>
	<polygon fill="#FFFFFF" points="177,105.1 173.7,115.3 182.4,109 191.1,115.4 187.8,105.1 196.5,98.8 185.7,98.8 182.4,88.6 
		179.1,98.8 168.4,98.8 	"/>
	<polygon fill="#FFFFFF" points="155.3,228.1 152,217.9 148.8,228 138,228 146.7,234.3 143.4,244.6 152.1,238.3 160.8,244.6 
		157.5,234.4 165.9,228.1 	"/>
	<polygon fill="#FFFFFF" points="234.6,115.3 243.2,109 251.9,115.4 248.6,105.1 257.3,98.8 246.6,98.8 243.2,88.6 240,98.8 
		229.1,98.8 237.8,105.1 	"/>
	<polygon fill="#FFFFFF" points="107.5,150.5 116.3,156.8 112.9,167.1 121.6,160.7 130.3,167.1 126.9,156.8 135.7,150.6 125,150.6 
		121.6,140.3 118.3,150.5 	"/>
	<path fill="#FFFFFF" d="M273.6,83.2l8.7,6.4l-2.2-6.9c-4.4,0-8.8,0-12.9,0l-2.2,6.9L273.6,83.2z"/>
	<polygon fill="#FFFFFF" points="216.1,228.1 212.8,217.9 209.4,228 198.8,228 207.5,234.3 204.1,244.6 212.8,238.3 221.5,244.6 
		218.2,234.4 226.9,228.1 	"/>
	<polygon fill="#FFFFFF" points="337.7,228.1 334.4,217.9 331.1,228 320.3,228 329.1,234.3 325.7,244.6 334.4,238.3 343.1,244.6 
		339.8,234.4 348.5,228.1 	"/>
	<path fill="#FFFFFF" d="M204.1,89.5l8.7-6.4l8.7,6.4l-3.1-9.4c-3.8-0.4-7.6-0.7-11.3-1.1l0.4,0.3L204.1,89.5z"/>
	<polygon fill="#FFFFFF" points="276.9,228.1 273.6,217.9 270.3,228 259.6,228 268.2,234.3 264.9,244.6 273.6,238.3 282.3,244.6 
		279,234.4 287.6,228.1 	"/>
	<polygon fill="#FFFFFF" points="348.5,176.4 337.7,176.4 334.4,166.1 331.1,176.3 320.3,176.3 329.1,182.6 325.7,192.8 
		334.4,186.6 343.1,192.8 339.8,182.7 	"/>
	<path fill="#FFFFFF" d="M35.8,79.4l8.6-6.3H34.2c-0.7,0.6-0.6,0.9,0.4,2.5c1.1,2,1.1,2-0.2,3.8c-1.7,2.2-1.6,2.7,0.2,3.9
		c2.2,1.4,1.9,2.1-0.7,2.4c-0.1,0-0.1,0-0.2,0l5.3,3.9L35.8,79.4z"/>
	<polygon fill="#FFFFFF" points="21.8,141.2 30.4,134.9 39.1,141.3 35.8,131 44.4,124.7 33.8,124.7 30.4,114.5 27.2,124.7 
		16.3,124.7 25,131 	"/>
	<polygon fill="#FFFFFF" points="337.7,124.7 334.4,114.5 331.1,124.7 320.3,124.7 329.1,131 325.7,141.2 334.4,134.9 343.1,141.3 
		339.8,131 348.5,124.7 	"/>
	<polygon fill="#FFFFFF" points="300.7,150.5 290,150.5 298.6,156.8 295.3,167.1 304,160.7 312.7,167.1 309.4,156.8 318.1,150.6 
		307.3,150.6 304,140.3 	"/>
	<polygon fill="#FFFFFF" points="307.3,202.2 304,192 300.7,202.2 290,202.2 298.6,208.5 295.3,218.7 304,212.4 312.7,218.8 
		309.4,208.5 318.1,202.2 	"/>
	<polygon fill="#FFFFFF" points="52.1,115.3 60.8,109 69.5,115.4 66.2,105.1 74.9,98.8 64.1,98.8 60.8,88.6 57.5,98.8 46.8,98.8 
		55.4,105.1 	"/>
	<polygon fill="#FFFFFF" points="30.4,186.6 39.1,192.8 35.8,182.7 44.4,176.4 33.8,176.4 30.4,166.1 27.2,176.3 16.3,176.3 
		25,182.6 21.8,192.8 	"/>
	<path fill="#FFFFFF" d="M137.8,72.9l8.7,6.3l-3.3,10.3l8.6-6.4l8.7,6.4l-3.3-10.2l8.3-6.1c-0.5-0.1-0.9-0.1-1.4-0.2h-8.9l-0.5-1.7
		c-1.8-0.3-3.6-0.6-5.4-1l-0.8,2.5H137.8z"/>
	<polygon fill="#FFFFFF" points="112.9,115.3 121.6,109 130.3,115.4 126.9,105.1 135.7,98.8 125,98.8 121.6,88.6 118.3,98.8 
		107.5,98.8 116.3,105.1 	"/>
	<polygon fill="#FFFFFF" points="204.1,141.2 212.8,134.9 221.5,141.3 218.2,131 226.9,124.7 216.1,124.7 212.8,114.5 209.4,124.7 
		198.8,124.7 207.5,131 	"/>
	<polygon fill="#FFFFFF" points="264.9,141.2 273.6,134.9 282.3,141.3 279,131 287.6,124.7 276.9,124.7 273.6,114.5 270.3,124.7 
		259.6,124.7 268.2,131 	"/>
	<polygon fill="#FFFFFF" points="99.9,192.8 96.6,182.7 105.3,176.4 94.5,176.4 91.2,166.1 87.8,176.3 77.2,176.3 85.9,182.6 
		82.5,192.8 91.2,186.6 	"/>
	<polygon fill="#FFFFFF" points="52.1,218.7 60.8,212.4 69.5,218.8 66.2,208.5 74.9,202.2 64.1,202.2 60.8,192 57.5,202.2 
		46.8,202.2 55.4,208.5 	"/>
	<path fill="#FFFFFF" d="M114.1,62.8c-0.3-0.1-0.6-0.1-0.8-0.2l-0.4,1.1L114.1,62.8z"/>
	<polygon fill="#FFFFFF" points="240,150.5 229.1,150.5 237.8,156.8 234.6,167.1 243.2,160.7 251.9,167.1 248.6,156.8 257.3,150.6 
		246.6,150.6 243.2,140.3 	"/>
	<path fill="#FFFFFF" d="M69.4,63.7l-3.2-10.2l3.9-2.8c-2-0.6-4-1.2-6-1.9c-2.5-0.8-4.8-1.5-6.4-2l-0.1,0.4H56
		c0.3,0.5,0.7,1,1.1,1.6c1.8,2.7,1.9,3.1,0.6,4.5c-0.9,1.1-0.9,1.4,0,4c0.3,0.7,0.5,1.4,0.6,2l2.7-2L69.4,63.7z"/>
	<polygon fill="#FFFFFF" points="179.1,150.5 168.4,150.5 177,156.8 173.7,167.1 182.4,160.7 191.1,167.1 187.8,156.8 196.5,150.6 
		185.7,150.6 182.4,140.3 	"/>
	<polygon fill="#FFFFFF" points="185.7,202.2 182.4,192 179.1,202.2 168.4,202.2 177,208.5 173.7,218.7 182.4,212.4 191.1,218.8 
		187.8,208.5 196.5,202.2 	"/>
	<polygon fill="#FFFFFF" points="221.5,192.8 218.2,182.7 226.9,176.4 216.1,176.4 212.8,166.1 209.4,176.3 198.8,176.3 
		207.5,182.6 204.1,192.8 212.8,186.6 	"/>
	<polygon fill="#FFFFFF" points="160.6,192.8 157.3,182.7 165.9,176.4 155.3,176.4 152,166.1 148.6,176.3 137.8,176.3 146.5,182.6 
		143.3,192.8 151.9,186.6 	"/>
	<polygon fill="#FFFFFF" points="246.6,202.2 243.2,192 240,202.2 229.1,202.2 237.8,208.5 234.6,218.7 243.2,212.4 251.9,218.8 
		248.6,208.5 257.3,202.2 	"/>
	<polygon fill="#FFFFFF" points="125,202.2 121.6,192 118.3,202.2 107.5,202.2 116.3,208.5 112.9,218.7 121.6,212.4 130.3,218.8 
		126.9,208.5 135.7,202.2 	"/>
	<polygon fill="#FFFFFF" points="155.3,124.7 152,114.5 148.6,124.7 137.8,124.7 146.5,131 143.3,141.2 151.9,134.9 160.6,141.3 
		157.3,131 165.9,124.7 	"/>
	<polygon fill="#FFFFFF" points="82.5,141.2 91.2,134.9 99.8,141.2 96.6,131 105.3,124.7 94.5,124.7 91.2,114.5 87.8,124.7 
		77.2,124.7 85.8,131 	"/>
	<polygon fill="#FFFFFF" points="282.3,192.8 279,182.7 287.6,176.4 276.9,176.4 273.6,166.1 270.3,176.3 259.6,176.3 268.2,182.6 
		264.9,192.8 273.6,186.6 	"/>
</g>
</svg>
