<?xml version="1.0" encoding="utf-8"?>
<!-- Generator: Adobe Illustrator 17.1.0, SVG Export Plug-In . SVG Version: 6.00 Build 0)  -->
<!DOCTYPE svg PUBLIC "-//W3C//DTD SVG 1.1//EN" "http://www.w3.org/Graphics/SVG/1.1/DTD/svg11.dtd">
<svg version="1.1" id="flag-icon-css-uy" xmlns="http://www.w3.org/2000/svg" xmlns:xlink="http://www.w3.org/1999/xlink" x="0px"
	 y="0px" viewBox="0 0 640 480" enable-background="new 0 0 640 480" xml:space="preserve">
<g>
	<polygon fill="none" points="396.2,480 396.6,480.6 397.2,480 	"/>
	<path fill="#FFFFFF" d="M532.7,266.7h6.8c0.2-0.2,0.3-0.4,0.5-0.6c0.8-1.5,2-2.1,4.6-2.6c1.8-0.4,1.8-0.5,0.7-5.1
		c-0.7-2.6-4.6-6.2-7.2-6.6c-1.7-0.2-9.4-4-11.3-5.5c-0.3-0.2-0.8-1.3-1.2-2.4c-0.4-1.3-1.1-2.2-2-2.7c-0.8-0.4-2.1-1.4-3.1-2.2
		c-0.9-0.8-2.9-1.9-4.5-2.3c-1.8-0.6-3-1.3-3.5-2.1c-0.4-0.7-1.4-1.9-2.3-2.9c-1.5-1.6-1.5-1.8-1.3-4.8c0.2-2.8,0.1-3.4-1.4-6.8
		c-0.9-2-1.9-5.1-2.2-6.9H266V160h180.5c-5.2-5.3-5.4-5.6-5.9-8.2c-0.7-3.8-3.5-9.4-5.2-10.6c-0.8-0.6-1.8-1.8-2.3-2.9l-0.9-1.8
		h-3.3c-2.4,0-3.8-0.2-5.3-1c-1.6-0.8-3-1-7.6-1.2l-5.6-0.2l-2.4-2.5c-2-2.2-2.6-2.5-4.1-2.5c-1.4,0-1.7-0.2-1.7-0.9
		c0-0.5-0.5-1.2-1.2-1.6c-0.9-0.6-1.2-1.2-1.2-2.8c0-1.4-0.3-2.5-1-3.4c-0.6-0.8-1-1.4-1.1-1.5s-0.8-0.4-1.8-0.8l-1.7-0.7l-1.2,2.3
		c-1.1,2.1-1.3,2.3-2.8,2.3c-1.1,0-1.7-0.3-2.1-0.9c-0.3-0.5-1.6-1.8-2.9-2.8c-2-1.6-2.7-1.9-4.6-1.9c-2.1,0-2.3-0.1-3-1.8
		c-1.5-3.3-3.2-6.1-4.6-7.8H266V53.3h29.9c-0.1-0.1-0.2-0.2-0.2-0.3c-2-2.8-3-3.7-4.8-4.6c-1.7-0.8-2.3-1.3-2.3-2
		c0-1.9-3.8-4.5-8.1-5.4c-1-0.2-1.3-0.6-1.3-1.4c0-1.5-1.5-3.2-5.5-6.3c-1.8-1.4-4.6-4.3-6.3-6.4c-2.7-3.4-3.3-3.9-5.4-4.6l-2.4-0.8
		l0-2c0-2.6-1.5-5.7-2.9-5.9c-0.6-0.1-1-0.4-1-0.8c0-1.1-1.4-1.9-2-1.3c-0.8,0.8-1.2,0.7-1.5-0.8c-0.3-1.4-1.2-1.9-3.6-1.9
		c-2.3,0-2.7-0.4-2.7-2.6c0-1.8-0.2-2.2-2.1-3.7c-1.6-1.4-2.4-1.7-4-1.7c-1.1,0-2.5,0.3-3.2,0.7c-2.7,1.4-4.3,1.3-6.9-0.2
		c-3-1.7-3.1-1.7-4.2-0.5c-0.7,0.7-1.5,0.9-3.4,0.9c-1.4,0-2.5,0.2-2.5,0.5c0,0.2-0.8,0.8-1.6,1.2c-0.9,0.4-1.6,1-1.6,1.3
		c0,0.3-0.7,2-1.5,3.8c-1.2,2.5-1.5,3.6-1.2,4.7c0.6,2.6,0.5,3-1.1,3.3c-0.8,0.2-2.2,1.1-3.1,2.1l-1.6,1.7l-0.2-1.2
		c-0.1-0.7-0.4-1.3-0.8-1.5c-0.8-0.6-1.7-0.4-1.7,0.3c0,0.4-0.4,1.1-0.8,1.7c-0.9,1.1-2.3,0.9-2.7-0.5c-0.3-0.8-0.4-0.8-1.5-0.1
		c-0.8,0.6-1.7,0.7-3.2,0.5c-2-0.3-2.1-0.3-2.4,0.8c-0.4,1.5-0.5,1.5-1.7,0c-0.8-1-1.3-1.2-3.6-1.2c-1.7,0-3.1,0.3-3.8,0.8
		c-0.8,0.6-1.2,0.6-1.3,0.2c-0.1-0.3-0.7-1.2-1.3-1.9c-0.9-1.1-1.1-1.7-0.8-2.8c0.3-1.2,0.1-1.7-1-2.9c-1-1-1.8-1.4-4.1-1.6
		c-1.5-0.2-2.9-0.2-3-0.1c-0.1,0.1,0.1,1,0.5,1.9c0.4,1.1,0.7,3.2,0.7,5.6c0,3.5-0.1,4.1-1.4,6c-0.8,1.2-4.7,5.4-8.9,9.4l-7.5,7.3
		l-0.6,3.1c-0.6,3.3-0.2,6.2,1,8.8c2-3.6,5.5-6.6,12.8-9c-13.3,12.9-2.8,16.1-6.5,35.3c0,0,0.1,0.1,0.1,0.1c0.6,0.7,0.6,1,0.2,1.8
		c-0.3,0.6-0.4,1.2-0.2,1.4s1.8,1.4,3.7,2.5l2.7,1.6l31.5-21.8l-27.6,39.9c28.4-0.4,27.7-19.2,48.6-8.5
		C200.4,96,212.5,110,180,123.5l-16.8-3l-0.2,0.3c0.1,0.1,0.1,0.2,0.1,0.4l66.9,12.2l-47.8,8.7c20.4,19.8,33.1,6,40.4,28.4
		c-15.6-16-16.9,2.5-49.4-11l-9.7-14l-0.4,0.1c0,0.1-0.1,0.2-0.1,0.4l38.7,55.9l-39.9-27.6c0.4,28.4,19.2,27.7,8.5,48.6
		c0.3-22.3-13.7-10.2-27.2-42.7l3-16.8l-0.3-0.2c-0.1,0.1-0.2,0.1-0.4,0.1l-7.7,42.4c0.3,0.7,0.6,1.3,0.9,1.7
		c1.1,1.5,1.3,2.1,1.4,6.3c0.2,6.6-0.5,9.8-3,13.3c-1.1,1.5-2.5,4.1-3.1,5.6l-1.1,2.8l2,6.2c1.8,5.5,2.1,6.9,2.5,13.1
		c0.4,6.5,0.6,9.8,1.2,12h392.5C531.4,266.5,532,266.5,532.7,266.7z"/>
	<path fill="#FFFFFF" d="M168.5,87.7c-0.4-0.9-1.2-1.3-4.3-2.2c-0.8-0.2-1.4-0.4-1.9-0.5c-0.7,2.5-1.7,5.2-2.9,8.2l-0.4,0.2
		c0,0.3,0.1,0.5,0.1,0.8L168.5,87.7C168.5,87.8,168.5,87.8,168.5,87.7z"/>
	<path fill="#FFFFFF" d="M398.9,478.5c3.1-2.6,2.2-2.2,17.6-8.5c9.2-3.8,15.5-6.8,21.3-10c9.2-5.2,14-7,19.8-7.5l3.9-0.3l0.8-2.5
		c1.3-4.3,7.5-10.9,13.4-14.2c1.5-0.8,5-2.9,7.7-4.5c2.7-1.6,5.8-3.2,6.9-3.6c0.9-0.3,1.4-0.5,1.7-0.8H158l0.1,1.8l2.4,1.4
		c2.7,1.6,5.8,1.8,8.5,0.8c0.9-0.4,2.6-0.8,3.8-1c1.2-0.1,3.3-0.7,4.6-1.2c2.8-1.1,5.8-1.1,7-0.2c1.3,1,2.8,0.9,4.3-0.3
		c1.2-0.9,1.5-1,3.8-0.5c2,0.4,2.8,0.5,3.6,0c0.7-0.4,2-0.4,3.9-0.2c1.6,0.2,5.1,0.3,7.8,0.2c9.3-0.1,13.2,1.3,15.2,5.7
		c0.9,2.1,6.2,7.1,11.5,11.2c1.2,0.9,3.1,2.5,4.2,3.6c1.2,1.1,2.9,2.4,3.8,2.9c2,1.1,10,4,13.3,4.8c1.3,0.3,3.6,1.2,5.1,2
		c2.5,1.3,3.1,1.4,7.7,1.4c4.8,0,5.2,0.1,8.7,1.7l3.7,1.7l-1.7,0.5c-1,0.3-2.2,1.1-2.9,2.1l-1.2,1.6l1,0.4c0.6,0.2,1.6,0.8,2.3,1.5
		c0.7,0.6,1.9,1.4,2.8,1.7s2.2,1.1,2.9,1.7c0.9,0.8,1.7,1.1,3.6,1.1c2.3,0,2.4-0.1,2.9-1.5l0.5-1.4l1.5,0.8c1,0.6,1.4,1.2,1.4,2.1
		c0,0.8,0.4,1.5,1.3,2.1c1.8,1.2,3.2,1,4.8-0.7c1.1-1.2,1.7-1.5,3.2-1.5c1.5,0,2.4-0.4,3.9-1.6c4.1-3.3,19.7-11.1,22.2-11.1
		c0.8,0,2.3-0.4,3.5-0.8l2.1-0.9l1.8,1.6c1.5,1.3,1.9,1.5,2.5,1c0.6-0.5,1-0.5,2.3,0c4.2,1.5,9.4,2.2,13.5,1.8
		c4.6-0.5,5.5-0.3,5.5,1.1c0,0.8,0.3,0.9,2.3,0.9c2.5,0,4.3,1.2,4.3,2.9c0,1.2,1.2,3.6,2.5,5c1.1,1.3,2.4,1.4,4.7,0.4
		c1.2-0.5,3.3-0.7,6.6-0.7c5.7,0,6.6,0.2,5.9,1.4c-0.4,0.8-0.1,0.9,2,1.4c3.9,0.9,5.3,1.6,6.4,3.5l0.7,1.1h1L398.9,478.5z"/>
	<path fill="#FFFFFF" d="M526,363.7c0-0.3-0.7-0.5-1.6-0.5c-1.7,0-2.2-0.7-2.2-3.4c0-1.1-0.2-1.3-2-1.5c-5.8-0.8-5.8-0.8-5.8-6.8
		c0-3.2-0.3-5.1-0.8-6.4l-0.8-1.9l-0.6,1.1l-0.7,1.1l-0.3-1c-0.2-0.8,0-1.4,1.1-2.6l1.5-1.5l-1.2-0.5c-1-0.4-1.2-1.1-1.9-5
		c-0.9-4.8-0.6-7.4,0.9-8.7c1-0.8,0.9-1.2-0.8-1.9l-1.5-0.6l0.3-2.9c0-0.3,0.1-0.6,0.1-0.8H120.6c-0.3,0.4-0.6,0.8-1,1.2l-1.1,1.4
		l1.3,1.1l1.4,1.1h-1.7c-2.1,0-2.2,0.4-0.6,2.3c1.5,1.8,1.5,3.4,0,7.1c-1.1,2.8-1.2,3.3-1.2,13.3c0,5.7,0.2,13,0.6,16.2
		c0.3,3.2,0.6,7.1,0.5,8.7c0,0.3,0,0.6,0,0.9h400.1C522,369.9,526,364.5,526,363.7z"/>
	<path fill="#0038A8" d="M511.4,316.6l1.3-1.3l-1.4,0.5c-0.8,0.3-1.5,0.3-1.6,0.1c-0.1-0.2-1.2-1.5-2.3-3c-2-2.6-2.3-3.4-1.7-5.4
		c0.2-0.8,0.7-1.1,1.6-1.1c1.5,0,1.6-0.2,0.7-1.9c-1.2-2.1-0.9-3.6,0.9-4.7l1.6-1l-0.9-1.8c-1.2-2.3-1.2-2.8,0-2.8
		c0.5,0,0.9,0.3,0.9,0.7c0,1.1,1.4,0.8,2.6-0.6c0.6-0.7,1.8-2.5,2.6-4c2-3.7,4.1-5.5,6.4-5.5c1,0,3.4-0.1,5.4-0.3
		c3.4-0.3,3.6-0.4,3.6-1.5c0-1.6,0.8-3,2.9-4.9c1.6-1.5,1.8-2,1.8-4c0-1.3,0.1-2.8,0.3-3.3c0.2-0.9,0-1.1-2.6-1.9
		c-2.1-0.6-2.9-1.1-2.9-1.7c0-0.3,0.1-0.5,0.4-0.6H138.6c0.7,2.5,1.8,3.7,4.1,6.4c3.5,3.9,3.6,4.9,1.2,12.2
		c-2.3,7.3-4.2,10.2-7.2,11.5c-1.9,0.8-6.7,1.6-10.6,1.8c-1.8,0.1-2.2,0.3-3.1,1.8c-0.8,1.5-0.9,2.4-0.9,9.4c0,6.8-0.1,8.3-1.5,10.3
		h389.3C510.1,318.4,510.5,317.6,511.4,316.6z"/>
	<path fill="#0038A8" d="M492.2,425.6c0-0.8,0.3-1.5,0.9-1.8c1.2-0.7,1.2-1.1-0.3-3.1c-1-1.3-1.2-1.9-1-3.3
		c0.6-3.4,1.8-5.3,8.6-12.9c0.6-0.6,3.6-3.5,6.7-6.4c5.2-4.9,5.6-5.4,5.9-7.3c0.3-2.9,1-5.6,1.6-6.8c0.3-0.6,0.6-2.3,0.6-4v-3
		l3.3-3.5c0.1-0.1,0.2-0.2,0.3-0.3H118.7c0,4,1.1,6.1,4.6,8.9c2.6,2.1,3.3,2.9,3.6,4.4c0.2,1.2,1.2,2.7,2.9,4.7l2.6,2.9l0.2,3.8
		c0.3,4.3,0.9,5.1,4.1,5.1c1,0,3,0.1,4.3,0.3c2.2,0.3,2.5,0.5,4,2.7c2.2,3.3,5.6,7.4,9.5,11.5l3.3,3.4l0.2,3.8l0.1,1.9h333.9
		C492.1,426.4,492.2,426.1,492.2,425.6z"/>
	<path fill="#0038A8" d="M533.7,267.1c0.7,0.4,1.9,0.6,3.3,0.4c1.4-0.1,2-0.3,2.5-0.9h-6.8C533,266.8,533.3,266.9,533.7,267.1z"/>
	<path fill="#0038A8" d="M266,106.7h107c-0.7-0.9-1.4-1.6-2-1.9c-0.9-0.5-1.7-1.3-1.7-1.7c0-2.2-2.2-6.4-4.6-8.9
		c-1.4-1.5-2.8-3.4-3.1-4.3c-0.7-2-4.5-6.1-8.4-9.1c-1.5-1.2-3.5-3.1-4.5-4.2c-2-2.5-3.6-2.8-5.8-0.9c-1.1,1-1.5,1.7-1.7,3.9
		c-0.1,1.5-0.6,3.5-1,4.4c-0.7,1.7-0.8,1.8-2.8,1.8c-1.7,0-2.1,0.2-2.7,1.3c-0.5,0.9-1.5,1.6-3.3,2.4c-2.4,1-2.7,1-3.1,0.3
		c-0.2-0.4-0.9-0.8-1.5-0.8c-0.6,0-3.1-1.5-5.7-3.3c-5.6-4-5.2-3.5-4.5-4.4c0.6-0.7,0.4-1-1.3-2.6c-1.1-1-2-2.1-2-2.4
		c0-0.4-0.7-2-1.4-3.6c-1.4-2.9-3.2-4.9-9.8-10.7c-1.4-1.2-1.5-1.5-1.1-2.4c0.5-0.8,0.3-1.1-1.2-2.1c-0.9-0.6-2.6-2.5-4-4.3H266
		V106.7z"/>
	<path fill="#0038A8" d="M266,213.3h239.3c0,0,0,0,0,0c-0.4-2.6-0.8-3.6-2.1-4.9c-1.5-1.6-3.5-5.1-3.5-6.1c0-0.2,0.5-0.5,1.1-0.5
		c2.5,0,2.7-0.4,1.3-2.6c-1.1-1.9-1.4-2.1-3.6-2.4c-1.3-0.1-3.1-0.8-4.1-1.3c-1.5-0.8-1.8-1.3-1.8-2.5c0-1.4-0.2-1.6-3.4-3.1
		c-1.8-0.9-4.3-2.6-5.5-3.7c-2.3-2.2-7.2-6-7.7-6c-0.2,0-1.2,0.9-2.3,2.1l-2,2.1l-0.8-1.8c-0.7-1.4-1.6-2.3-3.9-3.7
		c-2.1-1.2-3.9-2.9-5.5-4.8c-1.3-1.6-3.7-3.9-5.3-5c-1.6-1.1-5.7-4.8-9.1-8.3c-0.3-0.3-0.6-0.6-0.8-0.8H266V213.3z"/>
	<path fill="#FCD116" d="M144.4,163.6c-0.4,0.8-0.9,1.8-1.5,3l-2.5,4.9l-2.7,0.9c-3.6,1.3-4.9,2.6-5.3,5.4c-0.3,2.1-0.1,2.5,1.1,4.3
		c0.8,1.1,1.6,2.9,1.9,3.9c0.7,2.4,0.7,6.8,0,9.3c-0.4,1.7-0.4,2.3,0.3,3.5c0.4,0.8,0.9,2.7,1.2,4.1c0.2,0.9,0.5,1.8,0.8,2.6
		l7.7-42.4C145.1,163.3,144.8,163.5,144.4,163.6z"/>
	<path fill="#FCD116" d="M162.3,85.1c-1.9-0.4-2.5-0.3-4.1,0.1l-2.2,0.6l1.1,1.3c0.9,1,1.3,2.2,1.7,5.3c0.1,0.4,0.1,0.8,0.2,1.2
		l0.4-0.2C160.6,90.3,161.6,87.6,162.3,85.1z"/>
	<path fill="#FCD116" d="M170.3,43.9c-7.3,2.4-10.8,5.4-12.8,9c0.5,1.2,1.2,2.3,2.1,3.4c2,2.4,3,6.6,2.7,12.1
		c-0.3,4.9,0.3,9.4,1.4,10.8C167.5,59.9,157.1,56.8,170.3,43.9z"/>
	<path fill="#FCD116" d="M180,123.5c32.5-13.5,20.4-27.5,42.7-27.2c-21-10.6-20.2,8.1-48.6,8.5l-10.8,15.7L180,123.5z"/>
	<path fill="#FCD116" d="M163,120.8l0.2-0.3l10.8-15.7l27.6-39.9l-31.5,21.8l0.8,0.5l1-1.1c0.6-0.7,1.6-1.1,2.3-1.1
		c0.7,0,1.5-0.2,1.6-0.5c0.5-0.8,1.2-0.5,1.2,0.7c0,0.9-0.5,1.3-4,2.6c-2.3,0.8-4.1,1.4-4.2,1.4c0-0.1-0.3-0.6-0.5-1.2l-9.4,6.5
		c0.2,1.5,0.4,2.7,0.5,3.1c0.2,0.8,0,1.2-1,1.6c-0.8,0.3-1.6,1.4-2.2,2.4c-0.7,1.6-0.8,2-0.1,3.7c0.4,1,1.1,2.5,1.5,3.3
		c0.9,1.5,2.2,5.8,1.8,6.2c0,0-0.1,0-0.1,0C161,116.6,162.1,118.6,163,120.8z"/>
	<path fill="#FCD116" d="M173.3,159.4c32.5,13.5,33.8-5,49.4,11c-7.3-22.3-20-8.5-40.4-28.4l-18.7,3.4L173.3,159.4z"/>
	<path fill="#FCD116" d="M163.2,145.5l0.4-0.1l18.7-3.4l47.8-8.7l-66.9-12.2c1.5,3.8,2.4,7.9,2.4,12.2S164.7,141.7,163.2,145.5z"/>
	<path fill="#FCD116" d="M143.1,180c13.5,32.5,27.5,20.4,27.2,42.7c10.6-21-8.1-20.2-8.5-48.6l-15.7-10.8L143.1,180z"/>
	<path fill="#FCD116" d="M145.8,163l0.3,0.2l15.7,10.8l39.9,27.6L163,145.8C159.8,153.6,153.6,159.8,145.8,163z"/>
	<path fill="#FCD116" d="M145.8,163c7.7-3.3,13.9-9.5,17.2-17.2c0.1-0.1,0.1-0.2,0.1-0.4c1.5-3.8,2.4-7.9,2.4-12.2
		s-0.9-8.4-2.4-12.2c0-0.1-0.1-0.2-0.1-0.4c-0.9-2.1-2-4.2-3.4-6c-0.3-0.1-1.1-0.6-2-1.2l-1.8-1.5l-0.8,1.1c-0.5,0.6-1.1,2-1.4,3.1
		c-0.2,0.7-0.4,1.2-0.7,1.6c1.6,0.8,3.1,1.7,4,2.6c-1.5,1.8-2.6-0.1-6.1-1.1c-1.1,0.6-2,1.4-2.6,2.5c3.6,0.7,5.4,3.5,6.9,4.3
		c-1.2,0-2.3-1-4-1.9c0.5,0.8,0.7,1.7,0.2,2.6c0.4-0.2,0.8-0.5,1.2-0.8c2.1-1.5-2.9,3.5-6.2,3.5c-0.1,0-0.1,0-0.2,0
		c-0.6,1.3-1.5,2.6-2.6,3.3c-2.4,1.7-3,3.9-1.6,6.8c0.1,0.2,0.2,0.4,0.3,0.6c1.8,0.4,2.8,2.1,2.9,2.5c1,0.6,1.6,1.4,1.9,2.8
		c2.2,1.7,2.8,2.6,3.1,4.6c-0.8-1.3-0.9-1.6-1.6-2.5c-0.5,0.2-1,0.4-1.4,0.6c-0.1,1.6-0.3,3.7-0.8,6.5c-0.7,4.9-1,6.5-2.1,9
		c0.4-0.1,0.7-0.3,1-0.4C145.6,163.1,145.7,163.1,145.8,163z"/>
	<path fill="#FCD116" d="M150.5,123.7c-0.5-0.2-1.1-0.4-1.8-0.5c1.3,1.4,0.6,3.8-0.6,4.9c1-0.2,1.9-0.5,2.8-1
		C151.5,125.9,151,124.6,150.5,123.7z"/>
	<path fill="#FCD116" d="M148.7,147.5C148.7,147.5,148.7,147.5,148.7,147.5c0.2,0,0.3,0,0.5-0.1C149,147.4,148.8,147.4,148.7,147.5z
		"/>
	<path fill="#FCD116" d="M148.7,147.5C148.7,147.5,148.7,147.6,148.7,147.5c0.1,0,0.3-0.1,0.4-0.2
		C149,147.4,148.9,147.5,148.7,147.5z"/>
	<path fill="#FCD116" d="M148.7,147.5c-0.3-0.4-0.8-1-1.4-1.9c0.1,0.6,0.1,1.3,0.1,2.1c0.1,0,0.1,0,0.2,0
		C147.9,147.6,148.3,147.5,148.7,147.5z"/>
	<path fill="#FCD116" d="M148.7,147.5C148.7,147.5,148.7,147.5,148.7,147.5c-0.4,0-0.8,0.1-1.2,0.1c-0.1,0-0.1,0-0.2,0
		c0,0.1,0,0.3,0,0.4C147.7,147.9,148.2,147.7,148.7,147.5z"/>
	<path fill="#FCD116" d="M144.8,142.3c-0.2-0.1-0.4-0.2-0.6-0.3C144.4,142.1,144.6,142.2,144.8,142.3z"/>
	<path d="M157.1,120.4c-0.9-0.9-2.4-1.8-4-2.6c-0.4,0.5-0.9,0.9-2,1.4c0,0-0.1,0-0.1,0.1C154.5,120.3,155.5,122.1,157.1,120.4z"/>
	<path d="M148.7,123.2c-0.3-0.1-0.7-0.1-1-0.1c-0.3,0.8-0.5,1.8-0.5,2.7c0,0.8-0.2,1.6-0.4,2.5c0.5,0,0.9-0.1,1.3-0.2
		C149.4,127,150.1,124.6,148.7,123.2z"/>
	<path d="M150.5,123.7c-0.3-0.5-0.6-0.8-0.8-1c0.5,0.2,1.1,0.7,1.6,1.4c1.7,0.8,2.8,1.9,4,1.9c-1.5-0.8-3.3-3.6-6.9-4.3
		c-0.3,0.4-0.5,0.9-0.7,1.4c0.4,0,0.7,0.1,1,0.1C149.4,123.3,150,123.5,150.5,123.7z"/>
	<path d="M152.7,126c-0.4,0.3-0.8,0.5-1.2,0.8c-0.3,0.5-0.9,1.1-1.8,1.6c0.5-0.4,0.9-0.8,1.1-1.2c-0.8,0.5-1.7,0.8-2.8,1
		c-0.4,0.1-0.8,0.1-1.3,0.2c-0.1,0.4-0.3,0.8-0.5,1.2c0.1,0,0.1,0,0.2,0C149.7,129.5,154.7,124.5,152.7,126z"/>
	<path d="M148.7,147.5c0.2,0,0.3,0,0.5-0.1c-0.1,0.1-0.3,0.1-0.4,0.2c0.7,0.9,0.8,1.1,1.6,2.5c-0.3-2-0.9-2.9-3.1-4.6
		c0,0,0,0.1,0,0.1C147.9,146.4,148.3,147,148.7,147.5z"/>
	<path d="M148.7,147.5C148.7,147.5,148.7,147.5,148.7,147.5c0.2,0,0.3-0.1,0.4-0.1C149,147.4,148.8,147.5,148.7,147.5z"/>
	<path d="M147.5,147.6c0.4,0,0.8,0,1.2-0.1c0,0,0,0,0-0.1C148.3,147.5,147.9,147.6,147.5,147.6z"/>
	<path d="M147.3,147.6C147.3,147.6,147.3,147.6,147.3,147.6c0.1,0,0.1,0,0.2,0C147.5,147.6,147.4,147.6,147.3,147.6z"/>
	<path d="M148.7,147.6C148.7,147.6,148.7,147.5,148.7,147.6c-0.5,0.2-1,0.4-1.4,0.5c0,0,0,0.1,0,0.1
		C147.8,148,148.2,147.8,148.7,147.6z"/>
	<path d="M142.4,140.1c0.5,0.9,1.1,1.5,1.8,1.9c0.2,0.1,0.4,0.2,0.6,0.3c0,0,0.1,0,0.1,0.1c0.2,0.1,0.3,0.1,0.4,0.2
		C145.2,142.2,144.2,140.5,142.4,140.1z"/>
	<path d="M149.7,122.7c0.2,0.2,0.5,0.5,0.8,1c0.5,0.9,1,2.2,0.4,3.4c-0.2,0.4-0.6,0.8-1.1,1.2c0.9-0.5,1.5-1,1.8-1.6
		c0.5-0.9,0.3-1.9-0.2-2.6C150.9,123.5,150.2,122.9,149.7,122.7z"/>
</g>
</svg>
