<?xml version="1.0" encoding="utf-8"?>
<!-- Generator: Adobe Illustrator 17.1.0, SVG Export Plug-In . SVG Version: 6.00 Build 0)  -->
<!DOCTYPE svg PUBLIC "-//W3C//DTD SVG 1.1//EN" "http://www.w3.org/Graphics/SVG/1.1/DTD/svg11.dtd">
<svg version="1.1" id="flag-icon-css-uz" xmlns="http://www.w3.org/2000/svg" xmlns:xlink="http://www.w3.org/1999/xlink" x="0px"
	 y="0px" viewBox="0 0 640 480" enable-background="new 0 0 640 480" xml:space="preserve">
<g>
	<g id="b_26_">
		<g transform="rotate(144)">
			<g transform="rotate(72)">
			</g>
			<g id="b_25_">
			</g>
			<g id="c_11_" transform="rotate(-72)">
			</g>
		</g>
	</g>
	<g>
		<g>
			<g transform="rotate(144)">
			</g>
			<g id="d_5_">
			</g>
			<g id="d_6_">
			</g>
		</g>
		<g>
			<g transform="rotate(144)">
			</g>
			<g id="d_7_">
			</g>
			<g id="d_8_">
			</g>
		</g>
	</g>
</g>
<g>
	<path fill="#1EB53A" d="M280.7,344.8c3,4.6,3.5,5,13.3,11.3l10.2,6.7l2.9-0.6l2.9-0.6l6.2,6.1c6,5.9,6.4,6.2,11.2,7.7
		c4.6,1.4,6.1,2.4,17.6,11c6.9,5.2,13.3,9.8,14.2,10.1c2.5,1,5.7,0.7,8.4-0.7l2.5-1.2l4.7,2.6c2.6,1.4,6.4,3.8,8.5,5.2
		c2.8,1.9,5.1,2.9,9,3.8c5.1,1.1,5.2,1.2,6.4,3.7l1.1,2.5l-1.8,3.6c-2.5,4.9-3.2,10.5-2.2,17.5l0.7,5.5l9.7-0.4l9.8-0.4l4.4,4.4
		l4.5,4.4l2.9-1.2c1.6-0.6,3.6-1.7,4.4-2.4l1.6-1.3l1.3,1.6c1.1,1.5,1.5,1.6,3.4,1.1c1.7-0.4,2.7-0.3,4.5,0.6l2.2,1.1l1-2.4
		c0.7-1.7,1-4.4,1-8.2v-5.7l4.3-6.6c2.8-4.2,4.6-7.7,5.1-9.8c0.7-3.1,0.9-3.3,3.3-4.1c2.6-0.8,2.6-0.9,4.9-7.4l2.3-6.7l-3.5-2.4
		c-3.6-2.5-5.7-5.2-8.6-10.7c-1.6-3.2-1.7-3.7-1.2-9.2c0.4-5.2,0.6-5.9,1.9-6.8c2-1.2,1.9-2.3-0.4-5.7l-1.9-2.8l-5.4,0.1
		c-7.2,0.1-10.1-1.1-10.1-4.1v-2.1l-6-1.8c-3.3-1-6.2-2.2-6.4-2.6c-0.1-0.4,0.3-2.9,1.1-5.3c0.7-2.5,1.3-5.2,1.3-5.9
		c0-1,0.4-1.6,1.3-1.8c0.7-0.2,1.4-1.1,1.6-2.1c0.2-1.4,1.1-2.1,4.1-3.3l3.7-1.6l12.3,1.6c15.8,2,16,2,19-1.9
		c0.1-0.2,0.3-0.4,0.4-0.5H259.9C276.7,339.3,277.9,340.5,280.7,344.8z"/>
	<path fill="#0099B5" d="M347.3,146.2c-5.2-2.8-5.8-3.4-11-10.1c-3-3.9-5.7-7.2-6-7.2c-0.3,0-3.9,2.1-8.1,4.7l-7.5,4.7l-22.9-2.2
		l-22.9-2.2l-19.6,2.7c-10.8,1.5-20.3,2.9-21.2,3.1c-1.4,0.2-2.9-1.2-14.3-14.5c-7.3-8.5-11-12.7-13-15.3
		c-3.4,4.8-7.5,9.1-12.2,12.6c0.3,0.1,0.7,0.3,1,0.3c2.2,0.5,2.2,0.6,0.4,3.7c-1.1,2-2.1,2.7-5.7,4.1c-2.4,0.9-5.3,2.1-6.4,2.7
		c-1.9,0.9-2.2,1-3.1,0.2c-1.1-1-3.2-1.5-5.4-1.5c-2.1,0.6-4.2,1.1-6.4,1.4c-0.8,0.4-1.5,0.9-2.1,1.5c-1.3,1.4-2.2,1.7-5.9,2.1
		c-2.4,0.2-5.4,0.6-6.5,0.7c-3.1,0.5-4.4-0.7-4.8-4.4c-3,0.5-6,0.7-9.1,0.7c-11.5,0-22.3-3.4-31.3-9.3c-3,0.9-4.7,0.2-6-2.5
		c-0.5-0.9-0.8-1.8-1-2.8c-11.9-10.6-19.3-25.9-19.3-43c0-15.7,6.3-30,16.5-40.3c-7.8,1.6-17.9,3.6-28.9,5.9
		c-24.6,5.1-45,9.4-45.3,9.7c-0.9,1.1-3.9,29.2-7.5,70.7c-0.8,9.2-1.7,20-2.7,30.8h346l-2.1-4.4L347.3,146.2z"/>
	<path fill="#CE1126" d="M257.7,324.7c0.8,0.6,1.5,1.2,2.2,1.7h210.6c1.9-2.5,2-3.1,2-7.5c0-0.8,0-1.5,0-2.1H247.4L257.7,324.7z"/>
	<path fill="#CE1126" d="M8,163.2h351.6c-0.6-1.2-1.2-2.4-1.8-3.8l-2.8-5.8H8.9C8.6,156.8,8.3,160,8,163.2z"/>
	<path fill="#FFFFFF" d="M4.4,199.6c-1.9,18.5-3.4,33.6-3.2,33.7c0.2,0.2,36.8,5.9,38,5.9c0.4,0,2.1-1.1,3.7-2.4l2.9-2.4l-1.8-1.7
		c-2.2-2.1-2.9-3.9-3.9-11.2c-0.7-5.1-0.7-6,0.2-9.2c1.1-3.7,2.1-5.2,7.2-10.9c3.7-4.1,7.5-5.4,13.2-4.4c2.4,0.4,5,0.3,8.1-0.2
		c4-0.7,4.6-0.9,4.2-1.9c-0.1-0.6,0.1-1.3,0.6-1.5c1.3-0.5,3.4-4.8,3.4-7c0-1.7,2.3-4.4,3.8-4.4c0.3,0,2.3,1.3,4.5,2.9
		c2.7,1.9,4.4,3.7,5.3,5.6c1.2,2.6,1.5,2.7,3.9,2.7c1.4,0,2.5-0.1,2.5-0.2c0-0.1-1-2.6-2.2-5.5c-1.7-4.2-2.9-5.9-5.6-8.4l-3.4-3.1
		l2.6-1.2c2.4-1.1,2.7-1.1,7-0.1c2.4,0.6,4.5,1,4.6,0.9c0.1-0.1,0.7-1.6,1.4-3.2l1.2-3l4.6,5.8c2.5,3.2,4.9,6,5.2,6.2
		c0.3,0.2,2.2,0.5,4.2,0.5c3.4,0,3.7,0.1,5.2,2.2c1,1.2,1.9,3.4,2.1,4.8l0.4,2.6l10.4,1.6l10.4,1.6l3.6,3c2.7,2.4,3.4,3.3,3.2,4.4
		c-0.2,0.7-0.4,2.9-0.4,4.9c0,3.4-0.1,3.6-1.7,4c-1.6,0.4-1.5,0.5,1.7,2.1c2.8,1.4,7.4,5.9,7.4,7.1c0,0.2-1.3,0.2-2.9-0.1l-2.8-0.4
		l0.1,3.7c0.1,2-0.2,6.5-0.7,9.9l-0.8,6.2l2.1,1.8c1.2,0.9,4.4,3.1,7.1,4.8l5,3l10.9,0.4c9.5,0.4,11.3,0.7,14.6,2l3.7,1.5l2.6-2
		c1.4-1.1,2.8-2.4,3.1-2.9c0.6-1,1.4-1,5.4-0.1c3.6,0.7,7.1,3.6,11.8,9.5c2.8,3.6,3.1,4.3,3.7,8.9c0.5,3.6,1.6,6.9,4.1,12.4
		c2.9,6.5,3.7,7.9,6.2,9.7c2.8,2.1,2.9,2.3,3.9,7.7c0.6,3.1,1.2,7.3,1.4,9.4l0.4,3.7l9.7,7.5h225.1c0-1.6,0.1-2.7,0.2-2.7
		c0.2,0,1,0.2,1.9,0.6c1.4,0.6,1.7,0.4,2.2-1c0.4-0.9,0.6-2.4,0.6-3.4c0-1.6,0.1-1.8,1.2-1.2c1.9,1,2,0.8,1.6-2.4l-0.4-3l2.2-0.4
		c1.7-0.3,2.2-0.7,2.2-1.6c0-1.3-0.7-1.4-4.1-0.6c-1.4,0.3-2.6,0-4.9-1.2c-2-1-2.7-1.7-2.2-2c0.4-0.2,5.2-0.8,10.7-1.2
		c9.5-0.8,9.9-0.9,9.5-2.1c-0.2-0.9,0.2-1.7,1.8-3l2.2-1.7l-2.2-2.9c-1.2-1.6-2.2-3.5-2.2-4.3s-0.2-1.9-0.4-2.4
		c-0.2-0.7,0.2-1.1,1.8-1.3l2.2-0.4l0.4-5.5c0.3-4.6,0.6-5.7,1.6-6.2c1.4-0.7,1.7-0.6,6.2,3.3c4.2,3.6,5.8,3.8,8.5,0.9
		c1.1-1.1,5.7-3.9,10.6-6.3l8.7-4.3l1.2-3.8c0.8-2.6,1.5-3.8,2.2-3.8c0.6,0,3,1.9,5.4,4.2c4.4,4.2,4.4,4.3,3.1,5.4
		c-1.3,1-1.2,1.1,1.9,2.6c1.7,0.8,3.2,1.7,3.2,1.9c0,0.3-3.5,3.5-7.7,7.2l-7.7,6.7l1.9,2.4c1.4,1.9,2.2,2.4,3.9,2.4
		c1.8,0,2.4,0.4,4.4,3.4c1.2,1.9,2.5,3.4,2.7,3.4c2.4,0,13.5-3,18.6-5l6.2-2.6l5.1,2.2c4.4,1.9,5.4,2.1,6.4,1.5
		c1.1-0.7,1.4-0.5,3,1.3l1.8,2.2l2-2.9c1.9-2.9,2.1-2.9,5.2-2.9h3.1l-1-1.5c-0.9-1.5-0.9-1.6,0.6-2.8c0.9-0.7,1.8-2.2,2.1-3.2
		c0.3-1.7,0.8-2.1,3.2-2.8c2.4-0.7,3.1-0.7,5.5,0.4c1.6,0.7,3,1.2,3.3,1.2c0.9,0,0.6-2.9-0.7-6.2c-0.7-1.7-1.1-3.4-0.9-3.7
		c0.2-0.3,2.5,0.1,5.1,0.7c4.4,1.2,4.8,1.2,5.5,0.2c0.4-0.6,1.2-0.9,1.7-0.7c0.7,0.3,1.1-0.4,1.7-2.4c0.7-2.6,1.1-3,6.5-6.2
		c3.1-1.9,6.3-4.1,7.1-4.9l1.4-1.6l-3.3-0.3c-1.8-0.2-6.1-0.6-9.5-0.7c-9.4-0.6-10.7-0.8-11.4-2.4c-0.4-0.9-1.9-1.9-4.4-2.9
		l-3.9-1.4l-1.4,1.4c-0.7,0.7-2,1.3-2.7,1.3c-1.4,0-1.4-0.1-2.5-5.6L600,239l-5.1,0.2l-5,0.1l-0.4-2.5c-0.2-1.4-1-3.7-1.7-5.3
		c-1.2-2.6-1.6-2.8-3.7-2.8c-2.2,0-2.3-0.1-2.7-2.5c-0.4-2.5-1.1-3-2.8-1.9c-0.6,0.4-0.7,1.2-0.4,3.2c0.2,1.4,0.2,3.9,0,5.5
		l-0.4,2.9l-2.6-0.2l-2.7-0.2l-0.4,3c-0.2,1.6-0.4,3.7-0.4,4.7c0,1.7-0.1,1.8-3.4,1.8c-2,0-4.6-0.5-6.2-1.2
		c-1.6-0.6-5.2-1.6-8.2-1.9l-5.3-0.7v-2.5c0-2.6-1.4-6-3-7.5c-0.9-0.8-1.6-0.7-5.3,0.4l-4.2,1.2l-1.7-1.6c-1.3-1.2-2.4-1.7-4.3-1.7
		c-3.8,0-5.8-0.9-5.8-2.7c0-1.1,1.3-2.4,6.1-5.6c3.9-2.7,7-5.5,8.8-7.8c1.6-2,4-4.3,5.4-5.2c2-1.2,2.7-2.1,3-3.9
		c0.4-2.1,0.7-2.4,5.5-4.6c5-2.3,9.2-5.2,9.2-6.4c0-0.3-1.7-1.4-3.9-2.5l-3.9-1.9l-5.7,2.9c-5.5,2.7-5.8,3-7.6,6.6
		c-1.1,2.1-2.1,3.7-2.2,3.7c-0.1,0-1.4-0.6-2.7-1.2l-2.4-1.2l-2.8,1.7c-1.9,1.2-3,2.4-3.2,3.6c-0.2,0.9-2.4,4.1-4.7,7
		c-4.2,5.3-4.4,5.4-10.7,8.1c-6.6,2.9-13,7.6-14.8,11c-0.6,1.1-1.4,1.6-2.5,1.6c-0.9,0-3.5,1.2-6,3l-4.3,2.9l-0.2,3.9l-0.2,3.9
		l-5,3.9c-3.7,2.9-5.1,4.5-5.5,6c-0.3,1.2-1.7,3.3-3.1,4.7c-2.2,2.4-2.4,2.9-2.7,6.7c-0.2,3.9-0.2,4.2,1.2,4.5
		c1.2,0.3,1.5,0.8,1.5,2.9c0,2.6,0,2.6-2,2.2c-1.1-0.1-2.6,0-3.2,0.3c-0.9,0.4-2.9-0.4-9-3.7c-4.3-2.3-8.2-4.9-8.8-5.7
		c-0.9-1.4-0.9-1.6,0.6-2.8c1.2-1.1,1.7-2.2,1.9-4.7c0.4-3.2,0.4-3.2-1.4-3.2c-1.4,0-1.9-0.4-2.8-2.4c-1.7-3.8-2.7-4.8-3.7-3.9
		c-0.6,0.4-1.4,0.5-2.4,0.2c-1-0.4-5.4-0.1-13,0.9c-11.8,1.6-16.8,1.6-24.6,0.2l-3.7-0.7l-3.9-14.2c-3.1-11.3-3.9-15.2-4-19.5
		l-0.2-5.3l-9.4-0.2l-9.4-0.2l-0.4-8.9c-0.4-7.4-0.3-9.3,0.4-10.8c0.7-1.3,1.1-5.2,1.4-15c0.2-7.3,0.2-13.2,0.1-13.2
		c-0.2,0-2.5,1.3-5.1,2.9c-2.6,1.6-4.8,2.7-5,2.6c-0.1-0.1-1.5-2.9-3.4-6.8H8C6.7,177.2,5.4,190.4,4.4,199.6z"/>
	<path fill="#FFFFFF" d="M96.1,119.8c-0.5-2.7-0.1-6.3,1.3-11.9l1.6-6.4l-2.1-3.1c-1.6-2.1-2.4-4.2-2.9-7.1c-1.1-6.4-0.9-8.2,0.9-10
		c0.5-0.5,0.9-1,1.1-1.5C96,78.9,96,77.9,96,76.8c0-0.1,0-0.1,0-0.2c-0.2-0.9-0.6-1.9-1.1-3.2c-1.9-4.9-0.2-12,3.8-16.3
		c0.9-0.9,2.1-3.6,2.9-6.5c0.9-3.2,2.2-6.2,4-8.8c2.3-3.4,4.5-8.1,3.9-8.5c0,0-6.3,1.2-16.1,3.2C83.1,46.8,76.8,61.1,76.8,76.8
		C76.8,93.9,84.3,109.3,96.1,119.8z"/>
	<path fill="#FFFFFF" d="M143.5,133.7c0-0.1,0-0.1,0-0.2c-9.7-1.7-18.5-5.9-25.9-11.8c-0.6,0.4-1.5,0.7-3,1.1
		c-2,0.6-4.7,1.1-5.8,1.1c-1.2,0-3.4,0.4-4.8,0.9c-0.3,0.1-0.6,0.2-0.9,0.3c9,5.8,19.8,9.3,31.3,9.3
		C137.5,134.4,140.5,134.2,143.5,133.7z"/>
	<path fill="#0099B5" d="M200.6,110.1c-2.3-3-2.3-3.5-2.8-5.5c-0.9-3.2-4.4-9.3-5.4-9.3c-0.9,0-2.4,3.6-2.4,5.5
		c0,1.7-0.1,1.9-1.7,1.6l-1.8-0.4l-0.4,4.6c-0.6,6.3-0.9,7.6-2.2,7.2c-2.6-0.7-2.9-0.7-3.1,0.7c-0.3,2.2,1.1,5.1,2.5,5.1
		c0.6,0,1.9,0.7,2.7,1.5c0.6,0.6,1.6,1.2,2.5,1.6C193.1,119.1,197.2,114.9,200.6,110.1z"/>
	<path fill="#0099B5" d="M162.8,133.7c2.2-0.3,4.3-0.8,6.4-1.4C167,132.3,164.6,132.8,162.8,133.7z"/>
	<path fill="#0099B5" d="M143.4,133.5c-0.3-3-0.2-3.2,1.4-3.7l1.8-0.6l-2.2-0.4c-1.2-0.3-3.2-1.2-4.5-2.1c-1.9-1.3-2.4-2-2.4-3.7
		c0-2.5-0.1-2.6-2.6-0.7c-1.6,1.1-2.1,1.2-3.2,0.6c-0.6-0.4-2.4-1.2-3.9-1.6c-2.5-0.7-2.7-0.7-2.7,0.3c0,0.6-0.4,1.4-0.9,1.9
		c-0.8,0.7-1,0.5-1.3-1.2c-0.4-1.9-1.8-3.3-6.9-6.9l-2.1-1.4v2.5c0,2.5,0.1,2.6,2.2,2.6c1.9,0,2.2,0.2,2.2,1.4c0,0.6-0.2,1-0.7,1.4
		C124.9,127.6,133.8,131.8,143.4,133.5C143.4,133.5,143.4,133.5,143.4,133.5z"/>
	<path fill="#0099B5" d="M96.1,80c0.3-0.8,0.3-1.9-0.1-3.4c0,0.1,0,0.1,0,0.2C96,77.9,96,78.9,96.1,80z"/>
</g>
</svg>
