<?xml version="1.0" encoding="utf-8"?>
<!-- Generator: Adobe Illustrator 17.1.0, SVG Export Plug-In . SVG Version: 6.00 Build 0)  -->
<!DOCTYPE svg PUBLIC "-//W3C//DTD SVG 1.1//EN" "http://www.w3.org/Graphics/SVG/1.1/DTD/svg11.dtd">
<svg version="1.1" id="flag-icon-css-vc" xmlns="http://www.w3.org/2000/svg" xmlns:xlink="http://www.w3.org/1999/xlink" x="0px"
	 y="0px" viewBox="0 0 640 480" enable-background="new 0 0 640 480" xml:space="preserve">
<g>
	<path fill="#F4F100" d="M362.6,347.2c0.9-0.6,0.6-2.1-0.5-2.1c-0.7,0-0.9,0.2-0.6,1C361.9,347.5,362,347.6,362.6,347.2z"/>
	<path fill="#F4F100" d="M325,236.6c7.9,0,8.2,0,10.3,1.3c3.2,1.8,7.7,1.5,7.7-0.5c0-0.8,1.9-1.6,4-1.6c1.3,0,1.6,0.2,1.6,0.9
		c0,0.5,0.2,0.9,0.4,0.9c0.6,0,2.4-2.3,2.4-3c0-0.2,0.7-1.1,1.6-2.1l-9.1-15.2c-0.3,0.1-0.8,0.2-1.3,0.2c-1.5,0-1.8,0.2-2.7,2.1
		l-1,2.1l1.1,1c0.8,0.7,1.6,1,3.5,1c2.4,0,2.4,0,2.4,1.4c0,1.9-4.3,6.6-5.9,6.6c-0.6,0-1.6,0.2-2.1,0.6c-0.6,0.3-3.6,0.6-7.6,0.7
		c-4.7,0.1-6.2,0.2-7.2,0.7l1.8,3C324.8,236.6,324.9,236.6,325,236.6z"/>
	<path fill="#F4F100" d="M376.2,315.3l0.9,1.4l0.3-1.4c0.2-0.7,0.6-1.7,1-2.1s0.8-1.7,0.9-2.8c0.1-1.1,0.9-3.9,1.6-6.3
		c1.4-4.1,1.4-4.3,2.9-4.4c1.1-0.1,1.5-0.4,1.6-1.2c0.1-0.6-0.1-1-0.4-1c-0.4,0-0.4-0.1,0-0.7c0.6-0.7,0.2-4.5-0.4-4.4
		c-0.2,0-1.4,0.7-2.6,1.7c-2.2,1.6-3.4,1.8-5.5,0.9c-0.6-0.2-0.9,0.1-1.5,1.5c-0.4,1.1-1,1.9-1.3,1.9c-0.3,0-0.4,0.4-0.2,1.3
		c0.6,2.1,0.3,3.9-1,6.1c-1.1,1.9-1.2,2.3-0.7,3.6c0.3,0.8,0.6,1.9,0.6,2.3s0.7,1.1,1.4,1.5C374.6,313.5,375.6,314.5,376.2,315.3z"
		/>
	<path fill="#F4F100" d="M341,244.5c-0.7,0.4-1.3,1.1-1.3,1.5c0,0.5-0.2,1.1-0.6,1.4c-0.7,0.7,0.6,1.2,2.7,0.8
		c2.3-0.5,3-1.9,1.5-3.3C342.3,243.9,342.2,243.9,341,244.5z"/>
	<path fill="#F4F100" d="M370.7,328.4c1.2,0.1,1.7,0,2.3-0.8c0.7-0.9,0.7-1-0.9-1.7c-2-1-1.7-1-2.8,0.1
		C368.3,327.2,368.8,328.2,370.7,328.4z"/>
	<path fill="#F4F100" d="M251.6,453.5c1.3,0,1.8-0.6,2.6-2.9c0.5-1.5,0.9-1.8,3.3-2.7c1.6-0.6,2.8-1.3,2.8-1.7s-0.8-1.2-1.9-1.9
		c-1.1-0.7-1.9-1.5-1.9-2.1c0-0.5-0.4-1-0.9-1.1c-0.7-0.2-0.9,0-0.9,0.9c0,1.2,0,1.2-0.8,0.5c-1-0.9-1.5-0.6-1.5,0.7
		c0,0.5-0.6,1.7-1.2,2.7c-1,1.5-1.1,2-0.7,2.6c0.5,0.6,0.5,1,0,1.9C249.8,452.2,250.3,453.5,251.6,453.5z"/>
	<path fill="#F4F100" d="M216.2,472.9c-1.9,0.5-2,0.6-2.1,2.7c-0.1,2.4-0.5,2.2,4.8,2.9c1,0.1,2.3,0.4,2.9,0.6
		c0.8,0.2,1.2,0,1.5-0.9c0.3-0.9,0.8-1.2,1.8-1.2c0.9,0,1.5-0.4,2.1-1.4c1-1.7,1.3-1.7,2.9-0.2c1.4,1.3,1.9,1.4,2.3,0.7
		c0.1-0.2,1.3-0.5,2.5-0.5c2.6,0,3.1-0.3,3.8-2.1c0.3-0.7,1.1-1.5,1.9-1.8c1.1-0.4,1.4-0.8,1.4-1.8c0-1.1-0.3-1.4-1.5-1.6
		c-0.8-0.2-2.1-0.3-2.8-0.2c-0.9,0.1-1.3-0.1-1.3-0.6c0-0.8-1.2-1-1.6-0.3c-0.1,0.2-1.3,0.5-2.5,0.5c-2.9,0-4.8-1.6-5.1-4.2
		c-0.2-1.7-0.4-1.9-1.6-1.9c-1,0-1.4,0.3-1.6,1c-0.2,0.7-0.6,0.9-1.5,0.7c-1.4-0.3-4.3,0.8-4.3,1.5c0,0.3,0.7,1.2,1.4,1.9
		c0.8,0.7,1.4,1.7,1.4,2.3C221,470.3,218.5,472.4,216.2,472.9z"/>
	<path fill="#F4F100" d="M296.4,401.1c0.6-0.1,2.4-0.7,4-1.3c3.2-1.1,3.4-1.5,2.2-4.2c-0.4-1-0.6-2.4-0.4-4c0.2-2.1,0.1-2.5-0.7-3
		c-0.8-0.4-1.2-0.3-2.4,0.7c-1.4,1.2-4.3,1.7-4.7,0.8c-0.1-0.4-3.5-2-4.1-2c-0.2,0-0.7,0.4-0.9,0.9c-0.3,0.5-0.7,2-0.8,3.2
		c-0.2,2.2-0.2,2.3,1.2,3c1.4,0.7,1.5,1.1,2.1,4.7c0.2,1,0.4,2.4,0.6,3.1c0.7,3.8-1.3,6.2-4.6,5.7c-1.4-0.2-1.7-0.1-1.9,0.7
		c-0.4,1.5-2.9,1.3-5.3-0.4c-1-0.7-2.5-1.4-3.2-1.5c-1.2-0.1-1.4,0-1.5,0.9c-0.1,0.9,0,1.1,1.1,1.1c1.3,0,4,1.2,4.6,2.1
		c0.2,0.3,0.6,1.3,0.8,2.3l0.5,1.8l1.8-1.7c1.9-1.9,4.1-2.2,5.2-0.9c0.3,0.4,1,0.9,1.6,1.1c0.8,0.3,1.1,0,2.1-2.3
		c1.4-3.6,2-5.9,2-8.5C295.3,401.6,295.4,401.3,296.4,401.1z"/>
	<path fill="#F4F100" d="M321.1,98.2c0,1-0.2,3.6-0.4,5.8l-0.3,3.9l1.1-0.3c1.3-0.3,2.4,1.1,2.9,4c0.2,1.1,0.8,2.1,1.7,2.7l1.4,1
		l-0.9,2.3c-1.1,2.9-1.1,3.2,0.2,3.2c1.6,0,2.6,0.5,2.6,1.2c0,0.4,0.7,0.7,1.5,0.8c1.3,0.1,1.5,0.3,1.6,1.6c0.2,1.9,1.6,2.9,3.6,2.6
		c2.5-0.4,3.2,0.6,3.3,4.5c0.1,2.6,0,3.5-0.6,3.8c-0.7,0.4-0.7,0.5,0,0.9c0.7,0.5,1.4,0.4,6.8-0.3c1.8-0.2,2.4-0.1,4.4,1.2
		c2.6,1.7,2.7,2,0.8,6.2l-1,2.2l1.1,1.2l1.1,1.2l1.5-0.9c2-1.2,4.9-1.2,7.1,0c1,0.5,2.5,1.1,3.3,1.2c1.1,0.2,1.9,0.8,2.6,1.9
		c0.2,0.2,0.3,0.5,0.5,0.7l13.5-20.8l9.7,16.6c0.3-0.4,0.6-0.9,1-1.4c1.3-2.2,2-2.8,3-2.9c1-0.1,1.5-0.6,2.4-2.2
		c0.6-1.2,1.4-2.4,1.7-2.8c1.6-1.9,1.9-3.2,2.1-9.9c0.2-6.5,0.3-6.9,1.5-8.6c0.7-1,1.5-2.9,1.7-4.1c0.2-1.3,1.1-3.2,1.9-4.3
		c0.8-1.1,1.4-2.4,1.4-2.9c0-0.4,0.4-1.5,0.9-2.3s0.9-2.1,0.9-2.8s0.6-3.3,1.4-5.7c1-3.6,1.7-5,3.5-7.2c1.2-1.4,2.4-3.4,2.7-4.4
		c0.5-1.6,0.4-2-0.9-4.6c-1.6-3.1-1.8-4.7-0.8-6.3c1.3-2,1.8-27.3,0.7-30.2c-0.3-0.7-0.6-3.7-0.7-6.8c-0.2-5.4-0.3-5.7-1.5-6.9
		c-0.8-0.8-1.4-1.8-1.4-2.6c0-0.7-0.5-2.1-1.2-3c-0.7-0.9-1.2-2-1.2-2.4c0-0.4-0.5-1.6-1.1-2.7c-0.9-1.5-1-2.2-0.7-2.9
		c0.3-0.5,0.4-0.9,0.3-1c-0.1,0-0.7-0.5-1.4-0.9c-1.5-0.9-1.7-2.2-0.4-2.2c0.7,0,0.9-0.3,0.9-1.5c0-2.2-1.3-3.3-3.4-2.9
		c-1.2,0.2-1.8,0.1-2.4-0.7c-0.8-0.9-0.8-1,0.4-1.5c1.5-0.7,1.4-1.3-0.6-2.4c-1.4-0.8-1.5-0.8-3,0.3c-1.7,1.2-2.6,1.1-4.1-0.7
		c-0.7-0.9-3.7-1.7-7.9-2.1c-1.9-0.2-2.8-0.1-3.5,0.5c-0.5,0.4-1.7,0.7-2.6,0.7c-0.9,0-2.7,0.3-4,0.7c-1.9,0.6-2.5,1-3.2,2.3
		c-0.8,1.6-1,1.6-3.6,1.6c-1.9,0-2.7,0.2-2.7,0.6c0,0.3-0.7,1.1-1.6,1.7s-1.6,1.4-1.6,1.8c0,1.7-2.9,9.3-4.1,10.5
		c-0.8,0.8-1.1,1.5-0.9,2.1c0.2,0.7-0.2,1.4-1.8,2.8c-2.5,2.3-3.4,4-3.8,7c-0.4,3.4-2.1,6.4-4.6,8.1l-2.1,1.5l0.3,5.2l0.3,5.2
		l-1.8,1.3c-1.6,1.1-1.9,1.2-2.7,0.6c-1.3-1-2.9-0.9-3.1,0.2c-0.1,0.5-0.7,1.1-1.4,1.4c-0.7,0.2-1.3,0.7-1.5,1s-0.7,0.4-1.3,0.2
		c-0.5-0.2-1.4-0.2-2,0c-1.4,0.4-2.4,3-1.7,4.4c0.4,0.7,0.2,1.4-0.7,3.1c-1.5,2.9-1.5,4,0,4c1.6,0,1.4,1-0.5,2.3
		c-0.9,0.6-2,1.7-2.4,2.5c-0.5,0.8-1.2,1.3-1.9,1.3c-1.3,0-1.8,1.5-1.2,3.3c0.6,1.7,0.2,2.8-1.1,2.8c-0.9,0-1.2,0.3-1.4,2.1
		c-0.2,1.4-0.1,2.8,0.4,4.3c1,2.9,0.9,5.5,0,7.1C321.6,95.7,321.2,97.1,321.1,98.2z"/>
	<path fill="#F4F100" d="M408.2,251.2c-1-0.4-1.2-0.3-1.2,0.7c0,0.7-0.1,1.2-0.3,1.2c-0.2,0-0.7,0.2-1,0.4c-0.5,0.3-0.5,0.7,0.2,2.1
		c0.7,1.3,0.9,1.6,1.4,1.2c0.3-0.3,0.9-0.4,1.3-0.2c0.5,0.1,0.8,0,1-0.6c0.1-0.4,0.7-1.2,1.2-1.8c0.9-1,0.8-1-0.3-1.8
		C409.9,252,408.8,251.4,408.2,251.2z"/>
	<path fill="#F4F100" d="M399.8,265.8c1.3-0.1,4.4-0.9,4.8-1.2c0.3-0.4-0.8-2.3-2.1-3.5c-0.8-0.8-1-1.4-0.8-2.3c0.2-1,0-1.4-1-2.3
		c-1.7-1.4-1.8-1.4-2.7-0.1c-0.4,0.6-0.7,1.8-0.7,2.8c0,1.5,0.2,1.8,1.2,2.1c1,0.3,1.2,0.5,1,1.5
		C398.8,265.8,398.8,265.9,399.8,265.8z"/>
	<path fill="#F4F100" d="M338.6,258.8c0.2-1.2,0.7-3,1.2-3.9c1-2,0.7-4.1-0.5-4.1c-0.4,0-1.7,1.1-2.9,2.4c-0.4,0.5-0.8,0.9-1.2,1.3
		l3.2,5.5C338.5,259.7,338.5,259.3,338.6,258.8z"/>
	<path fill="#199A00" d="M320.3,234.9c-0.7,0-3.5,1.3-3.5,1.6c0,0.1,3.5,0.1,7.9,0.1l-1.8-3c-0.2,0.1-0.4,0.2-0.6,0.4
		C321.6,234.4,320.7,234.9,320.3,234.9z"/>
	<path fill="#199A00" d="M354,231.6c1.6-1.6,2.6-2.9,2.6-3.6c0-0.6,0.3-1.1,0.7-1.1c1.3,0,1.9-1.3,1.4-3c-0.3-1-0.3-1.8,0-2.4
		c0.6-1-0.3-1.6-2.3-1.6c-1.3,0-1.4-0.1-1.3-1.1c0.1-0.7,0.7-1.3,1.5-1.4c0.7-0.1,1.6-0.7,2.1-1.2c2.6-2.4,3.1-2.8,4-2.8
		c2.3,0,3.3-1.4,2.2-3.3c-0.5-0.7-0.4-1.2,0.2-2.6c0.9-1.9,1-5,0.2-5.7c-0.7-0.7-0.8-0.7-1.8-0.1c-0.4,0.2-0.9,1-1.1,1.7
		c-0.2,0.7-0.8,2.1-1.5,3.1c-1,1.6-1.4,1.8-2.3,1.6c-0.8-0.2-1.6,0-2.6,0.7c-0.8,0.6-2.6,1.7-3.9,2.5c-4.4,2.6-6.7,4.2-7.2,5.2
		c-0.2,0.4-0.5,0.7-0.9,0.9l9.1,15.2C353.3,232.3,353.6,231.9,354,231.6z"/>
	<path fill="#199A00" d="M367,150.8c0.5,0.5,1,0.9,1.3,0.9c0.4,0,1.4,0.4,2.3,0.8c0.8,0.5,1.6,0.9,1.7,0.9c0.1,0-0.2,0.6-0.7,1.3
		c-0.7,1.1-0.7,1.3,0,2c0.7,0.7,0.8,0.7,1.9-0.3c1.3-1.2,3.6-1.4,7.1-0.7c1.5,0.3,2.3,0.1,3.3-0.5c1.4-0.8,4.4-5.4,4.4-6.6
		c0-0.4,0.3-0.7,0.6-0.7c0.2,0,0.7-0.6,1.3-1.4l-9.7-16.6L367,150.8z"/>
	<path fill="#199A00" d="M332,261c1.2-0.4,1.8-0.4,2.6,0c0.6,0.3,1.6,0.4,2.3,0.2c0.9-0.2,1.2-0.4,1.5-1.3l-3.2-5.5
		c-0.6,0.7-1.1,1.3-1.1,1.5c0,0.2-0.6,0.4-1.3,0.4c-1.4,0-4.3,2.5-4.3,3.8C328.5,261.3,330.1,261.6,332,261z"/>
</g>
</svg>
