<?xml version="1.0" encoding="utf-8"?>
<!-- Generator: Adobe Illustrator 17.1.0, SVG Export Plug-In . SVG Version: 6.00 Build 0)  -->
<!DOCTYPE svg PUBLIC "-//W3C//DTD SVG 1.1//EN" "http://www.w3.org/Graphics/SVG/1.1/DTD/svg11.dtd">
<svg version="1.1" id="flag-icon-css-ve" xmlns="http://www.w3.org/2000/svg" xmlns:xlink="http://www.w3.org/1999/xlink" x="0px"
	 y="0px" viewBox="0 0 640 480" enable-background="new 0 0 640 480" xml:space="preserve">
<g>
	<g>
		<g>
			<g>
				<g>
					<g>
						<g id="d_4_" transform="translate(0 -36)">
						</g>
						<g id="c_9_">
							<g transform="rotate(144)">
							</g>
						</g>
						<g id="e_2_">
							<g transform="rotate(30)">
							</g>
						</g>
					</g>
				</g>
			</g>
		</g>
	</g>
</g>
<g>
	<path fill="#CF142B" d="M280.4,323.9c1.3,1.6,2.1,4.3,2.5,8.9c0.5,5.4,1.4,7.8,3.5,9.3c0.9,0.7,2.8,2.9,4.4,5
		c4.1,5.8,6.1,7.8,8,7.8c2.9,0,4.7,1.1,5.4,3.1c0.4,1.1,1.4,3.4,2.4,5.2c1.4,2.6,1.7,3.9,1.7,7.2v3.9l-2.6,1.5
		c-1.8,1-4.5,3.9-8.8,9.2c-5.8,7.2-9.3,12.2-8.6,12.2c0.2,0,1.4-0.5,2.9-1.1c2-1,2.8-1,3.8-0.5c0.7,0.4,2,0.7,3,0.7
		c1.6,0,1.8,0.2,2.1,2.1c0.2,1.1,0.7,2.9,1,3.8c0.7,1.6,0.8,1.6,2.1,0.7c1.3-0.8,1.5-0.8,3.2,1c1,1,3.1,2.7,4.7,3.8
		c4.4,2.9,7.7,6.5,7.3,8c-0.3,1.3,1.8,4.8,4,6.6c0.9,0.8,1,1.5,0.7,4.8c-0.4,3.9-0.4,4.1,1.4,5.4c1.2,1,2.4,3,3.6,6.1
		c1,2.5,2.5,5.7,3.3,7c1.7,2.6,4.7,9.9,6.2,14.9l1,3.3l10.1,5.4c5.5,3,11.3,6.6,12.9,7.9c2.9,2.4,2.9,2.4,7.8,2.4
		c5.6,0,6.1-0.3,9.6-5.8c3-4.7,7-6.7,13.3-6.7c3.2,0,3.9,0.2,4.4,1.3c0.5,1,0.5,1.4-0.2,2.2c-1,1.2-3,5-2.7,5.1
		c0.1,0.1,1,0.5,2.1,0.8c1.8,0.6,2,0.5,4.5-2.1c1.4-1.6,2.9-3.2,3.2-3.8c0.3-0.5,2.6-2.3,5.1-4c2.6-1.7,5-3.8,5.4-4.5
		c1.1-2,4.2-4.4,7-5.4c1.4-0.5,3.3-1.5,4.4-2.3c2.4-1.8,6.5-3.4,8.8-3.4c2.3,0,8.7-4.5,11.3-7.9c3-3.9,3-3.9,2.6-1.4
		c-0.5,2.7-0.5,2.8,5.5-2.1c3.3-2.7,4.8-4.5,6.7-7.8c2.2-4,2.4-4.7,2-7.4c-0.2-2.4-0.1-3.5,1-5.4l1.4-2.4l4.5-0.2
		c4.5-0.2,4.7-0.3,7.9-3c1.8-1.6,4.1-3,5-3.2c1-0.1,2.7-0.4,3.9-0.6c3-0.5,4.9-3.6,4.4-7.2c-0.4-2.5-0.4-2.5-3.2-2.9
		c-2.1-0.3-4.1,0-8.1,1.1c-6.4,1.8-9.4,2-13.4,0.4c-1.7-0.7-3.8-1.2-4.8-1.2c-2.3,0-8.5-2.3-9.4-3.5c-0.4-0.5-0.8-1.8-0.8-2.7
		c0-1-0.7-3.3-1.6-5.1c-0.8-1.8-2-4.9-2.7-6.9c-0.6-2-2-6.3-3.1-9.5l-2-6l1.4-1.8c0.8-1,1.9-3,2.5-4.4l1.1-2.5l-2-7.6
		c-1.1-4.2-2.2-7.8-2.4-7.9s-3.5-1.4-7.2-2.7l-6.7-2.3l-4.4-5.7c-2.4-3.1-4.4-6.1-4.4-6.7c0-1.3,1.3-1.3,8.9-0.1
		c3.1,0.5,7.4,0.9,9.5,0.9c3.3,0,4.1-0.2,5.5-1.6c1.6-1.5,1.7-1.5,3.4-0.6c1,0.5,2.4,1.8,3.2,2.8c2,2.9,5.4,4.1,10,3.7
		c3.2-0.2,6,0.2,14.8,2.1c6,1.4,12,2.4,13.2,2.4c1.4,0,4,0.8,6.7,2.1c7.1,3.4,8.8,2.7,10.1-3.9l0.7-3.5l7.8-3
		c4.4-1.7,8.6-3.8,9.7-4.8c0.4-0.3,0.8-0.6,1.3-0.9H280.3C279.8,322.4,279.8,323.2,280.4,323.9z"/>
	<path fill="#00247D" d="M55.1,172.3c2.3,2.6,3.3,3.2,5.4,3.6c2.6,0.4,2.7,0.5,3.3,3.2c0.4,1.5,0.9,5.2,1.1,8.2l0.4,5.4l-1.8,1
		c-1.7,0.9-1.8,1.1-1.4,2.9c0.2,1.1,0.4,4.1,0.4,6.7c0,3.5,0.2,5.3,1.1,7c0.6,1.2,1.6,3.7,2,5.5c1.1,4.4,1.1,4.4,4.4,5.2
		c2.4,0.7,3,1.2,4.2,3.5c1.1,2.3,1.7,2.7,4,3.3c1.4,0.4,5.1,2.4,8.3,4.7c3.7,2.6,6.2,3.9,7.3,3.9c1.9,0,13.2-2.1,13.7-2.6
		c0.2-0.2,1.2-0.1,2.2,0.2c2.7,0.7,13.4-0.7,15.5-2.1c1.6-1,1.8-1,4.8-0.1c1.7,0.6,3.5,1,3.9,1c0.8,0,6.9-4.4,7.5-5.4
		c0.7-1.1,4.4-2.3,6.4-2c1.4,0.2,2.2,0,2.7-0.7c0.7-0.8,1-0.8,3,0.8c4,3.2,11.7,4.7,14.6,2.8c1.5-1,1.7-1,2.7-0.2
		c0.5,0.5,9.1,8.1,18.8,16.8l17.8,15.9h4c3.9,0,3.9-0.1,6.6-2.7l2.6-2.7h5.4c5,0.1,11.7,1,14.1,2c0.7,0.3,1.2,0.1,1.6-0.7
		c0.9-1.7,5.8-3.2,12.2-3.7c3-0.2,6.5-0.9,7.9-1.4c2.2-0.9,2.6-0.9,4.7-0.1c2.2,1,2.2,1,5.1-1.2c4.2-3.1,7-3.9,10.9-3.2
		c1.7,0.4,5,0.8,7.2,1l4.1,0.3l2.1,3.5c1.1,1.9,2.5,3.8,3,4.2c0.8,0.7,0.7,1-1,2.8c-1,1.1-2.4,3.5-3.2,5.3c-0.8,1.7-2.2,4.4-3.2,5.8
		c-1.6,2.3-1.8,3.2-1.8,6.3c0,5.1-1.2,7.2-5.2,9.3c-3,1.7-3.2,1.9-2.9,3.5c0.2,1,0.4,1.8,0.4,2.1s0.8,0.8,1.7,1.4
		c1.1,0.7,2,1.9,2.4,3.5c0.8,2.6,0.8,2.4-2,6.3c-0.5,0.7-1.3,4.1-1.8,7.5c-0.5,3.5-1.3,7.9-1.8,9.8c0,0.2-0.1,0.4-0.1,0.6h243.6
		c1-0.6,2.1-1.1,3-1.3c3-0.6,9.4-0.6,12.7,0c2.6,0.5,2.7,0.5,3.8-1.6c1.1-2.1,1.2-2.1,3.9-1.8c3.9,0.5,7.5-0.6,9.1-2.8
		c1.2-1.6,1.6-1.8,3.6-1.5c2,0.4,2.3,0.2,5.1-3.1c1.7-1.8,3.5-4.1,4-5c0.6-0.9,1.8-1.8,2.7-2c1-0.2,2.3-1.3,3.3-2.7
		c1.5-2.1,1.7-2.3,3.5-1.7c1.1,0.3,4.2,0.5,7,0.5c5.1,0,5.2-0.1,5.5-1.6c0.8-3,3.2-6,6.4-7.9c3.5-1.9,5.5-4.5,7.5-9.4
		c2.6-6.2,4.1-4-17.5-24.8c-10.7-10.3-19.4-18.9-19.4-19.2c0-0.2,1.5-1.8,3.3-3.6c1.8-1.7,3.7-3.8,4.2-4.7c1.5-2.9,0.8-9.7-1.7-15.4
		c-1.1-2.6-1.1-2.9-0.2-4.6c0.9-1.8,2.9-2.5,7-2.5c2.4,0,4.7-1.3,5.7-3.2l0.9-1.7l1.1,1.3c1.4,1.6,4.5,1.7,6.4,0.2
		c0.8-0.5,2.5-1.6,3.9-2.3c10.9-5.8,12-6.7,13-9.9c1-3.3-0.1-5.5-3-6.4c-3.3-1-6.6-0.8-7.9,0.4c-0.8,0.8-1.5,0.9-2.7,0.4
		c-1.5-0.5-1.6-0.8-1.8-4.4c-0.2-3.6-0.4-4-2.9-6.9c-2.9-3.3-3.9-5.8-2.6-6.3c1-0.3,2.5-1.9,4.6-4.7H47.3
		C50.1,165,53.4,170.3,55.1,172.3z M474.1,279.9l-11.6,8.9l5.2,13.7l-12.1-8.3l-11.4,9.2l4.2-14l-12.2-8.1l14.6-0.3l3.9-14.1
		l4.9,13.8L474.1,279.9z M445.6,230.6l-7.9,12.3l9.5,11.1l-14.2-3.7l-7.6,12.5l-0.9-14.6l-14.3-3.4l13.6-5.3l-1.2-14.6l9.3,11.3
		L445.6,230.6z M378.6,196.4l12.6,7.5L402,194l-3.2,14.3l12.8,7.2l-14.6,1.4l-2.9,14.4l-5.8-13.5l-14.6,1.7l11-9.7L378.6,196.4z
		 M348.5,174.5l1.9,14.5l14.5,2.4l-13.2,6.3l2.2,14.5l-10.1-10.7l-13.1,6.6l7-12.9l-10.3-10.4l14.4,2.7L348.5,174.5z"/>
	<path fill="#FFCC00" d="M580.1,103.1c-1.4-0.9-2.1-0.6-3.8,1.4c-0.9,1.1-1.9,2.6-2.3,3.5c-0.4,0.8-1,2-1.6,2.6
		c-0.5,0.5-0.7,1.2-0.5,1.4c0.2,0.2,2.3-1.6,4.7-3.9C579.9,104.7,580.7,103.5,580.1,103.1z"/>
	<path fill="#FFCC00" d="M568.6,121.4c1.1-0.8,1.1-0.8-0.4-0.9c-0.9,0-1.9,0.4-2.3,0.9c-0.6,0.7-0.5,0.9,0.4,0.9
		C566.8,122.3,567.9,121.9,568.6,121.4z"/>
	<path fill="#FFCC00" d="M579.1,111.4c-0.8,0.1-1.4,0.7-1.4,1.1c0,0.7,0.2,0.7,1.5-0.1c0.8-0.5,1.5-1.1,1.5-1.2
		c0-0.1-0.1-0.2-0.1-0.2C580.5,111.1,579.8,111.2,579.1,111.4z"/>
	<path fill="#FFCC00" d="M576,97.2c-0.4,0.7-0.5,1.5-0.3,1.8c0.4,0.7,2.1,0.8,2.1,0.1c0-0.2,0.2-1,0.4-1.8
		C578.6,95.6,576.9,95.5,576,97.2z"/>
	<path fill="#FFCC00" d="M583.1,105.9c0-0.8-1.7-0.1-4,1.7c-2.8,2.1-3.2,2.8-1.4,2.8C578.7,110.3,583.1,106.7,583.1,105.9z"/>
	<path fill="#FFCC00" d="M576.2,113.2c0.5-2-0.6-2.1-2.8-0.4c-0.8,0.7-1.8,1.2-2.3,1.2c-1.1,0.1-3.2,1.8-3.9,3.3
		c-1,1.9-0.1,2.7,2.6,2.3C573.9,118.8,575.1,117.6,576.2,113.2z"/>
	<path fill="#FFCC00" d="M579.2,113.9c-1.3,0.7-1.9,1.1-1.3,0.9c0.6-0.2,1.4-0.3,1.8-0.3s1.3-0.4,1.9-0.9
		C583.3,112.4,582,112.6,579.2,113.9z"/>
	<path fill="#FFCC00" d="M581.1,94.5c-1.1,1.1-1.8,3.2-1.3,3.8c0.4,0.4,3.9-2.8,3.9-3.5C583.7,93.9,581.9,93.8,581.1,94.5z"/>
	<path fill="#FFCC00" d="M571.8,107.7c-1.7,2.2-1.6,3.3,0.2,1.3c1.4-1.5,1.9-2.8,1.3-2.8C573.2,106.2,572.5,106.9,571.8,107.7z"/>
	<path fill="#FFCC00" d="M570.8,105.4c-0.8,0.3-1.1,2-0.3,2c0.2,0,0.8-0.3,1.2-0.7C573,105.3,572.5,104.7,570.8,105.4z"/>
	<path fill="#FFCC00" d="M575.3,103.2c1.1-0.6,2.1-2.4,1.4-2.4c-0.2,0-1.2,0.7-2.2,1.5C572.7,103.7,573.3,104.3,575.3,103.2z"/>
	<path fill="#FFCC00" d="M377.3,36.3c0-1-0.4-1.1-2.8-1.1c-1.6,0-3.5,0.2-4.2,0.5c-0.8,0.3-1.4,1-1.4,1.5c0,0.7,0.7,0.9,3.2,0.9
		C376.2,38.2,377.3,37.8,377.3,36.3z"/>
	<path fill="#FFCC00" d="M433,37.9c-0.4,1.2,0.8,2,3,2s1.8-1.2-0.7-2.2C433.6,37,433.3,37.1,433,37.9z"/>
	<path fill="#FFCC00" d="M438.5,32.3c0.4-0.7,1.3-1.7,2-2.2c0.7-0.5,1.3-1.4,1.3-2.1c0-1.4-2.4-6.4-3.3-6.7
		c-0.3-0.1-2.3,1.4-4.4,3.3c-3.4,3.2-3.9,3.5-6.4,3.5c-1.4,0-3.5-0.5-4.4-1c-1.5-0.8-2-0.9-4.2-0.2c-2.7,0.8-6.2,3.8-5.6,4.8
		c0.2,0.3,2.3,0.6,4.8,0.6c3.5,0,4.5-0.2,5-1c0.6-1.1,1.5-0.8,6,2.4c2.7,1.8,4,1.7,4.9-0.5c0.7-2,3.3-2.1,2.7-0.2
		C436.2,34.6,437.6,34.1,438.5,32.3z"/>
	<path fill="#FFCC00" d="M426.3,37c-0.2,0.1-1.1,0.2-2,0.4c-1.1,0.2-1.5,0.5-1.3,1.1c0.4,1.1,2.8,1.1,3.7,0.1
		C427.4,37.8,427.1,36.9,426.3,37z"/>
	<path fill="#FFCC00" d="M620.8,120.5c-0.8,0-4.4-0.7-8-1.5c-3.6-0.8-7.4-1.5-8.4-1.5c-1.7,0-1.8,0.1-1.6,1.8c0.2,1.4,0,1.8-1,2.1
		c-0.7,0.2-1.5,0.8-1.8,1.2c-0.5,0.7-1.6,0.7-6.3-0.1c-8.6-1.5-15.1-0.8-17.2,1.8c-0.7,0.8-2.3,1.6-4.9,2.1
		c-2.1,0.4-4.3,1.1-4.8,1.6c-0.9,0.8-3.4,1.1-8.2,0.9c-0.8-0.1-2.9-0.6-4.7-1.3c-1.8-0.7-3.8-1.2-4.5-1.2c-2.1-0.1-3.6-1.5-2.9-2.7
		c0.5-1,1.6-1.1,8.2-1.1l7.5-0.1l1.7-2.1c1-1.1,1.8-2.4,1.8-2.7c0-0.3,0.7-1.6,1.5-2.6c0.8-1.1,1.5-2.7,1.4-3.6
		c-0.4-5.2-0.1-6.2,3-8.6c2.6-2,3-2.7,2.9-4.1c-0.1-1-0.5-1.8-0.9-2c-0.4-0.1-2.3,1.4-4.1,3.3c-2.9,3-3.2,3.2-2,1.3
		c0.7-1.3,1.1-2.5,1-2.8c-0.2-0.3,0.4-0.7,1.2-0.9c0.9-0.2,2.9-1.5,4.4-2.8c1.6-1.3,3.2-2.3,3.8-2.3c1.3,0,4.1-2.7,4.1-4
		c-0.1-1.4-1-2.5-3.7-4.6c-2-1.6-2.3-1.6-3.2-0.7c-0.5,0.5-1.1,1-1.3,1c-0.1,0-0.9-1.5-1.7-3.3l-1.5-3.4l-3.6,0.4
		c-2.8,0.2-4,0.1-5.8-0.9c-1.3-0.6-3.6-1.7-5.2-2.3c-1.6-0.7-3.9-2.1-5.1-3.2c-3.3-3.2-8.9-5.1-8.9-3c0,0.5,0.4,0.9,0.9,0.9
		s1.3,1,1.7,2c0.5,1.1,1.4,2.4,2.1,2.9c1.6,1,1.7,3.9,0.3,7.9c-0.5,1.6-1,2.7-1.1,2.6c-0.1-0.1,0.1-2,0.4-4.3
		c0.5-3.5,0.4-4.2-0.4-5.1c-2-2.2-10.2-4.1-9.5-2.1c0.2,0.4-0.1,1-0.7,1.2c-1,0.4-1.7-0.3-3.6-3.3c-0.5-0.9-1.8-1.9-2.8-2.3
		c-1-0.3-2.6-1.3-3.6-2c-1-0.8-3.2-1.7-4.8-2.1c-2.5-0.6-3-0.6-4,0.3c-0.6,0.5-1.3,1.7-1.4,2.6c-0.2,1.2-0.7,1.6-1.3,1.4
		c-0.7-0.2-0.8,0.3-0.8,2.4c0,1.6-0.5,3.8-1.1,5c-0.6,1.2-1.3,2.9-1.5,3.7c-0.4,1.8-2.5,4.6-3,4.1s1.6-5.9,2.1-5.9
		c0.7,0,0.6-2.9-0.2-4.4c-0.4-0.7-1.3-2-2.1-2.9c-0.8-1-1.6-2.7-1.9-4.5c-0.3-2.1-1.1-3.8-2.7-5.7c-3.3-4-5.1-4.4-5.1-1
		c0,1-0.3,2.4-0.6,3.3c-0.6,1.4-0.8,1.6-3.2,1.3c-2-0.3-2.7-0.1-3.8,0.9c-1,1-1.4,1.1-1.4,0.4c0-1.4,1.3-2.3,3.3-2.3
		c1.2,0,2.4-0.5,3.2-1.4c1.3-1.3,1.3-1.5,0.4-3.2c-0.8-1.6-0.8-2,0.1-3.7c1-1.8,0.9-2-0.4-3.5c-0.8-0.8-2.7-2.1-4.2-2.9
		c-3.9-2-3.6-4.6,0.7-5.9c1.4-0.4,1.4-0.4,0.6,0.6c-0.8,1-0.8,1,0.5,0.4c0.9-0.5,2.4-0.7,4.5-0.4c1.7,0.2,5,0.5,7.3,0.7
		c4.1,0.3,4.2,0.3,6.6-1.7c2.1-1.8,3.2-2.1,7.6-2.8c3.4-0.5,5.6-1.2,6.3-1.8c0.6-0.6,1.7-1.4,2.3-1.8c0.7-0.4,1.3-1.1,1.3-1.6
		s0.5-1.5,1.1-2.1c1-1.1,1-1.1-0.5-0.7c-2,0.6-4.8,2-6,3c-1,0.8-5.6,1.6-8.6,1.4c-1-0.1-7.3-0.1-14.1-0.1
		c-10.5,0.1-12.6,0.2-14.3,1.1c-1.1,0.6-2.8,1-3.8,1c-1-0.1-4.2,0.5-7,1.4c-3.8,1.1-6.6,1.5-10.5,1.5c-5.3,0-5.4,0-6.9,1.9
		c-1.5,1.9-1.6,1.9-6.1,1.7c-3.6-0.1-5.1-0.4-6.9-1.6c-2.7-1.7-3.5-1.8-3.5-0.3c0,0.6-0.6,1.6-1.4,2c-2,1.3-6.8,1.9-7.8,1.1
		c-0.7-0.6-1.3-0.5-2.8,0.2c-1.4,0.8-2.7,0.9-4.7,0.7c-3-0.4-3.6,0-3.6,2.9c0,2,1.1,2.1,3.6,0.4c2-1.4,2.3-1.4,10-1
		c4.8,0.2,8.8,0.8,10.1,1.3l2.1,0.8l-1.8,1.1c-2.7,1.6-8,2.4-15.4,2.3c-7.1-0.1-11,0.7-11,2.4c0,0.8-0.1,0.8-0.5-0.2
		c-0.5-1.1-0.6-1-1.6,0.7c-0.7,1.1-1.5,2-1.8,2c-0.4,0-0.8,0.4-0.8,1c0,0.7,0.4,0.8,1.8,0.5c1.1-0.2,1.8-0.2,1.8,0.2
		c0,1.1-3.5,2.5-7.3,3c-3.8,0.5-7.9,2.9-8.5,4.8c-0.7,2-1.9,2.4-10.8,2.7c-9.2,0.4-15.4-0.2-31.6-3.2c-3.6-0.7-6.9-1.3-7.4-1.3
		c-1.3,0-0.2,0.8,1.9,1.6l1.9,0.7l-2.1,0.1c-1.1,0.1-2.6-0.4-3.3-0.8c-0.6-0.5-1.6-0.9-2.1-0.9c-1.3,0-1.4-1.2-0.2-1.2
		c0.5,0,0.9-0.4,0.9-1s-1.7-1.7-4.4-3c-4.8-2.2-5.7-2.9-4.6-4c1.1-1.1,0.7-2.1-1.2-2.7c-2.6-0.9-7.3-0.8-9.7,0.2
		c-1.5,0.6-2.7,0.7-4.9,0.3c-1.8-0.4-4.5-0.4-7.3,0.1c-2.4,0.3-5.9,0.6-7.8,0.6c-2,0.1-3.9,0.4-4.5,0.9c-1.3,1-4.4,1.2-5.7,0.4
		c-0.6-0.4-2.1-0.1-4.7,0.9c-2.1,0.8-4.8,1.4-6.1,1.4c-1.3,0-5.4,1.2-9.4,2.8c-4.7,1.8-8,2.8-10,2.8c-1.6,0.1-3.8,0.5-4.8,1
		c-2.3,1.2-13.7,1.5-16.9,0.5c-4.2-1.3-6.7-5-6.8-9.9c-0.1-1.5-0.4-2.6-0.9-2.8c-1.3-0.5-0.9-1.3,1-2c1-0.4,1.8-1.1,1.8-1.7
		c0-0.7-0.3-0.9-1-0.6c-2.3,1-3.6,1-3.9,0.1c-0.2-0.6,0.1-1,1.1-1.3c1.3-0.4,1.4-0.5,0.8-1.9c-0.3-0.9-1.8-2.9-3.2-4.5
		c-1.5-1.7-2.7-3.2-2.7-3.5c0-0.3-0.9-0.5-2-0.5c-1.3,0-2.4-0.5-3-1.1c-0.6-0.7-1.8-1.4-2.7-1.6c-0.9-0.2-2.2-1-2.9-1.8
		c-0.9-1.1-1.8-1.5-3.5-1.5c-1.3,0-2.8-0.4-3.5-0.9c-0.9-0.7-2.3-0.8-6.8-0.5c-5.3,0.4-5.7,0.3-6.8-0.9c-2.4-2.7-11.2-3.8-12.1-1.5
		c-0.2,0.6-1.4,0.8-3.8,0.8c-2.9,0-4,0.3-5.9,1.6l-2.4,1.6l-1.3-1.3c-3.4-3.2-6.5-10.4-7.9-18.3c-0.6-3.5-2.9-7.2-6-9.2
		c-1.4-1-2.7-1.7-2.8-1.7c-0.1,0.1-0.7,0.2-1.4,0.4c-0.7,0.2-2.4,1.5-4,2.9c-1.6,1.4-3.3,2.6-4.1,2.6c-0.7,0-1.2,0.4-1.2,0.8
		c0,0.4-0.8,2.5-1.7,4.6l-1.7,3.8l1.2,2.1c0.7,1.1,1.8,2.7,2.5,3.5c1.1,1.2,1.1,1.6,0.5,3.2c-1.1,3.1-0.1,3.4,5.1,1.5
		c2.5-1,5.4-1.8,6.4-2c1-0.2,2.6-0.8,3.5-1.5c2.1-1.5,3-0.8,5,3.6c1.6,3.5,1.4,3.9-0.9,5.1c-3,1.5-4.3,1.7-4.3,0.7
		c0-0.6-0.5-1-1.4-1c-0.8,0-1.7-0.3-1.8-0.6c-0.6-1-2.9-0.7-2.4,0.3c0.4,1.1-1.3,2-3.3,1.7c-1.4-0.2-1.6-0.1-2,1.6
		c-0.6,2.9-6.7,7.2-10.1,7.2c-2.3,0-4.5,0.9-5.2,2.1c-0.3,0.6-1.8,0.8-4.6,0.8c-2.3,0-4.3,0.2-4.5,0.6c-0.2,0.3-1,0.6-1.8,0.6
		c-0.9,0-2.1,0.7-3,1.6c-3.2,3.6-4.1,4.4-5.1,4.4c-0.6,0-1.3,0.4-1.4,0.9c-0.2,0.5-0.8,0.9-1.4,0.9c-1.1,0-9.8,4.4-11,5.4
		c-0.4,0.3-1.3,0.5-2.1,0.5c-3.2,0-4.2,0.7-4.2,2.4c0,1,0.3,1.7,0.6,1.7c0.4,0,0.4,0.4,0.1,1.1c-0.4,0.6-0.4,1.7-0.2,2.4
		c0.3,1.3,0.1,1.3-3.3,1.3c-2,0-3.8,0.2-3.9,0.5c-0.2,0.2,0.3,1.1,1.1,1.8c1.7,1.6,2.5,4.6,1.6,5.5C94,79,94.6,80.5,96.9,82
		c2.3,1.5,3.2,2.8,4.1,5.6c0.7,2.4,4.3,7.7,6.4,9.3c1.3,1,2.4,2.6,2.9,4c0.7,2,1.3,2.6,2.9,3.1c1.6,0.5,2.5,1.4,3.7,3.6
		c1.4,2.6,1.6,3.6,1.6,8.1c-0.1,2.8,0.2,7,0.6,9.5c0.4,2.4,0.6,4.9,0.4,5.4c-0.2,0.5-1.5,1.8-3,2.9c-2,1.4-2.7,2.4-3,3.9
		c-0.2,1.5-0.9,2.4-2.4,3.3c-2.8,1.7-8.6,3-13.1,3c-4.4,0-6.8-1.5-6.8-4.1c0-1.8-0.7-3.2-1.6-3c-0.3,0.1-0.9,0.1-1.3,0
		c-1.1-0.1,0.5-2.4,1.7-2.4c0.7,0,1-0.6,1-2.1c0.1-1.9-0.1-2-1.1-1.4c-1.4,0.8-2.9,0.3-2.9-1c0-1.1-0.8-1.1-2,0
		c-0.5,0.5-1.1,0.9-1.5,0.9c-1.1,0-0.7-1.1,0.6-2c1.2-0.9,1.2-0.9-0.5-1.3c-1.1-0.2-2.3-0.1-3,0.4c-0.7,0.4-1.4,0.5-1.7,0.2
		c-0.2-0.2,0-0.7,0.6-1c0.9-0.5,1-0.8,0.1-2.7l-0.9-2.1l1.5,1c0.8,0.5,1.5,0.7,1.5,0.4c0-0.7-5.2-5-7.5-6.2c-1-0.5-2.4-1.6-3.2-2.4
		c-1.3-1.4-1.4-1.7-0.6-2.3c0.5-0.4,2-2.6,3.4-4.9c1.3-2.3,3.5-5.4,4.8-6.8c1.4-1.4,2.4-2.9,2.4-3.3c0-0.4,1-2,2.1-3.6
		c1.1-1.6,2.1-3.3,2.1-3.7c0-1,3.9-4.4,5.6-4.8c1.7-0.4,2.4-1.7,1.6-3.2c-0.4-0.6-0.6-2.3-0.6-3.6c0-1.7-0.6-3.5-2-5.8
		c-1.1-1.8-2.3-4.3-2.7-5.5c-1.1-3.5-2.3-4.2-6.6-4c-2.1,0.1-3.8-0.1-3.9-0.4c-0.4-0.9,2.7-2.1,3.9-1.6c1.8,1,8.8,1.3,9.5,0.4
		c0.5-0.5-0.5-1.3-4.2-3.1c-3.3-1.6-5.6-3.2-7.3-5.1c-2.7-3-3.1-4.2-3.7-11.8c-0.3-4-0.2-4.4,0.7-4.1c0.5,0.2,2-0.2,3.5-1
		c1.4-0.8,4-1.9,5.8-2.4c1.8-0.6,3.8-1.7,4.4-2.5c0.6-0.7,1.6-1.4,2.2-1.4c1.4,0,5.4-1.7,6.7-2.9c0.5-0.5,1-1.4,1-2
		c0-1.8-2.9-1.3-6.8,1.3c-2,1.3-5.1,2.6-6.8,3c-4.9,1-10.8,4.4-13.6,7.6c-1.3,1.6-4.5,6.4-7.2,10.7l-4.7,7.9l-3.3,0.7L53,57.4
		l-7,10.1c-3.9,5.6-8.5,11.5-10.2,13.2c-2.6,2.4-3.2,3.3-3.2,5c0,1.2-1.2,4.6-2.9,8.1l-2.9,6.1l0.7,4.5c0.4,2.4,1.3,5.7,2,7.3
		c1.3,2.8,1.3,2.9,0.3,12.5l-1,9.7l-2.9,2.7c-1.6,1.5-3.5,3.8-4.1,5.1c-0.8,1.6-1.8,2.7-3,3.2c-3.2,1.3-1.8,3,2.3,3
		c2.1,0,3.3-0.4,5.1-1.8c2-1.4,2.8-1.7,4.7-1.4c1.3,0.2,2.6,0.9,3.3,1.7c1.1,1.5,3.3,1.8,4.8,0.9c1.4-0.9,2.7,0.2,3.6,3
		c0.5,1.8,2.4,5.6,4.6,9.6h548.2c0.6-0.9,1.3-1.8,2.1-2.9c2.3-3.5,3.3-4.4,5.7-5.5c1.6-0.7,3.4-1.3,3.9-1.3c1.5,0,7.2-4,8.9-6.3
		c0.8-1.1,2.4-2.3,3.5-2.6c2-0.7,3.4-2.6,3.4-4.8c0-0.6,1-1.8,2.1-2.7c2.8-2.1,3.1-3.8,1.5-7.5C625.2,122.9,622.8,120.5,620.8,120.5
		z"/>
	<path fill="#FFCC00" d="M586.6,114.5c-1.1,0-2.9,0.6-4.1,1.3l-2.1,1.3l1.8,0.4c2.9,0.7,9.8,0.6,9.8-0.1c0-0.4-1.1-0.6-2.4-0.6
		c-2.3,0-2.4-0.1-1.8-1.2C588.5,114.6,588.4,114.5,586.6,114.5z"/>
	<path fill="#FFCC00" d="M576.9,119.3c-0.5,0.8,0.3,0.8,1.5,0c0.8-0.5,0.8-0.6-0.1-0.6C577.7,118.7,577,118.9,576.9,119.3z"/>
	<path fill="#FFCC00" d="M579.8,116.1c-0.3-0.2-1.3,0.1-2.2,0.6c-2.3,1.2-1.7,1.6,0.8,0.6C579.4,116.8,580.1,116.3,579.8,116.1z"/>
	<path fill="#FFCC00" d="M558.7,124.1c-5.1,0-7.1,0.5-6.4,1.7c1.1,1.7,11.6,2.6,11.3,1c-0.1-0.4,1.4-0.8,3.8-1
		c3.6-0.2,6.2-1.5,6.2-2.9c0-0.5-3.5-0.5-6.9-0.1c-1,0.2-2,0.5-2.3,0.8C564,123.8,561.5,124.1,558.7,124.1z"/>
	<polygon fill="#FFFFFF" points="348.5,174.5 341.7,187.5 342.9,187.7 	"/>
	<polygon fill="#FFFFFF" points="346,188.3 350.4,189 348.5,174.5 342.9,187.7 	"/>
	<polygon fill="#FFFFFF" points="346,188.3 347.1,188.5 346.9,189.9 347.9,190 348.5,189.4 348.6,190 364.8,191.4 350.4,189 	"/>
	<polygon fill="#FFFFFF" points="348.6,190 348.7,190.6 349.9,190.9 349,191.8 349.2,192.5 350.7,192.3 351.6,197.7 364.8,191.4 	
		"/>
	<polygon fill="#FFFFFF" points="347.9,190 346.9,189.9 346.8,190.1 347.5,190.3 	"/>
	<polygon fill="#FFFFFF" points="327.3,184.8 337.6,195.2 338.2,194.2 	"/>
	<polygon fill="#FFFFFF" points="346.8,190.1 346.6,191.1 347.5,190.3 	"/>
	<polygon fill="#FFFFFF" points="349.9,190.9 348.7,190.6 349,191.8 	"/>
	<polygon fill="#FFFFFF" points="338.2,194.2 340.3,190.4 341.7,191.2 343.4,188.5 345.3,192.4 346.6,191.1 346.8,190.1 
		346.9,189.9 347.1,188.5 346,188.3 342.9,187.7 341.7,187.5 327.3,184.8 	"/>
	<polygon fill="#FFFFFF" points="350.7,192.3 349.2,192.5 349.9,195.6 350.6,196 350.1,196.3 353.8,212.2 351.6,197.7 	"/>
	<polygon fill="#FFFFFF" points="350.1,196.3 347.9,197.6 348.6,199.1 343.7,201.5 353.8,212.2 	"/>
	<polygon fill="#FFFFFF" points="345.8,193.4 349.9,195.6 349.2,192.5 349,191.8 348.7,190.6 348.6,190 348.5,189.4 347.9,190 
		347.5,190.3 346.6,191.1 345.3,192.4 	"/>
	<polygon fill="#FFFFFF" points="345.8,193.4 345.3,192.4 343.4,188.5 341.7,191.2 	"/>
	<polygon fill="#FFFFFF" points="348.6,199.1 347.9,197.6 330.6,208.1 343.7,201.5 	"/>
	<polygon fill="#FFFFFF" points="347.9,197.6 350.1,196.3 350.6,196 349.9,195.6 345.8,193.4 341.7,191.2 340.3,190.4 338.2,194.2 
		337.6,195.2 330.6,208.1 	"/>
	<polygon fill="#FFFFFF" points="402,194 391.2,203.9 392.2,204.5 	"/>
	<polygon fill="#FFFFFF" points="395,206.1 398.8,208.3 402,194 392.2,204.5 	"/>
	<polygon fill="#FFFFFF" points="395,206.1 395.9,206.7 395.2,207.9 396.1,208.3 396.9,208 396.8,208.6 411.6,215.5 398.8,208.3 	
		"/>
	<polygon fill="#FFFFFF" points="396.8,208.6 396.7,209.2 397.7,209.9 396.6,210.4 396.5,211.1 398.1,211.5 397,216.8 411.6,215.5 	
		"/>
	<polygon fill="#FFFFFF" points="396.1,208.3 395.2,207.9 395.1,208.1 395.7,208.5 	"/>
	<polygon fill="#FFFFFF" points="378.6,196.4 384.7,209.7 385.6,209 	"/>
	<polygon fill="#FFFFFF" points="395.1,208.1 394.6,209 395.7,208.5 	"/>
	<polygon fill="#FFFFFF" points="397.7,209.9 396.7,209.2 396.6,210.4 	"/>
	<polygon fill="#FFFFFF" points="388.8,206.1 389.9,207.3 392.4,205.4 392.9,209.7 394.6,209 395.1,208.1 395.2,207.9 395.9,206.7 
		395,206.1 392.2,204.5 391.2,203.9 378.6,196.4 385.6,209 	"/>
	<polygon fill="#FFFFFF" points="398.1,211.5 396.5,211.1 396.1,214.3 396.7,214.9 396,215 394.1,231.2 397,216.8 	"/>
	<polygon fill="#FFFFFF" points="396,215 393.5,215.5 393.7,217.1 388.3,217.7 394.1,231.2 	"/>
	<polygon fill="#FFFFFF" points="396.5,211.1 396.6,210.4 396.7,209.2 396.8,208.6 396.9,208 396.1,208.3 395.7,208.5 394.6,209 
		392.9,209.7 393,210.8 396.1,214.3 	"/>
	<polygon fill="#FFFFFF" points="392.9,209.7 392.4,205.4 389.9,207.3 393,210.8 	"/>
	<polygon fill="#FFFFFF" points="393.7,217.1 393.5,215.5 373.7,219.4 388.3,217.7 	"/>
	<polygon fill="#FFFFFF" points="393.5,215.5 396,215 396.7,214.9 396.1,214.3 393,210.8 389.9,207.3 388.8,206.1 385.6,209 
		384.7,209.7 373.7,219.4 	"/>
	<polygon fill="#FFFFFF" points="445.6,230.6 432.1,236.2 432.9,237.1 	"/>
	<polygon fill="#FFFFFF" points="434.9,239.6 437.7,242.9 445.6,230.6 432.9,237.1 	"/>
	<polygon fill="#FFFFFF" points="434.9,239.6 435.6,240.4 434.5,241.3 435.2,242 436,242 435.7,242.6 447.3,254 437.7,242.9 	"/>
	<polygon fill="#FFFFFF" points="435.7,242.6 435.5,243.1 436.2,244.1 434.9,244.2 434.6,244.8 435.9,245.7 433.1,250.3 447.3,254 	
		"/>
	<polygon fill="#FFFFFF" points="435.2,242 434.5,241.3 434.4,241.5 434.8,242.1 	"/>
	<polygon fill="#FFFFFF" points="422.8,224.9 424,239.5 425.1,239.1 	"/>
	<polygon fill="#FFFFFF" points="434.4,241.5 433.5,242.1 434.8,242.1 	"/>
	<polygon fill="#FFFFFF" points="436.2,244.1 435.5,243.1 434.9,244.2 	"/>
	<polygon fill="#FFFFFF" points="425.1,239.1 429.1,237.5 429.7,239 432.7,238.1 431.7,242.3 433.5,242.1 434.4,241.5 434.5,241.3 
		435.6,240.4 434.9,239.6 432.9,237.1 432.1,236.2 422.8,224.9 	"/>
	<polygon fill="#FFFFFF" points="435.9,245.7 434.6,244.8 433.2,247.7 433.5,248.4 432.8,248.3 425.5,262.8 433.1,250.3 	"/>
	<polygon fill="#FFFFFF" points="432.8,248.3 430.3,247.9 429.9,249.5 424.6,248.2 425.5,262.8 	"/>
	<polygon fill="#FFFFFF" points="431.4,243.4 433.2,247.7 434.6,244.8 434.9,244.2 435.5,243.1 435.7,242.6 436,242 435.2,242 
		434.8,242.1 433.5,242.1 431.7,242.3 	"/>
	<polygon fill="#FFFFFF" points="431.4,243.4 431.7,242.3 432.7,238.1 429.7,239 	"/>
	<polygon fill="#FFFFFF" points="429.9,249.5 430.3,247.9 410.4,244.8 424.6,248.2 	"/>
	<polygon fill="#FFFFFF" points="430.3,247.9 432.8,248.3 433.5,248.4 433.2,247.7 431.4,243.4 429.7,239 429.1,237.5 425.1,239.1 
		424,239.5 410.4,244.8 	"/>
	<polygon fill="#FFFFFF" points="474.1,279.9 459.5,280.6 459.9,281.7 	"/>
	<polygon fill="#FFFFFF" points="460.9,284.7 462.5,288.8 474.1,279.9 459.9,281.7 	"/>
	<polygon fill="#FFFFFF" points="460.9,284.7 461.3,285.7 460,286.2 460.4,287.1 461.2,287.3 460.7,287.8 467.6,302.5 462.5,288.8 	
		"/>
	<polygon fill="#FFFFFF" points="460.7,287.8 460.3,288.2 460.6,289.4 459.4,289 458.9,289.5 459.8,290.8 455.6,294.2 467.6,302.5 	
		"/>
	<polygon fill="#FFFFFF" points="460.4,287.1 460,286.2 459.8,286.3 460,287 	"/>
	<polygon fill="#FFFFFF" points="454.6,266.8 450.7,280.9 451.9,280.9 	"/>
	<polygon fill="#FFFFFF" points="459.8,286.3 458.8,286.6 460,287 	"/>
	<polygon fill="#FFFFFF" points="460.6,289.4 460.3,288.2 459.4,289 	"/>
	<polygon fill="#FFFFFF" points="451.9,280.9 456.2,280.8 456.3,282.3 459.4,282.5 457,286.1 458.8,286.6 459.8,286.3 460,286.2 
		461.3,285.7 460.9,284.7 459.9,281.7 459.5,280.6 454.6,266.8 	"/>
	<polygon fill="#FFFFFF" points="459.8,290.8 458.9,289.5 456.5,291.7 456.6,292.5 456,292.2 444.1,303.3 455.6,294.2 	"/>
	<polygon fill="#FFFFFF" points="456,292.2 453.8,291 452.9,292.3 448.3,289.3 444.1,303.3 	"/>
	<polygon fill="#FFFFFF" points="456.4,287.1 456.5,291.7 458.9,289.5 459.4,289 460.3,288.2 460.7,287.8 461.2,287.3 460.4,287.1 
		460,287 458.8,286.6 457,286.1 	"/>
	<polygon fill="#FFFFFF" points="456.4,287.1 457,286.1 459.4,282.5 456.3,282.3 	"/>
	<polygon fill="#FFFFFF" points="452.9,292.3 453.8,291 436.1,281.2 448.3,289.3 	"/>
	<polygon fill="#FFFFFF" points="453.8,291 456,292.2 456.6,292.5 456.5,291.7 456.4,287.1 456.3,282.3 456.2,280.8 451.9,280.9 
		450.7,280.9 436.1,281.2 	"/>
</g>
</svg>
