<?xml version="1.0" encoding="utf-8"?>
<!-- Generator: Adobe Illustrator 17.1.0, SVG Export Plug-In . SVG Version: 6.00 Build 0)  -->
<!DOCTYPE svg PUBLIC "-//W3C//DTD SVG 1.1//EN" "http://www.w3.org/Graphics/SVG/1.1/DTD/svg11.dtd">
<svg version="1.1" id="flag-icon-css-vg" xmlns="http://www.w3.org/2000/svg" xmlns:xlink="http://www.w3.org/1999/xlink" x="0px"
	 y="0px" viewBox="0 0 640 480" enable-background="new 0 0 640 480" xml:space="preserve">
<g>
	<path fill="none" d="M0,185.6c-0.5,0.3-0.5,0.6,0,1.6V185.6z"/>
	<path fill="#000066" d="M341.6,227.1c3.5,0.4,3.8-0.3,1-3.7c-1.4-1.8-2.5-3.4-2.5-3.7c0-0.3-0.7-0.6-1.6-0.8
		c-0.9-0.2-1.6-0.1-1.6,0.2c0,0.3,0.4,1.3,0.9,2.3c0.5,0.9,1.1,2.6,1.4,3.6C339.6,226.5,340.2,227,341.6,227.1z"/>
	<path fill="#000066" d="M149.9,205.6c0,0.7,0.6,1,1.9,1c2.4,0,2.2-1.5-0.3-1.8C150.4,204.7,149.9,204.9,149.9,205.6z"/>
	<path fill="#000066" d="M212.4,330.1c-1-2.3-6.2-3.8-7.8-2.2c-0.3,0.3-1.4,0.4-2.4,0.1c-1.2-0.3-1.6-0.7-1.1-1
		c0.4-0.3,0.8-1.1,0.8-1.8c-0.1-1-0.8-1.8-3.1-2.8c-3.8-1.8-4.4-1.8-4.4,0.3c0,1.5-0.1,1.6-2.9,1.4c-2.9-0.2-2.9-0.2-3.8-3.1
		c-0.8-2.8-0.9-2.9-3.4-3.3c-1.5-0.3-3.4-0.9-4.2-1.6c-1.3-1-1.4-1.3-0.8-2.8c0.6-1.4,0.5-1.8-1-3.6c-2.9-3.4-5.9-4.4-13.6-4.1
		c-3.9,0.2-7,0.6-7.5,1c-1.3,1.1-2.8-0.3-2.8-2.5c0-1.8-2.8-4.3-6.5-5.6c-1.9-0.7-5.8-0.3-6.4,0.7c-0.2,0.4-1.3,0.1-2.4-0.7
		l-2.1-1.3l-0.6,1.4c-0.5,1.1-0.4,1.8,0.2,2.6c0.6,0.8,0.7,1.4,0.2,2c-1,1.1-2.4,1-4.8-0.4c-1.6-1-2.7-1.2-6.6-0.9
		c-3.1,0.3-4.8,0.1-5.1-0.4c-0.3-0.4-1.1-0.7-1.9-0.7c-1.9,0-5.5-1.5-4.9-2.1c0.2-0.3,1.6-0.4,3.1-0.4c1.6,0,3.1-0.4,4.1-1.2
		c1.4-1.1,1.4-1.2,0.4-2.8c-0.6-0.9-1.9-1.8-2.8-2c-0.9-0.2-3.1-0.8-4.8-1.3c-4.1-1.2-14.9-1.2-15.9,0c-0.5,0.6-0.5,1.3-0.1,2.5
		c0.7,1.8,0.6,1.8,5.9,2.9c2.1,0.4,3.9,1.1,4.2,1.4c0.8,1.1,0.6,4.1-0.5,6.1c-0.8,1.4-0.8,2-0.3,2.4c1,0.6-0.1,2.8-2.3,4.1
		c-1.4,1-1.6,1-3.1-0.4c-1.7-1.6-1.3-1.8-7.5,3.1c-2.2,1.8-3.8,2.5-5.2,2.5c-2.5,0-4.5-0.9-4.5-2.1c0-0.8-1.8-1.6-3.6-1.6
		c-0.5,0-1.9,1.1-3.1,2.5c-2.3,2.6-4.5,3.2-6.9,1.9c-5.4-2.8-6-2.5-5.4,2.4c0.4,3.3,0.3,3.7-0.9,4.4c-1.9,1.1-5.9,0.2-7.6-1.6
		c-1.1-1.2-1.3-1.7-0.7-2.3c0.4-0.4,0.8-1.6,0.8-2.5c0-1.3-0.3-1.8-1.3-1.8c-1.6,0-2.7,2.2-2.3,4.6c0.3,1.6,0.1,2.3-0.9,3.2
		c-1.6,1.4-1.6,1.9,0,3.3c1.9,1.7,1.6,3.2-0.9,3.9c-1.2,0.3-3.1,1.3-4.1,2.2s-2.3,1.6-2.9,1.6c-1.2,0-5.8,2.6-5.8,3.2
		c0,1.8,1.4,3.7,2.7,3.7c1.8,0,4.4,1.8,3.8,2.6c-0.2,0.4-0.8,0.2-1.2-0.5c-0.8-1.1-0.9-1-1.5,0.6c-0.4,1-0.7,2.1-0.7,2.4
		c0,0.4-0.5,0.3-1.1-0.3c-1.6-1.4-1.8-1.4-2.2,0.6c-0.9,4.5-0.9,4.4,1.4,3.8c0.9-0.2,1.1,0.5,2.4,5.8c0.2,0.9,0.8,2.2,1.3,2.9
		c0.8,1.3,0.9,1.3,3.2-0.8c1.8-1.6,2.8-2.1,4.2-1.9c1.6,0.2,1.9,0.5,2.1,2.3c0.2,1.9,0,2.1-2.6,3.3c-3.1,1.3-3.6,2.3-1.8,3.9
		c1.7,1.5,3.3,1.3,6.1-0.9c2.5-1.9,3.4-1.6,2.3,0.6c-1,1.9-0.8,3.1,0.6,3.5c0.8,0.3,1.3,0.9,1.3,1.9c0,1.8,1.5,2,3.6,0.5l1.4-0.9
		l-1.3-1.8c-2.2-2.9-0.2-5,4.2-4.1c2.1,0.4,2.1,0.3,2.1-1.6c0-1.1,0.3-2.5,0.6-3.2c0.8-1.4,3.4-1.6,4-0.2c0.3,0.6,0.8,0.8,1.6,0.6
		c0.8-0.3,1.6,0.1,2.5,1.3c1.5,1.9,1.6,4.3,0.4,6.5c-0.8,1.4-0.7,1.7,0.4,2.9c2,2.1,3.2,1.9,2.8-0.6c-0.1-1.1,0-2.7,0.3-3.4
		c0.4-1.1,0.3-1.9-0.7-3.3c-1.4-2-1.6-3.6-0.4-5.2c1.8-2.3,4.6-1.1,4.9,2.1c0.1,1.6,0.6,2.4,2.3,3.4c3.3,1.9,6.3,0.6,10.6-4.8
		c4.5-5.6,5.1-5.6,12,0.8c3,2.8,5.9,5,6.4,5c0.4,0,1.3,0.6,1.9,1.3c0.6,0.8,1.8,1.3,2.9,1.3c1.6,0,1.9-0.3,2.3-2.2
		c0.4-2.3,1.9-3,2.5-1.3c0.3,0.5,0.8,0.9,1.3,0.9c0.8,0,0.9-0.4,0.6-1.9c-0.3-1-0.1-2,0.3-2.2c1.1-0.7,2.4,0.9,2.6,3.3l0.2,2.3
		l0.9-2.1c0.6-1.4,1.3-2,2.3-2c1.9,0,2.4,0.2,2.1,0.9c-0.2,0.3-0.4,1.9-0.4,3.4c-0.1,1.5-0.4,2.9-0.8,3c-0.4,0.1-0.3,0.9,0.4,2.1
		c1.1,1.8,1.1,1.9,0.1,2.6c-0.8,0.6-0.9,0.9-0.4,1.5c1.4,1.4,2.9,0.9,3.3-1.1c0.3-1,1.2-2.5,2.1-3.3c0.9-0.8,2.2-2.2,2.8-3.2
		c0.9-1.5,1.3-1.6,2.4-1l1.4,0.8l-1.4,0.6c-1,0.4-1.4,0.9-1.1,1.7c0.4,1.7-0.6,3.3-1.2,1.8c-0.6-1.7-1.5-1.3-1.5,0.8
		c0,2.3,2.4,3.9,4.1,2.5c0.8-0.7,0.9-0.5,0.9,1.2c0,1.1,0.2,1.9,0.4,1.9c0.3,0,1.4-0.9,2.6-1.9c2.1-1.9,3.8-2.3,6-1.3
		c1.1,0.4,1.1,0.5-0.1,1.6c-1.8,1.7-1.6,3.3,0.6,4.9c1.8,1.3,1.9,1.6,1.5,4.3c-0.2,1.6-0.1,3.3,0.3,3.8c0.6,0.8,0.8,0.8,1.6-0.3
		c0.6-0.7,0.8-1.6,0.7-2.1c-0.2-0.5,0.3-1.6,0.9-2.4c1.6-2,1.6-3.4,0-6.4c-1.9-3.7-1.6-7.5,0.6-7.5c1.8,0,2-0.7,0.6-2.6
		c-0.7-1-1.5-2.6-1.8-3.6c-0.5-1.8-0.4-1.9,1.9-2.8c3.4-1.4,4.3-5.4,1.1-5.4c-1.2,0-1.3-0.3-1.1-4.7l0.2-4.7h-2.3
		c-3.6,0-6.1-1.6-6.8-4.4c-0.6-2-0.9-2.4-2.2-2.4c-1.9,0-4.1-2.1-4.1-3.9c0-0.8-0.4-2.2-0.9-3.2c-0.5-0.9-0.9-2.1-0.9-2.6
		c0-0.4-0.6-1.1-1.3-1.5c-1.8-0.9-1.6-3,0.4-3.8c1.3-0.4,2-0.4,3.2,0.4c2.8,1.8,3.9,3.4,3.9,5.3c0,1.4,0.3,1.9,1.6,2.3
		c2.4,0.6,5.9-1.5,5.9-3.5c0-1.9-1.6-4.4-2.9-4.4c-1.1,0-1.1-0.1,0.1-2.9c0.5-1.2,0.9-3.1,0.9-4.1c0-1.2,0.6-2.3,1.8-3.3
		c2.4-2.1,3.1-1.9,3.4,0.8c0.1,1.7,0.5,2.4,1.3,2.6c0.6,0.1,1.1-0.2,1.1-0.6c0-1.2,6.6-5.1,7.8-4.6c1.4,0.5,1.2,1.4-0.8,3.2
		c-1.5,1.3-1.6,1.7-0.8,2.2c0.5,0.3,1.4,0.6,2.1,0.6c1.6,0,1,1.4-1.1,2.4c-1.3,0.6-1.6,1-1.1,1.5c0.5,0.5,1.3,0.4,2.9-0.4
		c2.7-1.3,2.8-1.3,2.8-0.1c0,0.6-0.6,0.9-1.4,0.9c-1,0-1.8,0.6-2.2,1.6c-0.4,0.9-1,1.6-1.4,1.6c-0.9,0-0.8,3,0.1,3.3
		c0.6,0.3,0.6,0.8,0.1,2.6c-0.6,1.8-0.5,2.3,0.3,2.6c1.6,0.6,2.1,0.4,2.1-1c0-0.8,0.9-2.3,2.1-3.3c1.1-1.1,2.5-2.8,3.1-3.6
		c1.2-1.8,3.4-2.3,3.9-0.8c0.3,0.6,0.9,0.8,2.1,0.5c1.5-0.3,1.8-0.1,2,1.1c0.1,1.2,0.8,1.6,3.3,2.3c1.6,0.4,3.2,0.9,3.4,1.1
		c0.2,0.2,0.4,2.1,0.6,4.3c0.1,3.8,0.1,4.1-2,5.9c-2.7,2.4-2.8,3.4-0.4,3.1c1.5-0.2,2,0,2.6,1.3c0.6,1.4,0.9,1.5,3.8,1.2
		c4.1-0.5,4.3-0.7,4.3-3.6c0-4.6,4.2-6.4,5.3-2.1c0.3,1,0.8,1.6,1.6,1.6c1.1,0,1.1-0.1,0.3-3c-1.1-3.4-0.8-5.1,1-5.1
		c1,0,1.2-0.3,0.9-1.2c-0.2-0.7-0.1-1.4,0.3-1.6C212.9,331.8,212.9,331.1,212.4,330.1z"/>
	<path fill="#000066" d="M153.7,182.3c-0.8-1.6-0.8-1.6-1.8-0.6c-1,1-0.9,2.1,0.1,2.9C153.4,185.8,154.6,184,153.7,182.3z"/>
	<path fill="#000066" d="M224.4,350.8c-1,1.2-0.3,4.1,1,4.1c0.9,0,1.1-0.3,1.8-3.3c0.3-1.4,0.2-1.7-0.8-1.7
		C225.7,349.8,224.8,350.3,224.4,350.8z"/>
	<path fill="#000066" d="M295.3,365.3c1.3-0.6,1.8-0.5,3.1,0.7c2.4,2.3,3.3,1.3,2.8-3c-0.2-2.1-0.6-4-0.8-4.3
		c-0.6-1-4.2-1.6-4.9-0.8c-0.9,0.9-3.9,0.9-7.6-0.3c-1.7-0.5-3.6-0.9-4.3-0.9c-1.2,0-1.2,0.1-0.3,1.1c1.6,1.7,0.4,2.9-2.8,2.8
		c-1.4-0.1-2.9-0.5-3.3-1c-1.1-1.6-2.5-1.6-4.2,0c-1.6,1.5-1.7,1.6-3.9,0.5c-1.4-0.7-2.3-1.5-2.3-2.3c0-0.7-0.4-1.2-0.8-1.2
		c-0.4,0-1.4-0.2-2.1-0.4c-0.7-0.2-1.6,0.1-2,0.6c-0.6,0.7-0.4,1,0.9,1.6c1.3,0.6,1.4,0.9,0.9,1.6c-1.3,1.6,0.3,2.6,7.3,4.4
		c1.8,0.5,1.8,1.1-0.2,2.2c-0.9,0.4-2,1.5-2.5,2.3c-1.4,2.1-3.1,1.8-6.3-1.1l-2.8-2.6v3.2c0,3.8-0.9,6.4-2.2,6.4
		c-1.1,0-1.1,0.1-0.2,2.2c0.5,1.1,1.2,1.6,2.3,1.6c0.9,0,2.3,0.2,3.1,0.4c1.1,0.3,1.4,0.1,1.4-0.9c0-1.6,1.8-2.3,3.1-1.1
		c1.3,1.2,2.5,1.2,2.5,0.1c0-1.5,1.1-1.8,3.6-0.9c1.5,0.5,2.4,0.5,2.5,0.1c0.1-0.4,0.9-0.5,1.8-0.3c1.9,0.3,2.1-0.8,0.3-3
		c-1.5-1.9-1.6-4.4-0.3-4.4c0.5,0,1.4-0.3,2.1-0.6c0.6-0.4,1.8-0.8,2.8-1c1.1-0.3,1.7-0.8,1.7-1.6c0-0.8,0.4-1.3,1.2-1.3
		c0.7,0,1.6-0.4,2.1-0.9c1.3-1.3,5.4-0.6,5,0.9C291.7,365.7,293.4,366.2,295.3,365.3z"/>
	<path fill="#000066" d="M333.8,304.5c0.4-0.5,1.2-0.9,1.7-0.9s1.4-0.3,2.2-0.7c1.2-0.6,1.1-0.8-0.8-2.2c-2.4-1.7-2.8-1.8-3.5-0.8
		c-1.3,2.1-1.8,3.4-1.6,4.4C332.1,305.7,332.8,305.7,333.8,304.5z"/>
	<path fill="#000066" d="M0.5,188.2c1.1,1.8,1.3,2.8,0.9,5.1c-0.6,4.5,0.4,6.1,4.1,6.1c3.1,0.1,6.1-1.8,6.1-3.8
		c0-1.5-4.1-8.4-6.4-10.8c-2.1-2.1-3.6-2.6-3.6-1.1c0,0.5-0.6,1.2-1.3,1.6c-0.2,0.1-0.3,0.2-0.5,0.3v1.6
		C0.1,187.5,0.3,187.8,0.5,188.2z"/>
	<path fill="#000066" d="M146.1,184.2c2.3,0.1,2.9,0,2.9-0.8c0-0.5-0.8-1.1-1.9-1.3c-3.1-0.6-9.3-4.3-8.4-5.1
		c1.1-1.1,0.8-1.7-1.2-1.7c-1,0-2.3,0.5-2.9,1.2c-0.6,0.6-1.8,1.4-2.5,1.6c-1.4,0.4-2,2.5-0.9,3.1c0.3,0.2,0.4,0.9,0.3,1.6
		c-0.3,0.9,0.1,1.4,1.3,1.8c2.4,0.9,7.4,1,9.1,0.1C142.5,184.4,144.5,184.1,146.1,184.2z"/>
	<path fill="#000066" d="M629.6,121.6c-0.8,1.5-4.4,2-5.8,0.8c-0.8-0.6-1.8-0.8-3.4-0.6c-5.6,0.8-7.6,1.6-11.4,4.7
		c-2.7,2.2-4.6,3.3-5.8,3.3c-1.6,0-1.7-0.1-1.1-1.6c0.3-0.9,1.4-2.3,2.3-3.1c1.6-1.4,1.6-1.6,0.9-3.2c-0.6-1.4-1.1-1.6-2.2-1.3
		c-0.8,0.3-3,0.6-4.9,0.8c-4.8,0.4-5.8,1.6-5.8,6.8c0,3.6,0.1,4.1,1.6,4.9l1.6,0.9l-2.2,0.1c-1.2,0.1-4.5,0.3-7.3,0.6
		c-4.3,0.4-5.4,0.8-6.3,1.9c-1.1,1.4-1.3,1.4-4.4,0.6c-2.8-0.8-3.6-0.7-6.4,0.2c-6.6,2.2-7.9,1.4-5.8-3.6c1.4-3.5,1.4-3.8,0.4-4.6
		c-0.6-0.4-1.4-0.8-2-0.8c-0.5,0-1.4-0.4-2-1c-1-0.9-1.3-0.9-3.7,0.4c-2.3,1.2-2.8,1.3-3.6,0.4c-0.6-0.5-1.6-1.1-2.2-1.3
		c-0.6-0.3-1-0.7-0.8-1c0.2-0.3-0.1-0.9-0.6-1.3c-0.5-0.4-0.9-1.4-0.9-2.3c0-1.1-0.4-1.5-1.2-1.5c-1.9,0-3.2-0.7-3.2-1.6
		c0-1.1-0.9-1.1-3.6,0.1c-1.6,0.7-2.6,0.8-4.5,0.3c-2.1-0.6-2.9-0.5-5.1,0.6c-1.7,0.9-2.8,1.1-3.3,0.7c-0.6-0.4-3.6-0.5-6.8-0.1
		c-0.9,0.1-0.5,1.8,0.6,2.7c0.6,0.6,1.9,1.3,2.9,1.6c1.6,0.5,1.9,0.9,1.8,2.4c-0.2,3.3-0.9,5.5-2.8,7.8c-2.1,2.7-2.1,3.1-0.8,5.6
		c0.6,1.3,0.8,2.1,0.4,2.6c-0.4,0.4-0.8,2.6-1.1,4.8c-0.4,3.4-0.3,4.3,0.6,4.9c0.2,0.2,0.3,0.3,0.5,0.5l31.4-0.1
		c0-0.3,0-0.6-0.1-0.9c-0.3-1.9,0-2.9,1.3-4.9c1.6-2.3,2-2.6,5.2-2.9c3.2-0.4,3.8-0.3,6,1.3c1.4,0.9,2.8,2.4,3.1,3.1
		c1,2.2,3.2,1.8,5.2-0.8c2.4-3.1,4.4-4.1,6.8-3.1c1.9,0.8,4.8,0.3,6.3-0.9c0.3-0.3,1.9-0.6,3.5-0.6c1.9,0,3.4-0.4,4.4-1.2
		c1.4-1.2,1.4-1.3,0.4-2.1c-1.5-1.1-0.9-2.4,2.1-4.9c1.9-1.5,3.4-2.1,6.7-2.6c4.4-0.7,8.6-0.3,9.9,0.8c0.6,0.5,1.8,0.1,4.6-1.3
		c2.1-1.1,4.4-1.9,4.9-1.9c2.4,0,5.5-1.9,7.1-4.3c1.1-1.6,2.2-2.6,3-2.6c0.8,0,1.4-0.5,1.6-1.1c0.1-0.6,1.1-1.4,2.1-1.8
		c1-0.4,1.8-1,1.8-1.4C639.6,118.2,630.6,119.8,629.6,121.6z"/>
	<path fill="#000066" d="M540.9,113.4c2.1,1.7,4.5,1.9,6.1,0.6c0.6-0.5,1.6-1.1,2.2-1.3c0.6-0.3,1.1-1.1,1.1-2.1
		c0-0.9,0.6-2.4,1.3-3.3c1.4-1.8,1.6-3.2,0.5-3c-0.4,0-1.7,0.2-2.7,0.3c-1.4,0.2-2.1,0.7-2.6,2.1c-0.8,2-2.9,3.1-5.9,3.1
		C538.3,109.7,538.4,111.4,540.9,113.4z"/>
	<path fill="#000066" d="M598.4,90.1l-1.9-1.1c-2.9-1.8-5.3-1.5-7.1,0.8c-1.8,2.1-1.9,2.6-1,4.4c1.1,2,3.4,1.5,4.9-1
		c0.9-1.5,1.9-2.3,3.2-2.6L598.4,90.1z"/>
	<path fill="#000066" d="M321.9,342.3c-0.6,1.6-0.6,2.1,0.6,3.8c1.6,2.3,2.9,3,6.5,3.7c3.5,0.6,4.8,0,3.3-1.7
		c-0.9-0.9-1.1-2.4-1.1-8c0-3.8-0.3-7.9-0.8-9.3c-1.1-3.9-1.3-10.3-0.5-13.2c0.6-2.2,0.6-3.1,0-4.6l-0.8-1.9l-1.6,2.3
		c-0.9,1.2-1.9,2.2-2.3,2.2c-1.3,0-3.5-1.9-3.5-3c-0.1-1.6-1.6-3.3-3.1-3.3c-1.4,0-1.8,0.9-0.7,1.6c1.1,0.6,0.7,2.2-0.5,2.2
		c-0.8,0-1.6-0.9-2.3-2.5c-0.7-1.6-1.6-2.6-2.6-2.9c-0.8-0.3-1.8-0.9-2.2-1.6c-0.6-1.2-2.4-1.7-2.4-0.7c0,1.4,2.2,4.9,3.9,6.4
		c1.9,1.7,1.9,3.1-0.1,3.1c-0.6,0-2.4,0.4-3.8,0.9c-2.4,0.9-3,0.9-5.4-0.1c-1.6-0.6-2.9-1.6-3.3-2.6c-0.5-1.1-1-1.4-1.8-1.1
		c-0.6,0.2-3.1,0.8-5.6,1.1c-2.5,0.4-4.6,0.9-4.6,1.2c0,0.3,0.6,0.8,1.3,1.3c1.2,0.8,1.2,0.9-0.8,2c-2.1,1.1-3.7,1.1-8,0
		c-1.1-0.3-2.5-0.1-3.9,0.6c-1.9,0.9-2.1,1.3-1.6,2.3c0.3,0.7,1.3,1.2,2.3,1.2c1,0,2.4,0.9,4,2.4c2.6,2.6,3.4,2.4,3.8-0.7
		c0.2-1.7,0.3-1.8,2-0.8c0.9,0.5,2.3,0.9,2.9,0.9c0.6,0,1.8,0.8,2.6,1.9c1.7,2.3,2.1,2.3,3.3,0c0.5-1,1.7-2.1,2.5-2.3
		c0.9-0.2,1.6-0.6,1.6-0.9c0-0.3,1.2-0.6,2.6-0.6c1.5,0,3.1-0.4,3.8-1.1c1.1-0.9,1.2-0.9,2.3,0.1c0.9,0.8,1.8,0.9,4.6,0.6
		c3-0.4,3.6-0.3,5.1,1.1c1,0.9,2.3,3.4,3.3,6.5c0.9,2.8,2.1,5.6,2.5,6.3c1.1,1.6,1.1,3.7,0,4.6C323.1,340.1,322.4,341.3,321.9,342.3
		z"/>
	<path fill="#000066" d="M589.8,110.7c-1.8,1.2-1.8,1.8-0.3,2.7c1,0.5,1.6,0.3,3.1-1c1.1-0.9,1.9-1.9,1.9-2.2
		C594.6,109.3,591.3,109.7,589.8,110.7z"/>
	<path fill="#000066" d="M143.1,280.6c4.9,0.4,5.9,0,5.3-2.3c-0.4-1.6-0.6-1.7-3.3-1.6c-1.6,0-3.9,0.6-5.3,1.1
		C136.7,279.3,137.6,280.1,143.1,280.6z"/>
	<path fill="#000066" d="M118.9,273.2c0.9-0.2,1.9-0.8,2.3-1.3c0.4-0.5,1.6-0.9,2.6-0.9c1.1,0,2.8-0.4,3.8-0.9
		c1.1-0.5,2.9-0.9,4.1-1.1l2.1-0.2l-1.4-1.8c-1.5-1.9-2.6-2.1-3.8-0.8c-0.4,0.6-1.9,0.9-3.4,0.9c-1.4,0.1-3.3,0.4-4.1,0.9
		c-1.9,1.1-5.4,1.2-6,0.3c-0.6-1-4.1-0.2-9.1,2.3c-2.5,1.2-4.9,2.2-5.3,2.2c-1,0-3.4,3.1-3.1,3.8c0.6,1,4.1,1.4,5.1,0.6
		c1.1-0.9,10.5-0.4,11.8,0.7c1.5,1.3,3.3-0.2,2.9-2.4C117.4,273.8,117.5,273.5,118.9,273.2z"/>
	<path fill="#000066" d="M579.8,110.2c-0.8-2.1-1.3-2.4-2.9-2.4c-1.1,0-2.6-0.2-3.3-0.4c-0.9-0.3-1.5,0-2,0.9
		c-0.6,1.1-0.4,1.4,1.2,2.3c2.2,1.1,5.6,6.8,5.6,9.3v1.8l3.9-0.4c4.1-0.4,7.9-1.8,7.9-2.7c0-0.9-2.3-2.5-5-3.5
		C581.7,113.7,581,113.1,579.8,110.2z"/>
	<path fill="#000066" d="M137.1,201.2c0.2-1.6,0.4-3.8,0.4-4.9c0-1.9-0.1-2.1-2.9-2.4c-2.2-0.3-3.3-0.8-4.3-2.1
		c-1.2-1.5-1.3-1.9-0.5-2.4c0.8-0.6,0.8-1-0.4-3c-0.8-1.3-1.7-2.3-2.1-2.3c-0.4,0-0.3-0.3,0.2-0.6c1.2-0.8,0.6-1.3-3.8-3.1
		c-2.9-1.2-4.2-1.4-8.4-1.1c-4.3,0.3-5.5,0.1-8.2-1.1c-4.2-1.9-11.6-2.4-14.8-1c-1.9,0.8-2.4,1.3-2.4,2.8c0,2.3-1,4.2-2.2,4.2
		c-0.5,0-0.9,0.3-0.9,0.6c0,1.7-7.8,3.7-9.9,2.6c-1-0.6-1.4-0.5-1.9,0.5c-0.3,0.7-0.6,1.9-0.6,2.6c0,1.3-0.1,1.4-5.1,1
		c-5.3-0.3-8.7,0.3-8.7,1.8c0,2.8,5.6,6,10.3,6c1.4,0,3.4,0,4.3,0c1,0,2.7-0.6,3.8-1.3c1.2-0.7,2.9-1.3,4-1.3c2.6,0,6.4,1.9,6.4,3.1
		c0.1,1.6,1.6,3.2,3.6,3.6c2.3,0.4,3.3-0.9,3.3-4.3c0-2.4,1-3.9,2.9-4.6c1.1-0.3,1.6,0.1,2.6,2.1c1.9,3.8,7.4,8.4,11.4,9.7
		c4.5,1.4,7.4,1.4,10.1-0.3c2.6-1.5,2.7-2,0.9-4.2l-1.3-1.7l1.8-0.2c1.2-0.2,2.8,0.5,5.4,2.4C135,205.6,136.5,205.4,137.1,201.2z"/>
	<path fill="#000066" d="M258.4,344.8c-1.2-1.3-1.8-1.5-2.4-0.8c-0.9,0.9-0.4,2.6,0.9,2.9C259.1,347.5,259.8,346.3,258.4,344.8z"/>
	<path fill="#000066" d="M373.5,292.3h-2.9l0.4,2.3c0.6,3.3,0.9,3.5,3.9,2.6c1.6-0.5,2.3-0.6,3.1-0.2l0-6.6c0,0,0,0-0.1,0.1
		C376.7,292,375.9,292.3,373.5,292.3z"/>
	<path fill="#000066" d="M353.4,190.7c0.1-1.8,0-1.9-3.1-1.9c-3.1,0-3.1,0-3.8,2.4c-0.4,1.9-0.4,2.5,0.4,3.1c0.8,0.6,0.9,1,0.3,2.6
		l-0.8,1.9l-0.8-2.3c-0.4-1.3-1.3-2.9-1.9-3.8c-0.8-0.9-1.3-3.1-1.6-6.3c-0.5-5.4-1.6-6.8-5.3-6.8c-1.1,0-2.1-0.4-2.3-0.9
		c-0.4-1.1-1.3-1.3-1.8-0.3c-0.2,0.3-1.8,0.6-3.4,0.6c-2,0-3.3,0.3-3.6,0.9c-0.3,0.5-1.6,1.3-3,1.8c-2,0.7-2.5,1.1-2.5,2.4
		s-0.4,1.6-1.7,1.8c-0.9,0.1-2.1,0.8-2.6,1.6c-1.2,1.8-5.6,3.8-7.4,3.3c-0.8-0.3-2.1-0.9-2.8-1.6c-1.3-1.2-1.4-1.2-2.1,0.3
		c-0.4,0.9-0.7,1.9-0.7,2.4c0,1.8-1.8,2.7-4.2,2.1c-1.3-0.3-3.6-0.6-4.9-0.6c-2.9,0-4.3-1.2-3.8-3.1c0.3-1-0.1-1.4-1.6-1.8
		c-1.7-0.4-2.1-0.9-2.3-2.6c-0.4-2.6-2.2-3.3-2.8-1.1c-0.3,0.8-0.8,2.4-1.3,3.5c-0.8,1.6-1.1,1.9-2.1,1.4c-0.8-0.4-1.6-0.3-2.8,0.3
		c-2.2,1.1-4,1.1-6.1,0c-1-0.5-2-0.6-2.5-0.3c-1.6,1-5.3,0.6-7-0.7c-1.3-1.1-1.8-1.1-3.6-0.6c-2.3,0.8-9.3,0.3-10.3-0.7
		c-0.4-0.4-1.6-0.6-2.7-0.6c-1.3,0-2-0.3-1.9-0.8c0.1-0.9-4.4-2.3-7.5-2.3c-1.9-0.1-2.1,0.1-2.1,2.1c0,2.6-0.6,2.9-6.1,2.9
		c-4.9,0-6.6,0.8-4.6,1.8c0.7,0.4,1.9,0.7,2.6,0.7c2.8,0,4.2,5.1,2.2,8c-1.1,1.7-2.8,1.8-5.1,0.3c-0.9-0.6-3.4-1.8-5.4-2.8l-3.8-1.7
		l-0.2,1.7c-0.5,4.2-1.4,6.4-3.2,7.3c-2.5,1.3-3.3,6.2-1.5,9.2c1.1,1.9,1.6,2.1,4.6,2.4l3.4,0.3l-0.2,2.2c-0.2,2.9-1.3,5.6-2.4,5.6
		c-0.5,0-2.1,1-3.8,2.2c-1.6,1.2-3.6,2.4-4.5,2.6c-6.7,1.4-7.8,2.5-6.9,6.7c0.5,2.8,0.4,3.3-1.9,7.3c-2.5,4.4-8.7,11.2-11.8,12.8
		c-2.1,1.1-8.2,2.3-11.8,2.3c-1.5,0-4.1-0.5-5.7-1.1c-4.8-1.8-6.7-1-6.8,2.9v2.3L158,262c-2.1,0.1-3.3,0.4-4.3,1.4
		c-1.6,1.5-9,4.5-11.1,4.5c-0.8,0-1.4,0.4-1.4,0.9c0,0.6,1.2,0.9,4.3,1.2c2.3,0.2,5.4,0.8,7.1,1.3c2.9,0.9,4.4,0.7,7.6-1.6
		c1-0.7,1.3-0.6,2.5,0.8c0.8,0.9,1.8,1.8,2.3,2c0.6,0.3,0.5,0.4-0.4,0.4c-0.8,0.1-1.6,0.3-1.8,0.7c-0.2,0.3-1.1,0.6-1.8,0.6
		c-0.8,0-1.8,0.4-2.3,0.9c-0.4,0.5-1.6,1-2.7,1.1c-3.3,0.3-2.8,1.9,1.1,3.3c4.4,1.5,12.9,0.8,12.9-1.1c0-0.5,0.4-1.2,0.9-1.6
		c1.1-0.9,1.3-1.9,0.4-1.9c-0.4,0-1.6-0.6-2.9-1.4l-2.3-1.3l3.6-1.1c5.8-1.8,12.8-3.1,16.1-3.1c3.3,0,4.3,0.8,9.3,6.8
		c2.2,2.7,2.4,2.8,6.3,3.1c5.3,0.3,8.1-0.4,9.1-2.6c0.9-1.8,2.3-2.6,5.8-3.2c2.3-0.3,3.3-1.6,3.8-4.9c0.3-2.1,2-2.6,5.4-1.7
		c2.4,0.6,4,0.6,6.8,0.1c4.1-0.8,6.3-2.1,7.7-4.8c2.1-3.9,4-7.1,4.3-7.1c0.3,0,0.3,1.3,0.2,2.8c-0.2,2.4-0.1,2.8,0.9,2.8
		c1.7-0.1,3.9-1.8,2.9-2.4c-0.9-0.6-1.2-3-0.6-5.9c0.4-2.1,0.3-2.5-0.9-3.6c-1.4-1.2-1.4-1.2-0.4-3.4c0.9-2,1.3-2.2,2.3-1.6
		c0.9,0.5,1.2,1.1,0.9,2.2c-0.5,1.9,2.1,3.8,4.6,3.3c0.9-0.2,3.4-0.1,5.6,0.3c3.6,0.6,4.1,0.5,6.9-0.9c1.9-1,3.4-2.3,4.2-3.8
		c0.7-1.3,1.8-2.5,2.4-2.7c0.6-0.2,1.1-0.9,1.1-1.9s-0.4-1.7-1.1-1.9c-0.6-0.2-2.3-0.9-3.8-1.6c-2.4-1.1-2.7-1.5-2.7-3.4
		c0-1.4,0.4-2.3,1.2-2.7c2.4-1.3,2.3-5.1-0.3-5.1c-1.9,0-2.2-0.6-1.2-3c1-2.3,3.4-2.9,3.4-0.8c0,0.9,0.4,1.3,1.5,1.3
		c1.6,0,2.3-1,2.3-3.3c0-0.9,0.4-0.5,1.4,1.4c1,2.1,1.8,2.9,2.9,3c2.7,0.4,5.6,3.1,5.6,5.1c0,1.1,0.6,2.4,1.4,3.1
		c1.6,1.4,2.4,1.6,3.4,0.6c0.9-0.9,2.9-0.2,2.5,0.9c-0.6,1.4,3.8,6.6,5.5,6.6c0.8,0,1.7,0.3,1.9,0.6c0.9,1.5,5.9,0.2,5.9-1.6
		c0-1.3,1.8-2.8,3.5-2.8c1.3,0,1.5,0.3,1.5,1.9c0,1.1,0.4,2.1,0.9,2.3c1.4,0.5,5.9-1.4,8.4-3.6c1.8-1.6,2-1.9,1.1-2.3
		c-0.6-0.2-1.5-0.1-2,0.4c-1.1,0.9-2.8,0.4-2.8-0.7c0-0.4,0.2-0.6,0.4-0.4c0.9,0.9,2.7-0.9,3.1-3.3c0.3-1.4,0.6-2.5,0.9-2.5
		c1.1,0,4.8,1.5,5.1,2.1c0.3,0.4,1.1,0.4,2.2,0c1.7-0.6,1.8-0.9,2-4.1c0.1-1.9,0.4-3.6,0.8-3.6c0.4,0,0.6,0.4,0.6,0.9
		c0,1.1,1.9,1.9,1.9,0.8c0.1-0.9,2.9-4.2,3.7-4.2c0.9,0-0.6-3.5-1.9-4.3c-0.8-0.5-1.5-0.5-2.4-0.1c-0.9,0.5-1.3,0.4-1.9-0.6
		c-1.8-3.4,0-8.4,3.3-9.1c5-1,8.4-1.1,9.2-0.1c0.5,0.6,1.5,1,2.3,1c1.6,0,2.8-1.9,2.8-4.7c0-0.8,0.3-1.7,0.6-1.9
		c0.9-0.6,5.1,1,6.4,2.3c0.6,0.6,1.4,1.1,1.9,1.1c0.4,0,1.6,0.8,2.6,1.9c2,2.1,4.8,2.6,4.8,0.8c0-0.6,0.4-1.5,1-2.1
		c0.9-0.9,1.1-1,2.6-0.2c0.9,0.5,2.9,0.9,4.6,0.9c2.2,0,4.6,1,7,2.7l0-13.1c-0.7,1.4-2.2,2.6-3.9,3.2c-1.7,0.6-4.4-0.7-4-1.9
		c0.2-0.5,0.3-1.4,0.1-1.8c-0.3-0.8-0.6-0.8-2.4,0.1c-1.6,0.8-2.3,0.9-4.4,0.2c-2.1-0.8-2.6-0.7-3.6,0.3c-1.6,1.4-7.4,1.2-7-0.3
		C353.3,193,353.4,191.7,353.4,190.7z"/>
	<path fill="#000066" d="M362.6,184.7c1.3,0,1.4-3.6,0.2-4.9c-0.4-0.4-0.8-1.5-0.8-2.4c0-1.6-1.1-1.9-2.6-0.8
		C357.1,178.5,359.6,184.7,362.6,184.7z"/>
	<path fill="#000066" d="M465.1,135.3c0.8,0,1.3,0.4,1.3,1c0,1.1,0.1,1.1,2.9-0.7c2.6-1.6,2.6-2.6,0.1-3c-1.1-0.2-2.8-0.5-3.6-0.8
		c-0.9-0.2-1.9-0.1-2.4,0.2C462.1,132.9,463.5,135.3,465.1,135.3z"/>
	<path fill="#000066" d="M463.6,151.3c2.8-1.7,3-1.7,5.1-0.7c2.6,1.3,6.1,1.3,7,0.1c0.4-0.4,0.5-1.6,0.3-2.8c-0.4-1.9-0.4-1.9-2.1-1
		c-1.5,0.9-1.9,0.9-4.9-0.3c-3.5-1.4-4.6-1.6-5.3-0.9c-0.3,0.2-0.4,0.9-0.4,1.4c0,0.6-0.6,1.8-1.3,2.7
		C460,152.5,460.6,153.1,463.6,151.3z"/>
	<path fill="#000066" d="M450.6,149c1.7-0.6,1.9-0.9,1.4-1.9c-0.8-1.3-3.1-1.6-4.3-0.4c-1,1-0.9,3,0.1,3
		C448.3,149.7,449.6,149.4,450.6,149z"/>
	<path fill="#000066" d="M367,169.9c-1.3-0.2-2.3-0.1-2.5,0.4c-0.6,0.8,1.1,9.4,1.9,10.5c0.9,1.1,2.7,1,4.8-0.1
		c1.3-0.6,1.9-1.6,2.2-3.1c0.4-2,0.6-2.2,2.5-2.2c0.9,0,1.8-0.3,2.5-0.7l0-10.3c-0.5-0.2-1-0.3-1.4-0.3c-1.4,0-1.4-0.2-1.3-4.5
		c0.1-4,0.4-4.8,2.2-7.2c1.1-1.5,2.1-3.4,2.1-4.3c0-0.9,0.4-2.6,0.9-3.9c1.2-2.8,1.3-2.7-0.7-2.7c-1.1,0-1.8-0.4-1.9-1.2
		c-0.1-0.6-1-1.5-1.8-1.9c-1.8-0.8-2.1-3.6-0.5-4.7c0.6-0.4,0.9-1.4,0.8-2.3c-0.2-1.6-0.2-1.6-2.4-0.6c-1.3,0.6-2.8,1.4-3.3,1.9
		c-0.6,0.6-1.8,0.7-3.1,0.4c-1.9-0.4-2.1-0.3-2.5,1.3c-0.3,1.1-0.1,2,0.6,2.8c0.6,0.7,0.9,1.2,0.6,1.2c-0.2,0,0.2,1.1,0.9,2.5
		c1.3,2.6,1.3,3.8-0.3,3.8c-0.9,0-2.4,5.1-1.9,6.4c0.2,0.5,1.4,1.5,2.8,2.3c1.4,0.8,2.5,1.6,2.5,1.9c0,0.3,0.1,0.9,0.3,1.4
		c0.3,0.6-0.4,1.3-1.8,2.1c-2.8,1.5-2.3,2.8,0.9,2.8c2.9,0,3,0.4,0.8,5.1C369.2,170.2,369.1,170.3,367,169.9z"/>
	<path fill="#000066" d="M314.2,137.2c-0.1,0-0.2,0.1-0.3,0.1l3,1.5C316,138,314.8,137.2,314.2,137.2z"/>
	<path fill="#FFFFFF" d="M311.4,139.4c-1.1,1.1-1.7,2-1.6,2.5l1.8,0.9c0.3,0,0.6,0,1,0c2.2,0,2.5,0.1,2.8,1.8l5.5,2.8
		c-0.2-0.4-0.4-0.8-0.6-1.2c-1.4-2.8-2.5-5.3-2.4-5.8c0.1-0.4-0.4-1-1-1.7l-3-1.5C313.3,137.6,312.3,138.4,311.4,139.4z"/>
	<path fill="#FFFFFF" d="M311,156.3c0.6,1.4,2.4,2,4.4,1.4l-4.4-2.2C311,155.8,311,156.1,311,156.3z"/>
	<path fill="#FFFFFF" d="M324.3,168c1,1,1.7,2.5,1.7,3.4c0,1.3,0.3,1.6,1.3,1.5c3.4-0.4,3.9-0.8,4.3-2.7c0.2-1.2,0.8-2.6,1.5-3.7
		l-11.8-5.9C321.7,163.7,322.9,166.5,324.3,168z"/>
	<path fill="#FFFFFF" d="M340.6,155.4c-0.3-3.4-1.7-4.6-3.6-2.9c-1.2,1.1-1.3,1.1-2.8-0.6c-0.9-0.9-1.8-2.3-1.9-2.9
		c-0.6-1.8-2.3-1.4-4.4,0.7c-0.3,0.3-0.6,0.6-0.8,0.8l13.9,6.9C340.7,156.8,340.6,156.1,340.6,155.4z"/>
	<path fill="#CC0000" d="M311.6,142.8l-1.8-0.9C309.8,142.4,310.4,142.7,311.6,142.8z"/>
	<path fill="#CC0000" d="M315.4,144.8c0.2,1.1,0.4,3.2,0.5,4.6c0.1,2.2-0.1,2.5-1.3,2.5c-1.4,0.1-3.3,2.1-3.6,3.6l4.4,2.2
		c0.1,0,0.3-0.1,0.4-0.1c2.4-0.9,5.1,0.1,5.4,2.1c0,0.3,0.1,0.6,0.1,0.9l11.8,5.9c0.8-1.4,1.7-2.4,2.3-2.4c0.4,0,1.1-0.4,1.6-0.9
		c0.4-0.5,1.3-0.9,1.9-0.9c1.6,0,3.4-2.3,2.6-3.3c-0.2-0.2-0.4-0.8-0.6-1.5l-13.9-6.9c-2.3,2-3.7,1.3-6.2-3.1l-5.5-2.8
		C315.3,144.7,315.3,144.8,315.4,144.8z"/>
	<path fill="#FFFFFF" d="M521.9,158.9l30.2-0.2c-0.1-1.1,0.2-2.2,0.8-2.7c0.5-0.4,0.7-1.1,0.6-2.2l-31.4,0.1
		C522.9,155,522.8,156.7,521.9,158.9z"/>
	<path fill="#FFFFFF" d="M379.3,297.7c1.1,0.8,1.9,2.2,2.3,3.9c0.4,1.8,0.7,2.4,1.5,2.5l0-5.1c-0.5-0.2-0.5-0.7-0.5-1.7
		c0-1.2,0.2-2.2,0.6-3l0-5.7c-3,0.1-3.7,0.3-5,1.8l0,6.6C378.5,297.2,378.9,297.4,379.3,297.7z"/>
	<path fill="#FFFFFF" d="M382.1,210.2c0.6,0.7,1.1,1.3,1.5,1.9l0.1-18.7c-1.1-1.2-3.7-3.1-4.6-3.1c-0.1,0-0.3,0.8-0.3,1.8
		c0,0.5-0.2,1.1-0.4,1.6l0,13.1C379.6,207.8,380.9,208.9,382.1,210.2z"/>
	<path fill="#FFFFFF" d="M381.2,169.2c0.3-2.7,0.1-3.2-1.2-4.1c-0.4-0.3-1-0.6-1.5-0.7l0,10.3C380,173.7,381,171.9,381.2,169.2z"/>
	<path fill="#006129" d="M386.1,291.9c1.9-0.3,3.2-2.1,2.3-3c-0.2-0.2-2.2-0.3-4.4-0.3c-0.3,0-0.5,0-0.7,0l0,5.7
		C383.7,293,384.7,292.2,386.1,291.9z"/>
	<path fill="#006129" d="M467.5,258.3c-0.6,0.6-0.5,2.7,0.1,2.7c0.9,0,2.6-1.9,2.3-2.6C469.4,257.8,468,257.7,467.5,258.3z"/>
	<path fill="#006129" d="M384.8,216.6c0.2,2.1,0.7,3.8,1.1,3.8c0.3,0,1.8-1.1,3.3-2.4c1.5-1.3,3.6-3.1,4.8-4c2-1.6,2.1-1.6,1.3-4.4
		c-0.5-1.4-1.2-3.8-1.6-5.3c-0.9-3.3-1.6-4.1-5.8-6.8c-1.9-1.2-3.5-2.8-3.8-3.4c-0.1-0.2-0.2-0.4-0.5-0.7l-0.1,18.7
		C384.3,213.3,384.6,214.5,384.8,216.6z"/>
	<path fill="#006129" d="M444.1,267.2c-2.6,0.1-3.4,0.4-4.8,1.9c-0.9,1-3.5,2.5-6.1,3.5c-4.1,1.6-5.6,2.5-4.9,3.2
		c0.3,0.3,8.3-1.3,9.2-1.9c0.8-0.5,2.5,1.2,3.9,3.9c0.8,1.4,1.5,2,2.6,2c0.1,0,0.3,0,0.5,0c-0.1-2.3,0.1-4.3,0.1-5.2
		c-0.2-1.7,2.9-5.5,5-8.1c-0.2,0-0.3,0.1-0.5,0.1C448.2,266.9,445.9,267.2,444.1,267.2z"/>
	<path fill="#006129" d="M410.5,163.8c-1.4,0.9-1.9,1-3.4,0.3c-0.9-0.5-3.3-1-5.3-1.3c-3.1-0.3-3.8-0.2-4.3,0.8
		c-1.7,3.2-7.4,3.7-10.3,0.9c-0.8-0.8-1.7-1.3-2.1-1.1c-1.1,0.3-1.6,4.2-0.8,5.8c0.8,1.4,1.1,1.4,5.8,0.3c1-0.3,3.1,0,5.1,0.6
		c3.6,1.1,7.7,1,11.1-0.2c0.1-0.4,0.1-0.8,0-1.3c0.4,0.3,0.8,0.5,1.1,0.8c2-0.9,3.7-2.2,4.8-3.7
		C413.9,163.4,412.7,162.3,410.5,163.8z"/>
	<path fill="#006129" d="M502.7,201.7c-2.5,0.9-2-2.6-2.8-2.6c-0.1,0-0.3-0.1-0.4-0.2c-0.5,4.1,1.5,5.5,1.5,5.5l0.2,0.4
		c0.2-0.2,0.4-0.3,0.4-0.3s1.4,0,2.6,0c-0.2-1.1-0.2-2.3,0-3.7c0,0,0-0.1,0-0.1C503.9,201.1,503.4,201.4,502.7,201.7z"/>
	<path fill="#006129" d="M487,205c0,0,0.2,0.5,0.6,1.2l0.4-0.9c0,0,1.4-5.7,0-5.3c-0.4,0.1-0.8,0-1.3-0.1c-1.2,1-1.5,1.8-1.5,4
		c0,0.5,0,1.1-0.1,1.8C485.7,205.4,486.3,205.2,487,205L487,205z"/>
	<path fill="#006129" d="M453.2,270.1C453.3,270.1,453.3,270.1,453.2,270.1c1.2-0.4,1.5-1.2,1-2
		C453.4,268.9,452.9,269.7,453.2,270.1z"/>
	<path fill="#006129" d="M398.4,285.1c1.3,1.2,2.6,2.2,2.9,2.2c0.3,0,0.7,1.9,0.9,4.3c0.5,4.7,1.4,6.2,3.3,5.2
		c0.9-0.5,1.9-0.2,4.3,1.2c3.6,2.1,4.8,2.3,5.9,0.9c1.1-1.3,0.3-6-1.3-7.6c-1-1.1-1.4-1.2-3.6-0.6c-1.8,0.5-2.9,0.4-4.3-0.1
		c-1.8-0.7-1.9-0.9-1.8-4.1c0.1-3.1,0.2-3.4,1.7-3.8c0.9-0.2,1.9-1,2.3-1.8c0.6-1.2,0.3-1.5-1.6-2.4c-5.3-2.6-6-3.3-5.8-5.4
		c0.2-1.9,0.1-2-1.8-2h-1.9l0.2,3.9c0.1,2.3-0.3,4.8-0.8,6C396.1,282.9,396.1,283,398.4,285.1z"/>
	<path fill="#006129" d="M383.6,304.2c1.6,0,2.8-1.6,2.8-3.7c0-1.1-0.4-1.3-1.9-1.3c-0.6,0-1.1,0-1.3-0.1l0,5.1
		C383.2,304.2,383.4,304.2,383.6,304.2z"/>
	<path fill="#006129" d="M521.8,159.2c-0.8,1.9-0.8,2.3,0.1,3.8c1,1.6,0.9,1.8-1,4.2c-2.6,3.3-5.9,5.3-9.4,5.8
		c-2.4,0.3-3,0.1-4.1-1.2l-1.3-1.4l-1.2,1.8c-0.2,0.3-0.5,0.7-0.7,1c1.7,1.3,3.4,3.4,4.5,6.8l1.9-0.6c1.4-0.4,3.1-1.5,3.9-2.3
		c1.1-1.1,2.1-1.6,3.9-1.6c1.9,0,2.7-0.3,3.6-1.7c0.6-0.9,2-2.6,3.1-3.8c1.9-2,2.2-2.1,6.6-2.1c2.7,0,4.9,0.3,5.4,0.8
		c0.6,0.6,1,0.4,2-0.4c1.1-1,1.5-1.1,3.7-0.3c1.9,0.6,2.7,0.6,3.8,0c0.8-0.4,2.9-0.6,4.8-0.5l3.4,0.2l0.9-2.5
		c1.2-3.4,1.1-4.1-0.4-4.1c-0.7,0-1.3,0.4-1.3,0.8c0,0.5-0.4,0.3-0.9-0.4c-0.5-0.7-0.8-1.7-0.9-2.6l-30.2,0.2
		C521.9,159,521.8,159.1,521.8,159.2z"/>
	<path fill="#006129" d="M406.5,169.8c0.4-0.1,0.8-0.3,1.1-0.4c-0.3-0.3-0.7-0.6-1.1-0.8C406.6,169,406.5,169.4,406.5,169.8z"/>
	
		<linearGradient id="SVGID_1_" gradientUnits="userSpaceOnUse" x1="71.7954" y1="328.8734" x2="61.1954" y2="332.3734" gradientTransform="matrix(0.85 0 0 -1.9221 240.2198 722.7636)">
		<stop  offset="0" style="stop-color:#FF0000"/>
		<stop  offset="1" style="stop-color:#FFFF00"/>
	</linearGradient>
	<path fill="url(#SVGID_1_)" d="M406.5,169.8c0.4-0.1,0.8-0.3,1.1-0.4c-0.3-0.3-0.7-0.6-1.1-0.8C406.6,169,406.5,169.4,406.5,169.8z
		"/>
	<path fill="#FFC6B5" d="M474.4,235.3c-0.1,0.1-0.1,0.2-0.2,0.2c-0.9,1.3-0.5,3.8,0.6,3.4c0.2-0.1,0.7-0.7,1.3-1.5
		c-0.1-0.8-0.2-1.3-0.2-1.3S475.3,235.8,474.4,235.3z"/>
	<path fill="#FFC6B5" d="M444.6,279.8c0.9,0.1,2,0.3,2.7,0.7c1.4,0.6,1.7,0.6,2.5-0.5c1.4-1.8,1.1-2.6-1.4-4.1
		c-1.3-0.8-2.4-1.9-2.4-2.6c-0.1-0.9,0.4-1.1,2.6-1.1c1.9,0,2.9-0.3,3.1-0.9c0.2-0.5,0.8-1,1.5-1.2c-0.3-0.5,0.2-1.3,1-2
		c-0.2-0.3-0.5-0.7-0.8-1c-1.2-1.1-1.4-1.1-3.7-0.6c-2.1,2.5-5.2,6.3-5,8.1C444.7,275.5,444.5,277.6,444.6,279.8z"/>
	<path fill="#FFC6B5" d="M488,200c1.4-0.4,0,5.3,0,5.3l-0.4,0.9c0.8,1.4,2.5,3.4,5.2,2.8c3.4-0.7,7.3-3.4,8.4-4.2l-0.2-0.4
		c0,0-2-1.4-1.5-5.5c-0.8-0.5-1.8-2.1-2.1-2.6c-0.4-0.5,1-2.9,0.8-3.5c-0.1-0.5-1.1-1.4-1.6-2c-0.6-0.7,1.4-2.3,1.2-3
		c-0.2-0.6-1.1-0.6-3.2-1.2c-2-0.6,0-5.7,0-5.7s-0.9,0.2-2.3-1.8c-0.8-1.2-1.9-1.5-3-1.4c-0.4,0.4-0.9,0.7-1.5,1.1
		c-3.1,1.7-3.2,2.5-0.4,3.9c3.7,1.9,5.3,4,5.1,6.5c-0.1,1.7,0,2,1,1.9c0.7-0.1,0.9,0.1,0.7,0.4c-0.2,0.4-0.8,0.7-1.3,0.7
		c-0.6,0-1.2,1.1-1.6,2.8c-0.4,1.7-1.1,2.9-1.8,3.1c-0.6,0.2-1.9,0.9-2.8,1.6c0,0-0.1,0.1-0.1,0.1C487.2,200,487.6,200.1,488,200z"
		/>
	<path fill="#FFC6B5" d="M470.1,252.6c0-1.1-0.4-1.3-0.9-0.4c-0.2,0.3-0.1,0.8,0.3,1C469.8,253.4,470.1,253.1,470.1,252.6z"/>
	<path fill="#FFFFFF" d="M501.6,204.5c0,0-0.1,0.1-0.4,0.3c-1.2,0.9-5.1,3.6-8.4,4.2c-2.7,0.6-4.4-1.4-5.2-2.8
		c-0.4-0.7-0.6-1.2-0.6-1.2v0.1c-0.7,0.1-1.3,0.3-1.9,0.6c-0.1,1.3-0.3,2.8-0.6,3.8c-0.5,2-0.5,3,0.1,4c0.6,1.1,0.4,1.8-0.6,3.4
		c-2.9,4.8-0.7,9.2,3.6,7c1.1-0.6,1.9-1.3,1.9-1.7s1.1-1.8,2.6-3.2c2.1-2,2.9-2.4,4.3-2.2c8.9,1.8,10.1,1.8,11.3,0.8
		c0.6-0.6,1.6-1,2.1-1c1.3,0,2-1.2,1.1-2.1c-0.4-0.4-0.7-1.1-0.7-1.7c0-0.5-1-1.8-2.2-2.7c-2.3-1.8-3.4-3.4-3.8-5.6
		C503,204.5,501.6,204.5,501.6,204.5z"/>
	<path fill="#FFFFFF" d="M475.9,236.1c0,0,0.1,0.5,0.2,1.3c0.4-0.6,0.8-1.2,1.2-1.9c1.4-2.6,1.6-3.4,1.1-4.5
		c-0.9-1.6-1.2-1.6-3.4,0.4c-1.6,1.4-1.7,1.8-0.8,2.3c0.7,0.6,0.8,0.9,0.3,1.6C475.3,235.8,475.9,236.1,475.9,236.1z"/>
	<path fill="#9C5100" d="M504.1,173c-0.5,0.6-1,1.1-1.3,1.3c-0.4,0.3-0.8,1-0.8,1.6s-0.6,1.4-1.3,1.9c-1.6,1-5.2,0.4-4.7-0.8
		c0.4-1.1-1.3-2.5-1.8-1.6c-0.3,0.4-1.2,0.6-2.3,0.3c-1.5-0.3-1.8-0.2-1.8,0.8c0,0.4-0.3,0.8-0.8,1.3c1.1-0.1,2.1,0.2,3,1.4
		c1.4,2,2.3,1.8,2.3,1.8s-2,5.1,0,5.7c2.1,0.6,3,0.6,3.2,1.2c0.2,0.7-1.8,2.3-1.2,3c0.5,0.6,1.5,1.5,1.6,2c0.2,0.6-1.2,3-0.8,3.5
		c0.3,0.5,1.3,2.1,2.1,2.6c0.1,0.1,0.3,0.2,0.4,0.2c0.8,0,0.3,3.5,2.8,2.6c0.7-0.3,1.2-0.6,1.5-1c0.3-2.1,0.9-4.4,1.4-5.2
		c0.6-0.9,1.3-4.3,1.6-8.4l0.7-7l0.6-0.2C507.5,176.4,505.9,174.3,504.1,173z"/>
</g>
</svg>
