<?xml version="1.0" encoding="utf-8"?>
<!-- Generator: Adobe Illustrator 17.1.0, SVG Export Plug-In . SVG Version: 6.00 Build 0)  -->
<!DOCTYPE svg PUBLIC "-//W3C//DTD SVG 1.1//EN" "http://www.w3.org/Graphics/SVG/1.1/DTD/svg11.dtd">
<svg version="1.1" id="flag-icon-css-vi" xmlns="http://www.w3.org/2000/svg" xmlns:xlink="http://www.w3.org/1999/xlink" x="0px"
	 y="0px" viewBox="0 0 640 480" enable-background="new 0 0 640 480" xml:space="preserve">
<g>
	<path fill="none" d="M640,309.4v0.7C640.1,309.9,640.1,309.7,640,309.4z"/>
	<path fill="#FFFFFF" d="M44.4,197.3c-0.1,0.1-0.1,0.2-0.2,0.4c-0.4,0.9-0.7,2.5-0.7,3.5v1.9l-3-0.4c-1.6-0.2-3.2-0.9-3.6-1.4
		c-0.4-0.6-1-0.7-1.6-0.4c-0.5,0.3-2.3,0.6-4.1,0.6c-4.3,0-5.2,0.9-3.6,3.6c0.6,1.1,1.7,2.4,2.3,2.8c1.6,1.1,1.4,1.6-1.2,5.5
		c-1.5,2.1-2.8,3.4-3.6,3.4c-2.2,0.1-3.1,0.9-2.2,2.3c0.6,1,0.6,1.6-0.2,3.2c-1,2-3,2.7-3.8,1.3c-0.3-0.4-0.7-0.4-1.4,0.2
		c-0.7,0.6-1.5,0.7-2.3,0.4c-0.7-0.3-3.2-0.6-5.5-0.6c-4.6-0.1-5.7-0.9-4.3-3.2c1-1.6,0.9-1.8-0.4-1.8c-0.7,0-1.4-0.3-1.7-0.7
		c-0.6-1-2.1,1.2-2.1,3.3c0,1.1,0.7,2.5,2,3.8c1.1,1.2,2.7,2.9,3.4,3.7c2.2,2.4,3.9,3.7,4.7,3.7c0.4,0,1.2,1,1.7,2.2
		c0.6,1.5,1.4,2.3,2.4,2.6c0.9,0.2,2.1,0.5,2.6,0.6c0.6,0.1,2.5,1.7,4.3,3.4c2.6,2.4,3.7,3.1,5.4,3.1c1.1,0,2.2,0.3,2.4,0.7
		c0.2,0.4,1.2,0.4,2.2,0.2c1.3-0.3,2.1-0.1,3.1,1.1c0.7,0.7,1.2,1.8,1,2.2c-0.2,0.5,0.4,1.7,1.3,2.8c0.9,1.1,1.9,2.6,2.2,3.4
		c0.3,0.8,0.9,1.4,1.4,1.4c0.5,0,2,0.7,3.3,1.6c1.7,1.1,3.2,1.7,4.9,1.6c5.4-0.1,10.9-0.4,11.2-0.8c0.2-0.2,0.6-1.7,0.7-3.4
		c0.2-1.7,0.4-2.8,0.9-3.5L46,202C45.4,200.1,44.8,198.6,44.4,197.3z"/>
	<path fill="#FFFFFF" d="M100.6,196.4c0-0.7-0.1-1.4-0.3-1.9c-0.6,0.2-1.6,0.3-2.6,0.1c-1.7-0.3-2.6-0.1-4.7,1.6
		c-2.2,1.6-3.1,1.9-4.7,1.5c-2.5-0.6-7.4-0.6-11.2,0c-2.1,0.3-3.1,0.7-3.3,1.7c-0.6,1.9-2.5,2.6-4.6,1.6c-1-0.5-2.1-1.4-2.6-1.9
		c-0.6-0.7-1.9-1-4.8-1c-0.1,0-0.2,0-0.3,0c0.2,1.1,0.5,2.5,0.9,4.1l15.5,48.2c0.4-0.3,0.8-0.6,1.1-1c2.6-3.4,2.4-3.3,4.6-2.2
		c0.5,0.3,0.9,0.5,1.3,0.8l14.6-45.8C100.1,200.3,100.5,198.3,100.6,196.4z"/>
	<path fill="#FFFFFF" d="M267.9,291.3c1.2,1.2,1.9,1.2,2.4,0c0.7-1.7,0.4-2.1-1.4-2.1c-0.1,0-0.2,0-0.3,0c-0.7,0.5-1.3,1-1.8,1.5
		C267.2,290.8,267.6,291,267.9,291.3z"/>
	<path fill="#FFFFFF" d="M253.6,327.9c0-0.2,0-0.5,0-0.7C253.4,327.4,253.4,327.7,253.6,327.9z"/>
	<path fill="#FFFFFF" d="M270.9,152.3c0.7,0.1,1.4,0.2,2.1,0.4C272.1,151.8,271.2,151.7,270.9,152.3z"/>
	<path fill="#FFFFFF" d="M181.2,270.4c-0.2,2.9,0.3,5.8,1.1,8.5c1.2,0,2.7-0.2,4.5-0.3c0.1-4.1,0.2-6.4,1.9-8.8
		C186.7,269.9,184.2,270.1,181.2,270.4z"/>
	<path fill="#FFFFFF" d="M420.6,346.8l4.5-8.6h7.8c-1.6-1.3-2.7-3.3-3.4-7.1c-1.8-9-3.4-8.9-5-10c-2.2-1.5-6.2-2.8-9.3-4.6
		c-2.4-1.4-10.9-5.7-15.2-7c-0.1,1-0.3,2-0.7,3c0,0-0.7-2.6-4.4-3.7c0,0-6.6-1.4-9.2-10.9c0,0-1.7-6.3-12-12c0,0-3.5-1.3-6.7-3.5
		c-0.7,0.6-1.5,1.2-2.5,1.9c-0.2,0.2-0.4,0.3-0.6,0.4c2.1,3.1,2.8,5.3,2.7,7c29.2,26.8,28.7,36.9,25.4,40.6c0.3,0.6,1,1,2,1.3
		c1.2,0.3,2.4,1.2,2.9,2.2c0.5,1,2,2.1,3.7,2.8c1.6,0.7,2.9,1.4,2.9,1.7c0,0.8,2.7,0.5,4-0.4c1.6-1.2,2.9-1.2,2.9,0
		c0,0.5,0.4,0.9,0.9,0.9s1,1,1.2,2.6c0.2,1.5,0.7,3.6,1.1,4.7c0.3,0.8,0.4,1.3,0.7,1.6l3.3-3.8L420.6,346.8z"/>
	<path fill="#FFFFFF" d="M466,256l-9.4,40.4l30.3-57.7l-9.4-2.4l15.3-16.2c-1.3-0.2-2.4-0.6-2.7-0.8c-0.3-0.2-1.9-0.4-3.6-0.4
		c-2.3,0.1-3-0.2-3.2-1.1c-0.2-0.8-0.9-1.1-3.4-1.1c-1.7,0-3.4-0.3-3.6-0.7c-0.2-0.4-1.1,0-2.4,1.2c-0.2,0.2-0.4,0.4-0.7,0.5
		l1.3,43.1L466,256z"/>
	<path fill="#FFFFFF" d="M140,197.7c-2.3-0.5-4.2-1.4-4.2-2.5c0-0.4-1-1.2-2.2-1.6c-1.9-0.7-2.2-1.1-2.6-3.5
		c-0.2-1.5-0.9-3.4-1.6-4.2c-1.1-1.4-1.7-1.6-5.2-1.6c-4.1,0-8.5-1.7-10.2-3.9c-1.1-1.5-4.3-3.1-4.8-2.3c-0.2,0.3-0.7,0.4-1.2,0.2
		c-1.4-0.5-1.2,1.9,0.3,3.2c1.5,1.4,3.1,4.4,3.1,6c0,0.6-0.8,1.7-1.9,2.4c0,0-0.1,0.1-0.1,0.1h14.6c-2.7,1.1-5,2-6,4.1
		c-1.2,2.6-2.2,5.3-3.1,8l-16,48.8c1-0.6,1.8-1.1,2.2-1.1c0.7,0,2-0.5,2.8-1.2c1.7-1.2,6.6-2.1,7.2-1.2c0.5,0.9,2.1,0.7,2.1-0.2
		c0-1.2,2.7-2.3,5.7-2.3c2.2,0,2.9-0.4,5.4-2.8c1.6-1.6,3.4-2.8,4.1-2.8c0.8,0,2.7-1.2,5-2.9c-0.3-1-0.5-1.6-0.5-1.6
		c0.3,0.4,0.7,0.8,1,1.2c1.8-1.4,3.7-3.2,5.6-5.1c0.2-0.2,0.3-0.3,0.5-0.5c-13.7-6.5-15.4-20.7-15.4-20.7c0.8,0.1,12.9-1.7,18.8,9.7
		c3.5,6.8,7.2,9.8,9.6,11.1c0.4,0.1,0.9,0.1,1.5,0.1c0.3,0,0.6,0,1,0.1c-2.4-9.9-10.5-17.9-10.5-17.9
		C140.5,208.6,139.6,202.8,140,197.7z"/>
	<path fill="#FFFFFF" d="M640,309.4c-0.2-0.3-0.6-0.7-1.3-1.2c-0.9-0.7-2.1-2.1-2.5-2.9c-0.6-1.3-1.2-1.6-5.4-1.9
		c-12-0.9-16.5,0.3-22.6,6.4c-2.6,2.5-5.2,3.4-7.6,2.6c-1.1-0.4-2.7-0.7-3.6-0.7c-0.9,0-2.2-0.7-3.2-1.9c-2-2.2-2.9-2.3-4.5-0.6
		c-1.2,1.3-6.6,3.1-9.5,3.1c-0.9,0-2.8,0.6-4.1,1.2c-2.7,1.5-2.9,1.5-2.9,0.3c0-0.5,0.7-1.4,1.7-2c0.9-0.6,2.9-2.1,4.5-3.3
		c4.3-3.4,6.1-4.4,8.1-4.4c2.1,0,2.6-0.8,2.7-3.9c0.1-1.7,0.2-1.8,1.9-1.4c2.6,0.6,4.3,0.5,4.6-0.3c0.1-0.4,0.9-0.9,1.7-1.2
		c1.1-0.4,1.5-1.1,1.5-2.6c0-2.2-0.8-4.3-2.1-5.8h-23.1c3-1.4,5-3.4,5.5-4.2c0.5-0.8,0.8-1.9,0.8-3.4v-6c-0.4-0.7-0.5-1.5-0.5-3
		c0-1.5,0.1-2.5,0.5-3.2v-5c-0.1,0-0.3,0-0.4,0c-2.4,0-6.3,1.6-7.6,3.2c-0.6,0.7-2.1,1.4-3.3,1.6c-2.6,0.4-6.1-0.7-6.1-1.9
		c0-1-3.7-5.4-4.5-5.4c-1.1,0-6.1-4.4-6.8-5.9c-0.3-0.7-0.8-1.8-1.2-2.4c-0.3-0.6-0.8-1.5-1.1-2.1c-0.7-1.6-10.5-5.3-15.2-5.7
		c-2.6-0.2-4.3-0.7-4.5-1.2c-0.4-1,1.9-4,3.1-4c0.5,0,2.1-0.6,3.5-1.3c1.9-1,3.7-1.3,6.6-1.2c4.2,0.1,4.7-0.4,2.8-2.8
		c-1.9-2.4-7.1-2.2-11.9,0.2l-2.1,1.1l-2.2-2.7c-2-2.3-2.5-2.6-4.9-2.6c-1.8,0-3-0.4-3.7-1.2c-2.2-2.4-11.9-3.8-14.5-2.1
		c-0.8,0.5-1.4,1.2-1.4,1.7c0,0.8-0.8,1.4-1.7,1.7l-4,17.9l-7.1-7.2l-37.3,71.8c0.2,0.1,0.3,0.3,0.5,0.4l42.5-49.8l-8.7-4.6l39.2-26
		l-20.3,43.8L503,269l-42.7,50.4c1,1.7,1.8,3.8,2.3,6.7c1.3,7.3-2.5,8.8-3.4,9.2c0,0-0.7,5.2-5.8,3.8c0,0-0.3,5.4-9.4,2.8
		c-0.1,0-0.2-0.1-0.3-0.1l-0.6,2.3l0.3,0.5c1.6-1,3.5-0.4,3.7,1.5c0.3,2.9,1.6,3.3,4.4,1.4c1.4-0.9,3.2-1.6,4.1-1.7
		c0.9,0,1.6-0.3,1.6-0.7s0.9-0.9,2.1-1.1c1.6-0.2,2.3,0,3.3,1.1c0.7,0.7,1.9,1.6,2.7,1.9c1.1,0.3,1.3,0.7,1.1,1.8
		c-0.4,1.5,0.6,2.3,3.9,3.2c0.8,0.2,1.9,1.4,2.5,2.7c0.7,1.5,1.6,2.4,2.4,2.5c0.7,0.1,1.6,0.7,1.7,1.4c0.3,1,0.6,1.1,1.9,0.5
		c1.3-0.6,1.7-0.5,2.8,0.6c1.1,1.3,1.4,1.3,2.6,0.4c1.9-1.4,5.5-1.2,5.9,0.2c0.2,0.6,1.2,1.4,2.2,1.7c1.6,0.4,1.9,0.8,1.8,2.1
		c-0.1,1.1,0.4,1.9,1.7,2.9c1.8,1.4,1.9,1.7,1.7,5c-0.2,3.3-0.1,3.6,1.2,3.7c0.8,0.1,1.5-0.2,1.7-0.7c0.2-0.5,1.3-1.2,2.5-1.6
		c1.2-0.4,2.1-1,2.1-1.3s1-0.6,2.2-0.6c1.2,0,2.7-0.3,3.4-0.6c1.7-0.9,1.5-3.1-0.4-3.7c-0.9-0.3-1.9-1.3-2.2-2.1
		c-0.3-0.9-1.2-1.9-1.9-2.2c-1.7-0.9-1.5-4,0.4-4.2c0.7-0.1,1.7-1.1,2.3-2.4c1.3-2.7,1.4-2.6-0.6-2.9c-1.1-0.2-2.6,0.1-4.1,1
		c-1.8,1-2.5,1.1-3.1,0.6c-0.6-0.6-0.3-1.2,1-2.6c1.8-1.9,1.9-3.6,0-5.1c-0.7-0.6-0.7-1-0.2-1.7c1.1-1.2-0.2-2.4-1.7-1.6
		c-1.4,0.7-5.7,0.2-6.2-0.6c-0.2-0.3-1.4-0.6-2.6-0.6c-2.1,0-2.4-0.3-3.4-2.4c-1.4-3.1-1.4-5.9,0-7.1c1.4-1.2,3.2-1.3,7-0.2
		c3.2,0.9,11.6,0.9,15.3-0.1c1.6-0.4,3.2-1.5,4.6-3.1c2-2.3,2.2-2.4,6.4-2.4c4.1,0,4.3-0.1,6.4-2.3c1.2-1.2,2.4-2.3,2.7-2.3
		c0.3,0,0.9-0.7,1.2-1.7l0.6-1.7l2.3,2.4c2.1,2.2,3.2,4.8,1.7,3.9c-1.2-0.7-3.1,0.4-3.1,1.9c0,0.8,0.3,1.7,0.6,1.9
		c0.4,0.2,0.6,1.3,0.6,2.4c0,1.4,0.6,2.6,1.8,3.7c2.1,2,3.2,1.7,3.2-0.7c0-2.3,1.7-3.2,5.7-3.3c3.1,0,3.7-0.2,4.6-1.6
		c1.2-1.9,5.2-2.3,5.2-0.6c0,0.7,0.4,0.9,1.4,0.6c0.7-0.2,1.7-0.4,2.1-0.4c0.4,0,1.2-0.9,1.7-2.1c1.1-2.7,1.9-3.1,3.8-1.9
		c1.2,0.8,1.7,0.9,2.5,0.2c0.7-0.6,1.2-0.6,1.7-0.1c0.7,0.6,1.1,0.7,2.4,0.7c0.5,0,0.6,0.2,0,0.8c-1,1.2-0.4,1.6,3.1,1.2
		c2.6-0.2,3.2-0.1,3.6,0.8c0.2,0.8-0.2,1.6-1.6,2.9c-1.9,1.7-1.9,1.9-1.1,3.5c0.5,0.9,1.1,2.2,1.3,2.9c0.4,1.2,0.4,1.2,1.2,0.1
		c0.4-0.6,1.2-1.1,1.8-1.1s1.4-0.6,1.7-1.4c0.7-1.3,0.7-1.3,1.6-0.2c0.5,0.6,0.9,1.7,0.9,2.3c0,1.4,1.8,2.2,2.5,1.1
		c0.4-0.7,0.7-0.7,1.4-0.1c0.6,0.4,1.6,0.6,2.5,0.4c2.1-0.6,3.6,1.1,3.6,3.8c0,1.4,0.4,2.3,0.9,2.5c0.5,0.2,0.9,0.7,0.9,1.2
		c0,1.3,1.1,1.7,3.1,1.2c1.2-0.2,1.9-0.8,1.9-1.6c0-0.7,0.7-1.4,1.9-1.8c1.1-0.3,1.9-0.9,1.9-1.3c0-1.2-2-3.7-2.9-3.7
		c-1.4,0-2.5-3-1.6-4.4c0.4-0.6,0.7-1.6,0.7-2.1c0-1,2.3-2.9,3.6-2.9c0.4,0,0.8,0.6,0.8,1.2c0,1.7,2.1,1.6,5.2-0.1
		c2.2-1.1,2.5-1.2,3-0.3c0.3,0.5,1,1.4,1.6,2c0.6,0.6,1.1,1.6,1.1,2.1c0,0.6,0.7,1.1,1.9,1.2c1.1,0.1,2.4,0.4,3.1,0.7
		c1.7,0.8,6.8-0.7,7.1-2.1c0.2-0.7-0.2-1-1.6-1c-1,0-2.2-0.4-2.6-0.9c-0.4-0.5-1.2-0.9-1.6-0.9c-1.2,0-1.1-1.2,0.1-3
		c0.9-1.4,0.9-1.5-0.3-1.8c-0.7-0.2-1.4-0.9-1.6-1.5c-0.2-0.6-0.7-1.2-1.1-1.3c-3.2-0.4-4.8-0.5-6.9-0.5c-2.3,0.1-2.4,0-2.2-1.9
		c0.2-1.7-0.1-2-1.2-2.1c-1.7-0.1-1.8-0.2-2.2-2.6c-0.3-1.7-0.1-2.2,1.5-3.6c1.1-0.9,2.4-1.6,3-1.6c0.6,0,3-0.9,5.4-2.1
		c3.9-1.9,4.7-2,7.5-1.6c1.7,0.2,3.9,0.9,4.8,1.4c2.3,1.3,10.1,1.2,11.2-0.1c0.1-0.2,0.3-0.3,0.3-0.5V309.4z"/>
	<path fill="#FFFFFF" d="M267.6,342.1c0,0-8.9,2.4-9-7.5c-1.6-0.1-2.1,0.1-4.2,2.1c-1.8,1.6-2.2,1.7-2.4,0.9
		c-0.1-0.6-0.6-1.1-0.9-1.1c-1.2,0.1-2.9,1.6-2.9,2.6c0,0.6-0.4,1.3-0.9,1.7c-2.4,2,0,3.9,4.6,3.7c4.7-0.2,5.1-0.1,5.1,1.2
		c0,1.3,2.2,3.2,3.6,3.2c0.7,0,0.7-0.2,0.1-1c-0.7-0.9-0.6-1.2,1-2.5c1.1-0.8,2.1-1.5,2.4-1.5c0.9,0,1.2,2,0.5,3.4
		c-1.2,2.2-4.5,3.1-9.5,2.6c-3.7-0.4-4.3-0.3-4.3,0.6c0,0.6,0.5,1,1.1,1c1.4,0,0.3,1.1-1.3,1.4c-1,0.1-1.2,0.8-1.4,3.7l-0.2,3.6h2
		c1.4,0,2.7,0.6,4,1.8c1.6,1.5,2.5,1.7,5,1.7c1.9-0.1,3.4-0.4,4.1-1.2c0.6-0.6,1.6-1.1,2.2-1.1c2.1,0,5.1-4.6,5.1-7.8
		c0-0.8,0.4-1.9,0.8-2.3c0.1-0.1,0.1-0.1,0.2-0.2C269.9,350.7,267,348.7,267.6,342.1z"/>
	<path fill="#FFFFFF" d="M226.5,118.5c0.6-1.3,0.5-2.1-0.4-4.2c-1.2-2.7-2.4-3.5-7.7-5.2c-2.1-0.7-3.7-1.7-4.6-2.9
		c-1.5-2-4.2-2.4-5.4-0.9c-0.9,1.1,0.9,6.7,3,9.7c1,1.4,1.4,2.1,1.1,2.7c5.6,2,10,3.7,13.3,5C225.8,121,226.1,119.3,226.5,118.5z"/>
	<path fill="#FFFFFF" d="M260.3,301.2c0.1,0,0.2-0.1,0.3-0.1c3.9-2.1,4.7-3.2,4.4-6.9c-0.1-0.6-0.1-1.2-0.1-1.6
		c-2.8,3.1-3.4,5.4-3.4,5.4C261.1,299.1,260.7,300.2,260.3,301.2z"/>
	<path fill="#FFFFFF" d="M460.4,204.4c-2.3,7.3-10.9,5.1-10.9,5.1c2.2,0.6,4.7,5.9,0.6,11.3c-4,5.4-12,3.8-12,3.8s0,3.7-4.5,6.2
		c-4.5,2.5-9.9-0.6-9.9-0.6c-0.6,1.9-1.6,5.1-7.8,6.2c-6.2,1.1-9.3-2.6-9.3-2.6c-4.6,4.5-9.7,3.6-13.1,2.2c-0.9,2.7-2,5.4-3.1,8
		c2.1,4.2,6.4,10.7,15,18c0,0,11.6,10.2,11.3,21.9c-0.3,12,2.1,13.3,6.6,17.4c0,0-1.1,0.1-2.8-0.1c2.8,3.8,8.4,10.2,14.8,10.4
		c0,0,5.7-0.7,11.2-0.3l13.4-56.8l-9.8,0.2l18.9-34.6c-2.7,0.7-3,0.7-4.4-0.7c-1.8-1.7-2-3.2-0.6-4.4c1.3-1.1,0.9-8.6-0.6-9.4
		c-0.6-0.3-0.9-1.5-0.9-3.1c0-2.1-0.6-3.3-2.4-4.7C460.8,199.3,461.3,201.5,460.4,204.4z"/>
	<path fill="#FFFFFF" d="M241.9,261.9c10.9-9.3,14.9-17.2,16.2-20.8c-0.8-2-1.5-4.1-2.2-6.2c-3,1.8-9.5,4.4-15.2-1.1
		c0,0-3.1,3.7-9.3,2.6c-6.2-1.1-7.2-4.4-7.8-6.2c0,0-5.4,3.1-9.9,0.6c-4.5-2.5-4.5-6.2-4.5-6.2s-7.9,1.6-12-3.8
		c-4-5.3-1.6-10.6,0.6-11.3c0,0-8.5,2.2-10.9-5.1c-2-6.2,2.5-9.5,2.5-9.5s-18-0.1-25.4-5.7c0,0-6.1-3.9-2.5-7.9c0,0-4.4-0.7-9.3-2.3
		c0.1,0.5,0.3,1.2,0.6,1.9c0.6,1.7,0.5,2.2-0.7,3.9c-1.1,1.5-1.9,1.9-3.4,1.9c-2.1,0-4.1,1.4-2.9,2.1c0.1,0.1,0.3,0.4,0.5,0.8
		c7.4,6.1,10.6,14.2,9.8,23.7c-0.8,7.7,1.5,14.6,2.9,18.1c0.6,0.2,1.2,0.4,1.8,0.6c0.6-1.7,1.2-4.4,0.8-7.2c-0.6-4.5-2-10.4,1-15.4
		c3.1-5,3.4-10.5,3.4-10.5c11.9,17,1.9,28.9-0.6,33c-0.5,0.8-0.8,1.4-1.1,2.1c0.1,0.1,0.2,0.1,0.4,0.1c0.7,0,3.3,1.7,4.8,3.1
		c0.8-4.4,3-6.2,5.7-8.1c3.6-2.6,4-7.3,4-7.3c3.5,10.2,3.1,15.3-3.5,22.6c-0.4,0.5-0.8,0.9-1.1,1.4c4.7,0.2,7.8,0.3,9.9,0.6
		c2.4-3.9,2.3-8.4,2.3-8.4c2,4.4,3.2,7.7,3.7,10.3c3.3,1.7,7.1,4.3,8.9,6.3c1.6,1.7,2.1,3.9,0.9,3.9c-0.3,0-0.9,0.9-1.3,1.9
		c-0.1,0.4-0.4,0.9-0.6,1.3c0.4,1.1,0.7,2.2,0.9,3.3c1.2,0,2.7,0.4,2.8,0.9c0.1,0.5-0.6,0.7-2.4,0.7c-0.1,0-0.1,0-0.2,0
		c0.6,4.6-0.2,8.2-1.6,11c1-0.1,1.8-0.1,2.5-0.2l4.8-0.4l0.1,0.1c0.9-2.6,1.1-4.8,1.1-4.8c2.1,5.3,3,9.5,2.7,13.1
		c1,2.2,2,4.7,2.2,5.5c0.2,0.9,1,2.2,1.7,2.8c0.2,0.2,0.4,0.4,0.6,0.5c1.8-2.1,3-4.2,3-4.2c0,0.1,0,0.2,0.1,0.3c0-0.1,0-0.1,0-0.2
		c0-1.4,0.4-2,1.7-2.6c3.2-1.4,3.8-2.4,3.4-6.7l-0.4-3.8l2.3-0.9c2-0.9,6-1.5,9-1.5C235.7,267.3,241.9,261.9,241.9,261.9z"/>
	<path fill="#FFFFFF" d="M238.8,154.5c0.8,1,2.1,1.6,4.4,2.1c3.2,0.7,4.7,0.5,3.9-0.6c-0.3-0.4-0.9-2.4-1.4-4.4
		c-0.7-3.4-0.7-3.7,0.6-6.6s1.4-3.2,0.5-5.2c-0.6-1.2-1.6-2.6-2.4-3c-0.5-0.3-1.3-0.5-2.3-0.6C244,142.6,242.3,149.9,238.8,154.5z"
		/>
	<path fill="#369443" d="M156,213.4c0.9-9.5-2.3-17.6-9.8-23.7c0.7,1.8,1.5,6.2,1.1,7.3c-0.5,1.4-4.2,1.4-7.3,0.7
		c-0.4,5.1,0.5,11,5.2,15c0,0,8.1,8,10.5,17.9c1,0.2,2.1,0.5,3,0.8c0.1,0,0.1,0,0.2,0.1C157.5,228,155.2,221.1,156,213.4z"/>
	<path fill="#369443" d="M179,221.9c0,0-0.4,4.7-4,7.3c-2.6,1.8-4.8,3.7-5.7,8.1c0.3,0.2,0.5,0.5,0.7,0.7c0.4,0.6,0.7,1.8,0.5,3.1
		c-0.2,1.2-0.4,2.7-0.5,3.4c-0.2,1.1,0.2,1.2,3.6,1.4c0.3,0,0.5,0,0.8,0c0.3-0.5,0.7-1,1.1-1.4C182.1,237.2,182.5,232.1,179,221.9z"
		/>
	<path fill="#369443" d="M206.2,272.5c0,0-0.2,2.1-1.1,4.8l0.7,1.7c0.4,1,1.7,3.7,2.8,6.2c0.1,0.2,0.2,0.3,0.2,0.5
		C209.2,282,208.3,277.8,206.2,272.5z"/>
	<path fill="#369443" d="M165.9,199c0,0-0.3,5.5-3.4,10.5c-3,5-1.6,10.9-1,15.4c0.4,2.8-0.2,5.5-0.8,7.2c0.6,0.2,1.1,0.3,1.4,0.3
		c0.6,0,1.2,0.4,1.5,0.9c0.1,0.3,0.4,0.6,0.6,0.8c0.3-0.7,0.6-1.4,1.1-2.1C167.8,227.9,177.8,216,165.9,199z"/>
	<path fill="#369443" d="M213.3,294.5c0.7,0.5,0.9,0.3,1.9-0.9c0.6-0.8,1.1-2,1.2-3c0-0.1,0-0.2-0.1-0.3
		C216.3,290.3,215.1,292.3,213.3,294.5z"/>
	<path fill="#369443" d="M133.1,234.7c0,0,0.2,0.6,0.5,1.6c0.2-0.1,0.4-0.3,0.5-0.4C133.8,235.5,133.4,235.1,133.1,234.7z"/>
	<path fill="#369443" d="M184.3,246.5c2,0.3,3.4,0.6,4.7,1.2c0.4,0.2,0.8,0.4,1.3,0.6c-0.5-2.6-1.6-5.9-3.7-10.3
		C186.6,238.1,186.8,242.7,184.3,246.5z"/>
	<path fill="#369443" d="M199.3,266.7c-1.8,0-2.5,0.3-2.7,1.2c-0.2,0.8-1.7,1.2-8,1.9c-1.7,2.4-1.8,4.8-1.9,8.8c0.1,0,0.2,0,0.3,0
		c3.5-0.3,7.7-0.6,10.7-0.9C199.1,274.9,199.9,271.3,199.3,266.7z"/>
	<path fill="#369443" d="M181.2,270.4c-1,0.1-2.1,0.2-3.2,0.3c-1.9,0.1-1.9,0.2-1.7,3.2c0.3,4.3,0.7,5.2,6,5
		C181.5,276.2,181,273.2,181.2,270.4z"/>
	<path fill="#369443" d="M143.6,219.3c-5.9-11.4-18-9.6-18.8-9.7c0,0,1.6,14.1,15.4,20.7c2.4-2.4,2.7-2.5,3.9-1.7
		c0.8,0.5,2.9,0.9,4.7,1c1.7,0,3.4,0.2,3.7,0.5c0.1,0.1,0.4,0.2,0.8,0.3C150.8,229.1,147.1,226.1,143.6,219.3z"/>
	<path fill="#369443" d="M197,263c-0.6,0.3-1.2,1.2-1.2,1.8c0,1.3,0.9,1.7,1.6,0.6c0.2-0.3,0.9-0.5,1.7-0.4c-0.2-1-0.5-2.1-0.9-3.3
		C197.8,262.3,197.3,262.8,197,263z"/>
	<path fill="#F4C53D" d="M321.8,141.7c-2.1-3.2-4.5-5.1-7.9-6c-1.1-0.3-2.5-1-3.1-1.6c-1.4-1.4-2.7-1.2-2.7,0.4c0,1,0.6,1.8,2.1,2.5
		c3.9,2.1,5.9,3.9,8,7.2c0.5,0.8,1.1,1.6,1.7,2.5c1.5-0.7,2.9-1.4,4.4-2.2C323.3,143.7,322.6,142.8,321.8,141.7z"/>
	<path fill="#F4C53D" d="M164,189.2c7.4,5.6,25.4,5.7,25.4,5.7s-4.4,3.2-2.5,9.5c2.3,7.3,10.9,5.1,10.9,5.1
		c-2.2,0.6-4.7,5.9-0.6,11.3c4,5.4,12,3.8,12,3.8s0,3.7,4.5,6.2c4.5,2.5,9.9-0.6,9.9-0.6c0.6,1.9,1.6,5.1,7.8,6.2
		c6.2,1.1,9.3-2.6,9.3-2.6c5.7,5.5,12.2,2.9,15.2,1.1c-1.6-4.8-2.8-9.8-3.7-15c-10.6,3.4-13.7-3.5-13.7-3.5c-4.7,1.6-7.9,0-7.9,0
		c-6.4-2.5-4.9-9.6-4.9-9.6s-3.6,3.1-8,1.2c-5.6-2.5-3.6-9.1-3.6-9.1c-7.6,0.2-10.7-4-10.7-4c-4.2-5.9,2.9-9.5,2.9-9.5
		c-2.8,0.6-6.8,0.4-6.8,0.4c-7.4-0.5-15-3.7-18.2-9.5c-3.2-5.7,3.2-5.9,3.2-5.9c-1.7-0.3-3.1-0.8-4.3-1.3c-1.8,1.5-6.1,1.9-8.9,0.5
		c-0.9-0.5-2.1-0.9-2.6-0.9s-0.9-0.4-1.2-0.9c-0.5-1.3-1.6-1.2-3.2,0.3l-1.4,1.2l-2.9-1.6c-2.4-1.2-2.9-1.4-2.9-0.6
		c0,0.5-0.9,1.7-1.9,2.6c-1.6,1.4-1.9,1.9-1.6,3.6c0.3,1.4,0.1,2.2-0.6,2.8c-0.8,0.7-1.1,1.5-0.8,2.8c4.8,1.6,9.3,2.3,9.3,2.3
		C157.8,185.4,164,189.2,164,189.2z"/>
	<path fill="#F4C53D" d="M243.6,302.5c-4.3,4.7-7.2,4.5-7.2,4.5c1.4-0.9,1.6-11.3,1.6-11.3c-1.3,1.8-3,3-4.7,3.8
		c-0.4,0.9-0.6,1.6-0.6,1.8c0,1.9,2.9,7.3,3.9,7.3c0.6,0,1.2,0.2,1.4,0.6c0.6,0.9,5.6,0,6.5-1.1c0.5-0.7,0.7-2.3,0.4-5.1
		c0-0.5-0.1-1-0.1-1.4C244,302.1,243.6,302.5,243.6,302.5z"/>
	<path fill="#F4C53D" d="M214.5,137.5c0,1.2,0.5,1.9,1.9,2.4c1.1,0.4,2.3,1.7,2.9,2.8c1.7,3.6,4.9,5.2,10.9,5.7
		c6.4,0.4,7.2,0.8,7.7,3.6c0.2,1,0.5,1.8,1,2.4c3.5-4.6,5.2-11.9,3.3-18.2c-2.5-0.3-6.1-0.3-8.7,0.2c-2.2,0.4-2.7,0.2-2.7-0.5
		c0-1.6-5-6.6-6.5-6.6c-0.7,0.1-2.3,0.6-3.5,1.2c-1.2,0.7-3.2,1.5-4.6,1.9c-2.1,0.6-2.4,0.9-2.1,2.1
		C214.3,135.3,214.5,136.7,214.5,137.5z"/>
	<path fill="#F4C53D" d="M215.5,124.8c2.2-0.2,4.2-0.1,5.4,0.4c4.9,2.1,4.8,2.1,4.8-1.7c0-0.3,0-0.5,0-0.8c-3.3-1.4-7.7-3.1-13.3-5
		c-0.2,0.5-0.9,0.9-2,1.3c-1.2,0.5-2.2,1.2-2.2,1.4c0,0.3,0.9,1.5,1.9,2.6C212,125.1,212.2,125.1,215.5,124.8z"/>
	<path fill="#F4C53D" d="M268.5,260.9c-3.9-6-7.5-12.7-10.4-19.9c-1.3,3.6-5.3,11.5-16.2,20.8c0,0-6.2,5.4-9.4,13
		c1.2,0,2.2,0,2.8,0.2c1.7,0.4,4.1,3.6,4.1,5.5c0,0.6-0.6,1.6-1.2,2.2c-1.1,1-1.2,1.7-1,4.7c0.2,3.2,0,4.1-2.2,8.2
		c-0.7,1.4-1.4,2.7-1.8,3.7c1.7-0.8,3.4-2,4.7-3.8c0,0-0.2,10.4-1.6,11.3c0,0,3,0.2,7.2-4.5c0,0,0.4-0.5,1.1-1.1
		c-0.3-4.2-0.2-4.5,0.2-6.9c0.2-1.2,0.6-2.5,0.9-2.7s0.6-1.6,0.6-3.1c0-2.4,0.2-2.7,1.4-2.7c0.7,0,1.9-0.5,2.6-1.1
		c0.8-0.6,0.6-0.3-0.4,1c-2.2,2.7-2.7,5.4-1.4,8.4c0.5,1.3,1.2,2.4,1.6,2.4c0.4,0,0.9,0.7,1.2,1.6c0.4,1.1,1.1,1.6,2.2,1.6
		c0.9,0,1.9,0.6,2.3,1.2c1,1.5,1.7,1.5,4.5,0.1c0.4-0.9,0.8-2,1.1-3.2c0,0,0.6-2.3,3.4-5.4c0-1.3,0.2-1.6,1-1.8
		c0.3-0.1,0.6-0.1,0.9,0c0.6-0.5,1.2-1,1.8-1.5c-0.9,0-1.7-0.3-1.9-0.6c-0.6-0.9,3.3-3.8,5-3.8s2-1.1,0.5-2.1
		c-0.9-0.7-0.8-1,0.5-3.1c1.6-2.4,2.6-2.9,3.2-1.4c0.2,0.5,0.7,0.9,1.2,0.9c0.5,0,1.1,0.9,1.3,2l0.4,2.1l3.2-3.7
		c0.2-0.2,0.4-0.5,0.6-0.7c-3.7-3.9-7.3-8.1-10.6-12.8C270.8,264.5,269.6,262.7,268.5,260.9z"/>
	<path fill="#F4C53D" d="M181.2,176.3c3.2,5.7,10.8,8.9,18.2,9.5c0,0,4,0.2,6.8-0.4c0,0-7.1,3.5-2.9,9.5c0,0,3.1,4.2,10.7,4
		c0,0-2,6.6,3.6,9.1c4.4,2,8-1.2,8-1.2s-1.5,7.1,4.9,9.6c0,0,3.2,1.6,7.9,0c0,0,3.1,6.9,13.7,3.5c-1-6-1.6-12.2-1.6-18.8v-31.6
		c-1.4-0.9-2.3-0.3-3,1.7c-1.1,3.2-3.2,3.2-5.1,0.1c-1.6-2.9-4-2.6-7.6,1c-2.2,2.2-3.5,3-5.2,3.1c-2.5,0.2-7.5-1.3-8.6-2.7
		c-0.4-0.4-1.4-0.8-2.2-0.8s-2.3-0.6-3.2-1.2c-0.9-0.7-2.1-1.2-2.7-1.2c-0.6,0-2-1.1-3.1-2.4l-2.1-2.3l-1.6,1.7
		c-1.4,1.6-2.1,1.8-5.2,1.9c-2.3,0.1-4.1-0.2-4.7-0.7c-1.1-0.9-5.7-2-8.8-2.1c-1,0-2.1-0.4-2.3-0.7c-0.7-1.1-3.9,1.1-4.1,3
		c-0.1,0.6-0.4,1-0.9,1.4c1.2,0.5,2.7,0.9,4.3,1.3C184.4,170.4,178,170.6,181.2,176.3z"/>
	<path fill="#F4C53D" d="M255.9,328.1c2.5-0.4,5.4,1.2,5.4,3.1c0,1.9-1.2,3.7-2.4,3.6c-0.1,0-0.2,0-0.3,0c0.1,9.8,9,7.5,9,7.5
		c-0.6,6.6,2.3,8.6,4.6,9.1c0.3-0.5,0.7-1.4,0.7-2.2c0.4-5.2,1.4-11.4,1.9-12c0.4-0.4,0.9-1.7,1.3-2.9c0.6-1.7,0.5-2.5-0.5-4.6
		c-1-2.1-1.1-2.6-0.3-3.4c0.4-0.5,1.7-0.9,2.7-0.9c1.3,0,2.2-0.5,2.9-1.6c0.6-0.9,1.4-1.6,1.9-1.6c0.4,0,1.2-0.4,1.6-1
		c0.5-0.5,1.6-0.9,2.4-0.7c1.4,0.2,1.6,0.5,1.8,2.7c0.2,2.5,0.3,2.6,2.4,2.9c1.2,0.1,2.1-0.1,2.2-0.4c0-0.3,0-2.1-0.1-3.9
		c-0.1-3,0-3.2,1.4-3.2c0.9,0,1.7,0.5,2.1,1.4c0.4,0.8,1.5,1.8,2.5,2.3c2.4,1.1,2.8,1.7,2.8,4.6c0,1.4,0.3,2.4,0.8,2.6
		c0.4,0.1,1.7,0.6,2.9,0.9c4.2,1.6,4.2,1.6,4.5-0.6c0.2-1.1,0.1-2.1-0.2-2.2c-0.3-0.2-0.4-0.8-0.2-1.4c0.2-0.7-0.2-1.5-1.5-2.3
		c-1.7-1.2-1.9-1.4-1.5-4.1c0.4-2.7,0.3-2.9-1.9-4c-1.7-0.9-2.5-2-2.1-3.1c-1.6-0.7-3.1-2-3.6-4.1c0,0-5.1-0.5-6.1-5.4
		c0,0-4.5-0.5-6.2-3.7c-1,1-2.3,2-3.6,2.7c-1.7,0.9-2.2,1.7-2.6,3.4c-0.4,2.9-0.9,3.5-3.1,4c-1.1,0.2-2.1,0.9-2.3,1.4
		c-0.2,0.6-1.2,2.1-2.2,3.4c-1.3,1.7-2.3,2.4-3.6,2.4c-0.9,0-1.9,0.2-2.1,0.6c-0.2,0.3-0.9,0.6-1.6,0.6c-0.6,0-2.1,1-3.4,2.2
		c-2.2,2.2-2.3,2.2-3.2,1.1c-0.5-0.7-0.9-0.9-0.9-0.4c0,0.4-0.6,0.8-1.2,0.8c-1.2,0-1.9,1.1-1.9,3.1c0,0.6-0.4,1.4-0.9,1.9
		c-0.2,0.2-0.4,0.4-0.5,0.5c0,0.2,0,0.5,0,0.7C253.9,328.2,254.7,328.3,255.9,328.1z"/>
	<path fill="#F4C53D" d="M293,303.2c1,4.9,6.1,5.4,6.1,5.4c0.4,2.2,2,3.4,3.6,4.1c0.1-0.4,0.4-0.8,0.8-1.1c0.7-0.6,0.9-1.4,0.6-3.4
		c-0.2-1.9-0.1-2.8,0.6-3.4c1.9-1.6-0.9-5.6-4-5.7c-1.2,0-1.8-0.6-2.6-2.5c-1-2.4-2.6-3.2-3.9-2.1c-0.2,0.3-1.5,0.5-2.7,0.5
		c-1.8,0-2.3,0.2-2.5,1.2c-0.2,0.8-1,2-2.1,3.1C288.4,302.7,293,303.2,293,303.2z"/>
	<path fill="#F4C53D" d="M429.5,207.9c-4.4,2-8-1.2-8-1.2s1.5,7.1-4.9,9.6c0,0-3.2,1.6-7.9,0c0,0-2.6,5.9-11.4,4.1
		c-1,5.4-2.3,10.6-4,15.4c3.4,1.4,8.5,2.3,13.1-2.2c0,0,3.1,3.7,9.3,2.6c6.2-1.1,7.2-4.4,7.8-6.2c0,0,5.4,3.1,9.9,0.6
		c4.5-2.5,4.5-6.2,4.5-6.2s7.9,1.6,12-3.8c4-5.3,1.6-10.6-0.6-11.3c0,0,8.5,2.2,10.9-5.1c0.9-2.9,0.4-5.1-0.3-6.7
		c-0.6-0.5-1.3-0.9-2.3-1.4c-2.6-1.5-4.6-1.8-3.8-0.6c0.3,0.4,0.1,0.6-0.6,0.3c-0.6-0.2-1.7,0.2-2.5,0.9c-0.9,0.6-2.3,1.2-3.3,1.2
		c-1.6,0-1.6,0.1,0.9,1.9c1.4,1,2.7,1.9,3,1.9c0.5,0,4.2,3.7,3.9,4c-2.3,2-5.2,2-7.3,0.1c-1.3-1.2-1.5-1.7-0.9-2.3
		c0.4-0.4,0.7-1.2,0.7-1.8c0-0.8-0.5-0.9-3.1-0.7c-3.5,0.3-5.5-0.6-5.8-2.5c0-0.2-0.1-0.4-0.1-0.5c-1.5,0.5-3.4,0.9-5.8,0.8
		C433.2,198.8,435.1,205.4,429.5,207.9z"/>
	<path fill="#F4C53D" d="M452.3,315l-0.6,2.7l-5.9-4.2l0.6-2.4c-5.5-0.4-11.2,0.3-11.2,0.3c-6.4-0.1-12-6.6-14.8-10.4
		c-3.1-0.3-8.1-1.4-11.1-5.4c0,0,0.2,10.4,1.6,11.3c0,0-3,0.2-7.2-4.5c0,0-2.6-2.7-4.9-3.7c0,0,2,5.2,1.3,10.8
		c4.4,1.2,12.8,5.6,15.2,7c3,1.7,7.1,3.1,9.3,4.6c1.6,1.1,3.3,0.9,5,10c0.7,3.7,1.8,5.8,3.4,7.1h2.9l5.5-10.6c0,0,4,0,6,3.2h0l0,0.1
		c0.6,0.8,1,1.9,0.9,3l-3.6,4.7c0,0,0,0,0,0l-0.8,3.2c0.1,0,0.2,0.1,0.3,0.1c9.1,2.6,9.4-2.8,9.4-2.8c5.1,1.4,5.8-3.8,5.8-3.8
		c0.9-0.3,4.6-1.9,3.4-9.2c-0.5-2.9-1.3-5-2.3-6.7l-0.3,0.4l-4.6-5.2l0.3-0.4c-0.2-0.1-0.3-0.3-0.5-0.4l-1.2,2.2L452.3,315z"/>
	<path fill="#F4C53D" d="M399.1,201c0,6.8-0.6,13.3-1.7,19.5c8.7,1.8,11.4-4.1,11.4-4.1c4.7,1.6,7.9,0,7.9,0
		c6.4-2.5,4.9-9.6,4.9-9.6s3.6,3.1,8,1.2c5.6-2.5,3.6-9.1,3.6-9.1c2.3,0.1,4.3-0.3,5.8-0.8c-0.3-0.7-0.9-1.1-2-1.5
		c-1.1-0.3-2.1-0.9-2.1-1.3c0-0.9-1.4-1.6-3.1-1.6c-0.6,0-1.2-0.6-1.4-1.2c-0.2-0.9-0.9-1.2-2.2-1.2c-1.2,0-2.1-0.4-2.4-0.9
		c-0.6-1.5-4.5-2.9-8.6-3.1c-2.1-0.1-6-0.5-8.7-0.8c-3.7-0.5-6.8-0.8-9.2-0.9L399.1,201L399.1,201z"/>
	<path fill="#F4C53D" d="M385.8,298c2.6,9.6,9.2,10.9,9.2,10.9c3.7,1.1,4.4,3.7,4.4,3.7c0.3-1,0.5-2,0.7-3
		c0.7-5.6-1.3-10.8-1.3-10.8c2.4,1,4.9,3.7,4.9,3.7c4.3,4.7,7.2,4.5,7.2,4.5c-1.4-0.9-1.6-11.3-1.6-11.3c3,4.1,8,5.2,11.1,5.4
		c1.7,0.1,2.8,0.1,2.8,0.1c-4.5-4-6.9-5.4-6.6-17.4c0.3-11.7-11.3-21.9-11.3-21.9c-8.6-7.3-12.9-13.8-15-18
		c-2.6,6-5.6,11.5-8.9,16.7c-1.1,1.8-2.4,3.6-3.6,5.3c-2.3,3.1-4.6,6.1-7,8.8c0.3,0.6,0.5,1.4,0.7,2.3c0.3,1.6,0.1,2-4.4,5.5
		c3.1,2.2,6.7,3.5,6.7,3.5C384.1,291.6,385.8,298,385.8,298z"/>
	<path fill="#F4C53D" d="M366.7,291.8c-0.3,4.3-5.6,4.7-5.6,4.7c0,0.6,0,1-0.1,1.5c0.1,0.5,0,1-0.3,1.7c-1.1,2.9,0.1,4.9,3.4,5.7
		c2.1,0.5,2.8,1,2.8,1.9c0,0.6-0.2,1.2-0.6,1.5c-0.4,0.2-0.4,0.9,0,1.9c1.1,2.7,0.7,5.4-0.9,7.1c-1.6,1.8-3.7,6.7-3.2,7.6
		c0.2,0.3,1.2,0.1,2.3-0.4c1.3-0.7,3.8-1.1,7.3-1.1l5.4-0.1l0.2,1.7c0.1,1.1,0.6,1.7,1.2,1.7c0.6,0,2.3,0.7,3.8,1.6
		c1.9,1.1,3.6,1.6,6,1.6c3,0,3.4,0.1,3.6,1.4c0,0.2,0.1,0.5,0.2,0.7C395.3,328.7,395.8,318.6,366.7,291.8z"/>
	<path fill="#F4C53D" d="M330.5,306.9C330.5,306.9,330.5,306.9,330.5,306.9L330.5,306.9c-0.1,0.1-0.2,0.1-0.3,0.1
		c0.5,1.7,0.9,3.6,0.9,5.6c0,1.2-0.1,2.4-0.3,3.6c0.6,0.5,1.4-0.3,2.6-2.3c0.9-1.6,2.1-2.9,2.6-2.9c0.5,0,0.9-0.2,0.9-0.6
		c0-0.3,1-1.2,2.2-2c2.2-1.6,2.7-2.9,1.6-5.7c-0.2-0.5-0.5-1-1-1.3C336.1,303.7,333,305.5,330.5,306.9z"/>
	<path fill="#F4C53D" d="M366.7,291.8c0.1-1.7-0.6-3.9-2.7-7c-7.5,5.7-7.5,5.9-4.3,10.7c0.7,1.1,1.1,1.8,1.2,2.4
		c0.1-0.5,0.2-1,0.1-1.5C361,296.5,366.4,296.1,366.7,291.8z"/>
	<path fill="#F4C53D" d="M330.3,307c-2,1.1-3.5,1.8-4.4,2.3c0.3,0.4,0.8,0.8,1.3,1.3c1.2,0.9,2.4,2.6,2.7,3.7c0.3,1,0.6,1.7,0.9,1.9
		c0.2-1.1,0.3-2.3,0.3-3.6C331.1,310.6,330.8,308.7,330.3,307z"/>
	<path fill="#0081C6" d="M459.8,254.3l-13.4,56.8l-0.6,2.4l5.9,4.2l0.6-2.7l-4.1-2.5l8.4-16.1L466,256l8.6,4.9l-1.3-43.1
		c-1.2,0.9-2.9,1.7-4.3,2.1c0,0-0.1,0-0.1,0L450,254.5L459.8,254.3z"/>
	<polygon fill="#0081C6" points="460,319.8 460.3,319.4 503,269 508.4,277.6 528.7,233.8 489.5,259.8 498.2,264.4 455.7,314.2 
		455.4,314.6 	"/>
	<path fill="#0081C6" d="M486.9,238.7l-30.3,57.7l-8.4,16.1l4.1,2.5l1.8,1l1.2-2.2l37.3-71.8l7.1,7.2l4-17.9
		c-0.6,0.2-1.3,0.1-1.8-0.3c-1.1-0.9-1.1-2.1-0.1-3.7c1.4-2.1-0.4-2.6-7.1-1.6c-3.4,0.5-3.6,0.4-3.6-0.8c0-0.9,0.4-1.3,1.1-1.3
		c0.6,0,1.8-0.7,2.6-1.5l1.4-1.5l-2.7-0.4c-0.2,0-0.4-0.1-0.6-0.1l-15.3,16.2L486.9,238.7z"/>
	<path fill="#0081C6" d="M444.6,338.6l-2.6,3.4l1.3,2.2l0.6-2.3L444.6,338.6C444.6,338.6,444.6,338.6,444.6,338.6z"/>
	<path fill="#0081C6" d="M444.1,328.2c0,0,1.9,1,3.2,2.7l0-0.1h0c-2-3.2-6-3.2-6-3.2l-5.5,10.6h-2.9h-7.8l-4.5,8.6l1.6,0.4
		c1-0.6,2.2-0.6,3,0.1c0.2,0.2,0.4,0.5,0.5,0.8l2.4,0.6L444.1,328.2z"/>
	<path fill="#0081C6" d="M441.9,341.9l-8.2,10.5c0.2,0.1,0.4,0.3,0.6,0.4c1.7,1.3,2.8,1.8,3.6,1.4c0.6-0.2,1.6-0.4,2.2-0.3
		c1.2,0.2,1.5-2.4,0.4-3.4c-0.7-0.7,0.6-3.9,2.4-5.5c0.2-0.2,0.4-0.3,0.6-0.5l-0.3-0.5L441.9,341.9z"/>
	<path fill="#0081C6" d="M583.9,267.9c1.1,0,2.1-0.2,2.1-0.6c0-1.1-3.2-2.9-5.1-3.2v5C581.3,268.3,582.2,267.9,583.9,267.9z"/>
	<path fill="#0081C6" d="M580,284.7c-0.5,0.8-2.5,2.8-5.5,4.2h23.1c-1.4-1.7-3.5-2.9-5.7-2.9c-1.1,0-2.4-0.4-2.9-1
		c-0.7-0.9-0.6-0.9,1.3-0.7c2.8,0.2,3.1-1.1,0.5-2.2l-2.1-0.8l1.4-1.2c0.7-0.7,1.4-1.6,1.4-2c0-1-2.2-1.1-2.9-0.1
		c-0.6,1-4.3,0.2-6.5-1.3c-0.7-0.5-1.1-0.9-1.4-1.3v6C580.8,282.8,580.5,283.9,580,284.7z"/>
	<path fill="#0081C6" d="M61.5,198c-2.5,0-3.9-0.3-4.5-1c-0.9-0.9-1.1-0.9-2,0c-1.2,1.2-3,1.2-4,0.1c-0.4-0.6-1.8-0.9-3.4-0.9
		c-2,0-2.6,0.2-3.1,1.2c0.5,1.2,1,2.8,1.6,4.7l16.2,49.6c0.7-1.1,2.1-1.1,5.2-1c2.5,0.1,4.9,0.4,5.3,0.7c1.1,0.7,3.5,0.1,5.1-1
		l-15.5-48.2C61.9,200.5,61.6,199.1,61.5,198z"/>
	<path fill="#0081C6" d="M118.1,194.1c1-2.1,3.3-3,6-4.1h-14.6c-1.1,0.9-1.8,1.8-1.8,2.8c0,1.9-1.1,2.4-4.1,1.6
		c-1.6-0.4-2.6-0.4-3.1,0c-0.1,0.1-0.2,0.1-0.3,0.1c0.2,0.6,0.3,1.2,0.3,1.9c-0.1,1.9-0.5,3.9-1.1,5.7l-14.6,45.8
		c1.4,0.9,2.1,2.1,3.6,4.9c1.8,3.7,4.1,3.7,8.4-0.1c0.7-0.7,1.5-1.3,2.2-1.7l16-48.8C115.9,199.4,116.9,196.7,118.1,194.1z"/>
	<path fill="#0081C6" d="M417.7,346.1l-3.3,3.8c0.5,0.4,1.2,0.4,2.8,0.3c2.4-0.1,3.1-0.5,3.6-1.6c0.3-0.6,0.8-1.1,1.3-1.4l-1.6-0.4
		L417.7,346.1z"/>
	<path fill="#0081C6" d="M444.6,338.6l3.6-4.7c0.1-1.2-0.3-2.2-0.9-3c-1.2-1.7-3.2-2.7-3.2-2.7l-16,20.4l-2.4-0.6
		c0.2,0.5,0.4,1.2,0.4,1.8c0,1.9,1.5,3,2.7,1.8c1.1-1.1,2.7-0.8,4.9,0.8l8.2-10.5L444.6,338.6z"/>
	<path fill="#FFFFFF" d="M348.8,206.8c-0.6,0-1.9-0.9-2.7-1.9c-0.9-1.1-2.3-1.9-3.1-2c-0.2,0-0.5,0-0.9-0.1v62.9
		c0.6-0.1,1.2-0.4,1.8-0.8c1.1-0.8,2.7-1.3,4.2-1.3c2.3,0,2.6,0.2,4.2,3.1l1.1,2v-64.1C351.7,205.9,350,206.8,348.8,206.8z"/>
	<path fill="#FFFFFF" d="M296.2,201v78.9c2.9,2,10.1,3.4,10.1,1.7c0-0.4,0.6-0.6,1.2-0.4c0.1,0,0.1,0,0.2,0V201H296.2z"/>
	<path fill="#FFFFFF" d="M319.1,201v66.5c2.1-0.5,4.8-1.1,7.1-1.7c1.6-0.4,3-0.7,4.3-1V201H319.1z"/>
	<path fill="#FFFFFF" d="M327.3,285.5c0.6-4.6,0.6-4.6-1.1-5.8c-1-0.7-1.9-1.7-2.1-2.4c-0.2-0.7-0.9-1.2-1.6-1.2
		c-0.6,0-1.2-0.4-1.5-0.9c-0.4-1.1-1.3-1.2-1.9-0.4v11.5c0.3,0.6,0.3,1.4,0.1,3.3c0,0.4-0.1,0.9-0.1,1.3v0.8c0,0.9,0.1,1.5,0.3,1.6
		c0.3,0.2,0.6,1,0.6,1.7c0,0.7,0.4,1.9,0.9,2.6c0.5,0.7,0.9,2.3,0.9,3.6c0,1.3,0.2,2.4,0.6,2.4c1.2,0,2.6,2,2.6,3.6
		c0,0.8,0.3,1.4,0.9,2.2c0.9-0.4,2.4-1.2,4.4-2.3c0.1,0,0.2-0.1,0.2-0.1v-15.8c-0.6,0.2-1.2,0.7-1.4,1.5c-0.2,1-0.8,1.6-1.6,1.6
		c-1.6,0-2.2-1.1-1.4-2.7C326.4,290.7,327,288,327.3,285.5z"/>
	<path fill="#FFFFFF" d="M284.8,201h-11.4v66.8c-0.4-0.5-0.9-1.1-1.3-1.7c3.4,4.6,7,8.9,10.6,12.8c0.9-1,1.6-1.7,2.1-2.1V201z"/>
	<path fill="#FFFFFF" d="M262,201h-11.5c0,6.6,0.6,12.9,1.6,18.8c0.9,5.3,2.2,10.3,3.7,15c0.7,2.1,1.4,4.2,2.2,6.2
		c2.9,7.2,6.4,13.9,10.4,19.9c-3.7-5.8-6.5-11.4-6.5-11.4V201z"/>
	<path fill="#FFFFFF" d="M397.4,220.5c1.1-6.1,1.7-12.6,1.7-19.5h0h-11.4v48.5c0,0-2.7,5.4-6.3,11c3.3-5.1,6.4-10.7,8.9-16.7
		c1.1-2.6,2.1-5.2,3.1-8C395.1,231,396.4,225.9,397.4,220.5z"/>
	<path fill="#FFFFFF" d="M376.2,267.8V201h-11.4v69.2c0.9,0.2,1.7,0.6,2.6,1.2c1.8,1.1,2.7,2,3.3,3.3c2.4-2.8,4.8-5.7,7-8.8
		C377.2,266.5,376.7,267.2,376.2,267.8z"/>
	<path fill="#FFFFFF" d="M330.5,306.9c2.5-1.4,5.6-3.2,9.2-5.5c0,0,0,0,0,0C337,303,332.7,305.7,330.5,306.9z"/>
	<path fill="#A60032" d="M262,249.5c0,0,2.8,5.7,6.5,11.4c1.1,1.8,2.3,3.5,3.6,5.2c0.4,0.6,0.9,1.1,1.3,1.7V201H262V249.5z"/>
	<path fill="#A60032" d="M319.1,291.6v-0.8C319.1,291.1,319.1,291.3,319.1,291.6z"/>
	<path fill="#A60032" d="M319,274.9c-0.2,0.4-1.2,0.6-2.4,0.4c-2.9-0.5-4.1,0.9-4.1,5.3c0,3.3,0.1,3.6,1.8,4.1c1,0.4,2,0.5,2.1,0.3
		c0.2-0.1,0.9,0.1,1.7,0.4c0.5,0.3,0.8,0.5,1,0.8v-11.5C319.1,274.8,319,274.8,319,274.9z"/>
	<path fill="#A60032" d="M339,202.6c-3-0.1-4.9-0.6-6.4-1.6h-2.1v63.7c5.8-1.3,8.8-1.4,8.8-0.4c0,1.2,1.2,1.7,2.7,1.3v-62.9
		C341.1,202.8,340,202.7,339,202.6z"/>
	<path fill="#A60032" d="M357.1,201c-1.2,1.4-2.5,2.7-3.7,3.6v64.1l0.6,1.1h5.5c2.6,0,4.1,0.1,5.3,0.3V201H357.1z"/>
	<path fill="#A60032" d="M296.2,201h-11.4v75.8c0.9-0.7,1.6-0.7,2.7-0.5c5.4,0.9,6.6,1.3,7.9,2.9c0.2,0.2,0.5,0.5,0.8,0.7V201z"/>
	<path fill="#A60032" d="M307.7,201v80.3c2.4,0.3,3.9-4.7,2.2-7.8c-0.6-1.1-0.4-1.3,0.5-1.6c0.6-0.2,1.4-0.9,1.7-1.7
		c0.4-0.9,1.6-1.6,4.1-2.1c0.7-0.2,1.7-0.4,2.9-0.7V201H307.7z"/>
	<path fill="#A60032" d="M387.7,201h-11.5v66.8c0.5-0.6,1-1.3,1.5-2c1.3-1.7,2.5-3.5,3.6-5.3c3.6-5.6,6.3-11,6.3-11V201z"/>
	<path fill="#A60032" d="M330.5,306.9L330.5,306.9C330.5,306.9,330.5,306.9,330.5,306.9c2.2-1.2,6.5-3.9,9.2-5.5
		c-0.3-0.2-0.6-0.4-0.8-0.5c-0.8-0.2-1.6-1.5-2.3-3.9c-0.6-1.9-1.6-3.7-2.1-3.9c-0.6-0.2-1.2-0.7-1.5-1.2c-0.5-0.8-1.5-1-2.4-0.7
		V306.9z"/>
	<path fill="#162667" d="M376.2,201h11.5h11.4v-15.7c-3.3-0.2-5.4-0.1-5.9,0.3c-1.4,1.2-3.6,0.1-4.8-2.4c-0.6-1.3-1.4-2.8-1.6-3.3
		c-0.6-1.4-5.1-3.7-7-3.7c-0.9,0-1.9-0.3-2.1-0.6c-0.6-1.1-5.2-3.8-6.1-3.7c-3.7,0.6-8.9-2.8-9.3-6.2c-0.1-1-0.7-1.9-1.7-2.4
		c-0.8-0.4-1.7-1.2-2.1-1.7c-0.3-0.6-0.9-1-1.4-1c-0.4,0-1.4-0.7-2.2-1.6c-1.1-1.1-2.1-1.6-3.9-1.6c-1.3,0-2.4-0.2-2.4-0.6
		c0-1.2-3.2-3.7-4.9-3.7c-1,0-2-0.5-2.5-1.2c-0.4-0.7-1.2-1.2-1.9-1.2c-1.6,0-8.7-2.4-12.4-4.2c-1.1-0.6-2-1.1-2.8-1.8
		c-1.5,0.8-2.9,1.5-4.4,2.2c0.9,1.2,1.8,2.4,2.4,3.2c1.1,1.3,2.1,2.8,2.3,3.4c0.2,0.6,1.2,1.2,2.2,1.4c1.1,0.2,3.5,1.9,5.5,3.7
		c4.2,3.9,6,5.2,7.3,5.2c0.9,0,3.6,1.7,8.8,5.6c1.4,1,3.5,2.5,4.7,3.4c1.2,0.8,3.1,2.4,4.1,3.5c1.1,1.1,2.5,2.2,3.3,2.6
		c0.7,0.3,1.7,1.2,2,2.1c0.3,0.9,0.9,1.6,1.2,1.6c1.1,0,0.7,5.6-0.6,8.1c-0.6,1.2-1.9,3.8-2.8,5.7c-0.8,1.7-1.9,3.3-3.2,4.8h7.7
		H376.2z"/>
	<path fill="#162667" d="M262,201h11.4h11.4h11.4h11.5h11.4h11.4h2.1c-0.5-0.3-0.9-0.7-1.3-1.1c-1.2-1.2-2.6-1.9-5-2.2
		c-2.5-0.3-3.7-0.9-4.9-2.2c-0.9-1-2.2-1.8-3-1.8c-0.7,0-2.2-0.7-3.2-1.5c-0.9-0.8-2.7-1.9-3.8-2.5c-1.2-0.6-2.4-1.9-2.9-3.1
		c-0.4-1.1-1.4-2.5-2.2-3.1c-1.1-0.9-1.3-1.6-1-3.1c0.5-2.5-0.7-6.7-2-7.2c-0.6-0.2-1.4-0.8-1.7-1.3c-0.5-0.7-0.9-0.7-2-0.2
		c-1.6,0.8-2.9,0.4-4.9-1.6c-0.7-0.8-1.7-1.5-2.1-1.5c-0.3,0-0.7-0.6-0.8-1.4c-0.2-1.2-0.6-1.4-3-1.4c-3.9-0.1-3.6,0.3-6.9-6.7
		c-0.7-1.6-4.7-4.2-6.4-4.2c-0.3,0-1.1-0.7-1.8-1.6c-0.2-0.3-0.5-0.5-0.7-0.7c-0.7-0.1-1.4-0.2-2.1-0.4c-0.1,0.2-0.2,0.5-0.2,0.9
		c0,2.2,2.6,6.8,3.9,6.8c1.4,0,1.4,0.8,0.1,1.9c-1.1,0.9-0.8,3.9,0.6,6.8c1.9,3.7,1.7,4.6-1.1,6.1c-2.7,1.4-7.4,1.4-9,0.1
		c-0.6-0.4-1.5-0.3-3,0.4c-2.1,1-2.2,1-5-0.6c-1.6-0.9-3.9-2.6-5.1-3.8c-0.6-0.6-1.2-1.1-1.7-1.4V201H262z"/>
</g>
</svg>
