<?xml version="1.0" encoding="utf-8"?>
<!-- Generator: Adobe Illustrator 17.1.0, SVG Export Plug-In . SVG Version: 6.00 Build 0)  -->
<!DOCTYPE svg PUBLIC "-//W3C//DTD SVG 1.1//EN" "http://www.w3.org/Graphics/SVG/1.1/DTD/svg11.dtd">
<svg version="1.1" id="flag-icon-css-vu" xmlns="http://www.w3.org/2000/svg" xmlns:xlink="http://www.w3.org/1999/xlink" x="0px"
	 y="0px" viewBox="0 0 640 480" enable-background="new 0 0 640 480" xml:space="preserve">
<g>
	<path fill="none" d="M409.9,480c0.2,0,0.4,0,0.6,0c0,0,0,0,0,0H409.9z"/>
	<path d="M244,200.8c0.6,1.3,1.5,2.1,2.5,2.6c2.2,0.9,4.4,0.8,4.8-0.1c0.1-0.1,0.2-0.3,0.3-0.5l-8.5-5.2
		C242.9,198.4,243.2,199.3,244,200.8z"/>
	<path d="M323.8,266.3c0.1-0.2,1-0.7,2-1c1.3-0.4,1.8-0.8,1.8-1.4c0-0.8-0.4-0.9-2.3-1c-1.3,0-2.8,0.1-3.4,0.3c-1,0.4-1.8,2-1.4,2.8
		C320.9,266.5,323.6,266.8,323.8,266.3z"/>
	<path d="M306.7,236.7c-0.7,1.2-0.7,1.5-0.1,3.6c0.2,0.8,0.6,1.7,1.1,2.4l4.4-2.7L306.7,236.7z"/>
	<path d="M257.7,210.8c-0.4,4-0.4,4.6,0.8,7.2c0.5,1.1,0.9,2.3,0.9,2.7c0,0.4,0.5,1.3,1.2,2.1c1.5,1.7,1.5,3.4,0.2,3.4
		c-1.1,0-1.2,0.8-0.3,3c0.5,1.2,0.5,1.7,0.1,2.1c-0.7,0.7-0.1,1.1,1.8,1.2c1,0,2.1,0.5,2.8,1.1c0.8,0.8,1.1,0.9,1.3,0.5
		c0.1-0.3,0.6-0.6,1.1-0.6c0.5,0,1.1-0.4,1.4-1c0.2-0.5,0.7-0.9,1-0.8c0.3,0.1,1-0.8,1.6-2.2c1.1-2.5,1.5-2.9,2-1.6
		c0.3,0.7,0.4,0.7,0.9,0c0.3-0.4,1.4-0.9,2.3-1c1.5-0.3,1.7-0.2,2,0.7c0.2,0.7,0.6,0.9,1.2,0.7c0.5-0.1,0.9,0,1.1,0.5
		c0.3,0.8,1.7,0.9,1.7,0.1c0-0.3,0.7-1.1,1.5-1.8l1.5-1.3l-1.5-0.6c-1.2-0.5-1.5-0.8-1.5-1.9c0-0.3,0.1-0.7,0.1-1.1l-25.5-15.7
		C258,207.6,257.9,208.7,257.7,210.8z"/>
	<path d="M337.2,252.7c-2.1-0.5-2.6-0.3-2.9,1.2c-0.2,0.9,0,1.8,0.4,2.5l0.7,1.1l1.2-1.2C338.3,254.6,338.5,253,337.2,252.7z"/>
	<path d="M248.4,172.5c1.2-1.8,0.5-2.5-2.5-2.8c-1.5-0.1-3.7-0.4-4.9-0.6c-1.8-0.2-2.3-0.1-2.5,0.4c0,0,0,0.1,0,0.1l9.5,6.1
		c0-0.2,0-0.3-0.1-0.5C247.7,174.1,247.8,173.2,248.4,172.5z"/>
	<path d="M317.8,212.8c-0.2-1.1-0.7-1.7-1.9-2.3c-2-1-4.3-4.4-4.7-7c-0.4-2.1-2-4.2-3.2-4.2c-0.4,0-1,0.5-1.4,1
		c-0.4,0.6-0.8,1.6-0.8,2.3c0,2.3-1.6,3.3-5.4,3.3c-1.2,0-2.6,0.3-3.9,0.7l16.7,10.7C317.5,216.6,318.4,215.6,317.8,212.8z"/>
	<path d="M234.5,166.5c0-0.8,0.8-0.4,1.1,0.4c0.1,0.5,0.6,1,1.1,1.1c1.5,0.4,2.9-0.5,3.9-2.6c1.2-2.4,3-3.2,6.1-2.8
		c1.4,0.2,1.9,0.1,1.9-0.4c0-0.3-0.8-2.3-1.9-4.6L208,133c0,0.4,0.1,0.8,0.1,1.3c0.4,3.6,0.8,4.9,1.7,6.3c1.4,2.1,1.6,4.8,0.5,8.4
		c-0.3,0.9-0.5,1.6-0.6,2.3l24.5,15.7C234.4,166.8,234.5,166.7,234.5,166.5z"/>
	<path d="M250.1,166.6c0.7-0.6,0.9-1.2,0.8-1.6c-0.5-1.2-1.7-0.9-2.2,0.4C247.7,167.6,248.2,168.1,250.1,166.6z"/>
	<path d="M243.5,164.6c-1.6,0.8-2,1.1-1.9,2c0.1,0.9,0.5,1.1,2.5,1.2c2.5,0.1,3.6-0.7,2.3-1.8c-0.3-0.3-0.5-0.9-0.4-1.4
		C246.4,163.5,246.1,163.5,243.5,164.6z"/>
	<path fill="#FFFF00" d="M215.9,164.4c0.5,0.8,1.2,2.6,1.5,4c0.4,2.1,0.7,2.7,1.7,3c0.9,0.3,1.5,0.2,2.5-0.6c0.7-0.6,1.8-1,2.4-1
		c0.6,0,1.6-0.5,2.3-1.2c0.8-0.8,1.5-1.1,2.1-0.9c0.6,0.2,1.2,0,1.8-0.8c0.8-1,0.9-1,1.8-0.2c0.7,0.6,1.8,0.7,2.2,0.3l-24.5-15.7
		c-0.4,2.3,0.3,3.8,2.5,7.5C213.8,161.1,215.4,163.6,215.9,164.4z"/>
	<path fill="#FFFF00" d="M317.9,225.4c-0.6,0.6,0.7,2.9,2.1,3.7c1.4,0.8,3.7,0.8,3.7-0.2c0-0.6-4.2-3.7-5-3.8
		C318.4,225.2,318.1,225.3,317.9,225.4z"/>
	<path fill="#FFFF00" d="M292.7,209.1c0,2.3,5.3,7.2,7.7,7.2c0.7,0,2.3,0.5,3.5,1.2c2.3,1.2,4.9,1.5,5.3,0.8
		c0.1-0.2,1.3-0.5,2.5-0.7c0.5-0.1,1-0.1,1.4-0.2l-16.7-10.7C294.4,207.3,292.7,208.3,292.7,209.1z"/>
	<path fill="#FFFF00" d="M312.4,224.5c-1.2,2.7-1,3.7,0.6,3.9c1.1,0.1,1.3-0.1,1.7-1.5c0.5-1.8-0.1-4.5-1-4.5
		C313.5,222.3,312.9,223.3,312.4,224.5z"/>
	<path fill="#FFFF00" d="M252.7,202.1c0.9-0.3,1.3-0.2,2.6,1.3c1.1,1.3,1.8,2.2,2.2,3.1l25.5,15.7c0.1-0.5,0.2-0.9,0.4-1.2
		c0.4-0.7,0.4-1.2-0.1-2.3c-0.3-0.8-0.8-1.5-1-1.5c-0.2,0-1.1-0.6-2-1.4c-0.9-0.8-2.2-1.6-2.9-1.9c-1-0.4-1.2-0.7-1-1.4
		c0.3-1-0.8-1.9-2.4-1.9c-0.5,0-1.5-0.9-2.3-2c-1.1-1.5-2.1-2.2-3.9-2.9l-2.4-0.9l0.2-2.2c0.2-2,0.1-2.3-0.7-2.5
		c-0.5-0.1-1.1,0-1.3,0.5c-0.4,0.7-0.7,0.6-2.8-0.4c-2.4-1.2-3.2-2.3-2.4-3.8c0.7-1.4,0-2.8-1.6-3.2c-1.1-0.3-1.5-0.7-1.7-1.6
		c-0.2-0.9-1-1.7-3-3c-3.9-2.3-4-2.4-5.7-1.9c-2.1,0.7-2.8,2.1-2.1,4.5c0.8,2.5,0.7,3.4-0.4,4.7c-0.4,0.6-0.7,1-0.8,1.5l8.5,5.2
		C251.9,202.6,252.3,202.3,252.7,202.1z"/>
	<path fill="#FFFF00" d="M308.7,244c0.9,0.8,1.4,1.8,1.4,2.7c0,1.2,0.3,1.5,2.2,2.2c2.3,0.9,2.3,0.9,6.3-1.4
		c1.8-1.1,3.6-0.9,4.5,0.5c0.4,0.7,1.2,1.2,1.7,1.2s1.3,0.3,1.7,0.7c0.4,0.3,1.5,0.8,2.4,0.9c1.5,0.2,1.7,0.1,2.3-1.2
		c0.6-1.4,0.6-1.5-0.6-2.3c-0.8-0.6-1.3-1.4-1.3-2.1c0-0.8-0.3-1.1-0.9-1.1c-0.5,0-0.9,0.2-0.9,0.5c0,0.6-1.7,0.6-2.1,0
		c-0.1-0.2-1-0.6-1.9-0.7c-1.3-0.3-1.9-0.8-3.1-2.9c-1.4-2.3-1.8-2.7-4.1-3.4c-2.5-0.8-2.6-0.9-2.7-2.8c-0.1-1.7-0.4-2.2-1.9-3.1
		c-2.1-1.4-2.3-1.4-2.9-0.3c-0.2,0.5-0.5,1.5-0.5,2.1s-0.5,1.9-1.1,2.9c-0.1,0.2-0.3,0.4-0.4,0.5l5.3,3.3l-4.4,2.7
		C308,243.2,308.3,243.7,308.7,244z"/>
	<path fill="#FFFF00" d="M238.4,172.2c0.1,1.8,0.3,2.1,1.3,2.2c0.7,0.1,1.8,0.8,2.6,1.5c2.7,2.6,5.8,2.3,5.7-0.3l-9.5-6.1
		C238.3,170,238.3,171.1,238.4,172.2z"/>
	<path fill="#40AA40" d="M328.7,292.7c1.3,0,2.6-1.1,2.3-2.2c-0.2-1-1.8-1.4-2.6-0.6C327.6,290.9,327.7,292.7,328.7,292.7z"/>
	<path fill="#40AA40" d="M312.7,301.1c0.9-0.8,0.8-2.3-0.3-2.3c-0.7,0-0.9,0.3-0.9,1.1C311.5,301.3,311.9,301.8,312.7,301.1z"/>
	<path fill="#40AA40" d="M438.6,430.2c-1.1,0-1.9,0.2-2.1,0.7c-0.4,1,0.8,1.7,2.4,1.4c1-0.2,1.5-0.6,1.5-1.2
		C440.5,430.4,440.1,430.2,438.6,430.2z"/>
	<path fill="#40AA40" d="M323.3,297c-1.6,0.4-2.4,0.4-3.9-0.2c-1.8-0.7-1.9-0.7-2.4,0.2c-0.3,0.5-0.9,0.9-1.4,0.9
		c-0.6,0-0.8,0.4-0.8,1.4c0,1-0.4,1.7-1.4,2.4c-0.8,0.6-1.5,1.5-1.6,2.5c-0.1,0.9-0.8,2.2-1.3,3c-0.8,1.2-0.9,1.5-0.4,2.2
		c0.7,0.8,1.9,0.9,2.7,0.2c0.7-0.7,3.8-1.4,4.6-1c1.2,0.5,0.8,1.9-0.6,2.1c-0.9,0.1-1.4,0.4-1.5,1.2c-0.2,1.5,1.1,1.8,2.4,0.6
		c0.6-0.5,1.3-1,1.6-1c0.7,0,2.6,1.8,3,3c0.1,0.4,1,0.9,1.9,1.3c1.4,0.4,2.2,0.4,4.2-0.2c1.4-0.4,3.6-0.8,4.9-0.8h2.4v-2.3
		c0-1.8,0.2-2.5,0.9-2.9c1.4-0.9,1.2-2.6-0.3-3c-2.6-0.6-2.9-0.7-3.2-1.7c-0.2-0.6-0.7-1.6-1.2-2.3c-0.5-0.7-1-1.7-1.1-2.3
		c-0.2-0.9-1-1.5-3-2.4C325.6,296.7,325.1,296.6,323.3,297z"/>
	<path fill="#40AA40" d="M316.3,294.7c0.5-1.6-1.4-1.4-2.3,0.4c-0.9,1.7-0.9,1.9,0.2,1.9C315.2,296.9,315.9,296.2,316.3,294.7z"/>
	<path fill="#40AA40" d="M323.8,291.6c0.2-0.6-2.3-4.1-2.9-4.1c-0.2,0-0.5,0.1-0.7,0.3c-0.6,0.6-0.3,2.9,0.4,3.6
		C321.5,292.4,323.5,292.5,323.8,291.6z"/>
	<path fill="#40AA40" d="M400.2,411.4c-0.5,0-1.1,0.2-1.2,0.5c-0.2,0.3-0.1,1.1,0,1.9c0.5,2.1,1.8,1.6,2-0.7
		C401.1,411.7,401,411.4,400.2,411.4z"/>
	<path fill="#40AA40" d="M383.8,417.3c-0.9-0.8-1.8-0.9-2.9-0.3c-0.4,0.2-1.5,0.5-2.4,0.7c-1.7,0.3-1.7,0.4-1.6,2.3
		c0,1.1-0.3,2.8-0.8,3.7l-0.8,1.7l2.1,3.1c1.2,1.7,2.1,3.5,2.1,3.9c0,1.1,0.7,1.9,1.9,2.5c0.6,0.3,1.2,1.1,1.4,1.7
		c0.2,1,0.6,1.2,2.1,1.3c2.2,0.2,4.2-0.7,3.5-1.5c-0.3-0.4-0.2-1,0.2-1.9c0.4-0.8,0.7-1.6,0.7-1.9c0-0.3,0.7-1.1,1.5-1.7
		c1.6-1.3,1.6-2.7,0-2.7c-0.5,0-1.2-0.7-1.6-1.6c-0.4-0.9-1.2-1.8-1.6-1.9c-3.7-1.2-3.6-1.1-3.3-3.9
		C384.6,418.5,384.5,418,383.8,417.3z"/>
	<path fill="#40AA40" d="M308.8,305.9c1,0,1.7-1.2,1.1-1.8c-0.6-0.6-1.9-0.8-2.4-0.3C307.1,304.3,308.1,305.9,308.8,305.9z"/>
	<path fill="#40AA40" d="M369.1,367.8c-1.7-0.6-1.7-0.6-4.8,0.1c-1.9,0.5-2.5,0.9-3.5,2.4c-1.8,2.9-2.1,5.1-0.8,6.9
		c1.4,1.8,1.5,3.5,0.2,4.2c-0.5,0.3-0.9,1.1-0.9,1.8c0,1.3,2.5,4.7,3.5,4.7c0.3,0,2.3,0.8,4.3,1.9s3.9,1.9,4.2,1.9
		c0.3,0,1.1,0.4,1.7,0.8c0.9,0.8,1.2,0.8,2.5,0.2c1.8-0.9,4-2.9,4-3.7c0-1.3-2.5-7-3.6-8.1c-0.6-0.7-2.2-1.5-3.6-1.9
		c-1.5-0.5-2.5-1-2.5-1.4c0-0.6,0.7-0.7,3.4-0.6c3.8,0.1,4.4-0.5,1.9-2.3c-1.2-0.8-1.6-0.9-2.6-0.5c-0.9,0.5-1.2,0.4-1.6-0.4
		c-0.3-0.5-0.4-1.5-0.2-2.3C371.2,369.5,370.7,368.4,369.1,367.8z"/>
	<path fill="#40AA40" d="M414.7,479.5l3-0.3l-0.1-2.6c-0.1-2.9-1-4.2-2.7-4.2c-0.6,0-1.9-0.3-2.8-0.7c-2.1-0.9-2-0.9-1.7,0.2
		c0.2,0.8,0,0.9-1.4,1.1s-1.5,0.3-1.7,1.5c-0.1,0.9,0.1,1.5,0.6,1.9c0.5,0.3,0.9,1.3,1.1,2.2c0.2,1,0.4,1.3,0.9,1.4h0.6
		C411.1,479.9,413,479.7,414.7,479.5z"/>
	<path fill="#CE0000" d="M207.9,20.4l0.6-1.4c1.2-2.7,0.8-3.7-1.1-3c-1.3,0.5-1.3,0.9-0.3,2.9L207.9,20.4z"/>
	<path fill="#CE0000" d="M201.9,7.3c0.5,0.4,1.4,0.7,1.9,0.7c0.8,0,1.1-0.4,1.3-1.6c0.2-0.9,0.5-1.6,0.8-1.6c1,0,0.4-1.4-0.7-1.7
		c-0.6-0.1-1.3-0.8-1.5-1.3c-0.5-1.5-1.7-2.2-2.3-1.3c-0.1,0.2,0,1.1,0.2,1.9c0.4,1.1,0.4,1.8-0.1,3C201.1,6.5,201.2,6.7,201.9,7.3z
		"/>
	<path fill="#CE0000" d="M210.5,20.2c-0.7-0.1-0.8,0.2-0.8,1.7c0,1.6,0.1,1.9,1,1.9c0.8,0,0.9-0.2,0.8-1.7
		C211.3,20.9,211.1,20.3,210.5,20.2z"/>
	<path fill="#CE0000" d="M208.3,11c0-1-1.7-1.5-3.1-0.9c-0.8,0.3-0.8,2,0,2.3C206,12.8,208.3,11.8,208.3,11z"/>
	<path fill="#CE0000" d="M255.9,26.9c-0.4-0.2-0.7-0.7-0.7-1.2c0-1.3-2.4-1.2-3.6,0.1c-0.9,1-0.8,1,0.4,2.1c1.7,1.5,4.6,1.6,4.6,0.2
		C256.6,27.6,256.2,27,255.9,26.9z"/>
	<path fill="#CE0000" d="M311,148.7c0.9-0.7,0.9-0.9,0.4-4.2c-0.3-1.9-0.9-4.3-1.4-5.2c-0.5-0.9-1.1-3.2-1.4-5.2
		c-0.3-1.9-0.8-4.7-1-6.1c-0.2-1.4-0.5-3.1-0.6-3.8c0-0.8-0.7-1.7-1.7-2.5c-1.8-1.3-1.9-1.3-2.8-0.8c-0.5,0.3-0.4,0.7,0.5,1.9
		c0.9,1.3,1.1,2.2,1.4,7.2c0.1,3.2,0.5,6.2,0.8,6.8c0.3,0.6,0.6,1.7,0.6,2.6c0,0.9,0.3,2,0.7,2.5c0.9,1.2,0.9,2.6,0,3.8
		c-1.1,1.5-0.8,3,0.7,4.3c0.8,0.6,1.4,1.5,1.4,2.1c0,1.1,1.5,2,2.3,1.3c0.8-0.8,0.7-1.9-0.1-3C310.2,149.5,310.2,149.3,311,148.7z"
		/>
	<path fill="#CE0000" d="M268.6,46.2c0.7-0.5,0.6-0.8-0.2-2.4c-1.1-2.3-2.2-3.2-4.5-4.2c-2.1-0.9-3.4-0.8-5.3,0.1
		c-1.5,0.8-1.5,0.9-1.5,3.2c0,1.4-0.2,2.6-0.5,2.8c-0.7,0.4,0.5,2.5,2.3,4.2c0.8,0.8,1.5,1.7,1.5,2.1s0.2,1.5,0.6,2.5
		c0.4,1.5,0.8,1.8,1.5,1.7c0.8-0.1,1-0.4,0.9-1.9l-0.1-1.8l1.6,0.3c1.2,0.2,1.6,0.1,1.6-0.3c0-0.3,0.4-0.5,0.9-0.3
		c0.6,0.1,1.3-0.1,1.7-0.7c0.4-0.5,1.2-0.9,1.6-0.9c1,0,1.5-0.6,1.1-1.6c-0.2-0.6-0.5-0.6-1.1-0.3c-0.5,0.3-1.5,0.5-2.1,0.5
		c-1.1,0-1.2-0.1-0.9-1.3C267.7,47.3,268.2,46.5,268.6,46.2z"/>
	<path fill="#CE0000" d="M300.1,89.9c0.3-0.4,0.2-1.1-0.2-2.3c-0.8-2-1.1-2.1-2.3-0.8c-0.7,0.8-0.8,1.1-0.2,2.3
		C298,90.6,299.3,91,300.1,89.9z"/>
	<path fill="#CE0000" d="M294.2,146.4c-2.7,0.1-3.5,0.3-4.7,1.4c-0.8,0.7-2.3,1.4-3.3,1.5c-1.2,0.2-2,0.7-2.6,1.5
		c-1.4,2.2-4.1,4.3-5.4,4.4c-0.7,0-1.5,0.3-1.8,0.7c-1.2,1.4,4,3.9,6.3,3.1c0.5-0.2,1.3-0.2,1.6,0c0.4,0.2,1.7,0.2,3-0.1
		c1.6-0.3,2.4-0.8,3.2-1.9c0.6-0.8,1.3-1.7,1.7-1.9c2.2-1.4,3.8-3.3,4-5c0.1-1.1,0.7-2.2,1.3-2.5
		C298.8,146.6,297.9,146.3,294.2,146.4z"/>
	<path fill="#CE0000" d="M276.9,35c-1.2-0.2-1.5-0.1-2.1,0.9c-0.4,0.7-1,1.1-1.7,1.1c-0.8,0-1.6,0.8-1.6,1.6c0,0.6,1.6,0.6,2.7,0
		c0.7-0.4,1.7-0.7,2.3-0.7c1.2,0,2.9-1.7,2.3-2.3C278.6,35.4,277.7,35.2,276.9,35z"/>
	<path fill="#CE0000" d="M307.9,184.9c0.4,0.8,0.8,2.5,0.8,3.7c0,2.1,0.1,2.3,2.1,3.7c1.1,0.8,2.4,1.5,2.8,1.5
		c0.4,0,0.9-1.2,1.5-3.5c0.7-3,0.8-3.9,0.2-6.4c-0.3-1.6-0.8-4.1-1-5.5c-0.3-1.4-0.8-2.9-1.1-3.3c-0.4-0.4-0.7-1.3-0.7-2
		s-0.2-1.7-0.5-2.3c-0.3-0.6-0.7-3-0.9-5.4c-0.2-3.3-0.6-4.7-1.2-5.6c-1.1-1.5-1.8-1.8-2.3-1.1c-0.1,0.3-0.3,1.8-0.4,3.4
		c-0.1,1.6-0.5,3.6-0.9,4.4c-0.6,1-0.8,2.5-0.7,5.6c0,3.6,0.2,4.5,1.1,5.8c0.9,1.3,1,2,0.8,3.6C307.2,182.7,307.4,183.8,307.9,184.9
		z"/>
	<path fill="#CE0000" d="M266.1,71.1c-0.8,0.6-1.6,0.7-3.2,0.4c-1.8-0.2-2.1-0.2-2.1,0.6c0,0.5-0.5,1.6-1.2,2.5
		c-0.9,1.3-1.2,2.2-1.2,4.3c0,3.6,0.6,4.6,2.6,4.1c0.8-0.2,2.5-0.2,3.8,0c3,0.6,4.4-0.4,5.1-3.6c0.3-1.3,0.7-2.7,0.9-3.1
		c0.2-0.5,0.1-1.3-0.1-1.9c-0.3-0.6-0.7-1.7-0.9-2.4C269.4,70.3,267.7,69.9,266.1,71.1z"/>
	<path fill="#CE0000" d="M246.3,156.8c-2.7-5.6-2.9-6.4-1.1-6c1.2,0.3,1.2,0.3,0.9-1.5c-0.3-2-1.8-3.4-3.6-3.5c-0.8,0-1-0.2-0.7-0.8
		c0.2-0.4,0.4-2.4,0.5-4.3c0.1-2.9,0-3.8-0.8-4.7c-0.8-0.9-0.9-1-0.9-0.4c0,0.9-0.8,1.1-1.8,0.4c-0.4-0.3-0.5-0.9-0.3-2.1
		c0.3-1.3,0.2-1.8-0.4-2c-1.2-0.4-1.7-2.7-1.2-4.7c0.9-3.5,0.8-3.7-1.6-3.8c-1.8-0.1-2.3,0-2.9,0.9c-0.4,0.6-0.8,1.6-0.8,2.3
		c0,0.7-0.3,1.5-0.8,1.9c-0.5,0.4-0.6,1-0.4,1.7c0.1,0.6,0.1,2.4,0,3.9c-0.2,2.2-0.5,2.8-1,2.6c-0.4-0.1-1.3,0.2-2,0.7
		c-1.1,0.8-1.7,1-3.9,0.7c-3.4-0.4-4.3-1.6-3.8-5.2c0.2-1.8,0.1-2.9-0.4-3.8c-0.6-1.2-1.2-4.2-2-9.1c-0.2-1.3-0.7-1.9-2.3-3
		c-1.5-1-2.2-1.8-2.4-3c-0.1-0.8-0.7-1.8-1.1-2.1c-0.4-0.3-1.1-1.1-1.6-1.9c-0.5-0.7-1.1-1.3-1.4-1.3c-0.4,0-0.9-0.7-1.3-1.5
		c-0.8-1.7-1.5-2.1-2.2-1.2c-0.3,0.4-0.8,1.7-1,3c-0.3,1.3-0.7,3.3-1,4.5c-0.5,2.1-0.5,2.3,0.8,3.9c1.2,1.6,1.4,2.1,1.4,5.3
		c0,3.1,0.1,3.8,1.2,5.2c0.9,1.1,1.3,2.2,1.6,4.9l38.6,24.7C246.5,157.4,246.4,157.1,246.3,156.8z"/>
</g>
</svg>
