<?xml version="1.0" encoding="utf-8"?>
<!-- Generator: Adobe Illustrator 17.1.0, SVG Export Plug-In . SVG Version: 6.00 Build 0)  -->
<!DOCTYPE svg PUBLIC "-//W3C//DTD SVG 1.1//EN" "http://www.w3.org/Graphics/SVG/1.1/DTD/svg11.dtd">
<svg version="1.1" id="flag-icon-css-wf" xmlns="http://www.w3.org/2000/svg" xmlns:xlink="http://www.w3.org/1999/xlink" x="0px"
	 y="0px" viewBox="0 0 640 480" enable-background="new 0 0 640 480" xml:space="preserve">
<g>
	<path fill="none" d="M0,230.8c0,0.1,0,0.2,0,0.3V230.8z"/>
	<path fill="#FFFFFF" d="M213.9,352c20.4-0.3,23.7-0.8,28.2-3.8c1.7-1.1,3.4-1.8,5-1.8c3-0.1,9.1-2.6,9.6-4.1c1-2.5,0.6-3.3-1.6-3.8
		c-1.6-0.3-2.6-0.1-3.4,0.6c-0.9,0.9-1.6,0.9-3.8,0.4c-1.4-0.3-4.9-0.4-7.8-0.3l-5.3,0.4l-5.6-4.7c-6.2-5.2-11.9-8.5-16.1-9.4V352
		C213.5,352,213.7,352,213.9,352z"/>
	<path fill="#FFFFFF" d="M245.7,383.6c-2.8,2.2-7.2,5.1-9.8,6.6c-3.9,2.2-5.4,3.4-8,7c-3.3,4.5-4.4,7-4.4,10.6
		c0,1.4-0.7,3.1-2.2,5.1c-1.3,1.6-2.7,4.3-3.2,5.8c-0.9,2.6-0.9,2.9,0.2,4.4c0.6,0.9,2.4,2.3,4.1,3.2c1.6,0.9,3.8,2.6,4.8,3.8
		l1.8,2.2l4.1-0.9c2.2-0.5,5.4-1.5,7.2-2.2l3.2-1.3l5.3,1.4c11.7,3.3,18.6,8.6,18.6,14.4c0,5.9,0.2,6.3,6.2,8.4
		c2.9,1.1,5.8,1.9,6.3,1.9c0.5,0,2.1-1.1,3.4-2.4c1.4-1.4,3.1-2.7,3.6-3c0.5-0.3,1.6-1.6,2.3-2.8c0.9-1.6,2.3-2.7,4.1-3.4
		c1.4-0.6,4.8-2.9,7.3-5.3c13.7-12.2,25.3-19.3,45.2-27.6c6.4-2.8,13.3-5.9,15.1-7.2c2.9-2,3.3-2.4,2.6-3.4c-0.6-1-0.9-1-1.7-0.3
		c-1.6,1.4-4,0.4-7.3-2.9l-3-3.1H345c-4.4,0-7.2,0.3-8.9,1c-2.1,0.9-2.8,0.9-4.4,0.3c-1.3-0.6-3.6-0.7-7.3-0.4
		c-5.3,0.4-5.4,0.4-10.1-2.1c-4.1-2.1-5-2.8-6.4-5.4c-0.9-1.7-2-4.4-2.4-6.1c-0.4-1.8-1-3.4-1.3-3.9c-0.9-1.1-5.6-1.6-8.3-0.9
		c-1.9,0.5-2.7,0.4-4.3-0.4c-1.1-0.6-3.1-1.1-4.4-1.1c-1.4-0.1-4.3-0.3-6.6-0.5c-3.4-0.4-4.4-0.3-6.3,0.8c-1.2,0.6-3.3,1.2-4.7,1.3
		c-1.4,0-4.6,0.8-7.2,1.8c-2.6,0.9-6.3,1.9-8.1,2.2C251.2,379.6,250.1,380.2,245.7,383.6z"/>
	<path fill="#FFFFFF" d="M426.7,232.4c-1.9,0.9-3.5,1.1-6.6,1.5c-5.3,0.7-6.4,1.1-13,5c-1.5,0.9-2.7,1.2-3.4,0.9
		c-1.3-0.6-0.7-0.8-7,1.9c-2.9,1.3-5.8,2.3-6.4,2.3c-1.9,0-1.2,5.6,2,15.4c1.7,5.1,1.8,5.8,1.1,8.4c-0.4,1.5-1.3,3.5-2.1,4.5
		c-2.4,3-2.4,5.4-0.3,9.9c1.1,2.2,1.9,4.4,1.9,4.9s0.8,2.3,1.8,4c2.1,3.9,4.3,4.8,10.2,4.3c3.7-0.3,4.3-0.2,5.3,0.9l1.1,1.3l4.1-1.5
		c2.3-0.8,4.3-1.4,4.6-1.2c0.3,0.2,0.5,1.4,0.5,2.8c0,4.8,2.2,7.6,6.3,8V232.4z"/>
	<path fill="#00267F" d="M1.3,233.4c1.6,1.9,5,11.7,6.9,19.8c0.6,2.8,1.9,5.3,4.4,9.1c3.9,5.6,6.6,11.9,6.6,15.3
		c0,1.4,0.9,3.6,2.4,6.3c1.4,2.4,3.2,6.9,4.2,10.4c1.4,5.2,1.6,6.4,1,8.1c-0.4,1.1-0.7,1.9-0.6,2c0.1,0.1,2.4,1.7,5.3,3.7
		c4.6,3.1,5.6,3.5,8.3,3.5c2.5,0,3.4,0.3,4.7,1.6l1.6,1.6l-1.3,1.9l-1.4,1.9l1.5,1.3c0.8,0.7,1.6,1.2,1.9,1.3c0.3,0,0.3,0.9,0.1,2
		c-0.5,2.9,0.9,5.6,4.4,8.8c2.4,2.2,3.9,2.9,6.8,3.6c2.8,0.6,3.6,1,3.6,1.8c0,1.6,1.1,2.3,5.3,3.1c2.2,0.5,4.1,1.3,4.7,2.1
		c0.9,1.1,1.3,1.1,2.9,0.5c2.8-1.1,4.4-0.3,6.1,2.6c1.4,2.6,1.5,2.7,6.1,3.4c2.6,0.4,6.9,0.8,9.5,0.8c4.8,0.1,4.8,0.1,6.5-2.2
		l1.7-2.2l5.1,0.4c8.6,0.6,16,1.6,23.4,2.9c5.6,1,8.7,1.2,14.7,0.9c8.4-0.3,12.8-1.5,17.9-4.8c4.4-2.8,7.8-2.6,12.1,0.6
		c8.7,6.4,11.9,7.1,35.8,6.8v-26.3c-0.2,0-0.5-0.1-0.7-0.1c-1.7-0.3-3.6-0.9-4.3-1.4c-1.1-0.8-1.4-0.7-2.6,0.3
		c-1.3,1.2-1.3,1.2-4.9-0.9c-3.3-1.9-4.1-2.1-8.6-2.1c-5,0-5.1,0-7-2.3c-2.4-2.8-6.3-5.5-12-8.7c-2.4-1.3-6.4-4-8.9-5.9
		c-3.8-2.8-4.9-4.1-6.7-7.5c-1.5-3.1-2.8-4.7-5.1-6.3c-1.7-1.2-4.8-3.6-6.8-5.3c-2.1-1.7-6.3-4.8-9.4-6.8c-3.1-2.1-6.3-4.6-6.9-5.6
		c-0.7-1.1-4.3-5.3-7.9-9.3c-6.3-6.9-7.4-8.7-6-9.6c1.4-0.9,0.4-1.4-4.3-2.4c-4.3-0.9-5-1.3-5.3-2.6c-0.2-0.8-0.9-1.6-1.5-1.8
		s-2.2-1.5-3.4-2.8c-1.3-1.4-3.5-2.9-5.1-3.4c-2.5-0.9-3.2-0.9-5.8-0.1c-2.6,0.8-3,0.8-3.6,0c-1.5-2.1-5.5-4.7-8.6-5.7
		c-1.8-0.6-4.1-1.7-5.1-2.5l-1.9-1.4l-2.4,1.2c-2.1,1.1-2.9,1.2-5.4,0.6c-5.9-1.3-6-1.4-7.8-7.1c-0.9-2.9-1.6-6-1.6-6.9
		c0-1.9-1-2.7-2.2-1.7c-0.6,0.5-2.1,0.7-4.1,0.5c-2.1-0.2-3.5-0.1-4.3,0.5c-1.9,1.5-4.4,0.9-9.8-2.3c-2.9-1.7-6.1-3.4-7-3.8
		c-0.9-0.4-2.8-1.5-4.1-2.5c-5.8-4.6-14.4-6.6-15.5-3.6c-0.3,0.8-1.2,3-1.9,4.9c-1.1,2.8-1.3,4.1-0.9,7.1c0.4,3.2,0.3,3.9-1.1,5.9
		c-0.9,1.3-1.9,3.4-2.3,4.7c-0.2,0.7-0.4,1.2-0.4,1.7v0.3C0,231.9,0.4,232.4,1.3,233.4z"/>
	<path fill="#F31830" d="M598.3,206c-1.9-1.7-1.8-1.7-5.4-0.1c-1.6,0.6-3.3,1.3-3.9,1.6c-1.1,0.4-1.9,1.9-1.4,2.7
		c0.5,0.9,7.1,1.3,9.1,0.6c1-0.3,2.1-1.2,2.6-1.9C599.9,207.7,599.8,207.3,598.3,206z"/>
	<path fill="#F31830" d="M452,424.8c-1.8,0.9-3.4,3.2-2.7,3.9c0.2,0.1,1.7-0.2,3.4-0.7c4.4-1.4,6.6-1.2,11.3,0.9
		c2.3,1,4.2,1.9,4.3,1.9s0.3-1.1,0.5-2.4c0.2-1.3,0.6-2.9,0.8-3.6c0.3-1.1,0.1-1.4-1.2-1.8c-0.9-0.2-2.6-1.4-3.8-2.8
		c-1.8-1.9-2.2-2.8-2.2-4.9c0-2.5-0.1-2.7-2.3-3.3c-1.3-0.4-2.7-0.7-3.1-0.7c-0.4,0-1.4-2.1-2.4-4.6c-1.3-3.4-2.1-4.8-3.3-5.3
		c-2.4-1.1-2.6-0.9-2.1,2.6c0.3,1.8,0.3,4.2,0,5.3c-0.5,1.9-0.4,2.1,1.8,2.9c2,0.8,2.5,1.4,3.1,3.8c0.5,1.6,0.6,3.9,0.4,5.3
		C454.2,423.3,453.7,424,452,424.8z"/>
	<path fill="#F31830" d="M546.4,444c-0.5,0-0.9,0.2-0.9,0.4c0,0.8,2.6,4.6,3,4.6c2.2-0.2,6.4-10.4,6.4-15.5c0-1.1-1-5.9-2.3-10.8
		c-1.8-7.1-2.1-9.5-1.8-12.1c0.4-3.2,0.3-3.3-1.5-4.3c-2.1-1.1-2.1-1.1-5.2-0.3l-2.3,0.6l2.4,5.2c2.7,5.7,3.1,9.3,1.5,12.4
		c-0.5,0.9-0.9,2.6-0.9,3.6c0,1.6,0.3,1.8,1.8,1.8c3.8,0,4.5,0.6,4.5,3.4C551.1,436.4,547.8,444,546.4,444z"/>
	<path fill="#F31830" d="M598.6,221c-0.6,0-1.9,0.2-3,0.3c-1.1,0.1-2.1,0.6-2.1,1c0,0.4-0.2,1.8-0.4,2.9c-0.4,2.2-0.3,2.3,2.8,3.7
		c3.6,1.7,5.1,1.2,5.1-1.7C601.1,224.4,599.7,220.9,598.6,221z"/>
	<path fill="#F31830" d="M639.7,240.4c-0.1,0.1-2,0.2-4.2,0.3l-4.1,0.3l1.9,1.2c1,0.7,2.9,1.3,4.2,1.3c2.1,0,2.3-0.2,2.3-1.6
		C639.8,240.9,639.8,240.3,639.7,240.4z"/>
	<path fill="#F31830" d="M481.2,26c-0.9,0.9-1,4.9-0.2,4.9c0.9,0,2.1-3.6,1.5-4.6C482.1,25.4,481.8,25.4,481.2,26z"/>
	<path fill="#F31830" d="M427.7,305.9c0.8,0,1.8,0.5,2.3,1.1c1.1,1.6,3.8,2.1,5.3,1.1c1.5-1,3.9-1.6,4.8-1.3
		c0.6,0.2,0.6,2.2,0.4,6.9l-0.4,6.6l1.9,1.8c1.1,1,2.4,1.8,3,1.8s1.3,0.3,1.4,0.6c0.2,0.3,1.1,0.6,1.9,0.6c1.6,0,2.4,1.6,3.8,8
		c0.5,2.2,1.8,5.4,2.8,7.3c2.2,3.8,2.4,6,0.7,6.4c-1.7,0.4-2.6,4.2-2.6,11.4c0,5.2,0.2,6.3,0.9,6.3c0.6,0,0.9-0.6,0.9-1.5
		c0-2.4,0.9-2.4,2.5-0.2c0.8,1.1,1.8,2.3,2.3,2.5c0.4,0.3,0.8,1.1,0.8,1.7c0,1.5,0.1,1.5,2.8,0.4c1.9-0.8,2.4-0.8,4.7,0.3
		c1.4,0.6,3.5,1.9,4.7,2.8c1.1,0.9,2.5,1.6,3.1,1.6c0.6,0,1.2,0.4,1.4,0.9c1,2.6,5.7-1.1,6.3-4.8c0.3-1.8,1.1-3.2,2.8-4.9
		c1.3-1.3,2.6-3,2.8-3.8c0.4-1.7,4.4-4.9,5.9-4.9c0.6,0,2.1,0.8,3.4,1.9c2.2,1.7,2.6,1.8,6.1,1.4l3.7-0.4l4.2,4.1
		c4.6,4.5,7.8,5.9,11.7,5.2c1.9-0.4,2.5-0.9,3.4-2.9c0.8-2,1.6-2.7,4.1-3.8c1.7-0.7,3.5-1.3,4.1-1.3c1.6,0,2.9-1.9,3.4-4.8
		c0.3-2.3,0.2-2.7-1.7-4.4c-1.1-1-3.3-2.8-4.9-3.9c-2.9-2.1-3.1-2.1-5.9-1.3c-6.5,1.8-7.5,1.6-9.9-0.8c-1.8-1.8-2.2-2.6-2.2-4.9
		c0-2.3,0.4-3.3,2.5-5.8c3.7-4.4,3.1-5.4-1.6-2.6c-2.8,1.7-4.7,1.9-5.8,0.8c-0.6-0.6-0.4-1.1,1.3-2.5c2.1-1.6,2.1-1.7,1-3.5
		c-1.4-2.4-0.9-4.1,2.7-8.4c3.3-3.8,3.7-4.9,2-4.9c-0.8,0-1.6-1-2.3-2.8c-1.4-3.5-0.9-7.5,1.2-10.7c0.8-1.2,1.8-3.1,2.2-4.3
		c0.4-1.1,1.4-2.6,2.3-3.1l1.6-1.1l-2.6-2.2c-2.4-2-2.6-2.4-2.6-5.5c0-3.2,0.1-3.5,2.3-5l2.3-1.6l2.3,2.3l2.3,2.3l2.4-1.3l2.5-1.3
		l0.3-4.6c0.4-5.3-0.4-7.6-3.6-9.9c-2.1-1.4-2.2-1.8-1.9-4.4c0.6-5.8,2.3-9.8,6.1-14.4c2.1-2.4,4.5-5.8,5.4-7.5
		c1.8-3.1,2.5-3.5,4.5-2.4c1.4,0.7,2,0.1,6-5.7c8.6-12.4,12.4-18.5,15.6-25.1l3.6-7.3l-1.7-2.7c-0.9-1.5-2.6-3.8-3.8-5.3
		c-1.7-2.1-2.1-3.1-2.1-5.6c-0.1-4.5-1.5-9.9-3.4-12.3c-1.9-2.5-6.4-4-10-3.3c-1.9,0.4-2.3,0.1-4.8-2.6c-1.5-1.7-3.3-4.3-3.9-5.8
		s-1.9-3.8-2.8-4.8c-1.4-1.9-2.9-7.8-4.2-17.1c-0.3-2.2-0.8-3.1-2.5-4.4c-1.1-0.9-3.1-2.8-4.3-4.3c-2.2-2.6-2.3-2.9-2.3-7.6
		s-0.1-4.9-1.8-5.8c-0.9-0.5-2.3-1.9-2.9-3.1c-1.3-2.4-2.1-2.6-6.1-1.7c-2.2,0.5-2.4,0.4-5.9-3.2c-4.3-4.4-9.5-7.6-13-8.1
		c-1.8-0.3-3.8,0.1-7.3,1.3c-2.6,0.9-6.8,2.9-9.2,4.3c-2.9,1.8-5.1,2.7-6.6,2.7c-3.2,0-4.2,0.6-4.2,2.3c0,3.3-5.9,12.1-8.1,12.1
		c-0.6,0-2.4,1.9-4,4.3c-2.8,4.1-2.9,4.4-2.5,7.7c0.3,2.6,0.1,4.1-0.9,6.5c-0.6,1.7-1.4,4.5-1.6,6.3c-0.3,1.7-1,4.1-1.6,5.1
		c-0.9,1.6-1.1,2.6-0.7,4.7c0.6,3.7-0.8,7.6-3.8,10.5c-2.3,2.2-2.4,2.6-2.4,6c0,2.1,0.3,4.6,0.6,5.7c0.5,1.6,0.4,2.3-0.6,3.6
		c-1.8,2.3-1.4,3.9,1.6,7.8c2.5,3.2,2.8,3.9,2.9,7c0.1,2.4-0.3,4.4-1.3,6.3c-1.1,2.5-1.3,3.4-0.7,6.2c0.7,3.8,0.8,7.7,0.3,10.5
		c-0.3,1.3-0.9,2-1.9,2.3c-1,0.3-1.5,0.9-1.5,1.7c0,2.3-1.2,3.6-6.5,6.8c-1.7,1.1-3,1.8-4.1,2.3v73.4
		C427,305.8,427.3,305.9,427.7,305.9z"/>
	<path fill="#F31830" d="M485.9,36.5c2.3-0.9,4.1-1.2,5.4-0.9c2.3,0.4,7,4.1,12,9.4c2.6,2.8,3.4,3.3,4.1,2.8
		c0.6-0.4,0.8-1.4,0.5-2.8c-0.3-1.7-1.7-3.3-7-8.1c-4.1-3.7-7.3-6.1-8.5-6.4c-1.8-0.4-2.1-0.2-4.3,2.4c-1.4,1.7-3,2.9-4.1,3.2
		c-1,0.3-1.9,0.7-2.1,1C481.4,38,482.3,37.8,485.9,36.5z"/>
	<path fill="#F31830" d="M555.1,100.9c1-1.1,0.9-1.3-0.8-3.1c-1.8-1.9-4.4-2.6-4.4-1.1c0,0.4,0.4,1.4,0.9,2.1
		c0.5,0.6,0.9,1.7,0.9,2.3C551.7,102.5,553.7,102.4,555.1,100.9z"/>
	<path fill="#F31830" d="M535.9,71.8l3.4,0.8l-3.3-3.4c-3.5-3.6-4.3-3.9-6.7-2.5l-1.4,0.8l2.3,1.8C531.4,70.2,534,71.3,535.9,71.8z"
		/>
</g>
</svg>
