<?xml version="1.0" encoding="utf-8"?>
<!-- Generator: Adobe Illustrator 17.1.0, SVG Export Plug-In . SVG Version: 6.00 Build 0)  -->
<!DOCTYPE svg PUBLIC "-//W3C//DTD SVG 1.1//EN" "http://www.w3.org/Graphics/SVG/1.1/DTD/svg11.dtd">
<svg version="1.1" id="flag-icon-css-ws" xmlns="http://www.w3.org/2000/svg" xmlns:xlink="http://www.w3.org/1999/xlink" x="0px"
	 y="0px" viewBox="0 0 640 480" enable-background="new 0 0 640 480" xml:space="preserve">
<g>
	<path fill="#CE1126" d="M319.4,287.4c2.7,0,2.8-0.1,3.1-2.1c0.2-1.1,0.1-3-0.1-4.2c-0.4-1.9-0.7-2.2-2.3-2.3
		c-1.1-0.1-2.8,0.3-3.9,0.9c-2.4,1.2-2.4,1.5-0.8,5C316.5,287.3,316.7,287.4,319.4,287.4z"/>
	<path fill="#CE1126" d="M299.9,270.3c0,1.3,0.3,1.6,1.9,1.6c1.6,0,1.9-0.2,1.9-1.6c0-1.3-0.3-1.6-1.9-1.6
		C300.2,268.7,299.9,269,299.9,270.3z"/>
	<path fill="#CE1126" d="M106.3,244.8l4,1.2c3.5,1,4.2,1.5,4.9,3c0.4,1.1,2.4,4.1,4.5,6.8l3.7,4.9l4.1-0.4c10.1-0.9,12.3-1.4,17.9-4
		c7.9-3.7,8.9-3.8,12.4-1.5c1.6,1.1,3.7,2.1,4.8,2.3c1.6,0.4,2.2,0.1,4.5-2.1c2.5-2.4,2.8-2.6,6.5-2.6c2.7,0,4.7-0.4,6.5-1.3
		l2.6-1.3l1.2,1.6c0.6,0.9,1.4,1.6,1.7,1.6c0.3,0,2.2-1,4.3-2.2l3.8-2.2l12.4,0.1l12.4,0.1l1.6-1.7c0.9-1,2.1-3.1,2.7-4.8
		c0.5-1.3,0.8-2,1.2-2.4H104.5c0.1,0.3,0.2,0.5,0.3,0.8L106.3,244.8z"/>
	<path fill="#CE1126" d="M565.5,295.4c0-0.5-7.5-1.8-10.5-1.8c-1.6,0-3.9,0.7-6.3,1.9c-4.3,2.2-5.3,2.3-6.2,0.7
		c-0.5-0.9-1.6-1.2-5.4-1.5c-4.6-0.3-4.9-0.4-7.7-3.1c-4.1-4-6.9-4.5-15.9-3.2l-7,1.1l-2.8-2.2c-1.6-1.2-3.9-3.3-5.1-4.7
		c-1.7-1.8-3.2-2.7-5.7-3.5c-1.9-0.5-4.7-1.9-6.3-3.2c-1.6-1.2-3.3-2-3.8-1.8c-2.2,0.8-5.4-0.6-8.5-3.7l-3.2-3.2l-0.6,2.9l-0.6,2.9
		l-5.3-3.2c-4.4-2.7-5.5-3.7-6.7-6c-1.3-2.6-1.9-3-6.3-4.9c-5-2.1-5.9-2.3-6.6-1.6c-0.2,0.2-3.8,0.6-8,0.9
		c-22.6,1.7-21.5,1.5-30.5,4.5c-4.7,1.6-9.8,3-11.5,3.3c-1.9,0.2-3.4,0.8-4.2,1.8c-2.2,2.5-8.7,4-17.7,4c-7.3,0-8.4,0.2-14.2,2.1
		l-6.2,2.1l-7.4,7.4c-8.3,8.3-8.9,9.5-7.5,16.3c0.6,3.1,1,3.6,5.3,7.3c4.6,3.9,4.9,4,12.4,5.8c4.2,1.1,8.5,1.9,9.5,1.9
		c1.9,0,1.9,0,0.9,1.6s-0.8,4.7,0.3,4.7c1.1,0,6.7,5,8.4,7.4c1.6,2.2,1.9,2.4,3.1,1.8c1.8-0.9,2.2-1.7,2.2-4.1c0-1.7,0.2-2,1.5-2
		c2.2,0,4.9,3.6,6.3,8.2c0.7,2.4,2.2,5.1,4.2,7.6c1.7,2.1,3.5,4.6,4,5.6c0.6,1.2,2.4,2.4,6,4.2c2.8,1.3,6.2,3.2,7.7,4.3l2.6,1.9
		l4-0.9c4.9-1.1,14.6-5.5,16.8-7.6c1.4-1.3,1.7-1.4,2-0.6c0.3,0.8,1.5,1,5.7,1c4.8,0,5.3,0.1,6.3,1.4c0.9,1.4,0.9,1.4-1.2,1.7
		l-2.1,0.3l3,3.2c1.8,2,3.5,3.3,4.4,3.3c1.7,0,18.5,4.2,20,5c1.8,0.9,5.8,6.8,6.8,9.9l0.9,2.8l6,0.2l6.1,0.2l4.7-2.8
		c6.2-3.6,9.3-4.4,14.7-3.8c4.1,0.4,4.4,0.6,7.1,3.5l2.8,3h4.5c3.7,0,5.3-0.4,8.6-1.9c2.7-1.2,5.2-1.9,7-1.9c1.6,0,3.9-0.3,5.2-0.6
		c1.9-0.6,2.8-0.4,5.6,0.8c2.8,1.2,5,1.6,12.7,2c5.2,0.3,12.1,0.5,15.6,0.4c3.4-0.1,13.6-0.2,22.7-0.3l16.5-0.1l5.6,2.3
		c3,1.3,5.7,2.4,6,2.4c0.7,0,1.3-2,1.8-6.2c0.2-2.4,1.4-6.2,2.7-9.3c1.4-3.2,2.2-6.2,2.2-7.8c0-2.5-0.1-2.7-4-5.2
		c-2.2-1.5-5.3-4-6.7-5.7c-2.1-2.5-3.2-3.2-6-3.9c-1.9-0.5-4.3-0.9-5.3-0.9c-1.5,0-2.4-0.5-3.6-2.1c-0.9-1.2-1.9-2.9-2.2-3.7
		c-0.4-1.1-1.3-1.7-3.2-2.2c-3.2-0.7-6.3-1.7-9-2.9c-1.8-0.7-2.1-1.1-2.1-3.3c0-2.2-0.2-2.6-3.2-4.6l-3.2-2.2l-1.9,1.6
		c-3.1,2.6-8,4.9-12.2,5.6l-3.9,0.7l0.4-2.6c0.2-1.4,0.7-2.7,1.2-3c0.4-0.2,3.2-1.3,6.3-2.4c3-1.1,5.8-2.2,6.1-2.4
		c0.8-0.8-4.9-4.4-7-4.4c-1.7,0-1.9-0.2-1.9-1.6c0-1.3-0.5-1.8-3.1-2.9c-2.1-0.9-3.1-1.6-3.1-2.4c0-1.4-0.9-2-4.5-2.7l-3-0.6
		l1.9-2.8C564.6,297,565.5,295.6,565.5,295.4z"/>
	<path fill="#CE1126" d="M634.7,381.7l-2.1-0.4l0.2,2.7l0.2,2.7l3,0.2l2.9,0.2v-2.2C638.9,382.6,638.8,382.5,634.7,381.7z"/>
	<path fill="#CE1126" d="M236.4,240.3l0.4,3.9c0.4,3.9,0.5,3.9,5.2,8.5l4.7,4.6l6.4,1.3c8.4,1.8,9.4,1.7,12.9-0.7
		c5.8-3.9,7-7.8,4.9-17.2c-0.1-0.2-0.1-0.5-0.2-0.7h-37.2L236.4,240.3z"/>
	<path fill="#002B7F" d="M226.2,239.5c1.4,0,4.2,0.2,6.3,0.4l1.1,0.1h37.2c-0.4-2.1-0.7-4.6-0.8-5.9c0-2.6,0.1-2.7,4.7-5.9
		c5.1-3.5,5.4-4.3,4-9.2c-1-3.3,0.5-6.1,6.1-11.7c5.7-5.6,5.9-7.3,2.1-12.7c-4.7-6.7-6.8-11.1-7.2-15.4c-0.4-4-2.3-8.5-5.7-13.9
		c-1.1-1.7-1.5-3.1-1.4-4.8c0.2-1.9-0.2-2.8-1.9-4.8c-1.1-1.3-3.9-5.2-6.1-8.6c-2.2-3.4-5.7-7.8-7.7-9.6c-2.7-2.6-4-4.4-5-7.2
		c-1.7-4.7-2.1-5.2-4.6-5.7c-1.5-0.2-2.2-0.8-2.7-2c-0.4-0.9-3-4.6-5.8-8.2c-3.3-4-5.9-8.1-7-10.6c-0.3-0.6-0.5-1.1-0.7-1.6
		l-11.5,7.7l3.4-14.4c-2.6-1.3-4.4-1.6-6.9-1.6c-2.5,0-4.2-0.4-5.7-1.2c-1.1-0.7-2.2-1.2-2.3-1.2c-0.2,0-1.4,0.9-2.6,2.1
		c-2.3,2-2.6,2.1-8.9,2.4c-6.7,0.4-15,2.4-17.9,4.5c-0.7,0.6-1.7,2.1-2.1,3.5c-0.5,1.9-0.9,2.4-1.6,2.2c-0.6-0.2-1.6-0.4-2.4-0.4
		c-1.2,0-1.4-0.2-1.1-1.7c0.2-1.2,0.1-1.6-0.6-1.3c-0.5,0.2-2.4,0.6-4.3,0.8c-2.7,0.3-4,0.1-6.7-0.9c-5.5-2.2-8.6-1.8-17.7,2.2
		l-8,3.5l-3-1.3c-4.7-2.1-7-1.7-14.3,1.9c-3.6,1.7-8.4,4.3-10.7,5.6c-2.1,1.2-3.2,1.8-4.5,2.1l1.7,6.6l-9.1-6.3
		c-3.8,0.1-5,0.5-10.3,2.7c-5.4,2.3-6.7,3-7.4,4.6l-0.9,1.9l-2.7-1.3c-1.7-0.9-2.6-1.6-2.4-2.2c0.2-0.5,0.5-1.5,0.7-2.3l0.4-1.4
		l-6.8,1.5c-3.7,0.8-9,2.2-11.7,3.2c-4.6,1.7-5.2,1.7-9,1.1c-2.2-0.4-5.8-1.3-8-2.1c-2.1-0.7-4.7-1.4-5.7-1.4
		c-1.1,0-1.9-0.2-1.9-0.5c0-0.2-0.8-1.4-1.8-2.6c-1.5-1.8-1.9-2-3-1.4c-1,0.6-2.1,0.4-5-0.6c-3.6-1.3-3.8-1.3-6.5-0.3
		c-1.5,0.6-4.5,2.7-6.7,4.7l-4,3.5l1.9,3.9c1.1,2.1,2.2,5,2.4,6.5c0.3,2,1.2,3.5,3.3,5.8c5.2,5.5,12.5,10.9,19.4,14.2
		c6.2,3,6.7,3.4,9,7c4.7,7.2,11.9,13.8,16.9,15.3c1.9,0.6,3,1.4,4,3c0.7,1.2,4.6,5.6,8.6,9.7c4.7,4.7,8.2,9.1,9.8,11.8
		c3.7,6.5,9.3,11.6,14.9,13.7c2.4,0.9,4.5,2,4.5,2.4c0,0.4,0.3,3.2,0.7,6.3c0.7,6.2,1.6,8.3,4.4,11.3c0.9,1,2.1,3.1,3,5.1h119.2
		C224.2,239.5,224.9,239.5,226.2,239.5z M180.1,229.3l-20.7-13.9l-19.9,14.1l6.5-24.9l-19.1-15.3l24.6-1.5l8.1-23.6l8.8,23.9
		l24.1,0.8l-19.1,16.3L180.1,229.3z M206.8,153.4l-10.3-6.5l-10.3,6.6l2.7-12.3l-9.1-8.3l11.9-1l4.6-11.6l4.8,11.6l11.9,1l-9.1,8.3
		L206.8,153.4z"/>
	<polygon fill="#FFFFFF" points="201.2,132 196.3,120.4 191.7,132 179.7,133 188.9,141.3 186.2,153.6 196.5,147 206.8,153.4 
		204,141.3 213.1,133 	"/>
	<polygon fill="#FFFFFF" points="168.3,188.1 159.5,164.2 151.4,187.8 126.8,189.3 145.9,204.5 139.4,229.4 159.3,215.3 
		180.1,229.3 173.3,205.2 192.4,188.9 	"/>
	<path fill="#FFFFFF" d="M101.8,116.7c-1.2,0.3-2.7,0.3-5.4,0.3c-0.7,0-1.4,0-2,0l9.1,6.3L101.8,116.7z"/>
	<path fill="#FFFFFF" d="M231.1,102.3c-1-2.1-1.9-3.1-3.6-4.1c-1.8-1.1-3.3-2-4.5-2.6l-3.4,14.4L231.1,102.3z"/>
</g>
</svg>
