<?xml version="1.0" encoding="utf-8"?>
<!-- Generator: Adobe Illustrator 17.1.0, SVG Export Plug-In . SVG Version: 6.00 Build 0)  -->
<!DOCTYPE svg PUBLIC "-//W3C//DTD SVG 1.1//EN" "http://www.w3.org/Graphics/SVG/1.1/DTD/svg11.dtd">
<svg version="1.1" id="flag-icon-css-ye" xmlns="http://www.w3.org/2000/svg" xmlns:xlink="http://www.w3.org/1999/xlink" x="0px"
	 y="0px" viewBox="0 0 640 480" enable-background="new 0 0 640 480" xml:space="preserve">
<g>
	<path fill="#FFFFFF" d="M5.4,296.6l1.4-1.8c1.6-2,2.1-7.3,0.7-7.8c-0.6-0.2-0.6-0.4,0-1.1c0.8-0.9,1.1-3.7,0.2-3.7
		c-0.2,0-1.4,0.9-2.4,2c-3.7,3.9-4.4,8.3-1.6,10.8L5.4,296.6z"/>
	<path fill="#FFFFFF" d="M280.4,176.7c-40.7,60-48,70.5-48.2,69c-0.1-1-1.6-13-3.1-26.7l-3-24.9l-60.8-23.4l-34.6-13.4H33.1
		c0.1,0.5,0.5,1.5,0.9,2.5c0.9,2.2,0.9,2.5-1.3,8.3c-1.2,3.3-2.2,6.7-2.2,7.6c0.1,0.9,0.2,3.9,0.4,6.7c0.4,5,0.4,5.1,2.6,6.3
		l2.2,1.3l-0.2,5.4l-0.2,5.5l-2,0.3c-1.7,0.2-2.9,1.6-8.1,8.4l-6.1,8.1l-4.7,1.6c-3.4,1.2-4.7,1.9-4.9,2.8c-0.1,0.7,0.6,3.9,1.5,7.1
		c1.2,4,1.8,8.1,2.1,12.8c0.2,3.9,0.7,7.5,1.2,8.3c0.6,1,0.7,2.5,0.4,4.8c-0.4,3-0.6,3.4-2.3,3.7c-1.7,0.4-1.8,0.6-1.4,2.9
		c0.4,2.2,0.3,2.4-1.2,2.8c-2,0.5-2.1,1.2-0.1,4.1c1.2,1.9,1.6,3,1.6,6.3c0,3.4,0.2,4.1,1.2,4.4c0.8,0.2,1.3,1.2,1.6,2.7
		c0.2,1.2,0.7,3.9,1.2,5.8c0.5,1.9,0.9,3.7,0.9,4c0,0.9-2.7-0.5-4.1-2.1l-1.4-1.6l-0.1,3c0,2.2-0.4,3.5-1.9,5.5l-1.9,2.7l2.1,0.7
		c1.1,0.4,3.4,0.7,5,0.7c4.7,0.1,5.8,0.9,8,6c1.1,2.5,2.8,5.3,3.8,6.3c1,0.9,1.8,2.4,1.8,3.2c0,1.2-0.2,1.4-1.9,1
		c-1.2-0.2-1.9-0.1-1.9,0.4c0,1.2,1,3.4,2.3,5h389.1c0.2-0.3,0.4-0.6,0.7-1.1c1.7-3.4,8.5-8.1,14.3-10.1c3-1,6.6-2.7,8.2-4
		c2-1.5,5-2.9,9.2-4.2c5.2-1.6,6.6-2.3,8-4c2.1-2.4,5-2.9,7.5-1.2c1.3,0.9,1.5,0.8,2.9-0.6c1-1.1,2.1-1.6,3.5-1.6
		c1.7,0,2.3-0.4,3.2-1.9c0.8-1.4,1.7-2,3.5-2.3c1.3-0.2,2.9-0.9,3.4-1.6c3-3.9,4.2-4.6,8.5-5.4c2.4-0.4,5.7-1.5,7.3-2.4
		c2.5-1.4,3.2-1.5,4.2-0.9c1.1,0.7,1.4,0.5,2.8-1.1c1.2-1.4,2.1-1.9,3.7-1.9s2.5-0.4,3.2-1.5c0.7-1.2,1.7-1.6,4.5-1.9
		c5-0.6,5.7-0.9,6.3-2.5c0.7-2.1,5.7-3.7,8.3-2.7c1.7,0.6,2.4,0.4,6.3-1.6c2.4-1.3,4.9-2.9,5.6-3.4c2.1-1.7,14.7-7.3,17.6-7.8
		c2.3-0.4,2.7-0.7,3-2.2c0.5-2.4,7.7-6.9,10.8-6.7c1.8,0.2,2.1,0,2.3-1.2c0.2-1.7,3.7-3.5,8-4.2c2.1-0.3,3-0.9,4.8-3
		c1.5-1.9,3.3-3.2,5.7-4.1l3.4-1.4v-4.5c0-3.7-0.2-4.7-1.2-5.6c-0.9-0.9-1.2-1.6-0.9-3c0.2-1.6,0-2.2-1.2-3.4c-1.1-1-1.4-1.9-1.2-3
		c0.2-0.9-0.1-2-0.9-2.8c-1.1-1.2-1.1-1.3,0.2-4.5c0.9-2.2,1.4-4.5,1.4-7.2c0-3.6,0.2-4.3,3.4-9.6c1.9-3.1,3.4-5.8,3.4-6.2
		c0-0.9,8-5.5,14.1-8c11.1-4.7,25.8-12,25.6-12.7c0-0.1-1.3-2.4-3.6-6.4H293.5C289.3,163.7,284.9,170.1,280.4,176.7z"/>
	<path fill="#F10600" d="M551.4,11.2c-0.6-0.1-48.8,17.7-106.9,39.6L338.8,90.4l-5.2,7.7c-2.4,3.6-19.3,28.6-40.1,59.3h341.6
		c-6.7-11.9-22-39-39.6-70.2C563.2,30,552.4,11.3,551.4,11.2z"/>
	<path fill="#F10600" d="M104.5,147.3l-9.3,1.9c-7.1,1.4-10.3,2.4-13.1,4l-3.7,2.1l-3.2-1.1c-2.8-1-3.5-1-6.3-0.3
		c-1.7,0.4-3.3,0.6-3.5,0.4s-1.7-2.2-3.3-4.4c-2.7-3.5-3.1-3.9-5.3-3.9c-1.3,0-3.5-0.4-5-0.9l-2.6-0.9l-8.1,6.2
		c-4.5,3.5-8.1,6.5-8.1,6.8c0,0,0,0.1,0,0.2h97.6L104.5,147.3z"/>
	<path d="M20.7,396.2c-1,2.7-0.9,3,1.1,3c1.4,0,2.3-0.7,4-2.8l2.3-2.8l-2.1,0.1c-1.1,0.1-2.7,0.2-3.4,0.4
		C21.9,394.2,21.1,395,20.7,396.2z"/>
	<path d="M27.1,323.8c0.9,0.8,2.5,3.8,3.5,6.5c1.1,2.8,2.7,5.8,3.7,6.9c0.9,1,2.3,3.6,3,5.7l1.3,3.9h-1.9c-2.1,0-2.1,0.1-0.8,4.1
		c0.6,2,1.8,3.8,3.5,5.3l2.6,2.3l0.1,7.5c0.1,8.8,0.1,8.8,7.4,14.9c4.5,3.8,4.8,4.2,4.8,6.5c0,1.7,0.6,3.4,1.9,5.4
		c3,4.8,3.9,7.7,2.8,10.5c-0.4,1.4-1.3,6.1-1.9,10.6c-1,7.7-1,8.3,0,11.4c1.7,5,2.7,6.8,6,10.1c2.7,2.7,3.2,3.9,4.8,9
		c1.6,5.3,1.9,6,3.8,7c2.1,1.1,2.1,1.1,2.2,5.5l0.1,4.5l2.2,0.5c1.9,0.4,2.7,0.1,5.4-1.7c1.8-1.1,3.5-2.1,3.9-2.1
		c0.4,0,2.3,1,4.4,2.2c2.8,1.6,4.4,2.2,6.6,2.2c1.8,0,4,0.6,5.9,1.6c4,2,9.5,2.1,13.1,0.3c3-1.6,3.1-1.6,3.1,0.3s0.6,1.9,3.7,0.3
		c1.4-0.7,3.1-1.2,3.9-1.2c0.8,0,2.2-0.8,3.2-1.9c1.1-1.2,2.4-1.9,3.5-1.9c1.3,0,2.6-1,5.8-4.7c4.1-4.6,4.2-4.7,7.2-4.7
		c1.7,0,3,0.2,3,0.4c0,0.3,0.6,1.2,1.2,2l1.1,1.5l1.9-1.4l1.9-1.4l1.3,2.6c1.5,2.9,1.3,2.9,8.2-0.2c4.7-2.2,4.7-2.2,5.8-1
		c0.8,0.9,1.7,1.2,3.3,1.1l2.2-0.2l0.4-6.8l0.4-6.8l3.3-3.3c2.9-3,3.6-3.4,6.7-3.7c5.8-0.7,8.3-2.6,11.9-9.2
		c4-7.5,7.2-10.4,12.7-12.1c2.3-0.7,5.9-1.3,8-1.3c3.4,0,4-0.2,7-2.6l3.4-2.6l4,0.7c3.9,0.7,4,0.7,6.4-0.9c2.1-1.4,2.7-1.6,4.2-1
		c2.4,0.9,9.8,0.7,12.3-0.2c1.7-0.7,3.6-0.7,10.1-0.3c7.5,0.6,8,0.6,9.7-0.7c1-0.7,2.4-1.2,3-1.2c1.2,0,8.5-3,21.6-9.1
		c4.5-2.1,9.5-4.2,11.2-4.7c3-0.8,3.3-1.1,7.8-7.7c6.3-9.2,9.1-12.6,11.1-13.1c0.9-0.2,3.7-2.4,6.2-4.8l4.6-4.4l6.3-0.2
		c6.4-0.2,6.4-0.2,8.6,1.7c3,2.6,5.7,2.6,8.5-0.1c1.9-1.9,2.4-2,7-2.1c3-0.1,5.5-0.4,6.3-1.1c0.8-0.5,3.5-1.1,6.1-1.3
		c3.9-0.4,5-0.7,6.4-2.1c2.2-2,7-8.5,9.8-13.2c1.2-2,2.6-3.7,3.2-3.9c0.7-0.2,1.1-1.4,1.4-4.4c0.3-3.4,0.8-4.6,2.4-6.6
		c1.9-2.4,2.1-2.4,4.6-2.1c1.7,0.3,2.3,0.3,2.9-0.3H26C26.4,323.1,26.8,323.5,27.1,323.8z"/>
	<path d="M20.7,379.2c0.7,0.4,1.2,1.3,1.2,2.2c0,1.2,0.3,1.6,1.6,1.6c1.5,0,1.6-0.1,1.6-4c0-3.9,0-4-1.9-4.4
		c-3.4-0.7-3.7-0.5-3.7,1.8C19.4,377.9,19.8,378.7,20.7,379.2z"/>
</g>
</svg>
