<?xml version="1.0" encoding="utf-8"?>
<!-- Generator: Adobe Illustrator 17.1.0, SVG Export Plug-In . SVG Version: 6.00 Build 0)  -->
<!DOCTYPE svg PUBLIC "-//W3C//DTD SVG 1.1//EN" "http://www.w3.org/Graphics/SVG/1.1/DTD/svg11.dtd">
<svg version="1.1" id="flag-icon-css-yt" xmlns="http://www.w3.org/2000/svg" xmlns:xlink="http://www.w3.org/1999/xlink" x="0px"
	 y="0px" viewBox="0 0 640 480" enable-background="new 0 0 640 480" xml:space="preserve">
<g>
	<path fill="#FFFFFF" d="M373.6,383c-0.7,0.4-1.3,0.9-1.3,1c0,0.4,4.9,3.1,6.2,3.5c1.2,0.3,1.3,0.2,1.3-1.6c0-1.7-0.1-1.9-1.9-2.8
		C375.7,382,375.2,382,373.6,383z"/>
	<path fill="#FFFFFF" d="M298.3,471.2c-0.4-0.1-1,0.3-1.4,0.9c-0.3,0.6-0.8,1.3-1.2,1.5c-1,0.6-0.8,3.8,0.2,4.7c0.8,0.8,1,0.8,2.2,0
		c1.1-0.7,1.2-1,1.1-3.9C299.1,472,298.9,471.3,298.3,471.2z"/>
	<path fill="#FFFFFF" d="M426.7,225.2c-1.5-1.2-3.5-3.6-3.7-4.7c-0.2-1.2-0.6-1.7-1.7-2.1c-1.9-0.7-1.7-0.7-3.8,0.9
		c-1,0.7-1.9,1.5-2,1.6c-0.1,0.1,0,1.5,0.4,3.1c0.6,2.9,0.6,2.9-0.8,4.3l-1.4,1.4l1.5,1.3c1.2,1,1.4,1.4,1,2.1
		c-0.4,0.7,0.1,2.7,0.7,2.7c0.1,0,1.7-0.7,3.6-1.6c1.9-0.9,4-1.7,4.7-1.9c0.5-0.1,1-0.4,1.4-0.9V225.2z"/>
	<path fill="#FFFFFF" d="M423.9,263.5c0.4-1,0.4-0.9-1-1.5c-0.7-0.3-1.7-1.2-2.2-1.9c-0.9-1.6-1.5-1.7-3.1-0.5
		c-1.1,0.9-1.1,0.9-0.2,1.9c1.1,1.3,4.1,2.8,5.3,2.8C423.2,264.3,423.8,263.9,423.9,263.5z"/>
	<path fill="#FFFFFF" d="M414.2,334.4c-0.1,0.1-0.2,1.2-0.2,2.3s-0.2,2.4-0.6,2.9c-0.5,0.7-0.3,1.2,1.3,3c1.3,1.5,2.2,2.1,3.1,2.2
		c1.1,0,1.3-0.2,1.6-1.6c0.1-0.9,0.2-2.9,0.1-4.5c-0.1-2.2-0.4-3-1.1-3.4C417.3,334.6,414.5,334,414.2,334.4z"/>
	<path fill="#FFFFFF" d="M305.2,368c1.3-1-0.5-4.6-2.2-4.5c-0.4,0-1,0.1-1.3,0.3c-0.3,0.1-0.6,0.7-0.6,1.3c0,0.7-0.5,1.4-1.4,1.9
		c-1.1,0.7-1.3,1.1-1.1,2c0.1,0.7,0.3,1.3,0.3,1.3C299.2,370.6,304.6,368.6,305.2,368z"/>
	<path fill="#FFFFFF" d="M215.5,345.5c0.9,0.2,2.4,0.9,3.3,1.6c1.6,1.1,1.8,1.5,2.5,5c0.4,2.1,1.1,4.9,1.5,6.3
		c0.4,1.4,0.7,3.1,0.7,3.9c0,1.8,0.8,3.1,1.9,3.1c0.7,0,0.9,0.3,0.9,1.6c0,1.2,0.3,1.9,1.5,2.8c0.8,0.7,1.7,1.2,2.1,1.2
		c0.4,0,1.3,0.7,2.1,1.4c0.8,0.8,1.6,1.4,1.9,1.4c0.8,0,0.5,2.3-0.5,2.9c-1,0.7-2,2.9-1.5,3.3c1.1,1,6-0.3,9.3-2.5
		c2.4-1.6,3.9-1.7,7.7-0.7c2.7,0.7,2.7,0.8,3.5,3.2c1.1,3.7,0.9,6.3-0.5,8.2c-1,1.4-1.2,2.1-1.2,5c0,5.8-0.7,7.7-3.2,9.7
		c-1.7,1.3-2.4,2.2-3.1,4.1c-0.9,2.6-3.3,4.7-5.3,4.7c-0.6,0-2.3,0.6-3.8,1.4s-3.2,1.5-3.9,1.6c-0.7,0.2-1.5,0.8-1.8,1.4
		c-0.6,1.2-1.8,1.9-4.3,2.4c-2.8,0.5-4.8,4.4-2.7,5.1c0.6,0.1,1.7-0.1,2.8-0.7c1-0.5,2.4-0.9,3-0.9c1.5,0,5,2.3,7.6,5
		c1.9,1.9,2.3,2.1,3.6,1.9c0.8-0.2,2.4-0.9,3.5-1.7c1.6-1.1,2.6-1.4,4.5-1.4c2.8,0,3.3-0.5,4.4-3.8c0.4-1.1,1.1-2,2.1-2.5
		c1.5-0.8,1.6-0.8,3.4,0.1c2.8,1.5,3.2,2.1,2.8,4.8c-0.2,1.4-0.1,3,0.2,4c0.4,1.1,0.4,1.8,0.1,2.2c-0.2,0.3-0.7,1.3-1,2.2
		s-1.1,2.5-1.8,3.5c-1.3,1.7-1.3,1.8-0.7,4.5c0.3,1.5,0.9,3.6,1.4,4.7l0.7,1.9l-1.6,3.1c-2.3,4.5-2.5,5.6-1,7
		c0.7,0.6,1.8,2.1,2.6,3.4c1.6,2.5,3,3,3.4,1.2c0.1-0.6,0.3-2.2,0.4-3.6c0.1-1.9,0.6-3.3,1.7-5.1c0.9-1.4,1.8-2.7,2.2-2.9
		c0.3-0.2,0.7-0.9,0.8-1.6c0.3-1.2,0.5-1.2,2.4-1c1.2,0.1,3.2,0.7,4.4,1.5c1.4,0.7,3.1,1.2,4.2,1.2h1.8l0.3,3
		c0.2,1.7,0.1,3.3-0.1,3.8c-0.4,0.7-0.2,1.6,0.7,3.6c0.6,1.5,1.1,3.3,1.1,3.9c0,1.2,1.3,1.5,1.7,0.4c0.2-0.4,0.8-0.7,1.4-0.7
		c1.7,0,4.4-1.5,4.4-2.4c0-0.5,0.6-1.3,1.3-1.8c2.5-2,6.9,0,7.4,3.3c0.2,1,0.8,2.4,1.4,3.2c0.6,0.7,1.1,1.6,1.1,2.1
		c0,0.5,0.3,1.4,0.7,2.2c0.8,1.6,2.6,2,2.6,0.5c0-1.3,1.2-1.5,2.2-0.5c0.5,0.5,1.4,0.9,2.2,0.9c3.1,0,4.7-0.7,7.2-3.3
		c2-2.1,2.4-2.8,2.4-4.2c0-1,0.3-2,0.7-2.3c0.4-0.3,1.1-1.4,1.6-2.3c0.5-1,1.3-1.9,1.9-2.1c0.7-0.2,0.8-0.5,0.6-1.1
		c-0.2-0.5-0.5-3-0.6-5.8l-0.2-5l3.7-2.1c2-1.2,4.2-2.6,4.9-3.1l1.3-1l2.4,0.9c2.9,1.1,4.4,2.8,5.4,5.7c0.4,1.2,1.1,2.4,1.5,2.7
		c0.3,0.3,0.7,1.2,0.7,1.9c0,0.7,0.5,3.3,1.1,5.7c0.6,2.4,1.3,5.3,1.5,6.4c0.3,2,0.4,2,2,2c3,0,3.8-0.4,3.8-1.9
		c0-0.7-0.2-1.5-0.5-1.6c-1.1-0.7-1.3-2.5-0.4-4.3c0.5-1,0.9-2.2,0.9-2.6c0-0.5,0.5-1.5,1.2-2.2c1.6-2,4.2-2.2,6.3-0.7
		c1,0.7,2.4,1.3,4,1.4c1.3,0.1,2.6,0.5,2.9,0.9c0.3,0.3,1.2,0.7,2.1,0.9c1.5,0.2,1.7,0.1,2.6-1.8c0.7-1.5,1.3-2.1,2.1-2.2
		c0.8-0.1,1.4-0.7,1.9-1.6c0.6-1.2,1-1.5,2.2-1.6c1.2-0.1,1.5-0.3,1.5-1.3c0-2,1.9-5.2,3.6-6c1.7-0.8,2.5-2.5,1.5-3.2
		c-1.1-0.7-9-0.5-10,0.3c-1.3,1-3.8,0.9-4.9-0.2c-0.5-0.5-1.2-1.8-1.7-3l-0.8-2.2h-2.4c-3.3,0-8.9-2.6-10.2-4.6
		c-0.5-0.8-1.6-1.8-2.5-2.2c-2.1-1-3.3-3.6-2.9-6.3c0.5-3.3-0.8-5.4-4.8-8c-3.3-2.2-3.3-2.2-3.3-4.3c0-1.1-0.2-2.2-0.5-2.4
		c-0.6-0.3-0.2-2.8,0.6-4.6c0.4-0.8,1.1-1.3,3-1.6c2.5-0.5,3.3-0.4,9,1.2c0.9,0.3,1,0.2,0.7-0.6c-0.3-0.5-0.6-2-0.8-3.2
		c-0.5-3.6-1.6-6.5-3.1-8c-1.9-1.8-1.9-4,0-6.8c4-5.9,3.5-5.5,6.4-5.8c3.9-0.4,4-0.5,3.7-2c-0.7-3.3-0.8-4.9-0.3-6.2
		c0.9-2.3,2.4-2.8,6.8-2.3c4.3,0.5,4.5,0.5,8.9,2.6c3.4,1.6,9.3,3,12.4,3c3.6,0,1.6-2.5-2.9-3.5c-0.7-0.1-2.2-1.5-3.5-3
		c-1.5-1.9-2.7-2.8-3.4-2.8c-1.5,0-1.7-1.2-0.8-4c0.8-2.7,0.6-3.9-1.1-6.3c-1.1-1.5-1.3-6.9-0.3-7.9c0.3-0.3,0.8-1.8,1-3.3l0.5-2.7
		l2.4-0.1c1.9-0.1,2.6-0.4,3.1-1.2c0.4-0.6,1.6-1.3,2.7-1.6c4.4-1.3,7.4-2.9,7.8-4.3c0.2-0.7,0.9-1.9,1.6-2.7
		c1.1-1.3,1.5-1.5,3.6-1.5h2.3l0.5-2.2c0.3-1.2,0.5-2.2,0.4-2.3s-0.6-0.4-1.2-0.7c-0.7-0.3-1.1-1-1.1-1.7c0-1,0.4-2,2.5-6.3
		c0.5-0.9,1-1.2,2.6-1.3l2-0.1v-2.2c0-4.1-0.2-4.3-3.4-4.3c-1.6,0-3.7,0.3-4.8,0.7c-1.7,0.7-2.1,0.7-3.6,0L391,304V301
		c0-2.4,0.2-3.4,0.9-4.3c2.1-2.7,0.7-4.2-4.1-4.5c-3.2-0.2-3.6-0.3-5.3-2c-1-1-2.4-3.1-3.2-4.7c-0.7-1.6-1.8-3.2-2.3-3.6
		c-1-0.7-1.2-0.7-2.3,0.2l-1.2,1l-0.3-2.2c-0.2-1.2-0.7-2.7-1.2-3.2c-2-2.2-2.1-2.9-0.8-4.8c1.5-2.2,1.5-2.7-0.3-3.4
		c-1.9-0.8-2.6-2-3-5c-0.4-2.9,0.3-4.5,2.8-6.6c0.9-0.7,1.9-2,2.3-2.8c0.4-0.7,1.2-1.7,1.8-2.2c1.3-1,0.6-1.7-2-1.7
		c-1.9,0-2.8-0.7-2.8-2.2c0-3,4.6-7.7,8.8-8.8c3.6-1,3.9-1.4,3.6-3.6c-0.2-1.3,0-2.2,0.7-3.3c0.5-0.8,0.9-2,0.9-2.5
		c0-0.5,0.9-2.3,2-4.1c1.5-2.3,2.3-3.1,3.1-3.2c0.9-0.1,1.4-0.6,2.1-2.5c0.7-2,1.4-2.7,4-4.5l3.1-2.2l0.3-4.5
		c0.4-5.6,1.1-7.1,3.5-7.5c1.9-0.3,5.2-2.2,5.2-3c0-1.2,3.1-3.2,5.3-3.5c1.5-0.2,2.7-0.7,3.3-1.4c0.6-0.6,1.5-1.3,2-1.5
		c0.9-0.5,1.2-0.3,2.2,1.1c0.9,1.2,1.6,1.6,2.6,1.6c2,0,2.8-0.9,3.1-3.5c0.3-2.2,0.2-2.4-1.7-4.6c-1.1-1.2-2.7-2.5-3.6-2.9
		c-0.9-0.4-1.8-1.2-2.2-2c-0.3-0.7-0.8-1.7-1.2-2.1c-0.9-1-0.3-1.8,1.3-1.8c1.6,0,2.3-1.1,2.3-3.2c0-0.8,0.5-2.2,1.2-3.1
		c0.7-0.9,1.2-2.2,1.2-2.8c0-2,1-3.5,2.4-3.5c0.5,0,0.8-0.1,1-0.2v-4.9c-0.1-0.3-0.3-0.6-0.5-1c-0.8-1.4-1.6-3.7-2-5.1
		c-0.6-3-1.5-4.2-4-5.5c-1-0.5-4-3-6.6-5.4l-4.7-4.5h-2.6c-1.8,0-2.8-0.2-3.2-0.7c-0.3-0.4-1.6-1.3-2.9-2.1c-1.8-1-2.7-1.3-4.1-1.1
		c-1.4,0.2-1.8,0.1-1.8-0.4c0-0.4-0.3-1-0.7-1.3c-1-0.8-0.8-1.8,0.5-3.1c1.3-1.2,1.5-3.1,0.6-5.1c-0.7-1.4-1.4-1.5-2.5-0.2
		c-0.7,0.7-1.5,0.9-3.6,0.9c-1.6,0-2.9-0.2-3.2-0.6c-0.2-0.3-0.9-1.1-1.5-1.8c-0.5-0.7-1.5-1.7-2.2-2.2c-1.3-0.9-1.3-0.9-3.8,0
		c-1.7,0.6-2.7,0.7-3,0.4c-0.3-0.3-1.8-0.5-3.5-0.5c-3.1,0-4.2-0.4-5.8-1.9c-0.7-0.7-1.5-0.9-4.1-0.9c-2.3,0-3.4-0.2-3.8-0.7
		c-0.8-1-3.1-0.9-5,0.3c-0.9,0.5-2.7,1.1-4.1,1.2c-2.5,0.2-2.5,0.2-5.9-2.5c-1.9-1.5-3.8-3.5-4.3-4.4c-1.3-2.5-3.2-4.6-4.2-4.6
		c-0.6,0-1-0.5-1.2-1.4l-0.3-1.4l-1.3,1.4c-0.7,0.7-1.5,1.4-1.8,1.4c-0.9,0-0.5,1.7,0.7,2.8c1,0.9,1.2,1.5,1.1,3.6
		c-0.1,2.3-0.2,2.5-1.2,2.5c-1.9,0-2.9,0.8-4.3,3.6c-2.9,5.7-7.3,8.1-10,5.5c-1.1-1.1-1.9-2.9-2.3-5.7c-0.1-0.7-0.8-1.2-2.3-1.7
		c-1.2-0.4-2.6-1.1-3.1-1.5c-0.9-0.8-0.9-0.8-0.7,0.1s0.1,1-4.4,1c-2.6,0-5.2-0.2-5.9-0.5c-0.9-0.4-1.4-0.4-1.8,0
		c-0.5,0.4-0.8,0.4-1.3-0.2c-0.5-0.6-0.5-0.9,0.2-1.6c0.7-0.8,0.7-0.9-1.6-2.1c-3-1.5-4.4-4-4.3-7.7l0.1-2.5l-3.8-3.8l-3.7-3.8v-2.8
		c0-2.3,0.2-3,1.1-3.8c1.1-1.1,2.9-1.4,3.4-0.6c0.1,0.2,1.1,0.5,2.1,0.5h1.7l-0.3-2.9c-0.4-3.4-0.9-4.2-2.3-3.3
		c-1.4,0.9-2.2,0.7-5.2-1.1c-1.7-1-3.2-1.6-3.9-1.5c-0.7,0.1-1.6-0.3-2.2-0.8c-0.6-0.6-1.7-1.1-2.5-1.3c-4.6-0.9-7.3-3.6-7.3-7.5
		c0-1.7,0.2-2.2,0.9-2.4c0.5-0.1,0.9-0.5,0.9-0.7c0-1-2.2-2.9-3.7-3.2c-1.2-0.3-1.8-0.8-2.4-2c-1-1.9-2.2-2.4-5-2.3
		c-1.1,0.1-2.2,0-2.5-0.3c-0.7-0.7,0.2-3.2,1.6-4.9c1.8-2.2,1.6-2.9-0.7-2.7c-1.7,0.1-2.2,0-2.9-0.9c-0.7-0.8-1.4-1.1-2.7-1.1
		c-1.6,0-1.9-0.1-2.4-1.6c-0.5-1.4-0.8-1.6-2.7-1.8c-5.8-0.7-6.4-0.9-7.3-2.1c-1.4-1.9-0.5-2.9,4.2-4.9c6.9-3.1,10.1-4.1,13.4-4.4
		c2.7-0.2,3.3-0.5,3.9-1.5c0.7-1.1,0.7-1.2-0.3-0.9c-0.7,0.2-1.7-0.1-2.9-0.7l-1.8-1l0.3-2.6c0.3-2.8,1.3-4.7,2.4-4.7
		c0.9,0,2.9-1.4,2.9-2.1c0-0.3-0.7-1.4-1.5-2.3l-1.5-1.8l-1.9,2.8c-1.1,1.5-2.3,3.4-2.7,4.2c-0.6,1.1-1.1,1.5-1.9,1.5
		c-0.6,0-1.5,0.5-2,1.2c-1.1,1.4-2.9,1.5-4.8,0.5c-1.9-1.1-2.8-0.9-2.8,0.7c0,0.7,0.3,1.5,0.7,1.7c0.6,0.4,0.6,0.7,0.1,2
		c-0.3,0.9-1.1,2.4-1.8,3.3c-1,1.5-1.5,1.8-3.4,2c-3.2,0.4-4.4,1.3-5.1,3.8c-0.4,1.5-0.8,2.2-1.5,2.4c-2.4,0.7-2.6,1.4-2.6,7.3
		c0,5.1-0.1,5.6-1.1,6.8c-1.1,1.3-1.3,1.3-6.3,1.5c-3.5,0.1-4.8,0.1-5.6-0.2v4.8c0.4,0.5,0.8,1,1,1.6c1,2.5,1,2.8-1,6v91.7
		c0.2,0.2,0.4,0.4,0.6,0.6c1.2,1,1.6,1.8,1.6,2.8c0,1.5,1.2,2.2,4.5,2.6c1.7,0.2,2.3,0,4.2-1.3l2.2-1.5l2.5,0.8
		c3.3,1,8.5,4.4,9.7,6.3c0.5,0.8,1.1,1.5,1.3,1.5c0.1,0,1.3-0.4,2.4-0.9c1.7-0.7,2.4-1.4,3.4-3.2c1.2-2.1,1.5-2.4,2.8-2.4
		c1.5,0,1.5,0.1,1.2,1.4c-0.2,0.9,0,1.7,0.4,2.2c0.4,0.4,1.1,1.5,1.5,2.3c0.7,1.5,0.7,1.5-0.4,2.1c-1.1,0.5-1.2,0.8-1.3,3.6
		c0,1.7-0.1,3.7-0.1,4.4c0,1.7-5.2,5.8-7.8,6.2c-2.3,0.4-2.3,1.1,0.3,4.1c1.5,1.8,2.1,3,2.3,4.6c0.2,1.2,0.6,2.4,0.9,2.6
		c0.3,0.2,2.1,0.4,3.8,0.4c1.8,0,4.7,0.2,6.5,0.4c3.6,0.4,4,1.1,1.8,3.2c-1.1,1.1-1.7,1.3-3.9,1.3c-2.2,0-2.8,0.2-3.7,1.2
		c-1,1.1-1.1,1.6-1.3,7.4c-0.1,5.8-0.1,6.2,0.8,7c0.6,0.5,1,1.5,1,2.2c0,1.1,0.3,1.5,2,2.2c2.4,1.1,4.1,3.5,4.1,5.8
		c0,2-0.4,2.6-2.4,3.8c-1.7,1.1-1.6,0.4-1.8,9.6c0,1.4-0.5,2.8-1.5,4.3c-1,1.6-1.4,2.9-1.4,4.4v2l2.5,0.5c1.3,0.3,3.3,0.7,4.3,0.8
		c1,0.1,2.2,0.6,2.7,1c0.7,0.6,1.4,0.7,3.4,0.4c2.3-0.2,2.7-0.1,4.9,1.3c2.2,1.4,2.3,1.6,2.2,2.9c-0.4,2.5-1.6,3.2-5.9,3.6
		c-2.2,0.2-4.8,0.6-5.9,0.8c-1.8,0.5-2.3,0.4-3.6-0.2c-1.7-0.9-3-0.6-3,0.7c0,0.5-0.6,2.2-1.4,3.6c-1.1,2.2-1.8,2.9-3.3,3.6
		c-1.6,0.7-2.2,0.8-3.3,0.4c-1.2-0.5-1.5-0.4-2.5,0.9c-2,2.3-1.5,3.6,2.1,5.6c2.4,1.5,3.2,2.2,4.1,4c1.4,2.8,2.9,4.4,4.2,4.4
		c0.6,0,1.5,0.6,2.2,1.5c1.2,1.4,1.4,1.5,4.2,1.3c1.6-0.1,3.3,0.1,3.9,0.4c0.6,0.3,1.3,0.6,1.5,0.6s1.4,0.7,2.4,1.5
		c1.5,1.3,1.8,1.7,1.8,3.3c0,1.3,0.5,2.7,1.8,4.9c1,1.7,2.2,4.1,2.7,5.3c0.5,1.4,1.2,2.4,1.9,2.8c0.6,0.2,1.4,1,1.9,1.7
		c0.4,0.7,1.2,1.2,1.6,1.2c0.6,0,1.1,0.6,1.6,1.8c0.7,1.7,0.7,1.7,2.8,1.6c2-0.2,2.2,0,4.2,2c1.1,1.2,2.3,2.6,2.6,3.1
		c0.7,1.3,2.4,2.3,5,3l2.2,0.6l1.3,4.2c1.1,3.5,1.3,4.7,1,7.1c-0.2,2.7-0.2,3,0.8,3.8c0.6,0.5,1.5,0.9,2.2,0.9c0.9,0,1,0.2,1,2.1
		c0,1.8,0.3,2.5,3,5.8c2.7,3.4,3,4.1,3.3,6.4c0.2,2,0.6,2.8,1.4,3.5c1,0.8,1.1,1.3,1.1,4.4c0,2.9-0.2,3.8-1,5c-0.9,1.3-1,1.5-0.2,2
		c0.6,0.4,0.9,1.5,1.1,3.8c0.3,3.3,0.3,3.3-1.4,4.8c-2.2,2.1-8,3.8-13.9,4.2c-4.2,0.2-4.7,0.1-8.3-1.2c-4.1-1.6-5.3-2.8-5.3-5.2
		c0-1.2-0.3-1.5-1.6-2.2c-0.9-0.3-2.4-0.7-3.4-0.7c-1.1,0-2.1-0.3-2.4-0.7c-0.3-0.4-1.3-0.7-2.1-0.7s-1.8-0.3-2.2-0.7
		c-0.3-0.4-1-0.7-1.7-0.5c-0.7,0.1-1.1,0-1.1-0.4c0-1.2-1.6-2.1-3.4-1.8c-2.7,0.4-4.2-0.2-6.8-3c-2.8-3-3.7-5.2-4.2-10.5
		c-0.3-3.2-0.2-3.7,0.7-5.3c0.9-1.5,1-2.2,0.8-4.3c-0.2-2.1-0.6-3-2.2-4.8c-1.3-1.5-1.9-2.7-2-4c-0.1-1.6-0.3-1.9-1.7-2.2
		c-0.8-0.2-5.4-0.3-10.1-0.1c-4.7,0.1-11.6,0.3-15.3,0.4c-5.7,0.1-7.1,0.2-8.4,1c-0.6,0.3-1,0.6-1.3,0.8v4.8
		C213.8,345.1,214.5,345.3,215.5,345.5z"/>
	<path fill="#00267F" d="M212.7,59.1c-1.3-1.2-4.6-1.2-5.9,0c-0.6,0.5-1,1-1,1.2c0,0.6,3.1,2.4,4.2,2.4c1.3,0,2.5,0.6,3.4,1.6v-4.8
		C213.1,59.4,212.9,59.2,212.7,59.1z"/>
	<path fill="#00267F" d="M151.2,15.8c0.3-0.1,1.2-0.1,2.2-0.1c2,0,6.7,2.9,7.2,4.4c0.5,1.5-1.1,4.6-2.4,4.6c-1.4,0-3,2.2-3,4.2
		c0,1.1,0.2,1.5,0.8,1.5c1,0,2.2-1.3,2.5-2.6c0.2-1.1,2.2-1.5,4.1-0.7c1.8,0.7,3,0,3.7-2.2c1.3-4.1,3.5-6.3,7-6.9
		c1.8-0.3,3.3-1.4,4.1-2.9c0.7-1.3,0.3-1.5-2.1-1.5c-2.7,0-4.6-1-5.1-2.7c-0.5-2.2-1.5-3.4-2.8-3.4c-0.8,0-1.3-0.4-1.7-1.3
		c-0.9-2.3-1.1-2.5-3.3-3.4c-1.2-0.4-2.8-1.3-3.6-1.8c-1.6-1.1-1.8-1.2-3.3-0.4c-0.7,0.3-1.3,1.1-1.5,1.8c-0.6,2.2-3.3,6.5-4.1,6.5
		c-0.4,0-1.5,0.2-2.4,0.5l-1.6,0.5v3v3l2.3,0C149.7,15.9,151,15.9,151.2,15.8z"/>
	<path fill="#00267F" d="M213.1,72.2c-1.5,2.5-2.1,2.9-2.6,2.5c-1.1-0.9-1.7,0.3-1.6,3.1c0.1,3.3-0.6,4.7-2.1,4.3
		c-0.7-0.2-2,0.1-3.6,1c-2.2,1.1-2.9,1.2-5.9,1.1c-3-0.1-3.7-0.3-5.2-1.5c-1.5-1.3-1.8-1.3-3.2-0.8c-1.4,0.5-1.5,0.7-1.4,1.9
		c0.2,1.1,0,1.5-1.4,2.3c-0.8,0.5-1.5,1-1.5,1.1c0,0.1,0.4,1.4,0.9,2.9c1.1,3.2,1.2,5.1,0.2,5.8c-0.4,0.3-0.7,1.3-0.7,2.2
		c0,1.3-0.2,1.7-1.2,2.2c-0.9,0.4-1.2,0.8-1.2,2.2c0,1.4-0.2,1.8-1.2,2.2c-0.6,0.3-1.8,1.4-2.6,2.5c-1.7,2.3-2.6,3-4.7,3.6
		c-1.4,0.4-1.6,0.6-1.5,1.7c0,0.7,0.4,1.5,0.7,1.7c0.9,0.6,3.3,0.4,4.4-0.3c1.5-1,6.6-1.3,8.5-0.5c1.1,0.4,2.4,0.6,3.7,0.4
		c1.8-0.2,2.2-0.1,3.2,0.8c1.1,1,1.2,1.5,1.2,4.8c0,3.9-0.4,5.1-2.9,8.7c-1.7,2.3-5.6,4.7-8.5,5.1c-1.9,0.2-2.1,0.4-2.1,1.5
		c0,1-0.3,1.4-1.5,1.9c-1.9,0.8-3.2,3.5-3.2,6.5c0,1.9,0.2,2.4,1.5,3.6c2,1.9,4.7,3.5,5.9,3.5c0.6,0,1.3,0.6,1.9,1.6
		c0.5,0.9,1.3,1.8,1.7,1.9c0.4,0.2,0.7,0.7,0.7,1.1c0,1.7,0.7,1.9,2.5,0.7c0.9-0.7,1.7-1.5,1.7-2c0-1.5,1.4-2.9,2.9-2.9
		c0.9,0,1.4,0.2,1.4,0.7c0,0.4,0.2,0.7,0.4,0.7s0.7-0.3,1-0.7c1.4-1.7,3.7-0.2,6.4,4c1.5,2.4,1.9,2.8,3.1,2.8c1.7,0,4.4,2,4.8,3.6
		c0.1,0.5,0.7,1.3,1.3,2V71.9C213.2,72,213.2,72.1,213.1,72.2z"/>
	<path fill="#00267F" d="M213.3,340.1c-0.9,0.7-1,1.3-1,2.8c0,1.2,0,1.7,1,2V340.1z"/>
	<path fill="#F31830" d="M427.3,164.2c0.2-1.2,0.1-2-0.6-3.3v4.9C427,165.5,427.1,165.1,427.3,164.2z"/>
	<path fill="#F31830" d="M429.8,262.3c0,0.5,0.8,1.2,2.2,1.8c2.8,1.3,6.7,1,7-0.5c0.3-1.5-1.2-2.2-5.4-2.2
		C430.4,261.5,429.8,261.6,429.8,262.3z"/>
	<path fill="#F31830" d="M501.9,187.3c0-2.4-1.1-4.3-3.5-5.7l-2.1-1.2v-3c0-3.8-0.9-5.7-5-10.5c-1.7-1.9-3.3-4.2-3.6-4.9
		c-0.7-1.6-2.4-3.3-3.8-3.7c-0.7-0.2-1.3,0.1-2.4,1.6c-0.8,1-1.9,2.8-2.4,4s-1.3,2.2-1.6,2.4c-0.4,0.1-1.1,1-1.5,2
		c-0.5,1.2-1.4,2.1-3.1,3.1c-2.1,1.2-2.4,1.7-2.6,3c-0.1,1.2-1,2.4-4.2,5.6c-4,4-4.1,4.1-5.9,3.8c-1.4-0.2-1.9-0.5-2-1.2
		c-0.2-1-0.9-2.1-1.5-2.1s-2.2,3.4-2.6,5.1c-0.4,1.9-1.7,2.3-5.3,1.6c-3.2-0.6-4.7,0.2-4.7,2.5c0,1.2,0.2,1.5,1.2,1.8
		c0.7,0.2,2.3,0.7,3.7,1.3c2.2,0.8,2.5,1.1,2.9,2.7c0.4,1.7,0.5,1.7,2.7,2c4.8,0.5,12.4,7.2,14.1,12.5c0.4,1.2,1.7,3.2,2.8,4.5
		c2.9,3.3,3.5,4.5,3.6,8.4s1.1,5.9,2.9,5.9c2,0,3.9,1.5,4.4,3.3c0.3,1.3,0.8,1.9,2.4,2.7c1.7,1,2.1,1,2.9,0.4c0.9-0.7,0.9-0.7,0-1.5
		c-1.2-1.1-2.2-4.2-2.8-9.2c-0.7-5.5-0.2-7.7,2.2-8.7c1-0.4,2.4-1.3,3.2-1.9c0.9-0.7,2.2-1,3.5-1c1.8,0,2.2-0.2,3.5-2
		c0.8-1.1,1.7-2.8,2.1-3.8c0.5-1.6,0.5-2-0.4-3.8c-0.5-1.1-1.1-2.9-1.3-4.1c-0.3-1.9-0.1-2.4,1.3-4.4c1.6-2.3,1.6-2.3,2.9-1.7
		c0.7,0.4,1.5,0.5,2,0.4c0.6-0.3,0.6-0.6-0.5-2.3C502.4,189.9,501.9,188.3,501.9,187.3z"/>
	<path fill="#F31830" d="M465.3,148.4c1.2-0.3,1.5-2.2,0.3-2.7c-1-0.4-0.9-0.4-1.5,0.3c-0.3,0.3-0.6,1.1-0.7,1.6
		C463.2,148.8,463.5,148.9,465.3,148.4z"/>
	<path fill="#F31830" d="M427.5,230.4c1-1.6,1.4-4.5,0.5-4.5c-0.3,0-0.7-0.3-1.3-0.7v6.1C427,231.1,427.2,230.8,427.5,230.4z"/>
	<path fill="#F31830" d="M443.1,172.2c-0.2,0-0.7,0.1-1.2,0.3c-0.8,0.2-2,2.2-2.5,4.5c-0.2,1.1-0.1,1.3,0.5,1
		c0.4-0.1,1.2-0.3,1.6-0.3c0.5,0,1-0.6,1.4-1.5C443.5,174.6,443.6,172.1,443.1,172.2z"/>
	<path fill="#F31830" d="M440.9,157.6c-0.6,0-1.5-0.1-1.8-0.2c-0.4-0.1-0.8-0.1-1,0c-0.6,0.6-0.4,0.9,0.8,1.5c1.9,0.8,3,0.7,3-0.4
		C442,157.9,441.7,157.6,440.9,157.6z"/>
	<path fill="#F31830" d="M442,247.3c0,0.2,0.6,0.9,1.2,1.6c1,1,1.4,1.2,2.2,0.8c0.9-0.5,0.9-0.5-0.1-1.6
		C444.3,247.1,442,246.5,442,247.3z"/>
</g>
</svg>
