<?xml version="1.0" encoding="utf-8"?>
<!-- Generator: Adobe Illustrator 17.1.0, SVG Export Plug-In . SVG Version: 6.00 Build 0)  -->
<!DOCTYPE svg PUBLIC "-//W3C//DTD SVG 1.1//EN" "http://www.w3.org/Graphics/SVG/1.1/DTD/svg11.dtd">
<svg version="1.1" id="flag-icon-css-za" xmlns="http://www.w3.org/2000/svg" xmlns:xlink="http://www.w3.org/1999/xlink" x="0px"
	 y="0px" viewBox="0 0 640 480" enable-background="new 0 0 640 480" xml:space="preserve">
<g>
	<path fill="none" d="M156.8,165.9C156.8,165.9,156.8,165.9,156.8,165.9l109.9,74.2L156.8,165.9z"/>
	<polygon fill="none" points="116.2,461.6 120.4,458.7 120.4,458.7 116.2,461.6 	"/>
	<path fill="none" d="M162.5,480c1.8,0.2,3.9,0.4,5,0.6c2.3,0.4,2.6,0.3,2.6-0.6H162.5z"/>
	<path fill="none" d="M97.2,354.4C97.2,354.5,97.2,354.5,97.2,354.4l169.5-114.4L97.2,354.4z"/>
	<path fill="none" d="M528.8,289C528.8,289,528.8,289,528.8,289l-157.3-0.1L126.2,454.8c0,0,0,0,0,0L371.4,289H528.8z"/>
	<path fill="none" d="M211.8,240l-54.1-36.3c0,0,0,0,0,0.1L211.8,240L211.8,240z"/>
	<path d="M157.7,203.8c0.3,14.8,0.6,27,0.6,29.3v5.2l-3.8,2c-2.1,1.1-4.3,2-4.8,2c-0.6,0-2.1,0.5-3.4,1.2c-2,1-2.5,1.4-2.7,3.2
		c-0.5,2.7-1.3,3.3-5.6,4l-3.5,0.6v3.7v3.6l-2.1,0.8c-2,0.7-2.3,0.6-5.1-0.8c-4.3-2.1-10.8-2.5-15.3-0.9c-1.8,0.6-5.2,1.3-7.7,1.4
		c-4.4,0.3-4.6,0.3-9.4-1.9c-5.2-2.3-6.3-2.5-9.6-1.9c-1.8,0.4-2,0.3-2-0.6c0-1.6-3.5-2.6-6.6-1.8l-2.4,0.5l-0.3-2.1
		c-0.2-1.1-0.7-2.8-1.2-3.7c-0.6-1.3-0.7-1.9-0.2-3.5c0.7-2.1,0.4-4.3-0.9-7.3l-0.9-2l-1.6,1.4c-1.3,1.3-1.7,1.4-2.4,0.8
		c-0.4-0.4-0.8-1.5-0.8-2.5c0-1-0.2-2.3-0.5-2.8c-0.7-1.3-3.8-1.8-6.5-1.1c-2.2,0.6-3,1.3-6.1,5.1c-1.4,1.8-1.5,1.9-0.6,3.3
		c0.8,1.3,0.8,1.5-0.1,3.8c-1.1,2.9-4.7,6.9-7,7.7c-0.9,0.3-2,1.3-2.6,2.2l-1,1.6l1.8,2c1,1.1,2.4,2.9,3,4c0.7,1.1,2,2.5,3,3.1
		c1.2,0.7,1.9,1.7,2.1,2.7c0.2,0.9,1.1,2.5,1.9,3.5c2.1,2.4,6.2,10.6,6.7,13.4c0.2,1.1,1.4,3.8,2.7,5.8c1.7,2.8,2.4,4.6,2.7,7
		c0.4,3.2,2.3,8.7,4.9,14.2c0.8,1.6,1.7,4.1,2.1,5.5c0.4,1.4,1.6,3.9,2.7,5.4c1.9,2.5,3.5,5.1,4.7,7.7L211.7,240L157.7,203.8z"/>
	<path fill="#0000CC" d="M170.1,480c0-1.4,2.1-3.3,4-3.5c1.1-0.1,1.8-0.6,2.3-1.7c0.4-0.8,1.6-1.9,2.7-2.5c1.3-0.6,2.2-1.6,2.4-2.4
		c0.3-1,1.1-1.7,2.8-2.5c2.5-1.1,4.6-1.1,9.8-0.1c1.7,0.4,1.8,0.3,1.1-0.8c-1.6-2.9,0.9-3.4,9.1-1.8c4.4,0.8,4.8,0.8,6.6-0.1
		c1.5-0.7,3.5-1,8.2-1c7-0.1,9-0.9,9.3-3.9c0.1-1,1.2-2.6,3.2-4.6l2.9-3l4.9-0.6c2.7-0.4,6.1-1.2,7.5-1.8c2.8-1.2,5.3-1.1,10.5,0.7
		c2.3,0.8,4.5,1,9,1c5.4,0,6.1-0.1,7-1.1c1.3-1.5,4.7-3.2,6.3-3.2c1.8,0,16.8,3.1,19.6,4c1.3,0.4,3.3,0.8,4.5,0.8
		c1.3,0,2.7,0.4,3.8,1.2c1.1,0.8,3,1.4,5.2,1.7c1.9,0.2,4.5,0.5,5.8,0.7c2.1,0.3,2.3,0.3,2.3-1c0-0.7,0.4-1.6,0.8-2
		c0.4-0.4,1.1-1.6,1.4-2.7c0.4-1.1,1.1-2.3,1.8-2.6c1.3-0.6,5.7-0.1,9.9,1.2c1.6,0.5,3.5,0.9,4.3,0.9c0.8,0,1.9,0.4,2.5,0.8
		c1.1,0.8,1.4,0.8,3.4-0.1l2.1-0.9l-1.1-1.9c-1.7-2.7-1-5.1,2-7.5c3.2-2.4,6.3-2.7,14.3-1.3c8.6,1.5,9.6,1.4,13.5-0.7
		c1.8-1,4.7-2.2,6.4-2.6c1.9-0.5,4.7-1.9,7.1-3.5c2.2-1.5,5-3.2,6.3-3.9c1.3-0.6,3.5-2.2,5-3.4c1.5-1.2,4-2.9,5.5-3.8
		c1.6-0.9,3.8-2.4,5-3.4c1.2-1.1,4.1-3.2,6.3-4.6c2.5-1.7,4.9-3.8,6.2-5.5c1.5-2,2.9-3.3,5.1-4.3c7.2-3.5,15.8-10.8,22.1-18.7
		c1.7-2.1,3.6-4.3,4.3-4.8c0.7-0.6,1.8-1.9,2.6-2.9c2.5-3.6,13.1-14.5,14.4-14.9c0.8-0.2,2.8-1.7,4.6-3.3c1.8-1.7,4.5-3.6,5.9-4.3
		c2-1,3.7-2.6,7.2-6.9c2.5-3.1,5.9-7.1,7.5-8.8s3.5-4.7,4.4-6.6c0.9-1.9,4.1-6.7,7.2-10.8c0.1-0.2,0.3-0.4,0.4-0.6H382.2
		L151.6,475.3c0.4,0.3,0.8,0.6,1.2,1c3.4,2.8,4.2,3.2,8.4,3.6c0.4,0,0.8,0.1,1.3,0.1L170.1,480C170.1,480,170.1,480,170.1,480z"/>
	<path fill="#FF0000" d="M529.5,160c0.9-1,1.5-1.9,1.8-2.4c0.4-1.1,1.2-2.4,1.8-3c0.5-0.6,1.1-2,1.3-3.2c0.2-1.1,0.4-2.1,0.5-2.2
		c0.1-0.1,1.6-1.2,3.2-2.6c2.1-1.7,3.9-2.6,5.9-3.1c2.7-0.6,3.1-0.6,5.7,0.8c1.5,0.8,3.3,2.1,4,3.1c1.5,2,3.8,3.4,7.6,4.8l3,1v-5.3
		c0-5.3,0-5.3,1.6-6.4c1.9-1.4,2-1.7,0.3-4.2c-0.9-1.3-1.1-2.1-0.8-2.5c0.3-0.3,0.5-1.3,0.5-2.3c0-1,0.5-3.3,1.1-5.1
		c1-2.9,1.2-5.6,1.6-19.9l0.5-16.6l-1.9-3.6c-1.8-3.5-1.9-3.7-1.3-6.7c0.9-4.5,0.8-4.6-1.8-6.5c-2.7-2-4.1-5.1-4.1-9.3
		c0-2.5-1.6-5.5-3.9-7.5c-1.2-1-1.2-5.2-0.1-8.1c0.9-2.1,0.8-2.3-0.3-5.1c-0.6-1.7-1.1-4-1.1-5.1c0-2-2.6-12.2-4.5-17.5
		c-0.5-1.3-0.9-3.3-0.9-4.6c0-5.3-4-6.4-23.3-6.5c-11.6-0.1-12.4-0.1-14.6-1.2c-7.9-4.2-17.8-7.7-21.3-7.6c-0.9,0.1-6,0.7-11.4,1.5
		l-9.8,1.4l-1.6,2.1c-2,2.8-5.3,5.7-8.4,7.5c-2,1.2-3.8,1.6-8.7,2.3c-8.2,1-10.1,1.8-13.5,5.8c-1.4,1.8-3.1,3.5-3.5,4
		c-0.5,0.4-0.9,1.1-0.9,1.5c0,0.4-0.6,1.7-1.3,2.7s-1.3,2.5-1.3,3.2c0,0.9-0.5,1.3-2.3,1.9c-1.5,0.4-2.5,1.2-3.2,2.3
		c-0.8,1.2-1.8,1.9-4.4,2.8c-3.3,1.2-3.5,1.3-3.9,3.5l-0.5,2.3l-4,0.2c-3.8,0.2-4.1,0.3-6.7,2.5c-1.5,1.3-3.7,2.9-4.9,3.6
		c-2.9,1.8-5.1,6.4-7.2,14.9c-0.9,3.6-2.3,8.2-3.1,10c-1.2,3.1-1.5,3.5-3.4,4c-2.2,0.6-4.2,2.6-7.3,7.3c-2.4,3.6-6.1,6.1-9.1,6.1
		c-1.8,0-9.9,2.1-13.2,3.5c-1.1,0.4-1.2,1.4-0.4,2.3c0.5,0.5,0.4,1-0.2,1.9c-0.5,0.7-1,3.3-1.2,6.1c-0.3,3.9-0.6,5.1-1.6,6.2
		c-0.8,0.8-1.4,2.6-1.8,4.7c-0.6,3.4-2.4,6.5-6,10.6c-0.9,1.1-2.3,2-3.9,2.7l40.7,27.4H529.5z"/>
	<path fill="#FFCC00" d="M156.8,165.9c0.3,8.3,0.5,16.7,0.7,26.1c0.1,4,0.2,7.9,0.3,11.7l54.1,36.3l-0.1,0L80.2,328.4
		c0.7,1.5,1.4,3.1,1.9,4.6c0.9,2.8,2.4,5.3,6.6,10.7c2.9,3.9,6.2,8,7.1,9c0.4,0.4,0.8,1,1.4,1.7l169.5-114.4L156.8,165.9z"/>
	<path fill="#009933" d="M528.8,288.9c1.1-1.6,2.4-3.6,3.3-5.1c2.4-4,15.6-18,18.2-19.4c0.8-0.4,2.3-0.8,3.4-0.8
		c2.9,0,4.3-1,11.3-8.2c5.7-5.8,6.6-7,7.7-10.1c0.7-1.9,2.2-5.1,3.3-7c1.6-2.7,2.5-5.3,3.9-11.5c1-4.4,1.9-8.6,1.9-9.5
		c0-0.8,1.1-3.6,2.4-6.2c3.2-6.3,6.2-15.5,6.6-20h-30.4c-0.1,1-0.1,2-0.1,3.3v4.7l-2.3,0.9c-3.1,1.2-12,0.8-17.4-0.9
		c-3.6-1.1-4.2-1.5-7.9-5.3c-1.2-1.2-2-2-2.6-2.7H371.4l-109.3-73.9c-1.9,0.3-2.6,0.8-4.6,2.3c-2.5,2-3.2,2.9-5.3,7.6
		c-2.2,4.9-2.4,5.7-2.4,9.8v4.5l-4.8,6.1c-4,5-5.5,6.4-8.6,8.3c-4,2.4-6,4.7-8.3,9.9l-1.3,3h-2.8c-1.9,0-3.5,0.4-5.3,1.4
		c-2.5,1.3-2.6,1.5-2.9,4.2l-0.3,2.8l-11.7,0.1c-8.8,0.1-12.4-0.2-14.3-0.8c-2.5-0.8-2.7-0.8-4.7,0.6l-2.1,1.4l-1.3-1.2
		c-1.1-1.1-1.2-1.5-1-4c0.3-2.2,0.1-3.2-0.8-5c-1.3-2.6-1.2-2.8,2.5-7.5c1-1.2,2.3-3.8,2.9-5.6c1-3,1.1-3.8,0.5-7.5
		c-0.4-2.7-1.6-6.4-3.3-10.6c-1.4-3.5-2.6-7.2-2.6-8.1c0-2.1-0.7-3.5-3.2-6.2c-1.1-1.2-2.7-3.7-3.4-5.6c-3.2-7.9-5.8-10.6-11.4-11.6
		c-1.4-0.3-2.9-1.2-4.9-2.9c-1.5-1.4-2.9-2.6-3-2.6s-0.2,1.6-0.1,3.6c1.5,26.9,2.4,44.3,3,62.1l109.9,74.2L97.2,354.5
		c0.9,1.3,2,3,2.9,4.6c1.4,2.5,3.2,5.1,4.1,5.9c2,1.9,5.1,9.4,6.4,15.9c0.6,3.2,1,7.1,1,11.4c0,7.8-0.7,10.1-3.8,12.4
		c-1.9,1.3-2.4,1.5-4.1,1.1c-5.1-1.2-4.9-1.3-5.5,0.4c-0.3,0.9-0.4,2.5-0.2,3.7c0.2,1.2,0.4,3.4,0.6,5c0.2,1.6,0.5,2.8,0.6,2.7
		c2.7-1.4,3.4-1.6,4.1-1.3c1,0.4,3.5,4.3,3.5,5.4c0,1.3-2.3,0.2-3.1-1.4c-0.4-0.9-1.1-1.4-1.8-1.4h-1.1l1.1,1.2
		c0.6,0.7,1.8,2.4,2.7,3.7c1.9,3.2,6,8.2,7.1,8.7c1.4,0.8,2.2,2,2.2,3.8c0,1.1,0.5,2.1,1.4,3c1.9,1.7,3.4,5.1,3.4,7.5
		c0,1.7-0.2,2-1.7,2.4c-1.4,0.4-1.8,0.9-2.2,2.5c-0.4,1.6-0.3,2.3,0.4,3c0.8,0.9,0.8,1,0.1,1.7c-0.4,0.4-0.8,1.1-0.8,1.6
		c0,0.7,0.8,2.2,1.9,3.8l4.2-2.9c0.3-2.4,1.1-3.6,2.1-3.6c0.7,0,2.3-0.2,3.6-0.3c0,0,0,0,0,0l245.2-165.9H528.8z"/>
	<path fill="#FFFFFF" d="M509,320.1c2.9-4,6.1-8.7,7-10.7c1.1-2.1,2.5-4.3,3.2-4.8c1.9-1.5,3.5-4.1,5-7.8c0.8-1.8,2.3-4.7,3.4-6.3
		c0.3-0.4,0.6-1,1-1.5H371.4L126.2,454.8c2.3-0.3,2.3-0.2,3.5,2c0.9,1.7,1.2,3.2,1.2,6v3.6l1.6-0.9c2.2-1.1,5.1-1,6.4,0.3
		c0.6,0.6,1.8,1.1,2.9,1.1c1.6,0,6.2,2.3,6.2,3c0,0.1-0.5,1-1.1,1.9c-1.6,2.7-1.4,3.2,1.2,2.8c1.6-0.2,2.2-0.2,3.4,0.6l230.6-155.1
		H509z"/>
	<path fill="#FFFFFF" d="M530.3,191.2c-1.3-1.6-1.5-2.4-1.8-4.5c-0.5-4.5-0.5-4.5-2.8-4.7l-2-0.2l-0.1-4.8c-0.1-2.7-0.3-6.1-0.6-7.7
		l-0.5-2.8l4-3.5c1.1-1,2.2-2.1,3-3H382.2l-40.7-27.4c-2.4,1.1-5.3,1.8-8,1.8c-1.8,0-6.2,0.5-9.9,1.2l-6.6,1.1l-5.7-1.4
		c-5.6-1.5-9.3-3.1-9.3-4.1c0-0.3-0.9-0.9-1.9-1.3c-1.4-0.6-2.9-0.7-6.3-0.4l-4.5,0.4l-1.4-1.9c-0.9-1.2-4.3-3.6-9.3-6.5l-7.8-4.7
		l-5.1,0.4c-1.5,0.1-2.6,0.2-3.4,0.3l109.3,73.9H530.3z"/>
	<path fill="#FFFFFF" d="M591,190.2v-3.1l-9.2-0.4c-5.1-0.2-10.9-0.6-12.9-0.9c-6-0.9-7.9,0-8.3,5.3h30.4
		C591,190.9,591,190.5,591,190.2z"/>
	<path fill="#FFFFFF" d="M118.8,464.7l1.4,1.3v-3.4c0-1.5,0.1-2.8,0.2-3.9l-4.2,2.9C117,462.8,118,464,118.8,464.7z"/>
</g>
</svg>
