<?xml version="1.0" encoding="utf-8"?>
<!-- Generator: Adobe Illustrator 17.1.0, SVG Export Plug-In . SVG Version: 6.00 Build 0)  -->
<!DOCTYPE svg PUBLIC "-//W3C//DTD SVG 1.1//EN" "http://www.w3.org/Graphics/SVG/1.1/DTD/svg11.dtd">
<svg version="1.1" id="flag-icon-css-zm" xmlns="http://www.w3.org/2000/svg" xmlns:xlink="http://www.w3.org/1999/xlink" x="0px"
	 y="0px" viewBox="0 0 640 480" enable-background="new 0 0 640 480" xml:space="preserve">
<g>
	<path fill="#198A00" d="M419.9,77.2c0.1,0,0.2,0,0.2,0C420.1,77.1,420,77.2,419.9,77.2z"/>
	<path fill="#198A00" d="M421.6,76.8c1.9-0.4,3.9-0.8,5.8-1.3C427.8,75.4,424.3,76.3,421.6,76.8z"/>
	<path fill="#198A00" d="M421.1,73.2c0.4,0.1,0.6,0.2,0.5,0.2C421.4,73.3,421.2,73.3,421.1,73.2z"/>
	<path fill="#198A00" d="M414.4,65.9c7.7,3.2,16.8,7,16.8,6.8C431.2,72.3,421.6,68.7,414.4,65.9z"/>
	<path fill="#198A00" d="M524.6,101.8L524.6,101.8c0-0.1-0.1-0.2-0.2-0.3C524.5,101.6,524.6,101.7,524.6,101.8z"/>
	<path fill="#198A00" d="M529.8,97.5l0.3-0.2c-1.1-1.2-1.9-2.3-2.3-3.2C527.6,94.8,528.5,96,529.8,97.5z"/>
	<path fill="#198A00" d="M383.7,250.2c-6.2,2.5-6.2,2.5-8.4,1.7c-2-0.8-2.3-0.8-4.7,0.2l-2.5,1.1l-1.9-2.5c-1.6-2.1-1.9-2.9-1.9-5.3
		c0-2.5-0.2-2.9-1.7-4.3c-1.7-1.4-1.8-1.7-2-5.5l-0.2-4.1l-4-4l-4-4l-1.6,1.6c-1.6,1.5-1.6,1.5-2.7,0.5c-0.6-0.5-1.1-1.3-1.1-1.5
		c0-0.3-0.7-1.7-1.6-3.1c-1.4-2.1-1.5-2.8-1.2-4.7c0.3-1.9,0.2-2.5-1.1-4.5c-1.3-1.9-1.5-2.8-1.5-5.9v-3.7l-4.5,0.4
		c-2.7,0.2-5.1,0.2-6.2-0.2c-1.2-0.4-2.1-0.4-3.3,0c-1.4,0.5-1.7,0.4-2.5-0.5c-0.6-0.7-1.6-1.1-2.6-1.1c-2.8,0-4.5-0.9-4.5-2.4
		c0-1-0.5-1.5-3-2.5c-2.8-1.1-3.1-1.1-4-0.4c-0.9,0.8-1.4,0.8-4.4,0.3c-2.6-0.5-3.4-0.9-3.4-1.6c0-0.5-1.1-1.6-2.7-2.6
		c-1.5-0.9-2.7-2.1-2.7-2.6c0-0.5-0.7-1.8-1.6-2.9c-1.1-1.5-1.7-2.9-2-5.1c-0.4-3.1-0.4-3.1-4.6-6.4l-4.2-3.3l-0.7-4.7
		c-0.3-2.6-0.7-4.7-0.8-4.8c-0.1-0.1-2.1,0-4.5,0.2l-4.4,0.4l0.2,2.2c0.1,1.6-0.2,2.6-1,3.7c-1,1.3-1.1,2-0.8,4.1l0.3,2.6l-2.8,2.4
		c-4.9,4.1-4.5,3.9-6.3,3.1c-1.4-0.8-1.7-0.7-3.5,0.2l-2,1l-6.3-2.2l-6.3-2.2l-2.1,0.9c-2,0.9-2.2,0.9-5.4,0
		c-2.9-0.8-3.7-0.8-5.6-0.2c-3.3,1.1-5,0.3-5.6-2.5c-0.3-1.9-0.7-2.3-2.2-2.7c-1.3-0.4-1.8-0.9-1.9-2c-0.2-1.7-1.5-2.2-3.4-1.1
		c-1.3,0.7-1.7,0.6-5.1-1.3c-3.7-2-3.8-2-6.4-1.4c-3.2,0.8-4.3,0.3-4.3-2.1c0-1.3-0.5-1.8-3.4-3.4c-2.6-1.5-3.7-2.5-4.4-4
		c-0.8-1.8-0.9-2.1-0.2-2.7c0.7-0.5,0.7-1.3,0.2-5.3c-0.4-3.8-0.4-5.2,0.2-7c0.7-1.9,0.7-2.3-0.1-2.7c-1.1-0.7-2-0.6-4.7,0.8
		c-1.9,0.9-4.3,1.5-8.8,2c-3.7,0.4-7.1,1-8.2,1.6c-1,0.5-3.1,1.1-4.4,1.3c-2.2,0.3-3,0.8-5.6,3.6c-1.8,1.9-3.9,3.5-5,3.8
		c-1.7,0.6-2.2,0.5-4.1-0.5c-1.4-0.8-2.6-1.1-3.3-0.9c-1.5,0.5-5.4-1.3-5-2.2c0.1-0.4,1.2-0.9,2.3-1.1c1.8-0.3,2.2-0.6,2.9-2.6
		c0.5-1.3,0.8-4.1,0.8-6.5V135l-2.1-1.6c-1.3-1-2.7-1.6-3.9-1.7c-3.8-0.1-4.5-0.6-5-3.2c-0.5-3-1.7-4.4-3.9-4.4
		c-1.4,0-1.5,0.1-0.9,0.8c0.5,0.7,0.5,1.3,0,3.3c-0.5,1.9-0.5,3-0.1,4.7c0.3,1.3,0.9,5.2,1.1,8.7l0.6,6.4l-3.2,5.9l-3.2,5.9l1.3,2.9
		c0.8,1.6,1.3,3.6,1.3,4.5c-0.1,0.9-0.3,5.2-0.4,9.6l-0.3,8.1l2.4,5.1l2.5,5.1l-2.4,2.7c-1.5,1.7-3.2,4.6-4.4,7.5l-2,4.7l0.7,3.9
		c1,5.5,1,5.5,3.1,6.6c1.6,0.9,1.9,1.3,1.9,3.1v2.1l-13.2-0.3c-7.3-0.2-29.2-0.4-48.7-0.5l-35.5-0.3l-0.3,1.2
		c-0.2,0.7-0.3,36.8-0.3,80.2v78.9l2.3,2.6c1.7,2,2.6,3.6,3.5,6.8l1.2,4.2l4.3,2.1c4.5,2.3,5,2.9,5,7c0,1,2.7,4.1,10.7,12.5
		c10.5,10.9,11.1,11.4,23.9,20.5l13,9.4l7.7-1.6c4.2-0.8,11-2.5,15-3.7c4-1.1,8.1-2.1,9.1-2.1s4.5,1,7.9,2.2
		c6.2,2.2,11.9,3.4,19.5,4.1c2.2,0.2,5.4,0.8,6.9,1.4c4.2,1.5,9.1,5,11.3,8c1.2,1.6,3.6,3.7,6.7,5.7l4.8,3.1l7.1,0.4
		c9.2,0.4,14.9,2.1,17.7,4.9l1.9,2l4.1-0.3c2.2-0.2,5.2-0.7,6.5-1.2c1.9-0.7,3.5-0.8,7.1-0.5c8.3,0.6,11,1.3,12.6,3.2
		c1.4,1.6,1.6,1.7,6.6,1.9c4.6,0.2,5.4,0.1,7.1-0.9c1-0.6,2.2-1.1,2.7-1.1c1.3,0,5.9-2.7,8-4.6c1-0.9,2.7-3.4,3.7-5.6
		c1.6-3.4,2.6-4.5,7.2-8.5c2.9-2.5,7-5.8,9-7.5c4.1-3.3,5.4-5.1,6.4-8.7c0.5-1.7,2.1-4.1,5.4-8.2l4.8-5.8l6.7-3.1
		c6.5-3,6.8-3.2,10.6-7.6l3.8-4.5l12.5-4.4l12.5-4.4l0.9-2.5c0.5-1.4,1-4.6,1.1-7.3c0.2-2.7,0.7-5.8,1.1-6.9c0.5-1.1,0.9-2.9,0.9-4
		c0-2.7,2.8-6.3,5-6.3c1.9,0,6.5-2.7,9.5-5.6c2-1.9,4.7-3.2,10.5-4.8l0-115.9C384.6,249.8,384.1,250,383.7,250.2z"/>
	<path fill="#198A00" d="M510.3,129.6c1,0.8,2.9,1.6,3.6,1.9c2.5-1.5,6.5-0.8,6.7-1l0.8-1.1l-0.3-5c-0.7,1.2-1.4,2-2.1,1.8
		c1.5-7.7-0.7-12-5.9-22c-0.1,6-0.2,11.3-0.8,15.1c0.9,2.8,0.8,2.7,0.9,5.6c-1-0.5-2.1-1.7-3-3.1
		C510.3,122.7,509.8,128.4,510.3,129.6z"/>
	<polygon fill="#198A00" points="529.7,112.8 529.6,112.8 529.6,112.8 	"/>
	<path fill="#198A00" d="M577.7,78.4C577.7,78.4,577.7,78.4,577.7,78.4c-1.7,0.5-3.5,1-5.3,1.5C574.2,79.4,576,78.9,577.7,78.4z"/>
	<path fill="#198A00" d="M504.1,112.9c0-0.5,0-0.9-0.1-1.4C504.1,112,504.1,112.5,504.1,112.9z"/>
	<path fill="#198A00" d="M559,87.7c8.6,2.2,16.6,2.7,23.7,2.2c0-0.1,0-0.1,0-0.2C575.6,90.2,567.6,89.7,559,87.7z"/>
	<path fill="#198A00" d="M574.6,169.6c-1.1-0.4-1.3-1-0.6-2.7c0.3-0.6,0.3-1.6,0-2.2c-0.2-0.7-0.3-1.7-0.1-2.3
		c0.3-1,0.4-1.1,1.5-0.4c1.3,0.9,2,0.6,2-0.6c0-0.4,1.4-2.9,3-5.7c1.6-2.7,3-5.2,3-5.6c0-0.4-1-2.1-2.2-3.9
		c-1.5-2.3-2.2-3.9-2.2-5.2c0-1.1-0.4-2.3-0.9-2.7c-0.4-0.4-1.1-1.2-1.4-1.8c-0.5-0.9-0.4-1,0.4-0.7c0.6,0.2,1.4,0,1.9-0.5
		c0.6-0.5,2.5-1,4.7-1.2c3.5-0.3,3.9-0.4,4.8-2c0.5-0.9,2.7-3.4,4.7-5.5l3.7-3.9l-3.1-4.6l-3.1-4.5l0.3-4l0.3-4l-5.2-4.1
		c-1.4-1.1-2.7-2.2-3.6-3c-3.8,1.9-10,4.2-17.4,3.3c5,1.4,5.7,1.7,5.9,2.4c-0.5,1-5.1,2.2-11,1.4c3.1,0.8,5.1,1.2,5.1,1.9
		c-0.1,0.4-5.3,3.4-9.9,1.2c-0.6-0.3-2-1-3.8-2.1c4.8,3.7,9.7,7.1,8.4,8.6c-5,2.3-15.5-3.8-19.7-6.6c6,7.6,11.4,7.1,9.6,9.9
		c-5,2.3-12.6-4.2-14.4-5.9c0,0.8,5.2,3.8,3.5,5.2c-4.2,0.3-8.4-4.1-9.2-4.9c0.3,0.9,0.6,1.7,1,2.4c2.2,3.9,4.1,3.1,4.8,4.6
		c-2.3,1.3-4.9-2.6-6.5-2.9c-1.7,1,4.7,9.7,4.7,10.3c-2.3-0.3-4.5-1.2-6.2-2.5l0.2,3.3c0,0.1,0.2,0.9,3.9,0.9c3.1,0.6,3.4,5,2.6,3.8
		c-0.8-1.2-3.2-2.1-3.2-2.1s-2,0.1-1.5,1.5c3.8,1.5,3,5.1,2.3,7.1c-0.8,1.9-3.1,1.9-3.1,1.9s1.7-2.2,0.3-3c-3.3,0.8-3.7-3.1-3.7-3.1
		s-0.6-1.3-1.9,0c1.3,6.7-2.4,7.2-2.4,7.2s-0.7,1.9,0.7,3.2c-3.6,0.1-2.4-3.4-2.8-4.1c-0.5-0.1-1.7-1.7,0.1-6
		c-2.5,4.4-5.3,2.8-5.3,2.8s-0.1,1.4,0.4,3.3c-2.1-1.6-2.1-2.3-2.1-5.3c-0.1-0.6-0.1-1-0.1-1.5c-0.4,0.5-0.9,0.9-1.4,1.2
		c3.1,4.7-0.7,7.5-0.7,7.5s-0.3,2.2,1.2,3.6c-2.9-0.3-2.9-3-2.9-3s-2.7-1.2-2.8-6.2c0.3,5.4-4.2,5.9-4.2,5.9s-0.6,1.2,0.4,2.6
		c-3.2-0.7-2.3-4.1-2.3-4.1s-2.5-1.6,1.7-6c-4.6,3.6-7.5,2.7-8.3,2.6l-1.6,2.4c-0.3-2.7,0.2-3.2,0.2-3.2s0.2-5.6,6.6-5.6l0,0
		c5.2,0,6.1-5.2,6.1-6.1l-0.1,0.2c0-0.3,0.1-0.4,0.1-0.2l0.1-0.3c-0.6,0.6-1.1,0.8-1.5,0.6c-0.5-0.4,0.9-6.4,1.2-11.4
		c-0.7,7-5.2,9.9-5.1,8.7c0.8-3.1,1-6.1,1.7-8.6c0.6-2.6,1.7-4.9,1.9-6.4c-0.7,1.7-2.6,4-2.8,4c-0.6,0.4,1.1-3.9,0.4-3.4
		c-1.5,1.1-11.3,2.7-14.3-2.4c0-1.4,4.2-3.9,6.8-5.3c-5.1,2.2-17.6,6.6-17.2,3c-0.9-1.1,10.4-7.8,10.1-7.7l-10.1,5.4
		c-0.3,0.3-8,2.6-9.4,0.4c-0.3-0.5,22.2-12.8,21.9-14.3c0,1.2-17.2,11-17.8,11.3c-0.6,0.4-9.8,3.3-12.7,0.7
		c-0.6-0.6,12.3-7.1,11.7-8.5c-5,4.6-8.7,6-12.5,6.8c-2.1,0.3-4.3,0.4-5.9,0c-3.3-0.8-5.3-2.7-5.3-3.1c0-0.5,9.4-2.3,11.3-4.9
		c-19.2,6.6-25.8,0.5-25.4-0.4c0.2-0.4,4.4-0.6,4.9-0.8c0.3-0.2,11.9-4.2,12.3-4.5c0.2-0.3-12.2,4-18.8,3.7
		c-7.3-0.4-10.8-3.2-10.6-3.9c0.2-0.4,4.6-0.9,5.4-0.9c4.7-1.3,9.3-2.9,13.9-4.6c0.8-0.7-8.7,2.7-10.4,2.8
		c-13.7,0.8-15.7-3.2-15.4-3.9c2.3-0.2,4.7-0.6,7-1c-0.5,0.1-0.9,0.1-1.1,0C392,71.1,389.8,60,390.7,59.4c0.6-0.6,2.3,2.1,6,4.1
		c4.2,1.7,10.6,4.3,15.9,6.4c-6.1-2.6-11.4-5.1-13.2-5.9c-5.1-2.3-9-9.8-7.9-10.6s7.3,6.2,12.4,8.1c0.2,0.1,1.2,0.5,2.7,1.1
		c0,0,0,0,0,0c-11.5-5.1-13.1-16.1-12.3-16.9c1.4-0.5,6.6,6.6,8.7,7c1.3,1.2,5.3,3.3,29.4,14.3c0.3-0.1-15.8-7.6-17.8-8.8
		s-13-11.9-11-16.1c0.6-0.9,6.1,3.9,11.7,6c8.8,3.7,17.4,8,25.8,12.8c0.6-0.2-10.1-10.1-8.3-11.1c1.4-1.2,16.5,8.9,31.1,13
		c5.3,0.9,20.3,3,25.9,5.6c-1.1-0.8-1.3-1-1.7-1.3c4.4-21.4,21.9-18.6,26.3-13.7c13.1,1.3,8.1,7.3,5.7,8.3c0.9-3.5-2.1-3.4-4.5-4
		l2.9,1.2c-1.3,0.7-1.9,0.4-3.8,0.7c-2.3,0.3-6.3,2.6-3.3,9.7c0.1,0.4,0.3,0.9,0.8,1.6c0.4,0.3,0.7,0.5,1.1,0.8
		c-0.6-0.8-1-1.4-1-1.4v-0.1c0,0,5.2-3,25.9-1.5c2.3,0.3,14.1-4,17.9-5.3c1.2-0.2,2.9-0.6,4.9-1c-0.6-0.3-1.2-0.7-1.9-1.1
		c-2.5-1.4-4.2-2.8-5.1-4.1c-1.5-2.2-1.7-2.3-9-4c-3.9-1-4.1-1-5.2-3.4l-1.1-2.3h-5.2c-4.6,0-5.4-0.2-6.9-1.3
		c-2.9-2.2-5.8-3.2-8.6-2.8c-2.3,0.3-2.5,0.2-3.9-1.7c-0.9-1.1-1.5-2.5-1.5-3.2c0-1.2-1.1-1.8-6.5-3.6c-0.4-0.2-1.8,0.2-2.9,0.8
		l-2.1,1.1l-2.8-2.8c-2.7-2.7-2.7-2.8-2.8-5.9v-3.2l-1.9-0.2c-1.2-0.1-3-1-4.8-2.5c-2.7-2.1-3.1-2.2-5-1.7c-1.7,0.5-2.3,0.4-3.9-0.7
		c-1.5-1-2.7-1.3-6-1.3l-4.1-0.1L463,9.7c-5.8-7.6-6.8-8.7-8.1-8.7c-0.8,0.1-21,2.5-44.9,5.3c-23.9,2.9-43.6,5.4-43.8,5.6
		c-0.2,0.2,0.3,1.4,1,2.7c1.3,2.2,1.4,2.6,0.9,6.3l-0.4,3.9l-5.6,7.1c-5.2,6.5-6.3,7.5-13,12.4c-7,5.1-8.2,6-8.2,6.9
		c0,0.2,1.3,1.4,2.9,2.6l2.9,2.2l2.5,7.6c2.1,6.3,2.5,7.8,2,9c-0.7,2-0.8,1.8,1.3,2.5l1.9,0.6l-1.3,3.9c-0.8,2.2-1.3,5.2-1.3,6.9
		c0,1.6-0.5,5-1.2,7.5c-1,3.9-1.1,4.8-0.5,6.4c0.4,1,0.7,2.3,0.7,2.9c0,0.5,0.5,1.7,1,2.6c0.8,1.3,0.9,2,0.5,3.8
		c-0.4,1.7-0.3,2.5,0.4,3.5c0.4,0.7,0.8,2,0.8,2.9c0,0.9,0.4,1.9,0.9,2.1c0.8,0.4,0.8,0.7-0.1,2.3c-0.5,1-1.4,1.9-1.9,2
		c-1.7,0.4-4.9,5.8-4.9,8.2c0,1.4-0.4,2.5-1.1,3.1c-0.8,0.7-1.1,1.7-1.1,3.5c0,3.6-2.7,15.1-4.2,18.2c-0.7,1.5-1.5,3.8-1.6,5.2
		c-0.3,2.3-0.2,2.7,1.1,3.7c1.1,0.9,1.4,1.6,1.4,3.6c0,1.6,0.3,2.7,0.9,3.2c0.8,0.7,0.8,0.8-0.3,1.6c-1.4,1.1-1,2.4,1.1,3.5
		c0.8,0.4,1.6,1.3,1.9,1.9c0.3,0.9,0.8,1.1,2.7,1.1c2.1,0,2.5,0.2,3.5,1.9c0.9,1.5,1.5,1.9,2.7,1.9c2.1,0,2.8,0.7,5.8,5.6
		c1.9,3.1,2.9,4.3,3.8,4.3c0.8,0.1,2,1.4,4.4,5.2l3.2,5.2l5.2-0.4c5.2-0.3,5.2-0.3,6.2,1.1c0.5,0.8,1.2,1.2,2,1.4l0-32.8h86.2v-0.2
		h84.4v0.2h22.3c-0.1-0.3-0.4-0.7-0.9-1.1C576.3,170.6,575.2,169.8,574.6,169.6z"/>
	<path fill="#EF7D00" d="M569.6,288.4c0.1-0.1-0.5-1-1.3-2.1c-1.3-1.7-1.7-1.9-3.4-1.6c-1.1,0.2-2.5,0.8-3.1,1.3c-1.2,1-3,0.5-3-0.8
		c0-0.4-0.9-2.2-1.9-3.9c-0.5-0.8-1-1.7-1.4-2.4v13.2C564,289.9,569.6,288.5,569.6,288.4z"/>
	<path fill="#EF7D00" d="M555.5,257.6c0.4-0.7,0.7-1.5,0.8-2.1c0.5-2.5,2.8-6.9,3.7-7.2c0.5-0.2,0.4-0.7-0.2-2.3
		c-0.7-1.9-0.7-2.4,0.2-5.7c0.5-2,1-4.8,1-6.2c0-2.1-0.2-2.6-1.1-2.8s-1.1-0.8-1.1-2.6c0-1.8,0.5-3.1,2.2-5.8
		c2.1-3.2,2.4-3.4,4.4-3.4c1.1,0,2.7,0.3,3.5,0.7c1.3,0.5,1.6,0.4,3.3-1.3c1.4-1.3,2.7-2,4.7-2.4c2.5-0.5,2.8-0.7,3-2
		c0.2-1.2,0.5-1.6,2.1-1.9c1-0.2,1.9-0.6,1.9-0.9c0-0.3,0.5-1.1,1.1-1.8l1.1-1.2l-1.6-0.9c-0.9-0.4-2.7-1.1-4.1-1.4
		c-2-0.5-2.6-1-3.4-2.5c-0.5-1-0.9-2.3-0.9-2.8c-0.1-0.5-0.4-1.9-0.8-3c-0.7-1.8-0.7-2.3,0-3.5c0.4-0.8,0.8-1.9,0.8-2.3
		c0-0.5,0.4-1.8,0.8-2.9c0.6-1.4,0.7-2.5,0.3-4.1c-0.4-1.7-0.3-2.3,0.4-3c0.8-0.8,0.8-1,0-2.9c-0.7-1.7-0.7-2.5-0.2-4.3
		c0.4-1.3,0.5-1.9,0.3-2.5h-22.3V257.6z"/>
	<path d="M555.5,172.3h-84.4v0.2v145.6c14.2-3.2,14.3-3.3,16.9-5.5c2.3-1.9,3.3-2.3,6.8-2.9c2.8-0.5,5.1-1.4,7.7-2.8
		c3.3-2,6.8-2.9,35.3-10.2c6.5-1.7,12.6-3.2,17.7-4.5v-13.2c-0.4-0.8-0.7-1.4-0.8-1.7c-0.2-0.6-1.1-1-2.7-1.3
		c-1.6-0.2-2.7-0.7-3-1.4c-0.3-0.5-0.4-1-0.2-1c0.2-0.1,1-0.5,1.7-1.1l1.3-1.1l-1.5-1.5c-0.8-0.9-2.2-1.7-3.1-1.9
		c-1.1-0.2-1.6-0.6-1.6-1.4c0-0.6,0.4-1.1,0.8-1.1c1.6,0,5-2.1,6-3.7c0.5-0.8,1.5-2.1,2.2-2.9c0.3-0.3,0.6-0.7,0.8-1.2v-85.1V172.3z
		"/>
	<path fill="#DE2010" d="M385,172.5l0,32.8c0.2,0,0.4,0.1,0.6,0.1c0.9,0,2.5,0.5,3.5,1.1l2,1.2l1.9-1.9l1.9-1.9l-1.4-0.4
		c-1.2-0.4-1.4-0.8-1.4-2.9c0-2.1,0.2-2.5,1.5-3.1c0.8-0.3,2.6-0.7,3.9-0.7c3.9-0.2,5.8-0.8,7.1-2.2c0.7-0.7,1.7-1.3,2.3-1.3
		c1,0,1.1,0.3,0.7,12.4c-0.2,6.9-0.5,20.5-0.7,30.3l-0.4,17.9l-1.3,0.5c-2.1,1-5,0.1-6.2-1.9l-1-1.7l1.6-2.8l1.6-2.9l-2.3-0.6
		c-1.3-0.3-2.7-0.7-3.2-0.9c-0.5-0.1-2,0.8-3.4,1.9c-1.4,1.2-4.2,2.7-7.5,4.1l0,115.9c1.3-0.4,2.7-0.7,4.3-1.1
		c2.5-0.6,5.2-1.4,6-1.6c0.8-0.3,3.5-1,6-1.6c4.5-1,4.6-1,7.4,0.1c2.3,0.8,3.5,1,7,0.7c2.3-0.2,4.6-0.2,5.2,0.1
		c0.5,0.3,3.2,0.5,5.9,0.5l5,0.1l0.1-6.6l0.2-6.6l-2.5-3.6c-2.9-4.2-3.1-5-2.9-9.2l0.2-3.2l13.5-5.6c13.3-5.6,13.6-5.7,29.4-9.2
		c0.6-0.1,1.1-0.3,1.6-0.4V172.5H385z"/>
	<path fill="#EF7D00" d="M553.1,70.1c5.9,0.7,1.5,6-10.4,3.3c6,3.4,3.8,3.9,3.8,3.9s-6.5,0.3-10.7-0.7c3.5,1.8,1.4,2.6,1.4,2.6
		s-5.6,0.5-9.2-0.5c3.2,1.3,1.2,2,1.2,2s-4.2,0.8-7.7-0.6c-0.1,0-0.2-0.1-0.3-0.1c0.1,0.2,0.3,0.4,0.4,0.6
		c0.2,2.6,13.4,14,18.4,17.3c0,0,0,0,0,0l3.9,2l2.8-4.5C536.6,89,523.9,79.9,531,84.6c4.2,2.8,10.2,6.6,16.4,9.7l2.9-4.6
		c-4.5-2.2-9.5-5.4-14.6-10.1c7.2,5.1,12.5,6.8,16.5,7l2.4-3.9c-1.6-0.9-3.5-2-5.9-3.7c-0.5-0.3-0.9-0.5-1.1-0.8
		c0.4,0.3,0.7,0.6,1.1,0.8c1.5,0.7,4.1,1.4,7,2l2.5-4c-0.6-0.2-1.1-0.4-1.5-0.7c0.6,0.2,1.1,0.3,1.6,0.5l4.9-7.9
		c0.1,0.1,2.2,0.5,5,1c-0.1-0.4-0.6-0.8-1.5-1.3c-0.5-0.3-0.8-0.5-1.1-0.8C560.9,69.1,556.2,70.1,553.1,70.1z"/>
	<path fill="#EF7D00" d="M562.4,78.1c6.8,2.1,7.1,2.2,7.4,3.4c0.3,1.3-7.6,0.8-14.1-0.5l-1.1,1.7c1.6,0.9,3,1.5,4.4,2.4l8.6-0.1
		c-1.8,0.3-7.4,0.3-8.5,0.1c0.1,0.1,0.2,0.1,0.3,0.2c-1.7,0.7-3.9,1.5-7.1,1.3l-1.9,3c10.3,5.1,18.3,5.2,20,7.1
		c-3.6,5.3-13.3,2.3-22.8-2.5l-0.8,1.2c5,3.2,9.4,5.8,10.4,5.6c-1.2,1.9-8.9,0.9-12-0.2c1.6,1.8,4,3.8,6.5,5.6
		c1.9,1.1,3.2,1.8,3.8,2.1c4.7,2.2,9.8-0.8,9.9-1.2c0-0.6-2.1-1.1-5.1-1.9c5.9,0.7,10.5-0.4,11-1.4c-0.2-0.7-1-1-5.9-2.4
		c7.4,0.8,13.6-1.4,17.4-3.3c-0.9-0.8-1.5-1.4-1.5-1.5c0.1-0.2,0.5-2.3,1.1-4.7c0.2-0.9,0.4-1.7,0.5-2.4c-7.2,0.6-15.1,0.1-23.7-2.2
		c8.6,2,16.6,2.5,23.8,2c0.2-1.2,0.3-2.1,0.1-2.3c-0.2-0.3-1.5-2-2.9-3.8c-2.1-2.7-2.5-3.5-2.3-5c0-0.1,0-0.1,0-0.2
		c-1.7,0.5-3.5,1-5.3,1.5c1.8-0.5,3.6-1,5.3-1.5c0.1-1.1,0-1.9-0.3-2.5c-1.7,0.3-3.4,0.3-5,0.1c0,0.2-0.1,0.4-0.2,0.5
		c0.6,0.3,1.1,0.8,1.8,1.4C574.5,79.2,567.9,79.2,562.4,78.1z"/>
	<path fill="#EF7D00" d="M504.2,126.5l0.1-0.2C504.2,126.1,504.2,126.1,504.2,126.5z"/>
	<path fill="#EF7D00" d="M513.9,131.5c-0.7-0.3-2.6-1.2-3.6-1.9c-0.5-1.1-0.1-6.8,0-7.8c-0.9-1.3-1.7-2.8-2.2-3.7
		c-0.3,2.8-2.2,6.4-3.8,7.9l-0.1,0.3c0,0.9-0.9,6.1-6.1,6.1l0,0c-6.4,0-6.6,5.6-6.6,5.6s-0.5,0.5-0.2,3.2l1.6-2.4
		c0.8,0.1,3.7,0.9,8.3-2.6c-4.2,4.4-1.7,6-1.7,6s-0.9,3.5,2.3,4.1c-0.9-1.4-0.4-2.6-0.4-2.6s4.5-0.5,4.2-5.9c0.1,5,2.8,6.2,2.8,6.2
		s0,2.7,2.9,3c-1.5-1.4-1.2-3.6-1.2-3.6s3.8-2.8,0.7-7.5c0.5-0.3,1-0.7,1.4-1.2C512.2,133.1,512.9,132.1,513.9,131.5z"/>
	<path fill="#EF7D00" d="M545,100.9c-0.7-0.2-1.2-0.5-1.3-0.7l0.1-0.2l-3.9-2c1.8,3.4,8.6,6.9,8.1,8.8c-6.1,0.6-13.9-5.1-17.9-9.6
		l-0.3,0.2c2.9,3.3,7.8,7.8,7.4,9.3c-0.4,1.7-7.1-0.5-12.5-5.1l-0.1,0.1c2.9,4.1,3.9,7.9,5,11l0,0h0c0,0,0,0.1,0,0.1
		c0.8,0.7,5,5.1,9.2,4.9c1.7-1.4-3.5-4.4-3.5-5.2c1.9,1.7,9.5,8.3,14.4,5.9c1.9-2.8-3.6-2.3-9.6-9.9c4.2,2.8,14.7,8.9,19.7,6.6
		c1.3-1.4-3.6-4.9-8.4-8.6C549,104.7,546.6,102.7,545,100.9z"/>
	<path fill="#EF7D00" d="M538.3,68.6c-20.7-1.5-25.9,1.5-25.9,1.5v0.1c0.1,0,0.4,0.5,1,1.4c3.1,2.3,5.7,5.2,7.8,8.5
		c0.1,0,0.2,0.1,0.3,0.1c3.5,1.3,7.7,0.6,7.7,0.6s2.1-0.8-1.2-2c3.6,1,9.2,0.5,9.2,0.5s2.1-0.7-1.4-2.6c4.2,1,10.7,0.7,10.7,0.7
		s2.3-0.6-3.8-3.9c11.9,2.7,16.3-2.6,10.4-3.3c3.1,0,7.7-1,12.5-2.3c-0.5-0.5-0.8-1-0.8-1.6c0-1.3-0.6-2.1-3.7-3.9
		c-2,0.4-3.7,0.8-4.9,1C552.3,64.6,540.5,68.9,538.3,68.6z"/>
	<path fill="#EF7D00" d="M522.9,117.8c0.1,1.8-0.7,4.7-1.8,6.6l0.3,5l-0.8,1.1c-0.2,0.2-4.3-0.5-6.7,1c-1,0.6-1.7,1.6-1.8,3.1
		c0,0.5,0,0.9,0.1,1.5c0,3,0,3.8,2.1,5.3c-0.5-1.9-0.4-3.3-0.4-3.3s2.7,1.6,5.3-2.8c-1.8,4.3-0.6,5.9-0.1,6c0.4,0.8-0.7,4.2,2.8,4.1
		c-1.4-1.3-0.7-3.2-0.7-3.2s3.8-0.6,2.4-7.2c1.3-1.3,1.9,0,1.9,0s0.4,3.9,3.7,3.1c1.4,0.8-0.3,3-0.3,3s2.3,0,3.1-1.9
		c0.7-2.1,1.5-5.6-2.3-7.1c-0.5-1.4,1.5-1.5,1.5-1.5s2.4,0.8,3.2,2.1c0.7,1.2,0.5-3.2-2.6-3.8c-3.8,0-3.9-0.8-3.9-0.9l-0.2-3.3
		C525.2,123.1,523.6,120.6,522.9,117.8z"/>
	<path fill="#EF7D00" d="M471.6,75.3c0.1-0.2,0.3-0.4,0.4-0.6l-2.3-1c-0.4,0.1-0.9,0.1-1.3,0.1L471.6,75.3z"/>
	<path fill="#EF7D00" d="M462,70.8l2.9,1.3l0.5-0.4l-1.9-0.9C462.9,70.8,462.4,70.8,462,70.8z"/>
	<path fill="#EF7D00" d="M529.6,112.8c-1.1-3.1-2.1-6.9-5-11c-0.1-0.1-0.1-0.2-0.2-0.3c0.1,0.1,0.2,0.1,0.3,0.2
		c5.4,4.6,12.1,6.9,12.5,5.1c0.4-1.5-4.5-6-7.4-9.3c-1.3-1.5-2.2-2.8-2.1-3.4c0.4,0.9,1.3,2,2.3,3.2c4,4.5,11.8,10.2,17.9,9.6
		c0.6-1.9-6.3-5.4-8.1-8.8c0,0,0,0,0,0c-5-3.4-18.2-14.7-18.4-17.3c-0.1-0.2-0.2-0.4-0.4-0.6c-2-3.3-4.7-6.2-7.8-8.5
		c-0.4-0.3-0.7-0.5-1.1-0.8c-0.5-0.7-0.7-1.2-0.8-1.6c-3-7,0.9-9.4,3.3-9.7c1.9-0.3,2.4,0,3.8-0.7l-2.9-1.2c2.4,0.5,5.4,0.5,4.5,4
		c2.3-0.9,7.4-6.9-5.7-8.3c-4.3-4.9-21.8-7.7-26.3,13.7c0.4,0.3,0.6,0.6,1.7,1.3c-5.6-2.6-20.5-4.7-25.9-5.6
		c-14.6-4.1-29.7-14.3-31.1-13c-1.9,0.9,8.8,10.9,8.3,11.1c-8.3-4.7-16.9-9-25.8-12.8c-5.6-2.1-11.2-6.9-11.7-6
		c-2.1,4.2,8.9,14.9,11,16.1s18.1,8.7,17.8,8.8c-24.2-11-28.1-13-29.4-14.3c-2.2-0.5-7.3-7.5-8.7-7c-0.8,0.8,0.8,11.8,12.3,16.9
		c0,0,0,0,0,0c-1.5-0.6-2.5-1.1-2.7-1.1c-5.1-1.9-11.3-8.8-12.4-8.1s2.8,8.3,7.9,10.6c1.8,0.8,7.1,3.3,13.2,5.9
		c-5.3-2.1-11.8-4.7-15.9-6.4c-3.8-2.1-5.4-4.7-6-4.1c-0.9,0.6,1.3,11.6,27.8,17.8c0.1,0.1,0.5,0,1.1,0c-2.3,0.4-4.6,0.7-7,1
		c-0.3,0.8,1.7,4.7,15.4,3.9c1.7-0.1,11.3-3.5,10.4-2.8c-4.6,1.7-9.2,3.3-13.9,4.6c-0.8,0-5.3,0.6-5.4,0.9
		c-0.2,0.8,3.3,3.6,10.6,3.9c6.6,0.4,18.9-3.9,18.8-3.7c-0.4,0.3-12,4.3-12.3,4.5c-0.5,0.3-4.7,0.5-4.9,0.8
		c-0.4,0.8,6.2,6.9,25.4,0.4c-1.9,2.6-11.3,4.4-11.3,4.9c0,0.4,2.1,2.3,5.3,3.1c1.6,0.4,3.8,0.3,5.9,0c3.8-0.8,7.5-2.2,12.5-6.8
		c0.6,1.4-12.3,8-11.7,8.5c2.8,2.6,12.1-0.3,12.7-0.7c0.7-0.3,17.8-10,17.8-11.3c0.3,1.5-22.2,13.8-21.9,14.3
		c1.4,2.3,9.1-0.1,9.4-0.4l10.1-5.4c0.3-0.1-11.1,6.6-10.1,7.7c-0.4,3.7,12.1-0.8,17.2-3c-2.6,1.4-6.8,3.9-6.8,5.3
		c3.1,5.2,12.8,3.6,14.3,2.4c0.8-0.6-0.9,3.8-0.4,3.4c0.2,0,2.1-2.3,2.8-4c-0.2,1.5-1.3,3.8-1.9,6.4c-0.7,2.5-0.8,5.5-1.7,8.6
		c-0.2,1.1,4.4-1.7,5.1-8.7c-0.3,5-1.7,10.9-1.2,11.4c0.3,0.3,0.9,0,1.5-0.6c1.5-1.5,3.5-5.2,3.8-7.9c0.5,0.9,1.3,2.4,2.2,3.7
		c0.9,1.4,2,2.6,3,3.1c-0.2-2.9,0-2.8-0.9-5.6c0.6-3.8,0.7-9.1,0.8-15.1c5.3,10,7.4,14.3,5.9,22c0.6,0.3,1.4-0.5,2.1-1.8
		c1-1.9,1.9-4.8,1.8-6.6c0.7,2.9,2.3,5.3,4.5,7.1c1.8,1.4,3.9,2.3,6.2,2.5c0-0.7-6.4-9.3-4.7-10.3c1.6,0.3,4.2,4.2,6.5,2.9
		c-0.7-1.5-2.6-0.7-4.8-4.6c-0.4-0.7-0.7-1.6-1-2.4C529.7,112.9,529.7,112.8,529.6,112.8C529.6,112.8,529.6,112.8,529.6,112.8z
		 M420.2,77.1c-0.1,0-0.2,0-0.2,0C420,77.2,420.1,77.1,420.2,77.1z M421.1,73.2c0.2,0.1,0.3,0.1,0.5,0.2
		C421.6,73.4,421.4,73.4,421.1,73.2z M421.6,76.8c2.7-0.6,6.1-1.5,5.8-1.3C425.5,76,423.6,76.5,421.6,76.8z M414.4,65.9
		c7.3,2.8,16.9,6.4,16.8,6.8C431.1,72.9,422,69.1,414.4,65.9z M512.9,71.3c3.4,2.1,8.4,8.8,8.7,10c0.4,1.4,2.3,11.8,2.2,12.9
		l-13.6-25.5c-1.2-1.6-1.6-3-1.6-3l1.6,3C510.8,69.6,511.7,70.5,512.9,71.3z M508.7,53.9c-1.2,2.3-4.2,0.6-7.3,0.4
		C507.1,50.2,508.7,53.5,508.7,53.9z M467,90.1c4.9-2.8,9.4-6.1,13.5-9.9c-1.5,1.1-3.2,2.2-5.1,3.1c-13.1,5.7-15.1,3.1-19,2.3
		c4.4-2,5.2-3,13.8-8.7c-5.8,3.6-14.9,6.2-19.4,5.1c0.5,0,12.7-8.4,12.7-8.4s-4.7,2.4-6.6,4.1c-1.8,1.7-10.6,2.1-10.3,0.9
		c0.7,0.1,4.2-3.6,6.7-6.4c-0.4,0.4-0.8,0.7-1.1,0.9c-1.3,0.8-9.4,1.3-11.3-0.3c3.2-0.8,7.6-5.7,7.6-5.7s-9.2,3.5-10.3-1
		c4.4,0.2,8.1-2.5,8.1-2.5l11,5.1c0.2-0.1,0.4-0.2,0.6-0.3l-6.4-2.9c-5.1-1.9-10.1-4.5-10.1-4.5l10.1,4.5c3,1.1,6,1.9,8.1,1.7
		c-0.5,0.4-1.1,0.8-1.7,1.1l5.5,2.5c1,0,2.1-0.1,3.3-0.4l-1.4,1.2l4.5,2c1.3-0.2,2.7-0.6,4.1-1.4c-0.6,0.8-1.3,1.6-1.8,2.4l3.1,1.4
		l-2.2-0.2l8.2,3.8c2.2-2,4.2-4.2,6.2-6.5c0,0-2.2,3.3-6.1,6.5l6.4,3C475.8,95,466.6,91,467,90.1z M500.5,109.2l-5-15.7
		c-0.5-0.7-1.1-1.5-1.8-2.3c-6.1,5.3-9.6,3.4-9.6,3.4s0-0.9,6.2-8.4c-6.8-7.6-1.9-14-2.1-15.4l7.2,22.7
		C503.5,104.3,500.5,109.2,500.5,109.2z M504.1,111.6c0,0.4,0.1,0.9,0.1,1.4C504.1,112.5,504.1,112,504.1,111.6z M499.7,100.5
		c0,0-0.9-1.3,0.8-6.3c1.5,1.9,3.2,2.2,3.8,2.8c0.8,0.8,8.4,1.9,8.8,7L499.7,100.5z M510.1,90l3.9,6.5c0,0,0.1,0.1,0.1,0.1
		c3.2,2.8,3.4,5.6,3.4,5.6l-3.5-5.7C510.9,93.7,510.1,90,510.1,90z"/>
	<path fill="#EF7D00" d="M487.3,73.2c-1.9,2.3-4,4.4-6.2,6.5l-8.2-3.8l-1.7-0.1c0.1-0.2,0.2-0.3,0.4-0.5l-3.1-1.5
		c-2.9,0.2-4.9-0.6-4.9-0.6l1.2-1.1l-2.9-1.3c-3-0.2-5.1-1.3-6-1.7c0.5-0.1,0.9-0.3,1.3-0.5l-11-5.1c0,0-3.7,2.7-8.1,2.5
		c1.1,4.5,10.3,1,10.3,1s-4.4,5-7.6,5.7c1.9,1.6,9.9,1,11.3,0.3c0.3-0.2,0.7-0.5,1.1-0.9c-2.5,2.8-6,6.5-6.7,6.4
		c-0.3,1.1,8.5,0.8,10.3-0.9c1.9-1.7,6.6-4.1,6.6-4.1s-12.2,8.4-12.7,8.4c4.5,1.1,13.6-1.5,19.4-5.1c-8.6,5.7-9.4,6.8-13.8,8.7
		c3.9,0.8,5.9,3.5,19-2.3c1.9-0.9,3.6-2,5.1-3.1c-4.1,3.8-8.7,7.1-13.5,9.9c-0.5,0.9,8.8,4.9,20.5-7.4l-6.4-3
		C485.1,76.5,487.3,73.2,487.3,73.2z"/>
	<path fill="#EF7D00" d="M490.4,86.2c-6.2,7.5-6.2,8.4-6.2,8.4s3.5,1.9,9.6-3.4c0.6,0.8,1.2,1.5,1.8,2.3l-7.2-22.7
		C488.5,72.2,483.6,78.6,490.4,86.2z"/>
	<path fill="#EF7D00" d="M523.8,94.2c0.2-1.1-1.8-11.5-2.2-12.9c-0.3-1.2-5.3-8-8.7-10c-1.2-0.8-2-1.7-2.7-2.6L523.8,94.2z"/>
	<path fill="#EF7D00" d="M510.2,68.7l-1.6-3C508.6,65.6,509,67.1,510.2,68.7z"/>
	<path fill="#EF7D00" d="M500.5,109.2c0,0,3-4.9-5-15.7L500.5,109.2z"/>
	<path fill="#EF7D00" d="M514.1,96.6c0,0-0.1-0.1-0.1-0.1l3.5,5.7C517.5,102.2,517.3,99.4,514.1,96.6z"/>
	<path fill="#EF7D00" d="M514,96.5l-3.9-6.5C510.1,90,510.9,93.7,514,96.5z"/>
	<path fill="#EF7D00" d="M504.3,97c-0.7-0.7-2.3-0.9-3.8-2.8c-1.7,5-0.8,6.3-0.8,6.3l13.4,3.6C512.7,98.9,505,97.9,504.3,97z"/>
	<path fill="#EF7D00" d="M508.7,53.9c0-0.4-1.6-3.8-7.3,0.4C504.4,54.5,507.4,56.3,508.7,53.9z"/>
	<path fill="#EF7D00" d="M535.7,79.6c5.1,4.7,10.1,7.8,14.6,10.1l1.9-3C548.2,86.4,542.8,84.7,535.7,79.6z"/>
	<path fill="#EF7D00" d="M548.7,79c-0.4-0.3-0.7-0.5-1.1-0.8C547.7,78.5,548.1,78.7,548.7,79z"/>
	<path fill="#EF7D00" d="M531,84.6c-7-4.7,5.6,4.5,15.7,10.9l0.8-1.2C541.2,91.2,535.1,87.3,531,84.6z"/>
	<path fill="#EF7D00" d="M548.7,79c2.4,1.8,4.3,2.9,5.9,3.7l1.1-1.7C552.7,80.5,550.1,79.7,548.7,79z"/>
	<path fill="#EF7D00" d="M570.3,96.8c-1.7-1.9-9.6-2-20-7.1l-2.9,4.6C556.9,99,566.7,102,570.3,96.8z"/>
	<path fill="#EF7D00" d="M558.3,76.8c-0.5-0.2-1.1-0.3-1.6-0.5c0.4,0.2,0.9,0.5,1.5,0.7l-2.5,4c6.5,1.3,14.5,1.8,14.1,0.5
		c-0.3-1.1-0.6-1.2-7.4-3.4c5.5,1,12.1,1.1,11.6-0.2c-0.7-0.6-1.2-1.1-1.8-1.4c-0.3,0.3-1.1,0.2-2.8-0.5c-1.6-0.7-1.9-1.1-1.9-2.5
		c0-0.9,0.2-2.2,0.5-2.7c0.2-0.3,0.2-0.6,0.2-0.8c-2.9-0.5-4.9-1-5-1L558.3,76.8z"/>
	<path fill="#EF7D00" d="M559.3,85.3c-0.1-0.1-0.2-0.1-0.3-0.2c0,0-0.1,0-0.1,0l0.1,0c-1.4-0.8-2.8-1.5-4.4-2.4l-2.4,3.9
		C555.3,86.8,557.6,86.1,559.3,85.3z"/>
	<path fill="#EF7D00" d="M577.5,75.9c-0.5-0.9-1.4-1.3-2.8-1.3c-1.8,0-2.2,0.2-2.2,1.1c0,0.1,0,0.3,0,0.4
		C574,76.2,575.7,76.2,577.5,75.9z"/>
	<path fill="#EF7D00" d="M545,100.9c3.1,1.1,10.8,2.2,12,0.2c-1,0.1-5.4-2.4-10.4-5.6l-2.8,4.5l-0.1,0.2
		C543.9,100.4,544.3,100.7,545,100.9z"/>
	<path fill="#EF7D00" d="M559,85.1c1.1,0.2,6.7,0.2,8.5-0.1L559,85.1L559,85.1C558.9,85.1,559,85.1,559,85.1z"/>
	<path fill="#EF7D00" d="M473.9,72.3c-1.4,0.7-2.8,1.2-4.1,1.4l2.3,1C472.6,73.8,473.2,73.1,473.9,72.3z"/>
	<path fill="#EF7D00" d="M451.5,65.5l-10.1-4.5C441.3,60.9,446.4,63.6,451.5,65.5z"/>
	<path fill="#EF7D00" d="M466.7,70.4c-1.2,0.3-2.3,0.4-3.3,0.4l1.9,0.9L466.7,70.4z"/>
	<path fill="#EF7D00" d="M451.5,65.5l6.4,2.9c0.6-0.3,1.1-0.7,1.7-1.1C457.5,67.4,454.5,66.6,451.5,65.5z"/>
	<path fill="#EF7D00" d="M463.6,73.2c0,0,2,0.8,4.9,0.6c0.4,0,0.8-0.1,1.3-0.1l-4.5-2l-0.5,0.4L463.6,73.2z"/>
	<path fill="#EF7D00" d="M471.3,75.8l1.7,0.1l2.2,0.2l-3.1-1.4c-0.1,0.2-0.3,0.4-0.4,0.6C471.5,75.4,471.4,75.6,471.3,75.8z"/>
	<path fill="#EF7D00" d="M462,70.8c0.5,0,0.9,0,1.4,0l-5.5-2.5c-0.2,0.1-0.4,0.2-0.6,0.3c-0.4,0.2-0.9,0.4-1.3,0.5
		C456.9,69.5,458.9,70.5,462,70.8z"/>
</g>
</svg>
