<?xml version="1.0" encoding="utf-8"?>
<!-- Generator: Adobe Illustrator 17.1.0, SVG Export Plug-In . SVG Version: 6.00 Build 0)  -->
<!DOCTYPE svg PUBLIC "-//W3C//DTD SVG 1.1//EN" "http://www.w3.org/Graphics/SVG/1.1/DTD/svg11.dtd">
<svg version="1.1" id="flag-icon-css-zw" xmlns="http://www.w3.org/2000/svg" xmlns:xlink="http://www.w3.org/1999/xlink" x="0px"
	 y="0px" viewBox="0 0 640 480" enable-background="new 0 0 640 480" xml:space="preserve">
<g>
	<path fill="none" d="M371,0h1.3C372,0,371.5,0,371,0z"/>
	<polygon fill="none" points="426.7,479.8 426.7,479.8 426.7,479.8 	"/>
	<path fill="#006400" d="M522.6,62c-2.5-0.3-7.3-0.6-10.8-0.6c-5.9,0-6.3-0.1-9.3-1.5c-2.5-1.3-3.1-1.8-3.3-3.1
		c-0.2-1.2-0.9-2-2.6-3c-1.3-0.8-3.3-2.9-4.9-5.1L489,45l-7-1.7c-3.9-1-8.7-2.3-10.8-3.1c-3.3-1.2-3.8-1.6-4.2-2.9
		c-0.2-0.8-1-1.8-1.6-2.1c-0.7-0.4-1.7-1.4-2.3-2.3c-1.4-2-7.1-4.4-10.3-4.3c-3.6,0.1-7.5,1.2-9.7,2.6c-2.6,1.8-3.8,1.8-5.4,0.1
		l-1.2-1.3l-16.1-0.7c-8.8-0.4-16.2-0.7-16.3-0.7c-0.1-0.1-0.1-5.8,0.1-12.9l0.3-12.8l-2.9-0.3c-1.6-0.2-3.5-0.6-4.2-0.9
		c-1.2-0.5-1.5-0.4-3.4,1.1l-2.1,1.7l-1.6-1.8l-1.6-1.8l-7.3-0.4c-4-0.2-7.9-0.4-8.8-0.5c0,0-0.1,0-0.1,0H371c-1.5,0-4,0.2-6.4,0.5
		c-3.5,0.4-7.4,0.7-8.7,0.7c-1.6,0.1-3.7,0.6-5.9,1.6c-2.5,1.1-4.2,1.5-6.3,1.5c-2.2,0-3.9,0.5-7.5,2c-2.6,1.1-6.3,2.6-8.3,3.3
		c-4.8,1.8-10.5,5.6-12.7,8.5c-1.4,1.8-2.1,2.3-3.2,2.4c-0.9,0-2.9,1.1-5.2,2.5l-3.8,2.6v2.6c0,1.9-0.4,3.2-1.3,4.7
		c-1,1.6-1.3,2.7-1.3,5.3c0,1.8-0.4,4.8-0.8,6.6c-0.4,1.8-0.8,4.6-0.8,6.1c-0.1,3.7-0.9,6.1-2.9,8.3c-1.9,2.1-8.9,5.4-19.6,9.3
		h261.8C527.3,62.7,526.9,62.5,522.6,62z"/>
	<path fill="#006400" d="M436.7,469.9c5.5-5.5,16.5-15.9,24.4-23.2c7.9-7.3,21.7-20.6,30.7-29.5c2.3-2.3,4.3-4.3,6-6H217.1
		c1.9,3.9,2.5,4.1,13.5,4.6c7.9,0.3,8.6,0.5,13.7,2.2c4.4,1.6,5.8,1.9,8,1.6c2.5-0.2,3.2,0,8.6,2.5c3.6,1.7,8.7,3.6,13.1,4.8
		c6.4,1.8,9.7,3.1,9.7,4c0,0.2-0.9,1.8-2,3.6l-2,3.3l1.3,3.6c0.8,2.3,2,4.4,3.3,5.9l2.1,2.3l4.9,0.3l4.9,0.3l2.4,2.9l2.4,2.9h4
		c2.2,0.1,5.3-0.3,6.8-0.7c1.7-0.5,3.7-0.6,5.1-0.5c1.3,0.2,2.8,0.1,3.6-0.2c1.1-0.5,1.8-0.2,5.3,2c3.6,2.3,4.2,2.5,6.8,2.4l2.7-0.1
		l1,3.8c1.2,4.7,1.7,4.9,7.3,3.7c5.3-1.1,5.8-1,10.1,1.5c4.4,2.6,6.2,2.8,11.3,1.4c2.9-0.8,3.2-0.8,5.5,0c3.1,1.1,4.7,1.1,7-0.1
		c1.4-0.7,3.5-1,8.5-1.3c9.4-0.5,11-0.2,15,2.8c2.9,2.2,3.6,2.5,5.9,2.5c1.7,0,3.4-0.4,5.1-1.3c1.4-0.7,3-1.3,3.7-1.3
		c1.4,0,5.3,2.9,8.5,6.3l2.4,2.5h0L436.7,469.9z"/>
	<path fill="#FFD200" d="M564.7,134.2c0.5-0.7,1.1-2,1.3-2.8c0.2-1,0.9-1.9,1.9-2.4l1.5-0.9l-1.2-1.6c-0.8-1.2-1.2-2.4-1.2-4.2
		c-0.1-1.4-0.9-6-1.8-10.3c-1.7-7.3-1.9-7.8-4.2-10.8c-2.5-3.2-2.5-3.6,0.1-4.3c0.7-0.2,2.5-2.8,5.3-7.4c2.3-3.9,4.3-7.3,4.4-7.4
		c0.1-0.2-4.4-0.2-10-0.1l-10.1,0.2v-3.5v-3.5l-11.8-6.3c-0.2-0.1-0.5-0.3-0.7-0.4H276.3c-5.2,1.9-11.2,3.9-17.9,6
		c-0.9,0.3-1.9,1.5-3.3,4.1l-2,3.7l-5.8,2.1c-6.2,2.3-12.1,5.2-16.7,8.3c-3.4,2.3-10.1,10.9-14.9,19.1c-1.8,3-5.1,8-7.4,11.1
		c-3.6,4.8-4.7,5.8-7.8,7.7c-3.4,2-6.4,4.2-9,6.5h372.3C563.8,136.1,564.1,135.1,564.7,134.2z"/>
	<path fill="#FFD200" d="M511.8,401.9c0.8,0.3,0.9,0.1,0.9-2.3c0-2.3-0.4-3.2-2.6-6.9c-1.5-2.5-2.4-4.5-2.2-4.9
		c0.2-0.4,2.6-3.7,5.4-7.4l5-6.8l-0.6-8.1c-0.8-11.1-0.9-10.3,1.7-13.2c2.1-2.4,2.5-2.6,5.2-2.9c1.6-0.2,3.3-0.4,3.9-0.5
		c0.6-0.1,2.3-2.2,4.8-6.2H203.7c0.3,1.1,0.2,1.8-0.3,3.8c-0.7,2.3-0.7,3.4-0.3,6.6c0.5,3.4,0.5,4.1-0.4,6.4
		c-1.4,3.4-2.4,9.8-2.1,12.5c0.2,1.4-0.1,3.4-0.6,5.2c-0.8,2.9-0.8,3,0.3,5.4c1.1,2.3,2,2.9,4.3,3c1.7,0.1,6.9,8,9,13.8
		c1.1,2.7,1.9,5.7,1.9,6.6c0,1,0.7,3.2,1.6,5.1c0,0.1,0.1,0.2,0.1,0.3h280.7C509.1,400,508.7,400.7,511.8,401.9z"/>
	<path fill="#D40000" d="M534.2,341.6c3.2-5.1,5-7.4,6.4-8.2c1.5-0.9,2.1-1.8,2.7-3.6c0.6-1.6,0.7-2.6,0.3-3
		c-0.3-0.3,0.1-1.6,1.1-3.6c1.2-2.5,1.9-3.3,3.1-3.8c0.9-0.3,1.7-1,1.9-1.6c0.2-0.7,0.7-1,1.5-1c0.7,0,1.9-0.2,2.7-0.3l1.5-0.3
		l0.6-5.7c0.4-3.1,1.1-7.3,1.6-9.4c0.6-2.1,1-3.9,1-4.1s-2.6-2.4-5.8-5l-5.9-4.8l0.4-3.4l0.3-3.4l-2.3-3.3c-1-1.4-1.6-2.2-1.9-3H279
		l-88.4,64.6c1.3,0.1,2.6,0.1,4.1,0.3c4.2,0.3,7.7,0.7,7.8,0.7c0,0.1,0.4,1,0.8,2.1c0.1,0.4,0.3,0.7,0.3,1h329.8
		C533.7,342.3,534,342,534.2,341.6z"/>
	<path fill="#D40000" d="M563.8,205.6c0.4-0.7,0.5-1.5,0.5-2.4c0-1.7,0.3-2.3,1.2-2.7c1.1-0.6,1.9-1.4,1.9-2.1c0-0.2-0.9-1-2-1.7
		l-2-1.4v-3.8c0-3.5-0.2-4.2-2.6-9.5l-2.6-5.8l1.6-3.6c1.1-2.5,1.6-4.4,1.6-6.2c0-3.2,0.9-6.3,2.1-6.9c1.2-0.7,2-3.1,2-6.1
		c0-1.5,0.3-2.6,0.8-3c0.4-0.4,0.8-1.4,0.8-2.3c0-2.5-1.4-7.3-2.4-8.4c-0.6-0.6-0.8-1.6-0.7-2.7H191.4c-1,0.8-1.8,1.7-2.7,2.5
		l90.3,66H563.8z"/>
	<path d="M325.9,239.8L279,274.1h264.4c-0.4-0.9-0.4-1.7-0.4-3.2v-3l2.5-1.8l2.5-1.8l0.6-4.8c0.3-2.6,1-6.3,1.6-8
		c1-3.1,1-3.3,0.2-4.7c-0.6-1.1-0.8-2-0.5-3.3l0.4-1.9l-3.5,0.4c-3.4,0.3-3.5,0.3-5.1-1.2c-0.9-0.8-1.7-1.8-1.7-2.2
		c0-0.4,0.8-1.5,1.7-2.4c1.7-1.6,1.7-1.7,1-3.1c-0.4-0.8-0.7-1.7-0.7-1.9c0-0.3,1.4-1.3,3.1-2.1l3.1-1.6l2.9,1
		c3.4,1.1,3,1.3,5.6-3.2l1.7-3l-1.2-3.6c-0.6-2-1.6-4.2-2.1-5c-0.6-0.7-1-2.1-1-3c0-1.6,0.2-1.7,2.7-2.7c2.5-1,2.8-1,3.6-0.3
		s0.9,0.7,2.3-1c0.4-0.5,0.8-1,1-1.5H279L325.9,239.8z"/>
	<path fill="#FFFFFF" d="M93.9,177.1c-3.6-1.3-7.4-3.7-4.3-4.2c0.9-0.1,12.2-1.3-0.2-1.6l-4.2,0.1v-1.7c0-2.6,2.3-4.7,5.3-4.7
		c1.9-0.1,3.7-0.7,5.4-1.6c1.8-0.9,2.7-1.2,4.4-1.2c-1.4-0.1-2.4-0.2-2.6-0.3c-0.5-0.2-1-1.2-1.2-2.2c-0.3-1.8-0.5-2-4.6-4l-4.3-2.1
		h-9c-13.1-0.1-18.1-0.6-22-2.4l-3.2-1.5l0.3,5.4c0.3,4.7,0.5,6,2.4,10.8c2,5.3,2.1,5.5,4.6,6.9c2.5,1.4,2.6,1.5,5.3,8.2
		c2.6,6.5,4.4,10.2,6.1,12.9h25.8C97.6,177.6,97.8,178.2,93.9,177.1z"/>
	<path fill="#FFFFFF" d="M108.1,162.5c-0.7,0-1.5,0-2.4,0c0.8,0.1,1.5,0.3,2.2,0.6L108.1,162.5z"/>
	<path fill="#FFFFFF" d="M325.9,239.8L279,205.6l-90.3-66c-3.1,3.2-5,6.4-5.4,9c-0.3,1.8-0.7,2.6-1.9,3.5c-0.8,0.6-2.2,2.4-3,3.9
		c-1.4,2.5-1.9,3-6.3,5.5c-2.9,1.6-5.8,2.8-7.1,3c-1.4,0.2-3.3,1-4.8,2c-2.9,2-3.3,2-4.1,0.5l-0.6-1.3l-2.4,1.3
		c-2.8,1.4-5.8,1.6-7.4,0.5c-0.6-0.5-1.6-1.7-2.3-2.8c-0.8-1.4-1.8-2.3-3.4-3c-1-0.5-1.9-0.7-3.7-0.9l11,33.1h80.4l-54.5,38.6
		c4.9,3.9,6.3,5.4,6.3,6c0,2.2-1.4,2.3-6.2,1.1c-2.6-0.7-4.7-0.9-4.7-0.9c-1.4,2.3-2.8,4.7-4,7.1l22.9,68.6l-33.5-23.7
		c-0.6,0.6-2,0.2-4.8-0.6c-0.2,0-0.4-0.1-0.6-0.1l-11.1-1.8c-3-0.3-6.8-0.5-10.8-0.6c0.5,0.2,1.2,0.4,2,0.6l4.1,1.1l1.4,3.6
		c2.1,5.4,2.5,5.9,4.8,5.9c1.6,0,2.5,0.5,4.9,2.4c2.8,2.3,3.1,2.4,10.5,4c4.2,0.9,8.7,1.7,10,1.7c2,0,2.6,0.3,5.6,2.8
		c3.3,2.9,3.3,2.9,5.5,9.3l2.1,6.4l-0.3,7.5l-0.4,7.5l1.2-0.3c4.3-1,7.6-1.3,12.6-1.1l88.4-64.6L325.9,239.8z"/>
	<path fill="#D40000" d="M113.3,167.6c0.5,1.1,1.6,6.6,2.5,12.2l1.8,10.9c0.1,0.5,0.8,0.8,1.5,0.8c10.6,7.2,20.9,14.8,30.8,22.7
		c11.7,8.9,19,14.5,23.4,18l54.5-38.6h-80.4l-11-33.1c-1.7-0.1-4.2-0.2-8.4-0.2c-8.6,0-10.3,0.2-13.4,1.1c-2.3,0.7-3.6,0.9-6.4,0.9
		l-0.2,0.5C110.5,163.9,112.2,165.4,113.3,167.6z"/>
	<path fill="#D40000" d="M96.4,212.9c1.2-3.1,1.2-5,1.2-18.6c0-0.2,0-0.4,0-0.6H71.8c1.2,1.7,2.3,3,3.7,4.1c2.2,1.7,3.3,3.1,4.2,5
		c1.1,2.5,1.4,2.7,4.1,3.6l2.9,1l-0.2,4.4c-0.1,3.6,0.2,5.3,1.2,8.5l1.3,4.1l3.9,2.2l3.4,1.9C94.9,224,94.9,217.4,96.4,212.9z"/>
	<path fill="#D40000" d="M97.2,231.2l0.2,1.8c0.1-0.1,0.2-0.2,0.2-0.3C97.6,232.5,97.4,231.9,97.2,231.2z"/>
	<path fill="#D40000" d="M154.7,285c0,3.3,0.1,4.9-0.6,5.5l33.5,23.7l-22.9-68.6c-1.5,2.9-2.9,5.8-4.1,8.9
		C156.7,264.2,154.7,274.5,154.7,285z"/>
	<path fill="#FFCC00" d="M117.7,274.1l-1.5-1.4c0,0-1.5,1.6-1.5,1.6l-0.8,0.8c0.4,0,0.8,0.1,1.1,0c1.4-0.1,1.8,0,2.2,0.6l2.3-0.2
		L117.7,274.1z"/>
	<ellipse fill="#FFCC00" cx="101" cy="167.9" rx="1.4" ry="1.3"/>
	<path fill="#FFCC00" d="M152.7,289.5c0.6,0,0.8-1.3,0.8-5v-5l-1.9-0.3c-6.7-1.1-17.9-1.8-28.1-1.8c-2,0-3.9,0-5.8,0.1
		c0,0.6-0.1,1.1-0.6,1.9c-0.9,1.4-0.9,1.5,0.3,2.2c0.7,0.4,2,0.9,2.9,1.1c1.4,0.3,2.1,0.8,3,2.3c0.4,0.7,0.8,1.2,1.2,1.5
		c7.4,0.1,14.9,0.8,22.2,2L152.7,289.5z"/>
	<path fill="#FFCC00" d="M137.6,288l11.1,1.8c-2.1-0.4-6.5-1.2-10.3-1.7C138.1,288,137.8,288,137.6,288z"/>
	<polygon fill="#FFCC00" points="128,273.8 126.4,272.2 126.3,272.2 124.6,273.9 122.9,275.7 126.3,275.7 129.7,275.6 	"/>
	<path fill="#FFCC00" d="M123.1,273.7l1.4-1.5h-6.3l1.4,1.5C121.2,275.5,121.4,275.5,123.1,273.7z"/>
	<path fill="#FFCC00" d="M136.1,270.9c5.7,0.5,11.7,0.9,13.1,1.3c4.9,0.8,5.4,0.7,5.4-0.9c0-1.4-0.4-1.5-4-1.9
		c-2.2-0.2-11.4-0.5-20.4-0.5c-10.3,0-18.5,0.3-23.8,0.9l0.5,1.9C116.6,270.6,126.4,270.4,136.1,270.9z"/>
	<path fill="#FFCC00" d="M103.3,163.3H101v-0.1c-1.5,0-3,0.4-4.3,1.1c-1.6,0.8-3.4,1.3-5.2,1.5c-2.9,0.3-4.8,1.5-5.3,3.3
		c-0.2,0.9,0.1,1,3.6,0.8c4.3-0.2,6,0.6,6.2,2.1c0.2,0.9,0.4,0.8-0.8,1c-2.8,0.8-4,0.3-5.2,1c-0.9,0.6,2.6,1.5,5.3,2.4
		c3.3,1.1,3.6,2.1,3.3,12v13.5l0.4,4.8l1.5-2.1c3.3-4.2,7.3-7.8,11.7-10.9c2.7-1.7,3.8-2.9,3.8-3.8c-0.4-3.6-0.8-7.2-1.4-10.7
		C112.5,165.8,111.1,163.7,103.3,163.3z M100.9,165.9c0,0,0.1,0,0.1,0c1.1-0.1,2,0.8,2.1,2c0,1.2-0.9,2.1-2.1,2.1S99,169,99,167.9
		C99,166.8,99.8,166,100.9,165.9z"/>
	<path fill="#FFCC00" d="M133.8,273.7l1.4-1.5h-6.3l1.4,1.5C132,275.5,132.2,275.5,133.8,273.7z"/>
	<path fill="#FFCC00" d="M146.3,274.5l-0.8,0.3c-0.7,0.3-1.3,1-1.5,1.5c0,0.5,0.7,0.7,2.3,0.7h2.5l-1.1-1.4
		C147.2,274.7,146.8,274.5,146.3,274.5z"/>
	<path fill="#FFCC00" d="M150.9,273.8c-0.9-0.2-1.9-0.2-2.3-0.2v0h-0.4l1.2,1.8l1.3,1.6l1.4-1.4l1.5-1.4L150.9,273.8z"/>
	<path fill="#FFCC00" d="M136.6,272.8l-1.4,1.4l-1.4,1.4l2,0.3c4.2,0.8,4.3,0.7,2.5-1.3L136.6,272.8z"/>
	<path fill="#FFCC00" d="M154.1,276.5c0-0.3,0-0.6-0.2-0.6l-0.7,0.5c-0.5,0.3-0.7,0.9-0.6,1.3C153,278.5,154.1,277.7,154.1,276.5z"
		/>
	<polygon fill="#FFCC00" points="115.7,264 114.1,265.9 112.5,267.6 116,267.5 119.5,267.3 117.6,265.6 	"/>
	<path fill="#FFCC00" d="M137.8,264.3c-0.4-0.2-0.6-0.3-0.9-0.3l0.1-0.1c-0.5,0-0.9,0.5-1.6,1.1l-1.5,1.5l1.4,0.3l2.9,0.6
		c1.5,0,1.6-0.2,1.2-1.1C138.9,265.5,138.4,264.9,137.8,264.3z"/>
	<path fill="#FFCC00" d="M113.3,263.7H113l-2.8,0.3l-2.8,0.3l1.8,1.5l1.8,1.4l1.2-1.6C112.9,264.9,113.4,264,113.3,263.7z"/>
	<path fill="#FFCC00" d="M127.1,264v0.1c-0.5,0-1.2,0.3-2,1.1l-1.6,1.5h3.2c3.2,0,3.2,0,2.3-1.3C128.3,264.3,127.7,264,127.1,264z"
		/>
	<path fill="#FFCC00" d="M145,263.8l-1.8-0.3c-0.9-0.2-2.5-0.2-3.3-0.2h-1.4l1.3,1.6l1.6,1.8c0.1,0.1,0.9-0.6,1.9-1.4L145,263.8z"/>
	<path fill="#FFCC00" d="M141.8,272.8H139l1.4,1.5c1.6,1.7,1.6,1.7,3,0.6C145.2,273.2,144.8,272.8,141.8,272.8z"/>
	<path fill="#FFCC00" d="M129,263.3l1.3,1.4c1.8,1.8,1.9,1.8,3.5,0l1.4-1.4H129z"/>
	<path fill="#FFCC00" d="M155.4,267.7c0.2-0.5,0.2-0.7,0-0.7l-0.1,0.1h-0.4c-0.5,0.2-0.8,0.6-0.8,0.8
		C154.1,268.9,155.1,268.6,155.4,267.7z"/>
	<path fill="#FFCC00" d="M156.1,264.4h-2.3c-1.3-0.1-3-0.2-3.9-0.5l-1.4-0.3l1.8,1.8c0.8,1,1.9,1.9,2,1.9c0.8-0.4,1.5-0.9,2.1-1.5
		L156.1,264.4z"/>
	<path fill="#FFCC00" d="M148.4,265.6l-1.4-1.4l-1.9,1.6l-1.9,1.5l2.6,0.2l3.3,0.3C150.3,268,150.1,267,148.4,265.6z"/>
	<path fill="#FFCC00" d="M143.5,236.6c0.6,0.1,1.2-0.1,1.3-0.4c0,0,0-0.1,0-0.1c-0.1-0.4-0.6-0.6-1.2-0.6c-0.5,0.1-0.8,0.4-0.8,0.7
		C142.9,236.4,143.2,236.5,143.5,236.6z"/>
	<path fill="#FFCC00" d="M118.1,258.2c3.2,1.5,7-0.8,7-4.2c0-2.5-2.1-4.6-4.7-4.6h-0.1c-0.6,0-1.2,0.2-1.8,0.5
		C115.2,251.3,114.9,256.5,118.1,258.2z"/>
	<path fill="#FFCC00" d="M144.3,233.1C144.3,233.1,144.3,233.1,144.3,233.1c-0.1-0.5-0.6-0.7-1.2-0.7c-0.5,0.1-0.8,0.4-0.8,0.7
		c0.1,0.2,0.3,0.4,0.6,0.4C143.5,233.7,144.2,233.5,144.3,233.1z"/>
	<path fill="#FFCC00" d="M113,273.9c0.8-1.1,1.1-1.7,0.8-1.7v0.1c-0.2,0-0.3,0-0.5,0c-0.6,0.2-2,0.5-3.2,0.5h-2.1l1.1,1.1l1.1,0.4
		c0.6,0.2,1.3,0.4,2,0.6C112.5,274.6,112.8,274.3,113,273.9z"/>
	<path fill="#FFCC00" d="M153.7,262.9c2,0.2,2.8,0.2,2.9-0.3l2.3-6.9c1.3-3.3,2.1-6.1,2-6.2c-13.5-2.8-27.3-4.4-41.1-4.8l-0.1,0.2
		h-1.1c-3.7,2.8-7.7,5.3-12,7.4l-4.2,2.1c0.6,2,1.2,4.3,2,7.4l0.3,1.2c0.1,0,0.2,0,0.3,0C115.9,261.6,144,261.4,153.7,262.9z
		 M144,248.8c5.3,0,7.9,6.4,4.1,10.3s-10.1,1.1-10.1-4.3C138,251.2,140.5,248.8,144,248.8z M120.4,248.1c5.3,0,7.9,6.4,4.1,10.3
		s-10.1,1.1-10.1-4.3C114.5,250.5,116.9,248.1,120.4,248.1z"/>
	<path fill="#FFCC00" d="M141.6,258.9c3.2,1.5,7-0.8,7-4.2c0-2.5-2.1-4.6-4.7-4.6h-0.1c-0.6,0-1.2,0.2-1.8,0.5
		C138.7,252,138.5,257.2,141.6,258.9z"/>
	<path fill="#FFCC00" d="M109.1,267.8l-1.4-1.5c-0.7-0.8-1.6-1.4-1.9-1.4c-0.1,0-0.2,0.1-0.5,0.2l0.8,3.1l0,0L109.1,267.8z"/>
	<path fill="#FFCC00" d="M145.5,233.1c0.1,0.2,0.3,0.4,0.6,0.4c0.6,0.1,1.2-0.1,1.3-0.4c0,0,0-0.1,0-0.1c-0.1-0.4-0.6-0.6-1.2-0.6
		C145.8,232.5,145.5,232.8,145.5,233.1z"/>
	<path fill="#FFCC00" d="M140.2,236.5c0.6,0.1,1.2-0.1,1.3-0.4c-0.1-0.4-0.6-0.6-1.2-0.6c-0.4,0.1-0.8,0.3-0.8,0.6
		C139.6,236.3,139.9,236.4,140.2,236.5z"/>
	<path fill="#FFCC00" d="M125.8,239.7c5.9-1.3,10-5.7,8.8-9.5c-0.5-1.6-1.2-1.9-11-4.7c-5.7-1.7-11-3.4-11.7-4
		c-1.8-1.3-2.9-5.1-2.3-7.4c0.6-1.9,3.5-5.4,3.5-4c-0.2,0.8-0.6,1.6-1.2,2.3c-1.6,2.1-1.6,5,0.1,7.1c1.2,1.5,5.2,2.6,32.8,10.6
		c17.3,4.9,32,8.9,32.5,8.9c0.7,0,1.2-0.3,1.2-0.8c0-1.3-57.6-45.1-59.5-45.5h-0.5c-2.5,0.1-7,2.9-11.7,7.3c-4.8,4.7-7.9,9-9.4,13.4
		c-1.4,5.1-1.3,10.6,0.2,15.7l1.2,3.8c-0.4,0.5-0.8,1-1.2,1.4c0.3,3,0.3,4.6-0.1,5.7c-0.3,1-0.4,1.6,0.3,3.2
		c2.8-2.7,5.6-5.4,8.2-8.3c3.9-4.5,4.1-5,3.9-6.9c-0.5-1.9,0.5-5.6,1.2-4.9c0.2,0.2,0.5,1.9,0.5,3.8c0.1,3.3,0,3.5-2.7,6.7
		c-1.5,1.9-5.9,6.4-9.4,9.9c-0.3,0.3-0.7,0.7-1,1c0.2,0.5,0.5,1,0.9,1.7c1.1,2.2,1.9,4.1,2.8,7.1c6.3-2.8,12.2-6.5,17.6-10.8
		C121.6,241.2,123.6,240.2,125.8,239.7z"/>
	<path fill="#FFCC00" d="M137.3,235.4c-0.5,0.1-0.8,0.4-0.8,0.7c0.1,0.2,0.3,0.4,0.6,0.4c0.6,0.1,1.2-0.1,1.3-0.4c0-0.1,0-0.1,0-0.2
		c-0.1-0.4-0.6-0.6-1.2-0.6V235.4z"/>
	<path fill="#FFCC00" d="M139.9,234.5C139.9,234.4,139.9,234.4,139.9,234.5c-0.1-0.5-0.6-0.7-1.2-0.7c-0.5,0.1-0.8,0.4-0.8,0.7
		c0.1,0.2,0.3,0.4,0.6,0.4C139.1,235,139.7,234.8,139.9,234.5z"/>
	<path fill="#FFCC00" d="M141.9,235c0.6,0.1,1.2-0.1,1.3-0.4c-0.1-0.4-0.6-0.6-1.2-0.6c-0.4,0.1-0.8,0.3-0.8,0.6
		C141.4,234.8,141.6,234.9,141.9,235z"/>
	<path fill="#FFCC00" d="M136.6,232.4c0.1,0.2,0.3,0.4,0.6,0.4c0.6,0.1,1.2-0.1,1.3-0.4c0,0,0-0.1,0-0.1c-0.1-0.4-0.6-0.6-1.2-0.6
		C136.9,231.8,136.6,232.1,136.6,232.4z"/>
	<path fill="#FFCC00" d="M144.6,232.2c0.6,0.1,1.2-0.1,1.3-0.4c0,0,0-0.1,0-0.1c-0.1-0.4-0.6-0.6-1.2-0.6c-0.5,0.1-0.8,0.4-0.8,0.7
		C144.1,231.9,144.3,232.1,144.6,232.2z"/>
	<path fill="#FFCC00" d="M135.8,230.7c0.6,0.1,1.2-0.1,1.3-0.4c0,0,0-0.1,0-0.1c-0.1-0.4-0.6-0.6-1.2-0.6c-0.5,0.1-0.8,0.4-0.8,0.7
		C135.3,230.4,135.5,230.6,135.8,230.7z"/>
	<path fill="#FFCC00" d="M139.4,232.9c0.1,0.2,0.3,0.4,0.6,0.4c0.6,0.1,1.2-0.1,1.3-0.4c0,0,0-0.1,0-0.1c-0.1-0.4-0.6-0.6-1.2-0.6
		C139.7,232.3,139.4,232.5,139.4,232.9z"/>
	<path fill="#FFCC00" d="M141.8,231.6c0.6,0.1,1.2-0.1,1.3-0.4c0,0,0-0.1,0-0.1c-0.1-0.4-0.6-0.6-1.2-0.6c-0.5,0.1-0.8,0.4-0.8,0.7
		C141.3,231.4,141.5,231.5,141.8,231.6z"/>
	<path fill="#FFCC00" d="M135.7,234.9c0.6,0.1,1.2-0.1,1.3-0.4c0,0,0-0.1,0-0.1c-0.1-0.4-0.6-0.6-1.2-0.6v0.1
		c-0.4,0.1-0.8,0.3-0.8,0.6C135.2,234.7,135.4,234.8,135.7,234.9z"/>
	<path fill="#FFCC00" d="M134.2,236.4c0.6,0.1,1.2-0.1,1.3-0.4c0,0,0-0.1,0-0.1c-0.1-0.4-0.6-0.6-1.2-0.6c-0.5,0.1-0.8,0.4-0.8,0.7
		C133.7,236.2,133.9,236.3,134.2,236.4z"/>
	<path fill="#FFCC00" d="M163.1,246.1c0.9-1.7,1.8-3.4,2.8-5l1.8-3.1l-9.3-2.6c-4.7-1.3-8.6-2.1-9.3-2.3L148,235
		c-1.4,2.1-4.9,3.1-10.2,2.7c-3.6-0.3-4.6-0.1-6.9,1.1c-2,1-4.1,1.9-6.2,2.7l-3.5,1.3l9.4,0.8c9.8,0.8,19.5,2.1,25.6,3.4
		C161.7,248.4,161.9,248.4,163.1,246.1z"/>
	<path fill="#FFCC00" d="M138.8,231c0.6,0.1,1.2-0.1,1.3-0.4c0,0,0-0.1,0-0.1c-0.1-0.4-0.6-0.6-1.2-0.6c-0.5,0.1-0.8,0.4-0.8,0.7
		C138.2,230.8,138.5,230.9,138.8,231z"/>
	<path fill="#FFCC00" d="M146.5,234.5C146.5,234.4,146.5,234.4,146.5,234.5c-0.1-0.4-0.5-0.7-1.1-0.7c-0.5,0.1-0.8,0.4-0.8,0.7
		c0.1,0.1,0.3,0.2,0.5,0.3C145.5,234.9,146.2,234.8,146.5,234.5z"/>
	<path fill="#FFCC00" d="M123.9,264.4l1.2-1.1h-3.4v-0.1c-1.8,0-3.3,0.2-3.3,0.5c0.3,0.6,0.7,1.2,1.2,1.7
		C121,266.8,122,266.7,123.9,264.4z"/>
	<path d="M138.4,288.1c3.8,0.5,8.1,1.3,10.3,1.7c0.2,0,0.5,0.1,0.6,0.1c2.8,0.7,4.2,1.2,4.8,0.6c0.7-0.6,0.6-2.2,0.6-5.5
		c0-10.4,2.1-20.8,6-30.5c1.2-3,2.6-6,4.1-8.9c1.2-2.4,2.6-4.8,4-7.1c0,0,2.1,0.2,4.7,0.9c4.8,1.1,6.2,1,6.2-1.1c0-0.6-1.4-2-6.3-6
		c-4.4-3.6-11.7-9.1-23.4-18c-10-8-20.3-15.5-30.8-22.7c-0.7,0-1.4-0.3-1.5-0.8l-1.8-10.9c-0.8-5.6-2-11.1-2.5-12.2
		c-1.1-2.2-2.8-3.7-5.4-4.6c-0.7-0.2-1.4-0.4-2.2-0.6c-0.3,0-0.7,0-1,0c-1.6-0.1-3.2-0.2-4.5-0.3c-1.7,0.1-2.6,0.3-4.4,1.2
		c-1.7,0.9-3.5,1.5-5.4,1.6c-2.9,0-5.3,2.1-5.3,4.7v1.7l4.2-0.1c12.4,0.3,1.2,1.5,0.2,1.6c-3,0.6,0.7,3,4.3,4.2
		c3.8,1.1,3.6,0.5,3.6,16.6c0,0.2,0,0.4,0,0.6c0,13.6,0,15.5-1.2,18.6c-1.5,4.5-1.5,11.1-0.1,15.7l0.6,0.3l0.3,2.2
		c0.2,0.8,0.4,1.3,0.4,1.5c0,0-0.1,0.1-0.2,0.3l0.1,0.7c0,0.2,0,0.4,0.1,0.6c0.4-0.5,0.8-0.9,1.2-1.4l-1.2-3.8
		c-1.6-5.1-1.7-10.5-0.2-15.7c1.5-4.3,4.6-8.7,9.4-13.4c4.7-4.5,9.3-7.2,11.7-7.3h0.5c2,0.3,59.5,44.2,59.5,45.5
		c0,0.5-0.5,0.8-1.2,0.8c-0.5,0-15.1-4-32.5-8.9c-27.7-8-31.6-9.1-32.8-10.6c-1.7-2.1-1.7-5-0.1-7.1c0.6-0.7,1-1.4,1.2-2.3
		c0-1.4-2.9,2.1-3.5,4c-0.6,2.3,0.6,6.2,2.3,7.4c0.7,0.6,6,2.3,11.7,4c9.8,2.7,10.5,3.1,11,4.7c1.2,3.8-2.9,8.2-8.8,9.5
		c-2.2,0.5-4.3,1.4-6.1,2.7c-5.4,4.3-11.3,7.9-17.6,10.8c0.1,0.4,0.3,0.8,0.4,1.3l4.2-2.1c4.2-2.1,8.2-4.6,12-7.4h1.1l0.1-0.2
		c13.8,0.4,27.6,2,41.1,4.8c0.1,0.1-0.7,2.9-2,6.2l-2.3,6.9c-0.1,0.6-0.9,0.6-2.9,0.3c-9.7-1.5-37.9-1.4-48.6,0.2
		c-0.1,0-0.2,0-0.3,0l0.5,2c0.2-0.1,0.4-0.2,0.5-0.2c0.2,0,1.2,0.6,1.9,1.4l1.4,1.5l-2.9,0.5l0,0l0.4,1.4c5.3-0.5,13.6-0.9,23.8-0.9
		c9,0,18.2,0.2,20.4,0.5c3.6,0.5,4,0.6,4,1.9c0,1.6-0.5,1.7-5.4,0.9c-1.4-0.3-7.4-0.8-13.1-1.3c-9.7-0.6-19.5-0.4-29.2,0.7l0.4,1.6
		l1.9,0.7l-1.1-1.1h2.1c1.2,0,2.6-0.2,3.2-0.5c0.2,0,0.3,0,0.5,0v-0.1c0.2,0,0,0.6-0.8,1.7c-0.3,0.4-0.6,0.7-0.8,1
		c0.6,0.1,1.2,0.2,1.7,0.3l0.8-0.8c0,0,1.5-1.6,1.5-1.6l1.5,1.4l1.8,1.5l-2.3,0.2c0.1,0.2,0.2,0.4,0.3,0.7c0.1,0.4,0.2,0.7,0.2,1
		c1.8-0.1,3.8-0.1,5.8-0.1c10.2,0,21.5,0.7,28.1,1.8l1.9,0.3v5c0,3.8-0.2,5-0.8,5l-5.9-1.1c-7.3-1.2-14.8-1.9-22.2-2
		c0.5,0.4,1.1,0.7,2.1,1c4,0.1,7.8,0.2,10.8,0.6C137.8,288,138.1,288,138.4,288.1z M112.2,193.8c-4.4,3-8.4,6.7-11.7,10.9l-1.5,2.1
		l-0.4-4.8v-13.5c0.4-9.9,0-10.9-3.3-12c-2.7-0.9-6.2-1.8-5.3-2.4c1.2-0.7,2.3-0.2,5.2-1c1.2-0.2,1.1-0.1,0.8-1
		c-0.2-1.5-1.9-2.3-6.2-2.1c-3.5,0.2-3.9,0.1-3.6-0.8c0.5-1.8,2.3-3,5.3-3.3c1.8-0.2,3.5-0.7,5.2-1.5c1.3-0.8,2.8-1.2,4.3-1.1v0.1
		h2.3c7.7,0.5,9.1,2.5,11.3,16c0.6,3.6,1,7.1,1.4,10.7C116,190.9,114.9,192.1,112.2,193.8z M147.5,233
		C147.5,233.1,147.5,233.1,147.5,233c-0.2,0.4-0.8,0.6-1.3,0.5c-0.3-0.1-0.5-0.2-0.6-0.4c0-0.3,0.3-0.6,0.8-0.7
		C146.9,232.4,147.4,232.6,147.5,233z M137.9,234.5c0-0.3,0.3-0.6,0.8-0.7c0.6,0,1.1,0.2,1.2,0.6c0,0,0,0.1,0,0.1
		c-0.2,0.4-0.8,0.5-1.3,0.4C138.2,234.8,138,234.7,137.9,234.5z M138.5,235.9c0,0.1,0,0.1,0,0.2c-0.2,0.4-0.8,0.5-1.3,0.4
		c-0.3-0.1-0.5-0.2-0.6-0.4c0-0.3,0.3-0.6,0.8-0.7v-0.1C137.9,235.2,138.4,235.5,138.5,235.9z M140.4,235.5c0.6,0,1.1,0.2,1.2,0.6
		c-0.2,0.4-0.8,0.5-1.3,0.4c-0.3-0.1-0.5-0.2-0.6-0.4C139.6,235.8,139.9,235.6,140.4,235.5z M141.3,234.6c0.1-0.3,0.4-0.5,0.8-0.6
		c0.6,0,1.1,0.2,1.2,0.6c-0.2,0.4-0.8,0.5-1.3,0.4C141.6,234.9,141.4,234.8,141.3,234.6z M142.3,233.1c0-0.3,0.3-0.6,0.8-0.7
		c0.6,0,1.1,0.2,1.2,0.6c0,0,0,0.1,0,0.1c-0.2,0.4-0.8,0.5-1.3,0.4C142.7,233.5,142.5,233.3,142.3,233.1z M143.6,235.5
		c0.6,0,1.1,0.2,1.2,0.6c0,0,0,0.1,0,0.1c-0.2,0.4-0.8,0.5-1.3,0.4c-0.3-0.1-0.5-0.2-0.6-0.4C142.8,235.9,143.1,235.6,143.6,235.5z
		 M144.6,234.5c0-0.3,0.3-0.6,0.8-0.7c0.5,0,1,0.2,1.1,0.6c0,0,0,0.1,0,0.1c-0.3,0.3-0.9,0.5-1.4,0.3
		C144.8,234.7,144.7,234.6,144.6,234.5z M144.8,231c0.6,0,1.1,0.2,1.2,0.6c0,0,0,0.1,0,0.1c-0.2,0.4-0.8,0.5-1.3,0.4
		c-0.3-0.1-0.5-0.2-0.6-0.4C144,231.4,144.3,231.1,144.8,231z M142,230.5c0.6,0,1.1,0.2,1.2,0.6c0,0,0,0.1,0,0.1
		c-0.2,0.4-0.8,0.5-1.3,0.4c-0.3-0.1-0.5-0.2-0.6-0.4C141.2,230.8,141.5,230.5,142,230.5z M141.4,232.8
		C141.4,232.8,141.4,232.8,141.4,232.8c-0.2,0.4-0.8,0.6-1.3,0.5c-0.3-0.1-0.5-0.2-0.6-0.4c0-0.3,0.3-0.6,0.8-0.7
		C140.8,232.1,141.3,232.4,141.4,232.8z M139,229.9c0.6,0,1.1,0.2,1.2,0.6c0,0,0,0.1,0,0.1c-0.2,0.4-0.8,0.5-1.3,0.4
		c-0.3-0.1-0.5-0.2-0.6-0.4C138.1,230.3,138.5,230,139,229.9z M138.6,232.3C138.6,232.4,138.6,232.4,138.6,232.3
		c-0.2,0.4-0.8,0.6-1.3,0.5c-0.3-0.1-0.5-0.2-0.6-0.4c0-0.3,0.3-0.6,0.8-0.7C138,231.7,138.5,232,138.6,232.3z M136,229.6
		c0.6,0,1.1,0.2,1.2,0.6c0,0,0,0.1,0,0.1c-0.2,0.4-0.8,0.5-1.3,0.4c-0.3-0.1-0.5-0.2-0.6-0.4C135.2,229.9,135.5,229.6,136,229.6z
		 M135.9,233.9v-0.1c0.6,0,1.1,0.2,1.2,0.6c0,0,0,0.1,0,0.1c-0.2,0.4-0.8,0.5-1.3,0.4c-0.3-0.1-0.5-0.2-0.6-0.4
		C135.1,234.2,135.5,234,135.9,233.9z M134.4,235.3c0.6,0,1.1,0.2,1.2,0.6c0,0,0,0.1,0,0.1c-0.2,0.4-0.8,0.5-1.3,0.4
		c-0.3-0.1-0.5-0.2-0.6-0.4C133.5,235.6,133.9,235.3,134.4,235.3z M156.1,247.2c-6.1-1.4-15.7-2.6-25.6-3.4l-9.4-0.8l3.5-1.3
		c2.1-0.8,4.2-1.7,6.2-2.7c2.3-1.3,3.3-1.5,6.9-1.1c5.3,0.3,8.8-0.7,10.2-2.7l1.2-1.9c0.7,0.1,4.6,1,9.3,2.3l9.3,2.6l-1.8,3.1
		c-1,1.7-1.9,3.3-2.8,5C161.9,248.4,161.7,248.4,156.1,247.2z M121.7,263.2v0.1h3.4l-1.2,1.1c-2,2.3-2.9,2.4-4.3,0.9
		c-0.5-0.5-0.9-1.1-1.2-1.7C118.4,263.4,120,263.2,121.7,263.2z M110.9,267.3l-1.8-1.4l-1.8-1.5l2.8-0.3l2.8-0.3h0.2
		c0.1,0.2-0.4,1.1-1.2,1.9L110.9,267.3z M116,267.5l-3.5,0.1l1.6-1.7l1.6-1.9l1.9,1.6l1.9,1.7L116,267.5z M126.6,266.7h-3.2l1.6-1.5
		c0.8-0.8,1.5-1.1,2-1.1V264c0.6,0,1.2,0.3,1.9,1.5C129.8,266.7,129.8,266.7,126.6,266.7z M130.3,264.6l-1.3-1.4h6.2l-1.4,1.4
		C132.2,266.5,132,266.5,130.3,264.6z M138.1,267.4l-2.9-0.6l-1.4-0.3l1.5-1.5c0.7-0.7,1.2-1.1,1.6-1.1l-0.1,0.1
		c0.4,0,0.6,0.1,0.9,0.3c0.6,0.6,1.1,1.2,1.5,1.9C139.8,267.2,139.7,267.4,138.1,267.4z M141.5,266.7l-1.6-1.8l-1.3-1.6h1.4
		c0.8,0,2.3,0,3.3,0.2l1.8,0.3l-1.6,1.5C142.5,266.1,141.6,266.8,141.5,266.7z M149.1,267.8l-3.3-0.3l-2.6-0.2l1.9-1.5l1.9-1.6
		l1.4,1.4C150.1,267,150.3,268,149.1,267.8z M150.2,265.4l-1.8-1.8l1.4,0.3c0.8,0.2,2.6,0.3,3.9,0.5h2.3l-1.8,1.5
		c-0.6,0.6-1.3,1.1-2.1,1.5C152.1,267.4,151,266.5,150.2,265.4z M154.1,268c0-0.2,0.4-0.6,0.8-0.8h0.4l0.1-0.1c0.2,0,0.2,0.2,0,0.7
		C155.1,268.6,154.1,268.9,154.1,268z M119.6,273.7l-1.4-1.5h6.3l-1.4,1.5C121.4,275.5,121.2,275.5,119.6,273.7z M126.3,275.7h-3.4
		l1.8-1.8l1.6-1.7h0.1l1.6,1.6l1.6,1.8L126.3,275.7z M130.3,273.7l-1.4-1.5h6.3l-1.4,1.5C132.2,275.5,132,275.5,130.3,273.7z
		 M135.8,275.8l-2-0.3l1.4-1.4l1.4-1.4l1.6,1.8C140.1,276.5,140,276.6,135.8,275.8z M143.4,274.8c-1.4,1.1-1.4,1.1-3-0.6l-1.4-1.5
		h2.8C144.8,272.8,145.2,273.2,143.4,274.8z M146.3,277c-1.6,0-2.3-0.2-2.3-0.7c0.2-0.5,0.8-1.1,1.5-1.5l0.8-0.3
		c0.5,0,0.8,0.2,1.4,1.1l1.1,1.4H146.3z M150.7,277l-1.3-1.6l-1.2-1.8h0.4v0c0.5,0,1.4,0,2.3,0.2l2.7,0.5l-1.5,1.4L150.7,277z
		 M152.5,277.7c-0.1-0.3,0.1-0.9,0.6-1.3l0.7-0.5c0.2,0,0.2,0.2,0.2,0.6C154.1,277.7,153,278.5,152.5,277.7z"/>
	<path d="M108.8,233.6c2.7-3.2,2.8-3.4,2.7-6.7c0-1.8-0.2-3.5-0.5-3.8c-0.7-0.7-1.6,3-1.2,4.9c0.2,1.8,0,2.4-3.9,6.9
		c-2.6,2.9-5.3,5.7-8.2,8.3c0.2,0.4,0.4,0.8,0.6,1.3c0.3-0.3,0.6-0.6,1-1C103,240,107.3,235.5,108.8,233.6z"/>
	<path d="M148.1,259c3.8-3.9,1.2-10.3-4.1-10.3c-3.5,0-6,2.4-6,5.9C138,260.2,144.3,262.9,148.1,259z M142.1,250.6
		c0.6-0.3,1.1-0.4,1.8-0.5h0.1c2.6,0,4.7,2,4.7,4.6c0,3.4-3.9,5.7-7,4.2C138.5,257.2,138.7,252,142.1,250.6z"/>
	<path d="M124.5,258.4c3.8-3.9,1.2-10.3-4.1-10.3c-3.5,0-6,2.4-6,5.9C114.5,259.5,120.8,262.2,124.5,258.4z M118.6,249.9
		c0.6-0.3,1.1-0.4,1.8-0.5h0.1c2.6,0,4.7,2,4.7,4.6c0,3.4-3.9,5.7-7,4.2C114.9,256.5,115.2,251.3,118.6,249.9z"/>
	<path d="M101,170c1.1,0,2.1-0.9,2.1-2.1c-0.1-1.1-1-2-2.1-2c0,0-0.1,0-0.1,0c-1,0.1-1.8,0.9-1.9,1.9C99,169,99.9,170,101,170z
		 M101,166.6c0.8,0,1.4,0.6,1.4,1.3s-0.6,1.3-1.4,1.3s-1.4-0.6-1.4-1.3S100.2,166.6,101,166.6z"/>
</g>
</svg>
